<?xml version="1.0" encoding="UTF-8" standalone="no"?>
<!DOCTYPE svg PUBLIC "-//W3C//DTD SVG 1.1//EN"
 "http://www.w3.org/Graphics/SVG/1.1/DTD/svg11.dtd">
<!-- Generated by graphviz version 2.40.1 (0)
 -->
<!-- Title: packages Pages: 1 -->
<svg width="1768pt" height="1032pt"
 viewBox="0.00 0.00 2121.06 1238.64" xmlns="http://www.w3.org/2000/svg" xmlns:xlink="http://www.w3.org/1999/xlink">
<g id="graph0" class="graph" transform="scale(.8333 .8333) rotate(0) translate(121.364 1103.9017)">
<title>packages</title>
<polygon fill="#dae2ff" stroke="transparent" points="-121.364,134.7386 -121.364,-1103.9017 1999.7001,-1103.9017 1999.7001,134.7386 -121.364,134.7386"/>
<polygon fill="#fed9a6" stroke="#fed9a6" points="1382.0031,-764.131 1392.2533,-745.4185 1394.2568,-741.9416 1362.3223,-716.8855 1355.0829,-711.4711 1249.6558,-733.0372 1254.0375,-665.8597 1241.2277,-671.7906 1230.7324,-675.5433 1229.423,-675.9416 1225.8796,-676.8347 1218.0784,-678.3972 1215.421,-678.7902 1213.3199,-738.2418 1213.4087,-738.2675 1215.0245,-738.2675 1219.0316,-741.7937 1223.7168,-743.1374 1223.7168,-743.1374 1219.0316,-741.7937 1215.0245,-738.2675 1213.4087,-738.2675 1213.3199,-738.2418 1209.2349,-738.2418 1206.5392,-768.7347 1208.1635,-819.9223 1194.7867,-805.9712 1185.3855,-796.9972 1160.1603,-800.238 1131.869,-800.4293 1126.8674,-804.5585 1126.9742,-734.3818 1119.2661,-737.1902 1113.6285,-738.9708 1113.4696,-739.0133 1105.8578,-740.689 1101.3285,-741.4697 1100.7646,-801.8372 1106.0433,-804.8629 1107.4498,-806.4726 1106.863,-807.1351 1106.863,-807.1351 1107.4498,-806.4726 1106.0433,-804.8629 1100.7646,-801.8372 1101.3285,-741.4697 1094.4639,-742.3253 1087.9829,-742.8229 1086.4001,-742.7933 1077.9766,-743.0275 1071.6606,-742.597 1067.614,-742.8871 1064.1173,-742.97 1060.683,-742.887 1055.1805,-743.0097 1043.2708,-744.3846 1036.063,-745.8856 1033.3888,-746.5666 1024.943,-749.1139 1021.286,-746.155 1007.2149,-737.5451 963.3468,-713.7131 957.3546,-710.0687 954.8204,-708.3649 953.5136,-729.7513 947.6338,-774.3267 944.3433,-774.3267 942.8204,-774.7565 940.0818,-774.7565 939.3173,-774.537 937.2384,-774.537 933.7667,-771.501 933.7667,-771.501 937.2384,-774.537 939.3173,-774.537 940.0818,-774.7565 942.8204,-774.7565 944.3433,-774.3267 947.6338,-774.3267 953.5136,-729.7513 954.8204,-708.3649 945.5671,-700.8763 938.9951,-696.0621 933.1603,-691.451 932.8385,-691.1783 929.3227,-687.7644 917.3219,-675.3264 913.0787,-670.6733 912.4311,-669.8819 915.7274,-664.5191 945.6353,-607.9135 951.1655,-598.2742 951.9129,-597.9959 1008.2523,-578.7623 1021.4115,-573.8583 1029.9363,-570.1603 1033.1483,-568.467 1043.6123,-584.0158 1054.7642,-598.6489 1056.4298,-600.681 1058.6874,-603.2391 1067.1527,-612.1289 1068.5536,-613.762 1070.3132,-615.4741 1075.7021,-621.3324 1085.7455,-631.1655 1087.7798,-632.9124 1120.8176,-666.3137 1126.351,-671.04 1132.8474,-677.3304 1134.766,-679.4007 1141.5723,-687.5585 1142.6719,-688.6237 1146.1528,-692.3052 1131.934,-730.5975 1131.0348,-732.7081 1126.9742,-734.3818 1126.8674,-804.5585 1131.869,-800.4293 1160.1603,-800.238 1185.3855,-796.9972 1194.7867,-805.9712 1208.1635,-819.9223 1206.5392,-768.7347 1209.2349,-738.2418 1213.3199,-738.2418 1215.421,-678.7902 1218.0784,-678.3972 1225.8796,-676.8347 1229.423,-675.9416 1230.7324,-675.5433 1241.2277,-671.7906 1254.0375,-665.8597 1249.6558,-733.0372 1355.0829,-711.4711 1342.0217,-701.0899 1334.4943,-695.7443 1324.5865,-689.5294 1319.3992,-686.4941 1308.75,-681.1442 1303.3689,-678.668 1300.9677,-677.6642 1289.7729,-673.9017 1284.6606,-672.3969 1255.603,-665.0556 1243.1984,-621.14 1242.6621,-612.5674 1239.6055,-590.4205 1225.6807,-541.1232 1205.2883,-536.1796 1185.4063,-530.6452 1185.4727,-537.0267 1185.8242,-544.9548 1189.0304,-583.9343 1194.6962,-616.771 1191.6039,-621.5228 1188.728,-621.5228 1188.6023,-621.5587 1184.3722,-621.5587 1183.4229,-621.2838 1178.6694,-621.2838 1177.7888,-621.0306 1174.0486,-621.0306 1173.6757,-620.9243 1172.2939,-620.9243 1168.9965,-618.1556 1168.9965,-618.1556 1172.2939,-620.9243 1173.6757,-620.9243 1174.0486,-621.0306 1177.7888,-621.0306 1178.6694,-621.2838 1183.4229,-621.2838 1184.3722,-621.5587 1188.6023,-621.5587 1188.728,-621.5228 1191.6039,-621.5228 1194.6962,-616.771 1189.0304,-583.9343 1185.8242,-544.9548 1185.4727,-537.0267 1185.4063,-530.6452 1180.2073,-528.4687 1171.9233,-531.6584 1168.5641,-532.8309 1156.8047,-536.1028 1147.7224,-538.3029 1146.9595,-538.4327 1138.0864,-539.6281 1128.2075,-540.6055 1121.9194,-540.7772 1115.873,-541.16 1104.5731,-542.2831 1092.3973,-544.3673 1088.8446,-545.2283 1074.0367,-549.8943 1063.3591,-554.0233 1033.667,-567.6226 1011.4482,-503.1722 1007.3807,-485.7834 1002.8909,-460.35 972.2688,-371.5241 948.4819,-384.0037 928.8914,-392.5271 915.7104,-397.0563 912.4247,-398.0842 902.6572,-400.5481 900.8994,-400.938 885.2461,-403.4683 876.8055,-404.3188 867.7084,-404.6836 864.1915,-404.6112 856.3614,-404.7028 853.6111,-404.913 845.7887,-404.7969 838.6057,-404.4715 836.6265,-404.5098 833.1281,-404.3654 831.188,-404.3478 823.2384,-404.7894 821.836,-404.9128 820.9976,-404.9609 811.7953,-404.9306 804.6422,-405.1377 684.9865,-416.3055 682.2255,-423.3219 685.6021,-481.2144 701.0236,-488.0244 746.0657,-510.7941 818.4744,-502.9539 822.3215,-499.0763 824.4214,-498.3865 825.9293,-497.2798 828.1121,-497.2798 829.5372,-496.8738 832.3454,-496.8738 833.8231,-497.3059 838.7123,-497.3059 839.6019,-537.0322 845.2235,-497.2374 848.197,-497.2374 848.7673,-497.3961 853.3165,-497.3961 853.9493,-497.2142 853.9493,-497.2142 853.3165,-497.3961 848.7673,-497.3961 848.197,-497.2374 845.2235,-497.2374 839.6019,-537.0322 838.7123,-497.3059 833.8231,-497.3059 832.3454,-496.8738 829.5372,-496.8738 828.1121,-497.2798 825.9293,-497.2798 824.4214,-498.3865 822.3215,-499.0763 818.4744,-502.9539 746.0657,-510.7941 701.0236,-488.0244 685.6021,-481.2144 675.834,-512.37 662.9904,-567.6252 657.3433,-589.3463 654.4359,-598.6196 659.8779,-635.86 666.4,-665.584 624.5039,-714.4583 655.0001,-796.1224 659.986,-816.3173 709.803,-808.6456 713.1597,-805.2946 715.2741,-804.6437 717.2794,-803.2098 718.684,-803.2098 724.839,-845.812 724.8889,-846.5317 731.4504,-803.3519 733.9466,-803.3519 739.0294,-838.5823 740.7047,-803.0978 744.0464,-803.0978 745.6676,-804.9584 750.291,-807.5502 755.8487,-807.5502 759.9508,-805.2883 762.052,-802.8367 765.2468,-802.8367 771.0039,-692.4136 773.1406,-692.524 783.6633,-692.2769 783.7147,-624.7214 783.7147,-624.7214 783.6633,-692.2769 790.6571,-692.4576 791.2916,-582.0707 795.5665,-582.0707 798.8491,-624.6694 799.0682,-692.4885 802.0807,-692.5625 806.616,-581.9061 809.4409,-581.9061 811.3994,-584.0328 815.7706,-586.3779 821.2019,-586.3779 821.2019,-586.3779 815.7706,-586.3779 821.1075,-639.349 820.9619,-692.1736 837.1072,-686.4486 844.2877,-684.3188 845.056,-647.6401 844.9988,-645.1708 844.9988,-645.1708 845.056,-647.6401 844.2877,-684.3188 837.1072,-686.4486 820.9619,-692.1736 821.1075,-639.349 815.7706,-586.3779 811.3994,-584.0328 809.4409,-581.9061 806.616,-581.9061 802.0807,-692.5625 799.0682,-692.4885 798.8491,-624.6694 795.5665,-582.0707 791.2916,-582.0707 790.6571,-692.4576 783.6633,-692.2769 773.1406,-692.524 771.0039,-692.4136 765.2468,-802.8367 762.052,-802.8367 759.9508,-805.2883 755.8487,-807.5502 750.291,-807.5502 745.6676,-804.9584 744.0464,-803.0978 740.7047,-803.0978 739.0294,-838.5823 733.9466,-803.3519 731.4504,-803.3519 724.8889,-846.5317 724.839,-845.812 718.684,-803.2098 717.2794,-803.2098 715.2741,-804.6437 713.1597,-805.2946 709.803,-808.6456 659.986,-816.3173 662.2297,-828.7859 671.5212,-858.3637 693.9354,-918.3857 679.6263,-944.1968 652.656,-987.449 650.0856,-991.3857 675.7049,-1049.4969 694.4376,-1080.2244 740.4775,-1088.1205 791.7333,-1084.5477 806.1561,-1083.8584 817.2571,-1083.8165 829.2502,-1084.2996 828.2299,-999.0544 830.7349,-961.5792 835.4979,-958.9399 836.8571,-957.4232 835.5309,-955.8287 830.1013,-952.5799 825.6236,-952.5799 825.6236,-952.5799 830.1013,-952.5799 835.5309,-955.8287 836.8571,-957.4232 835.4979,-958.9399 830.7349,-961.5792 828.2299,-999.0544 829.2502,-1084.2996 837.0553,-1084.9573 849.0665,-1086.2335 849.3169,-1086.271 852.595,-1086.8347 908.8089,-1097.7433 925.6887,-1088.0547 1002.7543,-1089.6807 1022.1674,-1090.9851 1030.0428,-1091.8757 1030.5835,-1091.9617 1046.6913,-1094.8973 1057.3342,-1097.326 1061.223,-1098.3022 1067.0626,-1099.9017 1146.0682,-1074.7411 1189.8947,-1019.0506 1191.8535,-992.7792 1194.7505,-963.1862 1197.9226,-936.9496 1250.5571,-880.4725 1257.6439,-878.2551 1334.4866,-855.8732 1382.0031,-764.131 1382.0031,-764.131"/>
<polygon fill="#b3cde3" stroke="#b3cde3" points="-19.0744,-475.3523 32.084,-479.8672 34.0585,-480.0827 41.2427,-481.0174 42.2472,-343.6381 46.8612,-343.6381 54.3314,-454.058 52.6389,-346.5737 58.0937,-348.227 63.8735,-346.4998 67.3128,-343.5897 63.9132,-340.6244 57.9967,-338.7896 57.9967,-338.7896 63.9132,-340.6244 67.3128,-343.5897 63.8735,-346.4998 58.0937,-348.227 52.6389,-346.5737 54.3314,-454.058 46.8612,-343.6381 42.2472,-343.6381 41.2427,-481.0174 54.0711,-482.9548 65.5237,-485.6445 67.656,-486.1902 74.5874,-485.1666 73.764,-343.6087 76.7624,-343.6087 76.7624,-343.6087 73.764,-343.6087 74.5874,-485.1666 87.1446,-483.5672 206.6292,-473.2151 216.5874,-498.827 236.4498,-556.4047 258.2795,-624.5478 318.311,-673.2384 315.1853,-773.09 308.8633,-835.2036 311.9588,-869.3479 409.2036,-929.0805 444.2292,-879.0897 447.3476,-809.3964 452.2873,-774.4514 453.0096,-773.3764 451.8645,-772.4495 451.237,-771.3732 450.8183,-702.3813 447.5035,-701.6849 329.8861,-671.7454 326.1583,-670.8792 369.3013,-631.8079 375.347,-524.7174 378.8531,-521.0015 380.1175,-520.4423 383.8387,-618.7885 384.2935,-618.3693 392.8807,-610.9106 390.8473,-519.7162 390.8473,-519.7162 392.8807,-610.9106 393.2205,-610.6342 403.8153,-602.5709 408.0831,-599.5585 419.3967,-592.7799 419.8475,-558.6385 416.9063,-519.6765 416.2636,-519.6765 412.7036,-522.7094 412.7036,-522.7094 416.2636,-519.6765 411.8945,-515.8338 407.158,-514.4993 407.158,-514.4993 411.8945,-515.8338 416.2636,-519.6765 416.9063,-519.6765 419.8475,-558.6385 419.3967,-592.7799 408.0831,-599.5585 403.8153,-602.5709 393.2205,-610.6342 392.8807,-610.9106 384.2935,-618.3693 383.8387,-618.7885 380.1175,-520.4423 378.8531,-521.0015 375.347,-524.7174 369.3013,-631.8079 326.1583,-670.8792 329.8861,-671.7454 447.5035,-701.6849 450.8183,-702.3813 452.3751,-702.6398 461.0925,-703.7053 470.7536,-704.4586 473.9732,-704.4244 474.588,-704.4458 486.412,-704.3336 486.1955,-697.746 486.1955,-697.746 486.412,-704.3336 488.911,-704.5371 489.4186,-704.5111 499.6536,-704.4503 500.0945,-679.0895 503.7885,-640.8034 508.5142,-639.4341 511.8119,-704.5046 519.0623,-704.4871 519.0552,-704.2893 519.0552,-704.2893 519.0623,-704.4871 511.8119,-704.5046 508.5142,-639.4341 503.7885,-640.8034 500.0945,-679.0895 499.6536,-704.4503 489.4186,-704.5111 488.911,-704.5371 486.412,-704.3336 474.588,-704.4458 473.9732,-704.4244 470.7536,-704.4586 461.0925,-703.7053 452.3751,-702.6398 450.8183,-702.3813 451.237,-771.3732 451.8645,-772.4495 453.0096,-773.3764 455.5132,-773.3764 462.0015,-834.215 461.6854,-772.9199 461.8286,-772.8783 465.8372,-772.8783 466.7589,-773.156 468.8329,-773.156 472.2594,-776.2561 477.9209,-777.9656 477.9209,-777.9656 472.2594,-776.2561 468.8329,-773.156 466.7589,-773.156 465.8372,-772.8783 461.8286,-772.8783 461.6854,-772.9199 462.0015,-834.215 455.5132,-773.3764 453.0096,-773.3764 452.2873,-774.4514 447.3476,-809.3964 444.2292,-879.0897 409.2036,-929.0805 430.3937,-957.7396 472.9898,-963.9028 540.1885,-964.8428 554.1751,-965.6595 554.4033,-965.6829 564.7552,-966.9766 565.6227,-967.1043 573.3931,-968.4213 575.0253,-842.8413 580.1797,-841.3872 584.0139,-838.1347 580.3983,-834.8665 580.3983,-834.8665 584.0139,-838.1347 580.1797,-841.3872 575.0253,-842.8413 573.3931,-968.4213 580.7112,-969.8246 588.7087,-971.5357 591.7159,-972.3126 608.1475,-976.9257 604.7855,-877.5415 604.7855,-877.5415 608.1475,-976.9257 612.1021,-978.2099 650.0856,-991.3857 652.656,-987.449 679.6263,-944.1968 693.9354,-918.3857 671.5212,-858.3637 662.2297,-828.7859 659.986,-816.3173 655.0001,-796.1224 624.5039,-714.4583 666.4,-665.584 659.8779,-635.86 654.4359,-598.6196 657.3433,-589.3463 662.9904,-567.6252 675.834,-512.37 597.2459,-512.37 597.2459,-512.37 675.834,-512.37 685.6021,-481.2144 682.2255,-423.3219 684.9865,-416.3055 680.1622,-394.7105 679.9432,-393.6213 677.3211,-390.6139 666.9653,-379.1635 654.6414,-366.5763 653.6382,-365.6379 647.9796,-360.5739 647.8642,-360.4584 630.9824,-345.0651 572.7869,-297.502 535.9224,-300.8355 535.677,-316.4507 535.677,-316.4507 535.9224,-300.8355 572.7869,-297.502 577.9223,-255.4694 579.0342,-237.7147 578.7128,-232.1544 578.7154,-230.9779 586.8151,-164.6831 545.4771,-112.55 534.699,-101.0164 516.6009,-80.7725 515.462,-79.3974 509.976,-230.9517 511.4882,-231.405 515.2961,-231.405 517.9465,-301.0668 515.4007,-301.3202 516.7914,-319.678 516.7914,-319.678 515.4007,-301.3202 517.9465,-301.0668 515.2961,-231.405 511.4882,-231.405 509.976,-230.9517 515.462,-79.3974 503.6693,-64.6017 502.1926,-64.7928 502.2683,-201.7673 498.9177,-227.5985 494.5569,-226.3619 488.483,-228.1557 484.7552,-231.3247 488.5265,-234.5618 494.0158,-236.1928 494.0158,-236.1928 488.5265,-234.5618 492.8224,-300.88 496.3949,-300.7801 497.5692,-366.903 493.1735,-370.4894 496.8457,-373.5323 496.8457,-373.5323 493.1735,-370.4894 497.5692,-366.903 496.3949,-300.7801 492.8224,-300.88 488.5265,-234.5618 484.7552,-231.3247 484.3203,-231.3247 478.8484,-164.6882 478.8484,-164.6882 484.3203,-231.3247 484.7552,-231.3247 488.483,-228.1557 494.5569,-226.3619 498.9177,-227.5985 502.2683,-201.7673 502.1926,-64.7928 491.6868,-65.7906 478.2765,-66.6025 470.2029,-66.6742 463.5317,-68.8024 453.7481,-71.7363 437.685,-76.244 329.4714,-124.7003 277.9743,-70.504 209.4786,-11.8974 167.6427,4.9176 157.9854,9.015 156.2809,9.167 152.0016,9.6287 151.6167,-89.9671 148.2918,-138.9903 143.9521,-138.9903 142.4587,-80.3681 137.8598,-139.1023 135.0136,-139.1023 134.0943,-138.0862 128.3876,-134.7778 123.0319,-134.7778 117.3203,-138.1147 116.3134,-139.2397 117.4286,-140.462 122.6557,-143.4328 122.6557,-143.4328 117.4286,-140.462 116.3134,-139.2397 117.3203,-138.1147 123.0319,-134.7778 128.3876,-134.7778 134.0943,-138.0862 135.0136,-139.1023 137.8598,-139.1023 142.4587,-80.3681 143.9521,-138.9903 148.2918,-138.9903 151.6167,-89.9671 152.0016,9.6287 144.8631,10.6663 124.9769,14.3055 113.852,17.1747 111.8596,17.7638 106.4089,18.1066 98.6788,14.3886 84.2645,8.0801 88.6845,-106.5726 88.6845,-106.5726 84.2645,8.0801 11.696,-20.5022 4.0297,-27.3424 -47.517,-139.15 -51.4879,-146.4172 -35.4336,-213.8834 -116.1585,-343.45 -117.364,-345.1418 -110.3382,-379.2084 -33.5483,-464.1092 -19.0744,-475.3523 -19.0744,-475.3523"/>
<polygon fill="#fbb4ae" stroke="#fbb4ae" points="1701.2206,-672.9766 1747.4504,-565.98 1748.7672,-563.4268 1752.712,-553.4802 1719.1169,-413.5423 1649.3411,-373.3375 1635.6788,-383.9011 1612.2113,-402.7058 1610.6027,-403.952 1598.3676,-412.8001 1592.3389,-417.0005 1581.9081,-423.7209 1570.1073,-431.0102 1565.1678,-433.6646 1545.1711,-443.3748 1538.4636,-446.0948 1533.8176,-447.8564 1523.2548,-451.5838 1459.457,-472.3887 1449.4788,-475.9077 1435.4371,-482.368 1424.4719,-487.7063 1424.087,-487.2198 1422.4774,-485.0774 1422.306,-484.8591 1417.464,-478.9565 1411.6958,-472.5358 1401.1635,-461.3596 1390.2068,-450.9078 1385.889,-447.0285 1385.5979,-446.7252 1309.4199,-376.7176 1305.7437,-373.6152 1313.3799,-346.7586 1317.7325,-323.8375 1326.985,-291.3179 1346.5557,-231.5819 1349.7544,-231.2133 1371.783,-229.167 1373.1625,-229.132 1374.9343,-229.1267 1389.9923,-228.7577 1407.403,-227.5801 1408.4662,-227.4854 1416.3073,-226.4503 1431.0674,-223.545 1448.2867,-219.4125 1453.2167,-218.0198 1454.3998,-217.6348 1518.5439,-195.3631 1509.2545,-141.6361 1502.6473,-97.2624 1499.1366,-68.8665 1496.3452,-40.3668 1480.277,.5018 1449.2307,30.748 1419.4261,48.8117 1382.1583,40.6312 1377.4615,-96.5292 1372.8132,-101.5497 1372.4578,-101.5497 1371.9077,-101.3862 1368.1613,-101.3862 1367.912,-101.1046 1361.2917,-97.1138 1356.72,-97.1138 1356.72,-97.1138 1361.2917,-97.1138 1367.912,-101.1046 1368.1613,-101.3862 1371.9077,-101.3862 1372.4578,-101.5497 1372.8132,-101.5497 1377.4615,-96.5292 1382.1583,40.6312 1377.8131,39.7678 1362.4645,37.0371 1354.3748,35.938 1339.3608,34.5272 1342.1854,-62.4837 1342.1854,-62.4837 1339.3608,34.5272 1243.7792,29.56 1192.7094,10.0022 1179.7065,12.0158 1174.2665,-124.4012 1169.2052,-174.6772 1168.6984,-175.4552 1167.8928,-176.0633 1165.5352,-176.0633 1164.9688,-175.9032 1160.4152,-175.9032 1160.4152,-175.9032 1164.9688,-175.9032 1165.5352,-176.0633 1167.8928,-176.0633 1168.6984,-175.4552 1169.2052,-174.6772 1174.2665,-124.4012 1179.7065,12.0158 1165.8148,14.5806 1161.6227,9.7603 1152.7334,-.1628 1150.1219,-2.902 1143.1362,-10.0017 1135.3641,-17.3962 1134.4327,-18.3187 1129.1967,-23.9412 1118.6149,-34.1344 1097.049,-53.3432 1032.3387,-108.3864 1038.301,-164.819 1038.667,-189.423 1038.8658,-191.2896 1038.8735,-191.3405 987.7476,-254.3151 967.567,-274.3731 964.7876,-277.528 961.4288,-281.5948 954.7659,-290.1806 955.2855,-292.8788 956.7537,-299.3331 1047.7411,-270.8768 1039.173,-364.3197 1061.8542,-363.0574 1058.1649,-316.1986 1058.1649,-316.1986 1061.8542,-363.0574 1062.4038,-363.0585 1064.1383,-362.9611 1064.1383,-362.9611 1062.4038,-363.0585 1061.8542,-363.0574 1039.173,-364.3197 1047.7411,-270.8768 956.7537,-299.3331 957.9492,-305.575 965.8842,-340.7409 973.3787,-369.8631 972.2688,-371.5241 1002.8909,-460.35 1007.3807,-485.7834 1011.4482,-503.1722 1033.667,-567.6226 1063.3591,-554.0233 1064.0833,-510.7759 1064.0833,-510.7759 1063.3591,-554.0233 1074.0367,-549.8943 1088.8446,-545.2283 1086.5616,-496.735 1088.0352,-464.7576 1092.9897,-464.7576 1098.701,-461.4491 1099.4075,-460.6657 1097.7421,-458.6834 1092.7765,-455.8116 1087.8229,-455.8116 1087.8229,-455.8116 1092.7765,-455.8116 1097.7421,-458.6834 1099.4075,-460.6657 1098.701,-461.4491 1092.9897,-464.7576 1088.0352,-464.7576 1086.5616,-496.735 1088.8446,-545.2283 1092.3973,-544.3673 1104.5731,-542.2831 1105.1738,-505.9875 1105.1738,-505.9875 1104.5731,-542.2831 1115.873,-541.16 1121.9194,-540.7772 1128.2075,-540.6055 1138.0864,-539.6281 1146.9595,-538.4327 1147.7224,-538.3029 1156.8047,-536.1028 1168.5641,-532.8309 1171.9233,-531.6584 1180.2073,-528.4687 1179.045,-472.72 1179.3563,-469.0316 1178.6395,-435.7436 1178.6455,-435.5534 1177.8435,-397.0829 1200.9468,-390.8626 1212.3698,-388.2574 1210.5101,-316.9087 1212.4883,-313.9215 1214.9788,-313.9215 1218.7562,-347.7505 1221.741,-317.2333 1226.092,-318.4903 1226.092,-318.4903 1221.741,-317.2333 1218.7562,-347.7505 1214.9788,-313.9215 1212.4883,-313.9215 1210.5101,-316.9087 1212.3698,-388.2574 1200.9468,-390.8626 1177.8435,-397.0829 1178.6455,-435.5534 1178.6395,-435.7436 1179.3563,-469.0316 1179.045,-472.72 1180.2073,-528.4687 1185.4063,-530.6452 1205.2883,-536.1796 1225.6807,-541.1232 1235.8893,-537.2222 1243.1346,-534.7565 1251.8394,-532.1629 1265.2997,-529.2989 1265.3035,-499.3635 1265.6191,-495.4308 1265.6191,-495.4308 1265.3035,-499.3635 1265.2997,-529.2989 1251.8394,-532.1629 1243.1346,-534.7565 1235.8893,-537.2222 1225.6807,-541.1232 1239.6055,-590.4205 1242.6621,-612.5674 1243.1984,-621.14 1255.603,-665.0556 1284.6606,-672.3969 1289.7729,-673.9017 1300.9677,-677.6642 1300.7164,-670.1249 1295.4098,-597.9229 1295.4049,-597.9215 1292.2045,-597.9215 1291.4427,-596.6976 1287.6738,-528.0443 1293.3512,-527.8167 1293.5612,-503.0751 1293.5612,-503.0751 1293.3512,-527.8167 1287.6738,-528.0443 1291.4427,-596.6976 1292.2045,-597.9215 1295.4049,-597.9215 1295.4098,-597.9229 1300.7164,-670.1249 1300.9677,-677.6642 1303.3689,-678.668 1308.75,-681.1442 1319.3992,-686.4941 1319.1001,-638.9896 1321.7704,-602.4184 1326.6832,-599.7006 1328.168,-598.0787 1326.7172,-596.4738 1321.1499,-593.346 1316.88,-593.346 1316.88,-593.346 1321.1499,-593.346 1326.7172,-596.4738 1328.168,-598.0787 1326.6832,-599.7006 1321.7704,-602.4184 1319.1001,-638.9896 1319.3992,-686.4941 1324.5865,-689.5294 1334.4943,-695.7443 1334.2186,-631.6156 1337.5313,-598.0906 1337.1411,-597.9797 1337.1411,-597.9797 1337.5313,-598.0906 1334.2186,-631.6156 1334.4943,-695.7443 1342.0217,-701.0899 1355.0829,-711.4711 1362.3223,-716.8855 1394.2568,-741.9416 1462.1654,-710.817 1504.6978,-718.937 1530.3522,-713.9386 1531.5985,-713.7425 1545.9376,-711.7534 1555.5134,-710.9632 1569.4116,-710.0768 1578.0001,-710.0127 1579.8306,-709.1832 1580.2683,-623.0638 1577.6453,-568.0566 1573.1002,-570.5303 1567.975,-570.5303 1562.0624,-567.2035 1561.2845,-566.3723 1557.9106,-566.3723 1556.4204,-565.955 1554.1613,-565.955 1554.1613,-565.955 1556.4204,-565.955 1557.9106,-566.3723 1561.2845,-566.3723 1562.0624,-567.2035 1567.975,-570.5303 1573.1002,-570.5303 1577.6453,-568.0566 1579.6464,-565.8201 1579.3303,-565.4788 1579.3303,-565.4788 1579.6464,-565.8201 1577.6453,-568.0566 1580.2683,-623.0638 1579.8306,-709.1832 1591.8353,-704.2799 1607.2656,-699.0121 1622.2017,-694.5858 1701.2206,-672.9766 1701.2206,-672.9766"/>
<polygon fill="#decbe4" stroke="#decbe4" points="630.9824,-345.0651 631.1163,-341.0091 631.1163,-341.0091 630.9824,-345.0651 572.7869,-297.502 577.9223,-255.4694 579.0342,-237.7147 578.7128,-232.1544 578.7154,-230.9779 586.8151,-164.6831 545.4771,-112.55 631.4651,-112.55 658.4559,-118.9251 664.5662,-115.0005 666.3377,-112.5787 666.3629,-112.5612 667.366,-112.5612 667.649,-112.6406 674.3925,-112.6406 674.7938,-112.527 676.975,-112.527 678.6486,-114.361 683.9193,-117.2513 688.0425,-117.2513 688.0425,-117.2513 683.9193,-117.2513 678.6486,-114.361 676.975,-112.527 674.7938,-112.527 674.3925,-112.6406 667.649,-112.6406 667.366,-112.5612 666.3629,-112.5612 666.3377,-112.5787 664.5662,-115.0005 658.4559,-118.9251 631.4651,-112.55 545.4771,-112.55 534.699,-101.0164 516.6009,-80.7725 515.462,-79.3974 503.6693,-64.6017 556.741,-12.4669 628.2785,29.0994 655.9917,30.2824 659.4766,30.4964 667.1882,31.1148 672.286,30.5844 681.1422,29.996 685.5492,29.786 696.0198,29.6801 701.5497,29.8319 705.5406,30.0165 722.5773,31.1248 735.0693,32.1709 758.4764,40.762 785.423,43.3083 849.7218,94.7153 901.8896,114.011 904.3395,114.1848 915.4547,-11.7155 875.0671,-16.2206 836.3773,-17.4733 829.9044,-11.178 827.2394,-99.4716 822.8075,-98.2433 816.785,-100.0659 813.1082,-103.3462 817.1722,-106.8171 821.5644,-108.0399 821.5644,-108.0399 817.1722,-106.8171 813.1082,-103.3462 816.785,-100.0659 822.8075,-98.2433 827.2394,-99.4716 829.9044,-11.178 836.3773,-17.4733 875.0671,-16.2206 915.4547,-11.7155 904.3395,114.1848 925.2419,116.1168 920.1969,-15.0764 921.8408,-17.6574 921.002,-18.3698 920.0721,-20.0559 915.1254,-24.1529 838.045,-19.1614 837.3144,-18.4857 839.3569,-67.0394 837.389,-103.1567 838.2276,-103.4039 843.2248,-103.4039 842.2745,-173.8171 836.3301,-179.2553 826.2399,-190.05 844.4532,-190.05 885.1144,-192.1119 885.1144,-192.1119 844.4532,-190.05 826.2399,-190.05 836.3301,-179.2553 842.2745,-173.8171 843.2248,-103.4039 838.2276,-103.4039 837.389,-103.1567 839.3569,-67.0394 837.3144,-18.4857 838.045,-19.1614 915.1254,-24.1529 920.0721,-20.0559 921.002,-18.3698 921.8408,-17.6574 920.1969,-15.0764 925.2419,116.1168 926.6161,116.273 939.54,118.2951 941.1108,118.5743 950.4124,120.4258 964.5424,124.146 969.4836,125.552 985.3287,130.7386 986.7672,130.0385 983.2064,46.9189 983.2064,46.9189 986.7672,130.0385 1062.5416,96.6431 1152.8035,29.1742 1157.5259,25.1797 1165.8148,14.5806 1161.6227,9.7603 1152.7334,-.1628 1150.1219,-2.902 1143.1362,-10.0017 1135.3641,-17.3962 1134.4327,-18.3187 1129.1967,-23.9412 1118.6149,-34.1344 1097.049,-53.3432 1032.3387,-108.3864 987.5937,-104.6797 974.7332,-104.0515 969.6572,-104.1501 968.9263,-145.8038 968.9263,-145.8038 969.6572,-104.1501 974.7332,-104.0515 987.5937,-104.6797 1032.3387,-108.3864 1038.301,-164.819 1038.667,-189.423 1038.8658,-191.2896 1038.8735,-191.3405 987.7476,-254.3151 967.567,-274.3731 964.7876,-277.528 961.4288,-281.5948 954.7659,-290.1806 955.2855,-292.8788 956.7537,-299.3331 957.9492,-305.575 965.8842,-340.7409 973.3787,-369.8631 972.2688,-371.5241 948.4819,-384.0037 928.8914,-392.5271 915.7104,-397.0563 912.4247,-398.0842 902.6572,-400.5481 900.8994,-400.938 885.2461,-403.4683 876.8055,-404.3188 867.7084,-404.6836 864.1915,-404.6112 856.3614,-404.7028 853.6111,-404.913 845.7887,-404.7969 838.6057,-404.4715 836.6265,-404.5098 833.1281,-404.3654 831.188,-404.3478 829.7609,-372.5482 830.174,-316.6305 835.6428,-316.6305 840.9877,-313.3415 842.0373,-312.0595 841.9528,-311.9625 841.9528,-311.9625 842.0373,-312.0595 840.9877,-313.3415 835.6428,-316.6305 830.174,-316.6305 829.7609,-372.5482 831.188,-404.3478 823.2384,-404.7894 821.836,-404.9128 820.9976,-404.9609 811.7953,-404.9306 804.6422,-405.1377 684.9865,-416.3055 680.1622,-394.7105 679.9432,-393.6213 677.3211,-390.6139 666.9653,-379.1635 654.6414,-366.5763 656.1948,-326.2568 662.029,-245.7945 665.9776,-247.9251 665.9776,-247.9251 662.029,-245.7945 656.1948,-326.2568 654.6414,-366.5763 653.6382,-365.6379 647.9796,-360.5739 647.8642,-360.4584 630.9824,-345.0651 630.9824,-345.0651"/>
<polygon fill="#ccebc5" stroke="#ccebc5" points="1385.5979,-446.7252 1309.4199,-376.7176 1305.7437,-373.6152 1313.3799,-346.7586 1317.7325,-323.8375 1326.985,-291.3179 1346.5557,-231.5819 1349.7544,-231.2133 1371.783,-229.167 1373.1625,-229.132 1374.9343,-229.1267 1389.9923,-228.7577 1407.403,-227.5801 1408.4662,-227.4854 1416.3073,-226.4503 1431.0674,-223.545 1448.2867,-219.4125 1453.2167,-218.0198 1454.3998,-217.6348 1518.5439,-195.3631 1611.2727,-247.9972 1635.1782,-225.065 1737.0278,-119.5359 1785.776,-92.6495 1795.3334,-91.531 1810.9969,-88.8202 1814.6787,-88.1147 1818.1758,-88.8087 1820.6414,-89.2521 1841.0891,-92.1731 1844.2554,-92.5073 1856.7582,-93.1333 1864.0332,-93.3628 1874.9421,-93.3029 1877.2689,-93.247 1935.6665,-104.2948 1992.6368,-205.0808 1995.7001,-221.2203 1992.9482,-243.31 1987.4596,-358.0185 1944.6953,-373.042 1868.6544,-373.4353 1863.8668,-373.6663 1849.9014,-374.9439 1835.0082,-376.9497 1818.9353,-380.1538 1809.2157,-382.7189 1792.663,-387.8047 1719.1169,-413.5423 1649.3411,-373.3375 1635.6788,-383.9011 1612.2113,-402.7058 1610.6027,-403.952 1598.3676,-412.8001 1592.3389,-417.0005 1581.9081,-423.7209 1570.1073,-431.0102 1565.1678,-433.6646 1545.1711,-443.3748 1538.4636,-446.0948 1533.8176,-447.8564 1523.2548,-451.5838 1459.457,-472.3887 1449.4788,-475.9077 1435.4371,-482.368 1424.4719,-487.7063 1424.087,-487.2198 1422.4774,-485.0774 1422.306,-484.8591 1417.464,-478.9565 1417.382,-468.1033 1419.2307,-361.0168 1413.813,-357.9456 1412.5972,-356.5921 1413.6255,-355.4186 1413.6255,-355.4186 1412.5972,-356.5921 1413.813,-357.9456 1419.2307,-361.0168 1417.382,-468.1033 1417.464,-478.9565 1411.6958,-472.5358 1401.1635,-461.3596 1390.2068,-450.9078 1385.889,-447.0285 1385.5979,-446.7252 1385.5979,-446.7252"/>
<polygon fill="#fbb4ae" stroke="#fbb4ae" points="1075.7021,-621.3324 1085.7455,-631.1655 1087.7798,-632.9124 1120.8176,-666.3137 1126.351,-671.04 1132.8474,-677.3304 1134.766,-679.4007 1141.5723,-687.5585 1142.6719,-688.6237 1146.1528,-692.3052 1131.934,-730.5975 1131.0348,-732.7081 1126.9742,-734.3818 1119.2661,-737.1902 1113.6285,-738.9708 1113.4696,-739.0133 1105.8578,-740.689 1101.3285,-741.4697 1094.4639,-742.3253 1087.9829,-742.8229 1086.4001,-742.7933 1081.823,-685.2929 1077.7762,-682.2983 1075.7561,-678.8469 1072.8071,-678.8469 1072.8071,-678.8469 1075.7561,-678.8469 1077.7762,-682.2983 1081.823,-685.2929 1086.4001,-742.7933 1077.9766,-743.0275 1071.6606,-742.597 1067.614,-742.8871 1064.1173,-742.97 1060.683,-742.887 1055.1805,-743.0097 1043.2708,-744.3846 1036.063,-745.8856 1033.3888,-746.5666 1024.943,-749.1139 1021.286,-746.155 1007.2149,-737.5451 963.3468,-713.7131 957.3546,-710.0687 954.8204,-708.3649 945.5671,-700.8763 938.9951,-696.0621 933.1603,-691.451 932.8385,-691.1783 929.3227,-687.7644 917.3219,-675.3264 913.0787,-670.6733 912.4311,-669.8819 915.7274,-664.5191 945.6353,-607.9135 951.1655,-598.2742 951.9129,-597.9959 1008.2523,-578.7623 1021.4115,-573.8583 1029.9363,-570.1603 1033.1483,-568.467 1043.6123,-584.0158 1054.7642,-598.6489 1056.4298,-600.681 1058.6874,-603.2391 1067.1527,-612.1289 1068.5536,-613.762 1070.3132,-615.4741 1075.7021,-621.3324 1075.7021,-621.3324"/>
<polyline fill="none" stroke="#aaaaaa" points="900.8994,-400.938 902.6572,-400.5481 912.4247,-398.0842 915.7104,-397.0563 928.8914,-392.5271 948.4819,-384.0037 972.2688,-371.5241 1002.8909,-460.35 1007.3807,-485.7834 1011.4482,-503.1722 1033.667,-567.6226 1063.3591,-554.0233 1074.0367,-549.8943 1088.8446,-545.2283 1092.3973,-544.3673 1104.5731,-542.2831 1115.873,-541.16 1121.9194,-540.7772 1128.2075,-540.6055 1138.0864,-539.6281 1146.9595,-538.4327 1147.7224,-538.3029 1156.8047,-536.1028 1168.5641,-532.8309 1171.9233,-531.6584 1180.2073,-528.4687 1185.4063,-530.6452 1205.2883,-536.1796 1225.6807,-541.1232 1239.6055,-590.4205 1242.6621,-612.5674 1243.1984,-621.14 1255.603,-665.0556 1284.6606,-672.3969 1289.7729,-673.9017 1300.9677,-677.6642 1303.3689,-678.668 1308.75,-681.1442 1319.3992,-686.4941 1324.5865,-689.5294 1334.4943,-695.7443 1342.0217,-701.0899 1355.0829,-711.4711 1362.3223,-716.8855 1394.2568,-741.9416 1392.2533,-745.4185 1382.0031,-764.131 1334.4866,-855.8732 1257.6439,-878.2551 1250.5571,-880.4725 1197.9226,-936.9496 1194.7505,-963.1862 1191.8535,-992.7792 1189.8947,-1019.0506 1146.0682,-1074.7411 1067.0626,-1099.9017 1061.223,-1098.3022 1057.3342,-1097.326 1046.6913,-1094.8973 1030.5835,-1091.9617 1030.0428,-1091.8757 1022.1674,-1090.9851 1002.7543,-1089.6807 925.6887,-1088.0547 908.8089,-1097.7433 852.595,-1086.8347 849.3169,-1086.271 849.0665,-1086.2335 837.0553,-1084.9573 829.2502,-1084.2996 817.2571,-1083.8165 806.1561,-1083.8584 791.7333,-1084.5477 740.4775,-1088.1205 694.4376,-1080.2244 675.7049,-1049.4969 650.0856,-991.3857 652.656,-987.449 679.6263,-944.1968 693.9354,-918.3857 671.5212,-858.3637 662.2297,-828.7859 659.986,-816.3173 655.0001,-796.1224 624.5039,-714.4583 666.4,-665.584 659.8779,-635.86 654.4359,-598.6196 657.3433,-589.3463 662.9904,-567.6252 675.834,-512.37 685.6021,-481.2144 682.2255,-423.3219 684.9865,-416.3055 804.6422,-405.1377 811.7953,-404.9306 820.9976,-404.9609 821.836,-404.9128 823.2384,-404.7894 831.188,-404.3478 833.1281,-404.3654 836.6265,-404.5098 838.6057,-404.4715 845.7887,-404.7969 853.6111,-404.913 856.3614,-404.7028 864.1915,-404.6112 867.7084,-404.6836 876.8055,-404.3188 885.2461,-403.4683 900.8994,-400.938 "/>
<polyline fill="none" stroke="#000000" points="945.6353,-607.9135 915.7274,-664.5191 912.4311,-669.8819 913.0787,-670.6733 917.3219,-675.3264 929.3227,-687.7644 932.8385,-691.1783 933.1603,-691.451 938.9951,-696.0621 945.5671,-700.8763 954.8204,-708.3649 957.3546,-710.0687 963.3468,-713.7131 1007.2149,-737.5451 1021.286,-746.155 1024.943,-749.1139 1033.3888,-746.5666 1036.063,-745.8856 1043.2708,-744.3846 1055.1805,-743.0097 1060.683,-742.887 1064.1173,-742.97 1067.614,-742.8871 1071.6606,-742.597 1077.9766,-743.0275 1086.4001,-742.7933 1087.9829,-742.8229 1094.4639,-742.3253 1101.3285,-741.4697 1105.8578,-740.689 1113.4696,-739.0133 1113.6285,-738.9708 1119.2661,-737.1902 1126.9742,-734.3818 1131.0348,-732.7081 1131.934,-730.5975 1146.1528,-692.3052 1142.6719,-688.6237 1141.5723,-687.5585 1134.766,-679.4007 1132.8474,-677.3304 1126.351,-671.04 1120.8176,-666.3137 1087.7798,-632.9124 1085.7455,-631.1655 1075.7021,-621.3324 1070.3132,-615.4741 1068.5536,-613.762 1067.1527,-612.1289 1058.6874,-603.2391 1056.4298,-600.681 1054.7642,-598.6489 1043.6123,-584.0158 1033.1483,-568.467 1029.9363,-570.1603 1021.4115,-573.8583 1008.2523,-578.7623 951.9129,-597.9959 951.1655,-598.2742 945.6353,-607.9135 "/>
<polyline fill="none" stroke="#000000" points="659.8779,-635.86 666.4,-665.584 624.5039,-714.4583 655.0001,-796.1224 659.986,-816.3173 662.2297,-828.7859 671.5212,-858.3637 693.9354,-918.3857 679.6263,-944.1968 652.656,-987.449 650.0856,-991.3857 612.1021,-978.2099 608.1475,-976.9257 591.7159,-972.3126 588.7087,-971.5357 580.7112,-969.8246 573.3931,-968.4213 565.6227,-967.1043 564.7552,-966.9766 554.4033,-965.6829 554.1751,-965.6595 540.1885,-964.8428 472.9898,-963.9028 430.3937,-957.7396 409.2036,-929.0805 311.9588,-869.3479 308.8633,-835.2036 315.1853,-773.09 318.311,-673.2384 258.2795,-624.5478 236.4498,-556.4047 216.5874,-498.827 206.6292,-473.2151 87.1446,-483.5672 74.5874,-485.1666 67.656,-486.1902 65.5237,-485.6445 54.0711,-482.9548 41.2427,-481.0174 34.0585,-480.0827 32.084,-479.8672 -19.0744,-475.3523 -33.5483,-464.1092 -110.3382,-379.2084 -117.364,-345.1418 -116.1585,-343.45 -35.4336,-213.8834 -51.4879,-146.4172 -47.517,-139.15 4.0297,-27.3424 11.696,-20.5022 84.2645,8.0801 98.6788,14.3886 106.4089,18.1066 111.8596,17.7638 113.852,17.1747 124.9769,14.3055 144.8631,10.6663 152.0016,9.6287 156.2809,9.167 157.9854,9.015 167.6427,4.9176 209.4786,-11.8974 277.9743,-70.504 329.4714,-124.7003 437.685,-76.244 453.7481,-71.7363 463.5317,-68.8024 470.2029,-66.6742 478.2765,-66.6025 491.6868,-65.7906 502.1926,-64.7928 503.6693,-64.6017 515.462,-79.3974 516.6009,-80.7725 534.699,-101.0164 545.4771,-112.55 586.8151,-164.6831 578.7154,-230.9779 578.7128,-232.1544 579.0342,-237.7147 577.9223,-255.4694 572.7869,-297.502 630.9824,-345.0651 647.8642,-360.4584 647.9796,-360.5739 653.6382,-365.6379 654.6414,-366.5763 666.9653,-379.1635 677.3211,-390.6139 679.9432,-393.6213 680.1622,-394.7105 684.9865,-416.3055 682.2255,-423.3219 685.6021,-481.2144 675.834,-512.37 662.9904,-567.6252 657.3433,-589.3463 654.4359,-598.6196 659.8779,-635.86 "/>
<polyline fill="none" stroke="#000000" points="1150.1219,-2.902 1143.1362,-10.0017 1135.3641,-17.3962 1134.4327,-18.3187 1129.1967,-23.9412 1118.6149,-34.1344 1097.049,-53.3432 1032.3387,-108.3864 1038.301,-164.819 1038.667,-189.423 1038.8658,-191.2896 1038.8735,-191.3405 987.7476,-254.3151 967.567,-274.3731 964.7876,-277.528 961.4288,-281.5948 954.7659,-290.1806 955.2855,-292.8788 956.7537,-299.3331 957.9492,-305.575 965.8842,-340.7409 973.3787,-369.8631 972.2688,-371.5241 1002.8909,-460.35 1007.3807,-485.7834 1011.4482,-503.1722 1033.667,-567.6226 1063.3591,-554.0233 1074.0367,-549.8943 1088.8446,-545.2283 1092.3973,-544.3673 1104.5731,-542.2831 1115.873,-541.16 1121.9194,-540.7772 1128.2075,-540.6055 1138.0864,-539.6281 1146.9595,-538.4327 1147.7224,-538.3029 1156.8047,-536.1028 1168.5641,-532.8309 1171.9233,-531.6584 1180.2073,-528.4687 1185.4063,-530.6452 1205.2883,-536.1796 1225.6807,-541.1232 1239.6055,-590.4205 1242.6621,-612.5674 1243.1984,-621.14 1255.603,-665.0556 1284.6606,-672.3969 1289.7729,-673.9017 1300.9677,-677.6642 1303.3689,-678.668 1308.75,-681.1442 1319.3992,-686.4941 1324.5865,-689.5294 1334.4943,-695.7443 1342.0217,-701.0899 1355.0829,-711.4711 1362.3223,-716.8855 1394.2568,-741.9416 1462.1654,-710.817 1504.6978,-718.937 1530.3522,-713.9386 1531.5985,-713.7425 1545.9376,-711.7534 1555.5134,-710.9632 1569.4116,-710.0768 1578.0001,-710.0127 1579.8306,-709.1832 1591.8353,-704.2799 1607.2656,-699.0121 1622.2017,-694.5858 1701.2206,-672.9766 1747.4504,-565.98 1748.7672,-563.4268 1752.712,-553.4802 1719.1169,-413.5423 1649.3411,-373.3375 1635.6788,-383.9011 1612.2113,-402.7058 1610.6027,-403.952 1598.3676,-412.8001 1592.3389,-417.0005 1581.9081,-423.7209 1570.1073,-431.0102 1565.1678,-433.6646 1545.1711,-443.3748 1538.4636,-446.0948 1533.8176,-447.8564 1523.2548,-451.5838 1459.457,-472.3887 1449.4788,-475.9077 1435.4371,-482.368 1424.4719,-487.7063 1424.087,-487.2198 1422.4774,-485.0774 1422.306,-484.8591 1417.464,-478.9565 1411.6958,-472.5358 1401.1635,-461.3596 1390.2068,-450.9078 1385.889,-447.0285 1385.5979,-446.7252 1309.4199,-376.7176 1305.7437,-373.6152 1313.3799,-346.7586 1317.7325,-323.8375 1326.985,-291.3179 1346.5557,-231.5819 1349.7544,-231.2133 1371.783,-229.167 1373.1625,-229.132 1374.9343,-229.1267 1389.9923,-228.7577 1407.403,-227.5801 1408.4662,-227.4854 1416.3073,-226.4503 1431.0674,-223.545 1448.2867,-219.4125 1453.2167,-218.0198 1454.3998,-217.6348 1518.5439,-195.3631 1509.2545,-141.6361 1502.6473,-97.2624 1499.1366,-68.8665 1496.3452,-40.3668 1480.277,.5018 1449.2307,30.748 1419.4261,48.8117 1382.1583,40.6312 1377.8131,39.7678 1362.4645,37.0371 1354.3748,35.938 1339.3608,34.5272 1243.7792,29.56 1192.7094,10.0022 1179.7065,12.0158 1165.8148,14.5806 1161.6227,9.7603 1152.7334,-.1628 1150.1219,-2.902 "/>
<polyline fill="none" stroke="#000000" points="955.2855,-292.8788 956.7537,-299.3331 957.9492,-305.575 965.8842,-340.7409 973.3787,-369.8631 972.2688,-371.5241 948.4819,-384.0037 928.8914,-392.5271 915.7104,-397.0563 912.4247,-398.0842 902.6572,-400.5481 900.8994,-400.938 885.2461,-403.4683 876.8055,-404.3188 867.7084,-404.6836 864.1915,-404.6112 856.3614,-404.7028 853.6111,-404.913 845.7887,-404.7969 838.6057,-404.4715 836.6265,-404.5098 833.1281,-404.3654 831.188,-404.3478 823.2384,-404.7894 821.836,-404.9128 820.9976,-404.9609 811.7953,-404.9306 804.6422,-405.1377 684.9865,-416.3055 680.1622,-394.7105 679.9432,-393.6213 677.3211,-390.6139 666.9653,-379.1635 654.6414,-366.5763 653.6382,-365.6379 647.9796,-360.5739 647.8642,-360.4584 630.9824,-345.0651 572.7869,-297.502 577.9223,-255.4694 579.0342,-237.7147 578.7128,-232.1544 578.7154,-230.9779 586.8151,-164.6831 545.4771,-112.55 534.699,-101.0164 516.6009,-80.7725 515.462,-79.3974 503.6693,-64.6017 556.741,-12.4669 628.2785,29.0994 655.9917,30.2824 659.4766,30.4964 667.1882,31.1148 672.286,30.5844 681.1422,29.996 685.5492,29.786 696.0198,29.6801 701.5497,29.8319 705.5406,30.0165 722.5773,31.1248 735.0693,32.1709 758.4764,40.762 785.423,43.3083 849.7218,94.7153 901.8896,114.011 904.3395,114.1848 925.2419,116.1168 926.6161,116.273 939.54,118.2951 941.1108,118.5743 950.4124,120.4258 964.5424,124.146 969.4836,125.552 985.3287,130.7386 986.7672,130.0385 1062.5416,96.6431 1152.8035,29.1742 1157.5259,25.1797 1165.8148,14.5806 1161.6227,9.7603 1152.7334,-.1628 1150.1219,-2.902 1143.1362,-10.0017 1135.3641,-17.3962 1134.4327,-18.3187 1129.1967,-23.9412 1118.6149,-34.1344 1097.049,-53.3432 1032.3387,-108.3864 1038.301,-164.819 1038.667,-189.423 1038.8658,-191.2896 1038.8735,-191.3405 987.7476,-254.3151 967.567,-274.3731 964.7876,-277.528 961.4288,-281.5948 954.7659,-290.1806 955.2855,-292.8788 "/>
<polyline fill="none" stroke="#000000" points="1835.0082,-376.9497 1849.9014,-374.9439 1863.8668,-373.6663 1868.6544,-373.4353 1944.6953,-373.042 1987.4596,-358.0185 1992.9482,-243.31 1995.7001,-221.2203 1992.6368,-205.0808 1935.6665,-104.2948 1877.2689,-93.247 1874.9421,-93.3029 1864.0332,-93.3628 1856.7582,-93.1333 1844.2554,-92.5073 1841.0891,-92.1731 1820.6414,-89.2521 1818.1758,-88.8087 1814.6787,-88.1147 1810.9969,-88.8202 1795.3334,-91.531 1785.776,-92.6495 1737.0278,-119.5359 1635.1782,-225.065 1611.2727,-247.9972 1518.5439,-195.3631 1454.3998,-217.6348 1453.2167,-218.0198 1448.2867,-219.4125 1431.0674,-223.545 1416.3073,-226.4503 1408.4662,-227.4854 1407.403,-227.5801 1389.9923,-228.7577 1374.9343,-229.1267 1373.1625,-229.132 1371.783,-229.167 1349.7544,-231.2133 1346.5557,-231.5819 1326.985,-291.3179 1317.7325,-323.8375 1313.3799,-346.7586 1305.7437,-373.6152 1309.4199,-376.7176 1385.5979,-446.7252 1385.889,-447.0285 1390.2068,-450.9078 1401.1635,-461.3596 1411.6958,-472.5358 1417.464,-478.9565 1422.306,-484.8591 1422.4774,-485.0774 1424.087,-487.2198 1424.4719,-487.7063 1435.4371,-482.368 1449.4788,-475.9077 1459.457,-472.3887 1523.2548,-451.5838 1533.8176,-447.8564 1538.4636,-446.0948 1545.1711,-443.3748 1565.1678,-433.6646 1570.1073,-431.0102 1581.9081,-423.7209 1592.3389,-417.0005 1598.3676,-412.8001 1610.6027,-403.952 1612.2113,-402.7058 1635.6788,-383.9011 1649.3411,-373.3375 1719.1169,-413.5423 1792.663,-387.8047 1809.2157,-382.7189 1818.9353,-380.1538 1835.0082,-376.9497 "/>
<polyline fill="none" stroke="#000000" points="1036.063,-745.8856 1033.3888,-746.5666 1024.943,-749.1139 1021.286,-746.155 1007.2149,-737.5451 963.3468,-713.7131 957.3546,-710.0687 954.8204,-708.3649 945.5671,-700.8763 938.9951,-696.0621 933.1603,-691.451 932.8385,-691.1783 929.3227,-687.7644 917.3219,-675.3264 913.0787,-670.6733 912.4311,-669.8819 915.7274,-664.5191 945.6353,-607.9135 951.1655,-598.2742 951.9129,-597.9959 1008.2523,-578.7623 1021.4115,-573.8583 1029.9363,-570.1603 1033.1483,-568.467 1043.6123,-584.0158 1054.7642,-598.6489 1056.4298,-600.681 1058.6874,-603.2391 1067.1527,-612.1289 1068.5536,-613.762 1070.3132,-615.4741 1075.7021,-621.3324 1085.7455,-631.1655 1087.7798,-632.9124 1120.8176,-666.3137 1126.351,-671.04 1132.8474,-677.3304 1134.766,-679.4007 1141.5723,-687.5585 1142.6719,-688.6237 1146.1528,-692.3052 1131.934,-730.5975 1131.0348,-732.7081 1126.9742,-734.3818 1119.2661,-737.1902 1113.6285,-738.9708 1113.4696,-739.0133 1105.8578,-740.689 1101.3285,-741.4697 1094.4639,-742.3253 1087.9829,-742.8229 1086.4001,-742.7933 1077.9766,-743.0275 1071.6606,-742.597 1067.614,-742.8871 1064.1173,-742.97 1060.683,-742.887 1055.1805,-743.0097 1043.2708,-744.3846 1036.063,-745.8856 "/>
<!-- apr&#45;&gt;Fedora Container Base -->
<g id="edge1" class="edge">
<title>apr&#45;&gt;Fedora Container Base</title>
<path fill="none" stroke="#444444" stroke-opacity="0.333333" d="M581.0607,-510.2821C623.2151,-508.4697 686.3957,-505.7532 744.2013,-503.2679"/>
<polygon fill="#444444" fill-opacity="0.333333" stroke="#444444" stroke-opacity="0.333333" points="744.7092,-506.7494 754.5496,-502.8229 744.4085,-499.7558 744.7092,-506.7494"/>
</g>
<!-- apr&#45;util&#45;&gt;Fedora Container Base -->
<g id="edge2" class="edge">
<title>apr&#45;util&#45;&gt;Fedora Container Base</title>
<path fill="none" stroke="#444444" stroke-opacity="0.333333" d="M553.2004,-617.7379C624.1448,-591.9267 753.9061,-544.7166 828.2011,-517.6864"/>
<polygon fill="#444444" fill-opacity="0.333333" stroke="#444444" stroke-opacity="0.333333" points="829.6617,-520.8796 837.8624,-514.1714 827.2683,-514.3014 829.6617,-520.8796"/>
</g>
<!-- apr&#45;util&#45;&gt;apr -->
<g id="edge3" class="edge">
<title>apr&#45;util&#45;&gt;apr</title>
<path fill="none" stroke="#444444" stroke-opacity="0.333333" d="M507.6853,-617.6386C512.4795,-597.3005 520.2955,-564.1438 525.8744,-540.4771"/>
<polygon fill="#444444" fill-opacity="0.333333" stroke="#444444" stroke-opacity="0.333333" points="529.2993,-541.2024 528.1871,-530.6661 522.486,-539.5963 529.2993,-541.2024"/>
</g>
<!-- apr&#45;util&#45;&gt;apr&#45;util&#45;bdb -->
<g id="edge4" class="edge">
<title>apr&#45;util&#45;&gt;apr&#45;util&#45;bdb</title>
<path fill="none" stroke="#444444" stroke-dasharray="5,2" stroke-opacity="0.333333" d="M495.0344,-654.0444C488.3187,-677.2849 480.4742,-717.7439 477.2374,-744.9685"/>
<polygon fill="#444444" fill-opacity="0.333333" stroke="#444444" stroke-opacity="0.333333" points="473.7431,-744.7346 476.2054,-755.0393 480.7066,-745.4483 473.7431,-744.7346"/>
</g>
<!-- apr&#45;util&#45;&gt;apr&#45;util&#45;openssl -->
<g id="edge5" class="edge">
<title>apr&#45;util&#45;&gt;apr&#45;util&#45;openssl</title>
<path fill="none" stroke="#444444" stroke-dasharray="5,2" stroke-opacity="0.333333" d="M505.6505,-654.0521C514.6577,-689.591 542.2179,-768.3317 559.9891,-810.2962"/>
<polygon fill="#444444" fill-opacity="0.333333" stroke="#444444" stroke-opacity="0.333333" points="556.8566,-811.8692 564.0598,-819.6387 563.2739,-809.073 556.8566,-811.8692"/>
</g>
<!-- apr&#45;util&#45;bdb&#45;&gt;Fedora Container Base -->
<g id="edge80" class="edge">
<title>apr&#45;util&#45;bdb&#45;&gt;Fedora Container Base</title>
<path fill="none" stroke="#444444" stroke-opacity="0.333333" d="M504.2352,-754.9907C575.3903,-706.7478 769.6039,-575.0714 849.4294,-520.95"/>
<polygon fill="#444444" fill-opacity="0.333333" stroke="#444444" stroke-opacity="0.333333" points="851.8226,-523.5561 858.1354,-515.0473 847.8943,-517.7622 851.8226,-523.5561"/>
</g>
<!-- apr&#45;util&#45;bdb&#45;&gt;apr&#45;util -->
<g id="edge81" class="edge">
<title>apr&#45;util&#45;bdb&#45;&gt;apr&#45;util</title>
<path fill="none" stroke="#444444" stroke-opacity="0.333333" d="M485.8956,-754.9056C492.6113,-731.6651 500.4558,-691.2061 503.6926,-663.9815"/>
<polygon fill="#444444" fill-opacity="0.333333" stroke="#444444" stroke-opacity="0.333333" points="507.1869,-664.2154 504.7246,-653.9107 500.2234,-663.5017 507.1869,-664.2154"/>
</g>
<!-- apr&#45;util&#45;openssl&#45;&gt;Fedora Container Base -->
<g id="edge82" class="edge">
<title>apr&#45;util&#45;openssl&#45;&gt;Fedora Container Base</title>
<path fill="none" stroke="#444444" stroke-opacity="0.333333" d="M591.6063,-819.5373C643.3554,-762.5737 801.5852,-588.3998 861.2794,-522.6903"/>
<polygon fill="#444444" fill-opacity="0.333333" stroke="#444444" stroke-opacity="0.333333" points="863.9234,-524.9851 868.057,-515.2298 858.7422,-520.2781 863.9234,-524.9851"/>
</g>
<!-- apr&#45;util&#45;openssl&#45;&gt;apr&#45;util -->
<g id="edge83" class="edge">
<title>apr&#45;util&#45;openssl&#45;&gt;apr&#45;util</title>
<path fill="none" stroke="#444444" stroke-opacity="0.333333" d="M572.7095,-819.6579C563.7023,-784.119 536.1421,-705.3783 518.3709,-663.4138"/>
<polygon fill="#444444" fill-opacity="0.333333" stroke="#444444" stroke-opacity="0.333333" points="521.5034,-661.8408 514.3002,-654.0713 515.0861,-664.637 521.5034,-661.8408"/>
</g>
<!-- device&#45;mapper&#45;libs&#45;&gt;Fedora Container Base -->
<g id="edge6" class="edge">
<title>device&#45;mapper&#45;libs&#45;&gt;Fedora Container Base</title>
<path fill="none" stroke="#444444" stroke-opacity="0.333333" d="M760.8262,-784.8924C782.9645,-733.3594 846.1369,-586.308 872.5575,-524.8068"/>
<polygon fill="#444444" fill-opacity="0.333333" stroke="#444444" stroke-opacity="0.333333" points="875.8835,-525.9317 876.6148,-515.3621 869.4518,-523.1686 875.8835,-525.9317"/>
</g>
<!-- device&#45;mapper&#45;libs&#45;&gt;device&#45;mapper -->
<g id="edge7" class="edge">
<title>device&#45;mapper&#45;libs&#45;&gt;device&#45;mapper</title>
<path fill="none" stroke="#444444" stroke-opacity="0.333333" d="M762.5661,-785.0158C777.6022,-746.5137 804.6236,-656.3034 815.1518,-610.1828"/>
<polygon fill="#444444" fill-opacity="0.333333" stroke="#444444" stroke-opacity="0.333333" points="818.6063,-610.7667 817.2984,-600.2529 811.7644,-609.2876 818.6063,-610.7667"/>
</g>
<!-- device&#45;mapper&#45;&gt;Fedora Container Base -->
<g id="edge38" class="edge">
<title>device&#45;mapper&#45;&gt;Fedora Container Base</title>
<path fill="none" stroke="#444444" stroke-opacity="0.333333" d="M832.9872,-563.5849C842.0835,-551.8467 854.0178,-536.4463 864.0981,-523.4383"/>
<polygon fill="#444444" fill-opacity="0.333333" stroke="#444444" stroke-opacity="0.333333" points="867.0473,-525.3465 870.4061,-515.2982 861.5142,-521.0587 867.0473,-525.3465"/>
</g>
<!-- device&#45;mapper&#45;&gt;device&#45;mapper&#45;libs -->
<g id="edge39" class="edge">
<title>device&#45;mapper&#45;&gt;device&#45;mapper&#45;libs</title>
<path fill="none" stroke="#444444" stroke-opacity="0.333333" d="M809.1739,-600.0642C794.1378,-638.5663 767.1164,-728.7766 756.5882,-774.8972"/>
<polygon fill="#444444" fill-opacity="0.333333" stroke="#444444" stroke-opacity="0.333333" points="753.1337,-774.3133 754.4416,-784.8271 759.9756,-775.7924 753.1337,-774.3133"/>
</g>
<!-- device&#45;mapper&#45;&gt;systemd -->
<g id="edge40" class="edge">
<title>device&#45;mapper&#45;&gt;systemd</title>
<path fill="none" stroke="#444444" stroke-opacity="0.333333" d="M859.1169,-563.8936C907.4,-542.2776 988.2209,-506.0948 1040.4051,-482.7323"/>
<polygon fill="#444444" fill-opacity="0.333333" stroke="#444444" stroke-opacity="0.333333" points="1042.1045,-485.8063 1049.8014,-478.5256 1039.2442,-479.4173 1042.1045,-485.8063"/>
</g>
<!-- device&#45;mapper&#45;&gt;util&#45;linux -->
<g id="edge41" class="edge">
<title>device&#45;mapper&#45;&gt;util&#45;linux</title>
<path fill="none" stroke="#444444" stroke-opacity="0.333333" d="M819.6864,-563.8601C822.0927,-517.8109 828.4593,-395.9789 831.3567,-340.533"/>
<polygon fill="#444444" fill-opacity="0.333333" stroke="#444444" stroke-opacity="0.333333" points="834.861,-340.5401 831.8878,-330.371 827.8706,-340.1747 834.861,-340.5401"/>
</g>
<!-- libargon2&#45;&gt;Fedora Container Base -->
<g id="edge8" class="edge">
<title>libargon2&#45;&gt;Fedora Container Base</title>
<path fill="none" stroke="#444444" stroke-opacity="0.333333" d="M830.0572,-939.0633C838.7144,-868.6779 870.2826,-612.0186 880.8936,-525.7481"/>
<polygon fill="#444444" fill-opacity="0.333333" stroke="#444444" stroke-opacity="0.333333" points="884.3896,-525.9943 882.1366,-515.6418 877.442,-525.1397 884.3896,-525.9943"/>
</g>
<!-- dbus&#45;broker&#45;&gt;Fedora Container Base -->
<g id="edge9" class="edge">
<title>dbus&#45;broker&#45;&gt;Fedora Container Base</title>
<path fill="none" stroke="#444444" stroke-opacity="0.333333" d="M1126.9405,-194.2954C1083.6326,-248.3891 955.5095,-408.4209 905.1043,-471.3793"/>
<polygon fill="#444444" fill-opacity="0.333333" stroke="#444444" stroke-opacity="0.333333" points="902.3174,-469.2602 898.7998,-479.254 907.7819,-473.6351 902.3174,-469.2602"/>
</g>
<!-- dbus&#45;broker&#45;&gt;dbus&#45;common -->
<g id="edge10" class="edge">
<title>dbus&#45;broker&#45;&gt;dbus&#45;common</title>
<path fill="none" stroke="#444444" stroke-opacity="0.333333" d="M1129.6212,-194.3188C1121.1874,-207.2468 1109.7275,-224.8134 1100.2564,-239.3314"/>
<polygon fill="#444444" fill-opacity="0.333333" stroke="#444444" stroke-opacity="0.333333" points="1097.1936,-237.6206 1094.6612,-247.9083 1103.0564,-241.4453 1097.1936,-237.6206"/>
</g>
<!-- dbus&#45;broker&#45;&gt;shadow&#45;utils -->
<g id="edge11" class="edge">
<title>dbus&#45;broker&#45;&gt;shadow&#45;utils</title>
<path fill="none" stroke="#444444" stroke-opacity="0.333333" d="M1067.8565,-181.1624C1052.1115,-182.2426 1035.3953,-183.3894 1019.3881,-184.4876"/>
<polygon fill="#444444" fill-opacity="0.333333" stroke="#444444" stroke-opacity="0.333333" points="1018.7258,-181.0247 1008.9889,-185.201 1019.205,-188.0083 1018.7258,-181.0247"/>
</g>
<!-- dbus&#45;broker&#45;&gt;systemd -->
<g id="edge12" class="edge">
<title>dbus&#45;broker&#45;&gt;systemd</title>
<path fill="none" stroke="#444444" stroke-opacity="0.333333" d="M1138.2257,-194.3229C1129.5368,-242.6543 1105.85,-374.4108 1095.4314,-432.3634"/>
<polygon fill="#444444" fill-opacity="0.333333" stroke="#444444" stroke-opacity="0.333333" points="1091.9717,-431.8273 1093.647,-442.2888 1098.8613,-433.0659 1091.9717,-431.8273"/>
</g>
<!-- dbus&#45;common&#45;&gt;Fedora Container Base -->
<g id="edge13" class="edge">
<title>dbus&#45;common&#45;&gt;Fedora Container Base</title>
<path fill="none" stroke="#444444" stroke-opacity="0.333333" d="M1067.2319,-284.228C1032.1722,-325.0749 946.9401,-424.3764 906.4546,-471.5449"/>
<polygon fill="#444444" fill-opacity="0.333333" stroke="#444444" stroke-opacity="0.333333" points="903.753,-469.3185 899.8958,-479.1863 909.0647,-473.8777 903.753,-469.3185"/>
</g>
<!-- dbus&#45;common&#45;&gt;dbus&#45;common -->
<g id="edge14" class="edge">
<title>dbus&#45;common&#45;&gt;dbus&#45;common</title>
<path fill="none" stroke="#444444" stroke-opacity="0.333333" d="M1160.3655,-272.1133C1171.115,-271.1212 1178.3,-269.1134 1178.3,-266.09 1178.3,-264.1531 1175.3513,-262.6331 1170.4057,-261.5298"/>
<polygon fill="#444444" fill-opacity="0.333333" stroke="#444444" stroke-opacity="0.333333" points="1170.7657,-258.0454 1160.3655,-260.0667 1169.7562,-264.9723 1170.7657,-258.0454"/>
</g>
<!-- dbus&#45;common&#45;&gt;systemd -->
<g id="edge15" class="edge">
<title>dbus&#45;common&#45;&gt;systemd</title>
<path fill="none" stroke="#444444" stroke-opacity="0.333333" d="M1083.515,-284.3655C1084.8452,-318.3669 1087.7086,-391.5558 1089.2915,-432.0165"/>
<polygon fill="#444444" fill-opacity="0.333333" stroke="#444444" stroke-opacity="0.333333" points="1085.8041,-432.4091 1089.6924,-442.2646 1092.7987,-432.1354 1085.8041,-432.4091"/>
</g>
<!-- shadow&#45;utils&#45;&gt;Fedora Container Base -->
<g id="edge16" class="edge">
<title>shadow&#45;utils&#45;&gt;Fedora Container Base</title>
<path fill="none" stroke="#444444" stroke-opacity="0.333333" d="M935.0991,-208.3462C926.0351,-259.9949 900.2052,-407.179 889.3259,-469.1711"/>
<polygon fill="#444444" fill-opacity="0.333333" stroke="#444444" stroke-opacity="0.333333" points="885.8753,-468.5852 887.594,-479.0397 892.77,-469.7952 885.8753,-468.5852"/>
</g>
<!-- shadow&#45;utils&#45;&gt;shadow&#45;utils -->
<g id="edge17" class="edge">
<title>shadow&#45;utils&#45;&gt;shadow&#45;utils</title>
<path fill="none" stroke="#444444" stroke-opacity="0.333333" d="M1009.1356,-196.1734C1019.679,-195.22 1026.81,-193.1789 1026.81,-190.05 1026.81,-188.0944 1024.0244,-186.5638 1019.3612,-185.458"/>
<polygon fill="#444444" fill-opacity="0.333333" stroke="#444444" stroke-opacity="0.333333" points="1019.5438,-181.9464 1009.1356,-183.9266 1018.5069,-188.8692 1019.5438,-181.9464"/>
</g>
<!-- shadow&#45;utils&#45;&gt;libsemanage -->
<g id="edge18" class="edge">
<title>shadow&#45;utils&#45;&gt;libsemanage</title>
<path fill="none" stroke="#444444" stroke-opacity="0.333333" d="M939.4675,-171.9628C941.3838,-142.0171 945.2298,-81.9158 947.5085,-46.3071"/>
<polygon fill="#444444" fill-opacity="0.333333" stroke="#444444" stroke-opacity="0.333333" points="951.0157,-46.3061 948.1615,-36.103 944.03,-45.859 951.0157,-46.3061"/>
</g>
<!-- systemd&#45;&gt;Fedora Container Base -->
<g id="edge19" class="edge">
<title>systemd&#45;&gt;Fedora Container Base</title>
<path fill="none" stroke="#444444" stroke-opacity="0.333333" d="M1028.8722,-471.3682C1012.0668,-474.3777 993.493,-477.7039 975.4182,-480.9407"/>
<polygon fill="#444444" fill-opacity="0.333333" stroke="#444444" stroke-opacity="0.333333" points="974.6689,-477.5191 965.4424,-482.7271 975.9028,-484.4095 974.6689,-477.5191"/>
</g>
<!-- systemd&#45;&gt;shadow&#45;utils -->
<g id="edge20" class="edge">
<title>systemd&#45;&gt;shadow&#45;utils</title>
<path fill="none" stroke="#444444" stroke-opacity="0.333333" d="M1080.1848,-442.1951C1053.9934,-395.6468 984.3398,-271.8559 953.4387,-216.9374"/>
<polygon fill="#444444" fill-opacity="0.333333" stroke="#444444" stroke-opacity="0.333333" points="956.4348,-215.1246 948.4808,-208.1258 950.3343,-218.5573 956.4348,-215.1246"/>
</g>
<!-- systemd&#45;&gt;systemd -->
<g id="edge21" class="edge">
<title>systemd&#45;&gt;systemd</title>
<path fill="none" stroke="#444444" stroke-opacity="0.333333" d="M1152.0667,-466.6513C1162.6013,-465.7903 1169.9,-463.6898 1169.9,-460.35 1169.9,-458.2104 1166.9046,-456.5795 1161.982,-455.4572"/>
<polygon fill="#444444" fill-opacity="0.333333" stroke="#444444" stroke-opacity="0.333333" points="1162.4596,-451.99 1152.0667,-454.0487 1161.4751,-458.9204 1162.4596,-451.99"/>
</g>
<!-- systemd&#45;&gt;util&#45;linux -->
<g id="edge22" class="edge">
<title>systemd&#45;&gt;util&#45;linux</title>
<path fill="none" stroke="#444444" stroke-opacity="0.333333" d="M1059.0744,-442.349C1012.4053,-415.5311 924.6161,-365.0839 873.1927,-335.534"/>
<polygon fill="#444444" fill-opacity="0.333333" stroke="#444444" stroke-opacity="0.333333" points="874.7544,-332.3947 864.3401,-330.447 871.2667,-338.464 874.7544,-332.3947"/>
</g>
<!-- systemd&#45;&gt;iptables&#45;libs -->
<g id="edge23" class="edge">
<title>systemd&#45;&gt;iptables&#45;libs</title>
<path fill="none" stroke="#444444" stroke-opacity="0.333333" d="M1090.8084,-478.4684C1092.0848,-535.1003 1096.0066,-709.0942 1097.5583,-777.9408"/>
<polygon fill="#444444" fill-opacity="0.333333" stroke="#444444" stroke-opacity="0.333333" points="1094.0617,-778.1348 1097.7863,-788.0534 1101.0599,-777.977 1094.0617,-778.1348"/>
</g>
<!-- systemd&#45;&gt;acl -->
<g id="edge24" class="edge">
<title>systemd&#45;&gt;acl</title>
<path fill="none" stroke="#444444" stroke-opacity="0.333333" d="M1107.362,-442.0682C1131.4338,-416.1234 1175.6044,-368.5158 1202.8729,-339.1256"/>
<polygon fill="#444444" fill-opacity="0.333333" stroke="#444444" stroke-opacity="0.333333" points="1205.516,-341.4227 1209.7518,-331.7114 1200.3845,-336.6616 1205.516,-341.4227"/>
</g>
<!-- systemd&#45;&gt;cryptsetup&#45;libs -->
<g id="edge25" class="edge">
<title>systemd&#45;&gt;cryptsetup&#45;libs</title>
<path fill="none" stroke="#444444" stroke-opacity="0.333333" d="M1080.9975,-478.6031C1053.7852,-531.4307 974.8435,-684.6812 942.5497,-747.3734"/>
<polygon fill="#444444" fill-opacity="0.333333" stroke="#444444" stroke-opacity="0.333333" points="939.4263,-745.7938 937.9584,-756.2865 945.6493,-748.9994 939.4263,-745.7938"/>
</g>
<!-- systemd&#45;&gt;dbus -->
<g id="edge26" class="edge">
<title>systemd&#45;&gt;dbus</title>
<path fill="none" stroke="#444444" stroke-opacity="0.333333" d="M1104.0892,-442.0735C1148.2755,-383.08 1287.2428,-197.5437 1339.1678,-128.2181"/>
<polygon fill="#444444" fill-opacity="0.333333" stroke="#444444" stroke-opacity="0.333333" points="1342.1448,-130.0818 1345.3384,-119.9797 1336.5421,-125.8854 1342.1448,-130.0818"/>
</g>
<!-- systemd&#45;&gt;kmod&#45;libs -->
<g id="edge27" class="edge">
<title>systemd&#45;&gt;kmod&#45;libs</title>
<path fill="none" stroke="#444444" stroke-opacity="0.333333" d="M1152.1282,-459.524C1165.1923,-459.3492 1179.1418,-459.1625 1192.7126,-458.9809"/>
<polygon fill="#444444" fill-opacity="0.333333" stroke="#444444" stroke-opacity="0.333333" points="1193.0434,-462.4769 1202.9956,-458.8433 1192.9496,-455.4775 1193.0434,-462.4769"/>
</g>
<!-- systemd&#45;&gt;libseccomp -->
<g id="edge28" class="edge">
<title>systemd&#45;&gt;libseccomp</title>
<path fill="none" stroke="#444444" stroke-opacity="0.333333" d="M1120.743,-478.6315C1161.8291,-503.3857 1235.1803,-547.5793 1280.1894,-574.6971"/>
<polygon fill="#444444" fill-opacity="0.333333" stroke="#444444" stroke-opacity="0.333333" points="1278.4237,-577.7194 1288.7954,-579.8821 1282.0361,-571.7235 1278.4237,-577.7194"/>
</g>
<!-- systemd&#45;&gt;qrencode&#45;libs -->
<g id="edge29" class="edge">
<title>systemd&#45;&gt;qrencode&#45;libs</title>
<path fill="none" stroke="#444444" stroke-opacity="0.333333" d="M1098.6208,-478.4821C1111.3093,-506.468 1135.7568,-560.3901 1150.6914,-593.3302"/>
<polygon fill="#444444" fill-opacity="0.333333" stroke="#444444" stroke-opacity="0.333333" points="1147.6803,-595.1651 1154.9973,-602.8275 1154.0557,-592.2745 1147.6803,-595.1651"/>
</g>
<!-- systemd&#45;&gt;systemd&#45;pam -->
<g id="edge30" class="edge">
<title>systemd&#45;&gt;systemd&#45;pam</title>
<path fill="none" stroke="#444444" stroke-opacity="0.333333" d="M1082.6543,-478.5965C1071.5108,-516.8105 1053.5545,-605.4436 1047.5006,-651.0051"/>
<polygon fill="#444444" fill-opacity="0.333333" stroke="#444444" stroke-opacity="0.333333" points="1044.0076,-650.7368 1046.2837,-661.0842 1050.9572,-651.5759 1044.0076,-650.7368"/>
</g>
<!-- systemd&#45;&gt;systemd&#45;rpm&#45;macros -->
<g id="edge31" class="edge">
<title>systemd&#45;&gt;systemd&#45;rpm&#45;macros</title>
<path fill="none" stroke="#444444" stroke-opacity="0.333333" d="M1152.1689,-473.943C1234.9489,-492.1598 1382.5373,-524.6385 1478.4175,-545.7381"/>
<polygon fill="#444444" fill-opacity="0.333333" stroke="#444444" stroke-opacity="0.333333" points="1477.8789,-549.2033 1488.3975,-547.9343 1479.3834,-542.3668 1477.8789,-549.2033"/>
</g>
<!-- systemd&#45;&gt;diffutils -->
<g id="edge32" class="edge">
<title>systemd&#45;&gt;diffutils</title>
<path fill="none" stroke="#444444" stroke-dasharray="5,2" stroke-opacity="0.333333" d="M1099.1659,-478.589C1122.0495,-526.2028 1183.6937,-654.4652 1210.8494,-710.9676"/>
<polygon fill="#444444" fill-opacity="0.333333" stroke="#444444" stroke-opacity="0.333333" points="1207.7154,-712.5268 1215.2019,-720.0238 1214.0246,-709.4946 1207.7154,-712.5268"/>
</g>
<!-- systemd&#45;&gt;libxkbcommon -->
<g id="edge33" class="edge">
<title>systemd&#45;&gt;libxkbcommon</title>
<path fill="none" stroke="#444444" stroke-dasharray="5,2" stroke-opacity="0.333333" d="M1148.1081,-442.2572C1205.5337,-424.253 1293.614,-396.6378 1354.2388,-377.6306"/>
<polygon fill="#444444" fill-opacity="0.333333" stroke="#444444" stroke-opacity="0.333333" points="1355.6035,-380.8708 1364.0984,-374.5394 1353.5093,-374.1914 1355.6035,-380.8708"/>
</g>
<!-- libsemanage&#45;&gt;Fedora Container Base -->
<g id="edge65" class="edge">
<title>libsemanage&#45;&gt;Fedora Container Base</title>
<path fill="none" stroke="#444444" stroke-opacity="0.333333" d="M946.8543,-36.2016C936.9826,-109.0748 900.2658,-380.1186 888.2402,-468.8913"/>
<polygon fill="#444444" fill-opacity="0.333333" stroke="#444444" stroke-opacity="0.333333" points="884.7423,-468.6409 886.8681,-479.0203 891.6789,-469.5806 884.7423,-468.6409"/>
</g>
<!-- libsemanage&#45;&gt;libsemanage -->
<g id="edge66" class="edge">
<title>libsemanage&#45;&gt;libsemanage</title>
<path fill="none" stroke="#444444" stroke-opacity="0.333333" d="M1024.8925,-24.0574C1035.6209,-23.0777 1042.82,-21.0586 1042.82,-18 1042.82,-16.0406 1039.8655,-14.5078 1034.9213,-13.4015"/>
<polygon fill="#444444" fill-opacity="0.333333" stroke="#444444" stroke-opacity="0.333333" points="1035.2923,-9.9187 1024.8925,-11.9426 1034.2845,-16.8458 1035.2923,-9.9187"/>
</g>
<!-- util&#45;linux&#45;&gt;Fedora Container Base -->
<g id="edge34" class="edge">
<title>util&#45;linux&#45;&gt;Fedora Container Base</title>
<path fill="none" stroke="#444444" stroke-opacity="0.333333" d="M837.8686,-330.4056C846.8804,-362.7165 865.817,-430.6123 876.5471,-469.0843"/>
<polygon fill="#444444" fill-opacity="0.333333" stroke="#444444" stroke-opacity="0.333333" points="873.283,-470.409 879.3409,-479.101 880.0256,-468.5283 873.283,-470.409"/>
</g>
<!-- util&#45;linux&#45;&gt;util&#45;linux -->
<g id="edge35" class="edge">
<title>util&#45;linux&#45;&gt;util&#45;linux</title>
<path fill="none" stroke="#444444" stroke-opacity="0.333333" d="M897.5097,-318.5853C908.0715,-317.6913 915.33,-315.6095 915.33,-312.34 915.33,-310.2455 912.3511,-308.6384 907.4332,-307.5187"/>
<polygon fill="#444444" fill-opacity="0.333333" stroke="#444444" stroke-opacity="0.333333" points="907.9055,-304.0507 897.5097,-306.0947 906.9111,-310.9798 907.9055,-304.0507"/>
</g>
<!-- util&#45;linux&#45;&gt;libfdisk -->
<g id="edge36" class="edge">
<title>util&#45;linux&#45;&gt;libfdisk</title>
<path fill="none" stroke="#444444" stroke-opacity="0.333333" d="M819.5553,-294.2576C793.5512,-258.8355 735.8054,-180.1757 705.5321,-138.9381"/>
<polygon fill="#444444" fill-opacity="0.333333" stroke="#444444" stroke-opacity="0.333333" points="708.2495,-136.7253 699.5103,-130.7355 702.6068,-140.8678 708.2495,-136.7253"/>
</g>
<!-- util&#45;linux&#45;&gt;libutempter -->
<g id="edge37" class="edge">
<title>util&#45;linux&#45;&gt;libutempter</title>
<path fill="none" stroke="#444444" stroke-opacity="0.333333" d="M831.9035,-294.1417C830.042,-257.5783 825.8367,-174.9758 823.616,-131.3555"/>
<polygon fill="#444444" fill-opacity="0.333333" stroke="#444444" stroke-opacity="0.333333" points="827.1008,-130.9663 823.0968,-121.1573 820.1098,-131.3223 827.1008,-130.9663"/>
</g>
<!-- iptables&#45;libs&#45;&gt;Fedora Container Base -->
<g id="edge61" class="edge">
<title>iptables&#45;libs&#45;&gt;Fedora Container Base</title>
<path fill="none" stroke="#444444" stroke-opacity="0.333333" d="M1085.4661,-787.9959C1049.1365,-735.4608 944.8921,-584.7159 902.5776,-523.5262"/>
<polygon fill="#444444" fill-opacity="0.333333" stroke="#444444" stroke-opacity="0.333333" points="905.3659,-521.4045 896.7993,-515.1703 899.6084,-525.386 905.3659,-521.4045"/>
</g>
<!-- iptables&#45;libs&#45;&gt;iptables&#45;libs -->
<g id="edge62" class="edge">
<title>iptables&#45;libs&#45;&gt;iptables&#45;libs</title>
<path fill="none" stroke="#444444" stroke-opacity="0.333333" d="M1171.7926,-812.5008C1182.492,-811.534 1189.7,-809.5038 1189.7,-806.41 1189.7,-804.4281 1186.7418,-802.8826 1181.8026,-801.7736"/>
<polygon fill="#444444" fill-opacity="0.333333" stroke="#444444" stroke-opacity="0.333333" points="1182.192,-798.2934 1171.7926,-800.3192 1181.1854,-805.2207 1182.192,-798.2934"/>
</g>
<!-- iptables&#45;libs&#45;&gt;libpcap -->
<g id="edge63" class="edge">
<title>iptables&#45;libs&#45;&gt;libpcap</title>
<path fill="none" stroke="#444444" stroke-opacity="0.333333" d="M1090.4765,-824.6723C1078.9661,-851.8886 1057.2239,-903.2979 1043.739,-935.1831"/>
<polygon fill="#444444" fill-opacity="0.333333" stroke="#444444" stroke-opacity="0.333333" points="1040.346,-934.2205 1039.6743,-944.794 1046.7932,-936.9471 1040.346,-934.2205"/>
</g>
<!-- acl&#45;&gt;Fedora Container Base -->
<g id="edge67" class="edge">
<title>acl&#45;&gt;Fedora Container Base</title>
<path fill="none" stroke="#444444" stroke-opacity="0.333333" d="M1192.7619,-331.7648C1129.8453,-365.5275 994.7886,-438.0025 926.2059,-474.8058"/>
<polygon fill="#444444" fill-opacity="0.333333" stroke="#444444" stroke-opacity="0.333333" points="924.5392,-471.728 917.3828,-479.5406 927.8492,-477.8961 924.5392,-471.728"/>
</g>
<!-- cryptsetup&#45;libs&#45;&gt;Fedora Container Base -->
<g id="edge68" class="edge">
<title>cryptsetup&#45;libs&#45;&gt;Fedora Container Base</title>
<path fill="none" stroke="#444444" stroke-opacity="0.333333" d="M925.6345,-756.3923C918.1226,-709.1809 897.9657,-582.4981 888.912,-525.5969"/>
<polygon fill="#444444" fill-opacity="0.333333" stroke="#444444" stroke-opacity="0.333333" points="892.3341,-524.8305 887.3062,-515.5047 885.4211,-525.9305 892.3341,-524.8305"/>
</g>
<!-- cryptsetup&#45;libs&#45;&gt;device&#45;mapper&#45;libs -->
<g id="edge69" class="edge">
<title>cryptsetup&#45;libs&#45;&gt;device&#45;mapper&#45;libs</title>
<path fill="none" stroke="#444444" stroke-opacity="0.333333" d="M851.2846,-787.1408C851.1926,-787.1557 851.1006,-787.1707 851.0086,-787.1856"/>
<polygon fill="#444444" fill-opacity="0.333333" stroke="#444444" stroke-opacity="0.333333" points="858.3834,-782.441 849.0743,-787.4999 859.5063,-789.3504 858.3834,-782.441"/>
</g>
<!-- cryptsetup&#45;libs&#45;&gt;libargon2 -->
<g id="edge70" class="edge">
<title>cryptsetup&#45;libs&#45;&gt;libargon2</title>
<path fill="none" stroke="#444444" stroke-opacity="0.333333" d="M918.5073,-792.756C900.7149,-825.0046 863.5318,-892.3987 842.7347,-930.0934"/>
<polygon fill="#444444" fill-opacity="0.333333" stroke="#444444" stroke-opacity="0.333333" points="839.5884,-928.5509 837.8221,-938.9975 845.7175,-931.9325 839.5884,-928.5509"/>
</g>
<!-- dbus&#45;&gt;dbus&#45;broker -->
<g id="edge71" class="edge">
<title>dbus&#45;&gt;dbus&#45;broker</title>
<path fill="none" stroke="#444444" stroke-opacity="0.333333" d="M1316.2885,-116.3444C1284.3992,-127.2483 1240.3172,-142.3213 1204.4019,-154.6019"/>
<polygon fill="#444444" fill-opacity="0.333333" stroke="#444444" stroke-opacity="0.333333" points="1202.8352,-151.4386 1194.5055,-157.9858 1205.1,-158.0621 1202.8352,-151.4386"/>
</g>
<!-- kmod&#45;libs&#45;&gt;Fedora Container Base -->
<g id="edge72" class="edge">
<title>kmod&#45;libs&#45;&gt;Fedora Container Base</title>
<path fill="none" stroke="#444444" stroke-opacity="0.333333" d="M1202.8047,-464.8305C1147.5708,-470.4526 1068.217,-478.5298 1002.5485,-485.214"/>
<polygon fill="#444444" fill-opacity="0.333333" stroke="#444444" stroke-opacity="0.333333" points="1002.1427,-481.7371 992.5486,-486.2319 1002.8516,-488.7012 1002.1427,-481.7371"/>
</g>
<!-- libseccomp&#45;&gt;Fedora Container Base -->
<g id="edge73" class="edge">
<title>libseccomp&#45;&gt;Fedora Container Base</title>
<path fill="none" stroke="#444444" stroke-opacity="0.333333" d="M1247.1512,-581.3782C1168.5604,-563.1495 1042.9543,-534.0158 962.0862,-515.2589"/>
<polygon fill="#444444" fill-opacity="0.333333" stroke="#444444" stroke-opacity="0.333333" points="962.495,-511.7609 951.9627,-512.9108 960.9133,-518.5799 962.495,-511.7609"/>
</g>
<!-- qrencode&#45;libs&#45;&gt;Fedora Container Base -->
<g id="edge74" class="edge">
<title>qrencode&#45;libs&#45;&gt;Fedora Container Base</title>
<path fill="none" stroke="#444444" stroke-opacity="0.333333" d="M1122.7455,-603.1239C1072.4355,-580.7739 986.7433,-542.7055 932.9766,-518.8199"/>
<polygon fill="#444444" fill-opacity="0.333333" stroke="#444444" stroke-opacity="0.333333" points="934.2115,-515.5387 923.6517,-514.6774 931.3696,-521.9359 934.2115,-515.5387"/>
</g>
<!-- systemd&#45;pam&#45;&gt;Fedora Container Base -->
<g id="edge75" class="edge">
<title>systemd&#45;pam&#45;&gt;Fedora Container Base</title>
<path fill="none" stroke="#444444" stroke-opacity="0.333333" d="M1030.4547,-661.0427C1001.5502,-628.6259 940.878,-560.581 907.5476,-523.2005"/>
<polygon fill="#444444" fill-opacity="0.333333" stroke="#444444" stroke-opacity="0.333333" points="909.7476,-520.4086 900.4801,-515.274 904.5229,-525.0672 909.7476,-520.4086"/>
</g>
<!-- systemd&#45;pam&#45;&gt;systemd -->
<g id="edge76" class="edge">
<title>systemd&#45;pam&#45;&gt;systemd</title>
<path fill="none" stroke="#444444" stroke-opacity="0.333333" d="M1054.3457,-660.9035C1065.4892,-622.6895 1083.4455,-534.0564 1089.4994,-488.4949"/>
<polygon fill="#444444" fill-opacity="0.333333" stroke="#444444" stroke-opacity="0.333333" points="1092.9924,-488.7632 1090.7163,-478.4158 1086.0428,-487.9241 1092.9924,-488.7632"/>
</g>
<!-- diffutils&#45;&gt;Fedora Container Base -->
<g id="edge84" class="edge">
<title>diffutils&#45;&gt;Fedora Container Base</title>
<path fill="none" stroke="#444444" stroke-opacity="0.333333" d="M1198.4748,-720.2091C1137.9727,-677.2572 985.8516,-569.2629 917.9894,-521.0859"/>
<polygon fill="#444444" fill-opacity="0.333333" stroke="#444444" stroke-opacity="0.333333" points="919.9384,-518.1772 909.7581,-515.2423 915.8862,-523.8851 919.9384,-518.1772"/>
</g>
<!-- libxkbcommon&#45;&gt;Fedora Container Base -->
<g id="edge85" class="edge">
<title>libxkbcommon&#45;&gt;Fedora Container Base</title>
<path fill="none" stroke="#444444" stroke-opacity="0.333333" d="M1352.8313,-374.522C1250.5095,-401.3279 1059.2975,-451.421 955.6283,-478.5798"/>
<polygon fill="#444444" fill-opacity="0.333333" stroke="#444444" stroke-opacity="0.333333" points="954.6616,-475.2149 945.8751,-481.135 956.4356,-481.9864 954.6616,-475.2149"/>
</g>
<!-- libxkbcommon&#45;&gt;xkeyboard&#45;config -->
<g id="edge86" class="edge">
<title>libxkbcommon&#45;&gt;xkeyboard&#45;config</title>
<path fill="none" stroke="#444444" stroke-opacity="0.333333" d="M1487.3584,-338.4227C1561.0169,-318.1653 1680.2942,-285.3619 1757.7352,-264.0642"/>
<polygon fill="#444444" fill-opacity="0.333333" stroke="#444444" stroke-opacity="0.333333" points="1758.7213,-267.423 1767.4352,-261.3965 1756.8651,-260.6736 1758.7213,-267.423"/>
</g>
<!-- libfdisk&#45;&gt;Fedora Container Base -->
<g id="edge77" class="edge">
<title>libfdisk&#45;&gt;Fedora Container Base</title>
<path fill="none" stroke="#444444" stroke-opacity="0.333333" d="M695.4556,-130.5884C727.3234,-192.4287 832.2856,-396.1105 870.4067,-470.0856"/>
<polygon fill="#444444" fill-opacity="0.333333" stroke="#444444" stroke-opacity="0.333333" points="867.4325,-471.9548 875.1245,-479.2406 873.6548,-468.7482 867.4325,-471.9548"/>
</g>
<!-- libutempter&#45;&gt;Fedora Container Base -->
<g id="edge78" class="edge">
<title>libutempter&#45;&gt;Fedora Container Base</title>
<path fill="none" stroke="#444444" stroke-opacity="0.333333" d="M825.0562,-121.3674C834.9881,-184.2744 867.8915,-392.678 879.9341,-468.9538"/>
<polygon fill="#444444" fill-opacity="0.333333" stroke="#444444" stroke-opacity="0.333333" points="876.5375,-469.884 881.5543,-479.2158 883.4519,-468.7923 876.5375,-469.884"/>
</g>
<!-- libutempter&#45;&gt;shadow&#45;utils -->
<g id="edge79" class="edge">
<title>libutempter&#45;&gt;shadow&#45;utils</title>
<path fill="none" stroke="#444444" stroke-opacity="0.333333" d="M846.2422,-121.1557C863.488,-134.0608 886.9128,-151.5895 905.8178,-165.7361"/>
<polygon fill="#444444" fill-opacity="0.333333" stroke="#444444" stroke-opacity="0.333333" points="903.7756,-168.5793 913.8791,-171.7684 907.9695,-162.9747 903.7756,-168.5793"/>
</g>
<!-- httpd&#45;&gt;Fedora Container Base -->
<g id="edge42" class="edge">
<title>httpd&#45;&gt;Fedora Container Base</title>
<path fill="none" stroke="#444444" stroke-opacity="0.333333" d="M556.7856,-388.5756C627.5432,-412.0448 750.8625,-452.9478 824.339,-477.3187"/>
<polygon fill="#444444" fill-opacity="0.333333" stroke="#444444" stroke-opacity="0.333333" points="823.3317,-480.6721 833.9251,-480.4983 825.5355,-474.028 823.3317,-480.6721"/>
</g>
<!-- httpd&#45;&gt;apr -->
<g id="edge43" class="edge">
<title>httpd&#45;&gt;apr</title>
<path fill="none" stroke="#444444" stroke-opacity="0.333333" d="M506.3344,-388.8089C511.4474,-412.9536 520.5123,-455.7606 526.5146,-484.1051"/>
<polygon fill="#444444" fill-opacity="0.333333" stroke="#444444" stroke-opacity="0.333333" points="523.1546,-485.1332 528.6504,-494.1912 530.0027,-483.683 523.1546,-485.1332"/>
</g>
<!-- httpd&#45;&gt;apr&#45;util -->
<g id="edge44" class="edge">
<title>httpd&#45;&gt;apr&#45;util</title>
<path fill="none" stroke="#444444" stroke-opacity="0.333333" d="M502.5332,-388.7951C502.6912,-434.3419 503.1038,-553.3303 503.2929,-607.8455"/>
<polygon fill="#444444" fill-opacity="0.333333" stroke="#444444" stroke-opacity="0.333333" points="499.7928,-607.8603 503.3275,-617.8481 506.7927,-607.8359 499.7928,-607.8603"/>
</g>
<!-- httpd&#45;&gt;systemd -->
<g id="edge45" class="edge">
<title>httpd&#45;&gt;systemd</title>
<path fill="none" stroke="#444444" stroke-opacity="0.333333" d="M577.5289,-382.0232C691.4533,-399.422 906.5725,-432.2755 1018.5575,-449.3781"/>
<polygon fill="#444444" fill-opacity="0.333333" stroke="#444444" stroke-opacity="0.333333" points="1018.324,-452.8829 1028.7378,-450.9328 1019.3808,-445.9631 1018.324,-452.8829"/>
</g>
<!-- httpd&#45;&gt;fedora&#45;logos&#45;httpd -->
<g id="edge46" class="edge">
<title>httpd&#45;&gt;fedora&#45;logos&#45;httpd</title>
<path fill="none" stroke="#444444" stroke-opacity="0.333333" d="M472.9039,-352.4016C405.2201,-310.8328 239.0755,-208.7932 163.8226,-162.5757"/>
<polygon fill="#444444" fill-opacity="0.333333" stroke="#444444" stroke-opacity="0.333333" points="165.4617,-159.475 155.1087,-157.224 161.7983,-165.4399 165.4617,-159.475"/>
</g>
<!-- httpd&#45;&gt;httpd -->
<g id="edge47" class="edge">
<title>httpd&#45;&gt;httpd</title>
<path fill="none" stroke="#444444" stroke-opacity="0.333333" d="M577.6384,-376.6174C588.3094,-375.6377 595.47,-373.6186 595.47,-370.56 595.47,-368.6006 592.5313,-367.0678 587.6135,-365.9615"/>
<polygon fill="#444444" fill-opacity="0.333333" stroke="#444444" stroke-opacity="0.333333" points="588.0397,-362.4867 577.6384,-364.5026 587.0266,-369.413 588.0397,-362.4867"/>
</g>
<!-- httpd&#45;&gt;httpd&#45;filesystem -->
<g id="edge48" class="edge">
<title>httpd&#45;&gt;httpd&#45;filesystem</title>
<path fill="none" stroke="#444444" stroke-opacity="0.333333" d="M526.334,-352.3683C555.3997,-330.2113 604.6131,-292.6955 636.967,-268.0319"/>
<polygon fill="#444444" fill-opacity="0.333333" stroke="#444444" stroke-opacity="0.333333" points="639.3794,-270.5939 645.2103,-261.748 635.1356,-265.027 639.3794,-270.5939"/>
</g>
<!-- httpd&#45;&gt;httpd&#45;tools -->
<g id="edge49" class="edge">
<title>httpd&#45;&gt;httpd&#45;tools</title>
<path fill="none" stroke="#444444" stroke-opacity="0.333333" d="M490.7598,-388.8266C474.1491,-414.7376 443.6275,-462.3482 424.3647,-492.396"/>
<polygon fill="#444444" fill-opacity="0.333333" stroke="#444444" stroke-opacity="0.333333" points="421.2264,-490.8064 418.776,-501.1139 427.1194,-494.5842 421.2264,-490.8064"/>
</g>
<!-- httpd&#45;&gt;mailcap -->
<g id="edge50" class="edge">
<title>httpd&#45;&gt;mailcap</title>
<path fill="none" stroke="#444444" stroke-opacity="0.333333" d="M427.3232,-365.9765C343.051,-360.8364 207.5624,-352.5724 126.2255,-347.6113"/>
<polygon fill="#444444" fill-opacity="0.333333" stroke="#444444" stroke-opacity="0.333333" points="126.2892,-344.1088 116.0947,-346.9934 125.863,-351.0958 126.2892,-344.1088"/>
</g>
<!-- httpd&#45;&gt;mod_http2 -->
<g id="edge51" class="edge">
<title>httpd&#45;&gt;mod_http2</title>
<path fill="none" stroke="#444444" stroke-opacity="0.333333" d="M506.1077,-352.3714C507.1186,-328.7655 504.9658,-287.3264 501.5108,-259.6128"/>
<polygon fill="#444444" fill-opacity="0.333333" stroke="#444444" stroke-opacity="0.333333" points="504.9297,-258.7906 500.0704,-249.3758 497.998,-259.766 504.9297,-258.7906"/>
</g>
<!-- httpd&#45;filesystem&#45;&gt;Fedora Container Base -->
<g id="edge52" class="edge">
<title>httpd&#45;filesystem&#45;&gt;Fedora Container Base</title>
<path fill="none" stroke="#444444" stroke-opacity="0.333333" d="M684.5189,-261.8319C722.2384,-306.2556 818.9519,-420.1591 862.5307,-471.4837"/>
<polygon fill="#444444" fill-opacity="0.333333" stroke="#444444" stroke-opacity="0.333333" points="859.911,-473.8059 869.0515,-479.1634 865.247,-469.2752 859.911,-473.8059"/>
</g>
<!-- httpd&#45;filesystem&#45;&gt;shadow&#45;utils -->
<g id="edge53" class="edge">
<title>httpd&#45;filesystem&#45;&gt;shadow&#45;utils</title>
<path fill="none" stroke="#444444" stroke-opacity="0.333333" d="M752.3878,-227.0163C785.8434,-220.3644 824.2655,-212.7251 857.4651,-206.1241"/>
<polygon fill="#444444" fill-opacity="0.333333" stroke="#444444" stroke-opacity="0.333333" points="858.464,-209.4941 867.5894,-204.1111 857.0988,-202.6285 858.464,-209.4941"/>
</g>
<!-- httpd&#45;tools&#45;&gt;Fedora Container Base -->
<g id="edge54" class="edge">
<title>httpd&#45;tools&#45;&gt;Fedora Container Base</title>
<path fill="none" stroke="#444444" stroke-opacity="0.333333" d="M476.6479,-516.2769C546.925,-512.9959 657.3457,-507.8406 745.5641,-503.7219"/>
<polygon fill="#444444" fill-opacity="0.333333" stroke="#444444" stroke-opacity="0.333333" points="745.8354,-507.2131 755.6613,-503.2505 745.5089,-500.2208 745.8354,-507.2131"/>
</g>
<!-- httpd&#45;tools&#45;&gt;apr -->
<g id="edge55" class="edge">
<title>httpd&#45;tools&#45;&gt;apr</title>
<path fill="none" stroke="#444444" stroke-opacity="0.333333" d="M476.7097,-515.5522C476.8578,-515.5437 477.0059,-515.5353 477.1539,-515.5268"/>
<polygon fill="#444444" fill-opacity="0.333333" stroke="#444444" stroke-opacity="0.333333" points="473.9817,-519.2136 483.7661,-515.1497 473.583,-512.225 473.9817,-519.2136"/>
</g>
<!-- httpd&#45;tools&#45;&gt;apr&#45;util -->
<g id="edge56" class="edge">
<title>httpd&#45;tools&#45;&gt;apr&#45;util</title>
<path fill="none" stroke="#444444" stroke-opacity="0.333333" d="M422.0356,-537.7066C438.0977,-557.0853 463.6734,-587.9422 481.8579,-609.8817"/>
<polygon fill="#444444" fill-opacity="0.333333" stroke="#444444" stroke-opacity="0.333333" points="479.354,-612.3454 488.4302,-617.8111 484.7434,-607.8784 479.354,-612.3454"/>
</g>
<!-- mailcap&#45;&gt;mailcap -->
<g id="edge57" class="edge">
<title>mailcap&#45;&gt;mailcap</title>
<path fill="none" stroke="#444444" stroke-opacity="0.333333" d="M116.3117,-349.8041C126.7258,-348.9782 134,-346.8602 134,-343.45 134,-341.3187 131.1585,-339.692 126.4849,-338.5702"/>
<polygon fill="#444444" fill-opacity="0.333333" stroke="#444444" stroke-opacity="0.333333" points="126.7103,-335.0664 116.3117,-337.0959 125.7064,-341.994 126.7103,-335.0664"/>
</g>
<!-- mod_http2&#45;&gt;Fedora Container Base -->
<g id="edge58" class="edge">
<title>mod_http2&#45;&gt;Fedora Container Base</title>
<path fill="none" stroke="#444444" stroke-opacity="0.333333" d="M520.7692,-249.4353C589.4673,-296.2512 773.241,-421.4881 849.9837,-473.7862"/>
<polygon fill="#444444" fill-opacity="0.333333" stroke="#444444" stroke-opacity="0.333333" points="848.1324,-476.76 858.367,-479.4992 852.0744,-470.9755 848.1324,-476.76"/>
</g>
<!-- mod_http2&#45;&gt;httpd -->
<g id="edge59" class="edge">
<title>mod_http2&#45;&gt;httpd</title>
<path fill="none" stroke="#444444" stroke-opacity="0.333333" d="M490.6223,-249.5586C489.6114,-273.1645 491.7642,-314.6036 495.2192,-342.3172"/>
<polygon fill="#444444" fill-opacity="0.333333" stroke="#444444" stroke-opacity="0.333333" points="491.8003,-343.1394 496.6596,-352.5542 498.732,-342.164 491.8003,-343.1394"/>
</g>
<!-- mod_http2&#45;&gt;mod_http2 -->
<g id="edge60" class="edge">
<title>mod_http2&#45;&gt;mod_http2</title>
<path fill="none" stroke="#444444" stroke-opacity="0.333333" d="M563.9327,-237.5251C574.5502,-236.5858 581.76,-234.5341 581.76,-231.37 581.76,-229.343 578.8011,-227.7726 573.8829,-226.6586"/>
<polygon fill="#444444" fill-opacity="0.333333" stroke="#444444" stroke-opacity="0.333333" points="574.3317,-223.1872 563.9327,-225.2149 573.3265,-230.1146 574.3317,-223.1872"/>
</g>
<!-- libpcap&#45;&gt;Fedora Container Base -->
<g id="edge64" class="edge">
<title>libpcap&#45;&gt;Fedora Container Base</title>
<path fill="none" stroke="#444444" stroke-opacity="0.333333" d="M1026.2139,-944.684C1003.5248,-873.0963 920.5308,-611.238 893.1959,-524.9924"/>
<polygon fill="#444444" fill-opacity="0.333333" stroke="#444444" stroke-opacity="0.333333" points="896.5039,-523.845 890.1461,-515.3698 889.831,-525.9599 896.5039,-523.845"/>
</g>
<!-- Fedora Container Base -->
<g id="node1" class="node">
<title>Fedora Container Base</title>
<ellipse fill="none" stroke="#000000" cx="884.4" cy="-497.24" rx="136.5" ry="18"/>
<text text-anchor="middle" x="884.4" y="-493.54" font-family="Helvetica,sans-Serif" font-weight="bold" font-size="14.00" fill="#000000">Fedora Container Base (197.5 MB)</text>
</g>
<!-- apr -->
<g id="node2" class="node">
<title>apr</title>
<text text-anchor="middle" x="532.5" y="-508.67" font-family="Helvetica,sans-Serif" font-weight="bold" font-size="14.00" fill="#000000">apr (288.2 kB)</text>
</g>
<!-- apr&#45;util -->
<g id="node3" class="node">
<title>apr&#45;util</title>
<text text-anchor="middle" x="503.39" y="-632.16" font-family="Helvetica,sans-Serif" font-weight="bold" font-size="14.00" fill="#000000">apr&#45;util (222.5 kB)</text>
</g>
<!-- apr&#45;util&#45;bdb -->
<g id="node4" class="node">
<title>apr&#45;util&#45;bdb</title>
<text text-anchor="middle" x="477.54" y="-769.39" font-family="Helvetica,sans-Serif" font-weight="bold" font-size="14.00" fill="#000000">apr&#45;util&#45;bdb (15.5 kB)</text>
</g>
<!-- apr&#45;util&#45;openssl -->
<g id="node5" class="node">
<title>apr&#45;util&#45;openssl</title>
<text text-anchor="middle" x="574.97" y="-834.15" font-family="Helvetica,sans-Serif" font-weight="bold" font-size="14.00" fill="#000000">apr&#45;util&#45;openssl (23.8 kB)</text>
</g>
<!-- device&#45;mapper&#45;libs -->
<g id="node6" class="node">
<title>device&#45;mapper&#45;libs</title>
<text text-anchor="middle" x="753" y="-799.41" font-family="Helvetica,sans-Serif" font-weight="bold" font-size="14.00" fill="#000000">device&#45;mapper&#45;libs (417.5 kB)</text>
</g>
<!-- device&#45;mapper -->
<g id="node7" class="node">
<title>device&#45;mapper</title>
<text text-anchor="middle" x="818.74" y="-578.27" font-family="Helvetica,sans-Serif" font-weight="bold" font-size="14.00" fill="#000000">device&#45;mapper (350.3 kB)</text>
</g>
<!-- libargon2 -->
<g id="node8" class="node">
<title>libargon2</title>
<text text-anchor="middle" x="827.84" y="-953.39" font-family="Helvetica,sans-Serif" font-weight="bold" font-size="14.00" fill="#000000">libargon2 (54.9 kB)</text>
</g>
<!-- dbus&#45;broker -->
<g id="node9" class="node">
<title>dbus&#45;broker</title>
<text text-anchor="middle" x="1141.5" y="-172.41" font-family="Helvetica,sans-Serif" font-weight="bold" font-size="14.00" fill="#000000">dbus&#45;broker (423.2 kB)</text>
</g>
<!-- dbus&#45;common -->
<g id="node10" class="node">
<title>dbus&#45;common</title>
<text text-anchor="middle" x="1082.8" y="-262.39" font-family="Helvetica,sans-Serif" font-weight="bold" font-size="14.00" fill="#000000">dbus&#45;common (11.2 kB)</text>
</g>
<!-- shadow&#45;utils -->
<g id="node11" class="node">
<title>shadow&#45;utils</title>
<text text-anchor="middle" x="938.31" y="-186.35" font-family="Helvetica,sans-Serif" font-weight="bold" font-size="14.00" fill="#000000">shadow&#45;utils (4.0 MB)</text>
</g>
<!-- systemd -->
<g id="node12" class="node">
<title>systemd</title>
<text text-anchor="middle" x="1090.4" y="-456.65" font-family="Helvetica,sans-Serif" font-weight="bold" font-size="14.00" fill="#000000">systemd (12.3 MB)</text>
</g>
<!-- libsemanage -->
<g id="node13" class="node">
<title>libsemanage</title>
<text text-anchor="middle" x="949.32" y="-14.3" font-family="Helvetica,sans-Serif" font-weight="bold" font-size="14.00" fill="#000000">libsemanage (313.1 kB)</text>
</g>
<!-- util&#45;linux -->
<g id="node14" class="node">
<title>util&#45;linux</title>
<text text-anchor="middle" x="832.83" y="-308.64" font-family="Helvetica,sans-Serif" font-weight="bold" font-size="14.00" fill="#000000">util&#45;linux (12.7 MB)</text>
</g>
<!-- iptables&#45;libs -->
<g id="node15" class="node">
<title>iptables&#45;libs</title>
<text text-anchor="middle" x="1098.2" y="-802.71" font-family="Helvetica,sans-Serif" font-weight="bold" font-size="14.00" fill="#000000">iptables&#45;libs (155.9 kB)</text>
</g>
<!-- acl -->
<g id="node16" class="node">
<title>acl</title>
<text text-anchor="middle" x="1226.5" y="-309.96" font-family="Helvetica,sans-Serif" font-weight="bold" font-size="14.00" fill="#000000">acl (212.0 kB)</text>
</g>
<!-- cryptsetup&#45;libs -->
<g id="node17" class="node">
<title>cryptsetup&#45;libs</title>
<text text-anchor="middle" x="928.53" y="-770.89" font-family="Helvetica,sans-Serif" font-weight="bold" font-size="14.00" fill="#000000">cryptsetup&#45;libs (1.8 MB)</text>
</g>
<!-- dbus -->
<g id="node18" class="node">
<title>dbus</title>
<text text-anchor="middle" x="1359" y="-98.04" font-family="Helvetica,sans-Serif" font-weight="bold" font-size="14.00" fill="#000000">dbus (0.0 B)</text>
</g>
<!-- kmod&#45;libs -->
<g id="node19" class="node">
<title>kmod&#45;libs</title>
<text text-anchor="middle" x="1270.5" y="-454.24" font-family="Helvetica,sans-Serif" font-weight="bold" font-size="14.00" fill="#000000">kmod&#45;libs (197.4 kB)</text>
</g>
<!-- libseccomp -->
<g id="node20" class="node">
<title>libseccomp</title>
<text text-anchor="middle" x="1318.9" y="-594.32" font-family="Helvetica,sans-Serif" font-weight="bold" font-size="14.00" fill="#000000">libseccomp (347.0 kB)</text>
</g>
<!-- qrencode&#45;libs -->
<g id="node21" class="node">
<title>qrencode&#45;libs</title>
<text text-anchor="middle" x="1163.3" y="-617.44" font-family="Helvetica,sans-Serif" font-weight="bold" font-size="14.00" fill="#000000">qrencode&#45;libs (159.3 kB)</text>
</g>
<!-- systemd&#45;pam -->
<g id="node22" class="node">
<title>systemd&#45;pam</title>
<text text-anchor="middle" x="1046.6" y="-675.45" font-family="Helvetica,sans-Serif" font-weight="bold" font-size="14.00" fill="#000000">systemd&#45;pam (335.6 kB)</text>
</g>
<!-- systemd&#45;rpm&#45;macros -->
<g id="node23" class="node">
<title>systemd&#45;rpm&#45;macros</title>
<text text-anchor="middle" x="1570.4" y="-562.28" font-family="Helvetica,sans-Serif" font-weight="bold" font-size="14.00" fill="#000000">systemd&#45;rpm&#45;macros (4.9 kB)</text>
</g>
<!-- diffutils -->
<g id="node24" class="node">
<title>diffutils</title>
<text text-anchor="middle" x="1224" y="-734.63" font-family="Helvetica,sans-Serif" font-weight="bold" font-size="14.00" fill="#000000">diffutils (1.5 MB)</text>
</g>
<!-- libxkbcommon -->
<g id="node25" class="node">
<title>libxkbcommon</title>
<text text-anchor="middle" x="1421.7" y="-352.78" font-family="Helvetica,sans-Serif" font-weight="bold" font-size="14.00" fill="#000000">libxkbcommon (276.4 kB)</text>
</g>
<!-- libfdisk -->
<g id="node26" class="node">
<title>libfdisk</title>
<text text-anchor="middle" x="686.16" y="-108.85" font-family="Helvetica,sans-Serif" font-weight="bold" font-size="14.00" fill="#000000">libfdisk (488.8 kB)</text>
</g>
<!-- libutempter -->
<g id="node27" class="node">
<title>libutempter</title>
<text text-anchor="middle" x="822.18" y="-99.45" font-family="Helvetica,sans-Serif" font-weight="bold" font-size="14.00" fill="#000000">libutempter (58.2 kB)</text>
</g>
<!-- fedora&#45;logos&#45;httpd -->
<g id="node28" class="node">
<title>fedora&#45;logos&#45;httpd</title>
<text text-anchor="middle" x="125.68" y="-135.45" font-family="Helvetica,sans-Serif" font-weight="bold" font-size="14.00" fill="#000000">fedora&#45;logos&#45;httpd (9.9 kB)</text>
</g>
<!-- httpd -->
<g id="node29" class="node">
<title>httpd</title>
<text text-anchor="middle" x="502.47" y="-364.96" font-family="Helvetica,sans-Serif" font-weight="bold" font-size="22.00" fill="#cc0066">httpd (4.6 MB)</text>
</g>
<!-- httpd&#45;filesystem -->
<g id="node30" class="node">
<title>httpd&#45;filesystem</title>
<text text-anchor="middle" x="669.03" y="-239.89" font-family="Helvetica,sans-Serif" font-weight="bold" font-size="14.00" fill="#000000">httpd&#45;filesystem (400.0 B)</text>
</g>
<!-- httpd&#45;tools -->
<g id="node31" class="node">
<title>httpd&#45;tools</title>
<text text-anchor="middle" x="406.97" y="-515.83" font-family="Helvetica,sans-Serif" font-weight="bold" font-size="14.00" fill="#000000">httpd&#45;tools (202.2 kB)</text>
</g>
<!-- mailcap -->
<g id="node32" class="node">
<title>mailcap</title>
<text text-anchor="middle" x="58" y="-339.75" font-family="Helvetica,sans-Serif" font-weight="bold" font-size="14.00" fill="#000000">mailcap (71.2 kB)</text>
</g>
<!-- mod_http2 -->
<g id="node33" class="node">
<title>mod_http2</title>
<text text-anchor="middle" x="494.26" y="-227.67" font-family="Helvetica,sans-Serif" font-weight="bold" font-size="14.00" fill="#000000">mod_http2 (403.9 kB)</text>
</g>
<!-- libpcap -->
<g id="node34" class="node">
<title>libpcap</title>
<text text-anchor="middle" x="1032" y="-959.24" font-family="Helvetica,sans-Serif" font-weight="bold" font-size="14.00" fill="#000000">libpcap (378.8 kB)</text>
</g>
<!-- xkeyboard&#45;config -->
<g id="node35" class="node">
<title>xkeyboard&#45;config</title>
<text text-anchor="middle" x="1833.2" y="-239.61" font-family="Helvetica,sans-Serif" font-weight="bold" font-size="14.00" fill="#000000">xkeyboard&#45;config (5.4 MB)</text>
</g>
</g>

<script type="text/javascript"><![CDATA[

document.addEventListener('click', function(e) {
      e = e || window.event;
      var target = e.target || e.srcElement;
      text = target.parentElement.querySelector("title").textContent;

      console.log("Clicked on: " + text);
      // reset all strokes
      var nodes = document.getElementsByClassName("edge");

      for (index = 0, len = nodes.length; index < len; ++index) {
          //var title = nodes[index].querySelector("title").textContent.split("->");
          id = nodes[index].id;
          document.getElementById(id).querySelector("path").setAttribute("stroke-width", "1");
          document.getElementById(id).querySelector("path").setAttribute("stroke-opacity", "0.5");
          document.getElementById(id).querySelector("path").setAttribute("stroke", "#444444");
          document.getElementById(id).querySelector("polygon").setAttribute("stroke-width", "1");
          document.getElementById(id).querySelector("polygon").setAttribute("stroke-opacity", "0.5");
          document.getElementById(id).querySelector("polygon").setAttribute("stroke", "#444444");
      }
      // reset text highlight
      pkgs = document.getElementsByClassName("node");
      for (index2 = 0, len2 = pkgs.length; index2 < len2; ++index2) {
          target_id = pkgs[index2].id;
          document.getElementById(target_id).querySelector("text").setAttribute("font-weight", "normal");
      }

      // highlight deps
      var nodes = document.getElementsByClassName("edge");
      for (index = 0, len = nodes.length; index < len; ++index) {
        var title = nodes[index].querySelector("title").textContent.split("->");

        if (title[0] == text) {
          id = nodes[index].id;
          //console.log("ID:   " + id);
          document.getElementById(id).querySelector("path").setAttribute("stroke-width", "3");
          document.getElementById(id).querySelector("path").setAttribute("stroke-opacity", "1");
          document.getElementById(id).querySelector("path").setAttribute("stroke", "#aa3333");
          document.getElementById(id).querySelector("polygon").setAttribute("stroke-width", "5");
          document.getElementById(id).querySelector("polygon").setAttribute("stroke-opacity", "1");
          document.getElementById(id).querySelector("polygon").setAttribute("stroke", "#aa3333");

        }
        if (title[1] == text) {
          id = nodes[index].id;
          document.getElementById(id).querySelector("path").setAttribute("stroke-width", "3");
          document.getElementById(id).querySelector("path").setAttribute("stroke-opacity", "1");
          document.getElementById(id).querySelector("path").setAttribute("stroke", "#333377");
          document.getElementById(id).querySelector("polygon").setAttribute("stroke-width", "5");
          document.getElementById(id).querySelector("polygon").setAttribute("stroke-opacity", "1");
          document.getElementById(id).querySelector("polygon").setAttribute("stroke", "#333377");
        }

        if (title[0] == text || title[1] == text) {
          pkgs = document.getElementsByClassName("node");
          for (index2 = 0, len2 = pkgs.length; index2 < len2; ++index2) {
            var pkg_name = pkgs[index2].querySelector("title").textContent;
            if (pkg_name == title[0] || pkg_name == title[1]) {
              target_id = pkgs[index2].id;
              document.getElementById(target_id).querySelector("text").setAttribute("font-weight", "bold");
            }
          }
        }
      }


  }, false);

]]></script>


  <text
     id="text7664"
     y="19.384439"
     x="9.9055691"
     style="font-style:normal;font-weight:normal;font-size:12.49485588px;line-height:125%;font-family:sans-serif;letter-spacing:0px;word-spacing:0px;fill:#000000;fill-opacity:1;stroke:none;stroke-width:0.3123714px;stroke-linecap:butt;stroke-linejoin:miter;stroke-opacity:1"
     xml:space="preserve"><tspan
       style="font-size:12.00258541px;stroke-width:0.3123714px"
       y="19.384439"
       x="9.9055691"
       id="tspan7666"><a href="report-use-case-definition--httpd--31.html"><tspan
   style="font-weight:bold;font-size:12.00258541px;fill:#0066ff;stroke-width:0.3123714px"
   id="tspan7668">Apache httpd</tspan></a> on <a href="report-base-definition--fedora-container-base--31.html"><tspan
   style="font-weight:bold;font-size:12.00258541px;fill:#0066ff;stroke-width:0.3123714px"
   id="tspan7676">Fedora Container Base</tspan></a> (Fedora 31)</tspan></text>
  <text
     xml:space="preserve"
     style="font-style:normal;font-weight:normal;font-size:11.85299969px;line-height:125%;font-family:sans-serif;letter-spacing:0px;word-spacing:0px;fill:#000000;fill-opacity:1;stroke:none;stroke-width:0.296325px;stroke-linecap:butt;stroke-linejoin:miter;stroke-opacity:1"
     x="9.9365959"
     y="58.520042"
     id="text8235"><tspan
       id="tspan8237"
       x="9.9365959"
       y="58.520042"
       style="stroke-width:0.296325px;font-size:10.80232704px;fill:#666666">Generated by <a href="./"><tspan
   style="fill:#3771c8"
   id="tspan8255">Feedback Pipeline</tspan></a></tspan></text>
  <text
     xml:space="preserve"
     style="font-style:normal;font-weight:normal;font-size:12.49485588px;line-height:125%;font-family:sans-serif;letter-spacing:0px;word-spacing:0px;fill:#000000;fill-opacity:1;stroke:none;stroke-width:0.3123714px;stroke-linecap:butt;stroke-linejoin:miter;stroke-opacity:1"
     x="9.9055691"
     y="38.974205"
     id="text8245"><a href="graph--httpd--fedora-container-base--31.svg"><tspan
       id="tspan8247"
       x="9.9055691"
       y="38.974205"
       style="font-weight:normal;font-size:12.00258541px;fill:#0066ff;stroke-width:0.3123714px">Expand base image</tspan></a></text>

</svg>
