<?xml version="1.0" encoding="UTF-8" standalone="no"?>
<!DOCTYPE svg PUBLIC "-//W3C//DTD SVG 1.1//EN"
 "http://www.w3.org/Graphics/SVG/1.1/DTD/svg11.dtd">
<!-- Generated by graphviz version 2.40.1 (0)
 -->
<!-- Title: packages Pages: 1 -->
<svg width="1315pt" height="1010pt"
 viewBox="0.00 0.00 1578.14 1212.19" xmlns="http://www.w3.org/2000/svg" xmlns:xlink="http://www.w3.org/1999/xlink">
<g id="graph0" class="graph" transform="scale(.8333 .8333) rotate(0) translate(128.05 1089.2804)">
<title>packages</title>
<polygon fill="#dae2ff" stroke="transparent" points="-128.05,122.9125 -128.05,-1089.2804 1450.0862,-1089.2804 1450.0862,122.9125 -128.05,122.9125"/>
<polygon fill="#ccebc5" stroke="#ccebc5" points="894.5077,-393.5234 904.8159,-377.5008 951.3499,-298.85 975.7845,-265.8905 980.8862,-265.1895 996.5894,-262.6636 1009.502,-259.9871 1016.3126,-258.2611 1026.3508,-255.2511 1026.6385,-332.0984 1023.9841,-383.5334 1019.1321,-383.5334 1013.5425,-386.8655 1012.5761,-387.9971 1014.5045,-390.2514 1018.3865,-392.3896 1018.3865,-392.3896 1014.5045,-390.2514 1012.5761,-387.9971 1013.5425,-386.8655 1019.1321,-383.5334 1023.9841,-383.5334 1026.6385,-332.0984 1026.3508,-255.2511 1030.1874,-253.9223 1040.2789,-250.1897 1056.9734,-243.2334 1053.5508,-356.782 1053.5508,-356.782 1056.9734,-243.2334 1058.9287,-242.329 1111.7943,-252.4744 1128.2031,-256.2865 1133.964,-257.8554 1141.2894,-259.9975 1142.3894,-260.3411 1185.6538,-275.6112 1197.4747,-298.937 1222.9841,-383.7255 1227.1353,-395.8994 1228.3468,-397.0756 1186.8489,-529.0191 1136.9213,-534.4257 1121.0272,-532.4419 1121.0272,-532.4419 1136.9213,-534.4257 1186.8489,-529.0191 1181.0138,-556.5809 1180.9132,-556.9562 1121.5054,-544.0897 1118.6484,-540.6641 1114.8807,-539.1498 1114.3046,-538.6744 1111.0598,-538.6744 1110.8494,-538.7369 1105.4203,-538.7369 1104.8906,-538.5751 1103.1265,-538.5751 1100.0637,-535.8371 1094.119,-533.9811 1088.1204,-535.8303 1085.1896,-538.3696 1088.8466,-541.8263 1088.8466,-541.8263 1085.1896,-538.3696 1088.1204,-535.8303 1094.119,-533.9811 1100.0637,-535.8371 1103.1265,-538.5751 1104.8906,-538.5751 1105.4203,-538.7369 1110.8494,-538.7369 1111.0598,-538.6744 1114.3046,-538.6744 1114.8807,-539.1498 1118.6484,-540.6641 1121.5054,-544.0897 1180.9132,-556.9562 1178.0979,-570.2563 1170.1991,-599.9571 1142.295,-688.6786 1121.2539,-692.6296 1105.8739,-696.1166 1082.3494,-702.8223 1063.6721,-709.9548 1027.0007,-724.6645 1019.3388,-756.47 1010.8419,-802.1187 1027.9963,-852.5893 1026.6414,-917.9471 1026.682,-938.1426 1027.3517,-952.241 1026.895,-970.7269 984.6106,-1046.8256 905.428,-1067.0696 892.8723,-1065.9769 875.2415,-1065.1718 882.129,-931.7283 885.6174,-931.7283 885.6174,-931.7283 882.129,-931.7283 875.2415,-1065.1718 871.4878,-1065.0781 873.1308,-980.9176 871.0266,-932.9736 872.5557,-931.134 871.6532,-930.1138 866.0111,-926.8502 861.2944,-926.8502 861.2944,-926.8502 866.0111,-926.8502 871.6532,-930.1138 872.5557,-931.134 871.0266,-932.9736 873.1308,-980.9176 871.4878,-1065.0781 867.0411,-1065.1515 863.1627,-1065.3761 852.7727,-1062.1364 840.4267,-1058.8545 838.7712,-1058.4908 768.0859,-1044.5753 729.2296,-1062.964 684.1857,-1068.6378 677.5038,-1069.6282 668.7235,-1071.3209 658.2452,-1073.8094 641.8757,-1078.429 641.8106,-1031.7959 643.749,-1000.787 650.2624,-944.1159 650.9786,-943.3274 649.4711,-941.6684 647.4784,-838.8884 642.6713,-838.7653 643.1135,-796.3459 649.9764,-734.5583 649.228,-734.3321 647.1169,-734.3321 642.8812,-730.4326 639.0818,-729.3643 639.0818,-729.3643 642.8812,-730.4326 647.1169,-734.3321 649.228,-734.3321 649.9764,-734.5583 643.1135,-796.3459 642.6713,-838.7653 647.4784,-838.8884 649.4711,-941.6684 644.4988,-938.903 644.4988,-938.903 649.4711,-941.6684 650.9786,-943.3274 650.2624,-944.1159 643.749,-1000.787 641.8106,-1031.7959 641.8757,-1078.429 633.4332,-1081.5649 628.6796,-943.6279 628.5034,-943.5784 624.6061,-943.5784 623.1299,-943.1611 618.9166,-943.1611 617.8718,-838.7549 623.4844,-838.7048 624.3713,-782.9344 624.3713,-782.9344 623.4844,-838.7048 617.8718,-838.7549 618.9166,-943.1611 623.1299,-943.1611 624.6061,-943.5784 628.5034,-943.5784 628.6796,-943.6279 633.4332,-1081.5649 624.0047,-1085.2804 621.9269,-1085.1033 612.5959,-1084.6677 601.2794,-1084.358 599.0719,-1084.3402 600.6239,-979.9178 598.2498,-948.991 474.9733,-964.5862 477.6046,-932.8683 478.621,-901.0645 481.6881,-863.665 493.3102,-857.4082 491.8295,-775.7964 491.8295,-775.7964 493.3102,-857.4082 481.6881,-863.665 478.621,-901.0645 477.6046,-932.8683 474.9733,-964.5862 598.2498,-948.991 600.6239,-979.9178 599.0719,-1084.3402 595.0969,-1084.4612 476.9333,-1048.6317 468.6822,-1040.2562 355.1625,-1050.674 340.6919,-1052.6808 339.2565,-1052.9132 320.113,-1056.915 320.9627,-1000.7392 320.8638,-996.8029 322.0841,-927.036 327.842,-928.7883 332.0209,-927.5864 336.3196,-923.4817 333.1124,-920.6123 327.5681,-918.9215 327.5681,-918.9215 333.1124,-920.6123 336.3196,-923.4817 332.0209,-927.5864 327.842,-928.7883 322.0841,-927.036 320.8638,-996.8029 320.9627,-1000.7392 320.113,-1056.915 311.9766,-1059.1851 299.6195,-1062.9224 260.6295,-1076.5227 215.5269,-1034.3363 207.9317,-1025.4451 178.2706,-944.5492 176.6333,-940.4101 175.2399,-913.1919 169.6131,-857.3132 149.6443,-842.0413 85.5401,-734.4391 84.8117,-733.3336 91.0163,-726.368 99.3833,-717.7224 105.3755,-711.8001 113.0096,-704.6005 122.5286,-696.0634 126.7185,-692.6982 128.2185,-691.5613 134.022,-686.8502 134.5851,-686.4205 148.7159,-676.299 152.7849,-673.5901 158.4245,-670.3855 218.6124,-639.0654 230.8036,-632.1214 243.4086,-623.7432 247.1732,-620.8908 247.4424,-620.674 252.979,-712.3146 247.5301,-713.9825 243.9428,-717.2847 247.1543,-720.0928 247.1543,-720.0928 243.9428,-717.2847 247.5301,-713.9825 252.979,-712.3146 247.4424,-620.674 257.1414,-612.3702 264.0997,-605.7209 276.6784,-593.0682 279.2412,-590.37 285.287,-584.9113 286.6265,-583.5943 347.1724,-599.4497 360.4055,-603.2233 361.5795,-603.585 361.8346,-603.5057 363.5641,-603.0078 370.5312,-601.1598 389.6538,-596.954 404.6009,-594.6933 411.4953,-593.9662 431.7469,-592.7538 440.3218,-592.0447 450.4597,-590.9755 450.4906,-608.3793 449.1814,-662.0982 444.5792,-720.3738 444.7192,-720.4152 450.2575,-720.4152 450.9381,-720.2072 455.0721,-720.2072 455.6979,-720.963 461.9056,-724.813 466.4351,-724.813 466.4351,-724.813 461.9056,-724.813 455.6979,-720.963 455.0721,-720.2072 450.9381,-720.2072 450.2575,-720.4152 444.7192,-720.4152 444.5792,-720.3738 449.1814,-662.0982 450.4906,-608.3793 450.4597,-590.9755 460.5999,-589.2128 466.2934,-588.0931 478.125,-585.4964 485.8534,-583.2725 475.1126,-485.0723 473.5634,-457.4778 473.4664,-456.8913 472.9175,-447.003 462.6985,-353.5734 495.1499,-319.0621 501.2164,-318.3339 512.4378,-317.2143 520.6762,-316.8932 521.5281,-316.8425 536.0747,-316.2713 539.8654,-316.4298 546.9598,-316.4359 550.0864,-316.5019 556.1063,-316.5056 557.1872,-316.5501 572.4801,-316.2397 581.4738,-315.689 589.5013,-314.8689 592.4214,-314.4507 603.7931,-330.2385 607.1685,-335.2061 608.0212,-336.3401 618.4641,-349.5515 622.1862,-353.762 635.8376,-368.3352 651.1127,-381.6014 654.6188,-385.2935 661.8414,-391.1299 717.1929,-431.5716 730.7207,-443.6087 731.2816,-444.1929 739.7504,-451.5309 750.8552,-462.6054 758.0367,-470.6962 761.125,-474.3763 763.2488,-477.049 762.2507,-480.0439 747.9438,-527.9 722.7537,-591.6396 752.804,-619.4246 766.9101,-624.8428 775.9441,-628.1 789.3964,-632.6292 802.095,-635.9859 812.0898,-638.1458 812.1428,-728.9579 815.5233,-753.4484 819.1938,-756.4058 819.1284,-756.4979 814.7195,-760.0844 810.1879,-761.317 803.8868,-759.4641 800.3494,-756.5377 800.0874,-756.5377 798.8121,-756.1766 795.1931,-756.1766 795.1931,-756.1766 798.8121,-756.1766 800.0874,-756.5377 800.3494,-756.5377 803.8868,-759.4641 810.1879,-761.317 814.7195,-760.0844 819.1284,-756.4979 819.1938,-756.4058 815.5233,-753.4484 812.1428,-728.9579 812.0898,-638.1458 823.8408,-640.1187 825.9843,-640.4266 838.3467,-641.6076 844.6946,-642.0607 843.8033,-685.8886 839.6892,-752.7963 837.1144,-756.1649 834.6645,-756.1649 834.5481,-756.1977 830.4536,-756.1977 830.4536,-756.1977 834.5481,-756.1977 834.6645,-756.1649 837.1144,-756.1649 839.6892,-752.7963 843.8033,-685.8886 844.6946,-642.0607 858.2952,-642.3759 862.4548,-642.5722 867.0568,-643.0107 881.2477,-645.0509 887.3583,-646.0765 895.3851,-647.8111 903.626,-649.7907 911.5181,-651.8755 914.5795,-652.7569 922.5752,-655.4424 985.5081,-679.6149 996.5276,-541.6674 996.4545,-532.9454 996.1895,-527.9 1000.0909,-479.0609 997.3504,-477.3146 996.495,-476.8079 993.6532,-475.2473 989.1193,-472.9502 923.4067,-442.4414 907.3044,-432.9189 899.0694,-427.3665 886.7048,-417.9905 880.338,-412.6368 894.5077,-393.5234 894.5077,-393.5234"/>
<polygon fill="#fed9a6" stroke="#fed9a6" points="339.7401,32.7958 464.1666,97.8233 466.3068,98.9961 471.1562,101.9059 477.2289,104.662 485.7795,105.7494 483.0874,-5.7825 478.8612,-39.1576 481.5665,-39.9449 484.7662,-39.9449 486.7916,-109.7731 489.6078,-109.6459 490.2021,-109.6439 499.2377,-109.2248 494.7676,-42.973 500.0784,-44.4616 505.0177,-43.048 508.9384,-39.577 505.4667,-36.5411 505.4667,-36.5411 508.9384,-39.577 505.0177,-43.048 500.0784,-44.4616 494.7676,-42.973 499.2377,-109.2248 490.2021,-109.6439 489.6078,-109.6459 486.7916,-109.7731 484.7662,-39.9449 481.5665,-39.9449 478.8612,-39.1576 483.0874,-5.7825 485.7795,105.7494 488.4658,106.1933 504.4696,109.1433 505.87,109.508 530.1572,116.3045 533.8415,117.5443 535.7378,-33.9621 585.3951,-28.1609 587.1743,-45.4685 599.7203,-100.2121 563.4509,-106.8649 557.6988,-172.8448 593.226,-179.26 697.7855,-179.26 700.7514,-183.601 676.2451,-239.5224 715.4294,-283.0045 723.5717,-291.458 728.0801,-295.8026 731.7921,-298.85 758.8284,-298.85 795.1259,-305.2442 799.3689,-302.4816 801.3499,-299.1877 801.3499,-299.1877 799.3689,-302.4816 795.1259,-305.2442 758.8284,-298.85 731.7921,-298.85 728.0801,-295.8026 723.5717,-291.458 715.4294,-283.0045 676.2451,-239.5224 700.7514,-183.601 697.7855,-179.26 593.226,-179.26 557.6988,-172.8448 563.4509,-106.8649 599.7203,-100.2121 587.1743,-45.4685 585.3951,-28.1609 535.7378,-33.9621 533.8415,117.5443 536.0475,118.3288 555.4142,111.1147 640.0166,110.2141 648.0822,110.6636 658.2141,111.453 656.2953,-13.04 651.2237,-14.4946 647.1683,-18.035 646.7518,-18.035 640.5698,39.537 640.5698,39.537 646.7518,-18.035 647.1683,-18.035 651.2237,-14.4946 656.2953,-13.04 661.1993,-14.4591 665.159,-18.0673 667.765,-18.0673 667.8108,-18.0807 669.9088,-18.0807 671.3948,-15.8942 671.3948,-15.8942 669.9088,-18.0807 667.8108,-18.0807 667.765,-18.0673 665.159,-18.0673 661.1993,-14.4591 656.2953,-13.04 658.2141,111.453 663.5121,111.9829 676.9929,113.9286 703.4384,118.9125 748.9693,96.9957 759.0138,89.4878 760.2261,89.0916 761.7064,35.7476 761.7064,35.7476 760.2261,89.0916 778.7786,84.2555 779.8248,84.0063 790.8223,81.8739 806.0179,79.6025 811.2717,79.1681 822.5538,78.4857 822.4014,-11.7652 818.9001,-45.2424 814.9746,-45.2424 814.1405,-45.4817 810.0853,-45.4817 809.8832,-45.5395 804.8575,-45.5395 803.3226,-6.9439 798.7189,-41.7976 794.9804,-40.7885 788.3244,-42.757 785.241,-45.2755 784.5305,-45.2755 784.5305,-45.2755 785.241,-45.2755 788.3244,-42.757 794.9804,-40.7885 798.7189,-41.7976 803.3226,-6.9439 804.8575,-45.5395 809.8832,-45.5395 810.0853,-45.4817 814.1405,-45.4817 814.9746,-45.2424 818.9001,-45.2424 822.4014,-11.7652 822.5538,78.4857 838.6068,78.2287 914.0015,78.6974 985.5995,25.8493 962.739,-2.0268 953.0649,-13.379 941.2083,-28.0193 924.5068,-45.9109 921.0991,-49.1744 919.8593,-95.2417 915.8107,-141.1205 911.2206,-143.6656 910.3171,-58.5429 907.3117,-61.3402 907.3117,-61.3402 910.3171,-58.5429 911.2206,-143.6656 915.8107,-141.1205 919.8593,-95.2417 921.0991,-49.1744 924.5068,-45.9109 941.2083,-28.0193 953.0649,-13.379 962.739,-2.0268 985.5995,25.8493 995.4837,24.4586 1022.2884,34.5707 1103.0033,25.382 1118.2996,23.9765 1119.1219,23.9191 1128.3152,21.6997 1129.6724,21.4357 1138.5313,19.9176 1140.0498,-64.7742 1137.5054,-104.3474 1132.771,-101.5847 1127.5913,-101.5847 1127.5913,-101.5847 1132.771,-101.5847 1137.5054,-104.3474 1140.0498,-64.7742 1138.5313,19.9176 1153.4202,18.058 1154.9565,17.6876 1228.5485,1.7413 1291.4736,-48.7972 1306.4957,-75.9529 1306.3585,-79.1407 1305.3104,-84.3271 1295.0542,-98.8107 1281.4806,-119.7835 1185.6538,-275.6112 1142.3894,-260.3411 1141.2894,-259.9975 1133.964,-257.8554 1128.2031,-256.2865 1111.7943,-252.4744 1058.9287,-242.329 1056.9734,-243.2334 1040.2789,-250.1897 1030.1874,-253.9223 1026.3508,-255.2511 1016.3126,-258.2611 1009.502,-259.9871 996.5894,-262.6636 980.8862,-265.1895 975.7845,-265.8905 951.3499,-298.85 902.4412,-298.85 888.5634,-299.9441 862.1643,-305.2719 857.1777,-302.0837 855.0256,-298.8734 852.5699,-298.8734 852.5699,-298.8734 855.0256,-298.8734 857.1777,-302.0837 862.1643,-305.2719 888.5634,-299.9441 902.4412,-298.85 951.3499,-298.85 904.8159,-377.5008 894.5077,-393.5234 880.338,-412.6368 886.7048,-417.9905 899.0694,-427.3665 907.3044,-432.9189 923.4067,-442.4414 989.1193,-472.9502 993.6532,-475.2473 996.495,-476.8079 997.3504,-477.3146 1000.0909,-479.0609 996.1895,-527.9 996.4545,-532.9454 996.5276,-541.6674 985.5081,-679.6149 922.5752,-655.4424 923.0097,-595.3872 923.0097,-595.3872 922.5752,-655.4424 914.5795,-652.7569 911.5181,-651.8755 903.626,-649.7907 900.395,-528.3023 899.6512,-528.3023 894.6899,-523.9308 891.2721,-523.0192 891.2721,-523.0192 894.6899,-523.9308 899.6512,-528.3023 900.395,-528.3023 903.626,-649.7907 895.3851,-647.8111 887.3583,-646.0765 881.2477,-645.0509 867.0568,-643.0107 862.4548,-642.5722 858.2952,-642.3759 844.6946,-642.0607 838.3467,-641.6076 825.9843,-640.4266 823.8408,-640.1187 812.0898,-638.1458 802.095,-635.9859 789.3964,-632.6292 775.9441,-628.1 766.9101,-624.8428 752.804,-619.4246 722.7537,-591.6396 747.9438,-527.9 762.2507,-480.0439 763.2488,-477.049 761.125,-474.3763 758.0367,-470.6962 750.8552,-462.6054 739.7504,-451.5309 739.8235,-411.8921 742.794,-373.8654 747.1677,-373.8654 753.2905,-370.2994 754.1714,-369.3162 752.0733,-366.9296 748.2114,-364.84 748.2114,-364.84 752.0733,-366.9296 754.1714,-369.3162 753.2905,-370.2994 747.1677,-373.8654 742.794,-373.8654 739.8235,-411.8921 739.7504,-451.5309 731.2816,-444.1929 730.7207,-443.6087 730.0812,-405.2867 730.0812,-405.2867 730.7207,-443.6087 717.1929,-431.5716 661.8414,-391.1299 654.6188,-385.2935 651.1127,-381.6014 635.8376,-368.3352 622.1862,-353.762 618.4641,-349.5515 608.0212,-336.3401 607.1685,-335.2061 603.7931,-330.2385 592.4214,-314.4507 589.5013,-314.8689 581.4738,-315.689 572.4801,-316.2397 557.1872,-316.5501 556.1063,-316.5056 550.0864,-316.5019 546.9598,-316.4359 539.8654,-316.4298 536.0747,-316.2713 521.5281,-316.8425 520.6762,-316.8932 512.4378,-317.2143 501.2164,-318.3339 495.1499,-319.0621 485.5607,-307.0338 495.9031,-185.339 500.807,-181.5159 501.3407,-180.6675 503.2347,-179.2807 505.0255,-179.2807 505.2862,-179.2065 505.2862,-179.2065 505.0255,-179.2807 503.2347,-179.2807 501.3407,-180.6675 500.807,-181.5159 495.9031,-185.339 485.5607,-307.0338 466.3746,-284.02 396.2862,-182.5062 392.7339,-177.6874 370.0988,-150.5364 360.8928,-139.0167 358.862,-138.1188 351.8539,-82.0756 349.7549,-60.7974 349.6256,-57.9406 347.6384,-30.3657 339.7401,32.7958 339.7401,32.7958"/>
<polygon fill="#fbb4ae" stroke="#fbb4ae" points="-121.7905,-369.2828 -121.9483,-366.8619 -124.05,-342.0731 -77.7833,-288.6814 -70.6133,-258.5551 49.7046,-243.6667 59.3512,-246.3214 61.8569,-273.9707 61.2772,-312.3165 51.0846,-312.4595 48.7963,-312.3957 48.4731,-338.2917 48.4731,-338.2917 48.7963,-312.3957 51.0846,-312.4595 61.2772,-312.3165 61.8569,-273.9707 65.7144,-242.0539 67.0481,-240.0954 69.3551,-240.0954 72.5317,-270.4806 76.5786,-242.0487 80.7196,-244.4146 80.7196,-244.4146 76.5786,-242.0487 74.5836,-239.5673 75.9956,-237.9265 80.4836,-235.3954 85.9904,-235.3954 92.7399,-239.6192 90.6691,-242.161 96.9488,-285.3506 97.8954,-298.5224 103.0948,-240.6567 104.3126,-241.238 107.552,-244.8803 110.1925,-313.3505 154.8507,-318.3935 158.8595,-307.2255 236.2958,-289.1776 239.8589,-285.5467 241.0643,-285.0339 242.0618,-284.194 242.2228,-284.1476 244.8467,-284.1476 248.9547,-309.8141 252.7191,-284.0862 256.021,-284.0862 259.4019,-339.9186 262.1789,-284.0643 265.8384,-284.0643 269.6034,-316.3353 272.9557,-284.0984 277.0707,-284.0984 277.3597,-284.0166 281.4432,-284.0166 284.8873,-318.08 288.4207,-283.9792 291.1236,-283.9792 291.912,-284.8667 297.9343,-288.4404 303.5287,-288.4404 307.7993,-286.1147 309.3512,-284.384 312.3937,-284.384 317.248,-332.4234 318.6751,-284.1297 318.6751,-284.1297 317.248,-332.4234 312.3937,-284.384 309.3512,-284.384 307.6168,-282.2844 302.9552,-279.5789 297.8687,-279.5789 297.8687,-279.5789 302.9552,-279.5789 307.6168,-282.2844 309.3512,-284.384 307.7993,-286.1147 303.5287,-288.4404 297.9343,-288.4404 291.912,-284.8667 291.1236,-283.9792 288.4207,-283.9792 288.3218,-283.9507 288.3218,-283.9507 288.4207,-283.9792 284.8873,-318.08 281.4432,-284.0166 277.3597,-284.0166 277.0707,-284.0984 272.9557,-284.0984 269.6034,-316.3353 265.8384,-284.0643 262.1789,-284.0643 259.4019,-339.9186 256.021,-284.0862 252.7191,-284.0862 252.0842,-283.9022 252.0842,-283.9022 252.7191,-284.0862 248.9547,-309.8141 244.8467,-284.1476 242.2228,-284.1476 242.0618,-284.194 241.0643,-285.0339 239.8589,-285.5467 236.2958,-289.1776 158.8595,-307.2255 154.8507,-318.3935 110.1925,-313.3505 107.552,-244.8803 104.3126,-241.238 103.0948,-240.6567 97.8954,-298.5224 96.9488,-285.3506 90.6691,-242.161 92.7399,-239.6192 85.9904,-235.3954 80.4836,-235.3954 75.9956,-237.9265 74.5836,-239.5673 76.5786,-242.0487 72.5317,-270.4806 69.3551,-240.0954 67.0481,-240.0954 65.7144,-242.0539 61.8569,-273.9707 59.3512,-246.3214 49.7046,-243.6667 -70.6133,-258.5551 -60.5158,-204.9989 -57.6469,-187.2939 -49.6798,-174.9815 11.837,-106.4483 45.5766,-94.1742 55.9144,-70.6728 59.1819,-62.1658 96.2454,41.8734 176.7833,72.8243 189.4256,77.9886 197.229,81.3612 205.7775,85.4619 206.41,-63.1241 201.2828,-66.1213 199.951,-67.7274 201.0451,-69.0802 206.1069,-72.1709 211.9809,-72.1709 211.9809,-72.1709 206.1069,-72.1709 201.0451,-69.0802 199.951,-67.7274 201.2828,-66.1213 206.41,-63.1241 205.7775,85.4619 222.568,93.9146 223.6619,94.5156 227.1102,92.4417 227.4394,53.5133 228.6268,17.4079 228.6268,17.4079 227.4394,53.5133 227.1102,92.4417 339.7401,32.7958 347.6384,-30.3657 349.6256,-57.9406 349.7549,-60.7974 351.8539,-82.0756 358.862,-138.1188 360.8928,-139.0167 370.0988,-150.5364 364.6802,-277.787 360.2516,-281.0437 360.2516,-281.0437 364.6802,-277.787 370.0988,-150.5364 392.7339,-177.6874 396.2862,-182.5062 466.3746,-284.02 485.5607,-307.0338 495.1499,-319.0621 462.6985,-353.5734 472.9175,-447.003 473.4664,-456.8913 473.5634,-457.4778 475.1126,-485.0723 485.8534,-583.2725 478.125,-585.4964 466.2934,-588.0931 460.5999,-589.2128 450.4597,-590.9755 440.3218,-592.0447 431.7469,-592.7538 411.4953,-593.9662 404.6009,-594.6933 389.6538,-596.954 370.5312,-601.1598 363.5641,-603.0078 361.8346,-603.5057 361.5795,-603.585 360.4055,-603.2233 347.1724,-599.4497 286.6265,-583.5943 285.287,-584.9113 279.2412,-590.37 276.6784,-593.0682 264.0997,-605.7209 257.1414,-612.3702 247.4424,-620.674 247.1732,-620.8908 243.4086,-623.7432 230.8036,-632.1214 218.6124,-639.0654 158.4245,-670.3855 152.7849,-673.5901 148.7159,-676.299 134.5851,-686.4205 134.022,-686.8502 128.2185,-691.5613 126.7185,-692.6982 122.5286,-696.0634 113.0096,-704.6005 105.3755,-711.8001 99.3833,-717.7224 91.0163,-726.368 92.5521,-659.4769 91.2488,-596.6312 91.2488,-596.6312 92.5521,-659.4769 91.0163,-726.368 84.8117,-733.3336 29.1013,-716.7416 -22.3134,-682.3944 -38.7559,-590.37 -51.7349,-538.9652 -46.674,-520.225 -105.3486,-400.1913 -111.9206,-387.4601 -121.7905,-369.2828 -121.7905,-369.2828"/>
<polygon fill="#fed9a6" stroke="#fed9a6" points="1180.9132,-556.9562 1181.0138,-556.5809 1186.8489,-529.0191 1228.3468,-397.0756 1241.3958,-402.7265 1242.7473,-403.2856 1254.0228,-407.7338 1264.1973,-411.3541 1280.5413,-416.2272 1290.3834,-418.7807 1291.0171,-418.9328 1300.8173,-425.1724 1311.9082,-431.6529 1317.7467,-434.7588 1319.4805,-435.6362 1321.6301,-502.7857 1321.6301,-502.7857 1319.4805,-435.6362 1431.1523,-486.4986 1444.0121,-533.2871 1442.988,-572.6549 1443.1454,-578.5773 1446.0862,-634.1974 1374.3434,-694.3926 1335.8416,-697.9426 1316.8231,-700.1471 1317.911,-614.2714 1314.955,-574.9134 1311.2751,-574.9134 1310.4408,-574.6572 1310.4408,-574.6572 1311.2751,-574.9134 1314.955,-574.9134 1317.911,-614.2714 1316.8231,-700.1471 1306.3889,-701.8466 1296.7142,-703.8763 1281.9012,-707.6802 1279.1837,-708.5045 1277.7551,-708.3724 1272.4586,-707.9972 1249.991,-707.8579 1244.8029,-707.9377 1224.5646,-709.5591 1142.295,-688.6786 1170.1991,-599.9571 1240.4033,-579.6858 1243.9719,-628.7484 1244.9093,-697.153 1251.8816,-574.8748 1257.228,-574.8748 1257.4427,-574.8114 1260.8954,-574.8114 1267.7322,-625.8867 1267.3813,-574.6182 1267.3813,-574.6182 1267.7322,-625.8867 1260.8954,-574.8114 1257.4427,-574.8114 1257.228,-574.8748 1251.8816,-574.8748 1244.9093,-697.153 1243.9719,-628.7484 1240.4033,-579.6858 1170.1991,-599.9571 1178.0979,-570.2563 1180.9132,-556.9562 1180.9132,-556.9562"/>
<polyline fill="none" stroke="#000000" points="607.1685,-335.2061 603.7931,-330.2385 592.4214,-314.4507 589.5013,-314.8689 581.4738,-315.689 572.4801,-316.2397 557.1872,-316.5501 556.1063,-316.5056 550.0864,-316.5019 546.9598,-316.4359 539.8654,-316.4298 536.0747,-316.2713 521.5281,-316.8425 520.6762,-316.8932 512.4378,-317.2143 501.2164,-318.3339 495.1499,-319.0621 462.6985,-353.5734 472.9175,-447.003 473.4664,-456.8913 473.5634,-457.4778 475.1126,-485.0723 485.8534,-583.2725 478.125,-585.4964 466.2934,-588.0931 460.5999,-589.2128 450.4597,-590.9755 440.3218,-592.0447 431.7469,-592.7538 411.4953,-593.9662 404.6009,-594.6933 389.6538,-596.954 370.5312,-601.1598 363.5641,-603.0078 361.8346,-603.5057 361.5795,-603.585 360.4055,-603.2233 347.1724,-599.4497 286.6265,-583.5943 285.287,-584.9113 279.2412,-590.37 276.6784,-593.0682 264.0997,-605.7209 257.1414,-612.3702 247.4424,-620.674 247.1732,-620.8908 243.4086,-623.7432 230.8036,-632.1214 218.6124,-639.0654 158.4245,-670.3855 152.7849,-673.5901 148.7159,-676.299 134.5851,-686.4205 134.022,-686.8502 128.2185,-691.5613 126.7185,-692.6982 122.5286,-696.0634 113.0096,-704.6005 105.3755,-711.8001 99.3833,-717.7224 91.0163,-726.368 84.8117,-733.3336 85.5401,-734.4391 149.6443,-842.0413 169.6131,-857.3132 175.2399,-913.1919 176.6333,-940.4101 178.2706,-944.5492 207.9317,-1025.4451 215.5269,-1034.3363 260.6295,-1076.5227 299.6195,-1062.9224 311.9766,-1059.1851 320.113,-1056.915 339.2565,-1052.9132 340.6919,-1052.6808 355.1625,-1050.674 468.6822,-1040.2562 476.9333,-1048.6317 595.0969,-1084.4612 599.0719,-1084.3402 601.2794,-1084.358 612.5959,-1084.6677 621.9269,-1085.1033 624.0047,-1085.2804 633.4332,-1081.5649 641.8757,-1078.429 658.2452,-1073.8094 668.7235,-1071.3209 677.5038,-1069.6282 684.1857,-1068.6378 729.2296,-1062.964 768.0859,-1044.5753 838.7712,-1058.4908 840.4267,-1058.8545 852.7727,-1062.1364 863.1627,-1065.3761 867.0411,-1065.1515 871.4878,-1065.0781 875.2415,-1065.1718 892.8723,-1065.9769 905.428,-1067.0696 984.6106,-1046.8256 1026.895,-970.7269 1027.3517,-952.241 1026.682,-938.1426 1026.6414,-917.9471 1027.9963,-852.5893 1010.8419,-802.1187 1019.3388,-756.47 1027.0007,-724.6645 1063.6721,-709.9548 1082.3494,-702.8223 1105.8739,-696.1166 1121.2539,-692.6296 1142.295,-688.6786 1170.1991,-599.9571 1178.0979,-570.2563 1180.9132,-556.9562 1181.0138,-556.5809 1186.8489,-529.0191 1228.3468,-397.0756 1227.1353,-395.8994 1222.9841,-383.7255 1197.4747,-298.937 1185.6538,-275.6112 1142.3894,-260.3411 1141.2894,-259.9975 1133.964,-257.8554 1128.2031,-256.2865 1111.7943,-252.4744 1058.9287,-242.329 1056.9734,-243.2334 1040.2789,-250.1897 1030.1874,-253.9223 1026.3508,-255.2511 1016.3126,-258.2611 1009.502,-259.9871 996.5894,-262.6636 980.8862,-265.1895 975.7845,-265.8905 951.3499,-298.85 904.8159,-377.5008 894.5077,-393.5234 880.338,-412.6368 886.7048,-417.9905 899.0694,-427.3665 907.3044,-432.9189 923.4067,-442.4414 989.1193,-472.9502 993.6532,-475.2473 996.495,-476.8079 997.3504,-477.3146 1000.0909,-479.0609 996.1895,-527.9 996.4545,-532.9454 996.5276,-541.6674 985.5081,-679.6149 922.5752,-655.4424 914.5795,-652.7569 911.5181,-651.8755 903.626,-649.7907 895.3851,-647.8111 887.3583,-646.0765 881.2477,-645.0509 867.0568,-643.0107 862.4548,-642.5722 858.2952,-642.3759 844.6946,-642.0607 838.3467,-641.6076 825.9843,-640.4266 823.8408,-640.1187 812.0898,-638.1458 802.095,-635.9859 789.3964,-632.6292 775.9441,-628.1 766.9101,-624.8428 752.804,-619.4246 722.7537,-591.6396 747.9438,-527.9 762.2507,-480.0439 763.2488,-477.049 761.125,-474.3763 758.0367,-470.6962 750.8552,-462.6054 739.7504,-451.5309 731.2816,-444.1929 730.7207,-443.6087 717.1929,-431.5716 661.8414,-391.1299 654.6188,-385.2935 651.1127,-381.6014 635.8376,-368.3352 622.1862,-353.762 618.4641,-349.5515 608.0212,-336.3401 607.1685,-335.2061 "/>
<polyline fill="none" stroke="#000000" points="951.3499,-298.85 904.8159,-377.5008 894.5077,-393.5234 880.338,-412.6368 886.7048,-417.9905 899.0694,-427.3665 907.3044,-432.9189 923.4067,-442.4414 989.1193,-472.9502 993.6532,-475.2473 996.495,-476.8079 997.3504,-477.3146 1000.0909,-479.0609 996.1895,-527.9 996.4545,-532.9454 996.5276,-541.6674 985.5081,-679.6149 922.5752,-655.4424 914.5795,-652.7569 911.5181,-651.8755 903.626,-649.7907 895.3851,-647.8111 887.3583,-646.0765 881.2477,-645.0509 867.0568,-643.0107 862.4548,-642.5722 858.2952,-642.3759 844.6946,-642.0607 838.3467,-641.6076 825.9843,-640.4266 823.8408,-640.1187 812.0898,-638.1458 802.095,-635.9859 789.3964,-632.6292 775.9441,-628.1 766.9101,-624.8428 752.804,-619.4246 722.7537,-591.6396 747.9438,-527.9 762.2507,-480.0439 763.2488,-477.049 761.125,-474.3763 758.0367,-470.6962 750.8552,-462.6054 739.7504,-451.5309 731.2816,-444.1929 730.7207,-443.6087 717.1929,-431.5716 661.8414,-391.1299 654.6188,-385.2935 651.1127,-381.6014 635.8376,-368.3352 622.1862,-353.762 618.4641,-349.5515 608.0212,-336.3401 607.1685,-335.2061 603.7931,-330.2385 592.4214,-314.4507 589.5013,-314.8689 581.4738,-315.689 572.4801,-316.2397 557.1872,-316.5501 556.1063,-316.5056 550.0864,-316.5019 546.9598,-316.4359 539.8654,-316.4298 536.0747,-316.2713 521.5281,-316.8425 520.6762,-316.8932 512.4378,-317.2143 501.2164,-318.3339 495.1499,-319.0621 485.5607,-307.0338 466.3746,-284.02 396.2862,-182.5062 392.7339,-177.6874 370.0988,-150.5364 360.8928,-139.0167 358.862,-138.1188 351.8539,-82.0756 349.7549,-60.7974 349.6256,-57.9406 347.6384,-30.3657 339.7401,32.7958 464.1666,97.8233 466.3068,98.9961 471.1562,101.9059 477.2289,104.662 485.7795,105.7494 488.4658,106.1933 504.4696,109.1433 505.87,109.508 530.1572,116.3045 533.8415,117.5443 536.0475,118.3288 555.4142,111.1147 640.0166,110.2141 648.0822,110.6636 658.2141,111.453 663.5121,111.9829 676.9929,113.9286 703.4384,118.9125 748.9693,96.9957 759.0138,89.4878 760.2261,89.0916 778.7786,84.2555 779.8248,84.0063 790.8223,81.8739 806.0179,79.6025 811.2717,79.1681 822.5538,78.4857 838.6068,78.2287 914.0015,78.6974 985.5995,25.8493 995.4837,24.4586 1022.2884,34.5707 1103.0033,25.382 1118.2996,23.9765 1119.1219,23.9191 1128.3152,21.6997 1129.6724,21.4357 1138.5313,19.9176 1153.4202,18.058 1154.9565,17.6876 1228.5485,1.7413 1291.4736,-48.7972 1306.4957,-75.9529 1306.3585,-79.1407 1305.3104,-84.3271 1295.0542,-98.8107 1281.4806,-119.7835 1185.6538,-275.6112 1142.3894,-260.3411 1141.2894,-259.9975 1133.964,-257.8554 1128.2031,-256.2865 1111.7943,-252.4744 1058.9287,-242.329 1056.9734,-243.2334 1040.2789,-250.1897 1030.1874,-253.9223 1026.3508,-255.2511 1016.3126,-258.2611 1009.502,-259.9871 996.5894,-262.6636 980.8862,-265.1895 975.7845,-265.8905 951.3499,-298.85 "/>
<polyline fill="none" stroke="#000000" points="389.6538,-596.954 404.6009,-594.6933 411.4953,-593.9662 431.7469,-592.7538 440.3218,-592.0447 450.4597,-590.9755 460.5999,-589.2128 466.2934,-588.0931 478.125,-585.4964 485.8534,-583.2725 475.1126,-485.0723 473.5634,-457.4778 473.4664,-456.8913 472.9175,-447.003 462.6985,-353.5734 495.1499,-319.0621 485.5607,-307.0338 466.3746,-284.02 396.2862,-182.5062 392.7339,-177.6874 370.0988,-150.5364 360.8928,-139.0167 358.862,-138.1188 351.8539,-82.0756 349.7549,-60.7974 349.6256,-57.9406 347.6384,-30.3657 339.7401,32.7958 227.1102,92.4417 223.6619,94.5156 222.568,93.9146 205.7775,85.4619 197.229,81.3612 189.4256,77.9886 176.7833,72.8243 96.2454,41.8734 59.1819,-62.1658 55.9144,-70.6728 45.5766,-94.1742 11.837,-106.4483 -49.6798,-174.9815 -57.6469,-187.2939 -60.5158,-204.9989 -70.6133,-258.5551 -77.7833,-288.6814 -124.05,-342.0731 -121.9483,-366.8619 -121.7905,-369.2828 -111.9206,-387.4601 -105.3486,-400.1913 -46.674,-520.225 -51.7349,-538.9652 -38.7559,-590.37 -22.3134,-682.3944 29.1013,-716.7416 84.8117,-733.3336 91.0163,-726.368 99.3833,-717.7224 105.3755,-711.8001 113.0096,-704.6005 122.5286,-696.0634 126.7185,-692.6982 128.2185,-691.5613 134.022,-686.8502 134.5851,-686.4205 148.7159,-676.299 152.7849,-673.5901 158.4245,-670.3855 218.6124,-639.0654 230.8036,-632.1214 243.4086,-623.7432 247.1732,-620.8908 247.4424,-620.674 257.1414,-612.3702 264.0997,-605.7209 276.6784,-593.0682 279.2412,-590.37 285.287,-584.9113 286.6265,-583.5943 347.1724,-599.4497 360.4055,-603.2233 361.5795,-603.585 361.8346,-603.5057 363.5641,-603.0078 370.5312,-601.1598 389.6538,-596.954 "/>
<polyline fill="none" stroke="#000000" points="1272.4586,-707.9972 1249.991,-707.8579 1244.8029,-707.9377 1224.5646,-709.5591 1142.295,-688.6786 1170.1991,-599.9571 1178.0979,-570.2563 1180.9132,-556.9562 1181.0138,-556.5809 1186.8489,-529.0191 1228.3468,-397.0756 1241.3958,-402.7265 1242.7473,-403.2856 1254.0228,-407.7338 1264.1973,-411.3541 1280.5413,-416.2272 1290.3834,-418.7807 1291.0171,-418.9328 1300.8173,-425.1724 1311.9082,-431.6529 1317.7467,-434.7588 1319.4805,-435.6362 1431.1523,-486.4986 1444.0121,-533.2871 1442.988,-572.6549 1443.1454,-578.5773 1446.0862,-634.1974 1374.3434,-694.3926 1335.8416,-697.9426 1316.8231,-700.1471 1306.3889,-701.8466 1296.7142,-703.8763 1281.9012,-707.6802 1279.1837,-708.5045 1277.7551,-708.3724 1272.4586,-707.9972 "/>
<!-- device&#45;mapper&#45;libs&#45;&gt;Fedora Container Base -->
<g id="edge1" class="edge">
<title>device&#45;mapper&#45;libs&#45;&gt;Fedora Container Base</title>
<path fill="none" stroke="#444444" stroke-opacity="0.333333" d="M640.0383,-925.0404C633.2972,-850.8461 607.9627,-572.007 599.795,-482.1112"/>
<polygon fill="#444444" fill-opacity="0.333333" stroke="#444444" stroke-opacity="0.333333" points="603.277,-481.7537 598.8865,-472.1114 596.3058,-482.3872 603.277,-481.7537"/>
</g>
<!-- device&#45;mapper&#45;libs&#45;&gt;device&#45;mapper -->
<g id="edge2" class="edge">
<title>device&#45;mapper&#45;libs&#45;&gt;device&#45;mapper</title>
<path fill="none" stroke="#444444" stroke-opacity="0.333333" d="M645.4198,-925.0783C648.1924,-888.575 647.1322,-806.3415 643.5985,-762.709"/>
<polygon fill="#444444" fill-opacity="0.333333" stroke="#444444" stroke-opacity="0.333333" points="647.06,-762.1313 642.6477,-752.499 640.0901,-762.7805 647.06,-762.1313"/>
</g>
<!-- device&#45;mapper&#45;&gt;Fedora Container Base -->
<g id="edge31" class="edge">
<title>device&#45;mapper&#45;&gt;Fedora Container Base</title>
<path fill="none" stroke="#444444" stroke-opacity="0.333333" d="M635.634,-715.88C628.6227,-668.0555 609.7811,-539.5343 601.3807,-482.234"/>
<polygon fill="#444444" fill-opacity="0.333333" stroke="#444444" stroke-opacity="0.333333" points="604.8061,-481.4698 599.8925,-472.0833 597.8802,-482.4853 604.8061,-481.4698"/>
</g>
<!-- device&#45;mapper&#45;&gt;device&#45;mapper&#45;libs -->
<g id="edge32" class="edge">
<title>device&#45;mapper&#45;&gt;device&#45;mapper&#45;libs</title>
<path fill="none" stroke="#444444" stroke-opacity="0.333333" d="M634.6102,-752.5217C631.8376,-789.025 632.8978,-871.2585 636.4315,-914.891"/>
<polygon fill="#444444" fill-opacity="0.333333" stroke="#444444" stroke-opacity="0.333333" points="632.97,-915.4687 637.3823,-925.101 639.9399,-914.8195 632.97,-915.4687"/>
</g>
<!-- device&#45;mapper&#45;&gt;systemd -->
<g id="edge33" class="edge">
<title>device&#45;mapper&#45;&gt;systemd</title>
<path fill="none" stroke="#444444" stroke-opacity="0.333333" d="M643.6203,-716.1676C660.9313,-656.9323 715.9717,-468.5938 736.862,-397.1111"/>
<polygon fill="#444444" fill-opacity="0.333333" stroke="#444444" stroke-opacity="0.333333" points="740.2421,-398.022 739.6878,-387.4417 733.5232,-396.0584 740.2421,-398.022"/>
</g>
<!-- device&#45;mapper&#45;&gt;util&#45;linux -->
<g id="edge34" class="edge">
<title>device&#45;mapper&#45;&gt;util&#45;linux</title>
<path fill="none" stroke="#444444" stroke-opacity="0.333333" d="M555.8118,-727.5964C550.15,-727.1385 544.4623,-726.6785 538.8446,-726.2241"/>
<polygon fill="#444444" fill-opacity="0.333333" stroke="#444444" stroke-opacity="0.333333" points="539.0789,-722.7318 528.8293,-725.4142 538.5146,-729.709 539.0789,-722.7318"/>
</g>
<!-- libargon2&#45;&gt;Fedora Container Base -->
<g id="edge3" class="edge">
<title>libargon2&#45;&gt;Fedora Container Base</title>
<path fill="none" stroke="#444444" stroke-opacity="0.333333" d="M853.474,-913.2776C812.7668,-840.3118 660.7979,-567.9147 612.2506,-480.8957"/>
<polygon fill="#444444" fill-opacity="0.333333" stroke="#444444" stroke-opacity="0.333333" points="615.2947,-479.1682 607.3661,-472.1405 609.1817,-482.5787 615.2947,-479.1682"/>
</g>
<!-- dbus&#45;broker&#45;&gt;Fedora Container Base -->
<g id="edge4" class="edge">
<title>dbus&#45;broker&#45;&gt;Fedora Container Base</title>
<path fill="none" stroke="#444444" stroke-opacity="0.333333" d="M801.6161,-316.9502C759.6209,-345.1091 678.6559,-399.3984 632.232,-430.5269"/>
<polygon fill="#444444" fill-opacity="0.333333" stroke="#444444" stroke-opacity="0.333333" points="630.0627,-427.7675 623.7062,-436.2437 633.9611,-433.5814 630.0627,-427.7675"/>
</g>
<!-- dbus&#45;broker&#45;&gt;dbus&#45;common -->
<g id="edge5" class="edge">
<title>dbus&#45;broker&#45;&gt;dbus&#45;common</title>
<path fill="none" stroke="#444444" stroke-opacity="0.333333" d="M833.5701,-317.2069C844.3703,-357.1778 870.0739,-452.3045 882.9201,-499.8475"/>
<polygon fill="#444444" fill-opacity="0.333333" stroke="#444444" stroke-opacity="0.333333" points="879.6148,-501.0328 885.6022,-509.7736 886.3725,-499.2068 879.6148,-501.0328"/>
</g>
<!-- dbus&#45;broker&#45;&gt;shadow&#45;utils -->
<g id="edge6" class="edge">
<title>dbus&#45;broker&#45;&gt;shadow&#45;utils</title>
<path fill="none" stroke="#444444" stroke-opacity="0.333333" d="M780.4694,-316.9141C697.7987,-347.935 529.1893,-411.2033 440.3882,-444.5246"/>
<polygon fill="#444444" fill-opacity="0.333333" stroke="#444444" stroke-opacity="0.333333" points="439.14,-441.2546 431.007,-448.0447 441.5992,-447.8084 439.14,-441.2546"/>
</g>
<!-- dbus&#45;broker&#45;&gt;systemd -->
<g id="edge7" class="edge">
<title>dbus&#45;broker&#45;&gt;systemd</title>
<path fill="none" stroke="#444444" stroke-opacity="0.333333" d="M807.0809,-316.9746C797.1345,-325.3482 785.1676,-335.4227 774.4066,-344.482"/>
<polygon fill="#444444" fill-opacity="0.333333" stroke="#444444" stroke-opacity="0.333333" points="771.862,-342.049 766.4661,-351.1668 776.3703,-347.404 771.862,-342.049"/>
</g>
<!-- dbus&#45;common&#45;&gt;Fedora Container Base -->
<g id="edge8" class="edge">
<title>dbus&#45;common&#45;&gt;Fedora Container Base</title>
<path fill="none" stroke="#444444" stroke-opacity="0.333333" d="M818.7605,-509.8196C773.737,-498.4724 715.8364,-483.8797 670.5229,-472.4594"/>
<polygon fill="#444444" fill-opacity="0.333333" stroke="#444444" stroke-opacity="0.333333" points="671.3137,-469.0493 660.7616,-469.9993 669.603,-475.8371 671.3137,-469.0493"/>
</g>
<!-- dbus&#45;common&#45;&gt;dbus&#45;common -->
<g id="edge9" class="edge">
<title>dbus&#45;common&#45;&gt;dbus&#45;common</title>
<path fill="none" stroke="#444444" stroke-opacity="0.333333" d="M968.0655,-533.9233C978.815,-532.9312 986,-530.9234 986,-527.9 986,-525.9631 983.0513,-524.4431 978.1057,-523.3398"/>
<polygon fill="#444444" fill-opacity="0.333333" stroke="#444444" stroke-opacity="0.333333" points="978.4657,-519.8554 968.0655,-521.8767 977.4562,-526.7823 978.4657,-519.8554"/>
</g>
<!-- dbus&#45;common&#45;&gt;systemd -->
<g id="edge10" class="edge">
<title>dbus&#45;common&#45;&gt;systemd</title>
<path fill="none" stroke="#444444" stroke-opacity="0.333333" d="M873.8104,-509.6985C848.0761,-481.6329 798.5938,-427.668 769.0171,-395.4119"/>
<polygon fill="#444444" fill-opacity="0.333333" stroke="#444444" stroke-opacity="0.333333" points="771.2911,-392.7131 761.9531,-387.7079 766.1317,-397.4439 771.2911,-392.7131"/>
</g>
<!-- shadow&#45;utils&#45;&gt;Fedora Container Base -->
<g id="edge11" class="edge">
<title>shadow&#45;utils&#45;&gt;Fedora Container Base</title>
<path fill="none" stroke="#444444" stroke-opacity="0.333333" d="M453.2657,-462.1582C455.977,-462.0044 458.7238,-461.8486 461.4981,-461.6912"/>
<polygon fill="#444444" fill-opacity="0.333333" stroke="#444444" stroke-opacity="0.333333" points="461.8627,-465.1762 471.6484,-461.1153 461.4662,-458.1874 461.8627,-465.1762"/>
</g>
<!-- shadow&#45;utils&#45;&gt;shadow&#45;utils -->
<g id="edge12" class="edge">
<title>shadow&#45;utils&#45;&gt;shadow&#45;utils</title>
<path fill="none" stroke="#444444" stroke-opacity="0.333333" d="M453.5556,-472.2834C464.099,-471.33 471.23,-469.2889 471.23,-466.16 471.23,-464.2044 468.4444,-462.6738 463.7812,-461.568"/>
<polygon fill="#444444" fill-opacity="0.333333" stroke="#444444" stroke-opacity="0.333333" points="463.9638,-458.0564 453.5556,-460.0366 462.9269,-464.9792 463.9638,-458.0564"/>
</g>
<!-- shadow&#45;utils&#45;&gt;libsemanage -->
<g id="edge13" class="edge">
<title>shadow&#45;utils&#45;&gt;libsemanage</title>
<path fill="none" stroke="#444444" stroke-opacity="0.333333" d="M345.3164,-484.2212C299.4877,-506.3447 221.8348,-543.8312 172.134,-567.8239"/>
<polygon fill="#444444" fill-opacity="0.333333" stroke="#444444" stroke-opacity="0.333333" points="170.3728,-564.7876 162.8888,-572.287 173.416,-571.0915 170.3728,-564.7876"/>
</g>
<!-- systemd&#45;&gt;Fedora Container Base -->
<g id="edge14" class="edge">
<title>systemd&#45;&gt;Fedora Container Base</title>
<path fill="none" stroke="#444444" stroke-opacity="0.333333" d="M713.3096,-387.4131C690.9008,-400.2667 660.7063,-417.5861 636.7312,-431.3381"/>
<polygon fill="#444444" fill-opacity="0.333333" stroke="#444444" stroke-opacity="0.333333" points="634.8091,-428.4056 627.8763,-436.4172 638.2921,-434.4777 634.8091,-428.4056"/>
</g>
<!-- systemd&#45;&gt;shadow&#45;utils -->
<g id="edge15" class="edge">
<title>systemd&#45;&gt;shadow&#45;utils</title>
<path fill="none" stroke="#444444" stroke-opacity="0.333333" d="M683.1435,-385.7827C621.5354,-402.2663 526.7906,-427.6158 460.2101,-445.4298"/>
<polygon fill="#444444" fill-opacity="0.333333" stroke="#444444" stroke-opacity="0.333333" points="458.9429,-442.1456 450.1873,-448.1114 460.7522,-448.9078 458.9429,-442.1456"/>
</g>
<!-- systemd&#45;&gt;systemd -->
<g id="edge16" class="edge">
<title>systemd&#45;&gt;systemd</title>
<path fill="none" stroke="#444444" stroke-opacity="0.333333" d="M806.6767,-375.5313C817.2113,-374.6703 824.51,-372.5698 824.51,-369.23 824.51,-367.0904 821.5146,-365.4595 816.592,-364.3372"/>
<polygon fill="#444444" fill-opacity="0.333333" stroke="#444444" stroke-opacity="0.333333" points="817.0696,-360.87 806.6767,-362.9287 816.0851,-367.8004 817.0696,-360.87"/>
</g>
<!-- systemd&#45;&gt;util&#45;linux -->
<g id="edge17" class="edge">
<title>systemd&#45;&gt;util&#45;linux</title>
<path fill="none" stroke="#444444" stroke-opacity="0.333333" d="M730.3031,-387.6045C683.7533,-445.7627 539.5157,-625.9699 485.1404,-693.9051"/>
<polygon fill="#444444" fill-opacity="0.333333" stroke="#444444" stroke-opacity="0.333333" points="482.1877,-691.9931 478.6713,-701.9874 487.6527,-696.3673 482.1877,-691.9931"/>
</g>
<!-- systemd&#45;&gt;acl -->
<g id="edge18" class="edge">
<title>systemd&#45;&gt;acl</title>
<path fill="none" stroke="#444444" stroke-opacity="0.333333" d="M740.3686,-350.8409C725.7975,-293.1104 680.8971,-115.2157 663.422,-45.9797"/>
<polygon fill="#444444" fill-opacity="0.333333" stroke="#444444" stroke-opacity="0.333333" points="666.7963,-45.0465 660.9554,-36.2071 660.0092,-46.7596 666.7963,-45.0465"/>
</g>
<!-- systemd&#45;&gt;cryptsetup&#45;libs -->
<g id="edge19" class="edge">
<title>systemd&#45;&gt;cryptsetup&#45;libs</title>
<path fill="none" stroke="#444444" stroke-opacity="0.333333" d="M748.0396,-387.388C758.3835,-449.3841 792.3561,-652.9988 804.9061,-728.2173"/>
<polygon fill="#444444" fill-opacity="0.333333" stroke="#444444" stroke-opacity="0.333333" points="801.4989,-729.0637 806.5969,-738.3513 808.4034,-727.9116 801.4989,-729.0637"/>
</g>
<!-- systemd&#45;&gt;dbus -->
<g id="edge20" class="edge">
<title>systemd&#45;&gt;dbus</title>
<path fill="none" stroke="#444444" stroke-opacity="0.333333" d="M771.4719,-351.1419C839.2754,-304.7949 1019.2339,-181.7842 1095.2898,-129.7961"/>
<polygon fill="#444444" fill-opacity="0.333333" stroke="#444444" stroke-opacity="0.333333" points="1097.3274,-132.6429 1103.608,-124.1103 1093.3772,-126.864 1097.3274,-132.6429"/>
</g>
<!-- systemd&#45;&gt;iptables&#45;libs -->
<g id="edge21" class="edge">
<title>systemd&#45;&gt;iptables&#45;libs</title>
<path fill="none" stroke="#444444" stroke-opacity="0.333333" d="M806.7379,-373.4168C845.4296,-376.0411 895.7973,-379.4573 938.0405,-382.3225"/>
<polygon fill="#444444" fill-opacity="0.333333" stroke="#444444" stroke-opacity="0.333333" points="937.8194,-385.8154 948.0333,-383.0003 938.2931,-378.8315 937.8194,-385.8154"/>
</g>
<!-- systemd&#45;&gt;kmod&#45;libs -->
<g id="edge22" class="edge">
<title>systemd&#45;&gt;kmod&#45;libs</title>
<path fill="none" stroke="#444444" stroke-opacity="0.333333" d="M724.0861,-351.0149C684.7379,-316.7605 599.6871,-242.7201 555.2053,-203.9968"/>
<polygon fill="#444444" fill-opacity="0.333333" stroke="#444444" stroke-opacity="0.333333" points="557.491,-201.3461 547.6505,-197.42 552.8948,-206.6258 557.491,-201.3461"/>
</g>
<!-- systemd&#45;&gt;libseccomp -->
<g id="edge23" class="edge">
<title>systemd&#45;&gt;libseccomp</title>
<path fill="none" stroke="#444444" stroke-opacity="0.333333" d="M759.2279,-350.9188C789.9746,-311.32 862.7435,-217.6009 898.3765,-171.709"/>
<polygon fill="#444444" fill-opacity="0.333333" stroke="#444444" stroke-opacity="0.333333" points="901.2109,-173.7655 904.5793,-163.7204 895.6819,-169.4725 901.2109,-173.7655"/>
</g>
<!-- systemd&#45;&gt;qrencode&#45;libs -->
<g id="edge24" class="edge">
<title>systemd&#45;&gt;qrencode&#45;libs</title>
<path fill="none" stroke="#444444" stroke-opacity="0.333333" d="M747.8018,-350.9072C756.0216,-296.9612 780.1748,-138.4443 790.0394,-73.7032"/>
<polygon fill="#444444" fill-opacity="0.333333" stroke="#444444" stroke-opacity="0.333333" points="793.5025,-74.21 791.5488,-63.7968 786.5823,-73.1555 793.5025,-74.21"/>
</g>
<!-- systemd&#45;&gt;systemd&#45;pam -->
<g id="edge25" class="edge">
<title>systemd&#45;&gt;systemd&#45;pam</title>
<path fill="none" stroke="#444444" stroke-opacity="0.333333" d="M735.3988,-351.008C699.957,-295.7417 577.4505,-130.306 524.6252,-65.7621"/>
<polygon fill="#444444" fill-opacity="0.333333" stroke="#444444" stroke-opacity="0.333333" points="527.0199,-63.1664 517.9456,-57.6977 521.629,-67.6316 527.0199,-63.1664"/>
</g>
<!-- systemd&#45;&gt;systemd&#45;rpm&#45;macros -->
<g id="edge26" class="edge">
<title>systemd&#45;&gt;systemd&#45;rpm&#45;macros</title>
<path fill="none" stroke="#444444" stroke-opacity="0.333333" d="M792.3254,-387.2779C891.2529,-425.0124 1119.6222,-512.121 1226.4568,-552.8716"/>
<polygon fill="#444444" fill-opacity="0.333333" stroke="#444444" stroke-opacity="0.333333" points="1225.5087,-556.2559 1236.0994,-556.5497 1228.0034,-549.7155 1225.5087,-556.2559"/>
</g>
<!-- libsemanage&#45;&gt;Fedora Container Base -->
<g id="edge38" class="edge">
<title>libsemanage&#45;&gt;Fedora Container Base</title>
<path fill="none" stroke="#444444" stroke-opacity="0.333333" d="M188.0827,-572.2598C277.0852,-546.533 439.415,-499.6104 530.5671,-473.2623"/>
<polygon fill="#444444" fill-opacity="0.333333" stroke="#444444" stroke-opacity="0.333333" points="531.6059,-476.6054 540.2407,-470.4661 529.662,-469.8807 531.6059,-476.6054"/>
</g>
<!-- libsemanage&#45;&gt;libsemanage -->
<g id="edge39" class="edge">
<title>libsemanage&#45;&gt;libsemanage</title>
<path fill="none" stroke="#444444" stroke-opacity="0.333333" d="M201.0025,-596.4274C211.7309,-595.4477 218.93,-593.4286 218.93,-590.37 218.93,-588.4106 215.9755,-586.8778 211.0313,-585.7715"/>
<polygon fill="#444444" fill-opacity="0.333333" stroke="#444444" stroke-opacity="0.333333" points="211.4023,-582.2887 201.0025,-584.3126 210.3945,-589.2158 211.4023,-582.2887"/>
</g>
<!-- util&#45;linux&#45;&gt;Fedora Container Base -->
<g id="edge27" class="edge">
<title>util&#45;linux&#45;&gt;Fedora Container Base</title>
<path fill="none" stroke="#444444" stroke-opacity="0.333333" d="M473.2606,-701.8837C496.2592,-655.8985 556.5736,-535.3013 583.6912,-481.0805"/>
<polygon fill="#444444" fill-opacity="0.333333" stroke="#444444" stroke-opacity="0.333333" points="586.8586,-482.5718 588.2014,-472.0624 580.598,-479.4406 586.8586,-482.5718"/>
</g>
<!-- util&#45;linux&#45;&gt;util&#45;linux -->
<g id="edge28" class="edge">
<title>util&#45;linux&#45;&gt;util&#45;linux</title>
<path fill="none" stroke="#444444" stroke-opacity="0.333333" d="M528.7897,-726.4253C539.3515,-725.5313 546.61,-723.4495 546.61,-720.18 546.61,-718.0855 543.6311,-716.4784 538.7132,-715.3587"/>
<polygon fill="#444444" fill-opacity="0.333333" stroke="#444444" stroke-opacity="0.333333" points="539.1855,-711.8907 528.7897,-713.9347 538.1911,-718.8198 539.1855,-711.8907"/>
</g>
<!-- util&#45;linux&#45;&gt;libfdisk -->
<g id="edge29" class="edge">
<title>util&#45;linux&#45;&gt;libfdisk</title>
<path fill="none" stroke="#444444" stroke-opacity="0.333333" d="M451.9814,-738.2473C427.7682,-774.3164 373.3473,-855.3843 345.1419,-897.4004"/>
<polygon fill="#444444" fill-opacity="0.333333" stroke="#444444" stroke-opacity="0.333333" points="342.2091,-895.4897 339.5414,-905.7432 348.021,-899.3913 342.2091,-895.4897"/>
</g>
<!-- util&#45;linux&#45;&gt;libutempter -->
<g id="edge30" class="edge">
<title>util&#45;linux&#45;&gt;libutempter</title>
<path fill="none" stroke="#444444" stroke-opacity="0.333333" d="M399.5435,-719.2269C377.9607,-718.9084 353.6673,-718.5498 331.1477,-718.2174"/>
<polygon fill="#444444" fill-opacity="0.333333" stroke="#444444" stroke-opacity="0.333333" points="330.9923,-714.7148 320.9417,-718.0667 330.8889,-721.714 330.9923,-714.7148"/>
</g>
<!-- acl&#45;&gt;Fedora Container Base -->
<g id="edge50" class="edge">
<title>acl&#45;&gt;Fedora Container Base</title>
<path fill="none" stroke="#444444" stroke-opacity="0.333333" d="M653.895,-36.1789C644.6833,-104.112 612.2384,-343.3817 601.0593,-425.8241"/>
<polygon fill="#444444" fill-opacity="0.333333" stroke="#444444" stroke-opacity="0.333333" points="597.5911,-425.3539 599.7156,-435.7335 604.5276,-426.2945 597.5911,-425.3539"/>
</g>
<!-- cryptsetup&#45;libs&#45;&gt;Fedora Container Base -->
<g id="edge51" class="edge">
<title>cryptsetup&#45;libs&#45;&gt;Fedora Container Base</title>
<path fill="none" stroke="#444444" stroke-opacity="0.333333" d="M796.9707,-738.4543C761.0526,-687.2984 658.3058,-540.9623 615.8958,-480.5604"/>
<polygon fill="#444444" fill-opacity="0.333333" stroke="#444444" stroke-opacity="0.333333" points="618.7024,-478.4666 610.0916,-472.2937 612.9735,-482.4891 618.7024,-478.4666"/>
</g>
<!-- cryptsetup&#45;libs&#45;&gt;device&#45;mapper&#45;libs -->
<g id="edge52" class="edge">
<title>cryptsetup&#45;libs&#45;&gt;device&#45;mapper&#45;libs</title>
<path fill="none" stroke="#444444" stroke-opacity="0.333333" d="M793.2134,-774.7271C763.1657,-808.1639 699.2315,-879.3094 664.8022,-917.6221"/>
<polygon fill="#444444" fill-opacity="0.333333" stroke="#444444" stroke-opacity="0.333333" points="662.0068,-915.4964 657.926,-925.2738 667.2134,-920.1753 662.0068,-915.4964"/>
</g>
<!-- cryptsetup&#45;libs&#45;&gt;libargon2 -->
<g id="edge53" class="edge">
<title>cryptsetup&#45;libs&#45;&gt;libargon2</title>
<path fill="none" stroke="#444444" stroke-opacity="0.333333" d="M815.1925,-774.5327C824.6052,-805.0436 843.719,-866.9995 854.9036,-903.2535"/>
<polygon fill="#444444" fill-opacity="0.333333" stroke="#444444" stroke-opacity="0.333333" points="851.6745,-904.6596 857.967,-913.1834 858.3634,-902.596 851.6745,-904.6596"/>
</g>
<!-- dbus&#45;&gt;dbus&#45;broker -->
<g id="edge54" class="edge">
<title>dbus&#45;&gt;dbus&#45;broker</title>
<path fill="none" stroke="#444444" stroke-opacity="0.333333" d="M1101.646,-124.2063C1046.8961,-159.2263 926.6564,-236.136 865.6626,-275.1498"/>
<polygon fill="#444444" fill-opacity="0.333333" stroke="#444444" stroke-opacity="0.333333" points="863.6464,-272.2846 857.1083,-280.6215 867.4183,-278.1815 863.6464,-272.2846"/>
</g>
<!-- iptables&#45;libs&#45;&gt;Fedora Container Base -->
<g id="edge55" class="edge">
<title>iptables&#45;libs&#45;&gt;Fedora Container Base</title>
<path fill="none" stroke="#444444" stroke-opacity="0.333333" d="M947.6821,-399.4863C877.9129,-410.3374 772.8173,-426.6828 695.9138,-438.6434"/>
<polygon fill="#444444" fill-opacity="0.333333" stroke="#444444" stroke-opacity="0.333333" points="695.0749,-435.2317 685.7316,-440.2271 696.1507,-442.1486 695.0749,-435.2317"/>
</g>
<!-- iptables&#45;libs&#45;&gt;libpcap -->
<g id="edge56" class="edge">
<title>iptables&#45;libs&#45;&gt;libpcap</title>
<path fill="none" stroke="#444444" stroke-opacity="0.333333" d="M1030.3573,-406.1764C1042.9486,-432.3251 1066.2655,-480.7479 1080.9661,-511.2768"/>
<polygon fill="#444444" fill-opacity="0.333333" stroke="#444444" stroke-opacity="0.333333" points="1077.9197,-513.0177 1085.4117,-520.5091 1084.2266,-509.9808 1077.9197,-513.0177"/>
</g>
<!-- kmod&#45;libs&#45;&gt;Fedora Container Base -->
<g id="edge57" class="edge">
<title>kmod&#45;libs&#45;&gt;Fedora Container Base</title>
<path fill="none" stroke="#444444" stroke-opacity="0.333333" d="M531.4124,-197.2858C543.4046,-244.0512 575.5835,-369.5373 590.037,-425.901"/>
<polygon fill="#444444" fill-opacity="0.333333" stroke="#444444" stroke-opacity="0.333333" points="586.7262,-427.0807 592.6006,-435.8978 593.5068,-425.3418 586.7262,-427.0807"/>
</g>
<!-- libseccomp&#45;&gt;Fedora Container Base -->
<g id="edge58" class="edge">
<title>libseccomp&#45;&gt;Fedora Container Base</title>
<path fill="none" stroke="#444444" stroke-opacity="0.333333" d="M899.6009,-163.8454C844.6331,-216.5924 686.2761,-368.5512 623.4124,-428.875"/>
<polygon fill="#444444" fill-opacity="0.333333" stroke="#444444" stroke-opacity="0.333333" points="620.678,-426.6482 615.886,-436.0974 625.5247,-431.6989 620.678,-426.6482"/>
</g>
<!-- qrencode&#45;libs&#45;&gt;Fedora Container Base -->
<g id="edge59" class="edge">
<title>qrencode&#45;libs&#45;&gt;Fedora Container Base</title>
<path fill="none" stroke="#444444" stroke-opacity="0.333333" d="M785.5879,-63.7466C754.3708,-128.4262 648.0719,-348.67 610.5154,-426.4844"/>
<polygon fill="#444444" fill-opacity="0.333333" stroke="#444444" stroke-opacity="0.333333" points="607.2796,-425.1365 606.085,-435.6638 613.5838,-428.1792 607.2796,-425.1365"/>
</g>
<!-- systemd&#45;pam&#45;&gt;Fedora Container Base -->
<g id="edge60" class="edge">
<title>systemd&#45;pam&#45;&gt;Fedora Container Base</title>
<path fill="none" stroke="#444444" stroke-opacity="0.333333" d="M504.4608,-57.701C519.7474,-122.9951 572.1921,-347.0025 590.705,-426.077"/>
<polygon fill="#444444" fill-opacity="0.333333" stroke="#444444" stroke-opacity="0.333333" points="587.2995,-426.885 592.9869,-435.8239 594.1152,-425.2893 587.2995,-426.885"/>
</g>
<!-- systemd&#45;pam&#45;&gt;systemd -->
<g id="edge61" class="edge">
<title>systemd&#45;pam&#45;&gt;systemd</title>
<path fill="none" stroke="#444444" stroke-opacity="0.333333" d="M509.8412,-57.852C545.283,-113.1183 667.7895,-278.554 720.6148,-343.0979"/>
<polygon fill="#444444" fill-opacity="0.333333" stroke="#444444" stroke-opacity="0.333333" points="718.2201,-345.6936 727.2944,-351.1623 723.611,-341.2284 718.2201,-345.6936"/>
</g>
<!-- libfdisk&#45;&gt;Fedora Container Base -->
<g id="edge62" class="edge">
<title>libfdisk&#45;&gt;Fedora Container Base</title>
<path fill="none" stroke="#444444" stroke-opacity="0.333333" d="M337.8512,-905.6419C379.2486,-833.56 532.334,-567.0054 581.7508,-480.9601"/>
<polygon fill="#444444" fill-opacity="0.333333" stroke="#444444" stroke-opacity="0.333333" points="584.9147,-482.4788 586.8599,-472.0641 578.8445,-478.9926 584.9147,-482.4788"/>
</g>
<!-- libutempter&#45;&gt;Fedora Container Base -->
<g id="edge63" class="edge">
<title>libutempter&#45;&gt;Fedora Container Base</title>
<path fill="none" stroke="#444444" stroke-opacity="0.333333" d="M276.4189,-698.9781C336.9181,-652.7792 497.2045,-530.3799 565.5951,-478.155"/>
<polygon fill="#444444" fill-opacity="0.333333" stroke="#444444" stroke-opacity="0.333333" points="568.0274,-480.7014 573.851,-471.8505 563.779,-475.138 568.0274,-480.7014"/>
</g>
<!-- libutempter&#45;&gt;shadow&#45;utils -->
<g id="edge64" class="edge">
<title>libutempter&#45;&gt;shadow&#45;utils</title>
<path fill="none" stroke="#444444" stroke-opacity="0.333333" d="M262.0886,-699.0159C284.6126,-655.5412 341.9899,-544.7945 368.6802,-493.2781"/>
<polygon fill="#444444" fill-opacity="0.333333" stroke="#444444" stroke-opacity="0.333333" points="371.7989,-494.8669 373.2915,-484.3777 365.5835,-491.6467 371.7989,-494.8669"/>
</g>
<!-- libpcap&#45;&gt;Fedora Container Base -->
<g id="edge35" class="edge">
<title>libpcap&#45;&gt;Fedora Container Base</title>
<path fill="none" stroke="#444444" stroke-opacity="0.333333" d="M1034.255,-528.5348C948.9356,-513.9812 791.6735,-487.1559 690.896,-469.9656"/>
<polygon fill="#444444" fill-opacity="0.333333" stroke="#444444" stroke-opacity="0.333333" points="691.4673,-466.5125 681.0211,-468.2811 690.2902,-473.4129 691.4673,-466.5125"/>
</g>
<!-- libicu&#45;&gt;Fedora Container Base -->
<g id="edge36" class="edge">
<title>libicu&#45;&gt;Fedora Container Base</title>
<path fill="none" stroke="#444444" stroke-opacity="0.333333" d="M227.3383,-85.9469C290.236,-148.5286 498.5785,-355.8243 571.6463,-428.5249"/>
<polygon fill="#444444" fill-opacity="0.333333" stroke="#444444" stroke-opacity="0.333333" points="569.5235,-431.3501 579.0811,-435.9223 574.4608,-426.3879 569.5235,-431.3501"/>
</g>
<!-- libicu&#45;&gt;libicu -->
<g id="edge37" class="edge">
<title>libicu&#45;&gt;libicu</title>
<path fill="none" stroke="#444444" stroke-opacity="0.333333" d="M264.2133,-74.267C274.7141,-73.498 282.14,-71.3556 282.14,-67.84 282.14,-65.5878 279.0924,-63.8992 274.1411,-62.7742"/>
<polygon fill="#444444" fill-opacity="0.333333" stroke="#444444" stroke-opacity="0.333333" points="274.5961,-59.3039 264.2133,-61.413 273.6451,-66.239 274.5961,-59.3039"/>
</g>
<!-- libpq&#45;&gt;Fedora Container Base -->
<g id="edge40" class="edge">
<title>libpq&#45;&gt;Fedora Container Base</title>
<path fill="none" stroke="#444444" stroke-opacity="0.333333" d="M126.982,-257.9412C221.516,-297.3521 445.803,-390.8565 546.6202,-432.8868"/>
<polygon fill="#444444" fill-opacity="0.333333" stroke="#444444" stroke-opacity="0.333333" points="545.4059,-436.1725 555.9827,-436.79 548.0995,-429.7115 545.4059,-436.1725"/>
</g>
<!-- postgresql&#45;&gt;Fedora Container Base -->
<g id="edge41" class="edge">
<title>postgresql&#45;&gt;Fedora Container Base</title>
<path fill="none" stroke="#444444" stroke-opacity="0.333333" d="M128.0562,-393.5075C217.5497,-405.0441 381.181,-426.1378 489.5861,-440.1123"/>
<polygon fill="#444444" fill-opacity="0.333333" stroke="#444444" stroke-opacity="0.333333" points="489.208,-443.5925 499.5734,-441.3998 490.103,-436.6499 489.208,-443.5925"/>
</g>
<!-- postgresql&#45;&gt;libpq -->
<g id="edge42" class="edge">
<title>postgresql&#45;&gt;libpq</title>
<path fill="none" stroke="#444444" stroke-opacity="0.333333" d="M66.4471,-367.1315C69.7981,-342.3199 75.8491,-297.518 79.8038,-268.2367"/>
<polygon fill="#444444" fill-opacity="0.333333" stroke="#444444" stroke-opacity="0.333333" points="83.2871,-268.5954 81.1571,-258.2169 76.35,-267.6584 83.2871,-268.5954"/>
</g>
<!-- postgresql&#45;server&#45;&gt;Fedora Container Base -->
<g id="edge43" class="edge">
<title>postgresql&#45;server&#45;&gt;Fedora Container Base</title>
<path fill="none" stroke="#444444" stroke-opacity="0.333333" d="M331.8682,-302.0489C386.3707,-333.2548 498.1615,-397.2617 557.7673,-431.3895"/>
<polygon fill="#444444" fill-opacity="0.333333" stroke="#444444" stroke-opacity="0.333333" points="556.1022,-434.4692 566.5195,-436.4007 559.5804,-428.3945 556.1022,-434.4692"/>
</g>
<!-- postgresql&#45;server&#45;&gt;shadow&#45;utils -->
<g id="edge44" class="edge">
<title>postgresql&#45;server&#45;&gt;shadow&#45;utils</title>
<path fill="none" stroke="#444444" stroke-opacity="0.333333" d="M308.5771,-302.1502C323.0671,-334.1988 353.2817,-401.027 370.3313,-438.7369"/>
<polygon fill="#444444" fill-opacity="0.333333" stroke="#444444" stroke-opacity="0.333333" points="367.2571,-440.4331 374.5661,-448.1032 373.6354,-437.5493 367.2571,-440.4331"/>
</g>
<!-- postgresql&#45;server&#45;&gt;systemd -->
<g id="edge45" class="edge">
<title>postgresql&#45;server&#45;&gt;systemd</title>
<path fill="none" stroke="#444444" stroke-opacity="0.333333" d="M394.4028,-302.0388C477.6946,-318.001 597.512,-340.9631 673.2853,-355.4845"/>
<polygon fill="#444444" fill-opacity="0.333333" stroke="#444444" stroke-opacity="0.333333" points="672.7378,-358.9432 683.2178,-357.388 674.0553,-352.0683 672.7378,-358.9432"/>
</g>
<!-- postgresql&#45;server&#45;&gt;libicu -->
<g id="edge46" class="edge">
<title>postgresql&#45;server&#45;&gt;libicu</title>
<path fill="none" stroke="#444444" stroke-opacity="0.333333" d="M292.7579,-265.9604C276.7909,-228.129 239.7437,-140.3509 220.78,-95.4194"/>
<polygon fill="#444444" fill-opacity="0.333333" stroke="#444444" stroke-opacity="0.333333" points="223.9177,-93.8523 216.8046,-86.0002 217.4685,-96.5742 223.9177,-93.8523"/>
</g>
<!-- postgresql&#45;server&#45;&gt;libpq -->
<g id="edge47" class="edge">
<title>postgresql&#45;server&#45;&gt;libpq</title>
<path fill="none" stroke="#444444" stroke-opacity="0.333333" d="M211.9089,-265.9988C190.2793,-261.593 167.5543,-256.964 147.3419,-252.8468"/>
<polygon fill="#444444" fill-opacity="0.333333" stroke="#444444" stroke-opacity="0.333333" points="147.8273,-249.3739 137.3299,-250.8074 146.43,-256.233 147.8273,-249.3739"/>
</g>
<!-- postgresql&#45;server&#45;&gt;postgresql -->
<g id="edge48" class="edge">
<title>postgresql&#45;server&#45;&gt;postgresql</title>
<path fill="none" stroke="#444444" stroke-opacity="0.333333" d="M258.12,-302.1179C218.243,-319.1953 158.3676,-344.837 115.669,-363.1227"/>
<polygon fill="#444444" fill-opacity="0.333333" stroke="#444444" stroke-opacity="0.333333" points="114.1066,-359.9843 106.292,-367.1384 116.8624,-366.419 114.1066,-359.9843"/>
</g>
<!-- postgresql&#45;server&#45;&gt;postgresql&#45;server -->
<g id="edge49" class="edge">
<title>postgresql&#45;server&#45;&gt;postgresql&#45;server</title>
<path fill="none" stroke="#444444" stroke-opacity="0.333333" d="M444.4034,-289.1088C455.5241,-287.9838 462.38,-286.2876 462.38,-284.02 462.38,-282.5673 459.5663,-281.3491 454.6202,-280.3654"/>
<polygon fill="#444444" fill-opacity="0.333333" stroke="#444444" stroke-opacity="0.333333" points="454.7929,-276.8554 444.4034,-278.9312 453.8197,-283.7874 454.7929,-276.8554"/>
</g>
<!-- Fedora Container Base -->
<g id="node1" class="node">
<title>Fedora Container Base</title>
<ellipse fill="none" stroke="#000000" cx="597.24" cy="-453.99" rx="136.5" ry="18"/>
<text text-anchor="middle" x="597.24" y="-450.29" font-family="Helvetica,sans-Serif" font-weight="bold" font-size="14.00" fill="#000000">Fedora Container Base (201.6 MB)</text>
</g>
<!-- device&#45;mapper&#45;libs -->
<g id="node2" class="node">
<title>device&#45;mapper&#45;libs</title>
<text text-anchor="middle" x="641.7" y="-939.63" font-family="Helvetica,sans-Serif" font-weight="bold" font-size="14.00" fill="#000000">device&#45;mapper&#45;libs (414.2 kB)</text>
</g>
<!-- device&#45;mapper -->
<g id="node3" class="node">
<title>device&#45;mapper</title>
<text text-anchor="middle" x="638.33" y="-730.57" font-family="Helvetica,sans-Serif" font-weight="bold" font-size="14.00" fill="#000000">device&#45;mapper (350.0 kB)</text>
</g>
<!-- libargon2 -->
<g id="node4" class="node">
<title>libargon2</title>
<text text-anchor="middle" x="863.59" y="-927.71" font-family="Helvetica,sans-Serif" font-weight="bold" font-size="14.00" fill="#000000">libargon2 (54.9 kB)</text>
</g>
<!-- dbus&#45;broker -->
<g id="node5" class="node">
<title>dbus&#45;broker</title>
<text text-anchor="middle" x="828.61" y="-295.15" font-family="Helvetica,sans-Serif" font-weight="bold" font-size="14.00" fill="#000000">dbus&#45;broker (423.2 kB)</text>
</g>
<!-- dbus&#45;common -->
<g id="node6" class="node">
<title>dbus&#45;common</title>
<text text-anchor="middle" x="890.5" y="-524.2" font-family="Helvetica,sans-Serif" font-weight="bold" font-size="14.00" fill="#000000">dbus&#45;common (11.2 kB)</text>
</g>
<!-- shadow&#45;utils -->
<g id="node7" class="node">
<title>shadow&#45;utils</title>
<text text-anchor="middle" x="382.73" y="-462.46" font-family="Helvetica,sans-Serif" font-weight="bold" font-size="14.00" fill="#000000">shadow&#45;utils (4.0 MB)</text>
</g>
<!-- systemd -->
<g id="node8" class="node">
<title>systemd</title>
<text text-anchor="middle" x="745.01" y="-365.53" font-family="Helvetica,sans-Serif" font-weight="bold" font-size="14.00" fill="#000000">systemd (11.9 MB)</text>
</g>
<!-- libsemanage -->
<g id="node9" class="node">
<title>libsemanage</title>
<text text-anchor="middle" x="125.43" y="-586.67" font-family="Helvetica,sans-Serif" font-weight="bold" font-size="14.00" fill="#000000">libsemanage (304.6 kB)</text>
</g>
<!-- util&#45;linux -->
<g id="node10" class="node">
<title>util&#45;linux</title>
<text text-anchor="middle" x="464.11" y="-716.48" font-family="Helvetica,sans-Serif" font-weight="bold" font-size="14.00" fill="#000000">util&#45;linux (13.2 MB)</text>
</g>
<!-- acl -->
<g id="node11" class="node">
<title>acl</title>
<text text-anchor="middle" x="656.36" y="-14.3" font-family="Helvetica,sans-Serif" font-weight="bold" font-size="14.00" fill="#000000">acl (212.0 kB)</text>
</g>
<!-- cryptsetup&#45;libs -->
<g id="node12" class="node">
<title>cryptsetup&#45;libs</title>
<text text-anchor="middle" x="809.62" y="-752.77" font-family="Helvetica,sans-Serif" font-weight="bold" font-size="14.00" fill="#000000">cryptsetup&#45;libs (1.8 MB)</text>
</g>
<!-- dbus -->
<g id="node13" class="node">
<title>dbus</title>
<text text-anchor="middle" x="1130" y="-102.37" font-family="Helvetica,sans-Serif" font-weight="bold" font-size="14.00" fill="#000000">dbus (0.0 B)</text>
</g>
<!-- iptables&#45;libs -->
<g id="node14" class="node">
<title>iptables&#45;libs</title>
<text text-anchor="middle" x="1021.6" y="-384.29" font-family="Helvetica,sans-Serif" font-weight="bold" font-size="14.00" fill="#000000">iptables&#45;libs (141.5 kB)</text>
</g>
<!-- kmod&#45;libs -->
<g id="node15" class="node">
<title>kmod&#45;libs</title>
<text text-anchor="middle" x="526.79" y="-175.56" font-family="Helvetica,sans-Serif" font-weight="bold" font-size="14.00" fill="#000000">kmod&#45;libs (197.4 kB)</text>
</g>
<!-- libseccomp -->
<g id="node16" class="node">
<title>libseccomp</title>
<text text-anchor="middle" x="918.75" y="-141.77" font-family="Helvetica,sans-Serif" font-weight="bold" font-size="14.00" fill="#000000">libseccomp (347.1 kB)</text>
</g>
<!-- qrencode&#45;libs -->
<g id="node17" class="node">
<title>qrencode&#45;libs</title>
<text text-anchor="middle" x="794.31" y="-41.975" font-family="Helvetica,sans-Serif" font-weight="bold" font-size="14.00" fill="#000000">qrencode&#45;libs (159.3 kB)</text>
</g>
<!-- systemd&#45;pam -->
<g id="node18" class="node">
<title>systemd&#45;pam</title>
<text text-anchor="middle" x="500.23" y="-35.93" font-family="Helvetica,sans-Serif" font-weight="bold" font-size="14.00" fill="#000000">systemd&#45;pam (335.8 kB)</text>
</g>
<!-- systemd&#45;rpm&#45;macros -->
<g id="node19" class="node">
<title>systemd&#45;rpm&#45;macros</title>
<text text-anchor="middle" x="1283.5" y="-570.93" font-family="Helvetica,sans-Serif" font-weight="bold" font-size="14.00" fill="#000000">systemd&#45;rpm&#45;macros (4.9 kB)</text>
</g>
<!-- libfdisk -->
<g id="node20" class="node">
<title>libfdisk</title>
<text text-anchor="middle" x="327.44" y="-920.07" font-family="Helvetica,sans-Serif" font-weight="bold" font-size="14.00" fill="#000000">libfdisk (476.8 kB)</text>
</g>
<!-- libutempter -->
<g id="node21" class="node">
<title>libutempter</title>
<text text-anchor="middle" x="252.74" y="-713.36" font-family="Helvetica,sans-Serif" font-weight="bold" font-size="14.00" fill="#000000">libutempter (58.2 kB)</text>
</g>
<!-- libpcap -->
<g id="node22" class="node">
<title>libpcap</title>
<text text-anchor="middle" x="1094.2" y="-535.06" font-family="Helvetica,sans-Serif" font-weight="bold" font-size="14.00" fill="#000000">libpcap (381.0 kB)</text>
</g>
<!-- libicu -->
<g id="node23" class="node">
<title>libicu</title>
<text text-anchor="middle" x="209.14" y="-64.14" font-family="Helvetica,sans-Serif" font-weight="bold" font-size="14.00" fill="#000000">libicu (32.1 MB)</text>
</g>
<!-- libpq -->
<g id="node24" class="node">
<title>libpq</title>
<text text-anchor="middle" x="83.635" y="-236.17" font-family="Helvetica,sans-Serif" font-weight="bold" font-size="14.00" fill="#000000">libpq (692.9 kB)</text>
</g>
<!-- postgresql -->
<g id="node25" class="node">
<title>postgresql</title>
<text text-anchor="middle" x="64" y="-381.55" font-family="Helvetica,sans-Serif" font-weight="bold" font-size="14.00" fill="#000000">postgresql (5.7 MB)</text>
</g>
<!-- postgresql&#45;server -->
<g id="node26" class="node">
<title>postgresql&#45;server</title>
<text text-anchor="middle" x="300.38" y="-278.42" font-family="Helvetica,sans-Serif" font-weight="bold" font-size="22.00" fill="#cc0066">postgresql&#45;server (21.3 MB)</text>
</g>
</g>

<script type="text/javascript"><![CDATA[

document.addEventListener('click', function(e) {
      e = e || window.event;
      var target = e.target || e.srcElement;
      text = target.parentElement.querySelector("title").textContent;

      console.log("Clicked on: " + text);
      // reset all strokes
      var nodes = document.getElementsByClassName("edge");

      for (index = 0, len = nodes.length; index < len; ++index) {
          //var title = nodes[index].querySelector("title").textContent.split("->");
          id = nodes[index].id;
          document.getElementById(id).querySelector("path").setAttribute("stroke-width", "1");
          document.getElementById(id).querySelector("path").setAttribute("stroke-opacity", "0.5");
          document.getElementById(id).querySelector("path").setAttribute("stroke", "#444444");
          document.getElementById(id).querySelector("polygon").setAttribute("stroke-width", "1");
          document.getElementById(id).querySelector("polygon").setAttribute("stroke-opacity", "0.5");
          document.getElementById(id).querySelector("polygon").setAttribute("stroke", "#444444");
      }
      // reset text highlight
      pkgs = document.getElementsByClassName("node");
      for (index2 = 0, len2 = pkgs.length; index2 < len2; ++index2) {
          target_id = pkgs[index2].id;
          document.getElementById(target_id).querySelector("text").setAttribute("font-weight", "normal");
      }

      // highlight deps
      var nodes = document.getElementsByClassName("edge");
      for (index = 0, len = nodes.length; index < len; ++index) {
        var title = nodes[index].querySelector("title").textContent.split("->");

        if (title[0] == text) {
          id = nodes[index].id;
          //console.log("ID:   " + id);
          document.getElementById(id).querySelector("path").setAttribute("stroke-width", "3");
          document.getElementById(id).querySelector("path").setAttribute("stroke-opacity", "1");
          document.getElementById(id).querySelector("path").setAttribute("stroke", "#aa3333");
          document.getElementById(id).querySelector("polygon").setAttribute("stroke-width", "5");
          document.getElementById(id).querySelector("polygon").setAttribute("stroke-opacity", "1");
          document.getElementById(id).querySelector("polygon").setAttribute("stroke", "#aa3333");

        }
        if (title[1] == text) {
          id = nodes[index].id;
          document.getElementById(id).querySelector("path").setAttribute("stroke-width", "3");
          document.getElementById(id).querySelector("path").setAttribute("stroke-opacity", "1");
          document.getElementById(id).querySelector("path").setAttribute("stroke", "#333377");
          document.getElementById(id).querySelector("polygon").setAttribute("stroke-width", "5");
          document.getElementById(id).querySelector("polygon").setAttribute("stroke-opacity", "1");
          document.getElementById(id).querySelector("polygon").setAttribute("stroke", "#333377");
        }

        if (title[0] == text || title[1] == text) {
          pkgs = document.getElementsByClassName("node");
          for (index2 = 0, len2 = pkgs.length; index2 < len2; ++index2) {
            var pkg_name = pkgs[index2].querySelector("title").textContent;
            if (pkg_name == title[0] || pkg_name == title[1]) {
              target_id = pkgs[index2].id;
              document.getElementById(target_id).querySelector("text").setAttribute("font-weight", "bold");
            }
          }
        }
      }


  }, false);

]]></script>

</svg>
