<?xml version="1.0" encoding="UTF-8" standalone="no"?>
<!DOCTYPE svg PUBLIC "-//W3C//DTD SVG 1.1//EN"
 "http://www.w3.org/Graphics/SVG/1.1/DTD/svg11.dtd">
<!-- Generated by graphviz version 2.40.1 (0)
 -->
<!-- Title: packages Pages: 1 -->
<svg width="1525pt" height="778pt"
 viewBox="0.00 0.00 1830.00 933.75" xmlns="http://www.w3.org/2000/svg" xmlns:xlink="http://www.w3.org/1999/xlink">
<g id="graph0" class="graph" transform="scale(.8333 .8333) rotate(0) translate(120.051 791.4521)">
<title>packages</title>
<polygon fill="#dae2ff" stroke="transparent" points="-120.051,142.2988 -120.051,-791.4521 1709.9493,-791.4521 1709.9493,142.2988 -120.051,142.2988"/>
<polygon fill="#fbb4ae" stroke="#fbb4ae" points="1040.9175,-245.8773 1040.9215,-256.2484 1042.2158,-305.3564 921.5162,-356.2609 917.7749,-357.9246 914.2996,-359.6314 900.5873,-359.6703 901.0573,-327.7635 907.9883,-220.2957 906.7962,-219.9647 906.579,-219.6615 902.7938,-216.6552 902.7938,-216.6552 906.579,-219.6615 906.7962,-219.9647 907.9883,-220.2957 901.0573,-327.7635 900.5873,-359.6703 900.5214,-359.6742 886.7912,-360.7477 877.3979,-361.8364 862.9105,-363.7884 859.463,-364.3171 845.4709,-364.538 727.3882,-447.2609 722.8705,-450.5292 708.9913,-461.2137 707.8503,-462.1439 700.7296,-468.1159 692.7675,-472.1201 729.7097,-636.97 734.5972,-653.3443 729.0586,-712.3326 596.4596,-777.1542 596.0804,-672.803 596.0804,-672.803 596.4596,-777.1542 586.7515,-782.3346 586.5201,-769.2496 586.6433,-668.4386 586.6433,-668.4386 586.5201,-769.2496 586.7515,-782.3346 583.5703,-784.2476 570.9752,-786.7383 567.9036,-787.4521 555.0983,-782.3925 554.942,-782.3368 556.4781,-638.7889 561.1839,-641.3365 566.1447,-641.3365 570.082,-639.3365 572.5723,-636.7493 571.4515,-635.6395 571.4515,-635.6395 572.5723,-636.7493 570.082,-639.3365 566.1447,-641.3365 561.1839,-641.3365 556.4781,-638.7889 554.942,-782.3368 552.0472,-781.3608 551.649,-770.4617 551.649,-770.4617 552.0472,-781.3608 537.097,-777.1633 530.2808,-775.3794 530.6289,-688.1196 530.6289,-688.1196 530.2808,-775.3794 477.7565,-763.634 340.8885,-641.1674 343.3082,-638.7474 348.3646,-633.3476 349.796,-631.7662 371.3842,-609.1794 389.3111,-471.3847 390.5784,-451.6178 390.256,-447.005 390.3639,-445.2917 396.1993,-400.4382 375.7869,-382.8236 387.1522,-345.8499 390.0838,-332.6967 390.4837,-329.7247 390.8391,-322.3191 396.382,-297.8234 409.5732,-254.9095 423.2818,-242.373 427.9844,-330.0099 432.1609,-333.2759 433.9595,-336.2594 437.3162,-336.2594 437.8237,-336.124 440.4529,-336.124 441.6146,-337.3347 447.3886,-396.7885 441.54,-397.3748 441.6747,-402.237 441.6747,-402.237 441.54,-397.3748 447.3886,-396.7885 441.6146,-337.3347 447.0082,-340.2949 452.5757,-340.2949 457.3565,-337.7611 459.0963,-335.9726 460.3926,-335.9726 461.8475,-336.3608 461.2928,-397.3021 461.058,-397.3149 462.7407,-456.1472 460.8789,-458.1905 462.9161,-460.4013 466.7368,-462.4149 472.3529,-462.4149 478.5148,-458.9009 478.9427,-458.4531 480.8123,-458.4531 480.8123,-458.4531 478.9427,-458.4531 478.5148,-458.9009 472.3529,-462.4149 466.7368,-462.4149 462.9161,-460.4013 460.8789,-458.1905 462.7407,-456.1472 461.058,-397.3149 461.2928,-397.3021 461.8475,-336.3608 465.0142,-336.3608 465.9354,-337.7234 471.3013,-397.1832 471.9196,-397.1782 473.2724,-397.2302 476.8076,-397.2003 479.7524,-397.0374 487.623,-396.2315 500.8558,-393.6255 500.1996,-416.0772 500.1996,-416.0772 500.8558,-393.6255 487.623,-396.2315 479.7524,-397.0374 476.8076,-397.2003 473.2724,-397.2302 471.9196,-397.1782 471.3013,-397.1832 465.9354,-337.7234 465.0142,-336.3608 461.8475,-336.3608 460.3926,-335.9726 459.0963,-335.9726 457.3565,-337.7611 452.5757,-340.2949 447.0082,-340.2949 441.6146,-337.3347 440.4529,-336.124 437.8237,-336.124 437.3162,-336.2594 433.9595,-336.2594 432.1609,-333.2759 427.9844,-330.0099 423.2818,-242.373 432.7949,-233.1583 437.313,-229.0545 441.5193,-224.8351 447.0303,-218.7549 450.8841,-214.9513 455.2764,-210.4238 466.2943,-198.5818 465.8801,-187.8779 464.3162,-169.564 569.551,-58.5252 602.55,-69.415 620.1132,-73.7763 615.9401,-201.5683 612.8413,-201.5683 606.2917,-156.5704 603.4091,-121.153 602.2903,-144.3726 602.2903,-144.3726 603.4091,-121.153 606.2917,-156.5704 612.8413,-201.5683 615.9401,-201.5683 620.1132,-73.7763 626.6768,-75.2704 630.817,-76.042 633.1716,-144.2085 629.8815,-198.2511 625.6118,-197.1326 625.6118,-197.1326 629.8815,-198.2511 633.1716,-144.2085 630.817,-76.042 651.7919,-78.667 650.911,-112.3454 651.0272,-153.7818 651.0272,-153.7818 650.911,-112.3454 651.7919,-78.667 723.4781,-83.2145 744.4575,-96.5973 770.4688,-116.2709 874.741,-89.6735 891.0608,-84.4382 891.8033,-84.2608 900.0356,-81.9529 907.184,-79.652 915.2912,-76.7033 925.8912,-82.0917 1038.1707,-133.8832 1039.3673,-179.2858 1039.3763,-202.2125 1040.1323,-216.4686 1040.9175,-245.8773 1040.9175,-245.8773"/>
<polygon fill="#fed9a6" stroke="#fed9a6" points="75.6088,-193.1962 72.3788,-193.3779 68.5833,-193.4431 66.3361,-193.3941 65.6431,-206.0298 65.2933,-263.1462 59.8842,-261.6399 56.267,-262.5923 51.4145,-266.8446 55.662,-270.3655 60.0971,-271.5506 60.0971,-271.5506 55.662,-270.3655 51.4145,-266.8446 56.267,-262.5923 59.8842,-261.6399 65.2933,-263.1462 65.6431,-206.0298 66.3361,-193.3941 63.4149,-193.1017 57.2442,-193.1657 49.203,-193.5459 48.8218,-193.578 40.817,-193.3118 39.7693,-193.3927 34.0826,-193.6091 23.8405,-193.5986 -104.6347,-198.1742 -105.4222,-199.6835 -113.0065,-220.4343 -115.8927,-266.6 -116.051,-267.8819 -100.236,-317.0856 -78.1027,-338.1266 14.7723,-424.492 16.2096,-433.3767 167.2241,-407.8831 159.5931,-503.0471 119.6381,-492.8697 118.4861,-517.9989 118.4861,-517.9989 119.6381,-492.8697 159.5931,-503.0471 167.2241,-407.8831 16.2096,-433.3767 17.7281,-444.1444 -44.1372,-537.7167 -52.2853,-557.2533 -57.8006,-569.5966 -44.3345,-612.6422 -24.2751,-691.3647 68.7722,-728.5375 72.1949,-623.7775 76.2842,-596.6679 77.5094,-594.9559 79.5377,-594.9559 79.8095,-594.8855 84.0683,-594.8855 84.8606,-594.6761 89.1982,-598.1735 89.1982,-598.1735 84.8606,-594.6761 84.0683,-594.8855 79.8095,-594.8855 79.5377,-594.9559 77.5094,-594.9559 76.2842,-596.6679 72.1949,-623.7775 68.7722,-728.5375 75.0216,-731.3135 85.3451,-729.9157 90.7365,-729.2886 100.8027,-728.6909 118.9023,-728.6454 151.0737,-729.7849 252.5961,-703.7823 305.1677,-645.2141 305.7405,-645.1155 318.3592,-643.2698 328.561,-642.1735 330.9433,-479.8331 334.688,-446.77 332.8799,-446.2836 329.792,-446.2836 326.2803,-411.1271 325.9994,-380.5495 326.5239,-380.5336 330.5595,-318.1649 333.8167,-315.7086 334.6783,-314.5475 330.6579,-311.4168 330.6579,-311.4168 334.6783,-314.5475 333.8167,-315.7086 330.5595,-318.1649 326.5239,-380.5336 325.9994,-380.5495 326.2803,-411.1271 329.792,-446.2836 332.8799,-446.2836 334.688,-446.77 330.9433,-479.8331 328.561,-642.1735 340.8885,-641.1674 343.3082,-638.7474 348.3646,-633.3476 349.796,-631.7662 345.5685,-548.5944 345.5685,-548.5944 349.796,-631.7662 371.3842,-609.1794 389.3111,-471.3847 390.5784,-451.6178 390.256,-447.005 390.3639,-445.2917 396.1993,-400.4382 375.7869,-382.8236 351.6543,-380.622 351.6543,-380.622 375.7869,-382.8236 387.1522,-345.8499 390.0838,-332.6967 390.4837,-329.7247 390.8391,-322.3191 396.382,-297.8234 409.5732,-254.9095 423.2818,-242.373 432.7949,-233.1583 437.313,-229.0545 441.5193,-224.8351 447.0303,-218.7549 450.8841,-214.9513 455.2764,-210.4238 466.2943,-198.5818 465.8801,-187.8779 464.3162,-169.564 569.551,-58.5252 560.9196,-31.029 549.3149,17.7924 480.3196,89.6711 479.0817,90.2428 431.2199,93.1352 429.8971,12.9622 429.8971,12.9622 431.2199,93.1352 427.2108,93.5425 411.2632,95.4922 408.7181,95.9601 394.0608,98.9589 377.1154,103.4721 381.3527,-.1592 381.3527,-.1592 377.1154,103.4721 339.1644,115.1226 340.1487,-16.1158 341.2141,-27.9909 340.5357,-37.1067 340.1878,-39.3307 340.8192,-123.5298 337.9374,-124.131 336.2011,-168.1519 336.2011,-168.1519 337.9374,-124.131 326.2105,-125.9326 325.72,-125.9943 317.8649,-134.0066 303.991,-145.8261 301.9936,-147.2994 288.9702,-156.202 287.5399,-157.0953 240.3818,-183.8767 227.1718,-192.1692 221.2461,-196.2141 219.081,-198.0629 209.4555,-198.1019 203.8958,-197.741 202.2192,-197.75 196.7335,-197.9718 196.5657,-197.967 190.8978,-198.2039 188.1062,-198.2246 184.7036,-198.0156 175.8211,-198.0939 171.4816,-197.8331 168.5119,-197.9676 158.1594,-197.7229 152.2064,-197.7916 131.2614,-197.3135 122.6295,-192.4893 86.274,-193.3603 85.2893,-260.1459 100.757,-264.1202 121.9004,-264.9555 122.0756,-269.8751 122.4172,-272.6518 121.8802,-283.1014 158.8394,-282.0675 163.8786,-277.6633 164.1057,-277.2759 165.872,-275.9591 168.2914,-275.9591 168.8244,-275.8147 172.5392,-275.8147 173.7429,-276.1463 177.7742,-276.1463 178.8116,-275.8618 181.0577,-275.8618 182.6966,-277.6729 187.849,-280.5466 192.4757,-280.5466 197.5877,-277.8495 199.0223,-276.3896 200.5888,-276.3896 206.3689,-317.6103 206.8906,-311.0283 212.831,-276.2768 213.564,-276.2768 213.564,-276.2768 212.831,-276.2768 206.8906,-311.0283 206.3689,-317.6103 200.5888,-276.3896 199.0223,-276.3896 197.5877,-277.8495 192.4757,-280.5466 187.849,-280.5466 182.6966,-277.6729 181.0577,-275.8618 178.8116,-275.8618 177.7742,-276.1463 173.7429,-276.1463 172.5392,-275.8147 168.8244,-275.8147 168.2914,-275.9591 165.872,-275.9591 164.1057,-277.2759 163.8786,-277.6633 163.3325,-339.0787 168.3924,-339.1551 168.9567,-372.8401 166.6792,-396.1717 172.5541,-400.2753 173.9981,-402.2956 176.4461,-402.2956 176.7216,-402.2232 180.295,-402.2232 181.2663,-402.4829 185.8034,-402.4829 186.8492,-478.7356 187.4109,-477.9482 194.7355,-468.4203 195.5097,-404.608 199.6093,-406.7256 205.3165,-406.7256 210.154,-404.1791 211.7106,-402.5942 210.0683,-400.8571 210.0683,-400.8571 211.7106,-402.5942 210.154,-404.1791 205.3165,-406.7256 199.6093,-406.7256 195.5097,-404.608 194.7355,-468.4203 202.9223,-458.6442 252.6471,-452.0415 257.1555,-447.9846 257.4241,-447.8905 259.2292,-446.5602 262.1013,-446.5602 262.2954,-446.5096 266.0498,-446.5096 268.992,-480.4102 272.567,-446.4532 275.3076,-446.4532 275.3076,-446.4532 272.567,-446.4532 268.992,-480.4102 266.0498,-446.5096 262.2954,-446.5096 262.1013,-446.5602 259.2292,-446.5602 257.4241,-447.8905 257.1555,-447.9846 252.6471,-452.0415 202.9223,-458.6442 194.7355,-468.4203 187.4109,-477.9482 186.8492,-478.7356 185.8034,-402.4829 181.2663,-402.4829 180.295,-402.2232 176.7216,-402.2232 176.4461,-402.2956 173.9981,-402.2956 172.5541,-400.2753 166.6792,-396.1717 168.9567,-372.8401 168.3924,-339.1551 163.3325,-339.0787 163.8786,-277.6633 158.8394,-282.0675 121.8802,-283.1014 122.4172,-272.6518 122.0756,-269.8751 121.9004,-264.9555 100.757,-264.1202 85.2893,-260.1459 86.274,-193.3603 83.3936,-193.3172 81.3133,-193.2049 78.0537,-193.1486 75.6088,-193.1962 75.6088,-193.1962"/>
<polygon fill="#bbd7d9" stroke="#bbd7d9" points="303.4486,137.67 300.0079,34.9347 295.1379,-29.9424 292.58,-31.6442 291.4054,-31.6442 290.944,-31.7632 286.9912,-31.7632 285.9485,-31.4876 285.8158,-31.313 282.2477,-28.5532 282.2477,-28.5532 285.8158,-31.313 285.9485,-31.4876 286.9912,-31.7632 290.944,-31.7632 291.4054,-31.6442 292.58,-31.6442 295.1379,-29.9424 300.0079,34.9347 303.4486,137.67 302.5381,138.2836 302.4816,138.2988 287.5049,132.0746 279.1898,128.9165 262.998,123.6289 251.1109,120.1732 193.8389,118.2814 181.163,118.117 169.5967,118.4318 165.5488,118.7047 162.5328,117.3569 144.7983,110.278 141.6499,109.175 28.9921,72.4165 9.0592,57.3962 -.3337,31.8132 -103.9336,-50.9595 -102.1343,-107.3529 -102.6813,-145.7364 -104.6347,-198.1742 23.8405,-193.5986 34.0826,-193.6091 39.7693,-193.3927 40.817,-193.3118 48.8218,-193.578 49.203,-193.5459 57.2442,-193.1657 53.9193,-124.6742 58.3787,-124.6742 63.701,-121.7559 65.3706,-119.9447 63.2378,-117.7209 59.2994,-115.7179 59.2994,-115.7179 63.2378,-117.7209 65.3706,-119.9447 63.701,-121.7559 58.3787,-124.6742 53.9193,-124.6742 57.2442,-193.1657 63.4149,-193.1017 66.3361,-193.3941 68.5833,-193.4431 72.3788,-193.3779 75.6088,-193.1962 78.0537,-193.1486 81.3133,-193.2049 83.3936,-193.3172 86.274,-193.3603 122.6295,-192.4893 131.2614,-197.3135 152.2064,-197.7916 158.1594,-197.7229 168.5119,-197.9676 171.4816,-197.8331 175.8211,-198.0939 184.7036,-198.0156 188.1062,-198.2246 190.8978,-198.2039 196.5657,-197.967 196.7335,-197.9718 202.2192,-197.75 200.9455,-124.1837 205.9845,-121.4174 207.7576,-119.4882 205.7977,-117.4657 201.7621,-115.3935 201.7621,-115.3935 205.7977,-117.4657 207.7576,-119.4882 205.9845,-121.4174 200.9455,-124.1837 202.2192,-197.75 203.8958,-197.741 209.4555,-198.1019 219.081,-198.0629 221.2461,-196.2141 227.1718,-192.1692 230.3229,-123.9419 230.3229,-123.9419 227.1718,-192.1692 240.3818,-183.8767 287.5399,-157.0953 288.9702,-156.202 301.9936,-147.2994 303.991,-145.8261 317.8649,-134.0066 325.72,-125.9943 326.2105,-125.9326 337.9374,-124.131 340.8192,-123.5298 340.1878,-39.3307 340.5357,-37.1067 341.2141,-27.9909 340.1487,-16.1158 339.1644,115.1226 303.4486,137.67 303.4486,137.67"/>
<polygon fill="#d8d6da" stroke="#d8d6da" points="1040.1323,-216.4686 1040.9175,-245.8773 1040.9215,-256.2484 1042.2158,-305.3564 1098.4028,-341.3751 1160.0637,-349.5392 1157.9191,-219.3309 1162.6055,-214.5701 1162.8906,-214.0547 1167.1523,-214.0547 1168.0502,-271.0547 1172.6827,-213.9588 1175.4683,-213.9588 1175.6666,-214.0103 1182.1973,-214.0103 1182.5262,-213.9249 1183.6135,-213.9249 1185.8538,-216.1896 1190.7097,-218.6551 1194.5015,-218.6551 1194.5015,-218.6551 1190.7097,-218.6551 1185.8538,-216.1896 1183.6135,-213.9249 1182.5262,-213.9249 1182.1973,-214.0103 1175.6666,-214.0103 1175.4683,-213.9588 1172.6827,-213.9588 1168.0502,-271.0547 1167.1523,-214.0547 1162.8906,-214.0547 1162.6055,-214.5701 1157.9191,-219.3309 1160.0637,-349.5392 1163.0859,-349.9961 1165.4563,-350.3989 1178.926,-353.1981 1186.847,-355.1423 1194.877,-357.4165 1198.412,-358.5517 1210.9464,-355.8015 1225.4532,-353.4114 1226.3812,-353.2755 1225.6421,-244.8922 1225.6421,-244.8922 1226.3812,-353.2755 1262.5524,-349.2922 1361.9172,-402.4005 1372.1974,-408.143 1391.6086,-447.8646 1392.7966,-448.9087 1498.4653,-476.69 1499.3041,-476.9297 1509.6545,-476.1116 1517.969,-475.9908 1523.5258,-476.0296 1531.0562,-476.2444 1530.1687,-353.513 1529.4762,-353.3288 1526.1699,-353.3288 1518.0798,-262.6402 1530.3853,-248.9801 1433.2122,-258.7091 1427.8232,-263.553 1427.7664,-263.6443 1498.8358,-270.5906 1508.5365,-271.0762 1504.5427,-275.1862 1499.1277,-280.3775 1499.1277,-280.3775 1504.5427,-275.1862 1508.5365,-271.0762 1498.8358,-270.5906 1427.7664,-263.6443 1426.7275,-264.4514 1424.7491,-264.4514 1419.1807,-309.7344 1418.7231,-317.7677 1413.1411,-264.7388 1411.132,-264.7388 1409.4458,-266.4706 1404.6901,-268.942 1400.0261,-268.942 1400.0261,-268.942 1404.6901,-268.942 1409.4458,-266.4706 1411.132,-264.7388 1408.8914,-262.28 1404.8475,-260.1294 1404.8475,-260.1294 1408.8914,-262.28 1411.132,-264.7388 1413.1411,-264.7388 1418.7231,-317.7677 1419.1807,-309.7344 1418.7709,-264.5088 1418.7709,-264.5088 1419.1807,-309.7344 1424.7491,-264.4514 1426.7275,-264.4514 1427.7664,-263.6443 1427.8232,-263.553 1433.2122,-258.7091 1530.3853,-248.9801 1518.0798,-262.6402 1526.1699,-353.3288 1529.4762,-353.3288 1530.1687,-353.513 1531.0562,-476.2444 1540.5491,-476.7196 1538.3125,-391.3246 1540.2419,-358.1097 1544.969,-356.8466 1549.3331,-353.377 1545.2401,-350.0529 1545.2401,-350.0529 1549.3331,-353.377 1544.969,-356.8466 1540.2419,-358.1097 1538.3125,-391.3246 1540.5491,-476.7196 1543.1158,-476.9583 1548.3903,-477.5626 1549.8866,-477.4966 1567.4445,-477.4683 1568.0233,-477.4797 1584.6544,-478.8665 1640.4519,-484.6991 1705.9493,-432.6261 1701.8854,-369.4967 1701.196,-320.9987 1701.835,-262.8442 1674.7053,-247.6604 1582.9406,-224.8369 1576.7286,-223.1563 1565.4396,-219.8561 1556.7247,-216.7404 1531.2515,-179.1232 1524.384,-145.2852 1515.4941,-85.7701 1416.6643,-10.3265 1406.3954,-10.2476 1404.7705,-90.0013 1404.7705,-90.0013 1406.3954,-10.2476 1395.6217,-9.8012 1390.3862,-9.4959 1381.5634,-8.8328 1380.5503,-8.7053 1372.7543,-12.7791 1370.4072,-13.9546 1360.34,-18.7807 1353.0358,-21.9648 1337.4995,-28.0676 1329.8159,-30.7484 1330.9167,-118.4873 1328.433,-161.8983 1325.0349,-161.8983 1324.946,-161.874 1324.946,-161.874 1325.0349,-161.8983 1328.433,-161.8983 1330.9167,-118.4873 1329.8159,-30.7484 1322.1826,-33.0787 1300.7229,-38.2407 1287.0773,-41.2213 1201.5828,-71.1625 1200.1246,-70.9652 1200.0731,-70.9791 1189.8185,-73.5629 1184.4006,-74.8261 1177.9899,-76.2 1168.3008,-77.912 1147.1653,-80.4571 1122.9525,-82.9139 1112.34,-86.5614 1038.1707,-133.8832 1039.3673,-179.2858 1039.3763,-202.2125 1040.1323,-216.4686 1040.1323,-216.4686"/>
<polyline fill="none" stroke="#000000" points="700.7296,-468.1159 692.7675,-472.1201 729.7097,-636.97 734.5972,-653.3443 729.0586,-712.3326 596.4596,-777.1542 586.7515,-782.3346 583.5703,-784.2476 570.9752,-786.7383 567.9036,-787.4521 555.0983,-782.3925 554.942,-782.3368 552.0472,-781.3608 537.097,-777.1633 530.2808,-775.3794 477.7565,-763.634 340.8885,-641.1674 343.3082,-638.7474 348.3646,-633.3476 349.796,-631.7662 371.3842,-609.1794 389.3111,-471.3847 390.5784,-451.6178 390.256,-447.005 390.3639,-445.2917 396.1993,-400.4382 375.7869,-382.8236 387.1522,-345.8499 390.0838,-332.6967 390.4837,-329.7247 390.8391,-322.3191 396.382,-297.8234 409.5732,-254.9095 423.2818,-242.373 432.7949,-233.1583 437.313,-229.0545 441.5193,-224.8351 447.0303,-218.7549 450.8841,-214.9513 455.2764,-210.4238 466.2943,-198.5818 465.8801,-187.8779 464.3162,-169.564 569.551,-58.5252 602.55,-69.415 620.1132,-73.7763 626.6768,-75.2704 630.817,-76.042 651.7919,-78.667 723.4781,-83.2145 744.4575,-96.5973 770.4688,-116.2709 874.741,-89.6735 891.0608,-84.4382 891.8033,-84.2608 900.0356,-81.9529 907.184,-79.652 915.2912,-76.7033 925.8912,-82.0917 1038.1707,-133.8832 1039.3673,-179.2858 1039.3763,-202.2125 1040.1323,-216.4686 1040.9175,-245.8773 1040.9215,-256.2484 1042.2158,-305.3564 921.5162,-356.2609 917.7749,-357.9246 914.2996,-359.6314 900.5873,-359.6703 900.5214,-359.6742 886.7912,-360.7477 877.3979,-361.8364 862.9105,-363.7884 859.463,-364.3171 845.4709,-364.538 727.3882,-447.2609 722.8705,-450.5292 708.9913,-461.2137 707.8503,-462.1439 700.7296,-468.1159 "/>
<polyline fill="none" stroke="#000000" points="303.991,-145.8261 301.9936,-147.2994 288.9702,-156.202 287.5399,-157.0953 240.3818,-183.8767 227.1718,-192.1692 221.2461,-196.2141 219.081,-198.0629 209.4555,-198.1019 203.8958,-197.741 202.2192,-197.75 196.7335,-197.9718 196.5657,-197.967 190.8978,-198.2039 188.1062,-198.2246 184.7036,-198.0156 175.8211,-198.0939 171.4816,-197.8331 168.5119,-197.9676 158.1594,-197.7229 152.2064,-197.7916 131.2614,-197.3135 122.6295,-192.4893 86.274,-193.3603 83.3936,-193.3172 81.3133,-193.2049 78.0537,-193.1486 75.6088,-193.1962 72.3788,-193.3779 68.5833,-193.4431 66.3361,-193.3941 63.4149,-193.1017 57.2442,-193.1657 49.203,-193.5459 48.8218,-193.578 40.817,-193.3118 39.7693,-193.3927 34.0826,-193.6091 23.8405,-193.5986 -104.6347,-198.1742 -105.4222,-199.6835 -113.0065,-220.4343 -115.8927,-266.6 -116.051,-267.8819 -100.236,-317.0856 -78.1027,-338.1266 14.7723,-424.492 16.2096,-433.3767 17.7281,-444.1444 -44.1372,-537.7167 -52.2853,-557.2533 -57.8006,-569.5966 -44.3345,-612.6422 -24.2751,-691.3647 68.7722,-728.5375 75.0216,-731.3135 85.3451,-729.9157 90.7365,-729.2886 100.8027,-728.6909 118.9023,-728.6454 151.0737,-729.7849 252.5961,-703.7823 305.1677,-645.2141 305.7405,-645.1155 318.3592,-643.2698 328.561,-642.1735 340.8885,-641.1674 343.3082,-638.7474 348.3646,-633.3476 349.796,-631.7662 371.3842,-609.1794 389.3111,-471.3847 390.5784,-451.6178 390.256,-447.005 390.3639,-445.2917 396.1993,-400.4382 375.7869,-382.8236 387.1522,-345.8499 390.0838,-332.6967 390.4837,-329.7247 390.8391,-322.3191 396.382,-297.8234 409.5732,-254.9095 423.2818,-242.373 432.7949,-233.1583 437.313,-229.0545 441.5193,-224.8351 447.0303,-218.7549 450.8841,-214.9513 455.2764,-210.4238 466.2943,-198.5818 465.8801,-187.8779 464.3162,-169.564 569.551,-58.5252 560.9196,-31.029 549.3149,17.7924 480.3196,89.6711 479.0817,90.2428 431.2199,93.1352 427.2108,93.5425 411.2632,95.4922 408.7181,95.9601 394.0608,98.9589 377.1154,103.4721 339.1644,115.1226 340.1487,-16.1158 341.2141,-27.9909 340.5357,-37.1067 340.1878,-39.3307 340.8192,-123.5298 337.9374,-124.131 326.2105,-125.9326 325.72,-125.9943 317.8649,-134.0066 303.991,-145.8261 "/>
<polyline fill="none" stroke="#000000" points="181.163,118.117 193.8389,118.2814 251.1109,120.1732 262.998,123.6289 279.1898,128.9165 287.5049,132.0746 302.4816,138.2988 302.5381,138.2836 303.4486,137.67 339.1644,115.1226 340.1487,-16.1158 341.2141,-27.9909 340.5357,-37.1067 340.1878,-39.3307 340.8192,-123.5298 337.9374,-124.131 326.2105,-125.9326 325.72,-125.9943 317.8649,-134.0066 303.991,-145.8261 301.9936,-147.2994 288.9702,-156.202 287.5399,-157.0953 240.3818,-183.8767 227.1718,-192.1692 221.2461,-196.2141 219.081,-198.0629 209.4555,-198.1019 203.8958,-197.741 202.2192,-197.75 196.7335,-197.9718 196.5657,-197.967 190.8978,-198.2039 188.1062,-198.2246 184.7036,-198.0156 175.8211,-198.0939 171.4816,-197.8331 168.5119,-197.9676 158.1594,-197.7229 152.2064,-197.7916 131.2614,-197.3135 122.6295,-192.4893 86.274,-193.3603 83.3936,-193.3172 81.3133,-193.2049 78.0537,-193.1486 75.6088,-193.1962 72.3788,-193.3779 68.5833,-193.4431 66.3361,-193.3941 63.4149,-193.1017 57.2442,-193.1657 49.203,-193.5459 48.8218,-193.578 40.817,-193.3118 39.7693,-193.3927 34.0826,-193.6091 23.8405,-193.5986 -104.6347,-198.1742 -102.6813,-145.7364 -102.1343,-107.3529 -103.9336,-50.9595 -.3337,31.8132 9.0592,57.3962 28.9921,72.4165 141.6499,109.175 144.7983,110.278 162.5328,117.3569 165.5488,118.7047 169.5967,118.4318 181.163,118.117 "/>
<polyline fill="none" stroke="#000000" points="1360.34,-18.7807 1353.0358,-21.9648 1337.4995,-28.0676 1329.8159,-30.7484 1322.1826,-33.0787 1300.7229,-38.2407 1287.0773,-41.2213 1201.5828,-71.1625 1200.1246,-70.9652 1200.0731,-70.9791 1189.8185,-73.5629 1184.4006,-74.8261 1177.9899,-76.2 1168.3008,-77.912 1147.1653,-80.4571 1122.9525,-82.9139 1112.34,-86.5614 1038.1707,-133.8832 1039.3673,-179.2858 1039.3763,-202.2125 1040.1323,-216.4686 1040.9175,-245.8773 1040.9215,-256.2484 1042.2158,-305.3564 1098.4028,-341.3751 1160.0637,-349.5392 1163.0859,-349.9961 1165.4563,-350.3989 1178.926,-353.1981 1186.847,-355.1423 1194.877,-357.4165 1198.412,-358.5517 1210.9464,-355.8015 1225.4532,-353.4114 1226.3812,-353.2755 1262.5524,-349.2922 1361.9172,-402.4005 1372.1974,-408.143 1391.6086,-447.8646 1392.7966,-448.9087 1498.4653,-476.69 1499.3041,-476.9297 1509.6545,-476.1116 1517.969,-475.9908 1523.5258,-476.0296 1531.0562,-476.2444 1540.5491,-476.7196 1543.1158,-476.9583 1548.3903,-477.5626 1549.8866,-477.4966 1567.4445,-477.4683 1568.0233,-477.4797 1584.6544,-478.8665 1640.4519,-484.6991 1705.9493,-432.6261 1701.8854,-369.4967 1701.196,-320.9987 1701.835,-262.8442 1674.7053,-247.6604 1582.9406,-224.8369 1576.7286,-223.1563 1565.4396,-219.8561 1556.7247,-216.7404 1531.2515,-179.1232 1524.384,-145.2852 1515.4941,-85.7701 1416.6643,-10.3265 1406.3954,-10.2476 1395.6217,-9.8012 1390.3862,-9.4959 1381.5634,-8.8328 1380.5503,-8.7053 1372.7543,-12.7791 1370.4072,-13.9546 1360.34,-18.7807 "/>
<!-- filesystem&#45;&gt;setup -->
<g id="edge1" class="edge">
<title>filesystem&#45;&gt;setup</title>
<path fill="none" stroke="#444444" stroke-opacity="0.333333" d="M757.5237,-264.0504C781.4094,-256.5543 809.2805,-247.8075 833.8435,-240.0988"/>
<polygon fill="#444444" fill-opacity="0.333333" stroke="#444444" stroke-opacity="0.333333" points="834.9402,-243.423 843.4334,-237.0892 832.8441,-236.7442 834.9402,-243.423"/>
</g>
<!-- filesystem&#45;&gt;bash -->
<g id="edge2" class="edge">
<title>filesystem&#45;&gt;bash</title>
<path fill="none" stroke="#444444" stroke-opacity="0.333333" d="M643.323,-288.4008C602.8876,-295.7629 548.8554,-307.3635 508.1335,-317.4058"/>
<polygon fill="#444444" fill-opacity="0.333333" stroke="#444444" stroke-opacity="0.333333" points="507.1983,-314.0318 498.3472,-319.8548 508.8977,-320.8224 507.1983,-314.0318"/>
</g>
<!-- setup&#45;&gt;setup -->
<g id="edge3" class="edge">
<title>setup&#45;&gt;setup</title>
<path fill="none" stroke="#444444" stroke-opacity="0.333333" d="M951.6073,-226.5397C962.1286,-225.7907 969.6,-223.6408 969.6,-220.09 969.6,-217.8153 966.5337,-216.1155 961.5636,-214.9906"/>
<polygon fill="#444444" fill-opacity="0.333333" stroke="#444444" stroke-opacity="0.333333" points="961.9869,-211.5161 951.6073,-213.6403 961.0462,-218.4526 961.9869,-211.5161"/>
</g>
<!-- setup&#45;&gt;fedora&#45;release -->
<g id="edge4" class="edge">
<title>setup&#45;&gt;fedora&#45;release</title>
<path fill="none" stroke="#444444" stroke-opacity="0.333333" d="M951.7626,-218.973C994.9118,-218.0831 1056.1568,-216.8201 1106.1253,-215.7896"/>
<polygon fill="#444444" fill-opacity="0.333333" stroke="#444444" stroke-opacity="0.333333" points="1106.357,-219.2856 1116.2827,-215.5801 1106.2126,-212.2871 1106.357,-219.2856"/>
</g>
<!-- bash&#45;&gt;filesystem -->
<g id="edge5" class="edge">
<title>bash&#45;&gt;filesystem</title>
<path fill="none" stroke="#444444" stroke-opacity="0.333333" d="M498.2657,-331.0616C537.0694,-324.2603 591.8142,-312.6822 634.5658,-302.3457"/>
<polygon fill="#444444" fill-opacity="0.333333" stroke="#444444" stroke-opacity="0.333333" points="635.4443,-305.7341 644.3246,-299.9557 633.7791,-298.935 635.4443,-305.7341"/>
</g>
<!-- bash&#45;&gt;bash -->
<g id="edge6" class="edge">
<title>bash&#45;&gt;bash</title>
<path fill="none" stroke="#444444" stroke-opacity="0.333333" d="M498.3541,-342.5221C508.6819,-341.8588 516.14,-339.6814 516.14,-335.99 516.14,-333.6829 513.2267,-331.9672 508.5203,-330.8429"/>
<polygon fill="#444444" fill-opacity="0.333333" stroke="#444444" stroke-opacity="0.333333" points="508.7351,-327.3399 498.3541,-329.4579 507.7901,-334.2758 508.7351,-327.3399"/>
</g>
<!-- bash&#45;&gt;glibc -->
<g id="edge7" class="edge">
<title>bash&#45;&gt;glibc</title>
<path fill="none" stroke="#444444" stroke-opacity="0.333333" d="M427.6366,-317.9535C404.7124,-299.1622 368.6311,-269.5858 343.0135,-248.5867"/>
<polygon fill="#444444" fill-opacity="0.333333" stroke="#444444" stroke-opacity="0.333333" points="345.0464,-245.7274 335.0937,-242.0947 340.6087,-251.141 345.0464,-245.7274"/>
</g>
<!-- bash&#45;&gt;ncurses&#45;libs -->
<g id="edge8" class="edge">
<title>bash&#45;&gt;ncurses&#45;libs</title>
<path fill="none" stroke="#444444" stroke-opacity="0.333333" d="M452.6265,-354.0137C455.945,-374.0409 461.3456,-406.6341 465.221,-430.0224"/>
<polygon fill="#444444" fill-opacity="0.333333" stroke="#444444" stroke-opacity="0.333333" points="461.7936,-430.7491 466.8813,-440.0424 468.6994,-429.6047 461.7936,-430.7491"/>
</g>
<!-- fedora&#45;release&#45;&gt;fedora&#45;release&#45;common -->
<g id="edge30" class="edge">
<title>fedora&#45;release&#45;&gt;fedora&#45;release&#45;common</title>
<path fill="none" stroke="#444444" stroke-opacity="0.333333" d="M1269.7506,-203.7861C1289.2852,-197.9627 1309.2394,-190.945 1325.2141,-184.1232"/>
<polygon fill="#444444" fill-opacity="0.333333" stroke="#444444" stroke-opacity="0.333333" points="1326.9131,-187.1972 1334.607,-179.9134 1324.0501,-180.8095 1326.9131,-187.1972"/>
</g>
<!-- glibc&#45;&gt;glibc -->
<g id="edge9" class="edge">
<title>glibc&#45;&gt;glibc</title>
<path fill="none" stroke="#444444" stroke-opacity="0.333333" d="M365.9472,-230.1797C376.3223,-229.4307 383.69,-227.2808 383.69,-223.73 383.69,-221.5108 380.812,-219.8387 376.1205,-218.714"/>
<polygon fill="#444444" fill-opacity="0.333333" stroke="#444444" stroke-opacity="0.333333" points="376.3378,-215.2101 365.9472,-217.2803 375.3609,-222.1416 376.3378,-215.2101"/>
</g>
<!-- glibc&#45;&gt;basesystem -->
<g id="edge10" class="edge">
<title>glibc&#45;&gt;basesystem</title>
<path fill="none" stroke="#444444" stroke-opacity="0.333333" d="M365.7607,-220.0201C417.3179,-216.4159 495.9889,-210.9164 553.2485,-206.9136"/>
<polygon fill="#444444" fill-opacity="0.333333" stroke="#444444" stroke-opacity="0.333333" points="553.5887,-210.3984 563.3203,-206.2095 553.1005,-203.4155 553.5887,-210.3984"/>
</g>
<!-- glibc&#45;&gt;glibc&#45;common -->
<g id="edge11" class="edge">
<title>glibc&#45;&gt;glibc&#45;common</title>
<path fill="none" stroke="#444444" stroke-opacity="0.333333" d="M296.2299,-241.87C273.4408,-273.3436 233.4251,-338.0406 213.7527,-375.008"/>
<polygon fill="#444444" fill-opacity="0.333333" stroke="#444444" stroke-opacity="0.333333" points="210.4783,-373.7204 208.993,-384.2106 216.6959,-376.9362 210.4783,-373.7204"/>
</g>
<!-- glibc&#45;&gt;glibc&#45;minimal&#45;langpack -->
<g id="edge12" class="edge">
<title>glibc&#45;&gt;glibc&#45;minimal&#45;langpack</title>
<path fill="none" stroke="#444444" stroke-opacity="0.333333" d="M307.5147,-242.0722C301.4362,-280.9399 295.1513,-371.811 295.0837,-418.1592"/>
<polygon fill="#444444" fill-opacity="0.333333" stroke="#444444" stroke-opacity="0.333333" points="291.5863,-418.4352 295.1906,-428.3981 298.5859,-418.3621 291.5863,-418.4352"/>
</g>
<!-- glibc&#45;&gt;libgcc -->
<g id="edge13" class="edge">
<title>glibc&#45;&gt;libgcc</title>
<path fill="none" stroke="#444444" stroke-opacity="0.333333" d="M321.4477,-205.6012C337.8384,-171.6715 373.2325,-98.4039 392.5476,-58.4206"/>
<polygon fill="#444444" fill-opacity="0.333333" stroke="#444444" stroke-opacity="0.333333" points="395.7794,-59.7769 396.9778,-49.2501 389.4763,-56.732 395.7794,-59.7769"/>
</g>
<!-- ncurses&#45;libs&#45;&gt;glibc -->
<g id="edge14" class="edge">
<title>ncurses&#45;libs&#45;&gt;glibc</title>
<path fill="none" stroke="#444444" stroke-opacity="0.333333" d="M457.8066,-440.1355C430.2615,-399.0588 362.6747,-298.2699 330.402,-250.1431"/>
<polygon fill="#444444" fill-opacity="0.333333" stroke="#444444" stroke-opacity="0.333333" points="333.281,-248.152 324.8046,-241.7959 327.4671,-252.0507 333.281,-248.152"/>
</g>
<!-- ncurses&#45;libs&#45;&gt;ncurses&#45;libs -->
<g id="edge15" class="edge">
<title>ncurses&#45;libs&#45;&gt;ncurses&#45;libs</title>
<path fill="none" stroke="#444444" stroke-opacity="0.333333" d="M538.4053,-464.326C549.0934,-463.4012 556.38,-461.3392 556.38,-458.14 556.38,-456.0905 553.3896,-454.5077 548.4302,-453.3917"/>
<polygon fill="#444444" fill-opacity="0.333333" stroke="#444444" stroke-opacity="0.333333" points="548.8009,-449.9091 538.4053,-451.954 547.8072,-456.8382 548.8009,-449.9091"/>
</g>
<!-- ncurses&#45;libs&#45;&gt;ncurses&#45;base -->
<g id="edge16" class="edge">
<title>ncurses&#45;libs&#45;&gt;ncurses&#45;base</title>
<path fill="none" stroke="#444444" stroke-opacity="0.333333" d="M479.3608,-476.2713C495.8132,-507.7351 529.7392,-572.6158 549.0733,-609.5906"/>
<polygon fill="#444444" fill-opacity="0.333333" stroke="#444444" stroke-opacity="0.333333" points="546.1487,-611.5509 553.8841,-618.7907 552.3519,-608.3072 546.1487,-611.5509"/>
</g>
<!-- basesystem&#45;&gt;filesystem -->
<g id="edge34" class="edge">
<title>basesystem&#45;&gt;filesystem</title>
<path fill="none" stroke="#444444" stroke-opacity="0.333333" d="M642.5541,-220.0314C652.6201,-230.7821 665.527,-244.5668 676.6054,-256.3988"/>
<polygon fill="#444444" fill-opacity="0.333333" stroke="#444444" stroke-opacity="0.333333" points="674.1835,-258.933 683.5732,-263.8405 679.2933,-254.1486 674.1835,-258.933"/>
</g>
<!-- basesystem&#45;&gt;setup -->
<g id="edge35" class="edge">
<title>basesystem&#45;&gt;setup</title>
<path fill="none" stroke="#444444" stroke-opacity="0.333333" d="M687.615,-206.0195C731.1179,-208.9345 789.1191,-212.821 833.1394,-215.7707"/>
<polygon fill="#444444" fill-opacity="0.333333" stroke="#444444" stroke-opacity="0.333333" points="832.9467,-219.2655 843.1583,-216.442 833.4147,-212.2812 832.9467,-219.2655"/>
</g>
<!-- glibc&#45;common&#45;&gt;bash -->
<g id="edge36" class="edge">
<title>glibc&#45;common&#45;&gt;bash</title>
<path fill="none" stroke="#444444" stroke-opacity="0.333333" d="M269.742,-384.3555C307.6235,-374.1711 354.5009,-361.5681 390.9054,-351.7808"/>
<polygon fill="#444444" fill-opacity="0.333333" stroke="#444444" stroke-opacity="0.333333" points="392.1311,-355.0756 400.8794,-349.0992 390.3136,-348.3156 392.1311,-355.0756"/>
</g>
<!-- glibc&#45;common&#45;&gt;glibc -->
<g id="edge37" class="edge">
<title>glibc&#45;common&#45;&gt;glibc</title>
<path fill="none" stroke="#444444" stroke-opacity="0.333333" d="M219.0101,-384.28C241.7992,-352.8064 281.8149,-288.1094 301.4873,-251.142"/>
<polygon fill="#444444" fill-opacity="0.333333" stroke="#444444" stroke-opacity="0.333333" points="304.7617,-252.4296 306.247,-241.9394 298.5441,-249.2138 304.7617,-252.4296"/>
</g>
<!-- glibc&#45;common&#45;&gt;libselinux -->
<g id="edge38" class="edge">
<title>glibc&#45;common&#45;&gt;libselinux</title>
<path fill="none" stroke="#444444" stroke-opacity="0.333333" d="M200.7433,-384.3257C198.6551,-363.4128 195.1934,-328.7436 192.7523,-304.2953"/>
<polygon fill="#444444" fill-opacity="0.333333" stroke="#444444" stroke-opacity="0.333333" points="196.2197,-303.7935 191.7434,-294.1907 189.2543,-304.489 196.2197,-303.7935"/>
</g>
<!-- glibc&#45;common&#45;&gt;tzdata -->
<g id="edge39" class="edge">
<title>glibc&#45;common&#45;&gt;tzdata</title>
<path fill="none" stroke="#444444" stroke-opacity="0.333333" d="M192.3484,-420.5262C173.2149,-454.485 131.8512,-527.899 109.3836,-567.7754"/>
<polygon fill="#444444" fill-opacity="0.333333" stroke="#444444" stroke-opacity="0.333333" points="106.225,-566.2514 104.3655,-576.6817 112.3236,-569.6875 106.225,-566.2514"/>
</g>
<!-- glibc&#45;minimal&#45;langpack&#45;&gt;glibc -->
<g id="edge40" class="edge">
<title>glibc&#45;minimal&#45;langpack&#45;&gt;glibc</title>
<path fill="none" stroke="#444444" stroke-opacity="0.333333" d="M303.0453,-428.0878C309.1238,-389.2201 315.4087,-298.349 315.4763,-252.0008"/>
<polygon fill="#444444" fill-opacity="0.333333" stroke="#444444" stroke-opacity="0.333333" points="318.9737,-251.7248 315.3694,-241.7619 311.9741,-251.7979 318.9737,-251.7248"/>
</g>
<!-- glibc&#45;minimal&#45;langpack&#45;&gt;glibc&#45;common -->
<g id="edge41" class="edge">
<title>glibc&#45;minimal&#45;langpack&#45;&gt;glibc&#45;common</title>
<path fill="none" stroke="#444444" stroke-opacity="0.333333" d="M258.8247,-428.4025C256.1736,-427.1785 253.4858,-425.9375 250.7955,-424.6953"/>
<polygon fill="#444444" fill-opacity="0.333333" stroke="#444444" stroke-opacity="0.333333" points="252.235,-421.505 241.6888,-420.4907 249.3007,-427.8603 252.235,-421.505"/>
</g>
<!-- libacl&#45;&gt;glibc -->
<g id="edge17" class="edge">
<title>libacl&#45;&gt;glibc</title>
<path fill="none" stroke="#444444" stroke-opacity="0.333333" d="M178.1976,-36.2572C204.4002,-72.7817 263.3607,-154.9684 293.7645,-197.3492"/>
<polygon fill="#444444" fill-opacity="0.333333" stroke="#444444" stroke-opacity="0.333333" points="290.9487,-199.4286 299.6217,-205.5138 296.6365,-195.3482 290.9487,-199.4286"/>
</g>
<!-- libacl&#45;&gt;libattr -->
<g id="edge18" class="edge">
<title>libacl&#45;&gt;libattr</title>
<path fill="none" stroke="#444444" stroke-opacity="0.333333" d="M216.2859,-24.2377C216.4434,-24.2569 216.6009,-24.2761 216.7584,-24.2953"/>
<polygon fill="#444444" fill-opacity="0.333333" stroke="#444444" stroke-opacity="0.333333" points="213.5103,-27.4252 223.8603,-25.1607 214.3571,-20.4766 213.5103,-27.4252"/>
</g>
<!-- libattr&#45;&gt;glibc -->
<g id="edge19" class="edge">
<title>libattr&#45;&gt;glibc</title>
<path fill="none" stroke="#444444" stroke-opacity="0.333333" d="M280.0043,-49.6652C286.3168,-83.2816 299.9015,-155.6258 307.4182,-195.6554"/>
<polygon fill="#444444" fill-opacity="0.333333" stroke="#444444" stroke-opacity="0.333333" points="303.9929,-196.3796 309.2784,-205.5619 310.8727,-195.0877 303.9929,-196.3796"/>
</g>
<!-- libattr&#45;&gt;libattr -->
<g id="edge20" class="edge">
<title>libattr&#45;&gt;libattr</title>
<path fill="none" stroke="#444444" stroke-opacity="0.333333" d="M329.1852,-38.0605C339.6486,-37.3321 347.11,-35.1749 347.11,-31.589 347.11,-29.2918 344.0479,-27.5809 339.096,-26.4564"/>
<polygon fill="#444444" fill-opacity="0.333333" stroke="#444444" stroke-opacity="0.333333" points="339.5638,-22.9879 329.1852,-25.1175 338.6266,-29.9249 339.5638,-22.9879"/>
</g>
<!-- libcap&#45;&gt;glibc -->
<g id="edge21" class="edge">
<title>libcap&#45;&gt;glibc</title>
<path fill="none" stroke="#444444" stroke-opacity="0.333333" d="M101.1249,-138.1675C144.982,-155.9045 211.9612,-182.9926 258.7735,-201.9248"/>
<polygon fill="#444444" fill-opacity="0.333333" stroke="#444444" stroke-opacity="0.333333" points="257.5646,-205.2112 268.1474,-205.7158 260.1891,-198.7218 257.5646,-205.2112"/>
</g>
<!-- libcap&#45;&gt;libcap -->
<g id="edge22" class="edge">
<title>libcap&#45;&gt;libcap</title>
<path fill="none" stroke="#444444" stroke-opacity="0.333333" d="M113.0255,-126.5235C123.5723,-125.735 131,-123.6005 131,-120.12 131,-117.8903 127.9517,-116.213 122.9878,-115.0881"/>
<polygon fill="#444444" fill-opacity="0.333333" stroke="#444444" stroke-opacity="0.333333" points="123.4095,-111.6132 113.0255,-113.7165 122.4546,-118.5478 123.4095,-111.6132"/>
</g>
<!-- libselinux&#45;&gt;glibc -->
<g id="edge23" class="edge">
<title>libselinux&#45;&gt;glibc</title>
<path fill="none" stroke="#444444" stroke-opacity="0.333333" d="M232.1836,-258.0969C241.4418,-254.1447 251.3454,-249.917 260.9283,-245.8262"/>
<polygon fill="#444444" fill-opacity="0.333333" stroke="#444444" stroke-opacity="0.333333" points="262.5456,-248.9415 270.3685,-241.7963 259.7973,-242.5035 262.5456,-248.9415"/>
</g>
<!-- libselinux&#45;&gt;libsepol -->
<g id="edge24" class="edge">
<title>libselinux&#45;&gt;libsepol</title>
<path fill="none" stroke="#444444" stroke-opacity="0.333333" d="M253.3541,-294.1541C253.69,-294.2496 254.0261,-294.3451 254.3622,-294.4406"/>
<polygon fill="#444444" fill-opacity="0.333333" stroke="#444444" stroke-opacity="0.333333" points="253.5365,-297.8445 264.1125,-297.2119 255.4504,-291.1112 253.5365,-297.8445"/>
</g>
<!-- libselinux&#45;&gt;pcre2 -->
<g id="edge25" class="edge">
<title>libselinux&#45;&gt;pcre2</title>
<path fill="none" stroke="#444444" stroke-opacity="0.333333" d="M123.2351,-271.2254C123.0723,-271.2134 122.9095,-271.2015 122.7467,-271.1895"/>
<polygon fill="#444444" fill-opacity="0.333333" stroke="#444444" stroke-opacity="0.333333" points="125.6785,-267.8957 115.4487,-270.6529 125.1651,-274.8769 125.6785,-267.8957"/>
</g>
<!-- libsepol&#45;&gt;bash -->
<g id="edge42" class="edge">
<title>libsepol&#45;&gt;bash</title>
<path fill="none" stroke="#444444" stroke-opacity="0.333333" d="M386.8426,-325.2C388.1827,-325.4303 389.5232,-325.6606 390.8617,-325.8906"/>
<polygon fill="#444444" fill-opacity="0.333333" stroke="#444444" stroke-opacity="0.333333" points="390.5931,-329.3956 401.0414,-327.6397 391.7785,-322.4967 390.5931,-329.3956"/>
</g>
<!-- libsepol&#45;&gt;glibc -->
<g id="edge43" class="edge">
<title>libsepol&#45;&gt;glibc</title>
<path fill="none" stroke="#444444" stroke-opacity="0.333333" d="M322.9077,-296.259C321.1075,-283.4807 318.6756,-266.218 316.6359,-251.7398"/>
<polygon fill="#444444" fill-opacity="0.333333" stroke="#444444" stroke-opacity="0.333333" points="320.0956,-251.2073 315.2347,-241.7934 313.164,-252.1839 320.0956,-251.2073"/>
</g>
<!-- pcre2&#45;&gt;glibc -->
<g id="edge44" class="edge">
<title>pcre2&#45;&gt;glibc</title>
<path fill="none" stroke="#444444" stroke-opacity="0.333333" d="M115.3973,-257.245C154.9221,-250.5307 208.2682,-241.4686 249.5235,-234.4604"/>
<polygon fill="#444444" fill-opacity="0.333333" stroke="#444444" stroke-opacity="0.333333" points="250.1947,-237.8966 259.4672,-232.7712 249.0223,-230.9954 250.1947,-237.8966"/>
</g>
<!-- pcre2&#45;&gt;pcre2 -->
<g id="edge45" class="edge">
<title>pcre2&#45;&gt;pcre2</title>
<path fill="none" stroke="#444444" stroke-opacity="0.333333" d="M115.4003,-273.027C125.9011,-272.258 133.327,-270.1156 133.327,-266.6 133.327,-264.3478 130.2794,-262.6592 125.3281,-261.5342"/>
<polygon fill="#444444" fill-opacity="0.333333" stroke="#444444" stroke-opacity="0.333333" points="125.7831,-258.0639 115.4003,-260.173 124.8321,-264.999 125.7831,-258.0639"/>
</g>
<!-- fedora&#45;release&#45;common&#45;&gt;fedora&#45;release -->
<g id="edge27" class="edge">
<title>fedora&#45;release&#45;common&#45;&gt;fedora&#45;release</title>
<path fill="none" stroke="#444444" stroke-opacity="0.333333" d="M1256.4387,-179.9707C1245.3506,-183.7892 1234.7431,-187.8132 1225.4756,-191.7712"/>
<polygon fill="#444444" fill-opacity="0.333333" stroke="#444444" stroke-opacity="0.333333" points="1224.0366,-188.5806 1216.339,-195.8605 1226.8963,-194.9699 1224.0366,-188.5806"/>
</g>
<!-- fedora&#45;release&#45;common&#45;&gt;fedora&#45;release -->
<g id="edge28" class="edge">
<title>fedora&#45;release&#45;common&#45;&gt;fedora&#45;release</title>
<path fill="none" stroke="#444444" stroke-dasharray="5,2" stroke-opacity="0.333333" d="M1300.5888,-179.9693C1287.4146,-184.1325 1273.289,-188.5963 1259.7463,-192.8759"/>
<polygon fill="#444444" fill-opacity="0.333333" stroke="#444444" stroke-opacity="0.333333" points="1258.4907,-189.602 1250.0101,-195.9527 1260.6,-196.2767 1258.4907,-189.602"/>
</g>
<!-- fedora&#45;release&#45;common&#45;&gt;fedora&#45;release&#45;common -->
<g id="edge26" class="edge">
<title>fedora&#45;release&#45;common&#45;&gt;fedora&#45;release&#45;common</title>
<path fill="none" stroke="#444444" stroke-opacity="0.333333" d="M1466.2304,-167.3937C1476.9696,-166.291 1483.8,-164.4564 1483.8,-161.89 1483.8,-160.2459 1480.9968,-158.9021 1476.1585,-157.8587"/>
<polygon fill="#444444" fill-opacity="0.333333" stroke="#444444" stroke-opacity="0.333333" points="1476.6357,-154.3913 1466.2304,-156.3863 1475.6087,-161.3155 1476.6357,-154.3913"/>
</g>
<!-- fedora&#45;release&#45;common&#45;&gt;fedora&#45;repos -->
<g id="edge29" class="edge">
<title>fedora&#45;release&#45;common&#45;&gt;fedora&#45;repos</title>
<path fill="none" stroke="#444444" stroke-opacity="0.333333" d="M1365.72,-180.2239C1372.5235,-195.9734 1382.4332,-218.9134 1390.1925,-236.8754"/>
<polygon fill="#444444" fill-opacity="0.333333" stroke="#444444" stroke-opacity="0.333333" points="1387.0699,-238.4728 1394.2486,-246.2648 1393.4959,-235.6968 1387.0699,-238.4728"/>
</g>
<!-- fedora&#45;repos&#45;&gt;fedora&#45;release -->
<g id="edge31" class="edge">
<title>fedora&#45;repos&#45;&gt;fedora&#45;release</title>
<path fill="none" stroke="#444444" stroke-opacity="0.333333" d="M1333.8896,-247.9939C1316,-243.6805 1296.4882,-238.976 1277.841,-234.48"/>
<polygon fill="#444444" fill-opacity="0.333333" stroke="#444444" stroke-opacity="0.333333" points="1278.4271,-231.0211 1267.8853,-232.0796 1276.7863,-237.8261 1278.4271,-231.0211"/>
</g>
<!-- fedora&#45;repos&#45;&gt;fedora&#45;repos -->
<g id="edge32" class="edge">
<title>fedora&#45;repos&#45;&gt;fedora&#45;repos</title>
<path fill="none" stroke="#444444" stroke-opacity="0.333333" d="M1470.2292,-270.626C1480.8555,-269.7012 1488.1,-267.6392 1488.1,-264.44 1488.1,-262.3905 1485.1268,-260.8077 1480.1961,-259.6917"/>
<polygon fill="#444444" fill-opacity="0.333333" stroke="#444444" stroke-opacity="0.333333" points="1480.6265,-256.2176 1470.2292,-258.254 1479.6271,-263.1459 1480.6265,-256.2176"/>
</g>
<!-- fedora&#45;repos&#45;&gt;fedora&#45;gpg&#45;keys -->
<g id="edge33" class="edge">
<title>fedora&#45;repos&#45;&gt;fedora&#45;gpg&#45;keys</title>
<path fill="none" stroke="#444444" stroke-opacity="0.333333" d="M1430.3389,-282.6325C1451.4401,-296.2266 1480.4668,-314.9266 1503.3561,-329.6727"/>
<polygon fill="#444444" fill-opacity="0.333333" stroke="#444444" stroke-opacity="0.333333" points="1501.4968,-332.6383 1511.7989,-335.1119 1505.2879,-326.7538 1501.4968,-332.6383"/>
</g>
<!-- coreutils&#45;single&#45;&gt;glibc -->
<g id="edge46" class="edge">
<title>coreutils&#45;single&#45;&gt;glibc</title>
<path fill="none" stroke="#444444" stroke-opacity="0.333333" d="M218.473,-137.8454C236.928,-154.6683 264.5768,-179.8719 285.1552,-198.6304"/>
<polygon fill="#444444" fill-opacity="0.333333" stroke="#444444" stroke-opacity="0.333333" points="282.9138,-201.3231 292.662,-205.4732 287.6295,-196.1499 282.9138,-201.3231"/>
</g>
<!-- coreutils&#45;single&#45;&gt;libacl -->
<g id="edge47" class="edge">
<title>coreutils&#45;single&#45;&gt;libacl</title>
<path fill="none" stroke="#444444" stroke-opacity="0.333333" d="M192.6109,-101.5427C187.5136,-86.0638 180.1107,-63.5834 174.2679,-45.8404"/>
<polygon fill="#444444" fill-opacity="0.333333" stroke="#444444" stroke-opacity="0.333333" points="177.4895,-44.4333 171.0373,-36.0298 170.8408,-46.6228 177.4895,-44.4333"/>
</g>
<!-- coreutils&#45;single&#45;&gt;libattr -->
<g id="edge48" class="edge">
<title>coreutils&#45;single&#45;&gt;libattr</title>
<path fill="none" stroke="#444444" stroke-opacity="0.333333" d="M214.7637,-101.4671C226.0602,-88.7036 241.3033,-71.4809 253.8297,-57.3277"/>
<polygon fill="#444444" fill-opacity="0.333333" stroke="#444444" stroke-opacity="0.333333" points="256.4603,-59.6365 260.467,-49.8285 251.2184,-54.9971 256.4603,-59.6365"/>
</g>
<!-- coreutils&#45;single&#45;&gt;libcap -->
<g id="edge49" class="edge">
<title>coreutils&#45;single&#45;&gt;libcap</title>
<path fill="none" stroke="#444444" stroke-opacity="0.333333" d="M120.0688,-119.9455C119.9244,-119.9459 119.78,-119.9463 119.6357,-119.9467"/>
<polygon fill="#444444" fill-opacity="0.333333" stroke="#444444" stroke-opacity="0.333333" points="123.1688,-116.4369 113.1785,-119.9644 123.1881,-123.4368 123.1688,-116.4369"/>
</g>
<!-- coreutils&#45;single&#45;&gt;libselinux -->
<g id="edge50" class="edge">
<title>coreutils&#45;single&#45;&gt;libselinux</title>
<path fill="none" stroke="#444444" stroke-opacity="0.333333" d="M197.5896,-137.9772C196.0904,-165.0531 193.2643,-216.0932 191.4986,-247.9813"/>
<polygon fill="#444444" fill-opacity="0.333333" stroke="#444444" stroke-opacity="0.333333" points="188.0022,-247.8208 190.9439,-257.9991 194.9915,-248.2079 188.0022,-247.8208"/>
</g>
<!-- filesystem -->
<g id="node1" class="node">
<title>filesystem</title>
<text text-anchor="middle" x="700.52" y="-278.24" font-family="Helvetica,sans-Serif" font-weight="bold" font-size="14.00" fill="#000000">filesystem (0.0 B)</text>
</g>
<!-- setup -->
<g id="node2" class="node">
<title>setup</title>
<text text-anchor="middle" x="897.6" y="-216.39" font-family="Helvetica,sans-Serif" font-weight="bold" font-size="14.00" fill="#000000">setup (709.7 kB)</text>
</g>
<!-- bash -->
<g id="node3" class="node">
<title>bash</title>
<text text-anchor="middle" x="449.64" y="-332.29" font-family="Helvetica,sans-Serif" font-weight="bold" font-size="14.00" fill="#000000">bash (7.2 MB)</text>
</g>
<!-- fedora&#45;release -->
<g id="node4" class="node">
<title>fedora&#45;release</title>
<text text-anchor="middle" x="1192.9" y="-210.3" font-family="Helvetica,sans-Serif" font-weight="bold" font-size="14.00" fill="#000000">fedora&#45;release (691.0 B)</text>
</g>
<!-- glibc -->
<g id="node5" class="node">
<title>glibc</title>
<text text-anchor="middle" x="312.69" y="-220.03" font-family="Helvetica,sans-Serif" font-weight="bold" font-size="14.00" fill="#000000">glibc (16.5 MB)</text>
</g>
<!-- ncurses&#45;libs -->
<g id="node6" class="node">
<title>ncurses&#45;libs</title>
<text text-anchor="middle" x="469.88" y="-454.44" font-family="Helvetica,sans-Serif" font-weight="bold" font-size="14.00" fill="#000000">ncurses&#45;libs (1.0 MB)</text>
</g>
<!-- basesystem -->
<g id="node7" class="node">
<title>basesystem</title>
<text text-anchor="middle" x="625.54" y="-198.16" font-family="Helvetica,sans-Serif" font-weight="bold" font-size="14.00" fill="#000000">basesystem (0.0 B)</text>
</g>
<!-- glibc&#45;common -->
<g id="node8" class="node">
<title>glibc&#45;common</title>
<text text-anchor="middle" x="202.55" y="-398.72" font-family="Helvetica,sans-Serif" font-weight="bold" font-size="14.00" fill="#000000">glibc&#45;common (2.6 MB)</text>
</g>
<!-- glibc&#45;minimal&#45;langpack -->
<g id="node9" class="node">
<title>glibc&#45;minimal&#45;langpack</title>
<text text-anchor="middle" x="297.87" y="-442.73" font-family="Helvetica,sans-Serif" font-weight="bold" font-size="14.00" fill="#000000">glibc&#45;minimal&#45;langpack (0.0 B)</text>
</g>
<!-- libgcc -->
<g id="node10" class="node">
<title>libgcc</title>
<text text-anchor="middle" x="405.78" y="-27.329" font-family="Helvetica,sans-Serif" font-weight="bold" font-size="14.00" fill="#000000">libgcc (190.3 kB)</text>
</g>
<!-- ncurses&#45;base -->
<g id="node11" class="node">
<title>ncurses&#45;base</title>
<text text-anchor="middle" x="563.39" y="-633.27" font-family="Helvetica,sans-Serif" font-weight="bold" font-size="14.00" fill="#000000">ncurses&#45;base (275.1 kB)</text>
</g>
<!-- libacl -->
<g id="node12" class="node">
<title>libacl</title>
<text text-anchor="middle" x="165.1" y="-14.3" font-family="Helvetica,sans-Serif" font-weight="bold" font-size="14.00" fill="#000000">libacl (47.5 kB)</text>
</g>
<!-- libattr -->
<g id="node13" class="node">
<title>libattr</title>
<text text-anchor="middle" x="276.61" y="-27.889" font-family="Helvetica,sans-Serif" font-weight="bold" font-size="14.00" fill="#000000">libattr (29.5 kB)</text>
</g>
<!-- libcap -->
<g id="node14" class="node">
<title>libcap</title>
<text text-anchor="middle" x="56.5" y="-116.42" font-family="Helvetica,sans-Serif" font-weight="bold" font-size="14.00" fill="#000000">libcap (147.0 kB)</text>
</g>
<!-- libselinux -->
<g id="node15" class="node">
<title>libselinux</title>
<text text-anchor="middle" x="189.94" y="-272.43" font-family="Helvetica,sans-Serif" font-weight="bold" font-size="14.00" fill="#000000">libselinux (185.3 kB)</text>
</g>
<!-- libsepol -->
<g id="node16" class="node">
<title>libsepol</title>
<text text-anchor="middle" x="325.5" y="-310.96" font-family="Helvetica,sans-Serif" font-weight="bold" font-size="14.00" fill="#000000">libsepol (756.0 kB)</text>
</g>
<!-- pcre2 -->
<g id="node17" class="node">
<title>pcre2</title>
<text text-anchor="middle" x="60.327" y="-262.9" font-family="Helvetica,sans-Serif" font-weight="bold" font-size="14.00" fill="#000000">pcre2 (715.2 kB)</text>
</g>
<!-- fedora&#45;release&#45;common -->
<g id="node18" class="node">
<title>fedora&#45;release&#45;common</title>
<text text-anchor="middle" x="1357.8" y="-158.19" font-family="Helvetica,sans-Serif" font-weight="bold" font-size="14.00" fill="#000000">fedora&#45;release&#45;common (14.0 kB)</text>
</g>
<!-- fedora&#45;repos -->
<g id="node19" class="node">
<title>fedora&#45;repos</title>
<text text-anchor="middle" x="1402.1" y="-260.74" font-family="Helvetica,sans-Serif" font-weight="bold" font-size="14.00" fill="#000000">fedora&#45;repos (8.6 kB)</text>
</g>
<!-- fedora&#45;gpg&#45;keys -->
<g id="node20" class="node">
<title>fedora&#45;gpg&#45;keys</title>
<text text-anchor="middle" x="1540" y="-349.58" font-family="Helvetica,sans-Serif" font-weight="bold" font-size="14.00" fill="#000000">fedora&#45;gpg&#45;keys (101.4 kB)</text>
</g>
<!-- tzdata -->
<g id="node21" class="node">
<title>tzdata</title>
<text text-anchor="middle" x="94.112" y="-591.18" font-family="Helvetica,sans-Serif" font-weight="bold" font-size="14.00" fill="#000000">tzdata (1.8 MB)</text>
</g>
<!-- coreutils&#45;single -->
<g id="node22" class="node">
<title>coreutils&#45;single</title>
<text text-anchor="middle" x="198.6" y="-116.03" font-family="Helvetica,sans-Serif" font-weight="bold" font-size="14.00" fill="#000000">coreutils&#45;single (1.5 MB)</text>
</g>
</g>

<script type="text/javascript"><![CDATA[

document.addEventListener('click', function(e) {
      e = e || window.event;
      var target = e.target || e.srcElement;
      text = target.parentElement.querySelector("title").textContent;

      console.log("Clicked on: " + text);
      // reset all strokes
      var nodes = document.getElementsByClassName("edge");

      for (index = 0, len = nodes.length; index < len; ++index) {
          //var title = nodes[index].querySelector("title").textContent.split("->");
          id = nodes[index].id;
          document.getElementById(id).querySelector("path").setAttribute("stroke-width", "1");
          document.getElementById(id).querySelector("path").setAttribute("stroke-opacity", "0.5");
          document.getElementById(id).querySelector("path").setAttribute("stroke", "#444444");
          document.getElementById(id).querySelector("polygon").setAttribute("stroke-width", "1");
          document.getElementById(id).querySelector("polygon").setAttribute("stroke-opacity", "0.5");
          document.getElementById(id).querySelector("polygon").setAttribute("stroke", "#444444");
      }
      // reset text highlight
      pkgs = document.getElementsByClassName("node");
      for (index2 = 0, len2 = pkgs.length; index2 < len2; ++index2) {
          target_id = pkgs[index2].id;
          document.getElementById(target_id).querySelector("text").setAttribute("font-weight", "normal");
      }

      // highlight deps
      var nodes = document.getElementsByClassName("edge");
      for (index = 0, len = nodes.length; index < len; ++index) {
        var title = nodes[index].querySelector("title").textContent.split("->");

        if (title[0] == text) {
          id = nodes[index].id;
          //console.log("ID:   " + id);
          document.getElementById(id).querySelector("path").setAttribute("stroke-width", "3");
          document.getElementById(id).querySelector("path").setAttribute("stroke-opacity", "1");
          document.getElementById(id).querySelector("path").setAttribute("stroke", "#aa3333");
          document.getElementById(id).querySelector("polygon").setAttribute("stroke-width", "5");
          document.getElementById(id).querySelector("polygon").setAttribute("stroke-opacity", "1");
          document.getElementById(id).querySelector("polygon").setAttribute("stroke", "#aa3333");

        }
        if (title[1] == text) {
          id = nodes[index].id;
          document.getElementById(id).querySelector("path").setAttribute("stroke-width", "3");
          document.getElementById(id).querySelector("path").setAttribute("stroke-opacity", "1");
          document.getElementById(id).querySelector("path").setAttribute("stroke", "#333377");
          document.getElementById(id).querySelector("polygon").setAttribute("stroke-width", "5");
          document.getElementById(id).querySelector("polygon").setAttribute("stroke-opacity", "1");
          document.getElementById(id).querySelector("polygon").setAttribute("stroke", "#333377");
        }

        if (title[0] == text || title[1] == text) {
          pkgs = document.getElementsByClassName("node");
          for (index2 = 0, len2 = pkgs.length; index2 < len2; ++index2) {
            var pkg_name = pkgs[index2].querySelector("title").textContent;
            if (pkg_name == title[0] || pkg_name == title[1]) {
              target_id = pkgs[index2].id;
              document.getElementById(target_id).querySelector("text").setAttribute("font-weight", "bold");
            }
          }
        }
      }


  }, false);

]]></script>


  <text
     id="text7664"
     y="19.384439"
     x="9.9055691"
     style="font-style:normal;font-weight:normal;font-size:12.49485588px;line-height:125%;font-family:sans-serif;letter-spacing:0px;word-spacing:0px;fill:#000000;fill-opacity:1;stroke:none;stroke-width:0.3123714px;stroke-linecap:butt;stroke-linejoin:miter;stroke-opacity:1"
     xml:space="preserve"><tspan
       style="font-size:12.00258541px;stroke-width:0.3123714px"
       y="19.384439"
       x="9.9055691"
       id="tspan7666"><a href="report-use-case-definition--freeipa-trust-controller--31.html"><tspan
   style="font-weight:bold;font-size:12.00258541px;fill:#0066ff;stroke-width:0.3123714px"
   id="tspan7668">FreeIPA Trust Controller</tspan></a> on <a href="report-base-definition--minimal-langpack-base-2--31.html"><tspan
   style="font-weight:bold;font-size:12.00258541px;fill:#0066ff;stroke-width:0.3123714px"
   id="tspan7676">Minimal Base 2</tspan></a> (Fedora 31)</tspan></text>
  <text
     xml:space="preserve"
     style="font-style:normal;font-weight:normal;font-size:11.85299969px;line-height:125%;font-family:sans-serif;letter-spacing:0px;word-spacing:0px;fill:#000000;fill-opacity:1;stroke:none;stroke-width:0.296325px;stroke-linecap:butt;stroke-linejoin:miter;stroke-opacity:1"
     x="9.9365959"
     y="58.520042"
     id="text8235"><tspan
       id="tspan8237"
       x="9.9365959"
       y="58.520042"
       style="stroke-width:0.296325px;font-size:10.80232704px;fill:#666666">Generated by <a href="./"><tspan
   style="fill:#3771c8"
   id="tspan8255">Feedback Pipeline</tspan></a></tspan></text>
  <text
     xml:space="preserve"
     style="font-style:normal;font-weight:normal;font-size:12.49485588px;line-height:125%;font-family:sans-serif;letter-spacing:0px;word-spacing:0px;fill:#000000;fill-opacity:1;stroke:none;stroke-width:0.3123714px;stroke-linecap:butt;stroke-linejoin:miter;stroke-opacity:1"
     x="9.9055691"
     y="38.974205"
     id="text8245"><a href="graph-simple--freeipa-trust-controller--minimal-langpack-base-2--31.svg"><tspan
       id="tspan8247"
       x="9.9055691"
       y="38.974205"
       style="font-weight:normal;font-size:12.00258541px;fill:#0066ff;stroke-width:0.3123714px">Collapse base image</tspan></a></text>

</svg>
