<?xml version="1.0" encoding="UTF-8" standalone="no"?>
<!DOCTYPE svg PUBLIC "-//W3C//DTD SVG 1.1//EN"
 "http://www.w3.org/Graphics/SVG/1.1/DTD/svg11.dtd">
<!-- Generated by graphviz version 2.40.1 (0)
 -->
<!-- Title: packages Pages: 1 -->
<svg width="1218pt" height="790pt"
 viewBox="0.00 0.00 1461.66 948.52" xmlns="http://www.w3.org/2000/svg" xmlns:xlink="http://www.w3.org/1999/xlink">
<g id="graph0" class="graph" transform="scale(.8333 .8333) rotate(0) translate(158.5048 794.4575)">
<title>packages</title>
<polygon fill="#dae2ff" stroke="transparent" points="-158.5048,154.0674 -158.5048,-794.4575 1303.1521,-794.4575 1303.1521,154.0674 -158.5048,154.0674"/>
<polygon fill="#ccebc5" stroke="#ccebc5" points="485.8328,-427.1972 482.0999,-431.0897 473.8023,-438.7515 462.3176,-450.4779 457.2551,-456.1376 583.9926,-444.369 587.6791,-441.0244 588.0698,-440.9139 595.0295,-492.769 602.0079,-585.6232 603.325,-609.1869 604.9994,-438.6188 606.82,-438.6188 610.2661,-441.7993 615.4213,-443.3774 615.4213,-443.3774 610.2661,-441.7993 606.82,-438.6188 604.9994,-438.6188 603.325,-609.1869 602.0079,-585.6232 595.0295,-492.769 588.0698,-440.9139 587.6791,-441.0244 583.9926,-444.369 457.2551,-456.1376 453.0563,-460.6083 441.5225,-473.9625 431.1833,-486.8891 421.8202,-499.0196 401.4273,-527.2665 421.0884,-571.8922 426.0642,-582.7399 568.4171,-622.3181 604.2597,-632.8734 608.733,-634.4742 616.6224,-637.4244 630.5084,-643.0637 635.746,-645.4433 636.1543,-645.6354 647.4784,-644.5587 686.6324,-641.3675 713.9144,-492.2643 718.7968,-457.8188 720.0624,-451.0473 722.2397,-428.7636 729.0115,-391.7544 745.5874,-386.4245 759.9041,-382.8193 762.9817,-382.2611 777.2567,-380.6615 782.7418,-380.2393 787.1948,-380.2082 794.9622,-379.873 795.1838,-379.8712 800.3522,-380.0107 803.347,-379.9834 803.6066,-379.9992 814.1432,-379.8804 817.5266,-379.9609 820.4722,-379.9247 822.7747,-379.73 823.7659,-379.7158 832.1278,-379.8878 835.7225,-380.2145 845.2557,-380.0459 850.7908,-380.3369 857.2615,-380.4426 857.7573,-380.4681 867.2851,-381.2913 880.129,-383.3007 964.5662,-399.432 973.8104,-362.536 981.2666,-324.1072 981.9664,-320.9893 989.7231,-281.0233 1005.6431,-217.4821 924.995,-150.6032 919.7261,-94.334 918.1359,-30.3502 886.5287,28.4562 835.0881,54.6159 784.1223,52.1044 767.5118,52.2537 758.4647,52.5109 754.6107,52.7701 747.3162,53.4024 733.1931,55.1759 722.3773,57.1651 719.79,-60.302 722.6485,-93.9554 720.5473,-94.603 724.6542,-120.6104 728.5546,-94.4664 731.4462,-94.4664 735.1044,-122.9226 739.189,-94.4276 739.197,-94.4276 742.2223,-97.0092 742.2223,-97.0092 739.197,-94.4276 739.189,-94.4276 735.1044,-122.9226 731.4462,-94.4664 728.5546,-94.4664 724.6542,-120.6104 720.5473,-94.603 722.6485,-93.9554 719.79,-60.302 722.3773,57.1651 720.5704,57.568 700.9343,26.6508 671.7034,-17.0342 671.659,-17.1064 670.0611,-19.9478 638.2435,-82.1713 610.9317,-125.8561 596.7389,-147.067 595.6797,-147.0804 591.1,-147.2402 580.4453,-147.3727 578.0992,-147.5061 561.3892,-149.2029 553.3109,-150.2025 549.3966,-150.8602 547.0253,-151.3646 524.7905,-156.5974 485.6802,-167.5241 493.6372,-186.0536 533.4719,-269.0275 538.0298,-279.916 584.0486,-279.4085 594.6681,-282.8226 597.0953,-316.341 596.519,-357.4425 601.816,-357.4667 606.0988,-276.4078 606.9435,-276.4078 611.0491,-279.9249 616.046,-281.3451 622.2222,-279.5047 625.549,-276.6551 621.4998,-272.9216 616.5144,-271.4356 616.5144,-271.4356 621.4998,-272.9216 625.549,-276.6551 622.2222,-279.5047 616.046,-281.3451 611.0491,-279.9249 606.9435,-276.4078 606.0988,-276.4078 601.816,-357.4667 596.519,-357.4425 597.0953,-316.341 594.6681,-282.8226 584.0486,-279.4085 538.0298,-279.916 550.1476,-321.1432 552.1022,-325.8337 566.5624,-355.9538 497.8538,-415.9976 485.8328,-427.1972 485.8328,-427.1972"/>
<polygon fill="#fed9a6" stroke="#fed9a6" points="1297.5182,-374.3356 1295.8955,-335.142 1295.9708,-265.7132 1291.2689,-258.6318 1279.002,-246.4928 1278.8158,-246.3885 1163.5125,-202.2197 1145.2623,-194.8223 1140.9259,-192.9714 1136.8567,-194.4346 1134.016,-195.3979 1135.9199,-347.8668 1131.4869,-347.8668 1127.8737,-314.9224 1124.7034,-344.5083 1129.131,-348.5676 1126.4486,-350.8003 1126.4486,-350.8003 1129.131,-348.5676 1124.7034,-344.5083 1120.2368,-343.2272 1120.2368,-343.2272 1124.7034,-344.5083 1127.8737,-314.9224 1131.4869,-347.8668 1135.9199,-347.8668 1134.016,-195.3979 1127.7255,-197.4031 1118.532,-199.961 1113.8721,-201.0691 1103.5042,-203.3259 1097.5381,-204.5034 1086.469,-206.4633 1005.6431,-217.4821 989.7231,-281.0233 981.9664,-320.9893 981.2666,-324.1072 973.8104,-362.536 964.5662,-399.432 987.5984,-455.0566 986.3895,-456.3173 986.3895,-456.3173 987.5984,-455.0566 964.5662,-399.432 880.129,-383.3007 867.2851,-381.2913 857.7573,-380.4681 857.2615,-380.4426 850.7908,-380.3369 845.2557,-380.0459 835.7225,-380.2145 832.1278,-379.8878 823.7659,-379.7158 822.7747,-379.73 820.4722,-379.9247 817.5266,-379.9609 814.1432,-379.8804 803.6066,-379.9992 803.347,-379.9834 800.3522,-380.0107 795.1838,-379.8712 794.9622,-379.873 787.1948,-380.2082 782.7418,-380.2393 777.2567,-380.6615 762.9817,-382.2611 759.9041,-382.8193 745.5874,-386.4245 729.0115,-391.7544 722.2397,-428.7636 720.0624,-451.0473 718.7968,-457.8188 713.9144,-492.2643 686.6324,-641.3675 722.902,-652.0492 795.1895,-651.8735 813.2927,-652.6519 953.3424,-779.3472 975.306,-790.4575 995.8788,-785.5 1003.4767,-784.0289 1020.4221,-781.2805 1016.6436,-603.378 1012.2927,-603.378 1011.5712,-603.1628 1006.2347,-603.1628 1005.9918,-603.0907 1001.7607,-603.0907 1001.1923,-602.9206 1001.1923,-602.9206 1001.7607,-603.0907 1005.9918,-603.0907 1006.2347,-603.1628 1011.5712,-603.1628 1012.2927,-603.378 1016.6436,-603.378 1020.4221,-781.2805 1028.1903,-780.1436 1031.6125,-779.7512 1032.5646,-606.3745 1036.5341,-602.926 1033.1578,-600.0527 1033.1578,-600.0527 1036.5341,-602.926 1032.5646,-606.3745 1031.6125,-779.7512 1040.8986,-778.8328 1041.7083,-778.7784 1049.9565,-778.3531 1053.6559,-603.3603 1056.5515,-603.3603 1056.5515,-603.3603 1053.6559,-603.3603 1049.9565,-778.3531 1066.373,-777.766 1092.3593,-777.658 1093.6731,-776.4486 1214.1638,-653.4914 1223.7737,-603.02 1227.3195,-588.8583 1211.7308,-513.0887 1299.1521,-400.4964 1297.5182,-374.3356 1297.5182,-374.3356"/>
<polygon fill="#fbb4ae" stroke="#fbb4ae" points="671.659,-17.1064 671.7034,-17.0342 700.9343,26.6508 720.5704,57.568 639.0035,131.8259 598.9104,148.6084 591.6949,-11.8302 587.1285,-15.4568 585.7023,-18.0335 580.9648,-18.0335 579.9538,-17.726 576.1877,-17.726 576.1877,-17.726 579.9538,-17.726 580.9648,-18.0335 585.7023,-18.0335 587.1285,-15.4568 591.6949,-11.8302 598.9104,148.6084 595.5846,150.0674 586.4501,147.854 569.2834,144.3099 560.7102,142.8501 552.2946,141.7203 533.0385,140.1723 527.7562,139.8429 529.8514,19.4735 529.8514,19.4735 527.7562,139.8429 458.716,138.0238 371.9321,81.6796 333.153,36.4761 311.5654,2.9807 312.9653,-18 315.2642,-112.9581 250.2015,-187.9852 112.9048,-180.9569 86.3669,-181.859 64.2459,-181.7823 59.0129,-181.372 52.4651,-328.4326 48.7624,-331.5703 52.5394,-334.9066 52.5394,-334.9066 48.7624,-331.5703 52.4651,-328.4326 59.0129,-181.372 58.2671,-181.2995 42.7371,-183.3949 31.9726,-184.434 14.2103,-185.4673 -34.12,-200.8238 -127.7662,-274.2726 -154.5048,-312.4219 -153.1924,-328.0571 -152.818,-333.6138 -152.0611,-355.6737 -101.6349,-451.2825 -5.0534,-508.453 -1.398,-585.3146 -.2606,-629.8636 -.8888,-663.2399 1.6447,-680.3116 92.0018,-767.554 142.8187,-759.7034 143.6855,-759.587 147.5954,-759.2191 164.4778,-757.9683 183.5197,-757.7083 192.7254,-758.1385 205.6866,-759.2665 216.9622,-760.7019 213.1873,-615.3325 208.8173,-615.3325 207.899,-615.0489 207.899,-615.0489 208.8173,-615.3325 213.1873,-615.3325 216.9622,-760.7019 220.1433,-761.1707 252.3683,-766.5666 339.9444,-717.7137 361.7954,-689.9439 387.7722,-644.9036 401.0623,-622.7939 426.0642,-582.7399 421.0884,-571.8922 401.4273,-527.2665 421.8202,-499.0196 431.1833,-486.8891 441.5225,-473.9625 453.0563,-460.6083 457.2551,-456.1376 462.3176,-450.4779 463.118,-354.7401 460.1538,-327.408 455.7829,-327.408 448.8362,-323.1337 448.8153,-323.1098 445.5428,-323.1098 443.9315,-322.6138 439.9159,-322.6138 433.74,-247.7589 431.4972,-194.3957 431.4972,-194.3957 433.74,-247.7589 439.9159,-322.6138 443.9315,-322.6138 445.5428,-323.1098 448.8153,-323.1098 448.8362,-323.1337 455.7829,-327.408 460.1538,-327.408 467.0687,-323.1768 467.4714,-322.719 466.4855,-321.6033 460.5259,-318.1101 455.8058,-318.1101 455.8058,-318.1101 460.5259,-318.1101 466.4855,-321.6033 467.4714,-322.719 467.0687,-323.1768 460.1538,-327.408 463.118,-354.7401 462.3176,-450.4779 473.8023,-438.7515 473.9889,-347.9181 478.1894,-322.8474 476.826,-322.4367 476.826,-322.4367 478.1894,-322.8474 473.9889,-347.9181 473.8023,-438.7515 482.0999,-431.0897 485.8328,-427.1972 497.8538,-415.9976 566.5624,-355.9538 552.1022,-325.8337 550.1476,-321.1432 538.0298,-279.916 533.4719,-269.0275 493.6372,-186.0536 485.6802,-167.5241 524.7905,-156.5974 547.0253,-151.3646 549.3966,-150.8602 553.3109,-150.2025 561.3892,-149.2029 578.0992,-147.5061 576.0271,-97.4389 569.7262,-18.0811 569.0759,-18.0811 565.5357,-14.9795 565.5357,-14.9795 569.0759,-18.0811 569.7262,-18.0811 576.0271,-97.4389 578.0992,-147.5061 580.4453,-147.3727 591.1,-147.2402 595.6797,-147.0804 596.7389,-147.067 610.9317,-125.8561 638.2435,-82.1713 670.0611,-19.9478 671.659,-17.1064 671.659,-17.1064"/>
<polyline fill="none" stroke="#000000" points="803.347,-379.9834 803.6066,-379.9992 814.1432,-379.8804 817.5266,-379.9609 820.4722,-379.9247 822.7747,-379.73 823.7659,-379.7158 832.1278,-379.8878 835.7225,-380.2145 845.2557,-380.0459 850.7908,-380.3369 857.2615,-380.4426 857.7573,-380.4681 867.2851,-381.2913 880.129,-383.3007 964.5662,-399.432 973.8104,-362.536 981.2666,-324.1072 981.9664,-320.9893 989.7231,-281.0233 1005.6431,-217.4821 924.995,-150.6032 919.7261,-94.334 918.1359,-30.3502 886.5287,28.4562 835.0881,54.6159 784.1223,52.1044 767.5118,52.2537 758.4647,52.5109 754.6107,52.7701 747.3162,53.4024 733.1931,55.1759 722.3773,57.1651 720.5704,57.568 700.9343,26.6508 671.7034,-17.0342 671.659,-17.1064 670.0611,-19.9478 638.2435,-82.1713 610.9317,-125.8561 596.7389,-147.067 595.6797,-147.0804 591.1,-147.2402 580.4453,-147.3727 578.0992,-147.5061 561.3892,-149.2029 553.3109,-150.2025 549.3966,-150.8602 547.0253,-151.3646 524.7905,-156.5974 485.6802,-167.5241 493.6372,-186.0536 533.4719,-269.0275 538.0298,-279.916 550.1476,-321.1432 552.1022,-325.8337 566.5624,-355.9538 497.8538,-415.9976 485.8328,-427.1972 482.0999,-431.0897 473.8023,-438.7515 462.3176,-450.4779 457.2551,-456.1376 453.0563,-460.6083 441.5225,-473.9625 431.1833,-486.8891 421.8202,-499.0196 401.4273,-527.2665 421.0884,-571.8922 426.0642,-582.7399 568.4171,-622.3181 604.2597,-632.8734 608.733,-634.4742 616.6224,-637.4244 630.5084,-643.0637 635.746,-645.4433 636.1543,-645.6354 647.4784,-644.5587 686.6324,-641.3675 713.9144,-492.2643 718.7968,-457.8188 720.0624,-451.0473 722.2397,-428.7636 729.0115,-391.7544 745.5874,-386.4245 759.9041,-382.8193 762.9817,-382.2611 777.2567,-380.6615 782.7418,-380.2393 787.1948,-380.2082 794.9622,-379.873 795.1838,-379.8712 800.3522,-380.0107 803.347,-379.9834 "/>
<polyline fill="none" stroke="#000000" points="820.4722,-379.9247 817.5266,-379.9609 814.1432,-379.8804 803.6066,-379.9992 803.347,-379.9834 800.3522,-380.0107 795.1838,-379.8712 794.9622,-379.873 787.1948,-380.2082 782.7418,-380.2393 777.2567,-380.6615 762.9817,-382.2611 759.9041,-382.8193 745.5874,-386.4245 729.0115,-391.7544 722.2397,-428.7636 720.0624,-451.0473 718.7968,-457.8188 713.9144,-492.2643 686.6324,-641.3675 722.902,-652.0492 795.1895,-651.8735 813.2927,-652.6519 953.3424,-779.3472 975.306,-790.4575 995.8788,-785.5 1003.4767,-784.0289 1020.4221,-781.2805 1028.1903,-780.1436 1031.6125,-779.7512 1040.8986,-778.8328 1041.7083,-778.7784 1049.9565,-778.3531 1066.373,-777.766 1092.3593,-777.658 1093.6731,-776.4486 1214.1638,-653.4914 1223.7737,-603.02 1227.3195,-588.8583 1211.7308,-513.0887 1299.1521,-400.4964 1297.5182,-374.3356 1295.8955,-335.142 1295.9708,-265.7132 1291.2689,-258.6318 1279.002,-246.4928 1278.8158,-246.3885 1163.5125,-202.2197 1145.2623,-194.8223 1140.9259,-192.9714 1136.8567,-194.4346 1134.016,-195.3979 1127.7255,-197.4031 1118.532,-199.961 1113.8721,-201.0691 1103.5042,-203.3259 1097.5381,-204.5034 1086.469,-206.4633 1005.6431,-217.4821 989.7231,-281.0233 981.9664,-320.9893 981.2666,-324.1072 973.8104,-362.536 964.5662,-399.432 880.129,-383.3007 867.2851,-381.2913 857.7573,-380.4681 857.2615,-380.4426 850.7908,-380.3369 845.2557,-380.0459 835.7225,-380.2145 832.1278,-379.8878 823.7659,-379.7158 822.7747,-379.73 820.4722,-379.9247 "/>
<polyline fill="none" stroke="#000000" points="183.5197,-757.7083 192.7254,-758.1385 205.6866,-759.2665 216.9622,-760.7019 220.1433,-761.1707 252.3683,-766.5666 339.9444,-717.7137 361.7954,-689.9439 387.7722,-644.9036 401.0623,-622.7939 426.0642,-582.7399 421.0884,-571.8922 401.4273,-527.2665 421.8202,-499.0196 431.1833,-486.8891 441.5225,-473.9625 453.0563,-460.6083 457.2551,-456.1376 462.3176,-450.4779 473.8023,-438.7515 482.0999,-431.0897 485.8328,-427.1972 497.8538,-415.9976 566.5624,-355.9538 552.1022,-325.8337 550.1476,-321.1432 538.0298,-279.916 533.4719,-269.0275 493.6372,-186.0536 485.6802,-167.5241 524.7905,-156.5974 547.0253,-151.3646 549.3966,-150.8602 553.3109,-150.2025 561.3892,-149.2029 578.0992,-147.5061 580.4453,-147.3727 591.1,-147.2402 595.6797,-147.0804 596.7389,-147.067 610.9317,-125.8561 638.2435,-82.1713 670.0611,-19.9478 671.659,-17.1064 671.7034,-17.0342 700.9343,26.6508 720.5704,57.568 639.0035,131.8259 598.9104,148.6084 595.5846,150.0674 586.4501,147.854 569.2834,144.3099 560.7102,142.8501 552.2946,141.7203 533.0385,140.1723 527.7562,139.8429 458.716,138.0238 371.9321,81.6796 333.153,36.4761 311.5654,2.9807 312.9653,-18 315.2642,-112.9581 250.2015,-187.9852 112.9048,-180.9569 86.3669,-181.859 64.2459,-181.7823 59.0129,-181.372 58.2671,-181.2995 42.7371,-183.3949 31.9726,-184.434 14.2103,-185.4673 -34.12,-200.8238 -127.7662,-274.2726 -154.5048,-312.4219 -153.1924,-328.0571 -152.818,-333.6138 -152.0611,-355.6737 -101.6349,-451.2825 -5.0534,-508.453 -1.398,-585.3146 -.2606,-629.8636 -.8888,-663.2399 1.6447,-680.3116 92.0018,-767.554 142.8187,-759.7034 143.6855,-759.587 147.5954,-759.2191 164.4778,-757.9683 183.5197,-757.7083 "/>
<!-- apr&#45;&gt;Fedora Container Base -->
<g id="edge1" class="edge">
<title>apr&#45;&gt;Fedora Container Base</title>
<path fill="none" stroke="#444444" stroke-opacity="0.333333" d="M665.0946,-281.2836C673.2957,-282.1194 682.113,-283.018 691.201,-283.9441"/>
<polygon fill="#444444" fill-opacity="0.333333" stroke="#444444" stroke-opacity="0.333333" points="690.849,-287.4263 701.1523,-284.9583 691.5587,-280.4624 690.849,-287.4263"/>
</g>
<!-- apr&#45;util&#45;&gt;Fedora Container Base -->
<g id="edge2" class="edge">
<title>apr&#45;util&#45;&gt;Fedora Container Base</title>
<path fill="none" stroke="#444444" stroke-opacity="0.333333" d="M818.1326,-445.8606C816.4271,-416.5904 813.0747,-359.0558 811.056,-324.4113"/>
<polygon fill="#444444" fill-opacity="0.333333" stroke="#444444" stroke-opacity="0.333333" points="814.5271,-323.8117 810.4513,-314.0323 807.539,-324.219 814.5271,-323.8117"/>
</g>
<!-- apr&#45;util&#45;&gt;apr -->
<g id="edge3" class="edge">
<title>apr&#45;util&#45;&gt;apr</title>
<path fill="none" stroke="#444444" stroke-opacity="0.333333" d="M799.7537,-446.1672C763.4287,-412.5198 685.1947,-340.0528 643.6332,-301.555"/>
<polygon fill="#444444" fill-opacity="0.333333" stroke="#444444" stroke-opacity="0.333333" points="645.7902,-298.7821 636.0754,-294.5543 641.0333,-303.9175 645.7902,-298.7821"/>
</g>
<!-- apr&#45;util&#45;&gt;apr&#45;util&#45;bdb -->
<g id="edge4" class="edge">
<title>apr&#45;util&#45;&gt;apr&#45;util&#45;bdb</title>
<path fill="none" stroke="#444444" stroke-dasharray="5,2" stroke-opacity="0.333333" d="M878.8018,-447.0231C937.1317,-426.5331 1024.5656,-392.6374 1076.5954,-370.2236"/>
<polygon fill="#444444" fill-opacity="0.333333" stroke="#444444" stroke-opacity="0.333333" points="1078.1131,-373.3801 1085.8834,-366.1779 1075.3177,-366.9625 1078.1131,-373.3801"/>
</g>
<!-- apr&#45;util&#45;&gt;apr&#45;util&#45;openssl -->
<g id="edge5" class="edge">
<title>apr&#45;util&#45;&gt;apr&#45;util&#45;openssl</title>
<path fill="none" stroke="#444444" stroke-dasharray="5,2" stroke-opacity="0.333333" d="M838.6689,-482.3853C871.2881,-507.449 937.6192,-552.1852 982.2965,-579.655"/>
<polygon fill="#444444" fill-opacity="0.333333" stroke="#444444" stroke-opacity="0.333333" points="980.5649,-582.6984 990.9268,-584.9078 984.2043,-576.7188 980.5649,-582.6984"/>
</g>
<!-- apr&#45;util&#45;bdb&#45;&gt;Fedora Container Base -->
<g id="edge23" class="edge">
<title>apr&#45;util&#45;bdb&#45;&gt;Fedora Container Base</title>
<path fill="none" stroke="#444444" stroke-opacity="0.333333" d="M1051.453,-336.6231C1008.0887,-329.3436 951.4373,-319.8336 903.8441,-311.8442"/>
<polygon fill="#444444" fill-opacity="0.333333" stroke="#444444" stroke-opacity="0.333333" points="904.2752,-308.3677 893.8337,-310.1638 903.1163,-315.2711 904.2752,-308.3677"/>
</g>
<!-- apr&#45;util&#45;bdb&#45;&gt;apr&#45;util -->
<g id="edge24" class="edge">
<title>apr&#45;util&#45;bdb&#45;&gt;apr&#45;util</title>
<path fill="none" stroke="#444444" stroke-opacity="0.333333" d="M1057.8624,-366.1796C999.7174,-386.6942 914.3498,-419.815 863.0223,-441.9066"/>
<polygon fill="#444444" fill-opacity="0.333333" stroke="#444444" stroke-opacity="0.333333" points="861.3112,-438.8341 853.5388,-446.0342 864.1048,-445.2525 861.3112,-438.8341"/>
</g>
<!-- apr&#45;util&#45;openssl&#45;&gt;Fedora Container Base -->
<g id="edge25" class="edge">
<title>apr&#45;util&#45;openssl&#45;&gt;Fedora Container Base</title>
<path fill="none" stroke="#444444" stroke-opacity="0.333333" d="M1014.3219,-584.7333C977.383,-532.6849 871.5529,-383.566 828.2324,-322.5257"/>
<polygon fill="#444444" fill-opacity="0.333333" stroke="#444444" stroke-opacity="0.333333" points="830.952,-320.3101 822.3101,-314.1808 825.2435,-324.3615 830.952,-320.3101"/>
</g>
<!-- apr&#45;util&#45;openssl&#45;&gt;apr&#45;util -->
<g id="edge26" class="edge">
<title>apr&#45;util&#45;openssl&#45;&gt;apr&#45;util</title>
<path fill="none" stroke="#444444" stroke-opacity="0.333333" d="M1007.8311,-584.8147C975.2119,-559.751 908.8808,-515.0148 864.2035,-487.545"/>
<polygon fill="#444444" fill-opacity="0.333333" stroke="#444444" stroke-opacity="0.333333" points="865.9351,-484.5016 855.5732,-482.2922 862.2957,-490.4812 865.9351,-484.5016"/>
</g>
<!-- httpd&#45;&gt;Fedora Container Base -->
<g id="edge6" class="edge">
<title>httpd&#45;&gt;Fedora Container Base</title>
<path fill="none" stroke="#444444" stroke-opacity="0.333333" d="M533.3448,-317.0015C576.2729,-313.7341 631.2142,-309.5523 680.763,-305.781"/>
<polygon fill="#444444" fill-opacity="0.333333" stroke="#444444" stroke-opacity="0.333333" points="681.2158,-309.2567 690.9213,-305.0078 680.6845,-302.2769 681.2158,-309.2567"/>
</g>
<!-- httpd&#45;&gt;apr -->
<g id="edge7" class="edge">
<title>httpd&#45;&gt;apr</title>
<path fill="none" stroke="#444444" stroke-opacity="0.333333" d="M519.6607,-304.6599C532.276,-300.9639 545.5148,-297.0851 558.0091,-293.4245"/>
<polygon fill="#444444" fill-opacity="0.333333" stroke="#444444" stroke-opacity="0.333333" points="559.231,-296.7137 567.8435,-290.5432 557.2628,-289.9961 559.231,-296.7137"/>
</g>
<!-- httpd&#45;&gt;apr&#45;util -->
<g id="edge8" class="edge">
<title>httpd&#45;&gt;apr&#45;util</title>
<path fill="none" stroke="#444444" stroke-opacity="0.333333" d="M504.0695,-340.7971C570.2872,-366.7233 692.1455,-414.4344 763.3675,-442.3199"/>
<polygon fill="#444444" fill-opacity="0.333333" stroke="#444444" stroke-opacity="0.333333" points="762.4823,-445.732 773.0701,-446.1188 765.0344,-439.2138 762.4823,-445.732"/>
</g>
<!-- httpd&#45;&gt;fedora&#45;logos&#45;httpd -->
<g id="edge9" class="edge">
<title>httpd&#45;&gt;fedora&#45;logos&#45;httpd</title>
<path fill="none" stroke="#444444" stroke-opacity="0.333333" d="M440.4679,-341.0272C392.4354,-391.2716 258.3501,-531.5318 202.9296,-589.5044"/>
<polygon fill="#444444" fill-opacity="0.333333" stroke="#444444" stroke-opacity="0.333333" points="200.3357,-587.1528 195.9555,-596.7997 205.3956,-591.9899 200.3357,-587.1528"/>
</g>
<!-- httpd&#45;&gt;httpd -->
<g id="edge10" class="edge">
<title>httpd&#45;&gt;httpd</title>
<path fill="none" stroke="#444444" stroke-opacity="0.333333" d="M533.1184,-328.7974C543.7894,-327.8177 550.95,-325.7986 550.95,-322.74 550.95,-320.7806 548.0113,-319.2478 543.0935,-318.1415"/>
<polygon fill="#444444" fill-opacity="0.333333" stroke="#444444" stroke-opacity="0.333333" points="543.5197,-314.6667 533.1184,-316.6826 542.5066,-321.593 543.5197,-314.6667"/>
</g>
<!-- httpd&#45;&gt;httpd&#45;filesystem -->
<g id="edge11" class="edge">
<title>httpd&#45;&gt;httpd&#45;filesystem</title>
<path fill="none" stroke="#444444" stroke-opacity="0.333333" d="M481.2422,-304.4347C533.2377,-263.5714 658.7909,-164.8992 717.4308,-118.8142"/>
<polygon fill="#444444" fill-opacity="0.333333" stroke="#444444" stroke-opacity="0.333333" points="719.8805,-121.3405 725.5803,-112.4094 715.5551,-115.8367 719.8805,-121.3405"/>
</g>
<!-- httpd&#45;&gt;httpd&#45;tools -->
<g id="edge12" class="edge">
<title>httpd&#45;&gt;httpd&#45;tools</title>
<path fill="none" stroke="#444444" stroke-opacity="0.333333" d="M482.5719,-340.8541C509.4373,-360.6187 552.588,-392.3642 582.4087,-414.303"/>
<polygon fill="#444444" fill-opacity="0.333333" stroke="#444444" stroke-opacity="0.333333" points="580.6924,-417.3855 590.8215,-420.4922 584.8406,-411.7469 580.6924,-417.3855"/>
</g>
<!-- httpd&#45;&gt;mailcap -->
<g id="edge13" class="edge">
<title>httpd&#45;&gt;mailcap</title>
<path fill="none" stroke="#444444" stroke-opacity="0.333333" d="M382.7225,-324.4366C308.962,-326.1001 197.5011,-328.6139 126.2419,-330.221"/>
<polygon fill="#444444" fill-opacity="0.333333" stroke="#444444" stroke-opacity="0.333333" points="125.9477,-326.7266 116.0292,-330.4513 126.1056,-333.7248 125.9477,-326.7266"/>
</g>
<!-- httpd&#45;&gt;mod_http2 -->
<g id="edge14" class="edge">
<title>httpd&#45;&gt;mod_http2</title>
<path fill="none" stroke="#444444" stroke-opacity="0.333333" d="M467.8146,-304.3299C489.3618,-252.861 538.1458,-107.3493 554.6669,-45.9081"/>
<polygon fill="#444444" fill-opacity="0.333333" stroke="#444444" stroke-opacity="0.333333" points="558.082,-46.6812 557.1987,-36.1233 551.3052,-44.9277 558.082,-46.6812"/>
</g>
<!-- httpd&#45;filesystem&#45;&gt;Fedora Container Base -->
<g id="edge15" class="edge">
<title>httpd&#45;filesystem&#45;&gt;Fedora Container Base</title>
<path fill="none" stroke="#444444" stroke-opacity="0.333333" d="M754.0846,-112.5853C764.7594,-147.9788 788.3333,-226.1409 800.9849,-268.0888"/>
<polygon fill="#444444" fill-opacity="0.333333" stroke="#444444" stroke-opacity="0.333333" points="797.7131,-269.3619 803.9516,-277.9252 804.4149,-267.3405 797.7131,-269.3619"/>
</g>
<!-- httpd&#45;tools&#45;&gt;Fedora Container Base -->
<g id="edge16" class="edge">
<title>httpd&#45;tools&#45;&gt;Fedora Container Base</title>
<path fill="none" stroke="#444444" stroke-opacity="0.333333" d="M640.0838,-420.5995C674.7534,-395.0841 738.1231,-348.4467 776.7333,-320.0313"/>
<polygon fill="#444444" fill-opacity="0.333333" stroke="#444444" stroke-opacity="0.333333" points="779.0662,-322.6601 785.0456,-313.9138 774.917,-317.0223 779.0662,-322.6601"/>
</g>
<!-- httpd&#45;tools&#45;&gt;apr -->
<g id="edge17" class="edge">
<title>httpd&#45;tools&#45;&gt;apr</title>
<path fill="none" stroke="#444444" stroke-opacity="0.333333" d="M615.627,-420.362C615.776,-392.2264 616.0626,-338.1282 616.239,-304.8308"/>
<polygon fill="#444444" fill-opacity="0.333333" stroke="#444444" stroke-opacity="0.333333" points="619.7389,-304.8286 616.2921,-294.8102 612.739,-304.7915 619.7389,-304.8286"/>
</g>
<!-- httpd&#45;tools&#45;&gt;apr&#45;util -->
<g id="edge18" class="edge">
<title>httpd&#45;tools&#45;&gt;apr&#45;util</title>
<path fill="none" stroke="#444444" stroke-opacity="0.333333" d="M685.052,-447.3777C705.8488,-449.9826 728.6514,-452.8386 749.462,-455.4452"/>
<polygon fill="#444444" fill-opacity="0.333333" stroke="#444444" stroke-opacity="0.333333" points="749.1431,-458.9325 759.5006,-456.7026 750.0131,-451.9868 749.1431,-458.9325"/>
</g>
<!-- mailcap&#45;&gt;mailcap -->
<g id="edge19" class="edge">
<title>mailcap&#45;&gt;mailcap</title>
<path fill="none" stroke="#444444" stroke-opacity="0.333333" d="M116.3117,-338.1141C126.7258,-337.2882 134,-335.1702 134,-331.76 134,-329.6287 131.1585,-328.002 126.4849,-326.8802"/>
<polygon fill="#444444" fill-opacity="0.333333" stroke="#444444" stroke-opacity="0.333333" points="126.7103,-323.3764 116.3117,-325.4059 125.7064,-330.304 126.7103,-323.3764"/>
</g>
<!-- mod_http2&#45;&gt;Fedora Container Base -->
<g id="edge20" class="edge">
<title>mod_http2&#45;&gt;Fedora Container Base</title>
<path fill="none" stroke="#444444" stroke-opacity="0.333333" d="M576.1302,-36.2397C619.3483,-84.3638 736.5515,-214.8718 786.4302,-270.4127"/>
<polygon fill="#444444" fill-opacity="0.333333" stroke="#444444" stroke-opacity="0.333333" points="783.9983,-272.943 793.284,-278.0445 789.2064,-268.2658 783.9983,-272.943"/>
</g>
<!-- mod_http2&#45;&gt;httpd -->
<g id="edge21" class="edge">
<title>mod_http2&#45;&gt;httpd</title>
<path fill="none" stroke="#444444" stroke-opacity="0.333333" d="M549.8854,-36.4101C528.3382,-87.879 479.5542,-233.3907 463.0331,-294.8319"/>
<polygon fill="#444444" fill-opacity="0.333333" stroke="#444444" stroke-opacity="0.333333" points="459.618,-294.0588 460.5013,-304.6167 466.3948,-295.8123 459.618,-294.0588"/>
</g>
<!-- mod_http2&#45;&gt;mod_http2 -->
<g id="edge22" class="edge">
<title>mod_http2&#45;&gt;mod_http2</title>
<path fill="none" stroke="#444444" stroke-opacity="0.333333" d="M629.4227,-24.1551C640.0402,-23.2158 647.25,-21.1641 647.25,-18 647.25,-15.973 644.2911,-14.4026 639.3729,-13.2886"/>
<polygon fill="#444444" fill-opacity="0.333333" stroke="#444444" stroke-opacity="0.333333" points="639.8217,-9.8172 629.4227,-11.8449 638.8165,-16.7446 639.8217,-9.8172"/>
</g>
<!-- Fedora Container Base -->
<g id="node1" class="node">
<title>Fedora Container Base</title>
<ellipse fill="none" stroke="#000000" cx="809.4" cy="-295.99" rx="136.5" ry="18"/>
<text text-anchor="middle" x="809.4" y="-292.29" font-family="Helvetica,sans-Serif" font-weight="bold" font-size="14.00" fill="#000000">Fedora Container Base (255.0 MB)</text>
</g>
<!-- apr -->
<g id="node2" class="node">
<title>apr</title>
<text text-anchor="middle" x="616.39" y="-272.62" font-family="Helvetica,sans-Serif" font-weight="bold" font-size="14.00" fill="#000000">apr (409.0 kB)</text>
</g>
<!-- apr&#45;util -->
<g id="node3" class="node">
<title>apr&#45;util</title>
<text text-anchor="middle" x="819.2" y="-460.48" font-family="Helvetica,sans-Serif" font-weight="bold" font-size="14.00" fill="#000000">apr&#45;util (296.2 kB)</text>
</g>
<!-- apr&#45;util&#45;bdb -->
<g id="node4" class="node">
<title>apr&#45;util&#45;bdb</title>
<text text-anchor="middle" x="1120" y="-344.43" font-family="Helvetica,sans-Serif" font-weight="bold" font-size="14.00" fill="#000000">apr&#45;util&#45;bdb (16.1 kB)</text>
</g>
<!-- apr&#45;util&#45;openssl -->
<g id="node5" class="node">
<title>apr&#45;util&#45;openssl</title>
<text text-anchor="middle" x="1027.3" y="-599.32" font-family="Helvetica,sans-Serif" font-weight="bold" font-size="14.00" fill="#000000">apr&#45;util&#45;openssl (24.3 kB)</text>
</g>
<!-- fedora&#45;logos&#45;httpd -->
<g id="node6" class="node">
<title>fedora&#45;logos&#45;httpd</title>
<text text-anchor="middle" x="178.48" y="-611.38" font-family="Helvetica,sans-Serif" font-weight="bold" font-size="14.00" fill="#000000">fedora&#45;logos&#45;httpd (10.0 kB)</text>
</g>
<!-- httpd -->
<g id="node7" class="node">
<title>httpd</title>
<text text-anchor="middle" x="457.95" y="-317.14" font-family="Helvetica,sans-Serif" font-weight="bold" font-size="22.00" fill="#cc0066">httpd (5.0 MB)</text>
</g>
<!-- httpd&#45;filesystem -->
<g id="node8" class="node">
<title>httpd&#45;filesystem</title>
<text text-anchor="middle" x="748.58" y="-90.634" font-family="Helvetica,sans-Serif" font-weight="bold" font-size="14.00" fill="#000000">httpd&#45;filesystem (400.0 B)</text>
</g>
<!-- httpd&#45;tools -->
<g id="node9" class="node">
<title>httpd&#45;tools</title>
<text text-anchor="middle" x="615.53" y="-434.97" font-family="Helvetica,sans-Serif" font-weight="bold" font-size="14.00" fill="#000000">httpd&#45;tools (228.6 kB)</text>
</g>
<!-- mailcap -->
<g id="node10" class="node">
<title>mailcap</title>
<text text-anchor="middle" x="58" y="-328.06" font-family="Helvetica,sans-Serif" font-weight="bold" font-size="14.00" fill="#000000">mailcap (71.2 kB)</text>
</g>
<!-- mod_http2 -->
<g id="node11" class="node">
<title>mod_http2</title>
<text text-anchor="middle" x="559.75" y="-14.3" font-family="Helvetica,sans-Serif" font-weight="bold" font-size="14.00" fill="#000000">mod_http2 (436.7 kB)</text>
</g>
</g>

<script type="text/javascript"><![CDATA[

document.addEventListener('click', function(e) {
      e = e || window.event;
      var target = e.target || e.srcElement;
      text = target.parentElement.querySelector("title").textContent;

      console.log("Clicked on: " + text);
      // reset all strokes
      var nodes = document.getElementsByClassName("edge");

      for (index = 0, len = nodes.length; index < len; ++index) {
          //var title = nodes[index].querySelector("title").textContent.split("->");
          id = nodes[index].id;
          document.getElementById(id).querySelector("path").setAttribute("stroke-width", "1");
          document.getElementById(id).querySelector("path").setAttribute("stroke-opacity", "0.5");
          document.getElementById(id).querySelector("path").setAttribute("stroke", "#444444");
          document.getElementById(id).querySelector("polygon").setAttribute("stroke-width", "1");
          document.getElementById(id).querySelector("polygon").setAttribute("stroke-opacity", "0.5");
          document.getElementById(id).querySelector("polygon").setAttribute("stroke", "#444444");
      }
      // reset text highlight
      pkgs = document.getElementsByClassName("node");
      for (index2 = 0, len2 = pkgs.length; index2 < len2; ++index2) {
          target_id = pkgs[index2].id;
          document.getElementById(target_id).querySelector("text").setAttribute("font-weight", "normal");
      }

      // highlight deps
      var nodes = document.getElementsByClassName("edge");
      for (index = 0, len = nodes.length; index < len; ++index) {
        var title = nodes[index].querySelector("title").textContent.split("->");

        if (title[0] == text) {
          id = nodes[index].id;
          //console.log("ID:   " + id);
          document.getElementById(id).querySelector("path").setAttribute("stroke-width", "3");
          document.getElementById(id).querySelector("path").setAttribute("stroke-opacity", "1");
          document.getElementById(id).querySelector("path").setAttribute("stroke", "#aa3333");
          document.getElementById(id).querySelector("polygon").setAttribute("stroke-width", "5");
          document.getElementById(id).querySelector("polygon").setAttribute("stroke-opacity", "1");
          document.getElementById(id).querySelector("polygon").setAttribute("stroke", "#aa3333");

        }
        if (title[1] == text) {
          id = nodes[index].id;
          document.getElementById(id).querySelector("path").setAttribute("stroke-width", "3");
          document.getElementById(id).querySelector("path").setAttribute("stroke-opacity", "1");
          document.getElementById(id).querySelector("path").setAttribute("stroke", "#333377");
          document.getElementById(id).querySelector("polygon").setAttribute("stroke-width", "5");
          document.getElementById(id).querySelector("polygon").setAttribute("stroke-opacity", "1");
          document.getElementById(id).querySelector("polygon").setAttribute("stroke", "#333377");
        }

        if (title[0] == text || title[1] == text) {
          pkgs = document.getElementsByClassName("node");
          for (index2 = 0, len2 = pkgs.length; index2 < len2; ++index2) {
            var pkg_name = pkgs[index2].querySelector("title").textContent;
            if (pkg_name == title[0] || pkg_name == title[1]) {
              target_id = pkgs[index2].id;
              document.getElementById(target_id).querySelector("text").setAttribute("font-weight", "bold");
            }
          }
        }
      }


  }, false);

]]></script>

</svg>
