<?xml version="1.0" encoding="UTF-8" standalone="no"?>
<!DOCTYPE svg PUBLIC "-//W3C//DTD SVG 1.1//EN"
 "http://www.w3.org/Graphics/SVG/1.1/DTD/svg11.dtd">
<!-- Generated by graphviz version 2.40.1 (0)
 -->
<!-- Title: packages Pages: 1 -->
<svg width="1563pt" height="1376pt"
 viewBox="0.00 0.00 1875.93 1651.09" xmlns="http://www.w3.org/2000/svg" xmlns:xlink="http://www.w3.org/1999/xlink">
<g id="graph0" class="graph" transform="scale(.8333 .8333) rotate(0) translate(121.6162 1502.8788)">
<title>packages</title>
<polygon fill="#dae2ff" stroke="transparent" points="-121.6162,148.2113 -121.6162,-1502.8788 1754.3126,-1502.8788 1754.3126,148.2113 -121.6162,148.2113"/>
<polygon fill="#fbb4ae" stroke="#fbb4ae" points="1120.2555,-362.2335 1119.2754,-337.5731 1119.2754,-337.5731 1120.2555,-362.2335 1163.3401,-344.9465 1167.6866,-342.949 1170.451,-341.5163 1172.5364,-340.3103 1186.9342,-331.0865 1195.9803,-324.2362 1201.9496,-319.0104 1204.8265,-316.3179 1214.726,-306.4372 1220.0648,-301.7668 1233.8799,-287.5277 1235.4088,-286.0353 1263.9484,-256.8396 1203.0409,-157.737 1200.3096,-155.6376 1182.603,-84.3806 1172.6428,-34.8537 1156.6294,4.3352 1089.9182,37.8702 1045.3459,44.0983 1043.735,-65.8315 1039.6532,-108.4094 1035.9656,-108.4094 1035.1445,-108.6578 1030.3646,-108.6578 1026.1768,-157.2079 1023.8717,-111.7362 1018.9476,-113.1997 1018.9476,-113.1997 1023.8717,-111.7362 1027.8927,-108.0394 1024.4836,-105.066 1018.9744,-103.4117 1018.9744,-103.4117 1024.4836,-105.066 1027.8927,-108.0394 1023.8717,-111.7362 1026.1768,-157.2079 1030.3646,-108.6578 1035.1445,-108.6578 1035.9656,-108.4094 1039.6532,-108.4094 1043.735,-65.8315 1045.3459,44.0983 1035.2697,45.8994 1016.7672,49.9302 1010.9514,51.5359 1004.8619,51.3826 979.1415,52.1335 952.8314,53.3768 899.7753,90.3001 849.4,112.3311 829.1096,108.0804 821.2013,106.5681 806.6512,104.5809 806.6815,-53.9957 806.9608,-54.0775 804.6549,-129.5032 804.9249,-156.279 803.4613,-156.3688 804.0908,-204.8818 804.0908,-204.8818 803.4613,-156.3688 804.9249,-156.279 804.6549,-129.5032 806.9608,-54.0775 806.6815,-53.9957 801.6517,-53.9957 800.8361,-54.2372 796.8847,-54.2372 796.6397,-54.1634 793.2764,-12.7057 790.0738,-50.6541 785.2269,-49.2422 780.0613,-50.7631 777.2836,1.5249 773.8179,-54.3555 769.8804,-54.3555 769.8804,-54.3555 773.8179,-54.3555 777.2836,1.5249 780.0613,-50.7631 785.2269,-49.2422 790.0738,-50.6541 793.2764,-12.7057 796.6397,-54.1634 796.8847,-54.2372 800.8361,-54.2372 801.6517,-53.9957 806.6815,-53.9957 806.6512,104.5809 795.5202,103.2645 793.4655,103.0592 782.4509,102.3619 777.7312,102.1495 765.3701,102.0454 751.4606,102.6919 740.241,103.4186 743.4604,-1.8582 743.4604,-1.8582 740.241,103.4186 716.6451,105.8079 651.9646,144.2113 617.1673,138.8906 602.1336,137.1273 594.6851,136.3872 580.7834,135.5046 579.4334,135.4431 579.5938,58.3091 576.8701,-16.6846 575.9202,-17.7609 577.7135,-19.9053 581.892,-22.288 587.9462,-22.288 592.0893,-19.9362 593.7009,-18.0188 598.0371,-18.0188 599.122,-17.6978 602.5879,-17.6978 604.774,-67.5076 604.061,-104.0299 611.2131,-104.2119 613.5776,-104.1056 621.3411,-104.0167 625.7169,-103.8126 633.5148,-103.1743 635.3412,-102.9607 650.5261,-100.1066 654.5865,-99.2013 655.3304,-155.6121 659.4395,-190.0786 662.6035,-190.0786 663.3052,-190.6859 663.3052,-190.6859 662.6035,-190.0786 659.4395,-190.0786 655.3304,-155.6121 654.5865,-99.2013 650.5261,-100.1066 635.3412,-102.9607 633.5148,-103.1743 625.7169,-103.8126 621.3411,-104.0167 613.5776,-104.1056 611.2131,-104.2119 604.061,-104.0299 604.774,-67.5076 602.5879,-17.6978 599.122,-17.6978 598.0371,-18.0188 593.7009,-18.0188 592.0893,-19.9362 596.5804,-75.6704 597.3643,-104.0145 600.6545,-104.1093 598.581,-184.5686 603.9619,-190.1304 604.2838,-190.1304 604.3069,-190.1375 609.0611,-190.1375 610.2172,-190.4977 614.6198,-190.4977 617.0693,-255.9462 620.9057,-190.3732 624.6515,-190.3732 625.4197,-191.2719 630.8433,-194.5351 630.8433,-194.5351 625.4197,-191.2719 624.6515,-190.3732 620.9057,-190.3732 617.0693,-255.9462 614.6198,-190.4977 610.2172,-190.4977 609.0611,-190.1375 604.3069,-190.1375 604.2838,-190.1304 603.9619,-190.1304 598.581,-184.5686 600.6545,-104.1093 597.3643,-104.0145 596.5804,-75.6704 592.0893,-19.9362 587.9462,-22.288 581.892,-22.288 577.7135,-19.9053 575.9202,-17.7609 576.8701,-16.6846 579.5938,58.3091 579.4334,135.4431 571.7219,135.3682 556.6879,135.7608 556.5637,135.7401 555.0814,135.1438 453.4699,98.4478 420.5084,27.1422 414.9581,-17.0145 414.7404,-18.4888 401.6571,-86.6395 421.401,-97.4737 446.7159,-110.7976 449.7346,-112.2421 465.8029,-119.5534 468.8495,-120.6505 489.1811,-127.503 491.188,-131.0644 496.7195,-139.502 522.3258,-176.5794 522.8411,-177.395 542.2982,-211.2339 560.2847,-247.079 580.0289,-278.1321 582.5103,-281.7249 580.7199,-283.1334 574.4077,-287.7839 565.2852,-294.0432 561.0292,-296.74 554.6254,-300.4644 549.9504,-302.9377 544.3503,-305.608 541.7606,-306.7073 534.0438,-309.5867 530.9785,-310.5704 524.1887,-312.3995 498.0703,-318.0783 493.9105,-319.1984 491.0576,-320.1156 479.689,-324.3742 470.4214,-328.8098 468.0224,-342.3084 466.6044,-361.733 464.7046,-376.6203 464.4176,-380.5914 515.2405,-377.6183 524.8444,-380.695 530.4346,-377.4856 532.7538,-374.18 534.7715,-374.18 535.5623,-373.9469 540.3524,-373.9469 541.6559,-374.3308 541.7153,-374.4206 545.0623,-377.2243 545.0623,-377.2243 541.7153,-374.4206 541.6559,-374.3308 540.3524,-373.9469 535.5623,-373.9469 534.7715,-374.18 532.7538,-374.18 530.4346,-377.4856 524.8444,-380.695 515.2405,-377.6183 464.4176,-380.5914 454.9585,-433.8145 464.9302,-449.9994 487.08,-483.2517 516.8203,-495.4134 528.391,-491.0707 534.3102,-489.1677 549.8038,-485.0105 555.9972,-483.6828 571.7675,-481.1457 578.9201,-480.381 593.7977,-479.1908 596.5646,-483.0131 601.4999,-489.4507 617.4658,-507.905 621.9514,-512.3634 625.6951,-516.4525 632.7662,-522.9576 637.7065,-528.6591 642.7078,-533.3148 648.7406,-538.2969 652.5151,-541.0096 690.5457,-564.3643 690.5554,-563.4102 690.5554,-563.4102 690.5457,-564.3643 702.1624,-574.0743 704.1694,-575.9577 708.9037,-580.9164 710.0032,-561.7039 710.0032,-561.7039 708.9037,-580.9164 709.5261,-581.7142 720.0545,-592.4659 721.4849,-593.7952 727.2644,-599.6178 739.7797,-614.2429 747.6202,-624.6299 759.7557,-642.6766 763.484,-648.506 767.9492,-647.5742 774.5923,-646.6396 789.2581,-645.2375 800.0849,-644.6934 802.4771,-644.5193 811.8582,-644.2632 820.1632,-644.4141 827.0769,-644.2298 819.2631,-524.7547 816.1094,-521.5197 816.1094,-521.5197 819.2631,-524.7547 827.0769,-644.2298 827.6933,-644.2274 839.2801,-643.6633 852.6564,-642.4138 867.8576,-639.9754 870.5117,-639.4317 874.343,-638.561 883.032,-636.3912 894.3042,-560.9477 895.0445,-554.237 895.9918,-540.8336 899.1879,-512.2908 899.4578,-508.455 910.9001,-431.8722 915.8528,-430.3592 918.3553,-429.6571 935.3944,-426.1238 968.6093,-420.8672 979.9844,-418.7855 985.1503,-417.7134 993.6465,-415.7413 998.9084,-414.3916 999.6486,-414.1837 996.7787,-314.4802 996.0635,-305.588 995.9946,-303.2009 995.9998,-302.9664 935.2919,-297.7106 929.9093,-302.079 928.7702,-304.0272 928.7296,-304.0621 925.5168,-304.0621 920.6763,-347.4727 918.7711,-303.8509 918.4872,-303.7647 914.9091,-303.7647 914.615,-303.4216 908.0528,-299.3591 903.494,-299.3591 897.0883,-303.3905 896.7577,-303.7892 891.814,-303.7892 897.8936,-187.9096 886.5503,-207.7294 881.0053,-216.7593 874.4121,-226.7108 876.229,-297.6653 832.4767,-302.2195 831.1694,-304.7022 812.1829,-331.0424 795.7441,-355.9862 789.2595,-368.0694 785.7015,-258.2929 781.4227,-258.2929 781.3088,-258.2594 778.3345,-216.2697 774.84,-254.5402 770.3764,-253.257 764.623,-255.0028 761.1353,-258.1628 764.7,-261.3978 764.7,-261.3978 761.1353,-258.1628 764.623,-255.0028 770.3764,-253.257 774.84,-254.5402 778.3345,-216.2697 781.3088,-258.2594 781.4227,-258.2929 785.7015,-258.2929 789.2595,-368.0694 795.7441,-355.9862 812.1829,-331.0424 831.1694,-304.7022 832.4767,-302.2195 876.229,-297.6653 874.4121,-226.7108 881.0053,-216.7593 886.5503,-207.7294 897.8936,-187.9096 891.814,-303.7892 896.7577,-303.7892 897.0883,-303.3905 903.494,-299.3591 908.0528,-299.3591 914.615,-303.4216 914.9091,-303.7647 918.4872,-303.7647 918.7711,-303.8509 920.6763,-347.4727 925.5168,-304.0621 928.7296,-304.0621 928.7702,-304.0272 929.9093,-302.079 935.2919,-297.7106 995.9998,-302.9664 995.9946,-303.2009 996.0635,-305.588 996.7787,-314.4802 999.6486,-414.1837 1006.3989,-415.8674 1010.6209,-416.7164 1015.7953,-417.6326 1025.4382,-419.1083 1042.5273,-420.8994 1046.9987,-421.1516 1054.4257,-413.5487 1056.0477,-411.7892 1059.719,-408.0059 1070.6625,-397.3131 1070.8409,-361.0014 1074.2095,-300.7589 1074.2095,-300.7589 1070.8409,-361.0014 1070.6625,-397.3131 1080.329,-388.9358 1081.1566,-388.1609 1084.6062,-385.141 1085.3574,-359.1894 1084.0308,-303.9015 1089.7496,-305.5512 1093.9749,-304.3873 1093.9749,-304.3873 1089.7496,-305.5512 1084.0308,-303.9015 1085.3574,-359.1894 1084.6062,-385.141 1097.9966,-374.9683 1107.4708,-368.904 1120.2555,-362.2335 1120.2555,-362.2335"/>
<polygon fill="#ccebc5" stroke="#ccebc5" points="48.3264,-571.23 37.7366,-568.3221 -114.045,-581.8008 -117.6162,-575.034 -94.4264,-533.9227 -51.0781,-453.056 -24.7358,-438.018 36.9701,-418.4181 60.6058,-410.3992 71.3856,-406.0633 87.3255,-398.9782 106.6468,-388.7559 107.6293,-388.2156 123.5104,-378.8096 133.8756,-372.2382 136.543,-370.492 144.854,-364.8778 145.2801,-364.0285 147.8476,-346.8985 148.6968,-340.5448 157.1719,-327.9816 181.492,-306.7596 273.9683,-222.8733 295.3954,-208.5821 308.9072,-182.9444 370.1823,-104.0759 401.6571,-86.6395 421.401,-97.4737 435.9801,-249.4888 424.799,-253.0236 340.5151,-252.3479 342.8063,-254.8779 343.2937,-314.6217 340.5169,-348.9373 344.6651,-354.2011 346.8767,-354.2011 347.1346,-354.1216 350.8239,-354.1216 355.5432,-400.006 356.0347,-416.8302 352.8067,-417.0919 345.6792,-417.3097 344.3138,-417.2827 344.1413,-475.87 350.1848,-479.5797 350.8032,-480.3065 350.5328,-480.6239 343.8983,-484.7866 338.8405,-484.7866 338.8405,-484.7866 343.8983,-484.7866 350.5328,-480.6239 350.8032,-480.3065 350.1848,-479.5797 344.1413,-475.87 344.3138,-417.2827 345.6792,-417.3097 352.8067,-417.0919 356.0347,-416.8302 355.5432,-400.006 350.8239,-354.1216 347.1346,-354.1216 346.8767,-354.2011 344.6651,-354.2011 340.5169,-348.9373 343.2937,-314.6217 342.8063,-254.8779 340.5151,-252.3479 424.799,-253.0236 435.9801,-249.4888 421.401,-97.4737 446.7159,-110.7976 449.7346,-112.2421 465.8029,-119.5534 468.8495,-120.6505 489.1811,-127.503 491.188,-131.0644 496.7195,-139.502 522.3258,-176.5794 522.8411,-177.395 542.2982,-211.2339 560.2847,-247.079 580.0289,-278.1321 498.0313,-261.4365 494.8166,-258.002 492.6844,-257.1971 491.5009,-256.2466 487.7336,-256.2466 487.2911,-209.4543 481.3223,-255.8267 477.8631,-255.8267 476.3771,-256.2565 476.2448,-256.2565 472.4933,-253.0337 466.1782,-165.6991 465.7897,-120.6543 455.8217,-256.123 451.4117,-256.123 451.3763,-256.1329 446.8064,-256.1329 445.8533,-256.4049 443.5783,-256.4049 442.3302,-257.2533 439.749,-257.9896 435.4839,-262.0515 351.5157,-263.3977 356.8691,-269.0343 363.7713,-275.3307 362.5178,-354.1346 357.5811,-354.1346 357.3671,-354.0672 357.3671,-354.0672 357.5811,-354.1346 362.5178,-354.1346 363.7713,-275.3307 356.8691,-269.0343 351.5157,-263.3977 435.4839,-262.0515 439.749,-257.9896 442.3302,-257.2533 437.4219,-284.5674 436.2483,-309.6382 408.369,-301.2557 398.4026,-297.5671 386.1642,-291.3565 373.5315,-283.2365 374.0297,-294.3499 373.5461,-349.3566 368.0608,-351.098 364.6447,-354.3306 368.4213,-357.7087 373.0383,-359.0429 373.0383,-359.0429 368.4213,-357.7087 364.6447,-354.3306 368.0608,-351.098 373.5461,-349.3566 374.0297,-294.3499 373.5315,-283.2365 386.1642,-291.3565 398.4026,-297.5671 408.369,-301.2557 436.2483,-309.6382 437.4219,-284.5674 442.3302,-257.2533 443.5783,-256.4049 445.8533,-256.4049 446.8064,-256.1329 451.3763,-256.1329 451.4117,-256.123 455.8217,-256.123 465.7897,-120.6543 466.1782,-165.6991 472.4933,-253.0337 466.9976,-251.392 466.9976,-251.392 472.4933,-253.0337 476.2448,-256.2565 473.04,-258.9121 473.04,-258.9121 476.2448,-256.2565 476.3771,-256.2565 477.8631,-255.8267 481.3223,-255.8267 487.2911,-209.4543 487.7336,-256.2466 491.5009,-256.2466 492.6844,-257.1971 494.8166,-258.002 498.0313,-261.4365 580.0289,-278.1321 582.5103,-281.7249 580.7199,-283.1334 574.4077,-287.7839 565.2852,-294.0432 561.0292,-296.74 554.6254,-300.4644 549.9504,-302.9377 544.3503,-305.608 541.7606,-306.7073 534.0438,-309.5867 530.9785,-310.5704 524.1887,-312.3995 498.0703,-318.0783 493.9105,-319.1984 491.0576,-320.1156 479.689,-324.3742 470.4214,-328.8098 468.0224,-342.3084 466.6044,-361.733 464.7046,-376.6203 464.4176,-380.5914 454.9585,-433.8145 464.9302,-449.9994 487.08,-483.2517 516.8203,-495.4134 528.391,-491.0707 534.3102,-489.1677 549.8038,-485.0105 555.9972,-483.6828 571.7675,-481.1457 578.9201,-480.381 593.7977,-479.1908 596.5646,-483.0131 601.4999,-489.4507 617.4658,-507.905 621.9514,-512.3634 625.6951,-516.4525 625.645,-544.9135 622.6459,-580.8682 618.1017,-583.413 616.6542,-585.0596 617.8171,-586.4345 623.7097,-589.9415 627.658,-589.9415 627.658,-589.9415 623.7097,-589.9415 617.8171,-586.4345 616.6542,-585.0596 618.1017,-583.413 622.6459,-580.8682 625.645,-544.9135 625.6951,-516.4525 632.7662,-522.9576 637.7065,-528.6591 642.7078,-533.3148 648.7406,-538.2969 652.5151,-541.0096 690.5457,-564.3643 702.1624,-574.0743 704.1694,-575.9577 708.9037,-580.9164 709.5261,-581.7142 720.0545,-592.4659 721.4849,-593.7952 727.2644,-599.6178 739.7797,-614.2429 747.6202,-624.6299 759.7557,-642.6766 763.484,-648.506 704.5354,-702.1856 713.1372,-716.3015 726.0577,-735.2096 735.3283,-747.0762 735.8721,-800.7291 739.4805,-825.3478 732.7628,-825.3478 728.8975,-827.5824 727.1218,-829.8176 727.7519,-830.5896 727.7519,-830.5896 727.1218,-829.8176 728.8975,-827.5824 732.7628,-825.3478 739.4805,-825.3478 743.1539,-827.4469 743.1539,-827.4469 739.4805,-825.3478 735.8721,-800.7291 735.3283,-747.0762 726.0577,-735.2096 713.1372,-716.3015 704.5354,-702.1856 763.484,-648.506 767.9492,-647.5742 774.5923,-646.6396 789.2581,-645.2375 800.0849,-644.6934 802.4771,-644.5193 811.8582,-644.2632 820.1632,-644.4141 827.0769,-644.2298 827.6933,-644.2274 839.2801,-643.6633 852.6564,-642.4138 867.8576,-639.9754 870.5117,-639.4317 874.343,-638.561 883.032,-636.3912 967.8096,-673.9811 986.4603,-682.7449 991.376,-685.1787 1003.2834,-691.9951 1004.5855,-707.6083 1006.2398,-735.0244 1002.0859,-741.741 988.7314,-764.5758 971.8664,-795.3519 942.9008,-852.5999 936.4017,-864.514 930.9705,-866.2474 876.014,-882.2598 869.7641,-884.4235 816.8802,-950.4324 821.9572,-971.1503 823.8112,-979.6874 831.8696,-1029.6 860.2698,-1145.494 858.2226,-1147.6475 788.4543,-1169.244 713.4524,-1175.6173 713.7031,-1146.8802 713.7031,-1146.8802 713.4524,-1175.6173 709.1155,-1176.1556 694.5695,-1178.5352 677.5128,-1181.996 681.8563,-1063.725 686.5281,-1030.8795 687.7411,-1030.0356 689.633,-1030.0356 690.3428,-1030.8387 696.2036,-1034.2505 700.9935,-1034.2505 700.9935,-1034.2505 696.2036,-1034.2505 690.3428,-1030.8387 689.633,-1030.0356 687.7411,-1030.0356 686.5281,-1030.8795 681.8563,-1063.725 677.5128,-1181.996 647.9598,-1189.1426 643.0969,-1189.4921 525.9667,-1123.7062 542.1725,-1074.3766 561.7314,-1010.0328 569.7457,-977.6918 575.0062,-960.4012 566.1135,-951.5112 551.777,-938.4537 541.3013,-929.8799 539.3345,-928.3632 534.5911,-924.923 450.7304,-859.1166 446.9117,-855.7465 445.8969,-854.7993 439.2958,-849.0334 449.62,-837.8427 455.7217,-831.6158 464.8704,-823.4146 466.4937,-821.6954 530.7079,-763.0136 541.0323,-754.4971 554.7059,-741.4138 556.9091,-739.0276 559.563,-735.9739 564.7248,-730.4301 575.908,-717.7405 576.9911,-716.3853 578.0677,-715.1141 580.7947,-829.4439 575.6347,-827.9656 570.0346,-829.587 566.3209,-832.6819 570.0778,-835.8669 575.4747,-837.4515 575.4747,-837.4515 570.0778,-835.8669 566.3209,-832.6819 570.0346,-829.587 575.6347,-827.9656 580.7947,-829.4439 578.0677,-715.1141 583.2534,-708.6912 519.6678,-651.8467 518.4758,-593.8968 586.4799,-588.8207 597.3226,-591.6755 602.7183,-588.3962 604.8334,-585.3414 608.2419,-585.3414 600.2172,-708.7352 608.0212,-709.1345 604.2955,-805.7495 599.4642,-832.6816 596.9976,-832.6816 596.9976,-832.6816 599.4642,-832.6816 604.2955,-805.7495 608.0212,-709.1345 600.2172,-708.7352 608.2419,-585.3414 604.8334,-585.3414 602.7183,-588.3962 597.3226,-591.6755 586.4799,-588.8207 518.4758,-593.8968 519.6678,-651.8467 471.5584,-661.9968 459.3939,-664.0994 458.2507,-664.2527 444.99,-665.0134 444.2048,-665.0894 434.4714,-665.2773 433.772,-665.3182 432.9283,-665.3348 429.1394,-665.2632 423.6853,-664.949 418.8324,-665.0493 414.4958,-665.3083 411.4135,-665.2548 409.3352,-665.2994 406.0885,-665.2446 405.3037,-665.2012 404.2748,-665.2243 398.2766,-665.1284 356.7751,-666.0798 304.5319,-633.1789 300.2289,-630.1212 287.2972,-619.8336 286.3713,-619.1386 277.9598,-612.4965 272.1108,-607.4225 270.1984,-607.1829 257.8028,-605.3508 257.2564,-605.2579 257.144,-605.3485 144.3734,-688.4683 119.4482,-707.7545 102.3866,-723.2853 98.0604,-727.6708 93.2345,-732.1947 84.1877,-728.1879 79.5085,-726.4005 70.7306,-723.2228 57.5526,-718.7181 40.0955,-713.8127 -55.4978,-688.913 -76.7664,-659.3911 -114.045,-581.8008 37.7366,-568.3221 48.3264,-571.23 53.2288,-568.3508 55.5529,-564.8515 55.5529,-564.8515 53.2288,-568.3508 48.3264,-571.23 48.3264,-571.23"/>
<polygon fill="#decbe4" stroke="#decbe4" points="1597.9434,-1006.1333 1617.3325,-1007.6177 1747.8569,-994.1996 1748.3921,-1048.6108 1749.9257,-1099.4124 1625.7415,-1165.5836 1600.7469,-1164.2421 1588.2532,-1164.0233 1577.467,-1164.0298 1579.4196,-1040.9235 1576.1377,-1012.5378 1572.6129,-1012.5378 1571.877,-1012.3233 1568.08,-1012.3233 1566.139,-1010.0635 1562.1638,-1007.8779 1562.1638,-1007.8779 1566.139,-1010.0635 1568.08,-1012.3233 1571.877,-1012.3233 1572.6129,-1012.5378 1576.1377,-1012.5378 1579.4196,-1040.9235 1577.467,-1164.0298 1564.1324,-1164.5208 1558.8979,-1164.9974 1539.7849,-1167.4321 1540.1714,-1122.964 1546.7406,-1012.5435 1547.2882,-1012.3855 1542.4103,-972.0014 1541.4767,-948.0326 1542.109,-865.9203 1540.0439,-865.8151 1539.7362,-852.8255 1539.6089,-849.9854 1534.8341,-778.1729 1527.8572,-719.8977 1524.2007,-719.8977 1523.9963,-719.8387 1518.9441,-719.8387 1518.9441,-719.8387 1523.9963,-719.8387 1524.2007,-719.8977 1527.8572,-719.8977 1534.8341,-778.1729 1539.6089,-849.9854 1539.7362,-852.8255 1540.0439,-865.8151 1542.109,-865.9203 1541.4767,-948.0326 1542.4103,-972.0014 1547.2882,-1012.3855 1546.7406,-1012.5435 1540.1714,-1122.964 1539.7849,-1167.4321 1529.087,-1169.3752 1521.0023,-1170.9899 1510.6866,-1173.4221 1341.3353,-1091.4009 1285.9734,-1035.0533 1294.1223,-1012.3 1316.5007,-940.8943 1231.5242,-871.616 1225.5173,-866.4547 1211.3815,-852.903 1199.1724,-842.3993 1198.433,-780.817 1198.433,-780.817 1199.1724,-842.3993 1190.8676,-836.0881 1183.5247,-830.8787 1173.2618,-824.1262 1170.796,-822.7623 1169.6438,-751.0616 1174.9961,-752.6512 1174.9961,-752.6512 1169.6438,-751.0616 1170.796,-822.7623 1169.0568,-821.8871 1158.95,-817.2949 1152.9124,-814.8577 1147.7153,-813.0246 1144.1587,-811.9509 1139.9724,-810.8981 1109.5515,-804.774 1102.0881,-802.4877 1095.918,-800.2726 1082.6646,-794.0979 1074.1516,-789.2366 1060.9105,-780.254 1060.7352,-780.1261 1051.7499,-773.0871 1043.7423,-766.3982 1040.4722,-763.3272 1006.2398,-735.0244 1004.5855,-707.6083 1003.2834,-691.9951 991.376,-685.1787 986.4603,-682.7449 967.8096,-673.9811 883.032,-636.3912 894.3042,-560.9477 895.0445,-554.237 895.9918,-540.8336 899.1879,-512.2908 899.4578,-508.455 910.9001,-431.8722 915.8528,-430.3592 918.3553,-429.6571 935.3944,-426.1238 968.6093,-420.8672 979.9844,-418.7855 985.1503,-417.7134 993.6465,-415.7413 998.9084,-414.3916 999.6486,-414.1837 1006.3989,-415.8674 1010.6209,-416.7164 1015.7953,-417.6326 1025.4382,-419.1083 1042.5273,-420.8994 1038.9075,-500.0956 1038.9075,-500.0956 1042.5273,-420.8994 1046.9987,-421.1516 1054.4257,-413.5487 1056.0477,-411.7892 1059.719,-408.0059 1070.6625,-397.3131 1080.329,-388.9358 1081.1566,-388.1609 1084.6062,-385.141 1097.9966,-374.9683 1107.4708,-368.904 1120.2555,-362.2335 1163.3401,-344.9465 1167.6866,-342.949 1170.451,-341.5163 1172.5364,-340.3103 1186.9342,-331.0865 1195.9803,-324.2362 1201.9496,-319.0104 1204.8265,-316.3179 1214.726,-306.4372 1220.0648,-301.7668 1233.8799,-287.5277 1235.4088,-286.0353 1263.9484,-256.8396 1359.3627,-304.7092 1378.0859,-385.1372 1384.9624,-412.1392 1385.153,-418.5305 1388.2782,-463.6434 1299.415,-493.8753 1280.4803,-499.772 1267.3588,-502.6931 1264.7347,-503.1992 1255.3884,-504.7254 1254.9164,-504.7884 1253.7854,-600.7728 1248.0009,-604.1342 1247.1167,-605.1251 1248.0463,-606.2115 1253.7048,-609.6356 1253.7048,-609.6356 1248.0463,-606.2115 1247.1167,-605.1251 1248.0009,-604.1342 1253.7854,-600.7728 1254.9164,-504.7884 1255.3884,-504.7254 1264.7347,-503.1992 1267.3588,-502.6931 1280.4803,-499.772 1299.415,-493.8753 1290.8639,-598.8616 1290.8639,-598.8616 1299.415,-493.8753 1388.2782,-463.6434 1457.3101,-546.7769 1510.556,-551.9661 1515.2109,-552.3422 1518.0818,-552.4788 1528.8954,-552.8134 1543.348,-552.7798 1546.5898,-553.8383 1550.5345,-554.9816 1557.0756,-556.7585 1575.4283,-560.7497 1586.879,-562.8228 1584.5089,-686.6906 1584.5089,-686.6906 1586.879,-562.8228 1674.4521,-575.4865 1683.702,-580.0712 1726.9106,-628.7122 1729.8904,-693.8671 1733.8757,-738.7033 1726.4517,-770.5361 1586.7366,-724.6342 1584.7589,-722.2224 1580.7535,-720.757 1579.6205,-719.8754 1576.8496,-719.8754 1576.8496,-719.8754 1579.6205,-719.8754 1580.7535,-720.757 1584.7589,-722.2224 1586.7366,-724.6342 1726.4517,-770.5361 1707.335,-861.5204 1750.3126,-914.9905 1747.8569,-994.1996 1617.3325,-1007.6177 1597.9434,-1006.1333 1595.1212,-962.0837 1594.9512,-866.0449 1589.4681,-866.0597 1588.6396,-866.0308 1572.4465,-866.0855 1567.0664,-865.7997 1566.9468,-865.7979 1565.5918,-719.744 1561.0961,-719.744 1557.7153,-675.6369 1554.6666,-718.0742 1549.9073,-715.2948 1545.051,-715.2948 1538.2363,-719.48 1538.1718,-719.4603 1534.8922,-719.4603 1534.8922,-719.4603 1538.1718,-719.4603 1538.2363,-719.48 1545.051,-715.2948 1549.9073,-715.2948 1554.6666,-718.0742 1557.7153,-675.6369 1561.0961,-719.744 1565.5918,-719.744 1566.9468,-865.7979 1567.0664,-865.7997 1572.4465,-866.0855 1588.6396,-866.0308 1589.4681,-866.0597 1594.9512,-866.0449 1595.1212,-962.0837 1597.9434,-1006.1333 1597.9434,-1006.1333"/>
<polygon fill="#fbb4ae" stroke="#fbb4ae" points="1109.5515,-804.774 1109.7795,-825.3164 1109.7795,-825.3164 1109.5515,-804.774 1139.9724,-810.8981 1144.1587,-811.9509 1147.7153,-813.0246 1152.9124,-814.8577 1158.95,-817.2949 1169.0568,-821.8871 1170.796,-822.7623 1173.2618,-824.1262 1183.5247,-830.8787 1190.8676,-836.0881 1199.1724,-842.3993 1211.3815,-852.903 1225.5173,-866.4547 1231.5242,-871.616 1316.5007,-940.8943 1294.1223,-1012.3 1285.9734,-1035.0533 1208.6897,-1065.3335 1188.6433,-1066.8463 1081.7426,-1121.387 998.411,-1122.2678 996.5095,-1122.3239 972.9493,-1123.9103 959.4435,-1126.0956 939.461,-1130.0883 899.5971,-1140.3022 860.2698,-1145.494 831.8696,-1029.6 823.8112,-979.6874 914.3981,-979.8114 937.7045,-983.127 943.074,-979.1009 944.5112,-976.7586 944.5112,-976.7586 943.074,-979.1009 937.7045,-983.127 914.3981,-979.8114 823.8112,-979.6874 821.9572,-971.1503 816.8802,-950.4324 869.7641,-884.4235 876.014,-882.2598 930.9705,-866.2474 936.4017,-864.514 942.9008,-852.5999 971.8664,-795.3519 988.7314,-764.5758 1002.0859,-741.741 1006.2398,-735.0244 1040.4722,-763.3272 1043.7423,-766.3982 1051.7499,-773.0871 1060.7352,-780.1261 1060.9105,-780.254 1074.1516,-789.2366 1082.6646,-794.0979 1082.9214,-825.6653 1086.6317,-867.6166 1080.1803,-863.6451 1075.1853,-863.6451 1075.1853,-863.6451 1080.1803,-863.6451 1086.6317,-867.6166 1082.9214,-825.6653 1082.6646,-794.0979 1095.918,-800.2726 1102.0881,-802.4877 1102.0643,-868.2625 1102.6932,-868.4525 1098.1874,-932.7155 1097.3579,-971.4415 1093.8926,-968.3849 1089.1635,-964.4565 1015.1717,-972.5063 999.7866,-970.577 999.7866,-970.577 1015.1717,-972.5063 1089.1635,-964.4565 1093.8926,-968.3849 1097.3579,-971.4415 1098.1874,-932.7155 1102.6932,-868.4525 1102.0643,-868.2625 1102.0881,-802.4877 1109.5515,-804.774 1109.5515,-804.774"/>
<polygon fill="#fed9a6" stroke="#fed9a6" points="575.908,-717.7405 576.9911,-716.3853 578.0677,-715.1141 583.2534,-708.6912 519.6678,-651.8467 471.5584,-661.9968 459.3939,-664.0994 458.2507,-664.2527 444.99,-665.0134 444.2048,-665.0894 434.4714,-665.2773 433.772,-665.3182 432.9283,-665.3348 429.1394,-665.2632 423.6853,-664.949 418.8324,-665.0493 414.4958,-665.3083 411.4135,-665.2548 409.3352,-665.2994 406.0885,-665.2446 405.3037,-665.2012 404.2748,-665.2243 398.2766,-665.1284 356.7751,-666.0798 304.5319,-633.1789 300.2289,-630.1212 287.2972,-619.8336 286.3713,-619.1386 277.9598,-612.4965 272.1108,-607.4225 270.1984,-607.1829 257.8028,-605.3508 257.2564,-605.2579 257.144,-605.3485 144.3734,-688.4683 119.4482,-707.7545 102.3866,-723.2853 98.0604,-727.6708 93.2345,-732.1947 103.3776,-760.9634 118.9108,-808.0411 162.8593,-865.3444 177.4325,-877.6173 220.9909,-903.2025 252.566,-883.9974 272.0022,-873.2107 279.0865,-869.6704 293.1927,-863.7599 299.3195,-861.3597 316.0179,-855.7227 351.1698,-844.8324 372.9751,-847.5908 379.7336,-848.2709 386.3169,-848.7626 400.2855,-849.0808 402.585,-849.0734 403.575,-849.0446 408.7613,-849.3071 421.2059,-848.966 422.0107,-848.9654 424.3869,-849.0269 430.4579,-849.026 430.5089,-849.022 434.9772,-848.9108 439.2958,-849.0334 449.62,-837.8427 455.7217,-831.6158 464.8704,-823.4146 466.4937,-821.6954 530.7079,-763.0136 541.0323,-754.4971 554.7059,-741.4138 556.9091,-739.0276 559.563,-735.9739 564.7248,-730.4301 575.908,-717.7405 575.908,-717.7405"/>
<polygon fill="#b3cde3" stroke="#b3cde3" points="561.7314,-1010.0328 569.7457,-977.6918 575.0062,-960.4012 566.1135,-951.5112 551.777,-938.4537 541.3013,-929.8799 539.3345,-928.3632 534.5911,-924.923 450.7304,-859.1166 446.9117,-855.7465 445.8969,-854.7993 439.2958,-849.0334 434.9772,-848.9108 430.5089,-849.022 430.4579,-849.026 424.3869,-849.0269 422.0107,-848.9654 421.2059,-848.966 408.7613,-849.3071 403.575,-849.0446 402.585,-849.0734 400.2855,-849.0808 386.3169,-848.7626 379.7336,-848.2709 372.9751,-847.5908 351.1698,-844.8324 316.0179,-855.7227 299.3195,-861.3597 293.1927,-863.7599 279.0865,-869.6704 272.0022,-873.2107 252.566,-883.9974 220.9909,-903.2025 223.8848,-916.7403 231.875,-958.2011 237.4814,-991.0747 257.5673,-1127.0319 188.6065,-1146.6917 164.8058,-1152.6761 160.8911,-1153.4597 153.4756,-1154.6934 133.2095,-1157.7223 132.3859,-1157.7894 114.9381,-1158.9149 106.9008,-1159.2968 12.0354,-1160.5807 -64.7882,-1292.03 -68.5616,-1301.5945 -68.8792,-1313.8147 -70.3932,-1338.7631 106.8948,-1327.9434 110.8958,-1323.955 113.4988,-1323.1332 114.8175,-1322.1859 117.0763,-1322.1859 119.6675,-1371.4105 123.477,-1322.3684 126.6775,-1322.3684 127.3101,-1322.1816 127.3101,-1322.1816 126.6775,-1322.3684 123.477,-1322.3684 119.6675,-1371.4105 117.0763,-1322.1859 114.8175,-1322.1859 113.4988,-1323.1332 110.8958,-1323.955 106.8948,-1327.9434 -70.3932,-1338.7631 -71.2121,-1349.2704 37.7369,-1451.6752 104.351,-1485.5345 118.1435,-1493.1426 127.7925,-1498.8788 136.2424,-1495.9563 138.0238,-1495.4335 153.4199,-1491.1802 173.5556,-1486.6659 193.8366,-1483.5303 226.1022,-1479.1063 346.8883,-1376.1888 359.4467,-1323.3544 360.4757,-1319.6122 185.4146,-1316.0485 179.5738,-1321.0314 179.0924,-1321.8115 179.09,-1321.8135 180.7872,-1324.7777 173.9726,-1396.3293 173.1764,-1364.2167 175.4266,-1322.0598 175.4266,-1322.0598 173.1764,-1364.2167 173.9726,-1396.3293 180.7872,-1324.7777 179.09,-1321.8135 179.0924,-1321.8115 179.5738,-1321.0314 185.4146,-1316.0485 360.4757,-1319.6122 360.6929,-1318.8729 354.2698,-1178.4615 360.6316,-1175.4117 380.7948,-1166.0447 387.7064,-1162.9401 398.3164,-1158.3378 415.3004,-1152.0137 428.9317,-1147.5648 428.986,-981.8802 425.0697,-956.398 423.0818,-956.398 421.1254,-954.2499 416.9926,-952.0189 416.9926,-952.0189 421.1254,-954.2499 423.0818,-956.398 425.0697,-956.398 428.986,-981.8802 428.9317,-1147.5648 442.116,-1143.6669 444.36,-1143.0728 462.1205,-1138.6416 525.9667,-1123.7062 542.1725,-1074.3766 561.7314,-1010.0328 561.7314,-1010.0328"/>
<polyline fill="none" stroke="#000000" points="747.6202,-624.6299 759.7557,-642.6766 763.484,-648.506 767.9492,-647.5742 774.5923,-646.6396 789.2581,-645.2375 800.0849,-644.6934 802.4771,-644.5193 811.8582,-644.2632 820.1632,-644.4141 827.0769,-644.2298 827.6933,-644.2274 839.2801,-643.6633 852.6564,-642.4138 867.8576,-639.9754 870.5117,-639.4317 874.343,-638.561 883.032,-636.3912 894.3042,-560.9477 895.0445,-554.237 895.9918,-540.8336 899.1879,-512.2908 899.4578,-508.455 910.9001,-431.8722 915.8528,-430.3592 918.3553,-429.6571 935.3944,-426.1238 968.6093,-420.8672 979.9844,-418.7855 985.1503,-417.7134 993.6465,-415.7413 998.9084,-414.3916 999.6486,-414.1837 1006.3989,-415.8674 1010.6209,-416.7164 1015.7953,-417.6326 1025.4382,-419.1083 1042.5273,-420.8994 1046.9987,-421.1516 1054.4257,-413.5487 1056.0477,-411.7892 1059.719,-408.0059 1070.6625,-397.3131 1080.329,-388.9358 1081.1566,-388.1609 1084.6062,-385.141 1097.9966,-374.9683 1107.4708,-368.904 1120.2555,-362.2335 1163.3401,-344.9465 1167.6866,-342.949 1170.451,-341.5163 1172.5364,-340.3103 1186.9342,-331.0865 1195.9803,-324.2362 1201.9496,-319.0104 1204.8265,-316.3179 1214.726,-306.4372 1220.0648,-301.7668 1233.8799,-287.5277 1235.4088,-286.0353 1263.9484,-256.8396 1203.0409,-157.737 1200.3096,-155.6376 1182.603,-84.3806 1172.6428,-34.8537 1156.6294,4.3352 1089.9182,37.8702 1045.3459,44.0983 1035.2697,45.8994 1016.7672,49.9302 1010.9514,51.5359 1004.8619,51.3826 979.1415,52.1335 952.8314,53.3768 899.7753,90.3001 849.4,112.3311 829.1096,108.0804 821.2013,106.5681 806.6512,104.5809 795.5202,103.2645 793.4655,103.0592 782.4509,102.3619 777.7312,102.1495 765.3701,102.0454 751.4606,102.6919 740.241,103.4186 716.6451,105.8079 651.9646,144.2113 617.1673,138.8906 602.1336,137.1273 594.6851,136.3872 580.7834,135.5046 579.4334,135.4431 571.7219,135.3682 556.6879,135.7608 556.5637,135.7401 555.0814,135.1438 453.4699,98.4478 420.5084,27.1422 414.9581,-17.0145 414.7404,-18.4888 401.6571,-86.6395 421.401,-97.4737 446.7159,-110.7976 449.7346,-112.2421 465.8029,-119.5534 468.8495,-120.6505 489.1811,-127.503 491.188,-131.0644 496.7195,-139.502 522.3258,-176.5794 522.8411,-177.395 542.2982,-211.2339 560.2847,-247.079 580.0289,-278.1321 582.5103,-281.7249 580.7199,-283.1334 574.4077,-287.7839 565.2852,-294.0432 561.0292,-296.74 554.6254,-300.4644 549.9504,-302.9377 544.3503,-305.608 541.7606,-306.7073 534.0438,-309.5867 530.9785,-310.5704 524.1887,-312.3995 498.0703,-318.0783 493.9105,-319.1984 491.0576,-320.1156 479.689,-324.3742 470.4214,-328.8098 468.0224,-342.3084 466.6044,-361.733 464.7046,-376.6203 464.4176,-380.5914 454.9585,-433.8145 464.9302,-449.9994 487.08,-483.2517 516.8203,-495.4134 528.391,-491.0707 534.3102,-489.1677 549.8038,-485.0105 555.9972,-483.6828 571.7675,-481.1457 578.9201,-480.381 593.7977,-479.1908 596.5646,-483.0131 601.4999,-489.4507 617.4658,-507.905 621.9514,-512.3634 625.6951,-516.4525 632.7662,-522.9576 637.7065,-528.6591 642.7078,-533.3148 648.7406,-538.2969 652.5151,-541.0096 690.5457,-564.3643 702.1624,-574.0743 704.1694,-575.9577 708.9037,-580.9164 709.5261,-581.7142 720.0545,-592.4659 721.4849,-593.7952 727.2644,-599.6178 739.7797,-614.2429 747.6202,-624.6299 "/>
<polyline fill="none" stroke="#000000" points="839.2801,-643.6633 827.6933,-644.2274 827.0769,-644.2298 820.1632,-644.4141 811.8582,-644.2632 802.4771,-644.5193 800.0849,-644.6934 789.2581,-645.2375 774.5923,-646.6396 767.9492,-647.5742 763.484,-648.506 759.7557,-642.6766 747.6202,-624.6299 739.7797,-614.2429 727.2644,-599.6178 721.4849,-593.7952 720.0545,-592.4659 709.5261,-581.7142 708.9037,-580.9164 704.1694,-575.9577 702.1624,-574.0743 690.5457,-564.3643 652.5151,-541.0096 648.7406,-538.2969 642.7078,-533.3148 637.7065,-528.6591 632.7662,-522.9576 625.6951,-516.4525 621.9514,-512.3634 617.4658,-507.905 601.4999,-489.4507 596.5646,-483.0131 593.7977,-479.1908 578.9201,-480.381 571.7675,-481.1457 555.9972,-483.6828 549.8038,-485.0105 534.3102,-489.1677 528.391,-491.0707 516.8203,-495.4134 487.08,-483.2517 464.9302,-449.9994 454.9585,-433.8145 464.4176,-380.5914 464.7046,-376.6203 466.6044,-361.733 468.0224,-342.3084 470.4214,-328.8098 479.689,-324.3742 491.0576,-320.1156 493.9105,-319.1984 498.0703,-318.0783 524.1887,-312.3995 530.9785,-310.5704 534.0438,-309.5867 541.7606,-306.7073 544.3503,-305.608 549.9504,-302.9377 554.6254,-300.4644 561.0292,-296.74 565.2852,-294.0432 574.4077,-287.7839 580.7199,-283.1334 582.5103,-281.7249 580.0289,-278.1321 560.2847,-247.079 542.2982,-211.2339 522.8411,-177.395 522.3258,-176.5794 496.7195,-139.502 491.188,-131.0644 489.1811,-127.503 468.8495,-120.6505 465.8029,-119.5534 449.7346,-112.2421 446.7159,-110.7976 421.401,-97.4737 401.6571,-86.6395 370.1823,-104.0759 308.9072,-182.9444 295.3954,-208.5821 273.9683,-222.8733 181.492,-306.7596 157.1719,-327.9816 148.6968,-340.5448 147.8476,-346.8985 145.2801,-364.0285 144.854,-364.8778 136.543,-370.492 133.8756,-372.2382 123.5104,-378.8096 107.6293,-388.2156 106.6468,-388.7559 87.3255,-398.9782 71.3856,-406.0633 60.6058,-410.3992 36.9701,-418.4181 -24.7358,-438.018 -51.0781,-453.056 -94.4264,-533.9227 -117.6162,-575.034 -114.045,-581.8008 -76.7664,-659.3911 -55.4978,-688.913 40.0955,-713.8127 57.5526,-718.7181 70.7306,-723.2228 79.5085,-726.4005 84.1877,-728.1879 93.2345,-732.1947 98.0604,-727.6708 102.3866,-723.2853 119.4482,-707.7545 144.3734,-688.4683 257.144,-605.3485 257.2564,-605.2579 257.8028,-605.3508 270.1984,-607.1829 272.1108,-607.4225 277.9598,-612.4965 286.3713,-619.1386 287.2972,-619.8336 300.2289,-630.1212 304.5319,-633.1789 356.7751,-666.0798 398.2766,-665.1284 404.2748,-665.2243 405.3037,-665.2012 406.0885,-665.2446 409.3352,-665.2994 411.4135,-665.2548 414.4958,-665.3083 418.8324,-665.0493 423.6853,-664.949 429.1394,-665.2632 432.9283,-665.3348 433.772,-665.3182 434.4714,-665.2773 444.2048,-665.0894 444.99,-665.0134 458.2507,-664.2527 459.3939,-664.0994 471.5584,-661.9968 519.6678,-651.8467 583.2534,-708.6912 578.0677,-715.1141 576.9911,-716.3853 575.908,-717.7405 564.7248,-730.4301 559.563,-735.9739 556.9091,-739.0276 554.7059,-741.4138 541.0323,-754.4971 530.7079,-763.0136 466.4937,-821.6954 464.8704,-823.4146 455.7217,-831.6158 449.62,-837.8427 439.2958,-849.0334 445.8969,-854.7993 446.9117,-855.7465 450.7304,-859.1166 534.5911,-924.923 539.3345,-928.3632 541.3013,-929.8799 551.777,-938.4537 566.1135,-951.5112 575.0062,-960.4012 569.7457,-977.6918 561.7314,-1010.0328 542.1725,-1074.3766 525.9667,-1123.7062 643.0969,-1189.4921 647.9598,-1189.1426 677.5128,-1181.996 694.5695,-1178.5352 709.1155,-1176.1556 713.4524,-1175.6173 788.4543,-1169.244 858.2226,-1147.6475 860.2698,-1145.494 831.8696,-1029.6 823.8112,-979.6874 821.9572,-971.1503 816.8802,-950.4324 869.7641,-884.4235 876.014,-882.2598 930.9705,-866.2474 936.4017,-864.514 942.9008,-852.5999 971.8664,-795.3519 988.7314,-764.5758 1002.0859,-741.741 1006.2398,-735.0244 1004.5855,-707.6083 1003.2834,-691.9951 991.376,-685.1787 986.4603,-682.7449 967.8096,-673.9811 883.032,-636.3912 874.343,-638.561 870.5117,-639.4317 867.8576,-639.9754 852.6564,-642.4138 839.2801,-643.6633 "/>
<polyline fill="none" stroke="#000000" points="1003.2834,-691.9951 1004.5855,-707.6083 1006.2398,-735.0244 1040.4722,-763.3272 1043.7423,-766.3982 1051.7499,-773.0871 1060.7352,-780.1261 1060.9105,-780.254 1074.1516,-789.2366 1082.6646,-794.0979 1095.918,-800.2726 1102.0881,-802.4877 1109.5515,-804.774 1139.9724,-810.8981 1144.1587,-811.9509 1147.7153,-813.0246 1152.9124,-814.8577 1158.95,-817.2949 1169.0568,-821.8871 1170.796,-822.7623 1173.2618,-824.1262 1183.5247,-830.8787 1190.8676,-836.0881 1199.1724,-842.3993 1211.3815,-852.903 1225.5173,-866.4547 1231.5242,-871.616 1316.5007,-940.8943 1294.1223,-1012.3 1285.9734,-1035.0533 1341.3353,-1091.4009 1510.6866,-1173.4221 1521.0023,-1170.9899 1529.087,-1169.3752 1539.7849,-1167.4321 1558.8979,-1164.9974 1564.1324,-1164.5208 1577.467,-1164.0298 1588.2532,-1164.0233 1600.7469,-1164.2421 1625.7415,-1165.5836 1749.9257,-1099.4124 1748.3921,-1048.6108 1747.8569,-994.1996 1750.3126,-914.9905 1707.335,-861.5204 1726.4517,-770.5361 1733.8757,-738.7033 1729.8904,-693.8671 1726.9106,-628.7122 1683.702,-580.0712 1674.4521,-575.4865 1586.879,-562.8228 1575.4283,-560.7497 1557.0756,-556.7585 1550.5345,-554.9816 1546.5898,-553.8383 1543.348,-552.7798 1528.8954,-552.8134 1518.0818,-552.4788 1515.2109,-552.3422 1510.556,-551.9661 1457.3101,-546.7769 1388.2782,-463.6434 1385.153,-418.5305 1384.9624,-412.1392 1378.0859,-385.1372 1359.3627,-304.7092 1263.9484,-256.8396 1235.4088,-286.0353 1233.8799,-287.5277 1220.0648,-301.7668 1214.726,-306.4372 1204.8265,-316.3179 1201.9496,-319.0104 1195.9803,-324.2362 1186.9342,-331.0865 1172.5364,-340.3103 1170.451,-341.5163 1167.6866,-342.949 1163.3401,-344.9465 1120.2555,-362.2335 1107.4708,-368.904 1097.9966,-374.9683 1084.6062,-385.141 1081.1566,-388.1609 1080.329,-388.9358 1070.6625,-397.3131 1059.719,-408.0059 1056.0477,-411.7892 1054.4257,-413.5487 1046.9987,-421.1516 1042.5273,-420.8994 1025.4382,-419.1083 1015.7953,-417.6326 1010.6209,-416.7164 1006.3989,-415.8674 999.6486,-414.1837 998.9084,-414.3916 993.6465,-415.7413 985.1503,-417.7134 979.9844,-418.7855 968.6093,-420.8672 935.3944,-426.1238 918.3553,-429.6571 915.8528,-430.3592 910.9001,-431.8722 899.4578,-508.455 899.1879,-512.2908 895.9918,-540.8336 895.0445,-554.237 894.3042,-560.9477 883.032,-636.3912 967.8096,-673.9811 986.4603,-682.7449 991.376,-685.1787 1003.2834,-691.9951 "/>
<polyline fill="none" stroke="#000000" points="972.9493,-1123.9103 996.5095,-1122.3239 998.411,-1122.2678 1081.7426,-1121.387 1188.6433,-1066.8463 1208.6897,-1065.3335 1285.9734,-1035.0533 1294.1223,-1012.3 1316.5007,-940.8943 1231.5242,-871.616 1225.5173,-866.4547 1211.3815,-852.903 1199.1724,-842.3993 1190.8676,-836.0881 1183.5247,-830.8787 1173.2618,-824.1262 1170.796,-822.7623 1169.0568,-821.8871 1158.95,-817.2949 1152.9124,-814.8577 1147.7153,-813.0246 1144.1587,-811.9509 1139.9724,-810.8981 1109.5515,-804.774 1102.0881,-802.4877 1095.918,-800.2726 1082.6646,-794.0979 1074.1516,-789.2366 1060.9105,-780.254 1060.7352,-780.1261 1051.7499,-773.0871 1043.7423,-766.3982 1040.4722,-763.3272 1006.2398,-735.0244 1002.0859,-741.741 988.7314,-764.5758 971.8664,-795.3519 942.9008,-852.5999 936.4017,-864.514 930.9705,-866.2474 876.014,-882.2598 869.7641,-884.4235 816.8802,-950.4324 821.9572,-971.1503 823.8112,-979.6874 831.8696,-1029.6 860.2698,-1145.494 899.5971,-1140.3022 939.461,-1130.0883 959.4435,-1126.0956 972.9493,-1123.9103 "/>
<polyline fill="none" stroke="#000000" points="272.0022,-873.2107 252.566,-883.9974 220.9909,-903.2025 177.4325,-877.6173 162.8593,-865.3444 118.9108,-808.0411 103.3776,-760.9634 93.2345,-732.1947 98.0604,-727.6708 102.3866,-723.2853 119.4482,-707.7545 144.3734,-688.4683 257.144,-605.3485 257.2564,-605.2579 257.8028,-605.3508 270.1984,-607.1829 272.1108,-607.4225 277.9598,-612.4965 286.3713,-619.1386 287.2972,-619.8336 300.2289,-630.1212 304.5319,-633.1789 356.7751,-666.0798 398.2766,-665.1284 404.2748,-665.2243 405.3037,-665.2012 406.0885,-665.2446 409.3352,-665.2994 411.4135,-665.2548 414.4958,-665.3083 418.8324,-665.0493 423.6853,-664.949 429.1394,-665.2632 432.9283,-665.3348 433.772,-665.3182 434.4714,-665.2773 444.2048,-665.0894 444.99,-665.0134 458.2507,-664.2527 459.3939,-664.0994 471.5584,-661.9968 519.6678,-651.8467 583.2534,-708.6912 578.0677,-715.1141 576.9911,-716.3853 575.908,-717.7405 564.7248,-730.4301 559.563,-735.9739 556.9091,-739.0276 554.7059,-741.4138 541.0323,-754.4971 530.7079,-763.0136 466.4937,-821.6954 464.8704,-823.4146 455.7217,-831.6158 449.62,-837.8427 439.2958,-849.0334 434.9772,-848.9108 430.5089,-849.022 430.4579,-849.026 424.3869,-849.0269 422.0107,-848.9654 421.2059,-848.966 408.7613,-849.3071 403.575,-849.0446 402.585,-849.0734 400.2855,-849.0808 386.3169,-848.7626 379.7336,-848.2709 372.9751,-847.5908 351.1698,-844.8324 316.0179,-855.7227 299.3195,-861.3597 293.1927,-863.7599 279.0865,-869.6704 272.0022,-873.2107 "/>
<polyline fill="none" stroke="#000000" points="138.0238,-1495.4335 153.4199,-1491.1802 173.5556,-1486.6659 193.8366,-1483.5303 226.1022,-1479.1063 346.8883,-1376.1888 359.4467,-1323.3544 360.4757,-1319.6122 360.6929,-1318.8729 354.2698,-1178.4615 360.6316,-1175.4117 380.7948,-1166.0447 387.7064,-1162.9401 398.3164,-1158.3378 415.3004,-1152.0137 428.9317,-1147.5648 442.116,-1143.6669 444.36,-1143.0728 462.1205,-1138.6416 525.9667,-1123.7062 542.1725,-1074.3766 561.7314,-1010.0328 569.7457,-977.6918 575.0062,-960.4012 566.1135,-951.5112 551.777,-938.4537 541.3013,-929.8799 539.3345,-928.3632 534.5911,-924.923 450.7304,-859.1166 446.9117,-855.7465 445.8969,-854.7993 439.2958,-849.0334 434.9772,-848.9108 430.5089,-849.022 430.4579,-849.026 424.3869,-849.0269 422.0107,-848.9654 421.2059,-848.966 408.7613,-849.3071 403.575,-849.0446 402.585,-849.0734 400.2855,-849.0808 386.3169,-848.7626 379.7336,-848.2709 372.9751,-847.5908 351.1698,-844.8324 316.0179,-855.7227 299.3195,-861.3597 293.1927,-863.7599 279.0865,-869.6704 272.0022,-873.2107 252.566,-883.9974 220.9909,-903.2025 223.8848,-916.7403 231.875,-958.2011 237.4814,-991.0747 257.5673,-1127.0319 188.6065,-1146.6917 164.8058,-1152.6761 160.8911,-1153.4597 153.4756,-1154.6934 133.2095,-1157.7223 132.3859,-1157.7894 114.9381,-1158.9149 106.9008,-1159.2968 12.0354,-1160.5807 -64.7882,-1292.03 -68.5616,-1301.5945 -68.8792,-1313.8147 -70.3932,-1338.7631 -71.2121,-1349.2704 37.7369,-1451.6752 104.351,-1485.5345 118.1435,-1493.1426 127.7925,-1498.8788 136.2424,-1495.9563 138.0238,-1495.4335 "/>
<!-- device&#45;mapper&#45;libs&#45;&gt;Fedora Container Base -->
<g id="edge1" class="edge">
<title>device&#45;mapper&#45;libs&#45;&gt;Fedora Container Base</title>
<path fill="none" stroke="#444444" stroke-opacity="0.333333" d="M783.925,-72.4697C779.131,-143.8442 761.621,-404.5373 755.7977,-491.2363"/>
<polygon fill="#444444" fill-opacity="0.333333" stroke="#444444" stroke-opacity="0.333333" points="752.2947,-491.1653 755.1166,-501.3774 759.279,-491.6345 752.2947,-491.1653"/>
</g>
<!-- device&#45;mapper&#45;libs&#45;&gt;device&#45;mapper -->
<g id="edge2" class="edge">
<title>device&#45;mapper&#45;libs&#45;&gt;device&#45;mapper</title>
<path fill="none" stroke="#444444" stroke-opacity="0.333333" d="M779.7098,-72.3866C773.7705,-107.9517 767.6446,-187.0291 767.2732,-229.646"/>
<polygon fill="#444444" fill-opacity="0.333333" stroke="#444444" stroke-opacity="0.333333" points="763.774,-229.9067 767.3109,-239.8937 770.774,-229.8808 763.774,-229.9067"/>
</g>
<!-- device&#45;mapper&#45;&gt;Fedora Container Base -->
<g id="edge33" class="edge">
<title>device&#45;mapper&#45;&gt;Fedora Container Base</title>
<path fill="none" stroke="#444444" stroke-opacity="0.333333" d="M768.8679,-276.5455C766.0956,-321.5423 758.9522,-437.4879 755.6374,-491.2902"/>
<polygon fill="#444444" fill-opacity="0.333333" stroke="#444444" stroke-opacity="0.333333" points="752.1311,-491.2854 755.0095,-501.4817 759.1179,-491.7159 752.1311,-491.2854"/>
</g>
<!-- device&#45;mapper&#45;&gt;device&#45;mapper&#45;libs -->
<g id="edge34" class="edge">
<title>device&#45;mapper&#45;&gt;device&#45;mapper&#45;libs</title>
<path fill="none" stroke="#444444" stroke-opacity="0.333333" d="M775.4402,-240.0144C781.3795,-204.4493 787.5054,-125.3719 787.8768,-82.755"/>
<polygon fill="#444444" fill-opacity="0.333333" stroke="#444444" stroke-opacity="0.333333" points="791.376,-82.4943 787.8391,-72.5073 784.376,-82.5202 791.376,-82.4943"/>
</g>
<!-- device&#45;mapper&#45;&gt;systemd -->
<g id="edge35" class="edge">
<title>device&#45;mapper&#45;&gt;systemd</title>
<path fill="none" stroke="#444444" stroke-opacity="0.333333" d="M762.0302,-276.22C738.0712,-330.4823 666.5793,-492.3973 637.7961,-557.5857"/>
<polygon fill="#444444" fill-opacity="0.333333" stroke="#444444" stroke-opacity="0.333333" points="634.5506,-556.2709 633.7132,-566.8326 640.9542,-559.0984 634.5506,-556.2709"/>
</g>
<!-- device&#45;mapper&#45;&gt;util&#45;linux -->
<g id="edge36" class="edge">
<title>device&#45;mapper&#45;&gt;util&#45;linux</title>
<path fill="none" stroke="#444444" stroke-opacity="0.333333" d="M823.6401,-276.2516C829.7668,-278.3168 836.0553,-280.4367 842.2937,-282.5396"/>
<polygon fill="#444444" fill-opacity="0.333333" stroke="#444444" stroke-opacity="0.333333" points="841.4309,-285.9422 852.025,-285.8199 843.667,-279.3089 841.4309,-285.9422"/>
</g>
<!-- libargon2&#45;&gt;Fedora Container Base -->
<g id="edge3" class="edge">
<title>libargon2&#45;&gt;Fedora Container Base</title>
<path fill="none" stroke="#444444" stroke-opacity="0.333333" d="M591.0146,-36.1446C616.4278,-111.5556 713.8045,-400.5108 744.5443,-491.728"/>
<polygon fill="#444444" fill-opacity="0.333333" stroke="#444444" stroke-opacity="0.333333" points="741.2833,-493.0112 747.7936,-501.3698 747.9167,-490.7757 741.2833,-493.0112"/>
</g>
<!-- dbus&#45;broker&#45;&gt;Fedora Container Base -->
<g id="edge4" class="edge">
<title>dbus&#45;broker&#45;&gt;Fedora Container Base</title>
<path fill="none" stroke="#444444" stroke-opacity="0.333333" d="M837.1616,-750.8846C821.5427,-707.4774 782.2769,-598.3528 763.8015,-547.0076"/>
<polygon fill="#444444" fill-opacity="0.333333" stroke="#444444" stroke-opacity="0.333333" points="767.0759,-545.7699 760.3968,-537.5455 760.4894,-548.14 767.0759,-545.7699"/>
</g>
<!-- dbus&#45;broker&#45;&gt;dbus&#45;common -->
<g id="edge5" class="edge">
<title>dbus&#45;broker&#45;&gt;dbus&#45;common</title>
<path fill="none" stroke="#444444" stroke-opacity="0.333333" d="M811.4564,-787.387C800.7005,-793.4241 788.5721,-800.2315 777.2384,-806.5929"/>
<polygon fill="#444444" fill-opacity="0.333333" stroke="#444444" stroke-opacity="0.333333" points="775.3679,-803.6291 768.3607,-811.5758 778.7942,-809.7333 775.3679,-803.6291"/>
</g>
<!-- dbus&#45;broker&#45;&gt;shadow&#45;utils -->
<g id="edge6" class="edge">
<title>dbus&#45;broker&#45;&gt;shadow&#45;utils</title>
<path fill="none" stroke="#444444" stroke-opacity="0.333333" d="M856.916,-751.0373C885.8296,-710.9799 955.0444,-615.0885 988.7323,-568.4167"/>
<polygon fill="#444444" fill-opacity="0.333333" stroke="#444444" stroke-opacity="0.333333" points="991.5766,-570.4563 994.5914,-560.2994 985.9007,-566.3594 991.5766,-570.4563"/>
</g>
<!-- dbus&#45;broker&#45;&gt;systemd -->
<g id="edge7" class="edge">
<title>dbus&#45;broker&#45;&gt;systemd</title>
<path fill="none" stroke="#444444" stroke-opacity="0.333333" d="M822.0524,-750.9327C782.6822,-717.7266 699.496,-647.5647 655.0489,-610.0766"/>
<polygon fill="#444444" fill-opacity="0.333333" stroke="#444444" stroke-opacity="0.333333" points="657.1205,-607.2451 647.2198,-603.4732 652.6073,-612.596 657.1205,-607.2451"/>
</g>
<!-- dbus&#45;common&#45;&gt;Fedora Container Base -->
<g id="edge8" class="edge">
<title>dbus&#45;common&#45;&gt;Fedora Container Base</title>
<path fill="none" stroke="#444444" stroke-opacity="0.333333" d="M737.1057,-811.681C740.0785,-759.9592 748.6561,-610.7243 752.267,-547.9005"/>
<polygon fill="#444444" fill-opacity="0.333333" stroke="#444444" stroke-opacity="0.333333" points="755.7818,-547.7432 752.8615,-537.5588 748.7933,-547.3414 755.7818,-547.7432"/>
</g>
<!-- dbus&#45;common&#45;&gt;dbus&#45;common -->
<g id="edge9" class="edge">
<title>dbus&#45;common&#45;&gt;dbus&#45;common</title>
<path fill="none" stroke="#444444" stroke-opacity="0.333333" d="M813.6355,-835.7233C824.385,-834.7312 831.57,-832.7234 831.57,-829.7 831.57,-827.7631 828.6213,-826.2431 823.6757,-825.1398"/>
<polygon fill="#444444" fill-opacity="0.333333" stroke="#444444" stroke-opacity="0.333333" points="824.0357,-821.6554 813.6355,-823.6767 823.0262,-828.5823 824.0357,-821.6554"/>
</g>
<!-- dbus&#45;common&#45;&gt;systemd -->
<g id="edge10" class="edge">
<title>dbus&#45;common&#45;&gt;systemd</title>
<path fill="none" stroke="#444444" stroke-opacity="0.333333" d="M727.766,-811.325C708.5242,-768.7468 660.7971,-663.1362 638.0419,-612.7835"/>
<polygon fill="#444444" fill-opacity="0.333333" stroke="#444444" stroke-opacity="0.333333" points="641.1473,-611.156 633.8396,-603.4847 634.7684,-614.0388 641.1473,-611.156"/>
</g>
<!-- shadow&#45;utils&#45;&gt;Fedora Container Base -->
<g id="edge11" class="edge">
<title>shadow&#45;utils&#45;&gt;Fedora Container Base</title>
<path fill="none" stroke="#444444" stroke-opacity="0.333333" d="M937.0747,-535.7297C918.5383,-534.0863 897.9977,-532.2653 877.5704,-530.4542"/>
<polygon fill="#444444" fill-opacity="0.333333" stroke="#444444" stroke-opacity="0.333333" points="877.8309,-526.9637 867.5609,-529.5668 877.2127,-533.9363 877.8309,-526.9637"/>
</g>
<!-- shadow&#45;utils&#45;&gt;shadow&#45;utils -->
<g id="edge12" class="edge">
<title>shadow&#45;utils&#45;&gt;shadow&#45;utils</title>
<path fill="none" stroke="#444444" stroke-opacity="0.333333" d="M1078.6256,-548.1234C1089.169,-547.17 1096.3,-545.1289 1096.3,-542 1096.3,-540.0444 1093.5144,-538.5138 1088.8512,-537.408"/>
<polygon fill="#444444" fill-opacity="0.333333" stroke="#444444" stroke-opacity="0.333333" points="1089.0338,-533.8964 1078.6256,-535.8766 1087.9969,-540.8192 1089.0338,-533.8964"/>
</g>
<!-- shadow&#45;utils&#45;&gt;libsemanage -->
<g id="edge13" class="edge">
<title>shadow&#45;utils&#45;&gt;libsemanage</title>
<path fill="none" stroke="#444444" stroke-opacity="0.333333" d="M1033.141,-523.8122C1066.4341,-499.917 1125.0018,-457.8817 1162.0022,-431.3256"/>
<polygon fill="#444444" fill-opacity="0.333333" stroke="#444444" stroke-opacity="0.333333" points="1164.3778,-433.9289 1170.4611,-425.2545 1160.2962,-428.242 1164.3778,-433.9289"/>
</g>
<!-- systemd&#45;&gt;Fedora Container Base -->
<g id="edge14" class="edge">
<title>systemd&#45;&gt;Fedora Container Base</title>
<path fill="none" stroke="#444444" stroke-opacity="0.333333" d="M660.9909,-567.0922C676.2449,-559.2768 694.2333,-550.0604 710.299,-541.8291"/>
<polygon fill="#444444" fill-opacity="0.333333" stroke="#444444" stroke-opacity="0.333333" points="712.1969,-544.7894 719.5008,-537.1145 709.0049,-538.5595 712.1969,-544.7894"/>
</g>
<!-- systemd&#45;&gt;shadow&#45;utils -->
<g id="edge15" class="edge">
<title>systemd&#45;&gt;shadow&#45;utils</title>
<path fill="none" stroke="#444444" stroke-opacity="0.333333" d="M687.4234,-578.2363C752.5677,-570.8681 855.4399,-559.2327 926.9734,-551.1419"/>
<polygon fill="#444444" fill-opacity="0.333333" stroke="#444444" stroke-opacity="0.333333" points="927.7486,-554.5766 937.2919,-549.9748 926.9618,-547.621 927.7486,-554.5766"/>
</g>
<!-- systemd&#45;&gt;systemd -->
<g id="edge16" class="edge">
<title>systemd&#45;&gt;systemd</title>
<path fill="none" stroke="#444444" stroke-opacity="0.333333" d="M687.2567,-591.5313C697.7913,-590.6703 705.09,-588.5698 705.09,-585.23 705.09,-583.0904 702.0946,-581.4595 697.172,-580.3372"/>
<polygon fill="#444444" fill-opacity="0.333333" stroke="#444444" stroke-opacity="0.333333" points="697.6496,-576.87 687.2567,-578.9287 696.6651,-583.8004 697.6496,-576.87"/>
</g>
<!-- systemd&#45;&gt;util&#45;linux -->
<g id="edge17" class="edge">
<title>systemd&#45;&gt;util&#45;linux</title>
<path fill="none" stroke="#444444" stroke-opacity="0.333333" d="M643.5395,-567.2049C691.7485,-518.7928 824.1782,-385.8052 880.1794,-329.5682"/>
<polygon fill="#444444" fill-opacity="0.333333" stroke="#444444" stroke-opacity="0.333333" points="882.9813,-331.7147 887.5574,-322.1591 878.0211,-326.7754 882.9813,-331.7147"/>
</g>
<!-- systemd&#45;&gt;acl -->
<g id="edge18" class="edge">
<title>systemd&#45;&gt;acl</title>
<path fill="none" stroke="#444444" stroke-opacity="0.333333" d="M563.999,-586.1636C536.1863,-586.5852 503.5117,-587.0805 476.1743,-587.4949"/>
<polygon fill="#444444" fill-opacity="0.333333" stroke="#444444" stroke-opacity="0.333333" points="475.9254,-583.9981 465.9796,-587.6494 476.0316,-590.9973 475.9254,-583.9981"/>
</g>
<!-- systemd&#45;&gt;cryptsetup&#45;libs -->
<g id="edge19" class="edge">
<title>systemd&#45;&gt;cryptsetup&#45;libs</title>
<path fill="none" stroke="#444444" stroke-opacity="0.333333" d="M625.9765,-566.9719C627.3109,-503.9244 631.7319,-295.0554 633.35,-218.6094"/>
<polygon fill="#444444" fill-opacity="0.333333" stroke="#444444" stroke-opacity="0.333333" points="636.8552,-218.3963 633.5676,-208.3244 629.8567,-218.2481 636.8552,-218.3963"/>
</g>
<!-- systemd&#45;&gt;dbus -->
<g id="edge20" class="edge">
<title>systemd&#45;&gt;dbus</title>
<path fill="none" stroke="#444444" stroke-opacity="0.333333" d="M628.5927,-603.4783C639.9463,-672.4771 680.3048,-917.7469 694.0704,-1001.404"/>
<polygon fill="#444444" fill-opacity="0.333333" stroke="#444444" stroke-opacity="0.333333" points="690.6453,-1002.1458 695.7226,-1011.4448 697.5524,-1001.0092 690.6453,-1002.1458"/>
</g>
<!-- systemd&#45;&gt;iptables&#45;libs -->
<g id="edge21" class="edge">
<title>systemd&#45;&gt;iptables&#45;libs</title>
<path fill="none" stroke="#444444" stroke-opacity="0.333333" d="M603.2722,-603.518C568.8603,-631.7164 502.7995,-685.849 464.2604,-717.4293"/>
<polygon fill="#444444" fill-opacity="0.333333" stroke="#444444" stroke-opacity="0.333333" points="461.9921,-714.7631 456.4756,-723.8085 466.4288,-720.1775 461.9921,-714.7631"/>
</g>
<!-- systemd&#45;&gt;kmod&#45;libs -->
<g id="edge22" class="edge">
<title>systemd&#45;&gt;kmod&#45;libs</title>
<path fill="none" stroke="#444444" stroke-opacity="0.333333" d="M616.831,-567.0652C590.4377,-512.3296 511.5591,-348.7475 480.0728,-283.4498"/>
<polygon fill="#444444" fill-opacity="0.333333" stroke="#444444" stroke-opacity="0.333333" points="483.108,-281.686 475.6119,-274.1987 476.8027,-284.7264 483.108,-281.686"/>
</g>
<!-- systemd&#45;&gt;libseccomp -->
<g id="edge23" class="edge">
<title>systemd&#45;&gt;libseccomp</title>
<path fill="none" stroke="#444444" stroke-opacity="0.333333" d="M605.8152,-567.092C561.006,-525.9919 451.6746,-425.7103 400.6443,-378.9041"/>
<polygon fill="#444444" fill-opacity="0.333333" stroke="#444444" stroke-opacity="0.333333" points="402.9983,-376.3139 393.2629,-372.1337 398.2666,-381.4725 402.9983,-376.3139"/>
</g>
<!-- systemd&#45;&gt;qrencode&#45;libs -->
<g id="edge24" class="edge">
<title>systemd&#45;&gt;qrencode&#45;libs</title>
<path fill="none" stroke="#444444" stroke-opacity="0.333333" d="M621.9112,-603.4315C613.2735,-646.1675 591.6447,-753.1788 581.2769,-804.4747"/>
<polygon fill="#444444" fill-opacity="0.333333" stroke="#444444" stroke-opacity="0.333333" points="577.7948,-804.0366 579.2442,-814.5318 584.656,-805.4235 577.7948,-804.0366"/>
</g>
<!-- systemd&#45;&gt;systemd&#45;pam -->
<g id="edge25" class="edge">
<title>systemd&#45;&gt;systemd&#45;pam</title>
<path fill="none" stroke="#444444" stroke-opacity="0.333333" d="M590.3676,-567.195C547.1209,-548.8912 472.6234,-520.932 416.3629,-501.5921"/>
<polygon fill="#444444" fill-opacity="0.333333" stroke="#444444" stroke-opacity="0.333333" points="417.3859,-498.2431 406.7914,-498.3257 415.125,-504.868 417.3859,-498.2431"/>
</g>
<!-- systemd&#45;&gt;systemd&#45;rpm&#45;macros -->
<g id="edge26" class="edge">
<title>systemd&#45;&gt;systemd&#45;rpm&#45;macros</title>
<path fill="none" stroke="#444444" stroke-opacity="0.333333" d="M564.0048,-582.8626C474.5482,-579.4239 307.3898,-572.9982 197.6543,-568.7799"/>
<polygon fill="#444444" fill-opacity="0.333333" stroke="#444444" stroke-opacity="0.333333" points="197.6761,-565.2782 187.549,-568.3914 197.4071,-572.273 197.6761,-565.2782"/>
</g>
<!-- systemd&#45;&gt;diffutils -->
<g id="edge27" class="edge">
<title>systemd&#45;&gt;diffutils</title>
<path fill="none" stroke="#444444" stroke-dasharray="5,2" stroke-opacity="0.333333" d="M619.0924,-566.8734C605.9547,-529.7574 576.1694,-445.6096 560.6753,-401.8367"/>
<polygon fill="#444444" fill-opacity="0.333333" stroke="#444444" stroke-opacity="0.333333" points="563.9656,-400.6429 557.3294,-392.3839 557.3668,-402.9787 563.9656,-400.6429"/>
</g>
<!-- systemd&#45;&gt;libxkbcommon -->
<g id="edge28" class="edge">
<title>systemd&#45;&gt;libxkbcommon</title>
<path fill="none" stroke="#444444" stroke-dasharray="5,2" stroke-opacity="0.333333" d="M615.2272,-603.3806C580.7976,-663.6844 470.0922,-857.586 429.1346,-929.3236"/>
<polygon fill="#444444" fill-opacity="0.333333" stroke="#444444" stroke-opacity="0.333333" points="425.9716,-927.8046 424.0529,-938.2243 432.0506,-931.2754 425.9716,-927.8046"/>
</g>
<!-- libsemanage&#45;&gt;Fedora Container Base -->
<g id="edge40" class="edge">
<title>libsemanage&#45;&gt;Fedora Container Base</title>
<path fill="none" stroke="#444444" stroke-opacity="0.333333" d="M1124.7172,-425.191C1042.9147,-445.9934 909.1791,-480.0024 826.641,-500.9919"/>
<polygon fill="#444444" fill-opacity="0.333333" stroke="#444444" stroke-opacity="0.333333" points="825.6651,-497.6286 816.8362,-503.4853 827.3903,-504.4127 825.6651,-497.6286"/>
</g>
<!-- libsemanage&#45;&gt;libsemanage -->
<g id="edge41" class="edge">
<title>libsemanage&#45;&gt;libsemanage</title>
<path fill="none" stroke="#444444" stroke-opacity="0.333333" d="M1271.2725,-413.1974C1282.0009,-412.2177 1289.2,-410.1986 1289.2,-407.14 1289.2,-405.1806 1286.2455,-403.6478 1281.3013,-402.5415"/>
<polygon fill="#444444" fill-opacity="0.333333" stroke="#444444" stroke-opacity="0.333333" points="1281.6723,-399.0587 1271.2725,-401.0826 1280.6645,-405.9858 1281.6723,-399.0587"/>
</g>
<!-- util&#45;linux&#45;&gt;Fedora Container Base -->
<g id="edge29" class="edge">
<title>util&#45;linux&#45;&gt;Fedora Container Base</title>
<path fill="none" stroke="#444444" stroke-opacity="0.333333" d="M893.037,-321.9286C866.2453,-359.9703 803.7848,-448.6583 772.4795,-493.1089"/>
<polygon fill="#444444" fill-opacity="0.333333" stroke="#444444" stroke-opacity="0.333333" points="769.5502,-491.1898 766.6536,-501.3811 775.2733,-495.2205 769.5502,-491.1898"/>
</g>
<!-- util&#45;linux&#45;&gt;util&#45;linux -->
<g id="edge30" class="edge">
<title>util&#45;linux&#45;&gt;util&#45;linux</title>
<path fill="none" stroke="#444444" stroke-opacity="0.333333" d="M970.3997,-310.1653C980.9615,-309.2713 988.22,-307.1895 988.22,-303.92 988.22,-301.8255 985.2411,-300.2184 980.3232,-299.0987"/>
<polygon fill="#444444" fill-opacity="0.333333" stroke="#444444" stroke-opacity="0.333333" points="980.7955,-295.6307 970.3997,-297.6747 979.8011,-302.5598 980.7955,-295.6307"/>
</g>
<!-- util&#45;linux&#45;&gt;libfdisk -->
<g id="edge31" class="edge">
<title>util&#45;linux&#45;&gt;libfdisk</title>
<path fill="none" stroke="#444444" stroke-opacity="0.333333" d="M916.1464,-285.8653C936.1141,-251.2885 979.8409,-175.5697 1003.2254,-135.0764"/>
<polygon fill="#444444" fill-opacity="0.333333" stroke="#444444" stroke-opacity="0.333333" points="1006.3288,-136.7011 1008.2988,-126.291 1000.267,-133.2004 1006.3288,-136.7011"/>
</g>
<!-- util&#45;linux&#45;&gt;libutempter -->
<g id="edge32" class="edge">
<title>util&#45;linux&#45;&gt;libutempter</title>
<path fill="none" stroke="#444444" stroke-opacity="0.333333" d="M970.2204,-302.7331C983.4001,-302.4906 997.4064,-302.2328 1011.0102,-301.9825"/>
<polygon fill="#444444" fill-opacity="0.333333" stroke="#444444" stroke-opacity="0.333333" points="1011.3804,-305.4764 1021.3143,-301.7929 1011.2516,-298.4776 1011.3804,-305.4764"/>
</g>
<!-- acl&#45;&gt;Fedora Container Base -->
<g id="edge55" class="edge">
<title>acl&#45;&gt;Fedora Container Base</title>
<path fill="none" stroke="#444444" stroke-opacity="0.333333" d="M466.147,-578.5743C519.1171,-567.698 605.6245,-549.9354 669.979,-536.7215"/>
<polygon fill="#444444" fill-opacity="0.333333" stroke="#444444" stroke-opacity="0.333333" points="671.0172,-540.0814 680.1088,-534.6415 669.6092,-533.2245 671.0172,-540.0814"/>
</g>
<!-- cryptsetup&#45;libs&#45;&gt;Fedora Container Base -->
<g id="edge56" class="edge">
<title>cryptsetup&#45;libs&#45;&gt;Fedora Container Base</title>
<path fill="none" stroke="#444444" stroke-opacity="0.333333" d="M640.5699,-208.4298C660.4765,-263.0679 719.8878,-426.1357 743.7821,-491.7192"/>
<polygon fill="#444444" fill-opacity="0.333333" stroke="#444444" stroke-opacity="0.333333" points="740.5887,-493.1787 747.3006,-501.3764 747.1658,-490.7824 740.5887,-493.1787"/>
</g>
<!-- cryptsetup&#45;libs&#45;&gt;device&#45;mapper&#45;libs -->
<g id="edge57" class="edge">
<title>cryptsetup&#45;libs&#45;&gt;device&#45;mapper&#45;libs</title>
<path fill="none" stroke="#444444" stroke-opacity="0.333333" d="M654.0282,-172.1964C680.575,-148.3132 727.4783,-106.1161 757.4005,-79.1962"/>
<polygon fill="#444444" fill-opacity="0.333333" stroke="#444444" stroke-opacity="0.333333" points="759.8955,-81.6596 764.9888,-72.3693 755.2137,-76.4556 759.8955,-81.6596"/>
</g>
<!-- cryptsetup&#45;libs&#45;&gt;libargon2 -->
<g id="edge58" class="edge">
<title>cryptsetup&#45;libs&#45;&gt;libargon2</title>
<path fill="none" stroke="#444444" stroke-opacity="0.333333" d="M628.7935,-172.1507C620.2194,-142.0392 602.974,-81.4745 592.8392,-45.882"/>
<polygon fill="#444444" fill-opacity="0.333333" stroke="#444444" stroke-opacity="0.333333" points="596.1659,-44.7843 590.061,-36.1251 589.4335,-46.7013 596.1659,-44.7843"/>
</g>
<!-- dbus&#45;&gt;dbus&#45;broker -->
<g id="edge59" class="edge">
<title>dbus&#45;&gt;dbus&#45;broker</title>
<path fill="none" stroke="#444444" stroke-opacity="0.333333" d="M708.9103,-1011.2927C734.036,-966.1978 799.013,-849.5787 828.6425,-796.4004"/>
<polygon fill="#444444" fill-opacity="0.333333" stroke="#444444" stroke-opacity="0.333333" points="831.7711,-797.9762 833.5809,-787.5371 825.6562,-794.5691 831.7711,-797.9762"/>
</g>
<!-- iptables&#45;libs&#45;&gt;Fedora Container Base -->
<g id="edge60" class="edge">
<title>iptables&#45;libs&#45;&gt;Fedora Container Base</title>
<path fill="none" stroke="#444444" stroke-opacity="0.333333" d="M460.1835,-723.9612C517.523,-684.0442 655.2511,-588.1645 719.6383,-543.3413"/>
<polygon fill="#444444" fill-opacity="0.333333" stroke="#444444" stroke-opacity="0.333333" points="722.0134,-545.9525 728.2209,-537.3666 718.014,-540.2075 722.0134,-545.9525"/>
</g>
<!-- iptables&#45;libs&#45;&gt;libpcap -->
<g id="edge61" class="edge">
<title>iptables&#45;libs&#45;&gt;libpcap</title>
<path fill="none" stroke="#444444" stroke-opacity="0.333333" d="M360.5565,-740.5231C357.3762,-740.4602 354.1897,-740.3973 351.0191,-740.3346"/>
<polygon fill="#444444" fill-opacity="0.333333" stroke="#444444" stroke-opacity="0.333333" points="351.0412,-736.8345 340.9739,-740.1362 350.9028,-743.8331 351.0412,-736.8345"/>
</g>
<!-- kmod&#45;libs&#45;&gt;Fedora Container Base -->
<g id="edge62" class="edge">
<title>kmod&#45;libs&#45;&gt;Fedora Container Base</title>
<path fill="none" stroke="#444444" stroke-opacity="0.333333" d="M486.608,-274.1945C536.8076,-320.263 669.4689,-442.0071 726.835,-494.6523"/>
<polygon fill="#444444" fill-opacity="0.333333" stroke="#444444" stroke-opacity="0.333333" points="724.6792,-497.4243 734.4134,-501.6071 729.4122,-492.2669 724.6792,-497.4243"/>
</g>
<!-- libseccomp&#45;&gt;Fedora Container Base -->
<g id="edge63" class="edge">
<title>libseccomp&#45;&gt;Fedora Container Base</title>
<path fill="none" stroke="#444444" stroke-opacity="0.333333" d="M415.0049,-372.0966C485.716,-402.8506 629.3755,-465.3314 704.9333,-498.1932"/>
<polygon fill="#444444" fill-opacity="0.333333" stroke="#444444" stroke-opacity="0.333333" points="703.6771,-501.4636 714.2433,-502.2424 706.469,-495.0444 703.6771,-501.4636"/>
</g>
<!-- qrencode&#45;libs&#45;&gt;Fedora Container Base -->
<g id="edge64" class="edge">
<title>qrencode&#45;libs&#45;&gt;Fedora Container Base</title>
<path fill="none" stroke="#444444" stroke-opacity="0.333333" d="M585.9192,-814.5632C615.9003,-761.8987 702.8742,-609.1213 738.4538,-546.6226"/>
<polygon fill="#444444" fill-opacity="0.333333" stroke="#444444" stroke-opacity="0.333333" points="741.6065,-548.1591 743.5122,-537.737 735.5232,-544.6959 741.6065,-548.1591"/>
</g>
<!-- systemd&#45;pam&#45;&gt;Fedora Container Base -->
<g id="edge65" class="edge">
<title>systemd&#45;pam&#45;&gt;Fedora Container Base</title>
<path fill="none" stroke="#444444" stroke-opacity="0.333333" d="M419.9914,-487.7636C480.1412,-493.4787 564.1813,-501.4638 632.9002,-507.9932"/>
<polygon fill="#444444" fill-opacity="0.333333" stroke="#444444" stroke-opacity="0.333333" points="632.637,-511.4838 642.9233,-508.9455 633.2992,-504.5152 632.637,-511.4838"/>
</g>
<!-- systemd&#45;pam&#45;&gt;systemd -->
<g id="edge66" class="edge">
<title>systemd&#45;pam&#45;&gt;systemd</title>
<path fill="none" stroke="#444444" stroke-opacity="0.333333" d="M376.6624,-498.335C420.8856,-517.0522 497.7869,-545.8656 554.4498,-565.2346"/>
<polygon fill="#444444" fill-opacity="0.333333" stroke="#444444" stroke-opacity="0.333333" points="553.4761,-568.6001 564.0704,-568.4975 555.7245,-561.971 553.4761,-568.6001"/>
</g>
<!-- diffutils&#45;&gt;Fedora Container Base -->
<g id="edge70" class="edge">
<title>diffutils&#45;&gt;Fedora Container Base</title>
<path fill="none" stroke="#444444" stroke-opacity="0.333333" d="M576.1996,-392.3248C612.715,-418.4558 680.2382,-466.7764 720.7136,-495.7413"/>
<polygon fill="#444444" fill-opacity="0.333333" stroke="#444444" stroke-opacity="0.333333" points="718.7501,-498.6401 728.9192,-501.6134 722.8238,-492.9475 718.7501,-498.6401"/>
</g>
<!-- libxkbcommon&#45;&gt;Fedora Container Base -->
<g id="edge71" class="edge">
<title>libxkbcommon&#45;&gt;Fedora Container Base</title>
<path fill="none" stroke="#444444" stroke-opacity="0.333333" d="M427.8944,-938.1253C481.2789,-869.5724 670.2668,-626.8863 733.2812,-545.9673"/>
<polygon fill="#444444" fill-opacity="0.333333" stroke="#444444" stroke-opacity="0.333333" points="736.2723,-547.8228 739.655,-537.7825 730.7494,-543.5219 736.2723,-547.8228"/>
</g>
<!-- libxkbcommon&#45;&gt;xkeyboard&#45;config -->
<g id="edge72" class="edge">
<title>libxkbcommon&#45;&gt;xkeyboard&#45;config</title>
<path fill="none" stroke="#444444" stroke-opacity="0.333333" d="M400.4471,-974.4781C356.781,-1034.1951 217.3597,-1224.8653 165.7312,-1295.4715"/>
<polygon fill="#444444" fill-opacity="0.333333" stroke="#444444" stroke-opacity="0.333333" points="162.6802,-1293.7143 159.6029,-1303.8524 168.3308,-1297.8461 162.6802,-1293.7143"/>
</g>
<!-- libfdisk&#45;&gt;Fedora Container Base -->
<g id="edge67" class="edge">
<title>libfdisk&#45;&gt;Fedora Container Base</title>
<path fill="none" stroke="#444444" stroke-opacity="0.333333" d="M1006.9802,-126.4798C964.8527,-191.8999 820.9633,-415.3469 771.0876,-492.7992"/>
<polygon fill="#444444" fill-opacity="0.333333" stroke="#444444" stroke-opacity="0.333333" points="767.9559,-491.1979 765.4845,-501.5004 773.8413,-494.9878 767.9559,-491.1979"/>
</g>
<!-- libutempter&#45;&gt;Fedora Container Base -->
<g id="edge68" class="edge">
<title>libutempter&#45;&gt;Fedora Container Base</title>
<path fill="none" stroke="#444444" stroke-opacity="0.333333" d="M1061.6592,-318.6439C1001.1087,-358.1596 857.1463,-452.1106 789.7974,-496.0631"/>
<polygon fill="#444444" fill-opacity="0.333333" stroke="#444444" stroke-opacity="0.333333" points="787.6653,-493.2751 781.2037,-501.6714 791.491,-499.1372 787.6653,-493.2751"/>
</g>
<!-- libutempter&#45;&gt;shadow&#45;utils -->
<g id="edge69" class="edge">
<title>libutempter&#45;&gt;shadow&#45;utils</title>
<path fill="none" stroke="#444444" stroke-opacity="0.333333" d="M1083.2667,-318.6887C1069.0844,-360.6552 1033.9506,-464.6187 1017.1022,-514.4743"/>
<polygon fill="#444444" fill-opacity="0.333333" stroke="#444444" stroke-opacity="0.333333" points="1013.779,-513.3758 1013.8931,-523.97 1020.4105,-515.617 1013.779,-513.3758"/>
</g>
<!-- libunwind&#45;&gt;Fedora Container Base -->
<g id="edge37" class="edge">
<title>libunwind&#45;&gt;Fedora Container Base</title>
<path fill="none" stroke="#444444" stroke-opacity="0.333333" d="M960.2046,-958.6291C927.0206,-887.9938 806.6877,-631.8536 766.8258,-547.0038"/>
<polygon fill="#444444" fill-opacity="0.333333" stroke="#444444" stroke-opacity="0.333333" points="769.8998,-545.3156 762.4798,-537.7529 763.5641,-548.2921 769.8998,-545.3156"/>
</g>
<!-- libunwind&#45;&gt;libunwind -->
<g id="edge38" class="edge">
<title>libunwind&#45;&gt;libunwind</title>
<path fill="none" stroke="#444444" stroke-opacity="0.333333" d="M1036.097,-983.026C1046.5997,-982.1012 1053.76,-980.0392 1053.76,-976.84 1053.76,-974.8405 1050.963,-973.2852 1046.3011,-972.1741"/>
<polygon fill="#444444" fill-opacity="0.333333" stroke="#444444" stroke-opacity="0.333333" points="1046.5036,-968.6658 1036.097,-970.654 1045.4721,-975.5894 1046.5036,-968.6658"/>
</g>
<!-- libpcap&#45;&gt;Fedora Container Base -->
<g id="edge39" class="edge">
<title>libpcap&#45;&gt;Fedora Container Base</title>
<path fill="none" stroke="#444444" stroke-opacity="0.333333" d="M320.5053,-720.8131C406.9648,-680.6504 614.1907,-584.3886 707.2578,-541.1565"/>
<polygon fill="#444444" fill-opacity="0.333333" stroke="#444444" stroke-opacity="0.333333" points="708.8384,-544.2816 716.4331,-536.8944 705.8893,-537.9331 708.8384,-544.2816"/>
</g>
<!-- gperftools&#45;libs&#45;&gt;Fedora Container Base -->
<g id="edge42" class="edge">
<title>gperftools&#45;libs&#45;&gt;Fedora Container Base</title>
<path fill="none" stroke="#444444" stroke-opacity="0.333333" d="M1060.8418,-849.9618C1007.0569,-792.0538 840.1708,-612.3743 777.7679,-545.1876"/>
<polygon fill="#444444" fill-opacity="0.333333" stroke="#444444" stroke-opacity="0.333333" points="780.0603,-542.5127 770.6904,-537.5675 774.9313,-547.2765 780.0603,-542.5127"/>
</g>
<!-- gperftools&#45;libs&#45;&gt;libunwind -->
<g id="edge43" class="edge">
<title>gperftools&#45;libs&#45;&gt;libunwind</title>
<path fill="none" stroke="#444444" stroke-opacity="0.333333" d="M1059.3029,-886.6459C1041.4154,-904.4645 1014.164,-931.6108 994.2306,-951.4675"/>
<polygon fill="#444444" fill-opacity="0.333333" stroke="#444444" stroke-opacity="0.333333" points="991.5986,-949.1491 986.984,-958.6862 996.5388,-954.1084 991.5986,-949.1491"/>
</g>
<!-- nginx&#45;&gt;Fedora Container Base -->
<g id="edge44" class="edge">
<title>nginx&#45;&gt;Fedora Container Base</title>
<path fill="none" stroke="#444444" stroke-opacity="0.333333" d="M1141.5129,-729.7769C1065.312,-688.4366 878.7441,-587.2201 795.3523,-541.9786"/>
<polygon fill="#444444" fill-opacity="0.333333" stroke="#444444" stroke-opacity="0.333333" points="796.879,-538.825 786.4202,-537.1328 793.5409,-544.9779 796.879,-538.825"/>
</g>
<!-- nginx&#45;&gt;systemd -->
<g id="edge45" class="edge">
<title>nginx&#45;&gt;systemd</title>
<path fill="none" stroke="#444444" stroke-opacity="0.333333" d="M1114.0154,-729.861C1011.6233,-699.541 805.4966,-638.5034 696.6508,-606.2723"/>
<polygon fill="#444444" fill-opacity="0.333333" stroke="#444444" stroke-opacity="0.333333" points="697.3295,-602.8231 686.7473,-603.3397 695.342,-609.535 697.3295,-602.8231"/>
</g>
<!-- nginx&#45;&gt;fedora&#45;logos&#45;httpd -->
<g id="edge46" class="edge">
<title>nginx&#45;&gt;fedora&#45;logos&#45;httpd</title>
<path fill="none" stroke="#444444" stroke-opacity="0.333333" d="M1201.3076,-766.064C1268.9719,-812.6312 1448.5612,-936.2262 1524.4611,-988.4612"/>
<polygon fill="#444444" fill-opacity="0.333333" stroke="#444444" stroke-opacity="0.333333" points="1522.5402,-991.3879 1532.7621,-994.174 1526.5087,-985.6215 1522.5402,-991.3879"/>
</g>
<!-- nginx&#45;&gt;gperftools&#45;libs -->
<g id="edge47" class="edge">
<title>nginx&#45;&gt;gperftools&#45;libs</title>
<path fill="none" stroke="#444444" stroke-opacity="0.333333" d="M1160.3631,-765.9046C1144.06,-786.1081 1117.4734,-819.0552 1098.8877,-842.0873"/>
<polygon fill="#444444" fill-opacity="0.333333" stroke="#444444" stroke-opacity="0.333333" points="1095.9923,-840.102 1092.4362,-850.0822 1101.4399,-844.4979 1095.9923,-840.102"/>
</g>
<!-- nginx&#45;&gt;nginx -->
<g id="edge48" class="edge">
<title>nginx&#45;&gt;nginx</title>
<path fill="none" stroke="#444444" stroke-opacity="0.333333" d="M1252.4655,-753.9133C1263.215,-752.9212 1270.4,-750.9134 1270.4,-747.89 1270.4,-745.9531 1267.4513,-744.4331 1262.5057,-743.3298"/>
<polygon fill="#444444" fill-opacity="0.333333" stroke="#444444" stroke-opacity="0.333333" points="1262.8657,-739.8454 1252.4655,-741.8667 1261.8562,-746.7723 1262.8657,-739.8454"/>
</g>
<!-- nginx&#45;&gt;nginx&#45;filesystem -->
<g id="edge49" class="edge">
<title>nginx&#45;&gt;nginx&#45;filesystem</title>
<path fill="none" stroke="#444444" stroke-opacity="0.333333" d="M1185.2347,-729.8334C1199.3206,-705.2228 1224.6622,-660.9464 1241.0213,-632.364"/>
<polygon fill="#444444" fill-opacity="0.333333" stroke="#444444" stroke-opacity="0.333333" points="1244.0616,-634.0979 1245.9915,-623.6803 1237.9864,-630.6207 1244.0616,-634.0979"/>
</g>
<!-- nginx&#45;&gt;nginx&#45;mimetypes -->
<g id="edge50" class="edge">
<title>nginx&#45;&gt;nginx&#45;mimetypes</title>
<path fill="none" stroke="#444444" stroke-opacity="0.333333" d="M1252.5139,-742.0356C1310.1628,-737.6872 1389.1576,-731.7286 1450.8635,-727.0742"/>
<polygon fill="#444444" fill-opacity="0.333333" stroke="#444444" stroke-opacity="0.333333" points="1451.2932,-730.5518 1461.0016,-726.3095 1450.7667,-723.5716 1451.2932,-730.5518"/>
</g>
<!-- nginx&#45;filesystem&#45;&gt;Fedora Container Base -->
<g id="edge51" class="edge">
<title>nginx&#45;filesystem&#45;&gt;Fedora Container Base</title>
<path fill="none" stroke="#444444" stroke-opacity="0.333333" d="M1180.4389,-592.3309C1091.2524,-577.1003 943.4278,-551.856 847.343,-535.4474"/>
<polygon fill="#444444" fill-opacity="0.333333" stroke="#444444" stroke-opacity="0.333333" points="847.7877,-531.9728 837.3412,-533.7394 846.6093,-538.8729 847.7877,-531.9728"/>
</g>
<!-- nginx&#45;filesystem&#45;&gt;shadow&#45;utils -->
<g id="edge52" class="edge">
<title>nginx&#45;filesystem&#45;&gt;shadow&#45;utils</title>
<path fill="none" stroke="#444444" stroke-opacity="0.333333" d="M1185.5654,-587.2598C1155.2504,-579.5414 1119.706,-570.4917 1088.4012,-562.5214"/>
<polygon fill="#444444" fill-opacity="0.333333" stroke="#444444" stroke-opacity="0.333333" points="1088.9527,-559.0502 1078.3983,-559.9746 1087.2256,-565.8338 1088.9527,-559.0502"/>
</g>
<!-- nginx&#45;mimetypes&#45;&gt;nginx&#45;filesystem -->
<g id="edge53" class="edge">
<title>nginx&#45;mimetypes&#45;&gt;nginx&#45;filesystem</title>
<path fill="none" stroke="#444444" stroke-opacity="0.333333" d="M1501.5426,-701.7866C1450.2406,-681.5904 1367.0505,-648.8407 1312.0578,-627.1916"/>
<polygon fill="#444444" fill-opacity="0.333333" stroke="#444444" stroke-opacity="0.333333" points="1313.0573,-623.8237 1302.4703,-623.4172 1310.4931,-630.3371 1313.0573,-623.8237"/>
</g>
<!-- nginx&#45;mimetypes&#45;&gt;nginx&#45;mimetypes -->
<g id="edge54" class="edge">
<title>nginx&#45;mimetypes&#45;&gt;nginx&#45;mimetypes</title>
<path fill="none" stroke="#444444" stroke-opacity="0.333333" d="M1633.377,-725.6782C1644.1864,-724.6422 1651.3,-722.6828 1651.3,-719.8 1651.3,-717.9532 1648.3806,-716.4854 1643.4403,-715.3965"/>
<polygon fill="#444444" fill-opacity="0.333333" stroke="#444444" stroke-opacity="0.333333" points="1643.7789,-711.9088 1633.377,-713.9218 1642.7639,-718.8348 1643.7789,-711.9088"/>
</g>
<!-- Fedora Container Base -->
<g id="node1" class="node">
<title>Fedora Container Base</title>
<ellipse fill="none" stroke="#000000" cx="753.9" cy="-519.49" rx="136.5" ry="18"/>
<text text-anchor="middle" x="753.9" y="-515.79" font-family="Helvetica,sans-Serif" font-weight="bold" font-size="14.00" fill="#000000">Fedora Container Base (201.6 MB)</text>
</g>
<!-- device&#45;mapper&#45;libs -->
<g id="node2" class="node">
<title>device&#45;mapper&#45;libs</title>
<text text-anchor="middle" x="785.15" y="-50.531" font-family="Helvetica,sans-Serif" font-weight="bold" font-size="14.00" fill="#000000">device&#45;mapper&#45;libs (414.2 kB)</text>
</g>
<!-- device&#45;mapper -->
<g id="node3" class="node">
<title>device&#45;mapper</title>
<text text-anchor="middle" x="770" y="-254.47" font-family="Helvetica,sans-Serif" font-weight="bold" font-size="14.00" fill="#000000">device&#45;mapper (350.0 kB)</text>
</g>
<!-- libargon2 -->
<g id="node4" class="node">
<title>libargon2</title>
<text text-anchor="middle" x="584.9" y="-14.3" font-family="Helvetica,sans-Serif" font-weight="bold" font-size="14.00" fill="#000000">libargon2 (54.9 kB)</text>
</g>
<!-- dbus&#45;broker -->
<g id="node5" class="node">
<title>dbus&#45;broker</title>
<text text-anchor="middle" x="843.77" y="-765.55" font-family="Helvetica,sans-Serif" font-weight="bold" font-size="14.00" fill="#000000">dbus&#45;broker (423.2 kB)</text>
</g>
<!-- dbus&#45;common -->
<g id="node6" class="node">
<title>dbus&#45;common</title>
<text text-anchor="middle" x="736.07" y="-826" font-family="Helvetica,sans-Serif" font-weight="bold" font-size="14.00" fill="#000000">dbus&#45;common (11.2 kB)</text>
</g>
<!-- shadow&#45;utils -->
<g id="node7" class="node">
<title>shadow&#45;utils</title>
<text text-anchor="middle" x="1007.8" y="-538.3" font-family="Helvetica,sans-Serif" font-weight="bold" font-size="14.00" fill="#000000">shadow&#45;utils (4.0 MB)</text>
</g>
<!-- systemd -->
<g id="node8" class="node">
<title>systemd</title>
<text text-anchor="middle" x="625.59" y="-581.53" font-family="Helvetica,sans-Serif" font-weight="bold" font-size="14.00" fill="#000000">systemd (11.9 MB)</text>
</g>
<!-- libsemanage -->
<g id="node9" class="node">
<title>libsemanage</title>
<text text-anchor="middle" x="1195.7" y="-403.44" font-family="Helvetica,sans-Serif" font-weight="bold" font-size="14.00" fill="#000000">libsemanage (304.6 kB)</text>
</g>
<!-- util&#45;linux -->
<g id="node10" class="node">
<title>util&#45;linux</title>
<text text-anchor="middle" x="905.72" y="-300.22" font-family="Helvetica,sans-Serif" font-weight="bold" font-size="14.00" fill="#000000">util&#45;linux (13.2 MB)</text>
</g>
<!-- acl -->
<g id="node11" class="node">
<title>acl</title>
<text text-anchor="middle" x="418.44" y="-584.67" font-family="Helvetica,sans-Serif" font-weight="bold" font-size="14.00" fill="#000000">acl (212.0 kB)</text>
</g>
<!-- cryptsetup&#45;libs -->
<g id="node12" class="node">
<title>cryptsetup&#45;libs</title>
<text text-anchor="middle" x="633.95" y="-186.56" font-family="Helvetica,sans-Serif" font-weight="bold" font-size="14.00" fill="#000000">cryptsetup&#45;libs (1.8 MB)</text>
</g>
<!-- dbus -->
<g id="node13" class="node">
<title>dbus</title>
<text text-anchor="middle" x="698.71" y="-1025.9" font-family="Helvetica,sans-Serif" font-weight="bold" font-size="14.00" fill="#000000">dbus (0.0 B)</text>
</g>
<!-- iptables&#45;libs -->
<g id="node14" class="node">
<title>iptables&#45;libs</title>
<text text-anchor="middle" x="434.3" y="-738.28" font-family="Helvetica,sans-Serif" font-weight="bold" font-size="14.00" fill="#000000">iptables&#45;libs (141.5 kB)</text>
</g>
<!-- kmod&#45;libs -->
<g id="node15" class="node">
<title>kmod&#45;libs</title>
<text text-anchor="middle" x="466.88" y="-252.39" font-family="Helvetica,sans-Serif" font-weight="bold" font-size="14.00" fill="#000000">kmod&#45;libs (197.4 kB)</text>
</g>
<!-- libseccomp -->
<g id="node16" class="node">
<title>libseccomp</title>
<text text-anchor="middle" x="373.58" y="-350.38" font-family="Helvetica,sans-Serif" font-weight="bold" font-size="14.00" fill="#000000">libseccomp (347.1 kB)</text>
</g>
<!-- qrencode&#45;libs -->
<g id="node17" class="node">
<title>qrencode&#45;libs</title>
<text text-anchor="middle" x="575.56" y="-829.06" font-family="Helvetica,sans-Serif" font-weight="bold" font-size="14.00" fill="#000000">qrencode&#45;libs (159.3 kB)</text>
</g>
<!-- systemd&#45;pam -->
<g id="node18" class="node">
<title>systemd&#45;pam</title>
<text text-anchor="middle" x="341.44" y="-476.6" font-family="Helvetica,sans-Serif" font-weight="bold" font-size="14.00" fill="#000000">systemd&#45;pam (335.8 kB)</text>
</g>
<!-- systemd&#45;rpm&#45;macros -->
<g id="node19" class="node">
<title>systemd&#45;rpm&#45;macros</title>
<text text-anchor="middle" x="91" y="-560.98" font-family="Helvetica,sans-Serif" font-weight="bold" font-size="14.00" fill="#000000">systemd&#45;rpm&#45;macros (4.9 kB)</text>
</g>
<!-- diffutils -->
<g id="node20" class="node">
<title>diffutils</title>
<text text-anchor="middle" x="550.9" y="-370.52" font-family="Helvetica,sans-Serif" font-weight="bold" font-size="14.00" fill="#000000">diffutils (1.5 MB)</text>
</g>
<!-- libxkbcommon -->
<g id="node21" class="node">
<title>libxkbcommon</title>
<text text-anchor="middle" x="413.71" y="-952.64" font-family="Helvetica,sans-Serif" font-weight="bold" font-size="14.00" fill="#000000">libxkbcommon (276.5 kB)</text>
</g>
<!-- libfdisk -->
<g id="node22" class="node">
<title>libfdisk</title>
<text text-anchor="middle" x="1018.7" y="-104.58" font-family="Helvetica,sans-Serif" font-weight="bold" font-size="14.00" fill="#000000">libfdisk (476.8 kB)</text>
</g>
<!-- libutempter -->
<g id="node23" class="node">
<title>libutempter</title>
<text text-anchor="middle" x="1089.4" y="-296.84" font-family="Helvetica,sans-Serif" font-weight="bold" font-size="14.00" fill="#000000">libutempter (58.2 kB)</text>
</g>
<!-- libunwind -->
<g id="node24" class="node">
<title>libunwind</title>
<text text-anchor="middle" x="968.76" y="-973.14" font-family="Helvetica,sans-Serif" font-weight="bold" font-size="14.00" fill="#000000">libunwind (195.9 kB)</text>
</g>
<!-- libpcap -->
<g id="node25" class="node">
<title>libpcap</title>
<text text-anchor="middle" x="281.44" y="-735.26" font-family="Helvetica,sans-Serif" font-weight="bold" font-size="14.00" fill="#000000">libpcap (381.0 kB)</text>
</g>
<!-- xkeyboard&#45;config -->
<g id="node26" class="node">
<title>xkeyboard&#45;config</title>
<text text-anchor="middle" x="146.26" y="-1318.4" font-family="Helvetica,sans-Serif" font-weight="bold" font-size="14.00" fill="#000000">xkeyboard&#45;config (5.4 MB)</text>
</g>
<!-- fedora&#45;logos&#45;httpd -->
<g id="node27" class="node">
<title>fedora&#45;logos&#45;httpd</title>
<text text-anchor="middle" x="1559.1" y="-1008.6" font-family="Helvetica,sans-Serif" font-weight="bold" font-size="14.00" fill="#000000">fedora&#45;logos&#45;httpd (9.9 kB)</text>
</g>
<!-- gperftools&#45;libs -->
<g id="node28" class="node">
<title>gperftools&#45;libs</title>
<text text-anchor="middle" x="1077.8" y="-864.52" font-family="Helvetica,sans-Serif" font-weight="bold" font-size="14.00" fill="#000000">gperftools&#45;libs (1.8 MB)</text>
</g>
<!-- nginx -->
<g id="node29" class="node">
<title>nginx</title>
<text text-anchor="middle" x="1174.9" y="-742.29" font-family="Helvetica,sans-Serif" font-weight="bold" font-size="22.00" fill="#cc0066">nginx (1.7 MB)</text>
</g>
<!-- nginx&#45;filesystem -->
<g id="node30" class="node">
<title>nginx&#45;filesystem</title>
<text text-anchor="middle" x="1256.5" y="-601.62" font-family="Helvetica,sans-Serif" font-weight="bold" font-size="14.00" fill="#000000">nginx&#45;filesystem (0.0 B)</text>
</g>
<!-- nginx&#45;mimetypes -->
<g id="node31" class="node">
<title>nginx&#45;mimetypes</title>
<text text-anchor="middle" x="1547.3" y="-716.1" font-family="Helvetica,sans-Serif" font-weight="bold" font-size="14.00" fill="#000000">nginx&#45;mimetypes (39.3 kB)</text>
</g>
</g>

<script type="text/javascript"><![CDATA[

document.addEventListener('click', function(e) {
      e = e || window.event;
      var target = e.target || e.srcElement;
      text = target.parentElement.querySelector("title").textContent;

      console.log("Clicked on: " + text);
      // reset all strokes
      var nodes = document.getElementsByClassName("edge");

      for (index = 0, len = nodes.length; index < len; ++index) {
          //var title = nodes[index].querySelector("title").textContent.split("->");
          id = nodes[index].id;
          document.getElementById(id).querySelector("path").setAttribute("stroke-width", "1");
          document.getElementById(id).querySelector("path").setAttribute("stroke-opacity", "0.5");
          document.getElementById(id).querySelector("path").setAttribute("stroke", "#444444");
          document.getElementById(id).querySelector("polygon").setAttribute("stroke-width", "1");
          document.getElementById(id).querySelector("polygon").setAttribute("stroke-opacity", "0.5");
          document.getElementById(id).querySelector("polygon").setAttribute("stroke", "#444444");
      }
      // reset text highlight
      pkgs = document.getElementsByClassName("node");
      for (index2 = 0, len2 = pkgs.length; index2 < len2; ++index2) {
          target_id = pkgs[index2].id;
          document.getElementById(target_id).querySelector("text").setAttribute("font-weight", "normal");
      }

      // highlight deps
      var nodes = document.getElementsByClassName("edge");
      for (index = 0, len = nodes.length; index < len; ++index) {
        var title = nodes[index].querySelector("title").textContent.split("->");

        if (title[0] == text) {
          id = nodes[index].id;
          //console.log("ID:   " + id);
          document.getElementById(id).querySelector("path").setAttribute("stroke-width", "3");
          document.getElementById(id).querySelector("path").setAttribute("stroke-opacity", "1");
          document.getElementById(id).querySelector("path").setAttribute("stroke", "#aa3333");
          document.getElementById(id).querySelector("polygon").setAttribute("stroke-width", "5");
          document.getElementById(id).querySelector("polygon").setAttribute("stroke-opacity", "1");
          document.getElementById(id).querySelector("polygon").setAttribute("stroke", "#aa3333");

        }
        if (title[1] == text) {
          id = nodes[index].id;
          document.getElementById(id).querySelector("path").setAttribute("stroke-width", "3");
          document.getElementById(id).querySelector("path").setAttribute("stroke-opacity", "1");
          document.getElementById(id).querySelector("path").setAttribute("stroke", "#333377");
          document.getElementById(id).querySelector("polygon").setAttribute("stroke-width", "5");
          document.getElementById(id).querySelector("polygon").setAttribute("stroke-opacity", "1");
          document.getElementById(id).querySelector("polygon").setAttribute("stroke", "#333377");
        }

        if (title[0] == text || title[1] == text) {
          pkgs = document.getElementsByClassName("node");
          for (index2 = 0, len2 = pkgs.length; index2 < len2; ++index2) {
            var pkg_name = pkgs[index2].querySelector("title").textContent;
            if (pkg_name == title[0] || pkg_name == title[1]) {
              target_id = pkgs[index2].id;
              document.getElementById(target_id).querySelector("text").setAttribute("font-weight", "bold");
            }
          }
        }
      }


  }, false);

]]></script>

</svg>
