<?xml version="1.0" encoding="UTF-8" standalone="no"?>
<!DOCTYPE svg PUBLIC "-//W3C//DTD SVG 1.1//EN"
 "http://www.w3.org/Graphics/SVG/1.1/DTD/svg11.dtd">
<!-- Generated by graphviz version 2.40.1 (0)
 -->
<!-- Title: packages Pages: 1 -->
<svg width="988pt" height="802pt"
 viewBox="0.00 0.00 987.99 802.46" xmlns="http://www.w3.org/2000/svg" xmlns:xlink="http://www.w3.org/1999/xlink">
<g id="graph0" class="graph" transform="scale(1 1) rotate(0) translate(107.829 690.0486)">
<title>packages</title>
<polygon fill="#dae2ff" stroke="transparent" points="-107.829,112.4134 -107.829,-690.0486 880.165,-690.0486 880.165,112.4134 -107.829,112.4134"/>
<polygon fill="#fed9a6" stroke="#fed9a6" points="353.5797,-388.7644 331.236,-386.6007 249.615,-376.9483 178.1901,-497.4046 163.5519,-520.1209 193.4617,-566.4247 343.2129,-526.7486 346.4429,-523.2808 348.0198,-522.5641 348.6207,-522.0289 352.1573,-522.0289 356.2642,-548.0364 360.1646,-521.8925 363.0562,-521.8925 366.7144,-550.3486 370.799,-521.8536 370.807,-521.8536 373.8323,-524.4352 373.8323,-524.4352 370.807,-521.8536 370.799,-521.8536 366.7144,-550.3486 363.0562,-521.8925 360.1646,-521.8925 356.2642,-548.0364 352.1573,-522.0289 348.6207,-522.0289 348.0198,-522.5641 346.4429,-523.2808 343.2129,-526.7486 193.4617,-566.4247 205.8395,-586.4796 227.7854,-609.0004 291.1459,-645.8647 332.9052,-649.4407 350.5764,-651.3554 356.7183,-652.1591 365.9497,-653.7831 376.6866,-656.1567 388.4093,-659.278 394.5287,-661.1833 404.8678,-664.6366 408.3334,-665.2801 423.2106,-668.9708 425.7682,-668.4983 487.1728,-658.3799 487.2873,-658.3119 499.4054,-537.65 499.1935,-521.76 507.1806,-442.2304 522.4422,-437.5914 537.9789,-433.6911 538.6322,-433.562 542.6132,-364.0039 548.3204,-322.0496 552.153,-322.0496 553.428,-321.6766 556.7924,-321.6766 556.7924,-321.6766 553.428,-321.6766 552.153,-322.0496 548.3204,-322.0496 542.6132,-364.0039 538.6322,-433.562 555.0151,-431.1866 559.7173,-430.6301 572.6415,-429.7867 580.2005,-429.695 582.0359,-429.7703 588.2447,-429.6888 591.9287,-429.5406 600.4004,-429.4253 604.5911,-429.7022 608.1101,-429.6493 614.7196,-429.901 622.08,-429.7827 623.269,-429.8268 624.8477,-429.8427 634.8895,-429.6711 634.71,-414.0844 630.7427,-322.1727 626.872,-322.1727 625.3869,-321.73 625.3869,-321.73 626.872,-322.1727 630.7427,-322.1727 634.71,-414.0844 634.8895,-429.6711 638.8809,-429.8155 644.437,-429.7153 644.2927,-351.7794 644.2927,-351.7794 644.437,-429.7153 649.6733,-429.8994 658.604,-429.9715 755.994,-433.3395 773.6977,-407.1313 787.7479,-356.3707 793.6115,-336.9128 851.2886,-286.3657 876.165,-217.9073 872.8264,-210.5824 741.7565,-204.8474 737.8773,-200.8826 735.0497,-200.0068 733.5561,-198.9154 731.7049,-198.9154 727.0607,-156.0799 725.0598,-195.5616 729.109,-199.2951 725.7822,-202.1447 725.7822,-202.1447 729.109,-199.2951 725.0598,-195.5616 720.0744,-194.0756 720.0744,-194.0756 725.0598,-195.5616 727.0607,-156.0799 731.7049,-198.9154 733.5561,-198.9154 735.0497,-200.0068 737.8773,-200.8826 741.7565,-204.8474 872.8264,-210.5824 865.436,-193.3105 752.5952,-195.7792 741.311,-192.3602 741.311,-192.3602 752.5952,-195.7792 865.436,-193.3105 829.7855,-97.0845 829.0945,-96.2554 828.8779,-95.1266 821.4927,-50.8672 815.4729,1.8033 737.3077,64.6555 703.2097,70.0181 700.1599,-28.0871 700.1599,-28.0871 703.2097,70.0181 692.7513,72.1174 688.5194,73.0586 680.4445,73.9131 672.5041,75.0832 672.6857,-20.2233 672.6857,-20.2233 672.5041,75.0832 663.0286,76.8739 646.7323,80.633 643.1305,81.6124 642.1478,20.6908 642.1478,20.6908 643.1305,81.6124 612.9984,91.0651 585.232,82.2983 569.4374,81.4004 550.3857,80.6744 546.0782,80.7533 534.1307,76.0921 516.5588,70.3918 498.0035,65.5958 430.5417,49.6623 347.9134,3.5056 343.6425,-25.145 341.0128,-45.2996 340.6574,-47.4103 335.1338,-84.3899 376.3259,-116.0512 379.2043,-118.3742 380.2307,-119.1681 397.0867,-130.6048 410.1055,-138.1931 425.1683,-146.0125 429.765,-148.0994 441.6459,-153.1127 510.6738,-177.7495 528.6294,-185.9173 539.7836,-192.0763 548.0166,-197.1631 546.5389,-199.7023 538.788,-211.1107 529.0185,-224.7182 514.8628,-242.134 503.1238,-255.5252 499.8353,-260.1487 465.2238,-314.8235 457.7002,-325.3419 446.0692,-338.6098 434.651,-352.6494 422.7299,-369.3209 411.2159,-387.3345 410.0237,-389.3954 401.9562,-389.3075 399.3706,-389.3919 390.4895,-389.4894 390.4399,-389.4921 386.1455,-389.54 380.6474,-389.4823 378.7695,-389.5035 371.7901,-389.2798 365.0469,-389.3569 364.0926,-389.3265 353.5797,-388.7644 353.5797,-388.7644"/>
<polygon fill="#fbb4ae" stroke="#fbb4ae" points="434.651,-352.6494 446.0692,-338.6098 457.7002,-325.3419 465.2238,-314.8235 499.8353,-260.1487 503.1238,-255.5252 514.8628,-242.134 529.0185,-224.7182 538.788,-211.1107 546.5389,-199.7023 548.0166,-197.1631 539.7836,-192.0763 528.6294,-185.9173 510.6738,-177.7495 441.6459,-153.1127 439.9829,-212.9412 439.9829,-212.9412 441.6459,-153.1127 429.765,-148.0994 425.1683,-146.0125 410.1055,-138.1931 397.0867,-130.6048 380.2307,-119.1681 379.2043,-118.3742 376.3259,-116.0512 335.1338,-84.3899 340.6574,-47.4103 341.0128,-45.2996 343.6425,-25.145 347.9134,3.5056 334.6318,17.2936 306.1383,48.0358 213.3036,97.6231 169.6692,104.1642 169.2529,104.2368 166.5745,104.7691 165.2682,105.0609 164.9999,105.1274 151.0387,104.9625 129.508,106.2334 127.3816,106.5091 121.1614,107.4633 115.7996,108.4134 109.8758,106.6993 100.3063,104.1705 95.584,103.0422 4.8768,85.9205 -18.923,7.3696 -25.6978,-12.9833 -22.0635,-30.96 -11.9037,-99.6996 31.4863,-180.0355 -70.3642,-261.778 -75.8848,-269.665 -90.3814,-349.1436 -91.7824,-355.8643 -103.829,-402.0492 -69.1437,-437.1548 31.916,-500.4902 36.4676,-503.4655 51.1362,-513.858 51.818,-449.1871 53.9047,-398.3472 58.4774,-358.5595 62.8977,-357.318 62.8977,-357.318 58.4774,-358.5595 53.9047,-398.3472 51.818,-449.1871 51.1362,-513.858 63.8355,-523.8934 73.1844,-522.8615 74.3034,-522.7751 85.8492,-522.2654 163.5519,-520.1209 178.1901,-497.4046 249.615,-376.9483 331.236,-386.6007 353.5797,-388.7644 364.0926,-389.3265 365.0469,-389.3569 371.7901,-389.2798 378.7695,-389.5035 380.6474,-389.4823 386.1455,-389.54 390.4399,-389.4921 390.4895,-389.4894 399.3706,-389.3919 401.9562,-389.3075 410.0237,-389.3954 411.2159,-387.3345 412.038,-289.0101 415.9887,-257.4468 416.3914,-256.989 415.4055,-255.8733 409.4459,-252.3801 404.7259,-252.3801 404.7259,-252.3801 409.4459,-252.3801 415.4055,-255.8733 416.3914,-256.989 415.9887,-257.4468 412.038,-289.0101 411.2159,-387.3345 422.7299,-369.3209 422.9088,-282.188 427.1094,-257.1174 425.746,-256.7067 425.746,-256.7067 427.1094,-257.1174 422.9088,-282.188 422.7299,-369.3209 434.651,-352.6494 434.651,-352.6494"/>
<polygon fill="#fbb4ae" stroke="#fbb4ae" points="644.437,-429.7153 649.6733,-429.8994 658.604,-429.9715 755.994,-433.3395 772.4257,-533.1555 770.8094,-537.65 759.7197,-577.392 721.3522,-635.3577 675.2679,-686.0486 649.4207,-677.0411 633.7182,-671.9276 631.6832,-671.3596 614.8425,-667.4291 606.8463,-665.7489 602.6743,-665.0659 599.9982,-664.751 578.7805,-662.7404 487.2873,-658.3119 499.4054,-537.65 516.912,-537.65 516.912,-537.65 499.4054,-537.65 499.1935,-521.76 507.1806,-442.2304 522.4422,-437.5914 537.9789,-433.6911 538.6322,-433.562 555.0151,-431.1866 559.7173,-430.6301 572.6415,-429.7867 580.2005,-429.695 582.0359,-429.7703 588.2447,-429.6888 591.9287,-429.5406 600.4004,-429.4253 604.5911,-429.7022 608.1101,-429.6493 614.7196,-429.901 622.08,-429.7827 623.269,-429.8268 624.8477,-429.8427 634.8895,-429.6711 638.8809,-429.8155 644.437,-429.7153 644.437,-429.7153"/>
<polyline fill="none" stroke="#000000" points="572.6415,-429.7867 559.7173,-430.6301 555.0151,-431.1866 538.6322,-433.562 537.9789,-433.6911 522.4422,-437.5914 507.1806,-442.2304 499.1935,-521.76 499.4054,-537.65 487.2873,-658.3119 487.1728,-658.3799 425.7682,-668.4983 423.2106,-668.9708 408.3334,-665.2801 404.8678,-664.6366 394.5287,-661.1833 388.4093,-659.278 376.6866,-656.1567 365.9497,-653.7831 356.7183,-652.1591 350.5764,-651.3554 332.9052,-649.4407 291.1459,-645.8647 227.7854,-609.0004 205.8395,-586.4796 193.4617,-566.4247 163.5519,-520.1209 178.1901,-497.4046 249.615,-376.9483 331.236,-386.6007 353.5797,-388.7644 364.0926,-389.3265 365.0469,-389.3569 371.7901,-389.2798 378.7695,-389.5035 380.6474,-389.4823 386.1455,-389.54 390.4399,-389.4921 390.4895,-389.4894 399.3706,-389.3919 401.9562,-389.3075 410.0237,-389.3954 411.2159,-387.3345 422.7299,-369.3209 434.651,-352.6494 446.0692,-338.6098 457.7002,-325.3419 465.2238,-314.8235 499.8353,-260.1487 503.1238,-255.5252 514.8628,-242.134 529.0185,-224.7182 538.788,-211.1107 546.5389,-199.7023 548.0166,-197.1631 539.7836,-192.0763 528.6294,-185.9173 510.6738,-177.7495 441.6459,-153.1127 429.765,-148.0994 425.1683,-146.0125 410.1055,-138.1931 397.0867,-130.6048 380.2307,-119.1681 379.2043,-118.3742 376.3259,-116.0512 335.1338,-84.3899 340.6574,-47.4103 341.0128,-45.2996 343.6425,-25.145 347.9134,3.5056 430.5417,49.6623 498.0035,65.5958 516.5588,70.3918 534.1307,76.0921 546.0782,80.7533 550.3857,80.6744 569.4374,81.4004 585.232,82.2983 612.9984,91.0651 643.1305,81.6124 646.7323,80.633 663.0286,76.8739 672.5041,75.0832 680.4445,73.9131 688.5194,73.0586 692.7513,72.1174 703.2097,70.0181 737.3077,64.6555 815.4729,1.8033 821.4927,-50.8672 828.8779,-95.1266 829.0945,-96.2554 829.7855,-97.0845 865.436,-193.3105 872.8264,-210.5824 876.165,-217.9073 851.2886,-286.3657 793.6115,-336.9128 787.7479,-356.3707 773.6977,-407.1313 755.994,-433.3395 658.604,-429.9715 649.6733,-429.8994 644.437,-429.7153 638.8809,-429.8155 634.8895,-429.6711 624.8477,-429.8427 623.269,-429.8268 622.08,-429.7827 614.7196,-429.901 608.1101,-429.6493 604.5911,-429.7022 600.4004,-429.4253 591.9287,-429.5406 588.2447,-429.6888 582.0359,-429.7703 580.2005,-429.695 572.6415,-429.7867 "/>
<polyline fill="none" stroke="#000000" points="151.0387,104.9625 164.9999,105.1274 165.2682,105.0609 166.5745,104.7691 169.2529,104.2368 169.6692,104.1642 213.3036,97.6231 306.1383,48.0358 334.6318,17.2936 347.9134,3.5056 343.6425,-25.145 341.0128,-45.2996 340.6574,-47.4103 335.1338,-84.3899 376.3259,-116.0512 379.2043,-118.3742 380.2307,-119.1681 397.0867,-130.6048 410.1055,-138.1931 425.1683,-146.0125 429.765,-148.0994 441.6459,-153.1127 510.6738,-177.7495 528.6294,-185.9173 539.7836,-192.0763 548.0166,-197.1631 546.5389,-199.7023 538.788,-211.1107 529.0185,-224.7182 514.8628,-242.134 503.1238,-255.5252 499.8353,-260.1487 465.2238,-314.8235 457.7002,-325.3419 446.0692,-338.6098 434.651,-352.6494 422.7299,-369.3209 411.2159,-387.3345 410.0237,-389.3954 401.9562,-389.3075 399.3706,-389.3919 390.4895,-389.4894 390.4399,-389.4921 386.1455,-389.54 380.6474,-389.4823 378.7695,-389.5035 371.7901,-389.2798 365.0469,-389.3569 364.0926,-389.3265 353.5797,-388.7644 331.236,-386.6007 249.615,-376.9483 178.1901,-497.4046 163.5519,-520.1209 85.8492,-522.2654 74.3034,-522.7751 73.1844,-522.8615 63.8355,-523.8934 51.1362,-513.858 36.4676,-503.4655 31.916,-500.4902 -69.1437,-437.1548 -103.829,-402.0492 -91.7824,-355.8643 -90.3814,-349.1436 -75.8848,-269.665 -70.3642,-261.778 31.4863,-180.0355 -11.9037,-99.6996 -22.0635,-30.96 -25.6978,-12.9833 -18.923,7.3696 4.8768,85.9205 95.584,103.0422 100.3063,104.1705 109.8758,106.6993 115.7996,108.4134 121.1614,107.4633 127.3816,106.5091 129.508,106.2334 151.0387,104.9625 "/>
<polyline fill="none" stroke="#000000" points="606.8463,-665.7489 614.8425,-667.4291 631.6832,-671.3596 633.7182,-671.9276 649.4207,-677.0411 675.2679,-686.0486 721.3522,-635.3577 759.7197,-577.392 770.8094,-537.65 772.4257,-533.1555 755.994,-433.3395 658.604,-429.9715 649.6733,-429.8994 644.437,-429.7153 638.8809,-429.8155 634.8895,-429.6711 624.8477,-429.8427 623.269,-429.8268 622.08,-429.7827 614.7196,-429.901 608.1101,-429.6493 604.5911,-429.7022 600.4004,-429.4253 591.9287,-429.5406 588.2447,-429.6888 582.0359,-429.7703 580.2005,-429.695 572.6415,-429.7867 559.7173,-430.6301 555.0151,-431.1866 538.6322,-433.562 537.9789,-433.6911 522.4422,-437.5914 507.1806,-442.2304 499.1935,-521.76 499.4054,-537.65 487.2873,-658.3119 578.7805,-662.7404 599.9982,-664.751 602.6743,-665.0659 606.8463,-665.7489 "/>
<!-- apr&#45;&gt;Fedora Container Base -->
<g id="edge1" class="edge">
<title>apr&#45;&gt;Fedora Container Base</title>
<path fill="none" stroke="#444444" stroke-opacity="0.333333" d="M700.2605,-217.084C677.3967,-238.1299 639.5409,-272.9757 613.8372,-296.6357"/>
<polygon fill="#444444" fill-opacity="0.333333" stroke="#444444" stroke-opacity="0.333333" points="611.2675,-294.244 606.2803,-303.5917 616.0082,-299.3942 611.2675,-294.244"/>
</g>
<!-- apr&#45;util&#45;&gt;Fedora Container Base -->
<g id="edge2" class="edge">
<title>apr&#45;util&#45;&gt;Fedora Container Base</title>
<path fill="none" stroke="#444444" stroke-opacity="0.333333" d="M537.4813,-90.7243C546.6403,-133.8891 569.6078,-242.1323 580.5429,-293.6676"/>
<polygon fill="#444444" fill-opacity="0.333333" stroke="#444444" stroke-opacity="0.333333" points="577.1848,-294.7044 582.6843,-303.7601 584.0324,-293.2514 577.1848,-294.7044"/>
</g>
<!-- apr&#45;util&#45;&gt;apr -->
<g id="edge3" class="edge">
<title>apr&#45;util&#45;&gt;apr</title>
<path fill="none" stroke="#444444" stroke-opacity="0.333333" d="M560.2908,-90.5201C593.0885,-112.7962 648.8143,-150.6449 684.9956,-175.2191"/>
<polygon fill="#444444" fill-opacity="0.333333" stroke="#444444" stroke-opacity="0.333333" points="683.0598,-178.1353 693.2987,-180.8585 686.9928,-172.3446 683.0598,-178.1353"/>
</g>
<!-- httpd&#45;&gt;Fedora Container Base -->
<g id="edge4" class="edge">
<title>httpd&#45;&gt;Fedora Container Base</title>
<path fill="none" stroke="#444444" stroke-opacity="0.333333" d="M456.9098,-275.0548C479.6297,-283.2479 506.6053,-292.9755 530.0474,-301.429"/>
<polygon fill="#444444" fill-opacity="0.333333" stroke="#444444" stroke-opacity="0.333333" points="528.9208,-304.7433 539.5152,-304.8432 531.2955,-298.1584 528.9208,-304.7433"/>
</g>
<!-- httpd&#45;&gt;apr -->
<g id="edge5" class="edge">
<title>httpd&#45;&gt;apr</title>
<path fill="none" stroke="#444444" stroke-opacity="0.333333" d="M482.2589,-243.0317C537.1042,-232.8625 610.3192,-219.2873 660.9304,-209.9032"/>
<polygon fill="#444444" fill-opacity="0.333333" stroke="#444444" stroke-opacity="0.333333" points="661.8611,-213.2903 671.0554,-208.0258 660.5849,-206.4076 661.8611,-213.2903"/>
</g>
<!-- httpd&#45;&gt;apr&#45;util -->
<g id="edge6" class="edge">
<title>httpd&#45;&gt;apr&#45;util</title>
<path fill="none" stroke="#444444" stroke-opacity="0.333333" d="M419.2512,-238.9712C441.6791,-206.2948 489.1243,-137.1694 515.2977,-99.036"/>
<polygon fill="#444444" fill-opacity="0.333333" stroke="#444444" stroke-opacity="0.333333" points="518.3853,-100.7224 521.1586,-90.497 512.6139,-96.7612 518.3853,-100.7224"/>
</g>
<!-- httpd&#45;&gt;fedora&#45;logos&#45;httpd -->
<g id="edge7" class="edge">
<title>httpd&#45;&gt;fedora&#45;logos&#45;httpd</title>
<path fill="none" stroke="#444444" stroke-opacity="0.333333" d="M385.9982,-238.6522C337.6689,-196.1439 218.0348,-90.9193 163.2908,-42.769"/>
<polygon fill="#444444" fill-opacity="0.333333" stroke="#444444" stroke-opacity="0.333333" points="165.5213,-40.0696 155.7009,-36.0932 160.8982,-45.3257 165.5213,-40.0696"/>
</g>
<!-- httpd&#45;&gt;httpd -->
<g id="edge8" class="edge">
<title>httpd&#45;&gt;httpd</title>
<path fill="none" stroke="#444444" stroke-opacity="0.333333" d="M482.0384,-263.0674C492.7094,-262.0877 499.87,-260.0686 499.87,-257.01 499.87,-255.0506 496.9313,-253.5178 492.0135,-252.4115"/>
<polygon fill="#444444" fill-opacity="0.333333" stroke="#444444" stroke-opacity="0.333333" points="492.4397,-248.9367 482.0384,-250.9526 491.4266,-255.863 492.4397,-248.9367"/>
</g>
<!-- httpd&#45;&gt;httpd&#45;filesystem -->
<g id="edge9" class="edge">
<title>httpd&#45;&gt;httpd&#45;filesystem</title>
<path fill="none" stroke="#444444" stroke-opacity="0.333333" d="M405.0362,-275.2073C400.4668,-320.5502 388.5473,-438.8296 383.047,-493.4092"/>
<polygon fill="#444444" fill-opacity="0.333333" stroke="#444444" stroke-opacity="0.333333" points="379.557,-493.1347 382.0367,-503.4353 386.5218,-493.8367 379.557,-493.1347"/>
</g>
<!-- httpd&#45;&gt;httpd&#45;tools -->
<g id="edge10" class="edge">
<title>httpd&#45;&gt;httpd&#45;tools</title>
<path fill="none" stroke="#444444" stroke-opacity="0.333333" d="M431.634,-238.9596C479.2558,-204.2483 583.6078,-128.1868 637.0812,-89.2103"/>
<polygon fill="#444444" fill-opacity="0.333333" stroke="#444444" stroke-opacity="0.333333" points="639.1905,-92.0039 645.21,-83.2852 635.0672,-86.3471 639.1905,-92.0039"/>
</g>
<!-- httpd&#45;&gt;mailcap -->
<g id="edge11" class="edge">
<title>httpd&#45;&gt;mailcap</title>
<path fill="none" stroke="#444444" stroke-opacity="0.333333" d="M341.6595,-275.0701C280.1633,-292.1016 188.361,-317.5263 125.976,-334.804"/>
<polygon fill="#444444" fill-opacity="0.333333" stroke="#444444" stroke-opacity="0.333333" points="124.9284,-331.4623 116.2253,-337.5044 126.7968,-338.2083 124.9284,-331.4623"/>
</g>
<!-- httpd&#45;&gt;mod_http2 -->
<g id="edge12" class="edge">
<title>httpd&#45;&gt;mod_http2</title>
<path fill="none" stroke="#444444" stroke-opacity="0.333333" d="M416.1327,-275.3108C446.6178,-323.8333 543.0312,-455.5023 588.7908,-511.7178"/>
<polygon fill="#444444" fill-opacity="0.333333" stroke="#444444" stroke-opacity="0.333333" points="586.0994,-513.9553 595.1608,-519.4455 591.5009,-509.5029 586.0994,-513.9553"/>
</g>
<!-- httpd&#45;filesystem&#45;&gt;Fedora Container Base -->
<g id="edge13" class="edge">
<title>httpd&#45;filesystem&#45;&gt;Fedora Container Base</title>
<path fill="none" stroke="#444444" stroke-opacity="0.333333" d="M398.8634,-503.6613C435.8428,-467.8201 518.4536,-387.7518 560.6407,-346.8631"/>
<polygon fill="#444444" fill-opacity="0.333333" stroke="#444444" stroke-opacity="0.333333" points="563.2826,-349.1767 568.0274,-339.7037 558.4108,-344.1502 563.2826,-349.1767"/>
</g>
<!-- httpd&#45;tools&#45;&gt;Fedora Container Base -->
<g id="edge14" class="edge">
<title>httpd&#45;tools&#45;&gt;Fedora Container Base</title>
<path fill="none" stroke="#444444" stroke-opacity="0.333333" d="M664.2221,-83.1899C649.8335,-127.3673 612.7652,-241.1785 595.5476,-294.0417"/>
<polygon fill="#444444" fill-opacity="0.333333" stroke="#444444" stroke-opacity="0.333333" points="592.1504,-293.1707 592.3814,-303.763 598.8063,-295.3386 592.1504,-293.1707"/>
</g>
<!-- httpd&#45;tools&#45;&gt;apr -->
<g id="edge15" class="edge">
<title>httpd&#45;tools&#45;&gt;apr</title>
<path fill="none" stroke="#444444" stroke-opacity="0.333333" d="M676.823,-83.1902C685.2594,-105.8368 699.8131,-144.9046 709.6554,-171.3253"/>
<polygon fill="#444444" fill-opacity="0.333333" stroke="#444444" stroke-opacity="0.333333" points="706.4036,-172.6223 713.1743,-180.7714 712.9632,-170.1787 706.4036,-172.6223"/>
</g>
<!-- httpd&#45;tools&#45;&gt;apr&#45;util -->
<g id="edge16" class="edge">
<title>httpd&#45;tools&#45;&gt;apr&#45;util</title>
<path fill="none" stroke="#444444" stroke-opacity="0.333333" d="M600.2454,-68.8489C600.0978,-68.8567 599.9502,-68.8645 599.8027,-68.8723"/>
<polygon fill="#444444" fill-opacity="0.333333" stroke="#444444" stroke-opacity="0.333333" points="602.9803,-65.1987 593.1798,-69.2237 603.3512,-72.1889 602.9803,-65.1987"/>
</g>
<!-- mailcap&#45;&gt;mailcap -->
<g id="edge17" class="edge">
<title>mailcap&#45;&gt;mailcap</title>
<path fill="none" stroke="#444444" stroke-opacity="0.333333" d="M116.3117,-359.9841C126.7258,-359.1582 134,-357.0402 134,-353.63 134,-351.4987 131.1585,-349.872 126.4849,-348.7502"/>
<polygon fill="#444444" fill-opacity="0.333333" stroke="#444444" stroke-opacity="0.333333" points="126.7103,-345.2464 116.3117,-347.2759 125.7064,-352.174 126.7103,-345.2464"/>
</g>
<!-- mod_http2&#45;&gt;Fedora Container Base -->
<g id="edge18" class="edge">
<title>mod_http2&#45;&gt;Fedora Container Base</title>
<path fill="none" stroke="#444444" stroke-opacity="0.333333" d="M610.9337,-519.6172C606.2895,-482.0005 595.5397,-394.9293 589.98,-349.8963"/>
<polygon fill="#444444" fill-opacity="0.333333" stroke="#444444" stroke-opacity="0.333333" points="593.4477,-349.4191 588.7487,-339.9233 586.5005,-350.2768 593.4477,-349.4191"/>
</g>
<!-- mod_http2&#45;&gt;httpd -->
<g id="edge19" class="edge">
<title>mod_http2&#45;&gt;httpd</title>
<path fill="none" stroke="#444444" stroke-opacity="0.333333" d="M603.8973,-519.3492C573.4122,-470.8267 476.9988,-339.1577 431.2392,-282.9422"/>
<polygon fill="#444444" fill-opacity="0.333333" stroke="#444444" stroke-opacity="0.333333" points="433.9306,-280.7047 424.8692,-275.2145 428.5291,-285.1571 433.9306,-280.7047"/>
</g>
<!-- mod_http2&#45;&gt;mod_http2 -->
<g id="edge20" class="edge">
<title>mod_http2&#45;&gt;mod_http2</title>
<path fill="none" stroke="#444444" stroke-opacity="0.333333" d="M682.8327,-543.8051C693.4502,-542.8658 700.66,-540.8141 700.66,-537.65 700.66,-535.623 697.7011,-534.0526 692.7829,-532.9386"/>
<polygon fill="#444444" fill-opacity="0.333333" stroke="#444444" stroke-opacity="0.333333" points="693.2317,-529.4672 682.8327,-531.4949 692.2265,-536.3946 693.2317,-529.4672"/>
</g>
<!-- Fedora Container Base -->
<g id="node1" class="node">
<title>Fedora Container Base</title>
<ellipse fill="none" stroke="#000000" cx="586.51" cy="-321.79" rx="136.5" ry="18"/>
<text text-anchor="middle" x="586.51" y="-318.09" font-family="Helvetica,sans-Serif" font-weight="bold" font-size="14.00" fill="#000000">Fedora Container Base (259.1 MB)</text>
</g>
<!-- apr -->
<g id="node2" class="node">
<title>apr</title>
<text text-anchor="middle" x="719.95" y="-195.26" font-family="Helvetica,sans-Serif" font-weight="bold" font-size="14.00" fill="#000000">apr (409.0 kB)</text>
</g>
<!-- apr&#45;util -->
<g id="node3" class="node">
<title>apr&#45;util</title>
<text text-anchor="middle" x="533.59" y="-68.685" font-family="Helvetica,sans-Serif" font-weight="bold" font-size="14.00" fill="#000000">apr&#45;util (296.2 kB)</text>
</g>
<!-- fedora&#45;logos&#45;httpd -->
<g id="node4" class="node">
<title>fedora&#45;logos&#45;httpd</title>
<text text-anchor="middle" x="135.13" y="-14.3" font-family="Helvetica,sans-Serif" font-weight="bold" font-size="14.00" fill="#000000">fedora&#45;logos&#45;httpd (10.0 kB)</text>
</g>
<!-- httpd -->
<g id="node5" class="node">
<title>httpd</title>
<text text-anchor="middle" x="406.87" y="-251.41" font-family="Helvetica,sans-Serif" font-weight="bold" font-size="22.00" fill="#cc0066">httpd (4.8 MB)</text>
</g>
<!-- httpd&#45;filesystem -->
<g id="node6" class="node">
<title>httpd&#45;filesystem</title>
<text text-anchor="middle" x="380.19" y="-518.06" font-family="Helvetica,sans-Serif" font-weight="bold" font-size="14.00" fill="#000000">httpd&#45;filesystem (400.0 B)</text>
</g>
<!-- httpd&#45;tools -->
<g id="node7" class="node">
<title>httpd&#45;tools</title>
<text text-anchor="middle" x="670.1" y="-61.443" font-family="Helvetica,sans-Serif" font-weight="bold" font-size="14.00" fill="#000000">httpd&#45;tools (221.8 kB)</text>
</g>
<!-- mailcap -->
<g id="node8" class="node">
<title>mailcap</title>
<text text-anchor="middle" x="58" y="-349.93" font-family="Helvetica,sans-Serif" font-weight="bold" font-size="14.00" fill="#000000">mailcap (71.2 kB)</text>
</g>
<!-- mod_http2 -->
<g id="node9" class="node">
<title>mod_http2</title>
<text text-anchor="middle" x="613.16" y="-533.95" font-family="Helvetica,sans-Serif" font-weight="bold" font-size="14.00" fill="#000000">mod_http2 (436.7 kB)</text>
</g>
</g>

<script type="text/javascript"><![CDATA[

document.addEventListener('click', function(e) {
      e = e || window.event;
      var target = e.target || e.srcElement;
      text = target.parentElement.querySelector("title").textContent;

      console.log("Clicked on: " + text);
      // reset all strokes
      var nodes = document.getElementsByClassName("edge");

      for (index = 0, len = nodes.length; index < len; ++index) {
          //var title = nodes[index].querySelector("title").textContent.split("->");
          id = nodes[index].id;
          document.getElementById(id).querySelector("path").setAttribute("stroke-width", "1");
          document.getElementById(id).querySelector("path").setAttribute("stroke-opacity", "0.5");
          document.getElementById(id).querySelector("path").setAttribute("stroke", "#444444");
          document.getElementById(id).querySelector("polygon").setAttribute("stroke-width", "1");
          document.getElementById(id).querySelector("polygon").setAttribute("stroke-opacity", "0.5");
          document.getElementById(id).querySelector("polygon").setAttribute("stroke", "#444444");
      }
      // reset text highlight
      pkgs = document.getElementsByClassName("node");
      for (index2 = 0, len2 = pkgs.length; index2 < len2; ++index2) {
          target_id = pkgs[index2].id;
          document.getElementById(target_id).querySelector("text").setAttribute("font-weight", "normal");
      }

      // highlight deps
      var nodes = document.getElementsByClassName("edge");
      for (index = 0, len = nodes.length; index < len; ++index) {
        var title = nodes[index].querySelector("title").textContent.split("->");

        if (title[0] == text) {
          id = nodes[index].id;
          //console.log("ID:   " + id);
          document.getElementById(id).querySelector("path").setAttribute("stroke-width", "3");
          document.getElementById(id).querySelector("path").setAttribute("stroke-opacity", "1");
          document.getElementById(id).querySelector("path").setAttribute("stroke", "#aa3333");
          document.getElementById(id).querySelector("polygon").setAttribute("stroke-width", "5");
          document.getElementById(id).querySelector("polygon").setAttribute("stroke-opacity", "1");
          document.getElementById(id).querySelector("polygon").setAttribute("stroke", "#aa3333");

        }
        if (title[1] == text) {
          id = nodes[index].id;
          document.getElementById(id).querySelector("path").setAttribute("stroke-width", "3");
          document.getElementById(id).querySelector("path").setAttribute("stroke-opacity", "1");
          document.getElementById(id).querySelector("path").setAttribute("stroke", "#333377");
          document.getElementById(id).querySelector("polygon").setAttribute("stroke-width", "5");
          document.getElementById(id).querySelector("polygon").setAttribute("stroke-opacity", "1");
          document.getElementById(id).querySelector("polygon").setAttribute("stroke", "#333377");
        }

        if (title[0] == text || title[1] == text) {
          pkgs = document.getElementsByClassName("node");
          for (index2 = 0, len2 = pkgs.length; index2 < len2; ++index2) {
            var pkg_name = pkgs[index2].querySelector("title").textContent;
            if (pkg_name == title[0] || pkg_name == title[1]) {
              target_id = pkgs[index2].id;
              document.getElementById(target_id).querySelector("text").setAttribute("font-weight", "bold");
            }
          }
        }
      }


  }, false);

]]></script>

</svg>
