<?xml version="1.0" encoding="UTF-8" standalone="no"?>
<!DOCTYPE svg PUBLIC "-//W3C//DTD SVG 1.1//EN"
 "http://www.w3.org/Graphics/SVG/1.1/DTD/svg11.dtd">
<!-- Generated by graphviz version 2.40.1 (0)
 -->
<!-- Title: packages Pages: 1 -->
<svg width="1772pt" height="1207pt"
 viewBox="0.00 0.00 2126.49 1448.09" xmlns="http://www.w3.org/2000/svg" xmlns:xlink="http://www.w3.org/1999/xlink">
<g id="graph0" class="graph" transform="scale(.8333 .8333) rotate(0) translate(107.3605 1302.4064)">
<title>packages</title>
<polygon fill="#dae2ff" stroke="transparent" points="-107.3605,145.6794 -107.3605,-1302.4064 2019.1311,-1302.4064 2019.1311,145.6794 -107.3605,145.6794"/>
<polygon fill="#fed9a6" stroke="#fed9a6" points="378.3078,-988.6342 389.59,-1008.6791 404.1609,-1036.3539 434.4502,-1096.0432 585.9659,-1166.4136 591.2852,-1167.6941 609.5658,-1164.7129 627.3768,-1162.8861 627.6426,-1125.7366 622.5005,-1019.1841 628.0209,-1022.5174 634.4606,-1022.5174 639.2369,-1019.7499 640.2421,-1018.5844 639.3608,-1017.4714 633.7935,-1013.9233 633.7935,-1013.9233 639.3608,-1017.4714 640.2421,-1018.5844 639.2369,-1019.7499 634.4606,-1022.5174 628.0209,-1022.5174 622.5005,-1019.1841 627.6426,-1125.7366 627.3768,-1162.8861 639.3845,-1162.3828 649.9181,-1162.1545 648.9308,-1108.9326 644.2338,-1018.5844 645.7981,-1018.104 649.1512,-1018.104 649.3757,-1017.911 649.3757,-1017.911 649.1512,-1018.104 645.7981,-1018.104 644.2338,-1018.5844 648.9308,-1108.9326 649.9181,-1162.1545 659.8109,-1162.3405 660.4348,-1160.3538 697.7937,-1049.4082 730.2537,-1049.5469 745.1889,-1053.0262 750.5244,-1049.6241 748.0436,-1165.2222 758.728,-1153.5133 759.4916,-1115.9047 759.4329,-1113.2908 754.9594,-1046.5482 754.9594,-1046.5482 759.4329,-1113.2908 759.4916,-1115.9047 758.728,-1153.5133 763.1851,-1149.3433 771.7441,-1140.2363 778.0035,-1133.9716 785.2677,-1127.6024 786.7333,-1126.2039 794.3982,-1119.4095 796.3893,-1117.7838 807.6041,-1109.3787 806.9408,-1097.655 807.1725,-1046.6095 807.0749,-1046.5801 807.0749,-1046.5801 807.1725,-1046.6095 806.9408,-1097.655 807.6041,-1109.3787 809.3497,-1108.3137 812.7701,-1046.7134 817.0889,-1046.7134 817.63,-1046.5521 822.6387,-1046.5521 823.1988,-1046.3865 827.8514,-1046.3865 828.322,-1046.5226 830.5508,-1046.5226 832.2377,-1045.3081 832.5518,-1044.8082 838.1371,-1040.4064 836.6071,-965.7292 836.7576,-955.9561 904.9916,-985.176 904.4612,-946.7958 906.8372,-894.8181 909.0534,-893.1719 906.4426,-889.5741 901.4139,-886.8458 892.149,-889.6418 816.9387,-878.7725 819.5637,-876.3739 831.0324,-866.551 831.1776,-837.5566 830.4135,-824.2923 830.4135,-824.2923 831.1776,-837.5566 831.0324,-866.551 819.5637,-876.3739 816.9387,-878.7725 892.149,-889.6418 901.4139,-886.8458 906.4426,-889.5741 909.0534,-893.1719 906.8372,-894.8181 904.4612,-946.7958 904.9916,-985.176 906.9931,-986.1892 906.9931,-986.1892 904.9916,-985.176 836.7576,-955.9561 836.6071,-965.7292 838.1371,-1040.4064 832.5518,-1044.8082 832.2377,-1045.3081 830.5508,-1046.5226 833.0932,-1050.2292 833.0932,-1050.2292 830.5508,-1046.5226 828.322,-1046.5226 827.8514,-1046.3865 823.1988,-1046.3865 822.6387,-1046.5521 817.63,-1046.5521 817.0889,-1046.7134 812.7701,-1046.7134 809.3497,-1108.3137 807.6041,-1109.3787 796.3893,-1117.7838 794.3982,-1119.4095 786.7333,-1126.2039 785.2677,-1127.6024 778.0035,-1133.9716 771.7441,-1140.2363 763.1851,-1149.3433 758.728,-1153.5133 748.0436,-1165.2222 750.5244,-1049.6241 745.1889,-1053.0262 730.2537,-1049.5469 697.7937,-1049.4082 660.4348,-1160.3538 659.8109,-1162.3405 728.1215,-1189.1901 790.3854,-1277.9165 835.6978,-1295.901 860.0599,-1295.8895 868.2214,-1296.179 869.9262,-1141.4469 870.7477,-1141.2087 867.048,-1104.9698 866.9538,-1089.4288 879.8517,-1084.0577 880.7237,-1083.6377 895.2634,-1074.5996 901.2081,-1070.1102 919.0085,-1054.1482 925.8934,-1046.6 928.5104,-1044.2761 929.7372,-1034.0159 932.523,-1001.0558 938.0447,-998.0698 943.074,-995.5275 945.1114,-936.9118 949.9484,-893.488 949.8592,-893.4612 949.8592,-893.4612 949.9484,-893.488 945.1114,-936.9118 943.074,-995.5275 938.0447,-998.0698 932.523,-1001.0558 929.7372,-1034.0159 928.5104,-1044.2761 925.8934,-1046.6 919.0085,-1054.1482 901.2081,-1070.1102 895.2634,-1074.5996 880.7237,-1083.6377 879.8517,-1084.0577 866.9538,-1089.4288 867.048,-1104.9698 870.7477,-1141.2087 869.9262,-1141.4469 868.2214,-1296.179 879.0357,-1296.7571 879.3942,-1254.9172 885.843,-1144.9562 890.3987,-1146.2332 896.0718,-1144.5642 899.8096,-1141.2963 896.2625,-1138.1976 896.2625,-1138.1976 899.8096,-1141.2963 896.0718,-1144.5642 890.3987,-1146.2332 885.843,-1144.9562 879.3942,-1254.9172 879.0357,-1296.7571 894.3879,-1298.4064 898.3375,-1296.5945 903.7636,-1294.3365 903.7713,-1293.9232 903.7713,-1293.9232 903.7636,-1294.3365 923.0098,-1287.5314 1023.6104,-1256.2209 1061.6362,-1228.1356 1059.8497,-1225.0962 1057.3838,-1061.8098 1055.6826,-1061.8098 1052.2723,-1064.7993 1052.2723,-1064.7993 1055.6826,-1061.8098 1051.8317,-1058.1917 1046.9946,-1056.7236 1046.9946,-1056.7236 1051.8317,-1058.1917 1055.6826,-1061.8098 1057.3838,-1061.8098 1059.8497,-1225.0962 1061.6362,-1228.1356 1070.0156,-1227.1783 1069.9308,-1219.2645 1067.3414,-1129.6661 1067.3414,-1129.6661 1069.9308,-1219.2645 1070.0156,-1227.1783 1083.2642,-1226.356 1182.1758,-1173.2498 1155.8423,-1091.5479 1143.7155,-1048.3342 1140.9541,-1033.4467 1135.8787,-1011.6089 1105.3715,-916.9578 1106.3911,-914.6806 1099.5701,-907.3044 1095.4442,-902.4135 1090.9274,-897.4939 1078.218,-884.8111 1072.4486,-879.3279 1071.4332,-878.4112 1071.4332,-878.4112 1072.4486,-879.3279 1078.218,-884.8111 1090.9274,-897.4939 1095.4442,-902.4135 1099.5701,-907.3044 1106.3911,-914.6806 1112.3315,-912.0754 1117.6064,-910.004 1135.2755,-903.8634 1142.489,-901.6882 1174.7859,-892.6894 1183.1025,-881.936 1188.1082,-875.0992 1263.4701,-766.02 1267.3766,-761.1778 1264.455,-740.2301 1226.7828,-716.6641 1220.4984,-712.9825 1209.519,-706.99 1199.0492,-702.1292 1196.2031,-700.9252 1184.3551,-696.8645 1173.8088,-693.6813 1161.0554,-691.3918 1156.6052,-690.7748 1155.007,-690.6182 1142.9177,-689.9225 1136.8226,-689.3268 1128.0311,-688.1135 1123.5342,-687.3128 1116.8622,-685.8575 1111.9897,-684.6005 1106.0575,-682.8333 1103.8705,-682.0949 1102.2384,-762.6017 1106.2239,-766.1511 1103.156,-768.8061 1103.156,-768.8061 1106.2239,-766.1511 1102.2384,-762.6017 1103.8705,-682.0949 1095.2156,-678.8237 1092.7772,-677.8054 1087.7089,-675.4846 1083.5331,-673.4039 1082.984,-636.2153 1083.536,-617.8329 1082.8862,-606.9822 1082.807,-606.2258 1081.5236,-519.2986 1074.103,-516.6909 1068.4899,-515.0309 1063.5417,-513.8386 1048.0909,-510.5352 1011.4735,-537.5613 1004.7528,-542.1413 986.6005,-551.5313 984.6926,-552.2998 973.8459,-556.0762 968.2852,-557.6964 959.2621,-559.3162 954.7674,-559.8709 954.0906,-559.9165 945.0761,-560.0217 941.0275,-560.2914 938.5007,-560.1757 931.8643,-560.2354 931.1044,-560.1996 930.9672,-560.2082 921.4625,-560.2684 920.3689,-560.1523 910.9824,-560.1868 908.0327,-560.5223 906.5912,-560.5238 898.2917,-560.0648 897.131,-559.935 889.5596,-560.3388 884.0891,-560.0141 877.5284,-559.9857 808.1503,-555.81 778.306,-608.433 771.1841,-620.1614 770.0504,-621.8137 805.7413,-684.4793 802.8582,-688.7505 789.5256,-706.2731 779.54,-716.8734 769.1924,-726.19 768.5594,-726.9961 723.297,-779.1346 718.6908,-783.1662 704.0013,-797.5855 701.7881,-800.1758 694.3817,-809.6221 691.7875,-813.1944 770.5082,-792.8243 772.791,-790.4528 774.3556,-790.0078 780.3924,-834.5476 780.419,-914.7382 794.072,-899.7782 794.9697,-898.8423 801.9894,-891.8815 803.0482,-817.0249 803.0482,-817.0249 801.9894,-891.8815 794.9697,-898.8423 794.072,-899.7782 780.419,-914.7382 780.3924,-834.5476 774.3556,-790.0078 772.791,-790.4528 770.5082,-792.8243 691.7875,-813.1944 681.0706,-826.7764 672.3685,-839.2713 660.6154,-859.3436 653.7482,-872.3549 636.7787,-872.0771 634.3121,-872.0861 631.0326,-871.837 623.4778,-871.1122 615.2517,-874.346 606.9493,-877.4174 526.9128,-903.3162 509.771,-909.6107 507.5803,-910.4617 499.7943,-913.8223 492.17,-917.2777 484.0066,-921.1522 474.012,-926.3226 466.6329,-930.6167 443.4955,-945.0995 378.3078,-988.6342 378.3078,-988.6342"/>
<polygon fill="#fbb4ae" stroke="#fbb4ae" points="1061.4181,-200.0838 1060.1919,-201.3547 1045.4875,-218.4899 1018.8821,-262.17 1005.9419,-275.5817 1005.7541,-219.6991 1000.3892,-215.7463 998.8595,-213.2525 995.8847,-213.2525 995.8847,-213.2525 998.8595,-213.2525 1000.3892,-215.7463 1005.7541,-219.6991 1005.9419,-275.5817 1000.3767,-281.9648 993.892,-290.1166 990.8356,-294.6552 994.4124,-318.7478 996.6142,-330.4152 958.8637,-387.6479 954.9857,-393.1558 939.2551,-395.4842 925.7537,-396.4309 918.4051,-396.5642 911.1841,-396.3192 902.3695,-396.5089 901.6633,-358.9938 901.6633,-358.9938 902.3695,-396.5089 900.9968,-396.6146 900.7216,-396.6214 887.5972,-396.606 887.2888,-396.5896 884.9384,-396.5297 865.587,-397.6446 855.141,-398.824 845.5696,-400.1681 822.1632,-358.3261 819.3911,-352.8255 810.2697,-332.4801 793.4513,-289 791.6368,-285.7564 781.0026,-282.6242 769.5214,-280.2843 768.3027,-280.0916 763.3513,-279.5317 761.9998,-249.6573 761.9998,-249.6573 763.3513,-279.5317 749.3483,-279.207 748.3465,-279.1398 744.082,-279.2388 742.7019,-279.2104 730.1237,-278.4 715.7489,-275.578 712.3476,-274.7627 702.6438,-271.5808 698.5173,-270.0473 694.9935,-272.0654 638.0052,-301.8037 631.4178,-305.5599 630.4773,-306.1411 621.6943,-312.0033 621.5273,-312.1312 617.8913,-312.29 611.3058,-312.122 602.52,-312.4678 601.1771,-312.4277 595.4107,-311.8542 595.2465,-311.8486 585.2042,-312.156 578.7572,-312.5635 575.7248,-312.5444 575.2184,-312.5061 568.0997,-312.4298 566.5818,-312.3608 563.8174,-312.3251 557.8049,-312.0381 553.3901,-311.9713 548.8448,-312.1976 411.1912,-309.5157 414.024,-247.8078 414.8442,-213.1531 414.15,-180.0975 502.1,-66.9073 539.6215,-55.3669 562.8828,-47.8063 570.6391,-44.889 570.9105,-44.7822 577.4822,-43.6738 584.6427,-46.2971 596,-49.8866 599.6546,-50.9194 608.8379,-53.3622 610.7493,-54.0412 611.4454,-54.2641 623.147,-57.8078 637.692,-61.9576 674.5687,-70.5255 749.009,-60.7662 754.5263,-59.9366 769.1973,-56.8779 788.7892,-52.0339 804.9131,-46.8053 813.5016,-43.6899 817.1541,-42.2949 824.3301,-39.4159 821.9537,-204.6788 816.6389,-208.6333 815.4113,-210.6187 814.7565,-211.1378 811.296,-211.1378 811.1992,-211.1098 806.9917,-211.1098 800.11,-273.0659 799.3918,-255.0672 794.3196,-211.2156 793.735,-211.2156 789.95,-207.7701 784.7642,-206.204 784.7642,-206.204 789.95,-207.7701 793.735,-211.2156 794.3196,-211.2156 799.3918,-255.0672 800.11,-273.0659 806.9917,-211.1098 811.1992,-211.1098 811.296,-211.1378 814.7565,-211.1378 815.4113,-210.6187 816.6389,-208.6333 821.9537,-204.6788 824.3301,-39.4159 831.2851,-36.4922 836.6547,-41.5812 886.5304,-90.6587 950.6703,-109.7903 952.2966,-110.1764 962.1412,-112.2193 967.7643,-113.2159 978.2103,-114.7504 979.8469,-114.9409 980.994,-174.277 978.5911,-208.893 985.1839,-213.0421 985.5063,-213.4222 985.217,-213.7579 985.217,-213.7579 985.5063,-213.4222 985.1839,-213.0421 978.5911,-208.893 980.994,-174.277 979.8469,-114.9409 991.5815,-115.5963 998.4488,-115.5633 1002.4286,-115.6636 1004.8205,-115.7957 1009.3125,-115.771 1020.4592,-116.0439 1028.7507,-116.9935 1044.7584,-119.3091 1095.2643,-128.1089 1096.0029,-149.6366 1089.6917,-160.9322 1081.3224,-174.1115 1066.9583,-193.7513 1061.4181,-200.0838 1061.4181,-200.0838"/>
<polygon fill="#fed9a6" stroke="#fed9a6" points="819.3911,-352.8255 822.1632,-358.3261 845.5696,-400.1681 803.078,-440.5375 752.0414,-431.9061 747.4238,-431.2873 739.7244,-430.5259 732.5419,-430.0691 725.6529,-430.1174 721.153,-429.9897 720.0987,-429.997 712.9297,-429.5386 710.6157,-429.5543 703.7492,-429.8433 702.4211,-429.9461 699.465,-429.8614 692.9004,-429.9045 692.248,-430.415 688.0501,-433.4666 677.9574,-439.7166 670.8709,-443.7144 666.0701,-446.1541 665.3455,-446.4821 623.0372,-463.3591 613.0162,-467.9467 609.9344,-469.5327 597.3472,-476.7412 599.1702,-439.7174 597.6533,-399.7169 593.368,-399.7169 591.6313,-397.5565 587.9362,-395.4331 587.9362,-395.4331 591.6313,-397.5565 593.368,-399.7169 597.6533,-399.7169 599.1702,-439.7174 597.3472,-476.7412 593.7953,-479.1698 587.8587,-483.5728 574.9006,-494.7249 572.3347,-496.7801 564.6179,-503.7848 561.856,-503.9442 559.1301,-504.1796 555.3898,-500.2755 555.3633,-500.2493 553.8923,-498.5994 553.0556,-461.9173 553.0556,-461.9173 553.8923,-498.5994 555.3633,-500.2493 555.3898,-500.2755 559.1301,-504.1796 475.7211,-606.62 461.6595,-621.1138 454.4955,-629.1796 451.8153,-629.2623 444.2194,-629.0331 440.4845,-628.9976 436.0717,-629.1372 421.7636,-630.1803 409.2362,-631.6097 408.0874,-631.788 404.1042,-500.9614 404.1042,-500.9614 408.0874,-631.788 305.1237,-649.8967 284.8859,-622.2279 255.3598,-524.1401 264.4777,-494.65 279.7158,-430.8143 299.0249,-385.4295 318.0276,-364.0246 400.5732,-326.1894 411.1912,-309.5157 548.8448,-312.1976 553.3901,-311.9713 557.8049,-312.0381 563.8174,-312.3251 566.5818,-312.3608 568.0997,-312.4298 575.2184,-312.5061 575.7248,-312.5444 578.7572,-312.5635 585.2042,-312.156 595.2465,-311.8486 595.4107,-311.8542 601.1771,-312.4277 602.52,-312.4678 611.3058,-312.122 617.8913,-312.29 621.5273,-312.1312 621.6943,-312.0033 630.4773,-306.1411 631.4178,-305.5599 638.0052,-301.8037 694.9935,-272.0654 698.5173,-270.0473 702.6438,-271.5808 712.3476,-274.7627 715.7489,-275.578 730.1237,-278.4 742.7019,-279.2104 744.082,-279.2388 748.3465,-279.1398 749.3483,-279.207 763.3513,-279.5317 768.3027,-280.0916 769.5214,-280.2843 781.0026,-282.6242 791.6368,-285.7564 793.4513,-289 810.2697,-332.4801 819.3911,-352.8255 819.3911,-352.8255"/>
<polygon fill="#decbe4" stroke="#decbe4" points="678.5717,-512.3719 678.4437,-512.3351 677.9574,-439.7166 670.8709,-443.7144 666.0701,-446.1541 665.3455,-446.4821 623.0372,-463.3591 613.0162,-467.9467 609.9344,-469.5327 597.3472,-476.7412 593.7953,-479.1698 587.8587,-483.5728 574.9006,-494.7249 572.3347,-496.7801 564.6179,-503.7848 574.1577,-512.4807 581.8899,-600.1102 586.5805,-602.9191 589.1034,-606.6792 592.4794,-606.6792 592.598,-606.713 593.2356,-606.713 597.1138,-609.9511 603.0319,-611.6567 607.1467,-610.5126 611.4162,-606.5716 607.7552,-603.23 602.7292,-601.7478 602.7292,-601.7478 607.7552,-603.23 611.4162,-606.5716 607.1467,-610.5126 603.0319,-611.6567 597.1138,-609.9511 593.2356,-606.713 592.598,-606.713 592.4794,-606.6792 589.1034,-606.6792 586.5805,-602.9191 581.8899,-600.1102 574.1577,-512.4807 564.6179,-503.7848 561.856,-503.9442 559.1301,-504.1796 475.7211,-606.62 461.6595,-621.1138 454.4955,-629.1796 464.3864,-637.5992 465.0277,-638.1215 475.2957,-646.1146 492.8191,-658.4752 496.5386,-660.6785 515.0035,-670.303 519.6616,-672.3826 524.351,-674.3042 573.3031,-692.5693 580.8428,-716.6938 581.5267,-719.295 586.328,-741.7728 588.0688,-752.5484 597.4124,-787.7112 623.4778,-871.1122 631.0326,-871.837 634.3121,-872.0861 636.7787,-872.0771 653.7482,-872.3549 660.6154,-859.3436 672.3685,-839.2713 672.1412,-821.9101 672.4476,-805.2454 676.7828,-729.5379 681.9599,-731.11 681.9599,-731.11 676.7828,-729.5379 672.4476,-805.2454 672.1412,-821.9101 672.3685,-839.2713 681.0706,-826.7764 691.7875,-813.1944 694.3817,-809.6221 701.7881,-800.1758 704.0013,-797.5855 718.6908,-783.1662 723.297,-779.1346 768.5594,-726.9961 769.1924,-726.19 779.54,-716.8734 789.5256,-706.2731 802.8582,-688.7505 805.7413,-684.4793 770.0504,-621.8137 771.1841,-620.1614 778.306,-608.433 808.1503,-555.81 877.5284,-559.9857 884.0891,-560.0141 889.5596,-560.3388 897.131,-559.935 898.2917,-560.0648 906.5912,-560.5238 908.0327,-560.5223 910.9824,-560.1868 920.3689,-560.1523 921.4625,-560.2684 930.9672,-560.2082 931.1044,-560.1996 931.8643,-560.2354 938.5007,-560.1757 941.0275,-560.2914 945.0761,-560.0217 954.0906,-559.9165 954.7674,-559.8709 959.2621,-559.3162 968.2852,-557.6964 973.8459,-556.0762 984.6926,-552.2998 986.6005,-551.5313 1004.7528,-542.1413 1011.4735,-537.5613 1048.0909,-510.5352 1063.5417,-513.8386 1068.4899,-515.0309 1074.103,-516.6909 1081.5236,-519.2986 1088.4785,-516.9814 1095.2489,-514.9138 1103.7842,-512.7795 1103.9548,-401.5262 1105.0087,-400.3129 1103.0612,-397.8837 1099.1754,-395.6373 1099.1754,-395.6373 1103.0612,-397.8837 1105.0087,-400.3129 1103.9548,-401.5262 1103.7842,-512.7795 1095.2489,-514.9138 1088.4785,-516.9814 1081.5236,-519.2986 1082.807,-606.2258 1082.8862,-606.9822 1083.536,-617.8329 1082.984,-636.2153 1083.5331,-673.4039 1087.7089,-675.4846 1092.7772,-677.8054 1095.2156,-678.8237 1103.8705,-682.0949 1106.0575,-682.8333 1111.9897,-684.6005 1116.8622,-685.8575 1123.5342,-687.3128 1128.0311,-688.1135 1136.8226,-689.3268 1142.9177,-689.9225 1155.007,-690.6182 1156.6052,-690.7748 1161.0554,-691.3918 1173.8088,-693.6813 1184.3551,-696.8645 1196.2031,-700.9252 1199.0492,-702.1292 1209.519,-706.99 1209.6533,-678.6318 1206.8075,-614.5511 1202.0779,-614.5511 1201.2231,-614.2894 1197.3846,-614.2894 1196.9188,-613.7252 1196.9188,-613.7252 1197.3846,-614.2894 1201.2231,-614.2894 1202.0779,-614.5511 1206.8075,-614.5511 1209.6533,-678.6318 1209.519,-706.99 1220.4984,-712.9825 1226.7828,-716.6641 1264.455,-740.2301 1280.7928,-714.01 1323.6721,-630.0499 1333.8198,-612.8946 1328.5822,-581.2571 1327.8807,-576.0753 1323.1838,-551.8299 1318.4939,-530.7163 1281.269,-519.1276 1267.1984,-515.5483 1249.368,-512.5413 1242.1829,-511.743 1239.5044,-511.5222 1237.0354,-511.3893 1222.3356,-511.0177 1222.0581,-511.0027 1217.2135,-511.1563 1202.8528,-510.7832 1196.4094,-510.2444 1185.5864,-508.7126 1178.4576,-507.4977 1168.4104,-505.2035 1165.2267,-504.3847 1172.8629,-427.4515 1173.1892,-414.8121 1174.115,-405.8698 1174.4313,-393.7786 1174.6921,-391.2184 1174.6989,-390.9552 1180.7335,-330.1574 1213.4178,-308.8697 1215.0701,-307.7218 1213.2256,-304.7825 1202.5034,-289.7527 1198.3989,-284.4131 1186.411,-271.0766 1177.6006,-262.17 1150.1755,-220.94 1139.8018,-207.8313 1126.858,-193.5011 1121.6108,-186.5696 1114.1418,-177.5976 1101.0399,-158.0966 1096.0029,-149.6366 1089.6917,-160.9322 1081.3224,-174.1115 1066.9583,-193.7513 1061.4181,-200.0838 1060.1919,-201.3547 1045.4875,-218.4899 1018.8821,-262.17 1025.6218,-262.17 1025.6218,-262.17 1018.8821,-262.17 1005.9419,-275.5817 1000.3767,-281.9648 993.892,-290.1166 990.8356,-294.6552 994.4124,-318.7478 996.6142,-330.4152 958.8637,-387.6479 954.9857,-393.1558 939.2551,-395.4842 925.7537,-396.4309 918.4051,-396.5642 911.1841,-396.3192 902.3695,-396.5089 900.9968,-396.6146 900.7216,-396.6214 887.5972,-396.606 887.2888,-396.5896 884.9384,-396.5297 865.587,-397.6446 855.141,-398.824 845.5696,-400.1681 803.078,-440.5375 806.1165,-498.8081 806.0409,-501.9065 806.7386,-515.1546 887.363,-510.0831 891.398,-506.5791 897.1812,-551.0776 897.7437,-543.4199 903.8954,-504.5915 906.1692,-504.5915 906.7251,-505.1962 913.1144,-508.896 917.5623,-508.896 917.5623,-508.896 913.1144,-508.896 906.7251,-505.1962 906.1692,-504.5915 903.8954,-504.5915 897.7437,-543.4199 897.1812,-551.0776 891.398,-506.5791 887.363,-510.0831 806.7386,-515.1546 806.0409,-501.9065 806.1165,-498.8081 803.078,-440.5375 752.0414,-431.9061 747.4238,-431.2873 739.7244,-430.5259 732.5419,-430.0691 725.6529,-430.1174 721.153,-429.9897 720.0987,-429.997 712.9297,-429.5386 710.6157,-429.5543 703.7492,-429.8433 702.4211,-429.9461 699.465,-429.8614 692.9004,-429.9045 692.248,-430.415 688.0501,-433.4666 677.9574,-439.7166 678.4437,-512.3351 678.5717,-512.3719 682.9354,-512.3719 682.993,-512.3886 685.1556,-512.3886 688.6494,-515.522 694.2678,-517.2232 699.0925,-515.8274 702.8383,-512.556 702.8383,-512.556 699.0925,-515.8274 694.2678,-517.2232 688.6494,-515.522 685.1556,-512.3886 682.993,-512.3886 682.9354,-512.3719 678.5717,-512.3719 678.5717,-512.3719"/>
<polygon fill="#ccebc5" stroke="#ccebc5" points="1860.4796,-1075.8845 1851.9103,-1075.1459 1842.8037,-1074.535 1831.6893,-1074.0023 1832.0679,-1036.7007 1834.0281,-1005.553 1835.8168,-931.2242 1836.8226,-930.0485 1835.6978,-928.731 1835.6978,-928.731 1836.8226,-930.0485 1835.8168,-931.2242 1834.0281,-1005.553 1832.0679,-1036.7007 1831.6893,-1074.0023 1819.1545,-1074.3597 1811.9106,-1074.7046 1806.5752,-1075.0604 1805.3373,-1075.1665 1798.0974,-1075.9254 1797.3718,-988.3994 1794.0494,-933.3064 1796.2504,-929.7914 1794.8934,-928.7828 1791.4974,-927.6683 1789.0917,-924.8846 1593.5435,-873.7082 1634.7438,-806.5496 1611.0769,-720.6884 1606.4774,-700.8832 1461.3574,-708.1422 1455.804,-713.3345 1458.3887,-641.2716 1459.3789,-641.2426 1464.4402,-640.8887 1468.3351,-640.9412 1468.2329,-572.4535 1473.7339,-572.4535 1479.2596,-569.1255 1480.0715,-568.1747 1483.8677,-568.1747 1486.6749,-643.0541 1489.3362,-643.5327 1489.3362,-643.5327 1486.6749,-643.0541 1483.8677,-568.1747 1480.0715,-568.1747 1478.4507,-566.262 1473.8391,-563.6324 1468.5649,-563.6324 1468.5649,-563.6324 1473.8391,-563.6324 1478.4507,-566.262 1480.0715,-568.1747 1479.2596,-569.1255 1473.7339,-572.4535 1468.2329,-572.4535 1468.3351,-640.9412 1464.4402,-640.8887 1463.5857,-627.863 1456.5505,-568.3013 1453.0514,-568.3013 1450.2654,-536.2012 1452.1361,-470.7077 1436.3813,-471.2683 1433.3805,-471.1932 1431.3096,-471.2032 1424.8191,-471.4284 1422.3364,-471.5886 1415.6172,-472.2236 1404.3496,-473.6256 1404.1952,-440.8601 1398.2313,-378.7392 1403.7609,-378.7392 1410.1903,-374.785 1410.6611,-374.2458 1410.3269,-373.8731 1410.3269,-373.8731 1410.6611,-374.2458 1410.1903,-374.785 1403.7609,-378.7392 1398.2313,-378.7392 1394.2635,-376.4854 1394.2635,-376.4854 1398.2313,-378.7392 1404.1952,-440.8601 1404.3496,-473.6256 1386.2372,-477.5056 1383.0931,-478.3647 1382.709,-465.2879 1382.709,-465.2879 1383.0931,-478.3647 1377.4757,-480.238 1360.9878,-486.2383 1367.3766,-380.172 1323.0863,-383.0724 1326.7762,-401.9118 1282.0635,-401.9951 1276.3635,-407.056 1276.2571,-407.0974 1275.2736,-407.899 1272.1002,-407.899 1271.5564,-407.7375 1271.5564,-407.7375 1272.1002,-407.899 1275.2736,-407.899 1276.2571,-407.0974 1276.3635,-407.056 1282.0635,-401.9951 1326.7762,-401.9118 1323.0863,-383.0724 1367.3766,-380.172 1360.9878,-486.2383 1377.4757,-480.238 1383.0931,-478.3647 1386.2372,-477.5056 1404.3496,-473.6256 1415.6172,-472.2236 1422.3364,-471.5886 1424.8191,-471.4284 1431.3096,-471.2032 1433.3805,-471.1932 1436.3813,-471.2683 1452.1361,-470.7077 1450.2654,-536.2012 1453.0514,-568.3013 1456.5505,-568.3013 1463.5857,-627.863 1464.4402,-640.8887 1459.3789,-641.2426 1458.3887,-641.2716 1455.804,-713.3345 1461.3574,-708.1422 1606.4774,-700.8832 1611.0769,-720.6884 1634.7438,-806.5496 1593.5435,-873.7082 1789.0917,-924.8846 1791.4974,-927.6683 1794.8934,-928.7828 1796.2504,-929.7914 1794.0494,-933.3064 1797.3718,-988.3994 1798.0974,-1075.9254 1790.11,-1077.0679 1755.1096,-1082.7429 1724.0187,-1076.4246 1628.4044,-953.6442 1580.3269,-896.5332 1430.2355,-1045.8772 1409.7131,-1127.6732 1395.2932,-1135.3137 1293.8505,-1170.8547 1272.6564,-1171.103 1257.8312,-1171.8116 1235.3745,-1174.101 1235.3263,-1174.0944 1235.4655,-1154.1965 1235.1327,-1148.0631 1230.9055,-1018.981 1231.2412,-1018.8823 1232.658,-1018.8823 1236.3744,-1022.2399 1241.5414,-1023.7911 1247.4243,-1022.0361 1250.574,-1019.4169 1250.8132,-1019.4169 1255.4409,-1059.8337 1257.3833,-1019.0769 1262.558,-1019.0769 1262.7789,-1019.0143 1265.2905,-1019.0143 1267.3228,-1017.4739 1266.8605,-950.6693 1276.9254,-953.2471 1272.0972,-1013.9927 1364.1252,-991.4141 1365.2721,-992.2156 1363.3601,-927.4299 1358.7344,-891.4572 1359.7726,-891.1395 1360.5002,-823.6633 1365.7334,-887.9459 1370.432,-884.8857 1377.0571,-802.4521 1384.4061,-803.0518 1399.2803,-804.7507 1406.4518,-806.0331 1420.8517,-809.5433 1421.0065,-809.586 1422.0551,-809.9088 1425.2384,-718.743 1430.6102,-717.1639 1434.2324,-714.0773 1430.1794,-710.5717 1425.5146,-709.2388 1425.5146,-709.2388 1430.1794,-710.5717 1434.2324,-714.0773 1430.6102,-717.1639 1425.2384,-718.743 1422.0551,-809.9088 1421.0065,-809.586 1420.8517,-809.5433 1406.4518,-806.0331 1399.2803,-804.7507 1384.4061,-803.0518 1377.0571,-802.4521 1370.432,-884.8857 1365.7334,-887.9459 1360.5002,-823.6633 1359.7726,-891.1395 1358.7344,-891.4572 1363.3601,-927.4299 1365.2721,-992.2156 1364.1252,-991.4141 1272.0972,-1013.9927 1276.9254,-953.2471 1266.8605,-950.6693 1267.3228,-1017.4739 1265.2905,-1019.0143 1262.7789,-1019.0143 1262.558,-1019.0769 1257.3833,-1019.0769 1255.4409,-1059.8337 1250.8132,-1019.4169 1250.574,-1019.4169 1246.5366,-1015.8139 1246.5366,-1015.8139 1250.574,-1019.4169 1247.4243,-1022.0361 1241.5414,-1023.7911 1236.3744,-1022.2399 1232.658,-1018.8823 1231.2412,-1018.8823 1230.9055,-1018.981 1235.1327,-1148.0631 1235.4655,-1154.1965 1235.3263,-1174.0944 1222.0057,-1173.4487 1199.9274,-1173.1635 1182.1758,-1173.2498 1155.8423,-1091.5479 1143.7155,-1048.3342 1140.9541,-1033.4467 1135.8787,-1011.6089 1105.3715,-916.9578 1106.3911,-914.6806 1112.3315,-912.0754 1117.6064,-910.004 1135.2755,-903.8634 1142.489,-901.6882 1174.7859,-892.6894 1183.1025,-881.936 1188.1082,-875.0992 1263.4701,-766.02 1267.3766,-761.1778 1264.455,-740.2301 1280.7928,-714.01 1323.6721,-630.0499 1333.8198,-612.8946 1328.5822,-581.2571 1327.8807,-576.0753 1323.1838,-551.8299 1318.4939,-530.7163 1281.269,-519.1276 1267.1984,-515.5483 1249.368,-512.5413 1242.1829,-511.743 1239.5044,-511.5222 1237.0354,-511.3893 1222.3356,-511.0177 1222.0581,-511.0027 1217.2135,-511.1563 1202.8528,-510.7832 1196.4094,-510.2444 1185.5864,-508.7126 1178.4576,-507.4977 1168.4104,-505.2035 1165.2267,-504.3847 1172.8629,-427.4515 1173.1892,-414.8121 1174.115,-405.8698 1174.4313,-393.7786 1174.6921,-391.2184 1174.6989,-390.9552 1180.7335,-330.1574 1213.4178,-308.8697 1215.0701,-307.7218 1213.2256,-304.7825 1202.5034,-289.7527 1198.3989,-284.4131 1186.411,-271.0766 1177.6006,-262.17 1150.1755,-220.94 1189.9508,-212.4776 1194.1907,-208.1093 1197.9622,-248.9805 1200.7708,-207.4471 1205.767,-207.4471 1206.5176,-207.2305 1209.2926,-207.2305 1210.2449,-206.9535 1212.1587,-206.9535 1216.6479,-211.0438 1220.7946,-212.1978 1220.7946,-212.1978 1216.6479,-211.0438 1212.1587,-206.9535 1210.2449,-206.9535 1209.2926,-207.2305 1206.5176,-207.2305 1205.767,-207.4471 1200.7708,-207.4471 1197.9622,-248.9805 1194.1907,-208.1093 1189.9508,-212.4776 1150.1755,-220.94 1139.8018,-207.8313 1126.858,-193.5011 1121.6108,-186.5696 1114.1418,-177.5976 1101.0399,-158.0966 1096.0029,-149.6366 1095.2643,-128.1089 1186.0457,-49.7719 1193.6227,-42.9969 1199.7308,-37.3471 1206.3966,-30.7662 1213.7046,-24.0529 1218.1886,-25.4188 1218.48,-25.5027 1218.6237,-25.5906 1222.259,-27.7396 1241.6174,-38.0104 1250.0184,-42.2931 1309.1699,-68.7878 1372.6962,-133.5322 1392.7106,-157.4204 1401.7402,-167.7293 1415.3596,-206.6388 1422.1858,-209.9556 1424.8821,-211.2098 1432.4836,-214.4355 1432.7037,-319.2751 1432.7037,-319.2751 1432.4836,-214.4355 1552.5886,-260.5446 1582.9207,-349.7847 1585.8248,-357.288 1596.2859,-422.3063 1657.5527,-481.9682 1723.597,-480.2062 1741.9464,-484.0667 1748.389,-485.301 1756.5743,-486.5618 1764.0157,-487.429 1771.4901,-488.1599 1777.9749,-488.6719 1786.041,-489.1571 1794.8221,-489.5199 1798.2252,-489.4684 1799.4003,-489.6068 1817.2612,-491.3711 1819.1571,-491.5219 1817.9424,-589.4455 1817.9424,-589.4455 1819.1571,-491.5219 1883.2518,-494.1684 1912.3848,-507.0117 1953.67,-558.0663 1960.8745,-638.25 1961.251,-640.6649 1943.0352,-767.6693 2002.0262,-823.6753 2007.1195,-911.0444 2013.0896,-969.4227 2015.1311,-985.9563 1919.3441,-1084.047 1874.9625,-1077.6859 1860.4796,-1075.8845 1860.4796,-1075.8845"/>
<polygon fill="#b3cde3" stroke="#b3cde3" points="623.4778,-871.1122 597.4124,-787.7112 588.0688,-752.5484 586.328,-741.7728 581.5267,-719.295 580.8428,-716.6938 573.3031,-692.5693 524.351,-674.3042 519.6616,-672.3826 515.0035,-670.303 496.5386,-660.6785 492.8191,-658.4752 475.2957,-646.1146 465.0277,-638.1215 464.3864,-637.5992 454.4955,-629.1796 451.8153,-629.2623 444.2194,-629.0331 440.4845,-628.9976 436.0717,-629.1372 421.7636,-630.1803 409.2362,-631.6097 408.0874,-631.788 305.1237,-649.8967 293.9982,-710.3353 278.8757,-784.2028 275.0621,-801.2505 267.6398,-831.8836 120.4358,-825.4187 109.8734,-824.5253 96.9514,-822.9065 91.3775,-821.9822 88.02,-821.3572 77.9634,-819.0733 71.9327,-819.615 66.0916,-819.9118 50.7809,-820.0933 36.3842,-819.7025 20.9104,-818.9814 8.4193,-819.6854 -62.8673,-868.7129 -96.0089,-899.895 -102.9709,-937.8115 -103.3605,-939.71 -96.8342,-975.5116 -85.8698,-1055.0914 -39.8393,-1116.8512 -32.0686,-1118.0939 21.7202,-1116.4995 47.6698,-1109.277 48.0186,-1109.187 57.7682,-1107.0647 64.648,-1105.7062 71.9474,-1104.4127 89.2807,-1102.0442 105.796,-1101.1287 113.7691,-1101.0104 129.2923,-1101.4099 171.7178,-1103.3608 321.1528,-998.9417 352.5657,-978.4005 378.3078,-988.6342 443.4955,-945.0995 466.6329,-930.6167 474.012,-926.3226 484.0066,-921.1522 492.17,-917.2777 499.7943,-913.8223 507.5803,-910.4617 507.0658,-815.3279 503.7184,-763.7603 499.1564,-763.7603 498.9135,-763.6912 495.5568,-763.6912 494.2601,-762.1888 489.1618,-759.1986 489.1618,-759.1986 494.2601,-762.1888 495.5568,-763.6912 498.9135,-763.6912 499.1564,-763.7603 503.7184,-763.7603 507.0658,-815.3279 507.5803,-910.4617 509.771,-909.6107 526.9128,-903.3162 606.9493,-877.4174 615.2517,-874.346 623.4778,-871.1122 623.4778,-871.1122"/>
<polygon fill="#decbe4" stroke="#decbe4" points="1199.7308,-37.3471 1206.3966,-30.7662 1213.7046,-24.0529 1197.7858,6.5235 1170.5757,61.3004 1047.5391,136.0278 1038.3339,136.5664 1024.3989,137.8938 1021.4803,138.2253 1000.7737,141.3388 998.9501,141.6794 998.8379,141.6344 984.4594,136.1681 891.7606,76.5239 841.9393,-4.1072 841.257,-6.4625 831.2851,-36.4922 836.6547,-41.5812 886.5304,-90.6587 950.6703,-109.7903 952.2966,-110.1764 962.1412,-112.2193 967.7643,-113.2159 978.2103,-114.7504 979.8469,-114.9409 991.5815,-115.5963 998.4488,-115.5633 1002.4286,-115.6636 1004.8205,-115.7957 1009.3125,-115.771 1020.4592,-116.0439 1028.7507,-116.9935 1044.7584,-119.3091 1095.2643,-128.1089 1186.0457,-49.7719 1193.6227,-42.9969 1199.7308,-37.3471 1199.7308,-37.3471"/>
<polyline fill="none" stroke="#000000" points="959.2621,-559.3162 968.2852,-557.6964 973.8459,-556.0762 984.6926,-552.2998 986.6005,-551.5313 1004.7528,-542.1413 1011.4735,-537.5613 1048.0909,-510.5352 1063.5417,-513.8386 1068.4899,-515.0309 1074.103,-516.6909 1081.5236,-519.2986 1082.807,-606.2258 1082.8862,-606.9822 1083.536,-617.8329 1082.984,-636.2153 1083.5331,-673.4039 1087.7089,-675.4846 1092.7772,-677.8054 1095.2156,-678.8237 1103.8705,-682.0949 1106.0575,-682.8333 1111.9897,-684.6005 1116.8622,-685.8575 1123.5342,-687.3128 1128.0311,-688.1135 1136.8226,-689.3268 1142.9177,-689.9225 1155.007,-690.6182 1156.6052,-690.7748 1161.0554,-691.3918 1173.8088,-693.6813 1184.3551,-696.8645 1196.2031,-700.9252 1199.0492,-702.1292 1209.519,-706.99 1220.4984,-712.9825 1226.7828,-716.6641 1264.455,-740.2301 1267.3766,-761.1778 1263.4701,-766.02 1188.1082,-875.0992 1183.1025,-881.936 1174.7859,-892.6894 1142.489,-901.6882 1135.2755,-903.8634 1117.6064,-910.004 1112.3315,-912.0754 1106.3911,-914.6806 1105.3715,-916.9578 1135.8787,-1011.6089 1140.9541,-1033.4467 1143.7155,-1048.3342 1155.8423,-1091.5479 1182.1758,-1173.2498 1083.2642,-1226.356 1070.0156,-1227.1783 1061.6362,-1228.1356 1023.6104,-1256.2209 923.0098,-1287.5314 903.7636,-1294.3365 898.3375,-1296.5945 894.3879,-1298.4064 879.0357,-1296.7571 868.2214,-1296.179 860.0599,-1295.8895 835.6978,-1295.901 790.3854,-1277.9165 728.1215,-1189.1901 659.8109,-1162.3405 649.9181,-1162.1545 639.3845,-1162.3828 627.3768,-1162.8861 609.5658,-1164.7129 591.2852,-1167.6941 585.9659,-1166.4136 434.4502,-1096.0432 404.1609,-1036.3539 389.59,-1008.6791 378.3078,-988.6342 443.4955,-945.0995 466.6329,-930.6167 474.012,-926.3226 484.0066,-921.1522 492.17,-917.2777 499.7943,-913.8223 507.5803,-910.4617 509.771,-909.6107 526.9128,-903.3162 606.9493,-877.4174 615.2517,-874.346 623.4778,-871.1122 631.0326,-871.837 634.3121,-872.0861 636.7787,-872.0771 653.7482,-872.3549 660.6154,-859.3436 672.3685,-839.2713 681.0706,-826.7764 691.7875,-813.1944 694.3817,-809.6221 701.7881,-800.1758 704.0013,-797.5855 718.6908,-783.1662 723.297,-779.1346 768.5594,-726.9961 769.1924,-726.19 779.54,-716.8734 789.5256,-706.2731 802.8582,-688.7505 805.7413,-684.4793 770.0504,-621.8137 771.1841,-620.1614 778.306,-608.433 808.1503,-555.81 877.5284,-559.9857 884.0891,-560.0141 889.5596,-560.3388 897.131,-559.935 898.2917,-560.0648 906.5912,-560.5238 908.0327,-560.5223 910.9824,-560.1868 920.3689,-560.1523 921.4625,-560.2684 930.9672,-560.2082 931.1044,-560.1996 931.8643,-560.2354 938.5007,-560.1757 941.0275,-560.2914 945.0761,-560.0217 954.0906,-559.9165 954.7674,-559.8709 959.2621,-559.3162 "/>
<polyline fill="none" stroke="#000000" points="585.2042,-312.156 578.7572,-312.5635 575.7248,-312.5444 575.2184,-312.5061 568.0997,-312.4298 566.5818,-312.3608 563.8174,-312.3251 557.8049,-312.0381 553.3901,-311.9713 548.8448,-312.1976 411.1912,-309.5157 414.024,-247.8078 414.8442,-213.1531 414.15,-180.0975 502.1,-66.9073 539.6215,-55.3669 562.8828,-47.8063 570.6391,-44.889 570.9105,-44.7822 577.4822,-43.6738 584.6427,-46.2971 596,-49.8866 599.6546,-50.9194 608.8379,-53.3622 610.7493,-54.0412 611.4454,-54.2641 623.147,-57.8078 637.692,-61.9576 674.5687,-70.5255 749.009,-60.7662 754.5263,-59.9366 769.1973,-56.8779 788.7892,-52.0339 804.9131,-46.8053 813.5016,-43.6899 817.1541,-42.2949 824.3301,-39.4159 831.2851,-36.4922 836.6547,-41.5812 886.5304,-90.6587 950.6703,-109.7903 952.2966,-110.1764 962.1412,-112.2193 967.7643,-113.2159 978.2103,-114.7504 979.8469,-114.9409 991.5815,-115.5963 998.4488,-115.5633 1002.4286,-115.6636 1004.8205,-115.7957 1009.3125,-115.771 1020.4592,-116.0439 1028.7507,-116.9935 1044.7584,-119.3091 1095.2643,-128.1089 1096.0029,-149.6366 1089.6917,-160.9322 1081.3224,-174.1115 1066.9583,-193.7513 1061.4181,-200.0838 1060.1919,-201.3547 1045.4875,-218.4899 1018.8821,-262.17 1005.9419,-275.5817 1000.3767,-281.9648 993.892,-290.1166 990.8356,-294.6552 994.4124,-318.7478 996.6142,-330.4152 958.8637,-387.6479 954.9857,-393.1558 939.2551,-395.4842 925.7537,-396.4309 918.4051,-396.5642 911.1841,-396.3192 902.3695,-396.5089 900.9968,-396.6146 900.7216,-396.6214 887.5972,-396.606 887.2888,-396.5896 884.9384,-396.5297 865.587,-397.6446 855.141,-398.824 845.5696,-400.1681 822.1632,-358.3261 819.3911,-352.8255 810.2697,-332.4801 793.4513,-289 791.6368,-285.7564 781.0026,-282.6242 769.5214,-280.2843 768.3027,-280.0916 763.3513,-279.5317 749.3483,-279.207 748.3465,-279.1398 744.082,-279.2388 742.7019,-279.2104 730.1237,-278.4 715.7489,-275.578 712.3476,-274.7627 702.6438,-271.5808 698.5173,-270.0473 694.9935,-272.0654 638.0052,-301.8037 631.4178,-305.5599 630.4773,-306.1411 621.6943,-312.0033 621.5273,-312.1312 617.8913,-312.29 611.3058,-312.122 602.52,-312.4678 601.1771,-312.4277 595.4107,-311.8542 595.2465,-311.8486 585.2042,-312.156 "/>
<polyline fill="none" stroke="#000000" points="436.0717,-629.1372 440.4845,-628.9976 444.2194,-629.0331 451.8153,-629.2623 454.4955,-629.1796 461.6595,-621.1138 475.7211,-606.62 559.1301,-504.1796 561.856,-503.9442 564.6179,-503.7848 572.3347,-496.7801 574.9006,-494.7249 587.8587,-483.5728 593.7953,-479.1698 597.3472,-476.7412 609.9344,-469.5327 613.0162,-467.9467 623.0372,-463.3591 665.3455,-446.4821 666.0701,-446.1541 670.8709,-443.7144 677.9574,-439.7166 688.0501,-433.4666 692.248,-430.415 692.9004,-429.9045 699.465,-429.8614 702.4211,-429.9461 703.7492,-429.8433 710.6157,-429.5543 712.9297,-429.5386 720.0987,-429.997 721.153,-429.9897 725.6529,-430.1174 732.5419,-430.0691 739.7244,-430.5259 747.4238,-431.2873 752.0414,-431.9061 803.078,-440.5375 845.5696,-400.1681 822.1632,-358.3261 819.3911,-352.8255 810.2697,-332.4801 793.4513,-289 791.6368,-285.7564 781.0026,-282.6242 769.5214,-280.2843 768.3027,-280.0916 763.3513,-279.5317 749.3483,-279.207 748.3465,-279.1398 744.082,-279.2388 742.7019,-279.2104 730.1237,-278.4 715.7489,-275.578 712.3476,-274.7627 702.6438,-271.5808 698.5173,-270.0473 694.9935,-272.0654 638.0052,-301.8037 631.4178,-305.5599 630.4773,-306.1411 621.6943,-312.0033 621.5273,-312.1312 617.8913,-312.29 611.3058,-312.122 602.52,-312.4678 601.1771,-312.4277 595.4107,-311.8542 595.2465,-311.8486 585.2042,-312.156 578.7572,-312.5635 575.7248,-312.5444 575.2184,-312.5061 568.0997,-312.4298 566.5818,-312.3608 563.8174,-312.3251 557.8049,-312.0381 553.3901,-311.9713 548.8448,-312.1976 411.1912,-309.5157 400.5732,-326.1894 318.0276,-364.0246 299.0249,-385.4295 279.7158,-430.8143 264.4777,-494.65 255.3598,-524.1401 284.8859,-622.2279 305.1237,-649.8967 408.0874,-631.788 409.2362,-631.6097 421.7636,-630.1803 436.0717,-629.1372 "/>
<polyline fill="none" stroke="#000000" points="1101.0399,-158.0966 1096.0029,-149.6366 1089.6917,-160.9322 1081.3224,-174.1115 1066.9583,-193.7513 1061.4181,-200.0838 1060.1919,-201.3547 1045.4875,-218.4899 1018.8821,-262.17 1005.9419,-275.5817 1000.3767,-281.9648 993.892,-290.1166 990.8356,-294.6552 994.4124,-318.7478 996.6142,-330.4152 958.8637,-387.6479 954.9857,-393.1558 939.2551,-395.4842 925.7537,-396.4309 918.4051,-396.5642 911.1841,-396.3192 902.3695,-396.5089 900.9968,-396.6146 900.7216,-396.6214 887.5972,-396.606 887.2888,-396.5896 884.9384,-396.5297 865.587,-397.6446 855.141,-398.824 845.5696,-400.1681 803.078,-440.5375 752.0414,-431.9061 747.4238,-431.2873 739.7244,-430.5259 732.5419,-430.0691 725.6529,-430.1174 721.153,-429.9897 720.0987,-429.997 712.9297,-429.5386 710.6157,-429.5543 703.7492,-429.8433 702.4211,-429.9461 699.465,-429.8614 692.9004,-429.9045 692.248,-430.415 688.0501,-433.4666 677.9574,-439.7166 670.8709,-443.7144 666.0701,-446.1541 665.3455,-446.4821 623.0372,-463.3591 613.0162,-467.9467 609.9344,-469.5327 597.3472,-476.7412 593.7953,-479.1698 587.8587,-483.5728 574.9006,-494.7249 572.3347,-496.7801 564.6179,-503.7848 561.856,-503.9442 559.1301,-504.1796 475.7211,-606.62 461.6595,-621.1138 454.4955,-629.1796 464.3864,-637.5992 465.0277,-638.1215 475.2957,-646.1146 492.8191,-658.4752 496.5386,-660.6785 515.0035,-670.303 519.6616,-672.3826 524.351,-674.3042 573.3031,-692.5693 580.8428,-716.6938 581.5267,-719.295 586.328,-741.7728 588.0688,-752.5484 597.4124,-787.7112 623.4778,-871.1122 631.0326,-871.837 634.3121,-872.0861 636.7787,-872.0771 653.7482,-872.3549 660.6154,-859.3436 672.3685,-839.2713 681.0706,-826.7764 691.7875,-813.1944 694.3817,-809.6221 701.7881,-800.1758 704.0013,-797.5855 718.6908,-783.1662 723.297,-779.1346 768.5594,-726.9961 769.1924,-726.19 779.54,-716.8734 789.5256,-706.2731 802.8582,-688.7505 805.7413,-684.4793 770.0504,-621.8137 771.1841,-620.1614 778.306,-608.433 808.1503,-555.81 877.5284,-559.9857 884.0891,-560.0141 889.5596,-560.3388 897.131,-559.935 898.2917,-560.0648 906.5912,-560.5238 908.0327,-560.5223 910.9824,-560.1868 920.3689,-560.1523 921.4625,-560.2684 930.9672,-560.2082 931.1044,-560.1996 931.8643,-560.2354 938.5007,-560.1757 941.0275,-560.2914 945.0761,-560.0217 954.0906,-559.9165 954.7674,-559.8709 959.2621,-559.3162 968.2852,-557.6964 973.8459,-556.0762 984.6926,-552.2998 986.6005,-551.5313 1004.7528,-542.1413 1011.4735,-537.5613 1048.0909,-510.5352 1063.5417,-513.8386 1068.4899,-515.0309 1074.103,-516.6909 1081.5236,-519.2986 1082.807,-606.2258 1082.8862,-606.9822 1083.536,-617.8329 1082.984,-636.2153 1083.5331,-673.4039 1087.7089,-675.4846 1092.7772,-677.8054 1095.2156,-678.8237 1103.8705,-682.0949 1106.0575,-682.8333 1111.9897,-684.6005 1116.8622,-685.8575 1123.5342,-687.3128 1128.0311,-688.1135 1136.8226,-689.3268 1142.9177,-689.9225 1155.007,-690.6182 1156.6052,-690.7748 1161.0554,-691.3918 1173.8088,-693.6813 1184.3551,-696.8645 1196.2031,-700.9252 1199.0492,-702.1292 1209.519,-706.99 1220.4984,-712.9825 1226.7828,-716.6641 1264.455,-740.2301 1280.7928,-714.01 1323.6721,-630.0499 1333.8198,-612.8946 1328.5822,-581.2571 1327.8807,-576.0753 1323.1838,-551.8299 1318.4939,-530.7163 1281.269,-519.1276 1267.1984,-515.5483 1249.368,-512.5413 1242.1829,-511.743 1239.5044,-511.5222 1237.0354,-511.3893 1222.3356,-511.0177 1222.0581,-511.0027 1217.2135,-511.1563 1202.8528,-510.7832 1196.4094,-510.2444 1185.5864,-508.7126 1178.4576,-507.4977 1168.4104,-505.2035 1165.2267,-504.3847 1172.8629,-427.4515 1173.1892,-414.8121 1174.115,-405.8698 1174.4313,-393.7786 1174.6921,-391.2184 1174.6989,-390.9552 1180.7335,-330.1574 1213.4178,-308.8697 1215.0701,-307.7218 1213.2256,-304.7825 1202.5034,-289.7527 1198.3989,-284.4131 1186.411,-271.0766 1177.6006,-262.17 1150.1755,-220.94 1139.8018,-207.8313 1126.858,-193.5011 1121.6108,-186.5696 1114.1418,-177.5976 1101.0399,-158.0966 "/>
<polyline fill="none" stroke="#000000" points="1239.5044,-511.5222 1237.0354,-511.3893 1222.3356,-511.0177 1222.0581,-511.0027 1217.2135,-511.1563 1202.8528,-510.7832 1196.4094,-510.2444 1185.5864,-508.7126 1178.4576,-507.4977 1168.4104,-505.2035 1165.2267,-504.3847 1172.8629,-427.4515 1173.1892,-414.8121 1174.115,-405.8698 1174.4313,-393.7786 1174.6921,-391.2184 1174.6989,-390.9552 1180.7335,-330.1574 1213.4178,-308.8697 1215.0701,-307.7218 1213.2256,-304.7825 1202.5034,-289.7527 1198.3989,-284.4131 1186.411,-271.0766 1177.6006,-262.17 1150.1755,-220.94 1139.8018,-207.8313 1126.858,-193.5011 1121.6108,-186.5696 1114.1418,-177.5976 1101.0399,-158.0966 1096.0029,-149.6366 1095.2643,-128.1089 1186.0457,-49.7719 1193.6227,-42.9969 1199.7308,-37.3471 1206.3966,-30.7662 1213.7046,-24.0529 1218.1886,-25.4188 1218.48,-25.5027 1218.6237,-25.5906 1222.259,-27.7396 1241.6174,-38.0104 1250.0184,-42.2931 1309.1699,-68.7878 1372.6962,-133.5322 1392.7106,-157.4204 1401.7402,-167.7293 1415.3596,-206.6388 1422.1858,-209.9556 1424.8821,-211.2098 1432.4836,-214.4355 1552.5886,-260.5446 1582.9207,-349.7847 1585.8248,-357.288 1596.2859,-422.3063 1657.5527,-481.9682 1723.597,-480.2062 1741.9464,-484.0667 1748.389,-485.301 1756.5743,-486.5618 1764.0157,-487.429 1771.4901,-488.1599 1777.9749,-488.6719 1786.041,-489.1571 1794.8221,-489.5199 1798.2252,-489.4684 1799.4003,-489.6068 1817.2612,-491.3711 1819.1571,-491.5219 1883.2518,-494.1684 1912.3848,-507.0117 1953.67,-558.0663 1960.8745,-638.25 1961.251,-640.6649 1943.0352,-767.6693 2002.0262,-823.6753 2007.1195,-911.0444 2013.0896,-969.4227 2015.1311,-985.9563 1919.3441,-1084.047 1874.9625,-1077.6859 1860.4796,-1075.8845 1851.9103,-1075.1459 1842.8037,-1074.535 1831.6893,-1074.0023 1819.1545,-1074.3597 1811.9106,-1074.7046 1806.5752,-1075.0604 1805.3373,-1075.1665 1798.0974,-1075.9254 1790.11,-1077.0679 1755.1096,-1082.7429 1724.0187,-1076.4246 1628.4044,-953.6442 1580.3269,-896.5332 1430.2355,-1045.8772 1409.7131,-1127.6732 1395.2932,-1135.3137 1293.8505,-1170.8547 1272.6564,-1171.103 1257.8312,-1171.8116 1235.3745,-1174.101 1235.3263,-1174.0944 1222.0057,-1173.4487 1199.9274,-1173.1635 1182.1758,-1173.2498 1155.8423,-1091.5479 1143.7155,-1048.3342 1140.9541,-1033.4467 1135.8787,-1011.6089 1105.3715,-916.9578 1106.3911,-914.6806 1112.3315,-912.0754 1117.6064,-910.004 1135.2755,-903.8634 1142.489,-901.6882 1174.7859,-892.6894 1183.1025,-881.936 1188.1082,-875.0992 1263.4701,-766.02 1267.3766,-761.1778 1264.455,-740.2301 1280.7928,-714.01 1323.6721,-630.0499 1333.8198,-612.8946 1328.5822,-581.2571 1327.8807,-576.0753 1323.1838,-551.8299 1318.4939,-530.7163 1281.269,-519.1276 1267.1984,-515.5483 1249.368,-512.5413 1242.1829,-511.743 1239.5044,-511.5222 "/>
<polyline fill="none" stroke="#000000" points="71.9474,-1104.4127 64.648,-1105.7062 57.7682,-1107.0647 48.0186,-1109.187 47.6698,-1109.277 21.7202,-1116.4995 -32.0686,-1118.0939 -39.8393,-1116.8512 -85.8698,-1055.0914 -96.8342,-975.5116 -103.3605,-939.71 -102.9709,-937.8115 -96.0089,-899.895 -62.8673,-868.7129 8.4193,-819.6854 20.9104,-818.9814 36.3842,-819.7025 50.7809,-820.0933 66.0916,-819.9118 71.9327,-819.615 77.9634,-819.0733 88.02,-821.3572 91.3775,-821.9822 96.9514,-822.9065 109.8734,-824.5253 120.4358,-825.4187 267.6398,-831.8836 275.0621,-801.2505 278.8757,-784.2028 293.9982,-710.3353 305.1237,-649.8967 408.0874,-631.788 409.2362,-631.6097 421.7636,-630.1803 436.0717,-629.1372 440.4845,-628.9976 444.2194,-629.0331 451.8153,-629.2623 454.4955,-629.1796 464.3864,-637.5992 465.0277,-638.1215 475.2957,-646.1146 492.8191,-658.4752 496.5386,-660.6785 515.0035,-670.303 519.6616,-672.3826 524.351,-674.3042 573.3031,-692.5693 580.8428,-716.6938 581.5267,-719.295 586.328,-741.7728 588.0688,-752.5484 597.4124,-787.7112 623.4778,-871.1122 615.2517,-874.346 606.9493,-877.4174 526.9128,-903.3162 509.771,-909.6107 507.5803,-910.4617 499.7943,-913.8223 492.17,-917.2777 484.0066,-921.1522 474.012,-926.3226 466.6329,-930.6167 443.4955,-945.0995 378.3078,-988.6342 352.5657,-978.4005 321.1528,-998.9417 171.7178,-1103.3608 129.2923,-1101.4099 113.7691,-1101.0104 105.796,-1101.1287 89.2807,-1102.0442 71.9474,-1104.4127 "/>
<polyline fill="none" stroke="#000000" points="1004.8205,-115.7957 1002.4286,-115.6636 998.4488,-115.5633 991.5815,-115.5963 979.8469,-114.9409 978.2103,-114.7504 967.7643,-113.2159 962.1412,-112.2193 952.2966,-110.1764 950.6703,-109.7903 886.5304,-90.6587 836.6547,-41.5812 831.2851,-36.4922 841.257,-6.4625 841.9393,-4.1072 891.7606,76.5239 984.4594,136.1681 998.8379,141.6344 998.9501,141.6794 1000.7737,141.3388 1021.4803,138.2253 1024.3989,137.8938 1038.3339,136.5664 1047.5391,136.0278 1170.5757,61.3004 1197.7858,6.5235 1213.7046,-24.0529 1206.3966,-30.7662 1199.7308,-37.3471 1193.6227,-42.9969 1186.0457,-49.7719 1095.2643,-128.1089 1044.7584,-119.3091 1028.7507,-116.9935 1020.4592,-116.0439 1009.3125,-115.771 1004.8205,-115.7957 "/>
<!-- device&#45;mapper&#45;libs&#45;&gt;Fedora Container Base -->
<g id="edge1" class="edge">
<title>device&#45;mapper&#45;libs&#45;&gt;Fedora Container Base</title>
<path fill="none" stroke="#444444" stroke-opacity="0.333333" d="M611.4894,-242.7695C668.3605,-306.0379 858.3852,-517.438 924.3671,-590.842"/>
<polygon fill="#444444" fill-opacity="0.333333" stroke="#444444" stroke-opacity="0.333333" points="921.7851,-593.2051 931.0731,-598.3024 926.991,-588.5256 921.7851,-593.2051"/>
</g>
<!-- device&#45;mapper&#45;libs&#45;&gt;device&#45;mapper -->
<g id="edge2" class="edge">
<title>device&#45;mapper&#45;libs&#45;&gt;device&#45;mapper</title>
<path fill="none" stroke="#444444" stroke-opacity="0.333333" d="M691.2586,-224.5021C691.4828,-224.4858 691.7069,-224.4695 691.931,-224.453"/>
<polygon fill="#444444" fill-opacity="0.333333" stroke="#444444" stroke-opacity="0.333333" points="692.2854,-227.9362 701.9888,-223.6825 691.7506,-220.9567 692.2854,-227.9362"/>
</g>
<!-- device&#45;mapper&#45;&gt;Fedora Container Base -->
<g id="edge30" class="edge">
<title>device&#45;mapper&#45;&gt;Fedora Container Base</title>
<path fill="none" stroke="#444444" stroke-opacity="0.333333" d="M791.9584,-229.1887C817.7883,-293.5956 904.9821,-511.0141 936.0562,-588.4977"/>
<polygon fill="#444444" fill-opacity="0.333333" stroke="#444444" stroke-opacity="0.333333" points="932.9209,-590.0828 939.8917,-598.0615 939.4179,-587.4772 932.9209,-590.0828"/>
</g>
<!-- device&#45;mapper&#45;&gt;device&#45;mapper&#45;libs -->
<g id="edge31" class="edge">
<title>device&#45;mapper&#45;&gt;device&#45;mapper&#45;libs</title>
<path fill="none" stroke="#444444" stroke-opacity="0.333333" d="M701.9129,-210.2501C701.8037,-210.2571 701.6943,-210.2641 701.585,-210.2711"/>
<polygon fill="#444444" fill-opacity="0.333333" stroke="#444444" stroke-opacity="0.333333" points="701.1168,-206.7946 691.3752,-210.96 701.5882,-213.7787 701.1168,-206.7946"/>
</g>
<!-- device&#45;mapper&#45;&gt;systemd -->
<g id="edge32" class="edge">
<title>device&#45;mapper&#45;&gt;systemd</title>
<path fill="none" stroke="#444444" stroke-opacity="0.333333" d="M792.834,-229.336C815.0172,-279.1247 876.4564,-417.0207 902.9299,-476.4389"/>
<polygon fill="#444444" fill-opacity="0.333333" stroke="#444444" stroke-opacity="0.333333" points="899.8922,-478.221 907.1591,-485.931 906.2863,-475.3721 899.8922,-478.221"/>
</g>
<!-- device&#45;mapper&#45;&gt;util&#45;linux -->
<g id="edge33" class="edge">
<title>device&#45;mapper&#45;&gt;util&#45;linux</title>
<path fill="none" stroke="#444444" stroke-opacity="0.333333" d="M867.28,-212.008C878.5978,-212.1474 890.1655,-212.29 901.3343,-212.4276"/>
<polygon fill="#444444" fill-opacity="0.333333" stroke="#444444" stroke-opacity="0.333333" points="901.4184,-215.9288 911.4608,-212.5523 901.5047,-208.9293 901.4184,-215.9288"/>
</g>
<!-- libargon2&#45;&gt;Fedora Container Base -->
<g id="edge3" class="edge">
<title>libargon2&#45;&gt;Fedora Container Base</title>
<path fill="none" stroke="#444444" stroke-opacity="0.333333" d="M494.6692,-509.313C588.9618,-531.5883 768.1184,-573.9116 870.4423,-598.0842"/>
<polygon fill="#444444" fill-opacity="0.333333" stroke="#444444" stroke-opacity="0.333333" points="869.866,-601.5443 880.4028,-600.4372 871.4754,-594.7318 869.866,-601.5443"/>
</g>
<!-- dbus&#45;broker&#45;&gt;Fedora Container Base -->
<g id="edge4" class="edge">
<title>dbus&#45;broker&#45;&gt;Fedora Container Base</title>
<path fill="none" stroke="#444444" stroke-opacity="0.333333" d="M1087.7506,-280.2136C1063.5312,-338.0995 987.6779,-519.3935 958.6375,-588.802"/>
<polygon fill="#444444" fill-opacity="0.333333" stroke="#444444" stroke-opacity="0.333333" points="955.3353,-587.6267 954.7042,-598.2027 961.7928,-590.3285 955.3353,-587.6267"/>
</g>
<!-- dbus&#45;broker&#45;&gt;dbus&#45;common -->
<g id="edge5" class="edge">
<title>dbus&#45;broker&#45;&gt;dbus&#45;common</title>
<path fill="none" stroke="#444444" stroke-opacity="0.333333" d="M1095.3654,-280.1823C1095.45,-303.4934 1095.5983,-344.365 1095.6978,-371.7935"/>
<polygon fill="#444444" fill-opacity="0.333333" stroke="#444444" stroke-opacity="0.333333" points="1092.1983,-371.9461 1095.7346,-381.9333 1099.1982,-371.9206 1092.1983,-371.9461"/>
</g>
<!-- dbus&#45;broker&#45;&gt;shadow&#45;utils -->
<g id="edge6" class="edge">
<title>dbus&#45;broker&#45;&gt;shadow&#45;utils</title>
<path fill="none" stroke="#444444" stroke-opacity="0.333333" d="M1114.5551,-280.3434C1141.8484,-306.1033 1191.903,-353.3457 1222.8668,-382.57"/>
<polygon fill="#444444" fill-opacity="0.333333" stroke="#444444" stroke-opacity="0.333333" points="1220.6274,-385.2691 1230.3022,-389.5876 1225.4321,-380.1784 1220.6274,-385.2691"/>
</g>
<!-- dbus&#45;broker&#45;&gt;systemd -->
<g id="edge7" class="edge">
<title>dbus&#45;broker&#45;&gt;systemd</title>
<path fill="none" stroke="#444444" stroke-opacity="0.333333" d="M1081.773,-280.3668C1050.2325,-322.7959 971.7081,-428.4288 934.9236,-477.9122"/>
<polygon fill="#444444" fill-opacity="0.333333" stroke="#444444" stroke-opacity="0.333333" points="931.9255,-476.0787 928.7685,-486.1922 937.5433,-480.2548 931.9255,-476.0787"/>
</g>
<!-- dbus&#45;common&#45;&gt;Fedora Container Base -->
<g id="edge8" class="edge">
<title>dbus&#45;common&#45;&gt;Fedora Container Base</title>
<path fill="none" stroke="#444444" stroke-opacity="0.333333" d="M1083.3835,-418.0162C1057.1548,-456.1797 996.0067,-545.1516 965.3591,-589.7444"/>
<polygon fill="#444444" fill-opacity="0.333333" stroke="#444444" stroke-opacity="0.333333" points="962.4353,-587.8194 959.6557,-598.0431 968.2042,-591.7842 962.4353,-587.8194"/>
</g>
<!-- dbus&#45;common&#45;&gt;systemd -->
<g id="edge9" class="edge">
<title>dbus&#45;common&#45;&gt;systemd</title>
<path fill="none" stroke="#444444" stroke-opacity="0.333333" d="M1064.3645,-418.1212C1034.1794,-435.5696 988.4457,-462.0058 955.6048,-480.9893"/>
<polygon fill="#444444" fill-opacity="0.333333" stroke="#444444" stroke-opacity="0.333333" points="953.6135,-478.0976 946.7075,-486.1324 957.1167,-484.158 953.6135,-478.0976"/>
</g>
<!-- shadow&#45;utils&#45;&gt;Fedora Container Base -->
<g id="edge10" class="edge">
<title>shadow&#45;utils&#45;&gt;Fedora Container Base</title>
<path fill="none" stroke="#444444" stroke-opacity="0.333333" d="M1223.473,-426.1039C1168.7845,-463.7315 1042.9004,-550.3442 981.756,-592.4136"/>
<polygon fill="#444444" fill-opacity="0.333333" stroke="#444444" stroke-opacity="0.333333" points="979.4751,-589.7345 973.2207,-598.2862 983.443,-595.5013 979.4751,-589.7345"/>
</g>
<!-- shadow&#45;utils&#45;&gt;libsemanage -->
<g id="edge11" class="edge">
<title>shadow&#45;utils&#45;&gt;libsemanage</title>
<path fill="none" stroke="#444444" stroke-opacity="0.333333" d="M1320.6707,-392.2628C1320.7766,-392.2393 1320.8825,-392.2158 1320.9884,-392.1923"/>
<polygon fill="#444444" fill-opacity="0.333333" stroke="#444444" stroke-opacity="0.333333" points="1316.7556,-396.7169 1325.7598,-391.1334 1315.239,-389.8832 1316.7556,-396.7169"/>
</g>
<!-- systemd&#45;&gt;Fedora Container Base -->
<g id="edge12" class="edge">
<title>systemd&#45;&gt;Fedora Container Base</title>
<path fill="none" stroke="#444444" stroke-opacity="0.333333" d="M920.5877,-522.7546C925.6647,-540.6039 933.4192,-567.8664 939.2448,-588.3474"/>
<polygon fill="#444444" fill-opacity="0.333333" stroke="#444444" stroke-opacity="0.333333" points="935.9077,-589.4084 942.0101,-598.0693 942.6406,-587.4933 935.9077,-589.4084"/>
</g>
<!-- systemd&#45;&gt;shadow&#45;utils -->
<g id="edge13" class="edge">
<title>systemd&#45;&gt;shadow&#45;utils</title>
<path fill="none" stroke="#444444" stroke-opacity="0.333333" d="M977.0667,-486.4986C1033.6577,-470.2084 1117.4899,-446.0766 1177.256,-428.8724"/>
<polygon fill="#444444" fill-opacity="0.333333" stroke="#444444" stroke-opacity="0.333333" points="1178.3634,-432.1958 1187.0049,-426.0661 1176.4269,-425.469 1178.3634,-432.1958"/>
</g>
<!-- systemd&#45;&gt;util&#45;linux -->
<g id="edge14" class="edge">
<title>systemd&#45;&gt;util&#45;linux</title>
<path fill="none" stroke="#444444" stroke-opacity="0.333333" d="M919.1377,-486.0717C929.4286,-436.8876 957.8553,-301.0262 970.27,-241.6918"/>
<polygon fill="#444444" fill-opacity="0.333333" stroke="#444444" stroke-opacity="0.333333" points="973.7715,-242.0463 972.3937,-231.5415 966.9199,-240.6127 973.7715,-242.0463"/>
</g>
<!-- systemd&#45;&gt;acl -->
<g id="edge15" class="edge">
<title>systemd&#45;&gt;acl</title>
<path fill="none" stroke="#444444" stroke-opacity="0.333333" d="M860.1683,-522.3325C803.9217,-540.7503 717.0508,-569.1959 660.0474,-587.8614"/>
<polygon fill="#444444" fill-opacity="0.333333" stroke="#444444" stroke-opacity="0.333333" points="658.8801,-584.5607 650.4658,-590.9989 661.0585,-591.2132 658.8801,-584.5607"/>
</g>
<!-- systemd&#45;&gt;cryptsetup&#45;libs -->
<g id="edge16" class="edge">
<title>systemd&#45;&gt;cryptsetup&#45;libs</title>
<path fill="none" stroke="#444444" stroke-opacity="0.333333" d="M858.0659,-486.1729C800.5897,-468.0089 712.0957,-440.0423 651.3957,-420.8594"/>
<polygon fill="#444444" fill-opacity="0.333333" stroke="#444444" stroke-opacity="0.333333" points="652.1166,-417.4166 641.5267,-417.7405 650.0072,-424.0913 652.1166,-417.4166"/>
</g>
<!-- systemd&#45;&gt;dbus -->
<g id="edge17" class="edge">
<title>systemd&#45;&gt;dbus</title>
<path fill="none" stroke="#444444" stroke-opacity="0.333333" d="M919.1711,-486.0951C934.7532,-412.3664 993.3144,-135.2766 1012.194,-45.9448"/>
<polygon fill="#444444" fill-opacity="0.333333" stroke="#444444" stroke-opacity="0.333333" points="1015.6507,-46.5154 1014.2942,-36.0078 1008.802,-45.0679 1015.6507,-46.5154"/>
</g>
<!-- systemd&#45;&gt;iptables&#45;libs -->
<g id="edge18" class="edge">
<title>systemd&#45;&gt;iptables&#45;libs</title>
<path fill="none" stroke="#444444" stroke-opacity="0.333333" d="M916.1604,-522.5185C918.9958,-584.8236 928.3079,-789.4531 931.7479,-865.0465"/>
<polygon fill="#444444" fill-opacity="0.333333" stroke="#444444" stroke-opacity="0.333333" points="928.2603,-865.4005 932.2114,-875.231 935.253,-865.0822 928.2603,-865.4005"/>
</g>
<!-- systemd&#45;&gt;kmod&#45;libs -->
<g id="edge19" class="edge">
<title>systemd&#45;&gt;kmod&#45;libs</title>
<path fill="none" stroke="#444444" stroke-opacity="0.333333" d="M853.6661,-506.5486C828.2555,-507.4876 798.5251,-508.5861 771.6508,-509.5792"/>
<polygon fill="#444444" fill-opacity="0.333333" stroke="#444444" stroke-opacity="0.333333" points="771.3697,-506.0871 761.5058,-509.9541 771.6283,-513.0823 771.3697,-506.0871"/>
</g>
<!-- systemd&#45;&gt;libfdisk -->
<g id="edge20" class="edge">
<title>systemd&#45;&gt;libfdisk</title>
<path fill="none" stroke="#444444" stroke-opacity="0.333333" d="M912.9044,-485.9162C907.9264,-448.2497 896.5278,-362.0009 890.6058,-317.1919"/>
<polygon fill="#444444" fill-opacity="0.333333" stroke="#444444" stroke-opacity="0.333333" points="894.0395,-316.4589 889.2594,-307.0037 887.0998,-317.3761 894.0395,-316.4589"/>
</g>
<!-- systemd&#45;&gt;libseccomp -->
<g id="edge21" class="edge">
<title>systemd&#45;&gt;libseccomp</title>
<path fill="none" stroke="#444444" stroke-opacity="0.333333" d="M896.2299,-522.4306C854.668,-561.9483 755.9494,-655.8114 708.4115,-701.0111"/>
<polygon fill="#444444" fill-opacity="0.333333" stroke="#444444" stroke-opacity="0.333333" points="705.802,-698.6626 700.9667,-708.0897 710.6255,-703.7355 705.802,-698.6626"/>
</g>
<!-- systemd&#45;&gt;qrencode&#45;libs -->
<g id="edge22" class="edge">
<title>systemd&#45;&gt;qrencode&#45;libs</title>
<path fill="none" stroke="#444444" stroke-opacity="0.333333" d="M908.3169,-522.4355C889.6677,-570.741 838.7613,-702.6001 816.518,-760.2151"/>
<polygon fill="#444444" fill-opacity="0.333333" stroke="#444444" stroke-opacity="0.333333" points="813.1712,-759.1663 812.8347,-769.7558 819.7014,-761.6875 813.1712,-759.1663"/>
</g>
<!-- systemd&#45;&gt;systemd&#45;pam -->
<g id="edge23" class="edge">
<title>systemd&#45;&gt;systemd&#45;pam</title>
<path fill="none" stroke="#444444" stroke-opacity="0.333333" d="M947.6019,-522.2802C989.4701,-541.6176 1063.6137,-571.9498 1118.5697,-592.5402"/>
<polygon fill="#444444" fill-opacity="0.333333" stroke="#444444" stroke-opacity="0.333333" points="1117.6571,-595.935 1128.25,-596.1392 1120.0965,-589.3738 1117.6571,-595.935"/>
</g>
<!-- systemd&#45;&gt;systemd&#45;rpm&#45;macros -->
<g id="edge24" class="edge">
<title>systemd&#45;&gt;systemd&#45;rpm&#45;macros</title>
<path fill="none" stroke="#444444" stroke-opacity="0.333333" d="M928.1047,-522.6758C959.713,-568.217 1041.6802,-686.3153 1078.5525,-739.4409"/>
<polygon fill="#444444" fill-opacity="0.333333" stroke="#444444" stroke-opacity="0.333333" points="1075.9034,-741.7626 1084.4806,-747.9821 1081.6541,-737.7712 1075.9034,-741.7626"/>
</g>
<!-- systemd&#45;&gt;diffutils -->
<g id="edge25" class="edge">
<title>systemd&#45;&gt;diffutils</title>
<path fill="none" stroke="#444444" stroke-dasharray="5,2" stroke-opacity="0.333333" d="M893.3923,-486.2681C859.0441,-458.0822 792.5102,-403.4851 753.8667,-371.7745"/>
<polygon fill="#444444" fill-opacity="0.333333" stroke="#444444" stroke-opacity="0.333333" points="756.0163,-369.0109 746.0656,-365.373 751.5758,-374.4222 756.0163,-369.0109"/>
</g>
<!-- systemd&#45;&gt;libxkbcommon -->
<g id="edge26" class="edge">
<title>systemd&#45;&gt;libxkbcommon</title>
<path fill="none" stroke="#444444" stroke-dasharray="5,2" stroke-opacity="0.333333" d="M885.5132,-522.2893C809.7273,-568.0891 609.7485,-688.9428 525.1415,-740.0735"/>
<polygon fill="#444444" fill-opacity="0.333333" stroke="#444444" stroke-opacity="0.333333" points="523.1124,-737.2103 516.3641,-745.378 526.7329,-743.2012 523.1124,-737.2103"/>
</g>
<!-- libsemanage&#45;&gt;Fedora Container Base -->
<g id="edge46" class="edge">
<title>libsemanage&#45;&gt;Fedora Container Base</title>
<path fill="none" stroke="#444444" stroke-opacity="0.333333" d="M1367.1664,-392.5473C1285.3845,-436.099 1078.4189,-546.3154 989.181,-593.8377"/>
<polygon fill="#444444" fill-opacity="0.333333" stroke="#444444" stroke-opacity="0.333333" points="987.3412,-590.852 980.1599,-598.6417 990.6315,-597.0305 987.3412,-590.852"/>
</g>
<!-- util&#45;linux&#45;&gt;Fedora Container Base -->
<g id="edge27" class="edge">
<title>util&#45;linux&#45;&gt;Fedora Container Base</title>
<path fill="none" stroke="#444444" stroke-opacity="0.333333" d="M974.8962,-231.4427C970.2915,-295.3439 954.7698,-510.7451 949.1894,-588.1857"/>
<polygon fill="#444444" fill-opacity="0.333333" stroke="#444444" stroke-opacity="0.333333" points="945.698,-587.9414 948.4702,-598.1672 952.6799,-588.4446 945.698,-587.9414"/>
</g>
<!-- util&#45;linux&#45;&gt;libfdisk -->
<g id="edge28" class="edge">
<title>util&#45;linux&#45;&gt;libfdisk</title>
<path fill="none" stroke="#444444" stroke-opacity="0.333333" d="M954.5781,-231.6628C943.0582,-241.4196 928.722,-253.5617 916.212,-264.1571"/>
<polygon fill="#444444" fill-opacity="0.333333" stroke="#444444" stroke-opacity="0.333333" points="913.6716,-261.7221 908.3028,-270.8559 918.1957,-267.0637 913.6716,-261.7221"/>
</g>
<!-- util&#45;linux&#45;&gt;libutempter -->
<g id="edge29" class="edge">
<title>util&#45;linux&#45;&gt;libutempter</title>
<path fill="none" stroke="#444444" stroke-opacity="0.333333" d="M1040.8649,-211.7314C1072.2011,-210.947 1110.0883,-209.9987 1143.0229,-209.1743"/>
<polygon fill="#444444" fill-opacity="0.333333" stroke="#444444" stroke-opacity="0.333333" points="1143.1631,-212.672 1153.0723,-208.9228 1142.9878,-205.6742 1143.1631,-212.672"/>
</g>
<!-- acl&#45;&gt;Fedora Container Base -->
<g id="edge47" class="edge">
<title>acl&#45;&gt;Fedora Container Base</title>
<path fill="none" stroke="#444444" stroke-opacity="0.333333" d="M650.2871,-607.9434C689.8953,-609.0463 748.4702,-610.6773 803.1484,-612.1998"/>
<polygon fill="#444444" fill-opacity="0.333333" stroke="#444444" stroke-opacity="0.333333" points="803.2137,-615.7028 813.3072,-612.4826 803.4086,-608.7056 803.2137,-615.7028"/>
</g>
<!-- cryptsetup&#45;libs&#45;&gt;Fedora Container Base -->
<g id="edge48" class="edge">
<title>cryptsetup&#45;libs&#45;&gt;Fedora Container Base</title>
<path fill="none" stroke="#444444" stroke-opacity="0.333333" d="M614.7148,-417.778C680.5247,-457.0579 836.4049,-550.0978 908.8846,-593.3587"/>
<polygon fill="#444444" fill-opacity="0.333333" stroke="#444444" stroke-opacity="0.333333" points="907.3326,-596.5083 917.7132,-598.6282 910.9203,-590.4976 907.3326,-596.5083"/>
</g>
<!-- cryptsetup&#45;libs&#45;&gt;device&#45;mapper&#45;libs -->
<g id="edge49" class="edge">
<title>cryptsetup&#45;libs&#45;&gt;device&#45;mapper&#45;libs</title>
<path fill="none" stroke="#444444" stroke-opacity="0.333333" d="M585.5261,-381.619C587.4034,-351.2252 591.2071,-289.6414 593.4512,-253.3078"/>
<polygon fill="#444444" fill-opacity="0.333333" stroke="#444444" stroke-opacity="0.333333" points="596.9705,-253.1017 594.0937,-242.9049 589.9838,-252.6701 596.9705,-253.1017"/>
</g>
<!-- cryptsetup&#45;libs&#45;&gt;libargon2 -->
<g id="edge50" class="edge">
<title>cryptsetup&#45;libs&#45;&gt;libargon2</title>
<path fill="none" stroke="#444444" stroke-opacity="0.333333" d="M555.4984,-417.7748C531.2291,-432.9557 496.3929,-454.7463 470.0025,-471.254"/>
<polygon fill="#444444" fill-opacity="0.333333" stroke="#444444" stroke-opacity="0.333333" points="468.0259,-468.3621 461.404,-476.6326 471.7381,-474.2967 468.0259,-468.3621"/>
</g>
<!-- dbus&#45;&gt;dbus&#45;broker -->
<g id="edge51" class="edge">
<title>dbus&#45;&gt;dbus&#45;broker</title>
<path fill="none" stroke="#444444" stroke-opacity="0.333333" d="M1023.9025,-36.3524C1037.3201,-78.7899 1070.5595,-183.9202 1086.4994,-234.3353"/>
<polygon fill="#444444" fill-opacity="0.333333" stroke="#444444" stroke-opacity="0.333333" points="1083.1835,-235.458 1089.5354,-243.9377 1089.8579,-233.3477 1083.1835,-235.458"/>
</g>
<!-- iptables&#45;libs&#45;&gt;Fedora Container Base -->
<g id="edge52" class="edge">
<title>iptables&#45;libs&#45;&gt;Fedora Container Base</title>
<path fill="none" stroke="#444444" stroke-opacity="0.333333" d="M933.9671,-875.2502C936.3724,-828.0592 942.8264,-701.4312 945.7253,-644.5546"/>
<polygon fill="#444444" fill-opacity="0.333333" stroke="#444444" stroke-opacity="0.333333" points="949.2258,-644.632 946.2395,-634.4668 942.2349,-644.2757 949.2258,-644.632"/>
</g>
<!-- iptables&#45;libs&#45;&gt;libnetfilter_conntrack -->
<g id="edge53" class="edge">
<title>iptables&#45;libs&#45;&gt;libnetfilter_conntrack</title>
<path fill="none" stroke="#444444" stroke-opacity="0.333333" d="M916.2667,-911.6109C891.1826,-938.785 843.7986,-990.1171 815.2412,-1021.054"/>
<polygon fill="#444444" fill-opacity="0.333333" stroke="#444444" stroke-opacity="0.333333" points="812.6226,-1018.7307 808.4115,-1028.4527 817.7662,-1023.4787 812.6226,-1018.7307"/>
</g>
<!-- iptables&#45;libs&#45;&gt;libpcap -->
<g id="edge54" class="edge">
<title>iptables&#45;libs&#45;&gt;libpcap</title>
<path fill="none" stroke="#444444" stroke-opacity="0.333333" d="M945.42,-911.7453C965.5428,-941.4993 1005.4335,-1000.4825 1028.6955,-1034.8781"/>
<polygon fill="#444444" fill-opacity="0.333333" stroke="#444444" stroke-opacity="0.333333" points="1026.0059,-1037.1489 1034.5073,-1043.4717 1031.8043,-1033.2274 1026.0059,-1037.1489"/>
</g>
<!-- kmod&#45;libs&#45;&gt;Fedora Container Base -->
<g id="edge55" class="edge">
<title>kmod&#45;libs&#45;&gt;Fedora Container Base</title>
<path fill="none" stroke="#444444" stroke-opacity="0.333333" d="M738.0658,-530.5236C782.0756,-548.5579 849.6427,-576.2454 895.9889,-595.2371"/>
<polygon fill="#444444" fill-opacity="0.333333" stroke="#444444" stroke-opacity="0.333333" points="894.6706,-598.4793 905.251,-599.0325 897.3249,-592.002 894.6706,-598.4793"/>
</g>
<!-- libfdisk&#45;&gt;Fedora Container Base -->
<g id="edge56" class="edge">
<title>libfdisk&#45;&gt;Fedora Container Base</title>
<path fill="none" stroke="#444444" stroke-opacity="0.333333" d="M890.2073,-307.0583C900.1923,-361.2495 929.9518,-522.762 942.0101,-588.206"/>
<polygon fill="#444444" fill-opacity="0.333333" stroke="#444444" stroke-opacity="0.333333" points="938.5988,-589.0073 943.853,-598.2075 945.4829,-587.7388 938.5988,-589.0073"/>
</g>
<!-- libseccomp&#45;&gt;Fedora Container Base -->
<g id="edge57" class="edge">
<title>libseccomp&#45;&gt;Fedora Container Base</title>
<path fill="none" stroke="#444444" stroke-opacity="0.333333" d="M725.432,-708.1522C772.2377,-688.7445 846.6078,-657.9075 896.1414,-637.3687"/>
<polygon fill="#444444" fill-opacity="0.333333" stroke="#444444" stroke-opacity="0.333333" points="897.4983,-640.5951 905.3951,-633.5317 894.8171,-634.1289 897.4983,-640.5951"/>
</g>
<!-- qrencode&#45;libs&#45;&gt;Fedora Container Base -->
<g id="edge58" class="edge">
<title>qrencode&#45;libs&#45;&gt;Fedora Container Base</title>
<path fill="none" stroke="#444444" stroke-opacity="0.333333" d="M820.7335,-769.7343C845.8554,-739.2303 896.8203,-677.3466 925.786,-642.1754"/>
<polygon fill="#444444" fill-opacity="0.333333" stroke="#444444" stroke-opacity="0.333333" points="928.648,-644.2057 932.3035,-634.2614 923.2446,-639.7556 928.648,-644.2057"/>
</g>
<!-- systemd&#45;pam&#45;&gt;Fedora Container Base -->
<g id="edge59" class="edge">
<title>systemd&#45;pam&#45;&gt;Fedora Container Base</title>
<path fill="none" stroke="#444444" stroke-opacity="0.333333" d="M1109.6113,-614.8688C1104.5047,-614.911 1099.2834,-614.9541 1093.9909,-614.9978"/>
<polygon fill="#444444" fill-opacity="0.333333" stroke="#444444" stroke-opacity="0.333333" points="1093.7076,-611.4999 1083.7369,-615.0825 1093.7655,-618.4997 1093.7076,-611.4999"/>
</g>
<!-- systemd&#45;pam&#45;&gt;systemd -->
<g id="edge60" class="edge">
<title>systemd&#45;pam&#45;&gt;systemd</title>
<path fill="none" stroke="#444444" stroke-opacity="0.333333" d="M1155.9281,-596.2098C1114.0599,-576.8724 1039.9163,-546.5402 984.9603,-525.9498"/>
<polygon fill="#444444" fill-opacity="0.333333" stroke="#444444" stroke-opacity="0.333333" points="985.8729,-522.555 975.28,-522.3508 983.4335,-529.1162 985.8729,-522.555"/>
</g>
<!-- systemd&#45;rpm&#45;macros&#45;&gt;Fedora Container Base -->
<g id="edge61" class="edge">
<title>systemd&#45;rpm&#45;macros&#45;&gt;Fedora Container Base</title>
<path fill="none" stroke="#444444" stroke-opacity="0.333333" d="M1078.927,-747.9494C1052.3788,-721.4048 1002.7269,-671.7595 972.5372,-641.5738"/>
<polygon fill="#444444" fill-opacity="0.333333" stroke="#444444" stroke-opacity="0.333333" points="974.8534,-638.9402 965.3071,-634.3447 969.9039,-643.8903 974.8534,-638.9402"/>
</g>
<!-- diffutils&#45;&gt;Fedora Container Base -->
<g id="edge64" class="edge">
<title>diffutils&#45;&gt;Fedora Container Base</title>
<path fill="none" stroke="#444444" stroke-opacity="0.333333" d="M739.0733,-365.3988C777.728,-411.9879 880.9241,-536.3663 925.8159,-590.4728"/>
<polygon fill="#444444" fill-opacity="0.333333" stroke="#444444" stroke-opacity="0.333333" points="923.173,-592.7687 932.2519,-598.2298 928.5602,-588.2989 923.173,-592.7687"/>
</g>
<!-- libxkbcommon&#45;&gt;Fedora Container Base -->
<g id="edge65" class="edge">
<title>libxkbcommon&#45;&gt;Fedora Container Base</title>
<path fill="none" stroke="#444444" stroke-opacity="0.333333" d="M542.9521,-745.3955C629.6852,-717.6761 795.0374,-664.8306 885.0428,-636.0655"/>
<polygon fill="#444444" fill-opacity="0.333333" stroke="#444444" stroke-opacity="0.333333" points="886.3793,-639.3128 894.8392,-632.9346 884.2483,-632.645 886.3793,-639.3128"/>
</g>
<!-- libxkbcommon&#45;&gt;xkeyboard&#45;config -->
<g id="edge66" class="edge">
<title>libxkbcommon&#45;&gt;xkeyboard&#45;config</title>
<path fill="none" stroke="#444444" stroke-opacity="0.333333" d="M449.9893,-781.5306C376.3602,-818.0327 210.1071,-900.4537 129.306,-940.5114"/>
<polygon fill="#444444" fill-opacity="0.333333" stroke="#444444" stroke-opacity="0.333333" points="127.2927,-937.603 119.8878,-945.1805 130.4019,-943.8746 127.2927,-937.603"/>
</g>
<!-- libutempter&#45;&gt;Fedora Container Base -->
<g id="edge62" class="edge">
<title>libutempter&#45;&gt;Fedora Container Base</title>
<path fill="none" stroke="#444444" stroke-opacity="0.333333" d="M1208.9761,-225.3215C1165.4956,-290.2399 1017.2247,-511.6151 965.3052,-589.1334"/>
<polygon fill="#444444" fill-opacity="0.333333" stroke="#444444" stroke-opacity="0.333333" points="962.1216,-587.5972 959.4647,-597.8535 967.9376,-591.4926 962.1216,-587.5972"/>
</g>
<!-- libutempter&#45;&gt;shadow&#45;utils -->
<g id="edge63" class="edge">
<title>libutempter&#45;&gt;shadow&#45;utils</title>
<path fill="none" stroke="#444444" stroke-opacity="0.333333" d="M1223.6976,-225.3911C1228.7115,-260.4657 1239.7559,-337.7268 1245.7457,-379.6279"/>
<polygon fill="#444444" fill-opacity="0.333333" stroke="#444444" stroke-opacity="0.333333" points="1242.3077,-380.3113 1247.1876,-389.7153 1249.2372,-379.3206 1242.3077,-380.3113"/>
</g>
<!-- libunwind&#45;&gt;Fedora Container Base -->
<g id="edge34" class="edge">
<title>libunwind&#45;&gt;Fedora Container Base</title>
<path fill="none" stroke="#444444" stroke-opacity="0.333333" d="M1228.2815,-1001.006C1181.2133,-936.5773 1021.6407,-718.1484 966.2765,-642.3637"/>
<polygon fill="#444444" fill-opacity="0.333333" stroke="#444444" stroke-opacity="0.333333" points="969.0773,-640.2643 960.3521,-634.2542 963.425,-644.3936 969.0773,-640.2643"/>
</g>
<!-- libnetfilter_conntrack&#45;&gt;Fedora Container Base -->
<g id="edge35" class="edge">
<title>libnetfilter_conntrack&#45;&gt;Fedora Container Base</title>
<path fill="none" stroke="#444444" stroke-opacity="0.333333" d="M798.2427,-1028.3816C822.6361,-960.8705 907.9722,-724.6938 937.2344,-643.7079"/>
<polygon fill="#444444" fill-opacity="0.333333" stroke="#444444" stroke-opacity="0.333333" points="940.5655,-644.788 940.6721,-634.1937 933.9821,-642.4092 940.5655,-644.788"/>
</g>
<!-- libnetfilter_conntrack&#45;&gt;libmnl -->
<g id="edge36" class="edge">
<title>libnetfilter_conntrack&#45;&gt;libmnl</title>
<path fill="none" stroke="#444444" stroke-opacity="0.333333" d="M689.501,-1028.5334C689.3463,-1028.506 689.1918,-1028.4787 689.0374,-1028.4514"/>
<polygon fill="#444444" fill-opacity="0.333333" stroke="#444444" stroke-opacity="0.333333" points="696.27,-1026.1764 685.8132,-1027.8812 695.0508,-1033.0694 696.27,-1026.1764"/>
</g>
<!-- libnetfilter_conntrack&#45;&gt;libnfnetlink -->
<g id="edge37" class="edge">
<title>libnetfilter_conntrack&#45;&gt;libnfnetlink</title>
<path fill="none" stroke="#444444" stroke-opacity="0.333333" d="M810.7655,-1064.8591C825.9817,-1079.4012 847.4519,-1099.9202 864.3172,-1116.0383"/>
<polygon fill="#444444" fill-opacity="0.333333" stroke="#444444" stroke-opacity="0.333333" points="862.0555,-1118.7181 871.7031,-1123.0969 866.8919,-1113.6575 862.0555,-1118.7181"/>
</g>
<!-- libmnl&#45;&gt;Fedora Container Base -->
<g id="edge39" class="edge">
<title>libmnl&#45;&gt;Fedora Container Base</title>
<path fill="none" stroke="#444444" stroke-opacity="0.333333" d="M645.2662,-1000.1464C695.8158,-935.8616 867.1911,-717.9206 926.6503,-642.3053"/>
<polygon fill="#444444" fill-opacity="0.333333" stroke="#444444" stroke-opacity="0.333333" points="929.5829,-644.2381 933.0129,-634.2139 924.0803,-639.9112 929.5829,-644.2381"/>
</g>
<!-- libnfnetlink&#45;&gt;Fedora Container Base -->
<g id="edge40" class="edge">
<title>libnfnetlink&#45;&gt;Fedora Container Base</title>
<path fill="none" stroke="#444444" stroke-opacity="0.333333" d="M892.6921,-1123.2252C901.0507,-1045.4329 933.996,-738.8176 944.1646,-644.1808"/>
<polygon fill="#444444" fill-opacity="0.333333" stroke="#444444" stroke-opacity="0.333333" points="947.6476,-644.5255 945.2361,-634.2088 940.6877,-643.7776 947.6476,-644.5255"/>
</g>
<!-- libpcap&#45;&gt;Fedora Container Base -->
<g id="edge38" class="edge">
<title>libpcap&#45;&gt;Fedora Container Base</title>
<path fill="none" stroke="#444444" stroke-opacity="0.333333" d="M1042.675,-1043.4926C1027.2945,-974.6813 972.1618,-728.0215 953.4413,-644.2673"/>
<polygon fill="#444444" fill-opacity="0.333333" stroke="#444444" stroke-opacity="0.333333" points="956.8422,-643.4372 951.2451,-634.4415 950.0108,-644.9642 956.8422,-643.4372"/>
</g>
<!-- gperftools&#45;libs&#45;&gt;Fedora Container Base -->
<g id="edge41" class="edge">
<title>gperftools&#45;libs&#45;&gt;Fedora Container Base</title>
<path fill="none" stroke="#444444" stroke-opacity="0.333333" d="M1310.114,-873.2973C1242.1821,-825.1785 1056.766,-693.8411 980.5565,-639.859"/>
<polygon fill="#444444" fill-opacity="0.333333" stroke="#444444" stroke-opacity="0.333333" points="982.4282,-636.8956 972.2449,-633.9715 978.382,-642.6078 982.4282,-636.8956"/>
</g>
<!-- gperftools&#45;libs&#45;&gt;libunwind -->
<g id="edge42" class="edge">
<title>gperftools&#45;libs&#45;&gt;libunwind</title>
<path fill="none" stroke="#444444" stroke-opacity="0.333333" d="M1322.3173,-909.3825C1306.3653,-931.039 1279.4678,-967.555 1261.1208,-992.4629"/>
<polygon fill="#444444" fill-opacity="0.333333" stroke="#444444" stroke-opacity="0.333333" points="1258.1325,-990.6183 1255.0198,-1000.7456 1263.7686,-994.7698 1258.1325,-990.6183"/>
</g>
<!-- nginx&#45;filesystem&#45;&gt;Fedora Container Base -->
<g id="edge43" class="edge">
<title>nginx&#45;filesystem&#45;&gt;Fedora Container Base</title>
<path fill="none" stroke="#444444" stroke-opacity="0.333333" d="M1394.7452,-575.1298C1309.5806,-582.9465 1170.4238,-595.7189 1069.863,-604.9488"/>
<polygon fill="#444444" fill-opacity="0.333333" stroke="#444444" stroke-opacity="0.333333" points="1069.2808,-601.4874 1059.6426,-605.8868 1069.9206,-608.4581 1069.2808,-601.4874"/>
</g>
<!-- nginx&#45;filesystem&#45;&gt;shadow&#45;utils -->
<g id="edge44" class="edge">
<title>nginx&#45;filesystem&#45;&gt;shadow&#45;utils</title>
<path fill="none" stroke="#444444" stroke-opacity="0.333333" d="M1445.9668,-550.0801C1406.0739,-521.1843 1327.8552,-464.5279 1283.1816,-432.1694"/>
<polygon fill="#444444" fill-opacity="0.333333" stroke="#444444" stroke-opacity="0.333333" points="1285.1332,-429.2613 1274.9813,-426.2296 1281.0268,-434.9304 1285.1332,-429.2613"/>
</g>
<!-- nginx&#45;mimetypes&#45;&gt;nginx&#45;filesystem -->
<g id="edge45" class="edge">
<title>nginx&#45;mimetypes&#45;&gt;nginx&#45;filesystem</title>
<path fill="none" stroke="#444444" stroke-opacity="0.333333" d="M1700.9188,-620.1949C1656.7407,-610.1971 1601.8064,-597.7651 1556.7028,-587.5578"/>
<polygon fill="#444444" fill-opacity="0.333333" stroke="#444444" stroke-opacity="0.333333" points="1557.4672,-584.1424 1546.9413,-585.3487 1555.9221,-590.9697 1557.4672,-584.1424"/>
</g>
<!-- nginx&#45;&gt;Fedora Container Base -->
<g id="edge67" class="edge">
<title>nginx&#45;&gt;Fedora Container Base</title>
<path fill="none" stroke="#444444" stroke-opacity="0.333333" d="M1347.515,-698.1336C1260.6295,-680.354 1120.314,-651.6409 1030.9729,-633.3588"/>
<polygon fill="#444444" fill-opacity="0.333333" stroke="#444444" stroke-opacity="0.333333" points="1031.6445,-629.9238 1021.1458,-631.3479 1030.2411,-636.7817 1031.6445,-629.9238"/>
</g>
<!-- nginx&#45;&gt;systemd -->
<g id="edge68" class="edge">
<title>nginx&#45;&gt;systemd</title>
<path fill="none" stroke="#444444" stroke-opacity="0.333333" d="M1381.1961,-695.9462C1287.846,-657.5382 1069.9282,-567.878 968.73,-526.2409"/>
<polygon fill="#444444" fill-opacity="0.333333" stroke="#444444" stroke-opacity="0.333333" points="969.8887,-522.933 959.3091,-522.3648 967.2252,-529.4065 969.8887,-522.933"/>
</g>
<!-- nginx&#45;&gt;fedora&#45;logos&#45;httpd -->
<g id="edge69" class="edge">
<title>nginx&#45;&gt;fedora&#45;logos&#45;httpd</title>
<path fill="none" stroke="#444444" stroke-opacity="0.333333" d="M1458.7497,-732.057C1531.757,-771.2124 1704.5942,-863.9086 1785.169,-907.1225"/>
<polygon fill="#444444" fill-opacity="0.333333" stroke="#444444" stroke-opacity="0.333333" points="1783.596,-910.2504 1794.0628,-911.8924 1786.9045,-904.0816 1783.596,-910.2504"/>
</g>
<!-- nginx&#45;&gt;gperftools&#45;libs -->
<g id="edge70" class="edge">
<title>nginx&#45;&gt;gperftools&#45;libs</title>
<path fill="none" stroke="#444444" stroke-opacity="0.333333" d="M1415.859,-732.3206C1400.0746,-763.5967 1367.84,-827.468 1349.3862,-864.0333"/>
<polygon fill="#444444" fill-opacity="0.333333" stroke="#444444" stroke-opacity="0.333333" points="1346.1717,-862.6346 1344.7907,-873.1391 1352.4209,-865.7885 1346.1717,-862.6346"/>
</g>
<!-- nginx&#45;&gt;nginx&#45;filesystem -->
<g id="edge71" class="edge">
<title>nginx&#45;&gt;nginx&#45;filesystem</title>
<path fill="none" stroke="#444444" stroke-opacity="0.333333" d="M1430.808,-695.8304C1438.6588,-670.826 1452.8627,-625.5876 1462.0845,-596.2166"/>
<polygon fill="#444444" fill-opacity="0.333333" stroke="#444444" stroke-opacity="0.333333" points="1465.4637,-597.138 1465.1201,-586.5487 1458.7851,-595.041 1465.4637,-597.138"/>
</g>
<!-- nginx&#45;&gt;nginx&#45;mimetypes -->
<g id="edge72" class="edge">
<title>nginx&#45;&gt;nginx&#45;mimetypes</title>
<path fill="none" stroke="#444444" stroke-opacity="0.333333" d="M1502.6985,-697.4778C1556.693,-685.9743 1628.9928,-670.571 1686.3262,-658.3562"/>
<polygon fill="#444444" fill-opacity="0.333333" stroke="#444444" stroke-opacity="0.333333" points="1687.0688,-661.7766 1696.12,-656.2696 1685.6101,-654.9303 1687.0688,-661.7766"/>
</g>
<!-- Fedora Container Base -->
<g id="node1" class="node">
<title>Fedora Container Base</title>
<ellipse fill="none" stroke="#000000" cx="947.17" cy="-616.21" rx="136.5" ry="18"/>
<text text-anchor="middle" x="947.17" y="-612.51" font-family="Helvetica,sans-Serif" font-weight="bold" font-size="14.00" fill="#000000">Fedora Container Base (201.6 MB)</text>
</g>
<!-- device&#45;mapper&#45;libs -->
<g id="node2" class="node">
<title>device&#45;mapper&#45;libs</title>
<text text-anchor="middle" x="595.22" y="-220.97" font-family="Helvetica,sans-Serif" font-weight="bold" font-size="14.00" fill="#000000">device&#45;mapper&#45;libs (418.0 kB)</text>
</g>
<!-- device&#45;mapper -->
<g id="node3" class="node">
<title>device&#45;mapper</title>
<text text-anchor="middle" x="784.66" y="-207.29" font-family="Helvetica,sans-Serif" font-weight="bold" font-size="14.00" fill="#000000">device&#45;mapper (349.9 kB)</text>
</g>
<!-- libargon2 -->
<g id="node4" class="node">
<title>libargon2</title>
<text text-anchor="middle" x="432.6" y="-490.95" font-family="Helvetica,sans-Serif" font-weight="bold" font-size="14.00" fill="#000000">libargon2 (54.2 kB)</text>
</g>
<!-- dbus&#45;broker -->
<g id="node5" class="node">
<title>dbus&#45;broker</title>
<text text-anchor="middle" x="1095.3" y="-258.47" font-family="Helvetica,sans-Serif" font-weight="bold" font-size="14.00" fill="#000000">dbus&#45;broker (409.6 kB)</text>
</g>
<!-- dbus&#45;common -->
<g id="node6" class="node">
<title>dbus&#45;common</title>
<text text-anchor="middle" x="1095.8" y="-396.25" font-family="Helvetica,sans-Serif" font-weight="bold" font-size="14.00" fill="#000000">dbus&#45;common (11.2 kB)</text>
</g>
<!-- shadow&#45;utils -->
<g id="node7" class="node">
<title>shadow&#45;utils</title>
<text text-anchor="middle" x="1249.8" y="-404.29" font-family="Helvetica,sans-Serif" font-weight="bold" font-size="14.00" fill="#000000">shadow&#45;utils (4.0 MB)</text>
</g>
<!-- systemd -->
<g id="node8" class="node">
<title>systemd</title>
<text text-anchor="middle" x="915.33" y="-500.57" font-family="Helvetica,sans-Serif" font-weight="bold" font-size="14.00" fill="#000000">systemd (13.1 MB)</text>
</g>
<!-- libsemanage -->
<g id="node9" class="node">
<title>libsemanage</title>
<text text-anchor="middle" x="1401.3" y="-370.67" font-family="Helvetica,sans-Serif" font-weight="bold" font-size="14.00" fill="#000000">libsemanage (304.5 kB)</text>
</g>
<!-- util&#45;linux -->
<g id="node10" class="node">
<title>util&#45;linux</title>
<text text-anchor="middle" x="976.2" y="-209.65" font-family="Helvetica,sans-Serif" font-weight="bold" font-size="14.00" fill="#000000">util&#45;linux (13.5 MB)</text>
</g>
<!-- acl -->
<g id="node11" class="node">
<title>acl</title>
<text text-anchor="middle" x="602.76" y="-602.92" font-family="Helvetica,sans-Serif" font-weight="bold" font-size="14.00" fill="#000000">acl (209.6 kB)</text>
</g>
<!-- cryptsetup&#45;libs -->
<g id="node12" class="node">
<title>cryptsetup&#45;libs</title>
<text text-anchor="middle" x="584.41" y="-395.99" font-family="Helvetica,sans-Serif" font-weight="bold" font-size="14.00" fill="#000000">cryptsetup&#45;libs (1.8 MB)</text>
</g>
<!-- dbus -->
<g id="node13" class="node">
<title>dbus</title>
<text text-anchor="middle" x="1018.1" y="-14.3" font-family="Helvetica,sans-Serif" font-weight="bold" font-size="14.00" fill="#000000">dbus (0.0 B)</text>
</g>
<!-- iptables&#45;libs -->
<g id="node14" class="node">
<title>iptables&#45;libs</title>
<text text-anchor="middle" x="933.04" y="-889.74" font-family="Helvetica,sans-Serif" font-weight="bold" font-size="14.00" fill="#000000">iptables&#45;libs (1.9 MB)</text>
</g>
<!-- kmod&#45;libs -->
<g id="node15" class="node">
<title>kmod&#45;libs</title>
<text text-anchor="middle" x="693.96" y="-508.75" font-family="Helvetica,sans-Serif" font-weight="bold" font-size="14.00" fill="#000000">kmod&#45;libs (135.6 kB)</text>
</g>
<!-- libfdisk -->
<g id="node16" class="node">
<title>libfdisk</title>
<text text-anchor="middle" x="886.88" y="-285.3" font-family="Helvetica,sans-Serif" font-weight="bold" font-size="14.00" fill="#000000">libfdisk (472.7 kB)</text>
</g>
<!-- libseccomp -->
<g id="node17" class="node">
<title>libseccomp</title>
<text text-anchor="middle" x="681.93" y="-722.49" font-family="Helvetica,sans-Serif" font-weight="bold" font-size="14.00" fill="#000000">libseccomp (351.1 kB)</text>
</g>
<!-- qrencode&#45;libs -->
<g id="node18" class="node">
<title>qrencode&#45;libs</title>
<text text-anchor="middle" x="805.88" y="-784.07" font-family="Helvetica,sans-Serif" font-weight="bold" font-size="14.00" fill="#000000">qrencode&#45;libs (158.2 kB)</text>
</g>
<!-- systemd&#45;pam -->
<g id="node19" class="node">
<title>systemd&#45;pam</title>
<text text-anchor="middle" x="1188.2" y="-610.52" font-family="Helvetica,sans-Serif" font-weight="bold" font-size="14.00" fill="#000000">systemd&#45;pam (867.7 kB)</text>
</g>
<!-- systemd&#45;rpm&#45;macros -->
<g id="node20" class="node">
<title>systemd&#45;rpm&#45;macros</title>
<text text-anchor="middle" x="1097" y="-762.32" font-family="Helvetica,sans-Serif" font-weight="bold" font-size="14.00" fill="#000000">systemd&#45;rpm&#45;macros (7.9 kB)</text>
</g>
<!-- diffutils -->
<g id="node21" class="node">
<title>diffutils</title>
<text text-anchor="middle" x="724.09" y="-343.64" font-family="Helvetica,sans-Serif" font-weight="bold" font-size="14.00" fill="#000000">diffutils (1.5 MB)</text>
</g>
<!-- libxkbcommon -->
<g id="node22" class="node">
<title>libxkbcommon</title>
<text text-anchor="middle" x="486.46" y="-759.75" font-family="Helvetica,sans-Serif" font-weight="bold" font-size="14.00" fill="#000000">libxkbcommon (276.4 kB)</text>
</g>
<!-- libutempter -->
<g id="node23" class="node">
<title>libutempter</title>
<text text-anchor="middle" x="1221.1" y="-203.52" font-family="Helvetica,sans-Serif" font-weight="bold" font-size="14.00" fill="#000000">libutempter (57.8 kB)</text>
</g>
<!-- libunwind -->
<g id="node24" class="node">
<title>libunwind</title>
<text text-anchor="middle" x="1241.5" y="-1015.4" font-family="Helvetica,sans-Serif" font-weight="bold" font-size="14.00" fill="#000000">libunwind (172.8 kB)</text>
</g>
<!-- libnetfilter_conntrack -->
<g id="node25" class="node">
<title>libnetfilter_conntrack</title>
<text text-anchor="middle" x="791.66" y="-1042.9" font-family="Helvetica,sans-Serif" font-weight="bold" font-size="14.00" fill="#000000">libnetfilter_conntrack (148.0 kB)</text>
</g>
<!-- libmnl -->
<g id="node26" class="node">
<title>libmnl</title>
<text text-anchor="middle" x="631.07" y="-1014.5" font-family="Helvetica,sans-Serif" font-weight="bold" font-size="14.00" fill="#000000">libmnl (55.4 kB)</text>
</g>
<!-- libnfnetlink -->
<g id="node27" class="node">
<title>libnfnetlink</title>
<text text-anchor="middle" x="890.75" y="-1137.6" font-family="Helvetica,sans-Serif" font-weight="bold" font-size="14.00" fill="#000000">libnfnetlink (54.8 kB)</text>
</g>
<!-- libpcap -->
<g id="node28" class="node">
<title>libpcap</title>
<text text-anchor="middle" x="1046.7" y="-1057.8" font-family="Helvetica,sans-Serif" font-weight="bold" font-size="14.00" fill="#000000">libpcap (387.4 kB)</text>
</g>
<!-- xkeyboard&#45;config -->
<g id="node29" class="node">
<title>xkeyboard&#45;config</title>
<text text-anchor="middle" x="83.5" y="-959.52" font-family="Helvetica,sans-Serif" font-weight="bold" font-size="14.00" fill="#000000">xkeyboard&#45;config (5.5 MB)</text>
</g>
<!-- fedora&#45;logos&#45;httpd -->
<g id="node30" class="node">
<title>fedora&#45;logos&#45;httpd</title>
<text text-anchor="middle" x="1827.9" y="-926.34" font-family="Helvetica,sans-Serif" font-weight="bold" font-size="14.00" fill="#000000">fedora&#45;logos&#45;httpd (9.9 kB)</text>
</g>
<!-- gperftools&#45;libs -->
<g id="node31" class="node">
<title>gperftools&#45;libs</title>
<text text-anchor="middle" x="1335.6" y="-887.65" font-family="Helvetica,sans-Serif" font-weight="bold" font-size="14.00" fill="#000000">gperftools&#45;libs (1.5 MB)</text>
</g>
<!-- nginx&#45;filesystem -->
<g id="node32" class="node">
<title>nginx&#45;filesystem</title>
<text text-anchor="middle" x="1470.9" y="-564.44" font-family="Helvetica,sans-Serif" font-weight="bold" font-size="14.00" fill="#000000">nginx&#45;filesystem (0.0 B)</text>
</g>
<!-- nginx&#45;mimetypes -->
<g id="node33" class="node">
<title>nginx&#45;mimetypes</title>
<text text-anchor="middle" x="1780.7" y="-634.55" font-family="Helvetica,sans-Serif" font-weight="bold" font-size="14.00" fill="#000000">nginx&#45;mimetypes (39.3 kB)</text>
</g>
<!-- nginx -->
<g id="node34" class="node">
<title>nginx</title>
<text text-anchor="middle" x="1425.1" y="-708.41" font-family="Helvetica,sans-Serif" font-weight="bold" font-size="22.00" fill="#cc0066">nginx (1.6 MB)</text>
</g>
</g>

<script type="text/javascript"><![CDATA[

document.addEventListener('click', function(e) {
      e = e || window.event;
      var target = e.target || e.srcElement;
      text = target.parentElement.querySelector("title").textContent;

      console.log("Clicked on: " + text);
      // reset all strokes
      var nodes = document.getElementsByClassName("edge");

      for (index = 0, len = nodes.length; index < len; ++index) {
          //var title = nodes[index].querySelector("title").textContent.split("->");
          id = nodes[index].id;
          document.getElementById(id).querySelector("path").setAttribute("stroke-width", "1");
          document.getElementById(id).querySelector("path").setAttribute("stroke-opacity", "0.5");
          document.getElementById(id).querySelector("path").setAttribute("stroke", "#444444");
          document.getElementById(id).querySelector("polygon").setAttribute("stroke-width", "1");
          document.getElementById(id).querySelector("polygon").setAttribute("stroke-opacity", "0.5");
          document.getElementById(id).querySelector("polygon").setAttribute("stroke", "#444444");
      }
      // reset text highlight
      pkgs = document.getElementsByClassName("node");
      for (index2 = 0, len2 = pkgs.length; index2 < len2; ++index2) {
          target_id = pkgs[index2].id;
          document.getElementById(target_id).querySelector("text").setAttribute("font-weight", "normal");
      }

      // highlight deps
      var nodes = document.getElementsByClassName("edge");
      for (index = 0, len = nodes.length; index < len; ++index) {
        var title = nodes[index].querySelector("title").textContent.split("->");

        if (title[0] == text) {
          id = nodes[index].id;
          //console.log("ID:   " + id);
          document.getElementById(id).querySelector("path").setAttribute("stroke-width", "3");
          document.getElementById(id).querySelector("path").setAttribute("stroke-opacity", "1");
          document.getElementById(id).querySelector("path").setAttribute("stroke", "#aa3333");
          document.getElementById(id).querySelector("polygon").setAttribute("stroke-width", "5");
          document.getElementById(id).querySelector("polygon").setAttribute("stroke-opacity", "1");
          document.getElementById(id).querySelector("polygon").setAttribute("stroke", "#aa3333");

        }
        if (title[1] == text) {
          id = nodes[index].id;
          document.getElementById(id).querySelector("path").setAttribute("stroke-width", "3");
          document.getElementById(id).querySelector("path").setAttribute("stroke-opacity", "1");
          document.getElementById(id).querySelector("path").setAttribute("stroke", "#333377");
          document.getElementById(id).querySelector("polygon").setAttribute("stroke-width", "5");
          document.getElementById(id).querySelector("polygon").setAttribute("stroke-opacity", "1");
          document.getElementById(id).querySelector("polygon").setAttribute("stroke", "#333377");
        }

        if (title[0] == text || title[1] == text) {
          pkgs = document.getElementsByClassName("node");
          for (index2 = 0, len2 = pkgs.length; index2 < len2; ++index2) {
            var pkg_name = pkgs[index2].querySelector("title").textContent;
            if (pkg_name == title[0] || pkg_name == title[1]) {
              target_id = pkgs[index2].id;
              document.getElementById(target_id).querySelector("text").setAttribute("font-weight", "bold");
            }
          }
        }
      }


  }, false);

]]></script>


  <text
     id="text7664"
     y="19.384439"
     x="9.9055691"
     style="font-style:normal;font-weight:normal;font-size:12.49485588px;line-height:125%;font-family:sans-serif;letter-spacing:0px;word-spacing:0px;fill:#000000;fill-opacity:1;stroke:none;stroke-width:0.3123714px;stroke-linecap:butt;stroke-linejoin:miter;stroke-opacity:1"
     xml:space="preserve"><tspan
       style="font-size:12.00258541px;stroke-width:0.3123714px"
       y="19.384439"
       x="9.9055691"
       id="tspan7666"><a href="report-use-case-definition--nginx--rawhide.html"><tspan
   style="font-weight:bold;font-size:12.00258541px;fill:#0066ff;stroke-width:0.3123714px"
   id="tspan7668">Nginx</tspan></a> on <a href="report-base-definition--fedora-container-base--rawhide.html"><tspan
   style="font-weight:bold;font-size:12.00258541px;fill:#0066ff;stroke-width:0.3123714px"
   id="tspan7676">Fedora Container Base</tspan></a> (Fedora rawhide)</tspan></text>
  <text
     xml:space="preserve"
     style="font-style:normal;font-weight:normal;font-size:11.85299969px;line-height:125%;font-family:sans-serif;letter-spacing:0px;word-spacing:0px;fill:#000000;fill-opacity:1;stroke:none;stroke-width:0.296325px;stroke-linecap:butt;stroke-linejoin:miter;stroke-opacity:1"
     x="9.9365959"
     y="58.520042"
     id="text8235"><tspan
       id="tspan8237"
       x="9.9365959"
       y="58.520042"
       style="stroke-width:0.296325px;font-size:10.80232704px;fill:#666666">Generated by <a href="./"><tspan
   style="fill:#3771c8"
   id="tspan8255">Feedback Pipeline</tspan></a></tspan></text>
  <text
     xml:space="preserve"
     style="font-style:normal;font-weight:normal;font-size:12.49485588px;line-height:125%;font-family:sans-serif;letter-spacing:0px;word-spacing:0px;fill:#000000;fill-opacity:1;stroke:none;stroke-width:0.3123714px;stroke-linecap:butt;stroke-linejoin:miter;stroke-opacity:1"
     x="9.9055691"
     y="38.974205"
     id="text8245"><a href="graph--nginx--fedora-container-base--rawhide.svg"><tspan
       id="tspan8247"
       x="9.9055691"
       y="38.974205"
       style="font-weight:normal;font-size:12.00258541px;fill:#0066ff;stroke-width:0.3123714px">Expand base image</tspan></a></text>

</svg>
