<?xml version="1.0" encoding="UTF-8" standalone="no"?>
<!DOCTYPE svg PUBLIC "-//W3C//DTD SVG 1.1//EN"
 "http://www.w3.org/Graphics/SVG/1.1/DTD/svg11.dtd">
<!-- Generated by graphviz version 2.40.1 (0)
 -->
<!-- Title: packages Pages: 1 -->
<svg width="1563pt" height="1376pt"
 viewBox="0.00 0.00 1875.40 1650.77" xmlns="http://www.w3.org/2000/svg" xmlns:xlink="http://www.w3.org/1999/xlink">
<g id="graph0" class="graph" transform="scale(.8333 .8333) rotate(0) translate(121.6617 1502.4989)">
<title>packages</title>
<polygon fill="#dae2ff" stroke="transparent" points="-121.6617,148.2714 -121.6617,-1502.4989 1753.743,-1502.4989 1753.743,148.2714 -121.6617,148.2714"/>
<polygon fill="#fbb4ae" stroke="#fbb4ae" points="1120.2555,-362.2335 1119.2754,-337.5731 1119.2754,-337.5731 1120.2555,-362.2335 1166.2163,-343.7925 1166.8446,-343.5047 1170.6122,-341.5564 1184.4628,-332.6852 1192.3019,-327.2076 1201.1852,-319.9681 1214.7439,-306.4378 1220.2866,-301.59 1233.9412,-287.5238 1234.2124,-287.2591 1263.7438,-257.0489 1202.3779,-157.5917 1199.9917,-155.766 1182.2037,-84.4434 1172.1788,-34.7807 1156.0367,4.5846 1089.1709,37.9874 1045.3445,43.995 1043.735,-65.8315 1039.6532,-108.4094 1035.9656,-108.4094 1035.1445,-108.6578 1030.3646,-108.6578 1026.1768,-157.2079 1023.8717,-111.7362 1018.9476,-113.1997 1018.9476,-113.1997 1023.8717,-111.7362 1027.8927,-108.0394 1024.4836,-105.066 1018.9744,-103.4117 1018.9744,-103.4117 1024.4836,-105.066 1027.8927,-108.0394 1023.8717,-111.7362 1026.1768,-157.2079 1030.3646,-108.6578 1035.1445,-108.6578 1035.9656,-108.4094 1039.6532,-108.4094 1043.735,-65.8315 1045.3445,43.995 1035.267,45.7696 1016.7696,49.7501 1010.2131,51.5428 1004.8621,51.3956 979.1453,52.0863 952.7949,53.2702 899.1395,90.456 848.7623,112.364 829.1103,108.2078 821.2041,106.68 806.6512,104.6633 806.6815,-53.9957 806.9608,-54.0775 804.6549,-129.5032 804.9249,-156.279 803.4613,-156.3688 804.0908,-204.8818 804.0908,-204.8818 803.4613,-156.3688 804.9249,-156.279 804.6549,-129.5032 806.9608,-54.0775 806.6815,-53.9957 801.6517,-53.9957 800.8361,-54.2372 796.8847,-54.2372 796.6397,-54.1634 793.2764,-12.7057 790.0738,-50.6541 785.2269,-49.2422 780.0613,-50.7631 777.2836,1.5249 773.8179,-54.3555 769.8804,-54.3555 769.8804,-54.3555 773.8179,-54.3555 777.2836,1.5249 780.0613,-50.7631 785.2269,-49.2422 790.0738,-50.6541 793.2764,-12.7057 796.6397,-54.1634 796.8847,-54.2372 800.8361,-54.2372 801.6517,-53.9957 806.6815,-53.9957 806.6512,104.6633 795.5179,103.3242 793.4656,103.1151 782.4503,102.3956 777.7313,102.1738 765.3701,102.0448 751.4609,102.6633 740.2426,103.3673 743.4604,-1.8582 742.0107,-47.8513 729.9615,-50.0747 676.6429,-42.9346 667.6399,-79.235 662.4185,-97.0329 665.468,-99.2042 662.3394,-157.7845 656.9088,-190.0163 658.8942,-190.6342 661.8669,-190.6342 664.0444,-193.8689 668.9984,-196.8249 668.9984,-196.8249 664.0444,-193.8689 661.8669,-190.6342 658.8942,-190.6342 656.9088,-190.0163 653.4853,-190.0163 653.4853,-190.0163 656.9088,-190.0163 662.3394,-157.7845 665.468,-99.2042 662.4185,-97.0329 667.6399,-79.235 676.6429,-42.9346 729.9615,-50.0747 742.0107,-47.8513 743.4604,-1.8582 740.2426,103.3673 716.617,105.7121 651.4191,144.2714 617.171,138.9757 602.1333,137.186 594.6849,136.4331 580.7823,135.5264 587.7012,-13.4295 591.706,-15.6351 593.7009,-18.0188 598.0371,-18.0188 599.122,-17.6978 602.5879,-17.6978 604.774,-67.5076 604.0657,-103.7849 608.0139,-104.025 613.5771,-103.9707 619.3126,-104.1072 614.4371,-190.1756 615.2413,-190.4166 619.6433,-190.4166 620.3134,-190.2128 624.8731,-190.2128 625.8834,-191.4517 631.1669,-194.6717 636.73,-194.6717 636.73,-194.6717 631.1669,-194.6717 625.8834,-191.4517 624.8731,-190.2128 620.3134,-190.2128 619.6433,-190.4166 615.2413,-190.4166 614.4371,-190.1756 619.3126,-104.1072 613.5771,-103.9707 608.0139,-104.025 604.0657,-103.7849 604.774,-67.5076 602.5879,-17.6978 599.122,-17.6978 598.0371,-18.0188 593.7009,-18.0188 591.706,-15.6351 587.7012,-13.4295 582.4975,-13.4295 576.8701,-16.6846 575.9202,-17.7609 577.7135,-19.9053 581.892,-22.288 581.892,-22.288 577.7135,-19.9053 575.9202,-17.7609 576.8701,-16.6846 582.4975,-13.4295 587.7012,-13.4295 580.7823,135.5264 579.4333,135.4626 571.7219,135.3744 556.2091,135.7526 556.1386,135.7407 555.0767,135.3118 453.1986,98.3423 420.322,27.1252 414.7766,-17.021 414.5604,-18.4856 401.5041,-86.5556 421.401,-97.4737 446.7159,-110.7976 449.7346,-112.2421 465.8029,-119.5534 468.8495,-120.6505 489.1811,-127.503 491.188,-131.0644 496.7195,-139.502 531.7739,-190.26 560.2847,-247.079 580.0289,-278.1321 582.5103,-281.7249 580.7199,-283.1334 574.4077,-287.7839 565.2852,-294.0432 561.0292,-296.74 554.6254,-300.4644 549.9504,-302.9377 544.3503,-305.608 541.7606,-306.7073 534.0438,-309.5867 530.9785,-310.5704 524.1887,-312.3995 498.0703,-318.0783 493.9105,-319.1984 491.0576,-320.1156 479.689,-324.3742 470.4214,-328.8098 468.0224,-342.3084 466.6044,-361.733 464.7046,-376.6203 464.4176,-380.5914 515.2405,-377.6183 524.8444,-380.695 530.4346,-377.4856 532.7538,-374.18 534.7715,-374.18 535.5623,-373.9469 540.3524,-373.9469 541.6559,-374.3308 541.7153,-374.4206 545.0623,-377.2243 545.0623,-377.2243 541.7153,-374.4206 541.6559,-374.3308 540.3524,-373.9469 535.5623,-373.9469 534.7715,-374.18 532.7538,-374.18 530.4346,-377.4856 524.8444,-380.695 515.2405,-377.6183 464.4176,-380.5914 454.9585,-433.8145 464.9302,-449.9994 487.08,-483.2517 516.8203,-495.4134 528.391,-491.0707 534.3102,-489.1677 549.8038,-485.0105 555.9972,-483.6828 571.7675,-481.1457 578.9201,-480.381 593.7977,-479.1908 596.5646,-483.0131 601.4999,-489.4507 617.4658,-507.905 621.9514,-512.3634 625.6951,-516.4525 632.7662,-522.9576 637.7065,-528.6591 642.7078,-533.3148 648.7406,-538.2969 652.5151,-541.0096 690.5457,-564.3643 690.5554,-563.4102 690.5554,-563.4102 690.5457,-564.3643 702.1624,-574.0743 704.1694,-575.9577 708.9037,-580.9164 710.0032,-561.7039 710.0032,-561.7039 708.9037,-580.9164 709.5261,-581.7142 720.0545,-592.4659 721.4849,-593.7952 727.2644,-599.6178 739.7797,-614.2429 747.6202,-624.6299 759.7557,-642.6766 763.484,-648.506 767.9492,-647.5742 774.5923,-646.6396 789.2581,-645.2375 800.0849,-644.6934 802.4771,-644.5193 811.8582,-644.2632 820.1632,-644.4141 827.0769,-644.2298 819.2631,-524.7547 816.1094,-521.5197 816.1094,-521.5197 819.2631,-524.7547 827.0769,-644.2298 827.6933,-644.2274 839.2801,-643.6633 852.6564,-642.4138 867.8576,-639.9754 870.5117,-639.4317 874.343,-638.561 883.032,-636.3912 894.3042,-560.9477 895.0445,-554.237 895.9918,-540.8336 899.1879,-512.2908 899.4578,-508.455 910.9001,-431.8722 915.8528,-430.3592 918.3553,-429.6571 935.3944,-426.1238 968.6093,-420.8672 979.9844,-418.7855 985.1503,-417.7134 993.6465,-415.7413 998.9084,-414.3916 999.6486,-414.1837 996.7787,-314.4802 996.0635,-305.588 995.9946,-303.2009 995.9998,-302.9664 935.2919,-297.7106 929.9093,-302.079 928.7702,-304.0272 928.7296,-304.0621 925.5168,-304.0621 920.6763,-347.4727 918.7711,-303.8509 918.4872,-303.7647 914.9091,-303.7647 914.615,-303.4216 908.0528,-299.3591 903.494,-299.3591 897.0883,-303.3905 896.7577,-303.7892 891.814,-303.7892 897.8936,-187.9096 886.5503,-207.7294 881.0053,-216.7593 874.4121,-226.7108 876.229,-297.6653 832.4767,-302.2195 831.1694,-304.7022 812.1829,-331.0424 795.7441,-355.9862 789.2595,-368.0694 785.7015,-258.2929 781.4227,-258.2929 781.3088,-258.2594 778.3345,-216.2697 774.84,-254.5402 770.3764,-253.257 764.623,-255.0028 761.1353,-258.1628 764.7,-261.3978 764.7,-261.3978 761.1353,-258.1628 764.623,-255.0028 770.3764,-253.257 774.84,-254.5402 778.3345,-216.2697 781.3088,-258.2594 781.4227,-258.2929 785.7015,-258.2929 789.2595,-368.0694 795.7441,-355.9862 812.1829,-331.0424 831.1694,-304.7022 832.4767,-302.2195 876.229,-297.6653 874.4121,-226.7108 881.0053,-216.7593 886.5503,-207.7294 897.8936,-187.9096 891.814,-303.7892 896.7577,-303.7892 897.0883,-303.3905 903.494,-299.3591 908.0528,-299.3591 914.615,-303.4216 914.9091,-303.7647 918.4872,-303.7647 918.7711,-303.8509 920.6763,-347.4727 925.5168,-304.0621 928.7296,-304.0621 928.7702,-304.0272 929.9093,-302.079 935.2919,-297.7106 995.9998,-302.9664 995.9946,-303.2009 996.0635,-305.588 996.7787,-314.4802 999.6486,-414.1837 1006.3989,-415.8674 1010.6209,-416.7164 1015.7953,-417.6326 1025.4382,-419.1083 1042.5273,-420.8994 1046.4015,-421.1179 1056.0574,-411.289 1059.7286,-407.7394 1070.6605,-397.7198 1070.8409,-361.0014 1074.2095,-300.7589 1074.2095,-300.7589 1070.8409,-361.0014 1070.6605,-397.7198 1072.8257,-395.9602 1081.1566,-388.1609 1084.6062,-385.141 1085.3574,-359.1894 1084.0308,-303.9015 1089.7496,-305.5512 1093.9749,-304.3873 1093.9749,-304.3873 1089.7496,-305.5512 1084.0308,-303.9015 1085.3574,-359.1894 1084.6062,-385.141 1097.9966,-374.9683 1107.4708,-368.904 1120.2555,-362.2335 1120.2555,-362.2335"/>
<polygon fill="#ccebc5" stroke="#ccebc5" points="48.3264,-571.23 37.7366,-568.3221 -114.0682,-581.8029 -117.6617,-574.9877 -94.4968,-533.9102 -51.1624,-453.0504 -24.9013,-438.0407 36.9638,-418.3414 60.6069,-410.3014 71.385,-405.9578 87.3248,-398.8605 106.6508,-388.621 107.6277,-388.0832 123.5129,-378.6627 133.8802,-372.0823 136.5452,-370.3357 144.7934,-364.758 145.1744,-363.9981 147.7384,-346.8944 148.5847,-340.5637 156.9572,-328.1428 181.4398,-306.7457 273.7476,-222.8839 295.2948,-208.4846 308.7191,-182.9863 369.9384,-104.0829 401.5041,-86.5556 421.401,-97.4737 435.9801,-249.4888 424.799,-253.0236 340.5151,-252.3479 342.8063,-254.8779 343.2937,-314.6217 340.5169,-348.9373 344.6651,-354.2011 346.8767,-354.2011 347.1346,-354.1216 350.8239,-354.1216 355.5432,-400.006 356.0347,-416.8302 352.8067,-417.0919 345.6792,-417.3097 344.3138,-417.2827 344.1413,-475.87 350.1848,-479.5797 350.8032,-480.3065 350.5328,-480.6239 343.8983,-484.7866 338.8405,-484.7866 338.8405,-484.7866 343.8983,-484.7866 350.5328,-480.6239 350.8032,-480.3065 350.1848,-479.5797 344.1413,-475.87 344.3138,-417.2827 345.6792,-417.3097 352.8067,-417.0919 356.0347,-416.8302 355.5432,-400.006 350.8239,-354.1216 347.1346,-354.1216 346.8767,-354.2011 344.6651,-354.2011 340.5169,-348.9373 343.2937,-314.6217 342.8063,-254.8779 340.5151,-252.3479 424.799,-253.0236 435.9801,-249.4888 421.401,-97.4737 446.7159,-110.7976 449.7346,-112.2421 465.8029,-119.5534 468.8495,-120.6505 489.1811,-127.503 491.188,-131.0644 496.7195,-139.502 531.7739,-190.26 560.2847,-247.079 580.0289,-278.1321 498.0313,-261.4365 494.8166,-258.002 492.6844,-257.1971 491.5009,-256.2466 487.7336,-256.2466 487.2911,-209.4543 481.3223,-255.8267 477.8631,-255.8267 476.3771,-256.2565 476.2448,-256.2565 472.4933,-253.0337 466.1782,-165.6991 465.7897,-120.6543 455.8217,-256.123 451.4117,-256.123 451.3763,-256.1329 446.8064,-256.1329 445.8533,-256.4049 443.5783,-256.4049 442.3302,-257.2533 439.749,-257.9896 435.4839,-262.0515 351.5157,-263.3977 356.8691,-269.0343 363.7713,-275.3307 362.5178,-354.1346 357.5811,-354.1346 357.3671,-354.0672 357.3671,-354.0672 357.5811,-354.1346 362.5178,-354.1346 363.7713,-275.3307 356.8691,-269.0343 351.5157,-263.3977 435.4839,-262.0515 439.749,-257.9896 442.3302,-257.2533 437.4219,-284.5674 436.2483,-309.6382 408.369,-301.2557 398.4026,-297.5671 386.1642,-291.3565 373.5315,-283.2365 374.0297,-294.3499 373.5461,-349.3566 368.0608,-351.098 364.6447,-354.3306 368.4213,-357.7087 373.0383,-359.0429 373.0383,-359.0429 368.4213,-357.7087 364.6447,-354.3306 368.0608,-351.098 373.5461,-349.3566 374.0297,-294.3499 373.5315,-283.2365 386.1642,-291.3565 398.4026,-297.5671 408.369,-301.2557 436.2483,-309.6382 437.4219,-284.5674 442.3302,-257.2533 443.5783,-256.4049 445.8533,-256.4049 446.8064,-256.1329 451.3763,-256.1329 451.4117,-256.123 455.8217,-256.123 465.7897,-120.6543 466.1782,-165.6991 472.4933,-253.0337 466.9976,-251.392 466.9976,-251.392 472.4933,-253.0337 476.2448,-256.2565 473.04,-258.9121 473.04,-258.9121 476.2448,-256.2565 476.3771,-256.2565 477.8631,-255.8267 481.3223,-255.8267 487.2911,-209.4543 487.7336,-256.2466 491.5009,-256.2466 492.6844,-257.1971 494.8166,-258.002 498.0313,-261.4365 580.0289,-278.1321 582.5103,-281.7249 580.7199,-283.1334 574.4077,-287.7839 565.2852,-294.0432 561.0292,-296.74 554.6254,-300.4644 549.9504,-302.9377 544.3503,-305.608 541.7606,-306.7073 534.0438,-309.5867 530.9785,-310.5704 524.1887,-312.3995 498.0703,-318.0783 493.9105,-319.1984 491.0576,-320.1156 479.689,-324.3742 470.4214,-328.8098 468.0224,-342.3084 466.6044,-361.733 464.7046,-376.6203 464.4176,-380.5914 454.9585,-433.8145 464.9302,-449.9994 487.08,-483.2517 516.8203,-495.4134 518.3107,-567.8718 518.1207,-577.9499 519.086,-593.8513 586.4799,-588.8207 597.3226,-591.6755 602.7183,-588.3962 604.8334,-585.3414 608.2419,-585.3414 600.2172,-708.7352 608.0212,-709.1345 604.2955,-805.7495 599.4642,-832.6816 596.9976,-832.6816 596.9976,-832.6816 599.4642,-832.6816 604.2955,-805.7495 608.0212,-709.1345 600.2172,-708.7352 608.2419,-585.3414 604.8334,-585.3414 602.7183,-588.3962 597.3226,-591.6755 586.4799,-588.8207 519.086,-593.8513 518.1207,-577.9499 518.3107,-567.8718 516.8203,-495.4134 528.391,-491.0707 534.3102,-489.1677 549.8038,-485.0105 555.9972,-483.6828 571.7675,-481.1457 578.9201,-480.381 593.7977,-479.1908 596.5646,-483.0131 601.4999,-489.4507 617.4658,-507.905 621.9514,-512.3634 625.6951,-516.4525 625.645,-544.9135 622.6459,-580.8682 618.1017,-583.413 616.6542,-585.0596 617.8171,-586.4345 623.7097,-589.9415 627.658,-589.9415 627.658,-589.9415 623.7097,-589.9415 617.8171,-586.4345 616.6542,-585.0596 618.1017,-583.413 622.6459,-580.8682 625.645,-544.9135 625.6951,-516.4525 632.7662,-522.9576 637.7065,-528.6591 642.7078,-533.3148 648.7406,-538.2969 652.5151,-541.0096 690.5457,-564.3643 702.1624,-574.0743 704.1694,-575.9577 708.9037,-580.9164 709.5261,-581.7142 720.0545,-592.4659 721.4849,-593.7952 727.2644,-599.6178 739.7797,-614.2429 747.6202,-624.6299 759.7557,-642.6766 763.484,-648.506 704.5354,-702.1856 713.1372,-716.3015 726.0577,-735.2096 735.3283,-747.0762 735.8721,-800.7291 739.4805,-825.3478 732.7628,-825.3478 728.8975,-827.5824 727.1218,-829.8176 727.7519,-830.5896 727.7519,-830.5896 727.1218,-829.8176 728.8975,-827.5824 732.7628,-825.3478 739.4805,-825.3478 743.1539,-827.4469 743.1539,-827.4469 739.4805,-825.3478 735.8721,-800.7291 735.3283,-747.0762 726.0577,-735.2096 713.1372,-716.3015 704.5354,-702.1856 763.484,-648.506 767.9492,-647.5742 774.5923,-646.6396 789.2581,-645.2375 800.0849,-644.6934 802.4771,-644.5193 811.8582,-644.2632 820.1632,-644.4141 827.0769,-644.2298 827.6933,-644.2274 839.2801,-643.6633 852.6564,-642.4138 867.8576,-639.9754 870.5117,-639.4317 874.343,-638.561 883.032,-636.3912 967.8096,-673.9811 986.4603,-682.7449 991.376,-685.1787 1003.2834,-691.9951 1006.4319,-729.7487 1006.7039,-734.2739 1002.0859,-741.741 988.7314,-764.5758 971.8664,-795.3519 943.1351,-852.1369 936.378,-864.5216 930.9705,-866.2474 876.014,-882.2598 869.7641,-884.4235 816.8802,-950.4324 821.9572,-971.1503 823.8112,-979.6874 827.6912,-1003.7197 831.1797,-1022.0515 840.8205,-1066.1266 860.1975,-1145.1987 857.6309,-1147.8922 787.8476,-1169.3469 719.4901,-1175.0114 702.0626,-1177.142 690.6994,-1178.9766 696.2259,-1034.2135 700.824,-1034.2135 700.824,-1034.2135 696.2259,-1034.2135 691.1136,-1031.2039 689.8276,-1029.6426 690.9024,-1028.3251 695.9725,-1025.2579 695.9725,-1025.2579 690.9024,-1028.3251 689.8276,-1029.6426 691.1136,-1031.2039 696.2259,-1034.2135 690.6994,-1178.9766 685.2137,-1179.9691 685.266,-1145.4908 683.9627,-1089.5699 683.9627,-1089.5699 685.266,-1145.4908 685.2137,-1179.9691 647.3555,-1189.0461 642.595,-1189.3793 525.9859,-1123.6478 554.1616,-1037.8828 560.8455,-1013.6082 569.7457,-977.6918 575.0062,-960.4012 566.1135,-951.5112 551.777,-938.4537 541.3013,-929.8799 539.3345,-928.3632 534.5911,-924.923 450.7304,-859.1166 446.9117,-855.7465 445.8969,-854.7993 439.344,-849.0755 443.8342,-843.9352 452.8217,-834.7446 460.9891,-826.8989 462.4702,-825.5711 465.0348,-823.4291 470.4449,-818.0846 540.1405,-754.3937 541.0156,-753.661 548.9694,-745.9526 554.7217,-740.7943 556.8919,-738.5931 564.723,-730.1597 572.4301,-721.3917 575.9102,-717.6617 578.0677,-715.1141 580.7947,-829.4439 575.6347,-827.9656 570.0346,-829.587 566.3209,-832.6819 570.0778,-835.8669 575.4747,-837.4515 575.4747,-837.4515 570.0778,-835.8669 566.3209,-832.6819 570.0346,-829.587 575.6347,-827.9656 580.7947,-829.4439 578.0677,-715.1141 583.2534,-708.6912 519.6678,-651.8467 474.0992,-661.4608 462.6685,-663.4392 454.6895,-664.5123 447.093,-664.9477 437.9399,-665.1195 435.3075,-665.0676 434.8078,-665.1161 432.4653,-665.2535 429.91,-665.3049 420.6155,-665.1341 417.819,-664.9749 412.985,-665.0766 413.1769,-591.5452 418.337,-593.1043 418.337,-593.1043 413.1769,-591.5452 409.6953,-588.3844 413.6006,-584.8271 418.3866,-583.4427 423.7244,-584.9984 427.6874,-588.4608 428.1453,-588.4608 428.7281,-588.288 428.7281,-588.288 428.1453,-588.4608 427.6874,-588.4608 423.7244,-584.9984 418.3866,-583.4427 413.6006,-584.8271 409.6953,-588.3844 413.1769,-591.5452 412.985,-665.0766 412.0289,-665.1339 411.4952,-665.1867 409.432,-665.3112 406.1325,-665.3836 405.2787,-665.4356 393.2721,-665.2432 356.7751,-666.0798 314.8648,-639.6862 298.2622,-628.5209 295.6068,-626.6302 291.3568,-623.4332 289.9496,-622.4377 281.6028,-615.8796 271.7888,-607.3857 261.368,-606.08 258.4,-605.5089 257.2593,-605.2636 144.3734,-688.4683 119.4482,-707.7545 115.1086,-711.7047 102.3843,-722.7846 92.8089,-732.0762 84.1871,-728.2497 79.5103,-726.4588 70.7309,-723.2726 57.5523,-718.7557 40.0942,-713.8344 -55.6339,-688.8145 -76.8516,-659.3362 -114.0682,-581.8029 37.7366,-568.3221 48.3264,-571.23 53.2288,-568.3508 55.5529,-564.8515 55.5529,-564.8515 53.2288,-568.3508 48.3264,-571.23 48.3264,-571.23"/>
<polygon fill="#decbe4" stroke="#decbe4" points="1596.6865,-1164.0254 1596.8632,-1164.0322 1624.7523,-1165.625 1749.4056,-1099.7103 1746.8177,-1015.0117 1746.7767,-1010.9437 1613.0732,-1009.4435 1597.9349,-1005.8989 1597.9349,-1005.8989 1613.0732,-1009.4435 1746.7767,-1010.9437 1749.743,-914.8541 1706.7054,-861.5458 1732.6044,-738.64 1730.5287,-719.8 1726.3191,-628.5255 1682.7997,-579.7725 1673.4407,-575.1686 1585.8844,-562.8111 1584.5424,-670.9955 1584.5424,-670.9955 1585.8844,-562.8111 1584.4403,-562.5548 1565.5656,-558.8577 1561.5156,-557.9913 1552.9331,-555.6868 1549.8341,-715.0737 1554.6173,-717.7593 1556.17,-719.5831 1554.4933,-721.6532 1549.8987,-724.3266 1544.7905,-724.3266 1539.7429,-721.355 1536.8501,-787.3101 1533.7661,-719.6296 1529.6584,-719.6296 1529.6584,-719.6296 1533.7661,-719.6296 1536.8501,-787.3101 1539.7429,-721.355 1544.7905,-724.3266 1549.8987,-724.3266 1554.4933,-721.6532 1556.17,-719.5831 1554.6173,-717.7593 1549.8341,-715.0737 1552.9331,-555.6868 1544.5629,-553.2863 1542.3878,-552.623 1537.9288,-552.7211 1530.2078,-552.7624 1522.8359,-552.6791 1514.9071,-552.3259 1508.6053,-551.8356 1457.1993,-546.9815 1387.8352,-463.7941 1289.1624,-497.3634 1278.8839,-500.2543 1268.299,-502.6076 1253.7206,-504.9884 1250.963,-505.3565 1251.093,-560.1888 1254.165,-600.8125 1247.9412,-604.6579 1247.5023,-605.1774 1248.4174,-606.2961 1249.1858,-665.043 1242.1505,-605.4813 1238.6514,-605.4813 1238.6514,-605.4813 1242.1505,-605.4813 1249.1858,-665.043 1248.4174,-606.2961 1247.5023,-605.1774 1247.9412,-604.6579 1254.165,-600.8125 1251.093,-560.1888 1250.963,-505.3565 1253.7206,-504.9884 1268.299,-502.6076 1278.8839,-500.2543 1289.1624,-497.3634 1387.8352,-463.7941 1384.3053,-413.1071 1384.2717,-411.9881 1380.0303,-395.3731 1358.7649,-304.3865 1263.7438,-257.0489 1234.2124,-287.2591 1229.6982,-401.2522 1225.2393,-405.1918 1221.146,-361.9552 1220.1362,-316.6478 1213.4137,-406.8469 1215.2112,-407.3785 1218.6388,-407.3785 1226.1583,-506.0878 1221.9208,-506.3994 1223.0403,-544.3004 1223.0403,-544.3004 1221.9208,-506.3994 1226.1583,-506.0878 1218.6388,-407.3785 1215.2112,-407.3785 1213.4137,-406.8469 1210.1013,-406.8469 1203.6136,-362.6846 1201.6821,-336.1942 1198.093,-402.6985 1193.1429,-402.6985 1187.281,-406.1951 1186.649,-406.9198 1182.3138,-406.9198 1181.2394,-407.2328 1178.494,-407.2328 1178.494,-407.2328 1181.2394,-407.2328 1182.3138,-406.9198 1186.649,-406.9198 1187.281,-406.1951 1193.1429,-402.6985 1198.093,-402.6985 1201.6821,-336.1942 1203.6136,-362.6846 1210.1013,-406.8469 1213.4137,-406.8469 1220.1362,-316.6478 1221.146,-361.9552 1225.2393,-405.1918 1229.6982,-401.2522 1234.2124,-287.2591 1233.9412,-287.5238 1220.2866,-301.59 1214.7439,-306.4378 1201.1852,-319.9681 1192.3019,-327.2076 1184.4628,-332.6852 1170.6122,-341.5564 1166.8446,-343.5047 1166.2163,-343.7925 1120.2555,-362.2335 1107.4708,-368.904 1097.9966,-374.9683 1084.6062,-385.141 1081.1566,-388.1609 1072.8257,-395.9602 1070.6605,-397.7198 1059.7286,-407.7394 1056.0574,-411.289 1046.4015,-421.1179 1042.5273,-420.8994 1038.9075,-500.0956 1038.9075,-500.0956 1042.5273,-420.8994 1025.4382,-419.1083 1015.7953,-417.6326 1010.6209,-416.7164 1006.3989,-415.8674 999.6486,-414.1837 998.9084,-414.3916 993.6465,-415.7413 985.1503,-417.7134 979.9844,-418.7855 968.6093,-420.8672 935.3944,-426.1238 918.3553,-429.6571 915.8528,-430.3592 910.9001,-431.8722 899.4578,-508.455 899.1879,-512.2908 895.9918,-540.8336 895.0445,-554.237 894.3042,-560.9477 883.032,-636.3912 967.8096,-673.9811 986.4603,-682.7449 991.376,-685.1787 1003.2834,-691.9951 1006.4319,-729.7487 1006.7039,-734.2739 1010.6494,-737.5709 1035.7588,-759.5998 1047.5975,-769.4313 1051.5162,-772.9177 1057.9771,-778.313 1072.3688,-788.0703 1079.9565,-792.804 1079.9568,-792.8041 1089.3284,-797.6448 1090.7935,-798.3224 1100.6622,-801.8718 1108.2877,-804.2151 1114.033,-805.6762 1135.2239,-809.9421 1147.6549,-813.0828 1152.6125,-814.5814 1159.1576,-817.2163 1172.363,-823.8954 1179.1714,-827.6761 1181.5393,-829.1064 1193.3932,-837.474 1194.1772,-838.0659 1196.6941,-786.6497 1201.9519,-747.8067 1201.4984,-747.6766 1201.4984,-747.6766 1201.9519,-747.8067 1196.6941,-786.6497 1194.1772,-838.0659 1201.1594,-844.0701 1210.9338,-851.8928 1209.0924,-780.5934 1209.0924,-780.5934 1210.9338,-851.8928 1248.3523,-885.3353 1316.5007,-940.8943 1302.6912,-984.9583 1288.9824,-1026.6517 1285.9784,-1035.0394 1340.5129,-1090.7479 1509.7632,-1173.3433 1514.818,-1172.1683 1523.068,-1170.3989 1530.0829,-1169.0209 1537.2239,-1167.7474 1554.5747,-1165.281 1554.3148,-1106.1124 1552.5883,-1079.6383 1545.2098,-1012.2853 1541.9453,-1012.2853 1541.4675,-1012.1508 1541.4675,-1012.1508 1541.9453,-1012.2853 1545.2098,-1012.2853 1552.5883,-1079.6383 1554.3148,-1106.1124 1554.5747,-1165.281 1571.007,-1164.1367 1578.5566,-1163.8845 1579.0468,-1104.186 1576.9412,-1012.4511 1572.1399,-1012.4511 1572.1246,-1012.4467 1568.1409,-1012.4467 1566.552,-1014.2474 1562.1462,-1016.6902 1562.1462,-1016.6902 1566.552,-1014.2474 1568.1409,-1012.4467 1566.2517,-1010.2343 1562.1053,-1007.9198 1562.1053,-1007.9198 1566.2517,-1010.2343 1568.1409,-1012.4467 1572.1246,-1012.4467 1572.1399,-1012.4511 1576.9412,-1012.4511 1579.0468,-1104.186 1578.5566,-1163.8845 1591.7344,-1163.9218 1596.6865,-1164.0254 1596.6865,-1164.0254"/>
<polygon fill="#fbb4ae" stroke="#fbb4ae" points="1210.9338,-851.8928 1201.1594,-844.0701 1194.1772,-838.0659 1193.3932,-837.474 1181.5393,-829.1064 1179.1714,-827.6761 1172.363,-823.8954 1159.1576,-817.2163 1152.6125,-814.5814 1147.6549,-813.0828 1135.2239,-809.9421 1114.033,-805.6762 1108.2877,-804.2151 1100.6622,-801.8718 1102.2872,-868.027 1101.0361,-868.4043 1105.0594,-903.278 1105.9398,-979.82 1097.2091,-971.6343 1089.3453,-964.6741 1089.0928,-964.4642 1015.1717,-972.5063 999.7866,-970.577 999.7866,-970.577 1015.1717,-972.5063 1089.0928,-964.4642 1089.3453,-964.6741 1097.2091,-971.6343 1105.9398,-979.82 1105.0594,-903.278 1101.0361,-868.4043 1102.2872,-868.027 1100.6622,-801.8718 1090.7935,-798.3224 1089.3284,-797.6448 1079.9568,-792.8041 1079.9565,-792.804 1074.7693,-863.8392 1069.4097,-866.9962 1068.4432,-868.1102 1069.1675,-868.965 1075.036,-872.569 1080.5979,-872.569 1080.5979,-872.569 1075.036,-872.569 1069.1675,-868.965 1068.4432,-868.1102 1069.4097,-866.9962 1074.7693,-863.8392 1079.9565,-792.804 1072.3688,-788.0703 1057.9771,-778.313 1051.5162,-772.9177 1047.5975,-769.4313 1035.7588,-759.5998 1010.6494,-737.5709 1006.7039,-734.2739 1002.0859,-741.741 988.7314,-764.5758 971.8664,-795.3519 943.1351,-852.1369 936.378,-864.5216 930.9705,-866.2474 876.014,-882.2598 869.7641,-884.4235 816.8802,-950.4324 821.9572,-971.1503 823.8112,-979.6874 914.3981,-979.8114 937.7045,-983.127 943.074,-979.1009 944.5112,-976.7586 944.5112,-976.7586 943.074,-979.1009 937.7045,-983.127 914.3981,-979.8114 823.8112,-979.6874 827.6912,-1003.7197 831.1797,-1022.0515 840.8205,-1066.1266 860.1975,-1145.1987 898.8422,-1140.186 939.4661,-1129.8787 959.4395,-1125.9381 972.9502,-1123.7861 996.5073,-1122.2603 998.4115,-1122.209 1080.9983,-1121.5485 1188.6827,-1066.8875 1207.8909,-1065.4755 1285.9784,-1035.0394 1288.9824,-1026.6517 1302.6912,-984.9583 1316.5007,-940.8943 1248.3523,-885.3353 1210.9338,-851.8928 1210.9338,-851.8928"/>
<polygon fill="#fed9a6" stroke="#fed9a6" points="253.8034,-883.3432 250.1097,-885.4915 220.9066,-903.2538 177.2137,-877.5353 162.6701,-865.2667 118.774,-807.9474 102.6493,-759.0031 98.8997,-748.3494 92.8089,-732.0762 102.3843,-722.7846 115.1086,-711.7047 119.4482,-707.7545 144.3734,-688.4683 257.2593,-605.2636 258.4,-605.5089 261.368,-606.08 271.7888,-607.3857 281.6028,-615.8796 289.9496,-622.4377 291.3568,-623.4332 295.6068,-626.6302 298.2622,-628.5209 314.8648,-639.6862 356.7751,-666.0798 393.2721,-665.2432 405.2787,-665.4356 406.1325,-665.3836 409.432,-665.3112 411.4952,-665.1867 412.0289,-665.1339 412.985,-665.0766 417.819,-664.9749 420.6155,-665.1341 429.91,-665.3049 432.4653,-665.2535 434.8078,-665.1161 435.3075,-665.0676 437.9399,-665.1195 447.093,-664.9477 454.6895,-664.5123 462.6685,-663.4392 474.0992,-661.4608 519.6678,-651.8467 583.2534,-708.6912 578.0677,-715.1141 575.9102,-717.6617 572.4301,-721.3917 564.723,-730.1597 556.8919,-738.5931 554.7217,-740.7943 548.9694,-745.9526 541.0156,-753.661 540.1405,-754.3937 470.4449,-818.0846 465.0348,-823.4291 462.4702,-825.5711 460.9891,-826.8989 452.8217,-834.7446 443.8342,-843.9352 439.344,-849.0755 437.7278,-849.0728 430.4604,-849.254 424.5142,-848.938 424.3896,-848.9413 416.7559,-848.9471 408.7631,-849.3793 402.5824,-849.2309 400.284,-849.1159 399.6254,-849.0657 386.3169,-848.7626 379.7336,-848.2709 372.9751,-847.5908 351.1698,-844.8324 315.3167,-855.9399 296.101,-862.4256 293.8336,-863.2511 274.7977,-871.7408 272.951,-872.7141 253.8034,-883.3432 253.8034,-883.3432"/>
<polygon fill="#b3cde3" stroke="#b3cde3" points="560.8455,-1013.6082 569.7457,-977.6918 575.0062,-960.4012 566.1135,-951.5112 551.777,-938.4537 541.3013,-929.8799 539.3345,-928.3632 534.5911,-924.923 450.7304,-859.1166 446.9117,-855.7465 445.8969,-854.7993 439.344,-849.0755 437.7278,-849.0728 430.4604,-849.254 424.5142,-848.938 424.3896,-848.9413 416.7559,-848.9471 408.7631,-849.3793 402.5824,-849.2309 400.284,-849.1159 399.6254,-849.0657 386.3169,-848.7626 379.7336,-848.2709 372.9751,-847.5908 351.1698,-844.8324 315.3167,-855.9399 296.101,-862.4256 293.8336,-863.2511 274.7977,-871.7408 272.951,-872.7141 253.8034,-883.3432 250.1097,-885.4915 220.9066,-903.2538 223.7779,-916.7161 231.7537,-958.2028 237.3502,-991.1027 257.3589,-1126.921 196.0477,-1144.451 185.2301,-1315.6211 180.922,-1318.2385 178.4465,-1322.2668 179.6254,-1323.1644 180.622,-1324.8396 174.6126,-1411.3435 175.0006,-1322.2668 174.9145,-1322.2411 169.587,-1322.2411 168.3551,-1321.8752 165.8,-1321.8752 165.8,-1321.8752 168.3551,-1321.8752 169.587,-1322.2411 174.9145,-1322.2411 175.0006,-1322.2668 174.6126,-1411.3435 180.622,-1324.8396 179.6254,-1323.1644 178.4465,-1322.2668 180.922,-1318.2385 185.2301,-1315.6211 196.0477,-1144.451 175.9396,-1149.865 155.9611,-1154.2273 138.9451,-1156.7854 124.4472,-1158.2263 112.9644,-1158.9774 107.3847,-1159.2473 11.9079,-1160.6252 -64.8538,-1291.9757 -68.6168,-1301.5117 -68.6493,-1302.7511 -71.4911,-1349.2977 -60.5174,-1359.2571 37.559,-1451.5858 96.1615,-1481.4376 121.8558,-1495.0935 127.5852,-1498.4989 127.9125,-1498.3862 136.6162,-1495.6904 147.4853,-1492.5121 167.2531,-1487.7593 172.0605,-1486.7717 193.1727,-1483.5304 225.7632,-1479.0969 346.6139,-1376.3084 359.5023,-1322.1 360.4581,-1318.8479 353.9847,-1178.3099 360.6521,-1175.1224 380.7946,-1165.7917 387.7039,-1162.6973 398.3165,-1158.108 415.3015,-1151.8065 428.9317,-1147.3766 428.986,-981.8802 425.0697,-956.398 423.0818,-956.398 421.1254,-954.2499 416.9926,-952.0189 416.9926,-952.0189 421.1254,-954.2499 423.0818,-956.398 425.0697,-956.398 428.986,-981.8802 428.9317,-1147.3766 442.1132,-1143.4976 444.3623,-1142.9052 462.1122,-1138.5011 525.9859,-1123.6478 554.1616,-1037.8828 560.8455,-1013.6082 560.8455,-1013.6082"/>
<polyline fill="none" stroke="#000000" points="747.6202,-624.6299 759.7557,-642.6766 763.484,-648.506 767.9492,-647.5742 774.5923,-646.6396 789.2581,-645.2375 800.0849,-644.6934 802.4771,-644.5193 811.8582,-644.2632 820.1632,-644.4141 827.0769,-644.2298 827.6933,-644.2274 839.2801,-643.6633 852.6564,-642.4138 867.8576,-639.9754 870.5117,-639.4317 874.343,-638.561 883.032,-636.3912 894.3042,-560.9477 895.0445,-554.237 895.9918,-540.8336 899.1879,-512.2908 899.4578,-508.455 910.9001,-431.8722 915.8528,-430.3592 918.3553,-429.6571 935.3944,-426.1238 968.6093,-420.8672 979.9844,-418.7855 985.1503,-417.7134 993.6465,-415.7413 998.9084,-414.3916 999.6486,-414.1837 1006.3989,-415.8674 1010.6209,-416.7164 1015.7953,-417.6326 1025.4382,-419.1083 1042.5273,-420.8994 1046.4015,-421.1179 1056.0574,-411.289 1059.7286,-407.7394 1070.6605,-397.7198 1072.8257,-395.9602 1081.1566,-388.1609 1084.6062,-385.141 1097.9966,-374.9683 1107.4708,-368.904 1120.2555,-362.2335 1166.2163,-343.7925 1166.8446,-343.5047 1170.6122,-341.5564 1184.4628,-332.6852 1192.3019,-327.2076 1201.1852,-319.9681 1214.7439,-306.4378 1220.2866,-301.59 1233.9412,-287.5238 1234.2124,-287.2591 1263.7438,-257.0489 1202.3779,-157.5917 1199.9917,-155.766 1182.2037,-84.4434 1172.1788,-34.7807 1156.0367,4.5846 1089.1709,37.9874 1045.3445,43.995 1035.267,45.7696 1016.7696,49.7501 1010.2131,51.5428 1004.8621,51.3956 979.1453,52.0863 952.7949,53.2702 899.1395,90.456 848.7623,112.364 829.1103,108.2078 821.2041,106.68 806.6512,104.6633 795.5179,103.3242 793.4656,103.1151 782.4503,102.3956 777.7313,102.1738 765.3701,102.0448 751.4609,102.6633 740.2426,103.3673 716.617,105.7121 651.4191,144.2714 617.171,138.9757 602.1333,137.186 594.6849,136.4331 580.7823,135.5264 579.4333,135.4626 571.7219,135.3744 556.2091,135.7526 556.1386,135.7407 555.0767,135.3118 453.1986,98.3423 420.322,27.1252 414.7766,-17.021 414.5604,-18.4856 401.5041,-86.5556 421.401,-97.4737 446.7159,-110.7976 449.7346,-112.2421 465.8029,-119.5534 468.8495,-120.6505 489.1811,-127.503 491.188,-131.0644 496.7195,-139.502 531.7739,-190.26 560.2847,-247.079 580.0289,-278.1321 582.5103,-281.7249 580.7199,-283.1334 574.4077,-287.7839 565.2852,-294.0432 561.0292,-296.74 554.6254,-300.4644 549.9504,-302.9377 544.3503,-305.608 541.7606,-306.7073 534.0438,-309.5867 530.9785,-310.5704 524.1887,-312.3995 498.0703,-318.0783 493.9105,-319.1984 491.0576,-320.1156 479.689,-324.3742 470.4214,-328.8098 468.0224,-342.3084 466.6044,-361.733 464.7046,-376.6203 464.4176,-380.5914 454.9585,-433.8145 464.9302,-449.9994 487.08,-483.2517 516.8203,-495.4134 528.391,-491.0707 534.3102,-489.1677 549.8038,-485.0105 555.9972,-483.6828 571.7675,-481.1457 578.9201,-480.381 593.7977,-479.1908 596.5646,-483.0131 601.4999,-489.4507 617.4658,-507.905 621.9514,-512.3634 625.6951,-516.4525 632.7662,-522.9576 637.7065,-528.6591 642.7078,-533.3148 648.7406,-538.2969 652.5151,-541.0096 690.5457,-564.3643 702.1624,-574.0743 704.1694,-575.9577 708.9037,-580.9164 709.5261,-581.7142 720.0545,-592.4659 721.4849,-593.7952 727.2644,-599.6178 739.7797,-614.2429 747.6202,-624.6299 "/>
<polyline fill="none" stroke="#000000" points="839.2801,-643.6633 827.6933,-644.2274 827.0769,-644.2298 820.1632,-644.4141 811.8582,-644.2632 802.4771,-644.5193 800.0849,-644.6934 789.2581,-645.2375 774.5923,-646.6396 767.9492,-647.5742 763.484,-648.506 759.7557,-642.6766 747.6202,-624.6299 739.7797,-614.2429 727.2644,-599.6178 721.4849,-593.7952 720.0545,-592.4659 709.5261,-581.7142 708.9037,-580.9164 704.1694,-575.9577 702.1624,-574.0743 690.5457,-564.3643 652.5151,-541.0096 648.7406,-538.2969 642.7078,-533.3148 637.7065,-528.6591 632.7662,-522.9576 625.6951,-516.4525 621.9514,-512.3634 617.4658,-507.905 601.4999,-489.4507 596.5646,-483.0131 593.7977,-479.1908 578.9201,-480.381 571.7675,-481.1457 555.9972,-483.6828 549.8038,-485.0105 534.3102,-489.1677 528.391,-491.0707 516.8203,-495.4134 487.08,-483.2517 464.9302,-449.9994 454.9585,-433.8145 464.4176,-380.5914 464.7046,-376.6203 466.6044,-361.733 468.0224,-342.3084 470.4214,-328.8098 479.689,-324.3742 491.0576,-320.1156 493.9105,-319.1984 498.0703,-318.0783 524.1887,-312.3995 530.9785,-310.5704 534.0438,-309.5867 541.7606,-306.7073 544.3503,-305.608 549.9504,-302.9377 554.6254,-300.4644 561.0292,-296.74 565.2852,-294.0432 574.4077,-287.7839 580.7199,-283.1334 582.5103,-281.7249 580.0289,-278.1321 560.2847,-247.079 531.7739,-190.26 496.7195,-139.502 491.188,-131.0644 489.1811,-127.503 468.8495,-120.6505 465.8029,-119.5534 449.7346,-112.2421 446.7159,-110.7976 421.401,-97.4737 401.5041,-86.5556 369.9384,-104.0829 308.7191,-182.9863 295.2948,-208.4846 273.7476,-222.8839 181.4398,-306.7457 156.9572,-328.1428 148.5847,-340.5637 147.7384,-346.8944 145.1744,-363.9981 144.7934,-364.758 136.5452,-370.3357 133.8802,-372.0823 123.5129,-378.6627 107.6277,-388.0832 106.6508,-388.621 87.3248,-398.8605 71.385,-405.9578 60.6069,-410.3014 36.9638,-418.3414 -24.9013,-438.0407 -51.1624,-453.0504 -94.4968,-533.9102 -117.6617,-574.9877 -114.0682,-581.8029 -76.8516,-659.3362 -55.6339,-688.8145 40.0942,-713.8344 57.5523,-718.7557 70.7309,-723.2726 79.5103,-726.4588 84.1871,-728.2497 92.8089,-732.0762 102.3843,-722.7846 115.1086,-711.7047 119.4482,-707.7545 144.3734,-688.4683 257.2593,-605.2636 258.4,-605.5089 261.368,-606.08 271.7888,-607.3857 281.6028,-615.8796 289.9496,-622.4377 291.3568,-623.4332 295.6068,-626.6302 298.2622,-628.5209 314.8648,-639.6862 356.7751,-666.0798 393.2721,-665.2432 405.2787,-665.4356 406.1325,-665.3836 409.432,-665.3112 411.4952,-665.1867 412.0289,-665.1339 412.985,-665.0766 417.819,-664.9749 420.6155,-665.1341 429.91,-665.3049 432.4653,-665.2535 434.8078,-665.1161 435.3075,-665.0676 437.9399,-665.1195 447.093,-664.9477 454.6895,-664.5123 462.6685,-663.4392 474.0992,-661.4608 519.6678,-651.8467 583.2534,-708.6912 578.0677,-715.1141 575.9102,-717.6617 572.4301,-721.3917 564.723,-730.1597 556.8919,-738.5931 554.7217,-740.7943 548.9694,-745.9526 541.0156,-753.661 540.1405,-754.3937 470.4449,-818.0846 465.0348,-823.4291 462.4702,-825.5711 460.9891,-826.8989 452.8217,-834.7446 443.8342,-843.9352 439.344,-849.0755 445.8969,-854.7993 446.9117,-855.7465 450.7304,-859.1166 534.5911,-924.923 539.3345,-928.3632 541.3013,-929.8799 551.777,-938.4537 566.1135,-951.5112 575.0062,-960.4012 569.7457,-977.6918 560.8455,-1013.6082 554.1616,-1037.8828 525.9859,-1123.6478 642.595,-1189.3793 647.3555,-1189.0461 685.2137,-1179.9691 690.6994,-1178.9766 702.0626,-1177.142 719.4901,-1175.0114 787.8476,-1169.3469 857.6309,-1147.8922 860.1975,-1145.1987 840.8205,-1066.1266 831.1797,-1022.0515 827.6912,-1003.7197 823.8112,-979.6874 821.9572,-971.1503 816.8802,-950.4324 869.7641,-884.4235 876.014,-882.2598 930.9705,-866.2474 936.378,-864.5216 943.1351,-852.1369 971.8664,-795.3519 988.7314,-764.5758 1002.0859,-741.741 1006.7039,-734.2739 1006.4319,-729.7487 1003.2834,-691.9951 991.376,-685.1787 986.4603,-682.7449 967.8096,-673.9811 883.032,-636.3912 874.343,-638.561 870.5117,-639.4317 867.8576,-639.9754 852.6564,-642.4138 839.2801,-643.6633 "/>
<polyline fill="none" stroke="#000000" points="991.376,-685.1787 986.4603,-682.7449 967.8096,-673.9811 883.032,-636.3912 894.3042,-560.9477 895.0445,-554.237 895.9918,-540.8336 899.1879,-512.2908 899.4578,-508.455 910.9001,-431.8722 915.8528,-430.3592 918.3553,-429.6571 935.3944,-426.1238 968.6093,-420.8672 979.9844,-418.7855 985.1503,-417.7134 993.6465,-415.7413 998.9084,-414.3916 999.6486,-414.1837 1006.3989,-415.8674 1010.6209,-416.7164 1015.7953,-417.6326 1025.4382,-419.1083 1042.5273,-420.8994 1046.4015,-421.1179 1056.0574,-411.289 1059.7286,-407.7394 1070.6605,-397.7198 1072.8257,-395.9602 1081.1566,-388.1609 1084.6062,-385.141 1097.9966,-374.9683 1107.4708,-368.904 1120.2555,-362.2335 1166.2163,-343.7925 1166.8446,-343.5047 1170.6122,-341.5564 1184.4628,-332.6852 1192.3019,-327.2076 1201.1852,-319.9681 1214.7439,-306.4378 1220.2866,-301.59 1233.9412,-287.5238 1234.2124,-287.2591 1263.7438,-257.0489 1358.7649,-304.3865 1380.0303,-395.3731 1384.2717,-411.9881 1384.3053,-413.1071 1387.8352,-463.7941 1457.1993,-546.9815 1508.6053,-551.8356 1514.9071,-552.3259 1522.8359,-552.6791 1530.2078,-552.7624 1537.9288,-552.7211 1542.3878,-552.623 1544.5629,-553.2863 1552.9331,-555.6868 1561.5156,-557.9913 1565.5656,-558.8577 1584.4403,-562.5548 1585.8844,-562.8111 1673.4407,-575.1686 1682.7997,-579.7725 1726.3191,-628.5255 1730.5287,-719.8 1732.6044,-738.64 1706.7054,-861.5458 1749.743,-914.8541 1746.7767,-1010.9437 1746.8177,-1015.0117 1749.4056,-1099.7103 1624.7523,-1165.625 1596.8632,-1164.0322 1596.6865,-1164.0254 1591.7344,-1163.9218 1578.5566,-1163.8845 1571.007,-1164.1367 1554.5747,-1165.281 1537.2239,-1167.7474 1530.0829,-1169.0209 1523.068,-1170.3989 1514.818,-1172.1683 1509.7632,-1173.3433 1340.5129,-1090.7479 1285.9784,-1035.0394 1288.9824,-1026.6517 1302.6912,-984.9583 1316.5007,-940.8943 1248.3523,-885.3353 1210.9338,-851.8928 1201.1594,-844.0701 1194.1772,-838.0659 1193.3932,-837.474 1181.5393,-829.1064 1179.1714,-827.6761 1172.363,-823.8954 1159.1576,-817.2163 1152.6125,-814.5814 1147.6549,-813.0828 1135.2239,-809.9421 1114.033,-805.6762 1108.2877,-804.2151 1100.6622,-801.8718 1090.7935,-798.3224 1089.3284,-797.6448 1079.9568,-792.8041 1079.9565,-792.804 1072.3688,-788.0703 1057.9771,-778.313 1051.5162,-772.9177 1047.5975,-769.4313 1035.7588,-759.5998 1010.6494,-737.5709 1006.7039,-734.2739 1006.4319,-729.7487 1003.2834,-691.9951 991.376,-685.1787 "/>
<polyline fill="none" stroke="#000000" points="972.9502,-1123.7861 996.5073,-1122.2603 998.4115,-1122.209 1080.9983,-1121.5485 1188.6827,-1066.8875 1207.8909,-1065.4755 1285.9784,-1035.0394 1288.9824,-1026.6517 1302.6912,-984.9583 1316.5007,-940.8943 1248.3523,-885.3353 1210.9338,-851.8928 1201.1594,-844.0701 1194.1772,-838.0659 1193.3932,-837.474 1181.5393,-829.1064 1179.1714,-827.6761 1172.363,-823.8954 1159.1576,-817.2163 1152.6125,-814.5814 1147.6549,-813.0828 1135.2239,-809.9421 1114.033,-805.6762 1108.2877,-804.2151 1100.6622,-801.8718 1090.7935,-798.3224 1089.3284,-797.6448 1079.9568,-792.8041 1079.9565,-792.804 1072.3688,-788.0703 1057.9771,-778.313 1051.5162,-772.9177 1047.5975,-769.4313 1035.7588,-759.5998 1010.6494,-737.5709 1006.7039,-734.2739 1002.0859,-741.741 988.7314,-764.5758 971.8664,-795.3519 943.1351,-852.1369 936.378,-864.5216 930.9705,-866.2474 876.014,-882.2598 869.7641,-884.4235 816.8802,-950.4324 821.9572,-971.1503 823.8112,-979.6874 827.6912,-1003.7197 831.1797,-1022.0515 840.8205,-1066.1266 860.1975,-1145.1987 898.8422,-1140.186 939.4661,-1129.8787 959.4395,-1125.9381 972.9502,-1123.7861 "/>
<polyline fill="none" stroke="#000000" points="430.4604,-849.254 424.5142,-848.938 424.3896,-848.9413 416.7559,-848.9471 408.7631,-849.3793 402.5824,-849.2309 400.284,-849.1159 399.6254,-849.0657 386.3169,-848.7626 379.7336,-848.2709 372.9751,-847.5908 351.1698,-844.8324 315.3167,-855.9399 296.101,-862.4256 293.8336,-863.2511 274.7977,-871.7408 272.951,-872.7141 253.8034,-883.3432 250.1097,-885.4915 220.9066,-903.2538 177.2137,-877.5353 162.6701,-865.2667 118.774,-807.9474 102.6493,-759.0031 98.8997,-748.3494 92.8089,-732.0762 102.3843,-722.7846 115.1086,-711.7047 119.4482,-707.7545 144.3734,-688.4683 257.2593,-605.2636 258.4,-605.5089 261.368,-606.08 271.7888,-607.3857 281.6028,-615.8796 289.9496,-622.4377 291.3568,-623.4332 295.6068,-626.6302 298.2622,-628.5209 314.8648,-639.6862 356.7751,-666.0798 393.2721,-665.2432 405.2787,-665.4356 406.1325,-665.3836 409.432,-665.3112 411.4952,-665.1867 412.0289,-665.1339 412.985,-665.0766 417.819,-664.9749 420.6155,-665.1341 429.91,-665.3049 432.4653,-665.2535 434.8078,-665.1161 435.3075,-665.0676 437.9399,-665.1195 447.093,-664.9477 454.6895,-664.5123 462.6685,-663.4392 474.0992,-661.4608 519.6678,-651.8467 583.2534,-708.6912 578.0677,-715.1141 575.9102,-717.6617 572.4301,-721.3917 564.723,-730.1597 556.8919,-738.5931 554.7217,-740.7943 548.9694,-745.9526 541.0156,-753.661 540.1405,-754.3937 470.4449,-818.0846 465.0348,-823.4291 462.4702,-825.5711 460.9891,-826.8989 452.8217,-834.7446 443.8342,-843.9352 439.344,-849.0755 437.7278,-849.0728 430.4604,-849.254 "/>
<polyline fill="none" stroke="#000000" points="136.6162,-1495.6904 147.4853,-1492.5121 167.2531,-1487.7593 172.0605,-1486.7717 193.1727,-1483.5304 225.7632,-1479.0969 346.6139,-1376.3084 359.5023,-1322.1 360.4581,-1318.8479 353.9847,-1178.3099 360.6521,-1175.1224 380.7946,-1165.7917 387.7039,-1162.6973 398.3165,-1158.108 415.3015,-1151.8065 428.9317,-1147.3766 442.1132,-1143.4976 444.3623,-1142.9052 462.1122,-1138.5011 525.9859,-1123.6478 554.1616,-1037.8828 560.8455,-1013.6082 569.7457,-977.6918 575.0062,-960.4012 566.1135,-951.5112 551.777,-938.4537 541.3013,-929.8799 539.3345,-928.3632 534.5911,-924.923 450.7304,-859.1166 446.9117,-855.7465 445.8969,-854.7993 439.344,-849.0755 437.7278,-849.0728 430.4604,-849.254 424.5142,-848.938 424.3896,-848.9413 416.7559,-848.9471 408.7631,-849.3793 402.5824,-849.2309 400.284,-849.1159 399.6254,-849.0657 386.3169,-848.7626 379.7336,-848.2709 372.9751,-847.5908 351.1698,-844.8324 315.3167,-855.9399 296.101,-862.4256 293.8336,-863.2511 274.7977,-871.7408 272.951,-872.7141 253.8034,-883.3432 250.1097,-885.4915 220.9066,-903.2538 223.7779,-916.7161 231.7537,-958.2028 237.3502,-991.1027 257.3589,-1126.921 196.0477,-1144.451 175.9396,-1149.865 155.9611,-1154.2273 138.9451,-1156.7854 124.4472,-1158.2263 112.9644,-1158.9774 107.3847,-1159.2473 11.9079,-1160.6252 -64.8538,-1291.9757 -68.6168,-1301.5117 -68.6493,-1302.7511 -71.4911,-1349.2977 -60.5174,-1359.2571 37.559,-1451.5858 96.1615,-1481.4376 121.8558,-1495.0935 127.5852,-1498.4989 127.9125,-1498.3862 136.6162,-1495.6904 "/>
<!-- device&#45;mapper&#45;libs&#45;&gt;Fedora Container Base -->
<g id="edge1" class="edge">
<title>device&#45;mapper&#45;libs&#45;&gt;Fedora Container Base</title>
<path fill="none" stroke="#444444" stroke-opacity="0.333333" d="M783.925,-72.4697C779.131,-143.8442 761.621,-404.5373 755.7977,-491.2363"/>
<polygon fill="#444444" fill-opacity="0.333333" stroke="#444444" stroke-opacity="0.333333" points="752.2947,-491.1653 755.1166,-501.3774 759.279,-491.6345 752.2947,-491.1653"/>
</g>
<!-- device&#45;mapper&#45;libs&#45;&gt;device&#45;mapper -->
<g id="edge2" class="edge">
<title>device&#45;mapper&#45;libs&#45;&gt;device&#45;mapper</title>
<path fill="none" stroke="#444444" stroke-opacity="0.333333" d="M779.7098,-72.3866C773.7705,-107.9517 767.6446,-187.0291 767.2732,-229.646"/>
<polygon fill="#444444" fill-opacity="0.333333" stroke="#444444" stroke-opacity="0.333333" points="763.774,-229.9067 767.3109,-239.8937 770.774,-229.8808 763.774,-229.9067"/>
</g>
<!-- device&#45;mapper&#45;&gt;Fedora Container Base -->
<g id="edge33" class="edge">
<title>device&#45;mapper&#45;&gt;Fedora Container Base</title>
<path fill="none" stroke="#444444" stroke-opacity="0.333333" d="M768.8679,-276.5455C766.0956,-321.5423 758.9522,-437.4879 755.6374,-491.2902"/>
<polygon fill="#444444" fill-opacity="0.333333" stroke="#444444" stroke-opacity="0.333333" points="752.1311,-491.2854 755.0095,-501.4817 759.1179,-491.7159 752.1311,-491.2854"/>
</g>
<!-- device&#45;mapper&#45;&gt;device&#45;mapper&#45;libs -->
<g id="edge34" class="edge">
<title>device&#45;mapper&#45;&gt;device&#45;mapper&#45;libs</title>
<path fill="none" stroke="#444444" stroke-opacity="0.333333" d="M775.4402,-240.0144C781.3795,-204.4493 787.5054,-125.3719 787.8768,-82.755"/>
<polygon fill="#444444" fill-opacity="0.333333" stroke="#444444" stroke-opacity="0.333333" points="791.376,-82.4943 787.8391,-72.5073 784.376,-82.5202 791.376,-82.4943"/>
</g>
<!-- device&#45;mapper&#45;&gt;systemd -->
<g id="edge35" class="edge">
<title>device&#45;mapper&#45;&gt;systemd</title>
<path fill="none" stroke="#444444" stroke-opacity="0.333333" d="M762.0302,-276.22C738.0712,-330.4823 666.5793,-492.3973 637.7961,-557.5857"/>
<polygon fill="#444444" fill-opacity="0.333333" stroke="#444444" stroke-opacity="0.333333" points="634.5506,-556.2709 633.7132,-566.8326 640.9542,-559.0984 634.5506,-556.2709"/>
</g>
<!-- device&#45;mapper&#45;&gt;util&#45;linux -->
<g id="edge36" class="edge">
<title>device&#45;mapper&#45;&gt;util&#45;linux</title>
<path fill="none" stroke="#444444" stroke-opacity="0.333333" d="M823.6401,-276.2516C829.7668,-278.3168 836.0553,-280.4367 842.2937,-282.5396"/>
<polygon fill="#444444" fill-opacity="0.333333" stroke="#444444" stroke-opacity="0.333333" points="841.4309,-285.9422 852.025,-285.8199 843.667,-279.3089 841.4309,-285.9422"/>
</g>
<!-- libargon2&#45;&gt;Fedora Container Base -->
<g id="edge3" class="edge">
<title>libargon2&#45;&gt;Fedora Container Base</title>
<path fill="none" stroke="#444444" stroke-opacity="0.333333" d="M591.0146,-36.1446C616.4278,-111.5556 713.8045,-400.5108 744.5443,-491.728"/>
<polygon fill="#444444" fill-opacity="0.333333" stroke="#444444" stroke-opacity="0.333333" points="741.2833,-493.0112 747.7936,-501.3698 747.9167,-490.7757 741.2833,-493.0112"/>
</g>
<!-- dbus&#45;broker&#45;&gt;Fedora Container Base -->
<g id="edge4" class="edge">
<title>dbus&#45;broker&#45;&gt;Fedora Container Base</title>
<path fill="none" stroke="#444444" stroke-opacity="0.333333" d="M837.1616,-750.8846C821.5427,-707.4774 782.2769,-598.3528 763.8015,-547.0076"/>
<polygon fill="#444444" fill-opacity="0.333333" stroke="#444444" stroke-opacity="0.333333" points="767.0759,-545.7699 760.3968,-537.5455 760.4894,-548.14 767.0759,-545.7699"/>
</g>
<!-- dbus&#45;broker&#45;&gt;dbus&#45;common -->
<g id="edge5" class="edge">
<title>dbus&#45;broker&#45;&gt;dbus&#45;common</title>
<path fill="none" stroke="#444444" stroke-opacity="0.333333" d="M811.4564,-787.387C800.7005,-793.4241 788.5721,-800.2315 777.2384,-806.5929"/>
<polygon fill="#444444" fill-opacity="0.333333" stroke="#444444" stroke-opacity="0.333333" points="775.3679,-803.6291 768.3607,-811.5758 778.7942,-809.7333 775.3679,-803.6291"/>
</g>
<!-- dbus&#45;broker&#45;&gt;shadow&#45;utils -->
<g id="edge6" class="edge">
<title>dbus&#45;broker&#45;&gt;shadow&#45;utils</title>
<path fill="none" stroke="#444444" stroke-opacity="0.333333" d="M856.916,-751.0373C885.8296,-710.9799 955.0444,-615.0885 988.7323,-568.4167"/>
<polygon fill="#444444" fill-opacity="0.333333" stroke="#444444" stroke-opacity="0.333333" points="991.5766,-570.4563 994.5914,-560.2994 985.9007,-566.3594 991.5766,-570.4563"/>
</g>
<!-- dbus&#45;broker&#45;&gt;systemd -->
<g id="edge7" class="edge">
<title>dbus&#45;broker&#45;&gt;systemd</title>
<path fill="none" stroke="#444444" stroke-opacity="0.333333" d="M822.0524,-750.9327C782.6822,-717.7266 699.496,-647.5647 655.0489,-610.0766"/>
<polygon fill="#444444" fill-opacity="0.333333" stroke="#444444" stroke-opacity="0.333333" points="657.1205,-607.2451 647.2198,-603.4732 652.6073,-612.596 657.1205,-607.2451"/>
</g>
<!-- dbus&#45;common&#45;&gt;Fedora Container Base -->
<g id="edge8" class="edge">
<title>dbus&#45;common&#45;&gt;Fedora Container Base</title>
<path fill="none" stroke="#444444" stroke-opacity="0.333333" d="M737.1057,-811.681C740.0785,-759.9592 748.6561,-610.7243 752.267,-547.9005"/>
<polygon fill="#444444" fill-opacity="0.333333" stroke="#444444" stroke-opacity="0.333333" points="755.7818,-547.7432 752.8615,-537.5588 748.7933,-547.3414 755.7818,-547.7432"/>
</g>
<!-- dbus&#45;common&#45;&gt;dbus&#45;common -->
<g id="edge9" class="edge">
<title>dbus&#45;common&#45;&gt;dbus&#45;common</title>
<path fill="none" stroke="#444444" stroke-opacity="0.333333" d="M813.6355,-835.7233C824.385,-834.7312 831.57,-832.7234 831.57,-829.7 831.57,-827.7631 828.6213,-826.2431 823.6757,-825.1398"/>
<polygon fill="#444444" fill-opacity="0.333333" stroke="#444444" stroke-opacity="0.333333" points="824.0357,-821.6554 813.6355,-823.6767 823.0262,-828.5823 824.0357,-821.6554"/>
</g>
<!-- dbus&#45;common&#45;&gt;systemd -->
<g id="edge10" class="edge">
<title>dbus&#45;common&#45;&gt;systemd</title>
<path fill="none" stroke="#444444" stroke-opacity="0.333333" d="M727.766,-811.325C708.5242,-768.7468 660.7971,-663.1362 638.0419,-612.7835"/>
<polygon fill="#444444" fill-opacity="0.333333" stroke="#444444" stroke-opacity="0.333333" points="641.1473,-611.156 633.8396,-603.4847 634.7684,-614.0388 641.1473,-611.156"/>
</g>
<!-- shadow&#45;utils&#45;&gt;Fedora Container Base -->
<g id="edge11" class="edge">
<title>shadow&#45;utils&#45;&gt;Fedora Container Base</title>
<path fill="none" stroke="#444444" stroke-opacity="0.333333" d="M937.0747,-535.7297C918.5383,-534.0863 897.9977,-532.2653 877.5704,-530.4542"/>
<polygon fill="#444444" fill-opacity="0.333333" stroke="#444444" stroke-opacity="0.333333" points="877.8309,-526.9637 867.5609,-529.5668 877.2127,-533.9363 877.8309,-526.9637"/>
</g>
<!-- shadow&#45;utils&#45;&gt;shadow&#45;utils -->
<g id="edge12" class="edge">
<title>shadow&#45;utils&#45;&gt;shadow&#45;utils</title>
<path fill="none" stroke="#444444" stroke-opacity="0.333333" d="M1078.6256,-548.1234C1089.169,-547.17 1096.3,-545.1289 1096.3,-542 1096.3,-540.0444 1093.5144,-538.5138 1088.8512,-537.408"/>
<polygon fill="#444444" fill-opacity="0.333333" stroke="#444444" stroke-opacity="0.333333" points="1089.0338,-533.8964 1078.6256,-535.8766 1087.9969,-540.8192 1089.0338,-533.8964"/>
</g>
<!-- shadow&#45;utils&#45;&gt;libsemanage -->
<g id="edge13" class="edge">
<title>shadow&#45;utils&#45;&gt;libsemanage</title>
<path fill="none" stroke="#444444" stroke-opacity="0.333333" d="M1033.141,-523.8122C1066.4341,-499.917 1125.0018,-457.8817 1162.0022,-431.3256"/>
<polygon fill="#444444" fill-opacity="0.333333" stroke="#444444" stroke-opacity="0.333333" points="1164.3778,-433.9289 1170.4611,-425.2545 1160.2962,-428.242 1164.3778,-433.9289"/>
</g>
<!-- systemd&#45;&gt;Fedora Container Base -->
<g id="edge14" class="edge">
<title>systemd&#45;&gt;Fedora Container Base</title>
<path fill="none" stroke="#444444" stroke-opacity="0.333333" d="M660.9909,-567.0922C676.2449,-559.2768 694.2333,-550.0604 710.299,-541.8291"/>
<polygon fill="#444444" fill-opacity="0.333333" stroke="#444444" stroke-opacity="0.333333" points="712.1969,-544.7894 719.5008,-537.1145 709.0049,-538.5595 712.1969,-544.7894"/>
</g>
<!-- systemd&#45;&gt;shadow&#45;utils -->
<g id="edge15" class="edge">
<title>systemd&#45;&gt;shadow&#45;utils</title>
<path fill="none" stroke="#444444" stroke-opacity="0.333333" d="M687.4234,-578.2363C752.5677,-570.8681 855.4399,-559.2327 926.9734,-551.1419"/>
<polygon fill="#444444" fill-opacity="0.333333" stroke="#444444" stroke-opacity="0.333333" points="927.7486,-554.5766 937.2919,-549.9748 926.9618,-547.621 927.7486,-554.5766"/>
</g>
<!-- systemd&#45;&gt;systemd -->
<g id="edge16" class="edge">
<title>systemd&#45;&gt;systemd</title>
<path fill="none" stroke="#444444" stroke-opacity="0.333333" d="M687.2567,-591.5313C697.7913,-590.6703 705.09,-588.5698 705.09,-585.23 705.09,-583.0904 702.0946,-581.4595 697.172,-580.3372"/>
<polygon fill="#444444" fill-opacity="0.333333" stroke="#444444" stroke-opacity="0.333333" points="697.6496,-576.87 687.2567,-578.9287 696.6651,-583.8004 697.6496,-576.87"/>
</g>
<!-- systemd&#45;&gt;util&#45;linux -->
<g id="edge17" class="edge">
<title>systemd&#45;&gt;util&#45;linux</title>
<path fill="none" stroke="#444444" stroke-opacity="0.333333" d="M643.5395,-567.2049C691.7485,-518.7928 824.1782,-385.8052 880.1794,-329.5682"/>
<polygon fill="#444444" fill-opacity="0.333333" stroke="#444444" stroke-opacity="0.333333" points="882.9813,-331.7147 887.5574,-322.1591 878.0211,-326.7754 882.9813,-331.7147"/>
</g>
<!-- systemd&#45;&gt;iptables&#45;libs -->
<g id="edge18" class="edge">
<title>systemd&#45;&gt;iptables&#45;libs</title>
<path fill="none" stroke="#444444" stroke-opacity="0.333333" d="M603.2722,-603.518C568.8603,-631.7164 502.7995,-685.849 464.2604,-717.4293"/>
<polygon fill="#444444" fill-opacity="0.333333" stroke="#444444" stroke-opacity="0.333333" points="461.9921,-714.7631 456.4756,-723.8085 466.4288,-720.1775 461.9921,-714.7631"/>
</g>
<!-- systemd&#45;&gt;acl -->
<g id="edge19" class="edge">
<title>systemd&#45;&gt;acl</title>
<path fill="none" stroke="#444444" stroke-opacity="0.333333" d="M563.999,-586.1636C536.1863,-586.5852 503.5117,-587.0805 476.1743,-587.4949"/>
<polygon fill="#444444" fill-opacity="0.333333" stroke="#444444" stroke-opacity="0.333333" points="475.9254,-583.9981 465.9796,-587.6494 476.0316,-590.9973 475.9254,-583.9981"/>
</g>
<!-- systemd&#45;&gt;cryptsetup&#45;libs -->
<g id="edge20" class="edge">
<title>systemd&#45;&gt;cryptsetup&#45;libs</title>
<path fill="none" stroke="#444444" stroke-opacity="0.333333" d="M625.9765,-566.9719C627.3109,-503.9244 631.7319,-295.0554 633.35,-218.6094"/>
<polygon fill="#444444" fill-opacity="0.333333" stroke="#444444" stroke-opacity="0.333333" points="636.8552,-218.3963 633.5676,-208.3244 629.8567,-218.2481 636.8552,-218.3963"/>
</g>
<!-- systemd&#45;&gt;dbus -->
<g id="edge21" class="edge">
<title>systemd&#45;&gt;dbus</title>
<path fill="none" stroke="#444444" stroke-opacity="0.333333" d="M628.5927,-603.4783C639.9463,-672.4771 680.3048,-917.7469 694.0704,-1001.404"/>
<polygon fill="#444444" fill-opacity="0.333333" stroke="#444444" stroke-opacity="0.333333" points="690.6453,-1002.1458 695.7226,-1011.4448 697.5524,-1001.0092 690.6453,-1002.1458"/>
</g>
<!-- systemd&#45;&gt;kmod&#45;libs -->
<g id="edge22" class="edge">
<title>systemd&#45;&gt;kmod&#45;libs</title>
<path fill="none" stroke="#444444" stroke-opacity="0.333333" d="M616.831,-567.0652C590.4377,-512.3296 511.5591,-348.7475 480.0728,-283.4498"/>
<polygon fill="#444444" fill-opacity="0.333333" stroke="#444444" stroke-opacity="0.333333" points="483.108,-281.686 475.6119,-274.1987 476.8027,-284.7264 483.108,-281.686"/>
</g>
<!-- systemd&#45;&gt;libseccomp -->
<g id="edge23" class="edge">
<title>systemd&#45;&gt;libseccomp</title>
<path fill="none" stroke="#444444" stroke-opacity="0.333333" d="M605.8152,-567.092C561.006,-525.9919 451.6746,-425.7103 400.6443,-378.9041"/>
<polygon fill="#444444" fill-opacity="0.333333" stroke="#444444" stroke-opacity="0.333333" points="402.9983,-376.3139 393.2629,-372.1337 398.2666,-381.4725 402.9983,-376.3139"/>
</g>
<!-- systemd&#45;&gt;qrencode&#45;libs -->
<g id="edge24" class="edge">
<title>systemd&#45;&gt;qrencode&#45;libs</title>
<path fill="none" stroke="#444444" stroke-opacity="0.333333" d="M621.9112,-603.4315C613.2735,-646.1675 591.6447,-753.1788 581.2769,-804.4747"/>
<polygon fill="#444444" fill-opacity="0.333333" stroke="#444444" stroke-opacity="0.333333" points="577.7948,-804.0366 579.2442,-814.5318 584.656,-805.4235 577.7948,-804.0366"/>
</g>
<!-- systemd&#45;&gt;systemd&#45;pam -->
<g id="edge25" class="edge">
<title>systemd&#45;&gt;systemd&#45;pam</title>
<path fill="none" stroke="#444444" stroke-opacity="0.333333" d="M590.3676,-567.195C547.1209,-548.8912 472.6234,-520.932 416.3629,-501.5921"/>
<polygon fill="#444444" fill-opacity="0.333333" stroke="#444444" stroke-opacity="0.333333" points="417.3859,-498.2431 406.7914,-498.3257 415.125,-504.868 417.3859,-498.2431"/>
</g>
<!-- systemd&#45;&gt;systemd&#45;rpm&#45;macros -->
<g id="edge26" class="edge">
<title>systemd&#45;&gt;systemd&#45;rpm&#45;macros</title>
<path fill="none" stroke="#444444" stroke-opacity="0.333333" d="M564.0048,-582.8626C474.5482,-579.4239 307.3898,-572.9982 197.6543,-568.7799"/>
<polygon fill="#444444" fill-opacity="0.333333" stroke="#444444" stroke-opacity="0.333333" points="197.6761,-565.2782 187.549,-568.3914 197.4071,-572.273 197.6761,-565.2782"/>
</g>
<!-- systemd&#45;&gt;diffutils -->
<g id="edge27" class="edge">
<title>systemd&#45;&gt;diffutils</title>
<path fill="none" stroke="#444444" stroke-dasharray="5,2" stroke-opacity="0.333333" d="M619.0924,-566.8734C605.9547,-529.7574 576.1694,-445.6096 560.6753,-401.8367"/>
<polygon fill="#444444" fill-opacity="0.333333" stroke="#444444" stroke-opacity="0.333333" points="563.9656,-400.6429 557.3294,-392.3839 557.3668,-402.9787 563.9656,-400.6429"/>
</g>
<!-- systemd&#45;&gt;libxkbcommon -->
<g id="edge28" class="edge">
<title>systemd&#45;&gt;libxkbcommon</title>
<path fill="none" stroke="#444444" stroke-dasharray="5,2" stroke-opacity="0.333333" d="M615.2272,-603.3806C580.7976,-663.6844 470.0922,-857.586 429.1346,-929.3236"/>
<polygon fill="#444444" fill-opacity="0.333333" stroke="#444444" stroke-opacity="0.333333" points="425.9716,-927.8046 424.0529,-938.2243 432.0506,-931.2754 425.9716,-927.8046"/>
</g>
<!-- libsemanage&#45;&gt;Fedora Container Base -->
<g id="edge43" class="edge">
<title>libsemanage&#45;&gt;Fedora Container Base</title>
<path fill="none" stroke="#444444" stroke-opacity="0.333333" d="M1124.7172,-425.191C1042.9147,-445.9934 909.1791,-480.0024 826.641,-500.9919"/>
<polygon fill="#444444" fill-opacity="0.333333" stroke="#444444" stroke-opacity="0.333333" points="825.6651,-497.6286 816.8362,-503.4853 827.3903,-504.4127 825.6651,-497.6286"/>
</g>
<!-- libsemanage&#45;&gt;libsemanage -->
<g id="edge44" class="edge">
<title>libsemanage&#45;&gt;libsemanage</title>
<path fill="none" stroke="#444444" stroke-opacity="0.333333" d="M1271.2725,-413.1974C1282.0009,-412.2177 1289.2,-410.1986 1289.2,-407.14 1289.2,-405.1806 1286.2455,-403.6478 1281.3013,-402.5415"/>
<polygon fill="#444444" fill-opacity="0.333333" stroke="#444444" stroke-opacity="0.333333" points="1281.6723,-399.0587 1271.2725,-401.0826 1280.6645,-405.9858 1281.6723,-399.0587"/>
</g>
<!-- util&#45;linux&#45;&gt;Fedora Container Base -->
<g id="edge29" class="edge">
<title>util&#45;linux&#45;&gt;Fedora Container Base</title>
<path fill="none" stroke="#444444" stroke-opacity="0.333333" d="M893.037,-321.9286C866.2453,-359.9703 803.7848,-448.6583 772.4795,-493.1089"/>
<polygon fill="#444444" fill-opacity="0.333333" stroke="#444444" stroke-opacity="0.333333" points="769.5502,-491.1898 766.6536,-501.3811 775.2733,-495.2205 769.5502,-491.1898"/>
</g>
<!-- util&#45;linux&#45;&gt;util&#45;linux -->
<g id="edge30" class="edge">
<title>util&#45;linux&#45;&gt;util&#45;linux</title>
<path fill="none" stroke="#444444" stroke-opacity="0.333333" d="M970.3997,-310.1653C980.9615,-309.2713 988.22,-307.1895 988.22,-303.92 988.22,-301.8255 985.2411,-300.2184 980.3232,-299.0987"/>
<polygon fill="#444444" fill-opacity="0.333333" stroke="#444444" stroke-opacity="0.333333" points="980.7955,-295.6307 970.3997,-297.6747 979.8011,-302.5598 980.7955,-295.6307"/>
</g>
<!-- util&#45;linux&#45;&gt;libfdisk -->
<g id="edge31" class="edge">
<title>util&#45;linux&#45;&gt;libfdisk</title>
<path fill="none" stroke="#444444" stroke-opacity="0.333333" d="M916.1464,-285.8653C936.1141,-251.2885 979.8409,-175.5697 1003.2254,-135.0764"/>
<polygon fill="#444444" fill-opacity="0.333333" stroke="#444444" stroke-opacity="0.333333" points="1006.3288,-136.7011 1008.2988,-126.291 1000.267,-133.2004 1006.3288,-136.7011"/>
</g>
<!-- util&#45;linux&#45;&gt;libutempter -->
<g id="edge32" class="edge">
<title>util&#45;linux&#45;&gt;libutempter</title>
<path fill="none" stroke="#444444" stroke-opacity="0.333333" d="M970.2204,-302.7331C983.4001,-302.4906 997.4064,-302.2328 1011.0102,-301.9825"/>
<polygon fill="#444444" fill-opacity="0.333333" stroke="#444444" stroke-opacity="0.333333" points="1011.3804,-305.4764 1021.3143,-301.7929 1011.2516,-298.4776 1011.3804,-305.4764"/>
</g>
<!-- iptables&#45;libs&#45;&gt;Fedora Container Base -->
<g id="edge39" class="edge">
<title>iptables&#45;libs&#45;&gt;Fedora Container Base</title>
<path fill="none" stroke="#444444" stroke-opacity="0.333333" d="M460.1835,-723.9612C517.523,-684.0442 655.2511,-588.1645 719.6383,-543.3413"/>
<polygon fill="#444444" fill-opacity="0.333333" stroke="#444444" stroke-opacity="0.333333" points="722.0134,-545.9525 728.2209,-537.3666 718.014,-540.2075 722.0134,-545.9525"/>
</g>
<!-- iptables&#45;libs&#45;&gt;iptables&#45;libs -->
<g id="edge40" class="edge">
<title>iptables&#45;libs&#45;&gt;iptables&#45;libs</title>
<path fill="none" stroke="#444444" stroke-opacity="0.333333" d="M507.8926,-748.0708C518.592,-747.104 525.8,-745.0738 525.8,-741.98 525.8,-739.9981 522.8418,-738.4526 517.9026,-737.3436"/>
<polygon fill="#444444" fill-opacity="0.333333" stroke="#444444" stroke-opacity="0.333333" points="518.292,-733.8634 507.8926,-735.8892 517.2854,-740.7907 518.292,-733.8634"/>
</g>
<!-- iptables&#45;libs&#45;&gt;libpcap -->
<g id="edge41" class="edge">
<title>iptables&#45;libs&#45;&gt;libpcap</title>
<path fill="none" stroke="#444444" stroke-opacity="0.333333" d="M360.5565,-740.5231C357.3762,-740.4602 354.1897,-740.3973 351.0191,-740.3346"/>
<polygon fill="#444444" fill-opacity="0.333333" stroke="#444444" stroke-opacity="0.333333" points="351.0412,-736.8345 340.9739,-740.1362 350.9028,-743.8331 351.0412,-736.8345"/>
</g>
<!-- acl&#45;&gt;Fedora Container Base -->
<g id="edge58" class="edge">
<title>acl&#45;&gt;Fedora Container Base</title>
<path fill="none" stroke="#444444" stroke-opacity="0.333333" d="M466.147,-578.5743C519.1171,-567.698 605.6245,-549.9354 669.979,-536.7215"/>
<polygon fill="#444444" fill-opacity="0.333333" stroke="#444444" stroke-opacity="0.333333" points="671.0172,-540.0814 680.1088,-534.6415 669.6092,-533.2245 671.0172,-540.0814"/>
</g>
<!-- cryptsetup&#45;libs&#45;&gt;Fedora Container Base -->
<g id="edge59" class="edge">
<title>cryptsetup&#45;libs&#45;&gt;Fedora Container Base</title>
<path fill="none" stroke="#444444" stroke-opacity="0.333333" d="M640.5699,-208.4298C660.4765,-263.0679 719.8878,-426.1357 743.7821,-491.7192"/>
<polygon fill="#444444" fill-opacity="0.333333" stroke="#444444" stroke-opacity="0.333333" points="740.5887,-493.1787 747.3006,-501.3764 747.1658,-490.7824 740.5887,-493.1787"/>
</g>
<!-- cryptsetup&#45;libs&#45;&gt;device&#45;mapper&#45;libs -->
<g id="edge60" class="edge">
<title>cryptsetup&#45;libs&#45;&gt;device&#45;mapper&#45;libs</title>
<path fill="none" stroke="#444444" stroke-opacity="0.333333" d="M654.0282,-172.1964C680.575,-148.3132 727.4783,-106.1161 757.4005,-79.1962"/>
<polygon fill="#444444" fill-opacity="0.333333" stroke="#444444" stroke-opacity="0.333333" points="759.8955,-81.6596 764.9888,-72.3693 755.2137,-76.4556 759.8955,-81.6596"/>
</g>
<!-- cryptsetup&#45;libs&#45;&gt;libargon2 -->
<g id="edge61" class="edge">
<title>cryptsetup&#45;libs&#45;&gt;libargon2</title>
<path fill="none" stroke="#444444" stroke-opacity="0.333333" d="M628.7935,-172.1507C620.2194,-142.0392 602.974,-81.4745 592.8392,-45.882"/>
<polygon fill="#444444" fill-opacity="0.333333" stroke="#444444" stroke-opacity="0.333333" points="596.1659,-44.7843 590.061,-36.1251 589.4335,-46.7013 596.1659,-44.7843"/>
</g>
<!-- dbus&#45;&gt;dbus&#45;broker -->
<g id="edge62" class="edge">
<title>dbus&#45;&gt;dbus&#45;broker</title>
<path fill="none" stroke="#444444" stroke-opacity="0.333333" d="M708.9103,-1011.2927C734.036,-966.1978 799.013,-849.5787 828.6425,-796.4004"/>
<polygon fill="#444444" fill-opacity="0.333333" stroke="#444444" stroke-opacity="0.333333" points="831.7711,-797.9762 833.5809,-787.5371 825.6562,-794.5691 831.7711,-797.9762"/>
</g>
<!-- kmod&#45;libs&#45;&gt;Fedora Container Base -->
<g id="edge63" class="edge">
<title>kmod&#45;libs&#45;&gt;Fedora Container Base</title>
<path fill="none" stroke="#444444" stroke-opacity="0.333333" d="M486.608,-274.1945C536.8076,-320.263 669.4689,-442.0071 726.835,-494.6523"/>
<polygon fill="#444444" fill-opacity="0.333333" stroke="#444444" stroke-opacity="0.333333" points="724.6792,-497.4243 734.4134,-501.6071 729.4122,-492.2669 724.6792,-497.4243"/>
</g>
<!-- libseccomp&#45;&gt;Fedora Container Base -->
<g id="edge64" class="edge">
<title>libseccomp&#45;&gt;Fedora Container Base</title>
<path fill="none" stroke="#444444" stroke-opacity="0.333333" d="M415.0049,-372.0966C485.716,-402.8506 629.3755,-465.3314 704.9333,-498.1932"/>
<polygon fill="#444444" fill-opacity="0.333333" stroke="#444444" stroke-opacity="0.333333" points="703.6771,-501.4636 714.2433,-502.2424 706.469,-495.0444 703.6771,-501.4636"/>
</g>
<!-- qrencode&#45;libs&#45;&gt;Fedora Container Base -->
<g id="edge65" class="edge">
<title>qrencode&#45;libs&#45;&gt;Fedora Container Base</title>
<path fill="none" stroke="#444444" stroke-opacity="0.333333" d="M585.9192,-814.5632C615.9003,-761.8987 702.8742,-609.1213 738.4538,-546.6226"/>
<polygon fill="#444444" fill-opacity="0.333333" stroke="#444444" stroke-opacity="0.333333" points="741.6065,-548.1591 743.5122,-537.737 735.5232,-544.6959 741.6065,-548.1591"/>
</g>
<!-- systemd&#45;pam&#45;&gt;Fedora Container Base -->
<g id="edge66" class="edge">
<title>systemd&#45;pam&#45;&gt;Fedora Container Base</title>
<path fill="none" stroke="#444444" stroke-opacity="0.333333" d="M419.9914,-487.7636C480.1412,-493.4787 564.1813,-501.4638 632.9002,-507.9932"/>
<polygon fill="#444444" fill-opacity="0.333333" stroke="#444444" stroke-opacity="0.333333" points="632.637,-511.4838 642.9233,-508.9455 633.2992,-504.5152 632.637,-511.4838"/>
</g>
<!-- systemd&#45;pam&#45;&gt;systemd -->
<g id="edge67" class="edge">
<title>systemd&#45;pam&#45;&gt;systemd</title>
<path fill="none" stroke="#444444" stroke-opacity="0.333333" d="M376.6624,-498.335C420.8856,-517.0522 497.7869,-545.8656 554.4498,-565.2346"/>
<polygon fill="#444444" fill-opacity="0.333333" stroke="#444444" stroke-opacity="0.333333" points="553.4761,-568.6001 564.0704,-568.4975 555.7245,-561.971 553.4761,-568.6001"/>
</g>
<!-- diffutils&#45;&gt;Fedora Container Base -->
<g id="edge71" class="edge">
<title>diffutils&#45;&gt;Fedora Container Base</title>
<path fill="none" stroke="#444444" stroke-opacity="0.333333" d="M576.1996,-392.3248C612.715,-418.4558 680.2382,-466.7764 720.7136,-495.7413"/>
<polygon fill="#444444" fill-opacity="0.333333" stroke="#444444" stroke-opacity="0.333333" points="718.7501,-498.6401 728.9192,-501.6134 722.8238,-492.9475 718.7501,-498.6401"/>
</g>
<!-- libxkbcommon&#45;&gt;Fedora Container Base -->
<g id="edge72" class="edge">
<title>libxkbcommon&#45;&gt;Fedora Container Base</title>
<path fill="none" stroke="#444444" stroke-opacity="0.333333" d="M427.8944,-938.1253C481.2789,-869.5724 670.2668,-626.8863 733.2812,-545.9673"/>
<polygon fill="#444444" fill-opacity="0.333333" stroke="#444444" stroke-opacity="0.333333" points="736.2723,-547.8228 739.655,-537.7825 730.7494,-543.5219 736.2723,-547.8228"/>
</g>
<!-- libxkbcommon&#45;&gt;xkeyboard&#45;config -->
<g id="edge73" class="edge">
<title>libxkbcommon&#45;&gt;xkeyboard&#45;config</title>
<path fill="none" stroke="#444444" stroke-opacity="0.333333" d="M400.4471,-974.4781C356.781,-1034.1951 217.3597,-1224.8653 165.7312,-1295.4715"/>
<polygon fill="#444444" fill-opacity="0.333333" stroke="#444444" stroke-opacity="0.333333" points="162.6802,-1293.7143 159.6029,-1303.8524 168.3308,-1297.8461 162.6802,-1293.7143"/>
</g>
<!-- libfdisk&#45;&gt;Fedora Container Base -->
<g id="edge68" class="edge">
<title>libfdisk&#45;&gt;Fedora Container Base</title>
<path fill="none" stroke="#444444" stroke-opacity="0.333333" d="M1006.9802,-126.4798C964.8527,-191.8999 820.9633,-415.3469 771.0876,-492.7992"/>
<polygon fill="#444444" fill-opacity="0.333333" stroke="#444444" stroke-opacity="0.333333" points="767.9559,-491.1979 765.4845,-501.5004 773.8413,-494.9878 767.9559,-491.1979"/>
</g>
<!-- libutempter&#45;&gt;Fedora Container Base -->
<g id="edge69" class="edge">
<title>libutempter&#45;&gt;Fedora Container Base</title>
<path fill="none" stroke="#444444" stroke-opacity="0.333333" d="M1061.6592,-318.6439C1001.1087,-358.1596 857.1463,-452.1106 789.7974,-496.0631"/>
<polygon fill="#444444" fill-opacity="0.333333" stroke="#444444" stroke-opacity="0.333333" points="787.6653,-493.2751 781.2037,-501.6714 791.491,-499.1372 787.6653,-493.2751"/>
</g>
<!-- libutempter&#45;&gt;shadow&#45;utils -->
<g id="edge70" class="edge">
<title>libutempter&#45;&gt;shadow&#45;utils</title>
<path fill="none" stroke="#444444" stroke-opacity="0.333333" d="M1083.2667,-318.6887C1069.0844,-360.6552 1033.9506,-464.6187 1017.1022,-514.4743"/>
<polygon fill="#444444" fill-opacity="0.333333" stroke="#444444" stroke-opacity="0.333333" points="1013.779,-513.3758 1013.8931,-523.97 1020.4105,-515.617 1013.779,-513.3758"/>
</g>
<!-- libunwind&#45;&gt;Fedora Container Base -->
<g id="edge37" class="edge">
<title>libunwind&#45;&gt;Fedora Container Base</title>
<path fill="none" stroke="#444444" stroke-opacity="0.333333" d="M960.2046,-958.6291C927.0206,-887.9938 806.6877,-631.8536 766.8258,-547.0038"/>
<polygon fill="#444444" fill-opacity="0.333333" stroke="#444444" stroke-opacity="0.333333" points="769.8998,-545.3156 762.4798,-537.7529 763.5641,-548.2921 769.8998,-545.3156"/>
</g>
<!-- libunwind&#45;&gt;libunwind -->
<g id="edge38" class="edge">
<title>libunwind&#45;&gt;libunwind</title>
<path fill="none" stroke="#444444" stroke-opacity="0.333333" d="M1036.097,-983.026C1046.5997,-982.1012 1053.76,-980.0392 1053.76,-976.84 1053.76,-974.8405 1050.963,-973.2852 1046.3011,-972.1741"/>
<polygon fill="#444444" fill-opacity="0.333333" stroke="#444444" stroke-opacity="0.333333" points="1046.5036,-968.6658 1036.097,-970.654 1045.4721,-975.5894 1046.5036,-968.6658"/>
</g>
<!-- libpcap&#45;&gt;Fedora Container Base -->
<g id="edge42" class="edge">
<title>libpcap&#45;&gt;Fedora Container Base</title>
<path fill="none" stroke="#444444" stroke-opacity="0.333333" d="M320.5053,-720.8131C406.9648,-680.6504 614.1907,-584.3886 707.2578,-541.1565"/>
<polygon fill="#444444" fill-opacity="0.333333" stroke="#444444" stroke-opacity="0.333333" points="708.8384,-544.2816 716.4331,-536.8944 705.8893,-537.9331 708.8384,-544.2816"/>
</g>
<!-- gperftools&#45;libs&#45;&gt;Fedora Container Base -->
<g id="edge45" class="edge">
<title>gperftools&#45;libs&#45;&gt;Fedora Container Base</title>
<path fill="none" stroke="#444444" stroke-opacity="0.333333" d="M1060.8418,-849.9618C1007.0569,-792.0538 840.1708,-612.3743 777.7679,-545.1876"/>
<polygon fill="#444444" fill-opacity="0.333333" stroke="#444444" stroke-opacity="0.333333" points="780.0603,-542.5127 770.6904,-537.5675 774.9313,-547.2765 780.0603,-542.5127"/>
</g>
<!-- gperftools&#45;libs&#45;&gt;libunwind -->
<g id="edge46" class="edge">
<title>gperftools&#45;libs&#45;&gt;libunwind</title>
<path fill="none" stroke="#444444" stroke-opacity="0.333333" d="M1059.3029,-886.6459C1041.4154,-904.4645 1014.164,-931.6108 994.2306,-951.4675"/>
<polygon fill="#444444" fill-opacity="0.333333" stroke="#444444" stroke-opacity="0.333333" points="991.5986,-949.1491 986.984,-958.6862 996.5388,-954.1084 991.5986,-949.1491"/>
</g>
<!-- nginx&#45;&gt;Fedora Container Base -->
<g id="edge47" class="edge">
<title>nginx&#45;&gt;Fedora Container Base</title>
<path fill="none" stroke="#444444" stroke-opacity="0.333333" d="M1141.5129,-729.7769C1065.312,-688.4366 878.7441,-587.2201 795.3523,-541.9786"/>
<polygon fill="#444444" fill-opacity="0.333333" stroke="#444444" stroke-opacity="0.333333" points="796.879,-538.825 786.4202,-537.1328 793.5409,-544.9779 796.879,-538.825"/>
</g>
<!-- nginx&#45;&gt;systemd -->
<g id="edge48" class="edge">
<title>nginx&#45;&gt;systemd</title>
<path fill="none" stroke="#444444" stroke-opacity="0.333333" d="M1114.0154,-729.861C1011.6233,-699.541 805.4966,-638.5034 696.6508,-606.2723"/>
<polygon fill="#444444" fill-opacity="0.333333" stroke="#444444" stroke-opacity="0.333333" points="697.3295,-602.8231 686.7473,-603.3397 695.342,-609.535 697.3295,-602.8231"/>
</g>
<!-- nginx&#45;&gt;fedora&#45;logos&#45;httpd -->
<g id="edge49" class="edge">
<title>nginx&#45;&gt;fedora&#45;logos&#45;httpd</title>
<path fill="none" stroke="#444444" stroke-opacity="0.333333" d="M1201.3076,-766.064C1268.9719,-812.6312 1448.5612,-936.2262 1524.4611,-988.4612"/>
<polygon fill="#444444" fill-opacity="0.333333" stroke="#444444" stroke-opacity="0.333333" points="1522.5402,-991.3879 1532.7621,-994.174 1526.5087,-985.6215 1522.5402,-991.3879"/>
</g>
<!-- nginx&#45;&gt;gperftools&#45;libs -->
<g id="edge50" class="edge">
<title>nginx&#45;&gt;gperftools&#45;libs</title>
<path fill="none" stroke="#444444" stroke-opacity="0.333333" d="M1160.3631,-765.9046C1144.06,-786.1081 1117.4734,-819.0552 1098.8877,-842.0873"/>
<polygon fill="#444444" fill-opacity="0.333333" stroke="#444444" stroke-opacity="0.333333" points="1095.9923,-840.102 1092.4362,-850.0822 1101.4399,-844.4979 1095.9923,-840.102"/>
</g>
<!-- nginx&#45;&gt;nginx -->
<g id="edge51" class="edge">
<title>nginx&#45;&gt;nginx</title>
<path fill="none" stroke="#444444" stroke-opacity="0.333333" d="M1252.4655,-753.9133C1263.215,-752.9212 1270.4,-750.9134 1270.4,-747.89 1270.4,-745.9531 1267.4513,-744.4331 1262.5057,-743.3298"/>
<polygon fill="#444444" fill-opacity="0.333333" stroke="#444444" stroke-opacity="0.333333" points="1262.8657,-739.8454 1252.4655,-741.8667 1261.8562,-746.7723 1262.8657,-739.8454"/>
</g>
<!-- nginx&#45;&gt;nginx&#45;filesystem -->
<g id="edge52" class="edge">
<title>nginx&#45;&gt;nginx&#45;filesystem</title>
<path fill="none" stroke="#444444" stroke-opacity="0.333333" d="M1185.2347,-729.8334C1199.3206,-705.2228 1224.6622,-660.9464 1241.0213,-632.364"/>
<polygon fill="#444444" fill-opacity="0.333333" stroke="#444444" stroke-opacity="0.333333" points="1244.0616,-634.0979 1245.9915,-623.6803 1237.9864,-630.6207 1244.0616,-634.0979"/>
</g>
<!-- nginx&#45;&gt;nginx&#45;mimetypes -->
<g id="edge53" class="edge">
<title>nginx&#45;&gt;nginx&#45;mimetypes</title>
<path fill="none" stroke="#444444" stroke-opacity="0.333333" d="M1252.5139,-742.0356C1310.1628,-737.6872 1389.1576,-731.7286 1450.8635,-727.0742"/>
<polygon fill="#444444" fill-opacity="0.333333" stroke="#444444" stroke-opacity="0.333333" points="1451.2932,-730.5518 1461.0016,-726.3095 1450.7667,-723.5716 1451.2932,-730.5518"/>
</g>
<!-- nginx&#45;filesystem&#45;&gt;Fedora Container Base -->
<g id="edge54" class="edge">
<title>nginx&#45;filesystem&#45;&gt;Fedora Container Base</title>
<path fill="none" stroke="#444444" stroke-opacity="0.333333" d="M1180.4389,-592.3309C1091.2524,-577.1003 943.4278,-551.856 847.343,-535.4474"/>
<polygon fill="#444444" fill-opacity="0.333333" stroke="#444444" stroke-opacity="0.333333" points="847.7877,-531.9728 837.3412,-533.7394 846.6093,-538.8729 847.7877,-531.9728"/>
</g>
<!-- nginx&#45;filesystem&#45;&gt;shadow&#45;utils -->
<g id="edge55" class="edge">
<title>nginx&#45;filesystem&#45;&gt;shadow&#45;utils</title>
<path fill="none" stroke="#444444" stroke-opacity="0.333333" d="M1185.5654,-587.2598C1155.2504,-579.5414 1119.706,-570.4917 1088.4012,-562.5214"/>
<polygon fill="#444444" fill-opacity="0.333333" stroke="#444444" stroke-opacity="0.333333" points="1088.9527,-559.0502 1078.3983,-559.9746 1087.2256,-565.8338 1088.9527,-559.0502"/>
</g>
<!-- nginx&#45;mimetypes&#45;&gt;nginx&#45;filesystem -->
<g id="edge56" class="edge">
<title>nginx&#45;mimetypes&#45;&gt;nginx&#45;filesystem</title>
<path fill="none" stroke="#444444" stroke-opacity="0.333333" d="M1501.5426,-701.7866C1450.2406,-681.5904 1367.0505,-648.8407 1312.0578,-627.1916"/>
<polygon fill="#444444" fill-opacity="0.333333" stroke="#444444" stroke-opacity="0.333333" points="1313.0573,-623.8237 1302.4703,-623.4172 1310.4931,-630.3371 1313.0573,-623.8237"/>
</g>
<!-- nginx&#45;mimetypes&#45;&gt;nginx&#45;mimetypes -->
<g id="edge57" class="edge">
<title>nginx&#45;mimetypes&#45;&gt;nginx&#45;mimetypes</title>
<path fill="none" stroke="#444444" stroke-opacity="0.333333" d="M1633.377,-725.6782C1644.1864,-724.6422 1651.3,-722.6828 1651.3,-719.8 1651.3,-717.9532 1648.3806,-716.4854 1643.4403,-715.3965"/>
<polygon fill="#444444" fill-opacity="0.333333" stroke="#444444" stroke-opacity="0.333333" points="1643.7789,-711.9088 1633.377,-713.9218 1642.7639,-718.8348 1643.7789,-711.9088"/>
</g>
<!-- Fedora Container Base -->
<g id="node1" class="node">
<title>Fedora Container Base</title>
<ellipse fill="none" stroke="#000000" cx="753.9" cy="-519.49" rx="136.5" ry="18"/>
<text text-anchor="middle" x="753.9" y="-515.79" font-family="Helvetica,sans-Serif" font-weight="bold" font-size="14.00" fill="#000000">Fedora Container Base (202.9 MB)</text>
</g>
<!-- device&#45;mapper&#45;libs -->
<g id="node2" class="node">
<title>device&#45;mapper&#45;libs</title>
<text text-anchor="middle" x="785.15" y="-50.531" font-family="Helvetica,sans-Serif" font-weight="bold" font-size="14.00" fill="#000000">device&#45;mapper&#45;libs (418.7 kB)</text>
</g>
<!-- device&#45;mapper -->
<g id="node3" class="node">
<title>device&#45;mapper</title>
<text text-anchor="middle" x="770" y="-254.47" font-family="Helvetica,sans-Serif" font-weight="bold" font-size="14.00" fill="#000000">device&#45;mapper (350.1 kB)</text>
</g>
<!-- libargon2 -->
<g id="node4" class="node">
<title>libargon2</title>
<text text-anchor="middle" x="584.9" y="-14.3" font-family="Helvetica,sans-Serif" font-weight="bold" font-size="14.00" fill="#000000">libargon2 (54.9 kB)</text>
</g>
<!-- dbus&#45;broker -->
<g id="node5" class="node">
<title>dbus&#45;broker</title>
<text text-anchor="middle" x="843.77" y="-765.55" font-family="Helvetica,sans-Serif" font-weight="bold" font-size="14.00" fill="#000000">dbus&#45;broker (423.2 kB)</text>
</g>
<!-- dbus&#45;common -->
<g id="node6" class="node">
<title>dbus&#45;common</title>
<text text-anchor="middle" x="736.07" y="-826" font-family="Helvetica,sans-Serif" font-weight="bold" font-size="14.00" fill="#000000">dbus&#45;common (11.2 kB)</text>
</g>
<!-- shadow&#45;utils -->
<g id="node7" class="node">
<title>shadow&#45;utils</title>
<text text-anchor="middle" x="1007.8" y="-538.3" font-family="Helvetica,sans-Serif" font-weight="bold" font-size="14.00" fill="#000000">shadow&#45;utils (4.0 MB)</text>
</g>
<!-- systemd -->
<g id="node8" class="node">
<title>systemd</title>
<text text-anchor="middle" x="625.59" y="-581.53" font-family="Helvetica,sans-Serif" font-weight="bold" font-size="14.00" fill="#000000">systemd (12.3 MB)</text>
</g>
<!-- libsemanage -->
<g id="node9" class="node">
<title>libsemanage</title>
<text text-anchor="middle" x="1195.7" y="-403.44" font-family="Helvetica,sans-Serif" font-weight="bold" font-size="14.00" fill="#000000">libsemanage (304.6 kB)</text>
</g>
<!-- util&#45;linux -->
<g id="node10" class="node">
<title>util&#45;linux</title>
<text text-anchor="middle" x="905.72" y="-300.22" font-family="Helvetica,sans-Serif" font-weight="bold" font-size="14.00" fill="#000000">util&#45;linux (12.8 MB)</text>
</g>
<!-- iptables&#45;libs -->
<g id="node11" class="node">
<title>iptables&#45;libs</title>
<text text-anchor="middle" x="434.3" y="-738.28" font-family="Helvetica,sans-Serif" font-weight="bold" font-size="14.00" fill="#000000">iptables&#45;libs (156.4 kB)</text>
</g>
<!-- acl -->
<g id="node12" class="node">
<title>acl</title>
<text text-anchor="middle" x="418.44" y="-584.67" font-family="Helvetica,sans-Serif" font-weight="bold" font-size="14.00" fill="#000000">acl (212.0 kB)</text>
</g>
<!-- cryptsetup&#45;libs -->
<g id="node13" class="node">
<title>cryptsetup&#45;libs</title>
<text text-anchor="middle" x="633.95" y="-186.56" font-family="Helvetica,sans-Serif" font-weight="bold" font-size="14.00" fill="#000000">cryptsetup&#45;libs (1.8 MB)</text>
</g>
<!-- dbus -->
<g id="node14" class="node">
<title>dbus</title>
<text text-anchor="middle" x="698.71" y="-1025.9" font-family="Helvetica,sans-Serif" font-weight="bold" font-size="14.00" fill="#000000">dbus (0.0 B)</text>
</g>
<!-- kmod&#45;libs -->
<g id="node15" class="node">
<title>kmod&#45;libs</title>
<text text-anchor="middle" x="466.88" y="-252.39" font-family="Helvetica,sans-Serif" font-weight="bold" font-size="14.00" fill="#000000">kmod&#45;libs (197.4 kB)</text>
</g>
<!-- libseccomp -->
<g id="node16" class="node">
<title>libseccomp</title>
<text text-anchor="middle" x="373.58" y="-350.38" font-family="Helvetica,sans-Serif" font-weight="bold" font-size="14.00" fill="#000000">libseccomp (347.1 kB)</text>
</g>
<!-- qrencode&#45;libs -->
<g id="node17" class="node">
<title>qrencode&#45;libs</title>
<text text-anchor="middle" x="575.56" y="-829.06" font-family="Helvetica,sans-Serif" font-weight="bold" font-size="14.00" fill="#000000">qrencode&#45;libs (159.3 kB)</text>
</g>
<!-- systemd&#45;pam -->
<g id="node18" class="node">
<title>systemd&#45;pam</title>
<text text-anchor="middle" x="341.44" y="-476.6" font-family="Helvetica,sans-Serif" font-weight="bold" font-size="14.00" fill="#000000">systemd&#45;pam (335.8 kB)</text>
</g>
<!-- systemd&#45;rpm&#45;macros -->
<g id="node19" class="node">
<title>systemd&#45;rpm&#45;macros</title>
<text text-anchor="middle" x="91" y="-560.98" font-family="Helvetica,sans-Serif" font-weight="bold" font-size="14.00" fill="#000000">systemd&#45;rpm&#45;macros (4.9 kB)</text>
</g>
<!-- diffutils -->
<g id="node20" class="node">
<title>diffutils</title>
<text text-anchor="middle" x="550.9" y="-370.52" font-family="Helvetica,sans-Serif" font-weight="bold" font-size="14.00" fill="#000000">diffutils (1.5 MB)</text>
</g>
<!-- libxkbcommon -->
<g id="node21" class="node">
<title>libxkbcommon</title>
<text text-anchor="middle" x="413.71" y="-952.64" font-family="Helvetica,sans-Serif" font-weight="bold" font-size="14.00" fill="#000000">libxkbcommon (276.5 kB)</text>
</g>
<!-- libfdisk -->
<g id="node22" class="node">
<title>libfdisk</title>
<text text-anchor="middle" x="1018.7" y="-104.58" font-family="Helvetica,sans-Serif" font-weight="bold" font-size="14.00" fill="#000000">libfdisk (495.9 kB)</text>
</g>
<!-- libutempter -->
<g id="node23" class="node">
<title>libutempter</title>
<text text-anchor="middle" x="1089.4" y="-296.84" font-family="Helvetica,sans-Serif" font-weight="bold" font-size="14.00" fill="#000000">libutempter (58.2 kB)</text>
</g>
<!-- libunwind -->
<g id="node24" class="node">
<title>libunwind</title>
<text text-anchor="middle" x="968.76" y="-973.14" font-family="Helvetica,sans-Serif" font-weight="bold" font-size="14.00" fill="#000000">libunwind (195.9 kB)</text>
</g>
<!-- libpcap -->
<g id="node25" class="node">
<title>libpcap</title>
<text text-anchor="middle" x="281.44" y="-735.26" font-family="Helvetica,sans-Serif" font-weight="bold" font-size="14.00" fill="#000000">libpcap (381.0 kB)</text>
</g>
<!-- xkeyboard&#45;config -->
<g id="node26" class="node">
<title>xkeyboard&#45;config</title>
<text text-anchor="middle" x="146.26" y="-1318.4" font-family="Helvetica,sans-Serif" font-weight="bold" font-size="14.00" fill="#000000">xkeyboard&#45;config (5.4 MB)</text>
</g>
<!-- fedora&#45;logos&#45;httpd -->
<g id="node27" class="node">
<title>fedora&#45;logos&#45;httpd</title>
<text text-anchor="middle" x="1559.1" y="-1008.6" font-family="Helvetica,sans-Serif" font-weight="bold" font-size="14.00" fill="#000000">fedora&#45;logos&#45;httpd (9.9 kB)</text>
</g>
<!-- gperftools&#45;libs -->
<g id="node28" class="node">
<title>gperftools&#45;libs</title>
<text text-anchor="middle" x="1077.8" y="-864.52" font-family="Helvetica,sans-Serif" font-weight="bold" font-size="14.00" fill="#000000">gperftools&#45;libs (1.8 MB)</text>
</g>
<!-- nginx -->
<g id="node29" class="node">
<title>nginx</title>
<text text-anchor="middle" x="1174.9" y="-742.29" font-family="Helvetica,sans-Serif" font-weight="bold" font-size="22.00" fill="#cc0066">nginx (1.7 MB)</text>
</g>
<!-- nginx&#45;filesystem -->
<g id="node30" class="node">
<title>nginx&#45;filesystem</title>
<text text-anchor="middle" x="1256.5" y="-601.62" font-family="Helvetica,sans-Serif" font-weight="bold" font-size="14.00" fill="#000000">nginx&#45;filesystem (0.0 B)</text>
</g>
<!-- nginx&#45;mimetypes -->
<g id="node31" class="node">
<title>nginx&#45;mimetypes</title>
<text text-anchor="middle" x="1547.3" y="-716.1" font-family="Helvetica,sans-Serif" font-weight="bold" font-size="14.00" fill="#000000">nginx&#45;mimetypes (39.3 kB)</text>
</g>
</g>

<script type="text/javascript"><![CDATA[

document.addEventListener('click', function(e) {
      e = e || window.event;
      var target = e.target || e.srcElement;
      text = target.parentElement.querySelector("title").textContent;

      console.log("Clicked on: " + text);
      // reset all strokes
      var nodes = document.getElementsByClassName("edge");

      for (index = 0, len = nodes.length; index < len; ++index) {
          //var title = nodes[index].querySelector("title").textContent.split("->");
          id = nodes[index].id;
          document.getElementById(id).querySelector("path").setAttribute("stroke-width", "1");
          document.getElementById(id).querySelector("path").setAttribute("stroke-opacity", "0.5");
          document.getElementById(id).querySelector("path").setAttribute("stroke", "#444444");
          document.getElementById(id).querySelector("polygon").setAttribute("stroke-width", "1");
          document.getElementById(id).querySelector("polygon").setAttribute("stroke-opacity", "0.5");
          document.getElementById(id).querySelector("polygon").setAttribute("stroke", "#444444");
      }
      // reset text highlight
      pkgs = document.getElementsByClassName("node");
      for (index2 = 0, len2 = pkgs.length; index2 < len2; ++index2) {
          target_id = pkgs[index2].id;
          document.getElementById(target_id).querySelector("text").setAttribute("font-weight", "normal");
      }

      // highlight deps
      var nodes = document.getElementsByClassName("edge");
      for (index = 0, len = nodes.length; index < len; ++index) {
        var title = nodes[index].querySelector("title").textContent.split("->");

        if (title[0] == text) {
          id = nodes[index].id;
          //console.log("ID:   " + id);
          document.getElementById(id).querySelector("path").setAttribute("stroke-width", "3");
          document.getElementById(id).querySelector("path").setAttribute("stroke-opacity", "1");
          document.getElementById(id).querySelector("path").setAttribute("stroke", "#aa3333");
          document.getElementById(id).querySelector("polygon").setAttribute("stroke-width", "5");
          document.getElementById(id).querySelector("polygon").setAttribute("stroke-opacity", "1");
          document.getElementById(id).querySelector("polygon").setAttribute("stroke", "#aa3333");

        }
        if (title[1] == text) {
          id = nodes[index].id;
          document.getElementById(id).querySelector("path").setAttribute("stroke-width", "3");
          document.getElementById(id).querySelector("path").setAttribute("stroke-opacity", "1");
          document.getElementById(id).querySelector("path").setAttribute("stroke", "#333377");
          document.getElementById(id).querySelector("polygon").setAttribute("stroke-width", "5");
          document.getElementById(id).querySelector("polygon").setAttribute("stroke-opacity", "1");
          document.getElementById(id).querySelector("polygon").setAttribute("stroke", "#333377");
        }

        if (title[0] == text || title[1] == text) {
          pkgs = document.getElementsByClassName("node");
          for (index2 = 0, len2 = pkgs.length; index2 < len2; ++index2) {
            var pkg_name = pkgs[index2].querySelector("title").textContent;
            if (pkg_name == title[0] || pkg_name == title[1]) {
              target_id = pkgs[index2].id;
              document.getElementById(target_id).querySelector("text").setAttribute("font-weight", "bold");
            }
          }
        }
      }


  }, false);

]]></script>

</svg>
