<?xml version="1.0" encoding="UTF-8" standalone="no"?>
<!DOCTYPE svg PUBLIC "-//W3C//DTD SVG 1.1//EN"
 "http://www.w3.org/Graphics/SVG/1.1/DTD/svg11.dtd">
<!-- Generated by graphviz version 2.40.1 (0)
 -->
<!-- Title: packages Pages: 1 -->
<svg width="1410pt" height="666pt"
 viewBox="0.00 0.00 1691.58 799.57" xmlns="http://www.w3.org/2000/svg" xmlns:xlink="http://www.w3.org/1999/xlink">
<g id="graph0" class="graph" transform="scale(.8333 .8333) rotate(0) translate(114.5588 660.6761)">
<title>packages</title>
<polygon fill="#dae2ff" stroke="transparent" points="-114.5588,138.8896 -114.5588,-660.6761 1577.0238,-660.6761 1577.0238,138.8896 -114.5588,138.8896"/>
<polygon fill="#fbb4ae" stroke="#fbb4ae" points="651.1122,-357.4261 660.2608,-226.6122 660.2608,-226.6122 651.1122,-357.4261 583.3787,-353.8114 564.7034,-340.2625 566.4303,-220.39 566.2089,-217.76 568.205,-79.2025 648.4512,-65.7086 657.6279,-64.0059 669.2065,-66.6827 670.8278,-66.9999 677.2154,-68.7076 684.168,-70.3118 702.4507,-73.864 712.9561,-75.3261 757.1164,-80.6617 824.071,-47.8106 849.1985,-37.5416 864.5382,-30.9421 879.2567,-24.3021 882.8192,-22.399 891.0349,-22.8771 912.1702,-23.4055 911.4838,-51.9875 911.8713,-74.93 911.8713,-74.93 911.4838,-51.9875 912.1702,-23.4055 946.9671,-21.9644 1007.7976,-97.5217 1005.8102,-159.3151 1005.0177,-171.06 1005.0388,-179.3912 991.3214,-207.5869 916.2864,-189.6004 913.393,-186.325 910.2628,-185.1672 909.421,-184.5208 906.668,-184.5208 906.2513,-184.4018 905.2438,-148.0906 899.5778,-184.0412 897.6162,-184.0412 893.1895,-161.2858 890.1862,-179.6663 886.2734,-179.6663 886.2734,-179.6663 890.1862,-179.6663 893.1895,-161.2858 897.6162,-184.0412 899.5778,-184.0412 905.2438,-148.0906 906.2513,-184.4018 906.668,-184.5208 909.421,-184.5208 910.2628,-185.1672 913.393,-186.325 916.2864,-189.6004 991.3214,-207.5869 1005.0388,-179.3912 1039.6595,-200.3044 1053.3457,-210.9238 1059.8075,-215.3414 1067.8932,-219.3914 1072.6604,-221.3357 1081.9703,-224.2659 1083.745,-224.6528 1085.4662,-224.8684 1094.3818,-225.1669 1094.7865,-225.2176 1094.7889,-225.7777 1094.7889,-225.7777 1094.7865,-225.2176 1096.37,-225.1228 1106.0181,-225.437 1111.4744,-226.117 1113.476,-226.5472 1117.0342,-227.6372 1120.392,-228.9782 1131.2815,-234.3718 1132.0161,-234.7999 1135.3101,-237.0261 1143.7404,-243.5343 1155.0725,-253.303 1154.3615,-257.3767 1153.8307,-265.7309 1153.7877,-271.0651 1153.0261,-283.0263 1151.7111,-290.5593 1102.2772,-324.4905 1088.6407,-334.7607 1087.3287,-335.8275 1083.5206,-338.6422 1074.7634,-346.6574 1063.4739,-357.662 1059.3436,-362.4114 1045.921,-376.8728 1043.962,-378.8677 1026.6764,-397.2692 975.6799,-374.7472 890.1185,-395.8052 876.4728,-399.7909 872.738,-401.0522 855.1809,-407.3869 839.47,-414.4867 834.5136,-416.9518 735.8811,-355.2121 714.3535,-354.8375 697.4806,-354.8743 697.035,-354.9014 683.553,-355.9879 674.2376,-357.1043 674.8211,-220.5722 675.162,-220.5722 678.5891,-223.2593 678.5891,-223.2593 675.162,-220.5722 674.8211,-220.5722 674.2376,-357.1043 667.0667,-358.1042 665.1536,-358.446 651.1122,-357.4261 651.1122,-357.4261"/>
<polygon fill="#fed9a6" stroke="#fed9a6" points="1297.9518,-654.7237 1290.5094,-654.8372 1288.019,-654.9208 1280.7529,-654.6047 1281.5872,-578.0768 1283.2592,-544.9825 1288.1101,-507.7455 1292.8181,-505.1323 1294.1621,-503.653 1293.1915,-502.5241 1293.1915,-502.5241 1294.1621,-503.653 1292.8181,-505.1323 1288.1101,-507.7455 1283.2592,-544.9825 1281.5872,-578.0768 1280.7529,-654.6047 1275.8356,-654.6608 1272.0515,-654.187 1250.7416,-652.3104 1211.0178,-649.5559 1133.5433,-540.0502 1130.1309,-535.4651 1118.4807,-515.978 1117.4481,-500.2658 1037.7391,-413.7811 1026.6764,-397.2692 1043.962,-378.8677 1045.921,-376.8728 1155.6135,-361.3088 1160.0138,-357.0512 1168.033,-461.1141 1168.8687,-460.4982 1165.3776,-355.6989 1170.7789,-355.6989 1170.2301,-459.549 1171.7302,-458.5614 1175.34,-407.2398 1181.9822,-356.1226 1185.2397,-358.7856 1191.1963,-360.5189 1196.3516,-359.06 1200.0936,-355.9697 1206.2397,-407.2179 1208.1758,-439.2549 1210.7462,-438.2635 1210.8687,-438.221 1216.9785,-355.854 1215.319,-355.3707 1211.9137,-355.3707 1209.1227,-317.3763 1210.3542,-317.2507 1210.3542,-317.2507 1209.1227,-317.3763 1211.9137,-355.3707 1215.319,-355.3707 1216.9785,-355.854 1210.8687,-438.221 1210.7462,-438.2635 1208.1758,-439.2549 1206.2397,-407.2179 1200.0936,-355.9697 1196.3516,-359.06 1191.1963,-360.5189 1185.2397,-358.7856 1181.9822,-356.1226 1175.34,-407.2398 1171.7302,-458.5614 1170.2301,-459.549 1170.7789,-355.6989 1165.3776,-355.6989 1168.8687,-460.4982 1168.033,-461.1141 1160.0138,-357.0512 1155.6135,-361.3088 1045.921,-376.8728 1059.3436,-362.4114 1063.4739,-357.662 1074.7634,-346.6574 1083.5206,-338.6422 1087.3287,-335.8275 1088.6407,-334.7607 1102.2772,-324.4905 1151.7111,-290.5593 1153.0261,-283.0263 1153.7877,-271.0651 1153.8307,-265.7309 1154.3615,-257.3767 1155.0725,-253.303 1143.7404,-243.5343 1135.3101,-237.0261 1132.0161,-234.7999 1131.2815,-234.3718 1120.392,-228.9782 1117.0342,-227.6372 1113.476,-226.5472 1111.4744,-226.117 1106.0181,-225.437 1096.37,-225.1228 1094.7865,-225.2176 1094.3818,-225.1669 1085.4662,-224.8684 1083.745,-224.6528 1081.9703,-224.2659 1072.6604,-221.3357 1067.8932,-219.3914 1059.8075,-215.3414 1053.3457,-210.9238 1039.6595,-200.3044 1005.0388,-179.3912 1005.0177,-171.06 1005.8102,-159.3151 1007.7976,-97.5217 946.9671,-21.9644 947.3884,-21.4313 951.3214,-16.2519 1022.0441,84.9608 1073.1628,134.8896 1099.8198,129.4252 1103.0996,128.8161 1107.4106,128.0985 1123.0638,121.1613 1127.4922,119.5052 1131.2207,-12.9982 1126.6387,-14.2744 1122.3313,-18.1561 1125.579,-20.9798 1125.579,-20.9798 1122.3313,-18.1561 1126.6387,-14.2744 1131.2207,-12.9982 1127.4922,119.5052 1142.1003,114.373 1151.4363,111.7356 1163.2629,108.6651 1206.2283,98.507 1238.7871,84.4332 1275.7234,63.4915 1266.6841,15.3798 1259.0477,-32.6804 1258.0116,-33.5758 1254.1395,-37.3592 1246.2281,-44.346 1244.7976,-45.5419 1242.2778,-47.5335 1240.8098,-48.6282 1228.8939,-56.9959 1227.7162,-57.7684 1210.0732,-67.785 1162.6451,-88.1437 1148.2163,-95.0713 1137.3463,-101.3442 1133.3434,-104.0397 1133.7634,-104.7344 1144.7783,-119.5666 1157.0179,-134.7616 1168.563,-153.5241 1186.4728,-188.9887 1188.2581,-191.5449 1203.4574,-210.4143 1206.3488,-210.338 1212.771,-210.4269 1214.0447,-210.3372 1219.1361,-210.3883 1222.3956,-210.2836 1225.6692,-210.0397 1232.2494,-210.0809 1235.3228,-210.3481 1237.2704,-210.3529 1237.3918,-210.3481 1246.7662,-210.3533 1250.0195,-210.2176 1253.5311,-210.4964 1256.4869,-210.4812 1265.3481,-210.0598 1266.9077,-210.1117 1271.6451,-210.4608 1264.7671,-278.626 1261.0365,-275.6447 1255.8599,-274.2125 1255.8599,-274.2125 1261.0365,-275.6447 1264.7671,-278.626 1271.6451,-210.4608 1273.7614,-210.527 1275.1473,-210.4537 1281.2451,-210.3762 1284.8585,-210.1785 1287.3939,-209.933 1299.2272,-208.2858 1298.7179,-243.0616 1298.7179,-243.0616 1299.2272,-208.2858 1393.61,-187.2157 1395.8146,-188.1743 1403.4553,-191.6808 1413.2252,-196.6354 1423.3219,-202.2424 1435.9934,-209.8895 1445.524,-215.8653 1437.8663,-264.0548 1434.8232,-286.4159 1429.4901,-345.79 1417.9211,-387.1622 1424.4625,-399.814 1439.1018,-470.7482 1443.4817,-489.7078 1436.2517,-519.4282 1418.0121,-613.9819 1413.7306,-617.7284 1365.4105,-653.9565 1359.9492,-656.6761 1311.8032,-654.7664 1308.9087,-587.3602 1308.9087,-587.3602 1311.8032,-654.7664 1297.9518,-654.7237 1297.9518,-654.7237"/>
<polygon fill="#bbd7d9" stroke="#bbd7d9" points="1431.8282,70.6316 1428.7933,-9.0632 1428.7933,-9.0632 1431.8282,70.6316 1457.3958,74.0558 1501.8711,70.6786 1504.4141,69.2879 1540.1252,25.0746 1561.1907,-55.295 1567.4606,-73.837 1573.0238,-126.4837 1488.3883,-193.0482 1445.524,-215.8653 1435.9934,-209.8895 1423.3219,-202.2424 1413.2252,-196.6354 1412.7262,-107.8591 1409.4286,-55.3806 1406.3795,-55.3806 1406.1451,-55.315 1401.3745,-17.2725 1399.8324,-51.9061 1394.6635,-50.4404 1390.3025,-51.6076 1386.0647,-55.0671 1390.9152,-59.2349 1387.3561,-82.5016 1384.0862,-55.2601 1381.161,-55.2601 1380.86,-55.3428 1374.9006,-136.9825 1375.274,-55.375 1370.3079,-55.375 1370.3079,-55.375 1375.274,-55.375 1374.9006,-136.9825 1380.86,-55.3428 1381.161,-55.2601 1384.0862,-55.2601 1387.3561,-82.5016 1390.9152,-59.2349 1386.0647,-55.0671 1390.3025,-51.6076 1394.6635,-50.4404 1399.8324,-51.9061 1401.3745,-17.2725 1406.1451,-55.315 1406.3795,-55.3806 1409.4286,-55.3806 1412.7262,-107.8591 1413.2252,-196.6354 1403.4553,-191.6808 1395.8146,-188.1743 1393.61,-187.2157 1299.2272,-208.2858 1287.3939,-209.933 1284.8585,-210.1785 1281.2451,-210.3762 1275.1473,-210.4537 1273.7614,-210.527 1271.6451,-210.4608 1266.9077,-210.1117 1265.3481,-210.0598 1256.4869,-210.4812 1253.5311,-210.4964 1250.0195,-210.2176 1246.7662,-210.3533 1237.3918,-210.3481 1237.2704,-210.3529 1235.3228,-210.3481 1232.2494,-210.0809 1225.6692,-210.0397 1222.3956,-210.2836 1219.1361,-210.3883 1214.0447,-210.3372 1212.771,-210.4269 1206.3488,-210.338 1203.4574,-210.4143 1188.2581,-191.5449 1186.4728,-188.9887 1168.563,-153.5241 1207.1443,-147.1657 1211.1779,-143.3128 1211.4175,-142.8579 1211.4175,-142.8579 1211.1779,-143.3128 1207.1443,-147.1657 1168.563,-153.5241 1157.0179,-134.7616 1144.7783,-119.5666 1133.7634,-104.7344 1133.3434,-104.0397 1137.3463,-101.3442 1148.2163,-95.0713 1162.6451,-88.1437 1210.0732,-67.785 1227.7162,-57.7684 1228.8939,-56.9959 1240.8098,-48.6282 1242.2778,-47.5335 1244.7976,-45.5419 1246.2281,-44.346 1254.1395,-37.3592 1258.0116,-33.5758 1259.0477,-32.6804 1266.6841,15.3798 1275.7234,63.4915 1324.312,79.1737 1357.6382,72.8364 1371.438,70.5092 1388.3206,69.1206 1400.9835,68.6272 1406.3984,68.7675 1416.7146,69.2582 1431.8282,70.6316 1431.8282,70.6316"/>
<polygon fill="#d8d6da" stroke="#d8d6da" points="-100.9614,-269.4373 -104.7047,-239.4128 -110.5588,-199.2083 -109.1737,-193.2045 -70.5438,-155.8661 24.1483,-106.862 38.136,-105.7474 38.466,-105.7878 41.8528,-106.1448 58.7817,-107.6396 66.0529,-108.0315 65.9403,-221.2477 62.7326,-259.256 64.2099,-259.6685 69.1065,-259.6685 69.1607,-259.683 72.5917,-259.683 73.0401,-259.5639 73.6334,-259.5639 77.8235,-262.9159 82.8052,-264.2821 82.8052,-264.2821 77.8235,-262.9159 73.6334,-259.5639 78.097,-255.9823 82.6426,-254.7641 82.6426,-254.7641 78.097,-255.9823 73.6334,-259.5639 73.0401,-259.5639 72.5917,-259.683 69.1607,-259.683 69.1065,-259.6685 64.2099,-259.6685 62.7326,-259.256 65.9403,-221.2477 66.0529,-108.0315 76.2503,-108.2308 78.6433,-108.2364 87.6052,-108.1038 96.5851,-107.5084 101.8827,-107.0661 113.026,-105.9443 124.0817,-104.2622 138.5574,-90.7966 237.0402,-42.182 254.3633,-41.2692 257.0558,-41.3 277.3782,-40.7203 286.5462,-39.9096 303.8089,-37.6929 306.0356,-37.363 306.2736,-37.323 321.307,-33.895 332.6278,-30.6326 340.5487,-28.0312 348.2313,-32.0458 350.5468,-33.1484 364.6595,-39.547 356.8398,-165.8397 354.7042,-168.0446 365.6884,-174.6035 356.9541,-177.3545 352.2201,-175.1464 348.7422,-170.8956 348.1306,-170.8956 347.6209,-170.7609 347.6209,-170.7609 348.1306,-170.8956 345.4347,-208.4412 341.7678,-170.84 339.5388,-170.84 338.4719,-170.5552 338.4719,-170.5552 339.5388,-170.84 335.424,-192.8891 331.4269,-170.9329 329.4942,-170.9329 329.4861,-170.9307 329.4861,-170.9307 329.4942,-170.9329 331.4269,-170.9329 335.424,-192.8891 339.5388,-170.84 341.7678,-170.84 345.4347,-208.4412 348.1306,-170.8956 348.7422,-170.8956 352.2201,-175.1464 356.9541,-177.3545 365.6884,-174.6035 391.3491,-178.2236 391.3491,-178.2236 365.6884,-174.6035 354.7042,-168.0446 356.8398,-165.8397 364.6595,-39.547 458.6485,-79.9499 463.2266,-79.8552 477.4582,-78.7355 551.8423,-71.4506 568.205,-79.2025 566.2089,-217.76 566.4303,-220.39 564.7034,-340.2625 473.6877,-345.3071 464.5432,-346.0063 463.2708,-346.1303 462.307,-346.2445 447.4575,-348.3176 443.4115,-349.1377 437.5932,-222.7063 442.2148,-221.4463 446.8699,-217.4077 446.5644,-216.9769 443.2499,-214.3755 443.2499,-214.3755 446.5644,-216.9769 446.8699,-217.4077 442.2148,-221.4463 437.5932,-222.7063 432.843,-221.4429 428.5919,-218.0447 428.3648,-217.7281 428.0742,-217.6486 423.9324,-217.6486 423.9324,-217.6486 428.0742,-217.6486 428.3648,-217.7281 428.5919,-218.0447 432.843,-221.4429 437.5932,-222.7063 443.4115,-349.1377 432.3912,-351.6057 424.3852,-353.567 411.1671,-357.6432 399.7191,-361.4136 383.2316,-367.5272 358.8771,-361.5278 337.6033,-366.4843 278.4314,-372.0651 263.9829,-373.7327 255.9985,-374.9894 251.763,-375.8345 240.3207,-373.1692 240.8071,-286.7052 235.0844,-242.4238 240.975,-244.1746 240.975,-244.1746 235.0844,-242.4238 240.8071,-286.7052 240.3207,-373.1692 222.8494,-370.2286 221.5548,-370.0389 216.5572,-369.4141 216.0739,-324.6336 216.2941,-315.0365 216.2941,-315.0365 216.0739,-324.6336 216.5572,-369.4141 192.4818,-367.9536 129.7819,-387.4817 113.1788,-393.0296 102.761,-396.9719 102.5031,-397.0751 98.5235,-398.7567 82.1823,-406.396 80.4659,-407.3521 60.3695,-405.2207 50.5129,-404.7077 45.6982,-404.5437 44.1341,-404.5465 -37.8865,-380.152 -99.2583,-290.1963 -100.9614,-269.4373 -100.9614,-269.4373"/>
<polyline fill="none" stroke="#000000" points="872.738,-401.0522 876.4728,-399.7909 890.1185,-395.8052 975.6799,-374.7472 1026.6764,-397.2692 1043.962,-378.8677 1045.921,-376.8728 1059.3436,-362.4114 1063.4739,-357.662 1074.7634,-346.6574 1083.5206,-338.6422 1087.3287,-335.8275 1088.6407,-334.7607 1102.2772,-324.4905 1151.7111,-290.5593 1153.0261,-283.0263 1153.7877,-271.0651 1153.8307,-265.7309 1154.3615,-257.3767 1155.0725,-253.303 1143.7404,-243.5343 1135.3101,-237.0261 1132.0161,-234.7999 1131.2815,-234.3718 1120.392,-228.9782 1117.0342,-227.6372 1113.476,-226.5472 1111.4744,-226.117 1106.0181,-225.437 1096.37,-225.1228 1094.7865,-225.2176 1094.3818,-225.1669 1085.4662,-224.8684 1083.745,-224.6528 1081.9703,-224.2659 1072.6604,-221.3357 1067.8932,-219.3914 1059.8075,-215.3414 1053.3457,-210.9238 1039.6595,-200.3044 1005.0388,-179.3912 1005.0177,-171.06 1005.8102,-159.3151 1007.7976,-97.5217 946.9671,-21.9644 912.1702,-23.4055 891.0349,-22.8771 882.8192,-22.399 879.2567,-24.3021 864.5382,-30.9421 849.1985,-37.5416 824.071,-47.8106 757.1164,-80.6617 712.9561,-75.3261 702.4507,-73.864 684.168,-70.3118 677.2154,-68.7076 670.8278,-66.9999 669.2065,-66.6827 657.6279,-64.0059 648.4512,-65.7086 568.205,-79.2025 566.2089,-217.76 566.4303,-220.39 564.7034,-340.2625 583.3787,-353.8114 651.1122,-357.4261 665.1536,-358.446 667.0667,-358.1042 674.2376,-357.1043 683.553,-355.9879 697.035,-354.9014 697.4806,-354.8743 714.3535,-354.8375 735.8811,-355.2121 834.5136,-416.9518 839.47,-414.4867 855.1809,-407.3869 872.738,-401.0522 "/>
<polyline fill="none" stroke="#000000" points="1113.476,-226.5472 1117.0342,-227.6372 1120.392,-228.9782 1131.2815,-234.3718 1132.0161,-234.7999 1135.3101,-237.0261 1143.7404,-243.5343 1155.0725,-253.303 1154.3615,-257.3767 1153.8307,-265.7309 1153.7877,-271.0651 1153.0261,-283.0263 1151.7111,-290.5593 1102.2772,-324.4905 1088.6407,-334.7607 1087.3287,-335.8275 1083.5206,-338.6422 1074.7634,-346.6574 1063.4739,-357.662 1059.3436,-362.4114 1045.921,-376.8728 1043.962,-378.8677 1026.6764,-397.2692 1037.7391,-413.7811 1117.4481,-500.2658 1118.4807,-515.978 1130.1309,-535.4651 1133.5433,-540.0502 1211.0178,-649.5559 1250.7416,-652.3104 1272.0515,-654.187 1275.8356,-654.6608 1280.7529,-654.6047 1288.019,-654.9208 1290.5094,-654.8372 1297.9518,-654.7237 1311.8032,-654.7664 1359.9492,-656.6761 1365.4105,-653.9565 1413.7306,-617.7284 1418.0121,-613.9819 1436.2517,-519.4282 1443.4817,-489.7078 1439.1018,-470.7482 1424.4625,-399.814 1417.9211,-387.1622 1429.4901,-345.79 1434.8232,-286.4159 1437.8663,-264.0548 1445.524,-215.8653 1435.9934,-209.8895 1423.3219,-202.2424 1413.2252,-196.6354 1403.4553,-191.6808 1395.8146,-188.1743 1393.61,-187.2157 1299.2272,-208.2858 1287.3939,-209.933 1284.8585,-210.1785 1281.2451,-210.3762 1275.1473,-210.4537 1273.7614,-210.527 1271.6451,-210.4608 1266.9077,-210.1117 1265.3481,-210.0598 1256.4869,-210.4812 1253.5311,-210.4964 1250.0195,-210.2176 1246.7662,-210.3533 1237.3918,-210.3481 1237.2704,-210.3529 1235.3228,-210.3481 1232.2494,-210.0809 1225.6692,-210.0397 1222.3956,-210.2836 1219.1361,-210.3883 1214.0447,-210.3372 1212.771,-210.4269 1206.3488,-210.338 1203.4574,-210.4143 1188.2581,-191.5449 1186.4728,-188.9887 1168.563,-153.5241 1157.0179,-134.7616 1144.7783,-119.5666 1133.7634,-104.7344 1133.3434,-104.0397 1137.3463,-101.3442 1148.2163,-95.0713 1162.6451,-88.1437 1210.0732,-67.785 1227.7162,-57.7684 1228.8939,-56.9959 1240.8098,-48.6282 1242.2778,-47.5335 1244.7976,-45.5419 1246.2281,-44.346 1254.1395,-37.3592 1258.0116,-33.5758 1259.0477,-32.6804 1266.6841,15.3798 1275.7234,63.4915 1238.7871,84.4332 1206.2283,98.507 1163.2629,108.6651 1151.4363,111.7356 1142.1003,114.373 1127.4922,119.5052 1123.0638,121.1613 1107.4106,128.0985 1103.0996,128.8161 1099.8198,129.4252 1073.1628,134.8896 1022.0441,84.9608 951.3214,-16.2519 947.3884,-21.4313 946.9671,-21.9644 1007.7976,-97.5217 1005.8102,-159.3151 1005.0177,-171.06 1005.0388,-179.3912 1039.6595,-200.3044 1053.3457,-210.9238 1059.8075,-215.3414 1067.8932,-219.3914 1072.6604,-221.3357 1081.9703,-224.2659 1083.745,-224.6528 1085.4662,-224.8684 1094.3818,-225.1669 1094.7865,-225.2176 1096.37,-225.1228 1106.0181,-225.437 1111.4744,-226.117 1113.476,-226.5472 "/>
<polyline fill="none" stroke="#000000" points="1237.2704,-210.3529 1235.3228,-210.3481 1232.2494,-210.0809 1225.6692,-210.0397 1222.3956,-210.2836 1219.1361,-210.3883 1214.0447,-210.3372 1212.771,-210.4269 1206.3488,-210.338 1203.4574,-210.4143 1188.2581,-191.5449 1186.4728,-188.9887 1168.563,-153.5241 1157.0179,-134.7616 1144.7783,-119.5666 1133.7634,-104.7344 1133.3434,-104.0397 1137.3463,-101.3442 1148.2163,-95.0713 1162.6451,-88.1437 1210.0732,-67.785 1227.7162,-57.7684 1228.8939,-56.9959 1240.8098,-48.6282 1242.2778,-47.5335 1244.7976,-45.5419 1246.2281,-44.346 1254.1395,-37.3592 1258.0116,-33.5758 1259.0477,-32.6804 1266.6841,15.3798 1275.7234,63.4915 1324.312,79.1737 1357.6382,72.8364 1371.438,70.5092 1388.3206,69.1206 1400.9835,68.6272 1406.3984,68.7675 1416.7146,69.2582 1431.8282,70.6316 1457.3958,74.0558 1501.8711,70.6786 1504.4141,69.2879 1540.1252,25.0746 1561.1907,-55.295 1567.4606,-73.837 1573.0238,-126.4837 1488.3883,-193.0482 1445.524,-215.8653 1435.9934,-209.8895 1423.3219,-202.2424 1413.2252,-196.6354 1403.4553,-191.6808 1395.8146,-188.1743 1393.61,-187.2157 1299.2272,-208.2858 1287.3939,-209.933 1284.8585,-210.1785 1281.2451,-210.3762 1275.1473,-210.4537 1273.7614,-210.527 1271.6451,-210.4608 1266.9077,-210.1117 1265.3481,-210.0598 1256.4869,-210.4812 1253.5311,-210.4964 1250.0195,-210.2176 1246.7662,-210.3533 1237.3918,-210.3481 1237.2704,-210.3529 "/>
<polyline fill="none" stroke="#000000" points="321.307,-33.895 332.6278,-30.6326 340.5487,-28.0312 348.2313,-32.0458 350.5468,-33.1484 364.6595,-39.547 458.6485,-79.9499 463.2266,-79.8552 477.4582,-78.7355 551.8423,-71.4506 568.205,-79.2025 566.2089,-217.76 566.4303,-220.39 564.7034,-340.2625 473.6877,-345.3071 464.5432,-346.0063 463.2708,-346.1303 462.307,-346.2445 447.4575,-348.3176 443.4115,-349.1377 432.3912,-351.6057 424.3852,-353.567 411.1671,-357.6432 399.7191,-361.4136 383.2316,-367.5272 358.8771,-361.5278 337.6033,-366.4843 278.4314,-372.0651 263.9829,-373.7327 255.9985,-374.9894 251.763,-375.8345 240.3207,-373.1692 222.8494,-370.2286 221.5548,-370.0389 216.5572,-369.4141 192.4818,-367.9536 129.7819,-387.4817 113.1788,-393.0296 102.761,-396.9719 102.5031,-397.0751 98.5235,-398.7567 82.1823,-406.396 80.4659,-407.3521 60.3695,-405.2207 50.5129,-404.7077 45.6982,-404.5437 44.1341,-404.5465 -37.8865,-380.152 -99.2583,-290.1963 -100.9614,-269.4373 -104.7047,-239.4128 -110.5588,-199.2083 -109.1737,-193.2045 -70.5438,-155.8661 24.1483,-106.862 38.136,-105.7474 38.466,-105.7878 41.8528,-106.1448 58.7817,-107.6396 66.0529,-108.0315 76.2503,-108.2308 78.6433,-108.2364 87.6052,-108.1038 96.5851,-107.5084 101.8827,-107.0661 113.026,-105.9443 124.0817,-104.2622 138.5574,-90.7966 237.0402,-42.182 254.3633,-41.2692 257.0558,-41.3 277.3782,-40.7203 286.5462,-39.9096 303.8089,-37.6929 306.0356,-37.363 306.2736,-37.323 321.307,-33.895 "/>
<!-- filesystem&#45;&gt;setup -->
<g id="edge1" class="edge">
<title>filesystem&#45;&gt;setup</title>
<path fill="none" stroke="#444444" stroke-opacity="0.333333" d="M806.8864,-251.3548C788.2649,-246.6395 767.49,-241.379 748.4244,-236.5513"/>
<polygon fill="#444444" fill-opacity="0.333333" stroke="#444444" stroke-opacity="0.333333" points="749.1839,-233.1332 738.6307,-234.0714 747.4655,-239.9191 749.1839,-233.1332"/>
</g>
<!-- filesystem&#45;&gt;bash -->
<g id="edge2" class="edge">
<title>filesystem&#45;&gt;bash</title>
<path fill="none" stroke="#444444" stroke-opacity="0.333333" d="M921.2737,-270.396C950.8187,-270.4888 986.8444,-269.536 1016.6451,-267.8808"/>
<polygon fill="#444444" fill-opacity="0.333333" stroke="#444444" stroke-opacity="0.333333" points="1017.1326,-271.358 1026.9055,-267.2666 1016.7143,-264.3705 1017.1326,-271.358"/>
</g>
<!-- setup&#45;&gt;setup -->
<g id="edge3" class="edge">
<title>setup&#45;&gt;setup</title>
<path fill="none" stroke="#444444" stroke-opacity="0.333333" d="M738.6073,-226.8397C749.1286,-226.0907 756.6,-223.9408 756.6,-220.39 756.6,-218.1153 753.5337,-216.4155 748.5636,-215.2906"/>
<polygon fill="#444444" fill-opacity="0.333333" stroke="#444444" stroke-opacity="0.333333" points="748.9869,-211.8161 738.6073,-213.9403 748.0462,-218.7526 748.9869,-211.8161"/>
</g>
<!-- setup&#45;&gt;fedora&#45;release -->
<g id="edge4" class="edge">
<title>setup&#45;&gt;fedora&#45;release</title>
<path fill="none" stroke="#444444" stroke-opacity="0.333333" d="M630.4365,-219.8128C599.4403,-219.4825 559.8271,-219.0604 524.5915,-218.685"/>
<polygon fill="#444444" fill-opacity="0.333333" stroke="#444444" stroke-opacity="0.333333" points="524.3341,-215.1821 514.2974,-218.5753 524.2595,-222.1817 524.3341,-215.1821"/>
</g>
<!-- bash&#45;&gt;filesystem -->
<g id="edge5" class="edge">
<title>bash&#45;&gt;filesystem</title>
<path fill="none" stroke="#444444" stroke-opacity="0.333333" d="M1026.8696,-255.6912C998.5997,-255.3904 962.5534,-256.1768 931.5818,-257.7034"/>
<polygon fill="#444444" fill-opacity="0.333333" stroke="#444444" stroke-opacity="0.333333" points="931.0921,-254.2243 921.2914,-258.2489 931.4627,-261.2145 931.0921,-254.2243"/>
</g>
<!-- bash&#45;&gt;bash -->
<g id="edge6" class="edge">
<title>bash&#45;&gt;bash</title>
<path fill="none" stroke="#444444" stroke-opacity="0.333333" d="M1124.2141,-266.6921C1134.5419,-266.0288 1142,-263.8514 1142,-260.16 1142,-257.8529 1139.0867,-256.1372 1134.3803,-255.0129"/>
<polygon fill="#444444" fill-opacity="0.333333" stroke="#444444" stroke-opacity="0.333333" points="1134.5951,-251.5099 1124.2141,-253.6279 1133.6501,-258.4458 1134.5951,-251.5099"/>
</g>
<!-- bash&#45;&gt;glibc -->
<g id="edge7" class="edge">
<title>bash&#45;&gt;glibc</title>
<path fill="none" stroke="#444444" stroke-opacity="0.333333" d="M1086.5221,-242.0663C1091.1785,-234.4224 1096.6999,-225.3585 1101.8232,-216.9482"/>
<polygon fill="#444444" fill-opacity="0.333333" stroke="#444444" stroke-opacity="0.333333" points="1104.9532,-218.5376 1107.1665,-208.1766 1098.975,-214.8959 1104.9532,-218.5376"/>
</g>
<!-- bash&#45;&gt;ncurses&#45;libs -->
<g id="edge8" class="edge">
<title>bash&#45;&gt;ncurses&#45;libs</title>
<path fill="none" stroke="#444444" stroke-opacity="0.333333" d="M1100.9505,-241.9025C1129.4095,-221.4868 1175.6214,-188.3356 1207.0472,-165.7916"/>
<polygon fill="#444444" fill-opacity="0.333333" stroke="#444444" stroke-opacity="0.333333" points="1209.4064,-168.4067 1215.4917,-159.7337 1205.3261,-162.7188 1209.4064,-168.4067"/>
</g>
<!-- fedora&#45;release&#45;&gt;fedora&#45;release&#45;common -->
<g id="edge21" class="edge">
<title>fedora&#45;release&#45;&gt;fedora&#45;release&#45;common</title>
<path fill="none" stroke="#444444" stroke-opacity="0.333333" d="M418.9616,-199.6913C415.0292,-197.5134 410.6382,-195.3005 405.9359,-193.1063"/>
<polygon fill="#444444" fill-opacity="0.333333" stroke="#444444" stroke-opacity="0.333333" points="407.1071,-189.7964 396.5482,-188.9238 404.2583,-196.1906 407.1071,-189.7964"/>
</g>
<!-- glibc&#45;&gt;glibc -->
<g id="edge9" class="edge">
<title>glibc&#45;&gt;glibc</title>
<path fill="none" stroke="#444444" stroke-opacity="0.333333" d="M1171.5572,-196.3497C1181.9323,-195.6007 1189.3,-193.4508 1189.3,-189.9 1189.3,-187.6808 1186.422,-186.0087 1181.7305,-184.884"/>
<polygon fill="#444444" fill-opacity="0.333333" stroke="#444444" stroke-opacity="0.333333" points="1181.9478,-181.3801 1171.5572,-183.4503 1180.9709,-188.3116 1181.9478,-181.3801"/>
</g>
<!-- glibc&#45;&gt;basesystem -->
<g id="edge10" class="edge">
<title>glibc&#45;&gt;basesystem</title>
<path fill="none" stroke="#444444" stroke-opacity="0.333333" d="M1065.2584,-188.6151C1034.2477,-187.8639 994.6691,-186.9052 960.815,-186.0851"/>
<polygon fill="#444444" fill-opacity="0.333333" stroke="#444444" stroke-opacity="0.333333" points="960.59,-182.5787 950.5081,-185.8355 960.4204,-189.5767 960.59,-182.5787"/>
</g>
<!-- glibc&#45;&gt;glibc&#45;common -->
<g id="edge11" class="edge">
<title>glibc&#45;&gt;glibc&#45;common</title>
<path fill="none" stroke="#444444" stroke-opacity="0.333333" d="M1121.6501,-208.1114C1131.2293,-237.3024 1155.9768,-294.6235 1173.3408,-328.6307"/>
<polygon fill="#444444" fill-opacity="0.333333" stroke="#444444" stroke-opacity="0.333333" points="1170.2802,-330.3306 1178.0239,-337.5615 1176.4796,-327.0798 1170.2802,-330.3306"/>
</g>
<!-- glibc&#45;&gt;glibc&#45;minimal&#45;langpack -->
<g id="edge12" class="edge">
<title>glibc&#45;&gt;glibc&#45;minimal&#45;langpack</title>
<path fill="none" stroke="#444444" stroke-opacity="0.333333" d="M1136.9966,-208.0728C1155.1656,-221.8553 1183.4317,-240.7193 1207.8274,-255.5978"/>
<polygon fill="#444444" fill-opacity="0.333333" stroke="#444444" stroke-opacity="0.333333" points="1206.2408,-258.7279 1216.6143,-260.8823 1209.8485,-252.7291 1206.2408,-258.7279"/>
</g>
<!-- glibc&#45;&gt;libgcc -->
<g id="edge13" class="edge">
<title>glibc&#45;&gt;libgcc</title>
<path fill="none" stroke="#444444" stroke-opacity="0.333333" d="M1119.6456,-171.8286C1121.8735,-141.9089 1126.3449,-81.8601 1128.994,-46.2825"/>
<polygon fill="#444444" fill-opacity="0.333333" stroke="#444444" stroke-opacity="0.333333" points="1132.5009,-46.3195 1129.7532,-36.0872 1125.5202,-45.7997 1132.5009,-46.3195"/>
</g>
<!-- ncurses&#45;libs&#45;&gt;glibc -->
<g id="edge14" class="edge">
<title>ncurses&#45;libs&#45;&gt;glibc</title>
<path fill="none" stroke="#444444" stroke-opacity="0.333333" d="M1194.7745,-159.7538C1187.8723,-162.4746 1180.6932,-165.3046 1173.6198,-168.093"/>
<polygon fill="#444444" fill-opacity="0.333333" stroke="#444444" stroke-opacity="0.333333" points="1172.0955,-164.9317 1164.0758,-171.8552 1174.6626,-171.444 1172.0955,-164.9317"/>
</g>
<!-- ncurses&#45;libs&#45;&gt;ncurses&#45;libs -->
<g id="edge15" class="edge">
<title>ncurses&#45;libs&#45;&gt;ncurses&#45;libs</title>
<path fill="none" stroke="#444444" stroke-opacity="0.333333" d="M1315.0601,-147.7074C1325.6164,-146.7277 1332.7,-144.7086 1332.7,-141.65 1332.7,-139.7384 1329.933,-138.2328 1325.2805,-137.1332"/>
<polygon fill="#444444" fill-opacity="0.333333" stroke="#444444" stroke-opacity="0.333333" points="1325.4702,-133.6224 1315.0601,-135.5926 1324.4267,-140.5442 1325.4702,-133.6224"/>
</g>
<!-- ncurses&#45;libs&#45;&gt;ncurses&#45;base -->
<g id="edge16" class="edge">
<title>ncurses&#45;libs&#45;&gt;ncurses&#45;base</title>
<path fill="none" stroke="#444444" stroke-opacity="0.333333" d="M1273.0673,-123.5472C1296.5366,-110.4209 1328.4655,-92.5633 1353.7773,-78.4066"/>
<polygon fill="#444444" fill-opacity="0.333333" stroke="#444444" stroke-opacity="0.333333" points="1355.7561,-81.3101 1362.7753,-73.374 1352.3391,-75.2007 1355.7561,-81.3101"/>
</g>
<!-- basesystem&#45;&gt;filesystem -->
<g id="edge25" class="edge">
<title>basesystem&#45;&gt;filesystem</title>
<path fill="none" stroke="#444444" stroke-opacity="0.333333" d="M883.0003,-202.4264C879.905,-212.8775 875.9464,-226.2433 872.4616,-238.0095"/>
<polygon fill="#444444" fill-opacity="0.333333" stroke="#444444" stroke-opacity="0.333333" points="869.0387,-237.242 869.5547,-247.8242 875.7505,-239.2299 869.0387,-237.242"/>
</g>
<!-- basesystem&#45;&gt;setup -->
<g id="edge26" class="edge">
<title>basesystem&#45;&gt;setup</title>
<path fill="none" stroke="#444444" stroke-opacity="0.333333" d="M826.1181,-195.3451C801.6367,-199.6777 773.5376,-204.6505 748.8631,-209.0172"/>
<polygon fill="#444444" fill-opacity="0.333333" stroke="#444444" stroke-opacity="0.333333" points="748.1148,-205.5951 738.8778,-210.7843 749.3347,-212.488 748.1148,-205.5951"/>
</g>
<!-- glibc&#45;common&#45;&gt;bash -->
<g id="edge27" class="edge">
<title>glibc&#45;common&#45;&gt;bash</title>
<path fill="none" stroke="#444444" stroke-opacity="0.333333" d="M1169.0035,-337.5372C1150.9403,-322.5893 1125.1835,-301.2747 1105.275,-284.7998"/>
<polygon fill="#444444" fill-opacity="0.333333" stroke="#444444" stroke-opacity="0.333333" points="1107.3502,-281.9741 1097.4146,-278.2951 1102.8874,-287.367 1107.3502,-281.9741"/>
</g>
<!-- glibc&#45;common&#45;&gt;glibc -->
<g id="edge28" class="edge">
<title>glibc&#45;common&#45;&gt;glibc</title>
<path fill="none" stroke="#444444" stroke-opacity="0.333333" d="M1187.6499,-337.5286C1178.0707,-308.3376 1153.3232,-251.0165 1135.9592,-217.0093"/>
<polygon fill="#444444" fill-opacity="0.333333" stroke="#444444" stroke-opacity="0.333333" points="1139.0198,-215.3094 1131.2761,-208.0785 1132.8204,-218.5602 1139.0198,-215.3094"/>
</g>
<!-- glibc&#45;common&#45;&gt;tzdata -->
<g id="edge29" class="edge">
<title>glibc&#45;common&#45;&gt;tzdata</title>
<path fill="none" stroke="#444444" stroke-opacity="0.333333" d="M1202.514,-373.846C1218.8464,-399.5291 1248.8567,-446.721 1267.7967,-476.5047"/>
<polygon fill="#444444" fill-opacity="0.333333" stroke="#444444" stroke-opacity="0.333333" points="1264.9723,-478.5857 1273.2918,-485.1459 1270.8791,-474.8294 1264.9723,-478.5857"/>
</g>
<!-- glibc&#45;minimal&#45;langpack&#45;&gt;glibc -->
<g id="edge30" class="edge">
<title>glibc&#45;minimal&#45;langpack&#45;&gt;glibc</title>
<path fill="none" stroke="#444444" stroke-opacity="0.333333" d="M1236.9034,-260.8572C1218.7344,-247.0747 1190.4683,-228.2107 1166.0726,-213.3322"/>
<polygon fill="#444444" fill-opacity="0.333333" stroke="#444444" stroke-opacity="0.333333" points="1167.6592,-210.2021 1157.2857,-208.0477 1164.0515,-216.2009 1167.6592,-210.2021"/>
</g>
<!-- glibc&#45;minimal&#45;langpack&#45;&gt;glibc&#45;common -->
<g id="edge31" class="edge">
<title>glibc&#45;minimal&#45;langpack&#45;&gt;glibc&#45;common</title>
<path fill="none" stroke="#444444" stroke-opacity="0.333333" d="M1240.2907,-297.2092C1232.0847,-306.9535 1221.8333,-319.1267 1212.8079,-329.8439"/>
<polygon fill="#444444" fill-opacity="0.333333" stroke="#444444" stroke-opacity="0.333333" points="1209.9638,-327.7877 1206.1994,-337.6913 1215.3181,-332.2968 1209.9638,-327.7877"/>
</g>
<!-- fedora&#45;release&#45;common&#45;&gt;fedora&#45;release -->
<g id="edge18" class="edge">
<title>fedora&#45;release&#45;common&#45;&gt;fedora&#45;release</title>
<path fill="none" stroke="#444444" stroke-opacity="0.333333" d="M327.8284,-188.9187C334.6848,-192.7161 342.9357,-196.6199 351.7994,-200.3454"/>
<polygon fill="#444444" fill-opacity="0.333333" stroke="#444444" stroke-opacity="0.333333" points="350.6424,-203.6527 361.2255,-204.1513 353.2632,-197.1618 350.6424,-203.6527"/>
</g>
<!-- fedora&#45;release&#45;common&#45;&gt;fedora&#45;release -->
<g id="edge19" class="edge">
<title>fedora&#45;release&#45;common&#45;&gt;fedora&#45;release</title>
<path fill="none" stroke="#444444" stroke-dasharray="5,2" stroke-opacity="0.333333" d="M358.4252,-188.8525C365.0024,-191.2481 371.8001,-193.7241 378.5228,-196.1727"/>
<polygon fill="#444444" fill-opacity="0.333333" stroke="#444444" stroke-opacity="0.333333" points="377.6902,-199.5944 388.2842,-199.7282 380.086,-193.0171 377.6902,-199.5944"/>
</g>
<!-- fedora&#45;release&#45;common&#45;&gt;fedora&#45;release&#45;common -->
<g id="edge17" class="edge">
<title>fedora&#45;release&#45;common&#45;&gt;fedora&#45;release&#45;common</title>
<path fill="none" stroke="#444444" stroke-opacity="0.333333" d="M417.4304,-176.3537C428.1696,-175.251 435,-173.4164 435,-170.85 435,-169.2059 432.1968,-167.8621 427.3585,-166.8187"/>
<polygon fill="#444444" fill-opacity="0.333333" stroke="#444444" stroke-opacity="0.333333" points="427.8357,-163.3513 417.4304,-165.3463 426.8087,-170.2755 427.8357,-163.3513"/>
</g>
<!-- fedora&#45;release&#45;common&#45;&gt;fedora&#45;repos -->
<g id="edge20" class="edge">
<title>fedora&#45;release&#45;common&#45;&gt;fedora&#45;repos</title>
<path fill="none" stroke="#444444" stroke-opacity="0.333333" d="M291.1391,-188.8791C283.4717,-196.6186 274.379,-205.797 266.0571,-214.1971"/>
<polygon fill="#444444" fill-opacity="0.333333" stroke="#444444" stroke-opacity="0.333333" points="263.5491,-211.7557 258.9977,-221.3231 268.522,-216.6822 263.5491,-211.7557"/>
</g>
<!-- fedora&#45;repos&#45;&gt;fedora&#45;release -->
<g id="edge22" class="edge">
<title>fedora&#45;repos&#45;&gt;fedora&#45;release</title>
<path fill="none" stroke="#444444" stroke-opacity="0.333333" d="M309.2884,-231.9378C322.7757,-230.4497 337.0987,-228.8695 351.1012,-227.3245"/>
<polygon fill="#444444" fill-opacity="0.333333" stroke="#444444" stroke-opacity="0.333333" points="351.6681,-230.7833 361.2239,-226.2077 350.9004,-223.8255 351.6681,-230.7833"/>
</g>
<!-- fedora&#45;repos&#45;&gt;fedora&#45;repos -->
<g id="edge23" class="edge">
<title>fedora&#45;repos&#45;&gt;fedora&#45;repos</title>
<path fill="none" stroke="#444444" stroke-opacity="0.333333" d="M309.1492,-245.656C319.7755,-244.7312 327.02,-242.6692 327.02,-239.47 327.02,-237.4205 324.0468,-235.8377 319.1161,-234.7217"/>
<polygon fill="#444444" fill-opacity="0.333333" stroke="#444444" stroke-opacity="0.333333" points="319.5465,-231.2476 309.1492,-233.284 318.5471,-238.1759 319.5465,-231.2476"/>
</g>
<!-- fedora&#45;repos&#45;&gt;fedora&#45;gpg&#45;keys -->
<g id="edge24" class="edge">
<title>fedora&#45;repos&#45;&gt;fedora&#45;gpg&#45;keys</title>
<path fill="none" stroke="#444444" stroke-opacity="0.333333" d="M172.6292,-248.1606C172.5041,-248.1765 172.3789,-248.1924 172.2537,-248.2083"/>
<polygon fill="#444444" fill-opacity="0.333333" stroke="#444444" stroke-opacity="0.333333" points="179.099,-243.81 169.6201,-248.543 179.9816,-250.7541 179.099,-243.81"/>
</g>
<!-- filesystem -->
<g id="node1" class="node">
<title>filesystem</title>
<text text-anchor="middle" x="864.21" y="-262.17" font-family="Helvetica,sans-Serif" font-weight="bold" font-size="14.00" fill="#000000">filesystem (0.0 B)</text>
</g>
<!-- setup -->
<g id="node2" class="node">
<title>setup</title>
<text text-anchor="middle" x="684.6" y="-216.69" font-family="Helvetica,sans-Serif" font-weight="bold" font-size="14.00" fill="#000000">setup (709.7 kB)</text>
</g>
<!-- bash -->
<g id="node3" class="node">
<title>bash</title>
<text text-anchor="middle" x="1075.5" y="-256.46" font-family="Helvetica,sans-Serif" font-weight="bold" font-size="14.00" fill="#000000">bash (7.2 MB)</text>
</g>
<!-- fedora&#45;release -->
<g id="node4" class="node">
<title>fedora&#45;release</title>
<text text-anchor="middle" x="437.79" y="-214.06" font-family="Helvetica,sans-Serif" font-weight="bold" font-size="14.00" fill="#000000">fedora&#45;release (691.0 B)</text>
</g>
<!-- glibc -->
<g id="node5" class="node">
<title>glibc</title>
<text text-anchor="middle" x="1118.3" y="-186.2" font-family="Helvetica,sans-Serif" font-weight="bold" font-size="14.00" fill="#000000">glibc (16.5 MB)</text>
</g>
<!-- ncurses&#45;libs -->
<g id="node6" class="node">
<title>ncurses&#45;libs</title>
<text text-anchor="middle" x="1240.7" y="-137.95" font-family="Helvetica,sans-Serif" font-weight="bold" font-size="14.00" fill="#000000">ncurses&#45;libs (976.2 kB)</text>
</g>
<!-- basesystem -->
<g id="node7" class="node">
<title>basesystem</title>
<text text-anchor="middle" x="888.36" y="-180.63" font-family="Helvetica,sans-Serif" font-weight="bold" font-size="14.00" fill="#000000">basesystem (0.0 B)</text>
</g>
<!-- glibc&#45;common -->
<g id="node8" class="node">
<title>glibc&#45;common</title>
<text text-anchor="middle" x="1191" y="-352.04" font-family="Helvetica,sans-Serif" font-weight="bold" font-size="14.00" fill="#000000">glibc&#45;common (7.8 MB)</text>
</g>
<!-- glibc&#45;minimal&#45;langpack -->
<g id="node9" class="node">
<title>glibc&#45;minimal&#45;langpack</title>
<text text-anchor="middle" x="1255.6" y="-275.33" font-family="Helvetica,sans-Serif" font-weight="bold" font-size="14.00" fill="#000000">glibc&#45;minimal&#45;langpack (0.0 B)</text>
</g>
<!-- libgcc -->
<g id="node10" class="node">
<title>libgcc</title>
<text text-anchor="middle" x="1131.1" y="-14.3" font-family="Helvetica,sans-Serif" font-weight="bold" font-size="14.00" fill="#000000">libgcc (194.2 kB)</text>
</g>
<!-- ncurses&#45;base -->
<g id="node11" class="node">
<title>ncurses&#45;base</title>
<text text-anchor="middle" x="1395.1" y="-51.595" font-family="Helvetica,sans-Serif" font-weight="bold" font-size="14.00" fill="#000000">ncurses&#45;base (278.5 kB)</text>
</g>
<!-- fedora&#45;release&#45;common -->
<g id="node12" class="node">
<title>fedora&#45;release&#45;common</title>
<text text-anchor="middle" x="309" y="-167.15" font-family="Helvetica,sans-Serif" font-weight="bold" font-size="14.00" fill="#000000">fedora&#45;release&#45;common (14.2 kB)</text>
</g>
<!-- fedora&#45;repos -->
<g id="node13" class="node">
<title>fedora&#45;repos</title>
<text text-anchor="middle" x="241.02" y="-235.77" font-family="Helvetica,sans-Serif" font-weight="bold" font-size="14.00" fill="#000000">fedora&#45;repos (8.4 kB)</text>
</g>
<!-- fedora&#45;gpg&#45;keys -->
<g id="node14" class="node">
<title>fedora&#45;gpg&#45;keys</title>
<text text-anchor="middle" x="83" y="-255.85" font-family="Helvetica,sans-Serif" font-weight="bold" font-size="14.00" fill="#000000">fedora&#45;gpg&#45;keys (103.0 kB)</text>
</g>
<!-- tzdata -->
<g id="node15" class="node">
<title>tzdata</title>
<text text-anchor="middle" x="1284.9" y="-499.7" font-family="Helvetica,sans-Serif" font-weight="bold" font-size="14.00" fill="#000000">tzdata (1.8 MB)</text>
</g>
</g>

<script type="text/javascript"><![CDATA[

document.addEventListener('click', function(e) {
      e = e || window.event;
      var target = e.target || e.srcElement;
      text = target.parentElement.querySelector("title").textContent;

      console.log("Clicked on: " + text);
      // reset all strokes
      var nodes = document.getElementsByClassName("edge");

      for (index = 0, len = nodes.length; index < len; ++index) {
          //var title = nodes[index].querySelector("title").textContent.split("->");
          id = nodes[index].id;
          document.getElementById(id).querySelector("path").setAttribute("stroke-width", "1");
          document.getElementById(id).querySelector("path").setAttribute("stroke-opacity", "0.5");
          document.getElementById(id).querySelector("path").setAttribute("stroke", "#444444");
          document.getElementById(id).querySelector("polygon").setAttribute("stroke-width", "1");
          document.getElementById(id).querySelector("polygon").setAttribute("stroke-opacity", "0.5");
          document.getElementById(id).querySelector("polygon").setAttribute("stroke", "#444444");
      }
      // reset text highlight
      pkgs = document.getElementsByClassName("node");
      for (index2 = 0, len2 = pkgs.length; index2 < len2; ++index2) {
          target_id = pkgs[index2].id;
          document.getElementById(target_id).querySelector("text").setAttribute("font-weight", "normal");
      }

      // highlight deps
      var nodes = document.getElementsByClassName("edge");
      for (index = 0, len = nodes.length; index < len; ++index) {
        var title = nodes[index].querySelector("title").textContent.split("->");

        if (title[0] == text) {
          id = nodes[index].id;
          //console.log("ID:   " + id);
          document.getElementById(id).querySelector("path").setAttribute("stroke-width", "3");
          document.getElementById(id).querySelector("path").setAttribute("stroke-opacity", "1");
          document.getElementById(id).querySelector("path").setAttribute("stroke", "#aa3333");
          document.getElementById(id).querySelector("polygon").setAttribute("stroke-width", "5");
          document.getElementById(id).querySelector("polygon").setAttribute("stroke-opacity", "1");
          document.getElementById(id).querySelector("polygon").setAttribute("stroke", "#aa3333");

        }
        if (title[1] == text) {
          id = nodes[index].id;
          document.getElementById(id).querySelector("path").setAttribute("stroke-width", "3");
          document.getElementById(id).querySelector("path").setAttribute("stroke-opacity", "1");
          document.getElementById(id).querySelector("path").setAttribute("stroke", "#333377");
          document.getElementById(id).querySelector("polygon").setAttribute("stroke-width", "5");
          document.getElementById(id).querySelector("polygon").setAttribute("stroke-opacity", "1");
          document.getElementById(id).querySelector("polygon").setAttribute("stroke", "#333377");
        }

        if (title[0] == text || title[1] == text) {
          pkgs = document.getElementsByClassName("node");
          for (index2 = 0, len2 = pkgs.length; index2 < len2; ++index2) {
            var pkg_name = pkgs[index2].querySelector("title").textContent;
            if (pkg_name == title[0] || pkg_name == title[1]) {
              target_id = pkgs[index2].id;
              document.getElementById(target_id).querySelector("text").setAttribute("font-weight", "bold");
            }
          }
        }
      }


  }, false);

]]></script>


  <text
     id="text7664"
     y="19.384439"
     x="9.9055691"
     style="font-style:normal;font-weight:normal;font-size:12.49485588px;line-height:125%;font-family:sans-serif;letter-spacing:0px;word-spacing:0px;fill:#000000;fill-opacity:1;stroke:none;stroke-width:0.3123714px;stroke-linecap:butt;stroke-linejoin:miter;stroke-opacity:1"
     xml:space="preserve"><tspan
       style="font-size:12.00258541px;stroke-width:0.3123714px"
       y="19.384439"
       x="9.9055691"
       id="tspan7666"><a href="report-use-case-definition--freeipa-trust-controller--rawhide.html"><tspan
   style="font-weight:bold;font-size:12.00258541px;fill:#0066ff;stroke-width:0.3123714px"
   id="tspan7668">FreeIPA Trust Controller</tspan></a> on <a href="report-base-definition--minimal-langpack-base--rawhide.html"><tspan
   style="font-weight:bold;font-size:12.00258541px;fill:#0066ff;stroke-width:0.3123714px"
   id="tspan7676">Minimal Base</tspan></a> (Fedora rawhide)</tspan></text>
  <text
     xml:space="preserve"
     style="font-style:normal;font-weight:normal;font-size:11.85299969px;line-height:125%;font-family:sans-serif;letter-spacing:0px;word-spacing:0px;fill:#000000;fill-opacity:1;stroke:none;stroke-width:0.296325px;stroke-linecap:butt;stroke-linejoin:miter;stroke-opacity:1"
     x="9.9365959"
     y="58.520042"
     id="text8235"><tspan
       id="tspan8237"
       x="9.9365959"
       y="58.520042"
       style="stroke-width:0.296325px;font-size:10.80232704px;fill:#666666">Generated by <a href="./"><tspan
   style="fill:#3771c8"
   id="tspan8255">Feedback Pipeline</tspan></a></tspan></text>
  <text
     xml:space="preserve"
     style="font-style:normal;font-weight:normal;font-size:12.49485588px;line-height:125%;font-family:sans-serif;letter-spacing:0px;word-spacing:0px;fill:#000000;fill-opacity:1;stroke:none;stroke-width:0.3123714px;stroke-linecap:butt;stroke-linejoin:miter;stroke-opacity:1"
     x="9.9055691"
     y="38.974205"
     id="text8245"><a href="graph-simple--freeipa-trust-controller--minimal-langpack-base--rawhide.svg"><tspan
       id="tspan8247"
       x="9.9055691"
       y="38.974205"
       style="font-weight:normal;font-size:12.00258541px;fill:#0066ff;stroke-width:0.3123714px">Collapse base image</tspan></a></text>

</svg>
