<?xml version="1.0" encoding="UTF-8" standalone="no"?>
<!DOCTYPE svg PUBLIC "-//W3C//DTD SVG 1.1//EN"
 "http://www.w3.org/Graphics/SVG/1.1/DTD/svg11.dtd">
<!-- Generated by graphviz version 2.40.1 (0)
 -->
<!-- Title: packages Pages: 1 -->
<svg width="1645pt" height="1427pt"
 viewBox="0.00 0.00 1974.55 1712.05" xmlns="http://www.w3.org/2000/svg" xmlns:xlink="http://www.w3.org/1999/xlink">
<g id="graph0" class="graph" transform="scale(.8333 .8333) rotate(0) translate(154.7172 1558.3662)">
<title>packages</title>
<polygon fill="#dae2ff" stroke="transparent" points="-154.7172,153.6816 -154.7172,-1558.3662 1819.8358,-1558.3662 1819.8358,153.6816 -154.7172,153.6816"/>
<polygon fill="#fed9a6" stroke="#fed9a6" points="373.0606,-420.7253 379.6104,-414.7421 382.1189,-412.2339 392.0025,-403.8952 395.0573,-401.5609 395.1986,-401.4637 448.2605,-368.7953 455.0293,-364.1354 458.0357,-361.8512 465.9204,-355.2817 468.2359,-353.1886 473.8446,-347.7053 476.7577,-344.6437 478.4373,-344.6664 485.0468,-344.5262 487.054,-344.4139 489.2601,-344.3674 490.0247,-344.3247 491.1957,-344.3001 498.3552,-344.648 504.4116,-344.7317 505.293,-344.7133 517.9932,-345.3306 519.9904,-345.4967 523.7363,-345.9378 582.6981,-354.9237 609.3549,-428.52 615.7968,-442.4824 678.6625,-442.9345 688.9903,-442.7043 694.4119,-442.916 703.9047,-442.7261 703.9185,-442.7267 704.5081,-442.7336 710.1926,-442.9751 712.0568,-443.1117 726.6829,-442.8863 729.2554,-442.6947 729.5939,-442.6903 736.1393,-442.8051 736.484,-442.7909 739.2426,-442.7613 744.9446,-442.8746 760.9801,-442.2473 763.0808,-442.0417 773.1146,-440.7635 776.8088,-440.0754 790.3113,-437.1591 800.4991,-434.0547 810.5961,-437.78 815.7636,-439.2104 867.8195,-452.0503 874.2825,-454.0461 885.0242,-457.6991 898.5877,-463.5868 900.7264,-497.6206 901.5851,-529.7026 903.0046,-543.7272 903.4214,-550.2694 903.8025,-564.5695 908.5069,-639.4302 895.7613,-644.2554 891.9247,-645.6145 889.1926,-646.5162 874.0102,-650.8006 860.6384,-653.6078 849.1144,-655.4711 841.4077,-656.3445 824.5232,-657.4437 822.2032,-657.652 809.8444,-658.4602 800.4003,-659.5406 787.3207,-661.6788 772.7593,-664.7714 765.9282,-666.5527 757.8939,-669.2383 756.7975,-669.632 745.6085,-647.3927 737.7364,-633.6478 725.3,-614.7903 719.2648,-607.0829 707.4337,-593.3349 708.0032,-583.3839 708.0032,-583.3839 707.4337,-593.3349 706.4128,-592.4043 702.141,-587.9194 699.3963,-585.4091 696.2148,-582.9058 694.7714,-581.537 689.3834,-575.3395 687.8293,-573.8867 660.507,-553.4471 656.2755,-549.4877 651.814,-544.4513 650.4526,-543.3962 644.8998,-538.3679 641.5673,-534.426 633.2391,-525.89 624.806,-515.2899 609.1431,-491.805 604.123,-483.1904 599.1734,-474.1341 503.1298,-542.4829 496.1505,-547.7139 495.8246,-547.9831 479.9374,-541.7195 473.849,-539.6631 468.5705,-538.1741 458.959,-525.743 452.226,-518.0181 450.3187,-516.0946 422.2704,-483.0712 386.212,-435.0228 439.2805,-431.9183 448.8844,-434.995 454.4746,-431.7856 456.7938,-428.48 458.8115,-428.48 459.6023,-428.2469 464.3923,-428.2469 465.6959,-428.6308 465.7553,-428.7206 469.1022,-431.5244 469.1022,-431.5244 465.7553,-428.7206 465.6959,-428.6308 464.3923,-428.2469 459.6023,-428.2469 458.8115,-428.48 456.7938,-428.48 454.4746,-431.7856 448.8844,-434.995 439.2805,-431.9183 386.212,-435.0228 373.0606,-420.7253 373.0606,-420.7253"/>
<polygon fill="#fbb4ae" stroke="#fbb4ae" points="693.8682,-263.1722 692.2422,-263.129 689.1225,-262.9291 684.3695,-262.9789 668.5682,-263.7352 656.1908,-265.7108 651.7667,-266.7468 639.1431,-270.1794 625.5478,-274.888 615.4844,-279.4947 613.3079,-284.2454 588.0768,-344.78 582.6981,-354.9237 609.3549,-428.52 615.7968,-442.4824 678.6625,-442.9345 688.9903,-442.7043 689.5741,-405.7562 689.5741,-405.7562 688.9903,-442.7043 694.4119,-442.916 703.9047,-442.7261 702.3804,-390.6134 702.3804,-390.6134 703.9047,-442.7261 703.9185,-442.7267 704.5081,-442.7336 709.796,-348.2335 715.1671,-349.8329 719.6926,-348.5269 723.7264,-344.7477 719.8839,-341.1742 715.4041,-339.8618 715.4041,-339.8618 719.8839,-341.1742 723.7264,-344.7477 719.6926,-348.5269 715.1671,-349.8329 709.796,-348.2335 704.5081,-442.7336 710.1926,-442.9751 712.0568,-443.1117 726.6829,-442.8863 729.2554,-442.6947 729.5939,-442.6903 736.1393,-442.8051 736.484,-442.7909 739.2426,-442.7613 744.9446,-442.8746 760.9801,-442.2473 763.0808,-442.0417 773.1146,-440.7635 776.8088,-440.0754 790.3113,-437.1591 800.4991,-434.0547 803.8984,-356.5144 804.8691,-349.95 804.6627,-321.0812 805.2137,-308.513 811.1261,-304.9185 815.9274,-302.5309 816.3199,-236.3278 821.9263,-238.0177 826.6667,-236.65 830.5459,-233.1894 826.46,-229.4702 821.9964,-228.187 821.9964,-228.187 826.46,-229.4702 830.5459,-233.1894 826.6667,-236.65 821.9263,-238.0177 816.3199,-236.3278 815.9274,-302.5309 811.1261,-304.9185 805.2137,-308.513 804.6627,-321.0812 804.8691,-349.95 803.8984,-356.5144 800.4991,-434.0547 810.5961,-437.78 815.7636,-439.2104 867.8195,-452.0503 868.1049,-389.5514 871.5724,-351.7768 872.7802,-349.8876 871.7347,-349.075 870.9796,-347.8366 865.629,-343.6953 864.2924,-291.4991 862.702,-291.5192 862.702,-291.5192 864.2924,-291.4991 865.629,-343.6953 870.9796,-347.8366 871.7347,-349.075 872.7802,-349.8876 871.5724,-351.7768 868.1049,-389.5514 867.8195,-452.0503 874.2825,-454.0461 885.0242,-457.6991 885.1949,-449.4325 892.7961,-354.6984 897.5165,-354.6984 902.8335,-351.5767 904.3091,-349.7947 904.015,-349.4516 897.4528,-345.3891 892.894,-345.3891 892.894,-345.3891 897.4528,-345.3891 904.015,-349.4516 904.3091,-349.7947 902.8335,-351.5767 897.5165,-354.6984 892.7961,-354.6984 885.1949,-449.4325 885.0242,-457.6991 898.5877,-463.5868 904.24,-460.4578 907.8731,-458.5708 924.2873,-451.6677 982.1324,-431.1984 992.3386,-427.2414 997.5296,-425.0562 1005.558,-421.4093 1010.8605,-418.8265 1018.4865,-414.8613 1022.9691,-412.2355 1028.059,-409.0833 1037.5844,-402.8638 1038.8514,-401.9519 1039.15,-399.4696 1006.0663,-350.0876 1005.9362,-349.8764 987.7713,-349.2017 987.7713,-349.2017 1005.9362,-349.8764 973.6285,-287.2502 962.79,-268.2765 956.0277,-257.3976 952.8756,-252.6927 955.084,-233.1 971.0921,-157.3416 1043.8297,-100.2822 1053.681,-92.2945 1070.8228,-77.0346 1077.6381,-71.1634 1069.9965,-40.5868 1069.6256,-39.9262 1026.4845,43.1862 928.3113,99.85 884.4242,114.2471 876.6991,116.9283 872.8594,118.482 861.9395,115.7633 850.503,113.1211 848.7681,112.7517 837.623,110.7782 833.0475,110.0503 820.7137,108.5301 806.7233,107.5576 795.4825,106.9781 744.6613,106.1822 721.7589,.8267 719.2461,-13.1057 715.5919,-38.7704 715.2133,-40.4802 707.8174,-81.3065 707.4199,-83.1355 771.7098,-141.3577 753.2509,-172.3893 742.0956,-196.4441 728.564,-231.2498 725.7167,-236.6773 784.1667,-239.2045 786.2332,-286.9682 790.2172,-234.1588 791.6902,-233.0221 793.5885,-233.0221 794.2708,-233.228 794.2708,-233.228 793.5885,-233.0221 791.6902,-233.0221 790.2172,-234.1588 786.2332,-286.9682 784.1667,-239.2045 725.7167,-236.6773 710.6258,-262.0468 698.0355,-263.1271 693.8682,-263.1722 693.8682,-263.1722"/>
<polygon fill="#fed9a6" stroke="#fed9a6" points="656.1908,-265.7108 656.2379,-220.7571 653.1633,-185.4151 659.3867,-185.4151 663.8555,-182.7297 665.4534,-180.7161 665.424,-180.6823 665.424,-180.6823 665.4534,-180.7161 663.8555,-182.7297 659.3867,-185.4151 653.1633,-185.4151 656.2379,-220.7571 656.1908,-265.7108 651.7667,-266.7468 639.1431,-270.1794 625.5478,-274.888 615.4844,-279.4947 592.3928,-250.9816 560.4982,-203.2823 532.7189,-166.1299 522.4945,-154.3006 516.4915,-146.9691 502.8225,-127.4831 494.4784,-124.8932 491.4556,-123.8866 475.3874,-117.042 472.3582,-115.6819 447.1618,-103.1891 416.2426,-87.1782 428.3888,-18.3525 557.9086,-20.6879 577.4786,-24.3373 577.4786,-24.3373 557.9086,-20.6879 428.3888,-18.3525 428.5319,-17.2898 433.4142,25.5843 466.1139,99.4205 570.9614,140.2623 576.155,140.0682 593.0068,140.0231 600.6333,140.2675 601.7686,140.3433 615.8756,141.5308 623.3128,142.4154 638.6218,144.5025 668.9411,149.6816 744.6613,106.1822 721.7589,.8267 719.2461,-13.1057 715.5919,-38.7704 715.2133,-40.4802 707.8174,-81.3065 707.4199,-83.1355 771.7098,-141.3577 753.2509,-172.3893 742.0956,-196.4441 728.564,-231.2498 725.7167,-236.6773 710.6258,-262.0468 698.0355,-263.1271 693.8682,-263.1722 692.2422,-263.129 689.1225,-262.9291 684.3695,-262.9789 668.5682,-263.7352 656.1908,-265.7108 656.1908,-265.7108"/>
<polygon fill="#decbe4" stroke="#decbe4" points="615.4844,-279.4947 613.3079,-284.2454 588.0768,-344.78 582.6981,-354.9237 523.7363,-345.9378 519.9904,-345.4967 517.9932,-345.3306 505.293,-344.7133 504.4116,-344.7317 498.3552,-344.648 491.1957,-344.3001 493.8214,-294.5134 492.326,-265.3966 498.69,-263.4721 501.8948,-260.8165 498.1433,-257.5937 492.6476,-255.952 492.6476,-255.952 498.1433,-257.5937 501.8948,-260.8165 498.69,-263.4721 492.326,-265.3966 487.132,-263.8732 483.4533,-260.7032 481.5426,-260.7032 481.4717,-260.683 477.0617,-260.683 477.0263,-260.6929 472.4564,-260.6929 469.7702,-225.5612 465.9777,-256.2537 461.6301,-254.0488 450.449,-257.5836 386.6996,-257.0726 377.0972,-248.0493 364.984,-234.1295 362.0167,-230.5157 359.1936,-308.9116 354.2955,-338.1516 351.197,-338.1516 343.1442,-262.8391 343.114,-264.7228 343.114,-264.7228 343.1442,-262.8391 351.197,-338.1516 354.2955,-338.1516 359.1936,-308.9116 362.0167,-230.5157 364.984,-234.1295 366.7222,-333.6266 361.6986,-335.1444 357.8596,-338.8372 361.4083,-342.0563 366.4006,-343.5312 366.4006,-343.5312 361.4083,-342.0563 357.8596,-338.8372 361.6986,-335.1444 366.7222,-333.6266 364.984,-234.1295 377.0972,-248.0493 386.6996,-257.0726 450.449,-257.5836 461.6301,-254.0488 465.9777,-256.2537 469.7702,-225.5612 472.4564,-260.6929 471.5033,-260.9649 469.2283,-260.9649 467.9803,-261.8133 463.0719,-289.1274 461.2205,-328.6773 461.2205,-328.6773 463.0719,-289.1274 467.9803,-261.8133 469.2283,-260.9649 471.5033,-260.9649 472.4564,-260.6929 477.0263,-260.6929 477.0617,-260.683 481.4717,-260.683 481.5426,-260.7032 483.4533,-260.7032 487.132,-263.8732 492.326,-265.3966 493.8214,-294.5134 491.1957,-344.3001 490.0247,-344.3247 489.2601,-344.3674 487.054,-344.4139 485.0468,-344.5262 478.4373,-344.6664 476.7577,-344.6437 473.8446,-347.7053 468.2359,-353.1886 465.9204,-355.2817 458.0357,-361.8512 455.0293,-364.1354 448.2605,-368.7953 395.1986,-401.4637 395.0573,-401.5609 392.0025,-403.8952 382.1189,-412.2339 379.6104,-414.7421 373.0606,-420.7253 386.212,-435.0228 422.2704,-483.0712 450.3187,-516.0946 452.226,-518.0181 458.959,-525.743 468.5705,-538.1741 473.849,-539.6631 479.9374,-541.7195 495.8246,-547.9831 496.1505,-547.7139 503.1298,-542.4829 599.1734,-474.1341 604.123,-483.1904 609.1431,-491.805 611.52,-549.0826 609.7216,-583.7249 612.3934,-585.6913 615.8019,-585.6913 616.4349,-585.5123 619.1589,-585.5123 619.5222,-585.4097 624.2142,-585.4097 625.3771,-586.7845 631.2697,-590.2915 635.218,-590.2915 635.218,-590.2915 631.2697,-590.2915 625.3771,-586.7845 624.2142,-585.4097 619.5222,-585.4097 619.1589,-585.5123 616.4349,-585.5123 615.8019,-585.6913 612.3934,-585.6913 609.7216,-583.7249 611.52,-549.0826 609.1431,-491.805 624.806,-515.2899 633.2391,-525.89 641.5673,-534.426 644.8998,-538.3679 650.4526,-543.3962 651.814,-544.4513 656.2755,-549.4877 660.507,-553.4471 687.8293,-573.8867 689.3834,-575.3395 694.7714,-581.537 696.2148,-582.9058 699.3963,-585.4091 702.141,-587.9194 706.4128,-592.4043 707.4337,-593.3349 719.2648,-607.0829 725.3,-614.7903 737.7364,-633.6478 745.6085,-647.3927 756.7975,-669.632 757.8939,-669.2383 765.9282,-666.5527 772.7593,-664.7714 787.3207,-661.6788 800.4003,-659.5406 809.8444,-658.4602 822.2032,-657.652 824.5232,-657.4437 841.4077,-656.3445 849.1144,-655.4711 860.6384,-653.6078 874.0102,-650.8006 889.1926,-646.5162 891.9247,-645.6145 895.7613,-644.2554 908.5069,-639.4302 979.8138,-665.9193 998.7393,-673.4138 1003.5731,-675.4418 1018.3386,-682.698 1019.5219,-689.7621 1027.2004,-742.785 1025.2875,-746.0004 1012.317,-769.0604 995.7567,-800.483 968.2518,-856.9866 959.3002,-874.0466 959.1832,-874.0864 897.4785,-893.4473 892.1982,-895.3798 847.5575,-954.0016 854.2269,-985.2904 855.8066,-993.842 861.1992,-1036 891.4755,-1178.038 879.2712,-1188.4783 811.7144,-1203.9282 746.0231,-1206.0096 746.4831,-1153.2803 746.4831,-1153.2803 746.0231,-1206.0096 742.7723,-1206.2201 727.5408,-1207.7117 726.1549,-1207.8933 709.8982,-1199.1401 575.9185,-1132.8568 586.2836,-1077.5079 712.637,-1041.0587 714.5865,-1038.6217 719.3082,-1037.2795 720.5211,-1036.4357 722.413,-1036.4357 723.1228,-1037.2388 728.9836,-1040.6505 733.7734,-1040.6505 733.7734,-1040.6505 728.9836,-1040.6505 723.1228,-1037.2388 722.413,-1036.4357 720.5211,-1036.4357 719.3082,-1037.2795 714.5865,-1038.6217 712.637,-1041.0587 586.2836,-1077.5079 596.1489,-1016.6689 596.3859,-1014.4786 602.1855,-978.7443 591.1028,-968.9868 583.9202,-963.2378 576.1154,-957.6006 573.6141,-955.6679 576.0446,-850.9521 579.9655,-850.9521 580.416,-850.8249 582.1456,-850.8249 586.549,-854.6788 590.7836,-855.8472 597.0254,-854.0418 599.9692,-851.6672 606.4758,-891.6986 608.6467,-918.1776 610.6185,-969.7845 610.6676,-973.0677 626.1104,-964.6398 625.1629,-910.5057 625.1629,-910.5057 626.1104,-964.6398 610.6676,-973.0677 610.6185,-969.7845 617.1209,-851.0445 617.6807,-850.8853 620.5356,-850.8853 621.2271,-849.7685 626.814,-844.9925 649.2171,-844.7981 670.6691,-841.1838 672.8712,-857.7844 716.1448,-845.3196 720.8075,-930.3153 721.8693,-841.8319 724.3256,-839.9884 725.9089,-839.9884 727.3329,-840.4347 732.1509,-840.4347 735.2819,-895.1152 738.5869,-840.4075 742.6918,-840.4075 743.3219,-841.1796 743.3219,-841.1796 742.6918,-840.4075 744.4675,-838.1724 748.3328,-835.9379 755.0505,-835.9379 758.7239,-838.0369 758.7239,-838.0369 755.0505,-835.9379 748.3328,-835.9379 744.4675,-838.1724 742.6918,-840.4075 738.5869,-840.4075 735.2819,-895.1152 732.1509,-840.4347 727.3329,-840.4347 725.9089,-839.9884 724.3256,-839.9884 721.8693,-841.8319 720.8075,-930.3153 716.1448,-845.3196 672.8712,-857.7844 670.6691,-841.1838 649.2171,-844.7981 626.814,-844.9925 621.2271,-849.7685 620.5356,-850.8853 617.6807,-850.8853 617.1209,-851.0445 610.6185,-969.7845 608.6467,-918.1776 606.4758,-891.6986 606.4177,-851.0108 606.4177,-851.0108 606.4758,-891.6986 599.9692,-851.6672 597.0254,-854.0418 590.7836,-855.8472 586.549,-854.6788 582.1456,-850.8249 580.416,-850.8249 579.9655,-850.9521 576.0446,-850.9521 573.6141,-955.6679 568.7557,-952.1168 557.6321,-944.8961 554.5079,-942.999 478.6989,-900.0967 474.673,-897.4854 458.4908,-886.299 454.7733,-883.2749 458.104,-878.981 464.0051,-871.7831 474.8067,-860.0696 484.3991,-850.97 531.9019,-792.3577 554.0355,-768.0481 557.56,-764.4802 560.1171,-761.7155 566.8859,-753.3945 569.1021,-750.5034 578.5999,-738.9369 585.5306,-730.0557 593.7249,-717.9277 520.209,-664.4244 480.1508,-685.2854 467.4138,-691.3912 466.6356,-691.7304 452.4288,-696.7397 442.1336,-699.4926 441.0885,-699.7271 437.1998,-700.4356 423.0836,-702.4117 417.6938,-702.7065 417.2399,-702.7122 414.2638,-702.8768 412.1216,-702.9046 407.1833,-702.7587 396.6413,-702.9011 391.5317,-703.408 384.2584,-704.4418 378.0309,-705.5929 370.9887,-707.4981 341.7436,-716.6688 309.2526,-705.572 304.2316,-703.4998 291.0292,-697.0831 282.6688,-692.7205 274.8528,-688.0833 263.1743,-680.7369 261.7296,-679.7783 244.5784,-667.1711 224.3475,-653.0521 135.7198,-695.2233 127.8156,-699.1534 122.1757,-702.0775 109.6259,-709.1209 101.5941,-714.1461 90.1998,-708.5674 77.146,-702.9334 75.0083,-702.0522 72.6948,-566.0878 75.7232,-531.5602 80.4727,-531.5602 80.8068,-531.463 81.5372,-531.463 84.7624,-534.2396 84.7624,-534.2396 81.5372,-531.463 80.8068,-531.463 80.4727,-531.5602 75.7232,-531.5602 75.5601,-531.5112 75.5601,-531.5112 75.7232,-531.5602 72.6948,-566.0878 75.0083,-702.0522 59.4641,-696.241 52.5111,-693.911 41.8705,-690.551 -27.3214,-670.0524 -142.0318,-556.6151 -142.7507,-551.6279 -150.7172,-506.6014 -147.1004,-494.5751 -144.0692,-490.9733 -86.4981,-420.3194 26.7241,-349.3163 33.8931,-349.7669 61.8109,-351.0873 72.6782,-351.0913 91.8714,-350.1978 103.5893,-349.2863 110.0024,-348.5876 124.9138,-346.2628 138.9682,-343.6319 149.731,-341.4499 151.5535,-338.58 199.1547,-254.611 312.3356,-167.564 318.3238,-165.0957 334.8144,-145.8897 371.1911,-115.1863 416.2426,-87.1782 447.1618,-103.1891 472.3582,-115.6819 475.3874,-117.042 491.4556,-123.8866 494.4784,-124.8932 502.8225,-127.4831 516.4915,-146.9691 522.4945,-154.3006 532.7189,-166.1299 560.4982,-203.2823 592.3928,-250.9816 615.4844,-279.4947 615.4844,-279.4947"/>
<polygon fill="#ccebc5" stroke="#ccebc5" points="1815.8358,-953.5267 1801.0052,-1006.6462 1793.4818,-1035.7565 1766.6299,-1077.4266 1690.4034,-1127.7394 1688.4917,-1128.5978 1646.1964,-1132.2666 1633.3275,-1133.8174 1632.4093,-969.1222 1628.585,-969.1222 1626.2892,-968.4417 1623.0546,-968.4417 1617.5616,-915.5939 1617.1656,-906.898 1611.139,-966.5336 1607.1638,-964.3479 1607.1638,-964.3479 1611.139,-966.5336 1617.1656,-906.898 1617.5616,-915.5939 1623.0546,-968.4417 1626.2892,-968.4417 1628.585,-969.1222 1632.4093,-969.1222 1633.3275,-1133.8174 1622.2316,-1135.3414 1622.0524,-1135.3721 1608.8763,-1134.5547 1604.3477,-1134.4974 1598.0321,-1134.6256 1584.7069,-1132.8733 1585.1714,-1079.434 1591.7406,-969.0136 1591.7406,-969.0136 1585.1714,-1079.434 1584.7069,-1132.8733 1574.0182,-1132.0072 1565.9484,-1131.4891 1503.9891,-1129.5945 1345.0233,-968.77 1344.314,-968.1092 1353.9681,-916.1337 1289.9827,-875.5579 1283.7524,-871.4261 1230.7814,-832.9434 1218.6649,-825.1342 1217.933,-764.1669 1217.933,-764.1669 1218.6649,-825.1342 1210.3738,-820.4805 1202.9689,-816.634 1192.5002,-811.6402 1190.3715,-810.8075 1189.1438,-734.4116 1194.4961,-736.0012 1194.4961,-736.0012 1189.1438,-734.4116 1190.3715,-810.8075 1188.906,-810.295 1178.4022,-807.051 1172.2482,-805.4084 1167.0264,-804.2343 1163.6978,-803.6254 1159.6744,-803.0574 1137.2562,-800.8267 1129.891,-799.4525 1123.9425,-798.0834 1110.4243,-793.7811 1102.0388,-790.3817 1088.6625,-783.7761 1088.559,-783.7205 1079.566,-778.4968 1071.588,-773.5183 1037.8765,-749.5732 1027.2004,-742.785 1019.5219,-689.7621 1018.3386,-682.698 1003.5731,-675.4418 998.7393,-673.4138 979.8138,-665.9193 908.5069,-639.4302 903.8025,-564.5695 903.4214,-550.2694 903.0046,-543.7272 901.5851,-529.7026 900.7264,-497.6206 898.5877,-463.5868 904.24,-460.4578 907.8731,-458.5708 924.2873,-451.6677 982.1324,-431.1984 992.3386,-427.2414 997.5296,-425.0562 1005.558,-421.4093 1010.8605,-418.8265 1018.4865,-414.8613 1022.9691,-412.2355 1028.059,-409.0833 1037.5844,-402.8638 1038.8514,-401.9519 1039.15,-399.4696 1044.0055,-394.2832 1160.205,-383.3137 1153.1337,-489.7596 1054.4819,-415.0775 1051.1074,-488.9056 1051.1074,-488.9056 1054.4819,-415.0775 1153.1337,-489.7596 1160.205,-383.3137 1044.0055,-394.2832 1039.15,-399.4696 1006.0663,-350.0876 1005.9362,-349.8764 973.6285,-287.2502 962.79,-268.2765 956.0277,-257.3976 952.8756,-252.6927 955.084,-233.1 971.0921,-157.3416 1043.8297,-100.2822 1053.681,-92.2945 1070.8228,-77.0346 1077.6381,-71.1634 1077.6813,-71.1887 1079.3041,-72.0843 1082.4384,-216.6948 1083.3269,-228.03 1083.447,-268.6118 1086.9523,-271.8238 1082.7748,-275.5273 1078.5496,-276.6912 1078.5496,-276.6912 1082.7748,-275.5273 1086.9523,-271.8238 1083.447,-268.6118 1083.3269,-228.03 1082.4384,-216.6948 1079.3041,-72.0843 1092.3815,-78.6138 1103.8557,-84.1402 1118.9681,-90.8799 1149.9762,-104.146 1221.8679,-170.3688 1262.4554,-213.7958 1234.3698,-245.2541 1221.8198,-258.7224 1218.5403,-262.4412 1218.3982,-280.8933 1216.0753,-342.548 1211.2849,-377.2012 1207.6588,-377.2012 1202.7894,-277.8697 1200.1676,-280.6287 1202.1337,-376.25 1196.9912,-373.2561 1191.1733,-373.2561 1186.41,-376.0171 1184.9664,-377.7151 1186.3325,-379.285 1191.4371,-382.1943 1191.4371,-382.1943 1186.3325,-379.285 1184.9664,-377.7151 1186.41,-376.0171 1191.1733,-373.2561 1196.9912,-373.2561 1202.1337,-376.25 1200.1676,-280.6287 1202.7894,-277.8697 1207.6588,-377.2012 1211.2849,-377.2012 1216.0753,-342.548 1218.3982,-280.8933 1218.5403,-262.4412 1221.8198,-258.7224 1234.3698,-245.2541 1262.4554,-213.7958 1325.2255,-232.6465 1392.2621,-314.6142 1394.6287,-353.6092 1397.49,-389.768 1401.786,-426.9507 1313.5056,-462.6881 1293.7832,-470.1317 1280.4703,-474.0246 1278.054,-474.6622 1268.4277,-476.93 1268.2913,-476.9583 1268.0132,-477.008 1255.4302,-478.9053 1256.6003,-583.6451 1260.4167,-583.6451 1261.3462,-584.7315 1267.0048,-588.1555 1272.7311,-588.1555 1277.5161,-585.3114 1278.9491,-583.5707 1282.7784,-583.5707 1284.2638,-624.4155 1289.5825,-583.9471 1292.5974,-583.9471 1293.6495,-583.6295 1293.6495,-583.6295 1292.5974,-583.9471 1289.5825,-583.9471 1284.2638,-624.4155 1282.7784,-583.5707 1278.9491,-583.5707 1277.5161,-585.3114 1272.7311,-588.1555 1267.0048,-588.1555 1261.3462,-584.7315 1260.4167,-583.6451 1256.6003,-583.6451 1255.4302,-478.9053 1268.0132,-477.008 1268.2913,-476.9583 1268.4277,-476.93 1278.054,-474.6622 1280.4703,-474.0246 1293.7832,-470.1317 1313.5056,-462.6881 1401.786,-426.9507 1467.6743,-500.3627 1533.2764,-506.7591 1537.9064,-507.134 1540.7384,-507.2699 1551.5748,-507.6113 1569.3557,-507.5844 1569.9009,-507.5656 1573.2452,-508.2584 1572.6074,-671.3148 1567.7511,-671.3148 1565.3917,-644.4959 1560.8718,-675.4803 1557.5922,-675.4803 1556.759,-675.7299 1551.1953,-675.7299 1550.5573,-675.9177 1546.9006,-675.9177 1546.6964,-675.8586 1541.644,-675.8586 1541.644,-675.8586 1546.6964,-675.8586 1546.9006,-675.9177 1550.5573,-675.9177 1551.1953,-675.7299 1556.759,-675.7299 1557.5922,-675.4803 1560.8718,-675.4803 1565.3917,-644.4959 1567.7511,-671.3148 1572.6074,-671.3148 1573.2452,-508.2584 1579.7039,-509.4852 1598.1876,-512.0458 1609.6862,-513.2424 1607.2089,-642.7106 1607.2089,-642.7106 1609.6862,-513.2424 1617.6959,-513.7999 1648.4957,-519.0302 1743.5457,-592.1527 1769.5203,-641.0523 1768.0321,-647.3505 1752.3212,-727.5974 1738.1943,-809.0104 1752.5844,-825.2106 1813.1819,-948.5801 1815.8358,-953.5267 1815.8358,-953.5267"/>
<polygon fill="#fed9a6" stroke="#fed9a6" points="1137.2562,-800.8267 1137.5796,-829.9464 1137.5796,-829.9464 1137.2562,-800.8267 1159.6744,-803.0574 1163.6978,-803.6254 1167.0264,-804.2343 1172.2482,-805.4084 1178.4022,-807.051 1188.906,-810.295 1190.3715,-810.8075 1192.5002,-811.6402 1202.9689,-816.634 1210.3738,-820.4805 1218.6649,-825.1342 1230.7814,-832.9434 1283.7524,-871.4261 1289.9827,-875.5579 1353.9681,-916.1337 1344.314,-968.1092 1211.1876,-1059.0074 1179.9564,-1029.2804 1141.4491,-991.1151 1126.4655,-977.6642 1043.8116,-986.6563 1028.4265,-984.7271 1028.4265,-984.7271 1043.8116,-986.6563 1126.4655,-977.6642 1141.4491,-991.1151 1179.9564,-1029.2804 1211.1876,-1059.0074 1169.8302,-1130.0258 1113.3018,-1155.9236 1026.8625,-1156.623 1025.8237,-1156.6486 1001.4495,-1158.0504 988.5831,-1159.8491 967.6298,-1163.4712 912.7126,-1175.6642 891.4755,-1178.038 861.1992,-1036 855.8066,-993.842 943.0381,-993.9614 966.3445,-997.277 971.714,-993.2509 973.1512,-990.9086 973.1512,-990.9086 971.714,-993.2509 966.3445,-997.277 943.0381,-993.9614 855.8066,-993.842 854.2269,-985.2904 847.5575,-954.0016 892.1982,-895.3798 897.4785,-893.4473 959.1832,-874.0864 959.3002,-874.0466 968.2518,-856.9866 995.7567,-800.483 1012.317,-769.0604 1025.2875,-746.0004 1027.2004,-742.785 1037.8765,-749.5732 1071.588,-773.5183 1079.566,-778.4968 1088.559,-783.7205 1088.6625,-783.7761 1102.0388,-790.3817 1110.4243,-793.7811 1110.7214,-830.2953 1107.9802,-868.2751 1102.9854,-868.2751 1102.9854,-868.2751 1107.9802,-868.2751 1110.7214,-830.2953 1110.4243,-793.7811 1123.9425,-798.0834 1129.891,-799.4525 1137.2562,-800.8267 1137.2562,-800.8267"/>
<polygon fill="#fed9a6" stroke="#fed9a6" points="566.8859,-753.3945 569.1021,-750.5034 578.5999,-738.9369 585.5306,-730.0557 593.7249,-717.9277 520.209,-664.4244 480.1508,-685.2854 467.4138,-691.3912 466.6356,-691.7304 452.4288,-696.7397 442.1336,-699.4926 441.0885,-699.7271 437.1998,-700.4356 423.0836,-702.4117 417.6938,-702.7065 417.2399,-702.7122 414.2638,-702.8768 412.1216,-702.9046 407.1833,-702.7587 396.6413,-702.9011 391.5317,-703.408 384.2584,-704.4418 378.0309,-705.5929 370.9887,-707.4981 341.7436,-716.6688 309.2526,-705.572 304.2316,-703.4998 291.0292,-697.0831 282.6688,-692.7205 274.8528,-688.0833 263.1743,-680.7369 261.7296,-679.7783 244.5784,-667.1711 224.3475,-653.0521 135.7198,-695.2233 127.8156,-699.1534 122.1757,-702.0775 109.6259,-709.1209 101.5941,-714.1461 108.3839,-790.2408 109.9696,-823.0069 110.0381,-825.4684 115.1591,-847.6155 156.1365,-910.7447 172.5325,-926.3719 239.8816,-970.3762 256.8006,-956.9117 258.9333,-955.3394 276.7917,-941.5792 283.5826,-936.7792 297.799,-928.0399 303.9015,-924.4793 320.4582,-915.8443 387.9003,-882.8419 400.9687,-883.1669 407.7451,-883.1648 411.7347,-883.0629 414.2964,-883.1961 428.4447,-883.217 429.5891,-883.1898 430.2542,-883.1912 430.6622,-883.2025 436.7152,-883.2187 438.7712,-883.0685 443.061,-882.9769 452.5029,-883.2634 454.7733,-883.2749 458.104,-878.981 464.0051,-871.7831 474.8067,-860.0696 484.3991,-850.97 531.9019,-792.3577 554.0355,-768.0481 557.56,-764.4802 560.1171,-761.7155 566.8859,-753.3945 566.8859,-753.3945"/>
<polygon fill="#b3cde3" stroke="#b3cde3" points="596.1489,-1016.6689 596.3859,-1014.4786 602.1855,-978.7443 591.1028,-968.9868 583.9202,-963.2378 576.1154,-957.6006 573.6141,-955.6679 568.7557,-952.1168 557.6321,-944.8961 554.5079,-942.999 478.6989,-900.0967 474.673,-897.4854 458.4908,-886.299 454.7733,-883.2749 452.5029,-883.2634 443.061,-882.9769 438.7712,-883.0685 436.7152,-883.2187 430.6622,-883.2025 430.2542,-883.1912 429.5891,-883.1898 428.4447,-883.217 414.2964,-883.1961 411.7347,-883.0629 407.7451,-883.1648 400.9687,-883.1669 387.9003,-882.8419 320.4582,-915.8443 303.9015,-924.4793 297.799,-928.0399 283.5826,-936.7792 276.7917,-941.5792 258.9333,-955.3394 256.8006,-956.9117 239.8816,-970.3762 244.8388,-995.4117 251.1957,-1031.1355 272.5794,-1167.1038 241.9603,-1180.403 216.5347,-1190.6383 213.8967,-1191.5712 206.5114,-1193.9469 185.4464,-1200.3862 167.1062,-1204.5129 159.0722,-1206.1906 93.9486,-1217.6821 33.5726,-1277.3993 -10.0286,-1374.4109 -22.3738,-1399.4316 159.3148,-1388.3434 163.3158,-1384.3549 165.9188,-1383.5332 167.2375,-1382.5859 169.4963,-1382.5859 172.0875,-1431.8105 175.897,-1382.7684 179.0975,-1382.7684 179.7301,-1382.5817 179.7301,-1382.5817 179.0975,-1382.7684 175.897,-1382.7684 172.0875,-1431.8105 169.4963,-1382.5859 167.2375,-1382.5859 165.9188,-1383.5332 163.3158,-1384.3549 159.3148,-1388.3434 -22.3738,-1399.4316 -29.1495,-1412.6038 36.5985,-1492.071 156.6259,-1550.0951 164.7657,-1554.3662 170.5685,-1553.1416 188.5445,-1549.9517 190.6548,-1549.6841 205.8549,-1548.011 225.9736,-1546.812 246.425,-1546.9703 299.6494,-1548.2765 371.0771,-1466.1606 393.5005,-1383.9414 394.1343,-1381.9309 393.9382,-1379.6262 237.8346,-1376.4484 231.9938,-1381.4313 231.5124,-1382.2114 231.51,-1382.2135 233.2072,-1385.1777 226.3926,-1456.7294 225.5964,-1424.6167 227.8466,-1382.4598 227.8466,-1382.4598 225.5964,-1424.6167 226.3926,-1456.7294 233.2072,-1385.1777 231.51,-1382.2135 231.5124,-1382.2114 231.9938,-1381.4313 237.8346,-1376.4484 393.9382,-1379.6262 390.7747,-1331.2721 360.0472,-1204.9426 390.2179,-1190.4619 408.8042,-1181.8491 415.5212,-1178.8518 426.3587,-1174.2024 443.4381,-1168.0464 456.9684,-1163.8644 457.016,-1018.8903 453.0997,-993.408 451.1118,-993.408 449.1554,-991.2599 445.0226,-989.0289 445.0226,-989.0289 449.1554,-991.2599 451.1118,-993.408 453.0997,-993.408 457.016,-1018.8903 456.9684,-1163.8644 469.8104,-1160.3358 472.6732,-1159.6477 488.9923,-1156.0045 542.2112,-1145.047 575.9185,-1132.8568 586.2836,-1077.5079 596.1489,-1016.6689 596.1489,-1016.6689"/>
<polyline fill="none" stroke="#000000" points="745.6085,-647.3927 756.7975,-669.632 757.8939,-669.2383 765.9282,-666.5527 772.7593,-664.7714 787.3207,-661.6788 800.4003,-659.5406 809.8444,-658.4602 822.2032,-657.652 824.5232,-657.4437 841.4077,-656.3445 849.1144,-655.4711 860.6384,-653.6078 874.0102,-650.8006 889.1926,-646.5162 891.9247,-645.6145 895.7613,-644.2554 908.5069,-639.4302 903.8025,-564.5695 903.4214,-550.2694 903.0046,-543.7272 901.5851,-529.7026 900.7264,-497.6206 898.5877,-463.5868 885.0242,-457.6991 874.2825,-454.0461 867.8195,-452.0503 815.7636,-439.2104 810.5961,-437.78 800.4991,-434.0547 790.3113,-437.1591 776.8088,-440.0754 773.1146,-440.7635 763.0808,-442.0417 760.9801,-442.2473 744.9446,-442.8746 739.2426,-442.7613 736.484,-442.7909 736.1393,-442.8051 729.5939,-442.6903 729.2554,-442.6947 726.6829,-442.8863 712.0568,-443.1117 710.1926,-442.9751 704.5081,-442.7336 703.9185,-442.7267 703.9047,-442.7261 694.4119,-442.916 688.9903,-442.7043 678.6625,-442.9345 615.7968,-442.4824 609.3549,-428.52 582.6981,-354.9237 523.7363,-345.9378 519.9904,-345.4967 517.9932,-345.3306 505.293,-344.7133 504.4116,-344.7317 498.3552,-344.648 491.1957,-344.3001 490.0247,-344.3247 489.2601,-344.3674 487.054,-344.4139 485.0468,-344.5262 478.4373,-344.6664 476.7577,-344.6437 473.8446,-347.7053 468.2359,-353.1886 465.9204,-355.2817 458.0357,-361.8512 455.0293,-364.1354 448.2605,-368.7953 395.1986,-401.4637 395.0573,-401.5609 392.0025,-403.8952 382.1189,-412.2339 379.6104,-414.7421 373.0606,-420.7253 386.212,-435.0228 422.2704,-483.0712 450.3187,-516.0946 452.226,-518.0181 458.959,-525.743 468.5705,-538.1741 473.849,-539.6631 479.9374,-541.7195 495.8246,-547.9831 496.1505,-547.7139 503.1298,-542.4829 599.1734,-474.1341 604.123,-483.1904 609.1431,-491.805 624.806,-515.2899 633.2391,-525.89 641.5673,-534.426 644.8998,-538.3679 650.4526,-543.3962 651.814,-544.4513 656.2755,-549.4877 660.507,-553.4471 687.8293,-573.8867 689.3834,-575.3395 694.7714,-581.537 696.2148,-582.9058 699.3963,-585.4091 702.141,-587.9194 706.4128,-592.4043 707.4337,-593.3349 719.2648,-607.0829 725.3,-614.7903 737.7364,-633.6478 745.6085,-647.3927 "/>
<polyline fill="none" stroke="#000000" points="848.7681,112.7517 850.503,113.1211 861.9395,115.7633 872.8594,118.482 876.6991,116.9283 884.4242,114.2471 928.3113,99.85 1026.4845,43.1862 1069.6256,-39.9262 1069.9965,-40.5868 1077.6381,-71.1634 1070.8228,-77.0346 1053.681,-92.2945 1043.8297,-100.2822 971.0921,-157.3416 955.084,-233.1 952.8756,-252.6927 956.0277,-257.3976 962.79,-268.2765 973.6285,-287.2502 1005.9362,-349.8764 1006.0663,-350.0876 1039.15,-399.4696 1038.8514,-401.9519 1037.5844,-402.8638 1028.059,-409.0833 1022.9691,-412.2355 1018.4865,-414.8613 1010.8605,-418.8265 1005.558,-421.4093 997.5296,-425.0562 992.3386,-427.2414 982.1324,-431.1984 924.2873,-451.6677 907.8731,-458.5708 904.24,-460.4578 898.5877,-463.5868 885.0242,-457.6991 874.2825,-454.0461 867.8195,-452.0503 815.7636,-439.2104 810.5961,-437.78 800.4991,-434.0547 790.3113,-437.1591 776.8088,-440.0754 773.1146,-440.7635 763.0808,-442.0417 760.9801,-442.2473 744.9446,-442.8746 739.2426,-442.7613 736.484,-442.7909 736.1393,-442.8051 729.5939,-442.6903 729.2554,-442.6947 726.6829,-442.8863 712.0568,-443.1117 710.1926,-442.9751 704.5081,-442.7336 703.9185,-442.7267 703.9047,-442.7261 694.4119,-442.916 688.9903,-442.7043 678.6625,-442.9345 615.7968,-442.4824 609.3549,-428.52 582.6981,-354.9237 588.0768,-344.78 613.3079,-284.2454 615.4844,-279.4947 625.5478,-274.888 639.1431,-270.1794 651.7667,-266.7468 656.1908,-265.7108 668.5682,-263.7352 684.3695,-262.9789 689.1225,-262.9291 692.2422,-263.129 693.8682,-263.1722 698.0355,-263.1271 710.6258,-262.0468 725.7167,-236.6773 728.564,-231.2498 742.0956,-196.4441 753.2509,-172.3893 771.7098,-141.3577 707.4199,-83.1355 707.8174,-81.3065 715.2133,-40.4802 715.5919,-38.7704 719.2461,-13.1057 721.7589,.8267 744.6613,106.1822 795.4825,106.9781 806.7233,107.5576 820.7137,108.5301 833.0475,110.0503 837.623,110.7782 848.7681,112.7517 "/>
<polyline fill="none" stroke="#000000" points="615.8756,141.5308 623.3128,142.4154 638.6218,144.5025 668.9411,149.6816 744.6613,106.1822 721.7589,.8267 719.2461,-13.1057 715.5919,-38.7704 715.2133,-40.4802 707.8174,-81.3065 707.4199,-83.1355 771.7098,-141.3577 753.2509,-172.3893 742.0956,-196.4441 728.564,-231.2498 725.7167,-236.6773 710.6258,-262.0468 698.0355,-263.1271 693.8682,-263.1722 692.2422,-263.129 689.1225,-262.9291 684.3695,-262.9789 668.5682,-263.7352 656.1908,-265.7108 651.7667,-266.7468 639.1431,-270.1794 625.5478,-274.888 615.4844,-279.4947 592.3928,-250.9816 560.4982,-203.2823 532.7189,-166.1299 522.4945,-154.3006 516.4915,-146.9691 502.8225,-127.4831 494.4784,-124.8932 491.4556,-123.8866 475.3874,-117.042 472.3582,-115.6819 447.1618,-103.1891 416.2426,-87.1782 428.3888,-18.3525 428.5319,-17.2898 433.4142,25.5843 466.1139,99.4205 570.9614,140.2623 576.155,140.0682 593.0068,140.0231 600.6333,140.2675 601.7686,140.3433 615.8756,141.5308 "/>
<polyline fill="none" stroke="#000000" points="860.6384,-653.6078 849.1144,-655.4711 841.4077,-656.3445 824.5232,-657.4437 822.2032,-657.652 809.8444,-658.4602 800.4003,-659.5406 787.3207,-661.6788 772.7593,-664.7714 765.9282,-666.5527 757.8939,-669.2383 756.7975,-669.632 745.6085,-647.3927 737.7364,-633.6478 725.3,-614.7903 719.2648,-607.0829 707.4337,-593.3349 706.4128,-592.4043 702.141,-587.9194 699.3963,-585.4091 696.2148,-582.9058 694.7714,-581.537 689.3834,-575.3395 687.8293,-573.8867 660.507,-553.4471 656.2755,-549.4877 651.814,-544.4513 650.4526,-543.3962 644.8998,-538.3679 641.5673,-534.426 633.2391,-525.89 624.806,-515.2899 609.1431,-491.805 604.123,-483.1904 599.1734,-474.1341 503.1298,-542.4829 496.1505,-547.7139 495.8246,-547.9831 479.9374,-541.7195 473.849,-539.6631 468.5705,-538.1741 458.959,-525.743 452.226,-518.0181 450.3187,-516.0946 422.2704,-483.0712 386.212,-435.0228 373.0606,-420.7253 379.6104,-414.7421 382.1189,-412.2339 392.0025,-403.8952 395.0573,-401.5609 395.1986,-401.4637 448.2605,-368.7953 455.0293,-364.1354 458.0357,-361.8512 465.9204,-355.2817 468.2359,-353.1886 473.8446,-347.7053 476.7577,-344.6437 478.4373,-344.6664 485.0468,-344.5262 487.054,-344.4139 489.2601,-344.3674 490.0247,-344.3247 491.1957,-344.3001 498.3552,-344.648 504.4116,-344.7317 505.293,-344.7133 517.9932,-345.3306 519.9904,-345.4967 523.7363,-345.9378 582.6981,-354.9237 588.0768,-344.78 613.3079,-284.2454 615.4844,-279.4947 592.3928,-250.9816 560.4982,-203.2823 532.7189,-166.1299 522.4945,-154.3006 516.4915,-146.9691 502.8225,-127.4831 494.4784,-124.8932 491.4556,-123.8866 475.3874,-117.042 472.3582,-115.6819 447.1618,-103.1891 416.2426,-87.1782 371.1911,-115.1863 334.8144,-145.8897 318.3238,-165.0957 312.3356,-167.564 199.1547,-254.611 151.5535,-338.58 149.731,-341.4499 138.9682,-343.6319 124.9138,-346.2628 110.0024,-348.5876 103.5893,-349.2863 91.8714,-350.1978 72.6782,-351.0913 61.8109,-351.0873 33.8931,-349.7669 26.7241,-349.3163 -86.4981,-420.3194 -144.0692,-490.9733 -147.1004,-494.5751 -150.7172,-506.6014 -142.7507,-551.6279 -142.0318,-556.6151 -27.3214,-670.0524 41.8705,-690.551 52.5111,-693.911 59.4641,-696.241 75.0083,-702.0522 77.146,-702.9334 90.1998,-708.5674 101.5941,-714.1461 109.6259,-709.1209 122.1757,-702.0775 127.8156,-699.1534 135.7198,-695.2233 224.3475,-653.0521 244.5784,-667.1711 261.7296,-679.7783 263.1743,-680.7369 274.8528,-688.0833 282.6688,-692.7205 291.0292,-697.0831 304.2316,-703.4998 309.2526,-705.572 341.7436,-716.6688 370.9887,-707.4981 378.0309,-705.5929 384.2584,-704.4418 391.5317,-703.408 396.6413,-702.9011 407.1833,-702.7587 412.1216,-702.9046 414.2638,-702.8768 417.2399,-702.7122 417.6938,-702.7065 423.0836,-702.4117 437.1998,-700.4356 441.0885,-699.7271 442.1336,-699.4926 452.4288,-696.7397 466.6356,-691.7304 467.4138,-691.3912 480.1508,-685.2854 520.209,-664.4244 593.7249,-717.9277 585.5306,-730.0557 578.5999,-738.9369 569.1021,-750.5034 566.8859,-753.3945 560.1171,-761.7155 557.56,-764.4802 554.0355,-768.0481 531.9019,-792.3577 484.3991,-850.97 474.8067,-860.0696 464.0051,-871.7831 458.104,-878.981 454.7733,-883.2749 458.4908,-886.299 474.673,-897.4854 478.6989,-900.0967 554.5079,-942.999 557.6321,-944.8961 568.7557,-952.1168 573.6141,-955.6679 576.1154,-957.6006 583.9202,-963.2378 591.1028,-968.9868 602.1855,-978.7443 596.3859,-1014.4786 596.1489,-1016.6689 586.2836,-1077.5079 575.9185,-1132.8568 709.8982,-1199.1401 726.1549,-1207.8933 727.5408,-1207.7117 742.7723,-1206.2201 746.0231,-1206.0096 811.7144,-1203.9282 879.2712,-1188.4783 891.4755,-1178.038 861.1992,-1036 855.8066,-993.842 854.2269,-985.2904 847.5575,-954.0016 892.1982,-895.3798 897.4785,-893.4473 959.1832,-874.0864 959.3002,-874.0466 968.2518,-856.9866 995.7567,-800.483 1012.317,-769.0604 1025.2875,-746.0004 1027.2004,-742.785 1019.5219,-689.7621 1018.3386,-682.698 1003.5731,-675.4418 998.7393,-673.4138 979.8138,-665.9193 908.5069,-639.4302 895.7613,-644.2554 891.9247,-645.6145 889.1926,-646.5162 874.0102,-650.8006 860.6384,-653.6078 "/>
<polyline fill="none" stroke="#000000" points="1003.5731,-675.4418 998.7393,-673.4138 979.8138,-665.9193 908.5069,-639.4302 903.8025,-564.5695 903.4214,-550.2694 903.0046,-543.7272 901.5851,-529.7026 900.7264,-497.6206 898.5877,-463.5868 904.24,-460.4578 907.8731,-458.5708 924.2873,-451.6677 982.1324,-431.1984 992.3386,-427.2414 997.5296,-425.0562 1005.558,-421.4093 1010.8605,-418.8265 1018.4865,-414.8613 1022.9691,-412.2355 1028.059,-409.0833 1037.5844,-402.8638 1038.8514,-401.9519 1039.15,-399.4696 1006.0663,-350.0876 1005.9362,-349.8764 973.6285,-287.2502 962.79,-268.2765 956.0277,-257.3976 952.8756,-252.6927 955.084,-233.1 971.0921,-157.3416 1043.8297,-100.2822 1053.681,-92.2945 1070.8228,-77.0346 1077.6381,-71.1634 1077.6813,-71.1887 1079.3041,-72.0843 1092.3815,-78.6138 1103.8557,-84.1402 1118.9681,-90.8799 1149.9762,-104.146 1221.8679,-170.3688 1262.4554,-213.7958 1325.2255,-232.6465 1392.2621,-314.6142 1394.6287,-353.6092 1397.49,-389.768 1401.786,-426.9507 1467.6743,-500.3627 1533.2764,-506.7591 1537.9064,-507.134 1540.7384,-507.2699 1551.5748,-507.6113 1569.3557,-507.5844 1569.9009,-507.5656 1573.2452,-508.2584 1579.7039,-509.4852 1598.1876,-512.0458 1609.6862,-513.2424 1617.6959,-513.7999 1648.4957,-519.0302 1743.5457,-592.1527 1769.5203,-641.0523 1768.0321,-647.3505 1752.3212,-727.5974 1738.1943,-809.0104 1752.5844,-825.2106 1813.1819,-948.5801 1815.8358,-953.5267 1801.0052,-1006.6462 1793.4818,-1035.7565 1766.6299,-1077.4266 1690.4034,-1127.7394 1688.4917,-1128.5978 1646.1964,-1132.2666 1633.3275,-1133.8174 1622.2316,-1135.3414 1622.0524,-1135.3721 1608.8763,-1134.5547 1604.3477,-1134.4974 1598.0321,-1134.6256 1584.7069,-1132.8733 1574.0182,-1132.0072 1565.9484,-1131.4891 1503.9891,-1129.5945 1345.0233,-968.77 1344.314,-968.1092 1353.9681,-916.1337 1289.9827,-875.5579 1283.7524,-871.4261 1230.7814,-832.9434 1218.6649,-825.1342 1210.3738,-820.4805 1202.9689,-816.634 1192.5002,-811.6402 1190.3715,-810.8075 1188.906,-810.295 1178.4022,-807.051 1172.2482,-805.4084 1167.0264,-804.2343 1163.6978,-803.6254 1159.6744,-803.0574 1137.2562,-800.8267 1129.891,-799.4525 1123.9425,-798.0834 1110.4243,-793.7811 1102.0388,-790.3817 1088.6625,-783.7761 1088.559,-783.7205 1079.566,-778.4968 1071.588,-773.5183 1037.8765,-749.5732 1027.2004,-742.785 1019.5219,-689.7621 1018.3386,-682.698 1003.5731,-675.4418 "/>
<polyline fill="none" stroke="#000000" points="1001.4495,-1158.0504 1025.8237,-1156.6486 1026.8625,-1156.623 1113.3018,-1155.9236 1169.8302,-1130.0258 1211.1876,-1059.0074 1344.314,-968.1092 1353.9681,-916.1337 1289.9827,-875.5579 1283.7524,-871.4261 1230.7814,-832.9434 1218.6649,-825.1342 1210.3738,-820.4805 1202.9689,-816.634 1192.5002,-811.6402 1190.3715,-810.8075 1188.906,-810.295 1178.4022,-807.051 1172.2482,-805.4084 1167.0264,-804.2343 1163.6978,-803.6254 1159.6744,-803.0574 1137.2562,-800.8267 1129.891,-799.4525 1123.9425,-798.0834 1110.4243,-793.7811 1102.0388,-790.3817 1088.6625,-783.7761 1088.559,-783.7205 1079.566,-778.4968 1071.588,-773.5183 1037.8765,-749.5732 1027.2004,-742.785 1025.2875,-746.0004 1012.317,-769.0604 995.7567,-800.483 968.2518,-856.9866 959.3002,-874.0466 959.1832,-874.0864 897.4785,-893.4473 892.1982,-895.3798 847.5575,-954.0016 854.2269,-985.2904 855.8066,-993.842 861.1992,-1036 891.4755,-1178.038 912.7126,-1175.6642 967.6298,-1163.4712 988.5831,-1159.8491 1001.4495,-1158.0504 "/>
<polyline fill="none" stroke="#000000" points="283.5826,-936.7792 297.799,-928.0399 303.9015,-924.4793 320.4582,-915.8443 387.9003,-882.8419 400.9687,-883.1669 407.7451,-883.1648 411.7347,-883.0629 414.2964,-883.1961 428.4447,-883.217 429.5891,-883.1898 430.2542,-883.1912 430.6622,-883.2025 436.7152,-883.2187 438.7712,-883.0685 443.061,-882.9769 452.5029,-883.2634 454.7733,-883.2749 458.104,-878.981 464.0051,-871.7831 474.8067,-860.0696 484.3991,-850.97 531.9019,-792.3577 554.0355,-768.0481 557.56,-764.4802 560.1171,-761.7155 566.8859,-753.3945 569.1021,-750.5034 578.5999,-738.9369 585.5306,-730.0557 593.7249,-717.9277 520.209,-664.4244 480.1508,-685.2854 467.4138,-691.3912 466.6356,-691.7304 452.4288,-696.7397 442.1336,-699.4926 441.0885,-699.7271 437.1998,-700.4356 423.0836,-702.4117 417.6938,-702.7065 417.2399,-702.7122 414.2638,-702.8768 412.1216,-702.9046 407.1833,-702.7587 396.6413,-702.9011 391.5317,-703.408 384.2584,-704.4418 378.0309,-705.5929 370.9887,-707.4981 341.7436,-716.6688 309.2526,-705.572 304.2316,-703.4998 291.0292,-697.0831 282.6688,-692.7205 274.8528,-688.0833 263.1743,-680.7369 261.7296,-679.7783 244.5784,-667.1711 224.3475,-653.0521 135.7198,-695.2233 127.8156,-699.1534 122.1757,-702.0775 109.6259,-709.1209 101.5941,-714.1461 108.3839,-790.2408 109.9696,-823.0069 110.0381,-825.4684 115.1591,-847.6155 156.1365,-910.7447 172.5325,-926.3719 239.8816,-970.3762 256.8006,-956.9117 258.9333,-955.3394 276.7917,-941.5792 283.5826,-936.7792 "/>
<polyline fill="none" stroke="#000000" points="188.5445,-1549.9517 170.5685,-1553.1416 164.7657,-1554.3662 156.6259,-1550.0951 36.5985,-1492.071 -29.1495,-1412.6038 -22.3738,-1399.4316 -10.0286,-1374.4109 33.5726,-1277.3993 93.9486,-1217.6821 159.0722,-1206.1906 167.1062,-1204.5129 185.4464,-1200.3862 206.5114,-1193.9469 213.8967,-1191.5712 216.5347,-1190.6383 241.9603,-1180.403 272.5794,-1167.1038 251.1957,-1031.1355 244.8388,-995.4117 239.8816,-970.3762 256.8006,-956.9117 258.9333,-955.3394 276.7917,-941.5792 283.5826,-936.7792 297.799,-928.0399 303.9015,-924.4793 320.4582,-915.8443 387.9003,-882.8419 400.9687,-883.1669 407.7451,-883.1648 411.7347,-883.0629 414.2964,-883.1961 428.4447,-883.217 429.5891,-883.1898 430.2542,-883.1912 430.6622,-883.2025 436.7152,-883.2187 438.7712,-883.0685 443.061,-882.9769 452.5029,-883.2634 454.7733,-883.2749 458.4908,-886.299 474.673,-897.4854 478.6989,-900.0967 554.5079,-942.999 557.6321,-944.8961 568.7557,-952.1168 573.6141,-955.6679 576.1154,-957.6006 583.9202,-963.2378 591.1028,-968.9868 602.1855,-978.7443 596.3859,-1014.4786 596.1489,-1016.6689 586.2836,-1077.5079 575.9185,-1132.8568 542.2112,-1145.047 488.9923,-1156.0045 472.6732,-1159.6477 469.8104,-1160.3358 456.9684,-1163.8644 443.4381,-1168.0464 426.3587,-1174.2024 415.5212,-1178.8518 408.8042,-1181.8491 390.2179,-1190.4619 360.0472,-1204.9426 390.7747,-1331.2721 393.9382,-1379.6262 394.1343,-1381.9309 393.5005,-1383.9414 371.0771,-1466.1606 299.6494,-1548.2765 246.425,-1546.9703 225.9736,-1546.812 205.8549,-1548.011 190.6548,-1549.6841 188.5445,-1549.9517 "/>
<!-- device&#45;mapper&#45;libs&#45;&gt;Fedora Container Base -->
<g id="edge1" class="edge">
<title>device&#45;mapper&#45;libs&#45;&gt;Fedora Container Base</title>
<path fill="none" stroke="#444444" stroke-opacity="0.333333" d="M837.1307,-70.5287C823.7062,-144.6585 773.2537,-423.2555 756.9882,-513.0732"/>
<polygon fill="#444444" fill-opacity="0.333333" stroke="#444444" stroke-opacity="0.333333" points="753.5169,-512.6006 755.1789,-523.0643 760.4049,-513.8481 753.5169,-512.6006"/>
</g>
<!-- device&#45;mapper&#45;libs&#45;&gt;device&#45;mapper -->
<g id="edge2" class="edge">
<title>device&#45;mapper&#45;libs&#45;&gt;device&#45;mapper</title>
<path fill="none" stroke="#444444" stroke-opacity="0.333333" d="M834.2126,-70.4816C827.9218,-102.0414 820.9082,-167.0725 819.5135,-204.6338"/>
<polygon fill="#444444" fill-opacity="0.333333" stroke="#444444" stroke-opacity="0.333333" points="816.0083,-204.8154 819.2709,-214.8954 823.0064,-204.981 816.0083,-204.8154"/>
</g>
<!-- device&#45;mapper&#45;&gt;Fedora Container Base -->
<g id="edge34" class="edge">
<title>device&#45;mapper&#45;&gt;Fedora Container Base</title>
<path fill="none" stroke="#444444" stroke-opacity="0.333333" d="M817.4675,-251.4486C805.7453,-303.2453 772.3403,-450.851 758.2705,-513.0207"/>
<polygon fill="#444444" fill-opacity="0.333333" stroke="#444444" stroke-opacity="0.333333" points="754.8245,-512.3916 756.0308,-522.9176 761.6518,-513.9368 754.8245,-512.3916"/>
</g>
<!-- device&#45;mapper&#45;&gt;device&#45;mapper&#45;libs -->
<g id="edge35" class="edge">
<title>device&#45;mapper&#45;&gt;device&#45;mapper&#45;libs</title>
<path fill="none" stroke="#444444" stroke-opacity="0.333333" d="M827.8474,-214.8734C834.1382,-183.3136 841.1518,-118.2825 842.5465,-80.7212"/>
<polygon fill="#444444" fill-opacity="0.333333" stroke="#444444" stroke-opacity="0.333333" points="846.0517,-80.5396 842.7891,-70.4596 839.0536,-80.374 846.0517,-80.5396"/>
</g>
<!-- device&#45;mapper&#45;&gt;systemd -->
<g id="edge36" class="edge">
<title>device&#45;mapper&#45;&gt;systemd</title>
<path fill="none" stroke="#444444" stroke-opacity="0.333333" d="M811.7524,-251.5546C780.647,-309.7284 684.5308,-489.4867 647.7092,-558.3512"/>
<polygon fill="#444444" fill-opacity="0.333333" stroke="#444444" stroke-opacity="0.333333" points="644.5487,-556.8392 642.9199,-567.3081 650.7217,-560.1399 644.5487,-556.8392"/>
</g>
<!-- device&#45;mapper&#45;&gt;util&#45;linux -->
<g id="edge37" class="edge">
<title>device&#45;mapper&#45;&gt;util&#45;linux</title>
<path fill="none" stroke="#444444" stroke-opacity="0.333333" d="M832.9433,-251.1017C845.0474,-270.3447 864.3694,-301.0629 878.2625,-323.15"/>
<polygon fill="#444444" fill-opacity="0.333333" stroke="#444444" stroke-opacity="0.333333" points="875.3757,-325.1341 883.6627,-331.7353 881.301,-321.407 875.3757,-325.1341"/>
</g>
<!-- libargon2&#45;&gt;Fedora Container Base -->
<g id="edge3" class="edge">
<title>libargon2&#45;&gt;Fedora Container Base</title>
<path fill="none" stroke="#444444" stroke-opacity="0.333333" d="M611.1284,-36.0087C632.725,-113.5085 717.8408,-418.9478 744.1259,-513.2724"/>
<polygon fill="#444444" fill-opacity="0.333333" stroke="#444444" stroke-opacity="0.333333" points="740.7715,-514.2737 746.8275,-522.9671 747.5146,-512.3946 740.7715,-514.2737"/>
</g>
<!-- dbus&#45;broker&#45;&gt;Fedora Container Base -->
<g id="edge4" class="edge">
<title>dbus&#45;broker&#45;&gt;Fedora Container Base</title>
<path fill="none" stroke="#444444" stroke-opacity="0.333333" d="M856.2727,-755.5736C836.465,-714.8845 788.6043,-616.5684 765.2146,-568.521"/>
<polygon fill="#444444" fill-opacity="0.333333" stroke="#444444" stroke-opacity="0.333333" points="768.27,-566.8009 760.746,-559.3416 761.9761,-569.8648 768.27,-566.8009"/>
</g>
<!-- dbus&#45;broker&#45;&gt;dbus&#45;common -->
<g id="edge5" class="edge">
<title>dbus&#45;broker&#45;&gt;dbus&#45;common</title>
<path fill="none" stroke="#444444" stroke-opacity="0.333333" d="M834.1402,-791.9905C821.0005,-799.683 805.5261,-808.7425 791.5503,-816.9246"/>
<polygon fill="#444444" fill-opacity="0.333333" stroke="#444444" stroke-opacity="0.333333" points="789.4839,-814.0787 782.6223,-822.1515 793.0205,-820.1196 789.4839,-814.0787"/>
</g>
<!-- dbus&#45;broker&#45;&gt;shadow&#45;utils -->
<g id="edge6" class="edge">
<title>dbus&#45;broker&#45;&gt;shadow&#45;utils</title>
<path fill="none" stroke="#444444" stroke-opacity="0.333333" d="M876.7982,-755.564C903.8783,-713.0619 971.2147,-607.3782 1002.9453,-557.5772"/>
<polygon fill="#444444" fill-opacity="0.333333" stroke="#444444" stroke-opacity="0.333333" points="1006.0163,-559.2708 1008.438,-548.9565 1000.1127,-555.5093 1006.0163,-559.2708"/>
</g>
<!-- dbus&#45;broker&#45;&gt;systemd -->
<g id="edge7" class="edge">
<title>dbus&#45;broker&#45;&gt;systemd</title>
<path fill="none" stroke="#444444" stroke-opacity="0.333333" d="M842.9139,-755.7798C801.1861,-721.9224 711.1159,-648.8406 663.7247,-610.3879"/>
<polygon fill="#444444" fill-opacity="0.333333" stroke="#444444" stroke-opacity="0.333333" points="665.6403,-607.435 655.6696,-603.8522 661.2298,-612.8708 665.6403,-607.435"/>
</g>
<!-- dbus&#45;common&#45;&gt;Fedora Container Base -->
<g id="edge8" class="edge">
<title>dbus&#45;common&#45;&gt;Fedora Container Base</title>
<path fill="none" stroke="#444444" stroke-opacity="0.333333" d="M751.6559,-822.029C751.6997,-771.6378 751.8225,-630.3524 751.8753,-569.5654"/>
<polygon fill="#444444" fill-opacity="0.333333" stroke="#444444" stroke-opacity="0.333333" points="755.3755,-569.1951 751.8843,-559.192 748.3755,-569.1889 755.3755,-569.1951"/>
</g>
<!-- dbus&#45;common&#45;&gt;dbus&#45;common -->
<g id="edge9" class="edge">
<title>dbus&#45;common&#45;&gt;dbus&#45;common</title>
<path fill="none" stroke="#444444" stroke-opacity="0.333333" d="M829.2055,-846.3133C839.955,-845.3212 847.14,-843.3134 847.14,-840.29 847.14,-838.3531 844.1913,-836.8331 839.2457,-835.7298"/>
<polygon fill="#444444" fill-opacity="0.333333" stroke="#444444" stroke-opacity="0.333333" points="839.6057,-832.2454 829.2055,-834.2667 838.5962,-839.1723 839.6057,-832.2454"/>
</g>
<!-- dbus&#45;common&#45;&gt;systemd -->
<g id="edge10" class="edge">
<title>dbus&#45;common&#45;&gt;systemd</title>
<path fill="none" stroke="#444444" stroke-opacity="0.333333" d="M743.1185,-821.9719C722.5799,-777.8214 670.2489,-665.3291 645.931,-613.0545"/>
<polygon fill="#444444" fill-opacity="0.333333" stroke="#444444" stroke-opacity="0.333333" points="648.9857,-611.3228 641.5943,-603.7321 642.6388,-614.2754 648.9857,-611.3228"/>
</g>
<!-- shadow&#45;utils&#45;&gt;Fedora Container Base -->
<g id="edge11" class="edge">
<title>shadow&#45;utils&#45;&gt;Fedora Container Base</title>
<path fill="none" stroke="#444444" stroke-opacity="0.333333" d="M949.2092,-533.5455C931.8369,-534.2168 912.6253,-534.9592 893.2101,-535.7095"/>
<polygon fill="#444444" fill-opacity="0.333333" stroke="#444444" stroke-opacity="0.333333" points="892.9047,-532.2185 883.0473,-536.1022 893.1751,-539.2133 892.9047,-532.2185"/>
</g>
<!-- shadow&#45;utils&#45;&gt;shadow&#45;utils -->
<g id="edge12" class="edge">
<title>shadow&#45;utils&#45;&gt;shadow&#45;utils</title>
<path fill="none" stroke="#444444" stroke-opacity="0.333333" d="M1090.8256,-536.9334C1101.369,-535.98 1108.5,-533.9389 1108.5,-530.81 1108.5,-528.8544 1105.7144,-527.3238 1101.0512,-526.218"/>
<polygon fill="#444444" fill-opacity="0.333333" stroke="#444444" stroke-opacity="0.333333" points="1101.2338,-522.7064 1090.8256,-524.6866 1100.1969,-529.6292 1101.2338,-522.7064"/>
</g>
<!-- shadow&#45;utils&#45;&gt;libsemanage -->
<g id="edge13" class="edge">
<title>shadow&#45;utils&#45;&gt;libsemanage</title>
<path fill="none" stroke="#444444" stroke-opacity="0.333333" d="M1040.6552,-512.6343C1071.8064,-485.2228 1130.8857,-433.2357 1165.9504,-402.3804"/>
<polygon fill="#444444" fill-opacity="0.333333" stroke="#444444" stroke-opacity="0.333333" points="1168.2765,-404.9957 1173.4716,-395.762 1163.6522,-399.7406 1168.2765,-404.9957"/>
</g>
<!-- systemd&#45;&gt;Fedora Container Base -->
<g id="edge14" class="edge">
<title>systemd&#45;&gt;Fedora Container Base</title>
<path fill="none" stroke="#444444" stroke-opacity="0.333333" d="M681.4502,-567.5168C686.4587,-565.6437 691.5763,-563.7298 696.6534,-561.8311"/>
<polygon fill="#444444" fill-opacity="0.333333" stroke="#444444" stroke-opacity="0.333333" points="698.1873,-564.9942 706.3278,-558.2131 695.7353,-558.4377 698.1873,-564.9942"/>
</g>
<!-- systemd&#45;&gt;shadow&#45;utils -->
<g id="edge15" class="edge">
<title>systemd&#45;&gt;shadow&#45;utils</title>
<path fill="none" stroke="#444444" stroke-opacity="0.333333" d="M694.8753,-576.841C761.089,-567.4665 866.5148,-552.5403 939.2718,-542.2395"/>
<polygon fill="#444444" fill-opacity="0.333333" stroke="#444444" stroke-opacity="0.333333" points="939.9032,-545.685 949.3138,-540.8177 938.9219,-538.7542 939.9032,-545.685"/>
</g>
<!-- systemd&#45;&gt;systemd -->
<g id="edge16" class="edge">
<title>systemd&#45;&gt;systemd</title>
<path fill="none" stroke="#444444" stroke-opacity="0.333333" d="M694.8167,-591.8813C705.3513,-591.0203 712.65,-588.9198 712.65,-585.58 712.65,-583.4404 709.6546,-581.8095 704.732,-580.6872"/>
<polygon fill="#444444" fill-opacity="0.333333" stroke="#444444" stroke-opacity="0.333333" points="705.2096,-577.22 694.8167,-579.2787 704.2251,-584.1504 705.2096,-577.22"/>
</g>
<!-- systemd&#45;&gt;util&#45;linux -->
<g id="edge17" class="edge">
<title>systemd&#45;&gt;util&#45;linux</title>
<path fill="none" stroke="#444444" stroke-opacity="0.333333" d="M653.2714,-567.4818C699.6537,-525.763 814.1604,-422.7694 867.2562,-375.0123"/>
<polygon fill="#444444" fill-opacity="0.333333" stroke="#444444" stroke-opacity="0.333333" points="869.8357,-377.3996 874.9301,-368.1099 865.1545,-372.1951 869.8357,-377.3996"/>
</g>
<!-- systemd&#45;&gt;acl -->
<g id="edge18" class="edge">
<title>systemd&#45;&gt;acl</title>
<path fill="none" stroke="#444444" stroke-opacity="0.333333" d="M571.4621,-597.4189C533.8327,-604.6407 486.0358,-613.8137 449.1111,-620.9001"/>
<polygon fill="#444444" fill-opacity="0.333333" stroke="#444444" stroke-opacity="0.333333" points="448.1634,-617.5181 439.0023,-622.8402 449.4828,-624.3926 448.1634,-617.5181"/>
</g>
<!-- systemd&#45;&gt;cryptsetup&#45;libs -->
<g id="edge19" class="edge">
<title>systemd&#45;&gt;cryptsetup&#45;libs</title>
<path fill="none" stroke="#444444" stroke-opacity="0.333333" d="M634.1883,-567.4163C637.8556,-503.2646 650.2174,-287.0185 654.6617,-209.2742"/>
<polygon fill="#444444" fill-opacity="0.333333" stroke="#444444" stroke-opacity="0.333333" points="658.158,-209.4371 655.2345,-199.2536 651.1694,-209.0375 658.158,-209.4371"/>
</g>
<!-- systemd&#45;&gt;dbus -->
<g id="edge20" class="edge">
<title>systemd&#45;&gt;dbus</title>
<path fill="none" stroke="#444444" stroke-opacity="0.333333" d="M637.1268,-603.7949C652.3235,-673.3989 706.797,-922.9004 725.2937,-1007.6195"/>
<polygon fill="#444444" fill-opacity="0.333333" stroke="#444444" stroke-opacity="0.333333" points="721.9111,-1008.5352 727.4637,-1017.5585 728.75,-1007.042 721.9111,-1008.5352"/>
</g>
<!-- systemd&#45;&gt;iptables&#45;libs -->
<g id="edge21" class="edge">
<title>systemd&#45;&gt;iptables&#45;libs</title>
<path fill="none" stroke="#444444" stroke-opacity="0.333333" d="M614.5245,-603.9026C580.2704,-637.5997 507.2242,-709.458 468.2578,-747.7908"/>
<polygon fill="#444444" fill-opacity="0.333333" stroke="#444444" stroke-opacity="0.333333" points="465.6148,-745.4811 460.9404,-754.9891 470.5238,-750.4713 465.6148,-745.4811"/>
</g>
<!-- systemd&#45;&gt;kmod&#45;libs -->
<g id="edge22" class="edge">
<title>systemd&#45;&gt;kmod&#45;libs</title>
<path fill="none" stroke="#444444" stroke-opacity="0.333333" d="M625.1868,-567.1794C601.693,-512.8924 532.5641,-353.1566 504.5378,-288.3963"/>
<polygon fill="#444444" fill-opacity="0.333333" stroke="#444444" stroke-opacity="0.333333" points="507.5898,-286.6362 500.4059,-278.8488 501.1656,-289.4164 507.5898,-286.6362"/>
</g>
<!-- systemd&#45;&gt;libfdisk -->
<g id="edge23" class="edge">
<title>systemd&#45;&gt;libfdisk</title>
<path fill="none" stroke="#444444" stroke-opacity="0.333333" d="M639.2975,-567.4809C653.4781,-525.7315 688.5565,-422.4565 705.492,-372.5962"/>
<polygon fill="#444444" fill-opacity="0.333333" stroke="#444444" stroke-opacity="0.333333" points="708.819,-373.6835 708.7211,-363.0892 702.1909,-371.4322 708.819,-373.6835"/>
</g>
<!-- systemd&#45;&gt;libseccomp -->
<g id="edge24" class="edge">
<title>systemd&#45;&gt;libseccomp</title>
<path fill="none" stroke="#444444" stroke-opacity="0.333333" d="M613.5536,-567.4175C566.5798,-523.8808 447.4792,-413.4949 393.7168,-363.6663"/>
<polygon fill="#444444" fill-opacity="0.333333" stroke="#444444" stroke-opacity="0.333333" points="395.9886,-360.9998 386.2751,-356.7691 391.2302,-366.1338 395.9886,-360.9998"/>
</g>
<!-- systemd&#45;&gt;qrencode&#45;libs -->
<g id="edge25" class="edge">
<title>systemd&#45;&gt;qrencode&#45;libs</title>
<path fill="none" stroke="#444444" stroke-opacity="0.333333" d="M630.2618,-603.8213C623.0478,-649.3835 604.2016,-768.4123 595.5671,-822.946"/>
<polygon fill="#444444" fill-opacity="0.333333" stroke="#444444" stroke-opacity="0.333333" points="592.0898,-822.5276 593.9829,-832.9519 599.0037,-823.6224 592.0898,-822.5276"/>
</g>
<!-- systemd&#45;&gt;systemd&#45;pam -->
<g id="edge26" class="edge">
<title>systemd&#45;&gt;systemd&#45;pam</title>
<path fill="none" stroke="#444444" stroke-opacity="0.333333" d="M587.074,-567.52C543.3066,-553.5649 476.3486,-534.613 422.2647,-520.6669"/>
<polygon fill="#444444" fill-opacity="0.333333" stroke="#444444" stroke-opacity="0.333333" points="422.8798,-517.2116 412.3243,-518.1235 421.1446,-523.9932 422.8798,-517.2116"/>
</g>
<!-- systemd&#45;&gt;systemd&#45;rpm&#45;macros -->
<g id="edge27" class="edge">
<title>systemd&#45;&gt;systemd&#45;rpm&#45;macros</title>
<path fill="none" stroke="#444444" stroke-opacity="0.333333" d="M571.4863,-579.4279C480.6545,-570.3656 309.6162,-553.3012 198.0258,-542.1679"/>
<polygon fill="#444444" fill-opacity="0.333333" stroke="#444444" stroke-opacity="0.333333" points="198.0509,-538.6531 187.7528,-541.143 197.3559,-545.6185 198.0509,-538.6531"/>
</g>
<!-- systemd&#45;&gt;diffutils -->
<g id="edge28" class="edge">
<title>systemd&#45;&gt;diffutils</title>
<path fill="none" stroke="#444444" stroke-dasharray="5,2" stroke-opacity="0.333333" d="M615.0013,-567.5632C586.8984,-539.6646 532.7521,-485.9119 500.6383,-454.0316"/>
<polygon fill="#444444" fill-opacity="0.333333" stroke="#444444" stroke-opacity="0.333333" points="502.927,-451.3718 493.3644,-446.8104 497.9954,-456.3396 502.927,-451.3718"/>
</g>
<!-- systemd&#45;&gt;libxkbcommon -->
<g id="edge29" class="edge">
<title>systemd&#45;&gt;libxkbcommon</title>
<path fill="none" stroke="#444444" stroke-dasharray="5,2" stroke-opacity="0.333333" d="M624.6784,-603.6275C594.3579,-668.2207 491.1119,-888.1706 454.6341,-965.8811"/>
<polygon fill="#444444" fill-opacity="0.333333" stroke="#444444" stroke-opacity="0.333333" points="451.4119,-964.5087 450.331,-975.0482 457.7485,-967.4832 451.4119,-964.5087"/>
</g>
<!-- libsemanage&#45;&gt;Fedora Container Base -->
<g id="edge41" class="edge">
<title>libsemanage&#45;&gt;Fedora Container Base</title>
<path fill="none" stroke="#444444" stroke-opacity="0.333333" d="M1145.0873,-395.7387C1062.0749,-426.4431 894.3644,-488.4756 807.2488,-520.6977"/>
<polygon fill="#444444" fill-opacity="0.333333" stroke="#444444" stroke-opacity="0.333333" points="805.9649,-517.4408 797.8001,-524.1926 808.3933,-524.0061 805.9649,-517.4408"/>
</g>
<!-- libsemanage&#45;&gt;libsemanage -->
<g id="edge42" class="edge">
<title>libsemanage&#45;&gt;libsemanage</title>
<path fill="none" stroke="#444444" stroke-opacity="0.333333" d="M1269.6725,-383.6674C1280.4009,-382.6877 1287.6,-380.6686 1287.6,-377.61 1287.6,-375.6506 1284.6455,-374.1178 1279.7013,-373.0115"/>
<polygon fill="#444444" fill-opacity="0.333333" stroke="#444444" stroke-opacity="0.333333" points="1280.0723,-369.5287 1269.6725,-371.5526 1279.0645,-376.4558 1280.0723,-369.5287"/>
</g>
<!-- util&#45;linux&#45;&gt;Fedora Container Base -->
<g id="edge30" class="edge">
<title>util&#45;linux&#45;&gt;Fedora Container Base</title>
<path fill="none" stroke="#444444" stroke-opacity="0.333333" d="M881.3875,-368.285C855.872,-402.3519 801.0754,-475.5135 771.6092,-514.8553"/>
<polygon fill="#444444" fill-opacity="0.333333" stroke="#444444" stroke-opacity="0.333333" points="768.5753,-513.0676 765.3818,-523.1697 774.178,-517.264 768.5753,-513.0676"/>
</g>
<!-- util&#45;linux&#45;&gt;util&#45;linux -->
<g id="edge31" class="edge">
<title>util&#45;linux&#45;&gt;util&#45;linux</title>
<path fill="none" stroke="#444444" stroke-opacity="0.333333" d="M959.7997,-356.1953C970.3615,-355.3013 977.62,-353.2195 977.62,-349.95 977.62,-347.8555 974.6411,-346.2484 969.7232,-345.1287"/>
<polygon fill="#444444" fill-opacity="0.333333" stroke="#444444" stroke-opacity="0.333333" points="970.1955,-341.6607 959.7997,-343.7047 969.2011,-348.5898 970.1955,-341.6607"/>
</g>
<!-- util&#45;linux&#45;&gt;libfdisk -->
<g id="edge32" class="edge">
<title>util&#45;linux&#45;&gt;libfdisk</title>
<path fill="none" stroke="#444444" stroke-opacity="0.333333" d="M830.5798,-348.0981C815.8938,-347.6767 800.2203,-347.227 785.3054,-346.799"/>
<polygon fill="#444444" fill-opacity="0.333333" stroke="#444444" stroke-opacity="0.333333" points="785.2186,-343.2952 775.1223,-346.5068 785.0177,-350.2923 785.2186,-343.2952"/>
</g>
<!-- util&#45;linux&#45;&gt;libutempter -->
<g id="edge33" class="edge">
<title>util&#45;linux&#45;&gt;libutempter</title>
<path fill="none" stroke="#444444" stroke-opacity="0.333333" d="M937.5824,-331.7966C964.1555,-320.4361 998.5624,-305.7265 1026.69,-293.7014"/>
<polygon fill="#444444" fill-opacity="0.333333" stroke="#444444" stroke-opacity="0.333333" points="1028.1488,-296.8843 1035.9679,-289.735 1025.397,-290.4478 1028.1488,-296.8843"/>
</g>
<!-- acl&#45;&gt;Fedora Container Base -->
<g id="edge56" class="edge">
<title>acl&#45;&gt;Fedora Container Base</title>
<path fill="none" stroke="#444444" stroke-opacity="0.333333" d="M438.7001,-620.0495C499.9119,-604.6333 606.927,-577.6815 678.5964,-559.6315"/>
<polygon fill="#444444" fill-opacity="0.333333" stroke="#444444" stroke-opacity="0.333333" points="679.6239,-562.9821 688.4663,-557.1458 677.9143,-556.1941 679.6239,-562.9821"/>
</g>
<!-- cryptsetup&#45;libs&#45;&gt;Fedora Container Base -->
<g id="edge57" class="edge">
<title>cryptsetup&#45;libs&#45;&gt;Fedora Container Base</title>
<path fill="none" stroke="#444444" stroke-opacity="0.333333" d="M661.1438,-199.4889C676.7473,-258.2335 725.5483,-441.9605 744.3812,-512.8629"/>
<polygon fill="#444444" fill-opacity="0.333333" stroke="#444444" stroke-opacity="0.333333" points="741.0861,-514.0917 747.036,-522.858 747.8515,-512.2946 741.0861,-514.0917"/>
</g>
<!-- cryptsetup&#45;libs&#45;&gt;device&#45;mapper&#45;libs -->
<g id="edge58" class="edge">
<title>cryptsetup&#45;libs&#45;&gt;device&#45;mapper&#45;libs</title>
<path fill="none" stroke="#444444" stroke-opacity="0.333333" d="M682.2664,-162.9473C714.7617,-140.2066 770.4634,-101.2257 806.3493,-76.1122"/>
<polygon fill="#444444" fill-opacity="0.333333" stroke="#444444" stroke-opacity="0.333333" points="808.3895,-78.9564 814.5758,-70.3552 804.376,-73.2213 808.3895,-78.9564"/>
</g>
<!-- cryptsetup&#45;libs&#45;&gt;libargon2 -->
<g id="edge59" class="edge">
<title>cryptsetup&#45;libs&#45;&gt;libargon2</title>
<path fill="none" stroke="#444444" stroke-opacity="0.333333" d="M650.7104,-163.0578C641.9725,-134.6389 624.9617,-79.313 614.6597,-45.8071"/>
<polygon fill="#444444" fill-opacity="0.333333" stroke="#444444" stroke-opacity="0.333333" points="617.9789,-44.6929 611.6946,-36.1631 611.2881,-46.7502 617.9789,-44.6929"/>
</g>
<!-- dbus&#45;&gt;dbus&#45;broker -->
<g id="edge60" class="edge">
<title>dbus&#45;&gt;dbus&#45;broker</title>
<path fill="none" stroke="#444444" stroke-opacity="0.333333" d="M740.6777,-1017.98C763.714,-972.7984 824.0371,-854.4854 851.3588,-800.8985"/>
<polygon fill="#444444" fill-opacity="0.333333" stroke="#444444" stroke-opacity="0.333333" points="854.4838,-802.4748 855.908,-791.9761 848.2476,-799.2952 854.4838,-802.4748"/>
</g>
<!-- iptables&#45;libs&#45;&gt;Fedora Container Base -->
<g id="edge61" class="edge">
<title>iptables&#45;libs&#45;&gt;Fedora Container Base</title>
<path fill="none" stroke="#444444" stroke-opacity="0.333333" d="M466.5391,-755.1031C521.7264,-713.7295 657.599,-611.8668 719.8321,-565.2111"/>
<polygon fill="#444444" fill-opacity="0.333333" stroke="#444444" stroke-opacity="0.333333" points="722.207,-567.805 728.1087,-559.0062 718.008,-562.2042 722.207,-567.805"/>
</g>
<!-- iptables&#45;libs&#45;&gt;libpcap -->
<g id="edge62" class="edge">
<title>iptables&#45;libs&#45;&gt;libpcap</title>
<path fill="none" stroke="#444444" stroke-opacity="0.333333" d="M368.8573,-786.3419C364.4873,-787.1269 360.0982,-787.9153 355.7447,-788.6973"/>
<polygon fill="#444444" fill-opacity="0.333333" stroke="#444444" stroke-opacity="0.333333" points="354.9006,-785.2928 345.677,-790.5057 356.1383,-792.1825 354.9006,-785.2928"/>
</g>
<!-- kmod&#45;libs&#45;&gt;Fedora Container Base -->
<g id="edge63" class="edge">
<title>kmod&#45;libs&#45;&gt;Fedora Container Base</title>
<path fill="none" stroke="#444444" stroke-opacity="0.333333" d="M509.548,-279.0557C554.5407,-327.7173 676.7145,-459.8536 728.3535,-515.7035"/>
<polygon fill="#444444" fill-opacity="0.333333" stroke="#444444" stroke-opacity="0.333333" points="725.7978,-518.0949 735.1565,-523.0612 730.9375,-513.3426 725.7978,-518.0949"/>
</g>
<!-- libfdisk&#45;&gt;Fedora Container Base -->
<g id="edge64" class="edge">
<title>libfdisk&#45;&gt;Fedora Container Base</title>
<path fill="none" stroke="#444444" stroke-opacity="0.333333" d="M718.3509,-362.9039C724.8281,-397.321 738.9474,-472.3451 746.643,-513.2365"/>
<polygon fill="#444444" fill-opacity="0.333333" stroke="#444444" stroke-opacity="0.333333" points="743.2082,-513.9098 748.4974,-523.0899 750.0874,-512.6151 743.2082,-513.9098"/>
</g>
<!-- libseccomp&#45;&gt;Fedora Container Base -->
<g id="edge65" class="edge">
<title>libseccomp&#45;&gt;Fedora Container Base</title>
<path fill="none" stroke="#444444" stroke-opacity="0.333333" d="M401.1774,-356.7368C471.9005,-393.9277 633.0208,-478.6554 709.758,-519.0089"/>
<polygon fill="#444444" fill-opacity="0.333333" stroke="#444444" stroke-opacity="0.333333" points="708.2062,-522.1473 718.6861,-523.7039 711.4643,-515.9517 708.2062,-522.1473"/>
</g>
<!-- qrencode&#45;libs&#45;&gt;Fedora Container Base -->
<g id="edge66" class="edge">
<title>qrencode&#45;libs&#45;&gt;Fedora Container Base</title>
<path fill="none" stroke="#444444" stroke-opacity="0.333333" d="M600.7054,-832.5184C627.912,-780.0919 705.7704,-630.0606 737.8375,-568.2681"/>
<polygon fill="#444444" fill-opacity="0.333333" stroke="#444444" stroke-opacity="0.333333" points="741.0765,-569.625 742.5761,-559.1369 734.8633,-566.4007 741.0765,-569.625"/>
</g>
<!-- systemd&#45;pam&#45;&gt;Fedora Container Base -->
<g id="edge67" class="edge">
<title>systemd&#45;pam&#45;&gt;Fedora Container Base</title>
<path fill="none" stroke="#444444" stroke-opacity="0.333333" d="M412.4252,-509.8141C473.6408,-515.4684 559.6952,-523.4168 629.8432,-529.8961"/>
<polygon fill="#444444" fill-opacity="0.333333" stroke="#444444" stroke-opacity="0.333333" points="629.793,-533.4063 640.0726,-530.841 630.4369,-526.436 629.793,-533.4063"/>
</g>
<!-- systemd&#45;pam&#45;&gt;systemd -->
<g id="edge68" class="edge">
<title>systemd&#45;pam&#45;&gt;systemd</title>
<path fill="none" stroke="#444444" stroke-opacity="0.333333" d="M379.856,-520.61C428.3309,-536.0661 505.2532,-557.6516 561.6249,-571.7769"/>
<polygon fill="#444444" fill-opacity="0.333333" stroke="#444444" stroke-opacity="0.333333" points="560.9974,-575.2272 571.5459,-574.2376 562.6826,-568.4331 560.9974,-575.2272"/>
</g>
<!-- diffutils&#45;&gt;Fedora Container Base -->
<g id="edge71" class="edge">
<title>diffutils&#45;&gt;Fedora Container Base</title>
<path fill="none" stroke="#444444" stroke-opacity="0.333333" d="M519.4384,-446.6192C568.8136,-466.7019 648.37,-499.0605 700.4002,-520.2231"/>
<polygon fill="#444444" fill-opacity="0.333333" stroke="#444444" stroke-opacity="0.333333" points="699.1998,-523.5133 709.7816,-524.0389 701.8372,-517.0291 699.1998,-523.5133"/>
</g>
<!-- libxkbcommon&#45;&gt;Fedora Container Base -->
<g id="edge72" class="edge">
<title>libxkbcommon&#45;&gt;Fedora Container Base</title>
<path fill="none" stroke="#444444" stroke-opacity="0.333333" d="M454.09,-975.345C502.1385,-905.2954 676.7579,-650.7191 733.7636,-567.611"/>
<polygon fill="#444444" fill-opacity="0.333333" stroke="#444444" stroke-opacity="0.333333" points="736.7445,-569.4528 739.5147,-559.2265 730.9719,-565.4932 736.7445,-569.4528"/>
</g>
<!-- libxkbcommon&#45;&gt;xkeyboard&#45;config -->
<g id="edge73" class="edge">
<title>libxkbcommon&#45;&gt;xkeyboard&#45;config</title>
<path fill="none" stroke="#444444" stroke-opacity="0.333333" d="M430.3427,-1011.5976C391.1902,-1074.2824 262.0513,-1281.0397 215.5519,-1355.4873"/>
<polygon fill="#444444" fill-opacity="0.333333" stroke="#444444" stroke-opacity="0.333333" points="212.3816,-1353.9562 210.0526,-1364.2919 218.3187,-1357.6645 212.3816,-1353.9562"/>
</g>
<!-- libutempter&#45;&gt;Fedora Container Base -->
<g id="edge69" class="edge">
<title>libutempter&#45;&gt;Fedora Container Base</title>
<path fill="none" stroke="#444444" stroke-opacity="0.333333" d="M1056.2839,-289.7805C999.279,-336.8605 846.3121,-463.1953 781.534,-516.6954"/>
<polygon fill="#444444" fill-opacity="0.333333" stroke="#444444" stroke-opacity="0.333333" points="779.2023,-514.0817 773.7207,-523.1483 783.6599,-519.479 779.2023,-514.0817"/>
</g>
<!-- libutempter&#45;&gt;shadow&#45;utils -->
<g id="edge70" class="edge">
<title>libutempter&#45;&gt;shadow&#45;utils</title>
<path fill="none" stroke="#444444" stroke-opacity="0.333333" d="M1074.1075,-289.9015C1064.0893,-334.5063 1038.2803,-449.4186 1026.2925,-502.7933"/>
<polygon fill="#444444" fill-opacity="0.333333" stroke="#444444" stroke-opacity="0.333333" points="1022.8645,-502.0847 1024.088,-512.6086 1029.6944,-503.6187 1022.8645,-502.0847"/>
</g>
<!-- libunwind&#45;&gt;Fedora Container Base -->
<g id="edge38" class="edge">
<title>libunwind&#45;&gt;Fedora Container Base</title>
<path fill="none" stroke="#444444" stroke-opacity="0.333333" d="M987.472,-972.7994C949.38,-903.0049 812.4351,-652.0861 766.8089,-568.4871"/>
<polygon fill="#444444" fill-opacity="0.333333" stroke="#444444" stroke-opacity="0.333333" points="769.8145,-566.688 761.9515,-559.587 763.67,-570.0415 769.8145,-566.688"/>
</g>
<!-- libunwind&#45;&gt;libunwind -->
<g id="edge39" class="edge">
<title>libunwind&#45;&gt;libunwind</title>
<path fill="none" stroke="#444444" stroke-opacity="0.333333" d="M1064.737,-997.176C1075.2397,-996.2512 1082.4,-994.1892 1082.4,-990.99 1082.4,-988.9905 1079.603,-987.4352 1074.9411,-986.3241"/>
<polygon fill="#444444" fill-opacity="0.333333" stroke="#444444" stroke-opacity="0.333333" points="1075.1436,-982.8158 1064.737,-984.804 1074.1121,-989.7394 1075.1436,-982.8158"/>
</g>
<!-- libpcap&#45;&gt;Fedora Container Base -->
<g id="edge40" class="edge">
<title>libpcap&#45;&gt;Fedora Container Base</title>
<path fill="none" stroke="#444444" stroke-opacity="0.333333" d="M318.4192,-783.1403C401.2093,-736.9266 620.4381,-614.5524 711.4296,-563.7607"/>
<polygon fill="#444444" fill-opacity="0.333333" stroke="#444444" stroke-opacity="0.333333" points="713.3142,-566.7172 720.34,-558.7869 709.9023,-560.6049 713.3142,-566.7172"/>
</g>
<!-- gperftools&#45;libs&#45;&gt;Fedora Container Base -->
<g id="edge43" class="edge">
<title>gperftools&#45;libs&#45;&gt;Fedora Container Base</title>
<path fill="none" stroke="#444444" stroke-opacity="0.333333" d="M1086.3324,-854.7819C1026.9221,-799.0703 846.4769,-629.8589 778.3341,-565.9584"/>
<polygon fill="#444444" fill-opacity="0.333333" stroke="#444444" stroke-opacity="0.333333" points="780.658,-563.3394 770.9693,-559.0521 775.8697,-568.4456 780.658,-563.3394"/>
</g>
<!-- gperftools&#45;libs&#45;&gt;libunwind -->
<g id="edge44" class="edge">
<title>gperftools&#45;libs&#45;&gt;libunwind</title>
<path fill="none" stroke="#444444" stroke-opacity="0.333333" d="M1088.9309,-891.0505C1070.6895,-910.9676 1041.3123,-943.0436 1020.7738,-965.4689"/>
<polygon fill="#444444" fill-opacity="0.333333" stroke="#444444" stroke-opacity="0.333333" points="1018.0835,-963.2243 1013.9105,-972.9627 1023.2456,-967.9521 1018.0835,-963.2243"/>
</g>
<!-- nginx&#45;&gt;Fedora Container Base -->
<g id="edge45" class="edge">
<title>nginx&#45;&gt;Fedora Container Base</title>
<path fill="none" stroke="#444444" stroke-opacity="0.333333" d="M1152.3717,-713.1873C1070.257,-677.916 888.9039,-600.0182 801.2464,-562.3661"/>
<polygon fill="#444444" fill-opacity="0.333333" stroke="#444444" stroke-opacity="0.333333" points="802.6166,-559.1455 792.047,-558.4146 799.8539,-565.5772 802.6166,-559.1455"/>
</g>
<!-- nginx&#45;&gt;systemd -->
<g id="edge46" class="edge">
<title>nginx&#45;&gt;systemd</title>
<path fill="none" stroke="#444444" stroke-opacity="0.333333" d="M1125.0168,-713.2331C1017.9372,-685.443 813.4594,-632.3753 704.9405,-604.2116"/>
<polygon fill="#444444" fill-opacity="0.333333" stroke="#444444" stroke-opacity="0.333333" points="705.6221,-600.7727 695.0636,-601.6483 703.8636,-607.5482 705.6221,-600.7727"/>
</g>
<!-- nginx&#45;&gt;fedora&#45;logos&#45;httpd -->
<g id="edge47" class="edge">
<title>nginx&#45;&gt;fedora&#45;logos&#45;httpd</title>
<path fill="none" stroke="#444444" stroke-opacity="0.333333" d="M1225.5304,-749.2883C1298.8919,-791.8208 1482.5569,-898.3035 1564.061,-945.5568"/>
<polygon fill="#444444" fill-opacity="0.333333" stroke="#444444" stroke-opacity="0.333333" points="1562.6103,-948.7614 1573.017,-950.7492 1566.1213,-942.7055 1562.6103,-948.7614"/>
</g>
<!-- nginx&#45;&gt;gperftools&#45;libs -->
<g id="edge48" class="edge">
<title>nginx&#45;&gt;gperftools&#45;libs</title>
<path fill="none" stroke="#444444" stroke-opacity="0.333333" d="M1182.9727,-749.4631C1167.5871,-773.9987 1140.1,-817.8327 1122.3695,-846.1076"/>
<polygon fill="#444444" fill-opacity="0.333333" stroke="#444444" stroke-opacity="0.333333" points="1119.3308,-844.3653 1116.9834,-854.6968 1125.2613,-848.0842 1119.3308,-844.3653"/>
</g>
<!-- nginx&#45;&gt;nginx -->
<g id="edge49" class="edge">
<title>nginx&#45;&gt;nginx</title>
<path fill="none" stroke="#444444" stroke-opacity="0.333333" d="M1271.9655,-737.2633C1282.715,-736.2712 1289.9,-734.2634 1289.9,-731.24 1289.9,-729.3031 1286.9513,-727.7831 1282.0057,-726.6798"/>
<polygon fill="#444444" fill-opacity="0.333333" stroke="#444444" stroke-opacity="0.333333" points="1282.3657,-723.1954 1271.9655,-725.2167 1281.3562,-730.1223 1282.3657,-723.1954"/>
</g>
<!-- nginx&#45;&gt;nginx&#45;filesystem -->
<g id="edge50" class="edge">
<title>nginx&#45;&gt;nginx&#45;filesystem</title>
<path fill="none" stroke="#444444" stroke-opacity="0.333333" d="M1203.6455,-713.1659C1216.7036,-687.6385 1240.6503,-640.8249 1255.8692,-611.0734"/>
<polygon fill="#444444" fill-opacity="0.333333" stroke="#444444" stroke-opacity="0.333333" points="1259.0407,-612.5588 1260.4789,-602.062 1252.8087,-609.3709 1259.0407,-612.5588"/>
</g>
<!-- nginx&#45;&gt;nginx&#45;mimetypes -->
<g id="edge51" class="edge">
<title>nginx&#45;&gt;nginx&#45;mimetypes</title>
<path fill="none" stroke="#444444" stroke-opacity="0.333333" d="M1272.2246,-719.7569C1330.6414,-711.1375 1410.978,-699.2838 1473.4856,-690.0607"/>
<polygon fill="#444444" fill-opacity="0.333333" stroke="#444444" stroke-opacity="0.333333" points="1474.3705,-693.4682 1483.7525,-688.5459 1473.3486,-686.5431 1474.3705,-693.4682"/>
</g>
<!-- nginx&#45;filesystem&#45;&gt;Fedora Container Base -->
<g id="edge52" class="edge">
<title>nginx&#45;filesystem&#45;&gt;Fedora Container Base</title>
<path fill="none" stroke="#444444" stroke-opacity="0.333333" d="M1193.6604,-577.5668C1110.7518,-570.736 976.8145,-559.7008 878.1256,-551.5698"/>
<polygon fill="#444444" fill-opacity="0.333333" stroke="#444444" stroke-opacity="0.333333" points="878.3396,-548.0756 868.0859,-550.7426 877.7647,-555.052 878.3396,-548.0756"/>
</g>
<!-- nginx&#45;filesystem&#45;&gt;shadow&#45;utils -->
<g id="edge53" class="edge">
<title>nginx&#45;filesystem&#45;&gt;shadow&#45;utils</title>
<path fill="none" stroke="#444444" stroke-opacity="0.333333" d="M1193.4944,-567.6411C1164.1035,-561.4017 1130.4594,-554.2594 1100.6699,-547.9354"/>
<polygon fill="#444444" fill-opacity="0.333333" stroke="#444444" stroke-opacity="0.333333" points="1101.2357,-544.4776 1090.7269,-545.8246 1099.782,-551.325 1101.2357,-544.4776"/>
</g>
<!-- nginx&#45;mimetypes&#45;&gt;nginx&#45;filesystem -->
<g id="edge54" class="edge">
<title>nginx&#45;mimetypes&#45;&gt;nginx&#45;filesystem</title>
<path fill="none" stroke="#444444" stroke-opacity="0.333333" d="M1511.0483,-657.7575C1461.4799,-642.5699 1390.5678,-620.8427 1338.4489,-604.8737"/>
<polygon fill="#444444" fill-opacity="0.333333" stroke="#444444" stroke-opacity="0.333333" points="1339.2035,-601.4444 1328.6168,-601.8612 1337.1528,-608.1373 1339.2035,-601.4444"/>
</g>
<!-- nginx&#45;mimetypes&#45;&gt;nginx&#45;mimetypes -->
<g id="edge55" class="edge">
<title>nginx&#45;mimetypes&#45;&gt;nginx&#45;mimetypes</title>
<path fill="none" stroke="#444444" stroke-opacity="0.333333" d="M1656.077,-681.6982C1666.8864,-680.6622 1674,-678.7028 1674,-675.82 1674,-673.9732 1671.0806,-672.5054 1666.1403,-671.4165"/>
<polygon fill="#444444" fill-opacity="0.333333" stroke="#444444" stroke-opacity="0.333333" points="1666.4789,-667.9288 1656.077,-669.9418 1665.4639,-674.8548 1666.4789,-667.9288"/>
</g>
<!-- Fedora Container Base -->
<g id="node1" class="node">
<title>Fedora Container Base</title>
<ellipse fill="none" stroke="#000000" cx="751.9" cy="-541.17" rx="136.5" ry="18"/>
<text text-anchor="middle" x="751.9" y="-537.47" font-family="Helvetica,sans-Serif" font-weight="bold" font-size="14.00" fill="#000000">Fedora Container Base (201.3 MB)</text>
</g>
<!-- device&#45;mapper&#45;libs -->
<g id="node2" class="node">
<title>device&#45;mapper&#45;libs</title>
<text text-anchor="middle" x="840.44" y="-48.555" font-family="Helvetica,sans-Serif" font-weight="bold" font-size="14.00" fill="#000000">device&#45;mapper&#45;libs (418.0 kB)</text>
</g>
<!-- device&#45;mapper -->
<g id="node3" class="node">
<title>device&#45;mapper</title>
<text text-anchor="middle" x="821.62" y="-229.4" font-family="Helvetica,sans-Serif" font-weight="bold" font-size="14.00" fill="#000000">device&#45;mapper (349.9 kB)</text>
</g>
<!-- libargon2 -->
<g id="node4" class="node">
<title>libargon2</title>
<text text-anchor="middle" x="606.11" y="-14.3" font-family="Helvetica,sans-Serif" font-weight="bold" font-size="14.00" fill="#000000">libargon2 (54.2 kB)</text>
</g>
<!-- dbus&#45;broker -->
<g id="node5" class="node">
<title>dbus&#45;broker</title>
<text text-anchor="middle" x="865.16" y="-770.13" font-family="Helvetica,sans-Serif" font-weight="bold" font-size="14.00" fill="#000000">dbus&#45;broker (409.7 kB)</text>
</g>
<!-- dbus&#45;common -->
<g id="node6" class="node">
<title>dbus&#45;common</title>
<text text-anchor="middle" x="751.64" y="-836.59" font-family="Helvetica,sans-Serif" font-weight="bold" font-size="14.00" fill="#000000">dbus&#45;common (11.2 kB)</text>
</g>
<!-- shadow&#45;utils -->
<g id="node7" class="node">
<title>shadow&#45;utils</title>
<text text-anchor="middle" x="1020" y="-527.11" font-family="Helvetica,sans-Serif" font-weight="bold" font-size="14.00" fill="#000000">shadow&#45;utils (4.0 MB)</text>
</g>
<!-- systemd -->
<g id="node8" class="node">
<title>systemd</title>
<text text-anchor="middle" x="633.15" y="-581.88" font-family="Helvetica,sans-Serif" font-weight="bold" font-size="14.00" fill="#000000">systemd (13.1 MB)</text>
</g>
<!-- libsemanage -->
<g id="node9" class="node">
<title>libsemanage</title>
<text text-anchor="middle" x="1194.1" y="-373.91" font-family="Helvetica,sans-Serif" font-weight="bold" font-size="14.00" fill="#000000">libsemanage (304.5 kB)</text>
</g>
<!-- util&#45;linux -->
<g id="node10" class="node">
<title>util&#45;linux</title>
<text text-anchor="middle" x="895.12" y="-346.25" font-family="Helvetica,sans-Serif" font-weight="bold" font-size="14.00" fill="#000000">util&#45;linux (13.5 MB)</text>
</g>
<!-- acl -->
<g id="node11" class="node">
<title>acl</title>
<text text-anchor="middle" x="391.17" y="-628.32" font-family="Helvetica,sans-Serif" font-weight="bold" font-size="14.00" fill="#000000">acl (209.6 kB)</text>
</g>
<!-- cryptsetup&#45;libs -->
<g id="node12" class="node">
<title>cryptsetup&#45;libs</title>
<text text-anchor="middle" x="656.27" y="-177.44" font-family="Helvetica,sans-Serif" font-weight="bold" font-size="14.00" fill="#000000">cryptsetup&#45;libs (1.8 MB)</text>
</g>
<!-- dbus -->
<g id="node13" class="node">
<title>dbus</title>
<text text-anchor="middle" x="731.49" y="-1032.3" font-family="Helvetica,sans-Serif" font-weight="bold" font-size="14.00" fill="#000000">dbus (0.0 B)</text>
</g>
<!-- iptables&#45;libs -->
<g id="node14" class="node">
<title>iptables&#45;libs</title>
<text text-anchor="middle" x="442.52" y="-769.41" font-family="Helvetica,sans-Serif" font-weight="bold" font-size="14.00" fill="#000000">iptables&#45;libs (141.4 kB)</text>
</g>
<!-- kmod&#45;libs -->
<g id="node15" class="node">
<title>kmod&#45;libs</title>
<text text-anchor="middle" x="492.53" y="-256.95" font-family="Helvetica,sans-Serif" font-weight="bold" font-size="14.00" fill="#000000">kmod&#45;libs (127.5 kB)</text>
</g>
<!-- libfdisk -->
<g id="node16" class="node">
<title>libfdisk</title>
<text text-anchor="middle" x="714.94" y="-341.08" font-family="Helvetica,sans-Serif" font-weight="bold" font-size="14.00" fill="#000000">libfdisk (472.7 kB)</text>
</g>
<!-- libseccomp -->
<g id="node17" class="node">
<title>libseccomp</title>
<text text-anchor="middle" x="366.65" y="-334.88" font-family="Helvetica,sans-Serif" font-weight="bold" font-size="14.00" fill="#000000">libseccomp (351.1 kB)</text>
</g>
<!-- qrencode&#45;libs -->
<g id="node18" class="node">
<title>qrencode&#45;libs</title>
<text text-anchor="middle" x="591.13" y="-847.27" font-family="Helvetica,sans-Serif" font-weight="bold" font-size="14.00" fill="#000000">qrencode&#45;libs (158.2 kB)</text>
</g>
<!-- systemd&#45;pam -->
<g id="node19" class="node">
<title>systemd&#45;pam</title>
<text text-anchor="middle" x="333.78" y="-498.85" font-family="Helvetica,sans-Serif" font-weight="bold" font-size="14.00" fill="#000000">systemd&#45;pam (867.6 kB)</text>
</g>
<!-- systemd&#45;rpm&#45;macros -->
<g id="node20" class="node">
<title>systemd&#45;rpm&#45;macros</title>
<text text-anchor="middle" x="91" y="-527.79" font-family="Helvetica,sans-Serif" font-weight="bold" font-size="14.00" fill="#000000">systemd&#45;rpm&#45;macros (4.9 kB)</text>
</g>
<!-- diffutils -->
<g id="node21" class="node">
<title>diffutils</title>
<text text-anchor="middle" x="474.94" y="-424.82" font-family="Helvetica,sans-Serif" font-weight="bold" font-size="14.00" fill="#000000">diffutils (1.5 MB)</text>
</g>
<!-- libxkbcommon -->
<g id="node22" class="node">
<title>libxkbcommon</title>
<text text-anchor="middle" x="441.74" y="-989.65" font-family="Helvetica,sans-Serif" font-weight="bold" font-size="14.00" fill="#000000">libxkbcommon (276.4 kB)</text>
</g>
<!-- libutempter -->
<g id="node23" class="node">
<title>libutempter</title>
<text text-anchor="middle" x="1078.2" y="-267.98" font-family="Helvetica,sans-Serif" font-weight="bold" font-size="14.00" fill="#000000">libutempter (57.8 kB)</text>
</g>
<!-- libunwind -->
<g id="node24" class="node">
<title>libunwind</title>
<text text-anchor="middle" x="997.4" y="-987.29" font-family="Helvetica,sans-Serif" font-weight="bold" font-size="14.00" fill="#000000">libunwind (172.8 kB)</text>
</g>
<!-- libpcap -->
<g id="node25" class="node">
<title>libpcap</title>
<text text-anchor="middle" x="286.03" y="-797.52" font-family="Helvetica,sans-Serif" font-weight="bold" font-size="14.00" fill="#000000">libpcap (387.4 kB)</text>
</g>
<!-- xkeyboard&#45;config -->
<g id="node26" class="node">
<title>xkeyboard&#45;config</title>
<text text-anchor="middle" x="198.68" y="-1378.8" font-family="Helvetica,sans-Serif" font-weight="bold" font-size="14.00" fill="#000000">xkeyboard&#45;config (5.5 MB)</text>
</g>
<!-- fedora&#45;logos&#45;httpd -->
<g id="node27" class="node">
<title>fedora&#45;logos&#45;httpd</title>
<text text-anchor="middle" x="1604.1" y="-965.07" font-family="Helvetica,sans-Serif" font-weight="bold" font-size="14.00" fill="#000000">fedora&#45;logos&#45;httpd (9.9 kB)</text>
</g>
<!-- gperftools&#45;libs -->
<g id="node28" class="node">
<title>gperftools&#45;libs</title>
<text text-anchor="middle" x="1105.6" y="-869.15" font-family="Helvetica,sans-Serif" font-weight="bold" font-size="14.00" fill="#000000">gperftools&#45;libs (1.5 MB)</text>
</g>
<!-- nginx -->
<g id="node29" class="node">
<title>nginx</title>
<text text-anchor="middle" x="1194.4" y="-725.64" font-family="Helvetica,sans-Serif" font-weight="bold" font-size="22.00" fill="#cc0066">nginx (1.6 MB)</text>
</g>
<!-- nginx&#45;filesystem -->
<g id="node30" class="node">
<title>nginx&#45;filesystem</title>
<text text-anchor="middle" x="1269.8" y="-580.14" font-family="Helvetica,sans-Serif" font-weight="bold" font-size="14.00" fill="#000000">nginx&#45;filesystem (0.0 B)</text>
</g>
<!-- nginx&#45;mimetypes -->
<g id="node31" class="node">
<title>nginx&#45;mimetypes</title>
<text text-anchor="middle" x="1570" y="-672.12" font-family="Helvetica,sans-Serif" font-weight="bold" font-size="14.00" fill="#000000">nginx&#45;mimetypes (39.3 kB)</text>
</g>
</g>

<script type="text/javascript"><![CDATA[

document.addEventListener('click', function(e) {
      e = e || window.event;
      var target = e.target || e.srcElement;
      text = target.parentElement.querySelector("title").textContent;

      console.log("Clicked on: " + text);
      // reset all strokes
      var nodes = document.getElementsByClassName("edge");

      for (index = 0, len = nodes.length; index < len; ++index) {
          //var title = nodes[index].querySelector("title").textContent.split("->");
          id = nodes[index].id;
          document.getElementById(id).querySelector("path").setAttribute("stroke-width", "1");
          document.getElementById(id).querySelector("path").setAttribute("stroke-opacity", "0.5");
          document.getElementById(id).querySelector("path").setAttribute("stroke", "#444444");
          document.getElementById(id).querySelector("polygon").setAttribute("stroke-width", "1");
          document.getElementById(id).querySelector("polygon").setAttribute("stroke-opacity", "0.5");
          document.getElementById(id).querySelector("polygon").setAttribute("stroke", "#444444");
      }
      // reset text highlight
      pkgs = document.getElementsByClassName("node");
      for (index2 = 0, len2 = pkgs.length; index2 < len2; ++index2) {
          target_id = pkgs[index2].id;
          document.getElementById(target_id).querySelector("text").setAttribute("font-weight", "normal");
      }

      // highlight deps
      var nodes = document.getElementsByClassName("edge");
      for (index = 0, len = nodes.length; index < len; ++index) {
        var title = nodes[index].querySelector("title").textContent.split("->");

        if (title[0] == text) {
          id = nodes[index].id;
          //console.log("ID:   " + id);
          document.getElementById(id).querySelector("path").setAttribute("stroke-width", "3");
          document.getElementById(id).querySelector("path").setAttribute("stroke-opacity", "1");
          document.getElementById(id).querySelector("path").setAttribute("stroke", "#aa3333");
          document.getElementById(id).querySelector("polygon").setAttribute("stroke-width", "5");
          document.getElementById(id).querySelector("polygon").setAttribute("stroke-opacity", "1");
          document.getElementById(id).querySelector("polygon").setAttribute("stroke", "#aa3333");

        }
        if (title[1] == text) {
          id = nodes[index].id;
          document.getElementById(id).querySelector("path").setAttribute("stroke-width", "3");
          document.getElementById(id).querySelector("path").setAttribute("stroke-opacity", "1");
          document.getElementById(id).querySelector("path").setAttribute("stroke", "#333377");
          document.getElementById(id).querySelector("polygon").setAttribute("stroke-width", "5");
          document.getElementById(id).querySelector("polygon").setAttribute("stroke-opacity", "1");
          document.getElementById(id).querySelector("polygon").setAttribute("stroke", "#333377");
        }

        if (title[0] == text || title[1] == text) {
          pkgs = document.getElementsByClassName("node");
          for (index2 = 0, len2 = pkgs.length; index2 < len2; ++index2) {
            var pkg_name = pkgs[index2].querySelector("title").textContent;
            if (pkg_name == title[0] || pkg_name == title[1]) {
              target_id = pkgs[index2].id;
              document.getElementById(target_id).querySelector("text").setAttribute("font-weight", "bold");
            }
          }
        }
      }


  }, false);

]]></script>

</svg>
