<?xml version="1.0" encoding="UTF-8" standalone="no"?>
<!DOCTYPE svg PUBLIC "-//W3C//DTD SVG 1.1//EN"
 "http://www.w3.org/Graphics/SVG/1.1/DTD/svg11.dtd">
<!-- Generated by graphviz version 2.40.1 (0)
 -->
<!-- Title: packages Pages: 1 -->
<svg width="1642pt" height="1199pt"
 viewBox="0.00 0.00 1970.49 1438.43" xmlns="http://www.w3.org/2000/svg" xmlns:xlink="http://www.w3.org/1999/xlink">
<g id="graph0" class="graph" transform="scale(.8333 .8333) rotate(0) translate(101.3707 1285.0364)">
<title>packages</title>
<polygon fill="#dae2ff" stroke="transparent" points="-101.3707,153.3932 -101.3707,-1285.0364 1869.121,-1285.0364 1869.121,153.3932 -101.3707,153.3932"/>
<polygon fill="#ccebc5" stroke="#ccebc5" points="395.7708,-864.2164 393.0679,-864.2164 393.0679,-864.2164 395.7708,-864.2164 395.8162,-777.9992 392.5939,-775.049 387.4798,-777.721 322.1271,-806.4752 318.3521,-808.2966 303.0541,-817.0161 290.1865,-826.0242 274.5864,-838.3084 263.0945,-848.3257 246.9388,-864.48 203.6422,-902.3913 233.7296,-980.8449 246.6121,-996.215 254.9126,-1043.4138 259.2015,-1070.6842 262.9845,-1102.3572 306.4005,-1202.9054 308.7112,-1205.5593 312.8863,-1209.4841 417.4241,-1216.6952 426.2881,-1214.4343 426.2929,-1207.5055 426.2929,-1207.5055 426.2881,-1214.4343 437.1771,-1212.0892 438.6306,-1137.0222 438.5695,-1134.1689 438.5695,-1134.1689 438.6306,-1137.0222 437.1771,-1212.0892 451.8528,-1209.8002 457.5592,-1209.0237 467.3876,-1208.0765 477.9664,-1207.2673 471.9931,-1061.8574 473.1753,-1061.8574 474.1783,-1061.2778 590.08,-1067.4827 600.7472,-1022.0313 650.7935,-1011.7726 652.5038,-970.6439 652.5038,-970.6439 650.7935,-1011.7726 669.074,-1009.0137 666.7105,-932.6772 669.3591,-899.2164 668.6746,-899.0029 668.6746,-899.0029 669.3591,-899.2164 666.7105,-932.6772 669.074,-1009.0137 677.4349,-1008.209 679.2845,-1008.1318 685.2125,-903.698 690.1591,-903.698 696.058,-900.174 697.0729,-898.9831 697.0729,-898.9831 696.058,-900.174 690.1591,-903.698 685.2125,-903.698 679.2845,-1008.1318 677.4349,-1008.209 669.074,-1009.0137 650.7935,-1011.7726 600.7472,-1022.0313 590.08,-1067.4827 474.1783,-1061.2778 473.1753,-1061.8574 471.9931,-1061.8574 477.9664,-1207.2673 481.2926,-1207.0792 557.7999,-1204.2734 624.9285,-1266.0197 697.5248,-1268.7607 697.8954,-1268.7815 710.6726,-1269.9581 725.6267,-1271.8771 722.9272,-1174.2704 724.2747,-1120.9426 729.0166,-1118.1636 730.5457,-1116.324 729.6432,-1115.3038 724.0011,-1112.0402 719.2844,-1112.0402 719.2844,-1112.0402 724.0011,-1112.0402 729.6432,-1115.3038 730.5457,-1116.324 729.0166,-1118.1636 724.2747,-1120.9426 722.9272,-1174.2704 725.6267,-1271.8771 729.0449,-1272.439 732.0608,-1273.0443 740.119,-1116.9182 738.4093,-1116.4182 742.1808,-1089.8491 741.8945,-1014.1339 756.7083,-1024.8479 835.7645,-1078.3401 839.6151,-1081.2828 848.9291,-1088.8234 857.8544,-1096.4401 857.537,-1021.5391 854.0738,-981.3154 850.6797,-981.3154 844.9058,-922.4788 845.1974,-853.1706 850.5652,-852.9837 846.5285,-728.4353 841.7307,-729.7946 835.7422,-728.0138 832.0156,-724.7883 831.3721,-724.9816 831.3721,-724.9816 832.0156,-724.7883 835.7422,-728.0138 841.7307,-729.7946 846.5285,-728.4353 850.455,-725.0356 846.67,-721.5901 841.4843,-720.024 841.4843,-720.024 846.67,-721.5901 850.455,-725.0356 846.5285,-728.4353 850.5652,-852.9837 845.1974,-853.1706 844.9058,-922.4788 850.6797,-981.3154 854.0738,-981.3154 857.537,-1021.5391 857.8544,-1096.4401 866.0693,-1104.1622 869.0366,-1106.8071 877.9139,-1115.0754 877.8506,-1069.7058 874.7598,-1022.3769 875.2557,-985.5389 880.3253,-985.5389 886.3024,-982.0259 887.0186,-981.2374 885.511,-979.5784 880.5388,-976.813 877.9357,-930.5338 878.3005,-853.0714 878.9634,-853.0376 878.9634,-853.0376 878.3005,-853.0714 877.9357,-930.5338 880.5388,-976.813 885.511,-979.5784 887.0186,-981.2374 886.3024,-982.0259 880.3253,-985.5389 875.2557,-985.5389 874.7598,-1022.3769 877.8506,-1069.7058 877.9139,-1115.0754 885.48,-1123.3702 894.5061,-1132.4098 893.6194,-1049.3615 893.6194,-1049.3615 894.5061,-1132.4098 885.48,-1123.3702 877.9139,-1115.0754 869.0366,-1106.8071 866.0693,-1104.1622 857.8544,-1096.4401 848.9291,-1088.8234 839.6151,-1081.2828 835.7645,-1078.3401 756.7083,-1024.8479 741.8945,-1014.1339 742.1808,-1089.8491 738.4093,-1116.4182 740.119,-1116.9182 743.6074,-1116.9182 743.7112,-1116.8871 743.7112,-1116.8871 743.6074,-1116.9182 740.119,-1116.9182 732.0608,-1273.0443 751.5815,-1277.3196 766.157,-1281.0364 808.2667,-1277.2117 829.9926,-1263.6834 898.3778,-1136.5752 905.1017,-1134.2689 913.5892,-1131.6887 920.08,-1129.9675 1015.431,-1106.5305 1022.6541,-1101.2576 1001.0441,-981.8959 1000.8412,-979.9159 1000.1516,-969.0529 997.732,-945.602 978.5378,-839.5839 997.686,-821.8433 1000.0238,-809.0856 1008.856,-754.1221 1012.1684,-724.81 1027.2162,-642.691 1024.8657,-641.1804 1017.7647,-636.936 1015.9586,-635.8969 993.4808,-623.9503 928.5698,-590.9487 917.0632,-599.94 810.0409,-611.1459 793.4296,-609.3011 788.4586,-613.1621 785.0942,-548.0281 782.7571,-576.26 782.9142,-615.583 787.0724,-615.583 789.0342,-617.2322 785.5427,-645.5394 781.7804,-615.927 777.81,-615.927 776.1155,-615.4291 773.7173,-615.4291 771.9927,-615.9327 768.122,-615.9327 764.1981,-650.8057 761.0735,-615.5596 757.6259,-615.5596 757.6259,-615.5596 761.0735,-615.5596 764.1981,-650.8057 768.122,-615.9327 766.6369,-615.4901 766.6369,-615.4901 768.122,-615.9327 771.9927,-615.9327 773.7173,-615.4291 776.1155,-615.4291 777.81,-615.927 781.7804,-615.927 785.5427,-645.5394 789.0342,-617.2322 787.0724,-615.583 782.9142,-615.583 782.7571,-576.26 785.0942,-548.0281 788.4586,-613.1621 793.4296,-609.3011 810.0409,-611.1459 917.0632,-599.94 928.5698,-590.9487 910.5247,-561.7979 925.0528,-485.7207 929.012,-449.709 930.6746,-441.1632 932.7164,-427.5895 937.9504,-400.1813 912.2515,-387.1884 898.7592,-381.5802 897.4,-381.1394 881.9813,-376.8221 874.5032,-375.4123 870.8529,-374.8902 867.3168,-374.5443 854.7059,-373.8811 853.4688,-373.8721 852.027,-373.9923 851.7994,-385.527 847.5483,-441.6519 846.6387,-442.3825 843.6647,-442.3825 843.6647,-442.3825 846.6387,-442.3825 847.5483,-441.6519 851.7994,-385.527 852.027,-373.9923 839.6064,-373.9044 828.1821,-372.7891 828.774,-403.407 826.3711,-438.023 832.9639,-442.1721 833.2864,-442.5522 832.9969,-442.8879 832.9969,-442.8879 833.2864,-442.5522 832.9639,-442.1721 826.3711,-438.023 828.774,-403.407 828.1821,-372.7891 824.5098,-372.0993 815.6578,-370.0316 810.1044,-368.4831 801.503,-365.696 798.0875,-364.4377 787.4147,-359.5354 787.0209,-331.951 787.063,-330.8029 786.6449,-302.4713 786.1573,-295.1562 786.5856,-283.4619 785.3807,-199.074 784.0514,-196.8211 777.7103,-187.2423 730.5361,-219.134 714.4419,-229.2231 704.144,-234.5958 698.4058,-236.9915 697.1736,-302.4415 691.8578,-304.0531 688.0952,-307.4979 690.9775,-310.0412 690.9775,-310.0412 688.0952,-307.4979 691.8578,-304.0531 697.1736,-302.4415 698.4058,-236.9915 691.1511,-239.6487 684.8465,-241.6314 681.3185,-242.5576 665.962,-245.0211 655.3533,-246.1687 647.2667,-247.4422 640.2057,-248.8999 629.0457,-252.2988 624.3579,-253.9518 621.5554,-255.0744 619.7349,-255.8922 615.1611,-258.1747 611.4284,-260.225 601.7676,-266.0255 596.8964,-269.1906 593.2877,-285.3038 591.0037,-297.9037 587.8451,-312.1143 571.2765,-366.7841 572.2261,-367.4038 579.2925,-371.5504 592.7596,-378.5835 669.8881,-411.3761 679.9801,-416.3691 688.2661,-420.7546 688.3203,-420.7852 690.1033,-428.9524 692.4121,-441.2661 694.8457,-456.8396 697.1294,-475.1667 699.3004,-489.0829 702.3658,-503.1253 687.9063,-515.5219 679.6872,-521.4158 670.2418,-527.7559 656.1154,-535.9244 599.4664,-565.9224 592.1,-570.1634 584.9277,-574.6184 573.821,-582.5315 565.3304,-589.3506 550.3062,-602.8017 545.7119,-607.5381 533.311,-619.6656 650.0067,-618.6336 661.9876,-622.008 667.9133,-618.2812 669.6205,-615.8179 672.0003,-615.8179 678.1061,-698.2751 679.4886,-734.1986 683.8632,-657.7639 689.5704,-615.8096 693.403,-615.8096 694.678,-615.4366 698.0424,-615.4366 698.0424,-615.4366 694.678,-615.4366 693.403,-615.8096 689.5704,-615.8096 683.8632,-657.7639 679.4886,-734.1986 678.1061,-698.2751 672.0003,-615.8179 669.6205,-615.8179 667.9133,-618.2812 661.9876,-622.008 650.0067,-618.6336 533.311,-619.6656 532.3613,-620.5099 532.2679,-622.9432 539.8277,-630.5903 549.4203,-639.4521 644.2966,-722.8956 663.617,-738.831 676.0712,-750.1028 677.3611,-761.2794 677.587,-762.8993 668.9098,-771.5001 663.9705,-775.7654 644.7229,-791.6029 641.5464,-794.0726 555.2252,-865.8261 548.9932,-860.0964 536.4099,-849.1982 535.361,-848.3499 532.4592,-845.6125 514.7203,-832.1068 505.5021,-826.2625 495.9808,-821.4161 489.2781,-818.4284 479.3483,-815.2425 474.9393,-814.1063 454.0607,-810.0329 450.2124,-809.05 437.7268,-805.0997 431.0629,-802.2049 421.2421,-796.7452 417.6112,-794.5099 410.4077,-789.6379 403.3557,-784.4493 395.8162,-777.9992 395.7708,-864.2164 396.8413,-864.5336 400.1365,-864.5336 400.8699,-864.7494 405.9384,-864.7494 407.106,-864.4014 410.1271,-864.4014 411.4276,-865.9186 416.5747,-868.9189 422.232,-868.9189 426.6648,-866.4359 428.2172,-864.6415 432.4774,-864.6415 432.5744,-864.6132 436.991,-864.6132 437.042,-864.5981 437.042,-864.5981 436.991,-864.6132 432.5744,-864.6132 432.4774,-864.6415 428.2172,-864.6415 426.6648,-866.4359 422.232,-868.9189 416.5747,-868.9189 411.4276,-865.9186 410.1271,-864.4014 407.106,-864.4014 405.9384,-864.7494 400.8699,-864.7494 400.1365,-864.5336 396.8413,-864.5336 395.7708,-864.2164 395.7708,-864.2164"/>
<polygon fill="#fed9a6" stroke="#fed9a6" points="282.2632,-720.0057 285.4395,-722.7551 289.2732,-765.6699 290.1865,-826.0242 303.0541,-817.0161 318.3521,-808.2966 317.105,-765.606 317.105,-765.606 318.3521,-808.2966 322.1271,-806.4752 387.4798,-777.721 392.5939,-775.049 395.8162,-777.9992 403.3557,-784.4493 410.4077,-789.6379 417.6112,-794.5099 421.2421,-796.7452 431.0629,-802.2049 437.7268,-805.0997 450.2124,-809.05 454.0607,-810.0329 474.9393,-814.1063 479.3483,-815.2425 489.2781,-818.4284 495.9808,-821.4161 505.5021,-826.2625 505.3835,-796.7317 508.3892,-764.171 513.0688,-764.171 519.9182,-759.9536 519.9529,-759.9138 519.112,-758.8712 519.112,-758.8712 519.9529,-759.9138 519.9182,-759.9536 513.0688,-764.171 508.3892,-764.171 505.3835,-796.7317 505.5021,-826.2625 514.7203,-832.1068 532.4592,-845.6125 532.0605,-834.5045 529.7486,-804.4885 529.7486,-804.4885 532.0605,-834.5045 532.4592,-845.6125 535.361,-848.3499 536.4099,-849.1982 548.9932,-860.0964 555.2252,-865.8261 641.5464,-794.0726 644.7229,-791.6029 663.9705,-775.7654 668.9098,-771.5001 677.587,-762.8993 677.3611,-761.2794 676.0712,-750.1028 663.617,-738.831 644.2966,-722.8956 549.4203,-639.4521 539.8277,-630.5903 532.2679,-622.9432 532.3613,-620.5099 533.311,-619.6656 545.7119,-607.5381 550.3062,-602.8017 550.7111,-531.2276 551.2737,-523.5699 551.2737,-523.5699 550.7111,-531.2276 550.3062,-602.8017 565.3304,-589.3506 573.821,-582.5315 584.9277,-574.6184 584.4957,-524.1458 580.8662,-484.6936 577.9301,-484.6936 575.9711,-482.3918 571.5479,-479.9146 571.5479,-479.9146 575.9711,-482.3918 577.9301,-484.6936 580.8662,-484.6936 584.4957,-524.1458 584.9277,-574.6184 592.1,-570.1634 599.4664,-565.9224 656.1154,-535.9244 670.2418,-527.7559 679.6872,-521.4158 687.9063,-515.5219 702.3658,-503.1253 699.3004,-489.0829 697.1294,-475.1667 694.8457,-456.8396 692.4121,-441.2661 690.1033,-428.9524 688.3203,-420.7852 688.2661,-420.7546 679.9801,-416.3691 669.8881,-411.3761 592.7596,-378.5835 579.2925,-371.5504 572.2261,-367.4038 571.2765,-366.7841 587.8451,-312.1143 591.0037,-297.9037 593.2877,-285.3038 596.8964,-269.1906 601.7676,-266.0255 611.4284,-260.225 615.1611,-258.1747 619.7349,-255.8922 621.5554,-255.0744 624.3579,-253.9518 629.0457,-252.2988 640.2057,-248.8999 647.2667,-247.4422 655.3533,-246.1687 665.962,-245.0211 681.3185,-242.5576 684.8465,-241.6314 691.1511,-239.6487 698.4058,-236.9915 704.144,-234.5958 714.4419,-229.2231 730.5361,-219.134 777.7103,-187.2423 777.5859,-183.67 778.227,-167.2308 779.6896,-65.3266 734.8287,-32.4505 701.6271,-15.2185 651.9921,-9.0674 639.2864,-7.0877 625.7556,-4.3318 614.6901,-1.7249 603.9576,14.7149 556.0153,91.2099 516.9916,120.0563 474.7051,129.0383 442.1843,133.0992 424.6617,135.9568 419.8556,136.923 402.5754,140.7265 371.2493,149.3932 330.978,148.8515 293.8777,123.1028 209.1959,24.077 401.6172,-12.6101 406.4014,-17.7946 406.1732,-17.9222 401.3641,-23.4709 406.9144,-88.6122 406.9643,-17.9337 411.433,-17.9337 412.3414,-19.0624 417.6906,-22.3665 417.6906,-22.3665 412.3414,-19.0624 411.433,-17.9337 406.9643,-17.9337 406.9144,-88.6122 401.3641,-23.4709 406.1732,-17.9222 406.4014,-17.7946 401.6172,-12.6101 209.1959,24.077 194.9618,7.9563 192.4203,-19.9258 190.4969,-38.0896 138.5569,-66.9764 120.266,-76.4158 111.3284,-80.8431 102.2879,-84.7629 90.9005,-89.4671 93.286,-217.8705 93.286,-217.8705 90.9005,-89.4671 90.0445,-89.7853 80.4918,-93.1429 79.7977,-93.3726 65.1372,-97.9272 63.0413,-98.4919 45.1853,-102.9397 49.903,-216.0737 49.903,-216.0737 45.1853,-102.9397 -45.7486,-121.8238 -92.6027,-164.2403 -91.4764,-248.07 -97.3707,-360.9368 31.7139,-435.3687 51.8701,-447.3983 53.1129,-468.8381 71.7821,-525.66 78.2607,-550.0014 129.1678,-640.2336 226.6394,-625.0993 234.3825,-624.12 236.4081,-528.4481 238.0706,-525.9891 237.0403,-525.1605 235.8746,-523.1592 231.1827,-519.501 230.7567,-423.4922 239.0392,-429.2194 257.0867,-439.4927 260.3576,-441.078 271.5289,-446.0338 284.0874,-450.0478 287.6163,-451.0283 298.8367,-453.223 306.4131,-454.3893 322.7748,-456.2248 321.4946,-390.6911 326.537,-387.0123 328.8235,-457.1574 333.3893,-458.0522 335.2395,-458.4922 337.4228,-426.7439 343.5737,-384.7323 343.643,-384.7323 347.1969,-387.7 352.6683,-389.2692 357.5735,-387.8562 361.6101,-384.2445 358.1152,-381.2119 358.1152,-381.2119 361.6101,-384.2445 357.5735,-387.8562 361.3339,-451.3501 363.3529,-384.2445 363.5515,-384.1867 358.9084,-295.4979 358.99,-289.1133 365.9165,-294.3139 376.1873,-301.5212 388.7218,-309.0574 448.2006,-341.7124 446.1027,-268.9728 451.2653,-265.3296 454.2448,-317.3652 454.2008,-345.3149 461.2222,-350.2643 473.9942,-360.6556 474.1395,-360.7813 480.9675,-366.2929 481.2751,-307.349 484.5578,-267.0299 489.6149,-264.1162 490.6687,-262.9029 488.7211,-260.4737 484.8354,-258.2273 484.8354,-258.2273 488.7211,-260.4737 490.6687,-262.9029 494.808,-262.9029 497.6562,-377.647 505.3982,-376.112 509.6731,-375.3793 509.1035,-320.1169 505.3163,-262.7304 505.7194,-262.6042 506.6035,-217.2717 512.2505,-260.8382 516.5875,-256.7679 519.7359,-189.8962 514.2891,-183.67 549.9248,-183.67 549.9248,-183.67 514.2891,-183.67 519.7359,-189.8962 516.5875,-256.7679 512.2505,-260.8382 506.6035,-217.2717 505.7194,-262.6042 505.3163,-262.7304 509.1035,-320.1169 509.6731,-375.3793 505.3982,-376.112 497.6562,-377.647 494.808,-262.9029 490.6687,-262.9029 489.6149,-264.1162 484.5578,-267.0299 481.2751,-307.349 480.9675,-366.2929 474.1395,-360.7813 473.9942,-360.6556 461.2222,-350.2643 454.2008,-345.3149 454.2448,-317.3652 451.2653,-265.3296 446.1027,-268.9728 448.2006,-341.7124 388.7218,-309.0574 376.1873,-301.5212 365.9165,-294.3139 358.99,-289.1133 358.9084,-295.4979 363.5515,-384.1867 367.7176,-384.1867 369.7795,-416.9612 369.7795,-416.9612 367.7176,-384.1867 363.5515,-384.1867 363.3529,-384.2445 361.3339,-451.3501 357.5735,-387.8562 352.6683,-389.2692 347.1969,-387.7 343.643,-384.7323 343.5737,-384.7323 337.4228,-426.7439 335.2395,-458.4922 333.3893,-458.0522 328.8235,-457.1574 326.537,-387.0123 321.4946,-390.6911 322.7748,-456.2248 306.4131,-454.3893 298.8367,-453.223 287.6163,-451.0283 284.0874,-450.0478 271.5289,-446.0338 260.3576,-441.078 257.0867,-439.4927 239.0392,-429.2194 230.7567,-423.4922 231.1827,-519.501 235.8746,-523.1592 237.0403,-525.1605 238.0706,-525.9891 236.4081,-528.4481 234.3825,-624.12 243.2446,-623.2557 243.7194,-561.251 243.7194,-561.251 243.2446,-623.2557 256.6584,-622.7263 256.6659,-565.9419 256.9761,-562.1459 262.6544,-529.588 266.1656,-530.5361 266.1656,-530.5361 262.6544,-529.588 256.9761,-562.1459 256.6659,-565.9419 256.6584,-622.7263 243.2446,-623.2557 234.3825,-624.12 226.6394,-625.0993 129.1678,-640.2336 119.5074,-705.2334 115.7777,-727.0189 105.8867,-772.8859 127.2288,-844.8473 203.6422,-902.3913 246.9388,-864.48 263.0945,-848.3257 263.395,-814.0428 263.2587,-808.1654 263.2587,-808.1654 263.395,-814.0428 263.0945,-848.3257 274.5864,-838.3084 290.1865,-826.0242 289.2732,-765.6699 285.4395,-722.7551 282.2632,-720.0057 286.5759,-715.9968 282.8594,-681.6669 282.2139,-635.1914 272.7696,-626.9317 270.2662,-624.4357 268.26,-622.6985 272.7519,-617.1808 273.6862,-616.1682 284.1099,-605.5574 296.7173,-594.451 296.414,-584.391 297.6035,-528.3386 297.6035,-528.3386 296.414,-584.391 296.7173,-594.451 284.1099,-605.5574 273.6862,-616.1682 272.7519,-617.1808 268.26,-622.6985 270.2662,-624.4357 326.2963,-618.0958 358.8466,-617.7625 364.5841,-612.6819 365.0767,-611.8561 368.2542,-611.8561 368.3209,-611.8758 375.3247,-670.6841 374.5887,-614.8754 379.9341,-616.5089 385.4428,-614.8239 388.9422,-611.6885 385.6508,-608.8057 385.6508,-608.8057 388.9422,-611.6885 385.4428,-614.8239 379.9341,-616.5089 374.5887,-614.8754 375.3247,-670.6841 368.3209,-611.8758 368.2542,-611.8561 365.0767,-611.8561 364.5841,-612.6819 358.8466,-617.7625 326.2963,-618.0958 270.2662,-624.4357 272.7696,-626.9317 282.2139,-635.1914 282.8594,-681.6669 286.5759,-715.9968 282.2632,-720.0057 282.2632,-720.0057"/>
<polygon fill="#fbb4ae" stroke="#fbb4ae" points="1859.7153,-555.6132 1862.776,-539.2741 1864.3114,-532.5073 1865.121,-527.8938 1856.7389,-508.569 1851.5973,-496.0438 1795.2374,-410.5529 1791.2747,-407.8904 1695.5757,-369.2656 1687.9235,-365.7106 1680.7341,-362.0735 1672.2747,-357.6185 1669.4965,-299.7364 1668.3733,-257.1725 1669.2865,-203.7856 1666.0985,-192.1332 1541.714,-88.3918 1537.5338,-84.7969 1516.9348,-95.8586 1502.1499,-102.9168 1501.5632,-103.1851 1492.4044,-107.1917 1491.7654,-162.7451 1485.0693,-266.7214 1480.2108,-269.4076 1478.5673,-271.2365 1479.8207,-272.6503 1485.1049,-275.697 1490.4911,-275.697 1490.4911,-275.697 1485.1049,-275.697 1479.8207,-272.6503 1478.5673,-271.2365 1476.0997,-271.2365 1475.925,-271.1856 1469.2412,-271.1856 1468.7012,-271.025 1464.8618,-271.025 1464.8618,-271.025 1468.7012,-271.025 1469.2412,-271.1856 1475.925,-271.1856 1476.0997,-271.2365 1478.5673,-271.2365 1480.2108,-269.4076 1485.0693,-266.7214 1491.7654,-162.7451 1492.4044,-107.1917 1478.4338,-112.4744 1471.3892,-114.9975 1458.53,-119.0914 1457.1779,-119.4678 1441.7734,-123.4522 1429.5731,-126.3627 1324.0393,-165.1103 1302.9752,-184.2114 1213.5074,-175.9919 1207.1775,-175.2921 1196.0099,-173.8493 1186.5746,-172.455 1180.5961,-171.2387 1173.4277,-169.5114 1155.2286,-164.7837 1152.6302,-163.9639 1130.5526,-156.5817 1080.637,-62.6527 1063.2714,-54.0391 969.7176,-43.5272 957.2117,-41.8753 957.6785,-133.0939 954.8272,-187.0335 950.8467,-187.0335 944.2249,-113.4177 943.7886,-104.6279 939.2969,-183.8072 934.5538,-182.4099 934.5538,-182.4099 939.2969,-183.8072 943.7886,-104.6279 944.2249,-113.4177 950.8467,-187.0335 954.8272,-187.0335 957.6785,-133.0939 957.2117,-41.8753 942.864,-39.4166 935.5384,-37.7307 924.3466,-34.7123 924.3152,-34.7219 905.5624,-39.6615 904.5112,-39.9172 779.6896,-65.3266 778.227,-167.2308 777.5859,-183.67 777.7103,-187.2423 784.0514,-196.8211 785.3807,-199.074 786.5856,-283.4619 786.1573,-295.1562 786.6449,-302.4713 787.063,-330.8029 787.0209,-331.951 787.4147,-359.5354 798.0875,-364.4377 801.503,-365.696 810.1044,-368.4831 815.6578,-370.0316 824.5098,-372.0993 828.1821,-372.7891 839.6064,-373.9044 852.027,-373.9923 853.4688,-373.8721 854.7059,-373.8811 867.3168,-374.5443 870.8529,-374.8902 874.5032,-375.4123 881.9813,-376.8221 897.4,-381.1394 898.7592,-381.5802 912.2515,-387.1884 937.9504,-400.1813 932.7164,-427.5895 930.6746,-441.1632 929.012,-449.709 925.0528,-485.7207 910.5247,-561.7979 928.5698,-590.9487 993.4808,-623.9503 1015.9586,-635.8969 1017.7647,-636.936 1024.8657,-641.1804 1027.2162,-642.691 1044.9497,-636.1453 1044.8221,-620.7807 1045.2037,-583.6557 1044.125,-511.1589 1046.8102,-470.9869 1047.3473,-470.3543 1045.8007,-468.4894 1041.1383,-465.7869 1041.1383,-465.7869 1045.8007,-468.4894 1047.3473,-470.3543 1046.8102,-470.9869 1044.125,-511.1589 1045.2037,-583.6557 1044.8221,-620.7807 1044.9497,-636.1453 1027.2162,-642.691 1012.1684,-724.81 1008.856,-754.1221 1000.0238,-809.0856 997.686,-821.8433 978.5378,-839.5839 997.732,-945.602 1000.1516,-969.0529 1000.8412,-979.9159 1001.0441,-981.8959 1022.6541,-1101.2576 1069.2694,-1097.4904 1090.3082,-1096.1943 1104.0146,-1095.8802 1104.0654,-1088.6166 1104.316,-1083.3781 1104.9744,-956.6599 1110.1414,-958.2111 1110.1414,-958.2111 1104.9744,-956.6599 1104.316,-1083.3781 1104.0654,-1088.6166 1104.0146,-1095.8802 1126.3784,-1097.5281 1126.1316,-1056.8071 1126.1316,-1056.8071 1126.3784,-1097.5281 1141.1373,-1099.4705 1138.957,-988.6103 1138.957,-988.6103 1141.1373,-1099.4705 1173.9974,-1105.0602 1178.6829,-1105.3917 1309.1453,-1001.2677 1304.7651,-976.219 1296.0699,-912.5499 1292.5245,-911.1281 1140.6971,-948.4138 1147.5077,-862.7286 1149.7434,-862.721 1149.7434,-862.721 1147.5077,-862.7286 1140.6971,-948.4138 1292.5245,-911.1281 1296.0699,-912.5499 1358.1914,-796.6508 1367.0923,-780.8408 1375.7191,-766.1969 1385.0662,-733.2447 1210.6624,-766.3502 1207.6804,-717.6707 1204.5524,-771.7233 1203.7175,-771.9797 1200.0983,-771.9797 1199.6193,-772.1222 1195.5001,-772.1222 1191.2582,-802.2333 1187.9169,-772.0078 1184.5691,-772.0078 1183.3954,-770.5677 1177.6685,-767.0809 1173.1415,-767.0809 1173.1415,-767.0809 1177.6685,-767.0809 1183.3954,-770.5677 1184.5691,-772.0078 1187.9169,-772.0078 1191.2582,-802.2333 1195.5001,-772.1222 1199.6193,-772.1222 1200.0983,-771.9797 1203.7175,-771.9797 1204.5524,-771.7233 1207.6804,-717.6707 1210.6624,-766.3502 1385.0662,-733.2447 1404.0144,-670.6406 1407.3739,-658.6114 1238.9474,-644.3362 1220.4412,-643.1652 1218.9519,-643.1353 1215.0974,-514.4434 1210.5527,-514.4434 1210.3335,-514.3803 1204.8274,-514.3803 1204.2814,-514.2235 1204.0485,-514.2235 1200.4135,-511.1737 1200.4135,-511.1737 1204.0485,-514.2235 1204.2814,-514.2235 1204.8274,-514.3803 1210.3335,-514.3803 1210.5527,-514.4434 1215.0974,-514.4434 1218.9519,-643.1353 1220.4412,-643.1652 1238.9474,-644.3362 1407.3739,-658.6114 1423.4178,-644.493 1572.5284,-693.6842 1619.9873,-686.5217 1642.7117,-683.8954 1645.2548,-683.7375 1650.6245,-529.0638 1649.74,-528.8127 1645.9922,-528.8127 1645.3079,-528.6168 1640.4241,-528.6168 1634.0232,-396.3429 1633.899,-377.586 1622.1382,-382.3553 1624.5831,-522.9995 1427.703,-512.466 1427.652,-513.4283 1246.1827,-511.3935 1230.8394,-507.8033 1226.244,-510.6588 1222.6213,-476.0504 1221.6969,-421.5182 1215.3984,-421.7064 1215.1909,-421.7062 1210.4818,-421.8516 1203.2765,-421.6277 1196.5768,-421.8476 1194.8047,-421.7958 1189.1221,-421.8112 1187.1263,-421.6927 1175.9399,-421.3863 1175.7292,-421.3939 1174.3434,-421.3587 1173.3064,-421.3654 1167.0597,-421.6048 1161.7919,-421.6435 1162.4613,-329.2491 1162.4613,-329.2491 1161.7919,-421.6435 1167.0597,-421.6048 1173.3064,-421.3654 1174.3434,-421.3587 1175.7292,-421.3939 1175.9399,-421.3863 1187.1263,-421.6927 1189.1221,-421.8112 1194.8047,-421.7958 1196.5768,-421.8476 1203.2765,-421.6277 1202.598,-363.4142 1198.6006,-329.2243 1195.2798,-329.2243 1189.0463,-270.692 1187.8035,-247.1634 1183.2754,-327.6075 1178.3967,-324.6592 1178.3967,-324.6592 1183.2754,-327.6075 1187.8035,-247.1634 1189.0463,-270.692 1195.2798,-329.2243 1198.6006,-329.2243 1202.598,-363.4142 1203.2765,-421.6277 1210.4818,-421.8516 1215.1909,-421.7062 1215.3984,-421.7064 1221.6969,-421.5182 1222.6213,-476.0504 1226.244,-510.6588 1230.8394,-507.8033 1246.1827,-511.3935 1427.652,-513.4283 1427.703,-512.466 1624.5831,-522.9995 1622.1382,-382.3553 1633.899,-377.586 1634.0232,-396.3429 1640.4241,-528.6168 1645.3079,-528.6168 1645.9922,-528.8127 1649.74,-528.8127 1650.6245,-529.0638 1645.2548,-683.7375 1660.0085,-683.0832 1660.45,-578.8583 1666.3939,-533.2395 1670.3884,-531.0601 1672.4414,-528.7209 1672.0371,-528.2731 1665.8453,-524.5742 1660.6202,-524.5742 1660.6202,-524.5742 1665.8453,-524.5742 1672.0371,-528.2731 1672.4414,-528.7209 1670.3884,-531.0601 1666.3939,-533.2395 1660.45,-578.8583 1660.0085,-683.0832 1679.8063,-683.2621 1699.0476,-684.8051 1699.6664,-684.8657 1755.6997,-692.3421 1832.4694,-606.8163 1859.7153,-555.6132 1859.7153,-555.6132"/>
<polyline fill="none" stroke="#000000" points="694.8457,-456.8396 692.4121,-441.2661 690.1033,-428.9524 688.3203,-420.7852 688.2661,-420.7546 679.9801,-416.3691 669.8881,-411.3761 592.7596,-378.5835 579.2925,-371.5504 572.2261,-367.4038 571.2765,-366.7841 587.8451,-312.1143 591.0037,-297.9037 593.2877,-285.3038 596.8964,-269.1906 601.7676,-266.0255 611.4284,-260.225 615.1611,-258.1747 619.7349,-255.8922 621.5554,-255.0744 624.3579,-253.9518 629.0457,-252.2988 640.2057,-248.8999 647.2667,-247.4422 655.3533,-246.1687 665.962,-245.0211 681.3185,-242.5576 684.8465,-241.6314 691.1511,-239.6487 698.4058,-236.9915 704.144,-234.5958 714.4419,-229.2231 730.5361,-219.134 777.7103,-187.2423 784.0514,-196.8211 785.3807,-199.074 786.5856,-283.4619 786.1573,-295.1562 786.6449,-302.4713 787.063,-330.8029 787.0209,-331.951 787.4147,-359.5354 798.0875,-364.4377 801.503,-365.696 810.1044,-368.4831 815.6578,-370.0316 824.5098,-372.0993 828.1821,-372.7891 839.6064,-373.9044 852.027,-373.9923 853.4688,-373.8721 854.7059,-373.8811 867.3168,-374.5443 870.8529,-374.8902 874.5032,-375.4123 881.9813,-376.8221 897.4,-381.1394 898.7592,-381.5802 912.2515,-387.1884 937.9504,-400.1813 932.7164,-427.5895 930.6746,-441.1632 929.012,-449.709 925.0528,-485.7207 910.5247,-561.7979 928.5698,-590.9487 993.4808,-623.9503 1015.9586,-635.8969 1017.7647,-636.936 1024.8657,-641.1804 1027.2162,-642.691 1012.1684,-724.81 1008.856,-754.1221 1000.0238,-809.0856 997.686,-821.8433 978.5378,-839.5839 997.732,-945.602 1000.1516,-969.0529 1000.8412,-979.9159 1001.0441,-981.8959 1022.6541,-1101.2576 1015.431,-1106.5305 920.08,-1129.9675 913.5892,-1131.6887 905.1017,-1134.2689 898.3778,-1136.5752 829.9926,-1263.6834 808.2667,-1277.2117 766.157,-1281.0364 751.5815,-1277.3196 732.0608,-1273.0443 729.0449,-1272.439 725.6267,-1271.8771 710.6726,-1269.9581 697.8954,-1268.7815 697.5248,-1268.7607 624.9285,-1266.0197 557.7999,-1204.2734 481.2926,-1207.0792 477.9664,-1207.2673 467.3876,-1208.0765 457.5592,-1209.0237 451.8528,-1209.8002 437.1771,-1212.0892 426.2881,-1214.4343 417.4241,-1216.6952 312.8863,-1209.4841 308.7112,-1205.5593 306.4005,-1202.9054 262.9845,-1102.3572 259.2015,-1070.6842 254.9126,-1043.4138 246.6121,-996.215 233.7296,-980.8449 203.6422,-902.3913 246.9388,-864.48 263.0945,-848.3257 274.5864,-838.3084 290.1865,-826.0242 303.0541,-817.0161 318.3521,-808.2966 322.1271,-806.4752 387.4798,-777.721 392.5939,-775.049 395.8162,-777.9992 403.3557,-784.4493 410.4077,-789.6379 417.6112,-794.5099 421.2421,-796.7452 431.0629,-802.2049 437.7268,-805.0997 450.2124,-809.05 454.0607,-810.0329 474.9393,-814.1063 479.3483,-815.2425 489.2781,-818.4284 495.9808,-821.4161 505.5021,-826.2625 514.7203,-832.1068 532.4592,-845.6125 535.361,-848.3499 536.4099,-849.1982 548.9932,-860.0964 555.2252,-865.8261 641.5464,-794.0726 644.7229,-791.6029 663.9705,-775.7654 668.9098,-771.5001 677.587,-762.8993 677.3611,-761.2794 676.0712,-750.1028 663.617,-738.831 644.2966,-722.8956 549.4203,-639.4521 539.8277,-630.5903 532.2679,-622.9432 532.3613,-620.5099 533.311,-619.6656 545.7119,-607.5381 550.3062,-602.8017 565.3304,-589.3506 573.821,-582.5315 584.9277,-574.6184 592.1,-570.1634 599.4664,-565.9224 656.1154,-535.9244 670.2418,-527.7559 679.6872,-521.4158 687.9063,-515.5219 702.3658,-503.1253 699.3004,-489.0829 697.1294,-475.1667 694.8457,-456.8396 "/>
<polyline fill="none" stroke="#000000" points="615.1611,-258.1747 619.7349,-255.8922 621.5554,-255.0744 624.3579,-253.9518 629.0457,-252.2988 640.2057,-248.8999 647.2667,-247.4422 655.3533,-246.1687 665.962,-245.0211 681.3185,-242.5576 684.8465,-241.6314 691.1511,-239.6487 698.4058,-236.9915 704.144,-234.5958 714.4419,-229.2231 730.5361,-219.134 777.7103,-187.2423 777.5859,-183.67 778.227,-167.2308 779.6896,-65.3266 734.8287,-32.4505 701.6271,-15.2185 651.9921,-9.0674 639.2864,-7.0877 625.7556,-4.3318 614.6901,-1.7249 603.9576,14.7149 556.0153,91.2099 516.9916,120.0563 474.7051,129.0383 442.1843,133.0992 424.6617,135.9568 419.8556,136.923 402.5754,140.7265 371.2493,149.3932 330.978,148.8515 293.8777,123.1028 209.1959,24.077 194.9618,7.9563 192.4203,-19.9258 190.4969,-38.0896 138.5569,-66.9764 120.266,-76.4158 111.3284,-80.8431 102.2879,-84.7629 90.9005,-89.4671 90.0445,-89.7853 80.4918,-93.1429 79.7977,-93.3726 65.1372,-97.9272 63.0413,-98.4919 45.1853,-102.9397 -45.7486,-121.8238 -92.6027,-164.2403 -91.4764,-248.07 -97.3707,-360.9368 31.7139,-435.3687 51.8701,-447.3983 53.1129,-468.8381 71.7821,-525.66 78.2607,-550.0014 129.1678,-640.2336 119.5074,-705.2334 115.7777,-727.0189 105.8867,-772.8859 127.2288,-844.8473 203.6422,-902.3913 246.9388,-864.48 263.0945,-848.3257 274.5864,-838.3084 290.1865,-826.0242 303.0541,-817.0161 318.3521,-808.2966 322.1271,-806.4752 387.4798,-777.721 392.5939,-775.049 395.8162,-777.9992 403.3557,-784.4493 410.4077,-789.6379 417.6112,-794.5099 421.2421,-796.7452 431.0629,-802.2049 437.7268,-805.0997 450.2124,-809.05 454.0607,-810.0329 474.9393,-814.1063 479.3483,-815.2425 489.2781,-818.4284 495.9808,-821.4161 505.5021,-826.2625 514.7203,-832.1068 532.4592,-845.6125 535.361,-848.3499 536.4099,-849.1982 548.9932,-860.0964 555.2252,-865.8261 641.5464,-794.0726 644.7229,-791.6029 663.9705,-775.7654 668.9098,-771.5001 677.587,-762.8993 677.3611,-761.2794 676.0712,-750.1028 663.617,-738.831 644.2966,-722.8956 549.4203,-639.4521 539.8277,-630.5903 532.2679,-622.9432 532.3613,-620.5099 533.311,-619.6656 545.7119,-607.5381 550.3062,-602.8017 565.3304,-589.3506 573.821,-582.5315 584.9277,-574.6184 592.1,-570.1634 599.4664,-565.9224 656.1154,-535.9244 670.2418,-527.7559 679.6872,-521.4158 687.9063,-515.5219 702.3658,-503.1253 699.3004,-489.0829 697.1294,-475.1667 694.8457,-456.8396 692.4121,-441.2661 690.1033,-428.9524 688.3203,-420.7852 688.2661,-420.7546 679.9801,-416.3691 669.8881,-411.3761 592.7596,-378.5835 579.2925,-371.5504 572.2261,-367.4038 571.2765,-366.7841 587.8451,-312.1143 591.0037,-297.9037 593.2877,-285.3038 596.8964,-269.1906 601.7676,-266.0255 611.4284,-260.225 615.1611,-258.1747 "/>
<polyline fill="none" stroke="#000000" points="874.5032,-375.4123 881.9813,-376.8221 897.4,-381.1394 898.7592,-381.5802 912.2515,-387.1884 937.9504,-400.1813 932.7164,-427.5895 930.6746,-441.1632 929.012,-449.709 925.0528,-485.7207 910.5247,-561.7979 928.5698,-590.9487 993.4808,-623.9503 1015.9586,-635.8969 1017.7647,-636.936 1024.8657,-641.1804 1027.2162,-642.691 1012.1684,-724.81 1008.856,-754.1221 1000.0238,-809.0856 997.686,-821.8433 978.5378,-839.5839 997.732,-945.602 1000.1516,-969.0529 1000.8412,-979.9159 1001.0441,-981.8959 1022.6541,-1101.2576 1069.2694,-1097.4904 1090.3082,-1096.1943 1104.0146,-1095.8802 1126.3784,-1097.5281 1141.1373,-1099.4705 1173.9974,-1105.0602 1178.6829,-1105.3917 1309.1453,-1001.2677 1304.7651,-976.219 1296.0699,-912.5499 1358.1914,-796.6508 1367.0923,-780.8408 1375.7191,-766.1969 1385.0662,-733.2447 1404.0144,-670.6406 1407.3739,-658.6114 1423.4178,-644.493 1572.5284,-693.6842 1619.9873,-686.5217 1642.7117,-683.8954 1645.2548,-683.7375 1660.0085,-683.0832 1679.8063,-683.2621 1699.0476,-684.8051 1699.6664,-684.8657 1755.6997,-692.3421 1832.4694,-606.8163 1859.7153,-555.6132 1862.776,-539.2741 1864.3114,-532.5073 1865.121,-527.8938 1856.7389,-508.569 1851.5973,-496.0438 1795.2374,-410.5529 1791.2747,-407.8904 1695.5757,-369.2656 1687.9235,-365.7106 1680.7341,-362.0735 1672.2747,-357.6185 1669.4965,-299.7364 1668.3733,-257.1725 1669.2865,-203.7856 1666.0985,-192.1332 1541.714,-88.3918 1537.5338,-84.7969 1516.9348,-95.8586 1502.1499,-102.9168 1501.5632,-103.1851 1492.4044,-107.1917 1478.4338,-112.4744 1471.3892,-114.9975 1458.53,-119.0914 1457.1779,-119.4678 1441.7734,-123.4522 1429.5731,-126.3627 1324.0393,-165.1103 1302.9752,-184.2114 1213.5074,-175.9919 1207.1775,-175.2921 1196.0099,-173.8493 1186.5746,-172.455 1180.5961,-171.2387 1173.4277,-169.5114 1155.2286,-164.7837 1152.6302,-163.9639 1130.5526,-156.5817 1080.637,-62.6527 1063.2714,-54.0391 969.7176,-43.5272 957.2117,-41.8753 942.864,-39.4166 935.5384,-37.7307 924.3466,-34.7123 924.3152,-34.7219 905.5624,-39.6615 904.5112,-39.9172 779.6896,-65.3266 778.227,-167.2308 777.5859,-183.67 777.7103,-187.2423 784.0514,-196.8211 785.3807,-199.074 786.5856,-283.4619 786.1573,-295.1562 786.6449,-302.4713 787.063,-330.8029 787.0209,-331.951 787.4147,-359.5354 798.0875,-364.4377 801.503,-365.696 810.1044,-368.4831 815.6578,-370.0316 824.5098,-372.0993 828.1821,-372.7891 839.6064,-373.9044 852.027,-373.9923 853.4688,-373.8721 854.7059,-373.8811 867.3168,-374.5443 870.8529,-374.8902 874.5032,-375.4123 "/>
<!-- device&#45;mapper&#45;libs&#45;&gt;Fedora Container Base -->
<g id="edge1" class="edge">
<title>device&#45;mapper&#45;libs&#45;&gt;Fedora Container Base</title>
<path fill="none" stroke="#444444" stroke-opacity="0.333333" d="M870.3025,-963.1054C845.9651,-903.7646 768.5845,-715.0907 739.2152,-643.4807"/>
<polygon fill="#444444" fill-opacity="0.333333" stroke="#444444" stroke-opacity="0.333333" points="742.2753,-641.7181 735.2424,-633.7941 735.7988,-644.3743 742.2753,-641.7181"/>
</g>
<!-- device&#45;mapper&#45;libs&#45;&gt;device&#45;mapper -->
<g id="edge2" class="edge">
<title>device&#45;mapper&#45;libs&#45;&gt;device&#45;mapper</title>
<path fill="none" stroke="#444444" stroke-opacity="0.333333" d="M878.8365,-963.1047C876.4873,-919.0542 860.7621,-806.1718 849.9067,-753.1361"/>
<polygon fill="#444444" fill-opacity="0.333333" stroke="#444444" stroke-opacity="0.333333" points="853.2655,-752.1078 847.7384,-743.0689 846.4225,-753.5817 853.2655,-752.1078"/>
</g>
<!-- device&#45;mapper&#45;&gt;Fedora Container Base -->
<g id="edge32" class="edge">
<title>device&#45;mapper&#45;&gt;Fedora Container Base</title>
<path fill="none" stroke="#444444" stroke-opacity="0.333333" d="M822.618,-706.7679C803.8686,-688.738 774.8861,-660.8677 753.8902,-640.6774"/>
<polygon fill="#444444" fill-opacity="0.333333" stroke="#444444" stroke-opacity="0.333333" points="756.184,-638.0275 746.5499,-633.6189 751.3319,-643.0731 756.184,-638.0275"/>
</g>
<!-- device&#45;mapper&#45;&gt;device&#45;mapper&#45;libs -->
<g id="edge33" class="edge">
<title>device&#45;mapper&#45;&gt;device&#45;mapper&#45;libs</title>
<path fill="none" stroke="#444444" stroke-opacity="0.333333" d="M840.2835,-742.9453C842.6327,-786.9958 858.3579,-899.8782 869.2133,-952.9139"/>
<polygon fill="#444444" fill-opacity="0.333333" stroke="#444444" stroke-opacity="0.333333" points="865.8545,-953.9422 871.3816,-962.9811 872.6975,-952.4683 865.8545,-953.9422"/>
</g>
<!-- device&#45;mapper&#45;&gt;systemd -->
<g id="edge34" class="edge">
<title>device&#45;mapper&#45;&gt;systemd</title>
<path fill="none" stroke="#444444" stroke-opacity="0.333333" d="M820.8967,-706.7417C772.76,-664.2803 652.3519,-558.0682 597.2245,-509.4403"/>
<polygon fill="#444444" fill-opacity="0.333333" stroke="#444444" stroke-opacity="0.333333" points="599.3956,-506.6884 589.581,-502.698 594.765,-511.9379 599.3956,-506.6884"/>
</g>
<!-- device&#45;mapper&#45;&gt;util&#45;linux -->
<g id="edge35" class="edge">
<title>device&#45;mapper&#45;&gt;util&#45;linux</title>
<path fill="none" stroke="#444444" stroke-opacity="0.333333" d="M840.2651,-706.7195C837.3196,-658.9268 829.3126,-529.0065 825.7409,-471.0525"/>
<polygon fill="#444444" fill-opacity="0.333333" stroke="#444444" stroke-opacity="0.333333" points="829.2167,-470.551 825.1082,-460.7852 822.23,-470.9816 829.2167,-470.551"/>
</g>
<!-- libargon2&#45;&gt;Fedora Container Base -->
<g id="edge3" class="edge">
<title>libargon2&#45;&gt;Fedora Container Base</title>
<path fill="none" stroke="#444444" stroke-opacity="0.333333" d="M721.8036,-1098.4714C722.731,-1023.2794 726.2794,-735.5952 727.411,-643.8446"/>
<polygon fill="#444444" fill-opacity="0.333333" stroke="#444444" stroke-opacity="0.333333" points="730.913,-643.6967 727.5367,-633.6543 723.9135,-643.6103 730.913,-643.6967"/>
</g>
<!-- dbus&#45;broker&#45;&gt;Fedora Container Base -->
<g id="edge4" class="edge">
<title>dbus&#45;broker&#45;&gt;Fedora Container Base</title>
<path fill="none" stroke="#444444" stroke-opacity="0.333333" d="M624.081,-201.6775C640.9213,-268.9016 700.1918,-505.5014 720.708,-587.3994"/>
<polygon fill="#444444" fill-opacity="0.333333" stroke="#444444" stroke-opacity="0.333333" points="717.4045,-588.6159 723.2297,-597.4656 724.1947,-586.9148 717.4045,-588.6159"/>
</g>
<!-- dbus&#45;broker&#45;&gt;dbus&#45;common -->
<g id="edge5" class="edge">
<title>dbus&#45;broker&#45;&gt;dbus&#45;common</title>
<path fill="none" stroke="#444444" stroke-opacity="0.333333" d="M587.8848,-201.7644C568.234,-212.9863 542.8058,-227.5075 521.7328,-239.5415"/>
<polygon fill="#444444" fill-opacity="0.333333" stroke="#444444" stroke-opacity="0.333333" points="519.9459,-236.5314 512.9978,-244.5298 523.4173,-242.6101 519.9459,-236.5314"/>
</g>
<!-- dbus&#45;broker&#45;&gt;shadow&#45;utils -->
<g id="edge6" class="edge">
<title>dbus&#45;broker&#45;&gt;shadow&#45;utils</title>
<path fill="none" stroke="#444444" stroke-opacity="0.333333" d="M658.474,-201.797C705.033,-223.4907 782.9931,-259.8155 833.2697,-283.2414"/>
<polygon fill="#444444" fill-opacity="0.333333" stroke="#444444" stroke-opacity="0.333333" points="832.0871,-286.5516 842.6297,-287.6026 835.0436,-280.2066 832.0871,-286.5516"/>
</g>
<!-- dbus&#45;broker&#45;&gt;systemd -->
<g id="edge7" class="edge">
<title>dbus&#45;broker&#45;&gt;systemd</title>
<path fill="none" stroke="#444444" stroke-opacity="0.333333" d="M616.4742,-202.0305C607.9136,-252.8014 583.8797,-395.3414 573.6099,-456.2492"/>
<polygon fill="#444444" fill-opacity="0.333333" stroke="#444444" stroke-opacity="0.333333" points="570.1267,-455.857 571.9153,-466.2998 577.0293,-457.0209 570.1267,-455.857"/>
</g>
<!-- dbus&#45;common&#45;&gt;Fedora Container Base -->
<g id="edge8" class="edge">
<title>dbus&#45;common&#45;&gt;Fedora Container Base</title>
<path fill="none" stroke="#444444" stroke-opacity="0.333333" d="M494.3554,-281.0223C535.0882,-339.4028 661.1277,-520.0491 709.0278,-588.702"/>
<polygon fill="#444444" fill-opacity="0.333333" stroke="#444444" stroke-opacity="0.333333" points="706.3998,-591.0522 714.9923,-597.2506 712.1406,-587.0468 706.3998,-591.0522"/>
</g>
<!-- dbus&#45;common&#45;&gt;dbus&#45;common -->
<g id="edge9" class="edge">
<title>dbus&#45;common&#45;&gt;dbus&#45;common</title>
<path fill="none" stroke="#444444" stroke-opacity="0.333333" d="M559.0255,-268.5633C569.775,-267.5712 576.96,-265.5634 576.96,-262.54 576.96,-260.6031 574.0113,-259.0831 569.0657,-257.9798"/>
<polygon fill="#444444" fill-opacity="0.333333" stroke="#444444" stroke-opacity="0.333333" points="569.4257,-254.4954 559.0255,-256.5167 568.4162,-261.4223 569.4257,-254.4954"/>
</g>
<!-- dbus&#45;common&#45;&gt;systemd -->
<g id="edge10" class="edge">
<title>dbus&#45;common&#45;&gt;systemd</title>
<path fill="none" stroke="#444444" stroke-opacity="0.333333" d="M488.6123,-280.6974C503.919,-319.5562 539.9287,-410.9729 558.0473,-456.9701"/>
<polygon fill="#444444" fill-opacity="0.333333" stroke="#444444" stroke-opacity="0.333333" points="554.8099,-458.3015 561.7314,-466.3229 561.3229,-455.736 554.8099,-458.3015"/>
</g>
<!-- shadow&#45;utils&#45;&gt;Fedora Container Base -->
<g id="edge11" class="edge">
<title>shadow&#45;utils&#45;&gt;Fedora Container Base</title>
<path fill="none" stroke="#444444" stroke-opacity="0.333333" d="M872.4002,-323.6322C846.6379,-375.6265 772.0032,-526.2569 741.2493,-588.3255"/>
<polygon fill="#444444" fill-opacity="0.333333" stroke="#444444" stroke-opacity="0.333333" points="738.008,-586.9838 736.7044,-597.4981 744.2803,-590.0916 738.008,-586.9838"/>
</g>
<!-- shadow&#45;utils&#45;&gt;shadow&#45;utils -->
<g id="edge12" class="edge">
<title>shadow&#45;utils&#45;&gt;shadow&#45;utils</title>
<path fill="none" stroke="#444444" stroke-opacity="0.333333" d="M952.1456,-311.7534C962.689,-310.8 969.82,-308.7589 969.82,-305.63 969.82,-303.6744 967.0344,-302.1438 962.3712,-301.038"/>
<polygon fill="#444444" fill-opacity="0.333333" stroke="#444444" stroke-opacity="0.333333" points="962.5538,-297.5264 952.1456,-299.5066 961.5169,-304.4492 962.5538,-297.5264"/>
</g>
<!-- shadow&#45;utils&#45;&gt;libsemanage -->
<g id="edge13" class="edge">
<title>shadow&#45;utils&#45;&gt;libsemanage</title>
<path fill="none" stroke="#444444" stroke-opacity="0.333333" d="M898.7305,-323.8762C926.7575,-353.2485 981.9639,-411.1049 1013.9355,-444.6112"/>
<polygon fill="#444444" fill-opacity="0.333333" stroke="#444444" stroke-opacity="0.333333" points="1011.7153,-447.3543 1021.1509,-452.173 1016.7797,-442.5219 1011.7153,-447.3543"/>
</g>
<!-- systemd&#45;&gt;Fedora Container Base -->
<g id="edge14" class="edge">
<title>systemd&#45;&gt;Fedora Container Base</title>
<path fill="none" stroke="#444444" stroke-opacity="0.333333" d="M590.9544,-502.6531C618.9006,-525.7153 667.1194,-565.5072 698.2098,-591.1641"/>
<polygon fill="#444444" fill-opacity="0.333333" stroke="#444444" stroke-opacity="0.333333" points="696.1671,-594.0163 706.1077,-597.6818 700.6226,-588.6173 696.1671,-594.0163"/>
</g>
<!-- systemd&#45;&gt;shadow&#45;utils -->
<g id="edge15" class="edge">
<title>systemd&#45;&gt;shadow&#45;utils</title>
<path fill="none" stroke="#444444" stroke-opacity="0.333333" d="M600.5399,-466.2928C657.6202,-433.6313 777.646,-364.9524 840.6835,-328.8823"/>
<polygon fill="#444444" fill-opacity="0.333333" stroke="#444444" stroke-opacity="0.333333" points="842.615,-331.8096 849.5563,-323.8052 839.1385,-325.7339 842.615,-331.8096"/>
</g>
<!-- systemd&#45;&gt;systemd -->
<g id="edge16" class="edge">
<title>systemd&#45;&gt;systemd</title>
<path fill="none" stroke="#444444" stroke-opacity="0.333333" d="M630.5267,-490.7213C641.0613,-489.8603 648.36,-487.7598 648.36,-484.42 648.36,-482.2804 645.3646,-480.6495 640.442,-479.5272"/>
<polygon fill="#444444" fill-opacity="0.333333" stroke="#444444" stroke-opacity="0.333333" points="640.9196,-476.06 630.5267,-478.1187 639.9351,-482.9904 640.9196,-476.06"/>
</g>
<!-- systemd&#45;&gt;util&#45;linux -->
<g id="edge17" class="edge">
<title>systemd&#45;&gt;util&#45;linux</title>
<path fill="none" stroke="#444444" stroke-opacity="0.333333" d="M630.6174,-474.2675C666.3553,-468.3924 711.5825,-460.9574 749.3092,-454.7554"/>
<polygon fill="#444444" fill-opacity="0.333333" stroke="#444444" stroke-opacity="0.333333" points="749.9316,-458.2001 759.2314,-453.1242 748.7961,-451.2928 749.9316,-458.2001"/>
</g>
<!-- systemd&#45;&gt;acl -->
<g id="edge18" class="edge">
<title>systemd&#45;&gt;acl</title>
<path fill="none" stroke="#444444" stroke-opacity="0.333333" d="M541.7924,-502.669C508.4497,-525.1487 451.7317,-563.388 415.0625,-588.1104"/>
<polygon fill="#444444" fill-opacity="0.333333" stroke="#444444" stroke-opacity="0.333333" points="412.9872,-585.2883 406.6522,-593.7806 416.9004,-591.0924 412.9872,-585.2883"/>
</g>
<!-- systemd&#45;&gt;cryptsetup&#45;libs -->
<g id="edge19" class="edge">
<title>systemd&#45;&gt;cryptsetup&#45;libs</title>
<path fill="none" stroke="#444444" stroke-opacity="0.333333" d="M574.0415,-502.5014C592.7634,-567.8334 656.9933,-791.9705 679.6665,-871.0908"/>
<polygon fill="#444444" fill-opacity="0.333333" stroke="#444444" stroke-opacity="0.333333" points="676.3418,-872.1945 682.4612,-880.8434 683.0709,-870.2661 676.3418,-872.1945"/>
</g>
<!-- systemd&#45;&gt;dbus -->
<g id="edge20" class="edge">
<title>systemd&#45;&gt;dbus</title>
<path fill="none" stroke="#444444" stroke-opacity="0.333333" d="M563.0339,-466.1358C540.188,-394.4374 456.6205,-132.1743 429.0967,-45.7953"/>
<polygon fill="#444444" fill-opacity="0.333333" stroke="#444444" stroke-opacity="0.333333" points="432.3967,-44.6232 426.0258,-36.1578 425.7271,-46.7484 432.3967,-44.6232"/>
</g>
<!-- systemd&#45;&gt;iptables&#45;libs -->
<g id="edge21" class="edge">
<title>systemd&#45;&gt;iptables&#45;libs</title>
<path fill="none" stroke="#444444" stroke-opacity="0.333333" d="M561.7442,-502.4954C537.672,-563.6428 459.1768,-763.0337 430.1553,-836.7533"/>
<polygon fill="#444444" fill-opacity="0.333333" stroke="#444444" stroke-opacity="0.333333" points="426.8058,-835.7069 426.3994,-846.2939 433.3193,-838.2711 426.8058,-835.7069"/>
</g>
<!-- systemd&#45;&gt;kmod&#45;libs -->
<g id="edge22" class="edge">
<title>systemd&#45;&gt;kmod&#45;libs</title>
<path fill="none" stroke="#444444" stroke-opacity="0.333333" d="M529.7151,-466.3035C493.7124,-449.6413 440.1945,-424.8729 401.4349,-406.9348"/>
<polygon fill="#444444" fill-opacity="0.333333" stroke="#444444" stroke-opacity="0.333333" points="402.4636,-403.5543 391.9184,-402.5305 399.5235,-409.9069 402.4636,-403.5543"/>
</g>
<!-- systemd&#45;&gt;libfdisk -->
<g id="edge23" class="edge">
<title>systemd&#45;&gt;libfdisk</title>
<path fill="none" stroke="#444444" stroke-opacity="0.333333" d="M582.1164,-466.1353C604.9523,-434.6374 651.7897,-370.034 678.1449,-333.6819"/>
<polygon fill="#444444" fill-opacity="0.333333" stroke="#444444" stroke-opacity="0.333333" points="681.0296,-335.6658 684.0657,-325.5153 675.3624,-331.557 681.0296,-335.6658"/>
</g>
<!-- systemd&#45;&gt;libseccomp -->
<g id="edge24" class="edge">
<title>systemd&#45;&gt;libseccomp</title>
<path fill="none" stroke="#444444" stroke-opacity="0.333333" d="M547.5527,-502.4898C498.3359,-544.2286 376.6829,-647.3975 320.6106,-694.9501"/>
<polygon fill="#444444" fill-opacity="0.333333" stroke="#444444" stroke-opacity="0.333333" points="318.1928,-692.4113 312.8299,-701.5486 322.7204,-697.75 318.1928,-692.4113"/>
</g>
<!-- systemd&#45;&gt;qrencode&#45;libs -->
<g id="edge25" class="edge">
<title>systemd&#45;&gt;qrencode&#45;libs</title>
<path fill="none" stroke="#444444" stroke-opacity="0.333333" d="M507.0191,-492.865C463.4411,-498.8161 404.4276,-506.875 355.807,-513.5147"/>
<polygon fill="#444444" fill-opacity="0.333333" stroke="#444444" stroke-opacity="0.333333" points="355.0334,-510.0878 345.599,-514.9087 355.9806,-517.0234 355.0334,-510.0878"/>
</g>
<!-- systemd&#45;&gt;systemd&#45;pam -->
<g id="edge26" class="edge">
<title>systemd&#45;&gt;systemd&#45;pam</title>
<path fill="none" stroke="#444444" stroke-opacity="0.333333" d="M561.3093,-502.5797C547.3761,-549.4397 520.6945,-674.6623 512.3527,-731.1829"/>
<polygon fill="#444444" fill-opacity="0.333333" stroke="#444444" stroke-opacity="0.333333" points="508.8681,-730.8327 510.9767,-741.2156 515.8031,-731.784 508.8681,-730.8327"/>
</g>
<!-- systemd&#45;&gt;systemd&#45;rpm&#45;macros -->
<g id="edge27" class="edge">
<title>systemd&#45;&gt;systemd&#45;rpm&#45;macros</title>
<path fill="none" stroke="#444444" stroke-opacity="0.333333" d="M532.1566,-466.2665C445.9681,-423.6376 230.8217,-317.2259 136.5111,-270.5798"/>
<polygon fill="#444444" fill-opacity="0.333333" stroke="#444444" stroke-opacity="0.333333" points="138.016,-267.4195 127.5008,-266.1233 134.9126,-273.694 138.016,-267.4195"/>
</g>
<!-- libsemanage&#45;&gt;Fedora Container Base -->
<g id="edge39" class="edge">
<title>libsemanage&#45;&gt;Fedora Container Base</title>
<path fill="none" stroke="#444444" stroke-opacity="0.333333" d="M999.6853,-488.3586C942.4463,-515.1318 835.4173,-565.1939 774.0909,-593.879"/>
<polygon fill="#444444" fill-opacity="0.333333" stroke="#444444" stroke-opacity="0.333333" points="772.5958,-590.7143 765.0206,-598.1216 775.5616,-597.055 772.5958,-590.7143"/>
</g>
<!-- libsemanage&#45;&gt;libsemanage -->
<g id="edge40" class="edge">
<title>libsemanage&#45;&gt;libsemanage</title>
<path fill="none" stroke="#444444" stroke-opacity="0.333333" d="M1113.9725,-476.3074C1124.7009,-475.3277 1131.9,-473.3086 1131.9,-470.25 1131.9,-468.2906 1128.9455,-466.7578 1124.0013,-465.6515"/>
<polygon fill="#444444" fill-opacity="0.333333" stroke="#444444" stroke-opacity="0.333333" points="1124.3723,-462.1687 1113.9725,-464.1926 1123.3645,-469.0958 1124.3723,-462.1687"/>
</g>
<!-- util&#45;linux&#45;&gt;Fedora Container Base -->
<g id="edge28" class="edge">
<title>util&#45;linux&#45;&gt;Fedora Container Base</title>
<path fill="none" stroke="#444444" stroke-opacity="0.333333" d="M813.8646,-460.6744C796.9007,-491.1872 762.6332,-552.8239 742.8253,-588.4521"/>
<polygon fill="#444444" fill-opacity="0.333333" stroke="#444444" stroke-opacity="0.333333" points="739.6844,-586.8989 737.8842,-597.3397 745.8024,-590.3003 739.6844,-586.8989"/>
</g>
<!-- util&#45;linux&#45;&gt;util&#45;linux -->
<g id="edge29" class="edge">
<title>util&#45;linux&#45;&gt;util&#45;linux</title>
<path fill="none" stroke="#444444" stroke-opacity="0.333333" d="M888.6597,-448.7253C899.2215,-447.8313 906.48,-445.7495 906.48,-442.48 906.48,-440.3855 903.5011,-438.7784 898.5832,-437.6587"/>
<polygon fill="#444444" fill-opacity="0.333333" stroke="#444444" stroke-opacity="0.333333" points="899.0555,-434.1907 888.6597,-436.2347 898.0611,-441.1198 899.0555,-434.1907"/>
</g>
<!-- util&#45;linux&#45;&gt;libfdisk -->
<g id="edge30" class="edge">
<title>util&#45;linux&#45;&gt;libfdisk</title>
<path fill="none" stroke="#444444" stroke-opacity="0.333333" d="M806.8886,-424.2531C784.8744,-400.7762 746.4759,-359.8265 721.4627,-333.1514"/>
<polygon fill="#444444" fill-opacity="0.333333" stroke="#444444" stroke-opacity="0.333333" points="723.8687,-330.6004 714.4753,-325.6998 718.7624,-335.3885 723.8687,-330.6004"/>
</g>
<!-- util&#45;linux&#45;&gt;libutempter -->
<g id="edge31" class="edge">
<title>util&#45;linux&#45;&gt;libutempter</title>
<path fill="none" stroke="#444444" stroke-opacity="0.333333" d="M831.919,-424.1195C851.0536,-379.8667 899.8072,-267.1138 922.4627,-214.7181"/>
<polygon fill="#444444" fill-opacity="0.333333" stroke="#444444" stroke-opacity="0.333333" points="925.7466,-215.942 926.503,-205.3742 919.3215,-213.1638 925.7466,-215.942"/>
</g>
<!-- acl&#45;&gt;Fedora Container Base -->
<g id="edge54" class="edge">
<title>acl&#45;&gt;Fedora Container Base</title>
<path fill="none" stroke="#444444" stroke-opacity="0.333333" d="M427.5736,-612.3049C467.333,-612.7347 526.1973,-613.3711 581.2922,-613.9667"/>
<polygon fill="#444444" fill-opacity="0.333333" stroke="#444444" stroke-opacity="0.333333" points="581.493,-617.4689 591.5303,-614.0773 581.5687,-610.4693 581.493,-617.4689"/>
</g>
<!-- cryptsetup&#45;libs&#45;&gt;Fedora Container Base -->
<g id="edge55" class="edge">
<title>cryptsetup&#45;libs&#45;&gt;Fedora Container Base</title>
<path fill="none" stroke="#444444" stroke-opacity="0.333333" d="M690.2388,-880.8565C697.0414,-832.756 715.5618,-701.8013 723.7617,-643.8215"/>
<polygon fill="#444444" fill-opacity="0.333333" stroke="#444444" stroke-opacity="0.333333" points="727.2777,-643.9539 725.2126,-633.5623 720.3467,-642.9736 727.2777,-643.9539"/>
</g>
<!-- cryptsetup&#45;libs&#45;&gt;device&#45;mapper&#45;libs -->
<g id="edge56" class="edge">
<title>cryptsetup&#45;libs&#45;&gt;device&#45;mapper&#45;libs</title>
<path fill="none" stroke="#444444" stroke-opacity="0.333333" d="M729.3817,-917.0635C758.1012,-929.487 796.4268,-946.0658 826.9297,-959.2606"/>
<polygon fill="#444444" fill-opacity="0.333333" stroke="#444444" stroke-opacity="0.333333" points="825.5579,-962.4806 836.1256,-963.2386 828.3371,-956.0559 825.5579,-962.4806"/>
</g>
<!-- cryptsetup&#45;libs&#45;&gt;libargon2 -->
<g id="edge57" class="edge">
<title>cryptsetup&#45;libs&#45;&gt;libargon2</title>
<path fill="none" stroke="#444444" stroke-opacity="0.333333" d="M690.5028,-917.1965C696.4121,-955.1129 710.0904,-1042.878 717.1647,-1088.2697"/>
<polygon fill="#444444" fill-opacity="0.333333" stroke="#444444" stroke-opacity="0.333333" points="713.7331,-1088.9805 718.7314,-1098.3222 720.6496,-1087.9025 713.7331,-1088.9805"/>
</g>
<!-- dbus&#45;&gt;dbus&#45;broker -->
<g id="edge58" class="edge">
<title>dbus&#45;&gt;dbus&#45;broker</title>
<path fill="none" stroke="#444444" stroke-opacity="0.333333" d="M441.9513,-36.045C477.8228,-65.859 549.5136,-125.4437 589.9869,-159.0825"/>
<polygon fill="#444444" fill-opacity="0.333333" stroke="#444444" stroke-opacity="0.333333" points="587.9578,-161.9471 597.8855,-165.6473 592.4321,-156.5637 587.9578,-161.9471"/>
</g>
<!-- iptables&#45;libs&#45;&gt;Fedora Container Base -->
<g id="edge59" class="edge">
<title>iptables&#45;libs&#45;&gt;Fedora Container Base</title>
<path fill="none" stroke="#444444" stroke-opacity="0.333333" d="M441.6765,-846.3771C496.2184,-802.3698 635.8028,-689.7459 697.5729,-639.9066"/>
<polygon fill="#444444" fill-opacity="0.333333" stroke="#444444" stroke-opacity="0.333333" points="699.8228,-642.5885 705.4076,-633.5851 695.4272,-637.1406 699.8228,-642.5885"/>
</g>
<!-- iptables&#45;libs&#45;&gt;libpcap -->
<g id="edge60" class="edge">
<title>iptables&#45;libs&#45;&gt;libpcap</title>
<path fill="none" stroke="#444444" stroke-opacity="0.333333" d="M422.1461,-882.6805C427.6646,-917.2431 439.6943,-992.5842 446.251,-1033.6484"/>
<polygon fill="#444444" fill-opacity="0.333333" stroke="#444444" stroke-opacity="0.333333" points="442.7979,-1034.2205 447.831,-1043.5435 449.7104,-1033.1167 442.7979,-1034.2205"/>
</g>
<!-- kmod&#45;libs&#45;&gt;Fedora Container Base -->
<g id="edge61" class="edge">
<title>kmod&#45;libs&#45;&gt;Fedora Container Base</title>
<path fill="none" stroke="#444444" stroke-opacity="0.333333" d="M382.1303,-402.5195C449.6694,-444.1475 615.7004,-546.4815 690.3444,-592.4887"/>
<polygon fill="#444444" fill-opacity="0.333333" stroke="#444444" stroke-opacity="0.333333" points="688.6321,-595.5447 698.9815,-597.8122 692.305,-589.5857 688.6321,-595.5447"/>
</g>
<!-- libfdisk&#45;&gt;Fedora Container Base -->
<g id="edge62" class="edge">
<title>libfdisk&#45;&gt;Fedora Container Base</title>
<path fill="none" stroke="#444444" stroke-opacity="0.333333" d="M699.0672,-325.6875C704.1863,-377.4024 718.7548,-524.5772 724.9339,-587.0003"/>
<polygon fill="#444444" fill-opacity="0.333333" stroke="#444444" stroke-opacity="0.333333" points="721.4842,-587.6821 725.9524,-597.2887 728.4502,-586.9925 721.4842,-587.6821"/>
</g>
<!-- libseccomp&#45;&gt;Fedora Container Base -->
<g id="edge63" class="edge">
<title>libseccomp&#45;&gt;Fedora Container Base</title>
<path fill="none" stroke="#444444" stroke-opacity="0.333333" d="M363.0092,-702.6017C442.415,-683.6506 570.0487,-653.1895 651.3551,-633.7848"/>
<polygon fill="#444444" fill-opacity="0.333333" stroke="#444444" stroke-opacity="0.333333" points="652.6116,-637.0833 661.5259,-631.3575 650.9865,-630.2746 652.6116,-637.0833"/>
</g>
<!-- qrencode&#45;libs&#45;&gt;Fedora Container Base -->
<g id="edge64" class="edge">
<title>qrencode&#45;libs&#45;&gt;Fedora Container Base</title>
<path fill="none" stroke="#444444" stroke-opacity="0.333333" d="M345.5761,-541.0105C427.8064,-557.0483 556.4393,-582.1364 641.4129,-598.7092"/>
<polygon fill="#444444" fill-opacity="0.333333" stroke="#444444" stroke-opacity="0.333333" points="640.8102,-602.1576 651.2953,-600.6367 642.1503,-595.287 640.8102,-602.1576"/>
</g>
<!-- systemd&#45;pam&#45;&gt;Fedora Container Base -->
<g id="edge65" class="edge">
<title>systemd&#45;pam&#45;&gt;Fedora Container Base</title>
<path fill="none" stroke="#444444" stroke-opacity="0.333333" d="M538.1908,-741.3123C577.3589,-715.3277 649.2443,-667.6382 692.3529,-639.0395"/>
<polygon fill="#444444" fill-opacity="0.333333" stroke="#444444" stroke-opacity="0.333333" points="694.4346,-641.8587 700.8327,-633.4139 690.5648,-636.0255 694.4346,-641.8587"/>
</g>
<!-- systemd&#45;pam&#45;&gt;systemd -->
<g id="edge66" class="edge">
<title>systemd&#45;pam&#45;&gt;systemd</title>
<path fill="none" stroke="#444444" stroke-opacity="0.333333" d="M518.2507,-741.3903C532.1839,-694.5303 558.8655,-569.3077 567.2073,-512.7871"/>
<polygon fill="#444444" fill-opacity="0.333333" stroke="#444444" stroke-opacity="0.333333" points="570.6919,-513.1373 568.5833,-502.7544 563.7569,-512.186 570.6919,-513.1373"/>
</g>
<!-- libutempter&#45;&gt;Fedora Container Base -->
<g id="edge67" class="edge">
<title>libutempter&#45;&gt;Fedora Container Base</title>
<path fill="none" stroke="#444444" stroke-opacity="0.333333" d="M925.6242,-205.3129C893.2231,-272.491 779.8926,-507.4622 740.9886,-588.1229"/>
<polygon fill="#444444" fill-opacity="0.333333" stroke="#444444" stroke-opacity="0.333333" points="737.8154,-586.6454 736.6236,-597.173 744.1204,-589.6864 737.8154,-586.6454"/>
</g>
<!-- libutempter&#45;&gt;shadow&#45;utils -->
<g id="edge68" class="edge">
<title>libutempter&#45;&gt;shadow&#45;utils</title>
<path fill="none" stroke="#444444" stroke-opacity="0.333333" d="M926.1972,-205.4282C917.4879,-224.8744 903.601,-255.8809 893.5804,-278.2551"/>
<polygon fill="#444444" fill-opacity="0.333333" stroke="#444444" stroke-opacity="0.333333" points="890.3083,-276.9983 889.415,-287.5554 896.6968,-279.8596 890.3083,-276.9983"/>
</g>
<!-- libunwind&#45;&gt;Fedora Container Base -->
<g id="edge36" class="edge">
<title>libunwind&#45;&gt;Fedora Container Base</title>
<path fill="none" stroke="#444444" stroke-opacity="0.333333" d="M1089.5437,-935.3493C1025.4712,-878.7122 829.2929,-705.3002 755.8801,-640.4068"/>
<polygon fill="#444444" fill-opacity="0.333333" stroke="#444444" stroke-opacity="0.333333" points="757.7644,-637.401 747.9539,-633.4004 753.1283,-642.6457 757.7644,-637.401"/>
</g>
<!-- libunwind&#45;&gt;libunwind -->
<g id="edge37" class="edge">
<title>libunwind&#45;&gt;libunwind</title>
<path fill="none" stroke="#444444" stroke-opacity="0.333333" d="M1177.437,-959.706C1187.9397,-958.7812 1195.1,-956.7192 1195.1,-953.52 1195.1,-951.5205 1192.303,-949.9652 1187.6411,-948.8541"/>
<polygon fill="#444444" fill-opacity="0.333333" stroke="#444444" stroke-opacity="0.333333" points="1187.8436,-945.3458 1177.437,-947.334 1186.8121,-952.2694 1187.8436,-945.3458"/>
</g>
<!-- libpcap&#45;&gt;Fedora Container Base -->
<g id="edge38" class="edge">
<title>libpcap&#45;&gt;Fedora Container Base</title>
<path fill="none" stroke="#444444" stroke-opacity="0.333333" d="M461.933,-1043.6578C504.9608,-974.3626 659.7638,-725.0561 711.0926,-642.3924"/>
<polygon fill="#444444" fill-opacity="0.333333" stroke="#444444" stroke-opacity="0.333333" points="714.1158,-644.1585 716.4176,-633.8167 708.169,-640.4659 714.1158,-644.1585"/>
</g>
<!-- gperftools&#45;libs&#45;&gt;Fedora Container Base -->
<g id="edge41" class="edge">
<title>gperftools&#45;libs&#45;&gt;Fedora Container Base</title>
<path fill="none" stroke="#444444" stroke-opacity="0.333333" d="M1123.6127,-753.697C1039.4296,-724.3183 873.4855,-666.4061 785.5731,-635.7259"/>
<polygon fill="#444444" fill-opacity="0.333333" stroke="#444444" stroke-opacity="0.333333" points="786.6185,-632.3838 776.0237,-632.3933 784.312,-638.9929 786.6185,-632.3838"/>
</g>
<!-- gperftools&#45;libs&#45;&gt;libunwind -->
<g id="edge42" class="edge">
<title>gperftools&#45;libs&#45;&gt;libunwind</title>
<path fill="none" stroke="#444444" stroke-opacity="0.333333" d="M1168.9001,-789.8614C1157.459,-821.7053 1133.6549,-887.9595 1120.1048,-925.6736"/>
<polygon fill="#444444" fill-opacity="0.333333" stroke="#444444" stroke-opacity="0.333333" points="1116.6611,-924.9073 1116.5737,-935.5018 1123.2488,-927.2742 1116.6611,-924.9073"/>
</g>
<!-- nginx&#45;&gt;Fedora Container Base -->
<g id="edge43" class="edge">
<title>nginx&#45;&gt;Fedora Container Base</title>
<path fill="none" stroke="#444444" stroke-opacity="0.333333" d="M1117.0702,-531.0913C1031.671,-549.6182 895.0756,-579.2518 808.4689,-598.0407"/>
<polygon fill="#444444" fill-opacity="0.333333" stroke="#444444" stroke-opacity="0.333333" points="807.7147,-594.6228 798.6841,-600.1634 809.1988,-601.4637 807.7147,-594.6228"/>
</g>
<!-- nginx&#45;&gt;systemd -->
<g id="edge44" class="edge">
<title>nginx&#45;&gt;systemd</title>
<path fill="none" stroke="#444444" stroke-opacity="0.333333" d="M1117.0174,-510.5473C994.7138,-504.7179 759.0222,-493.4839 640.5466,-487.8369"/>
<polygon fill="#444444" fill-opacity="0.333333" stroke="#444444" stroke-opacity="0.333333" points="640.6472,-484.3378 630.4919,-487.3576 640.3139,-491.3298 640.6472,-484.3378"/>
</g>
<!-- nginx&#45;&gt;fedora&#45;logos&#45;httpd -->
<g id="edge45" class="edge">
<title>nginx&#45;&gt;fedora&#45;logos&#45;httpd</title>
<path fill="none" stroke="#444444" stroke-opacity="0.333333" d="M1272.326,-516.6691C1352.997,-519.1831 1479.4043,-523.1223 1566.5105,-525.8368"/>
<polygon fill="#444444" fill-opacity="0.333333" stroke="#444444" stroke-opacity="0.333333" points="1566.5628,-529.3401 1576.667,-526.1533 1566.781,-522.3435 1566.5628,-529.3401"/>
</g>
<!-- nginx&#45;&gt;gperftools&#45;libs -->
<g id="edge46" class="edge">
<title>nginx&#45;&gt;gperftools&#45;libs</title>
<path fill="none" stroke="#444444" stroke-opacity="0.333333" d="M1193.3429,-532.3583C1190.0276,-576.5936 1181.4977,-690.4088 1177.5116,-743.595"/>
<polygon fill="#444444" fill-opacity="0.333333" stroke="#444444" stroke-opacity="0.333333" points="1174.0129,-743.4481 1176.7556,-753.6817 1180.9933,-743.9713 1174.0129,-743.4481"/>
</g>
<!-- nginx&#45;&gt;nginx -->
<g id="edge47" class="edge">
<title>nginx&#45;&gt;nginx</title>
<path fill="none" stroke="#444444" stroke-opacity="0.333333" d="M1272.2655,-520.2733C1283.015,-519.2812 1290.2,-517.2734 1290.2,-514.25 1290.2,-512.3131 1287.2513,-510.7931 1282.3057,-509.6898"/>
<polygon fill="#444444" fill-opacity="0.333333" stroke="#444444" stroke-opacity="0.333333" points="1282.6657,-506.2054 1272.2655,-508.2267 1281.6562,-513.1323 1282.6657,-506.2054"/>
</g>
<!-- nginx&#45;&gt;nginx&#45;filesystem -->
<g id="edge48" class="edge">
<title>nginx&#45;&gt;nginx&#45;filesystem</title>
<path fill="none" stroke="#444444" stroke-opacity="0.333333" d="M1192.8436,-496.1541C1189.5234,-463.7891 1182.5465,-395.7794 1178.5932,-357.243"/>
<polygon fill="#444444" fill-opacity="0.333333" stroke="#444444" stroke-opacity="0.333333" points="1182.0663,-356.8 1177.5639,-347.2094 1175.1028,-357.5144 1182.0663,-356.8"/>
</g>
<!-- nginx&#45;&gt;nginx&#45;mimetypes -->
<g id="edge49" class="edge">
<title>nginx&#45;&gt;nginx&#45;mimetypes</title>
<path fill="none" stroke="#444444" stroke-opacity="0.333333" d="M1216.7452,-495.9893C1268.7857,-452.8824 1399.311,-344.764 1458.2703,-295.9261"/>
<polygon fill="#444444" fill-opacity="0.333333" stroke="#444444" stroke-opacity="0.333333" points="1460.6307,-298.5157 1466.0991,-289.4412 1456.1653,-293.125 1460.6307,-298.5157"/>
</g>
<!-- nginx&#45;filesystem&#45;&gt;Fedora Container Base -->
<g id="edge50" class="edge">
<title>nginx&#45;filesystem&#45;&gt;Fedora Container Base</title>
<path fill="none" stroke="#444444" stroke-opacity="0.333333" d="M1147.3395,-347.1798C1069.1553,-397.1878 850.5995,-536.9798 763.8804,-592.4468"/>
<polygon fill="#444444" fill-opacity="0.333333" stroke="#444444" stroke-opacity="0.333333" points="761.9615,-589.5194 755.4232,-597.8562 765.7333,-595.4163 761.9615,-589.5194"/>
</g>
<!-- nginx&#45;filesystem&#45;&gt;shadow&#45;utils -->
<g id="edge51" class="edge">
<title>nginx&#45;filesystem&#45;&gt;shadow&#45;utils</title>
<path fill="none" stroke="#444444" stroke-opacity="0.333333" d="M1099.507,-322.9809C1057.3183,-319.6259 1004.8966,-315.4572 962.0111,-312.0468"/>
<polygon fill="#444444" fill-opacity="0.333333" stroke="#444444" stroke-opacity="0.333333" points="962.137,-308.5459 951.8909,-311.242 961.582,-315.5238 962.137,-308.5459"/>
</g>
<!-- nginx&#45;mimetypes&#45;&gt;nginx&#45;filesystem -->
<g id="edge52" class="edge">
<title>nginx&#45;mimetypes&#45;&gt;nginx&#45;filesystem</title>
<path fill="none" stroke="#444444" stroke-opacity="0.333333" d="M1401.8359,-287.2306C1358.2028,-295.2977 1305.3772,-305.0645 1261.7589,-313.1289"/>
<polygon fill="#444444" fill-opacity="0.333333" stroke="#444444" stroke-opacity="0.333333" points="1260.9393,-309.721 1251.7423,-314.9808 1262.2119,-316.6044 1260.9393,-309.721"/>
</g>
<!-- nginx&#45;mimetypes&#45;&gt;nginx&#45;mimetypes -->
<g id="edge53" class="edge">
<title>nginx&#45;mimetypes&#45;&gt;nginx&#45;mimetypes</title>
<path fill="none" stroke="#444444" stroke-opacity="0.333333" d="M1574.077,-277.1782C1584.8864,-276.1422 1592,-274.1828 1592,-271.3 1592,-269.4532 1589.0806,-267.9854 1584.1403,-266.8965"/>
<polygon fill="#444444" fill-opacity="0.333333" stroke="#444444" stroke-opacity="0.333333" points="1584.4789,-263.4088 1574.077,-265.4218 1583.4639,-270.3348 1584.4789,-263.4088"/>
</g>
<!-- Fedora Container Base -->
<g id="node1" class="node">
<title>Fedora Container Base</title>
<ellipse fill="none" stroke="#000000" cx="727.76" cy="-615.55" rx="136.5" ry="18"/>
<text text-anchor="middle" x="727.76" y="-611.85" font-family="Helvetica,sans-Serif" font-weight="bold" font-size="14.00" fill="#000000">Fedora Container Base (201.3 MB)</text>
</g>
<!-- device&#45;mapper&#45;libs -->
<g id="node2" class="node">
<title>device&#45;mapper&#45;libs</title>
<text text-anchor="middle" x="877.74" y="-977.54" font-family="Helvetica,sans-Serif" font-weight="bold" font-size="14.00" fill="#000000">device&#45;mapper&#45;libs (418.0 kB)</text>
</g>
<!-- device&#45;mapper -->
<g id="node3" class="node">
<title>device&#45;mapper</title>
<text text-anchor="middle" x="841.38" y="-721.11" font-family="Helvetica,sans-Serif" font-weight="bold" font-size="14.00" fill="#000000">device&#45;mapper (349.9 kB)</text>
</g>
<!-- libargon2 -->
<g id="node4" class="node">
<title>libargon2</title>
<text text-anchor="middle" x="721.58" y="-1112.9" font-family="Helvetica,sans-Serif" font-weight="bold" font-size="14.00" fill="#000000">libargon2 (54.2 kB)</text>
</g>
<!-- dbus&#45;broker -->
<g id="node5" class="node">
<title>dbus&#45;broker</title>
<text text-anchor="middle" x="619.57" y="-179.97" font-family="Helvetica,sans-Serif" font-weight="bold" font-size="14.00" fill="#000000">dbus&#45;broker (409.7 kB)</text>
</g>
<!-- dbus&#45;common -->
<g id="node6" class="node">
<title>dbus&#45;common</title>
<text text-anchor="middle" x="481.46" y="-258.84" font-family="Helvetica,sans-Serif" font-weight="bold" font-size="14.00" fill="#000000">dbus&#45;common (11.2 kB)</text>
</g>
<!-- shadow&#45;utils -->
<g id="node7" class="node">
<title>shadow&#45;utils</title>
<text text-anchor="middle" x="881.32" y="-301.93" font-family="Helvetica,sans-Serif" font-weight="bold" font-size="14.00" fill="#000000">shadow&#45;utils (4.0 MB)</text>
</g>
<!-- systemd -->
<g id="node8" class="node">
<title>systemd</title>
<text text-anchor="middle" x="568.86" y="-480.72" font-family="Helvetica,sans-Serif" font-weight="bold" font-size="14.00" fill="#000000">systemd (13.1 MB)</text>
</g>
<!-- libsemanage -->
<g id="node9" class="node">
<title>libsemanage</title>
<text text-anchor="middle" x="1038.4" y="-466.55" font-family="Helvetica,sans-Serif" font-weight="bold" font-size="14.00" fill="#000000">libsemanage (304.5 kB)</text>
</g>
<!-- util&#45;linux -->
<g id="node10" class="node">
<title>util&#45;linux</title>
<text text-anchor="middle" x="823.98" y="-438.78" font-family="Helvetica,sans-Serif" font-weight="bold" font-size="14.00" fill="#000000">util&#45;linux (13.5 MB)</text>
</g>
<!-- acl -->
<g id="node11" class="node">
<title>acl</title>
<text text-anchor="middle" x="379.94" y="-608.09" font-family="Helvetica,sans-Serif" font-weight="bold" font-size="14.00" fill="#000000">acl (209.6 kB)</text>
</g>
<!-- cryptsetup&#45;libs -->
<g id="node12" class="node">
<title>cryptsetup&#45;libs</title>
<text text-anchor="middle" x="687.67" y="-895.32" font-family="Helvetica,sans-Serif" font-weight="bold" font-size="14.00" fill="#000000">cryptsetup&#45;libs (1.8 MB)</text>
</g>
<!-- dbus -->
<g id="node13" class="node">
<title>dbus</title>
<text text-anchor="middle" x="420.24" y="-14.3" font-family="Helvetica,sans-Serif" font-weight="bold" font-size="14.00" fill="#000000">dbus (0.0 B)</text>
</g>
<!-- iptables&#45;libs -->
<g id="node14" class="node">
<title>iptables&#45;libs</title>
<text text-anchor="middle" x="419.24" y="-860.78" font-family="Helvetica,sans-Serif" font-weight="bold" font-size="14.00" fill="#000000">iptables&#45;libs (141.4 kB)</text>
</g>
<!-- kmod&#45;libs -->
<g id="node15" class="node">
<title>kmod&#45;libs</title>
<text text-anchor="middle" x="352.7" y="-380.68" font-family="Helvetica,sans-Serif" font-weight="bold" font-size="14.00" fill="#000000">kmod&#45;libs (127.5 kB)</text>
</g>
<!-- libfdisk -->
<g id="node16" class="node">
<title>libfdisk</title>
<text text-anchor="middle" x="697.25" y="-303.63" font-family="Helvetica,sans-Serif" font-weight="bold" font-size="14.00" fill="#000000">libfdisk (472.7 kB)</text>
</g>
<!-- libseccomp -->
<g id="node17" class="node">
<title>libseccomp</title>
<text text-anchor="middle" x="291.45" y="-715.98" font-family="Helvetica,sans-Serif" font-weight="bold" font-size="14.00" fill="#000000">libseccomp (351.1 kB)</text>
</g>
<!-- qrencode&#45;libs -->
<g id="node18" class="node">
<title>qrencode&#45;libs</title>
<text text-anchor="middle" x="266.87" y="-521.96" font-family="Helvetica,sans-Serif" font-weight="bold" font-size="14.00" fill="#000000">qrencode&#45;libs (158.2 kB)</text>
</g>
<!-- systemd&#45;pam -->
<g id="node19" class="node">
<title>systemd&#45;pam</title>
<text text-anchor="middle" x="510.7" y="-755.85" font-family="Helvetica,sans-Serif" font-weight="bold" font-size="14.00" fill="#000000">systemd&#45;pam (867.6 kB)</text>
</g>
<!-- systemd&#45;rpm&#45;macros -->
<g id="node20" class="node">
<title>systemd&#45;rpm&#45;macros</title>
<text text-anchor="middle" x="91" y="-244.37" font-family="Helvetica,sans-Serif" font-weight="bold" font-size="14.00" fill="#000000">systemd&#45;rpm&#45;macros (4.9 kB)</text>
</g>
<!-- libutempter -->
<g id="node21" class="node">
<title>libutempter</title>
<text text-anchor="middle" x="934.37" y="-183.48" font-family="Helvetica,sans-Serif" font-weight="bold" font-size="14.00" fill="#000000">libutempter (57.8 kB)</text>
</g>
<!-- libunwind -->
<g id="node22" class="node">
<title>libunwind</title>
<text text-anchor="middle" x="1110.1" y="-949.82" font-family="Helvetica,sans-Serif" font-weight="bold" font-size="14.00" fill="#000000">libunwind (172.8 kB)</text>
</g>
<!-- libpcap -->
<g id="node23" class="node">
<title>libpcap</title>
<text text-anchor="middle" x="450.73" y="-1058" font-family="Helvetica,sans-Serif" font-weight="bold" font-size="14.00" fill="#000000">libpcap (387.4 kB)</text>
</g>
<!-- fedora&#45;logos&#45;httpd -->
<g id="node24" class="node">
<title>fedora&#45;logos&#45;httpd</title>
<text text-anchor="middle" x="1663.2" y="-525.15" font-family="Helvetica,sans-Serif" font-weight="bold" font-size="14.00" fill="#000000">fedora&#45;logos&#45;httpd (9.9 kB)</text>
</g>
<!-- gperftools&#45;libs -->
<g id="node25" class="node">
<title>gperftools&#45;libs</title>
<text text-anchor="middle" x="1175.4" y="-768.07" font-family="Helvetica,sans-Serif" font-weight="bold" font-size="14.00" fill="#000000">gperftools&#45;libs (1.5 MB)</text>
</g>
<!-- nginx -->
<g id="node26" class="node">
<title>nginx</title>
<text text-anchor="middle" x="1194.7" y="-508.65" font-family="Helvetica,sans-Serif" font-weight="bold" font-size="22.00" fill="#cc0066">nginx (1.6 MB)</text>
</g>
<!-- nginx&#45;filesystem -->
<g id="node27" class="node">
<title>nginx&#45;filesystem</title>
<text text-anchor="middle" x="1175.7" y="-325.34" font-family="Helvetica,sans-Serif" font-weight="bold" font-size="14.00" fill="#000000">nginx&#45;filesystem (0.0 B)</text>
</g>
<!-- nginx&#45;mimetypes -->
<g id="node28" class="node">
<title>nginx&#45;mimetypes</title>
<text text-anchor="middle" x="1488" y="-267.6" font-family="Helvetica,sans-Serif" font-weight="bold" font-size="14.00" fill="#000000">nginx&#45;mimetypes (39.3 kB)</text>
</g>
</g>

<script type="text/javascript"><![CDATA[

document.addEventListener('click', function(e) {
      e = e || window.event;
      var target = e.target || e.srcElement;
      text = target.parentElement.querySelector("title").textContent;

      console.log("Clicked on: " + text);
      // reset all strokes
      var nodes = document.getElementsByClassName("edge");

      for (index = 0, len = nodes.length; index < len; ++index) {
          //var title = nodes[index].querySelector("title").textContent.split("->");
          id = nodes[index].id;
          document.getElementById(id).querySelector("path").setAttribute("stroke-width", "1");
          document.getElementById(id).querySelector("path").setAttribute("stroke-opacity", "0.5");
          document.getElementById(id).querySelector("path").setAttribute("stroke", "#444444");
          document.getElementById(id).querySelector("polygon").setAttribute("stroke-width", "1");
          document.getElementById(id).querySelector("polygon").setAttribute("stroke-opacity", "0.5");
          document.getElementById(id).querySelector("polygon").setAttribute("stroke", "#444444");
      }
      // reset text highlight
      pkgs = document.getElementsByClassName("node");
      for (index2 = 0, len2 = pkgs.length; index2 < len2; ++index2) {
          target_id = pkgs[index2].id;
          document.getElementById(target_id).querySelector("text").setAttribute("font-weight", "normal");
      }

      // highlight deps
      var nodes = document.getElementsByClassName("edge");
      for (index = 0, len = nodes.length; index < len; ++index) {
        var title = nodes[index].querySelector("title").textContent.split("->");

        if (title[0] == text) {
          id = nodes[index].id;
          //console.log("ID:   " + id);
          document.getElementById(id).querySelector("path").setAttribute("stroke-width", "3");
          document.getElementById(id).querySelector("path").setAttribute("stroke-opacity", "1");
          document.getElementById(id).querySelector("path").setAttribute("stroke", "#aa3333");
          document.getElementById(id).querySelector("polygon").setAttribute("stroke-width", "5");
          document.getElementById(id).querySelector("polygon").setAttribute("stroke-opacity", "1");
          document.getElementById(id).querySelector("polygon").setAttribute("stroke", "#aa3333");

        }
        if (title[1] == text) {
          id = nodes[index].id;
          document.getElementById(id).querySelector("path").setAttribute("stroke-width", "3");
          document.getElementById(id).querySelector("path").setAttribute("stroke-opacity", "1");
          document.getElementById(id).querySelector("path").setAttribute("stroke", "#333377");
          document.getElementById(id).querySelector("polygon").setAttribute("stroke-width", "5");
          document.getElementById(id).querySelector("polygon").setAttribute("stroke-opacity", "1");
          document.getElementById(id).querySelector("polygon").setAttribute("stroke", "#333377");
        }

        if (title[0] == text || title[1] == text) {
          pkgs = document.getElementsByClassName("node");
          for (index2 = 0, len2 = pkgs.length; index2 < len2; ++index2) {
            var pkg_name = pkgs[index2].querySelector("title").textContent;
            if (pkg_name == title[0] || pkg_name == title[1]) {
              target_id = pkgs[index2].id;
              document.getElementById(target_id).querySelector("text").setAttribute("font-weight", "bold");
            }
          }
        }
      }


  }, false);

]]></script>

</svg>
