<?xml version="1.0" encoding="UTF-8" standalone="no"?>
<!DOCTYPE svg PUBLIC "-//W3C//DTD SVG 1.1//EN"
 "http://www.w3.org/Graphics/SVG/1.1/DTD/svg11.dtd">
<!-- Generated by graphviz version 2.40.1 (0)
 -->
<!-- Title: packages Pages: 1 -->
<svg width="1645pt" height="857pt"
 viewBox="0.00 0.00 1974.00 1028.24" xmlns="http://www.w3.org/2000/svg" xmlns:xlink="http://www.w3.org/1999/xlink">
<g id="graph0" class="graph" transform="scale(.8333 .8333) rotate(0) translate(123.4802 875.6959)">
<title>packages</title>
<polygon fill="#dae2ff" stroke="transparent" points="-123.4802,152.5478 -123.4802,-875.6959 1850.5183,-875.6959 1850.5183,152.5478 -123.4802,152.5478"/>
<polygon fill="#fbb4ae" stroke="#fbb4ae" points="1122.7914,-286.1121 1120.8293,-258.65 1120.8453,-250.2742 1119.8048,-204.1363 1117.4371,-153.4195 999.8098,-103.4569 995.6425,-252.1849 990.9249,-254.7061 988.074,-258.5815 986.3052,-258.5815 985.9526,-258.4836 985.6003,-202.1674 980.1474,-258.0301 976.91,-255.5135 976.91,-255.5135 980.1474,-258.0301 985.6003,-202.1674 985.9526,-258.4836 986.3052,-258.5815 988.074,-258.5815 990.9249,-254.7061 995.6425,-252.1849 999.8098,-103.4569 989.3241,-98.7936 985.2855,-96.7557 970.5899,-101.3519 966.9866,-102.349 963.7849,-103.4858 955.763,-106.0339 935.6359,-111.676 838.0646,-137.1624 798.498,-110.9806 777.7806,-99.485 709.3752,-97.954 705.0012,-97.7728 692.8425,-96.5723 690.9341,-171.8922 686.6271,-234.6176 682.4658,-234.6176 675.9602,-238.3287 675.0247,-239.3326 675.6593,-240.0176 675.6593,-240.0176 675.0247,-239.3326 675.9602,-238.3287 682.4658,-234.6176 686.6271,-234.6176 690.9341,-171.8922 692.8425,-96.5723 678.2066,-94.5668 662.615,-91.8356 660.441,-91.3726 639.0607,-86.0025 517.5477,-208.3845 515.3265,-210.5251 515.864,-234.5262 515.8328,-234.5601 507.8756,-242.2606 499.1921,-251.4848 494.2314,-256.5223 483.1484,-267.2608 482.8332,-267.5508 467.684,-282.3199 451.1297,-324.9661 442.0393,-352.5713 437.2202,-377.0067 433.6374,-388.0289 490.1978,-386.5718 494.2522,-383.0765 498.9494,-411.8544 500.1787,-440.8943 501.9338,-440.8902 506.5514,-384.3291 511.4054,-385.7184 516.4024,-384.2719 520.428,-380.5895 521.5627,-380.5895 521.902,-380.6949 521.902,-380.6949 521.5627,-380.5895 520.428,-380.5895 516.4024,-384.2719 511.4054,-385.7184 506.5514,-384.3291 501.9338,-440.8902 500.1787,-440.8943 498.9494,-411.8544 494.2522,-383.0765 490.1978,-386.5718 485.8637,-440.8557 489.044,-441.1537 488.724,-460.9329 491.0916,-496.8995 485.1927,-496.8995 481.1474,-499.1399 479.198,-501.4165 479.7456,-502.0381 486.0868,-505.8408 490.4399,-505.8408 490.4399,-505.8408 486.0868,-505.8408 479.7456,-502.0381 479.198,-501.4165 481.1474,-499.1399 485.1927,-496.8995 491.0916,-496.8995 488.724,-460.9329 489.044,-441.1537 485.8637,-440.8557 476.2302,-440.4638 476.2302,-440.4638 485.8637,-440.8557 490.1978,-386.5718 433.6374,-388.0289 419.7116,-423.9038 406.3943,-429.5702 405.6909,-484.2321 406.1804,-493.6103 406.0296,-505.1326 405.6165,-508.011 403.8717,-643.5978 395.8063,-651.2851 396.6099,-672.6775 397.1277,-705.1307 397.0745,-714.3 398.2226,-733.6088 400.4869,-793.8895 466.5565,-843.1299 472.3075,-845.9388 537.9139,-853.3573 540.082,-853.6414 553.8999,-855.9509 564.8278,-857.9736 563.9636,-771.1797 568.7563,-707.6495 573.3224,-708.8717 577.8474,-707.6609 582.4245,-703.8165 578.65,-700.7048 573.108,-699.1264 573.108,-699.1264 578.65,-700.7048 582.4245,-703.8165 577.8474,-707.6609 586.8646,-816.7698 586.2937,-764.1154 586.2937,-764.1154 586.8646,-816.7698 577.8474,-707.6609 573.3224,-708.8717 568.7563,-707.6495 563.9636,-771.1797 564.8278,-857.9736 573.2368,-859.982 587.5791,-863.665 597.3999,-866.8893 606.5745,-870.0663 605.8015,-745.0864 605.8015,-745.0864 606.5745,-870.0663 610.8396,-871.6959 620.8477,-869.4907 699.9095,-821.0269 728.7371,-762.5941 734.8969,-716.627 742.1168,-677.312 744.0809,-667.8419 687.0898,-546.6089 688.0584,-542.2258 697.6129,-502.4693 740.4246,-482.8578 756.136,-476.3159 774.0256,-470.3614 777.4601,-469.2909 791.3675,-465.5379 862.8229,-449.2653 918.3806,-411.8624 925.9385,-411.8974 936.6493,-410.4562 953.6035,-408.4712 960.7541,-407.8863 970.2682,-407.276 983.9932,-406.8801 985.9236,-406.9606 1001.2144,-400.0998 1125.6349,-347.0224 1122.7914,-286.1121 1122.7914,-286.1121"/>
<polygon fill="#fed9a6" stroke="#fed9a6" points="73.6057,-218.977 74.1867,-218.9793 82.8887,-218.6931 83.6737,-218.7265 83.7705,-243.53 81.222,-290.8837 76.6174,-292.1753 72.4514,-295.7474 76.082,-298.7791 81.6967,-300.3986 86.9114,-298.9476 90.7634,-295.87 96.1718,-367.5706 96.653,-356.6682 96.653,-356.6682 96.1718,-367.5706 90.7634,-295.87 86.9114,-298.9476 81.6967,-300.3986 76.082,-298.7791 72.4514,-295.7474 76.6174,-292.1753 81.222,-290.8837 83.7705,-243.53 83.6737,-218.7265 88.9152,-218.5652 97.7301,-217.9691 110.8629,-216.1124 106.2348,-289.7269 148.6803,-288.2622 153.6743,-299.4001 177.8653,-338.4056 181.9745,-345.5529 172.2654,-350.9418 164.0464,-354.8492 165.9408,-438.3362 161.4872,-438.3362 158.1597,-395.7972 158.1597,-395.7972 161.4872,-438.3362 165.9408,-438.3362 164.0464,-354.8492 172.2654,-350.9418 181.9745,-345.5529 185.2921,-345.6577 184.4344,-377.0102 179.8805,-438.1783 181.884,-438.739 184.8985,-438.739 188.1783,-490.5851 190.8651,-438.857 194.2743,-438.857 197.9432,-468.9595 198.3915,-536.6625 206.2605,-526.3599 207.4286,-524.9261 285.2452,-505.3267 289.1026,-558.7938 289.1666,-557.999 296.8175,-500.3005 299.9898,-500.3005 300.7904,-500.0761 304.8372,-500.0761 309.1023,-540.2905 311.3077,-500.1765 312.1845,-500.1765 316.4224,-503.8398 320.7505,-505.0201 320.7505,-505.0201 316.4224,-503.8398 312.1845,-500.1765 311.3077,-500.1765 309.1023,-540.2905 304.8372,-500.0761 300.7904,-500.0761 299.9898,-500.3005 296.8175,-500.3005 295.5223,-499.932 292.2473,-499.932 290.8792,-497.8282 285.4308,-493.8262 286.1011,-469.2319 280.9113,-469.3871 280.9113,-469.3871 286.1011,-469.2319 285.4308,-493.8262 270.9148,-495.667 239.1153,-491.6624 243.6671,-486.8524 251.0007,-480.8273 258.9715,-476.047 258.9715,-476.047 251.0007,-480.8273 243.6671,-486.8524 243.5493,-483.699 243.5493,-483.699 243.6671,-486.8524 239.1153,-491.6624 270.9148,-495.667 285.4308,-493.8262 290.8792,-497.8282 292.2473,-499.932 295.5223,-499.932 296.8175,-500.3005 289.1666,-557.999 289.1026,-558.7938 285.2452,-505.3267 207.4286,-524.9261 206.2605,-526.3599 198.3915,-536.6625 197.9432,-468.9595 200.9865,-440.9456 205.1414,-443.1714 209.6813,-443.1714 215.924,-439.5994 216.5539,-438.9206 214.5718,-436.6238 210.1349,-434.1589 205.2719,-434.1589 205.2719,-434.1589 210.1349,-434.1589 214.5718,-436.6238 216.5539,-438.9206 215.924,-439.5994 209.6813,-443.1714 205.1414,-443.1714 200.9865,-440.9456 197.9432,-468.9595 194.2743,-438.857 190.8651,-438.857 188.1783,-490.5851 184.8985,-438.739 181.884,-438.739 179.8805,-438.1783 184.4344,-377.0102 185.2921,-345.6577 181.9745,-345.5529 177.8653,-338.4056 153.6743,-299.4001 148.6803,-288.2622 137.5367,-257.3468 164.8204,-256.2024 180.9022,-259.0248 185.2012,-256.2061 187.5279,-252.329 190.0723,-252.329 191.7222,-252.823 195.6386,-252.823 199.7153,-322.1861 201.4871,-252.3611 202.3324,-252.3611 206.5013,-256.0159 206.5013,-256.0159 202.3324,-252.3611 201.4871,-252.3611 199.7153,-322.1861 195.6386,-252.823 191.7222,-252.823 190.0723,-252.329 187.5279,-252.329 185.2012,-256.2061 180.9022,-259.0248 164.8204,-256.2024 137.5367,-257.3468 148.6803,-288.2622 106.2348,-289.7269 110.8629,-216.1124 112.9529,-215.7408 147.0028,-181.5368 182.4588,-182.2815 186.5348,-182.0274 188.1357,-181.9926 192.1564,-182.2317 199.1138,-182.0643 201.9642,-182.1117 205.1745,-182.0309 208.1278,-182.0767 210.9246,-182.2336 213.4393,-182.165 214.5713,-182.226 217.9403,-182.2671 226.6615,-182.0081 226.6751,-182.0083 227.7949,-182.0663 233.8602,-182.1267 234.2488,-182.1143 236.7093,-181.9329 237.8535,-181.8952 247.9017,-182.3829 252.6037,-182.4139 266.03,-184.1402 278.0235,-186.6557 284.0334,-188.3989 284.5374,-188.5654 286.1994,-188.0132 303.3826,-183.6858 329.1905,-178.2657 338.4904,-175.4951 350.3146,-171.4545 350.7173,-171.2999 363.3276,-165.3476 369.4351,-161.9334 380.141,-155.4766 388.3084,-150.2047 383.1692,-135.7147 393.2106,-79.7659 394.7897,-65.4347 396.3009,-57.3359 396.8414,-52.4847 397.1269,-44.9387 398.5457,-32.0395 420.707,91.4391 442.5106,88.2341 461.5944,86.4785 468.5506,85.9668 474.2409,85.7578 475.4646,13.9527 471.1779,-59.554 466.3842,-58.1558 466.3842,-58.1558 471.1779,-59.554 475.4646,13.9527 474.2409,85.7578 483.2915,85.9239 487.095,-61.5489 485.2288,-63.0453 482.7414,-63.0453 482.7414,-63.0453 485.2288,-63.0453 487.095,-61.5489 483.2915,85.9239 497.5013,86.4462 507.229,86.9821 594.7886,22.9639 620.0055,-41.7909 633.5762,-74.3102 639.0607,-86.0025 517.5477,-208.3845 515.3265,-210.5251 515.864,-234.5262 515.8328,-234.5601 507.8756,-242.2606 499.1921,-251.4848 494.2314,-256.5223 483.1484,-267.2608 482.8332,-267.5508 467.684,-282.3199 451.1297,-324.9661 390.2094,-338.8469 386.7973,-342.3431 386.7973,-342.3431 390.2094,-338.8469 451.1297,-324.9661 442.0393,-352.5713 437.2202,-377.0067 433.6374,-388.0289 419.7116,-423.9038 406.3943,-429.5702 405.6909,-484.2321 356.1995,-494.82 360.6322,-422.1604 369.3664,-422.3828 368.3638,-383.8632 370.5371,-345.1225 371.4945,-344.0302 370.567,-342.9789 370.567,-342.9789 371.4945,-344.0302 370.5371,-345.1225 368.3638,-383.8632 369.3664,-422.3828 360.6322,-422.1604 356.1995,-494.82 405.6909,-484.2321 406.1804,-493.6103 406.0296,-505.1326 405.6165,-508.011 403.8717,-643.5978 395.8063,-651.2851 396.6099,-672.6775 397.1277,-705.1307 397.0745,-714.3 398.2226,-733.6088 400.4869,-793.8895 259.3511,-858.5162 256.74,-859.7731 237.241,-869.622 236.8075,-869.3613 235.619,-868.7032 235.0644,-868.4215 224.8785,-715.4855 230.3285,-718.6355 235.94,-718.6355 240.6944,-715.8339 242.1489,-714.0742 240.7409,-712.4558 235.638,-709.5837 231.1974,-709.5837 231.1974,-709.5837 235.638,-709.5837 240.7409,-712.4558 242.1489,-714.0742 240.6944,-715.8339 235.94,-718.6355 230.3285,-718.6355 224.8785,-715.4855 235.0644,-868.4215 219.4419,-860.8353 208.42,-855.7388 78.7245,-801.8464 20.0987,-728.4772 20.0516,-726.6713 19.2694,-708.101 16.2597,-667.5183 52.4969,-610.1079 10.415,-455.9699 4.6098,-436.5805 1.1827,-426.036 -50.8984,-387.2624 -71.9951,-327.0421 -90.4864,-278.0492 -104.1244,-246.024 31.3805,-220.4391 43.136,-219.1043 53.4611,-218.7129 53.4878,-218.7139 64.3248,-218.7243 66.0434,-218.8563 71.0084,-218.871 73.6057,-218.977 73.6057,-218.977"/>
<polygon fill="#bbd7d9" stroke="#bbd7d9" points="-119.4802,-223.0836 -115.9162,-153.3099 -115.5881,-118.1601 -115.8792,-93.0013 .3329,5.6112 32.1328,9.7003 32.4404,9.7455 41.8458,11.3018 45.0425,11.8895 47.3675,12.4031 108.8214,90.8012 185.1918,129.2671 185.324,129.3369 201.6215,129.6297 214.8833,130.3574 230.3068,132.0564 231.874,132.2866 235.3855,132.8672 320.6697,148.5478 337.8252,131.176 338.1444,130.9993 359.1062,120.6373 420.707,91.4391 398.5457,-32.0395 397.1269,-44.9387 396.8414,-52.4847 396.3009,-57.3359 394.7897,-65.4347 351.3285,-52.8173 347.5738,-48.3379 346.5413,-47.7651 346.5197,-47.7716 340.657,-47.7716 340.2165,-47.9063 336.4863,-47.9063 334.9559,-46.0454 330.6046,-43.5129 324.9818,-43.5129 324.9818,-43.5129 330.6046,-43.5129 334.9559,-46.0454 336.4863,-47.9063 335.5854,-48.9758 330.2793,-52.1531 324.4832,-52.1531 319.6316,-49.4025 318.4853,-48.1116 315.0569,-48.1116 314.0429,-47.8105 320.2206,78.5009 316.6464,70.0855 316.6464,70.0855 320.2206,78.5009 314.0429,-47.8105 315.0569,-48.1116 318.4853,-48.1116 319.6316,-49.4025 324.4832,-52.1531 330.2793,-52.1531 335.5854,-48.9758 336.4863,-47.9063 340.2165,-47.9063 340.657,-47.7716 346.5197,-47.7716 346.5413,-47.7651 347.5738,-48.3379 351.3285,-52.8173 394.7897,-65.4347 393.2106,-79.7659 383.1692,-135.7147 388.3084,-150.2047 380.141,-155.4766 369.4351,-161.9334 363.3276,-165.3476 350.7173,-171.2999 350.3146,-171.4545 338.4904,-175.4951 329.1905,-178.2657 303.3826,-183.6858 286.1994,-188.0132 284.5374,-188.5654 284.0334,-188.3989 278.0235,-186.6557 266.03,-184.1402 252.6037,-182.4139 252.6293,-178.624 247.4961,-114.0567 249.7409,-111.5431 247.9712,-109.6659 243.7797,-107.4535 243.7797,-107.4535 247.9712,-109.6659 249.7409,-111.5431 247.4961,-114.0567 252.6293,-178.624 252.6037,-182.4139 247.9017,-182.3829 237.8535,-181.8952 236.7093,-181.9329 234.2488,-182.1143 233.8602,-182.1267 227.7949,-182.0663 226.6751,-182.0083 226.6615,-182.0081 217.9403,-182.2671 214.5713,-182.226 213.4393,-182.165 210.9246,-182.2336 208.1278,-182.0767 205.1745,-182.0309 201.9642,-182.1117 199.1138,-182.0643 192.1564,-182.2317 188.1357,-181.9926 186.5348,-182.0274 182.4588,-182.2815 147.0028,-181.5368 112.9529,-215.7408 110.8629,-216.1124 97.7301,-217.9691 88.9152,-218.5652 83.6737,-218.7265 82.8887,-218.6931 74.1867,-218.9793 73.6057,-218.977 71.0084,-218.871 72.0288,-141.9877 71.939,-141.9623 71.6844,-66.1124 77.5019,-138.3694 82.1318,-135.227 84.1122,-26.8931 96.7976,-38.8176 113.5313,-55.5925 113.5313,-55.5925 96.7976,-38.8176 84.1122,-26.8931 82.1318,-135.227 77.5019,-138.3694 71.6844,-66.1124 71.939,-141.9623 72.0288,-141.9877 71.0084,-218.871 66.0434,-218.8563 64.3248,-218.7243 53.4878,-218.7139 53.4611,-218.7129 43.136,-219.1043 31.3805,-220.4391 32.8098,-170.7817 32.8098,-170.7817 31.3805,-220.4391 -104.1244,-246.024 -118.6851,-232.9901 -119.4802,-223.0836 -119.4802,-223.0836"/>
<polygon fill="#d8d6da" stroke="#d8d6da" points="1841.0031,-341.868 1837.6372,-381.3503 1834.3767,-463.9742 1718.7217,-520.2383 1698.8491,-518.7109 1692.8153,-518.4692 1690.2198,-517.4525 1688.8737,-446.9809 1687.3503,-419.9032 1687.5835,-368.2383 1687.5835,-368.2383 1687.3503,-419.9032 1688.8737,-446.9809 1690.2198,-517.4525 1677.0114,-513.1066 1667.2277,-510.2975 1657.7498,-507.7758 1658.6144,-418.6883 1661.9335,-373.0494 1666.7784,-373.0494 1671.6699,-370.3389 1673.3997,-368.3753 1672.5173,-367.3704 1672.5173,-367.3704 1673.3997,-368.3753 1671.6699,-370.3389 1666.7784,-373.0494 1661.9335,-373.0494 1658.6144,-418.6883 1657.7498,-507.7758 1652.3182,-506.5602 1638.3079,-503.7193 1639.6274,-438.362 1639.5685,-435.7203 1641.0482,-368.3161 1640.983,-368.2968 1635.5955,-368.2968 1636.48,-261.8827 1635.3534,-263.2245 1538.0012,-285.9919 1535.1857,-288.8723 1533.223,-289.5475 1531.2311,-291.0644 1528.679,-291.0644 1528.458,-291.1269 1523.2833,-291.1269 1522.7274,-290.9651 1523.5443,-237.0265 1514.2128,-238.7155 1513.4948,-238.8021 1512.4366,-287.8639 1516.474,-291.4669 1513.3242,-294.0861 1513.3242,-294.0861 1516.474,-291.4669 1512.4366,-287.8639 1513.4948,-238.8021 1514.2128,-238.7155 1523.5443,-237.0265 1522.7274,-290.9651 1523.2833,-291.1269 1528.458,-291.1269 1528.679,-291.0644 1531.2311,-291.0644 1533.223,-289.5475 1535.1857,-288.8723 1538.0012,-285.9919 1635.3534,-263.2245 1629.3259,-270.8896 1628.5581,-318.1357 1628.5581,-318.1357 1629.3259,-270.8896 1635.3534,-263.2245 1636.48,-261.8827 1635.5955,-368.2968 1640.983,-368.2968 1641.0482,-368.3161 1639.5685,-435.7203 1639.6274,-438.362 1638.3079,-503.7193 1627.8147,-502.2569 1627.7764,-502.2524 1588.1316,-498.3963 1502.9921,-476.1071 1489.606,-453.6975 1488.0933,-452.8582 1466.0925,-441.6071 1364.3082,-391.8752 1321.1183,-398.0223 1319.3525,-398.3053 1307.7407,-400.3749 1295.6622,-402.7435 1294.3251,-403.0771 1292.4509,-402.5343 1277.4913,-398.4756 1279.3346,-290.5382 1282.7813,-252.0532 1287.1733,-250.8944 1291.2813,-247.5822 1291.4934,-247.2766 1287.3214,-243.7401 1282.5134,-242.3879 1282.5134,-242.3879 1287.3214,-243.7401 1291.4934,-247.2766 1291.2813,-247.5822 1287.1733,-250.8944 1282.7813,-252.0532 1279.3346,-290.5382 1277.4913,-398.4756 1265.403,-395.6455 1246.032,-392.5439 1185.9197,-385.153 1125.6349,-347.0224 1122.7914,-286.1121 1120.8293,-258.65 1120.8453,-250.2742 1119.8048,-204.1363 1117.4371,-153.4195 1204.6799,-101.4927 1213.6708,-98.6307 1249.4581,-95.4897 1253.8167,-95.0305 1267.6941,-92.8335 1284.54,-89.5713 1296.4226,-79.767 1392.8127,-50.8564 1410.0925,-47.8287 1410.328,-73.7554 1409.5555,-124.7951 1409.5555,-124.7951 1410.328,-73.7554 1410.0925,-47.8287 1420.4226,-45.3923 1421.4392,-186.8265 1420.3782,-187.1241 1424.2859,-222.4323 1427.1567,-187.0202 1430.7109,-187.0202 1430.7109,-187.0202 1427.1567,-187.0202 1424.2859,-222.4323 1420.3782,-187.1241 1421.4392,-186.8265 1420.4226,-45.3923 1425.8405,-44.0049 1437.1951,-40.8678 1447.8938,-37.2651 1462.5806,-31.7247 1466.5177,-30.0821 1477.0687,-25.2506 1494.5199,-16.5494 1495.1484,-16.2236 1498.1747,-16.5528 1524.7264,-18.1862 1654.4541,-151.5024 1659.2134,-163.835 1666.322,-181.2393 1679.396,-196.2059 1688.9135,-199.6151 1712.4795,-206.3663 1713.1259,-206.5397 1846.5183,-290.6597 1841.0031,-341.868 1841.0031,-341.868"/>
<polyline fill="none" stroke="#000000" points="774.0256,-470.3614 777.4601,-469.2909 791.3675,-465.5379 862.8229,-449.2653 918.3806,-411.8624 925.9385,-411.8974 936.6493,-410.4562 953.6035,-408.4712 960.7541,-407.8863 970.2682,-407.276 983.9932,-406.8801 985.9236,-406.9606 1001.2144,-400.0998 1125.6349,-347.0224 1122.7914,-286.1121 1120.8293,-258.65 1120.8453,-250.2742 1119.8048,-204.1363 1117.4371,-153.4195 999.8098,-103.4569 989.3241,-98.7936 985.2855,-96.7557 970.5899,-101.3519 966.9866,-102.349 963.7849,-103.4858 955.763,-106.0339 935.6359,-111.676 838.0646,-137.1624 798.498,-110.9806 777.7806,-99.485 709.3752,-97.954 705.0012,-97.7728 692.8425,-96.5723 678.2066,-94.5668 662.615,-91.8356 660.441,-91.3726 639.0607,-86.0025 517.5477,-208.3845 515.3265,-210.5251 515.864,-234.5262 515.8328,-234.5601 507.8756,-242.2606 499.1921,-251.4848 494.2314,-256.5223 483.1484,-267.2608 482.8332,-267.5508 467.684,-282.3199 451.1297,-324.9661 442.0393,-352.5713 437.2202,-377.0067 433.6374,-388.0289 419.7116,-423.9038 406.3943,-429.5702 405.6909,-484.2321 406.1804,-493.6103 406.0296,-505.1326 405.6165,-508.011 403.8717,-643.5978 395.8063,-651.2851 396.6099,-672.6775 397.1277,-705.1307 397.0745,-714.3 398.2226,-733.6088 400.4869,-793.8895 466.5565,-843.1299 472.3075,-845.9388 537.9139,-853.3573 540.082,-853.6414 553.8999,-855.9509 564.8278,-857.9736 573.2368,-859.982 587.5791,-863.665 597.3999,-866.8893 606.5745,-870.0663 610.8396,-871.6959 620.8477,-869.4907 699.9095,-821.0269 728.7371,-762.5941 734.8969,-716.627 742.1168,-677.312 744.0809,-667.8419 687.0898,-546.6089 688.0584,-542.2258 697.6129,-502.4693 740.4246,-482.8578 756.136,-476.3159 774.0256,-470.3614 "/>
<polyline fill="none" stroke="#000000" points="363.3276,-165.3476 369.4351,-161.9334 380.141,-155.4766 388.3084,-150.2047 383.1692,-135.7147 393.2106,-79.7659 394.7897,-65.4347 396.3009,-57.3359 396.8414,-52.4847 397.1269,-44.9387 398.5457,-32.0395 420.707,91.4391 442.5106,88.2341 461.5944,86.4785 468.5506,85.9668 474.2409,85.7578 483.2915,85.9239 497.5013,86.4462 507.229,86.9821 594.7886,22.9639 620.0055,-41.7909 633.5762,-74.3102 639.0607,-86.0025 517.5477,-208.3845 515.3265,-210.5251 515.864,-234.5262 515.8328,-234.5601 507.8756,-242.2606 499.1921,-251.4848 494.2314,-256.5223 483.1484,-267.2608 482.8332,-267.5508 467.684,-282.3199 451.1297,-324.9661 442.0393,-352.5713 437.2202,-377.0067 433.6374,-388.0289 419.7116,-423.9038 406.3943,-429.5702 405.6909,-484.2321 406.1804,-493.6103 406.0296,-505.1326 405.6165,-508.011 403.8717,-643.5978 395.8063,-651.2851 396.6099,-672.6775 397.1277,-705.1307 397.0745,-714.3 398.2226,-733.6088 400.4869,-793.8895 259.3511,-858.5162 256.74,-859.7731 237.241,-869.622 236.8075,-869.3613 235.619,-868.7032 235.0644,-868.4215 219.4419,-860.8353 208.42,-855.7388 78.7245,-801.8464 20.0987,-728.4772 20.0516,-726.6713 19.2694,-708.101 16.2597,-667.5183 52.4969,-610.1079 10.415,-455.9699 4.6098,-436.5805 1.1827,-426.036 -50.8984,-387.2624 -71.9951,-327.0421 -90.4864,-278.0492 -104.1244,-246.024 31.3805,-220.4391 43.136,-219.1043 53.4611,-218.7129 53.4878,-218.7139 64.3248,-218.7243 66.0434,-218.8563 71.0084,-218.871 73.6057,-218.977 74.1867,-218.9793 82.8887,-218.6931 83.6737,-218.7265 88.9152,-218.5652 97.7301,-217.9691 110.8629,-216.1124 112.9529,-215.7408 147.0028,-181.5368 182.4588,-182.2815 186.5348,-182.0274 188.1357,-181.9926 192.1564,-182.2317 199.1138,-182.0643 201.9642,-182.1117 205.1745,-182.0309 208.1278,-182.0767 210.9246,-182.2336 213.4393,-182.165 214.5713,-182.226 217.9403,-182.2671 226.6615,-182.0081 226.6751,-182.0083 227.7949,-182.0663 233.8602,-182.1267 234.2488,-182.1143 236.7093,-181.9329 237.8535,-181.8952 247.9017,-182.3829 252.6037,-182.4139 266.03,-184.1402 278.0235,-186.6557 284.0334,-188.3989 284.5374,-188.5654 286.1994,-188.0132 303.3826,-183.6858 329.1905,-178.2657 338.4904,-175.4951 350.3146,-171.4545 350.7173,-171.2999 363.3276,-165.3476 "/>
<polyline fill="none" stroke="#000000" points="214.8833,130.3574 201.6215,129.6297 185.324,129.3369 185.1918,129.2671 108.8214,90.8012 47.3675,12.4031 45.0425,11.8895 41.8458,11.3018 32.4404,9.7455 32.1328,9.7003 .3329,5.6112 -115.8792,-93.0013 -115.5881,-118.1601 -115.9162,-153.3099 -119.4802,-223.0836 -118.6851,-232.9901 -104.1244,-246.024 31.3805,-220.4391 43.136,-219.1043 53.4611,-218.7129 53.4878,-218.7139 64.3248,-218.7243 66.0434,-218.8563 71.0084,-218.871 73.6057,-218.977 74.1867,-218.9793 82.8887,-218.6931 83.6737,-218.7265 88.9152,-218.5652 97.7301,-217.9691 110.8629,-216.1124 112.9529,-215.7408 147.0028,-181.5368 182.4588,-182.2815 186.5348,-182.0274 188.1357,-181.9926 192.1564,-182.2317 199.1138,-182.0643 201.9642,-182.1117 205.1745,-182.0309 208.1278,-182.0767 210.9246,-182.2336 213.4393,-182.165 214.5713,-182.226 217.9403,-182.2671 226.6615,-182.0081 226.6751,-182.0083 227.7949,-182.0663 233.8602,-182.1267 234.2488,-182.1143 236.7093,-181.9329 237.8535,-181.8952 247.9017,-182.3829 252.6037,-182.4139 266.03,-184.1402 278.0235,-186.6557 284.0334,-188.3989 284.5374,-188.5654 286.1994,-188.0132 303.3826,-183.6858 329.1905,-178.2657 338.4904,-175.4951 350.3146,-171.4545 350.7173,-171.2999 363.3276,-165.3476 369.4351,-161.9334 380.141,-155.4766 388.3084,-150.2047 383.1692,-135.7147 393.2106,-79.7659 394.7897,-65.4347 396.3009,-57.3359 396.8414,-52.4847 397.1269,-44.9387 398.5457,-32.0395 420.707,91.4391 359.1062,120.6373 338.1444,130.9993 337.8252,131.176 320.6697,148.5478 235.3855,132.8672 231.874,132.2866 230.3068,132.0564 214.8833,130.3574 "/>
<polyline fill="none" stroke="#000000" points="1462.5806,-31.7247 1447.8938,-37.2651 1437.1951,-40.8678 1425.8405,-44.0049 1420.4226,-45.3923 1410.0925,-47.8287 1392.8127,-50.8564 1296.4226,-79.767 1284.54,-89.5713 1267.6941,-92.8335 1253.8167,-95.0305 1249.4581,-95.4897 1213.6708,-98.6307 1204.6799,-101.4927 1117.4371,-153.4195 1119.8048,-204.1363 1120.8453,-250.2742 1120.8293,-258.65 1122.7914,-286.1121 1125.6349,-347.0224 1185.9197,-385.153 1246.032,-392.5439 1265.403,-395.6455 1277.4913,-398.4756 1292.4509,-402.5343 1294.3251,-403.0771 1295.6622,-402.7435 1307.7407,-400.3749 1319.3525,-398.3053 1321.1183,-398.0223 1364.3082,-391.8752 1466.0925,-441.6071 1488.0933,-452.8582 1489.606,-453.6975 1502.9921,-476.1071 1588.1316,-498.3963 1627.7764,-502.2524 1627.8147,-502.2569 1638.3079,-503.7193 1652.3182,-506.5602 1657.7498,-507.7758 1667.2277,-510.2975 1677.0114,-513.1066 1690.2198,-517.4525 1692.8153,-518.4692 1698.8491,-518.7109 1718.7217,-520.2383 1834.3767,-463.9742 1837.6372,-381.3503 1841.0031,-341.868 1846.5183,-290.6597 1713.1259,-206.5397 1712.4795,-206.3663 1688.9135,-199.6151 1679.396,-196.2059 1666.322,-181.2393 1659.2134,-163.835 1654.4541,-151.5024 1524.7264,-18.1862 1498.1747,-16.5528 1495.1484,-16.2236 1494.5199,-16.5494 1477.0687,-25.2506 1466.5177,-30.0821 1462.5806,-31.7247 "/>
<!-- filesystem&#45;&gt;setup -->
<g id="edge1" class="edge">
<title>filesystem&#45;&gt;setup</title>
<path fill="none" stroke="#444444" stroke-opacity="0.333333" d="M820.4328,-307.849C847.1814,-299.1185 879.4579,-288.5838 907.27,-279.5062"/>
<polygon fill="#444444" fill-opacity="0.333333" stroke="#444444" stroke-opacity="0.333333" points="908.4845,-282.7916 916.905,-276.3615 906.3125,-276.1371 908.4845,-282.7916"/>
</g>
<!-- filesystem&#45;&gt;bash -->
<g id="edge2" class="edge">
<title>filesystem&#45;&gt;bash</title>
<path fill="none" stroke="#444444" stroke-opacity="0.333333" d="M708.0421,-332.3706C666.9022,-339.8773 611.6012,-351.7757 570.1363,-362.0211"/>
<polygon fill="#444444" fill-opacity="0.333333" stroke="#444444" stroke-opacity="0.333333" points="569.0259,-358.6911 560.1775,-364.5182 570.7285,-365.4809 569.0259,-358.6911"/>
</g>
<!-- setup&#45;&gt;setup -->
<g id="edge3" class="edge">
<title>setup&#45;&gt;setup</title>
<path fill="none" stroke="#444444" stroke-opacity="0.333333" d="M1025.1773,-265.0997C1035.6986,-264.3507 1043.17,-262.2008 1043.17,-258.65 1043.17,-256.3753 1040.1037,-254.6755 1035.1336,-253.5506"/>
<polygon fill="#444444" fill-opacity="0.333333" stroke="#444444" stroke-opacity="0.333333" points="1035.5569,-250.0761 1025.1773,-252.2003 1034.6162,-257.0126 1035.5569,-250.0761"/>
</g>
<!-- setup&#45;&gt;fedora&#45;release -->
<g id="edge4" class="edge">
<title>setup&#45;&gt;fedora&#45;release</title>
<path fill="none" stroke="#444444" stroke-opacity="0.333333" d="M1025.3821,-256.6416C1072.3551,-254.9014 1141.1615,-252.3524 1195.7633,-250.3296"/>
<polygon fill="#444444" fill-opacity="0.333333" stroke="#444444" stroke-opacity="0.333333" points="1195.9214,-253.8262 1205.7849,-249.9583 1195.6622,-246.831 1195.9214,-253.8262"/>
</g>
<!-- bash&#45;&gt;filesystem -->
<g id="edge5" class="edge">
<title>bash&#45;&gt;filesystem</title>
<path fill="none" stroke="#444444" stroke-opacity="0.333333" d="M560.0622,-375.6868C599.5168,-368.7555 655.5557,-356.8753 699.1044,-346.3235"/>
<polygon fill="#444444" fill-opacity="0.333333" stroke="#444444" stroke-opacity="0.333333" points="700.1626,-349.6678 709.04,-343.8849 698.4939,-342.8695 700.1626,-349.6678"/>
</g>
<!-- bash&#45;&gt;bash -->
<g id="edge6" class="edge">
<title>bash&#45;&gt;bash</title>
<path fill="none" stroke="#444444" stroke-opacity="0.333333" d="M560.2041,-387.1821C570.5319,-386.5188 577.99,-384.3414 577.99,-380.65 577.99,-378.3429 575.0767,-376.6272 570.3703,-375.5029"/>
<polygon fill="#444444" fill-opacity="0.333333" stroke="#444444" stroke-opacity="0.333333" points="570.5851,-371.9999 560.2041,-374.1179 569.6401,-378.9358 570.5851,-371.9999"/>
</g>
<!-- bash&#45;&gt;glibc -->
<g id="edge7" class="edge">
<title>bash&#45;&gt;glibc</title>
<path fill="none" stroke="#444444" stroke-opacity="0.333333" d="M489.0309,-362.4199C461.1942,-339.8248 413.6457,-301.2295 382.6205,-276.0463"/>
<polygon fill="#444444" fill-opacity="0.333333" stroke="#444444" stroke-opacity="0.333333" points="384.6948,-273.2221 374.7249,-269.6374 380.2833,-278.6571 384.6948,-273.2221"/>
</g>
<!-- bash&#45;&gt;ncurses&#45;libs -->
<g id="edge8" class="edge">
<title>bash&#45;&gt;ncurses&#45;libs</title>
<path fill="none" stroke="#444444" stroke-opacity="0.333333" d="M508.0062,-398.711C504.202,-418.4336 498.0614,-450.2688 493.6292,-473.2467"/>
<polygon fill="#444444" fill-opacity="0.333333" stroke="#444444" stroke-opacity="0.333333" points="490.185,-472.6236 491.7276,-483.1055 497.0583,-473.9494 490.185,-472.6236"/>
</g>
<!-- fedora&#45;release&#45;&gt;fedora&#45;release&#45;common -->
<g id="edge30" class="edge">
<title>fedora&#45;release&#45;&gt;fedora&#45;release&#45;common</title>
<path fill="none" stroke="#444444" stroke-opacity="0.333333" d="M1358.9209,-234.4714C1381.5586,-227.089 1405.0722,-218.0646 1423.0947,-209.6269"/>
<polygon fill="#444444" fill-opacity="0.333333" stroke="#444444" stroke-opacity="0.333333" points="1425.0644,-212.5593 1432.5019,-205.0138 1421.9823,-206.2743 1425.0644,-212.5593"/>
</g>
<!-- glibc&#45;&gt;glibc -->
<g id="edge9" class="edge">
<title>glibc&#45;&gt;glibc</title>
<path fill="none" stroke="#444444" stroke-opacity="0.333333" d="M405.6372,-257.9497C416.0123,-257.2007 423.38,-255.0508 423.38,-251.5 423.38,-249.2808 420.502,-247.6087 415.8105,-246.484"/>
<polygon fill="#444444" fill-opacity="0.333333" stroke="#444444" stroke-opacity="0.333333" points="416.0278,-242.9801 405.6372,-245.0503 415.0509,-249.9116 416.0278,-242.9801"/>
</g>
<!-- glibc&#45;&gt;basesystem -->
<g id="edge10" class="edge">
<title>glibc&#45;&gt;basesystem</title>
<path fill="none" stroke="#444444" stroke-opacity="0.333333" d="M405.728,-249.5495C461.6443,-247.5051 549.8472,-244.2802 612.0227,-242.007"/>
<polygon fill="#444444" fill-opacity="0.333333" stroke="#444444" stroke-opacity="0.333333" points="612.2892,-245.4997 622.1546,-241.6365 612.0334,-238.5043 612.2892,-245.4997"/>
</g>
<!-- glibc&#45;&gt;glibc&#45;common -->
<g id="edge11" class="edge">
<title>glibc&#45;&gt;glibc&#45;common</title>
<path fill="none" stroke="#444444" stroke-opacity="0.333333" d="M346.2755,-269.7116C337.0815,-312.675 323.2268,-420.5766 320.0528,-471.997"/>
<polygon fill="#444444" fill-opacity="0.333333" stroke="#444444" stroke-opacity="0.333333" points="316.5531,-471.9044 319.5432,-482.0685 323.5442,-472.2582 316.5531,-471.9044"/>
</g>
<!-- glibc&#45;&gt;glibc&#45;minimal&#45;langpack -->
<g id="edge12" class="edge">
<title>glibc&#45;&gt;glibc&#45;minimal&#45;langpack</title>
<path fill="none" stroke="#444444" stroke-opacity="0.333333" d="M332.8344,-269.526C303.4138,-302.6583 248.826,-373.0966 222.4517,-411.8233"/>
<polygon fill="#444444" fill-opacity="0.333333" stroke="#444444" stroke-opacity="0.333333" points="219.3097,-410.227 216.6801,-420.4903 225.1361,-414.107 219.3097,-410.227"/>
</g>
<!-- glibc&#45;&gt;libgcc -->
<g id="edge13" class="edge">
<title>glibc&#45;&gt;libgcc</title>
<path fill="none" stroke="#444444" stroke-opacity="0.333333" d="M363.3079,-233.4184C383.4754,-200.0489 426.6308,-128.6431 450.1891,-89.6632"/>
<polygon fill="#444444" fill-opacity="0.333333" stroke="#444444" stroke-opacity="0.333333" points="453.2781,-91.3186 455.4552,-80.9498 447.2873,-87.6979 453.2781,-91.3186"/>
</g>
<!-- ncurses&#45;libs&#45;&gt;glibc -->
<g id="edge14" class="edge">
<title>ncurses&#45;libs&#45;&gt;glibc</title>
<path fill="none" stroke="#444444" stroke-opacity="0.333333" d="M478.2314,-482.9223C454.5246,-439.3291 394.7769,-329.4617 366.9989,-278.382"/>
<polygon fill="#444444" fill-opacity="0.333333" stroke="#444444" stroke-opacity="0.333333" points="370.0523,-276.6706 362.2001,-269.5577 363.9028,-280.0148 370.0523,-276.6706"/>
</g>
<!-- ncurses&#45;libs&#45;&gt;ncurses&#45;libs -->
<g id="edge15" class="edge">
<title>ncurses&#45;libs&#45;&gt;ncurses&#45;libs</title>
<path fill="none" stroke="#444444" stroke-opacity="0.333333" d="M562.5801,-507.3474C573.1364,-506.3677 580.22,-504.3486 580.22,-501.29 580.22,-499.3784 577.453,-497.8728 572.8005,-496.7732"/>
<polygon fill="#444444" fill-opacity="0.333333" stroke="#444444" stroke-opacity="0.333333" points="572.9902,-493.2624 562.5801,-495.2326 571.9467,-500.1842 572.9902,-493.2624"/>
</g>
<!-- ncurses&#45;libs&#45;&gt;ncurses&#45;base -->
<g id="edge16" class="edge">
<title>ncurses&#45;libs&#45;&gt;ncurses&#45;base</title>
<path fill="none" stroke="#444444" stroke-opacity="0.333333" d="M495.9221,-519.6276C510.9217,-555.3393 544.1231,-634.3867 561.7697,-676.4006"/>
<polygon fill="#444444" fill-opacity="0.333333" stroke="#444444" stroke-opacity="0.333333" points="558.5971,-677.8854 565.6966,-685.7498 565.051,-675.1746 558.5971,-677.8854"/>
</g>
<!-- basesystem&#45;&gt;filesystem -->
<g id="edge34" class="edge">
<title>basesystem&#45;&gt;filesystem</title>
<path fill="none" stroke="#444444" stroke-opacity="0.333333" d="M701.562,-257.7044C713.1061,-270.0583 728.4932,-286.5249 741.2511,-300.1776"/>
<polygon fill="#444444" fill-opacity="0.333333" stroke="#444444" stroke-opacity="0.333333" points="739.0251,-302.9218 748.4099,-307.8386 744.1396,-298.1425 739.0251,-302.9218"/>
</g>
<!-- basesystem&#45;&gt;setup -->
<g id="edge35" class="edge">
<title>basesystem&#45;&gt;setup</title>
<path fill="none" stroke="#444444" stroke-opacity="0.333333" d="M746.6405,-243.5456C793.9055,-246.7252 858.7152,-251.085 906.5586,-254.3035"/>
<polygon fill="#444444" fill-opacity="0.333333" stroke="#444444" stroke-opacity="0.333333" points="906.5901,-257.8135 916.8025,-254.9926 907.06,-250.8292 906.5901,-257.8135"/>
</g>
<!-- glibc&#45;common&#45;&gt;bash -->
<g id="edge36" class="edge">
<title>glibc&#45;common&#45;&gt;bash</title>
<path fill="none" stroke="#444444" stroke-opacity="0.333333" d="M349.9059,-481.9496C383.0134,-461.194 437.3398,-427.1359 473.7481,-404.311"/>
<polygon fill="#444444" fill-opacity="0.333333" stroke="#444444" stroke-opacity="0.333333" points="475.981,-407.0422 482.5946,-398.765 472.2628,-401.1113 475.981,-407.0422"/>
</g>
<!-- glibc&#45;common&#45;&gt;glibc -->
<g id="edge37" class="edge">
<title>glibc&#45;common&#45;&gt;glibc</title>
<path fill="none" stroke="#444444" stroke-opacity="0.333333" d="M327.0745,-481.8784C336.2685,-438.915 350.1232,-331.0134 353.2972,-279.593"/>
<polygon fill="#444444" fill-opacity="0.333333" stroke="#444444" stroke-opacity="0.333333" points="356.7969,-279.6856 353.8068,-269.5215 349.8058,-279.3318 356.7969,-279.6856"/>
</g>
<!-- glibc&#45;common&#45;&gt;tzdata -->
<g id="edge38" class="edge">
<title>glibc&#45;common&#45;&gt;tzdata</title>
<path fill="none" stroke="#444444" stroke-opacity="0.333333" d="M313.4876,-518.3534C298.0731,-555.9781 262.7008,-642.3171 244.4938,-686.7578"/>
<polygon fill="#444444" fill-opacity="0.333333" stroke="#444444" stroke-opacity="0.333333" points="241.2258,-685.5024 240.6734,-696.0828 247.7033,-688.1562 241.2258,-685.5024"/>
</g>
<!-- glibc&#45;minimal&#45;langpack&#45;&gt;glibc -->
<g id="edge39" class="edge">
<title>glibc&#45;minimal&#45;langpack&#45;&gt;glibc</title>
<path fill="none" stroke="#444444" stroke-opacity="0.333333" d="M227.2156,-420.574C256.6362,-387.4417 311.224,-317.0034 337.5983,-278.2767"/>
<polygon fill="#444444" fill-opacity="0.333333" stroke="#444444" stroke-opacity="0.333333" points="340.7403,-279.873 343.3699,-269.6097 334.9139,-275.993 340.7403,-279.873"/>
</g>
<!-- glibc&#45;minimal&#45;langpack&#45;&gt;glibc&#45;common -->
<g id="edge40" class="edge">
<title>glibc&#45;minimal&#45;langpack&#45;&gt;glibc&#45;common</title>
<path fill="none" stroke="#444444" stroke-opacity="0.333333" d="M241.0509,-456.7164C252.8167,-463.102 266.2033,-470.3671 278.6113,-477.1012"/>
<polygon fill="#444444" fill-opacity="0.333333" stroke="#444444" stroke-opacity="0.333333" points="276.9776,-480.1967 287.4361,-481.8906 280.3166,-474.0444 276.9776,-480.1967"/>
</g>
<!-- libacl&#45;&gt;glibc -->
<g id="edge17" class="edge">
<title>libacl&#45;&gt;glibc</title>
<path fill="none" stroke="#444444" stroke-opacity="0.333333" d="M226.7844,-36.3224C250.6695,-77.2436 308.453,-176.2416 336.5339,-224.3516"/>
<polygon fill="#444444" fill-opacity="0.333333" stroke="#444444" stroke-opacity="0.333333" points="333.6714,-226.3906 341.7352,-233.2628 339.717,-222.8619 333.6714,-226.3906"/>
</g>
<!-- libacl&#45;&gt;libattr -->
<g id="edge18" class="edge">
<title>libacl&#45;&gt;libattr</title>
<path fill="none" stroke="#444444" stroke-opacity="0.333333" d="M267.2759,-31.6799C267.4334,-31.722 267.5909,-31.764 267.7484,-31.8061"/>
<polygon fill="#444444" fill-opacity="0.333333" stroke="#444444" stroke-opacity="0.333333" points="264.2856,-34.5034 274.8503,-33.7042 266.0931,-27.7408 264.2856,-34.5034"/>
</g>
<!-- libattr&#45;&gt;glibc -->
<g id="edge19" class="edge">
<title>libattr&#45;&gt;glibc</title>
<path fill="none" stroke="#444444" stroke-opacity="0.333333" d="M329.7991,-65.8788C334.1341,-101.5141 343.8096,-181.0489 348.9756,-223.5151"/>
<polygon fill="#444444" fill-opacity="0.333333" stroke="#444444" stroke-opacity="0.333333" points="345.5038,-223.9595 350.1859,-233.4637 352.4526,-223.1142 345.5038,-223.9595"/>
</g>
<!-- libattr&#45;&gt;libattr -->
<g id="edge20" class="edge">
<title>libattr&#45;&gt;libattr</title>
<path fill="none" stroke="#444444" stroke-opacity="0.333333" d="M380.1752,-54.2735C390.6386,-53.5451 398.1,-51.3879 398.1,-47.802 398.1,-45.5048 395.0379,-43.7939 390.086,-42.6694"/>
<polygon fill="#444444" fill-opacity="0.333333" stroke="#444444" stroke-opacity="0.333333" points="390.5538,-39.2009 380.1752,-41.3305 389.6166,-46.1379 390.5538,-39.2009"/>
</g>
<!-- libcap&#45;&gt;glibc -->
<g id="edge21" class="edge">
<title>libcap&#45;&gt;glibc</title>
<path fill="none" stroke="#444444" stroke-opacity="0.333333" d="M105.0272,-159.608C156.8383,-178.8559 238.9268,-209.3519 294.177,-229.8775"/>
<polygon fill="#444444" fill-opacity="0.333333" stroke="#444444" stroke-opacity="0.333333" points="293.2333,-233.2606 303.8263,-233.4622 295.6711,-226.6987 293.2333,-233.2606"/>
</g>
<!-- libcap&#45;&gt;libcap -->
<g id="edge22" class="edge">
<title>libcap&#45;&gt;libcap</title>
<path fill="none" stroke="#444444" stroke-opacity="0.333333" d="M113.0255,-147.9835C123.5723,-147.195 131,-145.0605 131,-141.58 131,-139.3503 127.9517,-137.673 122.9878,-136.5481"/>
<polygon fill="#444444" fill-opacity="0.333333" stroke="#444444" stroke-opacity="0.333333" points="123.4095,-133.0732 113.0255,-135.1765 122.4546,-140.0078 123.4095,-133.0732"/>
</g>
<!-- libselinux&#45;&gt;glibc -->
<g id="edge23" class="edge">
<title>libselinux&#45;&gt;glibc</title>
<path fill="none" stroke="#444444" stroke-opacity="0.333333" d="M278.2217,-252.1053C281.7068,-252.0769 285.204,-252.0483 288.6792,-252.02"/>
<polygon fill="#444444" fill-opacity="0.333333" stroke="#444444" stroke-opacity="0.333333" points="289.033,-255.5173 299.0041,-251.9357 288.9758,-248.5175 289.033,-255.5173"/>
</g>
<!-- libselinux&#45;&gt;libsepol -->
<g id="edge24" class="edge">
<title>libselinux&#45;&gt;libsepol</title>
<path fill="none" stroke="#444444" stroke-opacity="0.333333" d="M241.3208,-270.7097C264.9996,-285.0449 298.2785,-305.1921 323.9689,-320.7452"/>
<polygon fill="#444444" fill-opacity="0.333333" stroke="#444444" stroke-opacity="0.333333" points="322.3441,-323.853 332.7112,-326.0378 325.9694,-317.8648 322.3441,-323.853"/>
</g>
<!-- libselinux&#45;&gt;pcre2 -->
<g id="edge25" class="edge">
<title>libselinux&#45;&gt;pcre2</title>
<path fill="none" stroke="#444444" stroke-opacity="0.333333" d="M156.7136,-270.7528C153.0995,-271.9472 149.4421,-273.1559 145.7876,-274.3637"/>
<polygon fill="#444444" fill-opacity="0.333333" stroke="#444444" stroke-opacity="0.333333" points="144.5487,-271.0869 136.1521,-277.5481 146.7453,-277.7333 144.5487,-271.0869"/>
</g>
<!-- libsepol&#45;&gt;bash -->
<g id="edge41" class="edge">
<title>libsepol&#45;&gt;bash</title>
<path fill="none" stroke="#444444" stroke-opacity="0.333333" d="M423.518,-359.0481C433.1816,-361.4211 443.1579,-363.8708 452.7671,-366.2304"/>
<polygon fill="#444444" fill-opacity="0.333333" stroke="#444444" stroke-opacity="0.333333" points="452.0734,-369.6639 462.6196,-368.6497 453.7427,-362.8659 452.0734,-369.6639"/>
</g>
<!-- libsepol&#45;&gt;glibc -->
<g id="edge42" class="edge">
<title>libsepol&#45;&gt;glibc</title>
<path fill="none" stroke="#444444" stroke-opacity="0.333333" d="M360.4846,-325.7731C359.0597,-312.7154 357.1152,-294.8955 355.4881,-279.9835"/>
<polygon fill="#444444" fill-opacity="0.333333" stroke="#444444" stroke-opacity="0.333333" points="358.9355,-279.3102 354.3713,-269.7489 351.9768,-280.0696 358.9355,-279.3102"/>
</g>
<!-- pcre2&#45;&gt;glibc -->
<g id="edge43" class="edge">
<title>pcre2&#45;&gt;glibc</title>
<path fill="none" stroke="#444444" stroke-opacity="0.333333" d="M136.5945,-286.6464C180.848,-279.4386 242.997,-269.316 289.2383,-261.7843"/>
<polygon fill="#444444" fill-opacity="0.333333" stroke="#444444" stroke-opacity="0.333333" points="289.8397,-265.2326 299.1469,-260.1704 288.7143,-258.3236 289.8397,-265.2326"/>
</g>
<!-- pcre2&#45;&gt;pcre2 -->
<g id="edge44" class="edge">
<title>pcre2&#45;&gt;pcre2</title>
<path fill="none" stroke="#444444" stroke-opacity="0.333333" d="M136.5123,-302.057C147.0131,-301.288 154.439,-299.1456 154.439,-295.63 154.439,-293.3778 151.3914,-291.6892 146.4401,-290.5642"/>
<polygon fill="#444444" fill-opacity="0.333333" stroke="#444444" stroke-opacity="0.333333" points="146.8951,-287.0939 136.5123,-289.203 145.9441,-294.029 146.8951,-287.0939"/>
</g>
<!-- fedora&#45;release&#45;common&#45;&gt;fedora&#45;release -->
<g id="edge27" class="edge">
<title>fedora&#45;release&#45;common&#45;&gt;fedora&#45;release</title>
<path fill="none" stroke="#444444" stroke-opacity="0.333333" d="M1361.8276,-205.016C1344.2725,-211.2222 1327.0789,-218.1006 1313.1913,-224.6203"/>
<polygon fill="#444444" fill-opacity="0.333333" stroke="#444444" stroke-opacity="0.333333" points="1311.5748,-221.5148 1304.1411,-229.064 1314.6601,-227.7982 1311.5748,-221.5148"/>
</g>
<!-- fedora&#45;release&#45;common&#45;&gt;fedora&#45;release -->
<g id="edge28" class="edge">
<title>fedora&#45;release&#45;common&#45;&gt;fedora&#45;release</title>
<path fill="none" stroke="#444444" stroke-dasharray="5,2" stroke-opacity="0.333333" d="M1402.6543,-205.024C1384.0528,-211.5356 1362.878,-218.948 1343.5351,-225.7192"/>
<polygon fill="#444444" fill-opacity="0.333333" stroke="#444444" stroke-opacity="0.333333" points="1342.1913,-222.4812 1333.9093,-229.0888 1344.5041,-229.0881 1342.1913,-222.4812"/>
</g>
<!-- fedora&#45;release&#45;common&#45;&gt;fedora&#45;release&#45;common -->
<g id="edge26" class="edge">
<title>fedora&#45;release&#45;common&#45;&gt;fedora&#45;release&#45;common</title>
<path fill="none" stroke="#444444" stroke-opacity="0.333333" d="M1562.6304,-192.4837C1573.3696,-191.381 1580.2,-189.5464 1580.2,-186.98 1580.2,-185.3359 1577.3968,-183.9921 1572.5585,-182.9487"/>
<polygon fill="#444444" fill-opacity="0.333333" stroke="#444444" stroke-opacity="0.333333" points="1573.0357,-179.4813 1562.6304,-181.4763 1572.0087,-186.4055 1573.0357,-179.4813"/>
</g>
<!-- fedora&#45;release&#45;common&#45;&gt;fedora&#45;repos -->
<g id="edge29" class="edge">
<title>fedora&#45;release&#45;common&#45;&gt;fedora&#45;repos</title>
<path fill="none" stroke="#444444" stroke-opacity="0.333333" d="M1463.4667,-205.125C1471.7311,-221.3074 1483.9493,-245.2316 1493.4042,-263.745"/>
<polygon fill="#444444" fill-opacity="0.333333" stroke="#444444" stroke-opacity="0.333333" points="1490.3956,-265.5495 1498.061,-272.8634 1496.6297,-262.3657 1490.3956,-265.5495"/>
</g>
<!-- fedora&#45;repos&#45;&gt;fedora&#45;release -->
<g id="edge31" class="edge">
<title>fedora&#45;repos&#45;&gt;fedora&#45;release</title>
<path fill="none" stroke="#444444" stroke-opacity="0.333333" d="M1439.282,-277.8201C1417.0998,-273.4792 1392.1759,-268.6019 1368.8359,-264.0346"/>
<polygon fill="#444444" fill-opacity="0.333333" stroke="#444444" stroke-opacity="0.333333" points="1369.4287,-260.5842 1358.9427,-262.0986 1368.0844,-267.4539 1369.4287,-260.5842"/>
</g>
<!-- fedora&#45;repos&#45;&gt;fedora&#45;repos -->
<g id="edge32" class="edge">
<title>fedora&#45;repos&#45;&gt;fedora&#45;repos</title>
<path fill="none" stroke="#444444" stroke-opacity="0.333333" d="M1575.5292,-297.336C1586.1555,-296.4112 1593.4,-294.3492 1593.4,-291.15 1593.4,-289.1005 1590.4268,-287.5177 1585.4961,-286.4017"/>
<polygon fill="#444444" fill-opacity="0.333333" stroke="#444444" stroke-opacity="0.333333" points="1585.9265,-282.9276 1575.5292,-284.964 1584.9271,-289.8559 1585.9265,-282.9276"/>
</g>
<!-- fedora&#45;repos&#45;&gt;fedora&#45;gpg&#45;keys -->
<g id="edge33" class="edge">
<title>fedora&#45;repos&#45;&gt;fedora&#45;gpg&#45;keys</title>
<path fill="none" stroke="#444444" stroke-opacity="0.333333" d="M1544.1626,-309.2523C1566.2979,-320.152 1594.6714,-334.1234 1618.2747,-345.7459"/>
<polygon fill="#444444" fill-opacity="0.333333" stroke="#444444" stroke-opacity="0.333333" points="1616.8788,-348.9598 1627.3964,-350.2375 1619.9712,-342.6799 1616.8788,-348.9598"/>
</g>
<!-- coreutils&#45;single&#45;&gt;glibc -->
<g id="edge45" class="edge">
<title>coreutils&#45;single&#45;&gt;glibc</title>
<path fill="none" stroke="#444444" stroke-opacity="0.333333" d="M255.1872,-130.0546C274.6066,-154.3198 309.0433,-197.3495 331.28,-225.1349"/>
<polygon fill="#444444" fill-opacity="0.333333" stroke="#444444" stroke-opacity="0.333333" points="328.7781,-227.6103 337.7592,-233.2309 334.2434,-223.2364 328.7781,-227.6103"/>
</g>
<!-- coreutils&#45;single&#45;&gt;libacl -->
<g id="edge46" class="edge">
<title>coreutils&#45;single&#45;&gt;libacl</title>
<path fill="none" stroke="#444444" stroke-opacity="0.333333" d="M235.85,-93.7063C232.3279,-80.2123 227.4496,-61.5218 223.4213,-46.0885"/>
<polygon fill="#444444" fill-opacity="0.333333" stroke="#444444" stroke-opacity="0.333333" points="226.7076,-44.82 220.7955,-36.0281 219.9345,-46.5879 226.7076,-44.82"/>
</g>
<!-- coreutils&#45;single&#45;&gt;libattr -->
<g id="edge47" class="edge">
<title>coreutils&#45;single&#45;&gt;libattr</title>
<path fill="none" stroke="#444444" stroke-opacity="0.333333" d="M265.2765,-93.6248C274.3716,-86.9377 284.8242,-79.2525 294.5381,-72.1105"/>
<polygon fill="#444444" fill-opacity="0.333333" stroke="#444444" stroke-opacity="0.333333" points="296.8483,-74.7562 302.8317,-66.0127 292.7017,-69.1165 296.8483,-74.7562"/>
</g>
<!-- coreutils&#45;single&#45;&gt;libcap -->
<g id="edge48" class="edge">
<title>coreutils&#45;single&#45;&gt;libcap</title>
<path fill="none" stroke="#444444" stroke-opacity="0.333333" d="M129.2493,-129.8062C127.2051,-130.137 125.1742,-130.4657 123.1609,-130.7916"/>
<polygon fill="#444444" fill-opacity="0.333333" stroke="#444444" stroke-opacity="0.333333" points="122.5728,-127.3411 113.2604,-132.3939 123.6912,-134.2512 122.5728,-127.3411"/>
</g>
<!-- coreutils&#45;single&#45;&gt;libselinux -->
<g id="edge49" class="edge">
<title>coreutils&#45;single&#45;&gt;libselinux</title>
<path fill="none" stroke="#444444" stroke-opacity="0.333333" d="M236.8278,-129.9166C231.8766,-153.8996 223.0985,-196.4198 217.2861,-224.5744"/>
<polygon fill="#444444" fill-opacity="0.333333" stroke="#444444" stroke-opacity="0.333333" points="213.812,-224.0918 215.2178,-234.593 220.6674,-225.5071 213.812,-224.0918"/>
</g>
<!-- filesystem -->
<g id="node1" class="node">
<title>filesystem</title>
<text text-anchor="middle" x="765.25" y="-322.16" font-family="Helvetica,sans-Serif" font-weight="bold" font-size="14.00" fill="#000000">filesystem (0.0 B)</text>
</g>
<!-- setup -->
<g id="node2" class="node">
<title>setup</title>
<text text-anchor="middle" x="971.17" y="-254.95" font-family="Helvetica,sans-Serif" font-weight="bold" font-size="14.00" fill="#000000">setup (709.7 kB)</text>
</g>
<!-- bash -->
<g id="node3" class="node">
<title>bash</title>
<text text-anchor="middle" x="511.49" y="-376.95" font-family="Helvetica,sans-Serif" font-weight="bold" font-size="14.00" fill="#000000">bash (7.2 MB)</text>
</g>
<!-- fedora&#45;release -->
<g id="node4" class="node">
<title>fedora&#45;release</title>
<text text-anchor="middle" x="1282.4" y="-243.42" font-family="Helvetica,sans-Serif" font-weight="bold" font-size="14.00" fill="#000000">fedora&#45;release (691.0 B)</text>
</g>
<!-- glibc -->
<g id="node5" class="node">
<title>glibc</title>
<text text-anchor="middle" x="352.38" y="-247.8" font-family="Helvetica,sans-Serif" font-weight="bold" font-size="14.00" fill="#000000">glibc (16.5 MB)</text>
</g>
<!-- ncurses&#45;libs -->
<g id="node6" class="node">
<title>ncurses&#45;libs</title>
<text text-anchor="middle" x="488.22" y="-497.59" font-family="Helvetica,sans-Serif" font-weight="bold" font-size="14.00" fill="#000000">ncurses&#45;libs (976.2 kB)</text>
</g>
<!-- basesystem -->
<g id="node7" class="node">
<title>basesystem</title>
<text text-anchor="middle" x="684.42" y="-235.66" font-family="Helvetica,sans-Serif" font-weight="bold" font-size="14.00" fill="#000000">basesystem (0.0 B)</text>
</g>
<!-- glibc&#45;common -->
<g id="node8" class="node">
<title>glibc&#45;common</title>
<text text-anchor="middle" x="320.97" y="-496.39" font-family="Helvetica,sans-Serif" font-weight="bold" font-size="14.00" fill="#000000">glibc&#45;common (7.8 MB)</text>
</g>
<!-- glibc&#45;minimal&#45;langpack -->
<g id="node9" class="node">
<title>glibc&#45;minimal&#45;langpack</title>
<text text-anchor="middle" x="207.67" y="-433" font-family="Helvetica,sans-Serif" font-weight="bold" font-size="22.00" fill="#cc0066">glibc&#45;minimal&#45;langpack (0.0 B)</text>
</g>
<!-- libgcc -->
<g id="node10" class="node">
<title>libgcc</title>
<text text-anchor="middle" x="466.35" y="-59.223" font-family="Helvetica,sans-Serif" font-weight="bold" font-size="14.00" fill="#000000">libgcc (194.2 kB)</text>
</g>
<!-- ncurses&#45;base -->
<g id="node11" class="node">
<title>ncurses&#45;base</title>
<text text-anchor="middle" x="573.32" y="-700.2" font-family="Helvetica,sans-Serif" font-weight="bold" font-size="14.00" fill="#000000">ncurses&#45;base (278.5 kB)</text>
</g>
<!-- libacl -->
<g id="node12" class="node">
<title>libacl</title>
<text text-anchor="middle" x="216.09" y="-14.3" font-family="Helvetica,sans-Serif" font-weight="bold" font-size="14.00" fill="#000000">libacl (40.7 kB)</text>
</g>
<!-- libattr -->
<g id="node13" class="node">
<title>libattr</title>
<text text-anchor="middle" x="327.6" y="-44.102" font-family="Helvetica,sans-Serif" font-weight="bold" font-size="14.00" fill="#000000">libattr (29.0 kB)</text>
</g>
<!-- libcap -->
<g id="node14" class="node">
<title>libcap</title>
<text text-anchor="middle" x="56.5" y="-137.88" font-family="Helvetica,sans-Serif" font-weight="bold" font-size="14.00" fill="#000000">libcap (145.4 kB)</text>
</g>
<!-- libselinux -->
<g id="node15" class="node">
<title>libselinux</title>
<text text-anchor="middle" x="211.49" y="-248.95" font-family="Helvetica,sans-Serif" font-weight="bold" font-size="14.00" fill="#000000">libselinux (173.6 kB)</text>
</g>
<!-- libsepol -->
<g id="node16" class="node">
<title>libsepol</title>
<text text-anchor="middle" x="362.48" y="-340.36" font-family="Helvetica,sans-Serif" font-weight="bold" font-size="14.00" fill="#000000">libsepol (747.3 kB)</text>
</g>
<!-- pcre2 -->
<g id="node17" class="node">
<title>pcre2</title>
<text text-anchor="middle" x="81.439" y="-291.93" font-family="Helvetica,sans-Serif" font-weight="bold" font-size="14.00" fill="#000000">pcre2 (743.5 kB)</text>
</g>
<!-- fedora&#45;release&#45;common -->
<g id="node18" class="node">
<title>fedora&#45;release&#45;common</title>
<text text-anchor="middle" x="1454.2" y="-183.28" font-family="Helvetica,sans-Serif" font-weight="bold" font-size="14.00" fill="#000000">fedora&#45;release&#45;common (14.2 kB)</text>
</g>
<!-- fedora&#45;repos -->
<g id="node19" class="node">
<title>fedora&#45;repos</title>
<text text-anchor="middle" x="1507.4" y="-287.45" font-family="Helvetica,sans-Serif" font-weight="bold" font-size="14.00" fill="#000000">fedora&#45;repos (8.4 kB)</text>
</g>
<!-- fedora&#45;gpg&#45;keys -->
<g id="node20" class="node">
<title>fedora&#45;gpg&#45;keys</title>
<text text-anchor="middle" x="1664.2" y="-364.66" font-family="Helvetica,sans-Serif" font-weight="bold" font-size="14.00" fill="#000000">fedora&#45;gpg&#45;keys (103.0 kB)</text>
</g>
<!-- tzdata -->
<g id="node21" class="node">
<title>tzdata</title>
<text text-anchor="middle" x="233.21" y="-710.6" font-family="Helvetica,sans-Serif" font-weight="bold" font-size="14.00" fill="#000000">tzdata (1.8 MB)</text>
</g>
<!-- coreutils&#45;single -->
<g id="node22" class="node">
<title>coreutils&#45;single</title>
<text text-anchor="middle" x="240.57" y="-106.19" font-family="Helvetica,sans-Serif" font-weight="bold" font-size="22.00" fill="#cc0066">coreutils&#45;single (1.4 MB)</text>
</g>
</g>

<script type="text/javascript"><![CDATA[

document.addEventListener('click', function(e) {
      e = e || window.event;
      var target = e.target || e.srcElement;
      text = target.parentElement.querySelector("title").textContent;

      console.log("Clicked on: " + text);
      // reset all strokes
      var nodes = document.getElementsByClassName("edge");

      for (index = 0, len = nodes.length; index < len; ++index) {
          //var title = nodes[index].querySelector("title").textContent.split("->");
          id = nodes[index].id;
          document.getElementById(id).querySelector("path").setAttribute("stroke-width", "1");
          document.getElementById(id).querySelector("path").setAttribute("stroke-opacity", "0.5");
          document.getElementById(id).querySelector("path").setAttribute("stroke", "#444444");
          document.getElementById(id).querySelector("polygon").setAttribute("stroke-width", "1");
          document.getElementById(id).querySelector("polygon").setAttribute("stroke-opacity", "0.5");
          document.getElementById(id).querySelector("polygon").setAttribute("stroke", "#444444");
      }
      // reset text highlight
      pkgs = document.getElementsByClassName("node");
      for (index2 = 0, len2 = pkgs.length; index2 < len2; ++index2) {
          target_id = pkgs[index2].id;
          document.getElementById(target_id).querySelector("text").setAttribute("font-weight", "normal");
      }

      // highlight deps
      var nodes = document.getElementsByClassName("edge");
      for (index = 0, len = nodes.length; index < len; ++index) {
        var title = nodes[index].querySelector("title").textContent.split("->");

        if (title[0] == text) {
          id = nodes[index].id;
          //console.log("ID:   " + id);
          document.getElementById(id).querySelector("path").setAttribute("stroke-width", "3");
          document.getElementById(id).querySelector("path").setAttribute("stroke-opacity", "1");
          document.getElementById(id).querySelector("path").setAttribute("stroke", "#aa3333");
          document.getElementById(id).querySelector("polygon").setAttribute("stroke-width", "5");
          document.getElementById(id).querySelector("polygon").setAttribute("stroke-opacity", "1");
          document.getElementById(id).querySelector("polygon").setAttribute("stroke", "#aa3333");

        }
        if (title[1] == text) {
          id = nodes[index].id;
          document.getElementById(id).querySelector("path").setAttribute("stroke-width", "3");
          document.getElementById(id).querySelector("path").setAttribute("stroke-opacity", "1");
          document.getElementById(id).querySelector("path").setAttribute("stroke", "#333377");
          document.getElementById(id).querySelector("polygon").setAttribute("stroke-width", "5");
          document.getElementById(id).querySelector("polygon").setAttribute("stroke-opacity", "1");
          document.getElementById(id).querySelector("polygon").setAttribute("stroke", "#333377");
        }

        if (title[0] == text || title[1] == text) {
          pkgs = document.getElementsByClassName("node");
          for (index2 = 0, len2 = pkgs.length; index2 < len2; ++index2) {
            var pkg_name = pkgs[index2].querySelector("title").textContent;
            if (pkg_name == title[0] || pkg_name == title[1]) {
              target_id = pkgs[index2].id;
              document.getElementById(target_id).querySelector("text").setAttribute("font-weight", "bold");
            }
          }
        }
      }


  }, false);

]]></script>


  <text
     
     id="text7664"
     y="19.384439"
     x="9.9055691"
     style="font-style:normal;font-weight:normal;font-size:12.49485588px;line-height:125%;font-family:sans-serif;letter-spacing:0px;word-spacing:0px;fill:#000000;fill-opacity:1;stroke:none;stroke-width:0.3123714px;stroke-linecap:butt;stroke-linejoin:miter;stroke-opacity:1"
     xml:space="preserve"><tspan
       style="font-size:12.00258541px;stroke-width:0.3123714px"
       y="19.384439"
       x="9.9055691"
       id="tspan7666"
       ><a href="report-base-definition--minimal-langpack-base-2--rawhide.html"><tspan
   style="font-weight:bold;font-size:12.00258541px;fill:#0066ff;stroke-width:0.3123714px"
   id="tspan7668">Minimal Base 2</tspan></a> (Fedora rawhide)</tspan></text>
  <text
     xml:space="preserve"
     style="font-style:normal;font-weight:normal;font-size:11.85299969px;line-height:125%;font-family:sans-serif;letter-spacing:0px;word-spacing:0px;fill:#000000;fill-opacity:1;stroke:none;stroke-width:0.296325px;stroke-linecap:butt;stroke-linejoin:miter;stroke-opacity:1"
     x="9.9365959"
     y="36.915382"
     id="text8235"><tspan
       
       id="tspan8237"
       x="9.9365959"
       y="36.915382"
       style="font-size:10.80232716px;fill:#666666;stroke-width:0.296325px">Generated by <a href="./"><tspan
   style="fill:#3771c8"
   id="tspan8255">Feedback Pipeline</tspan></a></tspan></text>

</svg>
