<?xml version="1.0" encoding="UTF-8" standalone="no"?>
<!DOCTYPE svg PUBLIC "-//W3C//DTD SVG 1.1//EN"
 "http://www.w3.org/Graphics/SVG/1.1/DTD/svg11.dtd">
<!-- Generated by graphviz version 2.40.1 (0)
 -->
<!-- Title: packages Pages: 1 -->
<svg width="1568pt" height="821pt"
 viewBox="0.00 0.00 1881.46 985.50" xmlns="http://www.w3.org/2000/svg" xmlns:xlink="http://www.w3.org/1999/xlink">
<g id="graph0" class="graph" transform="scale(.8333 .8333) rotate(0) translate(131.634 847.2518)">
<title>packages</title>
<polygon fill="#dae2ff" stroke="transparent" points="-131.634,138.2457 -131.634,-847.2518 1749.8282,-847.2518 1749.8282,138.2457 -131.634,138.2457"/>
<polygon fill="#fbb4ae" stroke="#fbb4ae" points="390.3234,-376.3798 378.5573,-406.475 367.4336,-411.178 366.722,-461.8184 366.3802,-465.7886 366.1577,-481.1041 366.1728,-481.364 366.0512,-489.787 366.4774,-497.2289 364.808,-616.0318 357.8739,-622.5733 359.0579,-653.7997 358.8211,-683.24 360.5822,-712.0045 362.3094,-757.5573 438.7667,-809.0271 445.3942,-811.8427 490.9185,-814.26 506.8396,-815.3875 506.5267,-806.8217 506.5267,-806.8217 506.8396,-815.3875 509.8511,-815.7599 510.1551,-815.8029 513.8876,-754.3404 521.1942,-675.8521 525.0519,-677.8116 530.2246,-677.8116 534.1945,-675.8199 536.7228,-673.2104 534.2704,-670.7446 530.55,-668.9141 525.1845,-668.9141 525.1845,-668.9141 530.55,-668.9141 534.2704,-670.7446 536.7228,-673.2104 534.1945,-675.8199 541.3978,-805.6096 541.521,-704.7986 541.521,-704.7986 541.3978,-805.6096 534.1945,-675.8199 530.2246,-677.8116 525.0519,-677.8116 521.1942,-675.8521 513.8876,-754.3404 510.1551,-815.8029 525.9083,-818.593 541.6868,-821.9479 550.3233,-824.2413 572.6115,-831.351 577.0865,-832.8559 585.2114,-830.739 605.9866,-816.9417 691.4327,-710.0094 695.0953,-702.157 697.2087,-697.8868 684.138,-659.8804 671.4133,-615.7565 626.9522,-527.1957 636.205,-488.6047 640.2565,-474.1952 685.6762,-456.709 700.0815,-451.7359 716.9474,-447.257 719.6736,-446.588 732.5033,-443.9511 737.6338,-443.1024 777.9631,-437.2365 814.4078,-427.3148 858.3544,-395.6048 872.5602,-395.044 875.0779,-394.9895 887.2746,-393.0218 896.713,-391.674 910.4706,-390.2204 927.7505,-389.6762 925.9018,-310.155 921.6031,-248.3657 917.8783,-248.3657 916.6862,-248.0347 916.469,-247.7315 912.6838,-244.7252 912.6838,-244.7252 916.469,-247.7315 916.6862,-248.0347 917.8783,-248.3657 921.6031,-248.3657 925.9018,-310.155 927.7505,-389.6762 931.3797,-389.6964 931.593,-389.7016 1054.8253,-332.0424 1052.5922,-284.8571 1051.802,-248.4875 1050.9965,-231.6035 1050.9713,-231.2616 1050.8497,-230.0394 1046.9303,-147.2234 936.4507,-96.2583 931.3593,-93.6937 916.878,-98.1695 915.1255,-98.6449 909.9242,-100.4601 901.8092,-102.9733 884.3638,-107.6931 780.5583,-129.621 752.3936,-109.6918 734.6225,-99.0411 671.1934,-94.7194 647.5839,-92.6719 644.1598,-92.1859 637.6209,-91.0152 619.2666,-87.3877 597.0334,-80.9392 592.6083,-79.5755 470.7911,-202.8423 471.0485,-208.4209 471.4277,-224.6697 467.7208,-228.6197 459.8113,-236.7322 458.0319,-238.7512 454.6746,-242.2572 444.7819,-251.7432 439.5099,-257.0987 424.0891,-272.0138 405.0161,-320.7988 400.3942,-335.0235 395.9293,-358.746 395.4294,-360.6989 390.3234,-376.3798 444.7979,-370.8232 450.2159,-365.8696 450.4377,-365.7789 450.9594,-365.3694 454.3162,-365.3694 454.8237,-365.234 457.4529,-365.234 458.6146,-366.4447 464.0082,-369.4049 464.0082,-369.4049 458.6146,-366.4447 457.4529,-365.234 454.8237,-365.234 454.3162,-365.3694 450.9594,-365.3694 450.4377,-365.7789 450.2159,-365.8696 444.7979,-370.8232 445.0753,-422.5751 443.8865,-422.6402 445.4217,-475.296 440.7691,-476.5483 436.1303,-480.4007 436.188,-480.4774 439.5963,-483.1206 445.3248,-484.7287 445.3248,-484.7287 439.5963,-483.1206 436.188,-480.4774 436.1303,-480.4007 440.7691,-476.5483 439.2863,-447.7208 434.3418,-479.9153 432.3751,-479.9153 432.3751,-479.9153 434.3418,-479.9153 439.2863,-447.7208 440.7691,-476.5483 445.4217,-475.296 443.8865,-422.6402 445.0753,-422.5751 444.7979,-370.8232 390.3234,-376.3798 390.3234,-376.3798"/>
<polygon fill="#fed9a6" stroke="#fed9a6" points="46.1826,-284.2631 49.8063,-281.2898 55.4578,-279.6419 55.553,-249.0087 54.6162,-238.8364 53.8986,-208.4614 47.9591,-208.5009 44.8911,-208.6299 39.7775,-208.6527 35.4824,-208.8238 35.4321,-208.8239 34.2048,-208.7807 30.6978,-208.5255 -112.2848,-208.2244 -114.8926,-213.1934 -123.4381,-236.5081 -124.9152,-261.7007 -127.634,-289.3592 -114.1986,-326.7084 -109.106,-341.8675 -103.2619,-347.2902 4.3837,-415.731 8.6851,-429.2216 11.5126,-438.9163 46.7135,-572.077 4.383,-634.576 4.6629,-638.1735 8.6355,-704.1288 9.6419,-705.2065 97.0313,-805.8185 98.9259,-807.2191 176.185,-832.9845 190.3493,-837.9741 189.702,-777.9258 190.3698,-738.1374 194.0863,-683.4962 198.0103,-686.604 202.7959,-687.8951 202.7959,-687.8951 198.0103,-686.604 194.0863,-683.4962 190.3698,-738.1374 189.702,-777.9258 190.3493,-837.9741 199.6487,-841.7676 202.845,-843.2518 219.5126,-832.9719 223.4785,-830.7062 224.0841,-719.416 224.0841,-719.416 223.4785,-830.7062 362.3094,-757.5573 360.5822,-712.0045 358.8211,-683.24 359.0579,-653.7997 357.8739,-622.5733 364.808,-616.0318 366.4774,-497.2289 366.0512,-489.787 366.1728,-481.364 366.1577,-481.1041 366.3802,-465.7886 366.722,-461.8184 367.4336,-411.178 349.6451,-407.129 349.4499,-407.0916 338.3347,-405.3595 334.2634,-404.8725 332.6055,-404.7339 332.4798,-330.3793 332.0742,-330.2692 331.7342,-329.8081 328.4643,-327.2731 328.4643,-327.2731 331.7342,-329.8081 332.0742,-330.2692 332.4798,-330.3793 332.6055,-404.7339 334.2634,-404.8725 338.3347,-405.3595 349.4499,-407.0916 349.6451,-407.129 367.4336,-411.178 378.5573,-406.475 390.3234,-376.3798 395.4294,-360.6989 395.9293,-358.746 400.3942,-335.0235 405.0161,-320.7988 424.0891,-272.0138 439.5099,-257.0987 444.7819,-251.7432 454.6746,-242.2572 458.0319,-238.7512 459.8113,-236.7322 467.7208,-228.6197 471.4277,-224.6697 471.0485,-208.4209 470.7911,-202.8423 592.6083,-79.5755 591.8502,-77.8684 574.0837,-32.7488 555.8717,17.0528 534.5893,34.2716 465.1928,80.5674 459.015,80.5881 437.691,81.0367 436.0786,81.1561 429.7669,-59.2367 425.5889,-57.1393 420.9742,-57.1393 415.0116,-60.3247 413.8761,-61.464 415.8263,-63.5318 420.7797,-66.1821 420.7797,-66.1821 415.8263,-63.5318 413.8761,-61.464 415.0116,-60.3247 420.9742,-57.1393 425.5889,-57.1393 429.7669,-59.2367 436.0786,81.1561 420.7133,82.566 402.8121,85.1584 397.0127,86.3042 382.3868,89.4521 358.5334,-39.1183 358.2886,-48.5395 356.5237,-64.6053 356.5084,-65.1966 355.8015,-71.8436 342.5226,-143.417 339.3494,-143.7921 337.6711,-186.3419 337.6711,-186.3419 339.3494,-143.7921 327.6848,-144.5345 321.2933,-144.766 319.3612,-146.2759 305.2783,-155.4977 303.9818,-156.2355 289.6325,-163.8127 288.8062,-164.2127 253.3378,-179.8728 240.7937,-177.7732 227.5151,-176.1095 217.6939,-175.7198 214.6845,-175.7292 211.711,-175.489 211.1419,-175.4674 201.801,-175.9126 201.7569,-175.9129 195.698,-175.693 194.893,-175.6301 192.2314,-175.6493 192.1424,-175.6538 186.278,-175.4559 180.3475,-175.7627 174.8111,-175.5844 172.6419,-175.7003 162.3308,-175.3842 158.7075,-175.5837 153.5626,-175.4356 154.1483,-235.7845 101.7328,-228.7948 111.6417,-247.0569 142.2635,-245.0152 153.8706,-247.7451 159.1376,-244.5596 161.3874,-241.3981 163.3234,-241.3981 164.88,-240.9726 167.5112,-240.9726 168.2165,-241.1629 169.3268,-306.8999 173.7042,-241.251 175.9856,-241.251 177.1873,-240.0035 182.991,-236.8435 186.8605,-236.8435 192.3509,-239.885 193.6972,-241.3498 197.0436,-241.3498 198.3554,-241.7071 200.549,-241.7071 204.4024,-273.6667 207.1279,-241.4357 209.175,-241.4357 209.9457,-242.012 210.5043,-242.8701 210.5043,-242.8701 209.9457,-242.012 209.175,-241.4357 207.1279,-241.4357 204.4024,-273.6667 200.549,-241.7071 198.3554,-241.7071 197.0436,-241.3498 193.6972,-241.3498 192.3509,-239.885 186.8605,-236.8435 182.991,-236.8435 177.1873,-240.0035 175.9856,-241.251 173.7042,-241.251 169.3268,-306.8999 168.2165,-241.1629 167.5112,-240.9726 164.88,-240.9726 163.3234,-241.3981 161.3874,-241.3981 159.1376,-244.5596 153.8706,-247.7451 157.2961,-281.6828 158.5497,-330.5278 157.4169,-330.6116 156.8403,-330.637 156.387,-419.9075 156.5496,-419.9511 161.6353,-419.9511 162.1925,-420.0979 165.3855,-420.0979 165.5969,-420.1529 169.3305,-508.9242 170.8822,-422.2945 175.4187,-424.653 180.5046,-424.653 184.8589,-422.4098 187.0841,-420.0782 185.6899,-418.6306 185.6899,-418.6306 187.0841,-420.0782 184.8589,-422.4098 187.028,-489.3393 179.247,-498.8177 250.2163,-484.3112 254.6112,-479.8754 255.1093,-479.6578 255.8802,-479.0163 259.3676,-479.0163 259.6551,-479.0943 264.9588,-479.0943 265.6838,-478.8995 269.3864,-478.8995 269.5761,-478.8504 272.9222,-478.8504 276.8063,-510.4176 277.9632,-574.2064 283.8164,-483.5751 287.8633,-483.5751 287.8633,-483.5751 283.8164,-483.5751 277.9632,-574.2064 276.8063,-510.4176 272.9222,-478.8504 269.5761,-478.8504 269.3864,-478.8995 265.6838,-478.8995 264.9588,-479.0943 259.6551,-479.0943 259.3676,-479.0163 255.8802,-479.0163 255.1093,-479.6578 254.6112,-479.8754 250.2163,-484.3112 179.247,-498.8177 187.028,-489.3393 184.8589,-422.4098 180.5046,-424.653 175.4187,-424.653 170.8822,-422.2945 169.3305,-508.9242 165.5969,-420.1529 165.3855,-420.0979 162.1925,-420.0979 161.6353,-419.9511 156.5496,-419.9511 156.387,-419.9075 156.8403,-330.637 157.4169,-330.6116 158.5497,-330.5278 157.2961,-281.6828 153.8706,-247.7451 142.2635,-245.0152 111.6417,-247.0569 101.7328,-228.7948 154.1483,-235.7845 153.5626,-175.4356 135.7083,-174.1757 89.1347,-208.5903 81.5743,-208.4896 80.3767,-208.4287 73.6565,-208.5616 71.6195,-208.5255 71.1802,-208.4847 68.652,-208.3393 66.2935,-208.2871 53.9923,-208.4502 53.8986,-208.4614 54.6162,-238.8364 55.553,-249.0087 55.4578,-279.6419 49.8063,-281.2898 46.1826,-284.2631 50.6528,-287.9527 55.3344,-289.2176 55.3344,-289.2176 50.6528,-287.9527 46.1826,-284.2631 46.1826,-284.2631"/>
<polygon fill="#bbd7d9" stroke="#bbd7d9" points="382.3868,89.4521 358.5334,-39.1183 358.2886,-48.5395 356.5237,-64.6053 317.7047,-52.8995 315.2019,-90.2653 312.1343,-49.3992 309.589,-47.7075 309.2046,-47.7075 307.4347,-48.1877 302.9361,-48.1877 302.8818,-48.2021 302.8717,-48.2021 297.4792,-43.7432 294.2951,-42.9434 294.2951,-42.9434 297.4792,-43.7432 302.8717,-48.2021 298.3724,-51.6178 293.9871,-52.7285 293.9871,-52.7285 298.3724,-51.6178 302.8717,-48.2021 302.8818,-48.2021 302.9361,-48.1877 307.4347,-48.1877 309.2046,-47.7075 309.589,-47.7075 312.1343,-49.3992 315.2019,-90.2653 317.7047,-52.8995 356.5237,-64.6053 356.5084,-65.1966 355.8015,-71.8436 342.5226,-143.417 339.3494,-143.7921 327.6848,-144.5345 321.2933,-144.766 319.3612,-146.2759 305.2783,-155.4977 303.9818,-156.2355 289.6325,-163.8127 288.8062,-164.2127 253.3378,-179.8728 240.7937,-177.7732 227.5151,-176.1095 217.6939,-175.7198 214.6845,-175.7292 211.711,-175.489 211.1419,-175.4674 210.6463,-165.9553 210.6145,-109.903 207.3553,-109.903 205.3925,-107.7107 200.8952,-105.2761 200.8952,-105.2761 205.3925,-107.7107 207.3553,-109.903 210.6145,-109.903 210.6463,-165.9553 211.1419,-175.4674 201.801,-175.9126 201.7569,-175.9129 195.698,-175.693 194.893,-175.6301 192.2314,-175.6493 192.1424,-175.6538 186.278,-175.4559 180.3475,-175.7627 174.8111,-175.5844 172.6419,-175.7003 162.3308,-175.3842 158.7075,-175.5837 153.5626,-175.4356 135.7083,-174.1757 89.1347,-208.5903 81.5743,-208.4896 80.3767,-208.4287 73.6565,-208.5616 71.6195,-208.5255 71.1802,-208.4847 73.2205,-132.7583 74.8434,-132.7583 77.4126,-136.1801 77.4126,-136.1801 74.8434,-132.7583 75.1739,-132.5371 77.1448,-129.8545 82.6068,-126.4403 113.9479,-132.75 123.0172,-132.75 122.2603,-121.3495 122.2603,-121.3495 123.0172,-132.75 113.9479,-132.75 82.6068,-126.4403 77.1448,-129.8545 75.1739,-132.5371 74.8434,-132.7583 73.2205,-132.7583 71.1802,-208.4847 68.652,-208.3393 66.2935,-208.2871 53.9923,-208.4502 54.0327,-190.9448 59.3012,-137.0901 63.2848,-135.0383 65.3911,-132.8216 62.6444,-129.8839 59.2727,-128.2115 59.2727,-128.2115 62.6444,-129.8839 65.3911,-132.8216 63.2848,-135.0383 59.3012,-137.0901 54.0327,-190.9448 53.9923,-208.4502 53.8986,-208.4614 47.9591,-208.5009 44.8911,-208.6299 39.7775,-208.6527 35.4824,-208.8238 35.4321,-208.8239 34.2048,-208.7807 30.6978,-208.5255 -112.2848,-208.2244 -110.9587,-174.5624 -110.0824,-125.0761 -110.1926,-98.8159 -110.4208,-90.027 14.8977,20.3029 23.8404,61.9089 164.041,117.7555 171.507,121.2645 174.1913,122.657 189.8133,122.8458 196.7444,123.1986 212.7014,124.6304 300.8983,134.2457 303.272,131.6416 306.0096,129.9467 318.8438,122.7363 319.9253,122.1495 382.3868,89.4521 382.3868,89.4521"/>
<polygon fill="#d8d6da" stroke="#d8d6da" points="1602.807,-353.002 1603.4158,-354.0537 1603.4158,-354.0537 1602.807,-353.002 1604.104,-351.8793 1605.4366,-351.3003 1608.4698,-347.9126 1742.7418,-307.5247 1737.0627,-374.7485 1734.5576,-443.5055 1625.8835,-497.6241 1605.7273,-496.3113 1602.2238,-496.2744 1587.6384,-491.0649 1569.3414,-486.0523 1562.6289,-484.4948 1564.6027,-356.568 1569.3623,-357.8293 1574.5656,-356.4439 1578.558,-353.3363 1578.7393,-353.0924 1578.536,-352.8075 1574.4324,-349.4894 1574.4324,-349.4894 1578.536,-352.8075 1578.7393,-353.0924 1578.558,-353.3363 1574.5656,-356.4439 1569.3623,-357.8293 1564.6027,-356.568 1562.6289,-484.4948 1560.3851,-484.0211 1550.7384,-482.385 1549.8042,-353.1931 1549.1162,-353.009 1545.1603,-353.009 1543.9722,-289.062 1545.0071,-249.5085 1529.0228,-267.963 1523.1354,-273.9357 1476.2354,-275.4428 1450.5713,-272.9637 1446.5438,-275.6853 1441.4928,-231.4161 1441.0552,-279.2675 1435.8328,-279.2675 1438.8389,-227.2492 1428.3142,-229.1426 1426.9248,-229.3101 1426.7539,-277.4985 1421.7924,-274.7498 1417.24,-274.7498 1417.24,-274.7498 1421.7924,-274.7498 1426.7539,-277.4985 1426.9248,-229.3101 1428.3142,-229.1426 1438.8389,-227.2492 1435.8328,-279.2675 1441.0552,-279.2675 1441.3389,-279.3447 1444.233,-279.3447 1445.3557,-280.1854 1445.3557,-280.1854 1444.233,-279.3447 1441.3389,-279.3447 1441.0552,-279.2675 1441.4928,-231.4161 1446.5438,-275.6853 1450.5713,-272.9637 1476.2354,-275.4428 1523.1354,-273.9357 1529.0228,-267.963 1531.3239,-314.3072 1531.3239,-314.3072 1529.0228,-267.963 1545.0071,-249.5085 1543.9722,-289.062 1545.1603,-353.009 1549.1162,-353.009 1549.8042,-353.1931 1550.7384,-482.385 1543.0708,-481.2444 1537.4957,-480.5317 1529.876,-479.7169 1502.6173,-477.9409 1420.8429,-459.2412 1403.161,-430.5832 1405.7087,-426.1772 1405.347,-319.0393 1408.3026,-278.9661 1407.6801,-278.8013 1407.4386,-229.4594 1410.4022,-229.2697 1406.5812,-180.016 1403.5377,-180.016 1402.7666,-179.8068 1402.7666,-179.8068 1403.5377,-180.016 1406.5812,-180.016 1410.4022,-229.2697 1407.4386,-229.4594 1407.6801,-278.8013 1408.3026,-278.9661 1405.347,-319.0393 1405.7087,-426.1772 1403.161,-430.5832 1397.2278,-427.5341 1390.7777,-424.3582 1282.4044,-375.6483 1233.2061,-383.7726 1228.4857,-384.8839 1224.3845,-385.9225 1213.5861,-382.8623 1197.4919,-379.1794 1189.4415,-377.6322 1181.5137,-376.3982 1169.2876,-374.941 1121.4038,-370.9832 1054.8253,-332.0424 1052.5922,-284.8571 1051.802,-248.4875 1169.7706,-243.0207 1175.1589,-238.463 1175.7655,-237.5264 1176.4159,-237.0308 1178.2428,-237.0308 1181.5183,-268.3477 1184.7644,-237.3372 1188.4238,-237.3372 1188.9873,-237.1912 1193.4354,-237.1912 1193.6438,-237.1383 1195.498,-237.1383 1196.4604,-238.1008 1203.3688,-241.8782 1206.3608,-241.8782 1206.3608,-241.8782 1203.3688,-241.8782 1196.4604,-238.1008 1195.498,-237.1383 1193.6438,-237.1383 1193.4354,-237.1912 1188.9873,-237.1912 1188.4238,-237.3372 1184.7644,-237.3372 1181.5183,-268.3477 1178.2428,-237.0308 1176.4159,-237.0308 1175.7655,-237.5264 1175.1589,-238.463 1169.7706,-243.0207 1051.802,-248.4875 1050.9965,-231.6035 1050.9713,-231.2616 1050.8497,-230.0394 1046.9303,-147.2234 1139.4264,-96.6373 1148.0087,-94.2581 1159.0973,-93.7091 1173.5011,-92.7454 1179.3282,-92.2544 1189.5914,-91.2118 1199.1318,-89.7471 1205.5032,-88.5479 1205.8798,-88.4705 1225.8629,-72.9761 1318.0244,-49.3633 1320.7555,-48.9972 1322.6653,-147.6943 1326.2562,-176.8491 1328.3625,-179.6415 1330.5417,-179.6415 1330.6881,-179.6031 1333.9833,-179.6031 1334.1801,-179.6559 1334.1801,-179.6559 1333.9833,-179.6031 1330.6881,-179.6031 1330.5417,-179.6415 1328.3625,-179.6415 1326.2562,-176.8491 1322.6653,-147.6943 1320.7555,-48.9972 1325.4617,-48.176 1342.9484,-44.7688 1350.3636,-42.8773 1357.9723,-40.6285 1369.5621,-36.7308 1373.6777,-38.5736 1380.9541,-41.5181 1390.7404,-45.0599 1393.3159,-45.9365 1402.2263,-48.7789 1411.1847,-51.0629 1421.1357,-53.3878 1488.1278,-67.5968 1563.6754,-146.779 1573.9183,-173.6497 1585.8337,-187.4912 1607.179,-194.5618 1608.0757,-194.8266 1619.8315,-198.09 1745.8282,-278.8405 1742.7418,-307.5247 1608.4698,-347.9126 1605.4366,-351.3003 1604.104,-351.8793 1602.807,-353.002 1602.807,-353.002"/>
<polyline fill="none" stroke="#000000" points="716.9474,-447.257 719.6736,-446.588 732.5033,-443.9511 737.6338,-443.1024 777.9631,-437.2365 814.4078,-427.3148 858.3544,-395.6048 872.5602,-395.044 875.0779,-394.9895 887.2746,-393.0218 896.713,-391.674 910.4706,-390.2204 927.7505,-389.6762 931.3797,-389.6964 931.593,-389.7016 1054.8253,-332.0424 1052.5922,-284.8571 1051.802,-248.4875 1050.9965,-231.6035 1050.9713,-231.2616 1050.8497,-230.0394 1046.9303,-147.2234 936.4507,-96.2583 931.3593,-93.6937 916.878,-98.1695 915.1255,-98.6449 909.9242,-100.4601 901.8092,-102.9733 884.3638,-107.6931 780.5583,-129.621 752.3936,-109.6918 734.6225,-99.0411 671.1934,-94.7194 647.5839,-92.6719 644.1598,-92.1859 637.6209,-91.0152 619.2666,-87.3877 597.0334,-80.9392 592.6083,-79.5755 470.7911,-202.8423 471.0485,-208.4209 471.4277,-224.6697 467.7208,-228.6197 459.8113,-236.7322 458.0319,-238.7512 454.6746,-242.2572 444.7819,-251.7432 439.5099,-257.0987 424.0891,-272.0138 405.0161,-320.7988 400.3942,-335.0235 395.9293,-358.746 395.4294,-360.6989 390.3234,-376.3798 378.5573,-406.475 367.4336,-411.178 366.722,-461.8184 366.3802,-465.7886 366.1577,-481.1041 366.1728,-481.364 366.0512,-489.787 366.4774,-497.2289 364.808,-616.0318 357.8739,-622.5733 359.0579,-653.7997 358.8211,-683.24 360.5822,-712.0045 362.3094,-757.5573 438.7667,-809.0271 445.3942,-811.8427 490.9185,-814.26 506.8396,-815.3875 509.8511,-815.7599 510.1551,-815.8029 525.9083,-818.593 541.6868,-821.9479 550.3233,-824.2413 572.6115,-831.351 577.0865,-832.8559 585.2114,-830.739 605.9866,-816.9417 691.4327,-710.0094 695.0953,-702.157 697.2087,-697.8868 684.138,-659.8804 671.4133,-615.7565 626.9522,-527.1957 636.205,-488.6047 640.2565,-474.1952 685.6762,-456.709 700.0815,-451.7359 716.9474,-447.257 "/>
<polyline fill="none" stroke="#000000" points="305.2783,-155.4977 303.9818,-156.2355 289.6325,-163.8127 288.8062,-164.2127 253.3378,-179.8728 240.7937,-177.7732 227.5151,-176.1095 217.6939,-175.7198 214.6845,-175.7292 211.711,-175.489 211.1419,-175.4674 201.801,-175.9126 201.7569,-175.9129 195.698,-175.693 194.893,-175.6301 192.2314,-175.6493 192.1424,-175.6538 186.278,-175.4559 180.3475,-175.7627 174.8111,-175.5844 172.6419,-175.7003 162.3308,-175.3842 158.7075,-175.5837 153.5626,-175.4356 135.7083,-174.1757 89.1347,-208.5903 81.5743,-208.4896 80.3767,-208.4287 73.6565,-208.5616 71.6195,-208.5255 71.1802,-208.4847 68.652,-208.3393 66.2935,-208.2871 53.9923,-208.4502 53.8986,-208.4614 47.9591,-208.5009 44.8911,-208.6299 39.7775,-208.6527 35.4824,-208.8238 35.4321,-208.8239 34.2048,-208.7807 30.6978,-208.5255 -112.2848,-208.2244 -114.8926,-213.1934 -123.4381,-236.5081 -124.9152,-261.7007 -127.634,-289.3592 -114.1986,-326.7084 -109.106,-341.8675 -103.2619,-347.2902 4.3837,-415.731 8.6851,-429.2216 11.5126,-438.9163 46.7135,-572.077 4.383,-634.576 4.6629,-638.1735 8.6355,-704.1288 9.6419,-705.2065 97.0313,-805.8185 98.9259,-807.2191 176.185,-832.9845 190.3493,-837.9741 199.6487,-841.7676 202.845,-843.2518 219.5126,-832.9719 223.4785,-830.7062 362.3094,-757.5573 360.5822,-712.0045 358.8211,-683.24 359.0579,-653.7997 357.8739,-622.5733 364.808,-616.0318 366.4774,-497.2289 366.0512,-489.787 366.1728,-481.364 366.1577,-481.1041 366.3802,-465.7886 366.722,-461.8184 367.4336,-411.178 378.5573,-406.475 390.3234,-376.3798 395.4294,-360.6989 395.9293,-358.746 400.3942,-335.0235 405.0161,-320.7988 424.0891,-272.0138 439.5099,-257.0987 444.7819,-251.7432 454.6746,-242.2572 458.0319,-238.7512 459.8113,-236.7322 467.7208,-228.6197 471.4277,-224.6697 471.0485,-208.4209 470.7911,-202.8423 592.6083,-79.5755 591.8502,-77.8684 574.0837,-32.7488 555.8717,17.0528 534.5893,34.2716 465.1928,80.5674 459.015,80.5881 437.691,81.0367 436.0786,81.1561 420.7133,82.566 402.8121,85.1584 397.0127,86.3042 382.3868,89.4521 358.5334,-39.1183 358.2886,-48.5395 356.5237,-64.6053 356.5084,-65.1966 355.8015,-71.8436 342.5226,-143.417 339.3494,-143.7921 327.6848,-144.5345 321.2933,-144.766 319.3612,-146.2759 305.2783,-155.4977 "/>
<polyline fill="none" stroke="#000000" points="196.7444,123.1986 212.7014,124.6304 300.8983,134.2457 303.272,131.6416 306.0096,129.9467 318.8438,122.7363 319.9253,122.1495 382.3868,89.4521 358.5334,-39.1183 358.2886,-48.5395 356.5237,-64.6053 356.5084,-65.1966 355.8015,-71.8436 342.5226,-143.417 339.3494,-143.7921 327.6848,-144.5345 321.2933,-144.766 319.3612,-146.2759 305.2783,-155.4977 303.9818,-156.2355 289.6325,-163.8127 288.8062,-164.2127 253.3378,-179.8728 240.7937,-177.7732 227.5151,-176.1095 217.6939,-175.7198 214.6845,-175.7292 211.711,-175.489 211.1419,-175.4674 201.801,-175.9126 201.7569,-175.9129 195.698,-175.693 194.893,-175.6301 192.2314,-175.6493 192.1424,-175.6538 186.278,-175.4559 180.3475,-175.7627 174.8111,-175.5844 172.6419,-175.7003 162.3308,-175.3842 158.7075,-175.5837 153.5626,-175.4356 135.7083,-174.1757 89.1347,-208.5903 81.5743,-208.4896 80.3767,-208.4287 73.6565,-208.5616 71.6195,-208.5255 71.1802,-208.4847 68.652,-208.3393 66.2935,-208.2871 53.9923,-208.4502 53.8986,-208.4614 47.9591,-208.5009 44.8911,-208.6299 39.7775,-208.6527 35.4824,-208.8238 35.4321,-208.8239 34.2048,-208.7807 30.6978,-208.5255 -112.2848,-208.2244 -110.9587,-174.5624 -110.0824,-125.0761 -110.1926,-98.8159 -110.4208,-90.027 14.8977,20.3029 23.8404,61.9089 164.041,117.7555 171.507,121.2645 174.1913,122.657 189.8133,122.8458 196.7444,123.1986 "/>
<polyline fill="none" stroke="#000000" points="1373.6777,-38.5736 1369.5621,-36.7308 1357.9723,-40.6285 1350.3636,-42.8773 1342.9484,-44.7688 1325.4617,-48.176 1320.7555,-48.9972 1318.0244,-49.3633 1225.8629,-72.9761 1205.8798,-88.4705 1205.5032,-88.5479 1199.1318,-89.7471 1189.5914,-91.2118 1179.3282,-92.2544 1173.5011,-92.7454 1159.0973,-93.7091 1148.0087,-94.2581 1139.4264,-96.6373 1046.9303,-147.2234 1050.8497,-230.0394 1050.9713,-231.2616 1050.9965,-231.6035 1051.802,-248.4875 1052.5922,-284.8571 1054.8253,-332.0424 1121.4038,-370.9832 1169.2876,-374.941 1181.5137,-376.3982 1189.4415,-377.6322 1197.4919,-379.1794 1213.5861,-382.8623 1224.3845,-385.9225 1228.4857,-384.8839 1233.2061,-383.7726 1282.4044,-375.6483 1390.7777,-424.3582 1397.2278,-427.5341 1403.161,-430.5832 1420.8429,-459.2412 1502.6173,-477.9409 1529.876,-479.7169 1537.4957,-480.5317 1543.0708,-481.2444 1550.7384,-482.385 1560.3851,-484.0211 1562.6289,-484.4948 1569.3414,-486.0523 1587.6384,-491.0649 1602.2238,-496.2744 1605.7273,-496.3113 1625.8835,-497.6241 1734.5576,-443.5055 1737.0627,-374.7485 1742.7418,-307.5247 1745.8282,-278.8405 1619.8315,-198.09 1608.0757,-194.8266 1607.179,-194.5618 1585.8337,-187.4912 1573.9183,-173.6497 1563.6754,-146.779 1488.1278,-67.5968 1421.1357,-53.3878 1411.1847,-51.0629 1402.2263,-48.7789 1393.3159,-45.9365 1390.7404,-45.0599 1380.9541,-41.5181 1373.6777,-38.5736 "/>
<!-- filesystem&#45;&gt;setup -->
<g id="edge1" class="edge">
<title>filesystem&#45;&gt;setup</title>
<path fill="none" stroke="#444444" stroke-opacity="0.333333" d="M766.206,-294.2987C790.2644,-286.442 818.6054,-277.1868 843.5648,-269.0359"/>
<polygon fill="#444444" fill-opacity="0.333333" stroke="#444444" stroke-opacity="0.333333" points="844.8882,-272.2857 853.3076,-265.8542 842.7151,-265.6315 844.8882,-272.2857"/>
</g>
<!-- filesystem&#45;&gt;bash -->
<g id="edge2" class="edge">
<title>filesystem&#45;&gt;bash</title>
<path fill="none" stroke="#444444" stroke-opacity="0.333333" d="M653.6648,-318.8012C615.1258,-325.8465 564.449,-336.7454 525.5675,-346.33"/>
<polygon fill="#444444" fill-opacity="0.333333" stroke="#444444" stroke-opacity="0.333333" points="524.2944,-343.0406 515.4436,-348.8643 525.9943,-349.8311 524.2944,-343.0406"/>
</g>
<!-- setup&#45;&gt;setup -->
<g id="edge3" class="edge">
<title>setup&#45;&gt;setup</title>
<path fill="none" stroke="#444444" stroke-opacity="0.333333" d="M961.4973,-254.6097C972.0186,-253.8607 979.49,-251.7108 979.49,-248.16 979.49,-245.8853 976.4237,-244.1855 971.4536,-243.0606"/>
<polygon fill="#444444" fill-opacity="0.333333" stroke="#444444" stroke-opacity="0.333333" points="971.8769,-239.5861 961.4973,-241.7103 970.9362,-246.5226 971.8769,-239.5861"/>
</g>
<!-- setup&#45;&gt;fedora&#45;release -->
<g id="edge4" class="edge">
<title>setup&#45;&gt;fedora&#45;release</title>
<path fill="none" stroke="#444444" stroke-opacity="0.333333" d="M961.6755,-246.1498C1005.2364,-244.5337 1067.2768,-242.232 1117.7821,-240.3583"/>
<polygon fill="#444444" fill-opacity="0.333333" stroke="#444444" stroke-opacity="0.333333" points="1118.1832,-243.8459 1128.0466,-239.9775 1117.9236,-236.8507 1118.1832,-243.8459"/>
</g>
<!-- bash&#45;&gt;filesystem -->
<g id="edge5" class="edge">
<title>bash&#45;&gt;filesystem</title>
<path fill="none" stroke="#444444" stroke-opacity="0.333333" d="M515.1857,-360.213C552.4109,-353.6707 604.1746,-342.7081 645.1232,-332.7998"/>
<polygon fill="#444444" fill-opacity="0.333333" stroke="#444444" stroke-opacity="0.333333" points="646.1388,-336.1546 655.0174,-330.3735 644.4715,-329.356 646.1388,-336.1546"/>
</g>
<!-- bash&#45;&gt;bash -->
<g id="edge6" class="edge">
<title>bash&#45;&gt;bash</title>
<path fill="none" stroke="#444444" stroke-opacity="0.333333" d="M515.3541,-371.6321C525.6819,-370.9688 533.14,-368.7914 533.14,-365.1 533.14,-362.7929 530.2267,-361.0772 525.5203,-359.9529"/>
<polygon fill="#444444" fill-opacity="0.333333" stroke="#444444" stroke-opacity="0.333333" points="525.7351,-356.4499 515.3541,-358.5679 524.7901,-363.3858 525.7351,-356.4499"/>
</g>
<!-- bash&#45;&gt;glibc -->
<g id="edge7" class="edge">
<title>bash&#45;&gt;glibc</title>
<path fill="none" stroke="#444444" stroke-opacity="0.333333" d="M444.1411,-346.9244C417.7897,-325.6366 374.0106,-290.2699 344.6299,-266.5349"/>
<polygon fill="#444444" fill-opacity="0.333333" stroke="#444444" stroke-opacity="0.333333" points="346.7296,-263.7317 336.7513,-260.1702 342.3307,-269.1769 346.7296,-263.7317"/>
</g>
<!-- bash&#45;&gt;ncurses&#45;libs -->
<g id="edge8" class="edge">
<title>bash&#45;&gt;ncurses&#45;libs</title>
<path fill="none" stroke="#444444" stroke-opacity="0.333333" d="M463.2586,-383.3237C459.8403,-401.7465 454.5101,-430.4728 450.5435,-451.8506"/>
<polygon fill="#444444" fill-opacity="0.333333" stroke="#444444" stroke-opacity="0.333333" points="447.0487,-451.5009 448.6656,-461.9716 453.9313,-452.778 447.0487,-451.5009"/>
</g>
<!-- fedora&#45;release&#45;&gt;fedora&#45;release&#45;common -->
<g id="edge30" class="edge">
<title>fedora&#45;release&#45;&gt;fedora&#45;release&#45;common</title>
<path fill="none" stroke="#444444" stroke-opacity="0.333333" d="M1281.6441,-224.4414C1301.6541,-217.7992 1322.0732,-209.8771 1338.129,-202.3461"/>
<polygon fill="#444444" fill-opacity="0.333333" stroke="#444444" stroke-opacity="0.333333" points="1340.0941,-205.2799 1347.5194,-197.7224 1337.0019,-198.9998 1340.0941,-205.2799"/>
</g>
<!-- glibc&#45;&gt;glibc -->
<g id="edge9" class="edge">
<title>glibc&#45;&gt;glibc</title>
<path fill="none" stroke="#444444" stroke-opacity="0.333333" d="M367.4172,-248.3697C377.7923,-247.6207 385.16,-245.4708 385.16,-241.92 385.16,-239.7008 382.282,-238.0287 377.5905,-236.904"/>
<polygon fill="#444444" fill-opacity="0.333333" stroke="#444444" stroke-opacity="0.333333" points="377.8078,-233.4001 367.4172,-235.4703 376.8309,-240.3316 377.8078,-233.4001"/>
</g>
<!-- glibc&#45;&gt;basesystem -->
<g id="edge10" class="edge">
<title>glibc&#45;&gt;basesystem</title>
<path fill="none" stroke="#444444" stroke-opacity="0.333333" d="M367.2327,-239.9067C420.1678,-237.8986 501.8754,-234.799 560.7967,-232.5638"/>
<polygon fill="#444444" fill-opacity="0.333333" stroke="#444444" stroke-opacity="0.333333" points="561.2921,-236.0476 571.1522,-232.171 561.0267,-229.0527 561.2921,-236.0476"/>
</g>
<!-- glibc&#45;&gt;glibc&#45;common -->
<g id="edge11" class="edge">
<title>glibc&#45;&gt;glibc&#45;common</title>
<path fill="none" stroke="#444444" stroke-opacity="0.333333" d="M308.1265,-260.0612C299.5929,-301.0218 287.4425,-400.9225 284.7272,-450.31"/>
<polygon fill="#444444" fill-opacity="0.333333" stroke="#444444" stroke-opacity="0.333333" points="281.2175,-450.4584 284.2787,-460.6014 288.2109,-450.7633 281.2175,-450.4584"/>
</g>
<!-- glibc&#45;&gt;glibc&#45;minimal&#45;langpack -->
<g id="edge12" class="edge">
<title>glibc&#45;&gt;glibc&#45;minimal&#45;langpack</title>
<path fill="none" stroke="#444444" stroke-opacity="0.333333" d="M294.6707,-259.9626C266.9534,-291.4772 217.1858,-356.4303 192.4463,-393.2436"/>
<polygon fill="#444444" fill-opacity="0.333333" stroke="#444444" stroke-opacity="0.333333" points="189.2867,-391.6788 186.7244,-401.9591 195.1384,-395.5205 189.2867,-391.6788"/>
</g>
<!-- glibc&#45;&gt;libgcc -->
<g id="edge13" class="edge">
<title>glibc&#45;&gt;libgcc</title>
<path fill="none" stroke="#444444" stroke-opacity="0.333333" d="M325.1961,-223.6494C344.4788,-191.7265 384.3815,-125.6665 406.8053,-88.5433"/>
<polygon fill="#444444" fill-opacity="0.333333" stroke="#444444" stroke-opacity="0.333333" points="409.932,-90.1363 412.1065,-79.7671 403.9402,-86.5171 409.932,-90.1363"/>
</g>
<!-- ncurses&#45;libs&#45;&gt;glibc -->
<g id="edge14" class="edge">
<title>ncurses&#45;libs&#45;&gt;glibc</title>
<path fill="none" stroke="#444444" stroke-opacity="0.333333" d="M435.2274,-461.8151C412.2863,-420.1472 356.053,-318.0104 329.0745,-269.0093"/>
<polygon fill="#444444" fill-opacity="0.333333" stroke="#444444" stroke-opacity="0.333333" points="331.9765,-267.0232 324.0874,-259.9512 325.8444,-270.3993 331.9765,-267.0232"/>
</g>
<!-- ncurses&#45;libs&#45;&gt;ncurses&#45;libs -->
<g id="edge15" class="edge">
<title>ncurses&#45;libs&#45;&gt;ncurses&#45;libs</title>
<path fill="none" stroke="#444444" stroke-opacity="0.333333" d="M519.6601,-486.1674C530.2164,-485.1877 537.3,-483.1686 537.3,-480.11 537.3,-478.1984 534.533,-476.6928 529.8805,-475.5932"/>
<polygon fill="#444444" fill-opacity="0.333333" stroke="#444444" stroke-opacity="0.333333" points="530.0702,-472.0824 519.6601,-474.0526 529.0267,-479.0042 530.0702,-472.0824"/>
</g>
<!-- ncurses&#45;libs&#45;&gt;ncurses&#45;base -->
<g id="edge16" class="edge">
<title>ncurses&#45;libs&#45;&gt;ncurses&#45;base</title>
<path fill="none" stroke="#444444" stroke-opacity="0.333333" d="M453.0407,-498.2877C467.4974,-532.2368 498.6799,-605.4632 515.7758,-645.6099"/>
<polygon fill="#444444" fill-opacity="0.333333" stroke="#444444" stroke-opacity="0.333333" points="512.6618,-647.2306 519.7999,-655.0599 519.1021,-644.488 512.6618,-647.2306"/>
</g>
<!-- basesystem&#45;&gt;filesystem -->
<g id="edge34" class="edge">
<title>basesystem&#45;&gt;filesystem</title>
<path fill="none" stroke="#444444" stroke-opacity="0.333333" d="M650.5986,-248.1283C661.2398,-259.4556 675.0584,-274.1653 686.7853,-286.6484"/>
<polygon fill="#444444" fill-opacity="0.333333" stroke="#444444" stroke-opacity="0.333333" points="684.3716,-289.1909 693.7695,-294.0829 689.4735,-284.3981 684.3716,-289.1909"/>
</g>
<!-- basesystem&#45;&gt;setup -->
<g id="edge35" class="edge">
<title>basesystem&#45;&gt;setup</title>
<path fill="none" stroke="#444444" stroke-opacity="0.333333" d="M695.5875,-233.9739C739.6951,-236.9267 798.7238,-240.8785 843.2769,-243.8612"/>
<polygon fill="#444444" fill-opacity="0.333333" stroke="#444444" stroke-opacity="0.333333" points="843.1993,-247.3637 853.4108,-244.5396 843.667,-240.3794 843.1993,-247.3637"/>
</g>
<!-- glibc&#45;common&#45;&gt;bash -->
<g id="edge36" class="edge">
<title>glibc&#45;common&#45;&gt;bash</title>
<path fill="none" stroke="#444444" stroke-opacity="0.333333" d="M314.5388,-460.8765C345.5144,-441.3715 395.0249,-410.1953 429.0965,-388.7407"/>
<polygon fill="#444444" fill-opacity="0.333333" stroke="#444444" stroke-opacity="0.333333" points="431.2394,-391.5275 437.8365,-383.2372 427.5094,-385.604 431.2394,-391.5275"/>
</g>
<!-- glibc&#45;common&#45;&gt;glibc -->
<g id="edge37" class="edge">
<title>glibc&#45;common&#45;&gt;glibc</title>
<path fill="none" stroke="#444444" stroke-opacity="0.333333" d="M291.9335,-460.7688C300.4671,-419.8082 312.6175,-319.9075 315.3328,-270.52"/>
<polygon fill="#444444" fill-opacity="0.333333" stroke="#444444" stroke-opacity="0.333333" points="318.8425,-270.3716 315.7813,-260.2286 311.8491,-270.0667 318.8425,-270.3716"/>
</g>
<!-- glibc&#45;common&#45;&gt;tzdata -->
<g id="edge38" class="edge">
<title>glibc&#45;common&#45;&gt;tzdata</title>
<path fill="none" stroke="#444444" stroke-opacity="0.333333" d="M278.5396,-497.0429C263.9685,-532.9402 231.3709,-613.2472 214.1357,-655.7078"/>
<polygon fill="#444444" fill-opacity="0.333333" stroke="#444444" stroke-opacity="0.333333" points="210.822,-654.5655 210.3039,-665.1477 217.308,-657.1983 210.822,-654.5655"/>
</g>
<!-- glibc&#45;minimal&#45;langpack&#45;&gt;glibc -->
<g id="edge39" class="edge">
<title>glibc&#45;minimal&#45;langpack&#45;&gt;glibc</title>
<path fill="none" stroke="#444444" stroke-opacity="0.333333" d="M197.4093,-402.0774C225.1266,-370.5628 274.8942,-305.6097 299.6337,-268.7964"/>
<polygon fill="#444444" fill-opacity="0.333333" stroke="#444444" stroke-opacity="0.333333" points="302.7933,-270.3612 305.3556,-260.0809 296.9416,-266.5195 302.7933,-270.3612"/>
</g>
<!-- glibc&#45;minimal&#45;langpack&#45;&gt;glibc&#45;common -->
<g id="edge40" class="edge">
<title>glibc&#45;minimal&#45;langpack&#45;&gt;glibc&#45;common</title>
<path fill="none" stroke="#444444" stroke-opacity="0.333333" d="M211.1986,-438.2386C221.4619,-443.8265 232.9021,-450.0552 243.6839,-455.9253"/>
<polygon fill="#444444" fill-opacity="0.333333" stroke="#444444" stroke-opacity="0.333333" points="242.0891,-459.0421 252.5454,-460.75 245.4363,-452.8943 242.0891,-459.0421"/>
</g>
<!-- libacl&#45;&gt;glibc -->
<g id="edge17" class="edge">
<title>libacl&#45;&gt;glibc</title>
<path fill="none" stroke="#444444" stroke-opacity="0.333333" d="M192.8795,-36.3243C216.11,-75.7048 270.8922,-168.5722 298.1615,-214.7992"/>
<polygon fill="#444444" fill-opacity="0.333333" stroke="#444444" stroke-opacity="0.333333" points="295.2909,-216.8218 303.3864,-223.6565 301.3201,-213.2651 295.2909,-216.8218"/>
</g>
<!-- libacl&#45;&gt;libattr -->
<g id="edge18" class="edge">
<title>libacl&#45;&gt;libattr</title>
<path fill="none" stroke="#444444" stroke-opacity="0.333333" d="M233.2605,-31.6863C233.418,-31.7284 233.5755,-31.7705 233.733,-31.8126"/>
<polygon fill="#444444" fill-opacity="0.333333" stroke="#444444" stroke-opacity="0.333333" points="230.2708,-34.5098 240.8355,-33.7116 232.0789,-27.7473 230.2708,-34.5098"/>
</g>
<!-- libattr&#45;&gt;glibc -->
<g id="edge19" class="edge">
<title>libattr&#45;&gt;glibc</title>
<path fill="none" stroke="#444444" stroke-opacity="0.333333" d="M295.5252,-66.0768C299.1332,-100.1234 306.9085,-173.4931 311.1872,-213.8674"/>
<polygon fill="#444444" fill-opacity="0.333333" stroke="#444444" stroke-opacity="0.333333" points="307.7105,-214.2737 312.245,-223.8491 314.6715,-213.5359 307.7105,-214.2737"/>
</g>
<!-- libattr&#45;&gt;libattr -->
<g id="edge20" class="edge">
<title>libattr&#45;&gt;libattr</title>
<path fill="none" stroke="#444444" stroke-opacity="0.333333" d="M346.1652,-54.2875C356.6286,-53.5591 364.09,-51.4019 364.09,-47.816 364.09,-45.5188 361.0279,-43.8079 356.076,-42.6834"/>
<polygon fill="#444444" fill-opacity="0.333333" stroke="#444444" stroke-opacity="0.333333" points="356.5438,-39.2149 346.1652,-41.3445 355.6066,-46.1519 356.5438,-39.2149"/>
</g>
<!-- libcap&#45;&gt;glibc -->
<g id="edge21" class="edge">
<title>libcap&#45;&gt;glibc</title>
<path fill="none" stroke="#444444" stroke-opacity="0.333333" d="M99.0473,-150.7772C143.8038,-169.7404 214.2732,-199.5982 262.2651,-219.9322"/>
<polygon fill="#444444" fill-opacity="0.333333" stroke="#444444" stroke-opacity="0.333333" points="260.9764,-223.1874 271.5495,-223.866 263.7073,-216.742 260.9764,-223.1874"/>
</g>
<!-- libcap&#45;&gt;libcap -->
<g id="edge22" class="edge">
<title>libcap&#45;&gt;libcap</title>
<path fill="none" stroke="#444444" stroke-opacity="0.333333" d="M113.0255,-139.1535C123.5723,-138.365 131,-136.2305 131,-132.75 131,-130.5203 127.9517,-128.843 122.9878,-127.7181"/>
<polygon fill="#444444" fill-opacity="0.333333" stroke="#444444" stroke-opacity="0.333333" points="123.4095,-124.2432 113.0255,-126.3465 122.4546,-131.1778 123.4095,-124.2432"/>
</g>
<!-- libselinux&#45;&gt;glibc -->
<g id="edge23" class="edge">
<title>libselinux&#45;&gt;glibc</title>
<path fill="none" stroke="#444444" stroke-opacity="0.333333" d="M251.8452,-241.674C251.9413,-241.6743 252.0375,-241.6747 252.1337,-241.6751"/>
<polygon fill="#444444" fill-opacity="0.333333" stroke="#444444" stroke-opacity="0.333333" points="251.0166,-245.1706 261.0304,-241.7102 251.0443,-238.1707 251.0166,-245.1706"/>
</g>
<!-- libselinux&#45;&gt;libsepol -->
<g id="edge24" class="edge">
<title>libselinux&#45;&gt;libsepol</title>
<path fill="none" stroke="#444444" stroke-opacity="0.333333" d="M212.9406,-259.4164C234.0495,-273.0152 263.2148,-291.8042 286.2348,-306.6341"/>
<polygon fill="#444444" fill-opacity="0.333333" stroke="#444444" stroke-opacity="0.333333" points="284.4248,-309.6315 294.7269,-312.1049 288.2158,-303.7469 284.4248,-309.6315"/>
</g>
<!-- libselinux&#45;&gt;pcre2 -->
<g id="edge25" class="edge">
<title>libselinux&#45;&gt;pcre2</title>
<path fill="none" stroke="#444444" stroke-opacity="0.333333" d="M130.4372,-259.4707C126.8379,-260.6623 123.1955,-261.8682 119.5558,-263.0732"/>
<polygon fill="#444444" fill-opacity="0.333333" stroke="#444444" stroke-opacity="0.333333" points="118.353,-259.7845 109.9597,-266.2502 120.553,-266.4298 118.353,-259.7845"/>
</g>
<!-- libsepol&#45;&gt;bash -->
<g id="edge41" class="edge">
<title>libsepol&#45;&gt;bash</title>
<path fill="none" stroke="#444444" stroke-opacity="0.333333" d="M384.396,-345.2108C392.3248,-347.1283 400.4281,-349.0879 408.3074,-350.9934"/>
<polygon fill="#444444" fill-opacity="0.333333" stroke="#444444" stroke-opacity="0.333333" points="407.5954,-354.422 418.138,-353.3707 409.2409,-347.6181 407.5954,-354.422"/>
</g>
<!-- libsepol&#45;&gt;glibc -->
<g id="edge42" class="edge">
<title>libsepol&#45;&gt;glibc</title>
<path fill="none" stroke="#444444" stroke-opacity="0.333333" d="M321.2556,-312.059C320.0234,-299.8788 318.3819,-283.653 316.9881,-269.8757"/>
<polygon fill="#444444" fill-opacity="0.333333" stroke="#444444" stroke-opacity="0.333333" points="320.4703,-269.5218 315.9814,-259.9249 313.5058,-270.2264 320.4703,-269.5218"/>
</g>
<!-- pcre2&#45;&gt;glibc -->
<g id="edge43" class="edge">
<title>pcre2&#45;&gt;glibc</title>
<path fill="none" stroke="#444444" stroke-opacity="0.333333" d="M110.6482,-275.2525C151.7231,-268.525 207.8696,-259.329 250.7851,-252.3"/>
<polygon fill="#444444" fill-opacity="0.333333" stroke="#444444" stroke-opacity="0.333333" points="251.5341,-255.724 260.8368,-250.6536 250.4026,-248.8161 251.5341,-255.724"/>
</g>
<!-- pcre2&#45;&gt;pcre2 -->
<g id="edge44" class="edge">
<title>pcre2&#45;&gt;pcre2</title>
<path fill="none" stroke="#444444" stroke-opacity="0.333333" d="M110.5433,-290.717C121.0441,-289.948 128.47,-287.8056 128.47,-284.29 128.47,-282.0378 125.4224,-280.3492 120.4711,-279.2242"/>
<polygon fill="#444444" fill-opacity="0.333333" stroke="#444444" stroke-opacity="0.333333" points="120.9261,-275.7539 110.5433,-277.863 119.9751,-282.689 120.9261,-275.7539"/>
</g>
<!-- fedora&#45;release&#45;common&#45;&gt;fedora&#45;release -->
<g id="edge27" class="edge">
<title>fedora&#45;release&#45;common&#45;&gt;fedora&#45;release</title>
<path fill="none" stroke="#444444" stroke-opacity="0.333333" d="M1276.5873,-197.7236C1261.7351,-203.0865 1247.3354,-208.9237 1235.37,-214.5413"/>
<polygon fill="#444444" fill-opacity="0.333333" stroke="#444444" stroke-opacity="0.333333" points="1233.7622,-211.4316 1226.3339,-218.9861 1236.8519,-217.7128 1233.7622,-211.4316"/>
</g>
<!-- fedora&#45;release&#45;common&#45;&gt;fedora&#45;release -->
<g id="edge28" class="edge">
<title>fedora&#45;release&#45;common&#45;&gt;fedora&#45;release</title>
<path fill="none" stroke="#444444" stroke-dasharray="5,2" stroke-opacity="0.333333" d="M1317.3593,-197.7205C1301.1045,-203.4117 1282.9802,-209.7574 1266.1067,-215.6652"/>
<polygon fill="#444444" fill-opacity="0.333333" stroke="#444444" stroke-opacity="0.333333" points="1264.6215,-212.4768 1256.3399,-219.0848 1266.9347,-219.0835 1264.6215,-212.4768"/>
</g>
<!-- fedora&#45;release&#45;common&#45;&gt;fedora&#45;release&#45;common -->
<g id="edge26" class="edge">
<title>fedora&#45;release&#45;common&#45;&gt;fedora&#45;release&#45;common</title>
<path fill="none" stroke="#444444" stroke-opacity="0.333333" d="M1477.2304,-185.2137C1487.9696,-184.111 1494.8,-182.2764 1494.8,-179.71 1494.8,-178.0659 1491.9968,-176.7221 1487.1585,-175.6787"/>
<polygon fill="#444444" fill-opacity="0.333333" stroke="#444444" stroke-opacity="0.333333" points="1487.6357,-172.2113 1477.2304,-174.2063 1486.6087,-179.1355 1487.6357,-172.2113"/>
</g>
<!-- fedora&#45;release&#45;common&#45;&gt;fedora&#45;repos -->
<g id="edge29" class="edge">
<title>fedora&#45;release&#45;common&#45;&gt;fedora&#45;repos</title>
<path fill="none" stroke="#444444" stroke-opacity="0.333333" d="M1378.1175,-197.9543C1385.8513,-213.0976 1396.9643,-234.8576 1405.7418,-252.0446"/>
<polygon fill="#444444" fill-opacity="0.333333" stroke="#444444" stroke-opacity="0.333333" points="1402.6762,-253.7374 1410.3416,-261.0513 1408.9103,-250.5536 1402.6762,-253.7374"/>
</g>
<!-- fedora&#45;repos&#45;&gt;fedora&#45;release -->
<g id="edge31" class="edge">
<title>fedora&#45;repos&#45;&gt;fedora&#45;release</title>
<path fill="none" stroke="#444444" stroke-opacity="0.333333" d="M1351.3408,-265.8173C1332.3195,-262.0937 1311.4007,-257.9985 1291.4717,-254.0972"/>
<polygon fill="#444444" fill-opacity="0.333333" stroke="#444444" stroke-opacity="0.333333" points="1291.9555,-250.6255 1281.4694,-252.1391 1290.6107,-257.4951 1291.9555,-250.6255"/>
</g>
<!-- fedora&#45;repos&#45;&gt;fedora&#45;repos -->
<g id="edge32" class="edge">
<title>fedora&#45;repos&#45;&gt;fedora&#45;repos</title>
<path fill="none" stroke="#444444" stroke-opacity="0.333333" d="M1487.7292,-285.366C1498.3555,-284.4412 1505.6,-282.3792 1505.6,-279.18 1505.6,-277.1305 1502.6268,-275.5477 1497.6961,-274.4317"/>
<polygon fill="#444444" fill-opacity="0.333333" stroke="#444444" stroke-opacity="0.333333" points="1498.1265,-270.9576 1487.7292,-272.994 1497.1271,-277.8859 1498.1265,-270.9576"/>
</g>
<!-- fedora&#45;repos&#45;&gt;fedora&#45;gpg&#45;keys -->
<g id="edge33" class="edge">
<title>fedora&#45;repos&#45;&gt;fedora&#45;gpg&#45;keys</title>
<path fill="none" stroke="#444444" stroke-opacity="0.333333" d="M1456.2452,-297.2164C1476.557,-307.2136 1501.9995,-319.7362 1523.612,-330.3736"/>
<polygon fill="#444444" fill-opacity="0.333333" stroke="#444444" stroke-opacity="0.333333" points="1522.0962,-333.5285 1532.6139,-334.8043 1525.1874,-327.248 1522.0962,-333.5285"/>
</g>
<!-- coreutils&#45;single&#45;&gt;glibc -->
<g id="edge45" class="edge">
<title>coreutils&#45;single&#45;&gt;glibc</title>
<path fill="none" stroke="#444444" stroke-opacity="0.333333" d="M214.3481,-127.8678C234.3066,-150.6737 268.7436,-190.0239 291.4878,-216.0131"/>
<polygon fill="#444444" fill-opacity="0.333333" stroke="#444444" stroke-opacity="0.333333" points="288.9225,-218.3964 298.142,-223.6167 294.1902,-213.7864 288.9225,-218.3964"/>
</g>
<!-- coreutils&#45;single&#45;&gt;libacl -->
<g id="edge46" class="edge">
<title>coreutils&#45;single&#45;&gt;libacl</title>
<path fill="none" stroke="#444444" stroke-opacity="0.333333" d="M195.262,-91.6392C192.9427,-78.693 189.7777,-61.0251 187.1291,-46.2404"/>
<polygon fill="#444444" fill-opacity="0.333333" stroke="#444444" stroke-opacity="0.333333" points="190.5199,-45.3192 185.3113,-36.0931 183.6296,-46.5536 190.5199,-45.3192"/>
</g>
<!-- coreutils&#45;single&#45;&gt;libattr -->
<g id="edge47" class="edge">
<title>coreutils&#45;single&#45;&gt;libattr</title>
<path fill="none" stroke="#444444" stroke-opacity="0.333333" d="M226.2667,-91.6838C236.0302,-85.3219 247.1487,-78.0771 257.4977,-71.3337"/>
<polygon fill="#444444" fill-opacity="0.333333" stroke="#444444" stroke-opacity="0.333333" points="259.4956,-74.2093 265.9632,-65.8176 255.6741,-68.3445 259.4956,-74.2093"/>
</g>
<!-- coreutils&#45;single&#45;&gt;libcap -->
<g id="edge48" class="edge">
<title>coreutils&#45;single&#45;&gt;libcap</title>
<path fill="none" stroke="#444444" stroke-opacity="0.333333" d="M119.6147,-122.5368C119.479,-122.5588 119.3434,-122.5807 119.2078,-122.6027"/>
<polygon fill="#444444" fill-opacity="0.333333" stroke="#444444" stroke-opacity="0.333333" points="122.4535,-118.5318 113.141,-123.5844 123.5718,-125.4419 122.4535,-118.5318"/>
</g>
<!-- coreutils&#45;single&#45;&gt;libselinux -->
<g id="edge49" class="edge">
<title>coreutils&#45;single&#45;&gt;libselinux</title>
<path fill="none" stroke="#444444" stroke-opacity="0.333333" d="M196.6585,-127.798C194.3956,-149.8304 190.5408,-187.3638 187.8848,-213.2242"/>
<polygon fill="#444444" fill-opacity="0.333333" stroke="#444444" stroke-opacity="0.333333" points="184.4026,-212.872 186.8626,-223.1773 191.366,-213.5873 184.4026,-212.872"/>
</g>
<!-- filesystem -->
<g id="node1" class="node">
<title>filesystem</title>
<text text-anchor="middle" x="710.93" y="-308.65" font-family="Helvetica,sans-Serif" font-weight="bold" font-size="14.00" fill="#000000">filesystem (0.0 B)</text>
</g>
<!-- setup -->
<g id="node2" class="node">
<title>setup</title>
<text text-anchor="middle" x="907.49" y="-244.46" font-family="Helvetica,sans-Serif" font-weight="bold" font-size="14.00" fill="#000000">setup (709.7 kB)</text>
</g>
<!-- bash -->
<g id="node3" class="node">
<title>bash</title>
<text text-anchor="middle" x="466.64" y="-361.4" font-family="Helvetica,sans-Serif" font-weight="bold" font-size="14.00" fill="#000000">bash (7.2 MB)</text>
</g>
<!-- fedora&#45;release -->
<g id="node4" class="node">
<title>fedora&#45;release</title>
<text text-anchor="middle" x="1204.8" y="-233.43" font-family="Helvetica,sans-Serif" font-weight="bold" font-size="14.00" fill="#000000">fedora&#45;release (691.0 B)</text>
</g>
<!-- glibc -->
<g id="node5" class="node">
<title>glibc</title>
<text text-anchor="middle" x="314.16" y="-238.22" font-family="Helvetica,sans-Serif" font-weight="bold" font-size="14.00" fill="#000000">glibc (16.5 MB)</text>
</g>
<!-- ncurses&#45;libs -->
<g id="node6" class="node">
<title>ncurses&#45;libs</title>
<text text-anchor="middle" x="445.3" y="-476.41" font-family="Helvetica,sans-Serif" font-weight="bold" font-size="14.00" fill="#000000">ncurses&#45;libs (976.2 kB)</text>
</g>
<!-- basesystem -->
<g id="node7" class="node">
<title>basesystem</title>
<text text-anchor="middle" x="633.39" y="-226.11" font-family="Helvetica,sans-Serif" font-weight="bold" font-size="14.00" fill="#000000">basesystem (0.0 B)</text>
</g>
<!-- glibc&#45;common -->
<g id="node8" class="node">
<title>glibc&#45;common</title>
<text text-anchor="middle" x="285.9" y="-475.21" font-family="Helvetica,sans-Serif" font-weight="bold" font-size="14.00" fill="#000000">glibc&#45;common (7.8 MB)</text>
</g>
<!-- glibc&#45;minimal&#45;langpack -->
<g id="node9" class="node">
<title>glibc&#45;minimal&#45;langpack</title>
<text text-anchor="middle" x="177.92" y="-416.42" font-family="Helvetica,sans-Serif" font-weight="bold" font-size="14.00" fill="#000000">glibc&#45;minimal&#45;langpack (0.0 B)</text>
</g>
<!-- libgcc -->
<g id="node10" class="node">
<title>libgcc</title>
<text text-anchor="middle" x="423.01" y="-58.016" font-family="Helvetica,sans-Serif" font-weight="bold" font-size="14.00" fill="#000000">libgcc (194.2 kB)</text>
</g>
<!-- ncurses&#45;base -->
<g id="node11" class="node">
<title>ncurses&#45;base</title>
<text text-anchor="middle" x="527.58" y="-669.63" font-family="Helvetica,sans-Serif" font-weight="bold" font-size="14.00" fill="#000000">ncurses&#45;base (278.5 kB)</text>
</g>
<!-- libacl -->
<g id="node12" class="node">
<title>libacl</title>
<text text-anchor="middle" x="182.07" y="-14.3" font-family="Helvetica,sans-Serif" font-weight="bold" font-size="14.00" fill="#000000">libacl (40.7 kB)</text>
</g>
<!-- libattr -->
<g id="node13" class="node">
<title>libattr</title>
<text text-anchor="middle" x="293.59" y="-44.116" font-family="Helvetica,sans-Serif" font-weight="bold" font-size="14.00" fill="#000000">libattr (29.0 kB)</text>
</g>
<!-- libcap -->
<g id="node14" class="node">
<title>libcap</title>
<text text-anchor="middle" x="56.5" y="-129.05" font-family="Helvetica,sans-Serif" font-weight="bold" font-size="14.00" fill="#000000">libcap (145.4 kB)</text>
</g>
<!-- libselinux -->
<g id="node15" class="node">
<title>libselinux</title>
<text text-anchor="middle" x="184.99" y="-237.71" font-family="Helvetica,sans-Serif" font-weight="bold" font-size="14.00" fill="#000000">libselinux (173.6 kB)</text>
</g>
<!-- libsepol -->
<g id="node16" class="node">
<title>libsepol</title>
<text text-anchor="middle" x="323.11" y="-326.69" font-family="Helvetica,sans-Serif" font-weight="bold" font-size="14.00" fill="#000000">libsepol (747.3 kB)</text>
</g>
<!-- pcre2 -->
<g id="node17" class="node">
<title>pcre2</title>
<text text-anchor="middle" x="55.47" y="-280.59" font-family="Helvetica,sans-Serif" font-weight="bold" font-size="14.00" fill="#000000">pcre2 (743.5 kB)</text>
</g>
<!-- fedora&#45;release&#45;common -->
<g id="node18" class="node">
<title>fedora&#45;release&#45;common</title>
<text text-anchor="middle" x="1368.8" y="-176.01" font-family="Helvetica,sans-Serif" font-weight="bold" font-size="14.00" fill="#000000">fedora&#45;release&#45;common (14.2 kB)</text>
</g>
<!-- fedora&#45;repos -->
<g id="node19" class="node">
<title>fedora&#45;repos</title>
<text text-anchor="middle" x="1419.6" y="-275.48" font-family="Helvetica,sans-Serif" font-weight="bold" font-size="14.00" fill="#000000">fedora&#45;repos (8.4 kB)</text>
</g>
<!-- fedora&#45;gpg&#45;keys -->
<g id="node20" class="node">
<title>fedora&#45;gpg&#45;keys</title>
<text text-anchor="middle" x="1569.4" y="-349.21" font-family="Helvetica,sans-Serif" font-weight="bold" font-size="14.00" fill="#000000">fedora&#45;gpg&#45;keys (103.0 kB)</text>
</g>
<!-- tzdata -->
<g id="node21" class="node">
<title>tzdata</title>
<text text-anchor="middle" x="202.96" y="-679.54" font-family="Helvetica,sans-Serif" font-weight="bold" font-size="14.00" fill="#000000">tzdata (1.8 MB)</text>
</g>
<!-- coreutils&#45;single -->
<g id="node22" class="node">
<title>coreutils&#45;single</title>
<text text-anchor="middle" x="198.51" y="-106.07" font-family="Helvetica,sans-Serif" font-weight="bold" font-size="14.00" fill="#000000">coreutils&#45;single (1.4 MB)</text>
</g>
</g>

<script type="text/javascript"><![CDATA[

document.addEventListener('click', function(e) {
      e = e || window.event;
      var target = e.target || e.srcElement;
      text = target.parentElement.querySelector("title").textContent;

      console.log("Clicked on: " + text);
      // reset all strokes
      var nodes = document.getElementsByClassName("edge");

      for (index = 0, len = nodes.length; index < len; ++index) {
          //var title = nodes[index].querySelector("title").textContent.split("->");
          id = nodes[index].id;
          document.getElementById(id).querySelector("path").setAttribute("stroke-width", "1");
          document.getElementById(id).querySelector("path").setAttribute("stroke-opacity", "0.5");
          document.getElementById(id).querySelector("path").setAttribute("stroke", "#444444");
          document.getElementById(id).querySelector("polygon").setAttribute("stroke-width", "1");
          document.getElementById(id).querySelector("polygon").setAttribute("stroke-opacity", "0.5");
          document.getElementById(id).querySelector("polygon").setAttribute("stroke", "#444444");
      }
      // reset text highlight
      pkgs = document.getElementsByClassName("node");
      for (index2 = 0, len2 = pkgs.length; index2 < len2; ++index2) {
          target_id = pkgs[index2].id;
          document.getElementById(target_id).querySelector("text").setAttribute("font-weight", "normal");
      }

      // highlight deps
      var nodes = document.getElementsByClassName("edge");
      for (index = 0, len = nodes.length; index < len; ++index) {
        var title = nodes[index].querySelector("title").textContent.split("->");

        if (title[0] == text) {
          id = nodes[index].id;
          //console.log("ID:   " + id);
          document.getElementById(id).querySelector("path").setAttribute("stroke-width", "3");
          document.getElementById(id).querySelector("path").setAttribute("stroke-opacity", "1");
          document.getElementById(id).querySelector("path").setAttribute("stroke", "#aa3333");
          document.getElementById(id).querySelector("polygon").setAttribute("stroke-width", "5");
          document.getElementById(id).querySelector("polygon").setAttribute("stroke-opacity", "1");
          document.getElementById(id).querySelector("polygon").setAttribute("stroke", "#aa3333");

        }
        if (title[1] == text) {
          id = nodes[index].id;
          document.getElementById(id).querySelector("path").setAttribute("stroke-width", "3");
          document.getElementById(id).querySelector("path").setAttribute("stroke-opacity", "1");
          document.getElementById(id).querySelector("path").setAttribute("stroke", "#333377");
          document.getElementById(id).querySelector("polygon").setAttribute("stroke-width", "5");
          document.getElementById(id).querySelector("polygon").setAttribute("stroke-opacity", "1");
          document.getElementById(id).querySelector("polygon").setAttribute("stroke", "#333377");
        }

        if (title[0] == text || title[1] == text) {
          pkgs = document.getElementsByClassName("node");
          for (index2 = 0, len2 = pkgs.length; index2 < len2; ++index2) {
            var pkg_name = pkgs[index2].querySelector("title").textContent;
            if (pkg_name == title[0] || pkg_name == title[1]) {
              target_id = pkgs[index2].id;
              document.getElementById(target_id).querySelector("text").setAttribute("font-weight", "bold");
            }
          }
        }
      }


  }, false);

]]></script>


  <text
     id="text7664"
     y="19.384439"
     x="9.9055691"
     style="font-style:normal;font-weight:normal;font-size:12.49485588px;line-height:125%;font-family:sans-serif;letter-spacing:0px;word-spacing:0px;fill:#000000;fill-opacity:1;stroke:none;stroke-width:0.3123714px;stroke-linecap:butt;stroke-linejoin:miter;stroke-opacity:1"
     xml:space="preserve"><tspan
       style="font-size:12.00258541px;stroke-width:0.3123714px"
       y="19.384439"
       x="9.9055691"
       id="tspan7666"><a href="report-use-case-definition--freeipa-trust-controller--rawhide.html"><tspan
   style="font-weight:bold;font-size:12.00258541px;fill:#0066ff;stroke-width:0.3123714px"
   id="tspan7668">FreeIPA Trust Controller</tspan></a> on <a href="report-base-definition--minimal-langpack-base-2--rawhide.html"><tspan
   style="font-weight:bold;font-size:12.00258541px;fill:#0066ff;stroke-width:0.3123714px"
   id="tspan7676">Minimal Base 2</tspan></a> (Fedora rawhide)</tspan></text>
  <text
     xml:space="preserve"
     style="font-style:normal;font-weight:normal;font-size:11.85299969px;line-height:125%;font-family:sans-serif;letter-spacing:0px;word-spacing:0px;fill:#000000;fill-opacity:1;stroke:none;stroke-width:0.296325px;stroke-linecap:butt;stroke-linejoin:miter;stroke-opacity:1"
     x="9.9365959"
     y="58.520042"
     id="text8235"><tspan
       id="tspan8237"
       x="9.9365959"
       y="58.520042"
       style="stroke-width:0.296325px;font-size:10.80232704px;fill:#666666">Generated by <a href="./"><tspan
   style="fill:#3771c8"
   id="tspan8255">Feedback Pipeline</tspan></a></tspan></text>
  <text
     xml:space="preserve"
     style="font-style:normal;font-weight:normal;font-size:12.49485588px;line-height:125%;font-family:sans-serif;letter-spacing:0px;word-spacing:0px;fill:#000000;fill-opacity:1;stroke:none;stroke-width:0.3123714px;stroke-linecap:butt;stroke-linejoin:miter;stroke-opacity:1"
     x="9.9055691"
     y="38.974205"
     id="text8245"><a href="graph-simple--freeipa-trust-controller--minimal-langpack-base-2--rawhide.svg"><tspan
       id="tspan8247"
       x="9.9055691"
       y="38.974205"
       style="font-weight:normal;font-size:12.00258541px;fill:#0066ff;stroke-width:0.3123714px">Collapse base image</tspan></a></text>

</svg>
