<?xml version="1.0" encoding="UTF-8" standalone="no"?>
<!DOCTYPE svg PUBLIC "-//W3C//DTD SVG 1.1//EN"
 "http://www.w3.org/Graphics/SVG/1.1/DTD/svg11.dtd">
<!-- Generated by graphviz version 2.40.1 (0)
 -->
<!-- Title: packages Pages: 1 -->
<svg width="1376pt" height="717pt"
 viewBox="0.00 0.00 1651.18 860.93" xmlns="http://www.w3.org/2000/svg" xmlns:xlink="http://www.w3.org/1999/xlink">
<g id="graph0" class="graph" transform="scale(.8333 .8333) rotate(0) translate(116.6165 729.1779)">
<title>packages</title>
<polygon fill="#dae2ff" stroke="transparent" points="-116.6165,131.7515 -116.6165,-729.1779 1534.5645,-729.1779 1534.5645,131.7515 -116.6165,131.7515"/>
<polygon fill="#fbb4ae" stroke="#fbb4ae" points="1053.8027,-201.8126 1069.6509,-213.2782 1120.6309,-246.407 1120.7648,-246.5029 1121.3016,-258.7179 1121.17,-269.1499 1122.0726,-277.991 1121.913,-290.6274 1122.5897,-306.0251 1115.4663,-310.3392 1105.3788,-315.7813 1096.5303,-319.3553 1089.7839,-321.6197 1089.3875,-321.7255 1077.8763,-324.0304 1074.1033,-324.2734 1064.5723,-324.243 1063.7711,-324.2957 1062.7538,-324.4336 1055.7512,-324.9027 1046.2635,-326.1952 1050.0842,-279.3948 1053.2286,-276.6949 1049.6345,-273.3026 1049.6345,-273.3026 1053.2286,-276.6949 1050.0842,-279.3948 1046.2635,-326.1952 1043.2555,-326.8095 1027.5175,-332.2192 1025.3926,-333.2339 992.7097,-351.1501 978.5568,-358.1325 978.5401,-371.9935 892.5604,-372.4353 888.0997,-376.3134 884.3721,-345.1726 880.8354,-378.136 881.503,-378.3467 885.8662,-378.3467 885.8662,-378.3467 881.503,-378.3467 880.8354,-378.136 884.3721,-345.1726 888.0997,-376.3134 892.5604,-372.4353 978.5401,-371.9935 978.8769,-381.6341 979.2222,-384.8555 981.684,-455.8991 904.8525,-523.5821 894.742,-532.0922 885.2596,-527.4572 871.2259,-521.9133 868.849,-422.3793 871.0966,-381.4382 874.394,-378.4541 871.039,-375.3949 871.039,-375.3949 874.394,-378.4541 871.0966,-381.4382 868.849,-422.3793 871.2259,-521.9133 849.5938,-514.3759 845.2887,-513.082 845.2711,-511.9808 842.8298,-447.8783 842.8298,-447.8783 845.2711,-511.9808 845.2887,-513.082 818.8574,-506.9916 724.5028,-461.3917 698.8443,-464.3908 694.797,-464.9464 692.829,-465.2972 678.7467,-468.0983 668.7053,-470.5078 669.2802,-322.5479 673.876,-325.1906 673.876,-325.1906 669.2802,-322.5479 668.7053,-470.5078 660.7958,-472.5677 643.6647,-477.7303 621.2118,-484.9472 613.5336,-484.3148 565.4234,-446.0413 568.9326,-348.2765 568.8947,-319.4858 569.1302,-312.9846 569.7543,-307.3805 574.3702,-178.7805 646.6349,-183.4621 661.1329,-184.0955 669.5729,-184.1069 688.0797,-183.348 688.1544,-183.3418 700.6036,-182.0419 704.2248,-181.5108 777.6239,-124.5048 815.9951,-119.3971 825.0453,-118.0072 834.2625,-116.2145 843.637,-114.0066 857.8027,-110.3802 869.4439,-106.6909 869.8588,-106.551 914.0143,-90.7626 963.5256,-106.7446 965.0823,-111.7483 1013.4653,-161.9286 1023.0196,-271.3261 947.8433,-250.8886 945.3854,-278.802 945.0891,-281.0891 870.5179,-262.804 867.9759,-259.9597 864.8834,-258.9377 863.1685,-257.6567 860.9604,-257.6567 860.5703,-257.5435 860.5703,-257.5435 860.9604,-257.6567 863.1685,-257.6567 864.8834,-258.9377 867.9759,-259.9597 870.5179,-262.804 945.0891,-281.0891 945.3854,-278.802 947.8433,-250.8886 1023.0196,-271.3261 1013.4653,-161.9286 1019.6157,-167.9887 1036.0206,-185.1662 1038.3755,-187.1903 1049.4241,-198.2292 1051.4037,-199.9216 1053.8027,-201.8126 1053.8027,-201.8126"/>
<polygon fill="#fed9a6" stroke="#fed9a6" points="1310.0674,-363.0238 1322.9666,-369.6024 1369.5686,-395.0799 1372.1205,-394.6521 1383.2666,-392.0378 1389.1687,-390.3895 1404.9397,-385.6302 1441.3253,-373.8519 1447.8721,-309.627 1455.1991,-251.6434 1339.0135,-266.5994 1319.9113,-265.442 1330.198,-133.3923 1314.2897,-137.5248 1311.1725,-141.7906 1191.9677,-176.232 1191.9452,-99.1048 1181.7217,-98.0443 1180.0447,-97.754 1173.437,-96.3784 1171.4171,-132.1968 1165.5935,-180.7994 1161.5931,-177.5761 1156.7422,-176.2699 1156.7422,-176.2699 1161.5931,-177.5761 1165.5935,-180.7994 1171.4171,-132.1968 1173.437,-96.3784 1180.0447,-97.754 1181.7217,-98.0443 1191.9452,-99.1048 1191.9677,-176.232 1311.1725,-141.7906 1314.2897,-137.5248 1330.198,-133.3923 1319.9113,-265.442 1339.0135,-266.5994 1455.1991,-251.6434 1458.3441,-233.4542 1420.5602,-184.3224 1360.8214,-124.7876 1380.0057,-46.3575 1382.8804,-35.7346 1383.9554,-4.7493 1384.1066,-2.1634 1388.4031,50.1756 1301.1637,125.9809 1294.1517,127.7515 1249.6278,119.857 1236.4601,118.336 1230.5226,117.8949 1227.804,-13.4127 1222.7905,-16.2212 1221.3813,-17.8107 1223.5181,-20.3241 1227.6989,-22.6213 1232.6632,-22.6213 1232.6632,-22.6213 1227.6989,-22.6213 1223.5181,-20.3241 1221.3813,-17.8107 1222.7905,-16.2212 1227.804,-13.4127 1230.5226,117.8949 1221.1768,117.3933 1211.0444,117.0587 1209.4974,117.0714 1162.6624,118.4227 1118.6281,107.183 1088.3414,24.6275 1075.4402,-17.8814 1075.3158,-18.2317 1065.8707,-43.0039 963.5256,-106.7446 965.0823,-111.7483 1013.4653,-161.9286 1019.6157,-167.9887 1036.0206,-185.1662 1038.3755,-187.1903 1049.4241,-198.2292 1051.4037,-199.9216 1053.8027,-201.8126 1069.6509,-213.2782 1120.6309,-246.407 1120.7648,-246.5029 1121.3016,-258.7179 1121.17,-269.1499 1122.0726,-277.991 1121.913,-290.6274 1122.5897,-306.0251 1115.4663,-310.3392 1105.3788,-315.7813 1096.5303,-319.3553 1089.7839,-321.6197 1089.3875,-321.7255 1077.8763,-324.0304 1074.1033,-324.2734 1064.5723,-324.243 1063.7711,-324.2957 1062.7538,-324.4336 1055.7512,-324.9027 1046.2635,-326.1952 1043.2555,-326.8095 1027.5175,-332.2192 1025.3926,-333.2339 992.7097,-351.1501 978.5568,-358.1325 978.5401,-371.9935 978.8769,-381.6341 979.2222,-384.8555 981.684,-455.8991 904.8525,-523.5821 894.742,-532.0922 906.1214,-576.5838 921.7816,-651.916 938.3771,-672.1435 1043.2976,-697.2117 1045.2239,-697.7126 1052.0082,-699.6208 1052.714,-656.4577 1052.714,-656.4577 1052.0082,-699.6208 1060.3585,-702.3253 1061.9269,-562.5497 1066.5361,-563.8369 1072.6016,-562.028 1076.2971,-558.8727 1076.2484,-558.8011 1073.0369,-556.1492 1066.9781,-554.3336 1066.9781,-554.3336 1073.0369,-556.1492 1076.2484,-558.8011 1076.2971,-558.8727 1072.6016,-562.028 1066.5361,-563.8369 1061.9269,-562.5497 1060.3585,-702.3253 1070.9346,-705.9756 1090.0223,-713.7825 1091.9459,-714.6496 1114.2511,-725.1779 1226.7509,-674.2642 1213.5322,-576.3995 1210.7489,-550.9283 1210.2532,-550.4735 1204.4457,-544.5585 1200.4523,-540.8568 1190.4069,-531.9902 1189.9045,-531.5922 1175.9791,-521.1525 1097.6694,-466.0366 1103.0586,-457.8325 1108.22,-450.5425 1129.8496,-426.42 1154.2394,-385.543 1168.9523,-364.8108 1181.3853,-350.9448 1182.6862,-349.247 1186.616,-349.0632 1189.0819,-349.1322 1191.5549,-349.0151 1198.2415,-348.9485 1199.5636,-348.9848 1202.7148,-349.1897 1211.7576,-349.0944 1212.3651,-349.0421 1216.4265,-348.8453 1216.5723,-348.8328 1215.9891,-310.7394 1215.9891,-310.7394 1216.5723,-348.8328 1218.9362,-348.8058 1227.0703,-349.0178 1233.5311,-348.6981 1234.6428,-348.6848 1234.7683,-348.6786 1234.8267,-348.6779 1239.1968,-348.7878 1245.7336,-349.1979 1254.3896,-349.0868 1252.4587,-307.0103 1254.0886,-274.6906 1258.0118,-271.3063 1257.973,-271.251 1254.1251,-268.1459 1249.1006,-266.7535 1249.1006,-266.7535 1254.1251,-268.1459 1257.973,-271.251 1258.0118,-271.3063 1254.0886,-274.6906 1252.4587,-307.0103 1254.3896,-349.0868 1257.4526,-349.2759 1259.8345,-349.5119 1273.1748,-351.3354 1281.6466,-353.1239 1287.3523,-354.7548 1295.8584,-357.5065 1304.7393,-360.7095 1303.8986,-333.2608 1303.8986,-333.2608 1304.7393,-360.7095 1310.0674,-363.0238 1310.0674,-363.0238"/>
<polygon fill="#bbd7d9" stroke="#bbd7d9" points="1390.9554,-676.0557 1392.3356,-675.6879 1392.7274,-675.5916 1472.3147,-649.0587 1475.2489,-645.2287 1525.472,-563.2396 1530.5645,-555.3575 1528.3783,-538.2197 1522.7028,-483.4407 1519.1616,-438.5009 1441.3253,-373.8519 1404.9397,-385.6302 1389.1687,-390.3895 1383.2666,-392.0378 1372.1205,-394.6521 1369.5686,-395.0799 1322.9666,-369.6024 1310.0674,-363.0238 1304.7393,-360.7095 1295.8584,-357.5065 1287.3523,-354.7548 1281.6466,-353.1239 1273.1748,-351.3354 1259.8345,-349.5119 1257.4526,-349.2759 1254.3896,-349.0868 1245.7336,-349.1979 1243.8848,-391.4338 1238.9501,-425.9894 1239.2292,-426.0723 1240.724,-428.7621 1245.3186,-432.5141 1293.1067,-430.6909 1334.7684,-431.8666 1324.8408,-441.7324 1324.8408,-441.7324 1334.7684,-431.8666 1293.1067,-430.6909 1245.3186,-432.5141 1240.724,-428.7621 1239.2292,-426.0723 1238.9501,-425.9894 1243.8848,-391.4338 1245.7336,-349.1979 1239.1968,-348.7878 1234.8267,-348.6779 1234.7683,-348.6786 1234.6428,-348.6848 1233.5311,-348.6981 1227.0703,-349.0178 1218.9362,-348.8058 1216.5723,-348.8328 1216.4265,-348.8453 1212.3651,-349.0421 1211.7576,-349.0944 1202.7148,-349.1897 1199.5636,-348.9848 1198.2415,-348.9485 1191.5549,-349.0151 1189.0819,-349.1322 1186.616,-349.0632 1182.6862,-349.247 1181.3853,-350.9448 1168.9523,-364.8108 1154.2394,-385.543 1129.8496,-426.42 1108.22,-450.5425 1103.0586,-457.8325 1097.6694,-466.0366 1175.9791,-521.1525 1189.9045,-531.5922 1190.4069,-531.9902 1200.4523,-540.8568 1204.4457,-544.5585 1210.2532,-550.4735 1210.7489,-550.9283 1213.5322,-576.3995 1226.7509,-674.2642 1259.5037,-685.5543 1267.5787,-687.3132 1325.5199,-695.9118 1335.7512,-697.7823 1339.2247,-696.0663 1357.1627,-687.9401 1357.7668,-687.6917 1367.301,-683.9674 1382.4487,-678.6743 1390.9554,-676.0557 1390.9554,-676.0557"/>
<polygon fill="#d8d6da" stroke="#d8d6da" points="67.9044,-120.2108 44.1936,-118.9798 32.1213,-117.8925 20.8767,-119.1688 -71.8991,-171.9556 -109.6984,-211.4934 -112.5822,-227.6801 -112.6165,-227.8531 -104.6297,-269.2512 -91.7344,-286.5432 -14.7762,-399.813 -26.2691,-455.5587 108.1658,-466.6285 110.3014,-431.7292 109.0471,-370.3716 110.7292,-370.3083 111.3306,-355.3301 111.3306,-355.3301 110.7292,-370.3083 109.0471,-370.3716 110.3014,-431.7292 108.1658,-466.6285 -26.2691,-455.5587 -32.1386,-481.0773 -38.9853,-505.8511 -42.5095,-535.2686 -41.5251,-537.3691 63.4856,-602.5708 104.0703,-611.2513 111.0773,-612.8971 114.7243,-613.8301 128.4674,-617.6349 126.9066,-509.3162 129.8078,-472.5567 129.1051,-472.3525 129.0858,-373.5085 131.0079,-374.8669 140.829,-381.3853 153.2327,-388.5299 158.5642,-391.359 162.2151,-393.1312 165.1096,-394.2817 180.8106,-399.8489 185.5773,-401.1125 214.9599,-407.6068 217.3999,-343.3501 221.7429,-340.5074 225.6579,-369.8377 228.293,-337.133 232.2569,-337.133 236.3567,-407.4144 236.4685,-414.1613 240.8053,-416.0674 241.7647,-402.185 243.1922,-340.3093 248.7056,-341.9109 252.6507,-340.8368 257.2744,-336.7527 253.5629,-333.6226 248.4811,-332.1671 248.4811,-332.1671 253.5629,-333.6226 257.2744,-336.7527 252.6507,-340.8368 248.7056,-341.9109 243.1922,-340.3093 241.7647,-402.185 240.8053,-416.0674 236.4685,-414.1613 236.3567,-407.4144 232.2569,-337.133 228.293,-337.133 225.6579,-369.8377 221.7429,-340.5074 217.3999,-343.3501 214.9599,-407.6068 185.5773,-401.1125 180.8106,-399.8489 165.1096,-394.2817 162.2151,-393.1312 158.5642,-391.359 153.2327,-388.5299 140.829,-381.3853 131.0079,-374.8669 129.0858,-373.5085 129.1051,-472.3525 129.8078,-472.5567 126.9066,-509.3162 128.4674,-617.6349 140.758,-621.5483 138.1928,-528.8225 139.6763,-474.0251 144.267,-476.6743 150.4682,-476.6743 154.6727,-474.3086 156.2642,-472.4645 154.6905,-470.6184 149.6479,-467.7434 145.1707,-467.7434 145.1707,-467.7434 149.6479,-467.7434 154.6905,-470.6184 156.2642,-472.4645 154.6727,-474.3086 150.4682,-476.6743 144.267,-476.6743 139.6763,-474.0251 138.1928,-528.8225 140.758,-621.5483 144.1201,-622.7576 158.6551,-628.5968 172.7607,-635.1503 180.0866,-630.6835 182.2522,-629.4642 319.6262,-558.3379 338.1527,-487.0856 338.8325,-484.6714 368.3049,-457.9168 416.3175,-446.0882 426.4419,-443.827 430.0032,-443.1963 434.2673,-356.1559 432.8608,-315.0927 432.8608,-315.0927 434.2673,-356.1559 430.0032,-443.1963 446.1265,-441.079 452.2968,-440.4117 451.8638,-341.3485 455.1456,-319.4 458.8899,-317.2566 460.6226,-315.1148 460.6226,-315.1148 458.8899,-317.2566 455.1456,-319.4 451.8638,-341.3485 452.2968,-440.4117 461.5779,-439.8367 472.3029,-439.6675 488.5696,-440.1625 565.4234,-446.0413 568.9326,-348.2765 568.8947,-319.4858 569.1302,-312.9846 569.7543,-307.3805 574.3702,-178.7805 533.1871,-149.4363 489.8159,-200.4071 383.1435,-221.7021 378.4201,-227.1712 376.6069,-227.1712 376.4577,-227.1271 373.3374,-227.1271 373.3374,-227.1271 376.4577,-227.1271 376.6069,-227.1712 378.4201,-227.1712 383.1435,-221.7021 489.8159,-200.4071 533.1871,-149.4363 512.479,-113.3765 383.89,-85.9025 368.9952,-82.0877 361.64,-79.8939 342.5259,-73.3808 337.5966,-71.4962 326.1206,-66.3771 322.5835,-67.2988 319.7614,-67.9813 302.9646,-71.4176 290.1809,-73.5526 246.481,-78.3935 240.2706,-79.4153 175.6116,-114.4974 135.6181,-112.8038 134.7055,-112.7319 117.3031,-116.1588 108.9131,-117.6494 106.8681,-117.8951 96.2593,-118.9678 92.4295,-119.2818 83.9448,-119.8154 82.8486,-226.6796 79.0451,-268.2585 79.6811,-268.4503 81.6815,-268.4503 85.5864,-272.006 90.1838,-273.3403 90.1838,-273.3403 85.5864,-272.006 81.6815,-268.4503 79.6811,-268.4503 79.0451,-268.2585 75.3378,-268.2585 75.3378,-268.2585 79.0451,-268.2585 82.8486,-226.6796 83.9448,-119.8154 67.9044,-120.2108 67.9044,-120.2108"/>
<polyline fill="none" stroke="#000000" points="843.637,-114.0066 834.2625,-116.2145 825.0453,-118.0072 815.9951,-119.3971 777.6239,-124.5048 704.2248,-181.5108 700.6036,-182.0419 688.1544,-183.3418 688.0797,-183.348 669.5729,-184.1069 661.1329,-184.0955 646.6349,-183.4621 574.3702,-178.7805 569.7543,-307.3805 569.1302,-312.9846 568.8947,-319.4858 568.9326,-348.2765 565.4234,-446.0413 613.5336,-484.3148 621.2118,-484.9472 643.6647,-477.7303 660.7958,-472.5677 668.7053,-470.5078 678.7467,-468.0983 692.829,-465.2972 694.797,-464.9464 698.8443,-464.3908 724.5028,-461.3917 818.8574,-506.9916 845.2887,-513.082 849.5938,-514.3759 871.2259,-521.9133 885.2596,-527.4572 894.742,-532.0922 904.8525,-523.5821 981.684,-455.8991 979.2222,-384.8555 978.8769,-381.6341 978.5401,-371.9935 978.5568,-358.1325 992.7097,-351.1501 1025.3926,-333.2339 1027.5175,-332.2192 1043.2555,-326.8095 1046.2635,-326.1952 1055.7512,-324.9027 1062.7538,-324.4336 1063.7711,-324.2957 1064.5723,-324.243 1074.1033,-324.2734 1077.8763,-324.0304 1089.3875,-321.7255 1089.7839,-321.6197 1096.5303,-319.3553 1105.3788,-315.7813 1115.4663,-310.3392 1122.5897,-306.0251 1121.913,-290.6274 1122.0726,-277.991 1121.17,-269.1499 1121.3016,-258.7179 1120.7648,-246.5029 1120.6309,-246.407 1069.6509,-213.2782 1053.8027,-201.8126 1051.4037,-199.9216 1049.4241,-198.2292 1038.3755,-187.1903 1036.0206,-185.1662 1019.6157,-167.9887 1013.4653,-161.9286 965.0823,-111.7483 963.5256,-106.7446 914.0143,-90.7626 869.8588,-106.551 869.4439,-106.6909 857.8027,-110.3802 843.637,-114.0066 "/>
<polyline fill="none" stroke="#000000" points="1103.0586,-457.8325 1108.22,-450.5425 1129.8496,-426.42 1154.2394,-385.543 1168.9523,-364.8108 1181.3853,-350.9448 1182.6862,-349.247 1186.616,-349.0632 1189.0819,-349.1322 1191.5549,-349.0151 1198.2415,-348.9485 1199.5636,-348.9848 1202.7148,-349.1897 1211.7576,-349.0944 1212.3651,-349.0421 1216.4265,-348.8453 1216.5723,-348.8328 1218.9362,-348.8058 1227.0703,-349.0178 1233.5311,-348.6981 1234.6428,-348.6848 1234.7683,-348.6786 1234.8267,-348.6779 1239.1968,-348.7878 1245.7336,-349.1979 1254.3896,-349.0868 1257.4526,-349.2759 1259.8345,-349.5119 1273.1748,-351.3354 1281.6466,-353.1239 1287.3523,-354.7548 1295.8584,-357.5065 1304.7393,-360.7095 1310.0674,-363.0238 1322.9666,-369.6024 1369.5686,-395.0799 1372.1205,-394.6521 1383.2666,-392.0378 1389.1687,-390.3895 1404.9397,-385.6302 1441.3253,-373.8519 1447.8721,-309.627 1455.1991,-251.6434 1458.3441,-233.4542 1420.5602,-184.3224 1360.8214,-124.7876 1380.0057,-46.3575 1382.8804,-35.7346 1383.9554,-4.7493 1384.1066,-2.1634 1388.4031,50.1756 1301.1637,125.9809 1294.1517,127.7515 1249.6278,119.857 1236.4601,118.336 1230.5226,117.8949 1221.1768,117.3933 1211.0444,117.0587 1209.4974,117.0714 1162.6624,118.4227 1118.6281,107.183 1088.3414,24.6275 1075.4402,-17.8814 1075.3158,-18.2317 1065.8707,-43.0039 963.5256,-106.7446 965.0823,-111.7483 1013.4653,-161.9286 1019.6157,-167.9887 1036.0206,-185.1662 1038.3755,-187.1903 1049.4241,-198.2292 1051.4037,-199.9216 1053.8027,-201.8126 1069.6509,-213.2782 1120.6309,-246.407 1120.7648,-246.5029 1121.3016,-258.7179 1121.17,-269.1499 1122.0726,-277.991 1121.913,-290.6274 1122.5897,-306.0251 1115.4663,-310.3392 1105.3788,-315.7813 1096.5303,-319.3553 1089.7839,-321.6197 1089.3875,-321.7255 1077.8763,-324.0304 1074.1033,-324.2734 1064.5723,-324.243 1063.7711,-324.2957 1062.7538,-324.4336 1055.7512,-324.9027 1046.2635,-326.1952 1043.2555,-326.8095 1027.5175,-332.2192 1025.3926,-333.2339 992.7097,-351.1501 978.5568,-358.1325 978.5401,-371.9935 978.8769,-381.6341 979.2222,-384.8555 981.684,-455.8991 904.8525,-523.5821 894.742,-532.0922 906.1214,-576.5838 921.7816,-651.916 938.3771,-672.1435 1043.2976,-697.2117 1045.2239,-697.7126 1052.0082,-699.6208 1060.3585,-702.3253 1070.9346,-705.9756 1090.0223,-713.7825 1091.9459,-714.6496 1114.2511,-725.1779 1226.7509,-674.2642 1213.5322,-576.3995 1210.7489,-550.9283 1210.2532,-550.4735 1204.4457,-544.5585 1200.4523,-540.8568 1190.4069,-531.9902 1189.9045,-531.5922 1175.9791,-521.1525 1097.6694,-466.0366 1103.0586,-457.8325 "/>
<polyline fill="none" stroke="#000000" points="1204.4457,-544.5585 1210.2532,-550.4735 1210.7489,-550.9283 1213.5322,-576.3995 1226.7509,-674.2642 1259.5037,-685.5543 1267.5787,-687.3132 1325.5199,-695.9118 1335.7512,-697.7823 1339.2247,-696.0663 1357.1627,-687.9401 1357.7668,-687.6917 1367.301,-683.9674 1382.4487,-678.6743 1390.9554,-676.0557 1392.3356,-675.6879 1392.7274,-675.5916 1472.3147,-649.0587 1475.2489,-645.2287 1525.472,-563.2396 1530.5645,-555.3575 1528.3783,-538.2197 1522.7028,-483.4407 1519.1616,-438.5009 1441.3253,-373.8519 1404.9397,-385.6302 1389.1687,-390.3895 1383.2666,-392.0378 1372.1205,-394.6521 1369.5686,-395.0799 1322.9666,-369.6024 1310.0674,-363.0238 1304.7393,-360.7095 1295.8584,-357.5065 1287.3523,-354.7548 1281.6466,-353.1239 1273.1748,-351.3354 1259.8345,-349.5119 1257.4526,-349.2759 1254.3896,-349.0868 1245.7336,-349.1979 1239.1968,-348.7878 1234.8267,-348.6779 1234.7683,-348.6786 1234.6428,-348.6848 1233.5311,-348.6981 1227.0703,-349.0178 1218.9362,-348.8058 1216.5723,-348.8328 1216.4265,-348.8453 1212.3651,-349.0421 1211.7576,-349.0944 1202.7148,-349.1897 1199.5636,-348.9848 1198.2415,-348.9485 1191.5549,-349.0151 1189.0819,-349.1322 1186.616,-349.0632 1182.6862,-349.247 1181.3853,-350.9448 1168.9523,-364.8108 1154.2394,-385.543 1129.8496,-426.42 1108.22,-450.5425 1103.0586,-457.8325 1097.6694,-466.0366 1175.9791,-521.1525 1189.9045,-531.5922 1190.4069,-531.9902 1200.4523,-540.8568 1204.4457,-544.5585 "/>
<polyline fill="none" stroke="#000000" points="342.5259,-73.3808 361.64,-79.8939 368.9952,-82.0877 383.89,-85.9025 512.479,-113.3765 533.1871,-149.4363 574.3702,-178.7805 569.7543,-307.3805 569.1302,-312.9846 568.8947,-319.4858 568.9326,-348.2765 565.4234,-446.0413 488.5696,-440.1625 472.3029,-439.6675 461.5779,-439.8367 452.2968,-440.4117 446.1265,-441.079 430.0032,-443.1963 426.4419,-443.827 416.3175,-446.0882 368.3049,-457.9168 338.8325,-484.6714 338.1527,-487.0856 319.6262,-558.3379 182.2522,-629.4642 180.0866,-630.6835 172.7607,-635.1503 158.6551,-628.5968 144.1201,-622.7576 140.758,-621.5483 128.4674,-617.6349 114.7243,-613.8301 111.0773,-612.8971 104.0703,-611.2513 63.4856,-602.5708 -41.5251,-537.3691 -42.5095,-535.2686 -38.9853,-505.8511 -32.1386,-481.0773 -26.2691,-455.5587 -14.7762,-399.813 -91.7344,-286.5432 -104.6297,-269.2512 -112.6165,-227.8531 -112.5822,-227.6801 -109.6984,-211.4934 -71.8991,-171.9556 20.8767,-119.1688 32.1213,-117.8925 44.1936,-118.9798 67.9044,-120.2108 83.9448,-119.8154 92.4295,-119.2818 96.2593,-118.9678 106.8681,-117.8951 108.9131,-117.6494 117.3031,-116.1588 134.7055,-112.7319 135.6181,-112.8038 175.6116,-114.4974 240.2706,-79.4153 246.481,-78.3935 290.1809,-73.5526 302.9646,-71.4176 319.7614,-67.9813 322.5835,-67.2988 326.1206,-66.3771 337.5966,-71.4962 342.5259,-73.3808 "/>
<!-- filesystem&#45;&gt;setup -->
<g id="edge1" class="edge">
<title>filesystem&#45;&gt;setup</title>
<path fill="none" stroke="#444444" stroke-opacity="0.333333" d="M796.6515,-275.7578C777.239,-283.1098 754.6664,-291.6585 734.4127,-299.329"/>
<polygon fill="#444444" fill-opacity="0.333333" stroke="#444444" stroke-opacity="0.333333" points="733.0984,-296.0841 724.9862,-302.8991 735.5777,-302.6304 733.0984,-296.0841"/>
</g>
<!-- filesystem&#45;&gt;bash -->
<g id="edge2" class="edge">
<title>filesystem&#45;&gt;bash</title>
<path fill="none" stroke="#444444" stroke-opacity="0.333333" d="M901.7356,-269.1664C927.894,-272.3607 958.8653,-275.2617 985.2383,-276.9898"/>
<polygon fill="#444444" fill-opacity="0.333333" stroke="#444444" stroke-opacity="0.333333" points="985.2813,-280.4989 995.4757,-277.6139 985.7073,-273.5118 985.2813,-280.4989"/>
</g>
<!-- setup&#45;&gt;setup -->
<g id="edge3" class="edge">
<title>setup&#45;&gt;setup</title>
<path fill="none" stroke="#444444" stroke-opacity="0.333333" d="M731.3573,-327.3897C741.8786,-326.6407 749.35,-324.4908 749.35,-320.94 749.35,-318.6653 746.2837,-316.9655 741.3136,-315.8406"/>
<polygon fill="#444444" fill-opacity="0.333333" stroke="#444444" stroke-opacity="0.333333" points="741.7369,-312.3661 731.3573,-314.4903 740.7962,-319.3026 741.7369,-312.3661"/>
</g>
<!-- setup&#45;&gt;fedora&#45;release -->
<g id="edge4" class="edge">
<title>setup&#45;&gt;fedora&#45;release</title>
<path fill="none" stroke="#444444" stroke-opacity="0.333333" d="M623.3228,-319.5532C598.018,-318.9036 567.2383,-318.1135 538.7749,-317.3829"/>
<polygon fill="#444444" fill-opacity="0.333333" stroke="#444444" stroke-opacity="0.333333" points="538.4941,-313.8746 528.4076,-317.1167 538.3144,-320.8723 538.4941,-313.8746"/>
</g>
<!-- bash&#45;&gt;filesystem -->
<g id="edge5" class="edge">
<title>bash&#45;&gt;filesystem</title>
<path fill="none" stroke="#444444" stroke-opacity="0.333333" d="M995.659,-265.8006C970.5617,-262.5333 939.528,-259.4626 912.1278,-257.4829"/>
<polygon fill="#444444" fill-opacity="0.333333" stroke="#444444" stroke-opacity="0.333333" points="912.0394,-253.9689 901.8242,-256.7795 911.5626,-260.9526 912.0394,-253.9689"/>
</g>
<!-- bash&#45;&gt;bash -->
<g id="edge6" class="edge">
<title>bash&#45;&gt;bash</title>
<path fill="none" stroke="#444444" stroke-opacity="0.333333" d="M1092.9141,-282.8021C1103.2419,-282.1388 1110.7,-279.9614 1110.7,-276.27 1110.7,-273.9629 1107.7867,-272.2472 1103.0803,-271.1229"/>
<polygon fill="#444444" fill-opacity="0.333333" stroke="#444444" stroke-opacity="0.333333" points="1103.2951,-267.6199 1092.9141,-269.7379 1102.3501,-274.5558 1103.2951,-267.6199"/>
</g>
<!-- bash&#45;&gt;glibc -->
<g id="edge7" class="edge">
<title>bash&#45;&gt;glibc</title>
<path fill="none" stroke="#444444" stroke-opacity="0.333333" d="M1052.7018,-294.3927C1059.457,-308.7924 1069.0103,-329.1565 1076.6762,-345.4976"/>
<polygon fill="#444444" fill-opacity="0.333333" stroke="#444444" stroke-opacity="0.333333" points="1073.5205,-347.0118 1080.9363,-354.5786 1079.8578,-344.0388 1073.5205,-347.0118"/>
</g>
<!-- bash&#45;&gt;ncurses&#45;libs -->
<g id="edge8" class="edge">
<title>bash&#45;&gt;ncurses&#45;libs</title>
<path fill="none" stroke="#444444" stroke-opacity="0.333333" d="M1064.4285,-294.3816C1094.269,-321.0992 1150.1884,-371.1665 1183.9356,-401.3821"/>
<polygon fill="#444444" fill-opacity="0.333333" stroke="#444444" stroke-opacity="0.333333" points="1181.8149,-404.1812 1191.5997,-408.2442 1186.4842,-398.9661 1181.8149,-404.1812"/>
</g>
<!-- fedora&#45;release&#45;&gt;fedora&#45;release&#45;common -->
<g id="edge21" class="edge">
<title>fedora&#45;release&#45;&gt;fedora&#45;release&#45;common</title>
<path fill="none" stroke="#444444" stroke-opacity="0.333333" d="M443.034,-296.9858C431.0668,-283.4686 409.5101,-265.5443 388.7252,-251.0285"/>
<polygon fill="#444444" fill-opacity="0.333333" stroke="#444444" stroke-opacity="0.333333" points="390.4443,-247.9652 380.2051,-245.2431 386.512,-253.7563 390.4443,-247.9652"/>
</g>
<!-- glibc&#45;&gt;glibc -->
<g id="edge9" class="edge">
<title>glibc&#45;&gt;glibc</title>
<path fill="none" stroke="#444444" stroke-opacity="0.333333" d="M1142.6572,-379.0697C1153.0323,-378.3207 1160.4,-376.1708 1160.4,-372.62 1160.4,-370.4008 1157.522,-368.7287 1152.8305,-367.604"/>
<polygon fill="#444444" fill-opacity="0.333333" stroke="#444444" stroke-opacity="0.333333" points="1153.0478,-364.1001 1142.6572,-366.1703 1152.0709,-371.0316 1153.0478,-364.1001"/>
</g>
<!-- glibc&#45;&gt;basesystem -->
<g id="edge10" class="edge">
<title>glibc&#45;&gt;basesystem</title>
<path fill="none" stroke="#444444" stroke-opacity="0.333333" d="M1036.2843,-373.9945C1006.8487,-374.7563 969.8274,-375.7143 937.7645,-376.544"/>
<polygon fill="#444444" fill-opacity="0.333333" stroke="#444444" stroke-opacity="0.333333" points="937.4506,-373.0509 927.5445,-376.8085 937.6318,-380.0485 937.4506,-373.0509"/>
</g>
<!-- glibc&#45;&gt;glibc&#45;common -->
<g id="edge11" class="edge">
<title>glibc&#45;&gt;glibc&#45;common</title>
<path fill="none" stroke="#444444" stroke-opacity="0.333333" d="M1100.3929,-354.286C1115.4316,-320.6748 1140.7208,-249.0811 1151.7835,-209.3136"/>
<polygon fill="#444444" fill-opacity="0.333333" stroke="#444444" stroke-opacity="0.333333" points="1155.215,-210.0276 1154.3909,-199.4649 1148.4481,-208.236 1155.215,-210.0276"/>
</g>
<!-- glibc&#45;&gt;glibc&#45;minimal&#45;langpack -->
<g id="edge12" class="edge">
<title>glibc&#45;&gt;glibc&#45;minimal&#45;langpack</title>
<path fill="none" stroke="#444444" stroke-opacity="0.333333" d="M1128.6328,-354.5621C1157.2657,-338.0775 1195.3431,-313.8116 1220.894,-295.6972"/>
<polygon fill="#444444" fill-opacity="0.333333" stroke="#444444" stroke-opacity="0.333333" points="1222.9887,-298.5017 1229.0471,-289.81 1218.8908,-292.8266 1222.9887,-298.5017"/>
</g>
<!-- glibc&#45;&gt;libgcc -->
<g id="edge13" class="edge">
<title>glibc&#45;&gt;libgcc</title>
<path fill="none" stroke="#444444" stroke-opacity="0.333333" d="M1087.2114,-390.8312C1083.287,-423.4861 1075.0294,-492.1976 1070.3751,-530.9259"/>
<polygon fill="#444444" fill-opacity="0.333333" stroke="#444444" stroke-opacity="0.333333" points="1066.8828,-530.6531 1069.1645,-540.9993 1073.8328,-531.4884 1066.8828,-530.6531"/>
</g>
<!-- ncurses&#45;libs&#45;&gt;glibc -->
<g id="edge14" class="edge">
<title>ncurses&#45;libs&#45;&gt;glibc</title>
<path fill="none" stroke="#444444" stroke-opacity="0.333333" d="M1170.7685,-408.3557C1160.8703,-404.0086 1150.1835,-399.3151 1139.9125,-394.8043"/>
<polygon fill="#444444" fill-opacity="0.333333" stroke="#444444" stroke-opacity="0.333333" points="1141.1948,-391.5448 1130.6315,-390.7282 1138.38,-397.9539 1141.1948,-391.5448"/>
</g>
<!-- ncurses&#45;libs&#45;&gt;ncurses&#45;libs -->
<g id="edge15" class="edge">
<title>ncurses&#45;libs&#45;&gt;ncurses&#45;libs</title>
<path fill="none" stroke="#444444" stroke-opacity="0.333333" d="M1286.2601,-432.4774C1296.8164,-431.4977 1303.9,-429.4786 1303.9,-426.42 1303.9,-424.5084 1301.133,-423.0028 1296.4805,-421.9032"/>
<polygon fill="#444444" fill-opacity="0.333333" stroke="#444444" stroke-opacity="0.333333" points="1296.6702,-418.3924 1286.2601,-420.3626 1295.6267,-425.3142 1296.6702,-418.3924"/>
</g>
<!-- ncurses&#45;libs&#45;&gt;ncurses&#45;base -->
<g id="edge16" class="edge">
<title>ncurses&#45;libs&#45;&gt;ncurses&#45;base</title>
<path fill="none" stroke="#444444" stroke-opacity="0.333333" d="M1238.8421,-444.568C1263.5173,-461.1889 1300.2032,-485.9001 1327.2296,-504.1048"/>
<polygon fill="#444444" fill-opacity="0.333333" stroke="#444444" stroke-opacity="0.333333" points="1325.3882,-507.0845 1335.6375,-509.7683 1329.2989,-501.2787 1325.3882,-507.0845"/>
</g>
<!-- basesystem&#45;&gt;filesystem -->
<g id="edge28" class="edge">
<title>basesystem&#45;&gt;filesystem</title>
<path fill="none" stroke="#444444" stroke-opacity="0.333333" d="M862.171,-360.3335C858.7869,-340.5832 853.3245,-308.7031 849.3818,-285.6928"/>
<polygon fill="#444444" fill-opacity="0.333333" stroke="#444444" stroke-opacity="0.333333" points="852.8288,-285.0854 847.6902,-275.8201 845.9294,-286.2676 852.8288,-285.0854"/>
</g>
<!-- basesystem&#45;&gt;setup -->
<g id="edge29" class="edge">
<title>basesystem&#45;&gt;setup</title>
<path fill="none" stroke="#444444" stroke-opacity="0.333333" d="M806.3265,-360.3907C785.6978,-354.0809 762.4414,-346.9673 741.4146,-340.5358"/>
<polygon fill="#444444" fill-opacity="0.333333" stroke="#444444" stroke-opacity="0.333333" points="742.1981,-337.1154 731.6116,-337.5373 740.1505,-343.8093 742.1981,-337.1154"/>
</g>
<!-- glibc&#45;common&#45;&gt;bash -->
<g id="edge30" class="edge">
<title>glibc&#45;common&#45;&gt;bash</title>
<path fill="none" stroke="#444444" stroke-opacity="0.333333" d="M1135.1129,-199.3462C1117.5502,-214.2064 1092.5069,-235.3962 1073.1501,-251.7746"/>
<polygon fill="#444444" fill-opacity="0.333333" stroke="#444444" stroke-opacity="0.333333" points="1070.8807,-249.1099 1065.5075,-258.2412 1075.4022,-254.4537 1070.8807,-249.1099"/>
</g>
<!-- glibc&#45;common&#45;&gt;glibc -->
<g id="edge31" class="edge">
<title>glibc&#45;common&#45;&gt;glibc</title>
<path fill="none" stroke="#444444" stroke-opacity="0.333333" d="M1145.5071,-199.584C1130.4684,-233.1952 1105.1792,-304.7889 1094.1165,-344.5564"/>
<polygon fill="#444444" fill-opacity="0.333333" stroke="#444444" stroke-opacity="0.333333" points="1090.685,-343.8424 1091.5091,-354.4051 1097.4519,-345.634 1090.685,-343.8424"/>
</g>
<!-- glibc&#45;common&#45;&gt;tzdata -->
<g id="edge32" class="edge">
<title>glibc&#45;common&#45;&gt;tzdata</title>
<path fill="none" stroke="#444444" stroke-opacity="0.333333" d="M1164.702,-163.1556C1177.6484,-134.5949 1202.9051,-78.8766 1218.0827,-45.3935"/>
<polygon fill="#444444" fill-opacity="0.333333" stroke="#444444" stroke-opacity="0.333333" points="1221.3204,-46.7284 1222.2612,-36.1754 1214.9448,-43.8383 1221.3204,-46.7284"/>
</g>
<!-- glibc&#45;minimal&#45;langpack&#45;&gt;glibc -->
<g id="edge33" class="edge">
<title>glibc&#45;minimal&#45;langpack&#45;&gt;glibc</title>
<path fill="none" stroke="#444444" stroke-opacity="0.333333" d="M1209.4672,-289.6579C1180.8343,-306.1425 1142.7569,-330.4084 1117.206,-348.5228"/>
<polygon fill="#444444" fill-opacity="0.333333" stroke="#444444" stroke-opacity="0.333333" points="1115.1113,-345.7183 1109.0529,-354.41 1119.2092,-351.3934 1115.1113,-345.7183"/>
</g>
<!-- glibc&#45;minimal&#45;langpack&#45;&gt;glibc&#45;common -->
<g id="edge34" class="edge">
<title>glibc&#45;minimal&#45;langpack&#45;&gt;glibc&#45;common</title>
<path fill="none" stroke="#444444" stroke-opacity="0.333333" d="M1230.042,-253.3163C1216.4201,-239.9678 1197.7723,-221.6942 1182.6634,-206.8884"/>
<polygon fill="#444444" fill-opacity="0.333333" stroke="#444444" stroke-opacity="0.333333" points="1184.7224,-204.0057 1175.1303,-199.5065 1179.823,-209.0054 1184.7224,-204.0057"/>
</g>
<!-- fedora&#45;release&#45;common&#45;&gt;fedora&#45;release -->
<g id="edge18" class="edge">
<title>fedora&#45;release&#45;common&#45;&gt;fedora&#45;release</title>
<path fill="none" stroke="#444444" stroke-opacity="0.333333" d="M343.816,-245.2642C355.7832,-258.7814 377.3399,-276.7057 398.1248,-291.2215"/>
<polygon fill="#444444" fill-opacity="0.333333" stroke="#444444" stroke-opacity="0.333333" points="396.4057,-294.2848 406.6449,-297.0069 400.338,-288.4937 396.4057,-294.2848"/>
</g>
<!-- fedora&#45;release&#45;common&#45;&gt;fedora&#45;release -->
<g id="edge19" class="edge">
<title>fedora&#45;release&#45;common&#45;&gt;fedora&#45;release</title>
<path fill="none" stroke="#444444" stroke-dasharray="5,2" stroke-opacity="0.333333" d="M358.9637,-245.1307C376.5108,-258.3665 400.5323,-276.4861 419.7426,-290.9765"/>
<polygon fill="#444444" fill-opacity="0.333333" stroke="#444444" stroke-opacity="0.333333" points="417.827,-293.9156 427.9182,-297.1434 422.0424,-288.3272 417.827,-293.9156"/>
</g>
<!-- fedora&#45;release&#45;common&#45;&gt;fedora&#45;release&#45;common -->
<g id="edge17" class="edge">
<title>fedora&#45;release&#45;common&#45;&gt;fedora&#45;release&#45;common</title>
<path fill="none" stroke="#444444" stroke-opacity="0.333333" d="M443.4904,-232.6037C454.2296,-231.501 461.06,-229.6664 461.06,-227.1 461.06,-225.4559 458.2568,-224.1121 453.4185,-223.0687"/>
<polygon fill="#444444" fill-opacity="0.333333" stroke="#444444" stroke-opacity="0.333333" points="453.8957,-219.6013 443.4904,-221.5963 452.8687,-226.5255 453.8957,-219.6013"/>
</g>
<!-- fedora&#45;release&#45;common&#45;&gt;fedora&#45;repos -->
<g id="edge20" class="edge">
<title>fedora&#45;release&#45;common&#45;&gt;fedora&#45;repos</title>
<path fill="none" stroke="#444444" stroke-opacity="0.333333" d="M320.7201,-245.2411C306.5785,-263.1315 284.8201,-290.6577 268.8279,-310.8892"/>
<polygon fill="#444444" fill-opacity="0.333333" stroke="#444444" stroke-opacity="0.333333" points="266.0366,-308.7764 262.5812,-318.7919 271.5282,-313.1173 266.0366,-308.7764"/>
</g>
<!-- fedora&#45;repos&#45;&gt;fedora&#45;release -->
<g id="edge22" class="edge">
<title>fedora&#45;repos&#45;&gt;fedora&#45;release</title>
<path fill="none" stroke="#444444" stroke-opacity="0.333333" d="M316.2889,-329.6673C331.891,-327.9957 348.6846,-326.1965 364.957,-324.4531"/>
<polygon fill="#444444" fill-opacity="0.333333" stroke="#444444" stroke-opacity="0.333333" points="365.436,-327.9219 375.0063,-323.3764 364.6903,-320.9617 365.436,-327.9219"/>
</g>
<!-- fedora&#45;repos&#45;&gt;fedora&#45;repos -->
<g id="edge23" class="edge">
<title>fedora&#45;repos&#45;&gt;fedora&#45;repos</title>
<path fill="none" stroke="#444444" stroke-opacity="0.333333" d="M316.3492,-343.146C326.9755,-342.2212 334.22,-340.1592 334.22,-336.96 334.22,-334.9105 331.2468,-333.3277 326.3161,-332.2117"/>
<polygon fill="#444444" fill-opacity="0.333333" stroke="#444444" stroke-opacity="0.333333" points="326.7465,-328.7376 316.3492,-330.774 325.7471,-335.6659 326.7465,-328.7376"/>
</g>
<!-- fedora&#45;repos&#45;&gt;fedora&#45;gpg&#45;keys -->
<g id="edge24" class="edge">
<title>fedora&#45;repos&#45;&gt;fedora&#45;gpg&#45;keys</title>
<path fill="none" stroke="#444444" stroke-opacity="0.333333" d="M234.6041,-355.2274C217.2169,-378.5544 187.0002,-419.0937 167.0647,-445.8397"/>
<polygon fill="#444444" fill-opacity="0.333333" stroke="#444444" stroke-opacity="0.333333" points="164.1526,-443.8899 160.9826,-453.9994 169.7651,-448.0733 164.1526,-443.8899"/>
</g>
<!-- fedora&#45;repos&#45;&gt;fedora&#45;repos&#45;rawhide -->
<g id="edge25" class="edge">
<title>fedora&#45;repos&#45;&gt;fedora&#45;repos&#45;rawhide</title>
<path fill="none" stroke="#444444" stroke-opacity="0.333333" d="M220.3479,-318.9295C202.8853,-310.1236 179.5992,-299.5691 157.5673,-290.3399"/>
<polygon fill="#444444" fill-opacity="0.333333" stroke="#444444" stroke-opacity="0.333333" points="158.801,-287.0627 148.2225,-286.4747 156.1254,-293.5312 158.801,-287.0627"/>
</g>
<!-- fedora&#45;repos&#45;rawhide&#45;&gt;fedora&#45;repos -->
<g id="edge26" class="edge">
<title>fedora&#45;repos&#45;rawhide&#45;&gt;fedora&#45;repos</title>
<path fill="none" stroke="#444444" stroke-opacity="0.333333" d="M118.3721,-286.4905C135.8347,-295.2964 159.1208,-305.8509 181.1527,-315.0801"/>
<polygon fill="#444444" fill-opacity="0.333333" stroke="#444444" stroke-opacity="0.333333" points="179.919,-318.3573 190.4975,-318.9453 182.5946,-311.8888 179.919,-318.3573"/>
</g>
<!-- fedora&#45;repos&#45;rawhide&#45;&gt;fedora&#45;repos&#45;rawhide -->
<g id="edge27" class="edge">
<title>fedora&#45;repos&#45;rawhide&#45;&gt;fedora&#45;repos&#45;rawhide</title>
<path fill="none" stroke="#444444" stroke-opacity="0.333333" d="M186.5583,-274.18C197.4446,-273.1089 204.5,-271.2022 204.5,-268.46 204.5,-266.7033 201.6045,-265.2895 196.6611,-264.2185"/>
<polygon fill="#444444" fill-opacity="0.333333" stroke="#444444" stroke-opacity="0.333333" points="196.9597,-260.725 186.5583,-262.74 195.946,-267.6513 196.9597,-260.725"/>
</g>
<!-- filesystem -->
<g id="node1" class="node">
<title>filesystem</title>
<text text-anchor="middle" x="844.57" y="-253.91" font-family="Helvetica,sans-Serif" font-weight="bold" font-size="14.00" fill="#000000">filesystem (0.0 B)</text>
</g>
<!-- setup -->
<g id="node2" class="node">
<title>setup</title>
<text text-anchor="middle" x="677.35" y="-317.24" font-family="Helvetica,sans-Serif" font-weight="bold" font-size="14.00" fill="#000000">setup (709.7 kB)</text>
</g>
<!-- bash -->
<g id="node3" class="node">
<title>bash</title>
<text text-anchor="middle" x="1044.2" y="-272.57" font-family="Helvetica,sans-Serif" font-weight="bold" font-size="14.00" fill="#000000">bash (7.2 MB)</text>
</g>
<!-- fedora&#45;release -->
<g id="node4" class="node">
<title>fedora&#45;release</title>
<text text-anchor="middle" x="451.79" y="-311.45" font-family="Helvetica,sans-Serif" font-weight="bold" font-size="14.00" fill="#000000">fedora&#45;release (699.0 B)</text>
</g>
<!-- glibc -->
<g id="node5" class="node">
<title>glibc</title>
<text text-anchor="middle" x="1089.4" y="-368.92" font-family="Helvetica,sans-Serif" font-weight="bold" font-size="14.00" fill="#000000">glibc (16.5 MB)</text>
</g>
<!-- ncurses&#45;libs -->
<g id="node6" class="node">
<title>ncurses&#45;libs</title>
<text text-anchor="middle" x="1211.9" y="-422.72" font-family="Helvetica,sans-Serif" font-weight="bold" font-size="14.00" fill="#000000">ncurses&#45;libs (980.3 kB)</text>
</g>
<!-- basesystem -->
<g id="node7" class="node">
<title>basesystem</title>
<text text-anchor="middle" x="865.27" y="-374.72" font-family="Helvetica,sans-Serif" font-weight="bold" font-size="14.00" fill="#000000">basesystem (0.0 B)</text>
</g>
<!-- glibc&#45;common -->
<g id="node8" class="node">
<title>glibc&#45;common</title>
<text text-anchor="middle" x="1156.5" y="-177.55" font-family="Helvetica,sans-Serif" font-weight="bold" font-size="14.00" fill="#000000">glibc&#45;common (7.8 MB)</text>
</g>
<!-- glibc&#45;minimal&#45;langpack -->
<g id="node9" class="node">
<title>glibc&#45;minimal&#45;langpack</title>
<text text-anchor="middle" x="1248.7" y="-266" font-family="Helvetica,sans-Serif" font-weight="bold" font-size="22.00" fill="#cc0066">glibc&#45;minimal&#45;langpack (0.0 B)</text>
</g>
<!-- libgcc -->
<g id="node10" class="node">
<title>libgcc</title>
<text text-anchor="middle" x="1067" y="-555.31" font-family="Helvetica,sans-Serif" font-weight="bold" font-size="14.00" fill="#000000">libgcc (190.3 kB)</text>
</g>
<!-- ncurses&#45;base -->
<g id="node11" class="node">
<title>ncurses&#45;base</title>
<text text-anchor="middle" x="1362.6" y="-524.23" font-family="Helvetica,sans-Serif" font-weight="bold" font-size="14.00" fill="#000000">ncurses&#45;base (278.5 kB)</text>
</g>
<!-- fedora&#45;release&#45;common -->
<g id="node12" class="node">
<title>fedora&#45;release&#45;common</title>
<text text-anchor="middle" x="335.06" y="-223.4" font-family="Helvetica,sans-Serif" font-weight="bold" font-size="14.00" fill="#000000">fedora&#45;release&#45;common (14.0 kB)</text>
</g>
<!-- fedora&#45;repos -->
<g id="node13" class="node">
<title>fedora&#45;repos</title>
<text text-anchor="middle" x="248.22" y="-333.26" font-family="Helvetica,sans-Serif" font-weight="bold" font-size="14.00" fill="#000000">fedora&#45;repos (8.6 kB)</text>
</g>
<!-- fedora&#45;gpg&#45;keys -->
<g id="node14" class="node">
<title>fedora&#45;gpg&#45;keys</title>
<text text-anchor="middle" x="147.26" y="-468.71" font-family="Helvetica,sans-Serif" font-weight="bold" font-size="14.00" fill="#000000">fedora&#45;gpg&#45;keys (101.4 kB)</text>
</g>
<!-- fedora&#45;repos&#45;rawhide -->
<g id="node15" class="node">
<title>fedora&#45;repos&#45;rawhide</title>
<text text-anchor="middle" x="90.5" y="-264.76" font-family="Helvetica,sans-Serif" font-weight="bold" font-size="14.00" fill="#000000">fedora&#45;repos&#45;rawhide (4.0 kB)</text>
</g>
<!-- tzdata -->
<g id="node16" class="node">
<title>tzdata</title>
<text text-anchor="middle" x="1230.5" y="-14.3" font-family="Helvetica,sans-Serif" font-weight="bold" font-size="14.00" fill="#000000">tzdata (1.8 MB)</text>
</g>
</g>

<script type="text/javascript"><![CDATA[

document.addEventListener('click', function(e) {
      e = e || window.event;
      var target = e.target || e.srcElement;
      text = target.parentElement.querySelector("title").textContent;

      console.log("Clicked on: " + text);
      // reset all strokes
      var nodes = document.getElementsByClassName("edge");

      for (index = 0, len = nodes.length; index < len; ++index) {
          //var title = nodes[index].querySelector("title").textContent.split("->");
          id = nodes[index].id;
          document.getElementById(id).querySelector("path").setAttribute("stroke-width", "1");
          document.getElementById(id).querySelector("path").setAttribute("stroke-opacity", "0.5");
          document.getElementById(id).querySelector("path").setAttribute("stroke", "#444444");
          document.getElementById(id).querySelector("polygon").setAttribute("stroke-width", "1");
          document.getElementById(id).querySelector("polygon").setAttribute("stroke-opacity", "0.5");
          document.getElementById(id).querySelector("polygon").setAttribute("stroke", "#444444");
      }
      // reset text highlight
      pkgs = document.getElementsByClassName("node");
      for (index2 = 0, len2 = pkgs.length; index2 < len2; ++index2) {
          target_id = pkgs[index2].id;
          document.getElementById(target_id).querySelector("text").setAttribute("font-weight", "normal");
      }

      // highlight deps
      var nodes = document.getElementsByClassName("edge");
      for (index = 0, len = nodes.length; index < len; ++index) {
        var title = nodes[index].querySelector("title").textContent.split("->");

        if (title[0] == text) {
          id = nodes[index].id;
          //console.log("ID:   " + id);
          document.getElementById(id).querySelector("path").setAttribute("stroke-width", "3");
          document.getElementById(id).querySelector("path").setAttribute("stroke-opacity", "1");
          document.getElementById(id).querySelector("path").setAttribute("stroke", "#aa3333");
          document.getElementById(id).querySelector("polygon").setAttribute("stroke-width", "5");
          document.getElementById(id).querySelector("polygon").setAttribute("stroke-opacity", "1");
          document.getElementById(id).querySelector("polygon").setAttribute("stroke", "#aa3333");

        }
        if (title[1] == text) {
          id = nodes[index].id;
          document.getElementById(id).querySelector("path").setAttribute("stroke-width", "3");
          document.getElementById(id).querySelector("path").setAttribute("stroke-opacity", "1");
          document.getElementById(id).querySelector("path").setAttribute("stroke", "#333377");
          document.getElementById(id).querySelector("polygon").setAttribute("stroke-width", "5");
          document.getElementById(id).querySelector("polygon").setAttribute("stroke-opacity", "1");
          document.getElementById(id).querySelector("polygon").setAttribute("stroke", "#333377");
        }

        if (title[0] == text || title[1] == text) {
          pkgs = document.getElementsByClassName("node");
          for (index2 = 0, len2 = pkgs.length; index2 < len2; ++index2) {
            var pkg_name = pkgs[index2].querySelector("title").textContent;
            if (pkg_name == title[0] || pkg_name == title[1]) {
              target_id = pkgs[index2].id;
              document.getElementById(target_id).querySelector("text").setAttribute("font-weight", "bold");
            }
          }
        }
      }


  }, false);

]]></script>

</svg>
