<?xml version="1.0" encoding="UTF-8" standalone="no"?>
<!DOCTYPE svg PUBLIC "-//W3C//DTD SVG 1.1//EN"
 "http://www.w3.org/Graphics/SVG/1.1/DTD/svg11.dtd">
<!-- Generated by graphviz version 2.40.1 (0)
 -->
<!-- Title: packages Pages: 1 -->
<svg width="1407pt" height="1097pt"
 viewBox="0.00 0.00 1687.93 1316.00" xmlns="http://www.w3.org/2000/svg" xmlns:xlink="http://www.w3.org/1999/xlink">
<g id="graph0" class="graph" transform="scale(.8333 .8333) rotate(0) translate(121.2864 1189.0009)">
<title>packages</title>
<polygon fill="#dae2ff" stroke="transparent" points="-121.2864,127.0016 -121.2864,-1189.0009 1566.6407,-1189.0009 1566.6407,127.0016 -121.2864,127.0016"/>
<polygon fill="#bbd7d9" stroke="#bbd7d9" points="1367.804,-948.3203 1374.9152,-1009.5196 1374.9152,-1009.5196 1367.804,-948.3203 1363.9219,-948.3203 1357.3738,-1064.9812 1357.241,-1087.4863 1338.5526,-1082.3094 1341.9736,-1010.1147 1347.7206,-951.6959 1352.3394,-953.0482 1352.3394,-953.0482 1347.7206,-951.6959 1343.6945,-947.9432 1342.4076,-947.9432 1339.2096,-903.613 1339.3378,-869.3437 1327.7561,-870.2582 1319.3812,-870.2612 1311.1025,-870.8924 1303.8851,-871.7172 1296.5464,-872.834 1296.6494,-832.6459 1293.5502,-794.4545 1295.4066,-792.2726 1293.7504,-790.3846 1289.6423,-788.1096 1289.6423,-788.1096 1293.7504,-790.3846 1295.4066,-792.2726 1293.5502,-794.4545 1288.8752,-797.0764 1283.7946,-797.0764 1278.3336,-793.9872 1277.2576,-792.7827 1274.4816,-792.7827 1274.4816,-792.7827 1277.2576,-792.7827 1278.3336,-793.9872 1283.7946,-797.0764 1288.8752,-797.0764 1293.5502,-794.4545 1296.6494,-832.6459 1296.5464,-872.834 1303.8851,-871.7172 1311.1025,-870.8924 1319.3812,-870.2612 1327.7561,-870.2582 1339.3378,-869.3437 1339.2096,-903.613 1342.4076,-947.9432 1343.6945,-947.9432 1347.7206,-951.6959 1341.9736,-1010.1147 1338.5526,-1082.3094 1336.7446,-1081.8917 1333.7578,-1081.2693 1328.6943,-1080.3285 1271.1824,-1070.9432 1206.8389,-1098.6431 1183.4819,-1100.614 1173.8214,-1101.828 1160.6774,-1104.2963 1159.4022,-997.4934 1162.649,-967.0974 1161.922,-966.8912 1161.922,-966.8912 1162.649,-967.0974 1159.4022,-997.4934 1160.6774,-1104.2963 1148.921,-1106.9913 1142.7683,-1108.5284 1140.4045,-1108.802 1140.9575,-1031.9844 1146.8916,-971.5154 1151.6754,-968.8634 1153.2743,-967.11 1152.1963,-965.9454 1146.6772,-962.8221 1146.6772,-962.8221 1152.1963,-965.9454 1153.2743,-967.11 1151.6754,-968.8634 1146.8916,-971.5154 1140.9575,-1031.9844 1140.4045,-1108.802 1138.3521,-1109.1599 1121.0487,-1112.5203 1111.4908,-1114.7496 1111.2394,-1059.7749 1116.4475,-967.1824 1116.3115,-967.144 1113.2622,-893.0203 1113.2192,-872.6937 1106.0209,-872.6021 1105.0048,-871.5585 1095.0502,-862.4893 1092.8905,-860.6503 1081.6057,-852.3065 1071.8386,-845.6558 1060.1998,-839.7604 1062.8412,-778.0942 1062.8412,-778.0942 1060.1998,-839.7604 1071.8386,-845.6558 1081.6057,-852.3065 1092.8905,-860.6503 1095.0502,-862.4893 1105.0048,-871.5585 1106.0209,-872.6021 1113.2192,-872.6937 1113.2622,-893.0203 1116.3115,-967.144 1116.4475,-967.1824 1111.2394,-1059.7749 1111.4908,-1114.7496 1094.6064,-1119.6815 1100.8107,-973.4697 1084.5808,-971.4072 1013.0528,-978.1584 1017.7626,-972.4225 1016.9496,-943.9479 1016.9496,-943.9479 1017.7626,-972.4225 1013.0528,-978.1584 1084.5808,-971.4072 1100.8107,-973.4697 1094.6064,-1119.6815 1090.8821,-1120.8414 1058.8203,-1122.3425 1043.9733,-1135.9106 976.9463,-1168.2971 914.574,-1173.6367 912.5536,-1173.9457 903.554,-1048.0621 903.5589,-1048.0607 908.9211,-1048.0607 909.8869,-1047.7776 912.7605,-1047.7776 914.8286,-1044.6467 919.4672,-1041.6219 925.9391,-964.7548 951.0133,-968.574 951.4738,-968.66 963.3903,-971.7175 969.8862,-973.6086 972.3246,-974.4022 977.0433,-976.1014 991.6512,-982.3894 1001.8976,-987.5057 1002.094,-967.5311 1002.094,-967.5311 1001.8976,-987.5057 991.6512,-982.3894 977.0433,-976.1014 978.1832,-944.318 978.1832,-944.318 977.0433,-976.1014 972.3246,-974.4022 969.8862,-973.6086 963.3903,-971.7175 951.4738,-968.66 951.0133,-968.574 925.9391,-964.7548 919.4672,-1041.6219 914.8286,-1044.6467 912.7605,-1047.7776 909.8869,-1047.7776 908.9211,-1048.0607 903.5589,-1048.0607 903.554,-1048.0621 912.5536,-1173.9457 899.5667,-1176.2267 890.5143,-1178.0204 891.1811,-1074.3033 894.6041,-1052.2966 899.0066,-1049.876 900.6522,-1048.0621 899.6284,-1046.9183 893.9373,-1043.6029 888.759,-1043.6029 888.759,-1043.6029 893.9373,-1043.6029 899.6284,-1046.9183 900.6522,-1048.0621 899.0066,-1049.876 894.6041,-1052.2966 891.1811,-1074.3033 890.5143,-1178.0204 877.6171,-1181.1547 877.4739,-1181.1926 876.6514,-1120.594 876.6514,-1120.594 877.4739,-1181.1926 870.2066,-1183.4475 865.5401,-1185.0009 855.3882,-1180.9271 775.465,-1150.7764 750.64,-1127.6393 745.8065,-1076.0629 740.6807,-1033.4722 728.0453,-959.9248 786.8267,-900.6243 790.168,-883.7455 815.4201,-862.8504 820.2384,-858.4686 827.0828,-852.4924 828.5226,-851.288 848.7277,-836.4851 862.0671,-828.1483 863.2328,-827.4624 870.2102,-823.6061 883.135,-817.3828 892.7519,-813.4473 947.8646,-792.9009 949.397,-788.9699 955.105,-772.5313 961.7835,-746.7668 972.5525,-711.5664 986.4472,-675.9207 979.9731,-671.6105 972.8122,-667.3571 960.3508,-660.8345 955.5837,-658.6804 940.9688,-652.5918 938.714,-651.8167 924.6819,-647.9805 889.889,-640.955 876.386,-637.2526 873.2,-636.2661 861.6712,-631.8646 854.9993,-629.0809 844.4483,-623.929 843.2255,-623.2892 842.5568,-622.9155 830.4353,-615.6982 819.7704,-608.5883 787.2502,-584.6007 760.7533,-565.9648 755.373,-552.4175 755.1561,-551.9245 789.3788,-524.8629 800.9572,-516.3967 814.1296,-507.1667 822.5344,-502.0599 832.7435,-496.1701 837.8926,-493.362 851.9338,-486.998 853.8233,-486.2007 856.0009,-485.3487 864.3074,-482.3517 925.2225,-462.251 925.2711,-462.232 933.9457,-458.562 940.8906,-466.8517 947.8395,-474.2405 949.9332,-476.64 957.8981,-485.1949 957.9344,-485.2374 970.304,-496.889 971.639,-498.2837 980.8861,-506.3668 981.2485,-506.6519 990.3438,-513.0695 1002.1378,-519.425 1003.6014,-520.0847 1008.1204,-521.7433 1016.0422,-523.9902 1017.0294,-524.186 1022.6813,-524.8384 1030.0564,-525.0707 1031.0217,-525.184 1035.2449,-525.3217 1038.9845,-524.8101 1043.8907,-524.9824 1049.3263,-525.6448 1052.1713,-525.5081 1053.5112,-525.33 1058.1244,-525.1137 1063.1592,-525.3062 1063.3401,-525.3283 1074.8262,-527.7323 1075.8939,-528.0447 1082.255,-530.4528 1087.5204,-532.8941 1122.0283,-551.8236 1161.7487,-571.2807 1166.8716,-569.0604 1182.2274,-561.9731 1182.7559,-561.6857 1198.3709,-552.7414 1200.6724,-552.9586 1217.646,-553.5181 1218.1461,-553.5549 1224.6683,-553.6343 1231.0817,-553.4496 1234.9558,-557.1122 1235.8644,-684.4762 1231.4652,-684.4762 1226.6616,-620.5713 1225.6621,-684.5909 1221.5151,-684.5909 1216.8619,-628.3179 1215.6423,-683.1825 1210.2817,-680.1277 1206.1348,-680.1277 1200.8417,-683.0707 1199.3496,-684.7353 1201.218,-686.855 1199.0527,-722.7087 1194.7745,-684.825 1191.8491,-684.825 1185.1531,-742.7554 1185.916,-684.782 1181.0679,-684.782 1180.9924,-684.7603 1177.8181,-684.7603 1175.8446,-687.791 1175.4004,-743.7292 1170.5804,-691.1829 1159.1611,-688.4625 1092.7778,-693.4475 1092.6415,-693.3347 1082.7784,-683.9957 1082.675,-775.995 1077.7208,-773.2977 1077.7208,-773.2977 1082.675,-775.995 1084.4977,-777.9807 1082.8081,-779.7863 1078.2271,-782.2559 1078.2271,-782.2559 1082.8081,-779.7863 1084.4977,-777.9807 1082.675,-775.995 1082.7784,-683.9957 1092.6415,-693.3347 1092.7778,-693.4475 1159.1611,-688.4625 1170.5804,-691.1829 1175.4004,-743.7292 1175.8446,-687.791 1177.8181,-684.7603 1180.9924,-684.7603 1181.0679,-684.782 1185.916,-684.782 1185.1531,-742.7554 1191.8491,-684.825 1194.7745,-684.825 1199.0527,-722.7087 1201.218,-686.855 1199.3496,-684.7353 1200.8417,-683.0707 1206.1348,-680.1277 1210.2817,-680.1277 1215.6423,-683.1825 1216.8619,-628.3179 1221.5151,-684.5909 1225.6621,-684.5909 1226.6616,-620.5713 1231.4652,-684.4762 1235.8644,-684.4762 1234.9558,-557.1122 1240.906,-562.5039 1254.038,-573.8842 1266.1938,-583.9066 1287.5708,-649.9444 1291.3433,-670.1406 1292.3149,-678.5899 1294.0386,-687.9244 1304.7185,-720.9168 1308.5906,-721.9908 1309.282,-722.1515 1315.6271,-723.3455 1316.193,-740.7455 1316.193,-740.7455 1315.6271,-723.3455 1337.463,-725.5286 1345.6718,-726.7052 1348.9683,-727.3193 1349.701,-727.4872 1352.6899,-728.3033 1362.8052,-731.5137 1363.6335,-731.8126 1372.5284,-735.418 1377.6372,-737.7117 1387.7067,-742.6721 1399.4706,-749.476 1408.3694,-755.7718 1422.2899,-766.2252 1480.8091,-807.4542 1480.0803,-811.4011 1479.5038,-815.3683 1526.6844,-943.5439 1526.7075,-943.6028 1524.3799,-950.4045 1507.0006,-1009.1754 1465.7085,-1052.0403 1380.9426,-1095.9352 1377.0494,-1094.3273 1357.241,-1087.4863 1357.3738,-1064.9812 1363.9219,-948.3203 1367.804,-948.3203 1367.804,-948.3203"/>
<polygon fill="#d8d6da" stroke="#d8d6da" points="-116.6963,-378.8726 -116.8673,-379.1212 -116.9624,-379.2539 -117.2864,-380.2121 -112.9008,-415.4786 -112.1813,-422.3633 -97.3412,-445.5807 43.9241,-419.9972 48.9388,-414.8955 49.1133,-414.8955 49.6803,-414.7305 53.6648,-414.7305 54.0656,-414.8463 59.7169,-414.8463 60.629,-414.5856 63.4632,-414.5856 63.858,-414.6972 68.7533,-414.6972 72.6536,-454.3518 75.2412,-416.3314 80.1969,-419.1973 84.741,-419.1973 90.0888,-416.0784 91.361,-414.5769 90.1186,-413.1117 90.1186,-413.1117 91.361,-414.5769 90.0888,-416.0784 84.741,-419.1973 80.1969,-419.1973 75.2412,-416.3314 72.6536,-454.3518 68.7533,-414.6972 63.858,-414.6972 63.4632,-414.5856 60.629,-414.5856 59.7169,-414.8463 54.0656,-414.8463 53.6648,-414.7305 49.6803,-414.7305 49.1133,-414.8955 48.9388,-414.8955 43.9241,-419.9972 -97.3412,-445.5807 -40.8779,-538.2971 -82.1017,-639.4451 -83.0881,-641.7102 -86.6934,-649.4816 -69.7272,-693.8713 -46.0793,-760.9994 44.1222,-793.619 50.4625,-796.064 59.3075,-796.4302 70.8207,-797.862 79.7875,-799.1636 88.4894,-800.6072 101.475,-803.2986 181.5131,-823.1812 286.8858,-756.6083 316.894,-784.9172 332.6211,-793.5985 464.4084,-869.6235 497.9329,-924.1243 576.9457,-958.5461 577.7476,-958.9151 588.4012,-956.9697 601.0784,-955.1925 602.5975,-955.0119 614.3094,-954.1158 630.9033,-953.5508 629.2619,-906.1483 629.23,-819.4128 628.6046,-819.2301 624.3284,-819.2301 621.3814,-752.2706 621.8207,-752.2415 621.6208,-688.5447 616.5226,-690.015 610.5167,-688.2104 607.0878,-685.2119 605.338,-685.2119 604.9663,-685.1015 600.9077,-685.1015 594.606,-747.5266 593.4841,-746.4268 594.7189,-687.7736 594.7189,-687.7736 593.4841,-746.4268 594.606,-747.5266 600.9077,-685.1015 604.9663,-685.1015 605.338,-685.2119 607.0878,-685.2119 610.5167,-688.2104 616.5226,-690.015 621.6208,-688.5447 621.8207,-752.2415 621.3814,-752.2706 624.3284,-819.2301 628.6046,-819.2301 629.23,-819.4128 629.2619,-906.1483 630.9033,-953.5508 632.733,-953.5663 644.8024,-953.9245 643.2715,-870.4099 643.2715,-870.4099 644.8024,-953.9245 728.0453,-959.9248 786.8267,-900.6243 790.168,-883.7455 757.4089,-825.9648 747.9067,-806.8331 722.2426,-751.0149 728.4335,-724.16 729.881,-712.5351 736.6815,-670.3824 760.7533,-565.9648 755.373,-552.4175 755.1561,-551.9245 712.9032,-530.6257 699.4125,-509.9863 684.6531,-486.3639 681.0519,-430.6565 679.0236,-428.0614 671.3205,-419.0529 661.6863,-408.3172 650.0461,-396.6595 649.6386,-396.2981 647.8159,-394.4266 647.2041,-393.7495 639.5172,-385.7612 637.2437,-383.5579 570.8311,-323.6761 567.7067,-320.6268 557.8677,-311.8719 554.476,-308.4228 548.041,-302.365 535.6094,-289.193 527.9235,-279.6872 522.468,-273.3217 525.8444,-393.4957 524.0648,-395.3957 525.8597,-397.451 530.4047,-400.0079 530.4047,-400.0079 525.8597,-397.451 524.0648,-395.3957 525.8444,-393.4957 522.468,-273.3217 521.0143,-271.5482 512.2816,-260.4117 498.2899,-240.2177 486.4503,-242.4203 442.3986,-249.833 434.7832,-252.9877 362.0155,-350.7415 311.6186,-415.4032 264.5219,-372.9717 171.6814,-285.6528 170.9131,-285.3821 119.2807,-282.5623 118.8246,-364.2884 115.4199,-414.4884 115.8942,-414.6275 116.1903,-415.1885 121.1841,-420.1749 311.9231,-446.1494 287.5895,-520.7072 465.3393,-543.5097 479.6069,-541.6666 479.6069,-541.6666 465.3393,-543.5097 287.5895,-520.7072 311.9231,-446.1494 121.1841,-420.1749 116.1903,-415.1885 115.8942,-414.6275 115.4199,-414.4884 111.3009,-414.4884 111.0849,-414.4254 111.0849,-414.4254 111.3009,-414.4884 115.4199,-414.4884 118.8246,-364.2884 119.2807,-282.5623 111.5454,-281.8138 92.1974,-279.1235 80.5322,-276.5185 65.9095,-272.6324 50.2224,-267.803 47.6059,-266.8889 34.2291,-261.6505 -63.9485,-318.0739 -116.6963,-378.8726 -116.6963,-378.8726"/>
<polygon fill="#fed9a6" stroke="#fed9a6" points="1159.6825,-472.1693 1168.4519,-493.457 1198.3709,-552.7414 1182.7559,-561.6857 1182.2274,-561.9731 1166.8716,-569.0604 1161.7487,-571.2807 1122.0283,-551.8236 1087.5204,-532.8941 1082.255,-530.4528 1075.8939,-528.0447 1074.8262,-527.7323 1071.2391,-486.1021 1068.4481,-486.1021 1067.8162,-485.3921 1061.4515,-481.573 1061.4515,-481.573 1067.8162,-485.3921 1068.4481,-486.1021 1071.2391,-486.1021 1074.8262,-527.7323 1063.3401,-525.3283 1063.1592,-525.3062 1058.1244,-525.1137 1053.5112,-525.33 1052.1713,-525.5081 1049.3263,-525.6448 1043.8907,-524.9824 1038.9845,-524.8101 1035.2449,-525.3217 1031.0217,-525.184 1030.0564,-525.0707 1022.6813,-524.8384 1017.0294,-524.186 1016.0422,-523.9902 1008.1204,-521.7433 1003.6014,-520.0847 1002.1378,-519.425 990.3438,-513.0695 981.2485,-506.6519 980.8861,-506.3668 971.639,-498.2837 970.304,-496.889 957.9344,-485.2374 957.8981,-485.1949 949.9332,-476.64 947.8395,-474.2405 940.8906,-466.8517 933.9457,-458.562 925.2711,-462.232 925.2225,-462.251 864.3074,-482.3517 856.0009,-485.3487 853.8233,-486.2007 851.9338,-486.998 837.8926,-493.362 832.7435,-496.1701 827.7877,-386.3099 832.5114,-384.9961 837.0905,-380.9434 836.9532,-380.7458 833.5337,-378.008 833.5337,-378.008 836.9532,-380.7458 837.0905,-380.9434 832.5114,-384.9961 827.7877,-386.3099 832.7435,-496.1701 822.5344,-502.0599 814.1296,-507.1667 813.4072,-444.8573 811.4297,-410.8768 811.4297,-410.8768 813.4072,-444.8573 814.1296,-507.1667 800.9572,-516.3967 789.3788,-524.8629 755.1561,-551.9245 712.9032,-530.6257 699.4125,-509.9863 684.6531,-486.3639 681.0519,-430.6565 688.8075,-419.736 698.6713,-407.1572 698.8242,-406.9484 706.8187,-397.1811 712.8884,-390.206 719.3274,-383.2806 737.0435,-362.4901 767.8084,-321.879 783.5342,-303.3528 778.2802,-296.6804 777.1123,-295.0457 741.1446,-239.3387 717.2901,-209.1645 708.8939,-197.8918 702.5483,-189.9122 691.9584,-175.2235 687.1113,-168.1983 741.0079,-100.6688 731.0392,-37.2741 734.3962,-20.0481 735.2778,-13.8898 745.7308,75.1672 782.5598,112.6476 850.1624,121.2012 857.7953,122.3257 861.8156,123.0016 869.7173,120.9328 879.6996,118.7522 882.1277,117.686 882.5512,36.8375 876.9886,-13.3089 872.5944,-13.3089 872.5944,-13.3089 876.9886,-13.3089 882.5512,36.8375 882.1277,117.686 903.8035,109.7558 991.7377,79.801 969.9251,6.2237 961.0354,-29.0038 958.7305,-43.8498 948.9883,-82.3997 939.7582,-113.5345 905.0927,-124.9913 916.1912,-211.0029 916.5691,-212.8078 916.8478,-214.9226 917.478,-226.4164 917.2343,-237.0871 926.5521,-309.2982 964.9217,-333.1352 970.014,-336.8203 971.3666,-337.8467 988.0231,-351.0912 992.2095,-354.8556 1003.3953,-353.4117 1005.3578,-353.2372 1035.139,-365.386 1045.6227,-368.8432 1051.0552,-370.4929 1062.2606,-373.6029 1073.6854,-375.8764 1086.8752,-377.8123 1109.9366,-379.9879 1120.9457,-381.3232 1129.1257,-397.5322 1145.4321,-432.8321 1159.6825,-472.1693 1159.6825,-472.1693"/>
<polygon fill="#fbb4ae" stroke="#fbb4ae" points="1267.481,-517.7493 1284.3618,-504.6237 1329.5204,-471.9045 1326.1711,-437.4397 1325.681,-421.0361 1324.6875,-415.1777 1324.6117,-414.4111 1324.1365,-398.5024 1321.564,-372.0309 1309.1835,-367.7982 1300.9889,-365.8284 1297.9836,-365.2587 1296.9396,-305.1668 1296.8285,-305.1367 1299.0476,-229.734 1288.1587,-233.1535 1256.3279,-240.4335 1248.9164,-242.4589 1235.5397,-247.313 1234.1641,-247.872 1234.0481,-168.9857 1232.8817,-168.9857 1228.918,-165.6105 1223.6947,-164.1151 1220.8635,-39.7324 1220.8594,-35.7061 1210.4885,-46.5895 1210.0559,-47.0231 1209.55,-47.5577 1209.55,-47.5577 1210.0559,-47.0231 1210.4885,-46.5895 1220.8594,-35.7061 1220.8635,-39.7324 1223.6947,-164.1151 1228.918,-165.6105 1232.8817,-168.9857 1234.0481,-168.9857 1234.1641,-247.872 1235.5397,-247.313 1248.9164,-242.4589 1256.3279,-240.4335 1288.1587,-233.1535 1299.0476,-229.734 1296.8285,-305.1367 1296.9396,-305.1668 1297.9836,-365.2587 1300.9889,-365.8284 1309.1835,-367.7982 1321.564,-372.0309 1322.0924,-371.7092 1322.0962,-344.1494 1316.3842,-309.801 1312.5731,-309.801 1312.5731,-309.801 1316.3842,-309.801 1322.0203,-306.528 1323.4857,-304.8149 1322.2607,-303.4665 1322.2607,-303.4665 1323.4857,-304.8149 1322.0203,-306.528 1316.3842,-309.801 1322.0962,-344.1494 1322.0924,-371.7092 1336.7039,-365.2472 1342.4055,-363.3671 1373.4352,-354.8517 1384.2429,-350.6345 1395.355,-345.0112 1397.811,-343.6302 1401.9247,-341.0805 1408.8718,-336.3696 1419.2872,-328.7109 1419.4956,-328.5345 1425.3694,-323.2091 1427.4988,-321.1506 1441.4733,-309.4902 1488.6637,-267.8746 1488.1719,-266.6844 1480.085,-256.1626 1409.6074,-160.1068 1406.7162,-128.1522 1406.6982,-127.8967 1324.1804,-58.7638 1260.5377,-42.4411 1254.0088,-40.6107 1242.5344,-37.1205 1238.871,-35.9202 1231.231,-33.2369 1226.8883,-31.6101 1225.0773,-30.8892 1205.0853,9.0633 1148.5671,64.6519 1099.6139,78.5 1087.7188,82.1359 1072.7997,87.3703 1071.6919,87.7835 1070.8115,54.1652 1068.5068,10.0384 1068.1312,-54.348 1062.4823,-51.0444 1058.4382,-51.0444 1052.4026,-54.7468 1051.5037,-55.8477 1053.0006,-57.6575 1057.4553,-60.2232 1057.4553,-60.2232 1053.0006,-57.6575 1051.5037,-55.8477 1052.4026,-54.7468 1058.4382,-51.0444 1062.4823,-51.0444 1068.1312,-54.348 1068.5068,10.0384 1070.8115,54.1652 1071.6919,87.7835 1054.9589,95.1678 1049.283,93.1605 1040.787,90.6843 1030.5928,87.9234 991.7377,79.801 969.9251,6.2237 961.0354,-29.0038 958.7305,-43.8498 948.9883,-82.3997 939.7582,-113.5345 905.0927,-124.9913 916.1912,-211.0029 916.5691,-212.8078 916.8478,-214.9226 917.478,-226.4164 917.2343,-237.0871 926.5521,-309.2982 964.9217,-333.1352 970.014,-336.8203 971.3666,-337.8467 988.0231,-351.0912 992.2095,-354.8556 1003.3953,-353.4117 1005.3578,-353.2372 1011.0219,-342.4378 1023.7668,-320.5074 1044.342,-289.1016 1054.1893,-272.4035 1061.9243,-257.4173 1077.4221,-221.8875 1084.2516,-210.1838 1104.9912,-178.5269 1107.1479,-180.4431 1111.7108,-184.8049 1115.4069,-188.1067 1127.9393,-197.8028 1134.4661,-202.4398 1147.4664,-210.0583 1150.5499,-211.6636 1150.5758,-211.6754 1192.5944,-228.3316 1196.1285,-229.9496 1206.2269,-235.2029 1213.6497,-239.9705 1227.2678,-250.4378 1227.6724,-250.7981 1226.6714,-254.6812 1221.2633,-280.1068 1219.0134,-299.2003 1215.2029,-317.1754 1210.3412,-336.0371 1152.7435,-362.3288 1151.194,-363.0977 1135.301,-371.6308 1135.1978,-371.6902 1131.3165,-374.0739 1126.8538,-376.9911 1123.798,-379.11 1120.9457,-381.3232 1129.1257,-397.5322 1145.4321,-432.8321 1159.6825,-472.1693 1168.4519,-493.457 1198.3709,-552.7414 1200.6724,-552.9586 1217.646,-553.5181 1220.3673,-462.8381 1220.3673,-462.8381 1217.646,-553.5181 1218.1461,-553.5549 1224.6683,-553.6343 1231.0817,-553.4496 1236.5178,-547.5756 1236.4955,-539.4894 1238.2445,-498.8903 1244.0619,-425.9763 1248.3663,-427.1316 1254.0889,-425.5485 1258.1177,-422.3629 1254,-419.0197 1254,-419.0197 1258.1177,-422.3629 1254.0889,-425.5485 1248.3663,-427.1316 1244.0619,-425.9763 1238.2445,-498.8903 1236.4955,-539.4894 1236.5178,-547.5756 1237.2391,-546.9186 1248.2822,-536.3231 1249.3091,-535.2183 1261.7118,-523.0919 1267.481,-517.7493 1267.481,-517.7493"/>
<polygon fill="#fbb4ae" stroke="#fbb4ae" points="557.8677,-311.8719 567.7067,-320.6268 570.8311,-323.6761 637.2437,-383.5579 639.5172,-385.7612 647.2041,-393.7495 647.8159,-394.4266 649.6386,-396.2981 650.0461,-396.6595 650.3848,-387.8668 650.7602,-305.3029 650.7602,-305.3029 650.3848,-387.8668 650.0461,-396.6595 661.6863,-408.3172 671.3205,-419.0529 679.0236,-428.0614 681.0519,-430.6565 688.8075,-419.736 698.6713,-407.1572 698.8242,-406.9484 698.3615,-336.1415 694.6475,-305.2577 691.8291,-305.2577 691.8291,-305.2577 694.6475,-305.2577 698.3615,-336.1415 698.8242,-406.9484 706.8187,-397.1811 712.8884,-390.206 719.3274,-383.2806 737.0435,-362.4901 767.8084,-321.879 783.5342,-303.3528 778.2802,-296.6804 777.1123,-295.0457 741.1446,-239.3387 717.2901,-209.1645 708.8939,-197.8918 702.5483,-189.9122 691.9584,-175.2235 687.1113,-168.1983 686.7335,-168.3324 673.9364,-172.0442 656.8813,-176.2533 643.9522,-178.3215 631.657,-179.7565 554.7162,-187.0648 498.2899,-240.2177 512.2816,-260.4117 521.0143,-271.5482 522.468,-273.3217 527.9235,-279.6872 535.6094,-289.193 548.041,-302.365 554.476,-308.4228 557.8677,-311.8719 557.8677,-311.8719"/>
<polygon fill="#bbd7d9" stroke="#bbd7d9" points="1221.2633,-280.1068 1226.6714,-254.6812 1227.6724,-250.7981 1227.2678,-250.4378 1213.6497,-239.9705 1206.2269,-235.2029 1196.1285,-229.9496 1192.5944,-228.3316 1150.5758,-211.6754 1150.5499,-211.6636 1147.4664,-210.0583 1134.4661,-202.4398 1127.9393,-197.8028 1115.4069,-188.1067 1111.7108,-184.8049 1107.1479,-180.4431 1104.9912,-178.5269 1084.2516,-210.1838 1077.4221,-221.8875 1061.9243,-257.4173 1054.1893,-272.4035 1044.342,-289.1016 1023.7668,-320.5074 1011.0219,-342.4378 1005.3578,-353.2372 1035.139,-365.386 1045.6227,-368.8432 1051.0552,-370.4929 1062.2606,-373.6029 1073.6854,-375.8764 1086.8752,-377.8123 1109.9366,-379.9879 1120.9457,-381.3232 1123.798,-379.11 1126.8538,-376.9911 1131.3165,-374.0739 1135.1978,-371.6902 1135.301,-371.6308 1151.194,-363.0977 1152.7435,-362.3288 1210.3412,-336.0371 1215.2029,-317.1754 1219.0134,-299.2003 1221.2633,-280.1068 1221.2633,-280.1068"/>
<polygon fill="#fed9a6" stroke="#fed9a6" points="1345.6718,-726.7052 1337.463,-725.5286 1315.6271,-723.3455 1309.282,-722.1515 1308.5906,-721.9908 1304.7185,-720.9168 1294.0386,-687.9244 1292.3149,-678.5899 1291.3433,-670.1406 1287.5708,-649.9444 1266.1938,-583.9066 1337.8322,-597.2482 1346.3865,-597.9633 1356.6437,-598.291 1357.3301,-598.2421 1357.6948,-573.9745 1357.6948,-573.9745 1357.3301,-598.2421 1356.6437,-598.291 1346.3865,-597.9633 1337.8322,-597.2482 1266.1938,-583.9066 1254.038,-573.8842 1240.906,-562.5039 1234.9558,-557.1122 1231.0817,-553.4496 1236.5178,-547.5756 1237.2391,-546.9186 1248.2822,-536.3231 1249.3091,-535.2183 1261.7118,-523.0919 1267.481,-517.7493 1284.3618,-504.6237 1329.5204,-471.9045 1326.1711,-437.4397 1325.681,-421.0361 1324.6875,-415.1777 1324.6117,-414.4111 1324.1365,-398.5024 1321.564,-372.0309 1322.0924,-371.7092 1336.7039,-365.2472 1342.4055,-363.3671 1373.4352,-354.8517 1384.2429,-350.6345 1395.355,-345.0112 1397.811,-343.6302 1401.9247,-341.0805 1408.8718,-336.3696 1419.2872,-328.7109 1419.4956,-328.5345 1425.3694,-323.2091 1427.4988,-321.1506 1441.4733,-309.4902 1488.6637,-267.8746 1533.9185,-305.406 1550.6094,-332.7115 1552.9701,-373.6946 1558.0516,-434.3466 1562.6407,-468.5293 1549.4779,-490.9697 1544.3871,-539.82 1542.9531,-588.8843 1534.5962,-613.5061 1528.7804,-612.8974 1408.5262,-652.0289 1408.1843,-598.411 1409.0961,-598.3433 1415.2379,-598.5176 1415.2379,-598.5176 1409.0961,-598.3433 1408.1843,-598.411 1408.5262,-652.0289 1528.7804,-612.8974 1534.5962,-613.5061 1541.2046,-680.9078 1547.6235,-725.1293 1480.8091,-807.4542 1422.2899,-766.2252 1408.3694,-755.7718 1399.4706,-749.476 1387.7067,-742.6721 1377.6372,-737.7117 1372.5284,-735.418 1363.6335,-731.8126 1362.8052,-731.5137 1352.6899,-728.3033 1349.701,-727.4872 1348.9683,-727.3193 1345.6718,-726.7052 1345.6718,-726.7052"/>
<polygon fill="#fed9a6" stroke="#fed9a6" points="889.889,-640.955 887.6995,-691.6428 887.6995,-691.6428 889.889,-640.955 876.386,-637.2526 873.2,-636.2661 861.6712,-631.8646 854.9993,-629.0809 844.4483,-623.929 843.2255,-623.2892 842.5568,-622.9155 830.4353,-615.6982 819.7704,-608.5883 787.2502,-584.6007 760.7533,-565.9648 736.6815,-670.3824 729.881,-712.5351 728.4335,-724.16 722.2426,-751.0149 747.9067,-806.8331 757.4089,-825.9648 790.168,-883.7455 815.4201,-862.8504 820.2384,-858.4686 827.0828,-852.4924 828.5226,-851.288 848.7277,-836.4851 862.0671,-828.1483 863.2328,-827.4624 870.2102,-823.6061 883.135,-817.3828 892.7519,-813.4473 947.8646,-792.9009 949.397,-788.9699 955.105,-772.5313 961.7835,-746.7668 972.5525,-711.5664 986.4472,-675.9207 979.9731,-671.6105 972.8122,-667.3571 960.3508,-660.8345 955.5837,-658.6804 940.9688,-652.5918 938.714,-651.8167 924.6819,-647.9805 889.889,-640.955 889.889,-640.955"/>
<polyline fill="none" stroke="#000000" points="986.4472,-675.9207 972.5525,-711.5664 961.7835,-746.7668 955.105,-772.5313 949.397,-788.9699 947.8646,-792.9009 892.7519,-813.4473 883.135,-817.3828 870.2102,-823.6061 863.2328,-827.4624 862.0671,-828.1483 848.7277,-836.4851 828.5226,-851.288 827.0828,-852.4924 820.2384,-858.4686 815.4201,-862.8504 790.168,-883.7455 786.8267,-900.6243 728.0453,-959.9248 740.6807,-1033.4722 745.8065,-1076.0629 750.64,-1127.6393 775.465,-1150.7764 855.3882,-1180.9271 865.5401,-1185.0009 870.2066,-1183.4475 877.4739,-1181.1926 877.6171,-1181.1547 890.5143,-1178.0204 899.5667,-1176.2267 912.5536,-1173.9457 914.574,-1173.6367 976.9463,-1168.2971 1043.9733,-1135.9106 1058.8203,-1122.3425 1090.8821,-1120.8414 1094.6064,-1119.6815 1111.4908,-1114.7496 1121.0487,-1112.5203 1138.3521,-1109.1599 1140.4045,-1108.802 1142.7683,-1108.5284 1148.921,-1106.9913 1160.6774,-1104.2963 1173.8214,-1101.828 1183.4819,-1100.614 1206.8389,-1098.6431 1271.1824,-1070.9432 1328.6943,-1080.3285 1333.7578,-1081.2693 1336.7446,-1081.8917 1338.5526,-1082.3094 1357.241,-1087.4863 1377.0494,-1094.3273 1380.9426,-1095.9352 1465.7085,-1052.0403 1507.0006,-1009.1754 1524.3799,-950.4045 1526.7075,-943.6028 1526.6844,-943.5439 1479.5038,-815.3683 1480.0803,-811.4011 1480.8091,-807.4542 1422.2899,-766.2252 1408.3694,-755.7718 1399.4706,-749.476 1387.7067,-742.6721 1377.6372,-737.7117 1372.5284,-735.418 1363.6335,-731.8126 1362.8052,-731.5137 1352.6899,-728.3033 1349.701,-727.4872 1348.9683,-727.3193 1345.6718,-726.7052 1337.463,-725.5286 1315.6271,-723.3455 1309.282,-722.1515 1308.5906,-721.9908 1304.7185,-720.9168 1294.0386,-687.9244 1292.3149,-678.5899 1291.3433,-670.1406 1287.5708,-649.9444 1266.1938,-583.9066 1254.038,-573.8842 1240.906,-562.5039 1234.9558,-557.1122 1231.0817,-553.4496 1224.6683,-553.6343 1218.1461,-553.5549 1217.646,-553.5181 1200.6724,-552.9586 1198.3709,-552.7414 1182.7559,-561.6857 1182.2274,-561.9731 1166.8716,-569.0604 1161.7487,-571.2807 1122.0283,-551.8236 1087.5204,-532.8941 1082.255,-530.4528 1075.8939,-528.0447 1074.8262,-527.7323 1063.3401,-525.3283 1063.1592,-525.3062 1058.1244,-525.1137 1053.5112,-525.33 1052.1713,-525.5081 1049.3263,-525.6448 1043.8907,-524.9824 1038.9845,-524.8101 1035.2449,-525.3217 1031.0217,-525.184 1030.0564,-525.0707 1022.6813,-524.8384 1017.0294,-524.186 1016.0422,-523.9902 1008.1204,-521.7433 1003.6014,-520.0847 1002.1378,-519.425 990.3438,-513.0695 981.2485,-506.6519 980.8861,-506.3668 971.639,-498.2837 970.304,-496.889 957.9344,-485.2374 957.8981,-485.1949 949.9332,-476.64 947.8395,-474.2405 940.8906,-466.8517 933.9457,-458.562 925.2711,-462.232 925.2225,-462.251 864.3074,-482.3517 856.0009,-485.3487 853.8233,-486.2007 851.9338,-486.998 837.8926,-493.362 832.7435,-496.1701 822.5344,-502.0599 814.1296,-507.1667 800.9572,-516.3967 789.3788,-524.8629 755.1561,-551.9245 755.373,-552.4175 760.7533,-565.9648 787.2502,-584.6007 819.7704,-608.5883 830.4353,-615.6982 842.5568,-622.9155 843.2255,-623.2892 844.4483,-623.929 854.9993,-629.0809 861.6712,-631.8646 873.2,-636.2661 876.386,-637.2526 889.889,-640.955 924.6819,-647.9805 938.714,-651.8167 940.9688,-652.5918 955.5837,-658.6804 960.3508,-660.8345 972.8122,-667.3571 979.9731,-671.6105 986.4472,-675.9207 "/>
<polyline fill="none" stroke="#000000" points="497.9329,-924.1243 464.4084,-869.6235 332.6211,-793.5985 316.894,-784.9172 286.8858,-756.6083 181.5131,-823.1812 101.475,-803.2986 88.4894,-800.6072 79.7875,-799.1636 70.8207,-797.862 59.3075,-796.4302 50.4625,-796.064 44.1222,-793.619 -46.0793,-760.9994 -69.7272,-693.8713 -86.6934,-649.4816 -83.0881,-641.7102 -82.1017,-639.4451 -40.8779,-538.2971 -97.3412,-445.5807 -112.1813,-422.3633 -112.9008,-415.4786 -117.2864,-380.2121 -116.9624,-379.2539 -116.8673,-379.1212 -116.6963,-378.8726 -63.9485,-318.0739 34.2291,-261.6505 47.6059,-266.8889 50.2224,-267.803 65.9095,-272.6324 80.5322,-276.5185 92.1974,-279.1235 111.5454,-281.8138 119.2807,-282.5623 170.9131,-285.3821 171.6814,-285.6528 264.5219,-372.9717 311.6186,-415.4032 362.0155,-350.7415 434.7832,-252.9877 442.3986,-249.833 486.4503,-242.4203 498.2899,-240.2177 512.2816,-260.4117 521.0143,-271.5482 522.468,-273.3217 527.9235,-279.6872 535.6094,-289.193 548.041,-302.365 554.476,-308.4228 557.8677,-311.8719 567.7067,-320.6268 570.8311,-323.6761 637.2437,-383.5579 639.5172,-385.7612 647.2041,-393.7495 647.8159,-394.4266 649.6386,-396.2981 650.0461,-396.6595 661.6863,-408.3172 671.3205,-419.0529 679.0236,-428.0614 681.0519,-430.6565 684.6531,-486.3639 699.4125,-509.9863 712.9032,-530.6257 755.1561,-551.9245 755.373,-552.4175 760.7533,-565.9648 736.6815,-670.3824 729.881,-712.5351 728.4335,-724.16 722.2426,-751.0149 747.9067,-806.8331 757.4089,-825.9648 790.168,-883.7455 786.8267,-900.6243 728.0453,-959.9248 644.8024,-953.9245 632.733,-953.5663 630.9033,-953.5508 614.3094,-954.1158 602.5975,-955.0119 601.0784,-955.1925 588.4012,-956.9697 577.7476,-958.9151 576.9457,-958.5461 497.9329,-924.1243 "/>
<polyline fill="none" stroke="#000000" points="741.0079,-100.6688 687.1113,-168.1983 691.9584,-175.2235 702.5483,-189.9122 708.8939,-197.8918 717.2901,-209.1645 741.1446,-239.3387 777.1123,-295.0457 778.2802,-296.6804 783.5342,-303.3528 767.8084,-321.879 737.0435,-362.4901 719.3274,-383.2806 712.8884,-390.206 706.8187,-397.1811 698.8242,-406.9484 698.6713,-407.1572 688.8075,-419.736 681.0519,-430.6565 684.6531,-486.3639 699.4125,-509.9863 712.9032,-530.6257 755.1561,-551.9245 789.3788,-524.8629 800.9572,-516.3967 814.1296,-507.1667 822.5344,-502.0599 832.7435,-496.1701 837.8926,-493.362 851.9338,-486.998 853.8233,-486.2007 856.0009,-485.3487 864.3074,-482.3517 925.2225,-462.251 925.2711,-462.232 933.9457,-458.562 940.8906,-466.8517 947.8395,-474.2405 949.9332,-476.64 957.8981,-485.1949 957.9344,-485.2374 970.304,-496.889 971.639,-498.2837 980.8861,-506.3668 981.2485,-506.6519 990.3438,-513.0695 1002.1378,-519.425 1003.6014,-520.0847 1008.1204,-521.7433 1016.0422,-523.9902 1017.0294,-524.186 1022.6813,-524.8384 1030.0564,-525.0707 1031.0217,-525.184 1035.2449,-525.3217 1038.9845,-524.8101 1043.8907,-524.9824 1049.3263,-525.6448 1052.1713,-525.5081 1053.5112,-525.33 1058.1244,-525.1137 1063.1592,-525.3062 1063.3401,-525.3283 1074.8262,-527.7323 1075.8939,-528.0447 1082.255,-530.4528 1087.5204,-532.8941 1122.0283,-551.8236 1161.7487,-571.2807 1166.8716,-569.0604 1182.2274,-561.9731 1182.7559,-561.6857 1198.3709,-552.7414 1168.4519,-493.457 1159.6825,-472.1693 1145.4321,-432.8321 1129.1257,-397.5322 1120.9457,-381.3232 1109.9366,-379.9879 1086.8752,-377.8123 1073.6854,-375.8764 1062.2606,-373.6029 1051.0552,-370.4929 1045.6227,-368.8432 1035.139,-365.386 1005.3578,-353.2372 1003.3953,-353.4117 992.2095,-354.8556 988.0231,-351.0912 971.3666,-337.8467 970.014,-336.8203 964.9217,-333.1352 926.5521,-309.2982 917.2343,-237.0871 917.478,-226.4164 916.8478,-214.9226 916.5691,-212.8078 916.1912,-211.0029 905.0927,-124.9913 939.7582,-113.5345 948.9883,-82.3997 958.7305,-43.8498 961.0354,-29.0038 969.9251,6.2237 991.7377,79.801 903.8035,109.7558 882.1277,117.686 879.6996,118.7522 869.7173,120.9328 861.8156,123.0016 857.7953,122.3257 850.1624,121.2012 782.5598,112.6476 745.7308,75.1672 735.2778,-13.8898 734.3962,-20.0481 731.0392,-37.2741 741.0079,-100.6688 "/>
<polyline fill="none" stroke="#000000" points="971.3666,-337.8467 970.014,-336.8203 964.9217,-333.1352 926.5521,-309.2982 917.2343,-237.0871 917.478,-226.4164 916.8478,-214.9226 916.5691,-212.8078 916.1912,-211.0029 905.0927,-124.9913 939.7582,-113.5345 948.9883,-82.3997 958.7305,-43.8498 961.0354,-29.0038 969.9251,6.2237 991.7377,79.801 1030.5928,87.9234 1040.787,90.6843 1049.283,93.1605 1054.9589,95.1678 1071.6919,87.7835 1072.7997,87.3703 1087.7188,82.1359 1099.6139,78.5 1148.5671,64.6519 1205.0853,9.0633 1225.0773,-30.8892 1226.8883,-31.6101 1231.231,-33.2369 1238.871,-35.9202 1242.5344,-37.1205 1254.0088,-40.6107 1260.5377,-42.4411 1324.1804,-58.7638 1406.6982,-127.8967 1406.7162,-128.1522 1409.6074,-160.1068 1480.085,-256.1626 1488.1719,-266.6844 1488.6637,-267.8746 1441.4733,-309.4902 1427.4988,-321.1506 1425.3694,-323.2091 1419.4956,-328.5345 1419.2872,-328.7109 1408.8718,-336.3696 1401.9247,-341.0805 1397.811,-343.6302 1395.355,-345.0112 1384.2429,-350.6345 1373.4352,-354.8517 1342.4055,-363.3671 1336.7039,-365.2472 1322.0924,-371.7092 1321.564,-372.0309 1324.1365,-398.5024 1324.6117,-414.4111 1324.6875,-415.1777 1325.681,-421.0361 1326.1711,-437.4397 1329.5204,-471.9045 1284.3618,-504.6237 1267.481,-517.7493 1261.7118,-523.0919 1249.3091,-535.2183 1248.2822,-536.3231 1237.2391,-546.9186 1236.5178,-547.5756 1231.0817,-553.4496 1224.6683,-553.6343 1218.1461,-553.5549 1217.646,-553.5181 1200.6724,-552.9586 1198.3709,-552.7414 1168.4519,-493.457 1159.6825,-472.1693 1145.4321,-432.8321 1129.1257,-397.5322 1120.9457,-381.3232 1123.798,-379.11 1126.8538,-376.9911 1131.3165,-374.0739 1135.1978,-371.6902 1135.301,-371.6308 1151.194,-363.0977 1152.7435,-362.3288 1210.3412,-336.0371 1215.2029,-317.1754 1219.0134,-299.2003 1221.2633,-280.1068 1226.6714,-254.6812 1227.6724,-250.7981 1227.2678,-250.4378 1213.6497,-239.9705 1206.2269,-235.2029 1196.1285,-229.9496 1192.5944,-228.3316 1150.5758,-211.6754 1150.5499,-211.6636 1147.4664,-210.0583 1134.4661,-202.4398 1127.9393,-197.8028 1115.4069,-188.1067 1111.7108,-184.8049 1107.1479,-180.4431 1104.9912,-178.5269 1084.2516,-210.1838 1077.4221,-221.8875 1061.9243,-257.4173 1054.1893,-272.4035 1044.342,-289.1016 1023.7668,-320.5074 1011.0219,-342.4378 1005.3578,-353.2372 1003.3953,-353.4117 992.2095,-354.8556 988.0231,-351.0912 971.3666,-337.8467 "/>
<polyline fill="none" stroke="#000000" points="671.3205,-419.0529 679.0236,-428.0614 681.0519,-430.6565 688.8075,-419.736 698.6713,-407.1572 698.8242,-406.9484 706.8187,-397.1811 712.8884,-390.206 719.3274,-383.2806 737.0435,-362.4901 767.8084,-321.879 783.5342,-303.3528 778.2802,-296.6804 777.1123,-295.0457 741.1446,-239.3387 717.2901,-209.1645 708.8939,-197.8918 702.5483,-189.9122 691.9584,-175.2235 687.1113,-168.1983 686.7335,-168.3324 673.9364,-172.0442 656.8813,-176.2533 643.9522,-178.3215 631.657,-179.7565 554.7162,-187.0648 498.2899,-240.2177 512.2816,-260.4117 521.0143,-271.5482 522.468,-273.3217 527.9235,-279.6872 535.6094,-289.193 548.041,-302.365 554.476,-308.4228 557.8677,-311.8719 567.7067,-320.6268 570.8311,-323.6761 637.2437,-383.5579 639.5172,-385.7612 647.2041,-393.7495 647.8159,-394.4266 649.6386,-396.2981 650.0461,-396.6595 661.6863,-408.3172 671.3205,-419.0529 "/>
<polyline fill="none" stroke="#000000" points="1126.8538,-376.9911 1131.3165,-374.0739 1135.1978,-371.6902 1135.301,-371.6308 1151.194,-363.0977 1152.7435,-362.3288 1210.3412,-336.0371 1215.2029,-317.1754 1219.0134,-299.2003 1221.2633,-280.1068 1226.6714,-254.6812 1227.6724,-250.7981 1227.2678,-250.4378 1213.6497,-239.9705 1206.2269,-235.2029 1196.1285,-229.9496 1192.5944,-228.3316 1150.5758,-211.6754 1150.5499,-211.6636 1147.4664,-210.0583 1134.4661,-202.4398 1127.9393,-197.8028 1115.4069,-188.1067 1111.7108,-184.8049 1107.1479,-180.4431 1104.9912,-178.5269 1084.2516,-210.1838 1077.4221,-221.8875 1061.9243,-257.4173 1054.1893,-272.4035 1044.342,-289.1016 1023.7668,-320.5074 1011.0219,-342.4378 1005.3578,-353.2372 1035.139,-365.386 1045.6227,-368.8432 1051.0552,-370.4929 1062.2606,-373.6029 1073.6854,-375.8764 1086.8752,-377.8123 1109.9366,-379.9879 1120.9457,-381.3232 1123.798,-379.11 1126.8538,-376.9911 "/>
<polyline fill="none" stroke="#000000" points="1419.2872,-328.7109 1419.4956,-328.5345 1425.3694,-323.2091 1427.4988,-321.1506 1441.4733,-309.4902 1488.6637,-267.8746 1533.9185,-305.406 1550.6094,-332.7115 1552.9701,-373.6946 1558.0516,-434.3466 1562.6407,-468.5293 1549.4779,-490.9697 1544.3871,-539.82 1542.9531,-588.8843 1534.5962,-613.5061 1541.2046,-680.9078 1547.6235,-725.1293 1480.8091,-807.4542 1422.2899,-766.2252 1408.3694,-755.7718 1399.4706,-749.476 1387.7067,-742.6721 1377.6372,-737.7117 1372.5284,-735.418 1363.6335,-731.8126 1362.8052,-731.5137 1352.6899,-728.3033 1349.701,-727.4872 1348.9683,-727.3193 1345.6718,-726.7052 1337.463,-725.5286 1315.6271,-723.3455 1309.282,-722.1515 1308.5906,-721.9908 1304.7185,-720.9168 1294.0386,-687.9244 1292.3149,-678.5899 1291.3433,-670.1406 1287.5708,-649.9444 1266.1938,-583.9066 1254.038,-573.8842 1240.906,-562.5039 1234.9558,-557.1122 1231.0817,-553.4496 1236.5178,-547.5756 1237.2391,-546.9186 1248.2822,-536.3231 1249.3091,-535.2183 1261.7118,-523.0919 1267.481,-517.7493 1284.3618,-504.6237 1329.5204,-471.9045 1326.1711,-437.4397 1325.681,-421.0361 1324.6875,-415.1777 1324.6117,-414.4111 1324.1365,-398.5024 1321.564,-372.0309 1322.0924,-371.7092 1336.7039,-365.2472 1342.4055,-363.3671 1373.4352,-354.8517 1384.2429,-350.6345 1395.355,-345.0112 1397.811,-343.6302 1401.9247,-341.0805 1408.8718,-336.3696 1419.2872,-328.7109 "/>
<polyline fill="none" stroke="#000000" points="862.0671,-828.1483 863.2328,-827.4624 870.2102,-823.6061 883.135,-817.3828 892.7519,-813.4473 947.8646,-792.9009 949.397,-788.9699 955.105,-772.5313 961.7835,-746.7668 972.5525,-711.5664 986.4472,-675.9207 979.9731,-671.6105 972.8122,-667.3571 960.3508,-660.8345 955.5837,-658.6804 940.9688,-652.5918 938.714,-651.8167 924.6819,-647.9805 889.889,-640.955 876.386,-637.2526 873.2,-636.2661 861.6712,-631.8646 854.9993,-629.0809 844.4483,-623.929 843.2255,-623.2892 842.5568,-622.9155 830.4353,-615.6982 819.7704,-608.5883 787.2502,-584.6007 760.7533,-565.9648 736.6815,-670.3824 729.881,-712.5351 728.4335,-724.16 722.2426,-751.0149 747.9067,-806.8331 757.4089,-825.9648 790.168,-883.7455 815.4201,-862.8504 820.2384,-858.4686 827.0828,-852.4924 828.5226,-851.288 848.7277,-836.4851 862.0671,-828.1483 "/>
<!-- apr&#45;&gt;Fedora Container Base -->
<g id="edge1" class="edge">
<title>apr&#45;&gt;Fedora Container Base</title>
<path fill="none" stroke="#444444" stroke-opacity="0.333333" d="M564.5413,-724.2428C652.813,-690.9511 840.745,-620.0724 933.9252,-584.9295"/>
<polygon fill="#444444" fill-opacity="0.333333" stroke="#444444" stroke-opacity="0.333333" points="935.3318,-588.1397 943.4533,-581.336 932.8615,-581.5901 935.3318,-588.1397"/>
</g>
<!-- device&#45;mapper&#45;libs&#45;&gt;Fedora Container Base -->
<g id="edge2" class="edge">
<title>device&#45;mapper&#45;libs&#45;&gt;Fedora Container Base</title>
<path fill="none" stroke="#444444" stroke-opacity="0.333333" d="M1136.9276,-949.086C1112.2517,-885.0493 1028.9532,-668.881 999.2673,-591.843"/>
<polygon fill="#444444" fill-opacity="0.333333" stroke="#444444" stroke-opacity="0.333333" points="1002.4648,-590.4069 995.6032,-582.3342 995.933,-592.9239 1002.4648,-590.4069"/>
</g>
<!-- device&#45;mapper&#45;libs&#45;&gt;device&#45;mapper -->
<g id="edge3" class="edge">
<title>device&#45;mapper&#45;libs&#45;&gt;device&#45;mapper</title>
<path fill="none" stroke="#444444" stroke-opacity="0.333333" d="M1151.7312,-949.014C1166.7812,-901.0117 1196.7273,-770.5911 1206.1855,-712.8979"/>
<polygon fill="#444444" fill-opacity="0.333333" stroke="#444444" stroke-opacity="0.333333" points="1209.6457,-713.4235 1207.7049,-703.0079 1202.7269,-712.3605 1209.6457,-713.4235"/>
</g>
<!-- device&#45;mapper&#45;&gt;Fedora Container Base -->
<g id="edge33" class="edge">
<title>device&#45;mapper&#45;&gt;Fedora Container Base</title>
<path fill="none" stroke="#444444" stroke-opacity="0.333333" d="M1175.4162,-666.7669C1136.5039,-645.4161 1071.6944,-609.8557 1029.572,-586.7435"/>
<polygon fill="#444444" fill-opacity="0.333333" stroke="#444444" stroke-opacity="0.333333" points="1031.1361,-583.6095 1020.6854,-581.8675 1027.7688,-589.7464 1031.1361,-583.6095"/>
</g>
<!-- device&#45;mapper&#45;&gt;device&#45;mapper&#45;libs -->
<g id="edge34" class="edge">
<title>device&#45;mapper&#45;&gt;device&#45;mapper&#45;libs</title>
<path fill="none" stroke="#444444" stroke-opacity="0.333333" d="M1200.4688,-702.976C1185.4188,-750.9783 1155.4727,-881.3989 1146.0145,-939.0921"/>
<polygon fill="#444444" fill-opacity="0.333333" stroke="#444444" stroke-opacity="0.333333" points="1142.5543,-938.5665 1144.4951,-948.9821 1149.4731,-939.6295 1142.5543,-938.5665"/>
</g>
<!-- device&#45;mapper&#45;&gt;systemd -->
<g id="edge35" class="edge">
<title>device&#45;mapper&#45;&gt;systemd</title>
<path fill="none" stroke="#444444" stroke-opacity="0.333333" d="M1194.5403,-666.4656C1167.955,-631.0221 1109.4563,-553.0316 1078.8071,-512.1702"/>
<polygon fill="#444444" fill-opacity="0.333333" stroke="#444444" stroke-opacity="0.333333" points="1081.5114,-509.9426 1072.7111,-504.043 1075.9116,-514.1429 1081.5114,-509.9426"/>
</g>
<!-- device&#45;mapper&#45;&gt;util&#45;linux -->
<g id="edge36" class="edge">
<title>device&#45;mapper&#45;&gt;util&#45;linux</title>
<path fill="none" stroke="#444444" stroke-opacity="0.333333" d="M1211.07,-666.7625C1217.972,-621.793 1235.9764,-504.4876 1244.2845,-450.3573"/>
<polygon fill="#444444" fill-opacity="0.333333" stroke="#444444" stroke-opacity="0.333333" points="1247.753,-450.8291 1245.8106,-440.4138 1240.834,-449.767 1247.753,-450.8291"/>
</g>
<!-- libargon2&#45;&gt;Fedora Container Base -->
<g id="edge4" class="edge">
<title>libargon2&#45;&gt;Fedora Container Base</title>
<path fill="none" stroke="#444444" stroke-opacity="0.333333" d="M894.9289,-1029.9208C909.6742,-956.6626 965.0445,-681.5683 982.9945,-592.3879"/>
<polygon fill="#444444" fill-opacity="0.333333" stroke="#444444" stroke-opacity="0.333333" points="986.4507,-592.954 984.9928,-582.46 979.5883,-591.5727 986.4507,-592.954"/>
</g>
<!-- dbus&#45;broker&#45;&gt;Fedora Container Base -->
<g id="edge5" class="edge">
<title>dbus&#45;broker&#45;&gt;Fedora Container Base</title>
<path fill="none" stroke="#444444" stroke-opacity="0.333333" d="M848.6639,-246.3548C873.0969,-301.8468 947.177,-470.0969 976.5065,-536.7097"/>
<polygon fill="#444444" fill-opacity="0.333333" stroke="#444444" stroke-opacity="0.333333" points="973.4238,-538.3941 980.6568,-546.1359 979.8303,-535.5733 973.4238,-538.3941"/>
</g>
<!-- dbus&#45;broker&#45;&gt;dbus&#45;common -->
<g id="edge6" class="edge">
<title>dbus&#45;broker&#45;&gt;dbus&#45;common</title>
<path fill="none" stroke="#444444" stroke-opacity="0.333333" d="M839.1997,-246.449C837.0081,-272.7999 832.9259,-321.8821 830.3365,-353.017"/>
<polygon fill="#444444" fill-opacity="0.333333" stroke="#444444" stroke-opacity="0.333333" points="826.8293,-352.9589 829.4883,-363.2146 833.8052,-353.5391 826.8293,-352.9589"/>
</g>
<!-- dbus&#45;broker&#45;&gt;shadow&#45;utils -->
<g id="edge7" class="edge">
<title>dbus&#45;broker&#45;&gt;shadow&#45;utils</title>
<path fill="none" stroke="#444444" stroke-opacity="0.333333" d="M914.2111,-223.2949C914.3417,-223.286 914.4723,-223.2771 914.603,-223.2682"/>
<polygon fill="#444444" fill-opacity="0.333333" stroke="#444444" stroke-opacity="0.333333" points="910.7395,-227.039 920.4791,-222.8689 910.2648,-220.0551 910.7395,-227.039"/>
</g>
<!-- dbus&#45;broker&#45;&gt;systemd -->
<g id="edge8" class="edge">
<title>dbus&#45;broker&#45;&gt;systemd</title>
<path fill="none" stroke="#444444" stroke-opacity="0.333333" d="M856.0738,-246.4138C894.1533,-291.3339 993.0049,-407.9435 1037.2403,-460.1254"/>
<polygon fill="#444444" fill-opacity="0.333333" stroke="#444444" stroke-opacity="0.333333" points="1034.717,-462.5615 1043.8532,-467.9263 1040.0566,-458.035 1034.717,-462.5615"/>
</g>
<!-- dbus&#45;common&#45;&gt;Fedora Container Base -->
<g id="edge9" class="edge">
<title>dbus&#45;common&#45;&gt;Fedora Container Base</title>
<path fill="none" stroke="#444444" stroke-opacity="0.333333" d="M843.9731,-399.5598C872.6048,-432.1601 932.7047,-500.5903 965.7207,-538.1825"/>
<polygon fill="#444444" fill-opacity="0.333333" stroke="#444444" stroke-opacity="0.333333" points="963.4929,-540.9499 972.7216,-546.1538 968.7524,-536.3306 963.4929,-540.9499"/>
</g>
<!-- dbus&#45;common&#45;&gt;dbus&#45;common -->
<g id="edge10" class="edge">
<title>dbus&#45;common&#45;&gt;dbus&#45;common</title>
<path fill="none" stroke="#444444" stroke-opacity="0.333333" d="M905.5455,-387.3733C916.295,-386.3812 923.48,-384.3734 923.48,-381.35 923.48,-379.4131 920.5313,-377.8931 915.5857,-376.7898"/>
<polygon fill="#444444" fill-opacity="0.333333" stroke="#444444" stroke-opacity="0.333333" points="915.9457,-373.3054 905.5455,-375.3267 914.9362,-380.2323 915.9457,-373.3054"/>
</g>
<!-- dbus&#45;common&#45;&gt;systemd -->
<g id="edge11" class="edge">
<title>dbus&#45;common&#45;&gt;systemd</title>
<path fill="none" stroke="#444444" stroke-opacity="0.333333" d="M867.9915,-399.4644C907.4059,-417.3084 967.6963,-444.6036 1010.0149,-463.7625"/>
<polygon fill="#444444" fill-opacity="0.333333" stroke="#444444" stroke-opacity="0.333333" points="1008.738,-467.0263 1019.2915,-467.9622 1011.6251,-460.6494 1008.738,-467.0263"/>
</g>
<!-- shadow&#45;utils&#45;&gt;Fedora Container Base -->
<g id="edge12" class="edge">
<title>shadow&#45;utils&#45;&gt;Fedora Container Base</title>
<path fill="none" stroke="#444444" stroke-opacity="0.333333" d="M991.1044,-236.1873C990.6806,-292.847 989.3783,-466.9264 988.8631,-535.8068"/>
<polygon fill="#444444" fill-opacity="0.333333" stroke="#444444" stroke-opacity="0.333333" points="985.3624,-535.8984 988.7874,-545.9244 992.3622,-535.9509 985.3624,-535.8984"/>
</g>
<!-- shadow&#45;utils&#45;&gt;shadow&#45;utils -->
<g id="edge13" class="edge">
<title>shadow&#45;utils&#45;&gt;shadow&#45;utils</title>
<path fill="none" stroke="#444444" stroke-opacity="0.333333" d="M1062.0656,-224.1834C1072.609,-223.23 1079.74,-221.1889 1079.74,-218.06 1079.74,-216.1044 1076.9544,-214.5738 1072.2912,-213.468"/>
<polygon fill="#444444" fill-opacity="0.333333" stroke="#444444" stroke-opacity="0.333333" points="1072.4738,-209.9564 1062.0656,-211.9366 1071.4369,-216.8792 1072.4738,-209.9564"/>
</g>
<!-- shadow&#45;utils&#45;&gt;libsemanage -->
<g id="edge14" class="edge">
<title>shadow&#45;utils&#45;&gt;libsemanage</title>
<path fill="none" stroke="#444444" stroke-opacity="0.333333" d="M999.0278,-199.7612C1011.0479,-171.5181 1034.2077,-117.1003 1048.3556,-83.8574"/>
<polygon fill="#444444" fill-opacity="0.333333" stroke="#444444" stroke-opacity="0.333333" points="1051.7391,-84.8449 1052.4347,-74.2729 1045.2981,-82.1036 1051.7391,-84.8449"/>
</g>
<!-- systemd&#45;&gt;Fedora Container Base -->
<g id="edge15" class="edge">
<title>systemd&#45;&gt;Fedora Container Base</title>
<path fill="none" stroke="#444444" stroke-opacity="0.333333" d="M1042.8371,-504.1811C1033.5766,-514.4536 1021.8472,-527.4648 1011.6714,-538.7527"/>
<polygon fill="#444444" fill-opacity="0.333333" stroke="#444444" stroke-opacity="0.333333" points="1009.0203,-536.4663 1004.9242,-546.2373 1014.2196,-541.1533 1009.0203,-536.4663"/>
</g>
<!-- systemd&#45;&gt;shadow&#45;utils -->
<g id="edge16" class="edge">
<title>systemd&#45;&gt;shadow&#45;utils</title>
<path fill="none" stroke="#444444" stroke-opacity="0.333333" d="M1054.5288,-467.6113C1042.8371,-421.5103 1012.254,-300.9192 998.3292,-246.0131"/>
<polygon fill="#444444" fill-opacity="0.333333" stroke="#444444" stroke-opacity="0.333333" points="1001.7049,-245.0859 995.854,-236.2532 994.9197,-246.8068 1001.7049,-245.0859"/>
</g>
<!-- systemd&#45;&gt;systemd -->
<g id="edge17" class="edge">
<title>systemd&#45;&gt;systemd</title>
<path fill="none" stroke="#444444" stroke-opacity="0.333333" d="M1120.8667,-492.3313C1131.4013,-491.4703 1138.7,-489.3698 1138.7,-486.03 1138.7,-483.8904 1135.7046,-482.2595 1130.782,-481.1372"/>
<polygon fill="#444444" fill-opacity="0.333333" stroke="#444444" stroke-opacity="0.333333" points="1131.2596,-477.67 1120.8667,-479.7287 1130.2751,-484.6004 1131.2596,-477.67"/>
</g>
<!-- systemd&#45;&gt;util&#45;linux -->
<g id="edge18" class="edge">
<title>systemd&#45;&gt;util&#45;linux</title>
<path fill="none" stroke="#444444" stroke-opacity="0.333333" d="M1112.715,-468.0061C1135.3087,-460.3965 1161.7869,-451.4787 1185.3387,-443.5464"/>
<polygon fill="#444444" fill-opacity="0.333333" stroke="#444444" stroke-opacity="0.333333" points="1186.5292,-446.8387 1194.889,-440.3299 1184.2949,-440.2049 1186.5292,-446.8387"/>
</g>
<!-- systemd&#45;&gt;acl -->
<g id="edge19" class="edge">
<title>systemd&#45;&gt;acl</title>
<path fill="none" stroke="#444444" stroke-opacity="0.333333" d="M1065.4239,-467.7751C1078.219,-430.247 1107.5456,-344.2316 1122.7183,-299.7299"/>
<polygon fill="#444444" fill-opacity="0.333333" stroke="#444444" stroke-opacity="0.333333" points="1126.0774,-300.7232 1125.9918,-290.1287 1119.4519,-298.4642 1126.0774,-300.7232"/>
</g>
<!-- systemd&#45;&gt;cryptsetup&#45;libs -->
<g id="edge20" class="edge">
<title>systemd&#45;&gt;cryptsetup&#45;libs</title>
<path fill="none" stroke="#444444" stroke-opacity="0.333333" d="M1055.7078,-504.1545C1043.5138,-567.4409 1002.7696,-778.9024 987.9815,-855.6527"/>
<polygon fill="#444444" fill-opacity="0.333333" stroke="#444444" stroke-opacity="0.333333" points="984.528,-855.0774 986.0727,-865.559 991.4016,-856.4019 984.528,-855.0774"/>
</g>
<!-- systemd&#45;&gt;dbus -->
<g id="edge21" class="edge">
<title>systemd&#45;&gt;dbus</title>
<path fill="none" stroke="#444444" stroke-opacity="0.333333" d="M1052.0851,-467.9694C1023.8516,-396.3016 919.6001,-131.6698 885.6114,-45.393"/>
<polygon fill="#444444" fill-opacity="0.333333" stroke="#444444" stroke-opacity="0.333333" points="888.8355,-44.0279 881.9137,-36.0067 882.3227,-46.5937 888.8355,-44.0279"/>
</g>
<!-- systemd&#45;&gt;iptables&#45;libs -->
<g id="edge22" class="edge">
<title>systemd&#45;&gt;iptables&#45;libs</title>
<path fill="none" stroke="#444444" stroke-opacity="0.333333" d="M1072.726,-504.2779C1111.2246,-556.2162 1221.5229,-705.0194 1266.6724,-765.9305"/>
<polygon fill="#444444" fill-opacity="0.333333" stroke="#444444" stroke-opacity="0.333333" points="1264.0782,-768.3082 1272.8448,-774.2577 1269.7017,-764.1398 1264.0782,-768.3082"/>
</g>
<!-- systemd&#45;&gt;kmod&#45;libs -->
<g id="edge23" class="edge">
<title>systemd&#45;&gt;kmod&#45;libs</title>
<path fill="none" stroke="#444444" stroke-opacity="0.333333" d="M1120.7003,-473.0863C1177.9078,-461.0462 1263.3971,-443.0536 1325.342,-430.0164"/>
<polygon fill="#444444" fill-opacity="0.333333" stroke="#444444" stroke-opacity="0.333333" points="1326.3949,-433.3716 1335.4596,-427.887 1324.9532,-426.5216 1326.3949,-433.3716"/>
</g>
<!-- systemd&#45;&gt;libfdisk -->
<g id="edge24" class="edge">
<title>systemd&#45;&gt;libfdisk</title>
<path fill="none" stroke="#444444" stroke-opacity="0.333333" d="M1084.6225,-468.0183C1130.8763,-435.2476 1228.7939,-365.8733 1280.6805,-329.1118"/>
<polygon fill="#444444" fill-opacity="0.333333" stroke="#444444" stroke-opacity="0.333333" points="1282.7651,-331.9244 1288.9013,-323.2874 1278.7183,-326.2127 1282.7651,-331.9244"/>
</g>
<!-- systemd&#45;&gt;libseccomp -->
<g id="edge25" class="edge">
<title>systemd&#45;&gt;libseccomp</title>
<path fill="none" stroke="#444444" stroke-opacity="0.333333" d="M1120.7525,-496.0844C1173.2602,-504.6613 1249.1752,-517.0618 1306.771,-526.4698"/>
<polygon fill="#444444" fill-opacity="0.333333" stroke="#444444" stroke-opacity="0.333333" points="1306.5047,-529.9727 1316.9382,-528.1306 1307.6333,-523.0642 1306.5047,-529.9727"/>
</g>
<!-- systemd&#45;&gt;qrencode&#45;libs -->
<g id="edge26" class="edge">
<title>systemd&#45;&gt;qrencode&#45;libs</title>
<path fill="none" stroke="#444444" stroke-opacity="0.333333" d="M1092.4638,-504.1533C1149.8575,-535.4233 1267.3874,-599.4576 1330.5018,-633.8445"/>
<polygon fill="#444444" fill-opacity="0.333333" stroke="#444444" stroke-opacity="0.333333" points="1328.9495,-636.9845 1339.4053,-638.6954 1332.2986,-630.8376 1328.9495,-636.9845"/>
</g>
<!-- systemd&#45;&gt;systemd&#45;pam -->
<g id="edge27" class="edge">
<title>systemd&#45;&gt;systemd&#45;pam</title>
<path fill="none" stroke="#444444" stroke-opacity="0.333333" d="M1038.2891,-504.1242C997.4543,-545.9804 908.3025,-649.2109 870.7807,-697.9648"/>
<polygon fill="#444444" fill-opacity="0.333333" stroke="#444444" stroke-opacity="0.333333" points="867.8439,-696.0456 864.6021,-706.1323 873.4265,-700.2688 867.8439,-696.0456"/>
</g>
<!-- systemd&#45;&gt;systemd&#45;rpm&#45;macros -->
<g id="edge28" class="edge">
<title>systemd&#45;&gt;systemd&#45;rpm&#45;macros</title>
<path fill="none" stroke="#444444" stroke-opacity="0.333333" d="M1060.1946,-504.2872C1062.8827,-553.6301 1070.3081,-689.9305 1073.551,-749.4566"/>
<polygon fill="#444444" fill-opacity="0.333333" stroke="#444444" stroke-opacity="0.333333" points="1070.0669,-749.845 1074.1058,-759.6398 1077.0565,-749.4641 1070.0669,-749.845"/>
</g>
<!-- libsemanage&#45;&gt;Fedora Container Base -->
<g id="edge59" class="edge">
<title>libsemanage&#45;&gt;Fedora Container Base</title>
<path fill="none" stroke="#444444" stroke-opacity="0.333333" d="M1057.7499,-73.8897C1047.043,-149.8763 1005.675,-443.4643 992.6206,-536.1106"/>
<polygon fill="#444444" fill-opacity="0.333333" stroke="#444444" stroke-opacity="0.333333" points="989.1364,-535.7538 991.2068,-546.1443 996.0679,-536.7305 989.1364,-535.7538"/>
</g>
<!-- libsemanage&#45;&gt;libsemanage -->
<g id="edge60" class="edge">
<title>libsemanage&#45;&gt;libsemanage</title>
<path fill="none" stroke="#444444" stroke-opacity="0.333333" d="M1135.8725,-61.8494C1146.6009,-60.8697 1153.8,-58.8506 1153.8,-55.792 1153.8,-53.8326 1150.8455,-52.2998 1145.9013,-51.1935"/>
<polygon fill="#444444" fill-opacity="0.333333" stroke="#444444" stroke-opacity="0.333333" points="1146.2723,-47.7107 1135.8725,-49.7346 1145.2645,-54.6378 1146.2723,-47.7107"/>
</g>
<!-- util&#45;linux&#45;&gt;Fedora Container Base -->
<g id="edge29" class="edge">
<title>util&#45;linux&#45;&gt;Fedora Container Base</title>
<path fill="none" stroke="#444444" stroke-opacity="0.333333" d="M1215.4131,-440.375C1168.0257,-466.2699 1081.039,-513.8039 1029.6744,-541.8721"/>
<polygon fill="#444444" fill-opacity="0.333333" stroke="#444444" stroke-opacity="0.333333" points="1027.9209,-538.8418 1020.824,-546.7085 1031.2776,-544.9845 1027.9209,-538.8418"/>
</g>
<!-- util&#45;linux&#45;&gt;util&#45;linux -->
<g id="edge30" class="edge">
<title>util&#45;linux&#45;&gt;util&#45;linux</title>
<path fill="none" stroke="#444444" stroke-opacity="0.333333" d="M1313.2797,-428.4853C1323.8415,-427.5913 1331.1,-425.5095 1331.1,-422.24 1331.1,-420.1455 1328.1211,-418.5384 1323.2032,-417.4187"/>
<polygon fill="#444444" fill-opacity="0.333333" stroke="#444444" stroke-opacity="0.333333" points="1323.6755,-413.9507 1313.2797,-415.9947 1322.6811,-420.8798 1323.6755,-413.9507"/>
</g>
<!-- util&#45;linux&#45;&gt;libfdisk -->
<g id="edge31" class="edge">
<title>util&#45;linux&#45;&gt;libfdisk</title>
<path fill="none" stroke="#444444" stroke-opacity="0.333333" d="M1258.7679,-404.1905C1269.5885,-384.9822 1286.8331,-354.3704 1299.296,-332.2469"/>
<polygon fill="#444444" fill-opacity="0.333333" stroke="#444444" stroke-opacity="0.333333" points="1302.4531,-333.7736 1304.3118,-323.343 1296.3542,-330.3378 1302.4531,-333.7736"/>
</g>
<!-- util&#45;linux&#45;&gt;libutempter -->
<g id="edge32" class="edge">
<title>util&#45;linux&#45;&gt;libutempter</title>
<path fill="none" stroke="#444444" stroke-opacity="0.333333" d="M1246.8021,-404.0298C1242.4957,-360.413 1231.5649,-249.7018 1226.3933,-197.322"/>
<polygon fill="#444444" fill-opacity="0.333333" stroke="#444444" stroke-opacity="0.333333" points="1229.8473,-196.6829 1225.3816,-187.0752 1222.8812,-197.3708 1229.8473,-196.6829"/>
</g>
<!-- acl&#45;&gt;Fedora Container Base -->
<g id="edge61" class="edge">
<title>acl&#45;&gt;Fedora Container Base</title>
<path fill="none" stroke="#444444" stroke-opacity="0.333333" d="M1123.2203,-290.2091C1098.8001,-339.9459 1031.0763,-477.8799 1002.0925,-536.9114"/>
<polygon fill="#444444" fill-opacity="0.333333" stroke="#444444" stroke-opacity="0.333333" points="998.8919,-535.4889 997.6263,-546.0079 1005.1754,-538.574 998.8919,-535.4889"/>
</g>
<!-- cryptsetup&#45;libs&#45;&gt;Fedora Container Base -->
<g id="edge62" class="edge">
<title>cryptsetup&#45;libs&#45;&gt;Fedora Container Base</title>
<path fill="none" stroke="#444444" stroke-opacity="0.333333" d="M982.9049,-865.6969C983.9158,-812.6615 986.8776,-657.2735 988.1062,-592.817"/>
<polygon fill="#444444" fill-opacity="0.333333" stroke="#444444" stroke-opacity="0.333333" points="991.6101,-592.6456 988.3014,-582.5807 984.6113,-592.5122 991.6101,-592.6456"/>
</g>
<!-- cryptsetup&#45;libs&#45;&gt;device&#45;mapper&#45;libs -->
<g id="edge63" class="edge">
<title>cryptsetup&#45;libs&#45;&gt;device&#45;mapper&#45;libs</title>
<path fill="none" stroke="#444444" stroke-opacity="0.333333" d="M1017.5684,-901.8844C1041.6706,-914.3418 1073.8813,-930.9902 1099.7451,-944.3582"/>
<polygon fill="#444444" fill-opacity="0.333333" stroke="#444444" stroke-opacity="0.333333" points="1098.4693,-947.6386 1108.9599,-949.1209 1101.6834,-941.4201 1098.4693,-947.6386"/>
</g>
<!-- cryptsetup&#45;libs&#45;&gt;libargon2 -->
<g id="edge64" class="edge">
<title>cryptsetup&#45;libs&#45;&gt;libargon2</title>
<path fill="none" stroke="#444444" stroke-opacity="0.333333" d="M972.4438,-901.9908C956.4075,-930.8427 925.0573,-987.247 906.3648,-1020.8778"/>
<polygon fill="#444444" fill-opacity="0.333333" stroke="#444444" stroke-opacity="0.333333" points="903.2505,-1019.2767 901.4515,-1029.7177 909.3689,-1022.6775 903.2505,-1019.2767"/>
</g>
<!-- dbus&#45;&gt;dbus&#45;broker -->
<g id="edge65" class="edge">
<title>dbus&#45;&gt;dbus&#45;broker</title>
<path fill="none" stroke="#444444" stroke-opacity="0.333333" d="M871.8526,-36.294C865.8781,-73.1276 852.3646,-156.4386 845.264,-200.2143"/>
<polygon fill="#444444" fill-opacity="0.333333" stroke="#444444" stroke-opacity="0.333333" points="841.7926,-199.7566 843.6462,-210.188 848.7023,-200.8775 841.7926,-199.7566"/>
</g>
<!-- iptables&#45;libs&#45;&gt;Fedora Container Base -->
<g id="edge66" class="edge">
<title>iptables&#45;libs&#45;&gt;Fedora Container Base</title>
<path fill="none" stroke="#444444" stroke-opacity="0.333333" d="M1262.6951,-774.3191C1209.3775,-733.4563 1079.6344,-634.0208 1019.8087,-588.1702"/>
<polygon fill="#444444" fill-opacity="0.333333" stroke="#444444" stroke-opacity="0.333333" points="1021.9125,-585.3728 1011.8463,-582.0678 1017.6544,-590.9288 1021.9125,-585.3728"/>
</g>
<!-- iptables&#45;libs&#45;&gt;libpcap -->
<g id="edge67" class="edge">
<title>iptables&#45;libs&#45;&gt;libpcap</title>
<path fill="none" stroke="#444444" stroke-opacity="0.333333" d="M1294.0352,-810.5755C1305.5629,-837.6474 1327.3379,-888.7842 1340.8433,-920.5003"/>
<polygon fill="#444444" fill-opacity="0.333333" stroke="#444444" stroke-opacity="0.333333" points="1337.776,-922.2309 1344.9141,-930.0602 1344.2164,-919.4884 1337.776,-922.2309"/>
</g>
<!-- kmod&#45;libs&#45;&gt;Fedora Container Base -->
<g id="edge68" class="edge">
<title>kmod&#45;libs&#45;&gt;Fedora Container Base</title>
<path fill="none" stroke="#444444" stroke-opacity="0.333333" d="M1353.6073,-431.6535C1276.0603,-459.8364 1126.5515,-514.1724 1045.0265,-543.8011"/>
<polygon fill="#444444" fill-opacity="0.333333" stroke="#444444" stroke-opacity="0.333333" points="1043.6339,-540.5831 1035.4309,-547.2884 1046.025,-547.1621 1043.6339,-540.5831"/>
</g>
<!-- libfdisk&#45;&gt;Fedora Container Base -->
<g id="edge69" class="edge">
<title>libfdisk&#45;&gt;Fedora Container Base</title>
<path fill="none" stroke="#444444" stroke-opacity="0.333333" d="M1291.9386,-323.1013C1234.6203,-368.6834 1083.8302,-488.5985 1018.9946,-540.1586"/>
<polygon fill="#444444" fill-opacity="0.333333" stroke="#444444" stroke-opacity="0.333333" points="1016.8097,-537.4243 1011.1613,-546.388 1021.1667,-542.9031 1016.8097,-537.4243"/>
</g>
<!-- libseccomp&#45;&gt;Fedora Container Base -->
<g id="edge70" class="edge">
<title>libseccomp&#45;&gt;Fedora Container Base</title>
<path fill="none" stroke="#444444" stroke-opacity="0.333333" d="M1316.553,-544.223C1262.77,-547.5144 1187.6698,-552.1104 1122.9101,-556.0736"/>
<polygon fill="#444444" fill-opacity="0.333333" stroke="#444444" stroke-opacity="0.333333" points="1122.3778,-552.5995 1112.6103,-556.7039 1122.8054,-559.5864 1122.3778,-552.5995"/>
</g>
<!-- qrencode&#45;libs&#45;&gt;Fedora Container Base -->
<g id="edge71" class="edge">
<title>qrencode&#45;libs&#45;&gt;Fedora Container Base</title>
<path fill="none" stroke="#444444" stroke-opacity="0.333333" d="M1297.8201,-638.816C1230.2871,-622.537 1131.5247,-598.7302 1063.9066,-582.4307"/>
<polygon fill="#444444" fill-opacity="0.333333" stroke="#444444" stroke-opacity="0.333333" points="1064.7053,-579.0231 1054.1636,-580.0822 1063.0649,-585.8282 1064.7053,-579.0231"/>
</g>
<!-- systemd&#45;pam&#45;&gt;Fedora Container Base -->
<g id="edge72" class="edge">
<title>systemd&#45;pam&#45;&gt;Fedora Container Base</title>
<path fill="none" stroke="#444444" stroke-opacity="0.333333" d="M868.9714,-706.1316C892.8541,-677.8261 939.252,-622.8359 966.7333,-590.2654"/>
<polygon fill="#444444" fill-opacity="0.333333" stroke="#444444" stroke-opacity="0.333333" points="969.5135,-592.3978 973.2872,-582.4978 964.1635,-587.8836 969.5135,-592.3978"/>
</g>
<!-- systemd&#45;pam&#45;&gt;systemd -->
<g id="edge73" class="edge">
<title>systemd&#45;pam&#45;&gt;systemd</title>
<path fill="none" stroke="#444444" stroke-opacity="0.333333" d="M874.6709,-706.0658C915.5057,-664.2096 1004.6575,-560.9791 1042.1793,-512.2252"/>
<polygon fill="#444444" fill-opacity="0.333333" stroke="#444444" stroke-opacity="0.333333" points="1045.1161,-514.1444 1048.3579,-504.0577 1039.5335,-509.9212 1045.1161,-514.1444"/>
</g>
<!-- systemd&#45;rpm&#45;macros&#45;&gt;Fedora Container Base -->
<g id="edge74" class="edge">
<title>systemd&#45;rpm&#45;macros&#45;&gt;Fedora Container Base</title>
<path fill="none" stroke="#444444" stroke-opacity="0.333333" d="M1067.7293,-759.6786C1052.5449,-722.161 1017.7005,-636.0679 999.7654,-591.7538"/>
<polygon fill="#444444" fill-opacity="0.333333" stroke="#444444" stroke-opacity="0.333333" points="1002.9981,-590.4118 996.002,-582.4553 996.5094,-593.038 1002.9981,-590.4118"/>
</g>
<!-- libutempter&#45;&gt;Fedora Container Base -->
<g id="edge75" class="edge">
<title>libutempter&#45;&gt;Fedora Container Base</title>
<path fill="none" stroke="#444444" stroke-opacity="0.333333" d="M1212.8942,-187.0406C1175.3591,-250.1864 1049.5821,-461.783 1004.7179,-537.2586"/>
<polygon fill="#444444" fill-opacity="0.333333" stroke="#444444" stroke-opacity="0.333333" points="1001.5198,-535.7892 999.4187,-546.1736 1007.537,-539.366 1001.5198,-535.7892"/>
</g>
<!-- libutempter&#45;&gt;shadow&#45;utils -->
<g id="edge76" class="edge">
<title>libutempter&#45;&gt;shadow&#45;utils</title>
<path fill="none" stroke="#444444" stroke-opacity="0.333333" d="M1155.4544,-183.4093C1129.216,-188.9458 1099.0105,-195.3195 1071.7169,-201.0787"/>
<polygon fill="#444444" fill-opacity="0.333333" stroke="#444444" stroke-opacity="0.333333" points="1070.8677,-197.6807 1061.8058,-203.17 1072.313,-204.5299 1070.8677,-197.6807"/>
</g>
<!-- apr&#45;util&#45;&gt;Fedora Container Base -->
<g id="edge37" class="edge">
<title>apr&#45;util&#45;&gt;Fedora Container Base</title>
<path fill="none" stroke="#444444" stroke-opacity="0.333333" d="M671.985,-666.9455C740.4934,-644.7367 856.3455,-607.1801 927.3138,-584.1738"/>
<polygon fill="#444444" fill-opacity="0.333333" stroke="#444444" stroke-opacity="0.333333" points="928.5869,-587.4405 937.0202,-581.0272 926.4282,-580.7816 928.5869,-587.4405"/>
</g>
<!-- apr&#45;util&#45;&gt;apr -->
<g id="edge38" class="edge">
<title>apr&#45;util&#45;&gt;apr</title>
<path fill="none" stroke="#444444" stroke-opacity="0.333333" d="M584.7349,-703.1406C575.8434,-708.2563 566.0481,-713.892 556.7269,-719.2549"/>
<polygon fill="#444444" fill-opacity="0.333333" stroke="#444444" stroke-opacity="0.333333" points="554.9025,-716.2666 547.9802,-724.2873 558.3934,-722.334 554.9025,-716.2666"/>
</g>
<!-- httpd&#45;&gt;Fedora Container Base -->
<g id="edge39" class="edge">
<title>httpd&#45;&gt;Fedora Container Base</title>
<path fill="none" stroke="#444444" stroke-opacity="0.333333" d="M589.782,-550.5223C658.51,-552.8946 762.0336,-556.4679 846.3899,-559.3796"/>
<polygon fill="#444444" fill-opacity="0.333333" stroke="#444444" stroke-opacity="0.333333" points="846.4638,-562.8842 856.5786,-559.7313 846.7054,-555.8883 846.4638,-562.8842"/>
</g>
<!-- httpd&#45;&gt;apr -->
<g id="edge40" class="edge">
<title>httpd&#45;&gt;apr</title>
<path fill="none" stroke="#444444" stroke-opacity="0.333333" d="M514.8691,-566.2149C515.2209,-600.2338 515.9782,-673.4604 516.3968,-713.9419"/>
<polygon fill="#444444" fill-opacity="0.333333" stroke="#444444" stroke-opacity="0.333333" points="512.8996,-714.232 516.5029,-724.1953 519.8992,-714.1596 512.8996,-714.232"/>
</g>
<!-- httpd&#45;&gt;systemd -->
<g id="edge41" class="edge">
<title>httpd&#45;&gt;systemd</title>
<path fill="none" stroke="#444444" stroke-opacity="0.333333" d="M589.8215,-539.3881C694.855,-527.448 884.249,-505.9181 987.4374,-494.1878"/>
<polygon fill="#444444" fill-opacity="0.333333" stroke="#444444" stroke-opacity="0.333333" points="987.9121,-497.6565 997.4527,-493.0493 987.1214,-490.7013 987.9121,-497.6565"/>
</g>
<!-- httpd&#45;&gt;apr&#45;util -->
<g id="edge42" class="edge">
<title>httpd&#45;&gt;apr&#45;util</title>
<path fill="none" stroke="#444444" stroke-opacity="0.333333" d="M528.1651,-566.1345C545.6911,-589.7943 576.4277,-631.2878 596.5567,-658.4615"/>
<polygon fill="#444444" fill-opacity="0.333333" stroke="#444444" stroke-opacity="0.333333" points="593.9243,-660.788 602.6892,-666.7402 599.5492,-656.6213 593.9243,-660.788"/>
</g>
<!-- httpd&#45;&gt;fedora&#45;logos&#45;httpd -->
<g id="edge43" class="edge">
<title>httpd&#45;&gt;fedora&#45;logos&#45;httpd</title>
<path fill="none" stroke="#444444" stroke-opacity="0.333333" d="M455.9445,-529.807C376.4674,-505.2842 234.9641,-461.6231 150.8242,-435.6616"/>
<polygon fill="#444444" fill-opacity="0.333333" stroke="#444444" stroke-opacity="0.333333" points="151.6945,-432.2674 141.1071,-432.6633 149.6306,-438.9562 151.6945,-432.2674"/>
</g>
<!-- httpd&#45;&gt;httpd -->
<g id="edge44" class="edge">
<title>httpd&#45;&gt;httpd</title>
<path fill="none" stroke="#444444" stroke-opacity="0.333333" d="M589.8484,-553.9874C600.5194,-553.0077 607.68,-550.9886 607.68,-547.93 607.68,-545.9706 604.7413,-544.4378 599.8235,-543.3315"/>
<polygon fill="#444444" fill-opacity="0.333333" stroke="#444444" stroke-opacity="0.333333" points="600.2497,-539.8567 589.8484,-541.8726 599.2366,-546.783 600.2497,-539.8567"/>
</g>
<!-- httpd&#45;&gt;httpd&#45;filesystem -->
<g id="edge45" class="edge">
<title>httpd&#45;&gt;httpd&#45;filesystem</title>
<path fill="none" stroke="#444444" stroke-opacity="0.333333" d="M526.5963,-529.6858C554.3235,-487.2344 623.2689,-381.6768 655.7578,-331.9353"/>
<polygon fill="#444444" fill-opacity="0.333333" stroke="#444444" stroke-opacity="0.333333" points="658.8436,-333.6111 661.3817,-323.3248 652.9829,-329.7832 658.8436,-333.6111"/>
</g>
<!-- httpd&#45;&gt;httpd&#45;tools -->
<g id="edge46" class="edge">
<title>httpd&#45;&gt;httpd&#45;tools</title>
<path fill="none" stroke="#444444" stroke-opacity="0.333333" d="M521.3045,-566.1621C538.2194,-612.7153 583.0869,-736.2 603.2493,-791.691"/>
<polygon fill="#444444" fill-opacity="0.333333" stroke="#444444" stroke-opacity="0.333333" points="600.0096,-793.0237 606.7143,-801.2273 606.5888,-790.6332 600.0096,-793.0237"/>
</g>
<!-- httpd&#45;&gt;mailcap -->
<g id="edge47" class="edge">
<title>httpd&#45;&gt;mailcap</title>
<path fill="none" stroke="#444444" stroke-opacity="0.333333" d="M443.3481,-565.9667C360.1706,-586.9986 223.6766,-621.5119 141.8939,-642.1912"/>
<polygon fill="#444444" fill-opacity="0.333333" stroke="#444444" stroke-opacity="0.333333" points="140.7909,-638.8598 131.9541,-644.7045 142.507,-645.6462 140.7909,-638.8598"/>
</g>
<!-- httpd&#45;&gt;mod_http2 -->
<g id="edge48" class="edge">
<title>httpd&#45;&gt;mod_http2</title>
<path fill="none" stroke="#444444" stroke-opacity="0.333333" d="M521.5183,-529.8189C527.2653,-503.7096 533.3786,-455.2462 535.0381,-424.2831"/>
<polygon fill="#444444" fill-opacity="0.333333" stroke="#444444" stroke-opacity="0.333333" points="538.5417,-424.2543 535.4314,-414.1263 531.547,-423.9833 538.5417,-424.2543"/>
</g>
<!-- httpd&#45;filesystem&#45;&gt;Fedora Container Base -->
<g id="edge49" class="edge">
<title>httpd&#45;filesystem&#45;&gt;Fedora Container Base</title>
<path fill="none" stroke="#444444" stroke-opacity="0.333333" d="M695.4004,-323.4187C750.9617,-369.056 896.1413,-488.3046 958.9646,-539.9068"/>
<polygon fill="#444444" fill-opacity="0.333333" stroke="#444444" stroke-opacity="0.333333" points="956.9639,-542.7928 966.9129,-546.4354 961.407,-537.3836 956.9639,-542.7928"/>
</g>
<!-- httpd&#45;filesystem&#45;&gt;shadow&#45;utils -->
<g id="edge50" class="edge">
<title>httpd&#45;filesystem&#45;&gt;shadow&#45;utils</title>
<path fill="none" stroke="#444444" stroke-opacity="0.333333" d="M739.1139,-287.1445C790.496,-273.0655 861.9068,-253.4983 915.6165,-238.7814"/>
<polygon fill="#444444" fill-opacity="0.333333" stroke="#444444" stroke-opacity="0.333333" points="916.7109,-242.1106 925.4305,-236.0923 914.861,-235.3595 916.7109,-242.1106"/>
</g>
<!-- httpd&#45;tools&#45;&gt;Fedora Container Base -->
<g id="edge51" class="edge">
<title>httpd&#45;tools&#45;&gt;Fedora Container Base</title>
<path fill="none" stroke="#444444" stroke-opacity="0.333333" d="M640.0026,-801.2391C706.47,-756.0663 879.3727,-638.5574 953.7726,-587.9935"/>
<polygon fill="#444444" fill-opacity="0.333333" stroke="#444444" stroke-opacity="0.333333" points="956.0403,-590.6842 962.3437,-582.1684 952.1056,-584.8947 956.0403,-590.6842"/>
</g>
<!-- httpd&#45;tools&#45;&gt;apr -->
<g id="edge52" class="edge">
<title>httpd&#45;tools&#45;&gt;apr</title>
<path fill="none" stroke="#444444" stroke-opacity="0.333333" d="M590.4124,-801.1107C577.5373,-790.8381 561.2957,-777.8794 547.3361,-766.7415"/>
<polygon fill="#444444" fill-opacity="0.333333" stroke="#444444" stroke-opacity="0.333333" points="549.423,-763.929 539.4232,-760.4281 545.0572,-769.4008 549.423,-763.929"/>
</g>
<!-- httpd&#45;tools&#45;&gt;apr&#45;util -->
<g id="edge53" class="edge">
<title>httpd&#45;tools&#45;&gt;apr&#45;util</title>
<path fill="none" stroke="#444444" stroke-opacity="0.333333" d="M613.7038,-801.2596C614.1936,-778.7214 615.0355,-739.9847 615.6117,-713.471"/>
<polygon fill="#444444" fill-opacity="0.333333" stroke="#444444" stroke-opacity="0.333333" points="619.1149,-713.3561 615.8331,-703.2824 612.1166,-713.204 619.1149,-713.3561"/>
</g>
<!-- mailcap&#45;&gt;mailcap -->
<g id="edge54" class="edge">
<title>mailcap&#45;&gt;mailcap</title>
<path fill="none" stroke="#444444" stroke-opacity="0.333333" d="M132.0687,-665.7741C142.4828,-664.9482 149.757,-662.8302 149.757,-659.42 149.757,-657.2887 146.9155,-655.662 142.2419,-654.5402"/>
<polygon fill="#444444" fill-opacity="0.333333" stroke="#444444" stroke-opacity="0.333333" points="142.4673,-651.0364 132.0687,-653.0659 141.4634,-657.964 142.4673,-651.0364"/>
</g>
<!-- mod_http2&#45;&gt;Fedora Container Base -->
<g id="edge55" class="edge">
<title>mod_http2&#45;&gt;Fedora Container Base</title>
<path fill="none" stroke="#444444" stroke-opacity="0.333333" d="M581.8429,-413.751C667.2179,-445.344 843.2397,-510.4809 933.1498,-543.7521"/>
<polygon fill="#444444" fill-opacity="0.333333" stroke="#444444" stroke-opacity="0.333333" points="932.0333,-547.0709 942.6264,-547.259 934.4627,-540.506 932.0333,-547.0709"/>
</g>
<!-- mod_http2&#45;&gt;httpd -->
<g id="edge56" class="edge">
<title>mod_http2&#45;&gt;httpd</title>
<path fill="none" stroke="#444444" stroke-opacity="0.333333" d="M526.2517,-413.8211C520.5047,-439.9304 514.3914,-488.3938 512.7319,-519.3569"/>
<polygon fill="#444444" fill-opacity="0.333333" stroke="#444444" stroke-opacity="0.333333" points="509.2283,-519.3857 512.3386,-529.5137 516.223,-519.6567 509.2283,-519.3857"/>
</g>
<!-- mod_http2&#45;&gt;mod_http2 -->
<g id="edge57" class="edge">
<title>mod_http2&#45;&gt;mod_http2</title>
<path fill="none" stroke="#444444" stroke-opacity="0.333333" d="M602.7627,-401.8651C613.3802,-400.9258 620.59,-398.8741 620.59,-395.71 620.59,-393.683 617.6311,-392.1126 612.7129,-390.9986"/>
<polygon fill="#444444" fill-opacity="0.333333" stroke="#444444" stroke-opacity="0.333333" points="613.1617,-387.5272 602.7627,-389.5549 612.1565,-394.4546 613.1617,-387.5272"/>
</g>
<!-- libpcap&#45;&gt;Fedora Container Base -->
<g id="edge58" class="edge">
<title>libpcap&#45;&gt;Fedora Container Base</title>
<path fill="none" stroke="#444444" stroke-opacity="0.333333" d="M1335.2908,-929.8558C1276.0002,-867.3282 1080.9817,-661.6626 1012.6004,-589.5479"/>
<polygon fill="#444444" fill-opacity="0.333333" stroke="#444444" stroke-opacity="0.333333" points="1015.0631,-587.0584 1005.6426,-582.2103 1009.9836,-591.875 1015.0631,-587.0584"/>
</g>
<!-- Fedora Container Base -->
<g id="node1" class="node">
<title>Fedora Container Base</title>
<ellipse fill="none" stroke="#000000" cx="988.65" cy="-564.29" rx="136.5" ry="18"/>
<text text-anchor="middle" x="988.65" y="-560.59" font-family="Helvetica,sans-Serif" font-weight="bold" font-size="14.00" fill="#000000">Fedora Container Base (201.3 MB)</text>
</g>
<!-- apr -->
<g id="node2" class="node">
<title>apr</title>
<text text-anchor="middle" x="516.69" y="-738.59" font-family="Helvetica,sans-Serif" font-weight="bold" font-size="14.00" fill="#000000">apr (277.9 kB)</text>
</g>
<!-- device&#45;mapper&#45;libs -->
<g id="node3" class="node">
<title>device&#45;mapper&#45;libs</title>
<text text-anchor="middle" x="1143.9" y="-963.48" font-family="Helvetica,sans-Serif" font-weight="bold" font-size="14.00" fill="#000000">device&#45;mapper&#45;libs (418.0 kB)</text>
</g>
<!-- device&#45;mapper -->
<g id="node4" class="node">
<title>device&#45;mapper</title>
<text text-anchor="middle" x="1208.3" y="-681.11" font-family="Helvetica,sans-Serif" font-weight="bold" font-size="14.00" fill="#000000">device&#45;mapper (349.9 kB)</text>
</g>
<!-- libargon2 -->
<g id="node5" class="node">
<title>libargon2</title>
<text text-anchor="middle" x="891.29" y="-1044.3" font-family="Helvetica,sans-Serif" font-weight="bold" font-size="14.00" fill="#000000">libargon2 (54.2 kB)</text>
</g>
<!-- dbus&#45;broker -->
<g id="node6" class="node">
<title>dbus&#45;broker</title>
<text text-anchor="middle" x="840.71" y="-224.59" font-family="Helvetica,sans-Serif" font-weight="bold" font-size="14.00" fill="#000000">dbus&#45;broker (409.7 kB)</text>
</g>
<!-- dbus&#45;common -->
<g id="node7" class="node">
<title>dbus&#45;common</title>
<text text-anchor="middle" x="827.98" y="-377.65" font-family="Helvetica,sans-Serif" font-weight="bold" font-size="14.00" fill="#000000">dbus&#45;common (11.2 kB)</text>
</g>
<!-- shadow&#45;utils -->
<g id="node8" class="node">
<title>shadow&#45;utils</title>
<text text-anchor="middle" x="991.24" y="-214.36" font-family="Helvetica,sans-Serif" font-weight="bold" font-size="14.00" fill="#000000">shadow&#45;utils (4.0 MB)</text>
</g>
<!-- systemd -->
<g id="node9" class="node">
<title>systemd</title>
<text text-anchor="middle" x="1059.2" y="-482.33" font-family="Helvetica,sans-Serif" font-weight="bold" font-size="14.00" fill="#000000">systemd (13.1 MB)</text>
</g>
<!-- libsemanage -->
<g id="node10" class="node">
<title>libsemanage</title>
<text text-anchor="middle" x="1060.3" y="-52.092" font-family="Helvetica,sans-Serif" font-weight="bold" font-size="14.00" fill="#000000">libsemanage (304.5 kB)</text>
</g>
<!-- util&#45;linux -->
<g id="node11" class="node">
<title>util&#45;linux</title>
<text text-anchor="middle" x="1248.6" y="-418.54" font-family="Helvetica,sans-Serif" font-weight="bold" font-size="14.00" fill="#000000">util&#45;linux (13.5 MB)</text>
</g>
<!-- acl -->
<g id="node12" class="node">
<title>acl</title>
<text text-anchor="middle" x="1132.2" y="-268.22" font-family="Helvetica,sans-Serif" font-weight="bold" font-size="14.00" fill="#000000">acl (209.6 kB)</text>
</g>
<!-- cryptsetup&#45;libs -->
<g id="node13" class="node">
<title>cryptsetup&#45;libs</title>
<text text-anchor="middle" x="982.56" y="-880.09" font-family="Helvetica,sans-Serif" font-weight="bold" font-size="14.00" fill="#000000">cryptsetup&#45;libs (1.8 MB)</text>
</g>
<!-- dbus -->
<g id="node14" class="node">
<title>dbus</title>
<text text-anchor="middle" x="874.82" y="-14.3" font-family="Helvetica,sans-Serif" font-weight="bold" font-size="14.00" fill="#000000">dbus (0.0 B)</text>
</g>
<!-- iptables&#45;libs -->
<g id="node15" class="node">
<title>iptables&#45;libs</title>
<text text-anchor="middle" x="1286.3" y="-788.71" font-family="Helvetica,sans-Serif" font-weight="bold" font-size="14.00" fill="#000000">iptables&#45;libs (141.4 kB)</text>
</g>
<!-- kmod&#45;libs -->
<g id="node16" class="node">
<title>kmod&#45;libs</title>
<text text-anchor="middle" x="1403.2" y="-409.93" font-family="Helvetica,sans-Serif" font-weight="bold" font-size="14.00" fill="#000000">kmod&#45;libs (127.5 kB)</text>
</g>
<!-- libfdisk -->
<g id="node17" class="node">
<title>libfdisk</title>
<text text-anchor="middle" x="1314.6" y="-301.38" font-family="Helvetica,sans-Serif" font-weight="bold" font-size="14.00" fill="#000000">libfdisk (472.7 kB)</text>
</g>
<!-- libseccomp -->
<g id="node18" class="node">
<title>libseccomp</title>
<text text-anchor="middle" x="1388.5" y="-536.12" font-family="Helvetica,sans-Serif" font-weight="bold" font-size="14.00" fill="#000000">libseccomp (351.1 kB)</text>
</g>
<!-- qrencode&#45;libs -->
<g id="node19" class="node">
<title>qrencode&#45;libs</title>
<text text-anchor="middle" x="1372.8" y="-653.19" font-family="Helvetica,sans-Serif" font-weight="bold" font-size="14.00" fill="#000000">qrencode&#45;libs (158.2 kB)</text>
</g>
<!-- systemd&#45;pam -->
<g id="node20" class="node">
<title>systemd&#45;pam</title>
<text text-anchor="middle" x="853.76" y="-720.46" font-family="Helvetica,sans-Serif" font-weight="bold" font-size="14.00" fill="#000000">systemd&#45;pam (867.6 kB)</text>
</g>
<!-- systemd&#45;rpm&#45;macros -->
<g id="node21" class="node">
<title>systemd&#45;rpm&#45;macros</title>
<text text-anchor="middle" x="1075.1" y="-774.19" font-family="Helvetica,sans-Serif" font-weight="bold" font-size="14.00" fill="#000000">systemd&#45;rpm&#45;macros (7.9 kB)</text>
</g>
<!-- libutempter -->
<g id="node22" class="node">
<title>libutempter</title>
<text text-anchor="middle" x="1223.6" y="-165.33" font-family="Helvetica,sans-Serif" font-weight="bold" font-size="14.00" fill="#000000">libutempter (57.8 kB)</text>
</g>
<!-- apr&#45;util -->
<g id="node23" class="node">
<title>apr&#45;util</title>
<text text-anchor="middle" x="616.23" y="-681.32" font-family="Helvetica,sans-Serif" font-weight="bold" font-size="14.00" fill="#000000">apr&#45;util (216.3 kB)</text>
</g>
<!-- fedora&#45;logos&#45;httpd -->
<g id="node24" class="node">
<title>fedora&#45;logos&#45;httpd</title>
<text text-anchor="middle" x="82.5" y="-410.88" font-family="Helvetica,sans-Serif" font-weight="bold" font-size="14.00" fill="#000000">fedora&#45;logos&#45;httpd (9.9 kB)</text>
</g>
<!-- httpd -->
<g id="node25" class="node">
<title>httpd</title>
<text text-anchor="middle" x="514.68" y="-542.33" font-family="Helvetica,sans-Serif" font-weight="bold" font-size="22.00" fill="#cc0066">httpd (4.7 MB)</text>
</g>
<!-- httpd&#45;filesystem -->
<g id="node26" class="node">
<title>httpd&#45;filesystem</title>
<text text-anchor="middle" x="673.22" y="-301.5" font-family="Helvetica,sans-Serif" font-weight="bold" font-size="14.00" fill="#000000">httpd&#45;filesystem (400.0 B)</text>
</g>
<!-- httpd&#45;tools -->
<g id="node27" class="node">
<title>httpd&#45;tools</title>
<text text-anchor="middle" x="613.31" y="-815.68" font-family="Helvetica,sans-Serif" font-weight="bold" font-size="14.00" fill="#000000">httpd&#45;tools (204.4 kB)</text>
</g>
<!-- mailcap -->
<g id="node28" class="node">
<title>mailcap</title>
<text text-anchor="middle" x="73.757" y="-655.72" font-family="Helvetica,sans-Serif" font-weight="bold" font-size="14.00" fill="#000000">mailcap (71.2 kB)</text>
</g>
<!-- mod_http2 -->
<g id="node29" class="node">
<title>mod_http2</title>
<text text-anchor="middle" x="533.09" y="-392.01" font-family="Helvetica,sans-Serif" font-weight="bold" font-size="14.00" fill="#000000">mod_http2 (401.1 kB)</text>
</g>
<!-- libpcap -->
<g id="node30" class="node">
<title>libpcap</title>
<text text-anchor="middle" x="1352.6" y="-944.41" font-family="Helvetica,sans-Serif" font-weight="bold" font-size="14.00" fill="#000000">libpcap (387.4 kB)</text>
</g>
</g>

<script type="text/javascript"><![CDATA[

document.addEventListener('click', function(e) {
      e = e || window.event;
      var target = e.target || e.srcElement;
      text = target.parentElement.querySelector("title").textContent;

      console.log("Clicked on: " + text);
      // reset all strokes
      var nodes = document.getElementsByClassName("edge");

      for (index = 0, len = nodes.length; index < len; ++index) {
          //var title = nodes[index].querySelector("title").textContent.split("->");
          id = nodes[index].id;
          document.getElementById(id).querySelector("path").setAttribute("stroke-width", "1");
          document.getElementById(id).querySelector("path").setAttribute("stroke-opacity", "0.5");
          document.getElementById(id).querySelector("path").setAttribute("stroke", "#444444");
          document.getElementById(id).querySelector("polygon").setAttribute("stroke-width", "1");
          document.getElementById(id).querySelector("polygon").setAttribute("stroke-opacity", "0.5");
          document.getElementById(id).querySelector("polygon").setAttribute("stroke", "#444444");
      }
      // reset text highlight
      pkgs = document.getElementsByClassName("node");
      for (index2 = 0, len2 = pkgs.length; index2 < len2; ++index2) {
          target_id = pkgs[index2].id;
          document.getElementById(target_id).querySelector("text").setAttribute("font-weight", "normal");
      }

      // highlight deps
      var nodes = document.getElementsByClassName("edge");
      for (index = 0, len = nodes.length; index < len; ++index) {
        var title = nodes[index].querySelector("title").textContent.split("->");

        if (title[0] == text) {
          id = nodes[index].id;
          //console.log("ID:   " + id);
          document.getElementById(id).querySelector("path").setAttribute("stroke-width", "3");
          document.getElementById(id).querySelector("path").setAttribute("stroke-opacity", "1");
          document.getElementById(id).querySelector("path").setAttribute("stroke", "#aa3333");
          document.getElementById(id).querySelector("polygon").setAttribute("stroke-width", "5");
          document.getElementById(id).querySelector("polygon").setAttribute("stroke-opacity", "1");
          document.getElementById(id).querySelector("polygon").setAttribute("stroke", "#aa3333");

        }
        if (title[1] == text) {
          id = nodes[index].id;
          document.getElementById(id).querySelector("path").setAttribute("stroke-width", "3");
          document.getElementById(id).querySelector("path").setAttribute("stroke-opacity", "1");
          document.getElementById(id).querySelector("path").setAttribute("stroke", "#333377");
          document.getElementById(id).querySelector("polygon").setAttribute("stroke-width", "5");
          document.getElementById(id).querySelector("polygon").setAttribute("stroke-opacity", "1");
          document.getElementById(id).querySelector("polygon").setAttribute("stroke", "#333377");
        }

        if (title[0] == text || title[1] == text) {
          pkgs = document.getElementsByClassName("node");
          for (index2 = 0, len2 = pkgs.length; index2 < len2; ++index2) {
            var pkg_name = pkgs[index2].querySelector("title").textContent;
            if (pkg_name == title[0] || pkg_name == title[1]) {
              target_id = pkgs[index2].id;
              document.getElementById(target_id).querySelector("text").setAttribute("font-weight", "bold");
            }
          }
        }
      }


  }, false);

]]></script>

</svg>
