<?xml version="1.0" encoding="UTF-8" standalone="no"?>
<!DOCTYPE svg PUBLIC "-//W3C//DTD SVG 1.1//EN"
 "http://www.w3.org/Graphics/SVG/1.1/DTD/svg11.dtd">
<!-- Generated by graphviz version 2.40.1 (0)
 -->
<!-- Title: packages Pages: 1 -->
<svg width="1503pt" height="1114pt"
 viewBox="0.00 0.00 1803.37 1337.28" xmlns="http://www.w3.org/2000/svg" xmlns:xlink="http://www.w3.org/1999/xlink">
<g id="graph0" class="graph" transform="scale(.8333 .8333) rotate(0) translate(127.2963 1209.3049)">
<title>packages</title>
<polygon fill="#dae2ff" stroke="transparent" points="-127.2963,127.9797 -127.2963,-1209.3049 1676.0706,-1209.3049 1676.0706,127.9797 -127.2963,127.9797"/>
<polygon fill="#d8d6da" stroke="#d8d6da" points="531.7455,-835.6515 519.943,-835.0956 518.3754,-834.9442 508.9952,-834.9639 504.5161,-834.7531 500.7958,-834.3956 500.3738,-834.3343 482.9076,-830.9239 472.8343,-827.4771 463.3043,-823.7489 462.4452,-823.3719 462.1345,-823.2203 460.5791,-822.3822 462.0939,-791.5234 461.8405,-765.84 462.7281,-760.6048 468.3945,-645.1713 470.2609,-644.8044 486.1192,-642.3738 503.5616,-641.2145 506.6413,-641.0768 507.6013,-641.0121 521.0544,-640.6922 523.207,-640.7347 527.9662,-640.7216 533.4449,-640.9448 540.5568,-640.9146 544.8058,-640.9888 548.5733,-640.8856 551.0449,-640.9786 555.0653,-641.0399 555.7799,-641.0817 556.0209,-641.0905 570.0134,-624.5516 579.7919,-614.1086 582.7953,-610.6875 592.4037,-600.9465 597.0111,-596.8463 604.6259,-588.9151 665.6859,-529.9911 677.0125,-520.0671 689.144,-507.8354 690.3625,-506.5306 697.2874,-498.1749 707.4999,-487.3399 714.6509,-478.9753 726.8483,-463.3387 717.8499,-456.7407 713.6921,-453.8267 713.3715,-453.6122 713.2275,-453.5204 691.3288,-440.8726 598.0704,-392.9512 593.8492,-390.6522 572.6178,-377.0594 560.459,-368.1452 559.4775,-368.175 558.2393,-368.2365 557.6809,-369.6017 555.8115,-373.9258 545.3413,-395.6524 544.1954,-397.8874 527.8141,-426.2162 518.753,-439.6389 508.8383,-451.9456 499.9254,-460.8943 496.1476,-465.2912 495.6174,-465.8256 492.8051,-468.2787 490.4914,-469.9991 485.1875,-475.7865 476.8184,-483.2415 467.6829,-487.6365 455.127,-491.0385 453.202,-491.9415 443.8698,-498.3823 441.4135,-500.5519 437.8355,-504.4795 437.2955,-504.9595 428.5656,-514.312 425.5869,-516.6323 417.6878,-524.6709 413.7177,-529.1844 410.1382,-533.6937 396.6311,-552.4421 385.7445,-571.5007 310.323,-535.5704 296.7348,-528.165 290.4496,-524.3149 287.5644,-506.0013 282.2556,-477.7977 279.6213,-461.1024 273.7466,-429.5924 273.5162,-428.5138 177.0057,-431.1223 175.9469,-431.1122 173.4469,-430.9969 167.1486,-431.1696 160.5242,-431.1081 157.6712,-431.1866 153.7574,-431.0077 153.3381,-431.0348 146.0489,-431.2387 145.9441,-506.6898 151.0117,-508.1248 155.0156,-511.5851 151.2888,-514.8747 145.5818,-516.5731 140.5392,-515.1481 143.2926,-604.9109 136.1273,-602.5932 124.348,-599.1965 124.1778,-599.1595 110.0901,-596.5865 93.619,-594.1623 86.9064,-673.941 168.2684,-650.6599 169.3184,-656.2636 252.0388,-649.127 256.5959,-644.7702 260.2829,-683.527 263.3709,-643.3539 268.1238,-643.3539 268.794,-643.5514 272.0728,-643.5514 272.9154,-644.5052 278.5965,-647.8408 283.9983,-647.8408 290.517,-643.7979 290.8064,-643.4622 294.2006,-643.4622 294.2006,-643.4622 290.8064,-643.4622 290.517,-643.7979 283.9983,-647.8408 278.5965,-647.8408 272.9154,-644.5052 272.0728,-643.5514 268.794,-643.5514 268.1238,-643.3539 263.3709,-643.3539 260.2829,-683.527 256.5959,-644.7702 252.0388,-649.127 169.3184,-656.2636 168.2684,-650.6599 86.9064,-673.941 93.619,-594.1623 110.0901,-596.5865 124.1778,-599.1595 124.348,-599.1965 136.1273,-602.5932 143.2926,-604.9109 140.5392,-515.1481 145.5818,-516.5731 151.2888,-514.8747 155.0156,-511.5851 151.0117,-508.1248 145.9441,-506.6898 140.5182,-508.225 136.8484,-511.2809 132.6453,-484.6696 129.1229,-511.3245 124.7532,-511.3245 124.2692,-511.465 121.6964,-511.465 121.6917,-511.4687 121.6917,-511.4687 121.6964,-511.465 124.2692,-511.465 124.7532,-511.3245 129.1229,-511.3245 132.6453,-484.6696 136.8484,-511.2809 140.5182,-508.225 145.9441,-506.6898 146.0489,-431.2387 143.1513,-431.2134 138.4457,-430.9991 131.9554,-431.1826 127.4588,-430.9795 127.1921,-430.9871 116.2876,-430.8977 114.1329,-431.0384 116.2532,-480.7237 116.2532,-480.7237 114.1329,-431.0384 109.2162,-430.9997 108.3337,-431.025 -37.2697,-440.5547 -55.5862,-467.2092 -47.5247,-511.68 -45.079,-531.4708 -99.5667,-644.8083 -123.2963,-691.3615 -122.9379,-698.3491 -122.6306,-724.2476 -73.5295,-802.2076 33.4531,-835.4748 37.1364,-836.6951 49.2597,-841.2113 49.4083,-841.2697 64.4592,-847.4954 74.7647,-901.1036 75.3813,-905.2787 77.5205,-914.3842 86.9228,-934.8631 125.2403,-1023.8361 183.2668,-1067.1792 216.366,-1076.4795 217.6224,-1076.8776 229.9931,-1081.0215 239.6832,-1084.4409 252.0947,-1089.2634 252.3662,-1088.9164 246.3096,-913.1678 250.2993,-913.1678 250.4976,-913.3855 256.8457,-917.1689 261.9153,-917.1689 267.8924,-913.6559 268.6086,-912.8674 267.101,-911.2084 262.1288,-908.443 262.1288,-908.443 267.101,-911.2084 268.6086,-912.8674 267.8924,-913.6559 261.9153,-917.1689 256.8457,-917.1689 256.3499,-954.0069 259.4406,-1001.3359 259.5504,-1080.0184 276.0749,-1062.0491 275.2095,-980.9915 275.2095,-980.9915 276.0749,-1062.0491 286.4973,-1051.5098 285.2966,-962.6142 287.7314,-912.6478 291.5008,-912.6478 292.0985,-912.8173 294.8782,-912.8173 296.8842,-911.4211 299.814,-874.0349 299.5774,-835.4587 335.1999,-842.8245 351.0411,-847.4202 355.3193,-849.0099 355.5834,-849.1189 367.8286,-854.6982 368.4678,-814.5044 366.1222,-769.0438 372.1107,-770.8246 376.9085,-769.4653 380.835,-766.0656 377.05,-762.6201 371.8642,-761.054 371.8642,-761.054 377.05,-762.6201 380.835,-766.0656 381.4196,-766.0656 386.4918,-809.9172 387.21,-827.916 394.0917,-765.9598 398.2992,-765.9598 398.396,-765.9877 398.396,-765.9877 398.2992,-765.9598 394.0917,-765.9598 387.21,-827.916 386.4918,-809.9172 381.4196,-766.0656 380.835,-766.0656 376.9085,-769.4653 372.1107,-770.8246 366.1222,-769.0438 368.4678,-814.5044 367.8286,-854.6982 355.5834,-849.1189 355.3193,-849.0099 351.0411,-847.4202 335.1999,-842.8245 299.5774,-835.4587 299.814,-874.0349 296.8842,-911.4211 294.8782,-912.8173 292.0985,-912.8173 295.08,-1010.4827 295.08,-1010.4827 292.0985,-912.8173 291.5008,-912.6478 287.7314,-912.6478 285.2966,-962.6142 286.4973,-1051.5098 276.0749,-1062.0491 259.5504,-1080.0184 259.4406,-1001.3359 256.3499,-954.0069 256.8457,-917.1689 250.4976,-913.3855 250.2993,-913.1678 246.3096,-913.1678 252.3662,-1088.9164 252.0947,-1089.2634 270.2788,-1123.4996 313.2448,-1187.8789 367.3502,-1205.3049 422.8721,-1195.0453 423.5038,-1194.9408 436.2042,-1193.3237 436.6426,-1083.1599 440.0245,-1049.9121 438.0599,-1047.545 438.5334,-1047.0182 442.4198,-1007.2527 442.9611,-973.6392 446.2076,-973.5496 446.3139,-970.9939 446.3139,-970.9939 446.2076,-973.5496 442.9611,-973.6392 442.4198,-1007.2527 438.5334,-1047.0182 438.0599,-1047.545 440.0245,-1049.9121 444.13,-1052.2427 444.13,-1052.2427 440.0245,-1049.9121 436.6426,-1083.1599 436.2042,-1193.3237 450.8182,-1192.0231 454.7776,-1191.8228 458.2093,-1191.7805 476.6219,-1191.907 492.8633,-1192.6407 594.0941,-1126.2562 624.3254,-1091.5835 637.2889,-1071.2377 624.7399,-1055.0494 610.0677,-1034.4323 588.0461,-1001.9476 591.2599,-911.6269 591.2396,-908.3561 591.5053,-900.9085 591.2155,-894.8775 592.4853,-859.1902 585.682,-854.8604 571.2495,-847.0794 565.191,-844.4183 558.762,-841.9099 556.0561,-840.9877 540.6152,-837.2125 535.0842,-836.1359 531.7455,-835.6515 531.7455,-835.6515"/>
<polygon fill="#fed9a6" stroke="#fed9a6" points="997.7611,-437.099 1012.7816,-462.3873 1029.9318,-488.9037 981.1885,-507.1901 976.3281,-508.8275 974.6039,-509.3425 963.3256,-512.286 949.8805,-514.7669 949.5023,-514.8077 939.6315,-515.4973 935.5328,-515.471 927.9241,-515.7075 920.0881,-515.6509 914.2056,-516.0475 906.1219,-517.1968 905.5197,-440.3469 907.1498,-438.5123 905.991,-437.2413 900.6852,-434.2435 900.6852,-434.2435 905.991,-437.2413 907.1498,-438.5123 905.5197,-440.3469 906.1219,-517.1968 904.2845,-517.5268 887.7217,-521.1271 886.9926,-521.3391 882.7332,-522.7371 877.1083,-524.7955 856.6851,-533.8328 829.0818,-547.0339 829.6364,-557.9243 845.7933,-578.9985 868.3893,-613.4868 900.2124,-667.98 930.3298,-707.2635 930.4443,-707.4291 938.2025,-710.0417 950.1834,-714.3979 961.6782,-719.499 968.0725,-715.3033 980.8674,-708.1065 1071.848,-662.6001 1073.8236,-661.5497 1088.7578,-652.6366 1094.1754,-649.2328 1111.105,-637.5177 1107.9525,-711.9843 1102.1874,-776.8372 1100.5793,-777.9967 1098.8984,-777.9967 1098.3267,-777.3537 1098.3267,-777.3537 1098.8984,-777.9967 1097.2861,-779.908 1092.6302,-782.6065 1092.6302,-782.6065 1097.2861,-779.908 1098.8984,-777.9967 1100.5793,-777.9967 1102.1874,-776.8372 1107.9525,-711.9843 1111.105,-637.5177 1145.9934,-611.2305 1146.1473,-611.1232 1225.4215,-702.6851 1235.1705,-751.874 1237.8761,-763.9797 1235.5106,-791.451 1233.9639,-832.5588 1192.1464,-910.7236 1203.2684,-941.8575 1199.1729,-1002.3351 1198.6045,-1033.3608 1198.6776,-1044.684 1196.5088,-1072.2981 1148.2637,-1137.3352 1077.9796,-1143.1149 1070.2622,-1143.9211 1051.1898,-1146.7644 1043.3262,-1148.4592 1030.0474,-1151.6166 1027.7069,-1152.276 1026.2876,-1015.9361 1031.5896,-1017.5274 1037.6215,-1015.6866 1040.8799,-1012.8657 1037.2404,-1009.5981 1037.2404,-1009.5981 1040.8799,-1012.8657 1037.6215,-1015.6866 1031.5896,-1017.5274 1026.2876,-1015.9361 1027.7069,-1152.276 1016.06,-1155.8169 1015.9182,-1110.4055 1016.8032,-1077.6206 1016.8032,-1077.6206 1015.9182,-1110.4055 1009.7354,-1012.8328 1011.1044,-1012.4126 1007.3947,-972.783 1006.7863,-886.6637 998.7049,-884.1942 980.9034,-877.8684 980.7795,-877.9465 867.8162,-945.7982 869.6459,-810.3244 866.0519,-806.2009 864.5496,-805.4616 861.9536,-862.6669 858.1663,-805.2804 852.8853,-805.2804 851.9173,-804.9877 849.2004,-804.9877 847.658,-805.4529 843.5187,-805.4529 841.5711,-803.0237 837.6854,-800.7773 837.6854,-800.7773 841.5711,-803.0237 843.5187,-805.4529 847.658,-805.4529 849.2004,-804.9877 851.9173,-804.9877 852.8853,-805.2804 858.1663,-805.2804 861.9536,-862.6669 864.5496,-805.4616 866.0519,-806.2009 869.6459,-810.3244 867.8162,-945.7982 980.7795,-877.9465 980.9034,-877.8684 998.7049,-884.1942 1006.7863,-886.6637 1007.3947,-972.783 1011.1044,-1012.4126 1009.7354,-1012.8328 1015.9182,-1110.4055 1016.06,-1155.8169 1006.2107,-1159.4673 995.5621,-1163.8921 987.6812,-1163.952 987.1633,-1163.7649 940.4847,-1148.8593 825.7775,-1052.1721 778.5493,-1065.202 749.6162,-1063.0477 728.9504,-1061.8634 713.9515,-1061.5214 700.3323,-1062.1508 700.2307,-1052.3845 701.3747,-909.5072 706.074,-908.2297 713.9846,-1026.243 714.6451,-998.2476 714.6451,-998.2476 713.9846,-1026.243 706.074,-908.2297 701.3747,-909.5072 696.0719,-908.0593 692.6415,-905.2928 692.3433,-904.8483 692.3433,-904.8483 692.6415,-905.2928 696.0719,-908.0593 701.3747,-909.5072 700.2307,-1052.3845 700.3323,-1062.1508 685.4582,-1063.3517 683.9017,-1063.5309 674.3727,-1064.7932 663.3398,-1066.4447 637.2889,-1071.2377 624.7399,-1055.0494 610.0677,-1034.4323 588.0461,-1001.9476 591.2599,-911.6269 591.2396,-908.3561 591.5053,-900.9085 591.2155,-894.8775 592.4853,-859.1902 585.682,-854.8604 571.2495,-847.0794 572.3085,-815.9155 570.4615,-770.8033 570.4615,-770.8033 572.3085,-815.9155 571.2495,-847.0794 565.191,-844.4183 558.762,-841.9099 556.0561,-840.9877 540.6152,-837.2125 535.0842,-836.1359 531.7455,-835.6515 519.943,-835.0956 518.3754,-834.9442 508.9952,-834.9639 504.5161,-834.7531 500.7958,-834.3956 500.3738,-834.3343 482.9076,-830.9239 472.8343,-827.4771 463.3043,-823.7489 462.4452,-823.3719 462.1345,-823.2203 460.5791,-822.3822 462.0939,-791.5234 461.8405,-765.84 462.7281,-760.6048 468.3945,-645.1713 470.2609,-644.8044 486.1192,-642.3738 503.5616,-641.2145 506.6413,-641.0768 507.6013,-641.0121 521.0544,-640.6922 523.207,-640.7347 527.9662,-640.7216 533.4449,-640.9448 540.5568,-640.9146 544.8058,-640.9888 548.5733,-640.8856 551.0449,-640.9786 555.0653,-641.0399 555.7799,-641.0817 556.0209,-641.0905 570.0134,-624.5516 579.7919,-614.1086 582.7953,-610.6875 592.4037,-600.9465 597.0111,-596.8463 604.6259,-588.9151 665.6859,-529.9911 677.0125,-520.0671 678.0146,-566.9089 678.0146,-566.9089 677.0125,-520.0671 689.144,-507.8354 690.3625,-506.5306 697.2874,-498.1749 707.4999,-487.3399 705.5619,-549.3513 701.2117,-597.7347 697.4133,-599.79 695.0392,-602.5615 695.5951,-603.1662 701.9844,-606.866 706.4324,-606.866 709.2633,-644.902 709.2384,-658.3773 700.5008,-667.98 722.8978,-667.98 759.1559,-674.3745 763.399,-671.6126 765.3807,-668.3181 765.3807,-668.3181 763.399,-671.6126 759.1559,-674.3745 722.8978,-667.98 700.5008,-667.98 709.2384,-658.3773 709.2633,-644.902 706.4324,-606.866 701.9844,-606.866 695.5951,-603.1662 695.0392,-602.5615 697.4133,-599.79 701.2117,-597.7347 705.5619,-549.3513 707.4999,-487.3399 714.6509,-478.9753 726.8483,-463.3387 717.8499,-456.7407 713.6921,-453.8267 713.3715,-453.6122 713.2275,-453.5204 691.3288,-440.8726 598.0704,-392.9512 593.8492,-390.6522 572.6178,-377.0594 560.459,-368.1452 568.043,-358.0402 582.3511,-341.9592 585.2944,-338.9548 590.8506,-332.5838 602.3066,-320.1259 605.6643,-316.6882 613.3097,-309.7814 621.7355,-303.1539 691.6666,-242.897 691.8303,-242.7675 694.7634,-240.2686 706.2596,-229.7536 716.1959,-219.47 720.6516,-214.319 721.6779,-213.2666 730.0465,-204.2284 736.0552,-197.4211 740.1762,-184.3596 821.463,-148.0485 830.3309,-143.8755 836.4379,-140.7113 846.1028,-135.472 847.4656,-134.7011 860.3427,-127.1097 877.2413,-115.5304 883.0153,-117.3007 884.3793,-117.6951 915.9018,-125.7256 1028.0916,-209.0715 992.2617,-268.8392 942.5113,-276.9587 885.4891,-283.0002 879.9565,-288.6464 882.8629,-290.1086 885.6233,-293.644 882.1318,-337.1678 881.744,-363.3466 878.6502,-363.4694 874.4141,-288.5972 871.0285,-288.5972 865.8974,-253.3399 860.4642,-138.6328 857.892,-236.4863 853.8083,-283.8681 849.0261,-285.2255 845.0477,-288.6333 848.9745,-292.0546 854.1068,-293.5441 854.1068,-293.5441 848.9745,-292.0546 845.0477,-288.6333 849.0261,-285.2255 853.8083,-283.8681 857.892,-236.4863 860.4642,-138.6328 865.8974,-253.3399 871.0285,-288.5972 874.4141,-288.5972 878.6502,-363.4694 881.744,-363.3466 882.1318,-337.1678 885.6233,-293.644 882.8629,-290.1086 879.9565,-288.6464 885.4891,-283.0002 942.5113,-276.9587 992.2617,-268.8392 965.6203,-319.7556 951.4671,-349.5873 964.5468,-369.8102 972.4777,-384.8621 989.4565,-421.4692 997.7611,-437.099 997.7611,-437.099"/>
<polygon fill="#bbd7d9" stroke="#bbd7d9" points="362.5757,100.7561 345.9179,90.023 194.9305,-3.2435 199.4323,-9.2292 207.1207,-19.0892 212.3463,-25.2992 225.4682,-41.6099 247.3691,-67.6379 254.4109,-76.5316 314.7646,-157.9531 338.3894,-185.9499 348.2611,-185.9159 349.0234,-185.8964 351.7434,-64.7893 356.9965,-59.5899 357.1566,-59.2918 362.3982,-59.2918 362.4628,-59.3109 366.9511,-59.3109 367.8616,-59.036 371.9623,-59.036 373.6343,-61.0713 377.9962,-63.5892 383.7484,-63.5892 388.506,-60.7533 389.9665,-58.9377 393.4894,-58.9377 394.7077,-59.318 399.4673,-59.318 400.6985,-58.9362 404.4524,-58.9362 408.4107,4.2825 410.475,-54.2657 451.006,-41.4206 444.7818,-21.4724 475.6833,-21.128 490.0345,-24.49 494.7335,-21.5208 496.9038,-17.9954 500.8657,-17.9954 500.9491,-17.97 504.9353,-17.97 505.6535,-18.8359 505.6535,-18.8359 504.9353,-17.97 500.9491,-17.97 500.8657,-17.9954 496.9038,-17.9954 494.7335,-21.5208 490.0345,-24.49 475.6833,-21.128 444.7818,-21.4724 451.006,-41.4206 410.475,-54.2657 408.4107,4.2825 404.4524,-58.9362 400.6985,-58.9362 399.4673,-59.318 394.7077,-59.318 393.4894,-58.9377 389.9665,-58.9377 388.506,-60.7533 383.7484,-63.5892 377.9962,-63.5892 373.6343,-61.0713 371.9623,-59.036 367.8616,-59.036 366.9511,-59.3109 362.4628,-59.3109 362.3982,-59.2918 357.1566,-59.2918 356.9965,-59.5899 351.7434,-64.7893 349.0234,-185.8964 357.0428,-185.8729 360.6402,-185.9439 364.2588,-186.0974 365.3261,-186.0717 369.838,-185.8627 372.2827,-185.8605 383.5997,-200.167 383.8774,-200.4681 400.8833,-220.0407 405.4028,-224.353 410.2666,-229.359 424.5997,-242.1739 425.9144,-243.2524 483.1886,-295.3003 494.2986,-306.2925 496.9478,-308.7023 503.8006,-315.8682 510.7256,-322.1124 510.7333,-322.1203 524.4955,-337.8266 535.0062,-350.4456 544.0192,-362.3022 457.5639,-385.3947 455.1513,-385.9441 444.0795,-388.0325 438.8505,-388.8109 433.0512,-389.4442 425.299,-389.6779 419.9985,-389.6279 415.8657,-389.4251 412.7935,-389.6284 407.5343,-389.7675 404.5516,-389.7281 401.2989,-389.556 398.9763,-389.5224 394.3308,-389.8126 388.838,-389.9372 381.648,-389.8155 378.1352,-390.0242 375.5069,-390.2806 373.2271,-390.5903 362.0176,-392.5465 347.0058,-396.3232 279.3504,-415.8843 272.7638,-385.652 266.2314,-350.3953 262.022,-322.4009 261.2637,-318.9756 256.3474,-292.3021 253.0173,-277.0172 214.8523,-266.7333 204.8376,-264.7143 203.3208,-264.4603 194.8114,-263.3233 185.7055,-262.4173 178.9732,-262.207 176.789,-262.2132 165.9443,-261.8848 164.2894,-262.004 148.232,-261.5662 142.7931,-261.2382 142.6761,-261.2234 123.6571,-258.1861 115.3114,-256.0308 102.5243,-251.8769 28.3905,-225.3695 -19.5819,-283.4919 -22.0868,-318.4977 -26.7391,-367.004 -37.2697,-440.5547 108.3337,-431.025 105.0977,-356.952 110.5568,-353.4036 112.4218,-350.5398 115.1337,-350.5398 117.5418,-387.0596 122.0086,-350.7911 125.2885,-350.7911 126.1955,-350.5143 130.5596,-350.5143 132.4267,-352.7932 136.46,-355.0546 136.46,-355.0546 132.4267,-352.7932 130.5596,-350.5143 126.1955,-350.5143 125.2885,-350.7911 122.0086,-350.7911 117.5418,-387.0596 115.1337,-350.5398 112.4218,-350.5398 110.5568,-353.4036 105.0977,-356.952 108.3337,-431.025 109.2162,-430.9997 114.1329,-431.0384 116.2876,-430.8977 127.1921,-430.9871 127.4588,-430.9795 131.9554,-431.1826 138.4457,-430.9991 143.1513,-431.2134 146.0489,-431.2387 153.3381,-431.0348 153.7574,-431.0077 157.6712,-431.1866 160.5242,-431.1081 167.1486,-431.1696 173.4469,-430.9969 175.9469,-431.1122 177.0057,-431.1223 273.5162,-428.5138 273.7466,-429.5924 279.6213,-461.1024 282.2556,-477.7977 287.5644,-506.0013 290.4496,-524.3149 296.7348,-528.165 310.323,-535.5704 385.7445,-571.5007 396.6311,-552.4421 410.1382,-533.6937 413.7177,-529.1844 417.6878,-524.6709 425.5869,-516.6323 428.5656,-514.312 437.2955,-504.9595 437.8355,-504.4795 441.4135,-500.5519 443.8698,-498.3823 453.202,-491.9415 455.127,-491.0385 467.6829,-487.6365 476.8184,-483.2415 485.1875,-475.7865 490.4914,-469.9991 492.8051,-468.2787 495.6174,-465.8256 496.1476,-465.2912 499.9254,-460.8943 508.8383,-451.9456 518.753,-439.6389 527.8141,-426.2162 544.1954,-397.8874 545.3413,-395.6524 555.8115,-373.9258 557.6809,-369.6017 558.2393,-368.2365 559.4775,-368.175 560.459,-368.1452 568.043,-358.0402 582.3511,-341.9592 585.2944,-338.9548 590.8506,-332.5838 602.3066,-320.1259 605.6643,-316.6882 605.2131,-289.6821 607.1263,-225.3649 606.3342,-225.1325 601.4262,-225.1325 604.5668,-125.7456 592.7756,-120.5316 589.8921,-119.066 584.8586,-116.3372 578.4628,-117.7903 568.2755,-119.5491 555.3619,-121.0743 555.3524,-147.102 549.8191,-220.8737 545.2183,-223.3858 543.6063,-225.1725 544.7182,-226.4682 544.7182,-226.4682 543.6063,-225.1725 545.2183,-223.3858 549.8191,-220.8737 555.3524,-147.102 555.3619,-121.0743 568.2755,-119.5491 578.4628,-117.7903 584.8586,-116.3372 589.8921,-119.066 592.7756,-120.5316 604.5668,-125.7456 601.4262,-225.1325 606.3342,-225.1325 607.1263,-225.3649 605.2131,-289.6821 605.6643,-316.6882 613.3097,-309.7814 621.7355,-303.1539 691.6666,-242.897 691.8303,-242.7675 694.7634,-240.2686 706.2596,-229.7536 716.1959,-219.47 720.6516,-214.319 721.6779,-213.2666 730.0465,-204.2284 736.0552,-197.4211 740.1762,-184.3596 821.463,-148.0485 830.3309,-143.8755 836.4379,-140.7113 846.1028,-135.472 847.4656,-134.7011 860.3427,-127.1097 877.2413,-115.5304 865.8868,-82.723 853.6376,-44.7666 849.5554,-31.0421 832.0671,33.2991 817.6786,57.9466 809.1743,67.5831 767.8428,84.0383 725.7808,79.6563 709.8395,78.3564 709.6552,53.2795 707.2224,-14.3678 702.5251,-49.9652 704.2087,-52.1046 703.9817,-52.3847 703.9817,-52.3847 704.2087,-52.1046 702.5251,-49.9652 707.2224,-14.3678 709.6552,53.2795 709.8395,78.3564 692.2953,78.1233 690.0742,78.1443 684.639,78.3192 673.0311,79.2208 672.0911,79.3151 633.665,84.0454 580.6689,123.9797 542.2853,120.4062 535.3041,119.9016 525.8604,119.4161 515.5313,119.101 509.2637,119.1716 508.8035,119.1864 497.3588,119.793 495.4233,119.9763 492.6588,119.4171 418.5486,106.0239 385.558,97.2271 378.2077,98.1026 369.5182,99.4565 364.3408,100.358 364.1553,100.3937 362.5757,100.7561 362.5757,100.7561"/>
<polygon fill="#d8d6da" stroke="#d8d6da" points="29.9995,-173.6 134.7537,-173.6 134.7537,-173.6 29.9995,-173.6 27.9446,-120.0696 149.0424,3.5977 163.1442,.8428 171.4084,-.4929 185.2537,-2.4968 194.9305,-3.2435 199.4323,-9.2292 207.1207,-19.0892 212.3463,-25.2992 225.4682,-41.6099 247.3691,-67.6379 254.4109,-76.5316 314.7646,-157.9531 338.3894,-185.9499 348.2611,-185.9159 349.0234,-185.8964 357.0428,-185.8729 360.6402,-185.9439 364.2588,-186.0974 365.3261,-186.0717 369.838,-185.8627 372.2827,-185.8605 383.5997,-200.167 383.8774,-200.4681 400.8833,-220.0407 405.4028,-224.353 410.2666,-229.359 424.5997,-242.1739 425.9144,-243.2524 483.1886,-295.3003 494.2986,-306.2925 496.9478,-308.7023 503.8006,-315.8682 510.7256,-322.1124 510.7333,-322.1203 524.4955,-337.8266 535.0062,-350.4456 544.0192,-362.3022 457.5639,-385.3947 455.1513,-385.9441 444.0795,-388.0325 438.8505,-388.8109 433.0512,-389.4442 425.299,-389.6779 419.9985,-389.6279 415.8657,-389.4251 412.7935,-389.6284 407.5343,-389.7675 404.5516,-389.7281 401.2989,-389.556 398.9763,-389.5224 394.3308,-389.8126 388.838,-389.9372 381.648,-389.8155 378.1352,-390.0242 375.5069,-390.2806 373.2271,-390.5903 362.0176,-392.5465 347.0058,-396.3232 279.3504,-415.8843 272.7638,-385.652 266.2314,-350.3953 262.022,-322.4009 261.2637,-318.9756 256.3474,-292.3021 253.0173,-277.0172 214.8523,-266.7333 204.8376,-264.7143 203.3208,-264.4603 194.8114,-263.3233 185.7055,-262.4173 178.9732,-262.207 178.258,-173.7919 180.0078,-173.7919 183.4367,-176.7904 183.4367,-176.7904 180.0078,-173.7919 178.258,-173.7919 178.9732,-262.207 176.789,-262.2132 165.9443,-261.8848 164.2894,-262.004 148.232,-261.5662 142.7931,-261.2382 142.6761,-261.2234 123.6571,-258.1861 115.3114,-256.0308 102.5243,-251.8769 28.3905,-225.3695 29.9995,-173.6 29.9995,-173.6"/>
<polygon fill="#fbb4ae" stroke="#fbb4ae" points="951.4671,-349.5873 964.5468,-369.8102 972.4777,-384.8621 1034.2947,-380.8277 1039.3663,-376.0572 1039.7089,-375.9229 1041.1251,-374.7716 1043.2837,-374.7716 1044.9594,-375.2552 1048.6107,-375.2552 1053.6594,-416.0186 1054.2206,-428.5582 1060.9624,-375.4076 1063.5652,-375.4076 1065.0806,-377.0539 1069.6104,-379.4925 1069.6104,-379.4925 1065.0806,-377.0539 1063.5652,-375.4076 1060.9624,-375.4076 1054.2206,-428.5582 1053.6594,-416.0186 1048.6107,-375.2552 1044.9594,-375.2552 1043.2837,-374.7716 1041.1251,-374.7716 1039.7089,-375.9229 1039.3663,-376.0572 1034.2947,-380.8277 972.4777,-384.8621 989.4565,-421.4692 997.7611,-437.099 1012.7816,-462.3873 1029.9318,-488.9037 1037.246,-490.6432 1040.02,-491.4445 1053.3853,-495.651 1063.0665,-499.4442 1076.5155,-505.06 1087.2454,-510.3599 1099.2742,-516.9183 1125.2548,-533.0905 1148.1118,-547.8667 1192.7999,-507.4391 1219.3491,-453.1926 1251.2753,-375 1285.8251,-303.9856 1294.5283,-307.6943 1452.8363,-351.4434 1464.1719,-354.8294 1466.6498,-355.7355 1468.7459,-356.5498 1488.2706,-354.8682 1489.1783,-354.8267 1496.134,-354.6487 1504.6161,-354.7733 1515.369,-355.1479 1533.6956,-356.8951 1582.4928,-363.5066 1613.8535,-327.3502 1667.4497,-239.7947 1672.0706,-232.9645 1650.6635,-173.9014 1627.9176,-105.6365 1602.5255,-93.181 1551.5468,-79.8829 1532.7546,-82.4408 1529.1377,-82.8562 1521.1653,-83.6025 1516.626,-83.9308 1501.5618,-84.3792 1482.5668,-83.7302 1481.4192,-83.6422 1464.7089,-81.6474 1444.5142,-77.9449 1402.4932,-69.3586 1379.463,-73.7594 1360.34,-93.7205 1320.4901,-199.1694 1296.3882,-255.0207 1280.2251,-290.5589 1115.0581,-221.2328 1100.3752,-214.7637 1097.7362,-213.4933 1087.9525,-208.3736 1085.5096,-208.6297 1079.6031,-209.1524 1068.7366,-209.7586 1056.4032,-210.2445 1053.251,-210.214 1030.3689,-209.2425 1028.0916,-209.0715 992.2617,-268.8392 965.6203,-319.7556 951.4671,-349.5873 951.4671,-349.5873"/>
<polygon fill="#d8d6da" stroke="#d8d6da" points="1146.1473,-611.1232 1147.7959,-554.5055 1148.1118,-547.8667 1125.2548,-533.0905 1099.2742,-516.9183 1087.2454,-510.3599 1076.5155,-505.06 1063.0665,-499.4442 1053.3853,-495.651 1040.02,-491.4445 1037.246,-490.6432 1029.9318,-488.9037 981.1885,-507.1901 976.3281,-508.8275 974.6039,-509.3425 963.3256,-512.286 949.8805,-514.7669 949.5023,-514.8077 939.6315,-515.4973 935.5328,-515.471 927.9241,-515.7075 920.0881,-515.6509 914.2056,-516.0475 906.1219,-517.1968 904.2845,-517.5268 887.7217,-521.1271 886.9926,-521.3391 882.7332,-522.7371 877.1083,-524.7955 856.6851,-533.8328 829.0818,-547.0339 829.6364,-557.9243 845.7933,-578.9985 868.3893,-613.4868 900.2124,-667.98 930.3298,-707.2635 930.4443,-707.4291 938.2025,-710.0417 950.1834,-714.3979 961.6782,-719.499 968.0725,-715.3033 980.8674,-708.1065 1071.848,-662.6001 1073.8236,-661.5497 1088.7578,-652.6366 1094.1754,-649.2328 1111.105,-637.5177 1145.9934,-611.2305 1146.1473,-611.1232 1146.1473,-611.1232"/>
<polyline fill="none" stroke="#000000" points="527.9662,-640.7216 533.4449,-640.9448 540.5568,-640.9146 544.8058,-640.9888 548.5733,-640.8856 551.0449,-640.9786 555.0653,-641.0399 555.7799,-641.0817 556.0209,-641.0905 570.0134,-624.5516 579.7919,-614.1086 582.7953,-610.6875 592.4037,-600.9465 597.0111,-596.8463 604.6259,-588.9151 665.6859,-529.9911 677.0125,-520.0671 689.144,-507.8354 690.3625,-506.5306 697.2874,-498.1749 707.4999,-487.3399 714.6509,-478.9753 726.8483,-463.3387 717.8499,-456.7407 713.6921,-453.8267 713.3715,-453.6122 713.2275,-453.5204 691.3288,-440.8726 598.0704,-392.9512 593.8492,-390.6522 572.6178,-377.0594 560.459,-368.1452 559.4775,-368.175 558.2393,-368.2365 557.6809,-369.6017 555.8115,-373.9258 545.3413,-395.6524 544.1954,-397.8874 527.8141,-426.2162 518.753,-439.6389 508.8383,-451.9456 499.9254,-460.8943 496.1476,-465.2912 495.6174,-465.8256 492.8051,-468.2787 490.4914,-469.9991 485.1875,-475.7865 476.8184,-483.2415 467.6829,-487.6365 455.127,-491.0385 453.202,-491.9415 443.8698,-498.3823 441.4135,-500.5519 437.8355,-504.4795 437.2955,-504.9595 428.5656,-514.312 425.5869,-516.6323 417.6878,-524.6709 413.7177,-529.1844 410.1382,-533.6937 396.6311,-552.4421 385.7445,-571.5007 310.323,-535.5704 296.7348,-528.165 290.4496,-524.3149 287.5644,-506.0013 282.2556,-477.7977 279.6213,-461.1024 273.7466,-429.5924 273.5162,-428.5138 177.0057,-431.1223 175.9469,-431.1122 173.4469,-430.9969 167.1486,-431.1696 160.5242,-431.1081 157.6712,-431.1866 153.7574,-431.0077 153.3381,-431.0348 146.0489,-431.2387 143.1513,-431.2134 138.4457,-430.9991 131.9554,-431.1826 127.4588,-430.9795 127.1921,-430.9871 116.2876,-430.8977 114.1329,-431.0384 109.2162,-430.9997 108.3337,-431.025 -37.2697,-440.5547 -55.5862,-467.2092 -47.5247,-511.68 -45.079,-531.4708 -99.5667,-644.8083 -123.2963,-691.3615 -122.9379,-698.3491 -122.6306,-724.2476 -73.5295,-802.2076 33.4531,-835.4748 37.1364,-836.6951 49.2597,-841.2113 49.4083,-841.2697 64.4592,-847.4954 74.7647,-901.1036 75.3813,-905.2787 77.5205,-914.3842 86.9228,-934.8631 125.2403,-1023.8361 183.2668,-1067.1792 216.366,-1076.4795 217.6224,-1076.8776 229.9931,-1081.0215 239.6832,-1084.4409 252.0947,-1089.2634 270.2788,-1123.4996 313.2448,-1187.8789 367.3502,-1205.3049 422.8721,-1195.0453 423.5038,-1194.9408 436.2042,-1193.3237 450.8182,-1192.0231 454.7776,-1191.8228 458.2093,-1191.7805 476.6219,-1191.907 492.8633,-1192.6407 594.0941,-1126.2562 624.3254,-1091.5835 637.2889,-1071.2377 624.7399,-1055.0494 610.0677,-1034.4323 588.0461,-1001.9476 591.2599,-911.6269 591.2396,-908.3561 591.5053,-900.9085 591.2155,-894.8775 592.4853,-859.1902 585.682,-854.8604 571.2495,-847.0794 565.191,-844.4183 558.762,-841.9099 556.0561,-840.9877 540.6152,-837.2125 535.0842,-836.1359 531.7455,-835.6515 519.943,-835.0956 518.3754,-834.9442 508.9952,-834.9639 504.5161,-834.7531 500.7958,-834.3956 500.3738,-834.3343 482.9076,-830.9239 472.8343,-827.4771 463.3043,-823.7489 462.4452,-823.3719 462.1345,-823.2203 460.5791,-822.3822 462.0939,-791.5234 461.8405,-765.84 462.7281,-760.6048 468.3945,-645.1713 470.2609,-644.8044 486.1192,-642.3738 503.5616,-641.2145 506.6413,-641.0768 507.6013,-641.0121 521.0544,-640.6922 523.207,-640.7347 527.9662,-640.7216 "/>
<polyline fill="none" stroke="#000000" points="829.6364,-557.9243 845.7933,-578.9985 868.3893,-613.4868 900.2124,-667.98 930.3298,-707.2635 930.4443,-707.4291 938.2025,-710.0417 950.1834,-714.3979 961.6782,-719.499 968.0725,-715.3033 980.8674,-708.1065 1071.848,-662.6001 1073.8236,-661.5497 1088.7578,-652.6366 1094.1754,-649.2328 1111.105,-637.5177 1145.9934,-611.2305 1146.1473,-611.1232 1225.4215,-702.6851 1235.1705,-751.874 1237.8761,-763.9797 1235.5106,-791.451 1233.9639,-832.5588 1192.1464,-910.7236 1203.2684,-941.8575 1199.1729,-1002.3351 1198.6045,-1033.3608 1198.6776,-1044.684 1196.5088,-1072.2981 1148.2637,-1137.3352 1077.9796,-1143.1149 1070.2622,-1143.9211 1051.1898,-1146.7644 1043.3262,-1148.4592 1030.0474,-1151.6166 1027.7069,-1152.276 1016.06,-1155.8169 1006.2107,-1159.4673 995.5621,-1163.8921 987.6812,-1163.952 987.1633,-1163.7649 940.4847,-1148.8593 825.7775,-1052.1721 778.5493,-1065.202 749.6162,-1063.0477 728.9504,-1061.8634 713.9515,-1061.5214 700.3323,-1062.1508 685.4582,-1063.3517 683.9017,-1063.5309 674.3727,-1064.7932 663.3398,-1066.4447 637.2889,-1071.2377 624.7399,-1055.0494 610.0677,-1034.4323 588.0461,-1001.9476 591.2599,-911.6269 591.2396,-908.3561 591.5053,-900.9085 591.2155,-894.8775 592.4853,-859.1902 585.682,-854.8604 571.2495,-847.0794 565.191,-844.4183 558.762,-841.9099 556.0561,-840.9877 540.6152,-837.2125 535.0842,-836.1359 531.7455,-835.6515 519.943,-835.0956 518.3754,-834.9442 508.9952,-834.9639 504.5161,-834.7531 500.7958,-834.3956 500.3738,-834.3343 482.9076,-830.9239 472.8343,-827.4771 463.3043,-823.7489 462.4452,-823.3719 462.1345,-823.2203 460.5791,-822.3822 462.0939,-791.5234 461.8405,-765.84 462.7281,-760.6048 468.3945,-645.1713 470.2609,-644.8044 486.1192,-642.3738 503.5616,-641.2145 506.6413,-641.0768 507.6013,-641.0121 521.0544,-640.6922 523.207,-640.7347 527.9662,-640.7216 533.4449,-640.9448 540.5568,-640.9146 544.8058,-640.9888 548.5733,-640.8856 551.0449,-640.9786 555.0653,-641.0399 555.7799,-641.0817 556.0209,-641.0905 570.0134,-624.5516 579.7919,-614.1086 582.7953,-610.6875 592.4037,-600.9465 597.0111,-596.8463 604.6259,-588.9151 665.6859,-529.9911 677.0125,-520.0671 689.144,-507.8354 690.3625,-506.5306 697.2874,-498.1749 707.4999,-487.3399 714.6509,-478.9753 726.8483,-463.3387 717.8499,-456.7407 713.6921,-453.8267 713.3715,-453.6122 713.2275,-453.5204 691.3288,-440.8726 598.0704,-392.9512 593.8492,-390.6522 572.6178,-377.0594 560.459,-368.1452 568.043,-358.0402 582.3511,-341.9592 585.2944,-338.9548 590.8506,-332.5838 602.3066,-320.1259 605.6643,-316.6882 613.3097,-309.7814 621.7355,-303.1539 691.6666,-242.897 691.8303,-242.7675 694.7634,-240.2686 706.2596,-229.7536 716.1959,-219.47 720.6516,-214.319 721.6779,-213.2666 730.0465,-204.2284 736.0552,-197.4211 740.1762,-184.3596 821.463,-148.0485 830.3309,-143.8755 836.4379,-140.7113 846.1028,-135.472 847.4656,-134.7011 860.3427,-127.1097 877.2413,-115.5304 883.0153,-117.3007 884.3793,-117.6951 915.9018,-125.7256 1028.0916,-209.0715 992.2617,-268.8392 965.6203,-319.7556 951.4671,-349.5873 964.5468,-369.8102 972.4777,-384.8621 989.4565,-421.4692 997.7611,-437.099 1012.7816,-462.3873 1029.9318,-488.9037 981.1885,-507.1901 976.3281,-508.8275 974.6039,-509.3425 963.3256,-512.286 949.8805,-514.7669 949.5023,-514.8077 939.6315,-515.4973 935.5328,-515.471 927.9241,-515.7075 920.0881,-515.6509 914.2056,-516.0475 906.1219,-517.1968 904.2845,-517.5268 887.7217,-521.1271 886.9926,-521.3391 882.7332,-522.7371 877.1083,-524.7955 856.6851,-533.8328 829.0818,-547.0339 829.6364,-557.9243 "/>
<polyline fill="none" stroke="#000000" points="413.7177,-529.1844 410.1382,-533.6937 396.6311,-552.4421 385.7445,-571.5007 310.323,-535.5704 296.7348,-528.165 290.4496,-524.3149 287.5644,-506.0013 282.2556,-477.7977 279.6213,-461.1024 273.7466,-429.5924 273.5162,-428.5138 177.0057,-431.1223 175.9469,-431.1122 173.4469,-430.9969 167.1486,-431.1696 160.5242,-431.1081 157.6712,-431.1866 153.7574,-431.0077 153.3381,-431.0348 146.0489,-431.2387 143.1513,-431.2134 138.4457,-430.9991 131.9554,-431.1826 127.4588,-430.9795 127.1921,-430.9871 116.2876,-430.8977 114.1329,-431.0384 109.2162,-430.9997 108.3337,-431.025 -37.2697,-440.5547 -26.7391,-367.004 -22.0868,-318.4977 -19.5819,-283.4919 28.3905,-225.3695 102.5243,-251.8769 115.3114,-256.0308 123.6571,-258.1861 142.6761,-261.2234 142.7931,-261.2382 148.232,-261.5662 164.2894,-262.004 165.9443,-261.8848 176.789,-262.2132 178.9732,-262.207 185.7055,-262.4173 194.8114,-263.3233 203.3208,-264.4603 204.8376,-264.7143 214.8523,-266.7333 253.0173,-277.0172 256.3474,-292.3021 261.2637,-318.9756 262.022,-322.4009 266.2314,-350.3953 272.7638,-385.652 279.3504,-415.8843 347.0058,-396.3232 362.0176,-392.5465 373.2271,-390.5903 375.5069,-390.2806 378.1352,-390.0242 381.648,-389.8155 388.838,-389.9372 394.3308,-389.8126 398.9763,-389.5224 401.2989,-389.556 404.5516,-389.7281 407.5343,-389.7675 412.7935,-389.6284 415.8657,-389.4251 419.9985,-389.6279 425.299,-389.6779 433.0512,-389.4442 438.8505,-388.8109 444.0795,-388.0325 455.1513,-385.9441 457.5639,-385.3947 544.0192,-362.3022 535.0062,-350.4456 524.4955,-337.8266 510.7333,-322.1203 510.7256,-322.1124 503.8006,-315.8682 496.9478,-308.7023 494.2986,-306.2925 483.1886,-295.3003 425.9144,-243.2524 424.5997,-242.1739 410.2666,-229.359 405.4028,-224.353 400.8833,-220.0407 383.8774,-200.4681 383.5997,-200.167 372.2827,-185.8605 369.838,-185.8627 365.3261,-186.0717 364.2588,-186.0974 360.6402,-185.9439 357.0428,-185.8729 349.0234,-185.8964 348.2611,-185.9159 338.3894,-185.9499 314.7646,-157.9531 254.4109,-76.5316 247.3691,-67.6379 225.4682,-41.6099 212.3463,-25.2992 207.1207,-19.0892 199.4323,-9.2292 194.9305,-3.2435 345.9179,90.023 362.5757,100.7561 364.1553,100.3937 364.3408,100.358 369.5182,99.4565 378.2077,98.1026 385.558,97.2271 418.5486,106.0239 492.6588,119.4171 495.4233,119.9763 497.3588,119.793 508.8035,119.1864 509.2637,119.1716 515.5313,119.101 525.8604,119.4161 535.3041,119.9016 542.2853,120.4062 580.6689,123.9797 633.665,84.0454 672.0911,79.3151 673.0311,79.2208 684.639,78.3192 690.0742,78.1443 692.2953,78.1233 709.8395,78.3564 725.7808,79.6563 767.8428,84.0383 809.1743,67.5831 817.6786,57.9466 832.0671,33.2991 849.5554,-31.0421 853.6376,-44.7666 865.8868,-82.723 877.2413,-115.5304 860.3427,-127.1097 847.4656,-134.7011 846.1028,-135.472 836.4379,-140.7113 830.3309,-143.8755 821.463,-148.0485 740.1762,-184.3596 736.0552,-197.4211 730.0465,-204.2284 721.6779,-213.2666 720.6516,-214.319 716.1959,-219.47 706.2596,-229.7536 694.7634,-240.2686 691.8303,-242.7675 691.6666,-242.897 621.7355,-303.1539 613.3097,-309.7814 605.6643,-316.6882 602.3066,-320.1259 590.8506,-332.5838 585.2944,-338.9548 582.3511,-341.9592 568.043,-358.0402 560.459,-368.1452 559.4775,-368.175 558.2393,-368.2365 557.6809,-369.6017 555.8115,-373.9258 545.3413,-395.6524 544.1954,-397.8874 527.8141,-426.2162 518.753,-439.6389 508.8383,-451.9456 499.9254,-460.8943 496.1476,-465.2912 495.6174,-465.8256 492.8051,-468.2787 490.4914,-469.9991 485.1875,-475.7865 476.8184,-483.2415 467.6829,-487.6365 455.127,-491.0385 453.202,-491.9415 443.8698,-498.3823 441.4135,-500.5519 437.8355,-504.4795 437.2955,-504.9595 428.5656,-514.312 425.5869,-516.6323 417.6878,-524.6709 413.7177,-529.1844 "/>
<polyline fill="none" stroke="#000000" points="375.5069,-390.2806 373.2271,-390.5903 362.0176,-392.5465 347.0058,-396.3232 279.3504,-415.8843 272.7638,-385.652 266.2314,-350.3953 262.022,-322.4009 261.2637,-318.9756 256.3474,-292.3021 253.0173,-277.0172 214.8523,-266.7333 204.8376,-264.7143 203.3208,-264.4603 194.8114,-263.3233 185.7055,-262.4173 178.9732,-262.207 176.789,-262.2132 165.9443,-261.8848 164.2894,-262.004 148.232,-261.5662 142.7931,-261.2382 142.6761,-261.2234 123.6571,-258.1861 115.3114,-256.0308 102.5243,-251.8769 28.3905,-225.3695 29.9995,-173.6 27.9446,-120.0696 149.0424,3.5977 163.1442,.8428 171.4084,-.4929 185.2537,-2.4968 194.9305,-3.2435 199.4323,-9.2292 207.1207,-19.0892 212.3463,-25.2992 225.4682,-41.6099 247.3691,-67.6379 254.4109,-76.5316 314.7646,-157.9531 338.3894,-185.9499 348.2611,-185.9159 349.0234,-185.8964 357.0428,-185.8729 360.6402,-185.9439 364.2588,-186.0974 365.3261,-186.0717 369.838,-185.8627 372.2827,-185.8605 383.5997,-200.167 383.8774,-200.4681 400.8833,-220.0407 405.4028,-224.353 410.2666,-229.359 424.5997,-242.1739 425.9144,-243.2524 483.1886,-295.3003 494.2986,-306.2925 496.9478,-308.7023 503.8006,-315.8682 510.7256,-322.1124 510.7333,-322.1203 524.4955,-337.8266 535.0062,-350.4456 544.0192,-362.3022 457.5639,-385.3947 455.1513,-385.9441 444.0795,-388.0325 438.8505,-388.8109 433.0512,-389.4442 425.299,-389.6779 419.9985,-389.6279 415.8657,-389.4251 412.7935,-389.6284 407.5343,-389.7675 404.5516,-389.7281 401.2989,-389.556 398.9763,-389.5224 394.3308,-389.8126 388.838,-389.9372 381.648,-389.8155 378.1352,-390.0242 375.5069,-390.2806 "/>
<polyline fill="none" stroke="#000000" points="1489.1783,-354.8267 1496.134,-354.6487 1504.6161,-354.7733 1515.369,-355.1479 1533.6956,-356.8951 1582.4928,-363.5066 1613.8535,-327.3502 1667.4497,-239.7947 1672.0706,-232.9645 1650.6635,-173.9014 1627.9176,-105.6365 1602.5255,-93.181 1551.5468,-79.8829 1532.7546,-82.4408 1529.1377,-82.8562 1521.1653,-83.6025 1516.626,-83.9308 1501.5618,-84.3792 1482.5668,-83.7302 1481.4192,-83.6422 1464.7089,-81.6474 1444.5142,-77.9449 1402.4932,-69.3586 1379.463,-73.7594 1360.34,-93.7205 1320.4901,-199.1694 1296.3882,-255.0207 1280.2251,-290.5589 1115.0581,-221.2328 1100.3752,-214.7637 1097.7362,-213.4933 1087.9525,-208.3736 1085.5096,-208.6297 1079.6031,-209.1524 1068.7366,-209.7586 1056.4032,-210.2445 1053.251,-210.214 1030.3689,-209.2425 1028.0916,-209.0715 992.2617,-268.8392 965.6203,-319.7556 951.4671,-349.5873 964.5468,-369.8102 972.4777,-384.8621 989.4565,-421.4692 997.7611,-437.099 1012.7816,-462.3873 1029.9318,-488.9037 1037.246,-490.6432 1040.02,-491.4445 1053.3853,-495.651 1063.0665,-499.4442 1076.5155,-505.06 1087.2454,-510.3599 1099.2742,-516.9183 1125.2548,-533.0905 1148.1118,-547.8667 1192.7999,-507.4391 1219.3491,-453.1926 1251.2753,-375 1285.8251,-303.9856 1294.5283,-307.6943 1452.8363,-351.4434 1464.1719,-354.8294 1466.6498,-355.7355 1468.7459,-356.5498 1488.2706,-354.8682 1489.1783,-354.8267 "/>
<polyline fill="none" stroke="#000000" points="950.1834,-714.3979 938.2025,-710.0417 930.4443,-707.4291 930.3298,-707.2635 900.2124,-667.98 868.3893,-613.4868 845.7933,-578.9985 829.6364,-557.9243 829.0818,-547.0339 856.6851,-533.8328 877.1083,-524.7955 882.7332,-522.7371 886.9926,-521.3391 887.7217,-521.1271 904.2845,-517.5268 906.1219,-517.1968 914.2056,-516.0475 920.0881,-515.6509 927.9241,-515.7075 935.5328,-515.471 939.6315,-515.4973 949.5023,-514.8077 949.8805,-514.7669 963.3256,-512.286 974.6039,-509.3425 976.3281,-508.8275 981.1885,-507.1901 1029.9318,-488.9037 1037.246,-490.6432 1040.02,-491.4445 1053.3853,-495.651 1063.0665,-499.4442 1076.5155,-505.06 1087.2454,-510.3599 1099.2742,-516.9183 1125.2548,-533.0905 1148.1118,-547.8667 1147.7959,-554.5055 1146.1473,-611.1232 1145.9934,-611.2305 1111.105,-637.5177 1094.1754,-649.2328 1088.7578,-652.6366 1073.8236,-661.5497 1071.848,-662.6001 980.8674,-708.1065 968.0725,-715.3033 961.6782,-719.499 950.1834,-714.3979 "/>
<!-- device&#45;mapper&#45;libs&#45;&gt;Fedora Container Base -->
<g id="edge1" class="edge">
<title>device&#45;mapper&#45;libs&#45;&gt;Fedora Container Base</title>
<path fill="none" stroke="#444444" stroke-opacity="0.333333" d="M271.6885,-894.8209C315.605,-830.6825 464.2797,-613.5486 516.3304,-537.5306"/>
<polygon fill="#444444" fill-opacity="0.333333" stroke="#444444" stroke-opacity="0.333333" points="519.4237,-539.2079 522.1856,-528.9794 513.6479,-535.2531 519.4237,-539.2079"/>
</g>
<!-- device&#45;mapper&#45;libs&#45;&gt;device&#45;mapper -->
<g id="edge2" class="edge">
<title>device&#45;mapper&#45;libs&#45;&gt;device&#45;mapper</title>
<path fill="none" stroke="#444444" stroke-opacity="0.333333" d="M279.3314,-894.781C301.9183,-869.1745 337.792,-822.3847 357.6574,-792.722"/>
<polygon fill="#444444" fill-opacity="0.333333" stroke="#444444" stroke-opacity="0.333333" points="360.7439,-794.3964 363.2761,-784.1086 354.881,-790.5719 360.7439,-794.3964"/>
</g>
<!-- device&#45;mapper&#45;&gt;Fedora Container Base -->
<g id="edge33" class="edge">
<title>device&#45;mapper&#45;&gt;Fedora Container Base</title>
<path fill="none" stroke="#444444" stroke-opacity="0.333333" d="M383.4646,-747.5111C411.7923,-703.1509 484.1519,-589.8388 517.3695,-537.8213"/>
<polygon fill="#444444" fill-opacity="0.333333" stroke="#444444" stroke-opacity="0.333333" points="520.4792,-539.4547 522.9115,-529.1428 514.5795,-535.6872 520.4792,-539.4547"/>
</g>
<!-- device&#45;mapper&#45;&gt;device&#45;mapper&#45;libs -->
<g id="edge34" class="edge">
<title>device&#45;mapper&#45;&gt;device&#45;mapper&#45;libs</title>
<path fill="none" stroke="#444444" stroke-opacity="0.333333" d="M351.7586,-783.929C329.1717,-809.5355 293.298,-856.3253 273.4326,-885.988"/>
<polygon fill="#444444" fill-opacity="0.333333" stroke="#444444" stroke-opacity="0.333333" points="270.3461,-884.3136 267.8139,-894.6014 276.209,-888.1381 270.3461,-884.3136"/>
</g>
<!-- device&#45;mapper&#45;&gt;systemd -->
<g id="edge35" class="edge">
<title>device&#45;mapper&#45;&gt;systemd</title>
<path fill="none" stroke="#444444" stroke-opacity="0.333333" d="M408.6071,-747.7069C469.719,-717.6325 591.8895,-657.5101 658.4333,-624.7627"/>
<polygon fill="#444444" fill-opacity="0.333333" stroke="#444444" stroke-opacity="0.333333" points="660.0146,-627.8854 667.4416,-620.3295 656.9237,-621.6047 660.0146,-627.8854"/>
</g>
<!-- device&#45;mapper&#45;&gt;util&#45;linux -->
<g id="edge36" class="edge">
<title>device&#45;mapper&#45;&gt;util&#45;linux</title>
<path fill="none" stroke="#444444" stroke-opacity="0.333333" d="M358.4418,-747.7721C343.2432,-727.1531 318.2505,-693.2471 300.8909,-669.6963"/>
<polygon fill="#444444" fill-opacity="0.333333" stroke="#444444" stroke-opacity="0.333333" points="303.6236,-667.5049 294.8728,-661.532 297.9889,-671.6583 303.6236,-667.5049"/>
</g>
<!-- libargon2&#45;&gt;Fedora Container Base -->
<g id="edge3" class="edge">
<title>libargon2&#45;&gt;Fedora Container Base</title>
<path fill="none" stroke="#444444" stroke-opacity="0.333333" d="M450.0391,-1029.7281C462.9339,-950.5391 514.2719,-635.265 529.9435,-539.0235"/>
<polygon fill="#444444" fill-opacity="0.333333" stroke="#444444" stroke-opacity="0.333333" points="533.3989,-539.58 531.5517,-529.1474 526.4899,-538.4549 533.3989,-539.58"/>
</g>
<!-- dbus&#45;broker&#45;&gt;Fedora Container Base -->
<g id="edge4" class="edge">
<title>dbus&#45;broker&#45;&gt;Fedora Container Base</title>
<path fill="none" stroke="#444444" stroke-opacity="0.333333" d="M763.0292,-649.9701C715.9598,-621.3415 624.112,-565.4778 572.3416,-533.9899"/>
<polygon fill="#444444" fill-opacity="0.333333" stroke="#444444" stroke-opacity="0.333333" points="574.1381,-530.9861 563.7755,-528.7799 570.5005,-536.9667 574.1381,-530.9861"/>
</g>
<!-- dbus&#45;broker&#45;&gt;dbus&#45;common -->
<g id="edge5" class="edge">
<title>dbus&#45;broker&#45;&gt;dbus&#45;common</title>
<path fill="none" stroke="#444444" stroke-opacity="0.333333" d="M798.1735,-686.1871C805.2406,-709.4406 817.5424,-749.9181 825.8043,-777.1031"/>
<polygon fill="#444444" fill-opacity="0.333333" stroke="#444444" stroke-opacity="0.333333" points="822.497,-778.2574 828.7537,-786.8075 829.1945,-776.2219 822.497,-778.2574"/>
</g>
<!-- dbus&#45;broker&#45;&gt;shadow&#45;utils -->
<g id="edge6" class="edge">
<title>dbus&#45;broker&#45;&gt;shadow&#45;utils</title>
<path fill="none" stroke="#444444" stroke-opacity="0.333333" d="M759.621,-649.9648C692.5484,-613.37 540.4556,-530.3882 466.3634,-489.9634"/>
<polygon fill="#444444" fill-opacity="0.333333" stroke="#444444" stroke-opacity="0.333333" points="467.7522,-486.7342 457.2974,-485.0171 464.3995,-492.8791 467.7522,-486.7342"/>
</g>
<!-- dbus&#45;broker&#45;&gt;systemd -->
<g id="edge7" class="edge">
<title>dbus&#45;broker&#45;&gt;systemd</title>
<path fill="none" stroke="#444444" stroke-opacity="0.333333" d="M768.0045,-649.6677C758.3254,-642.473 747.0776,-634.1121 736.7456,-626.4321"/>
<polygon fill="#444444" fill-opacity="0.333333" stroke="#444444" stroke-opacity="0.333333" points="738.817,-623.6108 728.7034,-620.454 734.641,-629.2287 738.817,-623.6108"/>
</g>
<!-- dbus&#45;common&#45;&gt;Fedora Container Base -->
<g id="edge8" class="edge">
<title>dbus&#45;common&#45;&gt;Fedora Container Base</title>
<path fill="none" stroke="#444444" stroke-opacity="0.333333" d="M815.5562,-786.6921C763.9069,-736.0231 619.5047,-594.3616 560.315,-536.2953"/>
<polygon fill="#444444" fill-opacity="0.333333" stroke="#444444" stroke-opacity="0.333333" points="562.4635,-533.5 552.874,-528.9954 557.5614,-538.4969 562.4635,-533.5"/>
</g>
<!-- dbus&#45;common&#45;&gt;dbus&#45;common -->
<g id="edge9" class="edge">
<title>dbus&#45;common&#45;&gt;dbus&#45;common</title>
<path fill="none" stroke="#444444" stroke-opacity="0.333333" d="M911.8755,-811.1133C922.625,-810.1212 929.81,-808.1134 929.81,-805.09 929.81,-803.1531 926.8613,-801.6331 921.9157,-800.5298"/>
<polygon fill="#444444" fill-opacity="0.333333" stroke="#444444" stroke-opacity="0.333333" points="922.2757,-797.0454 911.8755,-799.0667 921.2662,-803.9723 922.2757,-797.0454"/>
</g>
<!-- dbus&#45;common&#45;&gt;systemd -->
<g id="edge10" class="edge">
<title>dbus&#45;common&#45;&gt;systemd</title>
<path fill="none" stroke="#444444" stroke-opacity="0.333333" d="M822.7636,-787.0884C799.8188,-751.3159 748.3805,-671.1202 721.4248,-629.0946"/>
<polygon fill="#444444" fill-opacity="0.333333" stroke="#444444" stroke-opacity="0.333333" points="724.2526,-627.0205 715.9075,-620.4928 718.3605,-630.7998 724.2526,-627.0205"/>
</g>
<!-- shadow&#45;utils&#45;&gt;Fedora Container Base -->
<g id="edge11" class="edge">
<title>shadow&#45;utils&#45;&gt;Fedora Container Base</title>
<path fill="none" stroke="#444444" stroke-opacity="0.333333" d="M469.3974,-484.9975C473.4798,-486.6266 477.6376,-488.2857 481.7772,-489.9376"/>
<polygon fill="#444444" fill-opacity="0.333333" stroke="#444444" stroke-opacity="0.333333" points="480.7743,-493.3057 491.3593,-493.7612 483.3687,-486.8042 480.7743,-493.3057"/>
</g>
<!-- shadow&#45;utils&#45;&gt;shadow&#45;utils -->
<g id="edge12" class="edge">
<title>shadow&#45;utils&#45;&gt;shadow&#45;utils</title>
<path fill="none" stroke="#444444" stroke-opacity="0.333333" d="M495.0456,-473.0934C505.589,-472.14 512.72,-470.0989 512.72,-466.97 512.72,-465.0144 509.9344,-463.4838 505.2712,-462.378"/>
<polygon fill="#444444" fill-opacity="0.333333" stroke="#444444" stroke-opacity="0.333333" points="505.4538,-458.8664 495.0456,-460.8466 504.4169,-465.7892 505.4538,-458.8664"/>
</g>
<!-- shadow&#45;utils&#45;&gt;libsemanage -->
<g id="edge13" class="edge">
<title>shadow&#45;utils&#45;&gt;libsemanage</title>
<path fill="none" stroke="#444444" stroke-opacity="0.333333" d="M380.0185,-448.9009C329.595,-428.2883 247.1486,-394.5851 193.0584,-372.4736"/>
<polygon fill="#444444" fill-opacity="0.333333" stroke="#444444" stroke-opacity="0.333333" points="194.216,-369.1657 183.6352,-368.6215 191.5672,-375.6452 194.216,-369.1657"/>
</g>
<!-- systemd&#45;&gt;Fedora Container Base -->
<g id="edge14" class="edge">
<title>systemd&#45;&gt;Fedora Container Base</title>
<path fill="none" stroke="#444444" stroke-opacity="0.333333" d="M670.6747,-584.21C643.5694,-569.6326 605.2709,-549.0355 576.1922,-533.3968"/>
<polygon fill="#444444" fill-opacity="0.333333" stroke="#444444" stroke-opacity="0.333333" points="577.5658,-530.1616 567.1008,-528.5075 574.2502,-536.3265 577.5658,-530.1616"/>
</g>
<!-- systemd&#45;&gt;shadow&#45;utils -->
<g id="edge15" class="edge">
<title>systemd&#45;&gt;shadow&#45;utils</title>
<path fill="none" stroke="#444444" stroke-opacity="0.333333" d="M666.7312,-584.1372C616.1628,-559.7056 526.0859,-516.1857 471.0918,-489.6157"/>
<polygon fill="#444444" fill-opacity="0.333333" stroke="#444444" stroke-opacity="0.333333" points="472.4408,-486.3804 461.914,-485.1816 469.3956,-492.6834 472.4408,-486.3804"/>
</g>
<!-- systemd&#45;&gt;systemd -->
<g id="edge16" class="edge">
<title>systemd&#45;&gt;systemd</title>
<path fill="none" stroke="#444444" stroke-opacity="0.333333" d="M765.8667,-608.5413C776.4013,-607.6803 783.7,-605.5798 783.7,-602.24 783.7,-600.1004 780.7046,-598.4695 775.782,-597.3472"/>
<polygon fill="#444444" fill-opacity="0.333333" stroke="#444444" stroke-opacity="0.333333" points="776.2596,-593.88 765.8667,-595.9387 775.2751,-600.8104 776.2596,-593.88"/>
</g>
<!-- systemd&#45;&gt;util&#45;linux -->
<g id="edge17" class="edge">
<title>systemd&#45;&gt;util&#45;linux</title>
<path fill="none" stroke="#444444" stroke-opacity="0.333333" d="M642.2831,-608.2676C566.3046,-615.6642 437.5751,-628.196 356.1857,-636.1193"/>
<polygon fill="#444444" fill-opacity="0.333333" stroke="#444444" stroke-opacity="0.333333" points="355.6241,-632.6574 346.0103,-637.1099 356.3024,-639.6244 355.6241,-632.6574"/>
</g>
<!-- systemd&#45;&gt;iptables&#45;libs -->
<g id="edge18" class="edge">
<title>systemd&#45;&gt;iptables&#45;libs</title>
<path fill="none" stroke="#444444" stroke-opacity="0.333333" d="M684.3146,-584.1255C629.5674,-534.2538 476.5372,-394.8519 413.736,-337.6436"/>
<polygon fill="#444444" fill-opacity="0.333333" stroke="#444444" stroke-opacity="0.333333" points="415.9375,-334.9145 406.1879,-330.7677 411.2235,-340.0893 415.9375,-334.9145"/>
</g>
<!-- systemd&#45;&gt;acl -->
<g id="edge19" class="edge">
<title>systemd&#45;&gt;acl</title>
<path fill="none" stroke="#444444" stroke-opacity="0.333333" d="M704.7899,-584.0023C706.3202,-536.687 710.4265,-409.7256 712.2708,-352.6993"/>
<polygon fill="#444444" fill-opacity="0.333333" stroke="#444444" stroke-opacity="0.333333" points="715.7728,-352.6928 712.598,-342.5849 708.7764,-352.4665 715.7728,-352.6928"/>
</g>
<!-- systemd&#45;&gt;cryptsetup&#45;libs -->
<g id="edge20" class="edge">
<title>systemd&#45;&gt;cryptsetup&#45;libs</title>
<path fill="none" stroke="#444444" stroke-opacity="0.333333" d="M690.6031,-620.3795C652.7056,-670.9385 545.7627,-813.6106 501.2766,-872.9594"/>
<polygon fill="#444444" fill-opacity="0.333333" stroke="#444444" stroke-opacity="0.333333" points="498.3792,-870.9894 495.1819,-881.0903 503.9803,-875.1879 498.3792,-870.9894"/>
</g>
<!-- systemd&#45;&gt;dbus -->
<g id="edge21" class="edge">
<title>systemd&#45;&gt;dbus</title>
<path fill="none" stroke="#444444" stroke-opacity="0.333333" d="M743.6334,-620.248C814.4649,-652.5945 963.0448,-720.4462 1040.4101,-755.7765"/>
<polygon fill="#444444" fill-opacity="0.333333" stroke="#444444" stroke-opacity="0.333333" points="1039.384,-759.1556 1049.9343,-760.1259 1042.2918,-752.7881 1039.384,-759.1556"/>
</g>
<!-- systemd&#45;&gt;kmod&#45;libs -->
<g id="edge22" class="edge">
<title>systemd&#45;&gt;kmod&#45;libs</title>
<path fill="none" stroke="#444444" stroke-opacity="0.333333" d="M712.9107,-584.0281C738.069,-531.4281 810.954,-379.0432 840.987,-316.2516"/>
<polygon fill="#444444" fill-opacity="0.333333" stroke="#444444" stroke-opacity="0.333333" points="844.2679,-317.5036 845.4253,-306.9722 837.953,-314.4832 844.2679,-317.5036"/>
</g>
<!-- systemd&#45;&gt;libseccomp -->
<g id="edge23" class="edge">
<title>systemd&#45;&gt;libseccomp</title>
<path fill="none" stroke="#444444" stroke-opacity="0.333333" d="M725.6771,-584.1057C760.4503,-554.745 829.1399,-496.7468 868.472,-463.5367"/>
<polygon fill="#444444" fill-opacity="0.333333" stroke="#444444" stroke-opacity="0.333333" points="871.014,-465.9711 876.3967,-456.8455 866.498,-460.6227 871.014,-465.9711"/>
</g>
<!-- systemd&#45;&gt;qrencode&#45;libs -->
<g id="edge24" class="edge">
<title>systemd&#45;&gt;qrencode&#45;libs</title>
<path fill="none" stroke="#444444" stroke-opacity="0.333333" d="M704.0297,-620.2414C703.5509,-670.8329 702.1906,-814.5904 701.609,-876.0487"/>
<polygon fill="#444444" fill-opacity="0.333333" stroke="#444444" stroke-opacity="0.333333" points="698.1079,-876.1581 701.5131,-886.1908 705.1076,-876.2244 698.1079,-876.1581"/>
</g>
<!-- systemd&#45;&gt;systemd&#45;pam -->
<g id="edge25" class="edge">
<title>systemd&#45;&gt;systemd&#45;pam</title>
<path fill="none" stroke="#444444" stroke-opacity="0.333333" d="M681.4339,-620.4612C650.6982,-650.4168 596.8863,-709.8855 569.1853,-744.4412"/>
<polygon fill="#444444" fill-opacity="0.333333" stroke="#444444" stroke-opacity="0.333333" points="566.1576,-742.6298 562.7351,-752.6566 571.6634,-746.9525 566.1576,-742.6298"/>
</g>
<!-- systemd&#45;&gt;systemd&#45;rpm&#45;macros -->
<g id="edge26" class="edge">
<title>systemd&#45;&gt;systemd&#45;rpm&#45;macros</title>
<path fill="none" stroke="#444444" stroke-opacity="0.333333" d="M718.6948,-620.4066C770.7841,-685.6907 948.6664,-908.633 1010.3954,-985.9986"/>
<polygon fill="#444444" fill-opacity="0.333333" stroke="#444444" stroke-opacity="0.333333" points="1008.0282,-988.6437 1017.001,-994.2775 1013.4999,-984.2778 1008.0282,-988.6437"/>
</g>
<!-- systemd&#45;&gt;diffutils -->
<g id="edge27" class="edge">
<title>systemd&#45;&gt;diffutils</title>
<path fill="none" stroke="#444444" stroke-dasharray="5,2" stroke-opacity="0.333333" d="M765.7776,-599.8427C803.0548,-598.3914 850.616,-596.5397 888.8451,-595.0514"/>
<polygon fill="#444444" fill-opacity="0.333333" stroke="#444444" stroke-opacity="0.333333" points="888.9999,-598.5481 898.8561,-594.6616 888.7275,-591.5534 888.9999,-598.5481"/>
</g>
<!-- systemd&#45;&gt;libxkbcommon -->
<g id="edge28" class="edge">
<title>systemd&#45;&gt;libxkbcommon</title>
<path fill="none" stroke="#444444" stroke-dasharray="5,2" stroke-opacity="0.333333" d="M733.4157,-584.2189C799.648,-543.3649 961.1647,-443.7366 1034.8438,-398.2891"/>
<polygon fill="#444444" fill-opacity="0.333333" stroke="#444444" stroke-opacity="0.333333" points="1036.7077,-401.2518 1043.3813,-393.0229 1033.0327,-395.294 1036.7077,-401.2518"/>
</g>
<!-- libsemanage&#45;&gt;Fedora Container Base -->
<g id="edge43" class="edge">
<title>libsemanage&#45;&gt;Fedora Container Base</title>
<path fill="none" stroke="#444444" stroke-opacity="0.333333" d="M183.894,-368.606C257.5495,-398.5152 404.3027,-458.107 482.5518,-489.8814"/>
<polygon fill="#444444" fill-opacity="0.333333" stroke="#444444" stroke-opacity="0.333333" points="481.6228,-493.2817 492.2049,-493.8013 484.2565,-486.796 481.6228,-493.2817"/>
</g>
<!-- libsemanage&#45;&gt;libsemanage -->
<g id="edge44" class="edge">
<title>libsemanage&#45;&gt;libsemanage</title>
<path fill="none" stroke="#444444" stroke-opacity="0.333333" d="M214.9025,-356.5674C225.6309,-355.5877 232.83,-353.5686 232.83,-350.51 232.83,-348.5506 229.8755,-347.0178 224.9313,-345.9115"/>
<polygon fill="#444444" fill-opacity="0.333333" stroke="#444444" stroke-opacity="0.333333" points="225.3023,-342.4287 214.9025,-344.4526 224.2945,-349.3558 225.3023,-342.4287"/>
</g>
<!-- util&#45;linux&#45;&gt;Fedora Container Base -->
<g id="edge29" class="edge">
<title>util&#45;linux&#45;&gt;Fedora Container Base</title>
<path fill="none" stroke="#444444" stroke-opacity="0.333333" d="M316.1495,-625.2566C361.9212,-601.3024 442.5009,-559.1319 491.932,-533.2627"/>
<polygon fill="#444444" fill-opacity="0.333333" stroke="#444444" stroke-opacity="0.333333" points="493.8464,-536.2112 501.0836,-528.4734 490.6006,-530.0092 493.8464,-536.2112"/>
</g>
<!-- util&#45;linux&#45;&gt;util&#45;linux -->
<g id="edge30" class="edge">
<title>util&#45;linux&#45;&gt;util&#45;linux</title>
<path fill="none" stroke="#444444" stroke-opacity="0.333333" d="M346.1797,-649.6353C356.7415,-648.7413 364,-646.6595 364,-643.39 364,-641.2955 361.0211,-639.6884 356.1032,-638.5687"/>
<polygon fill="#444444" fill-opacity="0.333333" stroke="#444444" stroke-opacity="0.333333" points="356.5755,-635.1007 346.1797,-637.1447 355.5811,-642.0298 356.5755,-635.1007"/>
</g>
<!-- util&#45;linux&#45;&gt;libfdisk -->
<g id="edge31" class="edge">
<title>util&#45;linux&#45;&gt;libfdisk</title>
<path fill="none" stroke="#444444" stroke-opacity="0.333333" d="M216.8376,-653.7301C189.657,-658.0766 157.9686,-663.1439 130.2186,-667.5814"/>
<polygon fill="#444444" fill-opacity="0.333333" stroke="#444444" stroke-opacity="0.333333" points="129.5106,-664.15 120.1887,-669.1852 130.616,-671.0622 129.5106,-664.15"/>
</g>
<!-- util&#45;linux&#45;&gt;libutempter -->
<g id="edge32" class="edge">
<title>util&#45;linux&#45;&gt;libutempter</title>
<path fill="none" stroke="#444444" stroke-opacity="0.333333" d="M262.9366,-625.3525C239.4431,-602.5245 198.833,-563.0649 172.1794,-537.1664"/>
<polygon fill="#444444" fill-opacity="0.333333" stroke="#444444" stroke-opacity="0.333333" points="174.3352,-534.381 164.7242,-529.9224 169.4571,-539.4013 174.3352,-534.381"/>
</g>
<!-- iptables&#45;libs&#45;&gt;Fedora Container Base -->
<g id="edge37" class="edge">
<title>iptables&#45;libs&#45;&gt;Fedora Container Base</title>
<path fill="none" stroke="#444444" stroke-opacity="0.333333" d="M399.9867,-330.962C426.4114,-366.3234 484.5571,-444.1334 515.0213,-484.9003"/>
<polygon fill="#444444" fill-opacity="0.333333" stroke="#444444" stroke-opacity="0.333333" points="512.2907,-487.0933 521.0804,-493.0087 517.898,-482.9031 512.2907,-487.0933"/>
</g>
<!-- iptables&#45;libs&#45;&gt;iptables&#45;libs -->
<g id="edge38" class="edge">
<title>iptables&#45;libs&#45;&gt;iptables&#45;libs</title>
<path fill="none" stroke="#444444" stroke-opacity="0.333333" d="M459.9026,-318.7508C470.602,-317.784 477.81,-315.7538 477.81,-312.66 477.81,-310.6781 474.8518,-309.1326 469.9126,-308.0236"/>
<polygon fill="#444444" fill-opacity="0.333333" stroke="#444444" stroke-opacity="0.333333" points="470.302,-304.5434 459.9026,-306.5692 469.2954,-311.4707 470.302,-304.5434"/>
</g>
<!-- iptables&#45;libs&#45;&gt;libpcap -->
<g id="edge39" class="edge">
<title>iptables&#45;libs&#45;&gt;libpcap</title>
<path fill="none" stroke="#444444" stroke-opacity="0.333333" d="M360.5348,-294.4803C325.406,-269.7035 262.4091,-225.2708 223.3584,-197.7277"/>
<polygon fill="#444444" fill-opacity="0.333333" stroke="#444444" stroke-opacity="0.333333" points="225.1208,-194.6878 214.9316,-191.7841 221.0861,-200.4081 225.1208,-194.6878"/>
</g>
<!-- acl&#45;&gt;Fedora Container Base -->
<g id="edge55" class="edge">
<title>acl&#45;&gt;Fedora Container Base</title>
<path fill="none" stroke="#444444" stroke-opacity="0.333333" d="M695.7321,-342.5215C663.759,-375.9297 595.7281,-447.0142 559.0925,-485.2941"/>
<polygon fill="#444444" fill-opacity="0.333333" stroke="#444444" stroke-opacity="0.333333" points="556.1613,-483.2948 551.7757,-492.9393 561.2185,-488.1347 556.1613,-483.2948"/>
</g>
<!-- cryptsetup&#45;libs&#45;&gt;Fedora Container Base -->
<g id="edge56" class="edge">
<title>cryptsetup&#45;libs&#45;&gt;Fedora Container Base</title>
<path fill="none" stroke="#444444" stroke-opacity="0.333333" d="M483.9666,-881.1581C492.4566,-818.9779 520.3403,-614.7584 530.641,-539.3166"/>
<polygon fill="#444444" fill-opacity="0.333333" stroke="#444444" stroke-opacity="0.333333" points="534.1437,-539.5341 532.0288,-529.1525 527.208,-538.5871 534.1437,-539.5341"/>
</g>
<!-- cryptsetup&#45;libs&#45;&gt;device&#45;mapper&#45;libs -->
<g id="edge57" class="edge">
<title>cryptsetup&#45;libs&#45;&gt;device&#45;mapper&#45;libs</title>
<path fill="none" stroke="#444444" stroke-opacity="0.333333" d="M404.4062,-904.0538C391.8236,-904.8184 378.5967,-905.6222 365.4623,-906.4204"/>
<polygon fill="#444444" fill-opacity="0.333333" stroke="#444444" stroke-opacity="0.333333" points="365.2177,-902.9287 355.4484,-907.0289 365.6424,-909.9158 365.2177,-902.9287"/>
</g>
<!-- cryptsetup&#45;libs&#45;&gt;libargon2 -->
<g id="edge58" class="edge">
<title>cryptsetup&#45;libs&#45;&gt;libargon2</title>
<path fill="none" stroke="#444444" stroke-opacity="0.333333" d="M477.2619,-917.5827C471.3559,-943.083 460.5679,-989.663 453.6169,-1019.6753"/>
<polygon fill="#444444" fill-opacity="0.333333" stroke="#444444" stroke-opacity="0.333333" points="450.1793,-1019.0065 451.3326,-1029.5383 456.9987,-1020.5859 450.1793,-1019.0065"/>
</g>
<!-- dbus&#45;&gt;dbus&#45;broker -->
<g id="edge59" class="edge">
<title>dbus&#45;&gt;dbus&#45;broker</title>
<path fill="none" stroke="#444444" stroke-opacity="0.333333" d="M1047.0529,-762.4424C995.5831,-743.3319 908.6775,-711.0642 850.9829,-689.6425"/>
<polygon fill="#444444" fill-opacity="0.333333" stroke="#444444" stroke-opacity="0.333333" points="851.8686,-686.2379 841.2756,-686.0382 849.432,-692.8002 851.8686,-686.2379"/>
</g>
<!-- kmod&#45;libs&#45;&gt;Fedora Container Base -->
<g id="edge60" class="edge">
<title>kmod&#45;libs&#45;&gt;Fedora Container Base</title>
<path fill="none" stroke="#444444" stroke-opacity="0.333333" d="M828.2725,-306.711C770.924,-346.5885 633.1743,-442.3734 568.777,-487.1523"/>
<polygon fill="#444444" fill-opacity="0.333333" stroke="#444444" stroke-opacity="0.333333" points="566.4052,-484.5385 560.1931,-493.1211 570.4015,-490.2857 566.4052,-484.5385"/>
</g>
<!-- libseccomp&#45;&gt;Fedora Container Base -->
<g id="edge61" class="edge">
<title>libseccomp&#45;&gt;Fedora Container Base</title>
<path fill="none" stroke="#444444" stroke-opacity="0.333333" d="M826.162,-452.924C766.8565,-464.7293 682.5338,-481.5145 619.7987,-494.0025"/>
<polygon fill="#444444" fill-opacity="0.333333" stroke="#444444" stroke-opacity="0.333333" points="619.0468,-490.5834 609.9226,-495.9684 620.4135,-497.4487 619.0468,-490.5834"/>
</g>
<!-- qrencode&#45;libs&#45;&gt;Fedora Container Base -->
<g id="edge62" class="edge">
<title>qrencode&#45;libs&#45;&gt;Fedora Container Base</title>
<path fill="none" stroke="#444444" stroke-opacity="0.333333" d="M693.628,-886.2899C666.8885,-823.2196 578.05,-613.6773 546.0902,-538.2941"/>
<polygon fill="#444444" fill-opacity="0.333333" stroke="#444444" stroke-opacity="0.333333" points="549.2659,-536.8178 542.1402,-528.9772 542.8212,-539.5501 549.2659,-536.8178"/>
</g>
<!-- systemd&#45;pam&#45;&gt;Fedora Container Base -->
<g id="edge63" class="edge">
<title>systemd&#45;pam&#45;&gt;Fedora Container Base</title>
<path fill="none" stroke="#444444" stroke-opacity="0.333333" d="M550.6028,-752.5764C547.6294,-707.9374 539.9789,-593.0837 536.4039,-539.4121"/>
<polygon fill="#444444" fill-opacity="0.333333" stroke="#444444" stroke-opacity="0.333333" points="539.8828,-538.9786 535.7259,-529.2334 532.8983,-539.4439 539.8828,-538.9786"/>
</g>
<!-- systemd&#45;pam&#45;&gt;systemd -->
<g id="edge64" class="edge">
<title>systemd&#45;pam&#45;&gt;systemd</title>
<path fill="none" stroke="#444444" stroke-opacity="0.333333" d="M574.5861,-752.6288C605.3218,-722.6732 659.1337,-663.2045 686.8347,-628.6488"/>
<polygon fill="#444444" fill-opacity="0.333333" stroke="#444444" stroke-opacity="0.333333" points="689.8624,-630.4602 693.2849,-620.4334 684.3566,-626.1375 689.8624,-630.4602"/>
</g>
<!-- diffutils&#45;&gt;Fedora Container Base -->
<g id="edge68" class="edge">
<title>diffutils&#45;&gt;Fedora Container Base</title>
<path fill="none" stroke="#444444" stroke-opacity="0.333333" d="M898.6482,-581.3692C827.2854,-567.5745 704.637,-543.8661 621.6057,-527.8159"/>
<polygon fill="#444444" fill-opacity="0.333333" stroke="#444444" stroke-opacity="0.333333" points="622.1649,-524.3593 611.6824,-525.8977 620.8364,-531.2321 622.1649,-524.3593"/>
</g>
<!-- libxkbcommon&#45;&gt;Fedora Container Base -->
<g id="edge69" class="edge">
<title>libxkbcommon&#45;&gt;Fedora Container Base</title>
<path fill="none" stroke="#444444" stroke-opacity="0.333333" d="M1001.1458,-393.0571C898.6754,-418.9523 710.9792,-466.3847 607.6068,-492.5078"/>
<polygon fill="#444444" fill-opacity="0.333333" stroke="#444444" stroke-opacity="0.333333" points="606.7096,-489.1244 597.8719,-494.9679 608.4247,-495.9111 606.7096,-489.1244"/>
</g>
<!-- libxkbcommon&#45;&gt;xkeyboard&#45;config -->
<g id="edge70" class="edge">
<title>libxkbcommon&#45;&gt;xkeyboard&#45;config</title>
<path fill="none" stroke="#444444" stroke-opacity="0.333333" d="M1120.4159,-356.9234C1198.2523,-327.4978 1352.0433,-269.3579 1435.6384,-237.7553"/>
<polygon fill="#444444" fill-opacity="0.333333" stroke="#444444" stroke-opacity="0.333333" points="1437.1125,-240.9398 1445.2288,-234.1297 1434.6372,-234.3921 1437.1125,-240.9398"/>
</g>
<!-- libfdisk&#45;&gt;Fedora Container Base -->
<g id="edge65" class="edge">
<title>libfdisk&#45;&gt;Fedora Container Base</title>
<path fill="none" stroke="#444444" stroke-opacity="0.333333" d="M111.2317,-660.6898C200.457,-629.1316 383.7487,-564.3029 477.1142,-531.2804"/>
<polygon fill="#444444" fill-opacity="0.333333" stroke="#444444" stroke-opacity="0.333333" points="478.42,-534.5311 486.6806,-527.8968 476.0858,-527.9317 478.42,-534.5311"/>
</g>
<!-- libutempter&#45;&gt;Fedora Container Base -->
<g id="edge66" class="edge">
<title>libutempter&#45;&gt;Fedora Container Base</title>
<path fill="none" stroke="#444444" stroke-opacity="0.333333" d="M214.0766,-511.5573C262.016,-511.4709 328.0099,-511.352 387.6528,-511.2446"/>
<polygon fill="#444444" fill-opacity="0.333333" stroke="#444444" stroke-opacity="0.333333" points="387.9419,-514.7441 397.9356,-511.226 387.9292,-507.7442 387.9419,-514.7441"/>
</g>
<!-- libutempter&#45;&gt;shadow&#45;utils -->
<g id="edge67" class="edge">
<title>libutempter&#45;&gt;shadow&#45;utils</title>
<path fill="none" stroke="#444444" stroke-opacity="0.333333" d="M214.0225,-500.7427C253.1162,-494.4615 302.4414,-486.5363 343.4839,-479.942"/>
<polygon fill="#444444" fill-opacity="0.333333" stroke="#444444" stroke-opacity="0.333333" points="344.1386,-483.3818 353.4567,-478.3396 343.0281,-476.4704 344.1386,-483.3818"/>
</g>
<!-- libpcap&#45;&gt;Fedora Container Base -->
<g id="edge40" class="edge">
<title>libpcap&#45;&gt;Fedora Container Base</title>
<path fill="none" stroke="#444444" stroke-opacity="0.333333" d="M207.7181,-191.739C265.4586,-248.1454 441.9719,-420.5801 508.6441,-485.7118"/>
<polygon fill="#444444" fill-opacity="0.333333" stroke="#444444" stroke-opacity="0.333333" points="506.2511,-488.267 515.8501,-492.7513 511.1427,-483.2597 506.2511,-488.267"/>
</g>
<!-- libicu&#45;&gt;Fedora Container Base -->
<g id="edge41" class="edge">
<title>libicu&#45;&gt;Fedora Container Base</title>
<path fill="none" stroke="#444444" stroke-opacity="0.333333" d="M688.8016,-70.2518C664.0091,-141.0708 574.1716,-397.688 544.268,-483.1067"/>
<polygon fill="#444444" fill-opacity="0.333333" stroke="#444444" stroke-opacity="0.333333" points="540.9275,-482.0562 540.9267,-492.651 547.5344,-484.3691 540.9275,-482.0562"/>
</g>
<!-- libicu&#45;&gt;libicu -->
<g id="edge42" class="edge">
<title>libicu&#45;&gt;libicu</title>
<path fill="none" stroke="#444444" stroke-opacity="0.333333" d="M750.2733,-58.402C760.7741,-57.633 768.2,-55.4906 768.2,-51.975 768.2,-49.7228 765.1524,-48.0342 760.2011,-46.9092"/>
<polygon fill="#444444" fill-opacity="0.333333" stroke="#444444" stroke-opacity="0.333333" points="760.6561,-43.4389 750.2733,-45.548 759.7051,-50.374 760.6561,-43.4389"/>
</g>
<!-- libpq&#45;&gt;Fedora Container Base -->
<g id="edge45" class="edge">
<title>libpq&#45;&gt;Fedora Container Base</title>
<path fill="none" stroke="#444444" stroke-opacity="0.333333" d="M514.7447,-36.1301C517.8401,-110.4954 529.5773,-392.4754 533.341,-482.8955"/>
<polygon fill="#444444" fill-opacity="0.333333" stroke="#444444" stroke-opacity="0.333333" points="529.8464,-483.1001 533.7593,-492.9459 536.8403,-482.8089 529.8464,-483.1001"/>
</g>
<!-- postgresql&#45;&gt;Fedora Container Base -->
<g id="edge46" class="edge">
<title>postgresql&#45;&gt;Fedora Container Base</title>
<path fill="none" stroke="#444444" stroke-opacity="0.333333" d="M387.2079,-77.4353C411.008,-147.4847 496.5238,-399.1777 525.1205,-483.3444"/>
<polygon fill="#444444" fill-opacity="0.333333" stroke="#444444" stroke-opacity="0.333333" points="521.862,-484.6339 528.393,-492.9763 528.4899,-482.382 521.862,-484.6339"/>
</g>
<!-- postgresql&#45;&gt;libpq -->
<g id="edge47" class="edge">
<title>postgresql&#45;&gt;libpq</title>
<path fill="none" stroke="#444444" stroke-opacity="0.333333" d="M439.3314,-41.1089C443.039,-39.9613 446.781,-38.803 450.5103,-37.6487"/>
<polygon fill="#444444" fill-opacity="0.333333" stroke="#444444" stroke-opacity="0.333333" points="451.8022,-40.9127 460.3201,-34.6123 449.7323,-34.2257 451.8022,-40.9127"/>
</g>
<!-- postgresql&#45;server&#45;&gt;Fedora Container Base -->
<g id="edge48" class="edge">
<title>postgresql&#45;server&#45;&gt;Fedora Container Base</title>
<path fill="none" stroke="#444444" stroke-opacity="0.333333" d="M551.5813,-243.6987C548.4862,-292.1572 540.0599,-424.0867 536.3291,-482.4981"/>
<polygon fill="#444444" fill-opacity="0.333333" stroke="#444444" stroke-opacity="0.333333" points="532.8136,-482.6309 535.669,-492.8337 539.7994,-483.0771 532.8136,-482.6309"/>
</g>
<!-- postgresql&#45;server&#45;&gt;shadow&#45;utils -->
<g id="edge49" class="edge">
<title>postgresql&#45;server&#45;&gt;shadow&#45;utils</title>
<path fill="none" stroke="#444444" stroke-opacity="0.333333" d="M543.0894,-243.557C520.6572,-285.7178 464.9477,-390.423 438.5411,-440.0537"/>
<polygon fill="#444444" fill-opacity="0.333333" stroke="#444444" stroke-opacity="0.333333" points="435.4247,-438.4596 433.8174,-448.9318 441.6045,-441.7476 435.4247,-438.4596"/>
</g>
<!-- postgresql&#45;server&#45;&gt;systemd -->
<g id="edge50" class="edge">
<title>postgresql&#45;server&#45;&gt;systemd</title>
<path fill="none" stroke="#444444" stroke-opacity="0.333333" d="M560.0547,-243.5758C584.4902,-304.3765 663.4923,-500.9506 692.9711,-574.3"/>
<polygon fill="#444444" fill-opacity="0.333333" stroke="#444444" stroke-opacity="0.333333" points="689.8145,-575.8316 696.7911,-583.8051 696.3095,-573.2212 689.8145,-575.8316"/>
</g>
<!-- postgresql&#45;server&#45;&gt;libicu -->
<g id="edge51" class="edge">
<title>postgresql&#45;server&#45;&gt;libicu</title>
<path fill="none" stroke="#444444" stroke-opacity="0.333333" d="M567.7254,-207.1683C593.0536,-176.3326 644.437,-113.7762 673.6404,-78.2226"/>
<polygon fill="#444444" fill-opacity="0.333333" stroke="#444444" stroke-opacity="0.333333" points="676.5688,-80.1716 680.2115,-70.2227 671.1596,-75.7286 676.5688,-80.1716"/>
</g>
<!-- postgresql&#45;server&#45;&gt;libpq -->
<g id="edge52" class="edge">
<title>postgresql&#45;server&#45;&gt;libpq</title>
<path fill="none" stroke="#444444" stroke-opacity="0.333333" d="M549.3781,-207.3574C542.6061,-171.1211 527.3103,-89.2755 519.2256,-46.0152"/>
<polygon fill="#444444" fill-opacity="0.333333" stroke="#444444" stroke-opacity="0.333333" points="522.6593,-45.3354 517.3817,-36.1485 515.7784,-46.6214 522.6593,-45.3354"/>
</g>
<!-- postgresql&#45;server&#45;&gt;postgresql -->
<g id="edge53" class="edge">
<title>postgresql&#45;server&#45;&gt;postgresql</title>
<path fill="none" stroke="#444444" stroke-opacity="0.333333" d="M534.0428,-207.2934C503.3281,-177.5648 442.1357,-118.3369 407.1483,-84.4728"/>
<polygon fill="#444444" fill-opacity="0.333333" stroke="#444444" stroke-opacity="0.333333" points="409.3038,-81.6882 399.6841,-77.2483 404.4355,-86.718 409.3038,-81.6882"/>
</g>
<!-- postgresql&#45;server&#45;&gt;postgresql&#45;server -->
<g id="edge54" class="edge">
<title>postgresql&#45;server&#45;&gt;postgresql&#45;server</title>
<path fill="none" stroke="#444444" stroke-opacity="0.333333" d="M696.7734,-230.4888C707.8941,-229.3638 714.75,-227.6676 714.75,-225.4 714.75,-223.9473 711.9363,-222.7291 706.9902,-221.7454"/>
<polygon fill="#444444" fill-opacity="0.333333" stroke="#444444" stroke-opacity="0.333333" points="707.1629,-218.2354 696.7734,-220.3112 706.1897,-225.1674 707.1629,-218.2354"/>
</g>
<!-- Fedora Container Base -->
<g id="node1" class="node">
<title>Fedora Container Base</title>
<ellipse fill="none" stroke="#000000" cx="534.51" cy="-510.98" rx="136.5" ry="18"/>
<text text-anchor="middle" x="534.51" y="-507.28" font-family="Helvetica,sans-Serif" font-weight="bold" font-size="14.00" fill="#000000">Fedora Container Base (199.2 MB)</text>
</g>
<!-- device&#45;mapper&#45;libs -->
<g id="node2" class="node">
<title>device&#45;mapper&#45;libs</title>
<text text-anchor="middle" x="259.33" y="-909.17" font-family="Helvetica,sans-Serif" font-weight="bold" font-size="14.00" fill="#000000">device&#45;mapper&#45;libs (417.5 kB)</text>
</g>
<!-- device&#45;mapper -->
<g id="node3" class="node">
<title>device&#45;mapper</title>
<text text-anchor="middle" x="371.76" y="-762.14" font-family="Helvetica,sans-Serif" font-weight="bold" font-size="14.00" fill="#000000">device&#45;mapper (350.3 kB)</text>
</g>
<!-- libargon2 -->
<g id="node4" class="node">
<title>libargon2</title>
<text text-anchor="middle" x="447.08" y="-1044.2" font-family="Helvetica,sans-Serif" font-weight="bold" font-size="14.00" fill="#000000">libargon2 (54.9 kB)</text>
</g>
<!-- dbus&#45;broker -->
<g id="node5" class="node">
<title>dbus&#45;broker</title>
<text text-anchor="middle" x="792.64" y="-664.28" font-family="Helvetica,sans-Serif" font-weight="bold" font-size="14.00" fill="#000000">dbus&#45;broker (423.2 kB)</text>
</g>
<!-- dbus&#45;common -->
<g id="node6" class="node">
<title>dbus&#45;common</title>
<text text-anchor="middle" x="834.31" y="-801.39" font-family="Helvetica,sans-Serif" font-weight="bold" font-size="14.00" fill="#000000">dbus&#45;common (11.2 kB)</text>
</g>
<!-- shadow&#45;utils -->
<g id="node7" class="node">
<title>shadow&#45;utils</title>
<text text-anchor="middle" x="424.22" y="-463.27" font-family="Helvetica,sans-Serif" font-weight="bold" font-size="14.00" fill="#000000">shadow&#45;utils (4.0 MB)</text>
</g>
<!-- systemd -->
<g id="node8" class="node">
<title>systemd</title>
<text text-anchor="middle" x="704.2" y="-598.54" font-family="Helvetica,sans-Serif" font-weight="bold" font-size="14.00" fill="#000000">systemd (12.3 MB)</text>
</g>
<!-- libsemanage -->
<g id="node9" class="node">
<title>libsemanage</title>
<text text-anchor="middle" x="139.33" y="-346.81" font-family="Helvetica,sans-Serif" font-weight="bold" font-size="14.00" fill="#000000">libsemanage (313.1 kB)</text>
</g>
<!-- util&#45;linux -->
<g id="node10" class="node">
<title>util&#45;linux</title>
<text text-anchor="middle" x="281.5" y="-639.69" font-family="Helvetica,sans-Serif" font-weight="bold" font-size="14.00" fill="#000000">util&#45;linux (12.8 MB)</text>
</g>
<!-- iptables&#45;libs -->
<g id="node11" class="node">
<title>iptables&#45;libs</title>
<text text-anchor="middle" x="386.31" y="-308.96" font-family="Helvetica,sans-Serif" font-weight="bold" font-size="14.00" fill="#000000">iptables&#45;libs (156.4 kB)</text>
</g>
<!-- acl -->
<g id="node12" class="node">
<title>acl</title>
<text text-anchor="middle" x="713.19" y="-320.58" font-family="Helvetica,sans-Serif" font-weight="bold" font-size="14.00" fill="#000000">acl (212.0 kB)</text>
</g>
<!-- cryptsetup&#45;libs -->
<g id="node13" class="node">
<title>cryptsetup&#45;libs</title>
<text text-anchor="middle" x="481.48" y="-895.67" font-family="Helvetica,sans-Serif" font-weight="bold" font-size="14.00" fill="#000000">cryptsetup&#45;libs (1.8 MB)</text>
</g>
<!-- dbus -->
<g id="node14" class="node">
<title>dbus</title>
<text text-anchor="middle" x="1089.6" y="-774.54" font-family="Helvetica,sans-Serif" font-weight="bold" font-size="14.00" fill="#000000">dbus (0.0 B)</text>
</g>
<!-- kmod&#45;libs -->
<g id="node15" class="node">
<title>kmod&#45;libs</title>
<text text-anchor="middle" x="854.16" y="-285.01" font-family="Helvetica,sans-Serif" font-weight="bold" font-size="14.00" fill="#000000">kmod&#45;libs (197.4 kB)</text>
</g>
<!-- libseccomp -->
<g id="node16" class="node">
<title>libseccomp</title>
<text text-anchor="middle" x="897.97" y="-434.93" font-family="Helvetica,sans-Serif" font-weight="bold" font-size="14.00" fill="#000000">libseccomp (347.0 kB)</text>
</g>
<!-- qrencode&#45;libs -->
<g id="node17" class="node">
<title>qrencode&#45;libs</title>
<text text-anchor="middle" x="701.34" y="-900.78" font-family="Helvetica,sans-Serif" font-weight="bold" font-size="14.00" fill="#000000">qrencode&#45;libs (159.3 kB)</text>
</g>
<!-- systemd&#45;pam -->
<g id="node18" class="node">
<title>systemd&#45;pam</title>
<text text-anchor="middle" x="551.82" y="-767.15" font-family="Helvetica,sans-Serif" font-weight="bold" font-size="14.00" fill="#000000">systemd&#45;pam (335.7 kB)</text>
</g>
<!-- systemd&#45;rpm&#45;macros -->
<g id="node19" class="node">
<title>systemd&#45;rpm&#45;macros</title>
<text text-anchor="middle" x="1031.7" y="-1009" font-family="Helvetica,sans-Serif" font-weight="bold" font-size="14.00" fill="#000000">systemd&#45;rpm&#45;macros (4.9 kB)</text>
</g>
<!-- diffutils -->
<g id="node20" class="node">
<title>diffutils</title>
<text text-anchor="middle" x="955.92" y="-588.74" font-family="Helvetica,sans-Serif" font-weight="bold" font-size="14.00" fill="#000000">diffutils (1.5 MB)</text>
</g>
<!-- libxkbcommon -->
<g id="node21" class="node">
<title>libxkbcommon</title>
<text text-anchor="middle" x="1072.6" y="-371.3" font-family="Helvetica,sans-Serif" font-weight="bold" font-size="14.00" fill="#000000">libxkbcommon (280.4 kB)</text>
</g>
<!-- libfdisk -->
<g id="node22" class="node">
<title>libfdisk</title>
<text text-anchor="middle" x="60" y="-675.11" font-family="Helvetica,sans-Serif" font-weight="bold" font-size="14.00" fill="#000000">libfdisk (495.9 kB)</text>
</g>
<!-- libutempter -->
<g id="node23" class="node">
<title>libutempter</title>
<text text-anchor="middle" x="145.95" y="-507.98" font-family="Helvetica,sans-Serif" font-weight="bold" font-size="14.00" fill="#000000">libutempter (58.2 kB)</text>
</g>
<!-- libpcap -->
<g id="node24" class="node">
<title>libpcap</title>
<text text-anchor="middle" x="189.15" y="-169.9" font-family="Helvetica,sans-Serif" font-weight="bold" font-size="14.00" fill="#000000">libpcap (378.8 kB)</text>
</g>
<!-- libicu -->
<g id="node25" class="node">
<title>libicu</title>
<text text-anchor="middle" x="695.2" y="-48.275" font-family="Helvetica,sans-Serif" font-weight="bold" font-size="14.00" fill="#000000">libicu (31.5 MB)</text>
</g>
<!-- xkeyboard&#45;config -->
<g id="node26" class="node">
<title>xkeyboard&#45;config</title>
<text text-anchor="middle" x="1493" y="-212.37" font-family="Helvetica,sans-Serif" font-weight="bold" font-size="14.00" fill="#000000">xkeyboard&#45;config (5.4 MB)</text>
</g>
<!-- libpq -->
<g id="node27" class="node">
<title>libpq</title>
<text text-anchor="middle" x="513.99" y="-14.3" font-family="Helvetica,sans-Serif" font-weight="bold" font-size="14.00" fill="#000000">libpq (778.5 kB)</text>
</g>
<!-- postgresql -->
<g id="node28" class="node">
<title>postgresql</title>
<text text-anchor="middle" x="381" y="-55.464" font-family="Helvetica,sans-Serif" font-weight="bold" font-size="14.00" fill="#000000">postgresql (6.3 MB)</text>
</g>
<!-- postgresql&#45;server -->
<g id="node29" class="node">
<title>postgresql&#45;server</title>
<text text-anchor="middle" x="552.75" y="-219.8" font-family="Helvetica,sans-Serif" font-weight="bold" font-size="22.00" fill="#cc0066">postgresql&#45;server (23.8 MB)</text>
</g>
</g>

<script type="text/javascript"><![CDATA[

document.addEventListener('click', function(e) {
      e = e || window.event;
      var target = e.target || e.srcElement;
      text = target.parentElement.querySelector("title").textContent;

      console.log("Clicked on: " + text);
      // reset all strokes
      var nodes = document.getElementsByClassName("edge");

      for (index = 0, len = nodes.length; index < len; ++index) {
          //var title = nodes[index].querySelector("title").textContent.split("->");
          id = nodes[index].id;
          document.getElementById(id).querySelector("path").setAttribute("stroke-width", "1");
          document.getElementById(id).querySelector("path").setAttribute("stroke-opacity", "0.5");
          document.getElementById(id).querySelector("path").setAttribute("stroke", "#444444");
          document.getElementById(id).querySelector("polygon").setAttribute("stroke-width", "1");
          document.getElementById(id).querySelector("polygon").setAttribute("stroke-opacity", "0.5");
          document.getElementById(id).querySelector("polygon").setAttribute("stroke", "#444444");
      }
      // reset text highlight
      pkgs = document.getElementsByClassName("node");
      for (index2 = 0, len2 = pkgs.length; index2 < len2; ++index2) {
          target_id = pkgs[index2].id;
          document.getElementById(target_id).querySelector("text").setAttribute("font-weight", "normal");
      }

      // highlight deps
      var nodes = document.getElementsByClassName("edge");
      for (index = 0, len = nodes.length; index < len; ++index) {
        var title = nodes[index].querySelector("title").textContent.split("->");

        if (title[0] == text) {
          id = nodes[index].id;
          //console.log("ID:   " + id);
          document.getElementById(id).querySelector("path").setAttribute("stroke-width", "3");
          document.getElementById(id).querySelector("path").setAttribute("stroke-opacity", "1");
          document.getElementById(id).querySelector("path").setAttribute("stroke", "#aa3333");
          document.getElementById(id).querySelector("polygon").setAttribute("stroke-width", "5");
          document.getElementById(id).querySelector("polygon").setAttribute("stroke-opacity", "1");
          document.getElementById(id).querySelector("polygon").setAttribute("stroke", "#aa3333");

        }
        if (title[1] == text) {
          id = nodes[index].id;
          document.getElementById(id).querySelector("path").setAttribute("stroke-width", "3");
          document.getElementById(id).querySelector("path").setAttribute("stroke-opacity", "1");
          document.getElementById(id).querySelector("path").setAttribute("stroke", "#333377");
          document.getElementById(id).querySelector("polygon").setAttribute("stroke-width", "5");
          document.getElementById(id).querySelector("polygon").setAttribute("stroke-opacity", "1");
          document.getElementById(id).querySelector("polygon").setAttribute("stroke", "#333377");
        }

        if (title[0] == text || title[1] == text) {
          pkgs = document.getElementsByClassName("node");
          for (index2 = 0, len2 = pkgs.length; index2 < len2; ++index2) {
            var pkg_name = pkgs[index2].querySelector("title").textContent;
            if (pkg_name == title[0] || pkg_name == title[1]) {
              target_id = pkgs[index2].id;
              document.getElementById(target_id).querySelector("text").setAttribute("font-weight", "bold");
            }
          }
        }
      }


  }, false);

]]></script>

</svg>
