<?xml version="1.0" encoding="UTF-8" standalone="no"?>
<!DOCTYPE svg PUBLIC "-//W3C//DTD SVG 1.1//EN"
 "http://www.w3.org/Graphics/SVG/1.1/DTD/svg11.dtd">
<!-- Generated by graphviz version 2.40.1 (0)
 -->
<!-- Title: packages Pages: 1 -->
<svg width="1534pt" height="1272pt"
 viewBox="0.00 0.00 1841.34 1526.61" xmlns="http://www.w3.org/2000/svg" xmlns:xlink="http://www.w3.org/1999/xlink">
<g id="graph0" class="graph" transform="scale(.8333 .8333) rotate(0) translate(113.2517 1375.4362)">
<title>packages</title>
<polygon fill="#dae2ff" stroke="transparent" points="-113.2517,151.174 -113.2517,-1375.4362 1728.0878,-1375.4362 1728.0878,151.174 -113.2517,151.174"/>
<polygon fill="#bbd7d9" stroke="#bbd7d9" points="1122.9518,-16.7784 1128.5381,-11.9441 1133.1202,147.0005 1133.5476,147.174 1137.931,145.9389 1225.4373,82.733 1260.2797,32.0886 1277.4047,-14.9673 1279.1599,-19.4985 1288.1075,-40.0791 1154.5243,-75.3181 1155.6771,-131.5865 1150.0918,-135.9887 1153.1885,-75.6025 1144.8046,-76.9666 1145.3914,-137.5665 1140.7388,-137.5665 1136.6886,-77.8747 1133.924,-78.0432 1130.4795,-78.0789 1129.0535,-78.17 1125.0225,-78.2235 1124.6149,-137.7601 1118.5895,-137.7601 1118.4874,-137.7898 1114.6763,-134.5664 1114.6763,-134.5664 1118.4874,-137.7898 1118.5895,-137.7601 1124.6149,-137.7601 1125.0225,-78.2235 1129.0535,-78.17 1130.4795,-78.0789 1133.924,-78.0432 1136.6886,-77.8747 1140.7388,-137.5665 1145.3914,-137.5665 1144.8046,-76.9666 1153.1885,-75.6025 1150.0918,-135.9887 1155.6771,-131.5865 1154.5243,-75.3181 1288.1075,-40.0791 1338.842,-94.3995 1307.4303,-137.78 1223.1467,-270.2977 1223.964,-273.9886 1227.3531,-293.2087 1199.621,-336.1311 1186.9991,-358.5066 1162.5571,-405.5461 1154.224,-420.1848 1151.307,-421.2831 1139.6873,-424.8438 1137.4921,-425.3623 1127.5116,-427.3757 1121.932,-428.3061 1112.8982,-429.4965 1110.1239,-429.7647 1102.6196,-429.9669 1084.8641,-431.0601 1083.6764,-431.2147 1080.6716,-431.7101 1069.6881,-433.9043 1070.3527,-347.5256 1074.2451,-344.2217 1070.4623,-340.8515 1065.0369,-339.2141 1065.0369,-339.2141 1070.4623,-340.8515 1074.2451,-344.2217 1070.3527,-347.5256 1069.6881,-433.9043 1067.2445,-434.4768 1055.3414,-437.6796 1050.7097,-439.2439 1042.9397,-442.1385 1032.9697,-446.1957 1008.6622,-457.7426 1015.1382,-468.2571 1024.0481,-481.1035 1038.9194,-499.9066 1042.7087,-503.9746 1044.373,-505.6138 1052.0188,-513.95 1053.6332,-515.3826 1057.8224,-519.5798 1064.3091,-525.3653 1067.2815,-528.4561 1071.3872,-532.152 1084.8566,-540.8463 1085.9237,-541.3812 1090.1176,-542.9396 1096.129,-544.4018 1105.7156,-545.4814 1113.8623,-547.5016 1115.304,-548.0466 1120.4227,-550.6904 1129.8447,-556.8917 1134.9038,-560.8752 1139.9054,-565.4589 1140.9409,-566.6967 1153.243,-577.6932 1160.0765,-585.1852 1165.688,-591.9174 1167.3911,-594.1361 1182.6195,-612.2515 1168.7032,-655.9582 1134.4276,-664.4688 1121.0017,-666.5897 1113.2666,-667.345 1102.051,-667.7639 1096.8394,-668.1207 1095.5253,-668.131 1088.8011,-667.9805 1083.1643,-668.2036 1079.121,-668.1191 1066.6295,-668.6317 1053.0569,-670.0283 1044.7108,-671.3996 1036.0884,-673.6162 1024.644,-676.9146 1016.9858,-679.5934 1004.096,-684.9046 999.5018,-687.0811 982.6008,-695.617 966.6731,-705.621 967.5554,-617.9202 965.1276,-580.4576 971.0536,-576.7275 972.7578,-574.2679 975.1403,-574.2679 981.2461,-656.7251 982.6287,-692.6486 987.0032,-616.2139 987.0032,-616.2139 982.6287,-692.6486 981.2461,-656.7251 975.1403,-574.2679 972.7578,-574.2679 971.0536,-576.7275 965.1276,-580.4576 967.5554,-617.9202 966.6731,-705.621 960.875,-709.6185 863.2109,-644.5198 867.3851,-636.4866 899.827,-577.5542 904.4003,-566.9724 922.1418,-519.3238 923.4824,-516.5831 956.0868,-457.3556 961.1883,-447.5277 892.7488,-373.618 878.1781,-358.5567 867.9509,-357.2729 850.2632,-354.7429 848.8347,-354.4889 835.5315,-351.8907 832.3134,-351.2065 824.0447,-349.3045 819.952,-348.2923 819.3219,-348.1255 801.2742,-256.3001 796.3085,-220.7288 794.4067,-209.5103 794.3427,-209.1891 786.9841,-165.5926 781.9537,-139.9984 721.6527,-69.0494 714.4985,-61.2293 724.9853,-33.7745 731.8561,-14.7288 781.4233,57.3097 799.5869,69.3017 881.1949,79.3932 895.9279,81.5229 910.2217,84.1827 927.3658,88.439 923.9118,-16.289 925.7625,-54.0686 919.7753,-52.274 915.5665,-53.4542 911.272,-57.2873 915.343,-60.8271 919.8987,-62.1042 919.8987,-62.1042 915.343,-60.8271 911.272,-57.2873 915.5665,-53.4542 919.7753,-52.274 925.7625,-54.0686 923.9118,-16.289 927.3658,88.439 927.5615,88.4956 930.4976,89.4685 950.1113,89.3395 947.6888,-.375 946.5953,-13.777 939.7932,-56.911 941.7797,-57.5048 936.8853,-128.123 935.6725,-128.1634 934.488,-128.2529 936.0123,-162.1308 934.2916,-196.0117 929.4547,-194.5436 922.8569,-196.6416 919.9123,-199.2153 923.3074,-202.2512 923.3074,-202.2512 919.9123,-199.2153 922.8569,-196.6416 929.4547,-194.5436 934.2916,-196.0117 936.0123,-162.1308 934.488,-128.2529 935.6725,-128.1634 936.8853,-128.123 941.7797,-57.5048 939.7932,-56.911 946.5953,-13.777 947.6888,-.375 950.1113,89.3395 977.4313,90.7205 1027.6211,119.8004 1079.8463,130.3286 1080.5955,87.8155 1080.5955,87.8155 1079.8463,130.3286 1088.1759,132.3498 1104.5546,136.6606 1107.1924,137.4079 1127.4579,144.8159 1133.1202,147.0005 1128.5381,-11.9441 1122.9518,-16.7784 1122.4056,-17.7112 1122.1814,-17.904 1118.8281,-17.904 1111.5369,40.7583 1112.3907,-17.2714 1106.8235,-13.7233 1106.8235,-13.7233 1112.3907,-17.2714 1113.2721,-18.3844 1112.267,-19.5499 1107.4906,-22.3174 1107.4906,-22.3174 1112.267,-19.5499 1113.2721,-18.3844 1112.3907,-17.2714 1111.5369,40.7583 1118.8281,-17.904 1122.1814,-17.904 1122.4056,-17.7112 1122.9518,-16.7784 1122.9518,-16.7784"/>
<polygon fill="#fed9a6" stroke="#fed9a6" points="1113.8623,-547.5016 1105.7156,-545.4814 1096.129,-544.4018 1090.1176,-542.9396 1085.9237,-541.3812 1084.8566,-540.8463 1071.3872,-532.152 1067.2815,-528.4561 1064.3091,-525.3653 1057.8224,-519.5798 1053.6332,-515.3826 1052.0188,-513.95 1044.373,-505.6138 1042.7087,-503.9746 1038.9194,-499.9066 1024.0481,-481.1035 1015.1382,-468.2571 1008.6622,-457.7426 1032.9697,-446.1957 1042.9397,-442.1385 1050.7097,-439.2439 1055.3414,-437.6796 1067.2445,-434.4768 1069.6881,-433.9043 1080.6716,-431.7101 1083.6764,-431.2147 1084.8641,-431.0601 1102.6196,-429.9669 1110.1239,-429.7647 1112.8982,-429.4965 1121.932,-428.3061 1127.5116,-427.3757 1137.4921,-425.3623 1139.6873,-424.8438 1151.307,-421.2831 1154.224,-420.1848 1162.5571,-405.5461 1186.9991,-358.5066 1199.621,-336.1311 1227.3531,-293.2087 1223.964,-273.9886 1223.1467,-270.2977 1307.4303,-137.78 1338.842,-94.3995 1351.0554,-95.1763 1356.847,-95.4633 1375.9993,-100.1983 1383.6769,-101.7476 1397.7605,-104.377 1409.1035,-105.9788 1412.6255,-106.3696 1423.8427,-107.4449 1424.2003,-107.4683 1436.2247,-108.0757 1446.9661,-108.4558 1451.1366,-110.1623 1557.3678,-148.0518 1603.9049,-262.8665 1595.9235,-270.6884 1579.9828,-285.75 1553.5294,-285.75 1553.5294,-285.75 1579.9828,-285.75 1576.2046,-289.868 1563.8131,-302.2775 1560.9436,-305.0191 1552.4408,-312.3941 1537.603,-323.9757 1530.5956,-328.8144 1450.9985,-376.812 1444.1062,-381.2647 1443.9885,-381.3458 1434.9751,-387.9484 1424.6338,-396.4273 1421.9141,-398.8947 1422.0082,-400.2111 1410.6099,-414.3709 1405.5306,-419.9521 1398.9546,-426.7251 1389.3549,-435.94 1387.2318,-438.6011 1382.5966,-443.5157 1320.6528,-503.5798 1319.9298,-504.3477 1316.7067,-507.1392 1308.6945,-514.7054 1296.9513,-526.6812 1290.0499,-535.2565 1288.4792,-537.3311 1288.0065,-537.9141 1281.4163,-537.9603 1277.6606,-537.876 1278.5078,-484.6044 1282.1508,-440.9246 1286.9485,-439.5653 1290.875,-436.1656 1287.0901,-432.7202 1281.9042,-431.154 1281.9042,-431.154 1287.0901,-432.7202 1290.875,-436.1656 1286.9485,-439.5653 1282.1508,-440.9246 1278.5078,-484.6044 1277.6606,-537.876 1281.4163,-537.9603 1288.0065,-537.9141 1293.4309,-542.6 1306.9653,-552.2551 1310.6509,-554.6951 1322.6135,-561.4317 1330.4366,-565.4378 1383.9392,-590.0643 1387.321,-591.7878 1403.2394,-601.5321 1418.0416,-612.8333 1422.0709,-616.3118 1412.9562,-626.6169 1411.004,-628.5544 1386.3685,-656.9169 1337.9332,-719.0658 1337.7418,-719.2726 1327.0255,-729.9093 1320.9584,-736.3495 1306.7375,-753.4636 1307.2622,-688.5183 1304.5179,-643.1638 1308.4379,-639.5654 1304.7008,-636.1987 1299.7762,-634.7435 1299.7762,-634.7435 1304.7008,-636.1987 1308.4379,-639.5654 1304.5179,-643.1638 1307.2622,-688.5183 1306.7375,-753.4636 1303.7793,-757.427 1295.3148,-760.5204 1280.9154,-767.0133 1274.3828,-766.7646 1276.0879,-703.9202 1276.0879,-703.9202 1274.3828,-766.7646 1270.1599,-766.8967 1261.6746,-766.7721 1259.7009,-766.6524 1247.4417,-752.4465 1169.774,-657.1207 1168.7032,-655.9582 1182.6195,-612.2515 1167.3911,-594.1361 1165.688,-591.9174 1165.4541,-522.3389 1181.8563,-519.7684 1246.66,-523.5455 1260.3311,-537.9989 1262.0006,-537.8464 1264.7482,-537.7538 1265.3357,-523.0947 1265.3357,-523.0947 1264.7482,-537.7538 1262.0006,-537.8464 1259.1398,-474.6073 1259.1398,-474.6073 1262.0006,-537.8464 1260.3311,-537.9989 1246.66,-523.5455 1181.8563,-519.7684 1165.4541,-522.3389 1165.688,-591.9174 1160.0765,-585.1852 1153.243,-577.6932 1153.0778,-570.5601 1153.0778,-570.5601 1153.243,-577.6932 1140.9409,-566.6967 1139.9054,-565.4589 1134.9038,-560.8752 1129.8447,-556.8917 1127.3154,-517.1052 1132.9966,-520.4407 1138.3983,-520.4407 1138.3983,-520.4407 1132.9966,-520.4407 1127.3154,-517.1052 1129.8447,-556.8917 1120.4227,-550.6904 1115.304,-548.0466 1113.8623,-547.5016 1113.8623,-547.5016"/>
<polygon fill="#bbd7d9" stroke="#bbd7d9" points="1316.7067,-507.1392 1319.9298,-504.3477 1320.6528,-503.5798 1382.5966,-443.5157 1387.2318,-438.6011 1389.3549,-435.94 1398.9546,-426.7251 1405.5306,-419.9521 1410.6099,-414.3709 1422.0082,-400.2111 1427.9061,-407.1605 1434.4286,-414.0273 1436.5029,-415.9642 1442.7065,-421.41 1485.9783,-421.41 1485.9783,-421.41 1442.7065,-421.41 1436.5029,-415.9642 1434.4286,-414.0273 1427.9061,-407.1605 1422.0082,-400.2111 1421.9141,-398.8947 1424.6338,-396.4273 1434.9751,-387.9484 1443.9885,-381.3458 1444.1062,-381.2647 1450.9985,-376.812 1530.5956,-328.8144 1537.603,-323.9757 1552.4408,-312.3941 1560.9436,-305.0191 1563.8131,-302.2775 1576.2046,-289.868 1579.9828,-285.75 1595.9235,-270.6884 1603.9049,-262.8665 1658.0811,-292.6593 1706.5649,-343.9735 1724.0878,-387.6814 1720.7987,-407.8315 1717.9531,-428.1186 1711.0234,-502.0085 1599.6066,-588.8454 1596.5018,-596.6351 1489.387,-613.1669 1473.0759,-615.2179 1469.926,-615.5225 1460.1788,-615.9014 1457.5281,-616.0817 1450.4124,-616.3587 1439.5038,-616.1507 1439.1084,-616.1317 1437.774,-616.1449 1437.7527,-616.1445 1436.5293,-616.1566 1431.5554,-616.062 1424.124,-616.3508 1422.0709,-616.3118 1418.0416,-612.8333 1403.2394,-601.5321 1387.321,-591.7878 1383.9392,-590.0643 1330.4366,-565.4378 1322.6135,-561.4317 1310.6509,-554.6951 1306.9653,-552.2551 1293.4309,-542.6 1288.0065,-537.9141 1288.4792,-537.3311 1381.9133,-518.5954 1385.4043,-514.6353 1387.0527,-513.8869 1387.7941,-513.1952 1394.0393,-513.1952 1394.1293,-513.168 1397.632,-513.168 1403.3049,-590.9652 1405.1227,-551.2355 1410.1177,-515.3521 1414.3575,-517.8032 1420.1638,-517.8032 1424.8455,-515.0708 1426.3345,-513.2448 1425.949,-512.7717 1425.949,-512.7717 1426.3345,-513.2448 1424.8455,-515.0708 1420.1638,-517.8032 1414.3575,-517.8032 1410.1177,-515.3521 1405.1227,-551.2355 1403.3049,-590.9652 1397.632,-513.168 1394.1293,-513.168 1394.0393,-513.1952 1387.7941,-513.1952 1387.0527,-513.8869 1385.4043,-514.6353 1381.9133,-518.5954 1288.4792,-537.3311 1290.0499,-535.2565 1296.9513,-526.6812 1308.6945,-514.7054 1316.7067,-507.1392 1316.7067,-507.1392"/>
<polygon fill="#d8d6da" stroke="#d8d6da" points="897.8355,-918.28 891.5472,-917.7941 880.9679,-917.4843 879.6132,-917.319 877.8557,-917.0226 866.5219,-914.5733 862.0374,-913.3957 851.2019,-909.5265 842.1511,-905.8739 840.778,-905.1937 828.2161,-898.3678 799.044,-881.1931 798.2414,-874.0651 799.3956,-872.7466 802.1423,-869.7829 809.6306,-862.1639 818.373,-854.34 825.8765,-845.8197 827.1384,-844.4968 840.2985,-832.764 900.1162,-789.1522 902.2146,-787.4691 906.465,-783.737 917.7172,-772.048 918.2161,-771.6083 926.8658,-762.827 930.616,-759.2877 939.1457,-750.2027 953.0891,-733.6205 953.1506,-733.5438 961.2709,-722.9198 960.875,-709.6185 966.6731,-705.621 982.6008,-695.617 999.5018,-687.0811 1004.096,-684.9046 1016.9858,-679.5934 1024.644,-676.9146 1036.0884,-673.6162 1044.7108,-671.3996 1053.0569,-670.0283 1066.6295,-668.6317 1079.121,-668.1191 1083.1643,-668.2036 1084.4146,-726.6489 1084.4146,-726.6489 1083.1643,-668.2036 1088.8011,-667.9805 1095.5253,-668.131 1096.8394,-668.1207 1102.051,-667.7639 1113.2666,-667.345 1111.9619,-709.0912 1107.6118,-757.4747 1103.8134,-759.53 1101.4392,-762.3015 1101.9951,-762.9062 1108.3844,-766.606 1112.8324,-766.606 1112.8324,-766.606 1108.3844,-766.606 1101.9951,-762.9062 1101.4392,-762.3015 1103.8134,-759.53 1107.6118,-757.4747 1111.9619,-709.0912 1113.2666,-667.345 1121.0017,-666.5897 1134.4276,-664.4688 1168.7032,-655.9582 1169.774,-657.1207 1247.4417,-752.4465 1259.7009,-766.6524 1261.6746,-766.7721 1270.1599,-766.8967 1274.3828,-766.7646 1280.9154,-767.0133 1286.5155,-779.3325 1299.6532,-803.1816 1295.6276,-888.6876 1291.2904,-892.7573 1285.6434,-849.1918 1284.7594,-894.5242 1290.4221,-894.5242 1290.7396,-894.8313 1288.1436,-952.0369 1284.3563,-894.6504 1279.0753,-894.6504 1278.1073,-894.3577 1275.3905,-894.3577 1273.8479,-894.8229 1269.7087,-894.8229 1267.7611,-892.3937 1263.8755,-890.1473 1263.8755,-890.1473 1267.7611,-892.3937 1269.7087,-894.8229 1268.6549,-896.0362 1263.5978,-898.9499 1257.4534,-898.9499 1252.297,-895.961 1251.3658,-894.8862 1247.9899,-894.8862 1242.3353,-940.9588 1241.7855,-951.8922 1245.5105,-952.1591 1245.4338,-1009.5942 1246.2756,-1009.8484 1242.828,-1047.4247 1239.0947,-1009.9924 1234.986,-1009.9924 1234.7191,-1010.0728 1232.6317,-1010.0728 1229.467,-1012.901 1223.2748,-1014.8232 1218.3201,-1013.3575 1214.3367,-1009.7543 1213.6516,-1009.7543 1213.6516,-1009.7543 1214.3367,-1009.7543 1218.3201,-1013.3575 1223.2748,-1014.8232 1229.467,-1012.901 1232.6317,-1010.0728 1234.7191,-1010.0728 1234.986,-1009.9924 1239.0947,-1009.9924 1242.828,-1047.4247 1246.2756,-1009.8484 1245.4338,-1009.5942 1245.5105,-952.1591 1241.7855,-951.8922 1242.3353,-940.9588 1247.9899,-894.8862 1251.3658,-894.8862 1252.297,-895.961 1257.4534,-898.9499 1263.5978,-898.9499 1260.3152,-939.269 1260.2474,-952.2313 1255.1637,-952.4423 1254.3463,-978.3117 1254.3463,-978.3117 1255.1637,-952.4423 1260.2474,-952.2313 1260.3152,-939.269 1263.5978,-898.9499 1268.6549,-896.0362 1269.7087,-894.8229 1273.8479,-894.8229 1275.3905,-894.3577 1278.1073,-894.3577 1279.0753,-894.6504 1284.3563,-894.6504 1288.1436,-952.0369 1290.7396,-894.8313 1290.4221,-894.5242 1284.7594,-894.5242 1285.6434,-849.1918 1291.2904,-892.7573 1295.6276,-888.6876 1299.6532,-803.1816 1314.2863,-827.786 1330.8998,-859.368 1340.0564,-885.4191 1341.1694,-887.9768 1354.3026,-913.0709 1369.4889,-938.6055 1386.5414,-969.624 1401.2335,-1001.6865 1402.8481,-1003.2285 1407.7533,-1008.4673 1412.0244,-1012.6754 1416.1418,-1016.5758 1421.5496,-1022.2506 1384.0664,-1102.1803 1402.637,-1181.5811 1406.0245,-1194.6731 1404.6626,-1210.2543 1402.2297,-1248.2233 1271.3773,-1218.6423 1266.8287,-1213.6069 1266.679,-1213.5256 1266.5302,-1213.5256 1264.9706,-1213.0529 1262.1169,-1213.0529 1261.9652,-1213.0992 1254.8531,-1208.7172 1250.3518,-1208.7172 1250.3518,-1208.7172 1254.8531,-1208.7172 1261.9652,-1213.0992 1262.1169,-1213.0529 1264.9706,-1213.0529 1266.5302,-1213.5256 1266.679,-1213.5256 1266.8287,-1213.6069 1271.3773,-1218.6423 1402.2297,-1248.2233 1399.8567,-1306.8392 1272.03,-1361.9709 1261.762,-1366.6333 1252.5691,-1371.4362 1248.4984,-1369.4628 1243.2589,-1367.1528 1225.3137,-1359.6321 1086.2952,-1304.5127 1062.3861,-1224.3921 1018.8228,-1206.2834 1015.4554,-1205.0916 994.8442,-1198.2128 996.3577,-1113.3595 997.8327,-1091.1364 997.235,-1053.1152 1003.2032,-1054.9609 1007.5886,-1053.7189 1011.8474,-1049.9902 1007.6605,-1046.4114 1003.1012,-1045.1401 1003.1012,-1045.1401 1007.6605,-1046.4114 1011.8474,-1049.9902 1007.5886,-1053.7189 1003.2032,-1054.9609 997.235,-1053.1152 997.8327,-1091.1364 996.3577,-1113.3595 994.8442,-1198.2128 983.6923,-1195.1838 984.0335,-1088.722 984.0335,-1088.722 983.6923,-1195.1838 905.076,-1177.0719 854.8006,-1138.3933 856.8962,-1134.5701 862.0652,-1125.525 873.4653,-1106.4271 884.3494,-1089.8988 891.9585,-1080.0822 909.1051,-1060.3945 913.4085,-1055.8048 925.9221,-1039.7288 964.0074,-984.5994 967.2762,-980.3526 979.0959,-967.7464 978.7818,-958.65 1018.9951,-958.65 1055.2158,-965.0449 1059.4592,-962.2836 1061.4415,-958.9884 1061.4415,-958.9884 1059.4592,-962.2836 1055.2158,-965.0449 1018.9951,-958.65 978.7818,-958.65 975.7475,-939.3679 955.403,-929.0645 939.777,-923.3528 934.5054,-921.6816 931.9171,-920.9861 918.3938,-918.6277 917.5705,-918.5237 917.1013,-854.3956 918.7469,-854.3956 922.7443,-857.9334 927.1105,-859.1692 927.1105,-859.1692 922.7443,-857.9334 918.7469,-854.3956 917.1013,-854.3956 917.5705,-918.5237 916.8599,-918.4675 905.05,-918.0921 900.7228,-918.3669 897.8355,-918.28 897.8355,-918.28"/>
<polygon fill="#fbb4ae" stroke="#fbb4ae" points="90.2317,-550.9307 85.1443,-547.9773 85.1443,-547.9773 90.2317,-550.9307 90.2857,-408.3539 87.1352,-408.7601 71.0559,-410.2102 65.3453,-410.5027 50.1531,-410.6898 50.7708,-468.705 50.7708,-468.705 50.1531,-410.6898 35.8421,-410.3086 5.1415,-408.8945 2.3971,-409.0738 -13.292,-412.8538 -36.2464,-423.5283 -108.4648,-526.3156 -109.2517,-527.389 -94.8009,-564.4941 -80.069,-607.9027 -50.2822,-660.1385 25.2948,-723.7544 24.4551,-740.6913 27.533,-771.5247 29.9123,-801.4064 32.8373,-876.8584 58.8684,-902.9928 184.5889,-970.5306 189.3782,-973.1995 190.4122,-973.7964 191.0915,-952.2487 191.0915,-952.2487 190.4122,-973.7964 192.5031,-975.1337 210.6046,-968.5237 211.0085,-902.1433 210.1455,-858.5319 211.8135,-793.0918 217.1361,-796.1865 221.6039,-796.1865 227.2765,-792.7653 228.5333,-791.237 227.6469,-790.2255 227.6469,-790.2255 228.5333,-791.237 227.2765,-792.7653 221.6039,-796.1865 228.0338,-849.8929 232.8085,-921.7053 232.8085,-921.7053 228.0338,-849.8929 221.6039,-796.1865 217.1361,-796.1865 211.8135,-793.0918 210.1455,-858.5319 211.0085,-902.1433 210.6046,-968.5237 224.8794,-964.058 233.7319,-958.1492 235.6104,-957.0686 253.5747,-947.1318 256.192,-945.8041 395.6263,-878.2091 452.2313,-904.4371 477.5739,-912.6697 542.2108,-1012.997 624.9048,-1046.3887 636.4521,-1051.2991 658.5913,-1061.6548 660.8265,-1062.7919 664.373,-1064.7451 668.6823,-898.3187 673.7712,-895.3675 675.2388,-893.6595 674.0927,-892.3825 668.8071,-889.3786 663.3356,-889.3786 663.3356,-889.3786 668.8071,-889.3786 674.0927,-892.3825 675.2388,-893.6595 673.7712,-895.3675 668.6823,-898.3187 664.373,-1064.7451 672.725,-1069.5229 674.7861,-1069.3907 675.0605,-1069.3774 683.1803,-1069.2417 690.0235,-1058.0878 702.9059,-1037.8678 733.531,-993.6925 753.0229,-961.4189 778.9921,-914.3065 798.6498,-881.7618 799.044,-881.1931 798.2414,-874.0651 799.3956,-872.7466 802.1423,-869.7829 809.6306,-862.1639 818.373,-854.34 825.8765,-845.8197 827.1384,-844.4968 840.2985,-832.764 900.1162,-789.1522 902.2146,-787.4691 906.465,-783.737 917.7172,-772.048 918.2161,-771.6083 926.8658,-762.827 930.616,-759.2877 939.1457,-750.2027 953.0891,-733.6205 953.1506,-733.5438 961.2709,-722.9198 960.875,-709.6185 863.2109,-644.5198 867.3851,-636.4866 899.827,-577.5542 904.4003,-566.9724 922.1418,-519.3238 923.4824,-516.5831 956.0868,-457.3556 961.1883,-447.5277 892.7488,-373.618 878.1781,-358.5567 867.9509,-357.2729 850.2632,-354.7429 848.8347,-354.4889 835.5315,-351.8907 832.3134,-351.2065 824.0447,-349.3045 827.7155,-513.3745 822.4749,-514.862 818.6453,-518.1512 822.6425,-521.7654 827.3582,-523.1478 827.3582,-523.1478 822.6425,-521.7654 818.6453,-518.1512 822.4749,-514.862 827.7155,-513.3745 824.0447,-349.3045 819.952,-348.2923 819.3219,-348.1255 801.2742,-256.3001 796.3085,-220.7288 794.4067,-209.5103 794.3427,-209.1891 786.9841,-165.5926 781.9537,-139.9984 721.6527,-69.0494 714.4985,-61.2293 702.8611,-65.2787 683.4492,-71.6965 672.3224,-75.1761 666.8082,-76.7021 664.9323,-177.2801 658.3028,-235.1245 654.0198,-236.303 649.9379,-239.8123 653.6544,-243.1699 658.8214,-244.7211 658.8214,-244.7211 653.6544,-243.1699 649.9379,-239.8123 654.0198,-236.303 658.3028,-235.1245 664.9323,-177.2801 666.8082,-76.7021 648.3208,-80.8336 629.6966,-83.9982 561.9838,-91.8692 491.9632,-157.9955 473.3611,-227.5513 468.2508,-244.0191 469.6065,-258.3209 409.7921,-377.8308 408.8792,-379.5618 368.2572,-452.7784 553.9232,-404.9832 557.4205,-400.9171 558.85,-400.1914 559.1895,-399.8575 559.1895,-399.8575 558.85,-400.1914 557.4205,-400.9171 553.9232,-404.9832 368.2572,-452.7784 352.852,-479.4982 335.4153,-489.4595 321.8875,-480.2378 224.4501,-411.6212 185.4368,-400.6506 132.2098,-399.2762 119.0421,-402.7679 108.5838,-405.1345 95.6612,-407.5562 90.2857,-408.3539 90.2317,-550.9307 91.4368,-552.3301 94.7776,-552.3301 96.2614,-552.7725 100.2041,-552.7725 101.4708,-552.4017 105.0137,-552.4017 105.8507,-552.6448 110.6564,-552.6448 112.7594,-644.266 112.453,-681.5775 127.2305,-677.6364 179.2367,-664.9959 196.7963,-659.8868 201.6114,-658.2592 208.6953,-655.6966 209.2017,-655.4893 226.4336,-648.017 236.8678,-642.9992 246.3063,-638.0145 250.6292,-635.5265 253.784,-790.2507 258.7845,-785.6907 311.2393,-782.5939 380.1102,-774.2671 380.049,-773.5551 371.2773,-709.803 365.2597,-672.6318 350.1211,-646.8322 514.6241,-632.3787 519.542,-627.9766 519.6012,-689.9012 522.4835,-689.9669 525.2585,-689.8933 526.2455,-689.9143 535.8557,-689.6451 536.9172,-689.7167 538.8952,-689.7529 539.0695,-689.7476 540.399,-626.7113 541.7882,-626.7113 545.9488,-630.3903 550.1608,-631.5582 553.5291,-667.614 553.8053,-689.7417 558.7211,-689.8043 562.2167,-690.0167 568.6161,-689.7729 574.6039,-690.1195 579.8486,-690.1637 579.7045,-681.306 579.7045,-681.306 579.8486,-690.1637 574.6039,-690.1195 568.6161,-689.7729 562.2167,-690.0167 558.7211,-689.8043 553.8053,-689.7417 553.5291,-667.614 550.1608,-631.5582 545.9488,-630.3903 541.7882,-626.7113 540.399,-626.7113 539.0695,-689.7476 538.8952,-689.7529 536.9172,-689.7167 532.6365,-748.6437 527.8557,-751.3389 526.5303,-752.8557 527.8716,-754.5021 532.7899,-757.4679 532.7899,-757.4679 527.8716,-754.5021 526.5303,-752.8557 527.8557,-751.3389 532.6365,-748.6437 536.9172,-689.7167 535.8557,-689.6451 526.2455,-689.9143 525.2585,-689.8933 522.4835,-689.9669 519.6012,-689.9012 519.542,-627.9766 514.6241,-632.3787 350.1211,-646.8322 365.2597,-672.6318 371.2773,-709.803 380.049,-773.5551 380.1102,-774.2671 311.2393,-782.5939 258.7845,-785.6907 253.784,-790.2507 250.6292,-635.5265 246.3063,-638.0145 236.8678,-642.9992 226.4336,-648.017 209.2017,-655.4893 208.6953,-655.6966 201.6114,-658.2592 196.7963,-659.8868 179.2367,-664.9959 127.2305,-677.6364 112.453,-681.5775 112.7594,-644.266 110.6564,-552.6448 105.8507,-552.6448 105.0137,-552.4017 101.4708,-552.4017 100.2041,-552.7725 96.2614,-552.7725 94.7776,-552.3301 91.4368,-552.3301 90.2317,-550.9307 90.2317,-550.9307"/>
<polygon fill="#bbd7d9" stroke="#bbd7d9" points="733.531,-993.6925 753.0229,-961.4189 778.9921,-914.3065 798.6498,-881.7618 799.044,-881.1931 828.2161,-898.3678 840.778,-905.1937 842.1511,-905.8739 851.2019,-909.5265 862.0374,-913.3957 866.5219,-914.5733 877.8557,-917.0226 879.6132,-917.319 880.9679,-917.4843 891.5472,-917.7941 897.8355,-918.28 892.385,-981.4946 889.5729,-981.4946 889.5729,-981.4946 892.385,-981.4946 897.8355,-918.28 900.7228,-918.3669 900.741,-929.6396 900.741,-929.6396 900.7228,-918.3669 905.05,-918.0921 916.8599,-918.4675 917.5705,-918.5237 918.3938,-918.6277 931.9171,-920.9861 934.5054,-921.6816 939.777,-923.3528 955.403,-929.0645 975.7475,-939.3679 978.7818,-958.65 979.0959,-967.7464 967.2762,-980.3526 964.0074,-984.5994 925.9221,-1039.7288 913.4085,-1055.8048 909.1051,-1060.3945 891.9585,-1080.0822 884.3494,-1089.8988 873.4653,-1106.4271 862.0652,-1125.525 856.8962,-1134.5701 854.8006,-1138.3933 845.5175,-1136.9418 835.5817,-1135.7421 797.1821,-1133.1482 683.1803,-1069.2417 690.0235,-1058.0878 702.9059,-1037.8678 733.531,-993.6925 733.531,-993.6925"/>
<polygon fill="#d8d6da" stroke="#d8d6da" points="1623.6608,-699.2068 1623.6135,-699.0551 1596.5018,-596.6351 1489.387,-613.1669 1473.0759,-615.2179 1469.926,-615.5225 1460.1788,-615.9014 1457.5281,-616.0817 1450.4124,-616.3587 1439.5038,-616.1507 1439.1084,-616.1317 1437.774,-616.1449 1437.7527,-616.1445 1436.5293,-616.1566 1431.5554,-616.062 1424.124,-616.3508 1422.0709,-616.3118 1412.9562,-626.6169 1411.004,-628.5544 1386.3685,-656.9169 1337.9332,-719.0658 1337.7418,-719.2726 1327.0255,-729.9093 1320.9584,-736.3495 1306.7375,-753.4636 1303.7793,-757.427 1377.6992,-780.7822 1390.0121,-783.5098 1401.4858,-784.4277 1409.6729,-784.6947 1411.5774,-784.6666 1413.5524,-784.5439 1415.801,-784.5122 1418.0599,-784.698 1427.7032,-785.0327 1432.7462,-784.7292 1435.7457,-784.9813 1445.3883,-784.8772 1448.5797,-784.9962 1448.6433,-784.9926 1456.407,-784.9194 1456.7986,-784.9534 1458.7994,-785.0319 1468.9622,-784.9495 1475.0646,-785.486 1485.1091,-786.8525 1601.9895,-808.3073 1611.6387,-756.3571 1623.6608,-699.2068 1623.6608,-699.2068"/>
<polygon fill="#bbd7d9" stroke="#bbd7d9" points="1603.5625,-867.0877 1608.0018,-841.9623 1608.9482,-837.658 1601.9895,-808.3073 1485.1091,-786.8525 1475.0646,-785.486 1468.9622,-784.9495 1458.7994,-785.0319 1456.7986,-784.9534 1456.407,-784.9194 1448.6433,-784.9926 1448.5797,-784.9962 1445.3883,-784.8772 1435.7457,-784.9813 1432.7462,-784.7292 1427.7032,-785.0327 1418.0599,-784.698 1415.801,-784.5122 1413.5524,-784.5439 1411.5774,-784.6666 1409.6729,-784.6947 1401.4858,-784.4277 1390.0121,-783.5098 1377.6992,-780.7822 1303.7793,-757.427 1295.3148,-760.5204 1280.9154,-767.0133 1286.5155,-779.3325 1299.6532,-803.1816 1314.2863,-827.786 1330.8998,-859.368 1340.0564,-885.4191 1341.1694,-887.9768 1354.3026,-913.0709 1369.4889,-938.6055 1386.5414,-969.624 1401.2335,-1001.6865 1402.8481,-1003.2285 1407.7533,-1008.4673 1412.0244,-1012.6754 1416.1418,-1016.5758 1421.5496,-1022.2506 1426.1892,-1020.5915 1441.0924,-1015.5406 1452.0614,-1012.4427 1452.5372,-913.3351 1449.7227,-850.8415 1445.0737,-850.8415 1443.7053,-850.4255 1440.2789,-850.4255 1440.2789,-850.4255 1443.7053,-850.4255 1445.0737,-850.8415 1449.7227,-850.8415 1452.5372,-913.3351 1452.0614,-1012.4427 1470.2433,-1007.9894 1496.2239,-1002.1205 1591.7623,-935.3237 1594.1106,-928.2072 1603.5625,-867.0877 1603.5625,-867.0877"/>
<polyline fill="none" stroke="#000000" points="1016.9858,-679.5934 1004.096,-684.9046 999.5018,-687.0811 982.6008,-695.617 966.6731,-705.621 960.875,-709.6185 863.2109,-644.5198 867.3851,-636.4866 899.827,-577.5542 904.4003,-566.9724 922.1418,-519.3238 923.4824,-516.5831 956.0868,-457.3556 961.1883,-447.5277 892.7488,-373.618 878.1781,-358.5567 867.9509,-357.2729 850.2632,-354.7429 848.8347,-354.4889 835.5315,-351.8907 832.3134,-351.2065 824.0447,-349.3045 819.952,-348.2923 819.3219,-348.1255 801.2742,-256.3001 796.3085,-220.7288 794.4067,-209.5103 794.3427,-209.1891 786.9841,-165.5926 781.9537,-139.9984 721.6527,-69.0494 714.4985,-61.2293 724.9853,-33.7745 731.8561,-14.7288 781.4233,57.3097 799.5869,69.3017 881.1949,79.3932 895.9279,81.5229 910.2217,84.1827 927.3658,88.439 927.5615,88.4956 930.4976,89.4685 950.1113,89.3395 977.4313,90.7205 1027.6211,119.8004 1079.8463,130.3286 1088.1759,132.3498 1104.5546,136.6606 1107.1924,137.4079 1127.4579,144.8159 1133.1202,147.0005 1133.5476,147.174 1137.931,145.9389 1225.4373,82.733 1260.2797,32.0886 1277.4047,-14.9673 1279.1599,-19.4985 1288.1075,-40.0791 1338.842,-94.3995 1307.4303,-137.78 1223.1467,-270.2977 1223.964,-273.9886 1227.3531,-293.2087 1199.621,-336.1311 1186.9991,-358.5066 1162.5571,-405.5461 1154.224,-420.1848 1151.307,-421.2831 1139.6873,-424.8438 1137.4921,-425.3623 1127.5116,-427.3757 1121.932,-428.3061 1112.8982,-429.4965 1110.1239,-429.7647 1102.6196,-429.9669 1084.8641,-431.0601 1083.6764,-431.2147 1080.6716,-431.7101 1069.6881,-433.9043 1067.2445,-434.4768 1055.3414,-437.6796 1050.7097,-439.2439 1042.9397,-442.1385 1032.9697,-446.1957 1008.6622,-457.7426 1015.1382,-468.2571 1024.0481,-481.1035 1038.9194,-499.9066 1042.7087,-503.9746 1044.373,-505.6138 1052.0188,-513.95 1053.6332,-515.3826 1057.8224,-519.5798 1064.3091,-525.3653 1067.2815,-528.4561 1071.3872,-532.152 1084.8566,-540.8463 1085.9237,-541.3812 1090.1176,-542.9396 1096.129,-544.4018 1105.7156,-545.4814 1113.8623,-547.5016 1115.304,-548.0466 1120.4227,-550.6904 1129.8447,-556.8917 1134.9038,-560.8752 1139.9054,-565.4589 1140.9409,-566.6967 1153.243,-577.6932 1160.0765,-585.1852 1165.688,-591.9174 1167.3911,-594.1361 1182.6195,-612.2515 1168.7032,-655.9582 1134.4276,-664.4688 1121.0017,-666.5897 1113.2666,-667.345 1102.051,-667.7639 1096.8394,-668.1207 1095.5253,-668.131 1088.8011,-667.9805 1083.1643,-668.2036 1079.121,-668.1191 1066.6295,-668.6317 1053.0569,-670.0283 1044.7108,-671.3996 1036.0884,-673.6162 1024.644,-676.9146 1016.9858,-679.5934 "/>
<polyline fill="none" stroke="#000000" points="1424.6338,-396.4273 1434.9751,-387.9484 1443.9885,-381.3458 1444.1062,-381.2647 1450.9985,-376.812 1530.5956,-328.8144 1537.603,-323.9757 1552.4408,-312.3941 1560.9436,-305.0191 1563.8131,-302.2775 1576.2046,-289.868 1579.9828,-285.75 1595.9235,-270.6884 1603.9049,-262.8665 1557.3678,-148.0518 1451.1366,-110.1623 1446.9661,-108.4558 1436.2247,-108.0757 1424.2003,-107.4683 1423.8427,-107.4449 1412.6255,-106.3696 1409.1035,-105.9788 1397.7605,-104.377 1383.6769,-101.7476 1375.9993,-100.1983 1356.847,-95.4633 1351.0554,-95.1763 1338.842,-94.3995 1307.4303,-137.78 1223.1467,-270.2977 1223.964,-273.9886 1227.3531,-293.2087 1199.621,-336.1311 1186.9991,-358.5066 1162.5571,-405.5461 1154.224,-420.1848 1151.307,-421.2831 1139.6873,-424.8438 1137.4921,-425.3623 1127.5116,-427.3757 1121.932,-428.3061 1112.8982,-429.4965 1110.1239,-429.7647 1102.6196,-429.9669 1084.8641,-431.0601 1083.6764,-431.2147 1080.6716,-431.7101 1069.6881,-433.9043 1067.2445,-434.4768 1055.3414,-437.6796 1050.7097,-439.2439 1042.9397,-442.1385 1032.9697,-446.1957 1008.6622,-457.7426 1015.1382,-468.2571 1024.0481,-481.1035 1038.9194,-499.9066 1042.7087,-503.9746 1044.373,-505.6138 1052.0188,-513.95 1053.6332,-515.3826 1057.8224,-519.5798 1064.3091,-525.3653 1067.2815,-528.4561 1071.3872,-532.152 1084.8566,-540.8463 1085.9237,-541.3812 1090.1176,-542.9396 1096.129,-544.4018 1105.7156,-545.4814 1113.8623,-547.5016 1115.304,-548.0466 1120.4227,-550.6904 1129.8447,-556.8917 1134.9038,-560.8752 1139.9054,-565.4589 1140.9409,-566.6967 1153.243,-577.6932 1160.0765,-585.1852 1165.688,-591.9174 1167.3911,-594.1361 1182.6195,-612.2515 1168.7032,-655.9582 1169.774,-657.1207 1247.4417,-752.4465 1259.7009,-766.6524 1261.6746,-766.7721 1270.1599,-766.8967 1274.3828,-766.7646 1280.9154,-767.0133 1295.3148,-760.5204 1303.7793,-757.427 1306.7375,-753.4636 1320.9584,-736.3495 1327.0255,-729.9093 1337.7418,-719.2726 1337.9332,-719.0658 1386.3685,-656.9169 1411.004,-628.5544 1412.9562,-626.6169 1422.0709,-616.3118 1418.0416,-612.8333 1403.2394,-601.5321 1387.321,-591.7878 1383.9392,-590.0643 1330.4366,-565.4378 1322.6135,-561.4317 1310.6509,-554.6951 1306.9653,-552.2551 1293.4309,-542.6 1288.0065,-537.9141 1288.4792,-537.3311 1290.0499,-535.2565 1296.9513,-526.6812 1308.6945,-514.7054 1316.7067,-507.1392 1319.9298,-504.3477 1320.6528,-503.5798 1382.5966,-443.5157 1387.2318,-438.6011 1389.3549,-435.94 1398.9546,-426.7251 1405.5306,-419.9521 1410.6099,-414.3709 1422.0082,-400.2111 1421.9141,-398.8947 1424.6338,-396.4273 "/>
<polyline fill="none" stroke="#000000" points="1560.9436,-305.0191 1552.4408,-312.3941 1537.603,-323.9757 1530.5956,-328.8144 1450.9985,-376.812 1444.1062,-381.2647 1443.9885,-381.3458 1434.9751,-387.9484 1424.6338,-396.4273 1421.9141,-398.8947 1422.0082,-400.2111 1410.6099,-414.3709 1405.5306,-419.9521 1398.9546,-426.7251 1389.3549,-435.94 1387.2318,-438.6011 1382.5966,-443.5157 1320.6528,-503.5798 1319.9298,-504.3477 1316.7067,-507.1392 1308.6945,-514.7054 1296.9513,-526.6812 1290.0499,-535.2565 1288.4792,-537.3311 1288.0065,-537.9141 1293.4309,-542.6 1306.9653,-552.2551 1310.6509,-554.6951 1322.6135,-561.4317 1330.4366,-565.4378 1383.9392,-590.0643 1387.321,-591.7878 1403.2394,-601.5321 1418.0416,-612.8333 1422.0709,-616.3118 1424.124,-616.3508 1431.5554,-616.062 1436.5293,-616.1566 1437.7527,-616.1445 1437.774,-616.1449 1439.1084,-616.1317 1439.5038,-616.1507 1450.4124,-616.3587 1457.5281,-616.0817 1460.1788,-615.9014 1469.926,-615.5225 1473.0759,-615.2179 1489.387,-613.1669 1596.5018,-596.6351 1599.6066,-588.8454 1711.0234,-502.0085 1717.9531,-428.1186 1720.7987,-407.8315 1724.0878,-387.6814 1706.5649,-343.9735 1658.0811,-292.6593 1603.9049,-262.8665 1595.9235,-270.6884 1579.9828,-285.75 1576.2046,-289.868 1563.8131,-302.2775 1560.9436,-305.0191 "/>
<polyline fill="none" stroke="#000000" points="979.0959,-967.7464 967.2762,-980.3526 964.0074,-984.5994 925.9221,-1039.7288 913.4085,-1055.8048 909.1051,-1060.3945 891.9585,-1080.0822 884.3494,-1089.8988 873.4653,-1106.4271 862.0652,-1125.525 856.8962,-1134.5701 854.8006,-1138.3933 905.076,-1177.0719 983.6923,-1195.1838 994.8442,-1198.2128 1015.4554,-1205.0916 1018.8228,-1206.2834 1062.3861,-1224.3921 1086.2952,-1304.5127 1225.3137,-1359.6321 1243.2589,-1367.1528 1248.4984,-1369.4628 1252.5691,-1371.4362 1261.762,-1366.6333 1272.03,-1361.9709 1399.8567,-1306.8392 1402.2297,-1248.2233 1404.6626,-1210.2543 1406.0245,-1194.6731 1402.637,-1181.5811 1384.0664,-1102.1803 1421.5496,-1022.2506 1416.1418,-1016.5758 1412.0244,-1012.6754 1407.7533,-1008.4673 1402.8481,-1003.2285 1401.2335,-1001.6865 1386.5414,-969.624 1369.4889,-938.6055 1354.3026,-913.0709 1341.1694,-887.9768 1340.0564,-885.4191 1330.8998,-859.368 1314.2863,-827.786 1299.6532,-803.1816 1286.5155,-779.3325 1280.9154,-767.0133 1274.3828,-766.7646 1270.1599,-766.8967 1261.6746,-766.7721 1259.7009,-766.6524 1247.4417,-752.4465 1169.774,-657.1207 1168.7032,-655.9582 1134.4276,-664.4688 1121.0017,-666.5897 1113.2666,-667.345 1102.051,-667.7639 1096.8394,-668.1207 1095.5253,-668.131 1088.8011,-667.9805 1083.1643,-668.2036 1079.121,-668.1191 1066.6295,-668.6317 1053.0569,-670.0283 1044.7108,-671.3996 1036.0884,-673.6162 1024.644,-676.9146 1016.9858,-679.5934 1004.096,-684.9046 999.5018,-687.0811 982.6008,-695.617 966.6731,-705.621 960.875,-709.6185 961.2709,-722.9198 953.1506,-733.5438 953.0891,-733.6205 939.1457,-750.2027 930.616,-759.2877 926.8658,-762.827 918.2161,-771.6083 917.7172,-772.048 906.465,-783.737 902.2146,-787.4691 900.1162,-789.1522 840.2985,-832.764 827.1384,-844.4968 825.8765,-845.8197 818.373,-854.34 809.6306,-862.1639 802.1423,-869.7829 799.3956,-872.7466 798.2414,-874.0651 799.044,-881.1931 828.2161,-898.3678 840.778,-905.1937 842.1511,-905.8739 851.2019,-909.5265 862.0374,-913.3957 866.5219,-914.5733 877.8557,-917.0226 879.6132,-917.319 880.9679,-917.4843 891.5472,-917.7941 897.8355,-918.28 900.7228,-918.3669 905.05,-918.0921 916.8599,-918.4675 917.5705,-918.5237 918.3938,-918.6277 931.9171,-920.9861 934.5054,-921.6816 939.777,-923.3528 955.403,-929.0645 975.7475,-939.3679 978.7818,-958.65 979.0959,-967.7464 "/>
<polyline fill="none" stroke="#000000" points="802.1423,-869.7829 809.6306,-862.1639 818.373,-854.34 825.8765,-845.8197 827.1384,-844.4968 840.2985,-832.764 900.1162,-789.1522 902.2146,-787.4691 906.465,-783.737 917.7172,-772.048 918.2161,-771.6083 926.8658,-762.827 930.616,-759.2877 939.1457,-750.2027 953.0891,-733.6205 953.1506,-733.5438 961.2709,-722.9198 960.875,-709.6185 863.2109,-644.5198 867.3851,-636.4866 899.827,-577.5542 904.4003,-566.9724 922.1418,-519.3238 923.4824,-516.5831 956.0868,-457.3556 961.1883,-447.5277 892.7488,-373.618 878.1781,-358.5567 867.9509,-357.2729 850.2632,-354.7429 848.8347,-354.4889 835.5315,-351.8907 832.3134,-351.2065 824.0447,-349.3045 819.952,-348.2923 819.3219,-348.1255 801.2742,-256.3001 796.3085,-220.7288 794.4067,-209.5103 794.3427,-209.1891 786.9841,-165.5926 781.9537,-139.9984 721.6527,-69.0494 714.4985,-61.2293 702.8611,-65.2787 683.4492,-71.6965 672.3224,-75.1761 666.8082,-76.7021 648.3208,-80.8336 629.6966,-83.9982 561.9838,-91.8692 491.9632,-157.9955 473.3611,-227.5513 468.2508,-244.0191 469.6065,-258.3209 409.7921,-377.8308 408.8792,-379.5618 368.2572,-452.7784 352.852,-479.4982 335.4153,-489.4595 321.8875,-480.2378 224.4501,-411.6212 185.4368,-400.6506 132.2098,-399.2762 119.0421,-402.7679 108.5838,-405.1345 95.6612,-407.5562 90.2857,-408.3539 87.1352,-408.7601 71.0559,-410.2102 65.3453,-410.5027 50.1531,-410.6898 35.8421,-410.3086 5.1415,-408.8945 2.3971,-409.0738 -13.292,-412.8538 -36.2464,-423.5283 -108.4648,-526.3156 -109.2517,-527.389 -94.8009,-564.4941 -80.069,-607.9027 -50.2822,-660.1385 25.2948,-723.7544 24.4551,-740.6913 27.533,-771.5247 29.9123,-801.4064 32.8373,-876.8584 58.8684,-902.9928 184.5889,-970.5306 189.3782,-973.1995 190.4122,-973.7964 192.5031,-975.1337 210.6046,-968.5237 224.8794,-964.058 233.7319,-958.1492 235.6104,-957.0686 253.5747,-947.1318 256.192,-945.8041 395.6263,-878.2091 452.2313,-904.4371 477.5739,-912.6697 542.2108,-1012.997 624.9048,-1046.3887 636.4521,-1051.2991 658.5913,-1061.6548 660.8265,-1062.7919 664.373,-1064.7451 672.725,-1069.5229 674.7861,-1069.3907 675.0605,-1069.3774 683.1803,-1069.2417 690.0235,-1058.0878 702.9059,-1037.8678 733.531,-993.6925 753.0229,-961.4189 778.9921,-914.3065 798.6498,-881.7618 799.044,-881.1931 798.2414,-874.0651 799.3956,-872.7466 802.1423,-869.7829 "/>
<polyline fill="none" stroke="#000000" points="862.0652,-1125.525 873.4653,-1106.4271 884.3494,-1089.8988 891.9585,-1080.0822 909.1051,-1060.3945 913.4085,-1055.8048 925.9221,-1039.7288 964.0074,-984.5994 967.2762,-980.3526 979.0959,-967.7464 978.7818,-958.65 975.7475,-939.3679 955.403,-929.0645 939.777,-923.3528 934.5054,-921.6816 931.9171,-920.9861 918.3938,-918.6277 917.5705,-918.5237 916.8599,-918.4675 905.05,-918.0921 900.7228,-918.3669 897.8355,-918.28 891.5472,-917.7941 880.9679,-917.4843 879.6132,-917.319 877.8557,-917.0226 866.5219,-914.5733 862.0374,-913.3957 851.2019,-909.5265 842.1511,-905.8739 840.778,-905.1937 828.2161,-898.3678 799.044,-881.1931 798.6498,-881.7618 778.9921,-914.3065 753.0229,-961.4189 733.531,-993.6925 702.9059,-1037.8678 690.0235,-1058.0878 683.1803,-1069.2417 797.1821,-1133.1482 835.5817,-1135.7421 845.5175,-1136.9418 854.8006,-1138.3933 856.8962,-1134.5701 862.0652,-1125.525 "/>
<polyline fill="none" stroke="#000000" points="1435.7457,-784.9813 1432.7462,-784.7292 1427.7032,-785.0327 1418.0599,-784.698 1415.801,-784.5122 1413.5524,-784.5439 1411.5774,-784.6666 1409.6729,-784.6947 1401.4858,-784.4277 1390.0121,-783.5098 1377.6992,-780.7822 1303.7793,-757.427 1306.7375,-753.4636 1320.9584,-736.3495 1327.0255,-729.9093 1337.7418,-719.2726 1337.9332,-719.0658 1386.3685,-656.9169 1411.004,-628.5544 1412.9562,-626.6169 1422.0709,-616.3118 1424.124,-616.3508 1431.5554,-616.062 1436.5293,-616.1566 1437.7527,-616.1445 1437.774,-616.1449 1439.1084,-616.1317 1439.5038,-616.1507 1450.4124,-616.3587 1457.5281,-616.0817 1460.1788,-615.9014 1469.926,-615.5225 1473.0759,-615.2179 1489.387,-613.1669 1596.5018,-596.6351 1623.6135,-699.0551 1623.6608,-699.2068 1611.6387,-756.3571 1601.9895,-808.3073 1485.1091,-786.8525 1475.0646,-785.486 1468.9622,-784.9495 1458.7994,-785.0319 1456.7986,-784.9534 1456.407,-784.9194 1448.6433,-784.9926 1448.5797,-784.9962 1445.3883,-784.8772 1435.7457,-784.9813 "/>
<polyline fill="none" stroke="#000000" points="1407.7533,-1008.4673 1412.0244,-1012.6754 1416.1418,-1016.5758 1421.5496,-1022.2506 1426.1892,-1020.5915 1441.0924,-1015.5406 1452.0614,-1012.4427 1470.2433,-1007.9894 1496.2239,-1002.1205 1591.7623,-935.3237 1594.1106,-928.2072 1603.5625,-867.0877 1608.0018,-841.9623 1608.9482,-837.658 1601.9895,-808.3073 1485.1091,-786.8525 1475.0646,-785.486 1468.9622,-784.9495 1458.7994,-785.0319 1456.7986,-784.9534 1456.407,-784.9194 1448.6433,-784.9926 1448.5797,-784.9962 1445.3883,-784.8772 1435.7457,-784.9813 1432.7462,-784.7292 1427.7032,-785.0327 1418.0599,-784.698 1415.801,-784.5122 1413.5524,-784.5439 1411.5774,-784.6666 1409.6729,-784.6947 1401.4858,-784.4277 1390.0121,-783.5098 1377.6992,-780.7822 1303.7793,-757.427 1295.3148,-760.5204 1280.9154,-767.0133 1286.5155,-779.3325 1299.6532,-803.1816 1314.2863,-827.786 1330.8998,-859.368 1340.0564,-885.4191 1341.1694,-887.9768 1354.3026,-913.0709 1369.4889,-938.6055 1386.5414,-969.624 1401.2335,-1001.6865 1402.8481,-1003.2285 1407.7533,-1008.4673 "/>
<!-- device&#45;mapper&#45;libs&#45;&gt;Fedora Container Base -->
<g id="edge1" class="edge">
<title>device&#45;mapper&#45;libs&#45;&gt;Fedora Container Base</title>
<path fill="none" stroke="#444444" stroke-opacity="0.333333" d="M1384.6919,-303.7813C1319.4311,-353.6261 1136.536,-493.3175 1062.5545,-549.823"/>
<polygon fill="#444444" fill-opacity="0.333333" stroke="#444444" stroke-opacity="0.333333" points="1060.3218,-547.1241 1054.4991,-555.9755 1064.5708,-552.6871 1060.3218,-547.1241"/>
</g>
<!-- device&#45;mapper&#45;libs&#45;&gt;device&#45;mapper -->
<g id="edge2" class="edge">
<title>device&#45;mapper&#45;libs&#45;&gt;device&#45;mapper</title>
<path fill="none" stroke="#444444" stroke-opacity="0.333333" d="M1386.7169,-303.8109C1361.4233,-330.0607 1320.3764,-378.6929 1297.7625,-409.1188"/>
<polygon fill="#444444" fill-opacity="0.333333" stroke="#444444" stroke-opacity="0.333333" points="1294.6788,-407.4089 1291.6374,-417.5578 1300.3439,-411.5207 1294.6788,-407.4089"/>
</g>
<!-- device&#45;mapper&#45;&gt;Fedora Container Base -->
<g id="edge28" class="edge">
<title>device&#45;mapper&#45;&gt;Fedora Container Base</title>
<path fill="none" stroke="#444444" stroke-opacity="0.333333" d="M1248.9992,-453.9889C1203.4818,-479.0353 1121.1975,-524.313 1071.7501,-551.5219"/>
<polygon fill="#444444" fill-opacity="0.333333" stroke="#444444" stroke-opacity="0.333333" points="1069.9894,-548.4957 1062.9156,-556.3832 1073.3641,-554.6286 1069.9894,-548.4957"/>
</g>
<!-- device&#45;mapper&#45;&gt;device&#45;mapper&#45;libs -->
<g id="edge29" class="edge">
<title>device&#45;mapper&#45;&gt;device&#45;mapper&#45;libs</title>
<path fill="none" stroke="#444444" stroke-opacity="0.333333" d="M1303.3831,-417.8791C1328.6767,-391.6293 1369.7236,-342.9971 1392.3375,-312.5712"/>
<polygon fill="#444444" fill-opacity="0.333333" stroke="#444444" stroke-opacity="0.333333" points="1395.4212,-314.2811 1398.4626,-304.1322 1389.7561,-310.1693 1395.4212,-314.2811"/>
</g>
<!-- device&#45;mapper&#45;&gt;systemd -->
<g id="edge30" class="edge">
<title>device&#45;mapper&#45;&gt;systemd</title>
<path fill="none" stroke="#444444" stroke-opacity="0.333333" d="M1272.105,-454.4035C1243.4433,-508.988 1158.9936,-669.8174 1125.0091,-734.5388"/>
<polygon fill="#444444" fill-opacity="0.333333" stroke="#444444" stroke-opacity="0.333333" points="1121.7389,-733.2382 1120.1886,-743.719 1127.9364,-736.4925 1121.7389,-733.2382"/>
</g>
<!-- device&#45;mapper&#45;&gt;util&#45;linux -->
<g id="edge31" class="edge">
<title>device&#45;mapper&#45;&gt;util&#45;linux</title>
<path fill="none" stroke="#444444" stroke-opacity="0.333333" d="M1248.693,-454.1046C1227.707,-465.6188 1200.3752,-480.6148 1177.8727,-492.9611"/>
<polygon fill="#444444" fill-opacity="0.333333" stroke="#444444" stroke-opacity="0.333333" points="1175.9595,-490.0186 1168.876,-497.8973 1179.3266,-496.1556 1175.9595,-490.0186"/>
</g>
<!-- libargon2&#45;&gt;Fedora Container Base -->
<g id="edge3" class="edge">
<title>libargon2&#45;&gt;Fedora Container Base</title>
<path fill="none" stroke="#444444" stroke-opacity="0.333333" d="M1493.9614,-439.4379C1394.4205,-468.3638 1199.8549,-524.903 1097.4964,-554.6476"/>
<polygon fill="#444444" fill-opacity="0.333333" stroke="#444444" stroke-opacity="0.333333" points="1096.2106,-551.3764 1087.5845,-557.5279 1098.164,-558.0983 1096.2106,-551.3764"/>
</g>
<!-- dbus&#45;broker&#45;&gt;Fedora Container Base -->
<g id="edge4" class="edge">
<title>dbus&#45;broker&#45;&gt;Fedora Container Base</title>
<path fill="none" stroke="#444444" stroke-opacity="0.333333" d="M1085.9897,-940.6134C1076.7361,-879.032 1046.3443,-676.7791 1035.117,-602.0638"/>
<polygon fill="#444444" fill-opacity="0.333333" stroke="#444444" stroke-opacity="0.333333" points="1038.5516,-601.3664 1033.6044,-591.9975 1031.6293,-602.4066 1038.5516,-601.3664"/>
</g>
<!-- dbus&#45;broker&#45;&gt;dbus&#45;common -->
<g id="edge5" class="edge">
<title>dbus&#45;broker&#45;&gt;dbus&#45;common</title>
<path fill="none" stroke="#444444" stroke-opacity="0.333333" d="M1137.0131,-940.5987C1157.4105,-932.9775 1181.3301,-924.0404 1202.6575,-916.0718"/>
<polygon fill="#444444" fill-opacity="0.333333" stroke="#444444" stroke-opacity="0.333333" points="1204.1097,-919.2656 1212.2522,-912.4869 1201.6597,-912.7084 1204.1097,-919.2656"/>
</g>
<!-- dbus&#45;broker&#45;&gt;shadow&#45;utils -->
<g id="edge6" class="edge">
<title>dbus&#45;broker&#45;&gt;shadow&#45;utils</title>
<path fill="none" stroke="#444444" stroke-opacity="0.333333" d="M1062.1999,-940.6353C1011.6105,-906.2448 901.2832,-831.2448 844.6959,-792.7769"/>
<polygon fill="#444444" fill-opacity="0.333333" stroke="#444444" stroke-opacity="0.333333" points="846.6592,-789.8794 836.4214,-787.1519 842.7238,-795.6684 846.6592,-789.8794"/>
</g>
<!-- dbus&#45;broker&#45;&gt;systemd -->
<g id="edge7" class="edge">
<title>dbus&#45;broker&#45;&gt;systemd</title>
<path fill="none" stroke="#444444" stroke-opacity="0.333333" d="M1090.721,-940.5003C1094.5508,-906.1073 1102.8896,-831.2219 1107.456,-790.2146"/>
<polygon fill="#444444" fill-opacity="0.333333" stroke="#444444" stroke-opacity="0.333333" points="1110.9556,-790.4118 1108.5838,-780.0859 1103.9986,-789.6371 1110.9556,-790.4118"/>
</g>
<!-- dbus&#45;common&#45;&gt;Fedora Container Base -->
<g id="edge8" class="edge">
<title>dbus&#45;common&#45;&gt;Fedora Container Base</title>
<path fill="none" stroke="#444444" stroke-opacity="0.333333" d="M1247.4979,-876.3125C1208.9011,-822.4418 1094.8701,-663.2851 1049.6662,-600.1926"/>
<polygon fill="#444444" fill-opacity="0.333333" stroke="#444444" stroke-opacity="0.333333" points="1052.4288,-598.039 1043.7595,-591.9485 1046.7386,-602.1159 1052.4288,-598.039"/>
</g>
<!-- dbus&#45;common&#45;&gt;systemd -->
<g id="edge9" class="edge">
<title>dbus&#45;common&#45;&gt;systemd</title>
<path fill="none" stroke="#444444" stroke-opacity="0.333333" d="M1239.9714,-876.317C1213.8792,-853.257 1168.6956,-813.3243 1139.2276,-787.2807"/>
<polygon fill="#444444" fill-opacity="0.333333" stroke="#444444" stroke-opacity="0.333333" points="1141.1726,-784.3287 1131.3617,-780.329 1136.537,-789.5739 1141.1726,-784.3287"/>
</g>
<!-- shadow&#45;utils&#45;&gt;Fedora Container Base -->
<g id="edge10" class="edge">
<title>shadow&#45;utils&#45;&gt;Fedora Container Base</title>
<path fill="none" stroke="#444444" stroke-opacity="0.333333" d="M830.5009,-750.6368C870.4766,-715.4012 958.0214,-638.237 1003.0033,-598.5889"/>
<polygon fill="#444444" fill-opacity="0.333333" stroke="#444444" stroke-opacity="0.333333" points="1005.4382,-601.1082 1010.6258,-591.8702 1000.8096,-595.8569 1005.4382,-601.1082"/>
</g>
<!-- shadow&#45;utils&#45;&gt;libsemanage -->
<g id="edge11" class="edge">
<title>shadow&#45;utils&#45;&gt;libsemanage</title>
<path fill="none" stroke="#444444" stroke-opacity="0.333333" d="M788.7875,-787.1386C763.9821,-808.6878 722.4886,-844.7345 694.6752,-868.8969"/>
<polygon fill="#444444" fill-opacity="0.333333" stroke="#444444" stroke-opacity="0.333333" points="692.1215,-866.479 686.8677,-875.6795 696.7123,-871.7634 692.1215,-866.479"/>
</g>
<!-- systemd&#45;&gt;Fedora Container Base -->
<g id="edge12" class="edge">
<title>systemd&#45;&gt;Fedora Container Base</title>
<path fill="none" stroke="#444444" stroke-opacity="0.333333" d="M1102.958,-743.9557C1088.9798,-710.9868 1059.21,-640.7718 1042.6431,-601.6972"/>
<polygon fill="#444444" fill-opacity="0.333333" stroke="#444444" stroke-opacity="0.333333" points="1045.7618,-600.0864 1038.6359,-592.2459 1039.3171,-602.8189 1045.7618,-600.0864"/>
</g>
<!-- systemd&#45;&gt;shadow&#45;utils -->
<g id="edge13" class="edge">
<title>systemd&#45;&gt;shadow&#45;utils</title>
<path fill="none" stroke="#444444" stroke-opacity="0.333333" d="M1048.9803,-763.4134C1003.1348,-764.4799 940.1444,-765.9453 890.299,-767.1048"/>
<polygon fill="#444444" fill-opacity="0.333333" stroke="#444444" stroke-opacity="0.333333" points="890.1099,-763.6082 880.194,-767.3399 890.2727,-770.6063 890.1099,-763.6082"/>
</g>
<!-- systemd&#45;&gt;util&#45;linux -->
<g id="edge14" class="edge">
<title>systemd&#45;&gt;util&#45;linux</title>
<path fill="none" stroke="#444444" stroke-opacity="0.333333" d="M1112.4604,-743.8918C1116.8284,-701.4216 1127.766,-595.0761 1133.009,-544.0993"/>
<polygon fill="#444444" fill-opacity="0.333333" stroke="#444444" stroke-opacity="0.333333" points="1136.4953,-544.4104 1134.0369,-534.1047 1129.5321,-543.6942 1136.4953,-544.4104"/>
</g>
<!-- systemd&#45;&gt;acl -->
<g id="edge15" class="edge">
<title>systemd&#45;&gt;acl</title>
<path fill="none" stroke="#444444" stroke-opacity="0.333333" d="M1103.8441,-780.0032C1085.5473,-828.8149 1034.9391,-963.8264 1012.9848,-1022.3958"/>
<polygon fill="#444444" fill-opacity="0.333333" stroke="#444444" stroke-opacity="0.333333" points="1009.586,-1021.4913 1009.3533,-1032.0836 1016.1407,-1023.9483 1009.586,-1021.4913"/>
</g>
<!-- systemd&#45;&gt;cryptsetup&#45;libs -->
<g id="edge16" class="edge">
<title>systemd&#45;&gt;cryptsetup&#45;libs</title>
<path fill="none" stroke="#444444" stroke-opacity="0.333333" d="M1133.1524,-743.6896C1187.4335,-699.6665 1325.4031,-587.7703 1386.9072,-537.8892"/>
<polygon fill="#444444" fill-opacity="0.333333" stroke="#444444" stroke-opacity="0.333333" points="1389.1524,-540.5747 1394.7146,-531.5573 1384.7431,-535.1379 1389.1524,-540.5747"/>
</g>
<!-- systemd&#45;&gt;dbus -->
<g id="edge17" class="edge">
<title>systemd&#45;&gt;dbus</title>
<path fill="none" stroke="#444444" stroke-opacity="0.333333" d="M1116.3505,-780.2353C1138.3473,-850.0649 1217.2543,-1100.5588 1243.9217,-1185.2153"/>
<polygon fill="#444444" fill-opacity="0.333333" stroke="#444444" stroke-opacity="0.333333" points="1240.635,-1186.4312 1246.9779,-1194.9175 1247.3116,-1184.328 1240.635,-1186.4312"/>
</g>
<!-- systemd&#45;&gt;iptables&#45;libs -->
<g id="edge18" class="edge">
<title>systemd&#45;&gt;iptables&#45;libs</title>
<path fill="none" stroke="#444444" stroke-opacity="0.333333" d="M1108.6113,-743.7512C1101.4404,-678.021 1076.8744,-452.8438 1068.1253,-372.647"/>
<polygon fill="#444444" fill-opacity="0.333333" stroke="#444444" stroke-opacity="0.333333" points="1071.5631,-371.8862 1066.9992,-362.3248 1064.6044,-372.6454 1071.5631,-371.8862"/>
</g>
<!-- systemd&#45;&gt;kmod&#45;libs -->
<g id="edge19" class="edge">
<title>systemd&#45;&gt;kmod&#45;libs</title>
<path fill="none" stroke="#444444" stroke-opacity="0.333333" d="M1074.8716,-780.0072C1045.6102,-794.7713 1004.0446,-815.7437 972.5209,-831.6494"/>
<polygon fill="#444444" fill-opacity="0.333333" stroke="#444444" stroke-opacity="0.333333" points="970.8519,-828.5712 963.5006,-836.2007 974.0052,-834.8207 970.8519,-828.5712"/>
</g>
<!-- systemd&#45;&gt;libfdisk -->
<g id="edge20" class="edge">
<title>systemd&#45;&gt;libfdisk</title>
<path fill="none" stroke="#444444" stroke-opacity="0.333333" d="M1138.4581,-743.9298C1171.3651,-722.6082 1226.2215,-687.0649 1262.6012,-663.4932"/>
<polygon fill="#444444" fill-opacity="0.333333" stroke="#444444" stroke-opacity="0.333333" points="1264.9385,-666.1493 1271.4276,-657.7743 1261.132,-660.2747 1264.9385,-666.1493"/>
</g>
<!-- systemd&#45;&gt;libseccomp -->
<g id="edge21" class="edge">
<title>systemd&#45;&gt;libseccomp</title>
<path fill="none" stroke="#444444" stroke-opacity="0.333333" d="M1118.9092,-780.2101C1138.5411,-823.2822 1187.8847,-931.5413 1211.1254,-982.5309"/>
<polygon fill="#444444" fill-opacity="0.333333" stroke="#444444" stroke-opacity="0.333333" points="1207.9464,-983.9954 1215.2787,-991.6431 1214.316,-981.0921 1207.9464,-983.9954"/>
</g>
<!-- systemd&#45;&gt;qrencode&#45;libs -->
<g id="edge22" class="edge">
<title>systemd&#45;&gt;qrencode&#45;libs</title>
<path fill="none" stroke="#444444" stroke-opacity="0.333333" d="M1090.3049,-780.3361C1046.7891,-819.6945 944.4686,-912.2395 895.1668,-956.8312"/>
<polygon fill="#444444" fill-opacity="0.333333" stroke="#444444" stroke-opacity="0.333333" points="892.7952,-954.2569 887.7265,-963.5607 897.4907,-959.4485 892.7952,-954.2569"/>
</g>
<!-- systemd&#45;&gt;systemd&#45;pam -->
<g id="edge23" class="edge">
<title>systemd&#45;&gt;systemd&#45;pam</title>
<path fill="none" stroke="#444444" stroke-opacity="0.333333" d="M1172.4597,-759.4813C1224.4163,-754.4566 1299.3031,-745.1336 1357.6368,-736.5509"/>
<polygon fill="#444444" fill-opacity="0.333333" stroke="#444444" stroke-opacity="0.333333" points="1358.2113,-740.004 1367.587,-735.0698 1357.1806,-733.0803 1358.2113,-740.004"/>
</g>
<!-- systemd&#45;&gt;systemd&#45;rpm&#45;macros -->
<g id="edge24" class="edge">
<title>systemd&#45;&gt;systemd&#45;rpm&#45;macros</title>
<path fill="none" stroke="#444444" stroke-opacity="0.333333" d="M1172.4372,-779.7768C1222.4477,-794.1699 1292.9531,-814.4614 1345.5947,-829.6117"/>
<polygon fill="#444444" fill-opacity="0.333333" stroke="#444444" stroke-opacity="0.333333" points="1344.6293,-832.9758 1355.2072,-832.3782 1346.5653,-826.2489 1344.6293,-832.9758"/>
</g>
<!-- libsemanage&#45;&gt;Fedora Container Base -->
<g id="edge44" class="edge">
<title>libsemanage&#45;&gt;Fedora Container Base</title>
<path fill="none" stroke="#444444" stroke-opacity="0.333333" d="M686.6075,-875.7465C748.4607,-821.5368 932.1898,-660.512 1002.8114,-598.6175"/>
<polygon fill="#444444" fill-opacity="0.333333" stroke="#444444" stroke-opacity="0.333333" points="1005.2456,-601.1382 1010.4592,-591.9149 1000.6318,-595.8738 1005.2456,-601.1382"/>
</g>
<!-- util&#45;linux&#45;&gt;Fedora Container Base -->
<g id="edge25" class="edge">
<title>util&#45;linux&#45;&gt;Fedora Container Base</title>
<path fill="none" stroke="#444444" stroke-opacity="0.333333" d="M1103.2529,-534.0267C1093.2887,-539.5317 1082.2055,-545.6549 1071.7682,-551.4213"/>
<polygon fill="#444444" fill-opacity="0.333333" stroke="#444444" stroke-opacity="0.333333" points="1069.867,-548.473 1062.8066,-556.3724 1073.2521,-554.6001 1069.867,-548.473"/>
</g>
<!-- util&#45;linux&#45;&gt;libfdisk -->
<g id="edge26" class="edge">
<title>util&#45;linux&#45;&gt;libfdisk</title>
<path fill="none" stroke="#444444" stroke-opacity="0.333333" d="M1160.025,-534.2365C1188.4831,-555.7602 1235.897,-591.6208 1267.4023,-615.4492"/>
<polygon fill="#444444" fill-opacity="0.333333" stroke="#444444" stroke-opacity="0.333333" points="1265.3554,-618.2893 1275.4424,-621.5301 1269.578,-612.7063 1265.3554,-618.2893"/>
</g>
<!-- util&#45;linux&#45;&gt;libutempter -->
<g id="edge27" class="edge">
<title>util&#45;linux&#45;&gt;libutempter</title>
<path fill="none" stroke="#444444" stroke-opacity="0.333333" d="M1071.2744,-516.491C1023.0245,-516.8651 956.8665,-517.378 905.6634,-517.775"/>
<polygon fill="#444444" fill-opacity="0.333333" stroke="#444444" stroke-opacity="0.333333" points="905.6044,-514.2752 895.6319,-517.8527 905.6587,-521.275 905.6044,-514.2752"/>
</g>
<!-- acl&#45;&gt;Fedora Container Base -->
<g id="edge45" class="edge">
<title>acl&#45;&gt;Fedora Container Base</title>
<path fill="none" stroke="#444444" stroke-opacity="0.333333" d="M1003.6748,-1032.0177C1007.9781,-959.6219 1023.9838,-690.354 1029.226,-602.163"/>
<polygon fill="#444444" fill-opacity="0.333333" stroke="#444444" stroke-opacity="0.333333" points="1032.7245,-602.2904 1029.8241,-592.1004 1025.7368,-601.875 1032.7245,-602.2904"/>
</g>
<!-- cryptsetup&#45;libs&#45;&gt;Fedora Container Base -->
<g id="edge46" class="edge">
<title>cryptsetup&#45;libs&#45;&gt;Fedora Container Base</title>
<path fill="none" stroke="#444444" stroke-opacity="0.333333" d="M1340.0349,-525.3897C1279.2847,-534.9424 1194.2661,-548.3113 1128.761,-558.6117"/>
<polygon fill="#444444" fill-opacity="0.333333" stroke="#444444" stroke-opacity="0.333333" points="1128.168,-555.1619 1118.8331,-560.1728 1129.2554,-562.0769 1128.168,-555.1619"/>
</g>
<!-- cryptsetup&#45;libs&#45;&gt;device&#45;mapper&#45;libs -->
<g id="edge47" class="edge">
<title>cryptsetup&#45;libs&#45;&gt;device&#45;mapper&#45;libs</title>
<path fill="none" stroke="#444444" stroke-opacity="0.333333" d="M1416.5787,-495.0081C1415.0114,-455.3929 1411.2861,-361.2274 1409.4141,-313.9097"/>
<polygon fill="#444444" fill-opacity="0.333333" stroke="#444444" stroke-opacity="0.333333" points="1412.9049,-313.6068 1409.0122,-303.753 1405.9104,-313.8835 1412.9049,-313.6068"/>
</g>
<!-- cryptsetup&#45;libs&#45;&gt;libargon2 -->
<g id="edge48" class="edge">
<title>cryptsetup&#45;libs&#45;&gt;libargon2</title>
<path fill="none" stroke="#444444" stroke-opacity="0.333333" d="M1444.7027,-495.0973C1466.3591,-480.7591 1496.7574,-460.6331 1520.314,-445.0369"/>
<polygon fill="#444444" fill-opacity="0.333333" stroke="#444444" stroke-opacity="0.333333" points="1522.2483,-447.9538 1528.6543,-439.515 1518.3839,-442.1171 1522.2483,-447.9538"/>
</g>
<!-- dbus&#45;&gt;dbus&#45;broker -->
<g id="edge49" class="edge">
<title>dbus&#45;&gt;dbus&#45;broker</title>
<path fill="none" stroke="#444444" stroke-opacity="0.333333" d="M1240.9983,-1195.079C1212.4356,-1150.738 1139.4759,-1037.4748 1105.9827,-985.4798"/>
<polygon fill="#444444" fill-opacity="0.333333" stroke="#444444" stroke-opacity="0.333333" points="1108.7525,-983.3164 1100.3947,-976.805 1102.8677,-987.1072 1108.7525,-983.3164"/>
</g>
<!-- iptables&#45;libs&#45;&gt;Fedora Container Base -->
<g id="edge50" class="edge">
<title>iptables&#45;libs&#45;&gt;Fedora Container Base</title>
<path fill="none" stroke="#444444" stroke-opacity="0.333333" d="M1062.3242,-362.0477C1056.4126,-401.9212 1042.2012,-497.7747 1035.0944,-545.7092"/>
<polygon fill="#444444" fill-opacity="0.333333" stroke="#444444" stroke-opacity="0.333333" points="1031.615,-545.3127 1033.6105,-555.7179 1038.5393,-546.3393 1031.615,-545.3127"/>
</g>
<!-- iptables&#45;libs&#45;&gt;libnetfilter_conntrack -->
<g id="edge51" class="edge">
<title>iptables&#45;libs&#45;&gt;libnetfilter_conntrack</title>
<path fill="none" stroke="#444444" stroke-opacity="0.333333" d="M1068.9225,-325.6994C1076.6713,-289.5465 1093.9861,-208.762 1103.1861,-165.8386"/>
<polygon fill="#444444" fill-opacity="0.333333" stroke="#444444" stroke-opacity="0.333333" points="1106.6128,-166.5511 1105.2863,-156.0396 1099.7682,-165.084 1106.6128,-166.5511"/>
</g>
<!-- iptables&#45;libs&#45;&gt;libpcap -->
<g id="edge52" class="edge">
<title>iptables&#45;libs&#45;&gt;libpcap</title>
<path fill="none" stroke="#444444" stroke-opacity="0.333333" d="M1048.0704,-325.9687C1024.1752,-300.5185 980.437,-253.9339 953.1872,-224.9108"/>
<polygon fill="#444444" fill-opacity="0.333333" stroke="#444444" stroke-opacity="0.333333" points="955.6994,-222.4731 946.3029,-217.5785 950.5962,-227.2645 955.6994,-222.4731"/>
</g>
<!-- kmod&#45;libs&#45;&gt;Fedora Container Base -->
<g id="edge53" class="edge">
<title>kmod&#45;libs&#45;&gt;Fedora Container Base</title>
<path fill="none" stroke="#444444" stroke-opacity="0.333333" d="M934.3311,-835.9461C952.0392,-787.9124 999.7512,-658.4922 1020.7476,-601.5388"/>
<polygon fill="#444444" fill-opacity="0.333333" stroke="#444444" stroke-opacity="0.333333" points="1024.0532,-602.6906 1024.2283,-592.0972 1017.4853,-600.2692 1024.0532,-602.6906"/>
</g>
<!-- libfdisk&#45;&gt;Fedora Container Base -->
<g id="edge54" class="edge">
<title>libfdisk&#45;&gt;Fedora Container Base</title>
<path fill="none" stroke="#444444" stroke-opacity="0.333333" d="M1239.1434,-624.9169C1199.78,-615.2923 1148.0743,-602.6499 1106.0333,-592.3706"/>
<polygon fill="#444444" fill-opacity="0.333333" stroke="#444444" stroke-opacity="0.333333" points="1106.6651,-588.922 1096.1199,-589.9467 1105.0025,-595.7217 1106.6651,-588.922"/>
</g>
<!-- libseccomp&#45;&gt;Fedora Container Base -->
<g id="edge55" class="edge">
<title>libseccomp&#45;&gt;Fedora Container Base</title>
<path fill="none" stroke="#444444" stroke-opacity="0.333333" d="M1215.5653,-991.7249C1185.4482,-923.5981 1079.1394,-683.1207 1043.0165,-601.4083"/>
<polygon fill="#444444" fill-opacity="0.333333" stroke="#444444" stroke-opacity="0.333333" points="1046.2135,-599.9837 1038.969,-592.2527 1039.8112,-602.814 1046.2135,-599.9837"/>
</g>
<!-- qrencode&#45;libs&#45;&gt;Fedora Container Base -->
<g id="edge56" class="edge">
<title>qrencode&#45;libs&#45;&gt;Fedora Container Base</title>
<path fill="none" stroke="#444444" stroke-opacity="0.333333" d="M874.8848,-963.6651C900.6904,-899.213 988.4358,-680.0591 1019.7128,-601.9414"/>
<polygon fill="#444444" fill-opacity="0.333333" stroke="#444444" stroke-opacity="0.333333" points="1023.1056,-602.8836 1023.5734,-592.2991 1016.6071,-600.2816 1023.1056,-602.8836"/>
</g>
<!-- systemd&#45;pam&#45;&gt;Fedora Container Base -->
<g id="edge57" class="edge">
<title>systemd&#45;pam&#45;&gt;Fedora Container Base</title>
<path fill="none" stroke="#444444" stroke-opacity="0.333333" d="M1394.5292,-701.0514C1316.6786,-673.8505 1169.9513,-622.5843 1088.7044,-594.1968"/>
<polygon fill="#444444" fill-opacity="0.333333" stroke="#444444" stroke-opacity="0.333333" points="1089.7247,-590.8458 1079.1299,-590.8514 1087.4158,-597.4541 1089.7247,-590.8458"/>
</g>
<!-- systemd&#45;pam&#45;&gt;systemd -->
<g id="edge58" class="edge">
<title>systemd&#45;pam&#45;&gt;systemd</title>
<path fill="none" stroke="#444444" stroke-opacity="0.333333" d="M1367.7056,-723.3219C1311.5612,-729.1663 1236.6292,-738.7748 1182.1502,-747.1395"/>
<polygon fill="#444444" fill-opacity="0.333333" stroke="#444444" stroke-opacity="0.333333" points="1181.567,-743.6881 1172.2249,-748.6857 1182.6445,-750.6046 1181.567,-743.6881"/>
</g>
<!-- systemd&#45;rpm&#45;macros&#45;&gt;Fedora Container Base -->
<g id="edge59" class="edge">
<title>systemd&#45;rpm&#45;macros&#45;&gt;Fedora Container Base</title>
<path fill="none" stroke="#444444" stroke-opacity="0.333333" d="M1392.6013,-832.3113C1324.902,-783.9635 1140.1208,-652.0007 1064.1722,-597.7616"/>
<polygon fill="#444444" fill-opacity="0.333333" stroke="#444444" stroke-opacity="0.333333" points="1066.0609,-594.8095 1055.889,-591.8461 1061.9927,-600.506 1066.0609,-594.8095"/>
</g>
<!-- libutempter&#45;&gt;Fedora Container Base -->
<g id="edge60" class="edge">
<title>libutempter&#45;&gt;Fedora Container Base</title>
<path fill="none" stroke="#444444" stroke-opacity="0.333333" d="M893.6192,-536.4382C915.3344,-542.3798 939.5349,-549.0013 961.4956,-555.0101"/>
<polygon fill="#444444" fill-opacity="0.333333" stroke="#444444" stroke-opacity="0.333333" points="960.842,-558.4598 971.4112,-557.7231 962.6894,-551.708 960.842,-558.4598"/>
</g>
<!-- libutempter&#45;&gt;shadow&#45;utils -->
<g id="edge61" class="edge">
<title>libutempter&#45;&gt;shadow&#45;utils</title>
<path fill="none" stroke="#444444" stroke-opacity="0.333333" d="M826.3305,-536.4025C823.2495,-579.4649 815.4405,-688.6083 811.7205,-740.6011"/>
<polygon fill="#444444" fill-opacity="0.333333" stroke="#444444" stroke-opacity="0.333333" points="808.2146,-740.5597 810.9919,-750.784 815.1967,-741.0594 808.2146,-740.5597"/>
</g>
<!-- libunwind&#45;&gt;Fedora Container Base -->
<g id="edge32" class="edge">
<title>libunwind&#45;&gt;Fedora Container Base</title>
<path fill="none" stroke="#444444" stroke-opacity="0.333333" d="M679.0511,-258.2228C741.5553,-314.3191 931.3977,-484.6988 1003.0892,-549.0404"/>
<polygon fill="#444444" fill-opacity="0.333333" stroke="#444444" stroke-opacity="0.333333" points="1001.0576,-551.9199 1010.8376,-555.9944 1005.7331,-546.7103 1001.0576,-551.9199"/>
</g>
<!-- libnetfilter_conntrack&#45;&gt;Fedora Container Base -->
<g id="edge33" class="edge">
<title>libnetfilter_conntrack&#45;&gt;Fedora Container Base</title>
<path fill="none" stroke="#444444" stroke-opacity="0.333333" d="M1105.9352,-155.9685C1093.735,-223.9374 1050.7643,-463.3334 1035.9584,-545.8192"/>
<polygon fill="#444444" fill-opacity="0.333333" stroke="#444444" stroke-opacity="0.333333" points="1032.5006,-545.2728 1034.1787,-555.7339 1039.3905,-546.5096 1032.5006,-545.2728"/>
</g>
<!-- libnetfilter_conntrack&#45;&gt;libmnl -->
<g id="edge34" class="edge">
<title>libnetfilter_conntrack&#45;&gt;libmnl</title>
<path fill="none" stroke="#444444" stroke-opacity="0.333333" d="M1108.4254,-119.588C1107.5979,-100.1527 1106.2752,-69.0868 1105.3101,-46.4206"/>
<polygon fill="#444444" fill-opacity="0.333333" stroke="#444444" stroke-opacity="0.333333" points="1108.8042,-46.2052 1104.8819,-36.3632 1101.8105,-46.5031 1108.8042,-46.2052"/>
</g>
<!-- libnetfilter_conntrack&#45;&gt;libnfnetlink -->
<g id="edge35" class="edge">
<title>libnetfilter_conntrack&#45;&gt;libnfnetlink</title>
<path fill="none" stroke="#444444" stroke-opacity="0.333333" d="M1066.7959,-119.6898C1038.7163,-107.7106 1001.7119,-91.9239 971.9137,-79.2115"/>
<polygon fill="#444444" fill-opacity="0.333333" stroke="#444444" stroke-opacity="0.333333" points="973.0839,-75.9056 962.5125,-75.2009 970.3371,-82.3442 973.0839,-75.9056"/>
</g>
<!-- libmnl&#45;&gt;Fedora Container Base -->
<g id="edge37" class="edge">
<title>libmnl&#45;&gt;Fedora Container Base</title>
<path fill="none" stroke="#444444" stroke-opacity="0.333333" d="M1101.7061,-36.183C1091.0189,-117.3593 1047.6242,-446.9692 1034.608,-545.8351"/>
<polygon fill="#444444" fill-opacity="0.333333" stroke="#444444" stroke-opacity="0.333333" points="1031.1109,-545.5844 1033.2756,-555.9557 1038.051,-546.4982 1031.1109,-545.5844"/>
</g>
<!-- libnfnetlink&#45;&gt;Fedora Container Base -->
<g id="edge38" class="edge">
<title>libnfnetlink&#45;&gt;Fedora Container Base</title>
<path fill="none" stroke="#444444" stroke-opacity="0.333333" d="M924.1232,-75.2622C940.5867,-152.1605 1004.8283,-452.223 1024.8842,-545.901"/>
<polygon fill="#444444" fill-opacity="0.333333" stroke="#444444" stroke-opacity="0.333333" points="1021.4848,-546.7421 1027.0009,-555.7878 1028.3297,-545.2766 1021.4848,-546.7421"/>
</g>
<!-- libpcap&#45;&gt;Fedora Container Base -->
<g id="edge36" class="edge">
<title>libpcap&#45;&gt;Fedora Container Base</title>
<path fill="none" stroke="#444444" stroke-opacity="0.333333" d="M934.0671,-217.3916C950.4487,-277.7202 1003.3368,-472.4924 1023.2348,-545.7712"/>
<polygon fill="#444444" fill-opacity="0.333333" stroke="#444444" stroke-opacity="0.333333" points="1019.9247,-546.9374 1025.9229,-555.6708 1026.68,-545.103 1019.9247,-546.9374"/>
</g>
<!-- gperftools&#45;libs&#45;&gt;Fedora Container Base -->
<g id="edge39" class="edge">
<title>gperftools&#45;libs&#45;&gt;Fedora Container Base</title>
<path fill="none" stroke="#444444" stroke-opacity="0.333333" d="M635.0405,-418.0122C717.6052,-450.5467 890.3683,-518.6237 977.795,-553.0741"/>
<polygon fill="#444444" fill-opacity="0.333333" stroke="#444444" stroke-opacity="0.333333" points="976.6713,-556.3931 987.2582,-556.803 979.2376,-549.8805 976.6713,-556.3931"/>
</g>
<!-- gperftools&#45;libs&#45;&gt;libunwind -->
<g id="edge40" class="edge">
<title>gperftools&#45;libs&#45;&gt;libunwind</title>
<path fill="none" stroke="#444444" stroke-opacity="0.333333" d="M596.869,-381.845C609.0144,-354.0245 632.4156,-300.421 646.7111,-267.6755"/>
<polygon fill="#444444" fill-opacity="0.333333" stroke="#444444" stroke-opacity="0.333333" points="650.0393,-268.7994 650.8327,-258.2343 643.624,-265.9987 650.0393,-268.7994"/>
</g>
<!-- nginx&#45;filesystem&#45;&gt;Fedora Container Base -->
<g id="edge41" class="edge">
<title>nginx&#45;filesystem&#45;&gt;Fedora Container Base</title>
<path fill="none" stroke="#444444" stroke-opacity="0.333333" d="M585.8537,-735.0042C678.6957,-701.4168 876.5987,-629.8215 974.145,-594.5322"/>
<polygon fill="#444444" fill-opacity="0.333333" stroke="#444444" stroke-opacity="0.333333" points="975.6189,-597.7211 983.8318,-591.0278 973.2375,-591.1386 975.6189,-597.7211"/>
</g>
<!-- nginx&#45;filesystem&#45;&gt;shadow&#45;utils -->
<g id="edge42" class="edge">
<title>nginx&#45;filesystem&#45;&gt;shadow&#45;utils</title>
<path fill="none" stroke="#444444" stroke-opacity="0.333333" d="M611.9782,-757.574C648.3147,-759.6702 691.7862,-762.1781 728.7019,-764.3078"/>
<polygon fill="#444444" fill-opacity="0.333333" stroke="#444444" stroke-opacity="0.333333" points="728.7438,-767.8159 738.9288,-764.8978 729.147,-760.8275 728.7438,-767.8159"/>
</g>
<!-- nginx&#45;mimetypes&#45;&gt;nginx&#45;filesystem -->
<g id="edge43" class="edge">
<title>nginx&#45;mimetypes&#45;&gt;nginx&#45;filesystem</title>
<path fill="none" stroke="#444444" stroke-opacity="0.333333" d="M305.8866,-781.0407C350.5873,-775.6182 404.9911,-769.0186 449.6361,-763.6029"/>
<polygon fill="#444444" fill-opacity="0.333333" stroke="#444444" stroke-opacity="0.333333" points="450.0841,-767.0743 459.5898,-762.3954 449.241,-760.1252 450.0841,-767.0743"/>
</g>
<!-- nginx&#45;&gt;Fedora Container Base -->
<g id="edge62" class="edge">
<title>nginx&#45;&gt;Fedora Container Base</title>
<path fill="none" stroke="#444444" stroke-opacity="0.333333" d="M628.2604,-618.1324C705.9849,-609.6132 826.4433,-596.41 915.3672,-586.6633"/>
<polygon fill="#444444" fill-opacity="0.333333" stroke="#444444" stroke-opacity="0.333333" points="915.9446,-590.121 925.5037,-585.5522 915.1819,-583.1627 915.9446,-590.121"/>
</g>
<!-- nginx&#45;&gt;systemd -->
<g id="edge63" class="edge">
<title>nginx&#45;&gt;systemd</title>
<path fill="none" stroke="#444444" stroke-opacity="0.333333" d="M625.2098,-644.6907C733.3973,-670.8331 932.4233,-718.9255 1038.9162,-744.6584"/>
<polygon fill="#444444" fill-opacity="0.333333" stroke="#444444" stroke-opacity="0.333333" points="1038.3846,-748.1306 1048.927,-747.0774 1040.0288,-741.3264 1038.3846,-748.1306"/>
</g>
<!-- nginx&#45;&gt;fedora&#45;logos&#45;httpd -->
<g id="edge64" class="edge">
<title>nginx&#45;&gt;fedora&#45;logos&#45;httpd</title>
<path fill="none" stroke="#444444" stroke-opacity="0.333333" d="M472.9985,-614.3442C392.4483,-601.5625 266.2547,-581.5381 179.2368,-567.7302"/>
<polygon fill="#444444" fill-opacity="0.333333" stroke="#444444" stroke-opacity="0.333333" points="179.7803,-564.2727 169.3553,-566.1622 178.6832,-571.1862 179.7803,-564.2727"/>
</g>
<!-- nginx&#45;&gt;gperftools&#45;libs -->
<g id="edge65" class="edge">
<title>nginx&#45;&gt;gperftools&#45;libs</title>
<path fill="none" stroke="#444444" stroke-opacity="0.333333" d="M553.6315,-608.475C560.3248,-568.998 576.2312,-475.1811 584.2316,-427.994"/>
<polygon fill="#444444" fill-opacity="0.333333" stroke="#444444" stroke-opacity="0.333333" points="587.6828,-428.576 585.9038,-418.1316 580.7813,-427.4058 587.6828,-428.576"/>
</g>
<!-- nginx&#45;&gt;nginx&#45;filesystem -->
<g id="edge66" class="edge">
<title>nginx&#45;&gt;nginx&#45;filesystem</title>
<path fill="none" stroke="#444444" stroke-opacity="0.333333" d="M548.4138,-644.7772C545.9447,-665.7283 541.8516,-700.4606 538.9652,-724.9534"/>
<polygon fill="#444444" fill-opacity="0.333333" stroke="#444444" stroke-opacity="0.333333" points="535.4668,-724.7355 537.7723,-735.0764 542.4187,-725.5548 535.4668,-724.7355"/>
</g>
<!-- nginx&#45;&gt;nginx&#45;mimetypes -->
<g id="edge67" class="edge">
<title>nginx&#45;&gt;nginx&#45;mimetypes</title>
<path fill="none" stroke="#444444" stroke-opacity="0.333333" d="M514.1749,-644.7656C453.2958,-675.0847 330.9369,-736.022 264.6522,-769.0332"/>
<polygon fill="#444444" fill-opacity="0.333333" stroke="#444444" stroke-opacity="0.333333" points="263.0746,-765.9088 255.6835,-773.4998 266.1952,-772.1748 263.0746,-765.9088"/>
</g>
<!-- Fedora Container Base -->
<g id="node1" class="node">
<title>Fedora Container Base</title>
<ellipse fill="none" stroke="#000000" cx="1030.9" cy="-574" rx="136.5" ry="18"/>
<text text-anchor="middle" x="1030.9" y="-570.3" font-family="Helvetica,sans-Serif" font-weight="bold" font-size="14.00" fill="#000000">Fedora Container Base (201.6 MB)</text>
</g>
<!-- device&#45;mapper&#45;libs -->
<g id="node2" class="node">
<title>device&#45;mapper&#45;libs</title>
<text text-anchor="middle" x="1408.3" y="-282.05" font-family="Helvetica,sans-Serif" font-weight="bold" font-size="14.00" fill="#000000">device&#45;mapper&#45;libs (418.0 kB)</text>
</g>
<!-- device&#45;mapper -->
<g id="node3" class="node">
<title>device&#45;mapper</title>
<text text-anchor="middle" x="1281.8" y="-432.24" font-family="Helvetica,sans-Serif" font-weight="bold" font-size="14.00" fill="#000000">device&#45;mapper (349.9 kB)</text>
</g>
<!-- libargon2 -->
<g id="node4" class="node">
<title>libargon2</title>
<text text-anchor="middle" x="1556" y="-417.71" font-family="Helvetica,sans-Serif" font-weight="bold" font-size="14.00" fill="#000000">libargon2 (54.2 kB)</text>
</g>
<!-- dbus&#45;broker -->
<g id="node5" class="node">
<title>dbus&#45;broker</title>
<text text-anchor="middle" x="1088.7" y="-954.95" font-family="Helvetica,sans-Serif" font-weight="bold" font-size="14.00" fill="#000000">dbus&#45;broker (409.6 kB)</text>
</g>
<!-- dbus&#45;common -->
<g id="node6" class="node">
<title>dbus&#45;common</title>
<text text-anchor="middle" x="1260.5" y="-890.76" font-family="Helvetica,sans-Serif" font-weight="bold" font-size="14.00" fill="#000000">dbus&#45;common (11.2 kB)</text>
</g>
<!-- shadow&#45;utils -->
<g id="node7" class="node">
<title>shadow&#45;utils</title>
<text text-anchor="middle" x="809.69" y="-765.28" font-family="Helvetica,sans-Serif" font-weight="bold" font-size="14.00" fill="#000000">shadow&#45;utils (4.0 MB)</text>
</g>
<!-- systemd -->
<g id="node8" class="node">
<title>systemd</title>
<text text-anchor="middle" x="1110.6" y="-758.28" font-family="Helvetica,sans-Serif" font-weight="bold" font-size="14.00" fill="#000000">systemd (13.1 MB)</text>
</g>
<!-- libsemanage -->
<g id="node9" class="node">
<title>libsemanage</title>
<text text-anchor="middle" x="665.94" y="-890.16" font-family="Helvetica,sans-Serif" font-weight="bold" font-size="14.00" fill="#000000">libsemanage (304.5 kB)</text>
</g>
<!-- util&#45;linux -->
<g id="node10" class="node">
<title>util&#45;linux</title>
<text text-anchor="middle" x="1135.9" y="-512.29" font-family="Helvetica,sans-Serif" font-weight="bold" font-size="14.00" fill="#000000">util&#45;linux (13.5 MB)</text>
</g>
<!-- acl -->
<g id="node11" class="node">
<title>acl</title>
<text text-anchor="middle" x="1002.6" y="-1046.4" font-family="Helvetica,sans-Serif" font-weight="bold" font-size="14.00" fill="#000000">acl (209.6 kB)</text>
</g>
<!-- cryptsetup&#45;libs -->
<g id="node12" class="node">
<title>cryptsetup&#45;libs</title>
<text text-anchor="middle" x="1417.3" y="-509.54" font-family="Helvetica,sans-Serif" font-weight="bold" font-size="14.00" fill="#000000">cryptsetup&#45;libs (1.8 MB)</text>
</g>
<!-- dbus -->
<g id="node13" class="node">
<title>dbus</title>
<text text-anchor="middle" x="1252.8" y="-1209.7" font-family="Helvetica,sans-Serif" font-weight="bold" font-size="14.00" fill="#000000">dbus (0.0 B)</text>
</g>
<!-- iptables&#45;libs -->
<g id="node14" class="node">
<title>iptables&#45;libs</title>
<text text-anchor="middle" x="1065" y="-340.3" font-family="Helvetica,sans-Serif" font-weight="bold" font-size="14.00" fill="#000000">iptables&#45;libs (1.9 MB)</text>
</g>
<!-- kmod&#45;libs -->
<g id="node15" class="node">
<title>kmod&#45;libs</title>
<text text-anchor="middle" x="927.55" y="-850.64" font-family="Helvetica,sans-Serif" font-weight="bold" font-size="14.00" fill="#000000">kmod&#45;libs (135.6 kB)</text>
</g>
<!-- libfdisk -->
<g id="node16" class="node">
<title>libfdisk</title>
<text text-anchor="middle" x="1299.4" y="-635.95" font-family="Helvetica,sans-Serif" font-weight="bold" font-size="14.00" fill="#000000">libfdisk (472.7 kB)</text>
</g>
<!-- libseccomp -->
<g id="node17" class="node">
<title>libseccomp</title>
<text text-anchor="middle" x="1223.6" y="-1006.2" font-family="Helvetica,sans-Serif" font-weight="bold" font-size="14.00" fill="#000000">libseccomp (351.1 kB)</text>
</g>
<!-- qrencode&#45;libs -->
<g id="node18" class="node">
<title>qrencode&#45;libs</title>
<text text-anchor="middle" x="867.66" y="-978.01" font-family="Helvetica,sans-Serif" font-weight="bold" font-size="14.00" fill="#000000">qrencode&#45;libs (158.2 kB)</text>
</g>
<!-- systemd&#45;pam -->
<g id="node19" class="node">
<title>systemd&#45;pam</title>
<text text-anchor="middle" x="1446.3" y="-715.44" font-family="Helvetica,sans-Serif" font-weight="bold" font-size="14.00" fill="#000000">systemd&#45;pam (867.7 kB)</text>
</g>
<!-- systemd&#45;rpm&#45;macros -->
<g id="node20" class="node">
<title>systemd&#45;rpm&#45;macros</title>
<text text-anchor="middle" x="1418" y="-846.75" font-family="Helvetica,sans-Serif" font-weight="bold" font-size="14.00" fill="#000000">systemd&#45;rpm&#45;macros (7.9 kB)</text>
</g>
<!-- libutempter -->
<g id="node21" class="node">
<title>libutempter</title>
<text text-anchor="middle" x="827.62" y="-514.68" font-family="Helvetica,sans-Serif" font-weight="bold" font-size="14.00" fill="#000000">libutempter (57.8 kB)</text>
</g>
<!-- libunwind -->
<g id="node22" class="node">
<title>libunwind</title>
<text text-anchor="middle" x="658.78" y="-236.33" font-family="Helvetica,sans-Serif" font-weight="bold" font-size="14.00" fill="#000000">libunwind (172.8 kB)</text>
</g>
<!-- libnetfilter_conntrack -->
<g id="node23" class="node">
<title>libnetfilter_conntrack</title>
<text text-anchor="middle" x="1109.2" y="-134.08" font-family="Helvetica,sans-Serif" font-weight="bold" font-size="14.00" fill="#000000">libnetfilter_conntrack (148.0 kB)</text>
</g>
<!-- libmnl -->
<g id="node24" class="node">
<title>libmnl</title>
<text text-anchor="middle" x="1104.1" y="-14.3" font-family="Helvetica,sans-Serif" font-weight="bold" font-size="14.00" fill="#000000">libmnl (55.4 kB)</text>
</g>
<!-- libnfnetlink -->
<g id="node25" class="node">
<title>libnfnetlink</title>
<text text-anchor="middle" x="920.25" y="-53.471" font-family="Helvetica,sans-Serif" font-weight="bold" font-size="14.00" fill="#000000">libnfnetlink (54.8 kB)</text>
</g>
<!-- libpcap -->
<g id="node26" class="node">
<title>libpcap</title>
<text text-anchor="middle" x="929.16" y="-195.62" font-family="Helvetica,sans-Serif" font-weight="bold" font-size="14.00" fill="#000000">libpcap (387.4 kB)</text>
</g>
<!-- fedora&#45;logos&#45;httpd -->
<g id="node27" class="node">
<title>fedora&#45;logos&#45;httpd</title>
<text text-anchor="middle" x="82.5" y="-548.68" font-family="Helvetica,sans-Serif" font-weight="bold" font-size="14.00" fill="#000000">fedora&#45;logos&#45;httpd (9.9 kB)</text>
</g>
<!-- gperftools&#45;libs -->
<g id="node28" class="node">
<title>gperftools&#45;libs</title>
<text text-anchor="middle" x="589" y="-396.17" font-family="Helvetica,sans-Serif" font-weight="bold" font-size="14.00" fill="#000000">gperftools&#45;libs (1.5 MB)</text>
</g>
<!-- nginx&#45;filesystem -->
<g id="node29" class="node">
<title>nginx&#45;filesystem</title>
<text text-anchor="middle" x="535.64" y="-749.47" font-family="Helvetica,sans-Serif" font-weight="bold" font-size="14.00" fill="#000000">nginx&#45;filesystem (0.0 B)</text>
</g>
<!-- nginx&#45;mimetypes -->
<g id="node30" class="node">
<title>nginx&#45;mimetypes</title>
<text text-anchor="middle" x="219.5" y="-787.82" font-family="Helvetica,sans-Serif" font-weight="bold" font-size="14.00" fill="#000000">nginx&#45;mimetypes (39.3 kB)</text>
</g>
<!-- nginx -->
<g id="node31" class="node">
<title>nginx</title>
<text text-anchor="middle" x="550.55" y="-621.05" font-family="Helvetica,sans-Serif" font-weight="bold" font-size="22.00" fill="#cc0066">nginx (1.6 MB)</text>
</g>
</g>

<script type="text/javascript"><![CDATA[

document.addEventListener('click', function(e) {
      e = e || window.event;
      var target = e.target || e.srcElement;
      text = target.parentElement.querySelector("title").textContent;

      console.log("Clicked on: " + text);
      // reset all strokes
      var nodes = document.getElementsByClassName("edge");

      for (index = 0, len = nodes.length; index < len; ++index) {
          //var title = nodes[index].querySelector("title").textContent.split("->");
          id = nodes[index].id;
          document.getElementById(id).querySelector("path").setAttribute("stroke-width", "1");
          document.getElementById(id).querySelector("path").setAttribute("stroke-opacity", "0.5");
          document.getElementById(id).querySelector("path").setAttribute("stroke", "#444444");
          document.getElementById(id).querySelector("polygon").setAttribute("stroke-width", "1");
          document.getElementById(id).querySelector("polygon").setAttribute("stroke-opacity", "0.5");
          document.getElementById(id).querySelector("polygon").setAttribute("stroke", "#444444");
      }
      // reset text highlight
      pkgs = document.getElementsByClassName("node");
      for (index2 = 0, len2 = pkgs.length; index2 < len2; ++index2) {
          target_id = pkgs[index2].id;
          document.getElementById(target_id).querySelector("text").setAttribute("font-weight", "normal");
      }

      // highlight deps
      var nodes = document.getElementsByClassName("edge");
      for (index = 0, len = nodes.length; index < len; ++index) {
        var title = nodes[index].querySelector("title").textContent.split("->");

        if (title[0] == text) {
          id = nodes[index].id;
          //console.log("ID:   " + id);
          document.getElementById(id).querySelector("path").setAttribute("stroke-width", "3");
          document.getElementById(id).querySelector("path").setAttribute("stroke-opacity", "1");
          document.getElementById(id).querySelector("path").setAttribute("stroke", "#aa3333");
          document.getElementById(id).querySelector("polygon").setAttribute("stroke-width", "5");
          document.getElementById(id).querySelector("polygon").setAttribute("stroke-opacity", "1");
          document.getElementById(id).querySelector("polygon").setAttribute("stroke", "#aa3333");

        }
        if (title[1] == text) {
          id = nodes[index].id;
          document.getElementById(id).querySelector("path").setAttribute("stroke-width", "3");
          document.getElementById(id).querySelector("path").setAttribute("stroke-opacity", "1");
          document.getElementById(id).querySelector("path").setAttribute("stroke", "#333377");
          document.getElementById(id).querySelector("polygon").setAttribute("stroke-width", "5");
          document.getElementById(id).querySelector("polygon").setAttribute("stroke-opacity", "1");
          document.getElementById(id).querySelector("polygon").setAttribute("stroke", "#333377");
        }

        if (title[0] == text || title[1] == text) {
          pkgs = document.getElementsByClassName("node");
          for (index2 = 0, len2 = pkgs.length; index2 < len2; ++index2) {
            var pkg_name = pkgs[index2].querySelector("title").textContent;
            if (pkg_name == title[0] || pkg_name == title[1]) {
              target_id = pkgs[index2].id;
              document.getElementById(target_id).querySelector("text").setAttribute("font-weight", "bold");
            }
          }
        }
      }


  }, false);

]]></script>


  <text
     id="text7664"
     y="19.384439"
     x="9.9055691"
     style="font-style:normal;font-weight:normal;font-size:12.49485588px;line-height:125%;font-family:sans-serif;letter-spacing:0px;word-spacing:0px;fill:#000000;fill-opacity:1;stroke:none;stroke-width:0.3123714px;stroke-linecap:butt;stroke-linejoin:miter;stroke-opacity:1"
     xml:space="preserve"><tspan
       style="font-size:12.00258541px;stroke-width:0.3123714px"
       y="19.384439"
       x="9.9055691"
       id="tspan7666"><a href="report-use-case-definition--nginx-noweak--rawhide.html"><tspan
   style="font-weight:bold;font-size:12.00258541px;fill:#0066ff;stroke-width:0.3123714px"
   id="tspan7668">Nginx (no weak deps)</tspan></a> on <a href="report-base-definition--fedora-container-base--rawhide.html"><tspan
   style="font-weight:bold;font-size:12.00258541px;fill:#0066ff;stroke-width:0.3123714px"
   id="tspan7676">Fedora Container Base</tspan></a> (Fedora rawhide)</tspan></text>
  <text
     xml:space="preserve"
     style="font-style:normal;font-weight:normal;font-size:11.85299969px;line-height:125%;font-family:sans-serif;letter-spacing:0px;word-spacing:0px;fill:#000000;fill-opacity:1;stroke:none;stroke-width:0.296325px;stroke-linecap:butt;stroke-linejoin:miter;stroke-opacity:1"
     x="9.9365959"
     y="58.520042"
     id="text8235"><tspan
       id="tspan8237"
       x="9.9365959"
       y="58.520042"
       style="stroke-width:0.296325px;font-size:10.80232704px;fill:#666666">Generated by <a href="./"><tspan
   style="fill:#3771c8"
   id="tspan8255">Feedback Pipeline</tspan></a></tspan></text>
  <text
     xml:space="preserve"
     style="font-style:normal;font-weight:normal;font-size:12.49485588px;line-height:125%;font-family:sans-serif;letter-spacing:0px;word-spacing:0px;fill:#000000;fill-opacity:1;stroke:none;stroke-width:0.3123714px;stroke-linecap:butt;stroke-linejoin:miter;stroke-opacity:1"
     x="9.9055691"
     y="38.974205"
     id="text8245"><a href="graph--nginx-noweak--fedora-container-base--rawhide.svg"><tspan
       id="tspan8247"
       x="9.9055691"
       y="38.974205"
       style="font-weight:normal;font-size:12.00258541px;fill:#0066ff;stroke-width:0.3123714px">Expand base image</tspan></a></text>

</svg>
