<?xml version="1.0" encoding="UTF-8" standalone="no"?>
<!DOCTYPE svg PUBLIC "-//W3C//DTD SVG 1.1//EN"
 "http://www.w3.org/Graphics/SVG/1.1/DTD/svg11.dtd">
<!-- Generated by graphviz version 2.40.1 (0)
 -->
<!-- Title: packages Pages: 1 -->
<svg width="1891pt" height="1125pt"
 viewBox="0.00 0.00 2269.21 1350.16" xmlns="http://www.w3.org/2000/svg" xmlns:xlink="http://www.w3.org/1999/xlink">
<g id="graph0" class="graph" transform="scale(.8333 .8333) rotate(0) translate(124.5601 1199.3068)">
<title>packages</title>
<polygon fill="#dae2ff" stroke="transparent" points="-124.5601,150.8581 -124.5601,-1199.3068 2144.6479,-1199.3068 2144.6479,150.8581 -124.5601,150.8581"/>
<polygon fill="#fed9a6" stroke="#fed9a6" points="1146.7878,-17.9778 1151.9974,-12.4356 1150.366,17.2265 1155.1453,126.9115 1205.1682,125.613 1254.5878,90.2215 1309.9127,11.6229 1311.3557,9.6548 1317.571,-8.2118 1337.7249,-62.8654 1347.683,-88.5623 1347.7347,-89.0235 1242.3447,-127.7988 1239.3342,-131.9789 1232.7861,-140.6782 1227.0302,-147.6458 1213.8536,-164.5096 1213.4644,-164.98 1212.1536,-166.4755 1198.9083,-179.9448 1185.5313,-191.8365 1185.1147,-192.1518 1173.0405,-203.0781 1115.3893,-246.1906 1104.8516,-254.8921 1101.8624,-257.5775 1090.6792,-269.3708 1088.9095,-271.1009 1083.1969,-275.9138 1085.6504,-238.5381 1086.2209,-181.5593 1087.0392,-180.5309 1086.7778,-180.2184 1080.6256,-176.363 1074.7762,-176.363 1070.3612,-178.9224 1068.7963,-180.8119 1064.9238,-180.8119 1064.4758,-180.6753 1058.3556,-180.6753 1058.0555,-180.765 1054.5377,-180.765 1047.4412,-247.4227 1048.2352,-181.9072 1045.9706,-182.7029 1042.5566,-186.3823 995.4094,-192.2944 981.5861,-177.3187 980.6845,-237.8527 975.5308,-241.2275 973.816,-169.1304 973.0048,-168.2724 973.0048,-168.2724 973.816,-169.1304 975.5308,-241.2275 980.6845,-237.8527 981.5861,-177.3187 995.4094,-192.2944 1042.5566,-186.3823 1045.9706,-182.7029 1048.2352,-181.9072 1047.4412,-247.4227 1054.5377,-180.765 1058.0555,-180.765 1058.3556,-180.6753 1064.4758,-180.6753 1064.9238,-180.8119 1068.7963,-180.8119 1070.3612,-178.9224 1074.7762,-176.363 1080.6256,-176.363 1086.7778,-180.2184 1087.0392,-180.5309 1086.2209,-181.5593 1085.6504,-238.5381 1083.1969,-275.9138 1080.2733,-278.7092 1078.1304,-280.8865 1076.541,-282.6002 1073.8308,-285.699 1060.8506,-377.8273 1079.7798,-393.7766 1042.4536,-501.5513 1036.2106,-527.8992 1034.0135,-540.2368 1027.0055,-564.1559 994.8924,-656.8783 988.6662,-654.7646 972.2141,-649.5344 962.936,-646.994 949.4999,-643.9063 934.7692,-641.1728 928.2901,-640.2583 920.247,-639.6539 907.7026,-638.9871 900.7448,-638.924 892.4223,-639.2155 888.5864,-639.1749 887.3306,-639.1044 886.3011,-639.0919 883.1528,-636.09 866.448,-620.8683 870.3333,-552.9839 870.3333,-552.9839 866.448,-620.8683 865.6029,-620.1749 850.3397,-608.9308 760.7403,-550.7297 753.3969,-545.3136 745.7573,-538.988 727.4921,-523.0332 726.9663,-522.482 732.5309,-514.7736 740.1829,-502.8983 797.2138,-408.6228 806.9138,-406.2177 808.8019,-405.8528 818.1591,-404.2968 823.9769,-403.6441 840.1509,-402.7021 844.6129,-402.3231 856.7734,-401.6223 866.4983,-400.5467 874.3163,-399.4755 889.201,-396.2521 898.4667,-393.7561 906.8635,-391.0496 924.4813,-384.4314 924.8206,-384.2863 935.518,-379.4254 937.7842,-378.2758 939.1656,-377.5378 926.1129,-353.702 919.5422,-342.4277 905.8654,-321.9014 891.5935,-303.7235 876.5206,-279.0566 867.2224,-260.5332 855.4932,-241.4025 843.8906,-224.9648 834.5811,-213.1074 819.74,-190.9989 818.0743,-188.1841 815.1523,-182.9201 814.594,-181.849 835.6783,-154.3389 817.4422,-104.8924 814.1558,-93.291 809.5272,-74.0126 798.5466,-35.6578 766.3252,51.7092 831.2432,92.0163 880.9614,95.7885 891.829,97.0468 891.8995,97.0418 905.5849,96.3405 918.0244,96.4385 922.9832,96.6729 925.5669,-44.4342 920.4013,-45.9551 916.3747,-49.6268 919.2681,-52.1491 919.2681,-52.1491 916.3747,-49.6268 920.4013,-45.9551 925.5669,-44.4342 922.9832,96.6729 933.7883,97.3968 936.2662,97.6604 946.9932,99.014 961.2866,101.0995 969.3901,102.7588 968.5334,-43.1274 987.9065,-45.5896 964.5681,-50.9335 962.9352,-50.296 962.1575,-49.6471 958.1821,-49.6471 955.6755,-104.1131 956.2095,-145.9727 955.2277,-146.7558 947.9973,-146.8245 946.5997,-210.278 946.5997,-210.278 947.9973,-146.8245 955.2277,-146.7558 956.2095,-145.9727 955.6755,-104.1131 958.1821,-49.6471 962.1575,-49.6471 962.9352,-50.296 964.5681,-50.9335 987.9065,-45.5896 968.5334,-43.1274 969.3901,102.7588 997.1454,108.9875 1045.8479,145.7196 1048.1638,146.8581 1093.5765,135.3157 1096.4698,30.7826 1096.4698,30.7826 1093.5765,135.3157 1110.1632,131.727 1117.944,130.3407 1119.5336,130.1179 1133.2151,128.4595 1140.6877,127.8382 1155.1453,126.9115 1150.366,17.2265 1151.9974,-12.4356 1146.7878,-17.9778 1147.3193,-18.4937 1147.3359,-18.5282 1143.2739,-67.5076 1141.0879,-17.6978 1137.6219,-17.6978 1133.6676,8.7508 1130.2061,-15.6351 1126.2012,-13.4295 1120.9974,-13.4295 1120.9974,-13.4295 1126.2012,-13.4295 1130.2061,-15.6351 1133.6676,8.7508 1137.6219,-17.6978 1141.0879,-17.6978 1143.2739,-67.5076 1147.3359,-18.5282 1147.3193,-18.4937 1146.7878,-17.9778 1146.7878,-17.9778"/>
<polygon fill="#decbe4" stroke="#decbe4" points="1736.3469,-304.0742 1742.3923,-259.79 1752.5939,-206.579 1629.8232,-116.5255 1573.8074,-117.0773 1562.204,-116.9593 1556.4139,-116.6688 1553.7429,-116.4813 1552.7863,-116.5937 1536.5415,-117.848 1530.2625,-118.0789 1514.8595,-118.0227 1505.4083,-117.6061 1499.5112,-117.227 1487.6166,-115.982 1355.3477,-96.8021 1347.7347,-89.0235 1242.3447,-127.7988 1239.3342,-131.9789 1232.7861,-140.6782 1227.0302,-147.6458 1213.8536,-164.5096 1213.4644,-164.98 1212.1536,-166.4755 1198.9083,-179.9448 1185.5313,-191.8365 1185.1147,-192.1518 1173.0405,-203.0781 1115.3893,-246.1906 1104.8516,-254.8921 1101.8624,-257.5775 1090.6792,-269.3708 1088.9095,-271.1009 1083.1969,-275.9138 1080.2733,-278.7092 1078.1304,-280.8865 1076.541,-282.6002 1073.8308,-285.699 1060.8506,-377.8273 1079.7798,-393.7766 1042.4536,-501.5513 1036.2106,-527.8992 1034.0135,-540.2368 1027.0055,-564.1559 994.8924,-656.8783 988.6662,-654.7646 972.2141,-649.5344 962.936,-646.994 949.4999,-643.9063 934.7692,-641.1728 928.2901,-640.2583 920.247,-639.6539 907.7026,-638.9871 900.7448,-638.924 892.4223,-639.2155 888.5864,-639.1749 887.3306,-639.1044 886.3011,-639.0919 881.0582,-644.1475 878.5322,-646.4695 877.1147,-647.8447 872.4772,-652.1269 860.9698,-664.0334 850.9897,-673.2311 846.1014,-677.19 838.3142,-683.0758 831.8475,-687.6058 830.9518,-688.1833 769.3346,-724.6096 753.6819,-734.7571 752.0081,-736.0203 736.1746,-748.8666 733.667,-751.3062 733.5553,-751.4013 715.5182,-767.7094 706.1168,-777.5788 708.1962,-779.604 716.3848,-786.8872 720.447,-790.3284 728.7118,-796.9833 731.7715,-799.1899 809.2114,-858.9276 819.3939,-904.78 865.3136,-1042.1444 869.569,-1043.5747 882.2482,-1032.8934 896.8848,-1019.6671 899.0593,-943.0856 899.0593,-943.0856 896.8848,-1019.6671 918.6157,-1001.8738 921.2787,-999.9272 927.5007,-855.9006 932.1921,-855.9006 938.1729,-852.5179 939.3275,-851.2579 937.8906,-849.6568 932.191,-846.4272 927.9779,-846.4272 927.9779,-846.4272 932.191,-846.4272 937.8906,-849.6568 939.3275,-851.2579 938.1729,-852.5179 932.1921,-855.9006 927.5007,-855.9006 921.2787,-999.9272 934.9454,-990.3216 952.2218,-979.1815 956.9986,-976.3881 957.934,-975.8686 959.5725,-913.176 959.5725,-913.176 957.934,-975.8686 956.9986,-976.3881 952.2218,-979.1815 934.9454,-990.3216 921.2787,-999.9272 918.6157,-1001.8738 896.8848,-1019.6671 882.2482,-1032.8934 869.569,-1043.5747 888.3057,-1077.3632 892.0978,-1084.5021 919.0654,-1118.299 989.732,-1175.7107 1006.9654,-1183.7319 1035.1548,-1194.5009 1049.6855,-1194.1257 1067.3424,-1194.0123 1062.9769,-1049.2351 1064.5963,-1047.8772 1064.3672,-1047.5123 1059.5195,-1011.3948 1057.0853,-947.4004 1056.9813,-947.3954 1055.3246,-947.3619 1055.3246,-947.3619 1056.9813,-947.3954 1057.0853,-947.4004 1059.5195,-1011.3948 1064.3672,-1047.5123 1064.5963,-1047.8772 1062.9769,-1049.2351 1067.3424,-1194.0123 1076.3187,-1194.129 1076.3319,-1184.1353 1084.9872,-1048.9218 1085.5552,-1048.2648 1084.0005,-1046.3567 1078.8805,-1043.3356 1073.9761,-1043.3356 1073.9761,-1043.3356 1078.8805,-1043.3356 1084.0005,-1046.3567 1085.5552,-1048.2648 1087.7299,-1048.2648 1089.8218,-1046.6285 1089.3688,-964.0056 1089.8011,-949.5222 1089.8015,-947.8286 1093.6174,-947.6573 1109.2092,-947.8281 1106.2975,-886.6155 1106.2975,-886.6155 1109.2092,-947.8281 1093.6174,-947.6573 1089.8015,-947.8286 1089.8011,-949.5222 1089.3688,-964.0056 1089.8218,-1046.6285 1087.7299,-1048.2648 1085.5552,-1048.2648 1084.9872,-1048.9218 1076.3319,-1184.1353 1076.3187,-1194.129 1089.3064,-1195.3068 1094.8397,-1193.7195 1092.9526,-1086.3624 1092.9526,-1086.3624 1094.8397,-1193.7195 1165.4302,-1176.4083 1240.1563,-1106.3159 1204.3276,-1049.2788 1202.1699,-1045.3728 1160.0261,-963.6232 1154.6636,-953.9647 1164.7998,-939.864 1209.813,-867.8192 1202.0945,-851.3513 1197.1987,-838.355 1185.5114,-802.9128 1187.1586,-801.0426 1186.944,-724.1423 1182.8086,-724.1423 1182.0123,-724.3782 1180.3977,-784.4819 1175.9231,-724.3782 1175.6438,-724.2966 1175.4789,-724.2966 1171.3298,-727.9081 1166.5388,-729.2894 1166.5388,-729.2894 1171.3298,-727.9081 1175.4789,-724.2966 1175.6438,-724.2966 1175.9231,-724.3782 1180.3977,-784.4819 1182.0123,-724.3782 1182.8086,-724.1423 1186.944,-724.1423 1187.1586,-801.0426 1189.3956,-798.6906 1196.2886,-791.9964 1202.1564,-786.7826 1203.7502,-785.0068 1251.9825,-724.51 1255.8239,-721.0969 1269.04,-708.2067 1271.9524,-704.9037 1276.5947,-699.2422 1276.6479,-699.2699 1278.2936,-700.0563 1287.9954,-704.2962 1297.4172,-708.0181 1299.901,-708.8928 1302.244,-709.6188 1305.4363,-710.475 1314.5337,-712.537 1322.5729,-714.02 1326.6586,-714.6002 1343.01,-716.2311 1346.6544,-716.7499 1352.8746,-717.9015 1363.1416,-720.241 1364.9631,-720.7324 1367.5702,-721.5461 1367.6835,-721.5863 1378.0978,-725.744 1391.9326,-731.8645 1432.3093,-751.3807 1499.1834,-781.3502 1505.0154,-774.0753 1529.8644,-644.42 1538.6768,-610.2725 1529.0637,-602.337 1521.1232,-596.2374 1505.4839,-585.1105 1505.3672,-585.0342 1493.3986,-577.5521 1482.5671,-571.4017 1469.3105,-565.0038 1459.6002,-560.5971 1428.6545,-548.3483 1415.5536,-527.85 1377.9164,-451.8781 1373.0624,-443.6785 1330.4199,-448.2083 1328.5988,-494.8723 1328.5988,-494.8723 1330.4199,-448.2083 1313.9659,-448.684 1311.3451,-448.5567 1310.113,-448.5878 1308.1813,-448.7081 1307.0435,-484.51 1302.4601,-525.8907 1304.0973,-527.9278 1303.1116,-529.1328 1297.8837,-532.2951 1292.0077,-532.2951 1287.3768,-529.6008 1285.7743,-527.6725 1282.4075,-527.6725 1282.4075,-527.6725 1285.7743,-527.6725 1287.3768,-529.6008 1292.0077,-532.2951 1297.8837,-532.2951 1303.1116,-529.1328 1304.0973,-527.9278 1302.4601,-525.8907 1298.2747,-523.4546 1298.2747,-523.4546 1302.4601,-525.8907 1307.0435,-484.51 1308.1813,-448.7081 1299.4229,-448.575 1292.6056,-448.9774 1285.8718,-448.5889 1284.6219,-448.5633 1278.4067,-448.6663 1277.7733,-448.6276 1268.6669,-448.7463 1264.5049,-448.639 1261.5028,-448.7838 1188.5637,-446.6516 1148.7352,-419.2481 1131.7255,-406.4367 1157.516,-382.6048 1159.8904,-380.2796 1171.2485,-368.4732 1181.7484,-358.2093 1184.3688,-355.981 1190.2753,-351.3116 1198.9054,-343.8706 1200.9255,-342.2731 1202.0856,-341.435 1207.1324,-338.1162 1211.0255,-273.7149 1214.2823,-270.8592 1210.5775,-267.3883 1210.5775,-267.3883 1214.2823,-270.8592 1211.0255,-273.7149 1207.1324,-338.1162 1221.0074,-329.894 1226.0953,-327.5813 1229.8737,-326.1162 1240.2726,-322.7718 1265.6504,-316.3503 1275.0109,-312.7769 1280.0741,-310.522 1283.3,-308.8804 1290.8722,-304.5363 1293.5564,-302.8267 1299.1233,-298.9193 1303.7781,-295.3504 1310.1854,-290.0192 1321.0068,-280.3183 1331.2084,-270.56 1361.7761,-246.6356 1386.6327,-288.4475 1415.2788,-340.2221 1418.6113,-345.8261 1457.4755,-351.7125 1467.0331,-352.8752 1471.7919,-353.3111 1479.4323,-353.7818 1483.7379,-353.6596 1490.7509,-353.682 1497.1178,-353.9036 1497.3367,-353.9182 1504.812,-353.9648 1504.8569,-353.9679 1516.2129,-353.7319 1521.5331,-353.4612 1522.3213,-353.4709 1525.6027,-353.7191 1532.304,-353.8224 1538.1326,-353.7371 1538.9507,-353.751 1540.4493,-259.9592 1538.5782,-259.9592 1534.5575,-256.2739 1529.6755,-254.8458 1529.6755,-254.8458 1534.5575,-256.2739 1538.5782,-259.9592 1540.4493,-259.9592 1538.9507,-353.751 1541.9668,-353.8973 1547.5402,-354.0001 1547.7863,-354.0124 1558.8492,-354.9143 1562.532,-355.3303 1578.1725,-358.0864 1721.3081,-387.7644 1729.87,-343.1062 1733.8378,-320.2495 1736.3469,-304.0742 1736.3469,-304.0742"/>
<polygon fill="#b3cde3" stroke="#b3cde3" points="809.2114,-858.9276 819.3939,-904.78 865.3136,-1042.1444 741.5168,-1061.2053 739.1644,-1061.6106 725.8456,-1057.9492 713.376,-1054.765 708.9677,-1053.8986 694.2738,-1051.2958 681.0948,-1049.478 681.0568,-1034.9768 676.808,-942.5252 676.808,-942.5252 681.0568,-1034.9768 681.0948,-1049.478 661.179,-1048.288 592.8062,-1046.8774 582.1503,-1043.0355 539.9053,-1005.6325 527.843,-991.42 544.6721,-964.0311 556.4309,-946.5463 568.9384,-930.5442 587.872,-907.6671 591.2172,-903.2641 630.1846,-841.4594 662.024,-800.5056 666.8265,-793.5707 673.8262,-784.0996 678.873,-776.5508 626.6937,-734.8485 623.5657,-690.5283 622.6722,-661.856 622.6825,-660.7311 622.1883,-644.9194 620.64,-631.072 614.1778,-539.5082 610.2184,-538.2428 584.3438,-430.024 581.4259,-400.8133 581.4023,-400.7162 580.848,-397.4032 542.0311,-235.055 541.4734,-232.5609 540.5581,-228.1697 624.2122,-244.8074 628.4755,-366.8566 633.0978,-398.8533 633.6207,-399.2437 636.7103,-399.2437 638.4679,-399.7648 641.6955,-399.7648 641.905,-399.8256 647.0716,-399.8256 652.6243,-489.9763 652.8538,-402.8563 657.9659,-404.3872 664.0484,-402.5364 667.2809,-399.7922 667.678,-399.7922 674.0315,-465.7283 675.0356,-441.2852 673.4299,-399.6837 673.4299,-399.6837 675.0356,-441.2852 674.0315,-465.7283 667.678,-399.7922 667.2809,-399.7922 663.4289,-396.4258 663.4289,-396.4258 667.2809,-399.7922 664.0484,-402.5364 657.9659,-404.3872 652.8538,-402.8563 652.6243,-489.9763 647.0716,-399.8256 641.905,-399.8256 641.6955,-399.7648 638.4679,-399.7648 636.7103,-399.2437 633.6207,-399.2437 633.0978,-398.8533 628.4755,-366.8566 624.2122,-244.8074 540.5581,-228.1697 519.0661,-217.3718 516.7764,-216.104 495.6693,-204.0482 525.0077,-104.6321 526.5046,-99.1725 542.7349,-29.3878 584.0694,9.3576 663.3595,51.6095 681.65,51.5429 687.7701,51.6369 695.5009,52.0498 703.1183,52.6017 705.1578,52.7883 709.791,52.3524 709.893,-95.8811 704.4889,-97.4409 700.3851,-101.0133 703.7946,-103.9729 709.9221,-105.8593 709.9221,-105.8593 703.7946,-103.9729 700.3851,-101.0133 704.4889,-97.4409 709.893,-95.8811 709.791,52.3524 718.0269,51.7347 727.2379,51.2198 743.4064,51.2416 766.3252,51.7092 798.5466,-35.6578 809.5272,-74.0126 814.1558,-93.291 817.4422,-104.8924 835.6783,-154.3389 814.594,-181.849 815.1523,-182.9201 818.0743,-188.1841 819.74,-190.9989 834.5811,-213.1074 843.8906,-224.9648 855.4932,-241.4025 867.2224,-260.5332 876.5206,-279.0566 891.5935,-303.7235 905.8654,-321.9014 919.5422,-342.4277 926.1129,-353.702 939.1656,-377.5378 937.7842,-378.2758 935.518,-379.4254 924.8206,-384.2863 924.4813,-384.4314 906.8635,-391.0496 898.4667,-393.7561 889.201,-396.2521 874.3163,-399.4755 866.4983,-400.5467 856.7734,-401.6223 844.6129,-402.3231 840.1509,-402.7021 823.9769,-403.6441 818.1591,-404.2968 808.8019,-405.8528 806.9138,-406.2177 797.2138,-408.6228 740.1829,-502.8983 732.5309,-514.7736 726.9663,-522.482 727.4921,-523.0332 745.7573,-538.988 753.3969,-545.3136 760.7403,-550.7297 850.3397,-608.9308 865.6029,-620.1749 866.448,-620.8683 883.1528,-636.09 886.3011,-639.0919 881.0582,-644.1475 878.5322,-646.4695 877.1147,-647.8447 872.4772,-652.1269 860.9698,-664.0334 850.9897,-673.2311 846.1014,-677.19 838.3142,-683.0758 831.8475,-687.6058 830.9518,-688.1833 769.3346,-724.6096 753.6819,-734.7571 752.0081,-736.0203 736.1746,-748.8666 733.667,-751.3062 733.5553,-751.4013 726.2753,-653.3903 731.7134,-655.0079 737.7928,-653.0853 741.2151,-649.9415 738.2689,-647.3853 738.2689,-647.3853 741.2151,-649.9415 737.7928,-653.0853 731.7134,-655.0079 726.2753,-653.3903 733.5553,-751.4013 715.5182,-767.7094 706.1168,-777.5788 708.1962,-779.604 716.3848,-786.8872 720.447,-790.3284 728.7118,-796.9833 731.7715,-799.1899 809.2114,-858.9276 809.2114,-858.9276"/>
<polygon fill="#fed9a6" stroke="#fed9a6" points="1499.1834,-781.3502 1432.3093,-751.3807 1391.9326,-731.8645 1378.0978,-725.744 1367.6835,-721.5863 1367.5702,-721.5461 1364.9631,-720.7324 1363.1416,-720.241 1352.8746,-717.9015 1346.6544,-716.7499 1343.01,-716.2311 1326.6586,-714.6002 1322.5729,-714.02 1314.5337,-712.537 1305.4363,-710.475 1302.244,-709.6188 1299.901,-708.8928 1297.4172,-708.0181 1287.9954,-704.2962 1288.7365,-781.6606 1283.9545,-784.398 1282.171,-786.5214 1283.4144,-787.9125 1288.4468,-790.7407 1288.4468,-790.7407 1283.4144,-787.9125 1282.171,-786.5214 1283.9545,-784.398 1288.7365,-781.6606 1287.9954,-704.2962 1278.2936,-700.0563 1276.6479,-699.2699 1276.5947,-699.2422 1271.9524,-704.9037 1269.04,-708.2067 1255.8239,-721.0969 1251.9825,-724.51 1203.7502,-785.0068 1202.1564,-786.7826 1196.2886,-791.9964 1189.3956,-798.6906 1187.1586,-801.0426 1185.5114,-802.9128 1197.1987,-838.355 1202.0945,-851.3513 1209.813,-867.8192 1164.7998,-939.864 1154.6636,-953.9647 1160.0261,-963.6232 1202.1699,-1045.3728 1204.3276,-1049.2788 1240.1563,-1106.3159 1266.2898,-1104.3031 1275.4274,-1103.9347 1275.96,-1103.9231 1282.6752,-1104.0215 1283.6354,-1104.0532 1302.7341,-1105.035 1308.5736,-1105.6571 1325.7933,-1103.2163 1371.4561,-1097.6023 1475.8967,-1047.4825 1480.182,-1044.6344 1499.2123,-967.6124 1494.8638,-952.3262 1492.9818,-945.2601 1477.6332,-878.5668 1491.5948,-811.9212 1499.1834,-781.3502 1499.1834,-781.3502"/>
<polygon fill="#ccebc5" stroke="#ccebc5" points="1373.0624,-443.6785 1375.0079,-439.5657 1394.5192,-394.1571 1406.3944,-369.2882 1418.6113,-345.8261 1457.4755,-351.7125 1467.0331,-352.8752 1471.7919,-353.3111 1479.4323,-353.7818 1483.7379,-353.6596 1490.7509,-353.682 1497.1178,-353.9036 1497.3367,-353.9182 1504.812,-353.9648 1504.8569,-353.9679 1516.2129,-353.7319 1521.5331,-353.4612 1522.3213,-353.4709 1525.6027,-353.7191 1532.304,-353.8224 1538.1326,-353.7371 1538.9507,-353.751 1541.9668,-353.8973 1547.5402,-354.0001 1547.7863,-354.0124 1558.8492,-354.9143 1562.532,-355.3303 1578.1725,-358.0864 1721.3081,-387.7644 1729.87,-343.1062 1733.8378,-320.2495 1736.3469,-304.0742 1742.3923,-259.79 1752.5939,-206.579 1791.5308,-185.085 1879.704,-167.1817 1907.7229,-170.3866 1918.4276,-171.0205 1924.0354,-171.2493 1935.7429,-171.5116 1946.8907,-171.1456 1961.7112,-170.113 1966.3304,-169.6215 1981.8821,-167.3928 2038.9974,-157.111 2051.7144,-166.3073 2118.3503,-238.9963 2125.4885,-299.8837 1982.2028,-316.6268 1978.3477,-320.6068 1976.1387,-321.4118 1975.1754,-322.163 1976.517,-324.3215 1976.517,-324.3215 1975.1754,-322.163 1976.1387,-321.4118 1978.3477,-320.6068 1982.2028,-316.6268 2125.4885,-299.8837 2130.1985,-333.7833 2140.6479,-391.4178 2010.5059,-481.5358 1978.4341,-494.2285 1977.0713,-494.8451 1952.2244,-506.5687 1951.4209,-506.9928 1941.6736,-506.1286 1935.3152,-505.6605 1935.2434,-505.6574 1912.3468,-505.3454 1897.2834,-505.8185 1896.4166,-505.6403 1852.9175,-497.3724 1811.5796,-486.2334 1758.2565,-466.6541 1743.1788,-459.3386 1636.4412,-563.3085 1549.3784,-604.9285 1538.6768,-610.2725 1529.0637,-602.337 1521.1232,-596.2374 1505.4839,-585.1105 1505.3672,-585.0342 1493.3986,-577.5521 1493.7615,-505.61 1493.7615,-505.61 1493.3986,-577.5521 1482.5671,-571.4017 1482.4688,-562.725 1480.274,-500.794 1480.274,-500.794 1482.4688,-562.725 1482.5671,-571.4017 1469.3105,-565.0038 1459.6002,-560.5971 1428.6545,-548.3483 1415.5536,-527.85 1377.9164,-451.8781 1373.0624,-443.6785 1373.0624,-443.6785"/>
<polygon fill="#fbb4ae" stroke="#fbb4ae" points="54.3872,-204.7142 52.5444,-137.7156 52.5734,-136.0066 50.0803,-41.6881 43.1551,-42.2712 -14.4075,-46.1437 -50.8821,-73.7691 -120.5601,-164.281 -114.1311,-204.51 -100.3736,-340.7849 -93.3018,-369.6241 -92.5677,-370.6699 -92.8809,-375.3051 -66.0814,-453.7023 -54.8707,-488.6965 -50.0896,-506.086 -24.2675,-560.3542 40.0922,-622.8088 89.3837,-620.4201 106.7126,-620.2608 113.6234,-620.469 128.2974,-621.4886 126.3818,-511.0832 122.2821,-478.0564 128.9765,-482.0714 133.9273,-482.0714 138.1111,-479.7164 140.1705,-477.1909 139.819,-476.7853 133.875,-473.1694 133.875,-473.1694 139.819,-476.7853 140.1705,-477.1909 138.1111,-479.7164 143.3404,-515.6309 144.6277,-477.4176 150.1472,-477.4176 150.7166,-477.5847 153.346,-477.5847 154.465,-477.2523 154.465,-477.2523 153.346,-477.5847 150.7166,-477.5847 150.1472,-477.4176 144.6277,-477.4176 143.3404,-515.6309 138.1111,-479.7164 133.9273,-482.0714 128.9765,-482.0714 122.2821,-478.0564 126.3818,-511.0832 128.2974,-621.4886 131.1616,-621.8 143.6704,-623.4069 162.2635,-626.8931 174.9148,-630.0089 253.3127,-650.8453 257.2935,-656.6245 264.5027,-664.0267 278.2842,-674.6047 296.1919,-685.0707 340.5362,-660.84 408.2159,-660.84 473.5762,-667.0726 479.1778,-662.6141 480.2021,-660.9352 480.4542,-660.726 479.2416,-658.8207 479.2416,-658.8207 480.4542,-660.726 483.5975,-660.726 487.2417,-705.9906 487.4767,-745.6753 493.4663,-745.316 495.3186,-660.9271 499.2851,-660.9271 499.6523,-661.3536 506.3097,-665.4609 510.9486,-665.4609 510.9486,-665.4609 506.3097,-665.4609 499.6523,-661.3536 499.2851,-660.9271 495.3186,-660.9271 493.4663,-745.316 487.4767,-745.6753 487.2417,-705.9906 483.5975,-660.726 480.4542,-660.726 480.2021,-660.9352 479.1778,-662.6141 473.5762,-667.0726 408.2159,-660.84 340.5362,-660.84 296.1919,-685.0707 358.6495,-770.952 360.8418,-793.7303 364.7841,-846.5347 367.8644,-947.7098 491.1963,-980.3447 519.2289,-988.3097 527.5985,-991.3226 527.843,-991.42 544.6721,-964.0311 556.4309,-946.5463 568.9384,-930.5442 587.872,-907.6671 591.2172,-903.2641 630.1846,-841.4594 662.024,-800.5056 666.8265,-793.5707 673.8262,-784.0996 678.873,-776.5508 626.6937,-734.8485 623.5657,-690.5283 622.6722,-661.856 622.6825,-660.7311 622.1883,-644.9194 620.64,-631.072 614.1778,-539.5082 610.2184,-538.2428 609.3609,-538.2701 562.5163,-566.349 545.9789,-577.0836 536.715,-582.6323 536.6125,-588.7722 532.3413,-660.4898 528.4391,-660.4898 528.4391,-660.4898 532.3413,-660.4898 536.6125,-588.7722 536.715,-582.6323 545.9789,-577.0836 562.5163,-566.349 609.3609,-538.2701 610.2184,-538.2428 584.3438,-430.024 581.4259,-400.8133 581.4023,-400.7162 580.848,-397.4032 542.0311,-235.055 541.4734,-232.5609 540.5581,-228.1697 519.0661,-217.3718 516.7764,-216.104 510.5601,-419.5276 512.1946,-419.9997 515.3316,-419.9997 515.5193,-419.9467 515.5193,-419.9467 515.3316,-419.9997 512.1946,-419.9997 510.5601,-419.5276 509.6177,-419.5276 506.6136,-417.0603 500.3827,-415.1978 500.3827,-415.1978 506.6136,-417.0603 509.6177,-419.5276 510.5601,-419.5276 516.7764,-216.104 495.6693,-204.0482 495.4973,-204.1001 493.8167,-204.5388 473.3644,-209.3341 467.7693,-210.4954 459.3569,-212.1285 383.5174,-225.8312 336.8612,-236.707 312.423,-204.51 301.6131,-188.7628 151.4657,-29.3133 140.4561,-20.0402 123.7862,-25.6732 120.8357,-122.0976 120.8357,-122.0976 123.7862,-25.6732 114.431,-28.5209 98.4865,-33.106 84.0945,-36.5112 72.625,-38.6417 50.0803,-41.6881 52.5734,-136.0066 52.5444,-137.7156 54.3872,-204.7142 59.4872,-204.7142 60.3278,-204.4762 62.8666,-204.4762 63.6675,-204.7071 66.8282,-240.688 70.5335,-204.7119 73.2061,-204.7119 74.9016,-202.7774 79.5947,-200.1279 85.0452,-200.1279 91.0296,-203.6645 91.4934,-204.1827 89.1381,-207.0153 93.6041,-233.5089 96.6264,-308.9713 97.0421,-340.9667 107.1955,-340.8934 112.8833,-341.0831 122.6831,-341.0052 124.1301,-341.0523 132.034,-340.9838 146.3053,-339.9781 159.7678,-338.4745 175.446,-335.7538 170.491,-470.9129 180.7338,-474.0038 296.5446,-466.6055 311.0692,-410.7541 332.3349,-421.6457 374.3596,-444.4269 403.0382,-461.2811 406.1745,-531.8612 411.0755,-536.8254 411.3114,-537.277 415.7131,-537.277 418.9266,-507.3625 418.2121,-469.1301 427.5074,-472.6115 435.4224,-475.1504 435.4224,-475.1504 427.5074,-472.6115 418.2121,-469.1301 418.9266,-507.3625 415.7131,-537.277 411.3114,-537.277 411.0755,-536.8254 406.1745,-531.8612 403.0382,-461.2811 374.3596,-444.4269 332.3349,-421.6457 311.0692,-410.7541 296.5446,-466.6055 180.7338,-474.0038 170.491,-470.9129 175.446,-335.7538 159.7678,-338.4745 146.3053,-339.9781 132.034,-340.9838 124.1301,-341.0523 122.6831,-341.0052 112.8833,-341.0831 107.1955,-340.8934 97.0421,-340.9667 96.6264,-308.9713 93.6041,-233.5089 89.1381,-207.0153 91.4934,-204.1827 91.0296,-203.6645 85.0452,-200.1279 79.5947,-200.1279 74.9016,-202.7774 73.2061,-204.7119 73.3717,-204.8927 79.8751,-208.7872 79.8751,-208.7872 73.3717,-204.8927 73.2061,-204.7119 70.5335,-204.7119 66.8282,-240.688 63.6675,-204.7071 62.8666,-204.4762 60.3278,-204.4762 59.4872,-204.7142 54.3872,-204.7142 54.3872,-204.7142"/>
<polygon fill="#fed9a6" stroke="#fed9a6" points="1418.6113,-345.8261 1415.2788,-340.2221 1386.6327,-288.4475 1361.7761,-246.6356 1331.2084,-270.56 1321.0068,-280.3183 1310.1854,-290.0192 1303.7781,-295.3504 1299.1233,-298.9193 1293.5564,-302.8267 1290.8722,-304.5363 1283.3,-308.8804 1280.0741,-310.522 1275.0109,-312.7769 1265.6504,-316.3503 1240.2726,-322.7718 1229.8737,-326.1162 1226.0953,-327.5813 1221.0074,-329.894 1207.1324,-338.1162 1202.0856,-341.435 1200.9255,-342.2731 1198.9054,-343.8706 1190.2753,-351.3116 1184.3688,-355.981 1181.7484,-358.2093 1171.2485,-368.4732 1159.8904,-380.2796 1157.516,-382.6048 1131.7255,-406.4367 1148.7352,-419.2481 1188.5637,-446.6516 1261.5028,-448.7838 1264.5049,-448.639 1268.6669,-448.7463 1277.7733,-448.6276 1278.4067,-448.6663 1284.6219,-448.5633 1285.8718,-448.5889 1292.6056,-448.9774 1299.4229,-448.575 1308.1813,-448.7081 1310.113,-448.5878 1311.3451,-448.5567 1313.9659,-448.684 1330.4199,-448.2083 1373.0624,-443.6785 1375.0079,-439.5657 1394.5192,-394.1571 1406.3944,-369.2882 1418.6113,-345.8261 1418.6113,-345.8261"/>
<polyline fill="none" stroke="#000000" points="907.7026,-638.9871 920.247,-639.6539 928.2901,-640.2583 934.7692,-641.1728 949.4999,-643.9063 962.936,-646.994 972.2141,-649.5344 988.6662,-654.7646 994.8924,-656.8783 1027.0055,-564.1559 1034.0135,-540.2368 1036.2106,-527.8992 1042.4536,-501.5513 1079.7798,-393.7766 1060.8506,-377.8273 1073.8308,-285.699 1076.541,-282.6002 1078.1304,-280.8865 1080.2733,-278.7092 1083.1969,-275.9138 1088.9095,-271.1009 1090.6792,-269.3708 1101.8624,-257.5775 1104.8516,-254.8921 1115.3893,-246.1906 1173.0405,-203.0781 1185.1147,-192.1518 1185.5313,-191.8365 1198.9083,-179.9448 1212.1536,-166.4755 1213.4644,-164.98 1213.8536,-164.5096 1227.0302,-147.6458 1232.7861,-140.6782 1239.3342,-131.9789 1242.3447,-127.7988 1347.7347,-89.0235 1347.683,-88.5623 1337.7249,-62.8654 1317.571,-8.2118 1311.3557,9.6548 1309.9127,11.6229 1254.5878,90.2215 1205.1682,125.613 1155.1453,126.9115 1140.6877,127.8382 1133.2151,128.4595 1119.5336,130.1179 1117.944,130.3407 1110.1632,131.727 1093.5765,135.3157 1048.1638,146.8581 1045.8479,145.7196 997.1454,108.9875 969.3901,102.7588 961.2866,101.0995 946.9932,99.014 936.2662,97.6604 933.7883,97.3968 922.9832,96.6729 918.0244,96.4385 905.5849,96.3405 891.8995,97.0418 891.829,97.0468 880.9614,95.7885 831.2432,92.0163 766.3252,51.7092 798.5466,-35.6578 809.5272,-74.0126 814.1558,-93.291 817.4422,-104.8924 835.6783,-154.3389 814.594,-181.849 815.1523,-182.9201 818.0743,-188.1841 819.74,-190.9989 834.5811,-213.1074 843.8906,-224.9648 855.4932,-241.4025 867.2224,-260.5332 876.5206,-279.0566 891.5935,-303.7235 905.8654,-321.9014 919.5422,-342.4277 926.1129,-353.702 939.1656,-377.5378 937.7842,-378.2758 935.518,-379.4254 924.8206,-384.2863 924.4813,-384.4314 906.8635,-391.0496 898.4667,-393.7561 889.201,-396.2521 874.3163,-399.4755 866.4983,-400.5467 856.7734,-401.6223 844.6129,-402.3231 840.1509,-402.7021 823.9769,-403.6441 818.1591,-404.2968 808.8019,-405.8528 806.9138,-406.2177 797.2138,-408.6228 740.1829,-502.8983 732.5309,-514.7736 726.9663,-522.482 727.4921,-523.0332 745.7573,-538.988 753.3969,-545.3136 760.7403,-550.7297 850.3397,-608.9308 865.6029,-620.1749 866.448,-620.8683 883.1528,-636.09 886.3011,-639.0919 887.3306,-639.1044 888.5864,-639.1749 892.4223,-639.2155 900.7448,-638.924 907.7026,-638.9871 "/>
<polyline fill="none" stroke="#000000" points="1148.7352,-419.2481 1188.5637,-446.6516 1261.5028,-448.7838 1264.5049,-448.639 1268.6669,-448.7463 1277.7733,-448.6276 1278.4067,-448.6663 1284.6219,-448.5633 1285.8718,-448.5889 1292.6056,-448.9774 1299.4229,-448.575 1308.1813,-448.7081 1310.113,-448.5878 1311.3451,-448.5567 1313.9659,-448.684 1330.4199,-448.2083 1373.0624,-443.6785 1377.9164,-451.8781 1415.5536,-527.85 1428.6545,-548.3483 1459.6002,-560.5971 1469.3105,-565.0038 1482.5671,-571.4017 1493.3986,-577.5521 1505.3672,-585.0342 1505.4839,-585.1105 1521.1232,-596.2374 1529.0637,-602.337 1538.6768,-610.2725 1529.8644,-644.42 1505.0154,-774.0753 1499.1834,-781.3502 1432.3093,-751.3807 1391.9326,-731.8645 1378.0978,-725.744 1367.6835,-721.5863 1367.5702,-721.5461 1364.9631,-720.7324 1363.1416,-720.241 1352.8746,-717.9015 1346.6544,-716.7499 1343.01,-716.2311 1326.6586,-714.6002 1322.5729,-714.02 1314.5337,-712.537 1305.4363,-710.475 1302.244,-709.6188 1299.901,-708.8928 1297.4172,-708.0181 1287.9954,-704.2962 1278.2936,-700.0563 1276.6479,-699.2699 1276.5947,-699.2422 1271.9524,-704.9037 1269.04,-708.2067 1255.8239,-721.0969 1251.9825,-724.51 1203.7502,-785.0068 1202.1564,-786.7826 1196.2886,-791.9964 1189.3956,-798.6906 1187.1586,-801.0426 1185.5114,-802.9128 1197.1987,-838.355 1202.0945,-851.3513 1209.813,-867.8192 1164.7998,-939.864 1154.6636,-953.9647 1160.0261,-963.6232 1202.1699,-1045.3728 1204.3276,-1049.2788 1240.1563,-1106.3159 1165.4302,-1176.4083 1094.8397,-1193.7195 1089.3064,-1195.3068 1076.3187,-1194.129 1067.3424,-1194.0123 1049.6855,-1194.1257 1035.1548,-1194.5009 1006.9654,-1183.7319 989.732,-1175.7107 919.0654,-1118.299 892.0978,-1084.5021 888.3057,-1077.3632 869.569,-1043.5747 865.3136,-1042.1444 819.3939,-904.78 809.2114,-858.9276 731.7715,-799.1899 728.7118,-796.9833 720.447,-790.3284 716.3848,-786.8872 708.1962,-779.604 706.1168,-777.5788 715.5182,-767.7094 733.5553,-751.4013 733.667,-751.3062 736.1746,-748.8666 752.0081,-736.0203 753.6819,-734.7571 769.3346,-724.6096 830.9518,-688.1833 831.8475,-687.6058 838.3142,-683.0758 846.1014,-677.19 850.9897,-673.2311 860.9698,-664.0334 872.4772,-652.1269 877.1147,-647.8447 878.5322,-646.4695 881.0582,-644.1475 886.3011,-639.0919 887.3306,-639.1044 888.5864,-639.1749 892.4223,-639.2155 900.7448,-638.924 907.7026,-638.9871 920.247,-639.6539 928.2901,-640.2583 934.7692,-641.1728 949.4999,-643.9063 962.936,-646.994 972.2141,-649.5344 988.6662,-654.7646 994.8924,-656.8783 1027.0055,-564.1559 1034.0135,-540.2368 1036.2106,-527.8992 1042.4536,-501.5513 1079.7798,-393.7766 1060.8506,-377.8273 1073.8308,-285.699 1076.541,-282.6002 1078.1304,-280.8865 1080.2733,-278.7092 1083.1969,-275.9138 1088.9095,-271.1009 1090.6792,-269.3708 1101.8624,-257.5775 1104.8516,-254.8921 1115.3893,-246.1906 1173.0405,-203.0781 1185.1147,-192.1518 1185.5313,-191.8365 1198.9083,-179.9448 1212.1536,-166.4755 1213.4644,-164.98 1213.8536,-164.5096 1227.0302,-147.6458 1232.7861,-140.6782 1239.3342,-131.9789 1242.3447,-127.7988 1347.7347,-89.0235 1355.3477,-96.8021 1487.6166,-115.982 1499.5112,-117.227 1505.4083,-117.6061 1514.8595,-118.0227 1530.2625,-118.0789 1536.5415,-117.848 1552.7863,-116.5937 1553.7429,-116.4813 1556.4139,-116.6688 1562.204,-116.9593 1573.8074,-117.0773 1629.8232,-116.5255 1752.5939,-206.579 1742.3923,-259.79 1736.3469,-304.0742 1733.8378,-320.2495 1729.87,-343.1062 1721.3081,-387.7644 1578.1725,-358.0864 1562.532,-355.3303 1558.8492,-354.9143 1547.7863,-354.0124 1547.5402,-354.0001 1541.9668,-353.8973 1538.9507,-353.751 1538.1326,-353.7371 1532.304,-353.8224 1525.6027,-353.7191 1522.3213,-353.4709 1521.5331,-353.4612 1516.2129,-353.7319 1504.8569,-353.9679 1504.812,-353.9648 1497.3367,-353.9182 1497.1178,-353.9036 1490.7509,-353.682 1483.7379,-353.6596 1479.4323,-353.7818 1471.7919,-353.3111 1467.0331,-352.8752 1457.4755,-351.7125 1418.6113,-345.8261 1415.2788,-340.2221 1386.6327,-288.4475 1361.7761,-246.6356 1331.2084,-270.56 1321.0068,-280.3183 1310.1854,-290.0192 1303.7781,-295.3504 1299.1233,-298.9193 1293.5564,-302.8267 1290.8722,-304.5363 1283.3,-308.8804 1280.0741,-310.522 1275.0109,-312.7769 1265.6504,-316.3503 1240.2726,-322.7718 1229.8737,-326.1162 1226.0953,-327.5813 1221.0074,-329.894 1207.1324,-338.1162 1202.0856,-341.435 1200.9255,-342.2731 1198.9054,-343.8706 1190.2753,-351.3116 1184.3688,-355.981 1181.7484,-358.2093 1171.2485,-368.4732 1159.8904,-380.2796 1157.516,-382.6048 1131.7255,-406.4367 1148.7352,-419.2481 "/>
<polyline fill="none" stroke="#000000" points="797.2138,-408.6228 740.1829,-502.8983 732.5309,-514.7736 726.9663,-522.482 727.4921,-523.0332 745.7573,-538.988 753.3969,-545.3136 760.7403,-550.7297 850.3397,-608.9308 865.6029,-620.1749 866.448,-620.8683 883.1528,-636.09 886.3011,-639.0919 881.0582,-644.1475 878.5322,-646.4695 877.1147,-647.8447 872.4772,-652.1269 860.9698,-664.0334 850.9897,-673.2311 846.1014,-677.19 838.3142,-683.0758 831.8475,-687.6058 830.9518,-688.1833 769.3346,-724.6096 753.6819,-734.7571 752.0081,-736.0203 736.1746,-748.8666 733.667,-751.3062 733.5553,-751.4013 715.5182,-767.7094 706.1168,-777.5788 708.1962,-779.604 716.3848,-786.8872 720.447,-790.3284 728.7118,-796.9833 731.7715,-799.1899 809.2114,-858.9276 819.3939,-904.78 865.3136,-1042.1444 741.5168,-1061.2053 739.1644,-1061.6106 725.8456,-1057.9492 713.376,-1054.765 708.9677,-1053.8986 694.2738,-1051.2958 681.0948,-1049.478 661.179,-1048.288 592.8062,-1046.8774 582.1503,-1043.0355 539.9053,-1005.6325 527.843,-991.42 544.6721,-964.0311 556.4309,-946.5463 568.9384,-930.5442 587.872,-907.6671 591.2172,-903.2641 630.1846,-841.4594 662.024,-800.5056 666.8265,-793.5707 673.8262,-784.0996 678.873,-776.5508 626.6937,-734.8485 623.5657,-690.5283 622.6722,-661.856 622.6825,-660.7311 622.1883,-644.9194 620.64,-631.072 614.1778,-539.5082 610.2184,-538.2428 584.3438,-430.024 581.4259,-400.8133 581.4023,-400.7162 580.848,-397.4032 542.0311,-235.055 541.4734,-232.5609 540.5581,-228.1697 519.0661,-217.3718 516.7764,-216.104 495.6693,-204.0482 525.0077,-104.6321 526.5046,-99.1725 542.7349,-29.3878 584.0694,9.3576 663.3595,51.6095 681.65,51.5429 687.7701,51.6369 695.5009,52.0498 703.1183,52.6017 705.1578,52.7883 709.791,52.3524 718.0269,51.7347 727.2379,51.2198 743.4064,51.2416 766.3252,51.7092 798.5466,-35.6578 809.5272,-74.0126 814.1558,-93.291 817.4422,-104.8924 835.6783,-154.3389 814.594,-181.849 815.1523,-182.9201 818.0743,-188.1841 819.74,-190.9989 834.5811,-213.1074 843.8906,-224.9648 855.4932,-241.4025 867.2224,-260.5332 876.5206,-279.0566 891.5935,-303.7235 905.8654,-321.9014 919.5422,-342.4277 926.1129,-353.702 939.1656,-377.5378 937.7842,-378.2758 935.518,-379.4254 924.8206,-384.2863 924.4813,-384.4314 906.8635,-391.0496 898.4667,-393.7561 889.201,-396.2521 874.3163,-399.4755 866.4983,-400.5467 856.7734,-401.6223 844.6129,-402.3231 840.1509,-402.7021 823.9769,-403.6441 818.1591,-404.2968 808.8019,-405.8528 806.9138,-406.2177 797.2138,-408.6228 "/>
<polyline fill="none" stroke="#000000" points="1275.96,-1103.9231 1275.4274,-1103.9347 1266.2898,-1104.3031 1240.1563,-1106.3159 1204.3276,-1049.2788 1202.1699,-1045.3728 1160.0261,-963.6232 1154.6636,-953.9647 1164.7998,-939.864 1209.813,-867.8192 1202.0945,-851.3513 1197.1987,-838.355 1185.5114,-802.9128 1187.1586,-801.0426 1189.3956,-798.6906 1196.2886,-791.9964 1202.1564,-786.7826 1203.7502,-785.0068 1251.9825,-724.51 1255.8239,-721.0969 1269.04,-708.2067 1271.9524,-704.9037 1276.5947,-699.2422 1276.6479,-699.2699 1278.2936,-700.0563 1287.9954,-704.2962 1297.4172,-708.0181 1299.901,-708.8928 1302.244,-709.6188 1305.4363,-710.475 1314.5337,-712.537 1322.5729,-714.02 1326.6586,-714.6002 1343.01,-716.2311 1346.6544,-716.7499 1352.8746,-717.9015 1363.1416,-720.241 1364.9631,-720.7324 1367.5702,-721.5461 1367.6835,-721.5863 1378.0978,-725.744 1391.9326,-731.8645 1432.3093,-751.3807 1499.1834,-781.3502 1491.5948,-811.9212 1477.6332,-878.5668 1492.9818,-945.2601 1494.8638,-952.3262 1499.2123,-967.6124 1480.182,-1044.6344 1475.8967,-1047.4825 1371.4561,-1097.6023 1325.7933,-1103.2163 1308.5736,-1105.6571 1302.7341,-1105.035 1283.6354,-1104.0532 1282.6752,-1104.0215 1275.96,-1103.9231 "/>
<polyline fill="none" stroke="#000000" points="1935.3152,-505.6605 1941.6736,-506.1286 1951.4209,-506.9928 1952.2244,-506.5687 1977.0713,-494.8451 1978.4341,-494.2285 2010.5059,-481.5358 2140.6479,-391.4178 2130.1985,-333.7833 2125.4885,-299.8837 2118.3503,-238.9963 2051.7144,-166.3073 2038.9974,-157.111 1981.8821,-167.3928 1966.3304,-169.6215 1961.7112,-170.113 1946.8907,-171.1456 1935.7429,-171.5116 1924.0354,-171.2493 1918.4276,-171.0205 1907.7229,-170.3866 1879.704,-167.1817 1791.5308,-185.085 1752.5939,-206.579 1742.3923,-259.79 1736.3469,-304.0742 1733.8378,-320.2495 1729.87,-343.1062 1721.3081,-387.7644 1578.1725,-358.0864 1562.532,-355.3303 1558.8492,-354.9143 1547.7863,-354.0124 1547.5402,-354.0001 1541.9668,-353.8973 1538.9507,-353.751 1538.1326,-353.7371 1532.304,-353.8224 1525.6027,-353.7191 1522.3213,-353.4709 1521.5331,-353.4612 1516.2129,-353.7319 1504.8569,-353.9679 1504.812,-353.9648 1497.3367,-353.9182 1497.1178,-353.9036 1490.7509,-353.682 1483.7379,-353.6596 1479.4323,-353.7818 1471.7919,-353.3111 1467.0331,-352.8752 1457.4755,-351.7125 1418.6113,-345.8261 1406.3944,-369.2882 1394.5192,-394.1571 1375.0079,-439.5657 1373.0624,-443.6785 1377.9164,-451.8781 1415.5536,-527.85 1428.6545,-548.3483 1459.6002,-560.5971 1469.3105,-565.0038 1482.5671,-571.4017 1493.3986,-577.5521 1505.3672,-585.0342 1505.4839,-585.1105 1521.1232,-596.2374 1529.0637,-602.337 1538.6768,-610.2725 1549.3784,-604.9285 1636.4412,-563.3085 1743.1788,-459.3386 1758.2565,-466.6541 1811.5796,-486.2334 1852.9175,-497.3724 1896.4166,-505.6403 1897.2834,-505.8185 1912.3468,-505.3454 1935.2434,-505.6574 1935.3152,-505.6605 "/>
<polyline fill="none" stroke="#000000" points="519.2289,-988.3097 491.1963,-980.3447 367.8644,-947.7098 364.7841,-846.5347 360.8418,-793.7303 358.6495,-770.952 296.1919,-685.0707 278.2842,-674.6047 264.5027,-664.0267 257.2935,-656.6245 253.3127,-650.8453 174.9148,-630.0089 162.2635,-626.8931 143.6704,-623.4069 131.1616,-621.8 128.2974,-621.4886 113.6234,-620.469 106.7126,-620.2608 89.3837,-620.4201 40.0922,-622.8088 -24.2675,-560.3542 -50.0896,-506.086 -54.8707,-488.6965 -66.0814,-453.7023 -92.8809,-375.3051 -92.5677,-370.6699 -93.3018,-369.6241 -100.3736,-340.7849 -114.1311,-204.51 -120.5601,-164.281 -50.8821,-73.7691 -14.4075,-46.1437 43.1551,-42.2712 50.0803,-41.6881 72.625,-38.6417 84.0945,-36.5112 98.4865,-33.106 114.431,-28.5209 123.7862,-25.6732 140.4561,-20.0402 151.4657,-29.3133 301.6131,-188.7628 312.423,-204.51 336.8612,-236.707 383.5174,-225.8312 459.3569,-212.1285 467.7693,-210.4954 473.3644,-209.3341 493.8167,-204.5388 495.4973,-204.1001 495.6693,-204.0482 516.7764,-216.104 519.0661,-217.3718 540.5581,-228.1697 541.4734,-232.5609 542.0311,-235.055 580.848,-397.4032 581.4023,-400.7162 581.4259,-400.8133 584.3438,-430.024 610.2184,-538.2428 614.1778,-539.5082 620.64,-631.072 622.1883,-644.9194 622.6825,-660.7311 622.6722,-661.856 623.5657,-690.5283 626.6937,-734.8485 678.873,-776.5508 673.8262,-784.0996 666.8265,-793.5707 662.024,-800.5056 630.1846,-841.4594 591.2172,-903.2641 587.872,-907.6671 568.9384,-930.5442 556.4309,-946.5463 544.6721,-964.0311 527.843,-991.42 527.5985,-991.3226 519.2289,-988.3097 "/>
<polyline fill="none" stroke="#000000" points="1278.4067,-448.6663 1277.7733,-448.6276 1268.6669,-448.7463 1264.5049,-448.639 1261.5028,-448.7838 1188.5637,-446.6516 1148.7352,-419.2481 1131.7255,-406.4367 1157.516,-382.6048 1159.8904,-380.2796 1171.2485,-368.4732 1181.7484,-358.2093 1184.3688,-355.981 1190.2753,-351.3116 1198.9054,-343.8706 1200.9255,-342.2731 1202.0856,-341.435 1207.1324,-338.1162 1221.0074,-329.894 1226.0953,-327.5813 1229.8737,-326.1162 1240.2726,-322.7718 1265.6504,-316.3503 1275.0109,-312.7769 1280.0741,-310.522 1283.3,-308.8804 1290.8722,-304.5363 1293.5564,-302.8267 1299.1233,-298.9193 1303.7781,-295.3504 1310.1854,-290.0192 1321.0068,-280.3183 1331.2084,-270.56 1361.7761,-246.6356 1386.6327,-288.4475 1415.2788,-340.2221 1418.6113,-345.8261 1406.3944,-369.2882 1394.5192,-394.1571 1375.0079,-439.5657 1373.0624,-443.6785 1330.4199,-448.2083 1313.9659,-448.684 1311.3451,-448.5567 1310.113,-448.5878 1308.1813,-448.7081 1299.4229,-448.575 1292.6056,-448.9774 1285.8718,-448.5889 1284.6219,-448.5633 1278.4067,-448.6663 "/>
<!-- device&#45;mapper&#45;libs&#45;&gt;Fedora Container Base -->
<g id="edge1" class="edge">
<title>device&#45;mapper&#45;libs&#45;&gt;Fedora Container Base</title>
<path fill="none" stroke="#444444" stroke-opacity="0.333333" d="M925.0486,-67.5083C923.3232,-138.2028 917.0263,-396.2005 914.9209,-482.4621"/>
<polygon fill="#444444" fill-opacity="0.333333" stroke="#444444" stroke-opacity="0.333333" points="911.4196,-482.4773 914.6745,-492.5598 918.4175,-482.6482 911.4196,-482.4773"/>
</g>
<!-- device&#45;mapper&#45;libs&#45;&gt;device&#45;mapper -->
<g id="edge2" class="edge">
<title>device&#45;mapper&#45;libs&#45;&gt;device&#45;mapper</title>
<path fill="none" stroke="#444444" stroke-opacity="0.333333" d="M923.047,-67.4348C922.9174,-101.4477 929.4129,-175.3504 935.8192,-216.0386"/>
<polygon fill="#444444" fill-opacity="0.333333" stroke="#444444" stroke-opacity="0.333333" points="932.4029,-216.8268 937.5296,-226.0986 939.3038,-215.6534 932.4029,-216.8268"/>
</g>
<!-- device&#45;mapper&#45;&gt;Fedora Container Base -->
<g id="edge21" class="edge">
<title>device&#45;mapper&#45;&gt;Fedora Container Base</title>
<path fill="none" stroke="#444444" stroke-opacity="0.333333" d="M941.3857,-262.6249C936.3795,-308.3708 923.3011,-427.8795 917.3092,-482.633"/>
<polygon fill="#444444" fill-opacity="0.333333" stroke="#444444" stroke-opacity="0.333333" points="913.8185,-482.3579 916.2098,-492.6793 920.7769,-483.1194 913.8185,-482.3579"/>
</g>
<!-- device&#45;mapper&#45;&gt;device&#45;mapper&#45;libs -->
<g id="edge22" class="edge">
<title>device&#45;mapper&#45;&gt;device&#45;mapper&#45;libs</title>
<path fill="none" stroke="#444444" stroke-opacity="0.333333" d="M945.833,-226.2982C945.9626,-192.2853 939.4671,-118.3826 933.0608,-77.6944"/>
<polygon fill="#444444" fill-opacity="0.333333" stroke="#444444" stroke-opacity="0.333333" points="936.4771,-76.9062 931.3504,-67.6344 929.5762,-78.0796 936.4771,-76.9062"/>
</g>
<!-- device&#45;mapper&#45;&gt;systemd -->
<g id="edge23" class="edge">
<title>device&#45;mapper&#45;&gt;systemd</title>
<path fill="none" stroke="#444444" stroke-opacity="0.333333" d="M953.9208,-262.387C983.7619,-313.6119 1069.0114,-459.9502 1104.451,-520.7855"/>
<polygon fill="#444444" fill-opacity="0.333333" stroke="#444444" stroke-opacity="0.333333" points="1101.4429,-522.575 1109.5009,-529.454 1107.4914,-519.0514 1101.4429,-522.575"/>
</g>
<!-- device&#45;mapper&#45;&gt;util&#45;linux -->
<g id="edge24" class="edge">
<title>device&#45;mapper&#45;&gt;util&#45;linux</title>
<path fill="none" stroke="#444444" stroke-opacity="0.333333" d="M894.3559,-262.3287C885.3327,-265.6444 875.8266,-269.1376 866.547,-272.5476"/>
<polygon fill="#444444" fill-opacity="0.333333" stroke="#444444" stroke-opacity="0.333333" points="865.1674,-269.3257 856.9883,-276.0602 867.5819,-275.8961 865.1674,-269.3257"/>
</g>
<!-- libargon2&#45;&gt;Fedora Container Base -->
<g id="edge3" class="edge">
<title>libargon2&#45;&gt;Fedora Container Base</title>
<path fill="none" stroke="#444444" stroke-opacity="0.333333" d="M1115.7075,-36.1224C1084.0583,-110.6827 963.7808,-394.0364 925.7976,-483.5187"/>
<polygon fill="#444444" fill-opacity="0.333333" stroke="#444444" stroke-opacity="0.333333" points="922.5675,-482.1709 921.8818,-492.7435 929.011,-484.9061 922.5675,-482.1709"/>
</g>
<!-- systemd&#45;&gt;Fedora Container Base -->
<g id="edge4" class="edge">
<title>systemd&#45;&gt;Fedora Container Base</title>
<path fill="none" stroke="#444444" stroke-opacity="0.333333" d="M1058.6812,-536.754C1041.8782,-533.7314 1023.3071,-530.3909 1005.235,-527.14"/>
<polygon fill="#444444" fill-opacity="0.333333" stroke="#444444" stroke-opacity="0.333333" points="1005.7223,-523.6716 995.2606,-525.3458 1004.483,-530.561 1005.7223,-523.6716"/>
</g>
<!-- systemd&#45;&gt;util&#45;linux -->
<g id="edge5" class="edge">
<title>systemd&#45;&gt;util&#45;linux</title>
<path fill="none" stroke="#444444" stroke-opacity="0.333333" d="M1097.7164,-529.5817C1042.5124,-484.8011 900.2574,-369.4064 837.7691,-318.717"/>
<polygon fill="#444444" fill-opacity="0.333333" stroke="#444444" stroke-opacity="0.333333" points="839.821,-315.8747 829.8499,-312.293 835.4111,-321.311 839.821,-315.8747"/>
</g>
<!-- systemd&#45;&gt;cryptsetup&#45;libs -->
<g id="edge6" class="edge">
<title>systemd&#45;&gt;cryptsetup&#45;libs</title>
<path fill="none" stroke="#444444" stroke-opacity="0.333333" d="M1118.1073,-529.6169C1111.2735,-470.1743 1089.576,-281.442 1081.2741,-209.2295"/>
<polygon fill="#444444" fill-opacity="0.333333" stroke="#444444" stroke-opacity="0.333333" points="1084.7246,-208.5977 1080.1053,-199.0629 1077.7704,-209.3973 1084.7246,-208.5977"/>
</g>
<!-- systemd&#45;&gt;iptables&#45;libs -->
<g id="edge7" class="edge">
<title>systemd&#45;&gt;iptables&#45;libs</title>
<path fill="none" stroke="#444444" stroke-opacity="0.333333" d="M1133.3418,-566.1325C1163.4604,-608.1014 1237.5604,-711.3564 1272.4964,-760.038"/>
<polygon fill="#444444" fill-opacity="0.333333" stroke="#444444" stroke-opacity="0.333333" points="1269.6736,-762.1077 1278.3476,-768.1914 1275.3607,-758.0263 1269.6736,-762.1077"/>
</g>
<!-- systemd&#45;&gt;libseccomp -->
<g id="edge8" class="edge">
<title>systemd&#45;&gt;libseccomp</title>
<path fill="none" stroke="#444444" stroke-opacity="0.333333" d="M1125.7771,-529.6282C1140.2761,-482.334 1179.2323,-355.2635 1196.6179,-298.5538"/>
<polygon fill="#444444" fill-opacity="0.333333" stroke="#444444" stroke-opacity="0.333333" points="1200.0175,-299.4055 1199.6024,-288.8188 1193.325,-297.3537 1200.0175,-299.4055"/>
</g>
<!-- systemd&#45;&gt;shadow&#45;utils -->
<g id="edge9" class="edge">
<title>systemd&#45;&gt;shadow&#45;utils</title>
<path fill="none" stroke="#444444" stroke-opacity="0.333333" d="M1058.2769,-564.1556C991.0334,-581.8948 883.4778,-610.2684 810.417,-629.5422"/>
<polygon fill="#444444" fill-opacity="0.333333" stroke="#444444" stroke-opacity="0.333333" points="809.1209,-626.2643 800.3445,-632.1994 810.9065,-633.0328 809.1209,-626.2643"/>
</g>
<!-- systemd&#45;&gt;systemd&#45;pam -->
<g id="edge10" class="edge">
<title>systemd&#45;&gt;systemd&#45;pam</title>
<path fill="none" stroke="#444444" stroke-opacity="0.333333" d="M1182.1057,-547.2652C1190.039,-546.533 1198.2797,-545.6851 1206.5337,-544.7549"/>
<polygon fill="#444444" fill-opacity="0.333333" stroke="#444444" stroke-opacity="0.333333" points="1207.0616,-548.2172 1216.5886,-543.5818 1206.2503,-541.2643 1207.0616,-548.2172"/>
</g>
<!-- systemd&#45;&gt;systemd&#45;rpm&#45;macros -->
<g id="edge11" class="edge">
<title>systemd&#45;&gt;systemd&#45;rpm&#45;macros</title>
<path fill="none" stroke="#444444" stroke-opacity="0.333333" d="M1145.8098,-529.8024C1216.7477,-479.8947 1415.8124,-339.8443 1495.7484,-283.606"/>
<polygon fill="#444444" fill-opacity="0.333333" stroke="#444444" stroke-opacity="0.333333" points="1497.8351,-286.4174 1503.9999,-277.8008 1493.8072,-280.6923 1497.8351,-286.4174"/>
</g>
<!-- systemd&#45;&gt;acl -->
<g id="edge12" class="edge">
<title>systemd&#45;&gt;acl</title>
<path fill="none" stroke="#444444" stroke-opacity="0.333333" d="M1165.7522,-565.8764C1206.225,-581.9194 1265.4894,-605.4111 1308.6554,-622.5216"/>
<polygon fill="#444444" fill-opacity="0.333333" stroke="#444444" stroke-opacity="0.333333" points="1307.5719,-625.8571 1318.158,-626.2884 1310.1515,-619.3497 1307.5719,-625.8571"/>
</g>
<!-- systemd&#45;&gt;dbus -->
<g id="edge13" class="edge">
<title>systemd&#45;&gt;dbus</title>
<path fill="none" stroke="#444444" stroke-opacity="0.333333" d="M1118.6189,-565.9172C1112.0609,-640.9786 1086.97,-928.1633 1078.9678,-1019.7545"/>
<polygon fill="#444444" fill-opacity="0.333333" stroke="#444444" stroke-opacity="0.333333" points="1075.4627,-1019.6604 1078.079,-1029.9272 1082.4362,-1020.2698 1075.4627,-1019.6604"/>
</g>
<!-- systemd&#45;&gt;kmod&#45;libs -->
<g id="edge14" class="edge">
<title>systemd&#45;&gt;kmod&#45;libs</title>
<path fill="none" stroke="#444444" stroke-opacity="0.333333" d="M1124.9496,-566.0634C1132.9932,-596.9598 1149.3483,-659.7813 1158.8707,-696.3574"/>
<polygon fill="#444444" fill-opacity="0.333333" stroke="#444444" stroke-opacity="0.333333" points="1155.5697,-697.5702 1161.4763,-706.3658 1162.3439,-695.8066 1155.5697,-697.5702"/>
</g>
<!-- systemd&#45;&gt;qrencode&#45;libs -->
<g id="edge15" class="edge">
<title>systemd&#45;&gt;qrencode&#45;libs</title>
<path fill="none" stroke="#444444" stroke-opacity="0.333333" d="M1118.1732,-566.0822C1112.5685,-616.5813 1096.8334,-758.3583 1090.1098,-818.94"/>
<polygon fill="#444444" fill-opacity="0.333333" stroke="#444444" stroke-opacity="0.333333" points="1086.6248,-818.6117 1089.0003,-828.9368 1093.5821,-819.3839 1086.6248,-818.6117"/>
</g>
<!-- systemd&#45;&gt;libxkbcommon -->
<g id="edge16" class="edge">
<title>systemd&#45;&gt;libxkbcommon</title>
<path fill="none" stroke="#444444" stroke-dasharray="5,2" stroke-opacity="0.333333" d="M1181.9201,-531.5275C1247.1109,-514.3187 1350.0714,-487.1398 1420.9013,-468.4425"/>
<polygon fill="#444444" fill-opacity="0.333333" stroke="#444444" stroke-opacity="0.333333" points="1421.8998,-471.7989 1430.6752,-465.8624 1420.1131,-465.0307 1421.8998,-471.7989"/>
</g>
<!-- systemd&#45;&gt;diffutils -->
<g id="edge17" class="edge">
<title>systemd&#45;&gt;diffutils</title>
<path fill="none" stroke="#444444" stroke-dasharray="5,2" stroke-opacity="0.333333" d="M1137.3854,-529.7485C1167.7152,-497.8548 1230.8059,-431.5109 1265.5153,-395.0117"/>
<polygon fill="#444444" fill-opacity="0.333333" stroke="#444444" stroke-opacity="0.333333" points="1268.1142,-397.3578 1272.4692,-387.6993 1263.0417,-392.5339 1268.1142,-397.3578"/>
</g>
<!-- util&#45;linux&#45;&gt;Fedora Container Base -->
<g id="edge18" class="edge">
<title>util&#45;linux&#45;&gt;Fedora Container Base</title>
<path fill="none" stroke="#444444" stroke-opacity="0.333333" d="M816.4803,-312.3105C835.185,-350.2862 878.6363,-438.5046 900.7622,-483.4265"/>
<polygon fill="#444444" fill-opacity="0.333333" stroke="#444444" stroke-opacity="0.333333" points="897.7116,-485.1544 905.27,-492.5787 903.9913,-482.0613 897.7116,-485.1544"/>
</g>
<!-- util&#45;linux&#45;&gt;libfdisk -->
<g id="edge19" class="edge">
<title>util&#45;linux&#45;&gt;libfdisk</title>
<path fill="none" stroke="#444444" stroke-opacity="0.333333" d="M798.3805,-276.0423C781.1452,-241.9494 743.8852,-168.2455 723.6465,-128.2116"/>
<polygon fill="#444444" fill-opacity="0.333333" stroke="#444444" stroke-opacity="0.333333" points="726.7615,-126.6155 719.1262,-119.2701 720.5144,-129.7736 726.7615,-126.6155"/>
</g>
<!-- util&#45;linux&#45;&gt;libutempter -->
<g id="edge20" class="edge">
<title>util&#45;linux&#45;&gt;libutempter</title>
<path fill="none" stroke="#444444" stroke-opacity="0.333333" d="M781.87,-312.3458C757.1611,-329.7726 719.6501,-356.2285 692.3945,-375.4514"/>
<polygon fill="#444444" fill-opacity="0.333333" stroke="#444444" stroke-opacity="0.333333" points="690.0896,-372.7941 683.9349,-381.4179 694.1242,-378.5145 690.0896,-372.7941"/>
</g>
<!-- cryptsetup&#45;libs&#45;&gt;Fedora Container Base -->
<g id="edge27" class="edge">
<title>cryptsetup&#45;libs&#45;&gt;Fedora Container Base</title>
<path fill="none" stroke="#444444" stroke-opacity="0.333333" d="M1068.9617,-198.9634C1041.727,-253.8453 960.3335,-417.8648 927.8434,-483.3371"/>
<polygon fill="#444444" fill-opacity="0.333333" stroke="#444444" stroke-opacity="0.333333" points="924.5504,-482.0994 923.2403,-492.6129 930.8208,-485.211 924.5504,-482.0994"/>
</g>
<!-- cryptsetup&#45;libs&#45;&gt;device&#45;mapper&#45;libs -->
<g id="edge28" class="edge">
<title>cryptsetup&#45;libs&#45;&gt;device&#45;mapper&#45;libs</title>
<path fill="none" stroke="#444444" stroke-opacity="0.333333" d="M1056.7941,-162.4895C1030.0469,-139.4573 983.9511,-99.7641 954.103,-74.0618"/>
<polygon fill="#444444" fill-opacity="0.333333" stroke="#444444" stroke-opacity="0.333333" points="956.3773,-71.4014 946.5158,-67.5284 951.8097,-76.7058 956.3773,-71.4014"/>
</g>
<!-- cryptsetup&#45;libs&#45;&gt;libargon2 -->
<g id="edge29" class="edge">
<title>cryptsetup&#45;libs&#45;&gt;libargon2</title>
<path fill="none" stroke="#444444" stroke-opacity="0.333333" d="M1083.0321,-162.7111C1090.9066,-134.4822 1106.2047,-79.6417 1115.5407,-46.174"/>
<polygon fill="#444444" fill-opacity="0.333333" stroke="#444444" stroke-opacity="0.333333" points="1119.0297,-46.6924 1118.3454,-36.1197 1112.2871,-44.8115 1119.0297,-46.6924"/>
</g>
<!-- iptables&#45;libs&#45;&gt;Fedora Container Base -->
<g id="edge30" class="edge">
<title>iptables&#45;libs&#45;&gt;Fedora Container Base</title>
<path fill="none" stroke="#444444" stroke-opacity="0.333333" d="M1266.5594,-768.1656C1200.748,-720.0869 1021.3505,-589.0273 947.0916,-534.7772"/>
<polygon fill="#444444" fill-opacity="0.333333" stroke="#444444" stroke-opacity="0.333333" points="948.7109,-531.6257 938.5715,-528.5528 944.5816,-537.278 948.7109,-531.6257"/>
</g>
<!-- iptables&#45;libs&#45;&gt;libpcap -->
<g id="edge31" class="edge">
<title>iptables&#45;libs&#45;&gt;libpcap</title>
<path fill="none" stroke="#444444" stroke-opacity="0.333333" d="M1290.8489,-804.4386C1290.1587,-832.2851 1288.8344,-885.716 1288.0131,-918.8485"/>
<polygon fill="#444444" fill-opacity="0.333333" stroke="#444444" stroke-opacity="0.333333" points="1284.5045,-919.1566 1287.7556,-929.2403 1291.5024,-919.3301 1284.5045,-919.1566"/>
</g>
<!-- libseccomp&#45;&gt;Fedora Container Base -->
<g id="edge32" class="edge">
<title>libseccomp&#45;&gt;Fedora Container Base</title>
<path fill="none" stroke="#444444" stroke-opacity="0.333333" d="M1183.33,-288.6148C1131.7028,-331.2355 1002.2145,-438.1345 943.7235,-486.4216"/>
<polygon fill="#444444" fill-opacity="0.333333" stroke="#444444" stroke-opacity="0.333333" points="941.4403,-483.7679 935.9569,-492.8334 945.8968,-489.1661 941.4403,-483.7679"/>
</g>
<!-- shadow&#45;utils&#45;&gt;Fedora Container Base -->
<g id="edge33" class="edge">
<title>shadow&#45;utils&#45;&gt;Fedora Container Base</title>
<path fill="none" stroke="#444444" stroke-opacity="0.333333" d="M755.919,-631.972C788.4102,-607.0969 846.7107,-562.4624 882.7716,-534.8543"/>
<polygon fill="#444444" fill-opacity="0.333333" stroke="#444444" stroke-opacity="0.333333" points="885.1784,-537.4197 890.991,-528.5617 880.9231,-531.8616 885.1784,-537.4197"/>
</g>
<!-- shadow&#45;utils&#45;&gt;libsemanage -->
<g id="edge34" class="edge">
<title>shadow&#45;utils&#45;&gt;libsemanage</title>
<path fill="none" stroke="#444444" stroke-opacity="0.333333" d="M729.5483,-668.5088C723.3997,-712.4532 707.7732,-824.1378 700.4238,-876.6647"/>
<polygon fill="#444444" fill-opacity="0.333333" stroke="#444444" stroke-opacity="0.333333" points="696.948,-876.2486 699.0285,-886.6371 703.8805,-877.2186 696.948,-876.2486"/>
</g>
<!-- systemd&#45;pam&#45;&gt;Fedora Container Base -->
<g id="edge35" class="edge">
<title>systemd&#45;pam&#45;&gt;Fedora Container Base</title>
<path fill="none" stroke="#444444" stroke-opacity="0.333333" d="M1216.1835,-524.311C1169.3131,-522.2091 1108.527,-519.4832 1053.7916,-517.0286"/>
<polygon fill="#444444" fill-opacity="0.333333" stroke="#444444" stroke-opacity="0.333333" points="1053.7932,-513.5252 1043.6464,-516.5736 1053.4796,-520.5182 1053.7932,-513.5252"/>
</g>
<!-- systemd&#45;pam&#45;&gt;systemd -->
<g id="edge36" class="edge">
<title>systemd&#45;pam&#45;&gt;systemd</title>
<path fill="none" stroke="#444444" stroke-opacity="0.333333" d="M1216.3512,-530.0831C1208.2099,-530.9515 1199.9671,-531.9106 1191.9086,-532.9279"/>
<polygon fill="#444444" fill-opacity="0.333333" stroke="#444444" stroke-opacity="0.333333" points="1191.2839,-529.4797 1181.8214,-534.2452 1192.1904,-536.4208 1191.2839,-529.4797"/>
</g>
<!-- acl&#45;&gt;Fedora Container Base -->
<g id="edge37" class="edge">
<title>acl&#45;&gt;Fedora Container Base</title>
<path fill="none" stroke="#444444" stroke-opacity="0.333333" d="M1316.2031,-630.2436C1235.2937,-606.1959 1071.0372,-557.3759 979.523,-530.1763"/>
<polygon fill="#444444" fill-opacity="0.333333" stroke="#444444" stroke-opacity="0.333333" points="980.3995,-526.7855 969.8167,-527.2914 978.4051,-533.4954 980.3995,-526.7855"/>
</g>
<!-- dbus&#45;&gt;dbus&#45;broker -->
<g id="edge38" class="edge">
<title>dbus&#45;&gt;dbus&#45;broker</title>
<path fill="none" stroke="#444444" stroke-opacity="0.333333" d="M1062.9701,-1029.8346C1036.895,-994.8259 979.598,-917.8985 949.3991,-877.3531"/>
<polygon fill="#444444" fill-opacity="0.333333" stroke="#444444" stroke-opacity="0.333333" points="952.1676,-875.2107 943.3872,-869.2815 946.5537,-879.3921 952.1676,-875.2107"/>
</g>
<!-- kmod&#45;libs&#45;&gt;Fedora Container Base -->
<g id="edge39" class="edge">
<title>kmod&#45;libs&#45;&gt;Fedora Container Base</title>
<path fill="none" stroke="#444444" stroke-opacity="0.333333" d="M1144.7172,-706.2866C1099.4174,-667.86 994.0842,-578.5084 943.0158,-535.1883"/>
<polygon fill="#444444" fill-opacity="0.333333" stroke="#444444" stroke-opacity="0.333333" points="945.193,-532.4456 935.303,-528.6457 940.6648,-537.7837 945.193,-532.4456"/>
</g>
<!-- qrencode&#45;libs&#45;&gt;Fedora Container Base -->
<g id="edge40" class="edge">
<title>qrencode&#45;libs&#45;&gt;Fedora Container Base</title>
<path fill="none" stroke="#444444" stroke-opacity="0.333333" d="M1077.7111,-828.885C1049.1188,-773.2476 962.3082,-604.3245 928.2013,-537.9566"/>
<polygon fill="#444444" fill-opacity="0.333333" stroke="#444444" stroke-opacity="0.333333" points="931.2486,-536.2289 923.5648,-528.9344 925.0227,-539.4285 931.2486,-536.2289"/>
</g>
<!-- libxkbcommon&#45;&gt;Fedora Container Base -->
<g id="edge56" class="edge">
<title>libxkbcommon&#45;&gt;Fedora Container Base</title>
<path fill="none" stroke="#444444" stroke-opacity="0.333333" d="M1416.5429,-456.6885C1315.676,-467.5483 1144.4002,-485.9887 1030.3008,-498.2732"/>
<polygon fill="#444444" fill-opacity="0.333333" stroke="#444444" stroke-opacity="0.333333" points="1029.6975,-494.8179 1020.1297,-499.3683 1030.4469,-501.7777 1029.6975,-494.8179"/>
</g>
<!-- libxkbcommon&#45;&gt;xkeyboard&#45;config -->
<g id="edge57" class="edge">
<title>libxkbcommon&#45;&gt;xkeyboard&#45;config</title>
<path fill="none" stroke="#444444" stroke-opacity="0.333333" d="M1563.1584,-429.6853C1644.4023,-406.7107 1784.1748,-367.1851 1869.5934,-343.03"/>
<polygon fill="#444444" fill-opacity="0.333333" stroke="#444444" stroke-opacity="0.333333" points="1870.5505,-346.3967 1879.2207,-340.3076 1868.6456,-339.6608 1870.5505,-346.3967"/>
</g>
<!-- diffutils&#45;&gt;Fedora Container Base -->
<g id="edge58" class="edge">
<title>diffutils&#45;&gt;Fedora Container Base</title>
<path fill="none" stroke="#444444" stroke-opacity="0.333333" d="M1241.7651,-387.6052C1171.9487,-413.8587 1042.6221,-462.49 969.092,-490.14"/>
<polygon fill="#444444" fill-opacity="0.333333" stroke="#444444" stroke-opacity="0.333333" points="967.664,-486.9376 959.5358,-493.7334 970.1278,-493.4897 967.664,-486.9376"/>
</g>
<!-- libfdisk&#45;&gt;Fedora Container Base -->
<g id="edge41" class="edge">
<title>libfdisk&#45;&gt;Fedora Container Base</title>
<path fill="none" stroke="#444444" stroke-opacity="0.333333" d="M718.9339,-119.136C751.3026,-184.046 861.5229,-405.0747 900.4649,-483.1664"/>
<polygon fill="#444444" fill-opacity="0.333333" stroke="#444444" stroke-opacity="0.333333" points="897.4639,-484.9914 905.0587,-492.3785 903.7282,-481.8675 897.4639,-484.9914"/>
</g>
<!-- libutempter&#45;&gt;Fedora Container Base -->
<g id="edge42" class="edge">
<title>libutempter&#45;&gt;Fedora Container Base</title>
<path fill="none" stroke="#444444" stroke-opacity="0.333333" d="M699.7966,-417.759C744.9857,-437.3599 817.019,-468.6045 864.958,-489.3981"/>
<polygon fill="#444444" fill-opacity="0.333333" stroke="#444444" stroke-opacity="0.333333" points="863.6425,-492.6426 874.2094,-493.411 866.428,-486.2206 863.6425,-492.6426"/>
</g>
<!-- libutempter&#45;&gt;shadow&#45;utils -->
<g id="edge43" class="edge">
<title>libutempter&#45;&gt;shadow&#45;utils</title>
<path fill="none" stroke="#444444" stroke-opacity="0.333333" d="M663.3948,-417.6782C676.1442,-460.8203 708.4991,-570.3044 723.8216,-622.1534"/>
<polygon fill="#444444" fill-opacity="0.333333" stroke="#444444" stroke-opacity="0.333333" points="720.5434,-623.4103 726.734,-632.0084 727.2564,-621.4265 720.5434,-623.4103"/>
</g>
<!-- libpcap&#45;&gt;Fedora Container Base -->
<g id="edge25" class="edge">
<title>libpcap&#45;&gt;Fedora Container Base</title>
<path fill="none" stroke="#444444" stroke-opacity="0.333333" d="M1271.7446,-929.4053C1213.082,-860.7137 1005.1068,-617.1831 936.4237,-536.7579"/>
<polygon fill="#444444" fill-opacity="0.333333" stroke="#444444" stroke-opacity="0.333333" points="939.0075,-534.3939 929.8518,-529.0625 933.6844,-538.9398 939.0075,-534.3939"/>
</g>
<!-- libsemanage&#45;&gt;Fedora Container Base -->
<g id="edge26" class="edge">
<title>libsemanage&#45;&gt;Fedora Container Base</title>
<path fill="none" stroke="#444444" stroke-opacity="0.333333" d="M706.5554,-886.5663C741.526,-823.2854 857.8769,-612.7434 899.3704,-537.6591"/>
<polygon fill="#444444" fill-opacity="0.333333" stroke="#444444" stroke-opacity="0.333333" points="902.4979,-539.2359 904.2714,-528.7905 896.3712,-535.8501 902.4979,-539.2359"/>
</g>
<!-- dbus&#45;broker&#45;&gt;Fedora Container Base -->
<g id="edge44" class="edge">
<title>dbus&#45;broker&#45;&gt;Fedora Container Base</title>
<path fill="none" stroke="#444444" stroke-opacity="0.333333" d="M929.0481,-832.8592C926.4724,-776.873 918.6844,-607.5918 915.5539,-539.5472"/>
<polygon fill="#444444" fill-opacity="0.333333" stroke="#444444" stroke-opacity="0.333333" points="919.0321,-538.9899 915.0761,-529.1613 912.0395,-539.3116 919.0321,-538.9899"/>
</g>
<!-- dbus&#45;broker&#45;&gt;systemd -->
<g id="edge45" class="edge">
<title>dbus&#45;broker&#45;&gt;systemd</title>
<path fill="none" stroke="#444444" stroke-opacity="0.333333" d="M941.2248,-833.0931C973.3444,-781.8969 1065.103,-635.6406 1103.2485,-574.8394"/>
<polygon fill="#444444" fill-opacity="0.333333" stroke="#444444" stroke-opacity="0.333333" points="1106.3342,-576.5067 1108.6839,-566.1757 1100.4046,-572.7866 1106.3342,-576.5067"/>
</g>
<!-- dbus&#45;broker&#45;&gt;shadow&#45;utils -->
<g id="edge46" class="edge">
<title>dbus&#45;broker&#45;&gt;shadow&#45;utils</title>
<path fill="none" stroke="#444444" stroke-opacity="0.333333" d="M911.9895,-832.9717C876.5408,-796.953 797.3494,-716.4884 756.9085,-675.3972"/>
<polygon fill="#444444" fill-opacity="0.333333" stroke="#444444" stroke-opacity="0.333333" points="759.3366,-672.8746 749.8275,-668.2024 754.3475,-677.7847 759.3366,-672.8746"/>
</g>
<!-- dbus&#45;broker&#45;&gt;dbus&#45;common -->
<g id="edge47" class="edge">
<title>dbus&#45;broker&#45;&gt;dbus&#45;common</title>
<path fill="none" stroke="#444444" stroke-opacity="0.333333" d="M915.4995,-832.9181C906.3743,-821.3505 894.4215,-806.1987 884.284,-793.348"/>
<polygon fill="#444444" fill-opacity="0.333333" stroke="#444444" stroke-opacity="0.333333" points="886.8738,-790.9798 877.9324,-785.2963 881.378,-795.3152 886.8738,-790.9798"/>
</g>
<!-- dbus&#45;common&#45;&gt;Fedora Container Base -->
<g id="edge48" class="edge">
<title>dbus&#45;common&#45;&gt;Fedora Container Base</title>
<path fill="none" stroke="#444444" stroke-opacity="0.333333" d="M867.1323,-749.0661C875.8344,-705.0369 898.2244,-591.7521 908.6873,-538.8137"/>
<polygon fill="#444444" fill-opacity="0.333333" stroke="#444444" stroke-opacity="0.333333" points="912.1662,-539.2629 910.6716,-528.774 905.299,-537.9056 912.1662,-539.2629"/>
</g>
<!-- dbus&#45;common&#45;&gt;systemd -->
<g id="edge49" class="edge">
<title>dbus&#45;common&#45;&gt;systemd</title>
<path fill="none" stroke="#444444" stroke-opacity="0.333333" d="M885.0087,-748.7723C930.9767,-709.4963 1039.0631,-617.145 1091.1432,-572.6467"/>
<polygon fill="#444444" fill-opacity="0.333333" stroke="#444444" stroke-opacity="0.333333" points="1093.6736,-575.0883 1099.0028,-565.9313 1089.1264,-569.7664 1093.6736,-575.0883"/>
</g>
<!-- libunwind&#45;&gt;Fedora Container Base -->
<g id="edge50" class="edge">
<title>libunwind&#45;&gt;Fedora Container Base</title>
<path fill="none" stroke="#444444" stroke-opacity="0.333333" d="M556.4096,-811.1769C620.6931,-757.2079 811.6413,-596.898 885.0378,-535.2782"/>
<polygon fill="#444444" fill-opacity="0.333333" stroke="#444444" stroke-opacity="0.333333" points="887.5777,-537.7158 892.986,-528.6053 883.0767,-532.3547 887.5777,-537.7158"/>
</g>
<!-- gperftools&#45;libs&#45;&gt;Fedora Container Base -->
<g id="edge51" class="edge">
<title>gperftools&#45;libs&#45;&gt;Fedora Container Base</title>
<path fill="none" stroke="#444444" stroke-opacity="0.333333" d="M557.5285,-642.7381C633.4593,-614.6461 779.2005,-560.7265 858.873,-531.2503"/>
<polygon fill="#444444" fill-opacity="0.333333" stroke="#444444" stroke-opacity="0.333333" points="860.0883,-534.5326 868.2525,-527.7802 857.6593,-527.9675 860.0883,-534.5326"/>
</g>
<!-- gperftools&#45;libs&#45;&gt;libunwind -->
<g id="edge52" class="edge">
<title>gperftools&#45;libs&#45;&gt;libunwind</title>
<path fill="none" stroke="#444444" stroke-opacity="0.333333" d="M511.4178,-678.8585C515.9984,-708.15 525.0939,-766.3121 530.5316,-801.084"/>
<polygon fill="#444444" fill-opacity="0.333333" stroke="#444444" stroke-opacity="0.333333" points="527.0896,-801.7274 532.0927,-811.0665 534.0055,-800.6458 527.0896,-801.7274"/>
</g>
<!-- nginx&#45;filesystem&#45;&gt;Fedora Container Base -->
<g id="edge53" class="edge">
<title>nginx&#45;filesystem&#45;&gt;Fedora Container Base</title>
<path fill="none" stroke="#444444" stroke-opacity="0.333333" d="M516.6969,-533.0459C587.1262,-529.0994 693.4647,-523.1406 778.443,-518.3789"/>
<polygon fill="#444444" fill-opacity="0.333333" stroke="#444444" stroke-opacity="0.333333" points="778.6444,-521.8732 788.4329,-517.8191 778.2527,-514.8841 778.6444,-521.8732"/>
</g>
<!-- nginx&#45;filesystem&#45;&gt;shadow&#45;utils -->
<g id="edge54" class="edge">
<title>nginx&#45;filesystem&#45;&gt;shadow&#45;utils</title>
<path fill="none" stroke="#444444" stroke-opacity="0.333333" d="M487.113,-555.3226C538.3672,-575.1713 620.8014,-607.0947 675.7018,-628.3554"/>
<polygon fill="#444444" fill-opacity="0.333333" stroke="#444444" stroke-opacity="0.333333" points="674.6911,-631.7172 685.2802,-632.0647 677.219,-625.1896 674.6911,-631.7172"/>
</g>
<!-- nginx&#45;mimetypes&#45;&gt;nginx&#45;filesystem -->
<g id="edge55" class="edge">
<title>nginx&#45;mimetypes&#45;&gt;nginx&#45;filesystem</title>
<path fill="none" stroke="#444444" stroke-opacity="0.333333" d="M217.3924,-494.1316C260.1893,-502.4104 311.7534,-512.3853 354.5344,-520.661"/>
<polygon fill="#444444" fill-opacity="0.333333" stroke="#444444" stroke-opacity="0.333333" points="353.8807,-524.0994 364.3635,-522.5624 355.2103,-517.2268 353.8807,-524.0994"/>
</g>
<!-- nginx&#45;&gt;Fedora Container Base -->
<g id="edge59" class="edge">
<title>nginx&#45;&gt;Fedora Container Base</title>
<path fill="none" stroke="#444444" stroke-opacity="0.333333" d="M578.3194,-437.0244C651.2006,-453.0247 759.6629,-476.8364 833.4795,-493.0421"/>
<polygon fill="#444444" fill-opacity="0.333333" stroke="#444444" stroke-opacity="0.333333" points="833.1401,-496.5509 843.6581,-495.2767 834.6412,-489.7137 833.1401,-496.5509"/>
</g>
<!-- nginx&#45;&gt;systemd -->
<g id="edge60" class="edge">
<title>nginx&#45;&gt;systemd</title>
<path fill="none" stroke="#444444" stroke-opacity="0.333333" d="M578.045,-435.942C699.0657,-460.9156 931.1102,-508.7998 1048.4642,-533.0167"/>
<polygon fill="#444444" fill-opacity="0.333333" stroke="#444444" stroke-opacity="0.333333" points="1047.9264,-536.4794 1058.4274,-535.0727 1049.3411,-529.6239 1047.9264,-536.4794"/>
</g>
<!-- nginx&#45;&gt;fedora&#45;logos&#45;httpd -->
<g id="edge61" class="edge">
<title>nginx&#45;&gt;fedora&#45;logos&#45;httpd</title>
<path fill="none" stroke="#444444" stroke-opacity="0.333333" d="M465.2218,-401.7582C389.147,-362.5506 209.8251,-270.1312 126.4929,-227.1832"/>
<polygon fill="#444444" fill-opacity="0.333333" stroke="#444444" stroke-opacity="0.333333" points="128.0287,-224.0372 117.5363,-222.5671 124.8218,-230.2595 128.0287,-224.0372"/>
</g>
<!-- nginx&#45;&gt;gperftools&#45;libs -->
<g id="edge62" class="edge">
<title>nginx&#45;&gt;gperftools&#45;libs</title>
<path fill="none" stroke="#444444" stroke-opacity="0.333333" d="M501.1088,-438.0467C502.5073,-479.639 505.9582,-582.2696 507.6432,-632.3847"/>
<polygon fill="#444444" fill-opacity="0.333333" stroke="#444444" stroke-opacity="0.333333" points="504.15,-632.6465 507.9841,-642.5232 511.146,-632.4112 504.15,-632.6465"/>
</g>
<!-- nginx&#45;&gt;nginx&#45;filesystem -->
<g id="edge63" class="edge">
<title>nginx&#45;&gt;nginx&#45;filesystem</title>
<path fill="none" stroke="#444444" stroke-opacity="0.333333" d="M491.2719,-438.0218C481.4513,-457.2646 465.8005,-487.9313 454.4895,-510.0944"/>
<polygon fill="#444444" fill-opacity="0.333333" stroke="#444444" stroke-opacity="0.333333" points="451.3656,-508.5161 449.9373,-519.0142 457.6006,-511.6982 451.3656,-508.5161"/>
</g>
<!-- nginx&#45;&gt;nginx&#45;mimetypes -->
<g id="edge64" class="edge">
<title>nginx&#45;&gt;nginx&#45;mimetypes</title>
<path fill="none" stroke="#444444" stroke-opacity="0.333333" d="M422.6343,-432.0682C365.7057,-440.9353 288.1444,-453.0162 227.3498,-462.4854"/>
<polygon fill="#444444" fill-opacity="0.333333" stroke="#444444" stroke-opacity="0.333333" points="226.701,-459.0442 217.3588,-464.0416 227.7783,-465.9608 226.701,-459.0442"/>
</g>
<!-- Fedora Container Base -->
<g id="node1" class="node">
<title>Fedora Container Base</title>
<ellipse fill="none" stroke="#000000" cx="914.23" cy="-510.77" rx="136.5" ry="18"/>
<text text-anchor="middle" x="914.23" y="-507.07" font-family="Helvetica,sans-Serif" font-weight="bold" font-size="14.00" fill="#000000">Fedora Container Base (197.9 MB)</text>
</g>
<!-- device&#45;mapper&#45;libs -->
<g id="node2" class="node">
<title>device&#45;mapper&#45;libs</title>
<text text-anchor="middle" x="925.49" y="-45.723" font-family="Helvetica,sans-Serif" font-weight="bold" font-size="14.00" fill="#000000">device&#45;mapper&#45;libs (417.5 kB)</text>
</g>
<!-- device&#45;mapper -->
<g id="node3" class="node">
<title>device&#45;mapper</title>
<text text-anchor="middle" x="943.39" y="-240.61" font-family="Helvetica,sans-Serif" font-weight="bold" font-size="14.00" fill="#000000">device&#45;mapper (350.3 kB)</text>
</g>
<!-- libargon2 -->
<g id="node4" class="node">
<title>libargon2</title>
<text text-anchor="middle" x="1123.4" y="-14.3" font-family="Helvetica,sans-Serif" font-weight="bold" font-size="14.00" fill="#000000">libargon2 (54.9 kB)</text>
</g>
<!-- systemd -->
<g id="node5" class="node">
<title>systemd</title>
<text text-anchor="middle" x="1120.2" y="-544.12" font-family="Helvetica,sans-Serif" font-weight="bold" font-size="14.00" fill="#000000">systemd (12.3 MB)</text>
</g>
<!-- util&#45;linux -->
<g id="node6" class="node">
<title>util&#45;linux</title>
<text text-anchor="middle" x="807.57" y="-290.52" font-family="Helvetica,sans-Serif" font-weight="bold" font-size="14.00" fill="#000000">util&#45;linux (12.7 MB)</text>
</g>
<!-- cryptsetup&#45;libs -->
<g id="node7" class="node">
<title>cryptsetup&#45;libs</title>
<text text-anchor="middle" x="1078" y="-177.05" font-family="Helvetica,sans-Serif" font-weight="bold" font-size="14.00" fill="#000000">cryptsetup&#45;libs (1.8 MB)</text>
</g>
<!-- iptables&#45;libs -->
<g id="node8" class="node">
<title>iptables&#45;libs</title>
<text text-anchor="middle" x="1291.3" y="-782.54" font-family="Helvetica,sans-Serif" font-weight="bold" font-size="14.00" fill="#000000">iptables&#45;libs (155.9 kB)</text>
</g>
<!-- libseccomp -->
<g id="node9" class="node">
<title>libseccomp</title>
<text text-anchor="middle" x="1205.2" y="-266.86" font-family="Helvetica,sans-Serif" font-weight="bold" font-size="14.00" fill="#000000">libseccomp (347.0 kB)</text>
</g>
<!-- shadow&#45;utils -->
<g id="node10" class="node">
<title>shadow&#45;utils</title>
<text text-anchor="middle" x="732.11" y="-646.5" font-family="Helvetica,sans-Serif" font-weight="bold" font-size="14.00" fill="#000000">shadow&#45;utils (3.9 MB)</text>
</g>
<!-- systemd&#45;pam -->
<g id="node11" class="node">
<title>systemd&#45;pam</title>
<text text-anchor="middle" x="1295.1" y="-524.15" font-family="Helvetica,sans-Serif" font-weight="bold" font-size="14.00" fill="#000000">systemd&#45;pam (335.6 kB)</text>
</g>
<!-- systemd&#45;rpm&#45;macros -->
<g id="node12" class="node">
<title>systemd&#45;rpm&#45;macros</title>
<text text-anchor="middle" x="1529.6" y="-256.09" font-family="Helvetica,sans-Serif" font-weight="bold" font-size="14.00" fill="#000000">systemd&#45;rpm&#45;macros (4.9 kB)</text>
</g>
<!-- acl -->
<g id="node13" class="node">
<title>acl</title>
<text text-anchor="middle" x="1363.9" y="-640.72" font-family="Helvetica,sans-Serif" font-weight="bold" font-size="14.00" fill="#000000">acl (212.0 kB)</text>
</g>
<!-- dbus -->
<g id="node14" class="node">
<title>dbus</title>
<text text-anchor="middle" x="1076.5" y="-1044.3" font-family="Helvetica,sans-Serif" font-weight="bold" font-size="14.00" fill="#000000">dbus (0.0 B)</text>
</g>
<!-- kmod&#45;libs -->
<g id="node15" class="node">
<title>kmod&#45;libs</title>
<text text-anchor="middle" x="1166.2" y="-720.81" font-family="Helvetica,sans-Serif" font-weight="bold" font-size="14.00" fill="#000000">kmod&#45;libs (197.4 kB)</text>
</g>
<!-- qrencode&#45;libs -->
<g id="node16" class="node">
<title>qrencode&#45;libs</title>
<text text-anchor="middle" x="1087" y="-843.26" font-family="Helvetica,sans-Serif" font-weight="bold" font-size="14.00" fill="#000000">qrencode&#45;libs (159.3 kB)</text>
</g>
<!-- libxkbcommon -->
<g id="node17" class="node">
<title>libxkbcommon</title>
<text text-anchor="middle" x="1499.1" y="-444.1" font-family="Helvetica,sans-Serif" font-weight="bold" font-size="14.00" fill="#000000">libxkbcommon (276.4 kB)</text>
</g>
<!-- diffutils -->
<g id="node18" class="node">
<title>diffutils</title>
<text text-anchor="middle" x="1289.7" y="-365.88" font-family="Helvetica,sans-Serif" font-weight="bold" font-size="14.00" fill="#000000">diffutils (1.5 MB)</text>
</g>
<!-- libfdisk -->
<g id="node19" class="node">
<title>libfdisk</title>
<text text-anchor="middle" x="709.89" y="-97.3" font-family="Helvetica,sans-Serif" font-weight="bold" font-size="14.00" fill="#000000">libfdisk (488.8 kB)</text>
</g>
<!-- libutempter -->
<g id="node20" class="node">
<title>libutempter</title>
<text text-anchor="middle" x="658.07" y="-395.96" font-family="Helvetica,sans-Serif" font-weight="bold" font-size="14.00" fill="#000000">libutempter (58.2 kB)</text>
</g>
<!-- libpcap -->
<g id="node21" class="node">
<title>libpcap</title>
<text text-anchor="middle" x="1287.3" y="-943.92" font-family="Helvetica,sans-Serif" font-weight="bold" font-size="14.00" fill="#000000">libpcap (375.4 kB)</text>
</g>
<!-- xkeyboard&#45;config -->
<g id="node22" class="node">
<title>xkeyboard&#45;config</title>
<text text-anchor="middle" x="1942.9" y="-318.6" font-family="Helvetica,sans-Serif" font-weight="bold" font-size="14.00" fill="#000000">xkeyboard&#45;config (5.4 MB)</text>
</g>
<!-- libsemanage -->
<g id="node23" class="node">
<title>libsemanage</title>
<text text-anchor="middle" x="696.49" y="-901.08" font-family="Helvetica,sans-Serif" font-weight="bold" font-size="14.00" fill="#000000">libsemanage (313.1 kB)</text>
</g>
<!-- dbus&#45;broker -->
<g id="node24" class="node">
<title>dbus&#45;broker</title>
<text text-anchor="middle" x="929.89" y="-847.46" font-family="Helvetica,sans-Serif" font-weight="bold" font-size="14.00" fill="#000000">dbus&#45;broker (423.2 kB)</text>
</g>
<!-- dbus&#45;common -->
<g id="node25" class="node">
<title>dbus&#45;common</title>
<text text-anchor="middle" x="863.57" y="-763.39" font-family="Helvetica,sans-Serif" font-weight="bold" font-size="14.00" fill="#000000">dbus&#45;common (11.2 kB)</text>
</g>
<!-- libunwind -->
<g id="node26" class="node">
<title>libunwind</title>
<text text-anchor="middle" x="534.93" y="-825.51" font-family="Helvetica,sans-Serif" font-weight="bold" font-size="14.00" fill="#000000">libunwind (180.6 kB)</text>
</g>
<!-- fedora&#45;logos&#45;httpd -->
<g id="node27" class="node">
<title>fedora&#45;logos&#45;httpd</title>
<text text-anchor="middle" x="82.5" y="-200.81" font-family="Helvetica,sans-Serif" font-weight="bold" font-size="14.00" fill="#000000">fedora&#45;logos&#45;httpd (9.9 kB)</text>
</g>
<!-- gperftools&#45;libs -->
<g id="node28" class="node">
<title>gperftools&#45;libs</title>
<text text-anchor="middle" x="508.6" y="-657.14" font-family="Helvetica,sans-Serif" font-weight="bold" font-size="14.00" fill="#000000">gperftools&#45;libs (1.8 MB)</text>
</g>
<!-- nginx&#45;filesystem -->
<g id="node29" class="node">
<title>nginx&#45;filesystem</title>
<text text-anchor="middle" x="440.6" y="-533.61" font-family="Helvetica,sans-Serif" font-weight="bold" font-size="14.00" fill="#000000">nginx&#45;filesystem (0.0 B)</text>
</g>
<!-- nginx&#45;mimetypes -->
<g id="node30" class="node">
<title>nginx&#45;mimetypes</title>
<text text-anchor="middle" x="131.21" y="-473.76" font-family="Helvetica,sans-Serif" font-weight="bold" font-size="14.00" fill="#000000">nginx&#45;mimetypes (39.3 kB)</text>
</g>
<!-- nginx -->
<g id="node31" class="node">
<title>nginx</title>
<text text-anchor="middle" x="500.5" y="-414.34" font-family="Helvetica,sans-Serif" font-weight="bold" font-size="22.00" fill="#cc0066">nginx (1.7 MB)</text>
</g>
</g>

<script type="text/javascript"><![CDATA[

document.addEventListener('click', function(e) {
      e = e || window.event;
      var target = e.target || e.srcElement;
      text = target.parentElement.querySelector("title").textContent;

      console.log("Clicked on: " + text);
      // reset all strokes
      var nodes = document.getElementsByClassName("edge");

      for (index = 0, len = nodes.length; index < len; ++index) {
          //var title = nodes[index].querySelector("title").textContent.split("->");
          id = nodes[index].id;
          document.getElementById(id).querySelector("path").setAttribute("stroke-width", "1");
          document.getElementById(id).querySelector("path").setAttribute("stroke-opacity", "0.5");
          document.getElementById(id).querySelector("path").setAttribute("stroke", "#444444");
          document.getElementById(id).querySelector("polygon").setAttribute("stroke-width", "1");
          document.getElementById(id).querySelector("polygon").setAttribute("stroke-opacity", "0.5");
          document.getElementById(id).querySelector("polygon").setAttribute("stroke", "#444444");
      }
      // reset text highlight
      pkgs = document.getElementsByClassName("node");
      for (index2 = 0, len2 = pkgs.length; index2 < len2; ++index2) {
          target_id = pkgs[index2].id;
          document.getElementById(target_id).querySelector("text").setAttribute("font-weight", "normal");
      }

      // highlight deps
      var nodes = document.getElementsByClassName("edge");
      for (index = 0, len = nodes.length; index < len; ++index) {
        var title = nodes[index].querySelector("title").textContent.split("->");

        if (title[0] == text) {
          id = nodes[index].id;
          //console.log("ID:   " + id);
          document.getElementById(id).querySelector("path").setAttribute("stroke-width", "3");
          document.getElementById(id).querySelector("path").setAttribute("stroke-opacity", "1");
          document.getElementById(id).querySelector("path").setAttribute("stroke", "#aa3333");
          document.getElementById(id).querySelector("polygon").setAttribute("stroke-width", "5");
          document.getElementById(id).querySelector("polygon").setAttribute("stroke-opacity", "1");
          document.getElementById(id).querySelector("polygon").setAttribute("stroke", "#aa3333");

        }
        if (title[1] == text) {
          id = nodes[index].id;
          document.getElementById(id).querySelector("path").setAttribute("stroke-width", "3");
          document.getElementById(id).querySelector("path").setAttribute("stroke-opacity", "1");
          document.getElementById(id).querySelector("path").setAttribute("stroke", "#333377");
          document.getElementById(id).querySelector("polygon").setAttribute("stroke-width", "5");
          document.getElementById(id).querySelector("polygon").setAttribute("stroke-opacity", "1");
          document.getElementById(id).querySelector("polygon").setAttribute("stroke", "#333377");
        }

        if (title[0] == text || title[1] == text) {
          pkgs = document.getElementsByClassName("node");
          for (index2 = 0, len2 = pkgs.length; index2 < len2; ++index2) {
            var pkg_name = pkgs[index2].querySelector("title").textContent;
            if (pkg_name == title[0] || pkg_name == title[1]) {
              target_id = pkgs[index2].id;
              document.getElementById(target_id).querySelector("text").setAttribute("font-weight", "bold");
            }
          }
        }
      }


  }, false);

]]></script>


  <text
     id="text7664"
     y="19.384439"
     x="9.9055691"
     style="font-style:normal;font-weight:normal;font-size:12.49485588px;line-height:125%;font-family:sans-serif;letter-spacing:0px;word-spacing:0px;fill:#000000;fill-opacity:1;stroke:none;stroke-width:0.3123714px;stroke-linecap:butt;stroke-linejoin:miter;stroke-opacity:1"
     xml:space="preserve"><tspan
       style="font-size:12.00258541px;stroke-width:0.3123714px"
       y="19.384439"
       x="9.9055691"
       id="tspan7666"><a href="report-use-case-definition--nginx--31.html"><tspan
   style="font-weight:bold;font-size:12.00258541px;fill:#0066ff;stroke-width:0.3123714px"
   id="tspan7668">Nginx</tspan></a> on <a href="report-base-definition--fedora-container-base--31.html"><tspan
   style="font-weight:bold;font-size:12.00258541px;fill:#0066ff;stroke-width:0.3123714px"
   id="tspan7676">Fedora Container Base</tspan></a> (Fedora 31)</tspan></text>
  <text
     xml:space="preserve"
     style="font-style:normal;font-weight:normal;font-size:11.85299969px;line-height:125%;font-family:sans-serif;letter-spacing:0px;word-spacing:0px;fill:#000000;fill-opacity:1;stroke:none;stroke-width:0.296325px;stroke-linecap:butt;stroke-linejoin:miter;stroke-opacity:1"
     x="9.9365959"
     y="58.520042"
     id="text8235"><tspan
       id="tspan8237"
       x="9.9365959"
       y="58.520042"
       style="stroke-width:0.296325px;font-size:10.80232704px;fill:#666666">Generated by <a href="./"><tspan
   style="fill:#3771c8"
   id="tspan8255">Feedback Pipeline</tspan></a></tspan></text>
  <text
     xml:space="preserve"
     style="font-style:normal;font-weight:normal;font-size:12.49485588px;line-height:125%;font-family:sans-serif;letter-spacing:0px;word-spacing:0px;fill:#000000;fill-opacity:1;stroke:none;stroke-width:0.3123714px;stroke-linecap:butt;stroke-linejoin:miter;stroke-opacity:1"
     x="9.9055691"
     y="38.974205"
     id="text8245"><a href="graph--nginx--fedora-container-base--31.svg"><tspan
       id="tspan8247"
       x="9.9055691"
       y="38.974205"
       style="font-weight:normal;font-size:12.00258541px;fill:#0066ff;stroke-width:0.3123714px">Expand base image</tspan></a></text>

</svg>
