<?xml version="1.0" encoding="UTF-8" standalone="no"?>
<!DOCTYPE svg PUBLIC "-//W3C//DTD SVG 1.1//EN"
 "http://www.w3.org/Graphics/SVG/1.1/DTD/svg11.dtd">
<!-- Generated by graphviz version 2.40.1 (0)
 -->
<!-- Title: packages Pages: 1 -->
<svg width="1749pt" height="1065pt"
 viewBox="0.00 0.00 2098.73 1277.47" xmlns="http://www.w3.org/2000/svg" xmlns:xlink="http://www.w3.org/1999/xlink">
<g id="graph0" class="graph" transform="scale(.8333 .8333) rotate(0) translate(109.219 1142.363)">
<title>packages</title>
<polygon fill="#dae2ff" stroke="transparent" points="-109.219,135.1055 -109.219,-1142.363 1989.507,-1142.363 1989.507,135.1055 -109.219,135.1055"/>
<polygon fill="#b3cde3" stroke="#b3cde3" points="1295.1772,-659.7023 1296.0223,-659.7785 1301.8514,-660.0183 1310.3286,-660.7896 1323.7004,-663.3405 1339.111,-668.5849 1341.9344,-669.8224 1351.6979,-674.596 1364.8193,-682.3237 1398.7041,-703.8986 1427.4861,-719.9269 1412.5731,-759.1753 1381.9437,-846.5434 1305.3203,-879.1066 1296.4009,-883.0789 1279.6232,-903.8549 1278.5249,-912.1288 1273.9396,-953.3022 1263.1387,-984.9422 1244.8804,-1048.015 1234.3015,-1060.3274 1147.6497,-1106.101 1139.3728,-1105.7006 1132.6508,-1104.0688 1112.8167,-1100.1023 1111.1926,-1099.8478 1108.2852,-1099.4545 1101.1367,-1098.6405 1094.9778,-1098.0712 1079.0164,-1097.2799 1080.6097,-999.0345 1084.5608,-964.0739 1078.1641,-968.6834 1064.1171,-965.4065 995.3223,-966.2863 993.2445,-954.1543 985.8582,-918.8148 990.467,-915.6328 990.467,-915.6328 985.8582,-918.8148 993.2445,-954.1543 995.3223,-966.2863 995.8367,-971.6851 914.4292,-990.1643 922.1858,-904.4244 924.8841,-904.4611 929.0452,-904.6461 946.9871,-907.1144 948.1382,-907.3081 947.4294,-816.9356 952.2932,-818.3029 952.2932,-818.3029 947.4294,-816.9356 948.1382,-907.3081 946.9871,-907.1144 929.0452,-904.6461 924.8841,-904.4611 922.1858,-904.4244 914.4292,-990.1643 995.8367,-971.6851 995.3223,-966.2863 1064.1171,-965.4065 1078.1641,-968.6834 1084.5608,-964.0739 1080.6097,-999.0345 1079.0164,-1097.2799 1019.3146,-1096.8855 1006.912,-1105.7584 910.8989,-1132.8763 907.9399,-1133.7767 895.7817,-1138.2863 895.5863,-1138.363 887.9432,-1135.3226 886.77,-1037.3044 889.2749,-999.8292 894.0379,-997.1899 895.397,-995.6732 894.0709,-994.0787 888.6413,-990.8299 884.1636,-990.8299 884.1636,-990.8299 888.6413,-990.8299 894.0709,-994.0787 895.397,-995.6732 894.0379,-997.1899 889.2749,-999.8292 886.77,-1037.3044 887.9432,-1135.3226 875.778,-1131.0322 864.6483,-1127.6117 850.2062,-1123.8292 766.9451,-1103.9384 723.3271,-1038.5906 728.1651,-1032.4957 737.898,-1021.1719 744.0145,-1013.675 744.3589,-936.6317 750.9204,-893.4518 753.4166,-893.4518 758.4995,-928.6824 761.3435,-987.2839 765.1376,-895.0584 769.7609,-897.6502 769.7609,-897.6502 765.1376,-895.0584 761.3435,-987.2839 758.4995,-928.6824 753.4166,-893.4518 750.9204,-893.4518 744.3589,-936.6317 744.309,-935.9119 744.309,-935.9119 744.3589,-936.6317 744.0145,-1013.675 737.898,-1021.1719 728.1651,-1032.4957 728.9033,-1006.0847 728.9033,-1006.0847 728.1651,-1032.4957 723.3271,-1038.5906 619.5304,-1002.3217 600.3052,-983.5228 603.1138,-978.0643 606.5905,-971.8683 641.5323,-912.2574 656.3332,-884.8259 673.0227,-846.3416 690.565,-810.6073 711.8735,-774.2549 674.109,-706.4982 785.8693,-702.4621 803.1364,-705.2236 808.8113,-701.1549 810.2523,-698.9866 813.2144,-698.9866 813.3715,-699.0307 817.6465,-699.0307 820.929,-741.6294 821.1049,-796.0325 824.7072,-796.1879 828.696,-698.8661 831.5209,-698.8661 833.4794,-700.9928 837.8505,-703.3379 843.1875,-756.309 843.115,-782.6021 858.1013,-772.6776 867.0714,-767.6877 867.136,-764.6001 867.0788,-762.1308 867.0788,-762.1308 867.136,-764.6001 867.0714,-767.6877 858.1013,-772.6776 843.115,-782.6021 843.1875,-756.309 837.8505,-703.3379 843.2819,-703.3379 843.2819,-703.3379 837.8505,-703.3379 833.4794,-700.9928 831.5209,-698.8661 828.696,-698.8661 824.7072,-796.1879 821.1049,-796.0325 820.929,-741.6294 817.6465,-699.0307 813.3715,-699.0307 813.2144,-698.9866 810.2523,-698.9866 808.8113,-701.1549 803.1364,-705.2236 785.8693,-702.4621 674.109,-706.4982 659.342,-682.7269 655.1279,-676.254 655.1807,-676.0487 724.4663,-637.627 731.6104,-634.1918 743.2181,-629.0366 751.0443,-625.8575 753.175,-625.1527 758.8536,-623.4826 776.1051,-619.6707 783.9374,-618.5253 800.9955,-616.6659 812.2805,-615.0444 814.215,-614.7001 815.8821,-614.3461 818.4214,-613.7185 828.0262,-611.007 835.2408,-608.7203 842.9278,-605.7501 855.9351,-600.2729 862.457,-597.0873 862.468,-597.0816 865.8475,-595.0792 847.7254,-556.0333 838.0878,-532.3312 834.8259,-522.7608 829.5568,-503.5544 882.2044,-497.8539 886.0515,-493.9763 888.1514,-493.2865 889.6593,-492.1798 888.03,-489.7775 888.03,-489.7775 889.6593,-492.1798 888.1514,-493.2865 886.0515,-493.9763 882.2044,-497.8539 829.5568,-503.5544 823.6276,-486.1118 793.3524,-420.8805 883.8373,-360.3339 900.5117,-347.6187 900.7904,-347.3893 910.6,-350.5881 917.08,-352.565 931.9606,-356.1741 940.5295,-357.8937 948.194,-359.1118 963.2814,-360.8815 965.8738,-366.1829 976.1764,-384.1886 979.3112,-389.0704 992.8482,-408.9532 1010.5328,-429.9413 1019.3238,-437.7828 1020.7375,-439.2235 1052.9204,-482.5067 1066.2308,-497.6237 1068.3098,-499.4781 1078.6523,-510.7231 1093.5388,-529.8176 1096.3306,-533.8997 1096.3712,-533.9674 1076.0098,-557.1667 1022.4725,-560.0781 1015.0016,-560.1685 1013.7507,-560.2372 1011.6327,-560.1739 1005.3859,-560.2556 1001.321,-560.1358 997.3437,-560.3608 993.1949,-560.4189 992.3943,-560.3621 991.207,-560.3288 983.8554,-560.4387 980.2614,-560.1863 969.3131,-560.3602 968.1841,-560.2825 967.9938,-560.2612 960.0108,-560.0573 958.0698,-560.0905 949.886,-560.9312 939.8753,-562.3894 939.8569,-562.3929 932.0093,-564.2064 931.3606,-564.3839 919.9483,-568.0037 920.1712,-528.7751 920.1712,-528.7751 919.9483,-568.0037 914.6176,-570.1503 900.6913,-576.3619 898.1164,-577.7244 884.0516,-586.3958 871.3002,-595.3411 875.8066,-601.212 896.3037,-625.0129 903.3736,-634.8967 931.5366,-678.7902 948.7679,-702.396 963.4437,-720.7048 963.6495,-720.7018 968.7365,-720.7809 973.8951,-721.0161 980.4391,-720.7176 980.6166,-720.7041 981.9341,-720.683 987.3964,-720.7592 994.5684,-721.0747 998.334,-721.1257 1003.3132,-721.4912 1013.1705,-722.5107 1024.505,-724.3616 1028.0186,-725.0396 1086.5872,-694.8039 1099.2939,-698.3572 1100.854,-750.9456 1100.854,-750.9456 1099.2939,-698.3572 1112.5717,-701.1711 1121.4465,-702.4455 1133.6508,-703.366 1135.361,-703.4365 1136.3712,-703.4437 1139.2911,-703.5615 1143.8218,-703.5894 1149.2751,-698.7457 1162.4058,-688.6524 1162.6674,-688.4836 1176.437,-680.3815 1180.1643,-678.6407 1191.9176,-673.8394 1201.9037,-671.5444 1211.7098,-669.8762 1212.6405,-669.7742 1223.5807,-669.2272 1224.4227,-669.1348 1234.2177,-667.4668 1237.2035,-666.7807 1240.3671,-665.8638 1249.4147,-662.6903 1256.4087,-659.3901 1257.9161,-715.9878 1253.2256,-717.2676 1249.6971,-681.5447 1246.9945,-720.8219 1242.9098,-720.8219 1242.4874,-720.9435 1242.6028,-801.947 1239.7585,-798.8024 1227.3756,-787.0015 1222.175,-781.4895 1223.4603,-754.9005 1223.4603,-754.9005 1222.175,-781.4895 1212.85,-773.3896 1212.85,-773.3896 1222.175,-781.4895 1227.3756,-787.0015 1239.7585,-798.8024 1242.6028,-801.947 1242.4874,-720.9435 1242.9098,-720.8219 1246.9945,-720.8219 1249.6971,-681.5447 1253.2256,-717.2676 1257.9161,-715.9878 1256.4087,-659.3901 1264.5079,-655.0735 1266.6565,-655.7916 1271.1987,-656.8625 1283.9547,-659.2505 1295.1772,-659.7023 1295.1772,-659.7023"/>
<polygon fill="#fed9a6" stroke="#fed9a6" points="41.2306,-380.2978 33.9604,-382.1045 32.1019,-382.606 28.8038,-383.5666 -104.1681,-329.8635 -105.219,-321.841 -102.755,-241.08 -105.0404,-180.4927 -16.2724,-105.9803 -13.5117,-40.582 -14.1046,-22.8598 -1.5079,26.9581 20.3963,74.6554 53.67,90.5367 105.4365,97.7772 109.5145,-8.0046 109.5145,-8.0046 105.4365,97.7772 119.6155,100.3407 134.3815,103.6127 145.8374,106.6147 151.7818,108.657 165.5671,104.4639 172.8098,102.5578 172.4467,8.6009 169.1218,-40.4223 164.7822,-40.4223 163.2887,18.1999 158.6898,-40.5343 155.8436,-40.5343 154.9243,-39.5182 149.2176,-36.2098 143.8619,-36.2098 138.1503,-39.5467 137.1434,-40.6717 138.2586,-41.894 143.4857,-44.8648 149.3916,-44.8648 149.3916,-44.8648 143.4857,-44.8648 138.2586,-41.894 137.1434,-40.6717 138.1503,-39.5467 143.8619,-36.2098 149.2176,-36.2098 154.9243,-39.5182 155.8436,-40.5343 158.6898,-40.5343 163.2887,18.1999 164.7822,-40.4223 169.1218,-40.4223 172.4467,8.6009 172.8098,102.5578 177.24,101.5722 188.3712,99.3211 233.4298,91.1295 314.8475,12.8729 348.0678,-32.7511 351.443,-40.582 359.4097,-56.586 320.349,-146.6263 291.963,-208.8545 408.2381,-196.7394 484.3835,-191.9662 486.1015,-251.8784 478.4856,-251.8322 478.6299,-317.4224 482.7985,-317.4224 483.8597,-317.7299 482.7959,-354.5307 483.4437,-365.2145 489.8009,-317.9041 492.8905,-317.9041 494.0591,-317.5794 494.3135,-317.5794 497.9857,-320.6223 497.9857,-320.6223 494.3135,-317.5794 494.0591,-317.5794 492.8905,-317.9041 489.8009,-317.9041 483.4437,-365.2145 482.7959,-354.5307 483.8597,-317.7299 482.7985,-317.4224 478.6299,-317.4224 478.4856,-251.8322 486.1015,-251.8784 484.3835,-191.9662 490.3959,-186.0817 490.4338,-186.0138 494.1995,-186.0138 494.5122,-185.9212 494.5122,-185.9212 494.1995,-186.0138 490.4338,-186.0138 490.3959,-186.0817 484.3835,-191.9662 408.2381,-196.7394 291.963,-208.8545 320.349,-146.6263 359.4097,-56.586 477.1064,-45.567 486.368,-44.5095 500.5589,-42.598 513.9644,-39.9694 524.4925,-37.4743 524.5583,-156.5373 521.2078,-182.3685 516.8469,-181.1319 510.773,-182.9256 507.0452,-186.0947 510.8165,-189.3318 516.3058,-190.9628 522.0597,-189.189 520.2666,-251.7215 520.0059,-251.7374 516.8188,-252.0817 517.9315,-266.768 517.9315,-266.768 516.8188,-252.0817 520.0059,-251.7374 520.2666,-251.7215 522.0597,-189.189 516.3058,-190.9628 510.8165,-189.3318 507.0452,-186.0947 510.773,-182.9256 516.8469,-181.1319 521.2078,-182.3685 524.5583,-156.5373 524.4925,-37.4743 537.4737,-33.8666 537.7364,-34.5985 538.9171,-37.7034 555.5377,-76.8189 585.5425,-142.5057 590.8184,-159.2776 597.1094,-185.5448 597.7645,-187.2621 625.4883,-247.9552 618.2482,-258.3633 546.5142,-251.9227 540.0887,-251.9511 536.9966,-252.1109 536.817,-263.5406 536.817,-263.5406 536.9966,-252.1109 540.0887,-251.9511 546.5142,-251.9227 618.2482,-258.3633 620.3041,-292.8879 620.6711,-309.5106 620.7673,-310.4922 621.3941,-320.9327 621.684,-334.0603 625.1835,-392.8272 541.7369,-396.2833 541.6919,-408.4949 544.2864,-468.4158 544.2864,-468.4158 541.6919,-408.4949 541.7369,-396.2833 625.1835,-392.8272 658.2416,-427.0756 641.3855,-474.73 627.4953,-530.2745 627.1937,-531.3344 622.1447,-547.1259 617.4203,-560.4824 630.713,-608.93 655.1807,-676.0487 655.1279,-676.254 659.342,-682.7269 674.109,-706.4982 711.8735,-774.2549 690.565,-810.6073 673.0227,-846.3416 656.3332,-884.8259 641.5323,-912.2574 606.5905,-971.8683 603.1138,-978.0643 599.2455,-863.7115 599.2455,-863.7115 603.1138,-978.0643 600.3052,-983.5228 585.465,-979.7302 583.282,-979.2136 575.2607,-977.6168 567.5719,-976.2306 569.4852,-829.0113 574.6397,-827.5572 578.4739,-824.3047 574.8583,-821.0365 574.8583,-821.0365 578.4739,-824.3047 574.6397,-827.5572 569.4852,-829.0113 567.5719,-976.2306 559.3422,-974.9019 559.2609,-974.8903 548.7509,-973.5891 543.6542,-973.2453 534.5324,-968.9399 494.7415,-951.9996 412.1322,-900.0248 319.6932,-890.0449 316.8288,-888.5786 310.0987,-860.1112 305.0105,-756.74 346.6282,-756.74 406.6135,-758.8442 434.4418,-763.0496 435.9976,-793.0463 440.9373,-758.1014 441.6596,-757.0264 444.1632,-757.0264 450.6515,-817.8649 450.3354,-756.5699 450.4786,-756.5283 454.4872,-756.5283 455.4088,-756.806 457.4829,-756.806 460.9095,-759.9061 466.5709,-761.6155 466.5709,-761.6155 460.9095,-759.9061 457.4829,-756.806 455.4088,-756.806 454.4872,-756.5283 450.4786,-756.5283 450.3354,-756.5699 450.6515,-817.8649 444.1632,-757.0264 441.6596,-757.0264 440.9373,-758.1014 435.9976,-793.0463 434.4418,-763.0496 406.6135,-758.8442 346.6282,-756.74 305.0105,-756.74 294.4747,-669.3414 303.5199,-650.3232 303.5668,-647.7593 464.2771,-614.2025 467.5162,-610.7309 468.8827,-610.171 473.9755,-670.816 474.3648,-682.6572 476.9211,-682.8312 477.6351,-682.9098 487.342,-682.7916 487.8745,-652.1595 485.3949,-611.9786 491.5685,-613.8734 496.2942,-612.5041 500.3558,-608.8666 501.2642,-608.8666 501.2642,-608.8666 500.3558,-608.8666 496.2942,-612.5041 491.5685,-613.8734 485.3949,-611.9786 487.8745,-652.1595 487.342,-682.7916 477.6351,-682.9098 476.9211,-682.8312 474.3648,-682.6572 473.9755,-670.816 468.8827,-610.171 467.5162,-610.7309 464.2771,-614.2025 303.5668,-647.7593 303.5653,-645.834 359.5423,-598.368 362.8547,-595.7051 373.9218,-585.634 374.4584,-585.1744 382.9991,-578.2924 383.3985,-577.9916 393.9453,-570.5756 398.2257,-567.791 409.5307,-561.5886 409.5307,-561.5886 398.2257,-567.791 398.5988,-550.6434 396.9955,-492.7902 402.8436,-491.0594 406.4036,-488.0265 402.0345,-484.1838 397.298,-482.8493 397.298,-482.8493 402.0345,-484.1838 406.4036,-488.0265 402.8436,-491.0594 396.9955,-492.7902 398.5988,-550.6434 398.2257,-567.791 393.9453,-570.5756 383.3985,-577.9916 382.9991,-578.2924 374.4584,-585.1744 373.9218,-585.634 362.8547,-595.7051 359.5423,-598.368 303.5653,-645.834 243.4525,-533.3747 240.4125,-521.6013 230.8359,-487.9648 230.476,-469.886 223.6508,-365.8699 86.8245,-373.4629 74.5401,-374.6734 73.764,-241.2387 76.7624,-241.2387 78.5675,-238.5729 84.506,-234.6427 101.4389,-238.8999 140.7177,-241.08 282.47,-241.08 273.4423,-299.5144 272.074,-307.5399 301.2214,-325.8421 366.4243,-370.1735 378.0362,-377.2655 384.4298,-380.7253 393.4921,-385.3162 407.2902,-391.3465 414.9886,-394.1677 428.1076,-398.0617 427.3053,-433.9338 427.3053,-433.9338 428.1076,-398.0617 414.9886,-394.1677 407.2902,-391.3465 393.4921,-385.3162 384.4298,-380.7253 378.0362,-377.2655 366.4243,-370.1735 301.2214,-325.8421 272.074,-307.5399 273.4423,-299.5144 282.47,-241.08 140.7177,-241.08 101.4389,-238.8999 84.506,-234.6427 78.5675,-238.5729 76.7624,-241.2387 73.764,-241.2387 74.5401,-374.6734 65.6953,-375.735 54.1029,-377.3745 54.3528,-352.1992 54.3314,-351.688 52.6389,-244.2037 58.0937,-245.857 63.8735,-244.1298 67.3128,-241.2197 63.9132,-238.2544 57.9967,-236.4196 57.9967,-236.4196 63.9132,-238.2544 67.3128,-241.2197 63.8735,-244.1298 58.0937,-245.857 52.6389,-244.2037 54.3314,-351.688 54.3528,-352.1992 54.1029,-377.3745 41.2306,-380.2978 41.2306,-380.2978"/>
<polygon fill="#ccebc5" stroke="#ccebc5" points="1629.2056,-475.0168 1631.1209,-475.6414 1634.1859,-478.7805 1789.1254,-510.0362 1789.1218,-509.663 1766.8939,-457.3693 1762.8419,-446.4594 1684.6925,-270.4287 1655.8645,-260.6909 1637.407,-278.3705 1632.4364,-441.5684 1632.4364,-441.5684 1637.407,-278.3705 1620.6101,-293.6059 1620.3445,-293.8328 1619.1819,-294.7966 1606.3376,-305.838 1603.3901,-308.2909 1595.4238,-314.7047 1599.0579,-471.6923 1593.9,-468.8624 1588.8784,-468.8624 1588.8784,-468.8624 1593.9,-468.8624 1599.0579,-471.6923 1595.4238,-314.7047 1591.5316,-317.7314 1586.0958,-321.8099 1575.5204,-329.1733 1570.9828,-332.0872 1562.0195,-337.6039 1549.6832,-344.5337 1546.0026,-346.5002 1447.7051,-396.3409 1444.1997,-398.2132 1437.9304,-394.633 1423.6871,-388.06 1411.5693,-382.8025 1410.8314,-382.5033 1405.6892,-380.5615 1399.8593,-378.6819 1389.4587,-375.6145 1378.079,-372.8891 1373.8224,-371.9886 1364.5985,-370.5484 1335.693,-331.5671 1308.2465,-286.0946 1288.6104,-256.9369 1287.5769,-255.6257 1271.0332,-266.4881 1263.1753,-271.2295 1259.5477,-273.2206 1252.3822,-276.7688 1253.3652,-341.4455 1257.4006,-344.9268 1254.1617,-347.6574 1254.1617,-347.6574 1257.4006,-344.9268 1253.3652,-341.4455 1248.4089,-340.0077 1248.4089,-340.0077 1253.3652,-341.4455 1252.3822,-276.7688 1245.1737,-279.945 1237.4725,-282.5032 1229.2211,-284.7975 1208.064,-288.3873 1197.793,-290.6828 1191.5378,-292.4103 1187.623,-293.6956 1185.0802,-294.6634 1183.2144,-295.4728 1171.563,-301.1652 1170.4541,-301.7646 1163.2114,-306.0696 1148.901,-316.1293 1127.2278,-332.4704 1114.1671,-330.4006 1107.7579,-329.2141 1105.5251,-244.2142 1105.9824,-232.8791 1105.2813,-225.3857 1105.4153,-222.0364 1104.625,-191.9521 1109.7014,-189.0608 1106.1792,-134.9145 1101.2031,-131.6224 1099.0928,-128.4933 1096.7351,-128.4933 1096.1688,-128.3332 1091.6151,-128.3332 1091.6151,-128.3332 1096.1688,-128.3332 1096.7351,-128.4933 1099.0928,-128.4933 1101.2031,-131.6224 1106.1792,-134.9145 1109.7014,-189.0608 1153.7032,-166.8548 1155.7699,-165.683 1164.5425,-160.1424 1171.1211,-155.5785 1173.0573,-154.1172 1181.8246,-146.9442 1184.5867,-144.5168 1195.957,-133.0571 1199.9347,-128.54 1211.8022,-117.4792 1212.0862,-117.2008 1262.6938,-131.4585 1278.4562,-136.7792 1279.8986,-137.3054 1293.4839,-142.637 1295.4639,-143.4671 1297.6949,-144.4629 1309.8136,-150.542 1362.8827,-135.7634 1378.2042,-131.1528 1396.7349,-124.7588 1397.0105,-124.6578 1404.2251,-121.6991 1419.2313,-114.5456 1437.8516,-104.8478 1441.6694,-102.696 1485.5092,-75.0849 1466.4563,-37.5357 1441.75,16.0024 1434.546,32.5601 1398.9773,79.5025 1320.7616,131.1055 1300.759,123.2339 1286.0748,118.1263 1288.0413,23.3611 1285.7957,-13.5531 1292.2268,-17.5397 1292.509,-17.8686 1291.1091,-19.549 1285.7655,-22.69 1280.7795,-22.69 1275.2128,-19.5233 1274.0981,-18.2748 1271.8292,-18.2748 1271.8292,-18.2748 1274.0981,-18.2748 1275.2128,-19.5233 1280.7795,-22.69 1285.7655,-22.69 1291.1091,-19.549 1292.509,-17.8686 1292.2268,-17.5397 1285.7957,-13.5531 1288.0413,23.3611 1286.0748,118.1263 1283.1849,117.2545 1274.0371,114.7036 1268.1914,113.2079 1220.6678,103.2252 1172.0234,76.4679 1121.0701,25.0933 1109.4937,24.155 1105.4666,-76.8312 1106.4185,-122.3454 1106.4185,-122.3454 1105.4666,-76.8312 1109.4937,24.155 1093.4335,23.4351 1084.558,23.1985 1081.2104,23.2309 1074.1888,23.4262 1060.3998,24.3107 1050.0892,25.5338 1024.9019,29.4399 1013.4805,31.4154 998.7384,7.9638 980.5273,-22.538 967.0514,-46.548 946.379,-86.1439 960.2429,-116.0895 972.8856,-150.2741 975.5671,-158.7468 959.4623,-183.3225 958.5774,-184.8854 956.9429,-188.2751 943.2836,-222.414 923.4102,-256.3374 987.0411,-236.4368 989.6465,-233.6386 990.6417,-233.2306 997.4649,-281.7586 996.6202,-231.6643 997.4694,-231.4168 1000.8825,-231.4168 1001.6767,-231.6502 1006.9885,-231.6502 1007.1671,-231.5977 1012.0392,-231.5977 1012.1339,-231.5701 1013.2647,-231.5701 1016.8719,-234.7325 1022.2836,-236.3415 1026.9982,-234.9774 1026.9982,-234.9774 1022.2836,-236.3415 1016.8719,-234.7325 1013.2647,-231.5701 1012.1339,-231.5701 1012.0392,-231.5977 1007.1671,-231.5977 1006.9885,-231.6502 1001.6767,-231.6502 1000.8825,-231.4168 997.4694,-231.4168 996.6202,-231.6643 997.4649,-281.7586 990.6417,-233.2306 989.6465,-233.6386 987.0411,-236.4368 923.4102,-256.3374 907.7234,-280.2752 905.6077,-283.9536 902.5533,-289.6248 889.4706,-315.5283 900.7904,-347.3893 910.6,-350.5881 917.08,-352.565 931.9606,-356.1741 940.5295,-357.8937 948.194,-359.1118 963.2814,-360.8815 965.8738,-366.1829 976.1764,-384.1886 979.3112,-389.0704 992.8482,-408.9532 1010.5328,-429.9413 1019.3238,-437.7828 1020.7375,-439.2235 1052.9204,-482.5067 1066.2308,-497.6237 1068.3098,-499.4781 1068.4833,-489.1159 1068.4833,-489.1159 1068.3098,-499.4781 1078.6523,-510.7231 1093.5388,-529.8176 1090.9617,-475.075 1092.4352,-443.0976 1097.3898,-443.0976 1097.3898,-443.0976 1092.4352,-443.0976 1090.9617,-475.075 1093.5388,-529.8176 1096.3306,-533.8997 1096.3712,-533.9674 1108.796,-531.3258 1109.5739,-484.3275 1109.5739,-484.3275 1108.796,-531.3258 1096.3712,-533.9674 1076.0098,-557.1667 1079.4397,-595.9625 1080.3271,-619.6691 1080.225,-626.5903 1080.3219,-629.1962 1081.5576,-637.9171 1086.5872,-694.8039 1099.2939,-698.3572 1112.5717,-701.1711 1121.4465,-702.4455 1133.6508,-703.366 1135.361,-703.4365 1136.3712,-703.4437 1139.2911,-703.5615 1143.8218,-703.5894 1149.2751,-698.7457 1162.4058,-688.6524 1160.6707,-651.0833 1160.6707,-651.0833 1162.4058,-688.6524 1162.6674,-688.4836 1176.437,-680.3815 1180.1643,-678.6407 1182.6118,-621.3733 1186.3589,-618.2737 1186.4604,-618.1233 1182.8522,-615.0537 1182.8522,-615.0537 1186.4604,-618.1233 1186.3589,-618.2737 1191.3934,-658.7065 1192.7972,-618.0658 1192.7972,-618.0658 1191.3934,-658.7065 1186.3589,-618.2737 1182.6118,-621.3733 1180.1643,-678.6407 1191.9176,-673.8394 1201.9037,-671.5444 1211.7098,-669.8762 1212.6405,-669.7742 1223.5807,-669.2272 1224.4227,-669.1348 1234.2177,-667.4668 1237.2035,-666.7807 1240.3671,-665.8638 1249.4147,-662.6903 1256.4087,-659.3901 1264.5079,-655.0735 1266.6565,-655.7916 1271.1987,-656.8625 1283.9547,-659.2505 1295.1772,-659.7023 1296.0223,-659.7785 1301.8514,-660.0183 1310.3286,-660.7896 1323.7004,-663.3405 1323.7035,-639.8635 1317.1241,-598.7789 1314.2269,-598.7789 1312.6943,-598.3287 1317.2271,-534.6184 1312.4038,-534.4243 1312.6348,-472.0992 1307.5544,-474.8181 1302.7491,-474.8181 1297.3696,-471.8332 1295.9816,-470.2956 1292.9996,-470.2956 1291.5164,-469.8659 1291.5164,-469.8659 1292.9996,-470.2956 1295.9816,-470.2956 1297.3696,-471.8332 1302.7491,-474.8181 1307.5544,-474.8181 1312.6348,-472.0992 1314.2762,-470.3456 1312.0088,-467.7856 1308.3533,-465.8183 1308.3533,-465.8183 1312.0088,-467.7856 1314.2762,-470.3456 1312.6348,-472.0992 1312.4038,-534.4243 1317.2271,-534.6184 1312.6943,-598.3287 1314.2269,-598.7789 1317.1241,-598.7789 1323.7035,-639.8635 1323.7004,-663.3405 1339.111,-668.5849 1337.4856,-627.7199 1333.2349,-602.3272 1329.6047,-603.3251 1329.6047,-603.3251 1333.2349,-602.3272 1337.4856,-627.7199 1339.111,-668.5849 1341.9344,-669.8224 1351.6979,-674.596 1364.8193,-682.3237 1398.7041,-703.8986 1427.4861,-719.9269 1471.6349,-685.1021 1508.0039,-632.7012 1511.246,-628.2307 1515.7616,-627.6335 1546.3832,-622.6407 1560.0428,-620.9167 1576.0852,-619.4858 1568.0463,-473.5393 1564.9303,-473.5393 1564.6215,-473.4513 1564.6215,-473.4513 1564.9303,-473.5393 1568.0463,-473.5393 1576.0852,-619.4858 1579.24,-619.2631 1579.8044,-619.2337 1584.9058,-619.0625 1590.239,-619.0807 1603.7279,-619.3763 1606.6987,-619.5512 1623.7229,-621.1852 1629.429,-621.9438 1637.5594,-623.175 1642.9111,-624.0841 1654.0649,-623.3987 1669.9924,-617.0688 1787.6908,-518.3035 1789.2255,-513.4929 1789.1254,-510.0362 1634.1859,-478.7805 1631.1209,-475.6414 1629.2056,-475.0168 1626.9467,-473.3389 1624.9108,-473.3389 1624.9108,-473.3389 1626.9467,-473.3389 1629.2056,-475.0168 1629.2056,-475.0168"/>
<polygon fill="#decbe4" stroke="#decbe4" points="725.3675,-580.1395 723.046,-542.0256 622.1447,-547.1259 627.1937,-531.3344 627.4953,-530.2745 641.3855,-474.73 658.2416,-427.0756 625.1835,-392.8272 621.684,-334.0603 621.3941,-320.9327 620.7673,-310.4922 620.6711,-309.5106 620.3041,-292.8879 618.2482,-258.3633 625.4883,-247.9552 597.7645,-187.2621 597.1094,-185.5448 590.8184,-159.2776 585.5425,-142.5057 555.5377,-76.8189 538.9171,-37.7034 537.7364,-34.5985 537.4737,-33.8666 551.5695,-22.7327 624.5037,10.9704 633.2618,10.9907 636.6987,-141.8387 641.2261,-144.3916 646.3766,-82.2516 648.0319,-39.9654 650.6453,-82.4531 651.7944,-148.383 656.4753,-148.383 657.5741,-148.0725 661.2617,-148.0725 661.681,-148.1889 665.0772,-148.1889 667.139,-150.5045 671.0876,-152.6351 677.3564,-152.6351 681.5978,-150.3862 683.4453,-148.421 685.1769,-148.421 689.2492,-173.1046 692.9535,-148.543 696.0823,-148.543 699.3846,-201.4497 702.0978,-148.5087 702.0978,-148.5087 699.3846,-201.4497 696.0823,-148.543 692.9535,-148.543 689.2492,-173.1046 685.1769,-148.421 683.4453,-148.421 681.5978,-150.3862 677.3564,-152.6351 671.0876,-152.6351 667.139,-150.5045 665.0772,-148.1889 661.681,-148.1889 661.2617,-148.0725 657.5741,-148.0725 656.4753,-148.383 651.7944,-148.383 650.6453,-82.4531 648.0319,-39.9654 646.3766,-82.2516 641.2261,-144.3916 636.6987,-141.8387 633.2618,10.9907 645.4625,11.222 707.8005,68.5376 751.533,101.1789 797.2555,125.9956 797.4948,125.9111 821.0745,119.0639 822.3295,118.7792 837.1596,115.7239 836.6426,58.7945 833.1583,-17.6725 838.8281,-20.9531 839.8024,-22.063 837.6356,-24.6826 833.7808,-26.8238 828.0974,-26.8238 822.2836,-23.4363 827.8341,-100.6997 827.8177,-104.7322 843.5547,-103.9075 844.0765,-103.918 850.5447,-103.8251 851.1177,-182.7545 852.3224,-184.5871 852.3224,-184.5871 851.1177,-182.7545 850.5447,-103.8251 844.0765,-103.918 843.5547,-103.9075 827.8177,-104.7322 827.8341,-100.6997 822.2836,-23.4363 828.0974,-26.8238 833.7808,-26.8238 837.6356,-24.6826 839.8024,-22.063 838.8281,-20.9531 833.1583,-17.6725 836.6426,58.7945 837.1596,115.7239 850.2452,113.5795 856.9146,112.7681 862.7849,112.3005 897.0725,110.2889 988.6451,61.6705 1013.4805,31.4154 998.7384,7.9638 980.5273,-22.538 967.0514,-46.548 946.379,-86.1439 960.2429,-116.0895 972.8856,-150.2741 975.5671,-158.7468 959.4623,-183.3225 958.5774,-184.8854 956.9429,-188.2751 943.2836,-222.414 923.4102,-256.3374 907.7234,-280.2752 905.6077,-283.9536 902.5533,-289.6248 889.4706,-315.5283 900.7904,-347.3893 900.5117,-347.6187 883.8373,-360.3339 793.3524,-420.8805 823.6276,-486.1118 829.5568,-503.5544 834.8259,-522.7608 838.0878,-532.3312 847.7254,-556.0333 865.8475,-595.0792 862.468,-597.0816 862.457,-597.0873 855.9351,-600.2729 842.9278,-605.7501 835.2408,-608.7203 828.0262,-611.007 818.4214,-613.7185 815.8821,-614.3461 814.215,-614.7001 812.2805,-615.0444 800.9955,-616.6659 783.9374,-618.5253 776.1051,-619.6707 758.8536,-623.4826 753.175,-625.1527 751.0443,-625.8575 743.2181,-629.0366 731.6104,-634.1918 724.4663,-637.627 655.1807,-676.0487 630.713,-608.93 617.4203,-560.4824 622.1447,-547.1259 723.046,-542.0256 725.3675,-580.1395 729.4263,-536.1472 729.5483,-536.0394 728.6536,-534.5399 723.4484,-530.1564 715.9482,-422.3575 723.023,-422.0394 725.4307,-422.0515 729.8022,-311.8071 734.1944,-313.0299 734.1944,-313.0299 729.8022,-311.8071 725.4307,-422.0515 723.023,-422.0394 715.9482,-422.3575 723.4484,-530.1564 728.6536,-534.5399 729.5483,-536.0394 729.4263,-536.1472 725.3675,-580.1395 725.3675,-580.1395"/>
<polygon fill="#fbb4ae" stroke="#fbb4ae" points="1287.5769,-255.6257 1288.6104,-256.9369 1308.2465,-286.0946 1335.693,-331.5671 1364.5985,-370.5484 1373.8224,-371.9886 1378.079,-372.8891 1389.4587,-375.6145 1399.8593,-378.6819 1405.6892,-380.5615 1405.6819,-379.5934 1407.5306,-272.5068 1402.113,-269.4356 1400.8972,-268.0821 1401.9254,-266.9086 1401.9254,-266.9086 1400.8972,-268.0821 1402.113,-269.4356 1407.5306,-272.5068 1405.6819,-379.5934 1405.6892,-380.5615 1410.8314,-382.5033 1411.5693,-382.8025 1423.6871,-388.06 1437.9304,-394.633 1444.1997,-398.2132 1447.7051,-396.3409 1546.0026,-346.5002 1549.6832,-344.5337 1562.0195,-337.6039 1570.9828,-332.0872 1575.5204,-329.1733 1586.0958,-321.8099 1591.5316,-317.7314 1595.4238,-314.7047 1603.3901,-308.2909 1606.3376,-305.838 1619.1819,-294.7966 1620.3445,-293.8328 1620.6101,-293.6059 1637.407,-278.3705 1655.8645,-260.6909 1684.6925,-270.4287 1770.6915,-240.579 1775.6737,-238.9441 1787.0427,-235.8515 1802.7028,-231.8856 1803.2864,-231.7599 1807.2318,-230.9845 1808.65,-230.7323 1825.3282,-228.3871 1826.3026,-139.519 1830.0306,-78.2637 1830.0306,-78.2637 1826.3026,-139.519 1825.3282,-228.3871 1841.6069,-226.7092 1842.8306,-226.6062 1888.9478,-224.4556 1905.1969,-215.11 1979.6432,-121.7102 1985.507,-108.9209 1978.8938,-87.1962 1972.114,-60.6087 1968.1777,-43.4507 1945.8286,27.6738 1909.3955,44.2542 1847.2355,58.8432 1836.7764,61.753 1822.6555,65.9876 1816.042,68.3971 1813.4659,68.3012 1812.2427,68.279 1798.901,68.2906 1798.2565,68.3158 1788.8491,68.8616 1779.0414,66.2195 1771.9163,64.7361 1765.4764,63.5259 1704.0555,53.2299 1651.5061,5.8496 1599.8348,-58.8194 1574.9829,-88.7833 1566.5425,-98.3268 1485.5092,-75.0849 1441.6694,-102.696 1437.8516,-104.8478 1419.2313,-114.5456 1404.2251,-121.6991 1397.0105,-124.6578 1396.7349,-124.7588 1378.2042,-131.1528 1362.8827,-135.7634 1309.8136,-150.542 1296.7236,-205.1848 1290.9545,-233.4706 1288.6035,-247.6137 1287.5769,-255.6257 1287.5769,-255.6257"/>
<polygon fill="#decbe4" stroke="#decbe4" points="1080.3219,-629.1962 1080.225,-626.5903 1080.3271,-619.6691 1079.4397,-595.9625 1076.0098,-557.1667 1022.4725,-560.0781 1015.0016,-560.1685 1013.7507,-560.2372 1011.6327,-560.1739 1005.3859,-560.2556 1001.321,-560.1358 997.3437,-560.3608 993.1949,-560.4189 992.3943,-560.3621 991.207,-560.3288 983.8554,-560.4387 980.2614,-560.1863 969.3131,-560.3602 968.1841,-560.2825 967.9938,-560.2612 960.0108,-560.0573 958.0698,-560.0905 949.886,-560.9312 939.8753,-562.3894 939.8569,-562.3929 932.0093,-564.2064 931.3606,-564.3839 919.9483,-568.0037 914.6176,-570.1503 900.6913,-576.3619 898.1164,-577.7244 884.0516,-586.3958 871.3002,-595.3411 875.8066,-601.212 896.3037,-625.0129 903.3736,-634.8967 931.5366,-678.7902 948.7679,-702.396 963.4437,-720.7048 963.6495,-720.7018 968.7365,-720.7809 973.8951,-721.0161 980.4391,-720.7176 980.6166,-720.7041 981.9341,-720.683 987.3964,-720.7592 994.5684,-721.0747 998.334,-721.1257 1003.3132,-721.4912 1013.1705,-722.5107 1024.505,-724.3616 1028.0186,-725.0396 1086.5872,-694.8039 1081.5576,-637.9171 1080.3219,-629.1962 1080.3219,-629.1962"/>
<polygon fill="#b3cde3" stroke="#b3cde3" points="1155.7699,-165.683 1153.7032,-166.8548 1109.7014,-189.0608 1104.625,-191.9521 1105.4153,-222.0364 1105.2813,-225.3857 1105.9824,-232.8791 1105.5251,-244.2142 1107.7579,-329.2141 1114.1671,-330.4006 1127.2278,-332.4704 1148.901,-316.1293 1163.2114,-306.0696 1170.4541,-301.7646 1171.563,-301.1652 1183.2144,-295.4728 1185.0802,-294.6634 1187.623,-293.6956 1191.5378,-292.4103 1197.793,-290.6828 1208.064,-288.3873 1229.2211,-284.7975 1237.4725,-282.5032 1245.1737,-279.945 1252.3822,-276.7688 1259.5477,-273.2206 1263.1753,-271.2295 1271.0332,-266.4881 1287.5769,-255.6257 1288.6035,-247.6137 1290.9545,-233.4706 1296.7236,-205.1848 1309.8136,-150.542 1297.6949,-144.4629 1295.4639,-143.4671 1293.4839,-142.637 1279.8986,-137.3054 1278.4562,-136.7792 1262.6938,-131.4585 1212.0862,-117.2008 1211.8022,-117.4792 1199.9347,-128.54 1195.957,-133.0571 1184.5867,-144.5168 1181.8246,-146.9442 1173.0573,-154.1172 1171.1211,-155.5785 1164.5425,-160.1424 1155.7699,-165.683 1155.7699,-165.683"/>
<polyline fill="none" stroke="#000000" points="939.8753,-562.3894 949.886,-560.9312 958.0698,-560.0905 960.0108,-560.0573 967.9938,-560.2612 968.1841,-560.2825 969.3131,-560.3602 980.2614,-560.1863 983.8554,-560.4387 991.207,-560.3288 992.3943,-560.3621 993.1949,-560.4189 997.3437,-560.3608 1001.321,-560.1358 1005.3859,-560.2556 1011.6327,-560.1739 1013.7507,-560.2372 1015.0016,-560.1685 1022.4725,-560.0781 1076.0098,-557.1667 1096.3712,-533.9674 1096.3306,-533.8997 1093.5388,-529.8176 1078.6523,-510.7231 1068.3098,-499.4781 1066.2308,-497.6237 1052.9204,-482.5067 1020.7375,-439.2235 1019.3238,-437.7828 1010.5328,-429.9413 992.8482,-408.9532 979.3112,-389.0704 976.1764,-384.1886 965.8738,-366.1829 963.2814,-360.8815 948.194,-359.1118 940.5295,-357.8937 931.9606,-356.1741 917.08,-352.565 910.6,-350.5881 900.7904,-347.3893 900.5117,-347.6187 883.8373,-360.3339 793.3524,-420.8805 823.6276,-486.1118 829.5568,-503.5544 834.8259,-522.7608 838.0878,-532.3312 847.7254,-556.0333 865.8475,-595.0792 862.468,-597.0816 862.457,-597.0873 855.9351,-600.2729 842.9278,-605.7501 835.2408,-608.7203 828.0262,-611.007 818.4214,-613.7185 815.8821,-614.3461 814.215,-614.7001 812.2805,-615.0444 800.9955,-616.6659 783.9374,-618.5253 776.1051,-619.6707 758.8536,-623.4826 753.175,-625.1527 751.0443,-625.8575 743.2181,-629.0366 731.6104,-634.1918 724.4663,-637.627 655.1807,-676.0487 655.1279,-676.254 659.342,-682.7269 674.109,-706.4982 711.8735,-774.2549 690.565,-810.6073 673.0227,-846.3416 656.3332,-884.8259 641.5323,-912.2574 606.5905,-971.8683 603.1138,-978.0643 600.3052,-983.5228 619.5304,-1002.3217 723.3271,-1038.5906 766.9451,-1103.9384 850.2062,-1123.8292 864.6483,-1127.6117 875.778,-1131.0322 887.9432,-1135.3226 895.5863,-1138.363 895.7817,-1138.2863 907.9399,-1133.7767 910.8989,-1132.8763 1006.912,-1105.7584 1019.3146,-1096.8855 1079.0164,-1097.2799 1094.9778,-1098.0712 1101.1367,-1098.6405 1108.2852,-1099.4545 1111.1926,-1099.8478 1112.8167,-1100.1023 1132.6508,-1104.0688 1139.3728,-1105.7006 1147.6497,-1106.101 1234.3015,-1060.3274 1244.8804,-1048.015 1263.1387,-984.9422 1273.9396,-953.3022 1278.5249,-912.1288 1279.6232,-903.8549 1296.4009,-883.0789 1305.3203,-879.1066 1381.9437,-846.5434 1412.5731,-759.1753 1427.4861,-719.9269 1398.7041,-703.8986 1364.8193,-682.3237 1351.6979,-674.596 1341.9344,-669.8224 1339.111,-668.5849 1323.7004,-663.3405 1310.3286,-660.7896 1301.8514,-660.0183 1296.0223,-659.7785 1295.1772,-659.7023 1283.9547,-659.2505 1271.1987,-656.8625 1266.6565,-655.7916 1264.5079,-655.0735 1256.4087,-659.3901 1249.4147,-662.6903 1240.3671,-665.8638 1237.2035,-666.7807 1234.2177,-667.4668 1224.4227,-669.1348 1223.5807,-669.2272 1212.6405,-669.7742 1211.7098,-669.8762 1201.9037,-671.5444 1191.9176,-673.8394 1180.1643,-678.6407 1176.437,-680.3815 1162.6674,-688.4836 1162.4058,-688.6524 1149.2751,-698.7457 1143.8218,-703.5894 1139.2911,-703.5615 1136.3712,-703.4437 1135.361,-703.4365 1133.6508,-703.366 1121.4465,-702.4455 1112.5717,-701.1711 1099.2939,-698.3572 1086.5872,-694.8039 1028.0186,-725.0396 1024.505,-724.3616 1013.1705,-722.5107 1003.3132,-721.4912 998.334,-721.1257 994.5684,-721.0747 987.3964,-720.7592 981.9341,-720.683 980.6166,-720.7041 980.4391,-720.7176 973.8951,-721.0161 968.7365,-720.7809 963.6495,-720.7018 963.4437,-720.7048 948.7679,-702.396 931.5366,-678.7902 903.3736,-634.8967 896.3037,-625.0129 875.8066,-601.212 871.3002,-595.3411 884.0516,-586.3958 898.1164,-577.7244 900.6913,-576.3619 914.6176,-570.1503 919.9483,-568.0037 931.3606,-564.3839 932.0093,-564.2064 939.8569,-562.3929 939.8753,-562.3894 "/>
<polyline fill="none" stroke="#000000" points="617.4203,-560.4824 622.1447,-547.1259 627.1937,-531.3344 627.4953,-530.2745 641.3855,-474.73 658.2416,-427.0756 625.1835,-392.8272 621.684,-334.0603 621.3941,-320.9327 620.7673,-310.4922 620.6711,-309.5106 620.3041,-292.8879 618.2482,-258.3633 625.4883,-247.9552 597.7645,-187.2621 597.1094,-185.5448 590.8184,-159.2776 585.5425,-142.5057 555.5377,-76.8189 538.9171,-37.7034 537.7364,-34.5985 537.4737,-33.8666 524.4925,-37.4743 513.9644,-39.9694 500.5589,-42.598 486.368,-44.5095 477.1064,-45.567 359.4097,-56.586 351.443,-40.582 348.0678,-32.7511 314.8475,12.8729 233.4298,91.1295 188.3712,99.3211 177.24,101.5722 172.8098,102.5578 165.5671,104.4639 151.7818,108.657 145.8374,106.6147 134.3815,103.6127 119.6155,100.3407 105.4365,97.7772 53.67,90.5367 20.3963,74.6554 -1.5079,26.9581 -14.1046,-22.8598 -13.5117,-40.582 -16.2724,-105.9803 -105.0404,-180.4927 -102.755,-241.08 -105.219,-321.841 -104.1681,-329.8635 28.8038,-383.5666 32.1019,-382.606 33.9604,-382.1045 41.2306,-380.2978 54.1029,-377.3745 65.6953,-375.735 74.5401,-374.6734 86.8245,-373.4629 223.6508,-365.8699 230.476,-469.886 230.8359,-487.9648 240.4125,-521.6013 243.4525,-533.3747 303.5653,-645.834 303.5668,-647.7593 303.5199,-650.3232 294.4747,-669.3414 305.0105,-756.74 310.0987,-860.1112 316.8288,-888.5786 319.6932,-890.0449 412.1322,-900.0248 494.7415,-951.9996 534.5324,-968.9399 543.6542,-973.2453 548.7509,-973.5891 559.2609,-974.8903 559.3422,-974.9019 567.5719,-976.2306 575.2607,-977.6168 583.282,-979.2136 585.465,-979.7302 600.3052,-983.5228 603.1138,-978.0643 606.5905,-971.8683 641.5323,-912.2574 656.3332,-884.8259 673.0227,-846.3416 690.565,-810.6073 711.8735,-774.2549 674.109,-706.4982 659.342,-682.7269 655.1279,-676.254 655.1807,-676.0487 630.713,-608.93 617.4203,-560.4824 "/>
<polyline fill="none" stroke="#000000" points="1081.2104,23.2309 1074.1888,23.4262 1060.3998,24.3107 1050.0892,25.5338 1024.9019,29.4399 1013.4805,31.4154 998.7384,7.9638 980.5273,-22.538 967.0514,-46.548 946.379,-86.1439 960.2429,-116.0895 972.8856,-150.2741 975.5671,-158.7468 959.4623,-183.3225 958.5774,-184.8854 956.9429,-188.2751 943.2836,-222.414 923.4102,-256.3374 907.7234,-280.2752 905.6077,-283.9536 902.5533,-289.6248 889.4706,-315.5283 900.7904,-347.3893 910.6,-350.5881 917.08,-352.565 931.9606,-356.1741 940.5295,-357.8937 948.194,-359.1118 963.2814,-360.8815 965.8738,-366.1829 976.1764,-384.1886 979.3112,-389.0704 992.8482,-408.9532 1010.5328,-429.9413 1019.3238,-437.7828 1020.7375,-439.2235 1052.9204,-482.5067 1066.2308,-497.6237 1068.3098,-499.4781 1078.6523,-510.7231 1093.5388,-529.8176 1096.3306,-533.8997 1096.3712,-533.9674 1076.0098,-557.1667 1079.4397,-595.9625 1080.3271,-619.6691 1080.225,-626.5903 1080.3219,-629.1962 1081.5576,-637.9171 1086.5872,-694.8039 1099.2939,-698.3572 1112.5717,-701.1711 1121.4465,-702.4455 1133.6508,-703.366 1135.361,-703.4365 1136.3712,-703.4437 1139.2911,-703.5615 1143.8218,-703.5894 1149.2751,-698.7457 1162.4058,-688.6524 1162.6674,-688.4836 1176.437,-680.3815 1180.1643,-678.6407 1191.9176,-673.8394 1201.9037,-671.5444 1211.7098,-669.8762 1212.6405,-669.7742 1223.5807,-669.2272 1224.4227,-669.1348 1234.2177,-667.4668 1237.2035,-666.7807 1240.3671,-665.8638 1249.4147,-662.6903 1256.4087,-659.3901 1264.5079,-655.0735 1266.6565,-655.7916 1271.1987,-656.8625 1283.9547,-659.2505 1295.1772,-659.7023 1296.0223,-659.7785 1301.8514,-660.0183 1310.3286,-660.7896 1323.7004,-663.3405 1339.111,-668.5849 1341.9344,-669.8224 1351.6979,-674.596 1364.8193,-682.3237 1398.7041,-703.8986 1427.4861,-719.9269 1471.6349,-685.1021 1508.0039,-632.7012 1511.246,-628.2307 1515.7616,-627.6335 1546.3832,-622.6407 1560.0428,-620.9167 1576.0852,-619.4858 1579.24,-619.2631 1579.8044,-619.2337 1584.9058,-619.0625 1590.239,-619.0807 1603.7279,-619.3763 1606.6987,-619.5512 1623.7229,-621.1852 1629.429,-621.9438 1637.5594,-623.175 1642.9111,-624.0841 1654.0649,-623.3987 1669.9924,-617.0688 1787.6908,-518.3035 1789.2255,-513.4929 1789.1254,-510.0362 1789.1218,-509.663 1766.8939,-457.3693 1762.8419,-446.4594 1684.6925,-270.4287 1655.8645,-260.6909 1637.407,-278.3705 1620.6101,-293.6059 1620.3445,-293.8328 1619.1819,-294.7966 1606.3376,-305.838 1603.3901,-308.2909 1595.4238,-314.7047 1591.5316,-317.7314 1586.0958,-321.8099 1575.5204,-329.1733 1570.9828,-332.0872 1562.0195,-337.6039 1549.6832,-344.5337 1546.0026,-346.5002 1447.7051,-396.3409 1444.1997,-398.2132 1437.9304,-394.633 1423.6871,-388.06 1411.5693,-382.8025 1410.8314,-382.5033 1405.6892,-380.5615 1399.8593,-378.6819 1389.4587,-375.6145 1378.079,-372.8891 1373.8224,-371.9886 1364.5985,-370.5484 1335.693,-331.5671 1308.2465,-286.0946 1288.6104,-256.9369 1287.5769,-255.6257 1271.0332,-266.4881 1263.1753,-271.2295 1259.5477,-273.2206 1252.3822,-276.7688 1245.1737,-279.945 1237.4725,-282.5032 1229.2211,-284.7975 1208.064,-288.3873 1197.793,-290.6828 1191.5378,-292.4103 1187.623,-293.6956 1185.0802,-294.6634 1183.2144,-295.4728 1171.563,-301.1652 1170.4541,-301.7646 1163.2114,-306.0696 1148.901,-316.1293 1127.2278,-332.4704 1114.1671,-330.4006 1107.7579,-329.2141 1105.5251,-244.2142 1105.9824,-232.8791 1105.2813,-225.3857 1105.4153,-222.0364 1104.625,-191.9521 1109.7014,-189.0608 1153.7032,-166.8548 1155.7699,-165.683 1164.5425,-160.1424 1171.1211,-155.5785 1173.0573,-154.1172 1181.8246,-146.9442 1184.5867,-144.5168 1195.957,-133.0571 1199.9347,-128.54 1211.8022,-117.4792 1212.0862,-117.2008 1262.6938,-131.4585 1278.4562,-136.7792 1279.8986,-137.3054 1293.4839,-142.637 1295.4639,-143.4671 1297.6949,-144.4629 1309.8136,-150.542 1362.8827,-135.7634 1378.2042,-131.1528 1396.7349,-124.7588 1397.0105,-124.6578 1404.2251,-121.6991 1419.2313,-114.5456 1437.8516,-104.8478 1441.6694,-102.696 1485.5092,-75.0849 1466.4563,-37.5357 1441.75,16.0024 1434.546,32.5601 1398.9773,79.5025 1320.7616,131.1055 1300.759,123.2339 1286.0748,118.1263 1283.1849,117.2545 1274.0371,114.7036 1268.1914,113.2079 1220.6678,103.2252 1172.0234,76.4679 1121.0701,25.0933 1109.4937,24.155 1093.4335,23.4351 1084.558,23.1985 1081.2104,23.2309 "/>
<polyline fill="none" stroke="#000000" points="889.4706,-315.5283 900.7904,-347.3893 900.5117,-347.6187 883.8373,-360.3339 793.3524,-420.8805 823.6276,-486.1118 829.5568,-503.5544 834.8259,-522.7608 838.0878,-532.3312 847.7254,-556.0333 865.8475,-595.0792 862.468,-597.0816 862.457,-597.0873 855.9351,-600.2729 842.9278,-605.7501 835.2408,-608.7203 828.0262,-611.007 818.4214,-613.7185 815.8821,-614.3461 814.215,-614.7001 812.2805,-615.0444 800.9955,-616.6659 783.9374,-618.5253 776.1051,-619.6707 758.8536,-623.4826 753.175,-625.1527 751.0443,-625.8575 743.2181,-629.0366 731.6104,-634.1918 724.4663,-637.627 655.1807,-676.0487 630.713,-608.93 617.4203,-560.4824 622.1447,-547.1259 627.1937,-531.3344 627.4953,-530.2745 641.3855,-474.73 658.2416,-427.0756 625.1835,-392.8272 621.684,-334.0603 621.3941,-320.9327 620.7673,-310.4922 620.6711,-309.5106 620.3041,-292.8879 618.2482,-258.3633 625.4883,-247.9552 597.7645,-187.2621 597.1094,-185.5448 590.8184,-159.2776 585.5425,-142.5057 555.5377,-76.8189 538.9171,-37.7034 537.7364,-34.5985 537.4737,-33.8666 551.5695,-22.7327 624.5037,10.9704 633.2618,10.9907 645.4625,11.222 707.8005,68.5376 751.533,101.1789 797.2555,125.9956 797.4948,125.9111 821.0745,119.0639 822.3295,118.7792 837.1596,115.7239 850.2452,113.5795 856.9146,112.7681 862.7849,112.3005 897.0725,110.2889 988.6451,61.6705 1013.4805,31.4154 998.7384,7.9638 980.5273,-22.538 967.0514,-46.548 946.379,-86.1439 960.2429,-116.0895 972.8856,-150.2741 975.5671,-158.7468 959.4623,-183.3225 958.5774,-184.8854 956.9429,-188.2751 943.2836,-222.414 923.4102,-256.3374 907.7234,-280.2752 905.6077,-283.9536 902.5533,-289.6248 889.4706,-315.5283 "/>
<polyline fill="none" stroke="#000000" points="1803.2864,-231.7599 1807.2318,-230.9845 1808.65,-230.7323 1825.3282,-228.3871 1841.6069,-226.7092 1842.8306,-226.6062 1888.9478,-224.4556 1905.1969,-215.11 1979.6432,-121.7102 1985.507,-108.9209 1978.8938,-87.1962 1972.114,-60.6087 1968.1777,-43.4507 1945.8286,27.6738 1909.3955,44.2542 1847.2355,58.8432 1836.7764,61.753 1822.6555,65.9876 1816.042,68.3971 1813.4659,68.3012 1812.2427,68.279 1798.901,68.2906 1798.2565,68.3158 1788.8491,68.8616 1779.0414,66.2195 1771.9163,64.7361 1765.4764,63.5259 1704.0555,53.2299 1651.5061,5.8496 1599.8348,-58.8194 1574.9829,-88.7833 1566.5425,-98.3268 1485.5092,-75.0849 1441.6694,-102.696 1437.8516,-104.8478 1419.2313,-114.5456 1404.2251,-121.6991 1397.0105,-124.6578 1396.7349,-124.7588 1378.2042,-131.1528 1362.8827,-135.7634 1309.8136,-150.542 1296.7236,-205.1848 1290.9545,-233.4706 1288.6035,-247.6137 1287.5769,-255.6257 1288.6104,-256.9369 1308.2465,-286.0946 1335.693,-331.5671 1364.5985,-370.5484 1373.8224,-371.9886 1378.079,-372.8891 1389.4587,-375.6145 1399.8593,-378.6819 1405.6892,-380.5615 1410.8314,-382.5033 1411.5693,-382.8025 1423.6871,-388.06 1437.9304,-394.633 1444.1997,-398.2132 1447.7051,-396.3409 1546.0026,-346.5002 1549.6832,-344.5337 1562.0195,-337.6039 1570.9828,-332.0872 1575.5204,-329.1733 1586.0958,-321.8099 1591.5316,-317.7314 1595.4238,-314.7047 1603.3901,-308.2909 1606.3376,-305.838 1619.1819,-294.7966 1620.3445,-293.8328 1620.6101,-293.6059 1637.407,-278.3705 1655.8645,-260.6909 1684.6925,-270.4287 1770.6915,-240.579 1775.6737,-238.9441 1787.0427,-235.8515 1802.7028,-231.8856 1803.2864,-231.7599 "/>
<polyline fill="none" stroke="#000000" points="980.6166,-720.7041 980.4391,-720.7176 973.8951,-721.0161 968.7365,-720.7809 963.6495,-720.7018 963.4437,-720.7048 948.7679,-702.396 931.5366,-678.7902 903.3736,-634.8967 896.3037,-625.0129 875.8066,-601.212 871.3002,-595.3411 884.0516,-586.3958 898.1164,-577.7244 900.6913,-576.3619 914.6176,-570.1503 919.9483,-568.0037 931.3606,-564.3839 932.0093,-564.2064 939.8569,-562.3929 939.8753,-562.3894 949.886,-560.9312 958.0698,-560.0905 960.0108,-560.0573 967.9938,-560.2612 968.1841,-560.2825 969.3131,-560.3602 980.2614,-560.1863 983.8554,-560.4387 991.207,-560.3288 992.3943,-560.3621 993.1949,-560.4189 997.3437,-560.3608 1001.321,-560.1358 1005.3859,-560.2556 1011.6327,-560.1739 1013.7507,-560.2372 1015.0016,-560.1685 1022.4725,-560.0781 1076.0098,-557.1667 1079.4397,-595.9625 1080.3271,-619.6691 1080.225,-626.5903 1080.3219,-629.1962 1081.5576,-637.9171 1086.5872,-694.8039 1028.0186,-725.0396 1024.505,-724.3616 1013.1705,-722.5107 1003.3132,-721.4912 998.334,-721.1257 994.5684,-721.0747 987.3964,-720.7592 981.9341,-720.683 980.6166,-720.7041 "/>
<polyline fill="none" stroke="#000000" points="1171.563,-301.1652 1183.2144,-295.4728 1185.0802,-294.6634 1187.623,-293.6956 1191.5378,-292.4103 1197.793,-290.6828 1208.064,-288.3873 1229.2211,-284.7975 1237.4725,-282.5032 1245.1737,-279.945 1252.3822,-276.7688 1259.5477,-273.2206 1263.1753,-271.2295 1271.0332,-266.4881 1287.5769,-255.6257 1288.6035,-247.6137 1290.9545,-233.4706 1296.7236,-205.1848 1309.8136,-150.542 1297.6949,-144.4629 1295.4639,-143.4671 1293.4839,-142.637 1279.8986,-137.3054 1278.4562,-136.7792 1262.6938,-131.4585 1212.0862,-117.2008 1211.8022,-117.4792 1199.9347,-128.54 1195.957,-133.0571 1184.5867,-144.5168 1181.8246,-146.9442 1173.0573,-154.1172 1171.1211,-155.5785 1164.5425,-160.1424 1155.7699,-165.683 1153.7032,-166.8548 1109.7014,-189.0608 1104.625,-191.9521 1105.4153,-222.0364 1105.2813,-225.3857 1105.9824,-232.8791 1105.5251,-244.2142 1107.7579,-329.2141 1114.1671,-330.4006 1127.2278,-332.4704 1148.901,-316.1293 1163.2114,-306.0696 1170.4541,-301.7646 1171.563,-301.1652 "/>
<!-- apr&#45;&gt;Fedora Container Base -->
<g id="edge1" class="edge">
<title>apr&#45;&gt;Fedora Container Base</title>
<path fill="none" stroke="#444444" stroke-opacity="0.333333" d="M571.4314,-476.7271C628.582,-479.0655 725.7789,-483.0424 807.1254,-486.3707"/>
<polygon fill="#444444" fill-opacity="0.333333" stroke="#444444" stroke-opacity="0.333333" points="807.3368,-489.8822 817.4715,-486.794 807.623,-482.888 807.3368,-489.8822"/>
</g>
<!-- apr&#45;util&#45;&gt;Fedora Container Base -->
<g id="edge2" class="edge">
<title>apr&#45;util&#45;&gt;Fedora Container Base</title>
<path fill="none" stroke="#444444" stroke-opacity="0.333333" d="M550.9095,-593.6617C634.3885,-572.3262 785.7686,-533.6364 875.608,-510.6752"/>
<polygon fill="#444444" fill-opacity="0.333333" stroke="#444444" stroke-opacity="0.333333" points="876.6234,-514.0283 885.4453,-508.161 874.89,-507.2463 876.6234,-514.0283"/>
</g>
<!-- apr&#45;util&#45;&gt;apr -->
<g id="edge3" class="edge">
<title>apr&#45;util&#45;&gt;apr</title>
<path fill="none" stroke="#444444" stroke-opacity="0.333333" d="M495.4115,-590.8312C500.7105,-568.2197 509.8349,-529.285 516.043,-502.7947"/>
<polygon fill="#444444" fill-opacity="0.333333" stroke="#444444" stroke-opacity="0.333333" points="519.4712,-503.5055 518.3453,-492.9707 512.6558,-501.9083 519.4712,-503.5055"/>
</g>
<!-- apr&#45;util&#45;&gt;apr&#45;util&#45;bdb -->
<g id="edge4" class="edge">
<title>apr&#45;util&#45;&gt;apr&#45;util&#45;bdb</title>
<path fill="none" stroke="#444444" stroke-dasharray="5,2" stroke-opacity="0.333333" d="M483.3189,-627.1674C476.5373,-652.449 468.5394,-698.3799 465.5345,-728.2171"/>
<polygon fill="#444444" fill-opacity="0.333333" stroke="#444444" stroke-opacity="0.333333" points="462.0274,-728.1522 464.6649,-738.4135 469.0021,-728.7471 462.0274,-728.1522"/>
</g>
<!-- apr&#45;util&#45;&gt;apr&#45;util&#45;openssl -->
<g id="edge5" class="edge">
<title>apr&#45;util&#45;&gt;apr&#45;util&#45;openssl</title>
<path fill="none" stroke="#444444" stroke-dasharray="5,2" stroke-opacity="0.333333" d="M493.6995,-627.1218C503.6856,-664.8794 534.9884,-751.8437 554.3091,-796.4958"/>
<polygon fill="#444444" fill-opacity="0.333333" stroke="#444444" stroke-opacity="0.333333" points="551.2122,-798.1454 558.4728,-805.8612 557.6085,-795.3017 551.2122,-798.1454"/>
</g>
<!-- apr&#45;util&#45;bdb&#45;&gt;Fedora Container Base -->
<g id="edge80" class="edge">
<title>apr&#45;util&#45;bdb&#45;&gt;Fedora Container Base</title>
<path fill="none" stroke="#444444" stroke-opacity="0.333333" d="M499.3157,-738.553C584.9329,-691.5465 813.4044,-566.1085 907.1365,-514.6467"/>
<polygon fill="#444444" fill-opacity="0.333333" stroke="#444444" stroke-opacity="0.333333" points="908.9604,-517.6382 916.0417,-509.7575 905.5915,-511.5022 908.9604,-517.6382"/>
</g>
<!-- apr&#45;util&#45;bdb&#45;&gt;apr&#45;util -->
<g id="edge81" class="edge">
<title>apr&#45;util&#45;bdb&#45;&gt;apr&#45;util</title>
<path fill="none" stroke="#444444" stroke-opacity="0.333333" d="M474.0411,-738.5026C480.8227,-713.221 488.8206,-667.2901 491.8255,-637.4529"/>
<polygon fill="#444444" fill-opacity="0.333333" stroke="#444444" stroke-opacity="0.333333" points="495.3326,-637.5178 492.6951,-627.2565 488.3579,-636.9229 495.3326,-637.5178"/>
</g>
<!-- apr&#45;util&#45;openssl&#45;&gt;Fedora Container Base -->
<g id="edge82" class="edge">
<title>apr&#45;util&#45;openssl&#45;&gt;Fedora Container Base</title>
<path fill="none" stroke="#444444" stroke-opacity="0.333333" d="M590.0595,-805.941C653.669,-750.1958 846.8683,-580.8824 919.8275,-516.9434"/>
<polygon fill="#444444" fill-opacity="0.333333" stroke="#444444" stroke-opacity="0.333333" points="922.499,-519.2561 927.7128,-510.0329 917.8853,-513.9916 922.499,-519.2561"/>
</g>
<!-- apr&#45;util&#45;openssl&#45;&gt;apr&#45;util -->
<g id="edge83" class="edge">
<title>apr&#45;util&#45;openssl&#45;&gt;apr&#45;util</title>
<path fill="none" stroke="#444444" stroke-opacity="0.333333" d="M566.9005,-805.8282C556.9144,-768.0706 525.6116,-681.1063 506.2909,-636.4542"/>
<polygon fill="#444444" fill-opacity="0.333333" stroke="#444444" stroke-opacity="0.333333" points="509.3878,-634.8046 502.1272,-627.0888 502.9915,-637.6483 509.3878,-634.8046"/>
</g>
<!-- device&#45;mapper&#45;libs&#45;&gt;Fedora Container Base -->
<g id="edge6" class="edge">
<title>device&#45;mapper&#45;libs&#45;&gt;Fedora Container Base</title>
<path fill="none" stroke="#444444" stroke-opacity="0.333333" d="M780.359,-875.1977C808.2151,-811.5962 902.0973,-597.2426 935.8854,-520.0972"/>
<polygon fill="#444444" fill-opacity="0.333333" stroke="#444444" stroke-opacity="0.333333" points="939.2556,-521.1261 940.0616,-510.562 932.8437,-518.3178 939.2556,-521.1261"/>
</g>
<!-- device&#45;mapper&#45;libs&#45;&gt;device&#45;mapper -->
<g id="edge7" class="edge">
<title>device&#45;mapper&#45;libs&#45;&gt;device&#45;mapper</title>
<path fill="none" stroke="#444444" stroke-opacity="0.333333" d="M783.4331,-874.9312C798.7325,-840.8218 824.7621,-767.366 836.053,-726.9577"/>
<polygon fill="#444444" fill-opacity="0.333333" stroke="#444444" stroke-opacity="0.333333" points="839.4591,-727.768 838.6497,-717.2042 832.6947,-725.9671 839.4591,-727.768"/>
</g>
<!-- device&#45;mapper&#45;&gt;Fedora Container Base -->
<g id="edge39" class="edge">
<title>device&#45;mapper&#45;&gt;Fedora Container Base</title>
<path fill="none" stroke="#444444" stroke-opacity="0.333333" d="M850.343,-680.5788C869.3228,-644.0041 911.9415,-561.8764 934.1194,-519.1389"/>
<polygon fill="#444444" fill-opacity="0.333333" stroke="#444444" stroke-opacity="0.333333" points="937.282,-520.643 938.7815,-510.1548 931.0688,-517.4188 937.282,-520.643"/>
</g>
<!-- device&#45;mapper&#45;&gt;device&#45;mapper&#45;libs -->
<g id="edge40" class="edge">
<title>device&#45;mapper&#45;&gt;device&#45;mapper&#45;libs</title>
<path fill="none" stroke="#444444" stroke-opacity="0.333333" d="M829.8569,-717.2088C814.5575,-751.3182 788.5279,-824.774 777.237,-865.1823"/>
<polygon fill="#444444" fill-opacity="0.333333" stroke="#444444" stroke-opacity="0.333333" points="773.8309,-864.372 774.6403,-874.9358 780.5953,-866.1729 773.8309,-864.372"/>
</g>
<!-- device&#45;mapper&#45;&gt;systemd -->
<g id="edge41" class="edge">
<title>device&#45;mapper&#45;&gt;systemd</title>
<path fill="none" stroke="#444444" stroke-opacity="0.333333" d="M858.6794,-680.6304C903.1264,-635.0879 1018.7996,-516.5636 1069.9049,-464.1987"/>
<polygon fill="#444444" fill-opacity="0.333333" stroke="#444444" stroke-opacity="0.333333" points="1072.4807,-466.5706 1076.9604,-456.9693 1067.471,-461.6814 1072.4807,-466.5706"/>
</g>
<!-- device&#45;mapper&#45;&gt;util&#45;linux -->
<g id="edge42" class="edge">
<title>device&#45;mapper&#45;&gt;util&#45;linux</title>
<path fill="none" stroke="#444444" stroke-opacity="0.333333" d="M831.0629,-680.8889C815.662,-652.4121 785.6167,-596.8576 767.5615,-563.4729"/>
<polygon fill="#444444" fill-opacity="0.333333" stroke="#444444" stroke-opacity="0.333333" points="770.4266,-561.413 762.5908,-554.282 764.2693,-564.743 770.4266,-561.413"/>
</g>
<!-- libargon2&#45;&gt;Fedora Container Base -->
<g id="edge8" class="edge">
<title>libargon2&#45;&gt;Fedora Container Base</title>
<path fill="none" stroke="#444444" stroke-opacity="0.333333" d="M888.6142,-977.1336C897.8904,-901.5422 933.4076,-612.1128 944.6773,-520.2757"/>
<polygon fill="#444444" fill-opacity="0.333333" stroke="#444444" stroke-opacity="0.333333" points="948.1547,-520.6738 945.8988,-510.322 941.2068,-519.8212 948.1547,-520.6738"/>
</g>
<!-- dbus&#45;broker&#45;&gt;Fedora Container Base -->
<g id="edge9" class="edge">
<title>dbus&#45;broker&#45;&gt;Fedora Container Base</title>
<path fill="none" stroke="#444444" stroke-opacity="0.333333" d="M1066.5226,-146.571C1046.3085,-205.5726 982.0379,-393.1682 957.6444,-464.3689"/>
<polygon fill="#444444" fill-opacity="0.333333" stroke="#444444" stroke-opacity="0.333333" points="954.2748,-463.4056 954.3447,-474.0002 960.897,-465.6744 954.2748,-463.4056"/>
</g>
<!-- dbus&#45;broker&#45;&gt;dbus&#45;common -->
<g id="edge10" class="edge">
<title>dbus&#45;broker&#45;&gt;dbus&#45;common</title>
<path fill="none" stroke="#444444" stroke-opacity="0.333333" d="M1063.6537,-146.974C1055.8826,-162.8095 1044.5636,-185.8748 1035.7009,-203.9349"/>
<polygon fill="#444444" fill-opacity="0.333333" stroke="#444444" stroke-opacity="0.333333" points="1032.3314,-202.8564 1031.0679,-213.3756 1038.6155,-205.9402 1032.3314,-202.8564"/>
</g>
<!-- dbus&#45;broker&#45;&gt;shadow&#45;utils -->
<g id="edge11" class="edge">
<title>dbus&#45;broker&#45;&gt;shadow&#45;utils</title>
<path fill="none" stroke="#444444" stroke-opacity="0.333333" d="M1011.2761,-146.5404C991.802,-152.2473 970.1052,-158.6055 949.9911,-164.5"/>
<polygon fill="#444444" fill-opacity="0.333333" stroke="#444444" stroke-opacity="0.333333" points="948.8728,-161.1804 940.2607,-167.3515 950.8414,-167.8979 948.8728,-161.1804"/>
</g>
<!-- dbus&#45;broker&#45;&gt;systemd -->
<g id="edge12" class="edge">
<title>dbus&#45;broker&#45;&gt;systemd</title>
<path fill="none" stroke="#444444" stroke-opacity="0.333333" d="M1073.9837,-146.5556C1077.6685,-198.2673 1088.3003,-347.4734 1092.776,-410.285"/>
<polygon fill="#444444" fill-opacity="0.333333" stroke="#444444" stroke-opacity="0.333333" points="1089.3107,-410.8988 1093.5127,-420.6247 1096.293,-410.4012 1089.3107,-410.8988"/>
</g>
<!-- dbus&#45;common&#45;&gt;Fedora Container Base -->
<g id="edge13" class="edge">
<title>dbus&#45;common&#45;&gt;Fedora Container Base</title>
<path fill="none" stroke="#444444" stroke-opacity="0.333333" d="M1016.8986,-249.9672C1004.1659,-294.8061 971.3636,-410.3214 956.1275,-463.9762"/>
<polygon fill="#444444" fill-opacity="0.333333" stroke="#444444" stroke-opacity="0.333333" points="952.6905,-463.2673 953.3257,-473.8431 959.4243,-465.1795 952.6905,-463.2673"/>
</g>
<!-- dbus&#45;common&#45;&gt;dbus&#45;common -->
<g id="edge14" class="edge">
<title>dbus&#45;common&#45;&gt;dbus&#45;common</title>
<path fill="none" stroke="#444444" stroke-opacity="0.333333" d="M1099.6655,-237.6733C1110.415,-236.6812 1117.6,-234.6734 1117.6,-231.65 1117.6,-229.7131 1114.6513,-228.1931 1109.7057,-227.0898"/>
<polygon fill="#444444" fill-opacity="0.333333" stroke="#444444" stroke-opacity="0.333333" points="1110.0657,-223.6054 1099.6655,-225.6267 1109.0562,-230.5323 1110.0657,-223.6054"/>
</g>
<!-- dbus&#45;common&#45;&gt;systemd -->
<g id="edge15" class="edge">
<title>dbus&#45;common&#45;&gt;systemd</title>
<path fill="none" stroke="#444444" stroke-opacity="0.333333" d="M1028.4245,-249.6613C1041.1533,-285.9112 1069.9371,-367.8839 1085.0758,-410.9969"/>
<polygon fill="#444444" fill-opacity="0.333333" stroke="#444444" stroke-opacity="0.333333" points="1081.8229,-412.2973 1088.4384,-420.573 1088.4276,-409.9781 1081.8229,-412.2973"/>
</g>
<!-- shadow&#45;utils&#45;&gt;Fedora Container Base -->
<g id="edge16" class="edge">
<title>shadow&#45;utils&#45;&gt;Fedora Container Base</title>
<path fill="none" stroke="#444444" stroke-opacity="0.333333" d="M882.713,-203.6976C894.4083,-255.2656 927.7366,-402.2197 941.7741,-464.1149"/>
<polygon fill="#444444" fill-opacity="0.333333" stroke="#444444" stroke-opacity="0.333333" points="938.3836,-464.9899 944.0087,-473.9681 945.2102,-463.4416 938.3836,-464.9899"/>
</g>
<!-- shadow&#45;utils&#45;&gt;shadow&#45;utils -->
<g id="edge17" class="edge">
<title>shadow&#45;utils&#45;&gt;shadow&#45;utils</title>
<path fill="none" stroke="#444444" stroke-opacity="0.333333" d="M949.3956,-191.5534C959.939,-190.6 967.07,-188.5589 967.07,-185.43 967.07,-183.4744 964.2844,-181.9438 959.6212,-180.838"/>
<polygon fill="#444444" fill-opacity="0.333333" stroke="#444444" stroke-opacity="0.333333" points="959.8038,-177.3264 949.3956,-179.3066 958.7669,-184.2492 959.8038,-177.3264"/>
</g>
<!-- shadow&#45;utils&#45;&gt;libsemanage -->
<g id="edge18" class="edge">
<title>shadow&#45;utils&#45;&gt;libsemanage</title>
<path fill="none" stroke="#444444" stroke-opacity="0.333333" d="M873.2686,-167.3522C864.9366,-138.94 848.716,-83.6273 838.8926,-50.1294"/>
<polygon fill="#444444" fill-opacity="0.333333" stroke="#444444" stroke-opacity="0.333333" points="842.2378,-49.0988 836.0651,-40.4878 835.5207,-51.0686 842.2378,-49.0988"/>
</g>
<!-- systemd&#45;&gt;Fedora Container Base -->
<g id="edge19" class="edge">
<title>systemd&#45;&gt;Fedora Container Base</title>
<path fill="none" stroke="#444444" stroke-opacity="0.333333" d="M1045.1442,-456.7857C1032.0369,-461.5623 1017.799,-466.751 1004.3709,-471.6445"/>
<polygon fill="#444444" fill-opacity="0.333333" stroke="#444444" stroke-opacity="0.333333" points="1002.9612,-468.433 994.764,-475.1455 1005.358,-475.0099 1002.9612,-468.433"/>
</g>
<!-- systemd&#45;&gt;shadow&#45;utils -->
<g id="edge20" class="edge">
<title>systemd&#45;&gt;shadow&#45;utils</title>
<path fill="none" stroke="#444444" stroke-opacity="0.333333" d="M1079.2493,-420.4762C1041.3792,-376.1207 944.2794,-262.3923 900.5266,-211.1467"/>
<polygon fill="#444444" fill-opacity="0.333333" stroke="#444444" stroke-opacity="0.333333" points="903.1349,-208.8114 893.9798,-203.4788 897.8112,-213.3566 903.1349,-208.8114"/>
</g>
<!-- systemd&#45;&gt;systemd -->
<g id="edge21" class="edge">
<title>systemd&#45;&gt;systemd</title>
<path fill="none" stroke="#444444" stroke-opacity="0.333333" d="M1156.4667,-444.9913C1167.0013,-444.1303 1174.3,-442.0298 1174.3,-438.69 1174.3,-436.5504 1171.3046,-434.9195 1166.382,-433.7972"/>
<polygon fill="#444444" fill-opacity="0.333333" stroke="#444444" stroke-opacity="0.333333" points="1166.8596,-430.33 1156.4667,-432.3887 1165.8751,-437.2604 1166.8596,-430.33"/>
</g>
<!-- systemd&#45;&gt;util&#45;linux -->
<g id="edge22" class="edge">
<title>systemd&#45;&gt;util&#45;linux</title>
<path fill="none" stroke="#444444" stroke-opacity="0.333333" d="M1033.2605,-456.2283C975.0264,-472.8245 887.5743,-497.7476 825.8318,-515.3437"/>
<polygon fill="#444444" fill-opacity="0.333333" stroke="#444444" stroke-opacity="0.333333" points="824.8094,-511.9956 816.1516,-518.1025 826.728,-518.7276 824.8094,-511.9956"/>
</g>
<!-- systemd&#45;&gt;acl -->
<g id="edge23" class="edge">
<title>systemd&#45;&gt;acl</title>
<path fill="none" stroke="#444444" stroke-opacity="0.333333" d="M1124.3385,-420.5909C1148.7115,-405.6569 1183.4631,-384.3636 1209.9235,-368.1506"/>
<polygon fill="#444444" fill-opacity="0.333333" stroke="#444444" stroke-opacity="0.333333" points="1211.8541,-371.0724 1218.5522,-362.8635 1208.1969,-365.1038 1211.8541,-371.0724"/>
</g>
<!-- systemd&#45;&gt;cryptsetup&#45;libs -->
<g id="edge24" class="edge">
<title>systemd&#45;&gt;cryptsetup&#45;libs</title>
<path fill="none" stroke="#444444" stroke-opacity="0.333333" d="M1087.9385,-456.7683C1064.9858,-517.2432 990.7775,-712.7635 963.0876,-785.7197"/>
<polygon fill="#444444" fill-opacity="0.333333" stroke="#444444" stroke-opacity="0.333333" points="959.7756,-784.5827 959.4993,-795.1739 966.32,-787.0667 959.7756,-784.5827"/>
</g>
<!-- systemd&#45;&gt;dbus -->
<g id="edge25" class="edge">
<title>systemd&#45;&gt;dbus</title>
<path fill="none" stroke="#444444" stroke-opacity="0.333333" d="M1102.9039,-420.6135C1132.5866,-354.4034 1235.4896,-124.8686 1271.133,-45.3627"/>
<polygon fill="#444444" fill-opacity="0.333333" stroke="#444444" stroke-opacity="0.333333" points="1274.4291,-46.566 1275.3263,-36.0092 1268.0417,-43.7024 1274.4291,-46.566"/>
</g>
<!-- systemd&#45;&gt;iptables&#45;libs -->
<g id="edge26" class="edge">
<title>systemd&#45;&gt;iptables&#45;libs</title>
<path fill="none" stroke="#444444" stroke-opacity="0.333333" d="M1096.8,-457.0357C1103.0659,-514.5114 1122.3474,-691.3757 1129.9104,-760.7495"/>
<polygon fill="#444444" fill-opacity="0.333333" stroke="#444444" stroke-opacity="0.333333" points="1126.4566,-761.3642 1131.0198,-770.9259 1133.4153,-760.6055 1126.4566,-761.3642"/>
</g>
<!-- systemd&#45;&gt;kmod&#45;libs -->
<g id="edge27" class="edge">
<title>systemd&#45;&gt;kmod&#45;libs</title>
<path fill="none" stroke="#444444" stroke-opacity="0.333333" d="M1121.1992,-456.7048C1163.5255,-485.5883 1246.5999,-542.2784 1293.8502,-574.522"/>
<polygon fill="#444444" fill-opacity="0.333333" stroke="#444444" stroke-opacity="0.333333" points="1292.0052,-577.5002 1302.2381,-580.2459 1295.9509,-571.7182 1292.0052,-577.5002"/>
</g>
<!-- systemd&#45;&gt;libfdisk -->
<g id="edge28" class="edge">
<title>systemd&#45;&gt;libfdisk</title>
<path fill="none" stroke="#444444" stroke-opacity="0.333333" d="M1085.0198,-456.8735C1067.0466,-490.2896 1028.6731,-561.6341 1007.5314,-600.9411"/>
<polygon fill="#444444" fill-opacity="0.333333" stroke="#444444" stroke-opacity="0.333333" points="1004.2051,-599.7367 1002.5506,-610.2016 1010.37,-603.0526 1004.2051,-599.7367"/>
</g>
<!-- systemd&#45;&gt;libseccomp -->
<g id="edge29" class="edge">
<title>systemd&#45;&gt;libseccomp</title>
<path fill="none" stroke="#444444" stroke-opacity="0.333333" d="M1156.4466,-447.8989C1177.3519,-451.0217 1201.0411,-454.5605 1223.2626,-457.8799"/>
<polygon fill="#444444" fill-opacity="0.333333" stroke="#444444" stroke-opacity="0.333333" points="1222.9466,-461.3715 1233.354,-459.3874 1223.9808,-454.4483 1222.9466,-461.3715"/>
</g>
<!-- systemd&#45;&gt;qrencode&#45;libs -->
<g id="edge30" class="edge">
<title>systemd&#45;&gt;qrencode&#45;libs</title>
<path fill="none" stroke="#444444" stroke-opacity="0.333333" d="M1105.2443,-456.7818C1133.0664,-504.9753 1209.0957,-636.674 1242.1301,-693.8964"/>
<polygon fill="#444444" fill-opacity="0.333333" stroke="#444444" stroke-opacity="0.333333" points="1239.2008,-695.8229 1247.2317,-702.7335 1245.2631,-692.3231 1239.2008,-695.8229"/>
</g>
<!-- systemd&#45;&gt;systemd&#45;pam -->
<g id="edge31" class="edge">
<title>systemd&#45;&gt;systemd&#45;pam</title>
<path fill="none" stroke="#444444" stroke-opacity="0.333333" d="M1098.6767,-456.9594C1109.7917,-488.5918 1139.309,-553.5933 1159.0184,-590.6408"/>
<polygon fill="#444444" fill-opacity="0.333333" stroke="#444444" stroke-opacity="0.333333" points="1156.1856,-592.7565 1164.0471,-599.8592 1162.3308,-589.4043 1156.1856,-592.7565"/>
</g>
<!-- systemd&#45;&gt;systemd&#45;rpm&#45;macros -->
<g id="edge32" class="edge">
<title>systemd&#45;&gt;systemd&#45;rpm&#45;macros</title>
<path fill="none" stroke="#444444" stroke-opacity="0.333333" d="M1156.6782,-443.0196C1238.6088,-448.7523 1384.3639,-458.9507 1484.3192,-465.9446"/>
<polygon fill="#444444" fill-opacity="0.333333" stroke="#444444" stroke-opacity="0.333333" points="1484.2312,-469.4469 1494.4511,-466.6535 1484.7198,-462.464 1484.2312,-469.4469"/>
</g>
<!-- systemd&#45;&gt;diffutils -->
<g id="edge33" class="edge">
<title>systemd&#45;&gt;diffutils</title>
<path fill="none" stroke="#444444" stroke-dasharray="5,2" stroke-opacity="0.333333" d="M1102.1423,-420.4717C1116.988,-383.6354 1150.6455,-300.1217 1168.1538,-256.6786"/>
<polygon fill="#444444" fill-opacity="0.333333" stroke="#444444" stroke-opacity="0.333333" points="1171.443,-257.8805 1171.9348,-247.2971 1164.9504,-255.2638 1171.443,-257.8805"/>
</g>
<!-- systemd&#45;&gt;libxkbcommon -->
<g id="edge34" class="edge">
<title>systemd&#45;&gt;libxkbcommon</title>
<path fill="none" stroke="#444444" stroke-dasharray="5,2" stroke-opacity="0.333333" d="M1128.2335,-420.5816C1185.92,-389.3372 1304.0496,-325.3553 1367.486,-290.9966"/>
<polygon fill="#444444" fill-opacity="0.333333" stroke="#444444" stroke-opacity="0.333333" points="1369.3087,-293.9899 1376.4349,-286.1497 1365.9749,-287.8347 1369.3087,-293.9899"/>
</g>
<!-- libsemanage&#45;&gt;Fedora Container Base -->
<g id="edge63" class="edge">
<title>libsemanage&#45;&gt;Fedora Container Base</title>
<path fill="none" stroke="#444444" stroke-opacity="0.333333" d="M835.2699,-40.4583C853.2089,-112.2528 919.3503,-376.9597 941.127,-464.113"/>
<polygon fill="#444444" fill-opacity="0.333333" stroke="#444444" stroke-opacity="0.333333" points="937.7938,-465.2115 943.6136,-474.0648 944.585,-463.5145 937.7938,-465.2115"/>
</g>
<!-- libsemanage&#45;&gt;libsemanage -->
<g id="edge64" class="edge">
<title>libsemanage&#45;&gt;libsemanage</title>
<path fill="none" stroke="#444444" stroke-opacity="0.333333" d="M906.3125,-28.3864C917.0409,-27.4067 924.24,-25.3876 924.24,-22.329 924.24,-20.3696 921.2855,-18.8368 916.3413,-17.7305"/>
<polygon fill="#444444" fill-opacity="0.333333" stroke="#444444" stroke-opacity="0.333333" points="916.7123,-14.2477 906.3125,-16.2716 915.7045,-21.1748 916.7123,-14.2477"/>
</g>
<!-- util&#45;linux&#45;&gt;Fedora Container Base -->
<g id="edge35" class="edge">
<title>util&#45;linux&#45;&gt;Fedora Container Base</title>
<path fill="none" stroke="#444444" stroke-opacity="0.333333" d="M817.293,-521.6242C833.8287,-517.8979 851.8036,-513.8472 868.9847,-509.9755"/>
<polygon fill="#444444" fill-opacity="0.333333" stroke="#444444" stroke-opacity="0.333333" points="870.0061,-513.3331 878.992,-507.7203 868.4671,-506.5044 870.0061,-513.3331"/>
</g>
<!-- util&#45;linux&#45;&gt;util&#45;linux -->
<g id="edge36" class="edge">
<title>util&#45;linux&#45;&gt;util&#45;linux</title>
<path fill="none" stroke="#444444" stroke-opacity="0.333333" d="M817.4697,-542.4053C828.0315,-541.5113 835.29,-539.4295 835.29,-536.16 835.29,-534.0655 832.3111,-532.4584 827.3932,-531.3387"/>
<polygon fill="#444444" fill-opacity="0.333333" stroke="#444444" stroke-opacity="0.333333" points="827.8655,-527.8707 817.4697,-529.9147 826.8711,-534.7998 827.8655,-527.8707"/>
</g>
<!-- util&#45;linux&#45;&gt;libfdisk -->
<g id="edge37" class="edge">
<title>util&#45;linux&#45;&gt;libfdisk</title>
<path fill="none" stroke="#444444" stroke-opacity="0.333333" d="M799.9219,-554.2599C839.0575,-569.2889 894.8344,-590.7087 936.3489,-606.6513"/>
<polygon fill="#444444" fill-opacity="0.333333" stroke="#444444" stroke-opacity="0.333333" points="935.1858,-609.9538 945.7759,-610.2715 937.6954,-603.4191 935.1858,-609.9538"/>
</g>
<!-- util&#45;linux&#45;&gt;libutempter -->
<g id="edge38" class="edge">
<title>util&#45;linux&#45;&gt;libutempter</title>
<path fill="none" stroke="#444444" stroke-opacity="0.333333" d="M751.349,-517.8856C748.218,-478.1781 740.7755,-383.7932 737.0356,-336.3653"/>
<polygon fill="#444444" fill-opacity="0.333333" stroke="#444444" stroke-opacity="0.333333" points="740.5082,-335.8788 736.2329,-326.1849 733.5299,-336.4291 740.5082,-335.8788"/>
</g>
<!-- acl&#45;&gt;Fedora Container Base -->
<g id="edge65" class="edge">
<title>acl&#45;&gt;Fedora Container Base</title>
<path fill="none" stroke="#444444" stroke-opacity="0.333333" d="M1211.2301,-362.8843C1156.1542,-389.942 1052.373,-440.9275 992.9425,-470.1246"/>
<polygon fill="#444444" fill-opacity="0.333333" stroke="#444444" stroke-opacity="0.333333" points="991.2313,-467.0656 983.7993,-474.6164 994.3179,-473.3483 991.2313,-467.0656"/>
</g>
<!-- cryptsetup&#45;libs&#45;&gt;Fedora Container Base -->
<g id="edge66" class="edge">
<title>cryptsetup&#45;libs&#45;&gt;Fedora Container Base</title>
<path fill="none" stroke="#444444" stroke-opacity="0.333333" d="M952.2903,-795.311C951.5582,-741.9652 949.4134,-585.6677 948.5238,-520.8339"/>
<polygon fill="#444444" fill-opacity="0.333333" stroke="#444444" stroke-opacity="0.333333" points="952.0194,-520.4888 948.3825,-510.5378 945.0201,-520.5849 952.0194,-520.4888"/>
</g>
<!-- cryptsetup&#45;libs&#45;&gt;device&#45;mapper&#45;libs -->
<g id="edge67" class="edge">
<title>cryptsetup&#45;libs&#45;&gt;device&#45;mapper&#45;libs</title>
<path fill="none" stroke="#444444" stroke-opacity="0.333333" d="M911.6793,-831.5952C885.2028,-843.3138 850.5422,-858.6548 822.4303,-871.0973"/>
<polygon fill="#444444" fill-opacity="0.333333" stroke="#444444" stroke-opacity="0.333333" points="820.8967,-867.9485 813.169,-875.1964 823.7299,-874.3495 820.8967,-867.9485"/>
</g>
<!-- cryptsetup&#45;libs&#45;&gt;libargon2 -->
<g id="edge68" class="edge">
<title>cryptsetup&#45;libs&#45;&gt;libargon2</title>
<path fill="none" stroke="#444444" stroke-opacity="0.333333" d="M945.9544,-831.6093C934.3627,-863.4673 910.2451,-929.7507 896.5165,-967.4814"/>
<polygon fill="#444444" fill-opacity="0.333333" stroke="#444444" stroke-opacity="0.333333" points="893.0692,-966.7198 892.9389,-977.3139 899.6473,-969.1134 893.0692,-966.7198"/>
</g>
<!-- dbus&#45;&gt;dbus&#45;broker -->
<g id="edge69" class="edge">
<title>dbus&#45;&gt;dbus&#45;broker</title>
<path fill="none" stroke="#444444" stroke-opacity="0.333333" d="M1249.0785,-36.0062C1212.9134,-54.9795 1155.8452,-84.9193 1116.467,-105.5784"/>
<polygon fill="#444444" fill-opacity="0.333333" stroke="#444444" stroke-opacity="0.333333" points="1114.5866,-102.6125 1107.3573,-110.3577 1117.8386,-108.8112 1114.5866,-102.6125"/>
</g>
<!-- iptables&#45;libs&#45;&gt;Fedora Container Base -->
<g id="edge70" class="edge">
<title>iptables&#45;libs&#45;&gt;Fedora Container Base</title>
<path fill="none" stroke="#444444" stroke-opacity="0.333333" d="M1121.7138,-770.9615C1090.3213,-720.5367 1001.8518,-578.4314 964.7899,-518.9003"/>
<polygon fill="#444444" fill-opacity="0.333333" stroke="#444444" stroke-opacity="0.333333" points="967.7597,-517.0481 959.5033,-510.4086 961.8172,-520.7477 967.7597,-517.0481"/>
</g>
<!-- iptables&#45;libs&#45;&gt;libpcap -->
<g id="edge71" class="edge">
<title>iptables&#45;libs&#45;&gt;libpcap</title>
<path fill="none" stroke="#444444" stroke-opacity="0.333333" d="M1130.0985,-807.2949C1125.2946,-837.4356 1115.6533,-897.9281 1109.941,-933.7686"/>
<polygon fill="#444444" fill-opacity="0.333333" stroke="#444444" stroke-opacity="0.333333" points="1106.4217,-933.6129 1108.3041,-944.0391 1113.3345,-934.7147 1106.4217,-933.6129"/>
</g>
<!-- kmod&#45;libs&#45;&gt;Fedora Container Base -->
<g id="edge72" class="edge">
<title>kmod&#45;libs&#45;&gt;Fedora Container Base</title>
<path fill="none" stroke="#444444" stroke-opacity="0.333333" d="M1264.3076,-580.4077C1195.3063,-561.1445 1086.4026,-530.7417 1016.1232,-511.1217"/>
<polygon fill="#444444" fill-opacity="0.333333" stroke="#444444" stroke-opacity="0.333333" points="1017.0438,-507.745 1006.4709,-508.4271 1015.1615,-514.4872 1017.0438,-507.745"/>
</g>
<!-- libfdisk&#45;&gt;Fedora Container Base -->
<g id="edge73" class="edge">
<title>libfdisk&#45;&gt;Fedora Container Base</title>
<path fill="none" stroke="#444444" stroke-opacity="0.333333" d="M986.8682,-610.245C979.2923,-587.1476 966.1048,-546.9417 957.248,-519.9391"/>
<polygon fill="#444444" fill-opacity="0.333333" stroke="#444444" stroke-opacity="0.333333" points="960.5287,-518.7109 954.0864,-510.2998 953.8774,-520.8926 960.5287,-518.7109"/>
</g>
<!-- libseccomp&#45;&gt;Fedora Container Base -->
<g id="edge74" class="edge">
<title>libseccomp&#45;&gt;Fedora Container Base</title>
<path fill="none" stroke="#444444" stroke-opacity="0.333333" d="M1233.2113,-474.5256C1189.8957,-477.202 1133.3364,-480.6966 1082.0263,-483.8669"/>
<polygon fill="#444444" fill-opacity="0.333333" stroke="#444444" stroke-opacity="0.333333" points="1081.6048,-480.3862 1071.8397,-484.4963 1082.0365,-487.3729 1081.6048,-480.3862"/>
</g>
<!-- qrencode&#45;libs&#45;&gt;Fedora Container Base -->
<g id="edge75" class="edge">
<title>qrencode&#45;libs&#45;&gt;Fedora Container Base</title>
<path fill="none" stroke="#444444" stroke-opacity="0.333333" d="M1233.2419,-702.8873C1177.7711,-661.8847 1042.7886,-562.1092 980.547,-516.1018"/>
<polygon fill="#444444" fill-opacity="0.333333" stroke="#444444" stroke-opacity="0.333333" points="982.3851,-513.1081 972.2631,-509.9785 978.2242,-518.7373 982.3851,-513.1081"/>
</g>
<!-- systemd&#45;pam&#45;&gt;Fedora Container Base -->
<g id="edge76" class="edge">
<title>systemd&#45;pam&#45;&gt;Fedora Container Base</title>
<path fill="none" stroke="#444444" stroke-opacity="0.333333" d="M1144.4655,-599.993C1103.4767,-577.4766 1033.3666,-538.963 988.959,-514.5686"/>
<polygon fill="#444444" fill-opacity="0.333333" stroke="#444444" stroke-opacity="0.333333" points="990.6145,-511.4847 980.1647,-509.7376 987.2442,-517.62 990.6145,-511.4847"/>
</g>
<!-- systemd&#45;pam&#45;&gt;systemd -->
<g id="edge77" class="edge">
<title>systemd&#45;pam&#45;&gt;systemd</title>
<path fill="none" stroke="#444444" stroke-opacity="0.333333" d="M1173.4233,-599.7606C1162.3083,-568.1282 1132.791,-503.1267 1113.0816,-466.0792"/>
<polygon fill="#444444" fill-opacity="0.333333" stroke="#444444" stroke-opacity="0.333333" points="1115.9144,-463.9635 1108.0529,-456.8608 1109.7692,-467.3157 1115.9144,-463.9635"/>
</g>
<!-- diffutils&#45;&gt;Fedora Container Base -->
<g id="edge84" class="edge">
<title>diffutils&#45;&gt;Fedora Container Base</title>
<path fill="none" stroke="#444444" stroke-opacity="0.333333" d="M1163.3176,-247.3381C1123.1659,-293.0155 1017.486,-413.2392 970.8259,-466.3207"/>
<polygon fill="#444444" fill-opacity="0.333333" stroke="#444444" stroke-opacity="0.333333" points="968.0969,-464.1239 964.1235,-473.9454 973.3545,-468.7454 968.0969,-464.1239"/>
</g>
<!-- libxkbcommon&#45;&gt;Fedora Container Base -->
<g id="edge85" class="edge">
<title>libxkbcommon&#45;&gt;Fedora Container Base</title>
<path fill="none" stroke="#444444" stroke-opacity="0.333333" d="M1372.5945,-286.1249C1288.3835,-326.9969 1084.1915,-426.1021 993.1911,-470.2695"/>
<polygon fill="#444444" fill-opacity="0.333333" stroke="#444444" stroke-opacity="0.333333" points="991.4335,-467.232 983.9654,-474.7472 994.49,-473.5295 991.4335,-467.232"/>
</g>
<!-- libxkbcommon&#45;&gt;xkeyboard&#45;config -->
<g id="edge86" class="edge">
<title>libxkbcommon&#45;&gt;xkeyboard&#45;config</title>
<path fill="none" stroke="#444444" stroke-opacity="0.333333" d="M1447.6117,-249.9386C1520.2434,-215.1183 1679.6326,-138.7057 1759.0702,-100.6226"/>
<polygon fill="#444444" fill-opacity="0.333333" stroke="#444444" stroke-opacity="0.333333" points="1760.8459,-103.6528 1768.3502,-96.1737 1757.8198,-97.3406 1760.8459,-103.6528"/>
</g>
<!-- libutempter&#45;&gt;Fedora Container Base -->
<g id="edge78" class="edge">
<title>libutempter&#45;&gt;Fedora Container Base</title>
<path fill="none" stroke="#444444" stroke-opacity="0.333333" d="M756.0438,-326.4553C794.6363,-359.7434 876.2898,-430.174 919.6626,-467.5853"/>
<polygon fill="#444444" fill-opacity="0.333333" stroke="#444444" stroke-opacity="0.333333" points="917.4384,-470.2889 927.2967,-474.1702 922.0104,-464.9883 917.4384,-470.2889"/>
</g>
<!-- libutempter&#45;&gt;shadow&#45;utils -->
<g id="edge79" class="edge">
<title>libutempter&#45;&gt;shadow&#45;utils</title>
<path fill="none" stroke="#444444" stroke-opacity="0.333333" d="M756.0223,-290.0337C780.7605,-268.9178 821.7897,-233.8963 849.4868,-210.2547"/>
<polygon fill="#444444" fill-opacity="0.333333" stroke="#444444" stroke-opacity="0.333333" points="851.937,-212.765 857.2707,-203.6106 847.3924,-207.4408 851.937,-212.765"/>
</g>
<!-- httpd&#45;&gt;Fedora Container Base -->
<g id="edge43" class="edge">
<title>httpd&#45;&gt;Fedora Container Base</title>
<path fill="none" stroke="#444444" stroke-opacity="0.333333" d="M549.5072,-335.6663C632.4652,-368.2303 806.9098,-436.706 894.9314,-471.2576"/>
<polygon fill="#444444" fill-opacity="0.333333" stroke="#444444" stroke-opacity="0.333333" points="893.8693,-474.6007 904.4567,-474.9967 896.4271,-468.0847 893.8693,-474.6007"/>
</g>
<!-- httpd&#45;&gt;apr -->
<g id="edge44" class="edge">
<title>httpd&#45;&gt;apr</title>
<path fill="none" stroke="#444444" stroke-opacity="0.333333" d="M505.7907,-335.6691C509.0677,-362.7471 515.2919,-414.1777 519.1835,-446.334"/>
<polygon fill="#444444" fill-opacity="0.333333" stroke="#444444" stroke-opacity="0.333333" points="515.73,-446.9302 520.4062,-456.4372 522.6793,-446.0891 515.73,-446.9302"/>
</g>
<!-- httpd&#45;&gt;apr&#45;util -->
<g id="edge45" class="edge">
<title>httpd&#45;&gt;apr&#45;util</title>
<path fill="none" stroke="#444444" stroke-opacity="0.333333" d="M502.8318,-335.8709C500.7287,-385.1158 494.9191,-521.1453 492.3819,-580.5531"/>
<polygon fill="#444444" fill-opacity="0.333333" stroke="#444444" stroke-opacity="0.333333" points="488.8779,-580.5758 491.9479,-590.716 495.8715,-580.8745 488.8779,-580.5758"/>
</g>
<!-- httpd&#45;&gt;systemd -->
<g id="edge46" class="edge">
<title>httpd&#45;&gt;systemd</title>
<path fill="none" stroke="#444444" stroke-opacity="0.333333" d="M578.7846,-333.0412C693.5006,-356.5281 910.7559,-401.0089 1023.2609,-424.0431"/>
<polygon fill="#444444" fill-opacity="0.333333" stroke="#444444" stroke-opacity="0.333333" points="1022.6567,-427.4919 1033.1555,-426.0689 1024.0608,-420.6342 1022.6567,-427.4919"/>
</g>
<!-- httpd&#45;&gt;fedora&#45;logos&#45;httpd -->
<g id="edge47" class="edge">
<title>httpd&#45;&gt;fedora&#45;logos&#45;httpd</title>
<path fill="none" stroke="#444444" stroke-opacity="0.333333" d="M480.1797,-299.4708C418.0028,-251.2288 248.7696,-119.9235 178.1376,-65.1214"/>
<polygon fill="#444444" fill-opacity="0.333333" stroke="#444444" stroke-opacity="0.333333" points="180.0729,-62.193 170.0266,-58.8281 175.7819,-67.7235 180.0729,-62.193"/>
</g>
<!-- httpd&#45;&gt;httpd -->
<g id="edge48" class="edge">
<title>httpd&#45;&gt;httpd</title>
<path fill="none" stroke="#444444" stroke-opacity="0.333333" d="M578.7784,-323.7074C589.4494,-322.7277 596.61,-320.7086 596.61,-317.65 596.61,-315.6906 593.6713,-314.1578 588.7535,-313.0515"/>
<polygon fill="#444444" fill-opacity="0.333333" stroke="#444444" stroke-opacity="0.333333" points="589.1797,-309.5767 578.7784,-311.5926 588.1666,-316.503 589.1797,-309.5767"/>
</g>
<!-- httpd&#45;&gt;httpd&#45;filesystem -->
<g id="edge49" class="edge">
<title>httpd&#45;&gt;httpd&#45;filesystem</title>
<path fill="none" stroke="#444444" stroke-opacity="0.333333" d="M521.8597,-299.5266C552.2942,-269.3026 613.5017,-208.5187 648.3372,-173.9243"/>
<polygon fill="#444444" fill-opacity="0.333333" stroke="#444444" stroke-opacity="0.333333" points="651.1344,-176.079 655.7638,-166.5491 646.2019,-171.1121 651.1344,-176.079"/>
</g>
<!-- httpd&#45;&gt;httpd&#45;tools -->
<g id="edge50" class="edge">
<title>httpd&#45;&gt;httpd&#45;tools</title>
<path fill="none" stroke="#444444" stroke-opacity="0.333333" d="M492.2126,-335.8676C473.3959,-365.9444 435.7437,-426.1278 413.8829,-461.0701"/>
<polygon fill="#444444" fill-opacity="0.333333" stroke="#444444" stroke-opacity="0.333333" points="410.7621,-459.4594 408.4254,-469.7934 416.6964,-463.1721 410.7621,-459.4594"/>
</g>
<!-- httpd&#45;&gt;mailcap -->
<g id="edge51" class="edge">
<title>httpd&#45;&gt;mailcap</title>
<path fill="none" stroke="#444444" stroke-opacity="0.333333" d="M428.5222,-304.7475C344.0803,-290.2377 208.1176,-266.875 126.482,-252.8474"/>
<polygon fill="#444444" fill-opacity="0.333333" stroke="#444444" stroke-opacity="0.333333" points="126.7621,-249.3443 116.3138,-251.1002 125.5766,-256.2432 126.7621,-249.3443"/>
</g>
<!-- httpd&#45;&gt;mod_http2 -->
<g id="edge52" class="edge">
<title>httpd&#45;&gt;mod_http2</title>
<path fill="none" stroke="#444444" stroke-opacity="0.333333" d="M510.286,-299.5639C514.6752,-277.6022 518.5987,-240.3087 519.4169,-214.5105"/>
<polygon fill="#444444" fill-opacity="0.333333" stroke="#444444" stroke-opacity="0.333333" points="522.9205,-214.2871 519.5698,-204.2361 515.9213,-214.1829 522.9205,-214.2871"/>
</g>
<!-- httpd&#45;filesystem&#45;&gt;Fedora Container Base -->
<g id="edge53" class="edge">
<title>httpd&#45;filesystem&#45;&gt;Fedora Container Base</title>
<path fill="none" stroke="#444444" stroke-opacity="0.333333" d="M688.4851,-166.3022C733.7842,-223.1497 873.9254,-399.018 927.2455,-465.9313"/>
<polygon fill="#444444" fill-opacity="0.333333" stroke="#444444" stroke-opacity="0.333333" points="924.6271,-468.2617 933.5963,-473.9012 930.1016,-463.8993 924.6271,-468.2617"/>
</g>
<!-- httpd&#45;filesystem&#45;&gt;shadow&#45;utils -->
<g id="edge54" class="edge">
<title>httpd&#45;filesystem&#45;&gt;shadow&#45;utils</title>
<path fill="none" stroke="#444444" stroke-opacity="0.333333" d="M757.2895,-163.4022C770.6789,-165.8341 784.5208,-168.3481 797.8518,-170.7694"/>
<polygon fill="#444444" fill-opacity="0.333333" stroke="#444444" stroke-opacity="0.333333" points="797.466,-174.2565 807.9305,-172.6 798.717,-167.3692 797.466,-174.2565"/>
</g>
<!-- httpd&#45;tools&#45;&gt;Fedora Container Base -->
<g id="edge55" class="edge">
<title>httpd&#45;tools&#45;&gt;Fedora Container Base</title>
<path fill="none" stroke="#444444" stroke-opacity="0.333333" d="M466.6179,-488.4174C550.3658,-489.0648 693.3242,-490.1701 801.7745,-491.0085"/>
<polygon fill="#444444" fill-opacity="0.333333" stroke="#444444" stroke-opacity="0.333333" points="801.801,-494.5087 811.8278,-491.0862 801.8552,-487.5089 801.801,-494.5087"/>
</g>
<!-- httpd&#45;tools&#45;&gt;apr -->
<g id="edge56" class="edge">
<title>httpd&#45;tools&#45;&gt;apr</title>
<path fill="none" stroke="#444444" stroke-opacity="0.333333" d="M466.8386,-480.5744C466.9867,-480.5588 467.1347,-480.5433 467.2827,-480.5278"/>
<polygon fill="#444444" fill-opacity="0.333333" stroke="#444444" stroke-opacity="0.333333" points="464.3131,-484.3583 473.8939,-479.8352 463.5835,-477.3964 464.3131,-484.3583"/>
</g>
<!-- httpd&#45;tools&#45;&gt;apr&#45;util -->
<g id="edge57" class="edge">
<title>httpd&#45;tools&#45;&gt;apr&#45;util</title>
<path fill="none" stroke="#444444" stroke-opacity="0.333333" d="M411.1917,-506.0024C426.9845,-526.3268 452.7387,-559.471 470.7425,-582.6409"/>
<polygon fill="#444444" fill-opacity="0.333333" stroke="#444444" stroke-opacity="0.333333" points="468.0925,-584.9348 476.992,-590.6837 473.62,-580.6398 468.0925,-584.9348"/>
</g>
<!-- mailcap&#45;&gt;mailcap -->
<g id="edge58" class="edge">
<title>mailcap&#45;&gt;mailcap</title>
<path fill="none" stroke="#444444" stroke-opacity="0.333333" d="M116.3117,-247.4341C126.7258,-246.6082 134,-244.4902 134,-241.08 134,-238.9487 131.1585,-237.322 126.4849,-236.2002"/>
<polygon fill="#444444" fill-opacity="0.333333" stroke="#444444" stroke-opacity="0.333333" points="126.7103,-232.6964 116.3117,-234.7259 125.7064,-239.624 126.7103,-232.6964"/>
</g>
<!-- mod_http2&#45;&gt;Fedora Container Base -->
<g id="edge59" class="edge">
<title>mod_http2&#45;&gt;Fedora Container Base</title>
<path fill="none" stroke="#444444" stroke-opacity="0.333333" d="M542.2548,-204.3653C616.567,-257.0544 831.6497,-409.5528 914.7823,-468.4957"/>
<polygon fill="#444444" fill-opacity="0.333333" stroke="#444444" stroke-opacity="0.333333" points="912.9185,-471.4647 923.1005,-474.3935 916.9673,-465.7544 912.9185,-471.4647"/>
</g>
<!-- mod_http2&#45;&gt;httpd -->
<g id="edge60" class="edge">
<title>mod_http2&#45;&gt;httpd</title>
<path fill="none" stroke="#444444" stroke-opacity="0.333333" d="M509.874,-204.2261C505.4848,-226.1878 501.5613,-263.4813 500.7431,-289.2795"/>
<polygon fill="#444444" fill-opacity="0.333333" stroke="#444444" stroke-opacity="0.333333" points="497.2395,-289.5029 500.5902,-299.5539 504.2387,-289.6071 497.2395,-289.5029"/>
</g>
<!-- mod_http2&#45;&gt;mod_http2 -->
<g id="edge61" class="edge">
<title>mod_http2&#45;&gt;mod_http2</title>
<path fill="none" stroke="#444444" stroke-opacity="0.333333" d="M586.2227,-192.2951C596.8402,-191.3558 604.05,-189.3041 604.05,-186.14 604.05,-184.113 601.0911,-182.5426 596.1729,-181.4286"/>
<polygon fill="#444444" fill-opacity="0.333333" stroke="#444444" stroke-opacity="0.333333" points="596.6217,-177.9572 586.2227,-179.9849 595.6165,-184.8846 596.6217,-177.9572"/>
</g>
<!-- libpcap&#45;&gt;Fedora Container Base -->
<g id="edge62" class="edge">
<title>libpcap&#45;&gt;Fedora Container Base</title>
<path fill="none" stroke="#444444" stroke-opacity="0.333333" d="M1099.3312,-944.1188C1075.2734,-872.204 986.5064,-606.8569 957.4232,-519.9198"/>
<polygon fill="#444444" fill-opacity="0.333333" stroke="#444444" stroke-opacity="0.333333" points="960.6725,-518.6002 954.1807,-510.2271 954.0341,-520.821 960.6725,-518.6002"/>
</g>
<!-- Fedora Container Base -->
<g id="node1" class="node">
<title>Fedora Container Base</title>
<ellipse fill="none" stroke="#000000" cx="948.13" cy="-492.14" rx="136.5" ry="18"/>
<text text-anchor="middle" x="948.13" y="-488.44" font-family="Helvetica,sans-Serif" font-weight="bold" font-size="14.00" fill="#000000">Fedora Container Base (201.3 MB)</text>
</g>
<!-- apr -->
<g id="node2" class="node">
<title>apr</title>
<text text-anchor="middle" x="522.62" y="-471.03" font-family="Helvetica,sans-Serif" font-weight="bold" font-size="14.00" fill="#000000">apr (277.9 kB)</text>
</g>
<!-- apr&#45;util -->
<g id="node3" class="node">
<title>apr&#45;util</title>
<text text-anchor="middle" x="491.17" y="-605.23" font-family="Helvetica,sans-Serif" font-weight="bold" font-size="14.00" fill="#000000">apr&#45;util (216.3 kB)</text>
</g>
<!-- apr&#45;util&#45;bdb -->
<g id="node4" class="node">
<title>apr&#45;util&#45;bdb</title>
<text text-anchor="middle" x="466.19" y="-753.04" font-family="Helvetica,sans-Serif" font-weight="bold" font-size="14.00" fill="#000000">apr&#45;util&#45;bdb (15.4 kB)</text>
</g>
<!-- apr&#45;util&#45;openssl -->
<g id="node5" class="node">
<title>apr&#45;util&#45;openssl</title>
<text text-anchor="middle" x="569.43" y="-820.32" font-family="Helvetica,sans-Serif" font-weight="bold" font-size="14.00" fill="#000000">apr&#45;util&#45;openssl (23.7 kB)</text>
</g>
<!-- device&#45;mapper&#45;libs -->
<g id="node6" class="node">
<title>device&#45;mapper&#45;libs</title>
<text text-anchor="middle" x="772.47" y="-889.51" font-family="Helvetica,sans-Serif" font-weight="bold" font-size="14.00" fill="#000000">device&#45;mapper&#45;libs (418.0 kB)</text>
</g>
<!-- device&#45;mapper -->
<g id="node7" class="node">
<title>device&#45;mapper</title>
<text text-anchor="middle" x="840.82" y="-695.23" font-family="Helvetica,sans-Serif" font-weight="bold" font-size="14.00" fill="#000000">device&#45;mapper (349.9 kB)</text>
</g>
<!-- libargon2 -->
<g id="node8" class="node">
<title>libargon2</title>
<text text-anchor="middle" x="886.38" y="-991.64" font-family="Helvetica,sans-Serif" font-weight="bold" font-size="14.00" fill="#000000">libargon2 (54.2 kB)</text>
</g>
<!-- dbus&#45;broker -->
<g id="node9" class="node">
<title>dbus&#45;broker</title>
<text text-anchor="middle" x="1072.7" y="-124.84" font-family="Helvetica,sans-Serif" font-weight="bold" font-size="14.00" fill="#000000">dbus&#45;broker (409.7 kB)</text>
</g>
<!-- dbus&#45;common -->
<g id="node10" class="node">
<title>dbus&#45;common</title>
<text text-anchor="middle" x="1022.1" y="-227.95" font-family="Helvetica,sans-Serif" font-weight="bold" font-size="14.00" fill="#000000">dbus&#45;common (11.2 kB)</text>
</g>
<!-- shadow&#45;utils -->
<g id="node11" class="node">
<title>shadow&#45;utils</title>
<text text-anchor="middle" x="878.57" y="-181.73" font-family="Helvetica,sans-Serif" font-weight="bold" font-size="14.00" fill="#000000">shadow&#45;utils (4.0 MB)</text>
</g>
<!-- systemd -->
<g id="node12" class="node">
<title>systemd</title>
<text text-anchor="middle" x="1094.8" y="-434.99" font-family="Helvetica,sans-Serif" font-weight="bold" font-size="14.00" fill="#000000">systemd (13.1 MB)</text>
</g>
<!-- libsemanage -->
<g id="node13" class="node">
<title>libsemanage</title>
<text text-anchor="middle" x="830.74" y="-18.629" font-family="Helvetica,sans-Serif" font-weight="bold" font-size="14.00" fill="#000000">libsemanage (304.5 kB)</text>
</g>
<!-- util&#45;linux -->
<g id="node14" class="node">
<title>util&#45;linux</title>
<text text-anchor="middle" x="752.79" y="-532.46" font-family="Helvetica,sans-Serif" font-weight="bold" font-size="14.00" fill="#000000">util&#45;linux (13.5 MB)</text>
</g>
<!-- acl -->
<g id="node15" class="node">
<title>acl</title>
<text text-anchor="middle" x="1248" y="-341.12" font-family="Helvetica,sans-Serif" font-weight="bold" font-size="14.00" fill="#000000">acl (209.6 kB)</text>
</g>
<!-- cryptsetup&#45;libs -->
<g id="node16" class="node">
<title>cryptsetup&#45;libs</title>
<text text-anchor="middle" x="952.54" y="-809.81" font-family="Helvetica,sans-Serif" font-weight="bold" font-size="14.00" fill="#000000">cryptsetup&#45;libs (1.8 MB)</text>
</g>
<!-- dbus -->
<g id="node17" class="node">
<title>dbus</title>
<text text-anchor="middle" x="1283.4" y="-14.3" font-family="Helvetica,sans-Serif" font-weight="bold" font-size="14.00" fill="#000000">dbus (0.0 B)</text>
</g>
<!-- iptables&#45;libs -->
<g id="node18" class="node">
<title>iptables&#45;libs</title>
<text text-anchor="middle" x="1133" y="-785.39" font-family="Helvetica,sans-Serif" font-weight="bold" font-size="14.00" fill="#000000">iptables&#45;libs (141.4 kB)</text>
</g>
<!-- kmod&#45;libs -->
<g id="node19" class="node">
<title>kmod&#45;libs</title>
<text text-anchor="middle" x="1328.9" y="-594.74" font-family="Helvetica,sans-Serif" font-weight="bold" font-size="14.00" fill="#000000">kmod&#45;libs (127.5 kB)</text>
</g>
<!-- libfdisk -->
<g id="node20" class="node">
<title>libfdisk</title>
<text text-anchor="middle" x="992.8" y="-624.63" font-family="Helvetica,sans-Serif" font-weight="bold" font-size="14.00" fill="#000000">libfdisk (472.7 kB)</text>
</g>
<!-- libseccomp -->
<g id="node21" class="node">
<title>libseccomp</title>
<text text-anchor="middle" x="1305" y="-466.39" font-family="Helvetica,sans-Serif" font-weight="bold" font-size="14.00" fill="#000000">libseccomp (351.1 kB)</text>
</g>
<!-- qrencode&#45;libs -->
<g id="node22" class="node">
<title>qrencode&#45;libs</title>
<text text-anchor="middle" x="1257.8" y="-717.34" font-family="Helvetica,sans-Serif" font-weight="bold" font-size="14.00" fill="#000000">qrencode&#45;libs (158.2 kB)</text>
</g>
<!-- systemd&#45;pam -->
<g id="node23" class="node">
<title>systemd&#45;pam</title>
<text text-anchor="middle" x="1177.3" y="-614.33" font-family="Helvetica,sans-Serif" font-weight="bold" font-size="14.00" fill="#000000">systemd&#45;pam (867.6 kB)</text>
</g>
<!-- systemd&#45;rpm&#45;macros -->
<g id="node24" class="node">
<title>systemd&#45;rpm&#45;macros</title>
<text text-anchor="middle" x="1591.3" y="-469.73" font-family="Helvetica,sans-Serif" font-weight="bold" font-size="14.00" fill="#000000">systemd&#45;rpm&#45;macros (4.9 kB)</text>
</g>
<!-- diffutils -->
<g id="node25" class="node">
<title>diffutils</title>
<text text-anchor="middle" x="1179.2" y="-225.57" font-family="Helvetica,sans-Serif" font-weight="bold" font-size="14.00" fill="#000000">diffutils (1.5 MB)</text>
</g>
<!-- libxkbcommon -->
<g id="node26" class="node">
<title>libxkbcommon</title>
<text text-anchor="middle" x="1410" y="-264.27" font-family="Helvetica,sans-Serif" font-weight="bold" font-size="14.00" fill="#000000">libxkbcommon (276.4 kB)</text>
</g>
<!-- libutempter -->
<g id="node27" class="node">
<title>libutempter</title>
<text text-anchor="middle" x="734.81" y="-304.44" font-family="Helvetica,sans-Serif" font-weight="bold" font-size="14.00" fill="#000000">libutempter (57.8 kB)</text>
</g>
<!-- fedora&#45;logos&#45;httpd -->
<g id="node28" class="node">
<title>fedora&#45;logos&#45;httpd</title>
<text text-anchor="middle" x="146.51" y="-36.882" font-family="Helvetica,sans-Serif" font-weight="bold" font-size="14.00" fill="#000000">fedora&#45;logos&#45;httpd (9.9 kB)</text>
</g>
<!-- httpd -->
<g id="node29" class="node">
<title>httpd</title>
<text text-anchor="middle" x="503.61" y="-312.05" font-family="Helvetica,sans-Serif" font-weight="bold" font-size="22.00" fill="#cc0066">httpd (4.7 MB)</text>
</g>
<!-- httpd&#45;filesystem -->
<g id="node30" class="node">
<title>httpd&#45;filesystem</title>
<text text-anchor="middle" x="674.14" y="-144.6" font-family="Helvetica,sans-Serif" font-weight="bold" font-size="14.00" fill="#000000">httpd&#45;filesystem (400.0 B)</text>
</g>
<!-- httpd&#45;tools -->
<g id="node31" class="node">
<title>httpd&#45;tools</title>
<text text-anchor="middle" x="397.11" y="-484.18" font-family="Helvetica,sans-Serif" font-weight="bold" font-size="14.00" fill="#000000">httpd&#45;tools (204.4 kB)</text>
</g>
<!-- mailcap -->
<g id="node32" class="node">
<title>mailcap</title>
<text text-anchor="middle" x="58" y="-237.38" font-family="Helvetica,sans-Serif" font-weight="bold" font-size="14.00" fill="#000000">mailcap (71.2 kB)</text>
</g>
<!-- mod_http2 -->
<g id="node33" class="node">
<title>mod_http2</title>
<text text-anchor="middle" x="516.55" y="-182.44" font-family="Helvetica,sans-Serif" font-weight="bold" font-size="14.00" fill="#000000">mod_http2 (401.1 kB)</text>
</g>
<!-- libpcap -->
<g id="node34" class="node">
<title>libpcap</title>
<text text-anchor="middle" x="1105.4" y="-958.56" font-family="Helvetica,sans-Serif" font-weight="bold" font-size="14.00" fill="#000000">libpcap (387.4 kB)</text>
</g>
<!-- xkeyboard&#45;config -->
<g id="node35" class="node">
<title>xkeyboard&#45;config</title>
<text text-anchor="middle" x="1806" y="-74.424" font-family="Helvetica,sans-Serif" font-weight="bold" font-size="14.00" fill="#000000">xkeyboard&#45;config (5.5 MB)</text>
</g>
</g>

<script type="text/javascript"><![CDATA[

document.addEventListener('click', function(e) {
      e = e || window.event;
      var target = e.target || e.srcElement;
      text = target.parentElement.querySelector("title").textContent;

      console.log("Clicked on: " + text);
      // reset all strokes
      var nodes = document.getElementsByClassName("edge");

      for (index = 0, len = nodes.length; index < len; ++index) {
          //var title = nodes[index].querySelector("title").textContent.split("->");
          id = nodes[index].id;
          document.getElementById(id).querySelector("path").setAttribute("stroke-width", "1");
          document.getElementById(id).querySelector("path").setAttribute("stroke-opacity", "0.5");
          document.getElementById(id).querySelector("path").setAttribute("stroke", "#444444");
          document.getElementById(id).querySelector("polygon").setAttribute("stroke-width", "1");
          document.getElementById(id).querySelector("polygon").setAttribute("stroke-opacity", "0.5");
          document.getElementById(id).querySelector("polygon").setAttribute("stroke", "#444444");
      }
      // reset text highlight
      pkgs = document.getElementsByClassName("node");
      for (index2 = 0, len2 = pkgs.length; index2 < len2; ++index2) {
          target_id = pkgs[index2].id;
          document.getElementById(target_id).querySelector("text").setAttribute("font-weight", "normal");
      }

      // highlight deps
      var nodes = document.getElementsByClassName("edge");
      for (index = 0, len = nodes.length; index < len; ++index) {
        var title = nodes[index].querySelector("title").textContent.split("->");

        if (title[0] == text) {
          id = nodes[index].id;
          //console.log("ID:   " + id);
          document.getElementById(id).querySelector("path").setAttribute("stroke-width", "3");
          document.getElementById(id).querySelector("path").setAttribute("stroke-opacity", "1");
          document.getElementById(id).querySelector("path").setAttribute("stroke", "#aa3333");
          document.getElementById(id).querySelector("polygon").setAttribute("stroke-width", "5");
          document.getElementById(id).querySelector("polygon").setAttribute("stroke-opacity", "1");
          document.getElementById(id).querySelector("polygon").setAttribute("stroke", "#aa3333");

        }
        if (title[1] == text) {
          id = nodes[index].id;
          document.getElementById(id).querySelector("path").setAttribute("stroke-width", "3");
          document.getElementById(id).querySelector("path").setAttribute("stroke-opacity", "1");
          document.getElementById(id).querySelector("path").setAttribute("stroke", "#333377");
          document.getElementById(id).querySelector("polygon").setAttribute("stroke-width", "5");
          document.getElementById(id).querySelector("polygon").setAttribute("stroke-opacity", "1");
          document.getElementById(id).querySelector("polygon").setAttribute("stroke", "#333377");
        }

        if (title[0] == text || title[1] == text) {
          pkgs = document.getElementsByClassName("node");
          for (index2 = 0, len2 = pkgs.length; index2 < len2; ++index2) {
            var pkg_name = pkgs[index2].querySelector("title").textContent;
            if (pkg_name == title[0] || pkg_name == title[1]) {
              target_id = pkgs[index2].id;
              document.getElementById(target_id).querySelector("text").setAttribute("font-weight", "bold");
            }
          }
        }
      }


  }, false);

]]></script>

</svg>
