<?xml version="1.0" encoding="UTF-8" standalone="no"?>
<!DOCTYPE svg PUBLIC "-//W3C//DTD SVG 1.1//EN"
 "http://www.w3.org/Graphics/SVG/1.1/DTD/svg11.dtd">
<!-- Generated by graphviz version 2.40.1 (0)
 -->
<!-- Title: packages Pages: 1 -->
<svg width="1140pt" height="779pt"
 viewBox="0.00 0.00 1139.79 778.81" xmlns="http://www.w3.org/2000/svg" xmlns:xlink="http://www.w3.org/1999/xlink">
<g id="graph0" class="graph" transform="scale(1 1) rotate(0) translate(95.7633 633.6401)">
<title>packages</title>
<polygon fill="#dae2ff" stroke="transparent" points="-95.7633,145.165 -95.7633,-633.6401 1044.0299,-633.6401 1044.0299,145.165 -95.7633,145.165"/>
<polygon fill="#fed9a6" stroke="#fed9a6" points="895.8501,-110.0163 914.322,-114.7692 985.5289,-131.5054 1019.4735,-165.0181 1040.0299,-192.4395 1034.9705,-256.92 1034.3601,-327.2137 953.636,-386.424 909.6995,-406.4501 902.0485,-410.1228 889.7383,-416.3288 889.3036,-303.6259 885.6702,-257.2766 881.7145,-257.2766 880.4131,-255.6189 875.3348,-252.4824 875.3348,-252.4824 880.4131,-255.6189 881.7145,-257.2766 880.8489,-258.2964 875.4423,-261.4955 870.0358,-261.4955 870.0358,-261.4955 875.4423,-261.4955 880.8489,-258.2964 881.7145,-257.2766 885.6702,-257.2766 889.3036,-303.6259 889.7383,-416.3288 879.5548,-421.9472 867.8519,-428.6807 855.4774,-453.7568 836.4786,-464.9109 719.6539,-493.8347 701.0536,-499.291 700.0726,-499.6007 691.8585,-502.569 682.8558,-506.0279 674.0652,-509.6045 667.2233,-512.6982 663.8672,-513.4677 648.8852,-517.4959 650.512,-431.1928 650.512,-431.1928 648.8852,-517.4959 603.3918,-531.5179 562.7438,-446.46 527.8152,-356.9067 526.4916,-356.2935 481.5244,-338.0435 470.0941,-279.1948 466.3151,-253.0682 465.1826,-247.4383 462.8646,-231.6151 462.2359,-224.7374 460.0191,-209.3246 446.2722,-138.5491 448.8442,-137.5985 463.4091,-132.6344 482.1284,-127.8906 483.5505,-127.5724 488.6213,-126.5863 496.3485,-125.5335 506.8135,-124.4124 527.2801,-122.8189 528.6327,-122.674 545.7189,-119.8326 556.0052,-117.5181 565.5246,-114.8162 583.1681,-108.7645 585.0547,-108.0081 596.0838,-103.2592 599.6226,-101.5278 614.5468,-93.778 637.726,-79.6843 641.9125,-76.7779 645.73,-184.458 643.7764,-229.9414 639.4031,-229.9414 638.9033,-229.7816 638.9033,-229.7816 639.4031,-229.9414 643.7764,-229.9414 645.73,-184.458 641.9125,-76.7779 664.1234,-60.0201 669.1379,-56.0953 767.9347,-106.5998 844.0626,-95.6548 849.1363,-94.7345 851.6641,-94.2281 860.0015,-97.8259 875.2538,-103.7443 879.6063,-105.242 890.6749,-108.572 895.8501,-110.0163 895.8501,-110.0163"/>
<polygon fill="#fbb4ae" stroke="#fbb4ae" points="496.3485,-125.5335 506.8135,-124.4124 527.2801,-122.8189 528.6327,-122.674 545.7189,-119.8326 556.0052,-117.5181 565.5246,-114.8162 583.1681,-108.7645 585.0547,-108.0081 596.0838,-103.2592 599.6226,-101.5278 614.5468,-93.778 637.726,-79.6843 641.9125,-76.7779 664.1234,-60.0201 669.1379,-56.0953 664.9136,-40.0077 650.989,22.6516 641.8163,68.4273 613.4801,105.2455 512.5334,129.9346 488.3858,136.3642 487.9262,136.5157 481.871,138.6434 475.1118,141.165 465.2471,136.1607 454.0273,131.0084 453.5677,130.8084 282.5771,60.5006 264.1589,39.572 211.926,50.0586 137.1094,40.7381 114.0012,38.3461 113.6898,38.3271 104.0007,37.9426 101.0983,37.3776 87.6065,35.3437 78.5021,34.372 63.3642,33.4216 50.9148,33.4612 36.2693,33.8299 24.8881,34.3658 -17.1948,12.3344 -58.4655,-21.4212 -87.6078,-83.2144 -87.599,-84.5407 -90.2178,-150.728 46.0259,-111.2202 47.8123,-109.0724 51.0176,-107.9902 56.3085,-174.7708 57.4834,-106.4221 57.4834,-106.4221 56.3085,-174.7708 51.0176,-107.9902 47.8123,-109.0724 46.0259,-111.2202 -90.2178,-150.728 -91.7633,-175.5387 39.5506,-283.3313 58.0776,-299.0768 66.0527,-306.5248 11.2336,-407.0306 29.0665,-472.3438 35.8807,-502.8087 50.0033,-574.1259 82.0893,-614.4531 163.0892,-625.4719 183.8595,-629.6401 190.4031,-626.9111 191.404,-626.5415 193.5291,-625.8065 194.8325,-485.7272 200.4092,-487.5372 205.8323,-485.7856 209.0168,-482.6463 205.6021,-479.3675 200.6676,-477.8541 200.6676,-477.8541 205.6021,-479.3675 209.0168,-482.6463 205.8323,-485.7856 200.4092,-487.5372 194.8325,-485.7272 193.5291,-625.8065 199.3806,-623.9182 207.7679,-621.4058 220.789,-618.1093 222.9161,-617.6205 230.2052,-616.2828 239.6397,-614.7697 341.6734,-600.7784 361.7571,-607.3986 368.5429,-606.7288 382.8702,-605.8612 383.7494,-478.0804 387.9552,-446.5536 387.6807,-446.4652 387.6807,-446.4652 387.9552,-446.5536 383.7494,-478.0804 382.8702,-605.8612 394.4311,-605.6031 407.0643,-605.8046 413.6342,-606.1607 415.5305,-446.7443 413.1161,-446.7443 409.4973,-443.233 403.9408,-441.4742 398.3576,-443.2362 396.2766,-349.2307 396.1108,-349.2367 386.9572,-349.2698 385.9159,-252.0502 385.8286,-252.022 381.0544,-252.022 380.5722,-252.1825 376.9153,-252.1825 373.6387,-255.4459 368.7314,-256.9942 361.1976,-254.3677 359.138,-252.4136 359.138,-252.4136 361.1976,-254.3677 368.7314,-256.9942 373.6387,-255.4459 376.9153,-252.1825 374.0511,-249.202 374.0511,-249.202 376.9153,-252.1825 380.5722,-252.1825 381.0544,-252.022 385.8286,-252.022 385.9159,-252.0502 386.9572,-349.2698 396.1108,-349.2367 396.2766,-349.2307 398.3576,-443.2362 403.9408,-441.4742 409.4973,-443.233 413.1161,-446.7443 415.5305,-446.7443 413.6342,-606.1607 428.4341,-607.2463 433.8342,-607.9519 446.5191,-602.1948 600.4747,-535.9191 603.3918,-531.5179 562.7438,-446.46 527.8152,-356.9067 526.4916,-356.2935 481.5244,-338.0435 470.0941,-279.1948 466.3151,-253.0682 465.1826,-247.4383 462.8646,-231.6151 462.2359,-224.7374 460.0191,-209.3246 446.2722,-138.5491 448.8442,-137.5985 463.4091,-132.6344 482.1284,-127.8906 483.5505,-127.5724 488.6213,-126.5863 496.3485,-125.5335 496.3485,-125.5335"/>
<polyline fill="none" stroke="#000000" points="596.0838,-103.2592 585.0547,-108.0081 583.1681,-108.7645 565.5246,-114.8162 556.0052,-117.5181 545.7189,-119.8326 528.6327,-122.674 527.2801,-122.8189 506.8135,-124.4124 496.3485,-125.5335 488.6213,-126.5863 483.5505,-127.5724 482.1284,-127.8906 463.4091,-132.6344 448.8442,-137.5985 446.2722,-138.5491 460.0191,-209.3246 462.2359,-224.7374 462.8646,-231.6151 465.1826,-247.4383 466.3151,-253.0682 470.0941,-279.1948 481.5244,-338.0435 526.4916,-356.2935 527.8152,-356.9067 562.7438,-446.46 603.3918,-531.5179 648.8852,-517.4959 663.8672,-513.4677 667.2233,-512.6982 674.0652,-509.6045 682.8558,-506.0279 691.8585,-502.569 700.0726,-499.6007 701.0536,-499.291 719.6539,-493.8347 836.4786,-464.9109 855.4774,-453.7568 867.8519,-428.6807 879.5548,-421.9472 889.7383,-416.3288 902.0485,-410.1228 909.6995,-406.4501 953.636,-386.424 1034.3601,-327.2137 1034.9705,-256.92 1040.0299,-192.4395 1019.4735,-165.0181 985.5289,-131.5054 914.322,-114.7692 895.8501,-110.0163 890.6749,-108.572 879.6063,-105.242 875.2538,-103.7443 860.0015,-97.8259 851.6641,-94.2281 849.1363,-94.7345 844.0626,-95.6548 767.9347,-106.5998 669.1379,-56.0953 664.1234,-60.0201 641.9125,-76.7779 637.726,-79.6843 614.5468,-93.778 599.6226,-101.5278 596.0838,-103.2592 "/>
<polyline fill="none" stroke="#000000" points="101.0983,37.3776 104.0007,37.9426 113.6898,38.3271 114.0012,38.3461 137.1094,40.7381 211.926,50.0586 264.1589,39.572 282.5771,60.5006 453.5677,130.8084 454.0273,131.0084 465.2471,136.1607 475.1118,141.165 481.871,138.6434 487.9262,136.5157 488.3858,136.3642 512.5334,129.9346 613.4801,105.2455 641.8163,68.4273 650.989,22.6516 664.9136,-40.0077 669.1379,-56.0953 664.1234,-60.0201 641.9125,-76.7779 637.726,-79.6843 614.5468,-93.778 599.6226,-101.5278 596.0838,-103.2592 585.0547,-108.0081 583.1681,-108.7645 565.5246,-114.8162 556.0052,-117.5181 545.7189,-119.8326 528.6327,-122.674 527.2801,-122.8189 506.8135,-124.4124 496.3485,-125.5335 488.6213,-126.5863 483.5505,-127.5724 482.1284,-127.8906 463.4091,-132.6344 448.8442,-137.5985 446.2722,-138.5491 460.0191,-209.3246 462.2359,-224.7374 462.8646,-231.6151 465.1826,-247.4383 466.3151,-253.0682 470.0941,-279.1948 481.5244,-338.0435 526.4916,-356.2935 527.8152,-356.9067 562.7438,-446.46 603.3918,-531.5179 600.4747,-535.9191 446.5191,-602.1948 433.8342,-607.9519 428.4341,-607.2463 413.6342,-606.1607 407.0643,-605.8046 394.4311,-605.6031 382.8702,-605.8612 368.5429,-606.7288 361.7571,-607.3986 341.6734,-600.7784 239.6397,-614.7697 230.2052,-616.2828 222.9161,-617.6205 220.789,-618.1093 207.7679,-621.4058 199.3806,-623.9182 193.5291,-625.8065 191.404,-626.5415 190.4031,-626.9111 183.8595,-629.6401 163.0892,-625.4719 82.0893,-614.4531 50.0033,-574.1259 35.8807,-502.8087 29.0665,-472.3438 11.2336,-407.0306 66.0527,-306.5248 58.0776,-299.0768 39.5506,-283.3313 -91.7633,-175.5387 -90.2178,-150.728 -87.599,-84.5407 -87.6078,-83.2144 -58.4655,-21.4212 -17.1948,12.3344 24.8881,34.3658 36.2693,33.8299 50.9148,33.4612 63.3642,33.4216 78.5021,34.372 87.6065,35.3437 101.0983,37.3776 "/>
<!-- libunwind&#45;&gt;Fedora Container Base -->
<g id="edge1" class="edge">
<title>libunwind&#45;&gt;Fedora Container Base</title>
<path fill="none" stroke="#444444" stroke-opacity="0.333333" d="M805.1579,-250.4228C776.7845,-247.6817 742.8629,-244.4045 710.4411,-241.2722"/>
<polygon fill="#444444" fill-opacity="0.333333" stroke="#444444" stroke-opacity="0.333333" points="710.7254,-237.7835 700.4351,-240.3056 710.0522,-244.7511 710.7254,-237.7835"/>
</g>
<!-- libunwind&#45;&gt;libunwind -->
<g id="edge2" class="edge">
<title>libunwind&#45;&gt;libunwind</title>
<path fill="none" stroke="#444444" stroke-opacity="0.333333" d="M939.747,-263.106C950.2497,-262.1812 957.41,-260.1192 957.41,-256.92 957.41,-254.9205 954.613,-253.3652 949.9511,-252.2541"/>
<polygon fill="#444444" fill-opacity="0.333333" stroke="#444444" stroke-opacity="0.333333" points="950.1536,-248.7458 939.747,-250.734 949.1221,-255.6694 950.1536,-248.7458"/>
</g>
<!-- gperftools&#45;libs&#45;&gt;Fedora Container Base -->
<g id="edge3" class="edge">
<title>gperftools&#45;libs&#45;&gt;Fedora Container Base</title>
<path fill="none" stroke="#444444" stroke-opacity="0.333333" d="M669.609,-330.4916C653.9239,-310.5881 628.555,-278.3964 610.708,-255.7496"/>
<polygon fill="#444444" fill-opacity="0.333333" stroke="#444444" stroke-opacity="0.333333" points="613.4436,-253.5662 604.5049,-247.8783 607.9456,-257.8989 613.4436,-253.5662"/>
</g>
<!-- gperftools&#45;libs&#45;&gt;libunwind -->
<g id="edge4" class="edge">
<title>gperftools&#45;libs&#45;&gt;libunwind</title>
<path fill="none" stroke="#444444" stroke-opacity="0.333333" d="M721.0954,-330.4469C751.1841,-315.8261 793.6849,-295.1741 825.9863,-279.4782"/>
<polygon fill="#444444" fill-opacity="0.333333" stroke="#444444" stroke-opacity="0.333333" points="827.7674,-282.5042 835.232,-274.9855 824.708,-276.2081 827.7674,-282.5042"/>
</g>
<!-- nginx&#45;&gt;Fedora Container Base -->
<g id="edge5" class="edge">
<title>nginx&#45;&gt;Fedora Container Base</title>
<path fill="none" stroke="#444444" stroke-opacity="0.333333" d="M445.7783,-244.1766C454.0467,-243.3445 462.5873,-242.4851 471.1918,-241.6193"/>
<polygon fill="#444444" fill-opacity="0.333333" stroke="#444444" stroke-opacity="0.333333" points="471.7104,-245.0849 481.3097,-240.6012 471.0095,-238.12 471.7104,-245.0849"/>
</g>
<!-- nginx&#45;&gt;fedora&#45;logos&#45;httpd -->
<g id="edge6" class="edge">
<title>nginx&#45;&gt;fedora&#45;logos&#45;httpd</title>
<path fill="none" stroke="#444444" stroke-opacity="0.333333" d="M333.2524,-233.9856C281.9989,-207.5277 186.3548,-158.1548 130.2321,-129.1833"/>
<polygon fill="#444444" fill-opacity="0.333333" stroke="#444444" stroke-opacity="0.333333" points="131.7323,-126.019 121.241,-124.5419 128.5214,-132.2391 131.7323,-126.019"/>
</g>
<!-- nginx&#45;&gt;gperftools&#45;libs -->
<g id="edge7" class="edge">
<title>nginx&#45;&gt;gperftools&#45;libs</title>
<path fill="none" stroke="#444444" stroke-opacity="0.333333" d="M427.1423,-270.0389C480.4294,-286.3368 558.8616,-310.3253 614.991,-327.4925"/>
<polygon fill="#444444" fill-opacity="0.333333" stroke="#444444" stroke-opacity="0.333333" points="614.2633,-330.9299 624.8498,-330.5078 616.3107,-324.236 614.2633,-330.9299"/>
</g>
<!-- nginx&#45;&gt;nginx -->
<g id="edge8" class="edge">
<title>nginx&#45;&gt;nginx</title>
<path fill="none" stroke="#444444" stroke-opacity="0.333333" d="M445.6955,-258.0133C456.445,-257.0212 463.63,-255.0134 463.63,-251.99 463.63,-250.0531 460.6813,-248.5331 455.7357,-247.4298"/>
<polygon fill="#444444" fill-opacity="0.333333" stroke="#444444" stroke-opacity="0.333333" points="456.0957,-243.9454 445.6955,-245.9667 455.0862,-250.8723 456.0957,-243.9454"/>
</g>
<!-- nginx&#45;&gt;nginx&#45;filesystem -->
<g id="edge9" class="edge">
<title>nginx&#45;&gt;nginx&#45;filesystem</title>
<path fill="none" stroke="#444444" stroke-opacity="0.333333" d="M371.5008,-270.2853C377.7855,-304.396 391.329,-377.9041 398.7817,-418.3545"/>
<polygon fill="#444444" fill-opacity="0.333333" stroke="#444444" stroke-opacity="0.333333" points="395.3702,-419.1548 400.6243,-428.355 402.2543,-417.8863 395.3702,-419.1548"/>
</g>
<!-- nginx&#45;&gt;nginx&#45;mimetypes -->
<g id="edge10" class="edge">
<title>nginx&#45;&gt;nginx&#45;mimetypes</title>
<path fill="none" stroke="#444444" stroke-opacity="0.333333" d="M354.9669,-270.0981C325.446,-310.7094 253.8534,-409.1979 219.4537,-456.5207"/>
<polygon fill="#444444" fill-opacity="0.333333" stroke="#444444" stroke-opacity="0.333333" points="216.5307,-454.5893 213.4819,-464.736 222.1928,-458.7052 216.5307,-454.5893"/>
</g>
<!-- nginx&#45;&gt;openssl -->
<g id="edge11" class="edge">
<title>nginx&#45;&gt;openssl</title>
<path fill="none" stroke="#444444" stroke-opacity="0.333333" d="M376.796,-233.6292C396.1105,-192.7075 442.7796,-93.8294 465.5869,-45.5074"/>
<polygon fill="#444444" fill-opacity="0.333333" stroke="#444444" stroke-opacity="0.333333" points="468.841,-46.8128 469.9442,-36.2755 462.5107,-43.8249 468.841,-46.8128"/>
</g>
<!-- nginx&#45;filesystem&#45;&gt;Fedora Container Base -->
<g id="edge12" class="edge">
<title>nginx&#45;filesystem&#45;&gt;Fedora Container Base</title>
<path fill="none" stroke="#444444" stroke-opacity="0.333333" d="M419.5134,-428.3478C452.5878,-389.8321 529.9891,-299.6968 568.1187,-255.2942"/>
<polygon fill="#444444" fill-opacity="0.333333" stroke="#444444" stroke-opacity="0.333333" points="570.9023,-257.425 574.7618,-247.5582 565.5916,-252.8646 570.9023,-257.425"/>
</g>
<!-- nginx&#45;mimetypes&#45;&gt;nginx&#45;filesystem -->
<g id="edge13" class="edge">
<title>nginx&#45;mimetypes&#45;&gt;nginx&#45;filesystem</title>
<path fill="none" stroke="#444444" stroke-opacity="0.333333" d="M286.4212,-467.4181C296.8653,-465.5559 307.536,-463.6532 317.9792,-461.7911"/>
<polygon fill="#444444" fill-opacity="0.333333" stroke="#444444" stroke-opacity="0.333333" points="318.6769,-465.222 327.9072,-460.0208 317.4481,-458.3307 318.6769,-465.222"/>
</g>
<!-- nginx&#45;mimetypes&#45;&gt;nginx&#45;mimetypes -->
<g id="edge14" class="edge">
<title>nginx&#45;mimetypes&#45;&gt;nginx&#45;mimetypes</title>
<path fill="none" stroke="#444444" stroke-opacity="0.333333" d="M286.457,-488.6382C297.2664,-487.6022 304.38,-485.6428 304.38,-482.76 304.38,-480.9132 301.4606,-479.4454 296.5203,-478.3565"/>
<polygon fill="#444444" fill-opacity="0.333333" stroke="#444444" stroke-opacity="0.333333" points="296.8589,-474.8688 286.457,-476.8818 295.8439,-481.7948 296.8589,-474.8688"/>
</g>
<!-- openssl&#45;&gt;Fedora Container Base -->
<g id="edge15" class="edge">
<title>openssl&#45;&gt;Fedora Container Base</title>
<path fill="none" stroke="#444444" stroke-opacity="0.333333" d="M488.0824,-36.0452C507.7202,-73.2983 552.8372,-158.8861 575.9404,-202.7131"/>
<polygon fill="#444444" fill-opacity="0.333333" stroke="#444444" stroke-opacity="0.333333" points="572.8923,-204.4365 580.6517,-211.6505 579.0846,-201.1722 572.8923,-204.4365"/>
</g>
<!-- Fedora Container Base -->
<g id="node1" class="node">
<title>Fedora Container Base</title>
<ellipse fill="none" stroke="#000000" cx="590.14" cy="-229.65" rx="136.5" ry="18"/>
<text text-anchor="middle" x="590.14" y="-225.95" font-family="Helvetica,sans-Serif" font-weight="bold" font-size="14.00" fill="#000000">Fedora Container Base (261.3 MB)</text>
</g>
<!-- libunwind -->
<g id="node2" class="node">
<title>libunwind</title>
<text text-anchor="middle" x="872.41" y="-253.22" font-family="Helvetica,sans-Serif" font-weight="bold" font-size="14.00" fill="#000000">libunwind (364.5 kB)</text>
</g>
<!-- fedora&#45;logos&#45;httpd -->
<g id="node3" class="node">
<title>fedora&#45;logos&#45;httpd</title>
<text text-anchor="middle" x="86" y="-102.65" font-family="Helvetica,sans-Serif" font-weight="bold" font-size="14.00" fill="#000000">fedora&#45;logos&#45;httpd (10.0 kB)</text>
</g>
<!-- gperftools&#45;libs -->
<g id="node4" class="node">
<title>gperftools&#45;libs</title>
<text text-anchor="middle" x="683.84" y="-344.85" font-family="Helvetica,sans-Serif" font-weight="bold" font-size="14.00" fill="#000000">gperftools&#45;libs (2.0 MB)</text>
</g>
<!-- nginx -->
<g id="node5" class="node">
<title>nginx</title>
<text text-anchor="middle" x="368.13" y="-246.39" font-family="Helvetica,sans-Serif" font-weight="bold" font-size="22.00" fill="#cc0066">nginx (1.9 MB)</text>
</g>
<!-- nginx&#45;filesystem -->
<g id="node6" class="node">
<title>nginx&#45;filesystem</title>
<text text-anchor="middle" x="403.96" y="-442.76" font-family="Helvetica,sans-Serif" font-weight="bold" font-size="14.00" fill="#000000">nginx&#45;filesystem (0.0 B)</text>
</g>
<!-- nginx&#45;mimetypes -->
<g id="node7" class="node">
<title>nginx&#45;mimetypes</title>
<text text-anchor="middle" x="200.38" y="-479.06" font-family="Helvetica,sans-Serif" font-weight="bold" font-size="14.00" fill="#000000">nginx&#45;mimetypes (39.3 kB)</text>
</g>
<!-- openssl -->
<g id="node8" class="node">
<title>openssl</title>
<text text-anchor="middle" x="478.57" y="-14.3" font-family="Helvetica,sans-Serif" font-weight="bold" font-size="14.00" fill="#000000">openssl (1.3 MB)</text>
</g>
</g>

<script type="text/javascript"><![CDATA[

document.addEventListener('click', function(e) {
      e = e || window.event;
      var target = e.target || e.srcElement;
      text = target.parentElement.querySelector("title").textContent;

      console.log("Clicked on: " + text);
      // reset all strokes
      var nodes = document.getElementsByClassName("edge");

      for (index = 0, len = nodes.length; index < len; ++index) {
          //var title = nodes[index].querySelector("title").textContent.split("->");
          id = nodes[index].id;
          document.getElementById(id).querySelector("path").setAttribute("stroke-width", "1");
          document.getElementById(id).querySelector("path").setAttribute("stroke-opacity", "0.5");
          document.getElementById(id).querySelector("path").setAttribute("stroke", "#444444");
          document.getElementById(id).querySelector("polygon").setAttribute("stroke-width", "1");
          document.getElementById(id).querySelector("polygon").setAttribute("stroke-opacity", "0.5");
          document.getElementById(id).querySelector("polygon").setAttribute("stroke", "#444444");
      }
      // reset text highlight
      pkgs = document.getElementsByClassName("node");
      for (index2 = 0, len2 = pkgs.length; index2 < len2; ++index2) {
          target_id = pkgs[index2].id;
          document.getElementById(target_id).querySelector("text").setAttribute("font-weight", "normal");
      }

      // highlight deps
      var nodes = document.getElementsByClassName("edge");
      for (index = 0, len = nodes.length; index < len; ++index) {
        var title = nodes[index].querySelector("title").textContent.split("->");

        if (title[0] == text) {
          id = nodes[index].id;
          //console.log("ID:   " + id);
          document.getElementById(id).querySelector("path").setAttribute("stroke-width", "3");
          document.getElementById(id).querySelector("path").setAttribute("stroke-opacity", "1");
          document.getElementById(id).querySelector("path").setAttribute("stroke", "#aa3333");
          document.getElementById(id).querySelector("polygon").setAttribute("stroke-width", "5");
          document.getElementById(id).querySelector("polygon").setAttribute("stroke-opacity", "1");
          document.getElementById(id).querySelector("polygon").setAttribute("stroke", "#aa3333");

        }
        if (title[1] == text) {
          id = nodes[index].id;
          document.getElementById(id).querySelector("path").setAttribute("stroke-width", "3");
          document.getElementById(id).querySelector("path").setAttribute("stroke-opacity", "1");
          document.getElementById(id).querySelector("path").setAttribute("stroke", "#333377");
          document.getElementById(id).querySelector("polygon").setAttribute("stroke-width", "5");
          document.getElementById(id).querySelector("polygon").setAttribute("stroke-opacity", "1");
          document.getElementById(id).querySelector("polygon").setAttribute("stroke", "#333377");
        }

        if (title[0] == text || title[1] == text) {
          pkgs = document.getElementsByClassName("node");
          for (index2 = 0, len2 = pkgs.length; index2 < len2; ++index2) {
            var pkg_name = pkgs[index2].querySelector("title").textContent;
            if (pkg_name == title[0] || pkg_name == title[1]) {
              target_id = pkgs[index2].id;
              document.getElementById(target_id).querySelector("text").setAttribute("font-weight", "bold");
            }
          }
        }
      }


  }, false);

]]></script>

</svg>
