<?xml version="1.0" encoding="UTF-8" standalone="no"?>
<!DOCTYPE svg PUBLIC "-//W3C//DTD SVG 1.1//EN"
 "http://www.w3.org/Graphics/SVG/1.1/DTD/svg11.dtd">
<!-- Generated by graphviz version 2.40.1 (0)
 -->
<!-- Title: packages Pages: 1 -->
<svg width="1669pt" height="1160pt"
 viewBox="0.00 0.00 2003.27 1391.57" xmlns="http://www.w3.org/2000/svg" xmlns:xlink="http://www.w3.org/1999/xlink">
<g id="graph0" class="graph" transform="scale(.8333 .8333) rotate(0) translate(112.0778 1238.5958)">
<title>packages</title>
<polygon fill="#dae2ff" stroke="transparent" points="-112.0778,152.9755 -112.0778,-1238.5958 1891.1904,-1238.5958 1891.1904,152.9755 -112.0778,152.9755"/>
<polygon fill="#bbd7d9" stroke="#bbd7d9" points="1046.8463,-177.9044 956.5934,-237.8522 940.3121,-249.2926 936.3953,-247.5294 929.2608,-244.9144 926.7687,-129.2744 925.5823,-129.2744 922.1754,-132.1116 916.5315,-133.7458 911.5913,-132.309 907.4183,-202.1068 905.8517,-128.8669 905.5213,-128.7679 905.5213,-128.7679 905.8517,-128.8669 907.4183,-202.1068 911.5913,-132.309 916.5315,-133.7458 922.1754,-132.1116 925.5823,-129.2744 926.7687,-129.2744 929.2608,-244.9144 914.9316,-240.0573 907.405,-237.929 895.6401,-235.5779 876.1593,-232.7616 885.4733,-134.3228 808.7454,-146.2979 813.1199,-165.1695 745.4092,-176.2493 736.3394,-173.7167 735.8363,-109.0099 736.1737,-98.5358 723.4369,-96.7515 723.5454,-113.5523 721.1033,-180.0321 717.7164,-180.0321 712.1661,-140.8946 712.0376,-138.7618 705.8387,-175.2818 702.4078,-176.1778 698.9274,-154.4742 695.4358,-179.7413 692.9869,-179.7413 689.3433,-156.0935 685.1745,-179.8048 684.4871,-179.8048 681.8112,-183.6231 676.6343,-186.59 679.686,-237.4355 660.6508,-234.1765 647.9833,-231.3037 639.6913,-228.5206 634.7568,-226.5977 629.2255,-224.144 622.0867,-220.195 617.221,-217.2355 610.3405,-212.6706 605.4449,-209.1572 605.4449,-209.1572 610.3405,-212.6706 617.221,-217.2355 622.0867,-220.195 629.2255,-224.144 634.7568,-226.5977 639.6913,-228.5206 647.9833,-231.3037 660.6508,-234.1765 679.686,-237.4355 676.6343,-186.59 681.8112,-183.6231 684.4871,-179.8048 685.1745,-179.8048 689.3433,-156.0935 692.9869,-179.7413 695.4358,-179.7413 698.9274,-154.4742 702.4078,-176.1778 697.6473,-180.2481 701.4545,-183.4459 701.4545,-183.4459 697.6473,-180.2481 702.4078,-176.1778 705.8387,-175.2818 712.0376,-138.7618 712.1661,-140.8946 717.7164,-180.0321 721.1033,-180.0321 723.5454,-113.5523 723.4369,-96.7515 736.1737,-98.5358 735.8363,-109.0099 736.3394,-173.7167 745.4092,-176.2493 813.1199,-165.1695 808.7454,-146.2979 885.4733,-134.3228 876.1593,-232.7616 864.2881,-231.3789 848.6273,-229.136 832.8231,-225.6125 831.1218,-226.8758 828.9038,-228.3561 813.3245,-237.6434 800.0003,-244.1309 788.1466,-249.035 740.9324,-266.8062 736.6873,-268.561 733.1064,-278.9658 724.9766,-310.7453 722.5401,-322.4724 717.4694,-342.4001 704.2446,-380.8258 706.6645,-382.5553 718.6158,-389.6807 718.4125,-432.8638 715.2164,-481.5348 711.0634,-479.237 705.2673,-479.237 705.2673,-479.237 711.0634,-479.237 715.2164,-481.5348 717.1067,-483.7054 720.0922,-483.7054 723.0515,-522.7752 724.383,-522.3718 724.383,-522.3718 723.0515,-522.7752 720.0922,-483.7054 717.1067,-483.7054 715.2164,-481.5348 718.4125,-432.8638 718.6158,-389.6807 724.2563,-392.6006 733.6006,-397.0756 737.9788,-398.8289 746.1609,-401.79 757.1227,-405.327 794.1412,-415.7841 797.3161,-416.8025 803.9936,-419.2019 804.532,-419.416 812.1214,-422.7311 821.9453,-427.4025 822.9164,-427.9384 838.8162,-437.3463 844.8244,-441.3537 846.7417,-442.7053 851.2747,-446.2596 852.8388,-446.3306 863.4158,-446.019 872.4185,-445.976 923.6311,-441.9137 932.2175,-532.7597 932.7454,-545.4155 933.2971,-551.1807 933.4486,-554.8101 933.3549,-562.7927 885.8129,-560.4218 874.0752,-563.445 868.7906,-560.4041 866.5267,-557.3472 865.124,-557.3472 861.525,-585.4452 857.8119,-557.3022 857.8119,-557.3022 861.525,-585.4452 861.6678,-659.684 856.5157,-659.5894 850.2982,-755.3511 850.2982,-755.3511 856.5157,-659.5894 861.6678,-659.684 861.525,-585.4452 865.124,-557.3472 866.5267,-557.3472 868.7906,-560.4041 874.0752,-563.445 885.8129,-560.4218 933.3549,-562.7927 943.4238,-669.3231 985.7411,-698.6046 1001.0627,-709.6271 1005.9246,-737.4055 1009.6876,-761.77 1017.2037,-796.9268 1046.1794,-814.2296 1063.5637,-834.9916 1157.1458,-951.8629 1167.6665,-963.9977 1145.0726,-1008.4116 1122.4623,-1055.2939 1010.4316,-1126.4552 989.4621,-1140.3027 990.0081,-1016.1491 989.9576,-1015.4073 989.9576,-1015.4073 990.0081,-1016.1491 989.4621,-1140.3027 970.8923,-1153.9052 968.662,-1155.5906 971.2876,-1021.0976 975.0372,-975.8845 980.2343,-972.9069 981.3435,-971.6723 980.3478,-970.5441 974.2342,-966.947 969.9046,-966.947 969.9046,-966.947 974.2342,-966.947 980.3478,-970.5441 981.3435,-971.6723 980.2343,-972.9069 975.0372,-975.8845 969.3032,-975.8845 964.5136,-973.0775 963.094,-1029.2604 958.462,-971.7777 954.8769,-971.7777 954.0615,-971.5342 949.67,-971.5342 948.8973,-970.8729 948.699,-970.5049 950.907,-841.8961 948.8526,-842.8936 851.884,-887.4149 839.6384,-893.6953 831.1488,-898.2734 832.494,-790.9106 836.5181,-761.7319 836.5181,-761.7319 832.494,-790.9106 831.1488,-898.2734 817.3553,-906.436 817.3831,-886.4025 817.3829,-886.3954 817.4622,-829.1937 820.3267,-764.8904 824.1681,-761.5903 819.8972,-758.0645 815.28,-756.816 815.28,-756.816 819.8972,-758.0645 824.1681,-761.5903 820.3267,-764.8904 817.4622,-829.1937 817.3829,-886.3954 817.3831,-886.4025 817.3553,-906.436 831.1488,-898.2734 839.6384,-893.6953 851.884,-887.4149 948.8526,-842.8936 950.907,-841.8961 948.699,-970.5049 948.8973,-970.8729 949.67,-971.5342 954.0615,-971.5342 954.8769,-971.7777 958.462,-971.7777 963.094,-1029.2604 964.5136,-973.0775 969.3032,-975.8845 975.0372,-975.8845 971.2876,-1021.0976 968.662,-1155.5906 966.7142,-1157.1548 966.691,-1157.2258 949.8296,-1172.816 829.7164,-1234.5784 796.7642,-1233.7832 780.2084,-1234.5958 776.6739,-1233.4734 769.1442,-1231.3834 769.7855,-1080.4786 774.8526,-1081.9519 781.1463,-1080.0366 784.3967,-1077.2281 780.7965,-1073.9585 780.7965,-1073.9585 784.3967,-1077.2281 781.1463,-1080.0366 774.8526,-1081.9519 769.7855,-1080.4786 769.1442,-1231.3834 762.0427,-1229.5541 752.0912,-1227.1899 751.4105,-1227.0554 643.3624,-1207.8647 639.7349,-1203.7021 591.4764,-1095.0377 512.8849,-1059.1842 476.9527,-1023.1682 456.726,-996.4739 481.1089,-966.2357 500.7932,-943.8692 505.6856,-938.8678 507.0176,-937.5794 507.1277,-937.4584 521.2751,-923.5654 522.9129,-922.0602 528.0886,-916.9233 585.5917,-863.8261 606.105,-866.5895 612.9825,-866.8779 619.8743,-866.847 622.2719,-866.725 624.4019,-866.9075 624.5896,-931.8339 624.6646,-931.8561 628.6442,-931.8561 630.5748,-934.207 634.5092,-936.4429 634.5092,-936.4429 630.5748,-934.207 628.6442,-931.8561 624.6646,-931.8561 624.5896,-931.8339 624.4019,-866.9075 631.9178,-867.2011 632.2924,-867.1982 637.968,-866.8906 638.9003,-866.7964 641.9658,-866.767 645.5065,-866.8945 651.3829,-866.832 651.4579,-866.8277 660.1982,-867.1246 663.8281,-866.9099 664.8379,-866.9419 672.6192,-866.8278 673.5264,-866.7725 675.8485,-866.7361 685.7106,-867.4766 689.2674,-867.9047 778.2875,-882.6685 775.4876,-876.3799 779.6663,-767.6743 784.6755,-763.4089 783.615,-886.4489 794.0918,-894.2343 794.4218,-831.8604 795.9167,-799.9146 795.9167,-799.9146 794.4218,-831.8604 794.0918,-894.2343 783.615,-886.4489 784.6755,-763.4089 779.6663,-767.6743 775.4876,-876.3799 742.8093,-807.483 737.2507,-790.8671 731.6386,-769.3406 728.5012,-759.9114 726.9067,-755.955 694.8769,-688.4254 688.1382,-673.2711 679.23,-671.2054 667.452,-667.6804 666.9597,-667.5221 648.1293,-660.606 665.8019,-570.9568 742.4846,-562.6954 744.884,-598.3513 748.4318,-558.1227 749.9334,-557.0198 752.1221,-557.0198 758.0677,-634.3392 757.8331,-557.0459 762.7223,-557.0459 763.6119,-596.7722 769.2335,-556.9774 772.207,-556.9774 772.7773,-557.1362 775.5612,-659.3547 780.0786,-659.1964 780.4512,-593.6152 780.4512,-593.6152 780.0786,-659.1964 775.5612,-659.3547 772.7773,-557.1362 772.207,-556.9774 769.2335,-556.9774 763.6119,-596.7722 762.7223,-557.0459 757.8331,-557.0459 758.0677,-634.3392 752.1221,-557.0198 749.9334,-557.0198 748.4318,-558.1227 744.884,-598.3513 742.4846,-562.6954 665.8019,-570.9568 666.5318,-566.2589 659.462,-555.5278 653.0195,-546.5612 640.8259,-527.4113 635.217,-516.9857 624.4184,-492.1403 603.9465,-460.2616 594.3676,-446.9298 581.8485,-426.6518 580.7795,-424.5521 592.6312,-403.2459 594.4688,-400.1712 590.7195,-395.4101 580.8585,-383.5374 560.2334,-361.5042 519.7436,-309.2458 526.6875,-296.0661 526.7528,-295.9226 533.2169,-279.2031 540.8074,-254.8677 554.7572,-224.7894 572.3854,-191.3306 576.026,-183.927 563.709,-147.3027 529.7128,-54.6661 538.1813,-46.4706 569.7399,-25.519 573.9928,-18 609.2392,52.5391 666.1772,123.3166 700.4145,141.9387 718.1019,148.9755 744.4622,140.3798 749.9819,138.6816 765.4606,134.2055 770.8844,132.7394 791.7592,128.2684 815.8699,125.3626 806.2277,-13.1771 802.517,-17.2022 796.5805,32.4517 792.0706,108.6634 790.0609,30.8128 785.9363,-15.9369 781.1917,-13.3051 776.7836,-13.3051 771.6455,-16.1247 770.0489,-17.8927 772.4083,-20.5689 775.7438,-22.3274 781.5237,-22.3274 781.5237,-22.3274 775.7438,-22.3274 772.4083,-20.5689 770.0489,-17.8927 771.6455,-16.1247 776.7836,-13.3051 781.1917,-13.3051 785.9363,-15.9369 790.0609,30.8128 792.0706,108.6634 796.5805,32.4517 802.517,-17.2022 806.2277,-13.1771 815.8699,125.3626 843.83,122.5202 927.7722,76.8328 936.3026,63.9557 949.5587,31.8666 951.6758,27.0383 1058.9335,-34.5543 1092.931,-128.86 1096.2059,-136.4131 1078.0735,-153.5332 1060.0955,-168.6239 1059.6464,-168.9529 1046.8463,-177.9044 1046.8463,-177.9044"/>
<polygon fill="#d8d6da" stroke="#d8d6da" points="62.4751,-139.2765 45.5598,-138.0058 -14.6519,-131.1596 -24.3104,-132.2937 -64.7411,-161.2108 -68.9604,-165.0388 -79.2301,-240.6753 -87.5569,-292.5523 -90.3003,-307.4661 -108.0778,-393.3625 -105.7323,-397.8943 -42.1041,-431.672 -32.9832,-446.3569 -18.7295,-470.3027 4.7132,-511.603 63.5817,-568.4993 126.7956,-596.8548 131.4899,-471.8893 136.3103,-440.4422 139.1924,-440.4422 139.5032,-440.7935 146.0783,-444.7247 150.6594,-444.7247 150.6594,-444.7247 146.0783,-444.7247 139.5032,-440.7935 139.1924,-440.4422 136.3103,-440.4422 131.4899,-471.8893 126.7956,-596.8548 142.5248,-604.6013 160.032,-613.9811 168.7437,-619.2054 171.0265,-638.6298 182.653,-666.98 212.7762,-754.9337 332.1265,-731.3365 345.6874,-729.3129 345.3709,-709.4316 341.7509,-670.9057 344.2489,-667.1675 343.3017,-666.4373 342.1817,-664.5634 342.9144,-596.4055 342.3125,-596.4047 341.1287,-596.4516 331.9317,-596.4292 324.4,-596.7208 324.4439,-584.7592 324.4439,-584.7592 324.4,-596.7208 331.9317,-596.4292 341.1287,-596.4516 342.3125,-596.4047 342.9144,-596.4055 343.6082,-596.3774 347.1251,-596.3788 347.3808,-596.3574 351.886,-596.1652 355.9527,-596.1586 357.6633,-530.534 363.1254,-528.9495 366.9482,-525.78 362.4733,-522.1099 358.0941,-520.9303 358.0941,-520.9303 362.4733,-522.1099 366.9482,-525.78 363.1254,-528.9495 357.6633,-530.534 355.9527,-596.1586 351.886,-596.1652 347.3808,-596.3574 347.1251,-596.3788 343.6082,-596.3774 342.9144,-596.4055 342.1817,-664.5634 343.3017,-666.4373 344.2489,-667.1675 341.7509,-670.9057 345.3709,-709.4316 347.9854,-667.3528 351.8613,-667.3528 357.3067,-728.7059 358.2122,-728.6615 357.7613,-667.0356 359.4069,-667.0356 363.6455,-663.2362 367.8011,-662.0773 367.8011,-662.0773 363.6455,-663.2362 359.4069,-667.0356 363.4042,-670.5734 367.7705,-671.8092 367.7705,-671.8092 363.4042,-670.5734 359.4069,-667.0356 357.7613,-667.0356 358.2122,-728.6615 357.3067,-728.7059 351.8613,-667.3528 347.9854,-667.3528 345.3709,-709.4316 345.6874,-729.3129 332.1265,-731.3365 212.7762,-754.9337 210.9752,-790.64 323.1289,-790.64 323.7917,-790.7007 357.7223,-796.9761 360.4802,-839.0271 360.5617,-893.9329 368.7255,-791.0466 372.4463,-791.0466 373.0733,-790.8657 378.136,-790.8657 378.3884,-853.1667 383.8695,-792.9808 387.6006,-794.9828 387.6006,-794.9828 383.8695,-792.9808 378.3884,-853.1667 378.136,-790.8657 373.0733,-790.8657 372.4463,-791.0466 368.7255,-791.0466 360.5617,-893.9329 360.4802,-839.0271 357.7223,-796.9761 323.7917,-790.7007 323.1289,-790.64 210.9752,-790.64 202.7531,-863.3161 247.9244,-941.6239 268.4859,-959.558 277.4561,-962.3864 358.8772,-960.0932 370.2957,-960.3133 456.726,-996.4739 481.1089,-966.2357 484.7146,-865.4642 484.7146,-865.4642 481.1089,-966.2357 500.7932,-943.8692 505.6856,-938.8678 503.8873,-839.459 498.9314,-837.9858 495.2423,-834.6034 495.2423,-834.6034 498.9314,-837.9858 503.8873,-839.459 505.6856,-938.8678 507.0176,-937.5794 507.1277,-937.4584 521.2751,-923.5654 522.9129,-922.0602 528.0886,-916.9233 585.5917,-863.8261 606.105,-866.5895 612.9825,-866.8779 619.8743,-866.847 622.2719,-866.725 624.4019,-866.9075 631.9178,-867.2011 632.2924,-867.1982 637.968,-866.8906 638.9003,-866.7964 641.9658,-866.767 645.5065,-866.8945 651.3829,-866.832 651.4579,-866.8277 660.1982,-867.1246 663.8281,-866.9099 664.8379,-866.9419 672.6192,-866.8278 673.5264,-866.7725 675.8485,-866.7361 685.7106,-867.4766 689.2674,-867.9047 778.2875,-882.6685 775.4876,-876.3799 742.8093,-807.483 737.2507,-790.8671 731.6386,-769.3406 728.5012,-759.9114 726.9067,-755.955 694.8769,-688.4254 688.1382,-673.2711 679.23,-671.2054 667.452,-667.6804 666.9597,-667.5221 648.1293,-660.606 665.8019,-570.9568 666.5318,-566.2589 659.462,-555.5278 653.0195,-546.5612 640.8259,-527.4113 635.217,-516.9857 624.4184,-492.1403 603.9465,-460.2616 594.3676,-446.9298 581.8485,-426.6518 580.7795,-424.5521 592.6312,-403.2459 594.4688,-400.1712 590.7195,-395.4101 580.8585,-383.5374 560.2334,-361.5042 519.7436,-309.2458 495.9079,-309.3512 492.6158,-309.5198 491.0661,-342.881 491.0661,-342.881 492.6158,-309.5198 495.9079,-309.3512 519.7436,-309.2458 526.6875,-296.0661 526.7528,-295.9226 533.2169,-279.2031 540.8074,-254.8677 554.7572,-224.7894 572.3854,-191.3306 576.026,-183.927 563.709,-147.3027 529.7128,-54.6661 488.6132,-64.2112 483.2705,-65.2881 466.3476,-68.1825 464.636,-68.4226 451.9306,-69.8173 451.737,-242.4389 447.7825,-245.6754 451.9274,-249.3568 450.6369,-286.7166 451.1951,-299.125 451.0692,-309.1863 458.743,-309.5755 456.2566,-368.2028 451.7237,-370.7671 449.9317,-372.8706 451.3235,-374.4332 455.9407,-377.0151 455.9407,-377.0151 451.3235,-374.4332 449.9317,-372.8706 451.7237,-370.7671 456.2566,-368.2028 458.743,-309.5755 451.0692,-309.1863 451.1951,-299.125 450.6369,-286.7166 451.9274,-249.3568 447.7825,-245.6754 451.737,-242.4389 451.9306,-69.8173 446.1836,-70.36 435.1372,-71.0646 430.8984,-71.27 422.4789,-74.1241 425.3398,-192.551 425.3398,-192.551 422.4789,-74.1241 419.6983,-74.9241 269.7004,-186.2753 161.0844,-128.812 132.7062,-134.4981 114.2674,-137.1324 111.7511,-137.3947 104.8416,-137.9821 99.8774,-138.3085 90.1078,-139.2784 90.1631,-147.3877 94.8802,-245.6695 93.292,-274.876 99.8465,-278.6967 100.1715,-279.0451 103.556,-279.0451 103.7835,-279.1082 102.7464,-344.472 109.6607,-279.4352 112.8461,-279.4352 112.8461,-279.4352 109.6607,-279.4352 102.7464,-344.472 103.7835,-279.1082 103.556,-279.0451 100.1715,-279.0451 99.8465,-278.6967 93.292,-274.876 88.4369,-274.876 82.9448,-277.9653 81.7494,-279.2656 83.6644,-281.3872 88.0605,-283.7767 88.0605,-283.7767 83.6644,-281.3872 81.7494,-279.2656 82.9448,-277.9653 88.4369,-274.876 93.292,-274.876 94.8802,-245.6695 90.1631,-147.3877 90.1078,-139.2784 78.0319,-139.541 62.4751,-139.2765 62.4751,-139.2765"/>
<polygon fill="#fed9a6" stroke="#fed9a6" points="797.3161,-416.8025 794.1412,-415.7841 757.1227,-405.327 746.1609,-401.79 737.9788,-398.8289 733.6006,-397.0756 724.2563,-392.6006 718.6158,-389.6807 706.6645,-382.5553 704.2446,-380.8258 717.4694,-342.4001 722.5401,-322.4724 724.9766,-310.7453 733.1064,-278.9658 736.6873,-268.561 740.9324,-266.8062 788.1466,-249.035 800.0003,-244.1309 813.3245,-237.6434 828.9038,-228.3561 831.1218,-226.8758 832.8231,-225.6125 848.6273,-229.136 864.2881,-231.3789 876.1593,-232.7616 895.6401,-235.5779 907.405,-237.929 914.9316,-240.0573 929.2608,-244.9144 936.3953,-247.5294 940.3121,-249.2926 956.5934,-237.8522 1046.8463,-177.9044 1059.6464,-168.9529 1060.0955,-168.6239 1078.0735,-153.5332 1096.2059,-136.4131 1098.0281,-137.2158 1111.5491,-142.0891 1136.3879,-149.5645 1196.3103,-166.3719 1172.8114,-284.7181 1171.5193,-294.4937 1171.522,-297.4872 1170.3588,-315.0701 1154.4269,-395.3075 1123.6721,-406.7008 1119.4993,-408.359 1108.088,-413.5171 1095.1416,-420.0734 1093.6736,-420.8558 1114.9429,-475.2345 1124.2401,-501.9247 1125.2485,-505.2739 1128.7964,-519.2026 1136.9869,-546.0826 1148.9708,-580.2328 1153.2092,-591.069 1058.2111,-657.8292 1054.1228,-660.8613 1033.3102,-678.8501 1032.3821,-679.724 1020.5809,-689.8 1021.1436,-666.1061 1018.3436,-547.3638 1023.8676,-550.7011 1023.8676,-550.7011 1018.3436,-547.3638 1021.1436,-666.1061 1020.5809,-689.8 1012.4627,-697.5965 1011.2319,-600.9099 1011.2319,-600.9099 1012.4627,-697.5965 1004.3359,-705.9984 1001.0627,-709.6271 985.7411,-698.6046 943.4238,-669.3231 933.3549,-562.7927 933.4486,-554.8101 933.2971,-551.1807 932.7454,-545.4155 932.2175,-532.7597 923.6311,-441.9137 872.4185,-445.976 863.4158,-446.019 852.8388,-446.3306 851.2747,-446.2596 846.7417,-442.7053 844.8244,-441.3537 838.8162,-437.3463 822.9164,-427.9384 821.9453,-427.4025 812.1214,-422.7311 813.1236,-335.7824 816.4781,-335.7824 817.0795,-336.4365 817.0795,-336.4365 816.4781,-335.7824 813.1236,-335.7824 812.1214,-422.7311 804.532,-419.416 803.9936,-419.2019 797.3161,-416.8025 797.3161,-416.8025"/>
<polygon fill="#fbb4ae" stroke="#fbb4ae" points="1840.7789,-249.0454 1840.4875,-248.6342 1752.2773,-117.9977 1735.9511,-113.9625 1732.4429,-114.2361 1717.125,-120.8161 1697.8239,-128.7426 1689.7438,-131.9024 1682.5145,-134.4455 1669.0559,-138.9162 1669.0657,-140.1853 1668.908,-155.1701 1662.1869,-286.1928 1657.3374,-288.9231 1655.8656,-290.5894 1656.7367,-291.5866 1662.5175,-295.0279 1662.5175,-295.0279 1656.7367,-291.5866 1655.8656,-290.5894 1652.7122,-290.5894 1652.7122,-290.5894 1655.8656,-290.5894 1657.3374,-288.9231 1662.1869,-286.1928 1668.908,-155.1701 1669.0657,-140.1853 1669.0559,-138.9162 1655.9165,-142.2497 1643.4691,-145.1635 1641.0039,-145.6433 1640.1309,-172.8723 1641.9294,-290.74 1636.5807,-290.74 1636.5671,-290.744 1636.9963,-341.7662 1636.5035,-351.0877 1630.9211,-293.9477 1626.5032,-296.9662 1618.7098,-422.7105 1480.874,-456.639 1479.7787,-468.5182 1477.0404,-494.0198 1475.8982,-506.3483 1406.9508,-533.1272 1325.601,-566.804 1328.3381,-653.3887 1323.0391,-657.5704 1322.0525,-619.5675 1325.2498,-566.9363 1308.2561,-572.1193 1309.1665,-634.6301 1306.0823,-654.8056 1301.8116,-656.0392 1297.7837,-659.7259 1301.2937,-662.9055 1306.6453,-664.5244 1306.6453,-664.5244 1301.2937,-662.9055 1297.7837,-659.7259 1301.8116,-656.0392 1306.0823,-654.8056 1309.1665,-634.6301 1308.2561,-572.1193 1325.2498,-566.9363 1322.0525,-619.5675 1323.0391,-657.5704 1328.3381,-653.3887 1325.601,-566.804 1406.9508,-533.1272 1475.8982,-506.3483 1477.0404,-494.0198 1479.7787,-468.5182 1480.874,-456.639 1618.7098,-422.7105 1626.5032,-296.9662 1630.9211,-293.9477 1636.5035,-351.0877 1636.9963,-341.7662 1636.5671,-290.744 1636.5807,-290.74 1641.9294,-290.74 1640.1309,-172.8723 1641.0039,-145.6433 1622.519,-148.1624 1567.8304,-154.5418 1453.2896,-260.6302 1322.1842,-161.7365 1286.1106,-166.0945 1283.3572,-240.9562 1283.3572,-240.9562 1286.1106,-166.0945 1264.4963,-167.8962 1266.9862,-244.7851 1268.8119,-268.4607 1268.8119,-268.4607 1266.9862,-244.7851 1264.4963,-167.8962 1260.0135,-168.0167 1257.922,-243.7436 1253.5671,-304.5815 1258.9661,-307.6265 1260.592,-309.444 1263.0886,-309.444 1270.5315,-401.831 1259.5939,-402.0783 1255.7179,-401.9336 1252.264,-494.3283 1253.345,-494.6293 1256.9512,-494.6293 1257.5857,-494.8054 1257.7157,-579.3075 1258.3184,-579.2158 1258.3184,-579.2158 1257.7157,-579.3075 1257.5857,-494.8054 1256.9512,-494.6293 1253.345,-494.6293 1252.264,-494.3283 1255.7179,-401.9336 1259.5939,-402.0783 1270.5315,-401.831 1263.0886,-309.444 1260.592,-309.444 1258.9661,-307.6265 1253.5671,-304.5815 1248.7753,-304.5815 1244.8391,-306.6806 1242.4338,-309.4473 1244.2092,-311.362 1248.208,-313.4772 1254.01,-313.4772 1254.01,-313.4772 1248.208,-313.4772 1244.2092,-311.362 1240.9458,-401.8637 1235.6432,-401.8202 1237.7338,-491.1365 1241.6866,-494.3135 1237.2396,-498.2014 1232.798,-499.4459 1232.798,-499.4459 1237.2396,-498.2014 1241.6866,-494.3135 1237.7338,-491.1365 1235.6432,-401.8202 1240.9458,-401.8637 1244.2092,-311.362 1242.4338,-309.4473 1239.8293,-309.4473 1239.1292,-309.247 1234.04,-309.247 1234.0212,-309.2416 1234.0212,-309.2416 1234.04,-309.247 1239.1292,-309.247 1239.8293,-309.4473 1242.4338,-309.4473 1244.8391,-306.6806 1248.7753,-304.5815 1253.5671,-304.5815 1257.922,-243.7436 1260.0135,-168.0167 1252.9583,-167.9413 1234.1598,-167.3867 1232.7405,-167.2383 1214.4689,-164.9814 1211.5068,-165.2542 1196.3103,-166.3719 1172.8114,-284.7181 1171.5193,-294.4937 1171.522,-297.4872 1170.3588,-315.0701 1154.4269,-395.3075 1123.6721,-406.7008 1119.4993,-408.359 1108.088,-413.5171 1095.1416,-420.0734 1093.6736,-420.8558 1114.9429,-475.2345 1124.2401,-501.9247 1125.2485,-505.2739 1128.7964,-519.2026 1136.9869,-546.0826 1148.9708,-580.2328 1153.2092,-591.069 1158.5388,-592.19 1176.9293,-594.9839 1186.269,-595.5776 1187.032,-623.2968 1187.032,-623.2968 1186.269,-595.5776 1176.9293,-594.9839 1158.5388,-592.19 1159.1627,-610.7033 1159.1627,-610.7033 1158.5388,-592.19 1153.2092,-591.069 1058.2111,-657.8292 1054.1228,-660.8613 1033.3102,-678.8501 1032.3821,-679.724 1020.5809,-689.8 1012.4627,-697.5965 1004.3359,-705.9984 1001.0627,-709.6271 1005.9246,-737.4055 1009.6876,-761.77 1017.2037,-796.9268 1046.1794,-814.2296 1063.5637,-834.9916 1157.1458,-951.8629 1167.6665,-963.9977 1203.4304,-957.5304 1204.1449,-957.4139 1215.4742,-955.7672 1225.8312,-954.6302 1246.2721,-953.1135 1247.4158,-953.049 1249.7856,-953 1257.777,-953.1189 1259.9288,-953.1892 1276.1935,-947.8698 1357.0303,-923.0731 1418.4875,-817.6298 1431.7472,-796.87 1432.3588,-793.0242 1468.9354,-739.2634 1516.6764,-659.68 1521.4464,-652.5366 1680.8285,-700.3607 1683.0819,-701.0793 1691.8966,-702.459 1695.8646,-703.2892 1711.1577,-699.4461 1733.595,-695.4365 1732.8989,-663.3118 1729.002,-575.5767 1723.9016,-538.5226 1720.4111,-538.5226 1720.0704,-538.4232 1718.3403,-538.4232 1714.874,-541.4651 1714.874,-541.4651 1718.3403,-538.4232 1714.1544,-534.7143 1709.6447,-533.4399 1709.6447,-533.4399 1714.1544,-534.7143 1718.3403,-538.4232 1720.0704,-538.4232 1720.4111,-538.5226 1723.9016,-538.5226 1729.002,-575.5767 1732.8989,-663.3118 1733.595,-695.4365 1792.7289,-688.1018 1823.2012,-672.9891 1873.8466,-557.5727 1883.5024,-537.9841 1886.8071,-514.019 1887.1904,-509.5666 1880.8064,-498.3229 1827.5996,-399.817 1850.1675,-334.6708 1847.0256,-312.5251 1840.7789,-249.0454 1840.7789,-249.0454"/>
<polyline fill="none" stroke="#000000" points="757.1227,-405.327 746.1609,-401.79 737.9788,-398.8289 733.6006,-397.0756 724.2563,-392.6006 718.6158,-389.6807 706.6645,-382.5553 704.2446,-380.8258 717.4694,-342.4001 722.5401,-322.4724 724.9766,-310.7453 733.1064,-278.9658 736.6873,-268.561 740.9324,-266.8062 788.1466,-249.035 800.0003,-244.1309 813.3245,-237.6434 828.9038,-228.3561 831.1218,-226.8758 832.8231,-225.6125 848.6273,-229.136 864.2881,-231.3789 876.1593,-232.7616 895.6401,-235.5779 907.405,-237.929 914.9316,-240.0573 929.2608,-244.9144 936.3953,-247.5294 940.3121,-249.2926 956.5934,-237.8522 1046.8463,-177.9044 1059.6464,-168.9529 1060.0955,-168.6239 1078.0735,-153.5332 1096.2059,-136.4131 1092.931,-128.86 1058.9335,-34.5543 951.6758,27.0383 949.5587,31.8666 936.3026,63.9557 927.7722,76.8328 843.83,122.5202 815.8699,125.3626 791.7592,128.2684 770.8844,132.7394 765.4606,134.2055 749.9819,138.6816 744.4622,140.3798 718.1019,148.9755 700.4145,141.9387 666.1772,123.3166 609.2392,52.5391 573.9928,-18 569.7399,-25.519 538.1813,-46.4706 529.7128,-54.6661 563.709,-147.3027 576.026,-183.927 572.3854,-191.3306 554.7572,-224.7894 540.8074,-254.8677 533.2169,-279.2031 526.7528,-295.9226 526.6875,-296.0661 519.7436,-309.2458 560.2334,-361.5042 580.8585,-383.5374 590.7195,-395.4101 594.4688,-400.1712 592.6312,-403.2459 580.7795,-424.5521 581.8485,-426.6518 594.3676,-446.9298 603.9465,-460.2616 624.4184,-492.1403 635.217,-516.9857 640.8259,-527.4113 653.0195,-546.5612 659.462,-555.5278 666.5318,-566.2589 665.8019,-570.9568 648.1293,-660.606 666.9597,-667.5221 667.452,-667.6804 679.23,-671.2054 688.1382,-673.2711 694.8769,-688.4254 726.9067,-755.955 728.5012,-759.9114 731.6386,-769.3406 737.2507,-790.8671 742.8093,-807.483 775.4876,-876.3799 778.2875,-882.6685 689.2674,-867.9047 685.7106,-867.4766 675.8485,-866.7361 673.5264,-866.7725 672.6192,-866.8278 664.8379,-866.9419 663.8281,-866.9099 660.1982,-867.1246 651.4579,-866.8277 651.3829,-866.832 645.5065,-866.8945 641.9658,-866.767 638.9003,-866.7964 637.968,-866.8906 632.2924,-867.1982 631.9178,-867.2011 624.4019,-866.9075 622.2719,-866.725 619.8743,-866.847 612.9825,-866.8779 606.105,-866.5895 585.5917,-863.8261 528.0886,-916.9233 522.9129,-922.0602 521.2751,-923.5654 507.1277,-937.4584 507.0176,-937.5794 505.6856,-938.8678 500.7932,-943.8692 481.1089,-966.2357 456.726,-996.4739 476.9527,-1023.1682 512.8849,-1059.1842 591.4764,-1095.0377 639.7349,-1203.7021 643.3624,-1207.8647 751.4105,-1227.0554 752.0912,-1227.1899 762.0427,-1229.5541 769.1442,-1231.3834 776.6739,-1233.4734 780.2084,-1234.5958 796.7642,-1233.7832 829.7164,-1234.5784 949.8296,-1172.816 966.691,-1157.2258 966.7142,-1157.1548 968.662,-1155.5906 970.8923,-1153.9052 989.4621,-1140.3027 1010.4316,-1126.4552 1122.4623,-1055.2939 1145.0726,-1008.4116 1167.6665,-963.9977 1157.1458,-951.8629 1063.5637,-834.9916 1046.1794,-814.2296 1017.2037,-796.9268 1009.6876,-761.77 1005.9246,-737.4055 1001.0627,-709.6271 985.7411,-698.6046 943.4238,-669.3231 933.3549,-562.7927 933.4486,-554.8101 933.2971,-551.1807 932.7454,-545.4155 932.2175,-532.7597 923.6311,-441.9137 872.4185,-445.976 863.4158,-446.019 852.8388,-446.3306 851.2747,-446.2596 846.7417,-442.7053 844.8244,-441.3537 838.8162,-437.3463 822.9164,-427.9384 821.9453,-427.4025 812.1214,-422.7311 804.532,-419.416 803.9936,-419.2019 797.3161,-416.8025 794.1412,-415.7841 757.1227,-405.327 "/>
<polyline fill="none" stroke="#000000" points="580.7795,-424.5521 592.6312,-403.2459 594.4688,-400.1712 590.7195,-395.4101 580.8585,-383.5374 560.2334,-361.5042 519.7436,-309.2458 526.6875,-296.0661 526.7528,-295.9226 533.2169,-279.2031 540.8074,-254.8677 554.7572,-224.7894 572.3854,-191.3306 576.026,-183.927 563.709,-147.3027 529.7128,-54.6661 488.6132,-64.2112 483.2705,-65.2881 466.3476,-68.1825 464.636,-68.4226 451.9306,-69.8173 446.1836,-70.36 435.1372,-71.0646 430.8984,-71.27 422.4789,-74.1241 419.6983,-74.9241 269.7004,-186.2753 161.0844,-128.812 132.7062,-134.4981 114.2674,-137.1324 111.7511,-137.3947 104.8416,-137.9821 99.8774,-138.3085 90.1078,-139.2784 78.0319,-139.541 62.4751,-139.2765 45.5598,-138.0058 -14.6519,-131.1596 -24.3104,-132.2937 -64.7411,-161.2108 -68.9604,-165.0388 -79.2301,-240.6753 -87.5569,-292.5523 -90.3003,-307.4661 -108.0778,-393.3625 -105.7323,-397.8943 -42.1041,-431.672 -32.9832,-446.3569 -18.7295,-470.3027 4.7132,-511.603 63.5817,-568.4993 126.7956,-596.8548 142.5248,-604.6013 160.032,-613.9811 168.7437,-619.2054 171.0265,-638.6298 182.653,-666.98 212.7762,-754.9337 210.9752,-790.64 202.7531,-863.3161 247.9244,-941.6239 268.4859,-959.558 277.4561,-962.3864 358.8772,-960.0932 370.2957,-960.3133 456.726,-996.4739 481.1089,-966.2357 500.7932,-943.8692 505.6856,-938.8678 507.0176,-937.5794 507.1277,-937.4584 521.2751,-923.5654 522.9129,-922.0602 528.0886,-916.9233 585.5917,-863.8261 606.105,-866.5895 612.9825,-866.8779 619.8743,-866.847 622.2719,-866.725 624.4019,-866.9075 631.9178,-867.2011 632.2924,-867.1982 637.968,-866.8906 638.9003,-866.7964 641.9658,-866.767 645.5065,-866.8945 651.3829,-866.832 651.4579,-866.8277 660.1982,-867.1246 663.8281,-866.9099 664.8379,-866.9419 672.6192,-866.8278 673.5264,-866.7725 675.8485,-866.7361 685.7106,-867.4766 689.2674,-867.9047 778.2875,-882.6685 775.4876,-876.3799 742.8093,-807.483 737.2507,-790.8671 731.6386,-769.3406 728.5012,-759.9114 726.9067,-755.955 694.8769,-688.4254 688.1382,-673.2711 679.23,-671.2054 667.452,-667.6804 666.9597,-667.5221 648.1293,-660.606 665.8019,-570.9568 666.5318,-566.2589 659.462,-555.5278 653.0195,-546.5612 640.8259,-527.4113 635.217,-516.9857 624.4184,-492.1403 603.9465,-460.2616 594.3676,-446.9298 581.8485,-426.6518 580.7795,-424.5521 "/>
<polyline fill="none" stroke="#000000" points="1093.6736,-420.8558 1114.9429,-475.2345 1124.2401,-501.9247 1125.2485,-505.2739 1128.7964,-519.2026 1136.9869,-546.0826 1148.9708,-580.2328 1153.2092,-591.069 1058.2111,-657.8292 1054.1228,-660.8613 1033.3102,-678.8501 1032.3821,-679.724 1020.5809,-689.8 1012.4627,-697.5965 1004.3359,-705.9984 1001.0627,-709.6271 985.7411,-698.6046 943.4238,-669.3231 933.3549,-562.7927 933.4486,-554.8101 933.2971,-551.1807 932.7454,-545.4155 932.2175,-532.7597 923.6311,-441.9137 872.4185,-445.976 863.4158,-446.019 852.8388,-446.3306 851.2747,-446.2596 846.7417,-442.7053 844.8244,-441.3537 838.8162,-437.3463 822.9164,-427.9384 821.9453,-427.4025 812.1214,-422.7311 804.532,-419.416 803.9936,-419.2019 797.3161,-416.8025 794.1412,-415.7841 757.1227,-405.327 746.1609,-401.79 737.9788,-398.8289 733.6006,-397.0756 724.2563,-392.6006 718.6158,-389.6807 706.6645,-382.5553 704.2446,-380.8258 717.4694,-342.4001 722.5401,-322.4724 724.9766,-310.7453 733.1064,-278.9658 736.6873,-268.561 740.9324,-266.8062 788.1466,-249.035 800.0003,-244.1309 813.3245,-237.6434 828.9038,-228.3561 831.1218,-226.8758 832.8231,-225.6125 848.6273,-229.136 864.2881,-231.3789 876.1593,-232.7616 895.6401,-235.5779 907.405,-237.929 914.9316,-240.0573 929.2608,-244.9144 936.3953,-247.5294 940.3121,-249.2926 956.5934,-237.8522 1046.8463,-177.9044 1059.6464,-168.9529 1060.0955,-168.6239 1078.0735,-153.5332 1096.2059,-136.4131 1098.0281,-137.2158 1111.5491,-142.0891 1136.3879,-149.5645 1196.3103,-166.3719 1172.8114,-284.7181 1171.5193,-294.4937 1171.522,-297.4872 1170.3588,-315.0701 1154.4269,-395.3075 1123.6721,-406.7008 1119.4993,-408.359 1108.088,-413.5171 1095.1416,-420.0734 1093.6736,-420.8558 "/>
<polyline fill="none" stroke="#000000" points="1225.8312,-954.6302 1215.4742,-955.7672 1204.1449,-957.4139 1203.4304,-957.5304 1167.6665,-963.9977 1157.1458,-951.8629 1063.5637,-834.9916 1046.1794,-814.2296 1017.2037,-796.9268 1009.6876,-761.77 1005.9246,-737.4055 1001.0627,-709.6271 1004.3359,-705.9984 1012.4627,-697.5965 1020.5809,-689.8 1032.3821,-679.724 1033.3102,-678.8501 1054.1228,-660.8613 1058.2111,-657.8292 1153.2092,-591.069 1148.9708,-580.2328 1136.9869,-546.0826 1128.7964,-519.2026 1125.2485,-505.2739 1124.2401,-501.9247 1114.9429,-475.2345 1093.6736,-420.8558 1095.1416,-420.0734 1108.088,-413.5171 1119.4993,-408.359 1123.6721,-406.7008 1154.4269,-395.3075 1170.3588,-315.0701 1171.522,-297.4872 1171.5193,-294.4937 1172.8114,-284.7181 1196.3103,-166.3719 1211.5068,-165.2542 1214.4689,-164.9814 1232.7405,-167.2383 1234.1598,-167.3867 1252.9583,-167.9413 1260.0135,-168.0167 1264.4963,-167.8962 1286.1106,-166.0945 1322.1842,-161.7365 1453.2896,-260.6302 1567.8304,-154.5418 1622.519,-148.1624 1641.0039,-145.6433 1643.4691,-145.1635 1655.9165,-142.2497 1669.0559,-138.9162 1682.5145,-134.4455 1689.7438,-131.9024 1697.8239,-128.7426 1717.125,-120.8161 1732.4429,-114.2361 1735.9511,-113.9625 1752.2773,-117.9977 1840.4875,-248.6342 1840.7789,-249.0454 1847.0256,-312.5251 1850.1675,-334.6708 1827.5996,-399.817 1880.8064,-498.3229 1887.1904,-509.5666 1886.8071,-514.019 1883.5024,-537.9841 1873.8466,-557.5727 1823.2012,-672.9891 1792.7289,-688.1018 1733.595,-695.4365 1711.1577,-699.4461 1695.8646,-703.2892 1691.8966,-702.459 1683.0819,-701.0793 1680.8285,-700.3607 1521.4464,-652.5366 1516.6764,-659.68 1468.9354,-739.2634 1432.3588,-793.0242 1431.7472,-796.87 1418.4875,-817.6298 1357.0303,-923.0731 1276.1935,-947.8698 1259.9288,-953.1892 1257.777,-953.1189 1249.7856,-953 1247.4158,-953.049 1246.2721,-953.1135 1225.8312,-954.6302 "/>
<!-- device&#45;mapper&#45;libs&#45;&gt;Fedora Container Base -->
<g id="edge1" class="edge">
<title>device&#45;mapper&#45;libs&#45;&gt;Fedora Container Base</title>
<path fill="none" stroke="#444444" stroke-opacity="0.333333" d="M732.8581,-501.7163C745.7406,-511.1395 761.6508,-522.7772 775.5432,-532.939"/>
<polygon fill="#444444" fill-opacity="0.333333" stroke="#444444" stroke-opacity="0.333333" points="773.7497,-535.9635 783.8873,-539.0424 777.8824,-530.3136 773.7497,-535.9635"/>
</g>
<!-- device&#45;mapper&#45;libs&#45;&gt;device&#45;mapper -->
<g id="edge2" class="edge">
<title>device&#45;mapper&#45;libs&#45;&gt;device&#45;mapper</title>
<path fill="none" stroke="#444444" stroke-opacity="0.333333" d="M704.0311,-465.4086C691.858,-431.2014 657.9896,-357.2084 636.5453,-317.162"/>
<polygon fill="#444444" fill-opacity="0.333333" stroke="#444444" stroke-opacity="0.333333" points="639.5212,-315.3093 631.6449,-308.223 633.383,-318.6744 639.5212,-315.3093"/>
</g>
<!-- device&#45;mapper&#45;&gt;Fedora Container Base -->
<g id="edge19" class="edge">
<title>device&#45;mapper&#45;&gt;Fedora Container Base</title>
<path fill="none" stroke="#444444" stroke-opacity="0.333333" d="M631.5998,-308.4996C664.5346,-354.7845 751.128,-476.4786 789.5657,-530.4971"/>
<polygon fill="#444444" fill-opacity="0.333333" stroke="#444444" stroke-opacity="0.333333" points="786.8704,-532.7462 795.5199,-538.8649 792.5739,-528.6878 786.8704,-532.7462"/>
</g>
<!-- device&#45;mapper&#45;&gt;device&#45;mapper&#45;libs -->
<g id="edge20" class="edge">
<title>device&#45;mapper&#45;&gt;device&#45;mapper&#45;libs</title>
<path fill="none" stroke="#444444" stroke-opacity="0.333333" d="M622.5689,-308.3214C634.742,-342.5286 668.6104,-416.5216 690.0547,-456.568"/>
<polygon fill="#444444" fill-opacity="0.333333" stroke="#444444" stroke-opacity="0.333333" points="687.0788,-458.4207 694.9551,-465.507 693.217,-455.0556 687.0788,-458.4207"/>
</g>
<!-- device&#45;mapper&#45;&gt;systemd -->
<g id="edge21" class="edge">
<title>device&#45;mapper&#45;&gt;systemd</title>
<path fill="none" stroke="#444444" stroke-opacity="0.333333" d="M614.6781,-308.5148C605.9147,-350.0579 584.5133,-451.5119 574.0689,-501.024"/>
<polygon fill="#444444" fill-opacity="0.333333" stroke="#444444" stroke-opacity="0.333333" points="570.5956,-500.5327 571.9561,-511.0398 577.4448,-501.9776 570.5956,-500.5327"/>
</g>
<!-- device&#45;mapper&#45;&gt;util&#45;linux -->
<g id="edge22" class="edge">
<title>device&#45;mapper&#45;&gt;util&#45;linux</title>
<path fill="none" stroke="#444444" stroke-opacity="0.333333" d="M633.0814,-271.9974C647.412,-254.0858 669.461,-226.5271 685.6668,-206.2716"/>
<polygon fill="#444444" fill-opacity="0.333333" stroke="#444444" stroke-opacity="0.333333" points="688.4826,-208.3546 691.997,-198.3596 683.0167,-203.9815 688.4826,-208.3546"/>
</g>
<!-- libargon2&#45;&gt;Fedora Container Base -->
<g id="edge3" class="edge">
<title>libargon2&#45;&gt;Fedora Container Base</title>
<path fill="none" stroke="#444444" stroke-opacity="0.333333" d="M964.9421,-953.5081C939.1512,-888.1746 850.6695,-664.0321 819.4355,-584.9098"/>
<polygon fill="#444444" fill-opacity="0.333333" stroke="#444444" stroke-opacity="0.333333" points="822.5129,-583.1734 815.5855,-575.1571 816.0019,-585.7437 822.5129,-583.1734"/>
</g>
<!-- systemd&#45;&gt;Fedora Container Base -->
<g id="edge4" class="edge">
<title>systemd&#45;&gt;Fedora Container Base</title>
<path fill="none" stroke="#444444" stroke-opacity="0.333333" d="M629.7035,-536.2659C649.8089,-538.5963 672.8121,-541.2627 695.4726,-543.8893"/>
<polygon fill="#444444" fill-opacity="0.333333" stroke="#444444" stroke-opacity="0.333333" points="695.1631,-547.3768 705.4996,-545.0515 695.9692,-540.4233 695.1631,-547.3768"/>
</g>
<!-- systemd&#45;&gt;util&#45;linux -->
<g id="edge5" class="edge">
<title>systemd&#45;&gt;util&#45;linux</title>
<path fill="none" stroke="#444444" stroke-opacity="0.333333" d="M575.3866,-510.8597C598.1366,-453.5024 668.24,-276.7574 695.524,-207.9689"/>
<polygon fill="#444444" fill-opacity="0.333333" stroke="#444444" stroke-opacity="0.333333" points="698.9415,-208.8454 699.3751,-198.2594 692.4347,-206.2645 698.9415,-208.8454"/>
</g>
<!-- systemd&#45;&gt;shadow&#45;utils -->
<g id="edge6" class="edge">
<title>systemd&#45;&gt;shadow&#45;utils</title>
<path fill="none" stroke="#444444" stroke-opacity="0.333333" d="M592.3537,-510.9213C638.9399,-475.8884 741.0496,-399.1018 793.3115,-359.8008"/>
<polygon fill="#444444" fill-opacity="0.333333" stroke="#444444" stroke-opacity="0.333333" points="795.6694,-362.4069 801.5582,-353.5993 791.4622,-356.8123 795.6694,-362.4069"/>
</g>
<!-- systemd&#45;&gt;cryptsetup&#45;libs -->
<g id="edge7" class="edge">
<title>systemd&#45;&gt;cryptsetup&#45;libs</title>
<path fill="none" stroke="#444444" stroke-opacity="0.333333" d="M587.5115,-547.3849C631.3166,-588.665 738.0687,-689.2637 788.1891,-736.4951"/>
<polygon fill="#444444" fill-opacity="0.333333" stroke="#444444" stroke-opacity="0.333333" points="786.0504,-739.2889 795.7285,-743.5999 790.8512,-734.1945 786.0504,-739.2889"/>
</g>
<!-- systemd&#45;&gt;iptables&#45;libs -->
<g id="edge8" class="edge">
<title>systemd&#45;&gt;iptables&#45;libs</title>
<path fill="none" stroke="#444444" stroke-opacity="0.333333" d="M571.2595,-547.229C582.2772,-611.1524 619.416,-826.6285 632.7681,-904.096"/>
<polygon fill="#444444" fill-opacity="0.333333" stroke="#444444" stroke-opacity="0.333333" points="629.3414,-904.8207 634.4891,-914.0809 636.2396,-903.6317 629.3414,-904.8207"/>
</g>
<!-- systemd&#45;&gt;libseccomp -->
<g id="edge9" class="edge">
<title>systemd&#45;&gt;libseccomp</title>
<path fill="none" stroke="#444444" stroke-opacity="0.333333" d="M555.6733,-547.5189C524.827,-593.0184 444.8361,-711.0084 408.8527,-764.0853"/>
<polygon fill="#444444" fill-opacity="0.333333" stroke="#444444" stroke-opacity="0.333333" points="405.782,-762.3774 403.0675,-772.6186 411.5761,-766.3055 405.782,-762.3774"/>
</g>
<!-- systemd&#45;&gt;systemd&#45;pam -->
<g id="edge10" class="edge">
<title>systemd&#45;&gt;systemd&#45;pam</title>
<path fill="none" stroke="#444444" stroke-opacity="0.333333" d="M506.4792,-521.9543C487.6956,-521.1654 466.6615,-520.68 446.4534,-520.5465"/>
<polygon fill="#444444" fill-opacity="0.333333" stroke="#444444" stroke-opacity="0.333333" points="446.3094,-517.046 436.2966,-520.5091 446.2836,-524.046 446.3094,-517.046"/>
</g>
<!-- systemd&#45;&gt;systemd&#45;rpm&#45;macros -->
<g id="edge11" class="edge">
<title>systemd&#45;&gt;systemd&#45;rpm&#45;macros</title>
<path fill="none" stroke="#444444" stroke-opacity="0.333333" d="M533.4409,-510.9652C448.1426,-466.3121 228.3532,-351.2536 134.5148,-302.1297"/>
<polygon fill="#444444" fill-opacity="0.333333" stroke="#444444" stroke-opacity="0.333333" points="136.0518,-298.9838 125.569,-297.4467 132.8052,-305.1854 136.0518,-298.9838"/>
</g>
<!-- systemd&#45;&gt;acl -->
<g id="edge12" class="edge">
<title>systemd&#45;&gt;acl</title>
<path fill="none" stroke="#444444" stroke-opacity="0.333333" d="M564.3175,-547.3267C553.5267,-598.6947 522.7761,-745.0786 509.8243,-806.7337"/>
<polygon fill="#444444" fill-opacity="0.333333" stroke="#444444" stroke-opacity="0.333333" points="506.3932,-806.0427 507.7625,-816.5486 513.2436,-807.4818 506.3932,-806.0427"/>
</g>
<!-- systemd&#45;&gt;dbus -->
<g id="edge13" class="edge">
<title>systemd&#45;&gt;dbus</title>
<path fill="none" stroke="#444444" stroke-opacity="0.333333" d="M506.6391,-516.0757C424.0222,-498.5394 278.612,-467.6744 200.8404,-451.1665"/>
<polygon fill="#444444" fill-opacity="0.333333" stroke="#444444" stroke-opacity="0.333333" points="201.2947,-447.685 190.7858,-449.0323 199.8412,-454.5325 201.2947,-447.685"/>
</g>
<!-- systemd&#45;&gt;kmod&#45;libs -->
<g id="edge14" class="edge">
<title>systemd&#45;&gt;kmod&#45;libs</title>
<path fill="none" stroke="#444444" stroke-opacity="0.333333" d="M542.0026,-547.1515C506.3803,-571.7128 442.4983,-615.7588 402.8991,-643.0622"/>
<polygon fill="#444444" fill-opacity="0.333333" stroke="#444444" stroke-opacity="0.333333" points="400.5998,-640.3962 394.3538,-648.9541 404.5733,-646.1591 400.5998,-640.3962"/>
</g>
<!-- systemd&#45;&gt;qrencode&#45;libs -->
<g id="edge15" class="edge">
<title>systemd&#45;&gt;qrencode&#45;libs</title>
<path fill="none" stroke="#444444" stroke-opacity="0.333333" d="M573.9397,-547.44C588.7486,-594.1922 628.0299,-718.2045 645.682,-773.9327"/>
<polygon fill="#444444" fill-opacity="0.333333" stroke="#444444" stroke-opacity="0.333333" points="642.3591,-775.0334 648.7155,-783.5097 649.0324,-772.9196 642.3591,-775.0334"/>
</g>
<!-- util&#45;linux&#45;&gt;Fedora Container Base -->
<g id="edge16" class="edge">
<title>util&#45;linux&#45;&gt;Fedora Container Base</title>
<path fill="none" stroke="#444444" stroke-opacity="0.333333" d="M711.4629,-198.3443C727.9016,-259.156 781.059,-455.8008 800.8732,-529.0993"/>
<polygon fill="#444444" fill-opacity="0.333333" stroke="#444444" stroke-opacity="0.333333" points="797.558,-530.2479 803.5464,-538.988 804.3155,-528.4211 797.558,-530.2479"/>
</g>
<!-- util&#45;linux&#45;&gt;libfdisk -->
<g id="edge17" class="edge">
<title>util&#45;linux&#45;&gt;libfdisk</title>
<path fill="none" stroke="#444444" stroke-opacity="0.333333" d="M714.7235,-161.8823C727.3932,-133.5345 751.8553,-78.802 766.6855,-45.62"/>
<polygon fill="#444444" fill-opacity="0.333333" stroke="#444444" stroke-opacity="0.333333" points="769.8901,-47.0275 770.7752,-36.4697 763.4994,-44.1712 769.8901,-47.0275"/>
</g>
<!-- util&#45;linux&#45;&gt;libutempter -->
<g id="edge18" class="edge">
<title>util&#45;linux&#45;&gt;libutempter</title>
<path fill="none" stroke="#444444" stroke-opacity="0.333333" d="M771.255,-164.3566C792.5607,-159.1497 816.4748,-153.3053 838.6542,-147.8849"/>
<polygon fill="#444444" fill-opacity="0.333333" stroke="#444444" stroke-opacity="0.333333" points="839.4895,-151.2838 848.3726,-145.5097 837.8276,-144.4839 839.4895,-151.2838"/>
</g>
<!-- shadow&#45;utils&#45;&gt;Fedora Container Base -->
<g id="edge33" class="edge">
<title>shadow&#45;utils&#45;&gt;Fedora Container Base</title>
<path fill="none" stroke="#444444" stroke-opacity="0.333333" d="M824.1198,-353.6981C821.1421,-392.2289 814.1623,-482.5464 810.5941,-528.7181"/>
<polygon fill="#444444" fill-opacity="0.333333" stroke="#444444" stroke-opacity="0.333333" points="807.0865,-528.6821 809.8055,-538.9221 814.0657,-529.2215 807.0865,-528.6821"/>
</g>
<!-- shadow&#45;utils&#45;&gt;libsemanage -->
<g id="edge34" class="edge">
<title>shadow&#45;utils&#45;&gt;libsemanage</title>
<path fill="none" stroke="#444444" stroke-opacity="0.333333" d="M842.9954,-353.9114C878.9246,-391.6006 961.1487,-477.8524 1002.1815,-520.8952"/>
<polygon fill="#444444" fill-opacity="0.333333" stroke="#444444" stroke-opacity="0.333333" points="999.6747,-523.338 1009.1081,-528.161 1004.7413,-518.5079 999.6747,-523.338"/>
</g>
<!-- cryptsetup&#45;libs&#45;&gt;Fedora Container Base -->
<g id="edge37" class="edge">
<title>cryptsetup&#45;libs&#45;&gt;Fedora Container Base</title>
<path fill="none" stroke="#444444" stroke-opacity="0.333333" d="M814.4243,-743.5963C813.2697,-707.77 810.6927,-627.8088 809.3167,-585.1149"/>
<polygon fill="#444444" fill-opacity="0.333333" stroke="#444444" stroke-opacity="0.333333" points="812.8148,-584.9951 808.9944,-575.113 805.8184,-585.2206 812.8148,-584.9951"/>
</g>
<!-- cryptsetup&#45;libs&#45;&gt;device&#45;mapper&#45;libs -->
<g id="edge38" class="edge">
<title>cryptsetup&#45;libs&#45;&gt;device&#45;mapper&#45;libs</title>
<path fill="none" stroke="#444444" stroke-opacity="0.333333" d="M807.9921,-743.5165C789.7093,-695.9635 740.523,-568.0313 718.7135,-511.3055"/>
<polygon fill="#444444" fill-opacity="0.333333" stroke="#444444" stroke-opacity="0.333333" points="721.9493,-509.9686 715.0938,-501.8907 715.4156,-512.4806 721.9493,-509.9686"/>
</g>
<!-- cryptsetup&#45;libs&#45;&gt;libargon2 -->
<g id="edge39" class="edge">
<title>cryptsetup&#45;libs&#45;&gt;libargon2</title>
<path fill="none" stroke="#444444" stroke-opacity="0.333333" d="M828.6742,-780.0231C856.5931,-817.3182 920.2621,-902.3697 952.5418,-945.4901"/>
<polygon fill="#444444" fill-opacity="0.333333" stroke="#444444" stroke-opacity="0.333333" points="949.7645,-947.6206 958.5593,-953.5285 955.3683,-943.4256 949.7645,-947.6206"/>
</g>
<!-- iptables&#45;libs&#45;&gt;Fedora Container Base -->
<g id="edge40" class="edge">
<title>iptables&#45;libs&#45;&gt;Fedora Container Base</title>
<path fill="none" stroke="#444444" stroke-opacity="0.333333" d="M645.8385,-914.0357C673.3976,-853.5077 762.4986,-657.8152 795.7456,-584.7947"/>
<polygon fill="#444444" fill-opacity="0.333333" stroke="#444444" stroke-opacity="0.333333" points="799.0955,-585.8836 800.054,-575.3322 792.7248,-582.9829 799.0955,-585.8836"/>
</g>
<!-- iptables&#45;libs&#45;&gt;libpcap -->
<g id="edge41" class="edge">
<title>iptables&#45;libs&#45;&gt;libpcap</title>
<path fill="none" stroke="#444444" stroke-opacity="0.333333" d="M654.7452,-950.185C678.9447,-975.6686 723.24,-1022.3144 750.8368,-1051.3755"/>
<polygon fill="#444444" fill-opacity="0.333333" stroke="#444444" stroke-opacity="0.333333" points="748.3847,-1053.8762 757.8087,-1058.7175 753.4607,-1049.0559 748.3847,-1053.8762"/>
</g>
<!-- libseccomp&#45;&gt;Fedora Container Base -->
<g id="edge42" class="edge">
<title>libseccomp&#45;&gt;Fedora Container Base</title>
<path fill="none" stroke="#444444" stroke-opacity="0.333333" d="M423.2678,-772.4995C498.6224,-730.3323 685.4345,-625.7952 768.0317,-579.5751"/>
<polygon fill="#444444" fill-opacity="0.333333" stroke="#444444" stroke-opacity="0.333333" points="769.8526,-582.5669 776.87,-574.6293 766.4343,-576.4583 769.8526,-582.5669"/>
</g>
<!-- systemd&#45;pam&#45;&gt;Fedora Container Base -->
<g id="edge43" class="edge">
<title>systemd&#45;pam&#45;&gt;Fedora Container Base</title>
<path fill="none" stroke="#444444" stroke-opacity="0.333333" d="M436.0921,-531.2559C502.3695,-535.8351 598.6527,-542.4875 676.7014,-547.88"/>
<polygon fill="#444444" fill-opacity="0.333333" stroke="#444444" stroke-opacity="0.333333" points="676.8819,-551.4008 687.0994,-548.5984 677.3645,-544.4174 676.8819,-551.4008"/>
</g>
<!-- systemd&#45;pam&#45;&gt;systemd -->
<g id="edge44" class="edge">
<title>systemd&#45;pam&#45;&gt;systemd</title>
<path fill="none" stroke="#444444" stroke-opacity="0.333333" d="M436.169,-533.6178C455.8701,-534.2213 476.9054,-534.5114 496.2604,-534.4408"/>
<polygon fill="#444444" fill-opacity="0.333333" stroke="#444444" stroke-opacity="0.333333" points="496.541,-537.939 506.5157,-534.3676 496.4909,-530.9392 496.541,-537.939"/>
</g>
<!-- acl&#45;&gt;Fedora Container Base -->
<g id="edge45" class="edge">
<title>acl&#45;&gt;Fedora Container Base</title>
<path fill="none" stroke="#444444" stroke-opacity="0.333333" d="M523.9358,-816.4313C576.8566,-768.1656 720.7437,-636.935 781.1419,-581.8496"/>
<polygon fill="#444444" fill-opacity="0.333333" stroke="#444444" stroke-opacity="0.333333" points="783.7264,-584.2295 788.7564,-574.9048 779.0093,-579.0575 783.7264,-584.2295"/>
</g>
<!-- dbus&#45;&gt;dbus&#45;broker -->
<g id="edge46" class="edge">
<title>dbus&#45;&gt;dbus&#45;broker</title>
<path fill="none" stroke="#444444" stroke-opacity="0.333333" d="M190.8383,-430.7879C238.2347,-420.5173 316.0181,-403.6621 375.6453,-390.7412"/>
<polygon fill="#444444" fill-opacity="0.333333" stroke="#444444" stroke-opacity="0.333333" points="376.3946,-394.1601 385.4265,-388.6216 374.9121,-387.3189 376.3946,-394.1601"/>
</g>
<!-- kmod&#45;libs&#45;&gt;Fedora Container Base -->
<g id="edge47" class="edge">
<title>kmod&#45;libs&#45;&gt;Fedora Container Base</title>
<path fill="none" stroke="#444444" stroke-opacity="0.333333" d="M436.0265,-650.0336C516.7916,-629.8515 651.2149,-596.2609 734.5509,-575.4364"/>
<polygon fill="#444444" fill-opacity="0.333333" stroke="#444444" stroke-opacity="0.333333" points="735.6004,-578.7818 744.4535,-572.9618 733.9033,-571.9907 735.6004,-578.7818"/>
</g>
<!-- qrencode&#45;libs&#45;&gt;Fedora Container Base -->
<g id="edge48" class="edge">
<title>qrencode&#45;libs&#45;&gt;Fedora Container Base</title>
<path fill="none" stroke="#444444" stroke-opacity="0.333333" d="M666.059,-783.3432C693.0441,-740.4322 760.2421,-633.5755 791.6873,-583.572"/>
<polygon fill="#444444" fill-opacity="0.333333" stroke="#444444" stroke-opacity="0.333333" points="794.7644,-585.2536 797.125,-574.9251 788.8387,-581.5271 794.7644,-585.2536"/>
</g>
<!-- libfdisk&#45;&gt;Fedora Container Base -->
<g id="edge49" class="edge">
<title>libfdisk&#45;&gt;Fedora Container Base</title>
<path fill="none" stroke="#444444" stroke-opacity="0.333333" d="M780.0244,-36.2417C784.3532,-115.6539 801.5742,-431.5771 806.8594,-528.5345"/>
<polygon fill="#444444" fill-opacity="0.333333" stroke="#444444" stroke-opacity="0.333333" points="803.3767,-528.9482 807.4159,-538.7429 810.3663,-528.5672 803.3767,-528.9482"/>
</g>
<!-- libutempter&#45;&gt;Fedora Container Base -->
<g id="edge50" class="edge">
<title>libutempter&#45;&gt;Fedora Container Base</title>
<path fill="none" stroke="#444444" stroke-opacity="0.333333" d="M911.9245,-146.9823C895.0425,-213.8483 836.165,-447.0488 815.5808,-528.5782"/>
<polygon fill="#444444" fill-opacity="0.333333" stroke="#444444" stroke-opacity="0.333333" points="812.1016,-528.0611 813.0471,-538.6137 818.8886,-529.7747 812.1016,-528.0611"/>
</g>
<!-- libutempter&#45;&gt;shadow&#45;utils -->
<g id="edge51" class="edge">
<title>libutempter&#45;&gt;shadow&#45;utils</title>
<path fill="none" stroke="#444444" stroke-opacity="0.333333" d="M908.4261,-147.205C892.3684,-183.6905 856.3532,-265.5224 837.5173,-308.3204"/>
<polygon fill="#444444" fill-opacity="0.333333" stroke="#444444" stroke-opacity="0.333333" points="834.2707,-307.0086 833.4459,-317.5713 840.6776,-309.8284 834.2707,-307.0086"/>
</g>
<!-- httpd&#45;filesystem&#45;&gt;Fedora Container Base -->
<g id="edge23" class="edge">
<title>httpd&#45;filesystem&#45;&gt;Fedora Container Base</title>
<path fill="none" stroke="#444444" stroke-opacity="0.333333" d="M1067.2926,-309.5054C1018.6724,-355.9831 890.1848,-478.8088 834.6235,-531.9216"/>
<polygon fill="#444444" fill-opacity="0.333333" stroke="#444444" stroke-opacity="0.333333" points="832.0936,-529.4981 827.2835,-538.9382 836.9306,-534.5581 832.0936,-529.4981"/>
</g>
<!-- httpd&#45;filesystem&#45;&gt;shadow&#45;utils -->
<g id="edge24" class="edge">
<title>httpd&#45;filesystem&#45;&gt;shadow&#45;utils</title>
<path fill="none" stroke="#444444" stroke-opacity="0.333333" d="M1003.1387,-305.3914C972.1909,-310.6513 937.1482,-316.6073 906.4154,-321.8308"/>
<polygon fill="#444444" fill-opacity="0.333333" stroke="#444444" stroke-opacity="0.333333" points="905.4424,-318.4459 896.1703,-323.5721 906.6154,-325.3469 905.4424,-318.4459"/>
</g>
<!-- httpd&#45;tools&#45;&gt;Fedora Container Base -->
<g id="edge25" class="edge">
<title>httpd&#45;tools&#45;&gt;Fedora Container Base</title>
<path fill="none" stroke="#444444" stroke-opacity="0.333333" d="M1203.3255,-776.7943C1126.3592,-733.954 933.0084,-626.3328 848.7312,-579.4232"/>
<polygon fill="#444444" fill-opacity="0.333333" stroke="#444444" stroke-opacity="0.333333" points="850.404,-576.3487 839.9641,-574.5434 846.9995,-582.4651 850.404,-576.3487"/>
</g>
<!-- httpd&#45;tools&#45;&gt;apr -->
<g id="edge26" class="edge">
<title>httpd&#45;tools&#45;&gt;apr</title>
<path fill="none" stroke="#444444" stroke-opacity="0.333333" d="M1245.3619,-776.6377C1257.4136,-753.6578 1278.2425,-713.942 1292.2429,-687.2463"/>
<polygon fill="#444444" fill-opacity="0.333333" stroke="#444444" stroke-opacity="0.333333" points="1295.5182,-688.5368 1297.0632,-678.0552 1289.319,-685.2856 1295.5182,-688.5368"/>
</g>
<!-- httpd&#45;tools&#45;&gt;apr&#45;util -->
<g id="edge27" class="edge">
<title>httpd&#45;tools&#45;&gt;apr&#45;util</title>
<path fill="none" stroke="#444444" stroke-opacity="0.333333" d="M1226.4518,-776.4464C1218.977,-761.7148 1208.3866,-740.843 1199.9307,-724.1779"/>
<polygon fill="#444444" fill-opacity="0.333333" stroke="#444444" stroke-opacity="0.333333" points="1202.8845,-722.2641 1195.2384,-714.9301 1196.6421,-725.4315 1202.8845,-722.2641"/>
</g>
<!-- apr&#45;&gt;Fedora Container Base -->
<g id="edge28" class="edge">
<title>apr&#45;&gt;Fedora Container Base</title>
<path fill="none" stroke="#444444" stroke-opacity="0.333333" d="M1258.0146,-649.6457C1173.0844,-632.1412 996.9212,-595.8331 892.09,-574.2269"/>
<polygon fill="#444444" fill-opacity="0.333333" stroke="#444444" stroke-opacity="0.333333" points="892.6739,-570.7737 882.1732,-572.183 891.2608,-577.6296 892.6739,-570.7737"/>
</g>
<!-- apr&#45;util&#45;&gt;Fedora Container Base -->
<g id="edge29" class="edge">
<title>apr&#45;util&#45;&gt;Fedora Container Base</title>
<path fill="none" stroke="#444444" stroke-opacity="0.333333" d="M1137.4968,-678.9118C1067.329,-652.9135 937.9826,-604.9887 864.0721,-577.6037"/>
<polygon fill="#444444" fill-opacity="0.333333" stroke="#444444" stroke-opacity="0.333333" points="865.0556,-574.2356 854.4625,-574.0432 862.6235,-580.7995 865.0556,-574.2356"/>
</g>
<!-- apr&#45;util&#45;&gt;apr -->
<g id="edge30" class="edge">
<title>apr&#45;util&#45;&gt;apr</title>
<path fill="none" stroke="#444444" stroke-opacity="0.333333" d="M1244.6336,-678.8454C1245.7439,-678.5026 1246.8549,-678.1595 1247.9653,-677.8167"/>
<polygon fill="#444444" fill-opacity="0.333333" stroke="#444444" stroke-opacity="0.333333" points="1249.3764,-681.044 1257.8986,-674.7494 1247.3111,-674.3557 1249.3764,-681.044"/>
</g>
<!-- mod_http2&#45;&gt;Fedora Container Base -->
<g id="edge31" class="edge">
<title>mod_http2&#45;&gt;Fedora Container Base</title>
<path fill="none" stroke="#444444" stroke-opacity="0.333333" d="M1219.1844,-327.1822C1139.9586,-371.5032 935.7652,-485.7342 848.7032,-534.4389"/>
<polygon fill="#444444" fill-opacity="0.333333" stroke="#444444" stroke-opacity="0.333333" points="846.9293,-531.4208 839.9109,-539.3576 850.3469,-537.5299 846.9293,-531.4208"/>
</g>
<!-- mod_http2&#45;&gt;httpd -->
<g id="edge32" class="edge">
<title>mod_http2&#45;&gt;httpd</title>
<path fill="none" stroke="#444444" stroke-opacity="0.333333" d="M1245.3068,-327.1998C1238.9388,-359.5638 1231.7855,-427.7017 1230.4594,-466.3548"/>
<polygon fill="#444444" fill-opacity="0.333333" stroke="#444444" stroke-opacity="0.333333" points="1226.9589,-466.3487 1230.2454,-476.4209 1233.9573,-466.4976 1226.9589,-466.3487"/>
</g>
<!-- httpd&#45;&gt;Fedora Container Base -->
<g id="edge58" class="edge">
<title>httpd&#45;&gt;Fedora Container Base</title>
<path fill="none" stroke="#444444" stroke-opacity="0.333333" d="M1157.2521,-505.7544C1088.3284,-515.8755 985.8182,-530.9286 909.7393,-542.1003"/>
<polygon fill="#444444" fill-opacity="0.333333" stroke="#444444" stroke-opacity="0.333333" points="909.0426,-538.665 899.6572,-543.5808 910.0596,-545.5908 909.0426,-538.665"/>
</g>
<!-- httpd&#45;&gt;systemd -->
<g id="edge59" class="edge">
<title>httpd&#45;&gt;systemd</title>
<path fill="none" stroke="#444444" stroke-opacity="0.333333" d="M1157.3475,-498.5905C1028.4591,-505.2709 767.128,-518.8161 640.3546,-525.387"/>
<polygon fill="#444444" fill-opacity="0.333333" stroke="#444444" stroke-opacity="0.333333" points="639.7932,-521.9113 629.9878,-525.9243 640.1556,-528.9019 639.7932,-521.9113"/>
</g>
<!-- httpd&#45;&gt;httpd&#45;filesystem -->
<g id="edge60" class="edge">
<title>httpd&#45;&gt;httpd&#45;filesystem</title>
<path fill="none" stroke="#444444" stroke-opacity="0.333333" d="M1219.6257,-476.6352C1193.7241,-440.5909 1135.5085,-359.5787 1105.3362,-317.5914"/>
<polygon fill="#444444" fill-opacity="0.333333" stroke="#444444" stroke-opacity="0.333333" points="1108.0231,-315.3326 1099.3452,-309.2544 1102.3386,-319.4176 1108.0231,-315.3326"/>
</g>
<!-- httpd&#45;&gt;httpd&#45;tools -->
<g id="edge61" class="edge">
<title>httpd&#45;&gt;httpd&#45;tools</title>
<path fill="none" stroke="#444444" stroke-opacity="0.333333" d="M1232.7954,-513.0157C1233.3356,-563.6904 1234.8522,-705.9602 1235.5003,-766.7526"/>
<polygon fill="#444444" fill-opacity="0.333333" stroke="#444444" stroke-opacity="0.333333" points="1232.0007,-766.822 1235.6072,-776.7841 1239.0003,-766.7473 1232.0007,-766.822"/>
</g>
<!-- httpd&#45;&gt;apr -->
<g id="edge62" class="edge">
<title>httpd&#45;&gt;apr</title>
<path fill="none" stroke="#444444" stroke-opacity="0.333333" d="M1240.8131,-512.9772C1253.8113,-541.9187 1279.2017,-598.4527 1294.3864,-632.2626"/>
<polygon fill="#444444" fill-opacity="0.333333" stroke="#444444" stroke-opacity="0.333333" points="1291.2732,-633.8741 1298.563,-641.5623 1297.6588,-631.0062 1291.2732,-633.8741"/>
</g>
<!-- httpd&#45;&gt;apr&#45;util -->
<g id="edge63" class="edge">
<title>httpd&#45;&gt;apr&#45;util</title>
<path fill="none" stroke="#444444" stroke-opacity="0.333333" d="M1228.3914,-512.9932C1220.23,-548.4875 1202.2066,-626.8721 1192.5338,-668.9394"/>
<polygon fill="#444444" fill-opacity="0.333333" stroke="#444444" stroke-opacity="0.333333" points="1189.0955,-668.2738 1190.2656,-678.8038 1195.9175,-669.8425 1189.0955,-668.2738"/>
</g>
<!-- httpd&#45;&gt;fedora&#45;logos&#45;httpd -->
<g id="edge64" class="edge">
<title>httpd&#45;&gt;fedora&#45;logos&#45;httpd</title>
<path fill="none" stroke="#444444" stroke-opacity="0.333333" d="M1270.9726,-476.5819C1350.063,-439.2591 1531.0241,-353.8634 1617.4076,-313.0989"/>
<polygon fill="#444444" fill-opacity="0.333333" stroke="#444444" stroke-opacity="0.333333" points="1619.1635,-316.1405 1626.7134,-308.7075 1616.1761,-309.81 1619.1635,-316.1405"/>
</g>
<!-- httpd&#45;&gt;mailcap -->
<g id="edge65" class="edge">
<title>httpd&#45;&gt;mailcap</title>
<path fill="none" stroke="#444444" stroke-opacity="0.333333" d="M1307.6088,-501.5646C1399.1617,-509.9555 1552.6661,-524.0244 1641.0412,-532.124"/>
<polygon fill="#444444" fill-opacity="0.333333" stroke="#444444" stroke-opacity="0.333333" points="1640.9466,-535.6299 1651.2243,-533.0573 1641.5855,-528.6591 1640.9466,-535.6299"/>
</g>
<!-- httpd&#45;&gt;mod_http2 -->
<g id="edge66" class="edge">
<title>httpd&#45;&gt;mod_http2</title>
<path fill="none" stroke="#444444" stroke-opacity="0.333333" d="M1238.6932,-476.6502C1245.0612,-444.2862 1252.2145,-376.1483 1253.5406,-337.4952"/>
<polygon fill="#444444" fill-opacity="0.333333" stroke="#444444" stroke-opacity="0.333333" points="1257.0411,-337.5013 1253.7546,-327.4291 1250.0427,-337.3524 1257.0411,-337.5013"/>
</g>
<!-- libsemanage&#45;&gt;Fedora Container Base -->
<g id="edge36" class="edge">
<title>libsemanage&#45;&gt;Fedora Container Base</title>
<path fill="none" stroke="#444444" stroke-opacity="0.333333" d="M950.7695,-550.0054C949.4552,-550.0698 948.1338,-550.1345 946.8061,-550.1995"/>
<polygon fill="#444444" fill-opacity="0.333333" stroke="#444444" stroke-opacity="0.333333" points="946.3351,-546.7183 936.5184,-550.7036 946.6777,-553.7099 946.3351,-546.7183"/>
</g>
<!-- libpcap&#45;&gt;Fedora Container Base -->
<g id="edge35" class="edge">
<title>libpcap&#45;&gt;Fedora Container Base</title>
<path fill="none" stroke="#444444" stroke-opacity="0.333333" d="M776.3335,-1058.7971C781.2798,-981.416 800.5819,-679.4465 806.6047,-585.2233"/>
<polygon fill="#444444" fill-opacity="0.333333" stroke="#444444" stroke-opacity="0.333333" points="810.1108,-585.2381 807.2559,-575.0351 803.125,-584.7915 810.1108,-585.2381"/>
</g>
<!-- dbus&#45;broker&#45;&gt;Fedora Container Base -->
<g id="edge52" class="edge">
<title>dbus&#45;broker&#45;&gt;Fedora Container Base</title>
<path fill="none" stroke="#444444" stroke-opacity="0.333333" d="M493.1752,-390.678C557.4253,-424.5731 696.1437,-497.754 766.1595,-534.6908"/>
<polygon fill="#444444" fill-opacity="0.333333" stroke="#444444" stroke-opacity="0.333333" points="764.684,-537.8695 775.1618,-539.4399 767.9502,-531.6782 764.684,-537.8695"/>
</g>
<!-- dbus&#45;broker&#45;&gt;systemd -->
<g id="edge53" class="edge">
<title>dbus&#45;broker&#45;&gt;systemd</title>
<path fill="none" stroke="#444444" stroke-opacity="0.333333" d="M471.7687,-390.9242C490.9845,-418.4815 527.5036,-470.8534 549.6526,-502.6173"/>
<polygon fill="#444444" fill-opacity="0.333333" stroke="#444444" stroke-opacity="0.333333" points="546.9016,-504.7913 555.4924,-510.9921 552.6435,-500.7875 546.9016,-504.7913"/>
</g>
<!-- dbus&#45;broker&#45;&gt;shadow&#45;utils -->
<g id="edge54" class="edge">
<title>dbus&#45;broker&#45;&gt;shadow&#45;utils</title>
<path fill="none" stroke="#444444" stroke-opacity="0.333333" d="M532.7618,-365.2089C594.042,-359.007 681.1341,-350.1927 744.3845,-343.7914"/>
<polygon fill="#444444" fill-opacity="0.333333" stroke="#444444" stroke-opacity="0.333333" points="745.121,-347.2348 754.7178,-342.7456 744.4161,-340.2704 745.121,-347.2348"/>
</g>
<!-- dbus&#45;broker&#45;&gt;dbus&#45;common -->
<g id="edge55" class="edge">
<title>dbus&#45;broker&#45;&gt;dbus&#45;common</title>
<path fill="none" stroke="#444444" stroke-opacity="0.333333" d="M458.7205,-354.527C458.3512,-333.5577 457.739,-298.7952 457.3073,-274.2811"/>
<polygon fill="#444444" fill-opacity="0.333333" stroke="#444444" stroke-opacity="0.333333" points="460.8045,-274.0861 457.1289,-264.1493 453.8056,-274.2094 460.8045,-274.0861"/>
</g>
<!-- dbus&#45;common&#45;&gt;Fedora Container Base -->
<g id="edge56" class="edge">
<title>dbus&#45;common&#45;&gt;Fedora Container Base</title>
<path fill="none" stroke="#444444" stroke-opacity="0.333333" d="M477.2332,-264.1014C536.9483,-316.9109 711.3447,-471.1396 780.0859,-531.9314"/>
<polygon fill="#444444" fill-opacity="0.333333" stroke="#444444" stroke-opacity="0.333333" points="778.1208,-534.8658 787.9304,-538.8687 782.7581,-529.6222 778.1208,-534.8658"/>
</g>
<!-- dbus&#45;common&#45;&gt;systemd -->
<g id="edge57" class="edge">
<title>dbus&#45;common&#45;&gt;systemd</title>
<path fill="none" stroke="#444444" stroke-opacity="0.333333" d="M463.9436,-264.1792C482.8678,-312.2998 534.447,-443.4553 557.1567,-501.2017"/>
<polygon fill="#444444" fill-opacity="0.333333" stroke="#444444" stroke-opacity="0.333333" points="554.0047,-502.7502 560.9218,-510.7755 560.5191,-500.1883 554.0047,-502.7502"/>
</g>
<!-- Fedora Container Base -->
<g id="node1" class="node">
<title>Fedora Container Base</title>
<ellipse fill="none" stroke="#000000" cx="808.41" cy="-556.98" rx="136.5" ry="18"/>
<text text-anchor="middle" x="808.41" y="-553.28" font-family="Helvetica,sans-Serif" font-weight="bold" font-size="14.00" fill="#000000">Fedora Container Base (197.9 MB)</text>
</g>
<!-- device&#45;mapper&#45;libs -->
<g id="node2" class="node">
<title>device&#45;mapper&#45;libs</title>
<text text-anchor="middle" x="708.05" y="-479.87" font-family="Helvetica,sans-Serif" font-weight="bold" font-size="14.00" fill="#000000">device&#45;mapper&#45;libs (417.5 kB)</text>
</g>
<!-- device&#45;mapper -->
<g id="node3" class="node">
<title>device&#45;mapper</title>
<text text-anchor="middle" x="618.55" y="-286.46" font-family="Helvetica,sans-Serif" font-weight="bold" font-size="14.00" fill="#000000">device&#45;mapper (350.3 kB)</text>
</g>
<!-- libargon2 -->
<g id="node4" class="node">
<title>libargon2</title>
<text text-anchor="middle" x="972.08" y="-967.89" font-family="Helvetica,sans-Serif" font-weight="bold" font-size="14.00" fill="#000000">libargon2 (54.9 kB)</text>
</g>
<!-- systemd -->
<g id="node5" class="node">
<title>systemd</title>
<text text-anchor="middle" x="568.14" y="-525.43" font-family="Helvetica,sans-Serif" font-weight="bold" font-size="14.00" fill="#000000">systemd (12.3 MB)</text>
</g>
<!-- util&#45;linux -->
<g id="node6" class="node">
<title>util&#45;linux</title>
<text text-anchor="middle" x="706.55" y="-176.47" font-family="Helvetica,sans-Serif" font-weight="bold" font-size="14.00" fill="#000000">util&#45;linux (12.7 MB)</text>
</g>
<!-- shadow&#45;utils -->
<g id="node7" class="node">
<title>shadow&#45;utils</title>
<text text-anchor="middle" x="825.52" y="-331.88" font-family="Helvetica,sans-Serif" font-weight="bold" font-size="14.00" fill="#000000">shadow&#45;utils (3.9 MB)</text>
</g>
<!-- cryptsetup&#45;libs -->
<g id="node8" class="node">
<title>cryptsetup&#45;libs</title>
<text text-anchor="middle" x="815.01" y="-758.07" font-family="Helvetica,sans-Serif" font-weight="bold" font-size="14.00" fill="#000000">cryptsetup&#45;libs (1.8 MB)</text>
</g>
<!-- iptables&#45;libs -->
<g id="node9" class="node">
<title>iptables&#45;libs</title>
<text text-anchor="middle" x="637.6" y="-928.43" font-family="Helvetica,sans-Serif" font-weight="bold" font-size="14.00" fill="#000000">iptables&#45;libs (155.9 kB)</text>
</g>
<!-- libseccomp -->
<g id="node10" class="node">
<title>libseccomp</title>
<text text-anchor="middle" x="390.85" y="-786.94" font-family="Helvetica,sans-Serif" font-weight="bold" font-size="14.00" fill="#000000">libseccomp (347.0 kB)</text>
</g>
<!-- systemd&#45;pam -->
<g id="node11" class="node">
<title>systemd&#45;pam</title>
<text text-anchor="middle" x="357.56" y="-522.13" font-family="Helvetica,sans-Serif" font-weight="bold" font-size="14.00" fill="#000000">systemd&#45;pam (335.6 kB)</text>
</g>
<!-- systemd&#45;rpm&#45;macros -->
<g id="node12" class="node">
<title>systemd&#45;rpm&#45;macros</title>
<text text-anchor="middle" x="91" y="-275.65" font-family="Helvetica,sans-Serif" font-weight="bold" font-size="14.00" fill="#000000">systemd&#45;rpm&#45;macros (4.9 kB)</text>
</g>
<!-- acl -->
<g id="node13" class="node">
<title>acl</title>
<text text-anchor="middle" x="503.96" y="-830.95" font-family="Helvetica,sans-Serif" font-weight="bold" font-size="14.00" fill="#000000">acl (212.0 kB)</text>
</g>
<!-- dbus -->
<g id="node14" class="node">
<title>dbus</title>
<text text-anchor="middle" x="148.28" y="-436.31" font-family="Helvetica,sans-Serif" font-weight="bold" font-size="14.00" fill="#000000">dbus (0.0 B)</text>
</g>
<!-- kmod&#45;libs -->
<g id="node15" class="node">
<title>kmod&#45;libs</title>
<text text-anchor="middle" x="368.21" y="-663.28" font-family="Helvetica,sans-Serif" font-weight="bold" font-size="14.00" fill="#000000">kmod&#45;libs (197.4 kB)</text>
</g>
<!-- qrencode&#45;libs -->
<g id="node16" class="node">
<title>qrencode&#45;libs</title>
<text text-anchor="middle" x="654.49" y="-798.04" font-family="Helvetica,sans-Serif" font-weight="bold" font-size="14.00" fill="#000000">qrencode&#45;libs (159.3 kB)</text>
</g>
<!-- libfdisk -->
<g id="node17" class="node">
<title>libfdisk</title>
<text text-anchor="middle" x="779.03" y="-14.3" font-family="Helvetica,sans-Serif" font-weight="bold" font-size="14.00" fill="#000000">libfdisk (488.8 kB)</text>
</g>
<!-- libutempter -->
<g id="node18" class="node">
<title>libutempter</title>
<text text-anchor="middle" x="916.5" y="-125.16" font-family="Helvetica,sans-Serif" font-weight="bold" font-size="14.00" fill="#000000">libutempter (58.2 kB)</text>
</g>
<!-- httpd&#45;filesystem -->
<g id="node19" class="node">
<title>httpd&#45;filesystem</title>
<text text-anchor="middle" x="1086.4" y="-287.54" font-family="Helvetica,sans-Serif" font-weight="bold" font-size="14.00" fill="#000000">httpd&#45;filesystem (400.0 B)</text>
</g>
<!-- httpd&#45;tools -->
<g id="node20" class="node">
<title>httpd&#45;tools</title>
<text text-anchor="middle" x="1235.8" y="-791.17" font-family="Helvetica,sans-Serif" font-weight="bold" font-size="14.00" fill="#000000">httpd&#45;tools (202.2 kB)</text>
</g>
<!-- apr -->
<g id="node21" class="node">
<title>apr</title>
<text text-anchor="middle" x="1306.7" y="-655.98" font-family="Helvetica,sans-Serif" font-weight="bold" font-size="14.00" fill="#000000">apr (288.2 kB)</text>
</g>
<!-- apr&#45;util -->
<g id="node22" class="node">
<title>apr&#45;util</title>
<text text-anchor="middle" x="1186.1" y="-693.22" font-family="Helvetica,sans-Serif" font-weight="bold" font-size="14.00" fill="#000000">apr&#45;util (222.5 kB)</text>
</g>
<!-- fedora&#45;logos&#45;httpd -->
<g id="node23" class="node">
<title>fedora&#45;logos&#45;httpd</title>
<text text-anchor="middle" x="1665" y="-286.94" font-family="Helvetica,sans-Serif" font-weight="bold" font-size="14.00" fill="#000000">fedora&#45;logos&#45;httpd (9.9 kB)</text>
</g>
<!-- mailcap -->
<g id="node24" class="node">
<title>mailcap</title>
<text text-anchor="middle" x="1709.3" y="-534.68" font-family="Helvetica,sans-Serif" font-weight="bold" font-size="14.00" fill="#000000">mailcap (71.2 kB)</text>
</g>
<!-- mod_http2 -->
<g id="node25" class="node">
<title>mod_http2</title>
<text text-anchor="middle" x="1251.4" y="-305.46" font-family="Helvetica,sans-Serif" font-weight="bold" font-size="14.00" fill="#000000">mod_http2 (403.9 kB)</text>
</g>
<!-- httpd -->
<g id="node26" class="node">
<title>httpd</title>
<text text-anchor="middle" x="1232.6" y="-489.09" font-family="Helvetica,sans-Serif" font-weight="bold" font-size="22.00" fill="#cc0066">httpd (4.6 MB)</text>
</g>
<!-- libsemanage -->
<g id="node27" class="node">
<title>libsemanage</title>
<text text-anchor="middle" x="1026.4" y="-542.6" font-family="Helvetica,sans-Serif" font-weight="bold" font-size="14.00" fill="#000000">libsemanage (313.1 kB)</text>
</g>
<!-- libpcap -->
<g id="node28" class="node">
<title>libpcap</title>
<text text-anchor="middle" x="775.17" y="-1073.3" font-family="Helvetica,sans-Serif" font-weight="bold" font-size="14.00" fill="#000000">libpcap (375.4 kB)</text>
</g>
<!-- dbus&#45;broker -->
<g id="node29" class="node">
<title>dbus&#45;broker</title>
<text text-anchor="middle" x="459.04" y="-368.97" font-family="Helvetica,sans-Serif" font-weight="bold" font-size="14.00" fill="#000000">dbus&#45;broker (423.2 kB)</text>
</g>
<!-- dbus&#45;common -->
<g id="node30" class="node">
<title>dbus&#45;common</title>
<text text-anchor="middle" x="456.81" y="-242.34" font-family="Helvetica,sans-Serif" font-weight="bold" font-size="14.00" fill="#000000">dbus&#45;common (11.2 kB)</text>
</g>
</g>

<script type="text/javascript"><![CDATA[

document.addEventListener('click', function(e) {
      e = e || window.event;
      var target = e.target || e.srcElement;
      text = target.parentElement.querySelector("title").textContent;

      console.log("Clicked on: " + text);
      // reset all strokes
      var nodes = document.getElementsByClassName("edge");

      for (index = 0, len = nodes.length; index < len; ++index) {
          //var title = nodes[index].querySelector("title").textContent.split("->");
          id = nodes[index].id;
          document.getElementById(id).querySelector("path").setAttribute("stroke-width", "1");
          document.getElementById(id).querySelector("path").setAttribute("stroke-opacity", "0.5");
          document.getElementById(id).querySelector("path").setAttribute("stroke", "#444444");
          document.getElementById(id).querySelector("polygon").setAttribute("stroke-width", "1");
          document.getElementById(id).querySelector("polygon").setAttribute("stroke-opacity", "0.5");
          document.getElementById(id).querySelector("polygon").setAttribute("stroke", "#444444");
      }
      // reset text highlight
      pkgs = document.getElementsByClassName("node");
      for (index2 = 0, len2 = pkgs.length; index2 < len2; ++index2) {
          target_id = pkgs[index2].id;
          document.getElementById(target_id).querySelector("text").setAttribute("font-weight", "normal");
      }

      // highlight deps
      var nodes = document.getElementsByClassName("edge");
      for (index = 0, len = nodes.length; index < len; ++index) {
        var title = nodes[index].querySelector("title").textContent.split("->");

        if (title[0] == text) {
          id = nodes[index].id;
          //console.log("ID:   " + id);
          document.getElementById(id).querySelector("path").setAttribute("stroke-width", "3");
          document.getElementById(id).querySelector("path").setAttribute("stroke-opacity", "1");
          document.getElementById(id).querySelector("path").setAttribute("stroke", "#aa3333");
          document.getElementById(id).querySelector("polygon").setAttribute("stroke-width", "5");
          document.getElementById(id).querySelector("polygon").setAttribute("stroke-opacity", "1");
          document.getElementById(id).querySelector("polygon").setAttribute("stroke", "#aa3333");

        }
        if (title[1] == text) {
          id = nodes[index].id;
          document.getElementById(id).querySelector("path").setAttribute("stroke-width", "3");
          document.getElementById(id).querySelector("path").setAttribute("stroke-opacity", "1");
          document.getElementById(id).querySelector("path").setAttribute("stroke", "#333377");
          document.getElementById(id).querySelector("polygon").setAttribute("stroke-width", "5");
          document.getElementById(id).querySelector("polygon").setAttribute("stroke-opacity", "1");
          document.getElementById(id).querySelector("polygon").setAttribute("stroke", "#333377");
        }

        if (title[0] == text || title[1] == text) {
          pkgs = document.getElementsByClassName("node");
          for (index2 = 0, len2 = pkgs.length; index2 < len2; ++index2) {
            var pkg_name = pkgs[index2].querySelector("title").textContent;
            if (pkg_name == title[0] || pkg_name == title[1]) {
              target_id = pkgs[index2].id;
              document.getElementById(target_id).querySelector("text").setAttribute("font-weight", "bold");
            }
          }
        }
      }


  }, false);

]]></script>


  <text
     id="text7664"
     y="19.384439"
     x="9.9055691"
     style="font-style:normal;font-weight:normal;font-size:12.49485588px;line-height:125%;font-family:sans-serif;letter-spacing:0px;word-spacing:0px;fill:#000000;fill-opacity:1;stroke:none;stroke-width:0.3123714px;stroke-linecap:butt;stroke-linejoin:miter;stroke-opacity:1"
     xml:space="preserve"><tspan
       style="font-size:12.00258541px;stroke-width:0.3123714px"
       y="19.384439"
       x="9.9055691"
       id="tspan7666"><a href="report-use-case-definition--httpd-no-weak-deps--31.html"><tspan
   style="font-weight:bold;font-size:12.00258541px;fill:#0066ff;stroke-width:0.3123714px"
   id="tspan7668">Apache httpd (no weak deps)</tspan></a> on <a href="report-base-definition--fedora-container-base--31.html"><tspan
   style="font-weight:bold;font-size:12.00258541px;fill:#0066ff;stroke-width:0.3123714px"
   id="tspan7676">Fedora Container Base</tspan></a> (Fedora 31)</tspan></text>
  <text
     xml:space="preserve"
     style="font-style:normal;font-weight:normal;font-size:11.85299969px;line-height:125%;font-family:sans-serif;letter-spacing:0px;word-spacing:0px;fill:#000000;fill-opacity:1;stroke:none;stroke-width:0.296325px;stroke-linecap:butt;stroke-linejoin:miter;stroke-opacity:1"
     x="9.9365959"
     y="58.520042"
     id="text8235"><tspan
       id="tspan8237"
       x="9.9365959"
       y="58.520042"
       style="stroke-width:0.296325px;font-size:10.80232704px;fill:#666666">Generated by <a href="./"><tspan
   style="fill:#3771c8"
   id="tspan8255">Feedback Pipeline</tspan></a></tspan></text>
  <text
     xml:space="preserve"
     style="font-style:normal;font-weight:normal;font-size:12.49485588px;line-height:125%;font-family:sans-serif;letter-spacing:0px;word-spacing:0px;fill:#000000;fill-opacity:1;stroke:none;stroke-width:0.3123714px;stroke-linecap:butt;stroke-linejoin:miter;stroke-opacity:1"
     x="9.9055691"
     y="38.974205"
     id="text8245"><a href="graph--httpd-no-weak-deps--fedora-container-base--31.svg"><tspan
       id="tspan8247"
       x="9.9055691"
       y="38.974205"
       style="font-weight:normal;font-size:12.00258541px;fill:#0066ff;stroke-width:0.3123714px">Expand base image</tspan></a></text>

</svg>
