<?xml version="1.0" encoding="UTF-8" standalone="no"?>
<!DOCTYPE svg PUBLIC "-//W3C//DTD SVG 1.1//EN"
 "http://www.w3.org/Graphics/SVG/1.1/DTD/svg11.dtd">
<!-- Generated by graphviz version 2.40.1 (0)
 -->
<!-- Title: packages Pages: 1 -->
<svg width="1436pt" height="636pt"
 viewBox="0.00 0.00 1723.42 763.10" xmlns="http://www.w3.org/2000/svg" xmlns:xlink="http://www.w3.org/1999/xlink">
<g id="graph0" class="graph" transform="scale(.8333 .8333) rotate(0) translate(113.1551 653.969)">
<title>packages</title>
<polygon fill="#dae2ff" stroke="transparent" points="-113.1551,109.1352 -113.1551,-653.969 1610.2665,-653.969 1610.2665,109.1352 -113.1551,109.1352"/>
<polygon fill="#fbb4ae" stroke="#fbb4ae" points="983.3054,-409.6835 990.0095,-305.7347 994.4628,-308.4019 1000.7744,-460.3069 1059.5947,-451.2235 1105.9572,-410.3158 1099.8668,-318.8839 1098.2341,-302.01 1098.0089,-272.9913 1094.1229,-214.6529 1042.3164,-189.2962 997.6764,-182.2713 987.3135,-180.4042 970.0942,-176.122 966.6508,-175.11 962.6492,-176.3443 954.2619,-178.5489 936.6761,-182.3716 868.9832,-195.5186 774.3514,-118.1766 750.8066,-112.7617 747.9002,-111.9233 737.4073,-108.6886 733.9792,-107.5647 731.8348,-254.9767 727.1884,-254.9767 721.0473,-258.4996 720.2837,-259.3297 721.8628,-261.1361 727.2064,-264.1814 731.6562,-264.1814 731.6562,-264.1814 727.2064,-264.1814 721.8628,-261.1361 720.2837,-259.3297 717.6263,-259.3297 717.6263,-259.3297 720.2837,-259.3297 721.0473,-258.4996 727.1884,-254.9767 731.8348,-254.9767 733.9792,-107.5647 725.9149,-104.7623 710.6595,-98.8616 707.5234,-98.3635 706.7463,-98.2135 689.2274,-94.2276 655.4102,-88.7304 577.8813,-157.9397 578.1697,-215.9858 577.4489,-251.9763 578.2363,-278.1247 577.8478,-278.3661 529.6215,-310.0284 516.0432,-317.1472 502.0156,-322.6725 496.863,-324.4734 487.8967,-327.2099 470.7379,-331.6764 461.2598,-363.4021 456.907,-383.5893 455.5737,-394.3953 455.4671,-397.7247 453.2878,-408.0866 444.9032,-436.1523 453.8698,-441.0535 456.8565,-442.2994 465.2155,-445.2675 472.0364,-447.2533 476.2933,-447.9516 488.0405,-449.1388 489.017,-449.1751 491.6389,-449.4552 492.0343,-449.4722 499.1998,-449.326 501.838,-449.1046 502.1182,-449.1199 505.1185,-449.094 514.441,-449.6615 522.598,-450.724 525.9394,-451.3874 526.0444,-447.7884 526.0444,-447.7884 525.9394,-451.3874 536.479,-454.9496 580.3338,-472.7774 646.4576,-496.5573 649.4417,-494.5146 732.507,-513.0894 745.2761,-513.4322 760.8989,-514.5043 778.4373,-517.1753 782.1021,-517.8097 795.9985,-520.7965 807.6078,-523.7742 927.4608,-455.1869 903.3815,-410.5999 881.6598,-367.4566 807.8117,-376.1143 795.7798,-373.7488 795.7798,-373.7488 807.8117,-376.1143 881.6598,-367.4566 903.3815,-410.5999 927.4608,-455.1869 935.3674,-455.8444 952.4478,-457.5571 959.583,-458.5153 969.2323,-459.9755 982.9018,-462.5082 984.9288,-463.0215 1000.7744,-460.3069 994.4628,-308.4019 990.0095,-305.7347 983.3054,-409.6835 982.7442,-354.42 985.1652,-301.9415 984.8126,-301.8437 979.3398,-301.8437 979.0074,-301.3901 975.77,-298.8735 975.77,-298.8735 979.0074,-301.3901 979.3398,-301.8437 984.8126,-301.8437 985.1652,-301.9415 982.7442,-354.42 983.3054,-409.6835 983.3054,-409.6835"/>
<polygon fill="#fed9a6" stroke="#fed9a6" points="-109.1551,-361.5388 -104.9794,-340.5197 -102.9913,-327.3929 -94.3281,-259.5691 -35.2333,-219.0694 31.2593,-206.1901 35.8342,-205.2015 47.0449,-202.2744 47.3427,-202.19 53.322,-200.3601 63.4287,-196.8078 72.9668,-193.2396 79.9857,-190.457 87.5076,-187.3081 106.7172,-184.9279 143.6839,-131.9338 150.4091,-78.2197 151.3205,-68.8552 154.133,-1.1666 184.1618,37.1695 233.6863,54.2887 259.635,59.4133 263.6281,60.3731 276.8883,58.5277 276.8838,47.085 282.0887,-68.2198 277.6706,-71.8399 281.7499,-75.2849 286.9481,-76.7617 286.9481,-76.7617 281.7499,-75.2849 277.6706,-71.8399 282.0887,-68.2198 276.8838,47.085 276.8883,58.5277 291.9233,57.3763 295.3197,57.1872 311.6935,57.2994 315.5786,57.407 339.06,58.5457 392.3696,98.7527 439.4658,103.8456 449.2911,105.1352 457.8045,103.0036 461.7075,102.121 479.6578,99.7723 476.2806,-14.3625 471.8522,-13.1408 466.2581,-14.8052 462.4348,-18.2497 465.5594,-20.9094 471.5239,-22.7086 471.5239,-22.7086 465.5594,-20.9094 462.4348,-18.2497 466.2581,-14.8052 471.8522,-13.1408 476.2806,-14.3625 479.6578,99.7723 487.0327,98.9844 493.1955,98.6209 493.985,29.3564 493.985,29.3564 493.1955,98.6209 532.8461,98.175 593.2304,64.687 628.0959,3.3366 628.7059,.8061 646.394,-59.9668 655.4102,-88.7304 577.8813,-157.9397 578.1697,-215.9858 577.4489,-251.9763 578.2363,-278.1247 577.8478,-278.3661 529.6215,-310.0284 516.0432,-317.1472 502.0156,-322.6725 496.863,-324.4734 487.8967,-327.2099 470.7379,-331.6764 461.2598,-363.4021 456.907,-383.5893 455.5737,-394.3953 455.4671,-397.7247 453.2878,-408.0866 444.9032,-436.1523 453.8698,-441.0535 456.8565,-442.2994 465.2155,-445.2675 472.0364,-447.2533 476.2933,-447.9516 488.0405,-449.1388 489.017,-449.1751 491.6389,-449.4552 492.0343,-449.4722 499.1998,-449.326 501.838,-449.1046 502.1182,-449.1199 505.1185,-449.094 514.441,-449.6615 522.598,-450.724 525.9394,-451.3874 536.479,-454.9496 580.3338,-472.7774 646.4576,-496.5573 635.0226,-511.8054 629.5786,-519.4318 568.6724,-609.3135 507.5149,-640.7142 499.982,-644.758 491.053,-649.969 490.0187,-649.7538 481.7988,-648.1911 476.0519,-647.2018 467.9812,-645.9575 461.0667,-645.2633 449.9462,-644.3456 443.4187,-643.9241 432.5601,-643.8058 431.0572,-568.9848 434.9843,-501.3358 439.3594,-498.9046 441.1996,-496.8087 439.8208,-495.318 435.0099,-492.6861 435.0099,-492.6861 439.8208,-495.318 441.1996,-496.8087 439.3594,-498.9046 434.9843,-501.3358 431.0572,-568.9848 432.5601,-643.8058 429.165,-643.9511 420.0171,-641.5367 410.5178,-639.3966 405.6136,-638.387 401.3301,-636.6716 396.4005,-634.9107 382.7582,-630.3309 384.2256,-561.2103 384.169,-558.8007 384.169,-558.8007 384.2256,-561.2103 382.7582,-630.3309 377.4535,-628.8951 374.5735,-548.4805 374.5735,-548.4805 377.4535,-628.8951 358.8609,-624.6564 256.0461,-605.6799 255.8884,-603.29 260.7366,-591.5612 264.2239,-583.9516 267.8291,-576.8507 283.8761,-546.8475 304.9411,-512.4017 313.04,-497.2938 319.0608,-483.9633 325.1216,-467.1912 335.2218,-444.886 339.151,-438.4609 309.8205,-397.9549 300.3868,-395.7701 296.0338,-395.217 296.3424,-336.8232 295.2559,-336.506 299.8769,-297.9755 300.7855,-272.1761 303.7333,-272.1342 305.8849,-272.0056 309.7394,-271.9525 309.7394,-271.9525 305.8849,-272.0056 303.7333,-272.1342 300.7855,-272.1761 299.8769,-297.9755 295.2559,-336.506 296.3424,-336.8232 296.0338,-395.217 292.8757,-394.9781 289.9436,-394.907 288.0603,-394.9586 279.8231,-394.7718 276.3306,-395.0561 266.7865,-394.8732 265.4018,-394.7773 271.5639,-340.7552 275.5629,-341.8354 275.5629,-341.8354 271.5639,-340.7552 265.4018,-394.7773 265.2594,-394.7749 262.1927,-394.8802 261.2842,-394.8662 259.3356,-394.7391 255.5599,-394.6875 252.8917,-394.927 248.0197,-394.8774 240.586,-395.1877 237.5527,-395.0105 232.7122,-394.9785 229.6514,-394.8061 226.0533,-394.4246 222.5551,-393.8793 157.8397,-380.5414 134.682,-413.2751 131.7198,-414.3836 129.4663,-415.1548 120.5229,-417.9327 120.343,-417.9828 120.0276,-418.0608 108.3736,-420.5767 101.4007,-421.8606 90.086,-423.2264 86.4398,-423.4353 81.2717,-423.5681 79.8013,-423.6548 74.8877,-423.7886 66.935,-423.753 64.9642,-423.875 59.4522,-424.0412 53.2748,-424.4322 44.3515,-425.2921 39.2681,-426.117 24.6731,-429.458 -53.3253,-449.8656 -109.1551,-361.5388 -109.1551,-361.5388"/>
<polygon fill="#bbd7d9" stroke="#bbd7d9" points="-50.7789,-525.2711 -55.611,-504.1965 -58.0466,-495.5415 -53.3253,-449.8656 24.6731,-429.458 39.2681,-426.117 44.3515,-425.2921 53.2748,-424.4322 59.4522,-424.0412 64.9642,-423.875 66.935,-423.753 74.8877,-423.7886 79.8013,-423.6548 81.2717,-423.5681 86.4398,-423.4353 90.086,-423.2264 101.4007,-421.8606 108.3736,-420.5767 120.0276,-418.0608 120.343,-417.9828 120.5229,-417.9327 129.4663,-415.1548 131.7198,-414.3836 134.682,-413.2751 157.8397,-380.5414 222.5551,-393.8793 226.0533,-394.4246 229.6514,-394.8061 232.7122,-394.9785 237.5527,-395.0105 240.586,-395.1877 248.0197,-394.8774 252.8917,-394.927 255.5599,-394.6875 259.3356,-394.7391 261.2842,-394.8662 262.1927,-394.8802 265.2594,-394.7749 265.4018,-394.7773 266.7865,-394.8732 276.3306,-395.0561 279.8231,-394.7718 288.0603,-394.9586 289.9436,-394.907 292.8757,-394.9781 296.0338,-395.217 300.3868,-395.7701 309.8205,-397.9549 339.151,-438.4609 335.2218,-444.886 325.1216,-467.1912 319.0608,-483.9633 313.04,-497.2938 304.9411,-512.4017 283.8761,-546.8475 267.8291,-576.8507 264.2239,-583.9516 260.7366,-591.5612 255.8884,-603.29 256.0461,-605.6799 240.0004,-618.6954 137.9712,-631.2933 136.3175,-631.5352 135.4802,-631.3892 126.0998,-629.9683 120.2869,-629.3553 102.1055,-628.2722 90.5887,-628.3813 83.9853,-628.8997 68.6776,-630.4548 45.3388,-633.8957 -32.6481,-614.7565 -50.7789,-525.2711 69.373,-517.1651 73.944,-512.7774 75.7486,-512.1476 76.8424,-511.3467 79.1708,-511.3467 79.5174,-511.2531 83.9475,-511.2531 84.2928,-511.1581 89.189,-511.1581 89.3934,-511.101 94.9638,-511.101 95.0243,-511.1177 95.0293,-511.1249 99.1977,-514.5936 104.2251,-516.0186 104.2251,-516.0186 99.1977,-514.5936 95.0293,-511.1249 95.0243,-511.1177 94.9638,-511.101 89.3934,-511.101 89.189,-511.1581 84.2928,-511.1581 83.9475,-511.2531 79.5174,-511.2531 79.1708,-511.3467 76.8424,-511.3467 75.7486,-512.1476 73.944,-512.7774 69.373,-517.1651 -50.7789,-525.2711 -50.7789,-525.2711"/>
<polygon fill="#d8d6da" stroke="#d8d6da" points="1486.9524,-603.777 1486.2925,-562.2252 1486.2925,-562.2252 1486.9524,-603.777 1543.2459,-597.4476 1604.9435,-526.7166 1599.704,-494.5606 1596.8276,-467.6978 1590.7638,-390.5901 1602.9994,-365.4913 1606.2665,-359.1496 1597.7971,-320.6089 1592.5176,-289.9178 1538.8253,-230.1989 1535.2555,-215.8893 1535.0948,-215.1665 1526.8909,-166.5577 1520.5132,-145.6153 1512.8511,-133.9467 1431.5598,-70.6374 1426.3911,-69.6852 1422.9919,-69.9499 1416.2416,-209.0526 1412.0282,-211.791 1409.7731,-215.476 1405.0885,-215.476 1404.7196,-215.3722 1402.8186,-215.3722 1402.8186,-215.3722 1404.7196,-215.3722 1405.0885,-215.476 1409.7731,-215.476 1412.0282,-211.791 1416.2416,-209.0526 1422.9919,-69.9499 1411.5499,-70.6279 1392.9667,-71.0353 1391.8043,-71.0173 1388.5165,-72.359 1374.3123,-77.2391 1371.3721,-78.1853 1355.7604,-82.5374 1343.7631,-85.3593 1328.0559,-88.0302 1327.3518,-88.1042 1252.996,-94.312 1231.9619,-101.9697 1231.1871,-102.5023 1204.2627,-153.6829 1191.5247,-161.0464 1094.1229,-214.6529 1098.0089,-272.9913 1098.2341,-302.01 1099.8668,-318.8839 1105.9572,-410.3158 1192.7415,-413.97 1210.7006,-415.1107 1216.2023,-415.5773 1224.6398,-416.6523 1225.4514,-314.4238 1229.334,-289.2006 1231.9642,-291.2909 1238.785,-293.283 1242.1323,-292.403 1246.9679,-288.2285 1242.9365,-284.9109 1238.1064,-283.5898 1238.1064,-283.5898 1242.9365,-284.9109 1246.9679,-288.2285 1242.1323,-292.403 1238.785,-293.283 1231.9642,-291.2909 1229.334,-289.2006 1225.4514,-314.4238 1224.6398,-416.6523 1234.6504,-418.3551 1245.6758,-420.7014 1251.1948,-422.1112 1264.3455,-425.7519 1280.8781,-431.3826 1290.9028,-471.3207 1293.78,-484.1832 1296.983,-500.5299 1306.8152,-559.1456 1397.8756,-633.3632 1409.8313,-627.4061 1413.7716,-625.5323 1427.6499,-619.5562 1428.2285,-568.7364 1430.1613,-525.1309 1435.0508,-485.7364 1433.4417,-485.2924 1437.7749,-410.2683 1435.4272,-410.0994 1435.2072,-410.0921 1433.1874,-339.944 1438.7109,-338.2735 1442.347,-335.0632 1438.9095,-332.1588 1438.9095,-332.1588 1442.347,-335.0632 1438.7109,-338.2735 1433.1874,-339.944 1435.2072,-410.0921 1435.4272,-410.0994 1437.7749,-410.2683 1433.4417,-485.2924 1435.0508,-485.7364 1430.1613,-525.1309 1428.2285,-568.7364 1427.6499,-619.5562 1447.0613,-612.5148 1449.3397,-611.7936 1450.6351,-522.478 1454.062,-488.5676 1457.869,-485.4865 1457.6411,-485.1706 1454.1129,-482.3656 1454.1129,-482.3656 1457.6411,-485.1706 1457.869,-485.4865 1454.062,-488.5676 1450.6351,-522.478 1449.3397,-611.7936 1455.6553,-610.0797 1465.5648,-607.6143 1485.5355,-604.0007 1486.9524,-603.777 1486.9524,-603.777"/>
<polyline fill="none" stroke="#000000" points="760.8989,-514.5043 745.2761,-513.4322 732.507,-513.0894 649.4417,-494.5146 646.4576,-496.5573 580.3338,-472.7774 536.479,-454.9496 525.9394,-451.3874 522.598,-450.724 514.441,-449.6615 505.1185,-449.094 502.1182,-449.1199 501.838,-449.1046 499.1998,-449.326 492.0343,-449.4722 491.6389,-449.4552 489.017,-449.1751 488.0405,-449.1388 476.2933,-447.9516 472.0364,-447.2533 465.2155,-445.2675 456.8565,-442.2994 453.8698,-441.0535 444.9032,-436.1523 453.2878,-408.0866 455.4671,-397.7247 455.5737,-394.3953 456.907,-383.5893 461.2598,-363.4021 470.7379,-331.6764 487.8967,-327.2099 496.863,-324.4734 502.0156,-322.6725 516.0432,-317.1472 529.6215,-310.0284 577.8478,-278.3661 578.2363,-278.1247 577.4489,-251.9763 578.1697,-215.9858 577.8813,-157.9397 655.4102,-88.7304 689.2274,-94.2276 706.7463,-98.2135 707.5234,-98.3635 710.6595,-98.8616 725.9149,-104.7623 733.9792,-107.5647 737.4073,-108.6886 747.9002,-111.9233 750.8066,-112.7617 774.3514,-118.1766 868.9832,-195.5186 936.6761,-182.3716 954.2619,-178.5489 962.6492,-176.3443 966.6508,-175.11 970.0942,-176.122 987.3135,-180.4042 997.6764,-182.2713 1042.3164,-189.2962 1094.1229,-214.6529 1098.0089,-272.9913 1098.2341,-302.01 1099.8668,-318.8839 1105.9572,-410.3158 1059.5947,-451.2235 1000.7744,-460.3069 984.9288,-463.0215 982.9018,-462.5082 969.2323,-459.9755 959.583,-458.5153 952.4478,-457.5571 935.3674,-455.8444 927.4608,-455.1869 807.6078,-523.7742 795.9985,-520.7965 782.1021,-517.8097 778.4373,-517.1753 760.8989,-514.5043 "/>
<polyline fill="none" stroke="#000000" points="461.2598,-363.4021 456.907,-383.5893 455.5737,-394.3953 455.4671,-397.7247 453.2878,-408.0866 444.9032,-436.1523 453.8698,-441.0535 456.8565,-442.2994 465.2155,-445.2675 472.0364,-447.2533 476.2933,-447.9516 488.0405,-449.1388 489.017,-449.1751 491.6389,-449.4552 492.0343,-449.4722 499.1998,-449.326 501.838,-449.1046 502.1182,-449.1199 505.1185,-449.094 514.441,-449.6615 522.598,-450.724 525.9394,-451.3874 536.479,-454.9496 580.3338,-472.7774 646.4576,-496.5573 635.0226,-511.8054 629.5786,-519.4318 568.6724,-609.3135 507.5149,-640.7142 499.982,-644.758 491.053,-649.969 490.0187,-649.7538 481.7988,-648.1911 476.0519,-647.2018 467.9812,-645.9575 461.0667,-645.2633 449.9462,-644.3456 443.4187,-643.9241 432.5601,-643.8058 429.165,-643.9511 420.0171,-641.5367 410.5178,-639.3966 405.6136,-638.387 401.3301,-636.6716 396.4005,-634.9107 382.7582,-630.3309 377.4535,-628.8951 358.8609,-624.6564 256.0461,-605.6799 255.8884,-603.29 260.7366,-591.5612 264.2239,-583.9516 267.8291,-576.8507 283.8761,-546.8475 304.9411,-512.4017 313.04,-497.2938 319.0608,-483.9633 325.1216,-467.1912 335.2218,-444.886 339.151,-438.4609 309.8205,-397.9549 300.3868,-395.7701 296.0338,-395.217 292.8757,-394.9781 289.9436,-394.907 288.0603,-394.9586 279.8231,-394.7718 276.3306,-395.0561 266.7865,-394.8732 265.4018,-394.7773 265.2594,-394.7749 262.1927,-394.8802 261.2842,-394.8662 259.3356,-394.7391 255.5599,-394.6875 252.8917,-394.927 248.0197,-394.8774 240.586,-395.1877 237.5527,-395.0105 232.7122,-394.9785 229.6514,-394.8061 226.0533,-394.4246 222.5551,-393.8793 157.8397,-380.5414 134.682,-413.2751 131.7198,-414.3836 129.4663,-415.1548 120.5229,-417.9327 120.343,-417.9828 120.0276,-418.0608 108.3736,-420.5767 101.4007,-421.8606 90.086,-423.2264 86.4398,-423.4353 81.2717,-423.5681 79.8013,-423.6548 74.8877,-423.7886 66.935,-423.753 64.9642,-423.875 59.4522,-424.0412 53.2748,-424.4322 44.3515,-425.2921 39.2681,-426.117 24.6731,-429.458 -53.3253,-449.8656 -109.1551,-361.5388 -104.9794,-340.5197 -102.9913,-327.3929 -94.3281,-259.5691 -35.2333,-219.0694 31.2593,-206.1901 35.8342,-205.2015 47.0449,-202.2744 47.3427,-202.19 53.322,-200.3601 63.4287,-196.8078 72.9668,-193.2396 79.9857,-190.457 87.5076,-187.3081 106.7172,-184.9279 143.6839,-131.9338 150.4091,-78.2197 151.3205,-68.8552 154.133,-1.1666 184.1618,37.1695 233.6863,54.2887 259.635,59.4133 263.6281,60.3731 276.8883,58.5277 291.9233,57.3763 295.3197,57.1872 311.6935,57.2994 315.5786,57.407 339.06,58.5457 392.3696,98.7527 439.4658,103.8456 449.2911,105.1352 457.8045,103.0036 461.7075,102.121 479.6578,99.7723 487.0327,98.9844 493.1955,98.6209 532.8461,98.175 593.2304,64.687 628.0959,3.3366 628.7059,.8061 646.394,-59.9668 655.4102,-88.7304 577.8813,-157.9397 578.1697,-215.9858 577.4489,-251.9763 578.2363,-278.1247 577.8478,-278.3661 529.6215,-310.0284 516.0432,-317.1472 502.0156,-322.6725 496.863,-324.4734 487.8967,-327.2099 470.7379,-331.6764 461.2598,-363.4021 "/>
<polyline fill="none" stroke="#000000" points="260.7366,-591.5612 264.2239,-583.9516 267.8291,-576.8507 283.8761,-546.8475 304.9411,-512.4017 313.04,-497.2938 319.0608,-483.9633 325.1216,-467.1912 335.2218,-444.886 339.151,-438.4609 309.8205,-397.9549 300.3868,-395.7701 296.0338,-395.217 292.8757,-394.9781 289.9436,-394.907 288.0603,-394.9586 279.8231,-394.7718 276.3306,-395.0561 266.7865,-394.8732 265.4018,-394.7773 265.2594,-394.7749 262.1927,-394.8802 261.2842,-394.8662 259.3356,-394.7391 255.5599,-394.6875 252.8917,-394.927 248.0197,-394.8774 240.586,-395.1877 237.5527,-395.0105 232.7122,-394.9785 229.6514,-394.8061 226.0533,-394.4246 222.5551,-393.8793 157.8397,-380.5414 134.682,-413.2751 131.7198,-414.3836 129.4663,-415.1548 120.5229,-417.9327 120.343,-417.9828 120.0276,-418.0608 108.3736,-420.5767 101.4007,-421.8606 90.086,-423.2264 86.4398,-423.4353 81.2717,-423.5681 79.8013,-423.6548 74.8877,-423.7886 66.935,-423.753 64.9642,-423.875 59.4522,-424.0412 53.2748,-424.4322 44.3515,-425.2921 39.2681,-426.117 24.6731,-429.458 -53.3253,-449.8656 -58.0466,-495.5415 -55.611,-504.1965 -50.7789,-525.2711 -32.6481,-614.7565 45.3388,-633.8957 68.6776,-630.4548 83.9853,-628.8997 90.5887,-628.3813 102.1055,-628.2722 120.2869,-629.3553 126.0998,-629.9683 135.4802,-631.3892 136.3175,-631.5352 137.9712,-631.2933 240.0004,-618.6954 256.0461,-605.6799 255.8884,-603.29 260.7366,-591.5612 "/>
<polyline fill="none" stroke="#000000" points="1388.5165,-72.359 1391.8043,-71.0173 1392.9667,-71.0353 1411.5499,-70.6279 1422.9919,-69.9499 1426.3911,-69.6852 1431.5598,-70.6374 1512.8511,-133.9467 1520.5132,-145.6153 1526.8909,-166.5577 1535.0948,-215.1665 1535.2555,-215.8893 1538.8253,-230.1989 1592.5176,-289.9178 1597.7971,-320.6089 1606.2665,-359.1496 1602.9994,-365.4913 1590.7638,-390.5901 1596.8276,-467.6978 1599.704,-494.5606 1604.9435,-526.7166 1543.2459,-597.4476 1486.9524,-603.777 1485.5355,-604.0007 1465.5648,-607.6143 1455.6553,-610.0797 1449.3397,-611.7936 1447.0613,-612.5148 1427.6499,-619.5562 1413.7716,-625.5323 1409.8313,-627.4061 1397.8756,-633.3632 1306.8152,-559.1456 1296.983,-500.5299 1293.78,-484.1832 1290.9028,-471.3207 1280.8781,-431.3826 1264.3455,-425.7519 1251.1948,-422.1112 1245.6758,-420.7014 1234.6504,-418.3551 1224.6398,-416.6523 1216.2023,-415.5773 1210.7006,-415.1107 1192.7415,-413.97 1105.9572,-410.3158 1099.8668,-318.8839 1098.2341,-302.01 1098.0089,-272.9913 1094.1229,-214.6529 1191.5247,-161.0464 1204.2627,-153.6829 1231.1871,-102.5023 1231.9619,-101.9697 1252.996,-94.312 1327.3518,-88.1042 1328.0559,-88.0302 1343.7631,-85.3593 1355.7604,-82.5374 1371.3721,-78.1853 1374.3123,-77.2391 1388.5165,-72.359 "/>
<!-- filesystem&#45;&gt;setup -->
<g id="edge1" class="edge">
<title>filesystem&#45;&gt;setup</title>
<path fill="none" stroke="#444444" stroke-opacity="0.333333" d="M816.0344,-362.1173C845.3321,-350.6819 883.4148,-335.8175 914.3784,-323.7318"/>
<polygon fill="#444444" fill-opacity="0.333333" stroke="#444444" stroke-opacity="0.333333" points="915.6987,-326.9737 923.7416,-320.0772 913.1534,-320.4529 915.6987,-326.9737"/>
</g>
<!-- filesystem&#45;&gt;bash -->
<g id="edge2" class="edge">
<title>filesystem&#45;&gt;bash</title>
<path fill="none" stroke="#444444" stroke-opacity="0.333333" d="M712.854,-379.0884C671.0872,-381.1524 614.5646,-385.7617 572.3993,-390.5277"/>
<polygon fill="#444444" fill-opacity="0.333333" stroke="#444444" stroke-opacity="0.333333" points="571.8056,-387.0732 562.2786,-391.7085 572.6168,-394.026 571.8056,-387.0732"/>
</g>
<!-- setup&#45;&gt;setup -->
<g id="edge3" class="edge">
<title>setup&#45;&gt;setup</title>
<path fill="none" stroke="#444444" stroke-opacity="0.333333" d="M1024.0373,-308.4597C1034.5586,-307.7107 1042.03,-305.5608 1042.03,-302.01 1042.03,-299.7353 1038.9637,-298.0355 1033.9936,-296.9106"/>
<polygon fill="#444444" fill-opacity="0.333333" stroke="#444444" stroke-opacity="0.333333" points="1034.4169,-293.4361 1024.0373,-295.5603 1033.4762,-300.3726 1034.4169,-293.4361"/>
</g>
<!-- setup&#45;&gt;fedora&#45;release -->
<g id="edge4" class="edge">
<title>setup&#45;&gt;fedora&#45;release</title>
<path fill="none" stroke="#444444" stroke-opacity="0.333333" d="M1024.2577,-299.2639C1060.6383,-297.4216 1109.3536,-294.9547 1151.0881,-292.8412"/>
<polygon fill="#444444" fill-opacity="0.333333" stroke="#444444" stroke-opacity="0.333333" points="1151.4481,-296.3276 1161.2582,-292.3262 1151.094,-289.3365 1151.4481,-296.3276"/>
</g>
<!-- bash&#45;&gt;filesystem -->
<g id="edge5" class="edge">
<title>bash&#45;&gt;filesystem</title>
<path fill="none" stroke="#444444" stroke-opacity="0.333333" d="M562.2999,-402.5996C601.9605,-400.8936 658.42,-396.471 702.4443,-391.7303"/>
<polygon fill="#444444" fill-opacity="0.333333" stroke="#444444" stroke-opacity="0.333333" points="702.9378,-395.1971 712.4919,-390.6178 702.1674,-388.2396 702.9378,-395.1971"/>
</g>
<!-- bash&#45;&gt;bash -->
<g id="edge6" class="edge">
<title>bash&#45;&gt;bash</title>
<path fill="none" stroke="#444444" stroke-opacity="0.333333" d="M562.3841,-407.6921C572.7119,-407.0288 580.17,-404.8514 580.17,-401.16 580.17,-398.8529 577.2567,-397.1372 572.5503,-396.0129"/>
<polygon fill="#444444" fill-opacity="0.333333" stroke="#444444" stroke-opacity="0.333333" points="572.7651,-392.5099 562.3841,-394.6279 571.8201,-399.4458 572.7651,-392.5099"/>
</g>
<!-- bash&#45;&gt;glibc -->
<g id="edge7" class="edge">
<title>bash&#45;&gt;glibc</title>
<path fill="none" stroke="#444444" stroke-opacity="0.333333" d="M503.0393,-383.0926C488.8664,-359.005 463.6552,-316.1572 447.1481,-288.1025"/>
<polygon fill="#444444" fill-opacity="0.333333" stroke="#444444" stroke-opacity="0.333333" points="450,-286.0477 441.9122,-279.2039 443.9669,-289.5976 450,-286.0477"/>
</g>
<!-- bash&#45;&gt;ncurses&#45;libs -->
<g id="edge8" class="edge">
<title>bash&#45;&gt;ncurses&#45;libs</title>
<path fill="none" stroke="#444444" stroke-opacity="0.333333" d="M465.0763,-410.7966C427.3775,-418.2727 374.3574,-428.7871 330.6457,-437.4556"/>
<polygon fill="#444444" fill-opacity="0.333333" stroke="#444444" stroke-opacity="0.333333" points="329.7401,-434.067 320.612,-439.4454 331.1019,-440.9333 329.7401,-434.067"/>
</g>
<!-- fedora&#45;release&#45;&gt;fedora&#45;release&#45;common -->
<g id="edge21" class="edge">
<title>fedora&#45;release&#45;&gt;fedora&#45;release&#45;common</title>
<path fill="none" stroke="#444444" stroke-opacity="0.333333" d="M1297.5322,-270.3305C1315.4172,-261.0205 1333.8656,-249.8466 1347.514,-239.8123"/>
<polygon fill="#444444" fill-opacity="0.333333" stroke="#444444" stroke-opacity="0.333333" points="1349.9935,-242.3177 1355.7357,-233.4139 1345.6943,-236.7934 1349.9935,-242.3177"/>
</g>
<!-- glibc&#45;&gt;glibc -->
<g id="edge9" class="edge">
<title>glibc&#45;&gt;glibc</title>
<path fill="none" stroke="#444444" stroke-opacity="0.333333" d="M484.3172,-267.2097C494.6923,-266.4607 502.06,-264.3108 502.06,-260.76 502.06,-258.5408 499.182,-256.8687 494.4905,-255.744"/>
<polygon fill="#444444" fill-opacity="0.333333" stroke="#444444" stroke-opacity="0.333333" points="494.7078,-252.2401 484.3172,-254.3103 493.7309,-259.1716 494.7078,-252.2401"/>
</g>
<!-- glibc&#45;&gt;basesystem -->
<g id="edge10" class="edge">
<title>glibc&#45;&gt;basesystem</title>
<path fill="none" stroke="#444444" stroke-opacity="0.333333" d="M484.3936,-260.5455C532.5719,-260.3517 603.8805,-260.0648 657.1573,-259.8505"/>
<polygon fill="#444444" fill-opacity="0.333333" stroke="#444444" stroke-opacity="0.333333" points="657.2367,-263.3503 667.2225,-259.81 657.2085,-256.3504 657.2367,-263.3503"/>
</g>
<!-- glibc&#45;&gt;glibc&#45;common -->
<g id="edge11" class="edge">
<title>glibc&#45;&gt;glibc&#45;common</title>
<path fill="none" stroke="#444444" stroke-opacity="0.333333" d="M380.0786,-278.7875C357.0965,-289.2696 330.5838,-302.4698 310.0635,-313.7092"/>
<polygon fill="#444444" fill-opacity="0.333333" stroke="#444444" stroke-opacity="0.333333" points="308.1163,-310.7877 301.0911,-318.7185 311.5286,-316.8997 308.1163,-310.7877"/>
</g>
<!-- glibc&#45;&gt;glibc&#45;minimal&#45;langpack -->
<g id="edge12" class="edge">
<title>glibc&#45;&gt;glibc&#45;minimal&#45;langpack</title>
<path fill="none" stroke="#444444" stroke-opacity="0.333333" d="M427.3439,-278.9275C423.9069,-319.8349 424.1548,-419.4247 427.5336,-468.6034"/>
<polygon fill="#444444" fill-opacity="0.333333" stroke="#444444" stroke-opacity="0.333333" points="424.0669,-469.1605 428.3538,-478.8494 431.0446,-468.602 424.0669,-469.1605"/>
</g>
<!-- glibc&#45;&gt;libgcc -->
<g id="edge13" class="edge">
<title>glibc&#45;&gt;libgcc</title>
<path fill="none" stroke="#444444" stroke-opacity="0.333333" d="M434.0853,-242.5135C441.0516,-200.4974 458.2664,-96.6697 466.617,-46.3046"/>
<polygon fill="#444444" fill-opacity="0.333333" stroke="#444444" stroke-opacity="0.333333" points="470.1216,-46.5649 468.3045,-36.127 463.2159,-45.4198 470.1216,-46.5649"/>
</g>
<!-- ncurses&#45;libs&#45;&gt;glibc -->
<g id="edge14" class="edge">
<title>ncurses&#45;libs&#45;&gt;glibc</title>
<path fill="none" stroke="#444444" stroke-opacity="0.333333" d="M268.8999,-434.9508C300.8836,-400.5942 370.4979,-325.8152 407.2443,-286.3426"/>
<polygon fill="#444444" fill-opacity="0.333333" stroke="#444444" stroke-opacity="0.333333" points="409.8824,-288.6454 414.1345,-278.9412 404.7589,-283.8757 409.8824,-288.6454"/>
</g>
<!-- ncurses&#45;libs&#45;&gt;ncurses&#45;libs -->
<g id="edge15" class="edge">
<title>ncurses&#45;libs&#45;&gt;ncurses&#45;libs</title>
<path fill="none" stroke="#444444" stroke-opacity="0.333333" d="M320.5853,-459.226C331.2734,-458.3012 338.56,-456.2392 338.56,-453.04 338.56,-450.9905 335.5696,-449.4077 330.6102,-448.2917"/>
<polygon fill="#444444" fill-opacity="0.333333" stroke="#444444" stroke-opacity="0.333333" points="330.9809,-444.8091 320.5853,-446.854 329.9872,-451.7382 330.9809,-444.8091"/>
</g>
<!-- ncurses&#45;libs&#45;&gt;ncurses&#45;base -->
<g id="edge16" class="edge">
<title>ncurses&#45;libs&#45;&gt;ncurses&#45;base</title>
<path fill="none" stroke="#444444" stroke-opacity="0.333333" d="M206.1426,-471.1638C191.3476,-477.0035 174.7987,-483.5354 159.4161,-489.607"/>
<polygon fill="#444444" fill-opacity="0.333333" stroke="#444444" stroke-opacity="0.333333" points="158.0318,-486.3905 150.0152,-493.3176 160.6018,-492.9017 158.0318,-486.3905"/>
</g>
<!-- basesystem&#45;&gt;filesystem -->
<g id="edge25" class="edge">
<title>basesystem&#45;&gt;filesystem</title>
<path fill="none" stroke="#444444" stroke-opacity="0.333333" d="M735.4403,-277.612C742.0878,-297.4136 752.8365,-329.4311 760.5543,-352.4205"/>
<polygon fill="#444444" fill-opacity="0.333333" stroke="#444444" stroke-opacity="0.333333" points="757.2577,-353.5984 763.7583,-361.9645 763.8937,-351.3706 757.2577,-353.5984"/>
</g>
<!-- basesystem&#45;&gt;setup -->
<g id="edge26" class="edge">
<title>basesystem&#45;&gt;setup</title>
<path fill="none" stroke="#444444" stroke-opacity="0.333333" d="M791.6663,-270.5471C826.6501,-276.7182 870.2411,-284.4075 905.5722,-290.6398"/>
<polygon fill="#444444" fill-opacity="0.333333" stroke="#444444" stroke-opacity="0.333333" points="905.3213,-294.1495 915.7773,-292.44 906.5374,-287.256 905.3213,-294.1495"/>
</g>
<!-- glibc&#45;common&#45;&gt;bash -->
<g id="edge27" class="edge">
<title>glibc&#45;common&#45;&gt;bash</title>
<path fill="none" stroke="#444444" stroke-opacity="0.333333" d="M342.8584,-354.9926C378.2185,-364.5498 421.2308,-376.1753 455.2469,-385.3692"/>
<polygon fill="#444444" fill-opacity="0.333333" stroke="#444444" stroke-opacity="0.333333" points="454.4745,-388.786 465.0413,-388.0165 456.301,-382.0285 454.4745,-388.786"/>
</g>
<!-- glibc&#45;common&#45;&gt;glibc -->
<g id="edge28" class="edge">
<title>glibc&#45;common&#45;&gt;glibc</title>
<path fill="none" stroke="#444444" stroke-opacity="0.333333" d="M327.0114,-318.9025C349.9935,-308.4204 376.5062,-295.2202 397.0265,-283.9808"/>
<polygon fill="#444444" fill-opacity="0.333333" stroke="#444444" stroke-opacity="0.333333" points="398.9737,-286.9023 405.9989,-278.9715 395.5614,-280.7903 398.9737,-286.9023"/>
</g>
<!-- glibc&#45;common&#45;&gt;libselinux -->
<g id="edge29" class="edge">
<title>glibc&#45;common&#45;&gt;libselinux</title>
<path fill="none" stroke="#444444" stroke-opacity="0.333333" d="M277.1952,-318.9236C278.5882,-297.3965 280.9364,-261.1096 282.5741,-235.8005"/>
<polygon fill="#444444" fill-opacity="0.333333" stroke="#444444" stroke-opacity="0.333333" points="286.0745,-235.9061 283.2277,-225.701 279.0891,-235.454 286.0745,-235.9061"/>
</g>
<!-- glibc&#45;common&#45;&gt;tzdata -->
<g id="edge30" class="edge">
<title>glibc&#45;common&#45;&gt;tzdata</title>
<path fill="none" stroke="#444444" stroke-opacity="0.333333" d="M199.8711,-336.658C172.0991,-336.5589 141.0398,-336.448 114.5828,-336.3535"/>
<polygon fill="#444444" fill-opacity="0.333333" stroke="#444444" stroke-opacity="0.333333" points="114.321,-332.8526 104.3086,-336.3168 114.296,-339.8526 114.321,-332.8526"/>
</g>
<!-- glibc&#45;minimal&#45;langpack&#45;&gt;glibc -->
<g id="edge31" class="edge">
<title>glibc&#45;minimal&#45;langpack&#45;&gt;glibc</title>
<path fill="none" stroke="#444444" stroke-opacity="0.333333" d="M435.9761,-478.8725C439.4131,-437.9651 439.1652,-338.3753 435.7864,-289.1966"/>
<polygon fill="#444444" fill-opacity="0.333333" stroke="#444444" stroke-opacity="0.333333" points="439.2531,-288.6395 434.9662,-278.9506 432.2754,-289.198 439.2531,-288.6395"/>
</g>
<!-- glibc&#45;minimal&#45;langpack&#45;&gt;glibc&#45;common -->
<g id="edge32" class="edge">
<title>glibc&#45;minimal&#45;langpack&#45;&gt;glibc&#45;common</title>
<path fill="none" stroke="#444444" stroke-opacity="0.333333" d="M414.6421,-478.9846C386.8639,-450.5165 332.787,-395.0966 301.0106,-362.531"/>
<polygon fill="#444444" fill-opacity="0.333333" stroke="#444444" stroke-opacity="0.333333" points="303.3121,-359.878 293.8232,-355.1651 298.302,-364.7667 303.3121,-359.878"/>
</g>
<!-- fedora&#45;release&#45;common&#45;&gt;fedora&#45;release -->
<g id="edge18" class="edge">
<title>fedora&#45;release&#45;common&#45;&gt;fedora&#45;release</title>
<path fill="none" stroke="#444444" stroke-opacity="0.333333" d="M1308.8678,-233.5195C1290.9828,-242.8295 1272.5344,-254.0034 1258.886,-264.0377"/>
<polygon fill="#444444" fill-opacity="0.333333" stroke="#444444" stroke-opacity="0.333333" points="1256.4065,-261.5323 1250.6643,-270.4361 1260.7057,-267.0566 1256.4065,-261.5323"/>
</g>
<!-- fedora&#45;release&#45;common&#45;&gt;fedora&#45;release -->
<g id="edge19" class="edge">
<title>fedora&#45;release&#45;common&#45;&gt;fedora&#45;release</title>
<path fill="none" stroke="#444444" stroke-dasharray="5,2" stroke-opacity="0.333333" d="M1336.1663,-233.4624C1318.9257,-243.1179 1297.5118,-255.1107 1279.0878,-265.429"/>
<polygon fill="#444444" fill-opacity="0.333333" stroke="#444444" stroke-opacity="0.333333" points="1277.3295,-262.4021 1270.3148,-270.3422 1280.75,-268.5095 1277.3295,-262.4021"/>
</g>
<!-- fedora&#45;release&#45;common&#45;&gt;fedora&#45;release&#45;common -->
<g id="edge17" class="edge">
<title>fedora&#45;release&#45;common&#45;&gt;fedora&#45;release&#45;common</title>
<path fill="none" stroke="#444444" stroke-opacity="0.333333" d="M1476.8304,-220.9137C1487.5696,-219.811 1494.4,-217.9764 1494.4,-215.41 1494.4,-213.7659 1491.5968,-212.4221 1486.7585,-211.3787"/>
<polygon fill="#444444" fill-opacity="0.333333" stroke="#444444" stroke-opacity="0.333333" points="1487.2357,-207.9113 1476.8304,-209.9063 1486.2087,-214.8355 1487.2357,-207.9113"/>
</g>
<!-- fedora&#45;release&#45;common&#45;&gt;fedora&#45;repos -->
<g id="edge20" class="edge">
<title>fedora&#45;release&#45;common&#45;&gt;fedora&#45;repos</title>
<path fill="none" stroke="#444444" stroke-opacity="0.333333" d="M1378.2569,-233.6126C1388.9781,-253.4112 1406.2312,-285.2723 1418.5633,-308.0459"/>
<polygon fill="#444444" fill-opacity="0.333333" stroke="#444444" stroke-opacity="0.333333" points="1415.5108,-309.7592 1423.3503,-316.8861 1421.6662,-306.4259 1415.5108,-309.7592"/>
</g>
<!-- fedora&#45;repos&#45;&gt;fedora&#45;release -->
<g id="edge22" class="edge">
<title>fedora&#45;repos&#45;&gt;fedora&#45;release</title>
<path fill="none" stroke="#444444" stroke-opacity="0.333333" d="M1365.2677,-318.9504C1351.5828,-315.6696 1337.0407,-312.1834 1322.8644,-308.7849"/>
<polygon fill="#444444" fill-opacity="0.333333" stroke="#444444" stroke-opacity="0.333333" points="1323.6639,-305.3774 1313.1235,-306.4496 1322.0319,-312.1845 1323.6639,-305.3774"/>
</g>
<!-- fedora&#45;repos&#45;&gt;fedora&#45;repos -->
<g id="edge23" class="edge">
<title>fedora&#45;repos&#45;&gt;fedora&#45;repos</title>
<path fill="none" stroke="#444444" stroke-opacity="0.333333" d="M1501.4292,-341.446C1512.0555,-340.5212 1519.3,-338.4592 1519.3,-335.26 1519.3,-333.2105 1516.3268,-331.6277 1511.3961,-330.5117"/>
<polygon fill="#444444" fill-opacity="0.333333" stroke="#444444" stroke-opacity="0.333333" points="1511.8265,-327.0376 1501.4292,-329.074 1510.8271,-333.9659 1511.8265,-327.0376"/>
</g>
<!-- fedora&#45;repos&#45;&gt;fedora&#45;gpg&#45;keys -->
<g id="edge24" class="edge">
<title>fedora&#45;repos&#45;&gt;fedora&#45;gpg&#45;keys</title>
<path fill="none" stroke="#444444" stroke-opacity="0.333333" d="M1435.1455,-353.3825C1437.7761,-379.2137 1442.6281,-426.8579 1445.7302,-457.3193"/>
<polygon fill="#444444" fill-opacity="0.333333" stroke="#444444" stroke-opacity="0.333333" points="1442.2527,-457.7194 1446.7479,-467.3133 1449.2167,-457.0101 1442.2527,-457.7194"/>
</g>
<!-- libselinux&#45;&gt;glibc -->
<g id="edge33" class="edge">
<title>libselinux&#45;&gt;glibc</title>
<path fill="none" stroke="#444444" stroke-opacity="0.333333" d="M334.059,-225.4851C346.2427,-229.9158 359.4034,-234.7017 371.9822,-239.2761"/>
<polygon fill="#444444" fill-opacity="0.333333" stroke="#444444" stroke-opacity="0.333333" points="370.8681,-242.5951 381.4621,-242.7235 373.2604,-236.0166 370.8681,-242.5951"/>
</g>
<!-- libselinux&#45;&gt;libsepol -->
<g id="edge34" class="edge">
<title>libselinux&#45;&gt;libsepol</title>
<path fill="none" stroke="#444444" stroke-opacity="0.333333" d="M295.6618,-225.677C314.5808,-256.3579 352.8481,-318.4157 374.8544,-354.1032"/>
<polygon fill="#444444" fill-opacity="0.333333" stroke="#444444" stroke-opacity="0.333333" points="372.1111,-356.3227 380.339,-362.9975 378.0693,-352.6486 372.1111,-356.3227"/>
</g>
<!-- libselinux&#45;&gt;pcre2 -->
<g id="edge35" class="edge">
<title>libselinux&#45;&gt;pcre2</title>
<path fill="none" stroke="#444444" stroke-opacity="0.333333" d="M284.7377,-189.1621C285.1453,-166.4403 285.8459,-127.3882 286.3254,-100.6586"/>
<polygon fill="#444444" fill-opacity="0.333333" stroke="#444444" stroke-opacity="0.333333" points="289.8297,-100.4483 286.5097,-90.3871 282.8308,-100.3227 289.8297,-100.4483"/>
</g>
<!-- libsepol&#45;&gt;bash -->
<g id="edge36" class="edge">
<title>libsepol&#45;&gt;bash</title>
<path fill="none" stroke="#444444" stroke-opacity="0.333333" d="M452.555,-391.08C453.3383,-391.2092 454.1217,-391.3384 454.9045,-391.4675"/>
<polygon fill="#444444" fill-opacity="0.333333" stroke="#444444" stroke-opacity="0.333333" points="454.574,-394.9602 465.0103,-393.1343 455.7132,-388.0535 454.574,-394.9602"/>
</g>
<!-- libsepol&#45;&gt;glibc -->
<g id="edge37" class="edge">
<title>libsepol&#45;&gt;glibc</title>
<path fill="none" stroke="#444444" stroke-opacity="0.333333" d="M397.3715,-362.9989C403.8779,-343.2532 414.3981,-311.3259 421.952,-288.4014"/>
<polygon fill="#444444" fill-opacity="0.333333" stroke="#444444" stroke-opacity="0.333333" points="425.2825,-289.4773 425.0879,-278.8842 418.6341,-287.2865 425.2825,-289.4773"/>
</g>
<!-- pcre2&#45;&gt;glibc -->
<g id="edge38" class="edge">
<title>pcre2&#45;&gt;glibc</title>
<path fill="none" stroke="#444444" stroke-opacity="0.333333" d="M300.6684,-90.0774C326.2965,-123.6246 381.2599,-195.5717 410.9856,-234.4827"/>
<polygon fill="#444444" fill-opacity="0.333333" stroke="#444444" stroke-opacity="0.333333" points="408.4215,-236.8916 417.2734,-242.7134 413.984,-232.6421 408.4215,-236.8916"/>
</g>
<!-- pcre2&#45;&gt;pcre2 -->
<g id="edge39" class="edge">
<title>pcre2&#45;&gt;pcre2</title>
<path fill="none" stroke="#444444" stroke-opacity="0.333333" d="M341.9133,-78.403C352.4141,-77.634 359.84,-75.4916 359.84,-71.976 359.84,-69.7238 356.7924,-68.0352 351.8411,-66.9102"/>
<polygon fill="#444444" fill-opacity="0.333333" stroke="#444444" stroke-opacity="0.333333" points="352.2961,-63.4399 341.9133,-65.549 351.3451,-70.375 352.2961,-63.4399"/>
</g>
<!-- filesystem -->
<g id="node1" class="node">
<title>filesystem</title>
<text text-anchor="middle" x="769.86" y="-376.44" font-family="Helvetica,sans-Serif" font-weight="bold" font-size="14.00" fill="#000000">filesystem (0.0 B)</text>
</g>
<!-- setup -->
<g id="node2" class="node">
<title>setup</title>
<text text-anchor="middle" x="970.03" y="-298.31" font-family="Helvetica,sans-Serif" font-weight="bold" font-size="14.00" fill="#000000">setup (709.7 kB)</text>
</g>
<!-- bash -->
<g id="node3" class="node">
<title>bash</title>
<text text-anchor="middle" x="513.67" y="-397.46" font-family="Helvetica,sans-Serif" font-weight="bold" font-size="14.00" fill="#000000">bash (7.2 MB)</text>
</g>
<!-- fedora&#45;release -->
<g id="node4" class="node">
<title>fedora&#45;release</title>
<text text-anchor="middle" x="1238" y="-284.74" font-family="Helvetica,sans-Serif" font-weight="bold" font-size="14.00" fill="#000000">fedora&#45;release (691.0 B)</text>
</g>
<!-- glibc -->
<g id="node5" class="node">
<title>glibc</title>
<text text-anchor="middle" x="431.06" y="-257.06" font-family="Helvetica,sans-Serif" font-weight="bold" font-size="14.00" fill="#000000">glibc (16.5 MB)</text>
</g>
<!-- ncurses&#45;libs -->
<g id="node6" class="node">
<title>ncurses&#45;libs</title>
<text text-anchor="middle" x="252.06" y="-449.34" font-family="Helvetica,sans-Serif" font-weight="bold" font-size="14.00" fill="#000000">ncurses&#45;libs (1.0 MB)</text>
</g>
<!-- basesystem -->
<g id="node7" class="node">
<title>basesystem</title>
<text text-anchor="middle" x="729.38" y="-255.86" font-family="Helvetica,sans-Serif" font-weight="bold" font-size="14.00" fill="#000000">basesystem (0.0 B)</text>
</g>
<!-- glibc&#45;common -->
<g id="node8" class="node">
<title>glibc&#45;common</title>
<text text-anchor="middle" x="276.03" y="-333.23" font-family="Helvetica,sans-Serif" font-weight="bold" font-size="14.00" fill="#000000">glibc&#45;common (2.6 MB)</text>
</g>
<!-- glibc&#45;minimal&#45;langpack -->
<g id="node9" class="node">
<title>glibc&#45;minimal&#45;langpack</title>
<text text-anchor="middle" x="432.26" y="-491.44" font-family="Helvetica,sans-Serif" font-weight="bold" font-size="22.00" fill="#cc0066">glibc&#45;minimal&#45;langpack (0.0 B)</text>
</g>
<!-- libgcc -->
<g id="node10" class="node">
<title>libgcc</title>
<text text-anchor="middle" x="471.31" y="-14.3" font-family="Helvetica,sans-Serif" font-weight="bold" font-size="14.00" fill="#000000">libgcc (190.3 kB)</text>
</g>
<!-- ncurses&#45;base -->
<g id="node11" class="node">
<title>ncurses&#45;base</title>
<text text-anchor="middle" x="104.38" y="-507.63" font-family="Helvetica,sans-Serif" font-weight="bold" font-size="14.00" fill="#000000">ncurses&#45;base (275.1 kB)</text>
</g>
<!-- fedora&#45;release&#45;common -->
<g id="node12" class="node">
<title>fedora&#45;release&#45;common</title>
<text text-anchor="middle" x="1368.4" y="-211.71" font-family="Helvetica,sans-Serif" font-weight="bold" font-size="14.00" fill="#000000">fedora&#45;release&#45;common (14.0 kB)</text>
</g>
<!-- fedora&#45;repos -->
<g id="node13" class="node">
<title>fedora&#45;repos</title>
<text text-anchor="middle" x="1433.3" y="-331.56" font-family="Helvetica,sans-Serif" font-weight="bold" font-size="14.00" fill="#000000">fedora&#45;repos (8.6 kB)</text>
</g>
<!-- fedora&#45;gpg&#45;keys -->
<g id="node14" class="node">
<title>fedora&#45;gpg&#45;keys</title>
<text text-anchor="middle" x="1448.6" y="-481.8" font-family="Helvetica,sans-Serif" font-weight="bold" font-size="14.00" fill="#000000">fedora&#45;gpg&#45;keys (101.4 kB)</text>
</g>
<!-- libselinux -->
<g id="node15" class="node">
<title>libselinux</title>
<text text-anchor="middle" x="284.41" y="-203.73" font-family="Helvetica,sans-Serif" font-weight="bold" font-size="14.00" fill="#000000">libselinux (185.3 kB)</text>
</g>
<!-- tzdata -->
<g id="node16" class="node">
<title>tzdata</title>
<text text-anchor="middle" x="52" y="-332.43" font-family="Helvetica,sans-Serif" font-weight="bold" font-size="14.00" fill="#000000">tzdata (1.8 MB)</text>
</g>
<!-- libsepol -->
<g id="node17" class="node">
<title>libsepol</title>
<text text-anchor="middle" x="391.44" y="-377.3" font-family="Helvetica,sans-Serif" font-weight="bold" font-size="14.00" fill="#000000">libsepol (756.0 kB)</text>
</g>
<!-- pcre2 -->
<g id="node18" class="node">
<title>pcre2</title>
<text text-anchor="middle" x="286.84" y="-68.276" font-family="Helvetica,sans-Serif" font-weight="bold" font-size="14.00" fill="#000000">pcre2 (715.2 kB)</text>
</g>
</g>

<script type="text/javascript"><![CDATA[

document.addEventListener('click', function(e) {
      e = e || window.event;
      var target = e.target || e.srcElement;
      text = target.parentElement.querySelector("title").textContent;

      console.log("Clicked on: " + text);
      // reset all strokes
      var nodes = document.getElementsByClassName("edge");

      for (index = 0, len = nodes.length; index < len; ++index) {
          //var title = nodes[index].querySelector("title").textContent.split("->");
          id = nodes[index].id;
          document.getElementById(id).querySelector("path").setAttribute("stroke-width", "1");
          document.getElementById(id).querySelector("path").setAttribute("stroke-opacity", "0.5");
          document.getElementById(id).querySelector("path").setAttribute("stroke", "#444444");
          document.getElementById(id).querySelector("polygon").setAttribute("stroke-width", "1");
          document.getElementById(id).querySelector("polygon").setAttribute("stroke-opacity", "0.5");
          document.getElementById(id).querySelector("polygon").setAttribute("stroke", "#444444");
      }
      // reset text highlight
      pkgs = document.getElementsByClassName("node");
      for (index2 = 0, len2 = pkgs.length; index2 < len2; ++index2) {
          target_id = pkgs[index2].id;
          document.getElementById(target_id).querySelector("text").setAttribute("font-weight", "normal");
      }

      // highlight deps
      var nodes = document.getElementsByClassName("edge");
      for (index = 0, len = nodes.length; index < len; ++index) {
        var title = nodes[index].querySelector("title").textContent.split("->");

        if (title[0] == text) {
          id = nodes[index].id;
          //console.log("ID:   " + id);
          document.getElementById(id).querySelector("path").setAttribute("stroke-width", "3");
          document.getElementById(id).querySelector("path").setAttribute("stroke-opacity", "1");
          document.getElementById(id).querySelector("path").setAttribute("stroke", "#aa3333");
          document.getElementById(id).querySelector("polygon").setAttribute("stroke-width", "5");
          document.getElementById(id).querySelector("polygon").setAttribute("stroke-opacity", "1");
          document.getElementById(id).querySelector("polygon").setAttribute("stroke", "#aa3333");

        }
        if (title[1] == text) {
          id = nodes[index].id;
          document.getElementById(id).querySelector("path").setAttribute("stroke-width", "3");
          document.getElementById(id).querySelector("path").setAttribute("stroke-opacity", "1");
          document.getElementById(id).querySelector("path").setAttribute("stroke", "#333377");
          document.getElementById(id).querySelector("polygon").setAttribute("stroke-width", "5");
          document.getElementById(id).querySelector("polygon").setAttribute("stroke-opacity", "1");
          document.getElementById(id).querySelector("polygon").setAttribute("stroke", "#333377");
        }

        if (title[0] == text || title[1] == text) {
          pkgs = document.getElementsByClassName("node");
          for (index2 = 0, len2 = pkgs.length; index2 < len2; ++index2) {
            var pkg_name = pkgs[index2].querySelector("title").textContent;
            if (pkg_name == title[0] || pkg_name == title[1]) {
              target_id = pkgs[index2].id;
              document.getElementById(target_id).querySelector("text").setAttribute("font-weight", "bold");
            }
          }
        }
      }


  }, false);

]]></script>


  <text
     
     id="text7664"
     y="19.384439"
     x="9.9055691"
     style="font-style:normal;font-weight:normal;font-size:12.49485588px;line-height:125%;font-family:sans-serif;letter-spacing:0px;word-spacing:0px;fill:#000000;fill-opacity:1;stroke:none;stroke-width:0.3123714px;stroke-linecap:butt;stroke-linejoin:miter;stroke-opacity:1"
     xml:space="preserve"><tspan
       style="font-size:12.00258541px;stroke-width:0.3123714px"
       y="19.384439"
       x="9.9055691"
       id="tspan7666"
       ><a href="report-base-definition--minimal-langpack-base--31.html"><tspan
   style="font-weight:bold;font-size:12.00258541px;fill:#0066ff;stroke-width:0.3123714px"
   id="tspan7668">Minimal Base</tspan></a> (Fedora 31)</tspan></text>
  <text
     xml:space="preserve"
     style="font-style:normal;font-weight:normal;font-size:11.85299969px;line-height:125%;font-family:sans-serif;letter-spacing:0px;word-spacing:0px;fill:#000000;fill-opacity:1;stroke:none;stroke-width:0.296325px;stroke-linecap:butt;stroke-linejoin:miter;stroke-opacity:1"
     x="9.9365959"
     y="36.915382"
     id="text8235"><tspan
       
       id="tspan8237"
       x="9.9365959"
       y="36.915382"
       style="font-size:10.80232716px;fill:#666666;stroke-width:0.296325px">Generated by <a href="./"><tspan
   style="fill:#3771c8"
   id="tspan8255">Feedback Pipeline</tspan></a></tspan></text>

</svg>
