<?xml version="1.0" encoding="UTF-8" standalone="no"?>
<!DOCTYPE svg PUBLIC "-//W3C//DTD SVG 1.1//EN"
 "http://www.w3.org/Graphics/SVG/1.1/DTD/svg11.dtd">
<!-- Generated by graphviz version 2.40.1 (0)
 -->
<!-- Title: packages Pages: 1 -->
<svg width="1663pt" height="819pt"
 viewBox="0.00 0.00 1995.05 982.88" xmlns="http://www.w3.org/2000/svg" xmlns:xlink="http://www.w3.org/1999/xlink">
<g id="graph0" class="graph" transform="scale(.8333 .8333) rotate(0) translate(101.382 837.4461)">
<title>packages</title>
<polygon fill="#dae2ff" stroke="transparent" points="-101.382,145.4346 -101.382,-837.4461 1893.672,-837.4461 1893.672,145.4346 -101.382,145.4346"/>
<polygon fill="#fbb4ae" stroke="#fbb4ae" points="937.6438,-150.9018 950.0004,-151.8984 1059.6896,-156.0172 1062.0186,-270.1708 1062.5625,-281.4505 1062.5605,-281.7179 1062.6011,-283.7007 1062.4231,-308.0042 1064.0881,-389.6172 960.6855,-414.5019 948.6021,-415.3121 944.1093,-415.7152 943.4859,-348.1873 939.7659,-286.6014 935.9547,-286.6014 934.9442,-285.3921 929.101,-281.8836 924.6538,-281.8836 924.6538,-281.8836 929.101,-281.8836 934.9442,-285.3921 935.9547,-286.6014 934.4962,-288.3542 930.1709,-290.8705 923.326,-290.8705 918.7302,-288.2279 917.3781,-286.6694 913.7612,-286.6694 913.7161,-286.6562 913.7161,-286.6562 913.7612,-286.6694 917.3781,-286.6694 918.7302,-288.2279 923.326,-290.8705 930.1709,-290.8705 934.4962,-288.3542 935.9547,-286.6014 939.7659,-286.6014 943.4859,-348.1873 944.1093,-415.7152 941.4657,-416.0727 928.0388,-418.196 918.2174,-420.1969 910.2863,-421.9932 894.1982,-426.3687 902.7626,-291.6608 826.6013,-311.2282 830.1935,-326.6321 763.3566,-334.5872 751.4698,-332.2146 751.4698,-332.2146 763.3566,-334.5872 830.1935,-326.6321 826.6013,-311.2282 902.7626,-291.6608 894.1982,-426.3687 891.3328,-427.2119 863.7286,-424.7922 773.1002,-477.5911 751.7101,-480.2766 737.7571,-482.5852 734.3303,-483.2885 716.4527,-487.3148 714.9959,-487.7585 700.7928,-488.9123 615.082,-499.0492 590.9991,-519.9344 561.5493,-498.4495 520.7991,-467.3824 517.8292,-464.976 501.5116,-450.9118 492.5493,-444.1397 480.3287,-435.5622 462.7484,-426.0981 462.0696,-425.8088 418.2477,-409.461 409.3085,-405.6636 406.7122,-395.7124 403.6754,-380.9189 403.228,-376.0352 458.5005,-363.3075 463.1738,-357.749 463.1919,-357.7382 463.9136,-357.9613 464.7247,-397.2339 470.8333,-358.4736 471.2234,-358.4736 473.8407,-360.7171 473.8407,-360.7171 471.2234,-358.4736 470.8333,-358.4736 464.7247,-397.2339 463.9136,-357.9613 463.1919,-357.7382 463.1738,-357.749 458.5005,-363.3075 403.228,-376.0352 400.8001,-359.8482 395.9315,-336.3925 388.7407,-308.8323 410.0218,-289.2429 439.0325,-284.9834 453.0464,-284.016 454.2746,-283.8797 462.7267,-283.607 465.9931,-283.7575 471.5319,-284.2309 478.2044,-283.9689 485.329,-284.2463 486.243,-284.2063 487.599,-284.2526 489.9284,-284.2358 501.4776,-283.6714 506.5383,-283.623 550.2031,-281.401 557.2228,-259.8887 558.1516,-256.5822 561.6367,-241.8057 567.7081,-209.7602 567.7117,-209.7451 603.1675,-101.0895 630.7666,-79.9692 632.7917,-80.8224 655.0953,-89.0212 664.1417,-91.8526 665.7603,-92.3298 667.2942,-251.01 668.9543,-252.854 667.2199,-254.7054 662.256,-257.3542 657.723,-257.3542 657.723,-257.3542 662.256,-257.3542 667.2199,-254.7054 668.9543,-252.854 667.2942,-251.01 665.7603,-92.3298 671.9382,-94.04 681.9716,-96.6361 685.724,-97.471 802.9171,-121.4326 815.8738,-130.7026 817.1089,-130.6304 847.168,-130.8917 895.7872,-143.1854 910.5825,-146.6117 918.9932,-148.1968 937.4527,-150.8823 937.6438,-150.9018 937.6438,-150.9018"/>
<polygon fill="#fed9a6" stroke="#fed9a6" points="66.8304,-233.4769 63.7174,-233.022 -56.4507,-209.5798 -95.2476,-251.5291 -95.7024,-275.7797 -95.9934,-283.4736 -97.382,-307.8651 -91.4705,-328.0634 64.4169,-301.5364 68.9074,-296.6265 70.3465,-295.9238 70.4733,-295.8091 73.9749,-295.8091 74.5948,-295.9883 79.7349,-295.9883 81.0976,-295.5858 81.2363,-295.5858 85.9009,-299.7805 89.7837,-300.8565 89.7837,-300.8565 85.9009,-299.7805 81.2363,-295.5858 81.0976,-295.5858 79.7349,-295.9883 74.5948,-295.9883 73.9749,-295.8091 70.4733,-295.8091 70.3465,-295.9238 68.9074,-296.6265 64.4169,-301.5364 -91.4705,-328.0634 -61.9989,-436.6082 27.524,-444.4702 47.5588,-445.88 48.1359,-445.39 67.7823,-426.4235 77.7693,-417.5662 95.9527,-403.5381 102.6541,-398.9044 111.8792,-393.2444 113.034,-392.5813 136.032,-397.3813 192.6402,-414.768 195.7125,-415.3282 202.3313,-415.7245 203.1477,-415.6728 204.9968,-415.7821 209.9665,-415.4568 214.0812,-415.698 215.0487,-415.6347 215.8291,-415.679 218.0262,-415.5326 223.0882,-415.8201 226.2791,-415.6035 226.6385,-415.6232 227.5799,-415.5587 231.6749,-415.7843 236.3221,-415.4553 239.9739,-415.6524 240.2615,-415.7036 244.7619,-415.3788 247.9333,-415.5444 251.9077,-415.253 253.3561,-415.3265 256.1223,-415.8134 257.1967,-415.8666 261.9574,-415.5119 265.0829,-415.6632 272.1939,-416.8793 274.6321,-417.5887 275.8719,-390.5037 280.6621,-389.1169 284.5155,-385.7225 280.8408,-382.5277 280.8408,-382.5277 284.5155,-385.7225 280.6621,-389.1169 275.8719,-390.5037 274.6321,-417.5887 281.421,-420.4039 285.2839,-422.4713 288.7342,-424.744 297.5591,-431.6983 302.7487,-437.1066 306.2268,-440.2455 310.7246,-437.7587 313.9503,-436.2186 313.9503,-436.2186 310.7246,-437.7587 306.2268,-440.2455 303.5833,-449.3038 303.4736,-449.8094 300.0293,-473.6494 298.6658,-478.3627 261.639,-580.1558 258.7705,-581.2753 248.0471,-585.7126 244.7668,-587.2228 241.2776,-596.81 225.9856,-650.0555 210.2953,-699.9395 199.652,-729.1837 215.1989,-749.7362 298.2593,-811.209 336.7555,-833.4461 342.4962,-831.4589 358.4623,-826.2618 358.6797,-790.8668 364.9094,-684.173 369.126,-686.5223 374.8321,-686.5223 380.0784,-683.363 381.2832,-681.9107 380.2473,-680.7328 375.2291,-677.8458 375.2291,-677.8458 380.2473,-680.7328 381.2832,-681.9107 380.0784,-683.363 374.8321,-686.5223 375.5426,-739.6065 380.2718,-810.054 380.3978,-812.8377 385.6451,-682.0394 385.2066,-681.9107 386.1725,-578.7881 378.9858,-578.756 378.7148,-529.5809 378.7148,-529.5809 378.9858,-578.756 386.1725,-578.7881 385.2066,-681.9107 385.6451,-682.0394 380.3978,-812.8377 380.2718,-810.054 375.5426,-739.6065 374.8321,-686.5223 369.126,-686.5223 364.9094,-684.173 358.6797,-790.8668 358.4623,-826.2618 380.5799,-820.4514 384.2557,-819.7955 397.8174,-817.6573 451.9662,-810.2575 530.657,-721.6213 569.1773,-680.1749 565.2922,-658.0426 556.546,-594.9239 590.9991,-519.9344 561.5493,-498.4495 520.7991,-467.3824 517.8292,-464.976 501.5116,-450.9118 492.5493,-444.1397 480.3287,-435.5622 462.7484,-426.0981 462.0696,-425.8088 418.2477,-409.461 409.3085,-405.6636 406.7122,-395.7124 403.6754,-380.9189 403.228,-376.0352 400.8001,-359.8482 395.9315,-336.3925 388.7407,-308.8323 410.0218,-289.2429 439.0325,-284.9834 453.0464,-284.016 454.2746,-283.8797 462.7267,-283.607 465.9931,-283.7575 471.5319,-284.2309 478.2044,-283.9689 478.1473,-278.3324 474.6289,-211.8705 476.5223,-209.7521 475.2065,-208.2793 469.8947,-205.2613 470.2376,-148.3315 470.1509,-148.362 453.5765,-153.2926 444.1111,-154.5184 444.1111,-154.5184 453.5765,-153.2926 470.1509,-148.362 470.2376,-148.3315 469.8947,-205.2613 475.2065,-208.2793 476.5223,-209.7521 474.6289,-211.8705 478.1473,-278.3324 478.2044,-283.9689 485.329,-284.2463 486.243,-284.2063 487.599,-284.2526 489.9284,-284.2358 501.4776,-283.6714 506.5383,-283.623 550.2031,-281.401 557.2228,-259.8887 558.1516,-256.5822 561.6367,-241.8057 567.7081,-209.7602 567.7117,-209.7451 603.1675,-101.0895 630.7666,-79.9692 617.1911,-29.497 609.1478,10.0453 592.984,29.4404 537.6645,84.9588 468.5732,102.2081 466.9195,102.7302 451.5757,105.7743 452.22,7.4189 449.4516,-25.6844 453.7911,-29.3144 455.1339,-29.3144 455.7562,-29.1386 459.0638,-29.1386 460.6678,-29.5914 462.04,-29.5914 462.04,-29.5914 460.6678,-29.5914 457.2265,-69.2903 454.1124,-67.9858 449.6165,-66.5303 444.8795,-65.4439 440.446,-64.8442 437.0714,-64.7049 434.5619,-64.8388 429.7731,-64.6276 427.3212,-64.7539 423.4594,-64.5753 423.1815,-64.5889 422.159,-99.8364 422.2703,-99.8679 423.1259,-151.0992 416.0529,-100.3104 413.2415,-100.3104 411.9081,-99.9339 411.2323,-99.9339 406.9857,-96.4687 402.2269,-95.1853 397.0276,-96.6359 392.892,-100.1629 392.4399,-100.1629 392.2996,-100.1219 392.2996,-100.1219 392.4399,-100.1629 392.892,-100.1629 397.0276,-96.6359 402.2269,-95.1853 406.9857,-96.4687 411.2323,-99.9339 411.9081,-99.9339 413.2415,-100.3104 416.0529,-100.3104 423.1259,-151.0992 422.2703,-99.8679 422.159,-99.8364 423.1815,-64.5889 423.4594,-64.5753 427.3212,-64.7539 429.7731,-64.6276 434.5619,-64.8388 437.0714,-64.7049 440.446,-64.8442 444.8795,-65.4439 449.6165,-66.5303 454.1124,-67.9858 457.2265,-69.2903 460.6678,-29.5914 459.0638,-29.1386 455.7562,-29.1386 455.1339,-29.3144 453.7911,-29.3144 449.4516,-25.6844 452.22,7.4189 451.5757,105.7743 447.0062,106.8711 433.2715,110.4551 424.5319,113.28 412.5584,117.3993 346.6103,141.4346 344.4973,139.9179 334.7491,-1.7554 334.32,-5.8144 333.9649,-16.4185 320.2616,-39.2725 314.9113,-49.1396 317.7962,-89.2273 318.0042,-105.6761 317.8137,-107.47 321.2047,-154.5896 315.6601,-157.5133 314.3471,-158.0703 299.8099,-163.5194 268.9979,-173.4567 258.8219,-177.2378 256.4545,-178.2301 244.151,-183.9827 241.6291,-185.3968 236.4544,-188.5484 221.6326,-199.0436 220.4498,-199.9933 219.0716,-205.862 209.0719,-242.3541 206.4797,-249.8503 140.968,-237.0703 128.8201,-235.2895 120.4545,-234.8876 118.0937,-234.6568 109.4682,-234.6676 107.7836,-234.5865 105.8905,-234.6823 98.3784,-234.6917 98.1449,-234.6805 96.1074,-234.7834 93.7519,-234.7864 91.2749,-234.6669 84.5983,-234.6753 80.5426,-234.4796 77.1821,-234.4838 66.8304,-233.4769 66.8304,-233.4769"/>
<polygon fill="#fbb4ae" stroke="#fbb4ae" points="-92.294,-582.5032 -93.7708,-625.9878 -95.5065,-656.4401 -91.8914,-668.1648 -42.1392,-731.06 35.1166,-742.2745 46.6636,-744.1659 47.2493,-744.2727 54.0182,-742.2479 54.4598,-742.1246 57.1263,-741.4316 60.2767,-655.3252 65.3305,-597.1072 69.2,-600.204 74.5997,-601.6902 79.1502,-600.4539 83.6255,-596.6849 80.0955,-593.7938 80.0955,-593.7938 83.6255,-596.6849 79.1502,-600.4539 74.5997,-601.6902 69.2,-600.204 65.3305,-597.1072 60.2767,-655.3252 57.1263,-741.4316 74.2569,-737.6439 83.1294,-736.0305 98.4659,-734.14 119.2281,-732.799 199.652,-729.1837 210.2953,-699.9395 225.9856,-650.0555 241.2776,-596.81 244.7668,-587.2228 248.0471,-585.7126 258.7705,-581.2753 261.639,-580.1558 298.6658,-478.3627 300.0293,-473.6494 303.4736,-449.8094 303.5833,-449.3038 306.2268,-440.2455 302.7487,-437.1066 297.5591,-431.6983 288.7342,-424.744 285.2839,-422.4713 281.421,-420.4039 274.6321,-417.5887 272.1939,-416.8793 265.0829,-415.6632 261.9574,-415.5119 257.1967,-415.8666 256.1223,-415.8134 253.3561,-415.3265 251.9077,-415.253 247.9333,-415.5444 244.7619,-415.3788 240.2615,-415.7036 239.9739,-415.6524 236.3221,-415.4553 231.6749,-415.7843 227.5799,-415.5587 226.6385,-415.6232 226.2791,-415.6035 223.0882,-415.8201 218.0262,-415.5326 215.8291,-415.679 215.0487,-415.6347 214.0812,-415.698 209.9665,-415.4568 204.9968,-415.7821 203.1477,-415.6728 202.3313,-415.7245 195.7125,-415.3282 192.6402,-414.768 136.032,-397.3813 113.034,-392.5813 111.8792,-393.2444 102.6541,-398.9044 95.9527,-403.5381 77.7693,-417.5662 67.7823,-426.4235 48.1359,-445.39 47.5588,-445.88 27.524,-444.4702 -61.9989,-436.6082 -66.9082,-443.2404 -93.198,-509.7867 -92.2908,-582.2015 -92.294,-582.5032 -92.294,-582.5032"/>
<polygon fill="#bbd7d9" stroke="#bbd7d9" points="93.7519,-234.7864 91.2749,-234.6669 84.5983,-234.6753 80.5426,-234.4796 77.1821,-234.4838 66.8304,-233.4769 63.7174,-233.022 -56.4507,-209.5798 -45.1898,-179.6936 -39.1452,-161.0378 -17.7461,-88.9712 -19.6334,-73.8372 -19.0508,-47.3015 -19.3335,-36.3811 37.4695,73.5766 45.7076,76.9534 99.1837,77.9146 195.9584,120.7575 206.9896,125.9029 213.3575,125.6325 228.65,125.8526 228.987,125.8702 248.5532,127.6356 246.5259,44.8458 246.5259,44.8458 248.5532,127.6356 344.4973,139.9179 334.7491,-1.7554 334.32,-5.8144 333.9649,-16.4185 320.2616,-39.2725 314.9113,-49.1396 317.7962,-89.2273 318.0042,-105.6761 317.8137,-107.47 321.2047,-154.5896 315.6601,-157.5133 314.3471,-158.0703 299.8099,-163.5194 268.9979,-173.4567 258.8219,-177.2378 256.4545,-178.2301 244.151,-183.9827 241.6291,-185.3968 236.4544,-188.5484 221.6326,-199.0436 220.4498,-199.9933 219.0716,-205.862 209.0719,-242.3541 206.4797,-249.8503 140.968,-237.0703 128.8201,-235.2895 120.4545,-234.8876 118.0937,-234.6568 109.4682,-234.6676 107.7836,-234.5865 105.8905,-234.6823 98.3784,-234.6917 98.1449,-234.6805 97.9805,-198.3867 101.7916,-173.7857 104.8079,-176.2857 111.3634,-178.241 115.0251,-177.2379 119.3918,-173.2809 121.7308,-173.2809 122.639,-173.546 124.75,-173.546 126.7266,-172.9732 124.2535,-134.3848 134.9093,-138.7533 149.0498,-141.4667 157.1626,-143.8833 160.8689,-145.3667 167.6212,-148.7689 169.5402,-149.9279 176.2153,-154.6644 178.8526,-157.107 186.8237,-163.428 193.3889,-169.2297 205.4796,-182.139 206.7519,-183.7218 210.6759,-111.8462 215.7154,-109.0656 217.071,-107.6026 215.1444,-105.4618 210.1846,-102.7624 206.1538,-102.7624 206.1538,-102.7624 210.1846,-102.7624 215.1444,-105.4618 217.071,-107.6026 215.7154,-109.0656 210.6759,-111.8462 206.7519,-183.7218 205.4796,-182.139 193.3889,-169.2297 193.1654,-138.7911 193.1654,-138.7911 193.3889,-169.2297 186.8237,-163.428 178.8526,-157.107 176.2153,-154.6644 169.5402,-149.9279 167.6212,-148.7689 160.8689,-145.3667 157.1626,-143.8833 149.0498,-141.4667 134.9093,-138.7533 124.2535,-134.3848 126.7266,-172.9732 124.75,-173.546 122.639,-173.546 121.7308,-173.2809 119.3918,-173.2809 115.0251,-177.2379 111.3634,-178.241 104.8079,-176.2857 101.7916,-173.7857 97.9805,-198.3867 93.9182,-173.6115 96.1197,-172.9602 91.7275,-123.9819 91.5506,-117.1816 99.6412,-117.9766 102.3481,-118.0909 106.1419,-114.5334 109.8567,-68.697 113.4042,-65.1036 113.5526,-65.0428 117.3787,-87.9839 121.4995,-63.8816 124.0509,-63.8816 124.5505,-64.4369 130.8304,-68.1089 135.7286,-68.1089 140.3006,-65.5168 142.2471,-63.1682 142.113,-63.0162 135.751,-59.1295 135.751,-59.1295 142.113,-63.0162 142.2471,-63.1682 140.3006,-65.5168 135.7286,-68.1089 130.8304,-68.1089 124.5505,-64.4369 124.0509,-63.8816 121.4995,-63.8816 117.3787,-87.9839 113.5526,-65.0428 113.4042,-65.1036 109.8567,-68.697 106.1419,-114.5334 102.3481,-118.0909 99.6412,-117.9766 91.5506,-117.1816 91.7275,-123.9819 96.1197,-172.9602 93.9182,-173.6115 97.9805,-198.3867 98.1449,-234.6805 96.1074,-234.7834 93.7519,-234.7864 93.7519,-234.7864"/>
<polygon fill="#d8d6da" stroke="#d8d6da" points="1871.2372,-134.1947 1872.73,-149.973 1879.7823,-209.1081 1888.4213,-261.0625 1889.672,-262.861 1877.9855,-332.078 1760.0326,-334.8904 1748.447,-331.5873 1750.051,-263.4337 1746.0317,-263.3438 1744.9543,-263.2769 1744.5111,-237.6642 1744.5111,-237.6642 1744.9543,-263.2769 1737.8961,-263.3811 1737.343,-263.3673 1736.1344,-188.9787 1731.5206,-188.9787 1730.2548,-188.624 1727.5686,-188.624 1726.9935,-188.787 1720.717,-188.787 1720.4915,-188.8515 1716.8782,-188.8515 1716.3992,-188.9885 1712.4097,-188.9885 1710.6597,-190.9565 1706.4003,-193.2611 1701.1814,-193.2611 1696.4143,-190.5604 1694.8811,-188.7711 1689.7344,-188.7711 1689.6896,-188.7586 1686.6061,-188.7586 1686.2668,-188.6658 1682.1482,-188.6658 1682.1482,-188.6658 1686.2668,-188.6658 1686.6061,-188.7586 1689.6896,-188.7586 1689.7344,-188.7711 1694.8811,-188.7711 1696.4143,-190.5604 1701.1814,-193.2611 1706.4003,-193.2611 1710.6597,-190.9565 1712.4097,-188.9885 1716.3992,-188.9885 1716.8782,-188.8515 1720.4915,-188.8515 1720.717,-188.787 1726.9935,-188.787 1727.5686,-188.624 1730.2548,-188.624 1731.5206,-188.9787 1736.1344,-188.9787 1737.343,-263.3673 1737.8961,-263.3811 1744.9543,-263.2769 1746.0317,-263.3438 1750.051,-263.4337 1748.447,-331.5873 1760.0326,-334.8904 1877.9855,-332.078 1875.8204,-350.0407 1748.7366,-343.9804 1744.6727,-340.0022 1743.3513,-339.6059 1740.8276,-337.7156 1738.1641,-337.7156 1737.0852,-338.0285 1733.5083,-338.0285 1728.8813,-263.4979 1725.7179,-263.5368 1723.5037,-263.4765 1723.3213,-263.4855 1720.7242,-263.511 1715.0756,-263.3432 1711.5636,-263.5085 1712.2379,-333.5456 1717.0154,-336.2516 1718.8076,-338.3422 1717.9642,-339.2752 1711.9539,-342.739 1706.9669,-342.739 1702.542,-340.2766 1700.7537,-338.1623 1696.821,-338.1623 1696.7623,-338.1447 1695.6322,-263.6371 1692.4758,-263.7697 1681.7067,-263.3701 1677.4753,-263.3757 1677.3884,-263.3724 1677.2958,-263.3724 1676.0516,-263.4201 1674.9255,-263.5065 1673.3722,-263.5642 1667.2021,-263.5498 1662.0321,-258.8436 1661.8774,-258.714 1661.692,-258.5712 1614.1893,-263.552 1598.3269,-261.6349 1596.9277,-226.0616 1592.1799,-266.3308 1591.3712,-267.5407 1593.4263,-269.223 1591.5486,-308.6238 1586.8782,-267.8334 1583.9142,-267.8334 1577.1398,-320.8649 1577.7007,-267.6828 1576.1609,-267.6828 1572.3694,-264.4254 1567.6255,-263.0785 1567.6255,-263.0785 1572.3694,-264.4254 1576.1609,-267.6828 1577.7007,-267.6828 1577.1398,-320.8649 1583.9142,-267.8334 1586.8782,-267.8334 1591.5486,-308.6238 1593.4263,-269.223 1591.3712,-267.5407 1592.1799,-266.3308 1596.9277,-226.0616 1598.3269,-261.6349 1614.1893,-263.552 1661.692,-258.5712 1661.8774,-258.714 1662.0321,-258.8436 1667.2021,-263.5498 1673.3722,-263.5642 1674.9255,-263.5065 1676.0516,-263.4201 1677.2958,-263.3724 1677.3884,-263.3724 1677.4753,-263.3757 1681.7067,-263.3701 1692.4758,-263.7697 1695.6322,-263.6371 1696.7623,-338.1447 1696.821,-338.1623 1700.7537,-338.1623 1702.542,-340.2766 1706.9669,-342.739 1711.9539,-342.739 1717.9642,-339.2752 1718.8076,-338.3422 1717.0154,-336.2516 1712.2379,-333.5456 1711.5636,-263.5085 1715.0756,-263.3432 1720.7242,-263.511 1723.3213,-263.4855 1723.5037,-263.4765 1725.7179,-263.5368 1728.8813,-263.4979 1733.5083,-338.0285 1737.0852,-338.0285 1738.1641,-337.7156 1740.8276,-337.7156 1743.3513,-339.6059 1744.6727,-340.0022 1748.7366,-343.9804 1875.8204,-350.0407 1866.8378,-443.4405 1793.2,-473.6442 1744.7015,-469.9684 1732.5524,-469.8183 1722.9705,-470.1057 1713.5922,-470.5856 1708.0497,-471.1039 1694.0984,-472.7039 1688.4137,-473.7158 1687.9639,-473.5908 1669.0466,-469.1618 1644.5566,-464.5167 1568.2339,-434.6198 1545.887,-419.0453 1538.0718,-418.2516 1511.9431,-417.0359 1443.8247,-437.3563 1431.6725,-441.2155 1430.7947,-440.7493 1424.5345,-437.5612 1423.2358,-436.9562 1402.3502,-428.1102 1388.251,-423.0566 1384.7375,-421.9502 1372.8433,-418.714 1359.6399,-415.6903 1356.0436,-414.945 1353.6086,-414.4931 1343.5925,-412.8508 1344.9603,-337.412 1344.9603,-337.412 1343.5925,-412.8508 1289.7209,-406.35 1252.7319,-416.9057 1231.0551,-423.5582 1227.2439,-424.9673 1212.7745,-430.625 1200.7825,-435.8148 1200.65,-435.7662 1183.5803,-430.8088 1173.0525,-428.154 1095.6366,-411.5923 1064.0881,-389.6172 1062.4231,-308.0042 1062.6011,-283.7007 1172.8044,-288.2929 1178.5117,-283.6269 1178.6469,-283.415 1180.4545,-282.1221 1181.4012,-282.1221 1182.1339,-282.328 1188.7983,-282.328 1189.5914,-282.1067 1191.3613,-282.1067 1191.4989,-282.1447 1196.5299,-316.9116 1198.1808,-282.1928 1198.7511,-282.1928 1202.7681,-285.5876 1202.7681,-285.5876 1198.7511,-282.1928 1198.1808,-282.1928 1196.5299,-316.9116 1191.4989,-282.1447 1191.3613,-282.1067 1189.5914,-282.1067 1188.7983,-282.328 1182.1339,-282.328 1181.4012,-282.1221 1180.4545,-282.1221 1178.6469,-283.415 1178.5117,-283.6269 1172.8044,-288.2929 1062.6011,-283.7007 1062.5605,-281.7179 1062.5625,-281.4505 1062.0186,-270.1708 1059.6896,-156.0172 1070.1315,-147.2346 1161.6309,-134.1617 1170.9636,-137.9088 1183.2889,-142.3391 1201.5594,-148.1315 1216.4845,-151.587 1224.3717,-153.0763 1227.9635,-153.6779 1237.649,-155.0936 1238.3373,-155.1795 1295.9476,-159.9197 1339.6809,-145.7335 1340.0691,-145.5992 1347.3424,-145.9947 1352.7593,-146.1835 1364.0575,-146.3569 1374.8901,-145.8889 1389.1349,-144.7171 1393.6986,-144.164 1393.759,-144.1555 1404.2714,-142.4701 1420.2622,-139.2801 1424.8566,-138.2748 1433.3894,-135.7392 1448.8146,-135.6335 1438.9714,-278.6031 1434.6209,-281.7213 1432.676,-284.8673 1429.9301,-284.8673 1429.8224,-284.8362 1429.8224,-284.8362 1429.9301,-284.8673 1432.676,-284.8673 1434.6209,-281.7213 1438.9714,-278.6031 1448.8146,-135.6335 1463.4852,-135.2684 1526.4136,-111.5567 1527.4044,-111.1634 1532.1489,-105.3908 1606.7527,-64.3835 1655.4274,-48.1999 1658.5598,-47.0914 1678.4071,-39.6412 1681.9385,-38.0937 1691.0544,-33.9043 1696.9408,-33.4167 1705.8533,-32.2129 1717.8364,-30.3857 1732.4458,-27.139 1739.6093,-25.2969 1751.0892,-28.8146 1799.4506,-41.8866 1871.2372,-134.1947 1871.2372,-134.1947"/>
<polyline fill="none" stroke="#000000" points="716.4527,-487.3148 714.9959,-487.7585 700.7928,-488.9123 615.082,-499.0492 590.9991,-519.9344 561.5493,-498.4495 520.7991,-467.3824 517.8292,-464.976 501.5116,-450.9118 492.5493,-444.1397 480.3287,-435.5622 462.7484,-426.0981 462.0696,-425.8088 418.2477,-409.461 409.3085,-405.6636 406.7122,-395.7124 403.6754,-380.9189 403.228,-376.0352 400.8001,-359.8482 395.9315,-336.3925 388.7407,-308.8323 410.0218,-289.2429 439.0325,-284.9834 453.0464,-284.016 454.2746,-283.8797 462.7267,-283.607 465.9931,-283.7575 471.5319,-284.2309 478.2044,-283.9689 485.329,-284.2463 486.243,-284.2063 487.599,-284.2526 489.9284,-284.2358 501.4776,-283.6714 506.5383,-283.623 550.2031,-281.401 557.2228,-259.8887 558.1516,-256.5822 561.6367,-241.8057 567.7081,-209.7602 567.7117,-209.7451 603.1675,-101.0895 630.7666,-79.9692 632.7917,-80.8224 655.0953,-89.0212 664.1417,-91.8526 665.7603,-92.3298 671.9382,-94.04 681.9716,-96.6361 685.724,-97.471 802.9171,-121.4326 815.8738,-130.7026 817.1089,-130.6304 847.168,-130.8917 895.7872,-143.1854 910.5825,-146.6117 918.9932,-148.1968 937.4527,-150.8823 937.6438,-150.9018 950.0004,-151.8984 1059.6896,-156.0172 1062.0186,-270.1708 1062.5625,-281.4505 1062.5605,-281.7179 1062.6011,-283.7007 1062.4231,-308.0042 1064.0881,-389.6172 960.6855,-414.5019 948.6021,-415.3121 944.1093,-415.7152 941.4657,-416.0727 928.0388,-418.196 918.2174,-420.1969 910.2863,-421.9932 894.1982,-426.3687 891.3328,-427.2119 863.7286,-424.7922 773.1002,-477.5911 751.7101,-480.2766 737.7571,-482.5852 734.3303,-483.2885 716.4527,-487.3148 "/>
<polyline fill="none" stroke="#000000" points="321.2047,-154.5896 317.8137,-107.47 318.0042,-105.6761 317.7962,-89.2273 314.9113,-49.1396 320.2616,-39.2725 333.9649,-16.4185 334.32,-5.8144 334.7491,-1.7554 344.4973,139.9179 346.6103,141.4346 412.5584,117.3993 424.5319,113.28 433.2715,110.4551 447.0062,106.8711 451.5757,105.7743 466.9195,102.7302 468.5732,102.2081 537.6645,84.9588 592.984,29.4404 609.1478,10.0453 617.1911,-29.497 630.7666,-79.9692 603.1675,-101.0895 567.7117,-209.7451 567.7081,-209.7602 561.6367,-241.8057 558.1516,-256.5822 557.2228,-259.8887 550.2031,-281.401 506.5383,-283.623 501.4776,-283.6714 489.9284,-284.2358 487.599,-284.2526 486.243,-284.2063 485.329,-284.2463 478.2044,-283.9689 471.5319,-284.2309 465.9931,-283.7575 462.7267,-283.607 454.2746,-283.8797 453.0464,-284.016 439.0325,-284.9834 410.0218,-289.2429 388.7407,-308.8323 395.9315,-336.3925 400.8001,-359.8482 403.228,-376.0352 403.6754,-380.9189 406.7122,-395.7124 409.3085,-405.6636 418.2477,-409.461 462.0696,-425.8088 462.7484,-426.0981 480.3287,-435.5622 492.5493,-444.1397 501.5116,-450.9118 517.8292,-464.976 520.7991,-467.3824 561.5493,-498.4495 590.9991,-519.9344 556.546,-594.9239 565.2922,-658.0426 569.1773,-680.1749 530.657,-721.6213 451.9662,-810.2575 397.8174,-817.6573 384.2557,-819.7955 380.5799,-820.4514 358.4623,-826.2618 342.4962,-831.4589 336.7555,-833.4461 298.2593,-811.209 215.1989,-749.7362 199.652,-729.1837 210.2953,-699.9395 225.9856,-650.0555 241.2776,-596.81 244.7668,-587.2228 248.0471,-585.7126 258.7705,-581.2753 261.639,-580.1558 298.6658,-478.3627 300.0293,-473.6494 303.4736,-449.8094 303.5833,-449.3038 306.2268,-440.2455 302.7487,-437.1066 297.5591,-431.6983 288.7342,-424.744 285.2839,-422.4713 281.421,-420.4039 274.6321,-417.5887 272.1939,-416.8793 265.0829,-415.6632 261.9574,-415.5119 257.1967,-415.8666 256.1223,-415.8134 253.3561,-415.3265 251.9077,-415.253 247.9333,-415.5444 244.7619,-415.3788 240.2615,-415.7036 239.9739,-415.6524 236.3221,-415.4553 231.6749,-415.7843 227.5799,-415.5587 226.6385,-415.6232 226.2791,-415.6035 223.0882,-415.8201 218.0262,-415.5326 215.8291,-415.679 215.0487,-415.6347 214.0812,-415.698 209.9665,-415.4568 204.9968,-415.7821 203.1477,-415.6728 202.3313,-415.7245 195.7125,-415.3282 192.6402,-414.768 136.032,-397.3813 113.034,-392.5813 111.8792,-393.2444 102.6541,-398.9044 95.9527,-403.5381 77.7693,-417.5662 67.7823,-426.4235 48.1359,-445.39 47.5588,-445.88 27.524,-444.4702 -61.9989,-436.6082 -91.4705,-328.0634 -97.382,-307.8651 -95.9934,-283.4736 -95.7024,-275.7797 -95.2476,-251.5291 -56.4507,-209.5798 63.7174,-233.022 66.8304,-233.4769 77.1821,-234.4838 80.5426,-234.4796 84.5983,-234.6753 91.2749,-234.6669 93.7519,-234.7864 96.1074,-234.7834 98.1449,-234.6805 98.3784,-234.6917 105.8905,-234.6823 107.7836,-234.5865 109.4682,-234.6676 118.0937,-234.6568 120.4545,-234.8876 128.8201,-235.2895 140.968,-237.0703 206.4797,-249.8503 209.0719,-242.3541 219.0716,-205.862 220.4498,-199.9933 221.6326,-199.0436 236.4544,-188.5484 241.6291,-185.3968 244.151,-183.9827 256.4545,-178.2301 258.8219,-177.2378 268.9979,-173.4567 299.8099,-163.5194 314.3471,-158.0703 315.6601,-157.5133 321.2047,-154.5896 "/>
<polyline fill="none" stroke="#000000" points="236.3221,-415.4553 239.9739,-415.6524 240.2615,-415.7036 244.7619,-415.3788 247.9333,-415.5444 251.9077,-415.253 253.3561,-415.3265 256.1223,-415.8134 257.1967,-415.8666 261.9574,-415.5119 265.0829,-415.6632 272.1939,-416.8793 274.6321,-417.5887 281.421,-420.4039 285.2839,-422.4713 288.7342,-424.744 297.5591,-431.6983 302.7487,-437.1066 306.2268,-440.2455 303.5833,-449.3038 303.4736,-449.8094 300.0293,-473.6494 298.6658,-478.3627 261.639,-580.1558 258.7705,-581.2753 248.0471,-585.7126 244.7668,-587.2228 241.2776,-596.81 225.9856,-650.0555 210.2953,-699.9395 199.652,-729.1837 119.2281,-732.799 98.4659,-734.14 83.1294,-736.0305 74.2569,-737.6439 57.1263,-741.4316 54.4598,-742.1246 54.0182,-742.2479 47.2493,-744.2727 46.6636,-744.1659 35.1166,-742.2745 -42.1392,-731.06 -91.8914,-668.1648 -95.5065,-656.4401 -93.7708,-625.9878 -92.294,-582.5032 -92.2908,-582.2015 -93.198,-509.7867 -66.9082,-443.2404 -61.9989,-436.6082 27.524,-444.4702 47.5588,-445.88 48.1359,-445.39 67.7823,-426.4235 77.7693,-417.5662 95.9527,-403.5381 102.6541,-398.9044 111.8792,-393.2444 113.034,-392.5813 136.032,-397.3813 192.6402,-414.768 195.7125,-415.3282 202.3313,-415.7245 203.1477,-415.6728 204.9968,-415.7821 209.9665,-415.4568 214.0812,-415.698 215.0487,-415.6347 215.8291,-415.679 218.0262,-415.5326 223.0882,-415.8201 226.2791,-415.6035 226.6385,-415.6232 227.5799,-415.5587 231.6749,-415.7843 236.3221,-415.4553 "/>
<polyline fill="none" stroke="#000000" points="228.987,125.8702 248.5532,127.6356 344.4973,139.9179 334.7491,-1.7554 334.32,-5.8144 333.9649,-16.4185 320.2616,-39.2725 314.9113,-49.1396 317.7962,-89.2273 318.0042,-105.6761 317.8137,-107.47 321.2047,-154.5896 315.6601,-157.5133 314.3471,-158.0703 299.8099,-163.5194 268.9979,-173.4567 258.8219,-177.2378 256.4545,-178.2301 244.151,-183.9827 241.6291,-185.3968 236.4544,-188.5484 221.6326,-199.0436 220.4498,-199.9933 219.0716,-205.862 209.0719,-242.3541 206.4797,-249.8503 140.968,-237.0703 128.8201,-235.2895 120.4545,-234.8876 118.0937,-234.6568 109.4682,-234.6676 107.7836,-234.5865 105.8905,-234.6823 98.3784,-234.6917 98.1449,-234.6805 96.1074,-234.7834 93.7519,-234.7864 91.2749,-234.6669 84.5983,-234.6753 80.5426,-234.4796 77.1821,-234.4838 66.8304,-233.4769 63.7174,-233.022 -56.4507,-209.5798 -45.1898,-179.6936 -39.1452,-161.0378 -17.7461,-88.9712 -19.6334,-73.8372 -19.0508,-47.3015 -19.3335,-36.3811 37.4695,73.5766 45.7076,76.9534 99.1837,77.9146 195.9584,120.7575 206.9896,125.9029 213.3575,125.6325 228.65,125.8526 228.987,125.8702 "/>
<polyline fill="none" stroke="#000000" points="1388.251,-423.0566 1402.3502,-428.1102 1423.2358,-436.9562 1424.5345,-437.5612 1430.7947,-440.7493 1431.6725,-441.2155 1443.8247,-437.3563 1511.9431,-417.0359 1538.0718,-418.2516 1545.887,-419.0453 1568.2339,-434.6198 1644.5566,-464.5167 1669.0466,-469.1618 1687.9639,-473.5908 1688.4137,-473.7158 1694.0984,-472.7039 1708.0497,-471.1039 1713.5922,-470.5856 1722.9705,-470.1057 1732.5524,-469.8183 1744.7015,-469.9684 1793.2,-473.6442 1866.8378,-443.4405 1875.8204,-350.0407 1877.9855,-332.078 1889.672,-262.861 1888.4213,-261.0625 1879.7823,-209.1081 1872.73,-149.973 1871.2372,-134.1947 1799.4506,-41.8866 1751.0892,-28.8146 1739.6093,-25.2969 1732.4458,-27.139 1717.8364,-30.3857 1705.8533,-32.2129 1696.9408,-33.4167 1691.0544,-33.9043 1681.9385,-38.0937 1678.4071,-39.6412 1658.5598,-47.0914 1655.4274,-48.1999 1606.7527,-64.3835 1532.1489,-105.3908 1527.4044,-111.1634 1526.4136,-111.5567 1463.4852,-135.2684 1448.8146,-135.6335 1433.3894,-135.7392 1424.8566,-138.2748 1420.2622,-139.2801 1404.2714,-142.4701 1393.759,-144.1555 1393.6986,-144.164 1389.1349,-144.7171 1374.8901,-145.8889 1364.0575,-146.3569 1352.7593,-146.1835 1347.3424,-145.9947 1340.0691,-145.5992 1339.6809,-145.7335 1295.9476,-159.9197 1238.3373,-155.1795 1237.649,-155.0936 1227.9635,-153.6779 1224.3717,-153.0763 1216.4845,-151.587 1201.5594,-148.1315 1183.2889,-142.3391 1170.9636,-137.9088 1161.6309,-134.1617 1070.1315,-147.2346 1059.6896,-156.0172 1062.0186,-270.1708 1062.5625,-281.4505 1062.5605,-281.7179 1062.6011,-283.7007 1062.4231,-308.0042 1064.0881,-389.6172 1095.6366,-411.5923 1173.0525,-428.154 1183.5803,-430.8088 1200.65,-435.7662 1200.7825,-435.8148 1212.7745,-430.625 1227.2439,-424.9673 1231.0551,-423.5582 1252.7319,-416.9057 1289.7209,-406.35 1343.5925,-412.8508 1353.6086,-414.4931 1356.0436,-414.945 1359.6399,-415.6903 1372.8433,-418.714 1384.7375,-421.9502 1388.251,-423.0566 "/>
<!-- filesystem&#45;&gt;setup -->
<g id="edge1" class="edge">
<title>filesystem&#45;&gt;setup</title>
<path fill="none" stroke="#444444" stroke-opacity="0.333333" d="M782.6819,-323.8508C807.6111,-317.4107 836.9506,-309.8313 862.6281,-303.1979"/>
<polygon fill="#444444" fill-opacity="0.333333" stroke="#444444" stroke-opacity="0.333333" points="863.8345,-306.5012 872.6412,-300.6111 862.0836,-299.7237 863.8345,-306.5012"/>
</g>
<!-- filesystem&#45;&gt;bash -->
<g id="edge2" class="edge">
<title>filesystem&#45;&gt;bash</title>
<path fill="none" stroke="#444444" stroke-opacity="0.333333" d="M668.5103,-337.3192C629.6254,-339.1449 578.2728,-343.1849 539.026,-347.4929"/>
<polygon fill="#444444" fill-opacity="0.333333" stroke="#444444" stroke-opacity="0.333333" points="538.6099,-344.0175 529.0682,-348.6227 539.3991,-350.9729 538.6099,-344.0175"/>
</g>
<!-- setup&#45;&gt;setup -->
<g id="edge3" class="edge">
<title>setup&#45;&gt;setup</title>
<path fill="none" stroke="#444444" stroke-opacity="0.333333" d="M980.8073,-293.0697C991.3286,-292.3207 998.8,-290.1708 998.8,-286.62 998.8,-284.3453 995.7337,-282.6455 990.7636,-281.5206"/>
<polygon fill="#444444" fill-opacity="0.333333" stroke="#444444" stroke-opacity="0.333333" points="991.1869,-278.0461 980.8073,-280.1703 990.2462,-284.9826 991.1869,-278.0461"/>
</g>
<!-- setup&#45;&gt;fedora&#45;release -->
<g id="edge4" class="edge">
<title>setup&#45;&gt;fedora&#45;release</title>
<path fill="none" stroke="#444444" stroke-opacity="0.333333" d="M980.9603,-285.7678C1020.6083,-285.1439 1075.2347,-284.2844 1120.9346,-283.5653"/>
<polygon fill="#444444" fill-opacity="0.333333" stroke="#444444" stroke-opacity="0.333333" points="1121.1964,-287.0617 1131.14,-283.4047 1121.0862,-280.0625 1121.1964,-287.0617"/>
</g>
<!-- bash&#45;&gt;filesystem -->
<g id="edge5" class="edge">
<title>bash&#45;&gt;filesystem</title>
<path fill="none" stroke="#444444" stroke-opacity="0.333333" d="M528.8624,-359.6997C565.8902,-358.2081 617.3078,-354.3414 658.2852,-350.0663"/>
<polygon fill="#444444" fill-opacity="0.333333" stroke="#444444" stroke-opacity="0.333333" points="658.8947,-353.521 668.4632,-348.9718 658.1463,-346.5612 658.8947,-353.521"/>
</g>
<!-- bash&#45;&gt;bash -->
<g id="edge6" class="edge">
<title>bash&#45;&gt;bash</title>
<path fill="none" stroke="#444444" stroke-opacity="0.333333" d="M528.9741,-364.5721C539.3019,-363.9088 546.76,-361.7314 546.76,-358.04 546.76,-355.7329 543.8467,-354.0172 539.1403,-352.8929"/>
<polygon fill="#444444" fill-opacity="0.333333" stroke="#444444" stroke-opacity="0.333333" points="539.3551,-349.3899 528.9741,-351.5079 538.4101,-356.3258 539.3551,-349.3899"/>
</g>
<!-- bash&#45;&gt;glibc -->
<g id="edge7" class="edge">
<title>bash&#45;&gt;glibc</title>
<path fill="none" stroke="#444444" stroke-opacity="0.333333" d="M458.7297,-339.8917C432.1577,-317.4938 386.8496,-279.3029 357.1005,-254.2269"/>
<polygon fill="#444444" fill-opacity="0.333333" stroke="#444444" stroke-opacity="0.333333" points="359.0526,-251.2948 349.1508,-247.5259 354.5411,-256.6471 359.0526,-251.2948"/>
</g>
<!-- bash&#45;&gt;ncurses&#45;libs -->
<g id="edge8" class="edge">
<title>bash&#45;&gt;ncurses&#45;libs</title>
<path fill="none" stroke="#444444" stroke-opacity="0.333333" d="M431.6296,-374.6755C390.6472,-388.6947 331.7509,-408.8419 287.2994,-424.0479"/>
<polygon fill="#444444" fill-opacity="0.333333" stroke="#444444" stroke-opacity="0.333333" points="286.0895,-420.7626 277.7606,-427.3109 288.3552,-427.3858 286.0895,-420.7626"/>
</g>
<!-- fedora&#45;release&#45;&gt;fedora&#45;release&#45;common -->
<g id="edge30" class="edge">
<title>fedora&#45;release&#45;&gt;fedora&#45;release&#45;common</title>
<path fill="none" stroke="#444444" stroke-opacity="0.333333" d="M1284.2676,-296.6289C1284.3167,-296.6307 1284.3658,-296.6324 1284.4149,-296.6342"/>
<polygon fill="#444444" fill-opacity="0.333333" stroke="#444444" stroke-opacity="0.333333" points="1274.4417,-299.7747 1284.5622,-296.6394 1274.6954,-292.7791 1274.4417,-299.7747"/>
</g>
<!-- glibc&#45;&gt;glibc -->
<g id="edge9" class="edge">
<title>glibc&#45;&gt;glibc</title>
<path fill="none" stroke="#444444" stroke-opacity="0.333333" d="M380.9872,-235.9197C391.3623,-235.1707 398.73,-233.0208 398.73,-229.47 398.73,-227.2508 395.852,-225.5787 391.1605,-224.454"/>
<polygon fill="#444444" fill-opacity="0.333333" stroke="#444444" stroke-opacity="0.333333" points="391.3778,-220.9501 380.9872,-223.0203 390.4009,-227.8816 391.3778,-220.9501"/>
</g>
<!-- glibc&#45;&gt;basesystem -->
<g id="edge10" class="edge">
<title>glibc&#45;&gt;basesystem</title>
<path fill="none" stroke="#444444" stroke-opacity="0.333333" d="M381.0603,-233.1975C436.9581,-237.1044 525.1318,-243.2673 587.2867,-247.6115"/>
<polygon fill="#444444" fill-opacity="0.333333" stroke="#444444" stroke-opacity="0.333333" points="587.1955,-251.1136 597.4152,-248.3194 587.6836,-244.1306 587.1955,-251.1136"/>
</g>
<!-- glibc&#45;&gt;glibc&#45;common -->
<g id="edge11" class="edge">
<title>glibc&#45;&gt;glibc&#45;common</title>
<path fill="none" stroke="#444444" stroke-opacity="0.333333" d="M327.8917,-247.5296C333.2183,-290.0419 356.0238,-396.6199 370.3399,-447.4501"/>
<polygon fill="#444444" fill-opacity="0.333333" stroke="#444444" stroke-opacity="0.333333" points="367.0025,-448.5076 373.1694,-457.1227 373.7209,-446.5422 367.0025,-448.5076"/>
</g>
<!-- glibc&#45;&gt;glibc&#45;minimal&#45;langpack -->
<g id="edge12" class="edge">
<title>glibc&#45;&gt;glibc&#45;minimal&#45;langpack</title>
<path fill="none" stroke="#444444" stroke-opacity="0.333333" d="M316.8383,-247.4838C305.1195,-274.4563 287.9152,-325.518 279.6003,-357.4918"/>
<polygon fill="#444444" fill-opacity="0.333333" stroke="#444444" stroke-opacity="0.333333" points="276.1186,-356.9957 277.1421,-367.5409 282.9181,-358.659 276.1186,-356.9957"/>
</g>
<!-- glibc&#45;&gt;libgcc -->
<g id="edge13" class="edge">
<title>glibc&#45;&gt;libgcc</title>
<path fill="none" stroke="#444444" stroke-opacity="0.333333" d="M274.4539,-244.4051C239.6934,-254.1497 194.0472,-266.9459 156.9013,-277.3592"/>
<polygon fill="#444444" fill-opacity="0.333333" stroke="#444444" stroke-opacity="0.333333" points="155.8445,-274.0204 147.1605,-280.0899 157.7341,-280.7606 155.8445,-274.0204"/>
</g>
<!-- ncurses&#45;libs&#45;&gt;glibc -->
<g id="edge14" class="edge">
<title>ncurses&#45;libs&#45;&gt;glibc</title>
<path fill="none" stroke="#444444" stroke-opacity="0.333333" d="M233.4995,-427.3522C251.5308,-389.4869 293.4177,-301.5251 314.7471,-256.7339"/>
<polygon fill="#444444" fill-opacity="0.333333" stroke="#444444" stroke-opacity="0.333333" points="317.9532,-258.1417 319.0926,-247.6083 311.6332,-255.1321 317.9532,-258.1417"/>
</g>
<!-- ncurses&#45;libs&#45;&gt;ncurses&#45;libs -->
<g id="edge15" class="edge">
<title>ncurses&#45;libs&#45;&gt;ncurses&#45;libs</title>
<path fill="none" stroke="#444444" stroke-opacity="0.333333" d="M299.2701,-451.4474C309.8264,-450.4677 316.91,-448.4486 316.91,-445.39 316.91,-443.4784 314.143,-441.9728 309.4905,-440.8732"/>
<polygon fill="#444444" fill-opacity="0.333333" stroke="#444444" stroke-opacity="0.333333" points="309.6802,-437.3624 299.2701,-439.3326 308.6367,-444.2842 309.6802,-437.3624"/>
</g>
<!-- ncurses&#45;libs&#45;&gt;ncurses&#45;base -->
<g id="edge16" class="edge">
<title>ncurses&#45;libs&#45;&gt;ncurses&#45;base</title>
<path fill="none" stroke="#444444" stroke-opacity="0.333333" d="M206.767,-463.6548C180.1161,-490.4847 130.272,-540.6635 99.9654,-571.1736"/>
<polygon fill="#444444" fill-opacity="0.333333" stroke="#444444" stroke-opacity="0.333333" points="97.2715,-568.9191 92.7073,-578.4804 102.2379,-573.8523 97.2715,-568.9191"/>
</g>
<!-- basesystem&#45;&gt;filesystem -->
<g id="edge37" class="edge">
<title>basesystem&#45;&gt;filesystem</title>
<path fill="none" stroke="#444444" stroke-opacity="0.333333" d="M673.6336,-270.8957C682.8935,-282.9733 695.1866,-299.0072 705.4862,-312.4409"/>
<polygon fill="#444444" fill-opacity="0.333333" stroke="#444444" stroke-opacity="0.333333" points="702.7345,-314.6042 711.5966,-320.4106 708.2896,-310.3451 702.7345,-314.6042"/>
</g>
<!-- basesystem&#45;&gt;setup -->
<g id="edge38" class="edge">
<title>basesystem&#45;&gt;setup</title>
<path fill="none" stroke="#444444" stroke-opacity="0.333333" d="M721.9553,-260.5869C764.2042,-265.9562 819.9077,-273.0354 862.561,-278.4561"/>
<polygon fill="#444444" fill-opacity="0.333333" stroke="#444444" stroke-opacity="0.333333" points="862.1927,-281.9373 872.5542,-279.7261 863.0752,-274.9932 862.1927,-281.9373"/>
</g>
<!-- glibc&#45;common&#45;&gt;bash -->
<g id="edge39" class="edge">
<title>glibc&#45;common&#45;&gt;bash</title>
<path fill="none" stroke="#444444" stroke-opacity="0.333333" d="M396.2918,-457.1928C412.856,-437.6332 439.4296,-406.254 458.2409,-384.041"/>
<polygon fill="#444444" fill-opacity="0.333333" stroke="#444444" stroke-opacity="0.333333" points="460.9956,-386.204 464.7872,-376.3108 455.6537,-381.6802 460.9956,-386.204"/>
</g>
<!-- glibc&#45;common&#45;&gt;glibc -->
<g id="edge40" class="edge">
<title>glibc&#45;common&#45;&gt;glibc</title>
<path fill="none" stroke="#444444" stroke-opacity="0.333333" d="M380.8383,-457.1904C375.5117,-414.6781 352.7062,-308.1001 338.3901,-257.2699"/>
<polygon fill="#444444" fill-opacity="0.333333" stroke="#444444" stroke-opacity="0.333333" points="341.7275,-256.2124 335.5606,-247.5973 335.0091,-258.1778 341.7275,-256.2124"/>
</g>
<!-- glibc&#45;common&#45;&gt;tzdata -->
<g id="edge41" class="edge">
<title>glibc&#45;common&#45;&gt;tzdata</title>
<path fill="none" stroke="#444444" stroke-opacity="0.333333" d="M380.2423,-493.2508C378.7237,-529.3268 375.2978,-610.7144 373.4781,-653.9454"/>
<polygon fill="#444444" fill-opacity="0.333333" stroke="#444444" stroke-opacity="0.333333" points="369.9759,-653.9251 373.0522,-664.0635 376.9697,-654.2195 369.9759,-653.9251"/>
</g>
<!-- glibc&#45;minimal&#45;langpack&#45;&gt;glibc -->
<g id="edge42" class="edge">
<title>glibc&#45;minimal&#45;langpack&#45;&gt;glibc</title>
<path fill="none" stroke="#444444" stroke-opacity="0.333333" d="M286.5817,-367.7662C298.3005,-340.7937 315.5048,-289.732 323.8197,-257.7582"/>
<polygon fill="#444444" fill-opacity="0.333333" stroke="#444444" stroke-opacity="0.333333" points="327.3014,-258.2543 326.2779,-247.7091 320.5019,-256.591 327.3014,-258.2543"/>
</g>
<!-- glibc&#45;minimal&#45;langpack&#45;&gt;glibc&#45;common -->
<g id="edge43" class="edge">
<title>glibc&#45;minimal&#45;langpack&#45;&gt;glibc&#45;common</title>
<path fill="none" stroke="#444444" stroke-opacity="0.333333" d="M297.001,-403.8856C312.8453,-417.3466 334.6427,-435.8654 352.0622,-450.6649"/>
<polygon fill="#444444" fill-opacity="0.333333" stroke="#444444" stroke-opacity="0.333333" points="349.8335,-453.364 359.7206,-457.1713 354.3658,-448.0293 349.8335,-453.364"/>
</g>
<!-- libacl&#45;&gt;glibc -->
<g id="edge17" class="edge">
<title>libacl&#45;&gt;glibc</title>
<path fill="none" stroke="#444444" stroke-opacity="0.333333" d="M233.5849,-36.0298C251.617,-73.0804 292.9376,-157.982 314.3365,-201.9503"/>
<polygon fill="#444444" fill-opacity="0.333333" stroke="#444444" stroke-opacity="0.333333" points="311.3079,-203.7255 318.8311,-211.1855 317.602,-200.6621 311.3079,-203.7255"/>
</g>
<!-- libacl&#45;&gt;libattr -->
<g id="edge18" class="edge">
<title>libacl&#45;&gt;libattr</title>
<path fill="none" stroke="#444444" stroke-opacity="0.333333" d="M188.3242,-36.0924C185.1325,-37.6751 181.8777,-39.2891 178.6253,-40.9018"/>
<polygon fill="#444444" fill-opacity="0.333333" stroke="#444444" stroke-opacity="0.333333" points="176.9244,-37.8385 169.5203,-45.4168 180.0342,-44.1099 176.9244,-37.8385"/>
</g>
<!-- libattr&#45;&gt;glibc -->
<g id="edge19" class="edge">
<title>libattr&#45;&gt;glibc</title>
<path fill="none" stroke="#444444" stroke-opacity="0.333333" d="M154.3528,-81.5304C189.2946,-111.3456 259.0545,-170.8705 298.6055,-204.6186"/>
<polygon fill="#444444" fill-opacity="0.333333" stroke="#444444" stroke-opacity="0.333333" points="296.6844,-207.5804 306.5633,-211.4089 301.2281,-202.2554 296.6844,-207.5804"/>
</g>
<!-- libattr&#45;&gt;libattr -->
<g id="edge20" class="edge">
<title>libattr&#45;&gt;libattr</title>
<path fill="none" stroke="#444444" stroke-opacity="0.333333" d="M185.7352,-69.9185C196.1986,-69.1901 203.66,-67.0329 203.66,-63.447 203.66,-61.1498 200.5979,-59.4389 195.646,-58.3144"/>
<polygon fill="#444444" fill-opacity="0.333333" stroke="#444444" stroke-opacity="0.333333" points="196.1138,-54.8459 185.7352,-56.9755 195.1766,-61.7829 196.1138,-54.8459"/>
</g>
<!-- libcap&#45;&gt;glibc -->
<g id="edge21" class="edge">
<title>libcap&#45;&gt;glibc</title>
<path fill="none" stroke="#444444" stroke-opacity="0.333333" d="M167.4755,-188.0363C197.3874,-195.77 234.1565,-205.2766 264.9266,-213.2322"/>
<polygon fill="#444444" fill-opacity="0.333333" stroke="#444444" stroke-opacity="0.333333" points="264.132,-216.6418 274.6898,-215.7565 265.8843,-209.8647 264.132,-216.6418"/>
</g>
<!-- libcap&#45;&gt;libcap -->
<g id="edge22" class="edge">
<title>libcap&#45;&gt;libcap</title>
<path fill="none" stroke="#444444" stroke-opacity="0.333333" d="M167.2755,-179.7735C177.8223,-178.985 185.25,-176.8505 185.25,-173.37 185.25,-171.1403 182.2017,-169.463 177.2378,-168.3381"/>
<polygon fill="#444444" fill-opacity="0.333333" stroke="#444444" stroke-opacity="0.333333" points="177.6595,-164.8632 167.2755,-166.9665 176.7046,-171.7978 177.6595,-164.8632"/>
</g>
<!-- libselinux&#45;&gt;glibc -->
<g id="edge23" class="edge">
<title>libselinux&#45;&gt;glibc</title>
<path fill="none" stroke="#444444" stroke-opacity="0.333333" d="M391.4821,-118.4471C378.8822,-140.3895 357.6258,-177.4071 343.1517,-202.6134"/>
<polygon fill="#444444" fill-opacity="0.333333" stroke="#444444" stroke-opacity="0.333333" points="340.0991,-200.9009 338.1546,-211.3158 346.1695,-204.3867 340.0991,-200.9009"/>
</g>
<!-- libselinux&#45;&gt;libsepol -->
<g id="edge24" class="edge">
<title>libselinux&#45;&gt;libsepol</title>
<path fill="none" stroke="#444444" stroke-opacity="0.333333" d="M412.7628,-118.29C423.2742,-135.892 439.3716,-162.8481 451.3711,-182.942"/>
<polygon fill="#444444" fill-opacity="0.333333" stroke="#444444" stroke-opacity="0.333333" points="448.4291,-184.842 456.5612,-191.6332 454.439,-181.253 448.4291,-184.842"/>
</g>
<!-- libselinux&#45;&gt;pcre2 -->
<g id="edge25" class="edge">
<title>libselinux&#45;&gt;pcre2</title>
<path fill="none" stroke="#444444" stroke-opacity="0.333333" d="M413.0181,-81.9922C417.7395,-74.2183 423.3472,-64.9849 428.5332,-56.4458"/>
<polygon fill="#444444" fill-opacity="0.333333" stroke="#444444" stroke-opacity="0.333333" points="431.5306,-58.2528 433.7301,-47.8888 425.5476,-54.6191 431.5306,-58.2528"/>
</g>
<!-- libsepol&#45;&gt;bash -->
<g id="edge44" class="edge">
<title>libsepol&#45;&gt;bash</title>
<path fill="none" stroke="#444444" stroke-opacity="0.333333" d="M468.9593,-227.9333C471.161,-253.2812 475.1746,-299.4913 477.7783,-329.4674"/>
<polygon fill="#444444" fill-opacity="0.333333" stroke="#444444" stroke-opacity="0.333333" points="474.3155,-330.0484 478.6677,-339.708 481.2892,-329.4426 474.3155,-330.0484"/>
</g>
<!-- libsepol&#45;&gt;glibc -->
<g id="edge45" class="edge">
<title>libsepol&#45;&gt;glibc</title>
<path fill="none" stroke="#444444" stroke-opacity="0.333333" d="M406.1275,-218.3995C401.167,-219.1 396.1478,-219.8087 391.1723,-220.5113"/>
<polygon fill="#444444" fill-opacity="0.333333" stroke="#444444" stroke-opacity="0.333333" points="390.4657,-217.0763 381.0533,-221.9402 391.4445,-224.0075 390.4657,-217.0763"/>
</g>
<!-- pcre2&#45;&gt;glibc -->
<g id="edge46" class="edge">
<title>pcre2&#45;&gt;glibc</title>
<path fill="none" stroke="#444444" stroke-opacity="0.333333" d="M434.2953,-47.596C413.6083,-82.9022 367.7758,-161.1243 343.5104,-202.5377"/>
<polygon fill="#444444" fill-opacity="0.333333" stroke="#444444" stroke-opacity="0.333333" points="340.4308,-200.8704 338.3952,-211.2679 346.4704,-204.4092 340.4308,-200.8704"/>
</g>
<!-- pcre2&#45;&gt;pcre2 -->
<g id="edge47" class="edge">
<title>pcre2&#45;&gt;pcre2</title>
<path fill="none" stroke="#444444" stroke-opacity="0.333333" d="M499.9733,-35.924C510.4741,-35.155 517.9,-33.0126 517.9,-29.497 517.9,-27.2448 514.8524,-25.5562 509.9011,-24.4312"/>
<polygon fill="#444444" fill-opacity="0.333333" stroke="#444444" stroke-opacity="0.333333" points="510.3561,-20.9609 499.9733,-23.07 509.4051,-27.896 510.3561,-20.9609"/>
</g>
<!-- fedora&#45;release&#45;common&#45;&gt;fedora&#45;release -->
<g id="edge27" class="edge">
<title>fedora&#45;release&#45;common&#45;&gt;fedora&#45;release</title>
<path fill="none" stroke="#444444" stroke-opacity="0.333333" d="M1283.0551,-269.9684C1282.9775,-269.9692 1282.8999,-269.97 1282.8223,-269.9708"/>
<polygon fill="#444444" fill-opacity="0.333333" stroke="#444444" stroke-opacity="0.333333" points="1292.5511,-266.365 1282.5896,-269.9732 1292.627,-273.3647 1292.5511,-266.365"/>
</g>
<!-- fedora&#45;release&#45;common&#45;&gt;fedora&#45;release -->
<g id="edge28" class="edge">
<title>fedora&#45;release&#45;common&#45;&gt;fedora&#45;release</title>
<path fill="none" stroke="#444444" stroke-dasharray="5,2" stroke-opacity="0.333333" d="M1283.1309,-283.2729C1283.053,-283.2718 1282.9753,-283.2707 1282.8975,-283.2696"/>
<polygon fill="#444444" fill-opacity="0.333333" stroke="#444444" stroke-opacity="0.333333" points="1292.7145,-279.913 1282.6642,-283.2662 1292.612,-286.9123 1292.7145,-279.913"/>
</g>
<!-- fedora&#45;release&#45;common&#45;&gt;fedora&#45;release&#45;common -->
<g id="edge26" class="edge">
<title>fedora&#45;release&#45;common&#45;&gt;fedora&#45;release&#45;common</title>
<path fill="none" stroke="#444444" stroke-opacity="0.333333" d="M1499.6304,-290.3137C1510.3696,-289.211 1517.2,-287.3764 1517.2,-284.81 1517.2,-283.1659 1514.3968,-281.8221 1509.5585,-280.7787"/>
<polygon fill="#444444" fill-opacity="0.333333" stroke="#444444" stroke-opacity="0.333333" points="1510.0357,-277.3113 1499.6304,-279.3063 1509.0087,-284.2355 1510.0357,-277.3113"/>
</g>
<!-- fedora&#45;release&#45;common&#45;&gt;fedora&#45;repos -->
<g id="edge29" class="edge">
<title>fedora&#45;release&#45;common&#45;&gt;fedora&#45;repos</title>
<path fill="none" stroke="#444444" stroke-opacity="0.333333" d="M1499.2151,-274.4317C1499.2863,-274.4249 1499.3575,-274.418 1499.4287,-274.4112"/>
<polygon fill="#444444" fill-opacity="0.333333" stroke="#444444" stroke-opacity="0.333333" points="1490.0241,-278.8353 1499.6421,-274.3907 1489.3517,-271.8674 1490.0241,-278.8353"/>
</g>
<!-- fedora&#45;repos&#45;&gt;fedora&#45;release -->
<g id="edge31" class="edge">
<title>fedora&#45;repos&#45;&gt;fedora&#45;release</title>
<path fill="none" stroke="#444444" stroke-opacity="0.333333" d="M1499.2392,-270.5984C1441.1826,-272.9087 1357.3745,-276.2438 1294.5012,-278.7458"/>
<polygon fill="#444444" fill-opacity="0.333333" stroke="#444444" stroke-opacity="0.333333" points="1294.0563,-275.2607 1284.2034,-279.1556 1294.3347,-282.2551 1294.0563,-275.2607"/>
</g>
<!-- fedora&#45;repos&#45;&gt;fedora&#45;repos -->
<g id="edge32" class="edge">
<title>fedora&#45;repos&#45;&gt;fedora&#45;repos</title>
<path fill="none" stroke="#444444" stroke-opacity="0.333333" d="M1635.4292,-274.076C1646.0555,-273.1512 1653.3,-271.0892 1653.3,-267.89 1653.3,-265.8405 1650.3268,-264.2577 1645.3961,-263.1417"/>
<polygon fill="#444444" fill-opacity="0.333333" stroke="#444444" stroke-opacity="0.333333" points="1645.8265,-259.6676 1635.4292,-261.704 1644.8271,-266.5959 1645.8265,-259.6676"/>
</g>
<!-- fedora&#45;repos&#45;&gt;fedora&#45;gpg&#45;keys -->
<g id="edge33" class="edge">
<title>fedora&#45;repos&#45;&gt;fedora&#45;gpg&#45;keys</title>
<path fill="none" stroke="#444444" stroke-opacity="0.333333" d="M1603.9458,-285.9708C1622.287,-295.0203 1644.6645,-306.0612 1664.0958,-315.6485"/>
<polygon fill="#444444" fill-opacity="0.333333" stroke="#444444" stroke-opacity="0.333333" points="1662.5619,-318.7945 1673.0784,-320.0805 1665.6592,-312.517 1662.5619,-318.7945"/>
</g>
<!-- fedora&#45;repos&#45;&gt;fedora&#45;repos&#45;rawhide -->
<g id="edge34" class="edge">
<title>fedora&#45;repos&#45;&gt;fedora&#45;repos&#45;rawhide</title>
<path fill="none" stroke="#444444" stroke-opacity="0.333333" d="M1610.9535,-249.7543C1631.5875,-238.7048 1655.6638,-224.5807 1674.1156,-212.6454"/>
<polygon fill="#444444" fill-opacity="0.333333" stroke="#444444" stroke-opacity="0.333333" points="1676.2684,-215.4181 1682.6822,-206.9851 1672.4094,-209.5778 1676.2684,-215.4181"/>
</g>
<!-- fedora&#45;repos&#45;rawhide&#45;&gt;fedora&#45;repos -->
<g id="edge35" class="edge">
<title>fedora&#45;repos&#45;rawhide&#45;&gt;fedora&#45;repos</title>
<path fill="none" stroke="#444444" stroke-opacity="0.333333" d="M1659.9465,-206.9057C1639.3125,-217.9552 1615.2362,-232.0793 1596.7844,-244.0146"/>
<polygon fill="#444444" fill-opacity="0.333333" stroke="#444444" stroke-opacity="0.333333" points="1594.6316,-241.2419 1588.2178,-249.6749 1598.4906,-247.0822 1594.6316,-241.2419"/>
</g>
<!-- fedora&#45;repos&#45;rawhide&#45;&gt;fedora&#45;repos&#45;rawhide -->
<g id="edge36" class="edge">
<title>fedora&#45;repos&#45;rawhide&#45;&gt;fedora&#45;repos&#45;rawhide</title>
<path fill="none" stroke="#444444" stroke-opacity="0.333333" d="M1799.6583,-194.49C1810.5446,-193.4189 1817.6,-191.5122 1817.6,-188.77 1817.6,-187.0133 1814.7045,-185.5995 1809.7611,-184.5285"/>
<polygon fill="#444444" fill-opacity="0.333333" stroke="#444444" stroke-opacity="0.333333" points="1810.0597,-181.035 1799.6583,-183.05 1809.046,-187.9613 1810.0597,-181.035"/>
</g>
<!-- coreutils&#45;single&#45;&gt;glibc -->
<g id="edge48" class="edge">
<title>coreutils&#45;single&#45;&gt;glibc</title>
<path fill="none" stroke="#444444" stroke-opacity="0.333333" d="M225.6154,-125.4715C246.052,-146.2851 279.8311,-180.6874 302.8992,-204.1811"/>
<polygon fill="#444444" fill-opacity="0.333333" stroke="#444444" stroke-opacity="0.333333" points="300.4785,-206.7114 309.9821,-211.3946 305.4733,-201.807 300.4785,-206.7114"/>
</g>
<!-- coreutils&#45;single&#45;&gt;libacl -->
<g id="edge49" class="edge">
<title>coreutils&#45;single&#45;&gt;libacl</title>
<path fill="none" stroke="#444444" stroke-opacity="0.333333" d="M211.3539,-89.3644C213.6862,-76.9948 216.8239,-60.3544 219.4826,-46.2537"/>
<polygon fill="#444444" fill-opacity="0.333333" stroke="#444444" stroke-opacity="0.333333" points="222.9876,-46.554 221.4012,-36.0787 216.1088,-45.257 222.9876,-46.554"/>
</g>
<!-- coreutils&#45;single&#45;&gt;libattr -->
<g id="edge50" class="edge">
<title>coreutils&#45;single&#45;&gt;libattr</title>
<path fill="none" stroke="#444444" stroke-opacity="0.333333" d="M177.0924,-89.31C175.5987,-88.4307 174.0907,-87.5429 172.5783,-86.6526"/>
<polygon fill="#444444" fill-opacity="0.333333" stroke="#444444" stroke-opacity="0.333333" points="174.33,-83.6223 163.9367,-81.5653 170.7787,-89.6547 174.33,-83.6223"/>
</g>
<!-- coreutils&#45;single&#45;&gt;libcap -->
<g id="edge51" class="edge">
<title>coreutils&#45;single&#45;&gt;libcap</title>
<path fill="none" stroke="#444444" stroke-opacity="0.333333" d="M181.3824,-125.4775C170.4377,-132.8986 157.6008,-141.6027 145.8943,-149.5403"/>
<polygon fill="#444444" fill-opacity="0.333333" stroke="#444444" stroke-opacity="0.333333" points="143.9257,-146.6463 137.6132,-155.1553 147.8542,-152.4401 143.9257,-146.6463"/>
</g>
<!-- coreutils&#45;single&#45;&gt;libselinux -->
<g id="edge52" class="edge">
<title>coreutils&#45;single&#45;&gt;libselinux</title>
<path fill="none" stroke="#444444" stroke-opacity="0.333333" d="M334.6457,-102.7223C334.7176,-102.7196 334.7895,-102.7169 334.8614,-102.7142"/>
<polygon fill="#444444" fill-opacity="0.333333" stroke="#444444" stroke-opacity="0.333333" points="325.2165,-106.5826 335.0769,-102.7061 324.9513,-99.5875 325.2165,-106.5826"/>
</g>
<!-- filesystem -->
<g id="node1" class="node">
<title>filesystem</title>
<text text-anchor="middle" x="725.55" y="-334.91" font-family="Helvetica,sans-Serif" font-weight="bold" font-size="14.00" fill="#000000">filesystem (0.0 B)</text>
</g>
<!-- setup -->
<g id="node2" class="node">
<title>setup</title>
<text text-anchor="middle" x="926.8" y="-282.92" font-family="Helvetica,sans-Serif" font-weight="bold" font-size="14.00" fill="#000000">setup (709.7 kB)</text>
</g>
<!-- bash -->
<g id="node3" class="node">
<title>bash</title>
<text text-anchor="middle" x="480.26" y="-354.34" font-family="Helvetica,sans-Serif" font-weight="bold" font-size="14.00" fill="#000000">bash (7.2 MB)</text>
</g>
<!-- fedora&#45;release -->
<g id="node4" class="node">
<title>fedora&#45;release</title>
<text text-anchor="middle" x="1207.7" y="-278.5" font-family="Helvetica,sans-Serif" font-weight="bold" font-size="14.00" fill="#000000">fedora&#45;release (691.0 B)</text>
</g>
<!-- glibc -->
<g id="node5" class="node">
<title>glibc</title>
<text text-anchor="middle" x="327.73" y="-225.77" font-family="Helvetica,sans-Serif" font-weight="bold" font-size="14.00" fill="#000000">glibc (16.5 MB)</text>
</g>
<!-- ncurses&#45;libs -->
<g id="node6" class="node">
<title>ncurses&#45;libs</title>
<text text-anchor="middle" x="224.91" y="-441.69" font-family="Helvetica,sans-Serif" font-weight="bold" font-size="14.00" fill="#000000">ncurses&#45;libs (976.2 kB)</text>
</g>
<!-- basesystem -->
<g id="node7" class="node">
<title>basesystem</title>
<text text-anchor="middle" x="659.66" y="-248.97" font-family="Helvetica,sans-Serif" font-weight="bold" font-size="14.00" fill="#000000">basesystem (0.0 B)</text>
</g>
<!-- glibc&#45;common -->
<g id="node8" class="node">
<title>glibc&#45;common</title>
<text text-anchor="middle" x="381" y="-471.55" font-family="Helvetica,sans-Serif" font-weight="bold" font-size="14.00" fill="#000000">glibc&#45;common (7.8 MB)</text>
</g>
<!-- glibc&#45;minimal&#45;langpack -->
<g id="node9" class="node">
<title>glibc&#45;minimal&#45;langpack</title>
<text text-anchor="middle" x="275.69" y="-380.18" font-family="Helvetica,sans-Serif" font-weight="bold" font-size="22.00" fill="#cc0066">glibc&#45;minimal&#45;langpack (0.0 B)</text>
</g>
<!-- libgcc -->
<g id="node10" class="node">
<title>libgcc</title>
<text text-anchor="middle" x="90.335" y="-292.32" font-family="Helvetica,sans-Serif" font-weight="bold" font-size="14.00" fill="#000000">libgcc (194.2 kB)</text>
</g>
<!-- ncurses&#45;base -->
<g id="node11" class="node">
<title>ncurses&#45;base</title>
<text text-anchor="middle" x="74.5" y="-593.11" font-family="Helvetica,sans-Serif" font-weight="bold" font-size="14.00" fill="#000000">ncurses&#45;base (278.5 kB)</text>
</g>
<!-- libacl -->
<g id="node12" class="node">
<title>libacl</title>
<text text-anchor="middle" x="224.81" y="-14.3" font-family="Helvetica,sans-Serif" font-weight="bold" font-size="14.00" fill="#000000">libacl (40.7 kB)</text>
</g>
<!-- libattr -->
<g id="node13" class="node">
<title>libattr</title>
<text text-anchor="middle" x="133.16" y="-59.747" font-family="Helvetica,sans-Serif" font-weight="bold" font-size="14.00" fill="#000000">libattr (29.0 kB)</text>
</g>
<!-- libcap -->
<g id="node14" class="node">
<title>libcap</title>
<text text-anchor="middle" x="110.75" y="-169.67" font-family="Helvetica,sans-Serif" font-weight="bold" font-size="14.00" fill="#000000">libcap (145.4 kB)</text>
</g>
<!-- libselinux -->
<g id="node15" class="node">
<title>libselinux</title>
<text text-anchor="middle" x="401.96" y="-96.5" font-family="Helvetica,sans-Serif" font-weight="bold" font-size="14.00" fill="#000000">libselinux (173.6 kB)</text>
</g>
<!-- libsepol -->
<g id="node16" class="node">
<title>libsepol</title>
<text text-anchor="middle" x="467.38" y="-206.05" font-family="Helvetica,sans-Serif" font-weight="bold" font-size="14.00" fill="#000000">libsepol (747.3 kB)</text>
</g>
<!-- pcre2 -->
<g id="node17" class="node">
<title>pcre2</title>
<text text-anchor="middle" x="444.9" y="-25.797" font-family="Helvetica,sans-Serif" font-weight="bold" font-size="14.00" fill="#000000">pcre2 (743.5 kB)</text>
</g>
<!-- fedora&#45;release&#45;common -->
<g id="node18" class="node">
<title>fedora&#45;release&#45;common</title>
<text text-anchor="middle" x="1391.2" y="-281.11" font-family="Helvetica,sans-Serif" font-weight="bold" font-size="14.00" fill="#000000">fedora&#45;release&#45;common (14.2 kB)</text>
</g>
<!-- fedora&#45;repos -->
<g id="node19" class="node">
<title>fedora&#45;repos</title>
<text text-anchor="middle" x="1567.3" y="-264.19" font-family="Helvetica,sans-Serif" font-weight="bold" font-size="14.00" fill="#000000">fedora&#45;repos (8.4 kB)</text>
</g>
<!-- fedora&#45;gpg&#45;keys -->
<g id="node20" class="node">
<title>fedora&#45;gpg&#45;keys</title>
<text text-anchor="middle" x="1709.6" y="-334.4" font-family="Helvetica,sans-Serif" font-weight="bold" font-size="14.00" fill="#000000">fedora&#45;gpg&#45;keys (103.0 kB)</text>
</g>
<!-- fedora&#45;repos&#45;rawhide -->
<g id="node21" class="node">
<title>fedora&#45;repos&#45;rawhide</title>
<text text-anchor="middle" x="1703.6" y="-185.07" font-family="Helvetica,sans-Serif" font-weight="bold" font-size="14.00" fill="#000000">fedora&#45;repos&#45;rawhide (4.0 kB)</text>
</g>
<!-- tzdata -->
<g id="node22" class="node">
<title>tzdata</title>
<text text-anchor="middle" x="372.29" y="-678.47" font-family="Helvetica,sans-Serif" font-weight="bold" font-size="14.00" fill="#000000">tzdata (1.8 MB)</text>
</g>
<!-- coreutils&#45;single -->
<g id="node23" class="node">
<title>coreutils&#45;single</title>
<text text-anchor="middle" x="207.94" y="-101.87" font-family="Helvetica,sans-Serif" font-weight="bold" font-size="22.00" fill="#cc0066">coreutils&#45;single (1.4 MB)</text>
</g>
</g>

<script type="text/javascript"><![CDATA[

document.addEventListener('click', function(e) {
      e = e || window.event;
      var target = e.target || e.srcElement;
      text = target.parentElement.querySelector("title").textContent;

      console.log("Clicked on: " + text);
      // reset all strokes
      var nodes = document.getElementsByClassName("edge");

      for (index = 0, len = nodes.length; index < len; ++index) {
          //var title = nodes[index].querySelector("title").textContent.split("->");
          id = nodes[index].id;
          document.getElementById(id).querySelector("path").setAttribute("stroke-width", "1");
          document.getElementById(id).querySelector("path").setAttribute("stroke-opacity", "0.5");
          document.getElementById(id).querySelector("path").setAttribute("stroke", "#444444");
          document.getElementById(id).querySelector("polygon").setAttribute("stroke-width", "1");
          document.getElementById(id).querySelector("polygon").setAttribute("stroke-opacity", "0.5");
          document.getElementById(id).querySelector("polygon").setAttribute("stroke", "#444444");
      }
      // reset text highlight
      pkgs = document.getElementsByClassName("node");
      for (index2 = 0, len2 = pkgs.length; index2 < len2; ++index2) {
          target_id = pkgs[index2].id;
          document.getElementById(target_id).querySelector("text").setAttribute("font-weight", "normal");
      }

      // highlight deps
      var nodes = document.getElementsByClassName("edge");
      for (index = 0, len = nodes.length; index < len; ++index) {
        var title = nodes[index].querySelector("title").textContent.split("->");

        if (title[0] == text) {
          id = nodes[index].id;
          //console.log("ID:   " + id);
          document.getElementById(id).querySelector("path").setAttribute("stroke-width", "3");
          document.getElementById(id).querySelector("path").setAttribute("stroke-opacity", "1");
          document.getElementById(id).querySelector("path").setAttribute("stroke", "#aa3333");
          document.getElementById(id).querySelector("polygon").setAttribute("stroke-width", "5");
          document.getElementById(id).querySelector("polygon").setAttribute("stroke-opacity", "1");
          document.getElementById(id).querySelector("polygon").setAttribute("stroke", "#aa3333");

        }
        if (title[1] == text) {
          id = nodes[index].id;
          document.getElementById(id).querySelector("path").setAttribute("stroke-width", "3");
          document.getElementById(id).querySelector("path").setAttribute("stroke-opacity", "1");
          document.getElementById(id).querySelector("path").setAttribute("stroke", "#333377");
          document.getElementById(id).querySelector("polygon").setAttribute("stroke-width", "5");
          document.getElementById(id).querySelector("polygon").setAttribute("stroke-opacity", "1");
          document.getElementById(id).querySelector("polygon").setAttribute("stroke", "#333377");
        }

        if (title[0] == text || title[1] == text) {
          pkgs = document.getElementsByClassName("node");
          for (index2 = 0, len2 = pkgs.length; index2 < len2; ++index2) {
            var pkg_name = pkgs[index2].querySelector("title").textContent;
            if (pkg_name == title[0] || pkg_name == title[1]) {
              target_id = pkgs[index2].id;
              document.getElementById(target_id).querySelector("text").setAttribute("font-weight", "bold");
            }
          }
        }
      }


  }, false);

]]></script>


  <text
     
     id="text7664"
     y="19.384439"
     x="9.9055691"
     style="font-style:normal;font-weight:normal;font-size:12.49485588px;line-height:125%;font-family:sans-serif;letter-spacing:0px;word-spacing:0px;fill:#000000;fill-opacity:1;stroke:none;stroke-width:0.3123714px;stroke-linecap:butt;stroke-linejoin:miter;stroke-opacity:1"
     xml:space="preserve"><tspan
       style="font-size:12.00258541px;stroke-width:0.3123714px"
       y="19.384439"
       x="9.9055691"
       id="tspan7666"
       ><a href="report-base-definition--minimal-langpack-base-2--rawhide.html"><tspan
   style="font-weight:bold;font-size:12.00258541px;fill:#0066ff;stroke-width:0.3123714px"
   id="tspan7668">Minimal Base 2</tspan></a> (Fedora rawhide)</tspan></text>
  <text
     xml:space="preserve"
     style="font-style:normal;font-weight:normal;font-size:11.85299969px;line-height:125%;font-family:sans-serif;letter-spacing:0px;word-spacing:0px;fill:#000000;fill-opacity:1;stroke:none;stroke-width:0.296325px;stroke-linecap:butt;stroke-linejoin:miter;stroke-opacity:1"
     x="9.9365959"
     y="36.915382"
     id="text8235"><tspan
       
       id="tspan8237"
       x="9.9365959"
       y="36.915382"
       style="font-size:10.80232716px;fill:#666666;stroke-width:0.296325px">Generated by <a href="./"><tspan
   style="fill:#3771c8"
   id="tspan8255">Feedback Pipeline</tspan></a></tspan></text>

</svg>
