<?xml version="1.0" encoding="UTF-8" standalone="no"?>
<!DOCTYPE svg PUBLIC "-//W3C//DTD SVG 1.1//EN"
 "http://www.w3.org/Graphics/SVG/1.1/DTD/svg11.dtd">
<!-- Generated by graphviz version 2.40.1 (0)
 -->
<!-- Title: packages Pages: 1 -->
<svg width="1572pt" height="1234pt"
 viewBox="0.00 0.00 1886.53 1481.39" xmlns="http://www.w3.org/2000/svg" xmlns:xlink="http://www.w3.org/1999/xlink">
<g id="graph0" class="graph" transform="scale(.8333 .8333) rotate(0) translate(146.2041 1332.9337)">
<title>packages</title>
<polygon fill="#dae2ff" stroke="transparent" points="-146.2041,148.4586 -146.2041,-1332.9337 1740.3291,-1332.9337 1740.3291,148.4586 -146.2041,148.4586"/>
<polygon fill="#fed9a6" stroke="#fed9a6" points="1110.4484,-582.9827 1122.0476,-585.208 1171.9579,-597.1231 1182.9133,-567.21 1189.786,-537.796 1198.5864,-506.4156 1205.9541,-486.2985 1205.1415,-485.606 1204.7843,-485.3204 1116.5319,-419.1497 1111.2638,-414.9526 1098.9355,-403.308 1090.9615,-408.5818 1077.4932,-416.0335 1073.8125,-417.9352 1063.8672,-422.3636 1061.4762,-423.342 1045.8258,-428.6444 1036.8409,-431.0415 1027.2241,-432.9189 1012.838,-434.6994 1004.2837,-434.8391 1001.2363,-434.7797 996.685,-434.855 995.0666,-434.9402 988.5793,-434.8161 987.2709,-434.8383 980.7261,-435.1855 972.5016,-435.3261 970.7264,-435.4835 952.425,-438.432 905.1102,-447.7333 908.0242,-510.1409 908.1052,-521.1639 907.8593,-524.61 912.5015,-624.0313 988.9634,-590.4243 1001.891,-585.9657 1002.9036,-585.6656 1007.2797,-584.5763 1019.944,-582.6125 1026.05,-581.9572 1032.8804,-581.8737 1037.1232,-581.6243 1038.6721,-581.6071 1042.9406,-581.7629 1046.3167,-581.5723 1047.2048,-581.5644 1053.7791,-581.8196 1056.7848,-581.6566 1065.1007,-581.6019 1065.3424,-581.6118 1066.3345,-581.6993 1067.7084,-581.6935 1068.0098,-581.6782 1076.2566,-581.652 1080.3004,-582.0246 1080.9701,-582.0551 1085.9601,-582.0504 1088.6899,-581.9211 1090.4746,-582.0065 1099.6016,-582.0186 1101.3571,-582.1045 1110.4484,-582.9827 1110.4484,-582.9827"/>
<polygon fill="#fed9a6" stroke="#fed9a6" points="1104.6429,-931.0212 1105.9521,-913.5118 1106.0042,-909.1846 1107.6289,-886.8073 1109.433,-885.9265 1109.972,-885.6935 1125.973,-879.6468 1126.6121,-879.4426 1128.9783,-878.8202 1135.3929,-877.4905 1145.5421,-875.9579 1153.13,-875.6733 1159.0371,-875.1262 1162.4116,-875.1981 1163.6919,-875.1555 1168.6101,-875.2705 1167.4968,-932.3203 1168.3632,-932.566 1171.6941,-932.566 1177.2404,-974.0031 1178.3824,-932.4817 1179.5786,-932.4817 1183.1074,-935.5836 1183.1074,-935.5836 1179.5786,-932.4817 1178.3824,-932.4817 1177.2404,-974.0031 1171.6941,-932.566 1168.3632,-932.566 1167.4968,-932.3203 1168.6101,-875.2705 1176.7151,-875.0173 1177.9126,-874.9149 1180.7982,-874.5112 1186.832,-873.3353 1196.767,-870.8525 1203.3557,-868.8519 1204.2627,-868.5284 1205.5415,-868.0029 1214.2598,-863.9319 1221.6903,-860.0556 1249.1035,-844.2841 1245.3634,-827.3729 1241.6295,-800.9709 1241.3594,-798.2761 1308.6375,-789.351 1318.9955,-791.9904 1313.0526,-890.6448 1325.4645,-900.1839 1337.5676,-909.9863 1338.6851,-910.9808 1340.4447,-786.68 1345.4568,-789.7263 1351.3579,-789.7263 1356.2942,-786.7318 1357.2898,-831.2247 1352.5724,-924.1086 1368.3309,-939.9357 1380.6459,-952.7712 1377.6945,-865.8698 1377.6945,-865.8698 1380.6459,-952.7712 1368.3309,-939.9357 1367.1436,-785.8576 1370.0358,-785.8576 1372.5989,-783.9263 1372.4794,-706.7856 1371.9332,-693.1363 1413.2533,-701.1597 1423.4568,-703.84 1424.653,-610.254 1428.3313,-610.254 1433.7802,-641.8787 1435.8606,-679.5092 1441.2372,-610.1659 1441.8134,-610.1659 1445.8855,-613.6614 1451.0189,-615.1275 1456.0139,-613.6651 1461.0536,-665.2203 1461.7382,-682.2813 1467.9744,-610.0718 1472.1472,-610.0718 1472.2036,-610.0884 1477.1571,-610.0884 1477.822,-610.2905 1477.822,-610.2905 1477.1571,-610.0884 1472.2036,-610.0884 1472.1472,-610.0718 1467.9744,-610.0718 1461.7382,-682.2813 1461.0536,-665.2203 1456.0139,-613.6651 1460.2943,-609.6774 1457.0051,-606.9052 1457.0051,-606.9052 1460.2943,-609.6774 1456.0139,-613.6651 1451.0189,-615.1275 1445.8855,-613.6614 1441.8134,-610.1659 1441.2372,-610.1659 1435.8606,-679.5092 1433.7802,-641.8787 1428.3313,-610.254 1424.653,-610.254 1423.4568,-703.84 1413.2533,-701.1597 1371.9332,-693.1363 1372.4794,-706.7856 1372.5989,-783.9263 1370.0358,-785.8576 1367.1436,-785.8576 1368.3309,-939.9357 1352.5724,-924.1086 1357.2898,-831.2247 1356.2942,-786.7318 1357.4181,-785.3494 1355.9761,-783.6196 1351.3011,-780.9233 1351.3011,-780.9233 1355.9761,-783.6196 1357.4181,-785.3494 1356.2942,-786.7318 1351.3579,-789.7263 1345.4568,-789.7263 1340.4447,-786.68 1338.6851,-910.9808 1337.5676,-909.9863 1334.3975,-840.7994 1334.3975,-840.7994 1337.5676,-909.9863 1325.4645,-900.1839 1313.0526,-890.6448 1318.9955,-791.9904 1308.6375,-789.351 1241.3594,-798.2761 1233.9724,-757.868 1220.2869,-695.9879 1258.4852,-684.6287 1276.3457,-680.2838 1284.6759,-678.7153 1298.3687,-677.2552 1304.8298,-676.7429 1314.2566,-676.5102 1316.8878,-676.5172 1323.4645,-676.1799 1327.4192,-676.0856 1329.1389,-676.0916 1353.3065,-629.0175 1361.1577,-611.5267 1368.004,-593.353 1370.6482,-584.4824 1380.9352,-557.2014 1406.4209,-507.5596 1415.1565,-489.2776 1395.9657,-465.1404 1397.8806,-462.1085 1406.3635,-449.369 1407.1903,-448.2624 1424.5542,-426.3041 1504.3496,-416.1695 1508.3752,-411.9748 1508.3752,-411.9748 1504.3496,-416.1695 1424.5542,-426.3041 1407.1903,-448.2624 1406.3635,-449.369 1403.8666,-385.6758 1403.8666,-385.6758 1406.3635,-449.369 1397.8806,-462.1085 1395.9657,-465.1404 1384.4083,-461.593 1371.0151,-458.1825 1370.5394,-458.0863 1369.1614,-455.5501 1352.6677,-428.5771 1341.7211,-413.1599 1339.5673,-410.6151 1317.3127,-381.4511 1299.1531,-347.5042 1323.8732,-344.751 1339.9028,-346.589 1346.0164,-341.5656 1346.8202,-340.2411 1347.0397,-340.1736 1349.5643,-340.1736 1350.1936,-340.3649 1353.2281,-380.3419 1357.1721,-340.5641 1360.5763,-340.5641 1361.6625,-340.2253 1366.3993,-340.2253 1367.4806,-341.5938 1372.6115,-344.7534 1372.6115,-344.7534 1367.4806,-341.5938 1366.3993,-340.2253 1361.6625,-340.2253 1360.5763,-340.5641 1357.1721,-340.5641 1353.2281,-380.3419 1350.1936,-340.3649 1349.5643,-340.1736 1347.0397,-340.1736 1346.8202,-340.2411 1346.0164,-341.5656 1339.9028,-346.589 1323.8732,-344.751 1299.1531,-347.5042 1279.4583,-321.5944 1276.4865,-318.0833 1275.882,-317.3024 1260.6212,-295.7233 1275.5164,-263.6557 1295.8372,-226.5229 1292.8242,-222.3512 1222.6516,-119.29 1312.1475,-119.29 1353.6042,-125.6017 1358.6134,-121.9553 1360.5299,-171.1261 1364.7246,-119.4165 1368.3685,-119.4165 1369.9885,-118.935 1373.08,-118.935 1375.0446,-121.3021 1379.15,-123.6326 1379.15,-123.6326 1375.0446,-121.3021 1373.08,-118.935 1369.9885,-118.935 1368.3685,-119.4165 1364.7246,-119.4165 1360.5299,-171.1261 1358.6134,-121.9553 1353.6042,-125.6017 1312.1475,-119.29 1222.6516,-119.29 1186.4019,-73.3212 1183.6635,-69.7365 1188.6655,-49.658 1201.6421,-1.2 1208.5154,21.4865 1220.7321,27.2909 1356.9559,24.0815 1362.1936,24.1593 1379.1099,25.062 1386.984,25.7847 1388.6978,26.0079 1402.245,28.0345 1422.0502,31.76 1441.8451,35.8582 1549.842,-42.8093 1580.3153,-96.8053 1579.5316,-103.8445 1577.3804,-126.9517 1572.2351,-218.2694 1575.7223,-220.5625 1590.7715,-230.158 1588.0134,-327.56 1588.2841,-371.6749 1588.2841,-371.6749 1588.0134,-327.56 1590.7715,-230.158 1707.6403,-297.5526 1736.3291,-365.7207 1731.3428,-410.51 1727.8629,-486.6854 1646.9644,-569.2607 1644.5033,-610.13 1644.4764,-627.9499 1713.2432,-741.9301 1714.4001,-747.7362 1729.5059,-810.2258 1727.1837,-813.6342 1670.8793,-899.6822 1575.3752,-923.9182 1566.3075,-926.4005 1553.1499,-923.8253 1537.2386,-921.325 1536.8833,-921.283 1529.834,-920.5834 1529.7617,-916.3095 1530.1611,-771.8732 1535.5641,-773.5283 1541.168,-771.8022 1544.6279,-768.6432 1541.493,-765.798 1541.493,-765.798 1544.6279,-768.6432 1541.168,-771.8022 1535.5641,-773.5283 1530.1611,-771.8732 1529.7617,-916.3095 1529.834,-920.5834 1513.0227,-919.5605 1513.0675,-911.1876 1511.823,-828.6091 1511.823,-828.6091 1513.0675,-911.1876 1513.0227,-919.5605 1461.0415,-919.3969 1383.1689,-955.5864 1382.7186,-956.5929 1338.417,-1060.8263 1227.8389,-1038.2112 1215.0333,-1035.9518 1203.2074,-1034.2029 1199.6021,-1033.8763 1191.4429,-1033.3698 1186.0632,-1033.1892 1180.3945,-1033.3218 1180.0227,-1033.3518 1177.1241,-1033.4172 1163.0543,-1033.3264 1162.5725,-1033.3508 1161.5616,-1033.3728 1153.6875,-1033.3151 1152.7826,-1033.2822 1148.4806,-1033.2488 1146.9242,-1033.1917 1098.5377,-1030.0159 1104.5293,-947.4974 1104.6566,-936.8657 1104.5887,-935.5008 1104.6429,-931.0212 1104.6429,-931.0212"/>
<polygon fill="#fbb4ae" stroke="#fbb4ae" points="669.4428,-526.749 668.9586,-520.3418 659.7392,-436.9498 755.3582,-390.3847 763.1599,-386.3867 773.7355,-380.4287 773.1858,-524.2781 773.7844,-524.4486 777.9813,-524.4486 778.2916,-524.3608 783.0818,-524.3608 783.2076,-524.3249 784.6782,-524.3249 789.2252,-528.3849 793.064,-529.4413 793.064,-529.4413 789.2252,-528.3849 784.6782,-524.3249 783.2076,-524.3249 783.0818,-524.3608 778.2916,-524.3608 777.9813,-524.4486 773.7844,-524.4486 773.1858,-524.2781 773.7355,-380.4287 778.7552,-377.4743 786.8256,-372.5212 787.7441,-371.9347 800.3531,-363.2371 801.6624,-362.2676 804.4384,-342.7484 816.3911,-338.3073 917.4167,-295.7111 921.0295,-294.54 927.055,-292.8731 942.4241,-290.08 952.9224,-289.1879 955.84,-289.0808 959.0163,-289.1167 959.3148,-289.1343 963.3973,-289.178 963.4182,-289.1772 970.3983,-289.5846 979.0807,-289.2439 981.9643,-289.4086 991.2844,-289.0331 989.5146,-352.533 988.3592,-352.533 984.9068,-349.5073 978.9039,-347.677 974.4708,-348.9689 970.7872,-313.0228 968.0541,-352.4726 964.6976,-352.4726 962.586,-354.2155 961.9692,-354.4387 958.3765,-357.9507 821.4138,-380.0742 836.8625,-393.0011 829.1556,-518.1209 824.4527,-520.8094 824.4527,-520.8094 829.1556,-518.1209 836.8625,-393.0011 821.4138,-380.0742 958.3765,-357.9507 961.9692,-354.4387 962.586,-354.2155 964.6976,-352.4726 968.0541,-352.4726 970.7872,-313.0228 974.4708,-348.9689 978.9039,-347.677 984.9068,-349.5073 988.3592,-352.533 989.5146,-352.533 989.911,-352.6493 988.5793,-434.8161 987.2709,-434.8383 980.7261,-435.1855 972.5016,-435.3261 970.7264,-435.4835 952.425,-438.432 905.1102,-447.7333 908.0242,-510.1409 908.1052,-521.1639 907.8593,-524.61 912.5015,-624.0313 988.9634,-590.4243 1001.891,-585.9657 1002.9036,-585.6656 1007.2797,-584.5763 1019.944,-582.6125 1026.05,-581.9572 1032.8804,-581.8737 1037.1232,-581.6243 1038.6721,-581.6071 1042.9406,-581.7629 1046.3167,-581.5723 1047.2048,-581.5644 1053.7791,-581.8196 1056.7848,-581.6566 1065.1007,-581.6019 1065.3424,-581.6118 1066.3345,-581.6993 1067.7084,-581.6935 1068.0098,-581.6782 1076.2566,-581.652 1080.3004,-582.0246 1080.9701,-582.0551 1085.9601,-582.0504 1088.6899,-581.9211 1090.4746,-582.0065 1099.6016,-582.0186 1101.3571,-582.1045 1110.4484,-582.9827 1122.0476,-585.208 1171.9579,-597.1231 1182.9133,-567.21 1189.786,-537.796 1198.5864,-506.4156 1205.9541,-486.2985 1205.1415,-485.606 1204.7843,-485.3204 1116.5319,-419.1497 1111.2638,-414.9526 1098.9355,-403.308 1090.9615,-408.5818 1077.4932,-416.0335 1073.8125,-417.9352 1063.8672,-422.3636 1061.4762,-423.342 1045.8258,-428.6444 1036.8409,-431.0415 1027.2241,-432.9189 1012.838,-434.6994 1004.2837,-434.8391 1001.2363,-434.7797 996.685,-434.855 995.0666,-434.9402 988.5793,-434.8161 989.911,-352.6493 989.5146,-352.533 991.2844,-289.0331 996.6595,-288.5554 997.507,-288.439 1043.5771,-279.8537 1046.2705,-265.4445 1047.3044,-258.2048 1048.4771,-246.2574 1050.7539,-230.5463 1052.2175,-215.6297 1067.4458,-134.1628 1118.9583,-110.2913 1126.1213,-106.7989 1145.0638,-96.1728 1161.7612,-85.595 1155.1641,-247.4253 1150.3855,-246.1025 1150.3855,-246.1025 1155.1641,-247.4253 1161.7612,-85.595 1163.8522,-84.2211 1182.8391,-70.3577 1183.6635,-69.7365 1186.4019,-73.3212 1222.6516,-119.29 1292.8242,-222.3512 1295.8372,-226.5229 1275.5164,-263.6557 1260.6212,-295.7233 1275.882,-317.3024 1270.7714,-388.2047 1270.311,-388.9634 1267.1635,-388.9634 1260.5397,-342.3417 1258.542,-314.0131 1258.0541,-297.5384 1248.8854,-302.7535 1248.6321,-312.7822 1243.9261,-384.6714 1238.6554,-384.6714 1234.2274,-387.2536 1232.4119,-389.5373 1233.6078,-390.9477 1238.1366,-393.5672 1244.3312,-393.5672 1244.3312,-393.5672 1238.1366,-393.5672 1233.6078,-390.9477 1232.4119,-389.5373 1234.2274,-387.2536 1238.6554,-384.6714 1243.9261,-384.6714 1248.6321,-312.7822 1248.8854,-302.7535 1258.0541,-297.5384 1258.542,-314.0131 1260.5397,-342.3417 1267.1635,-388.9634 1270.311,-388.9634 1270.7714,-388.2047 1275.882,-317.3024 1276.4865,-318.0833 1279.4583,-321.5944 1299.1531,-347.5042 1317.3127,-381.4511 1339.5673,-410.6151 1341.7211,-413.1599 1352.6677,-428.5771 1369.1614,-455.5501 1370.5394,-458.0863 1371.0151,-458.1825 1384.4083,-461.593 1395.9657,-465.1404 1415.1565,-489.2776 1406.4209,-507.5596 1380.9352,-557.2014 1370.6482,-584.4824 1368.004,-593.353 1361.1577,-611.5267 1353.3065,-629.0175 1329.1389,-676.0916 1327.4192,-676.0856 1323.4645,-676.1799 1316.8878,-676.5172 1314.2566,-676.5102 1304.8298,-676.7429 1305.3346,-621.999 1309.1202,-567.1951 1308.9672,-567.1497 1308.9672,-567.1497 1309.1202,-567.1951 1305.3346,-621.999 1302.5586,-567.1806 1301.4833,-567.1806 1297.5815,-563.7572 1292.3459,-562.2228 1286.8041,-563.9051 1284.2771,-478.2417 1282.047,-478.3031 1281.041,-478.2964 1279.5826,-478.3364 1269.5242,-478.2679 1264.7633,-478.0725 1261.2657,-478.2856 1261.5603,-507.8344 1261.5603,-507.8344 1261.2657,-478.2856 1264.7633,-478.0725 1269.5242,-478.2679 1279.5826,-478.3364 1281.041,-478.2964 1282.047,-478.3031 1284.2771,-478.2417 1286.8041,-563.9051 1292.3459,-562.2228 1297.5815,-563.7572 1301.4833,-567.1806 1302.5586,-567.1806 1305.3346,-621.999 1304.8298,-676.7429 1298.3687,-677.2552 1284.6759,-678.7153 1276.3457,-680.2838 1258.4852,-684.6287 1220.2869,-695.9879 1233.9724,-757.868 1241.3594,-798.2761 1241.6295,-800.9709 1245.3634,-827.3729 1249.1035,-844.2841 1221.6903,-860.0556 1214.2598,-863.9319 1205.5415,-868.0029 1204.2627,-868.5284 1203.3557,-868.8519 1196.767,-870.8525 1186.832,-873.3353 1180.7982,-874.5112 1177.9126,-874.9149 1176.7151,-875.0173 1168.6101,-875.2705 1163.6919,-875.1555 1162.4116,-875.1981 1159.0371,-875.1262 1153.13,-875.6733 1145.5421,-875.9579 1145.5453,-872.3716 1145.5453,-872.3716 1145.5421,-875.9579 1135.3929,-877.4905 1128.9783,-878.8202 1132.288,-822.8482 1137.7775,-819.6292 1138.6355,-818.6465 1137.3864,-817.1308 1131.7598,-813.7324 1126.7173,-813.7324 1126.7173,-813.7324 1131.7598,-813.7324 1137.3864,-817.1308 1138.6355,-818.6465 1137.7775,-819.6292 1132.288,-822.8482 1128.9783,-878.8202 1126.6121,-879.4426 1125.973,-879.6468 1109.972,-885.6935 1109.433,-885.9265 1107.6289,-886.8073 1106.0042,-909.1846 1105.9521,-913.5118 1104.6429,-931.0212 1104.5887,-935.5008 1104.6566,-936.8657 1104.5293,-947.4974 1098.5377,-1030.0159 1146.9242,-1033.1917 1148.4806,-1033.2488 1152.7826,-1033.2822 1153.6875,-1033.3151 1161.5616,-1033.3728 1162.5725,-1033.3508 1166.6547,-1129.5408 1171.3422,-1132.2059 1173.0182,-1134.1775 1172.3617,-1134.9369 1172.3617,-1134.9369 1173.0182,-1134.1775 1171.3422,-1132.2059 1166.6547,-1129.5408 1162.5725,-1033.3508 1163.0543,-1033.3264 1177.1241,-1033.4172 1180.0227,-1033.3518 1179.8231,-1097.6929 1182.6272,-1127.8507 1182.6272,-1127.8507 1179.8231,-1097.6929 1180.0227,-1033.3518 1180.3945,-1033.3218 1186.0632,-1033.1892 1191.4429,-1033.3698 1199.6021,-1033.8763 1203.2074,-1034.2029 1215.0333,-1035.9518 1227.8389,-1038.2112 1338.417,-1060.8263 1340.3229,-1070.3906 1342.0347,-1120.2443 1340.8381,-1134.1 1338.8447,-1204.1844 1318.9978,-1228.734 1221.9501,-1279.3292 1182.2783,-1286.723 1163.3735,-1290.9753 1162.9869,-1290.9365 1155.0313,-1290.568 1146.6571,-1290.4816 1083.1508,-1290.9709 1081.0459,-1290.2959 978.0089,-1319.111 962.723,-1323.6957 951.5928,-1327.2552 953.5837,-1196.9478 957.8084,-1167.1802 956.0724,-1166.6443 958.1539,-1130.9417 962.7881,-1163.8384 967.0459,-1160.5946 976.1143,-1046.0326 979.8762,-1046.2581 996.7655,-1047.6631 998.7609,-1047.8751 1009.7408,-1049.551 1028.5033,-1053.7247 1021.9498,-929.9881 1026.9279,-927.1371 1028.5901,-925.1627 1027.271,-923.6537 1022.569,-920.9845 1022.569,-920.9845 1027.271,-923.6537 1028.5901,-925.1627 1026.9279,-927.1371 1021.9498,-929.9881 1028.5033,-1053.7247 1009.7408,-1049.551 998.7609,-1047.8751 996.7655,-1047.6631 979.8762,-1046.2581 976.1143,-1046.0326 967.0459,-1160.5946 962.7881,-1163.8384 958.1539,-1130.9417 956.0724,-1166.6443 957.8084,-1167.1802 953.5837,-1196.9478 951.5928,-1327.2552 949.039,-1328.1729 937.7645,-1327.3589 932.1666,-1327.2518 912.4854,-1327.572 912.8389,-1285.3542 919.4263,-1170.405 924.1182,-1171.751 929.9028,-1170.0094 933.4244,-1166.8585 929.285,-1163.106 924.8749,-1161.8473 924.8749,-1161.8473 929.285,-1163.106 933.4244,-1166.8585 929.9028,-1170.0094 924.1182,-1171.751 919.4263,-1170.405 912.8389,-1285.3542 912.4854,-1327.572 901.4076,-1328.3398 894.581,-1328.9337 892.6233,-1328.5107 885.6097,-1327.2505 883.8573,-1326.9675 811.9484,-1316.6565 728.0516,-1200.4872 716.5666,-1176.0615 713.8668,-1166.8 708.0656,-1150.3014 711.172,-1073.5139 712.6691,-1072.6068 723.433,-1066.2893 748.6089,-1052.9553 749.8847,-1052.3052 848.857,-1007.621 859.2913,-958.8455 872.8173,-942.8965 873.737,-941.8641 875.5482,-939.5903 875.727,-939.3876 893.8589,-919.837 894.1323,-919.5599 898.4864,-915.6558 913.4957,-903.0467 914.3724,-902.3652 984.4274,-842.7985 991.3256,-836.5012 991.9209,-835.8823 1001.6669,-827.1683 1000.8217,-795.1514 1000.8753,-788.027 1000.0363,-755.6898 917.5974,-692.8086 912.4257,-688.6787 897.0658,-677.0316 895.447,-675.7531 890.6673,-671.8248 886.8276,-668.4176 883.0325,-669.1334 862.5577,-672.2122 847.3902,-673.3262 840.7606,-673.6856 823.7366,-674.2812 815.6328,-675.0067 805.5732,-676.0904 800.6354,-676.8018 780.4059,-680.4562 769.6123,-682.9927 765.5837,-684.1598 754.9904,-675.3098 677.1729,-612.6416 671.4377,-560.7661 669.4911,-535.1412 669.4428,-526.749 669.4428,-526.749"/>
<polygon fill="#bbd7d9" stroke="#bbd7d9" points="917.4167,-295.7111 917.1642,-289.4235 917.1642,-289.4235 917.4167,-295.7111 816.3911,-338.3073 804.4384,-342.7484 797.3006,-319.613 795.4058,-312.9707 787.0636,-281.1184 783.6543,-266.7556 805.1563,-228.9668 809.4086,-220.3847 844.7218,-143.415 845.0528,-142.7481 862.0551,-110.9701 865.4294,-105.04 844.5928,-59.8356 810.9319,8.3166 794.2479,38.8556 943.1661,142.6496 954.4527,144.4586 955.6975,144.1427 968.3384,141.1707 984.3666,138.0071 984.3704,138.0065 990.1091,137.1993 1006.901,135.4677 1017.5058,134.7743 1070.1537,132.3258 1208.5154,21.4865 1201.6421,-1.2 1188.6655,-49.658 1183.6635,-69.7365 1182.8391,-70.3577 1163.8522,-84.2211 1161.7612,-85.595 1145.0638,-96.1728 1126.1213,-106.7989 1118.9583,-110.2913 1067.4458,-134.1628 1052.2175,-215.6297 1050.7539,-230.5463 1048.4771,-246.2574 1047.3044,-258.2048 1046.2705,-265.4445 1043.5771,-279.8537 997.507,-288.439 996.6595,-288.5554 991.2844,-289.0331 981.9643,-289.4086 979.0807,-289.2439 970.3983,-289.5846 963.4182,-289.1772 963.3973,-289.178 959.3148,-289.1343 959.0163,-289.1167 955.84,-289.0808 952.9224,-289.1879 942.4241,-290.08 941.831,-266.5357 943.908,-230.6681 948.5405,-230.6681 953.8467,-227.4972 955.3201,-225.7015 954.6614,-224.9686 954.6614,-224.9686 955.3201,-225.7015 953.8467,-227.4972 948.5405,-230.6681 943.908,-230.6681 941.831,-266.5357 942.4241,-290.08 927.055,-292.8731 921.0295,-294.54 917.4167,-295.7111 917.4167,-295.7111"/>
<polygon fill="#d8d6da" stroke="#d8d6da" points="844.7218,-143.415 845.0528,-142.7481 862.0551,-110.9701 865.4294,-105.04 844.5928,-59.8356 810.9319,8.3166 794.2479,38.8556 783.8348,40.7134 743.0167,25.0653 717.36,16.7264 718.3762,-26.4608 717.5428,-54.9976 718.1374,-130.0386 721.9688,-133.4585 717.9861,-136.7985 713.5282,-138.0317 713.5282,-138.0317 717.9861,-136.7985 721.9688,-133.4585 718.1374,-130.0386 717.5428,-54.9976 718.3762,-26.4608 717.36,16.7264 712.8483,15.6169 709.8158,14.9302 702.166,-132.9108 698.8594,-132.9108 697.8897,-133.1967 696.202,-169.0678 698.8904,-224.3952 681.7244,-220.6867 653.7385,-216.5412 653.6274,-216.5208 644.9406,-214.6177 632.5485,-211.4628 629.4263,-210.4494 626.9126,-302.5756 622.1578,-299.7974 616.3019,-299.7974 610.3769,-303.4432 609.9914,-303.8984 610.8604,-304.9869 610.8604,-304.9869 609.9914,-303.8984 610.3769,-303.4432 616.3019,-299.7974 622.1578,-299.7974 626.9126,-302.5756 629.4263,-210.4494 615.804,-205.543 603.8656,-199.9821 600.9741,-198.5341 582.3901,-187.8899 585.098,-255.574 585.098,-255.574 582.3901,-187.8899 600.9741,-198.5341 603.8656,-199.9821 615.804,-205.543 629.4263,-210.4494 632.5485,-211.4628 644.9406,-214.6177 653.6274,-216.5208 653.7385,-216.5412 681.7244,-220.6867 698.8904,-224.3952 696.202,-169.0678 697.8897,-133.1967 698.8594,-132.9108 702.166,-132.9108 709.8158,14.9302 690.9612,11.0272 683.1109,9.7124 684.2942,-97.0671 684.2942,-97.0671 683.1109,9.7124 579.657,-3.5458 517.9257,-130.3761 513.4438,-138.7769 511.4441,-142.3673 501.9954,-147.4196 453.7498,-220.7164 440.6758,-300.078 438.1094,-312.3636 584.1273,-310.1154 578.7296,-423.8872 575.3829,-423.8442 575.3773,-424.1393 570.3098,-543.3503 566.0751,-543.3503 565.7466,-543.4474 564.8204,-578.6761 566.2322,-598.1638 566.7197,-629.0247 571.4639,-629.3307 575.9153,-629.4624 575.1561,-660.7653 576.8668,-710.5119 582.0357,-710.5119 588.3157,-714.331 588.7601,-714.8369 591.9572,-714.8369 592.1351,-714.7848 592.1351,-714.7848 591.9572,-714.8369 588.7601,-714.8369 588.3157,-714.331 582.0357,-710.5119 576.8668,-710.5119 570.7155,-714.33 570.3332,-714.7812 571.8988,-716.6754 576.8213,-719.5327 581.5933,-719.5327 581.5933,-719.5327 576.8213,-719.5327 571.8988,-716.6754 570.3332,-714.7812 570.7155,-714.33 576.8668,-710.5119 575.1561,-660.7653 575.9153,-629.4624 571.4639,-629.3307 566.7197,-629.0247 566.2322,-598.1638 564.8204,-578.6761 565.7466,-543.4474 566.0751,-543.3503 570.3098,-543.3503 575.3773,-424.1393 575.3829,-423.8442 562.3563,-423.0684 548.3943,-421.5851 540.2216,-420.146 538.0486,-499.8033 533.6365,-543.3967 535.3067,-543.8929 535.8359,-543.8929 539.797,-547.2215 544.2448,-548.4535 544.2448,-548.4535 539.797,-547.2215 535.8359,-543.8929 535.3067,-543.8929 533.6365,-543.3967 538.0486,-499.8033 540.2216,-420.146 529.2586,-417.7012 529.2586,-417.7012 540.2216,-420.146 548.3943,-421.5851 562.3563,-423.0684 575.3829,-423.8442 578.7296,-423.8872 584.1273,-310.1154 438.1094,-312.3636 421.9092,-382.5344 325.0421,-449.6678 286.4059,-415.0943 176.5671,-313.0797 123.8569,-310.2737 104.2206,-308.4985 101.6442,-308.218 91.2508,-306.5081 82.1409,-304.8402 85.1725,-454.2607 79.9368,-454.2607 74.4299,-457.3532 73.209,-458.692 74.1769,-459.7927 74.1769,-459.7927 73.209,-458.692 74.4299,-457.3532 79.9368,-454.2607 85.1725,-454.2607 82.1409,-304.8402 80.2348,-304.456 64.8428,-300.7805 57.5503,-298.7696 41.7293,-293.8195 22.8826,-287.231 -85.2634,-353.3551 -142.2041,-421.2455 -139.4312,-441.6711 -136.7774,-463.9972 -134.6699,-467.3069 -72.9921,-571.8794 -35.7051,-616.7379 -17.2129,-629.2573 32.347,-647.8312 48.1466,-709.1755 59.0797,-759.9693 61.6219,-773.1606 72.2908,-801.8045 106.0163,-880.5814 184.5706,-925.3438 187.7742,-927.2286 203.1637,-922.5093 205.5598,-921.0453 210.8656,-917.9065 224.1632,-910.2969 234.813,-904.6216 233.6052,-815.9503 233.9,-800.5388 232.3517,-727.8857 238.0236,-731.3163 243.0493,-731.3163 248.8663,-727.9354 249.8427,-726.8471 249.408,-726.3599 242.7592,-722.332 242.7592,-722.332 249.408,-726.3599 249.8427,-726.8471 248.8663,-727.9354 243.0493,-731.3163 238.0236,-731.3163 232.3517,-727.8857 233.9,-800.5388 233.6052,-815.9503 234.813,-904.6216 238.8269,-902.7173 256.921,-894.8209 253.3143,-726.8471 253.6822,-726.7437 257.2836,-726.7437 257.2836,-726.7437 253.6822,-726.7437 253.3143,-726.8471 256.921,-894.8209 262.5503,-892.4744 275.6982,-887.7554 291.3546,-882.4403 417.4178,-842.1497 453.8157,-864.3906 512.1699,-891.7957 529.5356,-876.72 625.2504,-876.72 664.9155,-878.783 685.1406,-883.1229 691.2906,-878.9071 692.733,-876.8264 695.1237,-876.8264 695.7828,-876.6363 695.7828,-876.6363 695.1237,-876.8264 692.733,-876.8264 691.2906,-878.9071 685.1406,-883.1229 664.9155,-878.783 625.2504,-876.72 529.5356,-876.72 512.1699,-891.7957 551.3326,-972.3655 668.1626,-1047.6858 681.632,-1055.2743 706.585,-1070.3695 711.172,-1073.5139 712.6691,-1072.6068 723.433,-1066.2893 748.6089,-1052.9553 749.8847,-1052.3052 848.857,-1007.621 859.2913,-958.8455 872.8173,-942.8965 873.737,-941.8641 875.5482,-939.5903 875.727,-939.3876 882.4156,-826.1729 876.9377,-827.8268 870.732,-825.8763 867.6461,-823.1292 866.1593,-823.1292 865.3548,-823.3723 860.9261,-823.3723 860.3906,-823.2113 855.0698,-823.2113 854.4664,-823.0312 851.1529,-823.0312 851.1529,-823.0312 854.4664,-823.0312 855.0698,-823.2113 860.3906,-823.2113 860.9261,-823.3723 865.3548,-823.3723 866.1593,-823.1292 867.6461,-823.1292 870.732,-825.8763 876.9377,-827.8268 882.4156,-826.1729 885.8964,-823.1285 882.2058,-819.8375 882.2058,-819.8375 885.8964,-823.1285 882.4156,-826.1729 875.727,-939.3876 893.8589,-919.837 894.1323,-919.5599 898.4864,-915.6558 913.4957,-903.0467 914.3724,-902.3652 984.4274,-842.7985 991.3256,-836.5012 991.9209,-835.8823 1001.6669,-827.1683 1000.8217,-795.1514 1000.8753,-788.027 1000.0363,-755.6898 917.5974,-692.8086 912.4257,-688.6787 897.0658,-677.0316 895.447,-675.7531 890.6673,-671.8248 886.8276,-668.4176 883.0325,-669.1334 862.5577,-672.2122 847.3902,-673.3262 840.7606,-673.6856 823.7366,-674.2812 815.6328,-675.0067 805.5732,-676.0904 800.6354,-676.8018 780.4059,-680.4562 769.6123,-682.9927 765.5837,-684.1598 754.9904,-675.3098 677.1729,-612.6416 615.4816,-625.934 606.4803,-627.5621 606.2713,-660.6597 606.2713,-660.6597 606.4803,-627.5621 615.4816,-625.934 677.1729,-612.6416 671.4377,-560.7661 669.4911,-535.1412 669.4428,-526.749 668.9586,-520.3418 659.7392,-436.9498 755.3582,-390.3847 763.1599,-386.3867 773.7355,-380.4287 778.7552,-377.4743 786.8256,-372.5212 787.7441,-371.9347 800.3531,-363.2371 801.6624,-362.2676 804.4384,-342.7484 797.3006,-319.613 795.4058,-312.9707 787.0636,-281.1184 783.6543,-266.7556 805.1563,-228.9668 809.4086,-220.3847 844.7218,-143.415 844.7218,-143.415"/>
<polyline fill="none" stroke="#000000" points="1042.9406,-581.7629 1038.6721,-581.6071 1037.1232,-581.6243 1032.8804,-581.8737 1026.05,-581.9572 1019.944,-582.6125 1007.2797,-584.5763 1002.9036,-585.6656 1001.891,-585.9657 988.9634,-590.4243 912.5015,-624.0313 907.8593,-524.61 908.1052,-521.1639 908.0242,-510.1409 905.1102,-447.7333 952.425,-438.432 970.7264,-435.4835 972.5016,-435.3261 980.7261,-435.1855 987.2709,-434.8383 988.5793,-434.8161 995.0666,-434.9402 996.685,-434.855 1001.2363,-434.7797 1004.2837,-434.8391 1012.838,-434.6994 1027.2241,-432.9189 1036.8409,-431.0415 1045.8258,-428.6444 1061.4762,-423.342 1063.8672,-422.3636 1073.8125,-417.9352 1077.4932,-416.0335 1090.9615,-408.5818 1098.9355,-403.308 1111.2638,-414.9526 1116.5319,-419.1497 1204.7843,-485.3204 1205.1415,-485.606 1205.9541,-486.2985 1198.5864,-506.4156 1189.786,-537.796 1182.9133,-567.21 1171.9579,-597.1231 1122.0476,-585.208 1110.4484,-582.9827 1101.3571,-582.1045 1099.6016,-582.0186 1090.4746,-582.0065 1088.6899,-581.9211 1085.9601,-582.0504 1080.9701,-582.0551 1080.3004,-582.0246 1076.2566,-581.652 1068.0098,-581.6782 1067.7084,-581.6935 1066.3345,-581.6993 1065.3424,-581.6118 1065.1007,-581.6019 1056.7848,-581.6566 1053.7791,-581.8196 1047.2048,-581.5644 1046.3167,-581.5723 1042.9406,-581.7629 "/>
<polyline fill="none" stroke="#000000" points="1644.5033,-610.13 1644.4764,-627.9499 1713.2432,-741.9301 1714.4001,-747.7362 1729.5059,-810.2258 1727.1837,-813.6342 1670.8793,-899.6822 1575.3752,-923.9182 1566.3075,-926.4005 1553.1499,-923.8253 1537.2386,-921.325 1536.8833,-921.283 1529.834,-920.5834 1513.0227,-919.5605 1461.0415,-919.3969 1383.1689,-955.5864 1382.7186,-956.5929 1338.417,-1060.8263 1227.8389,-1038.2112 1215.0333,-1035.9518 1203.2074,-1034.2029 1199.6021,-1033.8763 1191.4429,-1033.3698 1186.0632,-1033.1892 1180.3945,-1033.3218 1180.0227,-1033.3518 1177.1241,-1033.4172 1163.0543,-1033.3264 1162.5725,-1033.3508 1161.5616,-1033.3728 1153.6875,-1033.3151 1152.7826,-1033.2822 1148.4806,-1033.2488 1146.9242,-1033.1917 1098.5377,-1030.0159 1104.5293,-947.4974 1104.6566,-936.8657 1104.5887,-935.5008 1104.6429,-931.0212 1105.9521,-913.5118 1106.0042,-909.1846 1107.6289,-886.8073 1109.433,-885.9265 1109.972,-885.6935 1125.973,-879.6468 1126.6121,-879.4426 1128.9783,-878.8202 1135.3929,-877.4905 1145.5421,-875.9579 1153.13,-875.6733 1159.0371,-875.1262 1162.4116,-875.1981 1163.6919,-875.1555 1168.6101,-875.2705 1176.7151,-875.0173 1177.9126,-874.9149 1180.7982,-874.5112 1186.832,-873.3353 1196.767,-870.8525 1203.3557,-868.8519 1204.2627,-868.5284 1205.5415,-868.0029 1214.2598,-863.9319 1221.6903,-860.0556 1249.1035,-844.2841 1245.3634,-827.3729 1241.6295,-800.9709 1241.3594,-798.2761 1233.9724,-757.868 1220.2869,-695.9879 1258.4852,-684.6287 1276.3457,-680.2838 1284.6759,-678.7153 1298.3687,-677.2552 1304.8298,-676.7429 1314.2566,-676.5102 1316.8878,-676.5172 1323.4645,-676.1799 1327.4192,-676.0856 1329.1389,-676.0916 1353.3065,-629.0175 1361.1577,-611.5267 1368.004,-593.353 1370.6482,-584.4824 1380.9352,-557.2014 1406.4209,-507.5596 1415.1565,-489.2776 1395.9657,-465.1404 1384.4083,-461.593 1371.0151,-458.1825 1370.5394,-458.0863 1369.1614,-455.5501 1352.6677,-428.5771 1341.7211,-413.1599 1339.5673,-410.6151 1317.3127,-381.4511 1299.1531,-347.5042 1279.4583,-321.5944 1276.4865,-318.0833 1275.882,-317.3024 1260.6212,-295.7233 1275.5164,-263.6557 1295.8372,-226.5229 1292.8242,-222.3512 1222.6516,-119.29 1186.4019,-73.3212 1183.6635,-69.7365 1188.6655,-49.658 1201.6421,-1.2 1208.5154,21.4865 1220.7321,27.2909 1356.9559,24.0815 1362.1936,24.1593 1379.1099,25.062 1386.984,25.7847 1388.6978,26.0079 1402.245,28.0345 1422.0502,31.76 1441.8451,35.8582 1549.842,-42.8093 1580.3153,-96.8053 1579.5316,-103.8445 1577.3804,-126.9517 1572.2351,-218.2694 1575.7223,-220.5625 1590.7715,-230.158 1707.6403,-297.5526 1736.3291,-365.7207 1731.3428,-410.51 1727.8629,-486.6854 1646.9644,-569.2607 1644.5033,-610.13 "/>
<polyline fill="none" stroke="#aaaaaa" points="1067.7084,-581.6935 1066.3345,-581.6993 1065.3424,-581.6118 1065.1007,-581.6019 1056.7848,-581.6566 1053.7791,-581.8196 1047.2048,-581.5644 1046.3167,-581.5723 1042.9406,-581.7629 1038.6721,-581.6071 1037.1232,-581.6243 1032.8804,-581.8737 1026.05,-581.9572 1019.944,-582.6125 1007.2797,-584.5763 1002.9036,-585.6656 1001.891,-585.9657 988.9634,-590.4243 912.5015,-624.0313 907.8593,-524.61 908.1052,-521.1639 908.0242,-510.1409 905.1102,-447.7333 952.425,-438.432 970.7264,-435.4835 972.5016,-435.3261 980.7261,-435.1855 987.2709,-434.8383 988.5793,-434.8161 995.0666,-434.9402 996.685,-434.855 1001.2363,-434.7797 1004.2837,-434.8391 1012.838,-434.6994 1027.2241,-432.9189 1036.8409,-431.0415 1045.8258,-428.6444 1061.4762,-423.342 1063.8672,-422.3636 1073.8125,-417.9352 1077.4932,-416.0335 1090.9615,-408.5818 1098.9355,-403.308 1111.2638,-414.9526 1116.5319,-419.1497 1204.7843,-485.3204 1205.1415,-485.606 1205.9541,-486.2985 1198.5864,-506.4156 1189.786,-537.796 1182.9133,-567.21 1171.9579,-597.1231 1122.0476,-585.208 1110.4484,-582.9827 1101.3571,-582.1045 1099.6016,-582.0186 1090.4746,-582.0065 1088.6899,-581.9211 1085.9601,-582.0504 1080.9701,-582.0551 1080.3004,-582.0246 1076.2566,-581.652 1068.0098,-581.6782 1067.7084,-581.6935 "/>
<polyline fill="none" stroke="#000000" points="1000.8753,-788.027 1000.8217,-795.1514 1001.6669,-827.1683 991.9209,-835.8823 991.3256,-836.5012 984.4274,-842.7985 914.3724,-902.3652 913.4957,-903.0467 898.4864,-915.6558 894.1323,-919.5599 893.8589,-919.837 875.727,-939.3876 875.5482,-939.5903 873.737,-941.8641 872.8173,-942.8965 859.2913,-958.8455 848.857,-1007.621 749.8847,-1052.3052 748.6089,-1052.9553 723.433,-1066.2893 712.6691,-1072.6068 711.172,-1073.5139 708.0656,-1150.3014 713.8668,-1166.8 716.5666,-1176.0615 728.0516,-1200.4872 811.9484,-1316.6565 883.8573,-1326.9675 885.6097,-1327.2505 892.6233,-1328.5107 894.581,-1328.9337 901.4076,-1328.3398 912.4854,-1327.572 932.1666,-1327.2518 937.7645,-1327.3589 949.039,-1328.1729 951.5928,-1327.2552 962.723,-1323.6957 978.0089,-1319.111 1081.0459,-1290.2959 1083.1508,-1290.9709 1146.6571,-1290.4816 1155.0313,-1290.568 1162.9869,-1290.9365 1163.3735,-1290.9753 1182.2783,-1286.723 1221.9501,-1279.3292 1318.9978,-1228.734 1338.8447,-1204.1844 1340.8381,-1134.1 1342.0347,-1120.2443 1340.3229,-1070.3906 1338.417,-1060.8263 1227.8389,-1038.2112 1215.0333,-1035.9518 1203.2074,-1034.2029 1199.6021,-1033.8763 1191.4429,-1033.3698 1186.0632,-1033.1892 1180.3945,-1033.3218 1180.0227,-1033.3518 1177.1241,-1033.4172 1163.0543,-1033.3264 1162.5725,-1033.3508 1161.5616,-1033.3728 1153.6875,-1033.3151 1152.7826,-1033.2822 1148.4806,-1033.2488 1146.9242,-1033.1917 1098.5377,-1030.0159 1104.5293,-947.4974 1104.6566,-936.8657 1104.5887,-935.5008 1104.6429,-931.0212 1105.9521,-913.5118 1106.0042,-909.1846 1107.6289,-886.8073 1109.433,-885.9265 1109.972,-885.6935 1125.973,-879.6468 1126.6121,-879.4426 1128.9783,-878.8202 1135.3929,-877.4905 1145.5421,-875.9579 1153.13,-875.6733 1159.0371,-875.1262 1162.4116,-875.1981 1163.6919,-875.1555 1168.6101,-875.2705 1176.7151,-875.0173 1177.9126,-874.9149 1180.7982,-874.5112 1186.832,-873.3353 1196.767,-870.8525 1203.3557,-868.8519 1204.2627,-868.5284 1205.5415,-868.0029 1214.2598,-863.9319 1221.6903,-860.0556 1249.1035,-844.2841 1245.3634,-827.3729 1241.6295,-800.9709 1241.3594,-798.2761 1233.9724,-757.868 1220.2869,-695.9879 1258.4852,-684.6287 1276.3457,-680.2838 1284.6759,-678.7153 1298.3687,-677.2552 1304.8298,-676.7429 1314.2566,-676.5102 1316.8878,-676.5172 1323.4645,-676.1799 1327.4192,-676.0856 1329.1389,-676.0916 1353.3065,-629.0175 1361.1577,-611.5267 1368.004,-593.353 1370.6482,-584.4824 1380.9352,-557.2014 1406.4209,-507.5596 1415.1565,-489.2776 1395.9657,-465.1404 1384.4083,-461.593 1371.0151,-458.1825 1370.5394,-458.0863 1369.1614,-455.5501 1352.6677,-428.5771 1341.7211,-413.1599 1339.5673,-410.6151 1317.3127,-381.4511 1299.1531,-347.5042 1279.4583,-321.5944 1276.4865,-318.0833 1275.882,-317.3024 1260.6212,-295.7233 1275.5164,-263.6557 1295.8372,-226.5229 1292.8242,-222.3512 1222.6516,-119.29 1186.4019,-73.3212 1183.6635,-69.7365 1182.8391,-70.3577 1163.8522,-84.2211 1161.7612,-85.595 1145.0638,-96.1728 1126.1213,-106.7989 1118.9583,-110.2913 1067.4458,-134.1628 1052.2175,-215.6297 1050.7539,-230.5463 1048.4771,-246.2574 1047.3044,-258.2048 1046.2705,-265.4445 1043.5771,-279.8537 997.507,-288.439 996.6595,-288.5554 991.2844,-289.0331 981.9643,-289.4086 979.0807,-289.2439 970.3983,-289.5846 963.4182,-289.1772 963.3973,-289.178 959.3148,-289.1343 959.0163,-289.1167 955.84,-289.0808 952.9224,-289.1879 942.4241,-290.08 927.055,-292.8731 921.0295,-294.54 917.4167,-295.7111 816.3911,-338.3073 804.4384,-342.7484 801.6624,-362.2676 800.3531,-363.2371 787.7441,-371.9347 786.8256,-372.5212 778.7552,-377.4743 773.7355,-380.4287 763.1599,-386.3867 755.3582,-390.3847 659.7392,-436.9498 668.9586,-520.3418 669.4428,-526.749 669.4911,-535.1412 671.4377,-560.7661 677.1729,-612.6416 754.9904,-675.3098 765.5837,-684.1598 769.6123,-682.9927 780.4059,-680.4562 800.6354,-676.8018 805.5732,-676.0904 815.6328,-675.0067 823.7366,-674.2812 840.7606,-673.6856 847.3902,-673.3262 862.5577,-672.2122 883.0325,-669.1334 886.8276,-668.4176 890.6673,-671.8248 895.447,-675.7531 897.0658,-677.0316 912.4257,-688.6787 917.5974,-692.8086 1000.0363,-755.6898 1000.8753,-788.027 "/>
<polyline fill="none" stroke="#000000" points="990.1091,137.1993 1006.901,135.4677 1017.5058,134.7743 1070.1537,132.3258 1208.5154,21.4865 1201.6421,-1.2 1188.6655,-49.658 1183.6635,-69.7365 1182.8391,-70.3577 1163.8522,-84.2211 1161.7612,-85.595 1145.0638,-96.1728 1126.1213,-106.7989 1118.9583,-110.2913 1067.4458,-134.1628 1052.2175,-215.6297 1050.7539,-230.5463 1048.4771,-246.2574 1047.3044,-258.2048 1046.2705,-265.4445 1043.5771,-279.8537 997.507,-288.439 996.6595,-288.5554 991.2844,-289.0331 981.9643,-289.4086 979.0807,-289.2439 970.3983,-289.5846 963.4182,-289.1772 963.3973,-289.178 959.3148,-289.1343 959.0163,-289.1167 955.84,-289.0808 952.9224,-289.1879 942.4241,-290.08 927.055,-292.8731 921.0295,-294.54 917.4167,-295.7111 816.3911,-338.3073 804.4384,-342.7484 797.3006,-319.613 795.4058,-312.9707 787.0636,-281.1184 783.6543,-266.7556 805.1563,-228.9668 809.4086,-220.3847 844.7218,-143.415 845.0528,-142.7481 862.0551,-110.9701 865.4294,-105.04 844.5928,-59.8356 810.9319,8.3166 794.2479,38.8556 943.1661,142.6496 954.4527,144.4586 955.6975,144.1427 968.3384,141.1707 984.3666,138.0071 984.3704,138.0065 990.1091,137.1993 "/>
<polyline fill="none" stroke="#000000" points="712.6691,-1072.6068 723.433,-1066.2893 748.6089,-1052.9553 749.8847,-1052.3052 848.857,-1007.621 859.2913,-958.8455 872.8173,-942.8965 873.737,-941.8641 875.5482,-939.5903 875.727,-939.3876 893.8589,-919.837 894.1323,-919.5599 898.4864,-915.6558 913.4957,-903.0467 914.3724,-902.3652 984.4274,-842.7985 991.3256,-836.5012 991.9209,-835.8823 1001.6669,-827.1683 1000.8217,-795.1514 1000.8753,-788.027 1000.0363,-755.6898 917.5974,-692.8086 912.4257,-688.6787 897.0658,-677.0316 895.447,-675.7531 890.6673,-671.8248 886.8276,-668.4176 883.0325,-669.1334 862.5577,-672.2122 847.3902,-673.3262 840.7606,-673.6856 823.7366,-674.2812 815.6328,-675.0067 805.5732,-676.0904 800.6354,-676.8018 780.4059,-680.4562 769.6123,-682.9927 765.5837,-684.1598 754.9904,-675.3098 677.1729,-612.6416 671.4377,-560.7661 669.4911,-535.1412 669.4428,-526.749 668.9586,-520.3418 659.7392,-436.9498 755.3582,-390.3847 763.1599,-386.3867 773.7355,-380.4287 778.7552,-377.4743 786.8256,-372.5212 787.7441,-371.9347 800.3531,-363.2371 801.6624,-362.2676 804.4384,-342.7484 797.3006,-319.613 795.4058,-312.9707 787.0636,-281.1184 783.6543,-266.7556 805.1563,-228.9668 809.4086,-220.3847 844.7218,-143.415 845.0528,-142.7481 862.0551,-110.9701 865.4294,-105.04 844.5928,-59.8356 810.9319,8.3166 794.2479,38.8556 783.8348,40.7134 743.0167,25.0653 717.36,16.7264 712.8483,15.6169 709.8158,14.9302 690.9612,11.0272 683.1109,9.7124 579.657,-3.5458 517.9257,-130.3761 513.4438,-138.7769 511.4441,-142.3673 501.9954,-147.4196 453.7498,-220.7164 440.6758,-300.078 438.1094,-312.3636 421.9092,-382.5344 325.0421,-449.6678 286.4059,-415.0943 176.5671,-313.0797 123.8569,-310.2737 104.2206,-308.4985 101.6442,-308.218 91.2508,-306.5081 82.1409,-304.8402 80.2348,-304.456 64.8428,-300.7805 57.5503,-298.7696 41.7293,-293.8195 22.8826,-287.231 -85.2634,-353.3551 -142.2041,-421.2455 -139.4312,-441.6711 -136.7774,-463.9972 -134.6699,-467.3069 -72.9921,-571.8794 -35.7051,-616.7379 -17.2129,-629.2573 32.347,-647.8312 48.1466,-709.1755 59.0797,-759.9693 61.6219,-773.1606 72.2908,-801.8045 106.0163,-880.5814 184.5706,-925.3438 187.7742,-927.2286 203.1637,-922.5093 205.5598,-921.0453 210.8656,-917.9065 224.1632,-910.2969 234.813,-904.6216 238.8269,-902.7173 256.921,-894.8209 262.5503,-892.4744 275.6982,-887.7554 291.3546,-882.4403 417.4178,-842.1497 453.8157,-864.3906 512.1699,-891.7957 551.3326,-972.3655 668.1626,-1047.6858 681.632,-1055.2743 706.585,-1070.3695 711.172,-1073.5139 712.6691,-1072.6068 "/>
<!-- device&#45;mapper&#45;libs&#45;&gt;Fedora Container Base -->
<g id="edge1" class="edge">
<title>device&#45;mapper&#45;libs&#45;&gt;Fedora Container Base</title>
<path fill="none" stroke="#444444" stroke-opacity="0.333333" d="M1464.356,-428.5367C1372.2975,-448.4245 1225.1366,-480.2162 1133.9315,-499.9196"/>
<polygon fill="#444444" fill-opacity="0.333333" stroke="#444444" stroke-opacity="0.333333" points="1132.9515,-496.5505 1123.9161,-502.0833 1134.4297,-503.3927 1132.9515,-496.5505"/>
</g>
<!-- device&#45;mapper&#45;libs&#45;&gt;device&#45;mapper -->
<g id="edge2" class="edge">
<title>device&#45;mapper&#45;libs&#45;&gt;device&#45;mapper</title>
<path fill="none" stroke="#444444" stroke-opacity="0.333333" d="M1534.3647,-428.5317C1513.8627,-463.586 1476.2379,-540.9931 1459.3373,-582.5434"/>
<polygon fill="#444444" fill-opacity="0.333333" stroke="#444444" stroke-opacity="0.333333" points="1456.0029,-581.4588 1455.6007,-592.046 1462.5174,-584.0205 1456.0029,-581.4588"/>
</g>
<!-- device&#45;mapper&#45;&gt;Fedora Container Base -->
<g id="edge19" class="edge">
<title>device&#45;mapper&#45;&gt;Fedora Container Base</title>
<path fill="none" stroke="#444444" stroke-opacity="0.333333" d="M1373.3997,-592.0482C1303.2185,-575.7371 1200.5331,-551.8716 1130.3633,-535.5632"/>
<polygon fill="#444444" fill-opacity="0.333333" stroke="#444444" stroke-opacity="0.333333" points="1130.7868,-532.0685 1120.2541,-533.2137 1129.2021,-538.8867 1130.7868,-532.0685"/>
</g>
<!-- device&#45;mapper&#45;&gt;device&#45;mapper&#45;libs -->
<g id="edge20" class="edge">
<title>device&#45;mapper&#45;&gt;device&#45;mapper&#45;libs</title>
<path fill="none" stroke="#444444" stroke-opacity="0.333333" d="M1464.6353,-592.1083C1485.1373,-557.054 1522.7621,-479.6469 1539.6627,-438.0966"/>
<polygon fill="#444444" fill-opacity="0.333333" stroke="#444444" stroke-opacity="0.333333" points="1542.9971,-439.1812 1543.3993,-428.594 1536.4826,-436.6195 1542.9971,-439.1812"/>
</g>
<!-- device&#45;mapper&#45;&gt;systemd -->
<g id="edge21" class="edge">
<title>device&#45;mapper&#45;&gt;systemd</title>
<path fill="none" stroke="#444444" stroke-opacity="0.333333" d="M1368.5468,-617.7917C1299.3431,-624.2066 1201.5785,-633.2691 1135.5784,-639.3871"/>
<polygon fill="#444444" fill-opacity="0.333333" stroke="#444444" stroke-opacity="0.333333" points="1134.902,-635.9347 1125.2678,-640.3429 1135.5482,-642.9048 1134.902,-635.9347"/>
</g>
<!-- device&#45;mapper&#45;&gt;util&#45;linux -->
<g id="edge22" class="edge">
<title>device&#45;mapper&#45;&gt;util&#45;linux</title>
<path fill="none" stroke="#444444" stroke-opacity="0.333333" d="M1440.5858,-628.233C1422.4557,-659.1547 1385.431,-722.302 1364.2349,-758.4529"/>
<polygon fill="#444444" fill-opacity="0.333333" stroke="#444444" stroke-opacity="0.333333" points="1360.9952,-757.0586 1358.9565,-767.4555 1367.0338,-760.5992 1360.9952,-757.0586"/>
</g>
<!-- libargon2&#45;&gt;Fedora Container Base -->
<g id="edge3" class="edge">
<title>libargon2&#45;&gt;Fedora Container Base</title>
<path fill="none" stroke="#444444" stroke-opacity="0.333333" d="M1367.0859,-137.4346C1314.2313,-201.3092 1136.6137,-415.9597 1074.3709,-491.1799"/>
<polygon fill="#444444" fill-opacity="0.333333" stroke="#444444" stroke-opacity="0.333333" points="1071.381,-489.3032 1067.7023,-499.2389 1076.7741,-493.7658 1071.381,-489.3032"/>
</g>
<!-- systemd&#45;&gt;Fedora Container Base -->
<g id="edge4" class="edge">
<title>systemd&#45;&gt;Fedora Container Base</title>
<path fill="none" stroke="#444444" stroke-opacity="0.333333" d="M1062.1332,-627.9032C1060.2821,-606.4641 1057.1816,-570.5541 1055.0209,-545.5291"/>
<polygon fill="#444444" fill-opacity="0.333333" stroke="#444444" stroke-opacity="0.333333" points="1058.5062,-545.2064 1054.1588,-535.5445 1051.5321,-545.8086 1058.5062,-545.2064"/>
</g>
<!-- systemd&#45;&gt;util&#45;linux -->
<g id="edge5" class="edge">
<title>systemd&#45;&gt;util&#45;linux</title>
<path fill="none" stroke="#444444" stroke-opacity="0.333333" d="M1100.6277,-664.1325C1152.3627,-689.4657 1246.3633,-735.4953 1302.524,-762.9957"/>
<polygon fill="#444444" fill-opacity="0.333333" stroke="#444444" stroke-opacity="0.333333" points="1301.0174,-766.1551 1311.5378,-767.4095 1304.0959,-759.8683 1301.0174,-766.1551"/>
</g>
<!-- systemd&#45;&gt;cryptsetup&#45;libs -->
<g id="edge6" class="edge">
<title>systemd&#45;&gt;cryptsetup&#45;libs</title>
<path fill="none" stroke="#444444" stroke-opacity="0.333333" d="M1082.2588,-627.8414C1135.4067,-575.6964 1288.2849,-425.7031 1349.5017,-365.6415"/>
<polygon fill="#444444" fill-opacity="0.333333" stroke="#444444" stroke-opacity="0.333333" points="1352.1515,-367.945 1356.8384,-358.4432 1347.2491,-362.9483 1352.1515,-367.945"/>
</g>
<!-- systemd&#45;&gt;iptables&#45;libs -->
<g id="edge7" class="edge">
<title>systemd&#45;&gt;iptables&#45;libs</title>
<path fill="none" stroke="#444444" stroke-opacity="0.333333" d="M1058.6538,-628.0057C1040.2502,-562.1985 976.645,-334.7601 954.1879,-254.4584"/>
<polygon fill="#444444" fill-opacity="0.333333" stroke="#444444" stroke-opacity="0.333333" points="957.4837,-253.2478 951.4197,-244.56 950.7424,-255.1332 957.4837,-253.2478"/>
</g>
<!-- systemd&#45;&gt;libseccomp -->
<g id="edge8" class="edge">
<title>systemd&#45;&gt;libseccomp</title>
<path fill="none" stroke="#444444" stroke-opacity="0.333333" d="M1116.0996,-627.9625C1150.0479,-616.2441 1194.4228,-600.9266 1230.1214,-588.604"/>
<polygon fill="#444444" fill-opacity="0.333333" stroke="#444444" stroke-opacity="0.333333" points="1231.6336,-591.7848 1239.9442,-585.2133 1229.3495,-585.1679 1231.6336,-591.7848"/>
</g>
<!-- systemd&#45;&gt;shadow&#45;utils -->
<g id="edge9" class="edge">
<title>systemd&#45;&gt;shadow&#45;utils</title>
<path fill="none" stroke="#444444" stroke-opacity="0.333333" d="M1044.39,-664.3244C1010.8452,-696.0702 941.746,-761.4635 903.544,-797.6167"/>
<polygon fill="#444444" fill-opacity="0.333333" stroke="#444444" stroke-opacity="0.333333" points="900.7424,-795.4492 895.885,-804.865 905.5539,-800.5335 900.7424,-795.4492"/>
</g>
<!-- systemd&#45;&gt;systemd&#45;pam -->
<g id="edge10" class="edge">
<title>systemd&#45;&gt;systemd&#45;pam</title>
<path fill="none" stroke="#444444" stroke-opacity="0.333333" d="M1081.1375,-627.6763C1116.6181,-582.978 1195.8514,-468.7162 1227.8875,-416.2517"/>
<polygon fill="#444444" fill-opacity="0.333333" stroke="#444444" stroke-opacity="0.333333" points="1230.9943,-417.8761 1233.1279,-407.4984 1224.9883,-414.2805 1230.9943,-417.8761"/>
</g>
<!-- systemd&#45;&gt;systemd&#45;rpm&#45;macros -->
<g id="edge11" class="edge">
<title>systemd&#45;&gt;systemd&#45;rpm&#45;macros</title>
<path fill="none" stroke="#444444" stroke-opacity="0.333333" d="M1058.826,-664.2784C1038.0855,-741.8469 957.0873,-1044.7758 931.9457,-1138.8038"/>
<polygon fill="#444444" fill-opacity="0.333333" stroke="#444444" stroke-opacity="0.333333" points="928.4964,-1138.1548 929.2944,-1148.7195 935.2588,-1139.963 928.4964,-1138.1548"/>
</g>
<!-- systemd&#45;&gt;acl -->
<g id="edge12" class="edge">
<title>systemd&#45;&gt;acl</title>
<path fill="none" stroke="#444444" stroke-opacity="0.333333" d="M1058.4148,-627.6871C1044.1009,-577.9555 1004.5094,-440.3996 987.3342,-380.7264"/>
<polygon fill="#444444" fill-opacity="0.333333" stroke="#444444" stroke-opacity="0.333333" points="990.6227,-379.4977 984.4932,-370.8559 983.8958,-381.4339 990.6227,-379.4977"/>
</g>
<!-- systemd&#45;&gt;dbus -->
<g id="edge13" class="edge">
<title>systemd&#45;&gt;dbus</title>
<path fill="none" stroke="#444444" stroke-opacity="0.333333" d="M1067.4413,-664.2914C1082.6186,-738.29 1139.6583,-1016.3941 1158.0475,-1106.0529"/>
<polygon fill="#444444" fill-opacity="0.333333" stroke="#444444" stroke-opacity="0.333333" points="1154.6552,-1106.9335 1160.0931,-1116.0263 1161.5124,-1105.527 1154.6552,-1106.9335"/>
</g>
<!-- systemd&#45;&gt;kmod&#45;libs -->
<g id="edge14" class="edge">
<title>systemd&#45;&gt;kmod&#45;libs</title>
<path fill="none" stroke="#444444" stroke-opacity="0.333333" d="M1067.6986,-627.7928C1081.5345,-564.6194 1127.437,-355.0336 1144.0939,-278.9797"/>
<polygon fill="#444444" fill-opacity="0.333333" stroke="#444444" stroke-opacity="0.333333" points="1147.5233,-279.6808 1146.2438,-269.1635 1140.6853,-278.1831 1147.5233,-279.6808"/>
</g>
<!-- systemd&#45;&gt;qrencode&#45;libs -->
<g id="edge15" class="edge">
<title>systemd&#45;&gt;qrencode&#45;libs</title>
<path fill="none" stroke="#444444" stroke-opacity="0.333333" d="M1023.5579,-628.0003C975.5556,-606.4164 895.2048,-570.2871 843.3242,-546.9592"/>
<polygon fill="#444444" fill-opacity="0.333333" stroke="#444444" stroke-opacity="0.333333" points="844.5382,-543.6676 833.9824,-542.7587 841.6675,-550.0519 844.5382,-543.6676"/>
</g>
<!-- util&#45;linux&#45;&gt;Fedora Container Base -->
<g id="edge16" class="edge">
<title>util&#45;linux&#45;&gt;Fedora Container Base</title>
<path fill="none" stroke="#444444" stroke-opacity="0.333333" d="M1328.0685,-767.0413C1276.1026,-719.9646 1138.3927,-595.211 1079.7066,-542.0463"/>
<polygon fill="#444444" fill-opacity="0.333333" stroke="#444444" stroke-opacity="0.333333" points="1082.0558,-539.4518 1072.2948,-535.3318 1077.3561,-544.6396 1082.0558,-539.4518"/>
</g>
<!-- util&#45;linux&#45;&gt;libfdisk -->
<g id="edge17" class="edge">
<title>util&#45;linux&#45;&gt;libfdisk</title>
<path fill="none" stroke="#444444" stroke-opacity="0.333333" d="M1413.0858,-779.6583C1429.8017,-778.1591 1447.882,-776.5374 1464.8884,-775.0121"/>
<polygon fill="#444444" fill-opacity="0.333333" stroke="#444444" stroke-opacity="0.333333" points="1465.6693,-778.4562 1475.3166,-774.0768 1465.0439,-771.4842 1465.6693,-778.4562"/>
</g>
<!-- util&#45;linux&#45;&gt;libutempter -->
<g id="edge18" class="edge">
<title>util&#45;linux&#45;&gt;libutempter</title>
<path fill="none" stroke="#444444" stroke-opacity="0.333333" d="M1328.8054,-803.49C1300.5315,-829.5062 1248.1709,-877.6858 1216.0564,-907.236"/>
<polygon fill="#444444" fill-opacity="0.333333" stroke="#444444" stroke-opacity="0.333333" points="1213.3438,-904.9758 1208.3549,-914.3225 1218.0836,-910.1269 1213.3438,-904.9758"/>
</g>
<!-- cryptsetup&#45;libs&#45;&gt;Fedora Container Base -->
<g id="edge25" class="edge">
<title>cryptsetup&#45;libs&#45;&gt;Fedora Container Base</title>
<path fill="none" stroke="#444444" stroke-opacity="0.333333" d="M1342.282,-358.4567C1283.0301,-390.9855 1158.8018,-459.186 1093.9715,-494.7773"/>
<polygon fill="#444444" fill-opacity="0.333333" stroke="#444444" stroke-opacity="0.333333" points="1091.9337,-491.9033 1084.8522,-499.7838 1095.3024,-498.0394 1091.9337,-491.9033"/>
</g>
<!-- cryptsetup&#45;libs&#45;&gt;device&#45;mapper&#45;libs -->
<g id="edge26" class="edge">
<title>cryptsetup&#45;libs&#45;&gt;device&#45;mapper&#45;libs</title>
<path fill="none" stroke="#444444" stroke-opacity="0.333333" d="M1419.723,-358.4031C1442.4598,-367.6533 1470.3133,-378.9853 1494.2317,-388.7162"/>
<polygon fill="#444444" fill-opacity="0.333333" stroke="#444444" stroke-opacity="0.333333" points="1492.9458,-391.9716 1503.5275,-392.4982 1495.5837,-385.4877 1492.9458,-391.9716"/>
</g>
<!-- cryptsetup&#45;libs&#45;&gt;libargon2 -->
<g id="edge27" class="edge">
<title>cryptsetup&#45;libs&#45;&gt;libargon2</title>
<path fill="none" stroke="#444444" stroke-opacity="0.333333" d="M1375.8565,-322.2414C1377.0399,-283.7732 1379.8139,-193.6025 1381.232,-147.5059"/>
<polygon fill="#444444" fill-opacity="0.333333" stroke="#444444" stroke-opacity="0.333333" points="1384.7361,-147.4215 1381.5454,-137.3186 1377.7394,-147.2062 1384.7361,-147.4215"/>
</g>
<!-- iptables&#45;libs&#45;&gt;Fedora Container Base -->
<g id="edge28" class="edge">
<title>iptables&#45;libs&#45;&gt;Fedora Container Base</title>
<path fill="none" stroke="#444444" stroke-opacity="0.333333" d="M952.912,-244.3371C970.9649,-293.8033 1020.9644,-430.806 1042.5088,-489.8392"/>
<polygon fill="#444444" fill-opacity="0.333333" stroke="#444444" stroke-opacity="0.333333" points="1039.2342,-491.0757 1045.9505,-499.2698 1045.8099,-488.6759 1039.2342,-491.0757"/>
</g>
<!-- iptables&#45;libs&#45;&gt;libpcap -->
<g id="edge29" class="edge">
<title>iptables&#45;libs&#45;&gt;libpcap</title>
<path fill="none" stroke="#444444" stroke-opacity="0.333333" d="M949.8059,-208.0057C956.9273,-171.6453 973.0123,-89.5195 981.5142,-46.1111"/>
<polygon fill="#444444" fill-opacity="0.333333" stroke="#444444" stroke-opacity="0.333333" points="984.9659,-46.697 983.4533,-36.2107 978.0964,-45.3515 984.9659,-46.697"/>
</g>
<!-- libseccomp&#45;&gt;Fedora Container Base -->
<g id="edge30" class="edge">
<title>libseccomp&#45;&gt;Fedora Container Base</title>
<path fill="none" stroke="#444444" stroke-opacity="0.333333" d="M1220.5665,-552.3597C1193.9274,-546.8294 1163.4665,-540.5058 1135.8649,-534.7757"/>
<polygon fill="#444444" fill-opacity="0.333333" stroke="#444444" stroke-opacity="0.333333" points="1136.3403,-531.2999 1125.8376,-532.6941 1134.9174,-538.1537 1136.3403,-531.2999"/>
</g>
<!-- shadow&#45;utils&#45;&gt;Fedora Container Base -->
<g id="edge31" class="edge">
<title>shadow&#45;utils&#45;&gt;Fedora Container Base</title>
<path fill="none" stroke="#444444" stroke-opacity="0.333333" d="M887.1578,-804.8415C916.919,-753.1501 1002.0713,-605.2517 1037.1801,-544.2723"/>
<polygon fill="#444444" fill-opacity="0.333333" stroke="#444444" stroke-opacity="0.333333" points="1040.2207,-546.0058 1042.1771,-535.5931 1034.1543,-542.513 1040.2207,-546.0058"/>
</g>
<!-- shadow&#45;utils&#45;&gt;libsemanage -->
<g id="edge32" class="edge">
<title>shadow&#45;utils&#45;&gt;libsemanage</title>
<path fill="none" stroke="#444444" stroke-opacity="0.333333" d="M823.8604,-841.064C810.3713,-845.667 795.7417,-850.6591 781.8201,-855.4097"/>
<polygon fill="#444444" fill-opacity="0.333333" stroke="#444444" stroke-opacity="0.333333" points="780.6517,-852.1102 772.3179,-858.6522 782.9124,-858.7351 780.6517,-852.1102"/>
</g>
<!-- systemd&#45;pam&#45;&gt;Fedora Container Base -->
<g id="edge33" class="edge">
<title>systemd&#45;pam&#45;&gt;Fedora Container Base</title>
<path fill="none" stroke="#444444" stroke-opacity="0.333333" d="M1214.8359,-407.3517C1181.4119,-430.0424 1124.0508,-468.9836 1087.2548,-493.9636"/>
<polygon fill="#444444" fill-opacity="0.333333" stroke="#444444" stroke-opacity="0.333333" points="1085.1323,-491.1741 1078.8246,-499.6867 1089.0641,-496.9657 1085.1323,-491.1741"/>
</g>
<!-- systemd&#45;pam&#45;&gt;systemd -->
<g id="edge34" class="edge">
<title>systemd&#45;pam&#45;&gt;systemd</title>
<path fill="none" stroke="#444444" stroke-opacity="0.333333" d="M1224.0625,-407.6237C1188.5819,-452.322 1109.3486,-566.5838 1077.3125,-619.0483"/>
<polygon fill="#444444" fill-opacity="0.333333" stroke="#444444" stroke-opacity="0.333333" points="1074.2057,-617.4239 1072.0721,-627.8016 1080.2117,-621.0195 1074.2057,-617.4239"/>
</g>
<!-- acl&#45;&gt;Fedora Container Base -->
<g id="edge35" class="edge">
<title>acl&#45;&gt;Fedora Container Base</title>
<path fill="none" stroke="#444444" stroke-opacity="0.333333" d="M987.3444,-370.7872C1000.218,-399.7287 1025.3652,-456.2627 1040.4044,-490.0726"/>
<polygon fill="#444444" fill-opacity="0.333333" stroke="#444444" stroke-opacity="0.333333" points="1037.2788,-491.658 1044.541,-499.3723 1043.6746,-488.813 1037.2788,-491.658"/>
</g>
<!-- dbus&#45;&gt;dbus&#45;broker -->
<g id="edge36" class="edge">
<title>dbus&#45;&gt;dbus&#45;broker</title>
<path fill="none" stroke="#444444" stroke-opacity="0.333333" d="M1151.2555,-1115.9382C1125.7417,-1078.9999 1067.7073,-994.9788 1037.9467,-951.892"/>
<polygon fill="#444444" fill-opacity="0.333333" stroke="#444444" stroke-opacity="0.333333" points="1040.7813,-949.8374 1032.2182,-943.5984 1035.0217,-953.8157 1040.7813,-949.8374"/>
</g>
<!-- kmod&#45;libs&#45;&gt;Fedora Container Base -->
<g id="edge37" class="edge">
<title>kmod&#45;libs&#45;&gt;Fedora Container Base</title>
<path fill="none" stroke="#444444" stroke-opacity="0.333333" d="M1143.4916,-269.4101C1126.7007,-315.2392 1082.779,-435.1194 1062.7811,-489.7017"/>
<polygon fill="#444444" fill-opacity="0.333333" stroke="#444444" stroke-opacity="0.333333" points="1059.3802,-488.8103 1059.2263,-499.4041 1065.9529,-491.2185 1059.3802,-488.8103"/>
</g>
<!-- qrencode&#45;libs&#45;&gt;Fedora Container Base -->
<g id="edge38" class="edge">
<title>qrencode&#45;libs&#45;&gt;Fedora Container Base</title>
<path fill="none" stroke="#444444" stroke-opacity="0.333333" d="M872.3774,-522.4448C884.0024,-522.1252 896.2754,-521.7878 908.728,-521.4454"/>
<polygon fill="#444444" fill-opacity="0.333333" stroke="#444444" stroke-opacity="0.333333" points="908.8443,-524.9436 918.7443,-521.17 908.6519,-517.9463 908.8443,-524.9436"/>
</g>
<!-- libfdisk&#45;&gt;Fedora Container Base -->
<g id="edge39" class="edge">
<title>libfdisk&#45;&gt;Fedora Container Base</title>
<path fill="none" stroke="#444444" stroke-opacity="0.333333" d="M1500.8638,-750.6058C1414.4093,-705.6458 1189.7602,-588.819 1095.3645,-539.7293"/>
<polygon fill="#444444" fill-opacity="0.333333" stroke="#444444" stroke-opacity="0.333333" points="1096.8645,-536.5644 1086.3776,-535.0558 1093.6348,-542.7749 1096.8645,-536.5644"/>
</g>
<!-- libutempter&#45;&gt;Fedora Container Base -->
<g id="edge40" class="edge">
<title>libutempter&#45;&gt;Fedora Container Base</title>
<path fill="none" stroke="#444444" stroke-opacity="0.333333" d="M1182.6688,-914.4007C1161.2382,-849.0041 1087.7151,-624.6453 1061.7615,-545.4468"/>
<polygon fill="#444444" fill-opacity="0.333333" stroke="#444444" stroke-opacity="0.333333" points="1065.0025,-544.0974 1058.5624,-535.6846 1058.3506,-546.2773 1065.0025,-544.0974"/>
</g>
<!-- libutempter&#45;&gt;shadow&#45;utils -->
<g id="edge41" class="edge">
<title>libutempter&#45;&gt;shadow&#45;utils</title>
<path fill="none" stroke="#444444" stroke-opacity="0.333333" d="M1137.0928,-914.4249C1082.3778,-895.2242 995.9193,-864.8839 937.7957,-844.4869"/>
<polygon fill="#444444" fill-opacity="0.333333" stroke="#444444" stroke-opacity="0.333333" points="938.5991,-841.0597 928.0043,-841.0509 936.2812,-847.6648 938.5991,-841.0597"/>
</g>
<!-- libpcap&#45;&gt;Fedora Container Base -->
<g id="edge23" class="edge">
<title>libpcap&#45;&gt;Fedora Container Base</title>
<path fill="none" stroke="#444444" stroke-opacity="0.333333" d="M989.3928,-36.0722C999.2343,-111.0301 1036.8879,-397.8186 1048.8967,-489.2835"/>
<polygon fill="#444444" fill-opacity="0.333333" stroke="#444444" stroke-opacity="0.333333" points="1045.4583,-489.9828 1050.2304,-499.4421 1052.3988,-489.0715 1045.4583,-489.9828"/>
</g>
<!-- libsemanage&#45;&gt;Fedora Container Base -->
<g id="edge24" class="edge">
<title>libsemanage&#45;&gt;Fedora Container Base</title>
<path fill="none" stroke="#444444" stroke-opacity="0.333333" d="M736.3531,-858.4119C791.3947,-799.0757 964.9832,-611.9431 1028.7776,-543.1711"/>
<polygon fill="#444444" fill-opacity="0.333333" stroke="#444444" stroke-opacity="0.333333" points="1031.4163,-545.473 1035.6511,-535.7613 1026.2843,-540.7124 1031.4163,-545.473"/>
</g>
<!-- dbus&#45;broker&#45;&gt;Fedora Container Base -->
<g id="edge42" class="edge">
<title>dbus&#45;broker&#45;&gt;Fedora Container Base</title>
<path fill="none" stroke="#444444" stroke-opacity="0.333333" d="M1021.0605,-907.2794C1026.2667,-842.9383 1043.9432,-624.4771 1050.2996,-545.9205"/>
<polygon fill="#444444" fill-opacity="0.333333" stroke="#444444" stroke-opacity="0.333333" points="1053.8009,-546.0446 1051.1189,-535.7949 1046.8237,-545.48 1053.8009,-546.0446"/>
</g>
<!-- dbus&#45;broker&#45;&gt;systemd -->
<g id="edge43" class="edge">
<title>dbus&#45;broker&#45;&gt;systemd</title>
<path fill="none" stroke="#444444" stroke-opacity="0.333333" d="M1022.4935,-907.0057C1030.0184,-859.3517 1050.2402,-731.2891 1059.256,-674.1932"/>
<polygon fill="#444444" fill-opacity="0.333333" stroke="#444444" stroke-opacity="0.333333" points="1062.7505,-674.5023 1060.8532,-664.0787 1055.8362,-673.4104 1062.7505,-674.5023"/>
</g>
<!-- dbus&#45;broker&#45;&gt;shadow&#45;utils -->
<g id="edge44" class="edge">
<title>dbus&#45;broker&#45;&gt;shadow&#45;utils</title>
<path fill="none" stroke="#444444" stroke-opacity="0.333333" d="M994.3778,-907.2781C971.0507,-890.5826 936.2038,-865.6421 910.4764,-847.2286"/>
<polygon fill="#444444" fill-opacity="0.333333" stroke="#444444" stroke-opacity="0.333333" points="912.2997,-844.2295 902.1308,-841.2555 908.2256,-849.9218 912.2997,-844.2295"/>
</g>
<!-- dbus&#45;broker&#45;&gt;dbus&#45;common -->
<g id="edge45" class="edge">
<title>dbus&#45;broker&#45;&gt;dbus&#45;common</title>
<path fill="none" stroke="#444444" stroke-opacity="0.333333" d="M1038.2091,-907.1874C1056.0964,-889.7485 1083.2912,-863.2355 1103.312,-843.7165"/>
<polygon fill="#444444" fill-opacity="0.333333" stroke="#444444" stroke-opacity="0.333333" points="1105.8826,-846.0985 1110.5996,-836.6116 1100.9961,-841.0863 1105.8826,-846.0985"/>
</g>
<!-- dbus&#45;common&#45;&gt;Fedora Container Base -->
<g id="edge46" class="edge">
<title>dbus&#45;common&#45;&gt;Fedora Container Base</title>
<path fill="none" stroke="#444444" stroke-opacity="0.333333" d="M1124.6175,-800.0109C1111.6695,-749.2164 1075.3176,-606.6101 1059.7844,-545.6739"/>
<polygon fill="#444444" fill-opacity="0.333333" stroke="#444444" stroke-opacity="0.333333" points="1063.0829,-544.4442 1057.2212,-535.6187 1056.2998,-546.1734 1063.0829,-544.4442"/>
</g>
<!-- dbus&#45;common&#45;&gt;systemd -->
<g id="edge47" class="edge">
<title>dbus&#45;common&#45;&gt;systemd</title>
<path fill="none" stroke="#444444" stroke-opacity="0.333333" d="M1122.4036,-800.2634C1110.9366,-770.1396 1087.8723,-709.5503 1074.318,-673.9434"/>
<polygon fill="#444444" fill-opacity="0.333333" stroke="#444444" stroke-opacity="0.333333" points="1077.4311,-672.2831 1070.6024,-664.1825 1070.889,-674.7734 1077.4311,-672.2831"/>
</g>
<!-- libunwind&#45;&gt;Fedora Container Base -->
<g id="edge48" class="edge">
<title>libunwind&#45;&gt;Fedora Container Base</title>
<path fill="none" stroke="#444444" stroke-opacity="0.333333" d="M728.8669,-151.2006C783.8028,-213.358 965.5151,-418.9574 1029.8109,-491.7052"/>
<polygon fill="#444444" fill-opacity="0.333333" stroke="#444444" stroke-opacity="0.333333" points="1027.4626,-494.3333 1036.7075,-499.5084 1032.7077,-489.6976 1027.4626,-494.3333"/>
</g>
<!-- gperftools&#45;libs&#45;&gt;Fedora Container Base -->
<g id="edge49" class="edge">
<title>gperftools&#45;libs&#45;&gt;Fedora Container Base</title>
<path fill="none" stroke="#444444" stroke-opacity="0.333333" d="M655.6223,-322.1645C734.9062,-361.1747 922.3045,-453.3805 1008.1954,-495.6415"/>
<polygon fill="#444444" fill-opacity="0.333333" stroke="#444444" stroke-opacity="0.333333" points="1006.6519,-498.7828 1017.1698,-500.0572 1009.7423,-492.5019 1006.6519,-498.7828"/>
</g>
<!-- gperftools&#45;libs&#45;&gt;libunwind -->
<g id="edge50" class="edge">
<title>gperftools&#45;libs&#45;&gt;libunwind</title>
<path fill="none" stroke="#444444" stroke-opacity="0.333333" d="M629.08,-285.8621C645.6017,-255.7814 678.5912,-195.7182 697.9031,-160.5575"/>
<polygon fill="#444444" fill-opacity="0.333333" stroke="#444444" stroke-opacity="0.333333" points="701.2158,-161.7962 702.9622,-151.3463 695.0804,-158.4263 701.2158,-161.7962"/>
</g>
<!-- nginx&#45;filesystem&#45;&gt;Fedora Container Base -->
<g id="edge51" class="edge">
<title>nginx&#45;filesystem&#45;&gt;Fedora Container Base</title>
<path fill="none" stroke="#444444" stroke-opacity="0.333333" d="M622.6296,-696.8488C710.3133,-660.2722 908.6067,-577.5557 1002.0653,-538.5702"/>
<polygon fill="#444444" fill-opacity="0.333333" stroke="#444444" stroke-opacity="0.333333" points="1003.4329,-541.792 1011.3146,-534.7119 1000.7379,-535.3316 1003.4329,-541.792"/>
</g>
<!-- nginx&#45;filesystem&#45;&gt;shadow&#45;utils -->
<g id="edge52" class="edge">
<title>nginx&#45;filesystem&#45;&gt;shadow&#45;utils</title>
<path fill="none" stroke="#444444" stroke-opacity="0.333333" d="M629.1413,-732.9919C680.9128,-751.825 761.9722,-781.3123 817.1158,-801.3721"/>
<polygon fill="#444444" fill-opacity="0.333333" stroke="#444444" stroke-opacity="0.333333" points="816.1623,-804.7496 826.7563,-804.8791 818.5553,-798.1713 816.1623,-804.7496"/>
</g>
<!-- nginx&#45;mimetypes&#45;&gt;nginx&#45;filesystem -->
<g id="edge53" class="edge">
<title>nginx&#45;mimetypes&#45;&gt;nginx&#45;filesystem</title>
<path fill="none" stroke="#444444" stroke-opacity="0.333333" d="M326.8086,-723.7787C377.841,-721.9827 442.2223,-719.717 493.2111,-717.9225"/>
<polygon fill="#444444" fill-opacity="0.333333" stroke="#444444" stroke-opacity="0.333333" points="493.3517,-721.4198 503.2224,-717.5702 493.1054,-714.4242 493.3517,-721.4198"/>
</g>
<!-- nginx&#45;&gt;Fedora Container Base -->
<g id="edge54" class="edge">
<title>nginx&#45;&gt;Fedora Container Base</title>
<path fill="none" stroke="#444444" stroke-opacity="0.333333" d="M622.519,-539.606C700.116,-535.6158 821.0501,-529.397 914.9412,-524.5688"/>
<polygon fill="#444444" fill-opacity="0.333333" stroke="#444444" stroke-opacity="0.333333" points="915.2864,-528.0558 925.0934,-524.0468 914.9269,-521.065 915.2864,-528.0558"/>
</g>
<!-- nginx&#45;&gt;systemd -->
<g id="edge55" class="edge">
<title>nginx&#45;&gt;systemd</title>
<path fill="none" stroke="#444444" stroke-opacity="0.333333" d="M622.5271,-558.9378C722.5949,-578.6968 895.1656,-612.7719 992.1595,-631.9239"/>
<polygon fill="#444444" fill-opacity="0.333333" stroke="#444444" stroke-opacity="0.333333" points="991.678,-635.3963 1002.1666,-633.8999 993.0341,-628.5289 991.678,-635.3963"/>
</g>
<!-- nginx&#45;&gt;fedora&#45;logos&#45;httpd -->
<g id="edge56" class="edge">
<title>nginx&#45;&gt;fedora&#45;logos&#45;httpd</title>
<path fill="none" stroke="#444444" stroke-opacity="0.333333" d="M467.2024,-529.3687C387.9052,-514.835 264.6228,-492.2397 179.0759,-476.5605"/>
<polygon fill="#444444" fill-opacity="0.333333" stroke="#444444" stroke-opacity="0.333333" points="179.5642,-473.0918 169.097,-474.7316 178.3022,-479.9771 179.5642,-473.0918"/>
</g>
<!-- nginx&#45;&gt;gperftools&#45;libs -->
<g id="edge57" class="edge">
<title>nginx&#45;&gt;gperftools&#45;libs</title>
<path fill="none" stroke="#444444" stroke-opacity="0.333333" d="M550.5476,-525.2091C563.4703,-483.497 595.0683,-381.5043 610.4019,-332.0099"/>
<polygon fill="#444444" fill-opacity="0.333333" stroke="#444444" stroke-opacity="0.333333" points="613.7984,-332.8737 613.4145,-322.2858 607.1119,-330.8021 613.7984,-332.8737"/>
</g>
<!-- nginx&#45;&gt;nginx&#45;filesystem -->
<g id="edge58" class="edge">
<title>nginx&#45;&gt;nginx&#45;filesystem</title>
<path fill="none" stroke="#444444" stroke-opacity="0.333333" d="M548.4801,-561.6073C554.4901,-591.4208 566.5523,-651.2566 573.6988,-686.7079"/>
<polygon fill="#444444" fill-opacity="0.333333" stroke="#444444" stroke-opacity="0.333333" points="570.3396,-687.7558 575.7468,-696.867 577.2015,-686.3725 570.3396,-687.7558"/>
</g>
<!-- nginx&#45;&gt;nginx&#45;mimetypes -->
<g id="edge59" class="edge">
<title>nginx&#45;&gt;nginx&#45;mimetypes</title>
<path fill="none" stroke="#444444" stroke-opacity="0.333333" d="M514.824,-561.6693C459.3444,-595.0561 340.8365,-666.3726 279.2936,-703.4083"/>
<polygon fill="#444444" fill-opacity="0.333333" stroke="#444444" stroke-opacity="0.333333" points="277.4046,-700.4601 270.6411,-708.6153 281.014,-706.4579 277.4046,-700.4601"/>
</g>
<!-- Fedora Container Base -->
<g id="node1" class="node">
<title>Fedora Container Base</title>
<ellipse fill="none" stroke="#000000" cx="1052.6" cy="-517.49" rx="136.5" ry="18"/>
<text text-anchor="middle" x="1052.6" y="-513.79" font-family="Helvetica,sans-Serif" font-weight="bold" font-size="14.00" fill="#000000">Fedora Container Base (197.9 MB)</text>
</g>
<!-- device&#45;mapper&#45;libs -->
<g id="node2" class="node">
<title>device&#45;mapper&#45;libs</title>
<text text-anchor="middle" x="1547.8" y="-406.81" font-family="Helvetica,sans-Serif" font-weight="bold" font-size="14.00" fill="#000000">device&#45;mapper&#45;libs (417.5 kB)</text>
</g>
<!-- device&#45;mapper -->
<g id="node3" class="node">
<title>device&#45;mapper</title>
<text text-anchor="middle" x="1451.2" y="-606.43" font-family="Helvetica,sans-Serif" font-weight="bold" font-size="14.00" fill="#000000">device&#45;mapper (350.3 kB)</text>
</g>
<!-- libargon2 -->
<g id="node4" class="node">
<title>libargon2</title>
<text text-anchor="middle" x="1382.1" y="-115.59" font-family="Helvetica,sans-Serif" font-weight="bold" font-size="14.00" fill="#000000">libargon2 (54.9 kB)</text>
</g>
<!-- systemd -->
<g id="node5" class="node">
<title>systemd</title>
<text text-anchor="middle" x="1063.7" y="-642.35" font-family="Helvetica,sans-Serif" font-weight="bold" font-size="14.00" fill="#000000">systemd (12.3 MB)</text>
</g>
<!-- util&#45;linux -->
<g id="node6" class="node">
<title>util&#45;linux</title>
<text text-anchor="middle" x="1348.4" y="-781.76" font-family="Helvetica,sans-Serif" font-weight="bold" font-size="14.00" fill="#000000">util&#45;linux (12.7 MB)</text>
</g>
<!-- cryptsetup&#45;libs -->
<g id="node7" class="node">
<title>cryptsetup&#45;libs</title>
<text text-anchor="middle" x="1375.3" y="-336.63" font-family="Helvetica,sans-Serif" font-weight="bold" font-size="14.00" fill="#000000">cryptsetup&#45;libs (1.8 MB)</text>
</g>
<!-- iptables&#45;libs -->
<g id="node8" class="node">
<title>iptables&#45;libs</title>
<text text-anchor="middle" x="946.26" y="-222.41" font-family="Helvetica,sans-Serif" font-weight="bold" font-size="14.00" fill="#000000">iptables&#45;libs (155.9 kB)</text>
</g>
<!-- libseccomp -->
<g id="node9" class="node">
<title>libseccomp</title>
<text text-anchor="middle" x="1292.1" y="-563.51" font-family="Helvetica,sans-Serif" font-weight="bold" font-size="14.00" fill="#000000">libseccomp (347.0 kB)</text>
</g>
<!-- shadow&#45;utils -->
<g id="node10" class="node">
<title>shadow&#45;utils</title>
<text text-anchor="middle" x="876.68" y="-819.34" font-family="Helvetica,sans-Serif" font-weight="bold" font-size="14.00" fill="#000000">shadow&#45;utils (3.9 MB)</text>
</g>
<!-- systemd&#45;pam -->
<g id="node11" class="node">
<title>systemd&#45;pam</title>
<text text-anchor="middle" x="1241.5" y="-385.55" font-family="Helvetica,sans-Serif" font-weight="bold" font-size="14.00" fill="#000000">systemd&#45;pam (335.6 kB)</text>
</g>
<!-- systemd&#45;rpm&#45;macros -->
<g id="node12" class="node">
<title>systemd&#45;rpm&#45;macros</title>
<text text-anchor="middle" x="924.46" y="-1163.1" font-family="Helvetica,sans-Serif" font-weight="bold" font-size="14.00" fill="#000000">systemd&#45;rpm&#45;macros (4.9 kB)</text>
</g>
<!-- acl -->
<g id="node13" class="node">
<title>acl</title>
<text text-anchor="middle" x="979.21" y="-348.8" font-family="Helvetica,sans-Serif" font-weight="bold" font-size="14.00" fill="#000000">acl (212.0 kB)</text>
</g>
<!-- dbus -->
<g id="node14" class="node">
<title>dbus</title>
<text text-anchor="middle" x="1163.8" y="-1130.4" font-family="Helvetica,sans-Serif" font-weight="bold" font-size="14.00" fill="#000000">dbus (0.0 B)</text>
</g>
<!-- kmod&#45;libs -->
<g id="node15" class="node">
<title>kmod&#45;libs</title>
<text text-anchor="middle" x="1150.2" y="-247.4" font-family="Helvetica,sans-Serif" font-weight="bold" font-size="14.00" fill="#000000">kmod&#45;libs (197.4 kB)</text>
</g>
<!-- qrencode&#45;libs -->
<g id="node16" class="node">
<title>qrencode&#45;libs</title>
<text text-anchor="middle" x="793.62" y="-520.91" font-family="Helvetica,sans-Serif" font-weight="bold" font-size="14.00" fill="#000000">qrencode&#45;libs (159.3 kB)</text>
</g>
<!-- libfdisk -->
<g id="node17" class="node">
<title>libfdisk</title>
<text text-anchor="middle" x="1535.6" y="-764.97" font-family="Helvetica,sans-Serif" font-weight="bold" font-size="14.00" fill="#000000">libfdisk (488.8 kB)</text>
</g>
<!-- libutempter -->
<g id="node18" class="node">
<title>libutempter</title>
<text text-anchor="middle" x="1188.6" y="-928.8" font-family="Helvetica,sans-Serif" font-weight="bold" font-size="14.00" fill="#000000">libutempter (58.2 kB)</text>
</g>
<!-- libpcap -->
<g id="node19" class="node">
<title>libpcap</title>
<text text-anchor="middle" x="987.02" y="-14.3" font-family="Helvetica,sans-Serif" font-weight="bold" font-size="14.00" fill="#000000">libpcap (375.4 kB)</text>
</g>
<!-- libsemanage -->
<g id="node20" class="node">
<title>libsemanage</title>
<text text-anchor="middle" x="719.37" y="-873.02" font-family="Helvetica,sans-Serif" font-weight="bold" font-size="14.00" fill="#000000">libsemanage (313.1 kB)</text>
</g>
<!-- dbus&#45;broker -->
<g id="node21" class="node">
<title>dbus&#45;broker</title>
<text text-anchor="middle" x="1019.6" y="-921.63" font-family="Helvetica,sans-Serif" font-weight="bold" font-size="14.00" fill="#000000">dbus&#45;broker (423.2 kB)</text>
</g>
<!-- dbus&#45;common -->
<g id="node22" class="node">
<title>dbus&#45;common</title>
<text text-anchor="middle" x="1129.3" y="-814.68" font-family="Helvetica,sans-Serif" font-weight="bold" font-size="14.00" fill="#000000">dbus&#45;common (11.2 kB)</text>
</g>
<!-- libunwind -->
<g id="node23" class="node">
<title>libunwind</title>
<text text-anchor="middle" x="712.94" y="-129.48" font-family="Helvetica,sans-Serif" font-weight="bold" font-size="14.00" fill="#000000">libunwind (180.6 kB)</text>
</g>
<!-- fedora&#45;logos&#45;httpd -->
<g id="node24" class="node">
<title>fedora&#45;logos&#45;httpd</title>
<text text-anchor="middle" x="82.5" y="-455.16" font-family="Helvetica,sans-Serif" font-weight="bold" font-size="14.00" fill="#000000">fedora&#45;logos&#45;httpd (9.9 kB)</text>
</g>
<!-- gperftools&#45;libs -->
<g id="node25" class="node">
<title>gperftools&#45;libs</title>
<text text-anchor="middle" x="619.03" y="-300.46" font-family="Helvetica,sans-Serif" font-weight="bold" font-size="14.00" fill="#000000">gperftools&#45;libs (1.8 MB)</text>
</g>
<!-- nginx&#45;filesystem -->
<g id="node26" class="node">
<title>nginx&#45;filesystem</title>
<text text-anchor="middle" x="579.38" y="-711.19" font-family="Helvetica,sans-Serif" font-weight="bold" font-size="14.00" fill="#000000">nginx&#45;filesystem (0.0 B)</text>
</g>
<!-- nginx&#45;mimetypes -->
<g id="node27" class="node">
<title>nginx&#45;mimetypes</title>
<text text-anchor="middle" x="240.39" y="-723.12" font-family="Helvetica,sans-Serif" font-weight="bold" font-size="14.00" fill="#000000">nginx&#45;mimetypes (39.3 kB)</text>
</g>
<!-- nginx -->
<g id="node28" class="node">
<title>nginx</title>
<text text-anchor="middle" x="544.85" y="-538" font-family="Helvetica,sans-Serif" font-weight="bold" font-size="22.00" fill="#cc0066">nginx (1.7 MB)</text>
</g>
</g>

<script type="text/javascript"><![CDATA[

document.addEventListener('click', function(e) {
      e = e || window.event;
      var target = e.target || e.srcElement;
      text = target.parentElement.querySelector("title").textContent;

      console.log("Clicked on: " + text);
      // reset all strokes
      var nodes = document.getElementsByClassName("edge");

      for (index = 0, len = nodes.length; index < len; ++index) {
          //var title = nodes[index].querySelector("title").textContent.split("->");
          id = nodes[index].id;
          document.getElementById(id).querySelector("path").setAttribute("stroke-width", "1");
          document.getElementById(id).querySelector("path").setAttribute("stroke-opacity", "0.5");
          document.getElementById(id).querySelector("path").setAttribute("stroke", "#444444");
          document.getElementById(id).querySelector("polygon").setAttribute("stroke-width", "1");
          document.getElementById(id).querySelector("polygon").setAttribute("stroke-opacity", "0.5");
          document.getElementById(id).querySelector("polygon").setAttribute("stroke", "#444444");
      }
      // reset text highlight
      pkgs = document.getElementsByClassName("node");
      for (index2 = 0, len2 = pkgs.length; index2 < len2; ++index2) {
          target_id = pkgs[index2].id;
          document.getElementById(target_id).querySelector("text").setAttribute("font-weight", "normal");
      }

      // highlight deps
      var nodes = document.getElementsByClassName("edge");
      for (index = 0, len = nodes.length; index < len; ++index) {
        var title = nodes[index].querySelector("title").textContent.split("->");

        if (title[0] == text) {
          id = nodes[index].id;
          //console.log("ID:   " + id);
          document.getElementById(id).querySelector("path").setAttribute("stroke-width", "3");
          document.getElementById(id).querySelector("path").setAttribute("stroke-opacity", "1");
          document.getElementById(id).querySelector("path").setAttribute("stroke", "#aa3333");
          document.getElementById(id).querySelector("polygon").setAttribute("stroke-width", "5");
          document.getElementById(id).querySelector("polygon").setAttribute("stroke-opacity", "1");
          document.getElementById(id).querySelector("polygon").setAttribute("stroke", "#aa3333");

        }
        if (title[1] == text) {
          id = nodes[index].id;
          document.getElementById(id).querySelector("path").setAttribute("stroke-width", "3");
          document.getElementById(id).querySelector("path").setAttribute("stroke-opacity", "1");
          document.getElementById(id).querySelector("path").setAttribute("stroke", "#333377");
          document.getElementById(id).querySelector("polygon").setAttribute("stroke-width", "5");
          document.getElementById(id).querySelector("polygon").setAttribute("stroke-opacity", "1");
          document.getElementById(id).querySelector("polygon").setAttribute("stroke", "#333377");
        }

        if (title[0] == text || title[1] == text) {
          pkgs = document.getElementsByClassName("node");
          for (index2 = 0, len2 = pkgs.length; index2 < len2; ++index2) {
            var pkg_name = pkgs[index2].querySelector("title").textContent;
            if (pkg_name == title[0] || pkg_name == title[1]) {
              target_id = pkgs[index2].id;
              document.getElementById(target_id).querySelector("text").setAttribute("font-weight", "bold");
            }
          }
        }
      }


  }, false);

]]></script>


  <text
     id="text7664"
     y="19.384439"
     x="9.9055691"
     style="font-style:normal;font-weight:normal;font-size:12.49485588px;line-height:125%;font-family:sans-serif;letter-spacing:0px;word-spacing:0px;fill:#000000;fill-opacity:1;stroke:none;stroke-width:0.3123714px;stroke-linecap:butt;stroke-linejoin:miter;stroke-opacity:1"
     xml:space="preserve"><tspan
       style="font-size:12.00258541px;stroke-width:0.3123714px"
       y="19.384439"
       x="9.9055691"
       id="tspan7666"><a href="report-use-case-definition--nginx-noweak--31.html"><tspan
   style="font-weight:bold;font-size:12.00258541px;fill:#0066ff;stroke-width:0.3123714px"
   id="tspan7668">Nginx (no weak deps)</tspan></a> on <a href="report-base-definition--fedora-container-base--31.html"><tspan
   style="font-weight:bold;font-size:12.00258541px;fill:#0066ff;stroke-width:0.3123714px"
   id="tspan7676">Fedora Container Base</tspan></a> (Fedora 31)</tspan></text>
  <text
     xml:space="preserve"
     style="font-style:normal;font-weight:normal;font-size:11.85299969px;line-height:125%;font-family:sans-serif;letter-spacing:0px;word-spacing:0px;fill:#000000;fill-opacity:1;stroke:none;stroke-width:0.296325px;stroke-linecap:butt;stroke-linejoin:miter;stroke-opacity:1"
     x="9.9365959"
     y="58.520042"
     id="text8235"><tspan
       id="tspan8237"
       x="9.9365959"
       y="58.520042"
       style="stroke-width:0.296325px;font-size:10.80232704px;fill:#666666">Generated by <a href="./"><tspan
   style="fill:#3771c8"
   id="tspan8255">Feedback Pipeline</tspan></a></tspan></text>
  <text
     xml:space="preserve"
     style="font-style:normal;font-weight:normal;font-size:12.49485588px;line-height:125%;font-family:sans-serif;letter-spacing:0px;word-spacing:0px;fill:#000000;fill-opacity:1;stroke:none;stroke-width:0.3123714px;stroke-linecap:butt;stroke-linejoin:miter;stroke-opacity:1"
     x="9.9055691"
     y="38.974205"
     id="text8245"><a href="graph--nginx-noweak--fedora-container-base--31.svg"><tspan
       id="tspan8247"
       x="9.9055691"
       y="38.974205"
       style="font-weight:normal;font-size:12.00258541px;fill:#0066ff;stroke-width:0.3123714px">Expand base image</tspan></a></text>

</svg>
