<?xml version="1.0" encoding="UTF-8" standalone="no"?>
<!DOCTYPE svg PUBLIC "-//W3C//DTD SVG 1.1//EN"
 "http://www.w3.org/Graphics/SVG/1.1/DTD/svg11.dtd">
<!-- Generated by graphviz version 2.40.1 (0)
 -->
<!-- Title: packages Pages: 1 -->
<svg width="1645pt" height="857pt"
 viewBox="0.00 0.00 1974.18 1028.58" xmlns="http://www.w3.org/2000/svg" xmlns:xlink="http://www.w3.org/1999/xlink">
<g id="graph0" class="graph" transform="scale(.8333 .8333) rotate(0) translate(124.0729 875.698)">
<title>packages</title>
<polygon fill="#dae2ff" stroke="transparent" points="-124.0729,152.8815 -124.0729,-875.698 1850.1099,-875.698 1850.1099,152.8815 -124.0729,152.8815"/>
<polygon fill="#fbb4ae" stroke="#fbb4ae" points="990.9249,-254.7061 995.6425,-252.1849 999.7979,-103.8853 1117.4344,-153.3631 1120.9668,-229.027 1120.91,-258.65 1122.6414,-282.8966 1125.6416,-347.1657 1001.197,-399.6822 984.8715,-406.9323 983.9933,-406.8924 970.2678,-407.2365 960.7544,-407.8109 953.6038,-408.3687 936.661,-410.2884 924.8719,-411.8302 918.342,-411.7761 861.8436,-449.5426 791.3621,-465.2898 777.4619,-468.9809 774.017,-470.0398 756.1399,-475.913 740.4294,-482.3868 696.362,-502.3835 686.4955,-546.8869 743.6003,-667.8243 741.6072,-677.3921 734.3777,-716.5862 728.172,-762.6912 699.1539,-821.236 619.8003,-869.5178 609.7418,-871.698 606.5771,-870.4762 605.8015,-745.0864 605.8015,-745.0864 606.5771,-870.4762 597.3981,-867.2611 587.5832,-863.9996 573.2366,-860.2582 564.8301,-858.2167 563.9636,-771.1797 568.7563,-707.6495 573.3224,-708.8717 577.8474,-707.6609 586.8646,-816.7698 586.2937,-764.1154 586.2937,-764.1154 586.8646,-816.7698 577.8474,-707.6609 582.4245,-703.8165 578.65,-700.7048 573.108,-699.1264 573.108,-699.1264 578.65,-700.7048 582.4245,-703.8165 577.8474,-707.6609 573.3224,-708.8717 568.7563,-707.6495 563.9636,-771.1797 564.8301,-858.2167 553.9005,-856.1501 540.0761,-853.7842 537.9133,-853.4922 471.2254,-845.6854 465.5832,-842.9059 400.4943,-794.0847 398.2226,-733.6088 397.0745,-714.3 397.1277,-705.1307 396.6099,-672.6775 395.8063,-651.2851 403.8717,-643.5978 405.5048,-516.6927 405.0488,-507.9503 406.1828,-493.6578 434.045,-496.499 455.042,-495.1173 455.042,-495.1173 434.045,-496.499 406.1828,-493.6578 405.6909,-484.2321 406.3943,-429.5702 419.7116,-423.9038 427.7655,-403.1558 438.425,-370.8976 442.0393,-352.5713 451.1297,-324.9661 467.684,-282.3199 494.1029,-256.5639 494.4359,-256.2558 493.3268,-327.1473 495.6818,-379.9741 496.0159,-380.5753 495.3519,-381.1718 495.1456,-440.6291 493.139,-440.744 492.3346,-440.8326 488.3292,-440.8709 485.4005,-496.6967 481.0111,-499.0838 479.2912,-501.0303 475.3646,-501.0303 475.245,-500.9954 475.245,-500.9954 475.3646,-501.0303 479.2912,-501.0303 480.7965,-502.8372 486.0213,-505.8979 490.4045,-505.8979 496.0786,-502.5672 495.0146,-558.0927 496.3203,-595.8514 501.5661,-501.4985 501.5661,-501.4985 496.3203,-595.8514 495.0146,-558.0927 496.0786,-502.5672 490.4045,-505.8979 486.0213,-505.8979 480.7965,-502.8372 479.2912,-501.0303 481.0111,-499.0838 485.4005,-496.6967 488.3292,-440.8709 492.3346,-440.8326 493.139,-440.744 495.1456,-440.6291 497.657,-440.6171 501.2344,-380.7578 502.5537,-380.7578 506.2698,-384.0939 511.4441,-385.6151 516.6071,-384.0873 519.3859,-440.7008 521.7931,-440.7125 521.7931,-440.7125 519.3859,-440.7008 516.6071,-384.0873 511.4441,-385.6151 506.2698,-384.0939 502.5537,-380.7578 501.2344,-380.7578 497.657,-440.6171 495.1456,-440.6291 495.3519,-381.1718 496.0159,-380.5753 495.6818,-379.9741 493.3268,-327.1473 494.4359,-256.2558 501.5795,-248.9984 501.6961,-248.8909 504.3471,-246.3391 504.8677,-245.8159 515.8586,-234.2881 515.3265,-210.5251 517.5477,-208.3845 638.7949,-86.2702 660.4389,-91.6182 662.6265,-92.0752 678.2081,-94.7409 692.8396,-96.686 690.9341,-171.8922 686.6271,-234.6176 682.4658,-234.6176 675.9602,-238.3287 675.0247,-239.3326 675.6593,-240.0176 675.6593,-240.0176 675.0247,-239.3326 675.9602,-238.3287 682.4658,-234.6176 686.6271,-234.6176 690.9341,-171.8922 692.8396,-96.686 704.9998,-97.8369 709.3762,-98.0004 776.7298,-99.2327 797.5825,-110.7161 838.0515,-137.3188 935.6169,-111.4385 955.7671,-105.7081 963.7849,-103.1288 965.9202,-102.3618 970.5837,-101.0534 984.2426,-96.7285 989.3134,-99.2662 999.7979,-103.8853 995.6425,-252.1849 990.9249,-254.7061 988.074,-258.5815 986.3052,-258.5815 985.9526,-258.4836 985.6003,-202.1674 980.1474,-258.0301 976.91,-255.5135 976.91,-255.5135 980.1474,-258.0301 985.6003,-202.1674 985.9526,-258.4836 986.3052,-258.5815 988.074,-258.5815 990.9249,-254.7061 990.9249,-254.7061"/>
<polygon fill="#fed9a6" stroke="#fed9a6" points="73.6071,-218.9324 74.1852,-218.9346 77.5921,-218.8226 83.6741,-218.8528 83.7705,-243.53 81.222,-290.8837 76.6174,-292.1753 72.4514,-295.7474 76.082,-298.7791 81.6967,-300.3986 86.9114,-298.9476 80.5202,-378.3618 78.9159,-379.0001 72.6808,-381.9798 54.8713,-391.9546 6.441,-422.8534 136.3737,-432.8252 140.6271,-436.4415 141.8709,-438.5706 145.0699,-438.5706 148.2347,-408.9418 148.2347,-408.9418 145.0699,-438.5706 141.8709,-438.5706 140.6271,-436.4415 136.3737,-432.8252 6.441,-422.8534 54.8713,-391.9546 72.6808,-381.9798 78.9159,-379.0001 80.5202,-378.3618 86.9114,-298.9476 90.7634,-295.87 96.1718,-367.5706 96.653,-356.6682 96.653,-356.6682 96.1718,-367.5706 90.7634,-295.87 86.9114,-298.9476 81.6967,-300.3986 76.082,-298.7791 72.4514,-295.7474 76.6174,-292.1753 81.222,-290.8837 83.7705,-243.53 83.6741,-218.8528 87.0049,-218.624 88.9152,-218.5652 97.7301,-217.9691 110.8629,-216.1124 106.2348,-289.7269 148.6803,-288.2622 153.6743,-299.4001 179.8783,-341.6514 181.967,-345.557 185.2892,-345.7638 184.4344,-377.0102 179.8805,-438.1783 181.884,-438.739 184.8985,-438.739 188.1783,-490.5851 190.8651,-438.857 194.2743,-438.857 197.9432,-468.9595 198.3915,-536.6625 206.2605,-526.3599 207.4286,-524.9261 285.2452,-505.3267 289.1026,-558.7938 289.1666,-557.999 296.8175,-500.3005 299.9898,-500.3005 300.7904,-500.0761 304.8372,-500.0761 309.1023,-540.2905 311.3077,-500.1765 312.1845,-500.1765 316.4224,-503.8398 320.7505,-505.0201 320.7505,-505.0201 316.4224,-503.8398 312.1845,-500.1765 311.3077,-500.1765 309.1023,-540.2905 304.8372,-500.0761 300.7904,-500.0761 299.9898,-500.3005 296.8175,-500.3005 295.5223,-499.932 292.2473,-499.932 290.8792,-497.8282 285.4308,-493.8262 286.1011,-469.2319 280.9113,-469.3871 280.9113,-469.3871 286.1011,-469.2319 285.4308,-493.8262 270.9148,-495.667 239.1153,-491.6624 243.6671,-486.8524 251.0007,-480.8273 258.9715,-476.047 258.9715,-476.047 251.0007,-480.8273 243.6671,-486.8524 243.5493,-483.699 243.5493,-483.699 243.6671,-486.8524 239.1153,-491.6624 270.9148,-495.667 285.4308,-493.8262 290.8792,-497.8282 292.2473,-499.932 295.5223,-499.932 296.8175,-500.3005 289.1666,-557.999 289.1026,-558.7938 285.2452,-505.3267 207.4286,-524.9261 206.2605,-526.3599 198.3915,-536.6625 197.9432,-468.9595 200.9865,-440.9456 205.1414,-443.1714 209.6813,-443.1714 215.924,-439.5994 216.5539,-438.9206 214.5718,-436.6238 210.1349,-434.1589 205.2719,-434.1589 205.2719,-434.1589 210.1349,-434.1589 214.5718,-436.6238 216.5539,-438.9206 215.924,-439.5994 209.6813,-443.1714 205.1414,-443.1714 200.9865,-440.9456 197.9432,-468.9595 194.2743,-438.857 190.8651,-438.857 188.1783,-490.5851 184.8985,-438.739 181.884,-438.739 179.8805,-438.1783 184.4344,-377.0102 185.2892,-345.7638 181.967,-345.557 179.8783,-341.6514 153.6743,-299.4001 148.6803,-288.2622 139.175,-261.892 180.5099,-258.4395 182.5787,-279.6989 187.535,-252.8345 189.6156,-252.8345 193.6146,-277.8885 193.7357,-345.6959 200.1451,-345.7303 201.3813,-252.9617 201.9624,-252.7993 205.2563,-255.4609 205.2563,-255.4609 201.9624,-252.7993 201.3813,-252.9617 200.1451,-345.7303 193.7357,-345.6959 193.6146,-277.8885 189.6156,-252.8345 187.535,-252.8345 182.5787,-279.6989 180.5099,-258.4395 139.175,-261.892 148.6803,-288.2622 106.2348,-289.7269 110.8629,-216.1124 112.9529,-215.7408 147.0028,-181.5368 176.2722,-182.1516 186.5301,-181.9393 187.7849,-181.9642 188.1378,-181.9418 199.1148,-182.1369 200.1043,-182.1948 205.1756,-182.0673 208.1277,-182.113 209.0905,-182.167 213.1092,-182.2247 213.4379,-182.202 224.5319,-182.3371 225.3153,-182.314 226.6718,-182.2171 232.2742,-182.2728 236.721,-182.1315 237.8426,-182.1414 239.3884,-182.2807 240.491,-182.3339 252.6037,-182.4139 266.03,-184.1402 278.0235,-186.6557 284.0334,-188.3989 284.5374,-188.5654 286.1994,-188.0132 303.3826,-183.6858 328.0504,-178.5051 334.5589,-176.8542 343.7681,-173.7081 348.8224,-171.7598 362.7987,-165.7583 373.2501,-159.9244 373.4584,-212.1404 373.4584,-212.1404 373.2501,-159.9244 388.3084,-150.2047 383.1692,-135.7147 393.2106,-79.7659 394.7913,-65.4202 396.2997,-57.3357 396.8403,-52.4846 397.3647,-38.6199 420.6663,91.2122 442.5139,88.0873 461.5916,86.4079 468.5491,85.9237 474.2413,85.7372 475.4646,13.9527 471.1779,-59.554 466.3842,-58.1558 466.3842,-58.1558 471.1779,-59.554 475.4646,13.9527 474.2413,85.7372 483.2911,85.9392 487.095,-61.5489 485.2288,-63.0453 482.7414,-63.0453 482.7414,-63.0453 485.2288,-63.0453 487.095,-61.5489 483.2911,85.9392 497.5041,86.5179 506.1645,87.0294 594.0787,23.2395 619.5449,-41.8467 633.1459,-74.2841 638.7949,-86.2702 517.5477,-208.3845 515.3265,-210.5251 515.8586,-234.2881 504.8677,-245.8159 504.3471,-246.3391 501.6961,-248.8909 501.5795,-248.9984 494.4359,-256.2558 494.1029,-256.5639 467.684,-282.3199 451.1297,-324.9661 390.2094,-338.8469 386.7973,-342.3431 386.7973,-342.3431 390.2094,-338.8469 451.1297,-324.9661 442.0393,-352.5713 438.425,-370.8976 427.7655,-403.1558 419.7116,-423.9038 406.3943,-429.5702 405.6909,-484.2321 356.1995,-494.82 360.6322,-422.1604 369.3664,-422.3828 368.3638,-383.8632 370.5371,-345.1225 371.4945,-344.0302 370.567,-342.9789 370.567,-342.9789 371.4945,-344.0302 370.5371,-345.1225 364.5551,-348.6477 360.4534,-348.6477 360.4534,-348.6477 364.5551,-348.6477 370.5371,-345.1225 368.3638,-383.8632 369.3664,-422.3828 360.6322,-422.1604 356.1995,-494.82 405.6909,-484.2321 406.1828,-493.6578 405.0488,-507.9503 405.5048,-516.6927 403.8717,-643.5978 395.8063,-651.2851 396.6099,-672.6775 397.1277,-705.1307 397.0745,-714.3 398.2226,-733.6088 400.4943,-794.0847 259.3408,-858.0112 256.7199,-859.2598 236.8143,-869.214 236.1051,-869.6008 235.6295,-869.335 235.1074,-869.0671 224.8785,-715.4855 230.3285,-718.6355 235.94,-718.6355 240.6944,-715.8339 242.1489,-714.0742 240.7409,-712.4558 235.638,-709.5837 231.1974,-709.5837 231.1974,-709.5837 235.638,-709.5837 240.7409,-712.4558 242.1489,-714.0742 240.6944,-715.8339 235.94,-718.6355 230.3285,-718.6355 224.8785,-715.4855 235.1074,-869.0671 219.4388,-861.3784 208.4055,-856.2202 77.7263,-801.2513 19.4954,-728.013 19.4611,-726.6914 18.68,-708.091 15.6945,-667.7118 51.7876,-610.3104 9.8728,-456.0201 4.0789,-436.5721 .7553,-426.2947 -51.662,-386.9737 -72.5177,-327.148 -90.9763,-277.9996 -104.4966,-246.0943 26.3655,-221.386 36.8121,-219.8042 46.9233,-218.6564 50.3543,-218.5269 53.4796,-218.5267 58.9551,-218.3252 65.733,-218.5876 66.0506,-218.6241 73.6071,-218.9324 73.6071,-218.9324"/>
<polygon fill="#bbd7d9" stroke="#bbd7d9" points="288.0136,-111.8304 286.9922,-175.2332 286.1994,-188.0132 303.3826,-183.6858 328.0504,-178.5051 334.5589,-176.8542 343.7681,-173.7081 348.8224,-171.7598 362.7987,-165.7583 373.2501,-159.9244 388.3084,-150.2047 383.1692,-135.7147 393.2106,-79.7659 394.7913,-65.4202 396.2997,-57.3357 396.8403,-52.4846 397.3647,-38.6199 420.6663,91.2122 349.9128,124.4531 337.6135,130.7218 319.5964,148.8815 240.4963,134.0114 221.6364,131.1583 212.6063,130.1268 212.4856,130.1153 210.9214,129.9943 194.9241,129.3461 184.1809,129.307 107.9003,90.4937 47.2191,12.6237 33.5913,10.0593 -.7676,5.4977 -112.7384,-90.2196 -116.5611,-93.3482 -117.2568,-167.9921 -120.0729,-223.37 -119.3229,-232.7488 -104.4966,-246.0943 26.3655,-221.386 36.8121,-219.8042 46.9233,-218.6564 50.3543,-218.5269 51.4449,-144.9066 56.2602,-146.3049 56.2602,-146.3049 51.4449,-144.9066 50.3543,-218.5269 53.4796,-218.5267 58.9551,-218.3252 65.733,-218.5876 66.0506,-218.6241 73.6071,-218.9324 74.1852,-218.9346 77.5921,-218.8226 83.6741,-218.8528 87.0049,-218.624 88.9152,-218.5652 97.7301,-217.9691 110.8629,-216.1124 112.9529,-215.7408 147.0028,-181.5368 176.2722,-182.1516 186.5301,-181.9393 187.7849,-181.9642 188.1378,-181.9418 199.1148,-182.1369 200.1043,-182.1948 205.1756,-182.0673 208.1277,-182.113 209.0905,-182.167 213.1092,-182.2247 213.4379,-182.202 224.5319,-182.3371 225.3153,-182.314 226.6718,-182.2171 232.2742,-182.2728 236.721,-182.1315 237.8426,-182.1414 239.3884,-182.2807 240.491,-182.3339 252.6037,-182.4139 252.6293,-178.624 254.2979,-145.175 252.5492,-111.5431 249.7409,-111.5431 247.9712,-109.6659 243.7797,-107.4535 243.7797,-107.4535 247.9712,-109.6659 249.7409,-111.5431 252.5492,-111.5431 254.2979,-145.175 252.6293,-178.624 252.6037,-182.4139 266.03,-184.1402 278.0235,-186.6557 284.0334,-188.3989 284.5374,-188.5654 286.1994,-188.0132 286.9922,-175.2332 288.0136,-111.8304 283.282,-111.8304 281.6669,-75.8849 286.2323,-77.4613 292.8636,-79.0482 298.1111,-79.7349 303.9555,-79.866 310.4409,-80.7519 308.8676,-49.5866 311.186,-47.8397 314.1083,-47.8397 315.569,-82.0305 319.4684,-83.4385 319.7956,-48.9098 325.1794,-52.2098 330.4865,-52.2098 334.9782,-49.6233 336.4936,-47.8049 335.6087,-46.7424 329.7472,-43.1859 325.4735,-43.1859 325.4735,-43.1859 329.7472,-43.1859 335.6087,-46.7424 336.4936,-47.8049 334.9782,-49.6233 330.4865,-52.2098 325.1794,-52.2098 319.7956,-48.9098 319.4684,-83.4385 315.569,-82.0305 314.1083,-47.8397 311.186,-47.8397 308.8676,-49.5866 310.4409,-80.7519 303.9555,-79.866 298.1111,-79.7349 292.8636,-79.0482 286.2323,-77.4613 281.6669,-75.8849 283.282,-111.8304 288.0136,-111.8304 288.0136,-111.8304"/>
<polygon fill="#d8d6da" stroke="#d8d6da" points="1125.6416,-347.1657 1122.6414,-282.8966 1120.91,-258.65 1120.9668,-229.027 1117.4344,-153.3631 1203.7192,-101.6286 1212.661,-98.7482 1249.6512,-95.3675 1258.3038,-94.2722 1266.0795,-93.0137 1282.6064,-89.7539 1284.4933,-89.3155 1295.4702,-80.2078 1391.8149,-50.9033 1397.4182,-49.899 1415.4869,-46.2909 1435.3469,-41.1196 1435.692,-41.016 1449.3234,-36.369 1469.0328,-28.4483 1474.6719,-25.9574 1490.23,-18.4575 1494.1816,-16.3159 1496.9128,-16.5614 1497.4342,-47.3193 1497.4342,-47.3193 1496.9128,-16.5614 1523.8103,-18.1333 1653.8281,-151.0332 1663.5029,-176.018 1665.6565,-181.0101 1679.2577,-196.5189 1688.8768,-199.7605 1699.766,-203.2339 1712.2001,-206.5276 1846.1099,-290.4107 1837.6836,-368.36 1833.8844,-464.2599 1717.7769,-520.2847 1703.2169,-519.1155 1703.1051,-374.8369 1703.1051,-374.8369 1703.2169,-519.1155 1695.7656,-518.6542 1691.7999,-518.5546 1686.7726,-516.6698 1682.6635,-515.2159 1680.3466,-405.1981 1680.3466,-405.1981 1682.6635,-515.2159 1674.8772,-512.7865 1659.968,-508.447 1662.4321,-432.2173 1667.1659,-372.8219 1671.8226,-370.2347 1673.4351,-368.4215 1672.1444,-366.9505 1672.1444,-366.9505 1673.4351,-368.4215 1671.8226,-370.2347 1667.1659,-372.8219 1661.5385,-372.8219 1656.9265,-370.1641 1656.9265,-370.1641 1661.5385,-372.8219 1667.1659,-372.8219 1662.4321,-432.2173 1659.968,-508.447 1649.8809,-505.9395 1649.6525,-482.3531 1646.0842,-421.8951 1639.8475,-368.6507 1636.0929,-368.6507 1635.6394,-368.5168 1631.703,-368.5168 1630.2091,-365.9483 1625.2208,-362.1124 1627.6316,-272.5018 1603.2758,-300.0853 1549.6443,-294.9345 1538.0584,-297.6514 1534.0822,-295.3581 1530.3298,-315.0754 1526.689,-291.461 1523.1038,-291.461 1522.4313,-291.2669 1517.635,-291.2669 1516.8722,-291.0503 1516.7969,-290.9417 1512.5985,-287.5103 1512.2213,-238.5551 1522.2277,-237.3375 1525.0541,-236.8267 1526.7373,-236.4231 1528.7196,-235.8286 1541.5498,-231.1886 1607.8959,-203.3174 1502.3018,-192.7087 1497.634,-188.159 1496.3446,-187.6489 1495.7791,-187.2011 1492.7771,-187.2011 1492.2462,-187.0495 1492.2462,-187.0495 1492.7771,-187.2011 1495.7791,-187.2011 1496.3446,-187.6489 1497.634,-188.159 1502.3018,-192.7087 1607.8959,-203.3174 1541.5498,-231.1886 1528.7196,-235.8286 1526.7373,-236.4231 1525.0541,-236.8267 1522.2277,-237.3375 1512.2213,-238.5551 1512.5985,-287.5103 1516.7969,-290.9417 1516.8722,-291.0503 1517.635,-291.2669 1522.4313,-291.2669 1523.1038,-291.461 1526.689,-291.461 1530.3298,-315.0754 1534.0822,-295.3581 1538.0584,-297.6514 1549.6443,-294.9345 1603.2758,-300.0853 1627.6316,-272.5018 1625.2208,-362.1124 1630.2091,-365.9483 1631.703,-368.5168 1635.6394,-368.5168 1636.0929,-368.6507 1639.8475,-368.6507 1646.0842,-421.8951 1649.6525,-482.3531 1649.8809,-505.9395 1629.6179,-502.606 1628.4661,-502.4409 1587.1592,-498.259 1502.1815,-475.6689 1489.3232,-454.0611 1489.0875,-453.9345 1465.7985,-441.924 1364.3019,-391.8975 1313.2047,-398.9853 1311.1517,-399.3065 1308.51,-399.7669 1308.0776,-399.8577 1293.2983,-403.2308 1287.7815,-401.5083 1278.1609,-398.8624 1267.4747,-396.3203 1272.7943,-247.0367 1272.8718,-247.0157 1276.9594,-250.3274 1276.9594,-250.3274 1272.8718,-247.0157 1272.7943,-247.0367 1267.4747,-396.3203 1267.4717,-396.3196 1263.5425,-395.5308 1261.0225,-295.0273 1261.0225,-295.0273 1263.5425,-395.5308 1246.4611,-392.731 1184.9435,-384.9329 1125.6416,-347.1657 1125.6416,-347.1657"/>
<polyline fill="none" stroke="#000000" points="756.1399,-475.913 740.4294,-482.3868 696.362,-502.3835 686.4955,-546.8869 743.6003,-667.8243 741.6072,-677.3921 734.3777,-716.5862 728.172,-762.6912 699.1539,-821.236 619.8003,-869.5178 609.7418,-871.698 606.5771,-870.4762 597.3981,-867.2611 587.5832,-863.9996 573.2366,-860.2582 564.8301,-858.2167 553.9005,-856.1501 540.0761,-853.7842 537.9133,-853.4922 471.2254,-845.6854 465.5832,-842.9059 400.4943,-794.0847 398.2226,-733.6088 397.0745,-714.3 397.1277,-705.1307 396.6099,-672.6775 395.8063,-651.2851 403.8717,-643.5978 405.5048,-516.6927 405.0488,-507.9503 406.1828,-493.6578 405.6909,-484.2321 406.3943,-429.5702 419.7116,-423.9038 427.7655,-403.1558 438.425,-370.8976 442.0393,-352.5713 451.1297,-324.9661 467.684,-282.3199 494.1029,-256.5639 494.4359,-256.2558 501.5795,-248.9984 501.6961,-248.8909 504.3471,-246.3391 504.8677,-245.8159 515.8586,-234.2881 515.3265,-210.5251 517.5477,-208.3845 638.7949,-86.2702 660.4389,-91.6182 662.6265,-92.0752 678.2081,-94.7409 692.8396,-96.686 704.9998,-97.8369 709.3762,-98.0004 776.7298,-99.2327 797.5825,-110.7161 838.0515,-137.3188 935.6169,-111.4385 955.7671,-105.7081 963.7849,-103.1288 965.9202,-102.3618 970.5837,-101.0534 984.2426,-96.7285 989.3134,-99.2662 999.7979,-103.8853 1117.4344,-153.3631 1120.9668,-229.027 1120.91,-258.65 1122.6414,-282.8966 1125.6416,-347.1657 1001.197,-399.6822 984.8715,-406.9323 983.9933,-406.8924 970.2678,-407.2365 960.7544,-407.8109 953.6038,-408.3687 936.661,-410.2884 924.8719,-411.8302 918.342,-411.7761 861.8436,-449.5426 791.3621,-465.2898 777.4619,-468.9809 774.017,-470.0398 756.1399,-475.913 "/>
<polyline fill="none" stroke="#000000" points="348.8224,-171.7598 343.7681,-173.7081 334.5589,-176.8542 328.0504,-178.5051 303.3826,-183.6858 286.1994,-188.0132 284.5374,-188.5654 284.0334,-188.3989 278.0235,-186.6557 266.03,-184.1402 252.6037,-182.4139 240.491,-182.3339 239.3884,-182.2807 237.8426,-182.1414 236.721,-182.1315 232.2742,-182.2728 226.6718,-182.2171 225.3153,-182.314 224.5319,-182.3371 213.4379,-182.202 213.1092,-182.2247 209.0905,-182.167 208.1277,-182.113 205.1756,-182.0673 200.1043,-182.1948 199.1148,-182.1369 188.1378,-181.9418 187.7849,-181.9642 186.5301,-181.9393 176.2722,-182.1516 147.0028,-181.5368 112.9529,-215.7408 110.8629,-216.1124 97.7301,-217.9691 88.9152,-218.5652 87.0049,-218.624 83.6741,-218.8528 77.5921,-218.8226 74.1852,-218.9346 73.6071,-218.9324 66.0506,-218.6241 65.733,-218.5876 58.9551,-218.3252 53.4796,-218.5267 50.3543,-218.5269 46.9233,-218.6564 36.8121,-219.8042 26.3655,-221.386 -104.4966,-246.0943 -90.9763,-277.9996 -72.5177,-327.148 -51.662,-386.9737 .7553,-426.2947 4.0789,-436.5721 9.8728,-456.0201 51.7876,-610.3104 15.6945,-667.7118 18.68,-708.091 19.4611,-726.6914 19.4954,-728.013 77.7263,-801.2513 208.4055,-856.2202 219.4388,-861.3784 235.1074,-869.0671 235.6295,-869.335 236.1051,-869.6008 236.8143,-869.214 256.7199,-859.2598 259.3408,-858.0112 400.4943,-794.0847 398.2226,-733.6088 397.0745,-714.3 397.1277,-705.1307 396.6099,-672.6775 395.8063,-651.2851 403.8717,-643.5978 405.5048,-516.6927 405.0488,-507.9503 406.1828,-493.6578 405.6909,-484.2321 406.3943,-429.5702 419.7116,-423.9038 427.7655,-403.1558 438.425,-370.8976 442.0393,-352.5713 451.1297,-324.9661 467.684,-282.3199 494.1029,-256.5639 494.4359,-256.2558 501.5795,-248.9984 501.6961,-248.8909 504.3471,-246.3391 504.8677,-245.8159 515.8586,-234.2881 515.3265,-210.5251 517.5477,-208.3845 638.7949,-86.2702 633.1459,-74.2841 619.5449,-41.8467 594.0787,23.2395 506.1645,87.0294 497.5041,86.5179 483.2911,85.9392 474.2413,85.7372 468.5491,85.9237 461.5916,86.4079 442.5139,88.0873 420.6663,91.2122 397.3647,-38.6199 396.8403,-52.4846 396.2997,-57.3357 394.7913,-65.4202 393.2106,-79.7659 383.1692,-135.7147 388.3084,-150.2047 373.2501,-159.9244 362.7987,-165.7583 348.8224,-171.7598 "/>
<polyline fill="none" stroke="#000000" points="212.6063,130.1268 212.4856,130.1153 210.9214,129.9943 194.9241,129.3461 184.1809,129.307 107.9003,90.4937 47.2191,12.6237 33.5913,10.0593 -.7676,5.4977 -112.7384,-90.2196 -116.5611,-93.3482 -117.2568,-167.9921 -120.0729,-223.37 -119.3229,-232.7488 -104.4966,-246.0943 26.3655,-221.386 36.8121,-219.8042 46.9233,-218.6564 50.3543,-218.5269 53.4796,-218.5267 58.9551,-218.3252 65.733,-218.5876 66.0506,-218.6241 73.6071,-218.9324 74.1852,-218.9346 77.5921,-218.8226 83.6741,-218.8528 87.0049,-218.624 88.9152,-218.5652 97.7301,-217.9691 110.8629,-216.1124 112.9529,-215.7408 147.0028,-181.5368 176.2722,-182.1516 186.5301,-181.9393 187.7849,-181.9642 188.1378,-181.9418 199.1148,-182.1369 200.1043,-182.1948 205.1756,-182.0673 208.1277,-182.113 209.0905,-182.167 213.1092,-182.2247 213.4379,-182.202 224.5319,-182.3371 225.3153,-182.314 226.6718,-182.2171 232.2742,-182.2728 236.721,-182.1315 237.8426,-182.1414 239.3884,-182.2807 240.491,-182.3339 252.6037,-182.4139 266.03,-184.1402 278.0235,-186.6557 284.0334,-188.3989 284.5374,-188.5654 286.1994,-188.0132 303.3826,-183.6858 328.0504,-178.5051 334.5589,-176.8542 343.7681,-173.7081 348.8224,-171.7598 362.7987,-165.7583 373.2501,-159.9244 388.3084,-150.2047 383.1692,-135.7147 393.2106,-79.7659 394.7913,-65.4202 396.2997,-57.3357 396.8403,-52.4846 397.3647,-38.6199 420.6663,91.2122 349.9128,124.4531 337.6135,130.7218 319.5964,148.8815 240.4963,134.0114 221.6364,131.1583 212.6063,130.1268 "/>
<polyline fill="none" stroke="#000000" points="1449.3234,-36.369 1435.692,-41.016 1435.3469,-41.1196 1415.4869,-46.2909 1397.4182,-49.899 1391.8149,-50.9033 1295.4702,-80.2078 1284.4933,-89.3155 1282.6064,-89.7539 1266.0795,-93.0137 1258.3038,-94.2722 1249.6512,-95.3675 1212.661,-98.7482 1203.7192,-101.6286 1117.4344,-153.3631 1120.9668,-229.027 1120.91,-258.65 1122.6414,-282.8966 1125.6416,-347.1657 1184.9435,-384.9329 1246.4611,-392.731 1263.5425,-395.5308 1267.4717,-396.3196 1267.4747,-396.3203 1278.1609,-398.8624 1287.7815,-401.5083 1293.2983,-403.2308 1308.0776,-399.8577 1308.51,-399.7669 1311.1517,-399.3065 1313.2047,-398.9853 1364.3019,-391.8975 1465.7985,-441.924 1489.0875,-453.9345 1489.3232,-454.0611 1502.1815,-475.6689 1587.1592,-498.259 1628.4661,-502.4409 1629.6179,-502.606 1649.8809,-505.9395 1659.968,-508.447 1674.8772,-512.7865 1682.6635,-515.2159 1686.7726,-516.6698 1691.7999,-518.5546 1695.7656,-518.6542 1703.2169,-519.1155 1717.7769,-520.2847 1833.8844,-464.2599 1837.6836,-368.36 1846.1099,-290.4107 1712.2001,-206.5276 1699.766,-203.2339 1688.8768,-199.7605 1679.2577,-196.5189 1665.6565,-181.0101 1663.5029,-176.018 1653.8281,-151.0332 1523.8103,-18.1333 1496.9128,-16.5614 1494.1816,-16.3159 1490.23,-18.4575 1474.6719,-25.9574 1469.0328,-28.4483 1449.3234,-36.369 "/>
<!-- filesystem&#45;&gt;setup -->
<g id="edge1" class="edge">
<title>filesystem&#45;&gt;setup</title>
<path fill="none" stroke="#444444" stroke-opacity="0.333333" d="M820.4328,-307.849C847.1814,-299.1185 879.4579,-288.5838 907.27,-279.5062"/>
<polygon fill="#444444" fill-opacity="0.333333" stroke="#444444" stroke-opacity="0.333333" points="908.4845,-282.7916 916.905,-276.3615 906.3125,-276.1371 908.4845,-282.7916"/>
</g>
<!-- filesystem&#45;&gt;bash -->
<g id="edge2" class="edge">
<title>filesystem&#45;&gt;bash</title>
<path fill="none" stroke="#444444" stroke-opacity="0.333333" d="M708.0421,-332.3706C666.9022,-339.8773 611.6012,-351.7757 570.1363,-362.0211"/>
<polygon fill="#444444" fill-opacity="0.333333" stroke="#444444" stroke-opacity="0.333333" points="569.0259,-358.6911 560.1775,-364.5182 570.7285,-365.4809 569.0259,-358.6911"/>
</g>
<!-- setup&#45;&gt;fedora&#45;release -->
<g id="edge3" class="edge">
<title>setup&#45;&gt;fedora&#45;release</title>
<path fill="none" stroke="#444444" stroke-opacity="0.333333" d="M1025.3821,-256.6416C1072.3551,-254.9014 1141.1615,-252.3524 1195.7633,-250.3296"/>
<polygon fill="#444444" fill-opacity="0.333333" stroke="#444444" stroke-opacity="0.333333" points="1195.9214,-253.8262 1205.7849,-249.9583 1195.6622,-246.831 1195.9214,-253.8262"/>
</g>
<!-- bash&#45;&gt;filesystem -->
<g id="edge23" class="edge">
<title>bash&#45;&gt;filesystem</title>
<path fill="none" stroke="#444444" stroke-opacity="0.333333" d="M560.0622,-375.6868C599.5168,-368.7555 655.5557,-356.8753 699.1044,-346.3235"/>
<polygon fill="#444444" fill-opacity="0.333333" stroke="#444444" stroke-opacity="0.333333" points="700.1626,-349.6678 709.04,-343.8849 698.4939,-342.8695 700.1626,-349.6678"/>
</g>
<!-- bash&#45;&gt;glibc -->
<g id="edge24" class="edge">
<title>bash&#45;&gt;glibc</title>
<path fill="none" stroke="#444444" stroke-opacity="0.333333" d="M489.0309,-362.4199C461.1942,-339.8248 413.6457,-301.2295 382.6205,-276.0463"/>
<polygon fill="#444444" fill-opacity="0.333333" stroke="#444444" stroke-opacity="0.333333" points="384.6948,-273.2221 374.7249,-269.6374 380.2833,-278.6571 384.6948,-273.2221"/>
</g>
<!-- bash&#45;&gt;ncurses&#45;libs -->
<g id="edge25" class="edge">
<title>bash&#45;&gt;ncurses&#45;libs</title>
<path fill="none" stroke="#444444" stroke-opacity="0.333333" d="M508.0062,-398.711C504.202,-418.4336 498.0614,-450.2688 493.6292,-473.2467"/>
<polygon fill="#444444" fill-opacity="0.333333" stroke="#444444" stroke-opacity="0.333333" points="490.185,-472.6236 491.7276,-483.1055 497.0583,-473.9494 490.185,-472.6236"/>
</g>
<!-- fedora&#45;release&#45;&gt;fedora&#45;release&#45;common -->
<g id="edge20" class="edge">
<title>fedora&#45;release&#45;&gt;fedora&#45;release&#45;common</title>
<path fill="none" stroke="#444444" stroke-opacity="0.333333" d="M1358.9209,-234.4714C1381.5586,-227.089 1405.0722,-218.0646 1423.0947,-209.6269"/>
<polygon fill="#444444" fill-opacity="0.333333" stroke="#444444" stroke-opacity="0.333333" points="1425.0644,-212.5593 1432.5019,-205.0138 1421.9823,-206.2743 1425.0644,-212.5593"/>
</g>
<!-- glibc&#45;&gt;basesystem -->
<g id="edge4" class="edge">
<title>glibc&#45;&gt;basesystem</title>
<path fill="none" stroke="#444444" stroke-opacity="0.333333" d="M405.728,-249.5495C461.6443,-247.5051 549.8472,-244.2802 612.0227,-242.007"/>
<polygon fill="#444444" fill-opacity="0.333333" stroke="#444444" stroke-opacity="0.333333" points="612.2892,-245.4997 622.1546,-241.6365 612.0334,-238.5043 612.2892,-245.4997"/>
</g>
<!-- glibc&#45;&gt;glibc&#45;common -->
<g id="edge5" class="edge">
<title>glibc&#45;&gt;glibc&#45;common</title>
<path fill="none" stroke="#444444" stroke-opacity="0.333333" d="M346.2755,-269.7116C337.0815,-312.675 323.2268,-420.5766 320.0528,-471.997"/>
<polygon fill="#444444" fill-opacity="0.333333" stroke="#444444" stroke-opacity="0.333333" points="316.5531,-471.9044 319.5432,-482.0685 323.5442,-472.2582 316.5531,-471.9044"/>
</g>
<!-- glibc&#45;&gt;glibc&#45;minimal&#45;langpack -->
<g id="edge6" class="edge">
<title>glibc&#45;&gt;glibc&#45;minimal&#45;langpack</title>
<path fill="none" stroke="#444444" stroke-opacity="0.333333" d="M332.8344,-269.526C303.4138,-302.6583 248.826,-373.0966 222.4517,-411.8233"/>
<polygon fill="#444444" fill-opacity="0.333333" stroke="#444444" stroke-opacity="0.333333" points="219.3097,-410.227 216.6801,-420.4903 225.1361,-414.107 219.3097,-410.227"/>
</g>
<!-- glibc&#45;&gt;libgcc -->
<g id="edge7" class="edge">
<title>glibc&#45;&gt;libgcc</title>
<path fill="none" stroke="#444444" stroke-opacity="0.333333" d="M363.3079,-233.4184C383.4754,-200.0489 426.6308,-128.6431 450.1891,-89.6632"/>
<polygon fill="#444444" fill-opacity="0.333333" stroke="#444444" stroke-opacity="0.333333" points="453.2781,-91.3186 455.4552,-80.9498 447.2873,-87.6979 453.2781,-91.3186"/>
</g>
<!-- basesystem&#45;&gt;filesystem -->
<g id="edge26" class="edge">
<title>basesystem&#45;&gt;filesystem</title>
<path fill="none" stroke="#444444" stroke-opacity="0.333333" d="M701.562,-257.7044C713.1061,-270.0583 728.4932,-286.5249 741.2511,-300.1776"/>
<polygon fill="#444444" fill-opacity="0.333333" stroke="#444444" stroke-opacity="0.333333" points="739.0251,-302.9218 748.4099,-307.8386 744.1396,-298.1425 739.0251,-302.9218"/>
</g>
<!-- basesystem&#45;&gt;setup -->
<g id="edge27" class="edge">
<title>basesystem&#45;&gt;setup</title>
<path fill="none" stroke="#444444" stroke-opacity="0.333333" d="M746.6405,-243.5456C793.9055,-246.7252 858.7152,-251.085 906.5586,-254.3035"/>
<polygon fill="#444444" fill-opacity="0.333333" stroke="#444444" stroke-opacity="0.333333" points="906.5901,-257.8135 916.8025,-254.9926 907.06,-250.8292 906.5901,-257.8135"/>
</g>
<!-- glibc&#45;common&#45;&gt;bash -->
<g id="edge29" class="edge">
<title>glibc&#45;common&#45;&gt;bash</title>
<path fill="none" stroke="#444444" stroke-opacity="0.333333" d="M349.9059,-481.9496C383.0134,-461.194 437.3398,-427.1359 473.7481,-404.311"/>
<polygon fill="#444444" fill-opacity="0.333333" stroke="#444444" stroke-opacity="0.333333" points="475.981,-407.0422 482.5946,-398.765 472.2628,-401.1113 475.981,-407.0422"/>
</g>
<!-- glibc&#45;common&#45;&gt;glibc -->
<g id="edge28" class="edge">
<title>glibc&#45;common&#45;&gt;glibc</title>
<path fill="none" stroke="#444444" stroke-opacity="0.333333" d="M327.0745,-481.8784C336.2685,-438.915 350.1232,-331.0134 353.2972,-279.593"/>
<polygon fill="#444444" fill-opacity="0.333333" stroke="#444444" stroke-opacity="0.333333" points="356.7969,-279.6856 353.8068,-269.5215 349.8058,-279.3318 356.7969,-279.6856"/>
</g>
<!-- glibc&#45;common&#45;&gt;tzdata -->
<g id="edge30" class="edge">
<title>glibc&#45;common&#45;&gt;tzdata</title>
<path fill="none" stroke="#444444" stroke-opacity="0.333333" d="M313.4876,-518.3534C298.0731,-555.9781 262.7008,-642.3171 244.4938,-686.7578"/>
<polygon fill="#444444" fill-opacity="0.333333" stroke="#444444" stroke-opacity="0.333333" points="241.2258,-685.5024 240.6734,-696.0828 247.7033,-688.1562 241.2258,-685.5024"/>
</g>
<!-- glibc&#45;minimal&#45;langpack&#45;&gt;glibc -->
<g id="edge31" class="edge">
<title>glibc&#45;minimal&#45;langpack&#45;&gt;glibc</title>
<path fill="none" stroke="#444444" stroke-opacity="0.333333" d="M227.2156,-420.574C256.6362,-387.4417 311.224,-317.0034 337.5983,-278.2767"/>
<polygon fill="#444444" fill-opacity="0.333333" stroke="#444444" stroke-opacity="0.333333" points="340.7403,-279.873 343.3699,-269.6097 334.9139,-275.993 340.7403,-279.873"/>
</g>
<!-- glibc&#45;minimal&#45;langpack&#45;&gt;glibc&#45;common -->
<g id="edge32" class="edge">
<title>glibc&#45;minimal&#45;langpack&#45;&gt;glibc&#45;common</title>
<path fill="none" stroke="#444444" stroke-opacity="0.333333" d="M241.0509,-456.7164C252.8167,-463.102 266.2033,-470.3671 278.6113,-477.1012"/>
<polygon fill="#444444" fill-opacity="0.333333" stroke="#444444" stroke-opacity="0.333333" points="276.9776,-480.1967 287.4361,-481.8906 280.3166,-474.0444 276.9776,-480.1967"/>
</g>
<!-- ncurses&#45;libs&#45;&gt;glibc -->
<g id="edge8" class="edge">
<title>ncurses&#45;libs&#45;&gt;glibc</title>
<path fill="none" stroke="#444444" stroke-opacity="0.333333" d="M478.2314,-482.9223C454.5246,-439.3291 394.7769,-329.4617 366.9989,-278.382"/>
<polygon fill="#444444" fill-opacity="0.333333" stroke="#444444" stroke-opacity="0.333333" points="370.0523,-276.6706 362.2001,-269.5577 363.9028,-280.0148 370.0523,-276.6706"/>
</g>
<!-- ncurses&#45;libs&#45;&gt;ncurses&#45;base -->
<g id="edge9" class="edge">
<title>ncurses&#45;libs&#45;&gt;ncurses&#45;base</title>
<path fill="none" stroke="#444444" stroke-opacity="0.333333" d="M495.9221,-519.6276C510.9217,-555.3393 544.1231,-634.3867 561.7697,-676.4006"/>
<polygon fill="#444444" fill-opacity="0.333333" stroke="#444444" stroke-opacity="0.333333" points="558.5971,-677.8854 565.6966,-685.7498 565.051,-675.1746 558.5971,-677.8854"/>
</g>
<!-- libacl&#45;&gt;glibc -->
<g id="edge10" class="edge">
<title>libacl&#45;&gt;glibc</title>
<path fill="none" stroke="#444444" stroke-opacity="0.333333" d="M226.7844,-36.3224C250.6695,-77.2436 308.453,-176.2416 336.5339,-224.3516"/>
<polygon fill="#444444" fill-opacity="0.333333" stroke="#444444" stroke-opacity="0.333333" points="333.6714,-226.3906 341.7352,-233.2628 339.717,-222.8619 333.6714,-226.3906"/>
</g>
<!-- libacl&#45;&gt;libattr -->
<g id="edge11" class="edge">
<title>libacl&#45;&gt;libattr</title>
<path fill="none" stroke="#444444" stroke-opacity="0.333333" d="M267.2759,-31.6799C267.4334,-31.722 267.5909,-31.764 267.7484,-31.8061"/>
<polygon fill="#444444" fill-opacity="0.333333" stroke="#444444" stroke-opacity="0.333333" points="264.2856,-34.5034 274.8503,-33.7042 266.0931,-27.7408 264.2856,-34.5034"/>
</g>
<!-- libattr&#45;&gt;glibc -->
<g id="edge12" class="edge">
<title>libattr&#45;&gt;glibc</title>
<path fill="none" stroke="#444444" stroke-opacity="0.333333" d="M329.7991,-65.8788C334.1341,-101.5141 343.8096,-181.0489 348.9756,-223.5151"/>
<polygon fill="#444444" fill-opacity="0.333333" stroke="#444444" stroke-opacity="0.333333" points="345.5038,-223.9595 350.1859,-233.4637 352.4526,-223.1142 345.5038,-223.9595"/>
</g>
<!-- libcap&#45;&gt;glibc -->
<g id="edge13" class="edge">
<title>libcap&#45;&gt;glibc</title>
<path fill="none" stroke="#444444" stroke-opacity="0.333333" d="M105.0272,-159.608C156.8383,-178.8559 238.9268,-209.3519 294.177,-229.8775"/>
<polygon fill="#444444" fill-opacity="0.333333" stroke="#444444" stroke-opacity="0.333333" points="293.2333,-233.2606 303.8263,-233.4622 295.6711,-226.6987 293.2333,-233.2606"/>
</g>
<!-- libselinux&#45;&gt;glibc -->
<g id="edge14" class="edge">
<title>libselinux&#45;&gt;glibc</title>
<path fill="none" stroke="#444444" stroke-opacity="0.333333" d="M278.2217,-252.1053C281.7068,-252.0769 285.204,-252.0483 288.6792,-252.02"/>
<polygon fill="#444444" fill-opacity="0.333333" stroke="#444444" stroke-opacity="0.333333" points="289.033,-255.5173 299.0041,-251.9357 288.9758,-248.5175 289.033,-255.5173"/>
</g>
<!-- libselinux&#45;&gt;libsepol -->
<g id="edge15" class="edge">
<title>libselinux&#45;&gt;libsepol</title>
<path fill="none" stroke="#444444" stroke-opacity="0.333333" d="M241.3208,-270.7097C264.9996,-285.0449 298.2785,-305.1921 323.9689,-320.7452"/>
<polygon fill="#444444" fill-opacity="0.333333" stroke="#444444" stroke-opacity="0.333333" points="322.3441,-323.853 332.7112,-326.0378 325.9694,-317.8648 322.3441,-323.853"/>
</g>
<!-- libselinux&#45;&gt;pcre2 -->
<g id="edge16" class="edge">
<title>libselinux&#45;&gt;pcre2</title>
<path fill="none" stroke="#444444" stroke-opacity="0.333333" d="M156.7136,-270.7528C153.0995,-271.9472 149.4421,-273.1559 145.7876,-274.3637"/>
<polygon fill="#444444" fill-opacity="0.333333" stroke="#444444" stroke-opacity="0.333333" points="144.5487,-271.0869 136.1521,-277.5481 146.7453,-277.7333 144.5487,-271.0869"/>
</g>
<!-- libsepol&#45;&gt;bash -->
<g id="edge34" class="edge">
<title>libsepol&#45;&gt;bash</title>
<path fill="none" stroke="#444444" stroke-opacity="0.333333" d="M423.518,-359.0481C433.1816,-361.4211 443.1579,-363.8708 452.7671,-366.2304"/>
<polygon fill="#444444" fill-opacity="0.333333" stroke="#444444" stroke-opacity="0.333333" points="452.0734,-369.6639 462.6196,-368.6497 453.7427,-362.8659 452.0734,-369.6639"/>
</g>
<!-- libsepol&#45;&gt;glibc -->
<g id="edge33" class="edge">
<title>libsepol&#45;&gt;glibc</title>
<path fill="none" stroke="#444444" stroke-opacity="0.333333" d="M360.4846,-325.7731C359.0597,-312.7154 357.1152,-294.8955 355.4881,-279.9835"/>
<polygon fill="#444444" fill-opacity="0.333333" stroke="#444444" stroke-opacity="0.333333" points="358.9355,-279.3102 354.3713,-269.7489 351.9768,-280.0696 358.9355,-279.3102"/>
</g>
<!-- pcre2&#45;&gt;glibc -->
<g id="edge35" class="edge">
<title>pcre2&#45;&gt;glibc</title>
<path fill="none" stroke="#444444" stroke-opacity="0.333333" d="M136.5945,-286.6464C180.848,-279.4386 242.997,-269.316 289.2383,-261.7843"/>
<polygon fill="#444444" fill-opacity="0.333333" stroke="#444444" stroke-opacity="0.333333" points="289.8397,-265.2326 299.1469,-260.1704 288.7143,-258.3236 289.8397,-265.2326"/>
</g>
<!-- fedora&#45;release&#45;common&#45;&gt;fedora&#45;release -->
<g id="edge17" class="edge">
<title>fedora&#45;release&#45;common&#45;&gt;fedora&#45;release</title>
<path fill="none" stroke="#444444" stroke-opacity="0.333333" d="M1361.8276,-205.016C1344.2725,-211.2222 1327.0789,-218.1006 1313.1913,-224.6203"/>
<polygon fill="#444444" fill-opacity="0.333333" stroke="#444444" stroke-opacity="0.333333" points="1311.5748,-221.5148 1304.1411,-229.064 1314.6601,-227.7982 1311.5748,-221.5148"/>
</g>
<!-- fedora&#45;release&#45;common&#45;&gt;fedora&#45;release -->
<g id="edge18" class="edge">
<title>fedora&#45;release&#45;common&#45;&gt;fedora&#45;release</title>
<path fill="none" stroke="#444444" stroke-dasharray="5,2" stroke-opacity="0.333333" d="M1402.6543,-205.024C1384.0528,-211.5356 1362.878,-218.948 1343.5351,-225.7192"/>
<polygon fill="#444444" fill-opacity="0.333333" stroke="#444444" stroke-opacity="0.333333" points="1342.1913,-222.4812 1333.9093,-229.0888 1344.5041,-229.0881 1342.1913,-222.4812"/>
</g>
<!-- fedora&#45;release&#45;common&#45;&gt;fedora&#45;repos -->
<g id="edge19" class="edge">
<title>fedora&#45;release&#45;common&#45;&gt;fedora&#45;repos</title>
<path fill="none" stroke="#444444" stroke-opacity="0.333333" d="M1463.4667,-205.125C1471.7311,-221.3074 1483.9493,-245.2316 1493.4042,-263.745"/>
<polygon fill="#444444" fill-opacity="0.333333" stroke="#444444" stroke-opacity="0.333333" points="1490.3956,-265.5495 1498.061,-272.8634 1496.6297,-262.3657 1490.3956,-265.5495"/>
</g>
<!-- fedora&#45;repos&#45;&gt;fedora&#45;release -->
<g id="edge21" class="edge">
<title>fedora&#45;repos&#45;&gt;fedora&#45;release</title>
<path fill="none" stroke="#444444" stroke-opacity="0.333333" d="M1439.282,-277.8201C1417.0998,-273.4792 1392.1759,-268.6019 1368.8359,-264.0346"/>
<polygon fill="#444444" fill-opacity="0.333333" stroke="#444444" stroke-opacity="0.333333" points="1369.4287,-260.5842 1358.9427,-262.0986 1368.0844,-267.4539 1369.4287,-260.5842"/>
</g>
<!-- fedora&#45;repos&#45;&gt;fedora&#45;gpg&#45;keys -->
<g id="edge22" class="edge">
<title>fedora&#45;repos&#45;&gt;fedora&#45;gpg&#45;keys</title>
<path fill="none" stroke="#444444" stroke-opacity="0.333333" d="M1544.1626,-309.2523C1566.2979,-320.152 1594.6714,-334.1234 1618.2747,-345.7459"/>
<polygon fill="#444444" fill-opacity="0.333333" stroke="#444444" stroke-opacity="0.333333" points="1616.8788,-348.9598 1627.3964,-350.2375 1619.9712,-342.6799 1616.8788,-348.9598"/>
</g>
<!-- coreutils&#45;single&#45;&gt;glibc -->
<g id="edge36" class="edge">
<title>coreutils&#45;single&#45;&gt;glibc</title>
<path fill="none" stroke="#444444" stroke-opacity="0.333333" d="M255.1872,-130.0546C274.6066,-154.3198 309.0433,-197.3495 331.28,-225.1349"/>
<polygon fill="#444444" fill-opacity="0.333333" stroke="#444444" stroke-opacity="0.333333" points="328.7781,-227.6103 337.7592,-233.2309 334.2434,-223.2364 328.7781,-227.6103"/>
</g>
<!-- coreutils&#45;single&#45;&gt;libacl -->
<g id="edge37" class="edge">
<title>coreutils&#45;single&#45;&gt;libacl</title>
<path fill="none" stroke="#444444" stroke-opacity="0.333333" d="M235.85,-93.7063C232.3279,-80.2123 227.4496,-61.5218 223.4213,-46.0885"/>
<polygon fill="#444444" fill-opacity="0.333333" stroke="#444444" stroke-opacity="0.333333" points="226.7076,-44.82 220.7955,-36.0281 219.9345,-46.5879 226.7076,-44.82"/>
</g>
<!-- coreutils&#45;single&#45;&gt;libattr -->
<g id="edge38" class="edge">
<title>coreutils&#45;single&#45;&gt;libattr</title>
<path fill="none" stroke="#444444" stroke-opacity="0.333333" d="M265.2765,-93.6248C274.3716,-86.9377 284.8242,-79.2525 294.5381,-72.1105"/>
<polygon fill="#444444" fill-opacity="0.333333" stroke="#444444" stroke-opacity="0.333333" points="296.8483,-74.7562 302.8317,-66.0127 292.7017,-69.1165 296.8483,-74.7562"/>
</g>
<!-- coreutils&#45;single&#45;&gt;libcap -->
<g id="edge39" class="edge">
<title>coreutils&#45;single&#45;&gt;libcap</title>
<path fill="none" stroke="#444444" stroke-opacity="0.333333" d="M129.2493,-129.8062C127.2051,-130.137 125.1742,-130.4657 123.1609,-130.7916"/>
<polygon fill="#444444" fill-opacity="0.333333" stroke="#444444" stroke-opacity="0.333333" points="122.5728,-127.3411 113.2604,-132.3939 123.6912,-134.2512 122.5728,-127.3411"/>
</g>
<!-- coreutils&#45;single&#45;&gt;libselinux -->
<g id="edge40" class="edge">
<title>coreutils&#45;single&#45;&gt;libselinux</title>
<path fill="none" stroke="#444444" stroke-opacity="0.333333" d="M236.8278,-129.9166C231.8766,-153.8996 223.0985,-196.4198 217.2861,-224.5744"/>
<polygon fill="#444444" fill-opacity="0.333333" stroke="#444444" stroke-opacity="0.333333" points="213.812,-224.0918 215.2178,-234.593 220.6674,-225.5071 213.812,-224.0918"/>
</g>
<!-- filesystem -->
<g id="node1" class="node">
<title>filesystem</title>
<text text-anchor="middle" x="765.25" y="-322.16" font-family="Helvetica,sans-Serif" font-weight="bold" font-size="14.00" fill="#000000">filesystem (0.0 B)</text>
</g>
<!-- setup -->
<g id="node2" class="node">
<title>setup</title>
<text text-anchor="middle" x="971.17" y="-254.95" font-family="Helvetica,sans-Serif" font-weight="bold" font-size="14.00" fill="#000000">setup (709.7 kB)</text>
</g>
<!-- bash -->
<g id="node3" class="node">
<title>bash</title>
<text text-anchor="middle" x="511.49" y="-376.95" font-family="Helvetica,sans-Serif" font-weight="bold" font-size="14.00" fill="#000000">bash (7.2 MB)</text>
</g>
<!-- fedora&#45;release -->
<g id="node4" class="node">
<title>fedora&#45;release</title>
<text text-anchor="middle" x="1282.4" y="-243.42" font-family="Helvetica,sans-Serif" font-weight="bold" font-size="14.00" fill="#000000">fedora&#45;release (691.0 B)</text>
</g>
<!-- glibc -->
<g id="node5" class="node">
<title>glibc</title>
<text text-anchor="middle" x="352.38" y="-247.8" font-family="Helvetica,sans-Serif" font-weight="bold" font-size="14.00" fill="#000000">glibc (16.5 MB)</text>
</g>
<!-- basesystem -->
<g id="node6" class="node">
<title>basesystem</title>
<text text-anchor="middle" x="684.42" y="-235.66" font-family="Helvetica,sans-Serif" font-weight="bold" font-size="14.00" fill="#000000">basesystem (0.0 B)</text>
</g>
<!-- glibc&#45;common -->
<g id="node7" class="node">
<title>glibc&#45;common</title>
<text text-anchor="middle" x="320.97" y="-496.39" font-family="Helvetica,sans-Serif" font-weight="bold" font-size="14.00" fill="#000000">glibc&#45;common (7.8 MB)</text>
</g>
<!-- glibc&#45;minimal&#45;langpack -->
<g id="node8" class="node">
<title>glibc&#45;minimal&#45;langpack</title>
<text text-anchor="middle" x="207.67" y="-433" font-family="Helvetica,sans-Serif" font-weight="bold" font-size="22.00" fill="#cc0066">glibc&#45;minimal&#45;langpack (0.0 B)</text>
</g>
<!-- libgcc -->
<g id="node9" class="node">
<title>libgcc</title>
<text text-anchor="middle" x="466.35" y="-59.223" font-family="Helvetica,sans-Serif" font-weight="bold" font-size="14.00" fill="#000000">libgcc (194.2 kB)</text>
</g>
<!-- ncurses&#45;libs -->
<g id="node10" class="node">
<title>ncurses&#45;libs</title>
<text text-anchor="middle" x="488.22" y="-497.59" font-family="Helvetica,sans-Serif" font-weight="bold" font-size="14.00" fill="#000000">ncurses&#45;libs (976.2 kB)</text>
</g>
<!-- ncurses&#45;base -->
<g id="node11" class="node">
<title>ncurses&#45;base</title>
<text text-anchor="middle" x="573.32" y="-700.2" font-family="Helvetica,sans-Serif" font-weight="bold" font-size="14.00" fill="#000000">ncurses&#45;base (278.5 kB)</text>
</g>
<!-- libacl -->
<g id="node12" class="node">
<title>libacl</title>
<text text-anchor="middle" x="216.09" y="-14.3" font-family="Helvetica,sans-Serif" font-weight="bold" font-size="14.00" fill="#000000">libacl (40.7 kB)</text>
</g>
<!-- libattr -->
<g id="node13" class="node">
<title>libattr</title>
<text text-anchor="middle" x="327.6" y="-44.102" font-family="Helvetica,sans-Serif" font-weight="bold" font-size="14.00" fill="#000000">libattr (29.0 kB)</text>
</g>
<!-- libcap -->
<g id="node14" class="node">
<title>libcap</title>
<text text-anchor="middle" x="56.5" y="-137.88" font-family="Helvetica,sans-Serif" font-weight="bold" font-size="14.00" fill="#000000">libcap (145.4 kB)</text>
</g>
<!-- libselinux -->
<g id="node15" class="node">
<title>libselinux</title>
<text text-anchor="middle" x="211.49" y="-248.95" font-family="Helvetica,sans-Serif" font-weight="bold" font-size="14.00" fill="#000000">libselinux (173.6 kB)</text>
</g>
<!-- libsepol -->
<g id="node16" class="node">
<title>libsepol</title>
<text text-anchor="middle" x="362.48" y="-340.36" font-family="Helvetica,sans-Serif" font-weight="bold" font-size="14.00" fill="#000000">libsepol (747.3 kB)</text>
</g>
<!-- pcre2 -->
<g id="node17" class="node">
<title>pcre2</title>
<text text-anchor="middle" x="81.439" y="-291.93" font-family="Helvetica,sans-Serif" font-weight="bold" font-size="14.00" fill="#000000">pcre2 (743.5 kB)</text>
</g>
<!-- fedora&#45;release&#45;common -->
<g id="node18" class="node">
<title>fedora&#45;release&#45;common</title>
<text text-anchor="middle" x="1454.2" y="-183.28" font-family="Helvetica,sans-Serif" font-weight="bold" font-size="14.00" fill="#000000">fedora&#45;release&#45;common (14.2 kB)</text>
</g>
<!-- fedora&#45;repos -->
<g id="node19" class="node">
<title>fedora&#45;repos</title>
<text text-anchor="middle" x="1507.4" y="-287.45" font-family="Helvetica,sans-Serif" font-weight="bold" font-size="14.00" fill="#000000">fedora&#45;repos (8.4 kB)</text>
</g>
<!-- fedora&#45;gpg&#45;keys -->
<g id="node20" class="node">
<title>fedora&#45;gpg&#45;keys</title>
<text text-anchor="middle" x="1664.2" y="-364.66" font-family="Helvetica,sans-Serif" font-weight="bold" font-size="14.00" fill="#000000">fedora&#45;gpg&#45;keys (103.0 kB)</text>
</g>
<!-- tzdata -->
<g id="node21" class="node">
<title>tzdata</title>
<text text-anchor="middle" x="233.21" y="-710.6" font-family="Helvetica,sans-Serif" font-weight="bold" font-size="14.00" fill="#000000">tzdata (1.8 MB)</text>
</g>
<!-- coreutils&#45;single -->
<g id="node22" class="node">
<title>coreutils&#45;single</title>
<text text-anchor="middle" x="240.57" y="-106.19" font-family="Helvetica,sans-Serif" font-weight="bold" font-size="22.00" fill="#cc0066">coreutils&#45;single (1.4 MB)</text>
</g>
</g>

<script type="text/javascript"><![CDATA[

document.addEventListener('click', function(e) {
      e = e || window.event;
      var target = e.target || e.srcElement;
      text = target.parentElement.querySelector("title").textContent;

      console.log("Clicked on: " + text);
      // reset all strokes
      var nodes = document.getElementsByClassName("edge");

      for (index = 0, len = nodes.length; index < len; ++index) {
          //var title = nodes[index].querySelector("title").textContent.split("->");
          id = nodes[index].id;
          document.getElementById(id).querySelector("path").setAttribute("stroke-width", "1");
          document.getElementById(id).querySelector("path").setAttribute("stroke-opacity", "0.5");
          document.getElementById(id).querySelector("path").setAttribute("stroke", "#444444");
          document.getElementById(id).querySelector("polygon").setAttribute("stroke-width", "1");
          document.getElementById(id).querySelector("polygon").setAttribute("stroke-opacity", "0.5");
          document.getElementById(id).querySelector("polygon").setAttribute("stroke", "#444444");
      }
      // reset text highlight
      pkgs = document.getElementsByClassName("node");
      for (index2 = 0, len2 = pkgs.length; index2 < len2; ++index2) {
          target_id = pkgs[index2].id;
          document.getElementById(target_id).querySelector("text").setAttribute("font-weight", "normal");
      }

      // highlight deps
      var nodes = document.getElementsByClassName("edge");
      for (index = 0, len = nodes.length; index < len; ++index) {
        var title = nodes[index].querySelector("title").textContent.split("->");

        if (title[0] == text) {
          id = nodes[index].id;
          //console.log("ID:   " + id);
          document.getElementById(id).querySelector("path").setAttribute("stroke-width", "3");
          document.getElementById(id).querySelector("path").setAttribute("stroke-opacity", "1");
          document.getElementById(id).querySelector("path").setAttribute("stroke", "#aa3333");
          document.getElementById(id).querySelector("polygon").setAttribute("stroke-width", "5");
          document.getElementById(id).querySelector("polygon").setAttribute("stroke-opacity", "1");
          document.getElementById(id).querySelector("polygon").setAttribute("stroke", "#aa3333");

        }
        if (title[1] == text) {
          id = nodes[index].id;
          document.getElementById(id).querySelector("path").setAttribute("stroke-width", "3");
          document.getElementById(id).querySelector("path").setAttribute("stroke-opacity", "1");
          document.getElementById(id).querySelector("path").setAttribute("stroke", "#333377");
          document.getElementById(id).querySelector("polygon").setAttribute("stroke-width", "5");
          document.getElementById(id).querySelector("polygon").setAttribute("stroke-opacity", "1");
          document.getElementById(id).querySelector("polygon").setAttribute("stroke", "#333377");
        }

        if (title[0] == text || title[1] == text) {
          pkgs = document.getElementsByClassName("node");
          for (index2 = 0, len2 = pkgs.length; index2 < len2; ++index2) {
            var pkg_name = pkgs[index2].querySelector("title").textContent;
            if (pkg_name == title[0] || pkg_name == title[1]) {
              target_id = pkgs[index2].id;
              document.getElementById(target_id).querySelector("text").setAttribute("font-weight", "bold");
            }
          }
        }
      }


  }, false);

]]></script>


  <text
     
     id="text7664"
     y="19.384439"
     x="9.9055691"
     style="font-style:normal;font-weight:normal;font-size:12.49485588px;line-height:125%;font-family:sans-serif;letter-spacing:0px;word-spacing:0px;fill:#000000;fill-opacity:1;stroke:none;stroke-width:0.3123714px;stroke-linecap:butt;stroke-linejoin:miter;stroke-opacity:1"
     xml:space="preserve"><tspan
       style="font-size:12.00258541px;stroke-width:0.3123714px"
       y="19.384439"
       x="9.9055691"
       id="tspan7666"
       ><a href="report-base-definition--minimal-langpack-base-2--rawhide.html"><tspan
   style="font-weight:bold;font-size:12.00258541px;fill:#0066ff;stroke-width:0.3123714px"
   id="tspan7668">Minimal Base 2</tspan></a> (Fedora rawhide)</tspan></text>
  <text
     xml:space="preserve"
     style="font-style:normal;font-weight:normal;font-size:11.85299969px;line-height:125%;font-family:sans-serif;letter-spacing:0px;word-spacing:0px;fill:#000000;fill-opacity:1;stroke:none;stroke-width:0.296325px;stroke-linecap:butt;stroke-linejoin:miter;stroke-opacity:1"
     x="9.9365959"
     y="36.915382"
     id="text8235"><tspan
       
       id="tspan8237"
       x="9.9365959"
       y="36.915382"
       style="font-size:10.80232716px;fill:#666666;stroke-width:0.296325px">Generated by <a href="./"><tspan
   style="fill:#3771c8"
   id="tspan8255">Feedback Pipeline</tspan></a></tspan></text>

</svg>
