<?xml version="1.0" encoding="UTF-8" standalone="no"?>
<!DOCTYPE svg PUBLIC "-//W3C//DTD SVG 1.1//EN"
 "http://www.w3.org/Graphics/SVG/1.1/DTD/svg11.dtd">
<!-- Generated by graphviz version 2.40.1 (0)
 -->
<!-- Title: packages Pages: 1 -->
<svg width="1451pt" height="1388pt"
 viewBox="0.00 0.00 1741.36 1665.50" xmlns="http://www.w3.org/2000/svg" xmlns:xlink="http://www.w3.org/1999/xlink">
<g id="graph0" class="graph" transform="scale(.8333 .8333) rotate(0) translate(117.6917 1529.2964)">
<title>packages</title>
<polygon fill="#dae2ff" stroke="transparent" points="-117.6917,136.2034 -117.6917,-1529.2964 1623.6663,-1529.2964 1623.6663,136.2034 -117.6917,136.2034"/>
<polygon fill="#d8d6d9" stroke="#d8d6d9" points="444.1556,-990.6422 444.7402,-990.6422 444.7402,-990.6422 444.1556,-990.6422 440.2902,-987.3629 441.1958,-863.8569 449.6777,-863.8374 450.4787,-863.8004 458.7361,-863.7687 458.5312,-953.9086 458.5312,-953.9086 458.7361,-863.7687 463.9832,-863.5183 464.0635,-863.5178 485.623,-864.7723 498.0771,-866.288 515.6816,-955.9152 518.5179,-975.7664 519.0139,-990.88 535.8605,-1076.6487 538.0486,-1077.0653 552.359,-1079.0748 560.3485,-1079.7958 564.0348,-1080.036 564.6456,-1123.1812 562.768,-1187.8439 559.1157,-1191.016 563.4974,-1194.8077 567.4092,-1195.8705 571.6913,-1224.3718 573.5346,-1264.5476 578.8791,-1191.1949 582.5348,-1191.1949 587.2353,-1243.5981 588.6675,-1191.2164 593.6746,-1191.2164 593.9035,-1191.2828 589.6091,-1292.4249 602.6924,-1282.3 677.9537,-1231.1801 687.8215,-1223.9983 691.7133,-1220.9844 701.8046,-1212.6938 705.2586,-1209.7004 711.4038,-1203.8007 707.233,-1191 693.1573,-1129.8 759.2415,-1129.8 796.7819,-1136.1667 801.7103,-1132.9702 803.306,-1130.6381 804.6448,-1129.7102 805.9986,-1129.7102 807.1177,-1130.0216 811.0787,-1130.0216 811.3417,-1129.9473 816.2912,-1129.9473 819.842,-1177.9127 822.3861,-1131.5695 827.1448,-1134.2844 831.8973,-1134.2844 838.1407,-1243.3541 838.8757,-1243.6904 839.2189,-1243.8679 851.666,-1250.6909 852.6758,-1216.5548 852.6758,-1216.5548 851.666,-1250.6909 839.2189,-1243.8679 838.8757,-1243.6904 838.1407,-1243.3541 831.8973,-1134.2844 837.0238,-1131.2888 838.5584,-1129.4664 837.0565,-1127.812 832.433,-1125.2963 832.433,-1125.2963 837.0565,-1127.812 838.5584,-1129.4664 837.0238,-1131.2888 831.8973,-1134.2844 827.1448,-1134.2844 822.3861,-1131.5695 819.842,-1177.9127 816.2912,-1129.9473 811.3417,-1129.9473 811.0787,-1130.0216 807.1177,-1130.0216 805.9986,-1129.7102 804.6448,-1129.7102 803.306,-1130.6381 801.7103,-1132.9702 796.7819,-1136.1667 759.2415,-1129.8 693.1573,-1129.8 707.233,-1191 711.4038,-1203.8007 705.2586,-1209.7004 701.8046,-1212.6938 691.7133,-1220.9844 687.8215,-1223.9983 677.9537,-1231.1801 602.6924,-1282.3 589.6091,-1292.4249 593.9035,-1191.2828 593.6746,-1191.2164 588.6675,-1191.2164 587.2353,-1243.5981 582.5348,-1191.1949 578.8791,-1191.1949 573.5346,-1264.5476 571.6913,-1224.3718 567.4092,-1195.8705 563.4974,-1194.8077 559.1157,-1191.016 562.768,-1187.8439 564.6456,-1123.1812 564.0348,-1080.036 576.2127,-1080.2207 580.3803,-1080.0753 581.0187,-1080.1033 588.9764,-1080.2529 591.8502,-1080.3826 602.6597,-1080.0565 609.0676,-1080.3694 621.4072,-1080.6616 622.9394,-1080.738 640.2945,-1082.9729 641.0094,-1083.0836 680.2512,-1090.1895 760.8217,-1004.8652 776.4767,-989.1163 759.8743,-951.5923 744.6579,-911.754 754.7318,-887.8485 764.1316,-863.4757 782.704,-803.47 783.3861,-801.8511 839.0786,-796.1843 852.0682,-795.3875 854.4658,-795.4349 857.5303,-795.6198 859.7206,-795.586 864.9522,-795.306 873.0656,-795.5322 877.5836,-795.3142 881.9162,-795.2817 884.5889,-795.1602 890.1931,-795.5887 897.9411,-795.298 903.9985,-795.317 913.2978,-794.6406 922.0519,-793.3398 936.7202,-790.0422 939.4755,-789.2163 948.8804,-786.0381 952.7982,-784.4175 965.5091,-778.6683 984.6497,-767.8186 1018.4816,-744.8705 1026.8862,-751.5797 1046.1306,-846.825 1046.454,-850.131 1046.8866,-859.4893 1048.6377,-877.2333 1071.2377,-989.0869 1070.712,-989.8991 1068.5715,-990.6491 1057.316,-993.908 1051.9487,-995.3528 1044.3413,-997.2459 989.1443,-1009.8535 987.8181,-1010.1838 974.2245,-1013.8517 965.4835,-1016.5698 958.6237,-1018.986 955.0588,-1129.8 955.4512,-1135.6 952.7474,-1219.646 932.5154,-1239.799 929.4655,-1240.76 929.0991,-1240.8672 919.3281,-1243.2892 912.8745,-1244.7441 902.9227,-1246.7639 899.5931,-1247.3641 892.3492,-1248.3439 888.7847,-1248.7459 879.4386,-1249.5898 872.559,-1250.0562 853.4691,-1251.7886 826.606,-1315.6761 824.0524,-1323.5752 813.3267,-1362.5884 809.5649,-1374.2041 762.4841,-1486.1746 756.9181,-1486.4033 744.7322,-1487.0986 743.6219,-1487.1796 739.7735,-1485.5001 735.0498,-1483.6161 732.1057,-1482.5511 714.9924,-1476.6749 715.8801,-1343.6256 719.1861,-1323.1572 723.2844,-1322.0516 727.6398,-1318.4189 723.5782,-1314.9406 718.7446,-1313.5619 718.7446,-1313.5619 723.5782,-1314.9406 727.6398,-1318.4189 723.2844,-1322.0516 719.1861,-1323.1572 715.8801,-1343.6256 714.9924,-1476.6749 707.7356,-1474.4558 697.813,-1471.7921 684.0679,-1468.3604 686.8008,-1373.3765 686.8008,-1373.3765 684.0679,-1468.3604 683.6638,-1468.2822 547.1055,-1430.3378 520.59,-1363.7804 427.9695,-1307.4465 397.1453,-1268.8188 371.9123,-1226.3049 341.0595,-1176.5109 257.8139,-1144.9877 226.8811,-1033.005 213.1033,-986.1952 210.4367,-977.6305 226.6023,-953.0549 293.8085,-847.07 413.2982,-862.6112 419.2323,-862.9928 430.9628,-863.4903 434.7148,-863.7293 441.1958,-863.8569 440.2902,-987.3629 435.4468,-985.9989 435.4468,-985.9989 440.2902,-987.3629 444.1556,-990.6422 444.1556,-990.6422"/>
<polygon fill="#e8cfd0" stroke="#e8cfd0" points="-113.6917,-837.3342 -111.0506,-841.6687 -45.4733,-954.2473 43.9541,-949.8883 54.9199,-949.7379 72.5807,-950.1149 72.4987,-919.3981 68.3256,-830.2134 68.3256,-830.2134 72.4987,-919.3981 74.3164,-875.5486 80.2614,-798.1114 84.8389,-798.1114 90.9307,-794.6086 91.8893,-793.5583 91.0014,-792.571 85.043,-789.0752 80.0397,-789.0752 80.0397,-789.0752 85.043,-789.0752 91.0014,-792.571 91.8893,-793.5583 90.9307,-794.6086 84.8389,-798.1114 80.2614,-798.1114 74.3164,-875.5486 72.4987,-919.3981 72.5807,-950.1149 85.2146,-951.2704 100.432,-953.1971 95.0857,-793.7154 99.5056,-793.7154 104.4771,-835.2703 105.1721,-852.1081 111.8875,-793.6548 113.8869,-793.6548 114.5728,-793.1291 115.7328,-791.312 121.2436,-787.2108 168.6948,-793.49 284.0912,-793.49 278.0877,-745.0618 360.8807,-742.2245 440.1212,-742.6237 444.1756,-739.465 448.1331,-774.5084 450.4239,-736.576 453.9838,-736.576 454.1855,-736.6326 459.5893,-736.6326 460.071,-736.4929 464.9267,-736.4929 465.2362,-736.4039 465.9821,-736.4039 470.2612,-732.8364 474.5537,-731.6885 479.9118,-733.1829 483.8494,-736.467 485.3206,-736.467 485.5477,-736.4037 488.8327,-736.4037 490.3242,-736.8244 493.8242,-736.8244 494.6866,-736.5762 494.6866,-736.5762 493.8242,-736.8244 490.3242,-736.8244 488.8327,-736.4037 485.5477,-736.4037 485.3206,-736.467 483.8494,-736.467 479.9118,-733.1829 474.5537,-731.6885 470.2612,-732.8364 465.9821,-736.4039 469.9384,-739.8607 469.9384,-739.8607 465.9821,-736.4039 465.2362,-736.4039 464.9267,-736.4929 460.071,-736.4929 459.5893,-736.6326 454.1855,-736.6326 453.9838,-736.576 450.4239,-736.576 448.1331,-774.5084 444.1756,-739.465 440.1212,-742.6237 360.8807,-742.2245 278.0877,-745.0618 284.0912,-793.49 168.6948,-793.49 121.2436,-787.2108 115.7328,-791.312 114.5728,-793.1291 113.8869,-793.6548 111.8875,-793.6548 105.1721,-852.1081 104.4771,-835.2703 99.5056,-793.7154 95.0857,-793.7154 100.432,-953.1971 104.0767,-953.7221 116.5374,-956.174 133.0098,-959.7039 210.4367,-977.6305 226.6023,-953.0549 293.8085,-847.07 413.2982,-862.6112 419.2323,-862.9928 430.9628,-863.4903 434.7148,-863.7293 441.1958,-863.8569 449.6777,-863.8374 450.4787,-863.8004 458.7361,-863.7687 463.9832,-863.5183 464.0635,-863.5178 485.623,-864.7723 498.0771,-866.288 515.6816,-955.9152 518.5179,-975.7664 519.0139,-990.88 535.8605,-1076.6487 538.0486,-1077.0653 552.359,-1079.0748 560.3485,-1079.7958 564.0348,-1080.036 576.2127,-1080.2207 580.3803,-1080.0753 580.6467,-1059.364 580.6467,-1059.364 580.3803,-1080.0753 581.0187,-1080.1033 588.9764,-1080.2529 591.8502,-1080.3826 602.6597,-1080.0565 602.8954,-1022.3475 602.8954,-1022.3475 602.6597,-1080.0565 609.0676,-1080.3694 621.4072,-1080.6616 622.9394,-1080.738 640.2945,-1082.9729 641.0094,-1083.0836 680.2512,-1090.1895 760.8217,-1004.8652 776.4767,-989.1163 759.8743,-951.5923 744.6579,-911.754 754.7318,-887.8485 764.1316,-863.4757 782.704,-803.47 783.3861,-801.8511 757.0126,-742.7656 756.6285,-741.9838 747.6874,-737.8177 746.8598,-737.4653 745.0032,-736.747 732.5939,-732.4229 720.1246,-729.5313 718.2372,-729.1675 710.2051,-727.9315 701.3774,-726.9185 694.6201,-726.6726 686.6407,-726.6945 686.6019,-737.2349 689.1964,-797.1553 689.1964,-797.1553 686.6019,-737.2349 686.6407,-726.6945 694.6201,-726.6726 701.3774,-726.9185 710.2051,-727.9315 718.2372,-729.1675 720.1246,-729.5313 732.5939,-732.4229 745.0032,-736.747 746.8598,-737.4653 747.6874,-737.8177 756.6285,-741.9838 780.8901,-710.7102 813.4009,-658.3793 822.743,-644.9397 835.4338,-629.7529 850.4807,-610.47 859.7031,-597.233 856.4009,-594.9147 752.3642,-529.028 743.5728,-523.1628 743.1489,-522.866 742.4145,-522.3266 736.0876,-649.2863 731.2988,-649.2863 731.2546,-649.2996 729.4822,-649.2996 726.2953,-646.5142 726.2953,-646.5142 729.4822,-649.2996 731.2546,-649.2996 731.2988,-649.2863 736.0876,-649.2863 742.4145,-522.3266 738.3846,-519.2255 730.0757,-519.3077 726.6877,-519.267 723.3664,-519.2982 718.1283,-519.5721 718.0372,-519.6859 713.5948,-524.7609 694.2122,-544.0577 692.709,-545.4742 692.5451,-545.6202 672.8061,-562.2437 595.4404,-632.8087 592.6459,-635.5038 583.0121,-645.3129 580.9276,-647.5422 574.423,-645.1415 561.7617,-641.5029 555.6728,-639.9202 544.6909,-637.6656 534.4988,-636.131 522.3832,-634.9694 509.8448,-634.4531 506.337,-634.2142 496.6887,-633.2972 479.7789,-630.3197 462.7146,-625.9349 461.1603,-625.4945 450.7972,-621.7173 439.8762,-617.4417 346.373,-575.8463 347.8673,-553.5505 348.0892,-549.0703 342.6465,-539.7198 302.0916,-463.7434 267.9417,-395.8062 260.7663,-382.2764 244.6964,-353.4418 240.3418,-345.9605 228.4435,-348.1276 177.699,-361.174 171.8338,-362.5645 169.6038,-448.9002 164.9466,-509.7222 161.0893,-509.7222 152.2985,-403.3028 155.2446,-506.8189 149.7481,-505.1617 149.7481,-505.1617 155.2446,-506.8189 152.2985,-403.3028 161.0893,-509.7222 164.9466,-509.7222 169.6038,-448.9002 171.8338,-362.5645 151.8066,-366.5128 139.8428,-367.9094 120.047,-369.4265 42.4186,-372.2494 -24.585,-465.7363 -26.4946,-468.2873 -40.6446,-534.1788 -59.7928,-609.5269 -60.5202,-609.989 -90.8284,-747.5027 -102.9921,-797.2509 -113.6917,-837.3342 -113.6917,-837.3342"/>
<polygon fill="#ccebc5" stroke="#ccebc5" points="1293.4473,-848.3855 1293.3477,-849.4626 1290.7555,-889.2641 1289.0455,-903.5926 1269.9657,-915.0412 1267.9907,-916.0378 1261.9424,-918.9057 1251.5081,-923.5325 1242.8246,-927.1094 1240.3187,-928.0615 1225.6824,-932.7078 1221.8491,-933.6816 1208.542,-936.2354 1179.9512,-939.9304 1178.5297,-940.1599 1162.9183,-943.1862 1162.6467,-943.2474 1158.7649,-944.2468 1154.303,-945.5385 1150.9323,-946.6225 1138.2277,-951.54 1138.6927,-851.3248 1143.582,-852.7367 1149.0276,-851.0893 1152.9791,-847.46 1150.061,-845.0404 1150.061,-845.0404 1152.9791,-847.46 1149.0276,-851.0893 1143.582,-852.7367 1138.6927,-851.3248 1138.2277,-951.54 1128.2341,-955.7295 1126.609,-956.4619 1125.5757,-956.9944 1112.4418,-964.2037 1101.2417,-970.7129 1071.2377,-989.0869 1048.6377,-877.2333 1046.8866,-859.4893 1046.454,-850.131 1046.1306,-846.825 1026.8862,-751.5797 1018.4816,-744.8705 984.6497,-767.8186 965.5091,-778.6683 952.7982,-784.4175 948.8804,-786.0381 939.4755,-789.2163 936.7202,-790.0422 922.0519,-793.3398 913.2978,-794.6406 903.9985,-795.317 897.9411,-795.298 890.1931,-795.5887 884.5889,-795.1602 881.9162,-795.2817 877.5836,-795.3142 873.0656,-795.5322 864.9522,-795.306 859.7206,-795.586 857.5303,-795.6198 854.4658,-795.4349 852.0682,-795.3875 839.0786,-796.1843 783.3861,-801.8511 757.0126,-742.7656 756.6285,-741.9838 780.8901,-710.7102 813.4009,-658.3793 822.743,-644.9397 835.4338,-629.7529 850.4807,-610.47 859.7031,-597.233 862.2034,-597.3395 862.9786,-597.3539 872.0144,-597.0907 879.8644,-597.2283 880.1698,-597.2264 882.3305,-597.1093 897.267,-597.3452 894.2816,-679.4473 889.6158,-717.4325 888.2673,-719.3687 885.9169,-719.3687 885.9169,-719.3687 888.2673,-719.3687 889.6158,-717.4325 894.2816,-679.4473 897.267,-597.3452 899.6971,-597.2675 983.3705,-598.4875 999.8333,-616.4592 1100.2322,-600.3267 1112.4943,-598.7661 1119.9418,-598.0704 1122.1255,-597.9404 1122.4961,-597.905 1125.0671,-597.8335 1136.6626,-597.9026 1140.8292,-598.2098 1142.9828,-598.2148 1144.6687,-598.1587 1146.9329,-598.1598 1155.217,-597.8685 1158.7358,-597.8638 1158.876,-597.8536 1166.298,-597.8169 1170.7889,-598.0976 1178.7628,-598.0292 1179.4324,-597.9998 1189.0621,-597.2338 1291.3929,-581.8233 1279.7928,-680.7388 1279.7313,-681.4926 1279.5983,-693.6076 1279.396,-697.9629 1278.2617,-711.795 1271.3059,-771.108 1298.1953,-808.9203 1293.9359,-844.6126 1293.7422,-845.9266 1180.683,-841.8346 1177.8087,-788.2778 1177.7582,-764.7291 1176.7469,-764.6851 1176.2375,-764.6449 1174.6052,-713.4722 1169.9884,-681.707 1169.7445,-681.707 1165.2795,-677.5637 1160.8145,-676.2874 1160.8145,-676.2874 1165.2795,-677.5637 1169.7445,-681.707 1166.4987,-684.4214 1166.4987,-684.4214 1169.7445,-681.707 1169.9884,-681.707 1174.6052,-713.4722 1176.2375,-764.6449 1176.7469,-764.6851 1177.7582,-764.7291 1177.8087,-788.2778 1180.683,-841.8346 1293.7422,-845.9266 1293.4473,-848.3855 1293.4473,-848.3855"/>
<polygon fill="#fbb4ae" stroke="#fbb4ae" points="888.7847,-1248.7459 879.4386,-1249.5898 872.559,-1250.0562 853.4691,-1251.7886 826.606,-1315.6761 824.0524,-1323.5752 813.3267,-1362.5884 809.5649,-1374.2041 762.4841,-1486.1746 825.9111,-1512.5797 887.0624,-1518.3131 889.6007,-1518.5972 908.9601,-1521.8258 914.087,-1522.8668 921.2235,-1524.4457 922.8723,-1524.8403 924.4207,-1525.2964 944.3663,-1520.1316 956.3333,-1517.2585 1051.8141,-1467.5071 1058.9723,-1467.371 1059.5151,-1400.4565 1062.9991,-1320.9781 1068.0599,-1320.9781 1073.45,-1317.6079 1074.4994,-1316.2833 1074.1797,-1315.9077 1074.1797,-1315.9077 1074.4994,-1316.2833 1073.45,-1317.6079 1074.6505,-1398.036 1079.4413,-1316.728 1078.0271,-1316.2833 1081.1685,-1286.801 1079.8197,-1226.1976 1083.7111,-1225.9193 1077.3434,-1137.037 1082.7908,-1140.0537 1087.599,-1140.0537 1093.6797,-1136.5001 1094.4639,-1135.6335 1093.1647,-1134.1871 1087.5415,-1130.9939 1083.3597,-1130.9939 1083.3597,-1130.9939 1087.5415,-1130.9939 1093.1647,-1134.1871 1094.4639,-1135.6335 1093.6797,-1136.5001 1087.599,-1140.0537 1082.7908,-1140.0537 1077.3434,-1137.037 1083.7111,-1225.9193 1079.8197,-1226.1976 1081.1685,-1286.801 1078.0271,-1316.2833 1079.4413,-1316.728 1074.6505,-1398.036 1073.45,-1317.6079 1068.0599,-1320.9781 1062.9991,-1320.9781 1059.5151,-1400.4565 1058.9723,-1467.371 1072.413,-1467.6238 1073.119,-1467.6504 1073.366,-1467.6691 1079.8776,-1466.0662 1084.5902,-1316.728 1085.6406,-1316.4069 1088.2955,-1316.4069 1089.6104,-1314.3187 1090.5798,-1225.8981 1096.0371,-1225.9995 1100.0508,-1226.1978 1106.0928,-1226.296 1106.1676,-1222.9285 1106.1676,-1222.9285 1106.0928,-1226.296 1100.0508,-1226.1978 1096.0371,-1225.9995 1090.5798,-1225.8981 1089.6104,-1314.3187 1088.2955,-1316.4069 1085.6406,-1316.4069 1084.5902,-1316.728 1079.8776,-1466.0662 1081.0044,-1465.8115 1103.5282,-1461.1742 1126.3798,-1456.9402 1201.3409,-1417.5585 1233.2748,-1420.0615 1248.6479,-1421.5619 1259.8724,-1423.0869 1272.181,-1425.2301 1270.8899,-1317.3645 1273.3949,-1279.8892 1278.158,-1277.2499 1279.5171,-1275.7333 1278.1909,-1274.1387 1272.7614,-1270.8899 1268.2836,-1270.8899 1268.2836,-1270.8899 1272.7614,-1270.8899 1278.1909,-1274.1387 1279.5171,-1275.7333 1278.158,-1277.2499 1273.3949,-1279.8892 1270.8899,-1317.3645 1272.181,-1425.2301 1280.0073,-1426.8914 1292.4883,-1429.7786 1294.491,-1430.3558 1340.749,-1444.5787 1341.436,-1444.6045 1365.8192,-1440.6653 1401.6714,-1416.1525 1467.9604,-1330.7119 1483.5071,-1311.4063 1486.395,-1310.2841 1519.0088,-1287.0614 1551.4279,-1164.5988 1562.4149,-1126.6754 1564.8762,-1118.8152 1560.9896,-1096.5764 1549.3912,-1020.5688 1459.1656,-1005.0347 1455.6196,-1004.5049 1437.1217,-1002.5795 1426.0244,-1002.1827 1417.3314,-1002.0699 1416.8851,-1002.0844 1413.2156,-1001.969 1404.0386,-1012.0011 1401.4125,-1015.2142 1390.8258,-1026.9664 1384.6415,-1033.4694 1384.4913,-1044.9302 1388.877,-1126.6722 1392.9745,-1130.0397 1389.4752,-1132.891 1383.4644,-1134.6685 1378.3064,-1133.1514 1374.4012,-1129.7515 1373.0769,-1130.1382 1368.847,-1130.1382 1366.9661,-1159.7109 1361.6359,-1130.1838 1358.7706,-1130.1838 1357.9946,-1129.9688 1359.411,-1054.798 1360.0529,-1054.2979 1363.7643,-1051.1713 1293.1509,-1033.5918 1290.5648,-1030.73 1287.5997,-1029.7585 1286.1301,-1028.6771 1282.7852,-1028.6771 1281.6382,-1028.3528 1279.2748,-1028.3528 1279.2748,-1028.3528 1281.6382,-1028.3528 1282.7852,-1028.6771 1286.1301,-1028.6771 1287.5997,-1029.7585 1290.5648,-1030.73 1293.1509,-1033.5918 1363.7643,-1051.1713 1360.0529,-1054.2979 1359.411,-1054.798 1357.9946,-1129.9688 1358.7706,-1130.1838 1361.6359,-1130.1838 1366.9661,-1159.7109 1368.847,-1130.1382 1373.0769,-1130.1382 1374.4012,-1129.7515 1378.3064,-1133.1514 1383.4644,-1134.6685 1389.4752,-1132.891 1392.9745,-1130.0397 1388.877,-1126.6722 1383.6631,-1125.2007 1383.6631,-1125.2007 1388.877,-1126.6722 1384.4913,-1044.9302 1384.6415,-1033.4694 1390.8258,-1026.9664 1401.4125,-1015.2142 1404.0386,-1012.0011 1413.2156,-1001.969 1410.0173,-999.197 1407.3092,-996.9581 1291.2382,-905.5503 1290.9769,-905.335 1289.0455,-903.5926 1269.9657,-915.0412 1267.9907,-916.0378 1261.9424,-918.9057 1251.5081,-923.5325 1242.8246,-927.1094 1240.3187,-928.0615 1225.6824,-932.7078 1221.8491,-933.6816 1208.542,-936.2354 1208.8735,-976.1218 1206.5668,-1022.0016 1194.8199,-1024.7159 1210.0549,-1030.5872 1212.174,-1029.9353 1214.1823,-1028.4999 1215.584,-1028.4999 1216.2469,-1028.3087 1216.2469,-1028.3087 1215.584,-1028.4999 1214.1823,-1028.4999 1212.174,-1029.9353 1210.0549,-1030.5872 1194.8199,-1024.7159 1206.5668,-1022.0016 1208.8735,-976.1218 1208.542,-936.2354 1179.9512,-939.9304 1178.5297,-940.1599 1162.9183,-943.1862 1162.6467,-943.2474 1158.7649,-944.2468 1154.303,-945.5385 1150.9323,-946.6225 1138.2277,-951.54 1128.2341,-955.7295 1126.609,-956.4619 1125.5757,-956.9944 1112.4418,-964.2037 1101.2417,-970.7129 1071.2377,-989.0869 1070.712,-989.8991 1068.5715,-990.6491 1057.316,-993.908 1051.9487,-995.3528 1044.3413,-997.2459 989.1443,-1009.8535 987.8181,-1010.1838 974.2245,-1013.8517 965.4835,-1016.5698 958.6237,-1018.986 955.0588,-1129.8 955.4512,-1135.6 952.7474,-1219.646 932.5154,-1239.799 929.4655,-1240.76 929.0991,-1240.8672 919.3281,-1243.2892 912.8745,-1244.7441 902.9227,-1246.7639 899.5931,-1247.3641 892.3492,-1248.3439 888.7847,-1248.7459 888.7847,-1248.7459"/>
<polygon fill="#d8d6d9" stroke="#d8d6d9" points="1455.6196,-1004.5049 1459.1656,-1005.0347 1549.3912,-1020.5688 1619.6663,-934.5096 1609.0062,-894.0351 1601.8828,-864.5456 1471.8975,-870.7151 1459.6897,-867.6455 1454.3618,-871.0416 1454.0074,-786.6945 1447.9003,-787.2593 1434.782,-787.5572 1433.146,-787.705 1422.6671,-787.5497 1420.3363,-787.5939 1416.026,-787.8214 1414.6637,-787.7979 1409.3339,-787.8854 1408.4891,-787.9277 1399.795,-787.7554 1389.5582,-788.2426 1379.8289,-789.3605 1379.8992,-740.4814 1383.327,-701.1588 1382.7349,-700.9856 1382.7349,-700.9856 1383.327,-701.1588 1379.8992,-740.4814 1379.8289,-789.3605 1389.5582,-788.2426 1399.795,-787.7554 1408.4891,-787.9277 1409.3339,-787.8854 1408.5521,-702.9834 1403.8942,-705.5544 1403.8942,-705.5544 1408.5521,-702.9834 1410.2615,-701.0867 1409.3353,-700.0619 1403.5896,-696.7215 1403.5896,-696.7215 1409.3353,-700.0619 1410.2615,-701.0867 1408.5521,-702.9834 1409.3339,-787.8854 1414.6637,-787.7979 1416.026,-787.8214 1420.3363,-787.5939 1422.6671,-787.5497 1433.146,-787.705 1434.782,-787.5572 1447.9003,-787.2593 1454.0074,-786.6945 1454.3618,-871.0416 1459.6897,-867.6455 1471.8975,-870.7151 1601.8828,-864.5456 1590.2644,-805.3878 1569.3905,-768.239 1572.6859,-716.4135 1577.766,-669.5451 1582.0903,-636.3158 1553.319,-592.9332 1438.6686,-515.6862 1431.2911,-510.3918 1426.1897,-512.2636 1416.101,-515.7999 1399.7135,-521.004 1390.3322,-523.5172 1383.637,-525.0905 1375.6187,-526.7122 1353.7424,-530.7781 1333.1428,-534.2628 1312.1777,-514.82 1306.541,-508.8736 1283.1688,-486.8785 1282.9202,-486.665 1259.3784,-469.0943 1257.724,-468.0572 1242.285,-458.9583 1225.6282,-451.0872 1166.7531,-425.6446 1167.0859,-457.1979 1170.2667,-508.6853 1170.2667,-508.6853 1167.0859,-457.1979 1166.7531,-425.6446 1165.1431,-424.8264 1157.8583,-420.8371 1149.5189,-415.9449 1148.0089,-393.8604 1147.2108,-368.8914 1147.2319,-368.3821 1147.2377,-367.1674 1147.0841,-362.3347 1137.4771,-221.8251 1066.9619,-231.6915 1059.9523,-232.5351 1050.3174,-233.5056 1039.9952,-234.3421 1033.9966,-234.5921 1033.9392,-234.5933 1030.8257,-372.713 1036.2998,-375.9731 1037.4462,-377.3253 1037.0079,-377.8259 1037.0079,-377.8259 1037.4462,-377.3253 1036.2998,-375.9731 1030.8257,-372.713 1025.8438,-372.713 1020.1968,-376.1086 1019.1392,-377.3584 1014.9188,-377.3584 1014.7899,-377.3954 1010.9849,-377.3954 1010.5684,-377.2731 1004.9318,-377.2731 1003.3657,-430.0627 998.8599,-379.8019 994.26,-383.3739 915.1816,-377.18 903.4661,-377.18 905.2107,-379.2697 905.2107,-379.2697 903.4661,-377.18 915.1816,-377.18 994.26,-383.3739 998.8599,-379.8019 1003.3657,-430.0627 1004.9318,-377.2731 1010.5684,-377.2731 1010.9849,-377.3954 1014.7899,-377.3954 1014.9188,-377.3584 1019.1392,-377.3584 1020.1968,-376.1086 1025.8438,-372.713 1030.8257,-372.713 1033.9392,-234.5933 1022.4357,-234.6208 1018.9216,-234.4911 1007.5881,-233.85 996.0851,-232.7472 930.444,-223.8759 913.107,-264.2729 899.188,-298.9068 880.4155,-353.7102 871.7482,-358.4238 869.2488,-359.7044 860.7387,-363.8007 855.1937,-366.295 841.3577,-372.0829 784.2646,-346.8253 777.073,-344.0932 766.9377,-340.8888 760.6486,-339.7137 754.1431,-338.9152 745.7188,-338.4233 744.8906,-338.4282 744.001,-338.4904 737.866,-338.5354 737.5357,-338.5172 725.824,-337.1336 722.8666,-336.6011 710.3618,-332.7676 701.1114,-328.7739 692.6088,-324.027 684.3912,-318.9224 680.9166,-316.5529 650.3022,-293.7842 637.8166,-285.1227 594.9442,-258.9223 587.8145,-378 587.9246,-380.8639 587.262,-405.2263 586.0246,-425.8928 578.3845,-430.8965 573.7094,-433.6059 566.5483,-437.4915 554.2535,-443.2562 551.442,-444.3646 542.0523,-447.7243 529.3485,-451.3334 517.3624,-453.8455 494.2,-457.8289 480.8322,-461.1252 477.2332,-462.1445 461.0639,-467.926 449.3613,-473.8435 443.5042,-477.0233 433.9923,-482.5398 414.7639,-495.8395 414.729,-495.8661 408.0816,-501.1848 400.8189,-507.2644 352.0483,-546.0371 348.0892,-549.0703 347.8673,-553.5505 346.373,-575.8463 439.8762,-617.4417 450.7972,-621.7173 461.1603,-625.4945 462.7146,-625.9349 479.7789,-630.3197 496.6887,-633.2972 506.337,-634.2142 509.8448,-634.4531 522.3832,-634.9694 534.4988,-636.131 544.6909,-637.6656 555.6728,-639.9202 561.7617,-641.5029 574.423,-645.1415 580.9276,-647.5422 583.0121,-645.3129 592.6459,-635.5038 595.4404,-632.8087 672.8061,-562.2437 692.5451,-545.6202 692.709,-545.4742 694.2122,-544.0577 713.5948,-524.7609 718.0372,-519.6859 718.1283,-519.5721 723.3664,-519.2982 726.6877,-519.267 730.0757,-519.3077 738.3846,-519.2255 742.4145,-522.3266 743.1489,-522.866 743.5728,-523.1628 752.3642,-529.028 856.4009,-594.9147 859.7031,-597.233 862.2034,-597.3395 862.9786,-597.3539 872.0144,-597.0907 879.8644,-597.2283 880.1698,-597.2264 882.3305,-597.1093 897.267,-597.3452 899.6971,-597.2675 983.3705,-598.4875 999.8333,-616.4592 1100.2322,-600.3267 1112.4943,-598.7661 1119.9418,-598.0704 1122.1255,-597.9404 1122.4961,-597.905 1125.0671,-597.8335 1136.6626,-597.9026 1137.3541,-543.4316 1140.7507,-519.1275 1145.1428,-516.7697 1146.8264,-514.9677 1144.8285,-512.7595 1139.9211,-510.1038 1135.7108,-510.1038 1135.7108,-510.1038 1139.9211,-510.1038 1144.8285,-512.7595 1146.8264,-514.9677 1145.1428,-516.7697 1140.7507,-519.1275 1137.3541,-543.4316 1136.6626,-597.9026 1140.8292,-598.2098 1142.9828,-598.2148 1144.6687,-598.1587 1146.9329,-598.1598 1155.217,-597.8685 1158.7358,-597.8638 1158.876,-597.8536 1166.298,-597.8169 1170.7889,-598.0976 1178.7628,-598.0292 1179.4324,-597.9998 1189.0621,-597.2338 1291.3929,-581.8233 1279.7928,-680.7388 1279.7313,-681.4926 1279.5983,-693.6076 1279.396,-697.9629 1278.2617,-711.795 1271.3059,-771.108 1298.1953,-808.9203 1293.9359,-844.6126 1293.7422,-845.9266 1293.4473,-848.3855 1293.3477,-849.4626 1290.7555,-889.2641 1289.0455,-903.5926 1290.9769,-905.335 1291.2382,-905.5503 1407.3092,-996.9581 1410.0173,-999.197 1413.2156,-1001.969 1416.8851,-1002.0844 1417.3314,-1002.0699 1426.0244,-1002.1827 1437.1217,-1002.5795 1437.1844,-995.0123 1435.8683,-912.3774 1438.5608,-877.0396 1441.9448,-873.9968 1438.9829,-871.421 1432.6794,-869.4317 1432.6794,-869.4317 1438.9829,-871.421 1441.9448,-873.9968 1438.5608,-877.0396 1435.8683,-912.3774 1437.1844,-995.0123 1437.1217,-1002.5795 1455.6196,-1004.5049 1455.6196,-1004.5049"/>
<polygon fill="#bbd7d9" stroke="#bbd7d9" points="1147.2377,-367.1674 1147.2319,-368.3821 1147.2108,-368.8914 1148.0089,-393.8604 1149.5189,-415.9449 1157.8583,-420.8371 1165.1431,-424.8264 1166.7531,-425.6446 1225.6282,-451.0872 1242.285,-458.9583 1257.724,-468.0572 1259.3784,-469.0943 1260.4474,-434.2625 1262.3911,-407.8708 1262.2301,-367.3295 1268.0128,-370.7065 1271.9463,-370.7065 1277.3187,-367.6391 1278.9709,-365.7184 1278.2788,-364.9559 1272.5364,-361.6234 1272.5364,-361.6234 1278.2788,-364.9559 1278.9709,-365.7184 1277.3187,-367.6391 1271.9463,-370.7065 1268.0128,-370.7065 1262.2301,-367.3295 1262.3911,-407.8708 1260.4474,-434.2625 1259.3784,-469.0943 1282.9202,-486.665 1283.1688,-486.8785 1288.644,-400.7101 1294.2263,-366.2921 1296.7317,-366.2921 1304.2357,-421.5905 1304.3492,-417.5697 1304.3492,-417.5697 1304.2357,-421.5905 1296.7317,-366.2921 1294.2263,-366.2921 1288.644,-400.7101 1283.1688,-486.8785 1306.541,-508.8736 1312.1777,-514.82 1333.1428,-534.2628 1353.7424,-530.7781 1375.6187,-526.7122 1383.637,-525.0905 1390.3322,-523.5172 1399.7135,-521.004 1416.101,-515.7999 1426.1897,-512.2636 1431.2911,-510.3918 1453.3674,-422.6333 1451.458,-377.1769 1451.4819,-343.5234 1452.457,-299.3351 1424.9009,-205.9065 1443.948,-187.1479 1533.4216,-61.437 1516.4951,-18 1494.0131,51.441 1420.5337,110.6654 1357.5265,128.3054 1356.5049,128.6124 1346.7225,131.962 1346.0579,132.2034 1335.955,130.4626 1326.2709,128.9802 1309.6892,127.7126 1304.8604,127.5285 1294.0591,127.3236 1286.4883,127.3251 1205.5479,131.9893 1180.7645,119.3195 1140.6909,73.3982 1128.5236,13.222 1139.9369,-18 1233.2936,-18 1233.2936,-18 1139.9369,-18 1188.1394,-181.9493 1137.4771,-221.8251 1147.0841,-362.3347 1147.2377,-367.1674 1147.2377,-367.1674"/>
<polygon fill="#fdd9a7" stroke="#fdd9a7" points="913.107,-264.2729 899.188,-298.9068 880.4155,-353.7102 871.7482,-358.4238 869.2488,-359.7044 860.7387,-363.8007 855.1937,-366.295 841.3577,-372.0829 784.2646,-346.8253 777.073,-344.0932 766.9377,-340.8888 760.6486,-339.7137 754.1431,-338.9152 745.7188,-338.4233 744.8906,-338.4282 744.001,-338.4904 737.866,-338.5354 737.5357,-338.5172 725.824,-337.1336 722.8666,-336.6011 710.3618,-332.7676 701.1114,-328.7739 692.6088,-324.027 684.3912,-318.9224 680.9166,-316.5529 650.3022,-293.7842 637.8166,-285.1227 594.9442,-258.9223 583.8337,-228.7083 714.9186,-134.9997 733.8542,-126.5908 744.9179,-126.0155 751.1093,-125.4775 752.8589,-125.9401 772.5997,-130.4318 775.6656,-131.0718 777.9084,-131.4981 834.5256,-140.1622 896.1943,-176.9521 930.444,-223.8759 913.107,-264.2729 913.107,-264.2729"/>
<polygon fill="#cbc5d1" stroke="#cbc5d1" points="594.9442,-258.9223 587.8145,-378 587.9246,-380.8639 587.262,-405.2263 586.0246,-425.8928 578.3845,-430.8965 573.7094,-433.6059 566.5483,-437.4915 554.2535,-443.2562 551.442,-444.3646 542.0523,-447.7243 529.3485,-451.3334 517.3624,-453.8455 494.2,-457.8289 480.8322,-461.1252 484.234,-378.2083 479.4216,-378.2083 478.9287,-378.0668 478.9287,-378.0668 479.4216,-378.2083 484.234,-378.2083 480.8322,-461.1252 477.2332,-462.1445 461.0639,-467.926 449.3613,-473.8435 443.5042,-477.0233 433.9923,-482.5398 414.7639,-495.8395 414.729,-495.8661 408.0816,-501.1848 408.0258,-383.7606 412.9653,-379.1721 413.6575,-377.9296 414.2014,-377.7739 417.7296,-377.7739 417.9724,-377.8418 418.7826,-421.8703 424.3307,-378.2048 426.9706,-378.2048 426.9706,-378.2048 424.3307,-378.2048 418.7826,-421.8703 417.9724,-377.8418 417.7296,-377.7739 414.2014,-377.7739 413.6575,-377.9296 412.9653,-379.1721 408.0258,-383.7606 408.0816,-501.1848 400.8189,-507.2644 352.0483,-546.0371 348.0892,-549.0703 342.6465,-539.7198 302.0916,-463.7434 267.9417,-395.8062 260.7663,-382.2764 244.6964,-353.4418 240.3418,-345.9605 281.0754,-268.7738 369.2737,-212.362 404.6707,-209.4731 425.4565,-207.1111 425.8676,-207.0578 429.2916,-206.5599 448.5951,-202.8248 451.6781,-202.1794 473.491,-196.5655 475.7003,-195.9622 477.7921,-196.7912 491.1091,-201.1846 583.8337,-228.7083 594.9442,-258.9223 594.9442,-258.9223"/>
<polyline fill="none" stroke="#000000" points="922.0519,-793.3398 913.2978,-794.6406 903.9985,-795.317 897.9411,-795.298 890.1931,-795.5887 884.5889,-795.1602 881.9162,-795.2817 877.5836,-795.3142 873.0656,-795.5322 864.9522,-795.306 859.7206,-795.586 857.5303,-795.6198 854.4658,-795.4349 852.0682,-795.3875 839.0786,-796.1843 783.3861,-801.8511 782.704,-803.47 764.1316,-863.4757 754.7318,-887.8485 744.6579,-911.754 759.8743,-951.5923 776.4767,-989.1163 760.8217,-1004.8652 680.2512,-1090.1895 641.0094,-1083.0836 640.2945,-1082.9729 622.9394,-1080.738 621.4072,-1080.6616 609.0676,-1080.3694 602.6597,-1080.0565 591.8502,-1080.3826 588.9764,-1080.2529 581.0187,-1080.1033 580.3803,-1080.0753 576.2127,-1080.2207 564.0348,-1080.036 560.3485,-1079.7958 552.359,-1079.0748 538.0486,-1077.0653 535.8605,-1076.6487 519.0139,-990.88 518.5179,-975.7664 515.6816,-955.9152 498.0771,-866.288 485.623,-864.7723 464.0635,-863.5178 463.9832,-863.5183 458.7361,-863.7687 450.4787,-863.8004 449.6777,-863.8374 441.1958,-863.8569 434.7148,-863.7293 430.9628,-863.4903 419.2323,-862.9928 413.2982,-862.6112 293.8085,-847.07 226.6023,-953.0549 210.4367,-977.6305 213.1033,-986.1952 226.8811,-1033.005 257.8139,-1144.9877 341.0595,-1176.5109 371.9123,-1226.3049 397.1453,-1268.8188 427.9695,-1307.4465 520.59,-1363.7804 547.1055,-1430.3378 683.6638,-1468.2822 684.0679,-1468.3604 697.813,-1471.7921 707.7356,-1474.4558 714.9924,-1476.6749 732.1057,-1482.5511 735.0498,-1483.6161 739.7735,-1485.5001 743.6219,-1487.1796 744.7322,-1487.0986 756.9181,-1486.4033 762.4841,-1486.1746 809.5649,-1374.2041 813.3267,-1362.5884 824.0524,-1323.5752 826.606,-1315.6761 853.4691,-1251.7886 872.559,-1250.0562 879.4386,-1249.5898 888.7847,-1248.7459 892.3492,-1248.3439 899.5931,-1247.3641 902.9227,-1246.7639 912.8745,-1244.7441 919.3281,-1243.2892 929.0991,-1240.8672 929.4655,-1240.76 932.5154,-1239.799 952.7474,-1219.646 955.4512,-1135.6 955.0588,-1129.8 958.6237,-1018.986 965.4835,-1016.5698 974.2245,-1013.8517 987.8181,-1010.1838 989.1443,-1009.8535 1044.3413,-997.2459 1051.9487,-995.3528 1057.316,-993.908 1068.5715,-990.6491 1070.712,-989.8991 1071.2377,-989.0869 1048.6377,-877.2333 1046.8866,-859.4893 1046.454,-850.131 1046.1306,-846.825 1026.8862,-751.5797 1018.4816,-744.8705 984.6497,-767.8186 965.5091,-778.6683 952.7982,-784.4175 948.8804,-786.0381 939.4755,-789.2163 936.7202,-790.0422 922.0519,-793.3398 "/>
<polyline fill="none" stroke="#000000" points="759.8743,-951.5923 776.4767,-989.1163 760.8217,-1004.8652 680.2512,-1090.1895 641.0094,-1083.0836 640.2945,-1082.9729 622.9394,-1080.738 621.4072,-1080.6616 609.0676,-1080.3694 602.6597,-1080.0565 591.8502,-1080.3826 588.9764,-1080.2529 581.0187,-1080.1033 580.3803,-1080.0753 576.2127,-1080.2207 564.0348,-1080.036 560.3485,-1079.7958 552.359,-1079.0748 538.0486,-1077.0653 535.8605,-1076.6487 519.0139,-990.88 518.5179,-975.7664 515.6816,-955.9152 498.0771,-866.288 485.623,-864.7723 464.0635,-863.5178 463.9832,-863.5183 458.7361,-863.7687 450.4787,-863.8004 449.6777,-863.8374 441.1958,-863.8569 434.7148,-863.7293 430.9628,-863.4903 419.2323,-862.9928 413.2982,-862.6112 293.8085,-847.07 226.6023,-953.0549 210.4367,-977.6305 133.0098,-959.7039 116.5374,-956.174 104.0767,-953.7221 100.432,-953.1971 85.2146,-951.2704 72.5807,-950.1149 54.9199,-949.7379 43.9541,-949.8883 -45.4733,-954.2473 -111.0506,-841.6687 -113.6917,-837.3342 -102.9921,-797.2509 -90.8284,-747.5027 -60.5202,-609.989 -59.7928,-609.5269 -40.6446,-534.1788 -26.4946,-468.2873 -24.585,-465.7363 42.4186,-372.2494 120.047,-369.4265 139.8428,-367.9094 151.8066,-366.5128 171.8338,-362.5645 177.699,-361.174 228.4435,-348.1276 240.3418,-345.9605 244.6964,-353.4418 260.7663,-382.2764 267.9417,-395.8062 302.0916,-463.7434 342.6465,-539.7198 348.0892,-549.0703 347.8673,-553.5505 346.373,-575.8463 439.8762,-617.4417 450.7972,-621.7173 461.1603,-625.4945 462.7146,-625.9349 479.7789,-630.3197 496.6887,-633.2972 506.337,-634.2142 509.8448,-634.4531 522.3832,-634.9694 534.4988,-636.131 544.6909,-637.6656 555.6728,-639.9202 561.7617,-641.5029 574.423,-645.1415 580.9276,-647.5422 583.0121,-645.3129 592.6459,-635.5038 595.4404,-632.8087 672.8061,-562.2437 692.5451,-545.6202 692.709,-545.4742 694.2122,-544.0577 713.5948,-524.7609 718.0372,-519.6859 718.1283,-519.5721 723.3664,-519.2982 726.6877,-519.267 730.0757,-519.3077 738.3846,-519.2255 742.4145,-522.3266 743.1489,-522.866 743.5728,-523.1628 752.3642,-529.028 856.4009,-594.9147 859.7031,-597.233 850.4807,-610.47 835.4338,-629.7529 822.743,-644.9397 813.4009,-658.3793 780.8901,-710.7102 756.6285,-741.9838 757.0126,-742.7656 783.3861,-801.8511 782.704,-803.47 764.1316,-863.4757 754.7318,-887.8485 744.6579,-911.754 759.8743,-951.5923 "/>
<polyline fill="none" stroke="#000000" points="864.9522,-795.306 873.0656,-795.5322 877.5836,-795.3142 881.9162,-795.2817 884.5889,-795.1602 890.1931,-795.5887 897.9411,-795.298 903.9985,-795.317 913.2978,-794.6406 922.0519,-793.3398 936.7202,-790.0422 939.4755,-789.2163 948.8804,-786.0381 952.7982,-784.4175 965.5091,-778.6683 984.6497,-767.8186 1018.4816,-744.8705 1026.8862,-751.5797 1046.1306,-846.825 1046.454,-850.131 1046.8866,-859.4893 1048.6377,-877.2333 1071.2377,-989.0869 1101.2417,-970.7129 1112.4418,-964.2037 1125.5757,-956.9944 1126.609,-956.4619 1128.2341,-955.7295 1138.2277,-951.54 1150.9323,-946.6225 1154.303,-945.5385 1158.7649,-944.2468 1162.6467,-943.2474 1162.9183,-943.1862 1178.5297,-940.1599 1179.9512,-939.9304 1208.542,-936.2354 1221.8491,-933.6816 1225.6824,-932.7078 1240.3187,-928.0615 1242.8246,-927.1094 1251.5081,-923.5325 1261.9424,-918.9057 1267.9907,-916.0378 1269.9657,-915.0412 1289.0455,-903.5926 1290.7555,-889.2641 1293.3477,-849.4626 1293.4473,-848.3855 1293.7422,-845.9266 1293.9359,-844.6126 1298.1953,-808.9203 1271.3059,-771.108 1278.2617,-711.795 1279.396,-697.9629 1279.5983,-693.6076 1279.7313,-681.4926 1279.7928,-680.7388 1291.3929,-581.8233 1189.0621,-597.2338 1179.4324,-597.9998 1178.7628,-598.0292 1170.7889,-598.0976 1166.298,-597.8169 1158.876,-597.8536 1158.7358,-597.8638 1155.217,-597.8685 1146.9329,-598.1598 1144.6687,-598.1587 1142.9828,-598.2148 1140.8292,-598.2098 1136.6626,-597.9026 1125.0671,-597.8335 1122.4961,-597.905 1122.1255,-597.9404 1119.9418,-598.0704 1112.4943,-598.7661 1100.2322,-600.3267 999.8333,-616.4592 983.3705,-598.4875 899.6971,-597.2675 897.267,-597.3452 882.3305,-597.1093 880.1698,-597.2264 879.8644,-597.2283 872.0144,-597.0907 862.9786,-597.3539 862.2034,-597.3395 859.7031,-597.233 850.4807,-610.47 835.4338,-629.7529 822.743,-644.9397 813.4009,-658.3793 780.8901,-710.7102 756.6285,-741.9838 757.0126,-742.7656 783.3861,-801.8511 839.0786,-796.1843 852.0682,-795.3875 854.4658,-795.4349 857.5303,-795.6198 859.7206,-795.586 864.9522,-795.306 "/>
<polyline fill="none" stroke="#000000" points="1267.9907,-916.0378 1269.9657,-915.0412 1289.0455,-903.5926 1290.9769,-905.335 1291.2382,-905.5503 1407.3092,-996.9581 1410.0173,-999.197 1413.2156,-1001.969 1416.8851,-1002.0844 1417.3314,-1002.0699 1426.0244,-1002.1827 1437.1217,-1002.5795 1455.6196,-1004.5049 1459.1656,-1005.0347 1549.3912,-1020.5688 1560.9896,-1096.5764 1564.8762,-1118.8152 1562.4149,-1126.6754 1551.4279,-1164.5988 1519.0088,-1287.0614 1486.395,-1310.2841 1483.5071,-1311.4063 1467.9604,-1330.7119 1401.6714,-1416.1525 1365.8192,-1440.6653 1341.436,-1444.6045 1340.749,-1444.5787 1294.491,-1430.3558 1292.4883,-1429.7786 1280.0073,-1426.8914 1272.181,-1425.2301 1259.8724,-1423.0869 1248.6479,-1421.5619 1233.2748,-1420.0615 1201.3409,-1417.5585 1126.3798,-1456.9402 1103.5282,-1461.1742 1081.0044,-1465.8115 1079.8776,-1466.0662 1073.366,-1467.6691 1073.119,-1467.6504 1072.413,-1467.6238 1058.9723,-1467.371 1051.8141,-1467.5071 956.3333,-1517.2585 944.3663,-1520.1316 924.4207,-1525.2964 922.8723,-1524.8403 921.2235,-1524.4457 914.087,-1522.8668 908.9601,-1521.8258 889.6007,-1518.5972 887.0624,-1518.3131 825.9111,-1512.5797 762.4841,-1486.1746 809.5649,-1374.2041 813.3267,-1362.5884 824.0524,-1323.5752 826.606,-1315.6761 853.4691,-1251.7886 872.559,-1250.0562 879.4386,-1249.5898 888.7847,-1248.7459 892.3492,-1248.3439 899.5931,-1247.3641 902.9227,-1246.7639 912.8745,-1244.7441 919.3281,-1243.2892 929.0991,-1240.8672 929.4655,-1240.76 932.5154,-1239.799 952.7474,-1219.646 955.4512,-1135.6 955.0588,-1129.8 958.6237,-1018.986 965.4835,-1016.5698 974.2245,-1013.8517 987.8181,-1010.1838 989.1443,-1009.8535 1044.3413,-997.2459 1051.9487,-995.3528 1057.316,-993.908 1068.5715,-990.6491 1070.712,-989.8991 1071.2377,-989.0869 1101.2417,-970.7129 1112.4418,-964.2037 1125.5757,-956.9944 1126.609,-956.4619 1128.2341,-955.7295 1138.2277,-951.54 1150.9323,-946.6225 1154.303,-945.5385 1158.7649,-944.2468 1162.6467,-943.2474 1162.9183,-943.1862 1178.5297,-940.1599 1179.9512,-939.9304 1208.542,-936.2354 1221.8491,-933.6816 1225.6824,-932.7078 1240.3187,-928.0615 1242.8246,-927.1094 1251.5081,-923.5325 1261.9424,-918.9057 1267.9907,-916.0378 "/>
<polyline fill="none" stroke="#000000" points="544.6909,-637.6656 534.4988,-636.131 522.3832,-634.9694 509.8448,-634.4531 506.337,-634.2142 496.6887,-633.2972 479.7789,-630.3197 462.7146,-625.9349 461.1603,-625.4945 450.7972,-621.7173 439.8762,-617.4417 346.373,-575.8463 347.8673,-553.5505 348.0892,-549.0703 352.0483,-546.0371 400.8189,-507.2644 408.0816,-501.1848 414.729,-495.8661 414.7639,-495.8395 433.9923,-482.5398 443.5042,-477.0233 449.3613,-473.8435 461.0639,-467.926 477.2332,-462.1445 480.8322,-461.1252 494.2,-457.8289 517.3624,-453.8455 529.3485,-451.3334 542.0523,-447.7243 551.442,-444.3646 554.2535,-443.2562 566.5483,-437.4915 573.7094,-433.6059 578.3845,-430.8965 586.0246,-425.8928 587.262,-405.2263 587.9246,-380.8639 587.8145,-378 594.9442,-258.9223 637.8166,-285.1227 650.3022,-293.7842 680.9166,-316.5529 684.3912,-318.9224 692.6088,-324.027 701.1114,-328.7739 710.3618,-332.7676 722.8666,-336.6011 725.824,-337.1336 737.5357,-338.5172 737.866,-338.5354 744.001,-338.4904 744.8906,-338.4282 745.7188,-338.4233 754.1431,-338.9152 760.6486,-339.7137 766.9377,-340.8888 777.073,-344.0932 784.2646,-346.8253 841.3577,-372.0829 855.1937,-366.295 860.7387,-363.8007 869.2488,-359.7044 871.7482,-358.4238 880.4155,-353.7102 899.188,-298.9068 913.107,-264.2729 930.444,-223.8759 996.0851,-232.7472 1007.5881,-233.85 1018.9216,-234.4911 1022.4357,-234.6208 1033.9392,-234.5933 1033.9966,-234.5921 1039.9952,-234.3421 1050.3174,-233.5056 1059.9523,-232.5351 1066.9619,-231.6915 1137.4771,-221.8251 1147.0841,-362.3347 1147.2377,-367.1674 1147.2319,-368.3821 1147.2108,-368.8914 1148.0089,-393.8604 1149.5189,-415.9449 1157.8583,-420.8371 1165.1431,-424.8264 1166.7531,-425.6446 1225.6282,-451.0872 1242.285,-458.9583 1257.724,-468.0572 1259.3784,-469.0943 1282.9202,-486.665 1283.1688,-486.8785 1306.541,-508.8736 1312.1777,-514.82 1333.1428,-534.2628 1353.7424,-530.7781 1375.6187,-526.7122 1383.637,-525.0905 1390.3322,-523.5172 1399.7135,-521.004 1416.101,-515.7999 1426.1897,-512.2636 1431.2911,-510.3918 1438.6686,-515.6862 1553.319,-592.9332 1582.0903,-636.3158 1577.766,-669.5451 1572.6859,-716.4135 1569.3905,-768.239 1590.2644,-805.3878 1601.8828,-864.5456 1609.0062,-894.0351 1619.6663,-934.5096 1549.3912,-1020.5688 1459.1656,-1005.0347 1455.6196,-1004.5049 1437.1217,-1002.5795 1426.0244,-1002.1827 1417.3314,-1002.0699 1416.8851,-1002.0844 1413.2156,-1001.969 1410.0173,-999.197 1407.3092,-996.9581 1291.2382,-905.5503 1290.9769,-905.335 1289.0455,-903.5926 1290.7555,-889.2641 1293.3477,-849.4626 1293.4473,-848.3855 1293.7422,-845.9266 1293.9359,-844.6126 1298.1953,-808.9203 1271.3059,-771.108 1278.2617,-711.795 1279.396,-697.9629 1279.5983,-693.6076 1279.7313,-681.4926 1279.7928,-680.7388 1291.3929,-581.8233 1189.0621,-597.2338 1179.4324,-597.9998 1178.7628,-598.0292 1170.7889,-598.0976 1166.298,-597.8169 1158.876,-597.8536 1158.7358,-597.8638 1155.217,-597.8685 1146.9329,-598.1598 1144.6687,-598.1587 1142.9828,-598.2148 1140.8292,-598.2098 1136.6626,-597.9026 1125.0671,-597.8335 1122.4961,-597.905 1122.1255,-597.9404 1119.9418,-598.0704 1112.4943,-598.7661 1100.2322,-600.3267 999.8333,-616.4592 983.3705,-598.4875 899.6971,-597.2675 897.267,-597.3452 882.3305,-597.1093 880.1698,-597.2264 879.8644,-597.2283 872.0144,-597.0907 862.9786,-597.3539 862.2034,-597.3395 859.7031,-597.233 856.4009,-594.9147 752.3642,-529.028 743.5728,-523.1628 743.1489,-522.866 742.4145,-522.3266 738.3846,-519.2255 730.0757,-519.3077 726.6877,-519.267 723.3664,-519.2982 718.1283,-519.5721 718.0372,-519.6859 713.5948,-524.7609 694.2122,-544.0577 692.709,-545.4742 692.5451,-545.6202 672.8061,-562.2437 595.4404,-632.8087 592.6459,-635.5038 583.0121,-645.3129 580.9276,-647.5422 574.423,-645.1415 561.7617,-641.5029 555.6728,-639.9202 544.6909,-637.6656 "/>
<polyline fill="none" stroke="#000000" points="1309.6892,127.7126 1304.8604,127.5285 1294.0591,127.3236 1286.4883,127.3251 1205.5479,131.9893 1180.7645,119.3195 1140.6909,73.3982 1128.5236,13.222 1139.9369,-18 1188.1394,-181.9493 1137.4771,-221.8251 1147.0841,-362.3347 1147.2377,-367.1674 1147.2319,-368.3821 1147.2108,-368.8914 1148.0089,-393.8604 1149.5189,-415.9449 1157.8583,-420.8371 1165.1431,-424.8264 1166.7531,-425.6446 1225.6282,-451.0872 1242.285,-458.9583 1257.724,-468.0572 1259.3784,-469.0943 1282.9202,-486.665 1283.1688,-486.8785 1306.541,-508.8736 1312.1777,-514.82 1333.1428,-534.2628 1353.7424,-530.7781 1375.6187,-526.7122 1383.637,-525.0905 1390.3322,-523.5172 1399.7135,-521.004 1416.101,-515.7999 1426.1897,-512.2636 1431.2911,-510.3918 1453.3674,-422.6333 1451.458,-377.1769 1451.4819,-343.5234 1452.457,-299.3351 1424.9009,-205.9065 1443.948,-187.1479 1533.4216,-61.437 1516.4951,-18 1494.0131,51.441 1420.5337,110.6654 1357.5265,128.3054 1356.5049,128.6124 1346.7225,131.962 1346.0579,132.2034 1335.955,130.4626 1326.2709,128.9802 1309.6892,127.7126 "/>
<polyline fill="none" stroke="#000000" points="754.1431,-338.9152 760.6486,-339.7137 766.9377,-340.8888 777.073,-344.0932 784.2646,-346.8253 841.3577,-372.0829 855.1937,-366.295 860.7387,-363.8007 869.2488,-359.7044 871.7482,-358.4238 880.4155,-353.7102 899.188,-298.9068 913.107,-264.2729 930.444,-223.8759 896.1943,-176.9521 834.5256,-140.1622 777.9084,-131.4981 775.6656,-131.0718 772.5997,-130.4318 752.8589,-125.9401 751.1093,-125.4775 744.9179,-126.0155 733.8542,-126.5908 714.9186,-134.9997 583.8337,-228.7083 594.9442,-258.9223 637.8166,-285.1227 650.3022,-293.7842 680.9166,-316.5529 684.3912,-318.9224 692.6088,-324.027 701.1114,-328.7739 710.3618,-332.7676 722.8666,-336.6011 725.824,-337.1336 737.5357,-338.5172 737.866,-338.5354 744.001,-338.4904 744.8906,-338.4282 745.7188,-338.4233 754.1431,-338.9152 "/>
<polyline fill="none" stroke="#000000" points="433.9923,-482.5398 414.7639,-495.8395 414.729,-495.8661 408.0816,-501.1848 400.8189,-507.2644 352.0483,-546.0371 348.0892,-549.0703 342.6465,-539.7198 302.0916,-463.7434 267.9417,-395.8062 260.7663,-382.2764 244.6964,-353.4418 240.3418,-345.9605 281.0754,-268.7738 369.2737,-212.362 404.6707,-209.4731 425.4565,-207.1111 425.8676,-207.0578 429.2916,-206.5599 448.5951,-202.8248 451.6781,-202.1794 473.491,-196.5655 475.7003,-195.9622 477.7921,-196.7912 491.1091,-201.1846 583.8337,-228.7083 594.9442,-258.9223 587.8145,-378 587.9246,-380.8639 587.262,-405.2263 586.0246,-425.8928 578.3845,-430.8965 573.7094,-433.6059 566.5483,-437.4915 554.2535,-443.2562 551.442,-444.3646 542.0523,-447.7243 529.3485,-451.3334 517.3624,-453.8455 494.2,-457.8289 480.8322,-461.1252 477.2332,-462.1445 461.0639,-467.926 449.3613,-473.8435 443.5042,-477.0233 433.9923,-482.5398 "/>
<!-- apr&#45;&gt;Fedora Container Base -->
<g id="edge1" class="edge">
<title>apr&#45;&gt;Fedora Container Base</title>
<path fill="none" stroke="#444444" stroke-opacity="0.333333" d="M716.0806,-816.4604C754.2051,-826.6611 807.8187,-841.0062 850.6291,-852.4607"/>
<polygon fill="#444444" fill-opacity="0.333333" stroke="#444444" stroke-opacity="0.333333" points="849.8592,-855.8778 860.4241,-855.0815 851.6686,-849.1156 849.8592,-855.8778"/>
</g>
<!-- apr&#45;util&#45;&gt;Fedora Container Base -->
<g id="edge2" class="edge">
<title>apr&#45;util&#45;&gt;Fedora Container Base</title>
<path fill="none" stroke="#444444" stroke-opacity="0.333333" d="M875.0921,-738.0081C884.0854,-764.1748 900.7064,-812.5345 911.2593,-843.2388"/>
<polygon fill="#444444" fill-opacity="0.333333" stroke="#444444" stroke-opacity="0.333333" points="908.0253,-844.5977 914.5857,-852.9171 914.6452,-842.3224 908.0253,-844.5977"/>
</g>
<!-- apr&#45;util&#45;&gt;apr -->
<g id="edge3" class="edge">
<title>apr&#45;util&#45;&gt;apr</title>
<path fill="none" stroke="#444444" stroke-opacity="0.333333" d="M825.1352,-737.9003C794.4071,-750.6844 753.1146,-767.8636 720.5043,-781.4307"/>
<polygon fill="#444444" fill-opacity="0.333333" stroke="#444444" stroke-opacity="0.333333" points="719.0079,-778.2624 711.1195,-785.3351 721.6968,-784.7254 719.0079,-778.2624"/>
</g>
<!-- apr&#45;util&#45;&gt;apr&#45;util&#45;bdb -->
<g id="edge4" class="edge">
<title>apr&#45;util&#45;&gt;apr&#45;util&#45;bdb</title>
<path fill="none" stroke="#444444" stroke-dasharray="5,2" stroke-opacity="0.333333" d="M928.6037,-717.442C972.8766,-713.0114 1033.6227,-705.1825 1081.8642,-697.7764"/>
<polygon fill="#444444" fill-opacity="0.333333" stroke="#444444" stroke-opacity="0.333333" points="1082.6162,-701.2016 1091.9581,-696.2039 1081.5385,-694.285 1082.6162,-701.2016"/>
</g>
<!-- apr&#45;util&#45;&gt;apr&#45;util&#45;openssl -->
<g id="edge5" class="edge">
<title>apr&#45;util&#45;&gt;apr&#45;util&#45;openssl</title>
<path fill="none" stroke="#444444" stroke-dasharray="5,2" stroke-opacity="0.333333" d="M897.1706,-737.819C940.8131,-761.0585 1025.3783,-800.9129 1083.2332,-825.8657"/>
<polygon fill="#444444" fill-opacity="0.333333" stroke="#444444" stroke-opacity="0.333333" points="1082.065,-829.1728 1092.6355,-829.8891 1084.8188,-822.7372 1082.065,-829.1728"/>
</g>
<!-- apr&#45;util&#45;bdb&#45;&gt;Fedora Container Base -->
<g id="edge39" class="edge">
<title>apr&#45;util&#45;bdb&#45;&gt;Fedora Container Base</title>
<path fill="none" stroke="#444444" stroke-opacity="0.333333" d="M1137.706,-699.4599C1094.2644,-733.882 1000.1322,-808.4703 951.4401,-847.0528"/>
<polygon fill="#444444" fill-opacity="0.333333" stroke="#444444" stroke-opacity="0.333333" points="949.1283,-844.419 943.4642,-853.3727 953.4757,-849.9054 949.1283,-844.419"/>
</g>
<!-- apr&#45;util&#45;bdb&#45;&gt;apr&#45;util -->
<g id="edge40" class="edge">
<title>apr&#45;util&#45;bdb&#45;&gt;apr&#45;util</title>
<path fill="none" stroke="#444444" stroke-opacity="0.333333" d="M1091.8735,-684.4548C1045.5709,-689.3168 984.7396,-697.319 938.2992,-704.6481"/>
<polygon fill="#444444" fill-opacity="0.333333" stroke="#444444" stroke-opacity="0.333333" points="937.6396,-701.209 928.3204,-706.249 938.7486,-708.1207 937.6396,-701.209"/>
</g>
<!-- apr&#45;util&#45;openssl&#45;&gt;Fedora Container Base -->
<g id="edge41" class="edge">
<title>apr&#45;util&#45;openssl&#45;&gt;Fedora Container Base</title>
<path fill="none" stroke="#444444" stroke-opacity="0.333333" d="M1063.3883,-856.3463C1055.1383,-857.2097 1046.6425,-858.0989 1038.1019,-858.9927"/>
<polygon fill="#444444" fill-opacity="0.333333" stroke="#444444" stroke-opacity="0.333333" points="1037.6489,-855.5209 1028.0675,-860.0429 1038.3776,-862.4829 1037.6489,-855.5209"/>
</g>
<!-- apr&#45;util&#45;openssl&#45;&gt;apr&#45;util -->
<g id="edge42" class="edge">
<title>apr&#45;util&#45;openssl&#45;&gt;apr&#45;util</title>
<path fill="none" stroke="#444444" stroke-opacity="0.333333" d="M1115.5394,-829.831C1071.8969,-806.5915 987.3317,-766.7371 929.4768,-741.7843"/>
<polygon fill="#444444" fill-opacity="0.333333" stroke="#444444" stroke-opacity="0.333333" points="930.645,-738.4772 920.0745,-737.7609 927.8912,-744.9128 930.645,-738.4772"/>
</g>
<!-- device&#45;mapper&#45;libs&#45;&gt;Fedora Container Base -->
<g id="edge6" class="edge">
<title>device&#45;mapper&#45;libs&#45;&gt;Fedora Container Base</title>
<path fill="none" stroke="#444444" stroke-opacity="0.333333" d="M1212.1584,-1010.374C1151.5075,-981.4063 1032.5261,-924.579 966.9614,-893.2644"/>
<polygon fill="#444444" fill-opacity="0.333333" stroke="#444444" stroke-opacity="0.333333" points="968.2209,-889.9873 957.6888,-888.8357 965.204,-896.3038 968.2209,-889.9873"/>
</g>
<!-- device&#45;mapper&#45;libs&#45;&gt;device&#45;mapper -->
<g id="edge7" class="edge">
<title>device&#45;mapper&#45;libs&#45;&gt;device&#45;mapper</title>
<path fill="none" stroke="#444444" stroke-opacity="0.333333" d="M1211.9367,-1046.4125C1181.6357,-1064.2877 1139.9529,-1091.5548 1112.8197,-1111.3152"/>
<polygon fill="#444444" fill-opacity="0.333333" stroke="#444444" stroke-opacity="0.333333" points="1110.5012,-1108.6772 1104.5544,-1117.4457 1114.6713,-1114.2995 1110.5012,-1108.6772"/>
</g>
<!-- device&#45;mapper&#45;&gt;Fedora Container Base -->
<g id="edge14" class="edge">
<title>device&#45;mapper&#45;&gt;Fedora Container Base</title>
<path fill="none" stroke="#444444" stroke-opacity="0.333333" d="M1074.0926,-1117.4308C1045.6141,-1071.6707 970.833,-951.51 937.4248,-897.8286"/>
<polygon fill="#444444" fill-opacity="0.333333" stroke="#444444" stroke-opacity="0.333333" points="940.3144,-895.8476 932.059,-889.2068 934.3713,-899.5462 940.3144,-895.8476"/>
</g>
<!-- device&#45;mapper&#45;&gt;device&#45;mapper&#45;libs -->
<g id="edge15" class="edge">
<title>device&#45;mapper&#45;&gt;device&#45;mapper&#45;libs</title>
<path fill="none" stroke="#444444" stroke-opacity="0.333333" d="M1123.3633,-1117.5875C1153.6643,-1099.7123 1195.3471,-1072.4452 1222.4803,-1052.6848"/>
<polygon fill="#444444" fill-opacity="0.333333" stroke="#444444" stroke-opacity="0.333333" points="1224.7988,-1055.3228 1230.7456,-1046.5543 1220.6287,-1049.7005 1224.7988,-1055.3228"/>
</g>
<!-- device&#45;mapper&#45;&gt;util&#45;linux -->
<g id="edge16" class="edge">
<title>device&#45;mapper&#45;&gt;util&#45;linux</title>
<path fill="none" stroke="#444444" stroke-opacity="0.333333" d="M1083.4192,-1153.6167C1079.9564,-1185.1123 1072.7773,-1250.4091 1068.6341,-1288.0939"/>
<polygon fill="#444444" fill-opacity="0.333333" stroke="#444444" stroke-opacity="0.333333" points="1065.1163,-1288.0649 1067.5024,-1298.3875 1072.0743,-1288.83 1065.1163,-1288.0649"/>
</g>
<!-- libargon2&#45;&gt;Fedora Container Base -->
<g id="edge8" class="edge">
<title>libargon2&#45;&gt;Fedora Container Base</title>
<path fill="none" stroke="#444444" stroke-opacity="0.333333" d="M1254.7988,-1257.2498C1198.7771,-1192.4902 1008.5781,-972.6251 943.1864,-897.034"/>
<polygon fill="#444444" fill-opacity="0.333333" stroke="#444444" stroke-opacity="0.333333" points="945.7374,-894.6332 936.5479,-889.3602 940.4434,-899.2129 945.7374,-894.6332"/>
</g>
<!-- dbus&#45;common&#45;&gt;Fedora Container Base -->
<g id="edge9" class="edge">
<title>dbus&#45;common&#45;&gt;Fedora Container Base</title>
<path fill="none" stroke="#444444" stroke-opacity="0.333333" d="M577.5389,-551.016C638.347,-607.7318 824.5301,-781.385 894.2026,-846.3686"/>
<polygon fill="#444444" fill-opacity="0.333333" stroke="#444444" stroke-opacity="0.333333" points="892.0248,-849.1235 901.725,-853.3848 896.7994,-844.0045 892.0248,-849.1235"/>
</g>
<!-- dbus&#45;common&#45;&gt;dbus&#45;common -->
<g id="edge10" class="edge">
<title>dbus&#45;common&#45;&gt;dbus&#45;common</title>
<path fill="none" stroke="#444444" stroke-opacity="0.333333" d="M635.5955,-538.8433C646.345,-537.8512 653.53,-535.8434 653.53,-532.82 653.53,-530.8831 650.5813,-529.3631 645.6357,-528.2598"/>
<polygon fill="#444444" fill-opacity="0.333333" stroke="#444444" stroke-opacity="0.333333" points="645.9957,-524.7754 635.5955,-526.7967 644.9862,-531.7023 645.9957,-524.7754"/>
</g>
<!-- util&#45;linux&#45;&gt;Fedora Container Base -->
<g id="edge11" class="edge">
<title>util&#45;linux&#45;&gt;Fedora Container Base</title>
<path fill="none" stroke="#444444" stroke-opacity="0.333333" d="M1059.652,-1298.5906C1037.2825,-1229.7014 957.0381,-982.5814 929.9188,-899.0651"/>
<polygon fill="#444444" fill-opacity="0.333333" stroke="#444444" stroke-opacity="0.333333" points="933.2282,-897.9237 926.8108,-889.4935 926.5704,-900.0856 933.2282,-897.9237"/>
</g>
<!-- util&#45;linux&#45;&gt;util&#45;linux -->
<g id="edge12" class="edge">
<title>util&#45;linux&#45;&gt;util&#45;linux</title>
<path fill="none" stroke="#444444" stroke-opacity="0.333333" d="M1130.1797,-1322.8453C1140.7415,-1321.9513 1148,-1319.8695 1148,-1316.6 1148,-1314.5055 1145.0211,-1312.8984 1140.1032,-1311.7787"/>
<polygon fill="#444444" fill-opacity="0.333333" stroke="#444444" stroke-opacity="0.333333" points="1140.5755,-1308.3107 1130.1797,-1310.3547 1139.5811,-1315.2398 1140.5755,-1308.3107"/>
</g>
<!-- util&#45;linux&#45;&gt;libfdisk -->
<g id="edge13" class="edge">
<title>util&#45;linux&#45;&gt;libfdisk</title>
<path fill="none" stroke="#444444" stroke-opacity="0.333333" d="M1013.352,-1334.6307C1000.1624,-1339.1911 985.8684,-1344.1334 972.2428,-1348.8446"/>
<polygon fill="#444444" fill-opacity="0.333333" stroke="#444444" stroke-opacity="0.333333" points="970.772,-1345.6498 962.4648,-1352.2255 973.0595,-1352.2655 970.772,-1345.6498"/>
</g>
<!-- libfdisk&#45;&gt;Fedora Container Base -->
<g id="edge38" class="edge">
<title>libfdisk&#45;&gt;Fedora Container Base</title>
<path fill="none" stroke="#444444" stroke-opacity="0.333333" d="M910.5771,-1352.2441C912.1829,-1277.3537 918.3264,-990.8236 920.2858,-899.4411"/>
<polygon fill="#444444" fill-opacity="0.333333" stroke="#444444" stroke-opacity="0.333333" points="923.7881,-899.3644 920.5034,-889.2917 916.7897,-899.2143 923.7881,-899.3644"/>
</g>
<!-- httpd&#45;&gt;Fedora Container Base -->
<g id="edge17" class="edge">
<title>httpd&#45;&gt;Fedora Container Base</title>
<path fill="none" stroke="#444444" stroke-opacity="0.333333" d="M534.5681,-754.6298C618.336,-779.9192 770.1605,-825.7549 856.4287,-851.7992"/>
<polygon fill="#444444" fill-opacity="0.333333" stroke="#444444" stroke-opacity="0.333333" points="855.5183,-855.1803 866.1031,-854.7199 857.5415,-848.479 855.5183,-855.1803"/>
</g>
<!-- httpd&#45;&gt;apr -->
<g id="edge18" class="edge">
<title>httpd&#45;&gt;apr</title>
<path fill="none" stroke="#444444" stroke-opacity="0.333333" d="M526.7601,-754.6152C552.2689,-763.4681 583.1038,-774.1695 609.4047,-783.2974"/>
<polygon fill="#444444" fill-opacity="0.333333" stroke="#444444" stroke-opacity="0.333333" points="608.2763,-786.6105 618.8711,-786.5827 610.5714,-779.9974 608.2763,-786.6105"/>
</g>
<!-- httpd&#45;&gt;apr&#45;util -->
<g id="edge19" class="edge">
<title>httpd&#45;&gt;apr&#45;util</title>
<path fill="none" stroke="#444444" stroke-opacity="0.333333" d="M549.9025,-733.3953C621.7119,-730.3182 729.1728,-725.7135 799.1412,-722.7153"/>
<polygon fill="#444444" fill-opacity="0.333333" stroke="#444444" stroke-opacity="0.333333" points="799.3427,-726.21 809.1836,-722.285 799.0429,-719.2164 799.3427,-726.21"/>
</g>
<!-- httpd&#45;&gt;fedora&#45;logos&#45;httpd -->
<g id="edge20" class="edge">
<title>httpd&#45;&gt;fedora&#45;logos&#45;httpd</title>
<path fill="none" stroke="#444444" stroke-opacity="0.333333" d="M399.6895,-747.5097C337.0375,-756.5919 247.3761,-769.5893 179.3551,-779.4497"/>
<polygon fill="#444444" fill-opacity="0.333333" stroke="#444444" stroke-opacity="0.333333" points="178.4516,-776.044 169.0572,-780.9425 179.4559,-782.9716 178.4516,-776.044"/>
</g>
<!-- httpd&#45;&gt;httpd -->
<g id="edge21" class="edge">
<title>httpd&#45;&gt;httpd</title>
<path fill="none" stroke="#444444" stroke-opacity="0.333333" d="M550.0484,-742.6674C560.7194,-741.6877 567.88,-739.6686 567.88,-736.61 567.88,-734.6506 564.9413,-733.1178 560.0235,-732.0115"/>
<polygon fill="#444444" fill-opacity="0.333333" stroke="#444444" stroke-opacity="0.333333" points="560.4497,-728.5367 550.0484,-730.5526 559.4366,-735.463 560.4497,-728.5367"/>
</g>
<!-- httpd&#45;&gt;httpd&#45;tools -->
<g id="edge22" class="edge">
<title>httpd&#45;&gt;httpd&#45;tools</title>
<path fill="none" stroke="#444444" stroke-opacity="0.333333" d="M525.7933,-718.5753C564.835,-704.7457 618.8426,-685.6149 660.0915,-671.0036"/>
<polygon fill="#444444" fill-opacity="0.333333" stroke="#444444" stroke-opacity="0.333333" points="661.4944,-674.2198 669.7519,-667.5816 659.1571,-667.6215 661.4944,-674.2198"/>
</g>
<!-- httpd&#45;&gt;mailcap -->
<g id="edge23" class="edge">
<title>httpd&#45;&gt;mailcap</title>
<path fill="none" stroke="#444444" stroke-opacity="0.333333" d="M448.8277,-718.4446C390.5764,-677.828 249.7842,-579.6586 184.3325,-534.0213"/>
<polygon fill="#444444" fill-opacity="0.333333" stroke="#444444" stroke-opacity="0.333333" points="186.1911,-531.0505 175.9864,-528.2019 182.1874,-536.7925 186.1911,-531.0505"/>
</g>
<!-- httpd&#45;&gt;mod_http2 -->
<g id="edge24" class="edge">
<title>httpd&#45;&gt;mod_http2</title>
<path fill="none" stroke="#444444" stroke-opacity="0.333333" d="M481.0896,-754.7958C500.2028,-795.6282 556.5826,-894.5166 587.6465,-942.4267"/>
<polygon fill="#444444" fill-opacity="0.333333" stroke="#444444" stroke-opacity="0.333333" points="584.8915,-944.6065 593.3204,-951.0256 590.7342,-940.7512 584.8915,-944.6065"/>
</g>
<!-- httpd&#45;tools&#45;&gt;Fedora Container Base -->
<g id="edge25" class="edge">
<title>httpd&#45;tools&#45;&gt;Fedora Container Base</title>
<path fill="none" stroke="#444444" stroke-opacity="0.333333" d="M736.9906,-667.7118C772.5094,-707.0257 856.6731,-800.1819 897.6583,-845.5461"/>
<polygon fill="#444444" fill-opacity="0.333333" stroke="#444444" stroke-opacity="0.333333" points="895.2529,-848.1046 904.5539,-853.1784 900.447,-843.4119 895.2529,-848.1046"/>
</g>
<!-- httpd&#45;tools&#45;&gt;apr -->
<g id="edge26" class="edge">
<title>httpd&#45;tools&#45;&gt;apr</title>
<path fill="none" stroke="#444444" stroke-opacity="0.333333" d="M714.3038,-667.8287C705.1273,-694.4399 688.0003,-744.1072 677.2128,-775.3905"/>
<polygon fill="#444444" fill-opacity="0.333333" stroke="#444444" stroke-opacity="0.333333" points="673.7693,-774.6403 673.818,-785.2351 680.3869,-776.9224 673.7693,-774.6403"/>
</g>
<!-- httpd&#45;tools&#45;&gt;apr&#45;util -->
<g id="edge27" class="edge">
<title>httpd&#45;tools&#45;&gt;apr&#45;util</title>
<path fill="none" stroke="#444444" stroke-opacity="0.333333" d="M758.7678,-667.6379C777.9572,-676.7219 801.3886,-687.8139 821.6904,-697.4244"/>
<polygon fill="#444444" fill-opacity="0.333333" stroke="#444444" stroke-opacity="0.333333" points="820.2356,-700.608 830.7716,-701.7233 823.2307,-694.2811 820.2356,-700.608"/>
</g>
<!-- mailcap&#45;&gt;mailcap -->
<g id="edge28" class="edge">
<title>mailcap&#45;&gt;mailcap</title>
<path fill="none" stroke="#444444" stroke-opacity="0.333333" d="M208.1217,-516.3041C218.5358,-515.4782 225.81,-513.3602 225.81,-509.95 225.81,-507.8187 222.9685,-506.192 218.2949,-505.0702"/>
<polygon fill="#444444" fill-opacity="0.333333" stroke="#444444" stroke-opacity="0.333333" points="218.5203,-501.5664 208.1217,-503.5959 217.5164,-508.494 218.5203,-501.5664"/>
</g>
<!-- mod_http2&#45;&gt;Fedora Container Base -->
<g id="edge29" class="edge">
<title>mod_http2&#45;&gt;Fedora Container Base</title>
<path fill="none" stroke="#444444" stroke-opacity="0.333333" d="M666.096,-951.1792C720.5764,-934.0908 802.0819,-908.5256 858.1605,-890.9359"/>
<polygon fill="#444444" fill-opacity="0.333333" stroke="#444444" stroke-opacity="0.333333" points="859.4811,-894.1898 867.9752,-887.8574 857.3861,-887.5107 859.4811,-894.1898"/>
</g>
<!-- mod_http2&#45;&gt;httpd -->
<g id="edge30" class="edge">
<title>mod_http2&#45;&gt;httpd</title>
<path fill="none" stroke="#444444" stroke-opacity="0.333333" d="M602.2104,-951.0842C583.0972,-910.2518 526.7174,-811.3634 495.6535,-763.4533"/>
<polygon fill="#444444" fill-opacity="0.333333" stroke="#444444" stroke-opacity="0.333333" points="498.4085,-761.2735 489.9796,-754.8544 492.5658,-765.1288 498.4085,-761.2735"/>
</g>
<!-- mod_http2&#45;&gt;mod_http2 -->
<g id="edge31" class="edge">
<title>mod_http2&#45;&gt;mod_http2</title>
<path fill="none" stroke="#444444" stroke-opacity="0.333333" d="M678.0927,-975.4251C688.7102,-974.4858 695.92,-972.4341 695.92,-969.27 695.92,-967.243 692.9611,-965.6726 688.0429,-964.5586"/>
<polygon fill="#444444" fill-opacity="0.333333" stroke="#444444" stroke-opacity="0.333333" points="688.4917,-961.0872 678.0927,-963.1149 687.4865,-968.0146 688.4917,-961.0872"/>
</g>
<!-- libpcap&#45;&gt;Fedora Container Base -->
<g id="edge32" class="edge">
<title>libpcap&#45;&gt;Fedora Container Base</title>
<path fill="none" stroke="#444444" stroke-opacity="0.333333" d="M1372.9872,-873.8128C1298.5984,-873.3928 1168.933,-872.6606 1067.4881,-872.0878"/>
<polygon fill="#444444" fill-opacity="0.333333" stroke="#444444" stroke-opacity="0.333333" points="1067.4704,-868.5877 1057.4508,-872.0311 1067.4308,-875.5876 1067.4704,-868.5877"/>
</g>
<!-- libsemanage&#45;&gt;Fedora Container Base -->
<g id="edge33" class="edge">
<title>libsemanage&#45;&gt;Fedora Container Base</title>
<path fill="none" stroke="#444444" stroke-opacity="0.333333" d="M1024.3498,-395.3505C1008.1307,-469.9576 946.5848,-753.0656 926.9491,-843.3885"/>
<polygon fill="#444444" fill-opacity="0.333333" stroke="#444444" stroke-opacity="0.333333" points="923.5235,-842.6703 924.8193,-853.1856 930.3638,-844.1574 923.5235,-842.6703"/>
</g>
<!-- libsemanage&#45;&gt;libsemanage -->
<g id="edge34" class="edge">
<title>libsemanage&#45;&gt;libsemanage</title>
<path fill="none" stroke="#444444" stroke-opacity="0.333333" d="M1103.8725,-383.2374C1114.6009,-382.2577 1121.8,-380.2386 1121.8,-377.18 1121.8,-375.2206 1118.8455,-373.6878 1113.9013,-372.5815"/>
<polygon fill="#444444" fill-opacity="0.333333" stroke="#444444" stroke-opacity="0.333333" points="1114.2723,-369.0987 1103.8725,-371.1226 1113.2645,-376.0258 1114.2723,-369.0987"/>
</g>
<!-- shadow&#45;utils&#45;&gt;Fedora Container Base -->
<g id="edge35" class="edge">
<title>shadow&#45;utils&#45;&gt;Fedora Container Base</title>
<path fill="none" stroke="#444444" stroke-opacity="0.333333" d="M1126.5554,-532.9859C1090.9779,-591.503 979.2411,-775.2854 937.1477,-844.5196"/>
<polygon fill="#444444" fill-opacity="0.333333" stroke="#444444" stroke-opacity="0.333333" points="934.1168,-842.7676 931.9124,-853.1306 940.0981,-846.4042 934.1168,-842.7676"/>
</g>
<!-- shadow&#45;utils&#45;&gt;libsemanage -->
<g id="edge36" class="edge">
<title>shadow&#45;utils&#45;&gt;libsemanage</title>
<path fill="none" stroke="#444444" stroke-opacity="0.333333" d="M1123.0858,-496.5425C1104.1405,-472.6849 1070.8532,-430.7667 1049.194,-403.4915"/>
<polygon fill="#444444" fill-opacity="0.333333" stroke="#444444" stroke-opacity="0.333333" points="1051.8339,-401.1877 1042.8742,-395.5331 1046.3521,-405.5409 1051.8339,-401.1877"/>
</g>
<!-- shadow&#45;utils&#45;&gt;shadow&#45;utils -->
<g id="edge37" class="edge">
<title>shadow&#45;utils&#45;&gt;shadow&#45;utils</title>
<path fill="none" stroke="#444444" stroke-opacity="0.333333" d="M1208.4256,-520.9434C1218.969,-519.99 1226.1,-517.9489 1226.1,-514.82 1226.1,-512.8644 1223.3144,-511.3338 1218.6512,-510.228"/>
<polygon fill="#444444" fill-opacity="0.333333" stroke="#444444" stroke-opacity="0.333333" points="1218.8338,-506.7164 1208.4256,-508.6966 1217.7969,-513.6392 1218.8338,-506.7164"/>
</g>
<!-- acl&#45;&gt;Fedora Container Base -->
<g id="edge43" class="edge">
<title>acl&#45;&gt;Fedora Container Base</title>
<path fill="none" stroke="#444444" stroke-opacity="0.333333" d="M880.0689,-492.8844C886.86,-555.8317 909.5188,-765.8591 917.8137,-842.7451"/>
<polygon fill="#444444" fill-opacity="0.333333" stroke="#444444" stroke-opacity="0.333333" points="914.3772,-843.5227 918.9297,-853.0895 921.3368,-842.7718 914.3772,-843.5227"/>
</g>
<!-- cryptsetup&#45;libs&#45;&gt;Fedora Container Base -->
<g id="edge44" class="edge">
<title>cryptsetup&#45;libs&#45;&gt;Fedora Container Base</title>
<path fill="none" stroke="#444444" stroke-opacity="0.333333" d="M1350.9702,-1111.8059C1268.553,-1065.7096 1051.6813,-944.4122 961.3166,-893.8708"/>
<polygon fill="#444444" fill-opacity="0.333333" stroke="#444444" stroke-opacity="0.333333" points="962.9007,-890.7466 952.4645,-888.9198 959.4837,-896.8559 962.9007,-890.7466"/>
</g>
<!-- cryptsetup&#45;libs&#45;&gt;device&#45;mapper&#45;libs -->
<g id="edge45" class="edge">
<title>cryptsetup&#45;libs&#45;&gt;device&#45;mapper&#45;libs</title>
<path fill="none" stroke="#444444" stroke-opacity="0.333333" d="M1359.615,-1111.836C1337.862,-1095.2932 1305.5798,-1070.7433 1281.6595,-1052.5524"/>
<polygon fill="#444444" fill-opacity="0.333333" stroke="#444444" stroke-opacity="0.333333" points="1283.6567,-1049.6741 1273.5782,-1046.4068 1279.4194,-1055.246 1283.6567,-1049.6741"/>
</g>
<!-- cryptsetup&#45;libs&#45;&gt;libargon2 -->
<g id="edge46" class="edge">
<title>cryptsetup&#45;libs&#45;&gt;libargon2</title>
<path fill="none" stroke="#444444" stroke-opacity="0.333333" d="M1369.4169,-1148.121C1349.7086,-1173.4802 1313.7734,-1219.719 1291.069,-1248.9333"/>
<polygon fill="#444444" fill-opacity="0.333333" stroke="#444444" stroke-opacity="0.333333" points="1288.1334,-1247.007 1284.7605,-1257.0506 1293.6605,-1251.3025 1288.1334,-1247.007"/>
</g>
<!-- diffutils&#45;&gt;Fedora Container Base -->
<g id="edge47" class="edge">
<title>diffutils&#45;&gt;Fedora Container Base</title>
<path fill="none" stroke="#444444" stroke-opacity="0.333333" d="M492.2989,-976.8063C580.3109,-955.1322 749.0347,-913.5817 846.4725,-889.5863"/>
<polygon fill="#444444" fill-opacity="0.333333" stroke="#444444" stroke-opacity="0.333333" points="847.3802,-892.9674 856.2532,-887.1777 845.7063,-886.1705 847.3802,-892.9674"/>
</g>
<!-- iptables&#45;libs&#45;&gt;Fedora Container Base -->
<g id="edge48" class="edge">
<title>iptables&#45;libs&#45;&gt;Fedora Container Base</title>
<path fill="none" stroke="#444444" stroke-opacity="0.333333" d="M1349.8956,-719.149C1259.8463,-751.0775 1073.0616,-817.3051 978.4639,-850.8462"/>
<polygon fill="#444444" fill-opacity="0.333333" stroke="#444444" stroke-opacity="0.333333" points="977.0308,-847.6408 968.7754,-854.2814 979.3702,-854.2383 977.0308,-847.6408"/>
</g>
<!-- iptables&#45;libs&#45;&gt;libpcap -->
<g id="edge49" class="edge">
<title>iptables&#45;libs&#45;&gt;libpcap</title>
<path fill="none" stroke="#444444" stroke-opacity="0.333333" d="M1404.1536,-719.2923C1409.7058,-749.4121 1420.8493,-809.8627 1427.4515,-845.6783"/>
<polygon fill="#444444" fill-opacity="0.333333" stroke="#444444" stroke-opacity="0.333333" points="1424.0886,-846.742 1429.3435,-855.9418 1430.9726,-845.4729 1424.0886,-846.742"/>
</g>
<!-- kmod&#45;libs&#45;&gt;Fedora Container Base -->
<g id="edge50" class="edge">
<title>kmod&#45;libs&#45;&gt;Fedora Container Base</title>
<path fill="none" stroke="#444444" stroke-opacity="0.333333" d="M721.0589,-406.9865C752.5624,-480.1796 871.0389,-755.4394 909.0638,-843.7839"/>
<polygon fill="#444444" fill-opacity="0.333333" stroke="#444444" stroke-opacity="0.333333" points="905.9237,-845.3414 913.0921,-853.143 912.3534,-842.5739 905.9237,-845.3414"/>
</g>
<!-- libseccomp&#45;&gt;Fedora Container Base -->
<g id="edge51" class="edge">
<title>libseccomp&#45;&gt;Fedora Container Base</title>
<path fill="none" stroke="#444444" stroke-opacity="0.333333" d="M836.0286,-1111.62C851.7737,-1067.024 892.3882,-951.9881 911.1382,-898.8809"/>
<polygon fill="#444444" fill-opacity="0.333333" stroke="#444444" stroke-opacity="0.333333" points="914.4495,-900.0147 914.4785,-889.4199 907.8489,-897.6843 914.4495,-900.0147"/>
</g>
<!-- libxkbcommon&#45;&gt;Fedora Container Base -->
<g id="edge52" class="edge">
<title>libxkbcommon&#45;&gt;Fedora Container Base</title>
<path fill="none" stroke="#444444" stroke-opacity="0.333333" d="M1257.2724,-384.2424C1204.4651,-460.6973 1001.1947,-754.9941 939.0464,-844.973"/>
<polygon fill="#444444" fill-opacity="0.333333" stroke="#444444" stroke-opacity="0.333333" points="936.1214,-843.0493 933.3181,-853.2665 941.8811,-847.0275 936.1214,-843.0493"/>
</g>
<!-- libxkbcommon&#45;&gt;xkeyboard&#45;config -->
<g id="edge53" class="edge">
<title>libxkbcommon&#45;&gt;xkeyboard&#45;config</title>
<path fill="none" stroke="#444444" stroke-opacity="0.333333" d="M1272.5754,-347.7421C1280.9573,-290.6666 1306.75,-115.0339 1316.867,-46.1431"/>
<polygon fill="#444444" fill-opacity="0.333333" stroke="#444444" stroke-opacity="0.333333" points="1320.3609,-46.44 1318.3511,-36.0376 1313.4352,-45.4229 1320.3609,-46.44"/>
</g>
<!-- qrencode&#45;libs&#45;&gt;Fedora Container Base -->
<g id="edge54" class="edge">
<title>qrencode&#45;libs&#45;&gt;Fedora Container Base</title>
<path fill="none" stroke="#444444" stroke-opacity="0.333333" d="M588.0123,-1172.8933C647.6935,-1118.8139 824.7324,-958.3921 893.3158,-896.246"/>
<polygon fill="#444444" fill-opacity="0.333333" stroke="#444444" stroke-opacity="0.333333" points="896.0667,-898.4765 901.1269,-889.1681 891.3664,-893.2893 896.0667,-898.4765"/>
</g>
<!-- systemd&#45;pam&#45;&gt;Fedora Container Base -->
<g id="edge55" class="edge">
<title>systemd&#45;pam&#45;&gt;Fedora Container Base</title>
<path fill="none" stroke="#444444" stroke-opacity="0.333333" d="M726.7038,-1300.2218C758.04,-1230.9994 870.5322,-982.5015 908.3705,-898.9159"/>
<polygon fill="#444444" fill-opacity="0.333333" stroke="#444444" stroke-opacity="0.333333" points="911.6688,-900.1166 912.6044,-889.5631 905.2918,-897.2297 911.6688,-900.1166"/>
</g>
<!-- Fedora Container Base -->
<g id="node1" class="node">
<title>Fedora Container Base</title>
<ellipse fill="none" stroke="#000000" cx="920.89" cy="-871.26" rx="136.5" ry="18"/>
<text text-anchor="middle" x="920.89" y="-867.56" font-family="Helvetica,sans-Serif" font-weight="bold" font-size="14.00" fill="#000000">Fedora Container Base (201.6 MB)</text>
</g>
<!-- apr -->
<g id="node2" class="node">
<title>apr</title>
<text text-anchor="middle" x="667.53" y="-799.77" font-family="Helvetica,sans-Serif" font-weight="bold" font-size="14.00" fill="#000000">apr (288.2 kB)</text>
</g>
<!-- apr&#45;util -->
<g id="node3" class="node">
<title>apr&#45;util</title>
<text text-anchor="middle" x="868.81" y="-716.03" font-family="Helvetica,sans-Serif" font-weight="bold" font-size="14.00" fill="#000000">apr&#45;util (222.5 kB)</text>
</g>
<!-- apr&#45;util&#45;bdb -->
<g id="node4" class="node">
<title>apr&#45;util&#45;bdb</title>
<text text-anchor="middle" x="1160.7" y="-677.54" font-family="Helvetica,sans-Serif" font-weight="bold" font-size="14.00" fill="#000000">apr&#45;util&#45;bdb (15.5 kB)</text>
</g>
<!-- apr&#45;util&#45;openssl -->
<g id="node5" class="node">
<title>apr&#45;util&#45;openssl</title>
<text text-anchor="middle" x="1143.9" y="-844.22" font-family="Helvetica,sans-Serif" font-weight="bold" font-size="14.00" fill="#000000">apr&#45;util&#45;openssl (23.8 kB)</text>
</g>
<!-- device&#45;mapper&#45;libs -->
<g id="node6" class="node">
<title>device&#45;mapper&#45;libs</title>
<text text-anchor="middle" x="1249.9" y="-1024.7" font-family="Helvetica,sans-Serif" font-weight="bold" font-size="14.00" fill="#000000">device&#45;mapper&#45;libs (414.2 kB)</text>
</g>
<!-- device&#45;mapper -->
<g id="node7" class="node">
<title>device&#45;mapper</title>
<text text-anchor="middle" x="1085.4" y="-1131.9" font-family="Helvetica,sans-Serif" font-weight="bold" font-size="14.00" fill="#000000">device&#45;mapper (350.0 kB)</text>
</g>
<!-- libargon2 -->
<g id="node8" class="node">
<title>libargon2</title>
<text text-anchor="middle" x="1270.5" y="-1271.7" font-family="Helvetica,sans-Serif" font-weight="bold" font-size="14.00" fill="#000000">libargon2 (54.9 kB)</text>
</g>
<!-- dbus&#45;common -->
<g id="node9" class="node">
<title>dbus&#45;common</title>
<text text-anchor="middle" x="558.03" y="-529.12" font-family="Helvetica,sans-Serif" font-weight="bold" font-size="14.00" fill="#000000">dbus&#45;common (11.2 kB)</text>
</g>
<!-- util&#45;linux -->
<g id="node10" class="node">
<title>util&#45;linux</title>
<text text-anchor="middle" x="1065.5" y="-1312.9" font-family="Helvetica,sans-Serif" font-weight="bold" font-size="14.00" fill="#000000">util&#45;linux (13.2 MB)</text>
</g>
<!-- libfdisk -->
<g id="node11" class="node">
<title>libfdisk</title>
<text text-anchor="middle" x="910.19" y="-1366.6" font-family="Helvetica,sans-Serif" font-weight="bold" font-size="14.00" fill="#000000">libfdisk (476.8 kB)</text>
</g>
<!-- fedora&#45;logos&#45;httpd -->
<g id="node12" class="node">
<title>fedora&#45;logos&#45;httpd</title>
<text text-anchor="middle" x="82.5" y="-789.79" font-family="Helvetica,sans-Serif" font-weight="bold" font-size="14.00" fill="#000000">fedora&#45;logos&#45;httpd (9.9 kB)</text>
</g>
<!-- httpd -->
<g id="node13" class="node">
<title>httpd</title>
<text text-anchor="middle" x="474.88" y="-731.01" font-family="Helvetica,sans-Serif" font-weight="bold" font-size="22.00" fill="#cc0066">httpd (4.7 MB)</text>
</g>
<!-- httpd&#45;tools -->
<g id="node14" class="node">
<title>httpd&#45;tools</title>
<text text-anchor="middle" x="720.6" y="-645.87" font-family="Helvetica,sans-Serif" font-weight="bold" font-size="14.00" fill="#000000">httpd&#45;tools (204.4 kB)</text>
</g>
<!-- mailcap -->
<g id="node15" class="node">
<title>mailcap</title>
<text text-anchor="middle" x="149.81" y="-506.25" font-family="Helvetica,sans-Serif" font-weight="bold" font-size="14.00" fill="#000000">mailcap (71.2 kB)</text>
</g>
<!-- mod_http2 -->
<g id="node16" class="node">
<title>mod_http2</title>
<text text-anchor="middle" x="608.42" y="-965.57" font-family="Helvetica,sans-Serif" font-weight="bold" font-size="14.00" fill="#000000">mod_http2 (403.9 kB)</text>
</g>
<!-- libpcap -->
<g id="node17" class="node">
<title>libpcap</title>
<text text-anchor="middle" x="1432.7" y="-870.45" font-family="Helvetica,sans-Serif" font-weight="bold" font-size="14.00" fill="#000000">libpcap (381.0 kB)</text>
</g>
<!-- libsemanage -->
<g id="node18" class="node">
<title>libsemanage</title>
<text text-anchor="middle" x="1028.3" y="-373.48" font-family="Helvetica,sans-Serif" font-weight="bold" font-size="14.00" fill="#000000">libsemanage (304.6 kB)</text>
</g>
<!-- xkeyboard&#45;config -->
<g id="node19" class="node">
<title>xkeyboard&#45;config</title>
<text text-anchor="middle" x="1321" y="-14.3" font-family="Helvetica,sans-Serif" font-weight="bold" font-size="14.00" fill="#000000">xkeyboard&#45;config (5.4 MB)</text>
</g>
<!-- shadow&#45;utils -->
<g id="node20" class="node">
<title>shadow&#45;utils</title>
<text text-anchor="middle" x="1137.6" y="-511.12" font-family="Helvetica,sans-Serif" font-weight="bold" font-size="14.00" fill="#000000">shadow&#45;utils (4.0 MB)</text>
</g>
<!-- acl -->
<g id="node21" class="node">
<title>acl</title>
<text text-anchor="middle" x="878.12" y="-471.12" font-family="Helvetica,sans-Serif" font-weight="bold" font-size="14.00" fill="#000000">acl (212.0 kB)</text>
</g>
<!-- cryptsetup&#45;libs -->
<g id="node22" class="node">
<title>cryptsetup&#45;libs</title>
<text text-anchor="middle" x="1383.5" y="-1126.3" font-family="Helvetica,sans-Serif" font-weight="bold" font-size="14.00" fill="#000000">cryptsetup&#45;libs (1.8 MB)</text>
</g>
<!-- dbus -->
<g id="node23" class="node">
<title>dbus</title>
<text text-anchor="middle" x="762.5" y="-284.3" font-family="Helvetica,sans-Serif" font-weight="bold" font-size="14.00" fill="#000000">dbus (0.0 B)</text>
</g>
<!-- diffutils -->
<g id="node24" class="node">
<title>diffutils</title>
<text text-anchor="middle" x="435.15" y="-987.18" font-family="Helvetica,sans-Serif" font-weight="bold" font-size="14.00" fill="#000000">diffutils (1.5 MB)</text>
</g>
<!-- iptables&#45;libs -->
<g id="node25" class="node">
<title>iptables&#45;libs</title>
<text text-anchor="middle" x="1400.8" y="-697.4" font-family="Helvetica,sans-Serif" font-weight="bold" font-size="14.00" fill="#000000">iptables&#45;libs (141.5 kB)</text>
</g>
<!-- kmod&#45;libs -->
<g id="node26" class="node">
<title>kmod&#45;libs</title>
<text text-anchor="middle" x="713.3" y="-385.26" font-family="Helvetica,sans-Serif" font-weight="bold" font-size="14.00" fill="#000000">kmod&#45;libs (197.4 kB)</text>
</g>
<!-- libseccomp -->
<g id="node27" class="node">
<title>libseccomp</title>
<text text-anchor="middle" x="829.61" y="-1126.1" font-family="Helvetica,sans-Serif" font-weight="bold" font-size="14.00" fill="#000000">libseccomp (347.1 kB)</text>
</g>
<!-- libxkbcommon -->
<g id="node28" class="node">
<title>libxkbcommon</title>
<text text-anchor="middle" x="1269.9" y="-362.26" font-family="Helvetica,sans-Serif" font-weight="bold" font-size="14.00" fill="#000000">libxkbcommon (276.5 kB)</text>
</g>
<!-- qrencode&#45;libs -->
<g id="node29" class="node">
<title>qrencode&#45;libs</title>
<text text-anchor="middle" x="568.03" y="-1187.3" font-family="Helvetica,sans-Serif" font-weight="bold" font-size="14.00" fill="#000000">qrencode&#45;libs (159.3 kB)</text>
</g>
<!-- systemd&#45;pam -->
<g id="node30" class="node">
<title>systemd&#45;pam</title>
<text text-anchor="middle" x="718.52" y="-1314.6" font-family="Helvetica,sans-Serif" font-weight="bold" font-size="14.00" fill="#000000">systemd&#45;pam (335.8 kB)</text>
</g>
<!-- systemd&#45;rpm&#45;macros -->
<g id="node31" class="node">
<title>systemd&#45;rpm&#45;macros</title>
<text text-anchor="middle" x="451" y="-374.3" font-family="Helvetica,sans-Serif" font-weight="bold" font-size="14.00" fill="#000000">systemd&#45;rpm&#45;macros (4.9 kB)</text>
</g>
</g>

<script type="text/javascript"><![CDATA[

document.addEventListener('click', function(e) {
      e = e || window.event;
      var target = e.target || e.srcElement;
      text = target.parentElement.querySelector("title").textContent;

      console.log("Clicked on: " + text);
      // reset all strokes
      var nodes = document.getElementsByClassName("edge");

      for (index = 0, len = nodes.length; index < len; ++index) {
          //var title = nodes[index].querySelector("title").textContent.split("->");
          id = nodes[index].id;
          document.getElementById(id).querySelector("path").setAttribute("stroke-width", "1");
          document.getElementById(id).querySelector("path").setAttribute("stroke-opacity", "0.5");
          document.getElementById(id).querySelector("path").setAttribute("stroke", "#444444");
          document.getElementById(id).querySelector("polygon").setAttribute("stroke-width", "1");
          document.getElementById(id).querySelector("polygon").setAttribute("stroke-opacity", "0.5");
          document.getElementById(id).querySelector("polygon").setAttribute("stroke", "#444444");
      }
      // reset text highlight
      pkgs = document.getElementsByClassName("node");
      for (index2 = 0, len2 = pkgs.length; index2 < len2; ++index2) {
          target_id = pkgs[index2].id;
          document.getElementById(target_id).querySelector("text").setAttribute("font-weight", "normal");
      }

      // highlight deps
      var nodes = document.getElementsByClassName("edge");
      for (index = 0, len = nodes.length; index < len; ++index) {
        var title = nodes[index].querySelector("title").textContent.split("->");

        if (title[0] == text) {
          id = nodes[index].id;
          //console.log("ID:   " + id);
          document.getElementById(id).querySelector("path").setAttribute("stroke-width", "3");
          document.getElementById(id).querySelector("path").setAttribute("stroke-opacity", "1");
          document.getElementById(id).querySelector("path").setAttribute("stroke", "#aa3333");
          document.getElementById(id).querySelector("polygon").setAttribute("stroke-width", "5");
          document.getElementById(id).querySelector("polygon").setAttribute("stroke-opacity", "1");
          document.getElementById(id).querySelector("polygon").setAttribute("stroke", "#aa3333");

        }
        if (title[1] == text) {
          id = nodes[index].id;
          document.getElementById(id).querySelector("path").setAttribute("stroke-width", "3");
          document.getElementById(id).querySelector("path").setAttribute("stroke-opacity", "1");
          document.getElementById(id).querySelector("path").setAttribute("stroke", "#333377");
          document.getElementById(id).querySelector("polygon").setAttribute("stroke-width", "5");
          document.getElementById(id).querySelector("polygon").setAttribute("stroke-opacity", "1");
          document.getElementById(id).querySelector("polygon").setAttribute("stroke", "#333377");
        }

        if (title[0] == text || title[1] == text) {
          pkgs = document.getElementsByClassName("node");
          for (index2 = 0, len2 = pkgs.length; index2 < len2; ++index2) {
            var pkg_name = pkgs[index2].querySelector("title").textContent;
            if (pkg_name == title[0] || pkg_name == title[1]) {
              target_id = pkgs[index2].id;
              document.getElementById(target_id).querySelector("text").setAttribute("font-weight", "bold");
            }
          }
        }
      }


  }, false);

]]></script>

</svg>
