<?xml version="1.0" encoding="UTF-8" standalone="no"?>
<!DOCTYPE svg PUBLIC "-//W3C//DTD SVG 1.1//EN"
 "http://www.w3.org/Graphics/SVG/1.1/DTD/svg11.dtd">
<!-- Generated by graphviz version 2.40.1 (0)
 -->
<!-- Title: packages Pages: 1 -->
<svg width="1604pt" height="821pt"
 viewBox="0.00 0.00 1924.57 985.54" xmlns="http://www.w3.org/2000/svg" xmlns:xlink="http://www.w3.org/1999/xlink">
<g id="graph0" class="graph" transform="scale(.8333 .8333) rotate(0) translate(109.0703 853.7781)">
<title>packages</title>
<polygon fill="#dae2ff" stroke="transparent" points="-109.0703,131.7585 -109.0703,-853.7781 1815.5022,-853.7781 1815.5022,131.7585 -109.0703,131.7585"/>
<polygon fill="#fed9a6" stroke="#fed9a6" points="1638.3407,-163.8041 1638.1497,-182.1045 1638.1497,-182.1045 1638.3407,-163.8041 1646.39,-163.7151 1655.7698,-164.3954 1767.4072,-177.1453 1775.5989,-198.1528 1792.608,-239.0099 1783.5676,-253.1444 1713.5848,-373.6166 1811.5022,-492.8178 1802.597,-526.6444 1801.9883,-529.5317 1781.5835,-639.8514 1727.5741,-683.7399 1686.5646,-679.1057 1679.0417,-533.6898 1674.2682,-529.8848 1673.8959,-529.2592 1671.6366,-527.6166 1669.4438,-527.6166 1666.2745,-484.0323 1666.5004,-379.9036 1660.0037,-380.3354 1655.6411,-384.6797 1581.8224,-384.724 1519.1093,-381.6347 1522.062,-325.1527 1520.3828,-325.1242 1513.5092,-325.3373 1508.0243,-325.2462 1506.5302,-325.3649 1501.077,-325.2794 1496.9304,-325.4135 1490.6449,-325.0185 1490.1355,-324.9621 1491.203,-304.9599 1490.2874,-266.0198 1494.3042,-262.4935 1490.2179,-259.0378 1485.8608,-257.8338 1485.8608,-257.8338 1490.2179,-259.0378 1494.3042,-262.4935 1490.2874,-266.0198 1491.203,-304.9599 1490.1355,-324.9621 1490.6449,-325.0185 1496.9304,-325.4135 1501.077,-325.2794 1506.5302,-325.3649 1508.0243,-325.2462 1513.5092,-325.3373 1520.3828,-325.1242 1522.062,-325.1527 1519.1093,-381.6347 1581.8224,-384.724 1655.6411,-384.6797 1660.0037,-380.3354 1666.5004,-379.9036 1666.2745,-484.0323 1669.4438,-527.6166 1671.6366,-527.6166 1673.8959,-529.2592 1674.2682,-529.8848 1679.0417,-533.6898 1686.5646,-679.1057 1670.2538,-677.5636 1670.7152,-620.8883 1668.5979,-527.8648 1664.8215,-527.8648 1663.0601,-525.7483 1658.8709,-523.3427 1658.8709,-523.3427 1663.0601,-525.7483 1664.8215,-527.8648 1663.7253,-529.106 1658.2242,-532.2498 1653.6384,-532.2498 1653.6384,-532.2498 1658.2242,-532.2498 1663.7253,-529.106 1664.8215,-527.8648 1668.5979,-527.8648 1670.7152,-620.8883 1670.2538,-677.5636 1662.5552,-677.1217 1659.0182,-677.05 1645.9945,-673.3235 1645.7745,-622.8494 1644.0333,-595.924 1642.619,-527.61 1642.619,-527.61 1644.0333,-595.924 1645.7745,-622.8494 1645.9945,-673.3235 1622.5156,-668.5013 1481.1292,-642.3594 1471.6376,-618.9063 1471.5428,-618.834 1458.8273,-609.9532 1448.7916,-603.3714 1439.2389,-597.312 1434.7959,-594.6866 1429.5977,-591.7266 1420.8031,-571.1017 1415.5118,-560.418 1398.6526,-529.6397 1387.4269,-512.6732 1381.4655,-504.3039 1376.8888,-498.3802 1369.0146,-489.8128 1362.8492,-483.747 1362.4548,-465.9352 1365.0342,-431.745 1364.6024,-431.6246 1364.6024,-431.6246 1365.0342,-431.745 1362.4548,-465.9352 1362.8492,-483.747 1357.6704,-479.7055 1356.7778,-478.7515 1355.308,-476.903 1347.679,-468.5558 1314.6145,-438.2897 1313.8052,-437.428 1312.8235,-436.2162 1311.0519,-433.6775 1308.7883,-430.9435 1302.1974,-425.1013 1297.4115,-420.3697 1294.2788,-416.9519 1323.4384,-376.1337 1337.228,-374.3425 1337.5881,-366.5015 1337.5881,-366.5015 1337.228,-374.3425 1323.4384,-376.1337 1323.2213,-375.8234 1309.3384,-353.2484 1295.908,-320.6712 1295.2811,-319.4328 1288.062,-307.5317 1268.3464,-279.3309 1266.78,-276.6864 1255.8389,-269.7226 1248.0356,-264.3829 1234.4512,-253.0903 1225.0822,-244.3839 1218.8738,-238.9338 1210.5446,-231.2589 1210.2594,-223.8856 1209.2067,-211.9974 1208.7229,-204.3435 1198.8669,-196.6623 1092.1893,-117.2466 1079.1261,-107.0884 1076.4603,-104.7546 1059.74,-90.7878 1066.1824,-53.291 1072.4501,-4.2839 1162.4641,52.6804 1206.7646,58.231 1213.6183,59.2387 1221.5168,60.5713 1222.4188,60.743 1232.4404,62.8684 1252.5939,68.4598 1251.624,17.5754 1249.6449,-21.0161 1243.9661,-70.9242 1240.3123,-67.926 1234.941,-66.3893 1234.941,-66.3893 1240.3123,-67.926 1243.9661,-70.9242 1249.6449,-21.0161 1251.624,17.5754 1252.5939,68.4598 1260.681,71.2267 1262.714,63.9405 1294.9084,-42.9851 1297.1719,-53.5092 1297.2914,-54.4496 1297.3734,-56.4503 1299.2128,-70.532 1303.071,-88.0949 1314.5217,-126.1256 1312.2266,-133.5651 1307.1007,-146.2952 1331.3213,-160.2657 1340.0289,-164.8018 1341.4698,-165.4695 1349.3903,-168.696 1359.1659,-172.119 1361.7311,-172.8665 1363.2158,-173.2139 1372.2982,-174.8255 1375.5732,-175.2188 1382.0222,-175.6254 1385.6753,-175.6471 1392.8813,-176.0772 1398.7097,-176.7376 1402.1163,-177.3056 1407.8291,-178.5643 1407.8702,-178.5755 1420.183,-182.6242 1420.826,-182.8695 1430.4873,-187.0783 1431.9384,-187.7861 1439.3754,-192.2316 1446.571,-191.5054 1454.8102,-191.6653 1459.9907,-191.3376 1466.7321,-191.4539 1471.8385,-191.1196 1477.9105,-191.2108 1480.4869,-191.3528 1481.1696,-191.4456 1492.5858,-191.5798 1497.4249,-191.2364 1500.9664,-191.2701 1504.9917,-191.4699 1508.8896,-191.5027 1511.6331,-191.4131 1532.386,-189.0283 1564.9241,-160.7408 1588.8116,-163.1781 1597.3779,-163.7045 1598.0834,-163.6904 1602.6486,-163.7906 1608.2275,-163.685 1610.2969,-163.7328 1616.0525,-163.6304 1615.1398,-229.2099 1610.1909,-230.531 1605.8663,-233.9914 1606.2437,-234.5421 1609.5554,-237.2491 1609.5554,-237.2491 1606.2437,-234.5421 1605.8663,-233.9914 1610.1909,-230.531 1615.1398,-229.2099 1616.0525,-163.6304 1617.4894,-163.5461 1621.3962,-163.4811 1624.6987,-163.5642 1626.0563,-163.4882 1627.9022,-163.4618 1628.5492,-163.4794 1630.6331,-163.4519 1635.1703,-163.581 1638.3407,-163.8041 1638.3407,-163.8041"/>
<polygon fill="#fbb4ae" stroke="#fbb4ae" points="1357.6704,-479.7055 1356.7778,-478.7515 1355.308,-476.903 1347.679,-468.5558 1314.6145,-438.2897 1317.7295,-473.174 1312.3865,-477.0501 1311.485,-478.453 1309.5353,-479.8008 1312.1035,-483.017 1312.1035,-483.017 1309.5353,-479.8008 1307.8,-479.8008 1306.358,-479.4126 1303.3671,-479.4126 1297.5741,-578.9631 1294.0023,-578.8723 1293.6477,-545.6493 1287.7211,-484.0839 1292.722,-481.3149 1294.7064,-479.0594 1293.9869,-478.3064 1287.9019,-474.9101 1283.4028,-474.9101 1283.4028,-474.9101 1287.9019,-474.9101 1293.9869,-478.3064 1294.7064,-479.0594 1292.722,-481.3149 1287.7211,-484.0839 1293.6477,-545.6493 1294.0023,-578.8723 1297.5741,-578.9631 1303.3671,-479.4126 1306.358,-479.4126 1307.8,-479.8008 1309.5353,-479.8008 1311.485,-478.453 1312.3865,-477.0501 1317.7295,-473.174 1314.6145,-438.2897 1313.8052,-437.428 1312.8235,-436.2162 1311.0519,-433.6775 1308.7883,-430.9435 1302.1974,-425.1013 1297.4115,-420.3697 1294.2788,-416.9519 1323.4384,-376.1337 1323.2213,-375.8234 1309.3384,-353.2484 1295.908,-320.6712 1295.2811,-319.4328 1288.062,-307.5317 1268.3464,-279.3309 1267.6119,-304.4713 1267.6119,-304.4713 1268.3464,-279.3309 1266.78,-276.6864 1255.8389,-269.7226 1248.0356,-264.3829 1247.8431,-290.5069 1248.8181,-316.6667 1247.2399,-355.126 1241.4253,-356.915 1238.1826,-359.74 1242.2777,-363.4106 1246.9451,-364.7665 1246.9451,-364.7665 1242.2777,-363.4106 1238.1826,-359.74 1241.4253,-356.915 1247.2399,-355.126 1248.8181,-316.6667 1247.8431,-290.5069 1248.0356,-264.3829 1234.4512,-253.0903 1225.0822,-244.3839 1218.8738,-238.9338 1210.5446,-231.2589 1210.2594,-223.8856 1209.2067,-211.9974 1208.7229,-204.3435 1198.8669,-196.6623 1092.1893,-117.2466 1079.1261,-107.0884 1076.4603,-104.7546 1059.74,-90.7878 1058.7227,-91.4705 1067.1902,-244.7308 1062.1748,-241.9846 1056.4451,-241.9846 1051.0275,-245.0283 1049.8098,-246.3394 1051.2172,-247.8548 1051.2172,-247.8548 1049.8098,-246.3394 1047.969,-246.3394 1047.969,-246.3394 1049.8098,-246.3394 1051.0275,-245.0283 1056.4451,-241.9846 1062.1748,-241.9846 1067.1902,-244.7308 1058.7227,-91.4705 1058.1893,-91.8151 1037.3003,-103.8215 1034.5405,-105.2062 914.7657,-162.4683 828.931,-128.1676 820.5555,-124.6515 816.5206,-122.7122 811.2669,-121.6446 800.0391,-119.1689 791.6389,-117.1728 789.4798,-116.5109 773.3544,-112.8089 772.6528,-112.6363 677.4846,-130.8843 673.9427,-245.516 673.8909,-272.23 673.0405,-286.3194 673.0273,-293.1464 779.187,-284.9825 783.5572,-280.9457 784.0337,-280.7965 786.1434,-279.2433 789.0689,-279.2433 789.3191,-279.3146 787.1089,-376.2426 794.7179,-279.4476 794.7698,-279.4476 798.5516,-282.4785 804.4044,-284.101 808.1914,-283.1219 808.1914,-283.1219 804.4044,-284.101 798.5516,-282.4785 794.7698,-279.4476 794.7179,-279.4476 787.1089,-376.2426 789.3191,-279.3146 789.0689,-279.2433 786.1434,-279.2433 784.0337,-280.7965 783.5572,-280.9457 779.187,-284.9825 673.0273,-293.1464 669.8374,-396.3894 704.1595,-416.973 784.1596,-416.2361 785.87,-416.2531 797.3909,-417.0305 819.1144,-419.332 824.1388,-420.1518 824.5552,-420.2276 833.6378,-422.0582 861.7196,-420.6468 909.7549,-449.3277 966.5864,-458.6916 982.7893,-461.7306 992.61,-464.0148 1000.1962,-466.1213 1009.8176,-469.0101 1023.7735,-473.8268 1023.8523,-473.8557 1083.9744,-498.6381 1092.7062,-529.5117 1100.6805,-559.9001 1093.1577,-582.2927 1101.4838,-640.327 1108.2327,-697.1085 1113.8043,-779.9349 1217.6664,-812.5569 1234.1069,-818.0831 1244.9663,-821.9658 1244.2104,-746.0497 1244.2104,-746.0497 1244.9663,-821.9658 1253.489,-825.5589 1267.7445,-831.8745 1267.3286,-797.8842 1267.1115,-791.6398 1266.5405,-738.9854 1268.6727,-681.92 1272.5044,-678.6622 1267.9594,-674.8906 1263.9154,-673.828 1263.9154,-673.828 1267.9594,-674.8906 1272.5044,-678.6622 1268.6727,-681.92 1266.5405,-738.9854 1267.1115,-791.6398 1267.3286,-797.8842 1267.7445,-831.8745 1277.6696,-837.1168 1278.4431,-678.929 1278.4431,-678.929 1277.6696,-837.1168 1291.301,-844.6093 1291.131,-789.619 1289.9755,-767.2933 1289.9755,-767.2933 1291.131,-789.619 1293.2573,-742.9584 1298.49,-685.0663 1298.49,-685.0663 1293.2573,-742.9584 1291.131,-789.619 1291.301,-844.6093 1294.7058,-846.7717 1301.7556,-849.7781 1382.4083,-812.5882 1453.931,-708.061 1465.0182,-678.77 1481.1292,-642.3594 1471.6376,-618.9063 1471.5428,-618.834 1458.8273,-609.9532 1448.7916,-603.3714 1439.2389,-597.312 1434.7959,-594.6866 1429.5977,-591.7266 1420.8031,-571.1017 1415.5118,-560.418 1398.6526,-529.6397 1387.4269,-512.6732 1381.4655,-504.3039 1376.8888,-498.3802 1369.0146,-489.8128 1362.8492,-483.747 1357.6704,-479.7055 1357.6704,-479.7055"/>
<polygon fill="#bbd7d9" stroke="#bbd7d9" points="1342.4214,100.1994 1340.8118,100.1683 1300.8992,100.1369 1260.681,71.2267 1262.714,63.9405 1294.9084,-42.9851 1297.1719,-53.5092 1297.2914,-54.4496 1334.678,-56.4677 1339.7294,-52.1891 1341.8451,-101.1715 1345.9819,-50.4857 1349.403,-50.4857 1350.8944,-52.2222 1355.1256,-54.6149 1361.0496,-54.6149 1361.0496,-54.6149 1355.1256,-54.6149 1350.8944,-52.2222 1349.403,-50.4857 1345.9819,-50.4857 1341.8451,-101.1715 1339.7294,-52.1891 1334.678,-56.4677 1297.2914,-54.4496 1297.3734,-56.4503 1299.2128,-70.532 1303.071,-88.0949 1314.5217,-126.1256 1312.2266,-133.5651 1307.1007,-146.2952 1331.3213,-160.2657 1340.0289,-164.8018 1341.4698,-165.4695 1349.3903,-168.696 1359.1659,-172.119 1361.7311,-172.8665 1363.2158,-173.2139 1372.2982,-174.8255 1375.5732,-175.2188 1382.0222,-175.6254 1385.6753,-175.6471 1392.8813,-176.0772 1398.7097,-176.7376 1402.1163,-177.3056 1407.8291,-178.5643 1407.8702,-178.5755 1420.183,-182.6242 1420.826,-182.8695 1430.4873,-187.0783 1431.9384,-187.7861 1433.411,-154.6947 1437.9484,-122.6874 1441.6412,-124.6667 1446.765,-124.6667 1446.765,-124.6667 1441.6412,-124.6667 1437.9484,-122.6874 1433.411,-154.6947 1431.9384,-187.7861 1439.3754,-192.2316 1446.571,-191.5054 1454.8102,-191.6653 1459.9907,-191.3376 1466.7321,-191.4539 1471.8385,-191.1196 1477.9105,-191.2108 1480.4869,-191.3528 1481.1696,-191.4456 1492.5858,-191.5798 1497.4249,-191.2364 1500.9664,-191.2701 1504.9917,-191.4699 1508.8896,-191.5027 1511.6331,-191.4131 1532.386,-189.0283 1564.9241,-160.7408 1588.8116,-163.1781 1597.3779,-163.7045 1598.0834,-163.6904 1602.6486,-163.7906 1608.2275,-163.685 1610.2969,-163.7328 1616.0525,-163.6304 1617.4894,-163.5461 1621.3962,-163.4811 1624.6987,-163.5642 1626.0563,-163.4882 1627.9022,-163.4618 1628.5492,-163.4794 1630.6331,-163.4519 1633.9116,-96.2449 1637.355,-93.2356 1633.7356,-90.0467 1633.7356,-90.0467 1637.355,-93.2356 1633.9116,-96.2449 1630.6331,-163.4519 1635.1703,-163.581 1638.3407,-163.8041 1646.39,-163.7151 1655.7698,-164.3954 1767.4072,-177.1453 1772.3411,-132.3865 1780.1187,-75.5233 1779.3466,-72.5935 1765.5454,-7.3351 1728.5208,39.1307 1718.6423,44.189 1649.755,45.3434 1634.887,46.4783 1621.585,48.2869 1615.2365,49.4026 1549.6274,108.6164 1501.6995,127.7585 1491.1721,124.2841 1472.9779,119.4175 1456.3533,116.0187 1438.3488,113.4751 1361.1353,104.2039 1353.9971,101.001 1353.8092,100.9799 1344.5584,100.2863 1344.2327,100.268 1342.4214,100.1994 1342.4214,100.1994"/>
<polygon fill="#d8d6da" stroke="#d8d6da" points="46.2316,-107.3151 42.5584,-108.2035 -18.3492,-121.7137 -80.6886,-205.1451 -105.0703,-236.1474 -91.6853,-257.4701 -81.0955,-275.2251 -42.0465,-344.5115 -3.1967,-369.5063 31.2493,-379.0463 48.9442,-384.3235 59.6255,-387.7299 67.6075,-390.6028 82.7824,-397.0075 90.1142,-400.2514 97.4489,-404.1033 103.0338,-403.8288 111.4072,-403.692 124.8476,-403.6929 161.8169,-404.9073 167.9638,-407.5252 186.1237,-422.1884 287.4857,-462.2622 312.7594,-472.7966 315.68,-474.1939 318.054,-474.7555 320.6357,-474.3076 332.8584,-472.4002 335.9788,-471.9679 351.9707,-470.5868 352.2224,-470.5695 352.8374,-470.5378 358.9977,-470.3274 378.6555,-470.3399 390.0609,-470.9426 393.211,-469.1029 389.9378,-347.8582 385.5944,-315.9734 382.7874,-315.9734 382.7874,-315.9734 385.5944,-315.9734 389.9378,-347.8582 393.211,-469.1029 394.7102,-468.2964 497.7091,-415.2037 497.7192,-415.203 499.4016,-323.9504 499.4016,-323.9504 497.7192,-415.203 507.9459,-414.8541 509.9903,-414.8225 513.3582,-414.8336 527.0119,-415.1337 538.8131,-415.8344 541.7595,-416.1192 544.3857,-303.0164 541.5825,-272.8015 541.7029,-272.6261 541.502,-272.3437 537.9127,-269.4832 532.8076,-268.0643 532.8076,-268.0643 537.9127,-269.4832 541.502,-272.3437 541.7029,-272.6261 541.5825,-272.8015 544.3857,-303.0164 541.7595,-416.1192 555.7716,-417.999 562.8344,-419.3435 577.6553,-415.9158 669.8374,-396.3894 673.0273,-293.1464 673.0405,-286.3194 673.8909,-272.23 673.9427,-245.516 677.4846,-130.8843 652.4153,-118.4306 566.4469,-128.1151 566.2231,-128.1362 546.4899,-129.2666 528.2925,-129.2982 523.9218,-128.9825 507.9505,-127.532 497.749,-126.2287 477.4665,-122.8892 405.8413,-154.7141 338.3769,-131.1468 305.9843,-121.9502 294.562,-118.4586 279.9529,-113.3613 278.3962,-113.8384 270.0613,-116.0531 261.71,-117.9332 243.6382,-120.9087 238.3856,-121.6666 194.9668,-126.1698 181.9974,-121.6083 130.4877,-111.3331 115.7229,-108.087 102.9842,-104.7733 100.7554,-105.0937 97.1309,-105.4099 83.7116,-106.3287 83.2669,-106.3424 70.7154,-106.4934 61.12,-106.2476 52.0469,-105.6736 46.2316,-107.3151 46.2316,-107.3151"/>
<polyline fill="none" stroke="#000000" points="1372.2982,-174.8255 1375.5732,-175.2188 1382.0222,-175.6254 1385.6753,-175.6471 1392.8813,-176.0772 1398.7097,-176.7376 1402.1163,-177.3056 1407.8291,-178.5643 1407.8702,-178.5755 1420.183,-182.6242 1420.826,-182.8695 1430.4873,-187.0783 1431.9384,-187.7861 1439.3754,-192.2316 1446.571,-191.5054 1454.8102,-191.6653 1459.9907,-191.3376 1466.7321,-191.4539 1471.8385,-191.1196 1477.9105,-191.2108 1480.4869,-191.3528 1481.1696,-191.4456 1492.5858,-191.5798 1497.4249,-191.2364 1500.9664,-191.2701 1504.9917,-191.4699 1508.8896,-191.5027 1511.6331,-191.4131 1532.386,-189.0283 1564.9241,-160.7408 1588.8116,-163.1781 1597.3779,-163.7045 1598.0834,-163.6904 1602.6486,-163.7906 1608.2275,-163.685 1610.2969,-163.7328 1616.0525,-163.6304 1617.4894,-163.5461 1621.3962,-163.4811 1624.6987,-163.5642 1626.0563,-163.4882 1627.9022,-163.4618 1628.5492,-163.4794 1630.6331,-163.4519 1635.1703,-163.581 1638.3407,-163.8041 1646.39,-163.7151 1655.7698,-164.3954 1767.4072,-177.1453 1775.5989,-198.1528 1792.608,-239.0099 1783.5676,-253.1444 1713.5848,-373.6166 1811.5022,-492.8178 1802.597,-526.6444 1801.9883,-529.5317 1781.5835,-639.8514 1727.5741,-683.7399 1686.5646,-679.1057 1670.2538,-677.5636 1662.5552,-677.1217 1659.0182,-677.05 1645.9945,-673.3235 1622.5156,-668.5013 1481.1292,-642.3594 1471.6376,-618.9063 1471.5428,-618.834 1458.8273,-609.9532 1448.7916,-603.3714 1439.2389,-597.312 1434.7959,-594.6866 1429.5977,-591.7266 1420.8031,-571.1017 1415.5118,-560.418 1398.6526,-529.6397 1387.4269,-512.6732 1381.4655,-504.3039 1376.8888,-498.3802 1369.0146,-489.8128 1362.8492,-483.747 1357.6704,-479.7055 1356.7778,-478.7515 1355.308,-476.903 1347.679,-468.5558 1314.6145,-438.2897 1313.8052,-437.428 1312.8235,-436.2162 1311.0519,-433.6775 1308.7883,-430.9435 1302.1974,-425.1013 1297.4115,-420.3697 1294.2788,-416.9519 1323.4384,-376.1337 1323.2213,-375.8234 1309.3384,-353.2484 1295.908,-320.6712 1295.2811,-319.4328 1288.062,-307.5317 1268.3464,-279.3309 1266.78,-276.6864 1255.8389,-269.7226 1248.0356,-264.3829 1234.4512,-253.0903 1225.0822,-244.3839 1218.8738,-238.9338 1210.5446,-231.2589 1210.2594,-223.8856 1209.2067,-211.9974 1208.7229,-204.3435 1198.8669,-196.6623 1092.1893,-117.2466 1079.1261,-107.0884 1076.4603,-104.7546 1059.74,-90.7878 1066.1824,-53.291 1072.4501,-4.2839 1162.4641,52.6804 1206.7646,58.231 1213.6183,59.2387 1221.5168,60.5713 1222.4188,60.743 1232.4404,62.8684 1252.5939,68.4598 1260.681,71.2267 1262.714,63.9405 1294.9084,-42.9851 1297.1719,-53.5092 1297.2914,-54.4496 1297.3734,-56.4503 1299.2128,-70.532 1303.071,-88.0949 1314.5217,-126.1256 1312.2266,-133.5651 1307.1007,-146.2952 1331.3213,-160.2657 1340.0289,-164.8018 1341.4698,-165.4695 1349.3903,-168.696 1359.1659,-172.119 1361.7311,-172.8665 1363.2158,-173.2139 1372.2982,-174.8255 "/>
<polyline fill="none" stroke="#000000" points="992.61,-464.0148 982.7893,-461.7306 966.5864,-458.6916 909.7549,-449.3277 861.7196,-420.6468 833.6378,-422.0582 824.5552,-420.2276 824.1388,-420.1518 819.1144,-419.332 797.3909,-417.0305 785.87,-416.2531 784.1596,-416.2361 704.1595,-416.973 669.8374,-396.3894 673.0273,-293.1464 673.0405,-286.3194 673.8909,-272.23 673.9427,-245.516 677.4846,-130.8843 772.6528,-112.6363 773.3544,-112.8089 789.4798,-116.5109 791.6389,-117.1728 800.0391,-119.1689 811.2669,-121.6446 816.5206,-122.7122 820.5555,-124.6515 828.931,-128.1676 914.7657,-162.4683 1034.5405,-105.2062 1037.3003,-103.8215 1058.1893,-91.8151 1058.7227,-91.4705 1059.74,-90.7878 1076.4603,-104.7546 1079.1261,-107.0884 1092.1893,-117.2466 1198.8669,-196.6623 1208.7229,-204.3435 1209.2067,-211.9974 1210.2594,-223.8856 1210.5446,-231.2589 1218.8738,-238.9338 1225.0822,-244.3839 1234.4512,-253.0903 1248.0356,-264.3829 1255.8389,-269.7226 1266.78,-276.6864 1268.3464,-279.3309 1288.062,-307.5317 1295.2811,-319.4328 1295.908,-320.6712 1309.3384,-353.2484 1323.2213,-375.8234 1323.4384,-376.1337 1294.2788,-416.9519 1297.4115,-420.3697 1302.1974,-425.1013 1308.7883,-430.9435 1311.0519,-433.6775 1312.8235,-436.2162 1313.8052,-437.428 1314.6145,-438.2897 1347.679,-468.5558 1355.308,-476.903 1356.7778,-478.7515 1357.6704,-479.7055 1362.8492,-483.747 1369.0146,-489.8128 1376.8888,-498.3802 1381.4655,-504.3039 1387.4269,-512.6732 1398.6526,-529.6397 1415.5118,-560.418 1420.8031,-571.1017 1429.5977,-591.7266 1434.7959,-594.6866 1439.2389,-597.312 1448.7916,-603.3714 1458.8273,-609.9532 1471.5428,-618.834 1471.6376,-618.9063 1481.1292,-642.3594 1465.0182,-678.77 1453.931,-708.061 1382.4083,-812.5882 1301.7556,-849.7781 1294.7058,-846.7717 1291.301,-844.6093 1277.6696,-837.1168 1267.7445,-831.8745 1253.489,-825.5589 1244.9663,-821.9658 1234.1069,-818.0831 1217.6664,-812.5569 1113.8043,-779.9349 1108.2327,-697.1085 1101.4838,-640.327 1093.1577,-582.2927 1100.6805,-559.9001 1092.7062,-529.5117 1083.9744,-498.6381 1023.8523,-473.8557 1023.7735,-473.8268 1009.8176,-469.0101 1000.1962,-466.1213 992.61,-464.0148 "/>
<polyline fill="none" stroke="#000000" points="1472.9779,119.4175 1456.3533,116.0187 1438.3488,113.4751 1361.1353,104.2039 1353.9971,101.001 1353.8092,100.9799 1344.5584,100.2863 1344.2327,100.268 1342.4214,100.1994 1340.8118,100.1683 1300.8992,100.1369 1260.681,71.2267 1262.714,63.9405 1294.9084,-42.9851 1297.1719,-53.5092 1297.2914,-54.4496 1297.3734,-56.4503 1299.2128,-70.532 1303.071,-88.0949 1314.5217,-126.1256 1312.2266,-133.5651 1307.1007,-146.2952 1331.3213,-160.2657 1340.0289,-164.8018 1341.4698,-165.4695 1349.3903,-168.696 1359.1659,-172.119 1361.7311,-172.8665 1363.2158,-173.2139 1372.2982,-174.8255 1375.5732,-175.2188 1382.0222,-175.6254 1385.6753,-175.6471 1392.8813,-176.0772 1398.7097,-176.7376 1402.1163,-177.3056 1407.8291,-178.5643 1407.8702,-178.5755 1420.183,-182.6242 1420.826,-182.8695 1430.4873,-187.0783 1431.9384,-187.7861 1439.3754,-192.2316 1446.571,-191.5054 1454.8102,-191.6653 1459.9907,-191.3376 1466.7321,-191.4539 1471.8385,-191.1196 1477.9105,-191.2108 1480.4869,-191.3528 1481.1696,-191.4456 1492.5858,-191.5798 1497.4249,-191.2364 1500.9664,-191.2701 1504.9917,-191.4699 1508.8896,-191.5027 1511.6331,-191.4131 1532.386,-189.0283 1564.9241,-160.7408 1588.8116,-163.1781 1597.3779,-163.7045 1598.0834,-163.6904 1602.6486,-163.7906 1608.2275,-163.685 1610.2969,-163.7328 1616.0525,-163.6304 1617.4894,-163.5461 1621.3962,-163.4811 1624.6987,-163.5642 1626.0563,-163.4882 1627.9022,-163.4618 1628.5492,-163.4794 1630.6331,-163.4519 1635.1703,-163.581 1638.3407,-163.8041 1646.39,-163.7151 1655.7698,-164.3954 1767.4072,-177.1453 1772.3411,-132.3865 1780.1187,-75.5233 1779.3466,-72.5935 1765.5454,-7.3351 1728.5208,39.1307 1718.6423,44.189 1649.755,45.3434 1634.887,46.4783 1621.585,48.2869 1615.2365,49.4026 1549.6274,108.6164 1501.6995,127.7585 1491.1721,124.2841 1472.9779,119.4175 "/>
<polyline fill="none" stroke="#000000" points="351.9707,-470.5868 352.2224,-470.5695 352.8374,-470.5378 358.9977,-470.3274 378.6555,-470.3399 390.0609,-470.9426 393.211,-469.1029 394.7102,-468.2964 497.7091,-415.2037 497.7192,-415.203 507.9459,-414.8541 509.9903,-414.8225 513.3582,-414.8336 527.0119,-415.1337 538.8131,-415.8344 541.7595,-416.1192 555.7716,-417.999 562.8344,-419.3435 577.6553,-415.9158 669.8374,-396.3894 673.0273,-293.1464 673.0405,-286.3194 673.8909,-272.23 673.9427,-245.516 677.4846,-130.8843 652.4153,-118.4306 566.4469,-128.1151 566.2231,-128.1362 546.4899,-129.2666 528.2925,-129.2982 523.9218,-128.9825 507.9505,-127.532 497.749,-126.2287 477.4665,-122.8892 405.8413,-154.7141 338.3769,-131.1468 305.9843,-121.9502 294.562,-118.4586 279.9529,-113.3613 278.3962,-113.8384 270.0613,-116.0531 261.71,-117.9332 243.6382,-120.9087 238.3856,-121.6666 194.9668,-126.1698 181.9974,-121.6083 130.4877,-111.3331 115.7229,-108.087 102.9842,-104.7733 100.7554,-105.0937 97.1309,-105.4099 83.7116,-106.3287 83.2669,-106.3424 70.7154,-106.4934 61.12,-106.2476 52.0469,-105.6736 46.2316,-107.3151 42.5584,-108.2035 -18.3492,-121.7137 -80.6886,-205.1451 -105.0703,-236.1474 -91.6853,-257.4701 -81.0955,-275.2251 -42.0465,-344.5115 -3.1967,-369.5063 31.2493,-379.0463 48.9442,-384.3235 59.6255,-387.7299 67.6075,-390.6028 82.7824,-397.0075 90.1142,-400.2514 97.4489,-404.1033 103.0338,-403.8288 111.4072,-403.692 124.8476,-403.6929 161.8169,-404.9073 167.9638,-407.5252 186.1237,-422.1884 287.4857,-462.2622 312.7594,-472.7966 315.68,-474.1939 318.054,-474.7555 320.6357,-474.3076 332.8584,-472.4002 335.9788,-471.9679 351.9707,-470.5868 "/>
<!-- glibc&#45;&gt;glibc&#45;common -->
<g id="edge1" class="edge">
<title>glibc&#45;&gt;glibc&#45;common</title>
<path fill="none" stroke="#444444" stroke-opacity="0.333333" d="M1366.946,-249.3183C1385.5968,-277.1085 1427.5706,-329.8885 1455.8729,-361.6867"/>
<polygon fill="#444444" fill-opacity="0.333333" stroke="#444444" stroke-opacity="0.333333" points="1453.4473,-364.2226 1462.7513,-369.2909 1458.6386,-359.5268 1453.4473,-364.2226"/>
</g>
<!-- glibc&#45;&gt;glibc&#45;minimal&#45;langpack -->
<g id="edge2" class="edge">
<title>glibc&#45;&gt;glibc&#45;minimal&#45;langpack</title>
<path fill="none" stroke="#444444" stroke-opacity="0.333333" d="M1359.3105,-249.3712C1366.9649,-284.7095 1391.1815,-362.4211 1407.193,-404.0983"/>
<polygon fill="#444444" fill-opacity="0.333333" stroke="#444444" stroke-opacity="0.333333" points="1404.0324,-405.623 1410.9723,-413.6285 1410.5394,-403.0425 1404.0324,-405.623"/>
</g>
<!-- glibc&#45;&gt;basesystem -->
<g id="edge3" class="edge">
<title>glibc&#45;&gt;basesystem</title>
<path fill="none" stroke="#444444" stroke-opacity="0.333333" d="M1304.6781,-233.7742C1256.4382,-236.2435 1184.8176,-239.9097 1131.3716,-242.6456"/>
<polygon fill="#444444" fill-opacity="0.333333" stroke="#444444" stroke-opacity="0.333333" points="1131.0836,-239.1557 1121.2756,-243.1624 1131.4415,-246.1465 1131.0836,-239.1557"/>
</g>
<!-- glibc&#45;&gt;libgcc -->
<g id="edge4" class="edge">
<title>glibc&#45;&gt;libgcc</title>
<path fill="none" stroke="#444444" stroke-opacity="0.333333" d="M1343.8294,-213.0301C1322.1442,-184.842 1280.1019,-130.1926 1255.0043,-97.569"/>
<polygon fill="#444444" fill-opacity="0.333333" stroke="#444444" stroke-opacity="0.333333" points="1257.5802,-95.1772 1248.7086,-89.3854 1252.032,-99.4455 1257.5802,-95.1772"/>
</g>
<!-- glibc&#45;common&#45;&gt;glibc -->
<g id="edge22" class="edge">
<title>glibc&#45;common&#45;&gt;glibc</title>
<path fill="none" stroke="#444444" stroke-opacity="0.333333" d="M1474.554,-369.5017C1455.9032,-341.7115 1413.9294,-288.9315 1385.6271,-257.1333"/>
<polygon fill="#444444" fill-opacity="0.333333" stroke="#444444" stroke-opacity="0.333333" points="1388.0527,-254.5974 1378.7487,-249.5291 1382.8614,-259.2932 1388.0527,-254.5974"/>
</g>
<!-- glibc&#45;common&#45;&gt;bash -->
<g id="edge24" class="edge">
<title>glibc&#45;common&#45;&gt;bash</title>
<path fill="none" stroke="#444444" stroke-opacity="0.333333" d="M1407.7003,-378.7819C1374.837,-374.9048 1336.9793,-370.4384 1306.3089,-366.82"/>
<polygon fill="#444444" fill-opacity="0.333333" stroke="#444444" stroke-opacity="0.333333" points="1306.542,-363.3233 1296.2008,-365.6274 1305.7218,-370.2751 1306.542,-363.3233"/>
</g>
<!-- glibc&#45;common&#45;&gt;libselinux -->
<g id="edge23" class="edge">
<title>glibc&#45;common&#45;&gt;libselinux</title>
<path fill="none" stroke="#444444" stroke-opacity="0.333333" d="M1484.0181,-369.5694C1484.2647,-349.0013 1484.6694,-315.2492 1484.9581,-291.1721"/>
<polygon fill="#444444" fill-opacity="0.333333" stroke="#444444" stroke-opacity="0.333333" points="1488.4614,-290.9138 1485.0816,-280.8726 1481.4619,-290.8299 1488.4614,-290.9138"/>
</g>
<!-- glibc&#45;common&#45;&gt;tzdata -->
<g id="edge25" class="edge">
<title>glibc&#45;common&#45;&gt;tzdata</title>
<path fill="none" stroke="#444444" stroke-opacity="0.333333" d="M1506.286,-406.0416C1536.8874,-430.9213 1591.7303,-475.5098 1625.8086,-503.2163"/>
<polygon fill="#444444" fill-opacity="0.333333" stroke="#444444" stroke-opacity="0.333333" points="1623.6139,-505.9428 1633.581,-509.5355 1628.0298,-500.5114 1623.6139,-505.9428"/>
</g>
<!-- glibc&#45;minimal&#45;langpack&#45;&gt;glibc -->
<g id="edge26" class="edge">
<title>glibc&#45;minimal&#45;langpack&#45;&gt;glibc</title>
<path fill="none" stroke="#444444" stroke-opacity="0.333333" d="M1419.4895,-413.4588C1411.8351,-378.1205 1387.6185,-300.4089 1371.607,-258.7317"/>
<polygon fill="#444444" fill-opacity="0.333333" stroke="#444444" stroke-opacity="0.333333" points="1374.7676,-257.207 1367.8277,-249.2015 1368.2606,-259.7875 1374.7676,-257.207"/>
</g>
<!-- glibc&#45;minimal&#45;langpack&#45;&gt;glibc&#45;common -->
<g id="edge27" class="edge">
<title>glibc&#45;minimal&#45;langpack&#45;&gt;glibc&#45;common</title>
<path fill="none" stroke="#444444" stroke-opacity="0.333333" d="M1446.9645,-413.6154C1447.8753,-412.9761 1448.7925,-412.3323 1449.7128,-411.6863"/>
<polygon fill="#444444" fill-opacity="0.333333" stroke="#444444" stroke-opacity="0.333333" points="1451.8208,-414.4828 1457.995,-405.8729 1447.7992,-408.7534 1451.8208,-414.4828"/>
</g>
<!-- basesystem&#45;&gt;filesystem -->
<g id="edge28" class="edge">
<title>basesystem&#45;&gt;filesystem</title>
<path fill="none" stroke="#444444" stroke-opacity="0.333333" d="M1046.7937,-264.572C1038.6499,-276.5399 1027.8636,-292.3911 1018.7728,-305.7507"/>
<polygon fill="#444444" fill-opacity="0.333333" stroke="#444444" stroke-opacity="0.333333" points="1015.8206,-303.8677 1013.0885,-314.1043 1021.6079,-307.8058 1015.8206,-303.8677"/>
</g>
<!-- basesystem&#45;&gt;setup -->
<g id="edge29" class="edge">
<title>basesystem&#45;&gt;setup</title>
<path fill="none" stroke="#444444" stroke-opacity="0.333333" d="M997.0609,-254.3316C957.9493,-259.3616 907.5805,-265.8394 868.0772,-270.9199"/>
<polygon fill="#444444" fill-opacity="0.333333" stroke="#444444" stroke-opacity="0.333333" points="867.4945,-267.4659 858.0227,-272.213 868.3875,-274.4087 867.4945,-267.4659"/>
</g>
<!-- filesystem&#45;&gt;bash -->
<g id="edge5" class="edge">
<title>filesystem&#45;&gt;bash</title>
<path fill="none" stroke="#444444" stroke-opacity="0.333333" d="M1057.894,-344.5561C1097.191,-350.1921 1149.2096,-356.0045 1188.8044,-359.1841"/>
<polygon fill="#444444" fill-opacity="0.333333" stroke="#444444" stroke-opacity="0.333333" points="1188.6075,-362.6792 1198.8455,-359.9528 1189.1419,-355.6996 1188.6075,-362.6792"/>
</g>
<!-- filesystem&#45;&gt;setup -->
<g id="edge6" class="edge">
<title>filesystem&#45;&gt;setup</title>
<path fill="none" stroke="#444444" stroke-opacity="0.333333" d="M943.4984,-316.8712C919.8528,-310.4893 892.3329,-303.0616 868.0048,-296.4955"/>
<polygon fill="#444444" fill-opacity="0.333333" stroke="#444444" stroke-opacity="0.333333" points="868.7161,-293.0622 858.1495,-293.8355 866.892,-299.8204 868.7161,-293.0622"/>
</g>
<!-- bash&#45;&gt;glibc -->
<g id="edge30" class="edge">
<title>bash&#45;&gt;glibc</title>
<path fill="none" stroke="#444444" stroke-opacity="0.333333" d="M1262.9694,-341.6879C1281.9382,-319.5358 1314.1106,-281.9644 1335.6282,-256.8357"/>
<polygon fill="#444444" fill-opacity="0.333333" stroke="#444444" stroke-opacity="0.333333" points="1338.3641,-259.0219 1342.2098,-249.1496 1333.0471,-254.4689 1338.3641,-259.0219"/>
</g>
<!-- bash&#45;&gt;filesystem -->
<g id="edge31" class="edge">
<title>bash&#45;&gt;filesystem</title>
<path fill="none" stroke="#444444" stroke-opacity="0.333333" d="M1198.683,-348.8669C1161.2997,-343.2573 1109.2626,-337.262 1067.9185,-333.7128"/>
<polygon fill="#444444" fill-opacity="0.333333" stroke="#444444" stroke-opacity="0.333333" points="1068.1785,-330.2225 1057.924,-332.8864 1067.6015,-337.1987 1068.1785,-330.2225"/>
</g>
<!-- bash&#45;&gt;ncurses&#45;libs -->
<g id="edge32" class="edge">
<title>bash&#45;&gt;ncurses&#45;libs</title>
<path fill="none" stroke="#444444" stroke-opacity="0.333333" d="M1253.2169,-378.0286C1259.4595,-397.5159 1269.4548,-428.7179 1276.7106,-451.3682"/>
<polygon fill="#444444" fill-opacity="0.333333" stroke="#444444" stroke-opacity="0.333333" points="1273.4444,-452.645 1279.8283,-461.1005 1280.1107,-450.5094 1273.4444,-452.645"/>
</g>
<!-- setup&#45;&gt;fedora&#45;release -->
<g id="edge33" class="edge">
<title>setup&#45;&gt;fedora&#45;release</title>
<path fill="none" stroke="#444444" stroke-opacity="0.333333" d="M749.5824,-277.9002C712.2778,-277.0205 661.9439,-275.8335 619.1317,-274.8239"/>
<polygon fill="#444444" fill-opacity="0.333333" stroke="#444444" stroke-opacity="0.333333" points="619.0705,-271.3216 608.9907,-274.5848 618.9054,-278.3197 619.0705,-271.3216"/>
</g>
<!-- ncurses&#45;libs&#45;&gt;glibc -->
<g id="edge7" class="edge">
<title>ncurses&#45;libs&#45;&gt;glibc</title>
<path fill="none" stroke="#444444" stroke-opacity="0.333333" d="M1290.9943,-461.1668C1303.4511,-418.196 1334.6822,-310.4617 1349.566,-259.119"/>
<polygon fill="#444444" fill-opacity="0.333333" stroke="#444444" stroke-opacity="0.333333" points="1352.9752,-259.9291 1352.3979,-249.35 1346.252,-257.9801 1352.9752,-259.9291"/>
</g>
<!-- ncurses&#45;libs&#45;&gt;ncurses&#45;base -->
<g id="edge8" class="edge">
<title>ncurses&#45;libs&#45;&gt;ncurses&#45;base</title>
<path fill="none" stroke="#444444" stroke-opacity="0.333333" d="M1283.6907,-497.4717C1279.8124,-532.2965 1271.2693,-609.0072 1266.6361,-650.6099"/>
<polygon fill="#444444" fill-opacity="0.333333" stroke="#444444" stroke-opacity="0.333333" points="1263.1491,-650.2995 1265.5207,-660.6255 1270.1061,-651.0743 1263.1491,-650.2995"/>
</g>
<!-- libacl&#45;&gt;glibc -->
<g id="edge9" class="edge">
<title>libacl&#45;&gt;glibc</title>
<path fill="none" stroke="#444444" stroke-opacity="0.333333" d="M1460.3339,-36.1654C1440.5852,-73.6667 1395.2134,-159.8246 1371.9798,-203.9437"/>
<polygon fill="#444444" fill-opacity="0.333333" stroke="#444444" stroke-opacity="0.333333" points="1368.8046,-202.4616 1367.2419,-212.9406 1374.9983,-205.7233 1368.8046,-202.4616"/>
</g>
<!-- libacl&#45;&gt;libattr -->
<g id="edge10" class="edge">
<title>libacl&#45;&gt;libattr</title>
<path fill="none" stroke="#444444" stroke-opacity="0.333333" d="M1418.7187,-32.8449C1418.5612,-32.8905 1418.4038,-32.9362 1418.2462,-32.9819"/>
<polygon fill="#444444" fill-opacity="0.333333" stroke="#444444" stroke-opacity="0.333333" points="1419.7742,-28.8944 1411.145,-35.0416 1421.7242,-35.6173 1419.7742,-28.8944"/>
</g>
<!-- libattr&#45;&gt;glibc -->
<g id="edge11" class="edge">
<title>libattr&#45;&gt;glibc</title>
<path fill="none" stroke="#444444" stroke-opacity="0.333333" d="M1358.329,-68.6629C1358.2066,-100.2703 1357.9549,-165.2476 1357.8098,-202.7222"/>
<polygon fill="#444444" fill-opacity="0.333333" stroke="#444444" stroke-opacity="0.333333" points="1354.309,-202.9437 1357.7701,-212.9573 1361.3089,-202.9709 1354.309,-202.9437"/>
</g>
<!-- libcap&#45;&gt;glibc -->
<g id="edge12" class="edge">
<title>libcap&#45;&gt;glibc</title>
<path fill="none" stroke="#444444" stroke-opacity="0.333333" d="M1593.0976,-111.2228C1544.1386,-136.1471 1455.7684,-181.1349 1402.3407,-208.3341"/>
<polygon fill="#444444" fill-opacity="0.333333" stroke="#444444" stroke-opacity="0.333333" points="1400.4348,-205.3769 1393.1111,-213.0328 1403.6106,-211.615 1400.4348,-205.3769"/>
</g>
<!-- libselinux&#45;&gt;glibc -->
<g id="edge13" class="edge">
<title>libselinux&#45;&gt;glibc</title>
<path fill="none" stroke="#444444" stroke-opacity="0.333333" d="M1418.5103,-246.1196C1418.3521,-246.0804 1418.1938,-246.0412 1418.0356,-246.002"/>
<polygon fill="#444444" fill-opacity="0.333333" stroke="#444444" stroke-opacity="0.333333" points="1421.4958,-243.2533 1410.9476,-244.2467 1419.813,-250.0481 1421.4958,-243.2533"/>
</g>
<!-- libselinux&#45;&gt;pcre2 -->
<g id="edge14" class="edge">
<title>libselinux&#45;&gt;pcre2</title>
<path fill="none" stroke="#444444" stroke-opacity="0.333333" d="M1552.1526,-248.0183C1552.3158,-247.9826 1552.4789,-247.9468 1552.6421,-247.9111"/>
<polygon fill="#444444" fill-opacity="0.333333" stroke="#444444" stroke-opacity="0.333333" points="1550.9366,-251.8677 1559.9562,-246.3092 1549.4389,-245.0298 1550.9366,-251.8677"/>
</g>
<!-- libselinux&#45;&gt;libsepol -->
<g id="edge15" class="edge">
<title>libselinux&#45;&gt;libsepol</title>
<path fill="none" stroke="#444444" stroke-opacity="0.333333" d="M1444.5381,-280.7185C1435.0255,-284.9328 1424.7876,-289.4684 1414.925,-293.8378"/>
<polygon fill="#444444" fill-opacity="0.333333" stroke="#444444" stroke-opacity="0.333333" points="1413.3452,-290.7095 1405.62,-297.9601 1416.1806,-297.1095 1413.3452,-290.7095"/>
</g>
<!-- pcre2&#45;&gt;glibc -->
<g id="edge34" class="edge">
<title>pcre2&#45;&gt;glibc</title>
<path fill="none" stroke="#444444" stroke-opacity="0.333333" d="M1559.9598,-233.5342C1519.2766,-233.0366 1463.8669,-232.3587 1421.3298,-231.8384"/>
<polygon fill="#444444" fill-opacity="0.333333" stroke="#444444" stroke-opacity="0.333333" points="1421.128,-228.3357 1411.0859,-231.7131 1421.0423,-235.3352 1421.128,-228.3357"/>
</g>
<!-- libsepol&#45;&gt;glibc -->
<g id="edge35" class="edge">
<title>libsepol&#45;&gt;glibc</title>
<path fill="none" stroke="#444444" stroke-opacity="0.333333" d="M1363.3731,-297.9864C1362.4249,-286.8011 1361.1858,-272.1825 1360.1075,-259.4621"/>
<polygon fill="#444444" fill-opacity="0.333333" stroke="#444444" stroke-opacity="0.333333" points="1363.5818,-259.0091 1359.2496,-249.3405 1356.6068,-259.6004 1363.5818,-259.0091"/>
</g>
<!-- libsepol&#45;&gt;bash -->
<g id="edge36" class="edge">
<title>libsepol&#45;&gt;bash</title>
<path fill="none" stroke="#444444" stroke-opacity="0.333333" d="M1316.4299,-334.0969C1312.8028,-335.4511 1309.1219,-336.8254 1305.4446,-338.1984"/>
<polygon fill="#444444" fill-opacity="0.333333" stroke="#444444" stroke-opacity="0.333333" points="1303.9028,-335.0379 1295.7587,-341.8147 1306.3513,-341.5958 1303.9028,-335.0379"/>
</g>
<!-- fedora&#45;release&#45;common&#45;&gt;fedora&#45;release -->
<g id="edge16" class="edge">
<title>fedora&#45;release&#45;common&#45;&gt;fedora&#45;release</title>
<path fill="none" stroke="#444444" stroke-opacity="0.333333" d="M457.1509,-304.2251C469.5993,-301.0494 481.6306,-297.6219 492.2891,-294.1673"/>
<polygon fill="#444444" fill-opacity="0.333333" stroke="#444444" stroke-opacity="0.333333" points="493.7106,-297.3811 502.0563,-290.8542 491.4619,-290.7521 493.7106,-297.3811"/>
</g>
<!-- fedora&#45;release&#45;common&#45;&gt;fedora&#45;release -->
<g id="edge17" class="edge">
<title>fedora&#45;release&#45;common&#45;&gt;fedora&#45;release</title>
<path fill="none" stroke="#444444" stroke-dasharray="5,2" stroke-opacity="0.333333" d="M379.2996,-297.8744C397.6541,-291.3353 422.044,-284.6348 445.9563,-279.3045"/>
<polygon fill="#444444" fill-opacity="0.333333" stroke="#444444" stroke-opacity="0.333333" points="446.758,-282.7121 455.7958,-277.1833 445.2828,-275.8693 446.758,-282.7121"/>
</g>
<!-- fedora&#45;release&#45;common&#45;&gt;fedora&#45;repos -->
<g id="edge18" class="edge">
<title>fedora&#45;release&#45;common&#45;&gt;fedora&#45;repos</title>
<path fill="none" stroke="#444444" stroke-opacity="0.333333" d="M323.2122,-297.839C316.8001,-293.3242 309.8252,-288.4131 303.0804,-283.664"/>
<polygon fill="#444444" fill-opacity="0.333333" stroke="#444444" stroke-opacity="0.333333" points="304.9112,-280.6725 294.7196,-277.7771 300.8811,-286.3961 304.9112,-280.6725"/>
</g>
<!-- fedora&#45;release&#45;&gt;fedora&#45;release&#45;common -->
<g id="edge19" class="edge">
<title>fedora&#45;release&#45;&gt;fedora&#45;release&#45;common</title>
<path fill="none" stroke="#444444" stroke-opacity="0.333333" d="M455.9516,-290.7712C449.2107,-292.3563 442.3568,-293.968 435.5409,-295.5708"/>
<polygon fill="#444444" fill-opacity="0.333333" stroke="#444444" stroke-opacity="0.333333" points="434.5329,-292.2123 425.5996,-297.9086 436.1353,-299.0265 434.5329,-292.2123"/>
</g>
<!-- fedora&#45;repos&#45;&gt;fedora&#45;release -->
<g id="edge20" class="edge">
<title>fedora&#45;repos&#45;&gt;fedora&#45;release</title>
<path fill="none" stroke="#444444" stroke-opacity="0.333333" d="M337.2346,-263.0928C370.2536,-264.7313 410.278,-266.7173 445.4698,-268.4635"/>
<polygon fill="#444444" fill-opacity="0.333333" stroke="#444444" stroke-opacity="0.333333" points="445.5776,-271.9731 455.7388,-268.9731 445.9245,-264.9817 445.5776,-271.9731"/>
</g>
<!-- fedora&#45;repos&#45;&gt;fedora&#45;gpg&#45;keys -->
<g id="edge21" class="edge">
<title>fedora&#45;repos&#45;&gt;fedora&#45;gpg&#45;keys</title>
<path fill="none" stroke="#444444" stroke-opacity="0.333333" d="M200.8346,-254.5324C194.0057,-254.0142 186.9845,-253.4813 179.9332,-252.9462"/>
<polygon fill="#444444" fill-opacity="0.333333" stroke="#444444" stroke-opacity="0.333333" points="179.8361,-249.4289 169.5999,-252.162 179.3063,-256.4088 179.8361,-249.4289"/>
</g>
<!-- coreutils&#45;single&#45;&gt;glibc -->
<g id="edge37" class="edge">
<title>coreutils&#45;single&#45;&gt;glibc</title>
<path fill="none" stroke="#444444" stroke-opacity="0.333333" d="M1430.1667,-138.523C1416.0316,-156.573 1394.2833,-184.3447 1378.2984,-204.7567"/>
<polygon fill="#444444" fill-opacity="0.333333" stroke="#444444" stroke-opacity="0.333333" points="1375.4645,-202.6987 1372.0545,-212.7298 1380.9757,-207.0146 1375.4645,-202.6987"/>
</g>
<!-- coreutils&#45;single&#45;&gt;libacl -->
<g id="edge38" class="edge">
<title>coreutils&#45;single&#45;&gt;libacl</title>
<path fill="none" stroke="#444444" stroke-opacity="0.333333" d="M1449.041,-101.9451C1452.9058,-86.3916 1458.5187,-63.8029 1462.9488,-45.9745"/>
<polygon fill="#444444" fill-opacity="0.333333" stroke="#444444" stroke-opacity="0.333333" points="1466.3834,-46.6656 1465.3983,-36.1167 1459.59,-44.9775 1466.3834,-46.6656"/>
</g>
<!-- coreutils&#45;single&#45;&gt;libattr -->
<g id="edge39" class="edge">
<title>coreutils&#45;single&#45;&gt;libattr</title>
<path fill="none" stroke="#444444" stroke-opacity="0.333333" d="M1421.8782,-101.8599C1411.7935,-93.675 1399.7618,-83.9098 1388.8985,-75.093"/>
<polygon fill="#444444" fill-opacity="0.333333" stroke="#444444" stroke-opacity="0.333333" points="1390.8408,-72.1618 1380.8707,-68.5775 1386.4296,-77.5969 1390.8408,-72.1618"/>
</g>
<!-- coreutils&#45;single&#45;&gt;libcap -->
<g id="edge40" class="edge">
<title>coreutils&#45;single&#45;&gt;libcap</title>
<path fill="none" stroke="#444444" stroke-opacity="0.333333" d="M1567.2307,-102.1973C1567.3295,-102.1827 1567.4284,-102.1682 1567.5272,-102.1537"/>
<polygon fill="#444444" fill-opacity="0.333333" stroke="#444444" stroke-opacity="0.333333" points="1562.5484,-106.4226 1571.9337,-101.5066 1561.5313,-99.4969 1562.5484,-106.4226"/>
</g>
<!-- coreutils&#45;single&#45;&gt;libselinux -->
<g id="edge41" class="edge">
<title>coreutils&#45;single&#45;&gt;libselinux</title>
<path fill="none" stroke="#444444" stroke-opacity="0.333333" d="M1449.6673,-138.2601C1456.6188,-162.529 1469.0529,-205.9386 1477.2397,-234.5202"/>
<polygon fill="#444444" fill-opacity="0.333333" stroke="#444444" stroke-opacity="0.333333" points="1473.9273,-235.6668 1480.0457,-244.3164 1480.6567,-233.7392 1473.9273,-235.6668"/>
</g>
<!-- glibc -->
<g id="node1" class="node">
<title>glibc</title>
<text text-anchor="middle" x="1357.7" y="-227.36" font-family="Helvetica,sans-Serif" font-weight="bold" font-size="14.00" fill="#000000">glibc (16.5 MB)</text>
</g>
<!-- glibc&#45;common -->
<g id="node2" class="node">
<title>glibc&#45;common</title>
<text text-anchor="middle" x="1483.8" y="-384.06" font-family="Helvetica,sans-Serif" font-weight="bold" font-size="14.00" fill="#000000">glibc&#45;common (2.6 MB)</text>
</g>
<!-- glibc&#45;minimal&#45;langpack -->
<g id="node3" class="node">
<title>glibc&#45;minimal&#45;langpack</title>
<text text-anchor="middle" x="1421.1" y="-426.17" font-family="Helvetica,sans-Serif" font-weight="bold" font-size="22.00" fill="#cc0066">glibc&#45;minimal&#45;langpack (0.0 B)</text>
</g>
<!-- basesystem -->
<g id="node4" class="node">
<title>basesystem</title>
<text text-anchor="middle" x="1059.2" y="-242.64" font-family="Helvetica,sans-Serif" font-weight="bold" font-size="14.00" fill="#000000">basesystem (0.0 B)</text>
</g>
<!-- libgcc -->
<g id="node5" class="node">
<title>libgcc</title>
<text text-anchor="middle" x="1234.7" y="-67.476" font-family="Helvetica,sans-Serif" font-weight="bold" font-size="14.00" fill="#000000">libgcc (190.3 kB)</text>
</g>
<!-- filesystem -->
<g id="node6" class="node">
<title>filesystem</title>
<text text-anchor="middle" x="1000.7" y="-328.61" font-family="Helvetica,sans-Serif" font-weight="bold" font-size="14.00" fill="#000000">filesystem (0.0 B)</text>
</g>
<!-- bash -->
<g id="node7" class="node">
<title>bash</title>
<text text-anchor="middle" x="1247.4" y="-356.17" font-family="Helvetica,sans-Serif" font-weight="bold" font-size="14.00" fill="#000000">bash (7.2 MB)</text>
</g>
<!-- setup -->
<g id="node8" class="node">
<title>setup</title>
<text text-anchor="middle" x="803.85" y="-275.48" font-family="Helvetica,sans-Serif" font-weight="bold" font-size="14.00" fill="#000000">setup (709.7 kB)</text>
</g>
<!-- ncurses&#45;libs -->
<g id="node9" class="node">
<title>ncurses&#45;libs</title>
<text text-anchor="middle" x="1285.7" y="-475.73" font-family="Helvetica,sans-Serif" font-weight="bold" font-size="14.00" fill="#000000">ncurses&#45;libs (1.0 MB)</text>
</g>
<!-- ncurses&#45;base -->
<g id="node10" class="node">
<title>ncurses&#45;base</title>
<text text-anchor="middle" x="1263.5" y="-675.07" font-family="Helvetica,sans-Serif" font-weight="bold" font-size="14.00" fill="#000000">ncurses&#45;base (275.1 kB)</text>
</g>
<!-- libacl -->
<g id="node11" class="node">
<title>libacl</title>
<text text-anchor="middle" x="1469.9" y="-14.3" font-family="Helvetica,sans-Serif" font-weight="bold" font-size="14.00" fill="#000000">libacl (47.5 kB)</text>
</g>
<!-- libattr -->
<g id="node12" class="node">
<title>libattr</title>
<text text-anchor="middle" x="1358.4" y="-46.64" font-family="Helvetica,sans-Serif" font-weight="bold" font-size="14.00" fill="#000000">libattr (29.5 kB)</text>
</g>
<!-- libcap -->
<g id="node13" class="node">
<title>libcap</title>
<text text-anchor="middle" x="1628.5" y="-89.5" font-family="Helvetica,sans-Serif" font-weight="bold" font-size="14.00" fill="#000000">libcap (147.0 kB)</text>
</g>
<!-- libselinux -->
<g id="node14" class="node">
<title>libselinux</title>
<text text-anchor="middle" x="1485.3" y="-258.96" font-family="Helvetica,sans-Serif" font-weight="bold" font-size="14.00" fill="#000000">libselinux (185.3 kB)</text>
</g>
<!-- pcre2 -->
<g id="node15" class="node">
<title>pcre2</title>
<text text-anchor="middle" x="1615.2" y="-230.51" font-family="Helvetica,sans-Serif" font-weight="bold" font-size="14.00" fill="#000000">pcre2 (715.2 kB)</text>
</g>
<!-- libsepol -->
<g id="node16" class="node">
<title>libsepol</title>
<text text-anchor="middle" x="1364.9" y="-312.3" font-family="Helvetica,sans-Serif" font-weight="bold" font-size="14.00" fill="#000000">libsepol (756.0 kB)</text>
</g>
<!-- fedora&#45;release&#45;common -->
<g id="node17" class="node">
<title>fedora&#45;release&#45;common</title>
<text text-anchor="middle" x="348.92" y="-312.24" font-family="Helvetica,sans-Serif" font-weight="bold" font-size="14.00" fill="#000000">fedora&#45;release&#45;common (14.0 kB)</text>
</g>
<!-- fedora&#45;release -->
<g id="node18" class="node">
<title>fedora&#45;release</title>
<text text-anchor="middle" x="532.46" y="-269.08" font-family="Helvetica,sans-Serif" font-weight="bold" font-size="14.00" fill="#000000">fedora&#45;release (691.0 B)</text>
</g>
<!-- fedora&#45;repos -->
<g id="node19" class="node">
<title>fedora&#45;repos</title>
<text text-anchor="middle" x="269.06" y="-256.01" font-family="Helvetica,sans-Serif" font-weight="bold" font-size="14.00" fill="#000000">fedora&#45;repos (8.6 kB)</text>
</g>
<!-- fedora&#45;gpg&#45;keys -->
<g id="node20" class="node">
<title>fedora&#45;gpg&#45;keys</title>
<text text-anchor="middle" x="83" y="-241.89" font-family="Helvetica,sans-Serif" font-weight="bold" font-size="14.00" fill="#000000">fedora&#45;gpg&#45;keys (101.4 kB)</text>
</g>
<!-- tzdata -->
<g id="node21" class="node">
<title>tzdata</title>
<text text-anchor="middle" x="1655.8" y="-523.9" font-family="Helvetica,sans-Serif" font-weight="bold" font-size="14.00" fill="#000000">tzdata (1.8 MB)</text>
</g>
<!-- coreutils&#45;single -->
<g id="node22" class="node">
<title>coreutils&#45;single</title>
<text text-anchor="middle" x="1444.5" y="-114.62" font-family="Helvetica,sans-Serif" font-weight="bold" font-size="22.00" fill="#cc0066">coreutils&#45;single (1.5 MB)</text>
</g>
</g>

<script type="text/javascript"><![CDATA[

document.addEventListener('click', function(e) {
      e = e || window.event;
      var target = e.target || e.srcElement;
      text = target.parentElement.querySelector("title").textContent;

      console.log("Clicked on: " + text);
      // reset all strokes
      var nodes = document.getElementsByClassName("edge");

      for (index = 0, len = nodes.length; index < len; ++index) {
          //var title = nodes[index].querySelector("title").textContent.split("->");
          id = nodes[index].id;
          document.getElementById(id).querySelector("path").setAttribute("stroke-width", "1");
          document.getElementById(id).querySelector("path").setAttribute("stroke-opacity", "0.5");
          document.getElementById(id).querySelector("path").setAttribute("stroke", "#444444");
          document.getElementById(id).querySelector("polygon").setAttribute("stroke-width", "1");
          document.getElementById(id).querySelector("polygon").setAttribute("stroke-opacity", "0.5");
          document.getElementById(id).querySelector("polygon").setAttribute("stroke", "#444444");
      }
      // reset text highlight
      pkgs = document.getElementsByClassName("node");
      for (index2 = 0, len2 = pkgs.length; index2 < len2; ++index2) {
          target_id = pkgs[index2].id;
          document.getElementById(target_id).querySelector("text").setAttribute("font-weight", "normal");
      }

      // highlight deps
      var nodes = document.getElementsByClassName("edge");
      for (index = 0, len = nodes.length; index < len; ++index) {
        var title = nodes[index].querySelector("title").textContent.split("->");

        if (title[0] == text) {
          id = nodes[index].id;
          //console.log("ID:   " + id);
          document.getElementById(id).querySelector("path").setAttribute("stroke-width", "3");
          document.getElementById(id).querySelector("path").setAttribute("stroke-opacity", "1");
          document.getElementById(id).querySelector("path").setAttribute("stroke", "#aa3333");
          document.getElementById(id).querySelector("polygon").setAttribute("stroke-width", "5");
          document.getElementById(id).querySelector("polygon").setAttribute("stroke-opacity", "1");
          document.getElementById(id).querySelector("polygon").setAttribute("stroke", "#aa3333");

        }
        if (title[1] == text) {
          id = nodes[index].id;
          document.getElementById(id).querySelector("path").setAttribute("stroke-width", "3");
          document.getElementById(id).querySelector("path").setAttribute("stroke-opacity", "1");
          document.getElementById(id).querySelector("path").setAttribute("stroke", "#333377");
          document.getElementById(id).querySelector("polygon").setAttribute("stroke-width", "5");
          document.getElementById(id).querySelector("polygon").setAttribute("stroke-opacity", "1");
          document.getElementById(id).querySelector("polygon").setAttribute("stroke", "#333377");
        }

        if (title[0] == text || title[1] == text) {
          pkgs = document.getElementsByClassName("node");
          for (index2 = 0, len2 = pkgs.length; index2 < len2; ++index2) {
            var pkg_name = pkgs[index2].querySelector("title").textContent;
            if (pkg_name == title[0] || pkg_name == title[1]) {
              target_id = pkgs[index2].id;
              document.getElementById(target_id).querySelector("text").setAttribute("font-weight", "bold");
            }
          }
        }
      }


  }, false);

]]></script>


  <text
     
     id="text7664"
     y="19.384439"
     x="9.9055691"
     style="font-style:normal;font-weight:normal;font-size:12.49485588px;line-height:125%;font-family:sans-serif;letter-spacing:0px;word-spacing:0px;fill:#000000;fill-opacity:1;stroke:none;stroke-width:0.3123714px;stroke-linecap:butt;stroke-linejoin:miter;stroke-opacity:1"
     xml:space="preserve"><tspan
       style="font-size:12.00258541px;stroke-width:0.3123714px"
       y="19.384439"
       x="9.9055691"
       id="tspan7666"
       ><a href="report-base-definition--minimal-langpack-base-2--31.html"><tspan
   style="font-weight:bold;font-size:12.00258541px;fill:#0066ff;stroke-width:0.3123714px"
   id="tspan7668">Minimal Base 2</tspan></a> (Fedora 31)</tspan></text>
  <text
     xml:space="preserve"
     style="font-style:normal;font-weight:normal;font-size:11.85299969px;line-height:125%;font-family:sans-serif;letter-spacing:0px;word-spacing:0px;fill:#000000;fill-opacity:1;stroke:none;stroke-width:0.296325px;stroke-linecap:butt;stroke-linejoin:miter;stroke-opacity:1"
     x="9.9365959"
     y="36.915382"
     id="text8235"><tspan
       
       id="tspan8237"
       x="9.9365959"
       y="36.915382"
       style="font-size:10.80232716px;fill:#666666;stroke-width:0.296325px">Generated by <a href="./"><tspan
   style="fill:#3771c8"
   id="tspan8255">Feedback Pipeline</tspan></a></tspan></text>

</svg>
