<?xml version="1.0" encoding="UTF-8" standalone="no"?>
<!DOCTYPE svg PUBLIC "-//W3C//DTD SVG 1.1//EN"
 "http://www.w3.org/Graphics/SVG/1.1/DTD/svg11.dtd">
<!-- Generated by graphviz version 2.40.1 (0)
 -->
<!-- Title: packages Pages: 1 -->
<svg width="1663pt" height="818pt"
 viewBox="0.00 0.00 1995.67 981.66" xmlns="http://www.w3.org/2000/svg" xmlns:xlink="http://www.w3.org/1999/xlink">
<g id="graph0" class="graph" transform="scale(.8333 .8333) rotate(0) translate(127.2962 826.6292)">
<title>packages</title>
<polygon fill="#dae2ff" stroke="transparent" points="-127.2962,155.0304 -127.2962,-826.6292 1868.3763,-826.6292 1868.3763,155.0304 -127.2962,155.0304"/>
<polygon fill="#fed9a6" stroke="#fed9a6" points="1717.8252,-708.2512 1719.1594,-708.1418 1722.9045,-707.9847 1802.9305,-706.2247 1860.0353,-641.2547 1859.8938,-576.1983 1860.8707,-553.6067 1864.3763,-500.3747 1787.2355,-433.0556 1778.1899,-394.3863 1731.5923,-400.2401 1644.4001,-408.0397 1644.4001,-408.0397 1731.5923,-400.2401 1778.1899,-394.3863 1761.4202,-304.2386 1694.4021,-255.1359 1692.5059,-249.7786 1622.6687,-150.7859 1546.0812,-110.2979 1532.7084,-102.9423 1524.649,-107.7851 1505.6512,-117.9705 1495.1953,-122.6709 1483.2401,-127.7885 1465.2405,-134.7107 1427.6091,-221.07 1415.1908,-264.0675 1409.9503,-279.5306 1409.7301,-280.1001 1389.9135,-325.5768 1388.4703,-325.8083 1380.7163,-326.8431 1379.681,-326.9532 1368.2413,-327.8614 1358.5414,-327.844 1357.7825,-327.8807 1355.0222,-333.2911 1346.299,-349.2426 1346.2284,-349.3617 1337.1885,-363.4761 1329.9373,-373.8062 1316.4297,-395.6901 1310.6852,-406.9668 1301.2426,-430.8376 1293.238,-444.0883 1278.165,-465.5612 1275.2664,-465.4884 1273.9766,-465.4036 1264.7986,-465.5905 1264.4636,-465.5837 1262.0684,-465.6382 1261.3734,-465.684 1254.2965,-465.5747 1247.4197,-465.7654 1245.4327,-465.659 1238.4432,-465.8862 1228.7452,-466.6189 1176.4164,-472.808 1147.9681,-534.2818 1142.924,-543.6177 1107.3934,-604.9816 1162.0112,-651.0015 1237.2324,-693.1477 1247.4596,-543.3838 1252.5017,-539.335 1252.6942,-539.032 1254.9529,-537.431 1256.3806,-537.431 1257.3536,-537.7016 1261.4132,-537.7016 1263.0817,-537.2205 1266.1488,-537.2205 1268.2432,-539.6362 1272.2633,-541.8305 1277.6711,-541.8305 1283.0206,-538.7404 1283.0206,-538.7404 1277.6711,-541.8305 1272.2633,-541.8305 1268.2432,-539.6362 1266.1488,-537.2205 1263.0817,-537.2205 1261.4132,-537.7016 1257.3536,-537.7016 1256.3806,-537.431 1254.9529,-537.431 1252.6942,-539.032 1252.5017,-539.335 1247.4596,-543.3838 1237.2324,-693.1477 1237.63,-693.3796 1248.7841,-696.8375 1258.3326,-699.9758 1265.8132,-702.5728 1266.9001,-699.7285 1279.1475,-670.6185 1293.0786,-643.8701 1302.7686,-626.3981 1302.7686,-626.3981 1293.0786,-643.8701 1279.1475,-670.6185 1266.9001,-699.7285 1265.8132,-702.5728 1271.3271,-707.5753 1292.34,-741.8136 1419.6055,-822.3856 1419.9771,-822.6292 1428.4611,-821.1693 1430.9946,-820.7747 1440.2015,-819.491 1455.3898,-817.8696 1462.9517,-817.3101 1461.4545,-705.295 1457.7726,-655.1708 1457.2239,-655.1708 1452.8583,-651.3215 1448.1355,-650.0143 1450.1672,-617.3448 1455.5668,-616.3376 1465.6262,-612.6406 1465.823,-612.5511 1474.9154,-607.5629 1495.5453,-594.4273 1438.1646,-587.0751 1436.5071,-617.9744 1432.8281,-618.0052 1432.7081,-618.0173 1431.9415,-618.0252 1426.3865,-581.4945 1423.3772,-581.4945 1422.9067,-581.3641 1418.689,-581.3641 1417.057,-581.8374 1416.353,-581.8374 1413.3223,-584.3209 1413.3223,-584.3209 1416.353,-581.8374 1417.057,-581.8374 1418.689,-581.3641 1422.9067,-581.3641 1423.3772,-581.4945 1426.3865,-581.4945 1431.9415,-618.0252 1432.7081,-618.0173 1432.8281,-618.0052 1432.89,-582.4493 1431.7109,-581.481 1431.7109,-581.481 1432.89,-582.4493 1432.8281,-618.0052 1436.5071,-617.9744 1438.1646,-587.0751 1495.5453,-594.4273 1474.9154,-607.5629 1465.823,-612.5511 1465.6262,-612.6406 1455.5668,-616.3376 1450.1672,-617.3448 1448.1355,-650.0143 1452.8583,-651.3215 1457.2239,-655.1708 1457.7726,-655.1708 1461.4545,-705.295 1463.8065,-654.9511 1466.4259,-654.9511 1468.2523,-657.7246 1468.2523,-657.7246 1466.4259,-654.9511 1463.8065,-654.9511 1461.4545,-705.295 1462.9517,-817.3101 1468.0503,-817.0994 1520.5699,-816.6437 1535.8604,-814.2988 1550.6377,-810.8066 1618.7841,-720.4467 1667.965,-713.6105 1689.2739,-711.0635 1691.8737,-710.8553 1695.9567,-710.6085 1699.095,-710.163 1699.792,-673.3864 1704.4172,-573.2743 1708.9373,-570.7764 1710.8398,-568.5955 1709.8156,-567.4453 1704.4852,-564.3614 1698.3452,-564.3614 1694.1588,-566.6813 1690.0819,-484.3108 1687.0574,-485.295 1680.677,-487.1271 1680.7244,-514.9194 1680.7244,-514.9194 1680.677,-487.1271 1687.0574,-485.295 1690.0819,-484.3108 1704.6624,-479.0018 1705.1381,-478.793 1716.3041,-473.4559 1723.7733,-469.6045 1760.1262,-448.119 1644.4751,-419.0617 1640.835,-414.9243 1638.8915,-414.0131 1638.5024,-413.673 1634.7155,-413.673 1633.907,-413.8961 1629.4351,-413.8961 1628.8051,-414.0674 1625.2887,-414.0674 1624.8236,-413.9403 1620.2976,-413.9403 1618.8462,-413.5301 1615.5636,-413.5301 1611.939,-379.7617 1608.9105,-413.7736 1605.8022,-413.7736 1605.6462,-413.8174 1599.2112,-413.8174 1599.1735,-413.8067 1594.6798,-413.8067 1594.3871,-413.7263 1590.0073,-413.7263 1589.3058,-413.9164 1586.136,-413.9164 1581.2023,-454.0818 1579.8552,-415.7037 1574.9252,-418.42 1570.8309,-418.42 1564.5745,-414.8009 1567.2794,-443.7608 1566.8401,-462.5521 1577.7235,-470.3059 1578.8976,-471.238 1528.6661,-484.9716 1526.4395,-487.3621 1523.9703,-488.0794 1521.4143,-489.8971 1519.7557,-489.8971 1519.4486,-489.9862 1512.4628,-489.9862 1512.42,-489.9739 1509.4042,-489.9739 1505.2255,-536.7113 1503.1272,-489.7719 1502.7617,-489.7719 1498.0084,-493.7996 1493.8867,-494.9104 1488.0696,-493.2381 1483.9576,-489.784 1483.692,-489.784 1483.4957,-489.8384 1478.1517,-489.8384 1477.9137,-489.7721 1472.9875,-489.7721 1472.7817,-489.8286 1472.7817,-489.8286 1472.9875,-489.7721 1477.9137,-489.7721 1478.1517,-489.8384 1483.4957,-489.8384 1483.692,-489.784 1483.9576,-489.784 1488.0696,-493.2381 1493.8867,-494.9104 1498.0084,-493.7996 1502.7617,-489.7719 1503.1272,-489.7719 1505.2255,-536.7113 1509.4042,-489.9739 1512.42,-489.9739 1512.4628,-489.9862 1519.4486,-489.9862 1519.7557,-489.8971 1521.4143,-489.8971 1523.9703,-488.0794 1526.4395,-487.3621 1528.6661,-484.9716 1578.8976,-471.238 1577.7235,-470.3059 1566.8401,-462.5521 1567.2794,-443.7608 1564.5745,-414.8009 1563.6089,-413.7411 1560.6226,-413.7411 1560.178,-413.6191 1556.1543,-413.6191 1554.6675,-414.034 1551.2344,-414.034 1549.761,-413.6232 1546.5251,-413.6232 1543.4486,-385.4243 1544.2083,-343.8926 1537.7379,-343.9203 1534.9636,-280.8936 1529.8151,-277.7307 1527.6168,-274.6224 1525.5298,-274.6224 1524.8588,-274.4301 1524.4512,-201.5871 1518.9987,-274.2765 1518.7139,-274.2765 1514.9409,-271.1672 1509.5626,-269.6319 1504.3807,-271.1456 1504.3807,-271.1456 1509.5626,-269.6319 1514.9409,-271.1672 1518.7139,-274.2765 1518.9987,-274.2765 1524.4512,-201.5871 1524.8588,-274.4301 1525.5298,-274.6224 1527.6168,-274.6224 1529.8151,-277.7307 1534.9636,-280.8936 1537.7379,-343.9203 1544.2083,-343.8926 1543.4486,-385.4243 1546.5251,-413.6232 1549.761,-413.6232 1551.2344,-414.034 1554.6675,-414.034 1556.1543,-413.6191 1560.178,-413.6191 1560.6226,-413.7411 1563.6089,-413.7411 1564.5745,-414.8009 1570.8309,-418.42 1574.9252,-418.42 1579.8552,-415.7037 1581.6993,-413.6315 1580.5457,-412.3859 1575.3124,-409.4677 1575.3124,-409.4677 1580.5457,-412.3859 1581.6993,-413.6315 1579.8552,-415.7037 1581.2023,-454.0818 1586.136,-413.9164 1589.3058,-413.9164 1590.0073,-413.7263 1594.3871,-413.7263 1594.6798,-413.8067 1599.1735,-413.8067 1599.2112,-413.8174 1605.6462,-413.8174 1605.8022,-413.7736 1608.9105,-413.7736 1611.939,-379.7617 1615.5636,-413.5301 1618.8462,-413.5301 1620.2976,-413.9403 1624.8236,-413.9403 1625.2887,-414.0674 1628.8051,-414.0674 1629.4351,-413.8961 1633.907,-413.8961 1634.7155,-413.673 1638.5024,-413.673 1638.8915,-414.0131 1640.835,-414.9243 1644.4751,-419.0617 1760.1262,-448.119 1723.7733,-469.6045 1716.3041,-473.4559 1705.1381,-478.793 1704.6624,-479.0018 1690.0819,-484.3108 1694.1588,-566.6813 1698.3452,-564.3614 1704.4852,-564.3614 1709.8156,-567.4453 1710.8398,-568.5955 1708.9373,-570.7764 1704.4172,-573.2743 1699.792,-673.3864 1699.095,-710.163 1717.8252,-708.2512 1717.8252,-708.2512"/>
<polygon fill="#d8d6da" stroke="#d8d6da" points="1310.6852,-406.9668 1316.4297,-395.6901 1329.9373,-373.8062 1337.1885,-363.4761 1346.2284,-349.3617 1346.299,-349.2426 1355.0222,-333.2911 1357.7825,-327.8807 1345.59,-322.308 1336.4022,-318.4012 1332.6641,-316.9329 1323.7728,-314.2819 1312.2573,-311.2112 1295.2028,-308.2852 1281.5211,-307.242 1267.0479,-305.6302 1259.2102,-304.2108 1249.1616,-302.0406 1246.2115,-301.302 1244.2501,-300.7433 1242.0935,-300.0537 1229.921,-295.7303 1152.0387,-265.385 1132.3269,-258.1967 1127.4233,-249.805 1026.3333,-240.1173 1015.9088,-238.9194 1005.637,-237.3478 986.8745,-233.4007 979.2837,-231.5158 963.7028,-227.0532 940.731,-220.0432 851.0923,-248.6089 832.5347,-245.8691 828.497,-245.9131 821.963,-247.9238 812.5984,-250.6607 811.6299,-250.9286 802.895,-253.2097 781.7488,-257.749 783.403,-345.064 790.1887,-425.8911 785.3887,-429.8286 785.2587,-430.0127 789.2589,-433.1309 794.3801,-434.521 799.658,-433.0352 803.6318,-429.713 799.6234,-426.3822 799.6234,-426.3822 803.6318,-429.713 799.658,-433.0352 794.3801,-434.521 789.2589,-433.1309 785.2587,-430.0127 785.3887,-429.8286 790.1887,-425.8911 783.403,-345.064 781.7488,-257.749 776.6095,-258.6113 772.28,-260.8792 769.2741,-262.3954 738.145,-277.4964 647.7081,-331.8053 651.4651,-414.827 651.7866,-431.436 651.7285,-440.21 651.9221,-442.9239 657.5068,-566.3329 696.2469,-589.7565 766.8979,-589.8403 777.4553,-590.1962 781.7431,-590.4106 784.8902,-588.9133 799.9396,-582.0533 799.9493,-582.0496 821.9887,-574.2034 818.407,-481.8769 818.407,-481.8769 821.9887,-574.2034 917.147,-544.1675 992.5952,-587.0333 1034.0347,-598.9914 1037.3817,-600.0219 1040.1232,-600.9189 1049.8857,-604.4957 1054.5524,-604.123 1063.2065,-603.7293 1063.2697,-597.2805 1063.2697,-597.2805 1063.2065,-603.7293 1072.0206,-603.6313 1092.0518,-604.0978 1107.3934,-604.9816 1142.924,-543.6177 1147.9681,-534.2818 1176.4164,-472.808 1228.7452,-466.6189 1238.4432,-465.8862 1245.4327,-465.659 1247.4197,-465.7654 1254.2965,-465.5747 1261.3734,-465.684 1262.0684,-465.6382 1264.4636,-465.5837 1264.7986,-465.5905 1273.9766,-465.4036 1275.2664,-465.4884 1278.165,-465.5612 1293.238,-444.0883 1301.2426,-430.8376 1310.6852,-406.9668 1310.6852,-406.9668"/>
<polygon fill="#fbb4ae" stroke="#fbb4ae" points="1377.9564,135.3251 1399.7292,135.5736 1401.8926,135.6355 1496.1516,78.6272 1516.55,15.221 1530.1139,-23.7457 1530.0717,-36.0658 1532.7084,-102.9423 1524.649,-107.7851 1505.6512,-117.9705 1495.1953,-122.6709 1483.2401,-127.7885 1465.2405,-134.7107 1427.6091,-221.07 1415.1908,-264.0675 1409.9503,-279.5306 1409.7301,-280.1001 1389.9135,-325.5768 1388.4703,-325.8083 1380.7163,-326.8431 1379.681,-326.9532 1368.2413,-327.8614 1358.5414,-327.844 1356.7297,-290.9076 1356.1818,-227.5248 1350.8035,-224.6567 1348.2356,-221.4408 1350.1849,-220.0932 1350.1849,-220.0932 1348.2356,-221.4408 1350.8035,-224.6567 1356.1818,-227.5248 1356.7297,-290.9076 1358.5414,-327.844 1357.7825,-327.8807 1345.59,-322.308 1336.4022,-318.4012 1332.6641,-316.9329 1323.7728,-314.2819 1312.2573,-311.2112 1295.2028,-308.2852 1281.5211,-307.242 1267.0479,-305.6302 1259.2102,-304.2108 1249.1616,-302.0406 1246.2115,-301.302 1244.2501,-300.7433 1242.0935,-300.0537 1229.921,-295.7303 1152.0387,-265.385 1292.3635,-226.2184 1295.2228,-222.9193 1297.3157,-222.0868 1298.8229,-220.8447 1298.2607,-219.9552 1298.2607,-219.9552 1298.8229,-220.8447 1297.3157,-222.0868 1295.2228,-222.9193 1292.3635,-226.2184 1152.0387,-265.385 1132.3269,-258.1967 1127.4233,-249.805 1152.9498,-199.0397 1195.1034,-105.1361 1173.8046,-33.5087 1166.2632,-9.9912 1163.3274,-1.9661 1213.4811,82.3826 1272.7028,147.3937 1279.0059,151.0304 1308.3406,144.2904 1322.9888,141.1739 1327.85,140.2236 1335.9457,138.7805 1336.2719,138.7281 1348.8138,137.1406 1355.4302,136.5313 1357.2354,-14.2805 1352.7197,-13.0921 1346.5781,-14.8203 1342.8444,-17.7877 1342.7838,-17.771 1342.7838,-17.771 1342.8444,-17.7877 1342.8494,-17.7949 1347.0177,-21.2636 1352.045,-22.6885 1352.045,-22.6885 1347.0177,-21.2636 1342.8494,-17.7949 1342.8444,-17.7877 1346.5781,-14.8203 1352.7197,-13.0921 1357.2354,-14.2805 1355.4302,136.5313 1368.8521,135.5265 1377.4531,135.328 1377.9564,135.3251 1377.9564,135.3251"/>
<polygon fill="#bbd7d9" stroke="#bbd7d9" points="49.6923,-566.1329 31.39,-560.809 -70.2331,-533.126 -123.2962,-456.8899 -117.128,-413.7431 -115.6623,-399.7249 -109.4491,-326.8739 -42.1001,-276.434 47.0324,-254.3948 47.3497,-254.424 50.5451,-254.6639 61.5164,-255.1184 66.0728,-255.1537 76.2535,-254.8895 86.2053,-254.4635 91.2515,-254.1624 102.0149,-253.1579 103.2942,-253.4222 123.3592,-256.1925 125.7622,-256.4828 177.4248,-261.8332 196.3781,-268.9167 223.0172,-268.5289 245.7504,-267.7947 256.3275,-266.8911 269.9994,-265.2379 277.1585,-264.1189 296.6007,-260.3896 300.1403,-259.5239 393.0323,-304.6426 437.5394,-297.887 469.0455,-296.3911 475.8207,-295.6932 494.4341,-293.0826 498.2807,-292.401 500.849,-292.5574 512.309,-292.8435 525.2439,-292.7014 536.1735,-291.9923 537.276,-291.901 647.7081,-331.8053 651.4651,-414.827 651.7866,-431.436 651.7285,-440.21 651.9221,-442.9239 657.5068,-566.3329 541.469,-591.4944 527.0267,-594.8913 521.6696,-596.2482 524.0068,-440.4495 519.5739,-440.4495 517.8905,-439.9691 515.0009,-439.9691 511.5739,-411.9137 507.8453,-439.6358 504.758,-437.161 504.758,-437.161 507.8453,-439.6358 508.1467,-440.0697 504.2875,-443.3311 504.2875,-443.3311 508.1467,-440.0697 507.8453,-439.6358 511.5739,-411.9137 515.0009,-439.9691 517.8905,-439.9691 519.5739,-440.4495 524.0068,-440.4495 521.6696,-596.2482 516.206,-597.7308 511.2791,-599.2464 501.2126,-577.1176 498.416,-571.2736 495.3311,-565.722 492.4206,-560.737 479.59,-539.8455 471.2061,-527.0007 471.6194,-465.1978 475.6323,-440.3976 474.8196,-440.1685 474.8196,-440.1685 475.6323,-440.3976 471.6194,-465.1978 471.2061,-527.0007 479.59,-539.8455 492.4206,-560.737 495.3311,-565.722 498.416,-571.2736 501.2126,-577.1176 511.2791,-599.2464 442.0226,-660.7953 397.5218,-659.3201 384.6384,-659.0985 382.629,-659.128 372.8686,-659.4271 359.6658,-660.4641 346.9478,-661.8695 338.9019,-662.8867 338.76,-662.9114 319.3178,-666.6126 321.8484,-530.7104 319.2821,-491.8855 319.2821,-491.8855 321.8484,-530.7104 319.3178,-666.6126 310.5457,-668.5615 292.3057,-673.4883 276.5416,-677.9948 149.839,-586.6132 123.7833,-585.8732 119.8796,-585.876 100.475,-586.1728 99.0183,-585.4071 90.1076,-581.2108 85.1861,-579.0707 76.7285,-575.5446 75.8147,-438.9804 72.1653,-409.3471 73.9488,-408.8459 78.6837,-412.844 82.9421,-413.9728 87.3337,-412.8002 90.2941,-440.5387 93.7347,-409.0817 96.7895,-409.0817 101.312,-455.9961 102.8074,-409.1199 102.5708,-409.0535 102.5708,-409.0535 102.8074,-409.1199 101.312,-455.9961 96.7895,-409.0817 93.7347,-409.0817 90.2941,-440.5387 87.3337,-412.8002 82.9421,-413.9728 78.6837,-412.844 73.9488,-408.8459 72.1653,-409.3471 75.8147,-438.9804 76.7285,-575.5446 66.7886,-571.7582 57.2346,-568.4628 49.6923,-566.1329 49.6923,-566.1329"/>
<polyline fill="none" stroke="#000000" points="1368.2413,-327.8614 1358.5414,-327.844 1357.7825,-327.8807 1355.0222,-333.2911 1346.299,-349.2426 1346.2284,-349.3617 1337.1885,-363.4761 1329.9373,-373.8062 1316.4297,-395.6901 1310.6852,-406.9668 1301.2426,-430.8376 1293.238,-444.0883 1278.165,-465.5612 1275.2664,-465.4884 1273.9766,-465.4036 1264.7986,-465.5905 1264.4636,-465.5837 1262.0684,-465.6382 1261.3734,-465.684 1254.2965,-465.5747 1247.4197,-465.7654 1245.4327,-465.659 1238.4432,-465.8862 1228.7452,-466.6189 1176.4164,-472.808 1147.9681,-534.2818 1142.924,-543.6177 1107.3934,-604.9816 1162.0112,-651.0015 1237.2324,-693.1477 1237.63,-693.3796 1248.7841,-696.8375 1258.3326,-699.9758 1265.8132,-702.5728 1271.3271,-707.5753 1292.34,-741.8136 1419.6055,-822.3856 1419.9771,-822.6292 1428.4611,-821.1693 1430.9946,-820.7747 1440.2015,-819.491 1455.3898,-817.8696 1462.9517,-817.3101 1468.0503,-817.0994 1520.5699,-816.6437 1535.8604,-814.2988 1550.6377,-810.8066 1618.7841,-720.4467 1667.965,-713.6105 1689.2739,-711.0635 1691.8737,-710.8553 1695.9567,-710.6085 1699.095,-710.163 1717.8252,-708.2512 1719.1594,-708.1418 1722.9045,-707.9847 1802.9305,-706.2247 1860.0353,-641.2547 1859.8938,-576.1983 1860.8707,-553.6067 1864.3763,-500.3747 1787.2355,-433.0556 1778.1899,-394.3863 1761.4202,-304.2386 1694.4021,-255.1359 1692.5059,-249.7786 1622.6687,-150.7859 1546.0812,-110.2979 1532.7084,-102.9423 1524.649,-107.7851 1505.6512,-117.9705 1495.1953,-122.6709 1483.2401,-127.7885 1465.2405,-134.7107 1427.6091,-221.07 1415.1908,-264.0675 1409.9503,-279.5306 1409.7301,-280.1001 1389.9135,-325.5768 1388.4703,-325.8083 1380.7163,-326.8431 1379.681,-326.9532 1368.2413,-327.8614 "/>
<polyline fill="none" stroke="#000000" points="986.8745,-233.4007 979.2837,-231.5158 963.7028,-227.0532 940.731,-220.0432 851.0923,-248.6089 832.5347,-245.8691 828.497,-245.9131 821.963,-247.9238 812.5984,-250.6607 811.6299,-250.9286 802.895,-253.2097 781.7488,-257.749 776.6095,-258.6113 772.28,-260.8792 769.2741,-262.3954 738.145,-277.4964 647.7081,-331.8053 651.4651,-414.827 651.7866,-431.436 651.7285,-440.21 651.9221,-442.9239 657.5068,-566.3329 696.2469,-589.7565 766.8979,-589.8403 777.4553,-590.1962 781.7431,-590.4106 784.8902,-588.9133 799.9396,-582.0533 799.9493,-582.0496 821.9887,-574.2034 917.147,-544.1675 992.5952,-587.0333 1034.0347,-598.9914 1037.3817,-600.0219 1040.1232,-600.9189 1049.8857,-604.4957 1054.5524,-604.123 1063.2065,-603.7293 1072.0206,-603.6313 1092.0518,-604.0978 1107.3934,-604.9816 1142.924,-543.6177 1147.9681,-534.2818 1176.4164,-472.808 1228.7452,-466.6189 1238.4432,-465.8862 1245.4327,-465.659 1247.4197,-465.7654 1254.2965,-465.5747 1261.3734,-465.684 1262.0684,-465.6382 1264.4636,-465.5837 1264.7986,-465.5905 1273.9766,-465.4036 1275.2664,-465.4884 1278.165,-465.5612 1293.238,-444.0883 1301.2426,-430.8376 1310.6852,-406.9668 1316.4297,-395.6901 1329.9373,-373.8062 1337.1885,-363.4761 1346.2284,-349.3617 1346.299,-349.2426 1355.0222,-333.2911 1357.7825,-327.8807 1345.59,-322.308 1336.4022,-318.4012 1332.6641,-316.9329 1323.7728,-314.2819 1312.2573,-311.2112 1295.2028,-308.2852 1281.5211,-307.242 1267.0479,-305.6302 1259.2102,-304.2108 1249.1616,-302.0406 1246.2115,-301.302 1244.2501,-300.7433 1242.0935,-300.0537 1229.921,-295.7303 1152.0387,-265.385 1132.3269,-258.1967 1127.4233,-249.805 1026.3333,-240.1173 1015.9088,-238.9194 1005.637,-237.3478 986.8745,-233.4007 "/>
<polyline fill="none" stroke="#000000" points="1323.7728,-314.2819 1332.6641,-316.9329 1336.4022,-318.4012 1345.59,-322.308 1357.7825,-327.8807 1358.5414,-327.844 1368.2413,-327.8614 1379.681,-326.9532 1380.7163,-326.8431 1388.4703,-325.8083 1389.9135,-325.5768 1409.7301,-280.1001 1409.9503,-279.5306 1415.1908,-264.0675 1427.6091,-221.07 1465.2405,-134.7107 1483.2401,-127.7885 1495.1953,-122.6709 1505.6512,-117.9705 1524.649,-107.7851 1532.7084,-102.9423 1530.0717,-36.0658 1530.1139,-23.7457 1516.55,15.221 1496.1516,78.6272 1401.8926,135.6355 1399.7292,135.5736 1377.9564,135.3251 1377.4531,135.328 1368.8521,135.5265 1355.4302,136.5313 1348.8138,137.1406 1336.2719,138.7281 1335.9457,138.7805 1327.85,140.2236 1322.9888,141.1739 1308.3406,144.2904 1279.0059,151.0304 1272.7028,147.3937 1213.4811,82.3826 1163.3274,-1.9661 1166.2632,-9.9912 1173.8046,-33.5087 1195.1034,-105.1361 1152.9498,-199.0397 1127.4233,-249.805 1132.3269,-258.1967 1152.0387,-265.385 1229.921,-295.7303 1242.0935,-300.0537 1244.2501,-300.7433 1246.2115,-301.302 1249.1616,-302.0406 1259.2102,-304.2108 1267.0479,-305.6302 1281.5211,-307.242 1295.2028,-308.2852 1312.2573,-311.2112 1323.7728,-314.2819 "/>
<polyline fill="none" stroke="#000000" points="346.9478,-661.8695 359.6658,-660.4641 372.8686,-659.4271 382.629,-659.128 384.6384,-659.0985 397.5218,-659.3201 442.0226,-660.7953 511.2791,-599.2464 516.206,-597.7308 521.6696,-596.2482 527.0267,-594.8913 541.469,-591.4944 657.5068,-566.3329 651.9221,-442.9239 651.7285,-440.21 651.7866,-431.436 651.4651,-414.827 647.7081,-331.8053 537.276,-291.901 536.1735,-291.9923 525.2439,-292.7014 512.309,-292.8435 500.849,-292.5574 498.2807,-292.401 494.4341,-293.0826 475.8207,-295.6932 469.0455,-296.3911 437.5394,-297.887 393.0323,-304.6426 300.1403,-259.5239 296.6007,-260.3896 277.1585,-264.1189 269.9994,-265.2379 256.3275,-266.8911 245.7504,-267.7947 223.0172,-268.5289 196.3781,-268.9167 177.4248,-261.8332 125.7622,-256.4828 123.3592,-256.1925 103.2942,-253.4222 102.0149,-253.1579 91.2515,-254.1624 86.2053,-254.4635 76.2535,-254.8895 66.0728,-255.1537 61.5164,-255.1184 50.5451,-254.6639 47.3497,-254.424 47.0324,-254.3948 -42.1001,-276.434 -109.4491,-326.8739 -115.6623,-399.7249 -117.128,-413.7431 -123.2962,-456.8899 -70.2331,-533.126 31.39,-560.809 49.6923,-566.1329 57.2346,-568.4628 66.7886,-571.7582 76.7285,-575.5446 85.1861,-579.0707 90.1076,-581.2108 99.0183,-585.4071 100.475,-586.1728 119.8796,-585.876 123.7833,-585.8732 149.839,-586.6132 276.5416,-677.9948 292.3057,-673.4883 310.5457,-668.5615 319.3178,-666.6126 338.76,-662.9114 338.9019,-662.8867 346.9478,-661.8695 "/>
<!-- glibc&#45;&gt;glibc&#45;common -->
<g id="edge1" class="edge">
<title>glibc&#45;&gt;glibc&#45;common</title>
<path fill="none" stroke="#444444" stroke-opacity="0.333333" d="M1391.4443,-453.1522C1401.1956,-457.9351 1412.62,-463.1127 1424.2272,-468.0542"/>
<polygon fill="#444444" fill-opacity="0.333333" stroke="#444444" stroke-opacity="0.333333" points="1422.9706,-471.3225 1433.5466,-471.9546 1425.6731,-464.8652 1422.9706,-471.3225"/>
</g>
<!-- glibc&#45;&gt;glibc&#45;minimal&#45;langpack -->
<g id="edge2" class="edge">
<title>glibc&#45;&gt;glibc&#45;minimal&#45;langpack</title>
<path fill="none" stroke="#444444" stroke-opacity="0.333333" d="M1416.696,-435.6455C1427.6021,-434.9059 1439.5032,-433.939 1451.7109,-432.8148"/>
<polygon fill="#444444" fill-opacity="0.333333" stroke="#444444" stroke-opacity="0.333333" points="1452.3984,-436.2653 1462.0224,-431.835 1451.7362,-429.2967 1452.3984,-436.2653"/>
</g>
<!-- glibc&#45;&gt;basesystem -->
<g id="edge3" class="edge">
<title>glibc&#45;&gt;basesystem</title>
<path fill="none" stroke="#444444" stroke-opacity="0.333333" d="M1310.2994,-437.2897C1260.7644,-439.3526 1186.591,-442.4415 1131.7658,-444.7247"/>
<polygon fill="#444444" fill-opacity="0.333333" stroke="#444444" stroke-opacity="0.333333" points="1131.6099,-441.228 1121.7642,-445.1412 1131.9012,-448.222 1131.6099,-441.228"/>
</g>
<!-- glibc&#45;&gt;libgcc -->
<g id="edge4" class="edge">
<title>glibc&#45;&gt;libgcc</title>
<path fill="none" stroke="#444444" stroke-opacity="0.333333" d="M1380.0417,-416.9571C1405.8561,-388.5188 1456.0067,-333.2705 1485.7106,-300.5473"/>
<polygon fill="#444444" fill-opacity="0.333333" stroke="#444444" stroke-opacity="0.333333" points="1488.665,-302.5 1492.7947,-292.7432 1483.4819,-297.7952 1488.665,-302.5"/>
</g>
<!-- glibc&#45;common&#45;&gt;glibc -->
<g id="edge15" class="edge">
<title>glibc&#45;common&#45;&gt;glibc</title>
<path fill="none" stroke="#444444" stroke-opacity="0.333333" d="M1465.5557,-471.9178C1453.97,-466.2352 1440.0225,-459.9954 1426.2128,-454.2562"/>
<polygon fill="#444444" fill-opacity="0.333333" stroke="#444444" stroke-opacity="0.333333" points="1427.2862,-450.9141 1416.705,-450.376 1424.6411,-457.3951 1427.2862,-450.9141"/>
</g>
<!-- glibc&#45;common&#45;&gt;bash -->
<g id="edge16" class="edge">
<title>glibc&#45;common&#45;&gt;bash</title>
<path fill="none" stroke="#444444" stroke-opacity="0.333333" d="M1448.3895,-471.9112C1408.6146,-455.9264 1350.5175,-432.5783 1308.2198,-415.5797"/>
<polygon fill="#444444" fill-opacity="0.333333" stroke="#444444" stroke-opacity="0.333333" points="1309.4926,-412.3192 1298.9087,-411.8377 1306.8823,-418.8143 1309.4926,-412.3192"/>
</g>
<!-- glibc&#45;common&#45;&gt;tzdata -->
<g id="edge17" class="edge">
<title>glibc&#45;common&#45;&gt;tzdata</title>
<path fill="none" stroke="#444444" stroke-opacity="0.333333" d="M1541.1653,-508.0531C1571.8696,-519.6579 1611.9307,-534.7992 1644.3395,-547.0482"/>
<polygon fill="#444444" fill-opacity="0.333333" stroke="#444444" stroke-opacity="0.333333" points="1643.1053,-550.3233 1653.6969,-550.5848 1645.5802,-543.7754 1643.1053,-550.3233"/>
</g>
<!-- glibc&#45;common&#45;&gt;libselinux -->
<g id="edge18" class="edge">
<title>glibc&#45;common&#45;&gt;libselinux</title>
<path fill="none" stroke="#444444" stroke-opacity="0.333333" d="M1476.3894,-508.0636C1463.5355,-521.7133 1445.7205,-540.6311 1431.4004,-555.8377"/>
<polygon fill="#444444" fill-opacity="0.333333" stroke="#444444" stroke-opacity="0.333333" points="1428.5829,-553.7243 1424.2753,-563.4039 1433.679,-558.5233 1428.5829,-553.7243"/>
</g>
<!-- glibc&#45;minimal&#45;langpack&#45;&gt;glibc -->
<g id="edge19" class="edge">
<title>glibc&#45;minimal&#45;langpack&#45;&gt;glibc</title>
<path fill="none" stroke="#444444" stroke-opacity="0.333333" d="M1414.6893,-423.9293C1414.6314,-423.9372 1414.5737,-423.9451 1414.5159,-423.953"/>
<polygon fill="#444444" fill-opacity="0.333333" stroke="#444444" stroke-opacity="0.333333" points="1423.7746,-419.1491 1414.3427,-423.9767 1424.7265,-426.0846 1423.7746,-419.1491"/>
</g>
<!-- glibc&#45;minimal&#45;langpack&#45;&gt;glibc&#45;common -->
<g id="edge20" class="edge">
<title>glibc&#45;minimal&#45;langpack&#45;&gt;glibc&#45;common</title>
<path fill="none" stroke="#444444" stroke-opacity="0.333333" d="M1553.907,-431.866C1543.7106,-441.6625 1530.9416,-453.9307 1519.765,-464.669"/>
<polygon fill="#444444" fill-opacity="0.333333" stroke="#444444" stroke-opacity="0.333333" points="1517.1191,-462.3574 1512.3329,-471.8096 1521.9689,-467.4052 1517.1191,-462.3574"/>
</g>
<!-- basesystem&#45;&gt;filesystem -->
<g id="edge21" class="edge">
<title>basesystem&#45;&gt;filesystem</title>
<path fill="none" stroke="#444444" stroke-opacity="0.333333" d="M1041.2862,-429.6843C1035.6458,-424.1265 1029.3265,-417.8997 1023.2797,-411.9414"/>
<polygon fill="#444444" fill-opacity="0.333333" stroke="#444444" stroke-opacity="0.333333" points="1025.4174,-409.1341 1015.8378,-404.6084 1020.5042,-414.1202 1025.4174,-409.1341"/>
</g>
<!-- basesystem&#45;&gt;setup -->
<g id="edge22" class="edge">
<title>basesystem&#45;&gt;setup</title>
<path fill="none" stroke="#444444" stroke-opacity="0.333333" d="M997.481,-443.5121C955.7972,-440.6818 901.0213,-436.9626 858.9009,-434.1026"/>
<polygon fill="#444444" fill-opacity="0.333333" stroke="#444444" stroke-opacity="0.333333" points="858.9688,-430.5992 848.7546,-433.4137 858.4945,-437.5832 858.9688,-430.5992"/>
</g>
<!-- filesystem&#45;&gt;bash -->
<g id="edge5" class="edge">
<title>filesystem&#45;&gt;bash</title>
<path fill="none" stroke="#444444" stroke-opacity="0.333333" d="M1054.556,-393.8483C1096.4192,-396.3931 1153.0775,-398.0297 1195.3248,-397.9216"/>
<polygon fill="#444444" fill-opacity="0.333333" stroke="#444444" stroke-opacity="0.333333" points="1195.4866,-401.4208 1205.4647,-397.8588 1195.4431,-394.4209 1195.4866,-401.4208"/>
</g>
<!-- filesystem&#45;&gt;setup -->
<g id="edge6" class="edge">
<title>filesystem&#45;&gt;setup</title>
<path fill="none" stroke="#444444" stroke-opacity="0.333333" d="M940.412,-398.6454C914.9619,-404.0746 884.8665,-410.4946 858.6499,-416.0873"/>
<polygon fill="#444444" fill-opacity="0.333333" stroke="#444444" stroke-opacity="0.333333" points="857.8595,-412.6771 848.8098,-418.1864 859.32,-419.523 857.8595,-412.6771"/>
</g>
<!-- bash&#45;&gt;glibc -->
<g id="edge23" class="edge">
<title>bash&#45;&gt;glibc</title>
<path fill="none" stroke="#444444" stroke-opacity="0.333333" d="M1302.1283,-411.9185C1303.3889,-412.3932 1304.6543,-412.8698 1305.9219,-413.3472"/>
<polygon fill="#444444" fill-opacity="0.333333" stroke="#444444" stroke-opacity="0.333333" points="1305.0433,-416.7563 1315.6352,-417.0054 1307.5105,-410.2054 1305.0433,-416.7563"/>
</g>
<!-- bash&#45;&gt;filesystem -->
<g id="edge24" class="edge">
<title>bash&#45;&gt;filesystem</title>
<path fill="none" stroke="#444444" stroke-opacity="0.333333" d="M1205.3757,-386.9976C1165.614,-384.3279 1109.0005,-382.5118 1064.8836,-382.3899"/>
<polygon fill="#444444" fill-opacity="0.333333" stroke="#444444" stroke-opacity="0.333333" points="1064.8145,-378.8898 1054.8155,-382.3926 1064.8165,-385.8898 1064.8145,-378.8898"/>
</g>
<!-- bash&#45;&gt;ncurses&#45;libs -->
<g id="edge25" class="edge">
<title>bash&#45;&gt;ncurses&#45;libs</title>
<path fill="none" stroke="#444444" stroke-opacity="0.333333" d="M1261.4905,-375.6682C1273.8318,-345.3396 1298.7082,-284.2068 1313.2077,-248.5748"/>
<polygon fill="#444444" fill-opacity="0.333333" stroke="#444444" stroke-opacity="0.333333" points="1316.4758,-249.8294 1317.0031,-239.2477 1309.992,-247.191 1316.4758,-249.8294"/>
</g>
<!-- setup&#45;&gt;fedora&#45;release -->
<g id="edge29" class="edge">
<title>setup&#45;&gt;fedora&#45;release</title>
<path fill="none" stroke="#444444" stroke-opacity="0.333333" d="M740.4306,-431.6604C697.2361,-433.1902 635.9267,-435.3617 585.9058,-437.1334"/>
<polygon fill="#444444" fill-opacity="0.333333" stroke="#444444" stroke-opacity="0.333333" points="585.6076,-433.6416 575.7378,-437.4935 585.8554,-440.6372 585.6076,-433.6416"/>
</g>
<!-- ncurses&#45;libs&#45;&gt;glibc -->
<g id="edge7" class="edge">
<title>ncurses&#45;libs&#45;&gt;glibc</title>
<path fill="none" stroke="#444444" stroke-opacity="0.333333" d="M1327.7422,-239.3155C1334.5985,-276.7454 1350.2947,-362.4338 1358.4569,-406.993"/>
<polygon fill="#444444" fill-opacity="0.333333" stroke="#444444" stroke-opacity="0.333333" points="1355.0217,-407.665 1360.2663,-416.8707 1361.9071,-406.4037 1355.0217,-407.665"/>
</g>
<!-- ncurses&#45;libs&#45;&gt;ncurses&#45;base -->
<g id="edge8" class="edge">
<title>ncurses&#45;libs&#45;&gt;ncurses&#45;base</title>
<path fill="none" stroke="#444444" stroke-opacity="0.333333" d="M1326.8671,-203.0489C1331.7182,-167.613 1342.5304,-88.6331 1348.3368,-46.2192"/>
<polygon fill="#444444" fill-opacity="0.333333" stroke="#444444" stroke-opacity="0.333333" points="1351.8097,-46.655 1349.6985,-36.2726 1344.8744,-45.7055 1351.8097,-46.655"/>
</g>
<!-- fedora&#45;release&#45;common&#45;&gt;fedora&#45;release -->
<g id="edge9" class="edge">
<title>fedora&#45;release&#45;common&#45;&gt;fedora&#45;release</title>
<path fill="none" stroke="#444444" stroke-opacity="0.333333" d="M441.7556,-473.7991C451.4534,-470.1774 460.7238,-466.3729 468.8796,-462.6203"/>
<polygon fill="#444444" fill-opacity="0.333333" stroke="#444444" stroke-opacity="0.333333" points="470.4249,-465.7609 477.9004,-458.253 467.3746,-459.4604 470.4249,-465.7609"/>
</g>
<!-- fedora&#45;release&#45;common&#45;&gt;fedora&#45;release -->
<g id="edge10" class="edge">
<title>fedora&#45;release&#45;common&#45;&gt;fedora&#45;release</title>
<path fill="none" stroke="#444444" stroke-dasharray="5,2" stroke-opacity="0.333333" d="M368.99,-473.7245C380.8431,-467.6714 396.4254,-461.2353 412.6743,-455.4612"/>
<polygon fill="#444444" fill-opacity="0.333333" stroke="#444444" stroke-opacity="0.333333" points="413.9811,-458.713 422.2953,-452.146 411.7006,-452.0949 413.9811,-458.713"/>
</g>
<!-- fedora&#45;release&#45;common&#45;&gt;fedora&#45;repos -->
<g id="edge11" class="edge">
<title>fedora&#45;release&#45;common&#45;&gt;fedora&#45;repos</title>
<path fill="none" stroke="#444444" stroke-opacity="0.333333" d="M326.1633,-473.7936C316.7531,-465.877 305.5582,-456.459 295.3841,-447.8997"/>
<polygon fill="#444444" fill-opacity="0.333333" stroke="#444444" stroke-opacity="0.333333" points="297.4026,-445.024 287.4972,-441.2645 292.8962,-450.3805 297.4026,-445.024"/>
</g>
<!-- fedora&#45;release&#45;&gt;fedora&#45;release&#45;common -->
<g id="edge12" class="edge">
<title>fedora&#45;release&#45;&gt;fedora&#45;release&#45;common</title>
<path fill="none" stroke="#444444" stroke-opacity="0.333333" d="M446.0911,-458.2782C434.4516,-462.25 422.021,-466.4918 410.0485,-470.5773"/>
<polygon fill="#444444" fill-opacity="0.333333" stroke="#444444" stroke-opacity="0.333333" points="408.9028,-467.27 400.569,-473.812 411.1635,-473.8949 408.9028,-467.27"/>
</g>
<!-- fedora&#45;repos&#45;&gt;fedora&#45;release -->
<g id="edge13" class="edge">
<title>fedora&#45;repos&#45;&gt;fedora&#45;release</title>
<path fill="none" stroke="#444444" stroke-opacity="0.333333" d="M333.9392,-428.0737C358.3849,-429.8706 386.2942,-431.9222 412.1225,-433.8208"/>
<polygon fill="#444444" fill-opacity="0.333333" stroke="#444444" stroke-opacity="0.333333" points="412.0554,-437.3252 422.2852,-434.5679 412.5687,-430.3441 412.0554,-437.3252"/>
</g>
<!-- fedora&#45;repos&#45;&gt;fedora&#45;gpg&#45;keys -->
<g id="edge14" class="edge">
<title>fedora&#45;repos&#45;&gt;fedora&#45;gpg&#45;keys</title>
<path fill="none" stroke="#444444" stroke-opacity="0.333333" d="M197.776,-417.8532C191.9211,-417.4046 185.9294,-416.9456 179.9059,-416.4841"/>
<polygon fill="#444444" fill-opacity="0.333333" stroke="#444444" stroke-opacity="0.333333" points="179.9955,-412.9808 169.7574,-415.7066 179.4607,-419.9604 179.9955,-412.9808"/>
</g>
<!-- libselinux&#45;&gt;glibc -->
<g id="edge26" class="edge">
<title>libselinux&#45;&gt;glibc</title>
<path fill="none" stroke="#444444" stroke-opacity="0.333333" d="M1401.8537,-563.1893C1394.3219,-537.9638 1380.6619,-492.2139 1371.8674,-462.7593"/>
<polygon fill="#444444" fill-opacity="0.333333" stroke="#444444" stroke-opacity="0.333333" points="1375.1924,-461.6614 1368.9776,-453.0808 1368.485,-463.6641 1375.1924,-461.6614"/>
</g>
<!-- libselinux&#45;&gt;pcre2 -->
<g id="edge27" class="edge">
<title>libselinux&#45;&gt;pcre2</title>
<path fill="none" stroke="#444444" stroke-opacity="0.333333" d="M1417.4596,-599.6035C1422.2019,-608.0867 1427.9461,-618.362 1433.1915,-627.7448"/>
<polygon fill="#444444" fill-opacity="0.333333" stroke="#444444" stroke-opacity="0.333333" points="1430.2802,-629.71 1438.2149,-636.7308 1436.3903,-626.2942 1430.2802,-629.71"/>
</g>
<!-- libselinux&#45;&gt;libsepol -->
<g id="edge28" class="edge">
<title>libselinux&#45;&gt;libsepol</title>
<path fill="none" stroke="#444444" stroke-opacity="0.333333" d="M1353.1887,-563.3902C1348.5351,-561.8387 1343.7996,-560.26 1339.0789,-558.6862"/>
<polygon fill="#444444" fill-opacity="0.333333" stroke="#444444" stroke-opacity="0.333333" points="1340.0346,-555.3155 1329.4409,-555.473 1337.8206,-561.9562 1340.0346,-555.3155"/>
</g>
<!-- pcre2&#45;&gt;glibc -->
<g id="edge30" class="edge">
<title>pcre2&#45;&gt;glibc</title>
<path fill="none" stroke="#444444" stroke-opacity="0.333333" d="M1441.3159,-636.5813C1426.4389,-598.0065 1391.8717,-508.3764 1374.2869,-462.7803"/>
<polygon fill="#444444" fill-opacity="0.333333" stroke="#444444" stroke-opacity="0.333333" points="1377.4683,-461.3025 1370.6043,-453.2317 1370.9372,-463.8213 1377.4683,-461.3025"/>
</g>
<!-- libsepol&#45;&gt;glibc -->
<g id="edge31" class="edge">
<title>libsepol&#45;&gt;glibc</title>
<path fill="none" stroke="#444444" stroke-opacity="0.333333" d="M1291.0041,-519.0972C1304.9576,-502.9465 1325.4586,-479.2174 1341.1189,-461.0911"/>
<polygon fill="#444444" fill-opacity="0.333333" stroke="#444444" stroke-opacity="0.333333" points="1344.0435,-463.0596 1347.9327,-453.2044 1338.7466,-458.4833 1344.0435,-463.0596"/>
</g>
<!-- libsepol&#45;&gt;bash -->
<g id="edge32" class="edge">
<title>libsepol&#45;&gt;bash</title>
<path fill="none" stroke="#444444" stroke-opacity="0.333333" d="M1272.5277,-519.208C1268.9288,-494.7218 1262.4883,-450.9025 1258.2547,-422.0974"/>
<polygon fill="#444444" fill-opacity="0.333333" stroke="#444444" stroke-opacity="0.333333" points="1261.6677,-421.2491 1256.7506,-411.8643 1254.7421,-422.267 1261.6677,-421.2491"/>
</g>
<!-- glibc -->
<g id="node1" class="node">
<title>glibc</title>
<text text-anchor="middle" x="1363.6" y="-431.37" font-family="Helvetica,sans-Serif" font-weight="bold" font-size="14.00" fill="#000000">glibc (16.5 MB)</text>
</g>
<!-- glibc&#45;common -->
<g id="node2" class="node">
<title>glibc&#45;common</title>
<text text-anchor="middle" x="1493.4" y="-486.3" font-family="Helvetica,sans-Serif" font-weight="bold" font-size="14.00" fill="#000000">glibc&#45;common (2.6 MB)</text>
</g>
<!-- glibc&#45;minimal&#45;langpack -->
<g id="node3" class="node">
<title>glibc&#45;minimal&#45;langpack</title>
<text text-anchor="middle" x="1572.7" y="-408.21" font-family="Helvetica,sans-Serif" font-weight="bold" font-size="22.00" fill="#cc0066">glibc&#45;minimal&#45;langpack (0.0 B)</text>
</g>
<!-- basesystem -->
<g id="node4" class="node">
<title>basesystem</title>
<text text-anchor="middle" x="1059.6" y="-444.03" font-family="Helvetica,sans-Serif" font-weight="bold" font-size="14.00" fill="#000000">basesystem (0.0 B)</text>
</g>
<!-- libgcc -->
<g id="node5" class="node">
<title>libgcc</title>
<text text-anchor="middle" x="1509.4" y="-270.75" font-family="Helvetica,sans-Serif" font-weight="bold" font-size="14.00" fill="#000000">libgcc (190.3 kB)</text>
</g>
<!-- filesystem -->
<g id="node6" class="node">
<title>filesystem</title>
<text text-anchor="middle" x="997.44" y="-382.78" font-family="Helvetica,sans-Serif" font-weight="bold" font-size="14.00" fill="#000000">filesystem (0.0 B)</text>
</g>
<!-- bash -->
<g id="node7" class="node">
<title>bash</title>
<text text-anchor="middle" x="1254.1" y="-390.13" font-family="Helvetica,sans-Serif" font-weight="bold" font-size="14.00" fill="#000000">bash (7.2 MB)</text>
</g>
<!-- setup -->
<g id="node8" class="node">
<title>setup</title>
<text text-anchor="middle" x="794.65" y="-426.04" font-family="Helvetica,sans-Serif" font-weight="bold" font-size="14.00" fill="#000000">setup (709.7 kB)</text>
</g>
<!-- ncurses&#45;libs -->
<g id="node9" class="node">
<title>ncurses&#45;libs</title>
<text text-anchor="middle" x="1324.4" y="-217.37" font-family="Helvetica,sans-Serif" font-weight="bold" font-size="14.00" fill="#000000">ncurses&#45;libs (1.0 MB)</text>
</g>
<!-- ncurses&#45;base -->
<g id="node10" class="node">
<title>ncurses&#45;base</title>
<text text-anchor="middle" x="1352.2" y="-14.3" font-family="Helvetica,sans-Serif" font-weight="bold" font-size="14.00" fill="#000000">ncurses&#45;base (275.1 kB)</text>
</g>
<!-- fedora&#45;release&#45;common -->
<g id="node11" class="node">
<title>fedora&#45;release&#45;common</title>
<text text-anchor="middle" x="347.65" y="-488.17" font-family="Helvetica,sans-Serif" font-weight="bold" font-size="14.00" fill="#000000">fedora&#45;release&#45;common (14.0 kB)</text>
</g>
<!-- fedora&#45;release -->
<g id="node12" class="node">
<title>fedora&#45;release</title>
<text text-anchor="middle" x="499.04" y="-436.51" font-family="Helvetica,sans-Serif" font-weight="bold" font-size="14.00" fill="#000000">fedora&#45;release (691.0 B)</text>
</g>
<!-- fedora&#45;repos -->
<g id="node13" class="node">
<title>fedora&#45;repos</title>
<text text-anchor="middle" x="265.87" y="-419.37" font-family="Helvetica,sans-Serif" font-weight="bold" font-size="14.00" fill="#000000">fedora&#45;repos (8.6 kB)</text>
</g>
<!-- fedora&#45;gpg&#45;keys -->
<g id="node14" class="node">
<title>fedora&#45;gpg&#45;keys</title>
<text text-anchor="middle" x="83" y="-405.36" font-family="Helvetica,sans-Serif" font-weight="bold" font-size="14.00" fill="#000000">fedora&#45;gpg&#45;keys (101.4 kB)</text>
</g>
<!-- tzdata -->
<g id="node15" class="node">
<title>tzdata</title>
<text text-anchor="middle" x="1701.6" y="-564.99" font-family="Helvetica,sans-Serif" font-weight="bold" font-size="14.00" fill="#000000">tzdata (1.8 MB)</text>
</g>
<!-- libselinux -->
<g id="node16" class="node">
<title>libselinux</title>
<text text-anchor="middle" x="1407.3" y="-577.73" font-family="Helvetica,sans-Serif" font-weight="bold" font-size="14.00" fill="#000000">libselinux (185.3 kB)</text>
</g>
<!-- pcre2 -->
<g id="node17" class="node">
<title>pcre2</title>
<text text-anchor="middle" x="1448.4" y="-651.25" font-family="Helvetica,sans-Serif" font-weight="bold" font-size="14.00" fill="#000000">pcre2 (715.2 kB)</text>
</g>
<!-- libsepol -->
<g id="node18" class="node">
<title>libsepol</title>
<text text-anchor="middle" x="1275.2" y="-533.69" font-family="Helvetica,sans-Serif" font-weight="bold" font-size="14.00" fill="#000000">libsepol (756.0 kB)</text>
</g>
</g>

<script type="text/javascript"><![CDATA[

document.addEventListener('click', function(e) {
      e = e || window.event;
      var target = e.target || e.srcElement;
      text = target.parentElement.querySelector("title").textContent;

      console.log("Clicked on: " + text);
      // reset all strokes
      var nodes = document.getElementsByClassName("edge");

      for (index = 0, len = nodes.length; index < len; ++index) {
          //var title = nodes[index].querySelector("title").textContent.split("->");
          id = nodes[index].id;
          document.getElementById(id).querySelector("path").setAttribute("stroke-width", "1");
          document.getElementById(id).querySelector("path").setAttribute("stroke-opacity", "0.5");
          document.getElementById(id).querySelector("path").setAttribute("stroke", "#444444");
          document.getElementById(id).querySelector("polygon").setAttribute("stroke-width", "1");
          document.getElementById(id).querySelector("polygon").setAttribute("stroke-opacity", "0.5");
          document.getElementById(id).querySelector("polygon").setAttribute("stroke", "#444444");
      }
      // reset text highlight
      pkgs = document.getElementsByClassName("node");
      for (index2 = 0, len2 = pkgs.length; index2 < len2; ++index2) {
          target_id = pkgs[index2].id;
          document.getElementById(target_id).querySelector("text").setAttribute("font-weight", "normal");
      }

      // highlight deps
      var nodes = document.getElementsByClassName("edge");
      for (index = 0, len = nodes.length; index < len; ++index) {
        var title = nodes[index].querySelector("title").textContent.split("->");

        if (title[0] == text) {
          id = nodes[index].id;
          //console.log("ID:   " + id);
          document.getElementById(id).querySelector("path").setAttribute("stroke-width", "3");
          document.getElementById(id).querySelector("path").setAttribute("stroke-opacity", "1");
          document.getElementById(id).querySelector("path").setAttribute("stroke", "#aa3333");
          document.getElementById(id).querySelector("polygon").setAttribute("stroke-width", "5");
          document.getElementById(id).querySelector("polygon").setAttribute("stroke-opacity", "1");
          document.getElementById(id).querySelector("polygon").setAttribute("stroke", "#aa3333");

        }
        if (title[1] == text) {
          id = nodes[index].id;
          document.getElementById(id).querySelector("path").setAttribute("stroke-width", "3");
          document.getElementById(id).querySelector("path").setAttribute("stroke-opacity", "1");
          document.getElementById(id).querySelector("path").setAttribute("stroke", "#333377");
          document.getElementById(id).querySelector("polygon").setAttribute("stroke-width", "5");
          document.getElementById(id).querySelector("polygon").setAttribute("stroke-opacity", "1");
          document.getElementById(id).querySelector("polygon").setAttribute("stroke", "#333377");
        }

        if (title[0] == text || title[1] == text) {
          pkgs = document.getElementsByClassName("node");
          for (index2 = 0, len2 = pkgs.length; index2 < len2; ++index2) {
            var pkg_name = pkgs[index2].querySelector("title").textContent;
            if (pkg_name == title[0] || pkg_name == title[1]) {
              target_id = pkgs[index2].id;
              document.getElementById(target_id).querySelector("text").setAttribute("font-weight", "bold");
            }
          }
        }
      }


  }, false);

]]></script>


  <text
     
     id="text7664"
     y="19.384439"
     x="9.9055691"
     style="font-style:normal;font-weight:normal;font-size:12.49485588px;line-height:125%;font-family:sans-serif;letter-spacing:0px;word-spacing:0px;fill:#000000;fill-opacity:1;stroke:none;stroke-width:0.3123714px;stroke-linecap:butt;stroke-linejoin:miter;stroke-opacity:1"
     xml:space="preserve"><tspan
       style="font-size:12.00258541px;stroke-width:0.3123714px"
       y="19.384439"
       x="9.9055691"
       id="tspan7666"
       ><a href="report-base-definition--minimal-langpack-base--31.html"><tspan
   style="font-weight:bold;font-size:12.00258541px;fill:#0066ff;stroke-width:0.3123714px"
   id="tspan7668">Minimal Base</tspan></a> (Fedora 31)</tspan></text>
  <text
     xml:space="preserve"
     style="font-style:normal;font-weight:normal;font-size:11.85299969px;line-height:125%;font-family:sans-serif;letter-spacing:0px;word-spacing:0px;fill:#000000;fill-opacity:1;stroke:none;stroke-width:0.296325px;stroke-linecap:butt;stroke-linejoin:miter;stroke-opacity:1"
     x="9.9365959"
     y="36.915382"
     id="text8235"><tspan
       
       id="tspan8237"
       x="9.9365959"
       y="36.915382"
       style="font-size:10.80232716px;fill:#666666;stroke-width:0.296325px">Generated by <a href="./"><tspan
   style="fill:#3771c8"
   id="tspan8255">Feedback Pipeline</tspan></a></tspan></text>

</svg>
