<?xml version="1.0" encoding="UTF-8" standalone="no"?>
<!DOCTYPE svg PUBLIC "-//W3C//DTD SVG 1.1//EN"
 "http://www.w3.org/Graphics/SVG/1.1/DTD/svg11.dtd">
<!-- Generated by graphviz version 2.40.1 (0)
 -->
<!-- Title: packages Pages: 1 -->
<svg width="1563pt" height="738pt"
 viewBox="0.00 0.00 1875.22 886.13" xmlns="http://www.w3.org/2000/svg" xmlns:xlink="http://www.w3.org/1999/xlink">
<g id="graph0" class="graph" transform="scale(.8333 .8333) rotate(0) translate(130.2905 732.6817)">
<title>packages</title>
<polygon fill="#dae2ff" stroke="transparent" points="-130.2905,153.4525 -130.2905,-732.6817 1744.9255,-732.6817 1744.9255,153.4525 -130.2905,153.4525"/>
<polygon fill="#fbb4ae" stroke="#fbb4ae" points="1267.252,-288.7584 1267.4819,-287.1642 1269.9343,-274.9884 1258.8785,-265.6181 1255.6029,-263.423 1247.1355,-258.4519 1238.153,-253.9633 1234.5383,-252.4875 1220.3949,-249.171 1216.3052,-248.9384 1212.0342,-249.0692 1204.5764,-248.6306 1200.2717,-247.9939 1193.8094,-246.4613 1195.0789,-285.1124 1198.4872,-288.1798 1194.6271,-291.6851 1189.2291,-293.2737 1184.5557,-291.9478 1180.5896,-288.4115 1179.387,-288.4115 1178.0159,-287.9853 1174.2604,-287.9853 1174.2604,-287.9853 1178.0159,-287.9853 1179.387,-288.4115 1180.5896,-288.4115 1184.5557,-291.9478 1189.2291,-293.2737 1194.6271,-291.6851 1198.4872,-288.1798 1195.0789,-285.1124 1193.8094,-246.4613 1192.0183,-245.8783 1181.1008,-241.3225 1170.1377,-234.7928 1147.8464,-217.5618 1131.0636,-205.8022 1112.5377,-194.7718 1112.5466,-183.6623 1114.9404,-106.1043 1063.4962,-40.8503 1050.3099,-24.7497 1007.8214,-26.0923 1007.4365,-145.7413 1004.3399,-202.4772 1002.8341,-203.6014 1000.4839,-203.6014 1000.1239,-203.7057 998.4608,-239.2102 993.4387,-203.9786 991.1507,-203.9786 988.8187,-201.2944 984.7687,-199.1169 980.054,-199.1169 980.054,-199.1169 984.7687,-199.1169 988.8187,-201.2944 991.1507,-203.9786 993.4387,-203.9786 998.4608,-239.2102 1000.1239,-203.7057 1000.4839,-203.6014 1002.8341,-203.6014 1004.3399,-202.4772 1007.4365,-145.7413 1007.8214,-26.0923 998.5149,-26.108 978.1724,-25.229 975.994,-25.1023 971.081,-27.7229 959.912,-32.8405 951.4174,-36.5737 911.0642,-53.5456 837.3578,-90.6187 778.2795,-82.6404 766.0297,-80.5416 746.3837,-76.1034 740.7172,-74.6188 738.5186,-74.1998 726.1641,-71.4116 722.3071,-72.1444 624.0834,-89.1233 622.4874,-203.8506 622.8317,-227.4319 621.4535,-259.4964 621.7146,-277.3971 620.3713,-373.9555 643.9914,-391.1538 721.3781,-395.695 734.4868,-396.7137 738.1846,-396.0765 746.0896,-395.0203 746.6702,-245.5979 751.266,-248.2405 758.1109,-248.2405 762.4362,-245.7242 763.8947,-243.9714 762.8842,-242.7621 762.8842,-242.7621 763.8947,-243.9714 762.4362,-245.7242 758.1109,-248.2405 751.266,-248.2405 746.6702,-245.5979 746.0896,-395.0203 756.1642,-393.8691 770.4615,-392.7896 772.2303,-392.6904 776.1262,-392.6225 814.1179,-392.6951 922.4106,-461.5986 930.2227,-457.8174 945.9424,-450.8512 964.0203,-444.3196 967.2923,-443.2053 981.3256,-439.0013 1078.5073,-413.9034 1140.8839,-441.9438 1164.3344,-416.1912 1176.5417,-403.3809 1185.6566,-395.17 1195.045,-384.9918 1198.8353,-381.1285 1200.1798,-379.8433 1214.5345,-367.8105 1262.3258,-330.7645 1264.3416,-320.7567 1265.488,-312.8905 1267.0315,-295.6141 1267.252,-288.7584 1267.252,-288.7584"/>
<polygon fill="#fed9a6" stroke="#fed9a6" points="1428.8079,-231.9662 1425.2991,-232.3584 1417.7031,-232.9221 1416.1221,-232.9205 1407.9137,-232.602 1399.6675,-232.9103 1397.1497,-232.9092 1396.92,-264.0834 1393.7828,-304.7935 1388.8809,-306.1592 1384.6907,-309.6226 1384.84,-309.8397 1388.9475,-313.2128 1393.8717,-314.5671 1393.8717,-314.5671 1388.9475,-313.2128 1384.84,-309.8397 1384.6907,-309.6226 1388.8809,-306.1592 1393.7828,-304.7935 1396.92,-264.0834 1397.1497,-232.9092 1395.4812,-232.7825 1393.865,-232.7214 1390.3608,-232.8552 1380.2561,-232.8597 1378.86,-232.8076 1378.0745,-232.7188 1375.9064,-232.5569 1374.1964,-232.4943 1368.4589,-232.7203 1365.1832,-232.9748 1362.0522,-233.0991 1356.0878,-233.1104 1351.6432,-232.7829 1351.1641,-232.7659 1349.8584,-232.7691 1347.4208,-232.8676 1342.8362,-232.7073 1332.1769,-232.7399 1331.6085,-232.7203 1322.9966,-220.6715 1312.9076,-204.8879 1298.0938,-173.7268 1281.788,-145.0175 1259.7771,-114.2226 1259.7009,-114.1089 1260.5667,-113.5378 1263.8965,-17.9992 1262.6537,-17.9992 1259.0079,-14.9488 1253.0928,-13.2049 1253.0928,-13.2049 1259.0079,-14.9488 1262.6537,-17.9992 1263.8965,-17.9992 1260.5667,-113.5378 1275.7693,-104.1472 1337.5854,-74.0158 1350.9448,-66.9108 1353.1675,-65.6354 1368.0157,-55.8176 1369.1127,-55.0469 1384.2455,-43.0962 1392.995,-35.0633 1393.4594,-34.6169 1397.3871,-31.2284 1405.0969,18.0845 1279.2891,-12.7337 1279.2891,-12.7337 1405.0969,18.0845 1414.2643,68.6031 1370.7246,93.6021 1334.6666,109.4192 1278.0082,123.1139 1256.0638,129.7944 1254.7181,130.2315 1233.2775,138.5341 1231.0072,139.5525 1225.2521,142.2546 1187.0242,149.4525 1131.4602,93.4321 1063.6421,-6.5825 1050.3099,-24.7497 1063.4962,-40.8503 1114.9404,-106.1043 1112.5466,-183.6623 1112.5377,-194.7718 1131.0636,-205.8022 1147.8464,-217.5618 1170.1377,-234.7928 1181.1008,-241.3225 1192.0183,-245.8783 1193.8094,-246.4613 1200.2717,-247.9939 1204.5764,-248.6306 1212.0342,-249.0692 1216.3052,-248.9384 1220.3949,-249.171 1234.5383,-252.4875 1238.153,-253.9633 1247.1355,-258.4519 1255.6029,-263.423 1258.8785,-265.6181 1269.9343,-274.9884 1267.4819,-287.1642 1267.252,-288.7584 1267.0315,-295.6141 1265.488,-312.8905 1264.3416,-320.7567 1262.3258,-330.7645 1214.5345,-367.8105 1200.1798,-379.8433 1198.8353,-381.1285 1195.045,-384.9918 1185.6566,-395.17 1243.2513,-395.17 1285.3263,-401.4971 1290.4766,-398.0211 1292.0117,-395.7753 1292.6411,-395.3261 1293.9934,-395.3261 1297.6426,-418.5936 1302.1685,-395.2134 1304.03,-395.2134 1308.6528,-423.6446 1308.6528,-423.6446 1304.03,-395.2134 1302.1685,-395.2134 1297.6426,-418.5936 1293.9934,-395.3261 1292.6411,-395.3261 1292.0117,-395.7753 1290.4766,-398.0211 1285.3263,-401.4971 1243.2513,-395.17 1185.6566,-395.17 1176.5417,-403.3809 1164.3344,-416.1912 1140.8839,-441.9438 1149.8756,-455.7737 1240.1869,-557.3182 1240.5872,-562.4574 1241.0173,-569.7653 1244.563,-575.9673 1252.4415,-590.3897 1340.4106,-719.4474 1388.8689,-723.8538 1407.4581,-725.8599 1411.6981,-726.3889 1423.3362,-726.244 1422.8716,-701.4073 1422.8927,-679.5926 1428.4172,-564.464 1423.0745,-564.464 1417.3084,-561.0251 1416.6311,-560.2462 1418.2194,-558.341 1415.6616,-514.9858 1416.2837,-466.3992 1416.3037,-466.3907 1435.1512,-457.784 1445.0369,-452.2282 1449.5831,-449.5133 1471.4645,-435.6746 1464.1101,-426.2677 1456.4885,-417.4176 1447.4373,-407.4413 1440.0084,-399.7119 1439.7336,-399.4434 1438.5657,-398.3719 1370.2241,-398.1991 1356.2578,-401.5858 1356.2578,-401.5858 1370.2241,-398.1991 1438.5657,-398.3719 1439.7336,-399.4434 1440.0084,-399.7119 1447.4373,-407.4413 1456.4885,-417.4176 1464.1101,-426.2677 1471.4645,-435.6746 1449.5831,-449.5133 1445.0369,-452.2282 1435.1512,-457.784 1416.3037,-466.3907 1416.2837,-466.3992 1415.6616,-514.9858 1418.2194,-558.341 1416.6311,-560.2462 1417.3084,-561.0251 1423.0745,-564.464 1428.4172,-564.464 1433.8949,-561.3193 1434.7968,-560.3195 1433.4834,-558.7783 1433.4834,-558.7783 1434.7968,-560.3195 1433.8949,-561.3193 1428.4172,-564.464 1422.8927,-679.5926 1422.8716,-701.4073 1423.3362,-726.244 1423.635,-726.2601 1425.3003,-726.3773 1447.6322,-726.2228 1505.1431,-728.6817 1511.6261,-725.4614 1565.1333,-685.3679 1570.2526,-680.8879 1587.4976,-590.0403 1597.255,-544.2056 1597.5917,-542.8925 1575.9261,-443.2439 1575.842,-443.0849 1594.5587,-382.5387 1600.9124,-319.7672 1605.4557,-288.8969 1615.5144,-229.5946 1579.1565,-211.1537 1564.2988,-204.636 1558.1451,-202.2193 1549.2982,-198.9469 1538.521,-195.4544 1533.829,-194.1491 1467.2318,-221.6685 1455.3313,-226.1415 1453.7743,-226.6667 1449.1128,-228.0627 1446.6403,-228.7099 1431.0924,-231.6248 1428.8079,-231.9662 1428.8079,-231.9662"/>
<polygon fill="#bbd7d9" stroke="#bbd7d9" points="1578.0101,-60.1461 1578.347,-60.305 1583.1866,-65.3237 1735.4968,-83.9984 1735.3324,-81.8531 1725.1842,-48.7464 1724.855,-47.5831 1705.2433,27.8785 1665.6263,77.0398 1662.4829,78.7592 1613.0132,82.4549 1580.0073,77.9711 1565.1556,76.8851 1547.1678,76.3237 1533.2814,77.054 1527.1455,77.6339 1517.7085,78.7239 1508.5273,79.9765 1465.4224,86.7547 1414.2643,68.6031 1405.0969,18.0845 1397.3871,-31.2284 1393.4594,-34.6169 1392.995,-35.0633 1384.2455,-43.0962 1369.1127,-55.0469 1368.0157,-55.8176 1353.1675,-65.6354 1350.9448,-66.9108 1337.5854,-74.0158 1275.7693,-104.1472 1260.5667,-113.5378 1259.7009,-114.1089 1259.7771,-114.2226 1281.788,-145.0175 1298.0938,-173.7268 1312.9076,-204.8879 1322.9966,-220.6715 1331.6085,-232.7203 1332.1769,-232.7399 1342.8362,-232.7073 1347.4208,-232.8676 1349.8584,-232.7691 1351.1641,-232.7659 1351.6432,-232.7829 1356.0878,-233.1104 1362.0522,-233.0991 1365.1832,-232.9748 1368.4589,-232.7203 1374.1964,-232.4943 1375.9064,-232.5569 1378.0745,-232.7188 1378.86,-232.8076 1380.2561,-232.8597 1390.3608,-232.8552 1393.865,-232.7214 1395.4812,-232.7825 1397.1497,-232.9092 1399.6675,-232.9103 1407.9137,-232.602 1416.1221,-232.9205 1417.7031,-232.9221 1425.2991,-232.3584 1428.8079,-231.9662 1431.0924,-231.6248 1446.6403,-228.7099 1449.1128,-228.0627 1453.7743,-226.6667 1455.3313,-226.1415 1467.2318,-221.6685 1533.829,-194.1491 1527.9985,-186.8427 1519.8184,-177.4906 1511.8744,-168.8463 1506.3524,-162.4617 1514.1569,-65.861 1423.7155,-59.917 1495.2313,-150.319 1423.9263,-152.7274 1409.6884,-149.7466 1409.6884,-149.7466 1423.9263,-152.7274 1495.2313,-150.319 1423.7155,-59.917 1514.1569,-65.861 1506.3524,-162.4617 1511.8744,-168.8463 1519.8184,-177.4906 1527.9985,-186.8427 1533.829,-194.1491 1538.521,-195.4544 1549.2982,-198.9469 1558.1451,-202.2193 1564.2988,-204.636 1564.4316,-95.4059 1560.9241,-59.5864 1557.8315,-59.5864 1557.314,-58.9963 1551.2328,-55.3225 1545.8582,-55.3225 1545.8582,-55.3225 1551.2328,-55.3225 1557.314,-58.9963 1557.8315,-59.5864 1560.9241,-59.5864 1564.4316,-95.4059 1564.2988,-204.636 1579.1565,-211.1537 1615.5144,-229.5946 1646.7715,-213.1512 1740.9255,-140.0348 1735.4968,-83.9984 1583.1866,-65.3237 1578.347,-60.305 1578.0101,-60.1461 1577.5077,-59.6772 1577.4094,-59.6468 1571.6537,-59.6468 1571.5693,-59.6217 1568.0228,-59.6217 1567.3807,-59.4309 1567.3807,-59.4309 1568.0228,-59.6217 1571.5693,-59.6217 1571.6537,-59.6468 1577.4094,-59.6468 1577.5077,-59.6772 1578.0101,-60.1461 1578.0101,-60.1461"/>
<polygon fill="#d8d6da" stroke="#d8d6da" points="-113.7946,-322.0269 -115.3924,-303.3653 -117.8631,-279.8213 -126.2905,-220.9709 -124.6401,-213.9269 -81.477,-172.6182 23.7869,-118.8642 39.1451,-117.7105 43.2975,-118.2361 57.0817,-119.53 77.502,-120.4421 83.2751,-120.5103 99.0693,-120.1786 103.246,-119.8857 122.4208,-117.9098 134.8866,-116.2172 150.6547,-101.4651 259.804,-47.0087 278.966,-45.9066 281.2313,-45.9215 298.7785,-45.7055 313.9823,-44.6569 314.1098,-44.6433 331.1481,-42.1793 341.5546,-40.0828 354.2824,-37.2775 359.5622,-36.0149 374.5237,-31.3034 382.1441,-35.3967 496.6695,-89.3672 511.3598,-88.8531 609.2795,-81.7783 624.0834,-89.1233 622.4874,-203.8506 622.8317,-227.4319 621.4535,-259.4964 621.7146,-277.3971 620.3713,-373.9555 523.8099,-381.9552 498.8745,-384.529 494.9066,-385.0981 485.3884,-386.8477 472.8528,-389.9165 471.0847,-242.5684 476.0141,-245.4011 481.8743,-245.4011 487.2524,-242.1369 488.0979,-241.1194 486.7896,-239.5199 481.519,-236.3902 476.7094,-236.3902 476.7094,-236.3902 481.519,-236.3902 486.7896,-239.5199 488.0979,-241.1194 487.2524,-242.1369 481.8743,-245.4011 476.0141,-245.4011 471.0847,-242.5684 472.8528,-389.9165 464.8417,-392.0404 463.5978,-285.0069 466.4368,-241.2632 460.36,-241.2632 461.2365,-197.2057 461.1002,-194.7798 461.7724,-150.877 444.4751,-173.1162 438.1323,-179.9047 396.7539,-184.5269 383.3693,-182.3452 378.5582,-185.6565 376.5131,-188.9471 373.0677,-188.9471 371.9131,-188.6228 369.601,-188.6228 369.601,-188.6228 371.9131,-188.6228 373.0677,-188.9471 376.5131,-188.9471 378.5582,-185.6565 383.3693,-182.3452 396.7539,-184.5269 438.1323,-179.9047 444.4751,-173.1162 446.0233,-206.069 446.0233,-206.069 444.4751,-173.1162 461.7724,-150.877 461.1002,-194.7798 461.2365,-197.2057 460.36,-241.2632 466.4368,-241.2632 463.5978,-285.0069 464.8417,-392.0404 452.2528,-395.8892 432.3776,-402.7702 421.7139,-406.6716 389.6436,-398.7162 371.7538,-403.403 289.6897,-413.6255 289.2622,-382.3491 289.2622,-382.3491 289.6897,-413.6255 276.1238,-415.8275 274.6042,-415.4191 274.7774,-333.2565 274.1156,-317.3184 274.1156,-317.3184 274.7774,-333.2565 274.6042,-415.4191 270.8072,-414.6187 258.9792,-412.3517 250.6849,-410.9222 249.7704,-330.684 254.7196,-269.0009 259.4544,-270.3101 264.3476,-268.9596 268.6254,-265.3288 264.3511,-261.6698 259.8043,-260.4041 259.8043,-260.4041 264.3511,-261.6698 268.6254,-265.3288 264.3476,-268.9596 259.4544,-270.3101 254.7196,-269.0009 249.7704,-330.684 247.7592,-295.5307 247.7592,-295.5307 249.7704,-330.684 250.6849,-410.9222 237.0443,-409.3607 225.5441,-408.2668 230.1616,-296.9774 230.1616,-296.9774 225.5441,-408.2668 202.0726,-406.9434 122.6675,-434.9703 120.59,-349.4218 120.59,-349.4218 122.6675,-434.9703 111.2859,-439.4747 95.1338,-446.5576 85.9827,-451.1518 75.7799,-449.6415 75.405,-449.5925 69.2777,-448.897 55.7872,-448.0595 56.4736,-366.4192 56.4736,-366.4192 55.7872,-448.0595 51.517,-447.9407 45.9546,-447.9766 -45.1686,-421.4256 -113.7946,-322.0269 -113.7946,-322.0269"/>
<polyline fill="none" stroke="#000000" points="964.0203,-444.3196 967.2923,-443.2053 981.3256,-439.0013 1078.5073,-413.9034 1140.8839,-441.9438 1164.3344,-416.1912 1176.5417,-403.3809 1185.6566,-395.17 1195.045,-384.9918 1198.8353,-381.1285 1200.1798,-379.8433 1214.5345,-367.8105 1262.3258,-330.7645 1264.3416,-320.7567 1265.488,-312.8905 1267.0315,-295.6141 1267.252,-288.7584 1267.4819,-287.1642 1269.9343,-274.9884 1258.8785,-265.6181 1255.6029,-263.423 1247.1355,-258.4519 1238.153,-253.9633 1234.5383,-252.4875 1220.3949,-249.171 1216.3052,-248.9384 1212.0342,-249.0692 1204.5764,-248.6306 1200.2717,-247.9939 1193.8094,-246.4613 1192.0183,-245.8783 1181.1008,-241.3225 1170.1377,-234.7928 1147.8464,-217.5618 1131.0636,-205.8022 1112.5377,-194.7718 1112.5466,-183.6623 1114.9404,-106.1043 1063.4962,-40.8503 1050.3099,-24.7497 1007.8214,-26.0923 998.5149,-26.108 978.1724,-25.229 975.994,-25.1023 971.081,-27.7229 959.912,-32.8405 951.4174,-36.5737 911.0642,-53.5456 837.3578,-90.6187 778.2795,-82.6404 766.0297,-80.5416 746.3837,-76.1034 740.7172,-74.6188 738.5186,-74.1998 726.1641,-71.4116 722.3071,-72.1444 624.0834,-89.1233 622.4874,-203.8506 622.8317,-227.4319 621.4535,-259.4964 621.7146,-277.3971 620.3713,-373.9555 643.9914,-391.1538 721.3781,-395.695 734.4868,-396.7137 738.1846,-396.0765 746.0896,-395.0203 756.1642,-393.8691 770.4615,-392.7896 772.2303,-392.6904 776.1262,-392.6225 814.1179,-392.6951 922.4106,-461.5986 930.2227,-457.8174 945.9424,-450.8512 964.0203,-444.3196 "/>
<polyline fill="none" stroke="#000000" points="1220.3949,-249.171 1216.3052,-248.9384 1212.0342,-249.0692 1204.5764,-248.6306 1200.2717,-247.9939 1193.8094,-246.4613 1192.0183,-245.8783 1181.1008,-241.3225 1170.1377,-234.7928 1147.8464,-217.5618 1131.0636,-205.8022 1112.5377,-194.7718 1112.5466,-183.6623 1114.9404,-106.1043 1063.4962,-40.8503 1050.3099,-24.7497 1063.6421,-6.5825 1131.4602,93.4321 1187.0242,149.4525 1225.2521,142.2546 1231.0072,139.5525 1233.2775,138.5341 1254.7181,130.2315 1256.0638,129.7944 1278.0082,123.1139 1334.6666,109.4192 1370.7246,93.6021 1414.2643,68.6031 1405.0969,18.0845 1397.3871,-31.2284 1393.4594,-34.6169 1392.995,-35.0633 1384.2455,-43.0962 1369.1127,-55.0469 1368.0157,-55.8176 1353.1675,-65.6354 1350.9448,-66.9108 1337.5854,-74.0158 1275.7693,-104.1472 1260.5667,-113.5378 1259.7009,-114.1089 1259.7771,-114.2226 1281.788,-145.0175 1298.0938,-173.7268 1312.9076,-204.8879 1322.9966,-220.6715 1331.6085,-232.7203 1332.1769,-232.7399 1342.8362,-232.7073 1347.4208,-232.8676 1349.8584,-232.7691 1351.1641,-232.7659 1351.6432,-232.7829 1356.0878,-233.1104 1362.0522,-233.0991 1365.1832,-232.9748 1368.4589,-232.7203 1374.1964,-232.4943 1375.9064,-232.5569 1378.0745,-232.7188 1378.86,-232.8076 1380.2561,-232.8597 1390.3608,-232.8552 1393.865,-232.7214 1395.4812,-232.7825 1397.1497,-232.9092 1399.6675,-232.9103 1407.9137,-232.602 1416.1221,-232.9205 1417.7031,-232.9221 1425.2991,-232.3584 1428.8079,-231.9662 1431.0924,-231.6248 1446.6403,-228.7099 1449.1128,-228.0627 1453.7743,-226.6667 1455.3313,-226.1415 1467.2318,-221.6685 1533.829,-194.1491 1538.521,-195.4544 1549.2982,-198.9469 1558.1451,-202.2193 1564.2988,-204.636 1579.1565,-211.1537 1615.5144,-229.5946 1605.4557,-288.8969 1600.9124,-319.7672 1594.5587,-382.5387 1575.842,-443.0849 1575.9261,-443.2439 1597.5917,-542.8925 1597.255,-544.2056 1587.4976,-590.0403 1570.2526,-680.8879 1565.1333,-685.3679 1511.6261,-725.4614 1505.1431,-728.6817 1447.6322,-726.2228 1425.3003,-726.3773 1423.635,-726.2601 1423.3362,-726.244 1411.6981,-726.3889 1407.4581,-725.8599 1388.8689,-723.8538 1340.4106,-719.4474 1252.4415,-590.3897 1244.563,-575.9673 1241.0173,-569.7653 1240.5872,-562.4574 1240.1869,-557.3182 1149.8756,-455.7737 1140.8839,-441.9438 1164.3344,-416.1912 1176.5417,-403.3809 1185.6566,-395.17 1195.045,-384.9918 1198.8353,-381.1285 1200.1798,-379.8433 1214.5345,-367.8105 1262.3258,-330.7645 1264.3416,-320.7567 1265.488,-312.8905 1267.0315,-295.6141 1267.252,-288.7584 1267.4819,-287.1642 1269.9343,-274.9884 1258.8785,-265.6181 1255.6029,-263.423 1247.1355,-258.4519 1238.153,-253.9633 1234.5383,-252.4875 1220.3949,-249.171 "/>
<polyline fill="none" stroke="#000000" points="1368.4589,-232.7203 1365.1832,-232.9748 1362.0522,-233.0991 1356.0878,-233.1104 1351.6432,-232.7829 1351.1641,-232.7659 1349.8584,-232.7691 1347.4208,-232.8676 1342.8362,-232.7073 1332.1769,-232.7399 1331.6085,-232.7203 1322.9966,-220.6715 1312.9076,-204.8879 1298.0938,-173.7268 1281.788,-145.0175 1259.7771,-114.2226 1259.7009,-114.1089 1260.5667,-113.5378 1275.7693,-104.1472 1337.5854,-74.0158 1350.9448,-66.9108 1353.1675,-65.6354 1368.0157,-55.8176 1369.1127,-55.0469 1384.2455,-43.0962 1392.995,-35.0633 1393.4594,-34.6169 1397.3871,-31.2284 1405.0969,18.0845 1414.2643,68.6031 1465.4224,86.7547 1508.5273,79.9765 1517.7085,78.7239 1527.1455,77.6339 1533.2814,77.054 1547.1678,76.3237 1565.1556,76.8851 1580.0073,77.9711 1613.0132,82.4549 1662.4829,78.7592 1665.6263,77.0398 1705.2433,27.8785 1724.855,-47.5831 1725.1842,-48.7464 1735.3324,-81.8531 1735.4968,-83.9984 1740.9255,-140.0348 1646.7715,-213.1512 1615.5144,-229.5946 1579.1565,-211.1537 1564.2988,-204.636 1558.1451,-202.2193 1549.2982,-198.9469 1538.521,-195.4544 1533.829,-194.1491 1467.2318,-221.6685 1455.3313,-226.1415 1453.7743,-226.6667 1449.1128,-228.0627 1446.6403,-228.7099 1431.0924,-231.6248 1428.8079,-231.9662 1425.2991,-232.3584 1417.7031,-232.9221 1416.1221,-232.9205 1407.9137,-232.602 1399.6675,-232.9103 1397.1497,-232.9092 1395.4812,-232.7825 1393.865,-232.7214 1390.3608,-232.8552 1380.2561,-232.8597 1378.86,-232.8076 1378.0745,-232.7188 1375.9064,-232.5569 1374.1964,-232.4943 1368.4589,-232.7203 "/>
<polyline fill="none" stroke="#000000" points="354.2824,-37.2775 359.5622,-36.0149 374.5237,-31.3034 382.1441,-35.3967 496.6695,-89.3672 511.3598,-88.8531 609.2795,-81.7783 624.0834,-89.1233 622.4874,-203.8506 622.8317,-227.4319 621.4535,-259.4964 621.7146,-277.3971 620.3713,-373.9555 523.8099,-381.9552 498.8745,-384.529 494.9066,-385.0981 485.3884,-386.8477 472.8528,-389.9165 464.8417,-392.0404 452.2528,-395.8892 432.3776,-402.7702 421.7139,-406.6716 389.6436,-398.7162 371.7538,-403.403 289.6897,-413.6255 276.1238,-415.8275 274.6042,-415.4191 270.8072,-414.6187 258.9792,-412.3517 250.6849,-410.9222 237.0443,-409.3607 225.5441,-408.2668 202.0726,-406.9434 122.6675,-434.9703 111.2859,-439.4747 95.1338,-446.5576 85.9827,-451.1518 75.7799,-449.6415 75.405,-449.5925 69.2777,-448.897 55.7872,-448.0595 51.517,-447.9407 45.9546,-447.9766 -45.1686,-421.4256 -113.7946,-322.0269 -115.3924,-303.3653 -117.8631,-279.8213 -126.2905,-220.9709 -124.6401,-213.9269 -81.477,-172.6182 23.7869,-118.8642 39.1451,-117.7105 43.2975,-118.2361 57.0817,-119.53 77.502,-120.4421 83.2751,-120.5103 99.0693,-120.1786 103.246,-119.8857 122.4208,-117.9098 134.8866,-116.2172 150.6547,-101.4651 259.804,-47.0087 278.966,-45.9066 281.2313,-45.9215 298.7785,-45.7055 313.9823,-44.6569 314.1098,-44.6433 331.1481,-42.1793 341.5546,-40.0828 354.2824,-37.2775 "/>
<!-- filesystem&#45;&gt;setup -->
<g id="edge1" class="edge">
<title>filesystem&#45;&gt;setup</title>
<path fill="none" stroke="#444444" stroke-opacity="0.333333" d="M897.9602,-280.2722C873.248,-274.0118 844.2227,-266.6588 818.7863,-260.2149"/>
<polygon fill="#444444" fill-opacity="0.333333" stroke="#444444" stroke-opacity="0.333333" points="819.4183,-256.7646 808.865,-257.7016 817.6993,-263.5502 819.4183,-256.7646"/>
</g>
<!-- filesystem&#45;&gt;bash -->
<g id="edge2" class="edge">
<title>filesystem&#45;&gt;bash</title>
<path fill="none" stroke="#444444" stroke-opacity="0.333333" d="M1012.3125,-299.0463C1048.1105,-299.175 1094.1339,-297.9165 1130.3029,-295.8304"/>
<polygon fill="#444444" fill-opacity="0.333333" stroke="#444444" stroke-opacity="0.333333" points="1130.9409,-299.2978 1140.7065,-295.1889 1130.5101,-292.311 1130.9409,-299.2978"/>
</g>
<!-- setup&#45;&gt;fedora&#45;release -->
<g id="edge3" class="edge">
<title>setup&#45;&gt;fedora&#45;release</title>
<path fill="none" stroke="#444444" stroke-opacity="0.333333" d="M700.6231,-243.4127C662.3042,-243.0039 610.0906,-242.4468 565.986,-241.9763"/>
<polygon fill="#444444" fill-opacity="0.333333" stroke="#444444" stroke-opacity="0.333333" points="565.8743,-238.475 555.8375,-241.868 565.7996,-245.4746 565.8743,-238.475"/>
</g>
<!-- bash&#45;&gt;filesystem -->
<g id="edge16" class="edge">
<title>bash&#45;&gt;filesystem</title>
<path fill="none" stroke="#444444" stroke-opacity="0.333333" d="M1140.7785,-283.9825C1106.5458,-283.6233 1060.3075,-284.7152 1022.5384,-286.6878"/>
<polygon fill="#444444" fill-opacity="0.333333" stroke="#444444" stroke-opacity="0.333333" points="1021.9173,-283.2169 1012.1272,-287.2671 1022.3062,-290.2061 1021.9173,-283.2169"/>
</g>
<!-- bash&#45;&gt;glibc -->
<g id="edge17" class="edge">
<title>bash&#45;&gt;glibc</title>
<path fill="none" stroke="#444444" stroke-opacity="0.333333" d="M1200.8416,-270.048C1207.0134,-260.1592 1214.7673,-247.7355 1221.6248,-236.748"/>
<polygon fill="#444444" fill-opacity="0.333333" stroke="#444444" stroke-opacity="0.333333" points="1224.7944,-238.2799 1227.12,-227.9435 1218.8561,-234.5737 1224.7944,-238.2799"/>
</g>
<!-- bash&#45;&gt;ncurses&#45;libs -->
<g id="edge18" class="edge">
<title>bash&#45;&gt;ncurses&#45;libs</title>
<path fill="none" stroke="#444444" stroke-opacity="0.333333" d="M1215.0547,-270.129C1248.0438,-246.775 1305.5489,-206.0653 1342.1729,-180.138"/>
<polygon fill="#444444" fill-opacity="0.333333" stroke="#444444" stroke-opacity="0.333333" points="1344.4157,-182.8386 1350.5552,-174.2039 1340.3711,-177.1253 1344.4157,-182.8386"/>
</g>
<!-- fedora&#45;release&#45;&gt;fedora&#45;release&#45;common -->
<g id="edge13" class="edge">
<title>fedora&#45;release&#45;&gt;fedora&#45;release&#45;common</title>
<path fill="none" stroke="#444444" stroke-opacity="0.333333" d="M459.5554,-223.0223C452.1687,-218.9783 443.1964,-214.7515 433.4893,-210.6519"/>
<polygon fill="#444444" fill-opacity="0.333333" stroke="#444444" stroke-opacity="0.333333" points="434.5661,-207.3111 423.9851,-206.7705 431.9195,-213.7916 434.5661,-207.3111"/>
</g>
<!-- glibc&#45;&gt;basesystem -->
<g id="edge4" class="edge">
<title>glibc&#45;&gt;basesystem</title>
<path fill="none" stroke="#444444" stroke-opacity="0.333333" d="M1185.2883,-208.5936C1147.3561,-207.6821 1095.8814,-206.4451 1054.2301,-205.4441"/>
<polygon fill="#444444" fill-opacity="0.333333" stroke="#444444" stroke-opacity="0.333333" points="1054.222,-201.943 1044.1408,-205.2017 1054.0538,-208.941 1054.222,-201.943"/>
</g>
<!-- glibc&#45;&gt;glibc&#45;common -->
<g id="edge5" class="edge">
<title>glibc&#45;&gt;glibc&#45;common</title>
<path fill="none" stroke="#444444" stroke-opacity="0.333333" d="M1242.005,-227.9568C1252.9932,-260.6169 1283.1962,-329.475 1303.0102,-367.8774"/>
<polygon fill="#444444" fill-opacity="0.333333" stroke="#444444" stroke-opacity="0.333333" points="1300.0363,-369.7407 1307.8058,-376.9439 1306.2241,-366.4678 1300.0363,-369.7407"/>
</g>
<!-- glibc&#45;&gt;glibc&#45;minimal&#45;langpack -->
<g id="edge6" class="edge">
<title>glibc&#45;&gt;glibc&#45;minimal&#45;langpack</title>
<path fill="none" stroke="#444444" stroke-opacity="0.333333" d="M1257.7488,-228.0558C1279.718,-244.4421 1316.2751,-268.3829 1346.0256,-286.169"/>
<polygon fill="#444444" fill-opacity="0.333333" stroke="#444444" stroke-opacity="0.333333" points="1344.6255,-289.4068 1355.0163,-291.4761 1348.1838,-283.3787 1344.6255,-289.4068"/>
</g>
<!-- glibc&#45;&gt;libgcc -->
<g id="edge7" class="edge">
<title>glibc&#45;&gt;libgcc</title>
<path fill="none" stroke="#444444" stroke-opacity="0.333333" d="M1239.8018,-191.8193C1242.4031,-158.3217 1247.9948,-86.3154 1251.103,-46.2906"/>
<polygon fill="#444444" fill-opacity="0.333333" stroke="#444444" stroke-opacity="0.333333" points="1254.6063,-46.3835 1251.8911,-36.1425 1247.6273,-45.8414 1254.6063,-46.3835"/>
</g>
<!-- basesystem&#45;&gt;filesystem -->
<g id="edge19" class="edge">
<title>basesystem&#45;&gt;filesystem</title>
<path fill="none" stroke="#444444" stroke-opacity="0.333333" d="M976.6142,-222.1333C972.8256,-234.927 967.7074,-252.2106 963.4147,-266.7064"/>
<polygon fill="#444444" fill-opacity="0.333333" stroke="#444444" stroke-opacity="0.333333" points="959.9492,-266.0825 960.4656,-276.6648 966.6611,-268.0702 959.9492,-266.0825"/>
</g>
<!-- basesystem&#45;&gt;setup -->
<g id="edge20" class="edge">
<title>basesystem&#45;&gt;setup</title>
<path fill="none" stroke="#444444" stroke-opacity="0.333333" d="M919.9511,-214.7167C888.6345,-220.2656 850.6949,-226.988 819.0746,-232.5907"/>
<polygon fill="#444444" fill-opacity="0.333333" stroke="#444444" stroke-opacity="0.333333" points="818.2827,-229.1764 809.0467,-234.3675 819.504,-236.0691 818.2827,-229.1764"/>
</g>
<!-- glibc&#45;common&#45;&gt;bash -->
<g id="edge22" class="edge">
<title>glibc&#45;common&#45;&gt;bash</title>
<path fill="none" stroke="#444444" stroke-opacity="0.333333" d="M1298.4437,-377.0274C1276.768,-359.358 1243.6644,-332.3731 1219.6365,-312.7863"/>
<polygon fill="#444444" fill-opacity="0.333333" stroke="#444444" stroke-opacity="0.333333" points="1221.8279,-310.0572 1211.8655,-306.4516 1217.4051,-315.4829 1221.8279,-310.0572"/>
</g>
<!-- glibc&#45;common&#45;&gt;glibc -->
<g id="edge21" class="edge">
<title>glibc&#45;common&#45;&gt;glibc</title>
<path fill="none" stroke="#444444" stroke-opacity="0.333333" d="M1317.095,-377.0832C1306.1068,-344.4231 1275.9038,-275.565 1256.0898,-237.1626"/>
<polygon fill="#444444" fill-opacity="0.333333" stroke="#444444" stroke-opacity="0.333333" points="1259.0637,-235.2993 1251.2942,-228.0961 1252.8759,-238.5722 1259.0637,-235.2993"/>
</g>
<!-- glibc&#45;common&#45;&gt;tzdata -->
<g id="edge23" class="edge">
<title>glibc&#45;common&#45;&gt;tzdata</title>
<path fill="none" stroke="#444444" stroke-opacity="0.333333" d="M1332.3269,-413.4461C1350.8068,-442.4942 1386.9808,-499.3553 1408.4441,-533.0931"/>
<polygon fill="#444444" fill-opacity="0.333333" stroke="#444444" stroke-opacity="0.333333" points="1405.7601,-535.3947 1414.0809,-541.9533 1411.6662,-531.6373 1405.7601,-535.3947"/>
</g>
<!-- glibc&#45;minimal&#45;langpack&#45;&gt;glibc -->
<g id="edge24" class="edge">
<title>glibc&#45;minimal&#45;langpack&#45;&gt;glibc</title>
<path fill="none" stroke="#444444" stroke-opacity="0.333333" d="M1374.7512,-291.4542C1352.782,-275.0679 1316.2249,-251.1271 1286.4744,-233.341"/>
<polygon fill="#444444" fill-opacity="0.333333" stroke="#444444" stroke-opacity="0.333333" points="1287.8745,-230.1032 1277.4837,-228.0339 1284.3162,-236.1313 1287.8745,-230.1032"/>
</g>
<!-- glibc&#45;minimal&#45;langpack&#45;&gt;glibc&#45;common -->
<g id="edge25" class="edge">
<title>glibc&#45;minimal&#45;langpack&#45;&gt;glibc&#45;common</title>
<path fill="none" stroke="#444444" stroke-opacity="0.333333" d="M1378.5337,-327.7787C1368.2184,-339.7987 1354.5241,-355.7562 1343.0506,-369.1257"/>
<polygon fill="#444444" fill-opacity="0.333333" stroke="#444444" stroke-opacity="0.333333" points="1340.1002,-367.1894 1336.2438,-377.0574 1345.4123,-371.7481 1340.1002,-367.1894"/>
</g>
<!-- ncurses&#45;libs&#45;&gt;glibc -->
<g id="edge8" class="edge">
<title>ncurses&#45;libs&#45;&gt;glibc</title>
<path fill="none" stroke="#444444" stroke-opacity="0.333333" d="M1329.8648,-174.1675C1318.3978,-178.6435 1305.9893,-183.4871 1294.1213,-188.1197"/>
<polygon fill="#444444" fill-opacity="0.333333" stroke="#444444" stroke-opacity="0.333333" points="1292.7903,-184.882 1284.7475,-191.7786 1295.3357,-191.4028 1292.7903,-184.882"/>
</g>
<!-- ncurses&#45;libs&#45;&gt;ncurses&#45;base -->
<g id="edge9" class="edge">
<title>ncurses&#45;libs&#45;&gt;ncurses&#45;base</title>
<path fill="none" stroke="#444444" stroke-opacity="0.333333" d="M1408.5271,-137.9809C1436.4599,-122.3559 1476.9355,-99.7147 1507.1843,-82.7942"/>
<polygon fill="#444444" fill-opacity="0.333333" stroke="#444444" stroke-opacity="0.333333" points="1509.1996,-85.6773 1516.2183,-77.7407 1505.7822,-79.5681 1509.1996,-85.6773"/>
</g>
<!-- fedora&#45;release&#45;common&#45;&gt;fedora&#45;release -->
<g id="edge10" class="edge">
<title>fedora&#45;release&#45;common&#45;&gt;fedora&#45;release</title>
<path fill="none" stroke="#444444" stroke-opacity="0.333333" d="M354.9546,-206.6977C365.2877,-212.3548 378.7239,-218.3696 392.9337,-223.8935"/>
<polygon fill="#444444" fill-opacity="0.333333" stroke="#444444" stroke-opacity="0.333333" points="391.7665,-227.1939 402.3584,-227.444 394.2342,-220.6433 391.7665,-227.1939"/>
</g>
<!-- fedora&#45;release&#45;common&#45;&gt;fedora&#45;release -->
<g id="edge11" class="edge">
<title>fedora&#45;release&#45;common&#45;&gt;fedora&#45;release</title>
<path fill="none" stroke="#444444" stroke-dasharray="5,2" stroke-opacity="0.333333" d="M384.8412,-206.6962C396.1398,-210.8115 408.2588,-215.2256 419.919,-219.4726"/>
<polygon fill="#444444" fill-opacity="0.333333" stroke="#444444" stroke-opacity="0.333333" points="418.9835,-222.8568 429.5775,-222.9905 421.3792,-216.2795 418.9835,-222.8568"/>
</g>
<!-- fedora&#45;release&#45;common&#45;&gt;fedora&#45;repos -->
<g id="edge12" class="edge">
<title>fedora&#45;release&#45;common&#45;&gt;fedora&#45;repos</title>
<path fill="none" stroke="#444444" stroke-opacity="0.333333" d="M317.3604,-206.8279C307.5286,-216.7516 295.1981,-229.1974 284.4439,-240.0523"/>
<polygon fill="#444444" fill-opacity="0.333333" stroke="#444444" stroke-opacity="0.333333" points="281.8522,-237.6952 277.3005,-247.2625 286.825,-242.6219 281.8522,-237.6952"/>
</g>
<!-- fedora&#45;repos&#45;&gt;fedora&#45;release -->
<g id="edge14" class="edge">
<title>fedora&#45;repos&#45;&gt;fedora&#45;release</title>
<path fill="none" stroke="#444444" stroke-opacity="0.333333" d="M327.4561,-257.7863C348.0198,-255.5177 370.8832,-252.9953 392.4923,-250.6114"/>
<polygon fill="#444444" fill-opacity="0.333333" stroke="#444444" stroke-opacity="0.333333" points="393.0947,-254.0662 402.6506,-249.4907 392.327,-247.1085 393.0947,-254.0662"/>
</g>
<!-- fedora&#45;repos&#45;&gt;fedora&#45;gpg&#45;keys -->
<g id="edge15" class="edge">
<title>fedora&#45;repos&#45;&gt;fedora&#45;gpg&#45;keys</title>
<path fill="none" stroke="#444444" stroke-opacity="0.333333" d="M191.2237,-273.962C187.463,-274.4401 183.651,-274.9247 179.8172,-275.4121"/>
<polygon fill="#444444" fill-opacity="0.333333" stroke="#444444" stroke-opacity="0.333333" points="179.1168,-271.9729 169.638,-276.7061 179.9996,-278.917 179.1168,-271.9729"/>
</g>
<!-- filesystem -->
<g id="node1" class="node">
<title>filesystem</title>
<text text-anchor="middle" x="955.11" y="-291.05" font-family="Helvetica,sans-Serif" font-weight="bold" font-size="14.00" fill="#000000">filesystem (0.0 B)</text>
</g>
<!-- setup -->
<g id="node2" class="node">
<title>setup</title>
<text text-anchor="middle" x="754.74" y="-240.29" font-family="Helvetica,sans-Serif" font-weight="bold" font-size="14.00" fill="#000000">setup (709.7 kB)</text>
</g>
<!-- bash -->
<g id="node3" class="node">
<title>bash</title>
<text text-anchor="middle" x="1189.5" y="-284.52" font-family="Helvetica,sans-Serif" font-weight="bold" font-size="14.00" fill="#000000">bash (7.2 MB)</text>
</g>
<!-- fedora&#45;release -->
<g id="node4" class="node">
<title>fedora&#45;release</title>
<text text-anchor="middle" x="479.16" y="-237.35" font-family="Helvetica,sans-Serif" font-weight="bold" font-size="14.00" fill="#000000">fedora&#45;release (691.0 B)</text>
</g>
<!-- glibc -->
<g id="node5" class="node">
<title>glibc</title>
<text text-anchor="middle" x="1238.4" y="-206.17" font-family="Helvetica,sans-Serif" font-weight="bold" font-size="14.00" fill="#000000">glibc (16.5 MB)</text>
</g>
<!-- basesystem -->
<g id="node6" class="node">
<title>basesystem</title>
<text text-anchor="middle" x="982.07" y="-200.01" font-family="Helvetica,sans-Serif" font-weight="bold" font-size="14.00" fill="#000000">basesystem (0.0 B)</text>
</g>
<!-- glibc&#45;common -->
<g id="node7" class="node">
<title>glibc&#45;common</title>
<text text-anchor="middle" x="1320.7" y="-391.47" font-family="Helvetica,sans-Serif" font-weight="bold" font-size="14.00" fill="#000000">glibc&#45;common (7.8 MB)</text>
</g>
<!-- glibc&#45;minimal&#45;langpack -->
<g id="node8" class="node">
<title>glibc&#45;minimal&#45;langpack</title>
<text text-anchor="middle" x="1394.1" y="-304.04" font-family="Helvetica,sans-Serif" font-weight="bold" font-size="22.00" fill="#cc0066">glibc&#45;minimal&#45;langpack (0.0 B)</text>
</g>
<!-- libgcc -->
<g id="node9" class="node">
<title>libgcc</title>
<text text-anchor="middle" x="1253.3" y="-14.3" font-family="Helvetica,sans-Serif" font-weight="bold" font-size="14.00" fill="#000000">libgcc (194.2 kB)</text>
</g>
<!-- ncurses&#45;libs -->
<g id="node10" class="node">
<title>ncurses&#45;libs</title>
<text text-anchor="middle" x="1376.1" y="-152.42" font-family="Helvetica,sans-Serif" font-weight="bold" font-size="14.00" fill="#000000">ncurses&#45;libs (976.2 kB)</text>
</g>
<!-- ncurses&#45;base -->
<g id="node11" class="node">
<title>ncurses&#45;base</title>
<text text-anchor="middle" x="1548.5" y="-55.983" font-family="Helvetica,sans-Serif" font-weight="bold" font-size="14.00" fill="#000000">ncurses&#45;base (278.5 kB)</text>
</g>
<!-- fedora&#45;release&#45;common -->
<g id="node12" class="node">
<title>fedora&#45;release&#45;common</title>
<text text-anchor="middle" x="335.35" y="-184.97" font-family="Helvetica,sans-Serif" font-weight="bold" font-size="14.00" fill="#000000">fedora&#45;release&#45;common (14.2 kB)</text>
</g>
<!-- fedora&#45;repos -->
<g id="node13" class="node">
<title>fedora&#45;repos</title>
<text text-anchor="middle" x="259.44" y="-261.59" font-family="Helvetica,sans-Serif" font-weight="bold" font-size="14.00" fill="#000000">fedora&#45;repos (8.4 kB)</text>
</g>
<!-- fedora&#45;gpg&#45;keys -->
<g id="node14" class="node">
<title>fedora&#45;gpg&#45;keys</title>
<text text-anchor="middle" x="83" y="-284.02" font-family="Helvetica,sans-Serif" font-weight="bold" font-size="14.00" fill="#000000">fedora&#45;gpg&#45;keys (103.0 kB)</text>
</g>
<!-- tzdata -->
<g id="node15" class="node">
<title>tzdata</title>
<text text-anchor="middle" x="1425.6" y="-556.36" font-family="Helvetica,sans-Serif" font-weight="bold" font-size="14.00" fill="#000000">tzdata (1.8 MB)</text>
</g>
</g>

<script type="text/javascript"><![CDATA[

document.addEventListener('click', function(e) {
      e = e || window.event;
      var target = e.target || e.srcElement;
      text = target.parentElement.querySelector("title").textContent;

      console.log("Clicked on: " + text);
      // reset all strokes
      var nodes = document.getElementsByClassName("edge");

      for (index = 0, len = nodes.length; index < len; ++index) {
          //var title = nodes[index].querySelector("title").textContent.split("->");
          id = nodes[index].id;
          document.getElementById(id).querySelector("path").setAttribute("stroke-width", "1");
          document.getElementById(id).querySelector("path").setAttribute("stroke-opacity", "0.5");
          document.getElementById(id).querySelector("path").setAttribute("stroke", "#444444");
          document.getElementById(id).querySelector("polygon").setAttribute("stroke-width", "1");
          document.getElementById(id).querySelector("polygon").setAttribute("stroke-opacity", "0.5");
          document.getElementById(id).querySelector("polygon").setAttribute("stroke", "#444444");
      }
      // reset text highlight
      pkgs = document.getElementsByClassName("node");
      for (index2 = 0, len2 = pkgs.length; index2 < len2; ++index2) {
          target_id = pkgs[index2].id;
          document.getElementById(target_id).querySelector("text").setAttribute("font-weight", "normal");
      }

      // highlight deps
      var nodes = document.getElementsByClassName("edge");
      for (index = 0, len = nodes.length; index < len; ++index) {
        var title = nodes[index].querySelector("title").textContent.split("->");

        if (title[0] == text) {
          id = nodes[index].id;
          //console.log("ID:   " + id);
          document.getElementById(id).querySelector("path").setAttribute("stroke-width", "3");
          document.getElementById(id).querySelector("path").setAttribute("stroke-opacity", "1");
          document.getElementById(id).querySelector("path").setAttribute("stroke", "#aa3333");
          document.getElementById(id).querySelector("polygon").setAttribute("stroke-width", "5");
          document.getElementById(id).querySelector("polygon").setAttribute("stroke-opacity", "1");
          document.getElementById(id).querySelector("polygon").setAttribute("stroke", "#aa3333");

        }
        if (title[1] == text) {
          id = nodes[index].id;
          document.getElementById(id).querySelector("path").setAttribute("stroke-width", "3");
          document.getElementById(id).querySelector("path").setAttribute("stroke-opacity", "1");
          document.getElementById(id).querySelector("path").setAttribute("stroke", "#333377");
          document.getElementById(id).querySelector("polygon").setAttribute("stroke-width", "5");
          document.getElementById(id).querySelector("polygon").setAttribute("stroke-opacity", "1");
          document.getElementById(id).querySelector("polygon").setAttribute("stroke", "#333377");
        }

        if (title[0] == text || title[1] == text) {
          pkgs = document.getElementsByClassName("node");
          for (index2 = 0, len2 = pkgs.length; index2 < len2; ++index2) {
            var pkg_name = pkgs[index2].querySelector("title").textContent;
            if (pkg_name == title[0] || pkg_name == title[1]) {
              target_id = pkgs[index2].id;
              document.getElementById(target_id).querySelector("text").setAttribute("font-weight", "bold");
            }
          }
        }
      }


  }, false);

]]></script>


  <text
     
     id="text7664"
     y="19.384439"
     x="9.9055691"
     style="font-style:normal;font-weight:normal;font-size:12.49485588px;line-height:125%;font-family:sans-serif;letter-spacing:0px;word-spacing:0px;fill:#000000;fill-opacity:1;stroke:none;stroke-width:0.3123714px;stroke-linecap:butt;stroke-linejoin:miter;stroke-opacity:1"
     xml:space="preserve"><tspan
       style="font-size:12.00258541px;stroke-width:0.3123714px"
       y="19.384439"
       x="9.9055691"
       id="tspan7666"
       ><a href="report-base-definition--minimal-langpack-base--rawhide.html"><tspan
   style="font-weight:bold;font-size:12.00258541px;fill:#0066ff;stroke-width:0.3123714px"
   id="tspan7668">Minimal Base</tspan></a> (Fedora rawhide)</tspan></text>
  <text
     xml:space="preserve"
     style="font-style:normal;font-weight:normal;font-size:11.85299969px;line-height:125%;font-family:sans-serif;letter-spacing:0px;word-spacing:0px;fill:#000000;fill-opacity:1;stroke:none;stroke-width:0.296325px;stroke-linecap:butt;stroke-linejoin:miter;stroke-opacity:1"
     x="9.9365959"
     y="36.915382"
     id="text8235"><tspan
       
       id="tspan8237"
       x="9.9365959"
       y="36.915382"
       style="font-size:10.80232716px;fill:#666666;stroke-width:0.296325px">Generated by <a href="./"><tspan
   style="fill:#3771c8"
   id="tspan8255">Feedback Pipeline</tspan></a></tspan></text>

</svg>
