<?xml version="1.0" encoding="UTF-8" standalone="no"?>
<!DOCTYPE svg PUBLIC "-//W3C//DTD SVG 1.1//EN"
 "http://www.w3.org/Graphics/SVG/1.1/DTD/svg11.dtd">
<!-- Generated by graphviz version 2.40.1 (0)
 -->
<!-- Title: packages Pages: 1 -->
<svg width="1921pt" height="1426pt"
 viewBox="0.00 0.00 1920.75 1425.60" xmlns="http://www.w3.org/2000/svg" xmlns:xlink="http://www.w3.org/1999/xlink">
<g id="graph0" class="graph" transform="scale(1 1) rotate(0) translate(136.28 1289.6234)">
<title>packages</title>
<polygon fill="#dae2ff" stroke="transparent" points="-136.28,135.9798 -136.28,-1289.6234 1784.4689,-1289.6234 1784.4689,135.9798 -136.28,135.9798"/>
<polygon fill="#d8d6da" stroke="#d8d6da" points="37.6106,-726.568 32.9755,-730.4532 20.7637,-886.5378 -79.0764,-855.9603 -131.8404,-772.7529 -132.28,-736.8836 -127.6467,-728.6431 -124.2315,-722.2892 -48.8439,-567.9271 -49.4716,-562.9348 -58.083,-509.9161 -60.2008,-498.152 -40.2793,-469.3591 112.5338,-459.6328 118.9832,-459.6612 120.8349,-459.7325 127.6305,-459.5321 136.6054,-459.574 137.5123,-459.64 139.0916,-459.6478 142.6083,-459.4261 153.8322,-459.4843 154.2136,-459.5123 151.7489,-540.701 147.4821,-541.8823 142.8006,-546.1528 145.6159,-548.501 151.9501,-550.4412 151.3625,-583.1033 152.0542,-592.445 152.3097,-647.1876 168.06,-654.0369 171.3994,-669.4282 267.3538,-680.9305 272.1731,-685.6707 277.6134,-581.976 278.8006,-581.1122 280.0836,-647.477 284.3028,-686.5136 287.5757,-686.5136 288.889,-688.0738 293.6666,-690.8762 293.6666,-690.8762 288.889,-688.0738 287.5757,-686.5136 288.0483,-685.9567 288.0483,-685.9567 287.5757,-686.5136 284.3028,-686.5136 280.0836,-647.477 278.8006,-581.1122 277.6134,-581.976 272.1731,-685.6707 267.3538,-680.9305 171.3994,-669.4282 168.06,-654.0369 152.3097,-647.1876 152.0542,-592.445 151.3625,-583.1033 151.9501,-550.4412 145.6159,-548.501 142.8006,-546.1528 147.4821,-541.8823 151.7489,-540.701 154.2136,-459.5123 158.7369,-459.6909 164.8568,-459.5156 170.1944,-459.728 172.9098,-459.7434 179.9298,-459.5442 180.3586,-459.5613 184.4239,-459.5853 288.2111,-456.6796 299.2321,-516.4123 300.2756,-523.0447 301.1627,-529.848 306.3576,-558.0825 310.2057,-560.4918 311.4391,-561.2253 325.4341,-569.1149 410.5128,-611.6668 411.3772,-612.1273 425.8495,-587.5629 433.067,-576.1999 445.8936,-560.4102 449.6071,-556.2822 453.6777,-552.225 458.0385,-548.3666 489.6488,-548.0834 501.4878,-551.4608 507.4109,-547.7584 509.1414,-545.2679 511.5003,-545.2679 517.6061,-627.7251 518.9886,-663.6486 523.3632,-587.2139 523.3632,-587.2139 518.9886,-663.6486 517.6061,-627.7251 511.5003,-545.2679 509.1414,-545.2679 507.4109,-547.7584 501.4878,-551.4608 489.6488,-548.0834 458.0385,-548.3666 461.6103,-544.1334 468.027,-538.4458 472.9779,-533.1196 477.2323,-529.3985 480.702,-527.0249 500.0562,-517.2562 509.5876,-510.6198 518.1122,-501.5635 521.0161,-497.96 526.2797,-493.944 528.2718,-492.2172 541.6871,-477.4343 551.5017,-464.4441 560.3812,-450.6979 577.44,-420.3291 577.8712,-419.4725 588.5876,-396.9328 590.0005,-393.6465 590.4882,-392.4519 596.12,-392.2162 605.2457,-399.0521 627.024,-413.4861 630.6047,-415.5411 739.3717,-474.8528 743.572,-477.2641 744.5436,-477.8499 759.456,-487.7347 768.3718,-494.1679 763.8084,-500.6509 757.6627,-508.6456 755.8645,-510.8797 740.4435,-528.348 737.6042,-531.2388 731.8248,-537.864 714.1731,-555.8552 704.0929,-565.4141 638.0853,-633.7838 634.0677,-638.2294 625.1756,-646.756 620.6212,-651.6484 615.6827,-656.6355 602.6119,-671.2653 592.2557,-683.9603 589.3589,-683.8759 587.4069,-683.7371 581.3905,-683.5536 578.9646,-683.6269 573.5543,-683.677 569.2423,-683.8043 560.6202,-683.6978 553.9788,-683.8845 552.5288,-683.9841 540.3019,-684.0551 536.5475,-684.2288 518.7847,-685.4099 502.9212,-687.7466 496.2426,-688.9999 490.6548,-808.3548 490.9516,-813.4136 491.0315,-827.5058 490.2244,-835.548 488.311,-876.4198 491.5198,-878.0092 498.3099,-881.0627 507.4593,-884.7564 507.5584,-884.7917 509.9621,-885.5405 516.5395,-887.2944 527.4483,-889.7099 534.1362,-890.8828 534.9671,-890.9903 536.2727,-891.1 546.9243,-891.5134 548.7438,-891.5012 552.7178,-891.6555 568.2936,-892.9725 571.006,-893.4465 577.4316,-894.8619 583.5718,-896.4934 596.5316,-901.1281 606.7457,-905.7117 620.6687,-913.2348 629.175,-918.5927 628.136,-948.8101 628.0815,-949.5609 628.166,-974.0829 627.6345,-981.3917 624.5861,-1070.0428 639.4595,-1092.3036 651.9159,-1110.0739 675.764,-1142.6508 664.8646,-1159.3319 662.6423,-1162.8771 630.817,-1200.0391 523.6486,-1272.0692 502.6921,-1271.3544 491.6596,-1271.177 488.0861,-1271.2483 473.2169,-1272.082 460.3947,-1273.2634 462.5531,-1170.8361 466.6035,-1120.9053 470.782,-1123.288 476.8362,-1123.288 480.9793,-1120.9362 480.9793,-1120.9362 476.8362,-1123.288 470.782,-1123.288 466.6035,-1120.9053 464.8102,-1118.7609 465.7601,-1117.6846 465.7601,-1117.6846 464.8102,-1118.7609 466.6035,-1120.9053 462.5531,-1170.8361 460.3947,-1273.2634 457.6438,-1273.6158 449.2171,-1274.8475 448.233,-1160.1356 448.233,-1160.1356 449.2171,-1274.8475 390.0983,-1285.6234 332.6938,-1266.9723 287.1094,-1198.2656 267.9592,-1161.9731 268.1025,-1161.7909 262.0175,-974.8339 263.9647,-974.8339 266.8581,-977.3561 272.6162,-1019.675 275.8884,-1072.7291 275.993,-1152.0565 293.4244,-1133.1597 304.4483,-1122.0405 303.2655,-1029.3201 305.7722,-974.8541 304.7351,-974.5311 307.7838,-933.3394 311.3203,-972.0029 316.1234,-968.3314 316.5763,-891.2185 357.4803,-901.3431 361.5381,-902.502 367.1001,-904.3033 378.9724,-909.0676 379.5955,-856.3831 383.5235,-817.461 383.8897,-817.461 387.118,-820.2386 393.4544,-822.2082 398.6468,-820.6375 402.3079,-817.3268 398.5351,-814.0076 393.5698,-812.5632 393.5698,-812.5632 398.5351,-814.0076 402.3079,-817.3268 398.6468,-820.6375 393.4544,-822.2082 387.118,-820.2386 383.8897,-817.461 383.5235,-817.461 383.4375,-817.4356 383.4375,-817.4356 383.5235,-817.461 379.5955,-856.3831 378.9724,-909.0676 367.1001,-904.3033 361.5381,-902.502 357.4803,-901.3431 316.5763,-891.2185 316.1234,-968.3314 311.3203,-972.0029 307.7838,-933.3394 304.7351,-974.5311 305.7722,-974.8541 303.2655,-1029.3201 304.4483,-1122.0405 293.4244,-1133.1597 275.993,-1152.0565 275.8884,-1072.7291 272.6162,-1019.675 266.8581,-977.3561 263.9647,-974.8339 262.0175,-974.8339 268.1025,-1161.7909 267.9592,-1161.9731 254.9329,-1156.8845 254.38,-1018.6893 254.38,-1018.6893 254.9329,-1156.8845 244.7801,-1153.2784 232.054,-1148.9851 230.3992,-1148.4567 194.4179,-1138.2496 132.7127,-1091.9159 99.8057,-1014.9813 81.7583,-975.4056 79.4883,-965.6185 77.435,-951.422 68.5568,-903.6805 66.7302,-902.8061 52.1347,-896.9407 48.9689,-895.7293 20.7637,-886.5378 32.9755,-730.4532 37.6106,-726.568 47.377,-847.3279 46.7667,-778.7032 49.5474,-724.2214 49.6037,-724.2042 50.8465,-724.2042 54.4242,-721.0634 59.689,-719.5041 59.689,-719.5041 54.4242,-721.0634 50.8465,-724.2042 49.6037,-724.2042 49.5474,-724.2214 46.7667,-778.7032 47.377,-847.3279 37.6106,-726.568 37.6106,-726.568"/>
<polygon fill="#fed9a6" stroke="#fed9a6" points="1177.5739,-683.4208 1186.549,-676.9297 1210.0913,-659.2355 1218.7438,-652.9776 1303.1371,-749.2757 1312.8768,-796.9673 1316.9263,-814.7029 1314.1896,-847.7211 1312.6931,-888.0023 1267.1439,-972.8857 1278.5621,-1004.2854 1275.6344,-1053.4204 1274.6298,-1080.8638 1274.2439,-1109.6805 1274.2865,-1114.0457 1272.079,-1143.4761 1221.0585,-1212.9005 1146.2684,-1219.4272 1133.9889,-1220.7562 1130.6234,-1221.1906 1116.6893,-1223.5728 1116.291,-1223.6492 1096.681,-1228.2344 1097.7965,-1155.8665 1097.6993,-1152.0691 1098.8723,-1086.259 1104.7491,-1084.5039 1107.9609,-1081.7844 1103.6075,-1077.7732 1099.1841,-1076.4946 1099.1841,-1076.4946 1103.6075,-1077.7732 1107.9609,-1081.7844 1104.7491,-1084.5039 1098.8723,-1086.259 1097.6993,-1152.0691 1097.7965,-1155.8665 1096.681,-1228.2344 1089.1111,-1230.4773 1075.2499,-1234.8743 1078.6012,-1134.3776 1077.1389,-1081.1826 1072.4586,-1081.1826 1066.0303,-944.4407 1077.5574,-947.6526 1087.2585,-950.1321 1095.2732,-951.8101 1109.9175,-954.2026 1125.7194,-955.692 1126.5215,-955.7307 1135.5156,-955.9571 1144.3917,-955.9763 1144.6664,-869.7302 1141.8625,-836.6152 1032.6818,-840.7121 1035.3337,-874.4167 943.2521,-864.2749 923.0153,-865.5844 923.9966,-1003.6772 917.2368,-860.7612 916.4971,-859.531 911.9488,-859.531 911.8678,-859.5073 907.9153,-859.5073 906.7637,-859.8549 902.035,-859.8549 898.4222,-904.229 895.3722,-861.2576 896.7589,-859.581 894.8339,-857.1669 891.1605,-855.0678 891.1605,-855.0678 894.8339,-857.1669 896.7589,-859.581 895.3722,-861.2576 890.4285,-864.1232 885.5721,-864.1232 885.5721,-864.1232 890.4285,-864.1232 895.3722,-861.2576 898.4222,-904.229 902.035,-859.8549 906.7637,-859.8549 907.9153,-859.5073 911.8678,-859.5073 911.9488,-859.531 916.4971,-859.531 917.2368,-860.7612 923.9966,-1003.6772 923.0153,-865.5844 943.2521,-864.2749 1035.3337,-874.4167 1032.6818,-840.7121 1141.8625,-836.6152 1144.6664,-869.7302 1144.3917,-955.9763 1135.5156,-955.9571 1126.5215,-955.7307 1125.7194,-955.692 1109.9175,-954.2026 1095.2732,-951.8101 1087.2585,-950.1321 1077.5574,-947.6526 1066.0303,-944.4407 1072.4586,-1081.1826 1077.1389,-1081.1826 1078.6012,-1134.3776 1075.2499,-1234.8743 1073.546,-1235.4851 1061.5762,-1240.0272 1058.5614,-1241.3601 1050.3304,-1241.6085 1000.5787,-1224.8683 887.6569,-1126.9539 880.4352,-1120.9185 827.7766,-1135.8397 788.5384,-1133.2213 774.237,-1132.5144 766.0569,-1132.2521 762.9999,-1132.207 762.6596,-1132.208 745.1625,-1132.8618 729.068,-1134.0221 729.0942,-1104.076 729.8014,-1071.962 729.8014,-1071.962 729.0942,-1104.076 729.068,-1134.0221 714.3426,-1136.1063 699.9293,-1138.3964 675.764,-1142.6508 651.9159,-1110.0739 639.4595,-1092.3036 624.5861,-1070.0428 627.6345,-981.3917 628.166,-974.0829 628.0815,-949.5609 628.136,-948.8101 629.175,-918.5927 620.6687,-913.2348 606.7457,-905.7117 607.2259,-857.8248 607.2259,-857.8248 606.7457,-905.7117 596.5316,-901.1281 583.5718,-896.4934 577.4316,-894.8619 577.6511,-823.8918 582.8752,-827.1079 582.8752,-827.1079 577.6511,-823.8918 577.4316,-894.8619 571.006,-893.4465 568.2936,-892.9725 552.7178,-891.6555 548.7438,-891.5012 546.9243,-891.5134 536.2727,-891.1 534.9671,-890.9903 534.1362,-890.8828 527.4483,-889.7099 516.5395,-887.2944 509.9621,-885.5405 507.5584,-884.7917 507.4593,-884.7564 498.3099,-881.0627 491.5198,-878.0092 488.311,-876.4198 490.2244,-835.548 491.0315,-827.5058 490.9516,-813.4136 490.6548,-808.3548 496.2426,-688.9999 502.9212,-687.7466 518.7847,-685.4099 536.5475,-684.2288 540.3019,-684.0551 552.5288,-683.9841 553.9788,-683.8845 560.6202,-683.6978 569.2423,-683.8043 573.5543,-683.677 578.9646,-683.6269 581.3905,-683.5536 587.4069,-683.7371 589.3589,-683.8759 592.2557,-683.9603 602.6119,-671.2653 615.6827,-656.6355 620.6212,-651.6484 625.1756,-646.756 634.0677,-638.2294 638.0853,-633.7838 704.0929,-565.4141 714.1731,-555.8552 731.8248,-537.864 737.6042,-531.2388 740.4435,-528.348 755.8645,-510.8797 753.0187,-590.1063 754.4136,-639.6931 748.262,-637.6875 743.4735,-639.1531 739.9575,-642.5331 743.009,-645.4847 743.009,-645.4847 739.9575,-642.5331 743.4735,-639.1531 748.262,-637.6875 754.4136,-639.6931 753.0187,-590.1063 755.8645,-510.8797 757.6627,-508.6456 763.8084,-500.6509 768.3718,-494.1679 759.456,-487.7347 744.5436,-477.8499 745.7128,-453.0323 747.8913,-345.6265 749.4733,-345.6265 753.3978,-349.0933 757.9285,-350.3718 757.9285,-350.3718 753.3978,-349.0933 749.4733,-345.6265 747.8913,-345.6265 745.7128,-453.0323 744.5436,-477.8499 743.572,-477.2641 739.3717,-474.8528 630.6047,-415.5411 627.024,-413.4861 605.2457,-399.0521 596.12,-392.2162 598.7234,-388.5653 599.3904,-387.6654 600.9372,-385.7328 619.6509,-364.0735 626.4793,-356.5188 629.758,-353.3759 638.9507,-343.4919 651.9554,-331.6141 655.2987,-328.3293 737.3131,-252.8125 739.1896,-250.8518 753.2065,-237.2012 756.5153,-233.6166 758.6782,-231.5321 765.918,-224.1944 767.2699,-222.6889 782.8275,-204.5322 784.9947,-197.4413 870.4899,-157.9144 883.4374,-151.6351 904.7978,-140.3238 906.7137,-139.2272 919.433,-131.0969 926.5459,-126.3932 931.2593,-123.0674 932.2195,-123.3468 945.9346,-127.1168 973.4924,-134.2442 1092.5742,-223.2408 1052.6437,-292.0813 1031.6755,-333.2829 940.1794,-312.6675 936.5953,-308.697 935.0075,-307.9759 934.2166,-307.2686 930.6304,-307.2686 927.0453,-272.6351 923.682,-307.4228 919.3398,-307.4228 918.8826,-307.5533 918.3181,-307.5533 914.5106,-304.2815 909.1291,-302.6834 903.4099,-304.4264 899.7917,-307.6127 903.3169,-310.5683 908.7607,-312.1575 908.7607,-312.1575 903.3169,-310.5683 899.7917,-307.6127 903.4099,-304.4264 909.1291,-302.6834 914.5106,-304.2815 918.3181,-307.5533 918.8826,-307.5533 919.3398,-307.4228 923.682,-307.4228 927.0453,-272.6351 930.6304,-307.2686 934.2166,-307.2686 935.0075,-307.9759 936.5953,-308.697 940.1794,-312.6675 1031.6755,-333.2829 1013.8158,-371.5376 1022.8068,-386.1371 1028.6852,-396.5515 1037.8116,-414.4106 1050.3958,-442.1978 1071.9956,-484.0094 1094.9617,-521.3014 1045.22,-539.9506 1032.1188,-544.402 1022.3688,-546.6755 1011.5121,-548.4427 997.9438,-549.6919 993.8005,-549.9259 991.6082,-549.8945 980.3828,-550.1526 973.9632,-550.5396 972.0433,-550.7266 959.0405,-552.967 958.7095,-503.5368 955.3648,-472.5394 961.8329,-470.4899 965.0353,-467.6176 961.0453,-464.0719 956.3569,-462.7135 956.3569,-462.7135 961.0453,-464.0719 965.0353,-467.6176 961.8329,-470.4899 955.3648,-472.5394 950.1891,-471.0044 946.695,-467.9412 946.1617,-467.9412 945.0596,-467.5936 945.0596,-467.5936 946.1617,-467.9412 946.695,-467.9412 950.1891,-471.0044 955.3648,-472.5394 958.7095,-503.5368 959.0405,-552.967 952.2954,-554.6337 938.5245,-558.5546 932.389,-560.7529 922.8328,-564.8934 882.0959,-584.0614 882.5466,-593.0904 899.1719,-615.6866 915.2591,-639.1565 915.5095,-639.5557 947.1049,-694.8165 956.3984,-709.507 977.874,-740.6535 988.5599,-755.1772 989.934,-755.5937 1009.2432,-762.4157 1021.6948,-767.735 1023.5375,-768.6131 1027.5302,-766.093 1034.5505,-761.8629 1047.4688,-754.816 1144.0298,-704.9638 1162.9011,-693.5265 1164.2782,-692.6522 1177.5739,-683.4208 1173.7664,-829.6443 1172.6826,-830.5286 1170.0143,-830.5286 1169.7115,-830.1865 1169.7115,-830.1865 1170.0143,-830.5286 1168.2904,-832.5544 1164.0433,-834.9764 1164.0433,-834.9764 1168.2904,-832.5544 1170.0143,-830.5286 1172.6826,-830.5286 1173.7664,-829.6443 1177.5739,-683.4208 1177.5739,-683.4208"/>
<polygon fill="#bbd7d9" stroke="#bbd7d9" points="366.4994,-197.7338 355.784,-198.0343 354.8298,-198.1019 354.5653,-197.8282 323.5444,-162.5178 249.6758,-72.8935 248.5607,-71.6169 220.6835,-41.4811 218.7742,-39.2422 217.0943,-37.1058 202.8075,-19.7341 194.2659,-8.9711 186.6421,1.3057 178.989,11.9598 280.375,105.1291 310.7475,121.7882 336.029,120.7823 353.4182,115.5627 364.2247,112.5074 381.5524,108.2158 391.3873,106.4706 402.8641,104.6348 409.8236,103.6441 444.5871,113.0327 523.7692,127.6099 521.1959,-11.7148 526.3503,-15.7219 527.6526,-17.9924 532.2004,-17.9924 532.7961,-17.8107 536.1613,-17.8107 538.1082,-20.1671 542.4494,-22.6213 547.5705,-22.6213 547.5705,-22.6213 542.4494,-22.6213 538.1082,-20.1671 536.1613,-17.8107 537.3848,-16.3907 542.5516,-13.4127 547.5405,-13.4127 554.1313,-17.5082 554.4487,-17.8808 558.0143,-17.8808 558.3498,-17.9829 560.2225,-65.6614 558.3517,-128.6467 558.7988,-128.6707 558.7988,-128.6707 558.3517,-128.6467 560.2225,-65.6614 558.3498,-17.9829 558.0143,-17.8808 554.4487,-17.8808 554.1313,-17.5082 547.5405,-13.4127 542.5516,-13.4127 537.3848,-16.3907 536.1613,-17.8107 532.7961,-17.8107 532.2004,-17.9924 527.6526,-17.9924 526.3503,-15.7219 521.1959,-11.7148 523.7692,127.6099 525.1997,127.9023 526.4446,128.2079 535.6932,127.7103 545.3848,127.3793 551.4609,127.2912 565.0016,127.6268 564.6772,81.325 564.6772,81.325 565.0016,127.6268 617.0311,131.9798 672.2283,89.6781 711.3005,85.132 713.6979,84.9041 731.7247,83.5752 744.1884,83.4567 750.6318,83.5332 750.8292,71.7207 750.3196,-2.8513 746.7532,-52.7271 748.1831,-54.5216 747.2188,-55.6786 741.8431,-58.8882 736.5082,-58.8882 736.5082,-58.8882 741.8431,-58.8882 747.2188,-55.6786 748.1831,-54.5216 746.7532,-52.7271 750.3196,-2.8513 750.8292,71.7207 750.6318,83.5332 774.0833,85.3182 816.3776,89.4358 859.9759,71.7781 868.8557,61.6204 884.0535,35.3267 904.5862,-41.3061 910.3168,-60.9727 931.2593,-123.0674 926.5459,-126.3932 919.433,-131.0969 906.7137,-139.2272 904.7978,-140.3238 883.4374,-151.6351 870.4899,-157.9144 784.9947,-197.4413 782.8275,-204.5322 767.2699,-222.6889 765.918,-224.1944 758.6782,-231.5321 756.5153,-233.6166 753.2065,-237.2012 739.1896,-250.8518 737.3131,-252.8125 655.2987,-328.3293 651.9554,-331.6141 638.9507,-343.4919 639.0563,-338.2947 641.9995,-278.3205 641.9995,-278.3205 639.0563,-338.2947 635.3913,-239.6891 631.1172,-239.6891 631.1172,-239.6891 635.3913,-239.6891 639.0563,-338.2947 638.9507,-343.4919 629.758,-353.3759 626.4793,-356.5188 619.6509,-364.0735 600.9372,-385.7328 606.0573,-276.8136 611.1912,-239.7074 610.3338,-239.4607 610.3338,-239.4607 611.1912,-239.7074 606.0573,-276.8136 600.9372,-385.7328 599.3904,-387.6654 598.7234,-388.5653 596.12,-392.2162 590.4882,-392.4519 590.0005,-393.6465 588.5876,-396.9328 577.8712,-419.4725 577.44,-420.3291 560.3812,-450.6979 551.5017,-464.4441 541.6871,-477.4343 528.2718,-492.2172 526.2797,-493.944 521.0161,-497.96 518.1122,-501.5635 509.5876,-510.6198 500.0562,-517.2562 480.702,-527.0249 477.2323,-529.3985 472.9779,-533.1196 468.027,-538.4458 461.6103,-544.1334 458.0385,-548.3666 453.6777,-552.225 449.6071,-556.2822 445.8936,-560.4102 433.067,-576.1999 425.8495,-587.5629 411.3772,-612.1273 410.5128,-611.6668 325.4341,-569.1149 311.4391,-561.2253 310.2057,-560.4918 306.3576,-558.0825 301.1627,-529.848 300.2756,-523.0447 299.2321,-516.4123 288.2111,-456.6796 184.4239,-459.5853 180.3586,-459.5613 179.9298,-459.5442 172.9098,-459.7434 170.1944,-459.728 164.8568,-459.5156 158.7369,-459.6909 154.2136,-459.5123 153.8322,-459.4843 142.6083,-459.4261 139.0916,-459.6478 137.5123,-459.64 136.6054,-459.574 127.6305,-459.5321 126.2949,-373.6916 131.0133,-373.6916 132.5123,-373.2414 135.7143,-373.2414 137.0631,-374.8561 141.8928,-377.7176 141.8928,-377.7176 137.0631,-374.8561 135.7143,-373.2414 132.5123,-373.2414 131.0133,-373.6916 126.2949,-373.6916 127.6305,-459.5321 120.8349,-459.7325 118.9832,-459.6612 112.5338,-459.6328 112.9492,-418.3326 110.5175,-379.6389 110.5175,-379.6389 112.9492,-418.3326 112.5338,-459.6328 -40.2793,-469.3591 -26.8725,-373.46 -21.7156,-302.2571 29.4038,-240.5909 109.9949,-268.9712 127.3349,-274.0243 132.2064,-274.9937 148.8896,-277.8056 155.5718,-278.3142 168.9286,-278.9212 170.8825,-278.8298 183.3929,-279.0373 187.3384,-278.9813 196.4063,-279.4262 209.5977,-281.328 216.1753,-282.4843 231.6027,-286.1753 266.6397,-295.6471 273.347,-327.2644 274.8991,-335.8549 278.2009,-363.8865 283.5453,-393.3371 294.2534,-443.8138 380.6502,-419.1056 383.0924,-418.5819 388.5228,-417.6087 405.4677,-415.7639 412.5468,-415.4973 416.9228,-415.1713 419.0292,-415.0895 421.4883,-415.0814 421.8609,-415.0934 424.688,-415.0807 427.1125,-415.2427 434.4577,-415.463 439.7531,-415.4269 442.1964,-415.3205 447.4771,-415.4661 453.1201,-415.2078 458.3482,-414.7764 467.4093,-413.6953 482.537,-410.7767 480.4674,-456.0556 480.4674,-456.0556 482.537,-410.7767 575.2996,-386.143 574.7722,-385.3699 560.9402,-366.6534 560.8303,-366.5112 560.702,-366.3595 558.3915,-363.7456 551.4156,-355.4157 537.3286,-339.3982 526.8099,-329.3177 519.5417,-322.7858 518.5969,-321.9945 449.4591,-253.6373 445.6726,-250.2016 443.4202,-248.3206 437.66,-243.1633 427.1625,-232.4657 421.1985,-226.0298 410.9194,-214.325 403.2045,-204.6475 402.6096,-203.7916 397.936,-197.4251 397.2197,-197.3968 387.8291,-197.4288 385.7749,-197.4799 385.2394,-197.5162 369.0279,-197.6105 370.2602,-102.352 374.2427,-62.4649 378.1885,-62.4649 384.231,-151.981 384.1987,-62.2974 384.3974,-62.2365 389.745,-62.2365 390.4833,-62.0124 393.8486,-62.0124 394.3685,-62.625 400.8375,-66.6238 405.5503,-66.6238 411.4264,-63.0275 412.2524,-62.0275 416.1089,-62.0275 416.1089,-62.0275 412.2524,-62.0275 411.3404,-60.9175 411.3404,-60.9175 412.2524,-62.0275 411.4264,-63.0275 405.5503,-66.6238 400.8375,-66.6238 394.3685,-62.625 393.8486,-62.0124 390.4833,-62.0124 389.745,-62.2365 384.3974,-62.2365 384.1987,-62.2974 384.231,-151.981 378.1885,-62.4649 374.2427,-62.4649 370.2602,-102.352 369.0279,-197.6105 366.4994,-197.7338 366.4994,-197.7338"/>
<polygon fill="#d8d6da" stroke="#d8d6da" points="173.778,-39.732 173.7613,-85.7079 173.7613,-85.7079 173.778,-39.732 172.783,11.0219 178.989,11.9598 186.6421,1.3057 194.2659,-8.9711 202.8075,-19.7341 217.0943,-37.1058 218.7742,-39.2422 220.6835,-41.4811 248.5607,-71.6169 249.6758,-72.8935 323.5444,-162.5178 354.5653,-197.8282 354.8298,-198.1019 355.784,-198.0343 366.4994,-197.7338 369.0279,-197.6105 385.2394,-197.5162 385.7749,-197.4799 387.8291,-197.4288 397.2197,-197.3968 397.936,-197.4251 402.6096,-203.7916 403.2045,-204.6475 410.9194,-214.325 421.1985,-226.0298 427.1625,-232.4657 437.66,-243.1633 443.4202,-248.3206 445.6726,-250.2016 449.4591,-253.6373 518.5969,-321.9945 519.5417,-322.7858 526.8099,-329.3177 537.3286,-339.3982 551.4156,-355.4157 558.3915,-363.7456 560.702,-366.3595 560.8303,-366.5112 560.9402,-366.6534 574.7722,-385.3699 575.2996,-386.143 482.537,-410.7767 467.4093,-413.6953 458.3482,-414.7764 453.1201,-415.2078 447.4771,-415.4661 442.1964,-415.3205 439.7531,-415.4269 434.4577,-415.463 427.1125,-415.2427 424.688,-415.0807 421.8609,-415.0934 421.4883,-415.0814 419.0292,-415.0895 416.9228,-415.1713 412.5468,-415.4973 405.4677,-415.7639 388.5228,-417.6087 383.0924,-418.5819 380.6502,-419.1056 294.2534,-443.8138 283.5453,-393.3371 278.2009,-363.8865 274.8991,-335.8549 273.347,-327.2644 266.6397,-295.6471 231.6027,-286.1753 216.1753,-282.4843 209.5977,-281.328 196.4063,-279.4262 187.3384,-278.9813 183.3929,-279.0373 170.8825,-278.8298 168.9286,-278.9212 155.5718,-278.3142 148.8896,-277.8056 132.2064,-274.9937 127.3349,-274.0243 109.9949,-268.9712 29.4038,-240.5909 30.3082,-205.411 170.8894,-190.0228 175.1017,-185.5963 177.3881,-184.6306 177.517,-184.5224 181.075,-184.5224 186.207,-244.3434 187.4382,-184.1754 188.8304,-184.1754 192.2845,-187.2867 192.2845,-187.2867 188.8304,-184.1754 187.4382,-184.1754 186.207,-244.3434 181.075,-184.5224 177.517,-184.5224 177.3881,-184.6306 175.1017,-185.5963 170.8894,-190.0228 30.3082,-205.411 30.4319,-173.8112 28.6085,-127.8763 164.1143,10.0957 172.783,11.0219 173.778,-39.732 173.778,-39.732"/>
<polygon fill="#fbb4ae" stroke="#fbb4ae" points="1050.3958,-442.1978 1037.8116,-414.4106 1028.6852,-396.5515 1022.8068,-386.1371 1013.8158,-371.5376 1031.6755,-333.2829 1052.6437,-292.0813 1092.5742,-223.2408 1101.5134,-223.7906 1111.9531,-224.2623 1135.048,-224.1727 1139.0275,-224.0272 1152.0415,-222.912 1156.7671,-222.4297 1163.397,-225.9118 1169.8354,-229.0266 1181.8379,-234.5856 1365.6053,-312.0447 1392.6425,-250.3994 1415.0575,-193.4691 1449.2782,-100.5219 1468.2277,-80.1787 1491.0978,-75.3202 1555.6038,-86.8745 1560.1733,-87.5105 1579.6388,-89.4452 1594.8206,-90.0429 1599.1592,-90.0401 1607.282,-89.8728 1608.0598,-89.8412 1618.2633,-89.2232 1641.0262,-86.4772 1650.3618,-85.1662 1704.5972,-99.0564 1743.3489,-117.865 1771.8411,-219.9542 1780.4689,-246.3736 1778.1477,-249.9323 1716.2863,-349.2307 1682.91,-387.1188 1636.3586,-380.6597 1624.2719,-379.2087 1615.7472,-378.3459 1608.8651,-377.9083 1608.457,-377.89 1585.9086,-377.7269 1584.0493,-377.7484 1568.4674,-379.1019 1562.4783,-379.7348 1561.045,-379.2141 1550.5459,-375.6191 1554.4027,-266.3192 1554.4027,-266.3192 1550.5459,-375.6191 1374.0905,-322.6284 1369.0547,-320.3764 1338.3623,-383.6697 1327.475,-407.2748 1296.1689,-483.3229 1267.6992,-541.1037 1220.6564,-583.5638 1182.9994,-559.498 1181.2295,-508.0427 1181.2295,-508.0427 1182.9994,-559.498 1168.5273,-550.9676 1152.3695,-542.2589 1151.5571,-541.8629 1139.1816,-536.1397 1139.5222,-464.1498 1139.5222,-464.1498 1139.1816,-536.1397 1127.5004,-531.3316 1113.5193,-526.6372 1103.1975,-523.4348 1094.9617,-521.3014 1071.9956,-484.0094 1050.3958,-442.1978 1050.3958,-442.1978"/>
<polygon fill="#d8d6da" stroke="#d8d6da" points="882.5466,-593.0904 899.1719,-615.6866 915.2591,-639.1565 915.5095,-639.5557 947.1049,-694.8165 956.3984,-709.507 977.874,-740.6535 988.5599,-755.1772 989.934,-755.5937 1009.2432,-762.4157 1021.6948,-767.735 1023.5375,-768.6131 1027.5302,-766.093 1034.5505,-761.8629 1047.4688,-754.816 1144.0298,-704.9638 1162.9011,-693.5265 1164.2782,-692.6522 1177.5739,-683.4208 1186.549,-676.9297 1210.0913,-659.2355 1218.7438,-652.9776 1219.1056,-617.9343 1220.6564,-583.5638 1182.9994,-559.498 1168.5273,-550.9676 1152.3695,-542.2589 1151.5571,-541.8629 1139.1816,-536.1397 1127.5004,-531.3316 1113.5193,-526.6372 1103.1975,-523.4348 1094.9617,-521.3014 1045.22,-539.9506 1032.1188,-544.402 1022.3688,-546.6755 1011.5121,-548.4427 997.9438,-549.6919 993.8005,-549.9259 991.6082,-549.8945 980.3828,-550.1526 973.9632,-550.5396 972.0433,-550.7266 959.0405,-552.967 952.2954,-554.6337 938.5245,-558.5546 932.389,-560.7529 922.8328,-564.8934 882.0959,-584.0614 882.5466,-593.0904 882.5466,-593.0904"/>
<polyline fill="none" stroke="#000000" points="560.6202,-683.6978 569.2423,-683.8043 573.5543,-683.677 578.9646,-683.6269 581.3905,-683.5536 587.4069,-683.7371 589.3589,-683.8759 592.2557,-683.9603 602.6119,-671.2653 615.6827,-656.6355 620.6212,-651.6484 625.1756,-646.756 634.0677,-638.2294 638.0853,-633.7838 704.0929,-565.4141 714.1731,-555.8552 731.8248,-537.864 737.6042,-531.2388 740.4435,-528.348 755.8645,-510.8797 757.6627,-508.6456 763.8084,-500.6509 768.3718,-494.1679 759.456,-487.7347 744.5436,-477.8499 743.572,-477.2641 739.3717,-474.8528 630.6047,-415.5411 627.024,-413.4861 605.2457,-399.0521 596.12,-392.2162 590.4882,-392.4519 590.0005,-393.6465 588.5876,-396.9328 577.8712,-419.4725 577.44,-420.3291 560.3812,-450.6979 551.5017,-464.4441 541.6871,-477.4343 528.2718,-492.2172 526.2797,-493.944 521.0161,-497.96 518.1122,-501.5635 509.5876,-510.6198 500.0562,-517.2562 480.702,-527.0249 477.2323,-529.3985 472.9779,-533.1196 468.027,-538.4458 461.6103,-544.1334 458.0385,-548.3666 453.6777,-552.225 449.6071,-556.2822 445.8936,-560.4102 433.067,-576.1999 425.8495,-587.5629 411.3772,-612.1273 410.5128,-611.6668 325.4341,-569.1149 311.4391,-561.2253 310.2057,-560.4918 306.3576,-558.0825 301.1627,-529.848 300.2756,-523.0447 299.2321,-516.4123 288.2111,-456.6796 184.4239,-459.5853 180.3586,-459.5613 179.9298,-459.5442 172.9098,-459.7434 170.1944,-459.728 164.8568,-459.5156 158.7369,-459.6909 154.2136,-459.5123 153.8322,-459.4843 142.6083,-459.4261 139.0916,-459.6478 137.5123,-459.64 136.6054,-459.574 127.6305,-459.5321 120.8349,-459.7325 118.9832,-459.6612 112.5338,-459.6328 -40.2793,-469.3591 -60.2008,-498.152 -58.083,-509.9161 -49.4716,-562.9348 -48.8439,-567.9271 -124.2315,-722.2892 -127.6467,-728.6431 -132.28,-736.8836 -131.8404,-772.7529 -79.0764,-855.9603 20.7637,-886.5378 48.9689,-895.7293 52.1347,-896.9407 66.7302,-902.8061 68.5568,-903.6805 77.435,-951.422 79.4883,-965.6185 81.7583,-975.4056 99.8057,-1014.9813 132.7127,-1091.9159 194.4179,-1138.2496 230.3992,-1148.4567 232.054,-1148.9851 244.7801,-1153.2784 254.9329,-1156.8845 267.9592,-1161.9731 287.1094,-1198.2656 332.6938,-1266.9723 390.0983,-1285.6234 449.2171,-1274.8475 457.6438,-1273.6158 460.3947,-1273.2634 473.2169,-1272.082 488.0861,-1271.2483 491.6596,-1271.177 502.6921,-1271.3544 523.6486,-1272.0692 630.817,-1200.0391 662.6423,-1162.8771 664.8646,-1159.3319 675.764,-1142.6508 651.9159,-1110.0739 639.4595,-1092.3036 624.5861,-1070.0428 627.6345,-981.3917 628.166,-974.0829 628.0815,-949.5609 628.136,-948.8101 629.175,-918.5927 620.6687,-913.2348 606.7457,-905.7117 596.5316,-901.1281 583.5718,-896.4934 577.4316,-894.8619 571.006,-893.4465 568.2936,-892.9725 552.7178,-891.6555 548.7438,-891.5012 546.9243,-891.5134 536.2727,-891.1 534.9671,-890.9903 534.1362,-890.8828 527.4483,-889.7099 516.5395,-887.2944 509.9621,-885.5405 507.5584,-884.7917 507.4593,-884.7564 498.3099,-881.0627 491.5198,-878.0092 488.311,-876.4198 490.2244,-835.548 491.0315,-827.5058 490.9516,-813.4136 490.6548,-808.3548 496.2426,-688.9999 502.9212,-687.7466 518.7847,-685.4099 536.5475,-684.2288 540.3019,-684.0551 552.5288,-683.9841 553.9788,-683.8845 560.6202,-683.6978 "/>
<polyline fill="none" stroke="#000000" points="629.175,-918.5927 628.136,-948.8101 628.0815,-949.5609 628.166,-974.0829 627.6345,-981.3917 624.5861,-1070.0428 639.4595,-1092.3036 651.9159,-1110.0739 675.764,-1142.6508 699.9293,-1138.3964 714.3426,-1136.1063 729.068,-1134.0221 745.1625,-1132.8618 762.6596,-1132.208 762.9999,-1132.207 766.0569,-1132.2521 774.237,-1132.5144 788.5384,-1133.2213 827.7766,-1135.8397 880.4352,-1120.9185 887.6569,-1126.9539 1000.5787,-1224.8683 1050.3304,-1241.6085 1058.5614,-1241.3601 1061.5762,-1240.0272 1073.546,-1235.4851 1075.2499,-1234.8743 1089.1111,-1230.4773 1096.681,-1228.2344 1116.291,-1223.6492 1116.6893,-1223.5728 1130.6234,-1221.1906 1133.9889,-1220.7562 1146.2684,-1219.4272 1221.0585,-1212.9005 1272.079,-1143.4761 1274.2865,-1114.0457 1274.2439,-1109.6805 1274.6298,-1080.8638 1275.6344,-1053.4204 1278.5621,-1004.2854 1267.1439,-972.8857 1312.6931,-888.0023 1314.1896,-847.7211 1316.9263,-814.7029 1312.8768,-796.9673 1303.1371,-749.2757 1218.7438,-652.9776 1210.0913,-659.2355 1186.549,-676.9297 1177.5739,-683.4208 1164.2782,-692.6522 1162.9011,-693.5265 1144.0298,-704.9638 1047.4688,-754.816 1034.5505,-761.8629 1027.5302,-766.093 1023.5375,-768.6131 1021.6948,-767.735 1009.2432,-762.4157 989.934,-755.5937 988.5599,-755.1772 977.874,-740.6535 956.3984,-709.507 947.1049,-694.8165 915.5095,-639.5557 915.2591,-639.1565 899.1719,-615.6866 882.5466,-593.0904 882.0959,-584.0614 922.8328,-564.8934 932.389,-560.7529 938.5245,-558.5546 952.2954,-554.6337 959.0405,-552.967 972.0433,-550.7266 973.9632,-550.5396 980.3828,-550.1526 991.6082,-549.8945 993.8005,-549.9259 997.9438,-549.6919 1011.5121,-548.4427 1022.3688,-546.6755 1032.1188,-544.402 1045.22,-539.9506 1094.9617,-521.3014 1071.9956,-484.0094 1050.3958,-442.1978 1037.8116,-414.4106 1028.6852,-396.5515 1022.8068,-386.1371 1013.8158,-371.5376 1031.6755,-333.2829 1052.6437,-292.0813 1092.5742,-223.2408 973.4924,-134.2442 945.9346,-127.1168 932.2195,-123.3468 931.2593,-123.0674 926.5459,-126.3932 919.433,-131.0969 906.7137,-139.2272 904.7978,-140.3238 883.4374,-151.6351 870.4899,-157.9144 784.9947,-197.4413 782.8275,-204.5322 767.2699,-222.6889 765.918,-224.1944 758.6782,-231.5321 756.5153,-233.6166 753.2065,-237.2012 739.1896,-250.8518 737.3131,-252.8125 655.2987,-328.3293 651.9554,-331.6141 638.9507,-343.4919 629.758,-353.3759 626.4793,-356.5188 619.6509,-364.0735 600.9372,-385.7328 599.3904,-387.6654 598.7234,-388.5653 596.12,-392.2162 605.2457,-399.0521 627.024,-413.4861 630.6047,-415.5411 739.3717,-474.8528 743.572,-477.2641 744.5436,-477.8499 759.456,-487.7347 768.3718,-494.1679 763.8084,-500.6509 757.6627,-508.6456 755.8645,-510.8797 740.4435,-528.348 737.6042,-531.2388 731.8248,-537.864 714.1731,-555.8552 704.0929,-565.4141 638.0853,-633.7838 634.0677,-638.2294 625.1756,-646.756 620.6212,-651.6484 615.6827,-656.6355 602.6119,-671.2653 592.2557,-683.9603 589.3589,-683.8759 587.4069,-683.7371 581.3905,-683.5536 578.9646,-683.6269 573.5543,-683.677 569.2423,-683.8043 560.6202,-683.6978 553.9788,-683.8845 552.5288,-683.9841 540.3019,-684.0551 536.5475,-684.2288 518.7847,-685.4099 502.9212,-687.7466 496.2426,-688.9999 490.6548,-808.3548 490.9516,-813.4136 491.0315,-827.5058 490.2244,-835.548 488.311,-876.4198 491.5198,-878.0092 498.3099,-881.0627 507.4593,-884.7564 507.5584,-884.7917 509.9621,-885.5405 516.5395,-887.2944 527.4483,-889.7099 534.1362,-890.8828 534.9671,-890.9903 536.2727,-891.1 546.9243,-891.5134 548.7438,-891.5012 552.7178,-891.6555 568.2936,-892.9725 571.006,-893.4465 577.4316,-894.8619 583.5718,-896.4934 596.5316,-901.1281 606.7457,-905.7117 620.6687,-913.2348 629.175,-918.5927 "/>
<polyline fill="none" stroke="#000000" points="445.8936,-560.4102 449.6071,-556.2822 453.6777,-552.225 458.0385,-548.3666 461.6103,-544.1334 468.027,-538.4458 472.9779,-533.1196 477.2323,-529.3985 480.702,-527.0249 500.0562,-517.2562 509.5876,-510.6198 518.1122,-501.5635 521.0161,-497.96 526.2797,-493.944 528.2718,-492.2172 541.6871,-477.4343 551.5017,-464.4441 560.3812,-450.6979 577.44,-420.3291 577.8712,-419.4725 588.5876,-396.9328 590.0005,-393.6465 590.4882,-392.4519 596.12,-392.2162 598.7234,-388.5653 599.3904,-387.6654 600.9372,-385.7328 619.6509,-364.0735 626.4793,-356.5188 629.758,-353.3759 638.9507,-343.4919 651.9554,-331.6141 655.2987,-328.3293 737.3131,-252.8125 739.1896,-250.8518 753.2065,-237.2012 756.5153,-233.6166 758.6782,-231.5321 765.918,-224.1944 767.2699,-222.6889 782.8275,-204.5322 784.9947,-197.4413 870.4899,-157.9144 883.4374,-151.6351 904.7978,-140.3238 906.7137,-139.2272 919.433,-131.0969 926.5459,-126.3932 931.2593,-123.0674 910.3168,-60.9727 904.5862,-41.3061 884.0535,35.3267 868.8557,61.6204 859.9759,71.7781 816.3776,89.4358 774.0833,85.3182 750.6318,83.5332 744.1884,83.4567 731.7247,83.5752 713.6979,84.9041 711.3005,85.132 672.2283,89.6781 617.0311,131.9798 565.0016,127.6268 551.4609,127.2912 545.3848,127.3793 535.6932,127.7103 526.4446,128.2079 525.1997,127.9023 523.7692,127.6099 444.5871,113.0327 409.8236,103.6441 402.8641,104.6348 391.3873,106.4706 381.5524,108.2158 364.2247,112.5074 353.4182,115.5627 336.029,120.7823 310.7475,121.7882 280.375,105.1291 178.989,11.9598 186.6421,1.3057 194.2659,-8.9711 202.8075,-19.7341 217.0943,-37.1058 218.7742,-39.2422 220.6835,-41.4811 248.5607,-71.6169 249.6758,-72.8935 323.5444,-162.5178 354.5653,-197.8282 354.8298,-198.1019 355.784,-198.0343 366.4994,-197.7338 369.0279,-197.6105 385.2394,-197.5162 385.7749,-197.4799 387.8291,-197.4288 397.2197,-197.3968 397.936,-197.4251 402.6096,-203.7916 403.2045,-204.6475 410.9194,-214.325 421.1985,-226.0298 427.1625,-232.4657 437.66,-243.1633 443.4202,-248.3206 445.6726,-250.2016 449.4591,-253.6373 518.5969,-321.9945 519.5417,-322.7858 526.8099,-329.3177 537.3286,-339.3982 551.4156,-355.4157 558.3915,-363.7456 560.702,-366.3595 560.8303,-366.5112 560.9402,-366.6534 574.7722,-385.3699 575.2996,-386.143 482.537,-410.7767 467.4093,-413.6953 458.3482,-414.7764 453.1201,-415.2078 447.4771,-415.4661 442.1964,-415.3205 439.7531,-415.4269 434.4577,-415.463 427.1125,-415.2427 424.688,-415.0807 421.8609,-415.0934 421.4883,-415.0814 419.0292,-415.0895 416.9228,-415.1713 412.5468,-415.4973 405.4677,-415.7639 388.5228,-417.6087 383.0924,-418.5819 380.6502,-419.1056 294.2534,-443.8138 283.5453,-393.3371 278.2009,-363.8865 274.8991,-335.8549 273.347,-327.2644 266.6397,-295.6471 231.6027,-286.1753 216.1753,-282.4843 209.5977,-281.328 196.4063,-279.4262 187.3384,-278.9813 183.3929,-279.0373 170.8825,-278.8298 168.9286,-278.9212 155.5718,-278.3142 148.8896,-277.8056 132.2064,-274.9937 127.3349,-274.0243 109.9949,-268.9712 29.4038,-240.5909 -21.7156,-302.2571 -26.8725,-373.46 -40.2793,-469.3591 112.5338,-459.6328 118.9832,-459.6612 120.8349,-459.7325 127.6305,-459.5321 136.6054,-459.574 137.5123,-459.64 139.0916,-459.6478 142.6083,-459.4261 153.8322,-459.4843 154.2136,-459.5123 158.7369,-459.6909 164.8568,-459.5156 170.1944,-459.728 172.9098,-459.7434 179.9298,-459.5442 180.3586,-459.5613 184.4239,-459.5853 288.2111,-456.6796 299.2321,-516.4123 300.2756,-523.0447 301.1627,-529.848 306.3576,-558.0825 310.2057,-560.4918 311.4391,-561.2253 325.4341,-569.1149 410.5128,-611.6668 411.3772,-612.1273 425.8495,-587.5629 433.067,-576.1999 445.8936,-560.4102 "/>
<polyline fill="none" stroke="#000000" points="405.4677,-415.7639 412.5468,-415.4973 416.9228,-415.1713 419.0292,-415.0895 421.4883,-415.0814 421.8609,-415.0934 424.688,-415.0807 427.1125,-415.2427 434.4577,-415.463 439.7531,-415.4269 442.1964,-415.3205 447.4771,-415.4661 453.1201,-415.2078 458.3482,-414.7764 467.4093,-413.6953 482.537,-410.7767 575.2996,-386.143 574.7722,-385.3699 560.9402,-366.6534 560.8303,-366.5112 560.702,-366.3595 558.3915,-363.7456 551.4156,-355.4157 537.3286,-339.3982 526.8099,-329.3177 519.5417,-322.7858 518.5969,-321.9945 449.4591,-253.6373 445.6726,-250.2016 443.4202,-248.3206 437.66,-243.1633 427.1625,-232.4657 421.1985,-226.0298 410.9194,-214.325 403.2045,-204.6475 402.6096,-203.7916 397.936,-197.4251 397.2197,-197.3968 387.8291,-197.4288 385.7749,-197.4799 385.2394,-197.5162 369.0279,-197.6105 366.4994,-197.7338 355.784,-198.0343 354.8298,-198.1019 354.5653,-197.8282 323.5444,-162.5178 249.6758,-72.8935 248.5607,-71.6169 220.6835,-41.4811 218.7742,-39.2422 217.0943,-37.1058 202.8075,-19.7341 194.2659,-8.9711 186.6421,1.3057 178.989,11.9598 172.783,11.0219 164.1143,10.0957 28.6085,-127.8763 30.4319,-173.8112 30.3082,-205.411 29.4038,-240.5909 109.9949,-268.9712 127.3349,-274.0243 132.2064,-274.9937 148.8896,-277.8056 155.5718,-278.3142 168.9286,-278.9212 170.8825,-278.8298 183.3929,-279.0373 187.3384,-278.9813 196.4063,-279.4262 209.5977,-281.328 216.1753,-282.4843 231.6027,-286.1753 266.6397,-295.6471 273.347,-327.2644 274.8991,-335.8549 278.2009,-363.8865 283.5453,-393.3371 294.2534,-443.8138 380.6502,-419.1056 383.0924,-418.5819 388.5228,-417.6087 405.4677,-415.7639 "/>
<polyline fill="none" stroke="#000000" points="1585.9086,-377.7269 1608.457,-377.89 1608.8651,-377.9083 1615.7472,-378.3459 1624.2719,-379.2087 1636.3586,-380.6597 1682.91,-387.1188 1716.2863,-349.2307 1778.1477,-249.9323 1780.4689,-246.3736 1771.8411,-219.9542 1743.3489,-117.865 1704.5972,-99.0564 1650.3618,-85.1662 1641.0262,-86.4772 1618.2633,-89.2232 1608.0598,-89.8412 1607.282,-89.8728 1599.1592,-90.0401 1594.8206,-90.0429 1579.6388,-89.4452 1560.1733,-87.5105 1555.6038,-86.8745 1491.0978,-75.3202 1468.2277,-80.1787 1449.2782,-100.5219 1415.0575,-193.4691 1392.6425,-250.3994 1365.6053,-312.0447 1181.8379,-234.5856 1169.8354,-229.0266 1163.397,-225.9118 1156.7671,-222.4297 1152.0415,-222.912 1139.0275,-224.0272 1135.048,-224.1727 1111.9531,-224.2623 1101.5134,-223.7906 1092.5742,-223.2408 1052.6437,-292.0813 1031.6755,-333.2829 1013.8158,-371.5376 1022.8068,-386.1371 1028.6852,-396.5515 1037.8116,-414.4106 1050.3958,-442.1978 1071.9956,-484.0094 1094.9617,-521.3014 1103.1975,-523.4348 1113.5193,-526.6372 1127.5004,-531.3316 1139.1816,-536.1397 1151.5571,-541.8629 1152.3695,-542.2589 1168.5273,-550.9676 1182.9994,-559.498 1220.6564,-583.5638 1267.6992,-541.1037 1296.1689,-483.3229 1327.475,-407.2748 1338.3623,-383.6697 1369.0547,-320.3764 1374.0905,-322.6284 1550.5459,-375.6191 1561.045,-379.2141 1562.4783,-379.7348 1568.4674,-379.1019 1584.0493,-377.7484 1585.9086,-377.7269 "/>
<polyline fill="none" stroke="#000000" points="1021.6948,-767.735 1023.5375,-768.6131 1027.5302,-766.093 1034.5505,-761.8629 1047.4688,-754.816 1144.0298,-704.9638 1162.9011,-693.5265 1164.2782,-692.6522 1177.5739,-683.4208 1186.549,-676.9297 1210.0913,-659.2355 1218.7438,-652.9776 1219.1056,-617.9343 1220.6564,-583.5638 1182.9994,-559.498 1168.5273,-550.9676 1152.3695,-542.2589 1151.5571,-541.8629 1139.1816,-536.1397 1127.5004,-531.3316 1113.5193,-526.6372 1103.1975,-523.4348 1094.9617,-521.3014 1045.22,-539.9506 1032.1188,-544.402 1022.3688,-546.6755 1011.5121,-548.4427 997.9438,-549.6919 993.8005,-549.9259 991.6082,-549.8945 980.3828,-550.1526 973.9632,-550.5396 972.0433,-550.7266 959.0405,-552.967 952.2954,-554.6337 938.5245,-558.5546 932.389,-560.7529 922.8328,-564.8934 882.0959,-584.0614 882.5466,-593.0904 899.1719,-615.6866 915.2591,-639.1565 915.5095,-639.5557 947.1049,-694.8165 956.3984,-709.507 977.874,-740.6535 988.5599,-755.1772 989.934,-755.5937 1009.2432,-762.4157 1021.6948,-767.735 "/>
<!-- device&#45;mapper&#45;libs&#45;&gt;Fedora Container Base -->
<g id="edge1" class="edge">
<title>device&#45;mapper&#45;libs&#45;&gt;Fedora Container Base</title>
<path fill="none" stroke="#444444" stroke-opacity="0.333333" d="M285.5326,-956.4437C331.8658,-888.7774 494.4262,-651.3688 549.1358,-571.4692"/>
<polygon fill="#444444" fill-opacity="0.333333" stroke="#444444" stroke-opacity="0.333333" points="552.2059,-573.1804 554.9678,-562.9519 546.4301,-569.2256 552.2059,-573.1804"/>
</g>
<!-- device&#45;mapper&#45;libs&#45;&gt;device&#45;mapper -->
<g id="edge2" class="edge">
<title>device&#45;mapper&#45;libs&#45;&gt;device&#45;mapper</title>
<path fill="none" stroke="#444444" stroke-opacity="0.333333" d="M293.0945,-956.3409C317.4922,-928.6284 357.7668,-876.0741 379.1707,-844.1155"/>
<polygon fill="#444444" fill-opacity="0.333333" stroke="#444444" stroke-opacity="0.333333" points="382.1389,-845.9715 384.6785,-835.6855 376.2788,-842.1427 382.1389,-845.9715"/>
</g>
<!-- device&#45;mapper&#45;&gt;Fedora Container Base -->
<g id="edge33" class="edge">
<title>device&#45;mapper&#45;&gt;Fedora Container Base</title>
<path fill="none" stroke="#444444" stroke-opacity="0.333333" d="M404.9655,-799.1507C434.9885,-752.1352 514.9347,-626.9407 550.1723,-571.759"/>
<polygon fill="#444444" fill-opacity="0.333333" stroke="#444444" stroke-opacity="0.333333" points="553.1932,-573.5315 555.6254,-563.2196 547.2935,-569.7641 553.1932,-573.5315"/>
</g>
<!-- device&#45;mapper&#45;&gt;device&#45;mapper&#45;libs -->
<g id="edge34" class="edge">
<title>device&#45;mapper&#45;&gt;device&#45;mapper&#45;libs</title>
<path fill="none" stroke="#444444" stroke-opacity="0.333333" d="M373.2655,-835.7391C348.8678,-863.4516 308.5932,-916.0059 287.1893,-947.9645"/>
<polygon fill="#444444" fill-opacity="0.333333" stroke="#444444" stroke-opacity="0.333333" points="284.2211,-946.1085 281.6815,-956.3945 290.0812,-949.9373 284.2211,-946.1085"/>
</g>
<!-- device&#45;mapper&#45;&gt;systemd -->
<g id="edge35" class="edge">
<title>device&#45;mapper&#45;&gt;systemd</title>
<path fill="none" stroke="#444444" stroke-opacity="0.333333" d="M429.9734,-799.3924C495.2313,-767.2776 631.3012,-700.3147 702.6884,-665.1836"/>
<polygon fill="#444444" fill-opacity="0.333333" stroke="#444444" stroke-opacity="0.333333" points="704.4735,-668.206 711.9004,-660.6502 701.3826,-661.9254 704.4735,-668.206"/>
</g>
<!-- device&#45;mapper&#45;&gt;util&#45;linux -->
<g id="edge36" class="edge">
<title>device&#45;mapper&#45;&gt;util&#45;linux</title>
<path fill="none" stroke="#444444" stroke-opacity="0.333333" d="M379.8635,-799.2489C363.3011,-776.7801 335.0127,-738.4035 316.112,-712.7625"/>
<polygon fill="#444444" fill-opacity="0.333333" stroke="#444444" stroke-opacity="0.333333" points="318.8434,-710.5692 310.0926,-704.5965 313.2088,-714.7227 318.8434,-710.5692"/>
</g>
<!-- libargon2&#45;&gt;Fedora Container Base -->
<g id="edge3" class="edge">
<title>libargon2&#45;&gt;Fedora Container Base</title>
<path fill="none" stroke="#444444" stroke-opacity="0.333333" d="M476.7417,-1100.8733C490.2449,-1017.9504 546.1784,-674.4624 562.6663,-573.21"/>
<polygon fill="#444444" fill-opacity="0.333333" stroke="#444444" stroke-opacity="0.333333" points="566.1547,-573.5636 564.3075,-563.1311 559.2457,-572.4385 566.1547,-573.5636"/>
</g>
<!-- dbus&#45;broker&#45;&gt;Fedora Container Base -->
<g id="edge4" class="edge">
<title>dbus&#45;broker&#45;&gt;Fedora Container Base</title>
<path fill="none" stroke="#444444" stroke-opacity="0.333333" d="M813.4074,-694.7187C762.9794,-664.046 660.8821,-601.9455 605.3384,-568.1611"/>
<polygon fill="#444444" fill-opacity="0.333333" stroke="#444444" stroke-opacity="0.333333" points="606.8744,-564.9988 596.5119,-562.7924 603.2367,-570.9794 606.8744,-564.9988"/>
</g>
<!-- dbus&#45;broker&#45;&gt;dbus&#45;common -->
<g id="edge5" class="edge">
<title>dbus&#45;broker&#45;&gt;dbus&#45;common</title>
<path fill="none" stroke="#444444" stroke-opacity="0.333333" d="M848.7522,-731.1081C856.4305,-756.3715 870.3562,-802.1902 879.3218,-831.6891"/>
<polygon fill="#444444" fill-opacity="0.333333" stroke="#444444" stroke-opacity="0.333333" points="876.011,-832.8321 882.2678,-841.3822 882.7085,-830.7965 876.011,-832.8321"/>
</g>
<!-- dbus&#45;broker&#45;&gt;shadow&#45;utils -->
<g id="edge6" class="edge">
<title>dbus&#45;broker&#45;&gt;shadow&#45;utils</title>
<path fill="none" stroke="#444444" stroke-opacity="0.333333" d="M809.9608,-694.7046C738.5009,-655.7159 570.352,-563.9735 491.5286,-520.9673"/>
<polygon fill="#444444" fill-opacity="0.333333" stroke="#444444" stroke-opacity="0.333333" points="492.826,-517.6881 482.3713,-515.971 489.4733,-523.833 492.826,-517.6881"/>
</g>
<!-- dbus&#45;broker&#45;&gt;systemd -->
<g id="edge7" class="edge">
<title>dbus&#45;broker&#45;&gt;systemd</title>
<path fill="none" stroke="#444444" stroke-opacity="0.333333" d="M818.8536,-694.7412C807.385,-686.2155 793.541,-675.9241 781.1892,-666.7419"/>
<polygon fill="#444444" fill-opacity="0.333333" stroke="#444444" stroke-opacity="0.333333" points="783.0374,-663.7546 772.9239,-660.5975 778.8612,-669.3724 783.0374,-663.7546"/>
</g>
<!-- dbus&#45;common&#45;&gt;Fedora Container Base -->
<g id="edge8" class="edge">
<title>dbus&#45;common&#45;&gt;Fedora Container Base</title>
<path fill="none" stroke="#444444" stroke-opacity="0.333333" d="M869.1338,-841.1564C814.6849,-787.7387 655.6347,-631.7009 593.0176,-570.2698"/>
<polygon fill="#444444" fill-opacity="0.333333" stroke="#444444" stroke-opacity="0.333333" points="595.1177,-567.4269 585.5282,-562.9222 590.2154,-572.4238 595.1177,-567.4269"/>
</g>
<!-- dbus&#45;common&#45;&gt;dbus&#45;common -->
<g id="edge9" class="edge">
<title>dbus&#45;common&#45;&gt;dbus&#45;common</title>
<path fill="none" stroke="#444444" stroke-opacity="0.333333" d="M965.3155,-865.4433C976.065,-864.4512 983.25,-862.4434 983.25,-859.42 983.25,-857.4831 980.3013,-855.9631 975.3557,-854.8598"/>
<polygon fill="#444444" fill-opacity="0.333333" stroke="#444444" stroke-opacity="0.333333" points="975.7157,-851.3754 965.3155,-853.3967 974.7062,-858.3023 975.7157,-851.3754"/>
</g>
<!-- dbus&#45;common&#45;&gt;systemd -->
<g id="edge10" class="edge">
<title>dbus&#45;common&#45;&gt;systemd</title>
<path fill="none" stroke="#444444" stroke-opacity="0.333333" d="M876.1305,-841.3036C851.6364,-803.114 794.6003,-714.1871 765.8612,-669.379"/>
<polygon fill="#444444" fill-opacity="0.333333" stroke="#444444" stroke-opacity="0.333333" points="768.6892,-667.3052 760.3442,-660.7773 762.797,-671.0843 768.6892,-667.3052"/>
</g>
<!-- shadow&#45;utils&#45;&gt;Fedora Container Base -->
<g id="edge11" class="edge">
<title>shadow&#45;utils&#45;&gt;Fedora Container Base</title>
<path fill="none" stroke="#444444" stroke-opacity="0.333333" d="M494.606,-516.0124C501.1506,-518.6235 507.9337,-521.3299 514.6079,-523.9928"/>
<polygon fill="#444444" fill-opacity="0.333333" stroke="#444444" stroke-opacity="0.333333" points="513.6829,-527.3919 524.268,-527.847 516.277,-520.8903 513.6829,-527.3919"/>
</g>
<!-- shadow&#45;utils&#45;&gt;shadow&#45;utils -->
<g id="edge12" class="edge">
<title>shadow&#45;utils&#45;&gt;shadow&#45;utils</title>
<path fill="none" stroke="#444444" stroke-opacity="0.333333" d="M520.1856,-504.0834C530.729,-503.13 537.86,-501.0889 537.86,-497.96 537.86,-496.0044 535.0744,-494.4738 530.4112,-493.368"/>
<polygon fill="#444444" fill-opacity="0.333333" stroke="#444444" stroke-opacity="0.333333" points="530.5938,-489.8564 520.1856,-491.8366 529.5569,-496.7792 530.5938,-489.8564"/>
</g>
<!-- shadow&#45;utils&#45;&gt;libsemanage -->
<g id="edge13" class="edge">
<title>shadow&#45;utils&#45;&gt;libsemanage</title>
<path fill="none" stroke="#444444" stroke-opacity="0.333333" d="M405.0758,-479.8566C350.3802,-457.4971 257.3871,-419.4815 198.6299,-395.4616"/>
<polygon fill="#444444" fill-opacity="0.333333" stroke="#444444" stroke-opacity="0.333333" points="199.7285,-392.1296 189.1476,-391.5852 197.0796,-398.609 199.7285,-392.1296"/>
</g>
<!-- systemd&#45;&gt;Fedora Container Base -->
<g id="edge14" class="edge">
<title>systemd&#45;&gt;Fedora Container Base</title>
<path fill="none" stroke="#444444" stroke-opacity="0.333333" d="M714.9652,-624.4384C685.0304,-608.3389 641.164,-584.7468 609.0125,-567.4552"/>
<polygon fill="#444444" fill-opacity="0.333333" stroke="#444444" stroke-opacity="0.333333" points="610.3233,-564.1861 599.8584,-562.532 607.0077,-570.3511 610.3233,-564.1861"/>
</g>
<!-- systemd&#45;&gt;shadow&#45;utils -->
<g id="edge15" class="edge">
<title>systemd&#45;&gt;shadow&#45;utils</title>
<path fill="none" stroke="#444444" stroke-opacity="0.333333" d="M711.3586,-624.5387C656.7686,-598.1647 555.1747,-549.0819 495.8114,-520.4019"/>
<polygon fill="#444444" fill-opacity="0.333333" stroke="#444444" stroke-opacity="0.333333" points="497.187,-517.1795 486.6602,-515.9808 494.1419,-523.4825 497.187,-517.1795"/>
</g>
<!-- systemd&#45;&gt;systemd -->
<g id="edge16" class="edge">
<title>systemd&#45;&gt;systemd</title>
<path fill="none" stroke="#444444" stroke-opacity="0.333333" d="M810.3267,-648.8613C820.8613,-648.0003 828.16,-645.8998 828.16,-642.56 828.16,-640.4204 825.1646,-638.7895 820.242,-637.6672"/>
<polygon fill="#444444" fill-opacity="0.333333" stroke="#444444" stroke-opacity="0.333333" points="820.7196,-634.2 810.3267,-636.2587 819.7351,-641.1304 820.7196,-634.2"/>
</g>
<!-- systemd&#45;&gt;util&#45;linux -->
<g id="edge17" class="edge">
<title>systemd&#45;&gt;util&#45;linux</title>
<path fill="none" stroke="#444444" stroke-opacity="0.333333" d="M686.7769,-648.5844C604.7027,-656.5744 459.964,-670.6648 371.7768,-679.25"/>
<polygon fill="#444444" fill-opacity="0.333333" stroke="#444444" stroke-opacity="0.333333" points="371.1889,-675.7906 361.5751,-680.2431 371.8672,-682.7576 371.1889,-675.7906"/>
</g>
<!-- systemd&#45;&gt;iptables&#45;libs -->
<g id="edge18" class="edge">
<title>systemd&#45;&gt;iptables&#45;libs</title>
<path fill="none" stroke="#444444" stroke-opacity="0.333333" d="M728.4198,-624.1221C670.3388,-571.2129 503.0488,-418.8192 436.5589,-358.2498"/>
<polygon fill="#444444" fill-opacity="0.333333" stroke="#444444" stroke-opacity="0.333333" points="438.7137,-355.4782 428.9642,-351.3313 433.9997,-360.653 438.7137,-355.4782"/>
</g>
<!-- systemd&#45;&gt;acl -->
<g id="edge19" class="edge">
<title>systemd&#45;&gt;acl</title>
<path fill="none" stroke="#444444" stroke-opacity="0.333333" d="M749.2467,-624.4199C750.8618,-574.4809 755.3833,-434.6768 757.3438,-374.0581"/>
<polygon fill="#444444" fill-opacity="0.333333" stroke="#444444" stroke-opacity="0.333333" points="760.8536,-373.8082 757.6788,-363.7003 753.8573,-373.5819 760.8536,-373.8082"/>
</g>
<!-- systemd&#45;&gt;cryptsetup&#45;libs -->
<g id="edge20" class="edge">
<title>systemd&#45;&gt;cryptsetup&#45;libs</title>
<path fill="none" stroke="#444444" stroke-opacity="0.333333" d="M734.8302,-661.0106C694.5452,-714.7555 577.1843,-871.3287 530.2772,-933.9083"/>
<polygon fill="#444444" fill-opacity="0.333333" stroke="#444444" stroke-opacity="0.333333" points="527.3385,-931.9933 524.1413,-942.0943 532.9397,-936.1918 527.3385,-931.9933"/>
</g>
<!-- systemd&#45;&gt;dbus -->
<g id="edge21" class="edge">
<title>systemd&#45;&gt;dbus</title>
<path fill="none" stroke="#444444" stroke-opacity="0.333333" d="M788.1681,-660.6006C863.9062,-695.1849 1029.3197,-770.7178 1111.8468,-808.4021"/>
<polygon fill="#444444" fill-opacity="0.333333" stroke="#444444" stroke-opacity="0.333333" points="1110.4589,-811.616 1121.0092,-812.586 1113.3666,-805.2484 1110.4589,-811.616"/>
</g>
<!-- systemd&#45;&gt;kmod&#45;libs -->
<g id="edge22" class="edge">
<title>systemd&#45;&gt;kmod&#45;libs</title>
<path fill="none" stroke="#444444" stroke-opacity="0.333333" d="M757.2784,-624.5398C783.7527,-569.1849 864.0221,-401.3504 895.8019,-334.9021"/>
<polygon fill="#444444" fill-opacity="0.333333" stroke="#444444" stroke-opacity="0.333333" points="899.1418,-336.0308 900.299,-325.4993 892.8269,-333.0105 899.1418,-336.0308"/>
</g>
<!-- systemd&#45;&gt;libseccomp -->
<g id="edge23" class="edge">
<title>systemd&#45;&gt;libseccomp</title>
<path fill="none" stroke="#444444" stroke-opacity="0.333333" d="M770.0474,-624.5014C807.3371,-593.0156 884.2952,-528.0355 926.5094,-492.3917"/>
<polygon fill="#444444" fill-opacity="0.333333" stroke="#444444" stroke-opacity="0.333333" points="928.8359,-495.0081 934.2186,-485.8824 924.3199,-489.6596 928.8359,-495.0081"/>
</g>
<!-- systemd&#45;&gt;qrencode&#45;libs -->
<g id="edge24" class="edge">
<title>systemd&#45;&gt;qrencode&#45;libs</title>
<path fill="none" stroke="#444444" stroke-opacity="0.333333" d="M748.4867,-660.857C747.9776,-714.6161 746.4835,-872.3689 745.8689,-937.2702"/>
<polygon fill="#444444" fill-opacity="0.333333" stroke="#444444" stroke-opacity="0.333333" points="742.3663,-937.5309 745.7714,-947.5637 749.366,-937.5973 742.3663,-937.5309"/>
</g>
<!-- systemd&#45;&gt;systemd&#45;pam -->
<g id="edge25" class="edge">
<title>systemd&#45;&gt;systemd&#45;pam</title>
<path fill="none" stroke="#444444" stroke-opacity="0.333333" d="M725.9556,-660.8912C692.9474,-693.1169 632.7342,-759.6826 603.0565,-796.6938"/>
<polygon fill="#444444" fill-opacity="0.333333" stroke="#444444" stroke-opacity="0.333333" points="600.3034,-794.5328 596.8719,-804.5565 605.8053,-798.8605 600.3034,-794.5328"/>
</g>
<!-- systemd&#45;&gt;systemd&#45;rpm&#45;macros -->
<g id="edge26" class="edge">
<title>systemd&#45;&gt;systemd&#45;rpm&#45;macros</title>
<path fill="none" stroke="#444444" stroke-opacity="0.333333" d="M763.0387,-660.5812C817.6699,-729.052 1012.5443,-973.2933 1077.5335,-1054.7461"/>
<polygon fill="#444444" fill-opacity="0.333333" stroke="#444444" stroke-opacity="0.333333" points="1075.1344,-1057.3512 1084.1072,-1062.9851 1080.6062,-1052.9854 1075.1344,-1057.3512"/>
</g>
<!-- systemd&#45;&gt;diffutils -->
<g id="edge27" class="edge">
<title>systemd&#45;&gt;diffutils</title>
<path fill="none" stroke="#444444" stroke-dasharray="5,2" stroke-opacity="0.333333" d="M810.3832,-640.158C852.1773,-638.5315 907.3873,-636.3829 950.3238,-634.712"/>
<polygon fill="#444444" fill-opacity="0.333333" stroke="#444444" stroke-opacity="0.333333" points="950.5441,-638.2062 960.4004,-634.3199 950.2719,-631.2115 950.5441,-638.2062"/>
</g>
<!-- systemd&#45;&gt;libxkbcommon -->
<g id="edge28" class="edge">
<title>systemd&#45;&gt;libxkbcommon</title>
<path fill="none" stroke="#444444" stroke-dasharray="5,2" stroke-opacity="0.333333" d="M777.9403,-624.5C848.2321,-581.1441 1026.4744,-471.2045 1104.707,-422.9507"/>
<polygon fill="#444444" fill-opacity="0.333333" stroke="#444444" stroke-opacity="0.333333" points="1106.6208,-425.8825 1113.2946,-417.6538 1102.946,-419.9247 1106.6208,-425.8825"/>
</g>
<!-- libsemanage&#45;&gt;Fedora Container Base -->
<g id="edge43" class="edge">
<title>libsemanage&#45;&gt;Fedora Container Base</title>
<path fill="none" stroke="#444444" stroke-opacity="0.333333" d="M189.2211,-391.4936C268.0591,-423.5065 432.0201,-490.0845 515.7042,-524.0652"/>
<polygon fill="#444444" fill-opacity="0.333333" stroke="#444444" stroke-opacity="0.333333" points="514.4303,-527.3255 525.0124,-527.845 517.064,-520.8398 514.4303,-527.3255"/>
</g>
<!-- libsemanage&#45;&gt;libsemanage -->
<g id="edge44" class="edge">
<title>libsemanage&#45;&gt;libsemanage</title>
<path fill="none" stroke="#444444" stroke-opacity="0.333333" d="M220.3825,-379.5174C231.1109,-378.5377 238.31,-376.5186 238.31,-373.46 238.31,-371.5006 235.3555,-369.9678 230.4113,-368.8615"/>
<polygon fill="#444444" fill-opacity="0.333333" stroke="#444444" stroke-opacity="0.333333" points="230.7823,-365.3787 220.3825,-367.4026 229.7745,-372.3058 230.7823,-365.3787"/>
</g>
<!-- util&#45;linux&#45;&gt;Fedora Container Base -->
<g id="edge29" class="edge">
<title>util&#45;linux&#45;&gt;Fedora Container Base</title>
<path fill="none" stroke="#444444" stroke-opacity="0.333333" d="M331.3199,-668.4788C380.7272,-642.6216 471.507,-595.1122 524.9068,-567.1655"/>
<polygon fill="#444444" fill-opacity="0.333333" stroke="#444444" stroke-opacity="0.333333" points="526.5469,-570.2575 533.784,-562.5196 523.3011,-564.0555 526.5469,-570.2575"/>
</g>
<!-- util&#45;linux&#45;&gt;util&#45;linux -->
<g id="edge30" class="edge">
<title>util&#45;linux&#45;&gt;util&#45;linux</title>
<path fill="none" stroke="#444444" stroke-opacity="0.333333" d="M361.4697,-692.7953C372.0315,-691.9013 379.29,-689.8195 379.29,-686.55 379.29,-684.4555 376.3111,-682.8484 371.3932,-681.7287"/>
<polygon fill="#444444" fill-opacity="0.333333" stroke="#444444" stroke-opacity="0.333333" points="371.8655,-678.2607 361.4697,-680.3047 370.8711,-685.1898 371.8655,-678.2607"/>
</g>
<!-- util&#45;linux&#45;&gt;libfdisk -->
<g id="edge31" class="edge">
<title>util&#45;linux&#45;&gt;libfdisk</title>
<path fill="none" stroke="#444444" stroke-opacity="0.333333" d="M232.0861,-696.8981C200.5784,-701.9372 162.6344,-708.0056 130.4027,-713.1604"/>
<polygon fill="#444444" fill-opacity="0.333333" stroke="#444444" stroke-opacity="0.333333" points="129.4757,-709.7641 120.154,-714.7995 130.5813,-716.6763 129.4757,-709.7641"/>
</g>
<!-- util&#45;linux&#45;&gt;libutempter -->
<g id="edge32" class="edge">
<title>util&#45;linux&#45;&gt;libutempter</title>
<path fill="none" stroke="#444444" stroke-opacity="0.333333" d="M278.1422,-668.4311C252.6001,-643.6134 206.6201,-598.9375 177.7571,-570.8931"/>
<polygon fill="#444444" fill-opacity="0.333333" stroke="#444444" stroke-opacity="0.333333" points="180.0673,-568.2578 170.4562,-563.7993 175.1893,-573.2782 180.0673,-568.2578"/>
</g>
<!-- iptables&#45;libs&#45;&gt;Fedora Container Base -->
<g id="edge37" class="edge">
<title>iptables&#45;libs&#45;&gt;Fedora Container Base</title>
<path fill="none" stroke="#444444" stroke-opacity="0.333333" d="M422.3377,-351.0659C450.3988,-388.6171 515.0972,-475.196 547.7118,-518.8407"/>
<polygon fill="#444444" fill-opacity="0.333333" stroke="#444444" stroke-opacity="0.333333" points="544.9968,-521.0545 553.7865,-526.9699 550.6041,-516.8643 544.9968,-521.0545"/>
</g>
<!-- iptables&#45;libs&#45;&gt;iptables&#45;libs -->
<g id="edge38" class="edge">
<title>iptables&#45;libs&#45;&gt;iptables&#45;libs</title>
<path fill="none" stroke="#444444" stroke-opacity="0.333333" d="M482.4226,-339.0808C493.122,-338.114 500.33,-336.0838 500.33,-332.99 500.33,-331.0081 497.3718,-329.4626 492.4326,-328.3536"/>
<polygon fill="#444444" fill-opacity="0.333333" stroke="#444444" stroke-opacity="0.333333" points="492.822,-324.8734 482.4226,-326.8992 491.8154,-331.8007 492.822,-324.8734"/>
</g>
<!-- iptables&#45;libs&#45;&gt;libpcap -->
<g id="edge39" class="edge">
<title>iptables&#45;libs&#45;&gt;libpcap</title>
<path fill="none" stroke="#444444" stroke-opacity="0.333333" d="M382.9867,-314.7626C345.0405,-287.999 274.1989,-238.0341 232.0724,-208.3221"/>
<polygon fill="#444444" fill-opacity="0.333333" stroke="#444444" stroke-opacity="0.333333" points="233.9839,-205.3873 223.7947,-202.4838 229.9493,-211.1076 233.9839,-205.3873"/>
</g>
<!-- acl&#45;&gt;Fedora Container Base -->
<g id="edge55" class="edge">
<title>acl&#45;&gt;Fedora Container Base</title>
<path fill="none" stroke="#444444" stroke-opacity="0.333333" d="M740.9822,-363.4834C706.818,-399.1805 630.5835,-478.8354 591.4532,-519.7213"/>
<polygon fill="#444444" fill-opacity="0.333333" stroke="#444444" stroke-opacity="0.333333" points="588.7568,-517.4767 584.3711,-527.1212 593.8139,-522.3167 588.7568,-517.4767"/>
</g>
<!-- cryptsetup&#45;libs&#45;&gt;Fedora Container Base -->
<g id="edge56" class="edge">
<title>cryptsetup&#45;libs&#45;&gt;Fedora Container Base</title>
<path fill="none" stroke="#444444" stroke-opacity="0.333333" d="M513.0424,-942.0924C521.9572,-876.7994 552.4977,-653.1199 563.3746,-573.4565"/>
<polygon fill="#444444" fill-opacity="0.333333" stroke="#444444" stroke-opacity="0.333333" points="566.8896,-573.5845 564.7746,-563.2029 559.9539,-572.6375 566.8896,-573.5845"/>
</g>
<!-- cryptsetup&#45;libs&#45;&gt;device&#45;mapper&#45;libs -->
<g id="edge57" class="edge">
<title>cryptsetup&#45;libs&#45;&gt;device&#45;mapper&#45;libs</title>
<path fill="none" stroke="#444444" stroke-opacity="0.333333" d="M433.4638,-964.885C416.2078,-965.9335 397.6086,-967.0636 379.4032,-968.1698"/>
<polygon fill="#444444" fill-opacity="0.333333" stroke="#444444" stroke-opacity="0.333333" points="379.1099,-964.681 369.3406,-968.7812 379.5345,-971.6681 379.1099,-964.681"/>
</g>
<!-- cryptsetup&#45;libs&#45;&gt;libargon2 -->
<g id="edge58" class="edge">
<title>cryptsetup&#45;libs&#45;&gt;libargon2</title>
<path fill="none" stroke="#444444" stroke-opacity="0.333333" d="M506.3509,-978.4164C499.949,-1006.0569 487.7336,-1058.7976 480.2206,-1091.2353"/>
<polygon fill="#444444" fill-opacity="0.333333" stroke="#444444" stroke-opacity="0.333333" points="476.8067,-1090.4642 477.9599,-1100.9961 483.6261,-1092.0437 476.8067,-1090.4642"/>
</g>
<!-- dbus&#45;&gt;dbus&#45;broker -->
<g id="edge59" class="edge">
<title>dbus&#45;&gt;dbus&#45;broker</title>
<path fill="none" stroke="#444444" stroke-opacity="0.333333" d="M1117.8805,-814.8135C1062.0477,-794.0859 964.1483,-757.7413 901.5582,-734.5051"/>
<polygon fill="#444444" fill-opacity="0.333333" stroke="#444444" stroke-opacity="0.333333" points="902.4208,-731.092 891.8279,-730.8928 899.9846,-737.6544 902.4208,-731.092"/>
</g>
<!-- kmod&#45;libs&#45;&gt;Fedora Container Base -->
<g id="edge60" class="edge">
<title>kmod&#45;libs&#45;&gt;Fedora Container Base</title>
<path fill="none" stroke="#444444" stroke-opacity="0.333333" d="M882.9965,-325.4444C821.91,-367.9225 669.1247,-474.1657 600.9837,-521.5494"/>
<polygon fill="#444444" fill-opacity="0.333333" stroke="#444444" stroke-opacity="0.333333" points="598.9308,-518.7138 592.7188,-527.2965 602.9272,-524.4609 598.9308,-518.7138"/>
</g>
<!-- libseccomp&#45;&gt;Fedora Container Base -->
<g id="edge61" class="edge">
<title>libseccomp&#45;&gt;Fedora Container Base</title>
<path fill="none" stroke="#444444" stroke-opacity="0.333333" d="M884.083,-481.9355C818.773,-494.9356 722.2299,-514.1528 652.8952,-527.9541"/>
<polygon fill="#444444" fill-opacity="0.333333" stroke="#444444" stroke-opacity="0.333333" points="651.9942,-524.5647 642.8699,-529.9496 653.3608,-531.43 651.9942,-524.5647"/>
</g>
<!-- qrencode&#45;libs&#45;&gt;Fedora Container Base -->
<g id="edge62" class="edge">
<title>qrencode&#45;libs&#45;&gt;Fedora Container Base</title>
<path fill="none" stroke="#444444" stroke-opacity="0.333333" d="M737.937,-947.5848C709.869,-881.3794 612.564,-651.861 578.8597,-572.3608"/>
<polygon fill="#444444" fill-opacity="0.333333" stroke="#444444" stroke-opacity="0.333333" points="582.0202,-570.8485 574.8945,-563.0079 575.5754,-573.5808 582.0202,-570.8485"/>
</g>
<!-- systemd&#45;pam&#45;&gt;Fedora Container Base -->
<g id="edge63" class="edge">
<title>systemd&#45;pam&#45;&gt;Fedora Container Base</title>
<path fill="none" stroke="#444444" stroke-opacity="0.333333" d="M584.5555,-804.5821C581.4047,-757.2924 572.95,-630.3995 569.1525,-573.4039"/>
<polygon fill="#444444" fill-opacity="0.333333" stroke="#444444" stroke-opacity="0.333333" points="572.6361,-573.0402 568.479,-563.295 565.6516,-573.5056 572.6361,-573.0402"/>
</g>
<!-- systemd&#45;pam&#45;&gt;systemd -->
<g id="edge64" class="edge">
<title>systemd&#45;pam&#45;&gt;systemd</title>
<path fill="none" stroke="#444444" stroke-opacity="0.333333" d="M608.4744,-804.4788C641.4826,-772.2531 701.6958,-705.6874 731.3735,-668.6762"/>
<polygon fill="#444444" fill-opacity="0.333333" stroke="#444444" stroke-opacity="0.333333" points="734.1266,-670.8372 737.5581,-660.8135 728.6247,-666.5095 734.1266,-670.8372"/>
</g>
<!-- diffutils&#45;&gt;Fedora Container Base -->
<g id="edge68" class="edge">
<title>diffutils&#45;&gt;Fedora Container Base</title>
<path fill="none" stroke="#444444" stroke-opacity="0.333333" d="M960.6515,-621.06C883.4129,-606.1264 744.8655,-579.339 654.5117,-561.8696"/>
<polygon fill="#444444" fill-opacity="0.333333" stroke="#444444" stroke-opacity="0.333333" points="655.0419,-558.4074 644.5593,-559.9454 653.7131,-565.2801 655.0419,-558.4074"/>
</g>
<!-- libxkbcommon&#45;&gt;Fedora Container Base -->
<g id="edge69" class="edge">
<title>libxkbcommon&#45;&gt;Fedora Container Base</title>
<path fill="none" stroke="#444444" stroke-opacity="0.333333" d="M1071.0982,-417.6829C961.1325,-445.4706 751.439,-498.459 640.4206,-526.5127"/>
<polygon fill="#444444" fill-opacity="0.333333" stroke="#444444" stroke-opacity="0.333333" points="639.4815,-523.1399 630.6438,-528.9833 641.1965,-529.9266 639.4815,-523.1399"/>
</g>
<!-- libxkbcommon&#45;&gt;xkeyboard&#45;config -->
<g id="edge70" class="edge">
<title>libxkbcommon&#45;&gt;xkeyboard&#45;config</title>
<path fill="none" stroke="#444444" stroke-opacity="0.333333" d="M1190.1682,-381.6186C1273.4266,-350.1419 1444.9946,-285.279 1534.5856,-251.4083"/>
<polygon fill="#444444" fill-opacity="0.333333" stroke="#444444" stroke-opacity="0.333333" points="1535.9281,-254.6426 1544.0442,-247.8324 1533.4526,-248.0949 1535.9281,-254.6426"/>
</g>
<!-- libfdisk&#45;&gt;Fedora Container Base -->
<g id="edge65" class="edge">
<title>libfdisk&#45;&gt;Fedora Container Base</title>
<path fill="none" stroke="#444444" stroke-opacity="0.333333" d="M110.9606,-706.395C206.0291,-672.7689 409.8108,-600.6905 509.6867,-565.3639"/>
<polygon fill="#444444" fill-opacity="0.333333" stroke="#444444" stroke-opacity="0.333333" points="511.0502,-568.5942 519.3107,-561.9599 508.7159,-561.9949 511.0502,-568.5942"/>
</g>
<!-- libutempter&#45;&gt;Fedora Container Base -->
<g id="edge66" class="edge">
<title>libutempter&#45;&gt;Fedora Container Base</title>
<path fill="none" stroke="#444444" stroke-opacity="0.333333" d="M220.0064,-545.627C274.3009,-545.529 352.2794,-545.3882 420.5919,-545.2648"/>
<polygon fill="#444444" fill-opacity="0.333333" stroke="#444444" stroke-opacity="0.333333" points="420.6031,-548.7649 430.5967,-545.2468 420.5904,-541.7649 420.6031,-548.7649"/>
</g>
<!-- libutempter&#45;&gt;shadow&#45;utils -->
<g id="edge67" class="edge">
<title>libutempter&#45;&gt;shadow&#45;utils</title>
<path fill="none" stroke="#444444" stroke-opacity="0.333333" d="M220.1279,-534.786C264.3952,-527.6745 322.2742,-518.3763 368.7975,-510.9023"/>
<polygon fill="#444444" fill-opacity="0.333333" stroke="#444444" stroke-opacity="0.333333" points="369.527,-514.3301 378.8452,-509.2882 368.4166,-507.4187 369.527,-514.3301"/>
</g>
<!-- libpcap&#45;&gt;Fedora Container Base -->
<g id="edge40" class="edge">
<title>libpcap&#45;&gt;Fedora Container Base</title>
<path fill="none" stroke="#444444" stroke-opacity="0.333333" d="M216.6312,-202.4724C277.4548,-261.8906 470.8825,-450.8493 541.3018,-519.6415"/>
<polygon fill="#444444" fill-opacity="0.333333" stroke="#444444" stroke-opacity="0.333333" points="539.2818,-522.5611 548.8808,-527.0455 544.1734,-517.5538 539.2818,-522.5611"/>
</g>
<!-- libicu&#45;&gt;Fedora Container Base -->
<g id="edge41" class="edge">
<title>libicu&#45;&gt;Fedora Container Base</title>
<path fill="none" stroke="#444444" stroke-opacity="0.333333" d="M732.7129,-72.3655C706.7781,-146.4511 608.3723,-427.5581 576.9599,-517.2912"/>
<polygon fill="#444444" fill-opacity="0.333333" stroke="#444444" stroke-opacity="0.333333" points="573.6352,-516.1956 573.6345,-526.7904 580.2421,-518.5085 573.6352,-516.1956"/>
</g>
<!-- libicu&#45;&gt;libicu -->
<g id="edge42" class="edge">
<title>libicu&#45;&gt;libicu</title>
<path fill="none" stroke="#444444" stroke-opacity="0.333333" d="M794.1033,-60.747C804.6041,-59.978 812.03,-57.8356 812.03,-54.32 812.03,-52.0678 808.9824,-50.3792 804.0311,-49.2542"/>
<polygon fill="#444444" fill-opacity="0.333333" stroke="#444444" stroke-opacity="0.333333" points="804.4861,-45.7839 794.1033,-47.893 803.5351,-52.719 804.4861,-45.7839"/>
</g>
<!-- libpq&#45;&gt;Fedora Container Base -->
<g id="edge45" class="edge">
<title>libpq&#45;&gt;Fedora Container Base</title>
<path fill="none" stroke="#444444" stroke-opacity="0.333333" d="M546.0752,-36.1405C549.3256,-114.2158 562.137,-421.9464 566.0913,-516.9275"/>
<polygon fill="#444444" fill-opacity="0.333333" stroke="#444444" stroke-opacity="0.333333" points="562.5949,-517.09 566.508,-526.9358 569.5889,-516.7988 562.5949,-517.09"/>
</g>
<!-- postgresql&#45;&gt;Fedora Container Base -->
<g id="edge46" class="edge">
<title>postgresql&#45;&gt;Fedora Container Base</title>
<path fill="none" stroke="#444444" stroke-opacity="0.333333" d="M409.2934,-80.0565C434.1717,-153.2809 527.6628,-428.4533 557.8197,-517.2144"/>
<polygon fill="#444444" fill-opacity="0.333333" stroke="#444444" stroke-opacity="0.333333" points="554.5648,-518.5144 561.0958,-526.8568 561.1927,-516.2625 554.5648,-518.5144"/>
</g>
<!-- postgresql&#45;&gt;libpq -->
<g id="edge47" class="edge">
<title>postgresql&#45;&gt;libpq</title>
<path fill="none" stroke="#444444" stroke-opacity="0.333333" d="M461.3921,-43.9789C468.0895,-41.9058 474.9443,-39.784 481.7079,-37.6904"/>
<polygon fill="#444444" fill-opacity="0.333333" stroke="#444444" stroke-opacity="0.333333" points="483.0053,-40.9527 491.5232,-34.6522 480.9354,-34.2657 483.0053,-40.9527"/>
</g>
<!-- postgresql&#45;server&#45;&gt;Fedora Container Base -->
<g id="edge48" class="edge">
<title>postgresql&#45;server&#45;&gt;Fedora Container Base</title>
<path fill="none" stroke="#444444" stroke-opacity="0.333333" d="M585.5986,-257.893C582.3268,-309.1162 573.0155,-454.892 569.0662,-516.7217"/>
<polygon fill="#444444" fill-opacity="0.333333" stroke="#444444" stroke-opacity="0.333333" points="565.56,-516.7095 568.4153,-526.9123 572.5457,-517.1557 565.56,-516.7095"/>
</g>
<!-- postgresql&#45;server&#45;&gt;shadow&#45;utils -->
<g id="edge49" class="edge">
<title>postgresql&#45;server&#45;&gt;shadow&#45;utils</title>
<path fill="none" stroke="#444444" stroke-opacity="0.333333" d="M577.0983,-257.8696C553.3487,-302.5082 492.0082,-417.8006 463.8634,-470.7001"/>
<polygon fill="#444444" fill-opacity="0.333333" stroke="#444444" stroke-opacity="0.333333" points="460.6182,-469.3482 459.011,-479.8204 466.798,-472.6361 460.6182,-469.3482"/>
</g>
<!-- postgresql&#45;server&#45;&gt;systemd -->
<g id="edge50" class="edge">
<title>postgresql&#45;server&#45;&gt;systemd</title>
<path fill="none" stroke="#444444" stroke-opacity="0.333333" d="M594.031,-257.8022C619.7639,-321.8325 706.6304,-537.9794 737.5879,-615.0098"/>
<polygon fill="#444444" fill-opacity="0.333333" stroke="#444444" stroke-opacity="0.333333" points="734.4324,-616.5441 741.409,-624.5176 740.9275,-613.9337 734.4324,-616.5441"/>
</g>
<!-- postgresql&#45;server&#45;&gt;libicu -->
<g id="edge51" class="edge">
<title>postgresql&#45;server&#45;&gt;libicu</title>
<path fill="none" stroke="#444444" stroke-opacity="0.333333" d="M601.6375,-221.5965C628.7012,-188.6463 686.0805,-118.7864 717.4462,-80.5984"/>
<polygon fill="#444444" fill-opacity="0.333333" stroke="#444444" stroke-opacity="0.333333" points="720.4497,-82.4561 724.0921,-72.507 715.0404,-78.0132 720.4497,-82.4561"/>
</g>
<!-- postgresql&#45;server&#45;&gt;libpq -->
<g id="edge52" class="edge">
<title>postgresql&#45;server&#45;&gt;libpq</title>
<path fill="none" stroke="#444444" stroke-opacity="0.333333" d="M583.3688,-221.5665C576.1417,-182.9003 559.1805,-92.1559 550.5553,-46.0094"/>
<polygon fill="#444444" fill-opacity="0.333333" stroke="#444444" stroke-opacity="0.333333" points="553.9777,-45.2699 548.6999,-36.0832 547.0969,-46.5561 553.9777,-45.2699"/>
</g>
<!-- postgresql&#45;server&#45;&gt;postgresql -->
<g id="edge53" class="edge">
<title>postgresql&#45;server&#45;&gt;postgresql</title>
<path fill="none" stroke="#444444" stroke-opacity="0.333333" d="M568.1451,-221.6927C535.2922,-189.8945 466.9532,-123.7493 429.3565,-87.3595"/>
<polygon fill="#444444" fill-opacity="0.333333" stroke="#444444" stroke-opacity="0.333333" points="431.4439,-84.5089 421.8242,-80.069 426.5755,-89.5388 431.4439,-84.5089"/>
</g>
<!-- postgresql&#45;server&#45;&gt;postgresql&#45;server -->
<g id="edge54" class="edge">
<title>postgresql&#45;server&#45;&gt;postgresql&#45;server</title>
<path fill="none" stroke="#444444" stroke-opacity="0.333333" d="M730.7834,-244.7988C741.9041,-243.6738 748.76,-241.9776 748.76,-239.71 748.76,-238.2573 745.9463,-237.0391 741.0002,-236.0554"/>
<polygon fill="#444444" fill-opacity="0.333333" stroke="#444444" stroke-opacity="0.333333" points="741.1729,-232.5454 730.7834,-234.6212 740.1997,-239.4774 741.1729,-232.5454"/>
</g>
<!-- Fedora Container Base -->
<g id="node1" class="node">
<title>Fedora Container Base</title>
<ellipse fill="none" stroke="#000000" cx="567.26" cy="-545" rx="136.5" ry="18"/>
<text text-anchor="middle" x="567.26" y="-541.3" font-family="Helvetica,sans-Serif" font-weight="bold" font-size="14.00" fill="#000000">Fedora Container Base (199.8 MB)</text>
</g>
<!-- device&#45;mapper&#45;libs -->
<g id="node2" class="node">
<title>device&#45;mapper&#45;libs</title>
<text text-anchor="middle" x="273.08" y="-970.93" font-family="Helvetica,sans-Serif" font-weight="bold" font-size="14.00" fill="#000000">device&#45;mapper&#45;libs (411.8 kB)</text>
</g>
<!-- device&#45;mapper -->
<g id="node3" class="node">
<title>device&#45;mapper</title>
<text text-anchor="middle" x="393.28" y="-813.75" font-family="Helvetica,sans-Serif" font-weight="bold" font-size="14.00" fill="#000000">device&#45;mapper (345.9 kB)</text>
</g>
<!-- libargon2 -->
<g id="node4" class="node">
<title>libargon2</title>
<text text-anchor="middle" x="473.79" y="-1115.3" font-family="Helvetica,sans-Serif" font-weight="bold" font-size="14.00" fill="#000000">libargon2 (54.9 kB)</text>
</g>
<!-- dbus&#45;broker -->
<g id="node5" class="node">
<title>dbus&#45;broker</title>
<text text-anchor="middle" x="843.2" y="-709.14" font-family="Helvetica,sans-Serif" font-weight="bold" font-size="14.00" fill="#000000">dbus&#45;broker (423.2 kB)</text>
</g>
<!-- dbus&#45;common -->
<g id="node6" class="node">
<title>dbus&#45;common</title>
<text text-anchor="middle" x="887.75" y="-855.72" font-family="Helvetica,sans-Serif" font-weight="bold" font-size="14.00" fill="#000000">dbus&#45;common (11.2 kB)</text>
</g>
<!-- shadow&#45;utils -->
<g id="node7" class="node">
<title>shadow&#45;utils</title>
<text text-anchor="middle" x="449.36" y="-494.26" font-family="Helvetica,sans-Serif" font-weight="bold" font-size="14.00" fill="#000000">shadow&#45;utils (4.0 MB)</text>
</g>
<!-- systemd -->
<g id="node8" class="node">
<title>systemd</title>
<text text-anchor="middle" x="748.66" y="-638.86" font-family="Helvetica,sans-Serif" font-weight="bold" font-size="14.00" fill="#000000">systemd (12.3 MB)</text>
</g>
<!-- libsemanage -->
<g id="node9" class="node">
<title>libsemanage</title>
<text text-anchor="middle" x="144.81" y="-369.76" font-family="Helvetica,sans-Serif" font-weight="bold" font-size="14.00" fill="#000000">libsemanage (313.1 kB)</text>
</g>
<!-- util&#45;linux -->
<g id="node10" class="node">
<title>util&#45;linux</title>
<text text-anchor="middle" x="296.79" y="-682.85" font-family="Helvetica,sans-Serif" font-weight="bold" font-size="14.00" fill="#000000">util&#45;linux (12.8 MB)</text>
</g>
<!-- iptables&#45;libs -->
<g id="node11" class="node">
<title>iptables&#45;libs</title>
<text text-anchor="middle" x="408.83" y="-329.29" font-family="Helvetica,sans-Serif" font-weight="bold" font-size="14.00" fill="#000000">iptables&#45;libs (156.4 kB)</text>
</g>
<!-- acl -->
<g id="node12" class="node">
<title>acl</title>
<text text-anchor="middle" x="758.27" y="-341.72" font-family="Helvetica,sans-Serif" font-weight="bold" font-size="14.00" fill="#000000">acl (212.0 kB)</text>
</g>
<!-- cryptsetup&#45;libs -->
<g id="node13" class="node">
<title>cryptsetup&#45;libs</title>
<text text-anchor="middle" x="510.57" y="-956.5" font-family="Helvetica,sans-Serif" font-weight="bold" font-size="14.00" fill="#000000">cryptsetup&#45;libs (1.8 MB)</text>
</g>
<!-- dbus -->
<g id="node14" class="node">
<title>dbus</title>
<text text-anchor="middle" x="1160.7" y="-827.01" font-family="Helvetica,sans-Serif" font-weight="bold" font-size="14.00" fill="#000000">dbus (0.0 B)</text>
</g>
<!-- kmod&#45;libs -->
<g id="node15" class="node">
<title>kmod&#45;libs</title>
<text text-anchor="middle" x="908.96" y="-303.69" font-family="Helvetica,sans-Serif" font-weight="bold" font-size="14.00" fill="#000000">kmod&#45;libs (197.4 kB)</text>
</g>
<!-- libseccomp -->
<g id="node16" class="node">
<title>libseccomp</title>
<text text-anchor="middle" x="955.8" y="-463.96" font-family="Helvetica,sans-Serif" font-weight="bold" font-size="14.00" fill="#000000">libseccomp (333.4 kB)</text>
</g>
<!-- qrencode&#45;libs -->
<g id="node17" class="node">
<title>qrencode&#45;libs</title>
<text text-anchor="middle" x="745.6" y="-961.96" font-family="Helvetica,sans-Serif" font-weight="bold" font-size="14.00" fill="#000000">qrencode&#45;libs (159.3 kB)</text>
</g>
<!-- systemd&#45;pam -->
<g id="node18" class="node">
<title>systemd&#45;pam</title>
<text text-anchor="middle" x="585.77" y="-819.11" font-family="Helvetica,sans-Serif" font-weight="bold" font-size="14.00" fill="#000000">systemd&#45;pam (337.9 kB)</text>
</g>
<!-- systemd&#45;rpm&#45;macros -->
<g id="node19" class="node">
<title>systemd&#45;rpm&#45;macros</title>
<text text-anchor="middle" x="1098.8" y="-1077.7" font-family="Helvetica,sans-Serif" font-weight="bold" font-size="14.00" fill="#000000">systemd&#45;rpm&#45;macros (4.9 kB)</text>
</g>
<!-- diffutils -->
<g id="node20" class="node">
<title>diffutils</title>
<text text-anchor="middle" x="1017.7" y="-628.39" font-family="Helvetica,sans-Serif" font-weight="bold" font-size="14.00" fill="#000000">diffutils (1.5 MB)</text>
</g>
<!-- libxkbcommon -->
<g id="node21" class="node">
<title>libxkbcommon</title>
<text text-anchor="middle" x="1142.5" y="-395.94" font-family="Helvetica,sans-Serif" font-weight="bold" font-size="14.00" fill="#000000">libxkbcommon (280.4 kB)</text>
</g>
<!-- libfdisk -->
<g id="node22" class="node">
<title>libfdisk</title>
<text text-anchor="middle" x="60" y="-720.72" font-family="Helvetica,sans-Serif" font-weight="bold" font-size="14.00" fill="#000000">libfdisk (495.9 kB)</text>
</g>
<!-- libutempter -->
<g id="node23" class="node">
<title>libutempter</title>
<text text-anchor="middle" x="151.88" y="-542.05" font-family="Helvetica,sans-Serif" font-weight="bold" font-size="14.00" fill="#000000">libutempter (58.2 kB)</text>
</g>
<!-- libpcap -->
<g id="node24" class="node">
<title>libpcap</title>
<text text-anchor="middle" x="198.07" y="-180.64" font-family="Helvetica,sans-Serif" font-weight="bold" font-size="14.00" fill="#000000">libpcap (378.8 kB)</text>
</g>
<!-- libicu -->
<g id="node25" class="node">
<title>libicu</title>
<text text-anchor="middle" x="739.03" y="-50.62" font-family="Helvetica,sans-Serif" font-weight="bold" font-size="14.00" fill="#000000">libicu (31.5 MB)</text>
</g>
<!-- xkeyboard&#45;config -->
<g id="node26" class="node">
<title>xkeyboard&#45;config</title>
<text text-anchor="middle" x="1591.9" y="-226.04" font-family="Helvetica,sans-Serif" font-weight="bold" font-size="14.00" fill="#000000">xkeyboard&#45;config (5.4 MB)</text>
</g>
<!-- libpq -->
<g id="node27" class="node">
<title>libpq</title>
<text text-anchor="middle" x="545.32" y="-14.3" font-family="Helvetica,sans-Serif" font-weight="bold" font-size="14.00" fill="#000000">libpq (697.3 kB)</text>
</g>
<!-- postgresql -->
<g id="node28" class="node">
<title>postgresql</title>
<text text-anchor="middle" x="403.16" y="-56.404" font-family="Helvetica,sans-Serif" font-weight="bold" font-size="22.00" fill="#cc0066">postgresql (5.7 MB)</text>
</g>
<!-- postgresql&#45;server -->
<g id="node29" class="node">
<title>postgresql&#45;server</title>
<text text-anchor="middle" x="586.76" y="-234.11" font-family="Helvetica,sans-Serif" font-weight="bold" font-size="22.00" fill="#cc0066">postgresql&#45;server (21.5 MB)</text>
</g>
</g>

<script type="text/javascript"><![CDATA[

document.addEventListener('click', function(e) {
      e = e || window.event;
      var target = e.target || e.srcElement;
      text = target.parentElement.querySelector("title").textContent;

      console.log("Clicked on: " + text);
      // reset all strokes
      var nodes = document.getElementsByClassName("edge");

      for (index = 0, len = nodes.length; index < len; ++index) {
          //var title = nodes[index].querySelector("title").textContent.split("->");
          id = nodes[index].id;
          document.getElementById(id).querySelector("path").setAttribute("stroke-width", "1");
          document.getElementById(id).querySelector("path").setAttribute("stroke-opacity", "0.5");
          document.getElementById(id).querySelector("path").setAttribute("stroke", "#444444");
          document.getElementById(id).querySelector("polygon").setAttribute("stroke-width", "1");
          document.getElementById(id).querySelector("polygon").setAttribute("stroke-opacity", "0.5");
          document.getElementById(id).querySelector("polygon").setAttribute("stroke", "#444444");
      }
      // reset text highlight
      pkgs = document.getElementsByClassName("node");
      for (index2 = 0, len2 = pkgs.length; index2 < len2; ++index2) {
          target_id = pkgs[index2].id;
          document.getElementById(target_id).querySelector("text").setAttribute("font-weight", "normal");
      }

      // highlight deps
      var nodes = document.getElementsByClassName("edge");
      for (index = 0, len = nodes.length; index < len; ++index) {
        var title = nodes[index].querySelector("title").textContent.split("->");

        if (title[0] == text) {
          id = nodes[index].id;
          //console.log("ID:   " + id);
          document.getElementById(id).querySelector("path").setAttribute("stroke-width", "3");
          document.getElementById(id).querySelector("path").setAttribute("stroke-opacity", "1");
          document.getElementById(id).querySelector("path").setAttribute("stroke", "#aa3333");
          document.getElementById(id).querySelector("polygon").setAttribute("stroke-width", "5");
          document.getElementById(id).querySelector("polygon").setAttribute("stroke-opacity", "1");
          document.getElementById(id).querySelector("polygon").setAttribute("stroke", "#aa3333");

        }
        if (title[1] == text) {
          id = nodes[index].id;
          document.getElementById(id).querySelector("path").setAttribute("stroke-width", "3");
          document.getElementById(id).querySelector("path").setAttribute("stroke-opacity", "1");
          document.getElementById(id).querySelector("path").setAttribute("stroke", "#333377");
          document.getElementById(id).querySelector("polygon").setAttribute("stroke-width", "5");
          document.getElementById(id).querySelector("polygon").setAttribute("stroke-opacity", "1");
          document.getElementById(id).querySelector("polygon").setAttribute("stroke", "#333377");
        }

        if (title[0] == text || title[1] == text) {
          pkgs = document.getElementsByClassName("node");
          for (index2 = 0, len2 = pkgs.length; index2 < len2; ++index2) {
            var pkg_name = pkgs[index2].querySelector("title").textContent;
            if (pkg_name == title[0] || pkg_name == title[1]) {
              target_id = pkgs[index2].id;
              document.getElementById(target_id).querySelector("text").setAttribute("font-weight", "bold");
            }
          }
        }
      }


  }, false);

]]></script>

</svg>
