<?xml version="1.0" encoding="UTF-8" standalone="no"?>
<!DOCTYPE svg PUBLIC "-//W3C//DTD SVG 1.1//EN"
 "http://www.w3.org/Graphics/SVG/1.1/DTD/svg11.dtd">
<!-- Generated by graphviz version 2.40.1 (0)
 -->
<!-- Title: packages Pages: 1 -->
<svg width="1493pt" height="1151pt"
 viewBox="0.00 0.00 1791.21 1380.77" xmlns="http://www.w3.org/2000/svg" xmlns:xlink="http://www.w3.org/1999/xlink">
<g id="graph0" class="graph" transform="scale(.8333 .8333) rotate(0) translate(135.9091 1235.8402)">
<title>packages</title>
<polygon fill="#dae2ff" stroke="transparent" points="-135.9091,144.9289 -135.9091,-1235.8402 1655.3003,-1235.8402 1655.3003,144.9289 -135.9091,144.9289"/>
<polygon fill="#bbd7d9" stroke="#bbd7d9" points="1526.1526,-516.8319 1522.5559,-436.197 1522.5559,-436.197 1526.1526,-516.8319 1552.2472,-541.7833 1582.3431,-523.4252 1646.8239,-458.6743 1647.2025,-395.24 1651.3003,-344.3993 1634.5055,-309.3491 1587.1865,-264.3775 1552.783,-247.2779 1545.27,-224.1838 1533.6289,-181.8803 1411.5417,-203.987 1407.369,-208.0358 1407.2563,-208.2492 1405.9714,-209.3659 1402.2747,-209.3659 1398.7112,-258.6135 1396.0958,-209.3374 1390.8783,-209.3374 1390.7362,-209.2974 1387.3491,-209.2974 1384.1022,-239.6934 1380.1311,-209.31 1377.9742,-209.31 1376.3754,-211.0634 1374.1935,-320.4831 1378.274,-325.9579 1372.2201,-338.7894 1373.9957,-376.2802 1375.5212,-395.24 1375.118,-417.9788 1375.3452,-422.7747 1365.9691,-430.7594 1355.52,-438.6112 1342.5177,-447.0769 1342.5177,-447.0769 1355.52,-438.6112 1365.9691,-430.7594 1375.3452,-422.7747 1375.118,-417.9788 1375.5212,-395.24 1373.9957,-376.2802 1372.2201,-338.7894 1280.2771,-345.2758 1274.7904,-345.3864 1274.0601,-345.4386 1269.0367,-345.2891 1264.8461,-345.3799 1259.4476,-345.2227 1257.7509,-345.0872 1251.0742,-345.2401 1250.968,-345.2372 1250.5759,-345.2464 1249.6876,-402.1444 1245.1752,-399.6586 1245.1752,-399.6586 1249.6876,-402.1444 1250.5759,-345.2464 1250.4446,-345.2429 1246.9028,-286.8896 1246.3016,-286.8896 1242.323,-290.2448 1237.0697,-291.715 1232.9996,-290.6095 1228.2214,-286.3705 1227.5901,-286.3705 1227.0863,-286.5148 1221.9321,-286.5148 1221.895,-286.5253 1216.7308,-286.5253 1216.6654,-286.507 1213.2516,-286.507 1213.2516,-286.507 1216.6654,-286.507 1216.7308,-286.5253 1221.895,-286.5253 1221.9321,-286.5148 1227.0863,-286.5148 1227.5901,-286.3705 1228.2214,-286.3705 1232.9996,-290.6095 1237.0697,-291.715 1242.323,-290.2448 1246.3016,-286.8896 1241.6727,-282.8796 1237.9756,-281.8882 1237.9756,-281.8882 1241.6727,-282.8796 1246.3016,-286.8896 1246.9028,-286.8896 1250.4446,-345.2429 1250.5759,-345.2464 1250.968,-345.2372 1251.0742,-345.2401 1257.7509,-345.0872 1259.4476,-345.2227 1264.8461,-345.3799 1269.0367,-345.2891 1274.0601,-345.4386 1274.7904,-345.3864 1280.2771,-345.2758 1372.2201,-338.7894 1378.274,-325.9579 1374.1935,-320.4831 1376.3754,-211.0634 1371.5917,-213.7154 1365.6575,-274.1844 1365.4048,-309.2859 1360.4987,-304.0116 1360.4987,-304.0116 1365.4048,-309.2859 1365.6575,-274.1844 1371.5917,-213.7154 1376.3754,-211.0634 1377.9742,-209.31 1376.8962,-208.1454 1371.3773,-205.0221 1371.3773,-205.0221 1376.8962,-208.1454 1377.9742,-209.31 1380.1311,-209.31 1384.1022,-239.6934 1387.3491,-209.2974 1386.6221,-209.0912 1386.6221,-209.0912 1387.3491,-209.2974 1390.7362,-209.2974 1390.8783,-209.3374 1396.0958,-209.3374 1398.7112,-258.6135 1402.2747,-209.3659 1405.9714,-209.3659 1407.2563,-208.2492 1407.369,-208.0358 1411.5417,-203.987 1533.6289,-181.8803 1511.5913,-93.0868 1468.6061,-60.3788 1422.4014,-50.0766 1418.9017,-49.2338 1412.8391,-40.8572 1378.3397,11.212 1324.1453,61.9964 1274.702,70.2294 1253.2915,74.2661 1252.3914,74.4552 1252.3605,74.463 1235.7939,73.1768 1237.4237,36.2122 1238.7472,-55.5679 1233.569,-55.5679 1227.8103,-58.9752 1226.9406,-59.9645 1228.6947,-61.9601 1232.8511,-64.2616 1232.8511,-64.2616 1228.6947,-61.9601 1226.9406,-59.9645 1223.7703,-59.9645 1223.7703,-59.9645 1226.9406,-59.9645 1227.8103,-58.9752 1233.569,-55.5679 1238.7472,-55.5679 1237.4237,36.2122 1235.7939,73.1768 1234.4216,73.1276 1219.1984,73.2145 1202.0566,74.384 1165.4016,77.6455 1138.988,-12.1727 1135.3621,-29.3861 1131.9133,-49.9218 1123.8602,-81.6139 1106.5658,-140.4225 1167.5774,-172.4057 1153.265,-259.642 1151.5216,-276.7469 1151.7673,-286.77 1141.859,-347.1623 1103.2078,-380.2856 1097.7419,-378.8162 1097.0004,-378.6383 1088.1437,-377.0183 1075.4821,-375.0646 1062.5,-373.8099 1059.6731,-373.6995 1049.0149,-373.8954 1042.1427,-373.4628 1029.8007,-373.3979 1016.4278,-372.2422 1013.3276,-371.8908 1003.3373,-370.2183 1002.2319,-370.0035 985.8055,-365.9143 977.6926,-363.458 976.463,-363.0192 968.6739,-377.4493 954.5917,-400.3468 946.076,-411.2116 937.4034,-421.2991 933.5248,-424.9134 926.7651,-432.1838 922.9044,-435.776 922.0238,-436.9804 887.9508,-470.2902 886.961,-471.4392 886.7967,-471.6653 876.5447,-481.1134 871.4408,-487.1664 867.4696,-491.2891 853.731,-508.7596 837.9348,-534.2317 835.8422,-537.8182 830.3078,-547.8939 826.8049,-555.4891 828.0565,-560.5972 843.7299,-618.0051 860.8851,-622.2903 882.4626,-627.2881 915.0597,-624.4633 920.6933,-620.1489 936.0619,-609.2677 953.0017,-599.2377 956.853,-597.0714 969.6745,-590.6052 976.5693,-587.5338 988.1624,-583.0418 996.1661,-580.1765 1003.5024,-578.1925 1017.0374,-575.3119 1029.3073,-573.4155 1038.5354,-572.5289 1050.1349,-572.0917 1052.7056,-572.0699 1056.3695,-572.1455 1057.8457,-572.0889 1067.27,-571.448 1072.6354,-570.9244 1083.0438,-569.601 1084.0131,-569.4493 1095.2677,-567.021 1108.2959,-563.4382 1172.9716,-541.8538 1196.2379,-550.4523 1200.9397,-552.2879 1217.4452,-582.4299 1331.0537,-592.819 1343.6422,-592.8583 1344.6149,-592.8182 1346.1332,-592.8906 1350.3334,-592.9053 1352.4824,-592.8177 1357.1218,-592.8347 1358.5183,-592.7781 1362.5457,-592.7936 1366.9023,-593.0037 1367.2983,-592.9878 1368.8302,-593.0623 1374.745,-593.0885 1381.778,-592.8074 1381.752,-591.4987 1383.4188,-526.5457 1384.5736,-525.2119 1383.379,-523.8497 1378.3453,-520.9458 1378.3453,-520.9458 1383.379,-523.8497 1384.5736,-525.2119 1383.4188,-526.5457 1381.752,-591.4987 1381.778,-592.8074 1385.0287,-592.9672 1386.332,-593.0895 1395.3081,-593.1344 1400.1862,-592.9427 1404.1691,-593.1393 1405.0625,-593.223 1526.5221,-610.0139 1549.3445,-548.6492 1552.2472,-541.7833 1526.1526,-516.8319 1508.2708,-501.3091 1509.1945,-457.7854 1507.3519,-395.3931 1505.9584,-395.3931 1502.3899,-398.5222 1496.5905,-400.2483 1491.7101,-398.8376 1487.9711,-395.4846 1487.9711,-395.4846 1491.7101,-398.8376 1496.5905,-400.2483 1502.3899,-398.5222 1505.9584,-395.3931 1502.177,-391.9638 1502.177,-391.9638 1505.9584,-395.3931 1507.3519,-395.3931 1509.1945,-457.7854 1508.2708,-501.3091 1526.1526,-516.8319 1526.1526,-516.8319"/>
<polygon fill="#fbb4ae" stroke="#fbb4ae" points="52.4342,-406.8756 33.9852,-407.4536 24.5499,-407.1729 -53.6399,-432.6896 -129.0532,-501.1566 -131.9091,-513.935 -130.1525,-522.4196 -129.8733,-523.9095 -120.4628,-579.991 -113.8579,-587.597 -39.0051,-677.5638 -55.3399,-753.5834 -62.3312,-782.5356 -66.497,-798.1373 -66.9586,-811.4298 -69.133,-849.0463 -56.0376,-864.709 56.2724,-921.3762 66.6743,-787.1889 70.634,-783.381 74.7489,-821.9755 76.9871,-782.0502 76.0221,-781.771 77.8478,-748.1498 73.8031,-664.0797 84.9424,-663.6882 83.2209,-605.5731 83.2209,-605.5731 84.9424,-663.6882 73.8031,-664.0797 77.8478,-748.1498 76.0221,-781.771 76.9871,-782.0502 74.7489,-821.9755 70.634,-783.381 66.6743,-787.1889 56.2724,-921.3762 67.1117,-927.1117 77.3966,-926.7232 79.5344,-926.7222 86.4995,-926.8486 87.3851,-881.3918 87.3851,-881.3918 86.4995,-926.8486 105.4988,-927.9022 105.4499,-922.2241 105.8177,-887.7423 104.7779,-820.4114 107.1277,-786.5382 112.2734,-785.0785 115.9648,-782.0451 111.8211,-778.4492 111.8211,-778.4492 115.9648,-782.0451 112.2734,-785.0785 107.1277,-786.5382 104.7779,-820.4114 105.8177,-887.7423 105.4499,-922.2241 105.4988,-927.9022 123.8118,-930.2822 123.8795,-917.6156 123.1973,-870.969 123.1973,-870.969 123.8795,-917.6156 132.7339,-781.9426 135.9353,-781.9426 136.5922,-781.7546 139.8847,-734.1268 142.7691,-781.2172 143.418,-780.8999 147.3073,-776.6425 338.9663,-727.8181 286.3617,-634.5692 477.5081,-585.4468 481.3225,-637.6217 481.385,-636.8553 488.9669,-580.4305 487.6544,-580.062 488.72,-498.2795 489.9754,-498.2449 490.3933,-479.0434 494.6042,-419.9335 499.2041,-421.2397 499.2041,-421.2397 494.6042,-419.9335 490.3933,-479.0434 489.9754,-498.2449 488.72,-498.2795 487.6544,-580.062 488.9669,-580.4305 481.385,-636.8553 481.3225,-637.6217 477.5081,-585.4468 286.3617,-634.5692 338.9663,-727.8181 147.3073,-776.6425 143.418,-780.8999 142.7691,-781.2172 139.8847,-734.1268 136.5922,-781.7546 135.9353,-781.9426 132.7339,-781.9426 123.8795,-917.6156 123.8118,-930.2822 145.5082,-934.7208 161.4898,-938.8789 235.4196,-887.0162 292.1887,-807.1593 298.0997,-799.2058 345.1966,-738.4623 357.6766,-742.8091 412.9679,-802.3726 426.0096,-817.0454 477.1603,-862.0327 548.338,-894.7833 554.1288,-895.6066 565.3763,-897.6607 580.5825,-900.7446 581.7641,-901.0078 580.4503,-819.4228 582.3215,-754.1653 587.3414,-755.686 587.3414,-755.686 582.3215,-754.1653 580.4503,-819.4228 581.7641,-901.0078 583.7688,-901.5345 603.2968,-907.462 603.8119,-907.5584 610.3148,-908.8983 609.9397,-869.54 609.9397,-869.54 610.3148,-908.8983 612.3252,-909.4266 618.2719,-908.316 675.7365,-898.6516 694.3311,-797.5915 698.1919,-771.0804 698.4052,-769.0627 699.1141,-758.3572 702.4138,-735.6628 715.7532,-663.1646 714.107,-662.4202 707.2104,-659.4711 698.8907,-656.1193 688.7613,-652.542 678.9064,-649.5518 671.2509,-647.6097 661.4379,-645.3647 649.2045,-643.1778 647.5427,-642.9639 638.9407,-642.0704 637.8589,-641.9849 636.4526,-641.9088 605.7537,-589.2042 583.0548,-586.7268 547.8624,-586.182 547.8624,-586.182 583.0548,-586.7268 605.7537,-589.2042 594.8284,-564.6364 587.4777,-544.512 582.827,-533.9976 572.9084,-514.8148 561.9739,-496.0423 617.3221,-439.8726 617.5283,-439.8477 617.8987,-400.0593 615.3229,-349.6799 610.1656,-351.1833 605.3366,-349.7822 601.2781,-346.0298 599.6439,-346.0298 599.5671,-346.0534 599.5671,-346.0534 599.6439,-346.0298 597.8036,-284.2409 594.5216,-287.2348 591.7518,-289.5 590.8381,-290.5945 582.0643,-299.9424 582.0643,-299.9424 590.8381,-290.5945 591.7518,-289.5 594.5216,-287.2348 597.8036,-284.2409 599.6439,-346.0298 601.2781,-346.0298 605.3366,-349.7822 610.1656,-351.1833 615.3229,-349.6799 619.317,-346.0797 619.317,-346.0797 615.3229,-349.6799 617.8987,-400.0593 617.5283,-439.8477 626.6906,-439.3323 632.7183,-439.188 635.2733,-439.0504 639.4066,-438.9616 643.6613,-439.0075 656.4537,-438.3828 657.9303,-438.223 673.6436,-435.5781 686.355,-432.6805 692.7716,-430.6447 702.5355,-427.2527 718.3528,-420.8108 719.0462,-420.5084 736.4051,-374.2205 745.7217,-351.5621 766.6405,-304.5777 772.1619,-292.9317 768.5895,-290.2972 752.7734,-279.545 750.5159,-278.1437 746.3671,-275.6871 744.5319,-274.6528 730.177,-267.3598 722.4391,-263.65 640.0342,-228.8572 585.6517,-155.025 577.8051,-144.8646 567.6303,-132.2591 546.5425,-107.178 540.098,-110.4588 539.6819,-223.2649 542.2765,-283.1867 542.2765,-283.1867 539.6819,-223.2649 540.098,-110.4588 532.0919,-114.2203 516.5474,-120.9171 505.9091,-125.0799 501.2985,-126.7924 451.7818,-143.2343 413.1063,-189.5453 360.7122,-267.2592 348.3296,-283.9711 339.2966,-313.6133 337.0044,-316.4277 304.2796,-397.7115 297.5336,-413.6037 286.1541,-439.1266 272.348,-468.7444 132.0279,-414.2007 89.2014,-409.5354 75.8484,-407.8004 66.376,-406.3724 64.7778,-406.0316 59.6968,-406.5004 52.4342,-406.8756 52.4342,-406.8756"/>
<polygon fill="#d8d6da" stroke="#d8d6da" points="1386.332,-593.0895 1395.3081,-593.1344 1400.1862,-592.9427 1404.1691,-593.1393 1405.0625,-593.223 1526.5221,-610.0139 1528.1285,-627.7142 1533.0238,-670.7538 1531.9037,-677.7609 1522.7424,-757.5591 1506.4946,-787.2963 1505.3455,-803.72 1504.8263,-841.5299 1499.6075,-875.6401 1610.0188,-997.403 1608.5435,-1008.1735 1601.6555,-1068.1028 1601.5327,-1069.8859 1584.8569,-1147.3937 1517.8894,-1181.5784 1471.3323,-1193.6812 1459.207,-1197.0752 1457.6611,-1101.3232 1456.2795,-1082.6627 1457.1962,-1048.5491 1456.9996,-1048.4922 1456.9996,-1048.4922 1457.1962,-1048.5491 1456.2795,-1082.6627 1457.6611,-1101.3232 1459.207,-1197.0752 1442.3734,-1202.7921 1441.0652,-1202.4615 1428.7635,-1200.0322 1426.6519,-1199.6541 1424.5057,-1080.5371 1427.056,-1053.0767 1431.838,-1050.4553 1433.1357,-1049.0483 1431.754,-1047.4294 1426.376,-1044.261 1421.7781,-1044.261 1421.7781,-1044.261 1426.376,-1044.261 1431.754,-1047.4294 1433.1357,-1049.0483 1431.838,-1050.4553 1427.056,-1053.0767 1424.5057,-1080.5371 1426.6519,-1199.6541 1411.9978,-1197.5664 1413.7096,-1077.604 1410.4847,-1049.0231 1410.4847,-1049.0231 1413.7096,-1077.604 1411.9978,-1197.5664 1405.7709,-1196.9084 1405.5444,-1180.2971 1401.0358,-1048.858 1401.0358,-1048.858 1405.5444,-1180.2971 1405.7709,-1196.9084 1391.2847,-1195.9087 1370.1337,-1195.614 1367.2245,-1195.6268 1358.5581,-1194.9293 1343.7379,-1191.4512 1225.8867,-1122.4152 1223.4146,-1099.9143 1219.9347,-1073.0607 1218.2771,-1054.8621 1157.4528,-1020.5176 1153.661,-1018.4875 1136.4648,-1010.271 1123.0529,-1005.0468 1123.6006,-933.9351 1126.8301,-903.0955 1130.3479,-901.206 1132.6815,-898.457 1130.9392,-896.4884 1126.2341,-893.9269 1121.6199,-893.9269 1121.6199,-893.9269 1126.2341,-893.9269 1130.9392,-896.4884 1132.6815,-898.457 1130.3479,-901.206 1126.8301,-903.0955 1123.6006,-933.9351 1123.0529,-1005.0468 1136.4648,-1010.271 1153.661,-1018.4875 1157.4528,-1020.5176 1218.2771,-1054.8621 1219.9347,-1073.0607 1223.4146,-1099.9143 1225.8867,-1122.4152 1225.2771,-1122.9824 1160.1958,-1185.8241 1069.4354,-1231.8402 1061.1185,-1229.4586 1047.4899,-1226.1476 1046.6737,-1225.9673 1043.0272,-1094.1431 1048.5286,-1091.0135 1049.9685,-1089.3824 1051.2029,-1089.3824 1053.4767,-1086.1962 1059.0231,-1082.8793 1061.5654,-991.9515 1089.4807,-996.2415 1091.5743,-948.688 1091.5743,-948.688 1089.4807,-996.2415 1061.5654,-991.9515 1059.0231,-1082.8793 1053.4767,-1086.1962 1051.2029,-1089.3824 1049.9685,-1089.3824 1049.8218,-1089.2168 1042.7408,-1084.8429 1038.2822,-1084.8429 1038.2822,-1084.8429 1042.7408,-1084.8429 1049.8218,-1089.2168 1049.9685,-1089.3824 1048.5286,-1091.0135 1043.0272,-1094.1431 1046.6737,-1225.9673 1032.6854,-1223.1814 1029.5724,-1222.6985 1013.3361,-1220.5348 976.9719,-1216.4926 930.4773,-1190.2629 901.7457,-1151.6899 885.3464,-1089.5905 885.1702,-1089.0265 884.0544,-1085.718 879.8719,-1053.2787 888.3151,-1046.6324 891.1883,-1044.4602 903.5436,-1035.4988 919.8221,-1025.2094 938.7452,-1015.0185 1012.6888,-977.5981 1011.5924,-932.8879 1012.0309,-902.6015 1011.2667,-890.6978 1010.9161,-887.3086 1010.3022,-862.2721 999.1187,-854.9461 992.6265,-851.3016 983.9759,-847.2298 980.3705,-845.697 970.2159,-842.2844 962.3954,-840.0103 951.1936,-837.7693 938.8674,-836.426 929.7193,-835.8475 924.6871,-835.2974 914.6552,-833.2697 910.9584,-832.3519 903.7539,-830.2283 900.4831,-829.1136 896.5865,-831.0004 888.197,-834.2205 848.748,-847.3781 846.9477,-848.0652 839.8189,-851.1373 828.095,-856.761 827.7469,-856.9441 819.2252,-861.8345 819.1443,-861.8885 807.8092,-870.0447 797.5567,-878.4325 792.45,-882.8563 782.377,-892.067 782.1464,-892.2659 774.1827,-899.8429 766.0344,-907.9551 745.2497,-926.6782 675.7365,-898.6516 694.3311,-797.5915 698.1919,-771.0804 698.4052,-769.0627 699.1141,-758.3572 702.4138,-735.6628 715.7532,-663.1646 776.7819,-646.6612 788.2626,-643.0444 796.9505,-640.1152 805.5536,-636.6416 820.4446,-630.2966 820.465,-630.287 834.3596,-623.4504 843.7299,-618.0051 860.8851,-622.2903 882.4626,-627.2881 915.0597,-624.4633 920.6933,-620.1489 936.0619,-609.2677 953.0017,-599.2377 956.853,-597.0714 969.6745,-590.6052 976.5693,-587.5338 988.1624,-583.0418 996.1661,-580.1765 1003.5024,-578.1925 1017.0374,-575.3119 1029.3073,-573.4155 1038.5354,-572.5289 1050.1349,-572.0917 1052.7056,-572.0699 1056.3695,-572.1455 1055.8937,-604.042 1055.8937,-604.042 1056.3695,-572.1455 1057.8457,-572.0889 1067.27,-571.448 1072.6354,-570.9244 1083.0438,-569.601 1084.0131,-569.4493 1085.2712,-631.5005 1082.9515,-663.363 1089.3162,-667.1821 1089.9481,-667.8922 1089.3502,-668.5535 1089.3502,-668.5535 1089.9481,-667.8922 1089.3162,-667.1821 1082.9515,-663.363 1085.2712,-631.5005 1084.0131,-569.4493 1095.2677,-567.021 1095.838,-631.7827 1095.838,-631.7827 1095.2677,-567.021 1108.2959,-563.4382 1172.9716,-541.8538 1196.2379,-550.4523 1200.9397,-552.2879 1217.4452,-582.4299 1331.0537,-592.819 1343.6422,-592.8583 1344.6149,-592.8182 1346.1332,-592.8906 1350.3334,-592.9053 1352.4824,-592.8177 1357.1218,-592.8347 1358.5183,-592.7781 1362.5457,-592.7936 1366.9023,-593.0037 1365.583,-625.2229 1361.3385,-655.9803 1356.6671,-657.289 1352.818,-660.5114 1356.7716,-664.0564 1355.9961,-730.5906 1350.8574,-660.7547 1346.3525,-660.7547 1345.6251,-660.9617 1341.4086,-660.9617 1340.735,-660.7725 1337.8264,-660.7725 1336.4503,-662.8626 1330.712,-667.1087 1314.3822,-664.9272 1247.4375,-670.5143 1283.9075,-724.3174 1273.2075,-737.8177 1270.0378,-741.4669 1257.8323,-754.23 1253.6404,-754.23 1228.4818,-756.2576 1214.3429,-760.739 1209.4263,-758.1659 1206.7107,-754.3904 1204.1865,-754.3904 1203.4866,-754.1884 1198.8197,-754.1884 1198.7604,-754.1718 1194.9153,-754.1718 1188.9114,-820.2154 1188.2606,-804.8089 1183.4314,-757.8761 1188.0105,-753.8234 1187.8732,-753.6258 1184.4537,-750.888 1184.4537,-750.888 1187.8732,-753.6258 1188.0105,-753.8234 1183.4314,-757.8761 1188.2606,-804.8089 1188.9114,-820.2154 1194.9153,-754.1718 1198.7604,-754.1718 1198.8197,-754.1884 1203.4866,-754.1884 1204.1865,-754.3904 1206.7107,-754.3904 1209.4263,-758.1659 1214.3429,-760.739 1228.4818,-756.2576 1253.6404,-754.23 1257.8323,-754.23 1270.0378,-741.4669 1273.2075,-737.8177 1283.9075,-724.3174 1247.4375,-670.5143 1314.3822,-664.9272 1330.712,-667.1087 1336.4503,-662.8626 1331.5258,-730.9665 1331.4932,-732.0598 1324.2242,-732.159 1320.062,-732.0456 1310.5699,-731.0106 1310.4414,-738.2979 1310.4414,-738.2979 1310.5699,-731.0106 1320.062,-732.0456 1324.2242,-732.159 1331.4932,-732.0598 1331.5258,-730.9665 1336.4503,-662.8626 1337.8264,-660.7725 1340.735,-660.7725 1341.4086,-660.9617 1345.6251,-660.9617 1351.0911,-732.4266 1342.1484,-732.5288 1340.7101,-775.0399 1340.7101,-775.0399 1342.1484,-732.5288 1351.0911,-732.4266 1345.6251,-660.9617 1346.3525,-660.7547 1350.8574,-660.7547 1355.9961,-730.5906 1356.7716,-664.0564 1352.818,-660.5114 1356.6671,-657.289 1361.3385,-655.9803 1365.583,-625.2229 1366.9023,-593.0037 1367.2983,-592.9878 1368.8302,-593.0623 1374.745,-593.0885 1381.778,-592.8074 1385.0287,-592.9672 1386.332,-593.0895 1386.332,-593.0895"/>
<polygon fill="#fed9a6" stroke="#fed9a6" points="638.9407,-642.0704 637.8589,-641.9849 636.4526,-641.9088 605.7537,-589.2042 594.8284,-564.6364 587.4777,-544.512 582.827,-533.9976 572.9084,-514.8148 561.9739,-496.0423 617.3221,-439.8726 617.5283,-439.8477 626.6906,-439.3323 632.7183,-439.188 635.2733,-439.0504 639.4066,-438.9616 643.6613,-439.0075 656.4537,-438.3828 657.9303,-438.223 673.6436,-435.5781 686.355,-432.6805 692.7716,-430.6447 702.5355,-427.2527 718.3528,-420.8108 719.0462,-420.5084 736.4051,-374.2205 745.7217,-351.5621 766.6405,-304.5777 772.1619,-292.9317 768.5895,-290.2972 752.7734,-279.545 750.5159,-278.1437 746.3671,-275.6871 746.4602,-145.3354 751.7455,-148.5805 757.0649,-148.5805 757.0649,-148.5805 751.7455,-148.5805 746.4602,-145.3354 746.3671,-275.6871 744.5319,-274.6528 730.177,-267.3598 722.4391,-263.65 640.0342,-228.8572 585.6517,-155.025 577.8051,-144.8646 567.6303,-132.2591 546.5425,-107.178 546.8652,-106.3951 687.2741,.9514 721.0551,14.4478 741.7971,24.029 745.1948,25.8076 755.9254,25.2326 756.5346,25.21 765.5558,25.0226 780.4884,25.4473 791.7247,25.9511 835.9191,29.3785 839.6337,33.7298 839.696,33.7831 890.3521,78.7522 979.7784,119.2158 1007.0453,121.811 1016.9082,123.1316 1028.7466,125.407 1039.0935,127.5965 1045.0569,129.0889 1044.8898,-17.8902 1041.6095,-17.8902 1040.0509,-16.2118 1040.0509,-16.2118 1041.6095,-17.8902 1039.7206,-19.9736 1034.7639,-22.6699 1030.1646,-22.6699 1024.533,-19.5575 1023.4233,-18.3629 1020.2313,-18.3629 1019.9271,-18.2768 1015.1024,-18.2768 1013.9201,-69.3977 1015.3435,-108.8235 998.1849,-99.9429 946.0694,-75.202 933.4022,-68.6302 928.9886,-65.9634 919.3434,-59.7124 915.2473,-56.884 908.1516,-51.6807 910.4255,-153.3145 905.1849,-154.802 901.3553,-158.0912 905.3525,-161.7054 910.0682,-163.0877 910.0682,-163.0877 905.3525,-161.7054 901.3553,-158.0912 905.1849,-154.802 910.4255,-153.3145 908.1516,-51.6807 915.2473,-56.884 919.3434,-59.7124 928.9886,-65.9634 933.4022,-68.6302 946.0694,-75.202 941.5392,-152.1491 941.5392,-152.1491 946.0694,-75.202 998.1849,-99.9429 1015.3435,-108.8235 1013.9201,-69.3977 1015.1024,-18.2768 1019.9271,-18.2768 1020.2313,-18.3629 1023.4233,-18.3629 1024.533,-19.5575 1030.1646,-22.6699 1034.7639,-22.6699 1039.7206,-19.9736 1041.6095,-17.8902 1044.8898,-17.8902 1045.0569,129.0889 1056.8934,132.2804 1058.8207,132.8739 1083.4247,140.9289 1088.3564,139.2078 1165.4016,77.6455 1138.988,-12.1727 1135.3621,-29.3861 1131.9133,-49.9218 1123.8602,-81.6139 1106.5658,-140.4225 1167.5774,-172.4057 1153.265,-259.642 1151.5216,-276.7469 1151.7673,-286.77 1141.859,-347.1623 1103.2078,-380.2856 1097.7419,-378.8162 1097.0004,-378.6383 1094.5101,-315.7413 1089.4095,-271.299 1084.7439,-271.299 1084.6721,-271.2778 1089.8038,-143.0373 1080.0259,-143.8673 1075.8958,-144.1234 1074.2255,-266.5267 1069.2213,-266.5267 1069.2213,-266.5267 1074.2255,-266.5267 1075.8958,-144.1234 1080.0259,-143.8673 1089.8038,-143.0373 1084.6721,-271.2778 1084.7439,-271.299 1089.4095,-271.299 1094.5101,-315.7413 1097.0004,-378.6383 1088.1437,-377.0183 1075.4821,-375.0646 1062.5,-373.8099 1059.6731,-373.6995 1049.0149,-373.8954 1042.1427,-373.4628 1029.8007,-373.3979 1016.4278,-372.2422 1013.3276,-371.8908 1003.3373,-370.2183 1002.2319,-370.0035 985.8055,-365.9143 977.6926,-363.458 976.463,-363.0192 968.6739,-377.4493 954.5917,-400.3468 946.076,-411.2116 937.4034,-421.2991 933.5248,-424.9134 926.7651,-432.1838 922.9044,-435.776 922.0238,-436.9804 887.9508,-470.2902 886.961,-471.4392 886.7967,-471.6653 876.5447,-481.1134 871.4408,-487.1664 867.4696,-491.2891 853.731,-508.7596 837.9348,-534.2317 835.8422,-537.8182 830.3078,-547.8939 826.8049,-555.4891 828.0565,-560.5972 843.7299,-618.0051 834.3596,-623.4504 820.465,-630.287 820.4446,-630.2966 805.5536,-636.6416 796.9505,-640.1152 788.2626,-643.0444 776.7819,-646.6612 715.7532,-663.1646 714.107,-662.4202 707.2104,-659.4711 698.8907,-656.1193 688.7613,-652.542 678.9064,-649.5518 671.2509,-647.6097 661.4379,-645.3647 662.844,-559.402 666.6224,-534.5347 670.6129,-536.6506 674.9325,-536.6506 674.9325,-536.6506 670.6129,-536.6506 666.6224,-534.5347 662.844,-559.402 661.4379,-645.3647 649.2045,-643.1778 647.5427,-642.9639 638.9407,-642.0704 638.9407,-642.0704"/>
<polygon fill="#bbd7d9" stroke="#bbd7d9" points="774.1827,-899.8429 766.0344,-907.9551 745.2497,-926.6782 785.9124,-991.2463 879.8719,-1053.2787 888.3151,-1046.6324 891.1883,-1044.4602 903.5436,-1035.4988 919.8221,-1025.2094 938.7452,-1015.0185 1012.6888,-977.5981 1011.5924,-932.8879 1012.0309,-902.6015 1011.2667,-890.6978 1010.9161,-887.3086 1010.3022,-862.2721 999.1187,-854.9461 992.6265,-851.3016 983.9759,-847.2298 980.3705,-845.697 970.2159,-842.2844 962.3954,-840.0103 951.1936,-837.7693 938.8674,-836.426 929.7193,-835.8475 924.6871,-835.2974 914.6552,-833.2697 910.9584,-832.3519 903.7539,-830.2283 900.4831,-829.1136 896.5865,-831.0004 888.197,-834.2205 848.748,-847.3781 846.9477,-848.0652 839.8189,-851.1373 828.095,-856.761 827.7469,-856.9441 819.2252,-861.8345 819.1443,-861.8885 807.8092,-870.0447 797.5567,-878.4325 792.45,-882.8563 782.377,-892.067 782.1464,-892.2659 774.1827,-899.8429 774.1827,-899.8429"/>
<polyline fill="none" stroke="#000000" points="976.5693,-587.5338 969.6745,-590.6052 956.853,-597.0714 953.0017,-599.2377 936.0619,-609.2677 920.6933,-620.1489 915.0597,-624.4633 882.4626,-627.2881 860.8851,-622.2903 843.7299,-618.0051 828.0565,-560.5972 826.8049,-555.4891 830.3078,-547.8939 835.8422,-537.8182 837.9348,-534.2317 853.731,-508.7596 867.4696,-491.2891 871.4408,-487.1664 876.5447,-481.1134 886.7967,-471.6653 886.961,-471.4392 887.9508,-470.2902 922.0238,-436.9804 922.9044,-435.776 926.7651,-432.1838 933.5248,-424.9134 937.4034,-421.2991 946.076,-411.2116 954.5917,-400.3468 968.6739,-377.4493 976.463,-363.0192 977.6926,-363.458 985.8055,-365.9143 1002.2319,-370.0035 1003.3373,-370.2183 1013.3276,-371.8908 1016.4278,-372.2422 1029.8007,-373.3979 1042.1427,-373.4628 1049.0149,-373.8954 1059.6731,-373.6995 1062.5,-373.8099 1075.4821,-375.0646 1088.1437,-377.0183 1097.0004,-378.6383 1097.7419,-378.8162 1103.2078,-380.2856 1141.859,-347.1623 1151.7673,-286.77 1151.5216,-276.7469 1153.265,-259.642 1167.5774,-172.4057 1106.5658,-140.4225 1123.8602,-81.6139 1131.9133,-49.9218 1135.3621,-29.3861 1138.988,-12.1727 1165.4016,77.6455 1202.0566,74.384 1219.1984,73.2145 1234.4216,73.1276 1235.7939,73.1768 1252.3605,74.463 1252.3914,74.4552 1253.2915,74.2661 1274.702,70.2294 1324.1453,61.9964 1378.3397,11.212 1412.8391,-40.8572 1418.9017,-49.2338 1422.4014,-50.0766 1468.6061,-60.3788 1511.5913,-93.0868 1533.6289,-181.8803 1545.27,-224.1838 1552.783,-247.2779 1587.1865,-264.3775 1634.5055,-309.3491 1651.3003,-344.3993 1647.2025,-395.24 1646.8239,-458.6743 1582.3431,-523.4252 1552.2472,-541.7833 1549.3445,-548.6492 1526.5221,-610.0139 1405.0625,-593.223 1404.1691,-593.1393 1400.1862,-592.9427 1395.3081,-593.1344 1386.332,-593.0895 1385.0287,-592.9672 1381.778,-592.8074 1374.745,-593.0885 1368.8302,-593.0623 1367.2983,-592.9878 1366.9023,-593.0037 1362.5457,-592.7936 1358.5183,-592.7781 1357.1218,-592.8347 1352.4824,-592.8177 1350.3334,-592.9053 1346.1332,-592.8906 1344.6149,-592.8182 1343.6422,-592.8583 1331.0537,-592.819 1217.4452,-582.4299 1200.9397,-552.2879 1196.2379,-550.4523 1172.9716,-541.8538 1108.2959,-563.4382 1095.2677,-567.021 1084.0131,-569.4493 1083.0438,-569.601 1072.6354,-570.9244 1067.27,-571.448 1057.8457,-572.0889 1056.3695,-572.1455 1052.7056,-572.0699 1050.1349,-572.0917 1038.5354,-572.5289 1029.3073,-573.4155 1017.0374,-575.3119 1003.5024,-578.1925 996.1661,-580.1765 988.1624,-583.0418 976.5693,-587.5338 "/>
<polyline fill="none" stroke="#000000" points="516.5474,-120.9171 505.9091,-125.0799 501.2985,-126.7924 451.7818,-143.2343 413.1063,-189.5453 360.7122,-267.2592 348.3296,-283.9711 339.2966,-313.6133 337.0044,-316.4277 304.2796,-397.7115 297.5336,-413.6037 286.1541,-439.1266 272.348,-468.7444 132.0279,-414.2007 89.2014,-409.5354 75.8484,-407.8004 66.376,-406.3724 64.7778,-406.0316 59.6968,-406.5004 52.4342,-406.8756 33.9852,-407.4536 24.5499,-407.1729 -53.6399,-432.6896 -129.0532,-501.1566 -131.9091,-513.935 -130.1525,-522.4196 -129.8733,-523.9095 -120.4628,-579.991 -113.8579,-587.597 -39.0051,-677.5638 -55.3399,-753.5834 -62.3312,-782.5356 -66.497,-798.1373 -66.9586,-811.4298 -69.133,-849.0463 -56.0376,-864.709 56.2724,-921.3762 67.1117,-927.1117 77.3966,-926.7232 79.5344,-926.7222 86.4995,-926.8486 105.4988,-927.9022 123.8118,-930.2822 145.5082,-934.7208 161.4898,-938.8789 235.4196,-887.0162 292.1887,-807.1593 298.0997,-799.2058 345.1966,-738.4623 357.6766,-742.8091 412.9679,-802.3726 426.0096,-817.0454 477.1603,-862.0327 548.338,-894.7833 554.1288,-895.6066 565.3763,-897.6607 580.5825,-900.7446 581.7641,-901.0078 583.7688,-901.5345 603.2968,-907.462 603.8119,-907.5584 610.3148,-908.8983 612.3252,-909.4266 618.2719,-908.316 675.7365,-898.6516 694.3311,-797.5915 698.1919,-771.0804 698.4052,-769.0627 699.1141,-758.3572 702.4138,-735.6628 715.7532,-663.1646 714.107,-662.4202 707.2104,-659.4711 698.8907,-656.1193 688.7613,-652.542 678.9064,-649.5518 671.2509,-647.6097 661.4379,-645.3647 649.2045,-643.1778 647.5427,-642.9639 638.9407,-642.0704 637.8589,-641.9849 636.4526,-641.9088 605.7537,-589.2042 594.8284,-564.6364 587.4777,-544.512 582.827,-533.9976 572.9084,-514.8148 561.9739,-496.0423 617.3221,-439.8726 617.5283,-439.8477 626.6906,-439.3323 632.7183,-439.188 635.2733,-439.0504 639.4066,-438.9616 643.6613,-439.0075 656.4537,-438.3828 657.9303,-438.223 673.6436,-435.5781 686.355,-432.6805 692.7716,-430.6447 702.5355,-427.2527 718.3528,-420.8108 719.0462,-420.5084 736.4051,-374.2205 745.7217,-351.5621 766.6405,-304.5777 772.1619,-292.9317 768.5895,-290.2972 752.7734,-279.545 750.5159,-278.1437 746.3671,-275.6871 744.5319,-274.6528 730.177,-267.3598 722.4391,-263.65 640.0342,-228.8572 585.6517,-155.025 577.8051,-144.8646 567.6303,-132.2591 546.5425,-107.178 540.098,-110.4588 532.0919,-114.2203 516.5474,-120.9171 "/>
<polyline fill="none" stroke="#000000" points="962.3954,-840.0103 951.1936,-837.7693 938.8674,-836.426 929.7193,-835.8475 924.6871,-835.2974 914.6552,-833.2697 910.9584,-832.3519 903.7539,-830.2283 900.4831,-829.1136 896.5865,-831.0004 888.197,-834.2205 848.748,-847.3781 846.9477,-848.0652 839.8189,-851.1373 828.095,-856.761 827.7469,-856.9441 819.2252,-861.8345 819.1443,-861.8885 807.8092,-870.0447 797.5567,-878.4325 792.45,-882.8563 782.377,-892.067 782.1464,-892.2659 774.1827,-899.8429 766.0344,-907.9551 745.2497,-926.6782 675.7365,-898.6516 694.3311,-797.5915 698.1919,-771.0804 698.4052,-769.0627 699.1141,-758.3572 702.4138,-735.6628 715.7532,-663.1646 776.7819,-646.6612 788.2626,-643.0444 796.9505,-640.1152 805.5536,-636.6416 820.4446,-630.2966 820.465,-630.287 834.3596,-623.4504 843.7299,-618.0051 860.8851,-622.2903 882.4626,-627.2881 915.0597,-624.4633 920.6933,-620.1489 936.0619,-609.2677 953.0017,-599.2377 956.853,-597.0714 969.6745,-590.6052 976.5693,-587.5338 988.1624,-583.0418 996.1661,-580.1765 1003.5024,-578.1925 1017.0374,-575.3119 1029.3073,-573.4155 1038.5354,-572.5289 1050.1349,-572.0917 1052.7056,-572.0699 1056.3695,-572.1455 1057.8457,-572.0889 1067.27,-571.448 1072.6354,-570.9244 1083.0438,-569.601 1084.0131,-569.4493 1095.2677,-567.021 1108.2959,-563.4382 1172.9716,-541.8538 1196.2379,-550.4523 1200.9397,-552.2879 1217.4452,-582.4299 1331.0537,-592.819 1343.6422,-592.8583 1344.6149,-592.8182 1346.1332,-592.8906 1350.3334,-592.9053 1352.4824,-592.8177 1357.1218,-592.8347 1358.5183,-592.7781 1362.5457,-592.7936 1366.9023,-593.0037 1367.2983,-592.9878 1368.8302,-593.0623 1374.745,-593.0885 1381.778,-592.8074 1385.0287,-592.9672 1386.332,-593.0895 1395.3081,-593.1344 1400.1862,-592.9427 1404.1691,-593.1393 1405.0625,-593.223 1526.5221,-610.0139 1528.1285,-627.7142 1533.0238,-670.7538 1531.9037,-677.7609 1522.7424,-757.5591 1506.4946,-787.2963 1505.3455,-803.72 1504.8263,-841.5299 1499.6075,-875.6401 1610.0188,-997.403 1608.5435,-1008.1735 1601.6555,-1068.1028 1601.5327,-1069.8859 1584.8569,-1147.3937 1517.8894,-1181.5784 1471.3323,-1193.6812 1459.207,-1197.0752 1442.3734,-1202.7921 1441.0652,-1202.4615 1428.7635,-1200.0322 1426.6519,-1199.6541 1411.9978,-1197.5664 1405.7709,-1196.9084 1391.2847,-1195.9087 1370.1337,-1195.614 1367.2245,-1195.6268 1358.5581,-1194.9293 1343.7379,-1191.4512 1225.8867,-1122.4152 1225.2771,-1122.9824 1160.1958,-1185.8241 1069.4354,-1231.8402 1061.1185,-1229.4586 1047.4899,-1226.1476 1046.6737,-1225.9673 1032.6854,-1223.1814 1029.5724,-1222.6985 1013.3361,-1220.5348 976.9719,-1216.4926 930.4773,-1190.2629 901.7457,-1151.6899 885.3464,-1089.5905 885.1702,-1089.0265 884.0544,-1085.718 879.8719,-1053.2787 888.3151,-1046.6324 891.1883,-1044.4602 903.5436,-1035.4988 919.8221,-1025.2094 938.7452,-1015.0185 1012.6888,-977.5981 1011.5924,-932.8879 1012.0309,-902.6015 1011.2667,-890.6978 1010.9161,-887.3086 1010.3022,-862.2721 999.1187,-854.9461 992.6265,-851.3016 983.9759,-847.2298 980.3705,-845.697 970.2159,-842.2844 962.3954,-840.0103 "/>
<polyline fill="none" stroke="#000000" points="837.9348,-534.2317 835.8422,-537.8182 830.3078,-547.8939 826.8049,-555.4891 828.0565,-560.5972 843.7299,-618.0051 834.3596,-623.4504 820.465,-630.287 820.4446,-630.2966 805.5536,-636.6416 796.9505,-640.1152 788.2626,-643.0444 776.7819,-646.6612 715.7532,-663.1646 714.107,-662.4202 707.2104,-659.4711 698.8907,-656.1193 688.7613,-652.542 678.9064,-649.5518 671.2509,-647.6097 661.4379,-645.3647 649.2045,-643.1778 647.5427,-642.9639 638.9407,-642.0704 637.8589,-641.9849 636.4526,-641.9088 605.7537,-589.2042 594.8284,-564.6364 587.4777,-544.512 582.827,-533.9976 572.9084,-514.8148 561.9739,-496.0423 617.3221,-439.8726 617.5283,-439.8477 626.6906,-439.3323 632.7183,-439.188 635.2733,-439.0504 639.4066,-438.9616 643.6613,-439.0075 656.4537,-438.3828 657.9303,-438.223 673.6436,-435.5781 686.355,-432.6805 692.7716,-430.6447 702.5355,-427.2527 718.3528,-420.8108 719.0462,-420.5084 736.4051,-374.2205 745.7217,-351.5621 766.6405,-304.5777 772.1619,-292.9317 768.5895,-290.2972 752.7734,-279.545 750.5159,-278.1437 746.3671,-275.6871 744.5319,-274.6528 730.177,-267.3598 722.4391,-263.65 640.0342,-228.8572 585.6517,-155.025 577.8051,-144.8646 567.6303,-132.2591 546.5425,-107.178 546.8652,-106.3951 687.2741,.9514 721.0551,14.4478 741.7971,24.029 745.1948,25.8076 755.9254,25.2326 756.5346,25.21 765.5558,25.0226 780.4884,25.4473 791.7247,25.9511 835.9191,29.3785 839.6337,33.7298 839.696,33.7831 890.3521,78.7522 979.7784,119.2158 1007.0453,121.811 1016.9082,123.1316 1028.7466,125.407 1039.0935,127.5965 1045.0569,129.0889 1056.8934,132.2804 1058.8207,132.8739 1083.4247,140.9289 1088.3564,139.2078 1165.4016,77.6455 1138.988,-12.1727 1135.3621,-29.3861 1131.9133,-49.9218 1123.8602,-81.6139 1106.5658,-140.4225 1167.5774,-172.4057 1153.265,-259.642 1151.5216,-276.7469 1151.7673,-286.77 1141.859,-347.1623 1103.2078,-380.2856 1097.7419,-378.8162 1097.0004,-378.6383 1088.1437,-377.0183 1075.4821,-375.0646 1062.5,-373.8099 1059.6731,-373.6995 1049.0149,-373.8954 1042.1427,-373.4628 1029.8007,-373.3979 1016.4278,-372.2422 1013.3276,-371.8908 1003.3373,-370.2183 1002.2319,-370.0035 985.8055,-365.9143 977.6926,-363.458 976.463,-363.0192 968.6739,-377.4493 954.5917,-400.3468 946.076,-411.2116 937.4034,-421.2991 933.5248,-424.9134 926.7651,-432.1838 922.9044,-435.776 922.0238,-436.9804 887.9508,-470.2902 886.961,-471.4392 886.7967,-471.6653 876.5447,-481.1134 871.4408,-487.1664 867.4696,-491.2891 853.731,-508.7596 837.9348,-534.2317 "/>
<polyline fill="none" stroke="#000000" points="919.8221,-1025.2094 938.7452,-1015.0185 1012.6888,-977.5981 1011.5924,-932.8879 1012.0309,-902.6015 1011.2667,-890.6978 1010.9161,-887.3086 1010.3022,-862.2721 999.1187,-854.9461 992.6265,-851.3016 983.9759,-847.2298 980.3705,-845.697 970.2159,-842.2844 962.3954,-840.0103 951.1936,-837.7693 938.8674,-836.426 929.7193,-835.8475 924.6871,-835.2974 914.6552,-833.2697 910.9584,-832.3519 903.7539,-830.2283 900.4831,-829.1136 896.5865,-831.0004 888.197,-834.2205 848.748,-847.3781 846.9477,-848.0652 839.8189,-851.1373 828.095,-856.761 827.7469,-856.9441 819.2252,-861.8345 819.1443,-861.8885 807.8092,-870.0447 797.5567,-878.4325 792.45,-882.8563 782.377,-892.067 782.1464,-892.2659 774.1827,-899.8429 766.0344,-907.9551 745.2497,-926.6782 785.9124,-991.2463 879.8719,-1053.2787 888.3151,-1046.6324 891.1883,-1044.4602 903.5436,-1035.4988 919.8221,-1025.2094 "/>
<!-- apr&#45;&gt;Fedora Container Base -->
<g id="edge1" class="edge">
<title>apr&#45;&gt;Fedora Container Base</title>
<path fill="none" stroke="#444444" stroke-opacity="0.333333" d="M565.5877,-307.579C652.1507,-342.3733 841.4557,-418.4652 933.2797,-455.3743"/>
<polygon fill="#444444" fill-opacity="0.333333" stroke="#444444" stroke-opacity="0.333333" points="932.0695,-458.6599 942.6533,-459.142 934.6802,-452.1649 932.0695,-458.6599"/>
</g>
<!-- device&#45;mapper&#45;libs&#45;&gt;Fedora Container Base -->
<g id="edge2" class="edge">
<title>device&#45;mapper&#45;libs&#45;&gt;Fedora Container Base</title>
<path fill="none" stroke="#444444" stroke-opacity="0.333333" d="M1342.5549,-227.5153C1275.0594,-274.5126 1094.503,-400.2346 1019.1037,-452.7354"/>
<polygon fill="#444444" fill-opacity="0.333333" stroke="#444444" stroke-opacity="0.333333" points="1017.0738,-449.8839 1010.8672,-458.4705 1021.0738,-455.6285 1017.0738,-449.8839"/>
</g>
<!-- device&#45;mapper&#45;libs&#45;&gt;device&#45;mapper -->
<g id="edge3" class="edge">
<title>device&#45;mapper&#45;libs&#45;&gt;device&#45;mapper</title>
<path fill="none" stroke="#444444" stroke-opacity="0.333333" d="M1351.6828,-227.4768C1325.6876,-261.8371 1277.1283,-336.4567 1254.3583,-376.8299"/>
<polygon fill="#444444" fill-opacity="0.333333" stroke="#444444" stroke-opacity="0.333333" points="1251.1547,-375.392 1249.4041,-385.8412 1257.2889,-378.7644 1251.1547,-375.392"/>
</g>
<!-- device&#45;mapper&#45;&gt;Fedora Container Base -->
<g id="edge32" class="edge">
<title>device&#45;mapper&#45;&gt;Fedora Container Base</title>
<path fill="none" stroke="#444444" stroke-opacity="0.333333" d="M1178.1085,-422.0453C1140.1659,-432.7176 1092.1445,-446.2247 1053.5177,-457.0894"/>
<polygon fill="#444444" fill-opacity="0.333333" stroke="#444444" stroke-opacity="0.333333" points="1052.0801,-453.8579 1043.4013,-459.9348 1053.9755,-460.5964 1052.0801,-453.8579"/>
</g>
<!-- device&#45;mapper&#45;&gt;device&#45;mapper&#45;libs -->
<g id="edge33" class="edge">
<title>device&#45;mapper&#45;&gt;device&#45;mapper&#45;libs</title>
<path fill="none" stroke="#444444" stroke-opacity="0.333333" d="M1259.2172,-385.8932C1285.2124,-351.5329 1333.7717,-276.9133 1356.5417,-236.5401"/>
<polygon fill="#444444" fill-opacity="0.333333" stroke="#444444" stroke-opacity="0.333333" points="1359.7453,-237.978 1361.4959,-227.5288 1353.6111,-234.6056 1359.7453,-237.978"/>
</g>
<!-- device&#45;mapper&#45;&gt;systemd -->
<g id="edge34" class="edge">
<title>device&#45;mapper&#45;&gt;systemd</title>
<path fill="none" stroke="#444444" stroke-opacity="0.333333" d="M1231.1926,-422.1241C1203.2853,-467.6859 1130.1133,-587.1473 1097.1802,-640.9142"/>
<polygon fill="#444444" fill-opacity="0.333333" stroke="#444444" stroke-opacity="0.333333" points="1094.1238,-639.2034 1091.8851,-649.559 1100.093,-642.8596 1094.1238,-639.2034"/>
</g>
<!-- device&#45;mapper&#45;&gt;util&#45;linux -->
<g id="edge35" class="edge">
<title>device&#45;mapper&#45;&gt;util&#45;linux</title>
<path fill="none" stroke="#444444" stroke-opacity="0.333333" d="M1218.9228,-385.7922C1188.872,-362.3994 1136.583,-321.6955 1103.0613,-295.6008"/>
<polygon fill="#444444" fill-opacity="0.333333" stroke="#444444" stroke-opacity="0.333333" points="1105.0091,-292.6816 1094.9681,-289.3007 1100.7092,-298.2053 1105.0091,-292.6816"/>
</g>
<!-- libargon2&#45;&gt;Fedora Container Base -->
<g id="edge4" class="edge">
<title>libargon2&#45;&gt;Fedora Container Base</title>
<path fill="none" stroke="#444444" stroke-opacity="0.333333" d="M1225.1617,-78.1212C1185.4782,-143.9912 1048.9405,-370.6276 1001.6039,-449.2008"/>
<polygon fill="#444444" fill-opacity="0.333333" stroke="#444444" stroke-opacity="0.333333" points="998.4483,-447.6564 996.2859,-458.0282 1004.4443,-451.2687 998.4483,-447.6564"/>
</g>
<!-- dbus&#45;broker&#45;&gt;Fedora Container Base -->
<g id="edge5" class="edge">
<title>dbus&#45;broker&#45;&gt;Fedora Container Base</title>
<path fill="none" stroke="#444444" stroke-opacity="0.333333" d="M977.7154,-751.8421C979.0847,-702.0275 982.8729,-564.2151 984.5146,-504.4901"/>
<polygon fill="#444444" fill-opacity="0.333333" stroke="#444444" stroke-opacity="0.333333" points="988.0189,-504.378 984.7951,-494.2856 981.0215,-504.1856 988.0189,-504.378"/>
</g>
<!-- dbus&#45;broker&#45;&gt;dbus&#45;common -->
<g id="edge6" class="edge">
<title>dbus&#45;broker&#45;&gt;dbus&#45;common</title>
<path fill="none" stroke="#444444" stroke-opacity="0.333333" d="M1050.8809,-764.3857C1063.973,-763.3471 1077.7256,-762.2561 1091.1623,-761.1902"/>
<polygon fill="#444444" fill-opacity="0.333333" stroke="#444444" stroke-opacity="0.333333" points="1091.6678,-764.6612 1101.3597,-760.3812 1091.1142,-757.6831 1091.6678,-764.6612"/>
</g>
<!-- dbus&#45;broker&#45;&gt;shadow&#45;utils -->
<g id="edge7" class="edge">
<title>dbus&#45;broker&#45;&gt;shadow&#45;utils</title>
<path fill="none" stroke="#444444" stroke-opacity="0.333333" d="M970.7266,-752.0598C950.8106,-696.2441 890.4258,-527.0125 866.5185,-460.0111"/>
<polygon fill="#444444" fill-opacity="0.333333" stroke="#444444" stroke-opacity="0.333333" points="869.7926,-458.7722 863.1355,-450.53 863.1998,-461.1247 869.7926,-458.7722"/>
</g>
<!-- dbus&#45;broker&#45;&gt;systemd -->
<g id="edge8" class="edge">
<title>dbus&#45;broker&#45;&gt;systemd</title>
<path fill="none" stroke="#444444" stroke-opacity="0.333333" d="M995.7119,-751.9211C1012.1945,-735.6106 1036.4809,-711.5777 1054.8755,-693.375"/>
<polygon fill="#444444" fill-opacity="0.333333" stroke="#444444" stroke-opacity="0.333333" points="1057.712,-695.4921 1062.3582,-685.9703 1052.7883,-690.5164 1057.712,-695.4921"/>
</g>
<!-- dbus&#45;common&#45;&gt;Fedora Container Base -->
<g id="edge9" class="edge">
<title>dbus&#45;common&#45;&gt;Fedora Container Base</title>
<path fill="none" stroke="#444444" stroke-opacity="0.333333" d="M1166.1967,-735.9929C1132.8173,-688.0729 1042.53,-558.4548 1003.5819,-502.5402"/>
<polygon fill="#444444" fill-opacity="0.333333" stroke="#444444" stroke-opacity="0.333333" points="1006.376,-500.4279 997.7884,-494.2229 1000.6322,-504.429 1006.376,-500.4279"/>
</g>
<!-- dbus&#45;common&#45;&gt;dbus&#45;common -->
<g id="edge10" class="edge">
<title>dbus&#45;common&#45;&gt;dbus&#45;common</title>
<path fill="none" stroke="#444444" stroke-opacity="0.333333" d="M1256.4655,-760.2533C1267.215,-759.2612 1274.4,-757.2534 1274.4,-754.23 1274.4,-752.2931 1271.4513,-750.7731 1266.5057,-749.6698"/>
<polygon fill="#444444" fill-opacity="0.333333" stroke="#444444" stroke-opacity="0.333333" points="1266.8657,-746.1854 1256.4655,-748.2067 1265.8562,-753.1123 1266.8657,-746.1854"/>
</g>
<!-- dbus&#45;common&#45;&gt;systemd -->
<g id="edge11" class="edge">
<title>dbus&#45;common&#45;&gt;systemd</title>
<path fill="none" stroke="#444444" stroke-opacity="0.333333" d="M1158.0743,-735.9047C1143.7872,-723.3329 1124.6552,-706.4979 1108.9905,-692.7139"/>
<polygon fill="#444444" fill-opacity="0.333333" stroke="#444444" stroke-opacity="0.333333" points="1110.9784,-689.8011 1101.1589,-685.8226 1106.3542,-695.0563 1110.9784,-689.8011"/>
</g>
<!-- shadow&#45;utils&#45;&gt;Fedora Container Base -->
<g id="edge12" class="edge">
<title>shadow&#45;utils&#45;&gt;Fedora Container Base</title>
<path fill="none" stroke="#444444" stroke-opacity="0.333333" d="M909.3263,-450.2975C915.0173,-452.2441 920.8338,-454.2336 926.5898,-456.2023"/>
<polygon fill="#444444" fill-opacity="0.333333" stroke="#444444" stroke-opacity="0.333333" points="925.5919,-459.56 936.1865,-459.4847 927.8574,-452.9367 925.5919,-459.56"/>
</g>
<!-- shadow&#45;utils&#45;&gt;shadow&#45;utils -->
<g id="edge13" class="edge">
<title>shadow&#45;utils&#45;&gt;shadow&#45;utils</title>
<path fill="none" stroke="#444444" stroke-opacity="0.333333" d="M927.4456,-438.3934C937.989,-437.44 945.12,-435.3989 945.12,-432.27 945.12,-430.3144 942.3344,-428.7838 937.6712,-427.678"/>
<polygon fill="#444444" fill-opacity="0.333333" stroke="#444444" stroke-opacity="0.333333" points="937.8538,-424.1664 927.4456,-426.1466 936.8169,-431.0892 937.8538,-424.1664"/>
</g>
<!-- shadow&#45;utils&#45;&gt;libsemanage -->
<g id="edge14" class="edge">
<title>shadow&#45;utils&#45;&gt;libsemanage</title>
<path fill="none" stroke="#444444" stroke-opacity="0.333333" d="M850.2213,-414.2549C832.8919,-365.4652 784.9594,-230.5147 764.1657,-171.9717"/>
<polygon fill="#444444" fill-opacity="0.333333" stroke="#444444" stroke-opacity="0.333333" points="767.3715,-170.54 760.7263,-162.2883 760.7752,-172.883 767.3715,-170.54"/>
</g>
<!-- systemd&#45;&gt;Fedora Container Base -->
<g id="edge15" class="edge">
<title>systemd&#45;&gt;Fedora Container Base</title>
<path fill="none" stroke="#444444" stroke-opacity="0.333333" d="M1071.7241,-649.8004C1054.9248,-616.0752 1018.6486,-543.249 998.8521,-503.5066"/>
<polygon fill="#444444" fill-opacity="0.333333" stroke="#444444" stroke-opacity="0.333333" points="1001.9032,-501.7817 994.3116,-494.3913 995.6375,-504.9028 1001.9032,-501.7817"/>
</g>
<!-- systemd&#45;&gt;shadow&#45;utils -->
<g id="edge16" class="edge">
<title>systemd&#45;&gt;shadow&#45;utils</title>
<path fill="none" stroke="#444444" stroke-opacity="0.333333" d="M1063.4889,-649.7279C1023.978,-608.1946 926.6735,-505.9093 881.016,-457.9147"/>
<polygon fill="#444444" fill-opacity="0.333333" stroke="#444444" stroke-opacity="0.333333" points="883.3181,-455.2567 873.8897,-450.4237 878.2464,-460.0814 883.3181,-455.2567"/>
</g>
<!-- systemd&#45;&gt;systemd -->
<g id="edge17" class="edge">
<title>systemd&#45;&gt;systemd</title>
<path fill="none" stroke="#444444" stroke-opacity="0.333333" d="M1142.3667,-674.1213C1152.9013,-673.2603 1160.2,-671.1598 1160.2,-667.82 1160.2,-665.6804 1157.2046,-664.0495 1152.282,-662.9272"/>
<polygon fill="#444444" fill-opacity="0.333333" stroke="#444444" stroke-opacity="0.333333" points="1152.7596,-659.46 1142.3667,-661.5187 1151.7751,-666.3904 1152.7596,-659.46"/>
</g>
<!-- systemd&#45;&gt;util&#45;linux -->
<g id="edge18" class="edge">
<title>systemd&#45;&gt;util&#45;linux</title>
<path fill="none" stroke="#444444" stroke-opacity="0.333333" d="M1080.2853,-649.7433C1078.8404,-586.7531 1074.0194,-376.5827 1072.2545,-299.6443"/>
<polygon fill="#444444" fill-opacity="0.333333" stroke="#444444" stroke-opacity="0.333333" points="1075.7456,-299.2099 1072.0171,-289.2928 1068.7474,-299.3705 1075.7456,-299.2099"/>
</g>
<!-- systemd&#45;&gt;iptables&#45;libs -->
<g id="edge19" class="edge">
<title>systemd&#45;&gt;iptables&#45;libs</title>
<path fill="none" stroke="#444444" stroke-opacity="0.333333" d="M1118.024,-649.7659C1171.5748,-623.8628 1270.1703,-576.1709 1328.5529,-547.9305"/>
<polygon fill="#444444" fill-opacity="0.333333" stroke="#444444" stroke-opacity="0.333333" points="1330.4367,-550.9073 1337.9148,-543.4021 1327.3886,-544.6058 1330.4367,-550.9073"/>
</g>
<!-- systemd&#45;&gt;acl -->
<g id="edge20" class="edge">
<title>systemd&#45;&gt;acl</title>
<path fill="none" stroke="#444444" stroke-opacity="0.333333" d="M1067.5881,-685.8399C1037.6739,-726.9516 964.274,-827.8265 929.2254,-875.9944"/>
<polygon fill="#444444" fill-opacity="0.333333" stroke="#444444" stroke-opacity="0.333333" points="926.2001,-874.2034 923.1465,-884.3487 931.8603,-878.322 926.2001,-874.2034"/>
</g>
<!-- systemd&#45;&gt;cryptsetup&#45;libs -->
<g id="edge21" class="edge">
<title>systemd&#45;&gt;cryptsetup&#45;libs</title>
<path fill="none" stroke="#444444" stroke-opacity="0.333333" d="M1088.1478,-649.6975C1113.343,-588.3908 1195.5,-388.4806 1225.8755,-314.5689"/>
<polygon fill="#444444" fill-opacity="0.333333" stroke="#444444" stroke-opacity="0.333333" points="1229.2426,-315.5833 1229.8066,-305.0034 1222.7681,-312.9224 1229.2426,-315.5833"/>
</g>
<!-- systemd&#45;&gt;dbus -->
<g id="edge22" class="edge">
<title>systemd&#45;&gt;dbus</title>
<path fill="none" stroke="#444444" stroke-opacity="0.333333" d="M1078.9727,-685.9348C1072.6716,-752.0147 1050.8905,-980.4342 1043.2083,-1060.9983"/>
<polygon fill="#444444" fill-opacity="0.333333" stroke="#444444" stroke-opacity="0.333333" points="1039.686,-1061.0656 1042.2209,-1071.3527 1046.6544,-1061.7301 1039.686,-1061.0656"/>
</g>
<!-- systemd&#45;&gt;kmod&#45;libs -->
<g id="edge23" class="edge">
<title>systemd&#45;&gt;kmod&#45;libs</title>
<path fill="none" stroke="#444444" stroke-opacity="0.333333" d="M1142.4105,-666.2838C1183.9573,-665.2496 1239.0922,-663.8771 1283.7084,-662.7664"/>
<polygon fill="#444444" fill-opacity="0.333333" stroke="#444444" stroke-opacity="0.333333" points="1284.0218,-666.2598 1293.9316,-662.512 1283.8476,-659.262 1284.0218,-666.2598"/>
</g>
<!-- systemd&#45;&gt;libseccomp -->
<g id="edge24" class="edge">
<title>systemd&#45;&gt;libseccomp</title>
<path fill="none" stroke="#444444" stroke-opacity="0.333333" d="M1084.082,-685.9321C1091.5724,-726.0465 1109.6048,-822.6184 1118.5649,-870.6038"/>
<polygon fill="#444444" fill-opacity="0.333333" stroke="#444444" stroke-opacity="0.333333" points="1115.1576,-871.4244 1120.4337,-880.6121 1122.0386,-870.1395 1115.1576,-871.4244"/>
</g>
<!-- systemd&#45;&gt;qrencode&#45;libs -->
<g id="edge25" class="edge">
<title>systemd&#45;&gt;qrencode&#45;libs</title>
<path fill="none" stroke="#444444" stroke-opacity="0.333333" d="M1110.7376,-685.8665C1151.213,-710.1839 1223.3197,-753.5053 1267.9291,-780.3065"/>
<polygon fill="#444444" fill-opacity="0.333333" stroke="#444444" stroke-opacity="0.333333" points="1266.3637,-783.449 1276.7382,-785.5989 1269.9687,-777.4487 1266.3637,-783.449"/>
</g>
<!-- systemd&#45;&gt;systemd&#45;pam -->
<g id="edge26" class="edge">
<title>systemd&#45;&gt;systemd&#45;pam</title>
<path fill="none" stroke="#444444" stroke-opacity="0.333333" d="M1022.7754,-685.8255C971.7911,-705.1945 898.867,-735.6835 853.8157,-756.5901"/>
<polygon fill="#444444" fill-opacity="0.333333" stroke="#444444" stroke-opacity="0.333333" points="852.2065,-753.479 844.6432,-760.8984 855.1825,-759.8149 852.2065,-753.479"/>
</g>
<!-- systemd&#45;&gt;systemd&#45;rpm&#45;macros -->
<g id="edge27" class="edge">
<title>systemd&#45;&gt;systemd&#45;rpm&#45;macros</title>
<path fill="none" stroke="#444444" stroke-opacity="0.333333" d="M1097.0319,-685.9344C1152.7331,-747.715 1335.3948,-950.3132 1400.6594,-1022.701"/>
<polygon fill="#444444" fill-opacity="0.333333" stroke="#444444" stroke-opacity="0.333333" points="1398.3724,-1025.3913 1407.6681,-1030.4747 1403.5714,-1020.7039 1398.3724,-1025.3913"/>
</g>
<!-- libsemanage&#45;&gt;Fedora Container Base -->
<g id="edge61" class="edge">
<title>libsemanage&#45;&gt;Fedora Container Base</title>
<path fill="none" stroke="#444444" stroke-opacity="0.333333" d="M767.0764,-162.6027C805.6425,-218.0406 921.2157,-384.1745 966.6525,-449.4889"/>
<polygon fill="#444444" fill-opacity="0.333333" stroke="#444444" stroke-opacity="0.333333" points="963.9991,-451.8037 972.583,-458.014 969.7454,-447.8062 963.9991,-451.8037"/>
</g>
<!-- libsemanage&#45;&gt;libsemanage -->
<g id="edge62" class="edge">
<title>libsemanage&#45;&gt;libsemanage</title>
<path fill="none" stroke="#444444" stroke-opacity="0.333333" d="M829.9025,-150.3374C840.6309,-149.3577 847.83,-147.3386 847.83,-144.28 847.83,-142.3206 844.8755,-140.7878 839.9313,-139.6815"/>
<polygon fill="#444444" fill-opacity="0.333333" stroke="#444444" stroke-opacity="0.333333" points="840.3023,-136.1987 829.9025,-138.2226 839.2945,-143.1258 840.3023,-136.1987"/>
</g>
<!-- util&#45;linux&#45;&gt;Fedora Container Base -->
<g id="edge28" class="edge">
<title>util&#45;linux&#45;&gt;Fedora Container Base</title>
<path fill="none" stroke="#444444" stroke-opacity="0.333333" d="M1063.9406,-289.3175C1048.7774,-325.3623 1014.8553,-405.9994 996.9197,-448.6346"/>
<polygon fill="#444444" fill-opacity="0.333333" stroke="#444444" stroke-opacity="0.333333" points="993.5838,-447.5385 992.9323,-458.1133 1000.0361,-450.2529 993.5838,-447.5385"/>
</g>
<!-- util&#45;linux&#45;&gt;util&#45;linux -->
<g id="edge29" class="edge">
<title>util&#45;linux&#45;&gt;util&#45;linux</title>
<path fill="none" stroke="#444444" stroke-opacity="0.333333" d="M1136.2797,-277.3553C1146.8415,-276.4613 1154.1,-274.3795 1154.1,-271.11 1154.1,-269.0155 1151.1211,-267.4084 1146.2032,-266.2887"/>
<polygon fill="#444444" fill-opacity="0.333333" stroke="#444444" stroke-opacity="0.333333" points="1146.6755,-262.8207 1136.2797,-264.8647 1145.6811,-269.7498 1146.6755,-262.8207"/>
</g>
<!-- util&#45;linux&#45;&gt;libfdisk -->
<g id="edge30" class="edge">
<title>util&#45;linux&#45;&gt;libfdisk</title>
<path fill="none" stroke="#444444" stroke-opacity="0.333333" d="M1068.7808,-252.907C1062.0143,-209.2162 1044.8172,-98.1766 1036.7292,-45.953"/>
<polygon fill="#444444" fill-opacity="0.333333" stroke="#444444" stroke-opacity="0.333333" points="1040.183,-45.3846 1035.1936,-36.0381 1033.2654,-46.456 1040.183,-45.3846"/>
</g>
<!-- util&#45;linux&#45;&gt;libutempter -->
<g id="edge31" class="edge">
<title>util&#45;linux&#45;&gt;libutempter</title>
<path fill="none" stroke="#444444" stroke-opacity="0.333333" d="M1045.6892,-252.9883C1018.2983,-233.8315 974.9561,-203.5186 944.7196,-182.3716"/>
<polygon fill="#444444" fill-opacity="0.333333" stroke="#444444" stroke-opacity="0.333333" points="946.3772,-179.2598 936.1765,-176.3967 942.3653,-184.9961 946.3772,-179.2598"/>
</g>
<!-- iptables&#45;libs&#45;&gt;Fedora Container Base -->
<g id="edge57" class="edge">
<title>iptables&#45;libs&#45;&gt;Fedora Container Base</title>
<path fill="none" stroke="#444444" stroke-opacity="0.333333" d="M1301.5647,-515.9978C1243.0499,-508.6495 1160.4217,-498.273 1094.2956,-489.9689"/>
<polygon fill="#444444" fill-opacity="0.333333" stroke="#444444" stroke-opacity="0.333333" points="1094.6061,-486.4805 1084.2479,-488.7071 1093.7338,-493.4259 1094.6061,-486.4805"/>
</g>
<!-- iptables&#45;libs&#45;&gt;iptables&#45;libs -->
<g id="edge58" class="edge">
<title>iptables&#45;libs&#45;&gt;iptables&#45;libs</title>
<path fill="none" stroke="#444444" stroke-opacity="0.333333" d="M1448.9926,-531.3608C1459.692,-530.394 1466.9,-528.3638 1466.9,-525.27 1466.9,-523.2881 1463.9418,-521.7426 1459.0026,-520.6336"/>
<polygon fill="#444444" fill-opacity="0.333333" stroke="#444444" stroke-opacity="0.333333" points="1459.392,-517.1534 1448.9926,-519.1792 1458.3854,-524.0807 1459.392,-517.1534"/>
</g>
<!-- iptables&#45;libs&#45;&gt;libpcap -->
<g id="edge59" class="edge">
<title>iptables&#45;libs&#45;&gt;libpcap</title>
<path fill="none" stroke="#444444" stroke-opacity="0.333333" d="M1392.2801,-507.1899C1413.1815,-484.8028 1448.9255,-446.5178 1472.7056,-421.0472"/>
<polygon fill="#444444" fill-opacity="0.333333" stroke="#444444" stroke-opacity="0.333333" points="1475.4058,-423.2838 1479.6719,-413.5857 1470.2892,-418.5067 1475.4058,-423.2838"/>
</g>
<!-- acl&#45;&gt;Fedora Container Base -->
<g id="edge63" class="edge">
<title>acl&#45;&gt;Fedora Container Base</title>
<path fill="none" stroke="#444444" stroke-opacity="0.333333" d="M913.1775,-884.3911C924.9382,-817.8328 965.9547,-585.7053 980.2945,-504.5511"/>
<polygon fill="#444444" fill-opacity="0.333333" stroke="#444444" stroke-opacity="0.333333" points="983.7661,-505.0183 982.0596,-494.5618 976.8729,-503.8002 983.7661,-505.0183"/>
</g>
<!-- cryptsetup&#45;libs&#45;&gt;Fedora Container Base -->
<g id="edge64" class="edge">
<title>cryptsetup&#45;libs&#45;&gt;Fedora Container Base</title>
<path fill="none" stroke="#444444" stroke-opacity="0.333333" d="M1213.1362,-304.941C1167.3903,-339.3417 1068.1545,-413.9664 1017.0777,-452.3758"/>
<polygon fill="#444444" fill-opacity="0.333333" stroke="#444444" stroke-opacity="0.333333" points="1014.9014,-449.6331 1009.0127,-458.4407 1019.1086,-455.2278 1014.9014,-449.6331"/>
</g>
<!-- cryptsetup&#45;libs&#45;&gt;device&#45;mapper&#45;libs -->
<g id="edge65" class="edge">
<title>cryptsetup&#45;libs&#45;&gt;device&#45;mapper&#45;libs</title>
<path fill="none" stroke="#444444" stroke-opacity="0.333333" d="M1268.084,-268.6255C1286.3571,-257.8551 1309.7072,-244.0922 1329.3019,-232.5429"/>
<polygon fill="#444444" fill-opacity="0.333333" stroke="#444444" stroke-opacity="0.333333" points="1331.1712,-235.5038 1338.0089,-227.4108 1327.6167,-229.4734 1331.1712,-235.5038"/>
</g>
<!-- cryptsetup&#45;libs&#45;&gt;libargon2 -->
<g id="edge66" class="edge">
<title>cryptsetup&#45;libs&#45;&gt;libargon2</title>
<path fill="none" stroke="#444444" stroke-opacity="0.333333" d="M1237.2038,-268.593C1236.9954,-229.1946 1236.5006,-135.6784 1236.2504,-88.3902"/>
<polygon fill="#444444" fill-opacity="0.333333" stroke="#444444" stroke-opacity="0.333333" points="1239.7496,-88.2099 1236.1966,-78.2286 1232.7497,-88.247 1239.7496,-88.2099"/>
</g>
<!-- dbus&#45;&gt;dbus&#45;broker -->
<g id="edge67" class="edge">
<title>dbus&#45;&gt;dbus&#45;broker</title>
<path fill="none" stroke="#444444" stroke-opacity="0.333333" d="M1036.9159,-1071.3256C1026.3884,-1018.2355 995.5019,-862.4756 982.782,-798.3296"/>
<polygon fill="#444444" fill-opacity="0.333333" stroke="#444444" stroke-opacity="0.333333" points="986.2115,-797.63 980.8332,-788.5018 979.3452,-798.9916 986.2115,-797.63"/>
</g>
<!-- kmod&#45;libs&#45;&gt;Fedora Container Base -->
<g id="edge68" class="edge">
<title>kmod&#45;libs&#45;&gt;Fedora Container Base</title>
<path fill="none" stroke="#444444" stroke-opacity="0.333333" d="M1325.1033,-642.7895C1255.6136,-608.7394 1105.3151,-535.0927 1030.0849,-498.2297"/>
<polygon fill="#444444" fill-opacity="0.333333" stroke="#444444" stroke-opacity="0.333333" points="1031.3763,-494.9649 1020.8563,-493.7076 1028.2962,-501.2508 1031.3763,-494.9649"/>
</g>
<!-- libseccomp&#45;&gt;Fedora Container Base -->
<g id="edge69" class="edge">
<title>libseccomp&#45;&gt;Fedora Container Base</title>
<path fill="none" stroke="#444444" stroke-opacity="0.333333" d="M1117.8484,-880.4917C1096.0935,-814.1541 1020.7835,-584.5108 994.4596,-504.2409"/>
<polygon fill="#444444" fill-opacity="0.333333" stroke="#444444" stroke-opacity="0.333333" points="997.6614,-502.7721 991.2194,-494.3607 991.0099,-504.9534 997.6614,-502.7721"/>
</g>
<!-- qrencode&#45;libs&#45;&gt;Fedora Container Base -->
<g id="edge70" class="edge">
<title>qrencode&#45;libs&#45;&gt;Fedora Container Base</title>
<path fill="none" stroke="#444444" stroke-opacity="0.333333" d="M1289.1507,-785.649C1235.1183,-730.6371 1072.5343,-565.1059 1010.0892,-501.5288"/>
<polygon fill="#444444" fill-opacity="0.333333" stroke="#444444" stroke-opacity="0.333333" points="1012.4887,-498.9769 1002.9844,-494.2952 1007.4947,-503.882 1012.4887,-498.9769"/>
</g>
<!-- systemd&#45;pam&#45;&gt;Fedora Container Base -->
<g id="edge71" class="edge">
<title>systemd&#45;pam&#45;&gt;Fedora Container Base</title>
<path fill="none" stroke="#444444" stroke-opacity="0.333333" d="M823.3462,-761.0077C852.3496,-710.0143 935.0953,-564.5318 969.7384,-503.6226"/>
<polygon fill="#444444" fill-opacity="0.333333" stroke="#444444" stroke-opacity="0.333333" points="972.9682,-505.0234 974.8698,-494.6006 966.8835,-501.5626 972.9682,-505.0234"/>
</g>
<!-- systemd&#45;pam&#45;&gt;systemd -->
<g id="edge72" class="edge">
<title>systemd&#45;pam&#45;&gt;systemd</title>
<path fill="none" stroke="#444444" stroke-opacity="0.333333" d="M871.0146,-761.0345C921.9989,-741.6655 994.923,-711.1765 1039.9743,-690.2699"/>
<polygon fill="#444444" fill-opacity="0.333333" stroke="#444444" stroke-opacity="0.333333" points="1041.5835,-693.381 1049.1468,-685.9616 1038.6075,-687.0451 1041.5835,-693.381"/>
</g>
<!-- libfdisk&#45;&gt;Fedora Container Base -->
<g id="edge73" class="edge">
<title>libfdisk&#45;&gt;Fedora Container Base</title>
<path fill="none" stroke="#444444" stroke-opacity="0.333333" d="M1030.5242,-36.2479C1023.2704,-106.8113 997.0247,-362.1262 988.2044,-447.9286"/>
<polygon fill="#444444" fill-opacity="0.333333" stroke="#444444" stroke-opacity="0.333333" points="984.7122,-447.6744 987.1712,-457.9799 991.6755,-448.3903 984.7122,-447.6744"/>
</g>
<!-- libutempter&#45;&gt;Fedora Container Base -->
<g id="edge74" class="edge">
<title>libutempter&#45;&gt;Fedora Container Base</title>
<path fill="none" stroke="#444444" stroke-opacity="0.333333" d="M914.575,-176.3259C927.0436,-229.2147 963.6253,-384.3841 978.6906,-448.287"/>
<polygon fill="#444444" fill-opacity="0.333333" stroke="#444444" stroke-opacity="0.333333" points="975.2974,-449.1474 980.9987,-458.0774 982.1106,-447.5411 975.2974,-449.1474"/>
</g>
<!-- libutempter&#45;&gt;shadow&#45;utils -->
<g id="edge75" class="edge">
<title>libutempter&#45;&gt;shadow&#45;utils</title>
<path fill="none" stroke="#444444" stroke-opacity="0.333333" d="M906.7225,-176.72C897.5305,-223.6045 873.1796,-347.8071 862.1671,-403.9765"/>
<polygon fill="#444444" fill-opacity="0.333333" stroke="#444444" stroke-opacity="0.333333" points="858.7012,-403.4635 860.2118,-413.9501 865.5704,-404.8103 858.7012,-403.4635"/>
</g>
<!-- apr&#45;util&#45;&gt;Fedora Container Base -->
<g id="edge36" class="edge">
<title>apr&#45;util&#45;&gt;Fedora Container Base</title>
<path fill="none" stroke="#444444" stroke-opacity="0.333333" d="M662.3547,-364.2354C731.9007,-388.3649 854.6322,-430.9474 927.1056,-456.0925"/>
<polygon fill="#444444" fill-opacity="0.333333" stroke="#444444" stroke-opacity="0.333333" points="925.9593,-459.3994 936.5541,-459.3707 928.2538,-452.7862 925.9593,-459.3994"/>
</g>
<!-- apr&#45;util&#45;&gt;apr -->
<g id="edge37" class="edge">
<title>apr&#45;util&#45;&gt;apr</title>
<path fill="none" stroke="#444444" stroke-opacity="0.333333" d="M581.36,-327.907C573.8526,-323.1607 565.6574,-317.9796 557.7857,-313.003"/>
<polygon fill="#444444" fill-opacity="0.333333" stroke="#444444" stroke-opacity="0.333333" points="559.4124,-309.8906 549.0896,-307.5052 555.6717,-315.8073 559.4124,-309.8906"/>
</g>
<!-- httpd&#45;&gt;Fedora Container Base -->
<g id="edge38" class="edge">
<title>httpd&#45;&gt;Fedora Container Base</title>
<path fill="none" stroke="#444444" stroke-opacity="0.333333" d="M587.9033,-563.693C674.5309,-544.6375 816.3572,-513.4401 905.0765,-493.9245"/>
<polygon fill="#444444" fill-opacity="0.333333" stroke="#444444" stroke-opacity="0.333333" points="906.0767,-497.2883 915.0913,-491.7216 904.5728,-490.4517 906.0767,-497.2883"/>
</g>
<!-- httpd&#45;&gt;apr -->
<g id="edge39" class="edge">
<title>httpd&#45;&gt;apr</title>
<path fill="none" stroke="#444444" stroke-opacity="0.333333" d="M513.2604,-562.0342C514.5859,-512.8839 518.2472,-377.1159 519.8462,-317.8223"/>
<polygon fill="#444444" fill-opacity="0.333333" stroke="#444444" stroke-opacity="0.333333" points="523.3488,-317.7697 520.1198,-307.679 516.3514,-317.5809 523.3488,-317.7697"/>
</g>
<!-- httpd&#45;&gt;systemd -->
<g id="edge40" class="edge">
<title>httpd&#45;&gt;systemd</title>
<path fill="none" stroke="#444444" stroke-opacity="0.333333" d="M587.8936,-591.8074C697.7044,-608.7451 900.6932,-640.055 1008.7033,-656.7149"/>
<polygon fill="#444444" fill-opacity="0.333333" stroke="#444444" stroke-opacity="0.333333" points="1008.4364,-660.2151 1018.8531,-658.2805 1009.5036,-653.2969 1008.4364,-660.2151"/>
</g>
<!-- httpd&#45;&gt;apr&#45;util -->
<g id="edge41" class="edge">
<title>httpd&#45;&gt;apr&#45;util</title>
<path fill="none" stroke="#444444" stroke-opacity="0.333333" d="M520.4152,-561.8521C537.4544,-520.9147 578.6257,-421.9986 598.7463,-373.658"/>
<polygon fill="#444444" fill-opacity="0.333333" stroke="#444444" stroke-opacity="0.333333" points="601.9789,-374.9997 602.5903,-364.4225 595.5163,-372.3098 601.9789,-374.9997"/>
</g>
<!-- httpd&#45;&gt;fedora&#45;logos&#45;httpd -->
<g id="edge42" class="edge">
<title>httpd&#45;&gt;fedora&#45;logos&#45;httpd</title>
<path fill="none" stroke="#444444" stroke-opacity="0.333333" d="M476.3901,-598.2863C402.1895,-635.1343 233.5501,-718.8807 152.2897,-759.2346"/>
<polygon fill="#444444" fill-opacity="0.333333" stroke="#444444" stroke-opacity="0.333333" points="150.694,-756.1192 143.2943,-763.7018 153.8074,-762.3887 150.694,-756.1192"/>
</g>
<!-- httpd&#45;&gt;httpd -->
<g id="edge43" class="edge">
<title>httpd&#45;&gt;httpd</title>
<path fill="none" stroke="#444444" stroke-opacity="0.333333" d="M587.9384,-586.2774C598.6094,-585.2977 605.77,-583.2786 605.77,-580.22 605.77,-578.2606 602.8313,-576.7278 597.9135,-575.6215"/>
<polygon fill="#444444" fill-opacity="0.333333" stroke="#444444" stroke-opacity="0.333333" points="598.3397,-572.1467 587.9384,-574.1626 597.3266,-579.073 598.3397,-572.1467"/>
</g>
<!-- httpd&#45;&gt;httpd&#45;filesystem -->
<g id="edge44" class="edge">
<title>httpd&#45;&gt;httpd&#45;filesystem</title>
<path fill="none" stroke="#444444" stroke-opacity="0.333333" d="M572.9421,-562.1087C582.9104,-559.1083 593.3194,-555.9753 603.4979,-552.9117"/>
<polygon fill="#444444" fill-opacity="0.333333" stroke="#444444" stroke-opacity="0.333333" points="604.5971,-556.236 613.164,-550.0023 602.5796,-549.533 604.5971,-556.236"/>
</g>
<!-- httpd&#45;&gt;httpd&#45;tools -->
<g id="edge45" class="edge">
<title>httpd&#45;&gt;httpd&#45;tools</title>
<path fill="none" stroke="#444444" stroke-opacity="0.333333" d="M511.3014,-562.0492C509.0032,-533.6139 504.5385,-478.3724 501.8137,-444.66"/>
<polygon fill="#444444" fill-opacity="0.333333" stroke="#444444" stroke-opacity="0.333333" points="505.2895,-444.2177 500.9952,-434.5322 498.3122,-444.7817 505.2895,-444.2177"/>
</g>
<!-- httpd&#45;&gt;mailcap -->
<g id="edge46" class="edge">
<title>httpd&#45;&gt;mailcap</title>
<path fill="none" stroke="#444444" stroke-opacity="0.333333" d="M437.674,-574.5676C351.095,-568.0509 210.0004,-557.4309 126.3707,-551.1362"/>
<polygon fill="#444444" fill-opacity="0.333333" stroke="#444444" stroke-opacity="0.333333" points="126.4489,-547.6323 116.2144,-550.3717 125.9234,-554.6125 126.4489,-547.6323"/>
</g>
<!-- httpd&#45;&gt;mod_http2 -->
<g id="edge47" class="edge">
<title>httpd&#45;&gt;mod_http2</title>
<path fill="none" stroke="#444444" stroke-opacity="0.333333" d="M516.1084,-598.2635C525.9299,-628.2319 551.8555,-688.3349 569.7909,-723.5428"/>
<polygon fill="#444444" fill-opacity="0.333333" stroke="#444444" stroke-opacity="0.333333" points="566.8803,-725.5297 574.6177,-732.7673 573.0825,-722.2843 566.8803,-725.5297"/>
</g>
<!-- httpd&#45;filesystem&#45;&gt;Fedora Container Base -->
<g id="edge48" class="edge">
<title>httpd&#45;filesystem&#45;&gt;Fedora Container Base</title>
<path fill="none" stroke="#444444" stroke-opacity="0.333333" d="M756.3804,-517.1046C798.7715,-509.5444 850.4032,-500.3362 893.8944,-492.5798"/>
<polygon fill="#444444" fill-opacity="0.333333" stroke="#444444" stroke-opacity="0.333333" points="894.671,-495.9966 903.9011,-490.7952 893.4419,-489.1054 894.671,-495.9966"/>
</g>
<!-- httpd&#45;filesystem&#45;&gt;shadow&#45;utils -->
<g id="edge49" class="edge">
<title>httpd&#45;filesystem&#45;&gt;shadow&#45;utils</title>
<path fill="none" stroke="#444444" stroke-opacity="0.333333" d="M706.3668,-513.8987C736.6675,-497.4371 781.5844,-473.0349 814.4139,-455.1995"/>
<polygon fill="#444444" fill-opacity="0.333333" stroke="#444444" stroke-opacity="0.333333" points="816.2147,-458.2044 823.3308,-450.3551 812.873,-452.0535 816.2147,-458.2044"/>
</g>
<!-- httpd&#45;tools&#45;&gt;Fedora Container Base -->
<g id="edge50" class="edge">
<title>httpd&#45;tools&#45;&gt;Fedora Container Base</title>
<path fill="none" stroke="#444444" stroke-opacity="0.333333" d="M569.119,-424.8765C649.105,-434.756 781.4068,-451.0973 875.3537,-462.7012"/>
<polygon fill="#444444" fill-opacity="0.333333" stroke="#444444" stroke-opacity="0.333333" points="875.1124,-466.1979 885.4661,-463.9502 875.9706,-459.2507 875.1124,-466.1979"/>
</g>
<!-- httpd&#45;tools&#45;&gt;apr -->
<g id="edge51" class="edge">
<title>httpd&#45;tools&#45;&gt;apr</title>
<path fill="none" stroke="#444444" stroke-opacity="0.333333" d="M502.5417,-398.1155C506.0341,-377.1214 511.8237,-342.3177 515.9065,-317.7746"/>
<polygon fill="#444444" fill-opacity="0.333333" stroke="#444444" stroke-opacity="0.333333" points="519.4054,-318.0696 517.5939,-307.6308 512.5003,-316.9209 519.4054,-318.0696"/>
</g>
<!-- httpd&#45;tools&#45;&gt;apr&#45;util -->
<g id="edge52" class="edge">
<title>httpd&#45;tools&#45;&gt;apr&#45;util</title>
<path fill="none" stroke="#444444" stroke-opacity="0.333333" d="M528.0229,-398.2172C541.7076,-389.5449 558.2812,-379.0419 572.9496,-369.7463"/>
<polygon fill="#444444" fill-opacity="0.333333" stroke="#444444" stroke-opacity="0.333333" points="575.2205,-372.4508 581.7937,-364.1416 571.4735,-366.5381 575.2205,-372.4508"/>
</g>
<!-- mailcap&#45;&gt;mailcap -->
<g id="edge53" class="edge">
<title>mailcap&#45;&gt;mailcap</title>
<path fill="none" stroke="#444444" stroke-opacity="0.333333" d="M116.3117,-552.3441C126.7258,-551.5182 134,-549.4002 134,-545.99 134,-543.8587 131.1585,-542.232 126.4849,-541.1102"/>
<polygon fill="#444444" fill-opacity="0.333333" stroke="#444444" stroke-opacity="0.333333" points="126.7103,-537.6064 116.3117,-539.6359 125.7064,-544.534 126.7103,-537.6064"/>
</g>
<!-- mod_http2&#45;&gt;Fedora Container Base -->
<g id="edge54" class="edge">
<title>mod_http2&#45;&gt;Fedora Container Base</title>
<path fill="none" stroke="#444444" stroke-opacity="0.333333" d="M613.6095,-732.9001C683.1765,-684.8688 873.0559,-553.77 951.0998,-499.886"/>
<polygon fill="#444444" fill-opacity="0.333333" stroke="#444444" stroke-opacity="0.333333" points="953.371,-502.5711 959.6116,-494.0092 949.3938,-496.8107 953.371,-502.5711"/>
</g>
<!-- mod_http2&#45;&gt;httpd -->
<g id="edge55" class="edge">
<title>mod_http2&#45;&gt;httpd</title>
<path fill="none" stroke="#444444" stroke-opacity="0.333333" d="M584.1716,-732.8765C574.3501,-702.9081 548.4245,-642.8051 530.4891,-607.5972"/>
<polygon fill="#444444" fill-opacity="0.333333" stroke="#444444" stroke-opacity="0.333333" points="533.3997,-605.6103 525.6623,-598.3727 527.1975,-608.8557 533.3997,-605.6103"/>
</g>
<!-- mod_http2&#45;&gt;mod_http2 -->
<g id="edge56" class="edge">
<title>mod_http2&#45;&gt;mod_http2</title>
<path fill="none" stroke="#444444" stroke-opacity="0.333333" d="M657.1827,-757.0751C667.8002,-756.1358 675.01,-754.0841 675.01,-750.92 675.01,-748.893 672.0511,-747.3226 667.1329,-746.2086"/>
<polygon fill="#444444" fill-opacity="0.333333" stroke="#444444" stroke-opacity="0.333333" points="667.5817,-742.7372 657.1827,-744.7649 666.5765,-749.6646 667.5817,-742.7372"/>
</g>
<!-- libpcap&#45;&gt;Fedora Container Base -->
<g id="edge60" class="edge">
<title>libpcap&#45;&gt;Fedora Container Base</title>
<path fill="none" stroke="#444444" stroke-opacity="0.333333" d="M1437.1222,-404.6949C1350.0646,-418.4877 1187.2549,-444.2821 1082.685,-460.8494"/>
<polygon fill="#444444" fill-opacity="0.333333" stroke="#444444" stroke-opacity="0.333333" points="1082.0807,-457.4014 1072.7516,-462.4232 1083.1762,-464.3152 1082.0807,-457.4014"/>
</g>
<!-- Fedora Container Base -->
<g id="node1" class="node">
<title>Fedora Container Base</title>
<ellipse fill="none" stroke="#000000" cx="985.29" cy="-476.28" rx="136.5" ry="18"/>
<text text-anchor="middle" x="985.29" y="-472.58" font-family="Helvetica,sans-Serif" font-weight="bold" font-size="14.00" fill="#000000">Fedora Container Base (215.7 MB)</text>
</g>
<!-- apr -->
<g id="node2" class="node">
<title>apr</title>
<text text-anchor="middle" x="520.61" y="-285.8" font-family="Helvetica,sans-Serif" font-weight="bold" font-size="14.00" fill="#000000">apr (409.0 kB)</text>
</g>
<!-- device&#45;mapper&#45;libs -->
<g id="node3" class="node">
<title>device&#45;mapper&#45;libs</title>
<text text-anchor="middle" x="1368.6" y="-205.68" font-family="Helvetica,sans-Serif" font-weight="bold" font-size="14.00" fill="#000000">device&#45;mapper&#45;libs (435.2 kB)</text>
</g>
<!-- device&#45;mapper -->
<g id="node4" class="node">
<title>device&#45;mapper</title>
<text text-anchor="middle" x="1242.3" y="-400.29" font-family="Helvetica,sans-Serif" font-weight="bold" font-size="14.00" fill="#000000">device&#45;mapper (352.1 kB)</text>
</g>
<!-- libargon2 -->
<g id="node5" class="node">
<title>libargon2</title>
<text text-anchor="middle" x="1236.1" y="-56.265" font-family="Helvetica,sans-Serif" font-weight="bold" font-size="14.00" fill="#000000">libargon2 (62.9 kB)</text>
</g>
<!-- dbus&#45;broker -->
<g id="node6" class="node">
<title>dbus&#45;broker</title>
<text text-anchor="middle" x="977.21" y="-766.53" font-family="Helvetica,sans-Serif" font-weight="bold" font-size="14.00" fill="#000000">dbus&#45;broker (708.1 kB)</text>
</g>
<!-- dbus&#45;common -->
<g id="node7" class="node">
<title>dbus&#45;common</title>
<text text-anchor="middle" x="1178.9" y="-750.53" font-family="Helvetica,sans-Serif" font-weight="bold" font-size="14.00" fill="#000000">dbus&#45;common (11.2 kB)</text>
</g>
<!-- shadow&#45;utils -->
<g id="node8" class="node">
<title>shadow&#45;utils</title>
<text text-anchor="middle" x="856.62" y="-428.57" font-family="Helvetica,sans-Serif" font-weight="bold" font-size="14.00" fill="#000000">shadow&#45;utils (5.0 MB)</text>
</g>
<!-- systemd -->
<g id="node9" class="node">
<title>systemd</title>
<text text-anchor="middle" x="1080.7" y="-664.12" font-family="Helvetica,sans-Serif" font-weight="bold" font-size="14.00" fill="#000000">systemd (11.8 MB)</text>
</g>
<!-- libsemanage -->
<g id="node10" class="node">
<title>libsemanage</title>
<text text-anchor="middle" x="754.33" y="-140.58" font-family="Helvetica,sans-Serif" font-weight="bold" font-size="14.00" fill="#000000">libsemanage (420.5 kB)</text>
</g>
<!-- util&#45;linux -->
<g id="node11" class="node">
<title>util&#45;linux</title>
<text text-anchor="middle" x="1071.6" y="-267.41" font-family="Helvetica,sans-Serif" font-weight="bold" font-size="14.00" fill="#000000">util&#45;linux (13.1 MB)</text>
</g>
<!-- iptables&#45;libs -->
<g id="node12" class="node">
<title>iptables&#45;libs</title>
<text text-anchor="middle" x="1375.4" y="-521.57" font-family="Helvetica,sans-Serif" font-weight="bold" font-size="14.00" fill="#000000">iptables&#45;libs (159.3 kB)</text>
</g>
<!-- acl -->
<g id="node13" class="node">
<title>acl</title>
<text text-anchor="middle" x="909.99" y="-898.73" font-family="Helvetica,sans-Serif" font-weight="bold" font-size="14.00" fill="#000000">acl (239.3 kB)</text>
</g>
<!-- cryptsetup&#45;libs -->
<g id="node14" class="node">
<title>cryptsetup&#45;libs</title>
<text text-anchor="middle" x="1237.3" y="-283.07" font-family="Helvetica,sans-Serif" font-weight="bold" font-size="14.00" fill="#000000">cryptsetup&#45;libs (1.9 MB)</text>
</g>
<!-- dbus -->
<g id="node15" class="node">
<title>dbus</title>
<text text-anchor="middle" x="1040.5" y="-1085.7" font-family="Helvetica,sans-Serif" font-weight="bold" font-size="14.00" fill="#000000">dbus (0.0 B)</text>
</g>
<!-- kmod&#45;libs -->
<g id="node16" class="node">
<title>kmod&#45;libs</title>
<text text-anchor="middle" x="1361.9" y="-657.12" font-family="Helvetica,sans-Serif" font-weight="bold" font-size="14.00" fill="#000000">kmod&#45;libs (280.7 kB)</text>
</g>
<!-- libseccomp -->
<g id="node17" class="node">
<title>libseccomp</title>
<text text-anchor="middle" x="1123.8" y="-894.94" font-family="Helvetica,sans-Serif" font-weight="bold" font-size="14.00" fill="#000000">libseccomp (391.9 kB)</text>
</g>
<!-- qrencode&#45;libs -->
<g id="node18" class="node">
<title>qrencode&#45;libs</title>
<text text-anchor="middle" x="1306.9" y="-800.02" font-family="Helvetica,sans-Serif" font-weight="bold" font-size="14.00" fill="#000000">qrencode&#45;libs (150.6 kB)</text>
</g>
<!-- systemd&#45;pam -->
<g id="node19" class="node">
<title>systemd&#45;pam</title>
<text text-anchor="middle" x="813.09" y="-775.34" font-family="Helvetica,sans-Serif" font-weight="bold" font-size="14.00" fill="#000000">systemd&#45;pam (331.6 kB)</text>
</g>
<!-- systemd&#45;rpm&#45;macros -->
<g id="node20" class="node">
<title>systemd&#45;rpm&#45;macros</title>
<text text-anchor="middle" x="1424.1" y="-1045" font-family="Helvetica,sans-Serif" font-weight="bold" font-size="14.00" fill="#000000">systemd&#45;rpm&#45;macros (4.0 kB)</text>
</g>
<!-- libfdisk -->
<g id="node21" class="node">
<title>libfdisk</title>
<text text-anchor="middle" x="1032.4" y="-14.3" font-family="Helvetica,sans-Serif" font-weight="bold" font-size="14.00" fill="#000000">libfdisk (579.6 kB)</text>
</g>
<!-- libutempter -->
<g id="node22" class="node">
<title>libutempter</title>
<text text-anchor="middle" x="910.33" y="-154.62" font-family="Helvetica,sans-Serif" font-weight="bold" font-size="14.00" fill="#000000">libutempter (61.4 kB)</text>
</g>
<!-- apr&#45;util -->
<g id="node23" class="node">
<title>apr&#45;util</title>
<text text-anchor="middle" x="610.2" y="-342.44" font-family="Helvetica,sans-Serif" font-weight="bold" font-size="14.00" fill="#000000">apr&#45;util (296.2 kB)</text>
</g>
<!-- fedora&#45;logos&#45;httpd -->
<g id="node24" class="node">
<title>fedora&#45;logos&#45;httpd</title>
<text text-anchor="middle" x="106.85" y="-778.1" font-family="Helvetica,sans-Serif" font-weight="bold" font-size="14.00" fill="#000000">fedora&#45;logos&#45;httpd (10.0 kB)</text>
</g>
<!-- httpd -->
<g id="node25" class="node">
<title>httpd</title>
<text text-anchor="middle" x="512.77" y="-574.62" font-family="Helvetica,sans-Serif" font-weight="bold" font-size="22.00" fill="#cc0066">httpd (5.0 MB)</text>
</g>
<!-- httpd&#45;filesystem -->
<g id="node26" class="node">
<title>httpd&#45;filesystem</title>
<text text-anchor="middle" x="673.14" y="-528.25" font-family="Helvetica,sans-Serif" font-weight="bold" font-size="14.00" fill="#000000">httpd&#45;filesystem (400.0 B)</text>
</g>
<!-- httpd&#45;tools -->
<g id="node27" class="node">
<title>httpd&#45;tools</title>
<text text-anchor="middle" x="499.52" y="-412.58" font-family="Helvetica,sans-Serif" font-weight="bold" font-size="14.00" fill="#000000">httpd&#45;tools (228.6 kB)</text>
</g>
<!-- mailcap -->
<g id="node28" class="node">
<title>mailcap</title>
<text text-anchor="middle" x="58" y="-542.29" font-family="Helvetica,sans-Serif" font-weight="bold" font-size="14.00" fill="#000000">mailcap (71.2 kB)</text>
</g>
<!-- mod_http2 -->
<g id="node29" class="node">
<title>mod_http2</title>
<text text-anchor="middle" x="587.51" y="-747.22" font-family="Helvetica,sans-Serif" font-weight="bold" font-size="14.00" fill="#000000">mod_http2 (436.7 kB)</text>
</g>
<!-- libpcap -->
<g id="node30" class="node">
<title>libpcap</title>
<text text-anchor="middle" x="1496.8" y="-391.54" font-family="Helvetica,sans-Serif" font-weight="bold" font-size="14.00" fill="#000000">libpcap (417.1 kB)</text>
</g>
</g>

<script type="text/javascript"><![CDATA[

document.addEventListener('click', function(e) {
      e = e || window.event;
      var target = e.target || e.srcElement;
      text = target.parentElement.querySelector("title").textContent;

      console.log("Clicked on: " + text);
      // reset all strokes
      var nodes = document.getElementsByClassName("edge");

      for (index = 0, len = nodes.length; index < len; ++index) {
          //var title = nodes[index].querySelector("title").textContent.split("->");
          id = nodes[index].id;
          document.getElementById(id).querySelector("path").setAttribute("stroke-width", "1");
          document.getElementById(id).querySelector("path").setAttribute("stroke-opacity", "0.5");
          document.getElementById(id).querySelector("path").setAttribute("stroke", "#444444");
          document.getElementById(id).querySelector("polygon").setAttribute("stroke-width", "1");
          document.getElementById(id).querySelector("polygon").setAttribute("stroke-opacity", "0.5");
          document.getElementById(id).querySelector("polygon").setAttribute("stroke", "#444444");
      }
      // reset text highlight
      pkgs = document.getElementsByClassName("node");
      for (index2 = 0, len2 = pkgs.length; index2 < len2; ++index2) {
          target_id = pkgs[index2].id;
          document.getElementById(target_id).querySelector("text").setAttribute("font-weight", "normal");
      }

      // highlight deps
      var nodes = document.getElementsByClassName("edge");
      for (index = 0, len = nodes.length; index < len; ++index) {
        var title = nodes[index].querySelector("title").textContent.split("->");

        if (title[0] == text) {
          id = nodes[index].id;
          //console.log("ID:   " + id);
          document.getElementById(id).querySelector("path").setAttribute("stroke-width", "3");
          document.getElementById(id).querySelector("path").setAttribute("stroke-opacity", "1");
          document.getElementById(id).querySelector("path").setAttribute("stroke", "#aa3333");
          document.getElementById(id).querySelector("polygon").setAttribute("stroke-width", "5");
          document.getElementById(id).querySelector("polygon").setAttribute("stroke-opacity", "1");
          document.getElementById(id).querySelector("polygon").setAttribute("stroke", "#aa3333");

        }
        if (title[1] == text) {
          id = nodes[index].id;
          document.getElementById(id).querySelector("path").setAttribute("stroke-width", "3");
          document.getElementById(id).querySelector("path").setAttribute("stroke-opacity", "1");
          document.getElementById(id).querySelector("path").setAttribute("stroke", "#333377");
          document.getElementById(id).querySelector("polygon").setAttribute("stroke-width", "5");
          document.getElementById(id).querySelector("polygon").setAttribute("stroke-opacity", "1");
          document.getElementById(id).querySelector("polygon").setAttribute("stroke", "#333377");
        }

        if (title[0] == text || title[1] == text) {
          pkgs = document.getElementsByClassName("node");
          for (index2 = 0, len2 = pkgs.length; index2 < len2; ++index2) {
            var pkg_name = pkgs[index2].querySelector("title").textContent;
            if (pkg_name == title[0] || pkg_name == title[1]) {
              target_id = pkgs[index2].id;
              document.getElementById(target_id).querySelector("text").setAttribute("font-weight", "bold");
            }
          }
        }
      }


  }, false);

]]></script>

</svg>
