<?xml version="1.0" encoding="UTF-8" standalone="no"?>
<!DOCTYPE svg PUBLIC "-//W3C//DTD SVG 1.1//EN"
 "http://www.w3.org/Graphics/SVG/1.1/DTD/svg11.dtd">
<!-- Generated by graphviz version 2.40.1 (0)
 -->
<!-- Title: packages Pages: 1 -->
<svg width="1828pt" height="1160pt"
 viewBox="0.00 0.00 2193.91 1392.18" xmlns="http://www.w3.org/2000/svg" xmlns:xlink="http://www.w3.org/1999/xlink">
<g id="graph0" class="graph" transform="scale(.8333 .8333) rotate(0) translate(113.356 1245.9222)">
<title>packages</title>
<polygon fill="#dae2ff" stroke="transparent" points="-113.356,146.261 -113.356,-1245.9222 2080.5574,-1245.9222 2080.5574,146.261 -113.356,146.261"/>
<polygon fill="#d8d6da" stroke="#d8d6da" points="1257.4897,-340.2193 1252.8801,-339.6162 1247.0813,-339.0495 1243.3605,-338.809 1237.1135,-338.6113 1238.4634,-255.4516 1243.6497,-253.8836 1247.4362,-250.4563 1243.8042,-247.3775 1238.7563,-245.9267 1238.7563,-245.9267 1243.8042,-247.3775 1247.4362,-250.4563 1243.6497,-253.8836 1238.4634,-255.4516 1237.1135,-338.6113 1236.9508,-338.6115 1235.998,-338.5804 1233.3678,-338.5814 1226.1802,-338.8224 1222.2756,-338.8201 1220.7157,-338.9227 1213.0179,-338.9032 1207.9667,-338.7176 1207.7332,-338.7167 1205.2356,-338.6227 1200.2365,-338.6002 1194.9946,-338.3978 1192.4164,-338.2104 1181.5863,-337.0523 1175.6559,-336.0136 1175.2823,-336.6081 1163.0399,-354.7246 1157.4635,-362.2612 1141.6061,-386.3261 1127.6785,-416.6191 1118.9249,-432.2771 1118.5728,-432.822 1097.6923,-461.0419 1085.276,-480.7108 1082.9196,-484.6963 1081.174,-487.8461 1165.8197,-545.7819 1178.3466,-554.8146 1180.0638,-556.113 1181.9785,-557.6292 1188.7574,-563.2453 1204.1417,-577.1299 1208.2125,-580.4993 1215.0001,-586.7885 1215.0323,-597.517 1214.1089,-622.4913 1213.5757,-631.8658 1060.5835,-599.9897 1063.6202,-646.4224 1061.6667,-646.6145 1061.5676,-656.2897 1057.7479,-698.1213 1054.0522,-698.1213 1052.8124,-698.4902 1047.8699,-698.4902 1047.8295,-698.4783 1043.5464,-698.4783 1036.6835,-760.266 1035.9652,-742.2672 1037.438,-701.201 1040.6869,-698.2521 1036.4512,-694.3525 1032.6519,-693.2843 1032.6519,-693.2843 1036.4512,-694.3525 1040.6869,-698.2521 1037.438,-701.201 1035.9652,-742.2672 1036.6835,-760.266 1043.5464,-698.4783 1047.8295,-698.4783 1047.8699,-698.4902 1052.8124,-698.4902 1054.0522,-698.1213 1057.7479,-698.1213 1061.5676,-656.2897 1061.6667,-646.6145 1063.6202,-646.4224 1060.5835,-599.9897 1213.5757,-631.8658 1213.5687,-632.0554 1224.6307,-675.7039 1234.0155,-707.4226 1217.1405,-741.2413 1181.0476,-817.4968 1190.4734,-837.8101 1194.4133,-847.3107 1202.7848,-868.7756 1183.572,-953.3144 1183.4219,-954.0923 1180.8567,-974.5068 1176.0872,-1004.2489 1175.1483,-1008.38 1200.5603,-1069.3082 1208.4275,-1086.6183 1239.9305,-1146.4528 1169.7107,-1229.522 1145.0474,-1241.9222 1103.7123,-1230.899 1085.0228,-1226.6412 1092.5389,-1081.0183 1096.0273,-1081.0183 1096.0273,-1081.0183 1092.5389,-1081.0183 1085.0228,-1226.6412 1081.6718,-1225.944 1077.7509,-1225.2821 1075.3472,-1138.3704 1076.6947,-1085.0426 1081.4366,-1082.2635 1082.9657,-1080.424 1082.0632,-1079.4038 1076.4211,-1076.1403 1071.7043,-1076.1403 1071.7043,-1076.1403 1076.4211,-1076.1403 1082.0632,-1079.4038 1082.9657,-1080.424 1081.4366,-1082.2635 1076.6947,-1085.0426 1075.3472,-1138.3704 1077.7509,-1225.2821 1063.1351,-1223.3838 1050.5397,-1222.2406 1049.62,-1222.1931 1008.689,-1220.8798 982.4804,-1209.0544 915.0652,-1172.7247 924.3575,-1080.7 924.39,-1079.3987 926.3054,-1054.2858 1005.0276,-1023.8071 1005.5239,-990.4178 1009.3538,-954.4534 1009.8779,-954.0411 1013.7372,-954.0411 1014.0615,-954.1328 1018.7208,-954.1328 1019.5397,-953.9054 1022.9338,-953.9054 1026.3971,-994.1292 1029.5061,-954.0784 1033.4034,-954.0784 1033.5796,-954.1279 1035.7682,-1017.6346 1045.0635,-1017.0726 1043.6199,-994.9669 1044.1157,-958.1289 1049.1853,-958.1289 1049.1853,-958.1289 1044.1157,-958.1289 1043.6199,-994.9669 1045.0635,-1017.0726 1035.7682,-1017.6346 1033.5796,-954.1279 1033.4034,-954.0784 1029.5061,-954.0784 1026.3971,-994.1292 1022.9338,-953.9054 1019.5397,-953.9054 1018.7208,-954.1328 1014.0615,-954.1328 1013.7372,-954.0411 1012.8801,-911.0612 1007.7308,-950.4586 1003.6191,-947.5802 982.6514,-949.7042 932.2281,-946.5184 932.7571,-945.9476 933.5174,-894.8088 936.9695,-873.5901 940.6125,-872.606 945.0577,-868.6934 940.6304,-864.8381 937.0588,-863.8804 937.0588,-863.8804 940.6304,-864.8381 945.0577,-868.6934 940.6125,-872.606 936.9695,-873.5901 933.5174,-894.8088 932.7571,-945.9476 932.2281,-946.5184 982.6514,-949.7042 1003.6191,-947.5802 1007.7308,-950.4586 1012.8801,-911.0612 1013.7372,-954.0411 1009.8779,-954.0411 1009.3538,-954.4534 1005.5239,-990.4178 1005.0276,-1023.8071 926.3054,-1054.2858 908.6307,-1016.8789 895.1106,-985.9244 902.048,-977.5637 902.9919,-906.162 902.9919,-906.162 902.048,-977.5637 895.1106,-985.9244 908.6307,-1016.8789 926.3054,-1054.2858 924.39,-1079.3987 924.3575,-1080.7 915.0652,-1172.7247 849.6049,-1200.4194 810.944,-1201.8107 790.4028,-1202.9596 768.0139,-1205.9954 767.6584,-1206.0505 749.0941,-1210.0446 750.641,-1138.6929 750.641,-1138.6929 749.0941,-1210.0446 711.4547,-1219.6327 606.1815,-1114.2509 592.7368,-1094.3707 588.6221,-1080.9772 561.3778,-1003.0107 554.2839,-996.7519 545.9545,-987.5768 596.3937,-863.49 613.5264,-808.0618 617.9338,-795.2167 618.8955,-794.7156 623.507,-792.4618 637.2616,-786.614 648.6305,-782.5159 654.3399,-780.6451 705.7321,-787.9722 707.28,-788.1314 709.8554,-788.2947 713.9429,-863.446 710.3716,-863.446 708.366,-866.4908 706.9256,-932.4442 706.9693,-934.4772 714.3939,-863.5773 717.7425,-863.5773 718.5945,-863.8251 723.4172,-863.8251 726.0913,-914.2438 729.6132,-865.5665 734.2975,-868.1709 734.2975,-868.1709 729.6132,-865.5665 726.0913,-914.2438 723.4172,-863.8251 718.5945,-863.8251 717.7425,-863.5773 714.3939,-863.5773 706.9693,-934.4772 706.9256,-932.4442 708.366,-866.4908 710.3716,-863.446 713.9429,-863.446 709.8554,-788.2947 721.8782,-788.5829 724.8993,-788.894 728.1039,-788.9692 732.9521,-788.8911 735.1118,-788.7709 735.8325,-788.702 741.6429,-788.6054 744.1122,-788.6616 748.836,-788.5818 753.2927,-788.6823 755.9213,-788.6373 757.6057,-788.5419 757.9053,-788.5367 758.3451,-788.5637 761.5411,-788.6332 772.0598,-788.4449 773.5406,-788.4768 774.8262,-788.5551 838.6856,-789.9106 886.3875,-747.4406 885.4185,-733.8957 885.1718,-718.5184 884.4816,-702.9324 884.3759,-701.4749 867.9736,-678.6371 819.9577,-606.8954 822.9938,-603.6796 828.2996,-598.5878 830.0176,-596.7258 833.1373,-593.5189 837.2948,-589.4728 839.7825,-587.1866 851.4708,-575.6786 923.1179,-509.7493 927.5247,-505.4029 937.7331,-496.0674 947.455,-486.0667 945.1588,-594.369 945.3235,-594.4169 949.8381,-594.4169 950.41,-594.588 955.7344,-594.588 957.0303,-594.9796 960.863,-594.9796 962.1381,-594.6066 965.5024,-594.6066 965.5024,-594.6066 962.1381,-594.6066 960.863,-594.9796 957.0303,-594.9796 955.7344,-594.588 950.41,-594.588 949.8381,-594.4169 945.3235,-594.4169 945.1588,-594.369 947.455,-486.0667 951.3143,-481.8809 955.2777,-478.0536 960.6956,-471.9951 921.0526,-391.4077 907.3971,-366.9358 926.543,-356.1521 963.5061,-333.9874 976.0269,-327.0068 984.588,-322.9815 994.2241,-318.8738 997.9977,-317.435 1002.6022,-315.8839 1004.3743,-315.3652 1007.1104,-314.683 1011.742,-313.7278 1023.0303,-311.8873 1030.0278,-311.3581 1038.4135,-311.0905 1038.5361,-311.0919 1045.5115,-310.8579 1054.8435,-310.1213 1058.1503,-309.5615 1066.3909,-307.789 1071.9257,-306.3468 1072.2064,-374.783 1077.1759,-377.6877 1078.6135,-379.4215 1077.8477,-380.3347 1071.8251,-384.0031 1067.2957,-384.0031 1067.2957,-384.0031 1071.8251,-384.0031 1077.8477,-380.3347 1078.6135,-379.4215 1077.1759,-377.6877 1072.2064,-374.783 1071.9257,-306.3468 1081.0654,-303.5499 1084.3118,-302.4117 1097.2095,-296.7113 1120.147,-284.5045 1121.0288,-266.1202 1121.301,-243.0803 1121.2839,-242.8 1122.158,-224.579 1105.3723,-211.0463 1034.0896,-158.0054 1021.3477,-147.0984 1021.1274,-146.8728 1008.1601,-135.3185 996.7095,-123.9791 989.1933,-115.7977 978.3134,-102.8559 973.89,-87.5746 954.1734,-24.7888 1052.8312,9.1029 1108.8137,11.7723 1110.157,11.8637 1127.8877,13.4326 1128.5331,13.5159 1139.5623,15.1652 1137.9525,-126.6097 1132.713,-128.1629 1129.0394,-131.488 1132.3063,-134.5201 1138.0305,-136.3376 1138.0305,-136.3376 1132.3063,-134.5201 1129.0394,-131.488 1132.713,-128.1629 1137.9525,-126.6097 1139.5623,15.1652 1144.5266,16.0085 1151.5328,17.341 1152.4756,-29.1717 1155.7592,-95.5228 1155.7592,-95.5228 1152.4756,-29.1717 1151.5328,17.341 1159.0027,19.2202 1176.3885,19.3173 1239.8541,20.8936 1272.1083,-.9951 1331.7869,-74.3352 1334.7482,-81.8079 1391.9261,-131.3436 1374.6606,-169.3011 1370.8979,-176.0154 1356.7828,-199.9416 1349.2157,-211.9877 1348.7681,-212.6523 1338.1171,-227.4175 1318.7308,-257.0893 1315.8544,-262.2029 1298.4569,-298.8859 1289.6078,-312.6652 1268.3796,-342.0935 1267.824,-341.9657 1266.2548,-341.6566 1257.4897,-340.2193 1257.4897,-340.2193"/>
<polygon fill="#bbd7d9" stroke="#bbd7d9" points="169.613,-202.3605 169.5019,-222.0024 168.028,-252.7146 166.428,-275.9031 216.3825,-351.9013 318.2639,-377.6011 334.5105,-382.7325 340.4277,-384.8506 347.5423,-387.548 348.5143,-293.3087 352.0658,-235.7058 348.0995,-232.1055 351.1988,-229.3449 351.1988,-229.3449 348.0995,-232.1055 352.0658,-235.7058 356.8671,-237.1063 356.8671,-237.1063 352.0658,-235.7058 348.5143,-293.3087 347.5423,-387.548 357.0367,-391.5508 366.3818,-395.8891 370.3959,-397.8379 376.6002,-392.4406 376.0919,-294.7315 372.6337,-232.3448 372.6337,-232.3448 376.0919,-294.7315 376.6002,-392.4406 370.3959,-397.8379 377.9241,-425.6429 378.9568,-429.7899 388.2937,-475.1426 394.4297,-497.5068 387.734,-545.1359 379.0049,-592.3998 373.6344,-618.5094 373.8475,-626.5594 432.2901,-652.647 436.683,-654.5028 449.1328,-659.4651 462.9608,-664.3052 466.9814,-665.5153 530.7848,-634.0783 531.2319,-620.3832 531.2319,-620.3832 530.7848,-634.0783 544.821,-628.4821 544.5201,-618.5552 544.5201,-618.5552 544.821,-628.4821 530.7848,-634.0783 466.9814,-665.5153 467.1383,-665.6906 471.9181,-671.6464 477.9312,-678.4535 481.3763,-682.1609 491.7116,-692.1758 501.8212,-701.4135 504.0466,-703.1945 513.0846,-709.9433 517.7851,-713.796 586.4894,-765.772 588.9086,-767.8923 593.7725,-685.1502 591.8666,-684.5818 590.7868,-684.5818 588.0101,-680.8526 583.1031,-678.2725 578.341,-622.7699 571.5829,-622.881 566.4505,-623.4537 565.8067,-564.8668 570.7195,-562.0729 572.2924,-560.254 571.1071,-558.9215 565.938,-555.9764 560.447,-555.9764 555.7633,-558.5638 555.3229,-494.33 556.8726,-494.2262 556.8019,-490.7171 558.4311,-431.8425 563.1259,-433.1767 569.1783,-431.3928 572.5614,-428.5949 568.8317,-425.3746 563.0338,-331.8076 562.5737,-317.8451 572.9293,-332.7089 580.4329,-342.2329 590.6256,-354.3223 593.4874,-357.4572 605.8813,-359.4107 657.8721,-364.303 654.7209,-307.9726 661.3485,-307.868 662.8422,-274.7182 662.8422,-274.7182 661.3485,-307.868 654.7209,-307.9726 657.8721,-364.303 605.8813,-359.4107 593.4874,-357.4572 590.6256,-354.3223 580.4329,-342.2329 572.9293,-332.7089 562.5737,-317.8451 563.0338,-331.8076 568.8317,-425.3746 572.5614,-428.5949 569.1783,-431.3928 563.1259,-433.1767 558.4311,-431.8425 556.8019,-490.7171 556.8726,-494.2262 555.3229,-494.33 555.7633,-558.5638 560.447,-555.9764 565.938,-555.9764 571.1071,-558.9215 569.5633,-494.561 573.647,-494.4736 573.647,-494.4736 569.5633,-494.561 571.1071,-558.9215 572.2924,-560.254 570.7195,-562.0729 565.8067,-564.8668 566.4505,-623.4537 571.5829,-622.881 578.341,-622.7699 583.1031,-678.2725 588.0101,-680.8526 588.6395,-622.4378 589.9957,-622.3474 585.496,-560.5742 587.1611,-560.0975 579.6348,-494.7378 588.6704,-494.1429 591.9697,-494.0747 591.8069,-476.9581 588.2149,-428.1633 588.6362,-428.0444 592.9888,-428.0444 593.5277,-427.1692 597.2118,-362.4468 599.4101,-365.1317 619.1301,-387.0322 658.0531,-374.7623 653.4692,-429.6017 668.8177,-446.5706 669.366,-447.2811 673.847,-373.6058 678.9728,-375.0669 683.7238,-373.7446 688.1768,-369.8945 684.0171,-366.3865 679.3855,-365.0909 679.3855,-365.0909 684.0171,-366.3865 684.5281,-307.852 685.8852,-307.7516 685.6185,-300.3755 685.6185,-300.3755 685.8852,-307.7516 686.2088,-307.7588 692.1277,-249.9069 695.9439,-250.9345 701.215,-281.6776 701.8853,-290.4459 701.9696,-307.9579 700.9174,-308.0419 699.8334,-364.4483 835.6679,-345.4043 836.8506,-346.391 835.6734,-202.3971 836.5269,-202.156 840.3662,-205.2717 846.2507,-206.9318 850.9561,-205.6666 855.0313,-202.3823 850.0699,-198.0108 846.6521,-197.0992 846.6521,-197.0992 850.0699,-198.0108 855.0313,-202.3823 850.9561,-205.6666 846.2507,-206.9318 840.3662,-205.2717 836.5269,-202.156 835.6734,-202.3971 836.8506,-346.391 835.6679,-345.4043 699.8334,-364.4483 700.9174,-308.0419 701.9696,-307.9579 701.8853,-290.4459 701.215,-281.6776 695.9439,-250.9345 692.1277,-249.9069 686.2088,-307.7588 685.8852,-307.7516 684.5281,-307.852 684.0171,-366.3865 688.1768,-369.8945 683.7238,-373.7446 678.9728,-375.0669 673.847,-373.6058 669.366,-447.2811 668.8177,-446.5706 653.4692,-429.6017 658.0531,-374.7623 619.1301,-387.0322 599.4101,-365.1317 597.2118,-362.4468 593.5277,-427.1692 592.9888,-428.0444 588.6362,-428.0444 588.2149,-428.1633 591.8069,-476.9581 591.9697,-494.0747 588.6704,-494.1429 579.6348,-494.7378 587.1611,-560.0975 585.496,-560.5742 589.9957,-622.3474 588.6395,-622.4378 588.0101,-680.8526 590.7868,-684.5818 591.8666,-684.5818 593.7725,-685.1502 588.9086,-767.8923 589.7022,-768.6386 594.0622,-772.4161 612.8272,-789.7963 615.698,-792.924 617.9338,-795.2167 618.8955,-794.7156 623.507,-792.4618 625.839,-726.8314 630.614,-684.8979 630.5227,-684.8712 630.5227,-684.8712 630.614,-684.8979 625.839,-726.8314 623.507,-792.4618 637.2616,-786.614 637.3521,-723.9749 634.0442,-684.8979 634.1086,-684.8792 636.8463,-649.5231 636.1437,-616.0947 649.0521,-610.7728 707.1797,-584.0427 710.5095,-582.6223 699.0792,-549.2119 687.7679,-508.2718 769.1708,-496.0299 788.5858,-496.6749 790.4637,-521.4193 787.1218,-602.3979 803.342,-604.0042 802.0512,-526.6567 802.0512,-526.6567 803.342,-604.0042 811.6607,-605.2437 811.7935,-533.262 808.7026,-491.7335 814.764,-495.2354 819.1377,-495.2354 819.1377,-495.2354 814.764,-495.2354 808.7026,-491.7335 811.7935,-533.262 811.6607,-605.2437 803.342,-604.0042 787.1218,-602.3979 790.4637,-521.4193 788.5858,-496.6749 769.1708,-496.0299 687.7679,-508.2718 699.0792,-549.2119 710.5095,-582.6223 707.1797,-584.0427 649.0521,-610.7728 636.1437,-616.0947 636.8463,-649.5231 634.1086,-684.8792 634.0442,-684.8979 637.3521,-723.9749 637.2616,-786.614 648.6305,-782.5159 654.3399,-780.6451 675.2148,-728.8092 675.2148,-728.8092 654.3399,-780.6451 705.7321,-787.9722 707.28,-788.1314 709.8554,-788.2947 721.8782,-788.5829 724.8993,-788.894 728.1039,-788.9692 732.9521,-788.8911 735.1118,-788.7709 735.8325,-788.702 735.5054,-768.5402 735.5054,-768.5402 735.8325,-788.702 741.6429,-788.6054 744.1122,-788.6616 748.836,-788.5818 753.2927,-788.6823 755.9213,-788.6373 757.6057,-788.5419 757.9053,-788.5367 759.5701,-748.9413 759.5701,-748.9413 757.9053,-788.5367 758.3451,-788.5637 761.5411,-788.6332 772.0598,-788.4449 773.5406,-788.4768 774.8262,-788.5551 838.6856,-789.9106 886.3875,-747.4406 885.4185,-733.8957 885.1718,-718.5184 884.4816,-702.9324 884.3759,-701.4749 867.9736,-678.6371 819.9577,-606.8954 822.9938,-603.6796 828.2996,-598.5878 830.0176,-596.7258 833.1373,-593.5189 837.2948,-589.4728 839.7825,-587.1866 851.4708,-575.6786 923.1179,-509.7493 927.5247,-505.4029 937.7331,-496.0674 947.455,-486.0667 951.3143,-481.8809 955.2777,-478.0536 960.6956,-471.9951 921.0526,-391.4077 907.3971,-366.9358 868.8746,-347.0844 870.1477,-343.8834 869.1471,-253.2748 871.6347,-202.1144 873.8889,-202.1144 873.8889,-202.1144 871.6347,-202.1144 869.1471,-253.2748 870.1477,-343.8834 868.8746,-347.0844 907.3971,-366.9358 926.543,-356.1521 963.5061,-333.9874 968.9159,-249.1938 968.9159,-249.1938 963.5061,-333.9874 976.0269,-327.0068 984.588,-322.9815 994.2241,-318.8738 997.9977,-317.435 1002.6022,-315.8839 1004.3743,-315.3652 1007.1104,-314.683 1011.742,-313.7278 1023.0303,-311.8873 1030.0278,-311.3581 1038.4135,-311.0905 1038.5361,-311.0919 1045.5115,-310.8579 1054.8435,-310.1213 1058.1503,-309.5615 1066.3909,-307.789 1071.9257,-306.3468 1081.0654,-303.5499 1084.3118,-302.4117 1097.2095,-296.7113 1120.147,-284.5045 1121.0288,-266.1202 1121.301,-243.0803 1121.2839,-242.8 1122.158,-224.579 1105.3723,-211.0463 1034.0896,-158.0054 1021.3477,-147.0984 1021.1274,-146.8728 1008.1601,-135.3185 996.7095,-123.9791 989.1933,-115.7977 978.3134,-102.8559 973.89,-87.5746 954.1734,-24.7888 947.2648,-22.1152 928.3727,7.0864 885.9333,75.4 797.2485,121.6369 763.3743,134.212 749.4854,139.9631 746.6587,141.1931 743.8299,18.3066 739.9802,-13.5718 736.4316,-15.5567 734.1993,-18.3356 735.3113,-19.619 739.9714,-22.2938 746.1575,-22.2938 746.1575,-22.2938 739.9714,-22.2938 735.3113,-19.619 734.1993,-18.3356 736.4316,-15.5567 739.9802,-13.5718 743.8299,18.3066 746.6587,141.1931 744.4245,142.261 726.0358,137.9317 723.9661,137.5228 689.2645,131.3196 672.2247,121.1136 609.4039,71.1145 574.77,-6.9578 557.4912,-41.9769 536.3558,-82.9095 482.8031,-71.026 446.3996,-73.5487 402.0558,-83.4365 392.9796,-85.2786 380.8136,-87.2595 363.4117,-89.0454 354.9776,-89.7409 343.4958,-89.9948 339.0086,-90.0039 338.9827,-90.0029 325.8582,-91.3124 322.6999,-91.4986 315.8829,-91.762 235.2467,-93.2341 202.9879,-137.1359 169.613,-202.3605 169.613,-202.3605"/>
<polygon fill="#fed9a6" stroke="#fed9a6" points="2071.1445,-551.1896 2074.1729,-527.8871 2076.3081,-513.7816 2076.5574,-511.2238 2057.8435,-479.2271 1990.8488,-406.4355 1925.4677,-400.2081 1924.7882,-400.1296 1908.4841,-397.5826 1907.6962,-397.4276 1902.2681,-398.0804 1886.7231,-399.3304 1887.2751,-453.3707 1885.3053,-538.897 1880.1959,-541.8469 1878.8324,-543.4405 1880.1588,-545.0075 1885.3114,-548.023 1885.3114,-548.023 1880.1588,-545.0075 1878.8324,-543.4405 1880.1959,-541.8469 1885.3053,-538.897 1887.2751,-453.3707 1886.7231,-399.3304 1877.236,-399.7137 1871.325,-399.8344 1860.1907,-399.6167 1839.0613,-397.9365 1834.259,-397.4592 1780.1233,-398.5001 1688.9135,-425.8935 1594.166,-308.188 1498.2769,-362.8464 1492.536,-365.9146 1487.8048,-368.1101 1473.0835,-374.43 1474.8531,-433.0762 1478.9733,-463.0571 1482.3151,-465.7914 1477.9663,-469.5394 1472.9423,-470.9576 1468.4995,-469.7131 1468.4995,-469.7131 1472.9423,-470.9576 1477.9663,-469.5394 1482.3151,-465.7914 1478.9733,-463.0571 1474.8531,-433.0762 1473.0835,-374.43 1487.8048,-368.1101 1492.536,-365.9146 1498.2769,-362.8464 1594.166,-308.188 1593.4888,-304.5311 1592.9335,-300.8267 1587.1237,-256.9287 1450.5953,-148.7792 1409.7043,-136.8432 1410.2411,-209.0325 1410.9476,-227.5589 1410.9476,-227.5589 1410.2411,-209.0325 1409.7043,-136.8432 1406.4603,-135.7176 1401.9237,-134.4782 1399.3977,-231.1982 1400.5118,-303.2952 1395.5846,-303.2952 1394.5392,-302.9782 1390.9624,-302.9782 1389.6604,-301.4853 1385.2256,-298.9842 1379.4403,-298.9842 1374.1222,-302.2491 1374.1222,-302.2491 1379.4403,-298.9842 1385.2256,-298.9842 1389.6604,-301.4853 1390.9624,-302.9782 1394.5392,-302.9782 1395.5846,-303.2952 1400.5118,-303.2952 1399.3977,-231.1982 1401.9237,-134.4782 1394.5605,-132.2042 1391.9261,-131.3436 1374.6606,-169.3011 1370.8979,-176.0154 1356.7828,-199.9416 1349.2157,-211.9877 1348.7681,-212.6523 1338.1171,-227.4175 1318.7308,-257.0893 1315.8544,-262.2029 1298.4569,-298.8859 1289.6078,-312.6652 1268.3796,-342.0935 1267.824,-341.9657 1266.2548,-341.6566 1257.4897,-340.2193 1252.8801,-339.6162 1247.0813,-339.0495 1243.3605,-338.809 1237.1135,-338.6113 1236.9508,-338.6115 1235.998,-338.5804 1233.3678,-338.5814 1226.1802,-338.8224 1222.2756,-338.8201 1220.7157,-338.9227 1213.0179,-338.9032 1207.9667,-338.7176 1207.7332,-338.7167 1205.2356,-338.6227 1200.2365,-338.6002 1194.9946,-338.3978 1192.4164,-338.2104 1181.5863,-337.0523 1175.6559,-336.0136 1175.2823,-336.6081 1163.0399,-354.7246 1157.4635,-362.2612 1141.6061,-386.3261 1127.6785,-416.6191 1118.9249,-432.2771 1118.5728,-432.822 1097.6923,-461.0419 1085.276,-480.7108 1082.9196,-484.6963 1081.174,-487.8461 1165.8197,-545.7819 1178.3466,-554.8146 1180.0638,-556.113 1181.9785,-557.6292 1188.7574,-563.2453 1204.1417,-577.1299 1208.2125,-580.4993 1215.0001,-586.7885 1215.0323,-597.517 1214.1089,-622.4913 1213.5757,-631.8658 1213.5687,-632.0554 1224.6307,-675.7039 1234.0155,-707.4226 1217.1405,-741.2413 1181.0476,-817.4968 1190.4734,-837.8101 1194.4133,-847.3107 1202.7848,-868.7756 1183.572,-953.3144 1183.4219,-954.0923 1180.8567,-974.5068 1176.0872,-1004.2489 1175.1483,-1008.38 1200.5603,-1069.3082 1208.4275,-1086.6183 1239.9305,-1146.4528 1268.9668,-1141.1392 1286.5944,-1138.2523 1286.6578,-1129.1866 1286.3251,-1123.0531 1286.3251,-1123.0531 1286.6578,-1129.1866 1286.9083,-1123.948 1292.2245,-1047.0649 1298.5112,-997.8511 1302.5275,-998.9644 1308.4255,-997.2187 1312.2874,-993.8837 1308.5808,-990.8239 1303.0229,-989.2311 1303.0229,-989.2311 1308.5808,-990.8239 1312.2874,-993.8837 1308.4255,-997.2187 1302.5275,-998.9644 1306.6333,-1034.8239 1308.724,-1097.3771 1313.7389,-994.3044 1317.4375,-994.3044 1323.6558,-1047.0455 1327.212,-1106.9063 1328.2242,-1081.4366 1328.2242,-1081.4366 1327.212,-1106.9063 1323.6558,-1047.0455 1317.4375,-994.3044 1313.7389,-994.3044 1308.724,-1097.3771 1306.6333,-1034.8239 1302.5275,-998.9644 1298.5112,-997.8511 1292.2245,-1047.0649 1286.9083,-1123.948 1286.6578,-1129.1866 1286.5944,-1138.2523 1308.9626,-1136.7482 1327.5038,-1136.5765 1373.4999,-1139.7029 1467.7092,-1092.719 1487.7087,-997.4778 1490.2709,-987.3012 1333.924,-988.1033 1333.8986,-917.5499 1336.5219,-917.5315 1348.1359,-917.9139 1350.0845,-918.0555 1352.8462,-918.3661 1353.1648,-918.4147 1363.6522,-920.4391 1371.0115,-922.1558 1370.5767,-845.6982 1375.4879,-845.6982 1382.1681,-841.6111 1382.7325,-840.9574 1382.4813,-840.6679 1375.8674,-836.5593 1375.8674,-836.5593 1382.4813,-840.6679 1382.7325,-840.9574 1382.1681,-841.6111 1375.4879,-845.6982 1370.5767,-845.6982 1371.0115,-922.1558 1379.5455,-924.4877 1393.1169,-929.2787 1393.3749,-929.3798 1395.079,-930.1149 1395.079,-930.1149 1393.3749,-929.3798 1393.1169,-929.2787 1379.5455,-924.4877 1371.0115,-922.1558 1363.6522,-920.4391 1353.1648,-918.4147 1352.8462,-918.3661 1350.0845,-918.0555 1348.1359,-917.9139 1336.5219,-917.5315 1333.8986,-917.5499 1333.924,-988.1033 1490.2709,-987.3012 1491.5712,-982.5317 1584.5389,-889.8338 1572.2894,-840.98 1569.6052,-827.0166 1509.0366,-787.6828 1492.6273,-778.1474 1493.3735,-709.3093 1490.3151,-671.5195 1486.3477,-671.5195 1485.0804,-671.1358 1481.5062,-671.1358 1480.5383,-672.2852 1475.0201,-675.6016 1469.752,-675.6016 1464.1216,-672.2307 1463.2855,-671.2514 1459.5162,-671.2514 1458.6754,-670.999 1454.1237,-670.999 1454.0851,-670.9874 1452.9166,-637.4738 1447.0725,-638.4932 1444.3317,-638.6624 1440.0264,-638.4465 1440.2979,-611.7679 1435.0133,-607.0709 1435.3661,-638.4025 1427.8762,-638.8194 1426.5748,-639.0319 1417.833,-641.4243 1417.7788,-639.6658 1413.2644,-606.0298 1410.0854,-608.6884 1410.0854,-608.6884 1413.2644,-606.0298 1413.54,-605.6145 1409.3337,-602.1813 1404.5963,-600.8843 1404.5963,-600.8843 1409.3337,-602.1813 1413.54,-605.6145 1413.2644,-606.0298 1417.7788,-639.6658 1417.833,-641.4243 1426.5748,-639.0319 1427.8762,-638.8194 1435.3661,-638.4025 1435.0133,-607.0709 1440.2979,-611.7679 1440.0264,-638.4465 1444.3317,-638.6624 1447.0725,-638.4932 1452.9166,-637.4738 1454.0851,-670.9874 1454.1237,-670.999 1458.6754,-670.999 1459.5162,-671.2514 1463.2855,-671.2514 1464.1216,-672.2307 1469.752,-675.6016 1475.0201,-675.6016 1480.5383,-672.2852 1481.5062,-671.1358 1480.3525,-669.7701 1475.4517,-666.8757 1475.4517,-666.8757 1480.3525,-669.7701 1481.5062,-671.1358 1485.0804,-671.1358 1486.3477,-671.5195 1490.3151,-671.5195 1493.3735,-709.3093 1492.6273,-778.1474 1509.0366,-787.6828 1505.7513,-712.8195 1505.7513,-712.8195 1509.0366,-787.6828 1569.6052,-827.0166 1572.2894,-840.98 1584.5389,-889.8338 1672.2949,-918.4656 1723.2808,-912.0353 1729.3187,-911.3892 1733.4949,-911.1016 1743.1287,-910.6218 1744.7179,-910.5729 1749.4578,-791.6911 1753.9889,-766.2885 1758.061,-768.5529 1762.8469,-768.5529 1768.6378,-765.1212 1769.9346,-763.5918 1768.7708,-762.2916 1763.7075,-759.4232 1763.7075,-759.4232 1768.7708,-762.2916 1769.9346,-763.5918 1768.6378,-765.1212 1762.8469,-768.5529 1758.061,-768.5529 1753.9889,-766.2885 1749.4578,-791.6911 1744.7179,-910.5729 1758.4817,-910.6754 1769.8727,-910.9779 1779.0004,-911.7431 1779.0797,-763.7543 1779.0814,-763.7538 1783.6084,-763.7538 1793.3917,-888.887 1792.7887,-830.1011 1792.7887,-830.1011 1793.3917,-888.887 1783.6084,-763.7538 1779.0814,-763.7538 1779.0797,-763.7543 1779.0004,-911.7431 1793.6836,-913.2545 1794.0709,-913.2238 1832.8986,-913.0494 1895.476,-895.0647 1946.8844,-763.84 1968.2397,-717.97 2057.5623,-685.3149 2060.3469,-675.9221 2071.1445,-551.1896 2071.1445,-551.1896"/>
<polygon fill="#fbb4ae" stroke="#fbb4ae" points="513.0846,-709.9433 517.7851,-713.796 586.4894,-765.772 588.9086,-767.8923 589.7022,-768.6386 594.0622,-772.4161 612.8272,-789.7963 615.698,-792.924 617.9338,-795.2167 613.5264,-808.0618 596.3937,-863.49 545.9545,-987.5768 519.2771,-979.6365 515.9477,-978.6959 495.5163,-973.2334 490.4632,-972.0383 490.4278,-972.0304 488.6593,-971.6663 477.5983,-969.5568 471.3545,-968.4617 455.2424,-966.1287 448.2579,-965.2249 442.6241,-964.7551 439.6049,-964.5496 317.4682,-958.1005 301.5456,-996.0435 279.3745,-1054.3809 253.8821,-1125.6188 199.5209,-1149.3438 125.0522,-1156.853 112.9305,-1158.5664 102.2756,-1160.2876 88.8834,-1162.9899 88.558,-1163.0685 83,-1164.5247 81.4356,-1164.9982 64.0606,-1162.9658 53.2938,-1162.3273 45.1711,-1162.0015 -16.6451,-1161.896 -51.4404,-1154.2174 -94.2584,-1131.1241 -95.9188,-1128.2429 -106.7869,-1017 -4.0613,-1017 18.202,-1018.4456 44.3132,-1023.377 49.8686,-1019.5333 51.5359,-1017.006 54.8986,-1017.006 55.0648,-1016.9587 59.0143,-1016.9587 59.0143,-1016.9587 55.0648,-1016.9587 54.8986,-1017.006 51.5359,-1017.006 49.8686,-1019.5333 44.3132,-1023.377 18.202,-1018.4456 -4.0613,-1017 -106.7869,-1017 -109.356,-1000.8654 -109.198,-997.3417 -53.4012,-890.1325 35.3576,-868.0511 52.9883,-863.3138 66.3652,-859.196 71.185,-857.4298 82.5613,-853.0355 91.6239,-849.1787 97.0708,-848.3275 103.3621,-847.0253 114.9194,-846.7303 119.7478,-846.4505 193.626,-839.7698 238.4545,-842.2505 261.8297,-791.0518 263.5555,-787.0906 263.6335,-786.9025 274.739,-758.7488 347.4436,-654.9615 373.8475,-626.5594 432.2901,-652.647 436.683,-654.5028 449.1328,-659.4651 462.9608,-664.3052 466.9814,-665.5153 467.1383,-665.6906 471.9181,-671.6464 477.9312,-678.4535 477.363,-783.9129 472.3982,-783.9129 472.3982,-783.9129 477.363,-783.9129 477.9312,-678.4535 481.3763,-682.1609 491.7116,-692.1758 501.8212,-701.4135 504.0466,-703.1945 513.0846,-709.9433 513.0846,-709.9433"/>
<polyline fill="none" stroke="#000000" points="921.0526,-391.4077 907.3971,-366.9358 926.543,-356.1521 963.5061,-333.9874 976.0269,-327.0068 984.588,-322.9815 994.2241,-318.8738 997.9977,-317.435 1002.6022,-315.8839 1004.3743,-315.3652 1007.1104,-314.683 1011.742,-313.7278 1023.0303,-311.8873 1030.0278,-311.3581 1038.4135,-311.0905 1038.5361,-311.0919 1045.5115,-310.8579 1054.8435,-310.1213 1058.1503,-309.5615 1066.3909,-307.789 1071.9257,-306.3468 1081.0654,-303.5499 1084.3118,-302.4117 1097.2095,-296.7113 1120.147,-284.5045 1121.0288,-266.1202 1121.301,-243.0803 1121.2839,-242.8 1122.158,-224.579 1105.3723,-211.0463 1034.0896,-158.0054 1021.3477,-147.0984 1021.1274,-146.8728 1008.1601,-135.3185 996.7095,-123.9791 989.1933,-115.7977 978.3134,-102.8559 973.89,-87.5746 954.1734,-24.7888 1052.8312,9.1029 1108.8137,11.7723 1110.157,11.8637 1127.8877,13.4326 1128.5331,13.5159 1139.5623,15.1652 1144.5266,16.0085 1151.5328,17.341 1159.0027,19.2202 1176.3885,19.3173 1239.8541,20.8936 1272.1083,-.9951 1331.7869,-74.3352 1334.7482,-81.8079 1391.9261,-131.3436 1374.6606,-169.3011 1370.8979,-176.0154 1356.7828,-199.9416 1349.2157,-211.9877 1348.7681,-212.6523 1338.1171,-227.4175 1318.7308,-257.0893 1315.8544,-262.2029 1298.4569,-298.8859 1289.6078,-312.6652 1268.3796,-342.0935 1267.824,-341.9657 1266.2548,-341.6566 1257.4897,-340.2193 1252.8801,-339.6162 1247.0813,-339.0495 1243.3605,-338.809 1237.1135,-338.6113 1236.9508,-338.6115 1235.998,-338.5804 1233.3678,-338.5814 1226.1802,-338.8224 1222.2756,-338.8201 1220.7157,-338.9227 1213.0179,-338.9032 1207.9667,-338.7176 1207.7332,-338.7167 1205.2356,-338.6227 1200.2365,-338.6002 1194.9946,-338.3978 1192.4164,-338.2104 1181.5863,-337.0523 1175.6559,-336.0136 1175.2823,-336.6081 1163.0399,-354.7246 1157.4635,-362.2612 1141.6061,-386.3261 1127.6785,-416.6191 1118.9249,-432.2771 1118.5728,-432.822 1097.6923,-461.0419 1085.276,-480.7108 1082.9196,-484.6963 1081.174,-487.8461 1165.8197,-545.7819 1178.3466,-554.8146 1180.0638,-556.113 1181.9785,-557.6292 1188.7574,-563.2453 1204.1417,-577.1299 1208.2125,-580.4993 1215.0001,-586.7885 1215.0323,-597.517 1214.1089,-622.4913 1213.5757,-631.8658 1213.5687,-632.0554 1224.6307,-675.7039 1234.0155,-707.4226 1217.1405,-741.2413 1181.0476,-817.4968 1190.4734,-837.8101 1194.4133,-847.3107 1202.7848,-868.7756 1183.572,-953.3144 1183.4219,-954.0923 1180.8567,-974.5068 1176.0872,-1004.2489 1175.1483,-1008.38 1200.5603,-1069.3082 1208.4275,-1086.6183 1239.9305,-1146.4528 1169.7107,-1229.522 1145.0474,-1241.9222 1103.7123,-1230.899 1085.0228,-1226.6412 1081.6718,-1225.944 1077.7509,-1225.2821 1063.1351,-1223.3838 1050.5397,-1222.2406 1049.62,-1222.1931 1008.689,-1220.8798 982.4804,-1209.0544 915.0652,-1172.7247 849.6049,-1200.4194 810.944,-1201.8107 790.4028,-1202.9596 768.0139,-1205.9954 767.6584,-1206.0505 749.0941,-1210.0446 711.4547,-1219.6327 606.1815,-1114.2509 592.7368,-1094.3707 588.6221,-1080.9772 561.3778,-1003.0107 554.2839,-996.7519 545.9545,-987.5768 596.3937,-863.49 613.5264,-808.0618 617.9338,-795.2167 618.8955,-794.7156 623.507,-792.4618 637.2616,-786.614 648.6305,-782.5159 654.3399,-780.6451 705.7321,-787.9722 707.28,-788.1314 709.8554,-788.2947 721.8782,-788.5829 724.8993,-788.894 728.1039,-788.9692 732.9521,-788.8911 735.1118,-788.7709 735.8325,-788.702 741.6429,-788.6054 744.1122,-788.6616 748.836,-788.5818 753.2927,-788.6823 755.9213,-788.6373 757.6057,-788.5419 757.9053,-788.5367 758.3451,-788.5637 761.5411,-788.6332 772.0598,-788.4449 773.5406,-788.4768 774.8262,-788.5551 838.6856,-789.9106 886.3875,-747.4406 885.4185,-733.8957 885.1718,-718.5184 884.4816,-702.9324 884.3759,-701.4749 867.9736,-678.6371 819.9577,-606.8954 822.9938,-603.6796 828.2996,-598.5878 830.0176,-596.7258 833.1373,-593.5189 837.2948,-589.4728 839.7825,-587.1866 851.4708,-575.6786 923.1179,-509.7493 927.5247,-505.4029 937.7331,-496.0674 947.455,-486.0667 951.3143,-481.8809 955.2777,-478.0536 960.6956,-471.9951 921.0526,-391.4077 "/>
<polyline fill="none" stroke="#000000" points="997.9977,-317.435 1002.6022,-315.8839 1004.3743,-315.3652 1007.1104,-314.683 1011.742,-313.7278 1023.0303,-311.8873 1030.0278,-311.3581 1038.4135,-311.0905 1038.5361,-311.0919 1045.5115,-310.8579 1054.8435,-310.1213 1058.1503,-309.5615 1066.3909,-307.789 1071.9257,-306.3468 1081.0654,-303.5499 1084.3118,-302.4117 1097.2095,-296.7113 1120.147,-284.5045 1121.0288,-266.1202 1121.301,-243.0803 1121.2839,-242.8 1122.158,-224.579 1105.3723,-211.0463 1034.0896,-158.0054 1021.3477,-147.0984 1021.1274,-146.8728 1008.1601,-135.3185 996.7095,-123.9791 989.1933,-115.7977 978.3134,-102.8559 973.89,-87.5746 954.1734,-24.7888 947.2648,-22.1152 928.3727,7.0864 885.9333,75.4 797.2485,121.6369 763.3743,134.212 749.4854,139.9631 746.6587,141.1931 744.4245,142.261 726.0358,137.9317 723.9661,137.5228 689.2645,131.3196 672.2247,121.1136 609.4039,71.1145 574.77,-6.9578 557.4912,-41.9769 536.3558,-82.9095 482.8031,-71.026 446.3996,-73.5487 402.0558,-83.4365 392.9796,-85.2786 380.8136,-87.2595 363.4117,-89.0454 354.9776,-89.7409 343.4958,-89.9948 339.0086,-90.0039 338.9827,-90.0029 325.8582,-91.3124 322.6999,-91.4986 315.8829,-91.762 235.2467,-93.2341 202.9879,-137.1359 169.613,-202.3605 169.5019,-222.0024 168.028,-252.7146 166.428,-275.9031 216.3825,-351.9013 318.2639,-377.6011 334.5105,-382.7325 340.4277,-384.8506 347.5423,-387.548 357.0367,-391.5508 366.3818,-395.8891 370.3959,-397.8379 377.9241,-425.6429 378.9568,-429.7899 388.2937,-475.1426 394.4297,-497.5068 387.734,-545.1359 379.0049,-592.3998 373.6344,-618.5094 373.8475,-626.5594 432.2901,-652.647 436.683,-654.5028 449.1328,-659.4651 462.9608,-664.3052 466.9814,-665.5153 467.1383,-665.6906 471.9181,-671.6464 477.9312,-678.4535 481.3763,-682.1609 491.7116,-692.1758 501.8212,-701.4135 504.0466,-703.1945 513.0846,-709.9433 517.7851,-713.796 586.4894,-765.772 588.9086,-767.8923 589.7022,-768.6386 594.0622,-772.4161 612.8272,-789.7963 615.698,-792.924 617.9338,-795.2167 618.8955,-794.7156 623.507,-792.4618 637.2616,-786.614 648.6305,-782.5159 654.3399,-780.6451 705.7321,-787.9722 707.28,-788.1314 709.8554,-788.2947 721.8782,-788.5829 724.8993,-788.894 728.1039,-788.9692 732.9521,-788.8911 735.1118,-788.7709 735.8325,-788.702 741.6429,-788.6054 744.1122,-788.6616 748.836,-788.5818 753.2927,-788.6823 755.9213,-788.6373 757.6057,-788.5419 757.9053,-788.5367 758.3451,-788.5637 761.5411,-788.6332 772.0598,-788.4449 773.5406,-788.4768 774.8262,-788.5551 838.6856,-789.9106 886.3875,-747.4406 885.4185,-733.8957 885.1718,-718.5184 884.4816,-702.9324 884.3759,-701.4749 867.9736,-678.6371 819.9577,-606.8954 822.9938,-603.6796 828.2996,-598.5878 830.0176,-596.7258 833.1373,-593.5189 837.2948,-589.4728 839.7825,-587.1866 851.4708,-575.6786 923.1179,-509.7493 927.5247,-505.4029 937.7331,-496.0674 947.455,-486.0667 951.3143,-481.8809 955.2777,-478.0536 960.6956,-471.9951 921.0526,-391.4077 907.3971,-366.9358 926.543,-356.1521 963.5061,-333.9874 976.0269,-327.0068 984.588,-322.9815 994.2241,-318.8738 997.9977,-317.435 "/>
<polyline fill="none" stroke="#000000" points="1204.1417,-577.1299 1208.2125,-580.4993 1215.0001,-586.7885 1215.0323,-597.517 1214.1089,-622.4913 1213.5757,-631.8658 1213.5687,-632.0554 1224.6307,-675.7039 1234.0155,-707.4226 1217.1405,-741.2413 1181.0476,-817.4968 1190.4734,-837.8101 1194.4133,-847.3107 1202.7848,-868.7756 1183.572,-953.3144 1183.4219,-954.0923 1180.8567,-974.5068 1176.0872,-1004.2489 1175.1483,-1008.38 1200.5603,-1069.3082 1208.4275,-1086.6183 1239.9305,-1146.4528 1268.9668,-1141.1392 1286.5944,-1138.2523 1308.9626,-1136.7482 1327.5038,-1136.5765 1373.4999,-1139.7029 1467.7092,-1092.719 1487.7087,-997.4778 1490.2709,-987.3012 1491.5712,-982.5317 1584.5389,-889.8338 1672.2949,-918.4656 1723.2808,-912.0353 1729.3187,-911.3892 1733.4949,-911.1016 1743.1287,-910.6218 1744.7179,-910.5729 1758.4817,-910.6754 1769.8727,-910.9779 1779.0004,-911.7431 1793.6836,-913.2545 1794.0709,-913.2238 1832.8986,-913.0494 1895.476,-895.0647 1946.8844,-763.84 1968.2397,-717.97 2057.5623,-685.3149 2060.3469,-675.9221 2071.1445,-551.1896 2074.1729,-527.8871 2076.3081,-513.7816 2076.5574,-511.2238 2057.8435,-479.2271 1990.8488,-406.4355 1925.4677,-400.2081 1924.7882,-400.1296 1908.4841,-397.5826 1907.6962,-397.4276 1902.2681,-398.0804 1886.7231,-399.3304 1877.236,-399.7137 1871.325,-399.8344 1860.1907,-399.6167 1839.0613,-397.9365 1834.259,-397.4592 1780.1233,-398.5001 1688.9135,-425.8935 1594.166,-308.188 1593.4888,-304.5311 1592.9335,-300.8267 1587.1237,-256.9287 1450.5953,-148.7792 1409.7043,-136.8432 1406.4603,-135.7176 1401.9237,-134.4782 1394.5605,-132.2042 1391.9261,-131.3436 1374.6606,-169.3011 1370.8979,-176.0154 1356.7828,-199.9416 1349.2157,-211.9877 1348.7681,-212.6523 1338.1171,-227.4175 1318.7308,-257.0893 1315.8544,-262.2029 1298.4569,-298.8859 1289.6078,-312.6652 1268.3796,-342.0935 1267.824,-341.9657 1266.2548,-341.6566 1257.4897,-340.2193 1252.8801,-339.6162 1247.0813,-339.0495 1243.3605,-338.809 1237.1135,-338.6113 1236.9508,-338.6115 1235.998,-338.5804 1233.3678,-338.5814 1226.1802,-338.8224 1222.2756,-338.8201 1220.7157,-338.9227 1213.0179,-338.9032 1207.9667,-338.7176 1207.7332,-338.7167 1205.2356,-338.6227 1200.2365,-338.6002 1194.9946,-338.3978 1192.4164,-338.2104 1181.5863,-337.0523 1175.6559,-336.0136 1175.2823,-336.6081 1163.0399,-354.7246 1157.4635,-362.2612 1141.6061,-386.3261 1127.6785,-416.6191 1118.9249,-432.2771 1118.5728,-432.822 1097.6923,-461.0419 1085.276,-480.7108 1082.9196,-484.6963 1081.174,-487.8461 1165.8197,-545.7819 1178.3466,-554.8146 1180.0638,-556.113 1181.9785,-557.6292 1188.7574,-563.2453 1204.1417,-577.1299 "/>
<polyline fill="none" stroke="#000000" points="81.4356,-1164.9982 83,-1164.5247 88.558,-1163.0685 88.8834,-1162.9899 102.2756,-1160.2876 112.9305,-1158.5664 125.0522,-1156.853 199.5209,-1149.3438 253.8821,-1125.6188 279.3745,-1054.3809 301.5456,-996.0435 317.4682,-958.1005 439.6049,-964.5496 442.6241,-964.7551 448.2579,-965.2249 455.2424,-966.1287 471.3545,-968.4617 477.5983,-969.5568 488.6593,-971.6663 490.4278,-972.0304 490.4632,-972.0383 495.5163,-973.2334 515.9477,-978.6959 519.2771,-979.6365 545.9545,-987.5768 596.3937,-863.49 613.5264,-808.0618 617.9338,-795.2167 615.698,-792.924 612.8272,-789.7963 594.0622,-772.4161 589.7022,-768.6386 588.9086,-767.8923 586.4894,-765.772 517.7851,-713.796 513.0846,-709.9433 504.0466,-703.1945 501.8212,-701.4135 491.7116,-692.1758 481.3763,-682.1609 477.9312,-678.4535 471.9181,-671.6464 467.1383,-665.6906 466.9814,-665.5153 462.9608,-664.3052 449.1328,-659.4651 436.683,-654.5028 432.2901,-652.647 373.8475,-626.5594 347.4436,-654.9615 274.739,-758.7488 263.6335,-786.9025 263.5555,-787.0906 261.8297,-791.0518 238.4545,-842.2505 193.626,-839.7698 119.7478,-846.4505 114.9194,-846.7303 103.3621,-847.0253 97.0708,-848.3275 91.6239,-849.1787 82.5613,-853.0355 71.185,-857.4298 66.3652,-859.196 52.9883,-863.3138 35.3576,-868.0511 -53.4012,-890.1325 -109.198,-997.3417 -109.356,-1000.8654 -106.7869,-1017 -95.9188,-1128.2429 -94.2584,-1131.1241 -51.4404,-1154.2174 -16.6451,-1161.896 45.1711,-1162.0015 53.2938,-1162.3273 64.0606,-1162.9658 81.4356,-1164.9982 "/>
<!-- device&#45;mapper&#45;libs&#45;&gt;Fedora Container Base -->
<g id="edge1" class="edge">
<title>device&#45;mapper&#45;libs&#45;&gt;Fedora Container Base</title>
<path fill="none" stroke="#444444" stroke-opacity="0.333333" d="M1043.9814,-935.528C1035.598,-876.9335 1009.3782,-693.676 999.2597,-622.9548"/>
<polygon fill="#444444" fill-opacity="0.333333" stroke="#444444" stroke-opacity="0.333333" points="1002.7144,-622.3886 997.8333,-612.9852 995.785,-623.3801 1002.7144,-622.3886"/>
</g>
<!-- device&#45;mapper&#45;libs&#45;&gt;device&#45;mapper -->
<g id="edge2" class="edge">
<title>device&#45;mapper&#45;libs&#45;&gt;device&#45;mapper</title>
<path fill="none" stroke="#444444" stroke-opacity="0.333333" d="M1049.2277,-935.6434C1050.5388,-891.617 1044.3223,-779.0585 1037.9569,-726.2893"/>
<polygon fill="#444444" fill-opacity="0.333333" stroke="#444444" stroke-opacity="0.333333" points="1041.4143,-725.7352 1036.6416,-716.2763 1034.4739,-726.647 1041.4143,-725.7352"/>
</g>
<!-- device&#45;mapper&#45;&gt;Fedora Container Base -->
<g id="edge33" class="edge">
<title>device&#45;mapper&#45;&gt;Fedora Container Base</title>
<path fill="none" stroke="#444444" stroke-opacity="0.333333" d="M1025.5108,-680.1669C1019.865,-664.2408 1011.543,-640.7652 1005.0497,-622.4483"/>
<polygon fill="#444444" fill-opacity="0.333333" stroke="#444444" stroke-opacity="0.333333" points="1008.2992,-621.1396 1001.659,-612.8837 1001.7015,-623.4785 1008.2992,-621.1396"/>
</g>
<!-- device&#45;mapper&#45;&gt;device&#45;mapper&#45;libs -->
<g id="edge34" class="edge">
<title>device&#45;mapper&#45;&gt;device&#45;mapper&#45;libs</title>
<path fill="none" stroke="#444444" stroke-opacity="0.333333" d="M1029.2723,-716.3766C1027.9612,-760.403 1034.1777,-872.9615 1040.5431,-925.7307"/>
<polygon fill="#444444" fill-opacity="0.333333" stroke="#444444" stroke-opacity="0.333333" points="1037.0857,-926.2848 1041.8584,-935.7437 1044.0261,-925.373 1037.0857,-926.2848"/>
</g>
<!-- device&#45;mapper&#45;&gt;systemd -->
<g id="edge35" class="edge">
<title>device&#45;mapper&#45;&gt;systemd</title>
<path fill="none" stroke="#444444" stroke-opacity="0.333333" d="M1013.2032,-680.1309C974.8592,-643.0946 887.2325,-558.4565 843.2221,-515.9471"/>
<polygon fill="#444444" fill-opacity="0.333333" stroke="#444444" stroke-opacity="0.333333" points="845.4109,-513.1951 835.7866,-508.7652 840.5477,-518.23 845.4109,-513.1951"/>
</g>
<!-- device&#45;mapper&#45;&gt;util&#45;linux -->
<g id="edge36" class="edge">
<title>device&#45;mapper&#45;&gt;util&#45;linux</title>
<path fill="none" stroke="#444444" stroke-opacity="0.333333" d="M1034.0293,-680.1354C1040.2707,-627.2129 1058.5573,-472.1556 1066.1428,-407.8363"/>
<polygon fill="#444444" fill-opacity="0.333333" stroke="#444444" stroke-opacity="0.333333" points="1069.6521,-407.9629 1067.3475,-397.6218 1062.7002,-407.143 1069.6521,-407.9629"/>
</g>
<!-- libargon2&#45;&gt;Fedora Container Base -->
<g id="edge3" class="edge">
<title>libargon2&#45;&gt;Fedora Container Base</title>
<path fill="none" stroke="#444444" stroke-opacity="0.333333" d="M1071.0555,-1062.536C1059.1108,-988.8512 1014.2198,-711.9267 999.7473,-622.6482"/>
<polygon fill="#444444" fill-opacity="0.333333" stroke="#444444" stroke-opacity="0.333333" points="1003.1926,-622.0281 998.1374,-612.717 996.2828,-623.1483 1003.1926,-622.0281"/>
</g>
<!-- dbus&#45;broker&#45;&gt;Fedora Container Base -->
<g id="edge4" class="edge">
<title>dbus&#45;broker&#45;&gt;Fedora Container Base</title>
<path fill="none" stroke="#444444" stroke-opacity="0.333333" d="M1002.0241,-261.2253C1000.8464,-318.9503 997.2223,-496.5818 995.8007,-566.2566"/>
<polygon fill="#444444" fill-opacity="0.333333" stroke="#444444" stroke-opacity="0.333333" points="992.297,-566.4078 995.5922,-576.4771 999.2955,-566.5506 992.297,-566.4078"/>
</g>
<!-- dbus&#45;broker&#45;&gt;dbus&#45;common -->
<g id="edge5" class="edge">
<title>dbus&#45;broker&#45;&gt;dbus&#45;common</title>
<path fill="none" stroke="#444444" stroke-opacity="0.333333" d="M933.2924,-224.7769C930.4517,-224.0361 927.5948,-223.291 924.7367,-222.5456"/>
<polygon fill="#444444" fill-opacity="0.333333" stroke="#444444" stroke-opacity="0.333333" points="925.597,-219.153 915.0374,-220.0161 923.8305,-225.9264 925.597,-219.153"/>
</g>
<!-- dbus&#45;broker&#45;&gt;shadow&#45;utils -->
<g id="edge6" class="edge">
<title>dbus&#45;broker&#45;&gt;shadow&#45;utils</title>
<path fill="none" stroke="#444444" stroke-opacity="0.333333" d="M1022.1686,-261.1263C1057.9313,-294.2797 1133.4125,-364.2537 1173.9326,-401.8174"/>
<polygon fill="#444444" fill-opacity="0.333333" stroke="#444444" stroke-opacity="0.333333" points="1171.5983,-404.4261 1181.3114,-408.6579 1176.3573,-399.2926 1171.5983,-404.4261"/>
</g>
<!-- dbus&#45;broker&#45;&gt;systemd -->
<g id="edge7" class="edge">
<title>dbus&#45;broker&#45;&gt;systemd</title>
<path fill="none" stroke="#444444" stroke-opacity="0.333333" d="M988.7656,-261.0213C956.351,-304.341 874.5728,-413.6315 836.7409,-464.191"/>
<polygon fill="#444444" fill-opacity="0.333333" stroke="#444444" stroke-opacity="0.333333" points="833.8232,-462.2484 830.6344,-472.352 839.4278,-466.4422 833.8232,-462.2484"/>
</g>
<!-- dbus&#45;common&#45;&gt;Fedora Container Base -->
<g id="edge8" class="edge">
<title>dbus&#45;common&#45;&gt;Fedora Container Base</title>
<path fill="none" stroke="#444444" stroke-opacity="0.333333" d="M852.7835,-220.135C876.6648,-282.9391 955.8801,-491.2625 984.6562,-566.9388"/>
<polygon fill="#444444" fill-opacity="0.333333" stroke="#444444" stroke-opacity="0.333333" points="981.3918,-568.2016 988.2175,-576.3046 987.9347,-565.7135 981.3918,-568.2016"/>
</g>
<!-- dbus&#45;common&#45;&gt;dbus&#45;common -->
<g id="edge9" class="edge">
<title>dbus&#45;common&#45;&gt;dbus&#45;common</title>
<path fill="none" stroke="#444444" stroke-opacity="0.333333" d="M923.4455,-208.0033C934.195,-207.0112 941.38,-205.0034 941.38,-201.98 941.38,-200.0431 938.4313,-198.5231 933.4857,-197.4198"/>
<polygon fill="#444444" fill-opacity="0.333333" stroke="#444444" stroke-opacity="0.333333" points="933.8457,-193.9354 923.4455,-195.9567 932.8362,-200.8623 933.8457,-193.9354"/>
</g>
<!-- dbus&#45;common&#45;&gt;systemd -->
<g id="edge10" class="edge">
<title>dbus&#45;common&#45;&gt;systemd</title>
<path fill="none" stroke="#444444" stroke-opacity="0.333333" d="M844.0722,-220.0345C839.1862,-268.8297 825.6898,-403.617 819.7955,-462.4823"/>
<polygon fill="#444444" fill-opacity="0.333333" stroke="#444444" stroke-opacity="0.333333" points="816.301,-462.2534 818.7871,-472.5524 823.2661,-462.9509 816.301,-462.2534"/>
</g>
<!-- shadow&#45;utils&#45;&gt;Fedora Container Base -->
<g id="edge11" class="edge">
<title>shadow&#45;utils&#45;&gt;Fedora Container Base</title>
<path fill="none" stroke="#444444" stroke-opacity="0.333333" d="M1178.5862,-445.1881C1141.3789,-475.5299 1066.8431,-536.3126 1025.1703,-570.2961"/>
<polygon fill="#444444" fill-opacity="0.333333" stroke="#444444" stroke-opacity="0.333333" points="1022.8326,-567.6862 1017.2947,-576.7185 1027.2565,-573.111 1022.8326,-567.6862"/>
</g>
<!-- shadow&#45;utils&#45;&gt;shadow&#45;utils -->
<g id="edge12" class="edge">
<title>shadow&#45;utils&#45;&gt;shadow&#45;utils</title>
<path fill="none" stroke="#444444" stroke-opacity="0.333333" d="M1271.8256,-433.0334C1282.369,-432.08 1289.5,-430.0389 1289.5,-426.91 1289.5,-424.9544 1286.7144,-423.4238 1282.0512,-422.318"/>
<polygon fill="#444444" fill-opacity="0.333333" stroke="#444444" stroke-opacity="0.333333" points="1282.2338,-418.8064 1271.8256,-420.7866 1281.1969,-425.7292 1282.2338,-418.8064"/>
</g>
<!-- shadow&#45;utils&#45;&gt;libsemanage -->
<g id="edge13" class="edge">
<title>shadow&#45;utils&#45;&gt;libsemanage</title>
<path fill="none" stroke="#444444" stroke-opacity="0.333333" d="M1227.7072,-408.6709C1259.3453,-387.0643 1312.1472,-351.0045 1347.0217,-327.1876"/>
<polygon fill="#444444" fill-opacity="0.333333" stroke="#444444" stroke-opacity="0.333333" points="1349.194,-329.9425 1355.4781,-321.4125 1345.2462,-324.1619 1349.194,-329.9425"/>
</g>
<!-- systemd&#45;&gt;Fedora Container Base -->
<g id="edge14" class="edge">
<title>systemd&#45;&gt;Fedora Container Base</title>
<path fill="none" stroke="#444444" stroke-opacity="0.333333" d="M848.027,-508.7363C878.1127,-526.3111 923.8379,-553.0217 956.3324,-572.0035"/>
<polygon fill="#444444" fill-opacity="0.333333" stroke="#444444" stroke-opacity="0.333333" points="954.7225,-575.1165 965.1226,-577.1384 958.2533,-569.0722 954.7225,-575.1165"/>
</g>
<!-- systemd&#45;&gt;shadow&#45;utils -->
<g id="edge15" class="edge">
<title>systemd&#45;&gt;shadow&#45;utils</title>
<path fill="none" stroke="#444444" stroke-opacity="0.333333" d="M878.6795,-480.3671C944.2876,-469.4859 1048.3284,-452.2307 1120.38,-440.2809"/>
<polygon fill="#444444" fill-opacity="0.333333" stroke="#444444" stroke-opacity="0.333333" points="1121.0346,-443.7202 1130.3272,-438.6311 1119.8893,-436.8145 1121.0346,-443.7202"/>
</g>
<!-- systemd&#45;&gt;systemd -->
<g id="edge16" class="edge">
<title>systemd&#45;&gt;systemd</title>
<path fill="none" stroke="#444444" stroke-opacity="0.333333" d="M878.6467,-496.9013C889.1813,-496.0403 896.48,-493.9398 896.48,-490.6 896.48,-488.4604 893.4846,-486.8295 888.562,-485.7072"/>
<polygon fill="#444444" fill-opacity="0.333333" stroke="#444444" stroke-opacity="0.333333" points="889.0396,-482.24 878.6467,-484.2987 888.0551,-489.1704 889.0396,-482.24"/>
</g>
<!-- systemd&#45;&gt;util&#45;linux -->
<g id="edge17" class="edge">
<title>systemd&#45;&gt;util&#45;linux</title>
<path fill="none" stroke="#444444" stroke-opacity="0.333333" d="M858.1137,-472.4814C902.0448,-453.1307 971.7122,-422.4436 1018.9548,-401.6341"/>
<polygon fill="#444444" fill-opacity="0.333333" stroke="#444444" stroke-opacity="0.333333" points="1020.6432,-404.715 1028.3839,-397.4808 1017.8215,-398.3089 1020.6432,-404.715"/>
</g>
<!-- systemd&#45;&gt;iptables&#45;libs -->
<g id="edge18" class="edge">
<title>systemd&#45;&gt;iptables&#45;libs</title>
<path fill="none" stroke="#444444" stroke-opacity="0.333333" d="M813.0643,-508.8377C800.108,-569.1834 758.5653,-762.6742 742.9391,-835.4553"/>
<polygon fill="#444444" fill-opacity="0.333333" stroke="#444444" stroke-opacity="0.333333" points="739.5054,-834.7755 740.8281,-845.2874 746.3494,-836.245 739.5054,-834.7755"/>
</g>
<!-- systemd&#45;&gt;acl -->
<g id="edge19" class="edge">
<title>systemd&#45;&gt;acl</title>
<path fill="none" stroke="#444444" stroke-opacity="0.333333" d="M796.2916,-472.5465C772.6823,-451.9441 733.92,-418.1186 707.42,-394.9936"/>
<polygon fill="#444444" fill-opacity="0.333333" stroke="#444444" stroke-opacity="0.333333" points="709.4557,-392.1248 699.6199,-388.187 704.8532,-397.3991 709.4557,-392.1248"/>
</g>
<!-- systemd&#45;&gt;cryptsetup&#45;libs -->
<g id="edge20" class="edge">
<title>systemd&#45;&gt;cryptsetup&#45;libs</title>
<path fill="none" stroke="#444444" stroke-opacity="0.333333" d="M822.7351,-508.8385C841.9916,-569.8648 904.2608,-767.2037 927.4714,-840.7609"/>
<polygon fill="#444444" fill-opacity="0.333333" stroke="#444444" stroke-opacity="0.333333" points="924.2557,-842.2013 930.6027,-850.6845 930.9312,-840.0948 924.2557,-842.2013"/>
</g>
<!-- systemd&#45;&gt;dbus -->
<g id="edge21" class="edge">
<title>systemd&#45;&gt;dbus</title>
<path fill="none" stroke="#444444" stroke-opacity="0.333333" d="M814.1333,-472.3631C802.8601,-400.1424 761.2957,-133.8641 747.6108,-46.1934"/>
<polygon fill="#444444" fill-opacity="0.333333" stroke="#444444" stroke-opacity="0.333333" points="751.0487,-45.5231 746.0482,-36.1826 744.1324,-46.6027 751.0487,-45.5231"/>
</g>
<!-- systemd&#45;&gt;kmod&#45;libs -->
<g id="edge22" class="edge">
<title>systemd&#45;&gt;kmod&#45;libs</title>
<path fill="none" stroke="#444444" stroke-opacity="0.333333" d="M797.887,-508.8746C761.3799,-543.8166 681.6312,-620.1467 640.1963,-659.8054"/>
<polygon fill="#444444" fill-opacity="0.333333" stroke="#444444" stroke-opacity="0.333333" points="637.7286,-657.3225 632.9245,-666.7655 642.5688,-662.3794 637.7286,-657.3225"/>
</g>
<!-- systemd&#45;&gt;libseccomp -->
<g id="edge23" class="edge">
<title>systemd&#45;&gt;libseccomp</title>
<path fill="none" stroke="#444444" stroke-opacity="0.333333" d="M755.2521,-507.5809C720.1167,-517.2464 675.8358,-529.4277 638.6626,-539.6538"/>
<polygon fill="#444444" fill-opacity="0.333333" stroke="#444444" stroke-opacity="0.333333" points="637.5923,-536.3181 628.8789,-542.3452 639.4491,-543.0674 637.5923,-536.3181"/>
</g>
<!-- systemd&#45;&gt;qrencode&#45;libs -->
<g id="edge24" class="edge">
<title>systemd&#45;&gt;qrencode&#45;libs</title>
<path fill="none" stroke="#444444" stroke-opacity="0.333333" d="M755.2667,-475.4637C722.7013,-467.4764 682.2776,-457.5618 646.9428,-448.8953"/>
<polygon fill="#444444" fill-opacity="0.333333" stroke="#444444" stroke-opacity="0.333333" points="647.6681,-445.4695 637.1222,-446.4866 646.0006,-452.268 647.6681,-445.4695"/>
</g>
<!-- systemd&#45;&gt;systemd&#45;pam -->
<g id="edge25" class="edge">
<title>systemd&#45;&gt;systemd&#45;pam</title>
<path fill="none" stroke="#444444" stroke-opacity="0.333333" d="M812.1242,-472.589C795.4938,-430.0602 743.3673,-323.4102 715.0253,-273.1017"/>
<polygon fill="#444444" fill-opacity="0.333333" stroke="#444444" stroke-opacity="0.333333" points="718.0388,-271.3209 710.0239,-264.3918 711.9684,-274.8067 718.0388,-271.3209"/>
</g>
<!-- systemd&#45;&gt;systemd&#45;rpm&#45;macros -->
<g id="edge26" class="edge">
<title>systemd&#45;&gt;systemd&#45;rpm&#45;macros</title>
<path fill="none" stroke="#444444" stroke-opacity="0.333333" d="M784.6407,-472.4291C703.0029,-426.5582 488.6638,-306.1247 398.25,-255.3227"/>
<polygon fill="#444444" fill-opacity="0.333333" stroke="#444444" stroke-opacity="0.333333" points="399.8161,-252.1881 389.3835,-250.3408 396.3871,-258.2907 399.8161,-252.1881"/>
</g>
<!-- systemd&#45;&gt;diffutils -->
<g id="edge27" class="edge">
<title>systemd&#45;&gt;diffutils</title>
<path fill="none" stroke="#444444" stroke-dasharray="5,2" stroke-opacity="0.333333" d="M811.3122,-508.8507C799.2078,-547.8272 770.7661,-639.4105 756.379,-685.7376"/>
<polygon fill="#444444" fill-opacity="0.333333" stroke="#444444" stroke-opacity="0.333333" points="752.9924,-684.8418 753.369,-695.4299 759.6774,-686.9179 752.9924,-684.8418"/>
</g>
<!-- systemd&#45;&gt;libxkbcommon -->
<g id="edge28" class="edge">
<title>systemd&#45;&gt;libxkbcommon</title>
<path fill="none" stroke="#444444" stroke-dasharray="5,2" stroke-opacity="0.333333" d="M796.0926,-508.778C737.3977,-559.8594 570.8901,-704.7689 503.5903,-763.339"/>
<polygon fill="#444444" fill-opacity="0.333333" stroke="#444444" stroke-opacity="0.333333" points="501.1344,-760.8365 495.8887,-770.0416 505.7298,-766.1168 501.1344,-760.8365"/>
</g>
<!-- libsemanage&#45;&gt;Fedora Container Base -->
<g id="edge43" class="edge">
<title>libsemanage&#45;&gt;Fedora Container Base</title>
<path fill="none" stroke="#444444" stroke-opacity="0.333333" d="M1358.0971,-321.3097C1291.3312,-371.6145 1102.8122,-513.6545 1027.1902,-570.632"/>
<polygon fill="#444444" fill-opacity="0.333333" stroke="#444444" stroke-opacity="0.333333" points="1024.844,-568.0175 1018.9634,-576.8305 1029.0563,-573.6082 1024.844,-568.0175"/>
</g>
<!-- libsemanage&#45;&gt;libsemanage -->
<g id="edge44" class="edge">
<title>libsemanage&#45;&gt;libsemanage</title>
<path fill="none" stroke="#444444" stroke-opacity="0.333333" d="M1457.5725,-309.3574C1468.3009,-308.3777 1475.5,-306.3586 1475.5,-303.3 1475.5,-301.3406 1472.5455,-299.8078 1467.6013,-298.7015"/>
<polygon fill="#444444" fill-opacity="0.333333" stroke="#444444" stroke-opacity="0.333333" points="1467.9723,-295.2187 1457.5725,-297.2426 1466.9645,-302.1458 1467.9723,-295.2187"/>
</g>
<!-- util&#45;linux&#45;&gt;Fedora Container Base -->
<g id="edge29" class="edge">
<title>util&#45;linux&#45;&gt;Fedora Container Base</title>
<path fill="none" stroke="#444444" stroke-opacity="0.333333" d="M1063.1669,-397.7306C1050.1149,-435.5705 1020.1574,-522.4225 1004.7524,-567.084"/>
<polygon fill="#444444" fill-opacity="0.333333" stroke="#444444" stroke-opacity="0.333333" points="1001.3844,-566.1149 1001.4323,-576.7096 1008.0018,-568.3974 1001.3844,-566.1149"/>
</g>
<!-- util&#45;linux&#45;&gt;util&#45;linux -->
<g id="edge30" class="edge">
<title>util&#45;linux&#45;&gt;util&#45;linux</title>
<path fill="none" stroke="#444444" stroke-opacity="0.333333" d="M1134.1797,-385.6153C1144.7415,-384.7213 1152,-382.6395 1152,-379.37 1152,-377.2755 1149.0211,-375.6684 1144.1032,-374.5487"/>
<polygon fill="#444444" fill-opacity="0.333333" stroke="#444444" stroke-opacity="0.333333" points="1144.5755,-371.0807 1134.1797,-373.1247 1143.5811,-378.0098 1144.5755,-371.0807"/>
</g>
<!-- util&#45;linux&#45;&gt;libfdisk -->
<g id="edge31" class="edge">
<title>util&#45;linux&#45;&gt;libfdisk</title>
<path fill="none" stroke="#444444" stroke-opacity="0.333333" d="M1074.537,-361.1509C1086.3882,-318.2839 1116.1011,-210.8099 1130.2614,-159.5912"/>
<polygon fill="#444444" fill-opacity="0.333333" stroke="#444444" stroke-opacity="0.333333" points="1133.6643,-160.4169 1132.9556,-149.8458 1126.9174,-158.5516 1133.6643,-160.4169"/>
</g>
<!-- util&#45;linux&#45;&gt;libutempter -->
<g id="edge32" class="edge">
<title>util&#45;linux&#45;&gt;libutempter</title>
<path fill="none" stroke="#444444" stroke-opacity="0.333333" d="M1093.341,-361.2147C1123.0162,-338.6165 1173.7946,-299.948 1206.7183,-274.8761"/>
<polygon fill="#444444" fill-opacity="0.333333" stroke="#444444" stroke-opacity="0.333333" points="1208.8449,-277.656 1214.6803,-268.813 1204.604,-272.0869 1208.8449,-277.656"/>
</g>
<!-- iptables&#45;libs&#45;&gt;Fedora Container Base -->
<g id="edge39" class="edge">
<title>iptables&#45;libs&#45;&gt;Fedora Container Base</title>
<path fill="none" stroke="#444444" stroke-opacity="0.333333" d="M754.2689,-845.4379C799.1183,-798.7705 919.0062,-674.0231 970.8139,-620.1154"/>
<polygon fill="#444444" fill-opacity="0.333333" stroke="#444444" stroke-opacity="0.333333" points="973.5409,-622.3289 977.9466,-612.6935 968.4938,-617.4784 973.5409,-622.3289"/>
</g>
<!-- iptables&#45;libs&#45;&gt;iptables&#45;libs -->
<g id="edge40" class="edge">
<title>iptables&#45;libs&#45;&gt;iptables&#45;libs</title>
<path fill="none" stroke="#444444" stroke-opacity="0.333333" d="M810.5126,-869.5808C821.212,-868.614 828.42,-866.5838 828.42,-863.49 828.42,-861.5081 825.4618,-859.9626 820.5226,-858.8536"/>
<polygon fill="#444444" fill-opacity="0.333333" stroke="#444444" stroke-opacity="0.333333" points="820.912,-855.3734 810.5126,-857.3992 819.9054,-862.3007 820.912,-855.3734"/>
</g>
<!-- iptables&#45;libs&#45;&gt;libpcap -->
<g id="edge41" class="edge">
<title>iptables&#45;libs&#45;&gt;libpcap</title>
<path fill="none" stroke="#444444" stroke-opacity="0.333333" d="M740.6492,-881.6761C747.5845,-915.4971 762.5096,-988.2814 770.768,-1028.5546"/>
<polygon fill="#444444" fill-opacity="0.333333" stroke="#444444" stroke-opacity="0.333333" points="767.3743,-1029.4283 772.8118,-1038.5214 774.2316,-1028.0221 767.3743,-1029.4283"/>
</g>
<!-- acl&#45;&gt;Fedora Container Base -->
<g id="edge60" class="edge">
<title>acl&#45;&gt;Fedora Container Base</title>
<path fill="none" stroke="#444444" stroke-opacity="0.333333" d="M704.1499,-388.0191C760.8772,-428.3035 898.0207,-525.6947 961.6971,-570.914"/>
<polygon fill="#444444" fill-opacity="0.333333" stroke="#444444" stroke-opacity="0.333333" points="959.9987,-574.0007 970.1786,-576.937 964.0518,-568.2934 959.9987,-574.0007"/>
</g>
<!-- cryptsetup&#45;libs&#45;&gt;Fedora Container Base -->
<g id="edge61" class="edge">
<title>cryptsetup&#45;libs&#45;&gt;Fedora Container Base</title>
<path fill="none" stroke="#444444" stroke-opacity="0.333333" d="M940.2574,-850.3353C950.3411,-803.4388 977.0541,-679.2045 989.1348,-623.0207"/>
<polygon fill="#444444" fill-opacity="0.333333" stroke="#444444" stroke-opacity="0.333333" points="992.5994,-623.5569 991.2798,-613.0446 985.7558,-622.0854 992.5994,-623.5569"/>
</g>
<!-- cryptsetup&#45;libs&#45;&gt;device&#45;mapper&#45;libs -->
<g id="edge62" class="edge">
<title>cryptsetup&#45;libs&#45;&gt;device&#45;mapper&#45;libs</title>
<path fill="none" stroke="#444444" stroke-opacity="0.333333" d="M959.6918,-886.7854C975.7778,-899.1948 997.332,-915.8226 1014.9503,-929.4141"/>
<polygon fill="#444444" fill-opacity="0.333333" stroke="#444444" stroke-opacity="0.333333" points="1013.1863,-932.4737 1023.2419,-935.8106 1017.462,-926.9312 1013.1863,-932.4737"/>
</g>
<!-- cryptsetup&#45;libs&#45;&gt;libargon2 -->
<g id="edge63" class="edge">
<title>cryptsetup&#45;libs&#45;&gt;libargon2</title>
<path fill="none" stroke="#444444" stroke-opacity="0.333333" d="M948.0402,-886.8116C972.3788,-924.2758 1028.4283,-1010.552 1056.832,-1054.2736"/>
<polygon fill="#444444" fill-opacity="0.333333" stroke="#444444" stroke-opacity="0.333333" points="1053.9066,-1056.1951 1062.2895,-1062.6742 1059.7766,-1052.3816 1053.9066,-1056.1951"/>
</g>
<!-- dbus&#45;&gt;dbus&#45;broker -->
<g id="edge64" class="edge">
<title>dbus&#45;&gt;dbus&#45;broker</title>
<path fill="none" stroke="#444444" stroke-opacity="0.333333" d="M763.9825,-36.0163C810.1439,-76.053 921.3148,-172.4734 973.9087,-218.089"/>
<polygon fill="#444444" fill-opacity="0.333333" stroke="#444444" stroke-opacity="0.333333" points="971.6809,-220.7898 981.5286,-224.6979 976.2674,-215.5017 971.6809,-220.7898"/>
</g>
<!-- kmod&#45;libs&#45;&gt;Fedora Container Base -->
<g id="edge65" class="edge">
<title>kmod&#45;libs&#45;&gt;Fedora Container Base</title>
<path fill="none" stroke="#444444" stroke-opacity="0.333333" d="M681.7399,-668.8404C748.114,-653.1467 849.1495,-629.2575 918.4705,-612.8669"/>
<polygon fill="#444444" fill-opacity="0.333333" stroke="#444444" stroke-opacity="0.333333" points="919.5339,-616.2121 928.4602,-610.5049 917.9231,-609.3999 919.5339,-616.2121"/>
</g>
<!-- libseccomp&#45;&gt;Fedora Container Base -->
<g id="edge66" class="edge">
<title>libseccomp&#45;&gt;Fedora Container Base</title>
<path fill="none" stroke="#444444" stroke-opacity="0.333333" d="M635.1243,-566.0891C698.3685,-571.1176 791.969,-578.5597 867.8893,-584.596"/>
<polygon fill="#444444" fill-opacity="0.333333" stroke="#444444" stroke-opacity="0.333333" points="867.758,-588.0966 878.004,-585.4003 868.3129,-581.1186 867.758,-588.0966"/>
</g>
<!-- qrencode&#45;libs&#45;&gt;Fedora Container Base -->
<g id="edge67" class="edge">
<title>qrencode&#45;libs&#45;&gt;Fedora Container Base</title>
<path fill="none" stroke="#444444" stroke-opacity="0.333333" d="M610.4165,-446.5158C691.244,-477.6459 856.0147,-541.1061 941.3327,-573.9657"/>
<polygon fill="#444444" fill-opacity="0.333333" stroke="#444444" stroke-opacity="0.333333" points="940.2439,-577.2969 950.8337,-577.6249 942.7598,-570.7647 940.2439,-577.2969"/>
</g>
<!-- systemd&#45;pam&#45;&gt;Fedora Container Base -->
<g id="edge68" class="edge">
<title>systemd&#45;pam&#45;&gt;Fedora Container Base</title>
<path fill="none" stroke="#444444" stroke-opacity="0.333333" d="M712.282,-264.3335C761.8608,-322.2266 915.6959,-501.8597 973.2187,-569.029"/>
<polygon fill="#444444" fill-opacity="0.333333" stroke="#444444" stroke-opacity="0.333333" points="970.5797,-571.3284 979.7427,-576.6472 975.8965,-566.7751 970.5797,-571.3284"/>
</g>
<!-- systemd&#45;pam&#45;&gt;systemd -->
<g id="edge69" class="edge">
<title>systemd&#45;pam&#45;&gt;systemd</title>
<path fill="none" stroke="#444444" stroke-opacity="0.333333" d="M701.5058,-264.091C718.1362,-306.6198 770.2627,-413.2698 798.6047,-463.5783"/>
<polygon fill="#444444" fill-opacity="0.333333" stroke="#444444" stroke-opacity="0.333333" points="795.5912,-465.3591 803.6061,-472.2882 801.6616,-461.8733 795.5912,-465.3591"/>
</g>
<!-- diffutils&#45;&gt;Fedora Container Base -->
<g id="edge73" class="edge">
<title>diffutils&#45;&gt;Fedora Container Base</title>
<path fill="none" stroke="#444444" stroke-opacity="0.333333" d="M785.3099,-695.5616C829.4285,-674.3669 902.5521,-639.238 949.8027,-616.5386"/>
<polygon fill="#444444" fill-opacity="0.333333" stroke="#444444" stroke-opacity="0.333333" points="951.3934,-619.6575 958.8916,-612.1723 948.3622,-613.3478 951.3934,-619.6575"/>
</g>
<!-- libxkbcommon&#45;&gt;Fedora Container Base -->
<g id="edge74" class="edge">
<title>libxkbcommon&#45;&gt;Fedora Container Base</title>
<path fill="none" stroke="#444444" stroke-opacity="0.333333" d="M523.3288,-770.3167C620.2447,-734.2531 837.3354,-653.4709 939.7411,-615.3644"/>
<polygon fill="#444444" fill-opacity="0.333333" stroke="#444444" stroke-opacity="0.333333" points="941.1339,-618.5807 949.2854,-611.8129 938.6926,-612.0202 941.1339,-618.5807"/>
</g>
<!-- libxkbcommon&#45;&gt;xkeyboard&#45;config -->
<g id="edge75" class="edge">
<title>libxkbcommon&#45;&gt;xkeyboard&#45;config</title>
<path fill="none" stroke="#444444" stroke-opacity="0.333333" d="M443.8051,-806.4921C373.4485,-847.5979 201.8743,-947.8399 123.6072,-993.5674"/>
<polygon fill="#444444" fill-opacity="0.333333" stroke="#444444" stroke-opacity="0.333333" points="121.4068,-990.7993 114.5381,-998.866 124.9381,-996.8434 121.4068,-990.7993"/>
</g>
<!-- libfdisk&#45;&gt;Fedora Container Base -->
<g id="edge70" class="edge">
<title>libfdisk&#45;&gt;Fedora Container Base</title>
<path fill="none" stroke="#444444" stroke-opacity="0.333333" d="M1132.4029,-149.7549C1110.4546,-220.9459 1030.1709,-481.3535 1003.7287,-567.1214"/>
<polygon fill="#444444" fill-opacity="0.333333" stroke="#444444" stroke-opacity="0.333333" points="1000.38,-566.1033 1000.7785,-576.6907 1007.0693,-568.1657 1000.38,-566.1033"/>
</g>
<!-- libutempter&#45;&gt;Fedora Container Base -->
<g id="edge71" class="edge">
<title>libutempter&#45;&gt;Fedora Container Base</title>
<path fill="none" stroke="#444444" stroke-opacity="0.333333" d="M1225.668,-268.759C1185.5446,-325.5121 1061.5866,-500.8466 1014.0461,-568.091"/>
<polygon fill="#444444" fill-opacity="0.333333" stroke="#444444" stroke-opacity="0.333333" points="1011.0343,-566.2883 1008.1194,-576.4743 1016.7501,-570.3293 1011.0343,-566.2883"/>
</g>
<!-- libutempter&#45;&gt;shadow&#45;utils -->
<g id="edge72" class="edge">
<title>libutempter&#45;&gt;shadow&#45;utils</title>
<path fill="none" stroke="#444444" stroke-opacity="0.333333" d="M1234.5384,-268.9387C1227.9986,-299.7424 1214.7011,-362.3755 1206.9591,-398.8419"/>
<polygon fill="#444444" fill-opacity="0.333333" stroke="#444444" stroke-opacity="0.333333" points="1203.4938,-398.3114 1204.8406,-408.8202 1210.3411,-399.7652 1203.4938,-398.3114"/>
</g>
<!-- libunwind&#45;&gt;Fedora Container Base -->
<g id="edge37" class="edge">
<title>libunwind&#45;&gt;Fedora Container Base</title>
<path fill="none" stroke="#444444" stroke-opacity="0.333333" d="M1288.9756,-975.8921C1239.605,-911.8298 1073.6957,-696.5487 1015.5558,-621.1074"/>
<polygon fill="#444444" fill-opacity="0.333333" stroke="#444444" stroke-opacity="0.333333" points="1018.2034,-618.809 1009.3268,-613.0248 1012.6588,-623.082 1018.2034,-618.809"/>
</g>
<!-- libunwind&#45;&gt;libunwind -->
<g id="edge38" class="edge">
<title>libunwind&#45;&gt;libunwind</title>
<path fill="none" stroke="#444444" stroke-opacity="0.333333" d="M1370.337,-1000.276C1380.8397,-999.3512 1388,-997.2892 1388,-994.09 1388,-992.0905 1385.203,-990.5352 1380.5411,-989.4241"/>
<polygon fill="#444444" fill-opacity="0.333333" stroke="#444444" stroke-opacity="0.333333" points="1380.7436,-985.9158 1370.337,-987.904 1379.7121,-992.8394 1380.7436,-985.9158"/>
</g>
<!-- libpcap&#45;&gt;Fedora Container Base -->
<g id="edge42" class="edge">
<title>libpcap&#45;&gt;Fedora Container Base</title>
<path fill="none" stroke="#444444" stroke-opacity="0.333333" d="M785.1317,-1038.6859C818.7784,-967.5825 941.9445,-707.3036 982.3126,-621.9963"/>
<polygon fill="#444444" fill-opacity="0.333333" stroke="#444444" stroke-opacity="0.333333" points="985.5938,-623.245 986.7075,-612.7089 979.2665,-620.2508 985.5938,-623.245"/>
</g>
<!-- gperftools&#45;libs&#45;&gt;Fedora Container Base -->
<g id="edge45" class="edge">
<title>gperftools&#45;libs&#45;&gt;Fedora Container Base</title>
<path fill="none" stroke="#444444" stroke-opacity="0.333333" d="M1345.4989,-822.8719C1278.1477,-779.0031 1106.2788,-667.0574 1031.2129,-618.1638"/>
<polygon fill="#444444" fill-opacity="0.333333" stroke="#444444" stroke-opacity="0.333333" points="1032.8415,-615.0476 1022.552,-612.5225 1029.021,-620.9131 1032.8415,-615.0476"/>
</g>
<!-- gperftools&#45;libs&#45;&gt;libunwind -->
<g id="edge46" class="edge">
<title>gperftools&#45;libs&#45;&gt;libunwind</title>
<path fill="none" stroke="#444444" stroke-opacity="0.333333" d="M1364.9596,-859.145C1352.751,-885.7347 1329.9189,-935.462 1315.6405,-966.5596"/>
<polygon fill="#444444" fill-opacity="0.333333" stroke="#444444" stroke-opacity="0.333333" points="1312.3215,-965.4004 1311.3295,-975.9487 1318.683,-968.3213 1312.3215,-965.4004"/>
</g>
<!-- nginx&#45;&gt;Fedora Container Base -->
<g id="edge47" class="edge">
<title>nginx&#45;&gt;Fedora Container Base</title>
<path fill="none" stroke="#444444" stroke-opacity="0.333333" d="M1326.2304,-603.706C1273.4452,-602.2731 1202.1006,-600.3363 1139.1628,-598.6277"/>
<polygon fill="#444444" fill-opacity="0.333333" stroke="#444444" stroke-opacity="0.333333" points="1139.2293,-595.1283 1129.138,-598.3555 1139.0393,-602.1257 1139.2293,-595.1283"/>
</g>
<!-- nginx&#45;&gt;systemd -->
<g id="edge48" class="edge">
<title>nginx&#45;&gt;systemd</title>
<path fill="none" stroke="#444444" stroke-opacity="0.333333" d="M1326.438,-590.5791C1212.0468,-568.1303 999.847,-526.4869 888.8596,-504.7061"/>
<polygon fill="#444444" fill-opacity="0.333333" stroke="#444444" stroke-opacity="0.333333" points="889.2538,-501.2168 878.767,-502.7255 887.9058,-508.0857 889.2538,-501.2168"/>
</g>
<!-- nginx&#45;&gt;fedora&#45;logos&#45;httpd -->
<g id="edge49" class="edge">
<title>nginx&#45;&gt;fedora&#45;logos&#45;httpd</title>
<path fill="none" stroke="#444444" stroke-opacity="0.333333" d="M1481.863,-595.8056C1564.7981,-585.1251 1696.4602,-568.1696 1787.2993,-556.4712"/>
<polygon fill="#444444" fill-opacity="0.333333" stroke="#444444" stroke-opacity="0.333333" points="1787.8674,-559.927 1797.3385,-555.1784 1786.9733,-552.9844 1787.8674,-559.927"/>
</g>
<!-- nginx&#45;&gt;gperftools&#45;libs -->
<g id="edge50" class="edge">
<title>nginx&#45;&gt;gperftools&#45;libs</title>
<path fill="none" stroke="#444444" stroke-opacity="0.333333" d="M1401.7343,-623.8821C1396.4043,-664.5772 1383.4226,-763.6936 1377.0099,-812.655"/>
<polygon fill="#444444" fill-opacity="0.333333" stroke="#444444" stroke-opacity="0.333333" points="1373.5021,-812.4864 1375.6737,-822.8563 1380.4428,-813.3956 1373.5021,-812.4864"/>
</g>
<!-- nginx&#45;&gt;nginx -->
<g id="edge51" class="edge">
<title>nginx&#45;&gt;nginx</title>
<path fill="none" stroke="#444444" stroke-opacity="0.333333" d="M1481.6655,-611.8433C1492.415,-610.8512 1499.6,-608.8434 1499.6,-605.82 1499.6,-603.8831 1496.6513,-602.3631 1491.7057,-601.2598"/>
<polygon fill="#444444" fill-opacity="0.333333" stroke="#444444" stroke-opacity="0.333333" points="1492.0657,-597.7754 1481.6655,-599.7967 1491.0562,-604.7023 1492.0657,-597.7754"/>
</g>
<!-- nginx&#45;&gt;nginx&#45;filesystem -->
<g id="edge52" class="edge">
<title>nginx&#45;&gt;nginx&#45;filesystem</title>
<path fill="none" stroke="#444444" stroke-opacity="0.333333" d="M1423.1254,-624.018C1430.2302,-630.814 1438.4296,-638.6568 1446.0759,-645.9706"/>
<polygon fill="#444444" fill-opacity="0.333333" stroke="#444444" stroke-opacity="0.333333" points="1443.8309,-648.6666 1453.4767,-653.0495 1448.6695,-643.608 1443.8309,-648.6666"/>
</g>
<!-- nginx&#45;&gt;nginx&#45;mimetypes -->
<g id="edge53" class="edge">
<title>nginx&#45;&gt;nginx&#45;mimetypes</title>
<path fill="none" stroke="#444444" stroke-opacity="0.333333" d="M1445.0066,-623.9469C1510.7502,-653.0799 1639.729,-710.2342 1710.7872,-741.7221"/>
<polygon fill="#444444" fill-opacity="0.333333" stroke="#444444" stroke-opacity="0.333333" points="1709.4364,-744.9518 1719.997,-745.8033 1712.2724,-738.552 1709.4364,-744.9518"/>
</g>
<!-- nginx&#45;&gt;openssl -->
<g id="edge54" class="edge">
<title>nginx&#45;&gt;openssl</title>
<path fill="none" stroke="#444444" stroke-opacity="0.333333" d="M1413.1075,-587.5449C1424.9194,-563.5798 1445.7476,-521.3218 1459.4624,-493.4963"/>
<polygon fill="#444444" fill-opacity="0.333333" stroke="#444444" stroke-opacity="0.333333" points="1462.7087,-494.8266 1463.9903,-484.3096 1456.4299,-491.7319 1462.7087,-494.8266"/>
</g>
<!-- nginx&#45;filesystem&#45;&gt;Fedora Container Base -->
<g id="edge55" class="edge">
<title>nginx&#45;filesystem&#45;&gt;Fedora Container Base</title>
<path fill="none" stroke="#444444" stroke-opacity="0.333333" d="M1396.2618,-658.9549C1313.7087,-645.7324 1181.7414,-624.5952 1091.9168,-610.2079"/>
<polygon fill="#444444" fill-opacity="0.333333" stroke="#444444" stroke-opacity="0.333333" points="1092.4251,-606.7448 1081.9974,-608.6192 1091.318,-613.6567 1092.4251,-606.7448"/>
</g>
<!-- nginx&#45;filesystem&#45;&gt;shadow&#45;utils -->
<g id="edge56" class="edge">
<title>nginx&#45;filesystem&#45;&gt;shadow&#45;utils</title>
<path fill="none" stroke="#444444" stroke-opacity="0.333333" d="M1452.0009,-652.7923C1403.9445,-609.5451 1283.5605,-501.2084 1228.8454,-451.9688"/>
<polygon fill="#444444" fill-opacity="0.333333" stroke="#444444" stroke-opacity="0.333333" points="1231.0401,-449.2353 1221.2656,-445.1476 1226.3576,-454.4386 1231.0401,-449.2353"/>
</g>
<!-- nginx&#45;mimetypes&#45;&gt;nginx&#45;filesystem -->
<g id="edge57" class="edge">
<title>nginx&#45;mimetypes&#45;&gt;nginx&#45;filesystem</title>
<path fill="none" stroke="#444444" stroke-opacity="0.333333" d="M1704.4285,-745.7484C1656.8042,-730.437 1588.4859,-708.4723 1538.3112,-692.3408"/>
<polygon fill="#444444" fill-opacity="0.333333" stroke="#444444" stroke-opacity="0.333333" points="1539.121,-688.9248 1528.5296,-689.196 1536.9784,-695.5888 1539.121,-688.9248"/>
</g>
<!-- nginx&#45;mimetypes&#45;&gt;nginx&#45;mimetypes -->
<g id="edge58" class="edge">
<title>nginx&#45;mimetypes&#45;&gt;nginx&#45;mimetypes</title>
<path fill="none" stroke="#444444" stroke-opacity="0.333333" d="M1846.777,-769.7182C1857.5864,-768.6822 1864.7,-766.7228 1864.7,-763.84 1864.7,-761.9932 1861.7806,-760.5254 1856.8403,-759.4365"/>
<polygon fill="#444444" fill-opacity="0.333333" stroke="#444444" stroke-opacity="0.333333" points="1857.1789,-755.9488 1846.777,-757.9618 1856.1639,-762.8748 1857.1789,-755.9488"/>
</g>
<!-- openssl&#45;&gt;Fedora Container Base -->
<g id="edge59" class="edge">
<title>openssl&#45;&gt;Fedora Container Base</title>
<path fill="none" stroke="#444444" stroke-opacity="0.333333" d="M1416.3161,-481.2978C1328.6998,-504.8973 1160.5756,-550.1815 1065.4066,-575.8152"/>
<polygon fill="#444444" fill-opacity="0.333333" stroke="#444444" stroke-opacity="0.333333" points="1064.3292,-572.4806 1055.5836,-578.4611 1066.1498,-579.2397 1064.3292,-572.4806"/>
</g>
<!-- Fedora Container Base -->
<g id="node1" class="node">
<title>Fedora Container Base</title>
<ellipse fill="none" stroke="#000000" cx="995.22" cy="-594.72" rx="136.5" ry="18"/>
<text text-anchor="middle" x="995.22" y="-591.02" font-family="Helvetica,sans-Serif" font-weight="bold" font-size="14.00" fill="#000000">Fedora Container Base (215.7 MB)</text>
</g>
<!-- device&#45;mapper&#45;libs -->
<g id="node2" class="node">
<title>device&#45;mapper&#45;libs</title>
<text text-anchor="middle" x="1046.6" y="-950.13" font-family="Helvetica,sans-Serif" font-weight="bold" font-size="14.00" fill="#000000">device&#45;mapper&#45;libs (435.2 kB)</text>
</g>
<!-- device&#45;mapper -->
<g id="node3" class="node">
<title>device&#45;mapper</title>
<text text-anchor="middle" x="1031.9" y="-694.49" font-family="Helvetica,sans-Serif" font-weight="bold" font-size="14.00" fill="#000000">device&#45;mapper (352.1 kB)</text>
</g>
<!-- libargon2 -->
<g id="node4" class="node">
<title>libargon2</title>
<text text-anchor="middle" x="1074" y="-1077" font-family="Helvetica,sans-Serif" font-weight="bold" font-size="14.00" fill="#000000">libargon2 (62.9 kB)</text>
</g>
<!-- dbus&#45;broker -->
<g id="node5" class="node">
<title>dbus&#45;broker</title>
<text text-anchor="middle" x="1002.4" y="-239.1" font-family="Helvetica,sans-Serif" font-weight="bold" font-size="14.00" fill="#000000">dbus&#45;broker (708.1 kB)</text>
</g>
<!-- dbus&#45;common -->
<g id="node6" class="node">
<title>dbus&#45;common</title>
<text text-anchor="middle" x="845.88" y="-198.28" font-family="Helvetica,sans-Serif" font-weight="bold" font-size="14.00" fill="#000000">dbus&#45;common (11.2 kB)</text>
</g>
<!-- shadow&#45;utils -->
<g id="node7" class="node">
<title>shadow&#45;utils</title>
<text text-anchor="middle" x="1201" y="-423.21" font-family="Helvetica,sans-Serif" font-weight="bold" font-size="14.00" fill="#000000">shadow&#45;utils (5.0 MB)</text>
</g>
<!-- systemd -->
<g id="node8" class="node">
<title>systemd</title>
<text text-anchor="middle" x="816.98" y="-486.9" font-family="Helvetica,sans-Serif" font-weight="bold" font-size="14.00" fill="#000000">systemd (11.8 MB)</text>
</g>
<!-- libsemanage -->
<g id="node9" class="node">
<title>libsemanage</title>
<text text-anchor="middle" x="1382" y="-299.6" font-family="Helvetica,sans-Serif" font-weight="bold" font-size="14.00" fill="#000000">libsemanage (420.5 kB)</text>
</g>
<!-- util&#45;linux -->
<g id="node10" class="node">
<title>util&#45;linux</title>
<text text-anchor="middle" x="1069.5" y="-375.67" font-family="Helvetica,sans-Serif" font-weight="bold" font-size="14.00" fill="#000000">util&#45;linux (13.1 MB)</text>
</g>
<!-- iptables&#45;libs -->
<g id="node11" class="node">
<title>iptables&#45;libs</title>
<text text-anchor="middle" x="736.92" y="-859.79" font-family="Helvetica,sans-Serif" font-weight="bold" font-size="14.00" fill="#000000">iptables&#45;libs (159.3 kB)</text>
</g>
<!-- acl -->
<g id="node12" class="node">
<title>acl</title>
<text text-anchor="middle" x="678.79" y="-366.31" font-family="Helvetica,sans-Serif" font-weight="bold" font-size="14.00" fill="#000000">acl (239.3 kB)</text>
</g>
<!-- cryptsetup&#45;libs -->
<g id="node13" class="node">
<title>cryptsetup&#45;libs</title>
<text text-anchor="middle" x="936.3" y="-865.04" font-family="Helvetica,sans-Serif" font-weight="bold" font-size="14.00" fill="#000000">cryptsetup&#45;libs (1.9 MB)</text>
</g>
<!-- dbus -->
<g id="node14" class="node">
<title>dbus</title>
<text text-anchor="middle" x="743.21" y="-14.3" font-family="Helvetica,sans-Serif" font-weight="bold" font-size="14.00" fill="#000000">dbus (0.0 B)</text>
</g>
<!-- kmod&#45;libs -->
<g id="node15" class="node">
<title>kmod&#45;libs</title>
<text text-anchor="middle" x="614.03" y="-681.15" font-family="Helvetica,sans-Serif" font-weight="bold" font-size="14.00" fill="#000000">kmod&#45;libs (280.7 kB)</text>
</g>
<!-- libseccomp -->
<g id="node16" class="node">
<title>libseccomp</title>
<text text-anchor="middle" x="563.32" y="-556.68" font-family="Helvetica,sans-Serif" font-weight="bold" font-size="14.00" fill="#000000">libseccomp (391.9 kB)</text>
</g>
<!-- qrencode&#45;libs -->
<g id="node17" class="node">
<title>qrencode&#45;libs</title>
<text text-anchor="middle" x="563.38" y="-424.7" font-family="Helvetica,sans-Serif" font-weight="bold" font-size="14.00" fill="#000000">qrencode&#45;libs (150.6 kB)</text>
</g>
<!-- systemd&#45;pam -->
<g id="node18" class="node">
<title>systemd&#45;pam</title>
<text text-anchor="middle" x="696.65" y="-242.38" font-family="Helvetica,sans-Serif" font-weight="bold" font-size="14.00" fill="#000000">systemd&#45;pam (331.6 kB)</text>
</g>
<!-- systemd&#45;rpm&#45;macros -->
<g id="node19" class="node">
<title>systemd&#45;rpm&#45;macros</title>
<text text-anchor="middle" x="357.08" y="-228.49" font-family="Helvetica,sans-Serif" font-weight="bold" font-size="14.00" fill="#000000">systemd&#45;rpm&#45;macros (4.0 kB)</text>
</g>
<!-- diffutils -->
<g id="node20" class="node">
<title>diffutils</title>
<text text-anchor="middle" x="747.72" y="-709.92" font-family="Helvetica,sans-Serif" font-weight="bold" font-size="14.00" fill="#000000">diffutils (1.7 MB)</text>
</g>
<!-- libxkbcommon -->
<g id="node21" class="node">
<title>libxkbcommon</title>
<text text-anchor="middle" x="474.84" y="-784.66" font-family="Helvetica,sans-Serif" font-weight="bold" font-size="14.00" fill="#000000">libxkbcommon (329.2 kB)</text>
</g>
<!-- libfdisk -->
<g id="node22" class="node">
<title>libfdisk</title>
<text text-anchor="middle" x="1138" y="-127.9" font-family="Helvetica,sans-Serif" font-weight="bold" font-size="14.00" fill="#000000">libfdisk (579.6 kB)</text>
</g>
<!-- libutempter -->
<g id="node23" class="node">
<title>libutempter</title>
<text text-anchor="middle" x="1238.4" y="-247.05" font-family="Helvetica,sans-Serif" font-weight="bold" font-size="14.00" fill="#000000">libutempter (61.4 kB)</text>
</g>
<!-- libunwind -->
<g id="node24" class="node">
<title>libunwind</title>
<text text-anchor="middle" x="1303" y="-990.39" font-family="Helvetica,sans-Serif" font-weight="bold" font-size="14.00" fill="#000000">libunwind (364.5 kB)</text>
</g>
<!-- libpcap -->
<g id="node25" class="node">
<title>libpcap</title>
<text text-anchor="middle" x="776.56" y="-1053.1" font-family="Helvetica,sans-Serif" font-weight="bold" font-size="14.00" fill="#000000">libpcap (417.1 kB)</text>
</g>
<!-- xkeyboard&#45;config -->
<g id="node26" class="node">
<title>xkeyboard&#45;config</title>
<text text-anchor="middle" x="83.5" y="-1013.3" font-family="Helvetica,sans-Serif" font-weight="bold" font-size="14.00" fill="#000000">xkeyboard&#45;config (5.6 MB)</text>
</g>
<!-- fedora&#45;logos&#45;httpd -->
<g id="node27" class="node">
<title>fedora&#45;logos&#45;httpd</title>
<text text-anchor="middle" x="1888.1" y="-539.79" font-family="Helvetica,sans-Serif" font-weight="bold" font-size="14.00" fill="#000000">fedora&#45;logos&#45;httpd (10.0 kB)</text>
</g>
<!-- gperftools&#45;libs -->
<g id="node28" class="node">
<title>gperftools&#45;libs</title>
<text text-anchor="middle" x="1373.3" y="-837.28" font-family="Helvetica,sans-Serif" font-weight="bold" font-size="14.00" fill="#000000">gperftools&#45;libs (2.0 MB)</text>
</g>
<!-- nginx -->
<g id="node29" class="node">
<title>nginx</title>
<text text-anchor="middle" x="1404.1" y="-600.22" font-family="Helvetica,sans-Serif" font-weight="bold" font-size="22.00" fill="#cc0066">nginx (1.9 MB)</text>
</g>
<!-- nginx&#45;filesystem -->
<g id="node30" class="node">
<title>nginx&#45;filesystem</title>
<text text-anchor="middle" x="1472.4" y="-667.45" font-family="Helvetica,sans-Serif" font-weight="bold" font-size="14.00" fill="#000000">nginx&#45;filesystem (0.0 B)</text>
</g>
<!-- nginx&#45;mimetypes -->
<g id="node31" class="node">
<title>nginx&#45;mimetypes</title>
<text text-anchor="middle" x="1760.7" y="-760.14" font-family="Helvetica,sans-Serif" font-weight="bold" font-size="14.00" fill="#000000">nginx&#45;mimetypes (39.3 kB)</text>
</g>
<!-- openssl -->
<g id="node32" class="node">
<title>openssl</title>
<text text-anchor="middle" x="1473" y="-462.33" font-family="Helvetica,sans-Serif" font-weight="bold" font-size="14.00" fill="#000000">openssl (1.2 MB)</text>
</g>
</g>

<script type="text/javascript"><![CDATA[

document.addEventListener('click', function(e) {
      e = e || window.event;
      var target = e.target || e.srcElement;
      text = target.parentElement.querySelector("title").textContent;

      console.log("Clicked on: " + text);
      // reset all strokes
      var nodes = document.getElementsByClassName("edge");

      for (index = 0, len = nodes.length; index < len; ++index) {
          //var title = nodes[index].querySelector("title").textContent.split("->");
          id = nodes[index].id;
          document.getElementById(id).querySelector("path").setAttribute("stroke-width", "1");
          document.getElementById(id).querySelector("path").setAttribute("stroke-opacity", "0.5");
          document.getElementById(id).querySelector("path").setAttribute("stroke", "#444444");
          document.getElementById(id).querySelector("polygon").setAttribute("stroke-width", "1");
          document.getElementById(id).querySelector("polygon").setAttribute("stroke-opacity", "0.5");
          document.getElementById(id).querySelector("polygon").setAttribute("stroke", "#444444");
      }
      // reset text highlight
      pkgs = document.getElementsByClassName("node");
      for (index2 = 0, len2 = pkgs.length; index2 < len2; ++index2) {
          target_id = pkgs[index2].id;
          document.getElementById(target_id).querySelector("text").setAttribute("font-weight", "normal");
      }

      // highlight deps
      var nodes = document.getElementsByClassName("edge");
      for (index = 0, len = nodes.length; index < len; ++index) {
        var title = nodes[index].querySelector("title").textContent.split("->");

        if (title[0] == text) {
          id = nodes[index].id;
          //console.log("ID:   " + id);
          document.getElementById(id).querySelector("path").setAttribute("stroke-width", "3");
          document.getElementById(id).querySelector("path").setAttribute("stroke-opacity", "1");
          document.getElementById(id).querySelector("path").setAttribute("stroke", "#aa3333");
          document.getElementById(id).querySelector("polygon").setAttribute("stroke-width", "5");
          document.getElementById(id).querySelector("polygon").setAttribute("stroke-opacity", "1");
          document.getElementById(id).querySelector("polygon").setAttribute("stroke", "#aa3333");

        }
        if (title[1] == text) {
          id = nodes[index].id;
          document.getElementById(id).querySelector("path").setAttribute("stroke-width", "3");
          document.getElementById(id).querySelector("path").setAttribute("stroke-opacity", "1");
          document.getElementById(id).querySelector("path").setAttribute("stroke", "#333377");
          document.getElementById(id).querySelector("polygon").setAttribute("stroke-width", "5");
          document.getElementById(id).querySelector("polygon").setAttribute("stroke-opacity", "1");
          document.getElementById(id).querySelector("polygon").setAttribute("stroke", "#333377");
        }

        if (title[0] == text || title[1] == text) {
          pkgs = document.getElementsByClassName("node");
          for (index2 = 0, len2 = pkgs.length; index2 < len2; ++index2) {
            var pkg_name = pkgs[index2].querySelector("title").textContent;
            if (pkg_name == title[0] || pkg_name == title[1]) {
              target_id = pkgs[index2].id;
              document.getElementById(target_id).querySelector("text").setAttribute("font-weight", "bold");
            }
          }
        }
      }


  }, false);

]]></script>

</svg>
