<?xml version="1.0" encoding="UTF-8" standalone="no"?>
<!DOCTYPE svg PUBLIC "-//W3C//DTD SVG 1.1//EN"
 "http://www.w3.org/Graphics/SVG/1.1/DTD/svg11.dtd">
<!-- Generated by graphviz version 2.40.1 (0)
 -->
<!-- Title: packages Pages: 1 -->
<svg width="1974pt" height="1210pt"
 viewBox="0.00 0.00 2369.11 1452.55" xmlns="http://www.w3.org/2000/svg" xmlns:xlink="http://www.w3.org/1999/xlink">
<g id="graph0" class="graph" transform="scale(.8333 .8333) rotate(0) translate(129.9679 1292.8907)">
<title>packages</title>
<polygon fill="#dae2ff" stroke="transparent" points="-129.9679,159.6628 -129.9679,-1292.8907 2239.1426,-1292.8907 2239.1426,159.6628 -129.9679,159.6628"/>
<polygon fill="#fed9a6" stroke="#fed9a6" points="1242.733,-605.1964 1229.6998,-601.6516 1141.8796,-572.4417 1130.5054,-570.2136 1120.9414,-569.6595 1117.8186,-569.9098 1111.3464,-569.9703 1108.4663,-569.7943 1107.3467,-569.5654 1107.219,-569.5571 1094.8527,-569.6108 1093.1846,-569.7335 1090.9041,-569.5789 1089.3334,-569.5804 1088.2246,-569.5032 1080.1658,-569.4974 1074.235,-569.075 1073.7446,-569.0058 1065.1672,-567.1851 1060.5339,-565.8768 1059.2936,-565.4395 1046.7587,-560.1028 1037.3517,-554.7796 1036.9489,-554.524 1027.3348,-547.7254 1013.1513,-535.6718 1009.626,-531.9318 1004.7071,-527.4902 995.4096,-518.5176 980.0965,-501.868 978.1328,-499.8528 955.9759,-475.9694 936.6305,-571.1163 931.5367,-605.2155 931.4078,-609.0185 930.4653,-619.4391 919.9594,-671.1103 989.0105,-714.0385 1004.2515,-724.807 1005.1491,-725.5147 1021.7919,-740.1041 1026.0024,-743.9686 1030.1664,-748.1437 1035.8589,-748.2048 1039.4902,-748.0862 1044.2931,-748.1343 1046.3304,-748.1107 1048.3146,-748.1722 1058.2333,-748.2648 1059.0135,-748.2552 1059.6678,-748.2611 1066.98,-748.0104 1073.3528,-748.199 1080.0013,-748.6799 1088.262,-741.3912 1101.3602,-730.8477 1110.8271,-723.9739 1124.4076,-715.1757 1208.1201,-664.3427 1209.5947,-663.3923 1216.4055,-658.4744 1228.8767,-648.9807 1233.4169,-645.3558 1235.0046,-644.1565 1242.733,-605.1964 1242.733,-605.1964"/>
<polygon fill="#fbb4ae" stroke="#fbb4ae" points="1099.6674,-1106.6644 1096.3909,-1094.9974 1086.5659,-1067.5856 1061.0074,-1015.7656 1123.3497,-1004.5091 1124.6252,-1004.3857 1137.3322,-1003.6839 1143.1567,-1003.8499 1149.234,-1003.5175 1152.5933,-1003.4749 1154.2323,-1003.3859 1163.8822,-1003.6715 1165.1683,-1003.6562 1166.7511,-1003.5058 1177.7136,-1003.8423 1181.9978,-1003.6173 1184.3131,-1003.593 1187.1213,-1003.4467 1193.6793,-1003.6545 1199.1169,-1003.3754 1207.0172,-1002.6406 1218.5944,-1001.0825 1219.8943,-1000.8543 1228.9709,-998.5076 1321.6198,-970.7203 1322.5415,-971.0772 1329.6207,-973.9835 1344.6018,-980.8319 1347.3855,-982.2324 1360.178,-988.9678 1379.4426,-1000.4539 1392.1837,-1008.9276 1397.6459,-1012.8113 1405.9493,-1018.9081 1411.0254,-1022.7515 1392.4463,-1066.4041 1380.0886,-1098.7328 1349.1967,-1184.7159 1267.0066,-1245.2563 1225.6871,-1242.0341 1217.0808,-1241.6619 1205.8992,-1241.5668 1188.3958,-1242.0265 1179.8093,-1242.8491 1167.2905,-1244.2668 1161.5497,-1245.1169 1157.3794,-1234.3906 1146.7719,-1208.5162 1143.526,-1201.0725 1112.1307,-1137.4185 1103.1834,-1116.5562 1099.6674,-1106.6644 1099.6674,-1106.6644"/>
<polygon fill="#fed9a6" stroke="#fed9a6" points="1312.6167,-959.3131 1280.3627,-918.1151 1238.8798,-856.9223 1233.8806,-855.2997 1224.1609,-852.8386 1218.7119,-851.6544 1208.1293,-850.1095 1204.6998,-849.7318 1193.1062,-848.8686 1186,-848.0684 1175.0386,-846.4156 1170.6586,-845.4229 1155.6401,-841.4422 1153.917,-840.8566 1146.0605,-837.8853 1143.1047,-836.6552 1141.75,-838.7674 1131.6917,-853.3619 1123.2047,-863.7737 1120.4036,-866.8947 1107.0062,-880.39 1081.9271,-920.1617 1079.4957,-923.357 1067.5156,-936.6251 1054.2688,-953.0801 1052.5862,-954.9725 1045.0674,-965.85 1033.092,-984.5414 1024.4709,-999.8237 1021.4592,-999.8223 1019.5105,-999.7758 1018.6037,-999.798 1018.2586,-999.7902 1010.2748,-999.9977 1001.297,-999.8104 995.1147,-999.9805 990.1572,-999.8846 909.5049,-1002.2202 849.0001,-906.1442 847.444,-905.6628 794.1387,-891.4189 788.3978,-882.8123 785.3904,-878.0651 725.8597,-773.2401 710.3453,-769.2592 701.6149,-767.4462 686.7347,-765.0822 685.0966,-764.9022 673.6547,-763.9245 662.4935,-763.5162 659.0422,-763.4744 654.5363,-763.5296 655.3496,-836.7664 655.3496,-836.7664 654.5363,-763.5296 647.6765,-763.2689 643.0934,-762.9794 627.8741,-761.2502 628.4914,-837.1154 625.7502,-875.0952 620.7553,-875.0952 614.7184,-878.6916 613.9163,-879.61 614.982,-880.8461 620.7457,-884.2621 625.9669,-884.2621 625.9669,-884.2621 620.7457,-884.2621 614.982,-880.8461 613.9163,-879.61 614.7184,-878.6916 620.7553,-875.0952 625.7502,-875.0952 628.4914,-837.1154 627.8741,-761.2502 620.7378,-760.0804 606.0373,-756.9269 601.751,-755.7919 596.7343,-756.3248 588.9293,-756.9678 575.9946,-757.4175 563.6021,-758.4142 555.1643,-759.4782 546.6063,-760.7528 535.1946,-762.7117 522.5684,-766.0279 515.4803,-768.0507 510.1178,-769.7023 508.5736,-770.2128 505.736,-771.2156 351.6728,-829.1953 346.7873,-849.9767 335.5854,-895.073 328.0712,-922.4913 343.4898,-950.34 542.6475,-1047.9111 556.8905,-1075.097 613.986,-1153.5695 703.5922,-1215.3857 710.8487,-1217.5841 713.5123,-1108.8772 713.5123,-1108.8772 710.8487,-1217.5841 731.2999,-1224.7716 732.7203,-1224.292 744.8389,-1220.5771 745.2131,-1167.0966 744.8803,-1160.9631 735.3445,-1035.0909 740.8111,-1036.7053 746.1222,-1035.1058 746.1222,-1035.1058 740.8111,-1036.7053 735.3445,-1035.0909 744.8803,-1160.9631 745.2131,-1167.0966 744.8389,-1220.5771 769.9371,-1214.8134 770.243,-1214.7527 836.5743,-1202.597 931.2592,-1262.7864 936.0157,-1264.948 999.5278,-1286.9907 998.4431,-1160.5356 998.4431,-1160.5356 999.5278,-1286.9907 1004.4763,-1288.8907 1008.0348,-1287.6364 1010.3265,-1286.8701 1023.3852,-1282.9716 1038.4995,-1279.0045 1041.7389,-1278.272 1052.917,-1276.1458 1130.3577,-1262.8147 1161.5497,-1245.1169 1157.3794,-1234.3906 1146.7719,-1208.5162 1143.526,-1201.0725 1112.1307,-1137.4185 1103.1834,-1116.5562 1099.6674,-1106.6644 1096.3909,-1094.9974 1086.5659,-1067.5856 1061.0074,-1015.7656 1123.3497,-1004.5091 1124.6252,-1004.3857 1137.3322,-1003.6839 1143.1567,-1003.8499 1149.234,-1003.5175 1152.5933,-1003.4749 1154.2323,-1003.3859 1163.8822,-1003.6715 1165.1683,-1003.6562 1166.7511,-1003.5058 1177.7136,-1003.8423 1181.9978,-1003.6173 1184.3131,-1003.593 1187.1213,-1003.4467 1193.6793,-1003.6545 1199.1169,-1003.3754 1207.0172,-1002.6406 1218.5944,-1001.0825 1219.8943,-1000.8543 1228.9709,-998.5076 1321.6198,-970.7203 1312.933,-959.6968 1312.6167,-959.3131 1312.6167,-959.3131"/>
<polygon fill="#decbe4" stroke="#decbe4" points="1415.8188,-602.3212 1423.2584,-601.6792 1481.8547,-594.0338 1478.9346,-652.3552 1478.9835,-660.4164 1478.031,-678.9078 1477.5939,-682.9155 1477.6707,-695.5983 1474.5253,-758.4178 1525.4176,-806.7204 1525.8156,-807.0614 1539.5183,-819.3194 1545.8888,-825.2439 1557.1321,-836.0945 1572.6368,-853.2565 1552.5682,-879.9346 1465.9521,-1000.1691 1444.4639,-1013.4747 1411.0254,-1022.7515 1405.9493,-1018.9081 1397.6459,-1012.8113 1392.1837,-1008.9276 1379.4426,-1000.4539 1360.178,-988.9678 1360.6874,-882.2074 1367.0179,-831.1857 1369.972,-828.6632 1365.7314,-824.7208 1361.3113,-823.4292 1361.3113,-823.4292 1365.7314,-824.7208 1369.972,-828.6632 1367.0179,-831.1857 1360.6874,-882.2074 1360.178,-988.9678 1347.3855,-982.2324 1344.6018,-980.8319 1342.5947,-862.8779 1345.6233,-828.3502 1345.4601,-828.3012 1345.4601,-828.3012 1345.6233,-828.3502 1342.5947,-862.8779 1344.6018,-980.8319 1329.6207,-973.9835 1331.1624,-859.5927 1327.8495,-828.5042 1329.1361,-828.1107 1327.408,-785.3914 1327.8894,-772.9535 1315.1381,-783.5751 1312.4802,-785.4695 1277.0341,-773.5253 1274.6385,-770.6 1271.2174,-769.1103 1274.5355,-817.95 1263.9459,-828.0109 1267.1909,-768.7545 1262.0292,-768.7545 1258.8405,-833.3788 1258.5394,-833.7257 1256.5459,-809.4086 1250.0392,-769.3773 1247.0955,-771.7518 1240.8536,-773.5572 1236.619,-772.3888 1232.2156,-768.5349 1232.2156,-768.5349 1236.619,-772.3888 1240.8536,-773.5572 1247.0955,-771.7518 1250.0392,-769.3773 1256.5459,-809.4086 1258.5394,-833.7257 1258.8405,-833.3788 1262.0292,-768.7545 1267.1909,-768.7545 1263.9459,-828.0109 1274.5355,-817.95 1271.2174,-769.1103 1274.6385,-770.6 1277.0341,-773.5253 1312.4802,-785.4695 1315.1381,-783.5751 1327.8894,-772.9535 1327.408,-785.3914 1329.1361,-828.1107 1327.8495,-828.5042 1331.1624,-859.5927 1329.6207,-973.9835 1322.5415,-971.0772 1321.6198,-970.7203 1312.933,-959.6968 1312.6167,-959.3131 1280.3627,-918.1151 1238.8798,-856.9223 1233.8806,-855.2997 1224.1609,-852.8386 1218.7119,-851.6544 1208.1293,-850.1095 1204.6998,-849.7318 1193.1062,-848.8686 1186,-848.0684 1175.0386,-846.4156 1170.6586,-845.4229 1155.6401,-841.4422 1153.917,-840.8566 1146.0605,-837.8853 1143.1047,-836.6552 1096.3871,-768.68 1080.0013,-748.6799 1088.262,-741.3912 1101.3602,-730.8477 1110.8271,-723.9739 1124.4076,-715.1757 1208.1201,-664.3427 1209.5947,-663.3923 1216.4055,-658.4744 1228.8767,-648.9807 1233.4169,-645.3558 1235.0046,-644.1565 1242.733,-605.1964 1229.6998,-601.6516 1141.8796,-572.4417 1130.5054,-570.2136 1120.9414,-569.6595 1120.7708,-559.4367 1123.5107,-524.4765 1124.1946,-523.7189 1122.1512,-521.2762 1118.1273,-519.0182 1118.1273,-519.0182 1122.1512,-521.2762 1124.1946,-523.7189 1123.5107,-524.4765 1120.7708,-559.4367 1120.9414,-569.6595 1117.8186,-569.9098 1111.3464,-569.9703 1108.4663,-569.7943 1107.3467,-569.5654 1107.219,-569.5571 1094.8527,-569.6108 1093.1846,-569.7335 1090.9041,-569.5789 1089.3334,-569.5804 1088.2246,-569.5032 1080.1658,-569.4974 1074.235,-569.075 1073.7446,-569.0058 1065.1672,-567.1851 1060.5339,-565.8768 1059.2936,-565.4395 1046.7587,-560.1028 1037.3517,-554.7796 1036.9489,-554.524 1027.3348,-547.7254 1013.1513,-535.6718 1009.626,-531.9318 1004.7071,-527.4902 995.4096,-518.5176 980.0965,-501.868 978.1328,-499.8528 955.9759,-475.9694 950.712,-460.6902 940.1997,-457.1894 910.8406,-409.32 876.2419,-340.6365 874.5309,-337.5028 809.9088,-304.8898 806.9561,-249.1193 807.1683,-241.0193 807.0243,-230.3543 806.7715,-227.6317 797.89,-59.8779 829.2758,-48.4437 860.1633,6.97 900.6621,86.8682 944.0108,119.7623 1001.868,140.6584 1020.4518,142.1873 1024.5399,142.5961 1037.3357,144.5581 1037.254,-13.4682 1032.2078,-13.4682 1032.2078,-13.4682 1037.254,-13.4682 1041.907,-16.1964 1043.5001,-18.1742 1042.647,-19.192 1042.647,-19.192 1043.5001,-18.1742 1041.907,-16.1964 1037.254,-13.4682 1037.3357,144.5581 1044.7089,145.8196 1056.0436,148.1619 1089.4802,155.6628 1154.4739,120.8558 1217.9576,-18 1231.3323,-43.4237 1237.7175,-46.6959 1203.8112,-212.02 1175.2632,-212.02 1153.8431,-205.4731 1148.6779,-208.3698 1146.1412,-211.9981 1145.8718,-212.192 1144.9169,-212.192 1139.97,-240.0715 1137.5616,-215.5246 1141.4437,-211.9111 1138.0806,-208.8588 1138.0806,-208.8588 1141.4437,-211.9111 1137.5616,-215.5246 1139.97,-240.0715 1144.9169,-212.192 1145.8718,-212.192 1146.1412,-211.9981 1148.6779,-208.3698 1153.8431,-205.4731 1175.2632,-212.02 1203.8112,-212.02 1237.7175,-46.6959 1252.8159,-49.7081 1260.1849,-51.0575 1283.8904,-54.2352 1296.2471,-55.2816 1312.6273,-55.8623 1315.3051,-55.9132 1313.5332,-229.5693 1312.6036,-231.148 1312.6,-231.1511 1307.9045,-231.1511 1307.5896,-231.2471 1303.5037,-231.2471 1302.8604,-231.4451 1301.554,-297.367 1296.55,-231.6335 1295.3875,-231.6335 1292.2257,-234.4093 1292.2257,-234.4093 1295.3875,-231.6335 1296.55,-231.6335 1301.554,-297.367 1302.8604,-231.4451 1303.5037,-231.2471 1307.5896,-231.2471 1307.9045,-231.1511 1312.6,-231.1511 1312.6036,-231.148 1313.5332,-229.5693 1315.3051,-55.9132 1319.877,-55.9251 1385.4818,-55.0196 1456.996,-150.3332 1483.8674,-217.3381 1465.2004,-231.35 1436.6904,-255.6862 1422.0826,-267.5973 1407.0063,-278.1057 1396.0817,-284.8448 1392.8204,-286.5947 1376.918,-294.5069 1372.1719,-296.4802 1369.1311,-297.6228 1367.5975,-298.1384 1332.4362,-308.5895 1321.1853,-350.0874 1318.4478,-370.9453 1318.2216,-372.0518 1316.4775,-385.452 1298.3142,-452.446 1273.6211,-464.3583 1270.3271,-466.0565 1269.375,-466.5793 1255.0659,-474.9283 1255.3071,-392.2655 1251.8971,-357.7765 1251.7648,-357.7765 1248.0133,-354.5537 1242.5176,-352.912 1242.5176,-352.912 1248.0133,-354.5537 1251.7648,-357.7765 1248.5599,-360.4321 1242.196,-362.3566 1237.002,-360.8332 1233.3232,-357.6631 1231.4126,-357.6631 1231.3417,-357.6431 1231.3417,-357.6431 1231.4126,-357.6631 1233.3232,-357.6631 1237.002,-360.8332 1242.196,-362.3566 1248.5599,-360.4321 1251.7648,-357.7765 1251.8971,-357.7765 1255.3071,-392.2655 1255.0659,-474.9283 1250.5848,-477.8404 1240.0009,-470.354 1238.7839,-469.6237 1226.0724,-462.4249 1224.3043,-461.4862 1209.7504,-454.2642 1212.9419,-386.0874 1211.0039,-363.5715 1119.3054,-365.0417 1122.208,-353.9174 1128.4491,-320.7314 1061.3076,-313.4258 1037.493,-306.7209 1040.6533,-303.3533 1040.6533,-303.3533 1037.493,-306.7209 1035.8215,-307.4054 1034.351,-308.681 1029.7988,-308.681 1029.7178,-308.6573 1025.7653,-308.6573 1024.6136,-309.0049 1019.8851,-309.0049 1019.0004,-308.731 1014.6089,-308.731 1012.6838,-306.3169 1009.0105,-304.2178 1009.0105,-304.2178 1012.6838,-306.3169 1014.6089,-308.731 1013.2222,-310.4076 1008.2786,-313.2733 1003.4221,-313.2733 997.2819,-309.4596 996.6518,-308.6875 998.4275,-306.4524 994.9177,-281.5297 995.1601,-257.1292 983.4764,-264.2115 971.9898,-268.9432 972.2178,-275.6241 972.2178,-275.6241 971.9898,-268.9432 983.4764,-264.2115 995.1601,-257.1292 994.9177,-281.5297 998.4275,-306.4524 996.6518,-308.6875 992.5469,-308.6875 992.5469,-308.6875 996.6518,-308.6875 997.2819,-309.4596 1003.4221,-313.2733 1008.2786,-313.2733 1013.2222,-310.4076 1014.6089,-308.731 1019.0004,-308.731 1019.8851,-309.0049 1024.6136,-309.0049 1025.7653,-308.6573 1029.7178,-308.6573 1029.7988,-308.681 1034.351,-308.681 1035.8215,-307.4054 1037.493,-306.7209 1061.3076,-313.4258 1128.4491,-320.7314 1122.208,-353.9174 1119.3054,-365.0417 1211.0039,-363.5715 1212.9419,-386.0874 1209.7504,-454.2642 1224.3043,-461.4862 1226.0724,-462.4249 1238.7839,-469.6237 1240.0009,-470.354 1250.5848,-477.8404 1249.0206,-514.2477 1248.6489,-519.3836 1248.4828,-531.3696 1248.6348,-541.2287 1246.1101,-599.9882 1346.6512,-602.4482 1357.34,-602.2358 1358.8586,-602.3344 1362.3535,-602.4059 1365.1499,-602.3392 1369.4764,-602.6028 1374.7257,-602.6893 1378.5065,-602.4153 1384.2134,-602.4863 1385.4724,-602.446 1387.2163,-602.4642 1392.5748,-602.7477 1395.3607,-602.7711 1400.0396,-602.3936 1404.6422,-602.4136 1407.4355,-602.3016 1415.8188,-602.3212 1415.8188,-602.3212"/>
<polygon fill="#ccebc5" stroke="#ccebc5" points="44.4993,-904.5386 45.3218,-843.1086 45.3218,-843.1086 44.4993,-904.5386 50.493,-905.8294 52.5387,-905.548 63.2192,-904.2742 63.5714,-863.754 63.5714,-863.754 63.2192,-904.2742 82.2035,-903.0524 79.0928,-812.9221 79.9942,-757.5771 84.9979,-757.5771 90.2674,-754.5177 91.4799,-753.1133 89.5391,-750.8535 85.5638,-748.6678 85.5638,-748.6678 89.5391,-750.8535 91.4799,-753.1133 90.2674,-754.5177 84.9979,-757.5771 79.9942,-757.5771 79.0928,-812.9221 82.2035,-903.0524 87.5779,-902.9037 100.8917,-903.2667 111.6484,-903.9545 124.145,-904.9825 119.4117,-783.3043 119.4117,-783.3043 124.145,-904.9825 298.4883,-925.6862 328.0712,-922.4913 335.5854,-895.073 346.7873,-849.9767 351.6728,-829.1953 505.736,-771.2156 508.5736,-770.2128 510.1178,-769.7023 515.4803,-768.0507 518.52,-634.736 517.9413,-634.5712 513.5425,-634.5712 509.8103,-549.1365 511.9763,-549.0041 518.8541,-548.8235 521.2187,-548.8438 521.4901,-530.6437 525.2911,-467.7355 530.0761,-464.8914 531.509,-463.1507 530.321,-461.7911 525.2129,-458.8727 519.6454,-458.8727 519.6454,-458.8727 525.2129,-458.8727 530.321,-461.7911 531.509,-463.1507 530.0761,-464.8914 525.2911,-467.7355 521.4901,-530.6437 521.2187,-548.8438 518.8541,-548.8235 511.9763,-549.0041 509.8103,-549.1365 513.5425,-634.5712 517.9413,-634.5712 518.52,-634.736 515.4803,-768.0507 522.5684,-766.0279 523.5468,-634.9183 528.0382,-634.9183 535.3854,-741.3359 533.7238,-637.9416 539.0761,-639.5312 539.0761,-639.5312 533.7238,-637.9416 535.3854,-741.3359 528.0382,-634.9183 523.5468,-634.9183 522.5684,-766.0279 535.1946,-762.7117 546.6063,-760.7528 555.1643,-759.4782 563.6021,-758.4142 562.513,-667.6969 562.513,-667.6969 563.6021,-758.4142 575.9946,-757.4175 588.9293,-756.9678 596.7343,-756.3248 601.751,-755.7919 606.0373,-756.9269 620.7378,-760.0804 627.8741,-761.2502 643.0934,-762.9794 647.6765,-763.2689 654.5363,-763.5296 659.0422,-763.4744 662.4935,-763.5162 673.6547,-763.9245 673.9309,-707.7214 673.9309,-707.7214 673.6547,-763.9245 685.0966,-764.9022 686.7347,-765.0822 688.4474,-705.9094 687.1208,-650.6215 692.8396,-652.2712 697.0648,-651.1073 697.0648,-651.1073 692.8396,-652.2712 687.1208,-650.6215 688.4474,-705.9094 686.7347,-765.0822 701.6149,-767.4462 710.3453,-769.2592 725.8597,-773.2401 725.8989,-773.1953 722.3654,-684.2931 722.3654,-684.2931 725.8989,-773.1953 739.9243,-758.55 802.0236,-681.1944 785.2949,-652.1234 778.9566,-637.9363 762.4133,-594.36 729.4025,-536.9941 724.5294,-527.9951 729.3248,-525.5522 736.2568,-414.7516 741.0421,-409.9334 741.4203,-409.2049 741.4799,-409.1875 745.9225,-409.1875 746.8789,-408.9008 746.8789,-408.9008 745.9225,-409.1875 741.4799,-409.1875 741.4203,-409.2049 741.0421,-409.9334 736.2568,-414.7516 729.3248,-525.5522 745.6191,-517.7617 751.9818,-514.9289 766.2353,-509.9614 768.7849,-509.156 771.5928,-508.3597 778.908,-506.5193 796.6495,-503.1929 797.7023,-503.0299 797.7736,-478.1138 800.7512,-415.8018 794.9951,-412.0563 793.4912,-409.7584 792.5385,-409.0585 794.4474,-406.4729 794.4474,-406.4729 792.5385,-409.0585 793.4912,-409.7584 794.9951,-412.0563 800.7512,-415.8018 797.7736,-478.1138 797.7023,-503.0299 826.4938,-500.429 827.4756,-500.3084 830.9349,-499.7713 843.9269,-496.899 857.0815,-493.1263 866.1887,-489.9196 883.2796,-482.7773 940.1997,-457.1894 910.8406,-409.32 876.2419,-340.6365 874.5309,-337.5028 809.9088,-304.8898 806.9561,-249.1193 807.1683,-241.0193 807.0243,-230.3543 806.7715,-227.6317 797.89,-59.8779 737.1296,-55.448 719.1616,-53.8703 698.384,-51.12 698.2976,-51.1073 694.8521,-50.5495 688.4183,-49.317 664.9454,-44.1198 636.9881,-36.2772 629.9453,-37.8396 592.2534,-54.3493 507.9801,-159.7975 501.4659,-211.6711 495.6243,-251.895 493.7383,-263.3742 490.0313,-283.6074 484.5428,-286.7837 358.8351,-354.2973 240.9279,-310.2489 230.4408,-305.9243 229.4509,-305.9124 210.8043,-305.0784 204.4489,-304.4825 200.6393,-304.063 196.5817,-444.2059 192.0618,-475.1903 192.1263,-475.21 193.3037,-476.6418 198.7364,-479.9478 204.033,-479.9478 208.7869,-477.2014 210.0852,-475.6677 210.0852,-475.6677 208.7869,-477.2014 213.9456,-612.9563 214.2452,-630.017 220.6097,-632.3011 243.2007,-641.7956 239.7483,-538.7133 239.7483,-538.7133 243.2007,-641.7956 220.6097,-632.3011 214.2452,-630.017 213.9456,-612.9563 208.7869,-477.2014 204.033,-479.9478 198.7364,-479.9478 193.3037,-476.6418 192.1263,-475.21 192.0618,-475.1903 196.5817,-444.2059 200.6393,-304.063 182.6667,-301.4933 171.6662,-299.5613 169.0675,-299.0627 164.6056,-298.0606 132.0811,-290.2224 21.8905,-386.3843 -18.3815,-475.53 -53.7649,-544.3409 -70.6543,-551.393 -124.7449,-690.6009 -124.6576,-753.09 -125.9679,-777.886 -68.3841,-875.9451 -50.6474,-887.625 44.4993,-904.5386 44.4993,-904.5386"/>
<polygon fill="#fbb4ae" stroke="#fbb4ae" points="1060.6908,-827.1018 1064.1034,-873.9221 1064.1034,-873.9221 1060.6908,-827.1018 1059.6678,-748.2611 1066.98,-748.0104 1073.3528,-748.199 1080.0013,-748.6799 1096.3871,-768.68 1143.1047,-836.6552 1141.75,-838.7674 1131.6917,-853.3619 1123.2047,-863.7737 1120.4036,-866.8947 1107.0062,-880.39 1081.9271,-920.1617 1079.4957,-923.357 1067.5156,-936.6251 1054.2688,-953.0801 1052.5862,-954.9725 1045.0674,-965.85 1033.092,-984.5414 1033.9744,-929.0544 1031.6466,-883.94 1026.9064,-885.3077 1021.2999,-883.6178 1017.7353,-880.3828 1016.3188,-880.3828 1016.1617,-880.3347 1009.3882,-880.3347 1009.2602,-880.2967 1006.9037,-880.2967 1006.1651,-880.518 999.2508,-880.518 998.5685,-880.3121 996.6702,-880.3121 996.6702,-880.3121 998.5685,-880.3121 999.2508,-880.518 1006.1651,-880.518 1006.9037,-880.2967 1009.2602,-880.2967 1009.3882,-880.3347 1016.1617,-880.3347 1016.3188,-880.3828 1017.7353,-880.3828 1021.2999,-883.6178 1026.9064,-885.3077 1031.6466,-883.94 1033.9744,-929.0544 1033.092,-984.5414 1024.4709,-999.8237 1021.4592,-999.8223 1019.5105,-999.7758 1018.6037,-999.798 1018.2586,-999.7902 1010.2748,-999.9977 1001.297,-999.8104 995.1147,-999.9805 990.1572,-999.8846 909.5049,-1002.2202 849.0001,-906.1442 847.444,-905.6628 794.1387,-891.4189 788.3978,-882.8123 785.3904,-878.0651 725.8597,-773.2401 725.8989,-773.1953 739.9243,-758.55 802.0236,-681.1944 785.2949,-652.1234 778.9566,-637.9363 762.4133,-594.36 729.4025,-536.9941 724.5294,-527.9951 729.3248,-525.5522 745.6191,-517.7617 751.9818,-514.9289 766.2353,-509.9614 768.7849,-509.156 771.5928,-508.3597 778.908,-506.5193 796.6495,-503.1929 797.7023,-503.0299 826.4938,-500.429 827.4756,-500.3084 826.5339,-592.323 827.3698,-593.795 827.3698,-593.795 826.5339,-592.323 827.4756,-500.3084 830.9349,-499.7713 843.9269,-496.899 857.0815,-493.1263 866.1887,-489.9196 883.2796,-482.7773 940.1997,-457.1894 950.712,-460.6902 955.9759,-475.9694 936.6305,-571.1163 931.5367,-605.2155 931.4078,-609.0185 930.4653,-619.4391 919.9594,-671.1103 989.0105,-714.0385 1004.2515,-724.807 1005.1491,-725.5147 1021.7919,-740.1041 1026.0024,-743.9686 1030.1664,-748.1437 1035.8589,-748.2048 1039.4902,-748.0862 1044.2931,-748.1343 1046.3304,-748.1107 1048.3146,-748.1722 1058.2333,-748.2648 1059.0135,-748.2552 1059.6678,-748.2611 1060.6908,-827.1018 1060.6908,-827.1018"/>
<polygon fill="#fed9a6" stroke="#fed9a6" points="1369.1311,-297.6228 1367.5975,-298.1384 1332.4362,-308.5895 1321.1853,-350.0874 1318.4478,-370.9453 1318.2216,-372.0518 1316.4775,-385.452 1349.9202,-384.0161 1363.2273,-386.9494 1368.569,-383.2456 1368.9221,-423.2083 1375.1001,-380.8323 1378.5797,-380.8323 1378.8818,-380.744 1384.1967,-380.744 1385.5206,-380.3539 1388.0134,-380.3539 1389.0121,-381.5095 1389.0121,-381.5095 1388.0134,-380.3539 1385.5206,-380.3539 1384.1967,-380.744 1378.8818,-380.744 1378.5797,-380.8323 1375.1001,-380.8323 1368.9221,-423.2083 1368.569,-383.2456 1363.2273,-386.9494 1349.9202,-384.0161 1316.4775,-385.452 1298.3142,-452.446 1273.6211,-464.3583 1270.3271,-466.0565 1269.375,-466.5793 1255.0659,-474.9283 1250.5848,-477.8404 1249.0206,-514.2477 1248.6489,-519.3836 1248.4828,-531.3696 1248.6348,-541.2287 1344.5405,-535.6183 1354.1444,-538.695 1359.7346,-535.4856 1362.0537,-532.1799 1364.0715,-532.1799 1366.37,-566.8157 1371.0154,-532.4206 1374.3622,-535.2244 1374.3622,-535.2244 1371.0154,-532.4206 1366.37,-566.8157 1364.0715,-532.1799 1362.0537,-532.1799 1359.7346,-535.4856 1354.1444,-538.695 1344.5405,-535.6183 1248.6348,-541.2287 1246.1101,-599.9882 1346.6512,-602.4482 1357.34,-602.2358 1358.8586,-602.3344 1362.3535,-602.4059 1365.1499,-602.3392 1369.4764,-602.6028 1374.7257,-602.6893 1378.5065,-602.4153 1384.2134,-602.4863 1385.4724,-602.446 1387.2163,-602.4642 1392.5748,-602.7477 1395.3607,-602.7711 1400.0396,-602.3936 1404.6422,-602.4136 1407.4355,-602.3016 1415.8188,-602.3212 1423.2584,-601.6792 1481.8547,-594.0338 1531.1848,-546.6075 1538.2554,-539.5212 1540.9351,-536.7279 1544.4431,-536.7232 1547.1433,-536.6156 1560.6053,-536.9056 1561.5878,-536.9078 1561.9329,-536.9156 1566.7102,-536.9321 1567.4019,-536.8945 1584.2379,-536.6679 1585.989,-536.6105 1588.8694,-536.5753 1608.1096,-535.2275 1610.2314,-535.0382 1786.3647,-512.556 1758.1034,-413.0324 1745.5093,-362.2325 1742.4334,-348.7874 1702.0441,-257.6654 1701.918,-257.6186 1572.2279,-245.9135 1570.6473,-245.7093 1554.4902,-242.9867 1546.0374,-241.3974 1538.3755,-239.658 1525.1255,-236.3917 1525.408,-250.802 1525.3912,-296.7779 1525.3912,-296.7779 1525.408,-250.802 1525.1255,-236.3917 1502.6359,-229.5385 1483.8674,-217.3381 1465.2004,-231.35 1436.6904,-255.6862 1422.0826,-267.5973 1407.0063,-278.1057 1396.0817,-284.8448 1392.8204,-286.5947 1376.918,-294.5069 1372.1719,-296.4802 1369.1311,-297.6228 1369.1311,-297.6228"/>
<polygon fill="#b3cde3" stroke="#b3cde3" points="1538.2554,-539.5212 1531.1848,-546.6075 1481.8547,-594.0338 1478.9346,-652.3552 1478.9835,-660.4164 1478.031,-678.9078 1477.5939,-682.9155 1477.6707,-695.5983 1474.5253,-758.4178 1525.4176,-806.7204 1525.8156,-807.0614 1534.5745,-683.4718 1539.3818,-678.6558 1539.5785,-678.301 1543.7009,-678.301 1544.392,-678.4956 1548.5817,-678.4956 1555.3385,-737.6822 1557.1726,-766.5013 1558.5018,-745.9923 1559.9551,-678.0618 1563.5084,-678.0618 1565.5917,-680.4833 1569.5117,-682.6266 1569.5117,-682.6266 1565.5917,-680.4833 1563.5084,-678.0618 1559.9551,-678.0618 1558.5018,-745.9923 1557.1726,-766.5013 1555.3385,-737.6822 1548.5817,-678.4956 1544.392,-678.4956 1543.7009,-678.301 1539.5785,-678.301 1539.3818,-678.6558 1534.5745,-683.4718 1525.8156,-807.0614 1539.5183,-819.3194 1545.8888,-825.2439 1557.1321,-836.0945 1572.6368,-853.2565 1574.1981,-852.9029 1587.7279,-850.4895 1587.776,-703.7502 1587.776,-703.7502 1587.7279,-850.4895 1600.6266,-848.6025 1603.3807,-848.2881 1620.0933,-846.6483 1676.6555,-842.0098 1783.2502,-789.688 1784.1155,-786.1459 1983.7347,-773.9633 1987.7358,-769.9749 1990.3389,-769.1532 1991.6575,-768.2059 1993.9163,-768.2059 1996.5074,-817.4305 2000.317,-768.3884 2003.5175,-768.3884 2004.1501,-768.2017 2004.1501,-768.2017 2003.5175,-768.3884 2000.317,-768.3884 1996.5074,-817.4305 1993.9163,-768.2059 1991.6575,-768.2059 1990.3389,-769.1532 1987.7358,-769.9749 1983.7347,-773.9633 1784.1155,-786.1459 1783.2502,-789.688 1875.9609,-887.3842 1981.317,-927.939 1995.0509,-933.7792 1998.6851,-935.47 2012.9556,-935.0895 2015.0804,-935.1384 2030.2661,-935.7386 2042.5253,-936.832 2050.4094,-934.4625 2064.8352,-931.152 2070.6301,-928.7098 2155.2017,-894.7694 2190.4685,-854.6184 2225.7014,-769.4822 2227.5564,-765.4335 2062.2546,-762.0684 2056.4138,-767.0513 2055.9324,-767.8315 2055.9299,-767.8334 2057.6272,-770.7977 2050.8127,-842.3493 2050.0164,-810.2367 2052.2666,-768.0798 2052.2666,-768.0798 2050.0164,-810.2367 2050.8127,-842.3493 2057.6272,-770.7977 2055.9299,-767.8334 2055.9324,-767.8315 2056.4138,-767.0513 2062.2546,-762.0684 2227.5564,-765.4335 2235.1362,-749.6651 2235.1426,-749.6013 2130.1079,-595.2142 2065.6799,-586.0407 2041.1249,-581.785 2038.2128,-581.1467 2030.9384,-579.3275 2009.8531,-573.7273 1991.1381,-567.3176 1982.9878,-564.4016 1926.9794,-542.6523 1921.5023,-540.7785 1915.3395,-540.2264 1836.524,-553.58 1786.3647,-512.556 1610.2314,-535.0382 1608.1096,-535.2275 1588.8694,-536.5753 1585.989,-536.6105 1584.2379,-536.6679 1567.4019,-536.8945 1566.7102,-536.9321 1561.9329,-536.9156 1561.5878,-536.9078 1560.6053,-536.9056 1547.1433,-536.6156 1544.4431,-536.7232 1540.9351,-536.7279 1538.2554,-539.5212 1538.2554,-539.5212"/>
<polyline fill="none" stroke="#000000" points="1046.3304,-748.1107 1048.3146,-748.1722 1058.2333,-748.2648 1059.0135,-748.2552 1059.6678,-748.2611 1066.98,-748.0104 1073.3528,-748.199 1080.0013,-748.6799 1088.262,-741.3912 1101.3602,-730.8477 1110.8271,-723.9739 1124.4076,-715.1757 1208.1201,-664.3427 1209.5947,-663.3923 1216.4055,-658.4744 1228.8767,-648.9807 1233.4169,-645.3558 1235.0046,-644.1565 1242.733,-605.1964 1229.6998,-601.6516 1141.8796,-572.4417 1130.5054,-570.2136 1120.9414,-569.6595 1117.8186,-569.9098 1111.3464,-569.9703 1108.4663,-569.7943 1107.3467,-569.5654 1107.219,-569.5571 1094.8527,-569.6108 1093.1846,-569.7335 1090.9041,-569.5789 1089.3334,-569.5804 1088.2246,-569.5032 1080.1658,-569.4974 1074.235,-569.075 1073.7446,-569.0058 1065.1672,-567.1851 1060.5339,-565.8768 1059.2936,-565.4395 1046.7587,-560.1028 1037.3517,-554.7796 1036.9489,-554.524 1027.3348,-547.7254 1013.1513,-535.6718 1009.626,-531.9318 1004.7071,-527.4902 995.4096,-518.5176 980.0965,-501.868 978.1328,-499.8528 955.9759,-475.9694 936.6305,-571.1163 931.5367,-605.2155 931.4078,-609.0185 930.4653,-619.4391 919.9594,-671.1103 989.0105,-714.0385 1004.2515,-724.807 1005.1491,-725.5147 1021.7919,-740.1041 1026.0024,-743.9686 1030.1664,-748.1437 1035.8589,-748.2048 1039.4902,-748.0862 1044.2931,-748.1343 1046.3304,-748.1107 "/>
<polyline fill="none" stroke="#000000" points="1179.8093,-1242.8491 1167.2905,-1244.2668 1161.5497,-1245.1169 1157.3794,-1234.3906 1146.7719,-1208.5162 1143.526,-1201.0725 1112.1307,-1137.4185 1103.1834,-1116.5562 1099.6674,-1106.6644 1096.3909,-1094.9974 1086.5659,-1067.5856 1061.0074,-1015.7656 1123.3497,-1004.5091 1124.6252,-1004.3857 1137.3322,-1003.6839 1143.1567,-1003.8499 1149.234,-1003.5175 1152.5933,-1003.4749 1154.2323,-1003.3859 1163.8822,-1003.6715 1165.1683,-1003.6562 1166.7511,-1003.5058 1177.7136,-1003.8423 1181.9978,-1003.6173 1184.3131,-1003.593 1187.1213,-1003.4467 1193.6793,-1003.6545 1199.1169,-1003.3754 1207.0172,-1002.6406 1218.5944,-1001.0825 1219.8943,-1000.8543 1228.9709,-998.5076 1321.6198,-970.7203 1322.5415,-971.0772 1329.6207,-973.9835 1344.6018,-980.8319 1347.3855,-982.2324 1360.178,-988.9678 1379.4426,-1000.4539 1392.1837,-1008.9276 1397.6459,-1012.8113 1405.9493,-1018.9081 1411.0254,-1022.7515 1392.4463,-1066.4041 1380.0886,-1098.7328 1349.1967,-1184.7159 1267.0066,-1245.2563 1225.6871,-1242.0341 1217.0808,-1241.6619 1205.8992,-1241.5668 1188.3958,-1242.0265 1179.8093,-1242.8491 "/>
<polyline fill="none" stroke="#000000" points="1010.3265,-1286.8701 1008.0348,-1287.6364 1004.4763,-1288.8907 999.5278,-1286.9907 936.0157,-1264.948 931.2592,-1262.7864 836.5743,-1202.597 770.243,-1214.7527 769.9371,-1214.8134 744.8389,-1220.5771 732.7203,-1224.292 731.2999,-1224.7716 710.8487,-1217.5841 703.5922,-1215.3857 613.986,-1153.5695 556.8905,-1075.097 542.6475,-1047.9111 343.4898,-950.34 328.0712,-922.4913 335.5854,-895.073 346.7873,-849.9767 351.6728,-829.1953 505.736,-771.2156 508.5736,-770.2128 510.1178,-769.7023 515.4803,-768.0507 522.5684,-766.0279 535.1946,-762.7117 546.6063,-760.7528 555.1643,-759.4782 563.6021,-758.4142 575.9946,-757.4175 588.9293,-756.9678 596.7343,-756.3248 601.751,-755.7919 606.0373,-756.9269 620.7378,-760.0804 627.8741,-761.2502 643.0934,-762.9794 647.6765,-763.2689 654.5363,-763.5296 659.0422,-763.4744 662.4935,-763.5162 673.6547,-763.9245 685.0966,-764.9022 686.7347,-765.0822 701.6149,-767.4462 710.3453,-769.2592 725.8597,-773.2401 785.3904,-878.0651 788.3978,-882.8123 794.1387,-891.4189 847.444,-905.6628 849.0001,-906.1442 909.5049,-1002.2202 990.1572,-999.8846 995.1147,-999.9805 1001.297,-999.8104 1010.2748,-999.9977 1018.2586,-999.7902 1018.6037,-999.798 1019.5105,-999.7758 1021.4592,-999.8223 1024.4709,-999.8237 1033.092,-984.5414 1045.0674,-965.85 1052.5862,-954.9725 1054.2688,-953.0801 1067.5156,-936.6251 1079.4957,-923.357 1081.9271,-920.1617 1107.0062,-880.39 1120.4036,-866.8947 1123.2047,-863.7737 1131.6917,-853.3619 1141.75,-838.7674 1143.1047,-836.6552 1146.0605,-837.8853 1153.917,-840.8566 1155.6401,-841.4422 1170.6586,-845.4229 1175.0386,-846.4156 1186,-848.0684 1193.1062,-848.8686 1204.6998,-849.7318 1208.1293,-850.1095 1218.7119,-851.6544 1224.1609,-852.8386 1233.8806,-855.2997 1238.8798,-856.9223 1280.3627,-918.1151 1312.6167,-959.3131 1312.933,-959.6968 1321.6198,-970.7203 1228.9709,-998.5076 1219.8943,-1000.8543 1218.5944,-1001.0825 1207.0172,-1002.6406 1199.1169,-1003.3754 1193.6793,-1003.6545 1187.1213,-1003.4467 1184.3131,-1003.593 1181.9978,-1003.6173 1177.7136,-1003.8423 1166.7511,-1003.5058 1165.1683,-1003.6562 1163.8822,-1003.6715 1154.2323,-1003.3859 1152.5933,-1003.4749 1149.234,-1003.5175 1143.1567,-1003.8499 1137.3322,-1003.6839 1124.6252,-1004.3857 1123.3497,-1004.5091 1061.0074,-1015.7656 1086.5659,-1067.5856 1096.3909,-1094.9974 1099.6674,-1106.6644 1103.1834,-1116.5562 1112.1307,-1137.4185 1143.526,-1201.0725 1146.7719,-1208.5162 1157.3794,-1234.3906 1161.5497,-1245.1169 1130.3577,-1262.8147 1052.917,-1276.1458 1041.7389,-1278.272 1038.4995,-1279.0045 1023.3852,-1282.9716 1010.3265,-1286.8701 "/>
<polyline fill="none" stroke="#000000" points="876.2419,-340.6365 910.8406,-409.32 940.1997,-457.1894 950.712,-460.6902 955.9759,-475.9694 978.1328,-499.8528 980.0965,-501.868 995.4096,-518.5176 1004.7071,-527.4902 1009.626,-531.9318 1013.1513,-535.6718 1027.3348,-547.7254 1036.9489,-554.524 1037.3517,-554.7796 1046.7587,-560.1028 1059.2936,-565.4395 1060.5339,-565.8768 1065.1672,-567.1851 1073.7446,-569.0058 1074.235,-569.075 1080.1658,-569.4974 1088.2246,-569.5032 1089.3334,-569.5804 1090.9041,-569.5789 1093.1846,-569.7335 1094.8527,-569.6108 1107.219,-569.5571 1107.3467,-569.5654 1108.4663,-569.7943 1111.3464,-569.9703 1117.8186,-569.9098 1120.9414,-569.6595 1130.5054,-570.2136 1141.8796,-572.4417 1229.6998,-601.6516 1242.733,-605.1964 1235.0046,-644.1565 1233.4169,-645.3558 1228.8767,-648.9807 1216.4055,-658.4744 1209.5947,-663.3923 1208.1201,-664.3427 1124.4076,-715.1757 1110.8271,-723.9739 1101.3602,-730.8477 1088.262,-741.3912 1080.0013,-748.6799 1096.3871,-768.68 1143.1047,-836.6552 1146.0605,-837.8853 1153.917,-840.8566 1155.6401,-841.4422 1170.6586,-845.4229 1175.0386,-846.4156 1186,-848.0684 1193.1062,-848.8686 1204.6998,-849.7318 1208.1293,-850.1095 1218.7119,-851.6544 1224.1609,-852.8386 1233.8806,-855.2997 1238.8798,-856.9223 1280.3627,-918.1151 1312.6167,-959.3131 1312.933,-959.6968 1321.6198,-970.7203 1322.5415,-971.0772 1329.6207,-973.9835 1344.6018,-980.8319 1347.3855,-982.2324 1360.178,-988.9678 1379.4426,-1000.4539 1392.1837,-1008.9276 1397.6459,-1012.8113 1405.9493,-1018.9081 1411.0254,-1022.7515 1444.4639,-1013.4747 1465.9521,-1000.1691 1552.5682,-879.9346 1572.6368,-853.2565 1557.1321,-836.0945 1545.8888,-825.2439 1539.5183,-819.3194 1525.8156,-807.0614 1525.4176,-806.7204 1474.5253,-758.4178 1477.6707,-695.5983 1477.5939,-682.9155 1478.031,-678.9078 1478.9835,-660.4164 1478.9346,-652.3552 1481.8547,-594.0338 1423.2584,-601.6792 1415.8188,-602.3212 1407.4355,-602.3016 1404.6422,-602.4136 1400.0396,-602.3936 1395.3607,-602.7711 1392.5748,-602.7477 1387.2163,-602.4642 1385.4724,-602.446 1384.2134,-602.4863 1378.5065,-602.4153 1374.7257,-602.6893 1369.4764,-602.6028 1365.1499,-602.3392 1362.3535,-602.4059 1358.8586,-602.3344 1357.34,-602.2358 1346.6512,-602.4482 1246.1101,-599.9882 1248.6348,-541.2287 1248.4828,-531.3696 1248.6489,-519.3836 1249.0206,-514.2477 1250.5848,-477.8404 1255.0659,-474.9283 1269.375,-466.5793 1270.3271,-466.0565 1273.6211,-464.3583 1298.3142,-452.446 1316.4775,-385.452 1318.2216,-372.0518 1318.4478,-370.9453 1321.1853,-350.0874 1332.4362,-308.5895 1367.5975,-298.1384 1369.1311,-297.6228 1372.1719,-296.4802 1376.918,-294.5069 1392.8204,-286.5947 1396.0817,-284.8448 1407.0063,-278.1057 1422.0826,-267.5973 1436.6904,-255.6862 1465.2004,-231.35 1483.8674,-217.3381 1456.996,-150.3332 1385.4818,-55.0196 1319.877,-55.9251 1315.3051,-55.9132 1312.6273,-55.8623 1296.2471,-55.2816 1283.8904,-54.2352 1260.1849,-51.0575 1252.8159,-49.7081 1237.7175,-46.6959 1231.3323,-43.4237 1217.9576,-18 1154.4739,120.8558 1089.4802,155.6628 1056.0436,148.1619 1044.7089,145.8196 1037.3357,144.5581 1024.5399,142.5961 1020.4518,142.1873 1001.868,140.6584 944.0108,119.7623 900.6621,86.8682 860.1633,6.97 829.2758,-48.4437 797.89,-59.8779 806.7715,-227.6317 807.0243,-230.3543 807.1683,-241.0193 806.9561,-249.1193 809.9088,-304.8898 874.5309,-337.5028 876.2419,-340.6365 "/>
<polyline fill="none" stroke="#000000" points="766.2353,-509.9614 768.7849,-509.156 771.5928,-508.3597 778.908,-506.5193 796.6495,-503.1929 797.7023,-503.0299 826.4938,-500.429 827.4756,-500.3084 830.9349,-499.7713 843.9269,-496.899 857.0815,-493.1263 866.1887,-489.9196 883.2796,-482.7773 940.1997,-457.1894 910.8406,-409.32 876.2419,-340.6365 874.5309,-337.5028 809.9088,-304.8898 806.9561,-249.1193 807.1683,-241.0193 807.0243,-230.3543 806.7715,-227.6317 797.89,-59.8779 737.1296,-55.448 719.1616,-53.8703 698.384,-51.12 698.2976,-51.1073 694.8521,-50.5495 688.4183,-49.317 664.9454,-44.1198 636.9881,-36.2772 629.9453,-37.8396 592.2534,-54.3493 507.9801,-159.7975 501.4659,-211.6711 495.6243,-251.895 493.7383,-263.3742 490.0313,-283.6074 484.5428,-286.7837 358.8351,-354.2973 240.9279,-310.2489 230.4408,-305.9243 229.4509,-305.9124 210.8043,-305.0784 204.4489,-304.4825 200.6393,-304.063 182.6667,-301.4933 171.6662,-299.5613 169.0675,-299.0627 164.6056,-298.0606 132.0811,-290.2224 21.8905,-386.3843 -18.3815,-475.53 -53.7649,-544.3409 -70.6543,-551.393 -124.7449,-690.6009 -124.6576,-753.09 -125.9679,-777.886 -68.3841,-875.9451 -50.6474,-887.625 44.4993,-904.5386 50.493,-905.8294 52.5387,-905.548 63.2192,-904.2742 82.2035,-903.0524 87.5779,-902.9037 100.8917,-903.2667 111.6484,-903.9545 124.145,-904.9825 298.4883,-925.6862 328.0712,-922.4913 335.5854,-895.073 346.7873,-849.9767 351.6728,-829.1953 505.736,-771.2156 508.5736,-770.2128 510.1178,-769.7023 515.4803,-768.0507 522.5684,-766.0279 535.1946,-762.7117 546.6063,-760.7528 555.1643,-759.4782 563.6021,-758.4142 575.9946,-757.4175 588.9293,-756.9678 596.7343,-756.3248 601.751,-755.7919 606.0373,-756.9269 620.7378,-760.0804 627.8741,-761.2502 643.0934,-762.9794 647.6765,-763.2689 654.5363,-763.5296 659.0422,-763.4744 662.4935,-763.5162 673.6547,-763.9245 685.0966,-764.9022 686.7347,-765.0822 701.6149,-767.4462 710.3453,-769.2592 725.8597,-773.2401 725.8989,-773.1953 739.9243,-758.55 802.0236,-681.1944 785.2949,-652.1234 778.9566,-637.9363 762.4133,-594.36 729.4025,-536.9941 724.5294,-527.9951 729.3248,-525.5522 745.6191,-517.7617 751.9818,-514.9289 766.2353,-509.9614 "/>
<polyline fill="none" stroke="#000000" points="909.5049,-1002.2202 849.0001,-906.1442 847.444,-905.6628 794.1387,-891.4189 788.3978,-882.8123 785.3904,-878.0651 725.8597,-773.2401 725.8989,-773.1953 739.9243,-758.55 802.0236,-681.1944 785.2949,-652.1234 778.9566,-637.9363 762.4133,-594.36 729.4025,-536.9941 724.5294,-527.9951 729.3248,-525.5522 745.6191,-517.7617 751.9818,-514.9289 766.2353,-509.9614 768.7849,-509.156 771.5928,-508.3597 778.908,-506.5193 796.6495,-503.1929 797.7023,-503.0299 826.4938,-500.429 827.4756,-500.3084 830.9349,-499.7713 843.9269,-496.899 857.0815,-493.1263 866.1887,-489.9196 883.2796,-482.7773 940.1997,-457.1894 950.712,-460.6902 955.9759,-475.9694 936.6305,-571.1163 931.5367,-605.2155 931.4078,-609.0185 930.4653,-619.4391 919.9594,-671.1103 989.0105,-714.0385 1004.2515,-724.807 1005.1491,-725.5147 1021.7919,-740.1041 1026.0024,-743.9686 1030.1664,-748.1437 1035.8589,-748.2048 1039.4902,-748.0862 1044.2931,-748.1343 1046.3304,-748.1107 1048.3146,-748.1722 1058.2333,-748.2648 1059.0135,-748.2552 1059.6678,-748.2611 1066.98,-748.0104 1073.3528,-748.199 1080.0013,-748.6799 1096.3871,-768.68 1143.1047,-836.6552 1141.75,-838.7674 1131.6917,-853.3619 1123.2047,-863.7737 1120.4036,-866.8947 1107.0062,-880.39 1081.9271,-920.1617 1079.4957,-923.357 1067.5156,-936.6251 1054.2688,-953.0801 1052.5862,-954.9725 1045.0674,-965.85 1033.092,-984.5414 1024.4709,-999.8237 1021.4592,-999.8223 1019.5105,-999.7758 1018.6037,-999.798 1018.2586,-999.7902 1010.2748,-999.9977 1001.297,-999.8104 995.1147,-999.9805 990.1572,-999.8846 909.5049,-1002.2202 "/>
<polyline fill="none" stroke="#000000" points="1544.4431,-536.7232 1540.9351,-536.7279 1538.2554,-539.5212 1531.1848,-546.6075 1481.8547,-594.0338 1423.2584,-601.6792 1415.8188,-602.3212 1407.4355,-602.3016 1404.6422,-602.4136 1400.0396,-602.3936 1395.3607,-602.7711 1392.5748,-602.7477 1387.2163,-602.4642 1385.4724,-602.446 1384.2134,-602.4863 1378.5065,-602.4153 1374.7257,-602.6893 1369.4764,-602.6028 1365.1499,-602.3392 1362.3535,-602.4059 1358.8586,-602.3344 1357.34,-602.2358 1346.6512,-602.4482 1246.1101,-599.9882 1248.6348,-541.2287 1248.4828,-531.3696 1248.6489,-519.3836 1249.0206,-514.2477 1250.5848,-477.8404 1255.0659,-474.9283 1269.375,-466.5793 1270.3271,-466.0565 1273.6211,-464.3583 1298.3142,-452.446 1316.4775,-385.452 1318.2216,-372.0518 1318.4478,-370.9453 1321.1853,-350.0874 1332.4362,-308.5895 1367.5975,-298.1384 1369.1311,-297.6228 1372.1719,-296.4802 1376.918,-294.5069 1392.8204,-286.5947 1396.0817,-284.8448 1407.0063,-278.1057 1422.0826,-267.5973 1436.6904,-255.6862 1465.2004,-231.35 1483.8674,-217.3381 1502.6359,-229.5385 1525.1255,-236.3917 1538.3755,-239.658 1546.0374,-241.3974 1554.4902,-242.9867 1570.6473,-245.7093 1572.2279,-245.9135 1701.918,-257.6186 1702.0441,-257.6654 1742.4334,-348.7874 1745.5093,-362.2325 1758.1034,-413.0324 1786.3647,-512.556 1610.2314,-535.0382 1608.1096,-535.2275 1588.8694,-536.5753 1585.989,-536.6105 1584.2379,-536.6679 1567.4019,-536.8945 1566.7102,-536.9321 1561.9329,-536.9156 1561.5878,-536.9078 1560.6053,-536.9056 1547.1433,-536.6156 1544.4431,-536.7232 "/>
<polyline fill="none" stroke="#000000" points="2015.0804,-935.1384 2030.2661,-935.7386 2042.5253,-936.832 2050.4094,-934.4625 2064.8352,-931.152 2070.6301,-928.7098 2155.2017,-894.7694 2190.4685,-854.6184 2225.7014,-769.4822 2227.5564,-765.4335 2235.1362,-749.6651 2235.1426,-749.6013 2130.1079,-595.2142 2065.6799,-586.0407 2041.1249,-581.785 2038.2128,-581.1467 2030.9384,-579.3275 2009.8531,-573.7273 1991.1381,-567.3176 1982.9878,-564.4016 1926.9794,-542.6523 1921.5023,-540.7785 1915.3395,-540.2264 1836.524,-553.58 1786.3647,-512.556 1610.2314,-535.0382 1608.1096,-535.2275 1588.8694,-536.5753 1585.989,-536.6105 1584.2379,-536.6679 1567.4019,-536.8945 1566.7102,-536.9321 1561.9329,-536.9156 1561.5878,-536.9078 1560.6053,-536.9056 1547.1433,-536.6156 1544.4431,-536.7232 1540.9351,-536.7279 1538.2554,-539.5212 1531.1848,-546.6075 1481.8547,-594.0338 1478.9346,-652.3552 1478.9835,-660.4164 1478.031,-678.9078 1477.5939,-682.9155 1477.6707,-695.5983 1474.5253,-758.4178 1525.4176,-806.7204 1525.8156,-807.0614 1539.5183,-819.3194 1545.8888,-825.2439 1557.1321,-836.0945 1572.6368,-853.2565 1574.1981,-852.9029 1587.7279,-850.4895 1600.6266,-848.6025 1603.3807,-848.2881 1620.0933,-846.6483 1676.6555,-842.0098 1783.2502,-789.688 1875.9609,-887.3842 1981.317,-927.939 1995.0509,-933.7792 1998.6851,-935.47 2012.9556,-935.0895 2015.0804,-935.1384 "/>
<!-- device&#45;mapper&#45;libs&#45;&gt;Fedora Container Base -->
<g id="edge1" class="edge">
<title>device&#45;mapper&#45;libs&#45;&gt;Fedora Container Base</title>
<path fill="none" stroke="#444444" stroke-opacity="0.333333" d="M1180.3019,-1059.5032C1159.9623,-988.6917 1085.6784,-730.0762 1060.9606,-644.0227"/>
<polygon fill="#444444" fill-opacity="0.333333" stroke="#444444" stroke-opacity="0.333333" points="1064.2588,-642.8269 1058.134,-634.1818 1057.5308,-644.7594 1064.2588,-642.8269"/>
</g>
<!-- device&#45;mapper&#45;libs&#45;&gt;device&#45;mapper -->
<g id="edge2" class="edge">
<title>device&#45;mapper&#45;libs&#45;&gt;device&#45;mapper</title>
<path fill="none" stroke="#444444" stroke-opacity="0.333333" d="M1175.7845,-1059.362C1151.7416,-1024.0441 1089.769,-946.5685 1053.6348,-906.0771"/>
<polygon fill="#444444" fill-opacity="0.333333" stroke="#444444" stroke-opacity="0.333333" points="1056.0773,-903.56 1046.7714,-898.4954 1050.8879,-908.2579 1056.0773,-903.56"/>
</g>
<!-- device&#45;mapper&#45;&gt;Fedora Container Base -->
<g id="edge34" class="edge">
<title>device&#45;mapper&#45;&gt;Fedora Container Base</title>
<path fill="none" stroke="#444444" stroke-opacity="0.333333" d="M1028.4077,-862.2147C1032.912,-816.9266 1044.6618,-698.7902 1050.0837,-644.2765"/>
<polygon fill="#444444" fill-opacity="0.333333" stroke="#444444" stroke-opacity="0.333333" points="1053.5727,-644.5599 1051.0796,-634.2625 1046.607,-643.867 1053.5727,-644.5599"/>
</g>
<!-- device&#45;mapper&#45;&gt;device&#45;mapper&#45;libs -->
<g id="edge35" class="edge">
<title>device&#45;mapper&#45;&gt;device&#45;mapper&#45;libs</title>
<path fill="none" stroke="#444444" stroke-opacity="0.333333" d="M1036.3155,-898.628C1060.3584,-933.9459 1122.331,-1011.4215 1158.4652,-1051.9129"/>
<polygon fill="#444444" fill-opacity="0.333333" stroke="#444444" stroke-opacity="0.333333" points="1156.0227,-1054.43 1165.3286,-1059.4946 1161.2121,-1049.7321 1156.0227,-1054.43"/>
</g>
<!-- device&#45;mapper&#45;&gt;systemd -->
<g id="edge36" class="edge">
<title>device&#45;mapper&#45;&gt;systemd</title>
<path fill="none" stroke="#444444" stroke-opacity="0.333333" d="M1031.1155,-862.195C1045.572,-803.9432 1090.7855,-621.7574 1108.2339,-551.4497"/>
<polygon fill="#444444" fill-opacity="0.333333" stroke="#444444" stroke-opacity="0.333333" points="1111.6818,-552.087 1110.6936,-541.5384 1104.8879,-550.4009 1111.6818,-552.087"/>
</g>
<!-- device&#45;mapper&#45;&gt;util&#45;linux -->
<g id="edge37" class="edge">
<title>device&#45;mapper&#45;&gt;util&#45;linux</title>
<path fill="none" stroke="#444444" stroke-opacity="0.333333" d="M1003.8965,-862.1493C977.7642,-841.1539 934.7151,-806.567 905.6195,-783.1908"/>
<polygon fill="#444444" fill-opacity="0.333333" stroke="#444444" stroke-opacity="0.333333" points="907.7965,-780.4502 897.8087,-776.9154 903.4122,-785.9071 907.7965,-780.4502"/>
</g>
<!-- libargon2&#45;&gt;Fedora Container Base -->
<g id="edge3" class="edge">
<title>libargon2&#45;&gt;Fedora Container Base</title>
<path fill="none" stroke="#444444" stroke-opacity="0.333333" d="M1025.0456,-1101.1849C1029.3826,-1025.6342 1045.9759,-736.5778 1051.268,-644.3896"/>
<polygon fill="#444444" fill-opacity="0.333333" stroke="#444444" stroke-opacity="0.333333" points="1054.7768,-644.3348 1051.8558,-634.1506 1047.7883,-643.9336 1054.7768,-644.3348"/>
</g>
<!-- dbus&#45;broker&#45;&gt;Fedora Container Base -->
<g id="edge4" class="edge">
<title>dbus&#45;broker&#45;&gt;Fedora Container Base</title>
<path fill="none" stroke="#444444" stroke-opacity="0.333333" d="M925.3872,-252.08C946.9271,-313.5476 1017.1645,-513.9825 1043.133,-588.0881"/>
<polygon fill="#444444" fill-opacity="0.333333" stroke="#444444" stroke-opacity="0.333333" points="1039.8836,-589.3989 1046.4938,-597.6787 1046.4897,-587.0839 1039.8836,-589.3989"/>
</g>
<!-- dbus&#45;broker&#45;&gt;dbus&#45;common -->
<g id="edge5" class="edge">
<title>dbus&#45;broker&#45;&gt;dbus&#45;common</title>
<path fill="none" stroke="#444444" stroke-opacity="0.333333" d="M939.9786,-251.9831C951.063,-261.5415 964.8373,-273.4194 976.9,-283.8213"/>
<polygon fill="#444444" fill-opacity="0.333333" stroke="#444444" stroke-opacity="0.333333" points="974.6755,-286.5246 984.5343,-290.4046 979.2468,-281.2234 974.6755,-286.5246"/>
</g>
<!-- dbus&#45;broker&#45;&gt;shadow&#45;utils -->
<g id="edge6" class="edge">
<title>dbus&#45;broker&#45;&gt;shadow&#45;utils</title>
<path fill="none" stroke="#444444" stroke-opacity="0.333333" d="M903.4611,-252.0213C876.5457,-283.352 821.2219,-347.7515 790.3631,-383.6724"/>
<polygon fill="#444444" fill-opacity="0.333333" stroke="#444444" stroke-opacity="0.333333" points="787.6658,-381.4412 783.8043,-391.3073 792.9755,-386.0026 787.6658,-381.4412"/>
</g>
<!-- dbus&#45;broker&#45;&gt;systemd -->
<g id="edge7" class="edge">
<title>dbus&#45;broker&#45;&gt;systemd</title>
<path fill="none" stroke="#444444" stroke-opacity="0.333333" d="M931.2919,-252.0176C964.8029,-301.4642 1057.9832,-438.9548 1097.3163,-496.992"/>
<polygon fill="#444444" fill-opacity="0.333333" stroke="#444444" stroke-opacity="0.333333" points="1094.4251,-498.9647 1102.9327,-505.2792 1100.2198,-495.0376 1094.4251,-498.9647"/>
</g>
<!-- dbus&#45;common&#45;&gt;Fedora Container Base -->
<g id="edge8" class="edge">
<title>dbus&#45;common&#45;&gt;Fedora Container Base</title>
<path fill="none" stroke="#444444" stroke-opacity="0.333333" d="M1008.4172,-326.8781C1016.3534,-378.4537 1038.9392,-525.2322 1048.5187,-587.4872"/>
<polygon fill="#444444" fill-opacity="0.333333" stroke="#444444" stroke-opacity="0.333333" points="1045.1174,-588.3965 1050.0976,-597.7478 1052.0359,-587.3318 1045.1174,-588.3965"/>
</g>
<!-- dbus&#45;common&#45;&gt;dbus&#45;common -->
<g id="edge9" class="edge">
<title>dbus&#45;common&#45;&gt;dbus&#45;common</title>
<path fill="none" stroke="#444444" stroke-opacity="0.333333" d="M1083.1655,-314.5933C1093.915,-313.6012 1101.1,-311.5934 1101.1,-308.57 1101.1,-306.6331 1098.1513,-305.1131 1093.2057,-304.0098"/>
<polygon fill="#444444" fill-opacity="0.333333" stroke="#444444" stroke-opacity="0.333333" points="1093.5657,-300.5254 1083.1655,-302.5467 1092.5562,-307.4523 1093.5657,-300.5254"/>
</g>
<!-- dbus&#45;common&#45;&gt;systemd -->
<g id="edge10" class="edge">
<title>dbus&#45;common&#45;&gt;systemd</title>
<path fill="none" stroke="#444444" stroke-opacity="0.333333" d="M1014.9444,-326.8846C1034.2355,-364.694 1078.5559,-451.5595 1101.2511,-496.041"/>
<polygon fill="#444444" fill-opacity="0.333333" stroke="#444444" stroke-opacity="0.333333" points="1098.2167,-497.7949 1105.8792,-505.1118 1104.452,-494.6135 1098.2167,-497.7949"/>
</g>
<!-- shadow&#45;utils&#45;&gt;Fedora Container Base -->
<g id="edge11" class="edge">
<title>shadow&#45;utils&#45;&gt;Fedora Container Base</title>
<path fill="none" stroke="#444444" stroke-opacity="0.333333" d="M793.5837,-427.6579C845.0783,-465.0506 962.1906,-550.0915 1019.735,-591.8773"/>
<polygon fill="#444444" fill-opacity="0.333333" stroke="#444444" stroke-opacity="0.333333" points="1017.961,-594.9145 1028.1092,-597.9582 1022.0741,-589.2503 1017.961,-594.9145"/>
</g>
<!-- shadow&#45;utils&#45;&gt;shadow&#45;utils -->
<g id="edge12" class="edge">
<title>shadow&#45;utils&#45;&gt;shadow&#45;utils</title>
<path fill="none" stroke="#444444" stroke-opacity="0.333333" d="M839.1556,-415.4434C849.699,-414.49 856.83,-412.4489 856.83,-409.32 856.83,-407.3644 854.0444,-405.8338 849.3812,-404.728"/>
<polygon fill="#444444" fill-opacity="0.333333" stroke="#444444" stroke-opacity="0.333333" points="849.5638,-401.2164 839.1556,-403.1966 848.5269,-408.1392 849.5638,-401.2164"/>
</g>
<!-- shadow&#45;utils&#45;&gt;libsemanage -->
<g id="edge13" class="edge">
<title>shadow&#45;utils&#45;&gt;libsemanage</title>
<path fill="none" stroke="#444444" stroke-opacity="0.333333" d="M760.2513,-391.0899C747.2659,-361.7873 721.6659,-304.019 706.4191,-269.6136"/>
<polygon fill="#444444" fill-opacity="0.333333" stroke="#444444" stroke-opacity="0.333333" points="709.4802,-267.8821 702.2287,-260.1577 703.0804,-270.7182 709.4802,-267.8821"/>
</g>
<!-- systemd&#45;&gt;Fedora Container Base -->
<g id="edge14" class="edge">
<title>systemd&#45;&gt;Fedora Container Base</title>
<path fill="none" stroke="#444444" stroke-opacity="0.333333" d="M1102.8915,-541.6708C1093.7021,-555.3267 1081.0084,-574.1899 1070.7118,-589.491"/>
<polygon fill="#444444" fill-opacity="0.333333" stroke="#444444" stroke-opacity="0.333333" points="1067.6501,-587.7717 1064.9709,-598.0222 1073.4577,-591.6798 1067.6501,-587.7717"/>
</g>
<!-- systemd&#45;&gt;shadow&#45;utils -->
<g id="edge15" class="edge">
<title>systemd&#45;&gt;shadow&#45;utils</title>
<path fill="none" stroke="#444444" stroke-opacity="0.333333" d="M1060.2374,-505.3069C998.5491,-485.0221 898.5566,-452.142 833.1168,-430.6236"/>
<polygon fill="#444444" fill-opacity="0.333333" stroke="#444444" stroke-opacity="0.333333" points="833.9147,-427.2017 823.3218,-427.4027 831.728,-433.8514 833.9147,-427.2017"/>
</g>
<!-- systemd&#45;&gt;systemd -->
<g id="edge16" class="edge">
<title>systemd&#45;&gt;systemd</title>
<path fill="none" stroke="#444444" stroke-opacity="0.333333" d="M1176.8667,-529.6813C1187.4013,-528.8203 1194.7,-526.7198 1194.7,-523.38 1194.7,-521.2404 1191.7046,-519.6095 1186.782,-518.4872"/>
<polygon fill="#444444" fill-opacity="0.333333" stroke="#444444" stroke-opacity="0.333333" points="1187.2596,-515.02 1176.8667,-517.0787 1186.2751,-521.9504 1187.2596,-515.02"/>
</g>
<!-- systemd&#45;&gt;util&#45;linux -->
<g id="edge17" class="edge">
<title>systemd&#45;&gt;util&#45;linux</title>
<path fill="none" stroke="#444444" stroke-opacity="0.333333" d="M1096.7469,-541.4429C1054.2975,-582.9947 949.6282,-685.4508 900.8043,-733.2424"/>
<polygon fill="#444444" fill-opacity="0.333333" stroke="#444444" stroke-opacity="0.333333" points="898.1639,-730.9292 893.466,-740.4256 903.0605,-735.9316 898.1639,-730.9292"/>
</g>
<!-- systemd&#45;&gt;acl -->
<g id="edge18" class="edge">
<title>systemd&#45;&gt;acl</title>
<path fill="none" stroke="#444444" stroke-opacity="0.333333" d="M1116.2223,-505.2942C1119.1629,-453.2732 1127.6588,-302.9718 1131.2102,-240.1453"/>
<polygon fill="#444444" fill-opacity="0.333333" stroke="#444444" stroke-opacity="0.333333" points="1134.7048,-240.3374 1131.7749,-230.1558 1127.716,-239.9423 1134.7048,-240.3374"/>
</g>
<!-- systemd&#45;&gt;cryptsetup&#45;libs -->
<g id="edge19" class="edge">
<title>systemd&#45;&gt;cryptsetup&#45;libs</title>
<path fill="none" stroke="#444444" stroke-opacity="0.333333" d="M1116.956,-541.6294C1123.158,-606.0842 1144.064,-823.3515 1151.5801,-901.4629"/>
<polygon fill="#444444" fill-opacity="0.333333" stroke="#444444" stroke-opacity="0.333333" points="1148.107,-901.9121 1152.5488,-911.5309 1155.0749,-901.2416 1148.107,-901.9121"/>
</g>
<!-- systemd&#45;&gt;dbus -->
<g id="edge20" class="edge">
<title>systemd&#45;&gt;dbus</title>
<path fill="none" stroke="#444444" stroke-opacity="0.333333" d="M1112.2838,-505.0947C1100.1759,-429.1758 1053.8166,-138.4926 1039.1066,-46.2576"/>
<polygon fill="#444444" fill-opacity="0.333333" stroke="#444444" stroke-opacity="0.333333" points="1042.5436,-45.5847 1037.5123,-36.2607 1035.631,-46.6872 1042.5436,-45.5847"/>
</g>
<!-- systemd&#45;&gt;iptables&#45;libs -->
<g id="edge21" class="edge">
<title>systemd&#45;&gt;iptables&#45;libs</title>
<path fill="none" stroke="#444444" stroke-opacity="0.333333" d="M1150.9282,-505.2917C1202.1894,-479.3395 1296.5694,-431.5573 1352.4559,-403.2634"/>
<polygon fill="#444444" fill-opacity="0.333333" stroke="#444444" stroke-opacity="0.333333" points="1354.0766,-406.3659 1361.4175,-398.7264 1350.9148,-400.1207 1354.0766,-406.3659"/>
</g>
<!-- systemd&#45;&gt;kmod&#45;libs -->
<g id="edge22" class="edge">
<title>systemd&#45;&gt;kmod&#45;libs</title>
<path fill="none" stroke="#444444" stroke-opacity="0.333333" d="M1129.0548,-505.3241C1151.6112,-475.928 1196.3621,-417.6076 1222.377,-383.7045"/>
<polygon fill="#444444" fill-opacity="0.333333" stroke="#444444" stroke-opacity="0.333333" points="1225.2514,-385.7078 1228.5623,-375.6436 1219.6979,-381.4465 1225.2514,-385.7078"/>
</g>
<!-- systemd&#45;&gt;libfdisk -->
<g id="edge23" class="edge">
<title>systemd&#45;&gt;libfdisk</title>
<path fill="none" stroke="#444444" stroke-opacity="0.333333" d="M1053.6603,-539.7534C1013.3443,-550.4799 960.5468,-564.5273 918.5983,-575.6882"/>
<polygon fill="#444444" fill-opacity="0.333333" stroke="#444444" stroke-opacity="0.333333" points="917.4945,-572.3601 908.7306,-578.3136 919.2943,-579.1247 917.4945,-572.3601"/>
</g>
<!-- systemd&#45;&gt;libseccomp -->
<g id="edge24" class="edge">
<title>systemd&#45;&gt;libseccomp</title>
<path fill="none" stroke="#444444" stroke-opacity="0.333333" d="M1125.9031,-505.1122C1155.0699,-455.3308 1236.0644,-317.0911 1270.4907,-258.333"/>
<polygon fill="#444444" fill-opacity="0.333333" stroke="#444444" stroke-opacity="0.333333" points="1273.5656,-260.0084 1275.601,-249.6109 1267.5259,-256.4697 1273.5656,-260.0084"/>
</g>
<!-- systemd&#45;&gt;qrencode&#45;libs -->
<g id="edge25" class="edge">
<title>systemd&#45;&gt;qrencode&#45;libs</title>
<path fill="none" stroke="#444444" stroke-opacity="0.333333" d="M1124.4651,-541.4175C1146.3555,-584.0343 1201.3759,-691.1494 1227.2902,-741.6001"/>
<polygon fill="#444444" fill-opacity="0.333333" stroke="#444444" stroke-opacity="0.333333" points="1224.2389,-743.3201 1231.9213,-750.6161 1230.4655,-740.1217 1224.2389,-743.3201"/>
</g>
<!-- systemd&#45;&gt;systemd&#45;pam -->
<g id="edge26" class="edge">
<title>systemd&#45;&gt;systemd&#45;pam</title>
<path fill="none" stroke="#444444" stroke-opacity="0.333333" d="M1139.6959,-541.6731C1183.4905,-569.1473 1275.9813,-620.5022 1334.539,-650.2474"/>
<polygon fill="#444444" fill-opacity="0.333333" stroke="#444444" stroke-opacity="0.333333" points="1333.1277,-653.4554 1343.6332,-654.8288 1336.2771,-647.2039 1333.1277,-653.4554"/>
</g>
<!-- systemd&#45;&gt;systemd&#45;rpm&#45;macros -->
<g id="edge27" class="edge">
<title>systemd&#45;&gt;systemd&#45;rpm&#45;macros</title>
<path fill="none" stroke="#444444" stroke-opacity="0.333333" d="M1129.8338,-541.5398C1171.5708,-593.3331 1291.3069,-741.9188 1339.9643,-802.3"/>
<polygon fill="#444444" fill-opacity="0.333333" stroke="#444444" stroke-opacity="0.333333" points="1337.3429,-804.625 1346.3428,-810.2154 1342.7934,-800.2328 1337.3429,-804.625"/>
</g>
<!-- systemd&#45;&gt;diffutils -->
<g id="edge28" class="edge">
<title>systemd&#45;&gt;diffutils</title>
<path fill="none" stroke="#444444" stroke-dasharray="5,2" stroke-opacity="0.333333" d="M1176.9963,-525.4414C1217.6879,-526.7988 1270.9615,-528.576 1312.7522,-529.97"/>
<polygon fill="#444444" fill-opacity="0.333333" stroke="#444444" stroke-opacity="0.333333" points="1312.7306,-533.4712 1322.8418,-530.3066 1312.964,-526.4751 1312.7306,-533.4712"/>
</g>
<!-- systemd&#45;&gt;libxkbcommon -->
<g id="edge29" class="edge">
<title>systemd&#45;&gt;libxkbcommon</title>
<path fill="none" stroke="#444444" stroke-dasharray="5,2" stroke-opacity="0.333333" d="M1168.5531,-541.444C1253.4586,-570.1908 1418.9582,-626.2247 1509.5382,-656.8928"/>
<polygon fill="#444444" fill-opacity="0.333333" stroke="#444444" stroke-opacity="0.333333" points="1508.5395,-660.2497 1519.1337,-660.1416 1510.7843,-653.6194 1508.5395,-660.2497"/>
</g>
<!-- libsemanage&#45;&gt;Fedora Container Base -->
<g id="edge41" class="edge">
<title>libsemanage&#45;&gt;Fedora Container Base</title>
<path fill="none" stroke="#444444" stroke-opacity="0.333333" d="M711.4628,-259.9893C769.9514,-320.9675 960.4228,-519.5464 1028.4641,-590.484"/>
<polygon fill="#444444" fill-opacity="0.333333" stroke="#444444" stroke-opacity="0.333333" points="1026.3227,-593.3076 1035.7708,-598.1017 1031.3745,-588.4621 1026.3227,-593.3076"/>
</g>
<!-- libsemanage&#45;&gt;libsemanage -->
<g id="edge42" class="edge">
<title>libsemanage&#45;&gt;libsemanage</title>
<path fill="none" stroke="#444444" stroke-opacity="0.333333" d="M769.7325,-248.0074C780.4609,-247.0277 787.66,-245.0086 787.66,-241.95 787.66,-239.9906 784.7055,-238.4578 779.7613,-237.3515"/>
<polygon fill="#444444" fill-opacity="0.333333" stroke="#444444" stroke-opacity="0.333333" points="780.1323,-233.8687 769.7325,-235.8926 779.1245,-240.7958 780.1323,-233.8687"/>
</g>
<!-- util&#45;linux&#45;&gt;Fedora Container Base -->
<g id="edge30" class="edge">
<title>util&#45;linux&#45;&gt;Fedora Container Base</title>
<path fill="none" stroke="#444444" stroke-opacity="0.333333" d="M897.4875,-740.4909C929.1765,-715.0987 986.9878,-668.7749 1022.4679,-640.345"/>
<polygon fill="#444444" fill-opacity="0.333333" stroke="#444444" stroke-opacity="0.333333" points="1024.9303,-642.8569 1030.5455,-633.8725 1020.5531,-637.3943 1024.9303,-642.8569"/>
</g>
<!-- util&#45;linux&#45;&gt;util&#45;linux -->
<g id="edge31" class="edge">
<title>util&#45;linux&#45;&gt;util&#45;linux</title>
<path fill="none" stroke="#444444" stroke-opacity="0.333333" d="M939.6297,-764.7953C950.1915,-763.9013 957.45,-761.8195 957.45,-758.55 957.45,-756.4555 954.4711,-754.8484 949.5532,-753.7287"/>
<polygon fill="#444444" fill-opacity="0.333333" stroke="#444444" stroke-opacity="0.333333" points="950.0255,-750.2607 939.6297,-752.3047 949.0311,-757.1898 950.0255,-750.2607"/>
</g>
<!-- util&#45;linux&#45;&gt;libfdisk -->
<g id="edge32" class="edge">
<title>util&#45;linux&#45;&gt;libfdisk</title>
<path fill="none" stroke="#444444" stroke-opacity="0.333333" d="M872.0095,-740.3515C867.4079,-711.8729 858.4683,-656.5471 853.0127,-622.7833"/>
<polygon fill="#444444" fill-opacity="0.333333" stroke="#444444" stroke-opacity="0.333333" points="856.4241,-621.9537 851.3737,-612.6401 849.5137,-623.0703 856.4241,-621.9537"/>
</g>
<!-- util&#45;linux&#45;&gt;libutempter -->
<g id="edge33" class="edge">
<title>util&#45;linux&#45;&gt;libutempter</title>
<path fill="none" stroke="#444444" stroke-opacity="0.333333" d="M845.2286,-740.4216C814.0823,-721.4242 765.0323,-691.5066 730.9528,-670.7201"/>
<polygon fill="#444444" fill-opacity="0.333333" stroke="#444444" stroke-opacity="0.333333" points="732.5585,-667.5998 722.1987,-665.3806 728.9134,-673.5759 732.5585,-667.5998"/>
</g>
<!-- acl&#45;&gt;Fedora Container Base -->
<g id="edge56" class="edge">
<title>acl&#45;&gt;Fedora Container Base</title>
<path fill="none" stroke="#444444" stroke-opacity="0.333333" d="M1129.2116,-230.1612C1116.538,-294.2337 1073.817,-510.2124 1058.4581,-587.8606"/>
<polygon fill="#444444" fill-opacity="0.333333" stroke="#444444" stroke-opacity="0.333333" points="1054.9855,-587.3797 1056.4785,-597.8688 1061.8524,-588.738 1054.9855,-587.3797"/>
</g>
<!-- cryptsetup&#45;libs&#45;&gt;Fedora Container Base -->
<g id="edge57" class="edge">
<title>cryptsetup&#45;libs&#45;&gt;Fedora Container Base</title>
<path fill="none" stroke="#444444" stroke-opacity="0.333333" d="M1148.41,-911.5042C1131.4335,-858.9722 1082.3177,-706.9895 1061.9331,-643.9117"/>
<polygon fill="#444444" fill-opacity="0.333333" stroke="#444444" stroke-opacity="0.333333" points="1065.2118,-642.6753 1058.8062,-634.2361 1058.551,-644.8279 1065.2118,-642.6753"/>
</g>
<!-- cryptsetup&#45;libs&#45;&gt;device&#45;mapper&#45;libs -->
<g id="edge58" class="edge">
<title>cryptsetup&#45;libs&#45;&gt;device&#45;mapper&#45;libs</title>
<path fill="none" stroke="#444444" stroke-opacity="0.333333" d="M1158.1257,-947.8618C1163.4823,-973.2488 1173.2668,-1019.6218 1179.5712,-1049.5007"/>
<polygon fill="#444444" fill-opacity="0.333333" stroke="#444444" stroke-opacity="0.333333" points="1176.1538,-1050.258 1181.643,-1059.3199 1183.003,-1048.8127 1176.1538,-1050.258"/>
</g>
<!-- cryptsetup&#45;libs&#45;&gt;libargon2 -->
<g id="edge59" class="edge">
<title>cryptsetup&#45;libs&#45;&gt;libargon2</title>
<path fill="none" stroke="#444444" stroke-opacity="0.333333" d="M1141.8063,-947.9164C1118.6518,-981.621 1068.9934,-1053.9057 1042.1368,-1092.9993"/>
<polygon fill="#444444" fill-opacity="0.333333" stroke="#444444" stroke-opacity="0.333333" points="1039.2335,-1091.0444 1036.4559,-1101.2687 1045.0032,-1095.0081 1039.2335,-1091.0444"/>
</g>
<!-- dbus&#45;&gt;dbus&#45;broker -->
<g id="edge60" class="edge">
<title>dbus&#45;&gt;dbus&#45;broker</title>
<path fill="none" stroke="#444444" stroke-opacity="0.333333" d="M1024.9445,-36.037C1004.6331,-73.9799 957.3929,-162.2272 933.4636,-206.9285"/>
<polygon fill="#444444" fill-opacity="0.333333" stroke="#444444" stroke-opacity="0.333333" points="930.3631,-205.3044 928.7293,-215.7725 936.5345,-208.6081 930.3631,-205.3044"/>
</g>
<!-- iptables&#45;libs&#45;&gt;Fedora Container Base -->
<g id="edge61" class="edge">
<title>iptables&#45;libs&#45;&gt;Fedora Container Base</title>
<path fill="none" stroke="#444444" stroke-opacity="0.333333" d="M1370.8474,-398.6406C1309.2188,-440.7642 1156.1049,-545.4186 1087.3205,-592.4333"/>
<polygon fill="#444444" fill-opacity="0.333333" stroke="#444444" stroke-opacity="0.333333" points="1085.2521,-589.6076 1078.9713,-598.14 1089.2022,-595.3866 1085.2521,-589.6076"/>
</g>
<!-- iptables&#45;libs&#45;&gt;libpcap -->
<g id="edge62" class="edge">
<title>iptables&#45;libs&#45;&gt;libpcap</title>
<path fill="none" stroke="#444444" stroke-opacity="0.333333" d="M1470.8216,-387.724C1473.8187,-388.0161 1476.8213,-388.3086 1479.8108,-388.5999"/>
<polygon fill="#444444" fill-opacity="0.333333" stroke="#444444" stroke-opacity="0.333333" points="1479.6057,-392.0964 1489.8981,-389.5828 1480.2847,-385.1294 1479.6057,-392.0964"/>
</g>
<!-- kmod&#45;libs&#45;&gt;Fedora Container Base -->
<g id="edge63" class="edge">
<title>kmod&#45;libs&#45;&gt;Fedora Container Base</title>
<path fill="none" stroke="#444444" stroke-opacity="0.333333" d="M1229.0747,-375.7767C1196.1157,-420.7105 1110.6647,-537.208 1072.1834,-589.6704"/>
<polygon fill="#444444" fill-opacity="0.333333" stroke="#444444" stroke-opacity="0.333333" points="1069.3029,-587.6799 1066.2105,-597.8134 1074.9473,-591.8201 1069.3029,-587.6799"/>
</g>
<!-- libfdisk&#45;&gt;Fedora Container Base -->
<g id="edge64" class="edge">
<title>libfdisk&#45;&gt;Fedora Container Base</title>
<path fill="none" stroke="#444444" stroke-opacity="0.333333" d="M908.6648,-600.7239C917.4956,-601.6567 926.8324,-602.643 936.3376,-603.6471"/>
<polygon fill="#444444" fill-opacity="0.333333" stroke="#444444" stroke-opacity="0.333333" points="935.9775,-607.1284 946.2899,-604.6984 936.7129,-600.1672 935.9775,-607.1284"/>
</g>
<!-- libseccomp&#45;&gt;Fedora Container Base -->
<g id="edge65" class="edge">
<title>libseccomp&#45;&gt;Fedora Container Base</title>
<path fill="none" stroke="#444444" stroke-opacity="0.333333" d="M1275.3557,-249.3847C1237.7593,-311.3382 1113.7527,-515.6833 1069.1014,-589.2624"/>
<polygon fill="#444444" fill-opacity="0.333333" stroke="#444444" stroke-opacity="0.333333" points="1066.0165,-587.5996 1063.8206,-597.9644 1072.0008,-591.2311 1066.0165,-587.5996"/>
</g>
<!-- qrencode&#45;libs&#45;&gt;Fedora Container Base -->
<g id="edge66" class="edge">
<title>qrencode&#45;libs&#45;&gt;Fedora Container Base</title>
<path fill="none" stroke="#444444" stroke-opacity="0.333333" d="M1218.8601,-750.5613C1185.0776,-723.1622 1120.9264,-671.1326 1083.0403,-640.4052"/>
<polygon fill="#444444" fill-opacity="0.333333" stroke="#444444" stroke-opacity="0.333333" points="1084.8909,-637.3997 1074.9195,-633.8188 1080.4815,-642.8363 1084.8909,-637.3997"/>
</g>
<!-- systemd&#45;pam&#45;&gt;Fedora Container Base -->
<g id="edge67" class="edge">
<title>systemd&#45;pam&#45;&gt;Fedora Container Base</title>
<path fill="none" stroke="#444444" stroke-opacity="0.333333" d="M1308.0167,-659.4399C1259.6797,-651.2018 1197.489,-640.6025 1146.6125,-631.9315"/>
<polygon fill="#444444" fill-opacity="0.333333" stroke="#444444" stroke-opacity="0.333333" points="1147.0414,-628.4543 1136.5955,-630.2243 1145.8653,-635.3548 1147.0414,-628.4543"/>
</g>
<!-- systemd&#45;pam&#45;&gt;systemd -->
<g id="edge68" class="edge">
<title>systemd&#45;pam&#45;&gt;systemd</title>
<path fill="none" stroke="#444444" stroke-opacity="0.333333" d="M1362.2041,-654.5569C1318.4095,-627.0827 1225.9187,-575.7278 1167.361,-545.9826"/>
<polygon fill="#444444" fill-opacity="0.333333" stroke="#444444" stroke-opacity="0.333333" points="1168.7723,-542.7746 1158.2668,-541.4012 1165.6229,-549.0261 1168.7723,-542.7746"/>
</g>
<!-- systemd&#45;rpm&#45;macros&#45;&gt;Fedora Container Base -->
<g id="edge69" class="edge">
<title>systemd&#45;rpm&#45;macros&#45;&gt;Fedora Container Base</title>
<path fill="none" stroke="#444444" stroke-opacity="0.333333" d="M1334.6401,-810.1777C1278.9253,-771.7707 1148.9189,-682.1507 1086.9384,-639.4244"/>
<polygon fill="#444444" fill-opacity="0.333333" stroke="#444444" stroke-opacity="0.333333" points="1088.8788,-636.511 1078.659,-633.717 1084.9058,-642.2743 1088.8788,-636.511"/>
</g>
<!-- diffutils&#45;&gt;Fedora Container Base -->
<g id="edge72" class="edge">
<title>diffutils&#45;&gt;Fedora Container Base</title>
<path fill="none" stroke="#444444" stroke-opacity="0.333333" d="M1323.1887,-546.8064C1268.2781,-560.8553 1184.9965,-582.163 1125.3982,-597.4113"/>
<polygon fill="#444444" fill-opacity="0.333333" stroke="#444444" stroke-opacity="0.333333" points="1124.4943,-594.0297 1115.6739,-599.8992 1126.2294,-600.8113 1124.4943,-594.0297"/>
</g>
<!-- libxkbcommon&#45;&gt;Fedora Container Base -->
<g id="edge73" class="edge">
<title>libxkbcommon&#45;&gt;Fedora Container Base</title>
<path fill="none" stroke="#444444" stroke-opacity="0.333333" d="M1489.8807,-668.3119C1401.9373,-657.776 1262.2599,-641.0421 1164.5608,-629.3374"/>
<polygon fill="#444444" fill-opacity="0.333333" stroke="#444444" stroke-opacity="0.333333" points="1164.6956,-625.8286 1154.3502,-628.1141 1163.8628,-632.7789 1164.6956,-625.8286"/>
</g>
<!-- libxkbcommon&#45;&gt;xkeyboard&#45;config -->
<g id="edge74" class="edge">
<title>libxkbcommon&#45;&gt;xkeyboard&#45;config</title>
<path fill="none" stroke="#444444" stroke-opacity="0.333333" d="M1655.147,-694.7009C1732.1405,-710.0637 1846.8922,-732.9606 1927.7342,-749.0913"/>
<polygon fill="#444444" fill-opacity="0.333333" stroke="#444444" stroke-opacity="0.333333" points="1927.4237,-752.5982 1937.9153,-751.1228 1928.7935,-745.7336 1927.4237,-752.5982"/>
</g>
<!-- libutempter&#45;&gt;Fedora Container Base -->
<g id="edge70" class="edge">
<title>libutempter&#45;&gt;Fedora Container Base</title>
<path fill="none" stroke="#444444" stroke-opacity="0.333333" d="M760.7041,-641.3359C808.0631,-637.223 872.5194,-631.6252 928.8447,-626.7336"/>
<polygon fill="#444444" fill-opacity="0.333333" stroke="#444444" stroke-opacity="0.333333" points="929.2372,-630.2128 938.8969,-625.8607 928.6315,-623.2391 929.2372,-630.2128"/>
</g>
<!-- libutempter&#45;&gt;shadow&#45;utils -->
<g id="edge71" class="edge">
<title>libutempter&#45;&gt;shadow&#45;utils</title>
<path fill="none" stroke="#444444" stroke-opacity="0.333333" d="M698.3151,-628.9843C711.527,-587.5335 743.832,-486.1798 759.5088,-436.9955"/>
<polygon fill="#444444" fill-opacity="0.333333" stroke="#444444" stroke-opacity="0.333333" points="762.8867,-437.9229 762.5889,-427.3322 756.2173,-435.7971 762.8867,-437.9229"/>
</g>
<!-- libunwind&#45;&gt;Fedora Container Base -->
<g id="edge38" class="edge">
<title>libunwind&#45;&gt;Fedora Container Base</title>
<path fill="none" stroke="#444444" stroke-opacity="0.333333" d="M754.5451,-1013.8558C804.0042,-947.8955 974.4217,-720.6212 1032.9662,-642.5443"/>
<polygon fill="#444444" fill-opacity="0.333333" stroke="#444444" stroke-opacity="0.333333" points="1036.0243,-644.3001 1039.2232,-634.1998 1030.4238,-640.1007 1036.0243,-644.3001"/>
</g>
<!-- libunwind&#45;&gt;libunwind -->
<g id="edge39" class="edge">
<title>libunwind&#45;&gt;libunwind</title>
<path fill="none" stroke="#444444" stroke-opacity="0.333333" d="M808.277,-1038.186C818.7797,-1037.2612 825.94,-1035.1992 825.94,-1032 825.94,-1030.0005 823.143,-1028.4452 818.4811,-1027.3341"/>
<polygon fill="#444444" fill-opacity="0.333333" stroke="#444444" stroke-opacity="0.333333" points="818.6836,-1023.8258 808.277,-1025.814 817.6521,-1030.7494 818.6836,-1023.8258"/>
</g>
<!-- libpcap&#45;&gt;Fedora Container Base -->
<g id="edge40" class="edge">
<title>libpcap&#45;&gt;Fedora Container Base</title>
<path fill="none" stroke="#444444" stroke-opacity="0.333333" d="M1509.0448,-413.4585C1418.2151,-453.7816 1199.1369,-551.0394 1101.3934,-594.4318"/>
<polygon fill="#444444" fill-opacity="0.333333" stroke="#444444" stroke-opacity="0.333333" points="1099.7615,-591.3268 1092.0418,-598.5833 1102.6018,-597.7247 1099.7615,-591.3268"/>
</g>
<!-- gperftools&#45;libs&#45;&gt;Fedora Container Base -->
<g id="edge43" class="edge">
<title>gperftools&#45;libs&#45;&gt;Fedora Container Base</title>
<path fill="none" stroke="#444444" stroke-opacity="0.333333" d="M652.8933,-861.5441C728.8774,-814.8937 931.1069,-690.7349 1015.299,-639.0451"/>
<polygon fill="#444444" fill-opacity="0.333333" stroke="#444444" stroke-opacity="0.333333" points="1017.3294,-641.9056 1024.0202,-633.6907 1013.6669,-635.9402 1017.3294,-641.9056"/>
</g>
<!-- gperftools&#45;libs&#45;&gt;libunwind -->
<g id="edge44" class="edge">
<title>gperftools&#45;libs&#45;&gt;libunwind</title>
<path fill="none" stroke="#444444" stroke-opacity="0.333333" d="M637.3185,-897.7424C658.0014,-924.5402 696.9156,-974.9596 720.723,-1005.8058"/>
<polygon fill="#444444" fill-opacity="0.333333" stroke="#444444" stroke-opacity="0.333333" points="718.1289,-1008.1732 727.0096,-1013.9511 723.6704,-1003.8962 718.1289,-1008.1732"/>
</g>
<!-- nginx&#45;&gt;Fedora Container Base -->
<g id="edge45" class="edge">
<title>nginx&#45;&gt;Fedora Container Base</title>
<path fill="none" stroke="#444444" stroke-opacity="0.333333" d="M616.7542,-631.9234C694.5234,-629.077 815.8965,-624.6346 910.8791,-621.1581"/>
<polygon fill="#444444" fill-opacity="0.333333" stroke="#444444" stroke-opacity="0.333333" points="911.288,-624.6456 921.1533,-620.7821 911.0319,-617.6503 911.288,-624.6456"/>
</g>
<!-- nginx&#45;&gt;systemd -->
<g id="edge46" class="edge">
<title>nginx&#45;&gt;systemd</title>
<path fill="none" stroke="#444444" stroke-opacity="0.333333" d="M616.6916,-619.7474C728.9978,-598.0374 935.0863,-558.1981 1043.7699,-537.1883"/>
<polygon fill="#444444" fill-opacity="0.333333" stroke="#444444" stroke-opacity="0.333333" points="1044.5042,-540.6112 1053.6581,-535.2768 1043.1756,-533.7384 1044.5042,-540.6112"/>
</g>
<!-- nginx&#45;&gt;fedora&#45;logos&#45;httpd -->
<g id="edge47" class="edge">
<title>nginx&#45;&gt;fedora&#45;logos&#45;httpd</title>
<path fill="none" stroke="#444444" stroke-opacity="0.333333" d="M469.1536,-652.8691C386.3065,-674.3431 248.5113,-710.0597 161.743,-732.5502"/>
<polygon fill="#444444" fill-opacity="0.333333" stroke="#444444" stroke-opacity="0.333333" points="160.7463,-729.1928 151.9444,-735.09 162.5027,-735.9688 160.7463,-729.1928"/>
</g>
<!-- nginx&#45;&gt;gperftools&#45;libs -->
<g id="edge48" class="edge">
<title>nginx&#45;&gt;gperftools&#45;libs</title>
<path fill="none" stroke="#444444" stroke-opacity="0.333333" d="M545.1854,-652.7781C559.7858,-695.1485 596.3913,-801.3776 613.8362,-852.003"/>
<polygon fill="#444444" fill-opacity="0.333333" stroke="#444444" stroke-opacity="0.333333" points="610.5885,-853.3214 617.1555,-861.6355 617.2066,-851.0408 610.5885,-853.3214"/>
</g>
<!-- nginx&#45;&gt;nginx -->
<g id="edge49" class="edge">
<title>nginx&#45;&gt;nginx</title>
<path fill="none" stroke="#444444" stroke-opacity="0.333333" d="M616.5455,-640.7933C627.295,-639.8012 634.48,-637.7934 634.48,-634.77 634.48,-632.8331 631.5313,-631.3131 626.5857,-630.2098"/>
<polygon fill="#444444" fill-opacity="0.333333" stroke="#444444" stroke-opacity="0.333333" points="626.9457,-626.7254 616.5455,-628.7467 625.9362,-633.6523 626.9457,-626.7254"/>
</g>
<!-- nginx&#45;&gt;nginx&#45;filesystem -->
<g id="edge50" class="edge">
<title>nginx&#45;&gt;nginx&#45;filesystem</title>
<path fill="none" stroke="#444444" stroke-opacity="0.333333" d="M537.2328,-616.7564C534.34,-586.9325 528.5343,-527.0757 525.0945,-491.612"/>
<polygon fill="#444444" fill-opacity="0.333333" stroke="#444444" stroke-opacity="0.333333" points="528.5579,-491.0647 524.1087,-481.4494 521.5906,-491.7406 528.5579,-491.0647"/>
</g>
<!-- nginx&#45;&gt;nginx&#45;mimetypes -->
<g id="edge51" class="edge">
<title>nginx&#45;&gt;nginx&#45;mimetypes</title>
<path fill="none" stroke="#444444" stroke-opacity="0.333333" d="M500.5601,-616.6582C438.4633,-587.3847 316.2015,-529.7484 248.7204,-497.9366"/>
<polygon fill="#444444" fill-opacity="0.333333" stroke="#444444" stroke-opacity="0.333333" points="250.1118,-494.7232 239.574,-493.6249 247.1269,-501.0549 250.1118,-494.7232"/>
</g>
<!-- nginx&#45;filesystem&#45;&gt;Fedora Container Base -->
<g id="edge52" class="edge">
<title>nginx&#45;filesystem&#45;&gt;Fedora Container Base</title>
<path fill="none" stroke="#444444" stroke-opacity="0.333333" d="M585.0413,-481.442C685.715,-510.3876 882.5915,-566.9932 985.9264,-596.7039"/>
<polygon fill="#444444" fill-opacity="0.333333" stroke="#444444" stroke-opacity="0.333333" points="985.0504,-600.0937 995.6282,-599.4933 986.9847,-593.3663 985.0504,-600.0937"/>
</g>
<!-- nginx&#45;filesystem&#45;&gt;shadow&#45;utils -->
<g id="edge53" class="edge">
<title>nginx&#45;filesystem&#45;&gt;shadow&#45;utils</title>
<path fill="none" stroke="#444444" stroke-opacity="0.333333" d="M598.502,-446.6729C626.7732,-440.4548 658.9271,-433.3827 687.5946,-427.0774"/>
<polygon fill="#444444" fill-opacity="0.333333" stroke="#444444" stroke-opacity="0.333333" points="688.5624,-430.4483 697.5771,-424.8818 687.0587,-423.6117 688.5624,-430.4483"/>
</g>
<!-- nginx&#45;mimetypes&#45;&gt;nginx&#45;filesystem -->
<g id="edge54" class="edge">
<title>nginx&#45;mimetypes&#45;&gt;nginx&#45;filesystem</title>
<path fill="none" stroke="#444444" stroke-opacity="0.333333" d="M287.2577,-472.2847C333.2941,-470.5489 389.8292,-468.4172 435.9218,-466.6792"/>
<polygon fill="#444444" fill-opacity="0.333333" stroke="#444444" stroke-opacity="0.333333" points="436.3305,-470.1664 446.1915,-466.292 436.0667,-463.1714 436.3305,-470.1664"/>
</g>
<!-- nginx&#45;mimetypes&#45;&gt;nginx&#45;mimetypes -->
<g id="edge55" class="edge">
<title>nginx&#45;mimetypes&#45;&gt;nginx&#45;mimetypes</title>
<path fill="none" stroke="#444444" stroke-opacity="0.333333" d="M287.267,-481.4082C298.0764,-480.3722 305.19,-478.4128 305.19,-475.53 305.19,-473.6832 302.2706,-472.2154 297.3303,-471.1265"/>
<polygon fill="#444444" fill-opacity="0.333333" stroke="#444444" stroke-opacity="0.333333" points="297.6689,-467.6388 287.267,-469.6518 296.6539,-474.5648 297.6689,-467.6388"/>
</g>
<!-- Fedora Container Base -->
<g id="node1" class="node">
<title>Fedora Container Base</title>
<ellipse fill="none" stroke="#000000" cx="1052.9" cy="-615.96" rx="136.5" ry="18"/>
<text text-anchor="middle" x="1052.9" y="-612.26" font-family="Helvetica,sans-Serif" font-weight="bold" font-size="14.00" fill="#000000">Fedora Container Base (201.3 MB)</text>
</g>
<!-- device&#45;mapper&#45;libs -->
<g id="node2" class="node">
<title>device&#45;mapper&#45;libs</title>
<text text-anchor="middle" x="1185.5" y="-1073.9" font-family="Helvetica,sans-Serif" font-weight="bold" font-size="14.00" fill="#000000">device&#45;mapper&#45;libs (418.0 kB)</text>
</g>
<!-- device&#45;mapper -->
<g id="node3" class="node">
<title>device&#45;mapper</title>
<text text-anchor="middle" x="1026.6" y="-876.69" font-family="Helvetica,sans-Serif" font-weight="bold" font-size="14.00" fill="#000000">device&#45;mapper (349.9 kB)</text>
</g>
<!-- libargon2 -->
<g id="node4" class="node">
<title>libargon2</title>
<text text-anchor="middle" x="1024" y="-1115.7" font-family="Helvetica,sans-Serif" font-weight="bold" font-size="14.00" fill="#000000">libargon2 (54.2 kB)</text>
</g>
<!-- dbus&#45;broker -->
<g id="node5" class="node">
<title>dbus&#45;broker</title>
<text text-anchor="middle" x="919.02" y="-230.21" font-family="Helvetica,sans-Serif" font-weight="bold" font-size="14.00" fill="#000000">dbus&#45;broker (409.7 kB)</text>
</g>
<!-- dbus&#45;common -->
<g id="node6" class="node">
<title>dbus&#45;common</title>
<text text-anchor="middle" x="1005.6" y="-304.87" font-family="Helvetica,sans-Serif" font-weight="bold" font-size="14.00" fill="#000000">dbus&#45;common (11.2 kB)</text>
</g>
<!-- shadow&#45;utils -->
<g id="node7" class="node">
<title>shadow&#45;utils</title>
<text text-anchor="middle" x="768.33" y="-405.62" font-family="Helvetica,sans-Serif" font-weight="bold" font-size="14.00" fill="#000000">shadow&#45;utils (4.0 MB)</text>
</g>
<!-- systemd -->
<g id="node8" class="node">
<title>systemd</title>
<text text-anchor="middle" x="1115.2" y="-519.68" font-family="Helvetica,sans-Serif" font-weight="bold" font-size="14.00" fill="#000000">systemd (13.1 MB)</text>
</g>
<!-- libsemanage -->
<g id="node9" class="node">
<title>libsemanage</title>
<text text-anchor="middle" x="694.16" y="-238.25" font-family="Helvetica,sans-Serif" font-weight="bold" font-size="14.00" fill="#000000">libsemanage (304.5 kB)</text>
</g>
<!-- util&#45;linux -->
<g id="node10" class="node">
<title>util&#45;linux</title>
<text text-anchor="middle" x="874.95" y="-754.85" font-family="Helvetica,sans-Serif" font-weight="bold" font-size="14.00" fill="#000000">util&#45;linux (13.5 MB)</text>
</g>
<!-- acl -->
<g id="node11" class="node">
<title>acl</title>
<text text-anchor="middle" x="1132.8" y="-208.32" font-family="Helvetica,sans-Serif" font-weight="bold" font-size="14.00" fill="#000000">acl (209.6 kB)</text>
</g>
<!-- cryptsetup&#45;libs -->
<g id="node12" class="node">
<title>cryptsetup&#45;libs</title>
<text text-anchor="middle" x="1154.3" y="-926.03" font-family="Helvetica,sans-Serif" font-weight="bold" font-size="14.00" fill="#000000">cryptsetup&#45;libs (1.8 MB)</text>
</g>
<!-- dbus -->
<g id="node13" class="node">
<title>dbus</title>
<text text-anchor="middle" x="1034.6" y="-14.3" font-family="Helvetica,sans-Serif" font-weight="bold" font-size="14.00" fill="#000000">dbus (0.0 B)</text>
</g>
<!-- iptables&#45;libs -->
<g id="node14" class="node">
<title>iptables&#45;libs</title>
<text text-anchor="middle" x="1397.3" y="-376.86" font-family="Helvetica,sans-Serif" font-weight="bold" font-size="14.00" fill="#000000">iptables&#45;libs (141.4 kB)</text>
</g>
<!-- kmod&#45;libs -->
<g id="node15" class="node">
<title>kmod&#45;libs</title>
<text text-anchor="middle" x="1242.4" y="-353.91" font-family="Helvetica,sans-Serif" font-weight="bold" font-size="14.00" fill="#000000">kmod&#45;libs (127.5 kB)</text>
</g>
<!-- libfdisk -->
<g id="node16" class="node">
<title>libfdisk</title>
<text text-anchor="middle" x="848.42" y="-590.66" font-family="Helvetica,sans-Serif" font-weight="bold" font-size="14.00" fill="#000000">libfdisk (472.7 kB)</text>
</g>
<!-- libseccomp -->
<g id="node17" class="node">
<title>libseccomp</title>
<text text-anchor="middle" x="1286.3" y="-227.65" font-family="Helvetica,sans-Serif" font-weight="bold" font-size="14.00" fill="#000000">libseccomp (351.1 kB)</text>
</g>
<!-- qrencode&#45;libs -->
<g id="node18" class="node">
<title>qrencode&#45;libs</title>
<text text-anchor="middle" x="1241.2" y="-764.98" font-family="Helvetica,sans-Serif" font-weight="bold" font-size="14.00" fill="#000000">qrencode&#45;libs (158.2 kB)</text>
</g>
<!-- systemd&#45;pam -->
<g id="node19" class="node">
<title>systemd&#45;pam</title>
<text text-anchor="middle" x="1386.7" y="-669.15" font-family="Helvetica,sans-Serif" font-weight="bold" font-size="14.00" fill="#000000">systemd&#45;pam (867.6 kB)</text>
</g>
<!-- systemd&#45;rpm&#45;macros -->
<g id="node20" class="node">
<title>systemd&#45;rpm&#45;macros</title>
<text text-anchor="middle" x="1360.9" y="-824.58" font-family="Helvetica,sans-Serif" font-weight="bold" font-size="14.00" fill="#000000">systemd&#45;rpm&#45;macros (7.9 kB)</text>
</g>
<!-- diffutils -->
<g id="node21" class="node">
<title>diffutils</title>
<text text-anchor="middle" x="1380.2" y="-528.52" font-family="Helvetica,sans-Serif" font-weight="bold" font-size="14.00" fill="#000000">diffutils (1.5 MB)</text>
</g>
<!-- libxkbcommon -->
<g id="node22" class="node">
<title>libxkbcommon</title>
<text text-anchor="middle" x="1572.5" y="-674.51" font-family="Helvetica,sans-Serif" font-weight="bold" font-size="14.00" fill="#000000">libxkbcommon (276.4 kB)</text>
</g>
<!-- libutempter -->
<g id="node23" class="node">
<title>libutempter</title>
<text text-anchor="middle" x="692.49" y="-643.56" font-family="Helvetica,sans-Serif" font-weight="bold" font-size="14.00" fill="#000000">libutempter (57.8 kB)</text>
</g>
<!-- libunwind -->
<g id="node24" class="node">
<title>libunwind</title>
<text text-anchor="middle" x="740.94" y="-1028.3" font-family="Helvetica,sans-Serif" font-weight="bold" font-size="14.00" fill="#000000">libunwind (172.8 kB)</text>
</g>
<!-- libpcap -->
<g id="node25" class="node">
<title>libpcap</title>
<text text-anchor="middle" x="1549.7" y="-391.71" font-family="Helvetica,sans-Serif" font-weight="bold" font-size="14.00" fill="#000000">libpcap (387.4 kB)</text>
</g>
<!-- xkeyboard&#45;config -->
<g id="node26" class="node">
<title>xkeyboard&#45;config</title>
<text text-anchor="middle" x="2023.1" y="-764.42" font-family="Helvetica,sans-Serif" font-weight="bold" font-size="14.00" fill="#000000">xkeyboard&#45;config (5.5 MB)</text>
</g>
<!-- fedora&#45;logos&#45;httpd -->
<g id="node27" class="node">
<title>fedora&#45;logos&#45;httpd</title>
<text text-anchor="middle" x="82.5" y="-749.39" font-family="Helvetica,sans-Serif" font-weight="bold" font-size="14.00" fill="#000000">fedora&#45;logos&#45;httpd (9.9 kB)</text>
</g>
<!-- gperftools&#45;libs -->
<g id="node28" class="node">
<title>gperftools&#45;libs</title>
<text text-anchor="middle" x="623.37" y="-875.97" font-family="Helvetica,sans-Serif" font-weight="bold" font-size="14.00" fill="#000000">gperftools&#45;libs (1.5 MB)</text>
</g>
<!-- nginx -->
<g id="node29" class="node">
<title>nginx</title>
<text text-anchor="middle" x="538.98" y="-629.17" font-family="Helvetica,sans-Serif" font-weight="bold" font-size="22.00" fill="#cc0066">nginx (1.6 MB)</text>
</g>
<!-- nginx&#45;filesystem -->
<g id="node30" class="node">
<title>nginx&#45;filesystem</title>
<text text-anchor="middle" x="522.36" y="-459.72" font-family="Helvetica,sans-Serif" font-weight="bold" font-size="14.00" fill="#000000">nginx&#45;filesystem (0.0 B)</text>
</g>
<!-- nginx&#45;mimetypes -->
<g id="node31" class="node">
<title>nginx&#45;mimetypes</title>
<text text-anchor="middle" x="201.19" y="-471.83" font-family="Helvetica,sans-Serif" font-weight="bold" font-size="14.00" fill="#000000">nginx&#45;mimetypes (39.3 kB)</text>
</g>
</g>

<script type="text/javascript"><![CDATA[

document.addEventListener('click', function(e) {
      e = e || window.event;
      var target = e.target || e.srcElement;
      text = target.parentElement.querySelector("title").textContent;

      console.log("Clicked on: " + text);
      // reset all strokes
      var nodes = document.getElementsByClassName("edge");

      for (index = 0, len = nodes.length; index < len; ++index) {
          //var title = nodes[index].querySelector("title").textContent.split("->");
          id = nodes[index].id;
          document.getElementById(id).querySelector("path").setAttribute("stroke-width", "1");
          document.getElementById(id).querySelector("path").setAttribute("stroke-opacity", "0.5");
          document.getElementById(id).querySelector("path").setAttribute("stroke", "#444444");
          document.getElementById(id).querySelector("polygon").setAttribute("stroke-width", "1");
          document.getElementById(id).querySelector("polygon").setAttribute("stroke-opacity", "0.5");
          document.getElementById(id).querySelector("polygon").setAttribute("stroke", "#444444");
      }
      // reset text highlight
      pkgs = document.getElementsByClassName("node");
      for (index2 = 0, len2 = pkgs.length; index2 < len2; ++index2) {
          target_id = pkgs[index2].id;
          document.getElementById(target_id).querySelector("text").setAttribute("font-weight", "normal");
      }

      // highlight deps
      var nodes = document.getElementsByClassName("edge");
      for (index = 0, len = nodes.length; index < len; ++index) {
        var title = nodes[index].querySelector("title").textContent.split("->");

        if (title[0] == text) {
          id = nodes[index].id;
          //console.log("ID:   " + id);
          document.getElementById(id).querySelector("path").setAttribute("stroke-width", "3");
          document.getElementById(id).querySelector("path").setAttribute("stroke-opacity", "1");
          document.getElementById(id).querySelector("path").setAttribute("stroke", "#aa3333");
          document.getElementById(id).querySelector("polygon").setAttribute("stroke-width", "5");
          document.getElementById(id).querySelector("polygon").setAttribute("stroke-opacity", "1");
          document.getElementById(id).querySelector("polygon").setAttribute("stroke", "#aa3333");

        }
        if (title[1] == text) {
          id = nodes[index].id;
          document.getElementById(id).querySelector("path").setAttribute("stroke-width", "3");
          document.getElementById(id).querySelector("path").setAttribute("stroke-opacity", "1");
          document.getElementById(id).querySelector("path").setAttribute("stroke", "#333377");
          document.getElementById(id).querySelector("polygon").setAttribute("stroke-width", "5");
          document.getElementById(id).querySelector("polygon").setAttribute("stroke-opacity", "1");
          document.getElementById(id).querySelector("polygon").setAttribute("stroke", "#333377");
        }

        if (title[0] == text || title[1] == text) {
          pkgs = document.getElementsByClassName("node");
          for (index2 = 0, len2 = pkgs.length; index2 < len2; ++index2) {
            var pkg_name = pkgs[index2].querySelector("title").textContent;
            if (pkg_name == title[0] || pkg_name == title[1]) {
              target_id = pkgs[index2].id;
              document.getElementById(target_id).querySelector("text").setAttribute("font-weight", "bold");
            }
          }
        }
      }


  }, false);

]]></script>

</svg>
