<?xml version="1.0" encoding="UTF-8" standalone="no"?>
<!DOCTYPE svg PUBLIC "-//W3C//DTD SVG 1.1//EN"
 "http://www.w3.org/Graphics/SVG/1.1/DTD/svg11.dtd">
<!-- Generated by graphviz version 2.40.1 (0)
 -->
<!-- Title: packages Pages: 1 -->
<svg width="1571pt" height="1130pt"
 viewBox="0.00 0.00 1885.05 1355.96" xmlns="http://www.w3.org/2000/svg" xmlns:xlink="http://www.w3.org/1999/xlink">
<g id="graph0" class="graph" transform="scale(.8333 .8333) rotate(0) translate(131.0075 1234.0869)">
<title>packages</title>
<polygon fill="#dae2ff" stroke="transparent" points="-131.0075,121.8722 -131.0075,-1234.0869 1754.0404,-1234.0869 1754.0404,121.8722 -131.0075,121.8722"/>
<polygon fill="#b3cde3" stroke="#b3cde3" points="211.9176,-1002.134 209.2242,-913.6707 214.2333,-910.0211 216.1499,-959.1961 220.3446,-907.4865 223.9886,-907.4865 225.6086,-907.005 228.7,-907.005 230.6645,-909.3721 234.77,-911.7026 234.77,-911.7026 230.6645,-909.3721 228.7,-907.005 225.6086,-907.005 223.9886,-907.4865 220.3446,-907.4865 216.1499,-959.1961 214.2333,-910.0211 209.2242,-913.6707 211.9176,-1002.134 215.2794,-1000.5078 227.0715,-995.6708 239.7964,-991.3953 246.6215,-989.613 252.0828,-988.5905 256.259,-907.6783 259.7474,-907.6783 259.7474,-907.6783 256.259,-907.6783 252.0828,-988.5905 265.4801,-986.5756 277.0532,-985.6981 288.0821,-984.4424 297.2574,-983.0513 301.0274,-982.1967 309.4032,-979.9798 318.9364,-976.7321 324.1419,-974.7622 331.0767,-971.876 335.1012,-970.0505 350.8577,-961.699 357.0776,-957.9417 356.779,-914.1202 356.683,-912.8433 356.5703,-896.3998 356.7389,-890.235 356.3129,-827.7002 442.6119,-841.9025 453.7353,-843.1785 459.9003,-843.5734 461.3783,-843.5933 462.3298,-843.558 470.5547,-843.6447 471.3835,-843.6114 471.5268,-837.29 471.5268,-837.29 471.3835,-843.6114 474.0594,-843.7594 479.3474,-843.7834 485.6266,-843.493 486.1559,-843.519 491.4756,-843.5113 492.8359,-843.4407 492.9584,-843.4402 495.6267,-784.7283 500.5609,-786.13 505.483,-784.7527 509.5703,-781.3099 505.5433,-777.8953 505.5433,-777.8953 509.5703,-781.3099 505.483,-784.7527 500.5609,-786.13 495.6267,-784.7283 492.9584,-843.4402 499.0163,-843.7011 499.2936,-843.7262 505.6053,-843.6607 505.8389,-843.6465 510.9243,-843.5786 514.6133,-843.881 520.8802,-844.0768 531.1264,-844.8843 534.8547,-845.53 598.3574,-859.5463 635.0916,-825.9159 633.9695,-792.8032 633.4817,-785.3683 633.452,-773.104 633.6648,-765.8091 631.4052,-699.1237 645.5934,-690.9427 669.2654,-619.689 676.0969,-589.1804 676.9642,-586.1296 682.1111,-563.0228 708.423,-483.8228 661.6152,-455.0647 671.3319,-375.7523 672.0798,-353.844 672.6315,-346.8851 673.8815,-336.8391 673.9268,-336.5711 677.5024,-307.3857 672.4149,-303.9591 663.9374,-299.05 658.0808,-295.9369 655.5192,-294.8156 642.6097,-289.7523 639.7802,-288.7781 630.5674,-286.0415 623.092,-284.5315 611.4106,-283.2706 607.3104,-283.0223 601.4152,-283.2209 593.5443,-282.7005 580.4313,-281.1763 576.0403,-280.2326 562.1489,-275.844 562.3851,-315.9716 559.3366,-341.0121 566.0056,-343.0888 568.9131,-345.5965 569.6045,-345.5965 569.6045,-345.5965 568.9131,-345.5965 566.0056,-343.0888 559.3366,-341.0121 554.9518,-342.2813 551.097,-345.8076 549.292,-345.8076 549.292,-345.8076 551.097,-345.8076 554.9518,-342.2813 559.3366,-341.0121 562.3851,-315.9716 562.1489,-275.844 549.9063,-270.7561 535.9845,-262.871 531.9545,-260.3911 520.2151,-251.9771 511.0902,-244.9893 486.6862,-225.1453 479.7318,-219.7854 480.3653,-218.0923 503.7226,-144.8388 607.1891,-83.0237 612.3298,-79.6706 627.6534,-68.8128 635.3416,-63.1571 648.3062,-52.919 655.7999,-46.1823 648.1369,-28.3124 636.6656,1.5516 612.9606,67.3 577.6351,102.6837 523.3644,114.6358 488.1074,111.4586 481.9379,111.1719 478.1835,-18.0485 474.5453,-18.0485 474.3843,-18.0016 474.3843,-18.0016 474.5453,-18.0485 478.1835,-18.0485 481.9379,111.1719 463.368,110.7142 459.7018,110.944 447.0255,112.017 445.0185,111.9989 436.0636,112.1118 435.694,112.1245 424.0549,113.0269 375.1816,117.8722 286.2856,14.8954 243.759,7.9008 245.0687,-117.5144 245.6454,-124.4469 275.6346,-128.8346 289.787,-127.1547 294.7476,-130.9179 299.2913,-25.4489 300.3977,-57.1286 305.9621,-133.2026 310.0268,-133.2026 310.5819,-133.3681 315.5751,-133.3681 316.7538,-133.7191 319.812,-133.7191 324.4426,-174.1936 326.5349,-236.8448 331.3888,-137.002 335.8004,-138.2383 341.4329,-136.5483 344.9445,-133.3857 340.9627,-129.8198 336.3692,-128.5184 336.3692,-128.5184 340.9627,-129.8198 344.9445,-133.3857 346.6554,-133.3857 346.0534,-220.4516 352.4024,-133.3188 356.0479,-133.3188 356.7776,-133.5317 357.7327,-196.6411 362.7793,-133.6831 367.033,-133.6831 369.4249,-244.6725 377.1263,-244.6248 381.9557,-244.8389 377.5944,-324.6822 379.2779,-351.3743 372.6381,-353.4452 369.9391,-355.7254 374.4671,-359.9005 378.8189,-361.1305 384.5306,-359.4695 387.9868,-356.511 387.9868,-356.511 384.5306,-359.4695 378.8189,-361.1305 374.4671,-359.9005 369.9391,-355.7254 368.9529,-355.7254 368.9529,-355.7254 369.9391,-355.7254 372.6381,-353.4452 379.2779,-351.3743 377.5944,-324.6822 381.9557,-244.8389 377.1263,-244.6248 369.4249,-244.6725 367.033,-133.6831 362.7793,-133.6831 357.7327,-196.6411 356.7776,-133.5317 356.0479,-133.3188 352.4024,-133.3188 346.0534,-220.4516 346.6554,-133.3857 344.9445,-133.3857 341.4329,-136.5483 335.8004,-138.2383 331.3888,-137.002 326.5349,-236.8448 324.4426,-174.1936 319.812,-133.7191 316.7538,-133.7191 315.5751,-133.3681 310.5819,-133.3681 310.0268,-133.2026 305.9621,-133.2026 300.3977,-57.1286 299.2913,-25.4489 294.7476,-130.9179 289.787,-127.1547 275.6346,-128.8346 245.6454,-124.4469 245.0687,-117.5144 243.759,7.9008 200.4927,14.189 192.5918,15.6546 189.9374,14.8919 174.671,11.142 175.5652,-100.5177 172.5528,-129.8709 168.5516,-132.1913 166.7516,-134.4631 168.0079,-135.9876 172.7368,-138.7612 172.7368,-138.7612 168.0079,-135.9876 166.7516,-134.4631 168.5516,-132.1913 172.5528,-129.8709 175.5652,-100.5177 174.671,11.142 158.9173,7.9353 155.0455,7.311 94.5071,.0844 28.3568,-57.1935 24.0553,-104.5143 20.5318,-135.0545 16.3925,-164.747 11.3816,-195.5409 12.2824,-202.2493 -20.5786,-263.2431 -16.6258,-302.8112 -15.7976,-313.6965 -13.8835,-350.4437 -12.7986,-389.3983 58.2939,-410.5879 75.115,-415.0746 75.4414,-415.1407 86.9988,-416.7603 95.8145,-417.7174 105.2587,-418.4433 109.424,-418.4997 118.5681,-418.3344 118.9398,-418.3507 126.9284,-418.9515 135.9099,-419.907 134.8771,-325.7889 131.2511,-322.5789 134.5769,-319.5561 134.5769,-319.5561 131.2511,-322.5789 134.8771,-325.7889 135.9099,-419.907 144.7356,-421.1202 144.9297,-421.1529 145.3638,-421.2394 154.753,-423.4081 160.6323,-424.95 175.1026,-429.1978 237.7838,-449.5016 274.802,-510.3857 285.9437,-512.5493 297.3325,-514.5695 315.6528,-516.8942 329.3671,-517.9406 336.53,-518.2457 339.2132,-518.3149 339.5813,-518.3058 361.8638,-545.9875 377.8483,-564.2537 387.5886,-576.0273 447.83,-658.5937 460.7444,-675.0408 464.2817,-675.4792 470.4008,-676.0754 477.6928,-676.3997 484.3125,-676.5184 490.2461,-676.4672 490.4279,-676.4608 497.3029,-676.5974 505.5596,-676.5419 506.2238,-676.5739 506.9246,-676.5519 510.4832,-614.3739 510.4832,-614.3739 506.9246,-676.5519 506.2238,-676.5739 505.5596,-676.5419 497.3029,-676.5974 490.4279,-676.4608 490.2461,-676.4672 484.3125,-676.5184 477.6928,-676.3997 470.4008,-676.0754 464.2817,-675.4792 460.7444,-675.0408 451.6683,-684.5084 440.1946,-697.321 372.596,-778.9637 366.1083,-785.814 363.9418,-787.9635 347.0107,-805.6653 345.2164,-807.8099 343.3485,-807.157 318.024,-799.5327 317.7859,-799.4788 309.8766,-797.8845 291.1852,-795.0327 289.379,-794.8467 287.9545,-794.7351 280.4567,-794.3321 274.5923,-794.1616 264.6001,-793.6223 262.5024,-793.6649 257.9929,-793.8681 245.9955,-793.8134 245.7932,-793.8275 242.6698,-793.9675 237.9114,-793.9449 234.2305,-794.0184 224.9091,-793.7425 219.9632,-793.7184 218.831,-794.9259 212.3854,-801.1454 109.8883,-890.045 104.5453,-894.9426 103.0058,-896.5092 94.7144,-905.393 92.9642,-907.36 80.0437,-919.7565 70.6233,-930.0132 61.5487,-940.7018 153.1568,-1032.5264 160.8466,-1028.7629 211.9176,-1002.134 211.9176,-1002.134"/>
<polygon fill="#fed9a6" stroke="#fed9a6" points="1036.0112,-632.1821 1034.6559,-668.0372 1034.6559,-668.0372 1036.0112,-632.1821 1044.5662,-632.001 1178.8831,-634.2605 1181.0022,-659.9367 1172.8839,-692.7382 1163.3497,-740.3418 1036.0289,-714.545 1032.9203,-711.2043 1030.928,-710.4214 1029.3442,-709.0755 1025.8394,-709.0755 1025.3634,-709.2187 1020.4183,-709.2187 1019.6428,-709.4578 1017.8272,-709.4578 1014.5178,-706.3421 1014.5178,-706.3421 1017.8272,-709.4578 1014.0205,-712.8781 1009.3155,-714.239 1009.3155,-714.239 1014.0205,-712.8781 1017.8272,-709.4578 1019.6428,-709.4578 1020.4183,-709.2187 1025.3634,-709.2187 1025.8394,-709.0755 1029.3442,-709.0755 1030.928,-710.4214 1032.9203,-711.2043 1036.0289,-714.545 1163.3497,-740.3418 1152.7706,-800.722 1137.9275,-821.0313 1131.2095,-844.3662 1112.6423,-914.6531 1032.5367,-928.2791 1026.1581,-929.0799 1007.9374,-930.9615 1000.1765,-931.2412 997.7297,-931.2746 989.838,-921.4001 986.736,-917.7078 985.2525,-916.03 980.345,-910.7598 974.7601,-905.0798 970.6976,-900.3681 958.9637,-887.5691 959.1935,-865.5259 958.4753,-847.5272 953.9401,-808.319 959.9479,-806.461 963.1969,-803.5121 958.9611,-799.6125 955.1618,-798.5443 955.1618,-798.5443 958.9611,-799.6125 963.1969,-803.5121 959.9479,-806.461 953.9401,-808.319 948.885,-806.86 944.9229,-803.4925 944.5916,-803.4925 944.5042,-803.5181 944.5042,-803.5181 944.5916,-803.4925 944.9229,-803.4925 948.885,-806.86 953.9401,-808.319 958.4753,-847.5272 959.1935,-865.5259 958.9637,-887.5691 970.6976,-900.3681 974.7601,-905.0798 980.345,-910.7598 985.2525,-916.03 986.736,-917.7078 989.838,-921.4001 997.7297,-931.2746 993.8181,-934.3104 908.8994,-997.1515 878.4714,-972.8149 878.0295,-948.4564 878.0295,-948.4564 878.4714,-972.8149 867.0462,-965.0164 863.7362,-962.9579 857.0101,-959.1746 843.2017,-953.0298 839.2246,-951.7388 834.5699,-950.5003 822.4421,-947.9849 820.1892,-947.6536 804.04,-946.2396 789.3258,-942.4606 785.4964,-941.048 782.1533,-934.32 772.3253,-899.378 763.2869,-878.3511 752.1188,-855.8751 746.2748,-855.2595 737.8557,-854.6765 733.1331,-854.5199 729.9778,-854.6422 717.1296,-854.1991 703.9394,-852.2932 692.8,-849.8659 684.3298,-847.3998 668.9911,-841.8011 664.3129,-839.7562 635.0916,-825.9159 633.9695,-792.8032 633.4817,-785.3683 633.452,-773.104 633.6648,-765.8091 631.4052,-699.1237 645.5934,-690.9427 725.8867,-691.2611 731.7557,-691.0838 742.1191,-691.4862 746.3027,-691.2185 751.2319,-691.2436 755.1783,-691.1286 763.0754,-691.4437 766.2007,-691.2476 773.4251,-691.2925 775.1999,-691.3646 776.9645,-691.3158 781.0349,-691.3433 781.2232,-691.3382 790.2285,-691.4017 794.6553,-691.1298 794.7902,-691.1169 802.7936,-690.6282 815.1318,-689.4528 815.0634,-691.87 815.334,-735.9849 815.334,-735.9849 815.0634,-691.87 815.1318,-689.4528 876.6691,-677.3133 898.3012,-628.6954 975.3901,-631.686 981.8942,-631.6787 991.3298,-632.0281 994.2886,-631.9002 997.2366,-631.9974 1008.2228,-631.9188 1009.5449,-631.8564 1011.3606,-631.9086 1013.1395,-632.0271 1015.1033,-632.0015 1020.3427,-631.7239 1020.9318,-631.7598 1033.2236,-632.0173 1036.0112,-632.1821 1036.0112,-632.1821"/>
<polygon fill="#decbe4" stroke="#decbe4" points="1026.351,-1059.0267 1027.3368,-1058.5737 1032.3379,-1053.4651 1180.7386,-1039.3997 1193.155,-1069.6886 1193.6764,-1070.8346 1118.2999,-1165.3165 1045.7537,-1200.9021 1027.1025,-1201.4805 1026.201,-1201.1421 1022.7415,-1199.9983 1017.6635,-1198.5435 997.8392,-1193.2988 874.2682,-1168.9008 865.1304,-1164.2288 862.4886,-1161.4655 804.0412,-1151.6082 804.6397,-1068.8872 804.6397,-1068.8872 804.0412,-1151.6082 796.4783,-1150.61 794.417,-1150.4133 785.96,-1149.7609 776.9692,-1149.2319 768.8243,-1148.9021 769.4243,-1041.6178 772.5007,-1006.3518 777.2061,-1005.0866 781.2813,-1001.8023 776.3199,-997.4308 772.9021,-996.5192 772.9021,-996.5192 776.3199,-997.4308 781.2813,-1001.8023 777.2061,-1005.0866 772.5007,-1006.3518 769.4243,-1041.6178 768.8243,-1148.9021 763.1257,-1148.8804 748.9772,-1149.0862 747.1015,-1145.9329 744.0424,-1141.2021 740.5545,-1136.2401 733.061,-1126.0227 693.3147,-1068.5977 662.6974,-1015.0917 660.1563,-1014.2203 664.8459,-940.7141 664.8459,-940.7141 660.1563,-1014.2203 622.1454,-1002.7226 612.6215,-999.4572 609.7659,-998.3651 596.182,-992.0649 587.061,-987.4752 578.3651,-982.066 587.4978,-934.32 587.8904,-928.6312 591.6727,-894.4938 598.3574,-859.5463 635.0916,-825.9159 664.3129,-839.7562 668.9911,-841.8011 684.3298,-847.3998 692.8,-849.8659 703.9394,-852.2932 717.1296,-854.1991 729.9778,-854.6422 729.7532,-882.1728 732.1229,-928.0072 732.1229,-928.0072 729.7532,-882.1728 729.9778,-854.6422 733.1331,-854.5199 737.8557,-854.6765 746.2748,-855.2595 752.1188,-855.8751 763.2869,-878.3511 772.3253,-899.378 782.1533,-934.32 785.4964,-941.048 789.3258,-942.4606 804.04,-946.2396 820.1892,-947.6536 822.4421,-947.9849 834.5699,-950.5003 839.2246,-951.7388 843.2017,-953.0298 857.0101,-959.1746 863.7362,-962.9579 867.0462,-965.0164 878.4714,-972.8149 908.8994,-997.1515 993.8181,-934.3104 997.7297,-931.2746 1000.1765,-931.2412 1007.9374,-930.9615 1026.1581,-929.0799 1032.5367,-928.2791 1112.6423,-914.6531 1155.7302,-974.6225 1180.7386,-1039.3997 1032.3379,-1053.4651 1027.3368,-1058.5737 1026.351,-1059.0267 1026.052,-1058.9359 1022.719,-1058.9359 1021.2858,-1057.2917 1016.8189,-1054.7841 1016.8189,-1054.7841 1021.2858,-1057.2917 1022.719,-1058.9359 1026.052,-1058.9359 1026.351,-1059.0267 1026.351,-1059.0267"/>
<polygon fill="#ccebc5" stroke="#ccebc5" points="153.1568,-1032.5264 160.8466,-1028.7629 211.9176,-1002.134 215.2794,-1000.5078 227.0715,-995.6708 239.7964,-991.3953 246.6215,-989.613 252.0828,-988.5905 265.4801,-986.5756 277.0532,-985.6981 288.0821,-984.4424 297.2574,-983.0513 301.0274,-982.1967 309.4032,-979.9798 318.9364,-976.7321 324.1419,-974.7622 331.0767,-971.876 335.1012,-970.0505 350.8577,-961.699 357.0776,-957.9417 356.779,-914.1202 356.683,-912.8433 356.5703,-896.3998 356.7389,-890.235 356.3129,-827.7002 442.6119,-841.9025 453.7353,-843.1785 459.9003,-843.5734 461.3783,-843.5933 462.3298,-843.558 470.5547,-843.6447 471.3835,-843.6114 474.0594,-843.7594 479.3474,-843.7834 485.6266,-843.493 486.1559,-843.519 491.4756,-843.5113 492.8359,-843.4407 492.9584,-843.4402 499.0163,-843.7011 499.2936,-843.7262 505.6053,-843.6607 505.8389,-843.6465 510.9243,-843.5786 514.6133,-843.881 520.8802,-844.0768 531.1264,-844.8843 534.8547,-845.53 598.3574,-859.5463 591.6727,-894.4938 587.8904,-928.6312 587.4978,-934.32 578.3651,-982.066 587.061,-987.4752 596.182,-992.0649 609.7659,-998.3651 612.6215,-999.4572 622.1454,-1002.7226 660.1563,-1014.2203 662.6974,-1015.0917 693.3147,-1068.5977 733.061,-1126.0227 740.5545,-1136.2401 744.0424,-1141.2021 747.1015,-1145.9329 748.9772,-1149.0862 659.2666,-1214.0621 626.6772,-1216.0503 610.1497,-1217.41 609.7982,-1160.1947 607.9081,-1117.9413 609.8863,-1083.2444 609.7485,-1083.2035 609.7485,-1083.2035 609.8863,-1083.2444 607.9081,-1117.9413 609.7982,-1160.1947 610.1497,-1217.41 596.0335,-1219.4697 596.2517,-1118.0183 593.1544,-1087.0355 597.6042,-1083.0859 594.4382,-1080.4056 588.5223,-1078.6112 588.5223,-1078.6112 594.4382,-1080.4056 597.6042,-1083.0859 593.1544,-1087.0355 596.2517,-1118.0183 596.0335,-1219.4697 586.529,-1221.2594 576.7802,-1223.509 567.6815,-1225.801 569.4762,-1129.0259 573.5681,-1083.5354 573.087,-1083.3939 573.087,-1083.3939 573.5681,-1083.5354 569.4762,-1129.0259 567.6815,-1225.801 558.9662,-1228.364 557.4141,-1227.6893 558.7414,-1148.8059 558.7414,-1148.8059 557.4141,-1227.6893 444.2285,-1183.6021 343.3526,-1228.0073 342.9091,-1228.2301 336.2466,-1228.3788 323.4806,-1228.8801 319.6869,-1229.1576 311.0066,-1230.0869 309.877,-1229.8341 299.4321,-1227.6796 294.4144,-1226.8213 293.8124,-1226.7395 274.7737,-1213.7117 161.0819,-1139.0028 158.2843,-1083.9397 282.0715,-1070.1506 286.1979,-1066.2537 287.2532,-1064.1389 291.3626,-1064.1389 293.0106,-1064.6407 297.0178,-1064.6407 300.0885,-1106.8462 303.6336,-1064.4506 306.8657,-1064.4506 308.0603,-1065.8435 313.0656,-1068.7804 313.0656,-1068.7804 308.0603,-1065.8435 306.8657,-1064.4506 303.6336,-1064.4506 300.0885,-1106.8462 297.0178,-1064.6407 293.0106,-1064.6407 291.3626,-1064.1389 287.2532,-1064.1389 286.1979,-1066.2537 282.0715,-1070.1506 158.2843,-1083.9397 158.0973,-1081.4713 153.1568,-1032.5264 153.1568,-1032.5264"/>
<polygon fill="#decbe4" stroke="#decbe4" points="503.7226,-144.8388 480.3653,-218.0923 479.7318,-219.7854 486.6862,-225.1453 511.0902,-244.9893 520.2151,-251.9771 531.9545,-260.3911 535.9845,-262.871 549.9063,-270.7561 562.1489,-275.844 576.0403,-280.2326 580.4313,-281.1763 593.5443,-282.7005 601.4152,-283.2209 607.3104,-283.0223 611.4106,-283.2706 623.092,-284.5315 630.5674,-286.0415 631.3531,-257.2572 635.2567,-224.1722 639.7049,-225.3904 644.9866,-223.9429 648.7963,-220.8714 644.7967,-217.3053 644.7967,-217.3053 648.7963,-220.8714 644.9866,-223.9429 639.7049,-225.3904 635.2567,-224.1722 631.3531,-257.2572 630.5674,-286.0415 639.7802,-288.7781 642.6097,-289.7523 655.5192,-294.8156 658.0808,-295.9369 663.9374,-299.05 672.4149,-303.9591 677.5024,-307.3857 673.9268,-336.5711 673.8815,-336.8391 672.6315,-346.8851 672.0798,-353.844 671.3319,-375.7523 661.6152,-455.0647 708.423,-483.8228 682.1111,-563.0228 676.9642,-586.1296 676.0969,-589.1804 669.2654,-619.689 645.5934,-690.9427 725.8867,-691.2611 731.7557,-691.0838 742.1191,-691.4862 746.3027,-691.2185 751.2319,-691.2436 755.1783,-691.1286 763.0754,-691.4437 766.2007,-691.2476 773.4251,-691.2925 775.1999,-691.3646 776.9645,-691.3158 781.0349,-691.3433 781.2232,-691.3382 790.2285,-691.4017 794.6553,-691.1298 794.7902,-691.1169 802.7936,-690.6282 815.1318,-689.4528 876.6691,-677.3133 898.3012,-628.6954 897.4136,-625.4706 890.9805,-599.2163 885.3579,-568.3244 875.5253,-528.3307 879.8826,-525.9551 917.8722,-503.7945 931.5923,-496.9397 932.678,-496.4903 938.077,-494.4779 954.3478,-489.088 955.9277,-488.7011 962.1026,-487.4474 967.694,-486.5477 968.7712,-456.9355 973.4932,-416.4334 973.4932,-416.4334 968.7712,-456.9355 967.694,-486.5477 981.1637,-485.5129 987.8743,-485.5648 990.4316,-485.4744 995.2795,-485.0935 1003.069,-484.144 1008.0247,-483.3263 1015.2629,-481.8199 1017.1338,-481.3506 1033.5266,-475.8004 1038.9852,-473.4873 1042.245,-471.9658 1045.442,-439.5922 1045.4508,-424.4055 1047.2135,-406.9318 1047.5464,-400.284 1055.8333,-316.3717 1061.671,-309.3603 1090.7906,-276.1717 1080.4263,-256.1579 1047.5664,-185.1301 970.9054,-125.5741 965.5313,-124.3617 949.9404,-146.4349 931.4117,-171.4784 937.5616,-273.6846 936.6752,-275.292 932.499,-275.292 929.1115,-230.8632 926.1749,-271.9546 930.3881,-275.8272 927.1878,-278.5033 927.1878,-278.5033 930.3881,-275.8272 926.1749,-271.9546 929.1115,-230.8632 932.499,-275.292 936.6752,-275.292 937.5616,-273.6846 931.4117,-171.4784 928.9769,-174.5846 921.6047,-182.9521 920.7596,-183.8522 915.551,-190.2915 901.0117,-205.913 884.4103,-220.8903 842.3318,-264.278 841.2636,-265.2656 824.9673,-281.7707 824.5961,-282.0891 824.4646,-282.2284 816.1213,-281.6375 810.3814,-281.4342 805.4065,-281.0777 801.0563,-281.0749 796.7709,-281.224 796.2637,-281.2234 792.6025,-281.0868 790.5815,-280.9383 789.7528,-280.9362 779.4885,-281.2738 777.5149,-281.4791 772.5721,-281.635 769.5598,-281.6215 764.785,-281.2553 752.5163,-281.1845 749.6227,-280.9602 746.8425,-280.6446 734.1434,-278.7431 722.4846,-230.2021 720.591,-211.2763 718.9636,-201.945 718.2256,-194.4698 688.0657,-68.9002 684.8533,-54.3926 662.9717,-48.3145 656.3743,-46.3709 655.7999,-46.1823 648.3062,-52.919 635.3416,-63.1571 627.6534,-68.8128 612.3298,-79.6706 607.1891,-83.0237 503.7226,-144.8388 503.7226,-144.8388"/>
<polygon fill="#fbb4ae" stroke="#fbb4ae" points="1111.4959,-514.3626 1111.9907,-474.2833 1111.9907,-474.2833 1111.4959,-514.3626 1042.245,-471.9658 1045.442,-439.5922 1045.4508,-424.4055 1047.2135,-406.9318 1047.5464,-400.284 1055.8333,-316.3717 1061.671,-309.3603 1090.7906,-276.1717 1113.4926,-282.1572 1126.8195,-284.8893 1132.5112,-285.8332 1142.1921,-287.2494 1154.3326,-288.7867 1161.9341,-289.1526 1174.6406,-289.5154 1183.5839,-289.4199 1188.3184,-289.2766 1242.5297,-286.5736 1352.1584,-342.0435 1367.0356,-320.4765 1384.8994,-293.5322 1447.7689,-189.6256 1521.953,-160.5249 1535.1798,-157.8587 1551.8973,-153.4684 1565.2632,-149.4177 1570.2747,-147.5953 1581.53,-143.2717 1595.9957,-137.1273 1613.676,-128.5444 1613.9459,-128.4027 1644.5902,-132.9008 1695.6288,-179.9787 1749.1639,-257.3276 1750.0404,-260.8729 1749.0558,-281.2766 1748.9458,-311.43 1736.6267,-340.3405 1717.2708,-389.0502 1652.6654,-430.4594 1612.5887,-439.442 1598.9865,-443.0776 1598.2076,-328.28 1601.9961,-302.0618 1601.6218,-301.9527 1601.6218,-301.9527 1601.9961,-302.0618 1598.2076,-328.28 1598.9865,-443.0776 1591.0039,-445.5538 1580.2793,-449.1107 1566.7227,-454.1846 1561.3005,-456.5594 1541.9701,-465.8662 1526.7467,-474.1691 1525.2813,-474.9991 1488.0157,-463.6334 1371.2009,-401.5624 1337.5325,-443.082 1273.6388,-528.7377 1222.1008,-578.0468 1194.7466,-593.9584 1186.2343,-583.9874 1178.4771,-575.2145 1173.5311,-570.0212 1168.0706,-563.7387 1164.0322,-559.2773 1158.1741,-553.0713 1155.3456,-550.2039 1149.1709,-544.22 1147.9244,-543.1221 1139.905,-429.6394 1145.3926,-432.8329 1150.719,-432.8329 1155.7664,-429.8609 1156.8693,-428.5648 1155.7335,-427.2256 1150.6028,-424.2021 1150.6028,-424.2021 1155.7335,-427.2256 1156.8693,-428.5648 1155.7664,-429.8609 1150.719,-432.8329 1145.3926,-432.8329 1139.905,-429.6394 1147.9244,-543.1221 1135.5188,-532.715 1133.6135,-531.2834 1120.5457,-520.7797 1120.2092,-520.5259 1111.4959,-514.3626 1111.4959,-514.3626"/>
<polygon fill="#ccebc5" stroke="#ccebc5" points="440.1946,-697.321 451.6683,-684.5084 460.7444,-675.0408 447.83,-658.5937 387.5886,-576.0273 377.8483,-564.2537 361.8638,-545.9875 339.5813,-518.3058 339.2132,-518.3149 336.53,-518.2457 329.3671,-517.9406 315.6528,-516.8942 297.3325,-514.5695 285.9437,-512.5493 274.802,-510.3857 237.7838,-449.5016 175.1026,-429.1978 160.6323,-424.95 154.753,-423.4081 145.3638,-421.2394 144.9297,-421.1529 144.7356,-421.1202 135.9099,-419.907 126.9284,-418.9515 118.9398,-418.3507 118.5681,-418.3344 109.424,-418.4997 105.2587,-418.4433 104.9568,-428.8824 105.5478,-513.1899 105.2542,-513.7269 104.4266,-514.4376 105.6478,-516.5612 111.0034,-520.7567 110.7706,-589.9131 104.0256,-588.4099 100.2782,-587.7396 92.2359,-586.6524 89.5157,-586.5226 75.2237,-586.4662 75.0975,-610.8278 75.0975,-610.8278 75.2237,-586.4662 89.5157,-586.5226 92.2359,-586.6524 100.2782,-587.7396 104.0256,-588.4099 110.7706,-589.9131 111.0034,-520.7567 105.6478,-516.5612 104.4266,-514.4376 105.2542,-513.7269 105.5478,-513.1899 104.9568,-428.8824 105.2587,-418.4433 95.8145,-417.7174 86.9988,-416.7603 89.099,-509.8511 83.9069,-509.8511 78.1609,-513.5034 77.3098,-514.6006 78.8237,-516.4814 83.0392,-518.9235 88.7494,-518.9235 88.7494,-518.9235 83.0392,-518.9235 78.8237,-516.4814 77.3098,-514.6006 78.1609,-513.5034 83.9069,-509.8511 89.099,-509.8511 86.9988,-416.7603 75.4414,-415.1407 75.115,-415.0746 58.2939,-410.5879 -12.7986,-389.3983 -105.1733,-498.8915 -109.3535,-504.6758 -114.1886,-510.8864 -108.6042,-533.9081 -105.3364,-548.5195 -121.0148,-634.158 -127.0075,-660.7206 -119.4063,-705.3467 -113.695,-743.6364 -105.7018,-753.2062 -88.781,-804.4286 -78.5748,-840.4596 -42.9783,-880.1291 40.6335,-936.2906 45.3152,-939.5635 59.4721,-940.5232 61.5487,-940.7018 70.6233,-930.0132 69.333,-876.2208 69.333,-876.2208 70.6233,-930.0132 80.0437,-919.7565 92.9642,-907.36 94.7144,-905.393 103.0058,-896.5092 104.5453,-894.9426 104.5942,-857.7767 101.6695,-784.0832 103.1466,-783.628 104.9695,-783.628 106.6654,-781.2617 112.764,-777.5109 111.3614,-737.4592 112.1227,-716.3687 95.6021,-720.1201 94.9157,-720.2073 89.3205,-720.6442 89.3205,-720.6442 94.9157,-720.2073 95.6021,-720.1201 112.1227,-716.3687 111.3614,-737.4592 112.764,-777.5109 106.6654,-781.2617 104.9695,-783.628 103.1466,-783.628 101.6695,-784.0832 104.5942,-857.7767 104.5453,-894.9426 109.8883,-890.045 212.3854,-801.1454 218.831,-794.9259 219.9632,-793.7184 224.9091,-793.7425 234.2305,-794.0184 237.9114,-793.9449 242.6698,-793.9675 245.7932,-793.8275 245.9955,-793.8134 257.9929,-793.8681 262.5024,-793.6649 256.2608,-680.7949 252.797,-680.7949 252.797,-680.7949 256.2608,-680.7949 262.5024,-793.6649 264.6001,-793.6223 265.4651,-756.9578 265.4651,-756.9578 264.6001,-793.6223 274.5923,-794.1616 280.4567,-794.3321 287.9545,-794.7351 289.379,-794.8467 291.1852,-795.0327 309.8766,-797.8845 317.7859,-799.4788 318.024,-799.5327 318.1849,-796.4391 318.625,-680.4734 313.0939,-680.4734 313.0569,-680.4625 308.361,-680.4625 307.3534,-680.1683 304.5652,-680.1683 303.5283,-679.0276 298.4217,-676.1379 298.4217,-676.1379 303.5283,-679.0276 304.5652,-680.1683 307.3534,-680.1683 308.361,-680.4625 313.0569,-680.4625 313.0939,-680.4734 318.625,-680.4734 318.1849,-796.4391 323.4527,-727.2294 323.4527,-727.2294 318.1849,-796.4391 318.024,-799.5327 343.3485,-807.157 345.2164,-807.8099 347.0107,-805.6653 363.9418,-787.9635 366.1083,-785.814 372.596,-778.9637 440.1946,-697.321 440.1946,-697.321"/>
<polygon fill="#b3cde3" stroke="#b3cde3" points="688.0657,-68.9002 718.2256,-194.4698 718.9636,-201.945 720.591,-211.2763 722.4846,-230.2021 734.1434,-278.7431 746.8425,-280.6446 749.6227,-280.9602 752.5163,-281.1845 764.785,-281.2553 769.5598,-281.6215 772.5721,-281.635 777.5149,-281.4791 779.4885,-281.2738 789.7528,-280.9362 790.5815,-280.9383 792.6025,-281.0868 796.2637,-281.2234 796.7709,-281.224 801.0563,-281.0749 805.4065,-281.0777 810.3814,-281.4342 816.1213,-281.6375 824.4646,-282.2284 824.5961,-282.0891 824.9673,-281.7707 841.2636,-265.2656 842.3318,-264.278 884.4103,-220.8903 835.5396,-204.8707 833.8028,-202.9776 831.5929,-202.3231 828.7429,-200.2271 826.0157,-200.2271 826.0157,-200.2271 828.7429,-200.2271 831.5929,-202.3231 833.8028,-202.9776 835.5396,-204.8707 884.4103,-220.8903 901.0117,-205.913 915.551,-190.2915 920.7596,-183.8522 921.6047,-182.9521 928.9769,-174.5846 931.4117,-171.4784 949.9404,-146.4349 965.5313,-124.3617 920.3615,-86.8151 846.3975,-67.7144 829.5698,-62.9953 822.3813,-64.1429 812.5623,-65.1088 811.3635,-65.2023 799.4153,-65.6489 790.545,-65.7999 775.2307,-65.1254 758.0787,-63.3223 686.5137,-54.3514 684.8533,-54.3926 688.0657,-68.9002 688.0657,-68.9002"/>
<polygon fill="#b3cde3" stroke="#b3cde3" points="990.4316,-485.4744 987.8743,-485.5648 981.1637,-485.5129 967.694,-486.5477 962.1026,-487.4474 955.9277,-488.7011 954.3478,-489.088 938.077,-494.4779 932.678,-496.4903 931.5923,-496.9397 917.8722,-503.7945 879.8826,-525.9551 875.5253,-528.3307 885.3579,-568.3244 890.9805,-599.2163 897.4136,-625.4706 898.3012,-628.6954 975.3901,-631.686 981.8942,-631.6787 991.3298,-632.0281 994.2886,-631.9002 997.2366,-631.9974 1008.2228,-631.9188 1009.5449,-631.8564 1011.3606,-631.9086 1013.1395,-632.0271 1015.1033,-632.0015 1020.3427,-631.7239 1020.9318,-631.7598 1033.2236,-632.0173 1036.0112,-632.1821 1044.5662,-632.001 1178.8831,-634.2605 1194.7466,-593.9584 1186.2343,-583.9874 1178.4771,-575.2145 1173.5311,-570.0212 1168.0706,-563.7387 1164.0322,-559.2773 1158.1741,-553.0713 1155.3456,-550.2039 1149.1709,-544.22 1147.9244,-543.1221 1135.5188,-532.715 1133.6135,-531.2834 1120.5457,-520.7797 1120.2092,-520.5259 1111.4959,-514.3626 1042.245,-471.9658 1038.9852,-473.4873 1033.5266,-475.8004 1017.1338,-481.3506 1015.2629,-481.8199 1008.0247,-483.3263 1003.069,-484.144 995.2795,-485.0935 990.4316,-485.4744 990.4316,-485.4744"/>
<polyline fill="none" stroke="#000000" points="631.4052,-699.1237 645.5934,-690.9427 669.2654,-619.689 676.0969,-589.1804 676.9642,-586.1296 682.1111,-563.0228 708.423,-483.8228 661.6152,-455.0647 671.3319,-375.7523 672.0798,-353.844 672.6315,-346.8851 673.8815,-336.8391 673.9268,-336.5711 677.5024,-307.3857 672.4149,-303.9591 663.9374,-299.05 658.0808,-295.9369 655.5192,-294.8156 642.6097,-289.7523 639.7802,-288.7781 630.5674,-286.0415 623.092,-284.5315 611.4106,-283.2706 607.3104,-283.0223 601.4152,-283.2209 593.5443,-282.7005 580.4313,-281.1763 576.0403,-280.2326 562.1489,-275.844 549.9063,-270.7561 535.9845,-262.871 531.9545,-260.3911 520.2151,-251.9771 511.0902,-244.9893 486.6862,-225.1453 479.7318,-219.7854 480.3653,-218.0923 503.7226,-144.8388 607.1891,-83.0237 612.3298,-79.6706 627.6534,-68.8128 635.3416,-63.1571 648.3062,-52.919 655.7999,-46.1823 648.1369,-28.3124 636.6656,1.5516 612.9606,67.3 577.6351,102.6837 523.3644,114.6358 488.1074,111.4586 481.9379,111.1719 463.368,110.7142 459.7018,110.944 447.0255,112.017 445.0185,111.9989 436.0636,112.1118 435.694,112.1245 424.0549,113.0269 375.1816,117.8722 286.2856,14.8954 243.759,7.9008 200.4927,14.189 192.5918,15.6546 189.9374,14.8919 174.671,11.142 158.9173,7.9353 155.0455,7.311 94.5071,.0844 28.3568,-57.1935 24.0553,-104.5143 20.5318,-135.0545 16.3925,-164.747 11.3816,-195.5409 12.2824,-202.2493 -20.5786,-263.2431 -16.6258,-302.8112 -15.7976,-313.6965 -13.8835,-350.4437 -12.7986,-389.3983 58.2939,-410.5879 75.115,-415.0746 75.4414,-415.1407 86.9988,-416.7603 95.8145,-417.7174 105.2587,-418.4433 109.424,-418.4997 118.5681,-418.3344 118.9398,-418.3507 126.9284,-418.9515 135.9099,-419.907 144.7356,-421.1202 144.9297,-421.1529 145.3638,-421.2394 154.753,-423.4081 160.6323,-424.95 175.1026,-429.1978 237.7838,-449.5016 274.802,-510.3857 285.9437,-512.5493 297.3325,-514.5695 315.6528,-516.8942 329.3671,-517.9406 336.53,-518.2457 339.2132,-518.3149 339.5813,-518.3058 361.8638,-545.9875 377.8483,-564.2537 387.5886,-576.0273 447.83,-658.5937 460.7444,-675.0408 451.6683,-684.5084 440.1946,-697.321 372.596,-778.9637 366.1083,-785.814 363.9418,-787.9635 347.0107,-805.6653 345.2164,-807.8099 343.3485,-807.157 318.024,-799.5327 317.7859,-799.4788 309.8766,-797.8845 291.1852,-795.0327 289.379,-794.8467 287.9545,-794.7351 280.4567,-794.3321 274.5923,-794.1616 264.6001,-793.6223 262.5024,-793.6649 257.9929,-793.8681 245.9955,-793.8134 245.7932,-793.8275 242.6698,-793.9675 237.9114,-793.9449 234.2305,-794.0184 224.9091,-793.7425 219.9632,-793.7184 218.831,-794.9259 212.3854,-801.1454 109.8883,-890.045 104.5453,-894.9426 103.0058,-896.5092 94.7144,-905.393 92.9642,-907.36 80.0437,-919.7565 70.6233,-930.0132 61.5487,-940.7018 153.1568,-1032.5264 160.8466,-1028.7629 211.9176,-1002.134 215.2794,-1000.5078 227.0715,-995.6708 239.7964,-991.3953 246.6215,-989.613 252.0828,-988.5905 265.4801,-986.5756 277.0532,-985.6981 288.0821,-984.4424 297.2574,-983.0513 301.0274,-982.1967 309.4032,-979.9798 318.9364,-976.7321 324.1419,-974.7622 331.0767,-971.876 335.1012,-970.0505 350.8577,-961.699 357.0776,-957.9417 356.779,-914.1202 356.683,-912.8433 356.5703,-896.3998 356.7389,-890.235 356.3129,-827.7002 442.6119,-841.9025 453.7353,-843.1785 459.9003,-843.5734 461.3783,-843.5933 462.3298,-843.558 470.5547,-843.6447 471.3835,-843.6114 474.0594,-843.7594 479.3474,-843.7834 485.6266,-843.493 486.1559,-843.519 491.4756,-843.5113 492.8359,-843.4407 492.9584,-843.4402 499.0163,-843.7011 499.2936,-843.7262 505.6053,-843.6607 505.8389,-843.6465 510.9243,-843.5786 514.6133,-843.881 520.8802,-844.0768 531.1264,-844.8843 534.8547,-845.53 598.3574,-859.5463 635.0916,-825.9159 633.9695,-792.8032 633.4817,-785.3683 633.452,-773.104 633.6648,-765.8091 631.4052,-699.1237 "/>
<polyline fill="none" stroke="#000000" points="781.2232,-691.3382 790.2285,-691.4017 794.6553,-691.1298 794.7902,-691.1169 802.7936,-690.6282 815.1318,-689.4528 876.6691,-677.3133 898.3012,-628.6954 975.3901,-631.686 981.8942,-631.6787 991.3298,-632.0281 994.2886,-631.9002 997.2366,-631.9974 1008.2228,-631.9188 1009.5449,-631.8564 1011.3606,-631.9086 1013.1395,-632.0271 1015.1033,-632.0015 1020.3427,-631.7239 1020.9318,-631.7598 1033.2236,-632.0173 1036.0112,-632.1821 1044.5662,-632.001 1178.8831,-634.2605 1181.0022,-659.9367 1172.8839,-692.7382 1163.3497,-740.3418 1152.7706,-800.722 1137.9275,-821.0313 1131.2095,-844.3662 1112.6423,-914.6531 1032.5367,-928.2791 1026.1581,-929.0799 1007.9374,-930.9615 1000.1765,-931.2412 997.7297,-931.2746 993.8181,-934.3104 908.8994,-997.1515 878.4714,-972.8149 867.0462,-965.0164 863.7362,-962.9579 857.0101,-959.1746 843.2017,-953.0298 839.2246,-951.7388 834.5699,-950.5003 822.4421,-947.9849 820.1892,-947.6536 804.04,-946.2396 789.3258,-942.4606 785.4964,-941.048 782.1533,-934.32 772.3253,-899.378 763.2869,-878.3511 752.1188,-855.8751 746.2748,-855.2595 737.8557,-854.6765 733.1331,-854.5199 729.9778,-854.6422 717.1296,-854.1991 703.9394,-852.2932 692.8,-849.8659 684.3298,-847.3998 668.9911,-841.8011 664.3129,-839.7562 635.0916,-825.9159 633.9695,-792.8032 633.4817,-785.3683 633.452,-773.104 633.6648,-765.8091 631.4052,-699.1237 645.5934,-690.9427 725.8867,-691.2611 731.7557,-691.0838 742.1191,-691.4862 746.3027,-691.2185 751.2319,-691.2436 755.1783,-691.1286 763.0754,-691.4437 766.2007,-691.2476 773.4251,-691.2925 775.1999,-691.3646 776.9645,-691.3158 781.0349,-691.3433 781.2232,-691.3382 "/>
<polyline fill="none" stroke="#000000" points="717.1296,-854.1991 729.9778,-854.6422 733.1331,-854.5199 737.8557,-854.6765 746.2748,-855.2595 752.1188,-855.8751 763.2869,-878.3511 772.3253,-899.378 782.1533,-934.32 785.4964,-941.048 789.3258,-942.4606 804.04,-946.2396 820.1892,-947.6536 822.4421,-947.9849 834.5699,-950.5003 839.2246,-951.7388 843.2017,-953.0298 857.0101,-959.1746 863.7362,-962.9579 867.0462,-965.0164 878.4714,-972.8149 908.8994,-997.1515 993.8181,-934.3104 997.7297,-931.2746 1000.1765,-931.2412 1007.9374,-930.9615 1026.1581,-929.0799 1032.5367,-928.2791 1112.6423,-914.6531 1155.7302,-974.6225 1180.7386,-1039.3997 1193.155,-1069.6886 1193.6764,-1070.8346 1118.2999,-1165.3165 1045.7537,-1200.9021 1027.1025,-1201.4805 1026.201,-1201.1421 1022.7415,-1199.9983 1017.6635,-1198.5435 997.8392,-1193.2988 874.2682,-1168.9008 865.1304,-1164.2288 862.4886,-1161.4655 804.0412,-1151.6082 796.4783,-1150.61 794.417,-1150.4133 785.96,-1149.7609 776.9692,-1149.2319 768.8243,-1148.9021 763.1257,-1148.8804 748.9772,-1149.0862 747.1015,-1145.9329 744.0424,-1141.2021 740.5545,-1136.2401 733.061,-1126.0227 693.3147,-1068.5977 662.6974,-1015.0917 660.1563,-1014.2203 622.1454,-1002.7226 612.6215,-999.4572 609.7659,-998.3651 596.182,-992.0649 587.061,-987.4752 578.3651,-982.066 587.4978,-934.32 587.8904,-928.6312 591.6727,-894.4938 598.3574,-859.5463 635.0916,-825.9159 664.3129,-839.7562 668.9911,-841.8011 684.3298,-847.3998 692.8,-849.8659 703.9394,-852.2932 717.1296,-854.1991 "/>
<polyline fill="none" stroke="#000000" points="486.1559,-843.519 485.6266,-843.493 479.3474,-843.7834 474.0594,-843.7594 471.3835,-843.6114 470.5547,-843.6447 462.3298,-843.558 461.3783,-843.5933 459.9003,-843.5734 453.7353,-843.1785 442.6119,-841.9025 356.3129,-827.7002 356.7389,-890.235 356.5703,-896.3998 356.683,-912.8433 356.779,-914.1202 357.0776,-957.9417 350.8577,-961.699 335.1012,-970.0505 331.0767,-971.876 324.1419,-974.7622 318.9364,-976.7321 309.4032,-979.9798 301.0274,-982.1967 297.2574,-983.0513 288.0821,-984.4424 277.0532,-985.6981 265.4801,-986.5756 252.0828,-988.5905 246.6215,-989.613 239.7964,-991.3953 227.0715,-995.6708 215.2794,-1000.5078 211.9176,-1002.134 160.8466,-1028.7629 153.1568,-1032.5264 158.0973,-1081.4713 158.2843,-1083.9397 161.0819,-1139.0028 274.7737,-1213.7117 293.8124,-1226.7395 294.4144,-1226.8213 299.4321,-1227.6796 309.877,-1229.8341 311.0066,-1230.0869 319.6869,-1229.1576 323.4806,-1228.8801 336.2466,-1228.3788 342.9091,-1228.2301 343.3526,-1228.0073 444.2285,-1183.6021 557.4141,-1227.6893 558.9662,-1228.364 567.6815,-1225.801 576.7802,-1223.509 586.529,-1221.2594 596.0335,-1219.4697 610.1497,-1217.41 626.6772,-1216.0503 659.2666,-1214.0621 748.9772,-1149.0862 747.1015,-1145.9329 744.0424,-1141.2021 740.5545,-1136.2401 733.061,-1126.0227 693.3147,-1068.5977 662.6974,-1015.0917 660.1563,-1014.2203 622.1454,-1002.7226 612.6215,-999.4572 609.7659,-998.3651 596.182,-992.0649 587.061,-987.4752 578.3651,-982.066 587.4978,-934.32 587.8904,-928.6312 591.6727,-894.4938 598.3574,-859.5463 534.8547,-845.53 531.1264,-844.8843 520.8802,-844.0768 514.6133,-843.881 510.9243,-843.5786 505.8389,-843.6465 505.6053,-843.6607 499.2936,-843.7262 499.0163,-843.7011 492.9584,-843.4402 492.8359,-843.4407 491.4756,-843.5113 486.1559,-843.519 "/>
<polyline fill="none" stroke="#000000" points="751.2319,-691.2436 746.3027,-691.2185 742.1191,-691.4862 731.7557,-691.0838 725.8867,-691.2611 645.5934,-690.9427 669.2654,-619.689 676.0969,-589.1804 676.9642,-586.1296 682.1111,-563.0228 708.423,-483.8228 661.6152,-455.0647 671.3319,-375.7523 672.0798,-353.844 672.6315,-346.8851 673.8815,-336.8391 673.9268,-336.5711 677.5024,-307.3857 672.4149,-303.9591 663.9374,-299.05 658.0808,-295.9369 655.5192,-294.8156 642.6097,-289.7523 639.7802,-288.7781 630.5674,-286.0415 623.092,-284.5315 611.4106,-283.2706 607.3104,-283.0223 601.4152,-283.2209 593.5443,-282.7005 580.4313,-281.1763 576.0403,-280.2326 562.1489,-275.844 549.9063,-270.7561 535.9845,-262.871 531.9545,-260.3911 520.2151,-251.9771 511.0902,-244.9893 486.6862,-225.1453 479.7318,-219.7854 480.3653,-218.0923 503.7226,-144.8388 607.1891,-83.0237 612.3298,-79.6706 627.6534,-68.8128 635.3416,-63.1571 648.3062,-52.919 655.7999,-46.1823 656.3743,-46.3709 662.9717,-48.3145 684.8533,-54.3926 688.0657,-68.9002 718.2256,-194.4698 718.9636,-201.945 720.591,-211.2763 722.4846,-230.2021 734.1434,-278.7431 746.8425,-280.6446 749.6227,-280.9602 752.5163,-281.1845 764.785,-281.2553 769.5598,-281.6215 772.5721,-281.635 777.5149,-281.4791 779.4885,-281.2738 789.7528,-280.9362 790.5815,-280.9383 792.6025,-281.0868 796.2637,-281.2234 796.7709,-281.224 801.0563,-281.0749 805.4065,-281.0777 810.3814,-281.4342 816.1213,-281.6375 824.4646,-282.2284 824.5961,-282.0891 824.9673,-281.7707 841.2636,-265.2656 842.3318,-264.278 884.4103,-220.8903 901.0117,-205.913 915.551,-190.2915 920.7596,-183.8522 921.6047,-182.9521 928.9769,-174.5846 931.4117,-171.4784 949.9404,-146.4349 965.5313,-124.3617 970.9054,-125.5741 1047.5664,-185.1301 1080.4263,-256.1579 1090.7906,-276.1717 1061.671,-309.3603 1055.8333,-316.3717 1047.5464,-400.284 1047.2135,-406.9318 1045.4508,-424.4055 1045.442,-439.5922 1042.245,-471.9658 1038.9852,-473.4873 1033.5266,-475.8004 1017.1338,-481.3506 1015.2629,-481.8199 1008.0247,-483.3263 1003.069,-484.144 995.2795,-485.0935 990.4316,-485.4744 987.8743,-485.5648 981.1637,-485.5129 967.694,-486.5477 962.1026,-487.4474 955.9277,-488.7011 954.3478,-489.088 938.077,-494.4779 932.678,-496.4903 931.5923,-496.9397 917.8722,-503.7945 879.8826,-525.9551 875.5253,-528.3307 885.3579,-568.3244 890.9805,-599.2163 897.4136,-625.4706 898.3012,-628.6954 876.6691,-677.3133 815.1318,-689.4528 802.7936,-690.6282 794.7902,-691.1169 794.6553,-691.1298 790.2285,-691.4017 781.2232,-691.3382 781.0349,-691.3433 776.9645,-691.3158 775.1999,-691.3646 773.4251,-691.2925 766.2007,-691.2476 763.0754,-691.4437 755.1783,-691.1286 751.2319,-691.2436 "/>
<polyline fill="none" stroke="#000000" points="1561.3005,-456.5594 1541.9701,-465.8662 1526.7467,-474.1691 1525.2813,-474.9991 1488.0157,-463.6334 1371.2009,-401.5624 1337.5325,-443.082 1273.6388,-528.7377 1222.1008,-578.0468 1194.7466,-593.9584 1186.2343,-583.9874 1178.4771,-575.2145 1173.5311,-570.0212 1168.0706,-563.7387 1164.0322,-559.2773 1158.1741,-553.0713 1155.3456,-550.2039 1149.1709,-544.22 1147.9244,-543.1221 1135.5188,-532.715 1133.6135,-531.2834 1120.5457,-520.7797 1120.2092,-520.5259 1111.4959,-514.3626 1042.245,-471.9658 1045.442,-439.5922 1045.4508,-424.4055 1047.2135,-406.9318 1047.5464,-400.284 1055.8333,-316.3717 1061.671,-309.3603 1090.7906,-276.1717 1113.4926,-282.1572 1126.8195,-284.8893 1132.5112,-285.8332 1142.1921,-287.2494 1154.3326,-288.7867 1161.9341,-289.1526 1174.6406,-289.5154 1183.5839,-289.4199 1188.3184,-289.2766 1242.5297,-286.5736 1352.1584,-342.0435 1367.0356,-320.4765 1384.8994,-293.5322 1447.7689,-189.6256 1521.953,-160.5249 1535.1798,-157.8587 1551.8973,-153.4684 1565.2632,-149.4177 1570.2747,-147.5953 1581.53,-143.2717 1595.9957,-137.1273 1613.676,-128.5444 1613.9459,-128.4027 1644.5902,-132.9008 1695.6288,-179.9787 1749.1639,-257.3276 1750.0404,-260.8729 1749.0558,-281.2766 1748.9458,-311.43 1736.6267,-340.3405 1717.2708,-389.0502 1652.6654,-430.4594 1612.5887,-439.442 1598.9865,-443.0776 1591.0039,-445.5538 1580.2793,-449.1107 1566.7227,-454.1846 1561.3005,-456.5594 "/>
<polyline fill="none" stroke="#000000" points="-108.6042,-533.9081 -114.1886,-510.8864 -109.3535,-504.6758 -105.1733,-498.8915 -12.7986,-389.3983 58.2939,-410.5879 75.115,-415.0746 75.4414,-415.1407 86.9988,-416.7603 95.8145,-417.7174 105.2587,-418.4433 109.424,-418.4997 118.5681,-418.3344 118.9398,-418.3507 126.9284,-418.9515 135.9099,-419.907 144.7356,-421.1202 144.9297,-421.1529 145.3638,-421.2394 154.753,-423.4081 160.6323,-424.95 175.1026,-429.1978 237.7838,-449.5016 274.802,-510.3857 285.9437,-512.5493 297.3325,-514.5695 315.6528,-516.8942 329.3671,-517.9406 336.53,-518.2457 339.2132,-518.3149 339.5813,-518.3058 361.8638,-545.9875 377.8483,-564.2537 387.5886,-576.0273 447.83,-658.5937 460.7444,-675.0408 451.6683,-684.5084 440.1946,-697.321 372.596,-778.9637 366.1083,-785.814 363.9418,-787.9635 347.0107,-805.6653 345.2164,-807.8099 343.3485,-807.157 318.024,-799.5327 317.7859,-799.4788 309.8766,-797.8845 291.1852,-795.0327 289.379,-794.8467 287.9545,-794.7351 280.4567,-794.3321 274.5923,-794.1616 264.6001,-793.6223 262.5024,-793.6649 257.9929,-793.8681 245.9955,-793.8134 245.7932,-793.8275 242.6698,-793.9675 237.9114,-793.9449 234.2305,-794.0184 224.9091,-793.7425 219.9632,-793.7184 218.831,-794.9259 212.3854,-801.1454 109.8883,-890.045 104.5453,-894.9426 103.0058,-896.5092 94.7144,-905.393 92.9642,-907.36 80.0437,-919.7565 70.6233,-930.0132 61.5487,-940.7018 59.4721,-940.5232 45.3152,-939.5635 40.6335,-936.2906 -42.9783,-880.1291 -78.5748,-840.4596 -88.781,-804.4286 -105.7018,-753.2062 -113.695,-743.6364 -119.4063,-705.3467 -127.0075,-660.7206 -121.0148,-634.158 -105.3364,-548.5195 -108.6042,-533.9081 "/>
<polyline fill="none" stroke="#000000" points="801.0563,-281.0749 805.4065,-281.0777 810.3814,-281.4342 816.1213,-281.6375 824.4646,-282.2284 824.5961,-282.0891 824.9673,-281.7707 841.2636,-265.2656 842.3318,-264.278 884.4103,-220.8903 901.0117,-205.913 915.551,-190.2915 920.7596,-183.8522 921.6047,-182.9521 928.9769,-174.5846 931.4117,-171.4784 949.9404,-146.4349 965.5313,-124.3617 920.3615,-86.8151 846.3975,-67.7144 829.5698,-62.9953 822.3813,-64.1429 812.5623,-65.1088 811.3635,-65.2023 799.4153,-65.6489 790.545,-65.7999 775.2307,-65.1254 758.0787,-63.3223 686.5137,-54.3514 684.8533,-54.3926 688.0657,-68.9002 718.2256,-194.4698 718.9636,-201.945 720.591,-211.2763 722.4846,-230.2021 734.1434,-278.7431 746.8425,-280.6446 749.6227,-280.9602 752.5163,-281.1845 764.785,-281.2553 769.5598,-281.6215 772.5721,-281.635 777.5149,-281.4791 779.4885,-281.2738 789.7528,-280.9362 790.5815,-280.9383 792.6025,-281.0868 796.2637,-281.2234 796.7709,-281.224 801.0563,-281.0749 "/>
<polyline fill="none" stroke="#000000" points="1009.5449,-631.8564 1008.2228,-631.9188 997.2366,-631.9974 994.2886,-631.9002 991.3298,-632.0281 981.8942,-631.6787 975.3901,-631.686 898.3012,-628.6954 897.4136,-625.4706 890.9805,-599.2163 885.3579,-568.3244 875.5253,-528.3307 879.8826,-525.9551 917.8722,-503.7945 931.5923,-496.9397 932.678,-496.4903 938.077,-494.4779 954.3478,-489.088 955.9277,-488.7011 962.1026,-487.4474 967.694,-486.5477 981.1637,-485.5129 987.8743,-485.5648 990.4316,-485.4744 995.2795,-485.0935 1003.069,-484.144 1008.0247,-483.3263 1015.2629,-481.8199 1017.1338,-481.3506 1033.5266,-475.8004 1038.9852,-473.4873 1042.245,-471.9658 1111.4959,-514.3626 1120.2092,-520.5259 1120.5457,-520.7797 1133.6135,-531.2834 1135.5188,-532.715 1147.9244,-543.1221 1149.1709,-544.22 1155.3456,-550.2039 1158.1741,-553.0713 1164.0322,-559.2773 1168.0706,-563.7387 1173.5311,-570.0212 1178.4771,-575.2145 1186.2343,-583.9874 1194.7466,-593.9584 1178.8831,-634.2605 1044.5662,-632.001 1036.0112,-632.1821 1033.2236,-632.0173 1020.9318,-631.7598 1020.3427,-631.7239 1015.1033,-632.0015 1013.1395,-632.0271 1011.3606,-631.9086 1009.5449,-631.8564 "/>
<!-- device&#45;mapper&#45;libs&#45;&gt;Fedora Container Base -->
<g id="edge1" class="edge">
<title>device&#45;mapper&#45;libs&#45;&gt;Fedora Container Base</title>
<path fill="none" stroke="#444444" stroke-opacity="0.333333" d="M754.8959,-756.4778C715.1984,-719.9872 626.2898,-638.2608 581.4034,-597.0004"/>
<polygon fill="#444444" fill-opacity="0.333333" stroke="#444444" stroke-opacity="0.333333" points="583.5454,-594.2153 573.8146,-590.0246 578.8082,-599.3689 583.5454,-594.2153"/>
</g>
<!-- device&#45;mapper&#45;libs&#45;&gt;device&#45;mapper -->
<g id="edge2" class="edge">
<title>device&#45;mapper&#45;libs&#45;&gt;device&#45;mapper</title>
<path fill="none" stroke="#444444" stroke-opacity="0.333333" d="M845.8052,-792.8482C851.0262,-793.7524 856.336,-794.6388 861.6598,-795.4953"/>
<polygon fill="#444444" fill-opacity="0.333333" stroke="#444444" stroke-opacity="0.333333" points="861.4734,-799.0088 871.8953,-797.1025 862.5593,-792.0936 861.4734,-799.0088"/>
</g>
<!-- device&#45;mapper&#45;&gt;Fedora Container Base -->
<g id="edge30" class="edge">
<title>device&#45;mapper&#45;&gt;Fedora Container Base</title>
<path fill="none" stroke="#444444" stroke-opacity="0.333333" d="M923.0203,-785.3011C850.7497,-743.5155 672.7431,-640.5954 593.5103,-594.7844"/>
<polygon fill="#444444" fill-opacity="0.333333" stroke="#444444" stroke-opacity="0.333333" points="595.2104,-591.7245 584.8013,-589.749 591.7066,-597.7845 595.2104,-591.7245"/>
</g>
<!-- device&#45;mapper&#45;&gt;device&#45;mapper&#45;libs -->
<g id="edge31" class="edge">
<title>device&#45;mapper&#45;&gt;device&#45;mapper&#45;libs</title>
<path fill="none" stroke="#444444" stroke-opacity="0.333333" d="M883.4548,-785.4218C882.6881,-785.289 881.9194,-785.1566 881.1491,-785.0246"/>
<polygon fill="#444444" fill-opacity="0.333333" stroke="#444444" stroke-opacity="0.333333" points="881.5004,-781.5348 871.0598,-783.3358 880.3447,-788.4388 881.5004,-781.5348"/>
</g>
<!-- device&#45;mapper&#45;&gt;systemd -->
<g id="edge32" class="edge">
<title>device&#45;mapper&#45;&gt;systemd</title>
<path fill="none" stroke="#444444" stroke-opacity="0.333333" d="M936.5094,-785.3879C901.8669,-750.4328 825.5703,-673.4479 785.7515,-633.2699"/>
<polygon fill="#444444" fill-opacity="0.333333" stroke="#444444" stroke-opacity="0.333333" points="787.8225,-630.3874 778.2973,-625.7484 782.8506,-635.3149 787.8225,-630.3874"/>
</g>
<!-- device&#45;mapper&#45;&gt;util&#45;linux -->
<g id="edge33" class="edge">
<title>device&#45;mapper&#45;&gt;util&#45;linux</title>
<path fill="none" stroke="#444444" stroke-opacity="0.333333" d="M933.3438,-821.5394C917.8227,-834.8672 896.5224,-853.1577 879.3817,-867.8763"/>
<polygon fill="#444444" fill-opacity="0.333333" stroke="#444444" stroke-opacity="0.333333" points="876.6515,-865.6074 871.3449,-874.7775 881.2118,-870.9181 876.6515,-865.6074"/>
</g>
<!-- libargon2&#45;&gt;Fedora Container Base -->
<g id="edge3" class="edge">
<title>libargon2&#45;&gt;Fedora Container Base</title>
<path fill="none" stroke="#444444" stroke-opacity="0.333333" d="M254.745,-889.3382C307.5798,-833.41 468.8758,-662.6703 530.2904,-597.66"/>
<polygon fill="#444444" fill-opacity="0.333333" stroke="#444444" stroke-opacity="0.333333" points="532.9478,-599.9437 537.2708,-590.2709 527.8594,-595.1367 532.9478,-599.9437"/>
</g>
<!-- dbus&#45;broker&#45;&gt;Fedora Container Base -->
<g id="edge4" class="edge">
<title>dbus&#45;broker&#45;&gt;Fedora Container Base</title>
<path fill="none" stroke="#444444" stroke-opacity="0.333333" d="M690.9936,-915.8625C667.403,-856.5117 593.4025,-670.3357 565.3282,-599.7043"/>
<polygon fill="#444444" fill-opacity="0.333333" stroke="#444444" stroke-opacity="0.333333" points="568.477,-598.1505 561.5308,-590.1505 561.972,-600.7362 568.477,-598.1505"/>
</g>
<!-- dbus&#45;broker&#45;&gt;dbus&#45;common -->
<g id="edge5" class="edge">
<title>dbus&#45;broker&#45;&gt;dbus&#45;common</title>
<path fill="none" stroke="#444444" stroke-opacity="0.333333" d="M718.4962,-952.6499C726.6162,-960.0306 736.1078,-968.6579 744.8303,-976.5861"/>
<polygon fill="#444444" fill-opacity="0.333333" stroke="#444444" stroke-opacity="0.333333" points="742.4896,-979.1883 752.2437,-983.3245 747.1979,-974.0084 742.4896,-979.1883"/>
</g>
<!-- dbus&#45;broker&#45;&gt;shadow&#45;utils -->
<g id="edge6" class="edge">
<title>dbus&#45;broker&#45;&gt;shadow&#45;utils</title>
<path fill="none" stroke="#444444" stroke-opacity="0.333333" d="M624.6706,-924.8256C604.1247,-922.1773 581.6939,-919.286 560.7554,-916.5871"/>
<polygon fill="#444444" fill-opacity="0.333333" stroke="#444444" stroke-opacity="0.333333" points="560.9766,-913.0868 550.6112,-915.2796 560.0817,-920.0293 560.9766,-913.0868"/>
</g>
<!-- dbus&#45;broker&#45;&gt;systemd -->
<g id="edge7" class="edge">
<title>dbus&#45;broker&#45;&gt;systemd</title>
<path fill="none" stroke="#444444" stroke-opacity="0.333333" d="M701.7578,-916.2959C712.0201,-862.3341 742.5585,-701.7555 755.0368,-636.1415"/>
<polygon fill="#444444" fill-opacity="0.333333" stroke="#444444" stroke-opacity="0.333333" points="758.5163,-636.5788 756.9463,-626.101 751.6395,-635.271 758.5163,-636.5788"/>
</g>
<!-- dbus&#45;common&#45;&gt;Fedora Container Base -->
<g id="edge8" class="edge">
<title>dbus&#45;common&#45;&gt;Fedora Container Base</title>
<path fill="none" stroke="#444444" stroke-opacity="0.333333" d="M762.9126,-983.2303C728.7645,-915.9158 609.3234,-680.4673 568.3218,-599.6428"/>
<polygon fill="#444444" fill-opacity="0.333333" stroke="#444444" stroke-opacity="0.333333" points="571.3669,-597.909 563.7215,-590.5744 565.1243,-601.0759 571.3669,-597.909"/>
</g>
<!-- dbus&#45;common&#45;&gt;systemd -->
<g id="edge9" class="edge">
<title>dbus&#45;common&#45;&gt;systemd</title>
<path fill="none" stroke="#444444" stroke-opacity="0.333333" d="M771.5896,-983.202C769.7236,-920.3621 763.5417,-712.1805 761.2791,-635.9861"/>
<polygon fill="#444444" fill-opacity="0.333333" stroke="#444444" stroke-opacity="0.333333" points="764.77,-635.6266 760.9747,-625.735 757.7731,-635.8345 764.77,-635.6266"/>
</g>
<!-- shadow&#45;utils&#45;&gt;Fedora Container Base -->
<g id="edge10" class="edge">
<title>shadow&#45;utils&#45;&gt;Fedora Container Base</title>
<path fill="none" stroke="#444444" stroke-opacity="0.333333" d="M483.9727,-887.727C496.3398,-832.2972 533.2496,-666.8669 548.0942,-600.3332"/>
<polygon fill="#444444" fill-opacity="0.333333" stroke="#444444" stroke-opacity="0.333333" points="551.5184,-601.0583 550.28,-590.5361 544.6864,-599.5339 551.5184,-601.0583"/>
</g>
<!-- shadow&#45;utils&#45;&gt;libsemanage -->
<g id="edge11" class="edge">
<title>shadow&#45;utils&#45;&gt;libsemanage</title>
<path fill="none" stroke="#444444" stroke-opacity="0.333333" d="M461.0655,-924.3236C431.8847,-952.5248 375.5894,-1006.9303 342.3666,-1039.0379"/>
<polygon fill="#444444" fill-opacity="0.333333" stroke="#444444" stroke-opacity="0.333333" points="339.6055,-1036.8389 334.847,-1046.305 344.47,-1041.8724 339.6055,-1036.8389"/>
</g>
<!-- systemd&#45;&gt;Fedora Container Base -->
<g id="edge12" class="edge">
<title>systemd&#45;&gt;Fedora Container Base</title>
<path fill="none" stroke="#444444" stroke-opacity="0.333333" d="M698.8943,-597.106C682.7353,-594.3166 664.9419,-591.2451 647.5284,-588.2392"/>
<polygon fill="#444444" fill-opacity="0.333333" stroke="#444444" stroke-opacity="0.333333" points="647.7845,-584.7318 637.3348,-586.4796 646.5937,-591.6297 647.7845,-584.7318"/>
</g>
<!-- systemd&#45;&gt;shadow&#45;utils -->
<g id="edge13" class="edge">
<title>systemd&#45;&gt;shadow&#45;utils</title>
<path fill="none" stroke="#444444" stroke-opacity="0.333333" d="M743.3108,-625.9489C695.3723,-676.9371 559.7368,-821.2015 504.1144,-880.3625"/>
<polygon fill="#444444" fill-opacity="0.333333" stroke="#444444" stroke-opacity="0.333333" points="501.4214,-878.1173 497.1215,-887.8004 506.5213,-882.9122 501.4214,-878.1173"/>
</g>
<!-- systemd&#45;&gt;util&#45;linux -->
<g id="edge14" class="edge">
<title>systemd&#45;&gt;util&#45;linux</title>
<path fill="none" stroke="#444444" stroke-opacity="0.333333" d="M766.1985,-625.9986C781.5114,-674.5785 823.311,-807.1865 841.575,-865.1286"/>
<polygon fill="#444444" fill-opacity="0.333333" stroke="#444444" stroke-opacity="0.333333" points="838.255,-866.2383 844.5995,-874.7235 844.9312,-864.1339 838.255,-866.2383"/>
</g>
<!-- systemd&#45;&gt;acl -->
<g id="edge15" class="edge">
<title>systemd&#45;&gt;acl</title>
<path fill="none" stroke="#444444" stroke-opacity="0.333333" d="M769.3166,-589.3891C796.064,-534.1231 876.0013,-368.9555 907.9102,-303.0249"/>
<polygon fill="#444444" fill-opacity="0.333333" stroke="#444444" stroke-opacity="0.333333" points="911.2249,-304.2102 912.4309,-293.6842 904.924,-301.1607 911.2249,-304.2102"/>
</g>
<!-- systemd&#45;&gt;cryptsetup&#45;libs -->
<g id="edge16" class="edge">
<title>systemd&#45;&gt;cryptsetup&#45;libs</title>
<path fill="none" stroke="#444444" stroke-opacity="0.333333" d="M733.1079,-625.9749C685.6844,-657.6313 588.2136,-722.6956 535.744,-757.7203"/>
<polygon fill="#444444" fill-opacity="0.333333" stroke="#444444" stroke-opacity="0.333333" points="533.7899,-754.8166 527.4159,-763.2796 537.6763,-760.6386 533.7899,-754.8166"/>
</g>
<!-- systemd&#45;&gt;dbus -->
<g id="edge17" class="edge">
<title>systemd&#45;&gt;dbus</title>
<path fill="none" stroke="#444444" stroke-opacity="0.333333" d="M770.6777,-625.9873C809.9583,-696.0378 951.1761,-947.8771 998.2259,-1031.7827"/>
<polygon fill="#444444" fill-opacity="0.333333" stroke="#444444" stroke-opacity="0.333333" points="995.291,-1033.7051 1003.2349,-1040.7155 1001.3967,-1030.2813 995.291,-1033.7051"/>
</g>
<!-- systemd&#45;&gt;iptables&#45;libs -->
<g id="edge18" class="edge">
<title>systemd&#45;&gt;iptables&#45;libs</title>
<path fill="none" stroke="#444444" stroke-opacity="0.333333" d="M733.0099,-589.6348C665.4679,-545.0785 491.1143,-430.0602 415.2207,-379.9944"/>
<polygon fill="#444444" fill-opacity="0.333333" stroke="#444444" stroke-opacity="0.333333" points="416.7419,-376.805 406.4673,-374.2199 412.8873,-382.6481 416.7419,-376.805"/>
</g>
<!-- systemd&#45;&gt;kmod&#45;libs -->
<g id="edge19" class="edge">
<title>systemd&#45;&gt;kmod&#45;libs</title>
<path fill="none" stroke="#444444" stroke-opacity="0.333333" d="M761.4496,-589.6925C763.8151,-547.4301 769.731,-441.7377 772.5832,-390.7802"/>
<polygon fill="#444444" fill-opacity="0.333333" stroke="#444444" stroke-opacity="0.333333" points="776.0945,-390.6739 773.1589,-380.4939 769.1055,-390.2827 776.0945,-390.6739"/>
</g>
<!-- systemd&#45;&gt;libfdisk -->
<g id="edge20" class="edge">
<title>systemd&#45;&gt;libfdisk</title>
<path fill="none" stroke="#444444" stroke-opacity="0.333333" d="M804.5734,-625.7628C846.7543,-642.9978 910.4117,-669.008 955.447,-687.4093"/>
<polygon fill="#444444" fill-opacity="0.333333" stroke="#444444" stroke-opacity="0.333333" points="954.179,-690.672 964.7599,-691.2145 956.8267,-684.1921 954.179,-690.672"/>
</g>
<!-- systemd&#45;&gt;libseccomp -->
<g id="edge21" class="edge">
<title>systemd&#45;&gt;libseccomp</title>
<path fill="none" stroke="#444444" stroke-opacity="0.333333" d="M778.5803,-589.3921C812.5689,-555.0335 885.8898,-480.9142 924.5688,-441.814"/>
<polygon fill="#444444" fill-opacity="0.333333" stroke="#444444" stroke-opacity="0.333333" points="927.2764,-444.0538 931.8208,-434.4831 922.2999,-439.1309 927.2764,-444.0538"/>
</g>
<!-- systemd&#45;&gt;qrencode&#45;libs -->
<g id="edge22" class="edge">
<title>systemd&#45;&gt;qrencode&#45;libs</title>
<path fill="none" stroke="#444444" stroke-opacity="0.333333" d="M762.2028,-589.6918C768.4864,-525.3948 789.8216,-307.0836 797.4935,-228.5809"/>
<polygon fill="#444444" fill-opacity="0.333333" stroke="#444444" stroke-opacity="0.333333" points="800.993,-228.7554 798.4823,-218.4623 794.0262,-228.0745 800.993,-228.7554"/>
</g>
<!-- systemd&#45;&gt;systemd&#45;pam -->
<g id="edge23" class="edge">
<title>systemd&#45;&gt;systemd&#45;pam</title>
<path fill="none" stroke="#444444" stroke-opacity="0.333333" d="M757.9536,-589.6975C743.6021,-527.7453 680.1862,-323.4303 652.3758,-248.3786"/>
<polygon fill="#444444" fill-opacity="0.333333" stroke="#444444" stroke-opacity="0.333333" points="655.5146,-246.7844 648.6968,-238.6747 648.9692,-249.266 655.5146,-246.7844"/>
</g>
<!-- systemd&#45;&gt;systemd&#45;rpm&#45;macros -->
<g id="edge24" class="edge">
<title>systemd&#45;&gt;systemd&#45;rpm&#45;macros</title>
<path fill="none" stroke="#444444" stroke-opacity="0.333333" d="M746.3335,-589.3172C711.3577,-543.6644 620.5429,-425.1267 579.949,-372.1407"/>
<polygon fill="#444444" fill-opacity="0.333333" stroke="#444444" stroke-opacity="0.333333" points="582.5146,-369.7344 573.6546,-363.9248 576.9579,-373.9915 582.5146,-369.7344"/>
</g>
<!-- systemd&#45;&gt;diffutils -->
<g id="edge25" class="edge">
<title>systemd&#45;&gt;diffutils</title>
<path fill="none" stroke="#444444" stroke-dasharray="5,2" stroke-opacity="0.333333" d="M822.1497,-594.7329C859.5069,-586.8649 907.1701,-576.8263 945.4812,-568.7574"/>
<polygon fill="#444444" fill-opacity="0.333333" stroke="#444444" stroke-opacity="0.333333" points="946.4498,-572.1302 955.5137,-566.6443 945.007,-565.2805 946.4498,-572.1302"/>
</g>
<!-- systemd&#45;&gt;libxkbcommon -->
<g id="edge26" class="edge">
<title>systemd&#45;&gt;libxkbcommon</title>
<path fill="none" stroke="#444444" stroke-dasharray="5,2" stroke-opacity="0.333333" d="M799.3853,-589.7291C870.6954,-556.7689 1022.0426,-486.8149 1099.7865,-450.8809"/>
<polygon fill="#444444" fill-opacity="0.333333" stroke="#444444" stroke-opacity="0.333333" points="1101.2835,-454.0449 1108.8923,-446.6722 1098.3465,-447.6908 1101.2835,-454.0449"/>
</g>
<!-- libsemanage&#45;&gt;Fedora Container Base -->
<g id="edge44" class="edge">
<title>libsemanage&#45;&gt;Fedora Container Base</title>
<path fill="none" stroke="#444444" stroke-opacity="0.333333" d="M324.786,-1046.3935C360.852,-971.8982 497.9143,-688.7917 541.1982,-599.3875"/>
<polygon fill="#444444" fill-opacity="0.333333" stroke="#444444" stroke-opacity="0.333333" points="544.453,-600.6965 545.6603,-590.1707 538.1525,-597.6462 544.453,-600.6965"/>
</g>
<!-- util&#45;linux&#45;&gt;Fedora Container Base -->
<g id="edge27" class="edge">
<title>util&#45;linux&#45;&gt;Fedora Container Base</title>
<path fill="none" stroke="#444444" stroke-opacity="0.333333" d="M833.5516,-874.68C783.6011,-820.5519 635.6268,-660.2019 577.8572,-597.6007"/>
<polygon fill="#444444" fill-opacity="0.333333" stroke="#444444" stroke-opacity="0.333333" points="580.3085,-595.0962 570.9546,-590.1208 575.1642,-599.8434 580.3085,-595.0962"/>
</g>
<!-- util&#45;linux&#45;&gt;libfdisk -->
<g id="edge28" class="edge">
<title>util&#45;linux&#45;&gt;libfdisk</title>
<path fill="none" stroke="#444444" stroke-opacity="0.333333" d="M866.096,-874.5655C894.3571,-841.8493 953.679,-773.176 986.2675,-735.4502"/>
<polygon fill="#444444" fill-opacity="0.333333" stroke="#444444" stroke-opacity="0.333333" points="989.2894,-737.3061 993.1778,-727.4506 983.9921,-732.7302 989.2894,-737.3061"/>
</g>
<!-- util&#45;linux&#45;&gt;libutempter -->
<g id="edge29" class="edge">
<title>util&#45;linux&#45;&gt;libutempter</title>
<path fill="none" stroke="#444444" stroke-opacity="0.333333" d="M825.2027,-911.1021C777.7918,-945.587 675.0857,-1020.2916 621.896,-1058.9799"/>
<polygon fill="#444444" fill-opacity="0.333333" stroke="#444444" stroke-opacity="0.333333" points="619.5195,-1056.3805 613.4913,-1065.0932 623.6371,-1062.0414 619.5195,-1056.3805"/>
</g>
<!-- acl&#45;&gt;Fedora Container Base -->
<g id="edge45" class="edge">
<title>acl&#45;&gt;Fedora Container Base</title>
<path fill="none" stroke="#444444" stroke-opacity="0.333333" d="M898.8811,-293.5169C835.6608,-344.6515 655.803,-490.126 584.2617,-547.9907"/>
<polygon fill="#444444" fill-opacity="0.333333" stroke="#444444" stroke-opacity="0.333333" points="582.0598,-545.2701 576.4858,-554.2802 586.4619,-550.7127 582.0598,-545.2701"/>
</g>
<!-- cryptsetup&#45;libs&#45;&gt;Fedora Container Base -->
<g id="edge46" class="edge">
<title>cryptsetup&#45;libs&#45;&gt;Fedora Container Base</title>
<path fill="none" stroke="#444444" stroke-opacity="0.333333" d="M505.1416,-763.0878C514.5878,-726.4592 535.9533,-643.6116 547.1798,-600.0794"/>
<polygon fill="#444444" fill-opacity="0.333333" stroke="#444444" stroke-opacity="0.333333" points="550.6295,-600.7185 549.7377,-590.1612 543.8513,-598.9704 550.6295,-600.7185"/>
</g>
<!-- cryptsetup&#45;libs&#45;&gt;device&#45;mapper&#45;libs -->
<g id="edge47" class="edge">
<title>cryptsetup&#45;libs&#45;&gt;device&#45;mapper&#45;libs</title>
<path fill="none" stroke="#444444" stroke-opacity="0.333333" d="M577.6159,-779.4633C605.8146,-778.7995 638.2278,-778.0364 668.5229,-777.3232"/>
<polygon fill="#444444" fill-opacity="0.333333" stroke="#444444" stroke-opacity="0.333333" points="668.7917,-780.8179 678.7066,-777.0834 668.6269,-773.8199 668.7917,-780.8179"/>
</g>
<!-- cryptsetup&#45;libs&#45;&gt;libargon2 -->
<g id="edge48" class="edge">
<title>cryptsetup&#45;libs&#45;&gt;libargon2</title>
<path fill="none" stroke="#444444" stroke-opacity="0.333333" d="M462.8072,-799.3442C415.7887,-821.9076 335.3459,-860.5109 284.4398,-884.9399"/>
<polygon fill="#444444" fill-opacity="0.333333" stroke="#444444" stroke-opacity="0.333333" points="282.7943,-881.8473 275.293,-889.3293 285.8229,-888.1583 282.7943,-881.8473"/>
</g>
<!-- dbus&#45;&gt;dbus&#45;broker -->
<g id="edge49" class="edge">
<title>dbus&#45;&gt;dbus&#45;broker</title>
<path fill="none" stroke="#444444" stroke-opacity="0.333333" d="M971.0813,-1042.3581C914.8429,-1020.0818 815.6227,-980.7802 753.6176,-956.2197"/>
<polygon fill="#444444" fill-opacity="0.333333" stroke="#444444" stroke-opacity="0.333333" points="754.5841,-952.838 743.9979,-952.4093 752.0062,-959.346 754.5841,-952.838"/>
</g>
<!-- iptables&#45;libs&#45;&gt;Fedora Container Base -->
<g id="edge50" class="edge">
<title>iptables&#45;libs&#45;&gt;Fedora Container Base</title>
<path fill="none" stroke="#444444" stroke-opacity="0.333333" d="M393.6786,-374.1679C424.6872,-412.3719 497.0645,-501.5444 533.1465,-545.9992"/>
<polygon fill="#444444" fill-opacity="0.333333" stroke="#444444" stroke-opacity="0.333333" points="530.6302,-548.4529 539.6497,-554.0116 536.0653,-544.0415 530.6302,-548.4529"/>
</g>
<!-- iptables&#45;libs&#45;&gt;libnetfilter_conntrack -->
<g id="edge51" class="edge">
<title>iptables&#45;libs&#45;&gt;libnetfilter_conntrack</title>
<path fill="none" stroke="#444444" stroke-opacity="0.333333" d="M375.5316,-337.8947C368.076,-299.0541 350.5787,-207.9004 341.6808,-161.5458"/>
<polygon fill="#444444" fill-opacity="0.333333" stroke="#444444" stroke-opacity="0.333333" points="345.0892,-160.7357 339.7668,-151.5748 338.2147,-162.0553 345.0892,-160.7357"/>
</g>
<!-- iptables&#45;libs&#45;&gt;libpcap -->
<g id="edge52" class="edge">
<title>iptables&#45;libs&#45;&gt;libpcap</title>
<path fill="none" stroke="#444444" stroke-opacity="0.333333" d="M309.9939,-346.3841C278.5629,-341.9516 241.4336,-336.7154 209.9366,-332.2735"/>
<polygon fill="#444444" fill-opacity="0.333333" stroke="#444444" stroke-opacity="0.333333" points="210.3133,-328.7921 199.9225,-330.8613 209.3358,-335.7235 210.3133,-328.7921"/>
</g>
<!-- kmod&#45;libs&#45;&gt;Fedora Container Base -->
<g id="edge53" class="edge">
<title>kmod&#45;libs&#45;&gt;Fedora Container Base</title>
<path fill="none" stroke="#444444" stroke-opacity="0.333333" d="M755.0496,-380.6753C715.6567,-418.2651 625.4011,-504.3896 580.6001,-547.14"/>
<polygon fill="#444444" fill-opacity="0.333333" stroke="#444444" stroke-opacity="0.333333" points="578.1182,-544.6705 573.2997,-554.1063 582.9507,-549.7348 578.1182,-544.6705"/>
</g>
<!-- libfdisk&#45;&gt;Fedora Container Base -->
<g id="edge54" class="edge">
<title>libfdisk&#45;&gt;Fedora Container Base</title>
<path fill="none" stroke="#444444" stroke-opacity="0.333333" d="M949.0121,-691.1869C863.3918,-665.3625 706.6485,-618.0865 618.6659,-591.5496"/>
<polygon fill="#444444" fill-opacity="0.333333" stroke="#444444" stroke-opacity="0.333333" points="619.6532,-588.1917 609.0685,-588.6549 617.6318,-594.8935 619.6532,-588.1917"/>
</g>
<!-- libseccomp&#45;&gt;Fedora Container Base -->
<g id="edge55" class="edge">
<title>libseccomp&#45;&gt;Fedora Container Base</title>
<path fill="none" stroke="#444444" stroke-opacity="0.333333" d="M903.9037,-434.4906C830.2419,-463.5043 685.6815,-520.4433 607.539,-551.2219"/>
<polygon fill="#444444" fill-opacity="0.333333" stroke="#444444" stroke-opacity="0.333333" points="605.9094,-548.102 597.8878,-555.0233 608.4747,-554.615 605.9094,-548.102"/>
</g>
<!-- qrencode&#45;libs&#45;&gt;Fedora Container Base -->
<g id="edge56" class="edge">
<title>qrencode&#45;libs&#45;&gt;Fedora Container Base</title>
<path fill="none" stroke="#444444" stroke-opacity="0.333333" d="M788.2438,-218.3637C748.2061,-278.9338 619.2876,-473.9657 571.9905,-545.5183"/>
<polygon fill="#444444" fill-opacity="0.333333" stroke="#444444" stroke-opacity="0.333333" points="568.9777,-543.7291 566.3831,-554.0013 574.8172,-547.5891 568.9777,-543.7291"/>
</g>
<!-- systemd&#45;pam&#45;&gt;Fedora Container Base -->
<g id="edge57" class="edge">
<title>systemd&#45;pam&#45;&gt;Fedora Container Base</title>
<path fill="none" stroke="#444444" stroke-opacity="0.333333" d="M635.2424,-238.8358C621.217,-296.6501 577.9982,-474.8032 561.1776,-544.1396"/>
<polygon fill="#444444" fill-opacity="0.333333" stroke="#444444" stroke-opacity="0.333333" points="557.7596,-543.3832 558.8033,-553.9265 564.5623,-545.0335 557.7596,-543.3832"/>
</g>
<!-- systemd&#45;pam&#45;&gt;systemd -->
<g id="edge58" class="edge">
<title>systemd&#45;pam&#45;&gt;systemd</title>
<path fill="none" stroke="#444444" stroke-opacity="0.333333" d="M642.1964,-238.4525C656.5479,-300.4047 719.9638,-504.7197 747.7742,-579.7714"/>
<polygon fill="#444444" fill-opacity="0.333333" stroke="#444444" stroke-opacity="0.333333" points="744.6354,-581.3656 751.4532,-589.4753 751.1808,-578.884 744.6354,-581.3656"/>
</g>
<!-- systemd&#45;rpm&#45;macros&#45;&gt;Fedora Container Base -->
<g id="edge59" class="edge">
<title>systemd&#45;rpm&#45;macros&#45;&gt;Fedora Container Base</title>
<path fill="none" stroke="#444444" stroke-opacity="0.333333" d="M559.3932,-364.0149C558.4465,-403.3221 556.1994,-496.6219 555.063,-543.8006"/>
<polygon fill="#444444" fill-opacity="0.333333" stroke="#444444" stroke-opacity="0.333333" points="551.5608,-543.8573 554.8189,-553.9387 558.5587,-544.0259 551.5608,-543.8573"/>
</g>
<!-- diffutils&#45;&gt;Fedora Container Base -->
<g id="edge62" class="edge">
<title>diffutils&#45;&gt;Fedora Container Base</title>
<path fill="none" stroke="#444444" stroke-opacity="0.333333" d="M955.5801,-556.7885C890.884,-559.2672 783.0757,-563.3978 695.4986,-566.7532"/>
<polygon fill="#444444" fill-opacity="0.333333" stroke="#444444" stroke-opacity="0.333333" points="695.3255,-563.2572 685.4668,-567.1376 695.5935,-570.252 695.3255,-563.2572"/>
</g>
<!-- libxkbcommon&#45;&gt;Fedora Container Base -->
<g id="edge63" class="edge">
<title>libxkbcommon&#45;&gt;Fedora Container Base</title>
<path fill="none" stroke="#444444" stroke-opacity="0.333333" d="M1073.5061,-446.5929C959.7184,-474.1161 743.9882,-526.2972 629.7431,-553.9311"/>
<polygon fill="#444444" fill-opacity="0.333333" stroke="#444444" stroke-opacity="0.333333" points="628.9143,-550.5305 620.0174,-556.2835 630.56,-557.3343 628.9143,-550.5305"/>
</g>
<!-- libxkbcommon&#45;&gt;xkeyboard&#45;config -->
<g id="edge64" class="edge">
<title>libxkbcommon&#45;&gt;xkeyboard&#45;config</title>
<path fill="none" stroke="#444444" stroke-opacity="0.333333" d="M1208.8345,-410.4271C1286.2701,-387.3206 1419.8949,-347.4475 1501.6699,-323.0462"/>
<polygon fill="#444444" fill-opacity="0.333333" stroke="#444444" stroke-opacity="0.333333" points="1502.7964,-326.3626 1511.3781,-320.1493 1500.7948,-319.6549 1502.7964,-326.3626"/>
</g>
<!-- libutempter&#45;&gt;Fedora Container Base -->
<g id="edge60" class="edge">
<title>libutempter&#45;&gt;Fedora Container Base</title>
<path fill="none" stroke="#444444" stroke-opacity="0.333333" d="M587.2471,-1065.1083C582.1544,-988.7269 562.4778,-693.6135 556.2686,-600.4858"/>
<polygon fill="#444444" fill-opacity="0.333333" stroke="#444444" stroke-opacity="0.333333" points="559.7537,-600.1449 555.5961,-590.4 552.7693,-600.6107 559.7537,-600.1449"/>
</g>
<!-- libutempter&#45;&gt;shadow&#45;utils -->
<g id="edge61" class="edge">
<title>libutempter&#45;&gt;shadow&#45;utils</title>
<path fill="none" stroke="#444444" stroke-opacity="0.333333" d="M577.2469,-1065.0101C558.0124,-1033.6363 518.647,-969.4264 496.3033,-932.9811"/>
<polygon fill="#444444" fill-opacity="0.333333" stroke="#444444" stroke-opacity="0.333333" points="499.2227,-931.0464 491.0121,-924.3504 493.2549,-934.7051 499.2227,-931.0464"/>
</g>
<!-- libnetfilter_conntrack&#45;&gt;Fedora Container Base -->
<g id="edge34" class="edge">
<title>libnetfilter_conntrack&#45;&gt;Fedora Container Base</title>
<path fill="none" stroke="#444444" stroke-opacity="0.333333" d="M345.2364,-151.4275C379.1281,-219.6071 499.6704,-462.1011 540.6376,-544.5145"/>
<polygon fill="#444444" fill-opacity="0.333333" stroke="#444444" stroke-opacity="0.333333" points="537.6424,-546.3522 545.2279,-553.7489 543.9107,-543.2362 537.6424,-546.3522"/>
</g>
<!-- libnetfilter_conntrack&#45;&gt;libmnl -->
<g id="edge35" class="edge">
<title>libnetfilter_conntrack&#45;&gt;libmnl</title>
<path fill="none" stroke="#444444" stroke-opacity="0.333333" d="M233.7114,-133.9723C233.5732,-133.9731 233.435,-133.9738 233.2969,-133.9746"/>
<polygon fill="#444444" fill-opacity="0.333333" stroke="#444444" stroke-opacity="0.333333" points="240.3933,-130.4353 230.4128,-133.9904 240.4319,-137.4352 240.3933,-130.4353"/>
</g>
<!-- libnetfilter_conntrack&#45;&gt;libnfnetlink -->
<g id="edge36" class="edge">
<title>libnetfilter_conntrack&#45;&gt;libnfnetlink</title>
<path fill="none" stroke="#444444" stroke-opacity="0.333333" d="M355.2253,-115.3772C375.5709,-96.0115 408.0552,-65.0919 430.9516,-43.2982"/>
<polygon fill="#444444" fill-opacity="0.333333" stroke="#444444" stroke-opacity="0.333333" points="433.4873,-45.7167 438.3176,-36.2871 428.6611,-40.6464 433.4873,-45.7167"/>
</g>
<!-- libmnl&#45;&gt;Fedora Container Base -->
<g id="edge38" class="edge">
<title>libmnl&#45;&gt;Fedora Container Base</title>
<path fill="none" stroke="#444444" stroke-opacity="0.333333" d="M191.5468,-152.5473C251.0821,-221.3992 462.1513,-465.4985 531.8562,-546.1114"/>
<polygon fill="#444444" fill-opacity="0.333333" stroke="#444444" stroke-opacity="0.333333" points="529.3375,-548.5498 538.5258,-553.8248 534.6326,-543.9712 529.3375,-548.5498"/>
</g>
<!-- libnfnetlink&#45;&gt;Fedora Container Base -->
<g id="edge39" class="edge">
<title>libnfnetlink&#45;&gt;Fedora Container Base</title>
<path fill="none" stroke="#444444" stroke-opacity="0.333333" d="M460.6973,-36.1228C474.8217,-116.9406 532.1249,-444.8198 549.4164,-543.759"/>
<polygon fill="#444444" fill-opacity="0.333333" stroke="#444444" stroke-opacity="0.333333" points="546.0185,-544.6475 551.188,-553.8956 552.914,-543.4424 546.0185,-544.6475"/>
</g>
<!-- libpcap&#45;&gt;Fedora Container Base -->
<g id="edge37" class="edge">
<title>libpcap&#45;&gt;Fedora Container Base</title>
<path fill="none" stroke="#444444" stroke-opacity="0.333333" d="M170.4595,-340.6189C244.371,-385.1947 434.6549,-499.9542 516.2747,-549.1788"/>
<polygon fill="#444444" fill-opacity="0.333333" stroke="#444444" stroke-opacity="0.333333" points="514.8436,-552.403 525.2144,-554.5703 518.4587,-546.4087 514.8436,-552.403"/>
</g>
<!-- libpq&#45;&gt;Fedora Container Base -->
<g id="edge40" class="edge">
<title>libpq&#45;&gt;Fedora Container Base</title>
<path fill="none" stroke="#444444" stroke-opacity="0.333333" d="M107.1029,-648.8493C191.5719,-634.3664 356.7453,-606.0461 461.01,-588.1691"/>
<polygon fill="#444444" fill-opacity="0.333333" stroke="#444444" stroke-opacity="0.333333" points="461.6405,-591.6121 470.9052,-586.4724 460.4575,-584.7128 461.6405,-591.6121"/>
</g>
<!-- libicu&#45;&gt;Fedora Container Base -->
<g id="edge41" class="edge">
<title>libicu&#45;&gt;Fedora Container Base</title>
<path fill="none" stroke="#444444" stroke-opacity="0.333333" d="M141.3217,-521.2309C215.5538,-530.3836 349.3615,-546.8817 444.5586,-558.6193"/>
<polygon fill="#444444" fill-opacity="0.333333" stroke="#444444" stroke-opacity="0.333333" points="444.1629,-562.0969 454.5161,-559.847 445.0196,-555.1495 444.1629,-562.0969"/>
</g>
<!-- postgresql&#45;&gt;Fedora Container Base -->
<g id="edge42" class="edge">
<title>postgresql&#45;&gt;Fedora Container Base</title>
<path fill="none" stroke="#444444" stroke-opacity="0.333333" d="M123.5061,-765.9478C210.0806,-727.0105 413.9494,-635.3194 506.8085,-593.5555"/>
<polygon fill="#444444" fill-opacity="0.333333" stroke="#444444" stroke-opacity="0.333333" points="508.2894,-596.7273 515.9738,-589.4334 505.4181,-590.3432 508.2894,-596.7273"/>
</g>
<!-- postgresql&#45;&gt;libpq -->
<g id="edge43" class="edge">
<title>postgresql&#45;&gt;libpq</title>
<path fill="none" stroke="#444444" stroke-opacity="0.333333" d="M79.0698,-765.9616C74.1053,-745.008 65.8606,-710.2099 60.0787,-685.8065"/>
<polygon fill="#444444" fill-opacity="0.333333" stroke="#444444" stroke-opacity="0.333333" points="63.4795,-684.9786 57.7683,-676.0549 56.6681,-686.5925 63.4795,-684.9786"/>
</g>
<!-- postgresql&#45;server&#45;&gt;Fedora Container Base -->
<g id="edge65" class="edge">
<title>postgresql&#45;server&#45;&gt;Fedora Container Base</title>
<path fill="none" stroke="#444444" stroke-opacity="0.333333" d="M338.456,-662.4382C383.898,-643.4388 455.4759,-613.512 503.6317,-593.378"/>
<polygon fill="#444444" fill-opacity="0.333333" stroke="#444444" stroke-opacity="0.333333" points="505.0599,-596.5745 512.9359,-589.4879 502.3597,-590.1162 505.0599,-596.5745"/>
</g>
<!-- postgresql&#45;server&#45;&gt;shadow&#45;utils -->
<g id="edge66" class="edge">
<title>postgresql&#45;server&#45;&gt;shadow&#45;utils</title>
<path fill="none" stroke="#444444" stroke-opacity="0.333333" d="M310.1833,-698.5301C342.7656,-738.4004 420.8568,-833.959 458.6527,-880.209"/>
<polygon fill="#444444" fill-opacity="0.333333" stroke="#444444" stroke-opacity="0.333333" points="455.9682,-882.4553 465.0063,-887.9838 461.3885,-878.0257 455.9682,-882.4553"/>
</g>
<!-- postgresql&#45;server&#45;&gt;systemd -->
<g id="edge67" class="edge">
<title>postgresql&#45;server&#45;&gt;systemd</title>
<path fill="none" stroke="#444444" stroke-opacity="0.333333" d="M410.6524,-662.42C497.7417,-648.8034 614.5619,-630.5384 688.6854,-618.949"/>
<polygon fill="#444444" fill-opacity="0.333333" stroke="#444444" stroke-opacity="0.333333" points="689.5144,-622.362 698.8537,-617.3592 688.433,-615.446 689.5144,-622.362"/>
</g>
<!-- postgresql&#45;server&#45;&gt;libpq -->
<g id="edge68" class="edge">
<title>postgresql&#45;server&#45;&gt;libpq</title>
<path fill="none" stroke="#444444" stroke-opacity="0.333333" d="M151.1927,-667.0864C139.3847,-665.9929 127.8841,-664.928 117.1641,-663.9353"/>
<polygon fill="#444444" fill-opacity="0.333333" stroke="#444444" stroke-opacity="0.333333" points="117.421,-660.4442 107.1409,-663.0072 116.7755,-667.4144 117.421,-660.4442"/>
</g>
<!-- postgresql&#45;server&#45;&gt;libicu -->
<g id="edge69" class="edge">
<title>postgresql&#45;server&#45;&gt;libicu</title>
<path fill="none" stroke="#444444" stroke-opacity="0.333333" d="M272.6185,-662.3591C234.9001,-632.4233 159.4396,-572.5328 117.0198,-538.8657"/>
<polygon fill="#444444" fill-opacity="0.333333" stroke="#444444" stroke-opacity="0.333333" points="119.0061,-535.9738 108.9974,-532.4986 114.6544,-541.4568 119.0061,-535.9738"/>
</g>
<!-- postgresql&#45;server&#45;&gt;postgresql -->
<g id="edge70" class="edge">
<title>postgresql&#45;server&#45;&gt;postgresql</title>
<path fill="none" stroke="#444444" stroke-opacity="0.333333" d="M258.463,-698.4805C222.692,-715.9515 168.3377,-742.4989 129.6831,-761.3783"/>
<polygon fill="#444444" fill-opacity="0.333333" stroke="#444444" stroke-opacity="0.333333" points="127.6643,-758.4691 120.2148,-766.0028 130.7364,-764.759 127.6643,-758.4691"/>
</g>
<!-- Fedora Container Base -->
<g id="node1" class="node">
<title>Fedora Container Base</title>
<ellipse fill="none" stroke="#000000" cx="554.38" cy="-572.16" rx="136.5" ry="18"/>
<text text-anchor="middle" x="554.38" y="-568.46" font-family="Helvetica,sans-Serif" font-weight="bold" font-size="14.00" fill="#000000">Fedora Container Base (201.6 MB)</text>
</g>
<!-- device&#45;mapper&#45;libs -->
<g id="node2" class="node">
<title>device&#45;mapper&#45;libs</title>
<text text-anchor="middle" x="774.85" y="-771.12" font-family="Helvetica,sans-Serif" font-weight="bold" font-size="14.00" fill="#000000">device&#45;mapper&#45;libs (418.0 kB)</text>
</g>
<!-- device&#45;mapper -->
<g id="node3" class="node">
<title>device&#45;mapper</title>
<text text-anchor="middle" x="954.41" y="-799.75" font-family="Helvetica,sans-Serif" font-weight="bold" font-size="14.00" fill="#000000">device&#45;mapper (349.9 kB)</text>
</g>
<!-- libargon2 -->
<g id="node4" class="node">
<title>libargon2</title>
<text text-anchor="middle" x="237.72" y="-903.66" font-family="Helvetica,sans-Serif" font-weight="bold" font-size="14.00" fill="#000000">libargon2 (54.2 kB)</text>
</g>
<!-- dbus&#45;broker -->
<g id="node5" class="node">
<title>dbus&#45;broker</title>
<text text-anchor="middle" x="698.33" y="-930.62" font-family="Helvetica,sans-Serif" font-weight="bold" font-size="14.00" fill="#000000">dbus&#45;broker (409.6 kB)</text>
</g>
<!-- dbus&#45;common -->
<g id="node6" class="node">
<title>dbus&#45;common</title>
<text text-anchor="middle" x="772.13" y="-997.7" font-family="Helvetica,sans-Serif" font-weight="bold" font-size="14.00" fill="#000000">dbus&#45;common (11.2 kB)</text>
</g>
<!-- shadow&#45;utils -->
<g id="node7" class="node">
<title>shadow&#45;utils</title>
<text text-anchor="middle" x="479.86" y="-902.46" font-family="Helvetica,sans-Serif" font-weight="bold" font-size="14.00" fill="#000000">shadow&#45;utils (4.0 MB)</text>
</g>
<!-- systemd -->
<g id="node8" class="node">
<title>systemd</title>
<text text-anchor="middle" x="760.44" y="-604.03" font-family="Helvetica,sans-Serif" font-weight="bold" font-size="14.00" fill="#000000">systemd (13.1 MB)</text>
</g>
<!-- libsemanage -->
<g id="node9" class="node">
<title>libsemanage</title>
<text text-anchor="middle" x="316.02" y="-1060.8" font-family="Helvetica,sans-Serif" font-weight="bold" font-size="14.00" fill="#000000">libsemanage (304.5 kB)</text>
</g>
<!-- util&#45;linux -->
<g id="node10" class="node">
<title>util&#45;linux</title>
<text text-anchor="middle" x="850.31" y="-889.14" font-family="Helvetica,sans-Serif" font-weight="bold" font-size="14.00" fill="#000000">util&#45;linux (13.5 MB)</text>
</g>
<!-- acl -->
<g id="node11" class="node">
<title>acl</title>
<text text-anchor="middle" x="921.28" y="-271.7" font-family="Helvetica,sans-Serif" font-weight="bold" font-size="14.00" fill="#000000">acl (209.6 kB)</text>
</g>
<!-- cryptsetup&#45;libs -->
<g id="node12" class="node">
<title>cryptsetup&#45;libs</title>
<text text-anchor="middle" x="500.45" y="-777.58" font-family="Helvetica,sans-Serif" font-weight="bold" font-size="14.00" fill="#000000">cryptsetup&#45;libs (1.8 MB)</text>
</g>
<!-- dbus -->
<g id="node13" class="node">
<title>dbus</title>
<text text-anchor="middle" x="1013.6" y="-1055.5" font-family="Helvetica,sans-Serif" font-weight="bold" font-size="14.00" fill="#000000">dbus (0.0 B)</text>
</g>
<!-- iptables&#45;libs -->
<g id="node14" class="node">
<title>iptables&#45;libs</title>
<text text-anchor="middle" x="379.03" y="-352.42" font-family="Helvetica,sans-Serif" font-weight="bold" font-size="14.00" fill="#000000">iptables&#45;libs (1.9 MB)</text>
</g>
<!-- kmod&#45;libs -->
<g id="node15" class="node">
<title>kmod&#45;libs</title>
<text text-anchor="middle" x="774.17" y="-358.73" font-family="Helvetica,sans-Serif" font-weight="bold" font-size="14.00" fill="#000000">kmod&#45;libs (135.6 kB)</text>
</g>
<!-- libfdisk -->
<g id="node16" class="node">
<title>libfdisk</title>
<text text-anchor="middle" x="1008.9" y="-705.55" font-family="Helvetica,sans-Serif" font-weight="bold" font-size="14.00" fill="#000000">libfdisk (472.7 kB)</text>
</g>
<!-- libseccomp -->
<g id="node17" class="node">
<title>libseccomp</title>
<text text-anchor="middle" x="949.63" y="-412.78" font-family="Helvetica,sans-Serif" font-weight="bold" font-size="14.00" fill="#000000">libseccomp (351.1 kB)</text>
</g>
<!-- qrencode&#45;libs -->
<g id="node18" class="node">
<title>qrencode&#45;libs</title>
<text text-anchor="middle" x="800.27" y="-196.47" font-family="Helvetica,sans-Serif" font-weight="bold" font-size="14.00" fill="#000000">qrencode&#45;libs (158.2 kB)</text>
</g>
<!-- systemd&#45;pam -->
<g id="node19" class="node">
<title>systemd&#45;pam</title>
<text text-anchor="middle" x="639.71" y="-216.72" font-family="Helvetica,sans-Serif" font-weight="bold" font-size="14.00" fill="#000000">systemd&#45;pam (867.7 kB)</text>
</g>
<!-- systemd&#45;rpm&#45;macros -->
<g id="node20" class="node">
<title>systemd&#45;rpm&#45;macros</title>
<text text-anchor="middle" x="559.83" y="-342.18" font-family="Helvetica,sans-Serif" font-weight="bold" font-size="14.00" fill="#000000">systemd&#45;rpm&#45;macros (7.9 kB)</text>
</g>
<!-- diffutils -->
<g id="node21" class="node">
<title>diffutils</title>
<text text-anchor="middle" x="1012.7" y="-550.9" font-family="Helvetica,sans-Serif" font-weight="bold" font-size="14.00" fill="#000000">diffutils (1.5 MB)</text>
</g>
<!-- libxkbcommon -->
<g id="node22" class="node">
<title>libxkbcommon</title>
<text text-anchor="middle" x="1148.1" y="-424.85" font-family="Helvetica,sans-Serif" font-weight="bold" font-size="14.00" fill="#000000">libxkbcommon (276.4 kB)</text>
</g>
<!-- libutempter -->
<g id="node23" class="node">
<title>libutempter</title>
<text text-anchor="middle" x="588.46" y="-1079.6" font-family="Helvetica,sans-Serif" font-weight="bold" font-size="14.00" fill="#000000">libutempter (57.8 kB)</text>
</g>
<!-- libnetfilter_conntrack -->
<g id="node24" class="node">
<title>libnetfilter_conntrack</title>
<text text-anchor="middle" x="336.28" y="-129.71" font-family="Helvetica,sans-Serif" font-weight="bold" font-size="14.00" fill="#000000">libnetfilter_conntrack (148.0 kB)</text>
</g>
<!-- libmnl -->
<g id="node25" class="node">
<title>libmnl</title>
<text text-anchor="middle" x="175.76" y="-130.59" font-family="Helvetica,sans-Serif" font-weight="bold" font-size="14.00" fill="#000000">libmnl (55.4 kB)</text>
</g>
<!-- libnfnetlink -->
<g id="node26" class="node">
<title>libnfnetlink</title>
<text text-anchor="middle" x="457.53" y="-14.3" font-family="Helvetica,sans-Serif" font-weight="bold" font-size="14.00" fill="#000000">libnfnetlink (54.8 kB)</text>
</g>
<!-- libpcap -->
<g id="node27" class="node">
<title>libpcap</title>
<text text-anchor="middle" x="140.35" y="-318.76" font-family="Helvetica,sans-Serif" font-weight="bold" font-size="14.00" fill="#000000">libpcap (387.4 kB)</text>
</g>
<!-- xkeyboard&#45;config -->
<g id="node28" class="node">
<title>xkeyboard&#45;config</title>
<text text-anchor="middle" x="1572" y="-298.36" font-family="Helvetica,sans-Serif" font-weight="bold" font-size="14.00" fill="#000000">xkeyboard&#45;config (5.5 MB)</text>
</g>
<!-- libpq -->
<g id="node29" class="node">
<title>libpq</title>
<text text-anchor="middle" x="53.5" y="-654.34" font-family="Helvetica,sans-Serif" font-weight="bold" font-size="14.00" fill="#000000">libpq (714.5 kB)</text>
</g>
<!-- libicu -->
<g id="node30" class="node">
<title>libicu</title>
<text text-anchor="middle" x="86.244" y="-510.74" font-family="Helvetica,sans-Serif" font-weight="bold" font-size="14.00" fill="#000000">libicu (32.1 MB)</text>
</g>
<!-- postgresql -->
<g id="node31" class="node">
<title>postgresql</title>
<text text-anchor="middle" x="83.346" y="-780.31" font-family="Helvetica,sans-Serif" font-weight="bold" font-size="14.00" fill="#000000">postgresql (5.3 MB)</text>
</g>
<!-- postgresql&#45;server -->
<g id="node32" class="node">
<title>postgresql&#45;server</title>
<text text-anchor="middle" x="295.4" y="-674.84" font-family="Helvetica,sans-Serif" font-weight="bold" font-size="22.00" fill="#cc0066">postgresql&#45;server (21.6 MB)</text>
</g>
</g>

<script type="text/javascript"><![CDATA[

document.addEventListener('click', function(e) {
      e = e || window.event;
      var target = e.target || e.srcElement;
      text = target.parentElement.querySelector("title").textContent;

      console.log("Clicked on: " + text);
      // reset all strokes
      var nodes = document.getElementsByClassName("edge");

      for (index = 0, len = nodes.length; index < len; ++index) {
          //var title = nodes[index].querySelector("title").textContent.split("->");
          id = nodes[index].id;
          document.getElementById(id).querySelector("path").setAttribute("stroke-width", "1");
          document.getElementById(id).querySelector("path").setAttribute("stroke-opacity", "0.5");
          document.getElementById(id).querySelector("path").setAttribute("stroke", "#444444");
          document.getElementById(id).querySelector("polygon").setAttribute("stroke-width", "1");
          document.getElementById(id).querySelector("polygon").setAttribute("stroke-opacity", "0.5");
          document.getElementById(id).querySelector("polygon").setAttribute("stroke", "#444444");
      }
      // reset text highlight
      pkgs = document.getElementsByClassName("node");
      for (index2 = 0, len2 = pkgs.length; index2 < len2; ++index2) {
          target_id = pkgs[index2].id;
          document.getElementById(target_id).querySelector("text").setAttribute("font-weight", "normal");
      }

      // highlight deps
      var nodes = document.getElementsByClassName("edge");
      for (index = 0, len = nodes.length; index < len; ++index) {
        var title = nodes[index].querySelector("title").textContent.split("->");

        if (title[0] == text) {
          id = nodes[index].id;
          //console.log("ID:   " + id);
          document.getElementById(id).querySelector("path").setAttribute("stroke-width", "3");
          document.getElementById(id).querySelector("path").setAttribute("stroke-opacity", "1");
          document.getElementById(id).querySelector("path").setAttribute("stroke", "#aa3333");
          document.getElementById(id).querySelector("polygon").setAttribute("stroke-width", "5");
          document.getElementById(id).querySelector("polygon").setAttribute("stroke-opacity", "1");
          document.getElementById(id).querySelector("polygon").setAttribute("stroke", "#aa3333");

        }
        if (title[1] == text) {
          id = nodes[index].id;
          document.getElementById(id).querySelector("path").setAttribute("stroke-width", "3");
          document.getElementById(id).querySelector("path").setAttribute("stroke-opacity", "1");
          document.getElementById(id).querySelector("path").setAttribute("stroke", "#333377");
          document.getElementById(id).querySelector("polygon").setAttribute("stroke-width", "5");
          document.getElementById(id).querySelector("polygon").setAttribute("stroke-opacity", "1");
          document.getElementById(id).querySelector("polygon").setAttribute("stroke", "#333377");
        }

        if (title[0] == text || title[1] == text) {
          pkgs = document.getElementsByClassName("node");
          for (index2 = 0, len2 = pkgs.length; index2 < len2; ++index2) {
            var pkg_name = pkgs[index2].querySelector("title").textContent;
            if (pkg_name == title[0] || pkg_name == title[1]) {
              target_id = pkgs[index2].id;
              document.getElementById(target_id).querySelector("text").setAttribute("font-weight", "bold");
            }
          }
        }
      }


  }, false);

]]></script>


  <text
     id="text7664"
     y="19.384439"
     x="9.9055691"
     style="font-style:normal;font-weight:normal;font-size:12.49485588px;line-height:125%;font-family:sans-serif;letter-spacing:0px;word-spacing:0px;fill:#000000;fill-opacity:1;stroke:none;stroke-width:0.3123714px;stroke-linecap:butt;stroke-linejoin:miter;stroke-opacity:1"
     xml:space="preserve"><tspan
       style="font-size:12.00258541px;stroke-width:0.3123714px"
       y="19.384439"
       x="9.9055691"
       id="tspan7666"><a href="report-use-case-definition--postgresql--rawhide.html"><tspan
   style="font-weight:bold;font-size:12.00258541px;fill:#0066ff;stroke-width:0.3123714px"
   id="tspan7668">PostgreSQL</tspan></a> on <a href="report-base-definition--fedora-container-base--rawhide.html"><tspan
   style="font-weight:bold;font-size:12.00258541px;fill:#0066ff;stroke-width:0.3123714px"
   id="tspan7676">Fedora Container Base</tspan></a> (Fedora rawhide)</tspan></text>
  <text
     xml:space="preserve"
     style="font-style:normal;font-weight:normal;font-size:11.85299969px;line-height:125%;font-family:sans-serif;letter-spacing:0px;word-spacing:0px;fill:#000000;fill-opacity:1;stroke:none;stroke-width:0.296325px;stroke-linecap:butt;stroke-linejoin:miter;stroke-opacity:1"
     x="9.9365959"
     y="58.520042"
     id="text8235"><tspan
       id="tspan8237"
       x="9.9365959"
       y="58.520042"
       style="stroke-width:0.296325px;font-size:10.80232704px;fill:#666666">Generated by <a href="./"><tspan
   style="fill:#3771c8"
   id="tspan8255">Feedback Pipeline</tspan></a></tspan></text>
  <text
     xml:space="preserve"
     style="font-style:normal;font-weight:normal;font-size:12.49485588px;line-height:125%;font-family:sans-serif;letter-spacing:0px;word-spacing:0px;fill:#000000;fill-opacity:1;stroke:none;stroke-width:0.3123714px;stroke-linecap:butt;stroke-linejoin:miter;stroke-opacity:1"
     x="9.9055691"
     y="38.974205"
     id="text8245"><a href="graph--postgresql--fedora-container-base--rawhide.svg"><tspan
       id="tspan8247"
       x="9.9055691"
       y="38.974205"
       style="font-weight:normal;font-size:12.00258541px;fill:#0066ff;stroke-width:0.3123714px">Expand base image</tspan></a></text>

</svg>
