<?xml version="1.0" encoding="UTF-8" standalone="no"?>
<!DOCTYPE svg PUBLIC "-//W3C//DTD SVG 1.1//EN"
 "http://www.w3.org/Graphics/SVG/1.1/DTD/svg11.dtd">
<!-- Generated by graphviz version 2.40.1 (0)
 -->
<!-- Title: packages Pages: 1 -->
<svg width="1395pt" height="607pt"
 viewBox="0.00 0.00 1673.87 728.61" xmlns="http://www.w3.org/2000/svg" xmlns:xlink="http://www.w3.org/1999/xlink">
<g id="graph0" class="graph" transform="scale(.8333 .8333) rotate(0) translate(109.3505 622.76)">
<title>packages</title>
<polygon fill="#dae2ff" stroke="transparent" points="-109.3505,105.8513 -109.3505,-622.76 1564.5178,-622.76 1564.5178,105.8513 -109.3505,105.8513"/>
<polygon fill="#fbb4ae" stroke="#fbb4ae" points="445.0028,-383.87 444.6389,-386.9066 441.8893,-399.9018 434.935,-423.126 437.2169,-424.5103 443.6893,-428.0125 447.3113,-429.5023 459.4376,-433.7268 462.1411,-434.4879 481.1405,-437.3896 482.3092,-437.6446 491.5279,-440.2758 499.7544,-443.1618 494.7347,-391.4747 500.1282,-394.4349 500.1282,-394.4349 494.7347,-391.4747 499.7544,-443.1618 501.312,-443.8067 507.2389,-447.0495 514.4126,-451.4626 525.0906,-458.74 525.1044,-458.7503 537.8741,-469.0708 566.2428,-490.0656 591.0992,-506.2238 607.444,-498.7029 633.4901,-481.2896 712.2144,-498.5421 723.1795,-498.7887 737.513,-499.6763 754.2296,-502.0316 757.0189,-502.4793 769.9345,-505.0626 775.0042,-506.2755 785.1819,-508.911 901.9094,-442.4252 907.0854,-442.8279 921.9688,-444.2482 931.5273,-445.3279 945.2379,-447.3565 957.4267,-450.0132 962.7966,-448.9048 960.6218,-355.3549 956.3232,-293.5657 952.5983,-293.5657 951.4062,-293.2347 951.189,-292.9315 947.4038,-289.9252 947.4038,-289.9252 951.189,-292.9315 951.4062,-293.2347 952.5983,-293.5657 956.3232,-293.5657 960.6218,-355.3549 962.7966,-448.9048 966.0331,-448.3491 1030.0004,-438.4696 1074.0142,-399.6021 1069.0464,-325.7501 1068.3127,-305.8666 1066.7336,-282.7322 1066.2175,-277.5418 1065.2516,-251.3348 1062.3223,-207.7877 1013.1973,-183.722 969.467,-176.8378 952.2122,-173.3065 944.6479,-171.4058 939.6748,-169.9232 936.2468,-170.9682 919.6779,-175.2435 844.7186,-189.2727 752.937,-114.6515 740.6282,-111.8591 735.4234,-220.2138 735.4234,-220.2138 740.6282,-111.8591 722.1295,-106.908 710.0289,-103.1836 709.6257,-165.1332 709.6257,-165.1332 710.0289,-103.1836 695.3711,-97.4872 691.1188,-95.7492 686.9547,-95.0082 684.4942,-94.5269 675.4459,-92.5972 670.1958,-91.3852 638.1547,-86.0739 562.0952,-153.5862 562.5234,-242.5662 562.2597,-248.1897 562.3347,-263.7034 562.5303,-270.0761 522.4368,-297.3587 508.9656,-304.9051 504.4079,-307.2701 495.6808,-311.4392 489.7376,-313.7853 477.534,-317.613 459.6855,-322.4701 446.7571,-365.6453 445.1498,-378.9622 445.0028,-383.87 445.0028,-383.87"/>
<polygon fill="#fed9a6" stroke="#fed9a6" points="31.5044,-199.927 30.8166,-200.0752 -33.6247,-212.6089 -91.0514,-252.0743 -100.3517,-325.9246 -100.5675,-327.162 -105.3505,-351.2067 -51.2697,-436.8427 25.9121,-416.5836 35.347,-414.3985 45.6007,-412.6621 60.2756,-411.5455 66.7744,-411.2543 67.0097,-411.2584 68.9857,-411.2283 72.2622,-411.0711 80.3214,-411.1868 87.3304,-410.8279 98.4548,-409.8935 99.1503,-409.8124 99.718,-409.7277 108.3366,-408.1578 110.8454,-407.6187 123.0378,-404.5969 132.8641,-401.1953 152.9949,-372.7784 219.1983,-382.8923 234.7143,-382.891 234.7133,-382.8688 230.0076,-332.4186 230.0076,-332.4186 234.7133,-382.8688 234.7143,-382.891 235.1669,-382.9357 238.5161,-382.9255 238.7227,-382.9454 247.7334,-383.3516 250.7574,-383.3333 253.35,-383.1856 252.5828,-362.028 254.4455,-326.0044 254.1926,-325.937 254.1926,-325.937 254.4455,-326.0044 256.821,-326.0044 257.9955,-324.7787 260.8326,-295.7382 260.414,-263.7766 263.8743,-263.517 259.6661,-201.6617 260.2028,-201.5145 260.4294,-164.0742 260.4405,-163.9507 260.6254,-135.8977 268.4823,-135.8942 270.0462,-70.725 270.601,-70.725 274.7947,-74.0474 279.3055,-75.2424 279.3055,-75.2424 274.7947,-74.0474 270.601,-70.725 270.0462,-70.725 268.4823,-135.8942 260.6254,-135.8977 260.4405,-163.9507 260.4294,-164.0742 260.2028,-201.5145 259.6661,-201.6617 263.8743,-263.517 264.0086,-263.5129 266.9614,-263.5551 270.1076,-203.6626 267.8049,-201.1791 268.7787,-200.1875 268.7787,-200.1875 267.8049,-201.1791 270.1076,-203.6626 274.8134,-206.1304 278.8137,-206.1304 278.8137,-206.1304 274.8134,-206.1304 270.1076,-203.6626 266.9614,-263.5551 264.0086,-263.5129 263.8743,-263.517 260.414,-263.7766 260.8326,-295.7382 257.9955,-324.7787 256.821,-326.0044 254.4455,-326.0044 252.5828,-362.028 253.35,-383.1856 254.3996,-383.2294 256.1982,-383.2133 259.0911,-328.4134 262.8964,-330.3775 262.8964,-330.3775 259.0911,-328.4134 256.1982,-383.2133 257.5046,-383.2661 265.3556,-383.1835 268.9413,-382.7784 272.6243,-382.7288 273.9463,-382.7763 278.1953,-383.1404 283.1721,-383.0585 293.1203,-383.8818 300.2911,-384.8301 301.0612,-385.0079 336.2246,-431.7056 332.3025,-440.11 324.4715,-469.4703 319.2349,-485.0295 316.0783,-492.8752 277.6738,-575.1685 274.0216,-583.8592 369.6891,-611.3519 374.2191,-487.8824 378.0587,-484.593 379.4755,-482.0319 379.0522,-481.6691 378.7393,-481.1025 373.9771,-476.5026 375.8049,-426.3367 376.9642,-426.2695 378.6965,-426.2631 378.6766,-374.6889 383.831,-374.6889 388.261,-372.2398 390.2671,-369.9124 389.4427,-369.0012 383.4721,-365.5571 379.2138,-365.5571 379.2138,-365.5571 383.4721,-365.5571 389.4427,-369.0012 390.2671,-369.9124 388.261,-372.2398 383.831,-374.6889 378.6766,-374.6889 378.6965,-426.2631 376.9642,-426.2695 375.8049,-426.3367 373.9771,-476.5026 378.7393,-481.1025 379.0522,-481.6691 379.4755,-482.0319 378.0587,-484.593 374.2191,-487.8824 369.6891,-611.3519 386.248,-616.4689 392.3946,-618.76 396.8689,-616.4931 403.3915,-613.6433 413.7654,-609.3495 412.2088,-484.1223 416.8203,-486.5406 421.894,-486.5406 427.1707,-483.7067 428.5834,-482.2468 427.1349,-480.7077 427.1349,-480.7077 428.5834,-482.2468 427.1707,-483.7067 421.894,-486.5406 416.8203,-486.5406 412.2088,-484.1223 413.7654,-609.3495 420.7573,-606.6199 428.8583,-604.0233 434.3455,-602.3918 441.7523,-600.3622 450.9668,-598.0533 453.5971,-597.5179 460.9948,-596.1847 468.4884,-595.0095 503.3407,-590.3624 519.2708,-582.4061 549.2382,-557.5225 591.0992,-506.2238 566.2428,-490.0656 537.8741,-469.0708 525.1044,-458.7503 525.0906,-458.74 514.4126,-451.4626 507.2389,-447.0495 501.312,-443.8067 499.7544,-443.1618 491.5279,-440.2758 482.3092,-437.6446 481.1405,-437.3896 462.1411,-434.4879 459.4376,-433.7268 447.3113,-429.5023 443.6893,-428.0125 437.2169,-424.5103 434.935,-423.126 441.8893,-399.9018 444.6389,-386.9066 445.0028,-383.87 445.1498,-378.9622 446.7571,-365.6453 459.6855,-322.4701 477.534,-317.613 489.7376,-313.7853 495.6808,-311.4392 504.4079,-307.2701 508.9656,-304.9051 522.4368,-297.3587 562.5303,-270.0761 562.3347,-263.7034 562.2597,-248.1897 562.5234,-242.5662 562.0952,-153.5862 482.0103,-138.5759 465.1427,-136.6067 460.7163,-136.1951 445.6434,-135.8624 443.2011,-197.7819 443.2011,-197.7819 445.6434,-135.8624 460.7163,-136.1951 465.1427,-136.6067 482.0103,-138.5759 562.0952,-153.5862 638.1547,-86.0739 622.331,-36.3646 611.4695,3.8694 604.8632,14.7448 577.1039,63.194 518.252,95.4527 482.5221,95.6826 481.4435,61.5167 481.6404,21.7703 481.6404,21.7703 481.4435,61.5167 473.1407,-17.8427 472.7641,-17.9494 469.4566,-17.9494 469.2765,-17.9992 468.0337,-17.9992 464.3879,-14.9488 458.4727,-13.2049 453.0933,-14.7444 449.6878,-17.5459 449.2408,-18.2137 452.6113,-20.9487 458.6869,-22.7387 458.6869,-22.7387 452.6113,-20.9487 449.2408,-18.2137 449.6878,-17.5459 453.0933,-14.7444 458.4727,-13.2049 464.3879,-14.9488 468.0337,-17.9992 469.2765,-17.9992 469.4566,-17.9494 472.7641,-17.9494 473.1407,-17.8427 481.4435,61.5167 482.5221,95.6826 463.2099,97.2323 459.765,97.593 439.8275,101.1524 437.0508,101.8513 435.5231,101.6548 381.8178,96.0079 329.7139,56.9658 298.3151,55.2658 291.4156,55.3354 284.552,55.6989 268.3338,56.9065 264.8441,57.3905 256.7404,58.6893 245.9253,56.3272 227.6878,52.7487 179.5647,36.1865 150.3151,-1.0432 148.0373,-54.4567 146.3271,-78.3508 139.9837,-127.5799 103.803,-179.2861 85.5066,-181.6662 70.3873,-188.1138 68.9424,-188.699 55.1775,-193.4104 50.0551,-194.948 40.9568,-197.4882 31.5044,-199.927 31.5044,-199.927"/>
<polygon fill="#bbd7d9" stroke="#bbd7d9" points="68.9857,-411.2283 67.0097,-411.2584 66.7744,-411.2543 60.2756,-411.5455 45.6007,-412.6621 35.347,-414.3985 25.9121,-416.5836 -51.2697,-436.8427 -55.6031,-479.9651 -55.787,-481.4295 -54.2666,-487.3198 -46.6308,-520.3046 -30.9908,-597.1764 44.6683,-615.7382 60.9277,-613.3467 68.6287,-501.7929 72.8109,-497.8828 73.3373,-496.9261 74.2619,-496.1211 77.3209,-496.1211 77.7232,-496.2332 83.5461,-496.2332 84.3599,-496.0042 87.8255,-496.0042 88.3482,-495.8603 92.6026,-495.8603 93.8954,-496.2219 98.1025,-492.7992 103.3287,-491.3722 108.0901,-492.6417 112.252,-495.9757 113.3269,-495.9757 113.658,-496.0667 117.339,-496.0667 117.6924,-496.1642 122.6629,-496.1642 122.9031,-496.0966 128.7684,-496.0966 129.2402,-496.2267 130.4096,-496.2267 132.4505,-493.4232 132.4505,-493.4232 130.4096,-496.2267 129.2402,-496.2267 128.7684,-496.0966 122.9031,-496.0966 122.6629,-496.1642 117.6924,-496.1642 117.339,-496.0667 113.658,-496.0667 113.3269,-495.9757 112.252,-495.9757 108.0901,-492.6417 103.3287,-491.3722 98.1025,-492.7992 93.8954,-496.2219 92.6026,-495.8603 88.3482,-495.8603 87.8255,-496.0042 84.3599,-496.0042 83.5461,-496.2332 77.7232,-496.2332 77.3209,-496.1211 74.2619,-496.1211 73.3373,-496.9261 72.8109,-497.8828 68.6287,-501.7929 60.9277,-613.3467 80.6919,-610.903 82.6192,-610.7106 85.593,-610.5546 102.4717,-610.4662 109.1865,-610.5899 120.7661,-611.6242 133.0617,-613.5973 138.3059,-612.7571 233.7988,-601.9565 251.5607,-587.7489 267.1887,-584.7783 274.0216,-583.8592 277.6738,-575.1685 316.0783,-492.8752 319.2349,-485.0295 324.4715,-469.4703 332.3025,-440.11 336.2246,-431.7056 301.0612,-385.0079 300.2911,-384.8301 293.1203,-383.8818 283.1721,-383.0585 278.1953,-383.1404 277.7596,-398.0472 279.3549,-433.6985 279.3549,-433.6985 277.7596,-398.0472 278.1953,-383.1404 273.9463,-382.7763 272.6243,-382.7288 268.9413,-382.7784 265.3556,-383.1835 257.5046,-383.2661 256.1982,-383.2133 254.3996,-383.2294 253.35,-383.1856 250.7574,-383.3333 247.7334,-383.3516 238.7227,-382.9454 238.5161,-382.9255 235.1669,-382.9357 234.7143,-382.891 219.1983,-382.8923 219.2347,-384.207 215.4216,-434.1037 215.4216,-434.1037 219.2347,-384.207 219.1983,-382.8923 152.9949,-372.7784 132.8641,-401.1953 123.0378,-404.5969 110.8454,-407.6187 108.3366,-408.1578 99.718,-409.7277 99.1503,-409.8124 98.4548,-409.8935 87.3304,-410.8279 80.3214,-411.1868 72.2622,-411.0711 68.9857,-411.2283 68.9857,-411.2283"/>
<polygon fill="#d8d6da" stroke="#d8d6da" points="1552.1062,-460.5396 1556.4858,-493.3205 1559.4496,-511.6273 1499.6906,-580.2521 1455.1222,-585.3591 1436.3788,-587.95 1426.802,-589.7207 1416.7992,-592.0364 1415.9417,-592.2548 1411.5256,-593.4825 1409.5967,-517.8508 1411.3026,-474.5883 1415.4,-471.2604 1415.2133,-470.998 1411.062,-467.6604 1411.3179,-398.4568 1420.1149,-398.5815 1421.918,-398.469 1421.0745,-368.661 1421.0745,-368.661 1421.918,-398.469 1420.1149,-398.5815 1411.3179,-398.4568 1410.4172,-398.4095 1410.4852,-363.9518 1407.4547,-325.9289 1408.4365,-325.6595 1407.0939,-284.8013 1407.9922,-263.394 1411.8241,-262.1665 1417.8627,-259.9362 1420.2965,-258.919 1487.8896,-227.3226 1385.3387,-213.1608 1376.4539,-215.9001 1371.7196,-213.6617 1368.288,-209.4456 1367.6306,-209.4456 1367.1209,-209.3109 1367.1209,-209.3109 1367.6306,-209.4456 1364.9347,-246.9912 1361.2678,-209.39 1359.0388,-209.39 1357.9718,-209.1052 1357.9718,-209.1052 1359.0388,-209.39 1354.924,-231.4391 1350.9269,-209.4829 1348.9941,-209.4829 1348.9862,-209.4807 1348.9862,-209.4807 1348.9941,-209.4829 1350.9269,-209.4829 1354.924,-231.4391 1359.0388,-209.39 1361.2678,-209.39 1364.9347,-246.9912 1367.6306,-209.4456 1368.288,-209.4456 1371.7196,-213.6617 1376.4539,-215.9001 1385.3387,-213.1608 1487.8896,-227.3226 1420.2965,-258.919 1417.8627,-259.9362 1411.8241,-262.1665 1407.9922,-263.394 1407.0939,-284.8013 1408.4365,-325.6595 1407.4547,-325.9289 1410.4852,-363.9518 1410.4172,-398.4095 1411.3179,-398.4568 1411.062,-467.6604 1415.2133,-470.998 1415.4,-471.2604 1411.3026,-474.5883 1405.821,-476.1048 1401.9475,-475.0843 1397.3145,-471.1692 1401.7517,-467.4883 1398.9053,-432.9477 1398.9395,-398.5777 1402.1055,-398.3889 1401.3872,-358.1965 1397.8051,-328.2638 1400.4082,-325.4486 1399.2241,-324.2077 1393.4032,-321.0144 1389.1394,-321.0144 1389.1394,-321.0144 1393.4032,-321.0144 1399.2241,-324.2077 1400.4082,-325.4486 1397.8051,-328.2638 1394.5922,-329.8955 1394.5922,-329.8955 1397.8051,-328.2638 1401.3872,-358.1965 1402.1055,-398.3889 1398.9395,-398.5777 1398.9053,-432.9477 1401.7517,-467.4883 1397.3145,-471.1692 1401.9475,-475.0843 1405.821,-476.1048 1411.3026,-474.5883 1409.5967,-517.8508 1411.5256,-593.4825 1395.5388,-598.6794 1394.9523,-598.9111 1374.0146,-607.6844 1362.6864,-613.2176 1358.5864,-615.3143 1268.9598,-543.8329 1257.2598,-475.3287 1254.4464,-463.036 1242.9705,-418.501 1238.0835,-416.7354 1228.7227,-413.5582 1227.606,-413.2039 1226.7836,-412.9609 1211.7716,-408.852 1207.5558,-407.9757 1196.7292,-405.9611 1197.1531,-283.8829 1201.9032,-285.1463 1206.5248,-283.8863 1211.1798,-279.8477 1210.8744,-279.4169 1207.5598,-276.8156 1207.5598,-276.8156 1210.8744,-279.4169 1211.1798,-279.8477 1206.5248,-283.8863 1201.9032,-285.1463 1197.1531,-283.8829 1196.7292,-405.9611 1188.5605,-404.6205 1187.8149,-341.5811 1185.876,-308.9223 1185.876,-308.9223 1187.8149,-341.5811 1188.5605,-404.6205 1175.7067,-403.3572 1164.9469,-402.5364 1074.0142,-399.6021 1069.0464,-325.7501 1068.3127,-305.8666 1066.7336,-282.7322 1066.2175,-277.5418 1065.2516,-251.3348 1062.3223,-207.7877 1157.5277,-156.4907 1168.4315,-150.3069 1195.8069,-98.9422 1197.1592,-98.0305 1217.9131,-90.7314 1276.9044,-86.5578 1296.793,-84.3018 1306.0742,-82.6588 1323.1096,-78.9183 1325.4045,-78.3666 1325.8257,-78.2565 1340.8225,-73.3771 1352.1233,-68.9763 1352.636,-68.7547 1367.778,-68.6838 1370.0048,-68.5919 1384.8026,-67.7096 1386.2819,-67.5944 1391.3071,-68.5203 1470.2744,-130.0377 1477.7267,-141.3918 1483.9207,-161.753 1485.9966,-174.0777 1495.885,-224.1124 1547.4229,-281.7661 1553.1989,-315.6927 1556.0939,-330.5827 1560.5178,-348.8372 1545.9532,-378.8352 1552.1062,-460.5396 1552.1062,-460.5396"/>
<polyline fill="none" stroke="#000000" points="754.2296,-502.0316 757.0189,-502.4793 769.9345,-505.0626 775.0042,-506.2755 785.1819,-508.911 901.9094,-442.4252 907.0854,-442.8279 921.9688,-444.2482 931.5273,-445.3279 945.2379,-447.3565 957.4267,-450.0132 962.7966,-448.9048 966.0331,-448.3491 1030.0004,-438.4696 1074.0142,-399.6021 1069.0464,-325.7501 1068.3127,-305.8666 1066.7336,-282.7322 1066.2175,-277.5418 1065.2516,-251.3348 1062.3223,-207.7877 1013.1973,-183.722 969.467,-176.8378 952.2122,-173.3065 944.6479,-171.4058 939.6748,-169.9232 936.2468,-170.9682 919.6779,-175.2435 844.7186,-189.2727 752.937,-114.6515 740.6282,-111.8591 722.1295,-106.908 710.0289,-103.1836 695.3711,-97.4872 691.1188,-95.7492 686.9547,-95.0082 684.4942,-94.5269 675.4459,-92.5972 670.1958,-91.3852 638.1547,-86.0739 562.0952,-153.5862 562.5234,-242.5662 562.2597,-248.1897 562.3347,-263.7034 562.5303,-270.0761 522.4368,-297.3587 508.9656,-304.9051 504.4079,-307.2701 495.6808,-311.4392 489.7376,-313.7853 477.534,-317.613 459.6855,-322.4701 446.7571,-365.6453 445.1498,-378.9622 445.0028,-383.87 444.6389,-386.9066 441.8893,-399.9018 434.935,-423.126 437.2169,-424.5103 443.6893,-428.0125 447.3113,-429.5023 459.4376,-433.7268 462.1411,-434.4879 481.1405,-437.3896 482.3092,-437.6446 491.5279,-440.2758 499.7544,-443.1618 501.312,-443.8067 507.2389,-447.0495 514.4126,-451.4626 525.0906,-458.74 525.1044,-458.7503 537.8741,-469.0708 566.2428,-490.0656 591.0992,-506.2238 607.444,-498.7029 633.4901,-481.2896 712.2144,-498.5421 723.1795,-498.7887 737.513,-499.6763 754.2296,-502.0316 "/>
<polyline fill="none" stroke="#000000" points="446.7571,-365.6453 445.1498,-378.9622 445.0028,-383.87 444.6389,-386.9066 441.8893,-399.9018 434.935,-423.126 437.2169,-424.5103 443.6893,-428.0125 447.3113,-429.5023 459.4376,-433.7268 462.1411,-434.4879 481.1405,-437.3896 482.3092,-437.6446 491.5279,-440.2758 499.7544,-443.1618 501.312,-443.8067 507.2389,-447.0495 514.4126,-451.4626 525.0906,-458.74 525.1044,-458.7503 537.8741,-469.0708 566.2428,-490.0656 591.0992,-506.2238 549.2382,-557.5225 519.2708,-582.4061 503.3407,-590.3624 468.4884,-595.0095 460.9948,-596.1847 453.5971,-597.5179 450.9668,-598.0533 441.7523,-600.3622 434.3455,-602.3918 428.8583,-604.0233 420.7573,-606.6199 413.7654,-609.3495 403.3915,-613.6433 396.8689,-616.4931 392.3946,-618.76 386.248,-616.4689 369.6891,-611.3519 274.0216,-583.8592 277.6738,-575.1685 316.0783,-492.8752 319.2349,-485.0295 324.4715,-469.4703 332.3025,-440.11 336.2246,-431.7056 301.0612,-385.0079 300.2911,-384.8301 293.1203,-383.8818 283.1721,-383.0585 278.1953,-383.1404 273.9463,-382.7763 272.6243,-382.7288 268.9413,-382.7784 265.3556,-383.1835 257.5046,-383.2661 256.1982,-383.2133 254.3996,-383.2294 253.35,-383.1856 250.7574,-383.3333 247.7334,-383.3516 238.7227,-382.9454 238.5161,-382.9255 235.1669,-382.9357 234.7143,-382.891 219.1983,-382.8923 152.9949,-372.7784 132.8641,-401.1953 123.0378,-404.5969 110.8454,-407.6187 108.3366,-408.1578 99.718,-409.7277 99.1503,-409.8124 98.4548,-409.8935 87.3304,-410.8279 80.3214,-411.1868 72.2622,-411.0711 68.9857,-411.2283 67.0097,-411.2584 66.7744,-411.2543 60.2756,-411.5455 45.6007,-412.6621 35.347,-414.3985 25.9121,-416.5836 -51.2697,-436.8427 -105.3505,-351.2067 -100.5675,-327.162 -100.3517,-325.9246 -91.0514,-252.0743 -33.6247,-212.6089 30.8166,-200.0752 31.5044,-199.927 40.9568,-197.4882 50.0551,-194.948 55.1775,-193.4104 68.9424,-188.699 70.3873,-188.1138 85.5066,-181.6662 103.803,-179.2861 139.9837,-127.5799 146.3271,-78.3508 148.0373,-54.4567 150.3151,-1.0432 179.5647,36.1865 227.6878,52.7487 245.9253,56.3272 256.7404,58.6893 264.8441,57.3905 268.3338,56.9065 284.552,55.6989 291.4156,55.3354 298.3151,55.2658 329.7139,56.9658 381.8178,96.0079 435.5231,101.6548 437.0508,101.8513 439.8275,101.1524 459.765,97.593 463.2099,97.2323 482.5221,95.6826 518.252,95.4527 577.1039,63.194 604.8632,14.7448 611.4695,3.8694 622.331,-36.3646 638.1547,-86.0739 562.0952,-153.5862 562.5234,-242.5662 562.2597,-248.1897 562.3347,-263.7034 562.5303,-270.0761 522.4368,-297.3587 508.9656,-304.9051 504.4079,-307.2701 495.6808,-311.4392 489.7376,-313.7853 477.534,-317.613 459.6855,-322.4701 446.7571,-365.6453 "/>
<polyline fill="none" stroke="#000000" points="267.1887,-584.7783 274.0216,-583.8592 277.6738,-575.1685 316.0783,-492.8752 319.2349,-485.0295 324.4715,-469.4703 332.3025,-440.11 336.2246,-431.7056 301.0612,-385.0079 300.2911,-384.8301 293.1203,-383.8818 283.1721,-383.0585 278.1953,-383.1404 273.9463,-382.7763 272.6243,-382.7288 268.9413,-382.7784 265.3556,-383.1835 257.5046,-383.2661 256.1982,-383.2133 254.3996,-383.2294 253.35,-383.1856 250.7574,-383.3333 247.7334,-383.3516 238.7227,-382.9454 238.5161,-382.9255 235.1669,-382.9357 234.7143,-382.891 219.1983,-382.8923 152.9949,-372.7784 132.8641,-401.1953 123.0378,-404.5969 110.8454,-407.6187 108.3366,-408.1578 99.718,-409.7277 99.1503,-409.8124 98.4548,-409.8935 87.3304,-410.8279 80.3214,-411.1868 72.2622,-411.0711 68.9857,-411.2283 67.0097,-411.2584 66.7744,-411.2543 60.2756,-411.5455 45.6007,-412.6621 35.347,-414.3985 25.9121,-416.5836 -51.2697,-436.8427 -55.6031,-479.9651 -55.787,-481.4295 -54.2666,-487.3198 -46.6308,-520.3046 -30.9908,-597.1764 44.6683,-615.7382 60.9277,-613.3467 80.6919,-610.903 82.6192,-610.7106 85.593,-610.5546 102.4717,-610.4662 109.1865,-610.5899 120.7661,-611.6242 133.0617,-613.5973 138.3059,-612.7571 233.7988,-601.9565 251.5607,-587.7489 267.1887,-584.7783 "/>
<polyline fill="none" stroke="#000000" points="1340.8225,-73.3771 1352.1233,-68.9763 1352.636,-68.7547 1367.778,-68.6838 1370.0048,-68.5919 1384.8026,-67.7096 1386.2819,-67.5944 1391.3071,-68.5203 1470.2744,-130.0377 1477.7267,-141.3918 1483.9207,-161.753 1485.9966,-174.0777 1495.885,-224.1124 1547.4229,-281.7661 1553.1989,-315.6927 1556.0939,-330.5827 1560.5178,-348.8372 1545.9532,-378.8352 1552.1062,-460.5396 1556.4858,-493.3205 1559.4496,-511.6273 1499.6906,-580.2521 1455.1222,-585.3591 1436.3788,-587.95 1426.802,-589.7207 1416.7992,-592.0364 1415.9417,-592.2548 1411.5256,-593.4825 1395.5388,-598.6794 1394.9523,-598.9111 1374.0146,-607.6844 1362.6864,-613.2176 1358.5864,-615.3143 1268.9598,-543.8329 1257.2598,-475.3287 1254.4464,-463.036 1242.9705,-418.501 1238.0835,-416.7354 1228.7227,-413.5582 1227.606,-413.2039 1226.7836,-412.9609 1211.7716,-408.852 1207.5558,-407.9757 1196.7292,-405.9611 1188.5605,-404.6205 1175.7067,-403.3572 1164.9469,-402.5364 1074.0142,-399.6021 1069.0464,-325.7501 1068.3127,-305.8666 1066.7336,-282.7322 1066.2175,-277.5418 1065.2516,-251.3348 1062.3223,-207.7877 1157.5277,-156.4907 1168.4315,-150.3069 1195.8069,-98.9422 1197.1592,-98.0305 1217.9131,-90.7314 1276.9044,-86.5578 1296.793,-84.3018 1306.0742,-82.6588 1323.1096,-78.9183 1325.4045,-78.3666 1325.8257,-78.2565 1340.8225,-73.3771 "/>
<!-- filesystem&#45;&gt;setup -->
<g id="edge1" class="edge">
<title>filesystem&#45;&gt;setup</title>
<path fill="none" stroke="#444444" stroke-opacity="0.333333" d="M794.7235,-350.9736C822.2091,-340.2367 857.2073,-326.5651 886.2126,-315.2346"/>
<polygon fill="#444444" fill-opacity="0.333333" stroke="#444444" stroke-opacity="0.333333" points="887.7589,-318.3882 895.7999,-311.4895 885.2118,-311.868 887.7589,-318.3882"/>
</g>
<!-- filesystem&#45;&gt;bash -->
<g id="edge2" class="edge">
<title>filesystem&#45;&gt;bash</title>
<path fill="none" stroke="#444444" stroke-opacity="0.333333" d="M691.143,-368.1967C652.2155,-370.2729 600.8166,-374.6437 561.5421,-379.2044"/>
<polygon fill="#444444" fill-opacity="0.333333" stroke="#444444" stroke-opacity="0.333333" points="561.0901,-375.7334 551.5775,-380.3983 561.9229,-382.6837 561.0901,-375.7334"/>
</g>
<!-- setup&#45;&gt;setup -->
<g id="edge3" class="edge">
<title>setup&#45;&gt;setup</title>
<path fill="none" stroke="#444444" stroke-opacity="0.333333" d="M996.2173,-299.8097C1006.7386,-299.0607 1014.21,-296.9108 1014.21,-293.36 1014.21,-291.0853 1011.1437,-289.3855 1006.1736,-288.2606"/>
<polygon fill="#444444" fill-opacity="0.333333" stroke="#444444" stroke-opacity="0.333333" points="1006.5969,-284.7861 996.2173,-286.9103 1005.6562,-291.7226 1006.5969,-284.7861"/>
</g>
<!-- setup&#45;&gt;fedora&#45;release -->
<g id="edge4" class="edge">
<title>setup&#45;&gt;fedora&#45;release</title>
<path fill="none" stroke="#444444" stroke-opacity="0.333333" d="M996.3751,-290.6173C1030.7244,-288.8779 1075.9326,-286.5887 1115.2195,-284.5993"/>
<polygon fill="#444444" fill-opacity="0.333333" stroke="#444444" stroke-opacity="0.333333" points="1115.5233,-288.0885 1125.3335,-284.0872 1115.1693,-281.0975 1115.5233,-288.0885"/>
</g>
<!-- bash&#45;&gt;filesystem -->
<g id="edge5" class="edge">
<title>bash&#45;&gt;filesystem</title>
<path fill="none" stroke="#444444" stroke-opacity="0.333333" d="M551.4403,-391.4765C588.5102,-389.7465 639.9751,-385.5485 680.983,-381.0095"/>
<polygon fill="#444444" fill-opacity="0.333333" stroke="#444444" stroke-opacity="0.333333" points="681.6286,-384.4587 691.1682,-379.8495 680.8364,-377.5037 681.6286,-384.4587"/>
</g>
<!-- bash&#45;&gt;bash -->
<g id="edge6" class="edge">
<title>bash&#45;&gt;bash</title>
<path fill="none" stroke="#444444" stroke-opacity="0.333333" d="M551.4741,-396.6621C561.8019,-395.9988 569.26,-393.8214 569.26,-390.13 569.26,-387.8229 566.3467,-386.1072 561.6403,-384.9829"/>
<polygon fill="#444444" fill-opacity="0.333333" stroke="#444444" stroke-opacity="0.333333" points="561.8551,-381.4799 551.4741,-383.5979 560.9101,-388.4158 561.8551,-381.4799"/>
</g>
<!-- bash&#45;&gt;glibc -->
<g id="edge7" class="edge">
<title>bash&#45;&gt;glibc</title>
<path fill="none" stroke="#444444" stroke-opacity="0.333333" d="M491.7289,-371.968C477.4543,-348.4656 452.4666,-307.3248 435.9975,-280.2094"/>
<polygon fill="#444444" fill-opacity="0.333333" stroke="#444444" stroke-opacity="0.333333" points="438.9494,-278.3272 430.7667,-271.5971 432.9665,-281.9611 438.9494,-278.3272"/>
</g>
<!-- bash&#45;&gt;ncurses&#45;libs -->
<g id="edge8" class="edge">
<title>bash&#45;&gt;ncurses&#45;libs</title>
<path fill="none" stroke="#444444" stroke-opacity="0.333333" d="M454.1353,-399.6485C417.9697,-406.7281 367.8519,-416.5388 326.0249,-424.7267"/>
<polygon fill="#444444" fill-opacity="0.333333" stroke="#444444" stroke-opacity="0.333333" points="325.2779,-421.3064 316.1366,-426.6624 326.6227,-428.176 325.2779,-421.3064"/>
</g>
<!-- fedora&#45;release&#45;&gt;fedora&#45;release&#45;common -->
<g id="edge21" class="edge">
<title>fedora&#45;release&#45;&gt;fedora&#45;release&#45;common</title>
<path fill="none" stroke="#444444" stroke-opacity="0.333333" d="M1261.8625,-262.0268C1278.3297,-253.368 1295.1027,-243.1473 1307.7568,-233.8428"/>
<polygon fill="#444444" fill-opacity="0.333333" stroke="#444444" stroke-opacity="0.333333" points="1310.0637,-236.4825 1315.8049,-227.5781 1305.7639,-230.9587 1310.0637,-236.4825"/>
</g>
<!-- glibc&#45;&gt;glibc -->
<g id="edge9" class="edge">
<title>glibc&#45;&gt;glibc</title>
<path fill="none" stroke="#444444" stroke-opacity="0.333333" d="M472.9472,-259.8097C483.3223,-259.0607 490.69,-256.9108 490.69,-253.36 490.69,-251.1408 487.812,-249.4687 483.1205,-248.344"/>
<polygon fill="#444444" fill-opacity="0.333333" stroke="#444444" stroke-opacity="0.333333" points="483.3378,-244.8401 472.9472,-246.9103 482.3609,-251.7716 483.3378,-244.8401"/>
</g>
<!-- glibc&#45;&gt;basesystem -->
<g id="edge10" class="edge">
<title>glibc&#45;&gt;basesystem</title>
<path fill="none" stroke="#444444" stroke-opacity="0.333333" d="M472.7759,-253.1546C518.808,-252.9764 585.8523,-252.717 636.7861,-252.5199"/>
<polygon fill="#444444" fill-opacity="0.333333" stroke="#444444" stroke-opacity="0.333333" points="637.0853,-256.0189 647.0716,-252.4801 637.0581,-249.0189 637.0853,-256.0189"/>
</g>
<!-- glibc&#45;&gt;glibc&#45;common -->
<g id="edge11" class="edge">
<title>glibc&#45;&gt;glibc&#45;common</title>
<path fill="none" stroke="#444444" stroke-opacity="0.333333" d="M366.5939,-271.404C344.6915,-281.0635 319.9361,-292.9535 300.4387,-303.2397"/>
<polygon fill="#444444" fill-opacity="0.333333" stroke="#444444" stroke-opacity="0.333333" points="298.7529,-300.1722 291.6031,-307.9909 302.0681,-306.3374 298.7529,-300.1722"/>
</g>
<!-- glibc&#45;&gt;glibc&#45;minimal&#45;langpack -->
<g id="edge12" class="edge">
<title>glibc&#45;&gt;glibc&#45;minimal&#45;langpack</title>
<path fill="none" stroke="#444444" stroke-opacity="0.333333" d="M415.794,-271.6898C412.1944,-311.5226 411.8479,-406.2135 414.857,-453.7985"/>
<polygon fill="#444444" fill-opacity="0.333333" stroke="#444444" stroke-opacity="0.333333" points="411.3848,-454.3017 415.6213,-464.0127 418.3653,-453.7793 411.3848,-454.3017"/>
</g>
<!-- glibc&#45;&gt;libgcc -->
<g id="edge13" class="edge">
<title>glibc&#45;&gt;libgcc</title>
<path fill="none" stroke="#444444" stroke-opacity="0.333333" d="M422.6847,-235.2825C429.4462,-194.4672 445.9349,-94.9351 454.0347,-46.0409"/>
<polygon fill="#444444" fill-opacity="0.333333" stroke="#444444" stroke-opacity="0.333333" points="457.4936,-46.5767 455.6751,-36.1391 450.5877,-45.4326 457.4936,-46.5767"/>
</g>
<!-- ncurses&#45;libs&#45;&gt;glibc -->
<g id="edge14" class="edge">
<title>ncurses&#45;libs&#45;&gt;glibc</title>
<path fill="none" stroke="#444444" stroke-opacity="0.333333" d="M264.2697,-421.8636C295.0921,-388.4465 360.6749,-317.3429 395.9921,-279.0528"/>
<polygon fill="#444444" fill-opacity="0.333333" stroke="#444444" stroke-opacity="0.333333" points="398.8384,-281.1292 403.0456,-271.4055 393.6929,-276.3832 398.8384,-281.1292"/>
</g>
<!-- ncurses&#45;libs&#45;&gt;ncurses&#45;libs -->
<g id="edge15" class="edge">
<title>ncurses&#45;libs&#45;&gt;ncurses&#45;libs</title>
<path fill="none" stroke="#444444" stroke-opacity="0.333333" d="M315.9653,-446.296C326.6534,-445.3712 333.94,-443.3092 333.94,-440.11 333.94,-438.0605 330.9496,-436.4777 325.9902,-435.3617"/>
<polygon fill="#444444" fill-opacity="0.333333" stroke="#444444" stroke-opacity="0.333333" points="326.3609,-431.8791 315.9653,-433.924 325.3672,-438.8082 326.3609,-431.8791"/>
</g>
<!-- ncurses&#45;libs&#45;&gt;ncurses&#45;base -->
<g id="edge16" class="edge">
<title>ncurses&#45;libs&#45;&gt;ncurses&#45;base</title>
<path fill="none" stroke="#444444" stroke-opacity="0.333333" d="M200.9883,-458.2014C187.6,-463.4157 172.8537,-469.1589 158.96,-474.57"/>
<polygon fill="#444444" fill-opacity="0.333333" stroke="#444444" stroke-opacity="0.333333" points="157.5527,-471.3619 149.5047,-478.2525 160.0931,-477.8847 157.5527,-471.3619"/>
</g>
<!-- basesystem&#45;&gt;filesystem -->
<g id="edge25" class="edge">
<title>basesystem&#45;&gt;filesystem</title>
<path fill="none" stroke="#444444" stroke-opacity="0.333333" d="M715.1514,-270.2464C721.484,-289.1521 731.5259,-319.1314 738.8934,-341.1268"/>
<polygon fill="#444444" fill-opacity="0.333333" stroke="#444444" stroke-opacity="0.333333" points="735.6723,-342.5301 742.1673,-350.9006 742.3098,-340.3067 735.6723,-342.5301"/>
</g>
<!-- basesystem&#45;&gt;setup -->
<g id="edge26" class="edge">
<title>basesystem&#45;&gt;setup</title>
<path fill="none" stroke="#444444" stroke-opacity="0.333333" d="M771.2776,-263.2054C804.2768,-269.0268 844.7748,-276.1712 878.0674,-282.0444"/>
<polygon fill="#444444" fill-opacity="0.333333" stroke="#444444" stroke-opacity="0.333333" points="877.696,-285.5329 888.152,-283.8235 878.9122,-278.6393 877.696,-285.5329"/>
</g>
<!-- glibc&#45;common&#45;&gt;bash -->
<g id="edge27" class="edge">
<title>glibc&#45;common&#45;&gt;bash</title>
<path fill="none" stroke="#444444" stroke-opacity="0.333333" d="M332.4803,-344.0919C367.6057,-353.5887 410.3057,-365.1334 444.159,-374.2862"/>
<polygon fill="#444444" fill-opacity="0.333333" stroke="#444444" stroke-opacity="0.333333" points="443.3429,-377.6912 453.9098,-376.9225 445.1699,-370.9338 443.3429,-377.6912"/>
</g>
<!-- glibc&#45;common&#45;&gt;glibc -->
<g id="edge28" class="edge">
<title>glibc&#45;common&#45;&gt;glibc</title>
<path fill="none" stroke="#444444" stroke-opacity="0.333333" d="M318.9561,-308.036C340.8585,-298.3765 365.6139,-286.4865 385.1113,-276.2003"/>
<polygon fill="#444444" fill-opacity="0.333333" stroke="#444444" stroke-opacity="0.333333" points="386.7971,-279.2678 393.9469,-271.4491 383.4819,-273.1026 386.7971,-279.2678"/>
</g>
<!-- glibc&#45;common&#45;&gt;libselinux -->
<g id="edge29" class="edge">
<title>glibc&#45;common&#45;&gt;libselinux</title>
<path fill="none" stroke="#444444" stroke-opacity="0.333333" d="M267.4624,-307.9563C269.2742,-287.4639 272.2474,-253.8358 274.3684,-229.8473"/>
<polygon fill="#444444" fill-opacity="0.333333" stroke="#444444" stroke-opacity="0.333333" points="277.8813,-229.855 275.2757,-219.5856 270.9085,-229.2385 277.8813,-229.855"/>
</g>
<!-- glibc&#45;common&#45;&gt;tzdata -->
<g id="edge30" class="edge">
<title>glibc&#45;common&#45;&gt;tzdata</title>
<path fill="none" stroke="#444444" stroke-opacity="0.333333" d="M189.8588,-326.1724C165.1776,-326.2024 138.091,-326.2353 114.5098,-326.264"/>
<polygon fill="#444444" fill-opacity="0.333333" stroke="#444444" stroke-opacity="0.333333" points="114.2861,-322.7642 104.2904,-326.2764 114.2947,-329.7642 114.2861,-322.7642"/>
</g>
<!-- glibc&#45;minimal&#45;langpack&#45;&gt;glibc -->
<g id="edge31" class="edge">
<title>glibc&#45;minimal&#45;langpack&#45;&gt;glibc</title>
<path fill="none" stroke="#444444" stroke-opacity="0.333333" d="M423.356,-463.7902C426.9556,-423.9574 427.3021,-329.2665 424.293,-281.6815"/>
<polygon fill="#444444" fill-opacity="0.333333" stroke="#444444" stroke-opacity="0.333333" points="427.7652,-281.1783 423.5287,-271.4673 420.7847,-281.7007 427.7652,-281.1783"/>
</g>
<!-- glibc&#45;minimal&#45;langpack&#45;&gt;glibc&#45;common -->
<g id="edge32" class="edge">
<title>glibc&#45;minimal&#45;langpack&#45;&gt;glibc&#45;common</title>
<path fill="none" stroke="#444444" stroke-opacity="0.333333" d="M401.5395,-463.9148C374.1391,-436.0791 321.749,-382.8568 290.6988,-351.3134"/>
<polygon fill="#444444" fill-opacity="0.333333" stroke="#444444" stroke-opacity="0.333333" points="293.1758,-348.8405 283.6663,-344.1692 288.1872,-353.7511 293.1758,-348.8405"/>
</g>
<!-- fedora&#45;release&#45;common&#45;&gt;fedora&#45;release -->
<g id="edge18" class="edge">
<title>fedora&#45;release&#45;common&#45;&gt;fedora&#45;release</title>
<path fill="none" stroke="#444444" stroke-opacity="0.333333" d="M1268.7375,-227.5732C1252.2703,-236.232 1235.4973,-246.4527 1222.8432,-255.7572"/>
<polygon fill="#444444" fill-opacity="0.333333" stroke="#444444" stroke-opacity="0.333333" points="1220.5363,-253.1175 1214.7951,-262.0219 1224.8361,-258.6413 1220.5363,-253.1175"/>
</g>
<!-- fedora&#45;release&#45;common&#45;&gt;fedora&#45;release -->
<g id="edge19" class="edge">
<title>fedora&#45;release&#45;common&#45;&gt;fedora&#45;release</title>
<path fill="none" stroke="#444444" stroke-dasharray="5,2" stroke-opacity="0.333333" d="M1296.2769,-227.449C1280.0826,-236.5199 1260.2832,-247.61 1243.025,-257.2768"/>
<polygon fill="#444444" fill-opacity="0.333333" stroke="#444444" stroke-opacity="0.333333" points="1241.2784,-254.2434 1234.2643,-262.1839 1244.6993,-260.3506 1241.2784,-254.2434"/>
</g>
<!-- fedora&#45;release&#45;common&#45;&gt;fedora&#45;release&#45;common -->
<g id="edge17" class="edge">
<title>fedora&#45;release&#45;common&#45;&gt;fedora&#45;release&#45;common</title>
<path fill="none" stroke="#444444" stroke-opacity="0.333333" d="M1436.9304,-214.9037C1447.6696,-213.801 1454.5,-211.9664 1454.5,-209.4 1454.5,-207.7559 1451.6968,-206.4121 1446.8585,-205.3687"/>
<polygon fill="#444444" fill-opacity="0.333333" stroke="#444444" stroke-opacity="0.333333" points="1447.3357,-201.9013 1436.9304,-203.8963 1446.3087,-208.8255 1447.3357,-201.9013"/>
</g>
<!-- fedora&#45;release&#45;common&#45;&gt;fedora&#45;repos -->
<g id="edge20" class="edge">
<title>fedora&#45;release&#45;common&#45;&gt;fedora&#45;repos</title>
<path fill="none" stroke="#444444" stroke-opacity="0.333333" d="M1338.3281,-227.5547C1348.6217,-246.5691 1364.9046,-276.6472 1376.7219,-298.4764"/>
<polygon fill="#444444" fill-opacity="0.333333" stroke="#444444" stroke-opacity="0.333333" points="1373.8022,-300.435 1381.6409,-307.5628 1379.9581,-297.1024 1373.8022,-300.435"/>
</g>
<!-- fedora&#45;repos&#45;&gt;fedora&#45;release -->
<g id="edge22" class="edge">
<title>fedora&#45;repos&#45;&gt;fedora&#45;release</title>
<path fill="none" stroke="#444444" stroke-opacity="0.333333" d="M1323.3258,-309.2673C1311.6496,-306.4676 1299.3862,-303.5271 1287.3287,-300.636"/>
<polygon fill="#444444" fill-opacity="0.333333" stroke="#444444" stroke-opacity="0.333333" points="1287.8068,-297.1515 1277.2663,-298.2232 1286.1746,-303.9585 1287.8068,-297.1515"/>
</g>
<!-- fedora&#45;repos&#45;&gt;fedora&#45;repos -->
<g id="edge23" class="edge">
<title>fedora&#45;repos&#45;&gt;fedora&#45;repos</title>
<path fill="none" stroke="#444444" stroke-opacity="0.333333" d="M1459.5292,-331.776C1470.1555,-330.8512 1477.4,-328.7892 1477.4,-325.59 1477.4,-323.5405 1474.4268,-321.9577 1469.4961,-320.8417"/>
<polygon fill="#444444" fill-opacity="0.333333" stroke="#444444" stroke-opacity="0.333333" points="1469.9265,-317.3676 1459.5292,-319.404 1468.9271,-324.2959 1469.9265,-317.3676"/>
</g>
<!-- fedora&#45;repos&#45;&gt;fedora&#45;gpg&#45;keys -->
<g id="edge24" class="edge">
<title>fedora&#45;repos&#45;&gt;fedora&#45;gpg&#45;keys</title>
<path fill="none" stroke="#444444" stroke-opacity="0.333333" d="M1393.2445,-343.7434C1395.7704,-368.6028 1400.3313,-413.491 1403.3122,-442.8287"/>
<polygon fill="#444444" fill-opacity="0.333333" stroke="#444444" stroke-opacity="0.333333" points="1399.8392,-443.2729 1404.3322,-452.8678 1406.8034,-442.5652 1399.8392,-443.2729"/>
</g>
<!-- libselinux&#45;&gt;glibc -->
<g id="edge33" class="edge">
<title>libselinux&#45;&gt;glibc</title>
<path fill="none" stroke="#444444" stroke-opacity="0.333333" d="M326.4272,-219.4534C337.2689,-223.395 348.8546,-227.6071 360.0441,-231.6751"/>
<polygon fill="#444444" fill-opacity="0.333333" stroke="#444444" stroke-opacity="0.333333" points="359.1526,-235.0751 369.7467,-235.2026 361.5444,-228.4964 359.1526,-235.0751"/>
</g>
<!-- libselinux&#45;&gt;libsepol -->
<g id="edge34" class="edge">
<title>libselinux&#45;&gt;libsepol</title>
<path fill="none" stroke="#444444" stroke-opacity="0.333333" d="M288.0462,-219.4928C306.4331,-249.2194 343.1769,-308.6244 364.6187,-343.2902"/>
<polygon fill="#444444" fill-opacity="0.333333" stroke="#444444" stroke-opacity="0.333333" points="361.7393,-345.2886 369.9764,-351.952 367.6926,-341.6063 361.7393,-345.2886"/>
</g>
<!-- libselinux&#45;&gt;pcre2 -->
<g id="edge35" class="edge">
<title>libselinux&#45;&gt;pcre2</title>
<path fill="none" stroke="#444444" stroke-opacity="0.333333" d="M277.2902,-183.21C277.7833,-161.2925 278.6165,-124.2625 279.1935,-98.6216"/>
<polygon fill="#444444" fill-opacity="0.333333" stroke="#444444" stroke-opacity="0.333333" points="282.6974,-98.4834 279.4233,-88.4072 275.6991,-98.3259 282.6974,-98.4834"/>
</g>
<!-- libsepol&#45;&gt;bash -->
<g id="edge36" class="edge">
<title>libsepol&#45;&gt;bash</title>
<path fill="none" stroke="#444444" stroke-opacity="0.333333" d="M442.3461,-380.1886C442.8338,-380.2688 443.3214,-380.3491 443.8089,-380.4293"/>
<polygon fill="#444444" fill-opacity="0.333333" stroke="#444444" stroke-opacity="0.333333" points="443.5446,-383.9328 453.9802,-382.1031 444.6813,-377.0257 443.5446,-383.9328"/>
</g>
<!-- libsepol&#45;&gt;glibc -->
<g id="edge37" class="edge">
<title>libsepol&#45;&gt;glibc</title>
<path fill="none" stroke="#444444" stroke-opacity="0.333333" d="M387.2309,-351.8847C393.4701,-332.9468 403.3069,-303.0884 410.5177,-281.2012"/>
<polygon fill="#444444" fill-opacity="0.333333" stroke="#444444" stroke-opacity="0.333333" points="413.9164,-282.0702 413.7213,-271.4772 407.2679,-279.8798 413.9164,-282.0702"/>
</g>
<!-- pcre2&#45;&gt;glibc -->
<g id="edge38" class="edge">
<title>pcre2&#45;&gt;glibc</title>
<path fill="none" stroke="#444444" stroke-opacity="0.333333" d="M293.7516,-88.5506C318.675,-121.1666 370.9908,-189.6297 399.7305,-227.24"/>
<polygon fill="#444444" fill-opacity="0.333333" stroke="#444444" stroke-opacity="0.333333" points="396.9719,-229.3945 405.8247,-235.2151 402.534,-225.1443 396.9719,-229.3945"/>
</g>
<!-- pcre2&#45;&gt;pcre2 -->
<g id="edge39" class="edge">
<title>pcre2&#45;&gt;pcre2</title>
<path fill="none" stroke="#444444" stroke-opacity="0.333333" d="M334.9033,-76.759C345.4041,-75.99 352.83,-73.8476 352.83,-70.332 352.83,-68.0798 349.7824,-66.3912 344.8311,-65.2662"/>
<polygon fill="#444444" fill-opacity="0.333333" stroke="#444444" stroke-opacity="0.333333" points="345.2861,-61.7959 334.9033,-63.905 344.3351,-68.731 345.2861,-61.7959"/>
</g>
<!-- filesystem -->
<g id="node1" class="node">
<title>filesystem</title>
<text text-anchor="middle" x="748.27" y="-365.42" font-family="Helvetica,sans-Serif" font-weight="bold" font-size="14.00" fill="#000000">filesystem (0.0 B)</text>
</g>
<!-- setup -->
<g id="node2" class="node">
<title>setup</title>
<text text-anchor="middle" x="942.21" y="-289.66" font-family="Helvetica,sans-Serif" font-weight="bold" font-size="14.00" fill="#000000">setup (709.7 kB)</text>
</g>
<!-- bash -->
<g id="node3" class="node">
<title>bash</title>
<text text-anchor="middle" x="502.76" y="-386.43" font-family="Helvetica,sans-Serif" font-weight="bold" font-size="14.00" fill="#000000">bash (7.2 MB)</text>
</g>
<!-- fedora&#45;release -->
<g id="node4" class="node">
<title>fedora&#45;release</title>
<text text-anchor="middle" x="1202.1" y="-276.5" font-family="Helvetica,sans-Serif" font-weight="bold" font-size="14.00" fill="#000000">fedora&#45;release (691.0 B)</text>
</g>
<!-- glibc -->
<g id="node5" class="node">
<title>glibc</title>
<text text-anchor="middle" x="419.69" y="-249.66" font-family="Helvetica,sans-Serif" font-weight="bold" font-size="14.00" fill="#000000">glibc (16.5 MB)</text>
</g>
<!-- ncurses&#45;libs -->
<g id="node6" class="node">
<title>ncurses&#45;libs</title>
<text text-anchor="middle" x="247.44" y="-436.41" font-family="Helvetica,sans-Serif" font-weight="bold" font-size="14.00" fill="#000000">ncurses&#45;libs (1.0 MB)</text>
</g>
<!-- basesystem -->
<g id="node7" class="node">
<title>basesystem</title>
<text text-anchor="middle" x="709.12" y="-248.54" font-family="Helvetica,sans-Serif" font-weight="bold" font-size="14.00" fill="#000000">basesystem (0.0 B)</text>
</g>
<!-- glibc&#45;common -->
<g id="node8" class="node">
<title>glibc&#45;common</title>
<text text-anchor="middle" x="265.86" y="-322.38" font-family="Helvetica,sans-Serif" font-weight="bold" font-size="14.00" fill="#000000">glibc&#45;common (2.6 MB)</text>
</g>
<!-- glibc&#45;minimal&#45;langpack -->
<g id="node9" class="node">
<title>glibc&#45;minimal&#45;langpack</title>
<text text-anchor="middle" x="419.46" y="-478.42" font-family="Helvetica,sans-Serif" font-weight="bold" font-size="14.00" fill="#000000">glibc&#45;minimal&#45;langpack (0.0 B)</text>
</g>
<!-- libgcc -->
<g id="node10" class="node">
<title>libgcc</title>
<text text-anchor="middle" x="458.68" y="-14.3" font-family="Helvetica,sans-Serif" font-weight="bold" font-size="14.00" fill="#000000">libgcc (190.3 kB)</text>
</g>
<!-- ncurses&#45;base -->
<g id="node11" class="node">
<title>ncurses&#45;base</title>
<text text-anchor="middle" x="103.14" y="-492.61" font-family="Helvetica,sans-Serif" font-weight="bold" font-size="14.00" fill="#000000">ncurses&#45;base (275.1 kB)</text>
</g>
<!-- fedora&#45;release&#45;common -->
<g id="node12" class="node">
<title>fedora&#45;release&#45;common</title>
<text text-anchor="middle" x="1328.5" y="-205.7" font-family="Helvetica,sans-Serif" font-weight="bold" font-size="14.00" fill="#000000">fedora&#45;release&#45;common (14.0 kB)</text>
</g>
<!-- fedora&#45;repos -->
<g id="node13" class="node">
<title>fedora&#45;repos</title>
<text text-anchor="middle" x="1391.4" y="-321.89" font-family="Helvetica,sans-Serif" font-weight="bold" font-size="14.00" fill="#000000">fedora&#45;repos (8.6 kB)</text>
</g>
<!-- fedora&#45;gpg&#45;keys -->
<g id="node14" class="node">
<title>fedora&#45;gpg&#45;keys</title>
<text text-anchor="middle" x="1406.2" y="-467.55" font-family="Helvetica,sans-Serif" font-weight="bold" font-size="14.00" fill="#000000">fedora&#45;gpg&#45;keys (101.4 kB)</text>
</g>
<!-- libselinux -->
<g id="node15" class="node">
<title>libselinux</title>
<text text-anchor="middle" x="276.88" y="-197.74" font-family="Helvetica,sans-Serif" font-weight="bold" font-size="14.00" fill="#000000">libselinux (185.3 kB)</text>
</g>
<!-- tzdata -->
<g id="node16" class="node">
<title>tzdata</title>
<text text-anchor="middle" x="52" y="-322.64" font-family="Helvetica,sans-Serif" font-weight="bold" font-size="14.00" fill="#000000">tzdata (1.8 MB)</text>
</g>
<!-- libsepol -->
<g id="node17" class="node">
<title>libsepol</title>
<text text-anchor="middle" x="381.22" y="-366.43" font-family="Helvetica,sans-Serif" font-weight="bold" font-size="14.00" fill="#000000">libsepol (756.0 kB)</text>
</g>
<!-- pcre2 -->
<g id="node18" class="node">
<title>pcre2</title>
<text text-anchor="middle" x="279.83" y="-66.632" font-family="Helvetica,sans-Serif" font-weight="bold" font-size="14.00" fill="#000000">pcre2 (715.2 kB)</text>
</g>
</g>

<script type="text/javascript"><![CDATA[

document.addEventListener('click', function(e) {
      e = e || window.event;
      var target = e.target || e.srcElement;
      text = target.parentElement.querySelector("title").textContent;

      console.log("Clicked on: " + text);
      // reset all strokes
      var nodes = document.getElementsByClassName("edge");

      for (index = 0, len = nodes.length; index < len; ++index) {
          //var title = nodes[index].querySelector("title").textContent.split("->");
          id = nodes[index].id;
          document.getElementById(id).querySelector("path").setAttribute("stroke-width", "1");
          document.getElementById(id).querySelector("path").setAttribute("stroke-opacity", "0.5");
          document.getElementById(id).querySelector("path").setAttribute("stroke", "#444444");
          document.getElementById(id).querySelector("polygon").setAttribute("stroke-width", "1");
          document.getElementById(id).querySelector("polygon").setAttribute("stroke-opacity", "0.5");
          document.getElementById(id).querySelector("polygon").setAttribute("stroke", "#444444");
      }
      // reset text highlight
      pkgs = document.getElementsByClassName("node");
      for (index2 = 0, len2 = pkgs.length; index2 < len2; ++index2) {
          target_id = pkgs[index2].id;
          document.getElementById(target_id).querySelector("text").setAttribute("font-weight", "normal");
      }

      // highlight deps
      var nodes = document.getElementsByClassName("edge");
      for (index = 0, len = nodes.length; index < len; ++index) {
        var title = nodes[index].querySelector("title").textContent.split("->");

        if (title[0] == text) {
          id = nodes[index].id;
          //console.log("ID:   " + id);
          document.getElementById(id).querySelector("path").setAttribute("stroke-width", "3");
          document.getElementById(id).querySelector("path").setAttribute("stroke-opacity", "1");
          document.getElementById(id).querySelector("path").setAttribute("stroke", "#aa3333");
          document.getElementById(id).querySelector("polygon").setAttribute("stroke-width", "5");
          document.getElementById(id).querySelector("polygon").setAttribute("stroke-opacity", "1");
          document.getElementById(id).querySelector("polygon").setAttribute("stroke", "#aa3333");

        }
        if (title[1] == text) {
          id = nodes[index].id;
          document.getElementById(id).querySelector("path").setAttribute("stroke-width", "3");
          document.getElementById(id).querySelector("path").setAttribute("stroke-opacity", "1");
          document.getElementById(id).querySelector("path").setAttribute("stroke", "#333377");
          document.getElementById(id).querySelector("polygon").setAttribute("stroke-width", "5");
          document.getElementById(id).querySelector("polygon").setAttribute("stroke-opacity", "1");
          document.getElementById(id).querySelector("polygon").setAttribute("stroke", "#333377");
        }

        if (title[0] == text || title[1] == text) {
          pkgs = document.getElementsByClassName("node");
          for (index2 = 0, len2 = pkgs.length; index2 < len2; ++index2) {
            var pkg_name = pkgs[index2].querySelector("title").textContent;
            if (pkg_name == title[0] || pkg_name == title[1]) {
              target_id = pkgs[index2].id;
              document.getElementById(target_id).querySelector("text").setAttribute("font-weight", "bold");
            }
          }
        }
      }


  }, false);

]]></script>


  <text
     id="text7664"
     y="19.384439"
     x="9.9055691"
     style="font-style:normal;font-weight:normal;font-size:12.49485588px;line-height:125%;font-family:sans-serif;letter-spacing:0px;word-spacing:0px;fill:#000000;fill-opacity:1;stroke:none;stroke-width:0.3123714px;stroke-linecap:butt;stroke-linejoin:miter;stroke-opacity:1"
     xml:space="preserve"><tspan
       style="font-size:12.00258541px;stroke-width:0.3123714px"
       y="19.384439"
       x="9.9055691"
       id="tspan7666"><a href="report-use-case-definition--freeipa-trust-controller--31.html"><tspan
   style="font-weight:bold;font-size:12.00258541px;fill:#0066ff;stroke-width:0.3123714px"
   id="tspan7668">FreeIPA Trust Controller</tspan></a> on <a href="report-base-definition--minimal-langpack-base--31.html"><tspan
   style="font-weight:bold;font-size:12.00258541px;fill:#0066ff;stroke-width:0.3123714px"
   id="tspan7676">Minimal Base</tspan></a> (Fedora 31)</tspan></text>
  <text
     xml:space="preserve"
     style="font-style:normal;font-weight:normal;font-size:11.85299969px;line-height:125%;font-family:sans-serif;letter-spacing:0px;word-spacing:0px;fill:#000000;fill-opacity:1;stroke:none;stroke-width:0.296325px;stroke-linecap:butt;stroke-linejoin:miter;stroke-opacity:1"
     x="9.9365959"
     y="58.520042"
     id="text8235"><tspan
       id="tspan8237"
       x="9.9365959"
       y="58.520042"
       style="stroke-width:0.296325px;font-size:10.80232704px;fill:#666666">Generated by <a href="./"><tspan
   style="fill:#3771c8"
   id="tspan8255">Feedback Pipeline</tspan></a></tspan></text>
  <text
     xml:space="preserve"
     style="font-style:normal;font-weight:normal;font-size:12.49485588px;line-height:125%;font-family:sans-serif;letter-spacing:0px;word-spacing:0px;fill:#000000;fill-opacity:1;stroke:none;stroke-width:0.3123714px;stroke-linecap:butt;stroke-linejoin:miter;stroke-opacity:1"
     x="9.9055691"
     y="38.974205"
     id="text8245"><a href="graph-simple--freeipa-trust-controller--minimal-langpack-base--31.svg"><tspan
       id="tspan8247"
       x="9.9055691"
       y="38.974205"
       style="font-weight:normal;font-size:12.00258541px;fill:#0066ff;stroke-width:0.3123714px">Collapse base image</tspan></a></text>

</svg>
