<?xml version="1.0" encoding="UTF-8" standalone="no"?>
<!DOCTYPE svg PUBLIC "-//W3C//DTD SVG 1.1//EN"
 "http://www.w3.org/Graphics/SVG/1.1/DTD/svg11.dtd">
<!-- Generated by graphviz version 2.40.1 (0)
 -->
<!-- Title: packages Pages: 1 -->
<svg width="1506pt" height="1114pt"
 viewBox="0.00 0.00 1807.75 1337.28" xmlns="http://www.w3.org/2000/svg" xmlns:xlink="http://www.w3.org/1999/xlink">
<g id="graph0" class="graph" transform="scale(.8333 .8333) rotate(0) translate(127.3565 1209.1891)">
<title>packages</title>
<polygon fill="#dae2ff" stroke="transparent" points="-127.3565,128.0946 -127.3565,-1209.1891 1680.3894,-1209.1891 1680.3894,128.0946 -127.3565,128.0946"/>
<polygon fill="#d8d6da" stroke="#d8d6da" points="-123.3565,-691.3422 -122.9974,-698.3556 -122.6922,-724.2339 -73.6613,-802.1383 33.4535,-835.5555 37.1342,-836.7787 49.2598,-841.3081 49.4051,-841.3654 64.3605,-847.5668 74.6377,-901.0955 75.2488,-905.2393 77.3782,-914.3148 86.8055,-934.8779 125.045,-1023.7992 182.9724,-1067.161 216.3643,-1076.5898 217.6162,-1076.9882 229.992,-1081.1509 239.6838,-1084.5845 251.9984,-1089.3864 252.3662,-1088.9164 246.3096,-913.1678 250.2993,-913.1678 250.4976,-913.3855 256.8457,-917.1689 261.9153,-917.1689 267.8924,-913.6559 268.6086,-912.8674 267.101,-911.2084 262.1288,-908.443 262.1288,-908.443 267.101,-911.2084 268.6086,-912.8674 267.8924,-913.6559 261.9153,-917.1689 256.8457,-917.1689 256.3499,-954.0069 259.4406,-1001.3359 259.5504,-1080.0184 276.0749,-1062.0491 275.2095,-980.9915 275.2095,-980.9915 276.0749,-1062.0491 286.4973,-1051.5098 285.2966,-962.6142 287.7314,-912.6478 291.5008,-912.6478 292.0985,-912.8173 294.8782,-912.8173 296.8842,-911.4211 299.814,-874.0349 299.5774,-835.4587 335.1999,-842.8245 351.0411,-847.4202 355.3193,-849.0099 355.5834,-849.1189 367.8286,-854.6982 368.4678,-814.5044 366.1222,-769.0438 372.1107,-770.8246 376.9085,-769.4653 380.835,-766.0656 377.05,-762.6201 371.8642,-761.054 371.8642,-761.054 377.05,-762.6201 380.835,-766.0656 381.4196,-766.0656 386.4918,-809.9172 387.21,-827.916 394.0917,-765.9598 398.2992,-765.9598 398.396,-765.9877 398.396,-765.9877 398.2992,-765.9598 394.0917,-765.9598 387.21,-827.916 386.4918,-809.9172 381.4196,-766.0656 380.835,-766.0656 376.9085,-769.4653 372.1107,-770.8246 366.1222,-769.0438 368.4678,-814.5044 367.8286,-854.6982 355.5834,-849.1189 355.3193,-849.0099 351.0411,-847.4202 335.1999,-842.8245 299.5774,-835.4587 299.814,-874.0349 296.8842,-911.4211 294.8782,-912.8173 292.0985,-912.8173 295.08,-1010.4827 295.08,-1010.4827 292.0985,-912.8173 291.5008,-912.6478 287.7314,-912.6478 285.2966,-962.6142 286.4973,-1051.5098 276.0749,-1062.0491 259.5504,-1080.0184 259.4406,-1001.3359 256.3499,-954.0069 256.8457,-917.1689 250.4976,-913.3855 250.2993,-913.1678 246.3096,-913.1678 252.3662,-1088.9164 251.9984,-1089.3864 270.0531,-1123.4277 312.9193,-1187.7593 366.745,-1205.1891 422.8691,-1194.946 423.5058,-1194.842 436.2045,-1193.2542 436.6426,-1083.1599 440.0245,-1049.9121 444.13,-1052.2427 449.7747,-1052.2427 454.5166,-1049.4635 456.0457,-1047.624 455.1432,-1046.6038 449.5011,-1043.3402 444.7844,-1043.3402 444.7844,-1043.3402 449.5011,-1043.3402 455.1432,-1046.6038 456.0457,-1047.624 454.5166,-1049.4635 456.6208,-1097.4076 460.7417,-1047.7183 460.4138,-1047.624 456.9767,-973.6262 461.3485,-973.3489 460.6215,-943.5211 460.6215,-943.5211 461.3485,-973.3489 456.9767,-973.6262 460.4138,-1047.624 460.7417,-1047.7183 456.6208,-1097.4076 454.5166,-1049.4635 449.7747,-1052.2427 444.13,-1052.2427 440.0245,-1049.9121 436.6426,-1083.1599 436.2045,-1193.2542 450.8172,-1191.9869 454.7781,-1191.7955 458.2102,-1191.7612 476.6226,-1191.9296 492.183,-1192.6682 593.4724,-1126.5979 623.7485,-1092.0034 637.1428,-1071.0492 624.7399,-1055.0494 610.0677,-1034.4323 588.0461,-1001.9476 590.8228,-923.9124 591.7844,-911.6185 592.1698,-900.9138 591.4954,-887.0104 592.4853,-859.1902 585.682,-854.8604 571.2495,-847.0794 565.191,-844.4183 558.762,-841.9099 556.0561,-840.9877 540.6152,-837.2125 535.0842,-836.1359 531.7455,-835.6515 520.4689,-835.1204 518.3758,-834.9182 511.4175,-834.9327 503.7746,-834.5721 497.8658,-834.0031 497.1263,-833.8958 489.4621,-832.4045 484.7236,-831.2497 477.5604,-829.1508 470.8594,-826.86 460.5814,-822.3348 462.0939,-791.5234 461.8405,-765.84 462.7281,-760.6048 468.3945,-645.1713 470.2609,-644.8044 486.1192,-642.3738 503.5616,-641.2145 506.6413,-641.0768 507.6013,-641.0121 521.0544,-640.6922 523.207,-640.7347 527.9662,-640.7216 533.4449,-640.9448 540.5568,-640.9146 544.8058,-640.9888 548.5733,-640.8856 551.0449,-640.9786 555.0653,-641.0399 555.7799,-641.0817 556.0209,-641.0905 570.0134,-624.5516 579.7919,-614.1086 582.7953,-610.6875 592.4037,-600.9465 597.0111,-596.8463 604.6259,-588.9151 665.6859,-529.9911 677.0125,-520.0671 689.144,-507.8354 690.3625,-506.5306 697.2874,-498.1749 707.4999,-487.3399 714.6509,-478.9753 726.9497,-463.2087 714.359,-454.3781 707.1246,-449.9789 691.5707,-440.9969 598.0704,-392.9512 593.8492,-390.6522 572.6178,-377.0594 560.3409,-368.0586 558.3188,-368.0419 557.6809,-369.6017 555.8115,-373.9258 545.3413,-395.6524 544.1954,-397.8874 527.8141,-426.2162 518.753,-439.6389 508.8383,-451.9456 499.9254,-460.8943 496.1476,-465.2912 495.6174,-465.8256 492.8051,-468.2787 490.4914,-469.9991 485.1875,-475.7865 476.8184,-483.2415 467.6829,-487.6365 455.127,-491.0385 453.202,-491.9415 443.8698,-498.3823 441.4135,-500.5519 437.8355,-504.4795 437.2955,-504.9595 428.5656,-514.312 425.5869,-516.6323 417.6878,-524.6709 413.7177,-529.1844 410.1382,-533.6937 396.6311,-552.4421 385.7445,-571.5007 310.323,-535.5704 296.7348,-528.165 290.4496,-524.3149 287.5644,-506.0013 282.2556,-477.7977 279.6213,-461.1024 273.7466,-429.5924 273.5162,-428.5138 177.0057,-431.1223 175.9469,-431.1122 174.4452,-431.043 172.7695,-431.0272 167.1486,-431.1814 159.6922,-431.1122 158.2921,-431.1507 157.6712,-431.1906 153.3345,-431.1516 151.431,-431.0648 146.3154,-431.0194 146.0492,-431.0367 145.9441,-506.6898 151.0117,-508.1248 155.0156,-511.5851 151.2888,-514.8747 145.5818,-516.5731 140.5392,-515.1481 143.2926,-604.9109 136.1273,-602.5932 124.348,-599.1965 124.1778,-599.1595 110.0901,-596.5865 93.619,-594.1623 86.9064,-673.941 168.2684,-650.6599 169.3184,-656.2636 252.0388,-649.127 256.5959,-644.7702 260.2829,-683.527 263.3709,-643.3539 268.1238,-643.3539 268.794,-643.5514 272.0728,-643.5514 272.9154,-644.5052 278.5965,-647.8408 283.9983,-647.8408 290.517,-643.7979 290.8064,-643.4622 294.2006,-643.4622 294.2006,-643.4622 290.8064,-643.4622 290.517,-643.7979 283.9983,-647.8408 278.5965,-647.8408 272.9154,-644.5052 272.0728,-643.5514 268.794,-643.5514 268.1238,-643.3539 263.3709,-643.3539 260.2829,-683.527 256.5959,-644.7702 252.0388,-649.127 169.3184,-656.2636 168.2684,-650.6599 86.9064,-673.941 93.619,-594.1623 110.0901,-596.5865 124.1778,-599.1595 124.348,-599.1965 136.1273,-602.5932 143.2926,-604.9109 140.5392,-515.1481 145.5818,-516.5731 151.2888,-514.8747 155.0156,-511.5851 151.0117,-508.1248 145.9441,-506.6898 140.5182,-508.225 136.8484,-511.2809 132.6453,-484.6696 129.1229,-511.3245 124.7532,-511.3245 124.2692,-511.465 121.6964,-511.465 121.6917,-511.4687 121.6917,-511.4687 121.6964,-511.465 124.2692,-511.465 124.7532,-511.3245 129.1229,-511.3245 132.6453,-484.6696 136.8484,-511.2809 140.5182,-508.225 145.9441,-506.6898 146.0492,-431.0367 143.1546,-431.118 137.1834,-431.0666 131.9558,-431.2144 130.3871,-431.1435 127.1881,-431.1168 124.7445,-431.0067 116.1977,-430.9366 115.0235,-430.9702 114.1325,-431.0284 116.2532,-480.7237 116.2532,-480.7237 114.1325,-431.0284 114.059,-431.0278 103.76,-431.3244 -37.3743,-440.5615 -55.6613,-467.1895 -47.6039,-511.68 -45.1669,-531.4225 -99.6414,-644.7921 -123.3565,-691.3422 -123.3565,-691.3422"/>
<polygon fill="#fed9a6" stroke="#fed9a6" points="927.9241,-515.7075 935.5328,-515.471 939.6315,-515.4973 949.5023,-514.8077 949.8805,-514.7669 963.3256,-512.286 974.6039,-509.3425 976.3281,-508.8275 981.1885,-507.1901 1029.9318,-488.9037 1012.7816,-462.3873 997.7611,-437.099 989.4565,-421.4692 972.4777,-384.8621 964.5468,-369.8102 951.4671,-349.5873 965.6203,-319.7556 992.2617,-268.8392 942.5113,-276.9587 885.4891,-283.0002 879.9565,-288.6464 882.8629,-290.1086 885.6233,-293.644 882.1318,-337.1678 881.744,-363.3466 878.6502,-363.4694 874.4141,-288.5972 871.0285,-288.5972 865.8974,-253.3399 860.4642,-138.6328 857.892,-236.4863 853.8083,-283.8681 849.0261,-285.2255 845.0477,-288.6333 848.9745,-292.0546 854.1068,-293.5441 854.1068,-293.5441 848.9745,-292.0546 845.0477,-288.6333 843.6291,-288.6333 843.499,-288.6705 838.7236,-288.6705 838.4595,-288.7459 834.4633,-288.7459 829.4624,-329.8539 827.9662,-291.3751 822.8787,-295.0496 805.5718,-292.0274 775.7647,-292.6707 771.4765,-280.6035 736.3826,-198.25 732.8259,-286.256 732.8259,-286.256 736.3826,-198.25 771.4765,-280.6035 775.7647,-292.6707 805.5718,-292.0274 822.8787,-295.0496 827.9662,-291.3751 829.4624,-329.8539 834.4633,-288.7459 838.4595,-288.7459 838.7236,-288.6705 843.499,-288.6705 843.6291,-288.6333 845.0477,-288.6333 849.0261,-285.2255 853.8083,-283.8681 857.892,-236.4863 860.4642,-138.6328 865.8974,-253.3399 871.0285,-288.5972 874.4141,-288.5972 878.6502,-363.4694 881.744,-363.3466 882.1318,-337.1678 885.6233,-293.644 882.8629,-290.1086 879.9565,-288.6464 885.4891,-283.0002 942.5113,-276.9587 992.2617,-268.8392 1028.052,-209.1376 914.9225,-125.6136 884.377,-117.9287 883.0035,-117.5359 876.9813,-115.7085 860.3427,-127.1097 847.4656,-134.7011 846.1028,-135.472 836.4379,-140.7113 830.3309,-143.8755 821.463,-148.0485 740.1762,-184.3596 736.0633,-197.3956 721.1721,-213.5241 709.0036,-225.4 707.9442,-226.6653 695.3568,-239.2222 688.1505,-245.9267 620.9615,-303.8209 619.0675,-305.3123 611.4409,-311.7804 604.9629,-317.6567 599.5781,-322.8541 596.9866,-325.5052 590.1445,-332.9123 585.946,-338.2411 569.7513,-356.4992 560.3409,-368.0586 572.6178,-377.0594 593.8492,-390.6522 598.0704,-392.9512 691.5707,-440.9969 707.1246,-449.9789 702.2809,-324.3065 704.0256,-324.3065 707.5674,-327.3857 713.0679,-329.0363 713.0679,-329.0363 707.5674,-327.3857 704.0256,-324.3065 702.2809,-324.3065 707.1246,-449.9789 714.359,-454.3781 726.9497,-463.2087 714.6509,-478.9753 707.4999,-487.3399 705.5619,-549.3513 701.2117,-597.7347 697.4133,-599.79 695.0392,-602.5615 695.5951,-603.1662 701.9844,-606.866 706.4324,-606.866 709.2633,-644.902 709.2384,-658.3773 700.5008,-667.98 722.8978,-667.98 759.1559,-674.3745 763.399,-671.6126 765.3807,-668.3181 765.3807,-668.3181 763.399,-671.6126 759.1559,-674.3745 722.8978,-667.98 700.5008,-667.98 709.2384,-658.3773 709.2633,-644.902 706.4324,-606.866 701.9844,-606.866 695.5951,-603.1662 695.0392,-602.5615 697.4133,-599.79 701.2117,-597.7347 705.5619,-549.3513 707.4999,-487.3399 697.2874,-498.1749 690.3625,-506.5306 689.144,-507.8354 677.0125,-520.0671 678.0146,-566.9089 678.0146,-566.9089 677.0125,-520.0671 665.6859,-529.9911 604.6259,-588.9151 597.0111,-596.8463 592.4037,-600.9465 582.7953,-610.6875 579.7919,-614.1086 570.0134,-624.5516 556.0209,-641.0905 555.7799,-641.0817 555.0653,-641.0399 551.0449,-640.9786 548.5733,-640.8856 544.8058,-640.9888 540.5568,-640.9146 533.4449,-640.9448 527.9662,-640.7216 523.207,-640.7347 521.0544,-640.6922 507.6013,-641.0121 506.6413,-641.0768 503.5616,-641.2145 486.1192,-642.3738 470.2609,-644.8044 468.3945,-645.1713 462.7281,-760.6048 461.8405,-765.84 462.0939,-791.5234 460.5814,-822.3348 470.8594,-826.86 477.5604,-829.1508 484.7236,-831.2497 489.4621,-832.4045 497.1263,-833.8958 497.8658,-834.0031 503.7746,-834.5721 511.4175,-834.9327 518.3758,-834.9182 520.4689,-835.1204 531.7455,-835.6515 535.0842,-836.1359 540.6152,-837.2125 556.0561,-840.9877 558.762,-841.9099 565.191,-844.4183 571.2495,-847.0794 572.3085,-815.9155 570.4615,-770.8033 570.4615,-770.8033 572.3085,-815.9155 571.2495,-847.0794 585.682,-854.8604 592.4853,-859.1902 591.4954,-887.0104 592.1698,-900.9138 591.7844,-911.6185 590.8228,-923.9124 588.0461,-1001.9476 610.0677,-1034.4323 624.7399,-1055.0494 637.1428,-1071.0492 663.3445,-1066.2976 674.3738,-1064.6759 683.9,-1063.4392 685.46,-1063.2637 700.3318,-1062.1023 700.2307,-1052.3845 701.3747,-909.5072 696.0719,-908.0593 692.6415,-905.2928 692.3433,-904.8483 692.3433,-904.8483 692.6415,-905.2928 696.0719,-908.0593 701.3747,-909.5072 706.074,-908.2297 713.9846,-1026.243 714.6451,-998.2476 714.6451,-998.2476 713.9846,-1026.243 706.074,-908.2297 701.3747,-909.5072 700.2307,-1052.3845 700.3318,-1062.1023 713.9515,-1061.509 728.9504,-1061.8907 749.6232,-1063.1304 777.7307,-1065.2976 825.7749,-1052.1781 939.7405,-1148.7461 986.7708,-1163.9304 987.1587,-1163.9142 989.8003,-1078.5143 988.8249,-1018.5065 926.1887,-1022.7886 833.8264,-1033.8307 856.5706,-975.8769 867.5023,-945.9957 867.8162,-945.7982 869.6459,-810.3244 866.0519,-806.2009 864.5496,-805.4616 861.9536,-862.6669 858.1663,-805.2804 852.8853,-805.2804 851.9173,-804.9877 849.2004,-804.9877 847.658,-805.4529 843.5187,-805.4529 841.5711,-803.0237 837.6854,-800.7773 837.6854,-800.7773 841.5711,-803.0237 843.5187,-805.4529 847.658,-805.4529 849.2004,-804.9877 851.9173,-804.9877 852.8853,-805.2804 858.1663,-805.2804 861.9536,-862.6669 864.5496,-805.4616 866.0519,-806.2009 869.6459,-810.3244 867.8162,-945.7982 867.5023,-945.9957 856.5706,-975.8769 833.8264,-1033.8307 926.1887,-1022.7886 988.8249,-1018.5065 989.8003,-1078.5143 987.1587,-1163.9142 994.5201,-1163.8833 1006.1996,-1159.0803 1016.059,-1155.4685 1015.9182,-1110.4055 1016.8032,-1077.6206 1016.8032,-1077.6206 1015.9182,-1110.4055 1016.059,-1155.4685 1027.7039,-1151.9781 1026.2876,-1015.9361 1031.5896,-1017.5274 1037.6215,-1015.6866 1040.8799,-1012.8657 1037.2404,-1009.5981 1037.2404,-1009.5981 1040.8799,-1012.8657 1037.6215,-1015.6866 1031.5896,-1017.5274 1026.2876,-1015.9361 1027.7039,-1151.9781 1030.057,-1151.3252 1043.3245,-1148.2275 1051.1929,-1146.5656 1070.2585,-1143.8053 1077.9773,-1143.0321 1147.2889,-1137.6302 1195.8854,-1072.491 1198.0858,-1044.5933 1198.0118,-1033.2891 1198.5795,-1002.3711 1202.6868,-941.9715 1191.4312,-910.6124 1233.3484,-832.6621 1235.1039,-786.1478 1235.839,-774.2805 1236.9792,-763.9434 1224.7233,-702.4346 1145.5585,-611.5582 1106.1003,-641.2885 1100.1519,-645.5799 1100.174,-682.7737 1097.3463,-776.8226 1092.5826,-773.9813 1092.5826,-773.9813 1097.3463,-776.8226 1100.174,-682.7737 1100.1519,-645.5799 1093.0795,-650.2343 1079.9701,-658.0467 1064.9368,-666.0569 980.8674,-708.1065 968.0725,-715.3033 961.6782,-719.499 950.1834,-714.3979 938.2025,-710.0417 930.4443,-707.4291 930.3298,-707.2635 900.2124,-667.98 868.3893,-613.4868 845.7933,-578.9985 829.6364,-557.9243 829.0818,-547.0339 856.6851,-533.8328 877.1083,-524.7955 882.7332,-522.7371 886.9926,-521.3391 887.7217,-521.1271 904.2845,-517.5268 906.1219,-517.1968 905.5197,-440.3469 907.1498,-438.5123 905.991,-437.2413 900.6852,-434.2435 900.6852,-434.2435 905.991,-437.2413 907.1498,-438.5123 905.5197,-440.3469 906.1219,-517.1968 914.2056,-516.0475 920.0881,-515.6509 927.9241,-515.7075 927.9241,-515.7075"/>
<polygon fill="#bbd7d9" stroke="#bbd7d9" points="355.3026,96.1488 354.3668,95.5449 194.9853,-3.2374 198.9417,-8.5007 205.5057,-16.9241 218.4141,-32.876 241.0271,-58.5842 242.4438,-60.3871 351.499,-65.2699 357.6098,-59.8145 357.842,-59.7233 358.2174,-59.4184 362.2221,-59.4184 363.2014,-59.1257 366.795,-59.1257 367.7715,-58.8337 371.9153,-58.8337 373.7017,-61.0439 377.9293,-63.5065 383.7958,-63.5065 389.9987,-59.7645 390.1919,-59.5468 393.9615,-59.5468 394.3722,-59.4248 398.8153,-59.4248 399.8094,-59.1208 398.6064,14.4997 405.7262,-57.4253 410.1188,-53.4054 453.6916,-50.0278 446.4263,-26.7428 479.158,-22.0378 490.1073,-24.4919 494.7741,-21.5626 496.9175,-18.1701 500.6331,-18.1701 501.857,-17.7958 504.7505,-17.7958 506.0344,-19.3356 511.2604,-22.4525 511.2604,-22.4525 506.0344,-19.3356 504.7505,-17.7958 501.857,-17.7958 500.6331,-18.1701 496.9175,-18.1701 494.7741,-21.5626 490.1073,-24.4919 479.158,-22.0378 446.4263,-26.7428 453.6916,-50.0278 410.1188,-53.4054 405.7262,-57.4253 398.6064,14.4997 399.8094,-59.1208 398.8153,-59.4248 394.3722,-59.4248 393.9615,-59.5468 390.1919,-59.5468 389.9987,-59.7645 383.7958,-63.5065 377.9293,-63.5065 373.7017,-61.0439 371.9153,-58.8337 367.7715,-58.8337 366.795,-59.1257 363.2014,-59.1257 362.2221,-59.4184 358.2174,-59.4184 357.842,-59.7233 357.6098,-59.8145 351.499,-65.2699 242.4438,-60.3871 312.16,-154.4393 336.2945,-184.8911 337.2294,-185.9539 352.0262,-185.903 353.3641,-185.959 354.5024,-185.9815 363.7941,-185.7525 369.9291,-185.7407 370.1907,-185.7344 372.3024,-185.7793 375.1674,-189.5745 391.4064,-209.1516 400.0647,-217.9874 404.8444,-222.305 407.8008,-225.4024 414.0932,-231.5683 414.3062,-231.7952 425.4229,-242.8058 484.5959,-296.5792 488.7136,-299.9689 500.1757,-311.0249 510.8967,-322.8633 514.7974,-326.6194 517.8304,-329.8862 526.5222,-339.7712 540.7767,-357.6791 544.1293,-362.2728 457.5639,-385.3947 455.1513,-385.9441 444.0795,-388.0325 438.8505,-388.8109 433.0512,-389.4442 425.299,-389.6779 419.9985,-389.6279 415.313,-389.398 415.1388,-389.4028 412.7929,-389.5579 407.5338,-389.6969 404.5536,-389.6575 404.2437,-389.6412 395.7607,-389.5185 394.3195,-389.5529 392.227,-389.5202 389.0539,-389.7135 388.8289,-389.7358 378.4516,-390.3557 368.7169,-391.3103 357.8443,-393.6293 346.0946,-396.5866 279.3504,-415.8843 269.9423,-372.7017 264.9499,-345.6331 263.2509,-334.2617 263.2451,-334.2109 260.1422,-313.4877 255.5967,-288.8562 253.0173,-277.0172 215.4469,-266.8935 210.7269,-265.7827 191.9866,-262.6408 188.7532,-262.3206 186.2344,-262.1568 184.0751,-262.0896 180.0094,-262.1012 172.1366,-261.8628 162.9225,-262.2137 160.8971,-262.2236 156.5593,-261.9571 154.0136,-261.8878 143.0162,-261.2245 142.3502,-261.1624 127.4116,-258.7764 124.4936,-258.2146 118.6506,-256.8974 108.2615,-253.868 106.4452,-253.2789 28.2688,-225.326 -19.6808,-283.4773 -22.0642,-316.7581 -26.9762,-367.9357 -37.3743,-440.5615 103.76,-431.3244 114.059,-431.0278 114.1325,-431.0284 115.0235,-430.9702 116.1977,-430.9366 124.7445,-431.0067 127.1881,-431.1168 130.3871,-431.1435 131.5678,-352.3629 136.6733,-355.2061 141.5003,-355.2061 141.5003,-355.2061 136.6733,-355.2061 131.5678,-352.3629 130.3871,-431.1435 131.9558,-431.2144 137.1834,-431.0666 143.1546,-431.118 146.0492,-431.0367 146.3154,-431.0194 151.431,-431.0648 153.3345,-431.1516 157.6712,-431.1906 158.2921,-431.1507 159.6922,-431.1122 167.1486,-431.1814 172.7695,-431.0272 174.4452,-431.043 175.9469,-431.1122 177.0057,-431.1223 273.5162,-428.5138 273.7466,-429.5924 279.6213,-461.1024 282.2556,-477.7977 287.5644,-506.0013 290.4496,-524.3149 296.7348,-528.165 310.323,-535.5704 385.7445,-571.5007 396.6311,-552.4421 410.1382,-533.6937 413.7177,-529.1844 417.6878,-524.6709 425.5869,-516.6323 428.5656,-514.312 437.2955,-504.9595 437.8355,-504.4795 441.4135,-500.5519 443.8698,-498.3823 453.202,-491.9415 455.127,-491.0385 467.6829,-487.6365 476.8184,-483.2415 485.1875,-475.7865 490.4914,-469.9991 492.8051,-468.2787 495.6174,-465.8256 496.1476,-465.2912 499.9254,-460.8943 508.8383,-451.9456 518.753,-439.6389 527.8141,-426.2162 544.1954,-397.8874 545.3413,-395.6524 555.8115,-373.9258 557.6809,-369.6017 558.3188,-368.0419 560.3409,-368.0586 569.7513,-356.4992 585.946,-338.2411 590.1445,-332.9123 596.9866,-325.5052 599.5781,-322.8541 601.9237,-225.5022 601.9237,-225.5022 599.5781,-322.8541 604.9629,-317.6567 611.4409,-311.7804 612.0623,-228.709 609.7431,-225.2987 610.7426,-224.57 611.9117,-222.7904 613.4213,-129.0915 620.769,-131.6055 665.5522,-145.4215 670.6787,-57.1922 596.3954,-73.2257 584.8215,-116.4757 577.8831,-118.0501 572.323,-119.0084 563.1689,-120.3376 553.7133,-121.4522 554.1651,-148.0565 549.9172,-221.1471 545.0817,-223.9775 543.7934,-225.4931 544.4558,-226.2561 544.4558,-226.2561 543.7934,-225.4931 545.0817,-223.9775 549.9172,-221.1471 554.1651,-148.0565 553.7133,-121.4522 563.1689,-120.3376 572.323,-119.0084 577.8831,-118.0501 584.8215,-116.4757 596.3954,-73.2257 670.6787,-57.1922 665.5522,-145.4215 620.769,-131.6055 613.4213,-129.0915 611.9117,-222.7904 610.7426,-224.57 609.7431,-225.2987 612.0623,-228.709 611.4409,-311.7804 619.0675,-305.3123 620.9615,-303.8209 688.1505,-245.9267 695.3568,-239.2222 707.9442,-226.6653 709.0036,-225.4 721.1721,-213.5241 736.0633,-197.3956 740.1762,-184.3596 821.463,-148.0485 830.3309,-143.8755 836.4379,-140.7113 846.1028,-135.472 847.4656,-134.7011 860.3427,-127.1097 876.9813,-115.7085 858.506,-62.5591 849.328,-31.8344 831.5102,33.4256 817.0134,58.1499 808.3945,67.8704 767.0289,84.1954 717.184,78.8449 717.1931,11.4316 714.0104,-51.8636 709.5469,-51.8636 703.6876,33.558 702.5076,69.5841 697.7756,-47.5448 692.4786,-47.5448 685.9846,-51.5922 685.939,-51.6453 687.7167,-53.8744 692.0551,-56.4234 692.0551,-56.4234 687.7167,-53.8744 685.939,-51.6453 685.9846,-51.5922 692.4786,-47.5448 697.7756,-47.5448 702.5076,69.5841 703.6876,33.558 709.5469,-51.8636 714.0104,-51.8636 717.1931,11.4316 717.184,78.8449 702.4377,77.9322 695.9755,77.9728 680.9335,78.7522 669.5811,79.5988 667.726,79.7792 633.6177,83.8688 579.9608,124.0946 536.7118,119.9593 525.3512,119.347 524.2484,119.3106 516.1207,119.2119 511.4355,119.2528 494.8004,120.0936 492.6269,119.5535 417.9284,105.875 385.275,97.0929 381.8597,97.4924 375.994,98.3945 365.8997,100.1331 362.0571,100.8655 355.3026,96.1488 355.3026,96.1488"/>
<polygon fill="#d8d6da" stroke="#d8d6da" points="488.7136,-299.9689 484.5959,-296.5792 425.4229,-242.8058 414.3062,-231.7952 414.0932,-231.5683 407.8008,-225.4024 404.8444,-222.305 400.0647,-217.9874 391.4064,-209.1516 375.1674,-189.5745 372.3024,-185.7793 370.1907,-185.7344 369.9291,-185.7407 363.7941,-185.7525 354.5024,-185.9815 353.3641,-185.959 352.0262,-185.903 337.2294,-185.9539 336.2945,-184.8911 312.16,-154.4393 242.4438,-60.3871 241.0271,-58.5842 218.4141,-32.876 205.5057,-16.9241 198.9417,-8.5007 194.9853,-3.2374 187.4034,-2.6631 181.2176,-1.9859 159.2159,1.5413 148.7431,3.5722 27.8352,-120.0756 29.1806,-155.2695 28.7351,-210.3665 28.2688,-225.326 106.4452,-253.2789 108.2615,-253.868 118.6506,-256.8974 124.4936,-258.2146 127.4116,-258.7764 142.3502,-261.1624 143.0162,-261.2245 154.0136,-261.8878 156.5593,-261.9571 160.8971,-262.2236 162.9225,-262.2137 172.1366,-261.8628 180.0094,-262.1012 184.0751,-262.0896 186.2344,-262.1568 188.7532,-262.3206 191.9866,-262.6408 210.7269,-265.7827 215.4469,-266.8935 253.0173,-277.0172 255.5967,-288.8562 260.1422,-313.4877 263.2451,-334.2109 263.2509,-334.2617 264.9499,-345.6331 269.9423,-372.7017 279.3504,-415.8843 346.0946,-396.5866 357.8443,-393.6293 368.7169,-391.3103 378.4516,-390.3557 388.8289,-389.7358 389.0539,-389.7135 392.227,-389.5202 392.1095,-378.1436 394.4062,-313.611 395.3206,-312.5227 394.6143,-311.7075 394.6143,-311.7075 395.3206,-312.5227 394.4062,-313.611 392.1095,-378.1436 392.227,-389.5202 394.3195,-389.5529 395.7607,-389.5185 404.2437,-389.6412 404.5536,-389.6575 407.5338,-389.6969 412.7929,-389.5579 415.1388,-389.4028 415.313,-389.398 419.9985,-389.6279 425.299,-389.6779 433.0512,-389.4442 438.8505,-388.8109 444.0795,-388.0325 455.1513,-385.9441 457.5639,-385.3947 544.1293,-362.2728 540.7767,-357.6791 526.5222,-339.7712 517.8304,-329.8862 514.7974,-326.6194 510.8967,-322.8633 500.1757,-311.0249 488.7136,-299.9689 488.7136,-299.9689"/>
<polygon fill="#fbb4ae" stroke="#fbb4ae" points="1039.7089,-375.9229 1039.3663,-376.0572 1034.2947,-380.8277 972.4777,-384.8621 964.5468,-369.8102 951.4671,-349.5873 965.6203,-319.7556 992.2617,-268.8392 1028.052,-209.1376 1030.3715,-209.3042 1053.2515,-210.2012 1056.4027,-210.2216 1068.7361,-209.6957 1079.6044,-209.0542 1085.5098,-208.5126 1086.844,-208.3684 1097.7201,-214.0097 1100.3848,-215.2803 1115.0452,-221.6724 1280.0684,-290.1832 1297.7104,-251.2201 1319.4591,-200.5672 1359.6437,-93.7653 1378.4736,-74.0065 1401.0898,-69.5867 1459.8276,-81.2738 1460.3549,-116.8737 1459.1013,-146.0453 1459.1013,-146.0453 1460.3549,-116.8737 1459.8276,-81.2738 1478.3298,-83.3833 1485.7937,-84.0749 1491.8336,-84.377 1512.4978,-84.0918 1515.1459,-83.8862 1535.354,-81.884 1550.2064,-79.7834 1601.1808,-92.7943 1637.6049,-110.4423 1664.0847,-205.0341 1669.1661,-221.6869 1676.1407,-241.3531 1676.3894,-246.8774 1673.7794,-257.7841 1581.193,-363.7334 1543.6436,-358.4561 1521.1576,-355.7439 1506.8226,-354.8825 1503.2091,-354.7384 1486.1589,-355.0895 1474.8173,-355.7804 1467.4955,-356.5211 1463.1698,-354.9158 1458.1737,-353.2867 1292.8479,-306.7234 1285.6783,-303.6338 1250.783,-375 1218.6436,-453.3246 1191.9688,-507.5501 1147.5442,-547.4998 1125.2548,-533.0905 1099.2742,-516.9183 1087.2454,-510.3599 1076.5155,-505.06 1063.0665,-499.4442 1053.3853,-495.651 1040.02,-491.4445 1037.246,-490.6432 1029.9318,-488.9037 1012.7816,-462.3873 997.7611,-437.099 989.4565,-421.4692 972.4777,-384.8621 1034.2947,-380.8277 1039.3663,-376.0572 1039.7089,-375.9229 1041.1251,-374.7716 1043.2837,-374.7716 1044.9594,-375.2552 1048.6107,-375.2552 1053.6594,-416.0186 1054.2206,-428.5582 1060.9624,-375.4076 1063.5652,-375.4076 1065.0806,-377.0539 1069.6104,-379.4925 1069.6104,-379.4925 1065.0806,-377.0539 1063.5652,-375.4076 1060.9624,-375.4076 1054.2206,-428.5582 1053.6594,-416.0186 1048.6107,-375.2552 1044.9594,-375.2552 1043.2837,-374.7716 1041.1251,-374.7716 1039.7089,-375.9229 1039.7089,-375.9229"/>
<polygon fill="#d8d6da" stroke="#d8d6da" points="1145.5554,-611.1875 1147.2046,-554.6215 1147.5442,-547.4998 1125.2548,-533.0905 1099.2742,-516.9183 1087.2454,-510.3599 1076.5155,-505.06 1063.0665,-499.4442 1053.3853,-495.651 1040.02,-491.4445 1037.246,-490.6432 1029.9318,-488.9037 981.1885,-507.1901 976.3281,-508.8275 974.6039,-509.3425 963.3256,-512.286 949.8805,-514.7669 949.5023,-514.8077 939.6315,-515.4973 935.5328,-515.471 927.9241,-515.7075 920.0881,-515.6509 914.2056,-516.0475 906.1219,-517.1968 904.2845,-517.5268 887.7217,-521.1271 886.9926,-521.3391 882.7332,-522.7371 877.1083,-524.7955 856.6851,-533.8328 829.0818,-547.0339 829.6364,-557.9243 845.7933,-578.9985 868.3893,-613.4868 900.2124,-667.98 930.3298,-707.2635 930.4443,-707.4291 938.2025,-710.0417 950.1834,-714.3979 961.6782,-719.499 968.0725,-715.3033 980.8674,-708.1065 1064.9368,-666.0569 1079.9701,-658.0467 1093.0795,-650.2343 1100.1519,-645.5799 1106.1003,-641.2885 1145.5585,-611.5582 1145.5554,-611.1875 1145.5554,-611.1875"/>
<polyline fill="none" stroke="#000000" points="527.9662,-640.7216 533.4449,-640.9448 540.5568,-640.9146 544.8058,-640.9888 548.5733,-640.8856 551.0449,-640.9786 555.0653,-641.0399 555.7799,-641.0817 556.0209,-641.0905 570.0134,-624.5516 579.7919,-614.1086 582.7953,-610.6875 592.4037,-600.9465 597.0111,-596.8463 604.6259,-588.9151 665.6859,-529.9911 677.0125,-520.0671 689.144,-507.8354 690.3625,-506.5306 697.2874,-498.1749 707.4999,-487.3399 714.6509,-478.9753 726.9497,-463.2087 714.359,-454.3781 707.1246,-449.9789 691.5707,-440.9969 598.0704,-392.9512 593.8492,-390.6522 572.6178,-377.0594 560.3409,-368.0586 558.3188,-368.0419 557.6809,-369.6017 555.8115,-373.9258 545.3413,-395.6524 544.1954,-397.8874 527.8141,-426.2162 518.753,-439.6389 508.8383,-451.9456 499.9254,-460.8943 496.1476,-465.2912 495.6174,-465.8256 492.8051,-468.2787 490.4914,-469.9991 485.1875,-475.7865 476.8184,-483.2415 467.6829,-487.6365 455.127,-491.0385 453.202,-491.9415 443.8698,-498.3823 441.4135,-500.5519 437.8355,-504.4795 437.2955,-504.9595 428.5656,-514.312 425.5869,-516.6323 417.6878,-524.6709 413.7177,-529.1844 410.1382,-533.6937 396.6311,-552.4421 385.7445,-571.5007 310.323,-535.5704 296.7348,-528.165 290.4496,-524.3149 287.5644,-506.0013 282.2556,-477.7977 279.6213,-461.1024 273.7466,-429.5924 273.5162,-428.5138 177.0057,-431.1223 175.9469,-431.1122 174.4452,-431.043 172.7695,-431.0272 167.1486,-431.1814 159.6922,-431.1122 158.2921,-431.1507 157.6712,-431.1906 153.3345,-431.1516 151.431,-431.0648 146.3154,-431.0194 146.0492,-431.0367 143.1546,-431.118 137.1834,-431.0666 131.9558,-431.2144 130.3871,-431.1435 127.1881,-431.1168 124.7445,-431.0067 116.1977,-430.9366 115.0235,-430.9702 114.1325,-431.0284 114.059,-431.0278 103.76,-431.3244 -37.3743,-440.5615 -55.6613,-467.1895 -47.6039,-511.68 -45.1669,-531.4225 -99.6414,-644.7921 -123.3565,-691.3422 -122.9974,-698.3556 -122.6922,-724.2339 -73.6613,-802.1383 33.4535,-835.5555 37.1342,-836.7787 49.2598,-841.3081 49.4051,-841.3654 64.3605,-847.5668 74.6377,-901.0955 75.2488,-905.2393 77.3782,-914.3148 86.8055,-934.8779 125.045,-1023.7992 182.9724,-1067.161 216.3643,-1076.5898 217.6162,-1076.9882 229.992,-1081.1509 239.6838,-1084.5845 251.9984,-1089.3864 270.0531,-1123.4277 312.9193,-1187.7593 366.745,-1205.1891 422.8691,-1194.946 423.5058,-1194.842 436.2045,-1193.2542 450.8172,-1191.9869 454.7781,-1191.7955 458.2102,-1191.7612 476.6226,-1191.9296 492.183,-1192.6682 593.4724,-1126.5979 623.7485,-1092.0034 637.1428,-1071.0492 624.7399,-1055.0494 610.0677,-1034.4323 588.0461,-1001.9476 590.8228,-923.9124 591.7844,-911.6185 592.1698,-900.9138 591.4954,-887.0104 592.4853,-859.1902 585.682,-854.8604 571.2495,-847.0794 565.191,-844.4183 558.762,-841.9099 556.0561,-840.9877 540.6152,-837.2125 535.0842,-836.1359 531.7455,-835.6515 520.4689,-835.1204 518.3758,-834.9182 511.4175,-834.9327 503.7746,-834.5721 497.8658,-834.0031 497.1263,-833.8958 489.4621,-832.4045 484.7236,-831.2497 477.5604,-829.1508 470.8594,-826.86 460.5814,-822.3348 462.0939,-791.5234 461.8405,-765.84 462.7281,-760.6048 468.3945,-645.1713 470.2609,-644.8044 486.1192,-642.3738 503.5616,-641.2145 506.6413,-641.0768 507.6013,-641.0121 521.0544,-640.6922 523.207,-640.7347 527.9662,-640.7216 "/>
<polyline fill="none" stroke="#000000" points="829.0818,-547.0339 856.6851,-533.8328 877.1083,-524.7955 882.7332,-522.7371 886.9926,-521.3391 887.7217,-521.1271 904.2845,-517.5268 906.1219,-517.1968 914.2056,-516.0475 920.0881,-515.6509 927.9241,-515.7075 935.5328,-515.471 939.6315,-515.4973 949.5023,-514.8077 949.8805,-514.7669 963.3256,-512.286 974.6039,-509.3425 976.3281,-508.8275 981.1885,-507.1901 1029.9318,-488.9037 1012.7816,-462.3873 997.7611,-437.099 989.4565,-421.4692 972.4777,-384.8621 964.5468,-369.8102 951.4671,-349.5873 965.6203,-319.7556 992.2617,-268.8392 1028.052,-209.1376 914.9225,-125.6136 884.377,-117.9287 883.0035,-117.5359 876.9813,-115.7085 860.3427,-127.1097 847.4656,-134.7011 846.1028,-135.472 836.4379,-140.7113 830.3309,-143.8755 821.463,-148.0485 740.1762,-184.3596 736.0633,-197.3956 721.1721,-213.5241 709.0036,-225.4 707.9442,-226.6653 695.3568,-239.2222 688.1505,-245.9267 620.9615,-303.8209 619.0675,-305.3123 611.4409,-311.7804 604.9629,-317.6567 599.5781,-322.8541 596.9866,-325.5052 590.1445,-332.9123 585.946,-338.2411 569.7513,-356.4992 560.3409,-368.0586 572.6178,-377.0594 593.8492,-390.6522 598.0704,-392.9512 691.5707,-440.9969 707.1246,-449.9789 714.359,-454.3781 726.9497,-463.2087 714.6509,-478.9753 707.4999,-487.3399 697.2874,-498.1749 690.3625,-506.5306 689.144,-507.8354 677.0125,-520.0671 665.6859,-529.9911 604.6259,-588.9151 597.0111,-596.8463 592.4037,-600.9465 582.7953,-610.6875 579.7919,-614.1086 570.0134,-624.5516 556.0209,-641.0905 555.7799,-641.0817 555.0653,-641.0399 551.0449,-640.9786 548.5733,-640.8856 544.8058,-640.9888 540.5568,-640.9146 533.4449,-640.9448 527.9662,-640.7216 523.207,-640.7347 521.0544,-640.6922 507.6013,-641.0121 506.6413,-641.0768 503.5616,-641.2145 486.1192,-642.3738 470.2609,-644.8044 468.3945,-645.1713 462.7281,-760.6048 461.8405,-765.84 462.0939,-791.5234 460.5814,-822.3348 470.8594,-826.86 477.5604,-829.1508 484.7236,-831.2497 489.4621,-832.4045 497.1263,-833.8958 497.8658,-834.0031 503.7746,-834.5721 511.4175,-834.9327 518.3758,-834.9182 520.4689,-835.1204 531.7455,-835.6515 535.0842,-836.1359 540.6152,-837.2125 556.0561,-840.9877 558.762,-841.9099 565.191,-844.4183 571.2495,-847.0794 585.682,-854.8604 592.4853,-859.1902 591.4954,-887.0104 592.1698,-900.9138 591.7844,-911.6185 590.8228,-923.9124 588.0461,-1001.9476 610.0677,-1034.4323 624.7399,-1055.0494 637.1428,-1071.0492 663.3445,-1066.2976 674.3738,-1064.6759 683.9,-1063.4392 685.46,-1063.2637 700.3318,-1062.1023 713.9515,-1061.509 728.9504,-1061.8907 749.6232,-1063.1304 777.7307,-1065.2976 825.7749,-1052.1781 939.7405,-1148.7461 986.7708,-1163.9304 987.1587,-1163.9142 994.5201,-1163.8833 1006.1996,-1159.0803 1016.059,-1155.4685 1027.7039,-1151.9781 1030.057,-1151.3252 1043.3245,-1148.2275 1051.1929,-1146.5656 1070.2585,-1143.8053 1077.9773,-1143.0321 1147.2889,-1137.6302 1195.8854,-1072.491 1198.0858,-1044.5933 1198.0118,-1033.2891 1198.5795,-1002.3711 1202.6868,-941.9715 1191.4312,-910.6124 1233.3484,-832.6621 1235.1039,-786.1478 1235.839,-774.2805 1236.9792,-763.9434 1224.7233,-702.4346 1145.5585,-611.5582 1106.1003,-641.2885 1100.1519,-645.5799 1093.0795,-650.2343 1079.9701,-658.0467 1064.9368,-666.0569 980.8674,-708.1065 968.0725,-715.3033 961.6782,-719.499 950.1834,-714.3979 938.2025,-710.0417 930.4443,-707.4291 930.3298,-707.2635 900.2124,-667.98 868.3893,-613.4868 845.7933,-578.9985 829.6364,-557.9243 829.0818,-547.0339 "/>
<polyline fill="none" stroke="#000000" points="413.7177,-529.1844 410.1382,-533.6937 396.6311,-552.4421 385.7445,-571.5007 310.323,-535.5704 296.7348,-528.165 290.4496,-524.3149 287.5644,-506.0013 282.2556,-477.7977 279.6213,-461.1024 273.7466,-429.5924 273.5162,-428.5138 177.0057,-431.1223 175.9469,-431.1122 174.4452,-431.043 172.7695,-431.0272 167.1486,-431.1814 159.6922,-431.1122 158.2921,-431.1507 157.6712,-431.1906 153.3345,-431.1516 151.431,-431.0648 146.3154,-431.0194 146.0492,-431.0367 143.1546,-431.118 137.1834,-431.0666 131.9558,-431.2144 130.3871,-431.1435 127.1881,-431.1168 124.7445,-431.0067 116.1977,-430.9366 115.0235,-430.9702 114.1325,-431.0284 114.059,-431.0278 103.76,-431.3244 -37.3743,-440.5615 -26.9762,-367.9357 -22.0642,-316.7581 -19.6808,-283.4773 28.2688,-225.326 106.4452,-253.2789 108.2615,-253.868 118.6506,-256.8974 124.4936,-258.2146 127.4116,-258.7764 142.3502,-261.1624 143.0162,-261.2245 154.0136,-261.8878 156.5593,-261.9571 160.8971,-262.2236 162.9225,-262.2137 172.1366,-261.8628 180.0094,-262.1012 184.0751,-262.0896 186.2344,-262.1568 188.7532,-262.3206 191.9866,-262.6408 210.7269,-265.7827 215.4469,-266.8935 253.0173,-277.0172 255.5967,-288.8562 260.1422,-313.4877 263.2451,-334.2109 263.2509,-334.2617 264.9499,-345.6331 269.9423,-372.7017 279.3504,-415.8843 346.0946,-396.5866 357.8443,-393.6293 368.7169,-391.3103 378.4516,-390.3557 388.8289,-389.7358 389.0539,-389.7135 392.227,-389.5202 394.3195,-389.5529 395.7607,-389.5185 404.2437,-389.6412 404.5536,-389.6575 407.5338,-389.6969 412.7929,-389.5579 415.1388,-389.4028 415.313,-389.398 419.9985,-389.6279 425.299,-389.6779 433.0512,-389.4442 438.8505,-388.8109 444.0795,-388.0325 455.1513,-385.9441 457.5639,-385.3947 544.1293,-362.2728 540.7767,-357.6791 526.5222,-339.7712 517.8304,-329.8862 514.7974,-326.6194 510.8967,-322.8633 500.1757,-311.0249 488.7136,-299.9689 484.5959,-296.5792 425.4229,-242.8058 414.3062,-231.7952 414.0932,-231.5683 407.8008,-225.4024 404.8444,-222.305 400.0647,-217.9874 391.4064,-209.1516 375.1674,-189.5745 372.3024,-185.7793 370.1907,-185.7344 369.9291,-185.7407 363.7941,-185.7525 354.5024,-185.9815 353.3641,-185.959 352.0262,-185.903 337.2294,-185.9539 336.2945,-184.8911 312.16,-154.4393 242.4438,-60.3871 241.0271,-58.5842 218.4141,-32.876 205.5057,-16.9241 198.9417,-8.5007 194.9853,-3.2374 354.3668,95.5449 355.3026,96.1488 362.0571,100.8655 365.8997,100.1331 375.994,98.3945 381.8597,97.4924 385.275,97.0929 417.9284,105.875 492.6269,119.5535 494.8004,120.0936 511.4355,119.2528 516.1207,119.2119 524.2484,119.3106 525.3512,119.347 536.7118,119.9593 579.9608,124.0946 633.6177,83.8688 667.726,79.7792 669.5811,79.5988 680.9335,78.7522 695.9755,77.9728 702.4377,77.9322 717.184,78.8449 767.0289,84.1954 808.3945,67.8704 817.0134,58.1499 831.5102,33.4256 849.328,-31.8344 858.506,-62.5591 876.9813,-115.7085 860.3427,-127.1097 847.4656,-134.7011 846.1028,-135.472 836.4379,-140.7113 830.3309,-143.8755 821.463,-148.0485 740.1762,-184.3596 736.0633,-197.3956 721.1721,-213.5241 709.0036,-225.4 707.9442,-226.6653 695.3568,-239.2222 688.1505,-245.9267 620.9615,-303.8209 619.0675,-305.3123 611.4409,-311.7804 604.9629,-317.6567 599.5781,-322.8541 596.9866,-325.5052 590.1445,-332.9123 585.946,-338.2411 569.7513,-356.4992 560.3409,-368.0586 558.3188,-368.0419 557.6809,-369.6017 555.8115,-373.9258 545.3413,-395.6524 544.1954,-397.8874 527.8141,-426.2162 518.753,-439.6389 508.8383,-451.9456 499.9254,-460.8943 496.1476,-465.2912 495.6174,-465.8256 492.8051,-468.2787 490.4914,-469.9991 485.1875,-475.7865 476.8184,-483.2415 467.6829,-487.6365 455.127,-491.0385 453.202,-491.9415 443.8698,-498.3823 441.4135,-500.5519 437.8355,-504.4795 437.2955,-504.9595 428.5656,-514.312 425.5869,-516.6323 417.6878,-524.6709 413.7177,-529.1844 "/>
<polyline fill="none" stroke="#000000" points="184.0751,-262.0896 180.0094,-262.1012 172.1366,-261.8628 162.9225,-262.2137 160.8971,-262.2236 156.5593,-261.9571 154.0136,-261.8878 143.0162,-261.2245 142.3502,-261.1624 127.4116,-258.7764 124.4936,-258.2146 118.6506,-256.8974 108.2615,-253.868 106.4452,-253.2789 28.2688,-225.326 28.7351,-210.3665 29.1806,-155.2695 27.8352,-120.0756 148.7431,3.5722 159.2159,1.5413 181.2176,-1.9859 187.4034,-2.6631 194.9853,-3.2374 198.9417,-8.5007 205.5057,-16.9241 218.4141,-32.876 241.0271,-58.5842 242.4438,-60.3871 312.16,-154.4393 336.2945,-184.8911 337.2294,-185.9539 352.0262,-185.903 353.3641,-185.959 354.5024,-185.9815 363.7941,-185.7525 369.9291,-185.7407 370.1907,-185.7344 372.3024,-185.7793 375.1674,-189.5745 391.4064,-209.1516 400.0647,-217.9874 404.8444,-222.305 407.8008,-225.4024 414.0932,-231.5683 414.3062,-231.7952 425.4229,-242.8058 484.5959,-296.5792 488.7136,-299.9689 500.1757,-311.0249 510.8967,-322.8633 514.7974,-326.6194 517.8304,-329.8862 526.5222,-339.7712 540.7767,-357.6791 544.1293,-362.2728 457.5639,-385.3947 455.1513,-385.9441 444.0795,-388.0325 438.8505,-388.8109 433.0512,-389.4442 425.299,-389.6779 419.9985,-389.6279 415.313,-389.398 415.1388,-389.4028 412.7929,-389.5579 407.5338,-389.6969 404.5536,-389.6575 404.2437,-389.6412 395.7607,-389.5185 394.3195,-389.5529 392.227,-389.5202 389.0539,-389.7135 388.8289,-389.7358 378.4516,-390.3557 368.7169,-391.3103 357.8443,-393.6293 346.0946,-396.5866 279.3504,-415.8843 269.9423,-372.7017 264.9499,-345.6331 263.2509,-334.2617 263.2451,-334.2109 260.1422,-313.4877 255.5967,-288.8562 253.0173,-277.0172 215.4469,-266.8935 210.7269,-265.7827 191.9866,-262.6408 188.7532,-262.3206 186.2344,-262.1568 184.0751,-262.0896 "/>
<polyline fill="none" stroke="#000000" points="1474.8173,-355.7804 1467.4955,-356.5211 1463.1698,-354.9158 1458.1737,-353.2867 1292.8479,-306.7234 1285.6783,-303.6338 1250.783,-375 1218.6436,-453.3246 1191.9688,-507.5501 1147.5442,-547.4998 1125.2548,-533.0905 1099.2742,-516.9183 1087.2454,-510.3599 1076.5155,-505.06 1063.0665,-499.4442 1053.3853,-495.651 1040.02,-491.4445 1037.246,-490.6432 1029.9318,-488.9037 1012.7816,-462.3873 997.7611,-437.099 989.4565,-421.4692 972.4777,-384.8621 964.5468,-369.8102 951.4671,-349.5873 965.6203,-319.7556 992.2617,-268.8392 1028.052,-209.1376 1030.3715,-209.3042 1053.2515,-210.2012 1056.4027,-210.2216 1068.7361,-209.6957 1079.6044,-209.0542 1085.5098,-208.5126 1086.844,-208.3684 1097.7201,-214.0097 1100.3848,-215.2803 1115.0452,-221.6724 1280.0684,-290.1832 1297.7104,-251.2201 1319.4591,-200.5672 1359.6437,-93.7653 1378.4736,-74.0065 1401.0898,-69.5867 1459.8276,-81.2738 1478.3298,-83.3833 1485.7937,-84.0749 1491.8336,-84.377 1512.4978,-84.0918 1515.1459,-83.8862 1535.354,-81.884 1550.2064,-79.7834 1601.1808,-92.7943 1637.6049,-110.4423 1664.0847,-205.0341 1669.1661,-221.6869 1676.1407,-241.3531 1676.3894,-246.8774 1673.7794,-257.7841 1581.193,-363.7334 1543.6436,-358.4561 1521.1576,-355.7439 1506.8226,-354.8825 1503.2091,-354.7384 1486.1589,-355.0895 1474.8173,-355.7804 "/>
<polyline fill="none" stroke="#000000" points="961.6782,-719.499 968.0725,-715.3033 980.8674,-708.1065 1064.9368,-666.0569 1079.9701,-658.0467 1093.0795,-650.2343 1100.1519,-645.5799 1106.1003,-641.2885 1145.5585,-611.5582 1145.5554,-611.1875 1147.2046,-554.6215 1147.5442,-547.4998 1125.2548,-533.0905 1099.2742,-516.9183 1087.2454,-510.3599 1076.5155,-505.06 1063.0665,-499.4442 1053.3853,-495.651 1040.02,-491.4445 1037.246,-490.6432 1029.9318,-488.9037 981.1885,-507.1901 976.3281,-508.8275 974.6039,-509.3425 963.3256,-512.286 949.8805,-514.7669 949.5023,-514.8077 939.6315,-515.4973 935.5328,-515.471 927.9241,-515.7075 920.0881,-515.6509 914.2056,-516.0475 906.1219,-517.1968 904.2845,-517.5268 887.7217,-521.1271 886.9926,-521.3391 882.7332,-522.7371 877.1083,-524.7955 856.6851,-533.8328 829.0818,-547.0339 829.6364,-557.9243 845.7933,-578.9985 868.3893,-613.4868 900.2124,-667.98 930.3298,-707.2635 930.4443,-707.4291 938.2025,-710.0417 950.1834,-714.3979 961.6782,-719.499 "/>
<!-- device&#45;mapper&#45;libs&#45;&gt;Fedora Container Base -->
<g id="edge1" class="edge">
<title>device&#45;mapper&#45;libs&#45;&gt;Fedora Container Base</title>
<path fill="none" stroke="#444444" stroke-opacity="0.333333" d="M271.6885,-894.8209C315.605,-830.6825 464.2797,-613.5486 516.3304,-537.5306"/>
<polygon fill="#444444" fill-opacity="0.333333" stroke="#444444" stroke-opacity="0.333333" points="519.4237,-539.2079 522.1856,-528.9794 513.6479,-535.2531 519.4237,-539.2079"/>
</g>
<!-- device&#45;mapper&#45;libs&#45;&gt;device&#45;mapper -->
<g id="edge2" class="edge">
<title>device&#45;mapper&#45;libs&#45;&gt;device&#45;mapper</title>
<path fill="none" stroke="#444444" stroke-opacity="0.333333" d="M279.3314,-894.781C301.9183,-869.1745 337.792,-822.3847 357.6574,-792.722"/>
<polygon fill="#444444" fill-opacity="0.333333" stroke="#444444" stroke-opacity="0.333333" points="360.7439,-794.3964 363.2761,-784.1086 354.881,-790.5719 360.7439,-794.3964"/>
</g>
<!-- device&#45;mapper&#45;&gt;Fedora Container Base -->
<g id="edge33" class="edge">
<title>device&#45;mapper&#45;&gt;Fedora Container Base</title>
<path fill="none" stroke="#444444" stroke-opacity="0.333333" d="M383.4646,-747.5111C411.7923,-703.1509 484.1519,-589.8388 517.3695,-537.8213"/>
<polygon fill="#444444" fill-opacity="0.333333" stroke="#444444" stroke-opacity="0.333333" points="520.4792,-539.4547 522.9115,-529.1428 514.5795,-535.6872 520.4792,-539.4547"/>
</g>
<!-- device&#45;mapper&#45;&gt;device&#45;mapper&#45;libs -->
<g id="edge34" class="edge">
<title>device&#45;mapper&#45;&gt;device&#45;mapper&#45;libs</title>
<path fill="none" stroke="#444444" stroke-opacity="0.333333" d="M351.7586,-783.929C329.1717,-809.5355 293.298,-856.3253 273.4326,-885.988"/>
<polygon fill="#444444" fill-opacity="0.333333" stroke="#444444" stroke-opacity="0.333333" points="270.3461,-884.3136 267.8139,-894.6014 276.209,-888.1381 270.3461,-884.3136"/>
</g>
<!-- device&#45;mapper&#45;&gt;systemd -->
<g id="edge35" class="edge">
<title>device&#45;mapper&#45;&gt;systemd</title>
<path fill="none" stroke="#444444" stroke-opacity="0.333333" d="M408.6071,-747.7069C469.719,-717.6325 591.8895,-657.5101 658.4333,-624.7627"/>
<polygon fill="#444444" fill-opacity="0.333333" stroke="#444444" stroke-opacity="0.333333" points="660.0146,-627.8854 667.4416,-620.3295 656.9237,-621.6047 660.0146,-627.8854"/>
</g>
<!-- device&#45;mapper&#45;&gt;util&#45;linux -->
<g id="edge36" class="edge">
<title>device&#45;mapper&#45;&gt;util&#45;linux</title>
<path fill="none" stroke="#444444" stroke-opacity="0.333333" d="M358.4418,-747.7721C343.2432,-727.1531 318.2505,-693.2471 300.8909,-669.6963"/>
<polygon fill="#444444" fill-opacity="0.333333" stroke="#444444" stroke-opacity="0.333333" points="303.6236,-667.5049 294.8728,-661.532 297.9889,-671.6583 303.6236,-667.5049"/>
</g>
<!-- libargon2&#45;&gt;Fedora Container Base -->
<g id="edge3" class="edge">
<title>libargon2&#45;&gt;Fedora Container Base</title>
<path fill="none" stroke="#444444" stroke-opacity="0.333333" d="M450.0391,-1029.7281C462.9339,-950.5391 514.2719,-635.265 529.9435,-539.0235"/>
<polygon fill="#444444" fill-opacity="0.333333" stroke="#444444" stroke-opacity="0.333333" points="533.3989,-539.58 531.5517,-529.1474 526.4899,-538.4549 533.3989,-539.58"/>
</g>
<!-- dbus&#45;broker&#45;&gt;Fedora Container Base -->
<g id="edge4" class="edge">
<title>dbus&#45;broker&#45;&gt;Fedora Container Base</title>
<path fill="none" stroke="#444444" stroke-opacity="0.333333" d="M763.0292,-649.9701C715.9598,-621.3415 624.112,-565.4778 572.3416,-533.9899"/>
<polygon fill="#444444" fill-opacity="0.333333" stroke="#444444" stroke-opacity="0.333333" points="574.1381,-530.9861 563.7755,-528.7799 570.5005,-536.9667 574.1381,-530.9861"/>
</g>
<!-- dbus&#45;broker&#45;&gt;dbus&#45;common -->
<g id="edge5" class="edge">
<title>dbus&#45;broker&#45;&gt;dbus&#45;common</title>
<path fill="none" stroke="#444444" stroke-opacity="0.333333" d="M798.1735,-686.1871C805.2406,-709.4406 817.5424,-749.9181 825.8043,-777.1031"/>
<polygon fill="#444444" fill-opacity="0.333333" stroke="#444444" stroke-opacity="0.333333" points="822.497,-778.2574 828.7537,-786.8075 829.1945,-776.2219 822.497,-778.2574"/>
</g>
<!-- dbus&#45;broker&#45;&gt;shadow&#45;utils -->
<g id="edge6" class="edge">
<title>dbus&#45;broker&#45;&gt;shadow&#45;utils</title>
<path fill="none" stroke="#444444" stroke-opacity="0.333333" d="M759.621,-649.9648C692.5484,-613.37 540.4556,-530.3882 466.3634,-489.9634"/>
<polygon fill="#444444" fill-opacity="0.333333" stroke="#444444" stroke-opacity="0.333333" points="467.7522,-486.7342 457.2974,-485.0171 464.3995,-492.8791 467.7522,-486.7342"/>
</g>
<!-- dbus&#45;broker&#45;&gt;systemd -->
<g id="edge7" class="edge">
<title>dbus&#45;broker&#45;&gt;systemd</title>
<path fill="none" stroke="#444444" stroke-opacity="0.333333" d="M768.0045,-649.6677C758.3254,-642.473 747.0776,-634.1121 736.7456,-626.4321"/>
<polygon fill="#444444" fill-opacity="0.333333" stroke="#444444" stroke-opacity="0.333333" points="738.817,-623.6108 728.7034,-620.454 734.641,-629.2287 738.817,-623.6108"/>
</g>
<!-- dbus&#45;common&#45;&gt;Fedora Container Base -->
<g id="edge8" class="edge">
<title>dbus&#45;common&#45;&gt;Fedora Container Base</title>
<path fill="none" stroke="#444444" stroke-opacity="0.333333" d="M815.5562,-786.6921C763.9069,-736.0231 619.5047,-594.3616 560.315,-536.2953"/>
<polygon fill="#444444" fill-opacity="0.333333" stroke="#444444" stroke-opacity="0.333333" points="562.4635,-533.5 552.874,-528.9954 557.5614,-538.4969 562.4635,-533.5"/>
</g>
<!-- dbus&#45;common&#45;&gt;dbus&#45;common -->
<g id="edge9" class="edge">
<title>dbus&#45;common&#45;&gt;dbus&#45;common</title>
<path fill="none" stroke="#444444" stroke-opacity="0.333333" d="M911.8755,-811.1133C922.625,-810.1212 929.81,-808.1134 929.81,-805.09 929.81,-803.1531 926.8613,-801.6331 921.9157,-800.5298"/>
<polygon fill="#444444" fill-opacity="0.333333" stroke="#444444" stroke-opacity="0.333333" points="922.2757,-797.0454 911.8755,-799.0667 921.2662,-803.9723 922.2757,-797.0454"/>
</g>
<!-- dbus&#45;common&#45;&gt;systemd -->
<g id="edge10" class="edge">
<title>dbus&#45;common&#45;&gt;systemd</title>
<path fill="none" stroke="#444444" stroke-opacity="0.333333" d="M822.7636,-787.0884C799.8188,-751.3159 748.3805,-671.1202 721.4248,-629.0946"/>
<polygon fill="#444444" fill-opacity="0.333333" stroke="#444444" stroke-opacity="0.333333" points="724.2526,-627.0205 715.9075,-620.4928 718.3605,-630.7998 724.2526,-627.0205"/>
</g>
<!-- shadow&#45;utils&#45;&gt;Fedora Container Base -->
<g id="edge11" class="edge">
<title>shadow&#45;utils&#45;&gt;Fedora Container Base</title>
<path fill="none" stroke="#444444" stroke-opacity="0.333333" d="M469.3974,-484.9975C473.4798,-486.6266 477.6376,-488.2857 481.7772,-489.9376"/>
<polygon fill="#444444" fill-opacity="0.333333" stroke="#444444" stroke-opacity="0.333333" points="480.7743,-493.3057 491.3593,-493.7612 483.3687,-486.8042 480.7743,-493.3057"/>
</g>
<!-- shadow&#45;utils&#45;&gt;shadow&#45;utils -->
<g id="edge12" class="edge">
<title>shadow&#45;utils&#45;&gt;shadow&#45;utils</title>
<path fill="none" stroke="#444444" stroke-opacity="0.333333" d="M495.0456,-473.0934C505.589,-472.14 512.72,-470.0989 512.72,-466.97 512.72,-465.0144 509.9344,-463.4838 505.2712,-462.378"/>
<polygon fill="#444444" fill-opacity="0.333333" stroke="#444444" stroke-opacity="0.333333" points="505.4538,-458.8664 495.0456,-460.8466 504.4169,-465.7892 505.4538,-458.8664"/>
</g>
<!-- shadow&#45;utils&#45;&gt;libsemanage -->
<g id="edge13" class="edge">
<title>shadow&#45;utils&#45;&gt;libsemanage</title>
<path fill="none" stroke="#444444" stroke-opacity="0.333333" d="M380.0185,-448.9009C329.595,-428.2883 247.1486,-394.5851 193.0584,-372.4736"/>
<polygon fill="#444444" fill-opacity="0.333333" stroke="#444444" stroke-opacity="0.333333" points="194.216,-369.1657 183.6352,-368.6215 191.5672,-375.6452 194.216,-369.1657"/>
</g>
<!-- systemd&#45;&gt;Fedora Container Base -->
<g id="edge14" class="edge">
<title>systemd&#45;&gt;Fedora Container Base</title>
<path fill="none" stroke="#444444" stroke-opacity="0.333333" d="M670.6747,-584.21C643.5694,-569.6326 605.2709,-549.0355 576.1922,-533.3968"/>
<polygon fill="#444444" fill-opacity="0.333333" stroke="#444444" stroke-opacity="0.333333" points="577.5658,-530.1616 567.1008,-528.5075 574.2502,-536.3265 577.5658,-530.1616"/>
</g>
<!-- systemd&#45;&gt;shadow&#45;utils -->
<g id="edge15" class="edge">
<title>systemd&#45;&gt;shadow&#45;utils</title>
<path fill="none" stroke="#444444" stroke-opacity="0.333333" d="M666.7312,-584.1372C616.1628,-559.7056 526.0859,-516.1857 471.0918,-489.6157"/>
<polygon fill="#444444" fill-opacity="0.333333" stroke="#444444" stroke-opacity="0.333333" points="472.4408,-486.3804 461.914,-485.1816 469.3956,-492.6834 472.4408,-486.3804"/>
</g>
<!-- systemd&#45;&gt;systemd -->
<g id="edge16" class="edge">
<title>systemd&#45;&gt;systemd</title>
<path fill="none" stroke="#444444" stroke-opacity="0.333333" d="M765.8667,-608.5413C776.4013,-607.6803 783.7,-605.5798 783.7,-602.24 783.7,-600.1004 780.7046,-598.4695 775.782,-597.3472"/>
<polygon fill="#444444" fill-opacity="0.333333" stroke="#444444" stroke-opacity="0.333333" points="776.2596,-593.88 765.8667,-595.9387 775.2751,-600.8104 776.2596,-593.88"/>
</g>
<!-- systemd&#45;&gt;util&#45;linux -->
<g id="edge17" class="edge">
<title>systemd&#45;&gt;util&#45;linux</title>
<path fill="none" stroke="#444444" stroke-opacity="0.333333" d="M642.2831,-608.2676C566.3046,-615.6642 437.5751,-628.196 356.1857,-636.1193"/>
<polygon fill="#444444" fill-opacity="0.333333" stroke="#444444" stroke-opacity="0.333333" points="355.6241,-632.6574 346.0103,-637.1099 356.3024,-639.6244 355.6241,-632.6574"/>
</g>
<!-- systemd&#45;&gt;acl -->
<g id="edge18" class="edge">
<title>systemd&#45;&gt;acl</title>
<path fill="none" stroke="#444444" stroke-opacity="0.333333" d="M704.7899,-584.0023C706.3202,-536.687 710.4265,-409.7256 712.2708,-352.6993"/>
<polygon fill="#444444" fill-opacity="0.333333" stroke="#444444" stroke-opacity="0.333333" points="715.7728,-352.6928 712.598,-342.5849 708.7764,-352.4665 715.7728,-352.6928"/>
</g>
<!-- systemd&#45;&gt;cryptsetup&#45;libs -->
<g id="edge19" class="edge">
<title>systemd&#45;&gt;cryptsetup&#45;libs</title>
<path fill="none" stroke="#444444" stroke-opacity="0.333333" d="M690.6031,-620.3795C652.7056,-670.9385 545.7627,-813.6106 501.2766,-872.9594"/>
<polygon fill="#444444" fill-opacity="0.333333" stroke="#444444" stroke-opacity="0.333333" points="498.3792,-870.9894 495.1819,-881.0903 503.9803,-875.1879 498.3792,-870.9894"/>
</g>
<!-- systemd&#45;&gt;dbus -->
<g id="edge20" class="edge">
<title>systemd&#45;&gt;dbus</title>
<path fill="none" stroke="#444444" stroke-opacity="0.333333" d="M743.6334,-620.248C814.4649,-652.5945 963.0448,-720.4462 1040.4101,-755.7765"/>
<polygon fill="#444444" fill-opacity="0.333333" stroke="#444444" stroke-opacity="0.333333" points="1039.384,-759.1556 1049.9343,-760.1259 1042.2918,-752.7881 1039.384,-759.1556"/>
</g>
<!-- systemd&#45;&gt;iptables&#45;libs -->
<g id="edge21" class="edge">
<title>systemd&#45;&gt;iptables&#45;libs</title>
<path fill="none" stroke="#444444" stroke-opacity="0.333333" d="M684.3146,-584.1255C629.5674,-534.2538 476.5372,-394.8519 413.736,-337.6436"/>
<polygon fill="#444444" fill-opacity="0.333333" stroke="#444444" stroke-opacity="0.333333" points="415.9375,-334.9145 406.1879,-330.7677 411.2235,-340.0893 415.9375,-334.9145"/>
</g>
<!-- systemd&#45;&gt;kmod&#45;libs -->
<g id="edge22" class="edge">
<title>systemd&#45;&gt;kmod&#45;libs</title>
<path fill="none" stroke="#444444" stroke-opacity="0.333333" d="M712.9107,-584.0281C738.069,-531.4281 810.954,-379.0432 840.987,-316.2516"/>
<polygon fill="#444444" fill-opacity="0.333333" stroke="#444444" stroke-opacity="0.333333" points="844.2679,-317.5036 845.4253,-306.9722 837.953,-314.4832 844.2679,-317.5036"/>
</g>
<!-- systemd&#45;&gt;libseccomp -->
<g id="edge23" class="edge">
<title>systemd&#45;&gt;libseccomp</title>
<path fill="none" stroke="#444444" stroke-opacity="0.333333" d="M725.6771,-584.1057C760.4503,-554.745 829.1399,-496.7468 868.472,-463.5367"/>
<polygon fill="#444444" fill-opacity="0.333333" stroke="#444444" stroke-opacity="0.333333" points="871.014,-465.9711 876.3967,-456.8455 866.498,-460.6227 871.014,-465.9711"/>
</g>
<!-- systemd&#45;&gt;qrencode&#45;libs -->
<g id="edge24" class="edge">
<title>systemd&#45;&gt;qrencode&#45;libs</title>
<path fill="none" stroke="#444444" stroke-opacity="0.333333" d="M704.0297,-620.2414C703.5509,-670.8329 702.1906,-814.5904 701.609,-876.0487"/>
<polygon fill="#444444" fill-opacity="0.333333" stroke="#444444" stroke-opacity="0.333333" points="698.1079,-876.1581 701.5131,-886.1908 705.1076,-876.2244 698.1079,-876.1581"/>
</g>
<!-- systemd&#45;&gt;systemd&#45;pam -->
<g id="edge25" class="edge">
<title>systemd&#45;&gt;systemd&#45;pam</title>
<path fill="none" stroke="#444444" stroke-opacity="0.333333" d="M681.4339,-620.4612C650.6982,-650.4168 596.8863,-709.8855 569.1853,-744.4412"/>
<polygon fill="#444444" fill-opacity="0.333333" stroke="#444444" stroke-opacity="0.333333" points="566.1576,-742.6298 562.7351,-752.6566 571.6634,-746.9525 566.1576,-742.6298"/>
</g>
<!-- systemd&#45;&gt;systemd&#45;rpm&#45;macros -->
<g id="edge26" class="edge">
<title>systemd&#45;&gt;systemd&#45;rpm&#45;macros</title>
<path fill="none" stroke="#444444" stroke-opacity="0.333333" d="M718.6948,-620.4066C770.7841,-685.6907 948.6664,-908.633 1010.3954,-985.9986"/>
<polygon fill="#444444" fill-opacity="0.333333" stroke="#444444" stroke-opacity="0.333333" points="1008.0282,-988.6437 1017.001,-994.2775 1013.4999,-984.2778 1008.0282,-988.6437"/>
</g>
<!-- systemd&#45;&gt;diffutils -->
<g id="edge27" class="edge">
<title>systemd&#45;&gt;diffutils</title>
<path fill="none" stroke="#444444" stroke-dasharray="5,2" stroke-opacity="0.333333" d="M765.7776,-599.8427C803.0548,-598.3914 850.616,-596.5397 888.8451,-595.0514"/>
<polygon fill="#444444" fill-opacity="0.333333" stroke="#444444" stroke-opacity="0.333333" points="888.9999,-598.5481 898.8561,-594.6616 888.7275,-591.5534 888.9999,-598.5481"/>
</g>
<!-- systemd&#45;&gt;libxkbcommon -->
<g id="edge28" class="edge">
<title>systemd&#45;&gt;libxkbcommon</title>
<path fill="none" stroke="#444444" stroke-dasharray="5,2" stroke-opacity="0.333333" d="M733.4157,-584.2189C799.648,-543.3649 961.1647,-443.7366 1034.8438,-398.2891"/>
<polygon fill="#444444" fill-opacity="0.333333" stroke="#444444" stroke-opacity="0.333333" points="1036.7077,-401.2518 1043.3813,-393.0229 1033.0327,-395.294 1036.7077,-401.2518"/>
</g>
<!-- libsemanage&#45;&gt;Fedora Container Base -->
<g id="edge40" class="edge">
<title>libsemanage&#45;&gt;Fedora Container Base</title>
<path fill="none" stroke="#444444" stroke-opacity="0.333333" d="M183.894,-368.606C257.5495,-398.5152 404.3027,-458.107 482.5518,-489.8814"/>
<polygon fill="#444444" fill-opacity="0.333333" stroke="#444444" stroke-opacity="0.333333" points="481.6228,-493.2817 492.2049,-493.8013 484.2565,-486.796 481.6228,-493.2817"/>
</g>
<!-- libsemanage&#45;&gt;libsemanage -->
<g id="edge41" class="edge">
<title>libsemanage&#45;&gt;libsemanage</title>
<path fill="none" stroke="#444444" stroke-opacity="0.333333" d="M214.9025,-356.5674C225.6309,-355.5877 232.83,-353.5686 232.83,-350.51 232.83,-348.5506 229.8755,-347.0178 224.9313,-345.9115"/>
<polygon fill="#444444" fill-opacity="0.333333" stroke="#444444" stroke-opacity="0.333333" points="225.3023,-342.4287 214.9025,-344.4526 224.2945,-349.3558 225.3023,-342.4287"/>
</g>
<!-- util&#45;linux&#45;&gt;Fedora Container Base -->
<g id="edge29" class="edge">
<title>util&#45;linux&#45;&gt;Fedora Container Base</title>
<path fill="none" stroke="#444444" stroke-opacity="0.333333" d="M316.1495,-625.2566C361.9212,-601.3024 442.5009,-559.1319 491.932,-533.2627"/>
<polygon fill="#444444" fill-opacity="0.333333" stroke="#444444" stroke-opacity="0.333333" points="493.8464,-536.2112 501.0836,-528.4734 490.6006,-530.0092 493.8464,-536.2112"/>
</g>
<!-- util&#45;linux&#45;&gt;util&#45;linux -->
<g id="edge30" class="edge">
<title>util&#45;linux&#45;&gt;util&#45;linux</title>
<path fill="none" stroke="#444444" stroke-opacity="0.333333" d="M346.1797,-649.6353C356.7415,-648.7413 364,-646.6595 364,-643.39 364,-641.2955 361.0211,-639.6884 356.1032,-638.5687"/>
<polygon fill="#444444" fill-opacity="0.333333" stroke="#444444" stroke-opacity="0.333333" points="356.5755,-635.1007 346.1797,-637.1447 355.5811,-642.0298 356.5755,-635.1007"/>
</g>
<!-- util&#45;linux&#45;&gt;libfdisk -->
<g id="edge31" class="edge">
<title>util&#45;linux&#45;&gt;libfdisk</title>
<path fill="none" stroke="#444444" stroke-opacity="0.333333" d="M216.8376,-653.7301C189.657,-658.0766 157.9686,-663.1439 130.2186,-667.5814"/>
<polygon fill="#444444" fill-opacity="0.333333" stroke="#444444" stroke-opacity="0.333333" points="129.5106,-664.15 120.1887,-669.1852 130.616,-671.0622 129.5106,-664.15"/>
</g>
<!-- util&#45;linux&#45;&gt;libutempter -->
<g id="edge32" class="edge">
<title>util&#45;linux&#45;&gt;libutempter</title>
<path fill="none" stroke="#444444" stroke-opacity="0.333333" d="M262.9366,-625.3525C239.4431,-602.5245 198.833,-563.0649 172.1794,-537.1664"/>
<polygon fill="#444444" fill-opacity="0.333333" stroke="#444444" stroke-opacity="0.333333" points="174.3352,-534.381 164.7242,-529.9224 169.4571,-539.4013 174.3352,-534.381"/>
</g>
<!-- acl&#45;&gt;Fedora Container Base -->
<g id="edge52" class="edge">
<title>acl&#45;&gt;Fedora Container Base</title>
<path fill="none" stroke="#444444" stroke-opacity="0.333333" d="M695.7321,-342.5215C663.759,-375.9297 595.7281,-447.0142 559.0925,-485.2941"/>
<polygon fill="#444444" fill-opacity="0.333333" stroke="#444444" stroke-opacity="0.333333" points="556.1613,-483.2948 551.7757,-492.9393 561.2185,-488.1347 556.1613,-483.2948"/>
</g>
<!-- cryptsetup&#45;libs&#45;&gt;Fedora Container Base -->
<g id="edge53" class="edge">
<title>cryptsetup&#45;libs&#45;&gt;Fedora Container Base</title>
<path fill="none" stroke="#444444" stroke-opacity="0.333333" d="M483.9666,-881.1581C492.4566,-818.9779 520.3403,-614.7584 530.641,-539.3166"/>
<polygon fill="#444444" fill-opacity="0.333333" stroke="#444444" stroke-opacity="0.333333" points="534.1437,-539.5341 532.0288,-529.1525 527.208,-538.5871 534.1437,-539.5341"/>
</g>
<!-- cryptsetup&#45;libs&#45;&gt;device&#45;mapper&#45;libs -->
<g id="edge54" class="edge">
<title>cryptsetup&#45;libs&#45;&gt;device&#45;mapper&#45;libs</title>
<path fill="none" stroke="#444444" stroke-opacity="0.333333" d="M404.4062,-904.0538C391.8236,-904.8184 378.5967,-905.6222 365.4623,-906.4204"/>
<polygon fill="#444444" fill-opacity="0.333333" stroke="#444444" stroke-opacity="0.333333" points="365.2177,-902.9287 355.4484,-907.0289 365.6424,-909.9158 365.2177,-902.9287"/>
</g>
<!-- cryptsetup&#45;libs&#45;&gt;libargon2 -->
<g id="edge55" class="edge">
<title>cryptsetup&#45;libs&#45;&gt;libargon2</title>
<path fill="none" stroke="#444444" stroke-opacity="0.333333" d="M477.2619,-917.5827C471.3559,-943.083 460.5679,-989.663 453.6169,-1019.6753"/>
<polygon fill="#444444" fill-opacity="0.333333" stroke="#444444" stroke-opacity="0.333333" points="450.1793,-1019.0065 451.3326,-1029.5383 456.9987,-1020.5859 450.1793,-1019.0065"/>
</g>
<!-- dbus&#45;&gt;dbus&#45;broker -->
<g id="edge56" class="edge">
<title>dbus&#45;&gt;dbus&#45;broker</title>
<path fill="none" stroke="#444444" stroke-opacity="0.333333" d="M1047.0529,-762.4424C995.5831,-743.3319 908.6775,-711.0642 850.9829,-689.6425"/>
<polygon fill="#444444" fill-opacity="0.333333" stroke="#444444" stroke-opacity="0.333333" points="851.8686,-686.2379 841.2756,-686.0382 849.432,-692.8002 851.8686,-686.2379"/>
</g>
<!-- iptables&#45;libs&#45;&gt;Fedora Container Base -->
<g id="edge57" class="edge">
<title>iptables&#45;libs&#45;&gt;Fedora Container Base</title>
<path fill="none" stroke="#444444" stroke-opacity="0.333333" d="M399.9867,-330.962C426.4114,-366.3234 484.5571,-444.1334 515.0213,-484.9003"/>
<polygon fill="#444444" fill-opacity="0.333333" stroke="#444444" stroke-opacity="0.333333" points="512.2907,-487.0933 521.0804,-493.0087 517.898,-482.9031 512.2907,-487.0933"/>
</g>
<!-- iptables&#45;libs&#45;&gt;libpcap -->
<g id="edge58" class="edge">
<title>iptables&#45;libs&#45;&gt;libpcap</title>
<path fill="none" stroke="#444444" stroke-opacity="0.333333" d="M360.5348,-294.4803C325.406,-269.7035 262.4091,-225.2708 223.3584,-197.7277"/>
<polygon fill="#444444" fill-opacity="0.333333" stroke="#444444" stroke-opacity="0.333333" points="225.1208,-194.6878 214.9316,-191.7841 221.0861,-200.4081 225.1208,-194.6878"/>
</g>
<!-- kmod&#45;libs&#45;&gt;Fedora Container Base -->
<g id="edge59" class="edge">
<title>kmod&#45;libs&#45;&gt;Fedora Container Base</title>
<path fill="none" stroke="#444444" stroke-opacity="0.333333" d="M828.2725,-306.711C770.924,-346.5885 633.1743,-442.3734 568.777,-487.1523"/>
<polygon fill="#444444" fill-opacity="0.333333" stroke="#444444" stroke-opacity="0.333333" points="566.4052,-484.5385 560.1931,-493.1211 570.4015,-490.2857 566.4052,-484.5385"/>
</g>
<!-- libseccomp&#45;&gt;Fedora Container Base -->
<g id="edge60" class="edge">
<title>libseccomp&#45;&gt;Fedora Container Base</title>
<path fill="none" stroke="#444444" stroke-opacity="0.333333" d="M826.162,-452.924C766.8565,-464.7293 682.5338,-481.5145 619.7987,-494.0025"/>
<polygon fill="#444444" fill-opacity="0.333333" stroke="#444444" stroke-opacity="0.333333" points="619.0468,-490.5834 609.9226,-495.9684 620.4135,-497.4487 619.0468,-490.5834"/>
</g>
<!-- qrencode&#45;libs&#45;&gt;Fedora Container Base -->
<g id="edge61" class="edge">
<title>qrencode&#45;libs&#45;&gt;Fedora Container Base</title>
<path fill="none" stroke="#444444" stroke-opacity="0.333333" d="M693.628,-886.2899C666.8885,-823.2196 578.05,-613.6773 546.0902,-538.2941"/>
<polygon fill="#444444" fill-opacity="0.333333" stroke="#444444" stroke-opacity="0.333333" points="549.2659,-536.8178 542.1402,-528.9772 542.8212,-539.5501 549.2659,-536.8178"/>
</g>
<!-- systemd&#45;pam&#45;&gt;Fedora Container Base -->
<g id="edge62" class="edge">
<title>systemd&#45;pam&#45;&gt;Fedora Container Base</title>
<path fill="none" stroke="#444444" stroke-opacity="0.333333" d="M550.6028,-752.5764C547.6294,-707.9374 539.9789,-593.0837 536.4039,-539.4121"/>
<polygon fill="#444444" fill-opacity="0.333333" stroke="#444444" stroke-opacity="0.333333" points="539.8828,-538.9786 535.7259,-529.2334 532.8983,-539.4439 539.8828,-538.9786"/>
</g>
<!-- systemd&#45;pam&#45;&gt;systemd -->
<g id="edge63" class="edge">
<title>systemd&#45;pam&#45;&gt;systemd</title>
<path fill="none" stroke="#444444" stroke-opacity="0.333333" d="M574.5861,-752.6288C605.3218,-722.6732 659.1337,-663.2045 686.8347,-628.6488"/>
<polygon fill="#444444" fill-opacity="0.333333" stroke="#444444" stroke-opacity="0.333333" points="689.8624,-630.4602 693.2849,-620.4334 684.3566,-626.1375 689.8624,-630.4602"/>
</g>
<!-- diffutils&#45;&gt;Fedora Container Base -->
<g id="edge67" class="edge">
<title>diffutils&#45;&gt;Fedora Container Base</title>
<path fill="none" stroke="#444444" stroke-opacity="0.333333" d="M898.6482,-581.3692C827.2854,-567.5745 704.637,-543.8661 621.6057,-527.8159"/>
<polygon fill="#444444" fill-opacity="0.333333" stroke="#444444" stroke-opacity="0.333333" points="622.1649,-524.3593 611.6824,-525.8977 620.8364,-531.2321 622.1649,-524.3593"/>
</g>
<!-- libxkbcommon&#45;&gt;Fedora Container Base -->
<g id="edge68" class="edge">
<title>libxkbcommon&#45;&gt;Fedora Container Base</title>
<path fill="none" stroke="#444444" stroke-opacity="0.333333" d="M1001.1458,-393.0571C898.6754,-418.9523 710.9792,-466.3847 607.6068,-492.5078"/>
<polygon fill="#444444" fill-opacity="0.333333" stroke="#444444" stroke-opacity="0.333333" points="606.7096,-489.1244 597.8719,-494.9679 608.4247,-495.9111 606.7096,-489.1244"/>
</g>
<!-- libxkbcommon&#45;&gt;xkeyboard&#45;config -->
<g id="edge69" class="edge">
<title>libxkbcommon&#45;&gt;xkeyboard&#45;config</title>
<path fill="none" stroke="#444444" stroke-opacity="0.333333" d="M1120.4159,-356.9234C1198.2523,-327.4978 1352.0433,-269.3579 1435.6384,-237.7553"/>
<polygon fill="#444444" fill-opacity="0.333333" stroke="#444444" stroke-opacity="0.333333" points="1437.1125,-240.9398 1445.2288,-234.1297 1434.6372,-234.3921 1437.1125,-240.9398"/>
</g>
<!-- libfdisk&#45;&gt;Fedora Container Base -->
<g id="edge64" class="edge">
<title>libfdisk&#45;&gt;Fedora Container Base</title>
<path fill="none" stroke="#444444" stroke-opacity="0.333333" d="M111.2317,-660.6898C200.457,-629.1316 383.7487,-564.3029 477.1142,-531.2804"/>
<polygon fill="#444444" fill-opacity="0.333333" stroke="#444444" stroke-opacity="0.333333" points="478.42,-534.5311 486.6806,-527.8968 476.0858,-527.9317 478.42,-534.5311"/>
</g>
<!-- libutempter&#45;&gt;Fedora Container Base -->
<g id="edge65" class="edge">
<title>libutempter&#45;&gt;Fedora Container Base</title>
<path fill="none" stroke="#444444" stroke-opacity="0.333333" d="M214.0766,-511.5573C262.016,-511.4709 328.0099,-511.352 387.6528,-511.2446"/>
<polygon fill="#444444" fill-opacity="0.333333" stroke="#444444" stroke-opacity="0.333333" points="387.9419,-514.7441 397.9356,-511.226 387.9292,-507.7442 387.9419,-514.7441"/>
</g>
<!-- libutempter&#45;&gt;shadow&#45;utils -->
<g id="edge66" class="edge">
<title>libutempter&#45;&gt;shadow&#45;utils</title>
<path fill="none" stroke="#444444" stroke-opacity="0.333333" d="M214.0225,-500.7427C253.1162,-494.4615 302.4414,-486.5363 343.4839,-479.942"/>
<polygon fill="#444444" fill-opacity="0.333333" stroke="#444444" stroke-opacity="0.333333" points="344.1386,-483.3818 353.4567,-478.3396 343.0281,-476.4704 344.1386,-483.3818"/>
</g>
<!-- libpcap&#45;&gt;Fedora Container Base -->
<g id="edge37" class="edge">
<title>libpcap&#45;&gt;Fedora Container Base</title>
<path fill="none" stroke="#444444" stroke-opacity="0.333333" d="M207.7181,-191.739C265.4586,-248.1454 441.9719,-420.5801 508.6441,-485.7118"/>
<polygon fill="#444444" fill-opacity="0.333333" stroke="#444444" stroke-opacity="0.333333" points="506.2511,-488.267 515.8501,-492.7513 511.1427,-483.2597 506.2511,-488.267"/>
</g>
<!-- libicu&#45;&gt;Fedora Container Base -->
<g id="edge38" class="edge">
<title>libicu&#45;&gt;Fedora Container Base</title>
<path fill="none" stroke="#444444" stroke-opacity="0.333333" d="M688.8016,-70.2518C664.0091,-141.0708 574.1716,-397.688 544.268,-483.1067"/>
<polygon fill="#444444" fill-opacity="0.333333" stroke="#444444" stroke-opacity="0.333333" points="540.9275,-482.0562 540.9267,-492.651 547.5344,-484.3691 540.9275,-482.0562"/>
</g>
<!-- libicu&#45;&gt;libicu -->
<g id="edge39" class="edge">
<title>libicu&#45;&gt;libicu</title>
<path fill="none" stroke="#444444" stroke-opacity="0.333333" d="M750.2733,-58.402C760.7741,-57.633 768.2,-55.4906 768.2,-51.975 768.2,-49.7228 765.1524,-48.0342 760.2011,-46.9092"/>
<polygon fill="#444444" fill-opacity="0.333333" stroke="#444444" stroke-opacity="0.333333" points="760.6561,-43.4389 750.2733,-45.548 759.7051,-50.374 760.6561,-43.4389"/>
</g>
<!-- libpq&#45;&gt;Fedora Container Base -->
<g id="edge42" class="edge">
<title>libpq&#45;&gt;Fedora Container Base</title>
<path fill="none" stroke="#444444" stroke-opacity="0.333333" d="M514.7447,-36.1301C517.8401,-110.4954 529.5773,-392.4754 533.341,-482.8955"/>
<polygon fill="#444444" fill-opacity="0.333333" stroke="#444444" stroke-opacity="0.333333" points="529.8464,-483.1001 533.7593,-492.9459 536.8403,-482.8089 529.8464,-483.1001"/>
</g>
<!-- postgresql&#45;&gt;Fedora Container Base -->
<g id="edge43" class="edge">
<title>postgresql&#45;&gt;Fedora Container Base</title>
<path fill="none" stroke="#444444" stroke-opacity="0.333333" d="M387.2079,-77.4353C411.008,-147.4847 496.5238,-399.1777 525.1205,-483.3444"/>
<polygon fill="#444444" fill-opacity="0.333333" stroke="#444444" stroke-opacity="0.333333" points="521.862,-484.6339 528.393,-492.9763 528.4899,-482.382 521.862,-484.6339"/>
</g>
<!-- postgresql&#45;&gt;libpq -->
<g id="edge44" class="edge">
<title>postgresql&#45;&gt;libpq</title>
<path fill="none" stroke="#444444" stroke-opacity="0.333333" d="M439.3314,-41.1089C443.039,-39.9613 446.781,-38.803 450.5103,-37.6487"/>
<polygon fill="#444444" fill-opacity="0.333333" stroke="#444444" stroke-opacity="0.333333" points="451.8022,-40.9127 460.3201,-34.6123 449.7323,-34.2257 451.8022,-40.9127"/>
</g>
<!-- postgresql&#45;server&#45;&gt;Fedora Container Base -->
<g id="edge45" class="edge">
<title>postgresql&#45;server&#45;&gt;Fedora Container Base</title>
<path fill="none" stroke="#444444" stroke-opacity="0.333333" d="M551.5813,-243.6987C548.4862,-292.1572 540.0599,-424.0867 536.3291,-482.4981"/>
<polygon fill="#444444" fill-opacity="0.333333" stroke="#444444" stroke-opacity="0.333333" points="532.8136,-482.6309 535.669,-492.8337 539.7994,-483.0771 532.8136,-482.6309"/>
</g>
<!-- postgresql&#45;server&#45;&gt;shadow&#45;utils -->
<g id="edge46" class="edge">
<title>postgresql&#45;server&#45;&gt;shadow&#45;utils</title>
<path fill="none" stroke="#444444" stroke-opacity="0.333333" d="M543.0894,-243.557C520.6572,-285.7178 464.9477,-390.423 438.5411,-440.0537"/>
<polygon fill="#444444" fill-opacity="0.333333" stroke="#444444" stroke-opacity="0.333333" points="435.4247,-438.4596 433.8174,-448.9318 441.6045,-441.7476 435.4247,-438.4596"/>
</g>
<!-- postgresql&#45;server&#45;&gt;systemd -->
<g id="edge47" class="edge">
<title>postgresql&#45;server&#45;&gt;systemd</title>
<path fill="none" stroke="#444444" stroke-opacity="0.333333" d="M560.0547,-243.5758C584.4902,-304.3765 663.4923,-500.9506 692.9711,-574.3"/>
<polygon fill="#444444" fill-opacity="0.333333" stroke="#444444" stroke-opacity="0.333333" points="689.8145,-575.8316 696.7911,-583.8051 696.3095,-573.2212 689.8145,-575.8316"/>
</g>
<!-- postgresql&#45;server&#45;&gt;libicu -->
<g id="edge48" class="edge">
<title>postgresql&#45;server&#45;&gt;libicu</title>
<path fill="none" stroke="#444444" stroke-opacity="0.333333" d="M567.7254,-207.1683C593.0536,-176.3326 644.437,-113.7762 673.6404,-78.2226"/>
<polygon fill="#444444" fill-opacity="0.333333" stroke="#444444" stroke-opacity="0.333333" points="676.5688,-80.1716 680.2115,-70.2227 671.1596,-75.7286 676.5688,-80.1716"/>
</g>
<!-- postgresql&#45;server&#45;&gt;libpq -->
<g id="edge49" class="edge">
<title>postgresql&#45;server&#45;&gt;libpq</title>
<path fill="none" stroke="#444444" stroke-opacity="0.333333" d="M549.3781,-207.3574C542.6061,-171.1211 527.3103,-89.2755 519.2256,-46.0152"/>
<polygon fill="#444444" fill-opacity="0.333333" stroke="#444444" stroke-opacity="0.333333" points="522.6593,-45.3354 517.3817,-36.1485 515.7784,-46.6214 522.6593,-45.3354"/>
</g>
<!-- postgresql&#45;server&#45;&gt;postgresql -->
<g id="edge50" class="edge">
<title>postgresql&#45;server&#45;&gt;postgresql</title>
<path fill="none" stroke="#444444" stroke-opacity="0.333333" d="M534.0428,-207.2934C503.3281,-177.5648 442.1357,-118.3369 407.1483,-84.4728"/>
<polygon fill="#444444" fill-opacity="0.333333" stroke="#444444" stroke-opacity="0.333333" points="409.3038,-81.6882 399.6841,-77.2483 404.4355,-86.718 409.3038,-81.6882"/>
</g>
<!-- postgresql&#45;server&#45;&gt;postgresql&#45;server -->
<g id="edge51" class="edge">
<title>postgresql&#45;server&#45;&gt;postgresql&#45;server</title>
<path fill="none" stroke="#444444" stroke-opacity="0.333333" d="M696.7734,-230.4888C707.8941,-229.3638 714.75,-227.6676 714.75,-225.4 714.75,-223.9473 711.9363,-222.7291 706.9902,-221.7454"/>
<polygon fill="#444444" fill-opacity="0.333333" stroke="#444444" stroke-opacity="0.333333" points="707.1629,-218.2354 696.7734,-220.3112 706.1897,-225.1674 707.1629,-218.2354"/>
</g>
<!-- Fedora Container Base -->
<g id="node1" class="node">
<title>Fedora Container Base</title>
<ellipse fill="none" stroke="#000000" cx="534.51" cy="-510.98" rx="136.5" ry="18"/>
<text text-anchor="middle" x="534.51" y="-507.28" font-family="Helvetica,sans-Serif" font-weight="bold" font-size="14.00" fill="#000000">Fedora Container Base (201.6 MB)</text>
</g>
<!-- device&#45;mapper&#45;libs -->
<g id="node2" class="node">
<title>device&#45;mapper&#45;libs</title>
<text text-anchor="middle" x="259.33" y="-909.17" font-family="Helvetica,sans-Serif" font-weight="bold" font-size="14.00" fill="#000000">device&#45;mapper&#45;libs (414.2 kB)</text>
</g>
<!-- device&#45;mapper -->
<g id="node3" class="node">
<title>device&#45;mapper</title>
<text text-anchor="middle" x="371.76" y="-762.14" font-family="Helvetica,sans-Serif" font-weight="bold" font-size="14.00" fill="#000000">device&#45;mapper (350.0 kB)</text>
</g>
<!-- libargon2 -->
<g id="node4" class="node">
<title>libargon2</title>
<text text-anchor="middle" x="447.08" y="-1044.2" font-family="Helvetica,sans-Serif" font-weight="bold" font-size="14.00" fill="#000000">libargon2 (54.9 kB)</text>
</g>
<!-- dbus&#45;broker -->
<g id="node5" class="node">
<title>dbus&#45;broker</title>
<text text-anchor="middle" x="792.64" y="-664.28" font-family="Helvetica,sans-Serif" font-weight="bold" font-size="14.00" fill="#000000">dbus&#45;broker (423.2 kB)</text>
</g>
<!-- dbus&#45;common -->
<g id="node6" class="node">
<title>dbus&#45;common</title>
<text text-anchor="middle" x="834.31" y="-801.39" font-family="Helvetica,sans-Serif" font-weight="bold" font-size="14.00" fill="#000000">dbus&#45;common (11.2 kB)</text>
</g>
<!-- shadow&#45;utils -->
<g id="node7" class="node">
<title>shadow&#45;utils</title>
<text text-anchor="middle" x="424.22" y="-463.27" font-family="Helvetica,sans-Serif" font-weight="bold" font-size="14.00" fill="#000000">shadow&#45;utils (4.0 MB)</text>
</g>
<!-- systemd -->
<g id="node8" class="node">
<title>systemd</title>
<text text-anchor="middle" x="704.2" y="-598.54" font-family="Helvetica,sans-Serif" font-weight="bold" font-size="14.00" fill="#000000">systemd (11.9 MB)</text>
</g>
<!-- libsemanage -->
<g id="node9" class="node">
<title>libsemanage</title>
<text text-anchor="middle" x="139.33" y="-346.81" font-family="Helvetica,sans-Serif" font-weight="bold" font-size="14.00" fill="#000000">libsemanage (304.6 kB)</text>
</g>
<!-- util&#45;linux -->
<g id="node10" class="node">
<title>util&#45;linux</title>
<text text-anchor="middle" x="281.5" y="-639.69" font-family="Helvetica,sans-Serif" font-weight="bold" font-size="14.00" fill="#000000">util&#45;linux (13.2 MB)</text>
</g>
<!-- acl -->
<g id="node11" class="node">
<title>acl</title>
<text text-anchor="middle" x="713.19" y="-320.58" font-family="Helvetica,sans-Serif" font-weight="bold" font-size="14.00" fill="#000000">acl (212.0 kB)</text>
</g>
<!-- cryptsetup&#45;libs -->
<g id="node12" class="node">
<title>cryptsetup&#45;libs</title>
<text text-anchor="middle" x="481.48" y="-895.67" font-family="Helvetica,sans-Serif" font-weight="bold" font-size="14.00" fill="#000000">cryptsetup&#45;libs (1.8 MB)</text>
</g>
<!-- dbus -->
<g id="node13" class="node">
<title>dbus</title>
<text text-anchor="middle" x="1089.6" y="-774.54" font-family="Helvetica,sans-Serif" font-weight="bold" font-size="14.00" fill="#000000">dbus (0.0 B)</text>
</g>
<!-- iptables&#45;libs -->
<g id="node14" class="node">
<title>iptables&#45;libs</title>
<text text-anchor="middle" x="386.31" y="-308.96" font-family="Helvetica,sans-Serif" font-weight="bold" font-size="14.00" fill="#000000">iptables&#45;libs (141.5 kB)</text>
</g>
<!-- kmod&#45;libs -->
<g id="node15" class="node">
<title>kmod&#45;libs</title>
<text text-anchor="middle" x="854.16" y="-285.01" font-family="Helvetica,sans-Serif" font-weight="bold" font-size="14.00" fill="#000000">kmod&#45;libs (197.4 kB)</text>
</g>
<!-- libseccomp -->
<g id="node16" class="node">
<title>libseccomp</title>
<text text-anchor="middle" x="897.97" y="-434.93" font-family="Helvetica,sans-Serif" font-weight="bold" font-size="14.00" fill="#000000">libseccomp (347.1 kB)</text>
</g>
<!-- qrencode&#45;libs -->
<g id="node17" class="node">
<title>qrencode&#45;libs</title>
<text text-anchor="middle" x="701.34" y="-900.78" font-family="Helvetica,sans-Serif" font-weight="bold" font-size="14.00" fill="#000000">qrencode&#45;libs (159.3 kB)</text>
</g>
<!-- systemd&#45;pam -->
<g id="node18" class="node">
<title>systemd&#45;pam</title>
<text text-anchor="middle" x="551.82" y="-767.15" font-family="Helvetica,sans-Serif" font-weight="bold" font-size="14.00" fill="#000000">systemd&#45;pam (335.8 kB)</text>
</g>
<!-- systemd&#45;rpm&#45;macros -->
<g id="node19" class="node">
<title>systemd&#45;rpm&#45;macros</title>
<text text-anchor="middle" x="1031.7" y="-1009" font-family="Helvetica,sans-Serif" font-weight="bold" font-size="14.00" fill="#000000">systemd&#45;rpm&#45;macros (4.9 kB)</text>
</g>
<!-- diffutils -->
<g id="node20" class="node">
<title>diffutils</title>
<text text-anchor="middle" x="955.92" y="-588.74" font-family="Helvetica,sans-Serif" font-weight="bold" font-size="14.00" fill="#000000">diffutils (1.5 MB)</text>
</g>
<!-- libxkbcommon -->
<g id="node21" class="node">
<title>libxkbcommon</title>
<text text-anchor="middle" x="1072.6" y="-371.3" font-family="Helvetica,sans-Serif" font-weight="bold" font-size="14.00" fill="#000000">libxkbcommon (276.5 kB)</text>
</g>
<!-- libfdisk -->
<g id="node22" class="node">
<title>libfdisk</title>
<text text-anchor="middle" x="60" y="-675.11" font-family="Helvetica,sans-Serif" font-weight="bold" font-size="14.00" fill="#000000">libfdisk (476.8 kB)</text>
</g>
<!-- libutempter -->
<g id="node23" class="node">
<title>libutempter</title>
<text text-anchor="middle" x="145.95" y="-507.98" font-family="Helvetica,sans-Serif" font-weight="bold" font-size="14.00" fill="#000000">libutempter (58.2 kB)</text>
</g>
<!-- libpcap -->
<g id="node24" class="node">
<title>libpcap</title>
<text text-anchor="middle" x="189.15" y="-169.9" font-family="Helvetica,sans-Serif" font-weight="bold" font-size="14.00" fill="#000000">libpcap (381.0 kB)</text>
</g>
<!-- libicu -->
<g id="node25" class="node">
<title>libicu</title>
<text text-anchor="middle" x="695.2" y="-48.275" font-family="Helvetica,sans-Serif" font-weight="bold" font-size="14.00" fill="#000000">libicu (32.1 MB)</text>
</g>
<!-- xkeyboard&#45;config -->
<g id="node26" class="node">
<title>xkeyboard&#45;config</title>
<text text-anchor="middle" x="1493" y="-212.37" font-family="Helvetica,sans-Serif" font-weight="bold" font-size="14.00" fill="#000000">xkeyboard&#45;config (5.4 MB)</text>
</g>
<!-- libpq -->
<g id="node27" class="node">
<title>libpq</title>
<text text-anchor="middle" x="513.99" y="-14.3" font-family="Helvetica,sans-Serif" font-weight="bold" font-size="14.00" fill="#000000">libpq (692.9 kB)</text>
</g>
<!-- postgresql -->
<g id="node28" class="node">
<title>postgresql</title>
<text text-anchor="middle" x="381" y="-55.464" font-family="Helvetica,sans-Serif" font-weight="bold" font-size="14.00" fill="#000000">postgresql (5.7 MB)</text>
</g>
<!-- postgresql&#45;server -->
<g id="node29" class="node">
<title>postgresql&#45;server</title>
<text text-anchor="middle" x="552.75" y="-219.8" font-family="Helvetica,sans-Serif" font-weight="bold" font-size="22.00" fill="#cc0066">postgresql&#45;server (21.3 MB)</text>
</g>
</g>

<script type="text/javascript"><![CDATA[

document.addEventListener('click', function(e) {
      e = e || window.event;
      var target = e.target || e.srcElement;
      text = target.parentElement.querySelector("title").textContent;

      console.log("Clicked on: " + text);
      // reset all strokes
      var nodes = document.getElementsByClassName("edge");

      for (index = 0, len = nodes.length; index < len; ++index) {
          //var title = nodes[index].querySelector("title").textContent.split("->");
          id = nodes[index].id;
          document.getElementById(id).querySelector("path").setAttribute("stroke-width", "1");
          document.getElementById(id).querySelector("path").setAttribute("stroke-opacity", "0.5");
          document.getElementById(id).querySelector("path").setAttribute("stroke", "#444444");
          document.getElementById(id).querySelector("polygon").setAttribute("stroke-width", "1");
          document.getElementById(id).querySelector("polygon").setAttribute("stroke-opacity", "0.5");
          document.getElementById(id).querySelector("polygon").setAttribute("stroke", "#444444");
      }
      // reset text highlight
      pkgs = document.getElementsByClassName("node");
      for (index2 = 0, len2 = pkgs.length; index2 < len2; ++index2) {
          target_id = pkgs[index2].id;
          document.getElementById(target_id).querySelector("text").setAttribute("font-weight", "normal");
      }

      // highlight deps
      var nodes = document.getElementsByClassName("edge");
      for (index = 0, len = nodes.length; index < len; ++index) {
        var title = nodes[index].querySelector("title").textContent.split("->");

        if (title[0] == text) {
          id = nodes[index].id;
          //console.log("ID:   " + id);
          document.getElementById(id).querySelector("path").setAttribute("stroke-width", "3");
          document.getElementById(id).querySelector("path").setAttribute("stroke-opacity", "1");
          document.getElementById(id).querySelector("path").setAttribute("stroke", "#aa3333");
          document.getElementById(id).querySelector("polygon").setAttribute("stroke-width", "5");
          document.getElementById(id).querySelector("polygon").setAttribute("stroke-opacity", "1");
          document.getElementById(id).querySelector("polygon").setAttribute("stroke", "#aa3333");

        }
        if (title[1] == text) {
          id = nodes[index].id;
          document.getElementById(id).querySelector("path").setAttribute("stroke-width", "3");
          document.getElementById(id).querySelector("path").setAttribute("stroke-opacity", "1");
          document.getElementById(id).querySelector("path").setAttribute("stroke", "#333377");
          document.getElementById(id).querySelector("polygon").setAttribute("stroke-width", "5");
          document.getElementById(id).querySelector("polygon").setAttribute("stroke-opacity", "1");
          document.getElementById(id).querySelector("polygon").setAttribute("stroke", "#333377");
        }

        if (title[0] == text || title[1] == text) {
          pkgs = document.getElementsByClassName("node");
          for (index2 = 0, len2 = pkgs.length; index2 < len2; ++index2) {
            var pkg_name = pkgs[index2].querySelector("title").textContent;
            if (pkg_name == title[0] || pkg_name == title[1]) {
              target_id = pkgs[index2].id;
              document.getElementById(target_id).querySelector("text").setAttribute("font-weight", "bold");
            }
          }
        }
      }


  }, false);

]]></script>

</svg>
