<?xml version="1.0" encoding="UTF-8" standalone="no"?>
<!DOCTYPE svg PUBLIC "-//W3C//DTD SVG 1.1//EN"
 "http://www.w3.org/Graphics/SVG/1.1/DTD/svg11.dtd">
<!-- Generated by graphviz version 2.40.1 (0)
 -->
<!-- Title: packages Pages: 1 -->
<svg width="1548pt" height="1202pt"
 viewBox="0.00 0.00 1857.34 1442.48" xmlns="http://www.w3.org/2000/svg" xmlns:xlink="http://www.w3.org/1999/xlink">
<g id="graph0" class="graph" transform="scale(.8333 .8333) rotate(0) translate(133.7421 1294.6877)">
<title>packages</title>
<polygon fill="#dae2ff" stroke="transparent" points="-133.7421,147.7912 -133.7421,-1294.6877 1723.5994,-1294.6877 1723.5994,147.7912 -133.7421,147.7912"/>
<polygon fill="#ccebc5" stroke="#ccebc5" points="1237.2997,141.3067 1257.1398,132.9227 1376.0522,85.2078 1393.8672,39.5169 1400.6082,-3.3511 1404.5283,-25.4358 1415.1469,-74.277 1412.4692,-103.2269 1409.2997,-105.3349 1395.2317,-113.8476 1384.2028,-119.8635 1361.5969,-130.8637 1354.8307,-133.7491 1301.9397,-155.255 1290.0387,-177.845 1277.0256,-190.0305 1272.7589,-194.4839 1266.4537,-200.7458 1261.6035,-205.3144 1258.3885,-208.54 1252.671,-213.9569 1242.6865,-222.325 1231.4423,-230.5262 1228.3556,-232.6042 1162.7504,-273.1654 1159.1818,-275.571 1146.2764,-285.7831 1142.9193,-288.2383 1143.5531,-258.2679 1141.7031,-195.3979 1141.7031,-195.3979 1143.5531,-258.2679 1142.9193,-288.2383 1134.6873,-295.1209 1119.744,-309.2184 1118.2036,-310.749 1117.9598,-271.5139 1114.4188,-195.5364 1110.0891,-195.5364 1109.4047,-195.3229 1109.4047,-195.3229 1110.0891,-195.5364 1114.4188,-195.5364 1117.9598,-271.5139 1118.2036,-310.749 1110.2429,-319.5099 1107.9594,-322.2747 1108.04,-325.9249 1106.323,-385.0536 1126.8876,-396.3708 1130.2747,-397.9672 1215.9908,-436.1778 1227.7412,-485.7 1232.3745,-518.0355 1233.0319,-521.207 1192.528,-549.0046 1181.1187,-557.757 1177.8287,-560.018 1165.8203,-566.4661 1157.0559,-569.8194 1156.2021,-570.0796 1143.8615,-572.9081 1138.6849,-573.2885 1134.7744,-573.2741 1129.1733,-573.6994 1124.8053,-573.3532 1116.1942,-574.0376 1113.0891,-574.5301 1103.3132,-576.8634 1091.3309,-581.6203 1091.2706,-581.6488 1082.8938,-586.2697 1079.7908,-588.2177 1078.9617,-588.8029 1071.1747,-594.9503 1061.1805,-603.6486 1060.9657,-603.8517 1054.5627,-610.4263 1052.8289,-611.926 1052.4193,-612.3073 1040.2922,-624.4504 1037.973,-627.0818 1035.2285,-629.9866 1033.5522,-631.8682 1091.9541,-709.3665 1119.6655,-741.4312 1130.9681,-755.1052 1117.1929,-768.877 1060.5001,-828.5971 1058.9089,-829.0916 1051.1938,-831.0953 1034.3965,-834.6052 1030.507,-835.2183 996.3702,-839.7293 994.3641,-840.1021 994.0883,-840.1608 987.0053,-833.4382 981.6794,-828.0623 979.3362,-825.8331 967.1846,-814.9553 961.938,-810.8729 954.4636,-805.4815 945.0289,-799.2227 945.384,-787.2573 950.2202,-728.6216 951.3947,-726.8298 955.1776,-726.8298 954.7201,-676.011 957.6615,-624.1891 958.0955,-624.2892 964.997,-625.6689 973.1645,-627.0512 977.8263,-627.6965 988.1016,-628.4882 1003.1155,-628.7215 1005.4651,-628.8975 1017.9457,-629.4462 1019.8815,-629.6455 1023.1033,-573.3539 1023.1033,-573.3539 1019.8815,-629.6455 1017.9457,-629.4462 1005.4651,-628.8975 1003.1155,-628.7215 1003.6553,-575.0602 1003.6553,-575.0602 1003.1155,-628.7215 988.1016,-628.4882 977.8263,-627.6965 973.1645,-627.0512 964.997,-625.6689 958.0955,-624.2892 957.6615,-624.1891 954.7201,-676.011 955.1776,-726.8298 951.3947,-726.8298 950.2202,-728.6216 945.384,-787.2573 945.0289,-799.2227 887.7129,-767.9061 885.0124,-766.2764 874.3339,-759.2042 869.0062,-755.3782 863.4627,-751.0878 855.8743,-744.3456 850.6794,-739.4306 847.4659,-736.2045 848.916,-731.62 852.6284,-716.5471 858.2832,-689.7117 864.7214,-663.6481 875.2031,-630.5085 860.0392,-620.0842 860.0013,-620.061 856.0884,-617.8162 849.4354,-513.1652 855.1165,-516.5007 860.5183,-516.5007 867.037,-512.4579 867.3264,-512.1221 870.7206,-512.1221 870.7206,-512.1221 867.3264,-512.1221 867.0039,-511.7421 867.0039,-511.7421 867.3264,-512.1221 867.037,-512.4579 860.5183,-516.5007 855.1165,-516.5007 849.4354,-513.1652 856.0884,-617.8162 837.636,-607.9032 837.3101,-607.741 825.9661,-602.9456 770.7442,-581.7109 760.0471,-577.2001 746.0883,-570.2911 736.9965,-564.7981 726.1088,-557.4072 711.4817,-546.3861 708.7463,-528.152 705.647,-510.5805 702.8876,-496.9445 693.4816,-455.6797 781.8677,-369.046 780.9152,-345.5938 780.3397,-336.5924 779.7076,-321.1768 779.4418,-306.329 778.4814,-282.956 778.3645,-276.3997 792.7606,-260.3034 858.6,-182.7791 848.6822,-156.4846 834.4996,-111.4137 828.2177,-88.9499 819.4583,-61.0053 783.9448,33.1493 862.7346,72.1737 907.022,84.622 916.5016,82.7148 938.4172,78.7062 946.6036,77.6649 959.8962,76.2205 971.5159,75.6055 971.0657,-19.9848 968.0266,-66.264 963.9391,-68.5255 961.8394,-70.9889 962.0376,-71.2065 967.8898,-111.8279 970.9806,-159.1568 971.0189,-186.5917 970.5118,-186.625 969.7511,-260.9297 965.9549,-302.5034 962.2121,-302.5034 956.5012,-240.0107 954.4246,-190.3625 949.9443,-263.3545 944.4847,-299.9986 941.6556,-302.3849 941.3856,-302.8083 945.1122,-306.0338 945.1122,-306.0338 941.3856,-302.8083 941.6556,-302.3849 944.4847,-299.9986 949.9443,-263.3545 954.4246,-190.3625 956.5012,-240.0107 962.2121,-302.5034 965.9549,-302.5034 969.7511,-260.9297 970.5118,-186.625 971.0189,-186.5917 970.9806,-159.1568 967.8898,-111.8279 962.0376,-71.2065 968.3857,-74.9899 973.4553,-74.9899 973.4553,-74.9899 968.3857,-74.9899 962.0376,-71.2065 961.8394,-70.9889 963.9391,-68.5255 968.0266,-66.264 971.0657,-19.9848 971.5159,75.6055 975.8383,75.537 986.3572,75.5655 988.0895,75.6345 998.801,76.2601 1012.9265,77.3475 1064.2815,84.15 1067.4517,87.0964 1177.7506,143.1656 1192.1429,142.3623 1196.7421,142.2627 1214.4696,142.4848 1222.0511,142.8388 1223.0721,142.9214 1230.5338,-17.724 1226.1656,-17.724 1225.2632,-16.7038 1219.6211,-13.4402 1214.9044,-13.4402 1214.9044,-13.4402 1219.6211,-13.4402 1225.2632,-16.7038 1226.1656,-17.724 1224.6366,-19.5636 1219.8947,-22.3426 1214.25,-22.3426 1210.1445,-20.0121 1206.7626,-53.2599 1203.4686,-18.1265 1199.8246,-18.1265 1198.8812,-17.8471 1195.8265,-17.8471 1195.8265,-17.8471 1198.8812,-17.8471 1199.8246,-18.1265 1203.4686,-18.1265 1206.7626,-53.2599 1210.1445,-20.0121 1214.25,-22.3426 1219.8947,-22.3426 1224.6366,-19.5636 1226.1656,-17.724 1230.5338,-17.724 1223.0721,142.9214 1231.943,143.7912 1237.2997,141.3067 1237.2997,141.3067"/>
<polygon fill="#fed9a6" stroke="#fed9a6" points="1516.6598,-509.2431 1515.5551,-471.426 1510.8345,-425.5302 1510.5834,-425.4529 1506.9,-425.4529 1501.3777,-506.4908 1501.3156,-505.1309 1494.8986,-429.0826 1490.1458,-430.4783 1483.8895,-428.5751 1480.7131,-425.8257 1480.5024,-425.8257 1478.2803,-425.1248 1474.2355,-425.1248 1472.4994,-425.6729 1468.6918,-425.6729 1463.0564,-503.1975 1461.8453,-501.6471 1462.6572,-428.3903 1462.6572,-428.3903 1461.8453,-501.6471 1460.938,-500.5776 1446.0868,-484.4683 1435.4742,-471.4915 1391.3671,-480.4052 1387.2527,-484.5341 1386.5963,-485.8318 1386.2222,-485.9393 1382.6271,-485.9393 1377.5796,-518.2812 1375.5176,-485.5067 1371.3516,-485.5067 1366.7084,-396.8178 1364.4838,-445.8849 1359.9579,-480.7689 1356.1263,-481.8219 1352.5806,-459.4872 1348.885,-485.3005 1345.3362,-485.3005 1344.8446,-485.4448 1345.2228,-528.0639 1341.652,-579.9891 1341.2604,-590.1962 1340.8647,-590.2232 1343.903,-663.0837 1343.903,-663.0837 1340.8647,-590.2232 1341.2604,-590.1962 1341.652,-579.9891 1345.2228,-528.0639 1344.8446,-485.4448 1345.3362,-485.3005 1348.885,-485.3005 1352.5806,-459.4872 1356.1263,-481.8219 1359.9579,-480.7689 1364.4838,-445.8849 1366.7084,-396.8178 1371.3516,-485.5067 1375.5176,-485.5067 1377.5796,-518.2812 1382.6271,-485.9393 1386.2222,-485.9393 1386.5963,-485.8318 1387.2527,-484.5341 1391.3671,-480.4052 1435.4742,-471.4915 1446.0868,-484.4683 1460.938,-500.5776 1461.8453,-501.6471 1463.0564,-503.1975 1468.6918,-425.6729 1472.4994,-425.6729 1474.2355,-425.1248 1478.2803,-425.1248 1480.5024,-425.8257 1480.7131,-425.8257 1483.8895,-428.5751 1487.7231,-471.4899 1488.2971,-509.4181 1487.323,-509.4797 1486.9871,-509.4887 1486.9871,-509.4887 1487.323,-509.4797 1488.2971,-509.4181 1487.7231,-471.4899 1483.8895,-428.5751 1490.1458,-430.4783 1494.8986,-429.0826 1501.3156,-505.1309 1501.3777,-506.4908 1506.9,-425.4529 1510.5834,-425.4529 1510.8345,-425.5302 1515.5551,-471.426 1516.6598,-509.2431 1514.215,-509.484 1509.2052,-509.6125 1508.5481,-537.2485 1504.366,-588.7128 1510.412,-592.5412 1511.2529,-593.5838 1511.2181,-593.6236 1504.3688,-597.8409 1499.6892,-597.8409 1499.6892,-597.8409 1504.3688,-597.8409 1511.2181,-593.6236 1511.2529,-593.5838 1510.412,-592.5412 1504.366,-588.7128 1508.5481,-537.2485 1509.2052,-509.6125 1514.215,-509.484 1516.6598,-509.2431 1520.6617,-509.1421 1522.7726,-430.567 1673.5939,-471.4645 1677.9369,-492.3475 1676.0713,-495.3789 1539.62,-508.6852 1530.3816,-509.2517 1530.1981,-520.3156 1525.9056,-592.8698 1521.9578,-592.8698 1521.9578,-592.8698 1525.9056,-592.8698 1530.1981,-520.3156 1530.3816,-509.2517 1539.62,-508.6852 1676.0713,-495.3789 1672.597,-544.5791 1670.191,-594.9703 1669.1198,-638.9988 1669.0763,-685.6544 1665.0876,-700.4213 1566.9695,-712.6185 1553.8418,-713.6184 1545.473,-714.0533 1541.9164,-714.0662 1537.7263,-717.8593 1526.8058,-727.2593 1524.3892,-729.2271 1522.9264,-730.3519 1521.0867,-731.6859 1508.531,-740.2529 1449.4944,-777.8691 1426.3932,-772.8716 1422.1205,-772.1198 1413.7703,-771.3191 1406.9209,-770.9377 1400.4482,-770.8385 1397.1714,-770.6593 1395.6602,-770.5169 1393.9752,-770.4946 1386.3953,-770.7004 1384.9094,-700.1453 1390.0482,-698.6678 1394.2236,-694.9494 1391.2428,-692.3696 1391.2428,-692.3696 1394.2236,-694.9494 1390.0482,-698.6678 1384.9094,-700.1453 1386.3953,-770.7004 1382.937,-770.9342 1377.3647,-770.8721 1374.8237,-770.6438 1373.7979,-770.5932 1367.1201,-770.5328 1365.0549,-770.4332 1364.9805,-770.4326 1363.6639,-770.475 1363.387,-770.473 1356.3575,-770.7075 1351.9866,-770.6816 1349.3317,-770.8802 1341.7704,-770.8511 1336.0483,-770.6041 1333.5078,-770.597 1234.5735,-762.571 1220.8557,-753.9254 1217.6421,-751.6033 1204.0459,-752.8984 1205.1592,-862.7491 1201.7611,-889.6537 1197.8755,-887.4073 1191.0226,-887.4073 1187.5242,-889.4068 1185.3658,-892.1462 1186.297,-893.221 1187.0773,-995.4792 1174.4001,-976.7011 1167.2517,-967.5899 1167.2849,-946.5452 1167.2849,-946.5452 1167.2517,-967.5899 1174.4001,-976.7011 1187.0773,-995.4792 1186.297,-893.221 1191.4534,-896.2099 1191.4534,-896.2099 1186.297,-893.221 1185.3658,-892.1462 1187.5242,-889.4068 1191.0226,-887.4073 1197.8755,-887.4073 1201.7611,-889.6537 1205.1592,-862.7491 1204.0459,-752.8984 1217.6421,-751.6033 1220.8557,-753.9254 1234.5735,-762.571 1235.3538,-764.3233 1274.0546,-846.1299 1274.141,-846.3794 1284.3041,-881.9187 1284.9302,-883.7079 1296.848,-912.311 1335.0404,-993.0427 1338.0157,-1000.3818 1348.9625,-1004.1396 1356.774,-1006.975 1357.1938,-1007.1356 1359.8726,-1008.2134 1378.2374,-1016.3403 1387.0868,-1020.6042 1408.215,-1032.0461 1395.8138,-1098.3834 1388.6525,-1141.7677 1378.1411,-1229.7459 1259.0103,-1282.7902 1251.1571,-1134.2418 1246.3051,-1131.4143 1243.6749,-1127.4567 1241.9985,-1127.4567 1241.4266,-1126.8137 1241.4266,-1126.8137 1241.9985,-1127.4567 1243.6749,-1127.4567 1246.3051,-1131.4143 1251.1571,-1134.2418 1259.0103,-1282.7902 1242.108,-1290.6877 1241.6716,-1290.4775 1224.9019,-1283.1021 1223.3597,-1282.4895 1222.924,-1282.3254 1076.1869,-1233.1237 1075.7035,-1231.8215 1061.3223,-1160.8175 1054.2474,-1129.1631 1051.2048,-1116.6819 1047.1693,-1114.4012 1037.7327,-1109.2716 1021.7462,-1101.2749 1031.1158,-954.4153 1031.1158,-954.4153 1021.7462,-1101.2749 898.3027,-1042.275 873.8699,-1013.0813 886.7871,-995.2212 923.6395,-948.02 992.2038,-842.7158 994.0883,-840.1608 994.3641,-840.1021 996.3702,-839.7293 1030.507,-835.2183 1034.3965,-834.6052 1051.1938,-831.0953 1058.9089,-829.0916 1060.5001,-828.5971 1117.1929,-768.877 1130.9681,-755.1052 1119.6655,-741.4312 1091.9541,-709.3665 1033.5522,-631.8682 1035.2285,-629.9866 1037.973,-627.0818 1040.2922,-624.4504 1052.4193,-612.3073 1052.8289,-611.926 1054.5627,-610.4263 1060.9657,-603.8517 1061.1805,-603.6486 1071.1747,-594.9503 1078.9617,-588.8029 1079.7908,-588.2177 1082.8938,-586.2697 1091.2706,-581.6488 1091.3309,-581.6203 1103.3132,-576.8634 1113.0891,-574.5301 1116.1942,-574.0376 1124.8053,-573.3532 1129.1733,-573.6994 1129.3146,-580.2989 1129.3146,-580.2989 1129.1733,-573.6994 1134.7744,-573.2741 1138.6849,-573.2885 1143.8615,-572.9081 1156.2021,-570.0796 1152.5117,-611.1246 1148.7133,-613.1799 1146.3392,-615.9515 1146.8951,-616.5562 1153.2844,-620.256 1157.7323,-620.256 1157.7323,-620.256 1153.2844,-620.256 1146.8951,-616.5562 1146.3392,-615.9515 1148.7133,-613.1799 1152.5117,-611.1246 1156.2021,-570.0796 1157.0559,-569.8194 1165.8203,-566.4661 1177.8287,-560.018 1181.1187,-557.757 1192.528,-549.0046 1233.0319,-521.207 1232.3745,-518.0355 1227.7412,-485.7 1215.9908,-436.1778 1130.2747,-397.9672 1126.8876,-396.3708 1106.323,-385.0536 1108.04,-325.9249 1107.9594,-322.2747 1110.2429,-319.5099 1118.2036,-310.749 1119.744,-309.2184 1134.6873,-295.1209 1142.9193,-288.2383 1146.2764,-285.7831 1159.1818,-275.571 1162.7504,-273.1654 1228.3556,-232.6042 1231.4423,-230.5262 1242.6865,-222.325 1252.671,-213.9569 1252.4681,-266.8758 1252.4681,-266.8758 1252.671,-213.9569 1258.3885,-208.54 1261.6035,-205.3144 1266.4537,-200.7458 1272.7589,-194.4839 1277.0256,-190.0305 1290.0387,-177.845 1301.9397,-155.255 1354.8307,-133.7491 1361.5969,-130.8637 1384.2028,-119.8635 1395.2317,-113.8476 1409.2997,-105.3349 1410.0297,-162.1287 1412.226,-227.2841 1411.502,-293.5354 1406.2383,-293.5354 1405.913,-293.6268 1402.2881,-293.6268 1396.6672,-236.7675 1396.2583,-290.3387 1400.1752,-293.7729 1396.8195,-296.6154 1390.4956,-298.496 1386.9845,-297.548 1386.9845,-297.548 1390.4956,-298.496 1396.8195,-296.6154 1400.1752,-293.7729 1396.2583,-290.3387 1396.6672,-236.7675 1402.2881,-293.6268 1405.913,-293.6268 1406.2383,-293.5354 1411.502,-293.5354 1412.226,-227.2841 1410.0297,-162.1287 1409.2997,-105.3349 1412.4692,-103.2269 1425.5116,-112.9713 1436.996,-121.2882 1544.5229,-196.6255 1573.7274,-280.4948 1618.2334,-313.3088 1656.9711,-375.4551 1658.8196,-388.5516 1664.0337,-420.2922 1673.5939,-471.4645 1522.7726,-430.567 1520.6617,-509.1421 1516.6598,-509.2431 1516.6598,-509.2431"/>
<polygon fill="#fbb4ae" stroke="#fbb4ae" points="-107.7399,-492.173 -116.7678,-472.7943 -129.4441,-446.8822 -129.7421,-409.7881 -72.5577,-354.3578 29.9054,-302.1504 40.8276,-305.6243 53.0224,-309.3033 53.3233,-354.7329 59.724,-487.0068 64.6079,-487.0068 65.2922,-487.2027 69.04,-487.2027 69.9245,-487.4538 73.2676,-487.4538 73.526,-487.7378 80.0428,-491.6295 85.6939,-491.6295 89.6884,-489.4501 91.7414,-487.1109 94.4621,-487.1109 98.7821,-528.5642 99.5691,-559.921 106.5553,-487.4431 110.3683,-487.4431 110.4036,-487.4533 118.5732,-647.6184 118.9772,-647.5106 184.8082,-632.3225 200.9557,-628.2961 201.8417,-628.059 214.8706,-624.0884 221.862,-621.6995 236.0561,-616.5866 245.1293,-612.8187 245.442,-612.6831 260.4781,-605.8818 286.4764,-592.6839 311.7761,-579.3945 388.1208,-668.9904 514.3878,-667.6995 515.1965,-667.7135 526.8239,-667.5846 527.3763,-602.926 531.0917,-564.7402 534.3818,-564.7402 541.7651,-632.273 543.4951,-658.8547 544.9915,-632.2822 551.4076,-568.4218 555.8753,-569.6629 559.6629,-667.1022 559.6708,-667.8163 559.5465,-667.8218 558.5882,-696.9509 553.4606,-766.2392 548.1761,-769.3107 547.1215,-770.5101 547.9335,-771.4559 553.7308,-774.9691 559.2235,-774.9691 559.2235,-774.9691 553.7308,-774.9691 547.9335,-771.4559 547.1215,-770.5101 548.1761,-769.3107 553.4606,-766.2392 558.5882,-696.9509 559.5465,-667.8218 559.6708,-667.8163 559.6629,-667.1022 555.8753,-569.6629 561.3014,-568.1223 565.3885,-564.6735 561.7535,-561.6237 561.7535,-561.6237 565.3885,-564.6735 561.3014,-568.1223 555.8753,-569.6629 551.4076,-568.4218 544.9915,-632.2822 543.4951,-658.8547 541.7651,-632.273 534.3818,-564.7402 531.0917,-564.7402 527.3763,-602.926 526.8239,-667.5846 515.1965,-667.7135 514.3878,-667.6995 388.1208,-668.9904 311.7761,-579.3945 286.4764,-592.6839 260.4781,-605.8818 245.442,-612.6831 245.1293,-612.8187 236.0561,-616.5866 221.862,-621.6995 214.8706,-624.0884 201.8417,-628.059 200.9557,-628.2961 184.8082,-632.3225 118.9772,-647.5106 118.5732,-647.6184 110.4036,-487.4533 114.8787,-487.4533 114.8787,-487.4533 110.4036,-487.4533 110.3683,-487.4431 106.5553,-487.4431 99.5691,-559.921 98.7821,-528.5642 94.4621,-487.1109 91.7414,-487.1109 89.6884,-489.4501 85.6939,-491.6295 80.0428,-491.6295 73.526,-487.7378 73.2676,-487.4538 74.1411,-486.4481 74.1411,-486.4481 73.2676,-487.4538 69.9245,-487.4538 69.04,-487.2027 65.2922,-487.2027 64.6079,-487.0068 59.724,-487.0068 53.3233,-354.7329 53.0224,-309.3033 61.5851,-311.4642 66.1206,-312.5345 79.5558,-319.4097 79.7984,-319.5289 99.8179,-327.8003 107.0495,-330.6439 114.9194,-333.4252 222.6942,-365.1621 333.461,-451.2231 402.9449,-404.9212 418.2758,-354.7573 435.3392,-294.7774 454.4546,-214.3963 502.342,-149.3322 502.4385,-147.2274 513.832,-127.315 575.7911,-8.9041 678.2291,4.9856 696.6213,8.5515 714.9141,13.1615 720.888,15.0121 723.4196,-72.6193 722.3974,-140.1151 718.0743,-140.1151 713.3184,-80.8298 712.1066,-137.0139 706.5928,-135.3945 702.3099,-136.573 698.2279,-140.0823 696.8112,-140.0823 696.4755,-140.181 690.933,-140.181 690.9239,-140.1836 687.075,-140.1836 678.7679,-18.8879 678.749,-67.2265 678.749,-67.2265 678.7679,-18.8879 687.075,-140.1836 686.9853,-140.2091 683.3104,-140.2091 680.5268,-142.3304 680.1302,-142.4537 676.4112,-145.8969 670.3499,-228.3522 643.2405,-224.0194 635.2188,-222.1799 633.6704,-270.5811 628.925,-313.1417 625.3696,-313.1417 619.706,-256.1521 619.2922,-246.6476 613.2885,-308.7809 608.7615,-308.7809 602.1984,-312.7827 601.7882,-313.2577 603.0494,-314.7878 608.2461,-317.9105 613.7352,-317.9105 613.7352,-317.9105 608.2461,-317.9105 603.0494,-314.7878 601.7882,-313.2577 602.1984,-312.7827 608.7615,-308.7809 613.2885,-308.7809 619.2922,-246.6476 619.706,-256.1521 625.3696,-313.1417 628.925,-313.1417 633.6704,-270.5811 635.2188,-222.1799 643.2405,-224.0194 670.3499,-228.3522 676.4112,-145.8969 680.1302,-142.4537 680.5268,-142.3304 683.3104,-140.2091 686.9853,-140.2091 687.075,-140.1836 690.9239,-140.1836 690.933,-140.181 696.4755,-140.181 696.8112,-140.0823 698.2279,-140.0823 701.9444,-143.4399 707.1113,-144.9911 707.1113,-144.9911 701.9444,-143.4399 698.2279,-140.0823 702.3099,-136.573 706.5928,-135.3945 712.1066,-137.0139 713.3184,-80.8298 718.0743,-140.1151 722.3974,-140.1151 723.4196,-72.6193 720.888,15.0121 731.803,18.8201 750.4547,25.6896 773.8854,34.7592 783.9448,33.1493 819.4583,-61.0053 828.2177,-88.9499 834.4996,-111.4137 848.6822,-156.4846 858.6,-182.7791 792.7606,-260.3034 778.3645,-276.3997 778.4814,-282.956 779.4418,-306.329 779.7076,-321.1768 780.3397,-336.5924 780.9152,-345.5938 781.8677,-369.046 693.4816,-455.6797 702.8876,-496.9445 705.647,-510.5805 708.7463,-528.152 711.4817,-546.3861 726.1088,-557.4072 736.9965,-564.7981 735.2952,-627.9411 731.1246,-669.6595 727.9257,-672.3997 732.3889,-676.4068 736.2588,-677.4832 736.2588,-677.4832 732.3889,-676.4068 727.9257,-672.3997 731.1246,-669.6595 735.2952,-627.9411 736.9965,-564.7981 746.0883,-570.2911 760.0471,-577.2001 770.7442,-581.7109 825.9661,-602.9456 837.3101,-607.741 837.636,-607.9032 856.0884,-617.8162 860.0013,-620.061 860.0392,-620.0842 875.2031,-630.5085 864.7214,-663.6481 858.2832,-689.7117 852.6284,-716.5471 848.916,-731.62 847.4659,-736.2045 850.6794,-739.4306 855.8743,-744.3456 863.4627,-751.0878 869.0062,-755.3782 874.3339,-759.2042 885.0124,-766.2764 887.7129,-767.9061 945.0289,-799.2227 954.4636,-805.4815 961.938,-810.8729 967.1846,-814.9553 979.3362,-825.8331 981.6794,-828.0623 987.0053,-833.4382 994.0883,-840.1608 992.2038,-842.7158 923.6395,-948.02 886.7871,-995.2212 873.8699,-1013.0813 872.7393,-1012.7593 851.9881,-1007.9405 845.4022,-1006.6442 844.5314,-1006.4881 844.022,-1006.4058 836.9896,-1005.3918 773.1417,-1018.5417 733.6406,-1017.2598 724.6761,-1017.1479 705.7166,-1018.0474 705.0388,-1018.1201 686.1746,-1020.5244 678.8752,-1021.7457 680.953,-876.9337 686.0012,-876.9337 686.3308,-876.8371 690.0667,-876.8371 691.6602,-878.662 696.2737,-881.2363 701.4113,-881.2363 701.4113,-881.2363 696.2737,-881.2363 691.6602,-878.662 690.0667,-876.8371 691.9115,-874.6592 696.2162,-872.2369 701.9384,-872.2369 706.6007,-874.9394 708.1473,-876.8043 712.8545,-876.8043 712.8685,-876.8084 716.9064,-876.8084 717.7589,-876.5578 715.6663,-774.787 718.282,-774.7651 726.0367,-774.4803 734.08,-774.8659 731.6331,-841.9448 733.5609,-871.4756 778.2448,-860.4115 777.9181,-858.9805 777.9181,-858.9805 778.2448,-860.4115 733.5609,-871.4756 731.6331,-841.9448 734.08,-774.8659 726.0367,-774.4803 718.282,-774.7651 715.6663,-774.787 717.7589,-876.5578 716.9064,-876.8084 712.8685,-876.8084 712.8545,-876.8043 708.1473,-876.8043 706.6007,-874.9394 701.9384,-872.2369 696.2162,-872.2369 691.9115,-874.6592 690.0667,-876.8371 686.3308,-876.8371 686.0012,-876.9337 680.953,-876.9337 678.8752,-1021.7457 676.2687,-1022.2337 654.5214,-1027.1791 650.4395,-1028.1875 543.4744,-964.6528 520.8259,-927.1858 413.0472,-884.3015 403.665,-880.0522 269.3873,-955.2211 267.7885,-956.1518 263.8141,-825.0569 263.8141,-825.0569 267.7885,-956.1518 246.5226,-969.5047 235.8875,-976.8899 230.6876,-980.8538 223.3607,-791.7503 228.6449,-794.797 234.0311,-794.797 239.9028,-791.2255 240.7607,-790.2192 239.7445,-789.0736 234.1107,-785.8214 234.1107,-785.8214 239.7445,-789.0736 240.7607,-790.2192 239.9028,-791.2255 234.0311,-794.797 228.6449,-794.797 223.3607,-791.7503 230.6876,-980.8538 223.5585,-986.4532 208.1479,-979.419 181.0761,-969.3742 192.4183,-795.7018 196.8621,-791.1802 207.9015,-958.5277 206.2327,-856.7704 206.2327,-856.7704 207.9015,-958.5277 196.8621,-791.1802 192.4183,-795.7018 181.0761,-969.3742 180.2686,-969.0887 94.4325,-906.8883 60.7424,-868.3725 49.1051,-851.5001 50.0839,-843.3821 52.7869,-823.7192 56.8221,-788.6556 59.4478,-760.1269 65.933,-665.7702 63.7745,-664.6009 62.4142,-663.8907 38.901,-652.9664 -25.4225,-625.6198 -48.7945,-606.9116 -79.902,-558.6305 -105.9471,-496.2332 -107.7399,-492.173 -107.7399,-492.173"/>
<polygon fill="#ccebc5" stroke="#ccebc5" points="1274.141,-846.3794 1274.0546,-846.1299 1235.3538,-764.3233 1234.5735,-762.571 1333.5078,-770.597 1336.0483,-770.6041 1341.7704,-770.8511 1349.3317,-770.8802 1351.9866,-770.6816 1356.3575,-770.7075 1363.387,-770.473 1363.6639,-770.475 1364.9805,-770.4326 1365.0549,-770.4332 1367.1201,-770.5328 1373.7979,-770.5932 1374.8237,-770.6438 1377.3647,-770.8721 1382.937,-770.9342 1386.3953,-770.7004 1393.9752,-770.4946 1395.6602,-770.5169 1397.1714,-770.6593 1400.4482,-770.8385 1406.9209,-770.9377 1413.7703,-771.3191 1422.1205,-772.1198 1426.3932,-772.8716 1449.4944,-777.8691 1508.531,-740.2529 1521.0867,-731.6859 1522.9264,-730.3519 1524.3892,-729.2271 1526.8058,-727.2593 1537.7263,-717.8593 1541.9164,-714.0662 1545.473,-714.0533 1553.8418,-713.6184 1566.9695,-712.6185 1665.0876,-700.4213 1715.1035,-786.6875 1719.5994,-794.0881 1711.0374,-842.8409 1706.2533,-873.9338 1702.8505,-899.785 1630.8444,-976.2385 1585.2069,-996.9876 1569.0551,-995.8479 1565.9468,-995.6843 1554.8004,-995.2973 1544.8124,-995.1299 1539.3188,-995.2352 1524.3507,-995.7908 1513.652,-996.7634 1470.6803,-1002.2116 1419.3624,-1027.7996 1408.882,-1031.7814 1408.215,-1032.0461 1387.0868,-1020.6042 1378.2374,-1016.3403 1359.8726,-1008.2134 1357.1938,-1007.1356 1356.774,-1006.975 1348.9625,-1004.1396 1346.83,-846.4794 1351.8983,-846.4794 1353.0659,-846.1314 1356.087,-846.1314 1357.3876,-847.6487 1362.5348,-850.6489 1368.192,-850.6489 1372.6248,-848.166 1374.1771,-846.3715 1378.4375,-846.3715 1378.5344,-846.3431 1382.951,-846.3431 1383.002,-846.3282 1383.002,-846.3282 1382.951,-846.3431 1378.5344,-846.3431 1378.4375,-846.3715 1374.1771,-846.3715 1372.6248,-848.166 1368.192,-850.6489 1362.5348,-850.6489 1357.3876,-847.6487 1356.087,-846.1314 1353.0659,-846.1314 1351.8983,-846.4794 1346.83,-846.4794 1348.9625,-1004.1396 1338.0157,-1000.3818 1335.0404,-993.0427 1296.848,-912.311 1284.9302,-883.7079 1284.3041,-881.9187 1274.141,-846.3794 1274.141,-846.3794"/>
<polyline fill="none" stroke="#000000" points="1054.5627,-610.4263 1052.8289,-611.926 1052.4193,-612.3073 1040.2922,-624.4504 1037.973,-627.0818 1035.2285,-629.9866 1033.5522,-631.8682 1091.9541,-709.3665 1119.6655,-741.4312 1130.9681,-755.1052 1117.1929,-768.877 1060.5001,-828.5971 1058.9089,-829.0916 1051.1938,-831.0953 1034.3965,-834.6052 1030.507,-835.2183 996.3702,-839.7293 994.3641,-840.1021 994.0883,-840.1608 987.0053,-833.4382 981.6794,-828.0623 979.3362,-825.8331 967.1846,-814.9553 961.938,-810.8729 954.4636,-805.4815 945.0289,-799.2227 887.7129,-767.9061 885.0124,-766.2764 874.3339,-759.2042 869.0062,-755.3782 863.4627,-751.0878 855.8743,-744.3456 850.6794,-739.4306 847.4659,-736.2045 848.916,-731.62 852.6284,-716.5471 858.2832,-689.7117 864.7214,-663.6481 875.2031,-630.5085 860.0392,-620.0842 860.0013,-620.061 856.0884,-617.8162 837.636,-607.9032 837.3101,-607.741 825.9661,-602.9456 770.7442,-581.7109 760.0471,-577.2001 746.0883,-570.2911 736.9965,-564.7981 726.1088,-557.4072 711.4817,-546.3861 708.7463,-528.152 705.647,-510.5805 702.8876,-496.9445 693.4816,-455.6797 781.8677,-369.046 780.9152,-345.5938 780.3397,-336.5924 779.7076,-321.1768 779.4418,-306.329 778.4814,-282.956 778.3645,-276.3997 792.7606,-260.3034 858.6,-182.7791 848.6822,-156.4846 834.4996,-111.4137 828.2177,-88.9499 819.4583,-61.0053 783.9448,33.1493 862.7346,72.1737 907.022,84.622 916.5016,82.7148 938.4172,78.7062 946.6036,77.6649 959.8962,76.2205 971.5159,75.6055 975.8383,75.537 986.3572,75.5655 988.0895,75.6345 998.801,76.2601 1012.9265,77.3475 1064.2815,84.15 1067.4517,87.0964 1177.7506,143.1656 1192.1429,142.3623 1196.7421,142.2627 1214.4696,142.4848 1222.0511,142.8388 1223.0721,142.9214 1231.943,143.7912 1237.2997,141.3067 1257.1398,132.9227 1376.0522,85.2078 1393.8672,39.5169 1400.6082,-3.3511 1404.5283,-25.4358 1415.1469,-74.277 1412.4692,-103.2269 1409.2997,-105.3349 1395.2317,-113.8476 1384.2028,-119.8635 1361.5969,-130.8637 1354.8307,-133.7491 1301.9397,-155.255 1290.0387,-177.845 1277.0256,-190.0305 1272.7589,-194.4839 1266.4537,-200.7458 1261.6035,-205.3144 1258.3885,-208.54 1252.671,-213.9569 1242.6865,-222.325 1231.4423,-230.5262 1228.3556,-232.6042 1162.7504,-273.1654 1159.1818,-275.571 1146.2764,-285.7831 1142.9193,-288.2383 1134.6873,-295.1209 1119.744,-309.2184 1118.2036,-310.749 1110.2429,-319.5099 1107.9594,-322.2747 1108.04,-325.9249 1106.323,-385.0536 1126.8876,-396.3708 1130.2747,-397.9672 1215.9908,-436.1778 1227.7412,-485.7 1232.3745,-518.0355 1233.0319,-521.207 1192.528,-549.0046 1181.1187,-557.757 1177.8287,-560.018 1165.8203,-566.4661 1157.0559,-569.8194 1156.2021,-570.0796 1143.8615,-572.9081 1138.6849,-573.2885 1134.7744,-573.2741 1129.1733,-573.6994 1124.8053,-573.3532 1116.1942,-574.0376 1113.0891,-574.5301 1103.3132,-576.8634 1091.3309,-581.6203 1091.2706,-581.6488 1082.8938,-586.2697 1079.7908,-588.2177 1078.9617,-588.8029 1071.1747,-594.9503 1061.1805,-603.6486 1060.9657,-603.8517 1054.5627,-610.4263 "/>
<polyline fill="none" stroke="#000000" points="1060.5001,-828.5971 1117.1929,-768.877 1130.9681,-755.1052 1119.6655,-741.4312 1091.9541,-709.3665 1033.5522,-631.8682 1035.2285,-629.9866 1037.973,-627.0818 1040.2922,-624.4504 1052.4193,-612.3073 1052.8289,-611.926 1054.5627,-610.4263 1060.9657,-603.8517 1061.1805,-603.6486 1071.1747,-594.9503 1078.9617,-588.8029 1079.7908,-588.2177 1082.8938,-586.2697 1091.2706,-581.6488 1091.3309,-581.6203 1103.3132,-576.8634 1113.0891,-574.5301 1116.1942,-574.0376 1124.8053,-573.3532 1129.1733,-573.6994 1134.7744,-573.2741 1138.6849,-573.2885 1143.8615,-572.9081 1156.2021,-570.0796 1157.0559,-569.8194 1165.8203,-566.4661 1177.8287,-560.018 1181.1187,-557.757 1192.528,-549.0046 1233.0319,-521.207 1232.3745,-518.0355 1227.7412,-485.7 1215.9908,-436.1778 1130.2747,-397.9672 1126.8876,-396.3708 1106.323,-385.0536 1108.04,-325.9249 1107.9594,-322.2747 1110.2429,-319.5099 1118.2036,-310.749 1119.744,-309.2184 1134.6873,-295.1209 1142.9193,-288.2383 1146.2764,-285.7831 1159.1818,-275.571 1162.7504,-273.1654 1228.3556,-232.6042 1231.4423,-230.5262 1242.6865,-222.325 1252.671,-213.9569 1258.3885,-208.54 1261.6035,-205.3144 1266.4537,-200.7458 1272.7589,-194.4839 1277.0256,-190.0305 1290.0387,-177.845 1301.9397,-155.255 1354.8307,-133.7491 1361.5969,-130.8637 1384.2028,-119.8635 1395.2317,-113.8476 1409.2997,-105.3349 1412.4692,-103.2269 1425.5116,-112.9713 1436.996,-121.2882 1544.5229,-196.6255 1573.7274,-280.4948 1618.2334,-313.3088 1656.9711,-375.4551 1658.8196,-388.5516 1664.0337,-420.2922 1673.5939,-471.4645 1677.9369,-492.3475 1676.0713,-495.3789 1672.597,-544.5791 1670.191,-594.9703 1669.1198,-638.9988 1669.0763,-685.6544 1665.0876,-700.4213 1566.9695,-712.6185 1553.8418,-713.6184 1545.473,-714.0533 1541.9164,-714.0662 1537.7263,-717.8593 1526.8058,-727.2593 1524.3892,-729.2271 1522.9264,-730.3519 1521.0867,-731.6859 1508.531,-740.2529 1449.4944,-777.8691 1426.3932,-772.8716 1422.1205,-772.1198 1413.7703,-771.3191 1406.9209,-770.9377 1400.4482,-770.8385 1397.1714,-770.6593 1395.6602,-770.5169 1393.9752,-770.4946 1386.3953,-770.7004 1382.937,-770.9342 1377.3647,-770.8721 1374.8237,-770.6438 1373.7979,-770.5932 1367.1201,-770.5328 1365.0549,-770.4332 1364.9805,-770.4326 1363.6639,-770.475 1363.387,-770.473 1356.3575,-770.7075 1351.9866,-770.6816 1349.3317,-770.8802 1341.7704,-770.8511 1336.0483,-770.6041 1333.5078,-770.597 1234.5735,-762.571 1235.3538,-764.3233 1274.0546,-846.1299 1274.141,-846.3794 1284.3041,-881.9187 1284.9302,-883.7079 1296.848,-912.311 1335.0404,-993.0427 1338.0157,-1000.3818 1348.9625,-1004.1396 1356.774,-1006.975 1357.1938,-1007.1356 1359.8726,-1008.2134 1378.2374,-1016.3403 1387.0868,-1020.6042 1408.215,-1032.0461 1395.8138,-1098.3834 1388.6525,-1141.7677 1378.1411,-1229.7459 1259.0103,-1282.7902 1242.108,-1290.6877 1241.6716,-1290.4775 1224.9019,-1283.1021 1223.3597,-1282.4895 1222.924,-1282.3254 1076.1869,-1233.1237 1075.7035,-1231.8215 1061.3223,-1160.8175 1054.2474,-1129.1631 1051.2048,-1116.6819 1047.1693,-1114.4012 1037.7327,-1109.2716 1021.7462,-1101.2749 898.3027,-1042.275 873.8699,-1013.0813 886.7871,-995.2212 923.6395,-948.02 992.2038,-842.7158 994.0883,-840.1608 994.3641,-840.1021 996.3702,-839.7293 1030.507,-835.2183 1034.3965,-834.6052 1051.1938,-831.0953 1058.9089,-829.0916 1060.5001,-828.5971 "/>
<polyline fill="none" stroke="#000000" points="845.4022,-1006.6442 851.9881,-1007.9405 872.7393,-1012.7593 873.8699,-1013.0813 886.7871,-995.2212 923.6395,-948.02 992.2038,-842.7158 994.0883,-840.1608 987.0053,-833.4382 981.6794,-828.0623 979.3362,-825.8331 967.1846,-814.9553 961.938,-810.8729 954.4636,-805.4815 945.0289,-799.2227 887.7129,-767.9061 885.0124,-766.2764 874.3339,-759.2042 869.0062,-755.3782 863.4627,-751.0878 855.8743,-744.3456 850.6794,-739.4306 847.4659,-736.2045 848.916,-731.62 852.6284,-716.5471 858.2832,-689.7117 864.7214,-663.6481 875.2031,-630.5085 860.0392,-620.0842 860.0013,-620.061 856.0884,-617.8162 837.636,-607.9032 837.3101,-607.741 825.9661,-602.9456 770.7442,-581.7109 760.0471,-577.2001 746.0883,-570.2911 736.9965,-564.7981 726.1088,-557.4072 711.4817,-546.3861 708.7463,-528.152 705.647,-510.5805 702.8876,-496.9445 693.4816,-455.6797 781.8677,-369.046 780.9152,-345.5938 780.3397,-336.5924 779.7076,-321.1768 779.4418,-306.329 778.4814,-282.956 778.3645,-276.3997 792.7606,-260.3034 858.6,-182.7791 848.6822,-156.4846 834.4996,-111.4137 828.2177,-88.9499 819.4583,-61.0053 783.9448,33.1493 773.8854,34.7592 750.4547,25.6896 731.803,18.8201 720.888,15.0121 714.9141,13.1615 696.6213,8.5515 678.2291,4.9856 575.7911,-8.9041 513.832,-127.315 502.4385,-147.2274 502.342,-149.3322 454.4546,-214.3963 435.3392,-294.7774 418.2758,-354.7573 402.9449,-404.9212 333.461,-451.2231 222.6942,-365.1621 114.9194,-333.4252 107.0495,-330.6439 99.8179,-327.8003 79.7984,-319.5289 79.5558,-319.4097 66.1206,-312.5345 61.5851,-311.4642 53.0224,-309.3033 40.8276,-305.6243 29.9054,-302.1504 -72.5577,-354.3578 -129.7421,-409.7881 -129.4441,-446.8822 -116.7678,-472.7943 -107.7399,-492.173 -105.9471,-496.2332 -79.902,-558.6305 -48.7945,-606.9116 -25.4225,-625.6198 38.901,-652.9664 62.4142,-663.8907 63.7745,-664.6009 65.933,-665.7702 59.4478,-760.1269 56.8221,-788.6556 52.7869,-823.7192 50.0839,-843.3821 49.1051,-851.5001 60.7424,-868.3725 94.4325,-906.8883 180.2686,-969.0887 181.0761,-969.3742 208.1479,-979.419 223.5585,-986.4532 230.6876,-980.8538 235.8875,-976.8899 246.5226,-969.5047 267.7885,-956.1518 269.3873,-955.2211 403.665,-880.0522 413.0472,-884.3015 520.8259,-927.1858 543.4744,-964.6528 650.4395,-1028.1875 654.5214,-1027.1791 676.2687,-1022.2337 678.8752,-1021.7457 686.1746,-1020.5244 705.0388,-1018.1201 705.7166,-1018.0474 724.6761,-1017.1479 733.6406,-1017.2598 773.1417,-1018.5417 836.9896,-1005.3918 844.022,-1006.4058 844.5314,-1006.4881 845.4022,-1006.6442 "/>
<polyline fill="none" stroke="#000000" points="1539.3188,-995.2352 1544.8124,-995.1299 1554.8004,-995.2973 1565.9468,-995.6843 1569.0551,-995.8479 1585.2069,-996.9876 1630.8444,-976.2385 1702.8505,-899.785 1706.2533,-873.9338 1711.0374,-842.8409 1719.5994,-794.0881 1715.1035,-786.6875 1665.0876,-700.4213 1566.9695,-712.6185 1553.8418,-713.6184 1545.473,-714.0533 1541.9164,-714.0662 1537.7263,-717.8593 1526.8058,-727.2593 1524.3892,-729.2271 1522.9264,-730.3519 1521.0867,-731.6859 1508.531,-740.2529 1449.4944,-777.8691 1426.3932,-772.8716 1422.1205,-772.1198 1413.7703,-771.3191 1406.9209,-770.9377 1400.4482,-770.8385 1397.1714,-770.6593 1395.6602,-770.5169 1393.9752,-770.4946 1386.3953,-770.7004 1382.937,-770.9342 1377.3647,-770.8721 1374.8237,-770.6438 1373.7979,-770.5932 1367.1201,-770.5328 1365.0549,-770.4332 1364.9805,-770.4326 1363.6639,-770.475 1363.387,-770.473 1356.3575,-770.7075 1351.9866,-770.6816 1349.3317,-770.8802 1341.7704,-770.8511 1336.0483,-770.6041 1333.5078,-770.597 1234.5735,-762.571 1235.3538,-764.3233 1274.0546,-846.1299 1274.141,-846.3794 1284.3041,-881.9187 1284.9302,-883.7079 1296.848,-912.311 1335.0404,-993.0427 1338.0157,-1000.3818 1348.9625,-1004.1396 1356.774,-1006.975 1357.1938,-1007.1356 1359.8726,-1008.2134 1378.2374,-1016.3403 1387.0868,-1020.6042 1408.215,-1032.0461 1408.882,-1031.7814 1419.3624,-1027.7996 1470.6803,-1002.2116 1513.652,-996.7634 1524.3507,-995.7908 1539.3188,-995.2352 "/>
<!-- device&#45;mapper&#45;libs&#45;&gt;Fedora Container Base -->
<g id="edge1" class="edge">
<title>device&#45;mapper&#45;libs&#45;&gt;Fedora Container Base</title>
<path fill="none" stroke="#444444" stroke-opacity="0.333333" d="M974.6384,-88.7411C989.3839,-159.3699 1043.2369,-417.3182 1061.1563,-503.1497"/>
<polygon fill="#444444" fill-opacity="0.333333" stroke="#444444" stroke-opacity="0.333333" points="1057.7357,-503.8916 1063.2056,-512.9652 1064.5879,-502.461 1057.7357,-503.8916"/>
</g>
<!-- device&#45;mapper&#45;libs&#45;&gt;device&#45;mapper -->
<g id="edge2" class="edge">
<title>device&#45;mapper&#45;libs&#45;&gt;device&#45;mapper</title>
<path fill="none" stroke="#444444" stroke-opacity="0.333333" d="M965.3945,-88.9607C958.2948,-129.3611 949.6447,-226.5044 948.6034,-274.7152"/>
<polygon fill="#444444" fill-opacity="0.333333" stroke="#444444" stroke-opacity="0.333333" points="945.1031,-274.7334 948.5017,-284.7684 952.1028,-274.8043 945.1031,-274.7334"/>
</g>
<!-- device&#45;mapper&#45;&gt;Fedora Container Base -->
<g id="edge32" class="edge">
<title>device&#45;mapper&#45;&gt;Fedora Container Base</title>
<path fill="none" stroke="#444444" stroke-opacity="0.333333" d="M960.0667,-321.1276C980.481,-361.2204 1029.2426,-456.9861 1053.2158,-504.0685"/>
<polygon fill="#444444" fill-opacity="0.333333" stroke="#444444" stroke-opacity="0.333333" points="1050.1438,-505.7489 1057.8003,-513.0721 1056.3818,-502.5727 1050.1438,-505.7489"/>
</g>
<!-- device&#45;mapper&#45;&gt;device&#45;mapper&#45;libs -->
<g id="edge33" class="edge">
<title>device&#45;mapper&#45;&gt;device&#45;mapper&#45;libs</title>
<path fill="none" stroke="#444444" stroke-opacity="0.333333" d="M956.2255,-284.5603C963.3252,-244.1599 971.9753,-147.0166 973.0166,-98.8058"/>
<polygon fill="#444444" fill-opacity="0.333333" stroke="#444444" stroke-opacity="0.333333" points="976.5169,-98.7876 973.1183,-88.7526 969.5172,-98.7167 976.5169,-98.7876"/>
</g>
<!-- device&#45;mapper&#45;&gt;systemd -->
<g id="edge34" class="edge">
<title>device&#45;mapper&#45;&gt;systemd</title>
<path fill="none" stroke="#444444" stroke-opacity="0.333333" d="M962.6432,-320.9995C997.1349,-373.6929 1097.3283,-526.7601 1138.0173,-588.9214"/>
<polygon fill="#444444" fill-opacity="0.333333" stroke="#444444" stroke-opacity="0.333333" points="1135.1687,-590.9603 1143.5739,-597.4104 1141.0256,-587.1266 1135.1687,-590.9603"/>
</g>
<!-- device&#45;mapper&#45;&gt;util&#45;linux -->
<g id="edge35" class="edge">
<title>device&#45;mapper&#45;&gt;util&#45;linux</title>
<path fill="none" stroke="#444444" stroke-opacity="0.333333" d="M942.683,-321.0309C926.3721,-357.832 889.3927,-441.266 870.1564,-484.6676"/>
<polygon fill="#444444" fill-opacity="0.333333" stroke="#444444" stroke-opacity="0.333333" points="866.8546,-483.4796 866.0023,-494.0402 873.2542,-486.3161 866.8546,-483.4796"/>
</g>
<!-- libargon2&#45;&gt;Fedora Container Base -->
<g id="edge3" class="edge">
<title>libargon2&#45;&gt;Fedora Container Base</title>
<path fill="none" stroke="#444444" stroke-opacity="0.333333" d="M1211.8543,-36.2629C1189.3615,-113.107 1102.3187,-410.4781 1075.149,-503.2998"/>
<polygon fill="#444444" fill-opacity="0.333333" stroke="#444444" stroke-opacity="0.333333" points="1071.7319,-502.5153 1072.2816,-513.0959 1078.45,-504.4818 1071.7319,-502.5153"/>
</g>
<!-- dbus&#45;broker&#45;&gt;Fedora Container Base -->
<g id="edge4" class="edge">
<title>dbus&#45;broker&#45;&gt;Fedora Container Base</title>
<path fill="none" stroke="#444444" stroke-opacity="0.333333" d="M1064.7047,-929.8391C1065.0821,-864.282 1066.375,-639.6974 1066.8355,-559.7117"/>
<polygon fill="#444444" fill-opacity="0.333333" stroke="#444444" stroke-opacity="0.333333" points="1070.3371,-559.4366 1066.8948,-549.4166 1063.3372,-559.3962 1070.3371,-559.4366"/>
</g>
<!-- dbus&#45;broker&#45;&gt;dbus&#45;common -->
<g id="edge5" class="edge">
<title>dbus&#45;broker&#45;&gt;dbus&#45;common</title>
<path fill="none" stroke="#444444" stroke-opacity="0.333333" d="M1106.4162,-929.8964C1118.2367,-924.7733 1131.2331,-919.1405 1143.528,-913.8118"/>
<polygon fill="#444444" fill-opacity="0.333333" stroke="#444444" stroke-opacity="0.333333" points="1144.9787,-916.9977 1152.7621,-909.8096 1142.195,-910.575 1144.9787,-916.9977"/>
</g>
<!-- dbus&#45;broker&#45;&gt;shadow&#45;utils -->
<g id="edge6" class="edge">
<title>dbus&#45;broker&#45;&gt;shadow&#45;utils</title>
<path fill="none" stroke="#444444" stroke-opacity="0.333333" d="M1029.4357,-929.8763C993.4244,-911.2956 937.3604,-882.3683 898.4477,-862.2905"/>
<polygon fill="#444444" fill-opacity="0.333333" stroke="#444444" stroke-opacity="0.333333" points="899.9305,-859.1172 889.4388,-857.6422 896.7208,-865.338 899.9305,-859.1172"/>
</g>
<!-- dbus&#45;broker&#45;&gt;systemd -->
<g id="edge7" class="edge">
<title>dbus&#45;broker&#45;&gt;systemd</title>
<path fill="none" stroke="#444444" stroke-opacity="0.333333" d="M1069.6167,-929.6758C1084.7022,-874.5133 1129.725,-709.8804 1147.8325,-643.6674"/>
<polygon fill="#444444" fill-opacity="0.333333" stroke="#444444" stroke-opacity="0.333333" points="1151.2369,-644.4866 1150.4988,-633.9175 1144.4849,-642.64 1151.2369,-644.4866"/>
</g>
<!-- dbus&#45;common&#45;&gt;Fedora Container Base -->
<g id="edge8" class="edge">
<title>dbus&#45;common&#45;&gt;Fedora Container Base</title>
<path fill="none" stroke="#444444" stroke-opacity="0.333333" d="M1188.002,-873.3431C1167.1556,-814.3879 1101.8664,-629.7449 1076.8704,-559.0543"/>
<polygon fill="#444444" fill-opacity="0.333333" stroke="#444444" stroke-opacity="0.333333" points="1080.1185,-557.7411 1073.4849,-549.4799 1073.5189,-560.0747 1080.1185,-557.7411"/>
</g>
<!-- dbus&#45;common&#45;&gt;dbus&#45;common -->
<g id="edge9" class="edge">
<title>dbus&#45;common&#45;&gt;dbus&#45;common</title>
<path fill="none" stroke="#444444" stroke-opacity="0.333333" d="M1272.0655,-897.7433C1282.815,-896.7512 1290,-894.7434 1290,-891.72 1290,-889.7831 1287.0513,-888.2631 1282.1057,-887.1598"/>
<polygon fill="#444444" fill-opacity="0.333333" stroke="#444444" stroke-opacity="0.333333" points="1282.4657,-883.6754 1272.0655,-885.6967 1281.4562,-890.6023 1282.4657,-883.6754"/>
</g>
<!-- dbus&#45;common&#45;&gt;systemd -->
<g id="edge10" class="edge">
<title>dbus&#45;common&#45;&gt;systemd</title>
<path fill="none" stroke="#444444" stroke-opacity="0.333333" d="M1191.9411,-873.605C1185.3024,-826.608 1167.4887,-700.5007 1159.4874,-643.8581"/>
<polygon fill="#444444" fill-opacity="0.333333" stroke="#444444" stroke-opacity="0.333333" points="1162.9327,-643.2239 1158.0683,-633.8117 1156.0015,-644.203 1162.9327,-643.2239"/>
</g>
<!-- shadow&#45;utils&#45;&gt;Fedora Container Base -->
<g id="edge11" class="edge">
<title>shadow&#45;utils&#45;&gt;Fedora Container Base</title>
<path fill="none" stroke="#444444" stroke-opacity="0.333333" d="M867.1659,-821.247C903.1877,-768.9527 1006.3902,-619.1296 1048.6351,-557.801"/>
<polygon fill="#444444" fill-opacity="0.333333" stroke="#444444" stroke-opacity="0.333333" points="1051.6201,-559.6375 1054.4105,-549.4167 1045.8553,-555.6666 1051.6201,-559.6375"/>
</g>
<!-- shadow&#45;utils&#45;&gt;shadow&#45;utils -->
<g id="edge12" class="edge">
<title>shadow&#45;utils&#45;&gt;shadow&#45;utils</title>
<path fill="none" stroke="#444444" stroke-opacity="0.333333" d="M925.3356,-845.7434C935.879,-844.79 943.01,-842.7489 943.01,-839.62 943.01,-837.6644 940.2244,-836.1338 935.5612,-835.028"/>
<polygon fill="#444444" fill-opacity="0.333333" stroke="#444444" stroke-opacity="0.333333" points="935.7438,-831.5164 925.3356,-833.4966 934.7069,-838.4392 935.7438,-831.5164"/>
</g>
<!-- shadow&#45;utils&#45;&gt;libsemanage -->
<g id="edge13" class="edge">
<title>shadow&#45;utils&#45;&gt;libsemanage</title>
<path fill="none" stroke="#444444" stroke-opacity="0.333333" d="M783.6723,-856.5324C783.5823,-856.5539 783.4923,-856.5754 783.4023,-856.5968"/>
<polygon fill="#444444" fill-opacity="0.333333" stroke="#444444" stroke-opacity="0.333333" points="783.9241,-852.8738 775.0102,-858.6004 785.5497,-859.6825 783.9241,-852.8738"/>
</g>
<!-- systemd&#45;&gt;Fedora Container Base -->
<g id="edge14" class="edge">
<title>systemd&#45;&gt;Fedora Container Base</title>
<path fill="none" stroke="#444444" stroke-opacity="0.333333" d="M1136.2968,-597.2969C1123.6861,-585.2576 1107.0285,-569.3548 1093.2057,-556.1583"/>
<polygon fill="#444444" fill-opacity="0.333333" stroke="#444444" stroke-opacity="0.333333" points="1095.5116,-553.5208 1085.8617,-549.147 1090.6779,-558.5839 1095.5116,-553.5208"/>
</g>
<!-- systemd&#45;&gt;shadow&#45;utils -->
<g id="edge15" class="edge">
<title>systemd&#45;&gt;shadow&#45;utils</title>
<path fill="none" stroke="#444444" stroke-opacity="0.333333" d="M1131.1237,-633.7703C1077.2567,-673.8569 948.0563,-770.005 887.2282,-815.2718"/>
<polygon fill="#444444" fill-opacity="0.333333" stroke="#444444" stroke-opacity="0.333333" points="885.0467,-812.5324 879.1138,-821.3104 889.2258,-818.1481 885.0467,-812.5324"/>
</g>
<!-- systemd&#45;&gt;systemd -->
<g id="edge16" class="edge">
<title>systemd&#45;&gt;systemd</title>
<path fill="none" stroke="#444444" stroke-opacity="0.333333" d="M1217.1667,-621.9313C1227.7013,-621.0703 1235,-618.9698 1235,-615.63 1235,-613.4904 1232.0046,-611.8595 1227.082,-610.7372"/>
<polygon fill="#444444" fill-opacity="0.333333" stroke="#444444" stroke-opacity="0.333333" points="1227.5596,-607.27 1217.1667,-609.3287 1226.5751,-614.2004 1227.5596,-607.27"/>
</g>
<!-- systemd&#45;&gt;util&#45;linux -->
<g id="edge17" class="edge">
<title>systemd&#45;&gt;util&#45;linux</title>
<path fill="none" stroke="#444444" stroke-opacity="0.333333" d="M1103.6829,-597.5877C1052.3321,-579.7078 973.6824,-552.3227 919.2693,-533.3765"/>
<polygon fill="#444444" fill-opacity="0.333333" stroke="#444444" stroke-opacity="0.333333" points="920.3363,-530.042 909.7415,-530.059 918.0344,-536.6527 920.3363,-530.042"/>
</g>
<!-- systemd&#45;&gt;acl -->
<g id="edge18" class="edge">
<title>systemd&#45;&gt;acl</title>
<path fill="none" stroke="#444444" stroke-opacity="0.333333" d="M1161.1105,-597.4065C1176.9486,-545.9629 1222.0827,-399.3633 1241.0926,-337.6174"/>
<polygon fill="#444444" fill-opacity="0.333333" stroke="#444444" stroke-opacity="0.333333" points="1244.5214,-338.3752 1244.1189,-327.788 1237.8313,-336.3155 1244.5214,-338.3752"/>
</g>
<!-- systemd&#45;&gt;cryptsetup&#45;libs -->
<g id="edge19" class="edge">
<title>systemd&#45;&gt;cryptsetup&#45;libs</title>
<path fill="none" stroke="#444444" stroke-opacity="0.333333" d="M1154.3355,-597.5707C1150.0975,-531.843 1135.4714,-305.009 1130.2613,-224.2059"/>
<polygon fill="#444444" fill-opacity="0.333333" stroke="#444444" stroke-opacity="0.333333" points="1133.7269,-223.5594 1129.5906,-213.8054 1126.7414,-224.0099 1133.7269,-223.5594"/>
</g>
<!-- systemd&#45;&gt;dbus -->
<g id="edge20" class="edge">
<title>systemd&#45;&gt;dbus</title>
<path fill="none" stroke="#444444" stroke-opacity="0.333333" d="M1158.2476,-633.8548C1169.7968,-710.4609 1214.4562,-1006.688 1228.469,-1099.6354"/>
<polygon fill="#444444" fill-opacity="0.333333" stroke="#444444" stroke-opacity="0.333333" points="1225.0336,-1100.3271 1229.9853,-1109.6935 1231.9554,-1099.2835 1225.0336,-1100.3271"/>
</g>
<!-- systemd&#45;&gt;iptables&#45;libs -->
<g id="edge21" class="edge">
<title>systemd&#45;&gt;iptables&#45;libs</title>
<path fill="none" stroke="#444444" stroke-opacity="0.333333" d="M1171.9548,-633.7232C1209.0113,-674.4695 1299.0979,-773.5261 1341.8893,-820.5782"/>
<polygon fill="#444444" fill-opacity="0.333333" stroke="#444444" stroke-opacity="0.333333" points="1339.5041,-823.1576 1348.8216,-828.2008 1344.6828,-818.4478 1339.5041,-823.1576"/>
</g>
<!-- systemd&#45;&gt;kmod&#45;libs -->
<g id="edge22" class="edge">
<title>systemd&#45;&gt;kmod&#45;libs</title>
<path fill="none" stroke="#444444" stroke-opacity="0.333333" d="M1184.0044,-597.5638C1220.3141,-574.5505 1283.15,-534.7248 1323.2268,-509.3239"/>
<polygon fill="#444444" fill-opacity="0.333333" stroke="#444444" stroke-opacity="0.333333" points="1325.3353,-512.1314 1331.908,-503.8217 1321.5879,-506.2189 1325.3353,-512.1314"/>
</g>
<!-- systemd&#45;&gt;libfdisk -->
<g id="edge23" class="edge">
<title>systemd&#45;&gt;libfdisk</title>
<path fill="none" stroke="#444444" stroke-opacity="0.333333" d="M1125.5212,-633.6965C1094.1052,-652.629 1044.6305,-682.4445 1010.2559,-703.16"/>
<polygon fill="#444444" fill-opacity="0.333333" stroke="#444444" stroke-opacity="0.333333" points="1008.1844,-700.3219 1001.426,-708.4813 1011.7975,-706.3174 1008.1844,-700.3219"/>
</g>
<!-- systemd&#45;&gt;libseccomp -->
<g id="edge24" class="edge">
<title>systemd&#45;&gt;libseccomp</title>
<path fill="none" stroke="#444444" stroke-opacity="0.333333" d="M1187.261,-597.5716C1248.1426,-562.9562 1381.2107,-487.2976 1448.7769,-448.8814"/>
<polygon fill="#444444" fill-opacity="0.333333" stroke="#444444" stroke-opacity="0.333333" points="1450.8986,-451.7013 1457.8618,-443.716 1447.4387,-445.6161 1450.8986,-451.7013"/>
</g>
<!-- systemd&#45;&gt;qrencode&#45;libs -->
<g id="edge25" class="edge">
<title>systemd&#45;&gt;qrencode&#45;libs</title>
<path fill="none" stroke="#444444" stroke-opacity="0.333333" d="M1168.8476,-597.3947C1208.4697,-543.2635 1325.5303,-383.337 1371.9352,-319.9393"/>
<polygon fill="#444444" fill-opacity="0.333333" stroke="#444444" stroke-opacity="0.333333" points="1374.9166,-321.7919 1377.9988,-311.6553 1369.268,-317.6573 1374.9166,-321.7919"/>
</g>
<!-- systemd&#45;&gt;systemd&#45;pam -->
<g id="edge26" class="edge">
<title>systemd&#45;&gt;systemd&#45;pam</title>
<path fill="none" stroke="#444444" stroke-opacity="0.333333" d="M1217.3903,-616.942C1271.9342,-615.0838 1352.0338,-610.1305 1413.3735,-604.9484"/>
<polygon fill="#444444" fill-opacity="0.333333" stroke="#444444" stroke-opacity="0.333333" points="1413.7732,-608.427 1423.4358,-604.0812 1413.1722,-601.4528 1413.7732,-608.427"/>
</g>
<!-- systemd&#45;&gt;systemd&#45;rpm&#45;macros -->
<g id="edge27" class="edge">
<title>systemd&#45;&gt;systemd&#45;rpm&#45;macros</title>
<path fill="none" stroke="#444444" stroke-opacity="0.333333" d="M1207.5771,-633.6584C1241.9338,-645.5523 1287.1028,-661.1892 1323.267,-673.7088"/>
<polygon fill="#444444" fill-opacity="0.333333" stroke="#444444" stroke-opacity="0.333333" points="1322.1375,-677.0215 1332.7323,-676.9856 1324.4275,-670.4067 1322.1375,-677.0215"/>
</g>
<!-- libsemanage&#45;&gt;Fedora Container Base -->
<g id="edge39" class="edge">
<title>libsemanage&#45;&gt;Fedora Container Base</title>
<path fill="none" stroke="#444444" stroke-opacity="0.333333" d="M718.4567,-858.6077C779.6555,-801.1095 969.8073,-622.4557 1040.3278,-556.1994"/>
<polygon fill="#444444" fill-opacity="0.333333" stroke="#444444" stroke-opacity="0.333333" points="1043.0425,-558.4513 1047.9339,-549.0532 1038.2494,-553.3497 1043.0425,-558.4513"/>
</g>
<!-- libsemanage&#45;&gt;libsemanage -->
<g id="edge40" class="edge">
<title>libsemanage&#45;&gt;libsemanage</title>
<path fill="none" stroke="#444444" stroke-opacity="0.333333" d="M774.7725,-882.7574C785.5009,-881.7777 792.7,-879.7586 792.7,-876.7 792.7,-874.7406 789.7455,-873.2078 784.8013,-872.1015"/>
<polygon fill="#444444" fill-opacity="0.333333" stroke="#444444" stroke-opacity="0.333333" points="785.1723,-868.6187 774.7725,-870.6426 784.1645,-875.5458 785.1723,-868.6187"/>
</g>
<!-- util&#45;linux&#45;&gt;Fedora Container Base -->
<g id="edge28" class="edge">
<title>util&#45;linux&#45;&gt;Fedora Container Base</title>
<path fill="none" stroke="#444444" stroke-opacity="0.333333" d="M922.7114,-517.9595C929.7165,-518.5994 937.0022,-519.2649 944.4132,-519.9419"/>
<polygon fill="#444444" fill-opacity="0.333333" stroke="#444444" stroke-opacity="0.333333" points="944.3051,-523.4465 954.5821,-520.8708 944.942,-516.4755 944.3051,-523.4465"/>
</g>
<!-- util&#45;linux&#45;&gt;util&#45;linux -->
<g id="edge29" class="edge">
<title>util&#45;linux&#45;&gt;util&#45;linux</title>
<path fill="none" stroke="#444444" stroke-opacity="0.333333" d="M922.6997,-518.2953C933.2615,-517.4013 940.52,-515.3195 940.52,-512.05 940.52,-509.9555 937.5411,-508.3484 932.6232,-507.2287"/>
<polygon fill="#444444" fill-opacity="0.333333" stroke="#444444" stroke-opacity="0.333333" points="933.0955,-503.7607 922.6997,-505.8047 932.1011,-510.6898 933.0955,-503.7607"/>
</g>
<!-- util&#45;linux&#45;&gt;libfdisk -->
<g id="edge30" class="edge">
<title>util&#45;linux&#45;&gt;libfdisk</title>
<path fill="none" stroke="#444444" stroke-opacity="0.333333" d="M867.6918,-530.3373C887.6588,-568.0903 933.532,-654.8265 957.0224,-699.2417"/>
<polygon fill="#444444" fill-opacity="0.333333" stroke="#444444" stroke-opacity="0.333333" points="954.0434,-701.0955 961.8127,-708.299 960.2313,-697.8228 954.0434,-701.0955"/>
</g>
<!-- util&#45;linux&#45;&gt;libutempter -->
<g id="edge31" class="edge">
<title>util&#45;linux&#45;&gt;libutempter</title>
<path fill="none" stroke="#444444" stroke-opacity="0.333333" d="M844.3671,-530.1562C823.0221,-558.4634 781.6395,-613.3439 756.9357,-646.1054"/>
<polygon fill="#444444" fill-opacity="0.333333" stroke="#444444" stroke-opacity="0.333333" points="753.9649,-644.2319 750.7388,-654.3237 759.5541,-648.4464 753.9649,-644.2319"/>
</g>
<!-- acl&#45;&gt;Fedora Container Base -->
<g id="edge54" class="edge">
<title>acl&#45;&gt;Fedora Container Base</title>
<path fill="none" stroke="#444444" stroke-opacity="0.333333" d="M1234.7489,-327.7846C1202.4165,-366.98 1125.8949,-459.7441 1088.4242,-505.1683"/>
<polygon fill="#444444" fill-opacity="0.333333" stroke="#444444" stroke-opacity="0.333333" points="1085.565,-503.1342 1081.9015,-513.0755 1090.9648,-507.5886 1085.565,-503.1342"/>
</g>
<!-- cryptsetup&#45;libs&#45;&gt;Fedora Container Base -->
<g id="edge55" class="edge">
<title>cryptsetup&#45;libs&#45;&gt;Fedora Container Base</title>
<path fill="none" stroke="#444444" stroke-opacity="0.333333" d="M1125.0989,-213.3941C1115,-268.6252 1084.4648,-435.6238 1072.1909,-502.7508"/>
<polygon fill="#444444" fill-opacity="0.333333" stroke="#444444" stroke-opacity="0.333333" points="1068.6733,-502.5302 1070.3175,-512.9967 1075.5591,-503.7893 1068.6733,-502.5302"/>
</g>
<!-- cryptsetup&#45;libs&#45;&gt;device&#45;mapper&#45;libs -->
<g id="edge56" class="edge">
<title>cryptsetup&#45;libs&#45;&gt;device&#45;mapper&#45;libs</title>
<path fill="none" stroke="#444444" stroke-opacity="0.333333" d="M1105.4938,-177.215C1078.1938,-155.6133 1032.4488,-119.4165 1001.9682,-95.2981"/>
<polygon fill="#444444" fill-opacity="0.333333" stroke="#444444" stroke-opacity="0.333333" points="1003.8177,-92.2984 993.8039,-88.8379 999.474,-97.7878 1003.8177,-92.2984"/>
</g>
<!-- cryptsetup&#45;libs&#45;&gt;libargon2 -->
<g id="edge57" class="edge">
<title>cryptsetup&#45;libs&#45;&gt;libargon2</title>
<path fill="none" stroke="#444444" stroke-opacity="0.333333" d="M1137.5687,-177.0294C1153.2297,-145.7533 1185.2122,-81.882 1203.5216,-45.3167"/>
<polygon fill="#444444" fill-opacity="0.333333" stroke="#444444" stroke-opacity="0.333333" points="1206.7333,-46.7197 1208.0812,-36.2109 1200.4742,-43.5855 1206.7333,-46.7197"/>
</g>
<!-- dbus&#45;&gt;dbus&#45;broker -->
<g id="edge58" class="edge">
<title>dbus&#45;&gt;dbus&#45;broker</title>
<path fill="none" stroke="#444444" stroke-opacity="0.333333" d="M1215.6566,-1109.4825C1185.5773,-1077.3311 1123.0076,-1010.4512 1088.5849,-973.6572"/>
<polygon fill="#444444" fill-opacity="0.333333" stroke="#444444" stroke-opacity="0.333333" points="1091.0763,-971.197 1081.6885,-966.2857 1085.9645,-975.9793 1091.0763,-971.197"/>
</g>
<!-- iptables&#45;libs&#45;&gt;Fedora Container Base -->
<g id="edge59" class="edge">
<title>iptables&#45;libs&#45;&gt;Fedora Container Base</title>
<path fill="none" stroke="#444444" stroke-opacity="0.333333" d="M1347.8786,-827.9087C1297.2166,-774.3806 1149.2283,-618.0201 1090.9662,-556.462"/>
<polygon fill="#444444" fill-opacity="0.333333" stroke="#444444" stroke-opacity="0.333333" points="1093.4136,-553.9562 1083.9976,-549.0992 1088.3296,-558.768 1093.4136,-553.9562"/>
</g>
<!-- iptables&#45;libs&#45;&gt;libpcap -->
<g id="edge60" class="edge">
<title>iptables&#45;libs&#45;&gt;libpcap</title>
<path fill="none" stroke="#444444" stroke-opacity="0.333333" d="M1438.7759,-841.5503C1448.599,-840.9282 1458.6489,-840.2917 1468.403,-839.674"/>
<polygon fill="#444444" fill-opacity="0.333333" stroke="#444444" stroke-opacity="0.333333" points="1468.68,-843.1636 1478.4388,-839.0384 1468.2375,-836.1776 1468.68,-843.1636"/>
</g>
<!-- kmod&#45;libs&#45;&gt;Fedora Container Base -->
<g id="edge61" class="edge">
<title>kmod&#45;libs&#45;&gt;Fedora Container Base</title>
<path fill="none" stroke="#444444" stroke-opacity="0.333333" d="M1292.7966,-496.1819C1255.0253,-502.0297 1207.2956,-509.4193 1165.4593,-515.8964"/>
<polygon fill="#444444" fill-opacity="0.333333" stroke="#444444" stroke-opacity="0.333333" points="1164.8659,-512.4465 1155.5191,-517.4354 1165.9369,-519.3641 1164.8659,-512.4465"/>
</g>
<!-- libfdisk&#45;&gt;Fedora Container Base -->
<g id="edge62" class="edge">
<title>libfdisk&#45;&gt;Fedora Container Base</title>
<path fill="none" stroke="#444444" stroke-opacity="0.333333" d="M980.2769,-708.5075C997.1268,-674.0457 1033.9837,-598.6654 1053.789,-558.1594"/>
<polygon fill="#444444" fill-opacity="0.333333" stroke="#444444" stroke-opacity="0.333333" points="1056.9561,-559.65 1058.2044,-549.1289 1050.6675,-556.5752 1056.9561,-559.65"/>
</g>
<!-- libseccomp&#45;&gt;Fedora Container Base -->
<g id="edge63" class="edge">
<title>libseccomp&#45;&gt;Fedora Container Base</title>
<path fill="none" stroke="#444444" stroke-opacity="0.333333" d="M1418.1608,-443.4204C1340.8725,-462.7269 1218.5091,-493.2932 1140.5321,-512.7718"/>
<polygon fill="#444444" fill-opacity="0.333333" stroke="#444444" stroke-opacity="0.333333" points="1139.6311,-509.3892 1130.7775,-515.2085 1141.3276,-516.1805 1139.6311,-509.3892"/>
</g>
<!-- qrencode&#45;libs&#45;&gt;Fedora Container Base -->
<g id="edge64" class="edge">
<title>qrencode&#45;libs&#45;&gt;Fedora Container Base</title>
<path fill="none" stroke="#444444" stroke-opacity="0.333333" d="M1366.5662,-311.6676C1308.8677,-353.9395 1164.9439,-459.383 1099.8696,-507.0586"/>
<polygon fill="#444444" fill-opacity="0.333333" stroke="#444444" stroke-opacity="0.333333" points="1097.5945,-504.3865 1091.5963,-513.1199 1101.7316,-510.0333 1097.5945,-504.3865"/>
</g>
<!-- systemd&#45;pam&#45;&gt;Fedora Container Base -->
<g id="edge65" class="edge">
<title>systemd&#45;pam&#45;&gt;Fedora Container Base</title>
<path fill="none" stroke="#444444" stroke-opacity="0.333333" d="M1423.4767,-582.0137C1352.5123,-571.8862 1247.5838,-556.9116 1169.927,-545.829"/>
<polygon fill="#444444" fill-opacity="0.333333" stroke="#444444" stroke-opacity="0.333333" points="1170.0318,-542.3086 1159.6376,-544.3606 1169.0428,-549.2383 1170.0318,-542.3086"/>
</g>
<!-- systemd&#45;pam&#45;&gt;systemd -->
<g id="edge66" class="edge">
<title>systemd&#45;pam&#45;&gt;systemd</title>
<path fill="none" stroke="#444444" stroke-opacity="0.333333" d="M1423.4354,-592.5385C1364.5035,-594.9665 1284.4751,-600.1923 1227.2582,-605.3762"/>
<polygon fill="#444444" fill-opacity="0.333333" stroke="#444444" stroke-opacity="0.333333" points="1226.842,-601.8997 1217.2082,-606.3088 1227.4889,-608.8697 1226.842,-601.8997"/>
</g>
<!-- systemd&#45;rpm&#45;macros&#45;&gt;Fedora Container Base -->
<g id="edge67" class="edge">
<title>systemd&#45;rpm&#45;macros&#45;&gt;Fedora Container Base</title>
<path fill="none" stroke="#444444" stroke-opacity="0.333333" d="M1350.0588,-677.0666C1291.4685,-646.8613 1173.5973,-586.0946 1110.01,-553.3132"/>
<polygon fill="#444444" fill-opacity="0.333333" stroke="#444444" stroke-opacity="0.333333" points="1111.5279,-550.158 1101.0357,-548.6866 1108.3203,-556.3798 1111.5279,-550.158"/>
</g>
<!-- libutempter&#45;&gt;Fedora Container Base -->
<g id="edge68" class="edge">
<title>libutempter&#45;&gt;Fedora Container Base</title>
<path fill="none" stroke="#444444" stroke-opacity="0.333333" d="M779.0863,-654.549C840.041,-628.4219 952.6,-580.1755 1017.4531,-552.3774"/>
<polygon fill="#444444" fill-opacity="0.333333" stroke="#444444" stroke-opacity="0.333333" points="1018.8512,-555.5862 1026.6636,-548.4295 1016.0934,-549.1523 1018.8512,-555.5862"/>
</g>
<!-- libutempter&#45;&gt;shadow&#45;utils -->
<g id="edge69" class="edge">
<title>libutempter&#45;&gt;shadow&#45;utils</title>
<path fill="none" stroke="#444444" stroke-opacity="0.333333" d="M749.7548,-690.8009C770.5134,-720.2914 811.611,-778.6762 835.6979,-812.8948"/>
<polygon fill="#444444" fill-opacity="0.333333" stroke="#444444" stroke-opacity="0.333333" points="833.1029,-815.2889 841.721,-821.4515 838.827,-811.2596 833.1029,-815.2889"/>
</g>
<!-- libunwind&#45;&gt;Fedora Container Base -->
<g id="edge36" class="edge">
<title>libunwind&#45;&gt;Fedora Container Base</title>
<path fill="none" stroke="#444444" stroke-opacity="0.333333" d="M723.7083,-158.3672C781.8689,-221.5225 976.2021,-432.5446 1043.68,-505.8174"/>
<polygon fill="#444444" fill-opacity="0.333333" stroke="#444444" stroke-opacity="0.333333" points="1041.1893,-508.2795 1050.5382,-513.2645 1046.3385,-503.5375 1041.1893,-508.2795"/>
</g>
<!-- libunwind&#45;&gt;libunwind -->
<g id="edge37" class="edge">
<title>libunwind&#45;&gt;libunwind</title>
<path fill="none" stroke="#444444" stroke-opacity="0.333333" d="M774.407,-146.486C784.9097,-145.5612 792.07,-143.4992 792.07,-140.3 792.07,-138.3005 789.273,-136.7452 784.6111,-135.6341"/>
<polygon fill="#444444" fill-opacity="0.333333" stroke="#444444" stroke-opacity="0.333333" points="784.8136,-132.1258 774.407,-134.114 783.7821,-139.0494 784.8136,-132.1258"/>
</g>
<!-- libpcap&#45;&gt;Fedora Container Base -->
<g id="edge38" class="edge">
<title>libpcap&#45;&gt;Fedora Container Base</title>
<path fill="none" stroke="#444444" stroke-opacity="0.333333" d="M1510.0414,-817.1467C1428.7603,-764.6754 1193.1963,-612.6064 1102.8526,-554.2847"/>
<polygon fill="#444444" fill-opacity="0.333333" stroke="#444444" stroke-opacity="0.333333" points="1104.6212,-551.2606 1094.3215,-548.7775 1100.8247,-557.1416 1104.6212,-551.2606"/>
</g>
<!-- gperftools&#45;libs&#45;&gt;Fedora Container Base -->
<g id="edge41" class="edge">
<title>gperftools&#45;libs&#45;&gt;Fedora Container Base</title>
<path fill="none" stroke="#444444" stroke-opacity="0.333333" d="M649.1123,-331.654C732.6301,-371.5227 931.5543,-466.4826 1021.4782,-509.4094"/>
<polygon fill="#444444" fill-opacity="0.333333" stroke="#444444" stroke-opacity="0.333333" points="1020.0735,-512.6171 1030.6058,-513.7666 1023.0891,-506.3 1020.0735,-512.6171"/>
</g>
<!-- gperftools&#45;libs&#45;&gt;libunwind -->
<g id="edge42" class="edge">
<title>gperftools&#45;libs&#45;&gt;libunwind</title>
<path fill="none" stroke="#444444" stroke-opacity="0.333333" d="M621.1175,-295.2651C638.0514,-264.7346 672.2584,-203.0623 692.0313,-167.4135"/>
<polygon fill="#444444" fill-opacity="0.333333" stroke="#444444" stroke-opacity="0.333333" points="695.1739,-168.9634 696.9637,-158.5209 689.0525,-165.5681 695.1739,-168.9634"/>
</g>
<!-- nginx&#45;&gt;Fedora Container Base -->
<g id="edge43" class="edge">
<title>nginx&#45;&gt;Fedora Container Base</title>
<path fill="none" stroke="#444444" stroke-opacity="0.333333" d="M633.6438,-559.603C713.4562,-554.3609 839.2478,-546.0988 934.789,-539.8237"/>
<polygon fill="#444444" fill-opacity="0.333333" stroke="#444444" stroke-opacity="0.333333" points="935.0662,-543.3131 944.8153,-539.1651 934.6074,-536.3281 935.0662,-543.3131"/>
</g>
<!-- nginx&#45;&gt;systemd -->
<g id="edge44" class="edge">
<title>nginx&#45;&gt;systemd</title>
<path fill="none" stroke="#444444" stroke-opacity="0.333333" d="M633.7944,-571.306C750.8035,-581.2471 970.4925,-599.9118 1083.8244,-609.5405"/>
<polygon fill="#444444" fill-opacity="0.333333" stroke="#444444" stroke-opacity="0.333333" points="1083.529,-613.0279 1093.7894,-610.3871 1084.1216,-606.053 1083.529,-613.0279"/>
</g>
<!-- nginx&#45;&gt;fedora&#45;logos&#45;httpd -->
<g id="edge45" class="edge">
<title>nginx&#45;&gt;fedora&#45;logos&#45;httpd</title>
<path fill="none" stroke="#444444" stroke-opacity="0.333333" d="M478.3748,-551.9958C396.5162,-538.6057 267.4341,-517.4909 179.0704,-503.0366"/>
<polygon fill="#444444" fill-opacity="0.333333" stroke="#444444" stroke-opacity="0.333333" points="179.4742,-499.5563 169.0404,-501.396 178.3442,-506.4645 179.4742,-499.5563"/>
</g>
<!-- nginx&#45;&gt;gperftools&#45;libs -->
<g id="edge46" class="edge">
<title>nginx&#45;&gt;gperftools&#45;libs</title>
<path fill="none" stroke="#444444" stroke-opacity="0.333333" d="M559.994,-546.6322C569.4614,-503.3712 593.4872,-393.5857 604.8653,-341.5938"/>
<polygon fill="#444444" fill-opacity="0.333333" stroke="#444444" stroke-opacity="0.333333" points="608.3091,-342.2288 607.0279,-331.7117 601.4709,-340.7322 608.3091,-342.2288"/>
</g>
<!-- nginx&#45;&gt;nginx -->
<g id="edge47" class="edge">
<title>nginx&#45;&gt;nginx</title>
<path fill="none" stroke="#444444" stroke-opacity="0.333333" d="M633.6055,-570.7233C644.355,-569.7312 651.54,-567.7234 651.54,-564.7 651.54,-562.7631 648.5913,-561.2431 643.6457,-560.1398"/>
<polygon fill="#444444" fill-opacity="0.333333" stroke="#444444" stroke-opacity="0.333333" points="644.0057,-556.6554 633.6055,-558.6767 642.9962,-563.5823 644.0057,-556.6554"/>
</g>
<!-- nginx&#45;&gt;nginx&#45;filesystem -->
<g id="edge48" class="edge">
<title>nginx&#45;&gt;nginx&#45;filesystem</title>
<path fill="none" stroke="#444444" stroke-opacity="0.333333" d="M556.0773,-582.974C556.1507,-618.998 556.3147,-699.4004 556.4023,-742.3298"/>
<polygon fill="#444444" fill-opacity="0.333333" stroke="#444444" stroke-opacity="0.333333" points="552.9023,-742.3941 556.4228,-752.3869 559.9023,-742.3798 552.9023,-742.3941"/>
</g>
<!-- nginx&#45;&gt;nginx&#45;mimetypes -->
<g id="edge49" class="edge">
<title>nginx&#45;&gt;nginx&#45;mimetypes</title>
<path fill="none" stroke="#444444" stroke-opacity="0.333333" d="M530.0333,-582.7885C471.8842,-623.233 331.3389,-720.9867 266.0019,-766.4306"/>
<polygon fill="#444444" fill-opacity="0.333333" stroke="#444444" stroke-opacity="0.333333" points="263.8815,-763.642 257.6705,-772.2254 267.8786,-769.3887 263.8815,-763.642"/>
</g>
<!-- nginx&#45;filesystem&#45;&gt;Fedora Container Base -->
<g id="edge50" class="edge">
<title>nginx&#45;filesystem&#45;&gt;Fedora Container Base</title>
<path fill="none" stroke="#444444" stroke-opacity="0.333333" d="M595.2525,-752.4235C687.7905,-709.0165 921.1693,-599.5451 1020.7808,-552.8201"/>
<polygon fill="#444444" fill-opacity="0.333333" stroke="#444444" stroke-opacity="0.333333" points="1022.4268,-555.914 1029.9939,-548.4985 1019.454,-549.5766 1022.4268,-555.914"/>
</g>
<!-- nginx&#45;filesystem&#45;&gt;shadow&#45;utils -->
<g id="edge51" class="edge">
<title>nginx&#45;filesystem&#45;&gt;shadow&#45;utils</title>
<path fill="none" stroke="#444444" stroke-opacity="0.333333" d="M632.8282,-788.2996C676.1226,-798.3225 730.2489,-810.853 774.1799,-821.0232"/>
<polygon fill="#444444" fill-opacity="0.333333" stroke="#444444" stroke-opacity="0.333333" points="773.4316,-824.4425 783.9633,-823.2881 775.0104,-817.6228 773.4316,-824.4425"/>
</g>
<!-- nginx&#45;mimetypes&#45;&gt;nginx&#45;filesystem -->
<g id="edge52" class="edge">
<title>nginx&#45;mimetypes&#45;&gt;nginx&#45;filesystem</title>
<path fill="none" stroke="#444444" stroke-opacity="0.333333" d="M317.7595,-785.1513C364.876,-782.283 423.0571,-778.7411 470.1826,-775.8723"/>
<polygon fill="#444444" fill-opacity="0.333333" stroke="#444444" stroke-opacity="0.333333" points="470.6,-779.3534 480.3689,-775.2522 470.1746,-772.3664 470.6,-779.3534"/>
</g>
<!-- nginx&#45;mimetypes&#45;&gt;nginx&#45;mimetypes -->
<g id="edge53" class="edge">
<title>nginx&#45;mimetypes&#45;&gt;nginx&#45;mimetypes</title>
<path fill="none" stroke="#444444" stroke-opacity="0.333333" d="M317.617,-796.2782C328.4264,-795.2422 335.54,-793.2828 335.54,-790.4 335.54,-788.5532 332.6206,-787.0854 327.6803,-785.9965"/>
<polygon fill="#444444" fill-opacity="0.333333" stroke="#444444" stroke-opacity="0.333333" points="328.0189,-782.5088 317.617,-784.5218 327.0039,-789.4348 328.0189,-782.5088"/>
</g>
<!-- Fedora Container Base -->
<g id="node1" class="node">
<title>Fedora Container Base</title>
<ellipse fill="none" stroke="#000000" cx="1067" cy="-531.14" rx="136.5" ry="18"/>
<text text-anchor="middle" x="1067" y="-527.44" font-family="Helvetica,sans-Serif" font-weight="bold" font-size="14.00" fill="#000000">Fedora Container Base (201.3 MB)</text>
</g>
<!-- device&#45;mapper&#45;libs -->
<g id="node2" class="node">
<title>device&#45;mapper&#45;libs</title>
<text text-anchor="middle" x="970.87" y="-66.991" font-family="Helvetica,sans-Serif" font-weight="bold" font-size="14.00" fill="#000000">device&#45;mapper&#45;libs (418.0 kB)</text>
</g>
<!-- device&#45;mapper -->
<g id="node3" class="node">
<title>device&#45;mapper</title>
<text text-anchor="middle" x="950.75" y="-299.13" font-family="Helvetica,sans-Serif" font-weight="bold" font-size="14.00" fill="#000000">device&#45;mapper (349.9 kB)</text>
</g>
<!-- libargon2 -->
<g id="node4" class="node">
<title>libargon2</title>
<text text-anchor="middle" x="1217.2" y="-14.3" font-family="Helvetica,sans-Serif" font-weight="bold" font-size="14.00" fill="#000000">libargon2 (54.2 kB)</text>
</g>
<!-- dbus&#45;broker -->
<g id="node5" class="node">
<title>dbus&#45;broker</title>
<text text-anchor="middle" x="1064.6" y="-944.32" font-family="Helvetica,sans-Serif" font-weight="bold" font-size="14.00" fill="#000000">dbus&#45;broker (409.7 kB)</text>
</g>
<!-- dbus&#45;common -->
<g id="node6" class="node">
<title>dbus&#45;common</title>
<text text-anchor="middle" x="1194.5" y="-888.02" font-family="Helvetica,sans-Serif" font-weight="bold" font-size="14.00" fill="#000000">dbus&#45;common (11.2 kB)</text>
</g>
<!-- shadow&#45;utils -->
<g id="node7" class="node">
<title>shadow&#45;utils</title>
<text text-anchor="middle" x="854.51" y="-835.92" font-family="Helvetica,sans-Serif" font-weight="bold" font-size="14.00" fill="#000000">shadow&#45;utils (4.0 MB)</text>
</g>
<!-- systemd -->
<g id="node8" class="node">
<title>systemd</title>
<text text-anchor="middle" x="1155.5" y="-611.93" font-family="Helvetica,sans-Serif" font-weight="bold" font-size="14.00" fill="#000000">systemd (13.1 MB)</text>
</g>
<!-- libsemanage -->
<g id="node9" class="node">
<title>libsemanage</title>
<text text-anchor="middle" x="699.2" y="-873" font-family="Helvetica,sans-Serif" font-weight="bold" font-size="14.00" fill="#000000">libsemanage (304.5 kB)</text>
</g>
<!-- util&#45;linux -->
<g id="node10" class="node">
<title>util&#45;linux</title>
<text text-anchor="middle" x="858.02" y="-508.35" font-family="Helvetica,sans-Serif" font-weight="bold" font-size="14.00" fill="#000000">util&#45;linux (13.5 MB)</text>
</g>
<!-- acl -->
<g id="node11" class="node">
<title>acl</title>
<text text-anchor="middle" x="1249.7" y="-305.96" font-family="Helvetica,sans-Serif" font-weight="bold" font-size="14.00" fill="#000000">acl (209.6 kB)</text>
</g>
<!-- cryptsetup&#45;libs -->
<g id="node12" class="node">
<title>cryptsetup&#45;libs</title>
<text text-anchor="middle" x="1128.4" y="-191.64" font-family="Helvetica,sans-Serif" font-weight="bold" font-size="14.00" fill="#000000">cryptsetup&#45;libs (1.8 MB)</text>
</g>
<!-- dbus -->
<g id="node13" class="node">
<title>dbus</title>
<text text-anchor="middle" x="1232.7" y="-1124" font-family="Helvetica,sans-Serif" font-weight="bold" font-size="14.00" fill="#000000">dbus (0.0 B)</text>
</g>
<!-- iptables&#45;libs -->
<g id="node14" class="node">
<title>iptables&#45;libs</title>
<text text-anchor="middle" x="1365.2" y="-842.51" font-family="Helvetica,sans-Serif" font-weight="bold" font-size="14.00" fill="#000000">iptables&#45;libs (141.4 kB)</text>
</g>
<!-- kmod&#45;libs -->
<g id="node15" class="node">
<title>kmod&#45;libs</title>
<text text-anchor="middle" x="1360.5" y="-482" font-family="Helvetica,sans-Serif" font-weight="bold" font-size="14.00" fill="#000000">kmod&#45;libs (127.5 kB)</text>
</g>
<!-- libfdisk -->
<g id="node16" class="node">
<title>libfdisk</title>
<text text-anchor="middle" x="971.46" y="-722.84" font-family="Helvetica,sans-Serif" font-weight="bold" font-size="14.00" fill="#000000">libfdisk (472.7 kB)</text>
</g>
<!-- libseccomp -->
<g id="node17" class="node">
<title>libseccomp</title>
<text text-anchor="middle" x="1489.9" y="-421.8" font-family="Helvetica,sans-Serif" font-weight="bold" font-size="14.00" fill="#000000">libseccomp (351.1 kB)</text>
</g>
<!-- qrencode&#45;libs -->
<g id="node18" class="node">
<title>qrencode&#45;libs</title>
<text text-anchor="middle" x="1391.2" y="-289.92" font-family="Helvetica,sans-Serif" font-weight="bold" font-size="14.00" fill="#000000">qrencode&#45;libs (158.2 kB)</text>
</g>
<!-- systemd&#45;pam -->
<g id="node19" class="node">
<title>systemd&#45;pam</title>
<text text-anchor="middle" x="1502" y="-589.52" font-family="Helvetica,sans-Serif" font-weight="bold" font-size="14.00" fill="#000000">systemd&#45;pam (867.6 kB)</text>
</g>
<!-- systemd&#45;rpm&#45;macros -->
<g id="node20" class="node">
<title>systemd&#45;rpm&#45;macros</title>
<text text-anchor="middle" x="1385" y="-691.38" font-family="Helvetica,sans-Serif" font-weight="bold" font-size="14.00" fill="#000000">systemd&#45;rpm&#45;macros (7.9 kB)</text>
</g>
<!-- libutempter -->
<g id="node21" class="node">
<title>libutempter</title>
<text text-anchor="middle" x="736.95" y="-668.91" font-family="Helvetica,sans-Serif" font-weight="bold" font-size="14.00" fill="#000000">libutempter (57.8 kB)</text>
</g>
<!-- libunwind -->
<g id="node22" class="node">
<title>libunwind</title>
<text text-anchor="middle" x="707.07" y="-136.6" font-family="Helvetica,sans-Serif" font-weight="bold" font-size="14.00" fill="#000000">libunwind (172.8 kB)</text>
</g>
<!-- libpcap -->
<g id="node23" class="node">
<title>libpcap</title>
<text text-anchor="middle" x="1538.1" y="-831.56" font-family="Helvetica,sans-Serif" font-weight="bold" font-size="14.00" fill="#000000">libpcap (387.4 kB)</text>
</g>
<!-- fedora&#45;logos&#45;httpd -->
<g id="node24" class="node">
<title>fedora&#45;logos&#45;httpd</title>
<text text-anchor="middle" x="82.5" y="-483.54" font-family="Helvetica,sans-Serif" font-weight="bold" font-size="14.00" fill="#000000">fedora&#45;logos&#45;httpd (9.9 kB)</text>
</g>
<!-- gperftools&#45;libs -->
<g id="node25" class="node">
<title>gperftools&#45;libs</title>
<text text-anchor="middle" x="611.02" y="-309.77" font-family="Helvetica,sans-Serif" font-weight="bold" font-size="14.00" fill="#000000">gperftools&#45;libs (1.5 MB)</text>
</g>
<!-- nginx -->
<g id="node26" class="node">
<title>nginx</title>
<text text-anchor="middle" x="556.04" y="-559.1" font-family="Helvetica,sans-Serif" font-weight="bold" font-size="22.00" fill="#cc0066">nginx (1.6 MB)</text>
</g>
<!-- nginx&#45;filesystem -->
<g id="node27" class="node">
<title>nginx&#45;filesystem</title>
<text text-anchor="middle" x="556.46" y="-766.92" font-family="Helvetica,sans-Serif" font-weight="bold" font-size="14.00" fill="#000000">nginx&#45;filesystem (0.0 B)</text>
</g>
<!-- nginx&#45;mimetypes -->
<g id="node28" class="node">
<title>nginx&#45;mimetypes</title>
<text text-anchor="middle" x="231.54" y="-786.7" font-family="Helvetica,sans-Serif" font-weight="bold" font-size="14.00" fill="#000000">nginx&#45;mimetypes (39.3 kB)</text>
</g>
</g>

<script type="text/javascript"><![CDATA[

document.addEventListener('click', function(e) {
      e = e || window.event;
      var target = e.target || e.srcElement;
      text = target.parentElement.querySelector("title").textContent;

      console.log("Clicked on: " + text);
      // reset all strokes
      var nodes = document.getElementsByClassName("edge");

      for (index = 0, len = nodes.length; index < len; ++index) {
          //var title = nodes[index].querySelector("title").textContent.split("->");
          id = nodes[index].id;
          document.getElementById(id).querySelector("path").setAttribute("stroke-width", "1");
          document.getElementById(id).querySelector("path").setAttribute("stroke-opacity", "0.5");
          document.getElementById(id).querySelector("path").setAttribute("stroke", "#444444");
          document.getElementById(id).querySelector("polygon").setAttribute("stroke-width", "1");
          document.getElementById(id).querySelector("polygon").setAttribute("stroke-opacity", "0.5");
          document.getElementById(id).querySelector("polygon").setAttribute("stroke", "#444444");
      }
      // reset text highlight
      pkgs = document.getElementsByClassName("node");
      for (index2 = 0, len2 = pkgs.length; index2 < len2; ++index2) {
          target_id = pkgs[index2].id;
          document.getElementById(target_id).querySelector("text").setAttribute("font-weight", "normal");
      }

      // highlight deps
      var nodes = document.getElementsByClassName("edge");
      for (index = 0, len = nodes.length; index < len; ++index) {
        var title = nodes[index].querySelector("title").textContent.split("->");

        if (title[0] == text) {
          id = nodes[index].id;
          //console.log("ID:   " + id);
          document.getElementById(id).querySelector("path").setAttribute("stroke-width", "3");
          document.getElementById(id).querySelector("path").setAttribute("stroke-opacity", "1");
          document.getElementById(id).querySelector("path").setAttribute("stroke", "#aa3333");
          document.getElementById(id).querySelector("polygon").setAttribute("stroke-width", "5");
          document.getElementById(id).querySelector("polygon").setAttribute("stroke-opacity", "1");
          document.getElementById(id).querySelector("polygon").setAttribute("stroke", "#aa3333");

        }
        if (title[1] == text) {
          id = nodes[index].id;
          document.getElementById(id).querySelector("path").setAttribute("stroke-width", "3");
          document.getElementById(id).querySelector("path").setAttribute("stroke-opacity", "1");
          document.getElementById(id).querySelector("path").setAttribute("stroke", "#333377");
          document.getElementById(id).querySelector("polygon").setAttribute("stroke-width", "5");
          document.getElementById(id).querySelector("polygon").setAttribute("stroke-opacity", "1");
          document.getElementById(id).querySelector("polygon").setAttribute("stroke", "#333377");
        }

        if (title[0] == text || title[1] == text) {
          pkgs = document.getElementsByClassName("node");
          for (index2 = 0, len2 = pkgs.length; index2 < len2; ++index2) {
            var pkg_name = pkgs[index2].querySelector("title").textContent;
            if (pkg_name == title[0] || pkg_name == title[1]) {
              target_id = pkgs[index2].id;
              document.getElementById(target_id).querySelector("text").setAttribute("font-weight", "bold");
            }
          }
        }
      }


  }, false);

]]></script>

</svg>
