<?xml version="1.0" encoding="UTF-8" standalone="no"?>
<!DOCTYPE svg PUBLIC "-//W3C//DTD SVG 1.1//EN"
 "http://www.w3.org/Graphics/SVG/1.1/DTD/svg11.dtd">
<!-- Generated by graphviz version 2.40.1 (0)
 -->
<!-- Title: packages Pages: 1 -->
<svg width="1346pt" height="1075pt"
 viewBox="0.00 0.00 1614.74 1289.53" xmlns="http://www.w3.org/2000/svg" xmlns:xlink="http://www.w3.org/1999/xlink">
<g id="graph0" class="graph" transform="scale(.8333 .8333) rotate(0) translate(135.2234 1151.2307)">
<title>packages</title>
<polygon fill="#dae2ff" stroke="transparent" points="-135.2234,138.3005 -135.2234,-1151.2307 1479.5179,-1151.2307 1479.5179,138.3005 -135.2234,138.3005"/>
<polygon fill="#ccebc5" stroke="#ccebc5" points="930.0966,-945.5735 925.3547,-948.3526 919.71,-948.3526 915.6045,-946.0221 912.2226,-979.2699 911.829,-1078.1869 926.0728,-1076.3683 930.5909,-1075.9827 934.4124,-1075.8175 941.199,-944.3282 944.6874,-944.3282 944.6874,-944.3282 941.199,-944.3282 934.4124,-1075.8175 951.8558,-1075.4314 1016.1582,-1076.724 1058.6276,-1029.3805 1074.46,-950.4231 1079.3938,-930.9047 1081.8829,-921.9619 1076.4604,-900.3096 1022.666,-804.8198 1022.8848,-796.51 1031.1333,-702.1979 968.8604,-677.7515 961.3318,-675.0972 959.2964,-674.4606 950.7715,-671.9619 941.8141,-669.514 933.6907,-667.4566 927.9172,-666.2255 912.2649,-663.2003 908.8854,-662.6833 905.4807,-662.2983 872.8591,-659.259 871.1622,-659.033 768.0112,-537.9075 768.0124,-537.9013 761.3135,-527.6481 757.6995,-522.3647 755.0326,-518.6454 747.9628,-509.2473 741.2156,-501.1527 736.6716,-495.3269 727.8959,-485.3248 713.676,-471.1032 708.4649,-466.6593 653.2164,-409.0455 644.3348,-401.5396 637.7715,-395.5255 618.3764,-373.3593 609.3084,-361.0377 603.9716,-354.2198 601.2238,-350.5353 590.6271,-334.901 584.0325,-323.7975 582.4339,-323.7347 571.9682,-324.0862 567.7104,-324.0722 564.1819,-324.1249 558.759,-324.0062 555.3524,-324.1179 547.4445,-324.0856 539.8214,-324.1935 533.1033,-323.9172 529.7388,-323.7167 522.6183,-323.4227 501.9331,-321.807 494.7157,-321.1115 467.2202,-358.94 426.0797,-425.8387 427.3242,-427.8873 432.4685,-435.8273 440.0157,-446.7058 445.7903,-453.8627 455.2515,-464.6718 459.3815,-468.9591 468.2266,-479.2625 496.1351,-522.6037 516.3456,-545.6187 520.1341,-550.7679 530.4861,-563.5408 533.2297,-567.4286 536.0532,-518.0939 536.0532,-518.0939 533.2297,-567.4286 548.645,-592.5141 553.073,-600.131 555.4297,-604.647 532.4982,-614.802 518.5422,-620.1687 517.83,-620.4006 506.682,-623.7089 501.0548,-625.2138 491.1915,-627.5621 490.5922,-627.687 480.5259,-629.1985 472.6476,-630.1507 449.2989,-632.2874 441.5813,-633.4458 426.9638,-636.5015 408.9148,-641.8704 401.7163,-644.4299 399.3437,-645.3425 397.2701,-646.201 385.1027,-651.6008 341.0584,-672.4243 365.9275,-709.2239 386.3856,-741.4286 456.7449,-735.9277 474.8705,-738.0359 473.8711,-820.0688 480.8214,-733.4471 481.7865,-731.9539 484.8692,-731.9539 485.0092,-731.9952 490.5475,-731.9952 491.2281,-731.7872 495.3621,-731.7872 495.9879,-732.543 502.1956,-736.3931 506.7251,-736.3931 512.7476,-732.7247 513.5136,-731.8115 517.2283,-731.8115 517.8394,-731.9986 517.8248,-809.2915 521.0552,-806.3966 528.1259,-800.5646 532.2897,-796.7565 532.1195,-787.3764 532.1195,-787.3764 532.2897,-796.7565 528.1259,-800.5646 521.0552,-806.3966 517.8248,-809.2915 517.8394,-731.9986 517.2283,-731.8115 513.5136,-731.8115 512.7476,-732.7247 506.7251,-736.3931 502.1956,-736.3931 495.9879,-732.543 495.3621,-731.7872 491.2281,-731.7872 490.5475,-731.9952 485.0092,-731.9952 484.8692,-731.9539 481.7865,-731.9539 480.8214,-733.4471 473.8711,-820.0688 474.8705,-738.0359 456.7449,-735.9277 386.3856,-741.4286 414.9863,-794.3199 441.7419,-839.4086 463.9203,-872.2268 464.9355,-925.4337 438.11,-970.0183 446.9879,-988.3667 463.355,-1025.696 499.7127,-1113.5564 605.4482,-1146.4531 610.635,-1146.3348 612.6846,-1146.3647 624.182,-1146.7484 625.4408,-1001.8027 626.2598,-1001.5754 620.4858,-942.7388 620.6257,-909.4911 624.6525,-909.282 621.775,-820.5 626.8301,-821.959 632.838,-820.101 636.0869,-817.152 631.8511,-813.2526 628.0518,-812.1843 628.0518,-812.1843 631.8511,-813.2526 636.0869,-817.152 632.838,-820.101 626.8301,-821.959 621.775,-820.5 624.6525,-909.282 620.6257,-909.4911 620.4858,-942.7388 626.2598,-1001.5754 625.4408,-1001.8027 624.182,-1146.7484 633.4353,-1147.2307 633.5635,-1147.1753 645.1542,-1142.6685 640.2996,-1001.7979 640.1234,-1001.7484 642.3665,-960.153 641.4761,-923.6167 641.6536,-909.5317 643.5726,-909.4437 643.5726,-909.4437 641.6536,-909.5317 641.4761,-923.6167 642.3665,-960.153 640.1234,-1001.7484 640.2996,-1001.7979 645.1542,-1142.6685 653.4999,-1139.6073 653.4306,-1089.9658 650.3398,-1042.6368 650.8357,-1005.7989 655.9053,-1005.7989 661.8824,-1002.286 662.5986,-1001.4974 661.0911,-999.8384 656.1188,-997.073 656.1188,-997.073 661.0911,-999.8384 662.5986,-1001.4974 661.8824,-1002.286 655.9053,-1005.7989 650.8357,-1005.7989 650.3398,-1042.6368 653.4306,-1089.9658 653.4999,-1139.6073 669.8976,-1135.0193 669.1995,-1069.6215 669.1995,-1069.6215 669.8976,-1135.0193 680.3847,-1132.542 689.1296,-1130.8574 695.7866,-1129.8641 741.7975,-1123.9973 825.8833,-1083.9888 801.2596,-1001.5 789.4714,-944.01 781.1511,-916.1372 795.5479,-905.8715 809.7817,-896.2552 817.5096,-891.3436 811.4009,-796.4 811.2921,-796.3698 807.8367,-796.3698 807.1584,-795.7963 806.1843,-795.3646 802.0826,-791.2341 797.9496,-721.3494 743.9929,-750.8712 729.5659,-759.5548 727.5679,-760.9647 723.7925,-759.1536 720.5505,-757.7414 718.2607,-678.8915 712.9162,-680.4937 708.1294,-679.0698 708.1294,-679.0698 712.9162,-680.4937 718.2607,-678.8915 722.205,-675.2814 719.2324,-672.6984 719.2324,-672.6984 722.205,-675.2814 718.2607,-678.8915 720.5505,-757.7414 723.7925,-759.1536 727.5679,-760.9647 729.5659,-759.5548 730.0764,-744.2316 735.2933,-678.2276 735.2933,-678.2276 730.0764,-744.2316 729.5659,-759.5548 743.9929,-750.8712 797.9496,-721.3494 802.0826,-791.2341 806.1843,-795.3646 807.1584,-795.7963 807.8367,-796.3698 811.2921,-796.3698 811.4009,-796.4 817.5096,-891.3436 819.4692,-890.1778 819.5056,-863.9337 819.5056,-863.9337 819.4692,-890.1778 821.5781,-889.0879 833.8161,-883.226 841.9606,-879.9598 842.4195,-800.1243 837.8878,-801.3569 837.8878,-801.3569 842.4195,-800.1243 846.8284,-796.5379 846.8938,-796.4459 843.2233,-793.4885 843.2233,-793.4885 846.8938,-796.4459 846.8284,-796.5379 842.4195,-800.1243 841.9606,-879.9598 852.2755,-876.227 856.2348,-874.9529 855.9625,-858.9312 855.9625,-858.9312 856.2348,-874.9529 852.2755,-876.227 841.9606,-879.9598 833.8161,-883.226 821.5781,-889.0879 819.4692,-890.1778 817.5096,-891.3436 809.7817,-896.2552 795.5479,-905.8715 781.1511,-916.1372 789.4714,-944.01 801.2596,-1001.5 825.8833,-1083.9888 850.0615,-1091.7706 898.1296,-1080.5637 899.31,-1080.3136 911.829,-1078.1869 912.2226,-979.2699 915.6045,-946.0221 919.71,-948.3526 925.3547,-948.3526 930.0966,-945.5735 931.6257,-943.7339 930.7232,-942.7138 925.0811,-939.4502 920.3644,-939.4502 920.3644,-939.4502 925.0811,-939.4502 930.7232,-942.7138 931.6257,-943.7339 930.0966,-945.5735 930.0966,-945.5735"/>
<polygon fill="#fed9a6" stroke="#fed9a6" points="283.3664,-23.255 286.5541,-127.9676 286.5477,-139.2502 286.9469,-145.7193 286.9395,-158.6276 289.0293,-227.2757 292.0666,-228.7018 304.6888,-233.9867 315.3647,-237.9089 319.3782,-239.2795 330.1,-242.3927 330.998,-242.6304 337.2465,-244.1243 352.6207,-247.0172 383.0816,-251.9621 390.3055,-253.3177 405.4942,-256.9396 417.331,-260.3571 416.9177,-210.7696 416.8607,-209.6103 416.3619,-143.1043 421.7737,-144.6622 425.9606,-143.5058 425.9606,-143.5058 421.7737,-144.6622 416.3619,-143.1043 416.8607,-209.6103 416.9177,-210.7696 417.331,-260.3571 431.7097,-265.5935 434.9573,-267.0217 442.2616,-139.9828 442.8022,-139.8328 445.5207,-139.8328 445.5207,-139.8328 442.8022,-139.8328 442.2616,-139.9828 434.9573,-267.0217 454.3972,-276.0742 494.7157,-321.1115 501.9331,-321.807 522.6183,-323.4227 529.7388,-323.7167 542.0931,-178.349 546.997,-174.5259 547.5307,-173.6775 549.4246,-172.2907 551.2155,-172.2907 551.4762,-172.2165 551.4762,-172.2165 551.2155,-172.2907 549.4246,-172.2907 547.5307,-173.6775 546.997,-174.5259 542.0931,-178.349 529.7388,-323.7167 533.1033,-323.9172 539.8214,-324.1935 547.4445,-324.0856 555.3524,-324.1179 558.759,-324.0062 564.1819,-324.1249 567.7104,-324.0722 571.9682,-324.0862 582.4339,-323.7347 584.0325,-323.7975 593.1073,-318.5379 602.3194,-313.429 601.7457,-216.4636 598.4075,-174.3954 598.4075,-174.3954 601.7457,-216.4636 602.3194,-313.429 593.1073,-318.5379 584.0325,-323.7975 590.6271,-334.901 601.2238,-350.5353 603.9716,-354.2198 609.3084,-361.0377 713.8473,-392.516 712.4113,-312.9893 709.477,-309.77 754.1284,-309.77 790.4259,-316.1642 794.6689,-313.4016 796.6499,-310.1077 796.6499,-310.1077 794.6689,-313.4016 790.4259,-316.1642 754.1284,-309.77 709.477,-309.77 712.4113,-312.9893 713.8473,-392.516 609.3084,-361.0377 618.3764,-373.3593 637.7715,-395.5255 644.3348,-401.5396 653.2164,-409.0455 708.4649,-466.6593 713.676,-471.1032 727.8959,-485.3248 727.0312,-433.5067 727.0312,-433.5067 727.8959,-485.3248 736.6716,-495.3269 736.7735,-440.1121 739.744,-402.0854 744.1177,-402.0854 750.2405,-398.5194 751.1214,-397.5362 749.0233,-395.1496 745.1614,-393.06 745.1614,-393.06 749.0233,-395.1496 751.1214,-397.5362 750.2405,-398.5194 744.1177,-402.0854 739.744,-402.0854 736.7735,-440.1121 736.6716,-495.3269 741.2156,-501.1527 747.9628,-509.2473 755.0326,-518.6454 757.6995,-522.3647 761.3135,-527.6481 768.0124,-537.9013 768.0112,-537.9075 871.1622,-659.033 872.8591,-659.259 905.4807,-662.2983 908.8854,-662.6833 912.2649,-663.2003 927.9172,-666.2255 933.6907,-667.4566 941.8141,-669.514 950.7715,-671.9619 946.865,-525.0723 946.1213,-525.0723 941.1599,-520.7008 937.7421,-519.7892 937.7421,-519.7892 941.1599,-520.7008 946.1213,-525.0723 946.865,-525.0723 950.7715,-671.9619 959.2964,-674.4606 961.3318,-675.0972 968.8604,-677.7515 969.4797,-592.1572 969.4797,-592.1572 968.8604,-677.7515 1031.1333,-702.1979 1096.5151,-656.644 1043.7382,-524.67 1031.7245,-477.6773 1028.6593,-468.9638 1016.1864,-437.7741 1013.0056,-436.9268 999.7998,-434.2403 999.1906,-434.1357 996.5118,-433.7601 992.0695,-433.2762 970.128,-431.5717 953.7647,-428.7978 945.51,-426.8957 933.2825,-423.3295 922.1014,-419.3889 905.4337,-411.9866 921.3857,-345.0888 923.4808,-330.6298 925.5154,-309.77 944.0168,-232.1815 983.7081,-217.7941 999.4188,-211.6867 1012.4895,-205.9365 1016.8455,-203.7996 1019.1089,-204.4482 1029.1486,-206.884 1033.0405,-207.6572 1043.1979,-209.4534 1059.2876,-211.5921 1085.2853,-213.8999 1100.9215,-215.9901 1106.9825,-217.0709 1114.0192,-218.483 1116.0883,-218.9443 1190.2117,-238.81 1207.743,-212.8805 1257.8282,-123.0856 1257.4807,-98.9885 1257.5873,-85.9163 1256.35,-78.2028 1253.1093,-49.7804 1205.7209,41.3265 1200.6121,47.5368 1129.4492,61.9356 1124.986,62.9285 1111.3479,62.251 1113.2499,-43.8132 1110.7054,-83.3864 1105.9711,-80.6237 1100.7913,-80.6237 1100.7913,-80.6237 1105.9711,-80.6237 1110.7054,-83.3864 1113.2499,-43.8132 1111.3479,62.251 1102.3749,62.1504 1102.1113,62.1526 1091.7314,62.6351 1075.0082,63.7345 1071.4185,64.0391 990.4464,45.6682 972.3504,34.2544 910.2112,35.4785 911.7325,-112.8316 906.5797,-116.791 907.3867,-13.8051 901.0275,-118.6788 896.7632,-118.6788 894.8474,-56.4855 896.0599,15.6653 880.7053,-5.6353 881.0488,-68.2432 882.0194,-82.8758 881.1583,-114.6236 887.7053,-118.4596 887.9637,-118.7364 886.8388,-120.0185 880.5023,-123.7655 876.5065,-123.7655 876.5065,-123.7655 880.5023,-123.7655 886.8388,-120.0185 887.9637,-118.7364 887.7053,-118.4596 881.1583,-114.6236 882.0194,-82.8758 881.0488,-68.2432 880.7053,-5.6353 896.0599,15.6653 894.8474,-56.4855 896.7632,-118.6788 901.0275,-118.6788 907.3867,-13.8051 906.5797,-116.791 911.7325,-112.8316 910.2112,35.4785 909.1753,35.517 855.9619,70.8622 776.2507,94.366 776.1142,84.9929 776.1142,84.9929 776.2507,94.366 773.3577,95.3489 766.2928,-39.7625 763.3237,-39.7625 763.1146,-39.7031 763.1146,-39.7031 763.3237,-39.7625 766.2928,-39.7625 773.3577,95.3489 761.3025,99.719 755.2608,100.6566 746.0513,102.4547 743.9725,102.9439 741.1973,-34.8908 736.2449,-36.2946 732.0247,-39.9072 735.6915,-42.9244 735.6915,-42.9244 732.0247,-39.9072 736.2449,-36.2946 741.1973,-34.8908 743.9725,102.9439 734.5829,105.3431 730.2433,106.539 728.6537,55.4236 725.6281,5.5844 719.6967,-39.6788 717.0858,-39.6788 716.3906,-39.4816 713.3019,-39.4816 713.3019,-39.4816 716.3906,-39.4816 717.0858,-39.6788 719.6967,-39.6788 725.6281,5.5844 728.6537,55.4236 730.2433,106.539 714.7403,111.7566 706.9027,109.6206 678.6445,103.5523 598.4155,118.0558 596.64,17.1476 596.64,17.1476 598.4155,118.0558 584.8044,121.105 579.7337,122.4593 569.0587,125.5413 561.2906,127.9503 544.3405,134.3005 512.8452,121.1597 456.3113,63.4929 420.5608,3.4333 429.7668,-6.4135 437.4593,-13.9963 441.8906,-18 508.8988,-18 508.8988,-18 441.8906,-18 437.4593,-13.9963 429.7668,-6.4135 420.5608,3.4333 416.0802,2.0089 402.582,-1.7211 398.3398,-2.6291 391.7442,-3.9054 290.602,-19.3241 283.3664,-23.255 283.3664,-23.255"/>
<polygon fill="#fbb4ae" stroke="#fbb4ae" points="-3.3715,-148.5159 -1.464,-140.063 5.0159,-108.0899 78.6011,-20.5042 130.9552,-19.2462 142.8396,-18.6817 150.7198,-18.1226 151.0974,-76.0837 148.3839,-145.5874 153.301,-145.5874 154.3951,-146.9402 159.4569,-150.0309 165.3309,-150.0309 171.5985,-146.1028 171.7444,-145.9307 175.8774,-145.9307 176.1688,-146.0199 180.8245,-146.0199 181.3177,-146.4358 186.7576,-254.6221 187.2671,-254.5377 220.5602,-249.9626 221.6466,-326.7202 225.6628,-359.0676 228.2867,-359.0676 229.1308,-358.8222 229.1308,-358.8222 228.2867,-359.0676 225.6628,-359.0676 221.6466,-326.7202 220.5602,-249.9626 187.2671,-254.5377 186.7576,-254.6221 181.3177,-146.4358 180.8245,-146.0199 176.1688,-146.0199 175.8774,-145.9307 171.7444,-145.9307 171.5985,-146.1028 165.3309,-150.0309 159.4569,-150.0309 154.3951,-146.9402 153.301,-145.5874 148.3839,-145.5874 151.0974,-76.0837 150.7198,-18.1226 159.2328,-17.1192 174.3053,-14.989 180.7001,-13.7883 180.7894,-24.3467 181.9768,-60.4521 181.9768,-60.4521 180.7894,-24.3467 180.7001,-13.7883 198.7089,-9.1401 213.0176,-7.4172 283.3664,-23.255 286.5541,-127.9676 286.5477,-139.2502 286.9469,-145.7193 286.9395,-158.6276 289.0293,-227.2757 286.4429,-228.5861 286.3952,-354.4989 281.3087,-354.4989 275.4163,-357.9478 274.5636,-358.8992 271.8607,-358.8992 271.7618,-358.8706 271.7618,-358.8706 271.8607,-358.8992 274.5636,-358.8992 275.352,-359.7867 281.3743,-363.3604 281.3743,-363.3604 275.352,-359.7867 274.5636,-358.8992 275.4163,-357.9478 281.3087,-354.4989 286.3952,-354.4989 286.4429,-228.5861 289.0293,-227.2757 292.0666,-228.7018 304.6888,-233.9867 315.3647,-237.9089 319.3782,-239.2795 330.1,-242.3927 330.998,-242.6304 337.2465,-244.1243 352.6207,-247.0172 348.1202,-352.707 343.6916,-355.9637 343.6916,-355.9637 348.1202,-352.707 352.6207,-247.0172 383.0816,-251.9621 390.3055,-253.3177 405.4942,-256.9396 417.331,-260.3571 431.7097,-265.5935 434.9573,-267.0217 454.3972,-276.0742 494.7157,-321.1115 467.2202,-358.94 426.0797,-425.8387 427.3242,-427.8873 432.4685,-435.8273 440.0157,-446.7058 445.7903,-453.8627 455.2515,-464.6718 459.3815,-468.9591 468.2266,-479.2625 496.1351,-522.6037 516.3456,-545.6187 520.1341,-550.7679 530.4861,-563.5408 533.2297,-567.4286 548.645,-592.5141 553.073,-600.131 555.4297,-604.647 532.4982,-614.802 518.5422,-620.1687 517.83,-620.4006 506.682,-623.7089 501.0548,-625.2138 491.1915,-627.5621 490.5922,-627.687 480.5259,-629.1985 472.6476,-630.1507 449.2989,-632.2874 441.5813,-633.4458 426.9638,-636.5015 408.9148,-641.8704 401.7163,-644.4299 399.3437,-645.3425 397.2701,-646.201 385.1027,-651.6008 341.0584,-672.4243 365.9275,-709.2239 386.3856,-741.4286 414.9863,-794.3199 441.7419,-839.4086 463.9203,-872.2268 464.9355,-925.4337 438.11,-970.0183 399.992,-971.5779 333.622,-954.3867 329.9958,-953.5289 311.1629,-950.328 310.2378,-950.1916 299.1382,-948.803 301.4728,-860.5067 305.3372,-826.6926 310.0942,-825.3475 314.0027,-822.0299 310.0838,-818.5531 305.109,-817.0846 305.109,-817.0846 310.0838,-818.5531 314.0027,-822.0299 310.0942,-825.3475 305.3372,-826.6926 301.4728,-860.5067 299.1382,-948.803 294.0993,-948.3985 277.7028,-947.8143 277.2278,-947.808 276.5355,-875.9285 276.5355,-875.9285 277.2278,-947.808 222.9176,-949.5147 169.5554,-922.6445 134.0933,-874.043 127.1702,-853.5157 130.89,-849.2815 137.0216,-842.5585 140.4883,-838.9034 145.1272,-833.5363 144.2238,-699.1921 148.2654,-699.1921 148.6805,-699.6562 155.0241,-703.4182 160.1011,-703.4182 165.2232,-700.499 165.2232,-700.499 160.1011,-703.4182 155.0241,-703.4182 148.6805,-699.6562 148.2654,-699.1921 144.2238,-699.1921 145.1272,-833.5363 140.4883,-838.9034 137.0216,-842.5585 130.89,-849.2815 127.1702,-853.5157 122.6318,-850.72 124.5321,-767.9568 124.5321,-767.9568 122.6318,-850.72 61.4621,-816.0729 28.2907,-785.2219 -11.7856,-737.3826 -7.1787,-698.85 -3.896,-631.5063 -80.0293,-560.9931 -88.8434,-503.5953 -90.9887,-491.6177 -94.6856,-473.5392 -109.0471,-410.9143 -124.1084,-391.6189 -131.2234,-363.0357 -130.4747,-361.8305 27.7886,-342.2467 37.4352,-344.9014 43.7984,-340.6339 45.1321,-338.6754 47.4391,-338.6754 50.6157,-369.0606 49.7635,-414.1675 48.8294,-414.2213 48.4731,-442.7717 48.4731,-442.7717 48.8294,-414.2213 49.7635,-414.1675 50.6157,-369.0606 47.4391,-338.6754 45.1321,-338.6754 43.7984,-340.6339 37.4352,-344.9014 27.7886,-342.2467 -130.4747,-361.8305 -95.3336,-300.3859 -72.3699,-257.985 -9.4281,-188.0396 38.2013,-215.3009 43.2342,-218.0271 48.0308,-220.3347 54.0796,-336.5065 52.6676,-338.1473 54.6626,-340.6287 58.8036,-342.9946 58.8036,-342.9946 54.6626,-340.6287 52.6676,-338.1473 54.0796,-336.5065 58.5676,-333.9754 58.5676,-333.9754 54.0796,-336.5065 48.0308,-220.3347 43.2342,-218.0271 38.2013,-215.3009 -9.4281,-188.0396 -9.6573,-171.6532 -3.3715,-148.5159 -3.3715,-148.5159"/>
<polygon fill="#ccebc5" stroke="#ccebc5" points="995.6539,-341.9154 990.4536,-346.3183 992.0695,-433.2762 970.128,-431.5717 953.7647,-428.7978 945.51,-426.8957 933.2825,-423.3295 922.1014,-419.3889 905.4337,-411.9866 921.3857,-345.0888 923.4808,-330.6298 925.5154,-309.77 944.0168,-232.1815 983.7081,-217.7941 999.4188,-211.6867 1012.4895,-205.9365 1016.8455,-203.7996 1019.1089,-204.4482 1029.1486,-206.884 1033.0405,-207.6572 1043.1979,-209.4534 1059.2876,-211.5921 1085.2853,-213.8999 1100.9215,-215.9901 1106.9825,-217.0709 1114.0192,-218.483 1116.0883,-218.9443 1190.2117,-238.81 1199.4188,-269.9056 1209.6016,-325.7455 1282.3416,-400.0523 1286.1121,-405.5157 1273.4042,-424.8338 1257.4331,-445.9254 1244.0433,-462.6581 1222.2438,-494.2723 1189.0704,-547.706 1170.9047,-572.058 1155.8463,-590.8762 1141.0542,-611.4062 1117.5831,-648.7808 1115.4479,-652.8935 1098.7529,-656.1685 1096.5151,-656.644 1043.7382,-524.67 1031.7245,-477.6773 1028.6593,-468.9638 1016.1864,-437.7741 1013.0056,-436.9268 999.7998,-434.2403 999.1906,-434.1357 996.5118,-433.7601 992.0695,-433.2762 990.4536,-346.3183 995.6539,-341.9154 996.683,-340.1203 1001.1206,-340.1203 1001.1843,-340.1019 1004.9763,-340.1019 1006.8038,-340.6471 1010.644,-340.6471 1012.0151,-340.2371 1015.3761,-340.2371 1017.3045,-342.4914 1021.1865,-344.6295 1021.1865,-344.6295 1017.3045,-342.4914 1015.3761,-340.2371 1012.0151,-340.2371 1010.644,-340.6471 1006.8038,-340.6471 1004.9763,-340.1019 1001.1843,-340.1019 1001.1206,-340.1203 996.683,-340.1203 995.6539,-341.9154 995.6539,-341.9154"/>
<polygon fill="#fed9a6" stroke="#fed9a6" points="1462.8142,-634.4 1468.761,-599.4909 1475.5179,-565.1586 1472.0393,-532.3221 1469.0879,-479.4587 1437.5269,-442.3037 1425.2405,-435.8862 1348.7941,-424.0393 1344.3979,-423.259 1323.2709,-418.5496 1312.8385,-415.5235 1311.1899,-415.0085 1298.8682,-410.5992 1289.543,-407.0527 1286.1121,-405.5157 1273.4042,-424.8338 1257.4331,-445.9254 1244.0433,-462.6581 1222.2438,-494.2723 1189.0704,-547.706 1170.9047,-572.058 1155.8463,-590.8762 1141.0542,-611.4062 1117.5831,-648.7808 1115.4479,-652.8935 1216.1942,-689.2101 1252.2032,-685.739 1274.4795,-684.086 1285.3795,-684.0089 1286.0508,-602.4697 1283.1328,-555.142 1283.1328,-555.142 1286.0508,-602.4697 1285.3795,-684.0089 1300.527,-684.5793 1310.8322,-685.4272 1311.8291,-685.576 1322.4253,-685.6555 1325.1344,-685.7355 1338.108,-686.6909 1347.9667,-687.6341 1352.4659,-688.2622 1414.0052,-673.728 1462.8142,-634.4 1462.8142,-634.4"/>
<polyline fill="none" stroke="#000000" points="590.6271,-334.901 601.2238,-350.5353 603.9716,-354.2198 609.3084,-361.0377 618.3764,-373.3593 637.7715,-395.5255 644.3348,-401.5396 653.2164,-409.0455 708.4649,-466.6593 713.676,-471.1032 727.8959,-485.3248 736.6716,-495.3269 741.2156,-501.1527 747.9628,-509.2473 755.0326,-518.6454 757.6995,-522.3647 761.3135,-527.6481 768.0124,-537.9013 768.0112,-537.9075 871.1622,-659.033 872.8591,-659.259 905.4807,-662.2983 908.8854,-662.6833 912.2649,-663.2003 927.9172,-666.2255 933.6907,-667.4566 941.8141,-669.514 950.7715,-671.9619 959.2964,-674.4606 961.3318,-675.0972 968.8604,-677.7515 1031.1333,-702.1979 1022.8848,-796.51 1022.666,-804.8198 1076.4604,-900.3096 1081.8829,-921.9619 1079.3938,-930.9047 1074.46,-950.4231 1058.6276,-1029.3805 1016.1582,-1076.724 951.8558,-1075.4314 934.4124,-1075.8175 930.5909,-1075.9827 926.0728,-1076.3683 911.829,-1078.1869 899.31,-1080.3136 898.1296,-1080.5637 850.0615,-1091.7706 825.8833,-1083.9888 741.7975,-1123.9973 695.7866,-1129.8641 689.1296,-1130.8574 680.3847,-1132.542 669.8976,-1135.0193 653.4999,-1139.6073 645.1542,-1142.6685 633.5635,-1147.1753 633.4353,-1147.2307 624.182,-1146.7484 612.6846,-1146.3647 610.635,-1146.3348 605.4482,-1146.4531 499.7127,-1113.5564 463.355,-1025.696 446.9879,-988.3667 438.11,-970.0183 464.9355,-925.4337 463.9203,-872.2268 441.7419,-839.4086 414.9863,-794.3199 386.3856,-741.4286 365.9275,-709.2239 341.0584,-672.4243 385.1027,-651.6008 397.2701,-646.201 399.3437,-645.3425 401.7163,-644.4299 408.9148,-641.8704 426.9638,-636.5015 441.5813,-633.4458 449.2989,-632.2874 472.6476,-630.1507 480.5259,-629.1985 490.5922,-627.687 491.1915,-627.5621 501.0548,-625.2138 506.682,-623.7089 517.83,-620.4006 518.5422,-620.1687 532.4982,-614.802 555.4297,-604.647 553.073,-600.131 548.645,-592.5141 533.2297,-567.4286 530.4861,-563.5408 520.1341,-550.7679 516.3456,-545.6187 496.1351,-522.6037 468.2266,-479.2625 459.3815,-468.9591 455.2515,-464.6718 445.7903,-453.8627 440.0157,-446.7058 432.4685,-435.8273 427.3242,-427.8873 426.0797,-425.8387 467.2202,-358.94 494.7157,-321.1115 501.9331,-321.807 522.6183,-323.4227 529.7388,-323.7167 533.1033,-323.9172 539.8214,-324.1935 547.4445,-324.0856 555.3524,-324.1179 558.759,-324.0062 564.1819,-324.1249 567.7104,-324.0722 571.9682,-324.0862 582.4339,-323.7347 584.0325,-323.7975 590.6271,-334.901 "/>
<polyline fill="none" stroke="#000000" points="944.0168,-232.1815 983.7081,-217.7941 999.4188,-211.6867 1012.4895,-205.9365 1016.8455,-203.7996 1019.1089,-204.4482 1029.1486,-206.884 1033.0405,-207.6572 1043.1979,-209.4534 1059.2876,-211.5921 1085.2853,-213.8999 1100.9215,-215.9901 1106.9825,-217.0709 1114.0192,-218.483 1116.0883,-218.9443 1190.2117,-238.81 1207.743,-212.8805 1257.8282,-123.0856 1257.4807,-98.9885 1257.5873,-85.9163 1256.35,-78.2028 1253.1093,-49.7804 1205.7209,41.3265 1200.6121,47.5368 1129.4492,61.9356 1124.986,62.9285 1111.3479,62.251 1102.3749,62.1504 1102.1113,62.1526 1091.7314,62.6351 1075.0082,63.7345 1071.4185,64.0391 990.4464,45.6682 972.3504,34.2544 910.2112,35.4785 909.1753,35.517 855.9619,70.8622 776.2507,94.366 773.3577,95.3489 761.3025,99.719 755.2608,100.6566 746.0513,102.4547 743.9725,102.9439 734.5829,105.3431 730.2433,106.539 714.7403,111.7566 706.9027,109.6206 678.6445,103.5523 598.4155,118.0558 584.8044,121.105 579.7337,122.4593 569.0587,125.5413 561.2906,127.9503 544.3405,134.3005 512.8452,121.1597 456.3113,63.4929 420.5608,3.4333 416.0802,2.0089 402.582,-1.7211 398.3398,-2.6291 391.7442,-3.9054 290.602,-19.3241 283.3664,-23.255 286.5541,-127.9676 286.5477,-139.2502 286.9469,-145.7193 286.9395,-158.6276 289.0293,-227.2757 292.0666,-228.7018 304.6888,-233.9867 315.3647,-237.9089 319.3782,-239.2795 330.1,-242.3927 330.998,-242.6304 337.2465,-244.1243 352.6207,-247.0172 383.0816,-251.9621 390.3055,-253.3177 405.4942,-256.9396 417.331,-260.3571 431.7097,-265.5935 434.9573,-267.0217 454.3972,-276.0742 494.7157,-321.1115 501.9331,-321.807 522.6183,-323.4227 529.7388,-323.7167 533.1033,-323.9172 539.8214,-324.1935 547.4445,-324.0856 555.3524,-324.1179 558.759,-324.0062 564.1819,-324.1249 567.7104,-324.0722 571.9682,-324.0862 582.4339,-323.7347 584.0325,-323.7975 590.6271,-334.901 601.2238,-350.5353 603.9716,-354.2198 609.3084,-361.0377 618.3764,-373.3593 637.7715,-395.5255 644.3348,-401.5396 653.2164,-409.0455 708.4649,-466.6593 713.676,-471.1032 727.8959,-485.3248 736.6716,-495.3269 741.2156,-501.1527 747.9628,-509.2473 755.0326,-518.6454 757.6995,-522.3647 761.3135,-527.6481 768.0124,-537.9013 768.0112,-537.9075 871.1622,-659.033 872.8591,-659.259 905.4807,-662.2983 908.8854,-662.6833 912.2649,-663.2003 927.9172,-666.2255 933.6907,-667.4566 941.8141,-669.514 950.7715,-671.9619 959.2964,-674.4606 961.3318,-675.0972 968.8604,-677.7515 1031.1333,-702.1979 1096.5151,-656.644 1043.7382,-524.67 1031.7245,-477.6773 1028.6593,-468.9638 1016.1864,-437.7741 1013.0056,-436.9268 999.7998,-434.2403 999.1906,-434.1357 996.5118,-433.7601 992.0695,-433.2762 970.128,-431.5717 953.7647,-428.7978 945.51,-426.8957 933.2825,-423.3295 922.1014,-419.3889 905.4337,-411.9866 921.3857,-345.0888 923.4808,-330.6298 925.5154,-309.77 944.0168,-232.1815 "/>
<polyline fill="none" stroke="#000000" points="408.9148,-641.8704 401.7163,-644.4299 399.3437,-645.3425 397.2701,-646.201 385.1027,-651.6008 341.0584,-672.4243 365.9275,-709.2239 386.3856,-741.4286 414.9863,-794.3199 441.7419,-839.4086 463.9203,-872.2268 464.9355,-925.4337 438.11,-970.0183 399.992,-971.5779 333.622,-954.3867 329.9958,-953.5289 311.1629,-950.328 310.2378,-950.1916 299.1382,-948.803 294.0993,-948.3985 277.7028,-947.8143 277.2278,-947.808 222.9176,-949.5147 169.5554,-922.6445 134.0933,-874.043 127.1702,-853.5157 122.6318,-850.72 61.4621,-816.0729 28.2907,-785.2219 -11.7856,-737.3826 -7.1787,-698.85 -3.896,-631.5063 -80.0293,-560.9931 -88.8434,-503.5953 -90.9887,-491.6177 -94.6856,-473.5392 -109.0471,-410.9143 -124.1084,-391.6189 -131.2234,-363.0357 -130.4747,-361.8305 -95.3336,-300.3859 -72.3699,-257.985 -9.4281,-188.0396 -9.6573,-171.6532 -3.3715,-148.5159 -1.464,-140.063 5.0159,-108.0899 78.6011,-20.5042 130.9552,-19.2462 142.8396,-18.6817 150.7198,-18.1226 159.2328,-17.1192 174.3053,-14.989 180.7001,-13.7883 198.7089,-9.1401 213.0176,-7.4172 283.3664,-23.255 286.5541,-127.9676 286.5477,-139.2502 286.9469,-145.7193 286.9395,-158.6276 289.0293,-227.2757 292.0666,-228.7018 304.6888,-233.9867 315.3647,-237.9089 319.3782,-239.2795 330.1,-242.3927 330.998,-242.6304 337.2465,-244.1243 352.6207,-247.0172 383.0816,-251.9621 390.3055,-253.3177 405.4942,-256.9396 417.331,-260.3571 431.7097,-265.5935 434.9573,-267.0217 454.3972,-276.0742 494.7157,-321.1115 467.2202,-358.94 426.0797,-425.8387 427.3242,-427.8873 432.4685,-435.8273 440.0157,-446.7058 445.7903,-453.8627 455.2515,-464.6718 459.3815,-468.9591 468.2266,-479.2625 496.1351,-522.6037 516.3456,-545.6187 520.1341,-550.7679 530.4861,-563.5408 533.2297,-567.4286 548.645,-592.5141 553.073,-600.131 555.4297,-604.647 532.4982,-614.802 518.5422,-620.1687 517.83,-620.4006 506.682,-623.7089 501.0548,-625.2138 491.1915,-627.5621 490.5922,-627.687 480.5259,-629.1985 472.6476,-630.1507 449.2989,-632.2874 441.5813,-633.4458 426.9638,-636.5015 408.9148,-641.8704 "/>
<polyline fill="none" stroke="#000000" points="1141.0542,-611.4062 1155.8463,-590.8762 1170.9047,-572.058 1189.0704,-547.706 1222.2438,-494.2723 1244.0433,-462.6581 1257.4331,-445.9254 1273.4042,-424.8338 1286.1121,-405.5157 1282.3416,-400.0523 1209.6016,-325.7455 1199.4188,-269.9056 1190.2117,-238.81 1116.0883,-218.9443 1114.0192,-218.483 1106.9825,-217.0709 1100.9215,-215.9901 1085.2853,-213.8999 1059.2876,-211.5921 1043.1979,-209.4534 1033.0405,-207.6572 1029.1486,-206.884 1019.1089,-204.4482 1016.8455,-203.7996 1012.4895,-205.9365 999.4188,-211.6867 983.7081,-217.7941 944.0168,-232.1815 925.5154,-309.77 923.4808,-330.6298 921.3857,-345.0888 905.4337,-411.9866 922.1014,-419.3889 933.2825,-423.3295 945.51,-426.8957 953.7647,-428.7978 970.128,-431.5717 992.0695,-433.2762 996.5118,-433.7601 999.1906,-434.1357 999.7998,-434.2403 1013.0056,-436.9268 1016.1864,-437.7741 1028.6593,-468.9638 1031.7245,-477.6773 1043.7382,-524.67 1096.5151,-656.644 1098.7529,-656.1685 1115.4479,-652.8935 1117.5831,-648.7808 1141.0542,-611.4062 "/>
<polyline fill="none" stroke="#000000" points="1310.8322,-685.4272 1311.8291,-685.576 1322.4253,-685.6555 1325.1344,-685.7355 1338.108,-686.6909 1347.9667,-687.6341 1352.4659,-688.2622 1414.0052,-673.728 1462.8142,-634.4 1468.761,-599.4909 1475.5179,-565.1586 1472.0393,-532.3221 1469.0879,-479.4587 1437.5269,-442.3037 1425.2405,-435.8862 1348.7941,-424.0393 1344.3979,-423.259 1323.2709,-418.5496 1312.8385,-415.5235 1311.1899,-415.0085 1298.8682,-410.5992 1289.543,-407.0527 1286.1121,-405.5157 1273.4042,-424.8338 1257.4331,-445.9254 1244.0433,-462.6581 1222.2438,-494.2723 1189.0704,-547.706 1170.9047,-572.058 1155.8463,-590.8762 1141.0542,-611.4062 1117.5831,-648.7808 1115.4479,-652.8935 1216.1942,-689.2101 1252.2032,-685.739 1274.4795,-684.086 1285.3795,-684.0089 1300.527,-684.5793 1310.8322,-685.4272 "/>
<!-- device&#45;mapper&#45;libs&#45;&gt;Fedora Container Base -->
<g id="edge1" class="edge">
<title>device&#45;mapper&#45;libs&#45;&gt;Fedora Container Base</title>
<path fill="none" stroke="#444444" stroke-opacity="0.333333" d="M650.7944,-983.407C639.9246,-905.5362 597.0818,-598.6114 583.8583,-503.879"/>
<polygon fill="#444444" fill-opacity="0.333333" stroke="#444444" stroke-opacity="0.333333" points="587.3139,-503.317 582.4649,-493.8969 580.3811,-504.2848 587.3139,-503.317"/>
</g>
<!-- device&#45;mapper&#45;libs&#45;&gt;device&#45;mapper -->
<g id="edge2" class="edge">
<title>device&#45;mapper&#45;libs&#45;&gt;device&#45;mapper</title>
<path fill="none" stroke="#444444" stroke-opacity="0.333333" d="M654.9629,-983.2342C653.5361,-950.9111 644.3158,-883.4585 636.3757,-845.1832"/>
<polygon fill="#444444" fill-opacity="0.333333" stroke="#444444" stroke-opacity="0.333333" points="639.7489,-844.2265 634.1776,-835.2148 632.9131,-845.7339 639.7489,-844.2265"/>
</g>
<!-- device&#45;mapper&#45;&gt;Fedora Container Base -->
<g id="edge32" class="edge">
<title>device&#45;mapper&#45;&gt;Fedora Container Base</title>
<path fill="none" stroke="#444444" stroke-opacity="0.333333" d="M624.7543,-798.7451C616.932,-742.377 593.2107,-571.4385 583.8288,-503.8315"/>
<polygon fill="#444444" fill-opacity="0.333333" stroke="#444444" stroke-opacity="0.333333" points="587.2923,-503.3255 582.4509,-493.9015 580.3587,-504.2877 587.2923,-503.3255"/>
</g>
<!-- device&#45;mapper&#45;&gt;device&#45;mapper&#45;libs -->
<g id="edge33" class="edge">
<title>device&#45;mapper&#45;&gt;device&#45;mapper&#45;libs</title>
<path fill="none" stroke="#444444" stroke-opacity="0.333333" d="M625.6571,-835.3558C627.0839,-867.6789 636.3042,-935.1315 644.2443,-973.4068"/>
<polygon fill="#444444" fill-opacity="0.333333" stroke="#444444" stroke-opacity="0.333333" points="640.8711,-974.3635 646.4424,-983.3752 647.7069,-972.8561 640.8711,-974.3635"/>
</g>
<!-- device&#45;mapper&#45;&gt;systemd -->
<g id="edge34" class="edge">
<title>device&#45;mapper&#45;&gt;systemd</title>
<path fill="none" stroke="#444444" stroke-opacity="0.333333" d="M632.2268,-799.0586C650.1947,-733.2984 712.2943,-506.0224 734.2198,-425.7781"/>
<polygon fill="#444444" fill-opacity="0.333333" stroke="#444444" stroke-opacity="0.333333" points="737.6629,-426.4558 736.9224,-415.8868 730.9104,-424.6107 737.6629,-426.4558"/>
</g>
<!-- device&#45;mapper&#45;&gt;util&#45;linux -->
<g id="edge35" class="edge">
<title>device&#45;mapper&#45;&gt;util&#45;linux</title>
<path fill="none" stroke="#444444" stroke-opacity="0.333333" d="M601.2361,-798.9937C583.0681,-786.3796 558.6399,-769.419 538.8645,-755.6889"/>
<polygon fill="#444444" fill-opacity="0.333333" stroke="#444444" stroke-opacity="0.333333" points="540.6367,-752.6584 530.4264,-749.8302 536.6445,-758.4084 540.6367,-752.6584"/>
</g>
<!-- libargon2&#45;&gt;Fedora Container Base -->
<g id="edge3" class="edge">
<title>libargon2&#45;&gt;Fedora Container Base</title>
<path fill="none" stroke="#444444" stroke-opacity="0.333333" d="M909.4354,-925.9456C856.6909,-853.8985 661.2126,-586.8819 599.0563,-501.9785"/>
<polygon fill="#444444" fill-opacity="0.333333" stroke="#444444" stroke-opacity="0.333333" points="601.8665,-499.892 593.1352,-493.8906 596.2182,-504.0269 601.8665,-499.892"/>
</g>
<!-- dbus&#45;broker&#45;&gt;Fedora Container Base -->
<g id="edge4" class="edge">
<title>dbus&#45;broker&#45;&gt;Fedora Container Base</title>
<path fill="none" stroke="#444444" stroke-opacity="0.333333" d="M797.3376,-327.8629C752.9513,-358.0851 663.7556,-418.8176 614.5354,-452.3311"/>
<polygon fill="#444444" fill-opacity="0.333333" stroke="#444444" stroke-opacity="0.333333" points="612.4164,-449.5396 606.1204,-458.0608 616.3561,-455.3257 612.4164,-449.5396"/>
</g>
<!-- dbus&#45;broker&#45;&gt;dbus&#45;common -->
<g id="edge5" class="edge">
<title>dbus&#45;broker&#45;&gt;dbus&#45;common</title>
<path fill="none" stroke="#444444" stroke-opacity="0.333333" d="M833.5494,-328.0923C853.4495,-365.9175 899.169,-452.8194 922.5808,-497.3195"/>
<polygon fill="#444444" fill-opacity="0.333333" stroke="#444444" stroke-opacity="0.333333" points="919.6014,-499.1738 927.355,-506.3941 925.7964,-495.9145 919.6014,-499.1738"/>
</g>
<!-- dbus&#45;broker&#45;&gt;shadow&#45;utils -->
<g id="edge6" class="edge">
<title>dbus&#45;broker&#45;&gt;shadow&#45;utils</title>
<path fill="none" stroke="#444444" stroke-opacity="0.333333" d="M790.885,-327.8063C717.9277,-367.6511 543.1097,-463.1261 462.4436,-507.181"/>
<polygon fill="#444444" fill-opacity="0.333333" stroke="#444444" stroke-opacity="0.333333" points="460.6467,-504.1744 453.5478,-512.0394 464.0019,-510.3179 460.6467,-504.1744"/>
</g>
<!-- dbus&#45;broker&#45;&gt;systemd -->
<g id="edge7" class="edge">
<title>dbus&#45;broker&#45;&gt;systemd</title>
<path fill="none" stroke="#444444" stroke-opacity="0.333333" d="M806.9299,-327.9374C795.0629,-340.6341 779.0499,-357.7668 765.8908,-371.8459"/>
<polygon fill="#444444" fill-opacity="0.333333" stroke="#444444" stroke-opacity="0.333333" points="763.1897,-369.6102 758.9183,-379.3059 768.3037,-374.3901 763.1897,-369.6102"/>
</g>
<!-- dbus&#45;common&#45;&gt;Fedora Container Base -->
<g id="edge8" class="edge">
<title>dbus&#45;common&#45;&gt;Fedora Container Base</title>
<path fill="none" stroke="#444444" stroke-opacity="0.333333" d="M859.0616,-514.0231C807.9636,-507.0401 740.5368,-497.8256 684.7565,-490.2027"/>
<polygon fill="#444444" fill-opacity="0.333333" stroke="#444444" stroke-opacity="0.333333" points="685.2229,-486.734 674.8411,-488.8477 684.2751,-493.6696 685.2229,-486.734"/>
</g>
<!-- dbus&#45;common&#45;&gt;dbus&#45;common -->
<g id="edge9" class="edge">
<title>dbus&#45;common&#45;&gt;dbus&#45;common</title>
<path fill="none" stroke="#444444" stroke-opacity="0.333333" d="M1014.5355,-530.6933C1025.285,-529.7012 1032.47,-527.6934 1032.47,-524.67 1032.47,-522.7331 1029.5213,-521.2131 1024.5757,-520.1098"/>
<polygon fill="#444444" fill-opacity="0.333333" stroke="#444444" stroke-opacity="0.333333" points="1024.9357,-516.6254 1014.5355,-518.6467 1023.9262,-523.5523 1024.9357,-516.6254"/>
</g>
<!-- dbus&#45;common&#45;&gt;systemd -->
<g id="edge10" class="edge">
<title>dbus&#45;common&#45;&gt;systemd</title>
<path fill="none" stroke="#444444" stroke-opacity="0.333333" d="M909.0298,-506.4425C874.7098,-484.0529 816.3975,-446.0113 778.5368,-421.3119"/>
<polygon fill="#444444" fill-opacity="0.333333" stroke="#444444" stroke-opacity="0.333333" points="780.1361,-418.1763 769.8483,-415.6437 776.3113,-424.039 780.1361,-418.1763"/>
</g>
<!-- shadow&#45;utils&#45;&gt;Fedora Container Base -->
<g id="edge11" class="edge">
<title>shadow&#45;utils&#45;&gt;Fedora Container Base</title>
<path fill="none" stroke="#444444" stroke-opacity="0.333333" d="M473.4945,-512.0922C488.7385,-506.9068 505.4487,-501.2226 521.0189,-495.9262"/>
<polygon fill="#444444" fill-opacity="0.333333" stroke="#444444" stroke-opacity="0.333333" points="522.2028,-499.2205 530.5429,-492.6865 519.9484,-492.5934 522.2028,-499.2205"/>
</g>
<!-- shadow&#45;utils&#45;&gt;shadow&#45;utils -->
<g id="edge12" class="edge">
<title>shadow&#45;utils&#45;&gt;shadow&#45;utils</title>
<path fill="none" stroke="#444444" stroke-opacity="0.333333" d="M491.1756,-536.2934C501.719,-535.34 508.85,-533.2989 508.85,-530.17 508.85,-528.2144 506.0644,-526.6838 501.4012,-525.578"/>
<polygon fill="#444444" fill-opacity="0.333333" stroke="#444444" stroke-opacity="0.333333" points="501.5838,-522.0664 491.1756,-524.0466 500.5469,-528.9892 501.5838,-522.0664"/>
</g>
<!-- shadow&#45;utils&#45;&gt;libsemanage -->
<g id="edge13" class="edge">
<title>shadow&#45;utils&#45;&gt;libsemanage</title>
<path fill="none" stroke="#444444" stroke-opacity="0.333333" d="M392.2108,-548.2217C344.3966,-578.8953 247.3224,-641.1699 194.1928,-675.2533"/>
<polygon fill="#444444" fill-opacity="0.333333" stroke="#444444" stroke-opacity="0.333333" points="192.2714,-672.3276 185.7443,-680.6731 196.0511,-678.2194 192.2714,-672.3276"/>
</g>
<!-- systemd&#45;&gt;Fedora Container Base -->
<g id="edge14" class="edge">
<title>systemd&#45;&gt;Fedora Container Base</title>
<path fill="none" stroke="#444444" stroke-opacity="0.333333" d="M704.3844,-415.6406C680.7618,-427.0764 650.1434,-441.899 625.1902,-453.979"/>
<polygon fill="#444444" fill-opacity="0.333333" stroke="#444444" stroke-opacity="0.333333" points="623.4061,-450.954 615.9304,-458.4617 626.4563,-457.2546 623.4061,-450.954"/>
</g>
<!-- systemd&#45;&gt;shadow&#45;utils -->
<g id="edge15" class="edge">
<title>systemd&#45;&gt;shadow&#45;utils</title>
<path fill="none" stroke="#444444" stroke-opacity="0.333333" d="M698.2515,-415.4873C639.8502,-439.588 536.4428,-482.2616 473.5711,-508.2071"/>
<polygon fill="#444444" fill-opacity="0.333333" stroke="#444444" stroke-opacity="0.333333" points="472.1293,-505.0157 464.2206,-512.0658 474.7996,-511.4863 472.1293,-505.0157"/>
</g>
<!-- systemd&#45;&gt;systemd -->
<g id="edge16" class="edge">
<title>systemd&#45;&gt;systemd</title>
<path fill="none" stroke="#444444" stroke-opacity="0.333333" d="M803.6267,-403.7513C814.1613,-402.8903 821.46,-400.7898 821.46,-397.45 821.46,-395.3104 818.4646,-393.6795 813.542,-392.5572"/>
<polygon fill="#444444" fill-opacity="0.333333" stroke="#444444" stroke-opacity="0.333333" points="814.0196,-389.09 803.6267,-391.1487 813.0351,-396.0204 814.0196,-389.09"/>
</g>
<!-- systemd&#45;&gt;util&#45;linux -->
<g id="edge17" class="edge">
<title>systemd&#45;&gt;util&#45;linux</title>
<path fill="none" stroke="#444444" stroke-opacity="0.333333" d="M728.8494,-415.9002C689.1001,-471.838 569.8188,-639.6983 523.2843,-705.1847"/>
<polygon fill="#444444" fill-opacity="0.333333" stroke="#444444" stroke-opacity="0.333333" points="520.4096,-703.1879 517.4701,-713.3669 526.1157,-707.2427 520.4096,-703.1879"/>
</g>
<!-- systemd&#45;&gt;acl -->
<g id="edge18" class="edge">
<title>systemd&#45;&gt;acl</title>
<path fill="none" stroke="#444444" stroke-opacity="0.333333" d="M734.1484,-379.4036C707.7224,-318.3543 621.5519,-119.2835 589.6926,-45.6822"/>
<polygon fill="#444444" fill-opacity="0.333333" stroke="#444444" stroke-opacity="0.333333" points="592.7539,-43.9436 585.5694,-36.1569 586.33,-46.7244 592.7539,-43.9436"/>
</g>
<!-- systemd&#45;&gt;cryptsetup&#45;libs -->
<g id="edge19" class="edge">
<title>systemd&#45;&gt;cryptsetup&#45;libs</title>
<path fill="none" stroke="#444444" stroke-opacity="0.333333" d="M746.3052,-415.6337C761.4777,-479.127 812.174,-691.2796 830.5743,-768.2808"/>
<polygon fill="#444444" fill-opacity="0.333333" stroke="#444444" stroke-opacity="0.333333" points="827.2209,-769.3068 832.9493,-778.2195 834.0292,-767.6798 827.2209,-769.3068"/>
</g>
<!-- systemd&#45;&gt;dbus -->
<g id="edge20" class="edge">
<title>systemd&#45;&gt;dbus</title>
<path fill="none" stroke="#444444" stroke-opacity="0.333333" d="M762.9432,-379.3072C824.4202,-326.1519 1004.2023,-170.706 1074.5286,-109.8993"/>
<polygon fill="#444444" fill-opacity="0.333333" stroke="#444444" stroke-opacity="0.333333" points="1076.8836,-112.49 1082.1589,-103.3019 1072.3052,-107.1949 1076.8836,-112.49"/>
</g>
<!-- systemd&#45;&gt;iptables&#45;libs -->
<g id="edge21" class="edge">
<title>systemd&#45;&gt;iptables&#45;libs</title>
<path fill="none" stroke="#444444" stroke-opacity="0.333333" d="M803.5936,-384.9635C843.8844,-376.801 897.0079,-366.0386 941.0508,-357.1158"/>
<polygon fill="#444444" fill-opacity="0.333333" stroke="#444444" stroke-opacity="0.333333" points="941.7726,-360.5408 950.8785,-355.1249 940.3826,-353.6802 941.7726,-360.5408"/>
</g>
<!-- systemd&#45;&gt;kmod&#45;libs -->
<g id="edge22" class="edge">
<title>systemd&#45;&gt;kmod&#45;libs</title>
<path fill="none" stroke="#444444" stroke-opacity="0.333333" d="M728.4173,-379.4032C698.6311,-339.7107 627.3276,-244.6928 592.6231,-198.4461"/>
<polygon fill="#444444" fill-opacity="0.333333" stroke="#444444" stroke-opacity="0.333333" points="595.3888,-196.3004 586.5872,-190.4027 589.79,-200.5019 595.3888,-196.3004"/>
</g>
<!-- systemd&#45;&gt;libfdisk -->
<g id="edge23" class="edge">
<title>systemd&#45;&gt;libfdisk</title>
<path fill="none" stroke="#444444" stroke-opacity="0.333333" d="M740.0579,-415.6949C735.1231,-463.0289 721.8816,-590.0406 715.934,-647.0895"/>
<polygon fill="#444444" fill-opacity="0.333333" stroke="#444444" stroke-opacity="0.333333" points="712.435,-646.8988 714.8791,-657.2079 719.3973,-647.6247 712.435,-646.8988"/>
</g>
<!-- systemd&#45;&gt;libseccomp -->
<g id="edge24" class="edge">
<title>systemd&#45;&gt;libseccomp</title>
<path fill="none" stroke="#444444" stroke-opacity="0.333333" d="M750.9345,-379.1814C774.3629,-331.4906 837.4743,-203.0206 865.2763,-146.4267"/>
<polygon fill="#444444" fill-opacity="0.333333" stroke="#444444" stroke-opacity="0.333333" points="868.4646,-147.8745 869.7324,-137.3558 862.1817,-144.788 868.4646,-147.8745"/>
</g>
<!-- systemd&#45;&gt;qrencode&#45;libs -->
<g id="edge25" class="edge">
<title>systemd&#45;&gt;qrencode&#45;libs</title>
<path fill="none" stroke="#444444" stroke-opacity="0.333333" d="M741.9253,-379.2187C741.8146,-320.9704 741.4688,-139.05 741.3343,-68.2881"/>
<polygon fill="#444444" fill-opacity="0.333333" stroke="#444444" stroke-opacity="0.333333" points="744.8337,-67.9149 741.3146,-57.9216 737.8337,-67.9283 744.8337,-67.9149"/>
</g>
<!-- systemd&#45;&gt;systemd&#45;pam -->
<g id="edge26" class="edge">
<title>systemd&#45;&gt;systemd&#45;pam</title>
<path fill="none" stroke="#444444" stroke-opacity="0.333333" d="M725.01,-379.445C675.0086,-333.9806 527.7512,-215.1949 458.3626,-163.8695"/>
<polygon fill="#444444" fill-opacity="0.333333" stroke="#444444" stroke-opacity="0.333333" points="460.4318,-161.0467 450.2984,-157.9542 456.2916,-166.691 460.4318,-161.0467"/>
</g>
<!-- systemd&#45;&gt;systemd&#45;rpm&#45;macros -->
<g id="edge27" class="edge">
<title>systemd&#45;&gt;systemd&#45;rpm&#45;macros</title>
<path fill="none" stroke="#444444" stroke-opacity="0.333333" d="M803.5671,-414.6935C907.7311,-443.8485 1118.2501,-502.7717 1230.5587,-534.2063"/>
<polygon fill="#444444" fill-opacity="0.333333" stroke="#444444" stroke-opacity="0.333333" points="1229.8802,-537.6508 1240.4535,-536.9758 1231.767,-530.9099 1229.8802,-537.6508"/>
</g>
<!-- libsemanage&#45;&gt;Fedora Container Base -->
<g id="edge39" class="edge">
<title>libsemanage&#45;&gt;Fedora Container Base</title>
<path fill="none" stroke="#444444" stroke-opacity="0.333333" d="M191.6303,-680.7923C268.3252,-640.3212 453.8029,-542.4465 537.6008,-498.2272"/>
<polygon fill="#444444" fill-opacity="0.333333" stroke="#444444" stroke-opacity="0.333333" points="539.3745,-501.2488 546.5852,-493.4863 536.1075,-495.0578 539.3745,-501.2488"/>
</g>
<!-- libsemanage&#45;&gt;libsemanage -->
<g id="edge40" class="edge">
<title>libsemanage&#45;&gt;libsemanage</title>
<path fill="none" stroke="#444444" stroke-opacity="0.333333" d="M232.9825,-704.9074C243.7109,-703.9277 250.91,-701.9086 250.91,-698.85 250.91,-696.8906 247.9555,-695.3578 243.0113,-694.2515"/>
<polygon fill="#444444" fill-opacity="0.333333" stroke="#444444" stroke-opacity="0.333333" points="243.3823,-690.7687 232.9825,-692.7926 242.3745,-697.6958 243.3823,-690.7687"/>
</g>
<!-- util&#45;linux&#45;&gt;Fedora Container Base -->
<g id="edge28" class="edge">
<title>util&#45;linux&#45;&gt;Fedora Container Base</title>
<path fill="none" stroke="#444444" stroke-opacity="0.333333" d="M509.8334,-713.3577C522.9017,-669.0967 556.1568,-556.465 571.7038,-503.809"/>
<polygon fill="#444444" fill-opacity="0.333333" stroke="#444444" stroke-opacity="0.333333" points="575.0908,-504.6973 574.5659,-494.1155 568.3773,-502.7151 575.0908,-504.6973"/>
</g>
<!-- util&#45;linux&#45;&gt;util&#45;linux -->
<g id="edge29" class="edge">
<title>util&#45;linux&#45;&gt;util&#45;linux</title>
<path fill="none" stroke="#444444" stroke-opacity="0.333333" d="M569.0797,-738.0053C579.6415,-737.1113 586.9,-735.0295 586.9,-731.76 586.9,-729.6655 583.9211,-728.0584 579.0032,-726.9387"/>
<polygon fill="#444444" fill-opacity="0.333333" stroke="#444444" stroke-opacity="0.333333" points="579.4755,-723.4707 569.0797,-725.5147 578.4811,-730.3998 579.4755,-723.4707"/>
</g>
<!-- util&#45;linux&#45;&gt;libfdisk -->
<g id="edge30" class="edge">
<title>util&#45;linux&#45;&gt;libfdisk</title>
<path fill="none" stroke="#444444" stroke-opacity="0.333333" d="M568.9645,-714.3505C592.4132,-708.0276 619.0118,-700.8554 642.9126,-694.4107"/>
<polygon fill="#444444" fill-opacity="0.333333" stroke="#444444" stroke-opacity="0.333333" points="643.8788,-697.7752 652.6227,-691.7924 642.0563,-691.0166 643.8788,-697.7752"/>
</g>
<!-- util&#45;linux&#45;&gt;libutempter -->
<g id="edge31" class="edge">
<title>util&#45;linux&#45;&gt;libutempter</title>
<path fill="none" stroke="#444444" stroke-opacity="0.333333" d="M464.5017,-749.7705C432.796,-764.0828 388.2891,-784.1737 354.3222,-799.5068"/>
<polygon fill="#444444" fill-opacity="0.333333" stroke="#444444" stroke-opacity="0.333333" points="352.715,-796.3921 345.0406,-803.6965 355.5951,-802.7722 352.715,-796.3921"/>
</g>
<!-- acl&#45;&gt;Fedora Container Base -->
<g id="edge51" class="edge">
<title>acl&#45;&gt;Fedora Container Base</title>
<path fill="none" stroke="#444444" stroke-opacity="0.333333" d="M577.7992,-36.232C578.1441,-106.7338 579.392,-361.8258 579.8114,-447.5534"/>
<polygon fill="#444444" fill-opacity="0.333333" stroke="#444444" stroke-opacity="0.333333" points="576.3116,-447.6132 579.8606,-457.5959 583.3115,-447.5789 576.3116,-447.6132"/>
</g>
<!-- cryptsetup&#45;libs&#45;&gt;Fedora Container Base -->
<g id="edge52" class="edge">
<title>cryptsetup&#45;libs&#45;&gt;Fedora Container Base</title>
<path fill="none" stroke="#444444" stroke-opacity="0.333333" d="M822.7453,-778.3529C779.3918,-724.3434 651.1341,-564.5608 600.6761,-501.7004"/>
<polygon fill="#444444" fill-opacity="0.333333" stroke="#444444" stroke-opacity="0.333333" points="603.3542,-499.4455 594.3649,-493.838 597.8953,-503.8274 603.3542,-499.4455"/>
</g>
<!-- cryptsetup&#45;libs&#45;&gt;device&#45;mapper&#45;libs -->
<g id="edge53" class="edge">
<title>cryptsetup&#45;libs&#45;&gt;device&#45;mapper&#45;libs</title>
<path fill="none" stroke="#444444" stroke-opacity="0.333333" d="M820.9912,-814.7015C788.1882,-851.2466 714.2042,-933.6704 676.4414,-975.741"/>
<polygon fill="#444444" fill-opacity="0.333333" stroke="#444444" stroke-opacity="0.333333" points="673.6874,-973.5695 669.6122,-983.3493 678.8966,-978.2454 673.6874,-973.5695"/>
</g>
<!-- cryptsetup&#45;libs&#45;&gt;libargon2 -->
<g id="edge54" class="edge">
<title>cryptsetup&#45;libs&#45;&gt;libargon2</title>
<path fill="none" stroke="#444444" stroke-opacity="0.333333" d="M847.7844,-814.5964C862.5639,-840.141 889.6675,-886.9864 906.8927,-916.7581"/>
<polygon fill="#444444" fill-opacity="0.333333" stroke="#444444" stroke-opacity="0.333333" points="904.0726,-918.8728 912.11,-925.7757 910.1315,-915.3672 904.0726,-918.8728"/>
</g>
<!-- dbus&#45;&gt;dbus&#45;broker -->
<g id="edge55" class="edge">
<title>dbus&#45;&gt;dbus&#45;broker</title>
<path fill="none" stroke="#444444" stroke-opacity="0.333333" d="M1080.8166,-103.1142C1030.9733,-143.2082 910.791,-239.8829 854.2624,-285.3545"/>
<polygon fill="#444444" fill-opacity="0.333333" stroke="#444444" stroke-opacity="0.333333" points="851.9982,-282.684 846.4,-291.6791 856.3857,-288.1384 851.9982,-282.684"/>
</g>
<!-- iptables&#45;libs&#45;&gt;Fedora Container Base -->
<g id="edge56" class="edge">
<title>iptables&#45;libs&#45;&gt;Fedora Container Base</title>
<path fill="none" stroke="#444444" stroke-opacity="0.333333" d="M965.3805,-358.2433C881.9363,-383.7112 730.0697,-430.0622 643.9811,-456.3372"/>
<polygon fill="#444444" fill-opacity="0.333333" stroke="#444444" stroke-opacity="0.333333" points="642.8711,-453.0165 634.3284,-459.2832 644.9146,-459.7116 642.8711,-453.0165"/>
</g>
<!-- iptables&#45;libs&#45;&gt;libpcap -->
<g id="edge57" class="edge">
<title>iptables&#45;libs&#45;&gt;libpcap</title>
<path fill="none" stroke="#444444" stroke-opacity="0.333333" d="M1038.5743,-358.3747C1056.6744,-381.5449 1088.1302,-421.8119 1108.8832,-448.3782"/>
<polygon fill="#444444" fill-opacity="0.333333" stroke="#444444" stroke-opacity="0.333333" points="1106.3003,-450.7572 1115.2147,-456.4831 1111.8167,-446.4479 1106.3003,-450.7572"/>
</g>
<!-- kmod&#45;libs&#45;&gt;Fedora Container Base -->
<g id="edge58" class="edge">
<title>kmod&#45;libs&#45;&gt;Fedora Container Base</title>
<path fill="none" stroke="#444444" stroke-opacity="0.333333" d="M573.3951,-190.353C574.5618,-241.1739 577.877,-385.5829 579.2943,-447.3199"/>
<polygon fill="#444444" fill-opacity="0.333333" stroke="#444444" stroke-opacity="0.333333" points="575.7995,-447.5909 579.5282,-457.5079 582.7977,-447.4302 575.7995,-447.5909"/>
</g>
<!-- libfdisk&#45;&gt;Fedora Container Base -->
<g id="edge59" class="edge">
<title>libfdisk&#45;&gt;Fedora Container Base</title>
<path fill="none" stroke="#444444" stroke-opacity="0.333333" d="M700.9308,-657.4512C677.3961,-622.1297 625.1941,-543.7836 597.6918,-502.5074"/>
<polygon fill="#444444" fill-opacity="0.333333" stroke="#444444" stroke-opacity="0.333333" points="600.5155,-500.433 592.0579,-494.0518 594.6901,-504.3145 600.5155,-500.433"/>
</g>
<!-- libseccomp&#45;&gt;Fedora Container Base -->
<g id="edge60" class="edge">
<title>libseccomp&#45;&gt;Fedora Container Base</title>
<path fill="none" stroke="#444444" stroke-opacity="0.333333" d="M863.5122,-137.2074C814.2594,-196.0325 659.1425,-381.2964 601.6596,-449.9511"/>
<polygon fill="#444444" fill-opacity="0.333333" stroke="#444444" stroke-opacity="0.333333" points="598.8833,-447.815 595.1472,-457.7293 604.2504,-452.3088 598.8833,-447.815"/>
</g>
<!-- qrencode&#45;libs&#45;&gt;Fedora Container Base -->
<g id="edge61" class="edge">
<title>qrencode&#45;libs&#45;&gt;Fedora Container Base</title>
<path fill="none" stroke="#444444" stroke-opacity="0.333333" d="M734.5532,-57.9127C709.3646,-126.0097 620.5173,-366.2071 590.1864,-448.206"/>
<polygon fill="#444444" fill-opacity="0.333333" stroke="#444444" stroke-opacity="0.333333" points="586.8921,-447.0235 586.7055,-457.6167 593.4574,-449.452 586.8921,-447.0235"/>
</g>
<!-- systemd&#45;pam&#45;&gt;Fedora Container Base -->
<g id="edge62" class="edge">
<title>systemd&#45;pam&#45;&gt;Fedora Container Base</title>
<path fill="none" stroke="#444444" stroke-opacity="0.333333" d="M429.9906,-157.8786C456.1643,-213.3821 535.5223,-381.6673 566.9413,-448.294"/>
<polygon fill="#444444" fill-opacity="0.333333" stroke="#444444" stroke-opacity="0.333333" points="563.9563,-450.1702 571.3873,-457.7221 570.2877,-447.1845 563.9563,-450.1702"/>
</g>
<!-- systemd&#45;pam&#45;&gt;systemd -->
<g id="edge63" class="edge">
<title>systemd&#45;pam&#45;&gt;systemd</title>
<path fill="none" stroke="#444444" stroke-opacity="0.333333" d="M438.42,-157.815C488.4214,-203.2794 635.6788,-322.0651 705.0674,-373.3905"/>
<polygon fill="#444444" fill-opacity="0.333333" stroke="#444444" stroke-opacity="0.333333" points="702.9982,-376.2133 713.1316,-379.3058 707.1384,-370.569 702.9982,-376.2133"/>
</g>
<!-- libutempter&#45;&gt;Fedora Container Base -->
<g id="edge64" class="edge">
<title>libutempter&#45;&gt;Fedora Container Base</title>
<path fill="none" stroke="#444444" stroke-opacity="0.333333" d="M319.2722,-803.7173C364.8575,-746.3877 506.1067,-568.7479 559.3554,-501.7805"/>
<polygon fill="#444444" fill-opacity="0.333333" stroke="#444444" stroke-opacity="0.333333" points="562.2061,-503.8189 565.6904,-493.8134 556.7271,-499.4623 562.2061,-503.8189"/>
</g>
<!-- libutempter&#45;&gt;shadow&#45;utils -->
<g id="edge65" class="edge">
<title>libutempter&#45;&gt;shadow&#45;utils</title>
<path fill="none" stroke="#444444" stroke-opacity="0.333333" d="M312.0938,-803.5854C331.6983,-754.0716 385.9953,-616.9373 409.3914,-557.8474"/>
<polygon fill="#444444" fill-opacity="0.333333" stroke="#444444" stroke-opacity="0.333333" points="412.7017,-558.994 413.1289,-548.4077 406.1933,-556.417 412.7017,-558.994"/>
</g>
<!-- libpcap&#45;&gt;Fedora Container Base -->
<g id="edge36" class="edge">
<title>libpcap&#45;&gt;Fedora Container Base</title>
<path fill="none" stroke="#444444" stroke-opacity="0.333333" d="M1069.9046,-474.8904C988.313,-475.0552 839.1554,-475.3564 726.7681,-475.5835"/>
<polygon fill="#444444" fill-opacity="0.333333" stroke="#444444" stroke-opacity="0.333333" points="726.6885,-472.0835 716.6956,-475.6038 726.7027,-479.0835 726.6885,-472.0835"/>
</g>
<!-- libicu&#45;&gt;Fedora Container Base -->
<g id="edge37" class="edge">
<title>libicu&#45;&gt;Fedora Container Base</title>
<path fill="none" stroke="#444444" stroke-opacity="0.333333" d="M185.5291,-163.9222C256.115,-219.7504 469.4181,-388.4575 549.304,-451.6413"/>
<polygon fill="#444444" fill-opacity="0.333333" stroke="#444444" stroke-opacity="0.333333" points="547.4772,-454.6588 557.4917,-458.1171 551.8196,-449.1685 547.4772,-454.6588"/>
</g>
<!-- libicu&#45;&gt;libicu -->
<g id="edge38" class="edge">
<title>libicu&#45;&gt;libicu</title>
<path fill="none" stroke="#444444" stroke-opacity="0.333333" d="M217.5633,-152.127C228.0641,-151.358 235.49,-149.2156 235.49,-145.7 235.49,-143.4478 232.4424,-141.7592 227.4911,-140.6342"/>
<polygon fill="#444444" fill-opacity="0.333333" stroke="#444444" stroke-opacity="0.333333" points="227.9461,-137.1639 217.5633,-139.273 226.9951,-144.099 227.9461,-137.1639"/>
</g>
<!-- libpq&#45;&gt;Fedora Container Base -->
<g id="edge41" class="edge">
<title>libpq&#45;&gt;Fedora Container Base</title>
<path fill="none" stroke="#444444" stroke-opacity="0.333333" d="M115.2269,-352.6398C209.1742,-377.5537 403.7633,-429.1569 508.88,-457.0329"/>
<polygon fill="#444444" fill-opacity="0.333333" stroke="#444444" stroke-opacity="0.333333" points="508.2038,-460.4745 518.7669,-459.6548 509.9982,-453.7084 508.2038,-460.4745"/>
</g>
<!-- postgresql&#45;&gt;Fedora Container Base -->
<g id="edge42" class="edge">
<title>postgresql&#45;&gt;Fedora Container Base</title>
<path fill="none" stroke="#444444" stroke-opacity="0.333333" d="M128.0424,-488.0109C204.5678,-485.9566 334.9394,-482.457 436.0427,-479.743"/>
<polygon fill="#444444" fill-opacity="0.333333" stroke="#444444" stroke-opacity="0.333333" points="436.1399,-483.2418 446.0424,-479.4746 435.952,-476.2443 436.1399,-483.2418"/>
</g>
<!-- postgresql&#45;&gt;libpq -->
<g id="edge43" class="edge">
<title>postgresql&#45;&gt;libpq</title>
<path fill="none" stroke="#444444" stroke-opacity="0.333333" d="M63.7249,-471.4821C63.3327,-445.4721 62.6093,-397.498 62.1469,-366.8258"/>
<polygon fill="#444444" fill-opacity="0.333333" stroke="#444444" stroke-opacity="0.333333" points="65.6456,-366.7087 61.9951,-356.7626 58.6464,-366.8143 65.6456,-366.7087"/>
</g>
<!-- postgresql&#45;server&#45;&gt;Fedora Container Base -->
<g id="edge44" class="edge">
<title>postgresql&#45;server&#45;&gt;Fedora Container Base</title>
<path fill="none" stroke="#444444" stroke-opacity="0.333333" d="M329.4413,-376.9556C382.8132,-398.0318 471.0174,-432.8632 527.2598,-455.073"/>
<polygon fill="#444444" fill-opacity="0.333333" stroke="#444444" stroke-opacity="0.333333" points="526.1005,-458.3781 536.6871,-458.7957 528.6716,-451.8674 526.1005,-458.3781"/>
</g>
<!-- postgresql&#45;server&#45;&gt;shadow&#45;utils -->
<g id="edge45" class="edge">
<title>postgresql&#45;server&#45;&gt;shadow&#45;utils</title>
<path fill="none" stroke="#444444" stroke-opacity="0.333333" d="M298.1731,-376.941C322.4486,-407.3863 371.6966,-469.151 399.6864,-504.2546"/>
<polygon fill="#444444" fill-opacity="0.333333" stroke="#444444" stroke-opacity="0.333333" points="397.0135,-506.5165 405.9844,-512.1533 402.4866,-502.1524 397.0135,-506.5165"/>
</g>
<!-- postgresql&#45;server&#45;&gt;systemd -->
<g id="edge46" class="edge">
<title>postgresql&#45;server&#45;&gt;systemd</title>
<path fill="none" stroke="#444444" stroke-opacity="0.333333" d="M427.8354,-371.0455C508.5207,-377.8277 605.6147,-385.9892 670.2924,-391.4258"/>
<polygon fill="#444444" fill-opacity="0.333333" stroke="#444444" stroke-opacity="0.333333" points="670.1289,-394.9243 680.3869,-392.2743 670.7153,-387.9489 670.1289,-394.9243"/>
</g>
<!-- postgresql&#45;server&#45;&gt;libicu -->
<g id="edge47" class="edge">
<title>postgresql&#45;server&#45;&gt;libicu</title>
<path fill="none" stroke="#444444" stroke-opacity="0.333333" d="M273.4755,-340.7593C252.075,-303.1476 202.8501,-216.6338 177.7741,-172.5621"/>
<polygon fill="#444444" fill-opacity="0.333333" stroke="#444444" stroke-opacity="0.333333" points="180.7958,-170.7954 172.8083,-163.8347 174.7117,-174.2572 180.7958,-170.7954"/>
</g>
<!-- postgresql&#45;server&#45;&gt;libpq -->
<g id="edge48" class="edge">
<title>postgresql&#45;server&#45;&gt;libpq</title>
<path fill="none" stroke="#444444" stroke-opacity="0.333333" d="M139.7112,-345.6452C134.8094,-345.193 130.0022,-344.7495 125.3327,-344.3187"/>
<polygon fill="#444444" fill-opacity="0.333333" stroke="#444444" stroke-opacity="0.333333" points="125.6267,-340.831 115.3474,-343.3975 124.9835,-347.8014 125.6267,-340.831"/>
</g>
<!-- postgresql&#45;server&#45;&gt;postgresql -->
<g id="edge49" class="edge">
<title>postgresql&#45;server&#45;&gt;postgresql</title>
<path fill="none" stroke="#444444" stroke-opacity="0.333333" d="M253.255,-377.1258C214.0466,-400.4542 145.993,-440.9452 103.065,-466.4868"/>
<polygon fill="#444444" fill-opacity="0.333333" stroke="#444444" stroke-opacity="0.333333" points="101.1097,-463.5775 94.3054,-471.6987 104.689,-469.5932 101.1097,-463.5775"/>
</g>
<!-- postgresql&#45;server&#45;&gt;postgresql&#45;server -->
<g id="edge50" class="edge">
<title>postgresql&#45;server&#45;&gt;postgresql&#45;server</title>
<path fill="none" stroke="#444444" stroke-opacity="0.333333" d="M427.8434,-364.0288C438.9641,-362.9038 445.82,-361.2076 445.82,-358.94 445.82,-357.4873 443.0063,-356.2691 438.0602,-355.2854"/>
<polygon fill="#444444" fill-opacity="0.333333" stroke="#444444" stroke-opacity="0.333333" points="438.2329,-351.7754 427.8434,-353.8512 437.2597,-358.7074 438.2329,-351.7754"/>
</g>
<!-- Fedora Container Base -->
<g id="node1" class="node">
<title>Fedora Container Base</title>
<ellipse fill="none" stroke="#000000" cx="579.95" cy="-475.88" rx="136.5" ry="18"/>
<text text-anchor="middle" x="579.95" y="-472.18" font-family="Helvetica,sans-Serif" font-weight="bold" font-size="14.00" fill="#000000">Fedora Container Base (201.3 MB)</text>
</g>
<!-- device&#45;mapper&#45;libs -->
<g id="node2" class="node">
<title>device&#45;mapper&#45;libs</title>
<text text-anchor="middle" x="653.32" y="-997.8" font-family="Helvetica,sans-Serif" font-weight="bold" font-size="14.00" fill="#000000">device&#45;mapper&#45;libs (418.0 kB)</text>
</g>
<!-- device&#45;mapper -->
<g id="node3" class="node">
<title>device&#45;mapper</title>
<text text-anchor="middle" x="627.3" y="-813.39" font-family="Helvetica,sans-Serif" font-weight="bold" font-size="14.00" fill="#000000">device&#45;mapper (349.9 kB)</text>
</g>
<!-- libargon2 -->
<g id="node4" class="node">
<title>libargon2</title>
<text text-anchor="middle" x="922.66" y="-940.31" font-family="Helvetica,sans-Serif" font-weight="bold" font-size="14.00" fill="#000000">libargon2 (54.2 kB)</text>
</g>
<!-- dbus&#45;broker -->
<g id="node5" class="node">
<title>dbus&#45;broker</title>
<text text-anchor="middle" x="823.91" y="-306.07" font-family="Helvetica,sans-Serif" font-weight="bold" font-size="14.00" fill="#000000">dbus&#45;broker (409.7 kB)</text>
</g>
<!-- dbus&#45;common -->
<g id="node6" class="node">
<title>dbus&#45;common</title>
<text text-anchor="middle" x="936.97" y="-520.97" font-family="Helvetica,sans-Serif" font-weight="bold" font-size="14.00" fill="#000000">dbus&#45;common (11.2 kB)</text>
</g>
<!-- shadow&#45;utils -->
<g id="node7" class="node">
<title>shadow&#45;utils</title>
<text text-anchor="middle" x="420.35" y="-526.47" font-family="Helvetica,sans-Serif" font-weight="bold" font-size="14.00" fill="#000000">shadow&#45;utils (4.0 MB)</text>
</g>
<!-- systemd -->
<g id="node8" class="node">
<title>systemd</title>
<text text-anchor="middle" x="741.96" y="-393.75" font-family="Helvetica,sans-Serif" font-weight="bold" font-size="14.00" fill="#000000">systemd (13.1 MB)</text>
</g>
<!-- libsemanage -->
<g id="node9" class="node">
<title>libsemanage</title>
<text text-anchor="middle" x="157.41" y="-695.15" font-family="Helvetica,sans-Serif" font-weight="bold" font-size="14.00" fill="#000000">libsemanage (304.5 kB)</text>
</g>
<!-- util&#45;linux -->
<g id="node10" class="node">
<title>util&#45;linux</title>
<text text-anchor="middle" x="504.4" y="-728.06" font-family="Helvetica,sans-Serif" font-weight="bold" font-size="14.00" fill="#000000">util&#45;linux (13.5 MB)</text>
</g>
<!-- acl -->
<g id="node11" class="node">
<title>acl</title>
<text text-anchor="middle" x="577.71" y="-14.3" font-family="Helvetica,sans-Serif" font-weight="bold" font-size="14.00" fill="#000000">acl (209.6 kB)</text>
</g>
<!-- cryptsetup&#45;libs -->
<g id="node12" class="node">
<title>cryptsetup&#45;libs</title>
<text text-anchor="middle" x="837.32" y="-792.81" font-family="Helvetica,sans-Serif" font-weight="bold" font-size="14.00" fill="#000000">cryptsetup&#45;libs (1.8 MB)</text>
</g>
<!-- dbus -->
<g id="node13" class="node">
<title>dbus</title>
<text text-anchor="middle" x="1103.2" y="-81.409" font-family="Helvetica,sans-Serif" font-weight="bold" font-size="14.00" fill="#000000">dbus (0.0 B)</text>
</g>
<!-- iptables&#45;libs -->
<g id="node14" class="node">
<title>iptables&#45;libs</title>
<text text-anchor="middle" x="1024.4" y="-336.53" font-family="Helvetica,sans-Serif" font-weight="bold" font-size="14.00" fill="#000000">iptables&#45;libs (141.4 kB)</text>
</g>
<!-- kmod&#45;libs -->
<g id="node15" class="node">
<title>kmod&#45;libs</title>
<text text-anchor="middle" x="572.98" y="-168.57" font-family="Helvetica,sans-Serif" font-weight="bold" font-size="14.00" fill="#000000">kmod&#45;libs (127.5 kB)</text>
</g>
<!-- libfdisk -->
<g id="node16" class="node">
<title>libfdisk</title>
<text text-anchor="middle" x="712.97" y="-671.82" font-family="Helvetica,sans-Serif" font-weight="bold" font-size="14.00" fill="#000000">libfdisk (472.7 kB)</text>
</g>
<!-- libseccomp -->
<g id="node17" class="node">
<title>libseccomp</title>
<text text-anchor="middle" x="878.74" y="-115.32" font-family="Helvetica,sans-Serif" font-weight="bold" font-size="14.00" fill="#000000">libseccomp (351.1 kB)</text>
</g>
<!-- qrencode&#45;libs -->
<g id="node18" class="node">
<title>qrencode&#45;libs</title>
<text text-anchor="middle" x="741.28" y="-36.027" font-family="Helvetica,sans-Serif" font-weight="bold" font-size="14.00" fill="#000000">qrencode&#45;libs (158.2 kB)</text>
</g>
<!-- systemd&#45;pam -->
<g id="node19" class="node">
<title>systemd&#45;pam</title>
<text text-anchor="middle" x="421.47" y="-136.11" font-family="Helvetica,sans-Serif" font-weight="bold" font-size="14.00" fill="#000000">systemd&#45;pam (867.6 kB)</text>
</g>
<!-- systemd&#45;rpm&#45;macros -->
<g id="node20" class="node">
<title>systemd&#45;rpm&#45;macros</title>
<text text-anchor="middle" x="1305.1" y="-551.37" font-family="Helvetica,sans-Serif" font-weight="bold" font-size="14.00" fill="#000000">systemd&#45;rpm&#45;macros (4.9 kB)</text>
</g>
<!-- libutempter -->
<g id="node21" class="node">
<title>libutempter</title>
<text text-anchor="middle" x="304.87" y="-818.13" font-family="Helvetica,sans-Serif" font-weight="bold" font-size="14.00" fill="#000000">libutempter (57.8 kB)</text>
</g>
<!-- libpcap -->
<g id="node22" class="node">
<title>libpcap</title>
<text text-anchor="middle" x="1129.5" y="-471.07" font-family="Helvetica,sans-Serif" font-weight="bold" font-size="14.00" fill="#000000">libpcap (387.4 kB)</text>
</g>
<!-- libicu -->
<g id="node23" class="node">
<title>libicu</title>
<text text-anchor="middle" x="162.49" y="-142" font-family="Helvetica,sans-Serif" font-weight="bold" font-size="14.00" fill="#000000">libicu (32.1 MB)</text>
</g>
<!-- libpq -->
<g id="node24" class="node">
<title>libpq</title>
<text text-anchor="middle" x="61.719" y="-334.75" font-family="Helvetica,sans-Serif" font-weight="bold" font-size="14.00" fill="#000000">libpq (710.3 kB)</text>
</g>
<!-- postgresql -->
<g id="node25" class="node">
<title>postgresql</title>
<text text-anchor="middle" x="64" y="-486.03" font-family="Helvetica,sans-Serif" font-weight="bold" font-size="14.00" fill="#000000">postgresql (5.7 MB)</text>
</g>
<!-- postgresql&#45;server -->
<g id="node26" class="node">
<title>postgresql&#45;server</title>
<text text-anchor="middle" x="283.82" y="-353.34" font-family="Helvetica,sans-Serif" font-weight="bold" font-size="22.00" fill="#cc0066">postgresql&#45;server (21.4 MB)</text>
</g>
</g>

<script type="text/javascript"><![CDATA[

document.addEventListener('click', function(e) {
      e = e || window.event;
      var target = e.target || e.srcElement;
      text = target.parentElement.querySelector("title").textContent;

      console.log("Clicked on: " + text);
      // reset all strokes
      var nodes = document.getElementsByClassName("edge");

      for (index = 0, len = nodes.length; index < len; ++index) {
          //var title = nodes[index].querySelector("title").textContent.split("->");
          id = nodes[index].id;
          document.getElementById(id).querySelector("path").setAttribute("stroke-width", "1");
          document.getElementById(id).querySelector("path").setAttribute("stroke-opacity", "0.5");
          document.getElementById(id).querySelector("path").setAttribute("stroke", "#444444");
          document.getElementById(id).querySelector("polygon").setAttribute("stroke-width", "1");
          document.getElementById(id).querySelector("polygon").setAttribute("stroke-opacity", "0.5");
          document.getElementById(id).querySelector("polygon").setAttribute("stroke", "#444444");
      }
      // reset text highlight
      pkgs = document.getElementsByClassName("node");
      for (index2 = 0, len2 = pkgs.length; index2 < len2; ++index2) {
          target_id = pkgs[index2].id;
          document.getElementById(target_id).querySelector("text").setAttribute("font-weight", "normal");
      }

      // highlight deps
      var nodes = document.getElementsByClassName("edge");
      for (index = 0, len = nodes.length; index < len; ++index) {
        var title = nodes[index].querySelector("title").textContent.split("->");

        if (title[0] == text) {
          id = nodes[index].id;
          //console.log("ID:   " + id);
          document.getElementById(id).querySelector("path").setAttribute("stroke-width", "3");
          document.getElementById(id).querySelector("path").setAttribute("stroke-opacity", "1");
          document.getElementById(id).querySelector("path").setAttribute("stroke", "#aa3333");
          document.getElementById(id).querySelector("polygon").setAttribute("stroke-width", "5");
          document.getElementById(id).querySelector("polygon").setAttribute("stroke-opacity", "1");
          document.getElementById(id).querySelector("polygon").setAttribute("stroke", "#aa3333");

        }
        if (title[1] == text) {
          id = nodes[index].id;
          document.getElementById(id).querySelector("path").setAttribute("stroke-width", "3");
          document.getElementById(id).querySelector("path").setAttribute("stroke-opacity", "1");
          document.getElementById(id).querySelector("path").setAttribute("stroke", "#333377");
          document.getElementById(id).querySelector("polygon").setAttribute("stroke-width", "5");
          document.getElementById(id).querySelector("polygon").setAttribute("stroke-opacity", "1");
          document.getElementById(id).querySelector("polygon").setAttribute("stroke", "#333377");
        }

        if (title[0] == text || title[1] == text) {
          pkgs = document.getElementsByClassName("node");
          for (index2 = 0, len2 = pkgs.length; index2 < len2; ++index2) {
            var pkg_name = pkgs[index2].querySelector("title").textContent;
            if (pkg_name == title[0] || pkg_name == title[1]) {
              target_id = pkgs[index2].id;
              document.getElementById(target_id).querySelector("text").setAttribute("font-weight", "bold");
            }
          }
        }
      }


  }, false);

]]></script>

</svg>
