<?xml version="1.0" encoding="UTF-8" standalone="no"?>
<!DOCTYPE svg PUBLIC "-//W3C//DTD SVG 1.1//EN"
 "http://www.w3.org/Graphics/SVG/1.1/DTD/svg11.dtd">
<!-- Generated by graphviz version 2.40.1 (0)
 -->
<!-- Title: packages Pages: 1 -->
<svg width="1602pt" height="815pt"
 viewBox="0.00 0.00 1922.51 978.51" xmlns="http://www.w3.org/2000/svg" xmlns:xlink="http://www.w3.org/1999/xlink">
<g id="graph0" class="graph" transform="scale(.8333 .8333) rotate(0) translate(114.7518 828.1599)">
<title>packages</title>
<polygon fill="#dae2ff" stroke="transparent" points="-114.7518,150.3465 -114.7518,-828.1599 1807.7605,-828.1599 1807.7605,150.3465 -114.7518,150.3465"/>
<polygon fill="#fbb4ae" stroke="#fbb4ae" points="982.0295,-232.8849 979.8685,-229.7192 978.9578,-229.0915 981.805,-225.2195 986.5225,-222.6955 990.2518,-89.599 1108.8469,-138.412 1109.9508,-180.6447 1110.02,-225.8967 1109.9441,-229.16 1111.5907,-261.3828 1113.1256,-320.1082 991.8627,-365.0327 974.8507,-371.7124 966.8824,-375.5387 961.1226,-375.4953 951.6453,-375.7635 944.4914,-376.094 927.7741,-377.4652 908.5555,-379.3834 908.2953,-379.3739 784.684,-457.2724 770.1052,-467.1591 767.6452,-468.9433 759.9099,-474.7404 757.4962,-495.9035 748.4597,-519.3091 784.4844,-666.03 789.339,-681.032 781.4811,-754.7344 650.495,-804.0427 637.0182,-810.3362 637.7231,-666.189 638.2482,-666.0424 641.9126,-666.0424 649.2555,-754.5533 650.411,-776.879 652.5374,-730.2184 652.5374,-730.2184 650.411,-776.879 649.2555,-754.5533 641.9126,-666.0424 638.2482,-666.0424 637.7231,-666.189 637.0182,-810.3362 626.977,-815.2518 626.6086,-785.1442 626.3914,-778.8998 617.3326,-669.2874 622.5434,-670.7463 627.9528,-669.18 631.7844,-665.9222 627.2393,-662.1506 623.1954,-661.088 623.1954,-661.088 627.2393,-662.1506 631.7844,-665.9222 627.9528,-669.18 622.5434,-670.7463 617.3326,-669.2874 626.3914,-778.8998 626.6086,-785.1442 626.977,-815.2518 617.8342,-820.5604 612.764,-821.48 604.3849,-823.1472 603.4905,-733.3097 603.4905,-733.3097 604.3849,-823.1472 600.3651,-824.1599 593.4377,-821.5542 575.5812,-815.1819 564.5887,-811.4777 486.3811,-742.7304 452.7687,-686.2975 421.1078,-638.248 438.2986,-621.7084 443.0576,-616.9382 460.4092,-484.9051 477.455,-484.5941 521.0977,-486.9499 524.0538,-518.6357 526.7883,-482.2596 527.6053,-480.9519 531.0089,-480.9519 531.201,-480.8983 535.6674,-480.8983 537.6158,-528.239 541.665,-480.9665 544.1798,-480.9665 545.0424,-481.8981 551.1641,-485.3908 555.2269,-485.3908 560.6835,-482.3168 562.0662,-480.7819 560.2229,-478.7624 555.9119,-476.4495 555.9119,-476.4495 560.2229,-478.7624 562.0662,-480.7819 560.6835,-482.3168 555.2269,-485.3908 551.1641,-485.3908 545.0424,-481.8981 544.1798,-480.9665 541.665,-480.9665 537.6158,-528.239 535.6674,-480.8983 531.201,-480.8983 531.0089,-480.9519 527.6053,-480.9519 526.7883,-482.2596 524.0538,-518.6357 521.0977,-486.9499 477.455,-484.5941 460.4092,-484.9051 460.6409,-476.7057 460.9603,-472.7299 461.3223,-459.9568 465.5636,-427.6841 419.0567,-392.4965 428.3036,-357.5002 479.1977,-356.192 483.2523,-352.6969 487.9494,-381.4744 490.4203,-350.0217 491.1912,-350.0217 495.5514,-353.9491 500.4054,-355.3383 505.4024,-353.8918 509.428,-350.2095 510.5627,-350.2095 510.902,-350.3149 510.902,-350.3149 510.5627,-350.2095 509.428,-350.2095 505.4024,-353.8918 500.4054,-355.3383 495.5514,-353.9491 491.1912,-350.0217 490.4203,-350.0217 487.9494,-381.4744 483.2523,-352.6969 479.1977,-356.192 428.3036,-357.5002 430.4483,-346.6825 431.1411,-336.0756 437.4099,-305.036 446.8233,-269.4094 468.6497,-247.2297 472.5784,-243.4846 483.2938,-232.6902 488.2723,-227.4187 491.81,-223.4899 504.6277,-210.6442 510.5949,-203.8735 508.5135,-178.1362 614.6982,-65.8419 643.5903,-73.1917 655.3617,-75.94 667.4941,-78.5154 682.2714,-80.3996 683.132,-179.8096 686.8869,-209.0883 680.3007,-205.3312 676.4012,-205.3312 676.4012,-205.3312 680.3007,-205.3312 686.8869,-209.0883 687.5793,-209.8245 690.1476,-209.8245 690.2512,-209.7957 690.2512,-209.7957 690.1476,-209.8245 687.5793,-209.8245 686.8869,-209.0883 683.132,-179.8096 682.2714,-80.3996 696.4122,-81.603 706.1834,-82.0193 765.2781,-82.0312 789.8276,-96.166 829.1508,-123.3778 927.3,-92.018 940.8318,-87.4066 946.5266,-85.9398 954.6663,-83.5219 961.6608,-81.1672 967.5676,-78.943 979.8449,-85.0848 990.2518,-89.599 986.5225,-222.6955 981.805,-225.2195 978.9578,-229.0915 979.8685,-229.7192 982.0295,-232.8849 975.3254,-336.8335 974.7642,-281.5699 977.1852,-229.0915 976.8326,-228.9937 971.3597,-228.9937 971.0274,-228.5401 967.79,-226.0235 967.79,-226.0235 971.0274,-228.5401 971.3597,-228.9937 971.2785,-229.1088 966.636,-232.9126 962.7017,-233.9531 956.0391,-232.0293 952.6121,-229.3422 952.2711,-229.3422 951.7762,-229.2101 948.0107,-229.2101 948.0107,-229.2101 951.7762,-229.2101 952.2711,-229.3422 952.6121,-229.3422 956.0391,-232.0293 962.7017,-233.9531 966.636,-232.9126 971.2785,-229.1088 971.3597,-228.9937 976.8326,-228.9937 977.1852,-229.0915 974.7642,-281.5699 975.3254,-336.8335 982.0295,-232.8849 982.0295,-232.8849"/>
<polygon fill="#fed9a6" stroke="#fed9a6" points="133.113,-193.9528 116.807,-197.8585 107.2421,-199.8 102.0626,-200.6596 92.5645,-201.5376 92.0125,-201.5683 84.4417,-201.712 82.8836,-201.6269 72.9758,-201.8359 71.0108,-201.7321 64.3245,-201.6328 60.5986,-201.8604 53.4592,-202.0323 43.1289,-203.063 31.3329,-205.1321 -87.0568,-234.7933 -74.8838,-265.3243 -67.4907,-285.1153 -35.8205,-383.554 28.2803,-452.7436 59.6735,-423.5125 181.4708,-424.4344 198.1599,-427.9966 202.5559,-425.4166 205.1214,-421.6633 207.1284,-421.6633 211.379,-461.7405 213.5975,-421.3885 218.0655,-421.3885 219.0542,-421.6696 222.7781,-421.6696 223.3336,-421.5137 224.1889,-421.5137 227.8687,-424.6121 234.0112,-426.4142 238.4403,-425.2213 242.7105,-421.769 238.8102,-418.4542 238.8102,-418.4542 242.7105,-421.769 238.4403,-425.2213 234.0112,-426.4142 227.8687,-424.6121 224.1889,-421.5137 223.3336,-421.5137 222.7781,-421.6696 219.0542,-421.6696 214.227,-470.8779 216.5177,-469.1013 257.0294,-471.7016 262.0608,-467.8105 261.6992,-546.2791 267.634,-465.5212 270.8084,-465.5212 274.0714,-492.5239 274.0714,-492.5239 270.8084,-465.5212 267.634,-465.5212 261.6992,-546.2791 262.0608,-467.8105 257.0294,-471.7016 216.5177,-469.1013 214.227,-470.8779 219.0542,-421.6696 218.0655,-421.3885 213.5975,-421.3885 211.379,-461.7405 207.1284,-421.6633 205.1214,-421.6633 202.5559,-425.4166 198.1599,-427.9966 192.0252,-496.9404 173.1751,-522.3122 144.5044,-514.5773 144.5044,-514.5773 173.1751,-522.3122 192.0252,-496.9404 198.1599,-427.9966 181.4708,-424.4344 59.6735,-423.5125 28.2803,-452.7436 28.8774,-457.3259 -37.5114,-568.925 -40.8366,-577.7045 -47.927,-595.2323 -36.9698,-633.4995 -32.0921,-652.1534 -16.869,-716.6179 79.9958,-764.5394 88.0526,-763.7973 110.7478,-762.1541 101.4614,-622.7238 101.9399,-621.8011 106.6575,-621.8011 110.7436,-687.0773 112.6247,-623.2745 117.4162,-626.0979 117.4162,-626.0979 112.6247,-623.2745 110.7436,-687.0773 106.6575,-621.8011 101.9399,-621.8011 101.4614,-622.7238 110.7478,-762.1541 111.9856,-762.0891 114.0973,-762.0618 133.1563,-762.5711 139.302,-762.8569 160.345,-765.085 236.7783,-750.8011 313.9102,-642.9066 318.5463,-641.9619 323.4785,-641.0323 323.6668,-497.512 320.3988,-466.5724 319.4575,-465.5566 320.6229,-464.2998 320.6229,-464.2998 319.4575,-465.5566 320.3988,-466.5724 326.63,-470.1379 330.6824,-470.1379 336.2622,-466.9684 337.5427,-465.5393 336.1431,-463.9846 336.1431,-463.9846 337.5427,-465.5393 336.2622,-466.9684 330.6824,-470.1379 326.63,-470.1379 320.3988,-466.5724 323.6668,-497.512 323.4785,-641.0323 332.6028,-639.5914 353.175,-637.2833 358.646,-636.7535 358.5938,-616.4544 358.5938,-616.4544 358.646,-636.7535 367.7079,-636.4298 374.7443,-636.286 381.4528,-636.2513 399.5005,-636.71 421.1078,-638.248 438.2986,-621.7084 443.0576,-616.9382 460.4092,-484.9051 460.6409,-476.7057 460.9603,-472.7299 461.3223,-459.9568 465.5636,-427.6841 419.0567,-392.4965 428.3036,-357.5002 430.4483,-346.6825 431.1411,-336.0756 437.4099,-305.036 446.8233,-269.4094 468.6497,-247.2297 472.5784,-243.4846 483.2938,-232.6902 488.2723,-227.4187 491.81,-223.4899 504.6277,-210.6442 510.5949,-203.8735 508.5135,-178.1362 614.6982,-65.8419 608.5052,-47.3149 595.476,-1.3967 576.6528,72.0606 507.2685,98.6728 468.6349,98.0246 469.2425,49.9566 464.5117,-31.1659 459.9574,-31.1659 459.3684,38.1165 454.3363,-27.5159 458.7573,-31.4034 455.3229,-34.2448 455.3229,-34.2448 458.7573,-31.4034 454.3363,-27.5159 459.3684,38.1165 459.9574,-31.1659 464.5117,-31.1659 469.2425,49.9566 468.6349,98.0246 461.4219,98.3653 454.3681,99.0004 437.8228,100.8452 434.1483,101.4901 414.5357,105.3549 378.1438,113.2918 378.8379,-16.3374 379.196,-20.9787 379.2386,-28.7546 379.8179,-36.1718 378.9199,-49.6533 379.2285,-107.3021 389.633,-124.1 394.8101,-130.8401 375.2746,-146.9328 365.2785,-154.5993 358.8883,-159.1181 346.6732,-166.3199 344.6766,-167.259 334.2585,-171.5672 325.3019,-174.7397 297.2128,-181.3468 292.8779,-182.6052 292.8447,-182.6167 276.942,-189.0265 273.9045,-190.5777 267.8689,-193.9962 256.1214,-201.9825 250.8805,-206.1311 242.5695,-205.9792 242.2181,-206.0089 236.2255,-206.0935 227.3961,-205.9074 225.4633,-206.0652 222.4379,-206.2055 219.5498,-206.238 216.9098,-206.0824 210.3468,-206.1442 203.0621,-205.9567 200.133,-206.0815 198.1548,-206.0271 195.5886,-206.0441 190.5395,-206.2498 189.3233,-206.214 180.8426,-206.2542 161.2094,-207.0161 151.7765,-275.3983 151.916,-279.317 188.8956,-282.4124 193.1235,-286.5443 173.0381,-291.7425 189.1523,-294.5641 193.4509,-291.744 197.3463,-320.7094 199.9722,-288.363 203.8886,-288.363 207.7881,-354.7124 208.0414,-354.7267 209.7371,-287.9011 210.5824,-287.9011 214.7513,-291.5559 214.7513,-291.5559 210.5824,-287.9011 209.7371,-287.9011 208.0414,-354.7267 207.7881,-354.7124 203.8886,-288.363 199.9722,-288.363 197.3463,-320.7094 193.4509,-291.744 189.1523,-294.5641 173.0381,-291.7425 193.1235,-286.5443 188.8956,-282.4124 151.916,-279.317 151.7765,-275.3983 161.2094,-207.0161 133.113,-193.9528 133.113,-193.9528"/>
<polygon fill="#bbd7d9" stroke="#bbd7d9" points="329.0688,-31.5468 330.0983,-32.1178 333.8584,-36.6011 378.9199,-49.6533 379.8179,-36.1718 379.2386,-28.7546 379.196,-20.9787 378.8379,-16.3374 378.1438,113.2918 341.5042,134.1874 321.6582,145.9506 320.6907,146.1516 319.932,146.3465 304.426,139.6043 302.773,139.0093 301.7656,138.6651 286.3558,130.7482 218.2882,112.9596 214.5594,112.0679 212.1128,111.537 197.0665,108.932 183.8786,107.5213 168.8872,106.5798 140.9486,105.4438 27.5772,58.6934 18.9429,51.2018 18.3289,49.3873 -110.0033,-52.2085 -108.4676,-102.1021 -108.1715,-135.861 -110.7518,-208.9291 -110.212,-214.6198 -87.0568,-234.7933 31.3329,-205.1321 32.8098,-153.8217 32.8098,-153.8217 31.3329,-205.1321 43.1289,-203.063 53.4592,-202.0323 60.5986,-201.8604 64.3245,-201.6328 71.0108,-201.7321 72.9758,-201.8359 82.8836,-201.6269 80.5479,-153.2363 80.5479,-153.2363 82.8836,-201.6269 84.4417,-201.712 92.0125,-201.5683 92.5645,-201.5376 102.0626,-200.6596 107.2421,-199.8 116.807,-197.8585 133.113,-193.9528 161.2094,-207.0161 180.8426,-206.2542 189.3233,-206.214 190.5395,-206.2498 195.5886,-206.0441 198.1548,-206.0271 200.133,-206.0815 203.0621,-205.9567 203.9048,-182.8652 203.9048,-182.8652 203.0621,-205.9567 210.3468,-206.1442 216.9098,-206.0824 219.5498,-206.238 222.4379,-206.2055 225.4633,-206.0652 227.3961,-205.9074 236.2255,-206.0935 242.2181,-206.0089 242.5695,-205.9792 250.8805,-206.1311 256.1214,-201.9825 267.8689,-193.9962 273.9045,-190.5777 276.942,-189.0265 292.8447,-182.6167 292.8779,-182.6052 297.2128,-181.3468 325.3019,-174.7397 334.2585,-171.5672 344.6766,-167.259 346.6732,-166.3199 358.8883,-159.1181 365.2785,-154.5993 375.2746,-146.9328 394.8101,-130.8401 389.633,-124.1 379.2285,-107.3021 378.9199,-49.6533 333.8584,-36.6011 330.0983,-32.1178 329.0688,-31.5468 329.0497,-31.5526 323.187,-31.5526 322.7465,-31.6873 319.0163,-31.6873 317.4859,-29.8264 313.1346,-27.2939 313.1346,-27.2939 317.4859,-29.8264 319.0163,-31.6873 322.7465,-31.6873 323.187,-31.5526 329.0497,-31.5526 329.0688,-31.5468 329.0688,-31.5468"/>
<polygon fill="#d8d6da" stroke="#d8d6da" points="1672.0618,-362.2132 1699.3478,-366.8308 1699.3478,-366.8308 1672.0618,-362.2132 1671.9589,-234.2176 1663.7098,-232.1064 1651.1868,-228.1225 1648.3691,-227.1681 1619.5048,-185.2963 1523.4709,-216.6936 1514.0443,-219.2432 1505.9037,-220.9724 1504.7488,-221.1501 1495.3263,-222.0564 1494.7195,-222.0797 1493.6366,-272.2839 1497.674,-275.8868 1494.5243,-278.5061 1494.5243,-278.5061 1497.674,-275.8868 1493.6366,-272.2839 1494.7195,-222.0797 1495.3263,-222.0564 1504.7488,-221.1501 1505.9037,-220.9724 1514.0443,-219.2432 1523.4709,-216.6936 1619.5048,-185.2963 1617.8811,-178.1748 1612.6917,-149.0062 1603.425,-88.0882 1497.7588,-9.5711 1486.2977,-9.6715 1482.1774,-9.4989 1465.2996,-8.5065 1457.9625,-7.8275 1454.6858,-9.6946 1450.8096,-11.733 1436.0964,-18.8384 1425.3883,-23.5424 1414.0514,-27.7848 1408.6443,-29.6906 1409.6392,-168.1065 1408.5781,-168.4041 1412.4858,-203.7123 1415.3567,-168.3002 1418.9109,-168.3002 1418.9109,-168.3002 1415.3567,-168.3002 1412.4858,-203.7123 1408.5781,-168.4041 1409.6392,-168.1065 1408.6443,-29.6906 1398.3287,-33.1015 1398.5281,-55.0354 1397.7555,-106.0751 1397.7555,-106.0751 1398.5281,-55.0354 1398.3287,-33.1015 1359.8704,-43.3052 1281.7429,-74.5621 1273.9473,-73.979 1267.8632,-73.0856 1255.418,-76.3403 1241.6453,-79.4138 1236.9426,-80.1926 1186.6674,-87.5619 1175.8832,-91.7922 1108.8469,-138.412 1109.9508,-180.6447 1110.02,-225.8967 1109.9441,-229.16 1111.5907,-261.3828 1113.1256,-320.1082 1161.1534,-353.4026 1233.6903,-366.265 1236.7727,-263.451 1241.146,-223.0948 1243.9178,-223.0948 1248.8967,-257.5016 1252.9169,-340.2546 1254.6676,-299.5747 1260.7729,-222.9765 1264.7153,-226.1542 1270.3812,-227.7232 1274.7733,-226.5644 1278.8812,-223.2522 1279.0934,-222.9466 1274.9215,-219.4101 1270.1134,-218.0579 1270.1134,-218.0579 1274.9215,-219.4101 1279.0934,-222.9466 1278.8812,-223.2522 1274.7733,-226.5644 1270.3812,-227.7232 1264.7153,-226.1542 1260.7729,-222.9765 1254.6676,-299.5747 1252.9169,-340.2546 1248.8967,-257.5016 1243.9178,-223.0948 1241.146,-223.0948 1236.7727,-263.451 1233.6903,-366.265 1253.0005,-370.4304 1265.0945,-373.9621 1266.2504,-374.344 1279.8164,-371.4644 1283.3478,-370.7803 1295.3163,-369.1221 1306.6394,-367.7621 1308.5476,-367.5683 1343.1521,-364.6914 1447.376,-424.8911 1456.1022,-430.1476 1472.5231,-464.7747 1583.9136,-498.2119 1596.2886,-497.3941 1606.0255,-497.148 1619.4263,-497.6302 1624.4382,-497.9129 1633.4204,-498.7868 1635.7969,-499.0666 1642.635,-498.7833 1642.0895,-470.2317 1637.6339,-372.3308 1642.0599,-368.7841 1637.9694,-365.3213 1632.9714,-363.898 1632.9714,-363.898 1637.9694,-365.3213 1642.0599,-368.7841 1637.6339,-372.3308 1642.0895,-470.2317 1642.635,-498.7833 1654.9897,-498.7701 1666.1605,-499.433 1733.3213,-507.4809 1803.7605,-452.5533 1798.6908,-368.54 1799.8334,-273.9001 1769.2264,-257.103 1671.9589,-234.2176 1672.0618,-362.2132 1672.0618,-362.2132"/>
<polyline fill="none" stroke="#000000" points="759.9099,-474.7404 757.4962,-495.9035 748.4597,-519.3091 784.4844,-666.03 789.339,-681.032 781.4811,-754.7344 650.495,-804.0427 637.0182,-810.3362 626.977,-815.2518 617.8342,-820.5604 612.764,-821.48 604.3849,-823.1472 600.3651,-824.1599 593.4377,-821.5542 575.5812,-815.1819 564.5887,-811.4777 486.3811,-742.7304 452.7687,-686.2975 421.1078,-638.248 438.2986,-621.7084 443.0576,-616.9382 460.4092,-484.9051 460.6409,-476.7057 460.9603,-472.7299 461.3223,-459.9568 465.5636,-427.6841 419.0567,-392.4965 428.3036,-357.5002 430.4483,-346.6825 431.1411,-336.0756 437.4099,-305.036 446.8233,-269.4094 468.6497,-247.2297 472.5784,-243.4846 483.2938,-232.6902 488.2723,-227.4187 491.81,-223.4899 504.6277,-210.6442 510.5949,-203.8735 508.5135,-178.1362 614.6982,-65.8419 643.5903,-73.1917 655.3617,-75.94 667.4941,-78.5154 682.2714,-80.3996 696.4122,-81.603 706.1834,-82.0193 765.2781,-82.0312 789.8276,-96.166 829.1508,-123.3778 927.3,-92.018 940.8318,-87.4066 946.5266,-85.9398 954.6663,-83.5219 961.6608,-81.1672 967.5676,-78.943 979.8449,-85.0848 990.2518,-89.599 1108.8469,-138.412 1109.9508,-180.6447 1110.02,-225.8967 1109.9441,-229.16 1111.5907,-261.3828 1113.1256,-320.1082 991.8627,-365.0327 974.8507,-371.7124 966.8824,-375.5387 961.1226,-375.4953 951.6453,-375.7635 944.4914,-376.094 927.7741,-377.4652 908.5555,-379.3834 908.2953,-379.3739 784.684,-457.2724 770.1052,-467.1591 767.6452,-468.9433 759.9099,-474.7404 "/>
<polyline fill="none" stroke="#000000" points="346.6732,-166.3199 344.6766,-167.259 334.2585,-171.5672 325.3019,-174.7397 297.2128,-181.3468 292.8779,-182.6052 292.8447,-182.6167 276.942,-189.0265 273.9045,-190.5777 267.8689,-193.9962 256.1214,-201.9825 250.8805,-206.1311 242.5695,-205.9792 242.2181,-206.0089 236.2255,-206.0935 227.3961,-205.9074 225.4633,-206.0652 222.4379,-206.2055 219.5498,-206.238 216.9098,-206.0824 210.3468,-206.1442 203.0621,-205.9567 200.133,-206.0815 198.1548,-206.0271 195.5886,-206.0441 190.5395,-206.2498 189.3233,-206.214 180.8426,-206.2542 161.2094,-207.0161 133.113,-193.9528 116.807,-197.8585 107.2421,-199.8 102.0626,-200.6596 92.5645,-201.5376 92.0125,-201.5683 84.4417,-201.712 82.8836,-201.6269 72.9758,-201.8359 71.0108,-201.7321 64.3245,-201.6328 60.5986,-201.8604 53.4592,-202.0323 43.1289,-203.063 31.3329,-205.1321 -87.0568,-234.7933 -74.8838,-265.3243 -67.4907,-285.1153 -35.8205,-383.554 28.2803,-452.7436 28.8774,-457.3259 -37.5114,-568.925 -40.8366,-577.7045 -47.927,-595.2323 -36.9698,-633.4995 -32.0921,-652.1534 -16.869,-716.6179 79.9958,-764.5394 88.0526,-763.7973 110.7478,-762.1541 111.9856,-762.0891 114.0973,-762.0618 133.1563,-762.5711 139.302,-762.8569 160.345,-765.085 236.7783,-750.8011 313.9102,-642.9066 318.5463,-641.9619 323.4785,-641.0323 332.6028,-639.5914 353.175,-637.2833 358.646,-636.7535 367.7079,-636.4298 374.7443,-636.286 381.4528,-636.2513 399.5005,-636.71 421.1078,-638.248 438.2986,-621.7084 443.0576,-616.9382 460.4092,-484.9051 460.6409,-476.7057 460.9603,-472.7299 461.3223,-459.9568 465.5636,-427.6841 419.0567,-392.4965 428.3036,-357.5002 430.4483,-346.6825 431.1411,-336.0756 437.4099,-305.036 446.8233,-269.4094 468.6497,-247.2297 472.5784,-243.4846 483.2938,-232.6902 488.2723,-227.4187 491.81,-223.4899 504.6277,-210.6442 510.5949,-203.8735 508.5135,-178.1362 614.6982,-65.8419 608.5052,-47.3149 595.476,-1.3967 576.6528,72.0606 507.2685,98.6728 468.6349,98.0246 461.4219,98.3653 454.3681,99.0004 437.8228,100.8452 434.1483,101.4901 414.5357,105.3549 378.1438,113.2918 378.8379,-16.3374 379.196,-20.9787 379.2386,-28.7546 379.8179,-36.1718 378.9199,-49.6533 379.2285,-107.3021 389.633,-124.1 394.8101,-130.8401 375.2746,-146.9328 365.2785,-154.5993 358.8883,-159.1181 346.6732,-166.3199 "/>
<polyline fill="none" stroke="#000000" points="212.1128,111.537 214.5594,112.0679 218.2882,112.9596 286.3558,130.7482 301.7656,138.6651 302.773,139.0093 304.426,139.6043 319.932,146.3465 320.6907,146.1516 321.6582,145.9506 341.5042,134.1874 378.1438,113.2918 378.8379,-16.3374 379.196,-20.9787 379.2386,-28.7546 379.8179,-36.1718 378.9199,-49.6533 379.2285,-107.3021 389.633,-124.1 394.8101,-130.8401 375.2746,-146.9328 365.2785,-154.5993 358.8883,-159.1181 346.6732,-166.3199 344.6766,-167.259 334.2585,-171.5672 325.3019,-174.7397 297.2128,-181.3468 292.8779,-182.6052 292.8447,-182.6167 276.942,-189.0265 273.9045,-190.5777 267.8689,-193.9962 256.1214,-201.9825 250.8805,-206.1311 242.5695,-205.9792 242.2181,-206.0089 236.2255,-206.0935 227.3961,-205.9074 225.4633,-206.0652 222.4379,-206.2055 219.5498,-206.238 216.9098,-206.0824 210.3468,-206.1442 203.0621,-205.9567 200.133,-206.0815 198.1548,-206.0271 195.5886,-206.0441 190.5395,-206.2498 189.3233,-206.214 180.8426,-206.2542 161.2094,-207.0161 133.113,-193.9528 116.807,-197.8585 107.2421,-199.8 102.0626,-200.6596 92.5645,-201.5376 92.0125,-201.5683 84.4417,-201.712 82.8836,-201.6269 72.9758,-201.8359 71.0108,-201.7321 64.3245,-201.6328 60.5986,-201.8604 53.4592,-202.0323 43.1289,-203.063 31.3329,-205.1321 -87.0568,-234.7933 -110.212,-214.6198 -110.7518,-208.9291 -108.1715,-135.861 -108.4676,-102.1021 -110.0033,-52.2085 18.3289,49.3873 18.9429,51.2018 27.5772,58.6934 140.9486,105.4438 168.8872,106.5798 183.8786,107.5213 197.0665,108.932 212.1128,111.537 "/>
<polyline fill="none" stroke="#000000" points="1454.6858,-9.6946 1457.9625,-7.8275 1465.2996,-8.5065 1482.1774,-9.4989 1486.2977,-9.6715 1497.7588,-9.5711 1603.425,-88.0882 1612.6917,-149.0062 1617.8811,-178.1748 1619.5048,-185.2963 1648.3691,-227.1681 1651.1868,-228.1225 1663.7098,-232.1064 1671.9589,-234.2176 1769.2264,-257.103 1799.8334,-273.9001 1798.6908,-368.54 1803.7605,-452.5533 1733.3213,-507.4809 1666.1605,-499.433 1654.9897,-498.7701 1642.635,-498.7833 1635.7969,-499.0666 1633.4204,-498.7868 1624.4382,-497.9129 1619.4263,-497.6302 1606.0255,-497.148 1596.2886,-497.3941 1583.9136,-498.2119 1472.5231,-464.7747 1456.1022,-430.1476 1447.376,-424.8911 1343.1521,-364.6914 1308.5476,-367.5683 1306.6394,-367.7621 1295.3163,-369.1221 1283.3478,-370.7803 1279.8164,-371.4644 1266.2504,-374.344 1265.0945,-373.9621 1253.0005,-370.4304 1233.6903,-366.265 1161.1534,-353.4026 1113.1256,-320.1082 1111.5907,-261.3828 1109.9441,-229.16 1110.02,-225.8967 1109.9508,-180.6447 1108.8469,-138.412 1175.8832,-91.7922 1186.6674,-87.5619 1236.9426,-80.1926 1241.6453,-79.4138 1255.418,-76.3403 1267.8632,-73.0856 1273.9473,-73.979 1281.7429,-74.5621 1359.8704,-43.3052 1398.3287,-33.1015 1408.6443,-29.6906 1414.0514,-27.7848 1425.3883,-23.5424 1436.0964,-18.8384 1450.8096,-11.733 1454.6858,-9.6946 "/>
<!-- filesystem&#45;&gt;setup -->
<g id="edge1" class="edge">
<title>filesystem&#45;&gt;setup</title>
<path fill="none" stroke="#444444" stroke-opacity="0.333333" d="M814.8826,-275.9168C840.8162,-267.6774 871.6326,-257.8867 898.3484,-249.3987"/>
<polygon fill="#444444" fill-opacity="0.333333" stroke="#444444" stroke-opacity="0.333333" points="899.5182,-252.6996 907.9889,-246.3358 897.3985,-246.0282 899.5182,-252.6996"/>
</g>
<!-- filesystem&#45;&gt;bash -->
<g id="edge2" class="edge">
<title>filesystem&#45;&gt;bash</title>
<path fill="none" stroke="#444444" stroke-opacity="0.333333" d="M700.9586,-300.6388C658.7481,-308.4452 601.4648,-320.925 558.9382,-331.5582"/>
<polygon fill="#444444" fill-opacity="0.333333" stroke="#444444" stroke-opacity="0.333333" points="557.8426,-328.2252 549.0102,-334.0766 559.5638,-335.0103 557.8426,-328.2252"/>
</g>
<!-- setup&#45;&gt;setup -->
<g id="edge3" class="edge">
<title>setup&#45;&gt;setup</title>
<path fill="none" stroke="#444444" stroke-opacity="0.333333" d="M1016.0573,-235.6097C1026.5786,-234.8607 1034.05,-232.7108 1034.05,-229.16 1034.05,-226.8853 1030.9837,-225.1855 1026.0136,-224.0606"/>
<polygon fill="#444444" fill-opacity="0.333333" stroke="#444444" stroke-opacity="0.333333" points="1026.4369,-220.5861 1016.0573,-222.7103 1025.4962,-227.5226 1026.4369,-220.5861"/>
</g>
<!-- setup&#45;&gt;fedora&#45;release -->
<g id="edge4" class="edge">
<title>setup&#45;&gt;fedora&#45;release</title>
<path fill="none" stroke="#444444" stroke-opacity="0.333333" d="M1016.3964,-228.0358C1062.5463,-227.0812 1129.6221,-225.6937 1183.2003,-224.5855"/>
<polygon fill="#444444" fill-opacity="0.333333" stroke="#444444" stroke-opacity="0.333333" points="1183.4566,-228.081 1193.3821,-224.3749 1183.3118,-221.0825 1183.4566,-228.081"/>
</g>
<!-- bash&#45;&gt;filesystem -->
<g id="edge5" class="edge">
<title>bash&#45;&gt;filesystem</title>
<path fill="none" stroke="#444444" stroke-opacity="0.333333" d="M549.1805,-345.1301C589.6556,-337.9094 647.6301,-325.4531 692.239,-314.5076"/>
<polygon fill="#444444" fill-opacity="0.333333" stroke="#444444" stroke-opacity="0.333333" points="693.2568,-317.8612 702.1177,-312.053 691.5688,-311.0678 693.2568,-317.8612"/>
</g>
<!-- bash&#45;&gt;bash -->
<g id="edge6" class="edge">
<title>bash&#45;&gt;bash</title>
<path fill="none" stroke="#444444" stroke-opacity="0.333333" d="M549.2041,-356.8021C559.5319,-356.1388 566.99,-353.9614 566.99,-350.27 566.99,-347.9629 564.0767,-346.2472 559.3703,-345.1229"/>
<polygon fill="#444444" fill-opacity="0.333333" stroke="#444444" stroke-opacity="0.333333" points="559.5851,-341.6199 549.2041,-343.7379 558.6401,-348.5558 559.5851,-341.6199"/>
</g>
<!-- bash&#45;&gt;glibc -->
<g id="edge7" class="edge">
<title>bash&#45;&gt;glibc</title>
<path fill="none" stroke="#444444" stroke-opacity="0.333333" d="M476.9976,-332.0726C450.8404,-311.811 408.4359,-278.9642 379.4363,-256.5008"/>
<polygon fill="#444444" fill-opacity="0.333333" stroke="#444444" stroke-opacity="0.333333" points="381.3178,-253.5311 371.2688,-250.1742 377.0312,-259.065 381.3178,-253.5311"/>
</g>
<!-- bash&#45;&gt;ncurses&#45;libs -->
<g id="edge8" class="edge">
<title>bash&#45;&gt;ncurses&#45;libs</title>
<path fill="none" stroke="#444444" stroke-opacity="0.333333" d="M507.8121,-368.4252C516.694,-390.4476 531.7547,-427.7905 542.0621,-453.3478"/>
<polygon fill="#444444" fill-opacity="0.333333" stroke="#444444" stroke-opacity="0.333333" points="538.9037,-454.874 545.89,-462.839 545.3956,-452.2557 538.9037,-454.874"/>
</g>
<!-- fedora&#45;release&#45;&gt;fedora&#45;release&#45;common -->
<g id="edge30" class="edge">
<title>fedora&#45;release&#45;&gt;fedora&#45;release&#45;common</title>
<path fill="none" stroke="#444444" stroke-opacity="0.333333" d="M1346.6394,-212.5507C1368.6822,-206.0901 1391.5665,-198.1176 1409.4485,-190.4817"/>
<polygon fill="#444444" fill-opacity="0.333333" stroke="#444444" stroke-opacity="0.333333" points="1411.1313,-193.5633 1418.8313,-186.2858 1408.2736,-187.1731 1411.1313,-193.5633"/>
</g>
<!-- glibc&#45;&gt;glibc -->
<g id="edge9" class="edge">
<title>glibc&#45;&gt;glibc</title>
<path fill="none" stroke="#444444" stroke-opacity="0.333333" d="M401.2572,-238.5997C411.6323,-237.8507 419,-235.7008 419,-232.15 419,-229.9308 416.122,-228.2587 411.4305,-227.134"/>
<polygon fill="#444444" fill-opacity="0.333333" stroke="#444444" stroke-opacity="0.333333" points="411.6478,-223.6301 401.2572,-225.7003 410.6709,-230.5616 411.6478,-223.6301"/>
</g>
<!-- glibc&#45;&gt;basesystem -->
<g id="edge10" class="edge">
<title>glibc&#45;&gt;basesystem</title>
<path fill="none" stroke="#444444" stroke-opacity="0.333333" d="M401.0636,-228.596C456.5954,-224.8768 544.1422,-219.0133 605.9703,-214.8723"/>
<polygon fill="#444444" fill-opacity="0.333333" stroke="#444444" stroke-opacity="0.333333" points="606.3035,-218.3579 616.0472,-214.1974 605.8356,-211.3736 606.3035,-218.3579"/>
</g>
<!-- glibc&#45;&gt;glibc&#45;common -->
<g id="edge11" class="edge">
<title>glibc&#45;&gt;glibc&#45;common</title>
<path fill="none" stroke="#444444" stroke-opacity="0.333333" d="M331.9947,-250.1552C308.2544,-283.5031 264.9308,-354.849 244.392,-394.1869"/>
<polygon fill="#444444" fill-opacity="0.333333" stroke="#444444" stroke-opacity="0.333333" points="241.0925,-392.9546 239.687,-403.4558 247.3343,-396.1231 241.0925,-392.9546"/>
</g>
<!-- glibc&#45;&gt;glibc&#45;minimal&#45;langpack -->
<g id="edge12" class="edge">
<title>glibc&#45;&gt;glibc&#45;minimal&#45;langpack</title>
<path fill="none" stroke="#444444" stroke-opacity="0.333333" d="M342.5834,-250.5357C335.6141,-291.172 327.2779,-388.8481 326.3924,-437.31"/>
<polygon fill="#444444" fill-opacity="0.333333" stroke="#444444" stroke-opacity="0.333333" points="322.8919,-437.3914 326.3232,-447.4151 329.8917,-437.4394 322.8919,-437.3914"/>
</g>
<!-- glibc&#45;&gt;libgcc -->
<g id="edge13" class="edge">
<title>glibc&#45;&gt;libgcc</title>
<path fill="none" stroke="#444444" stroke-opacity="0.333333" d="M357.1964,-213.9561C375.1438,-178.4496 414.9161,-99.7653 435.952,-58.1485"/>
<polygon fill="#444444" fill-opacity="0.333333" stroke="#444444" stroke-opacity="0.333333" points="439.12,-59.6396 440.5076,-49.136 432.8727,-56.4817 439.12,-59.6396"/>
</g>
<!-- ncurses&#45;libs&#45;&gt;glibc -->
<g id="edge14" class="edge">
<title>ncurses&#45;libs&#45;&gt;glibc</title>
<path fill="none" stroke="#444444" stroke-opacity="0.333333" d="M538.0648,-462.5532C502.127,-418.9881 411.347,-308.9414 369.6048,-258.3401"/>
<polygon fill="#444444" fill-opacity="0.333333" stroke="#444444" stroke-opacity="0.333333" points="372.1707,-255.9504 363.1073,-250.4636 366.7709,-260.4048 372.1707,-255.9504"/>
</g>
<!-- ncurses&#45;libs&#45;&gt;ncurses&#45;libs -->
<g id="edge15" class="edge">
<title>ncurses&#45;libs&#45;&gt;ncurses&#45;libs</title>
<path fill="none" stroke="#444444" stroke-opacity="0.333333" d="M621.6753,-487.026C632.3634,-486.1012 639.65,-484.0392 639.65,-480.84 639.65,-478.7905 636.6596,-477.2077 631.7002,-476.0917"/>
<polygon fill="#444444" fill-opacity="0.333333" stroke="#444444" stroke-opacity="0.333333" points="632.0709,-472.6091 621.6753,-474.654 631.0772,-479.5382 632.0709,-472.6091"/>
</g>
<!-- ncurses&#45;libs&#45;&gt;ncurses&#45;base -->
<g id="edge16" class="edge">
<title>ncurses&#45;libs&#45;&gt;ncurses&#45;base</title>
<path fill="none" stroke="#444444" stroke-opacity="0.333333" d="M559.9532,-498.934C572.1729,-531.4338 597.908,-599.8797 612.3622,-638.3225"/>
<polygon fill="#444444" fill-opacity="0.333333" stroke="#444444" stroke-opacity="0.333333" points="609.1537,-639.7341 615.9492,-647.8626 615.7058,-637.2705 609.1537,-639.7341"/>
</g>
<!-- basesystem&#45;&gt;filesystem -->
<g id="edge34" class="edge">
<title>basesystem&#45;&gt;filesystem</title>
<path fill="none" stroke="#444444" stroke-opacity="0.333333" d="M695.5832,-228.2437C706.771,-240.0134 721.4914,-255.4994 733.8333,-268.4833"/>
<polygon fill="#444444" fill-opacity="0.333333" stroke="#444444" stroke-opacity="0.333333" points="731.3541,-270.9552 740.7805,-275.7918 736.4277,-266.1324 731.3541,-270.9552"/>
</g>
<!-- basesystem&#45;&gt;setup -->
<g id="edge35" class="edge">
<title>basesystem&#45;&gt;setup</title>
<path fill="none" stroke="#444444" stroke-opacity="0.333333" d="M740.5467,-214.2282C787.2113,-217.3739 850.8619,-221.6647 897.959,-224.8395"/>
<polygon fill="#444444" fill-opacity="0.333333" stroke="#444444" stroke-opacity="0.333333" points="897.8329,-228.3389 908.0457,-225.5195 898.3038,-221.3547 897.8329,-228.3389"/>
</g>
<!-- glibc&#45;common&#45;&gt;bash -->
<g id="edge36" class="edge">
<title>glibc&#45;common&#45;&gt;bash</title>
<path fill="none" stroke="#444444" stroke-opacity="0.333333" d="M301.1284,-403.4634C344.6271,-391.8572 400.5421,-376.938 442.0802,-365.8548"/>
<polygon fill="#444444" fill-opacity="0.333333" stroke="#444444" stroke-opacity="0.333333" points="443.0198,-369.2267 451.7794,-363.2669 441.2151,-362.4633 443.0198,-369.2267"/>
</g>
<!-- glibc&#45;common&#45;&gt;glibc -->
<g id="edge37" class="edge">
<title>glibc&#45;common&#45;&gt;glibc</title>
<path fill="none" stroke="#444444" stroke-opacity="0.333333" d="M249.3853,-403.5348C273.1256,-370.1869 316.4492,-298.841 336.988,-259.5031"/>
<polygon fill="#444444" fill-opacity="0.333333" stroke="#444444" stroke-opacity="0.333333" points="340.2875,-260.7354 341.693,-250.2342 334.0457,-257.5669 340.2875,-260.7354"/>
</g>
<!-- glibc&#45;common&#45;&gt;libselinux -->
<g id="edge38" class="edge">
<title>glibc&#45;common&#45;&gt;libselinux</title>
<path fill="none" stroke="#444444" stroke-opacity="0.333333" d="M231.512,-403.2779C229.2163,-380.8338 225.2963,-342.5105 222.6155,-316.3015"/>
<polygon fill="#444444" fill-opacity="0.333333" stroke="#444444" stroke-opacity="0.333333" points="226.0849,-315.8235 221.5854,-306.2316 219.1212,-316.5359 226.0849,-315.8235"/>
</g>
<!-- glibc&#45;common&#45;&gt;tzdata -->
<g id="edge39" class="edge">
<title>glibc&#45;common&#45;&gt;tzdata</title>
<path fill="none" stroke="#444444" stroke-opacity="0.333333" d="M223.1373,-439.6649C203.1566,-475.0218 158.8887,-553.3562 135.4517,-594.829"/>
<polygon fill="#444444" fill-opacity="0.333333" stroke="#444444" stroke-opacity="0.333333" points="132.3839,-593.1437 130.5111,-603.5717 138.4781,-596.5877 132.3839,-593.1437"/>
</g>
<!-- glibc&#45;minimal&#45;langpack&#45;&gt;glibc -->
<g id="edge40" class="edge">
<title>glibc&#45;minimal&#45;langpack&#45;&gt;glibc</title>
<path fill="none" stroke="#444444" stroke-opacity="0.333333" d="M334.0466,-447.1743C341.0159,-406.538 349.3521,-308.8619 350.2376,-260.4"/>
<polygon fill="#444444" fill-opacity="0.333333" stroke="#444444" stroke-opacity="0.333333" points="353.7381,-260.3186 350.3068,-250.2949 346.7383,-260.2706 353.7381,-260.3186"/>
</g>
<!-- glibc&#45;minimal&#45;langpack&#45;&gt;glibc&#45;common -->
<g id="edge41" class="edge">
<title>glibc&#45;minimal&#45;langpack&#45;&gt;glibc&#45;common</title>
<path fill="none" stroke="#444444" stroke-opacity="0.333333" d="M289.6134,-447.5284C286.9643,-446.3041 284.2784,-445.0628 281.5901,-443.8204"/>
<polygon fill="#444444" fill-opacity="0.333333" stroke="#444444" stroke-opacity="0.333333" points="283.0359,-440.6329 272.4901,-439.6148 280.0993,-446.9872 283.0359,-440.6329"/>
</g>
<!-- libacl&#45;&gt;glibc -->
<g id="edge17" class="edge">
<title>libacl&#45;&gt;glibc</title>
<path fill="none" stroke="#444444" stroke-opacity="0.333333" d="M211.228,-36.2583C237.711,-74.1886 298.7708,-161.6414 329.5511,-205.7266"/>
<polygon fill="#444444" fill-opacity="0.333333" stroke="#444444" stroke-opacity="0.333333" points="326.6898,-207.7423 335.2843,-213.9379 332.4292,-203.735 326.6898,-207.7423"/>
</g>
<!-- libacl&#45;&gt;libattr -->
<g id="edge18" class="edge">
<title>libacl&#45;&gt;libattr</title>
<path fill="none" stroke="#444444" stroke-opacity="0.333333" d="M249.7302,-24.2349C249.8878,-24.2541 250.0455,-24.2733 250.2033,-24.2925"/>
<polygon fill="#444444" fill-opacity="0.333333" stroke="#444444" stroke-opacity="0.333333" points="246.9645,-27.4242 257.314,-25.1576 247.81,-20.4754 246.9645,-27.4242"/>
</g>
<!-- libattr&#45;&gt;glibc -->
<g id="edge19" class="edge">
<title>libattr&#45;&gt;glibc</title>
<path fill="none" stroke="#444444" stroke-opacity="0.333333" d="M313.5575,-49.7357C320.1734,-84.7749 334.7467,-161.9578 342.6502,-203.8166"/>
<polygon fill="#444444" fill-opacity="0.333333" stroke="#444444" stroke-opacity="0.333333" points="339.2583,-204.7168 344.553,-213.8938 346.1367,-203.418 339.2583,-204.7168"/>
</g>
<!-- libattr&#45;&gt;libattr -->
<g id="edge20" class="edge">
<title>libattr&#45;&gt;libattr</title>
<path fill="none" stroke="#444444" stroke-opacity="0.333333" d="M362.7052,-38.0545C373.1686,-37.3261 380.63,-35.1689 380.63,-31.583 380.63,-29.2858 377.5679,-27.5749 372.616,-26.4504"/>
<polygon fill="#444444" fill-opacity="0.333333" stroke="#444444" stroke-opacity="0.333333" points="373.0838,-22.9819 362.7052,-25.1115 372.1466,-29.9189 373.0838,-22.9819"/>
</g>
<!-- libcap&#45;&gt;glibc -->
<g id="edge21" class="edge">
<title>libcap&#45;&gt;glibc</title>
<path fill="none" stroke="#444444" stroke-opacity="0.333333" d="M105.6194,-142.7394C156.4373,-161.4854 235.7797,-190.7536 289.7337,-210.6564"/>
<polygon fill="#444444" fill-opacity="0.333333" stroke="#444444" stroke-opacity="0.333333" points="288.5725,-213.9586 299.1658,-214.1358 290.9951,-207.3911 288.5725,-213.9586"/>
</g>
<!-- libcap&#45;&gt;libcap -->
<g id="edge22" class="edge">
<title>libcap&#45;&gt;libcap</title>
<path fill="none" stroke="#444444" stroke-opacity="0.333333" d="M113.0255,-131.0235C123.5723,-130.235 131,-128.1005 131,-124.62 131,-122.3903 127.9517,-120.713 122.9878,-119.5881"/>
<polygon fill="#444444" fill-opacity="0.333333" stroke="#444444" stroke-opacity="0.333333" points="123.4095,-116.1132 113.0255,-118.2165 122.4546,-123.0478 123.4095,-116.1132"/>
</g>
<!-- libselinux&#45;&gt;glibc -->
<g id="edge23" class="edge">
<title>libselinux&#45;&gt;glibc</title>
<path fill="none" stroke="#444444" stroke-opacity="0.333333" d="M261.0283,-270.1501C272.5851,-265.1007 285.2803,-259.5538 297.3143,-254.2959"/>
<polygon fill="#444444" fill-opacity="0.333333" stroke="#444444" stroke-opacity="0.333333" points="299.0269,-257.3671 306.7891,-250.1561 296.2242,-250.9527 299.0269,-257.3671"/>
</g>
<!-- libselinux&#45;&gt;libsepol -->
<g id="edge24" class="edge">
<title>libselinux&#45;&gt;libsepol</title>
<path fill="none" stroke="#444444" stroke-opacity="0.333333" d="M283.9235,-306.269C284.0303,-306.2991 284.1372,-306.3292 284.2442,-306.3593"/>
<polygon fill="#444444" fill-opacity="0.333333" stroke="#444444" stroke-opacity="0.333333" points="283.6118,-309.8173 294.1862,-309.1598 285.5098,-303.0795 283.6118,-309.8173"/>
</g>
<!-- libselinux&#45;&gt;pcre2 -->
<g id="edge25" class="edge">
<title>libselinux&#45;&gt;pcre2</title>
<path fill="none" stroke="#444444" stroke-opacity="0.333333" d="M152.8833,-283.2803C152.7201,-283.2683 152.5569,-283.2563 152.3938,-283.2443"/>
<polygon fill="#444444" fill-opacity="0.333333" stroke="#444444" stroke-opacity="0.333333" points="155.3087,-279.9491 145.0792,-282.7072 154.796,-286.9303 155.3087,-279.9491"/>
</g>
<!-- libsepol&#45;&gt;bash -->
<g id="edge42" class="edge">
<title>libsepol&#45;&gt;bash</title>
<path fill="none" stroke="#444444" stroke-opacity="0.333333" d="M416.4239,-336.4307C424.8015,-337.8098 433.3876,-339.2233 441.7209,-340.5952"/>
<polygon fill="#444444" fill-opacity="0.333333" stroke="#444444" stroke-opacity="0.333333" points="441.2937,-344.0719 451.7295,-342.2428 442.4308,-337.1649 441.2937,-344.0719"/>
</g>
<!-- libsepol&#45;&gt;glibc -->
<g id="edge43" class="edge">
<title>libsepol&#45;&gt;glibc</title>
<path fill="none" stroke="#444444" stroke-opacity="0.333333" d="M353.8521,-308.1954C352.809,-294.6409 351.3642,-275.8667 350.1712,-260.3642"/>
<polygon fill="#444444" fill-opacity="0.333333" stroke="#444444" stroke-opacity="0.333333" points="353.6506,-259.9608 349.3936,-250.2589 346.6713,-260.498 353.6506,-259.9608"/>
</g>
<!-- pcre2&#45;&gt;glibc -->
<g id="edge44" class="edge">
<title>pcre2&#45;&gt;glibc</title>
<path fill="none" stroke="#444444" stroke-opacity="0.333333" d="M144.8989,-268.7316C185.8909,-261.3483 241.9241,-251.2559 284.7529,-243.5418"/>
<polygon fill="#444444" fill-opacity="0.333333" stroke="#444444" stroke-opacity="0.333333" points="285.5632,-246.9522 294.7844,-241.7349 284.3223,-240.0631 285.5632,-246.9522"/>
</g>
<!-- pcre2&#45;&gt;pcre2 -->
<g id="edge45" class="edge">
<title>pcre2&#45;&gt;pcre2</title>
<path fill="none" stroke="#444444" stroke-opacity="0.333333" d="M144.9053,-285.077C155.4061,-284.308 162.832,-282.1656 162.832,-278.65 162.832,-276.3978 159.7844,-274.7092 154.8331,-273.5842"/>
<polygon fill="#444444" fill-opacity="0.333333" stroke="#444444" stroke-opacity="0.333333" points="155.2881,-270.1139 144.9053,-272.223 154.3371,-277.049 155.2881,-270.1139"/>
</g>
<!-- fedora&#45;release&#45;common&#45;&gt;fedora&#45;release -->
<g id="edge27" class="edge">
<title>fedora&#45;release&#45;common&#45;&gt;fedora&#45;release</title>
<path fill="none" stroke="#444444" stroke-opacity="0.333333" d="M1340.5761,-186.4219C1327.0169,-190.9812 1313.9899,-195.8524 1302.8936,-200.593"/>
<polygon fill="#444444" fill-opacity="0.333333" stroke="#444444" stroke-opacity="0.333333" points="1301.3755,-197.4379 1293.6746,-204.7144 1304.2323,-203.8284 1301.3755,-197.4379"/>
</g>
<!-- fedora&#45;release&#45;common&#45;&gt;fedora&#45;release -->
<g id="edge28" class="edge">
<title>fedora&#45;release&#45;common&#45;&gt;fedora&#45;release</title>
<path fill="none" stroke="#444444" stroke-dasharray="5,2" stroke-opacity="0.333333" d="M1385.472,-186.2663C1369.9587,-191.1731 1353.0101,-196.534 1336.9935,-201.6"/>
<polygon fill="#444444" fill-opacity="0.333333" stroke="#444444" stroke-opacity="0.333333" points="1335.6415,-198.3567 1327.1626,-204.7095 1337.7525,-205.0308 1335.6415,-198.3567"/>
</g>
<!-- fedora&#45;release&#45;common&#45;&gt;fedora&#45;release&#45;common -->
<g id="edge26" class="edge">
<title>fedora&#45;release&#45;common&#45;&gt;fedora&#45;release&#45;common</title>
<path fill="none" stroke="#444444" stroke-opacity="0.333333" d="M1550.8304,-173.7637C1561.5696,-172.661 1568.4,-170.8264 1568.4,-168.26 1568.4,-166.6159 1565.5968,-165.2721 1560.7585,-164.2287"/>
<polygon fill="#444444" fill-opacity="0.333333" stroke="#444444" stroke-opacity="0.333333" points="1561.2357,-160.7613 1550.8304,-162.7563 1560.2087,-167.6855 1561.2357,-160.7613"/>
</g>
<!-- fedora&#45;release&#45;common&#45;&gt;fedora&#45;repos -->
<g id="edge29" class="edge">
<title>fedora&#45;release&#45;common&#45;&gt;fedora&#45;repos</title>
<path fill="none" stroke="#444444" stroke-opacity="0.333333" d="M1450.2372,-186.4637C1457.5049,-203.3446 1468.421,-228.6998 1476.7528,-248.0521"/>
<polygon fill="#444444" fill-opacity="0.333333" stroke="#444444" stroke-opacity="0.333333" points="1473.5552,-249.4761 1480.7244,-257.277 1479.9846,-246.708 1473.5552,-249.4761"/>
</g>
<!-- fedora&#45;repos&#45;&gt;fedora&#45;release -->
<g id="edge31" class="edge">
<title>fedora&#45;repos&#45;&gt;fedora&#45;release</title>
<path fill="none" stroke="#444444" stroke-opacity="0.333333" d="M1420.3328,-259.0872C1399.4748,-254.0511 1376.2847,-248.452 1354.485,-243.1885"/>
<polygon fill="#444444" fill-opacity="0.333333" stroke="#444444" stroke-opacity="0.333333" points="1355.1223,-239.7419 1344.5801,-240.797 1353.4793,-246.5464 1355.1223,-239.7419"/>
</g>
<!-- fedora&#45;repos&#45;&gt;fedora&#45;repos -->
<g id="edge32" class="edge">
<title>fedora&#45;repos&#45;&gt;fedora&#45;repos</title>
<path fill="none" stroke="#444444" stroke-opacity="0.333333" d="M1556.7292,-281.756C1567.3555,-280.8312 1574.6,-278.7692 1574.6,-275.57 1574.6,-273.5205 1571.6268,-271.9377 1566.6961,-270.8217"/>
<polygon fill="#444444" fill-opacity="0.333333" stroke="#444444" stroke-opacity="0.333333" points="1567.1265,-267.3476 1556.7292,-269.384 1566.1271,-274.2759 1567.1265,-267.3476"/>
</g>
<!-- fedora&#45;repos&#45;&gt;fedora&#45;gpg&#45;keys -->
<g id="edge33" class="edge">
<title>fedora&#45;repos&#45;&gt;fedora&#45;gpg&#45;keys</title>
<path fill="none" stroke="#444444" stroke-opacity="0.333333" d="M1516.7846,-293.7163C1539.5447,-308.3701 1571.7415,-329.0995 1596.4764,-345.0248"/>
<polygon fill="#444444" fill-opacity="0.333333" stroke="#444444" stroke-opacity="0.333333" points="1594.5838,-347.9689 1604.8865,-350.4395 1598.3732,-342.0832 1594.5838,-347.9689"/>
</g>
<!-- coreutils&#45;single&#45;&gt;glibc -->
<g id="edge46" class="edge">
<title>coreutils&#45;single&#45;&gt;glibc</title>
<path fill="none" stroke="#444444" stroke-opacity="0.333333" d="M258.794,-142.4292C276.4174,-160.1543 303.2664,-187.1582 322.9055,-206.9107"/>
<polygon fill="#444444" fill-opacity="0.333333" stroke="#444444" stroke-opacity="0.333333" points="320.5124,-209.4678 330.0451,-214.0915 325.4764,-204.5323 320.5124,-209.4678"/>
</g>
<!-- coreutils&#45;single&#45;&gt;libacl -->
<g id="edge47" class="edge">
<title>coreutils&#45;single&#45;&gt;libacl</title>
<path fill="none" stroke="#444444" stroke-opacity="0.333333" d="M233.2385,-105.6188C226.6599,-89.0355 216.9146,-64.4698 209.4156,-45.5663"/>
<polygon fill="#444444" fill-opacity="0.333333" stroke="#444444" stroke-opacity="0.333333" points="212.6684,-44.2741 205.7275,-36.2694 206.1617,-46.8554 212.6684,-44.2741"/>
</g>
<!-- coreutils&#45;single&#45;&gt;libattr -->
<g id="edge48" class="edge">
<title>coreutils&#45;single&#45;&gt;libattr</title>
<path fill="none" stroke="#444444" stroke-opacity="0.333333" d="M254.3128,-105.8216C264.6022,-92.1364 278.8264,-73.2178 290.3402,-57.904"/>
<polygon fill="#444444" fill-opacity="0.333333" stroke="#444444" stroke-opacity="0.333333" points="293.2037,-59.9196 296.4157,-49.8234 287.6087,-55.7129 293.2037,-59.9196"/>
</g>
<!-- coreutils&#45;single&#45;&gt;libcap -->
<g id="edge49" class="edge">
<title>coreutils&#45;single&#45;&gt;libcap</title>
<path fill="none" stroke="#444444" stroke-opacity="0.333333" d="M113.9837,-124.4576C113.8587,-124.458 113.7338,-124.4583 113.609,-124.4587"/>
<polygon fill="#444444" fill-opacity="0.333333" stroke="#444444" stroke-opacity="0.333333" points="123.224,-120.9288 113.2349,-124.4597 123.2457,-127.9288 123.224,-120.9288"/>
</g>
<!-- coreutils&#45;single&#45;&gt;libselinux -->
<g id="edge50" class="edge">
<title>coreutils&#45;single&#45;&gt;libselinux</title>
<path fill="none" stroke="#444444" stroke-opacity="0.333333" d="M238.2612,-142.2875C234.6483,-170.7487 227.6294,-226.0407 223.3459,-259.784"/>
<polygon fill="#444444" fill-opacity="0.333333" stroke="#444444" stroke-opacity="0.333333" points="219.8464,-259.5599 222.0591,-269.9211 226.7906,-260.4415 219.8464,-259.5599"/>
</g>
<!-- filesystem -->
<g id="node1" class="node">
<title>filesystem</title>
<text text-anchor="middle" x="758.06" y="-290.27" font-family="Helvetica,sans-Serif" font-weight="bold" font-size="14.00" fill="#000000">filesystem (0.0 B)</text>
</g>
<!-- setup -->
<g id="node2" class="node">
<title>setup</title>
<text text-anchor="middle" x="962.05" y="-225.46" font-family="Helvetica,sans-Serif" font-weight="bold" font-size="14.00" fill="#000000">setup (709.7 kB)</text>
</g>
<!-- bash -->
<g id="node3" class="node">
<title>bash</title>
<text text-anchor="middle" x="500.49" y="-346.57" font-family="Helvetica,sans-Serif" font-weight="bold" font-size="14.00" fill="#000000">bash (7.2 MB)</text>
</g>
<!-- fedora&#45;release -->
<g id="node4" class="node">
<title>fedora&#45;release</title>
<text text-anchor="middle" x="1270" y="-219.09" font-family="Helvetica,sans-Serif" font-weight="bold" font-size="14.00" fill="#000000">fedora&#45;release (691.0 B)</text>
</g>
<!-- glibc -->
<g id="node5" class="node">
<title>glibc</title>
<text text-anchor="middle" x="348" y="-228.45" font-family="Helvetica,sans-Serif" font-weight="bold" font-size="14.00" fill="#000000">glibc (16.5 MB)</text>
</g>
<!-- ncurses&#45;libs -->
<g id="node6" class="node">
<title>ncurses&#45;libs</title>
<text text-anchor="middle" x="553.15" y="-477.14" font-family="Helvetica,sans-Serif" font-weight="bold" font-size="14.00" fill="#000000">ncurses&#45;libs (1.0 MB)</text>
</g>
<!-- basesystem -->
<g id="node7" class="node">
<title>basesystem</title>
<text text-anchor="middle" x="678.27" y="-206.33" font-family="Helvetica,sans-Serif" font-weight="bold" font-size="14.00" fill="#000000">basesystem (0.0 B)</text>
</g>
<!-- glibc&#45;common -->
<g id="node8" class="node">
<title>glibc&#45;common</title>
<text text-anchor="middle" x="233.38" y="-417.84" font-family="Helvetica,sans-Serif" font-weight="bold" font-size="14.00" fill="#000000">glibc&#45;common (2.6 MB)</text>
</g>
<!-- glibc&#45;minimal&#45;langpack -->
<g id="node9" class="node">
<title>glibc&#45;minimal&#45;langpack</title>
<text text-anchor="middle" x="328.63" y="-459.96" font-family="Helvetica,sans-Serif" font-weight="bold" font-size="22.00" fill="#cc0066">glibc&#45;minimal&#45;langpack (0.0 B)</text>
</g>
<!-- libgcc -->
<g id="node10" class="node">
<title>libgcc</title>
<text text-anchor="middle" x="449.61" y="-27.428" font-family="Helvetica,sans-Serif" font-weight="bold" font-size="14.00" fill="#000000">libgcc (190.3 kB)</text>
</g>
<!-- ncurses&#45;base -->
<g id="node11" class="node">
<title>ncurses&#45;base</title>
<text text-anchor="middle" x="622.78" y="-662.33" font-family="Helvetica,sans-Serif" font-weight="bold" font-size="14.00" fill="#000000">ncurses&#45;base (275.1 kB)</text>
</g>
<!-- libacl -->
<g id="node12" class="node">
<title>libacl</title>
<text text-anchor="middle" x="198.48" y="-14.3" font-family="Helvetica,sans-Serif" font-weight="bold" font-size="14.00" fill="#000000">libacl (47.5 kB)</text>
</g>
<!-- libattr -->
<g id="node13" class="node">
<title>libattr</title>
<text text-anchor="middle" x="310.13" y="-27.883" font-family="Helvetica,sans-Serif" font-weight="bold" font-size="14.00" fill="#000000">libattr (29.5 kB)</text>
</g>
<!-- libcap -->
<g id="node14" class="node">
<title>libcap</title>
<text text-anchor="middle" x="56.5" y="-120.92" font-family="Helvetica,sans-Serif" font-weight="bold" font-size="14.00" fill="#000000">libcap (147.0 kB)</text>
</g>
<!-- libselinux -->
<g id="node15" class="node">
<title>libselinux</title>
<text text-anchor="middle" x="219.74" y="-284.49" font-family="Helvetica,sans-Serif" font-weight="bold" font-size="14.00" fill="#000000">libselinux (185.3 kB)</text>
</g>
<!-- libsepol -->
<g id="node16" class="node">
<title>libsepol</title>
<text text-anchor="middle" x="355.25" y="-322.66" font-family="Helvetica,sans-Serif" font-weight="bold" font-size="14.00" fill="#000000">libsepol (756.0 kB)</text>
</g>
<!-- pcre2 -->
<g id="node17" class="node">
<title>pcre2</title>
<text text-anchor="middle" x="89.832" y="-274.95" font-family="Helvetica,sans-Serif" font-weight="bold" font-size="14.00" fill="#000000">pcre2 (715.2 kB)</text>
</g>
<!-- fedora&#45;release&#45;common -->
<g id="node18" class="node">
<title>fedora&#45;release&#45;common</title>
<text text-anchor="middle" x="1442.4" y="-164.56" font-family="Helvetica,sans-Serif" font-weight="bold" font-size="14.00" fill="#000000">fedora&#45;release&#45;common (14.0 kB)</text>
</g>
<!-- fedora&#45;repos -->
<g id="node19" class="node">
<title>fedora&#45;repos</title>
<text text-anchor="middle" x="1488.6" y="-271.87" font-family="Helvetica,sans-Serif" font-weight="bold" font-size="14.00" fill="#000000">fedora&#45;repos (8.6 kB)</text>
</g>
<!-- fedora&#45;gpg&#45;keys -->
<g id="node20" class="node">
<title>fedora&#45;gpg&#45;keys</title>
<text text-anchor="middle" x="1633" y="-364.84" font-family="Helvetica,sans-Serif" font-weight="bold" font-size="14.00" fill="#000000">fedora&#45;gpg&#45;keys (101.4 kB)</text>
</g>
<!-- tzdata -->
<g id="node21" class="node">
<title>tzdata</title>
<text text-anchor="middle" x="120.21" y="-618.1" font-family="Helvetica,sans-Serif" font-weight="bold" font-size="14.00" fill="#000000">tzdata (1.8 MB)</text>
</g>
<!-- coreutils&#45;single -->
<g id="node22" class="node">
<title>coreutils&#45;single</title>
<text text-anchor="middle" x="240.57" y="-118.5" font-family="Helvetica,sans-Serif" font-weight="bold" font-size="22.00" fill="#cc0066">coreutils&#45;single (1.5 MB)</text>
</g>
</g>

<script type="text/javascript"><![CDATA[

document.addEventListener('click', function(e) {
      e = e || window.event;
      var target = e.target || e.srcElement;
      text = target.parentElement.querySelector("title").textContent;

      console.log("Clicked on: " + text);
      // reset all strokes
      var nodes = document.getElementsByClassName("edge");

      for (index = 0, len = nodes.length; index < len; ++index) {
          //var title = nodes[index].querySelector("title").textContent.split("->");
          id = nodes[index].id;
          document.getElementById(id).querySelector("path").setAttribute("stroke-width", "1");
          document.getElementById(id).querySelector("path").setAttribute("stroke-opacity", "0.5");
          document.getElementById(id).querySelector("path").setAttribute("stroke", "#444444");
          document.getElementById(id).querySelector("polygon").setAttribute("stroke-width", "1");
          document.getElementById(id).querySelector("polygon").setAttribute("stroke-opacity", "0.5");
          document.getElementById(id).querySelector("polygon").setAttribute("stroke", "#444444");
      }
      // reset text highlight
      pkgs = document.getElementsByClassName("node");
      for (index2 = 0, len2 = pkgs.length; index2 < len2; ++index2) {
          target_id = pkgs[index2].id;
          document.getElementById(target_id).querySelector("text").setAttribute("font-weight", "normal");
      }

      // highlight deps
      var nodes = document.getElementsByClassName("edge");
      for (index = 0, len = nodes.length; index < len; ++index) {
        var title = nodes[index].querySelector("title").textContent.split("->");

        if (title[0] == text) {
          id = nodes[index].id;
          //console.log("ID:   " + id);
          document.getElementById(id).querySelector("path").setAttribute("stroke-width", "3");
          document.getElementById(id).querySelector("path").setAttribute("stroke-opacity", "1");
          document.getElementById(id).querySelector("path").setAttribute("stroke", "#aa3333");
          document.getElementById(id).querySelector("polygon").setAttribute("stroke-width", "5");
          document.getElementById(id).querySelector("polygon").setAttribute("stroke-opacity", "1");
          document.getElementById(id).querySelector("polygon").setAttribute("stroke", "#aa3333");

        }
        if (title[1] == text) {
          id = nodes[index].id;
          document.getElementById(id).querySelector("path").setAttribute("stroke-width", "3");
          document.getElementById(id).querySelector("path").setAttribute("stroke-opacity", "1");
          document.getElementById(id).querySelector("path").setAttribute("stroke", "#333377");
          document.getElementById(id).querySelector("polygon").setAttribute("stroke-width", "5");
          document.getElementById(id).querySelector("polygon").setAttribute("stroke-opacity", "1");
          document.getElementById(id).querySelector("polygon").setAttribute("stroke", "#333377");
        }

        if (title[0] == text || title[1] == text) {
          pkgs = document.getElementsByClassName("node");
          for (index2 = 0, len2 = pkgs.length; index2 < len2; ++index2) {
            var pkg_name = pkgs[index2].querySelector("title").textContent;
            if (pkg_name == title[0] || pkg_name == title[1]) {
              target_id = pkgs[index2].id;
              document.getElementById(target_id).querySelector("text").setAttribute("font-weight", "bold");
            }
          }
        }
      }


  }, false);

]]></script>


  <text
     
     id="text7664"
     y="19.384439"
     x="9.9055691"
     style="font-style:normal;font-weight:normal;font-size:12.49485588px;line-height:125%;font-family:sans-serif;letter-spacing:0px;word-spacing:0px;fill:#000000;fill-opacity:1;stroke:none;stroke-width:0.3123714px;stroke-linecap:butt;stroke-linejoin:miter;stroke-opacity:1"
     xml:space="preserve"><tspan
       style="font-size:12.00258541px;stroke-width:0.3123714px"
       y="19.384439"
       x="9.9055691"
       id="tspan7666"
       ><a href="report-base-definition--minimal-langpack-base-2--31.html"><tspan
   style="font-weight:bold;font-size:12.00258541px;fill:#0066ff;stroke-width:0.3123714px"
   id="tspan7668">Minimal Base 2</tspan></a> (Fedora 31)</tspan></text>
  <text
     xml:space="preserve"
     style="font-style:normal;font-weight:normal;font-size:11.85299969px;line-height:125%;font-family:sans-serif;letter-spacing:0px;word-spacing:0px;fill:#000000;fill-opacity:1;stroke:none;stroke-width:0.296325px;stroke-linecap:butt;stroke-linejoin:miter;stroke-opacity:1"
     x="9.9365959"
     y="36.915382"
     id="text8235"><tspan
       
       id="tspan8237"
       x="9.9365959"
       y="36.915382"
       style="font-size:10.80232716px;fill:#666666;stroke-width:0.296325px">Generated by <a href="./"><tspan
   style="fill:#3771c8"
   id="tspan8255">Feedback Pipeline</tspan></a></tspan></text>

</svg>
