<?xml version="1.0" encoding="UTF-8" standalone="no"?>
<!DOCTYPE svg PUBLIC "-//W3C//DTD SVG 1.1//EN"
 "http://www.w3.org/Graphics/SVG/1.1/DTD/svg11.dtd">
<!-- Generated by graphviz version 2.40.1 (0)
 -->
<!-- Title: packages Pages: 1 -->
<svg width="1271pt" height="1117pt"
 viewBox="0.00 0.00 1525.41 1340.43" xmlns="http://www.w3.org/2000/svg" xmlns:xlink="http://www.w3.org/1999/xlink">
<g id="graph0" class="graph" transform="scale(.8333 .8333) rotate(0) translate(122.5903 1205.0643)">
<title>packages</title>
<polygon fill="#dae2ff" stroke="transparent" points="-122.5903,135.3634 -122.5903,-1205.0643 1402.8202,-1205.0643 1402.8202,135.3634 -122.5903,135.3634"/>
<polygon fill="#bbd7d9" stroke="#bbd7d9" points="1398.8202,-735.0556 1396.3883,-729.3907 1353.5602,-623.392 1263.1595,-624.0894 1252.3799,-623.9194 1252.3699,-623.9194 1246.0515,-624.1362 1242.2236,-624.0874 1233.6152,-624.1932 1230.7379,-624.161 1228.2583,-624.0166 1222.4042,-624.115 1220.1287,-624.0463 1206.6967,-624.3134 1201.9905,-624.1858 1200.5313,-624.2191 1133.4261,-622.6047 1088.5039,-577.0569 1021.0999,-577.1849 1020.1033,-626.1885 1020.1033,-626.1885 1021.0999,-577.1849 1018.5527,-577.073 1014.799,-577.1708 1002.2391,-577.2097 1001.9399,-577.1968 1000.2637,-577.2034 994.662,-577.0964 988.389,-577.1232 988.1349,-577.1126 978.8677,-576.943 978.3946,-576.9564 975.9034,-576.9129 968.9581,-577.1159 965.6948,-577.2877 952.4828,-577.0718 951.7296,-577.0422 943.928,-577.2823 940.8997,-577.306 934.7355,-577.6417 926.2837,-578.2991 920.927,-578.9659 915.8416,-572.4871 913.5771,-569.8752 905.6017,-560.1031 897.7021,-551.4478 886.0211,-539.4082 879.2594,-532.9165 830.7411,-477.122 808.0127,-453.5594 802.3104,-447.2478 800.0594,-444.2485 782.1655,-423.487 767.161,-403.328 765.2238,-400.6129 756.3607,-387.0935 754.892,-387.5448 735.9514,-392.2649 728.1423,-393.9055 719.2621,-395.4253 703.8149,-397.4686 696.9129,-397.9781 686.5548,-398.5413 684.2294,-398.5772 668.0302,-399.1344 667.8946,-399.1416 666.7872,-399.2217 653.5188,-399.9213 651.3976,-400.1133 649.8084,-400.2872 624.2665,-512.4044 622.1754,-530.3694 621.8455,-535.9028 620.6375,-546.3343 601.6228,-629.8002 629.2486,-636.015 644.6056,-639.0186 650.658,-640.0206 661.8708,-641.2053 664.0578,-641.3706 669.2797,-641.6091 677.0718,-641.7316 680.0129,-641.6897 682.3449,-641.7928 689.9878,-641.9014 694.8759,-641.6782 695.0833,-641.6808 696.7745,-641.6517 700.0132,-585.0639 700.0132,-585.0639 696.7745,-641.6517 706.5884,-642.0561 712.1495,-642.1183 717.1686,-642.321 729.9033,-643.5786 737.6644,-644.7966 749.2349,-647.2886 757.7917,-649.3795 765.4532,-651.9197 779.4021,-657.3721 792.4335,-663.2311 801.869,-668.0216 817.7013,-676.9838 820.4855,-678.6381 822.0977,-688.8348 831.5402,-698.2119 845.261,-710.6297 849.9236,-715.3765 850.4788,-715.8834 866.1011,-728.6602 875.6706,-735.5312 945.6512,-782.2415 958.2151,-791.2441 966.4926,-797.5558 968.0577,-798.819 968.1056,-764.1937 968.1056,-764.1937 968.0577,-798.819 969.4577,-800.0804 976.5718,-806.845 977.2877,-807.4482 982.1286,-806.4291 990.4174,-805.1165 1002.7211,-803.4893 995.4284,-696.7979 995.4938,-696.7059 991.8233,-693.7485 991.8233,-693.7485 995.4938,-696.7059 995.4284,-696.7979 1002.7211,-803.4893 1005.3106,-803.215 1009.14,-803.0095 1012.4912,-732.9273 1010.8481,-696.4977 1006.7536,-696.4977 1006.7536,-696.4977 1010.8481,-696.4977 1012.4912,-732.9273 1009.14,-803.0095 1014.2072,-803.0018 1027.2826,-802.6381 1032.2657,-802.6301 1041.0476,-801.9249 1053.4396,-800.6044 1065.3773,-798.395 1070.5369,-797.1699 1080.3319,-794.5862 1083.4006,-793.6159 1092.642,-790.4482 1092.8368,-790.5865 1105.866,-799.3848 1200.4619,-853.305 1202.9718,-854.8218 1215.0266,-862.9622 1229.1536,-873.4938 1233.6931,-877.1888 1237.28,-880.3636 1255.6163,-897.2651 1252.245,-774.6754 1247.8274,-743.5983 1244.339,-743.5983 1242.6293,-743.0982 1239.4617,-743.0982 1239.1338,-743.004 1234.7656,-743.004 1233.8632,-741.9838 1228.2211,-738.7202 1223.5044,-738.7202 1223.5044,-738.7202 1228.2211,-738.7202 1233.8632,-741.9838 1234.7656,-743.004 1239.1338,-743.004 1239.4617,-743.0982 1242.6293,-743.0982 1244.339,-743.5983 1247.8274,-743.5983 1252.245,-774.6754 1255.6163,-897.2651 1258.3538,-899.9749 1308.6122,-873.6963 1344.9229,-846.9747 1390.8616,-750.0683 1398.8202,-735.0556 1398.8202,-735.0556"/>
<polygon fill="#d8d6da" stroke="#d8d6da" points="360.1302,-866.504 367.4443,-858.3463 378.5126,-844.7683 421.1732,-785.92 438.0637,-768.6031 444.2066,-761.3622 461.3618,-738.3142 479.1852,-710.1656 483.1014,-703.6984 484.5717,-701.0478 488.3781,-699.7245 490.7285,-698.8583 508.193,-720.6301 530.5139,-749.8478 564.8308,-800.5615 607.9745,-810.2231 615.1293,-811.5223 624.5228,-812.828 627.6136,-812.9941 635.9865,-813.0887 636.1928,-813.0822 641.5291,-813.1429 645.4911,-813.0191 648.9282,-813.0585 650.4749,-813.1421 652.5068,-813.1655 654.006,-813.2466 660.0123,-813.0604 666.6877,-813.4241 675.1969,-813.1612 676.8985,-813.1813 690.629,-814.5154 699.2917,-816.093 721.1247,-821.9319 733.8065,-805.6205 765.4661,-760.5303 790.608,-728.2971 791.7756,-727.0004 803.1582,-713.5481 817.9608,-695.0739 822.0977,-688.8348 831.5402,-698.2119 845.261,-710.6297 849.9236,-715.3765 850.4788,-715.8834 866.1011,-728.6602 875.6706,-735.5312 945.6512,-782.2415 958.2151,-791.2441 966.4926,-797.5558 968.0577,-798.819 969.4577,-800.0804 976.5718,-806.845 977.2877,-807.4482 982.1286,-806.4291 990.4174,-805.1165 1002.7211,-803.4893 1005.3106,-803.215 1009.14,-803.0095 1014.2072,-803.0018 1027.2826,-802.6381 1032.2657,-802.6301 1041.0476,-801.9249 1053.4396,-800.6044 1065.3773,-798.395 1070.5369,-797.1699 1080.3319,-794.5862 1083.4006,-793.6159 1092.642,-790.4482 1092.8368,-790.5865 1105.866,-799.3848 1200.4619,-853.305 1202.9718,-854.8218 1215.0266,-862.9622 1229.1536,-873.4938 1233.6931,-877.1888 1237.28,-880.3636 1255.6163,-897.2651 1258.3538,-899.9749 1255.5004,-908.91 1210.3511,-908.91 1210.3511,-908.91 1255.5004,-908.91 1235.4248,-988.5111 1233.9077,-989.976 1144.8234,-1037.0442 1118.5328,-1047.1549 1107.3157,-1045.4707 1100.7216,-1044.6146 1092.0172,-1043.8379 1081.4872,-1043.3252 1065.0746,-1043.1926 1056.5186,-1043.8187 1045.1024,-1044.887 1035.8317,-1046.1315 1024.5953,-1047.8682 1022.2964,-1048.2698 978.9777,-1057.5907 970.2136,-1043.3262 938.611,-986.2802 911.7474,-934.218 871.5941,-925.3974 868.1883,-924.7502 866.3069,-924.4481 861.5461,-923.8235 852.1984,-922.872 840.295,-922.0126 834.1398,-922.1144 833.4872,-922.1063 830.375,-826.08 835.4302,-827.5389 835.4302,-827.5389 830.375,-826.08 833.4872,-922.1063 833.3697,-922.1084 825.5084,-922.0148 821.1382,-921.8356 814.0897,-921.9646 808.2851,-921.9022 808.7692,-909.8247 808.7692,-909.8247 808.2851,-921.9022 806.8146,-921.9733 802.7988,-921.9349 796.7605,-922.2333 796.6422,-922.2358 793.1445,-922.2063 780.6002,-921.3738 767.1525,-919.7005 761.7333,-918.87 689.4827,-978.1974 667.4203,-974.0609 655.3383,-972.6292 658.2048,-885.5686 658.8713,-885.3666 661.6445,-885.3666 661.6445,-885.3666 658.8713,-885.3666 658.2048,-885.5686 655.3383,-972.6292 652.523,-972.3933 646.2733,-972.0857 638.1218,-972.2486 631.0966,-971.9133 630.5995,-971.924 629.3202,-971.9083 625.2042,-972.0006 619.7092,-885.5652 625.2475,-885.5652 625.9281,-885.3572 630.0621,-885.3572 630.6879,-886.113 636.8956,-889.9631 641.425,-889.9631 641.425,-889.9631 636.8956,-889.9631 630.6879,-886.113 630.0621,-885.3572 625.9281,-885.3572 625.2475,-885.5652 619.7092,-885.5652 625.2042,-972.0006 619.7825,-972.3108 618.8619,-972.3322 608.7123,-971.8792 608.5925,-971.878 604.2728,-971.9853 601.2259,-971.9578 595.246,-971.702 586.4955,-970.7364 571.3857,-968.0435 529.4039,-957.7418 495.028,-972.0663 476.9605,-980.142 478.8064,-924.7316 478.8064,-924.7316 476.9605,-980.142 472.4729,-982.4088 470.5923,-983.4141 463.2826,-987.5413 451.3779,-994.617 434.0133,-1006.4818 406.7878,-1026.6675 369.8909,-1011.6048 299.2534,-956.157 306.4954,-942.3596 317.8243,-922.4716 332.0596,-900.6211 336.3625,-894.9526 354.5121,-872.2639 360.1302,-866.504 360.1302,-866.504"/>
<polygon fill="#fed9a6" stroke="#fed9a6" points="686.5548,-398.5413 684.2294,-398.5772 668.0302,-399.1344 667.8946,-399.1416 666.7872,-399.2217 653.5188,-399.9213 656.0388,-279.6335 660.5536,-254.9555 660.3446,-254.8961 655.7912,-226.3804 654.3943,-179.0415 644.7745,-181.8186 639.7812,-182.8394 638.4272,-250.0838 633.4749,-251.4876 629.2547,-255.1002 632.9214,-258.1174 632.9214,-258.1174 629.2547,-255.1002 633.4749,-251.4876 638.4272,-250.0838 639.7812,-182.8394 644.7745,-181.8186 654.3943,-179.0415 655.7912,-226.3804 660.3446,-254.8961 660.5536,-254.9555 656.0388,-279.6335 653.5188,-399.9213 651.3976,-400.1133 649.8084,-400.2872 624.2665,-512.4044 622.1754,-530.3694 621.8455,-535.9028 620.6375,-546.3343 601.6228,-629.8002 575.2839,-638.3662 557.3768,-644.6519 553.5884,-646.0757 550.9899,-647.1171 544.0723,-650.0629 543.286,-558.1958 546.1805,-519.5394 547.0614,-518.5562 544.9633,-516.1696 541.1014,-514.08 535.1027,-514.08 536.7696,-481.9726 533.665,-407.1613 533.2017,-378.9194 519.7197,-393.3214 517.5302,-395.4627 510.4843,-402.05 430.5632,-402.05 401.2,-395.6882 397.2821,-351.3857 398.7083,-308.0314 382.469,-320.3883 373.8282,-326.0546 362.2312,-332.457 362.809,-378.4697 359.4701,-399.1896 356.703,-401.4337 356.1668,-402.226 360.0061,-405.3417 360.0061,-405.3417 356.1668,-402.226 356.703,-401.4337 359.4701,-399.1896 362.809,-378.4697 362.2312,-332.457 373.8282,-326.0546 382.469,-320.3883 398.7083,-308.0314 397.2821,-351.3857 401.2,-395.6882 430.5632,-402.05 510.4843,-402.05 507.8273,-404.9888 507.8273,-404.9888 510.4843,-402.05 517.5302,-395.4627 519.7197,-393.3214 533.2017,-378.9194 533.665,-407.1613 536.7696,-481.9726 535.1027,-514.08 541.1014,-514.08 544.9633,-516.1696 547.0614,-518.5562 546.1805,-519.5394 540.0577,-523.1054 535.684,-523.1054 529.6226,-519.6035 528.6142,-518.4863 526.144,-518.4863 526.144,-518.4863 528.6142,-518.4863 529.6226,-519.6035 535.684,-523.1054 540.0577,-523.1054 546.1805,-519.5394 543.286,-558.1958 544.0723,-650.0629 532.5393,-655.5553 524.7258,-659.6682 509.1827,-668.6372 490.7285,-698.8583 488.3781,-699.7245 484.5717,-701.0478 483.1014,-703.6984 479.1852,-710.1656 461.3618,-738.3142 444.2066,-761.3622 438.0637,-768.6031 421.1732,-785.92 378.5126,-844.7683 367.4443,-858.3463 360.1302,-866.504 354.5121,-872.2639 336.3625,-894.9526 342.6216,-786.0928 343.1621,-785.9428 345.8807,-785.9428 352.5057,-832.7884 352.5057,-832.7884 345.8807,-785.9428 343.1621,-785.9428 342.6216,-786.0928 336.3625,-894.9526 332.0596,-900.6211 317.8243,-922.4716 317.2777,-856.8796 317.2207,-855.7203 316.7219,-789.2143 322.1337,-790.7722 326.3206,-789.6158 330.614,-785.8264 326.3629,-782.1541 322.3366,-781.0585 322.3366,-781.0585 326.3629,-782.1541 330.614,-785.8264 326.3206,-789.6158 322.1337,-790.7722 316.7219,-789.2143 317.2207,-855.7203 317.2777,-856.8796 317.8243,-922.4716 306.4954,-942.3596 299.2534,-956.157 288.9297,-954.2703 281.8787,-953.2125 192.5697,-941.2725 186.2392,-937.9827 170.6385,-884.9558 162.1604,-792.5887 159.2986,-772.4097 157.2166,-759.9058 103.6211,-715.4344 52.7759,-655.2952 46.4351,-654.4604 40.6474,-653.8101 24.2883,-652.6028 17.9927,-652.3817 -63.1573,-601.0093 -94.7522,-564.9023 -102.7764,-525.6122 23.6523,-511.525 26.121,-541.6169 30.2458,-505.77 33.1738,-505.77 33.6622,-506.3356 33.6622,-506.3356 33.1738,-505.77 33.5227,-505.3712 40.0913,-501.3447 45.271,-501.3447 50.0054,-504.1074 51.4169,-505.8189 54.8841,-505.8189 55.7575,-506.5756 55.7575,-506.5756 54.8841,-505.8189 51.4169,-505.8189 50.0054,-504.1074 45.271,-501.3447 40.0913,-501.3447 33.5227,-505.3712 33.1738,-505.77 30.2458,-505.77 26.121,-541.6169 23.6523,-511.525 -102.7764,-525.6122 -103.3107,-523.285 -118.2559,-464.7552 -118.5903,-463.5544 -83.4411,-421.4626 15.1363,-369.0379 20.0671,-366.2825 30.9405,-365.0266 41.2567,-363.6233 41.7997,-363.5273 50.7071,-361.7677 52.5499,-464.5342 56.4145,-503.1181 60.9307,-499.6333 92.061,-501.9957 183.8101,-499.2749 188.9027,-493.9198 195.0892,-621.6801 199.7152,-624.9094 199.7152,-624.9094 195.0892,-621.6801 188.9027,-493.9198 203.4458,-477.9565 206.1476,-479.6456 217.8402,-486.0504 222.0538,-495.0038 222.4258,-495.7132 231.7364,-512.5668 232.4642,-624.6298 237.4948,-623.163 237.4948,-623.163 232.4642,-624.6298 231.7364,-512.5668 242.7404,-531.353 246.6236,-537.1418 257.4969,-552.26 274.3469,-570.5831 273.2952,-599.2084 268.3776,-627.9816 265.5334,-627.9816 265.5334,-627.9816 268.3776,-627.9816 273.2952,-599.2084 274.3469,-570.5831 257.4969,-552.26 246.6236,-537.1418 242.7404,-531.353 231.7364,-512.5668 222.4258,-495.7132 222.0538,-495.0038 217.8402,-486.0504 325.0834,-489.2724 325.4199,-570.0739 325.4199,-570.0739 325.0834,-489.2724 217.8402,-486.0504 206.1476,-479.6456 203.4458,-477.9565 182.4602,-413.4266 204.1725,-402.05 245.9986,-402.05 329.9683,-408.2135 334.7338,-404.4407 335.4751,-403.142 337.2815,-401.7693 335.6286,-399.3924 335.6286,-399.3924 337.2815,-401.7693 335.4751,-403.142 334.7338,-404.4407 329.9683,-408.2135 245.9986,-402.05 204.1725,-402.05 182.4602,-413.4266 203.4458,-477.9565 188.9027,-493.9198 183.8101,-499.2749 92.061,-501.9957 60.9307,-499.6333 56.4145,-503.1181 52.5499,-464.5342 50.7071,-361.7677 68.8238,-357.4415 115.1208,-345.4483 127.6518,-286.51 134.9675,-236.4072 203.5952,-176.2468 274.3373,-146.7717 274.5974,-146.6443 282.4063,-156.0209 285.5937,-283.0046 281.5383,-286.545 281.1218,-286.545 274.9398,-228.973 274.9398,-228.973 281.1218,-286.545 281.5383,-286.545 285.5937,-283.0046 290.6653,-281.55 295.5693,-282.9691 299.529,-286.5773 302.135,-286.5773 302.1808,-286.5907 304.2788,-286.5907 304.2788,-286.5907 302.1808,-286.5907 302.135,-286.5773 299.529,-286.5773 295.5693,-282.9691 290.6653,-281.55 285.5937,-283.0046 282.4063,-156.0209 274.5974,-146.6443 319.3087,-61.5574 366.466,-34.6839 390.6955,-26.4723 412.0813,-18.8139 412.1058,-18.8047 420.8321,-8.7734 468.6589,18.7586 550.4664,35.2758 558.6216,37.3841 563.6667,38.784 570.7629,38.8212 582.1884,39.2816 582.3999,39.2417 582.9688,-64.4432 583.9394,-79.0758 583.0783,-110.8236 589.6252,-114.6596 589.8837,-114.9364 588.7589,-116.2185 582.4223,-119.9655 578.4265,-119.9655 572.5515,-116.7114 571.4448,-115.5275 568.3813,-115.5275 567.0284,-115.149 563.4905,-115.149 563.1846,-115.0644 558.3189,-115.0644 550.5562,29.759 550.3743,-46.5046 550.3743,-46.5046 550.5562,29.759 558.3189,-115.0644 563.1846,-115.0644 563.4905,-115.149 558.649,-191.6406 557.8669,-175.9248 552.2668,-119.3531 547.9316,-121.7328 537.9398,-119.1754 489.508,-126.5053 472.7895,-107.7846 466.4088,-180.9748 461.466,-184.1222 461.4009,-94.0446 455.3898,-86.3177 451.6229,-81.1821 448.5119,-77.2164 440.819,-66.8727 442.3525,-136.0276 440.4781,-183.9289 435.7482,-182.57 435.7482,-182.57 440.4781,-183.9289 442.3525,-136.0276 440.819,-66.8727 448.5119,-77.2164 451.6229,-81.1821 455.3898,-86.3177 461.4009,-94.0446 461.466,-184.1222 466.4088,-180.9748 472.7895,-107.7846 489.508,-126.5053 537.9398,-119.1754 547.9316,-121.7328 552.2668,-119.3531 557.8669,-175.9248 558.649,-191.6406 563.4905,-115.149 567.0284,-115.149 568.3813,-115.5275 571.4448,-115.5275 572.5515,-116.7114 578.4265,-119.9655 582.4223,-119.9655 588.7589,-116.2185 589.8837,-114.9364 589.6252,-114.6596 583.0783,-110.8236 583.9394,-79.0758 582.9688,-64.4432 582.3999,39.2417 598.2762,37.0987 610.8766,35.8509 612.1672,35.7695 701.99,31.7121 718.8801,28.4801 733.7179,-12.4099 736.5739,-20.7989 740.3446,-33.5513 700.3784,-115.22 681.293,-167.7248 687.6185,-175.2007 699.0168,-189.8803 739.8405,-254.92 763.4138,-282.7805 767.8618,-288.3622 770.1714,-291.431 783.9335,-311.9163 799.4738,-337.4272 756.3607,-387.0935 754.892,-387.5448 735.9514,-392.2649 728.1423,-393.9055 719.2621,-395.4253 703.8149,-397.4686 696.9129,-397.9781 686.5548,-398.5413 686.5548,-398.5413"/>
<polygon fill="#fbb4ae" stroke="#fbb4ae" points="765.4661,-760.5303 790.608,-728.2971 791.7756,-727.0004 803.1582,-713.5481 817.9608,-695.0739 822.0977,-688.8348 820.4855,-678.6381 817.7013,-676.9838 801.869,-668.0216 792.4335,-663.2311 779.4021,-657.3721 765.4532,-651.9197 757.7917,-649.3795 749.2349,-647.2886 737.6644,-644.7966 729.9033,-643.5786 717.1686,-642.321 712.1495,-642.1183 706.5884,-642.0561 696.7745,-641.6517 695.0833,-641.6808 694.8759,-641.6782 689.9878,-641.9014 682.3449,-641.7928 680.0129,-641.6897 677.0718,-641.7316 669.2797,-641.6091 664.0578,-641.3706 661.8708,-641.2053 650.658,-640.0206 644.6056,-639.0186 629.2486,-636.015 601.6228,-629.8002 575.2839,-638.3662 557.3768,-644.6519 553.5884,-646.0757 550.9899,-647.1171 544.0723,-650.0629 532.5393,-655.5553 524.7258,-659.6682 509.1827,-668.6372 490.7285,-698.8583 508.193,-720.6301 530.5139,-749.8478 564.8308,-800.5615 607.9745,-810.2231 615.1293,-811.5223 624.5228,-812.828 627.6136,-812.9941 635.9865,-813.0887 636.1928,-813.0822 641.5291,-813.1429 645.4911,-813.0191 648.9282,-813.0585 650.4749,-813.1421 652.5068,-813.1655 654.006,-813.2466 660.0123,-813.0604 666.6877,-813.4241 675.1969,-813.1612 676.8985,-813.1813 690.629,-814.5154 699.2917,-816.093 721.1247,-821.9319 733.8065,-805.6205 765.4661,-760.5303 765.4661,-760.5303"/>
<polygon fill="#bbd7d9" stroke="#bbd7d9" points="770.1714,-291.431 767.8618,-288.3622 763.4138,-282.7805 739.8405,-254.92 699.0168,-189.8803 687.6185,-175.2007 681.293,-167.7248 700.3784,-115.22 740.3446,-33.5513 736.5739,-20.7989 863.1166,-20.9714 863.1166,-20.9714 736.5739,-20.7989 733.7179,-12.4099 718.8801,28.4801 748.2016,59.3137 789.8741,85.5833 878.8044,114.8729 897.4771,121.4786 916.287,129.4823 920.075,131.3634 923.5143,130.6802 934.5598,128.9283 951.132,126.6328 973.9998,123.9293 1005.1335,101.0344 1028.1754,81.3348 1059.1931,28.4949 1068.4688,-1.5462 1087.8845,-55.1126 1090.2615,-61.2662 1082.0686,-67.8544 1078.4526,-70.6532 1074.2019,-73.6939 957.6534,-153.7128 953.4776,-181.2697 952.9601,-186.3778 952.1125,-193.0396 947.3726,-239.5575 938.3407,-299.1596 934.5967,-300.6871 918.913,-306.4559 909.6766,-309.4771 904.2698,-311.1353 892.7532,-314.1996 829.2867,-328.505 826.869,-329.0995 805.0411,-335.3713 802.2625,-336.3393 799.4738,-337.4272 783.9335,-311.9163 784.926,-222.2055 788.5645,-187.4614 792.4465,-189.5995 798.4246,-189.5995 803.0526,-186.9128 804.5944,-185.0576 803.9485,-184.3052 798.0441,-180.7435 793.1921,-180.7435 793.1921,-180.7435 798.0441,-180.7435 803.9485,-184.3052 804.5944,-185.0576 803.0526,-186.9128 798.4246,-189.5995 792.4465,-189.5995 788.5645,-187.4614 784.926,-222.2055 783.9335,-311.9163 770.1714,-291.431 770.1714,-291.431"/>
<polygon fill="#fbb4ae" stroke="#fbb4ae" points="897.7021,-551.4478 886.0211,-539.4082 879.2594,-532.9165 830.7411,-477.122 808.0127,-453.5594 802.3104,-447.2478 800.0594,-444.2485 782.1655,-423.487 767.161,-403.328 765.2238,-400.6129 756.3607,-387.0935 799.4738,-337.4272 802.2625,-336.3393 805.0411,-335.3713 826.869,-329.0995 829.2867,-328.505 892.7532,-314.1996 904.2698,-311.1353 909.6766,-309.4771 918.913,-306.4559 934.5967,-300.6871 938.3407,-299.1596 939.7756,-300.0477 956.1409,-309.4065 959.1291,-310.9715 964.514,-313.6646 977.3976,-319.5044 988.4039,-323.9728 991.9993,-325.3467 1003.0554,-329.0501 1003.0554,-329.0501 991.9993,-325.3467 988.4039,-323.9728 977.3976,-319.5044 964.514,-313.6646 959.1291,-310.9715 956.1409,-309.4065 939.7756,-300.0477 938.3407,-299.1596 947.3726,-239.5575 952.1125,-193.0396 952.9601,-186.3778 953.4776,-181.2697 957.6534,-153.7128 1074.2019,-73.6939 1078.4526,-70.6532 1082.0686,-67.8544 1089.9606,-219.4265 1088.5486,-221.0673 1090.5436,-223.5487 1086.4967,-251.9806 1085.5054,-304.4488 1074.9468,-313.3559 1071.3022,-316.8562 1055.0929,-331.3738 1045.8339,-339.189 1025.7621,-334.8337 1020.8002,-451.357 1016.3716,-454.6137 1016.3716,-454.6137 1020.8002,-451.357 1025.7621,-334.8337 1045.8339,-339.189 1055.0929,-331.3738 1071.3022,-316.8562 1160.382,-324.0357 1160.1141,-268.545 1164.8461,-266.5202 1174.4351,-261.8471 1174.1731,-282.8417 1174.1731,-282.8417 1174.4351,-261.8471 1164.8461,-266.5202 1160.1141,-268.545 1160.382,-324.0357 1071.3022,-316.8562 1074.9468,-313.3559 1085.5054,-304.4488 1086.4967,-251.9806 1090.5436,-223.5487 1094.6846,-225.9146 1094.6846,-225.9146 1090.5436,-223.5487 1088.5486,-221.0673 1089.9606,-219.4265 1082.0686,-67.8544 1090.2615,-61.2662 1102.7057,-65.0535 1107.0317,-66.1163 1123.8599,-69.9246 1170.59,-78.6683 1251.5957,-127.4148 1265.9561,-183.1498 1351.3745,-269.4461 1344.572,-315.7596 1340.5513,-357.1551 1337.7488,-396.298 1392.5195,-476.7213 1387.0701,-497.2922 1275.8253,-501.2756 1252.5272,-498.7678 1252.5272,-498.7678 1275.8253,-501.2756 1387.0701,-497.2922 1382.1281,-520.0917 1367.7701,-594.828 1353.5602,-623.392 1263.1595,-624.0894 1252.3799,-623.9194 1252.3699,-623.9194 1246.0515,-624.1362 1242.2236,-624.0874 1233.6152,-624.1932 1230.7379,-624.161 1228.2583,-624.0166 1222.4042,-624.115 1220.1287,-624.0463 1206.6967,-624.3134 1201.9905,-624.1858 1200.5313,-624.2191 1133.4261,-622.6047 1088.5039,-577.0569 1021.0999,-577.1849 1018.5527,-577.073 1014.799,-577.1708 1002.2391,-577.2097 1001.9399,-577.1968 1000.2637,-577.2034 994.662,-577.0964 988.389,-577.1232 988.1349,-577.1126 978.8677,-576.943 978.3946,-576.9564 975.9034,-576.9129 968.9581,-577.1159 965.6948,-577.2877 952.4828,-577.0718 951.7296,-577.0422 952.9099,-517.7742 959.6487,-462.0104 963.9193,-459.6847 965.4712,-457.954 963.7368,-455.8544 959.0752,-453.1489 953.9886,-453.1489 953.9886,-453.1489 959.0752,-453.1489 963.7368,-455.8544 965.4712,-457.954 963.9193,-459.6847 959.6487,-462.0104 952.9099,-517.7742 951.7296,-577.0422 943.928,-577.2823 940.8997,-577.306 941.0073,-491.65 944.5407,-457.5492 944.4418,-457.5206 944.4418,-457.5206 944.5407,-457.5492 941.0073,-491.65 940.8997,-577.306 934.7355,-577.6417 926.2837,-578.2991 920.927,-578.9659 915.8416,-572.4871 913.5771,-569.8752 905.6017,-560.1031 897.7021,-551.4478 897.7021,-551.4478"/>
<polygon fill="#fbb4ae" stroke="#fbb4ae" points="970.2136,-1043.3262 938.611,-986.2802 911.7474,-934.218 871.5941,-925.3974 868.1883,-924.7502 866.3069,-924.4481 861.5461,-923.8235 852.1984,-922.872 840.295,-922.0126 834.1398,-922.1144 833.4872,-922.1063 833.3697,-922.1084 825.5084,-922.0148 821.1382,-921.8356 814.0897,-921.9646 808.2851,-921.9022 806.8146,-921.9733 802.7988,-921.9349 796.7605,-922.2333 796.6422,-922.2358 793.1445,-922.2063 780.6002,-921.3738 767.1525,-919.7005 761.7333,-918.87 689.4827,-978.1974 667.4203,-974.0609 655.3383,-972.6292 652.523,-972.3933 646.2733,-972.0857 638.1218,-972.2486 637.6121,-1005.9645 639.695,-1052.5911 639.695,-1052.5911 637.6121,-1005.9645 638.1218,-972.2486 631.0966,-971.9133 630.5995,-971.924 629.3202,-971.9083 625.2042,-972.0006 619.7825,-972.3108 618.8619,-972.3322 608.7123,-971.8792 608.5925,-971.878 604.2728,-971.9853 601.2259,-971.9578 595.246,-971.702 586.4955,-970.7364 571.3857,-968.0435 529.4039,-957.7418 495.028,-972.0663 476.9605,-980.142 472.4729,-982.4088 470.5923,-983.4141 463.2826,-987.5413 451.3779,-994.617 434.0133,-1006.4818 406.7878,-1026.6675 420.4988,-1058.8 457.3455,-1162.0907 557.7079,-1198.1091 570.9542,-1198.3739 572.5721,-1127.9069 571.2688,-1065.0613 571.2688,-1065.0613 572.5721,-1127.9069 570.9542,-1198.3739 579.1425,-1198.8676 585.1089,-1199.3475 593.2121,-1200.163 600.6765,-1201.0643 603.4237,-1200.4207 606.1823,-1199.8885 613.4999,-1198.6277 632.0315,-1196.1968 633.6085,-1196.0226 637.5382,-1195.751 704.6417,-1192.4922 738.6201,-1181.2036 743.4011,-1177.3911 774.4715,-1170.5481 791.8392,-1167.7299 795.9872,-1167.2179 807.6069,-1166.2328 807.9387,-1166.2111 827.7676,-1165.298 826.7309,-1135.0696 817.144,-1021.395 813.3676,-1021.395 807.6559,-945.3315 807.4338,-1018.0231 811.3527,-1021.4999 807.4442,-1024.8175 802.6873,-1026.1626 796.6343,-1024.3328 793.4228,-1021.5247 791.9926,-1021.5247 791.7896,-1021.4635 785.942,-1021.4635 785.7126,-1021.3956 781.7743,-1021.3956 781.6291,-1021.3531 781.6291,-1021.3531 781.7743,-1021.3956 785.7126,-1021.3956 785.942,-1021.4635 791.7896,-1021.4635 791.9926,-1021.5247 793.4228,-1021.5247 796.6343,-1024.3328 802.6873,-1026.1626 807.4442,-1024.8175 811.3527,-1021.4999 807.4338,-1018.0231 807.6559,-945.3315 813.3676,-1021.395 817.144,-1021.395 826.7309,-1135.0696 827.7676,-1165.298 830.7275,-1165.3337 857.7195,-1166.1832 927.0053,-1146.7255 978.9777,-1057.5907 970.2136,-1043.3262 970.2136,-1043.3262"/>
<polyline fill="none" stroke="#000000" points="737.6644,-644.7966 749.2349,-647.2886 757.7917,-649.3795 765.4532,-651.9197 779.4021,-657.3721 792.4335,-663.2311 801.869,-668.0216 817.7013,-676.9838 820.4855,-678.6381 822.0977,-688.8348 831.5402,-698.2119 845.261,-710.6297 849.9236,-715.3765 850.4788,-715.8834 866.1011,-728.6602 875.6706,-735.5312 945.6512,-782.2415 958.2151,-791.2441 966.4926,-797.5558 968.0577,-798.819 969.4577,-800.0804 976.5718,-806.845 977.2877,-807.4482 982.1286,-806.4291 990.4174,-805.1165 1002.7211,-803.4893 1005.3106,-803.215 1009.14,-803.0095 1014.2072,-803.0018 1027.2826,-802.6381 1032.2657,-802.6301 1041.0476,-801.9249 1053.4396,-800.6044 1065.3773,-798.395 1070.5369,-797.1699 1080.3319,-794.5862 1083.4006,-793.6159 1092.642,-790.4482 1092.8368,-790.5865 1105.866,-799.3848 1200.4619,-853.305 1202.9718,-854.8218 1215.0266,-862.9622 1229.1536,-873.4938 1233.6931,-877.1888 1237.28,-880.3636 1255.6163,-897.2651 1258.3538,-899.9749 1308.6122,-873.6963 1344.9229,-846.9747 1390.8616,-750.0683 1398.8202,-735.0556 1396.3883,-729.3907 1353.5602,-623.392 1263.1595,-624.0894 1252.3799,-623.9194 1252.3699,-623.9194 1246.0515,-624.1362 1242.2236,-624.0874 1233.6152,-624.1932 1230.7379,-624.161 1228.2583,-624.0166 1222.4042,-624.115 1220.1287,-624.0463 1206.6967,-624.3134 1201.9905,-624.1858 1200.5313,-624.2191 1133.4261,-622.6047 1088.5039,-577.0569 1021.0999,-577.1849 1018.5527,-577.073 1014.799,-577.1708 1002.2391,-577.2097 1001.9399,-577.1968 1000.2637,-577.2034 994.662,-577.0964 988.389,-577.1232 988.1349,-577.1126 978.8677,-576.943 978.3946,-576.9564 975.9034,-576.9129 968.9581,-577.1159 965.6948,-577.2877 952.4828,-577.0718 951.7296,-577.0422 943.928,-577.2823 940.8997,-577.306 934.7355,-577.6417 926.2837,-578.2991 920.927,-578.9659 915.8416,-572.4871 913.5771,-569.8752 905.6017,-560.1031 897.7021,-551.4478 886.0211,-539.4082 879.2594,-532.9165 830.7411,-477.122 808.0127,-453.5594 802.3104,-447.2478 800.0594,-444.2485 782.1655,-423.487 767.161,-403.328 765.2238,-400.6129 756.3607,-387.0935 754.892,-387.5448 735.9514,-392.2649 728.1423,-393.9055 719.2621,-395.4253 703.8149,-397.4686 696.9129,-397.9781 686.5548,-398.5413 684.2294,-398.5772 668.0302,-399.1344 667.8946,-399.1416 666.7872,-399.2217 653.5188,-399.9213 651.3976,-400.1133 649.8084,-400.2872 624.2665,-512.4044 622.1754,-530.3694 621.8455,-535.9028 620.6375,-546.3343 601.6228,-629.8002 629.2486,-636.015 644.6056,-639.0186 650.658,-640.0206 661.8708,-641.2053 664.0578,-641.3706 669.2797,-641.6091 677.0718,-641.7316 680.0129,-641.6897 682.3449,-641.7928 689.9878,-641.9014 694.8759,-641.6782 695.0833,-641.6808 696.7745,-641.6517 706.5884,-642.0561 712.1495,-642.1183 717.1686,-642.321 729.9033,-643.5786 737.6644,-644.7966 "/>
<polyline fill="none" stroke="#000000" points="1065.0746,-1043.1926 1081.4872,-1043.3252 1092.0172,-1043.8379 1100.7216,-1044.6146 1107.3157,-1045.4707 1118.5328,-1047.1549 1144.8234,-1037.0442 1233.9077,-989.976 1235.4248,-988.5111 1255.5004,-908.91 1258.3538,-899.9749 1255.6163,-897.2651 1237.28,-880.3636 1233.6931,-877.1888 1229.1536,-873.4938 1215.0266,-862.9622 1202.9718,-854.8218 1200.4619,-853.305 1105.866,-799.3848 1092.8368,-790.5865 1092.642,-790.4482 1083.4006,-793.6159 1080.3319,-794.5862 1070.5369,-797.1699 1065.3773,-798.395 1053.4396,-800.6044 1041.0476,-801.9249 1032.2657,-802.6301 1027.2826,-802.6381 1014.2072,-803.0018 1009.14,-803.0095 1005.3106,-803.215 1002.7211,-803.4893 990.4174,-805.1165 982.1286,-806.4291 977.2877,-807.4482 976.5718,-806.845 969.4577,-800.0804 968.0577,-798.819 966.4926,-797.5558 958.2151,-791.2441 945.6512,-782.2415 875.6706,-735.5312 866.1011,-728.6602 850.4788,-715.8834 849.9236,-715.3765 845.261,-710.6297 831.5402,-698.2119 822.0977,-688.8348 817.9608,-695.0739 803.1582,-713.5481 791.7756,-727.0004 790.608,-728.2971 765.4661,-760.5303 733.8065,-805.6205 721.1247,-821.9319 699.2917,-816.093 690.629,-814.5154 676.8985,-813.1813 675.1969,-813.1612 666.6877,-813.4241 660.0123,-813.0604 654.006,-813.2466 652.5068,-813.1655 650.4749,-813.1421 648.9282,-813.0585 645.4911,-813.0191 641.5291,-813.1429 636.1928,-813.0822 635.9865,-813.0887 627.6136,-812.9941 624.5228,-812.828 615.1293,-811.5223 607.9745,-810.2231 564.8308,-800.5615 530.5139,-749.8478 508.193,-720.6301 490.7285,-698.8583 488.3781,-699.7245 484.5717,-701.0478 483.1014,-703.6984 479.1852,-710.1656 461.3618,-738.3142 444.2066,-761.3622 438.0637,-768.6031 421.1732,-785.92 378.5126,-844.7683 367.4443,-858.3463 360.1302,-866.504 354.5121,-872.2639 336.3625,-894.9526 332.0596,-900.6211 317.8243,-922.4716 306.4954,-942.3596 299.2534,-956.157 369.8909,-1011.6048 406.7878,-1026.6675 434.0133,-1006.4818 451.3779,-994.617 463.2826,-987.5413 470.5923,-983.4141 472.4729,-982.4088 476.9605,-980.142 495.028,-972.0663 529.4039,-957.7418 571.3857,-968.0435 586.4955,-970.7364 595.246,-971.702 601.2259,-971.9578 604.2728,-971.9853 608.5925,-971.878 608.7123,-971.8792 618.8619,-972.3322 619.7825,-972.3108 625.2042,-972.0006 629.3202,-971.9083 630.5995,-971.924 631.0966,-971.9133 638.1218,-972.2486 646.2733,-972.0857 652.523,-972.3933 655.3383,-972.6292 667.4203,-974.0609 689.4827,-978.1974 761.7333,-918.87 767.1525,-919.7005 780.6002,-921.3738 793.1445,-922.2063 796.6422,-922.2358 796.7605,-922.2333 802.7988,-921.9349 806.8146,-921.9733 808.2851,-921.9022 814.0897,-921.9646 821.1382,-921.8356 825.5084,-922.0148 833.3697,-922.1084 833.4872,-922.1063 834.1398,-922.1144 840.295,-922.0126 852.1984,-922.872 861.5461,-923.8235 866.3069,-924.4481 868.1883,-924.7502 871.5941,-925.3974 911.7474,-934.218 938.611,-986.2802 970.2136,-1043.3262 978.9777,-1057.5907 1022.2964,-1048.2698 1024.5953,-1047.8682 1035.8317,-1046.1315 1045.1024,-1044.887 1056.5186,-1043.8187 1065.0746,-1043.1926 "/>
<polyline fill="none" stroke="#000000" points="483.1014,-703.6984 479.1852,-710.1656 461.3618,-738.3142 444.2066,-761.3622 438.0637,-768.6031 421.1732,-785.92 378.5126,-844.7683 367.4443,-858.3463 360.1302,-866.504 354.5121,-872.2639 336.3625,-894.9526 332.0596,-900.6211 317.8243,-922.4716 306.4954,-942.3596 299.2534,-956.157 288.9297,-954.2703 281.8787,-953.2125 192.5697,-941.2725 186.2392,-937.9827 170.6385,-884.9558 162.1604,-792.5887 159.2986,-772.4097 157.2166,-759.9058 103.6211,-715.4344 52.7759,-655.2952 46.4351,-654.4604 40.6474,-653.8101 24.2883,-652.6028 17.9927,-652.3817 -63.1573,-601.0093 -94.7522,-564.9023 -102.7764,-525.6122 -103.3107,-523.285 -118.2559,-464.7552 -118.5903,-463.5544 -83.4411,-421.4626 15.1363,-369.0379 20.0671,-366.2825 30.9405,-365.0266 41.2567,-363.6233 41.7997,-363.5273 50.7071,-361.7677 68.8238,-357.4415 115.1208,-345.4483 127.6518,-286.51 134.9675,-236.4072 203.5952,-176.2468 274.3373,-146.7717 274.5974,-146.6443 319.3087,-61.5574 366.466,-34.6839 390.6955,-26.4723 412.0813,-18.8139 412.1058,-18.8047 420.8321,-8.7734 468.6589,18.7586 550.4664,35.2758 558.6216,37.3841 563.6667,38.784 570.7629,38.8212 582.1884,39.2816 582.3999,39.2417 598.2762,37.0987 610.8766,35.8509 612.1672,35.7695 701.99,31.7121 718.8801,28.4801 733.7179,-12.4099 736.5739,-20.7989 740.3446,-33.5513 700.3784,-115.22 681.293,-167.7248 687.6185,-175.2007 699.0168,-189.8803 739.8405,-254.92 763.4138,-282.7805 767.8618,-288.3622 770.1714,-291.431 783.9335,-311.9163 799.4738,-337.4272 756.3607,-387.0935 754.892,-387.5448 735.9514,-392.2649 728.1423,-393.9055 719.2621,-395.4253 703.8149,-397.4686 696.9129,-397.9781 686.5548,-398.5413 684.2294,-398.5772 668.0302,-399.1344 667.8946,-399.1416 666.7872,-399.2217 653.5188,-399.9213 651.3976,-400.1133 649.8084,-400.2872 624.2665,-512.4044 622.1754,-530.3694 621.8455,-535.9028 620.6375,-546.3343 601.6228,-629.8002 575.2839,-638.3662 557.3768,-644.6519 553.5884,-646.0757 550.9899,-647.1171 544.0723,-650.0629 532.5393,-655.5553 524.7258,-659.6682 509.1827,-668.6372 490.7285,-698.8583 488.3781,-699.7245 484.5717,-701.0478 483.1014,-703.6984 "/>
<polyline fill="none" stroke="#000000" points="666.6877,-813.4241 660.0123,-813.0604 654.006,-813.2466 652.5068,-813.1655 650.4749,-813.1421 648.9282,-813.0585 645.4911,-813.0191 641.5291,-813.1429 636.1928,-813.0822 635.9865,-813.0887 627.6136,-812.9941 624.5228,-812.828 615.1293,-811.5223 607.9745,-810.2231 564.8308,-800.5615 530.5139,-749.8478 508.193,-720.6301 490.7285,-698.8583 509.1827,-668.6372 524.7258,-659.6682 532.5393,-655.5553 544.0723,-650.0629 550.9899,-647.1171 553.5884,-646.0757 557.3768,-644.6519 575.2839,-638.3662 601.6228,-629.8002 629.2486,-636.015 644.6056,-639.0186 650.658,-640.0206 661.8708,-641.2053 664.0578,-641.3706 669.2797,-641.6091 677.0718,-641.7316 680.0129,-641.6897 682.3449,-641.7928 689.9878,-641.9014 694.8759,-641.6782 695.0833,-641.6808 696.7745,-641.6517 706.5884,-642.0561 712.1495,-642.1183 717.1686,-642.321 729.9033,-643.5786 737.6644,-644.7966 749.2349,-647.2886 757.7917,-649.3795 765.4532,-651.9197 779.4021,-657.3721 792.4335,-663.2311 801.869,-668.0216 817.7013,-676.9838 820.4855,-678.6381 822.0977,-688.8348 817.9608,-695.0739 803.1582,-713.5481 791.7756,-727.0004 790.608,-728.2971 765.4661,-760.5303 733.8065,-805.6205 721.1247,-821.9319 699.2917,-816.093 690.629,-814.5154 676.8985,-813.1813 675.1969,-813.1612 666.6877,-813.4241 "/>
<polyline fill="none" stroke="#000000" points="920.075,131.3634 916.287,129.4823 897.4771,121.4786 878.8044,114.8729 789.8741,85.5833 748.2016,59.3137 718.8801,28.4801 733.7179,-12.4099 736.5739,-20.7989 740.3446,-33.5513 700.3784,-115.22 681.293,-167.7248 687.6185,-175.2007 699.0168,-189.8803 739.8405,-254.92 763.4138,-282.7805 767.8618,-288.3622 770.1714,-291.431 783.9335,-311.9163 799.4738,-337.4272 802.2625,-336.3393 805.0411,-335.3713 826.869,-329.0995 829.2867,-328.505 892.7532,-314.1996 904.2698,-311.1353 909.6766,-309.4771 918.913,-306.4559 934.5967,-300.6871 938.3407,-299.1596 947.3726,-239.5575 952.1125,-193.0396 952.9601,-186.3778 953.4776,-181.2697 957.6534,-153.7128 1074.2019,-73.6939 1078.4526,-70.6532 1082.0686,-67.8544 1090.2615,-61.2662 1087.8845,-55.1126 1068.4688,-1.5462 1059.1931,28.4949 1028.1754,81.3348 1005.1335,101.0344 973.9998,123.9293 951.132,126.6328 934.5598,128.9283 923.5143,130.6802 920.075,131.3634 "/>
<polyline fill="none" stroke="#000000" points="1222.4042,-624.115 1220.1287,-624.0463 1206.6967,-624.3134 1201.9905,-624.1858 1200.5313,-624.2191 1133.4261,-622.6047 1088.5039,-577.0569 1021.0999,-577.1849 1018.5527,-577.073 1014.799,-577.1708 1002.2391,-577.2097 1001.9399,-577.1968 1000.2637,-577.2034 994.662,-577.0964 988.389,-577.1232 988.1349,-577.1126 978.8677,-576.943 978.3946,-576.9564 975.9034,-576.9129 968.9581,-577.1159 965.6948,-577.2877 952.4828,-577.0718 951.7296,-577.0422 943.928,-577.2823 940.8997,-577.306 934.7355,-577.6417 926.2837,-578.2991 920.927,-578.9659 915.8416,-572.4871 913.5771,-569.8752 905.6017,-560.1031 897.7021,-551.4478 886.0211,-539.4082 879.2594,-532.9165 830.7411,-477.122 808.0127,-453.5594 802.3104,-447.2478 800.0594,-444.2485 782.1655,-423.487 767.161,-403.328 765.2238,-400.6129 756.3607,-387.0935 799.4738,-337.4272 802.2625,-336.3393 805.0411,-335.3713 826.869,-329.0995 829.2867,-328.505 892.7532,-314.1996 904.2698,-311.1353 909.6766,-309.4771 918.913,-306.4559 934.5967,-300.6871 938.3407,-299.1596 947.3726,-239.5575 952.1125,-193.0396 952.9601,-186.3778 953.4776,-181.2697 957.6534,-153.7128 1074.2019,-73.6939 1078.4526,-70.6532 1082.0686,-67.8544 1090.2615,-61.2662 1102.7057,-65.0535 1107.0317,-66.1163 1123.8599,-69.9246 1170.59,-78.6683 1251.5957,-127.4148 1265.9561,-183.1498 1351.3745,-269.4461 1344.572,-315.7596 1340.5513,-357.1551 1337.7488,-396.298 1392.5195,-476.7213 1387.0701,-497.2922 1382.1281,-520.0917 1367.7701,-594.828 1353.5602,-623.392 1263.1595,-624.0894 1252.3799,-623.9194 1252.3699,-623.9194 1246.0515,-624.1362 1242.2236,-624.0874 1233.6152,-624.1932 1230.7379,-624.161 1228.2583,-624.0166 1222.4042,-624.115 "/>
<polyline fill="none" stroke="#000000" points="603.4237,-1200.4207 606.1823,-1199.8885 613.4999,-1198.6277 632.0315,-1196.1968 633.6085,-1196.0226 637.5382,-1195.751 704.6417,-1192.4922 738.6201,-1181.2036 743.4011,-1177.3911 774.4715,-1170.5481 791.8392,-1167.7299 795.9872,-1167.2179 807.6069,-1166.2328 807.9387,-1166.2111 827.7676,-1165.298 830.7275,-1165.3337 857.7195,-1166.1832 927.0053,-1146.7255 978.9777,-1057.5907 970.2136,-1043.3262 938.611,-986.2802 911.7474,-934.218 871.5941,-925.3974 868.1883,-924.7502 866.3069,-924.4481 861.5461,-923.8235 852.1984,-922.872 840.295,-922.0126 834.1398,-922.1144 833.4872,-922.1063 833.3697,-922.1084 825.5084,-922.0148 821.1382,-921.8356 814.0897,-921.9646 808.2851,-921.9022 806.8146,-921.9733 802.7988,-921.9349 796.7605,-922.2333 796.6422,-922.2358 793.1445,-922.2063 780.6002,-921.3738 767.1525,-919.7005 761.7333,-918.87 689.4827,-978.1974 667.4203,-974.0609 655.3383,-972.6292 652.523,-972.3933 646.2733,-972.0857 638.1218,-972.2486 631.0966,-971.9133 630.5995,-971.924 629.3202,-971.9083 625.2042,-972.0006 619.7825,-972.3108 618.8619,-972.3322 608.7123,-971.8792 608.5925,-971.878 604.2728,-971.9853 601.2259,-971.9578 595.246,-971.702 586.4955,-970.7364 571.3857,-968.0435 529.4039,-957.7418 495.028,-972.0663 476.9605,-980.142 472.4729,-982.4088 470.5923,-983.4141 463.2826,-987.5413 451.3779,-994.617 434.0133,-1006.4818 406.7878,-1026.6675 420.4988,-1058.8 457.3455,-1162.0907 557.7079,-1198.1091 570.9542,-1198.3739 579.1425,-1198.8676 585.1089,-1199.3475 593.2121,-1200.163 600.6765,-1201.0643 603.4237,-1200.4207 "/>
<!-- device&#45;mapper&#45;libs&#45;&gt;Fedora Container Base -->
<g id="edge1" class="edge">
<title>device&#45;mapper&#45;libs&#45;&gt;Fedora Container Base</title>
<path fill="none" stroke="#444444" stroke-opacity="0.333333" d="M1048.9821,-890.757C996.3611,-830.7476 827.8778,-638.6077 766.5272,-568.6428"/>
<polygon fill="#444444" fill-opacity="0.333333" stroke="#444444" stroke-opacity="0.333333" points="769.1487,-566.3238 759.924,-561.1125 763.8855,-570.9389 769.1487,-566.3238"/>
</g>
<!-- device&#45;mapper&#45;libs&#45;&gt;device&#45;mapper -->
<g id="edge2" class="edge">
<title>device&#45;mapper&#45;libs&#45;&gt;device&#45;mapper</title>
<path fill="none" stroke="#444444" stroke-opacity="0.333333" d="M1030.9029,-890.6973C999.3543,-877.0165 951.3207,-858.4749 910.8175,-844.1164"/>
<polygon fill="#444444" fill-opacity="0.333333" stroke="#444444" stroke-opacity="0.333333" points="911.8286,-840.7619 901.2338,-840.7484 909.5077,-847.366 911.8286,-840.7619"/>
</g>
<!-- device&#45;mapper&#45;&gt;Fedora Container Base -->
<g id="edge32" class="edge">
<title>device&#45;mapper&#45;&gt;Fedora Container Base</title>
<path fill="none" stroke="#444444" stroke-opacity="0.333333" d="M829.8643,-804.3102C814.1353,-756.4649 771.8108,-627.72 753.0629,-570.6918"/>
<polygon fill="#444444" fill-opacity="0.333333" stroke="#444444" stroke-opacity="0.333333" points="756.2964,-569.3203 749.8484,-560.9136 749.6465,-571.5065 756.2964,-569.3203"/>
</g>
<!-- device&#45;mapper&#45;&gt;device&#45;mapper&#45;libs -->
<g id="edge33" class="edge">
<title>device&#45;mapper&#45;&gt;device&#45;mapper&#45;libs</title>
<path fill="none" stroke="#444444" stroke-opacity="0.333333" d="M869.8971,-840.8827C901.4457,-854.5635 949.4793,-873.1051 989.9825,-887.4636"/>
<polygon fill="#444444" fill-opacity="0.333333" stroke="#444444" stroke-opacity="0.333333" points="988.9714,-890.8181 999.5662,-890.8316 991.2923,-884.214 988.9714,-890.8181"/>
</g>
<!-- device&#45;mapper&#45;&gt;systemd -->
<g id="edge34" class="edge">
<title>device&#45;mapper&#45;&gt;systemd</title>
<path fill="none" stroke="#444444" stroke-opacity="0.333333" d="M818.1512,-804.5519C767.323,-752.6662 621.1173,-603.4186 562.5723,-543.6556"/>
<polygon fill="#444444" fill-opacity="0.333333" stroke="#444444" stroke-opacity="0.333333" points="565.054,-541.1874 555.5558,-536.4932 560.0535,-546.0859 565.054,-541.1874"/>
</g>
<!-- device&#45;mapper&#45;&gt;util&#45;linux -->
<g id="edge35" class="edge">
<title>device&#45;mapper&#45;&gt;util&#45;linux</title>
<path fill="none" stroke="#444444" stroke-opacity="0.333333" d="M779.2413,-840.7098C756.1872,-848.0501 729.3806,-856.5852 705.4226,-864.2133"/>
<polygon fill="#444444" fill-opacity="0.333333" stroke="#444444" stroke-opacity="0.333333" points="704.1662,-860.9401 695.6994,-867.3091 706.29,-867.6102 704.1662,-860.9401"/>
</g>
<!-- libargon2&#45;&gt;Fedora Container Base -->
<g id="edge3" class="edge">
<title>libargon2&#45;&gt;Fedora Container Base</title>
<path fill="none" stroke="#444444" stroke-opacity="0.333333" d="M1182.1856,-725.1397C1092.9255,-688.0142 889.8363,-603.5444 794.7668,-564.0026"/>
<polygon fill="#444444" fill-opacity="0.333333" stroke="#444444" stroke-opacity="0.333333" points="795.9403,-560.7001 785.363,-560.0913 793.252,-567.1633 795.9403,-560.7001"/>
</g>
<!-- dbus&#45;broker&#45;&gt;Fedora Container Base -->
<g id="edge4" class="edge">
<title>dbus&#45;broker&#45;&gt;Fedora Container Base</title>
<path fill="none" stroke="#444444" stroke-opacity="0.333333" d="M432.8157,-570.0518C485.6383,-565.433 558.0364,-559.1026 619.6997,-553.7108"/>
<polygon fill="#444444" fill-opacity="0.333333" stroke="#444444" stroke-opacity="0.333333" points="620.236,-557.1774 629.8931,-552.8195 619.6262,-550.204 620.236,-557.1774"/>
</g>
<!-- dbus&#45;broker&#45;&gt;dbus&#45;common -->
<g id="edge5" class="edge">
<title>dbus&#45;broker&#45;&gt;dbus&#45;common</title>
<path fill="none" stroke="#444444" stroke-opacity="0.333333" d="M359.736,-558.4878C360.8561,-528.193 363.1256,-466.8098 364.4646,-430.5945"/>
<polygon fill="#444444" fill-opacity="0.333333" stroke="#444444" stroke-opacity="0.333333" points="367.976,-430.348 364.848,-420.2255 360.9808,-430.0893 367.976,-430.348"/>
</g>
<!-- dbus&#45;broker&#45;&gt;shadow&#45;utils -->
<g id="edge6" class="edge">
<title>dbus&#45;broker&#45;&gt;shadow&#45;utils</title>
<path fill="none" stroke="#444444" stroke-opacity="0.333333" d="M393.2509,-594.5694C450.1485,-624.6479 564.1948,-684.9376 626.7075,-717.9845"/>
<polygon fill="#444444" fill-opacity="0.333333" stroke="#444444" stroke-opacity="0.333333" points="625.4362,-721.2713 635.9126,-722.8507 628.7077,-715.0828 625.4362,-721.2713"/>
</g>
<!-- dbus&#45;broker&#45;&gt;systemd -->
<g id="edge7" class="edge">
<title>dbus&#45;broker&#45;&gt;systemd</title>
<path fill="none" stroke="#444444" stroke-opacity="0.333333" d="M414.6727,-558.457C433.0081,-552.5072 453.5681,-545.8355 472.562,-539.6721"/>
<polygon fill="#444444" fill-opacity="0.333333" stroke="#444444" stroke-opacity="0.333333" points="473.9003,-542.9175 482.3317,-536.5018 471.7397,-536.2593 473.9003,-542.9175"/>
</g>
<!-- dbus&#45;common&#45;&gt;Fedora Container Base -->
<g id="edge8" class="edge">
<title>dbus&#45;common&#45;&gt;Fedora Container Base</title>
<path fill="none" stroke="#444444" stroke-opacity="0.333333" d="M414.2132,-420.1689C484.6067,-446.3625 614.4495,-494.6774 688.4462,-522.2118"/>
<polygon fill="#444444" fill-opacity="0.333333" stroke="#444444" stroke-opacity="0.333333" points="687.4721,-525.5837 698.0649,-525.7909 689.9134,-519.0232 687.4721,-525.5837"/>
</g>
<!-- dbus&#45;common&#45;&gt;dbus&#45;common -->
<g id="edge9" class="edge">
<title>dbus&#45;common&#45;&gt;dbus&#45;common</title>
<path fill="none" stroke="#444444" stroke-opacity="0.333333" d="M443.0855,-408.0733C453.835,-407.0812 461.02,-405.0734 461.02,-402.05 461.02,-400.1131 458.0713,-398.5931 453.1257,-397.4898"/>
<polygon fill="#444444" fill-opacity="0.333333" stroke="#444444" stroke-opacity="0.333333" points="453.4857,-394.0054 443.0855,-396.0267 452.4762,-400.9323 453.4857,-394.0054"/>
</g>
<!-- dbus&#45;common&#45;&gt;systemd -->
<g id="edge10" class="edge">
<title>dbus&#45;common&#45;&gt;systemd</title>
<path fill="none" stroke="#444444" stroke-opacity="0.333333" d="M392.4544,-420.2406C422.1822,-440.3179 470.1384,-472.706 502.7915,-494.7588"/>
<polygon fill="#444444" fill-opacity="0.333333" stroke="#444444" stroke-opacity="0.333333" points="500.9088,-497.7107 511.1548,-500.4071 504.8266,-491.9098 500.9088,-497.7107"/>
</g>
<!-- shadow&#45;utils&#45;&gt;Fedora Container Base -->
<g id="edge11" class="edge">
<title>shadow&#45;utils&#45;&gt;Fedora Container Base</title>
<path fill="none" stroke="#444444" stroke-opacity="0.333333" d="M676.957,-722.6683C689.9382,-687.8041 718.3004,-611.6307 733.6137,-570.5031"/>
<polygon fill="#444444" fill-opacity="0.333333" stroke="#444444" stroke-opacity="0.333333" points="736.9101,-571.6803 737.1195,-561.0875 730.3501,-569.2377 736.9101,-571.6803"/>
</g>
<!-- shadow&#45;utils&#45;&gt;shadow&#45;utils -->
<g id="edge12" class="edge">
<title>shadow&#45;utils&#45;&gt;shadow&#45;utils</title>
<path fill="none" stroke="#444444" stroke-opacity="0.333333" d="M740.9756,-747.0734C751.519,-746.12 758.65,-744.0789 758.65,-740.95 758.65,-738.9944 755.8644,-737.4638 751.2012,-736.358"/>
<polygon fill="#444444" fill-opacity="0.333333" stroke="#444444" stroke-opacity="0.333333" points="751.3838,-732.8464 740.9756,-734.8266 750.3469,-739.7692 751.3838,-732.8464"/>
</g>
<!-- shadow&#45;utils&#45;&gt;libsemanage -->
<g id="edge13" class="edge">
<title>shadow&#45;utils&#45;&gt;libsemanage</title>
<path fill="none" stroke="#444444" stroke-opacity="0.333333" d="M666.3918,-759.4128C655.5564,-812.6434 624.2022,-966.6767 611.2023,-1030.5408"/>
<polygon fill="#444444" fill-opacity="0.333333" stroke="#444444" stroke-opacity="0.333333" points="607.703,-1030.1851 609.138,-1040.6823 614.5623,-1031.5814 607.703,-1030.1851"/>
</g>
<!-- systemd&#45;&gt;Fedora Container Base -->
<g id="edge14" class="edge">
<title>systemd&#45;&gt;Fedora Container Base</title>
<path fill="none" stroke="#444444" stroke-opacity="0.333333" d="M599.4307,-525.7518C609.8847,-526.9889 621.0228,-528.3071 632.2994,-529.6416"/>
<polygon fill="#444444" fill-opacity="0.333333" stroke="#444444" stroke-opacity="0.333333" points="631.8891,-533.1174 642.2311,-530.8169 632.7118,-526.1659 631.8891,-533.1174"/>
</g>
<!-- systemd&#45;&gt;shadow&#45;utils -->
<g id="edge15" class="edge">
<title>systemd&#45;&gt;shadow&#45;utils</title>
<path fill="none" stroke="#444444" stroke-opacity="0.333333" d="M548.7226,-536.6765C571.9812,-575.8037 626.8298,-668.0739 654.1321,-714.0036"/>
<polygon fill="#444444" fill-opacity="0.333333" stroke="#444444" stroke-opacity="0.333333" points="651.245,-715.9964 659.3634,-722.804 657.2622,-712.4196 651.245,-715.9964"/>
</g>
<!-- systemd&#45;&gt;systemd -->
<g id="edge16" class="edge">
<title>systemd&#45;&gt;systemd</title>
<path fill="none" stroke="#444444" stroke-opacity="0.333333" d="M599.5667,-524.7713C610.1013,-523.9103 617.4,-521.8098 617.4,-518.47 617.4,-516.3304 614.4046,-514.6995 609.482,-513.5772"/>
<polygon fill="#444444" fill-opacity="0.333333" stroke="#444444" stroke-opacity="0.333333" points="609.9596,-510.11 599.5667,-512.1687 608.9751,-517.0404 609.9596,-510.11"/>
</g>
<!-- systemd&#45;&gt;util&#45;linux -->
<g id="edge17" class="edge">
<title>systemd&#45;&gt;util&#45;linux</title>
<path fill="none" stroke="#444444" stroke-opacity="0.333333" d="M542.9185,-536.6626C559.3403,-596.1933 611.5534,-785.4708 631.3705,-857.3099"/>
<polygon fill="#444444" fill-opacity="0.333333" stroke="#444444" stroke-opacity="0.333333" points="628.0179,-858.3184 634.0512,-867.0276 634.7659,-856.4568 628.0179,-858.3184"/>
</g>
<!-- systemd&#45;&gt;acl -->
<g id="edge18" class="edge">
<title>systemd&#45;&gt;acl</title>
<path fill="none" stroke="#444444" stroke-opacity="0.333333" d="M518.505,-500.2685C474.6466,-459.109 367.7648,-358.8044 317.5835,-311.7111"/>
<polygon fill="#444444" fill-opacity="0.333333" stroke="#444444" stroke-opacity="0.333333" points="319.7219,-308.918 310.0349,-304.627 314.9317,-314.0223 319.7219,-308.918"/>
</g>
<!-- systemd&#45;&gt;cryptsetup&#45;libs -->
<g id="edge19" class="edge">
<title>systemd&#45;&gt;cryptsetup&#45;libs</title>
<path fill="none" stroke="#444444" stroke-opacity="0.333333" d="M583.3241,-536.5476C666.1749,-569.52 841.5129,-639.2998 930.95,-674.8934"/>
<polygon fill="#444444" fill-opacity="0.333333" stroke="#444444" stroke-opacity="0.333333" points="929.7902,-678.1988 940.3757,-678.6446 932.3787,-671.6949 929.7902,-678.1988"/>
</g>
<!-- systemd&#45;&gt;dbus -->
<g id="edge20" class="edge">
<title>systemd&#45;&gt;dbus</title>
<path fill="none" stroke="#444444" stroke-opacity="0.333333" d="M476.1589,-516.8947C377.8819,-514.3872 187.568,-509.5314 95.2596,-507.1761"/>
<polygon fill="#444444" fill-opacity="0.333333" stroke="#444444" stroke-opacity="0.333333" points="95.1207,-503.6716 85.0346,-506.9153 94.9421,-510.6693 95.1207,-503.6716"/>
</g>
<!-- systemd&#45;&gt;iptables&#45;libs -->
<g id="edge21" class="edge">
<title>systemd&#45;&gt;iptables&#45;libs</title>
<path fill="none" stroke="#444444" stroke-opacity="0.333333" d="M552.1255,-500.0772C595.2547,-444.3135 724.6785,-276.9753 775.1699,-211.6926"/>
<polygon fill="#444444" fill-opacity="0.333333" stroke="#444444" stroke-opacity="0.333333" points="778.1291,-213.5874 781.4785,-203.5359 772.592,-209.3048 778.1291,-213.5874"/>
</g>
<!-- systemd&#45;&gt;kmod&#45;libs -->
<g id="edge22" class="edge">
<title>systemd&#45;&gt;kmod&#45;libs</title>
<path fill="none" stroke="#444444" stroke-opacity="0.333333" d="M532.2487,-500.1981C515.2546,-445.253 464.5359,-281.2689 444.1375,-215.3169"/>
<polygon fill="#444444" fill-opacity="0.333333" stroke="#444444" stroke-opacity="0.333333" points="447.4325,-214.1247 441.1339,-205.6054 440.745,-216.1931 447.4325,-214.1247"/>
</g>
<!-- systemd&#45;&gt;libfdisk -->
<g id="edge23" class="edge">
<title>systemd&#45;&gt;libfdisk</title>
<path fill="none" stroke="#444444" stroke-opacity="0.333333" d="M533.8032,-536.6182C521.2442,-592.2516 483.2182,-760.6988 468.0482,-827.899"/>
<polygon fill="#444444" fill-opacity="0.333333" stroke="#444444" stroke-opacity="0.333333" points="464.6051,-827.2568 465.8171,-837.7821 471.4333,-828.7983 464.6051,-827.2568"/>
</g>
<!-- systemd&#45;&gt;libseccomp -->
<g id="edge24" class="edge">
<title>systemd&#45;&gt;libseccomp</title>
<path fill="none" stroke="#444444" stroke-opacity="0.333333" d="M539.8204,-500.3598C546.6029,-436.3968 569.4658,-220.787 577.6855,-143.2714"/>
<polygon fill="#444444" fill-opacity="0.333333" stroke="#444444" stroke-opacity="0.333333" points="581.1708,-143.5936 578.7449,-133.2803 574.2099,-142.8555 581.1708,-143.5936"/>
</g>
<!-- systemd&#45;&gt;qrencode&#45;libs -->
<g id="edge25" class="edge">
<title>systemd&#45;&gt;qrencode&#45;libs</title>
<path fill="none" stroke="#444444" stroke-opacity="0.333333" d="M544.8153,-500.3551C562.0824,-455.1238 607.1823,-336.9836 627.8655,-282.8035"/>
<polygon fill="#444444" fill-opacity="0.333333" stroke="#444444" stroke-opacity="0.333333" points="631.2496,-283.7523 631.5463,-273.1616 624.7099,-281.2557 631.2496,-283.7523"/>
</g>
<!-- systemd&#45;&gt;systemd&#45;pam -->
<g id="edge26" class="edge">
<title>systemd&#45;&gt;systemd&#45;pam</title>
<path fill="none" stroke="#444444" stroke-opacity="0.333333" d="M518.3418,-536.619C476.0453,-582.875 377.3169,-704.9405 338.1236,-759.2722"/>
<polygon fill="#444444" fill-opacity="0.333333" stroke="#444444" stroke-opacity="0.333333" points="335.0824,-757.5103 332.1515,-767.6916 340.7919,-761.5602 335.0824,-757.5103"/>
</g>
<!-- systemd&#45;&gt;systemd&#45;rpm&#45;macros -->
<g id="edge27" class="edge">
<title>systemd&#45;&gt;systemd&#45;rpm&#45;macros</title>
<path fill="none" stroke="#444444" stroke-opacity="0.333333" d="M488.3413,-536.5666C435.7749,-555.7614 352.7571,-586.0757 296.8347,-606.4959"/>
<polygon fill="#444444" fill-opacity="0.333333" stroke="#444444" stroke-opacity="0.333333" points="295.6052,-603.2188 287.4123,-609.9366 298.0062,-609.7941 295.6052,-603.2188"/>
</g>
<!-- libsemanage&#45;&gt;Fedora Container Base -->
<g id="edge39" class="edge">
<title>libsemanage&#45;&gt;Fedora Container Base</title>
<path fill="none" stroke="#444444" stroke-opacity="0.333333" d="M610.2967,-1040.7396C630.898,-963.972 711.2856,-664.4199 736.3822,-570.9012"/>
<polygon fill="#444444" fill-opacity="0.333333" stroke="#444444" stroke-opacity="0.333333" points="739.8193,-571.5967 739.0309,-561.0313 733.0585,-569.7823 739.8193,-571.5967"/>
</g>
<!-- libsemanage&#45;&gt;libsemanage -->
<g id="edge40" class="edge">
<title>libsemanage&#45;&gt;libsemanage</title>
<path fill="none" stroke="#444444" stroke-opacity="0.333333" d="M681.0225,-1064.8574C691.7509,-1063.8777 698.95,-1061.8586 698.95,-1058.8 698.95,-1056.8406 695.9955,-1055.3078 691.0513,-1054.2015"/>
<polygon fill="#444444" fill-opacity="0.333333" stroke="#444444" stroke-opacity="0.333333" points="691.4223,-1050.7187 681.0225,-1052.7426 690.4145,-1057.6458 691.4223,-1050.7187"/>
</g>
<!-- util&#45;linux&#45;&gt;Fedora Container Base -->
<g id="edge28" class="edge">
<title>util&#45;linux&#45;&gt;Fedora Container Base</title>
<path fill="none" stroke="#444444" stroke-opacity="0.333333" d="M644.735,-866.9168C662.0497,-810.3389 714.5571,-638.7642 735.3241,-570.9055"/>
<polygon fill="#444444" fill-opacity="0.333333" stroke="#444444" stroke-opacity="0.333333" points="738.7947,-571.5251 738.3743,-560.9386 732.1011,-569.4766 738.7947,-571.5251"/>
</g>
<!-- util&#45;linux&#45;&gt;util&#45;linux -->
<g id="edge29" class="edge">
<title>util&#45;linux&#45;&gt;util&#45;linux</title>
<path fill="none" stroke="#444444" stroke-opacity="0.333333" d="M703.7797,-891.5753C714.3415,-890.6813 721.6,-888.5995 721.6,-885.33 721.6,-883.2355 718.6211,-881.6284 713.7032,-880.5087"/>
<polygon fill="#444444" fill-opacity="0.333333" stroke="#444444" stroke-opacity="0.333333" points="714.1755,-877.0407 703.7797,-879.0847 713.1811,-883.9698 714.1755,-877.0407"/>
</g>
<!-- util&#45;linux&#45;&gt;libfdisk -->
<g id="edge30" class="edge">
<title>util&#45;linux&#45;&gt;libfdisk</title>
<path fill="none" stroke="#444444" stroke-opacity="0.333333" d="M574.5527,-874.6655C560.6816,-872.3737 545.9574,-869.941 531.8841,-867.6158"/>
<polygon fill="#444444" fill-opacity="0.333333" stroke="#444444" stroke-opacity="0.333333" points="532.2099,-864.1223 521.7731,-865.9453 531.0688,-871.0286 532.2099,-864.1223"/>
</g>
<!-- util&#45;linux&#45;&gt;libutempter -->
<g id="edge31" class="edge">
<title>util&#45;linux&#45;&gt;libutempter</title>
<path fill="none" stroke="#444444" stroke-opacity="0.333333" d="M660.7611,-903.3858C689.5226,-927.3602 740.4327,-969.7967 772.694,-996.6883"/>
<polygon fill="#444444" fill-opacity="0.333333" stroke="#444444" stroke-opacity="0.333333" points="770.5469,-999.4551 780.4693,-1003.1696 775.029,-994.0782 770.5469,-999.4551"/>
</g>
<!-- acl&#45;&gt;Fedora Container Base -->
<g id="edge51" class="edge">
<title>acl&#45;&gt;Fedora Container Base</title>
<path fill="none" stroke="#444444" stroke-opacity="0.333333" d="M322.5967,-304.5353C403.155,-350.1029 614.8442,-469.8443 703.7174,-520.1151"/>
<polygon fill="#444444" fill-opacity="0.333333" stroke="#444444" stroke-opacity="0.333333" points="702.2529,-523.3079 712.6801,-525.1849 705.6993,-517.215 702.2529,-523.3079"/>
</g>
<!-- cryptsetup&#45;libs&#45;&gt;Fedora Container Base -->
<g id="edge52" class="edge">
<title>cryptsetup&#45;libs&#45;&gt;Fedora Container Base</title>
<path fill="none" stroke="#444444" stroke-opacity="0.333333" d="M957.2079,-678.5089C913.1243,-650.4715 828.8046,-596.8436 780.4336,-566.0792"/>
<polygon fill="#444444" fill-opacity="0.333333" stroke="#444444" stroke-opacity="0.333333" points="782.1541,-563.0256 771.8378,-560.6123 778.3974,-568.9322 782.1541,-563.0256"/>
</g>
<!-- cryptsetup&#45;libs&#45;&gt;device&#45;mapper&#45;libs -->
<g id="edge53" class="edge">
<title>cryptsetup&#45;libs&#45;&gt;device&#45;mapper&#45;libs</title>
<path fill="none" stroke="#444444" stroke-opacity="0.333333" d="M992.6538,-714.8569C1006.497,-752.0398 1038.226,-837.2637 1054.6416,-881.356"/>
<polygon fill="#444444" fill-opacity="0.333333" stroke="#444444" stroke-opacity="0.333333" points="1051.4141,-882.7184 1058.1833,-890.8688 1057.9742,-880.2761 1051.4141,-882.7184"/>
</g>
<!-- cryptsetup&#45;libs&#45;&gt;libargon2 -->
<g id="edge54" class="edge">
<title>cryptsetup&#45;libs&#45;&gt;libargon2</title>
<path fill="none" stroke="#444444" stroke-opacity="0.333333" d="M1063.1399,-711.7421C1092.1764,-717.3719 1125.0554,-723.7468 1153.6162,-729.2844"/>
<polygon fill="#444444" fill-opacity="0.333333" stroke="#444444" stroke-opacity="0.333333" points="1153.0417,-732.7381 1163.5251,-731.2056 1154.3741,-725.8661 1153.0417,-732.7381"/>
</g>
<!-- dbus&#45;&gt;dbus&#45;broker -->
<g id="edge55" class="edge">
<title>dbus&#45;&gt;dbus&#45;broker</title>
<path fill="none" stroke="#444444" stroke-opacity="0.333333" d="M85.194,-515.3609C133.7145,-526.1924 214.0976,-544.1369 275.2624,-557.7911"/>
<polygon fill="#444444" fill-opacity="0.333333" stroke="#444444" stroke-opacity="0.333333" points="274.7677,-561.2667 285.29,-560.0296 276.2928,-554.4349 274.7677,-561.2667"/>
</g>
<!-- iptables&#45;libs&#45;&gt;Fedora Container Base -->
<g id="edge56" class="edge">
<title>iptables&#45;libs&#45;&gt;Fedora Container Base</title>
<path fill="none" stroke="#444444" stroke-opacity="0.333333" d="M793.0226,-203.4276C784.5787,-261.7838 758.1702,-444.2963 747.9788,-514.73"/>
<polygon fill="#444444" fill-opacity="0.333333" stroke="#444444" stroke-opacity="0.333333" points="744.5103,-514.2609 746.5421,-524.6591 751.4382,-515.2634 744.5103,-514.2609"/>
</g>
<!-- iptables&#45;libs&#45;&gt;libpcap -->
<g id="edge57" class="edge">
<title>iptables&#45;libs&#45;&gt;libpcap</title>
<path fill="none" stroke="#444444" stroke-opacity="0.333333" d="M808.5312,-166.9884C829.3976,-137.4643 870.7084,-79.0131 894.9203,-44.7556"/>
<polygon fill="#444444" fill-opacity="0.333333" stroke="#444444" stroke-opacity="0.333333" points="898.0612,-46.3756 900.9747,-36.1892 892.3448,-42.3354 898.0612,-46.3756"/>
</g>
<!-- kmod&#45;libs&#45;&gt;Fedora Container Base -->
<g id="edge58" class="edge">
<title>kmod&#45;libs&#45;&gt;Fedora Container Base</title>
<path fill="none" stroke="#444444" stroke-opacity="0.333333" d="M451.2181,-205.506C502.0567,-264.1004 662.1678,-448.6375 721.5014,-517.0229"/>
<polygon fill="#444444" fill-opacity="0.333333" stroke="#444444" stroke-opacity="0.333333" points="719.0264,-519.5109 728.2235,-524.7705 724.3137,-514.9235 719.0264,-519.5109"/>
</g>
<!-- libfdisk&#45;&gt;Fedora Container Base -->
<g id="edge59" class="edge">
<title>libfdisk&#45;&gt;Fedora Container Base</title>
<path fill="none" stroke="#444444" stroke-opacity="0.333333" d="M478.0926,-837.829C525.8278,-784.857 664.8645,-630.5672 720.4987,-568.8296"/>
<polygon fill="#444444" fill-opacity="0.333333" stroke="#444444" stroke-opacity="0.333333" points="723.3778,-570.863 727.4721,-561.0912 718.1777,-566.1769 723.3778,-570.863"/>
</g>
<!-- libseccomp&#45;&gt;Fedora Container Base -->
<g id="edge60" class="edge">
<title>libseccomp&#45;&gt;Fedora Container Base</title>
<path fill="none" stroke="#444444" stroke-opacity="0.333333" d="M587.5704,-133.3216C613.1196,-200.2473 702.3544,-433.9961 733.2695,-514.9774"/>
<polygon fill="#444444" fill-opacity="0.333333" stroke="#444444" stroke-opacity="0.333333" points="730.0702,-516.4106 736.9066,-524.5047 736.6099,-513.914 730.0702,-516.4106"/>
</g>
<!-- qrencode&#45;libs&#45;&gt;Fedora Container Base -->
<g id="edge61" class="edge">
<title>qrencode&#45;libs&#45;&gt;Fedora Container Base</title>
<path fill="none" stroke="#444444" stroke-opacity="0.333333" d="M645.1032,-272.9313C662.9595,-321.7108 712.3494,-456.6333 733.7752,-515.164"/>
<polygon fill="#444444" fill-opacity="0.333333" stroke="#444444" stroke-opacity="0.333333" points="730.5949,-516.6581 737.3192,-524.8455 737.1684,-514.2517 730.5949,-516.6581"/>
</g>
<!-- systemd&#45;pam&#45;&gt;Fedora Container Base -->
<g id="edge62" class="edge">
<title>systemd&#45;pam&#45;&gt;Fedora Container Base</title>
<path fill="none" stroke="#444444" stroke-opacity="0.333333" d="M353.2098,-767.8488C428.8024,-724.3161 620.8876,-613.6969 704.2732,-565.6763"/>
<polygon fill="#444444" fill-opacity="0.333333" stroke="#444444" stroke-opacity="0.333333" points="706.2617,-568.5701 713.1808,-560.5465 702.7683,-562.5041 706.2617,-568.5701"/>
</g>
<!-- systemd&#45;pam&#45;&gt;systemd -->
<g id="edge63" class="edge">
<title>systemd&#45;pam&#45;&gt;systemd</title>
<path fill="none" stroke="#444444" stroke-opacity="0.333333" d="M341.3882,-767.771C383.6847,-721.515 482.4131,-599.4495 521.6064,-545.1178"/>
<polygon fill="#444444" fill-opacity="0.333333" stroke="#444444" stroke-opacity="0.333333" points="524.6476,-546.8797 527.5785,-536.6984 518.9381,-542.8298 524.6476,-546.8797"/>
</g>
<!-- systemd&#45;rpm&#45;macros&#45;&gt;Fedora Container Base -->
<g id="edge64" class="edge">
<title>systemd&#45;rpm&#45;macros&#45;&gt;Fedora Container Base</title>
<path fill="none" stroke="#444444" stroke-opacity="0.333333" d="M334.4691,-611.7818C425.0423,-596.5333 559.5675,-573.8851 649.4204,-558.7579"/>
<polygon fill="#444444" fill-opacity="0.333333" stroke="#444444" stroke-opacity="0.333333" points="650.0523,-562.2008 659.3324,-557.0891 648.8901,-555.298 650.0523,-562.2008"/>
</g>
<!-- libutempter&#45;&gt;Fedora Container Base -->
<g id="edge65" class="edge">
<title>libutempter&#45;&gt;Fedora Container Base</title>
<path fill="none" stroke="#444444" stroke-opacity="0.333333" d="M800.0054,-1003.1284C791.1388,-930.3754 758.1604,-659.7783 747.3592,-571.152"/>
<polygon fill="#444444" fill-opacity="0.333333" stroke="#444444" stroke-opacity="0.333333" points="750.811,-570.5428 746.1268,-561.0397 743.8624,-571.3897 750.811,-570.5428"/>
</g>
<!-- libutempter&#45;&gt;shadow&#45;utils -->
<g id="edge66" class="edge">
<title>libutempter&#45;&gt;shadow&#45;utils</title>
<path fill="none" stroke="#444444" stroke-opacity="0.333333" d="M793.5545,-1002.9055C770.8787,-954.7706 709.7022,-824.9089 682.9575,-768.137"/>
<polygon fill="#444444" fill-opacity="0.333333" stroke="#444444" stroke-opacity="0.333333" points="686.1037,-766.6027 678.6757,-759.0478 679.7712,-769.5859 686.1037,-766.6027"/>
</g>
<!-- libpcap&#45;&gt;Fedora Container Base -->
<g id="edge36" class="edge">
<title>libpcap&#45;&gt;Fedora Container Base</title>
<path fill="none" stroke="#444444" stroke-opacity="0.333333" d="M907.981,-36.0665C882.7817,-113.9021 783.3847,-420.9203 752.8684,-515.1792"/>
<polygon fill="#444444" fill-opacity="0.333333" stroke="#444444" stroke-opacity="0.333333" points="749.4848,-514.2676 749.7344,-524.8595 756.1444,-516.4237 749.4848,-514.2676"/>
</g>
<!-- libicu&#45;&gt;Fedora Container Base -->
<g id="edge37" class="edge">
<title>libicu&#45;&gt;Fedora Container Base</title>
<path fill="none" stroke="#444444" stroke-opacity="0.333333" d="M1172.5855,-509.3139C1099.8123,-515.0071 969.3321,-525.2148 871.3766,-532.878"/>
<polygon fill="#444444" fill-opacity="0.333333" stroke="#444444" stroke-opacity="0.333333" points="871.0995,-529.3889 861.403,-533.6583 871.6455,-536.3676 871.0995,-529.3889"/>
</g>
<!-- libicu&#45;&gt;libicu -->
<g id="edge38" class="edge">
<title>libicu&#45;&gt;libicu</title>
<path fill="none" stroke="#444444" stroke-opacity="0.333333" d="M1282.6733,-511.437C1293.1741,-510.668 1300.6,-508.5256 1300.6,-505.01 1300.6,-502.7578 1297.5524,-501.0692 1292.6011,-499.9442"/>
<polygon fill="#444444" fill-opacity="0.333333" stroke="#444444" stroke-opacity="0.333333" points="1293.0561,-496.4739 1282.6733,-498.583 1292.1051,-503.409 1293.0561,-496.4739"/>
</g>
<!-- libpq&#45;&gt;Fedora Container Base -->
<g id="edge41" class="edge">
<title>libpq&#45;&gt;Fedora Container Base</title>
<path fill="none" stroke="#444444" stroke-opacity="0.333333" d="M1077.5707,-239.5753C1017.6276,-294.0595 839.572,-455.8998 771.1312,-518.1078"/>
<polygon fill="#444444" fill-opacity="0.333333" stroke="#444444" stroke-opacity="0.333333" points="768.7655,-515.5283 763.7196,-524.8444 773.4738,-520.7083 768.7655,-515.5283"/>
</g>
<!-- postgresql&#45;&gt;Fedora Container Base -->
<g id="edge42" class="edge">
<title>postgresql&#45;&gt;Fedora Container Base</title>
<path fill="none" stroke="#444444" stroke-opacity="0.333333" d="M1151.6922,-347.9645C1069.923,-387.0433 877.5936,-478.9605 789.4659,-521.0781"/>
<polygon fill="#444444" fill-opacity="0.333333" stroke="#444444" stroke-opacity="0.333333" points="787.7713,-518.0088 780.2579,-525.4788 790.7897,-524.3246 787.7713,-518.0088"/>
</g>
<!-- postgresql&#45;&gt;libpq -->
<g id="edge43" class="edge">
<title>postgresql&#45;&gt;libpq</title>
<path fill="none" stroke="#444444" stroke-opacity="0.333333" d="M1174.0765,-311.4063C1159.1011,-293.7757 1136.3552,-266.9968 1119.56,-247.2237"/>
<polygon fill="#444444" fill-opacity="0.333333" stroke="#444444" stroke-opacity="0.333333" points="1122.1342,-244.8479 1112.9928,-239.492 1116.799,-249.3796 1122.1342,-244.8479"/>
</g>
<!-- postgresql&#45;server&#45;&gt;Fedora Container Base -->
<g id="edge44" class="edge">
<title>postgresql&#45;server&#45;&gt;Fedora Container Base</title>
<path fill="none" stroke="#444444" stroke-opacity="0.333333" d="M911.4151,-475.6715C877.7698,-489.165 831.7129,-507.6363 796.4083,-521.7954"/>
<polygon fill="#444444" fill-opacity="0.333333" stroke="#444444" stroke-opacity="0.333333" points="794.7334,-518.696 786.7549,-525.6669 797.3391,-525.193 794.7334,-518.696"/>
</g>
<!-- postgresql&#45;server&#45;&gt;shadow&#45;utils -->
<g id="edge45" class="edge">
<title>postgresql&#45;server&#45;&gt;shadow&#45;utils</title>
<path fill="none" stroke="#444444" stroke-opacity="0.333333" d="M938.1519,-475.7465C888.6536,-524.728 752.2979,-659.6599 695.4995,-715.8652"/>
<polygon fill="#444444" fill-opacity="0.333333" stroke="#444444" stroke-opacity="0.333333" points="692.9915,-713.423 688.3453,-722.9447 697.9152,-718.3987 692.9915,-713.423"/>
</g>
<!-- postgresql&#45;server&#45;&gt;systemd -->
<g id="edge46" class="edge">
<title>postgresql&#45;server&#45;&gt;systemd</title>
<path fill="none" stroke="#444444" stroke-opacity="0.333333" d="M832.6052,-475.6089C759.8692,-486.1874 670.5232,-499.1817 609.3989,-508.0714"/>
<polygon fill="#444444" fill-opacity="0.333333" stroke="#444444" stroke-opacity="0.333333" points="608.8528,-504.6139 599.4607,-509.5168 609.8604,-511.541 608.8528,-504.6139"/>
</g>
<!-- postgresql&#45;server&#45;&gt;libicu -->
<g id="edge47" class="edge">
<title>postgresql&#45;server&#45;&gt;libicu</title>
<path fill="none" stroke="#444444" stroke-opacity="0.333333" d="M1059.7647,-475.6527C1094.1805,-481.6727 1131.5446,-488.2083 1162.2632,-493.5815"/>
<polygon fill="#444444" fill-opacity="0.333333" stroke="#444444" stroke-opacity="0.333333" points="1161.9586,-497.0813 1172.4121,-495.3567 1163.1647,-490.186 1161.9586,-497.0813"/>
</g>
<!-- postgresql&#45;server&#45;&gt;libpq -->
<g id="edge48" class="edge">
<title>postgresql&#45;server&#45;&gt;libpq</title>
<path fill="none" stroke="#444444" stroke-opacity="0.333333" d="M967.3376,-439.4464C992.0118,-398.1385 1052.4801,-296.9066 1081.5203,-248.2896"/>
<polygon fill="#444444" fill-opacity="0.333333" stroke="#444444" stroke-opacity="0.333333" points="1084.6022,-249.9553 1086.7255,-239.5754 1078.5926,-246.3656 1084.6022,-249.9553"/>
</g>
<!-- postgresql&#45;server&#45;&gt;postgresql -->
<g id="edge49" class="edge">
<title>postgresql&#45;server&#45;&gt;postgresql</title>
<path fill="none" stroke="#444444" stroke-opacity="0.333333" d="M989.4173,-439.5518C1030.88,-416.8309 1102.1812,-377.759 1147.5779,-352.8823"/>
<polygon fill="#444444" fill-opacity="0.333333" stroke="#444444" stroke-opacity="0.333333" points="1149.4858,-355.8279 1156.5735,-347.9528 1146.1218,-349.6891 1149.4858,-355.8279"/>
</g>
<!-- postgresql&#45;server&#45;&gt;postgresql&#45;server -->
<g id="edge50" class="edge">
<title>postgresql&#45;server&#45;&gt;postgresql&#45;server</title>
<path fill="none" stroke="#444444" stroke-opacity="0.333333" d="M1100.5234,-462.6788C1111.6441,-461.5538 1118.5,-459.8576 1118.5,-457.59 1118.5,-456.1373 1115.6863,-454.9191 1110.7402,-453.9354"/>
<polygon fill="#444444" fill-opacity="0.333333" stroke="#444444" stroke-opacity="0.333333" points="1110.9129,-450.4254 1100.5234,-452.5012 1109.9397,-457.3574 1110.9129,-450.4254"/>
</g>
<!-- Fedora Container Base -->
<g id="node1" class="node">
<title>Fedora Container Base</title>
<ellipse fill="none" stroke="#000000" cx="743.91" cy="-542.85" rx="136.5" ry="18"/>
<text text-anchor="middle" x="743.91" y="-539.15" font-family="Helvetica,sans-Serif" font-weight="bold" font-size="14.00" fill="#000000">Fedora Container Base (201.3 MB)</text>
</g>
<!-- device&#45;mapper&#45;libs -->
<g id="node2" class="node">
<title>device&#45;mapper&#45;libs</title>
<text text-anchor="middle" x="1064.9" y="-905.21" font-family="Helvetica,sans-Serif" font-weight="bold" font-size="14.00" fill="#000000">device&#45;mapper&#45;libs (418.0 kB)</text>
</g>
<!-- device&#45;mapper -->
<g id="node3" class="node">
<title>device&#45;mapper</title>
<text text-anchor="middle" x="835.9" y="-818.97" font-family="Helvetica,sans-Serif" font-weight="bold" font-size="14.00" fill="#000000">device&#45;mapper (349.9 kB)</text>
</g>
<!-- libargon2 -->
<g id="node4" class="node">
<title>libargon2</title>
<text text-anchor="middle" x="1225.8" y="-739.58" font-family="Helvetica,sans-Serif" font-weight="bold" font-size="14.00" fill="#000000">libargon2 (54.2 kB)</text>
</g>
<!-- dbus&#45;broker -->
<g id="node5" class="node">
<title>dbus&#45;broker</title>
<text text-anchor="middle" x="359.07" y="-572.8" font-family="Helvetica,sans-Serif" font-weight="bold" font-size="14.00" fill="#000000">dbus&#45;broker (409.7 kB)</text>
</g>
<!-- dbus&#45;common -->
<g id="node6" class="node">
<title>dbus&#45;common</title>
<text text-anchor="middle" x="365.52" y="-398.35" font-family="Helvetica,sans-Serif" font-weight="bold" font-size="14.00" fill="#000000">dbus&#45;common (11.2 kB)</text>
</g>
<!-- shadow&#45;utils -->
<g id="node7" class="node">
<title>shadow&#45;utils</title>
<text text-anchor="middle" x="670.15" y="-737.25" font-family="Helvetica,sans-Serif" font-weight="bold" font-size="14.00" fill="#000000">shadow&#45;utils (4.0 MB)</text>
</g>
<!-- systemd -->
<g id="node8" class="node">
<title>systemd</title>
<text text-anchor="middle" x="537.9" y="-514.77" font-family="Helvetica,sans-Serif" font-weight="bold" font-size="14.00" fill="#000000">systemd (13.1 MB)</text>
</g>
<!-- libsemanage -->
<g id="node9" class="node">
<title>libsemanage</title>
<text text-anchor="middle" x="605.45" y="-1055.1" font-family="Helvetica,sans-Serif" font-weight="bold" font-size="14.00" fill="#000000">libsemanage (304.5 kB)</text>
</g>
<!-- util&#45;linux -->
<g id="node10" class="node">
<title>util&#45;linux</title>
<text text-anchor="middle" x="639.1" y="-881.63" font-family="Helvetica,sans-Serif" font-weight="bold" font-size="14.00" fill="#000000">util&#45;linux (13.5 MB)</text>
</g>
<!-- acl -->
<g id="node11" class="node">
<title>acl</title>
<text text-anchor="middle" x="290.73" y="-282.81" font-family="Helvetica,sans-Serif" font-weight="bold" font-size="14.00" fill="#000000">acl (209.6 kB)</text>
</g>
<!-- cryptsetup&#45;libs -->
<g id="node12" class="node">
<title>cryptsetup&#45;libs</title>
<text text-anchor="middle" x="985.92" y="-693.07" font-family="Helvetica,sans-Serif" font-weight="bold" font-size="14.00" fill="#000000">cryptsetup&#45;libs (1.8 MB)</text>
</g>
<!-- dbus -->
<g id="node13" class="node">
<title>dbus</title>
<text text-anchor="middle" x="42.5" y="-502.13" font-family="Helvetica,sans-Serif" font-weight="bold" font-size="14.00" fill="#000000">dbus (0.0 B)</text>
</g>
<!-- iptables&#45;libs -->
<g id="node14" class="node">
<title>iptables&#45;libs</title>
<text text-anchor="middle" x="795.66" y="-181.5" font-family="Helvetica,sans-Serif" font-weight="bold" font-size="14.00" fill="#000000">iptables&#45;libs (141.4 kB)</text>
</g>
<!-- kmod&#45;libs -->
<g id="node15" class="node">
<title>kmod&#45;libs</title>
<text text-anchor="middle" x="435.5" y="-183.69" font-family="Helvetica,sans-Serif" font-weight="bold" font-size="14.00" fill="#000000">kmod&#45;libs (127.5 kB)</text>
</g>
<!-- libfdisk -->
<g id="node16" class="node">
<title>libfdisk</title>
<text text-anchor="middle" x="461.7" y="-852.32" font-family="Helvetica,sans-Serif" font-weight="bold" font-size="14.00" fill="#000000">libfdisk (472.7 kB)</text>
</g>
<!-- libseccomp -->
<g id="node17" class="node">
<title>libseccomp</title>
<text text-anchor="middle" x="580.66" y="-111.52" font-family="Helvetica,sans-Serif" font-weight="bold" font-size="14.00" fill="#000000">libseccomp (351.1 kB)</text>
</g>
<!-- qrencode&#45;libs -->
<g id="node18" class="node">
<title>qrencode&#45;libs</title>
<text text-anchor="middle" x="638.51" y="-251.22" font-family="Helvetica,sans-Serif" font-weight="bold" font-size="14.00" fill="#000000">qrencode&#45;libs (158.2 kB)</text>
</g>
<!-- systemd&#45;pam -->
<g id="node19" class="node">
<title>systemd&#45;pam</title>
<text text-anchor="middle" x="321.83" y="-782.22" font-family="Helvetica,sans-Serif" font-weight="bold" font-size="14.00" fill="#000000">systemd&#45;pam (867.6 kB)</text>
</g>
<!-- systemd&#45;rpm&#45;macros -->
<g id="node20" class="node">
<title>systemd&#45;rpm&#45;macros</title>
<text text-anchor="middle" x="237.78" y="-624.36" font-family="Helvetica,sans-Serif" font-weight="bold" font-size="14.00" fill="#000000">systemd&#45;rpm&#45;macros (7.9 kB)</text>
</g>
<!-- libutempter -->
<g id="node21" class="node">
<title>libutempter</title>
<text text-anchor="middle" x="802.22" y="-1017.6" font-family="Helvetica,sans-Serif" font-weight="bold" font-size="14.00" fill="#000000">libutempter (57.8 kB)</text>
</g>
<!-- libpcap -->
<g id="node22" class="node">
<title>libpcap</title>
<text text-anchor="middle" x="913.83" y="-14.3" font-family="Helvetica,sans-Serif" font-weight="bold" font-size="14.00" fill="#000000">libpcap (387.4 kB)</text>
</g>
<!-- libicu -->
<g id="node23" class="node">
<title>libicu</title>
<text text-anchor="middle" x="1227.6" y="-501.31" font-family="Helvetica,sans-Serif" font-weight="bold" font-size="14.00" fill="#000000">libicu (32.1 MB)</text>
</g>
<!-- libpq -->
<g id="node24" class="node">
<title>libpq</title>
<text text-anchor="middle" x="1097.6" y="-217.67" font-family="Helvetica,sans-Serif" font-weight="bold" font-size="14.00" fill="#000000">libpq (710.3 kB)</text>
</g>
<!-- postgresql -->
<g id="node25" class="node">
<title>postgresql</title>
<text text-anchor="middle" x="1189.7" y="-326.1" font-family="Helvetica,sans-Serif" font-weight="bold" font-size="14.00" fill="#000000">postgresql (5.7 MB)</text>
</g>
<!-- postgresql&#45;server -->
<g id="node26" class="node">
<title>postgresql&#45;server</title>
<text text-anchor="middle" x="956.5" y="-451.99" font-family="Helvetica,sans-Serif" font-weight="bold" font-size="22.00" fill="#cc0066">postgresql&#45;server (21.4 MB)</text>
</g>
</g>

<script type="text/javascript"><![CDATA[

document.addEventListener('click', function(e) {
      e = e || window.event;
      var target = e.target || e.srcElement;
      text = target.parentElement.querySelector("title").textContent;

      console.log("Clicked on: " + text);
      // reset all strokes
      var nodes = document.getElementsByClassName("edge");

      for (index = 0, len = nodes.length; index < len; ++index) {
          //var title = nodes[index].querySelector("title").textContent.split("->");
          id = nodes[index].id;
          document.getElementById(id).querySelector("path").setAttribute("stroke-width", "1");
          document.getElementById(id).querySelector("path").setAttribute("stroke-opacity", "0.5");
          document.getElementById(id).querySelector("path").setAttribute("stroke", "#444444");
          document.getElementById(id).querySelector("polygon").setAttribute("stroke-width", "1");
          document.getElementById(id).querySelector("polygon").setAttribute("stroke-opacity", "0.5");
          document.getElementById(id).querySelector("polygon").setAttribute("stroke", "#444444");
      }
      // reset text highlight
      pkgs = document.getElementsByClassName("node");
      for (index2 = 0, len2 = pkgs.length; index2 < len2; ++index2) {
          target_id = pkgs[index2].id;
          document.getElementById(target_id).querySelector("text").setAttribute("font-weight", "normal");
      }

      // highlight deps
      var nodes = document.getElementsByClassName("edge");
      for (index = 0, len = nodes.length; index < len; ++index) {
        var title = nodes[index].querySelector("title").textContent.split("->");

        if (title[0] == text) {
          id = nodes[index].id;
          //console.log("ID:   " + id);
          document.getElementById(id).querySelector("path").setAttribute("stroke-width", "3");
          document.getElementById(id).querySelector("path").setAttribute("stroke-opacity", "1");
          document.getElementById(id).querySelector("path").setAttribute("stroke", "#aa3333");
          document.getElementById(id).querySelector("polygon").setAttribute("stroke-width", "5");
          document.getElementById(id).querySelector("polygon").setAttribute("stroke-opacity", "1");
          document.getElementById(id).querySelector("polygon").setAttribute("stroke", "#aa3333");

        }
        if (title[1] == text) {
          id = nodes[index].id;
          document.getElementById(id).querySelector("path").setAttribute("stroke-width", "3");
          document.getElementById(id).querySelector("path").setAttribute("stroke-opacity", "1");
          document.getElementById(id).querySelector("path").setAttribute("stroke", "#333377");
          document.getElementById(id).querySelector("polygon").setAttribute("stroke-width", "5");
          document.getElementById(id).querySelector("polygon").setAttribute("stroke-opacity", "1");
          document.getElementById(id).querySelector("polygon").setAttribute("stroke", "#333377");
        }

        if (title[0] == text || title[1] == text) {
          pkgs = document.getElementsByClassName("node");
          for (index2 = 0, len2 = pkgs.length; index2 < len2; ++index2) {
            var pkg_name = pkgs[index2].querySelector("title").textContent;
            if (pkg_name == title[0] || pkg_name == title[1]) {
              target_id = pkgs[index2].id;
              document.getElementById(target_id).querySelector("text").setAttribute("font-weight", "bold");
            }
          }
        }
      }


  }, false);

]]></script>

</svg>
