<?xml version="1.0" encoding="UTF-8" standalone="no"?>
<!DOCTYPE svg PUBLIC "-//W3C//DTD SVG 1.1//EN"
 "http://www.w3.org/Graphics/SVG/1.1/DTD/svg11.dtd">
<!-- Generated by graphviz version 2.40.1 (0)
 -->
<!-- Title: packages Pages: 1 -->
<svg width="1535pt" height="1176pt"
 viewBox="0.00 0.00 1841.50 1411.51" xmlns="http://www.w3.org/2000/svg" xmlns:xlink="http://www.w3.org/1999/xlink">
<g id="graph0" class="graph" transform="scale(.8333 .8333) rotate(0) translate(142.4723 1278.7107)">
<title>packages</title>
<polygon fill="#dae2ff" stroke="transparent" points="-142.4723,132.8036 -142.4723,-1278.7107 1699.0245,-1278.7107 1699.0245,132.8036 -142.4723,132.8036"/>
<polygon fill="#fed9a6" stroke="#fed9a6" points="682.6658,-553.0184 669.811,-563.914 667.8092,-565.7952 664.3912,-568.4811 653.8135,-576.0282 611.0756,-600.0944 600.3406,-606.9879 591.1777,-614.2711 589.7299,-615.5303 578.3972,-626.2855 577.167,-627.6386 564.7771,-639.1848 559.6932,-644.55 556.3477,-647.8525 548.0351,-657.5707 535.989,-672.4042 529.1622,-681.6218 523.9277,-689.3378 515.5235,-688.1417 511.8617,-687.767 494.023,-686.2967 484.7216,-686.2736 483.7746,-686.2515 478.1858,-686.0052 464.3392,-685.9491 451.5815,-685.1024 441.1628,-683.9782 414.5025,-625.661 403.4723,-596.6967 401.9175,-592.1122 402.6049,-590.8392 416.1463,-570.8734 433.9766,-549.0648 464.7153,-548.7937 476.7276,-552.1674 482.6537,-548.4352 484.356,-545.9779 486.7403,-545.9779 492.8461,-628.4351 494.2287,-664.3586 498.6032,-587.924 498.6032,-587.924 494.2287,-664.3586 492.8461,-628.4351 486.7403,-545.9779 484.356,-545.9779 482.6537,-548.4352 476.7276,-552.1674 464.7153,-548.7937 433.9766,-549.0648 439.9103,-539.1052 456.5109,-504.7435 462.9465,-495.631 472.3952,-484.074 484.9554,-467.0389 494.4196,-451.9317 502.605,-437.9158 517.7576,-406.4475 524.6873,-390.4326 526.7314,-390.481 529.246,-390.4502 529.3398,-390.4523 534.5168,-393.8427 553.1692,-405.0991 563.7968,-410.6736 565.9892,-411.7095 580.6736,-418.2738 601.8127,-426.0804 606.0534,-427.3116 666.3215,-443.2535 681.786,-448.159 689.091,-450.6647 702.9573,-456.5031 703.6705,-456.8217 731.4176,-470.6803 738.3342,-491.1836 704.3312,-530.3595 701.3021,-533.3199 690.8486,-544.9948 682.6658,-553.0184 682.6658,-553.0184"/>
<polygon fill="#fbb4ae" stroke="#fbb4ae" points="475.451,-825.2365 481.3005,-820.5169 484.7216,-686.2736 494.023,-686.2967 511.8617,-687.767 515.5235,-688.1417 523.9277,-689.3378 559.5586,-722.8997 544.0764,-825.764 543.931,-827.2191 543.9296,-844.74 535.877,-898.2419 534.9042,-898.623 531.9276,-899.6751 478.7368,-916.4655 471.0738,-919.4662 469.2594,-920.2457 468.1734,-920.7545 446.6204,-963.944 435.8603,-983.6702 443.7115,-1001.0912 466.3143,-1062.4357 466.6544,-1063.272 487.3556,-1105.8829 483.8994,-1124.1 467.3726,-1185.5466 372.7129,-1209.6572 371.8795,-1209.886 366.202,-1209.6213 357.634,-1209.5386 347.0797,-1209.8267 330.5536,-1210.8893 322.4644,-1212.0078 310.6255,-1213.865 301.1573,-1215.701 289.1427,-1218.2528 287.5146,-1218.6283 289.2839,-1099.5879 289.2839,-1099.5879 287.5146,-1218.6283 274.3057,-1222.1615 259.1325,-1213.8838 175.3432,-1154.5425 157.1582,-1124.0258 148.839,-1086.1473 147.2643,-1079.6661 151.0776,-1055.5092 152.1817,-1051.6381 172.8844,-964.1749 166.1222,-943.1353 151.9511,-902.1383 149.9315,-896.652 80.2938,-828.5197 88.2477,-817.7463 92.2275,-812.5342 110.0696,-791.4445 115.7218,-785.4978 127.3635,-772.6652 132.7481,-766.9901 143.6473,-754.8679 197.1818,-691.6552 251.4146,-691.9248 252.0603,-691.8766 254.8763,-692.0065 263.4388,-692.0594 268.9913,-691.8716 270.0181,-691.7957 272.9799,-691.8163 278.1703,-692.0621 281.4048,-692.0859 282.124,-729.287 279.7211,-763.903 286.3139,-768.0521 286.6364,-768.4321 286.347,-768.7679 286.347,-768.7679 286.6364,-768.4321 290.0306,-768.4321 290.0345,-768.431 290.0345,-768.431 290.0306,-768.4321 286.6364,-768.4321 286.3139,-768.0521 279.7211,-763.903 282.124,-729.287 281.4048,-692.0859 283.2042,-691.9554 292.8914,-692.0345 296.5096,-691.7746 305.5352,-691.8554 306.9657,-691.7542 309.0977,-691.6893 318.7045,-692.1691 411.6882,-700.5552 429.8353,-690.9466 431.3783,-690.0426 439.5073,-685.0439 441.1628,-683.9782 451.5815,-685.1024 464.3392,-685.9491 478.1858,-686.0052 483.7746,-686.2515 484.7216,-686.2736 481.3005,-820.5169 475.451,-825.2365 475.319,-825.449 473.9238,-826.5033 471.7763,-826.5033 465.8081,-786.3297 464.765,-769.4158 458.9696,-823.058 454.4928,-821.7567 448.0446,-823.7402 444.9949,-826.395 443.4408,-826.395 442.9118,-826.5555 445.0861,-896.6276 446.3517,-898.08 428.3965,-898.08 381.6737,-891.7692 382.3305,-846.0935 376.5278,-841.1861 372.5319,-837.4056 371.7631,-836.8334 363.6479,-830.1227 356.6274,-823.1569 349.7492,-826.1276 345.48,-827.5571 343.5743,-858.6045 338.1147,-895.2486 335.2856,-897.6349 335.0156,-898.0582 338.7422,-901.2838 338.7422,-901.2838 335.0156,-898.0582 335.2856,-897.6349 338.1147,-895.2486 343.5743,-858.6045 345.48,-827.5571 349.7492,-826.1276 356.6274,-823.1569 363.6479,-830.1227 371.7631,-836.8334 372.5319,-837.4056 376.5278,-841.1861 382.3305,-846.0935 381.6737,-891.7692 428.3965,-898.08 446.3517,-898.08 445.0861,-896.6276 442.9118,-826.5555 443.4408,-826.395 444.9949,-826.395 448.5236,-829.7024 454.0674,-831.4579 454.0674,-831.4579 448.5236,-829.7024 444.9949,-826.395 448.0446,-823.7402 454.4928,-821.7567 458.9696,-823.058 464.765,-769.4158 465.8081,-786.3297 471.7763,-826.5033 473.9238,-826.5033 475.319,-825.449 475.451,-825.2365 475.451,-825.2365"/>
<polygon fill="#fed9a6" stroke="#fed9a6" points="575.6445,-987.194 570.1534,-983.9172 570.7963,-912.2605 563.3997,-910.124 556.8893,-907.964 546.6155,-903.6667 535.877,-898.2419 534.9042,-898.623 531.9276,-899.6751 478.7368,-916.4655 471.0738,-919.4662 469.2594,-920.2457 468.1734,-920.7545 446.6204,-963.944 435.8603,-983.6702 443.7115,-1001.0912 466.3143,-1062.4357 466.6544,-1063.272 487.3556,-1105.8829 483.8994,-1124.1 467.3726,-1185.5466 565.5281,-1266.6167 609.8568,-1264.1736 605.7842,-1130.411 605.7842,-1130.411 609.8568,-1264.1736 610.8513,-1264.1384 623.4254,-1264.1891 637.9241,-1264.8195 642.0334,-1265.1598 645.5327,-1265.5878 663.8242,-1268.1885 699.7675,-1274.7107 734.7303,-1269.0521 844.8764,-1190.2313 852.9957,-1181.021 843.1876,-1132.1346 839.2296,-1108.255 834.6205,-1077.1266 825.6051,-1028.0784 764.6453,-992.7795 758.3879,-983.5848 731.1047,-969.0859 685.4703,-941.9484 668.1394,-932.3105 662.9672,-929.6509 662.2234,-929.2995 647.6864,-923.5948 635.4319,-920.2755 622.1567,-917.7557 611.6113,-916.6156 610.6613,-916.5516 610.1849,-916.5389 606.9839,-916.5826 597.4288,-916.3 589.4682,-915.7199 583.49,-915.0265 583.4203,-915.0154 575.4395,-913.4005 570.7963,-912.2605 570.1534,-983.9172 575.6445,-987.194 576.7848,-988.5526 576.4584,-988.9362 576.4584,-988.9362 576.7848,-988.5526 575.6445,-987.194 575.6445,-987.194"/>
<polygon fill="#decbe4" stroke="#decbe4" points="1166.6709,-1198.8674 1102.02,-1196.1908 1090.8185,-1195.9548 1079.2454,-1195.9471 1074.4609,-1196.1387 1073.0607,-1123.1404 1074.8485,-1055.3309 1074.7467,-1055.3005 1074.7467,-1055.3005 1074.8485,-1055.3309 1073.0607,-1123.1404 1074.4609,-1196.1387 1057.7694,-1197.488 1057.5966,-1185.3691 1055.5275,-1128.5302 1053.248,-1099.347 1046.8738,-1058.1849 1053.1947,-1060.1396 1058.8246,-1058.3972 1062.4565,-1055.1201 1058.8005,-1052.0167 1053.5024,-1050.4814 1053.5024,-1050.4814 1058.8005,-1052.0167 1062.4565,-1055.1201 1058.8246,-1058.3972 1053.1947,-1060.1396 1046.8738,-1058.1849 1053.248,-1099.347 1055.5275,-1128.5302 1057.5966,-1185.3691 1057.7694,-1197.488 1036.741,-1200.9061 1039.2308,-1090.7228 1043.5959,-1055.7119 1043.0157,-1055.5363 1043.0157,-1055.5363 1043.5959,-1055.7119 1039.2308,-1090.7228 1036.741,-1200.9061 1029.6721,-1202.3423 1029.222,-1091.8027 1032.5961,-1055.759 1031.8184,-1055.5178 1031.8184,-1055.5178 1032.5961,-1055.759 1029.222,-1091.8027 1029.6721,-1202.3423 1017.9737,-1205.1963 1010.8267,-1207.0847 979.4617,-1216.6448 852.9957,-1181.021 843.1876,-1132.1346 839.2296,-1108.255 834.6205,-1077.1266 825.6051,-1028.0784 764.6453,-992.7795 758.3879,-983.5848 731.1047,-969.0859 685.4703,-941.9484 668.1394,-932.3105 662.9672,-929.6509 662.2234,-929.2995 647.6864,-923.5948 635.4319,-920.2755 634.8769,-886.0195 637.2543,-848.4351 641.6329,-849.6357 647.0691,-848.0673 650.904,-844.7336 646.6503,-841.0413 642.3798,-839.8643 642.3798,-839.8643 646.6503,-841.0413 650.904,-844.7336 647.0691,-848.0673 641.6329,-849.6357 637.2543,-848.4351 634.8769,-886.0195 635.4319,-920.2755 622.1567,-917.7557 611.6113,-916.6156 610.6613,-916.5516 610.1849,-916.5389 606.9839,-916.5826 597.4288,-916.3 589.4682,-915.7199 583.49,-915.0265 583.4203,-915.0154 575.4395,-913.4005 570.7963,-912.2605 563.3997,-910.124 556.8893,-907.964 546.6155,-903.6667 535.877,-898.2419 543.9296,-844.74 543.931,-827.2191 544.0764,-825.764 559.5586,-722.8997 523.9277,-689.3378 529.1622,-681.6218 535.989,-672.4042 548.0351,-657.5707 556.3477,-647.8525 559.6932,-644.55 564.7771,-639.1848 577.167,-627.6386 578.3972,-626.2855 589.7299,-615.5303 591.1777,-614.2711 600.3406,-606.9879 611.0756,-600.0944 653.8135,-576.0282 654.2745,-597.5789 658.4067,-632.5247 658.4746,-632.6354 662.2236,-632.6354 662.421,-632.6924 662.8737,-672.0599 669.0254,-633.2315 671.2992,-633.2315 671.8551,-633.8362 678.2444,-637.536 682.6923,-637.536 688.7688,-634.0253 689.5302,-633.1836 692.4662,-633.1836 696.0958,-672.6358 699.0476,-633.2145 700.941,-633.2145 703.5096,-636.721 708.5614,-639.4356 710.7917,-706.1915 731.6569,-677.99 738.6478,-677.99 774.9059,-684.3845 779.149,-681.6226 781.1307,-678.328 781.1307,-678.328 779.149,-681.6226 774.9059,-684.3845 738.6478,-677.99 731.6569,-677.99 710.7917,-706.1915 708.5614,-639.4356 703.5096,-636.721 700.941,-633.2145 699.0476,-633.2145 696.0958,-672.6358 692.4662,-633.1836 689.5302,-633.1836 688.7688,-634.0253 682.6923,-637.536 678.2444,-637.536 671.8551,-633.8362 671.2992,-633.2315 669.0254,-633.2315 662.8737,-672.0599 662.421,-632.6924 662.2236,-632.6354 658.4746,-632.6354 658.4067,-632.5247 654.2745,-597.5789 653.8135,-576.0282 664.3912,-568.4811 667.8092,-565.7952 669.811,-563.914 682.6658,-553.0184 690.8486,-544.9948 701.3021,-533.3199 704.3312,-530.3595 738.3342,-491.1836 731.4176,-470.6803 703.6705,-456.8217 702.9573,-456.5031 689.091,-450.6647 681.786,-448.159 677.061,-325.5665 678.8057,-325.5665 682.3474,-328.6457 687.8479,-330.2962 687.8479,-330.2962 682.3474,-328.6457 678.8057,-325.5665 677.061,-325.5665 681.786,-448.159 666.3215,-443.2535 606.0534,-427.3116 601.8127,-426.0804 580.6736,-418.2738 565.9892,-411.7095 563.7968,-410.6736 553.1692,-405.0991 534.5168,-393.8427 529.3398,-390.4523 551.0422,-360.1228 557.2775,-352.5342 559.3687,-350.109 564.7932,-344.119 570.1558,-338.4962 571.537,-336.8481 579.6139,-327.7394 600.1122,-306.0125 660.8214,-235.25 662.1807,-233.9814 669.7656,-226.4346 682.7297,-212.754 695.964,-196.4573 704.3239,-185.1818 709.5741,-185.1416 711.7421,-185.1705 707.606,-287.516 707.606,-287.516 711.7421,-185.1705 715.1771,-185.0781 810.3264,-140.3975 819.2337,-136.006 825.2783,-132.7437 835.1108,-127.206 836.3298,-126.4913 849.2032,-118.6417 849.3842,-135.8128 846.8121,-233.6663 842.7283,-281.0481 837.9461,-282.4055 833.9677,-285.8133 837.8945,-289.2346 843.0268,-290.7241 843.0268,-290.7241 837.8945,-289.2346 833.9677,-285.8133 837.9461,-282.4055 842.7283,-281.0481 846.8121,-233.6663 849.3842,-135.8128 849.2032,-118.6417 867.8582,-105.5145 872.2883,-107.4016 873.3715,-107.8435 872.0397,-237.6553 868.3723,-285.7598 863.3952,-285.7598 863.334,-285.7772 859.9485,-285.7772 859.9485,-285.7772 863.334,-285.7772 863.3952,-285.7598 868.3723,-285.7598 872.0397,-237.6553 873.3715,-107.8435 937.0046,-131.5517 1012.2385,-203.1204 983.1277,-265.7016 961.8104,-319.3086 953.3641,-342.9758 964.2891,-357.6463 974.4256,-373.6759 1005.3646,-427.7043 1041.5302,-479.3682 1046.332,-485.8162 1003.7755,-506.3411 998.9581,-508.4885 997.671,-509.0153 985.9547,-513.3914 972.3347,-517.4844 962.442,-519.3734 950.472,-520.7912 940.6628,-521.5947 932.9083,-522.5083 921.662,-524.2366 917.0968,-525.2631 915.4307,-441.5062 911.9756,-441.5062 909.8545,-439.0049 905.9542,-436.8347 905.9542,-436.8347 909.8545,-439.0049 911.9756,-441.5062 915.4307,-441.5062 917.0968,-525.2631 909.7874,-527.1688 902.7222,-529.2623 895.8973,-531.7716 888.3351,-534.8228 886.8283,-535.4839 873.1331,-541.9868 844.8774,-558.3932 866.1721,-587.7427 888.2236,-623.2592 918.5915,-677.99 952.8096,-725.1513 953.6472,-726.4229 960.6842,-728.4718 972.8097,-732.2937 981.0864,-735.4967 990.8149,-728.9366 1003.6038,-721.4844 1092.9955,-674.8408 1108.311,-666.3598 1121.5225,-658.2292 1128.449,-653.5455 1128.474,-695.6537 1125.6462,-789.7026 1120.8827,-786.8613 1120.8827,-786.8613 1125.6462,-789.7026 1126.9369,-791.2704 1126.144,-792.2015 1120.3453,-795.6777 1115.5948,-795.6777 1108.67,-791.442 1108.5516,-791.3089 1105.8121,-791.3089 1105.3367,-792.0758 1099.2999,-797.2119 1049.8953,-795.4267 994.6157,-796.9772 998.1148,-822.2639 1007.1949,-867.6774 894.6059,-841.9445 891.0119,-837.8209 889.5096,-837.0816 886.9136,-894.2869 883.1263,-836.9004 877.8453,-836.9004 876.8773,-836.6077 874.1605,-836.6077 872.618,-837.0729 868.4787,-837.0729 866.5311,-834.6437 862.6454,-832.3973 862.6454,-832.3973 866.5311,-834.6437 868.4787,-837.0729 872.618,-837.0729 874.1605,-836.6077 876.8773,-836.6077 877.8453,-836.9004 883.1263,-836.9004 886.9136,-894.2869 889.5096,-837.0816 891.0119,-837.8209 894.6059,-841.9445 1007.1949,-867.6774 998.1148,-822.2639 994.6157,-796.9772 1049.8953,-795.4267 1099.2999,-797.2119 1105.3367,-792.0758 1105.8121,-791.3089 1108.5516,-791.3089 1108.67,-791.442 1115.5948,-795.6777 1120.3453,-795.6777 1126.144,-792.2015 1126.9369,-791.2704 1125.6462,-789.7026 1128.474,-695.6537 1128.449,-653.5455 1134.3192,-649.2128 1171.5656,-620.5551 1185.043,-610.9495 1269.2816,-717.5314 1269.7347,-719.0914 1279.6548,-754.3502 1280.181,-761.8356 1273.3663,-787.0896 1270.6859,-799.1396 1253.0126,-888.1201 1215.6116,-939.1403 1234.3818,-1006.285 1233.6139,-1011.0413 1224.5718,-1076.2858 1221.2955,-1112.6915 1216.1296,-1142.073 1166.6709,-1198.8674 1166.6709,-1198.8674"/>
<polygon fill="#ccebc5" stroke="#ccebc5" points="-138.4723,-405.7746 -127.0271,-392.3481 -51.4841,-300.3532 40.8145,-323.4552 42.0691,-323.7353 52.879,-325.8585 58.336,-326.6357 60.787,-326.9188 76.8733,-328.3447 81.3818,-328.3788 88.5292,-328.6322 95.1952,-328.6881 95.8955,-328.6561 98.6432,-328.4559 111.411,-328.2386 112.85,-328.2542 114.7371,-328.3271 115.6742,-328.3893 116.9243,-328.4384 137.306,-330.3777 141.3794,-330.991 176.2801,-337.2162 179.1335,-343.0166 189.5199,-365.7041 211.1253,-416.994 216.6162,-429.0135 232.0059,-460.3153 283.2272,-437.7226 296.0028,-432.5415 306.9214,-428.517 316.5782,-426.0295 327.5417,-423.6095 330.4005,-423.0854 333.6872,-422.7249 342.3593,-422.0908 349.9285,-421.8159 353.3958,-421.5578 355.423,-421.6311 365.8503,-421.6112 368.7307,-421.496 373.9818,-421.0858 381.2892,-420.2364 386.5983,-419.4174 394.3403,-417.9291 399.9133,-416.4348 405.1084,-414.8428 416.925,-410.7683 418.9287,-410.0027 492.5718,-379.0805 486.6357,-371.7577 477.7144,-361.62 475.8313,-359.5726 470.1774,-353.9527 460.0882,-342.7533 448.2177,-330.8921 439.5086,-323.1689 365.2822,-252.07 354.902,-241.4638 352.2237,-238.9017 345.5303,-232.1321 345.3539,-231.9738 337.6956,-224.7348 330.1085,-216.8371 320.9653,-205.9373 315.7196,-205.8963 315.8408,-105.9919 319.2417,-72.0269 323.4693,-74.4895 329.3358,-74.4895 335.5388,-70.7475 335.7319,-70.5298 339.5016,-70.5298 339.9122,-70.4078 344.3553,-70.4078 345.3494,-70.1038 344.1465,3.5167 351.2662,-68.4083 355.6588,-64.3884 407.4082,-60.3769 394.2922,-27.8933 435.028,-22.0378 445.9773,-24.4919 450.6441,-21.5626 456.3624,-86.5806 458.0724,-126.3984 460.9287,-126.4399 461.9044,-19.3356 467.1304,-22.4525 467.1304,-22.4525 461.9044,-19.3356 460.9287,-126.4399 458.0724,-126.3984 456.3624,-86.5806 450.6441,-21.5626 445.9773,-24.4919 435.028,-22.0378 394.2922,-27.8933 407.4082,-60.3769 355.6588,-64.3884 351.2662,-68.4083 344.1465,3.5167 345.3494,-70.1038 344.3553,-70.4078 339.9122,-70.4078 339.5016,-70.5298 335.7319,-70.5298 333.9849,-68.3874 329.6362,-65.8421 329.6362,-65.8421 333.9849,-68.3874 335.7319,-70.5298 335.5388,-70.7475 329.3358,-74.4895 323.4693,-74.4895 319.2417,-72.0269 315.8408,-105.9919 315.7196,-205.8963 313.2161,-205.9821 309.4488,-205.9562 308.2041,-205.9739 297.3894,-205.9045 299.2304,-112.0204 299.2304,-112.0204 297.3894,-205.9045 292.1811,-206.0904 291.5683,-206.0871 273.3301,-205.6129 267.0658,-198.9614 151.6059,-70.147 145.1464,-63.7934 131.5897,-49.4565 124.9131,-42.1572 112.8476,-28.5393 112.3289,-27.9181 125.6425,3.7256 268.6909,104.1523 298.8802,115.6937 300.1185,115.4861 311.1454,114.1474 317.1123,113.515 319.3078,112.7136 426.5793,118.8166 448.5258,118.1489 467.2948,118.7628 471.9912,119.1139 480.1286,119.8935 481.2107,120.0199 492.5985,121.59 505.6169,123.9317 597.1049,113.4197 633.6549,128.8036 648.8688,123.5726 649.6278,123.3262 662.7505,119.3152 679.4717,114.5271 684.1596,113.3684 699.1407,110.5312 699.153,18.4146 695.9703,-44.8806 691.5068,-44.8806 685.6475,40.541 684.4676,76.5671 679.7355,-40.5618 674.4385,-40.5618 667.9446,-44.6092 667.899,-44.6623 669.6768,-46.8914 674.0151,-49.4404 674.0151,-49.4404 669.6768,-46.8914 667.899,-44.6623 667.9446,-44.6092 674.4385,-40.5618 679.7355,-40.5618 684.4676,76.5671 685.6475,40.541 691.5068,-44.8806 695.9703,-44.8806 699.153,18.4146 699.1407,110.5312 744.7388,103.656 820.4811,62.4117 826.2114,54.4763 838.5156,28.2012 848.2623,-22.9508 855.3667,-56.4103 867.8582,-105.5145 849.2032,-118.6417 836.3298,-126.4913 835.1108,-127.206 825.2783,-132.7437 819.2337,-136.006 810.3264,-140.3975 715.1771,-185.0781 711.7421,-185.1705 709.5741,-185.1416 704.3239,-185.1818 695.964,-196.4573 682.7297,-212.754 669.7656,-226.4346 662.1807,-233.9814 660.8214,-235.25 600.1122,-306.0125 579.6139,-327.7394 571.537,-336.8481 570.1558,-338.4962 564.7932,-344.119 559.3687,-350.109 562.1337,-235.3522 562.8193,-235.1518 555.2307,-160.6469 554.2218,-144.5222 554.2318,-118.4614 538.0568,-122.3026 532.6205,-123.3117 523.2407,-124.8108 513.8344,-126.0697 514.3751,-157.9065 510.1272,-230.9971 505.2917,-233.8275 504.0034,-235.3431 504.6657,-236.1061 504.6657,-236.1061 504.0034,-235.3431 505.2917,-233.8275 510.1272,-230.9971 514.3751,-157.9065 513.8344,-126.0697 523.2407,-124.8108 532.6205,-123.3117 538.0568,-122.3026 554.2318,-118.4614 554.2218,-144.5222 555.2307,-160.6469 562.8193,-235.1518 562.1337,-235.3522 559.3687,-350.109 557.2775,-352.5342 551.0422,-360.1228 529.3398,-390.4523 529.246,-390.4502 526.7314,-390.481 524.6873,-390.4326 517.7576,-406.4475 502.605,-437.9158 494.4196,-451.9317 484.9554,-467.0389 472.3952,-484.074 462.9465,-495.631 456.5109,-504.7435 439.9103,-539.1052 433.9766,-549.0648 416.1463,-570.8734 402.6049,-590.8392 401.9175,-592.1122 385.8678,-580.0282 378.5322,-575.3513 374.9845,-573.2917 371.4663,-571.4466 359.1915,-565.6874 357.5698,-565.0211 357.3078,-564.9282 319.8339,-553.6958 315.0782,-551.9992 302.9158,-546.9621 301.4249,-546.1789 290.7255,-539.9292 286.2545,-537.0665 278.31,-531.0537 268.1146,-523.9925 257.2668,-514.7726 252.2279,-510.2263 251.8965,-509.9099 237.8023,-495.6769 226.4199,-484.7881 162.856,-537.7676 178.9086,-601.316 182.1087,-616.9157 183.23,-624.1046 183.9327,-627.4881 188.8207,-658.5557 197.1818,-691.6552 143.6473,-754.8679 132.7481,-766.9901 127.3635,-772.6652 115.7218,-785.4978 110.0696,-791.4445 92.2275,-812.5342 88.2477,-817.7463 80.2938,-828.5197 79.4042,-828.3937 77.9818,-646.9901 79.0762,-646.6723 83.1032,-650.0281 88.1458,-651.4531 88.1458,-651.4531 83.1032,-650.0281 79.0762,-646.6723 77.9818,-646.9901 79.4042,-828.3937 65.9848,-826.7007 57.0123,-825.9851 47.2774,-822.4778 -36.7744,-793.6766 -91.9332,-696.9985 -81.0508,-646.56 -66.9847,-551.0381 -127.0346,-456.1168 20.0825,-439.6503 39.4323,-441.0368 44.2904,-437.2016 49.0398,-531.4716 49.0982,-534.3305 55.7216,-434.9717 60.5631,-434.9717 58.3943,-540.7184 64.1799,-540.6592 65.7378,-436.7129 70.8433,-439.5561 75.6703,-439.5561 75.6703,-439.5561 70.8433,-439.5561 65.7378,-436.7129 64.1799,-540.6592 58.3943,-540.7184 60.5631,-434.9717 60.5636,-434.9716 64.1874,-434.9716 65.9827,-432.9058 70.2264,-430.5314 70.2264,-430.5314 65.9827,-432.9058 64.1874,-434.9716 60.5636,-434.9716 60.5631,-434.9717 55.7216,-434.9717 49.0982,-534.3305 49.0398,-531.4716 44.2904,-437.2016 39.4323,-441.0368 20.0825,-439.6503 -127.0346,-456.1168 -132.2946,-448.442 -138.4723,-405.7746 -138.4723,-405.7746"/>
<polygon fill="#fed9a6" stroke="#fed9a6" points="354.902,-241.4638 365.2822,-252.07 439.5086,-323.1689 448.2177,-330.8921 460.0882,-342.7533 470.1774,-353.9527 475.8313,-359.5726 477.7144,-361.62 486.6357,-371.7577 492.5718,-379.0805 418.9287,-410.0027 416.925,-410.7683 405.1084,-414.8428 399.9133,-416.4348 394.3403,-417.9291 386.5983,-419.4174 381.2892,-420.2364 373.9818,-421.0858 368.7307,-421.496 365.8503,-421.6112 355.423,-421.6311 353.3958,-421.5578 349.9285,-421.8159 342.3593,-422.0908 333.6872,-422.7249 330.4005,-423.0854 330.2395,-407.4936 332.5362,-342.961 333.4506,-341.8727 332.7443,-341.0575 332.7443,-341.0575 333.4506,-341.8727 332.5362,-342.961 330.2395,-407.4936 330.4005,-423.0854 327.5417,-423.6095 316.5782,-426.0295 306.9214,-428.517 296.0028,-432.5415 283.2272,-437.7226 232.0059,-460.3153 216.6162,-429.0135 211.1253,-416.994 189.5199,-365.7041 179.1335,-343.0166 176.2801,-337.2162 141.3794,-330.991 137.306,-330.3777 116.9243,-328.4384 115.6742,-328.3893 114.7371,-328.3271 112.85,-328.2542 111.411,-328.2386 98.6432,-328.4559 95.8955,-328.6561 95.1952,-328.6881 88.5292,-328.6322 81.3818,-328.3788 76.8733,-328.3447 60.787,-326.9188 58.336,-326.6357 52.879,-325.8585 42.0691,-323.7353 40.8145,-323.4552 -51.4841,-300.3532 -52.4866,-260.7028 -54.8841,-209.8723 -53.9885,-202.7858 -48.9908,-142.3435 -1.8932,-77.7694 85.0743,-40.7894 107.6475,-30.3425 112.3289,-27.9181 112.8476,-28.5393 124.9131,-42.1572 131.5897,-49.4565 145.1464,-63.7934 151.6059,-70.147 267.0658,-198.9614 273.3301,-205.6129 291.5683,-206.0871 292.1811,-206.0904 297.3894,-205.9045 308.2041,-205.9739 309.4488,-205.9562 313.2161,-205.9821 315.7196,-205.8963 320.9653,-205.9373 330.1085,-216.8371 337.6956,-224.7348 345.3539,-231.9738 345.5303,-232.1321 352.2237,-238.9017 354.902,-241.4638 354.902,-241.4638"/>
<polygon fill="#b3cde3" stroke="#b3cde3" points="1050.9088,-364.1329 1050.5663,-364.2672 1045.4946,-369.0377 974.4256,-373.6759 964.2891,-357.6463 953.3641,-342.9758 961.8104,-319.3086 983.1277,-265.7016 1012.2385,-203.1204 1041.9624,-206.8213 1064.0428,-208.7978 1067.838,-209.0037 1080.0299,-209.0228 1090.663,-208.8524 1096.6967,-208.5436 1108.7484,-207.7149 1111.6571,-207.4129 1126.3779,-205.3664 1142.505,-202.8423 1143.3931,-202.8823 1295.1615,-249.3373 1314.2643,-200.8637 1334.5302,-146.5691 1336.5625,-140.3507 1373.0708,-72.0591 1413.5009,-32.5835 1444.3726,-18.5049 1488.5909,-26.0987 1489.1548,-64.1837 1487.9014,-93.3553 1487.9014,-93.3553 1489.1548,-64.1837 1488.5909,-26.0987 1507.2155,-27.7568 1514.6757,-28.266 1520.533,-28.423 1541.3351,-27.6875 1543.7461,-27.4525 1564.3488,-25.0142 1568.2209,-24.3965 1608.9336,-19.6296 1638.2244,-22.2316 1691.5806,-101.1089 1691.5688,-152.3954 1691.9517,-168.8797 1695.0245,-212.7326 1672.9655,-264.5466 1651.9401,-285.3335 1573.1434,-313.8671 1549.875,-322.7824 1534.6848,-329.5303 1532.5334,-330.5291 1514.488,-340.0213 1506.3387,-344.6381 1502.8322,-343.6259 1490.8663,-340.5643 1487.4946,-339.8122 1325.6619,-308.9693 1317.2399,-326.8659 1294.2087,-363.21 1226.7491,-483.295 1186.0988,-546.4847 1136.3229,-519.9413 1110.4581,-506.7172 1098.431,-501.408 1087.76,-497.1927 1074.1824,-492.7689 1064.5107,-489.8429 1050.9214,-486.6789 1048.4667,-486.1647 1046.332,-485.8162 1041.5302,-479.3682 1005.3646,-427.7043 974.4256,-373.6759 1045.4946,-369.0377 1050.5663,-364.2672 1050.9088,-364.1329 1052.3251,-362.9816 1054.4838,-362.9816 1056.1593,-363.4653 1059.8108,-363.4653 1064.8595,-404.2286 1065.4205,-416.7682 1072.1625,-363.6176 1074.7651,-363.6176 1076.2805,-365.2639 1080.8104,-367.7025 1080.8104,-367.7025 1076.2805,-365.2639 1074.7651,-363.6176 1072.1625,-363.6176 1065.4205,-416.7682 1064.8595,-404.2286 1059.8108,-363.4653 1056.1593,-363.4653 1054.4838,-362.9816 1052.3251,-362.9816 1050.9088,-364.1329 1050.9088,-364.1329"/>
<polygon fill="#decbe4" stroke="#decbe4" points="401.9175,-592.1122 403.4723,-596.6967 414.5025,-625.661 441.1628,-683.9782 439.5073,-685.0439 431.3783,-690.0426 429.8353,-690.9466 411.6882,-700.5552 318.7045,-692.1691 309.0977,-691.6893 306.9657,-691.7542 305.5352,-691.8554 296.5096,-691.7746 292.8914,-692.0345 283.2042,-691.9554 281.4048,-692.0859 278.1703,-692.0621 272.9799,-691.8163 270.0181,-691.7957 268.9913,-691.8716 263.4388,-692.0594 254.8763,-692.0065 252.0603,-691.8766 251.4146,-691.9248 197.1818,-691.6552 188.8207,-658.5557 183.9327,-627.4881 183.23,-624.1046 182.1087,-616.9157 178.9086,-601.316 162.856,-537.7676 226.4199,-484.7881 237.8023,-495.6769 251.8965,-509.9099 252.2279,-510.2263 254.043,-615.2568 253.8035,-615.3317 254.2183,-655.5746 260.7616,-615.6407 263.3413,-615.6407 264.2365,-615.3646 264.2365,-615.3646 263.3413,-615.6407 260.7616,-615.6407 254.2183,-655.5746 253.8035,-615.3317 254.043,-615.2568 252.2279,-510.2263 257.2668,-514.7726 268.1146,-523.9925 278.31,-531.0537 286.2545,-537.0665 290.7255,-539.9292 301.4249,-546.1789 302.9158,-546.9621 315.0782,-551.9992 319.8339,-553.6958 357.3078,-564.9282 357.5698,-565.0211 359.1915,-565.6874 371.4663,-571.4466 374.9845,-573.2917 378.5322,-575.3513 385.8678,-580.0282 401.9175,-592.1122 401.9175,-592.1122"/>
<polygon fill="#fed9a6" stroke="#fed9a6" points="998.9581,-508.4885 1003.7755,-506.3411 1046.332,-485.8162 1048.4667,-486.1647 1050.9214,-486.6789 1064.5107,-489.8429 1074.1824,-492.7689 1087.76,-497.1927 1098.431,-501.408 1110.4581,-506.7172 1136.3229,-519.9413 1186.0988,-546.4847 1186.238,-547.2972 1186.4335,-551.4253 1186.0928,-560.4799 1185.043,-610.9495 1171.5656,-620.5551 1134.3192,-649.2128 1128.449,-653.5455 1121.5225,-658.2292 1108.311,-666.3598 1092.9955,-674.8408 1003.6038,-721.4844 990.8149,-728.9366 981.0864,-735.4967 972.8097,-732.2937 960.6842,-728.4718 953.6472,-726.4229 952.8096,-725.1513 918.5915,-677.99 888.2236,-623.2592 866.1721,-587.7427 844.8774,-558.3932 873.1331,-541.9868 886.8283,-535.4839 888.3351,-534.8228 895.8973,-531.7716 902.7222,-529.2623 909.7874,-527.1688 917.0968,-525.2631 921.662,-524.2366 932.9083,-522.5083 940.6628,-521.5947 950.472,-520.7912 962.442,-519.3734 972.3347,-517.4844 985.9547,-513.3914 997.671,-509.0153 998.9581,-508.4885 998.9581,-508.4885"/>
<polyline fill="none" stroke="#000000" points="535.989,-672.4042 548.0351,-657.5707 556.3477,-647.8525 559.6932,-644.55 564.7771,-639.1848 577.167,-627.6386 578.3972,-626.2855 589.7299,-615.5303 591.1777,-614.2711 600.3406,-606.9879 611.0756,-600.0944 653.8135,-576.0282 664.3912,-568.4811 667.8092,-565.7952 669.811,-563.914 682.6658,-553.0184 690.8486,-544.9948 701.3021,-533.3199 704.3312,-530.3595 738.3342,-491.1836 731.4176,-470.6803 703.6705,-456.8217 702.9573,-456.5031 689.091,-450.6647 681.786,-448.159 666.3215,-443.2535 606.0534,-427.3116 601.8127,-426.0804 580.6736,-418.2738 565.9892,-411.7095 563.7968,-410.6736 553.1692,-405.0991 534.5168,-393.8427 529.3398,-390.4523 529.246,-390.4502 526.7314,-390.481 524.6873,-390.4326 517.7576,-406.4475 502.605,-437.9158 494.4196,-451.9317 484.9554,-467.0389 472.3952,-484.074 462.9465,-495.631 456.5109,-504.7435 439.9103,-539.1052 433.9766,-549.0648 416.1463,-570.8734 402.6049,-590.8392 401.9175,-592.1122 403.4723,-596.6967 414.5025,-625.661 441.1628,-683.9782 451.5815,-685.1024 464.3392,-685.9491 478.1858,-686.0052 483.7746,-686.2515 484.7216,-686.2736 494.023,-686.2967 511.8617,-687.767 515.5235,-688.1417 523.9277,-689.3378 529.1622,-681.6218 535.989,-672.4042 "/>
<polyline fill="none" stroke="#000000" points="330.5536,-1210.8893 347.0797,-1209.8267 357.634,-1209.5386 366.202,-1209.6213 371.8795,-1209.886 372.7129,-1209.6572 467.3726,-1185.5466 483.8994,-1124.1 487.3556,-1105.8829 466.6544,-1063.272 466.3143,-1062.4357 443.7115,-1001.0912 435.8603,-983.6702 446.6204,-963.944 468.1734,-920.7545 469.2594,-920.2457 471.0738,-919.4662 478.7368,-916.4655 531.9276,-899.6751 534.9042,-898.623 535.877,-898.2419 543.9296,-844.74 543.931,-827.2191 544.0764,-825.764 559.5586,-722.8997 523.9277,-689.3378 515.5235,-688.1417 511.8617,-687.767 494.023,-686.2967 484.7216,-686.2736 483.7746,-686.2515 478.1858,-686.0052 464.3392,-685.9491 451.5815,-685.1024 441.1628,-683.9782 439.5073,-685.0439 431.3783,-690.0426 429.8353,-690.9466 411.6882,-700.5552 318.7045,-692.1691 309.0977,-691.6893 306.9657,-691.7542 305.5352,-691.8554 296.5096,-691.7746 292.8914,-692.0345 283.2042,-691.9554 281.4048,-692.0859 278.1703,-692.0621 272.9799,-691.8163 270.0181,-691.7957 268.9913,-691.8716 263.4388,-692.0594 254.8763,-692.0065 252.0603,-691.8766 251.4146,-691.9248 197.1818,-691.6552 143.6473,-754.8679 132.7481,-766.9901 127.3635,-772.6652 115.7218,-785.4978 110.0696,-791.4445 92.2275,-812.5342 88.2477,-817.7463 80.2938,-828.5197 149.9315,-896.652 151.9511,-902.1383 166.1222,-943.1353 172.8844,-964.1749 152.1817,-1051.6381 151.0776,-1055.5092 147.2643,-1079.6661 148.839,-1086.1473 157.1582,-1124.0258 175.3432,-1154.5425 259.1325,-1213.8838 274.3057,-1222.1615 287.5146,-1218.6283 289.1427,-1218.2528 301.1573,-1215.701 310.6255,-1213.865 322.4644,-1212.0078 330.5536,-1210.8893 "/>
<polyline fill="none" stroke="#000000" points="623.4254,-1264.1891 610.8513,-1264.1384 609.8568,-1264.1736 565.5281,-1266.6167 467.3726,-1185.5466 483.8994,-1124.1 487.3556,-1105.8829 466.6544,-1063.272 466.3143,-1062.4357 443.7115,-1001.0912 435.8603,-983.6702 446.6204,-963.944 468.1734,-920.7545 469.2594,-920.2457 471.0738,-919.4662 478.7368,-916.4655 531.9276,-899.6751 534.9042,-898.623 535.877,-898.2419 546.6155,-903.6667 556.8893,-907.964 563.3997,-910.124 570.7963,-912.2605 575.4395,-913.4005 583.4203,-915.0154 583.49,-915.0265 589.4682,-915.7199 597.4288,-916.3 606.9839,-916.5826 610.1849,-916.5389 610.6613,-916.5516 611.6113,-916.6156 622.1567,-917.7557 635.4319,-920.2755 647.6864,-923.5948 662.2234,-929.2995 662.9672,-929.6509 668.1394,-932.3105 685.4703,-941.9484 731.1047,-969.0859 758.3879,-983.5848 764.6453,-992.7795 825.6051,-1028.0784 834.6205,-1077.1266 839.2296,-1108.255 843.1876,-1132.1346 852.9957,-1181.021 844.8764,-1190.2313 734.7303,-1269.0521 699.7675,-1274.7107 663.8242,-1268.1885 645.5327,-1265.5878 642.0334,-1265.1598 637.9241,-1264.8195 623.4254,-1264.1891 "/>
<polyline fill="none" stroke="#000000" points="731.4176,-470.6803 703.6705,-456.8217 702.9573,-456.5031 689.091,-450.6647 681.786,-448.159 666.3215,-443.2535 606.0534,-427.3116 601.8127,-426.0804 580.6736,-418.2738 565.9892,-411.7095 563.7968,-410.6736 553.1692,-405.0991 534.5168,-393.8427 529.3398,-390.4523 551.0422,-360.1228 557.2775,-352.5342 559.3687,-350.109 564.7932,-344.119 570.1558,-338.4962 571.537,-336.8481 579.6139,-327.7394 600.1122,-306.0125 660.8214,-235.25 662.1807,-233.9814 669.7656,-226.4346 682.7297,-212.754 695.964,-196.4573 704.3239,-185.1818 709.5741,-185.1416 711.7421,-185.1705 715.1771,-185.0781 810.3264,-140.3975 819.2337,-136.006 825.2783,-132.7437 835.1108,-127.206 836.3298,-126.4913 849.2032,-118.6417 867.8582,-105.5145 872.2883,-107.4016 873.3715,-107.8435 937.0046,-131.5517 1012.2385,-203.1204 983.1277,-265.7016 961.8104,-319.3086 953.3641,-342.9758 964.2891,-357.6463 974.4256,-373.6759 1005.3646,-427.7043 1041.5302,-479.3682 1046.332,-485.8162 1003.7755,-506.3411 998.9581,-508.4885 997.671,-509.0153 985.9547,-513.3914 972.3347,-517.4844 962.442,-519.3734 950.472,-520.7912 940.6628,-521.5947 932.9083,-522.5083 921.662,-524.2366 917.0968,-525.2631 909.7874,-527.1688 902.7222,-529.2623 895.8973,-531.7716 888.3351,-534.8228 886.8283,-535.4839 873.1331,-541.9868 844.8774,-558.3932 866.1721,-587.7427 888.2236,-623.2592 918.5915,-677.99 952.8096,-725.1513 953.6472,-726.4229 960.6842,-728.4718 972.8097,-732.2937 981.0864,-735.4967 990.8149,-728.9366 1003.6038,-721.4844 1092.9955,-674.8408 1108.311,-666.3598 1121.5225,-658.2292 1128.449,-653.5455 1134.3192,-649.2128 1171.5656,-620.5551 1185.043,-610.9495 1269.2816,-717.5314 1269.7347,-719.0914 1279.6548,-754.3502 1280.181,-761.8356 1273.3663,-787.0896 1270.6859,-799.1396 1253.0126,-888.1201 1215.6116,-939.1403 1234.3818,-1006.285 1233.6139,-1011.0413 1224.5718,-1076.2858 1221.2955,-1112.6915 1216.1296,-1142.073 1166.6709,-1198.8674 1102.02,-1196.1908 1090.8185,-1195.9548 1079.2454,-1195.9471 1074.4609,-1196.1387 1057.7694,-1197.488 1036.741,-1200.9061 1029.6721,-1202.3423 1017.9737,-1205.1963 1010.8267,-1207.0847 979.4617,-1216.6448 852.9957,-1181.021 843.1876,-1132.1346 839.2296,-1108.255 834.6205,-1077.1266 825.6051,-1028.0784 764.6453,-992.7795 758.3879,-983.5848 731.1047,-969.0859 685.4703,-941.9484 668.1394,-932.3105 662.9672,-929.6509 662.2234,-929.2995 647.6864,-923.5948 635.4319,-920.2755 622.1567,-917.7557 611.6113,-916.6156 610.6613,-916.5516 610.1849,-916.5389 606.9839,-916.5826 597.4288,-916.3 589.4682,-915.7199 583.49,-915.0265 583.4203,-915.0154 575.4395,-913.4005 570.7963,-912.2605 563.3997,-910.124 556.8893,-907.964 546.6155,-903.6667 535.877,-898.2419 543.9296,-844.74 543.931,-827.2191 544.0764,-825.764 559.5586,-722.8997 523.9277,-689.3378 529.1622,-681.6218 535.989,-672.4042 548.0351,-657.5707 556.3477,-647.8525 559.6932,-644.55 564.7771,-639.1848 577.167,-627.6386 578.3972,-626.2855 589.7299,-615.5303 591.1777,-614.2711 600.3406,-606.9879 611.0756,-600.0944 653.8135,-576.0282 664.3912,-568.4811 667.8092,-565.7952 669.811,-563.914 682.6658,-553.0184 690.8486,-544.9948 701.3021,-533.3199 704.3312,-530.3595 738.3342,-491.1836 731.4176,-470.6803 "/>
<polyline fill="none" stroke="#000000" points="374.9845,-573.2917 371.4663,-571.4466 359.1915,-565.6874 357.5698,-565.0211 357.3078,-564.9282 319.8339,-553.6958 315.0782,-551.9992 302.9158,-546.9621 301.4249,-546.1789 290.7255,-539.9292 286.2545,-537.0665 278.31,-531.0537 268.1146,-523.9925 257.2668,-514.7726 252.2279,-510.2263 251.8965,-509.9099 237.8023,-495.6769 226.4199,-484.7881 162.856,-537.7676 178.9086,-601.316 182.1087,-616.9157 183.23,-624.1046 183.9327,-627.4881 188.8207,-658.5557 197.1818,-691.6552 143.6473,-754.8679 132.7481,-766.9901 127.3635,-772.6652 115.7218,-785.4978 110.0696,-791.4445 92.2275,-812.5342 88.2477,-817.7463 80.2938,-828.5197 79.4042,-828.3937 65.9848,-826.7007 57.0123,-825.9851 47.2774,-822.4778 -36.7744,-793.6766 -91.9332,-696.9985 -81.0508,-646.56 -66.9847,-551.0381 -127.0346,-456.1168 -132.2946,-448.442 -138.4723,-405.7746 -127.0271,-392.3481 -51.4841,-300.3532 40.8145,-323.4552 42.0691,-323.7353 52.879,-325.8585 58.336,-326.6357 60.787,-326.9188 76.8733,-328.3447 81.3818,-328.3788 88.5292,-328.6322 95.1952,-328.6881 95.8955,-328.6561 98.6432,-328.4559 111.411,-328.2386 112.85,-328.2542 114.7371,-328.3271 115.6742,-328.3893 116.9243,-328.4384 137.306,-330.3777 141.3794,-330.991 176.2801,-337.2162 179.1335,-343.0166 189.5199,-365.7041 211.1253,-416.994 216.6162,-429.0135 232.0059,-460.3153 283.2272,-437.7226 296.0028,-432.5415 306.9214,-428.517 316.5782,-426.0295 327.5417,-423.6095 330.4005,-423.0854 333.6872,-422.7249 342.3593,-422.0908 349.9285,-421.8159 353.3958,-421.5578 355.423,-421.6311 365.8503,-421.6112 368.7307,-421.496 373.9818,-421.0858 381.2892,-420.2364 386.5983,-419.4174 394.3403,-417.9291 399.9133,-416.4348 405.1084,-414.8428 416.925,-410.7683 418.9287,-410.0027 492.5718,-379.0805 486.6357,-371.7577 477.7144,-361.62 475.8313,-359.5726 470.1774,-353.9527 460.0882,-342.7533 448.2177,-330.8921 439.5086,-323.1689 365.2822,-252.07 354.902,-241.4638 352.2237,-238.9017 345.5303,-232.1321 345.3539,-231.9738 337.6956,-224.7348 330.1085,-216.8371 320.9653,-205.9373 315.7196,-205.8963 313.2161,-205.9821 309.4488,-205.9562 308.2041,-205.9739 297.3894,-205.9045 292.1811,-206.0904 291.5683,-206.0871 273.3301,-205.6129 267.0658,-198.9614 151.6059,-70.147 145.1464,-63.7934 131.5897,-49.4565 124.9131,-42.1572 112.8476,-28.5393 112.3289,-27.9181 125.6425,3.7256 268.6909,104.1523 298.8802,115.6937 300.1185,115.4861 311.1454,114.1474 317.1123,113.515 319.3078,112.7136 426.5793,118.8166 448.5258,118.1489 467.2948,118.7628 471.9912,119.1139 480.1286,119.8935 481.2107,120.0199 492.5985,121.59 505.6169,123.9317 597.1049,113.4197 633.6549,128.8036 648.8688,123.5726 649.6278,123.3262 662.7505,119.3152 679.4717,114.5271 684.1596,113.3684 699.1407,110.5312 744.7388,103.656 820.4811,62.4117 826.2114,54.4763 838.5156,28.2012 848.2623,-22.9508 855.3667,-56.4103 867.8582,-105.5145 849.2032,-118.6417 836.3298,-126.4913 835.1108,-127.206 825.2783,-132.7437 819.2337,-136.006 810.3264,-140.3975 715.1771,-185.0781 711.7421,-185.1705 709.5741,-185.1416 704.3239,-185.1818 695.964,-196.4573 682.7297,-212.754 669.7656,-226.4346 662.1807,-233.9814 660.8214,-235.25 600.1122,-306.0125 579.6139,-327.7394 571.537,-336.8481 570.1558,-338.4962 564.7932,-344.119 559.3687,-350.109 557.2775,-352.5342 551.0422,-360.1228 529.3398,-390.4523 529.246,-390.4502 526.7314,-390.481 524.6873,-390.4326 517.7576,-406.4475 502.605,-437.9158 494.4196,-451.9317 484.9554,-467.0389 472.3952,-484.074 462.9465,-495.631 456.5109,-504.7435 439.9103,-539.1052 433.9766,-549.0648 416.1463,-570.8734 402.6049,-590.8392 401.9175,-592.1122 385.8678,-580.0282 378.5322,-575.3513 374.9845,-573.2917 "/>
<polyline fill="none" stroke="#000000" points="111.411,-328.2386 98.6432,-328.4559 95.8955,-328.6561 95.1952,-328.6881 88.5292,-328.6322 81.3818,-328.3788 76.8733,-328.3447 60.787,-326.9188 58.336,-326.6357 52.879,-325.8585 42.0691,-323.7353 40.8145,-323.4552 -51.4841,-300.3532 -52.4866,-260.7028 -54.8841,-209.8723 -53.9885,-202.7858 -48.9908,-142.3435 -1.8932,-77.7694 85.0743,-40.7894 107.6475,-30.3425 112.3289,-27.9181 112.8476,-28.5393 124.9131,-42.1572 131.5897,-49.4565 145.1464,-63.7934 151.6059,-70.147 267.0658,-198.9614 273.3301,-205.6129 291.5683,-206.0871 292.1811,-206.0904 297.3894,-205.9045 308.2041,-205.9739 309.4488,-205.9562 313.2161,-205.9821 315.7196,-205.8963 320.9653,-205.9373 330.1085,-216.8371 337.6956,-224.7348 345.3539,-231.9738 345.5303,-232.1321 352.2237,-238.9017 354.902,-241.4638 365.2822,-252.07 439.5086,-323.1689 448.2177,-330.8921 460.0882,-342.7533 470.1774,-353.9527 475.8313,-359.5726 477.7144,-361.62 486.6357,-371.7577 492.5718,-379.0805 418.9287,-410.0027 416.925,-410.7683 405.1084,-414.8428 399.9133,-416.4348 394.3403,-417.9291 386.5983,-419.4174 381.2892,-420.2364 373.9818,-421.0858 368.7307,-421.496 365.8503,-421.6112 355.423,-421.6311 353.3958,-421.5578 349.9285,-421.8159 342.3593,-422.0908 333.6872,-422.7249 330.4005,-423.0854 327.5417,-423.6095 316.5782,-426.0295 306.9214,-428.517 296.0028,-432.5415 283.2272,-437.7226 232.0059,-460.3153 216.6162,-429.0135 211.1253,-416.994 189.5199,-365.7041 179.1335,-343.0166 176.2801,-337.2162 141.3794,-330.991 137.306,-330.3777 116.9243,-328.4384 115.6742,-328.3893 114.7371,-328.3271 112.85,-328.2542 111.411,-328.2386 "/>
<polyline fill="none" stroke="#000000" points="1502.8322,-343.6259 1490.8663,-340.5643 1487.4946,-339.8122 1325.6619,-308.9693 1317.2399,-326.8659 1294.2087,-363.21 1226.7491,-483.295 1186.0988,-546.4847 1136.3229,-519.9413 1110.4581,-506.7172 1098.431,-501.408 1087.76,-497.1927 1074.1824,-492.7689 1064.5107,-489.8429 1050.9214,-486.6789 1048.4667,-486.1647 1046.332,-485.8162 1041.5302,-479.3682 1005.3646,-427.7043 974.4256,-373.6759 964.2891,-357.6463 953.3641,-342.9758 961.8104,-319.3086 983.1277,-265.7016 1012.2385,-203.1204 1041.9624,-206.8213 1064.0428,-208.7978 1067.838,-209.0037 1080.0299,-209.0228 1090.663,-208.8524 1096.6967,-208.5436 1108.7484,-207.7149 1111.6571,-207.4129 1126.3779,-205.3664 1142.505,-202.8423 1143.3931,-202.8823 1295.1615,-249.3373 1314.2643,-200.8637 1334.5302,-146.5691 1336.5625,-140.3507 1373.0708,-72.0591 1413.5009,-32.5835 1444.3726,-18.5049 1488.5909,-26.0987 1507.2155,-27.7568 1514.6757,-28.266 1520.533,-28.423 1541.3351,-27.6875 1543.7461,-27.4525 1564.3488,-25.0142 1568.2209,-24.3965 1608.9336,-19.6296 1638.2244,-22.2316 1691.5806,-101.1089 1691.5688,-152.3954 1691.9517,-168.8797 1695.0245,-212.7326 1672.9655,-264.5466 1651.9401,-285.3335 1573.1434,-313.8671 1549.875,-322.7824 1534.6848,-329.5303 1532.5334,-330.5291 1514.488,-340.0213 1506.3387,-344.6381 1502.8322,-343.6259 "/>
<polyline fill="none" stroke="#000000" points="270.0181,-691.7957 268.9913,-691.8716 263.4388,-692.0594 254.8763,-692.0065 252.0603,-691.8766 251.4146,-691.9248 197.1818,-691.6552 188.8207,-658.5557 183.9327,-627.4881 183.23,-624.1046 182.1087,-616.9157 178.9086,-601.316 162.856,-537.7676 226.4199,-484.7881 237.8023,-495.6769 251.8965,-509.9099 252.2279,-510.2263 257.2668,-514.7726 268.1146,-523.9925 278.31,-531.0537 286.2545,-537.0665 290.7255,-539.9292 301.4249,-546.1789 302.9158,-546.9621 315.0782,-551.9992 319.8339,-553.6958 357.3078,-564.9282 357.5698,-565.0211 359.1915,-565.6874 371.4663,-571.4466 374.9845,-573.2917 378.5322,-575.3513 385.8678,-580.0282 401.9175,-592.1122 403.4723,-596.6967 414.5025,-625.661 441.1628,-683.9782 439.5073,-685.0439 431.3783,-690.0426 429.8353,-690.9466 411.6882,-700.5552 318.7045,-692.1691 309.0977,-691.6893 306.9657,-691.7542 305.5352,-691.8554 296.5096,-691.7746 292.8914,-692.0345 283.2042,-691.9554 281.4048,-692.0859 278.1703,-692.0621 272.9799,-691.8163 270.0181,-691.7957 "/>
<polyline fill="none" stroke="#000000" points="972.8097,-732.2937 960.6842,-728.4718 953.6472,-726.4229 952.8096,-725.1513 918.5915,-677.99 888.2236,-623.2592 866.1721,-587.7427 844.8774,-558.3932 873.1331,-541.9868 886.8283,-535.4839 888.3351,-534.8228 895.8973,-531.7716 902.7222,-529.2623 909.7874,-527.1688 917.0968,-525.2631 921.662,-524.2366 932.9083,-522.5083 940.6628,-521.5947 950.472,-520.7912 962.442,-519.3734 972.3347,-517.4844 985.9547,-513.3914 997.671,-509.0153 998.9581,-508.4885 1003.7755,-506.3411 1046.332,-485.8162 1048.4667,-486.1647 1050.9214,-486.6789 1064.5107,-489.8429 1074.1824,-492.7689 1087.76,-497.1927 1098.431,-501.408 1110.4581,-506.7172 1136.3229,-519.9413 1186.0988,-546.4847 1186.238,-547.2972 1186.4335,-551.4253 1186.0928,-560.4799 1185.043,-610.9495 1171.5656,-620.5551 1134.3192,-649.2128 1128.449,-653.5455 1121.5225,-658.2292 1108.311,-666.3598 1092.9955,-674.8408 1003.6038,-721.4844 990.8149,-728.9366 981.0864,-735.4967 972.8097,-732.2937 "/>
<!-- device&#45;mapper&#45;libs&#45;&gt;Fedora Container Base -->
<g id="edge1" class="edge">
<title>device&#45;mapper&#45;libs&#45;&gt;Fedora Container Base</title>
<path fill="none" stroke="#444444" stroke-opacity="0.333333" d="M337.7858,-1044.8927C369.4139,-967.7696 493.0149,-666.3763 531.1993,-573.266"/>
<polygon fill="#444444" fill-opacity="0.333333" stroke="#444444" stroke-opacity="0.333333" points="534.4684,-574.5187 535.0245,-563.9385 527.9919,-571.8627 534.4684,-574.5187"/>
</g>
<!-- device&#45;mapper&#45;libs&#45;&gt;device&#45;mapper -->
<g id="edge2" class="edge">
<title>device&#45;mapper&#45;libs&#45;&gt;device&#45;mapper</title>
<path fill="none" stroke="#444444" stroke-opacity="0.333333" d="M336.3883,-1044.7802C341.6089,-1016.1303 346.6028,-960.3286 347.2015,-926.4113"/>
<polygon fill="#444444" fill-opacity="0.333333" stroke="#444444" stroke-opacity="0.333333" points="350.702,-926.2422 347.2361,-916.2303 343.702,-926.2183 350.702,-926.2422"/>
</g>
<!-- device&#45;mapper&#45;&gt;Fedora Container Base -->
<g id="edge34" class="edge">
<title>device&#45;mapper&#45;&gt;Fedora Container Base</title>
<path fill="none" stroke="#444444" stroke-opacity="0.333333" d="M354.7528,-879.6312C387.4509,-821.4755 488.4884,-641.7733 527.1954,-572.9303"/>
<polygon fill="#444444" fill-opacity="0.333333" stroke="#444444" stroke-opacity="0.333333" points="530.3797,-574.4082 532.2298,-563.9762 524.278,-570.9775 530.3797,-574.4082"/>
</g>
<!-- device&#45;mapper&#45;&gt;device&#45;mapper&#45;libs -->
<g id="edge35" class="edge">
<title>device&#45;mapper&#45;&gt;device&#45;mapper&#45;libs</title>
<path fill="none" stroke="#444444" stroke-opacity="0.333333" d="M338.3517,-916.2998C333.1311,-944.9497 328.1372,-1000.7514 327.5385,-1034.6687"/>
<polygon fill="#444444" fill-opacity="0.333333" stroke="#444444" stroke-opacity="0.333333" points="324.038,-1034.8378 327.5039,-1044.8497 331.038,-1034.8617 324.038,-1034.8378"/>
</g>
<!-- device&#45;mapper&#45;&gt;systemd -->
<g id="edge36" class="edge">
<title>device&#45;mapper&#45;&gt;systemd</title>
<path fill="none" stroke="#444444" stroke-opacity="0.333333" d="M367.2159,-880.0623C426.0131,-833.6708 582.6654,-710.0707 649.5218,-657.3205"/>
<polygon fill="#444444" fill-opacity="0.333333" stroke="#444444" stroke-opacity="0.333333" points="651.91,-659.8945 657.5927,-650.9525 647.5741,-654.399 651.91,-659.8945"/>
</g>
<!-- device&#45;mapper&#45;&gt;util&#45;linux -->
<g id="edge37" class="edge">
<title>device&#45;mapper&#45;&gt;util&#45;linux</title>
<path fill="none" stroke="#444444" stroke-opacity="0.333333" d="M335.057,-880.043C323.7618,-858.1906 304.6185,-821.1545 291.4957,-795.7661"/>
<polygon fill="#444444" fill-opacity="0.333333" stroke="#444444" stroke-opacity="0.333333" points="294.491,-793.9384 286.79,-786.662 288.2725,-797.1526 294.491,-793.9384"/>
</g>
<!-- libargon2&#45;&gt;Fedora Container Base -->
<g id="edge3" class="edge">
<title>libargon2&#45;&gt;Fedora Container Base</title>
<path fill="none" stroke="#444444" stroke-opacity="0.333333" d="M631.3816,-1105.8347C618.1226,-1022.2776 563.2004,-676.1625 547.0107,-574.1358"/>
<polygon fill="#444444" fill-opacity="0.333333" stroke="#444444" stroke-opacity="0.333333" points="550.4231,-573.3076 545.3991,-563.9798 543.5096,-574.4047 550.4231,-573.3076"/>
</g>
<!-- dbus&#45;broker&#45;&gt;Fedora Container Base -->
<g id="edge4" class="edge">
<title>dbus&#45;broker&#45;&gt;Fedora Container Base</title>
<path fill="none" stroke="#444444" stroke-opacity="0.333333" d="M771.9766,-659.8744C723.6748,-635.8443 638.4881,-593.464 586.5992,-567.6493"/>
<polygon fill="#444444" fill-opacity="0.333333" stroke="#444444" stroke-opacity="0.333333" points="588.1403,-564.5068 577.6281,-563.1862 585.0223,-570.7741 588.1403,-564.5068"/>
</g>
<!-- dbus&#45;broker&#45;&gt;dbus&#45;common -->
<g id="edge5" class="edge">
<title>dbus&#45;broker&#45;&gt;dbus&#45;common</title>
<path fill="none" stroke="#444444" stroke-opacity="0.333333" d="M814.2266,-696.1972C823.0356,-723.6769 839.8014,-775.9778 850.2077,-808.4402"/>
<polygon fill="#444444" fill-opacity="0.333333" stroke="#444444" stroke-opacity="0.333333" points="846.9591,-809.772 853.3448,-818.2262 853.625,-807.6351 846.9591,-809.772"/>
</g>
<!-- dbus&#45;broker&#45;&gt;shadow&#45;utils -->
<g id="edge6" class="edge">
<title>dbus&#45;broker&#45;&gt;shadow&#45;utils</title>
<path fill="none" stroke="#444444" stroke-opacity="0.333333" d="M765.1146,-659.9534C686.9639,-627.3812 522.5696,-558.8638 438.0597,-523.6412"/>
<polygon fill="#444444" fill-opacity="0.333333" stroke="#444444" stroke-opacity="0.333333" points="439.2312,-520.3377 428.6543,-519.7211 436.5382,-526.7989 439.2312,-520.3377"/>
</g>
<!-- dbus&#45;broker&#45;&gt;systemd -->
<g id="edge7" class="edge">
<title>dbus&#45;broker&#45;&gt;systemd</title>
<path fill="none" stroke="#444444" stroke-opacity="0.333333" d="M757.0931,-659.914C751.8796,-658.0768 746.5491,-656.1985 741.2477,-654.3304"/>
<polygon fill="#444444" fill-opacity="0.333333" stroke="#444444" stroke-opacity="0.333333" points="742.3632,-651.0126 731.7684,-650.9901 740.0367,-657.6147 742.3632,-651.0126"/>
</g>
<!-- dbus&#45;common&#45;&gt;Fedora Container Base -->
<g id="edge8" class="edge">
<title>dbus&#45;common&#45;&gt;Fedora Container Base</title>
<path fill="none" stroke="#444444" stroke-opacity="0.333333" d="M839.4546,-818.5066C784.7704,-768.2711 631.6826,-627.6374 569.3839,-570.4068"/>
<polygon fill="#444444" fill-opacity="0.333333" stroke="#444444" stroke-opacity="0.333333" points="571.6356,-567.7226 561.9034,-563.5349 566.8999,-572.8776 571.6356,-567.7226"/>
</g>
<!-- dbus&#45;common&#45;&gt;dbus&#45;common -->
<g id="edge9" class="edge">
<title>dbus&#45;common&#45;&gt;dbus&#45;common</title>
<path fill="none" stroke="#444444" stroke-opacity="0.333333" d="M936.8355,-842.7333C947.585,-841.7412 954.77,-839.7334 954.77,-836.71 954.77,-834.7731 951.8213,-833.2531 946.8757,-832.1498"/>
<polygon fill="#444444" fill-opacity="0.333333" stroke="#444444" stroke-opacity="0.333333" points="947.2357,-828.6654 936.8355,-830.6867 946.2262,-835.5923 947.2357,-828.6654"/>
</g>
<!-- dbus&#45;common&#45;&gt;systemd -->
<g id="edge10" class="edge">
<title>dbus&#45;common&#45;&gt;systemd</title>
<path fill="none" stroke="#444444" stroke-opacity="0.333333" d="M843.4018,-818.6241C811.524,-782.2912 739.6268,-700.3458 702.9292,-658.5195"/>
<polygon fill="#444444" fill-opacity="0.333333" stroke="#444444" stroke-opacity="0.333333" points="705.5188,-656.164 696.2926,-650.9554 700.2569,-660.7806 705.5188,-656.164"/>
</g>
<!-- shadow&#45;utils&#45;&gt;Fedora Container Base -->
<g id="edge11" class="edge">
<title>shadow&#45;utils&#45;&gt;Fedora Container Base</title>
<path fill="none" stroke="#444444" stroke-opacity="0.333333" d="M449.7755,-519.7334C457.9062,-522.0112 466.2468,-524.3479 474.4331,-526.6412"/>
<polygon fill="#444444" fill-opacity="0.333333" stroke="#444444" stroke-opacity="0.333333" points="473.7439,-530.0828 484.3174,-529.4103 475.6323,-523.3423 473.7439,-530.0828"/>
</g>
<!-- shadow&#45;utils&#45;&gt;shadow&#45;utils -->
<g id="edge12" class="edge">
<title>shadow&#45;utils&#45;&gt;shadow&#45;utils</title>
<path fill="none" stroke="#444444" stroke-opacity="0.333333" d="M456.2656,-507.8334C466.809,-506.88 473.94,-504.8389 473.94,-501.71 473.94,-499.7544 471.1544,-498.2238 466.4912,-497.118"/>
<polygon fill="#444444" fill-opacity="0.333333" stroke="#444444" stroke-opacity="0.333333" points="466.6738,-493.6064 456.2656,-495.5866 465.6369,-500.5292 466.6738,-493.6064"/>
</g>
<!-- shadow&#45;utils&#45;&gt;libsemanage -->
<g id="edge13" class="edge">
<title>shadow&#45;utils&#45;&gt;libsemanage</title>
<path fill="none" stroke="#444444" stroke-opacity="0.333333" d="M314.656,-486.5407C268.4931,-476.6478 207.9688,-463.6772 159.1034,-453.2051"/>
<polygon fill="#444444" fill-opacity="0.333333" stroke="#444444" stroke-opacity="0.333333" points="159.6898,-449.7514 149.1784,-451.0782 158.2229,-456.596 159.6898,-449.7514"/>
</g>
<!-- systemd&#45;&gt;Fedora Container Base -->
<g id="edge14" class="edge">
<title>systemd&#45;&gt;Fedora Container Base</title>
<path fill="none" stroke="#444444" stroke-opacity="0.333333" d="M651.8746,-614.8421C630.8326,-601.5421 602.0476,-583.3481 579.2891,-568.9632"/>
<polygon fill="#444444" fill-opacity="0.333333" stroke="#444444" stroke-opacity="0.333333" points="580.8998,-565.8408 570.5768,-563.4564 577.1598,-571.7579 580.8998,-565.8408"/>
</g>
<!-- systemd&#45;&gt;shadow&#45;utils -->
<g id="edge15" class="edge">
<title>systemd&#45;&gt;shadow&#45;utils</title>
<path fill="none" stroke="#444444" stroke-opacity="0.333333" d="M639.7485,-614.8049C586.4431,-591.0992 493.0339,-549.5587 435.4738,-523.9608"/>
<polygon fill="#444444" fill-opacity="0.333333" stroke="#444444" stroke-opacity="0.333333" points="436.7665,-520.7053 426.2071,-519.8398 433.9221,-527.1013 436.7665,-520.7053"/>
</g>
<!-- systemd&#45;&gt;systemd -->
<g id="edge16" class="edge">
<title>systemd&#45;&gt;systemd</title>
<path fill="none" stroke="#444444" stroke-opacity="0.333333" d="M742.1267,-639.2113C752.6613,-638.3503 759.96,-636.2498 759.96,-632.91 759.96,-630.7704 756.9646,-629.1395 752.042,-628.0172"/>
<polygon fill="#444444" fill-opacity="0.333333" stroke="#444444" stroke-opacity="0.333333" points="752.5196,-624.55 742.1267,-626.6087 751.5351,-631.4804 752.5196,-624.55"/>
</g>
<!-- systemd&#45;&gt;util&#45;linux -->
<g id="edge17" class="edge">
<title>systemd&#45;&gt;util&#45;linux</title>
<path fill="none" stroke="#444444" stroke-opacity="0.333333" d="M626.5104,-651.0368C552.4406,-675.924 419.5004,-720.5913 340.7574,-747.0487"/>
<polygon fill="#444444" fill-opacity="0.333333" stroke="#444444" stroke-opacity="0.333333" points="339.3247,-743.8377 330.9602,-750.3405 341.5542,-750.4732 339.3247,-743.8377"/>
</g>
<!-- systemd&#45;&gt;acl -->
<g id="edge18" class="edge">
<title>systemd&#45;&gt;acl</title>
<path fill="none" stroke="#444444" stroke-opacity="0.333333" d="M680.9073,-614.6031C682.1674,-563.0309 685.7534,-416.2619 687.2744,-354.0109"/>
<polygon fill="#444444" fill-opacity="0.333333" stroke="#444444" stroke-opacity="0.333333" points="690.7797,-353.8335 687.525,-343.751 683.7817,-353.6625 690.7797,-353.8335"/>
</g>
<!-- systemd&#45;&gt;cryptsetup&#45;libs -->
<g id="edge19" class="edge">
<title>systemd&#45;&gt;cryptsetup&#45;libs</title>
<path fill="none" stroke="#444444" stroke-opacity="0.333333" d="M674.702,-651.0321C656.2675,-709.0506 598.6127,-890.5067 576.363,-960.5328"/>
<polygon fill="#444444" fill-opacity="0.333333" stroke="#444444" stroke-opacity="0.333333" points="572.919,-959.814 573.2264,-970.4044 579.5903,-961.9338 572.919,-959.814"/>
</g>
<!-- systemd&#45;&gt;dbus -->
<g id="edge20" class="edge">
<title>systemd&#45;&gt;dbus</title>
<path fill="none" stroke="#444444" stroke-opacity="0.333333" d="M730.6399,-651.0587C814.1582,-681.265 980.8674,-741.5591 1065.7037,-772.242"/>
<polygon fill="#444444" fill-opacity="0.333333" stroke="#444444" stroke-opacity="0.333333" points="1064.5438,-775.5444 1075.1381,-775.6542 1066.9246,-768.9617 1064.5438,-775.5444"/>
</g>
<!-- systemd&#45;&gt;iptables&#45;libs -->
<g id="edge21" class="edge">
<title>systemd&#45;&gt;iptables&#45;libs</title>
<path fill="none" stroke="#444444" stroke-opacity="0.333333" d="M658.1894,-614.7129C596.7505,-564.5119 424.7911,-424.0058 354.7272,-366.7573"/>
<polygon fill="#444444" fill-opacity="0.333333" stroke="#444444" stroke-opacity="0.333333" points="356.6605,-363.8173 346.7022,-360.2002 352.2314,-369.2379 356.6605,-363.8173"/>
</g>
<!-- systemd&#45;&gt;kmod&#45;libs -->
<g id="edge22" class="edge">
<title>systemd&#45;&gt;kmod&#45;libs</title>
<path fill="none" stroke="#444444" stroke-opacity="0.333333" d="M688.9742,-614.7413C715.6961,-557.7186 798.0234,-382.0378 830.0987,-313.5912"/>
<polygon fill="#444444" fill-opacity="0.333333" stroke="#444444" stroke-opacity="0.333333" points="833.3797,-314.8378 834.4539,-304.2975 827.0412,-311.8674 833.3797,-314.8378"/>
</g>
<!-- systemd&#45;&gt;libfdisk -->
<g id="edge23" class="edge">
<title>systemd&#45;&gt;libfdisk</title>
<path fill="none" stroke="#444444" stroke-opacity="0.333333" d="M659.1646,-651.1441C618.362,-686.0812 529.1297,-762.4861 482.9975,-801.9866"/>
<polygon fill="#444444" fill-opacity="0.333333" stroke="#444444" stroke-opacity="0.333333" points="480.4935,-799.5229 475.1739,-808.6855 485.0463,-804.8401 480.4935,-799.5229"/>
</g>
<!-- systemd&#45;&gt;libseccomp -->
<g id="edge24" class="edge">
<title>systemd&#45;&gt;libseccomp</title>
<path fill="none" stroke="#444444" stroke-opacity="0.333333" d="M701.3894,-614.8669C741.3888,-580.3837 828.7437,-505.0755 874.1822,-465.9033"/>
<polygon fill="#444444" fill-opacity="0.333333" stroke="#444444" stroke-opacity="0.333333" points="876.6054,-468.4354 881.8941,-459.2549 872.0347,-463.1335 876.6054,-468.4354"/>
</g>
<!-- systemd&#45;&gt;qrencode&#45;libs -->
<g id="edge25" class="edge">
<title>systemd&#45;&gt;qrencode&#45;libs</title>
<path fill="none" stroke="#444444" stroke-opacity="0.333333" d="M677.1818,-650.9705C670.4708,-687.9427 655.1257,-772.4826 647.1055,-816.668"/>
<polygon fill="#444444" fill-opacity="0.333333" stroke="#444444" stroke-opacity="0.333333" points="643.6222,-816.2609 645.2799,-826.7252 650.5097,-817.5111 643.6222,-816.2609"/>
</g>
<!-- systemd&#45;&gt;systemd&#45;pam -->
<g id="edge26" class="edge">
<title>systemd&#45;&gt;systemd&#45;pam</title>
<path fill="none" stroke="#444444" stroke-opacity="0.333333" d="M618.6969,-625.1212C552.7036,-620.2125 447.4949,-615.3535 372.6091,-613.608"/>
<polygon fill="#444444" fill-opacity="0.333333" stroke="#444444" stroke-opacity="0.333333" points="372.3246,-610.1011 362.2509,-613.3827 372.1723,-617.0994 372.3246,-610.1011"/>
</g>
<!-- systemd&#45;&gt;systemd&#45;rpm&#45;macros -->
<g id="edge27" class="edge">
<title>systemd&#45;&gt;systemd&#45;rpm&#45;macros</title>
<path fill="none" stroke="#444444" stroke-opacity="0.333333" d="M696.4762,-651.0639C755.4981,-717.9636 961.0028,-950.8972 1030.2324,-1029.3668"/>
<polygon fill="#444444" fill-opacity="0.333333" stroke="#444444" stroke-opacity="0.333333" points="1028.0031,-1032.1305 1037.2435,-1037.3138 1033.2523,-1027.4994 1028.0031,-1032.1305"/>
</g>
<!-- systemd&#45;&gt;diffutils -->
<g id="edge28" class="edge">
<title>systemd&#45;&gt;diffutils</title>
<path fill="none" stroke="#444444" stroke-dasharray="5,2" stroke-opacity="0.333333" d="M742.2327,-626.3977C791.5374,-621.1998 860.5145,-613.928 911.2313,-608.5812"/>
<polygon fill="#444444" fill-opacity="0.333333" stroke="#444444" stroke-opacity="0.333333" points="911.8631,-612.0341 921.441,-607.5049 911.1291,-605.0727 911.8631,-612.0341"/>
</g>
<!-- systemd&#45;&gt;libxkbcommon -->
<g id="edge29" class="edge">
<title>systemd&#45;&gt;libxkbcommon</title>
<path fill="none" stroke="#444444" stroke-dasharray="5,2" stroke-opacity="0.333333" d="M707.5506,-614.7954C778.3014,-567.4867 968.6393,-440.2141 1048.1424,-387.0531"/>
<polygon fill="#444444" fill-opacity="0.333333" stroke="#444444" stroke-opacity="0.333333" points="1050.46,-389.7138 1056.8273,-381.2457 1046.569,-383.8948 1050.46,-389.7138"/>
</g>
<!-- libsemanage&#45;&gt;Fedora Container Base -->
<g id="edge41" class="edge">
<title>libsemanage&#45;&gt;Fedora Container Base</title>
<path fill="none" stroke="#444444" stroke-opacity="0.333333" d="M149.1134,-452.7315C236.1819,-473.3105 378.4231,-506.9298 465.9042,-527.6063"/>
<polygon fill="#444444" fill-opacity="0.333333" stroke="#444444" stroke-opacity="0.333333" points="465.2313,-531.0436 475.7683,-529.9377 466.8415,-524.2313 465.2313,-531.0436"/>
</g>
<!-- libsemanage&#45;&gt;libsemanage -->
<g id="edge42" class="edge">
<title>libsemanage&#45;&gt;libsemanage</title>
<path fill="none" stroke="#444444" stroke-opacity="0.333333" d="M149.0725,-440.9174C159.8009,-439.9377 167,-437.9186 167,-434.86 167,-432.9006 164.0455,-431.3678 159.1013,-430.2615"/>
<polygon fill="#444444" fill-opacity="0.333333" stroke="#444444" stroke-opacity="0.333333" points="159.4723,-426.7787 149.0725,-428.8026 158.4645,-433.7058 159.4723,-426.7787"/>
</g>
<!-- util&#45;linux&#45;&gt;Fedora Container Base -->
<g id="edge30" class="edge">
<title>util&#45;linux&#45;&gt;Fedora Container Base</title>
<path fill="none" stroke="#444444" stroke-opacity="0.333333" d="M299.03,-750.1396C346.5616,-710.2297 459.892,-615.0718 513.4781,-570.0782"/>
<polygon fill="#444444" fill-opacity="0.333333" stroke="#444444" stroke-opacity="0.333333" points="515.8335,-572.6707 521.2413,-563.5599 511.3323,-567.3098 515.8335,-572.6707"/>
</g>
<!-- util&#45;linux&#45;&gt;util&#45;linux -->
<g id="edge31" class="edge">
<title>util&#45;linux&#45;&gt;util&#45;linux</title>
<path fill="none" stroke="#444444" stroke-opacity="0.333333" d="M342.0097,-774.6053C352.5715,-773.7113 359.83,-771.6295 359.83,-768.36 359.83,-766.2655 356.8511,-764.6584 351.9332,-763.5387"/>
<polygon fill="#444444" fill-opacity="0.333333" stroke="#444444" stroke-opacity="0.333333" points="352.4055,-760.0707 342.0097,-762.1147 351.4111,-766.9998 352.4055,-760.0707"/>
</g>
<!-- util&#45;linux&#45;&gt;libfdisk -->
<g id="edge32" class="edge">
<title>util&#45;linux&#45;&gt;libfdisk</title>
<path fill="none" stroke="#444444" stroke-opacity="0.333333" d="M332.2922,-786.5087C350.5027,-792.5219 370.9332,-799.2681 389.7828,-805.4922"/>
<polygon fill="#444444" fill-opacity="0.333333" stroke="#444444" stroke-opacity="0.333333" points="388.8825,-808.8808 399.4756,-808.6929 391.0774,-802.2338 388.8825,-808.8808"/>
</g>
<!-- util&#45;linux&#45;&gt;libutempter -->
<g id="edge33" class="edge">
<title>util&#45;linux&#45;&gt;libutempter</title>
<path fill="none" stroke="#444444" stroke-opacity="0.333333" d="M249.0623,-750.1253C216.1528,-728.8962 161.6948,-693.7669 125.4612,-670.3936"/>
<polygon fill="#444444" fill-opacity="0.333333" stroke="#444444" stroke-opacity="0.333333" points="126.9667,-667.1998 116.6661,-664.7202 123.1722,-673.0821 126.9667,-667.1998"/>
</g>
<!-- acl&#45;&gt;Fedora Container Base -->
<g id="edge53" class="edge">
<title>acl&#45;&gt;Fedora Container Base</title>
<path fill="none" stroke="#444444" stroke-opacity="0.333333" d="M676.0656,-343.5574C650.4286,-382.3592 589.8985,-473.972 559.9314,-519.3274"/>
<polygon fill="#444444" fill-opacity="0.333333" stroke="#444444" stroke-opacity="0.333333" points="556.9573,-517.4796 554.3649,-527.7524 562.7977,-521.3385 556.9573,-517.4796"/>
</g>
<!-- cryptsetup&#45;libs&#45;&gt;Fedora Container Base -->
<g id="edge54" class="edge">
<title>cryptsetup&#45;libs&#45;&gt;Fedora Container Base</title>
<path fill="none" stroke="#444444" stroke-opacity="0.333333" d="M566.4542,-970.307C562.5755,-901.555 548.7878,-657.1629 544.085,-573.8051"/>
<polygon fill="#444444" fill-opacity="0.333333" stroke="#444444" stroke-opacity="0.333333" points="547.5784,-573.5872 543.5206,-563.8002 540.5895,-573.9815 547.5784,-573.5872"/>
</g>
<!-- cryptsetup&#45;libs&#45;&gt;device&#45;mapper&#45;libs -->
<g id="edge55" class="edge">
<title>cryptsetup&#45;libs&#45;&gt;device&#45;mapper&#45;libs</title>
<path fill="none" stroke="#444444" stroke-opacity="0.333333" d="M510.0799,-1006.5268C476.2531,-1017.1561 433.2795,-1030.6597 397.8366,-1041.7969"/>
<polygon fill="#444444" fill-opacity="0.333333" stroke="#444444" stroke-opacity="0.333333" points="396.5442,-1038.5342 388.0534,-1044.8711 398.6427,-1045.2122 396.5442,-1038.5342"/>
</g>
<!-- cryptsetup&#45;libs&#45;&gt;libargon2 -->
<g id="edge56" class="edge">
<title>cryptsetup&#45;libs&#45;&gt;libargon2</title>
<path fill="none" stroke="#444444" stroke-opacity="0.333333" d="M576.3505,-1006.498C587.7295,-1029.5984 607.5742,-1069.8848 620.8194,-1096.7739"/>
<polygon fill="#444444" fill-opacity="0.333333" stroke="#444444" stroke-opacity="0.333333" points="617.8141,-1098.5935 625.3728,-1106.0176 624.0936,-1095.5002 617.8141,-1098.5935"/>
</g>
<!-- dbus&#45;&gt;dbus&#45;broker -->
<g id="edge57" class="edge">
<title>dbus&#45;&gt;dbus&#45;broker</title>
<path fill="none" stroke="#444444" stroke-opacity="0.333333" d="M1075.1889,-775.5085C1021.1965,-755.7736 927.9859,-721.7039 867.2681,-699.5107"/>
<polygon fill="#444444" fill-opacity="0.333333" stroke="#444444" stroke-opacity="0.333333" points="868.407,-696.2006 857.8132,-696.0548 866.0039,-702.7752 868.407,-696.2006"/>
</g>
<!-- iptables&#45;libs&#45;&gt;Fedora Container Base -->
<g id="edge58" class="edge">
<title>iptables&#45;libs&#45;&gt;Fedora Container Base</title>
<path fill="none" stroke="#444444" stroke-opacity="0.333333" d="M343.7914,-360.087C382.8282,-396.5531 471.0756,-478.9892 515.6546,-520.6325"/>
<polygon fill="#444444" fill-opacity="0.333333" stroke="#444444" stroke-opacity="0.333333" points="513.4951,-523.4048 523.192,-527.6735 518.2736,-518.2894 513.4951,-523.4048"/>
</g>
<!-- iptables&#45;libs&#45;&gt;libpcap -->
<g id="edge59" class="edge">
<title>iptables&#45;libs&#45;&gt;libpcap</title>
<path fill="none" stroke="#444444" stroke-opacity="0.333333" d="M292.664,-323.815C255.9987,-302.8203 195.6354,-268.2561 155.6542,-245.3627"/>
<polygon fill="#444444" fill-opacity="0.333333" stroke="#444444" stroke-opacity="0.333333" points="157.3688,-242.3114 146.9516,-240.3796 153.8905,-248.3861 157.3688,-242.3114"/>
</g>
<!-- kmod&#45;libs&#45;&gt;Fedora Container Base -->
<g id="edge60" class="edge">
<title>kmod&#45;libs&#45;&gt;Fedora Container Base</title>
<path fill="none" stroke="#444444" stroke-opacity="0.333333" d="M821.9438,-304.16C768.9983,-349.9259 630.6535,-469.5105 570.7879,-521.2581"/>
<polygon fill="#444444" fill-opacity="0.333333" stroke="#444444" stroke-opacity="0.333333" points="568.4904,-518.6177 563.2138,-527.8051 573.068,-523.9135 568.4904,-518.6177"/>
</g>
<!-- libfdisk&#45;&gt;Fedora Container Base -->
<g id="edge61" class="edge">
<title>libfdisk&#45;&gt;Fedora Container Base</title>
<path fill="none" stroke="#444444" stroke-opacity="0.333333" d="M459.7643,-808.7234C474.7597,-761.0536 515.577,-631.297 533.6666,-573.791"/>
<polygon fill="#444444" fill-opacity="0.333333" stroke="#444444" stroke-opacity="0.333333" points="537.1064,-574.5197 536.7685,-563.9303 530.429,-572.4192 537.1064,-574.5197"/>
</g>
<!-- libseccomp&#45;&gt;Fedora Container Base -->
<g id="edge62" class="edge">
<title>libseccomp&#45;&gt;Fedora Container Base</title>
<path fill="none" stroke="#444444" stroke-opacity="0.333333" d="M840.5594,-459.2188C775.8789,-477.9878 675.1336,-507.2222 608.9755,-526.4201"/>
<polygon fill="#444444" fill-opacity="0.333333" stroke="#444444" stroke-opacity="0.333333" points="607.6983,-523.1462 599.0699,-529.2945 609.6492,-529.8689 607.6983,-523.1462"/>
</g>
<!-- qrencode&#45;libs&#45;&gt;Fedora Container Base -->
<g id="edge63" class="edge">
<title>qrencode&#45;libs&#45;&gt;Fedora Container Base</title>
<path fill="none" stroke="#444444" stroke-opacity="0.333333" d="M635.935,-826.4845C619.1015,-775.8994 571.7783,-633.6919 551.6961,-573.3446"/>
<polygon fill="#444444" fill-opacity="0.333333" stroke="#444444" stroke-opacity="0.333333" points="554.974,-572.1099 548.4955,-563.7266 548.3321,-574.3202 554.974,-572.1099"/>
</g>
<!-- systemd&#45;pam&#45;&gt;Fedora Container Base -->
<g id="edge64" class="edge">
<title>systemd&#45;pam&#45;&gt;Fedora Container Base</title>
<path fill="none" stroke="#444444" stroke-opacity="0.333333" d="M350.7211,-597.3847C388.1091,-587.3105 434.6405,-574.7727 472.5055,-564.57"/>
<polygon fill="#444444" fill-opacity="0.333333" stroke="#444444" stroke-opacity="0.333333" points="473.6913,-567.8754 482.4363,-561.8941 471.87,-561.1164 473.6913,-567.8754"/>
</g>
<!-- systemd&#45;pam&#45;&gt;systemd -->
<g id="edge65" class="edge">
<title>systemd&#45;pam&#45;&gt;systemd</title>
<path fill="none" stroke="#444444" stroke-opacity="0.333333" d="M362.3587,-624.4141C433.9625,-629.2734 538.8372,-633.8365 608.3377,-635.0786"/>
<polygon fill="#444444" fill-opacity="0.333333" stroke="#444444" stroke-opacity="0.333333" points="608.698,-638.5846 618.7521,-635.2432 608.8087,-631.5855 608.698,-638.5846"/>
</g>
<!-- diffutils&#45;&gt;Fedora Container Base -->
<g id="edge68" class="edge">
<title>diffutils&#45;&gt;Fedora Container Base</title>
<path fill="none" stroke="#444444" stroke-opacity="0.333333" d="M921.5788,-594.189C853.0669,-585.4273 736.6305,-570.5367 650.8377,-559.5649"/>
<polygon fill="#444444" fill-opacity="0.333333" stroke="#444444" stroke-opacity="0.333333" points="651.1593,-556.0776 640.7961,-558.2807 650.2713,-563.0211 651.1593,-556.0776"/>
</g>
<!-- libxkbcommon&#45;&gt;Fedora Container Base -->
<g id="edge69" class="edge">
<title>libxkbcommon&#45;&gt;Fedora Container Base</title>
<path fill="none" stroke="#444444" stroke-opacity="0.333333" d="M1029.9191,-381.376C928.137,-415.692 708.3187,-489.804 602.2072,-525.5796"/>
<polygon fill="#444444" fill-opacity="0.333333" stroke="#444444" stroke-opacity="0.333333" points="600.9665,-522.3043 592.6088,-528.8157 603.203,-528.9374 600.9665,-522.3043"/>
</g>
<!-- libxkbcommon&#45;&gt;xkeyboard&#45;config -->
<g id="edge70" class="edge">
<title>libxkbcommon&#45;&gt;xkeyboard&#45;config</title>
<path fill="none" stroke="#444444" stroke-opacity="0.333333" d="M1123.4421,-345.124C1203.799,-308.4625 1385.6544,-225.4941 1473.0773,-185.6089"/>
<polygon fill="#444444" fill-opacity="0.333333" stroke="#444444" stroke-opacity="0.333333" points="1474.6029,-188.76 1482.248,-181.4249 1471.6973,-182.3915 1474.6029,-188.76"/>
</g>
<!-- libutempter&#45;&gt;Fedora Container Base -->
<g id="edge66" class="edge">
<title>libutempter&#45;&gt;Fedora Container Base</title>
<path fill="none" stroke="#444444" stroke-opacity="0.333333" d="M156.9718,-631.3525C239.0204,-613.126 376.2643,-582.6382 462.947,-563.3822"/>
<polygon fill="#444444" fill-opacity="0.333333" stroke="#444444" stroke-opacity="0.333333" points="463.7348,-566.7926 472.7378,-561.2072 462.2168,-559.9591 463.7348,-566.7926"/>
</g>
<!-- libutempter&#45;&gt;shadow&#45;utils -->
<g id="edge67" class="edge">
<title>libutempter&#45;&gt;shadow&#45;utils</title>
<path fill="none" stroke="#444444" stroke-opacity="0.333333" d="M125.5195,-628.5075C179.6766,-602.088 280.4646,-552.9203 339.3571,-524.1907"/>
<polygon fill="#444444" fill-opacity="0.333333" stroke="#444444" stroke-opacity="0.333333" points="340.9826,-527.2921 348.4356,-519.7619 337.9135,-521.0007 340.9826,-527.2921"/>
</g>
<!-- libpcap&#45;&gt;Fedora Container Base -->
<g id="edge38" class="edge">
<title>libpcap&#45;&gt;Fedora Container Base</title>
<path fill="none" stroke="#444444" stroke-opacity="0.333333" d="M139.108,-240.296C211.5139,-295.1155 428.5852,-459.4634 510.6259,-521.5776"/>
<polygon fill="#444444" fill-opacity="0.333333" stroke="#444444" stroke-opacity="0.333333" points="508.9571,-524.7042 519.0425,-527.95 513.1825,-519.1233 508.9571,-524.7042"/>
</g>
<!-- libicu&#45;&gt;Fedora Container Base -->
<g id="edge39" class="edge">
<title>libicu&#45;&gt;Fedora Container Base</title>
<path fill="none" stroke="#444444" stroke-opacity="0.333333" d="M672.2878,-63.1086C652.059,-138.3272 574.6056,-426.3289 550.0293,-517.7131"/>
<polygon fill="#444444" fill-opacity="0.333333" stroke="#444444" stroke-opacity="0.333333" points="546.5829,-517.0518 547.3656,-527.6177 553.3427,-518.8698 546.5829,-517.0518"/>
</g>
<!-- libicu&#45;&gt;libicu -->
<g id="edge40" class="edge">
<title>libicu&#45;&gt;libicu</title>
<path fill="none" stroke="#444444" stroke-opacity="0.333333" d="M732.2333,-51.419C742.7341,-50.65 750.16,-48.5076 750.16,-44.992 750.16,-42.7398 747.1124,-41.0512 742.1611,-39.9262"/>
<polygon fill="#444444" fill-opacity="0.333333" stroke="#444444" stroke-opacity="0.333333" points="742.6161,-36.4559 732.2333,-38.565 741.6651,-43.391 742.6161,-36.4559"/>
</g>
<!-- libpq&#45;&gt;Fedora Container Base -->
<g id="edge43" class="edge">
<title>libpq&#45;&gt;Fedora Container Base</title>
<path fill="none" stroke="#444444" stroke-opacity="0.333333" d="M472.3604,-36.165C483.1221,-114.3454 525.5387,-422.4906 538.6306,-517.5997"/>
<polygon fill="#444444" fill-opacity="0.333333" stroke="#444444" stroke-opacity="0.333333" points="535.179,-518.1922 540.0101,-527.6214 542.1136,-517.2375 535.179,-518.1922"/>
</g>
<!-- postgresql&#45;&gt;Fedora Container Base -->
<g id="edge44" class="edge">
<title>postgresql&#45;&gt;Fedora Container Base</title>
<path fill="none" stroke="#444444" stroke-opacity="0.333333" d="M334.7422,-88.2089C367.6813,-160.7437 490.4679,-431.1307 530.0892,-518.3802"/>
<polygon fill="#444444" fill-opacity="0.333333" stroke="#444444" stroke-opacity="0.333333" points="526.968,-519.9721 534.2896,-527.6301 533.3416,-517.0777 526.968,-519.9721"/>
</g>
<!-- postgresql&#45;&gt;libpq -->
<g id="edge45" class="edge">
<title>postgresql&#45;&gt;libpq</title>
<path fill="none" stroke="#444444" stroke-opacity="0.333333" d="M376.2642,-52.0549C387.3808,-48.0101 399.2768,-43.6817 410.7319,-39.5137"/>
<polygon fill="#444444" fill-opacity="0.333333" stroke="#444444" stroke-opacity="0.333333" points="412.0232,-42.7685 420.2237,-36.0602 409.6297,-36.1904 412.0232,-42.7685"/>
</g>
<!-- postgresql&#45;server&#45;&gt;Fedora Container Base -->
<g id="edge46" class="edge">
<title>postgresql&#45;server&#45;&gt;Fedora Container Base</title>
<path fill="none" stroke="#444444" stroke-opacity="0.333333" d="M514.6759,-253.2836C519.6113,-305.1542 533.871,-455.0211 539.8316,-517.666"/>
<polygon fill="#444444" fill-opacity="0.333333" stroke="#444444" stroke-opacity="0.333333" points="536.3478,-518.0032 540.7794,-527.6267 543.3163,-517.3401 536.3478,-518.0032"/>
</g>
<!-- postgresql&#45;server&#45;&gt;shadow&#45;utils -->
<g id="edge47" class="edge">
<title>postgresql&#45;server&#45;&gt;shadow&#45;utils</title>
<path fill="none" stroke="#444444" stroke-opacity="0.333333" d="M504.195,-253.5649C482.1655,-299.5967 424.3927,-420.3162 398.4179,-474.592"/>
<polygon fill="#444444" fill-opacity="0.333333" stroke="#444444" stroke-opacity="0.333333" points="395.2575,-473.0881 394.0977,-483.6193 401.5717,-476.1099 395.2575,-473.0881"/>
</g>
<!-- postgresql&#45;server&#45;&gt;systemd -->
<g id="edge48" class="edge">
<title>postgresql&#45;server&#45;&gt;systemd</title>
<path fill="none" stroke="#444444" stroke-opacity="0.333333" d="M520.5924,-253.37C547.2973,-316.7698 636.6555,-528.9141 668.8087,-605.2489"/>
<polygon fill="#444444" fill-opacity="0.333333" stroke="#444444" stroke-opacity="0.333333" points="665.6754,-606.8265 672.7828,-614.6836 672.1264,-604.1091 665.6754,-606.8265"/>
</g>
<!-- postgresql&#45;server&#45;&gt;libicu -->
<g id="edge49" class="edge">
<title>postgresql&#45;server&#45;&gt;libicu</title>
<path fill="none" stroke="#444444" stroke-opacity="0.333333" d="M528.7042,-217.0073C558.0053,-183.0561 620.9872,-110.0793 654.7296,-70.982"/>
<polygon fill="#444444" fill-opacity="0.333333" stroke="#444444" stroke-opacity="0.333333" points="657.5795,-73.0368 661.4635,-63.1795 652.2802,-68.4632 657.5795,-73.0368"/>
</g>
<!-- postgresql&#45;server&#45;&gt;libpq -->
<g id="edge50" class="edge">
<title>postgresql&#45;server&#45;&gt;libpq</title>
<path fill="none" stroke="#444444" stroke-opacity="0.333333" d="M509.3595,-217.1011C501.8487,-179.2421 484.4635,-91.6102 475.4719,-46.2873"/>
<polygon fill="#444444" fill-opacity="0.333333" stroke="#444444" stroke-opacity="0.333333" points="478.8597,-45.3778 473.4806,-36.2501 471.9936,-46.74 478.8597,-45.3778"/>
</g>
<!-- postgresql&#45;server&#45;&gt;postgresql -->
<g id="edge51" class="edge">
<title>postgresql&#45;server&#45;&gt;postgresql</title>
<path fill="none" stroke="#444444" stroke-opacity="0.333333" d="M492.2975,-216.9503C458.7548,-187.2432 392.4094,-128.4843 354.6194,-95.0155"/>
<polygon fill="#444444" fill-opacity="0.333333" stroke="#444444" stroke-opacity="0.333333" points="356.8176,-92.287 347.0109,-88.2771 352.1765,-97.5273 356.8176,-92.287"/>
</g>
<!-- postgresql&#45;server&#45;&gt;postgresql&#45;server -->
<g id="edge52" class="edge">
<title>postgresql&#45;server&#45;&gt;postgresql&#45;server</title>
<path fill="none" stroke="#444444" stroke-opacity="0.333333" d="M656.9834,-240.3388C668.1041,-239.2138 674.96,-237.5176 674.96,-235.25 674.96,-233.7973 672.1463,-232.5791 667.2002,-231.5954"/>
<polygon fill="#444444" fill-opacity="0.333333" stroke="#444444" stroke-opacity="0.333333" points="667.3729,-228.0854 656.9834,-230.1612 666.3997,-235.0174 667.3729,-228.0854"/>
</g>
<!-- Fedora Container Base -->
<g id="node1" class="node">
<title>Fedora Container Base</title>
<ellipse fill="none" stroke="#000000" cx="542.5" cy="-545.71" rx="136.5" ry="18"/>
<text text-anchor="middle" x="542.5" y="-542.01" font-family="Helvetica,sans-Serif" font-weight="bold" font-size="14.00" fill="#000000">Fedora Container Base (201.3 MB)</text>
</g>
<!-- device&#45;mapper&#45;libs -->
<g id="node2" class="node">
<title>device&#45;mapper&#45;libs</title>
<text text-anchor="middle" x="330.36" y="-1059.3" font-family="Helvetica,sans-Serif" font-weight="bold" font-size="14.00" fill="#000000">device&#45;mapper&#45;libs (418.0 kB)</text>
</g>
<!-- device&#45;mapper -->
<g id="node3" class="node">
<title>device&#45;mapper</title>
<text text-anchor="middle" x="344.38" y="-894.38" font-family="Helvetica,sans-Serif" font-weight="bold" font-size="14.00" fill="#000000">device&#45;mapper (349.9 kB)</text>
</g>
<!-- libargon2 -->
<g id="node4" class="node">
<title>libargon2</title>
<text text-anchor="middle" x="634.28" y="-1120.4" font-family="Helvetica,sans-Serif" font-weight="bold" font-size="14.00" fill="#000000">libargon2 (54.2 kB)</text>
</g>
<!-- dbus&#45;broker -->
<g id="node5" class="node">
<title>dbus&#45;broker</title>
<text text-anchor="middle" x="808.39" y="-674.29" font-family="Helvetica,sans-Serif" font-weight="bold" font-size="14.00" fill="#000000">dbus&#45;broker (409.7 kB)</text>
</g>
<!-- dbus&#45;common -->
<g id="node6" class="node">
<title>dbus&#45;common</title>
<text text-anchor="middle" x="859.27" y="-833.01" font-family="Helvetica,sans-Serif" font-weight="bold" font-size="14.00" fill="#000000">dbus&#45;common (11.2 kB)</text>
</g>
<!-- shadow&#45;utils -->
<g id="node7" class="node">
<title>shadow&#45;utils</title>
<text text-anchor="middle" x="385.44" y="-498.01" font-family="Helvetica,sans-Serif" font-weight="bold" font-size="14.00" fill="#000000">shadow&#45;utils (4.0 MB)</text>
</g>
<!-- systemd -->
<g id="node8" class="node">
<title>systemd</title>
<text text-anchor="middle" x="680.46" y="-629.21" font-family="Helvetica,sans-Serif" font-weight="bold" font-size="14.00" fill="#000000">systemd (13.1 MB)</text>
</g>
<!-- libsemanage -->
<g id="node9" class="node">
<title>libsemanage</title>
<text text-anchor="middle" x="73.5" y="-431.16" font-family="Helvetica,sans-Serif" font-weight="bold" font-size="14.00" fill="#000000">libsemanage (304.5 kB)</text>
</g>
<!-- util&#45;linux -->
<g id="node10" class="node">
<title>util&#45;linux</title>
<text text-anchor="middle" x="277.33" y="-764.66" font-family="Helvetica,sans-Serif" font-weight="bold" font-size="14.00" fill="#000000">util&#45;linux (13.5 MB)</text>
</g>
<!-- acl -->
<g id="node11" class="node">
<title>acl</title>
<text text-anchor="middle" x="687.97" y="-321.84" font-family="Helvetica,sans-Serif" font-weight="bold" font-size="14.00" fill="#000000">acl (209.6 kB)</text>
</g>
<!-- cryptsetup&#45;libs -->
<g id="node12" class="node">
<title>cryptsetup&#45;libs</title>
<text text-anchor="middle" x="567.48" y="-984.79" font-family="Helvetica,sans-Serif" font-weight="bold" font-size="14.00" fill="#000000">cryptsetup&#45;libs (1.8 MB)</text>
</g>
<!-- dbus -->
<g id="node13" class="node">
<title>dbus</title>
<text text-anchor="middle" x="1117.9" y="-787.42" font-family="Helvetica,sans-Serif" font-weight="bold" font-size="14.00" fill="#000000">dbus (0.0 B)</text>
</g>
<!-- iptables&#45;libs -->
<g id="node14" class="node">
<title>iptables&#45;libs</title>
<text text-anchor="middle" x="324.44" y="-338.31" font-family="Helvetica,sans-Serif" font-weight="bold" font-size="14.00" fill="#000000">iptables&#45;libs (141.4 kB)</text>
</g>
<!-- kmod&#45;libs -->
<g id="node15" class="node">
<title>kmod&#45;libs</title>
<text text-anchor="middle" x="843.08" y="-282.19" font-family="Helvetica,sans-Serif" font-weight="bold" font-size="14.00" fill="#000000">kmod&#45;libs (127.5 kB)</text>
</g>
<!-- libfdisk -->
<g id="node16" class="node">
<title>libfdisk</title>
<text text-anchor="middle" x="454.1" y="-823.03" font-family="Helvetica,sans-Serif" font-weight="bold" font-size="14.00" fill="#000000">libfdisk (472.7 kB)</text>
</g>
<!-- libseccomp -->
<g id="node17" class="node">
<title>libseccomp</title>
<text text-anchor="middle" x="902.93" y="-437.42" font-family="Helvetica,sans-Serif" font-weight="bold" font-size="14.00" fill="#000000">libseccomp (351.1 kB)</text>
</g>
<!-- qrencode&#45;libs -->
<g id="node18" class="node">
<title>qrencode&#45;libs</title>
<text text-anchor="middle" x="642.01" y="-841.04" font-family="Helvetica,sans-Serif" font-weight="bold" font-size="14.00" fill="#000000">qrencode&#45;libs (158.2 kB)</text>
</g>
<!-- systemd&#45;pam -->
<g id="node19" class="node">
<title>systemd&#45;pam</title>
<text text-anchor="middle" x="283.75" y="-611.73" font-family="Helvetica,sans-Serif" font-weight="bold" font-size="14.00" fill="#000000">systemd&#45;pam (867.6 kB)</text>
</g>
<!-- systemd&#45;rpm&#45;macros -->
<g id="node20" class="node">
<title>systemd&#45;rpm&#45;macros</title>
<text text-anchor="middle" x="1053.2" y="-1051.7" font-family="Helvetica,sans-Serif" font-weight="bold" font-size="14.00" fill="#000000">systemd&#45;rpm&#45;macros (4.9 kB)</text>
</g>
<!-- diffutils -->
<g id="node21" class="node">
<title>diffutils</title>
<text text-anchor="middle" x="978.59" y="-597.78" font-family="Helvetica,sans-Serif" font-weight="bold" font-size="14.00" fill="#000000">diffutils (1.5 MB)</text>
</g>
<!-- libxkbcommon -->
<g id="node22" class="node">
<title>libxkbcommon</title>
<text text-anchor="middle" x="1083.8" y="-359.51" font-family="Helvetica,sans-Serif" font-weight="bold" font-size="14.00" fill="#000000">libxkbcommon (276.4 kB)</text>
</g>
<!-- libutempter -->
<g id="node23" class="node">
<title>libutempter</title>
<text text-anchor="middle" x="88.514" y="-642.86" font-family="Helvetica,sans-Serif" font-weight="bold" font-size="14.00" fill="#000000">libutempter (57.8 kB)</text>
</g>
<!-- libpcap -->
<g id="node24" class="node">
<title>libpcap</title>
<text text-anchor="middle" x="115.22" y="-218.51" font-family="Helvetica,sans-Serif" font-weight="bold" font-size="14.00" fill="#000000">libpcap (387.4 kB)</text>
</g>
<!-- libicu -->
<g id="node25" class="node">
<title>libicu</title>
<text text-anchor="middle" x="677.16" y="-41.292" font-family="Helvetica,sans-Serif" font-weight="bold" font-size="14.00" fill="#000000">libicu (32.1 MB)</text>
</g>
<!-- xkeyboard&#45;config -->
<g id="node26" class="node">
<title>xkeyboard&#45;config</title>
<text text-anchor="middle" x="1521.8" y="-159.68" font-family="Helvetica,sans-Serif" font-weight="bold" font-size="14.00" fill="#000000">xkeyboard&#45;config (5.5 MB)</text>
</g>
<!-- libpq -->
<g id="node27" class="node">
<title>libpq</title>
<text text-anchor="middle" x="469.86" y="-14.3" font-family="Helvetica,sans-Serif" font-weight="bold" font-size="14.00" fill="#000000">libpq (710.3 kB)</text>
</g>
<!-- postgresql -->
<g id="node28" class="node">
<title>postgresql</title>
<text text-anchor="middle" x="326.54" y="-66.447" font-family="Helvetica,sans-Serif" font-weight="bold" font-size="14.00" fill="#000000">postgresql (5.7 MB)</text>
</g>
<!-- postgresql&#45;server -->
<g id="node29" class="node">
<title>postgresql&#45;server</title>
<text text-anchor="middle" x="512.96" y="-229.65" font-family="Helvetica,sans-Serif" font-weight="bold" font-size="22.00" fill="#cc0066">postgresql&#45;server (21.4 MB)</text>
</g>
</g>

<script type="text/javascript"><![CDATA[

document.addEventListener('click', function(e) {
      e = e || window.event;
      var target = e.target || e.srcElement;
      text = target.parentElement.querySelector("title").textContent;

      console.log("Clicked on: " + text);
      // reset all strokes
      var nodes = document.getElementsByClassName("edge");

      for (index = 0, len = nodes.length; index < len; ++index) {
          //var title = nodes[index].querySelector("title").textContent.split("->");
          id = nodes[index].id;
          document.getElementById(id).querySelector("path").setAttribute("stroke-width", "1");
          document.getElementById(id).querySelector("path").setAttribute("stroke-opacity", "0.5");
          document.getElementById(id).querySelector("path").setAttribute("stroke", "#444444");
          document.getElementById(id).querySelector("polygon").setAttribute("stroke-width", "1");
          document.getElementById(id).querySelector("polygon").setAttribute("stroke-opacity", "0.5");
          document.getElementById(id).querySelector("polygon").setAttribute("stroke", "#444444");
      }
      // reset text highlight
      pkgs = document.getElementsByClassName("node");
      for (index2 = 0, len2 = pkgs.length; index2 < len2; ++index2) {
          target_id = pkgs[index2].id;
          document.getElementById(target_id).querySelector("text").setAttribute("font-weight", "normal");
      }

      // highlight deps
      var nodes = document.getElementsByClassName("edge");
      for (index = 0, len = nodes.length; index < len; ++index) {
        var title = nodes[index].querySelector("title").textContent.split("->");

        if (title[0] == text) {
          id = nodes[index].id;
          //console.log("ID:   " + id);
          document.getElementById(id).querySelector("path").setAttribute("stroke-width", "3");
          document.getElementById(id).querySelector("path").setAttribute("stroke-opacity", "1");
          document.getElementById(id).querySelector("path").setAttribute("stroke", "#aa3333");
          document.getElementById(id).querySelector("polygon").setAttribute("stroke-width", "5");
          document.getElementById(id).querySelector("polygon").setAttribute("stroke-opacity", "1");
          document.getElementById(id).querySelector("polygon").setAttribute("stroke", "#aa3333");

        }
        if (title[1] == text) {
          id = nodes[index].id;
          document.getElementById(id).querySelector("path").setAttribute("stroke-width", "3");
          document.getElementById(id).querySelector("path").setAttribute("stroke-opacity", "1");
          document.getElementById(id).querySelector("path").setAttribute("stroke", "#333377");
          document.getElementById(id).querySelector("polygon").setAttribute("stroke-width", "5");
          document.getElementById(id).querySelector("polygon").setAttribute("stroke-opacity", "1");
          document.getElementById(id).querySelector("polygon").setAttribute("stroke", "#333377");
        }

        if (title[0] == text || title[1] == text) {
          pkgs = document.getElementsByClassName("node");
          for (index2 = 0, len2 = pkgs.length; index2 < len2; ++index2) {
            var pkg_name = pkgs[index2].querySelector("title").textContent;
            if (pkg_name == title[0] || pkg_name == title[1]) {
              target_id = pkgs[index2].id;
              document.getElementById(target_id).querySelector("text").setAttribute("font-weight", "bold");
            }
          }
        }
      }


  }, false);

]]></script>

</svg>
