<?xml version="1.0" encoding="UTF-8" standalone="no"?>
<!DOCTYPE svg PUBLIC "-//W3C//DTD SVG 1.1//EN"
 "http://www.w3.org/Graphics/SVG/1.1/DTD/svg11.dtd">
<!-- Generated by graphviz version 2.40.1 (0)
 -->
<!-- Title: packages Pages: 1 -->
<svg width="1531pt" height="1180pt"
 viewBox="0.00 0.00 1837.56 1416.32" xmlns="http://www.w3.org/2000/svg" xmlns:xlink="http://www.w3.org/1999/xlink">
<g id="graph0" class="graph" transform="scale(.8333 .8333) rotate(0) translate(129.8448 1268.9722)">
<title>packages</title>
<polygon fill="#dae2ff" stroke="transparent" points="-129.8448,147.3435 -129.8448,-1268.9722 1707.7196,-1268.9722 1707.7196,147.3435 -129.8448,147.3435"/>
<polygon fill="#bbd7d9" stroke="#bbd7d9" points="1140.7267,-494.7086 1143.5786,-515.7029 1154.1069,-565.5889 1132.3295,-576.3196 1119.4128,-581.8146 1108.2485,-585.8021 1106.7609,-586.2318 1096.7705,-588.7824 1091.4327,-589.9635 1082.5056,-591.6348 1080.318,-591.9694 1060.1656,-593.6853 1057.3026,-594.0253 1046.1877,-595.7203 1036.8817,-597.7648 1024.7867,-601.2372 1011.3945,-605.9783 1003.8091,-609.1627 995.7728,-613.3468 984.2407,-619.7437 977.3658,-624.0151 964.5032,-632.8804 960.7841,-635.6923 950.8154,-643.5707 943.7106,-643.7866 928.4364,-645.4808 893.4406,-650.7697 861.3423,-642.999 843.031,-637.8597 828.458,-632.9343 822.5854,-630.8384 811.8204,-626.5881 798.6905,-620.6538 787.7493,-615.2926 767.1526,-604.4189 769.1151,-560.21 811.7933,-526.7409 842.6271,-501.2055 855.6967,-488.6602 855.9374,-488.4452 862.9128,-483.0629 865.9834,-480.8796 879.777,-471.8929 893.3665,-465.5796 902.4983,-462.4861 913.6819,-460.0931 929.6664,-458.6734 933.8704,-457.7708 945.0703,-454.645 953.5775,-451.1957 962.295,-447.1155 962.3627,-447.0797 976.0032,-438.102 985.3676,-430.7658 993.9675,-422.9428 1001.986,-414.6156 1009.6638,-407.6997 1011.0906,-406.2646 1012.5174,-404.7494 1020.9845,-409.5514 1024.3966,-411.2409 1037.5928,-417.3104 1056.1056,-423.8331 1098.1589,-434.0658 1114.234,-439.1214 1116.7599,-440.0909 1128.7051,-445.5336 1133.0519,-447.824 1137.4249,-468.5446 1140.0879,-488.156 1140.7267,-494.7086 1140.7267,-494.7086"/>
<polygon fill="#d8d6da" stroke="#d8d6da" points="-124.4005,-587.2399 -124.4245,-585.6109 -125.8448,-544.2479 33.5834,-452.2098 51.1038,-440.7993 53.4684,-442.4348 60.4258,-447.0758 66.0716,-450.5662 75.4812,-455.7151 89.5429,-463.0776 271.024,-553.6724 281.0119,-578.649 288.1431,-595.7104 290.3363,-595.0441 435.588,-546.0391 445.7284,-542.963 446.0248,-542.8834 456.834,-540.3475 460.7315,-539.5682 461.2933,-513.7534 465.5042,-454.6435 470.1041,-455.9497 470.1041,-455.9497 465.5042,-454.6435 461.2933,-513.7534 460.7315,-539.5682 456.834,-540.3475 446.0248,-542.8834 445.7284,-542.963 435.588,-546.0391 290.3363,-595.0441 288.1431,-595.7104 281.0119,-578.649 271.024,-553.6724 299.4434,-469.8168 306.0163,-448.9195 309.9949,-435.1638 340.2783,-320.2584 340.6348,-319.6421 355.0681,-306.5908 360.7773,-293.1636 395.6182,-254.4312 455.9966,-200.5633 515.6057,-194.9093 520.6015,-194.2373 530.9764,-192.6354 545.8715,-189.7436 554.2648,-187.7826 553.9419,-275.3049 556.5365,-335.2271 556.5365,-335.2271 553.9419,-275.3049 554.2648,-187.7826 589.3318,-178.2008 590.0231,-178.83 638.21,-224.4689 601.5092,-341.54 600.3465,-353.7964 597.7407,-369.1206 595.0946,-380.0017 583.7728,-416.117 586.1018,-417.3049 589.5745,-418.9074 598.7507,-422.7002 606.6844,-425.5875 619.4855,-428.9813 645.228,-434.5106 647.9603,-435.2214 655.0894,-437.4024 658.6665,-438.6587 659.4168,-438.9565 670.3524,-443.8107 679.3633,-448.6416 686.9907,-453.0788 696.9139,-459.7557 707.0437,-467.4943 715.2502,-474.5099 720.0898,-478.8656 721.9173,-480.3245 748.7844,-502.8528 760.8422,-537.7868 769.1151,-560.21 767.1526,-604.4189 730.3503,-626.3358 717.9106,-643.1107 707.2893,-658.6624 709.2829,-792.49 709.2119,-793.1674 709.0598,-795.5157 711.4267,-954.4042 688.7806,-960.5294 628.3535,-942.5684 628.7437,-860.8451 628.7437,-860.8451 628.3535,-942.5684 618.0027,-939.8903 617.5753,-898.2402 617.5753,-898.2402 618.0027,-939.8903 612.1993,-938.7227 592.8176,-935.1934 597.9611,-829.7981 602.3807,-799.0279 606.3879,-796.8909 608.52,-794.566 607.3699,-793.3555 601.6595,-790.2037 601.6595,-790.2037 607.3699,-793.3555 608.52,-794.566 606.3879,-796.8909 602.3807,-799.0279 597.9611,-829.7981 592.8176,-935.1934 591.5796,-935.0159 590.9971,-934.9548 576.1298,-933.6782 565.3651,-932.9613 568.7329,-826.3791 572.9767,-796.2277 573.9473,-794.8083 571.4163,-792.8858 577.1766,-708.3039 559.499,-709.0511 558.9443,-681.0713 558.9443,-681.0713 559.499,-709.0511 577.1766,-708.3039 571.4163,-792.8858 573.9473,-794.8083 572.9767,-796.2277 568.7329,-826.3791 565.3651,-932.9613 523.4963,-931.7861 410.1382,-850.2938 377.3319,-824.5246 361.5406,-812.9227 324.2196,-866.509 318.6729,-874.7944 244.3176,-990.5518 226.3632,-999.9943 157.0277,-1008.9956 150.8162,-1009.9088 149.9532,-972.8741 152.5703,-847.8685 152.2742,-847.3075 154.0473,-846.4028 157.7593,-842.0571 358.6643,-790.961 358.5807,-790.2376 289.3661,-680.0607 490.2182,-628.5284 494.0325,-680.7017 492.6787,-725.7433 512.3037,-717.8539 514.1348,-717.1794 514.1348,-717.1794 512.3037,-717.8539 492.6787,-725.7433 494.0325,-680.7017 494.095,-679.9353 495.7014,-624.3621 497.2594,-623.142 495.7879,-620.9149 492.3412,-546.9943 492.2691,-539.4059 488.8233,-537.2061 490.5768,-534.4327 500.704,-519.615 500.3815,-502.0199 500.3815,-502.0199 500.704,-519.615 490.5768,-534.4327 488.8233,-537.2061 492.2691,-539.4059 492.3412,-546.9943 495.7879,-620.9149 497.2594,-623.142 495.7014,-624.3621 494.095,-679.9353 494.0325,-680.7017 490.2182,-628.5284 289.3661,-680.0607 358.5807,-790.2376 358.6643,-790.961 157.7593,-842.0571 154.0473,-846.4028 152.2742,-847.3075 152.5703,-847.8685 149.9532,-972.8741 145.8813,-883.2223 147.6809,-847.1684 147.4649,-847.1054 147.4649,-847.1054 147.6809,-847.1684 145.8813,-883.2223 149.9532,-972.8741 150.8162,-1009.9088 140.289,-1012.0026 128.4059,-1006.5387 109.775,-999.4763 109.7185,-992.7888 110.0933,-956.9719 109.0336,-887.0318 111.6212,-849.0114 116.5769,-851.8773 121.121,-851.8773 126.4688,-848.7584 127.741,-847.257 126.4986,-845.7917 121.113,-842.6453 116.3822,-842.6453 116.3822,-842.6453 121.113,-842.6453 126.4986,-845.7917 127.741,-847.257 126.4688,-848.7584 121.121,-851.8773 116.5769,-851.8773 111.6212,-849.0114 109.0336,-887.0318 110.0933,-956.9719 109.7185,-992.7888 109.775,-999.4763 90.477,-993.7115 91.3055,-950.366 91.3055,-950.366 90.477,-993.7115 83.3852,-991.8802 76.6641,-990.2805 23.8119,-978.7706 -50.6583,-899.5839 -62.6729,-878.5707 -70.7838,-865.0661 -67.1,-848.1033 -60.7286,-815.4955 -49.4984,-750.5399 -123.9086,-652.5834 -124.7198,-651.5582 -124.4005,-587.2399 -124.4005,-587.2399"/>
<polygon fill="#bbd7d9" stroke="#bbd7d9" points="1319.1682,-712.0992 1307.356,-675.7228 1297.7329,-652.569 1343.0575,-633.843 1349.9432,-631.6479 1360.1373,-628.8782 1360.3821,-628.8235 1365.7794,-627.8721 1375.8062,-626.579 1376.5673,-626.5172 1379.8778,-626.4051 1385.2432,-626.4775 1387.8243,-626.6351 1389.4525,-626.6548 1395.0212,-626.4507 1395.5217,-626.4799 1401.047,-626.5324 1402.4008,-626.6096 1408.0453,-626.6556 1410.3679,-626.4474 1418.0551,-626.1247 1430.2456,-624.4185 1434.6508,-623.5885 1441.666,-621.9272 1442.6055,-621.6598 1448.9174,-619.5559 1484.5603,-604.163 1465.9642,-564.8705 1464.9641,-562.0054 1454.0474,-524.2729 1453.9741,-524.0644 1445.3976,-503.4145 1417.901,-445.3161 1412.889,-446.7115 1398.9778,-450.2354 1391.2527,-451.798 1382.1528,-453.1765 1381.1418,-453.3038 1363.9703,-442.5813 1355.1813,-436.643 1343.218,-429.0873 1341.9005,-428.3167 1324.8169,-419.8419 1321.5605,-418.5303 1319.0055,-417.6165 1316.7555,-350.9629 1311.5441,-350.9629 1307.318,-348.645 1305.4496,-346.5253 1305.4496,-346.5253 1307.318,-348.645 1311.5441,-350.9629 1316.7555,-350.9629 1319.0055,-417.6165 1316.6925,-416.8923 1305.9276,-413.9976 1290.8185,-411.2962 1285.1888,-410.8034 1281.7156,-410.6563 1281.5004,-405.5192 1281.5004,-405.5192 1281.7156,-410.6563 1275.1803,-410.9697 1264.6868,-410.5232 1256.0071,-409.3683 1248.4843,-407.6828 1237.597,-404.7467 1234.04,-403.4685 1223.163,-399.0616 1218.3019,-396.6565 1217.4711,-367.5804 1217.803,-353.8163 1216.7524,-341.0887 1216.97,-332.0422 1216.2549,-307.0117 1203.0226,-300.255 1201.3823,-299.5877 1191.6592,-296.116 1190.9517,-295.8997 1178.4308,-292.6992 1178.422,-292.6974 1172.6034,-291.8071 1169.1688,-291.4562 1163.2261,-291.1507 1154.2946,-291.1462 1152.822,-290.9988 1149.9087,-291.0034 1149.7091,-291.0139 1142.7506,-291.0325 1138.3611,-290.8253 1130.7373,-290.0849 1117.8627,-287.5471 1113.9191,-286.381 1097.4434,-279.8277 1060.5972,-261.5726 1045.922,-254.9482 1061.0814,-217.6714 1070.3967,-188.9838 1079.6647,-163.7224 1091.6051,-134.3094 1092.5328,-132.206 1090.5245,-130.6143 1077.9014,-121.1129 991.9193,-60.0232 985.7518,-55.3802 975.2265,-47.0136 972.6631,-44.8722 971.3651,-43.8479 963.8922,-37.6589 959.4477,-33.8075 953.3069,-28.2494 942.376,-17.5022 942.3658,-17.4918 937.6591,-12.4981 926.3791,-.0813 924.7092,1.6189 915.572,11.5659 904.957,36.6044 920.121,53.7841 971.7267,88.671 1077.5457,125.497 1095.259,132.0458 1094.5681,59.5146 1099.6703,-17.9995 1102.8405,-17.9995 1104.5947,-19.9951 1108.7511,-22.2966 1115.3141,-22.2966 1119.7166,-19.876 1121.3622,-18.0621 1124.264,-18.0621 1124.2689,-18.0607 1129.6311,-18.0607 1135.1282,-125.2224 1135.3541,-125.2084 1136.8878,-64.3648 1136.8878,-64.3648 1135.3541,-125.2084 1135.1282,-125.2224 1129.6311,-18.0607 1124.2689,-18.0607 1124.264,-18.0621 1121.3622,-18.0621 1119.7166,-19.876 1115.3141,-22.2966 1108.7511,-22.2966 1104.5947,-19.9951 1102.8405,-17.9995 1103.7102,-17.0102 1103.7102,-17.0102 1102.8405,-17.9995 1099.6703,-17.9995 1094.5681,59.5146 1095.259,132.0458 1110.8193,138.7916 1119.585,143.3435 1128.2913,141.2808 1152.6753,136.8188 1198.6675,129.2431 1222.8182,108.7507 1284.9104,9.7695 1293.8802,7.2722 1305.4087,4.5076 1306.8463,4.2185 1320.4325,1.7472 1327.7836,.6948 1339.082,-.7037 1339.796,-.7506 1352.679,-3.0596 1360.2336,-4.1105 1372.6029,-5.3363 1388.3574,-6.2658 1379.1418,-136.8758 1374.9689,-140.9237 1374.8542,-141.1408 1373.5712,-142.2559 1369.8746,-142.2559 1366.3112,-191.5035 1363.6958,-142.2274 1358.4783,-142.2274 1358.3362,-142.1874 1354.9491,-142.1874 1354.222,-141.9812 1354.222,-141.9812 1354.9491,-142.1874 1358.3362,-142.1874 1358.4783,-142.2274 1363.6958,-142.2274 1366.3112,-191.5035 1369.8746,-142.2559 1373.5712,-142.2559 1374.8542,-141.1408 1374.9689,-140.9237 1379.1418,-136.8758 1388.3574,-6.2658 1428.4044,-7.8243 1509.339,-56.2797 1537.4238,-98.6817 1537.0813,-108.3239 1536.96,-115.8557 1528.5773,-158.4744 1519.8284,-215.1482 1497.9805,-263.6282 1513.3528,-339.805 1515.1306,-347.831 1524.557,-353.527 1529.0731,-356.0453 1538.8258,-361.2591 1542.5038,-363.1393 1542.9253,-514.2925 1546.6271,-517.5887 1543.0525,-520.8008 1543.0525,-520.8008 1546.6271,-517.5887 1542.9253,-514.2925 1542.5038,-363.1393 1550.3369,-366.9616 1553.7415,-368.4648 1573.6249,-376.7881 1644.2188,-404.6495 1649.0936,-407.8955 1700.9956,-488.4529 1703.7196,-495.44 1697.859,-512.9276 1695.6705,-519.9921 1671.4589,-613.3596 1611.0206,-674.41 1607.6658,-707.3278 1606.965,-718.6467 1532.6655,-857.6467 1519.9196,-875.5044 1517.877,-875.7422 1454.2191,-825.637 1446.4689,-820.0339 1445.4052,-819.2224 1436.7603,-812.918 1429.7472,-808.0438 1422.932,-803.7719 1414.7688,-798.9315 1413.6646,-798.3148 1399.202,-790.7245 1397.8263,-790.0983 1389.3615,-786.53 1338.4362,-768.5048 1327.1586,-741.37 1319.1682,-712.0992 1319.1682,-712.0992"/>
<polygon fill="#fed9a6" stroke="#fed9a6" points="1464.9641,-562.0054 1465.9642,-564.8705 1484.5603,-604.163 1448.9174,-619.5559 1442.6055,-621.6598 1441.666,-621.9272 1434.6508,-623.5885 1430.2456,-624.4185 1418.0551,-626.1247 1410.3679,-626.4474 1408.0453,-626.6556 1402.4008,-626.6096 1401.047,-626.5324 1395.5217,-626.4799 1395.0212,-626.4507 1389.4525,-626.6548 1387.8243,-626.6351 1385.2432,-626.4775 1379.8778,-626.4051 1376.5673,-626.5172 1375.8062,-626.579 1365.7794,-627.8721 1360.3821,-628.8235 1360.1373,-628.8782 1349.9432,-631.6479 1343.0575,-633.843 1297.7329,-652.569 1258.069,-632.1684 1254.2649,-735.0237 1249.9287,-737.8978 1246.3811,-707.3153 1245.1104,-625.0832 1243.9866,-624.3979 1236.7797,-619.7676 1234.0687,-624.0749 1232.0819,-709.7685 1227.8732,-740.7658 1224.4537,-738.028 1218.647,-736.4073 1213.9772,-737.6689 1209.4496,-741.3897 1208.9797,-741.2586 1204.7216,-741.2586 1201.3936,-712.8474 1201.9417,-666.1392 1194.5492,-673.8188 1189.4701,-678.6559 1184.1912,-683.2258 1179.7399,-688.163 1141.5946,-725.8684 1133.1509,-733.0089 1127.8518,-738.0152 1123.1312,-742.9415 1121.5784,-744.3984 1108.2214,-759.361 1107.3629,-758.5988 1105.7419,-757.3536 1101.6201,-754.4182 1099.5411,-753.0533 1032.8461,-772.684 1032.8461,-772.684 1099.5411,-753.0533 1101.6201,-754.4182 1105.7419,-757.3536 1107.3629,-758.5988 1108.2214,-759.361 1121.5784,-744.3984 1123.1312,-742.9415 1127.8518,-738.0152 1133.1509,-733.0089 1141.5946,-725.8684 1179.7399,-688.163 1184.1912,-683.2258 1189.4701,-678.6559 1194.5492,-673.8188 1201.9417,-666.1392 1201.3936,-712.8474 1204.7216,-741.2586 1208.9797,-741.2586 1209.4496,-741.3897 1213.9772,-737.6689 1218.647,-736.4073 1224.4537,-738.028 1227.8732,-740.7658 1232.0819,-709.7685 1234.0687,-624.0749 1236.7797,-619.7676 1243.9866,-624.3979 1245.1104,-625.0832 1246.3811,-707.3153 1249.9287,-737.8978 1254.2649,-735.0237 1258.069,-632.1684 1297.7329,-652.569 1307.356,-675.7228 1319.1682,-712.0992 1327.1586,-741.37 1338.4362,-768.5048 1389.3615,-786.53 1397.8263,-790.0983 1399.202,-790.7245 1413.6646,-798.3148 1414.7688,-798.9315 1422.932,-803.7719 1429.7472,-808.0438 1436.7603,-812.918 1445.4052,-819.2224 1446.4689,-820.0339 1454.2191,-825.637 1517.877,-875.7422 1519.9196,-875.5044 1609.9785,-977.8167 1630.3342,-1072 1637.2109,-1095.8191 1623.2015,-1167.1755 1557.1953,-1203.9102 1501.3629,-1220.5753 1495.1554,-1222.5514 1482.6941,-1226.7651 1479.9001,-1227.8195 1472.4486,-1226.1318 1471.9827,-1185.3468 1469.8043,-1124.34 1469.8043,-1124.34 1471.9827,-1185.3468 1472.4486,-1226.1318 1458.3243,-1223.7017 1448.8041,-1222.2372 1450.0251,-1124.8932 1456.2271,-1076.3658 1460.8081,-1073.8962 1462.4977,-1072.0907 1460.675,-1070.105 1455.7208,-1067.4077 1455.7208,-1067.4077 1460.675,-1070.105 1462.4977,-1072.0907 1460.8081,-1073.8962 1456.2271,-1076.3658 1450.0251,-1124.8932 1448.8041,-1222.2372 1436.3406,-1221.0009 1436.0875,-1183.1869 1434.2211,-1123.8428 1435.6453,-1072.2042 1435.432,-1072.1422 1435.3048,-1030.634 1434.4467,-1020.0526 1432.6157,-938.4051 1444.4001,-931.4356 1454.7919,-925.0164 1460.8427,-920.9645 1473.0006,-912.5052 1475.548,-910.6026 1492.0259,-897.4219 1493.882,-895.842 1501.8494,-888.8495 1343.7831,-865.5551 1326.0564,-866.6212 1321.4247,-862.9955 1316.2965,-934.5407 1316.2378,-933.3192 1309.8053,-860.8444 1305.9291,-860.8444 1303.3148,-902.9217 1299.6834,-864.2736 1295.7605,-865.3496 1291.8966,-886.1982 1288.2859,-1003.1104 1278.9817,-1008.9025 1278.8038,-997.415 1279.0726,-941.9075 1278.7114,-930.2407 1278.7114,-930.2407 1279.0726,-941.9075 1278.8038,-997.415 1278.9817,-1008.9025 1288.2859,-1003.1104 1291.8966,-886.1982 1295.7605,-865.3496 1299.6834,-864.2736 1303.3148,-902.9217 1305.9291,-860.8444 1309.8053,-860.8444 1316.2378,-933.3192 1316.2965,-934.5407 1321.4247,-862.9955 1326.0564,-866.6212 1343.7831,-865.5551 1501.8494,-888.8495 1493.882,-895.842 1492.0259,-897.4219 1475.548,-910.6026 1473.0006,-912.5052 1460.8427,-920.9645 1454.7919,-925.0164 1444.4001,-931.4356 1432.6157,-938.4051 1434.4467,-1020.0526 1435.3048,-1030.634 1435.432,-1072.1422 1435.6453,-1072.2042 1434.2211,-1123.8428 1436.0875,-1183.1869 1436.3406,-1221.0009 1421.1221,-1220.3206 1402.4976,-1220.5039 1399.5209,-1220.2761 1393.064,-1219.9 1376.7303,-1216.3995 1262.1802,-1151.351 1134.6039,-1264.9722 1115.0214,-1261.6257 1097.7122,-1255.6385 1095.2633,-1254.8444 1094.1906,-1179.4974 1090.2501,-1111.4213 1091.5581,-1109.8247 1090.4769,-1108.4974 1084.8687,-1105.1089 1080.4744,-1105.1089 1077.4304,-1073.78 1077.5225,-1017.049 1080.7471,-1016.8702 1082.958,-1016.8153 1082.958,-1016.8153 1080.7471,-1016.8702 1077.5225,-1017.049 1077.4304,-1073.78 1080.4744,-1105.1089 1084.8687,-1105.1089 1090.4769,-1108.4974 1091.5581,-1109.8247 1090.2501,-1111.4213 1094.1906,-1179.4974 1095.2633,-1254.8444 1086.6519,-1252.4185 1066.7782,-1247.6642 1003.0696,-1236.5334 958.2175,-1207.9969 931.8984,-1169.9885 917.2982,-1111.6487 915.6701,-1106.1287 909.8837,-1087.9004 930.4297,-1070.6064 1002.4724,-1014.6477 1001.1027,-941.983 1000.69,-935.5197 1001.1989,-915.9917 1000.8487,-910.5052 1000.0718,-869.2878 992.1213,-865.6424 984.2826,-862.3561 972.8755,-858.4711 959.6669,-855.0174 928.1624,-848.0477 926.6924,-847.6046 918.8322,-844.9096 912.0474,-848.2601 905.6142,-850.8513 893.6146,-855.1433 889.2217,-856.3105 860.5007,-862.6456 851.3538,-865.0649 839.1215,-869.3712 831.9864,-872.5009 829.8713,-873.5204 817.3095,-880.1315 798.8223,-892.2776 802.9944,-826.9657 808.5778,-792.7246 811.0129,-792.7246 812.2552,-792.3679 813.4163,-792.3679 817.1099,-795.59 817.1099,-795.59 813.4163,-792.3679 812.2552,-792.3679 811.0129,-792.7246 808.5778,-792.7246 802.9944,-826.9657 798.8223,-892.2776 797.1491,-893.5159 794.8776,-895.2953 788.4225,-900.6391 785.9724,-902.7751 754.7591,-928.3743 719.4527,-955.9955 711.4267,-954.4042 709.0598,-795.5157 709.2119,-793.1674 709.2829,-792.49 707.2893,-658.6624 717.9106,-643.1107 730.3503,-626.3358 767.1526,-604.4189 787.7493,-615.2926 798.6905,-620.6538 811.8204,-626.5881 822.5854,-630.8384 828.458,-632.9343 843.031,-637.8597 861.3423,-642.999 893.4406,-650.7697 928.4364,-645.4808 943.7106,-643.7866 950.8154,-643.5707 960.7841,-635.6923 964.5032,-632.8804 977.3658,-624.0151 984.2407,-619.7437 995.7728,-613.3468 1003.8091,-609.1627 1011.3945,-605.9783 1024.7867,-601.2372 1036.8817,-597.7648 1046.1877,-595.7203 1057.3026,-594.0253 1060.1656,-593.6853 1080.318,-591.9694 1079.9937,-613.712 1079.9937,-613.712 1080.318,-591.9694 1082.5056,-591.6348 1091.4327,-589.9635 1096.7705,-588.7824 1106.7609,-586.2318 1108.2485,-585.8021 1109.3713,-641.1705 1107.0515,-673.033 1113.4161,-676.8521 1114.0481,-677.5621 1113.4502,-678.2235 1113.4502,-678.2235 1114.0481,-677.5621 1113.4161,-676.8521 1107.0515,-673.033 1109.3713,-641.1705 1108.2485,-585.8021 1119.4128,-581.8146 1132.3295,-576.3196 1131.3242,-624.8997 1127.2267,-676.4794 1126.0323,-677.3925 1123.6516,-677.3925 1123.6516,-677.3925 1126.0323,-677.3925 1127.2267,-676.4794 1131.3242,-624.8997 1132.3295,-576.3196 1154.1069,-565.5889 1213.5614,-592.7309 1227.1766,-599.3301 1228.4626,-597.6684 1234.0468,-590.7731 1234.9265,-589.7377 1243.9575,-579.6052 1252.7192,-570.7578 1257.1891,-565.9185 1263.1171,-560.5804 1272.4407,-550.7446 1277.5837,-546.0776 1344.5607,-490.0587 1345.2256,-489.457 1346.046,-488.5902 1360.5861,-475.8021 1369.9138,-466.4708 1372.4176,-463.6611 1381.1418,-453.3038 1382.1528,-453.1765 1381.9963,-562.008 1377.1677,-559.3896 1372.1072,-559.3896 1372.1072,-559.3896 1377.1677,-559.3896 1381.9963,-562.008 1382.1528,-453.1765 1391.2527,-451.798 1398.9778,-450.2354 1412.889,-446.7115 1417.901,-445.3161 1445.3976,-503.4145 1453.9741,-524.0644 1454.0474,-524.2729 1464.9641,-562.0054 1464.9641,-562.0054"/>
<polygon fill="#fbb4ae" stroke="#fbb4ae" points="1355.1813,-436.643 1363.9703,-442.5813 1381.1418,-453.3038 1372.4176,-463.6611 1369.9138,-466.4708 1360.5861,-475.8021 1346.046,-488.5902 1345.2256,-489.457 1344.5607,-490.0587 1277.5837,-546.0776 1272.4407,-550.7446 1270.4672,-502.9618 1265.7015,-475.5476 1263.7322,-475.5476 1261.4843,-474.895 1258.5857,-474.895 1257.3607,-473.5464 1257.3607,-473.5464 1258.5857,-474.895 1261.4843,-474.895 1263.7322,-475.5476 1265.7015,-475.5476 1270.4672,-502.9618 1272.4407,-550.7446 1263.1171,-560.5804 1257.1891,-565.9185 1252.7192,-570.7578 1243.9575,-579.6052 1234.9265,-589.7377 1234.0468,-590.7731 1228.4626,-597.6684 1227.1766,-599.3301 1213.5614,-592.7309 1154.1069,-565.5889 1143.5786,-515.7029 1140.7267,-494.7086 1140.0879,-488.156 1137.4249,-468.5446 1133.0519,-447.824 1140.5055,-441.9271 1137.3026,-349.9929 1137.2177,-349.9929 1133.1,-346.6498 1133.1,-346.6498 1137.2177,-349.9929 1137.3026,-349.9929 1140.5055,-441.9271 1133.0519,-447.824 1128.7051,-445.5336 1116.7599,-440.0909 1114.234,-439.1214 1098.1589,-434.0658 1056.1056,-423.8331 1037.5928,-417.3104 1024.3966,-411.2409 1020.9845,-409.5514 1012.5174,-404.7494 1011.0906,-406.2646 1009.6638,-407.6997 1001.986,-414.6156 993.9675,-422.9428 985.3676,-430.7658 976.0032,-438.102 962.3627,-447.0797 962.295,-447.1155 953.5775,-451.1957 945.0703,-454.645 933.8704,-457.7708 929.6664,-458.6734 913.6819,-460.0931 902.4983,-462.4861 893.3665,-465.5796 879.777,-471.8929 865.9834,-480.8796 862.9128,-483.0629 855.9374,-488.4452 855.6967,-488.6602 842.6271,-501.2055 811.7933,-526.7409 769.1151,-560.21 760.8422,-537.7868 748.7844,-502.8528 721.9173,-480.3245 720.0898,-478.8656 715.2502,-474.5099 707.0437,-467.4943 706.5916,-398.2915 706.5916,-398.2915 707.0437,-467.4943 696.9139,-459.7557 696.6947,-420.4997 696.6947,-420.4997 696.9139,-459.7557 686.9907,-453.0788 679.3633,-448.6416 678.9229,-372.0506 683.2425,-372.0506 690.2034,-367.9924 690.5355,-367.6364 688.2523,-365.0294 684.0912,-362.787 684.0912,-362.787 688.2523,-365.0294 690.5355,-367.6364 690.2034,-367.9924 683.2425,-372.0506 678.9229,-372.0506 679.3633,-448.6416 670.3524,-443.8107 659.4168,-438.9565 658.6665,-438.6587 655.0894,-437.4024 647.9603,-435.2214 645.228,-434.5106 619.4855,-428.9813 606.6844,-425.5875 598.7507,-422.7002 589.5745,-418.9074 586.1018,-417.3049 583.7728,-416.117 595.0946,-380.0017 597.7407,-369.1206 600.3465,-353.7964 601.5092,-341.54 638.21,-224.4689 590.0231,-178.83 589.3318,-178.2008 609.0524,-109.1896 620.5515,-60.7117 699.3385,6.9128 748.774,29.0771 758.9143,34.2753 760.8646,35.3169 767.1913,34.8401 790.4293,34.263 790.3793,28.5011 789.0916,-20.6728 786.7868,-64.7996 786.4113,-129.186 780.7623,-125.8824 776.7183,-125.8824 770.6826,-129.5848 769.7836,-130.6857 771.2806,-132.4955 775.7354,-135.0612 775.7354,-135.0612 771.2806,-132.4955 769.7836,-130.6857 770.6826,-129.5848 776.7183,-125.8824 780.7623,-125.8824 786.4113,-129.186 786.7868,-64.7996 789.0916,-20.6728 790.3793,28.5011 790.4293,34.263 806.2498,34.9373 819.2313,35.9281 859.8363,39.7089 904.957,36.6044 915.572,11.5659 924.7092,1.6189 926.3791,-.0813 937.6591,-12.4981 942.3658,-17.4918 942.376,-17.5022 953.3069,-28.2494 959.4477,-33.8075 961.368,-160.5905 956.1447,-159.0951 950.7002,-160.6745 947.1388,-163.7369 951.5148,-167.7393 955.6038,-168.892 955.6038,-168.892 951.5148,-167.7393 947.1388,-163.7369 950.7002,-160.6745 956.1447,-159.0951 961.368,-160.5905 959.4477,-33.8075 963.8922,-37.6589 971.3651,-43.8479 972.6631,-44.8722 975.2265,-47.0136 985.7518,-55.3802 991.9193,-60.0232 1077.9014,-121.1129 1090.5245,-130.6143 1092.5328,-132.206 1091.6051,-134.3094 1079.6647,-163.7224 1070.3967,-188.9838 1061.0814,-217.6714 1045.922,-254.9482 1060.5972,-261.5726 1097.4434,-279.8277 1099.6136,-324.2923 1099.6136,-324.2923 1097.4434,-279.8277 1113.9191,-286.381 1117.8627,-287.5471 1130.7373,-290.0849 1138.3611,-290.8253 1142.7506,-291.0325 1149.7091,-291.0139 1149.9087,-291.0034 1152.822,-290.9988 1154.2946,-291.1462 1154.4539,-302.569 1154.4539,-302.569 1154.2946,-291.1462 1163.2261,-291.1507 1169.1688,-291.4562 1172.6034,-291.8071 1178.422,-292.6974 1178.4308,-292.6992 1190.9517,-295.8997 1191.6592,-296.116 1201.3823,-299.5877 1203.0226,-300.255 1216.2549,-307.0117 1216.97,-332.0422 1216.7524,-341.0887 1217.803,-353.8163 1217.4711,-367.5804 1218.3019,-396.6565 1223.163,-399.0616 1234.04,-403.4685 1237.597,-404.7467 1248.4843,-407.6828 1256.0071,-409.3683 1264.6868,-410.5232 1275.1803,-410.9697 1281.7156,-410.6563 1285.1888,-410.8034 1290.8185,-411.2962 1305.9276,-413.9976 1316.6925,-416.8923 1319.0055,-417.6165 1321.5605,-418.5303 1324.8169,-419.8419 1341.9005,-428.3167 1343.218,-429.0873 1355.1813,-436.643 1355.1813,-436.643"/>
<polygon fill="#bbd7d9" stroke="#bbd7d9" points="1000.0718,-869.2878 1000.8487,-910.5052 1001.1989,-915.9917 1000.69,-935.5197 1001.1027,-941.983 1002.4724,-1014.6477 930.4297,-1070.6064 909.8837,-1087.9004 909.629,-1087.7682 908.4105,-1087.1885 904.4561,-1085.3909 903.911,-1085.1547 887.0727,-1078.553 837.6091,-1060.2106 725.6931,-961.3052 719.4527,-955.9955 754.7591,-928.3743 785.9724,-902.7751 788.4225,-900.6391 794.8776,-895.2953 797.1491,-893.5159 798.8223,-892.2776 817.3095,-880.1315 829.8713,-873.5204 831.9864,-872.5009 839.1215,-869.3712 851.3538,-865.0649 860.5007,-862.6456 889.2217,-856.3105 893.6146,-855.1433 905.6142,-850.8513 912.0474,-848.2601 918.8322,-844.9096 926.6924,-847.6046 928.1624,-848.0477 959.6669,-855.0174 972.8755,-858.4711 984.2826,-862.3561 992.1213,-865.6424 1000.0718,-869.2878 1000.0718,-869.2878"/>
<polyline fill="none" stroke="#000000" points="984.2407,-619.7437 977.3658,-624.0151 964.5032,-632.8804 960.7841,-635.6923 950.8154,-643.5707 943.7106,-643.7866 928.4364,-645.4808 893.4406,-650.7697 861.3423,-642.999 843.031,-637.8597 828.458,-632.9343 822.5854,-630.8384 811.8204,-626.5881 798.6905,-620.6538 787.7493,-615.2926 767.1526,-604.4189 769.1151,-560.21 811.7933,-526.7409 842.6271,-501.2055 855.6967,-488.6602 855.9374,-488.4452 862.9128,-483.0629 865.9834,-480.8796 879.777,-471.8929 893.3665,-465.5796 902.4983,-462.4861 913.6819,-460.0931 929.6664,-458.6734 933.8704,-457.7708 945.0703,-454.645 953.5775,-451.1957 962.295,-447.1155 962.3627,-447.0797 976.0032,-438.102 985.3676,-430.7658 993.9675,-422.9428 1001.986,-414.6156 1009.6638,-407.6997 1011.0906,-406.2646 1012.5174,-404.7494 1020.9845,-409.5514 1024.3966,-411.2409 1037.5928,-417.3104 1056.1056,-423.8331 1098.1589,-434.0658 1114.234,-439.1214 1116.7599,-440.0909 1128.7051,-445.5336 1133.0519,-447.824 1137.4249,-468.5446 1140.0879,-488.156 1140.7267,-494.7086 1143.5786,-515.7029 1154.1069,-565.5889 1132.3295,-576.3196 1119.4128,-581.8146 1108.2485,-585.8021 1106.7609,-586.2318 1096.7705,-588.7824 1091.4327,-589.9635 1082.5056,-591.6348 1080.318,-591.9694 1060.1656,-593.6853 1057.3026,-594.0253 1046.1877,-595.7203 1036.8817,-597.7648 1024.7867,-601.2372 1011.3945,-605.9783 1003.8091,-609.1627 995.7728,-613.3468 984.2407,-619.7437 "/>
<polyline fill="none" stroke="#000000" points="545.8715,-189.7436 554.2648,-187.7826 589.3318,-178.2008 590.0231,-178.83 638.21,-224.4689 601.5092,-341.54 600.3465,-353.7964 597.7407,-369.1206 595.0946,-380.0017 583.7728,-416.117 586.1018,-417.3049 589.5745,-418.9074 598.7507,-422.7002 606.6844,-425.5875 619.4855,-428.9813 645.228,-434.5106 647.9603,-435.2214 655.0894,-437.4024 658.6665,-438.6587 659.4168,-438.9565 670.3524,-443.8107 679.3633,-448.6416 686.9907,-453.0788 696.9139,-459.7557 707.0437,-467.4943 715.2502,-474.5099 720.0898,-478.8656 721.9173,-480.3245 748.7844,-502.8528 760.8422,-537.7868 769.1151,-560.21 767.1526,-604.4189 730.3503,-626.3358 717.9106,-643.1107 707.2893,-658.6624 709.2829,-792.49 709.2119,-793.1674 709.0598,-795.5157 711.4267,-954.4042 688.7806,-960.5294 628.3535,-942.5684 618.0027,-939.8903 612.1993,-938.7227 592.8176,-935.1934 591.5796,-935.0159 590.9971,-934.9548 576.1298,-933.6782 565.3651,-932.9613 523.4963,-931.7861 410.1382,-850.2938 377.3319,-824.5246 361.5406,-812.9227 324.2196,-866.509 318.6729,-874.7944 244.3176,-990.5518 226.3632,-999.9943 157.0277,-1008.9956 150.8162,-1009.9088 140.289,-1012.0026 128.4059,-1006.5387 109.775,-999.4763 90.477,-993.7115 83.3852,-991.8802 76.6641,-990.2805 23.8119,-978.7706 -50.6583,-899.5839 -62.6729,-878.5707 -70.7838,-865.0661 -67.1,-848.1033 -60.7286,-815.4955 -49.4984,-750.5399 -123.9086,-652.5834 -124.7198,-651.5582 -124.4005,-587.2399 -124.4245,-585.6109 -125.8448,-544.2479 33.5834,-452.2098 51.1038,-440.7993 53.4684,-442.4348 60.4258,-447.0758 66.0716,-450.5662 75.4812,-455.7151 89.5429,-463.0776 271.024,-553.6724 299.4434,-469.8168 306.0163,-448.9195 309.9949,-435.1638 340.2783,-320.2584 340.6348,-319.6421 355.0681,-306.5908 360.7773,-293.1636 395.6182,-254.4312 455.9966,-200.5633 515.6057,-194.9093 520.6015,-194.2373 530.9764,-192.6354 545.8715,-189.7436 "/>
<polyline fill="none" stroke="#000000" points="1339.082,-.7037 1327.7836,.6948 1320.4325,1.7472 1306.8463,4.2185 1305.4087,4.5076 1293.8802,7.2722 1284.9104,9.7695 1222.8182,108.7507 1198.6675,129.2431 1152.6753,136.8188 1128.2913,141.2808 1119.585,143.3435 1110.8193,138.7916 1095.259,132.0458 1077.5457,125.497 971.7267,88.671 920.121,53.7841 904.957,36.6044 915.572,11.5659 924.7092,1.6189 926.3791,-.0813 937.6591,-12.4981 942.3658,-17.4918 942.376,-17.5022 953.3069,-28.2494 959.4477,-33.8075 963.8922,-37.6589 971.3651,-43.8479 972.6631,-44.8722 975.2265,-47.0136 985.7518,-55.3802 991.9193,-60.0232 1077.9014,-121.1129 1090.5245,-130.6143 1092.5328,-132.206 1091.6051,-134.3094 1079.6647,-163.7224 1070.3967,-188.9838 1061.0814,-217.6714 1045.922,-254.9482 1060.5972,-261.5726 1097.4434,-279.8277 1113.9191,-286.381 1117.8627,-287.5471 1130.7373,-290.0849 1138.3611,-290.8253 1142.7506,-291.0325 1149.7091,-291.0139 1149.9087,-291.0034 1152.822,-290.9988 1154.2946,-291.1462 1163.2261,-291.1507 1169.1688,-291.4562 1172.6034,-291.8071 1178.422,-292.6974 1178.4308,-292.6992 1190.9517,-295.8997 1191.6592,-296.116 1201.3823,-299.5877 1203.0226,-300.255 1216.2549,-307.0117 1216.97,-332.0422 1216.7524,-341.0887 1217.803,-353.8163 1217.4711,-367.5804 1218.3019,-396.6565 1223.163,-399.0616 1234.04,-403.4685 1237.597,-404.7467 1248.4843,-407.6828 1256.0071,-409.3683 1264.6868,-410.5232 1275.1803,-410.9697 1281.7156,-410.6563 1285.1888,-410.8034 1290.8185,-411.2962 1305.9276,-413.9976 1316.6925,-416.8923 1319.0055,-417.6165 1321.5605,-418.5303 1324.8169,-419.8419 1341.9005,-428.3167 1343.218,-429.0873 1355.1813,-436.643 1363.9703,-442.5813 1381.1418,-453.3038 1382.1528,-453.1765 1391.2527,-451.798 1398.9778,-450.2354 1412.889,-446.7115 1417.901,-445.3161 1445.3976,-503.4145 1453.9741,-524.0644 1454.0474,-524.2729 1464.9641,-562.0054 1465.9642,-564.8705 1484.5603,-604.163 1448.9174,-619.5559 1442.6055,-621.6598 1441.666,-621.9272 1434.6508,-623.5885 1430.2456,-624.4185 1418.0551,-626.1247 1410.3679,-626.4474 1408.0453,-626.6556 1402.4008,-626.6096 1401.047,-626.5324 1395.5217,-626.4799 1395.0212,-626.4507 1389.4525,-626.6548 1387.8243,-626.6351 1385.2432,-626.4775 1379.8778,-626.4051 1376.5673,-626.5172 1375.8062,-626.579 1365.7794,-627.8721 1360.3821,-628.8235 1360.1373,-628.8782 1349.9432,-631.6479 1343.0575,-633.843 1297.7329,-652.569 1307.356,-675.7228 1319.1682,-712.0992 1327.1586,-741.37 1338.4362,-768.5048 1389.3615,-786.53 1397.8263,-790.0983 1399.202,-790.7245 1413.6646,-798.3148 1414.7688,-798.9315 1422.932,-803.7719 1429.7472,-808.0438 1436.7603,-812.918 1445.4052,-819.2224 1446.4689,-820.0339 1454.2191,-825.637 1517.877,-875.7422 1519.9196,-875.5044 1532.6655,-857.6467 1606.965,-718.6467 1607.6658,-707.3278 1611.0206,-674.41 1671.4589,-613.3596 1695.6705,-519.9921 1697.859,-512.9276 1703.7196,-495.44 1700.9956,-488.4529 1649.0936,-407.8955 1644.2188,-404.6495 1573.6249,-376.7881 1553.7415,-368.4648 1550.3369,-366.9616 1542.5038,-363.1393 1538.8258,-361.2591 1529.0731,-356.0453 1524.557,-353.527 1515.1306,-347.831 1513.3528,-339.805 1497.9805,-263.6282 1519.8284,-215.1482 1528.5773,-158.4744 1536.96,-115.8557 1537.0813,-108.3239 1537.4238,-98.6817 1509.339,-56.2797 1428.4044,-7.8243 1388.3574,-6.2658 1372.6029,-5.3363 1360.2336,-4.1105 1352.679,-3.0596 1339.796,-.7506 1339.082,-.7037 "/>
<polyline fill="none" stroke="#000000" points="992.1213,-865.6424 1000.0718,-869.2878 1000.8487,-910.5052 1001.1989,-915.9917 1000.69,-935.5197 1001.1027,-941.983 1002.4724,-1014.6477 930.4297,-1070.6064 909.8837,-1087.9004 915.6701,-1106.1287 917.2982,-1111.6487 931.8984,-1169.9885 958.2175,-1207.9969 1003.0696,-1236.5334 1066.7782,-1247.6642 1086.6519,-1252.4185 1095.2633,-1254.8444 1097.7122,-1255.6385 1115.0214,-1261.6257 1134.6039,-1264.9722 1262.1802,-1151.351 1376.7303,-1216.3995 1393.064,-1219.9 1399.5209,-1220.2761 1402.4976,-1220.5039 1421.1221,-1220.3206 1436.3406,-1221.0009 1448.8041,-1222.2372 1458.3243,-1223.7017 1472.4486,-1226.1318 1479.9001,-1227.8195 1482.6941,-1226.7651 1495.1554,-1222.5514 1501.3629,-1220.5753 1557.1953,-1203.9102 1623.2015,-1167.1755 1637.2109,-1095.8191 1630.3342,-1072 1609.9785,-977.8167 1519.9196,-875.5044 1517.877,-875.7422 1454.2191,-825.637 1446.4689,-820.0339 1445.4052,-819.2224 1436.7603,-812.918 1429.7472,-808.0438 1422.932,-803.7719 1414.7688,-798.9315 1413.6646,-798.3148 1399.202,-790.7245 1397.8263,-790.0983 1389.3615,-786.53 1338.4362,-768.5048 1327.1586,-741.37 1319.1682,-712.0992 1307.356,-675.7228 1297.7329,-652.569 1343.0575,-633.843 1349.9432,-631.6479 1360.1373,-628.8782 1360.3821,-628.8235 1365.7794,-627.8721 1375.8062,-626.579 1376.5673,-626.5172 1379.8778,-626.4051 1385.2432,-626.4775 1387.8243,-626.6351 1389.4525,-626.6548 1395.0212,-626.4507 1395.5217,-626.4799 1401.047,-626.5324 1402.4008,-626.6096 1408.0453,-626.6556 1410.3679,-626.4474 1418.0551,-626.1247 1430.2456,-624.4185 1434.6508,-623.5885 1441.666,-621.9272 1442.6055,-621.6598 1448.9174,-619.5559 1484.5603,-604.163 1465.9642,-564.8705 1464.9641,-562.0054 1454.0474,-524.2729 1453.9741,-524.0644 1445.3976,-503.4145 1417.901,-445.3161 1412.889,-446.7115 1398.9778,-450.2354 1391.2527,-451.798 1382.1528,-453.1765 1381.1418,-453.3038 1372.4176,-463.6611 1369.9138,-466.4708 1360.5861,-475.8021 1346.046,-488.5902 1345.2256,-489.457 1344.5607,-490.0587 1277.5837,-546.0776 1272.4407,-550.7446 1263.1171,-560.5804 1257.1891,-565.9185 1252.7192,-570.7578 1243.9575,-579.6052 1234.9265,-589.7377 1234.0468,-590.7731 1228.4626,-597.6684 1227.1766,-599.3301 1213.5614,-592.7309 1154.1069,-565.5889 1132.3295,-576.3196 1119.4128,-581.8146 1108.2485,-585.8021 1106.7609,-586.2318 1096.7705,-588.7824 1091.4327,-589.9635 1082.5056,-591.6348 1080.318,-591.9694 1060.1656,-593.6853 1057.3026,-594.0253 1046.1877,-595.7203 1036.8817,-597.7648 1024.7867,-601.2372 1011.3945,-605.9783 1003.8091,-609.1627 995.7728,-613.3468 984.2407,-619.7437 977.3658,-624.0151 964.5032,-632.8804 960.7841,-635.6923 950.8154,-643.5707 943.7106,-643.7866 928.4364,-645.4808 893.4406,-650.7697 861.3423,-642.999 843.031,-637.8597 828.458,-632.9343 822.5854,-630.8384 811.8204,-626.5881 798.6905,-620.6538 787.7493,-615.2926 767.1526,-604.4189 730.3503,-626.3358 717.9106,-643.1107 707.2893,-658.6624 709.2829,-792.49 709.2119,-793.1674 709.0598,-795.5157 711.4267,-954.4042 719.4527,-955.9955 754.7591,-928.3743 785.9724,-902.7751 788.4225,-900.6391 794.8776,-895.2953 797.1491,-893.5159 798.8223,-892.2776 817.3095,-880.1315 829.8713,-873.5204 831.9864,-872.5009 839.1215,-869.3712 851.3538,-865.0649 860.5007,-862.6456 889.2217,-856.3105 893.6146,-855.1433 905.6142,-850.8513 912.0474,-848.2601 918.8322,-844.9096 926.6924,-847.6046 928.1624,-848.0477 959.6669,-855.0174 972.8755,-858.4711 984.2826,-862.3561 992.1213,-865.6424 "/>
<polyline fill="none" stroke="#000000" points="865.9834,-480.8796 862.9128,-483.0629 855.9374,-488.4452 855.6967,-488.6602 842.6271,-501.2055 811.7933,-526.7409 769.1151,-560.21 760.8422,-537.7868 748.7844,-502.8528 721.9173,-480.3245 720.0898,-478.8656 715.2502,-474.5099 707.0437,-467.4943 696.9139,-459.7557 686.9907,-453.0788 679.3633,-448.6416 670.3524,-443.8107 659.4168,-438.9565 658.6665,-438.6587 655.0894,-437.4024 647.9603,-435.2214 645.228,-434.5106 619.4855,-428.9813 606.6844,-425.5875 598.7507,-422.7002 589.5745,-418.9074 586.1018,-417.3049 583.7728,-416.117 595.0946,-380.0017 597.7407,-369.1206 600.3465,-353.7964 601.5092,-341.54 638.21,-224.4689 590.0231,-178.83 589.3318,-178.2008 609.0524,-109.1896 620.5515,-60.7117 699.3385,6.9128 748.774,29.0771 758.9143,34.2753 760.8646,35.3169 767.1913,34.8401 790.4293,34.263 806.2498,34.9373 819.2313,35.9281 859.8363,39.7089 904.957,36.6044 915.572,11.5659 924.7092,1.6189 926.3791,-.0813 937.6591,-12.4981 942.3658,-17.4918 942.376,-17.5022 953.3069,-28.2494 959.4477,-33.8075 963.8922,-37.6589 971.3651,-43.8479 972.6631,-44.8722 975.2265,-47.0136 985.7518,-55.3802 991.9193,-60.0232 1077.9014,-121.1129 1090.5245,-130.6143 1092.5328,-132.206 1091.6051,-134.3094 1079.6647,-163.7224 1070.3967,-188.9838 1061.0814,-217.6714 1045.922,-254.9482 1060.5972,-261.5726 1097.4434,-279.8277 1113.9191,-286.381 1117.8627,-287.5471 1130.7373,-290.0849 1138.3611,-290.8253 1142.7506,-291.0325 1149.7091,-291.0139 1149.9087,-291.0034 1152.822,-290.9988 1154.2946,-291.1462 1163.2261,-291.1507 1169.1688,-291.4562 1172.6034,-291.8071 1178.422,-292.6974 1178.4308,-292.6992 1190.9517,-295.8997 1191.6592,-296.116 1201.3823,-299.5877 1203.0226,-300.255 1216.2549,-307.0117 1216.97,-332.0422 1216.7524,-341.0887 1217.803,-353.8163 1217.4711,-367.5804 1218.3019,-396.6565 1223.163,-399.0616 1234.04,-403.4685 1237.597,-404.7467 1248.4843,-407.6828 1256.0071,-409.3683 1264.6868,-410.5232 1275.1803,-410.9697 1281.7156,-410.6563 1285.1888,-410.8034 1290.8185,-411.2962 1305.9276,-413.9976 1316.6925,-416.8923 1319.0055,-417.6165 1321.5605,-418.5303 1324.8169,-419.8419 1341.9005,-428.3167 1343.218,-429.0873 1355.1813,-436.643 1363.9703,-442.5813 1381.1418,-453.3038 1372.4176,-463.6611 1369.9138,-466.4708 1360.5861,-475.8021 1346.046,-488.5902 1345.2256,-489.457 1344.5607,-490.0587 1277.5837,-546.0776 1272.4407,-550.7446 1263.1171,-560.5804 1257.1891,-565.9185 1252.7192,-570.7578 1243.9575,-579.6052 1234.9265,-589.7377 1234.0468,-590.7731 1228.4626,-597.6684 1227.1766,-599.3301 1213.5614,-592.7309 1154.1069,-565.5889 1143.5786,-515.7029 1140.7267,-494.7086 1140.0879,-488.156 1137.4249,-468.5446 1133.0519,-447.824 1128.7051,-445.5336 1116.7599,-440.0909 1114.234,-439.1214 1098.1589,-434.0658 1056.1056,-423.8331 1037.5928,-417.3104 1024.3966,-411.2409 1020.9845,-409.5514 1012.5174,-404.7494 1011.0906,-406.2646 1009.6638,-407.6997 1001.986,-414.6156 993.9675,-422.9428 985.3676,-430.7658 976.0032,-438.102 962.3627,-447.0797 962.295,-447.1155 953.5775,-451.1957 945.0703,-454.645 933.8704,-457.7708 929.6664,-458.6734 913.6819,-460.0931 902.4983,-462.4861 893.3665,-465.5796 879.777,-471.8929 865.9834,-480.8796 "/>
<polyline fill="none" stroke="#000000" points="904.4561,-1085.3909 908.4105,-1087.1885 909.629,-1087.7682 909.8837,-1087.9004 930.4297,-1070.6064 1002.4724,-1014.6477 1001.1027,-941.983 1000.69,-935.5197 1001.1989,-915.9917 1000.8487,-910.5052 1000.0718,-869.2878 992.1213,-865.6424 984.2826,-862.3561 972.8755,-858.4711 959.6669,-855.0174 928.1624,-848.0477 926.6924,-847.6046 918.8322,-844.9096 912.0474,-848.2601 905.6142,-850.8513 893.6146,-855.1433 889.2217,-856.3105 860.5007,-862.6456 851.3538,-865.0649 839.1215,-869.3712 831.9864,-872.5009 829.8713,-873.5204 817.3095,-880.1315 798.8223,-892.2776 797.1491,-893.5159 794.8776,-895.2953 788.4225,-900.6391 785.9724,-902.7751 754.7591,-928.3743 719.4527,-955.9955 725.6931,-961.3052 837.6091,-1060.2106 887.0727,-1078.553 903.911,-1085.1547 904.4561,-1085.3909 "/>
<!-- apr&#45;&gt;Fedora Container Base -->
<g id="edge1" class="edge">
<title>apr&#45;&gt;Fedora Container Base</title>
<path fill="none" stroke="#444444" stroke-opacity="0.333333" d="M583.46,-359.2612C668.9948,-390.4567 845.9664,-455 936.6734,-488.0817"/>
<polygon fill="#444444" fill-opacity="0.333333" stroke="#444444" stroke-opacity="0.333333" points="935.6426,-491.4312 946.2365,-491.5695 938.041,-484.8549 935.6426,-491.4312"/>
</g>
<!-- device&#45;mapper&#45;libs&#45;&gt;Fedora Container Base -->
<g id="edge2" class="edge">
<title>device&#45;mapper&#45;libs&#45;&gt;Fedora Container Base</title>
<path fill="none" stroke="#444444" stroke-opacity="0.333333" d="M1319.1787,-160.4369C1262.9102,-220.4922 1082.7482,-412.7791 1017.1449,-482.7974"/>
<polygon fill="#444444" fill-opacity="0.333333" stroke="#444444" stroke-opacity="0.333333" points="1014.3672,-480.643 1010.0841,-490.3335 1019.4754,-485.4291 1014.3672,-480.643"/>
</g>
<!-- device&#45;mapper&#45;libs&#45;&gt;device&#45;mapper -->
<g id="edge3" class="edge">
<title>device&#45;mapper&#45;libs&#45;&gt;device&#45;mapper</title>
<path fill="none" stroke="#444444" stroke-opacity="0.333333" d="M1330.1698,-160.3304C1323.0544,-195.9484 1314.3242,-275.4793 1312.5924,-318.19"/>
<polygon fill="#444444" fill-opacity="0.333333" stroke="#444444" stroke-opacity="0.333333" points="1309.0864,-318.3593 1312.305,-328.4534 1316.0836,-318.5554 1309.0864,-318.3593"/>
</g>
<!-- device&#45;mapper&#45;&gt;Fedora Container Base -->
<g id="edge33" class="edge">
<title>device&#45;mapper&#45;&gt;Fedora Container Base</title>
<path fill="none" stroke="#444444" stroke-opacity="0.333333" d="M1278.4624,-364.713C1219.1269,-394.6189 1100.8704,-454.2218 1036.7461,-486.5412"/>
<polygon fill="#444444" fill-opacity="0.333333" stroke="#444444" stroke-opacity="0.333333" points="1035.046,-483.4786 1027.6914,-491.1049 1038.1966,-489.7295 1035.046,-483.4786"/>
</g>
<!-- device&#45;mapper&#45;&gt;device&#45;mapper&#45;libs -->
<g id="edge34" class="edge">
<title>device&#45;mapper&#45;&gt;device&#45;mapper&#45;libs</title>
<path fill="none" stroke="#444444" stroke-opacity="0.333333" d="M1320.4302,-328.5396C1327.5456,-292.9216 1336.2758,-213.3907 1338.0076,-170.68"/>
<polygon fill="#444444" fill-opacity="0.333333" stroke="#444444" stroke-opacity="0.333333" points="1341.5136,-170.5107 1338.295,-160.4166 1334.5164,-170.3146 1341.5136,-170.5107"/>
</g>
<!-- device&#45;mapper&#45;&gt;systemd -->
<g id="edge35" class="edge">
<title>device&#45;mapper&#45;&gt;systemd</title>
<path fill="none" stroke="#444444" stroke-opacity="0.333333" d="M1302.8324,-364.8614C1267.8331,-420.114 1162.9485,-585.6925 1121.7139,-650.7885"/>
<polygon fill="#444444" fill-opacity="0.333333" stroke="#444444" stroke-opacity="0.333333" points="1118.7263,-648.9643 1116.3318,-659.285 1124.6398,-652.7102 1118.7263,-648.9643"/>
</g>
<!-- device&#45;mapper&#45;&gt;util&#45;linux -->
<g id="edge36" class="edge">
<title>device&#45;mapper&#45;&gt;util&#45;linux</title>
<path fill="none" stroke="#444444" stroke-opacity="0.333333" d="M1231.6953,-348.0485C1222.0255,-348.2179 1212.2012,-348.39 1202.6449,-348.5574"/>
<polygon fill="#444444" fill-opacity="0.333333" stroke="#444444" stroke-opacity="0.333333" points="1202.3376,-345.0621 1192.4005,-348.7368 1202.4603,-352.061 1202.3376,-345.0621"/>
</g>
<!-- libargon2&#45;&gt;Fedora Container Base -->
<g id="edge4" class="edge">
<title>libargon2&#45;&gt;Fedora Container Base</title>
<path fill="none" stroke="#444444" stroke-opacity="0.333333" d="M1107.6221,-36.0429C1089.667,-110.0428 1021.5899,-390.6149 999.7486,-480.6315"/>
<polygon fill="#444444" fill-opacity="0.333333" stroke="#444444" stroke-opacity="0.333333" points="996.3344,-479.8597 997.3777,-490.403 1003.137,-481.5103 996.3344,-479.8597"/>
</g>
<!-- dbus&#45;broker&#45;&gt;Fedora Container Base -->
<g id="edge5" class="edge">
<title>dbus&#45;broker&#45;&gt;Fedora Container Base</title>
<path fill="none" stroke="#444444" stroke-opacity="0.333333" d="M998.5197,-759.6637C997.5043,-713.8104 994.8217,-592.678 993.5921,-537.1509"/>
<polygon fill="#444444" fill-opacity="0.333333" stroke="#444444" stroke-opacity="0.333333" points="997.0871,-536.882 993.3664,-526.962 990.0888,-537.0371 997.0871,-536.882"/>
</g>
<!-- dbus&#45;broker&#45;&gt;dbus&#45;common -->
<g id="edge6" class="edge">
<title>dbus&#45;broker&#45;&gt;dbus&#45;common</title>
<path fill="none" stroke="#444444" stroke-opacity="0.333333" d="M1072.476,-765.5788C1091.302,-762.4662 1111.7335,-759.0882 1131.1935,-755.8708"/>
<polygon fill="#444444" fill-opacity="0.333333" stroke="#444444" stroke-opacity="0.333333" points="1131.9726,-759.2896 1141.2677,-754.2052 1130.8307,-752.3833 1131.9726,-759.2896"/>
</g>
<!-- dbus&#45;broker&#45;&gt;shadow&#45;utils -->
<g id="edge7" class="edge">
<title>dbus&#45;broker&#45;&gt;shadow&#45;utils</title>
<path fill="none" stroke="#444444" stroke-opacity="0.333333" d="M993.1507,-759.5161C974.2721,-699.8832 914.2477,-510.2807 891.4658,-438.3182"/>
<polygon fill="#444444" fill-opacity="0.333333" stroke="#444444" stroke-opacity="0.333333" points="894.7392,-437.0612 888.3841,-428.5839 888.0656,-439.1739 894.7392,-437.0612"/>
</g>
<!-- dbus&#45;broker&#45;&gt;systemd -->
<g id="edge8" class="edge">
<title>dbus&#45;broker&#45;&gt;systemd</title>
<path fill="none" stroke="#444444" stroke-opacity="0.333333" d="M1018.34,-759.3526C1035.0562,-743.5253 1059.3468,-720.5263 1077.928,-702.9331"/>
<polygon fill="#444444" fill-opacity="0.333333" stroke="#444444" stroke-opacity="0.333333" points="1080.648,-705.1778 1085.5031,-695.7608 1075.8352,-700.0947 1080.648,-705.1778"/>
</g>
<!-- dbus&#45;common&#45;&gt;Fedora Container Base -->
<g id="edge9" class="edge">
<title>dbus&#45;common&#45;&gt;Fedora Container Base</title>
<path fill="none" stroke="#444444" stroke-opacity="0.333333" d="M1201.1709,-723.1057C1161.0635,-681.7877 1063.2999,-581.0731 1017.452,-533.8412"/>
<polygon fill="#444444" fill-opacity="0.333333" stroke="#444444" stroke-opacity="0.333333" points="1019.7731,-531.2074 1010.2965,-526.4698 1014.7503,-536.083 1019.7731,-531.2074"/>
</g>
<!-- dbus&#45;common&#45;&gt;dbus&#45;common -->
<g id="edge10" class="edge">
<title>dbus&#45;common&#45;&gt;dbus&#45;common</title>
<path fill="none" stroke="#444444" stroke-opacity="0.333333" d="M1296.4655,-747.3933C1307.215,-746.4012 1314.4,-744.3934 1314.4,-741.37 1314.4,-739.4331 1311.4513,-737.9131 1306.5057,-736.8098"/>
<polygon fill="#444444" fill-opacity="0.333333" stroke="#444444" stroke-opacity="0.333333" points="1306.8657,-733.3254 1296.4655,-735.3467 1305.8562,-740.2523 1306.8657,-733.3254"/>
</g>
<!-- dbus&#45;common&#45;&gt;systemd -->
<g id="edge11" class="edge">
<title>dbus&#45;common&#45;&gt;systemd</title>
<path fill="none" stroke="#444444" stroke-opacity="0.333333" d="M1186.5087,-723.2354C1173.9824,-716.2224 1159.4921,-708.1099 1146.2237,-700.6815"/>
<polygon fill="#444444" fill-opacity="0.333333" stroke="#444444" stroke-opacity="0.333333" points="1147.7077,-697.5011 1137.2723,-695.6699 1144.2881,-703.609 1147.7077,-697.5011"/>
</g>
<!-- shadow&#45;utils&#45;&gt;Fedora Container Base -->
<g id="edge12" class="edge">
<title>shadow&#45;utils&#45;&gt;Fedora Container Base</title>
<path fill="none" stroke="#444444" stroke-opacity="0.333333" d="M902.8254,-428.2907C920.3298,-443.889 945.8013,-466.5867 965.205,-483.8774"/>
<polygon fill="#444444" fill-opacity="0.333333" stroke="#444444" stroke-opacity="0.333333" points="963.0485,-486.6438 972.843,-490.6836 967.7056,-481.4177 963.0485,-486.6438"/>
</g>
<!-- shadow&#45;utils&#45;&gt;shadow&#45;utils -->
<g id="edge13" class="edge">
<title>shadow&#45;utils&#45;&gt;shadow&#45;utils</title>
<path fill="none" stroke="#444444" stroke-opacity="0.333333" d="M953.4056,-416.3734C963.949,-415.42 971.08,-413.3789 971.08,-410.25 971.08,-408.2944 968.2944,-406.7638 963.6312,-405.658"/>
<polygon fill="#444444" fill-opacity="0.333333" stroke="#444444" stroke-opacity="0.333333" points="963.8138,-402.1464 953.4056,-404.1266 962.7769,-409.0692 963.8138,-402.1464"/>
</g>
<!-- shadow&#45;utils&#45;&gt;libsemanage -->
<g id="edge14" class="edge">
<title>shadow&#45;utils&#45;&gt;libsemanage</title>
<path fill="none" stroke="#444444" stroke-opacity="0.333333" d="M875.7563,-391.9034C857.9368,-343.993 809.9248,-214.9052 788.7963,-158.0981"/>
<polygon fill="#444444" fill-opacity="0.333333" stroke="#444444" stroke-opacity="0.333333" points="792.0602,-156.8333 785.2937,-148.6807 785.4993,-159.2735 792.0602,-156.8333"/>
</g>
<!-- systemd&#45;&gt;Fedora Container Base -->
<g id="edge15" class="edge">
<title>systemd&#45;&gt;Fedora Container Base</title>
<path fill="none" stroke="#444444" stroke-opacity="0.333333" d="M1092.8312,-659.4169C1073.0709,-629.5786 1033.5308,-569.8725 1010.5739,-535.2073"/>
<polygon fill="#444444" fill-opacity="0.333333" stroke="#444444" stroke-opacity="0.333333" points="1013.2824,-532.9581 1004.8428,-526.5532 1007.4462,-536.8232 1013.2824,-532.9581"/>
</g>
<!-- systemd&#45;&gt;shadow&#45;utils -->
<g id="edge16" class="edge">
<title>systemd&#45;&gt;shadow&#45;utils</title>
<path fill="none" stroke="#444444" stroke-opacity="0.333333" d="M1089.5259,-659.1215C1050.8188,-612.5726 948.7883,-489.8716 904.0825,-436.1087"/>
<polygon fill="#444444" fill-opacity="0.333333" stroke="#444444" stroke-opacity="0.333333" points="906.752,-433.8449 897.6671,-428.3937 901.3697,-438.3205 906.752,-433.8449"/>
</g>
<!-- systemd&#45;&gt;systemd -->
<g id="edge17" class="edge">
<title>systemd&#45;&gt;systemd</title>
<path fill="none" stroke="#444444" stroke-opacity="0.333333" d="M1166.4667,-683.7913C1177.0013,-682.9303 1184.3,-680.8298 1184.3,-677.49 1184.3,-675.3504 1181.3046,-673.7195 1176.382,-672.5972"/>
<polygon fill="#444444" fill-opacity="0.333333" stroke="#444444" stroke-opacity="0.333333" points="1176.8596,-669.13 1166.4667,-671.1887 1175.8751,-676.0604 1176.8596,-669.13"/>
</g>
<!-- systemd&#45;&gt;util&#45;linux -->
<g id="edge18" class="edge">
<title>systemd&#45;&gt;util&#45;linux</title>
<path fill="none" stroke="#444444" stroke-opacity="0.333333" d="M1106.0638,-659.4091C1109.8564,-605.15 1121.16,-443.4351 1125.7401,-377.9091"/>
<polygon fill="#444444" fill-opacity="0.333333" stroke="#444444" stroke-opacity="0.333333" points="1129.2342,-378.1148 1126.4401,-367.8951 1122.2512,-377.6266 1129.2342,-378.1148"/>
</g>
<!-- systemd&#45;&gt;acl -->
<g id="edge19" class="edge">
<title>systemd&#45;&gt;acl</title>
<path fill="none" stroke="#444444" stroke-opacity="0.333333" d="M1090.4641,-695.851C1056.2986,-739.6094 969.9762,-850.169 930.3274,-900.9502"/>
<polygon fill="#444444" fill-opacity="0.333333" stroke="#444444" stroke-opacity="0.333333" points="927.3294,-899.1028 923.9339,-909.1388 932.8468,-903.4107 927.3294,-899.1028"/>
</g>
<!-- systemd&#45;&gt;cryptsetup&#45;libs -->
<g id="edge20" class="edge">
<title>systemd&#45;&gt;cryptsetup&#45;libs</title>
<path fill="none" stroke="#444444" stroke-opacity="0.333333" d="M1107.9543,-659.485C1119.9955,-590.753 1163.1264,-344.5585 1177.8404,-260.5699"/>
<polygon fill="#444444" fill-opacity="0.333333" stroke="#444444" stroke-opacity="0.333333" points="1181.3282,-260.943 1179.6065,-250.489 1174.4333,-259.735 1181.3282,-260.943"/>
</g>
<!-- systemd&#45;&gt;dbus -->
<g id="edge21" class="edge">
<title>systemd&#45;&gt;dbus</title>
<path fill="none" stroke="#444444" stroke-opacity="0.333333" d="M1103.8785,-695.5154C1100.4386,-762.8065 1088.3314,-999.6418 1084.1405,-1081.6213"/>
<polygon fill="#444444" fill-opacity="0.333333" stroke="#444444" stroke-opacity="0.333333" points="1080.6406,-1081.5319 1083.6254,-1091.6976 1087.6315,-1081.8894 1080.6406,-1081.5319"/>
</g>
<!-- systemd&#45;&gt;iptables&#45;libs -->
<g id="edge22" class="edge">
<title>systemd&#45;&gt;iptables&#45;libs</title>
<path fill="none" stroke="#444444" stroke-opacity="0.333333" d="M1166.6187,-679.7346C1214.9812,-681.4905 1282.7192,-683.95 1335.932,-685.8821"/>
<polygon fill="#444444" fill-opacity="0.333333" stroke="#444444" stroke-opacity="0.333333" points="1335.9101,-689.3835 1346.0305,-686.2488 1336.1641,-682.3881 1335.9101,-689.3835"/>
</g>
<!-- systemd&#45;&gt;kmod&#45;libs -->
<g id="edge23" class="edge">
<title>systemd&#45;&gt;kmod&#45;libs</title>
<path fill="none" stroke="#444444" stroke-opacity="0.333333" d="M1123.7325,-695.7038C1157.9114,-728.5853 1229.9708,-797.9093 1268.8349,-835.2982"/>
<polygon fill="#444444" fill-opacity="0.333333" stroke="#444444" stroke-opacity="0.333333" points="1266.511,-837.9192 1276.1441,-842.3299 1271.3641,-832.8746 1266.511,-837.9192"/>
</g>
<!-- systemd&#45;&gt;libfdisk -->
<g id="edge24" class="edge">
<title>systemd&#45;&gt;libfdisk</title>
<path fill="none" stroke="#444444" stroke-opacity="0.333333" d="M1117.9145,-659.1777C1143.6698,-623.2144 1200.9427,-543.2418 1230.7883,-501.5671"/>
<polygon fill="#444444" fill-opacity="0.333333" stroke="#444444" stroke-opacity="0.333333" points="1233.7426,-503.4532 1236.7196,-493.2851 1228.0515,-499.3774 1233.7426,-503.4532"/>
</g>
<!-- systemd&#45;&gt;libseccomp -->
<g id="edge25" class="edge">
<title>systemd&#45;&gt;libseccomp</title>
<path fill="none" stroke="#444444" stroke-opacity="0.333333" d="M1147.817,-659.3721C1195.1624,-639.4312 1271.2753,-607.374 1322.0494,-585.989"/>
<polygon fill="#444444" fill-opacity="0.333333" stroke="#444444" stroke-opacity="0.333333" points="1323.6788,-589.1006 1331.5362,-581.9934 1320.9617,-582.6494 1323.6788,-589.1006"/>
</g>
<!-- systemd&#45;&gt;qrencode&#45;libs -->
<g id="edge26" class="edge">
<title>systemd&#45;&gt;qrencode&#45;libs</title>
<path fill="none" stroke="#444444" stroke-opacity="0.333333" d="M1104.9324,-695.6643C1105.2431,-738.3364 1106.0213,-845.1877 1106.3943,-896.407"/>
<polygon fill="#444444" fill-opacity="0.333333" stroke="#444444" stroke-opacity="0.333333" points="1102.8946,-896.4749 1106.4674,-906.4491 1109.8944,-896.4238 1102.8946,-896.4749"/>
</g>
<!-- systemd&#45;&gt;systemd&#45;pam -->
<g id="edge27" class="edge">
<title>systemd&#45;&gt;systemd&#45;pam</title>
<path fill="none" stroke="#444444" stroke-opacity="0.333333" d="M1045.8936,-695.4949C991.4611,-715.746 911.979,-748.2887 863.9032,-770.137"/>
<polygon fill="#444444" fill-opacity="0.333333" stroke="#444444" stroke-opacity="0.333333" points="862.3474,-767.0001 854.7236,-774.3572 865.2714,-773.3601 862.3474,-767.0001"/>
</g>
<!-- systemd&#45;&gt;systemd&#45;rpm&#45;macros -->
<g id="edge28" class="edge">
<title>systemd&#45;&gt;systemd&#45;rpm&#45;macros</title>
<path fill="none" stroke="#444444" stroke-opacity="0.333333" d="M1120.9007,-695.7268C1177.182,-759.4751 1365.2359,-972.4788 1430.5335,-1046.4396"/>
<polygon fill="#444444" fill-opacity="0.333333" stroke="#444444" stroke-opacity="0.333333" points="1427.9279,-1048.7766 1437.1701,-1053.9566 1433.1754,-1044.1437 1427.9279,-1048.7766"/>
</g>
<!-- libsemanage&#45;&gt;Fedora Container Base -->
<g id="edge59" class="edge">
<title>libsemanage&#45;&gt;Fedora Container Base</title>
<path fill="none" stroke="#444444" stroke-opacity="0.333333" d="M788.92,-148.8608C823.6596,-210.1113 936.314,-408.7358 977.6069,-481.5405"/>
<polygon fill="#444444" fill-opacity="0.333333" stroke="#444444" stroke-opacity="0.333333" points="974.7458,-483.5905 982.7238,-490.5622 980.8347,-480.1371 974.7458,-483.5905"/>
</g>
<!-- libsemanage&#45;&gt;libsemanage -->
<g id="edge60" class="edge">
<title>libsemanage&#45;&gt;libsemanage</title>
<path fill="none" stroke="#444444" stroke-opacity="0.333333" d="M854.1525,-136.6874C864.8809,-135.7077 872.08,-133.6886 872.08,-130.63 872.08,-128.6706 869.1255,-127.1378 864.1813,-126.0315"/>
<polygon fill="#444444" fill-opacity="0.333333" stroke="#444444" stroke-opacity="0.333333" points="864.5523,-122.5487 854.1525,-124.5726 863.5445,-129.4758 864.5523,-122.5487"/>
</g>
<!-- util&#45;linux&#45;&gt;Fedora Container Base -->
<g id="edge29" class="edge">
<title>util&#45;linux&#45;&gt;Fedora Container Base</title>
<path fill="none" stroke="#444444" stroke-opacity="0.333333" d="M1112.2436,-368.0795C1088.2833,-396.3077 1042.0939,-450.7244 1014.7554,-482.9324"/>
<polygon fill="#444444" fill-opacity="0.333333" stroke="#444444" stroke-opacity="0.333333" points="1012.039,-480.724 1008.2361,-490.6129 1017.3757,-485.2539 1012.039,-480.724"/>
</g>
<!-- util&#45;linux&#45;&gt;util&#45;linux -->
<g id="edge30" class="edge">
<title>util&#45;linux&#45;&gt;util&#45;linux</title>
<path fill="none" stroke="#444444" stroke-opacity="0.333333" d="M1192.3797,-356.1153C1202.9415,-355.2213 1210.2,-353.1395 1210.2,-349.87 1210.2,-347.7755 1207.2211,-346.1684 1202.3032,-345.0487"/>
<polygon fill="#444444" fill-opacity="0.333333" stroke="#444444" stroke-opacity="0.333333" points="1202.7755,-341.5807 1192.3797,-343.6247 1201.7811,-348.5098 1202.7755,-341.5807"/>
</g>
<!-- util&#45;linux&#45;&gt;libfdisk -->
<g id="edge31" class="edge">
<title>util&#45;linux&#45;&gt;libfdisk</title>
<path fill="none" stroke="#444444" stroke-opacity="0.333333" d="M1145.4398,-368.0882C1166.3114,-389.5226 1201.1039,-425.2534 1224.7022,-449.488"/>
<polygon fill="#444444" fill-opacity="0.333333" stroke="#444444" stroke-opacity="0.333333" points="1222.4547,-452.197 1231.9387,-456.9198 1227.4699,-447.3135 1222.4547,-452.197"/>
</g>
<!-- util&#45;linux&#45;&gt;libutempter -->
<g id="edge32" class="edge">
<title>util&#45;linux&#45;&gt;libutempter</title>
<path fill="none" stroke="#444444" stroke-opacity="0.333333" d="M1110.9289,-331.7106C1080.2926,-298.538 1015.1944,-228.0507 979.9367,-189.8741"/>
<polygon fill="#444444" fill-opacity="0.333333" stroke="#444444" stroke-opacity="0.333333" points="982.245,-187.2149 972.8891,-182.2432 977.1026,-191.9641 982.245,-187.2149"/>
</g>
<!-- acl&#45;&gt;Fedora Container Base -->
<g id="edge61" class="edge">
<title>acl&#45;&gt;Fedora Container Base</title>
<path fill="none" stroke="#444444" stroke-opacity="0.333333" d="M913.465,-908.935C926.5629,-842.9759 971.4985,-616.6871 987.3607,-536.8073"/>
<polygon fill="#444444" fill-opacity="0.333333" stroke="#444444" stroke-opacity="0.333333" points="990.8011,-537.4513 989.3159,-526.9611 983.9351,-536.0879 990.8011,-537.4513"/>
</g>
<!-- cryptsetup&#45;libs&#45;&gt;Fedora Container Base -->
<g id="edge62" class="edge">
<title>cryptsetup&#45;libs&#45;&gt;Fedora Container Base</title>
<path fill="none" stroke="#444444" stroke-opacity="0.333333" d="M1170.3441,-250.3921C1137.693,-297.9223 1049.5087,-426.2921 1011.1707,-482.1007"/>
<polygon fill="#444444" fill-opacity="0.333333" stroke="#444444" stroke-opacity="0.333333" points="1008.2392,-480.1868 1005.4618,-490.4111 1014.009,-484.1504 1008.2392,-480.1868"/>
</g>
<!-- cryptsetup&#45;libs&#45;&gt;device&#45;mapper&#45;libs -->
<g id="edge63" class="edge">
<title>cryptsetup&#45;libs&#45;&gt;device&#45;mapper&#45;libs</title>
<path fill="none" stroke="#444444" stroke-opacity="0.333333" d="M1213.8428,-214.0492C1237.7283,-200.037 1270.9019,-180.5762 1296.6823,-165.4525"/>
<polygon fill="#444444" fill-opacity="0.333333" stroke="#444444" stroke-opacity="0.333333" points="1298.6111,-168.3788 1305.4655,-160.3 1295.0691,-162.3411 1298.6111,-168.3788"/>
</g>
<!-- cryptsetup&#45;libs&#45;&gt;libargon2 -->
<g id="edge64" class="edge">
<title>cryptsetup&#45;libs&#45;&gt;libargon2</title>
<path fill="none" stroke="#444444" stroke-opacity="0.333333" d="M1176.7636,-213.9923C1164.3542,-176.4379 1135.9114,-90.3623 1121.1959,-45.8293"/>
<polygon fill="#444444" fill-opacity="0.333333" stroke="#444444" stroke-opacity="0.333333" points="1124.482,-44.6183 1118.0211,-36.2214 1117.8354,-46.8147 1124.482,-44.6183"/>
</g>
<!-- dbus&#45;&gt;dbus&#45;broker -->
<g id="edge65" class="edge">
<title>dbus&#45;&gt;dbus&#45;broker</title>
<path fill="none" stroke="#444444" stroke-opacity="0.333333" d="M1078.0763,-1091.474C1064.1724,-1036.3663 1022.6761,-871.8968 1005.9869,-805.7496"/>
<polygon fill="#444444" fill-opacity="0.333333" stroke="#444444" stroke-opacity="0.333333" points="1009.3695,-804.8492 1003.5294,-796.0093 1002.5822,-806.5617 1009.3695,-804.8492"/>
</g>
<!-- iptables&#45;libs&#45;&gt;Fedora Container Base -->
<g id="edge66" class="edge">
<title>iptables&#45;libs&#45;&gt;Fedora Container Base</title>
<path fill="none" stroke="#444444" stroke-opacity="0.333333" d="M1376.7387,-670.8056C1297.3865,-637.2692 1127.982,-565.6741 1043.3108,-529.8897"/>
<polygon fill="#444444" fill-opacity="0.333333" stroke="#444444" stroke-opacity="0.333333" points="1044.4825,-526.5852 1033.9089,-525.9161 1041.7575,-533.033 1044.4825,-526.5852"/>
</g>
<!-- iptables&#45;libs&#45;&gt;libpcap -->
<g id="edge67" class="edge">
<title>iptables&#45;libs&#45;&gt;libpcap</title>
<path fill="none" stroke="#444444" stroke-opacity="0.333333" d="M1431.9945,-670.9127C1452.8692,-640.5852 1495.127,-579.1912 1519.3491,-544.0004"/>
<polygon fill="#444444" fill-opacity="0.333333" stroke="#444444" stroke-opacity="0.333333" points="1522.3079,-545.8748 1525.0946,-535.653 1516.5417,-541.9059 1522.3079,-545.8748"/>
</g>
<!-- kmod&#45;libs&#45;&gt;Fedora Container Base -->
<g id="edge68" class="edge">
<title>kmod&#45;libs&#45;&gt;Fedora Container Base</title>
<path fill="none" stroke="#444444" stroke-opacity="0.333333" d="M1279.1863,-842.0479C1229.0313,-783.6201 1073.4084,-602.3279 1015.217,-534.5382"/>
<polygon fill="#444444" fill-opacity="0.333333" stroke="#444444" stroke-opacity="0.333333" points="1017.7864,-532.1579 1008.6172,-526.8498 1012.4749,-536.7173 1017.7864,-532.1579"/>
</g>
<!-- libfdisk&#45;&gt;Fedora Container Base -->
<g id="edge69" class="edge">
<title>libfdisk&#45;&gt;Fedora Container Base</title>
<path fill="none" stroke="#444444" stroke-opacity="0.333333" d="M1189.5059,-483.0025C1162.9406,-486.4637 1130.8878,-490.6397 1100.4453,-494.606"/>
<polygon fill="#444444" fill-opacity="0.333333" stroke="#444444" stroke-opacity="0.333333" points="1099.6572,-491.179 1090.1932,-495.9417 1100.5616,-498.1204 1099.6572,-491.179"/>
</g>
<!-- libseccomp&#45;&gt;Fedora Container Base -->
<g id="edge70" class="edge">
<title>libseccomp&#45;&gt;Fedora Container Base</title>
<path fill="none" stroke="#444444" stroke-opacity="0.333333" d="M1302.6541,-553.5329C1244.0492,-545.0319 1160.4902,-532.9112 1094.9341,-523.4019"/>
<polygon fill="#444444" fill-opacity="0.333333" stroke="#444444" stroke-opacity="0.333333" points="1095.3852,-519.9308 1084.9863,-521.9589 1094.3803,-526.8583 1095.3852,-519.9308"/>
</g>
<!-- qrencode&#45;libs&#45;&gt;Fedora Container Base -->
<g id="edge71" class="edge">
<title>qrencode&#45;libs&#45;&gt;Fedora Container Base</title>
<path fill="none" stroke="#444444" stroke-opacity="0.333333" d="M1101.644,-906.5058C1083.7368,-840.9469 1022.3018,-616.0313 1000.6153,-536.6362"/>
<polygon fill="#444444" fill-opacity="0.333333" stroke="#444444" stroke-opacity="0.333333" points="1003.9535,-535.5741 997.9421,-526.8498 997.2008,-537.4186 1003.9535,-535.5741"/>
</g>
<!-- systemd&#45;pam&#45;&gt;Fedora Container Base -->
<g id="edge72" class="edge">
<title>systemd&#45;pam&#45;&gt;Fedora Container Base</title>
<path fill="none" stroke="#444444" stroke-opacity="0.333333" d="M833.282,-774.3002C862.4726,-725.7296 942.3629,-592.7991 976.8059,-535.489"/>
<polygon fill="#444444" fill-opacity="0.333333" stroke="#444444" stroke-opacity="0.333333" points="979.9677,-537.0225 982.1191,-526.6483 973.9679,-533.4166 979.9677,-537.0225"/>
</g>
<!-- systemd&#45;pam&#45;&gt;systemd -->
<g id="edge73" class="edge">
<title>systemd&#45;pam&#45;&gt;systemd</title>
<path fill="none" stroke="#444444" stroke-opacity="0.333333" d="M881.2564,-774.4851C935.6889,-754.234 1015.171,-721.6913 1063.2468,-699.843"/>
<polygon fill="#444444" fill-opacity="0.333333" stroke="#444444" stroke-opacity="0.333333" points="1064.8026,-702.9799 1072.4264,-695.6228 1061.8786,-696.6199 1064.8026,-702.9799"/>
</g>
<!-- libutempter&#45;&gt;Fedora Container Base -->
<g id="edge74" class="edge">
<title>libutempter&#45;&gt;Fedora Container Base</title>
<path fill="none" stroke="#444444" stroke-opacity="0.333333" d="M957.9825,-182.052C964.0227,-238.4449 982.5805,-411.7048 989.9235,-480.2609"/>
<polygon fill="#444444" fill-opacity="0.333333" stroke="#444444" stroke-opacity="0.333333" points="986.4569,-480.7605 991.0021,-490.3308 993.4171,-480.0149 986.4569,-480.7605"/>
</g>
<!-- libutempter&#45;&gt;shadow&#45;utils -->
<g id="edge75" class="edge">
<title>libutempter&#45;&gt;shadow&#45;utils</title>
<path fill="none" stroke="#444444" stroke-opacity="0.333333" d="M950.6476,-182.1166C937.9364,-224.7189 906.0677,-331.5292 890.8801,-382.4316"/>
<polygon fill="#444444" fill-opacity="0.333333" stroke="#444444" stroke-opacity="0.333333" points="887.4956,-381.5336 887.9903,-392.1168 894.2034,-383.535 887.4956,-381.5336"/>
</g>
<!-- apr&#45;util&#45;&gt;Fedora Container Base -->
<g id="edge37" class="edge">
<title>apr&#45;util&#45;&gt;Fedora Container Base</title>
<path fill="none" stroke="#444444" stroke-opacity="0.333333" d="M647.8811,-496.9997C701.0202,-498.7876 780.854,-501.4736 850.3536,-503.8119"/>
<polygon fill="#444444" fill-opacity="0.333333" stroke="#444444" stroke-opacity="0.333333" points="850.4162,-507.3159 860.5283,-504.1543 850.6516,-500.3199 850.4162,-507.3159"/>
</g>
<!-- apr&#45;util&#45;&gt;apr -->
<g id="edge38" class="edge">
<title>apr&#45;util&#45;&gt;apr</title>
<path fill="none" stroke="#444444" stroke-opacity="0.333333" d="M581.8289,-476.7847C572.6161,-450.2513 555.4213,-400.7293 544.5911,-369.5373"/>
<polygon fill="#444444" fill-opacity="0.333333" stroke="#444444" stroke-opacity="0.333333" points="547.7694,-368.0204 541.1829,-359.7216 541.1567,-370.3164 547.7694,-368.0204"/>
</g>
<!-- httpd&#45;&gt;Fedora Container Base -->
<g id="edge39" class="edge">
<title>httpd&#45;&gt;Fedora Container Base</title>
<path fill="none" stroke="#444444" stroke-opacity="0.333333" d="M599.038,-605.2535C686.1879,-583.8725 830.5809,-548.4476 918.2371,-526.9423"/>
<polygon fill="#444444" fill-opacity="0.333333" stroke="#444444" stroke-opacity="0.333333" points="919.2344,-530.3015 928.1124,-524.5195 917.5665,-523.5031 919.2344,-530.3015"/>
</g>
<!-- httpd&#45;&gt;apr -->
<g id="edge40" class="edge">
<title>httpd&#45;&gt;apr</title>
<path fill="none" stroke="#444444" stroke-opacity="0.333333" d="M526.0817,-605.246C527.6712,-557.5498 531.9922,-427.8918 533.9197,-370.0548"/>
<polygon fill="#444444" fill-opacity="0.333333" stroke="#444444" stroke-opacity="0.333333" points="537.4261,-369.9193 534.2612,-359.8083 530.43,-369.6861 537.4261,-369.9193"/>
</g>
<!-- httpd&#45;&gt;systemd -->
<g id="edge41" class="edge">
<title>httpd&#45;&gt;systemd</title>
<path fill="none" stroke="#444444" stroke-opacity="0.333333" d="M600.6221,-630.3288C712.8441,-640.8262 922.7997,-660.4656 1033.0276,-670.7764"/>
<polygon fill="#444444" fill-opacity="0.333333" stroke="#444444" stroke-opacity="0.333333" points="1032.771,-674.2675 1043.0535,-671.7142 1033.423,-667.298 1032.771,-674.2675"/>
</g>
<!-- httpd&#45;&gt;apr&#45;util -->
<g id="edge42" class="edge">
<title>httpd&#45;&gt;apr&#45;util</title>
<path fill="none" stroke="#444444" stroke-opacity="0.333333" d="M534.3262,-605.1884C544.8705,-583.6 562.5957,-547.3097 574.8071,-522.3082"/>
<polygon fill="#444444" fill-opacity="0.333333" stroke="#444444" stroke-opacity="0.333333" points="578.105,-523.531 579.3488,-513.0094 571.8151,-520.4588 578.105,-523.531"/>
</g>
<!-- httpd&#45;&gt;fedora&#45;logos&#45;httpd -->
<g id="edge43" class="edge">
<title>httpd&#45;&gt;fedora&#45;logos&#45;httpd</title>
<path fill="none" stroke="#444444" stroke-opacity="0.333333" d="M492.5506,-641.4379C419.0968,-681.8971 241.9483,-779.4725 160.7782,-824.182"/>
<polygon fill="#444444" fill-opacity="0.333333" stroke="#444444" stroke-opacity="0.333333" points="158.9031,-821.219 151.8325,-829.1094 162.2803,-827.3504 158.9031,-821.219"/>
</g>
<!-- httpd&#45;&gt;httpd -->
<g id="edge44" class="edge">
<title>httpd&#45;&gt;httpd</title>
<path fill="none" stroke="#444444" stroke-opacity="0.333333" d="M600.6484,-629.3574C611.3194,-628.3777 618.48,-626.3586 618.48,-623.3 618.48,-621.3406 615.5413,-619.8078 610.6235,-618.7015"/>
<polygon fill="#444444" fill-opacity="0.333333" stroke="#444444" stroke-opacity="0.333333" points="611.0497,-615.2267 600.6484,-617.2426 610.0366,-622.153 611.0497,-615.2267"/>
</g>
<!-- httpd&#45;&gt;httpd&#45;filesystem -->
<g id="edge45" class="edge">
<title>httpd&#45;&gt;httpd&#45;filesystem</title>
<path fill="none" stroke="#444444" stroke-opacity="0.333333" d="M536.697,-604.8927C563.8446,-560.3428 633.1897,-446.5461 665.0236,-394.3061"/>
<polygon fill="#444444" fill-opacity="0.333333" stroke="#444444" stroke-opacity="0.333333" points="668.1197,-395.9512 670.3347,-385.5905 662.1421,-392.3086 668.1197,-395.9512"/>
</g>
<!-- httpd&#45;&gt;httpd&#45;tools -->
<g id="edge46" class="edge">
<title>httpd&#45;&gt;httpd&#45;tools</title>
<path fill="none" stroke="#444444" stroke-opacity="0.333333" d="M519.6917,-605.1855C510.067,-575.0652 490.7085,-514.4829 479.332,-478.8801"/>
<polygon fill="#444444" fill-opacity="0.333333" stroke="#444444" stroke-opacity="0.333333" points="482.5912,-477.5805 476.2134,-469.1204 475.9233,-479.7112 482.5912,-477.5805"/>
</g>
<!-- httpd&#45;&gt;mailcap -->
<g id="edge47" class="edge">
<title>httpd&#45;&gt;mailcap</title>
<path fill="none" stroke="#444444" stroke-opacity="0.333333" d="M450.3713,-620.9253C360.9617,-618.0985 212.9194,-613.418 126.5161,-610.6862"/>
<polygon fill="#444444" fill-opacity="0.333333" stroke="#444444" stroke-opacity="0.333333" points="126.3984,-607.1809 116.2927,-610.363 126.1771,-614.1774 126.3984,-607.1809"/>
</g>
<!-- httpd&#45;&gt;mod_http2 -->
<g id="edge48" class="edge">
<title>httpd&#45;&gt;mod_http2</title>
<path fill="none" stroke="#444444" stroke-opacity="0.333333" d="M528.7128,-641.3888C538.3853,-671.5422 564.0725,-732.1401 581.8094,-767.4767"/>
<polygon fill="#444444" fill-opacity="0.333333" stroke="#444444" stroke-opacity="0.333333" points="578.8862,-769.4447 586.5813,-776.7273 585.1073,-766.2355 578.8862,-769.4447"/>
</g>
<!-- httpd&#45;filesystem&#45;&gt;Fedora Container Base -->
<g id="edge49" class="edge">
<title>httpd&#45;filesystem&#45;&gt;Fedora Container Base</title>
<path fill="none" stroke="#444444" stroke-opacity="0.333333" d="M721.2194,-385.3842C778.3586,-411.295 883.5427,-458.9927 944.9405,-486.8347"/>
<polygon fill="#444444" fill-opacity="0.333333" stroke="#444444" stroke-opacity="0.333333" points="943.8516,-490.1839 954.4045,-491.1263 946.7426,-483.8087 943.8516,-490.1839"/>
</g>
<!-- httpd&#45;filesystem&#45;&gt;shadow&#45;utils -->
<g id="edge50" class="edge">
<title>httpd&#45;filesystem&#45;&gt;shadow&#45;utils</title>
<path fill="none" stroke="#444444" stroke-opacity="0.333333" d="M764.7091,-385.1087C776.9515,-387.72 789.5466,-390.4065 801.7392,-393.0071"/>
<polygon fill="#444444" fill-opacity="0.333333" stroke="#444444" stroke-opacity="0.333333" points="801.3595,-396.5047 811.8696,-395.1678 802.8198,-389.6587 801.3595,-396.5047"/>
</g>
<!-- httpd&#45;tools&#45;&gt;Fedora Container Base -->
<g id="edge51" class="edge">
<title>httpd&#45;tools&#45;&gt;Fedora Container Base</title>
<path fill="none" stroke="#444444" stroke-opacity="0.333333" d="M540.0794,-458.6713C626.3982,-468.1896 774.6946,-484.5421 877.9812,-495.9314"/>
<polygon fill="#444444" fill-opacity="0.333333" stroke="#444444" stroke-opacity="0.333333" points="877.8224,-499.435 888.1458,-497.0522 878.5897,-492.4772 877.8224,-499.435"/>
</g>
<!-- httpd&#45;tools&#45;&gt;apr -->
<g id="edge52" class="edge">
<title>httpd&#45;tools&#45;&gt;apr</title>
<path fill="none" stroke="#444444" stroke-opacity="0.333333" d="M481.0626,-432.9166C491.4182,-415.3306 507.2769,-388.3991 519.0984,-368.3235"/>
<polygon fill="#444444" fill-opacity="0.333333" stroke="#444444" stroke-opacity="0.333333" points="522.1533,-370.0333 524.2116,-359.6403 516.1214,-366.4813 522.1533,-370.0333"/>
</g>
<!-- httpd&#45;tools&#45;&gt;apr&#45;util -->
<g id="edge53" class="edge">
<title>httpd&#45;tools&#45;&gt;apr&#45;util</title>
<path fill="none" stroke="#444444" stroke-opacity="0.333333" d="M518.645,-469.0134C522.465,-470.4411 526.3468,-471.8919 530.2233,-473.3407"/>
<polygon fill="#444444" fill-opacity="0.333333" stroke="#444444" stroke-opacity="0.333333" points="529.217,-476.701 539.8095,-476.9234 531.6676,-470.144 529.217,-476.701"/>
</g>
<!-- mailcap&#45;&gt;mailcap -->
<g id="edge54" class="edge">
<title>mailcap&#45;&gt;mailcap</title>
<path fill="none" stroke="#444444" stroke-opacity="0.333333" d="M116.3117,-614.8741C126.7258,-614.0482 134,-611.9302 134,-608.52 134,-606.3887 131.1585,-604.762 126.4849,-603.6402"/>
<polygon fill="#444444" fill-opacity="0.333333" stroke="#444444" stroke-opacity="0.333333" points="126.7103,-600.1364 116.3117,-602.1659 125.7064,-607.064 126.7103,-600.1364"/>
</g>
<!-- mod_http2&#45;&gt;Fedora Container Base -->
<g id="edge55" class="edge">
<title>mod_http2&#45;&gt;Fedora Container Base</title>
<path fill="none" stroke="#444444" stroke-opacity="0.333333" d="M624.1583,-776.6149C692.5215,-726.9359 882.9826,-588.5296 960.0067,-532.5568"/>
<polygon fill="#444444" fill-opacity="0.333333" stroke="#444444" stroke-opacity="0.333333" points="962.3612,-535.1725 968.3932,-526.4624 958.2461,-529.5098 962.3612,-535.1725"/>
</g>
<!-- mod_http2&#45;&gt;httpd -->
<g id="edge56" class="edge">
<title>mod_http2&#45;&gt;httpd</title>
<path fill="none" stroke="#444444" stroke-opacity="0.333333" d="M595.9972,-776.6412C586.3247,-746.4878 560.6375,-685.8899 542.9006,-650.5533"/>
<polygon fill="#444444" fill-opacity="0.333333" stroke="#444444" stroke-opacity="0.333333" points="545.8238,-648.5853 538.1287,-641.3027 539.6027,-651.7945 545.8238,-648.5853"/>
</g>
<!-- mod_http2&#45;&gt;mod_http2 -->
<g id="edge57" class="edge">
<title>mod_http2&#45;&gt;mod_http2</title>
<path fill="none" stroke="#444444" stroke-opacity="0.333333" d="M668.9027,-800.8851C679.5202,-799.9458 686.73,-797.8941 686.73,-794.73 686.73,-792.703 683.7711,-791.1326 678.8529,-790.0186"/>
<polygon fill="#444444" fill-opacity="0.333333" stroke="#444444" stroke-opacity="0.333333" points="679.3017,-786.5472 668.9027,-788.5749 678.2965,-793.4746 679.3017,-786.5472"/>
</g>
<!-- libpcap&#45;&gt;Fedora Container Base -->
<g id="edge58" class="edge">
<title>libpcap&#45;&gt;Fedora Container Base</title>
<path fill="none" stroke="#444444" stroke-opacity="0.333333" d="M1477.9278,-516.6432C1397.0419,-515.3034 1249.8346,-512.865 1138.7459,-511.0249"/>
<polygon fill="#444444" fill-opacity="0.333333" stroke="#444444" stroke-opacity="0.333333" points="1138.5072,-507.5205 1128.4506,-510.8543 1138.3912,-514.5196 1138.5072,-507.5205"/>
</g>
<!-- Fedora Container Base -->
<g id="node1" class="node">
<title>Fedora Container Base</title>
<ellipse fill="none" stroke="#000000" cx="992.96" cy="-508.61" rx="136.5" ry="18"/>
<text text-anchor="middle" x="992.96" y="-504.91" font-family="Helvetica,sans-Serif" font-weight="bold" font-size="14.00" fill="#000000">Fedora Container Base (201.3 MB)</text>
</g>
<!-- apr -->
<g id="node2" class="node">
<title>apr</title>
<text text-anchor="middle" x="534.87" y="-337.84" font-family="Helvetica,sans-Serif" font-weight="bold" font-size="14.00" fill="#000000">apr (277.9 kB)</text>
</g>
<!-- device&#45;mapper&#45;libs -->
<g id="node3" class="node">
<title>device&#45;mapper&#45;libs</title>
<text text-anchor="middle" x="1336.2" y="-138.57" font-family="Helvetica,sans-Serif" font-weight="bold" font-size="14.00" fill="#000000">device&#45;mapper&#45;libs (418.0 kB)</text>
</g>
<!-- device&#45;mapper -->
<g id="node4" class="node">
<title>device&#45;mapper</title>
<text text-anchor="middle" x="1314.4" y="-342.9" font-family="Helvetica,sans-Serif" font-weight="bold" font-size="14.00" fill="#000000">device&#45;mapper (349.9 kB)</text>
</g>
<!-- libargon2 -->
<g id="node5" class="node">
<title>libargon2</title>
<text text-anchor="middle" x="1112" y="-14.3" font-family="Helvetica,sans-Serif" font-weight="bold" font-size="14.00" fill="#000000">libargon2 (54.2 kB)</text>
</g>
<!-- dbus&#45;broker -->
<g id="node6" class="node">
<title>dbus&#45;broker</title>
<text text-anchor="middle" x="998.92" y="-774.04" font-family="Helvetica,sans-Serif" font-weight="bold" font-size="14.00" fill="#000000">dbus&#45;broker (409.7 kB)</text>
</g>
<!-- dbus&#45;common -->
<g id="node7" class="node">
<title>dbus&#45;common</title>
<text text-anchor="middle" x="1218.9" y="-737.67" font-family="Helvetica,sans-Serif" font-weight="bold" font-size="14.00" fill="#000000">dbus&#45;common (11.2 kB)</text>
</g>
<!-- shadow&#45;utils -->
<g id="node8" class="node">
<title>shadow&#45;utils</title>
<text text-anchor="middle" x="882.58" y="-406.55" font-family="Helvetica,sans-Serif" font-weight="bold" font-size="14.00" fill="#000000">shadow&#45;utils (4.0 MB)</text>
</g>
<!-- systemd -->
<g id="node9" class="node">
<title>systemd</title>
<text text-anchor="middle" x="1104.8" y="-673.79" font-family="Helvetica,sans-Serif" font-weight="bold" font-size="14.00" fill="#000000">systemd (13.1 MB)</text>
</g>
<!-- libsemanage -->
<g id="node10" class="node">
<title>libsemanage</title>
<text text-anchor="middle" x="778.58" y="-126.93" font-family="Helvetica,sans-Serif" font-weight="bold" font-size="14.00" fill="#000000">libsemanage (304.5 kB)</text>
</g>
<!-- util&#45;linux -->
<g id="node11" class="node">
<title>util&#45;linux</title>
<text text-anchor="middle" x="1127.7" y="-346.17" font-family="Helvetica,sans-Serif" font-weight="bold" font-size="14.00" fill="#000000">util&#45;linux (13.5 MB)</text>
</g>
<!-- acl -->
<g id="node12" class="node">
<title>acl</title>
<text text-anchor="middle" x="909.84" y="-923.49" font-family="Helvetica,sans-Serif" font-weight="bold" font-size="14.00" fill="#000000">acl (209.6 kB)</text>
</g>
<!-- cryptsetup&#45;libs -->
<g id="node13" class="node">
<title>cryptsetup&#45;libs</title>
<text text-anchor="middle" x="1182.8" y="-228.56" font-family="Helvetica,sans-Serif" font-weight="bold" font-size="14.00" fill="#000000">cryptsetup&#45;libs (1.8 MB)</text>
</g>
<!-- dbus -->
<g id="node14" class="node">
<title>dbus</title>
<text text-anchor="middle" x="1082.7" y="-1106.1" font-family="Helvetica,sans-Serif" font-weight="bold" font-size="14.00" fill="#000000">dbus (0.0 B)</text>
</g>
<!-- iptables&#45;libs -->
<g id="node15" class="node">
<title>iptables&#45;libs</title>
<text text-anchor="middle" x="1419.6" y="-685.22" font-family="Helvetica,sans-Serif" font-weight="bold" font-size="14.00" fill="#000000">iptables&#45;libs (141.4 kB)</text>
</g>
<!-- kmod&#45;libs -->
<g id="node16" class="node">
<title>kmod&#45;libs</title>
<text text-anchor="middle" x="1295" y="-856.77" font-family="Helvetica,sans-Serif" font-weight="bold" font-size="14.00" fill="#000000">kmod&#45;libs (127.5 kB)</text>
</g>
<!-- libfdisk -->
<g id="node17" class="node">
<title>libfdisk</title>
<text text-anchor="middle" x="1249.7" y="-471.46" font-family="Helvetica,sans-Serif" font-weight="bold" font-size="14.00" fill="#000000">libfdisk (472.7 kB)</text>
</g>
<!-- libseccomp -->
<g id="node18" class="node">
<title>libseccomp</title>
<text text-anchor="middle" x="1374.4" y="-560.24" font-family="Helvetica,sans-Serif" font-weight="bold" font-size="14.00" fill="#000000">libseccomp (351.1 kB)</text>
</g>
<!-- qrencode&#45;libs -->
<g id="node19" class="node">
<title>qrencode&#45;libs</title>
<text text-anchor="middle" x="1106.6" y="-920.95" font-family="Helvetica,sans-Serif" font-weight="bold" font-size="14.00" fill="#000000">qrencode&#45;libs (158.2 kB)</text>
</g>
<!-- systemd&#45;pam -->
<g id="node20" class="node">
<title>systemd&#45;pam</title>
<text text-anchor="middle" x="822.35" y="-788.79" font-family="Helvetica,sans-Serif" font-weight="bold" font-size="14.00" fill="#000000">systemd&#45;pam (867.6 kB)</text>
</g>
<!-- systemd&#45;rpm&#45;macros -->
<g id="node21" class="node">
<title>systemd&#45;rpm&#45;macros</title>
<text text-anchor="middle" x="1453.1" y="-1068.3" font-family="Helvetica,sans-Serif" font-weight="bold" font-size="14.00" fill="#000000">systemd&#45;rpm&#45;macros (4.9 kB)</text>
</g>
<!-- libutempter -->
<g id="node22" class="node">
<title>libutempter</title>
<text text-anchor="middle" x="956.05" y="-160.31" font-family="Helvetica,sans-Serif" font-weight="bold" font-size="14.00" fill="#000000">libutempter (57.8 kB)</text>
</g>
<!-- apr&#45;util -->
<g id="node23" class="node">
<title>apr&#45;util</title>
<text text-anchor="middle" x="588.15" y="-491.29" font-family="Helvetica,sans-Serif" font-weight="bold" font-size="14.00" fill="#000000">apr&#45;util (216.3 kB)</text>
</g>
<!-- fedora&#45;logos&#45;httpd -->
<g id="node24" class="node">
<title>fedora&#45;logos&#45;httpd</title>
<text text-anchor="middle" x="118.88" y="-843.56" font-family="Helvetica,sans-Serif" font-weight="bold" font-size="14.00" fill="#000000">fedora&#45;logos&#45;httpd (9.9 kB)</text>
</g>
<!-- httpd -->
<g id="node25" class="node">
<title>httpd</title>
<text text-anchor="middle" x="525.48" y="-617.7" font-family="Helvetica,sans-Serif" font-weight="bold" font-size="22.00" fill="#cc0066">httpd (4.7 MB)</text>
</g>
<!-- httpd&#45;filesystem -->
<g id="node26" class="node">
<title>httpd&#45;filesystem</title>
<text text-anchor="middle" x="681.45" y="-363.65" font-family="Helvetica,sans-Serif" font-weight="bold" font-size="14.00" fill="#000000">httpd&#45;filesystem (400.0 B)</text>
</g>
<!-- httpd&#45;tools -->
<g id="node27" class="node">
<title>httpd&#45;tools</title>
<text text-anchor="middle" x="470.42" y="-447.29" font-family="Helvetica,sans-Serif" font-weight="bold" font-size="14.00" fill="#000000">httpd&#45;tools (204.4 kB)</text>
</g>
<!-- mailcap -->
<g id="node28" class="node">
<title>mailcap</title>
<text text-anchor="middle" x="58" y="-604.82" font-family="Helvetica,sans-Serif" font-weight="bold" font-size="14.00" fill="#000000">mailcap (71.2 kB)</text>
</g>
<!-- mod_http2 -->
<g id="node29" class="node">
<title>mod_http2</title>
<text text-anchor="middle" x="599.23" y="-791.03" font-family="Helvetica,sans-Serif" font-weight="bold" font-size="14.00" fill="#000000">mod_http2 (401.1 kB)</text>
</g>
<!-- libpcap -->
<g id="node30" class="node">
<title>libpcap</title>
<text text-anchor="middle" x="1537.5" y="-513.93" font-family="Helvetica,sans-Serif" font-weight="bold" font-size="14.00" fill="#000000">libpcap (387.4 kB)</text>
</g>
</g>

<script type="text/javascript"><![CDATA[

document.addEventListener('click', function(e) {
      e = e || window.event;
      var target = e.target || e.srcElement;
      text = target.parentElement.querySelector("title").textContent;

      console.log("Clicked on: " + text);
      // reset all strokes
      var nodes = document.getElementsByClassName("edge");

      for (index = 0, len = nodes.length; index < len; ++index) {
          //var title = nodes[index].querySelector("title").textContent.split("->");
          id = nodes[index].id;
          document.getElementById(id).querySelector("path").setAttribute("stroke-width", "1");
          document.getElementById(id).querySelector("path").setAttribute("stroke-opacity", "0.5");
          document.getElementById(id).querySelector("path").setAttribute("stroke", "#444444");
          document.getElementById(id).querySelector("polygon").setAttribute("stroke-width", "1");
          document.getElementById(id).querySelector("polygon").setAttribute("stroke-opacity", "0.5");
          document.getElementById(id).querySelector("polygon").setAttribute("stroke", "#444444");
      }
      // reset text highlight
      pkgs = document.getElementsByClassName("node");
      for (index2 = 0, len2 = pkgs.length; index2 < len2; ++index2) {
          target_id = pkgs[index2].id;
          document.getElementById(target_id).querySelector("text").setAttribute("font-weight", "normal");
      }

      // highlight deps
      var nodes = document.getElementsByClassName("edge");
      for (index = 0, len = nodes.length; index < len; ++index) {
        var title = nodes[index].querySelector("title").textContent.split("->");

        if (title[0] == text) {
          id = nodes[index].id;
          //console.log("ID:   " + id);
          document.getElementById(id).querySelector("path").setAttribute("stroke-width", "3");
          document.getElementById(id).querySelector("path").setAttribute("stroke-opacity", "1");
          document.getElementById(id).querySelector("path").setAttribute("stroke", "#aa3333");
          document.getElementById(id).querySelector("polygon").setAttribute("stroke-width", "5");
          document.getElementById(id).querySelector("polygon").setAttribute("stroke-opacity", "1");
          document.getElementById(id).querySelector("polygon").setAttribute("stroke", "#aa3333");

        }
        if (title[1] == text) {
          id = nodes[index].id;
          document.getElementById(id).querySelector("path").setAttribute("stroke-width", "3");
          document.getElementById(id).querySelector("path").setAttribute("stroke-opacity", "1");
          document.getElementById(id).querySelector("path").setAttribute("stroke", "#333377");
          document.getElementById(id).querySelector("polygon").setAttribute("stroke-width", "5");
          document.getElementById(id).querySelector("polygon").setAttribute("stroke-opacity", "1");
          document.getElementById(id).querySelector("polygon").setAttribute("stroke", "#333377");
        }

        if (title[0] == text || title[1] == text) {
          pkgs = document.getElementsByClassName("node");
          for (index2 = 0, len2 = pkgs.length; index2 < len2; ++index2) {
            var pkg_name = pkgs[index2].querySelector("title").textContent;
            if (pkg_name == title[0] || pkg_name == title[1]) {
              target_id = pkgs[index2].id;
              document.getElementById(target_id).querySelector("text").setAttribute("font-weight", "bold");
            }
          }
        }
      }


  }, false);

]]></script>

</svg>
