<?xml version="1.0" encoding="UTF-8" standalone="no"?>
<!DOCTYPE svg PUBLIC "-//W3C//DTD SVG 1.1//EN"
 "http://www.w3.org/Graphics/SVG/1.1/DTD/svg11.dtd">
<!-- Generated by graphviz version 2.40.1 (0)
 -->
<!-- Title: packages Pages: 1 -->
<svg width="1771pt" height="1033pt"
 viewBox="0.00 0.00 2125.11 1239.84" xmlns="http://www.w3.org/2000/svg" xmlns:xlink="http://www.w3.org/1999/xlink">
<g id="graph0" class="graph" transform="scale(.8333 .8333) rotate(0) translate(123.0253 1104.9781)">
<title>packages</title>
<polygon fill="#dae2ff" stroke="transparent" points="-123.0253,134.8651 -123.0253,-1104.9781 2002.0802,-1104.9781 2002.0802,134.8651 -123.0253,134.8651"/>
<polygon fill="#fed9a6" stroke="#fed9a6" points="1336.0283,-856.5752 1393.8809,-744.6426 1394.7446,-743.1333 1376.2466,-728.4896 1250.9016,-733.1443 1246.3077,-737.1658 1245.9487,-737.8185 1244.5428,-738.9591 1246.5715,-742.3961 1243.1615,-768.2562 1239.5563,-739.2697 1235.8301,-739.2697 1235.1426,-739.0711 1234.2708,-739.0711 1234.2708,-739.0711 1235.1426,-739.0711 1235.8301,-739.2697 1239.5563,-739.2697 1243.1615,-768.2562 1246.5715,-742.3961 1244.5428,-738.9591 1245.9487,-737.8185 1246.3077,-737.1658 1250.9016,-733.1443 1376.2466,-728.4896 1351.0627,-707.5305 1333.1429,-694.7932 1325.4242,-689.9582 1315.671,-684.6566 1310.3243,-681.9748 1299.8495,-677.5875 1294.4728,-675.5615 1291.6469,-674.6154 1289.3932,-673.9542 1256.7949,-665.7271 1249.5322,-640.0468 1243.8232,-613.3219 1243.6744,-610.9464 1242.7944,-604.5516 1237.2053,-578.4597 1226.7839,-541.6108 1196.183,-534.2211 1196.0051,-547.0902 1196.5234,-567.8099 1196.5234,-567.8099 1196.0051,-547.0902 1196.183,-534.2211 1183.2742,-529.7385 1181.2577,-528.9679 1180.0999,-529.4559 1177.8829,-594.0068 1173.285,-620.9996 1169.707,-618.1066 1165.0695,-616.8442 1165.0695,-616.8442 1169.707,-618.1066 1173.285,-620.9996 1177.8829,-594.0068 1180.0999,-529.4559 1168.1488,-533.6499 1159.0317,-536.5212 1158.4897,-536.6527 1149.4932,-538.5191 1140.1379,-540.1258 1136.1295,-540.527 1125.4901,-541.213 1122.9231,-541.2866 1116.876,-541.6776 1105.5714,-542.8157 1093.3925,-544.9153 1089.8503,-545.7778 1075.0352,-550.462 1064.3567,-554.6019 1034.6082,-568.2545 1012.3541,-503.6516 1008.2814,-486.2357 1003.7866,-460.78 973.1529,-371.8509 949.2853,-384.3694 929.6903,-392.8938 916.5059,-397.4247 913.225,-398.4514 903.455,-400.9174 901.7039,-401.3061 886.0442,-403.8412 877.6055,-404.6943 868.5095,-405.0624 864.9234,-404.9902 857.0936,-405.085 854.4105,-405.291 846.5906,-405.1783 839.3302,-404.8528 837.4268,-404.8904 833.8555,-404.7446 831.9221,-404.728 823.9727,-405.1724 822.6284,-405.2911 821.7974,-405.3391 812.5229,-405.3125 805.3707,-405.5223 685.5848,-416.7404 682.8197,-423.7692 686.1912,-481.5899 701.7836,-488.4836 746.8284,-511.2787 819.2744,-503.4234 823.1188,-499.5479 825.2214,-498.8576 826.7309,-497.7498 828.9121,-497.7498 830.3372,-497.3438 833.1454,-497.3438 834.6231,-497.7759 839.5123,-497.7759 840.4019,-537.5023 846.0235,-497.7074 848.997,-497.7074 849.5673,-497.8662 854.1165,-497.8662 854.7493,-497.6842 854.7493,-497.6842 854.1165,-497.8662 849.5673,-497.8662 848.997,-497.7074 846.0235,-497.7074 840.4019,-537.5023 839.5123,-497.7759 834.6231,-497.7759 833.1454,-497.3438 830.3372,-497.3438 828.9121,-497.7498 826.7309,-497.7498 825.2214,-498.8576 823.1188,-499.5479 819.2744,-503.4234 746.8284,-511.2787 701.7836,-488.4836 686.1912,-481.5899 676.3933,-512.86 663.5454,-568.1517 657.8916,-589.9086 655.0015,-599.1323 660.4574,-636.46 666.9852,-666.2177 625.1235,-715.0664 655.678,-796.8868 660.6678,-817.097 710.4831,-809.4149 713.8365,-806.0663 715.954,-805.4147 717.9613,-803.9799 719.364,-803.9799 725.519,-846.5819 725.5688,-847.3017 732.1304,-804.1218 734.6266,-804.1218 739.7095,-839.3524 741.3846,-803.8679 744.7264,-803.8679 746.3476,-805.7285 750.9709,-808.3202 756.5287,-808.3202 760.6308,-806.0582 762.732,-803.6068 765.9268,-803.6068 771.6897,-693.0725 773.8176,-693.1827 784.3832,-692.937 784.4347,-625.2714 784.4347,-625.2714 784.3832,-692.937 791.3765,-693.119 792.0115,-582.6207 796.2865,-582.6207 799.569,-625.2194 799.7886,-693.1487 802.7961,-693.2231 807.336,-582.4561 810.1609,-582.4561 812.1194,-584.5828 816.4905,-586.9279 821.9219,-586.9279 821.9219,-586.9279 816.4905,-586.9279 821.8275,-639.899 821.6816,-692.7964 837.8302,-687.0822 845.0059,-684.9586 845.7761,-648.1901 845.7188,-645.7208 845.7188,-645.7208 845.7761,-648.1901 845.0059,-684.9586 837.8302,-687.0822 821.6816,-692.7964 821.8275,-639.899 816.4905,-586.9279 812.1194,-584.5828 810.1609,-582.4561 807.336,-582.4561 802.7961,-693.2231 799.7886,-693.1487 799.569,-625.2194 796.2865,-582.6207 792.0115,-582.6207 791.3765,-693.119 784.3832,-692.937 773.8176,-693.1827 771.6897,-693.0725 765.9268,-803.6068 762.732,-803.6068 760.6308,-806.0582 756.5287,-808.3202 750.9709,-808.3202 746.3476,-805.7285 744.7264,-803.8679 741.3846,-803.8679 739.7095,-839.3524 734.6266,-804.1218 732.1304,-804.1218 725.5688,-847.3017 725.519,-846.5819 719.364,-803.9799 717.9613,-803.9799 715.954,-805.4147 713.8365,-806.0663 710.4831,-809.4149 660.6678,-817.097 663.1666,-830.9837 670.7982,-855.3766 694.6395,-919.2202 680.2716,-945.105 653.2183,-988.4431 650.5378,-992.5441 675.992,-1050.3925 694.6937,-1081.1306 740.9086,-1089.1118 792.4672,-1085.572 806.8951,-1084.8972 807.7314,-988.4186 811.6299,-958.3804 810.063,-957.9167 813.9188,-880.331 817.4737,-879.9753 820.3782,-879.5752 835.2098,-876.399 847.7117,-872.291 864.5333,-865.4739 865.9039,-864.8683 892.1742,-869.9132 895.3889,-802.9032 895.3889,-802.9032 892.1742,-869.9132 906.4415,-873.5417 908.2135,-874.0466 908.2135,-874.0466 906.4415,-873.5417 892.1742,-869.9132 865.9039,-864.8683 864.5333,-865.4739 847.7117,-872.291 835.2098,-876.399 820.3782,-879.5752 817.4737,-879.9753 813.9188,-880.331 810.063,-957.9167 811.6299,-958.3804 807.7314,-988.4186 806.8951,-1084.8972 817.9968,-1084.8663 829.9918,-1085.3607 828.97,-999.9844 831.4749,-962.5092 836.2379,-959.8699 837.597,-958.3532 836.2709,-956.7587 830.8413,-953.5099 826.3636,-953.5099 826.3636,-953.5099 830.8413,-953.5099 836.2709,-956.7587 837.597,-958.3532 836.2379,-959.8699 831.4749,-962.5092 828.97,-999.9844 829.9918,-1085.3607 837.7971,-1086.0254 849.8136,-1087.3127 850.0547,-1087.3491 853.3304,-1087.915 909.4969,-1098.8586 926.5096,-1089.0942 1007.3019,-1090.8073 1008.1414,-1012.0704 1011.8312,-965.6221 1011.8312,-965.6221 1008.1414,-1012.0704 1007.3019,-1090.8073 1020.1174,-1091.6678 1020.7309,-1091.7373 1027.8101,-967.4676 1032.6904,-968.8784 1038.4899,-967.1522 1042.0584,-964.0231 1038.277,-960.5938 1038.277,-960.5938 1042.0584,-964.0231 1038.4899,-967.1522 1032.6904,-968.8784 1027.8101,-967.4676 1020.7309,-1091.7373 1036.7548,-1093.9198 1043.8346,-1095.2092 1062.8812,-1099.5577 1058.6559,-1004.827 1058.6559,-1004.827 1062.8812,-1099.5577 1068.0696,-1100.9781 1147.2894,-1075.6927 1191.1062,-1019.9365 1195.2836,-963.87 1198.9724,-938.0895 1251.6919,-881.4298 1242.7933,-866.6349 1231.3315,-849.3401 1224.8328,-840.0596 1222.0175,-836.2706 1220.9927,-834.9726 1220.8174,-834.7636 1208.525,-820.966 1155.688,-813.0424 1133.2933,-813.1964 1127.9878,-887.3609 1127.8673,-808.2081 1127.2344,-807.0412 1122.547,-807.0412 1123.3191,-864.8867 1116.3773,-807.2981 1112.7635,-807.2981 1112.1512,-807.1219 1108.3737,-807.1219 1107.2188,-808.4557 1101.5157,-811.7986 1097.037,-811.7986 1097.037,-811.7986 1101.5157,-811.7986 1107.2188,-808.4557 1108.3737,-807.1219 1107.179,-805.7597 1102.1454,-802.8558 1102.1454,-802.8558 1107.179,-805.7597 1105.8615,-741.5796 1099.415,-742.6946 1089.4091,-743.4714 1079.3407,-743.2922 1079.032,-743.3298 1067.21,-743.6376 1065.1493,-743.5925 1062.4265,-743.4026 1051.4365,-744.1684 1045.968,-744.8029 1034.005,-747.3055 1026.8091,-749.4771 1025.7537,-749.8445 1024.2064,-748.6942 1012.5308,-740.7612 964.2383,-714.4265 963.256,-738.5642 958.5806,-774.0084 958.4991,-774.1298 956.9722,-775.1855 955.1526,-775.1855 954.6403,-775.3287 950.1222,-775.3287 949.2872,-775.5677 944.6715,-775.5677 943.8373,-775.8074 940.2679,-775.8074 938.6506,-775.337 938.2215,-775.337 933.7274,-779.1807 929.8638,-780.222 929.8638,-780.222 933.7274,-779.1807 938.2215,-775.337 938.6506,-775.337 940.2679,-775.8074 943.8373,-775.8074 944.6715,-775.5677 949.2872,-775.5677 950.1222,-775.3287 954.6403,-775.3287 955.1526,-775.1855 956.9722,-775.1855 958.4991,-774.1298 958.5806,-774.0084 963.256,-738.5642 964.2383,-714.4265 950.356,-704.9925 944.5932,-700.717 943.4549,-699.8026 939.5519,-696.1478 928.4815,-685.0042 928.229,-684.7851 923.6618,-680.5662 913.7519,-670.2596 914.6934,-668.6064 946.443,-608.5115 951.9876,-598.8456 952.715,-598.5746 1005.2728,-580.6186 1021.7263,-574.475 1032.5767,-569.7583 1034.17,-568.9685 1041.1022,-579.8585 1054.7147,-597.756 1061.3134,-605.2852 1065.3197,-610.3099 1067.5133,-612.8363 1069.7174,-615.1614 1070.2767,-615.8198 1080.9158,-627.2291 1081.6227,-627.904 1092.3492,-636.9998 1125.2653,-670.4745 1128.8494,-674.6229 1133.71,-679.5209 1136.1941,-682.3031 1138.8032,-684.6113 1147.2179,-692.8031 1132.1206,-733.4654 1124.9619,-736.4139 1117.2789,-738.8435 1112.7776,-740.052 1105.8615,-741.5796 1107.179,-805.7597 1108.3737,-807.1219 1112.1512,-807.1219 1112.7635,-807.2981 1116.3773,-807.2981 1123.3191,-864.8867 1122.547,-807.0412 1127.2344,-807.0412 1127.8673,-808.2081 1127.9878,-887.3609 1133.2933,-813.1964 1155.688,-813.0424 1208.525,-820.966 1220.8174,-834.7636 1220.9927,-834.9726 1222.0175,-836.2706 1224.8328,-840.0596 1231.3315,-849.3401 1242.7933,-866.6349 1251.6919,-881.4298 1259.7175,-878.9074 1336.0283,-856.5752 1336.0283,-856.5752"/>
<polygon fill="#b3cde3" stroke="#b3cde3" points="-111.3352,-379.1331 -106.9518,-383.7984 -34.5719,-464.341 -20.1899,-475.5957 28.3099,-480.0769 43.5402,-481.803 43.8074,-454.8792 43.7861,-454.368 43.7861,-454.368 43.8074,-454.8792 45.8125,-422.3005 53.2625,-347.4691 58.0986,-348.8332 63.2389,-347.4017 67.0287,-344.2254 62.969,-340.4505 58.0331,-338.9726 58.0331,-338.9726 62.969,-340.4505 67.0287,-344.2254 63.2389,-347.4017 58.0986,-348.8332 53.2625,-347.4691 45.8125,-422.3005 43.8074,-454.8792 43.5402,-481.803 55.0213,-484.0652 64.0452,-486.0327 66.6855,-486.6636 72.7409,-485.668 85.6124,-484.0742 83.2209,-403.3431 83.2209,-403.3431 85.6124,-484.0742 206.6177,-474.0056 217.3829,-501.7946 223.1597,-517.6072 230.6501,-539.4637 257.93,-624.9117 318.1677,-674.01 315.5103,-759.3447 314.3224,-781.097 435.1229,-777.0989 446.3421,-780.3168 451.6248,-777.1448 453.8467,-773.8141 451.8232,-772.314 450.215,-702.8807 449.0773,-702.6424 330.1269,-672.4265 326.3496,-671.5507 372.011,-630.2319 379.6721,-623.6566 382.756,-620.6472 393.8323,-611.0267 397.6968,-607.884 398.2433,-582.7734 402.4542,-523.6635 407.0541,-524.9697 407.0541,-524.9697 402.4542,-523.6635 398.2433,-582.7734 397.6968,-607.884 409.0945,-599.8266 422.2977,-591.9102 423.3163,-591.3567 427.733,-589.1952 437.5856,-584.902 437.3315,-571.0399 437.3315,-571.0399 437.5856,-584.902 427.733,-589.1952 423.3163,-591.3567 422.2977,-591.9102 409.0945,-599.8266 397.6968,-607.884 393.8323,-611.0267 382.756,-620.6472 379.6721,-623.6566 372.011,-630.2319 326.3496,-671.5507 330.1269,-672.4265 449.0773,-702.6424 450.215,-702.8807 457.24,-704.0439 461.826,-704.6009 463.4641,-704.7276 472.0973,-705.0156 474.4045,-704.9905 476.9272,-641.7313 480.1627,-638.2626 481.5328,-637.7014 486.6255,-698.3461 486.8414,-704.9139 489.8603,-704.8917 499.9095,-705.275 500.08,-705.2589 500.5245,-679.6895 504.2184,-641.4034 508.9442,-640.0341 512.2452,-705.1696 519.4946,-705.1503 519.4852,-704.8893 519.4852,-704.8893 519.4946,-705.1503 512.2452,-705.1696 508.9442,-640.0341 504.2184,-641.4034 500.5245,-679.6895 500.08,-705.2589 499.9095,-705.275 489.8603,-704.8917 486.8414,-704.9139 486.6255,-698.3461 481.5328,-637.7014 480.1627,-638.2626 476.9272,-641.7313 474.4045,-704.9905 472.0973,-705.0156 463.4641,-704.7276 461.826,-704.6009 457.24,-704.0439 450.215,-702.8807 451.8232,-772.314 453.8467,-773.8141 456.6783,-773.8141 456.8769,-773.7547 462.1743,-773.7547 462.3048,-838.2264 468.2974,-773.803 468.6556,-773.803 472.9532,-777.4889 477.3724,-778.7244 484.0911,-776.6709 487.3258,-773.9298 483.8366,-770.9017 483.8366,-770.9017 487.3258,-773.9298 484.0911,-776.6709 477.3724,-778.7244 472.9532,-777.4889 468.6556,-773.803 468.2974,-773.803 462.3048,-838.2264 462.1743,-773.7547 456.8769,-773.7547 456.6783,-773.8141 453.8467,-773.8141 451.6248,-777.1448 446.3421,-780.3168 435.1229,-777.0989 314.3224,-781.097 308.7341,-836.2646 311.7791,-869.9272 409.5723,-930.3201 430.1999,-958.3203 472.8433,-964.6183 543.6087,-965.8231 542.4091,-894.009 542.4091,-894.009 543.6087,-965.8231 544.6395,-965.8863 554.9662,-966.749 555.8712,-966.8446 563.6238,-967.8368 570.9174,-968.9323 570.3928,-842.1304 575.3868,-843.5425 581.191,-841.8405 584.9583,-838.6255 584.659,-838.165 581.5945,-835.606 581.5945,-835.606 584.659,-838.165 584.9583,-838.6255 581.191,-841.8405 575.3868,-843.5425 570.3928,-842.1304 570.9174,-968.9323 578.9114,-970.3102 581.9994,-970.9795 598.265,-974.8681 600.9205,-975.6198 601.9173,-939.3521 601.9173,-939.3521 600.9205,-975.6198 620.1669,-981.9285 650.5378,-992.5441 653.2183,-988.4431 680.2716,-945.105 694.6395,-919.2202 670.7982,-855.3766 663.1666,-830.9837 660.6678,-817.097 655.678,-796.8868 625.1235,-715.0664 666.9852,-666.2177 660.4574,-636.46 655.0015,-599.1323 657.8916,-589.9086 663.5454,-568.1517 676.3933,-512.86 597.5782,-512.86 597.5782,-512.86 676.3933,-512.86 686.1912,-481.5899 682.8197,-423.7692 685.5848,-416.7404 680.4924,-393.9416 675.6991,-388.6768 675.5885,-388.5439 667.8585,-379.9225 657.7342,-369.0694 645.6131,-357.1498 644.05,-355.7535 635.5219,-348.4996 634.2083,-347.4401 631.1945,-345.1378 573.2996,-297.7813 578.2488,-257.2369 578.9611,-245.8821 578.9807,-237.4467 580.0776,-228.6242 580.6393,-219.6534 587.3369,-164.7857 564.2177,-135.6064 532.5786,-98.2416 532.3316,-97.977 526.1691,-91.0854 513.3213,-76.1144 504.1477,-64.5978 502.8102,-64.7734 502.7335,-184.5869 499.6398,-227.8872 503.9531,-231.7087 500.8574,-234.3756 500.8574,-234.3756 503.9531,-231.7087 499.6398,-227.8872 495.0363,-226.5827 495.0363,-226.5827 499.6398,-227.8872 502.7335,-184.5869 502.8102,-64.7734 489.3993,-66.0718 474.595,-66.741 473.7264,-66.7654 469.9662,-66.806 461.6768,-69.4693 468.3269,-231.3402 468.2249,-231.3402 468.2249,-231.3402 468.3269,-231.3402 461.6768,-69.4693 459.9163,-70.0012 437.3449,-76.3909 331.6122,-124.0358 305.7875,-98.3766 278.0272,-69.5527 209.2427,-11.6195 166.6845,5.0365 166.1973,-134.1075 162.3201,-138.3564 321.6969,-157.3084 319.336,-165.8437 309.5953,-204.0094 282.2217,-295.7277 462.3301,-236.4686 464.5189,-266.8622 463.5112,-301.207 278.9818,-309.498 278.6568,-314.0276 276.9958,-343.6862 276.5815,-348.3868 360.2012,-403.8722 368.9947,-410.078 386.0659,-421.4644 387.853,-422.5812 399.006,-428.6528 405.704,-431.7573 414.4343,-435.4531 414.6776,-435.5461 427.7451,-440.0211 437.5266,-442.5709 437.1924,-466.2776 437.1924,-466.2776 437.5266,-442.5709 427.7451,-440.0211 414.6776,-435.5461 414.4343,-435.4531 405.704,-431.7573 399.006,-428.6528 387.853,-422.5812 386.0659,-421.4644 368.9947,-410.078 360.2012,-403.8722 276.5815,-348.3868 276.9958,-343.6862 278.6568,-314.0276 278.9818,-309.498 463.5112,-301.207 464.5189,-266.8622 462.3301,-236.4686 282.2217,-295.7277 309.5953,-204.0094 319.336,-165.8437 321.6969,-157.3084 162.3201,-138.3564 166.1973,-134.1075 166.6845,5.0365 159.1674,8.1417 158.7747,-91.5868 158.7747,-91.5868 159.1674,8.1417 157.3248,8.9829 152.264,9.5714 149.7897,-82.339 145.2705,-138.9641 141.6756,-138.9641 133.1854,-40.3516 132.8544,-34.6325 132.0885,-50.6087 130.7111,-135.9092 134.8548,-139.5051 131.1634,-142.5385 131.1634,-142.5385 134.8548,-139.5051 130.7111,-135.9092 132.0885,-50.6087 132.8544,-34.6325 133.1854,-40.3516 141.6756,-138.9641 145.2705,-138.9641 149.7897,-82.339 152.264,9.5714 132.6197,12.58 121.8114,15.029 111.1062,17.8506 106.7589,17.9929 105.4475,18.0808 91.1154,11.2542 89.0389,10.3548 10.4299,-20.3879 -6.5613,-35.4982 -40.0795,-77.1701 -53.0555,-107.8124 -60.0905,-123.4499 -55.3257,-140.0693 -47.7283,-168.9408 -36.7832,-214.8122 -103.7902,-323.0359 -105.1056,-325.0567 -119.0253,-345.4215 -111.3352,-379.1331 -111.3352,-379.1331"/>
<polygon fill="#fbb4ae" stroke="#fbb4ae" points="1755.1715,-554.002 1750.4386,-536.03 1721.3013,-414.2598 1650.6454,-373.5444 1623.8746,-394.9864 1609.9872,-405.759 1604.04,-410.2154 1593.4625,-417.5875 1581.584,-425.5507 1577.0151,-428.2466 1556.6792,-439.1963 1550.1118,-442.2065 1545.4802,-444.2076 1535.5636,-448.2319 1531.1554,-449.903 1530.9146,-449.9879 1467.8709,-470.5572 1453.973,-475.4691 1445.8755,-478.5449 1440.7828,-480.6122 1426.6938,-487.8448 1425.6853,-488.3895 1414.2823,-475.1099 1413.6932,-474.4554 1410.7032,-471.2865 1408.598,-468.9237 1404.2429,-464.4969 1402.6504,-462.7762 1392.3918,-452.261 1381.8113,-442.6249 1380.9707,-441.7964 1307.3286,-373.9359 1307.2159,-373.8247 1312.41,-357.9491 1312.894,-356.2237 1316.7355,-335.9811 1323.1104,-309.2272 1327.3472,-294.2939 1347.7057,-232.0687 1362.4893,-230.0266 1367.8929,-229.6453 1374.2073,-229.3411 1377.8671,-229.3288 1391.764,-228.9828 1401.5724,-228.3162 1419.1016,-226.3694 1420.0806,-226.2398 1427.8501,-224.8781 1442.6379,-221.3277 1459.2426,-216.6251 1520.1847,-195.4617 1508.7922,-129.359 1506.0234,-110.6596 1500.6665,-67.2067 1379.0244,-96.6058 1375.0214,-101.2631 1374.1849,-101.7114 1373.2129,-101.7114 1372.8524,-101.6028 1369.452,-101.6028 1368.2932,-102.9992 1363.043,-106.1683 1357.6135,-106.1683 1351.1619,-102.2436 1350.9447,-101.9994 1349.3519,-101.9994 1349.3519,-101.9994 1350.9447,-101.9994 1351.1619,-102.2436 1357.6135,-106.1683 1363.043,-106.1683 1368.2932,-102.9992 1369.452,-101.6028 1368.9758,-101.056 1362.5328,-97.1653 1358.1509,-97.1653 1358.1509,-97.1653 1362.5328,-97.1653 1368.9758,-101.056 1369.452,-101.6028 1372.8524,-101.6028 1373.2129,-101.7114 1374.1849,-101.7114 1375.0214,-101.2631 1379.0244,-96.6058 1500.6665,-67.2067 1498.0526,-40.4349 1482.0507,.3696 1451.0598,30.6457 1421.136,48.841 1379.3845,39.7192 1366.3085,37.4073 1352.3551,35.5243 1343.269,34.6796 1245.2242,29.6707 1193.8652,10.0253 1180.8141,12.0531 1175.3666,-124.5512 1170.3053,-174.8262 1169.7983,-175.6044 1168.9916,-176.2133 1166.6351,-176.2133 1166.0687,-176.0532 1161.5151,-176.0532 1161.5151,-176.0532 1166.0687,-176.0532 1166.6351,-176.2133 1168.9916,-176.2133 1169.7983,-175.6044 1170.3053,-174.8262 1175.3666,-124.5512 1180.8141,12.0531 1167.1573,14.5812 1162.7279,9.3204 1153.849,-.9154 1151.2183,-3.7639 1144.2263,-11.0979 1130.2937,-24.7738 1119.7195,-34.077 1119.1865,-34.5103 1098.129,-53.2838 1033.3064,-108.4793 1039.2638,-164.9404 1039.6316,-189.5912 1039.8275,-191.4333 1039.8304,-191.4523 988.6709,-254.5311 968.3953,-274.7089 965.626,-277.8553 962.2702,-281.9218 955.6356,-290.4773 956.1465,-293.1304 957.6292,-299.6497 1048.7413,-271.1146 1040.1643,-364.6542 1062.8617,-363.3924 1059.1649,-316.4386 1059.1649,-316.4386 1062.8617,-363.3924 1063.4012,-363.3935 1065.14,-363.2959 1065.14,-363.2959 1063.4012,-363.3935 1062.8617,-363.3924 1040.1643,-364.6542 1048.7413,-271.1146 957.6292,-299.6497 958.8158,-305.8456 966.7679,-341.0964 974.2548,-370.2013 973.1529,-371.8509 1003.7866,-460.78 1008.2814,-486.2357 1012.3541,-503.6516 1034.6082,-568.2545 1064.3567,-554.6019 1065.0833,-511.2059 1065.0833,-511.2059 1064.3567,-554.6019 1075.0352,-550.462 1089.8503,-545.7778 1087.5616,-497.165 1089.0352,-465.1876 1093.9897,-465.1876 1099.701,-461.8791 1100.4075,-461.0957 1098.7421,-459.1133 1093.7765,-456.2417 1088.8229,-456.2417 1088.8229,-456.2417 1093.7765,-456.2417 1098.7421,-459.1133 1100.4075,-461.0957 1099.701,-461.8791 1093.9897,-465.1876 1089.0352,-465.1876 1087.5616,-497.165 1089.8503,-545.7778 1093.3925,-544.9153 1105.5714,-542.8157 1106.1738,-506.4175 1106.1738,-506.4175 1105.5714,-542.8157 1116.876,-541.6776 1122.9231,-541.2866 1119.4669,-467.3325 1128.0111,-464.5834 1117.66,-457.8395 1119.2579,-456.0598 1126.0424,-363.9271 1178.8929,-397.444 1208.2841,-389.5396 1208.7377,-353.801 1208.7377,-353.801 1208.2841,-389.5396 1222.0011,-386.9931 1224.3077,-386.7584 1227.8087,-318.7869 1233.1019,-317.2391 1236.9307,-313.9542 1232.657,-310.2842 1228.1802,-309.0308 1228.1802,-309.0308 1232.657,-310.2842 1236.9307,-313.9542 1233.1019,-317.2391 1227.8087,-318.7869 1224.3077,-386.7584 1222.0011,-386.9931 1208.2841,-389.5396 1178.8929,-397.444 1126.0424,-363.9271 1119.2579,-456.0598 1117.66,-457.8395 1128.0111,-464.5834 1119.4669,-467.3325 1122.9231,-541.2866 1125.4901,-541.213 1136.1295,-540.527 1140.1379,-540.1258 1149.4932,-538.5191 1158.4897,-536.6527 1159.0317,-536.5212 1168.1488,-533.6499 1180.0999,-529.4559 1181.2577,-528.9679 1183.2742,-529.7385 1196.183,-534.2211 1226.7839,-541.6108 1240.1086,-536.5253 1241.1956,-510.9857 1241.1956,-510.9857 1240.1086,-536.5253 1226.7839,-541.6108 1237.2053,-578.4597 1242.7944,-604.5516 1243.6744,-610.9464 1243.8232,-613.3219 1249.5322,-640.0468 1256.7949,-665.7271 1289.3932,-673.9542 1291.6469,-674.6154 1294.4728,-675.5615 1299.8495,-677.5875 1310.3243,-681.9748 1315.671,-684.6566 1317.5713,-603.2427 1322.0663,-603.2427 1328.3998,-599.5681 1329.3302,-598.5469 1328.5703,-597.7224 1322.5305,-594.2219 1317.619,-594.2219 1315.9741,-548.6371 1316.4956,-528.1499 1311.843,-528.3215 1303.0311,-528.2806 1298.9064,-528.4374 1296.7683,-528.4296 1296.4865,-518.9141 1291.6509,-458.5223 1287.8993,-458.5223 1284.2765,-503.5051 1281.408,-458.3768 1280.9708,-458.3768 1277.0295,-461.6978 1271.9528,-463.1572 1271.9528,-463.1572 1277.0295,-461.6978 1280.9708,-458.3768 1277.3696,-455.3379 1277.3696,-455.3379 1280.9708,-458.3768 1281.408,-458.3768 1284.2765,-503.5051 1287.8993,-458.5223 1291.6509,-458.5223 1296.4865,-518.9141 1296.7683,-528.4296 1298.9064,-528.4374 1303.0311,-528.2806 1311.843,-528.3215 1316.4956,-528.1499 1315.9741,-548.6371 1317.619,-594.2219 1322.5305,-594.2219 1328.5703,-597.7224 1329.3302,-598.5469 1328.3998,-599.5681 1322.0663,-603.2427 1317.5713,-603.2427 1315.671,-684.6566 1325.4242,-689.9582 1333.1429,-694.7932 1334.6589,-631.2366 1338.9332,-598.7579 1338,-598.4948 1338,-598.4948 1338.9332,-598.7579 1334.6589,-631.2366 1333.1429,-694.7932 1351.0627,-707.5305 1349.4756,-657.6223 1349.4756,-657.6223 1351.0627,-707.5305 1376.2466,-728.4896 1394.7446,-743.1333 1463.4603,-711.4813 1506.6052,-719.6647 1523.7052,-716.3044 1537.3065,-713.8845 1546.8821,-712.7181 1560.808,-711.2823 1571.2139,-710.7952 1580.1116,-710.7122 1583.1783,-709.314 1598.699,-703.2766 1597.436,-597.5497 1593.4893,-566.5837 1591.0314,-566.5837 1590.3595,-566.7718 1585.6876,-621.9153 1584.3203,-566.8423 1580.8406,-566.8423 1578.843,-564.4792 1574.7402,-562.1815 1574.7402,-562.1815 1578.843,-564.4792 1580.8406,-566.8423 1584.3203,-566.8423 1585.6876,-621.9153 1590.3595,-566.7718 1591.0314,-566.5837 1593.4893,-566.5837 1597.436,-597.5497 1598.699,-703.2766 1606.7712,-700.4999 1624.6938,-695.1373 1703.3748,-673.3981 1743.1207,-581.0886 1751.4181,-564.1063 1755.1715,-554.002 1755.1715,-554.002"/>
<polygon fill="#decbe4" stroke="#decbe4" points="637.274,-244.189 632.0566,-249.3925 634.2083,-347.4401 631.1945,-345.1378 573.2996,-297.7813 578.2488,-257.2369 578.9611,-245.8821 578.9807,-237.4467 580.0776,-228.6242 580.6393,-219.6534 587.3369,-164.7857 564.2177,-135.6064 532.5786,-98.2416 532.3316,-97.977 526.1691,-91.0854 513.3213,-76.1144 504.1477,-64.5978 556.7533,-12.733 628.3577,29.0712 663.4474,30.6334 667.4142,31.0327 670.1443,30.8044 682.9619,29.9726 691.8191,29.7304 689.2556,-108.0541 684.8878,-108.0541 678.1393,-112.0102 677.4885,-112.7133 678.1673,-113.4352 684.7056,-117.1963 689.025,-117.1963 694.0789,-114.3093 695.6957,-112.4217 699.4901,-112.4217 699.5561,-112.403 704.1486,-112.403 704.3718,-112.4662 704.139,-177.8389 699.2716,-177.9589 699.4736,-209.8306 696.3052,-243.4892 692.4075,-243.4892 691.0576,-243.8677 688.2391,-243.8677 688.2391,-243.8677 691.0576,-243.8677 692.4075,-243.4892 696.3052,-243.4892 699.4736,-209.8306 699.2716,-177.9589 704.139,-177.8389 704.3718,-112.4662 707.2072,-112.4662 709.4682,-115.9078 714.4479,-119.0303 711.9129,-178.1407 761.2446,-181.2841 761.2446,-181.2841 711.9129,-178.1407 714.4479,-119.0303 709.4682,-115.9078 707.2072,-112.4662 704.3718,-112.4662 704.1486,-112.403 699.5561,-112.403 699.4901,-112.4217 695.6957,-112.4217 694.0789,-114.3093 689.025,-117.1963 684.7056,-117.1963 678.1673,-113.4352 677.4885,-112.7133 678.1393,-112.0102 684.8878,-108.0541 689.2556,-108.0541 691.8191,29.7304 696.2294,29.6926 706.6996,29.9956 717.9725,30.7449 735.7189,32.2566 758.8239,40.7645 786.136,43.3689 788.136,40.4461 795.6377,29.9274 802.3522,20.9205 816.6522,3.4563 819.1315,.5888 817.5277,-99.8683 813.9086,-102.9735 818.3979,-107.0638 822.5446,-108.2178 822.5446,-108.2178 818.3979,-107.0638 813.9086,-102.9735 817.5277,-99.8683 822.6422,-98.392 827.9222,-99.9622 831.8561,-103.5338 833.4327,-103.5338 832.3424,-184.3164 826.8263,-190.21 845.3661,-190.21 885.9718,-192.2719 906.5302,-196.5789 912.4329,-192.757 914.2158,-190.3164 912.8925,-189.3661 911.6877,-187.5335 911.6877,-187.5335 912.8925,-189.3661 914.2158,-190.3164 912.4329,-192.757 906.5302,-196.5789 885.9718,-192.2719 845.3661,-190.21 826.8263,-190.21 832.3424,-184.3164 839.629,-177.0781 847.8255,-169.5701 850.7917,-167.092 851.0621,-149.1431 851.0621,-149.1431 850.7917,-167.092 847.8255,-169.5701 839.629,-177.0781 832.3424,-184.3164 833.4327,-103.5338 831.8561,-103.5338 827.9222,-99.9622 822.6422,-98.392 817.5277,-99.8683 819.1315,.5888 816.6522,3.4563 802.3522,20.9205 795.6377,29.9274 788.136,40.4461 786.136,43.3689 850.2343,94.7219 902.4951,114.107 917.6466,115.192 936.6558,117.7725 937.9431,117.9746 950.9502,120.5723 952.4549,120.9048 961.7302,123.1518 975.9457,127.5082 986.1898,130.8651 986.7723,130.5814 983.9014,52.1444 983.9014,52.1444 986.7723,130.5814 1063.6233,96.6754 1153.9783,29.0637 1158.7495,25.0235 1160.0172,23.4008 1167.1573,14.5812 1162.7279,9.3204 1153.849,-.9154 1151.2183,-3.7639 1144.2263,-11.0979 1130.2937,-24.7738 1119.7195,-34.077 1119.1865,-34.5103 1098.129,-53.2838 1033.3064,-108.4793 1039.2638,-164.9404 1039.6316,-189.5912 1036.0604,-189.4618 971.7824,-184.0323 971.7824,-184.0323 1036.0604,-189.4618 1039.6316,-189.5912 1039.8275,-191.4333 1039.8304,-191.4523 988.6709,-254.5311 968.3953,-274.7089 965.626,-277.8553 962.2702,-281.9218 955.6356,-290.4773 956.1465,-293.1304 957.6292,-299.6497 958.8158,-305.8456 966.7679,-341.0964 974.2548,-370.2013 973.1529,-371.8509 949.2853,-384.3694 929.6903,-392.8938 916.5059,-397.4247 913.225,-398.4514 903.455,-400.9174 901.7039,-401.3061 886.0442,-403.8412 877.6055,-404.6943 868.5095,-405.0624 864.9234,-404.9902 857.0936,-405.085 854.4105,-405.291 846.5906,-405.1783 839.3302,-404.8528 837.4268,-404.8904 833.8555,-404.7446 831.9221,-404.728 830.4909,-372.8381 830.904,-316.9205 836.3727,-316.9205 841.7177,-313.6315 842.7673,-312.3495 842.6828,-312.2525 842.6828,-312.2525 842.7673,-312.3495 841.7177,-313.6315 836.3727,-316.9205 830.904,-316.9205 830.4909,-372.8381 831.9221,-404.728 823.9727,-405.1724 822.6284,-405.2911 821.7974,-405.3391 812.5229,-405.3125 805.3707,-405.5223 685.5848,-416.7404 680.4924,-393.9416 675.6991,-388.6768 675.5885,-388.5439 667.8585,-379.9225 657.7342,-369.0694 645.6131,-357.1498 644.05,-355.7535 635.5219,-348.4996 634.2083,-347.4401 632.0566,-249.3925 637.274,-244.189 637.3821,-243.9923 641.9673,-243.9923 643.0096,-243.6943 646.4017,-243.6943 647.1702,-243.9129 646.7949,-326.4768 652.7692,-244.0827 656.0933,-244.0827 659.334,-271.2621 663.1124,-246.3947 667.1029,-248.5106 671.4225,-248.5106 671.4225,-248.5106 667.1029,-248.5106 663.1124,-246.3947 659.334,-271.2621 656.0933,-244.0827 652.7692,-244.0827 646.7949,-326.4768 647.1702,-243.9129 646.4017,-243.6943 643.0096,-243.6943 641.9673,-243.9923 637.3821,-243.9923 637.274,-244.189 637.274,-244.189"/>
<polygon fill="#ccebc5" stroke="#ccebc5" points="1307.2159,-373.8247 1312.41,-357.9491 1312.894,-356.2237 1316.7355,-335.9811 1323.1104,-309.2272 1327.3472,-294.2939 1347.7057,-232.0687 1362.4893,-230.0266 1367.8929,-229.6453 1374.2073,-229.3411 1377.8671,-229.3288 1391.764,-228.9828 1401.5724,-228.3162 1419.1016,-226.3694 1420.0806,-226.2398 1427.8501,-224.8781 1442.6379,-221.3277 1459.2426,-216.6251 1520.1847,-195.4617 1612.351,-247.9579 1644.1893,-217.6333 1739.0983,-119.6057 1787.7561,-92.8995 1788.0397,-92.737 1807.854,-90.0961 1817.1481,-88.1654 1823.1323,-89.2599 1830.2817,-90.4348 1832.7981,-90.8016 1853.1915,-93.0201 1856.4,-93.2497 1868.8954,-93.4513 1875.6853,-93.4351 1879.9043,-93.3471 1938.3091,-104.598 1995.0767,-205.5783 1997.9691,-220.8956 1998.0802,-221.4127 1996.9695,-232.6363 1993.7636,-276.1866 1989.8529,-358.0706 1947.4253,-373.1348 1884.2634,-373.6938 1859.4514,-374.4489 1855.166,-374.8556 1841.178,-376.7884 1826.2559,-379.4944 1810.1687,-383.4506 1797.9382,-387.2467 1795.1874,-388.1593 1721.3013,-414.2598 1650.6454,-373.5444 1623.8746,-394.9864 1609.9872,-405.759 1604.04,-410.2154 1593.4625,-417.5875 1581.584,-425.5507 1577.0151,-428.2466 1556.6792,-439.1963 1550.1118,-442.2065 1545.4802,-444.2076 1535.5636,-448.2319 1531.1554,-449.903 1530.9146,-449.9879 1467.8709,-470.5572 1453.973,-475.4691 1445.8755,-478.5449 1440.7828,-480.6122 1426.6938,-487.8448 1425.6853,-488.3895 1414.2823,-475.1099 1413.6932,-474.4554 1415.5782,-358.6207 1420.8165,-361.5348 1425.6064,-361.5348 1429.814,-359.2561 1431.9841,-356.7122 1431.1107,-355.711 1431.1107,-355.711 1431.9841,-356.7122 1429.814,-359.2561 1425.6064,-361.5348 1420.8165,-361.5348 1415.5782,-358.6207 1413.6932,-474.4554 1410.7032,-471.2865 1408.598,-468.9237 1404.2429,-464.4969 1402.6504,-462.7762 1392.3918,-452.261 1381.8113,-442.6249 1380.9707,-441.7964 1307.3286,-373.9359 1307.2159,-373.8247 1307.2159,-373.8247"/>
<polygon fill="#fbb4ae" stroke="#fbb4ae" points="1080.9158,-627.2291 1081.6227,-627.904 1092.3492,-636.9998 1125.2653,-670.4745 1128.8494,-674.6229 1133.71,-679.5209 1136.1941,-682.3031 1138.8032,-684.6113 1147.2179,-692.8031 1132.1206,-733.4654 1124.9619,-736.4139 1117.2789,-738.8435 1112.7776,-740.052 1105.8615,-741.5796 1099.415,-742.6946 1089.4091,-743.4714 1079.3407,-743.2922 1079.032,-743.3298 1067.21,-743.6376 1065.1493,-743.5925 1062.4265,-743.4026 1051.4365,-744.1684 1045.968,-744.8029 1034.005,-747.3055 1026.8091,-749.4771 1025.7537,-749.8445 1024.2064,-748.6942 1012.5308,-740.7612 964.2383,-714.4265 950.356,-704.9925 944.5932,-700.717 943.4549,-699.8026 939.5519,-696.1478 928.4815,-685.0042 928.229,-684.7851 923.6618,-680.5662 913.7519,-670.2596 914.6934,-668.6064 946.443,-608.5115 951.9876,-598.8456 952.715,-598.5746 1005.2728,-580.6186 1021.7263,-574.475 1032.5767,-569.7583 1034.17,-568.9685 1041.1022,-579.8585 1054.7147,-597.756 1061.3134,-605.2852 1065.3197,-610.3099 1067.5133,-612.8363 1069.7174,-615.1614 1070.2767,-615.8198 1080.9158,-627.2291 1080.9158,-627.2291"/>
<polyline fill="none" stroke="#aaaaaa" points="901.7039,-401.3061 903.455,-400.9174 913.225,-398.4514 916.5059,-397.4247 929.6903,-392.8938 949.2853,-384.3694 973.1529,-371.8509 1003.7866,-460.78 1008.2814,-486.2357 1012.3541,-503.6516 1034.6082,-568.2545 1064.3567,-554.6019 1075.0352,-550.462 1089.8503,-545.7778 1093.3925,-544.9153 1105.5714,-542.8157 1116.876,-541.6776 1122.9231,-541.2866 1125.4901,-541.213 1136.1295,-540.527 1140.1379,-540.1258 1149.4932,-538.5191 1158.4897,-536.6527 1159.0317,-536.5212 1168.1488,-533.6499 1180.0999,-529.4559 1181.2577,-528.9679 1183.2742,-529.7385 1196.183,-534.2211 1226.7839,-541.6108 1237.2053,-578.4597 1242.7944,-604.5516 1243.6744,-610.9464 1243.8232,-613.3219 1249.5322,-640.0468 1256.7949,-665.7271 1289.3932,-673.9542 1291.6469,-674.6154 1294.4728,-675.5615 1299.8495,-677.5875 1310.3243,-681.9748 1315.671,-684.6566 1325.4242,-689.9582 1333.1429,-694.7932 1351.0627,-707.5305 1376.2466,-728.4896 1394.7446,-743.1333 1393.8809,-744.6426 1336.0283,-856.5752 1259.7175,-878.9074 1251.6919,-881.4298 1198.9724,-938.0895 1195.2836,-963.87 1191.1062,-1019.9365 1147.2894,-1075.6927 1068.0696,-1100.9781 1062.8812,-1099.5577 1043.8346,-1095.2092 1036.7548,-1093.9198 1020.7309,-1091.7373 1020.1174,-1091.6678 1007.3019,-1090.8073 926.5096,-1089.0942 909.4969,-1098.8586 853.3304,-1087.915 850.0547,-1087.3491 849.8136,-1087.3127 837.7971,-1086.0254 829.9918,-1085.3607 817.9968,-1084.8663 806.8951,-1084.8972 792.4672,-1085.572 740.9086,-1089.1118 694.6937,-1081.1306 675.992,-1050.3925 650.5378,-992.5441 653.2183,-988.4431 680.2716,-945.105 694.6395,-919.2202 670.7982,-855.3766 663.1666,-830.9837 660.6678,-817.097 655.678,-796.8868 625.1235,-715.0664 666.9852,-666.2177 660.4574,-636.46 655.0015,-599.1323 657.8916,-589.9086 663.5454,-568.1517 676.3933,-512.86 686.1912,-481.5899 682.8197,-423.7692 685.5848,-416.7404 805.3707,-405.5223 812.5229,-405.3125 821.7974,-405.3391 822.6284,-405.2911 823.9727,-405.1724 831.9221,-404.728 833.8555,-404.7446 837.4268,-404.8904 839.3302,-404.8528 846.5906,-405.1783 854.4105,-405.291 857.0936,-405.085 864.9234,-404.9902 868.5095,-405.0624 877.6055,-404.6943 886.0442,-403.8412 901.7039,-401.3061 "/>
<polyline fill="none" stroke="#000000" points="946.443,-608.5115 914.6934,-668.6064 913.7519,-670.2596 923.6618,-680.5662 928.229,-684.7851 928.4815,-685.0042 939.5519,-696.1478 943.4549,-699.8026 944.5932,-700.717 950.356,-704.9925 964.2383,-714.4265 1012.5308,-740.7612 1024.2064,-748.6942 1025.7537,-749.8445 1026.8091,-749.4771 1034.005,-747.3055 1045.968,-744.8029 1051.4365,-744.1684 1062.4265,-743.4026 1065.1493,-743.5925 1067.21,-743.6376 1079.032,-743.3298 1079.3407,-743.2922 1089.4091,-743.4714 1099.415,-742.6946 1105.8615,-741.5796 1112.7776,-740.052 1117.2789,-738.8435 1124.9619,-736.4139 1132.1206,-733.4654 1147.2179,-692.8031 1138.8032,-684.6113 1136.1941,-682.3031 1133.71,-679.5209 1128.8494,-674.6229 1125.2653,-670.4745 1092.3492,-636.9998 1081.6227,-627.904 1080.9158,-627.2291 1070.2767,-615.8198 1069.7174,-615.1614 1067.5133,-612.8363 1065.3197,-610.3099 1061.3134,-605.2852 1054.7147,-597.756 1041.1022,-579.8585 1034.17,-568.9685 1032.5767,-569.7583 1021.7263,-574.475 1005.2728,-580.6186 952.715,-598.5746 951.9876,-598.8456 946.443,-608.5115 "/>
<polyline fill="none" stroke="#000000" points="655.0015,-599.1323 657.8916,-589.9086 663.5454,-568.1517 676.3933,-512.86 686.1912,-481.5899 682.8197,-423.7692 685.5848,-416.7404 680.4924,-393.9416 675.6991,-388.6768 675.5885,-388.5439 667.8585,-379.9225 657.7342,-369.0694 645.6131,-357.1498 644.05,-355.7535 635.5219,-348.4996 634.2083,-347.4401 631.1945,-345.1378 573.2996,-297.7813 578.2488,-257.2369 578.9611,-245.8821 578.9807,-237.4467 580.0776,-228.6242 580.6393,-219.6534 587.3369,-164.7857 564.2177,-135.6064 532.5786,-98.2416 532.3316,-97.977 526.1691,-91.0854 513.3213,-76.1144 504.1477,-64.5978 502.8102,-64.7734 489.3993,-66.0718 474.595,-66.741 473.7264,-66.7654 469.9662,-66.806 461.6768,-69.4693 459.9163,-70.0012 437.3449,-76.3909 331.6122,-124.0358 305.7875,-98.3766 278.0272,-69.5527 209.2427,-11.6195 166.6845,5.0365 159.1674,8.1417 157.3248,8.9829 152.264,9.5714 132.6197,12.58 121.8114,15.029 111.1062,17.8506 106.7589,17.9929 105.4475,18.0808 91.1154,11.2542 89.0389,10.3548 10.4299,-20.3879 -6.5613,-35.4982 -40.0795,-77.1701 -53.0555,-107.8124 -60.0905,-123.4499 -55.3257,-140.0693 -47.7283,-168.9408 -36.7832,-214.8122 -103.7902,-323.0359 -105.1056,-325.0567 -119.0253,-345.4215 -111.3352,-379.1331 -106.9518,-383.7984 -34.5719,-464.341 -20.1899,-475.5957 28.3099,-480.0769 43.5402,-481.803 55.0213,-484.0652 64.0452,-486.0327 66.6855,-486.6636 72.7409,-485.668 85.6124,-484.0742 206.6177,-474.0056 217.3829,-501.7946 223.1597,-517.6072 230.6501,-539.4637 257.93,-624.9117 318.1677,-674.01 315.5103,-759.3447 314.3224,-781.097 308.7341,-836.2646 311.7791,-869.9272 409.5723,-930.3201 430.1999,-958.3203 472.8433,-964.6183 543.6087,-965.8231 544.6395,-965.8863 554.9662,-966.749 555.8712,-966.8446 563.6238,-967.8368 570.9174,-968.9323 578.9114,-970.3102 581.9994,-970.9795 598.265,-974.8681 600.9205,-975.6198 620.1669,-981.9285 650.5378,-992.5441 653.2183,-988.4431 680.2716,-945.105 694.6395,-919.2202 670.7982,-855.3766 663.1666,-830.9837 660.6678,-817.097 655.678,-796.8868 625.1235,-715.0664 666.9852,-666.2177 660.4574,-636.46 655.0015,-599.1323 "/>
<polyline fill="none" stroke="#000000" points="1153.849,-.9154 1162.7279,9.3204 1167.1573,14.5812 1180.8141,12.0531 1193.8652,10.0253 1245.2242,29.6707 1343.269,34.6796 1352.3551,35.5243 1366.3085,37.4073 1379.3845,39.7192 1421.136,48.841 1451.0598,30.6457 1482.0507,.3696 1498.0526,-40.4349 1500.6665,-67.2067 1506.0234,-110.6596 1508.7922,-129.359 1520.1847,-195.4617 1459.2426,-216.6251 1442.6379,-221.3277 1427.8501,-224.8781 1420.0806,-226.2398 1419.1016,-226.3694 1401.5724,-228.3162 1391.764,-228.9828 1377.8671,-229.3288 1374.2073,-229.3411 1367.8929,-229.6453 1362.4893,-230.0266 1347.7057,-232.0687 1327.3472,-294.2939 1323.1104,-309.2272 1316.7355,-335.9811 1312.894,-356.2237 1312.41,-357.9491 1307.2159,-373.8247 1307.3286,-373.9359 1380.9707,-441.7964 1381.8113,-442.6249 1392.3918,-452.261 1402.6504,-462.7762 1404.2429,-464.4969 1408.598,-468.9237 1410.7032,-471.2865 1413.6932,-474.4554 1414.2823,-475.1099 1425.6853,-488.3895 1426.6938,-487.8448 1440.7828,-480.6122 1445.8755,-478.5449 1453.973,-475.4691 1467.8709,-470.5572 1530.9146,-449.9879 1531.1554,-449.903 1535.5636,-448.2319 1545.4802,-444.2076 1550.1118,-442.2065 1556.6792,-439.1963 1577.0151,-428.2466 1581.584,-425.5507 1593.4625,-417.5875 1604.04,-410.2154 1609.9872,-405.759 1623.8746,-394.9864 1650.6454,-373.5444 1721.3013,-414.2598 1750.4386,-536.03 1755.1715,-554.002 1751.4181,-564.1063 1743.1207,-581.0886 1703.3748,-673.3981 1624.6938,-695.1373 1606.7712,-700.4999 1598.699,-703.2766 1583.1783,-709.314 1580.1116,-710.7122 1571.2139,-710.7952 1560.808,-711.2823 1546.8821,-712.7181 1537.3065,-713.8845 1523.7052,-716.3044 1506.6052,-719.6647 1463.4603,-711.4813 1394.7446,-743.1333 1376.2466,-728.4896 1351.0627,-707.5305 1333.1429,-694.7932 1325.4242,-689.9582 1315.671,-684.6566 1310.3243,-681.9748 1299.8495,-677.5875 1294.4728,-675.5615 1291.6469,-674.6154 1289.3932,-673.9542 1256.7949,-665.7271 1249.5322,-640.0468 1243.8232,-613.3219 1243.6744,-610.9464 1242.7944,-604.5516 1237.2053,-578.4597 1226.7839,-541.6108 1196.183,-534.2211 1183.2742,-529.7385 1181.2577,-528.9679 1180.0999,-529.4559 1168.1488,-533.6499 1159.0317,-536.5212 1158.4897,-536.6527 1149.4932,-538.5191 1140.1379,-540.1258 1136.1295,-540.527 1125.4901,-541.213 1122.9231,-541.2866 1116.876,-541.6776 1105.5714,-542.8157 1093.3925,-544.9153 1089.8503,-545.7778 1075.0352,-550.462 1064.3567,-554.6019 1034.6082,-568.2545 1012.3541,-503.6516 1008.2814,-486.2357 1003.7866,-460.78 973.1529,-371.8509 974.2548,-370.2013 966.7679,-341.0964 958.8158,-305.8456 957.6292,-299.6497 956.1465,-293.1304 955.6356,-290.4773 962.2702,-281.9218 965.626,-277.8553 968.3953,-274.7089 988.6709,-254.5311 1039.8304,-191.4523 1039.8275,-191.4333 1039.6316,-189.5912 1039.2638,-164.9404 1033.3064,-108.4793 1098.129,-53.2838 1119.1865,-34.5103 1119.7195,-34.077 1130.2937,-24.7738 1144.2263,-11.0979 1151.2183,-3.7639 1153.849,-.9154 "/>
<polyline fill="none" stroke="#000000" points="955.6356,-290.4773 962.2702,-281.9218 965.626,-277.8553 968.3953,-274.7089 988.6709,-254.5311 1039.8304,-191.4523 1039.8275,-191.4333 1039.6316,-189.5912 1039.2638,-164.9404 1033.3064,-108.4793 1098.129,-53.2838 1119.1865,-34.5103 1119.7195,-34.077 1130.2937,-24.7738 1144.2263,-11.0979 1151.2183,-3.7639 1153.849,-.9154 1162.7279,9.3204 1167.1573,14.5812 1160.0172,23.4008 1158.7495,25.0235 1153.9783,29.0637 1063.6233,96.6754 986.7723,130.5814 986.1898,130.8651 975.9457,127.5082 961.7302,123.1518 952.4549,120.9048 950.9502,120.5723 937.9431,117.9746 936.6558,117.7725 917.6466,115.192 902.4951,114.107 850.2343,94.7219 786.136,43.3689 758.8239,40.7645 735.7189,32.2566 717.9725,30.7449 706.6996,29.9956 696.2294,29.6926 691.8191,29.7304 682.9619,29.9726 670.1443,30.8044 667.4142,31.0327 663.4474,30.6334 628.3577,29.0712 556.7533,-12.733 504.1477,-64.5978 513.3213,-76.1144 526.1691,-91.0854 532.3316,-97.977 532.5786,-98.2416 564.2177,-135.6064 587.3369,-164.7857 580.6393,-219.6534 580.0776,-228.6242 578.9807,-237.4467 578.9611,-245.8821 578.2488,-257.2369 573.2996,-297.7813 631.1945,-345.1378 634.2083,-347.4401 635.5219,-348.4996 644.05,-355.7535 645.6131,-357.1498 657.7342,-369.0694 667.8585,-379.9225 675.5885,-388.5439 675.6991,-388.6768 680.4924,-393.9416 685.5848,-416.7404 805.3707,-405.5223 812.5229,-405.3125 821.7974,-405.3391 822.6284,-405.2911 823.9727,-405.1724 831.9221,-404.728 833.8555,-404.7446 837.4268,-404.8904 839.3302,-404.8528 846.5906,-405.1783 854.4105,-405.291 857.0936,-405.085 864.9234,-404.9902 868.5095,-405.0624 877.6055,-404.6943 886.0442,-403.8412 901.7039,-401.3061 903.455,-400.9174 913.225,-398.4514 916.5059,-397.4247 929.6903,-392.8938 949.2853,-384.3694 973.1529,-371.8509 974.2548,-370.2013 966.7679,-341.0964 958.8158,-305.8456 957.6292,-299.6497 956.1465,-293.1304 955.6356,-290.4773 "/>
<polyline fill="none" stroke="#000000" points="1826.2559,-379.4944 1810.1687,-383.4506 1797.9382,-387.2467 1795.1874,-388.1593 1721.3013,-414.2598 1650.6454,-373.5444 1623.8746,-394.9864 1609.9872,-405.759 1604.04,-410.2154 1593.4625,-417.5875 1581.584,-425.5507 1577.0151,-428.2466 1556.6792,-439.1963 1550.1118,-442.2065 1545.4802,-444.2076 1535.5636,-448.2319 1531.1554,-449.903 1530.9146,-449.9879 1467.8709,-470.5572 1453.973,-475.4691 1445.8755,-478.5449 1440.7828,-480.6122 1426.6938,-487.8448 1425.6853,-488.3895 1414.2823,-475.1099 1413.6932,-474.4554 1410.7032,-471.2865 1408.598,-468.9237 1404.2429,-464.4969 1402.6504,-462.7762 1392.3918,-452.261 1381.8113,-442.6249 1380.9707,-441.7964 1307.3286,-373.9359 1307.2159,-373.8247 1312.41,-357.9491 1312.894,-356.2237 1316.7355,-335.9811 1323.1104,-309.2272 1327.3472,-294.2939 1347.7057,-232.0687 1362.4893,-230.0266 1367.8929,-229.6453 1374.2073,-229.3411 1377.8671,-229.3288 1391.764,-228.9828 1401.5724,-228.3162 1419.1016,-226.3694 1420.0806,-226.2398 1427.8501,-224.8781 1442.6379,-221.3277 1459.2426,-216.6251 1520.1847,-195.4617 1612.351,-247.9579 1644.1893,-217.6333 1739.0983,-119.6057 1787.7561,-92.8995 1788.0397,-92.737 1807.854,-90.0961 1817.1481,-88.1654 1823.1323,-89.2599 1830.2817,-90.4348 1832.7981,-90.8016 1853.1915,-93.0201 1856.4,-93.2497 1868.8954,-93.4513 1875.6853,-93.4351 1879.9043,-93.3471 1938.3091,-104.598 1995.0767,-205.5783 1997.9691,-220.8956 1998.0802,-221.4127 1996.9695,-232.6363 1993.7636,-276.1866 1989.8529,-358.0706 1947.4253,-373.1348 1884.2634,-373.6938 1859.4514,-374.4489 1855.166,-374.8556 1841.178,-376.7884 1826.2559,-379.4944 "/>
<polyline fill="none" stroke="#000000" points="1034.005,-747.3055 1026.8091,-749.4771 1025.7537,-749.8445 1024.2064,-748.6942 1012.5308,-740.7612 964.2383,-714.4265 950.356,-704.9925 944.5932,-700.717 943.4549,-699.8026 939.5519,-696.1478 928.4815,-685.0042 928.229,-684.7851 923.6618,-680.5662 913.7519,-670.2596 914.6934,-668.6064 946.443,-608.5115 951.9876,-598.8456 952.715,-598.5746 1005.2728,-580.6186 1021.7263,-574.475 1032.5767,-569.7583 1034.17,-568.9685 1041.1022,-579.8585 1054.7147,-597.756 1061.3134,-605.2852 1065.3197,-610.3099 1067.5133,-612.8363 1069.7174,-615.1614 1070.2767,-615.8198 1080.9158,-627.2291 1081.6227,-627.904 1092.3492,-636.9998 1125.2653,-670.4745 1128.8494,-674.6229 1133.71,-679.5209 1136.1941,-682.3031 1138.8032,-684.6113 1147.2179,-692.8031 1132.1206,-733.4654 1124.9619,-736.4139 1117.2789,-738.8435 1112.7776,-740.052 1105.8615,-741.5796 1099.415,-742.6946 1089.4091,-743.4714 1079.3407,-743.2922 1079.032,-743.3298 1067.21,-743.6376 1065.1493,-743.5925 1062.4265,-743.4026 1051.4365,-744.1684 1045.968,-744.8029 1034.005,-747.3055 "/>
<!-- apr&#45;&gt;Fedora Container Base -->
<g id="edge1" class="edge">
<title>apr&#45;&gt;Fedora Container Base</title>
<path fill="none" stroke="#444444" stroke-opacity="0.333333" d="M581.5073,-510.7694C623.7981,-508.9508 687.227,-506.2232 745.1973,-503.7304"/>
<polygon fill="#444444" fill-opacity="0.333333" stroke="#444444" stroke-opacity="0.333333" points="745.358,-507.2268 755.1983,-503.3003 745.0572,-500.2333 745.358,-507.2268"/>
</g>
<!-- apr&#45;util&#45;&gt;Fedora Container Base -->
<g id="edge2" class="edge">
<title>apr&#45;util&#45;&gt;Fedora Container Base</title>
<path fill="none" stroke="#444444" stroke-opacity="0.333333" d="M553.6788,-618.3209C624.6921,-592.4855 754.5794,-545.2311 828.9465,-518.1756"/>
<polygon fill="#444444" fill-opacity="0.333333" stroke="#444444" stroke-opacity="0.333333" points="830.4164,-521.3653 838.6172,-514.6573 828.0231,-514.7872 830.4164,-521.3653"/>
</g>
<!-- apr&#45;util&#45;&gt;apr -->
<g id="edge3" class="edge">
<title>apr&#45;util&#45;&gt;apr</title>
<path fill="none" stroke="#444444" stroke-opacity="0.333333" d="M508.1094,-618.2224C512.8971,-597.8661 520.7022,-564.68 526.2735,-540.9922"/>
<polygon fill="#444444" fill-opacity="0.333333" stroke="#444444" stroke-opacity="0.333333" points="529.7005,-541.7082 528.583,-531.1724 522.8864,-540.1055 529.7005,-541.7082"/>
</g>
<!-- apr&#45;util&#45;&gt;apr&#45;util&#45;bdb -->
<g id="edge4" class="edge">
<title>apr&#45;util&#45;&gt;apr&#45;util&#45;bdb</title>
<path fill="none" stroke="#444444" stroke-dasharray="5,2" stroke-opacity="0.333333" d="M495.4683,-654.6643C488.7575,-677.9281 480.9219,-718.4255 477.6911,-745.6749"/>
<polygon fill="#444444" fill-opacity="0.333333" stroke="#444444" stroke-opacity="0.333333" points="474.1958,-745.4508 476.6613,-755.7548 481.1596,-746.1623 474.1958,-745.4508"/>
</g>
<!-- apr&#45;util&#45;&gt;apr&#45;util&#45;openssl -->
<g id="edge5" class="edge">
<title>apr&#45;util&#45;&gt;apr&#45;util&#45;openssl</title>
<path fill="none" stroke="#444444" stroke-dasharray="5,2" stroke-opacity="0.333333" d="M506.1025,-654.6694C515.1532,-690.24 542.8109,-769.047 560.6343,-811.0455"/>
<polygon fill="#444444" fill-opacity="0.333333" stroke="#444444" stroke-opacity="0.333333" points="557.5076,-812.6314 564.7167,-820.3954 563.9228,-809.8304 557.5076,-812.6314"/>
</g>
<!-- apr&#45;util&#45;bdb&#45;&gt;Fedora Container Base -->
<g id="edge80" class="edge">
<title>apr&#45;util&#45;bdb&#45;&gt;Fedora Container Base</title>
<path fill="none" stroke="#444444" stroke-opacity="0.333333" d="M504.7175,-755.7037C575.9321,-707.4152 770.308,-575.6148 850.2002,-521.4423"/>
<polygon fill="#444444" fill-opacity="0.333333" stroke="#444444" stroke-opacity="0.333333" points="852.601,-524.0432 858.9135,-515.5341 848.6725,-518.2495 852.601,-524.0432"/>
</g>
<!-- apr&#45;util&#45;bdb&#45;&gt;apr&#45;util -->
<g id="edge81" class="edge">
<title>apr&#45;util&#45;bdb&#45;&gt;apr&#45;util</title>
<path fill="none" stroke="#444444" stroke-opacity="0.333333" d="M486.3517,-755.6157C493.0625,-732.3519 500.8981,-691.8545 504.1289,-664.6051"/>
<polygon fill="#444444" fill-opacity="0.333333" stroke="#444444" stroke-opacity="0.333333" points="507.6242,-664.8292 505.1587,-654.5252 500.6604,-664.1177 507.6242,-664.8292"/>
</g>
<!-- apr&#45;util&#45;openssl&#45;&gt;Fedora Container Base -->
<g id="edge82" class="edge">
<title>apr&#45;util&#45;openssl&#45;&gt;Fedora Container Base</title>
<path fill="none" stroke="#444444" stroke-opacity="0.333333" d="M592.2928,-820.2912C644.0619,-763.2774 802.353,-588.9501 862.0705,-523.1827"/>
<polygon fill="#444444" fill-opacity="0.333333" stroke="#444444" stroke-opacity="0.333333" points="864.7194,-525.4719 868.8506,-515.7157 859.5371,-520.7663 864.7194,-525.4719"/>
</g>
<!-- apr&#45;util&#45;openssl&#45;&gt;apr&#45;util -->
<g id="edge83" class="edge">
<title>apr&#45;util&#45;openssl&#45;&gt;apr&#45;util</title>
<path fill="none" stroke="#444444" stroke-opacity="0.333333" d="M573.3675,-820.4106C564.3168,-784.84 536.6591,-706.033 518.8357,-664.0345"/>
<polygon fill="#444444" fill-opacity="0.333333" stroke="#444444" stroke-opacity="0.333333" points="521.9624,-662.4486 514.7533,-654.6846 515.5472,-665.2496 521.9624,-662.4486"/>
</g>
<!-- device&#45;mapper&#45;libs&#45;&gt;Fedora Container Base -->
<g id="edge6" class="edge">
<title>device&#45;mapper&#45;libs&#45;&gt;Fedora Container Base</title>
<path fill="none" stroke="#444444" stroke-opacity="0.333333" d="M761.5133,-785.6446C783.6718,-734.061 846.902,-586.8654 873.3466,-525.3038"/>
<polygon fill="#444444" fill-opacity="0.333333" stroke="#444444" stroke-opacity="0.333333" points="876.6766,-526.4195 877.4077,-515.8499 870.2449,-523.6566 876.6766,-526.4195"/>
</g>
<!-- device&#45;mapper&#45;libs&#45;&gt;device&#45;mapper -->
<g id="edge7" class="edge">
<title>device&#45;mapper&#45;libs&#45;&gt;device&#45;mapper</title>
<path fill="none" stroke="#444444" stroke-opacity="0.333333" d="M763.2497,-785.7662C778.293,-747.2245 805.3308,-656.9244 815.8671,-610.7591"/>
<polygon fill="#444444" fill-opacity="0.333333" stroke="#444444" stroke-opacity="0.333333" points="819.3237,-611.3334 818.0154,-600.8196 812.4817,-609.8545 819.3237,-611.3334"/>
</g>
<!-- device&#45;mapper&#45;&gt;Fedora Container Base -->
<g id="edge38" class="edge">
<title>device&#45;mapper&#45;&gt;Fedora Container Base</title>
<path fill="none" stroke="#444444" stroke-opacity="0.333333" d="M833.7246,-564.1175C842.832,-552.3682 854.7807,-536.9534 864.8733,-523.9331"/>
<polygon fill="#444444" fill-opacity="0.333333" stroke="#444444" stroke-opacity="0.333333" points="867.8289,-525.8331 871.1891,-515.7852 862.2963,-521.5446 867.8289,-525.8331"/>
</g>
<!-- device&#45;mapper&#45;&gt;device&#45;mapper&#45;libs -->
<g id="edge39" class="edge">
<title>device&#45;mapper&#45;&gt;device&#45;mapper&#45;libs</title>
<path fill="none" stroke="#444444" stroke-opacity="0.333333" d="M809.8903,-600.6338C794.847,-639.1755 767.8092,-729.4756 757.2729,-775.6409"/>
<polygon fill="#444444" fill-opacity="0.333333" stroke="#444444" stroke-opacity="0.333333" points="753.8163,-775.0666 755.1246,-785.5804 760.6583,-776.5455 753.8163,-775.0666"/>
</g>
<!-- device&#45;mapper&#45;&gt;systemd -->
<g id="edge40" class="edge">
<title>device&#45;mapper&#45;&gt;systemd</title>
<path fill="none" stroke="#444444" stroke-opacity="0.333333" d="M859.8785,-564.4257C908.2114,-542.7885 989.1156,-506.5699 1041.3535,-483.1844"/>
<polygon fill="#444444" fill-opacity="0.333333" stroke="#444444" stroke-opacity="0.333333" points="1043.0626,-486.2541 1050.7596,-478.9736 1040.2023,-479.8651 1043.0626,-486.2541"/>
</g>
<!-- device&#45;mapper&#45;&gt;util&#45;linux -->
<g id="edge41" class="edge">
<title>device&#45;mapper&#45;&gt;util&#45;linux</title>
<path fill="none" stroke="#444444" stroke-opacity="0.333333" d="M820.407,-564.3927C822.8151,-518.299 829.1862,-396.3496 832.0857,-340.8501"/>
<polygon fill="#444444" fill-opacity="0.333333" stroke="#444444" stroke-opacity="0.333333" points="835.5905,-340.8474 832.6171,-330.6784 828.6,-340.4822 835.5905,-340.8474"/>
</g>
<!-- libargon2&#45;&gt;Fedora Container Base -->
<g id="edge8" class="edge">
<title>libargon2&#45;&gt;Fedora Container Base</title>
<path fill="none" stroke="#444444" stroke-opacity="0.333333" d="M830.7996,-939.9753C839.4757,-869.4397 871.1392,-612.0219 881.7258,-525.9542"/>
<polygon fill="#444444" fill-opacity="0.333333" stroke="#444444" stroke-opacity="0.333333" points="885.218,-526.2318 882.9651,-515.8793 878.2704,-525.3772 885.218,-526.2318"/>
</g>
<!-- dbus&#45;broker&#45;&gt;Fedora Container Base -->
<g id="edge9" class="edge">
<title>dbus&#45;broker&#45;&gt;Fedora Container Base</title>
<path fill="none" stroke="#444444" stroke-opacity="0.333333" d="M1128.0236,-194.4636C1084.665,-248.6112 956.3924,-408.8024 905.9285,-471.8235"/>
<polygon fill="#444444" fill-opacity="0.333333" stroke="#444444" stroke-opacity="0.333333" points="903.1351,-469.7125 899.6166,-479.7061 908.5992,-474.0879 903.1351,-469.7125"/>
</g>
<!-- dbus&#45;broker&#45;&gt;dbus&#45;common -->
<g id="edge10" class="edge">
<title>dbus&#45;broker&#45;&gt;dbus&#45;common</title>
<path fill="none" stroke="#444444" stroke-opacity="0.333333" d="M1130.7009,-194.487C1122.2528,-207.4279 1110.7734,-225.0121 1101.2862,-239.5447"/>
<polygon fill="#444444" fill-opacity="0.333333" stroke="#444444" stroke-opacity="0.333333" points="1098.2171,-237.8432 1095.6814,-248.1301 1104.0787,-241.6698 1098.2171,-237.8432"/>
</g>
<!-- dbus&#45;broker&#45;&gt;shadow&#45;utils -->
<g id="edge11" class="edge">
<title>dbus&#45;broker&#45;&gt;shadow&#45;utils</title>
<path fill="none" stroke="#444444" stroke-opacity="0.333333" d="M1068.8586,-181.316C1053.0927,-182.397 1036.3543,-183.5446 1020.3259,-184.6436"/>
<polygon fill="#444444" fill-opacity="0.333333" stroke="#444444" stroke-opacity="0.333333" points="1019.6499,-181.1816 1009.9128,-185.3575 1020.1288,-188.1652 1019.6499,-181.1816"/>
</g>
<!-- dbus&#45;broker&#45;&gt;systemd -->
<g id="edge12" class="edge">
<title>dbus&#45;broker&#45;&gt;systemd</title>
<path fill="none" stroke="#444444" stroke-opacity="0.333333" d="M1139.3193,-194.4908C1130.6134,-242.8698 1106.8802,-374.7561 1096.4412,-432.7658"/>
<polygon fill="#444444" fill-opacity="0.333333" stroke="#444444" stroke-opacity="0.333333" points="1092.9798,-432.2392 1094.6534,-442.701 1099.8692,-433.479 1092.9798,-432.2392"/>
</g>
<!-- dbus&#45;common&#45;&gt;Fedora Container Base -->
<g id="edge13" class="edge">
<title>dbus&#45;common&#45;&gt;Fedora Container Base</title>
<path fill="none" stroke="#444444" stroke-opacity="0.333333" d="M1068.2162,-284.486C1033.1212,-325.3736 947.8031,-424.7739 907.2768,-471.9893"/>
<polygon fill="#444444" fill-opacity="0.333333" stroke="#444444" stroke-opacity="0.333333" points="904.5687,-469.7706 900.7114,-479.6383 909.8804,-474.3298 904.5687,-469.7706"/>
</g>
<!-- dbus&#45;common&#45;&gt;dbus&#45;common -->
<g id="edge14" class="edge">
<title>dbus&#45;common&#45;&gt;dbus&#45;common</title>
<path fill="none" stroke="#444444" stroke-opacity="0.333333" d="M1161.3655,-272.3533C1172.115,-271.3612 1179.3,-269.3534 1179.3,-266.33 1179.3,-264.3931 1176.3513,-262.8731 1171.4057,-261.7698"/>
<polygon fill="#444444" fill-opacity="0.333333" stroke="#444444" stroke-opacity="0.333333" points="1171.7657,-258.2854 1161.3655,-260.3067 1170.7562,-265.2123 1171.7657,-258.2854"/>
</g>
<!-- dbus&#45;common&#45;&gt;systemd -->
<g id="edge15" class="edge">
<title>dbus&#45;common&#45;&gt;systemd</title>
<path fill="none" stroke="#444444" stroke-opacity="0.333333" d="M1084.515,-284.6234C1085.8481,-318.7306 1088.7208,-392.2311 1090.3016,-432.6774"/>
<polygon fill="#444444" fill-opacity="0.333333" stroke="#444444" stroke-opacity="0.333333" points="1086.8045,-432.8212 1090.6924,-442.6769 1093.7991,-432.5478 1086.8045,-432.8212"/>
</g>
<!-- shadow&#45;utils&#45;&gt;Fedora Container Base -->
<g id="edge16" class="edge">
<title>shadow&#45;utils&#45;&gt;Fedora Container Base</title>
<path fill="none" stroke="#444444" stroke-opacity="0.333333" d="M935.9273,-208.5246C926.8583,-260.2255 901.014,-407.5581 890.1287,-469.6128"/>
<polygon fill="#444444" fill-opacity="0.333333" stroke="#444444" stroke-opacity="0.333333" points="886.6763,-469.037 888.3958,-479.4913 893.571,-470.2465 886.6763,-469.037"/>
</g>
<!-- shadow&#45;utils&#45;&gt;shadow&#45;utils -->
<g id="edge17" class="edge">
<title>shadow&#45;utils&#45;&gt;shadow&#45;utils</title>
<path fill="none" stroke="#444444" stroke-opacity="0.333333" d="M1009.9656,-196.3334C1020.509,-195.38 1027.64,-193.3389 1027.64,-190.21 1027.64,-188.2544 1024.8544,-186.7238 1020.1912,-185.618"/>
<polygon fill="#444444" fill-opacity="0.333333" stroke="#444444" stroke-opacity="0.333333" points="1020.3738,-182.1064 1009.9656,-184.0866 1019.3369,-189.0292 1020.3738,-182.1064"/>
</g>
<!-- shadow&#45;utils&#45;&gt;libsemanage -->
<g id="edge18" class="edge">
<title>shadow&#45;utils&#45;&gt;libsemanage</title>
<path fill="none" stroke="#444444" stroke-opacity="0.333333" d="M940.2996,-172.106C942.2194,-142.1324 946.0724,-81.9752 948.3553,-46.3335"/>
<polygon fill="#444444" fill-opacity="0.333333" stroke="#444444" stroke-opacity="0.333333" points="951.863,-46.3231 949.0094,-36.1198 944.8773,-45.8756 951.863,-46.3231"/>
</g>
<!-- systemd&#45;&gt;Fedora Container Base -->
<g id="edge19" class="edge">
<title>systemd&#45;&gt;Fedora Container Base</title>
<path fill="none" stroke="#444444" stroke-opacity="0.333333" d="M1029.8125,-471.8102C1012.9907,-474.8229 994.3989,-478.1527 976.3066,-481.393"/>
<polygon fill="#444444" fill-opacity="0.333333" stroke="#444444" stroke-opacity="0.333333" points="975.5474,-477.9732 966.3211,-483.1814 976.7815,-484.8635 975.5474,-477.9732"/>
</g>
<!-- systemd&#45;&gt;shadow&#45;utils -->
<g id="edge20" class="edge">
<title>systemd&#45;&gt;shadow&#45;utils</title>
<path fill="none" stroke="#444444" stroke-opacity="0.333333" d="M1081.1734,-442.607C1054.9527,-396.0121 985.2213,-272.0976 954.2857,-217.1242"/>
<polygon fill="#444444" fill-opacity="0.333333" stroke="#444444" stroke-opacity="0.333333" points="957.2766,-215.3023 949.3221,-208.3039 951.1762,-218.7353 957.2766,-215.3023"/>
</g>
<!-- systemd&#45;&gt;systemd -->
<g id="edge21" class="edge">
<title>systemd&#45;&gt;systemd</title>
<path fill="none" stroke="#444444" stroke-opacity="0.333333" d="M1153.0667,-467.0813C1163.6013,-466.2203 1170.9,-464.1198 1170.9,-460.78 1170.9,-458.6404 1167.9046,-457.0095 1162.982,-455.8872"/>
<polygon fill="#444444" fill-opacity="0.333333" stroke="#444444" stroke-opacity="0.333333" points="1163.4596,-452.42 1153.0667,-454.4787 1162.4751,-459.3504 1163.4596,-452.42"/>
</g>
<!-- systemd&#45;&gt;util&#45;linux -->
<g id="edge22" class="edge">
<title>systemd&#45;&gt;util&#45;linux</title>
<path fill="none" stroke="#444444" stroke-opacity="0.333333" d="M1060.0415,-442.762C1013.3236,-415.9188 925.4423,-365.4238 873.965,-335.8459"/>
<polygon fill="#444444" fill-opacity="0.333333" stroke="#444444" stroke-opacity="0.333333" points="875.5175,-332.7014 865.1032,-330.7541 872.0301,-338.7709 875.5175,-332.7014"/>
</g>
<!-- systemd&#45;&gt;iptables&#45;libs -->
<g id="edge23" class="edge">
<title>systemd&#45;&gt;iptables&#45;libs</title>
<path fill="none" stroke="#444444" stroke-opacity="0.333333" d="M1091.8084,-478.9162C1093.0848,-535.6037 1097.0066,-709.7686 1098.5583,-778.6828"/>
<polygon fill="#444444" fill-opacity="0.333333" stroke="#444444" stroke-opacity="0.333333" points="1095.0619,-778.8867 1098.7863,-788.8054 1102.0602,-778.7291 1095.0619,-778.8867"/>
</g>
<!-- systemd&#45;&gt;acl -->
<g id="edge24" class="edge">
<title>systemd&#45;&gt;acl</title>
<path fill="none" stroke="#444444" stroke-opacity="0.333333" d="M1108.1008,-442.7758C1132.0969,-416.9068 1176.449,-369.0932 1203.8496,-339.554"/>
<polygon fill="#444444" fill-opacity="0.333333" stroke="#444444" stroke-opacity="0.333333" points="1206.5279,-341.8133 1210.7626,-332.1015 1201.3958,-337.0527 1206.5279,-341.8133"/>
</g>
<!-- systemd&#45;&gt;cryptsetup&#45;libs -->
<g id="edge25" class="edge">
<title>systemd&#45;&gt;cryptsetup&#45;libs</title>
<path fill="none" stroke="#444444" stroke-opacity="0.333333" d="M1081.9784,-479.0529C1054.7106,-531.9376 975.6079,-685.3539 943.2483,-748.1139"/>
<polygon fill="#444444" fill-opacity="0.333333" stroke="#444444" stroke-opacity="0.333333" points="940.1196,-746.5446 938.6477,-757.0367 946.3413,-749.7526 940.1196,-746.5446"/>
</g>
<!-- systemd&#45;&gt;dbus -->
<g id="edge26" class="edge">
<title>systemd&#45;&gt;dbus</title>
<path fill="none" stroke="#444444" stroke-opacity="0.333333" d="M1105.1045,-442.4856C1149.3401,-383.4346 1288.4626,-197.7172 1340.4456,-128.324"/>
<polygon fill="#444444" fill-opacity="0.333333" stroke="#444444" stroke-opacity="0.333333" points="1343.4288,-130.1794 1346.6231,-120.0775 1337.8264,-125.9826 1343.4288,-130.1794"/>
</g>
<!-- systemd&#45;&gt;kmod&#45;libs -->
<g id="edge27" class="edge">
<title>systemd&#45;&gt;kmod&#45;libs</title>
<path fill="none" stroke="#444444" stroke-opacity="0.333333" d="M1152.9106,-459.9574C1165.9915,-459.7824 1179.9693,-459.5955 1193.5732,-459.4135"/>
<polygon fill="#444444" fill-opacity="0.333333" stroke="#444444" stroke-opacity="0.333333" points="1193.93,-462.9092 1203.8823,-459.2757 1193.8363,-455.9098 1193.93,-462.9092"/>
</g>
<!-- systemd&#45;&gt;libseccomp -->
<g id="edge28" class="edge">
<title>systemd&#45;&gt;libseccomp</title>
<path fill="none" stroke="#444444" stroke-opacity="0.333333" d="M1121.2855,-478.7976C1162.3583,-503.5598 1236.2886,-548.1315 1281.4721,-575.372"/>
<polygon fill="#444444" fill-opacity="0.333333" stroke="#444444" stroke-opacity="0.333333" points="1279.7361,-578.4123 1290.1072,-580.578 1283.3503,-572.4174 1279.7361,-578.4123"/>
</g>
<!-- systemd&#45;&gt;qrencode&#45;libs -->
<g id="edge29" class="edge">
<title>systemd&#45;&gt;qrencode&#45;libs</title>
<path fill="none" stroke="#444444" stroke-opacity="0.333333" d="M1099.6434,-478.929C1112.3666,-506.941 1136.8813,-560.9134 1151.8568,-593.8843"/>
<polygon fill="#444444" fill-opacity="0.333333" stroke="#444444" stroke-opacity="0.333333" points="1148.8523,-595.733 1156.1746,-603.3904 1155.2257,-592.8381 1148.8523,-595.733"/>
</g>
<!-- systemd&#45;&gt;systemd&#45;pam -->
<g id="edge30" class="edge">
<title>systemd&#45;&gt;systemd&#45;pam</title>
<path fill="none" stroke="#444444" stroke-opacity="0.333333" d="M1083.6458,-479.0438C1072.4847,-517.2943 1054.4878,-606.0124 1048.4132,-651.6178"/>
<polygon fill="#444444" fill-opacity="0.333333" stroke="#444444" stroke-opacity="0.333333" points="1044.9192,-651.3585 1047.1918,-661.7067 1051.8684,-652.1999 1044.9192,-651.3585"/>
</g>
<!-- systemd&#45;&gt;systemd&#45;rpm&#45;macros -->
<g id="edge31" class="edge">
<title>systemd&#45;&gt;systemd&#45;rpm&#45;macros</title>
<path fill="none" stroke="#444444" stroke-opacity="0.333333" d="M1153.2333,-474.3872C1236.0995,-492.6229 1383.8416,-525.1354 1479.8217,-546.257"/>
<polygon fill="#444444" fill-opacity="0.333333" stroke="#444444" stroke-opacity="0.333333" points="1479.2935,-549.7245 1489.812,-548.4555 1480.798,-542.888 1479.2935,-549.7245"/>
</g>
<!-- systemd&#45;&gt;diffutils -->
<g id="edge32" class="edge">
<title>systemd&#45;&gt;diffutils</title>
<path fill="none" stroke="#444444" stroke-dasharray="5,2" stroke-opacity="0.333333" d="M1100.1724,-479.0374C1123.0732,-526.6992 1184.7636,-655.0907 1211.9395,-711.65"/>
<polygon fill="#444444" fill-opacity="0.333333" stroke="#444444" stroke-opacity="0.333333" points="1208.8096,-713.2177 1216.2953,-720.7154 1215.1191,-710.186 1208.8096,-713.2177"/>
</g>
<!-- systemd&#45;&gt;libxkbcommon -->
<g id="edge33" class="edge">
<title>systemd&#45;&gt;libxkbcommon</title>
<path fill="none" stroke="#444444" stroke-dasharray="5,2" stroke-opacity="0.333333" d="M1149.1777,-442.6698C1206.6727,-424.6483 1294.8594,-397.0065 1355.5573,-377.981"/>
<polygon fill="#444444" fill-opacity="0.333333" stroke="#444444" stroke-opacity="0.333333" points="1356.9335,-381.2176 1365.4289,-374.8868 1354.8398,-374.538 1356.9335,-381.2176"/>
</g>
<!-- libsemanage&#45;&gt;Fedora Container Base -->
<g id="edge65" class="edge">
<title>libsemanage&#45;&gt;Fedora Container Base</title>
<path fill="none" stroke="#444444" stroke-opacity="0.333333" d="M947.7024,-36.2194C937.8231,-109.1641 901.078,-380.4737 889.0432,-469.3335"/>
<polygon fill="#444444" fill-opacity="0.333333" stroke="#444444" stroke-opacity="0.333333" points="885.5439,-469.0931 887.67,-479.4724 892.4806,-470.0326 885.5439,-469.0931"/>
</g>
<!-- libsemanage&#45;&gt;libsemanage -->
<g id="edge66" class="edge">
<title>libsemanage&#45;&gt;libsemanage</title>
<path fill="none" stroke="#444444" stroke-opacity="0.333333" d="M1025.7425,-24.0574C1036.4709,-23.0777 1043.67,-21.0586 1043.67,-18 1043.67,-16.0406 1040.7155,-14.5078 1035.7713,-13.4015"/>
<polygon fill="#444444" fill-opacity="0.333333" stroke="#444444" stroke-opacity="0.333333" points="1036.1423,-9.9187 1025.7425,-11.9426 1035.1345,-16.8458 1036.1423,-9.9187"/>
</g>
<!-- util&#45;linux&#45;&gt;Fedora Container Base -->
<g id="edge34" class="edge">
<title>util&#45;linux&#45;&gt;Fedora Container Base</title>
<path fill="none" stroke="#444444" stroke-opacity="0.333333" d="M838.6055,-330.7132C847.6294,-363.0555 866.5918,-431.0175 877.3365,-469.5268"/>
<polygon fill="#444444" fill-opacity="0.333333" stroke="#444444" stroke-opacity="0.333333" points="874.0752,-470.8619 880.134,-479.5534 880.8177,-468.9806 874.0752,-470.8619"/>
</g>
<!-- util&#45;linux&#45;&gt;util&#45;linux -->
<g id="edge35" class="edge">
<title>util&#45;linux&#45;&gt;util&#45;linux</title>
<path fill="none" stroke="#444444" stroke-opacity="0.333333" d="M898.2397,-318.8753C908.8015,-317.9813 916.06,-315.8995 916.06,-312.63 916.06,-310.5355 913.0811,-308.9284 908.1632,-307.8087"/>
<polygon fill="#444444" fill-opacity="0.333333" stroke="#444444" stroke-opacity="0.333333" points="908.6355,-304.3407 898.2397,-306.3847 907.6411,-311.2698 908.6355,-304.3407"/>
</g>
<!-- util&#45;linux&#45;&gt;libfdisk -->
<g id="edge36" class="edge">
<title>util&#45;linux&#45;&gt;libfdisk</title>
<path fill="none" stroke="#444444" stroke-opacity="0.333333" d="M820.2808,-294.5295C794.2678,-259.0719 736.5024,-180.3334 706.2187,-139.0545"/>
<polygon fill="#444444" fill-opacity="0.333333" stroke="#444444" stroke-opacity="0.333333" points="708.9322,-136.8363 700.1949,-130.8437 703.2881,-140.9769 708.9322,-136.8363"/>
</g>
<!-- util&#45;linux&#45;&gt;libutempter -->
<g id="edge37" class="edge">
<title>util&#45;linux&#45;&gt;libutempter</title>
<path fill="none" stroke="#444444" stroke-opacity="0.333333" d="M832.6283,-294.4143C830.7563,-257.8159 826.5273,-175.1344 824.2941,-131.4725"/>
<polygon fill="#444444" fill-opacity="0.333333" stroke="#444444" stroke-opacity="0.333333" points="827.7783,-131.0726 823.7719,-121.2645 820.7874,-131.4302 827.7783,-131.0726"/>
</g>
<!-- iptables&#45;libs&#45;&gt;Fedora Container Base -->
<g id="edge61" class="edge">
<title>iptables&#45;libs&#45;&gt;Fedora Container Base</title>
<path fill="none" stroke="#444444" stroke-opacity="0.333333" d="M1086.4542,-788.748C1050.0907,-736.1619 945.7487,-585.2708 903.3947,-524.0217"/>
<polygon fill="#444444" fill-opacity="0.333333" stroke="#444444" stroke-opacity="0.333333" points="906.1774,-521.8921 897.6109,-515.6577 900.4199,-525.8734 906.1774,-521.8921"/>
</g>
<!-- iptables&#45;libs&#45;&gt;iptables&#45;libs -->
<g id="edge62" class="edge">
<title>iptables&#45;libs&#45;&gt;iptables&#45;libs</title>
<path fill="none" stroke="#444444" stroke-opacity="0.333333" d="M1172.7926,-813.2708C1183.492,-812.304 1190.7,-810.2738 1190.7,-807.18 1190.7,-805.1981 1187.7418,-803.6526 1182.8026,-802.5436"/>
<polygon fill="#444444" fill-opacity="0.333333" stroke="#444444" stroke-opacity="0.333333" points="1183.192,-799.0634 1172.7926,-801.0892 1182.1854,-805.9907 1183.192,-799.0634"/>
</g>
<!-- iptables&#45;libs&#45;&gt;libpcap -->
<g id="edge63" class="edge">
<title>iptables&#45;libs&#45;&gt;libpcap</title>
<path fill="none" stroke="#444444" stroke-opacity="0.333333" d="M1091.4648,-825.461C1079.9371,-852.705 1058.1621,-904.167 1044.6567,-936.0847"/>
<polygon fill="#444444" fill-opacity="0.333333" stroke="#444444" stroke-opacity="0.333333" points="1041.2595,-935.132 1040.5859,-945.7054 1047.7061,-937.8598 1041.2595,-935.132"/>
</g>
<!-- acl&#45;&gt;Fedora Container Base -->
<g id="edge67" class="edge">
<title>acl&#45;&gt;Fedora Container Base</title>
<path fill="none" stroke="#444444" stroke-opacity="0.333333" d="M1193.8323,-332.0725C1130.8606,-365.8683 995.6854,-438.4144 927.0425,-475.2538"/>
<polygon fill="#444444" fill-opacity="0.333333" stroke="#444444" stroke-opacity="0.333333" points="925.3678,-472.1804 918.2117,-479.9932 928.6781,-478.3483 925.3678,-472.1804"/>
</g>
<!-- cryptsetup&#45;libs&#45;&gt;Fedora Container Base -->
<g id="edge68" class="edge">
<title>cryptsetup&#45;libs&#45;&gt;Fedora Container Base</title>
<path fill="none" stroke="#444444" stroke-opacity="0.333333" d="M926.313,-757.1426C918.8232,-709.8801 898.7257,-583.0603 889.6987,-526.0976"/>
<polygon fill="#444444" fill-opacity="0.333333" stroke="#444444" stroke-opacity="0.333333" points="893.1197,-525.3234 888.0976,-515.9945 886.206,-526.4191 893.1197,-525.3234"/>
</g>
<!-- cryptsetup&#45;libs&#45;&gt;device&#45;mapper&#45;libs -->
<g id="edge69" class="edge">
<title>cryptsetup&#45;libs&#45;&gt;device&#45;mapper&#45;libs</title>
<path fill="none" stroke="#444444" stroke-opacity="0.333333" d="M851.959,-787.9108C851.867,-787.9257 851.775,-787.9407 851.683,-787.9556"/>
<polygon fill="#444444" fill-opacity="0.333333" stroke="#444444" stroke-opacity="0.333333" points="859.0579,-783.2109 849.7488,-788.2699 860.1809,-790.1203 859.0579,-783.2109"/>
</g>
<!-- cryptsetup&#45;libs&#45;&gt;libargon2 -->
<g id="edge70" class="edge">
<title>cryptsetup&#45;libs&#45;&gt;libargon2</title>
<path fill="none" stroke="#444444" stroke-opacity="0.333333" d="M919.1843,-793.5419C901.4043,-825.8188 864.247,-893.272 843.4644,-930.9998"/>
<polygon fill="#444444" fill-opacity="0.333333" stroke="#444444" stroke-opacity="0.333333" points="840.3146,-929.4639 838.5552,-939.9116 846.4458,-932.8414 840.3146,-929.4639"/>
</g>
<!-- dbus&#45;&gt;dbus&#45;broker -->
<g id="edge71" class="edge">
<title>dbus&#45;&gt;dbus&#45;broker</title>
<path fill="none" stroke="#444444" stroke-opacity="0.333333" d="M1317.5492,-116.4381C1285.5174,-127.391 1241.1949,-142.5466 1205.1776,-154.8623"/>
<polygon fill="#444444" fill-opacity="0.333333" stroke="#444444" stroke-opacity="0.333333" points="1203.5859,-151.7075 1195.2563,-158.2548 1205.8508,-158.331 1203.5859,-151.7075"/>
</g>
<!-- kmod&#45;libs&#45;&gt;Fedora Container Base -->
<g id="edge72" class="edge">
<title>kmod&#45;libs&#45;&gt;Fedora Container Base</title>
<path fill="none" stroke="#444444" stroke-opacity="0.333333" d="M1203.8521,-465.2675C1148.5753,-470.8953 1069.1599,-478.9808 1003.4403,-485.6718"/>
<polygon fill="#444444" fill-opacity="0.333333" stroke="#444444" stroke-opacity="0.333333" points="1003.0266,-482.1957 993.4326,-486.6907 1003.7357,-489.1597 1003.0266,-482.1957"/>
</g>
<!-- libseccomp&#45;&gt;Fedora Container Base -->
<g id="edge73" class="edge">
<title>libseccomp&#45;&gt;Fedora Container Base</title>
<path fill="none" stroke="#444444" stroke-opacity="0.333333" d="M1248.2016,-581.9401C1169.5566,-563.6915 1043.8638,-534.526 962.9398,-515.7486"/>
<polygon fill="#444444" fill-opacity="0.333333" stroke="#444444" stroke-opacity="0.333333" points="963.3417,-512.2489 952.8094,-513.3979 961.7594,-519.0677 963.3417,-512.2489"/>
</g>
<!-- qrencode&#45;libs&#45;&gt;Fedora Container Base -->
<g id="edge74" class="edge">
<title>qrencode&#45;libs&#45;&gt;Fedora Container Base</title>
<path fill="none" stroke="#444444" stroke-opacity="0.333333" d="M1123.8874,-603.6879C1073.5052,-581.318 987.6901,-543.2159 933.8463,-519.3091"/>
<polygon fill="#444444" fill-opacity="0.333333" stroke="#444444" stroke-opacity="0.333333" points="935.068,-516.0221 924.508,-515.1629 932.2273,-522.4198 935.068,-516.0221"/>
</g>
<!-- systemd&#45;pam&#45;&gt;Fedora Container Base -->
<g id="edge75" class="edge">
<title>systemd&#45;pam&#45;&gt;Fedora Container Base</title>
<path fill="none" stroke="#444444" stroke-opacity="0.333333" d="M1031.3447,-661.6658C1002.4225,-629.2187 941.7128,-561.1102 908.3619,-523.6947"/>
<polygon fill="#444444" fill-opacity="0.333333" stroke="#444444" stroke-opacity="0.333333" points="910.5567,-520.8969 901.29,-515.7609 905.3312,-525.5547 910.5567,-520.8969"/>
</g>
<!-- systemd&#45;pam&#45;&gt;systemd -->
<g id="edge76" class="edge">
<title>systemd&#45;pam&#45;&gt;systemd</title>
<path fill="none" stroke="#444444" stroke-opacity="0.333333" d="M1055.2542,-661.5262C1066.4153,-623.2757 1084.4122,-534.5576 1090.4868,-488.9522"/>
<polygon fill="#444444" fill-opacity="0.333333" stroke="#444444" stroke-opacity="0.333333" points="1093.9808,-489.2115 1091.7082,-478.8633 1087.0316,-488.3701 1093.9808,-489.2115"/>
</g>
<!-- diffutils&#45;&gt;Fedora Container Base -->
<g id="edge84" class="edge">
<title>diffutils&#45;&gt;Fedora Container Base</title>
<path fill="none" stroke="#444444" stroke-opacity="0.333333" d="M1199.5523,-720.901C1138.9967,-677.9064 986.7412,-569.8046 918.819,-521.5796"/>
<polygon fill="#444444" fill-opacity="0.333333" stroke="#444444" stroke-opacity="0.333333" points="920.7606,-518.6657 910.5805,-515.7303 916.7081,-524.3734 920.7606,-518.6657"/>
</g>
<!-- libxkbcommon&#45;&gt;Fedora Container Base -->
<g id="edge85" class="edge">
<title>libxkbcommon&#45;&gt;Fedora Container Base</title>
<path fill="none" stroke="#444444" stroke-opacity="0.333333" d="M1354.1544,-374.8699C1251.7184,-401.7025 1060.2928,-451.8454 956.5079,-479.0313"/>
<polygon fill="#444444" fill-opacity="0.333333" stroke="#444444" stroke-opacity="0.333333" points="955.5304,-475.6692 946.7437,-481.589 957.3042,-482.4407 955.5304,-475.6692"/>
</g>
<!-- libxkbcommon&#45;&gt;xkeyboard&#45;config -->
<g id="edge86" class="edge">
<title>libxkbcommon&#45;&gt;xkeyboard&#45;config</title>
<path fill="none" stroke="#444444" stroke-opacity="0.333333" d="M1488.8063,-338.7352C1562.6274,-318.4281 1682.2355,-285.5257 1759.7233,-264.21"/>
<polygon fill="#444444" fill-opacity="0.333333" stroke="#444444" stroke-opacity="0.333333" points="1760.7143,-267.5675 1769.4278,-261.5404 1758.8576,-260.8182 1760.7143,-267.5675"/>
</g>
<!-- libfdisk&#45;&gt;Fedora Container Base -->
<g id="edge77" class="edge">
<title>libfdisk&#45;&gt;Fedora Container Base</title>
<path fill="none" stroke="#444444" stroke-opacity="0.333333" d="M696.1413,-130.6962C728.0283,-192.5976 833.054,-396.4806 871.1982,-470.5288"/>
<polygon fill="#444444" fill-opacity="0.333333" stroke="#444444" stroke-opacity="0.333333" points="868.228,-472.4058 875.9189,-479.6928 874.4509,-469.2002 868.228,-472.4058"/>
</g>
<!-- libutempter&#45;&gt;Fedora Container Base -->
<g id="edge78" class="edge">
<title>libutempter&#45;&gt;Fedora Container Base</title>
<path fill="none" stroke="#444444" stroke-opacity="0.333333" d="M825.7322,-121.475C835.6849,-184.4426 868.657,-393.0472 880.7248,-469.3965"/>
<polygon fill="#444444" fill-opacity="0.333333" stroke="#444444" stroke-opacity="0.333333" points="877.33,-470.3375 882.3483,-479.6684 884.2441,-469.2446 877.33,-470.3375"/>
</g>
<!-- libutempter&#45;&gt;shadow&#45;utils -->
<g id="edge79" class="edge">
<title>libutempter&#45;&gt;shadow&#45;utils</title>
<path fill="none" stroke="#444444" stroke-opacity="0.333333" d="M846.9454,-121.2602C864.215,-134.1757 887.6719,-151.7185 906.6031,-165.8765"/>
<polygon fill="#444444" fill-opacity="0.333333" stroke="#444444" stroke-opacity="0.333333" points="904.571,-168.7274 914.6754,-171.9136 908.7634,-163.1216 904.571,-168.7274"/>
</g>
<!-- httpd&#45;&gt;Fedora Container Base -->
<g id="edge42" class="edge">
<title>httpd&#45;&gt;Fedora Container Base</title>
<path fill="none" stroke="#444444" stroke-opacity="0.333333" d="M557.2597,-388.9427C628.0876,-412.4341 751.5296,-453.3758 825.0792,-477.7699"/>
<polygon fill="#444444" fill-opacity="0.333333" stroke="#444444" stroke-opacity="0.333333" points="824.0815,-481.1264 834.6749,-480.9524 826.2852,-474.4823 824.0815,-481.1264"/>
</g>
<!-- httpd&#45;&gt;apr -->
<g id="edge43" class="edge">
<title>httpd&#45;&gt;apr</title>
<path fill="none" stroke="#444444" stroke-opacity="0.333333" d="M506.7506,-389.1769C511.8584,-413.3455 520.9142,-456.1947 526.9105,-484.5672"/>
<polygon fill="#444444" fill-opacity="0.333333" stroke="#444444" stroke-opacity="0.333333" points="523.5521,-485.6031 529.0443,-494.6632 530.4008,-484.1556 523.5521,-485.6031"/>
</g>
<!-- httpd&#45;&gt;apr&#45;util -->
<g id="edge44" class="edge">
<title>httpd&#45;&gt;apr&#45;util</title>
<path fill="none" stroke="#444444" stroke-opacity="0.333333" d="M502.9539,-389.1623C503.1136,-434.752 503.5307,-553.8525 503.7218,-608.4191"/>
<polygon fill="#444444" fill-opacity="0.333333" stroke="#444444" stroke-opacity="0.333333" points="500.2218,-608.4434 503.7569,-618.4311 507.2217,-608.4189 500.2218,-608.4434"/>
</g>
<!-- httpd&#45;&gt;systemd -->
<g id="edge45" class="edge">
<title>httpd&#45;&gt;systemd</title>
<path fill="none" stroke="#444444" stroke-opacity="0.333333" d="M578.023,-382.3834C692.0597,-399.7977 907.3912,-432.6804 1019.4866,-449.7983"/>
<polygon fill="#444444" fill-opacity="0.333333" stroke="#444444" stroke-opacity="0.333333" points="1019.2632,-453.3046 1029.6769,-451.3544 1020.3199,-446.3849 1019.2632,-453.3046"/>
</g>
<!-- httpd&#45;&gt;fedora&#45;logos&#45;httpd -->
<g id="edge46" class="edge">
<title>httpd&#45;&gt;fedora&#45;logos&#45;httpd</title>
<path fill="none" stroke="#444444" stroke-opacity="0.333333" d="M473.2957,-352.7328C405.5472,-311.1209 239.2439,-208.9754 163.9191,-162.71"/>
<polygon fill="#444444" fill-opacity="0.333333" stroke="#444444" stroke-opacity="0.333333" points="165.5497,-159.6041 155.1969,-157.3527 161.8861,-165.5689 165.5497,-159.6041"/>
</g>
<!-- httpd&#45;&gt;httpd -->
<g id="edge47" class="edge">
<title>httpd&#45;&gt;httpd</title>
<path fill="none" stroke="#444444" stroke-opacity="0.333333" d="M578.0584,-376.9674C588.7294,-375.9877 595.89,-373.9686 595.89,-370.91 595.89,-368.9506 592.9513,-367.4178 588.0335,-366.3115"/>
<polygon fill="#444444" fill-opacity="0.333333" stroke="#444444" stroke-opacity="0.333333" points="588.4597,-362.8367 578.0584,-364.8526 587.4466,-369.763 588.4597,-362.8367"/>
</g>
<!-- httpd&#45;&gt;httpd&#45;filesystem -->
<g id="edge48" class="edge">
<title>httpd&#45;&gt;httpd&#45;filesystem</title>
<path fill="none" stroke="#444444" stroke-opacity="0.333333" d="M526.7798,-352.6997C555.8769,-330.52 605.1435,-292.9658 637.5323,-268.2769"/>
<polygon fill="#444444" fill-opacity="0.333333" stroke="#444444" stroke-opacity="0.333333" points="639.9534,-270.8324 645.7845,-261.9866 635.7098,-265.2653 639.9534,-270.8324"/>
</g>
<!-- httpd&#45;&gt;httpd&#45;tools -->
<g id="edge49" class="edge">
<title>httpd&#45;&gt;httpd&#45;tools</title>
<path fill="none" stroke="#444444" stroke-opacity="0.333333" d="M491.1774,-389.1926C474.5632,-415.1261 444.0352,-462.7783 424.7684,-492.8524"/>
<polygon fill="#444444" fill-opacity="0.333333" stroke="#444444" stroke-opacity="0.333333" points="421.6258,-491.2696 419.1784,-501.5779 427.52,-495.0457 421.6258,-491.2696"/>
</g>
<!-- httpd&#45;&gt;mailcap -->
<g id="edge50" class="edge">
<title>httpd&#45;&gt;mailcap</title>
<path fill="none" stroke="#444444" stroke-opacity="0.333333" d="M427.6722,-366.3197C343.3204,-361.1721 207.7038,-352.8959 126.29,-347.9275"/>
<polygon fill="#444444" fill-opacity="0.333333" stroke="#444444" stroke-opacity="0.333333" points="126.3442,-344.4244 116.1496,-347.3087 125.9178,-351.4114 126.3442,-344.4244"/>
</g>
<!-- httpd&#45;&gt;mod_http2 -->
<g id="edge51" class="edge">
<title>httpd&#45;&gt;mod_http2</title>
<path fill="none" stroke="#444444" stroke-opacity="0.333333" d="M506.529,-352.704C507.5416,-329.0748 505.3918,-287.594 501.9388,-259.8523"/>
<polygon fill="#444444" fill-opacity="0.333333" stroke="#444444" stroke-opacity="0.333333" points="505.3564,-259.0207 500.4992,-249.6048 498.4245,-259.9946 505.3564,-259.0207"/>
</g>
<!-- httpd&#45;filesystem&#45;&gt;Fedora Container Base -->
<g id="edge52" class="edge">
<title>httpd&#45;filesystem&#45;&gt;Fedora Container Base</title>
<path fill="none" stroke="#444444" stroke-opacity="0.333333" d="M685.1333,-262.0699C722.8878,-306.5374 819.6911,-420.5532 863.3104,-471.9283"/>
<polygon fill="#444444" fill-opacity="0.333333" stroke="#444444" stroke-opacity="0.333333" points="860.6969,-474.2578 869.8372,-479.6156 866.033,-469.7273 860.6969,-474.2578"/>
</g>
<!-- httpd&#45;filesystem&#45;&gt;shadow&#45;utils -->
<g id="edge53" class="edge">
<title>httpd&#45;filesystem&#45;&gt;shadow&#45;utils</title>
<path fill="none" stroke="#444444" stroke-opacity="0.333333" d="M752.691,-227.2909C786.3306,-220.6006 825.0361,-212.9029 858.4329,-206.261"/>
<polygon fill="#444444" fill-opacity="0.333333" stroke="#444444" stroke-opacity="0.333333" points="859.4903,-209.6193 868.6155,-204.2359 858.1248,-202.7538 859.4903,-209.6193"/>
</g>
<!-- httpd&#45;tools&#45;&gt;Fedora Container Base -->
<g id="edge54" class="edge">
<title>httpd&#45;tools&#45;&gt;Fedora Container Base</title>
<path fill="none" stroke="#444444" stroke-opacity="0.333333" d="M477.1063,-516.7555C547.4422,-513.4729 657.9555,-508.3153 746.2478,-504.1948"/>
<polygon fill="#444444" fill-opacity="0.333333" stroke="#444444" stroke-opacity="0.333333" points="746.5275,-507.6857 756.3534,-503.7232 746.2011,-500.6933 746.5275,-507.6857"/>
</g>
<!-- httpd&#45;tools&#45;&gt;apr -->
<g id="edge55" class="edge">
<title>httpd&#45;tools&#45;&gt;apr</title>
<path fill="none" stroke="#444444" stroke-opacity="0.333333" d="M477.1041,-516.0377C477.2522,-516.0293 477.4003,-516.0209 477.5483,-516.0124"/>
<polygon fill="#444444" fill-opacity="0.333333" stroke="#444444" stroke-opacity="0.333333" points="474.3753,-519.699 484.16,-515.6358 473.9771,-512.7103 474.3753,-519.699"/>
</g>
<!-- httpd&#45;tools&#45;&gt;apr&#45;util -->
<g id="edge56" class="edge">
<title>httpd&#45;tools&#45;&gt;apr&#45;util</title>
<path fill="none" stroke="#444444" stroke-opacity="0.333333" d="M422.4403,-538.2053C438.5074,-557.6041 464.091,-588.4927 482.2812,-610.4549"/>
<polygon fill="#444444" fill-opacity="0.333333" stroke="#444444" stroke-opacity="0.333333" points="479.7812,-612.9236 488.8555,-618.3925 485.1723,-608.4584 479.7812,-612.9236"/>
</g>
<!-- mailcap&#45;&gt;mailcap -->
<g id="edge57" class="edge">
<title>mailcap&#45;&gt;mailcap</title>
<path fill="none" stroke="#444444" stroke-opacity="0.333333" d="M116.3117,-350.1141C126.7258,-349.2882 134,-347.1702 134,-343.76 134,-341.6287 131.1585,-340.002 126.4849,-338.8802"/>
<polygon fill="#444444" fill-opacity="0.333333" stroke="#444444" stroke-opacity="0.333333" points="126.7103,-335.3764 116.3117,-337.4059 125.7064,-342.304 126.7103,-335.3764"/>
</g>
<!-- mod_http2&#45;&gt;Fedora Container Base -->
<g id="edge58" class="edge">
<title>mod_http2&#45;&gt;Fedora Container Base</title>
<path fill="none" stroke="#444444" stroke-opacity="0.333333" d="M521.2243,-249.663C589.9876,-296.5247 773.9355,-421.884 850.7511,-474.2333"/>
<polygon fill="#444444" fill-opacity="0.333333" stroke="#444444" stroke-opacity="0.333333" points="848.9077,-477.2125 859.1423,-479.9519 852.8498,-471.428 848.9077,-477.2125"/>
</g>
<!-- mod_http2&#45;&gt;httpd -->
<g id="edge59" class="edge">
<title>mod_http2&#45;&gt;httpd</title>
<path fill="none" stroke="#444444" stroke-opacity="0.333333" d="M491.051,-249.786C490.0384,-273.4152 492.1882,-314.896 495.6412,-342.6377"/>
<polygon fill="#444444" fill-opacity="0.333333" stroke="#444444" stroke-opacity="0.333333" points="492.2236,-343.4693 497.0808,-352.8852 499.1555,-342.4954 492.2236,-343.4693"/>
</g>
<!-- mod_http2&#45;&gt;mod_http2 -->
<g id="edge60" class="edge">
<title>mod_http2&#45;&gt;mod_http2</title>
<path fill="none" stroke="#444444" stroke-opacity="0.333333" d="M564.3627,-237.7351C574.9802,-236.7958 582.19,-234.7441 582.19,-231.58 582.19,-229.553 579.2311,-227.9826 574.3129,-226.8686"/>
<polygon fill="#444444" fill-opacity="0.333333" stroke="#444444" stroke-opacity="0.333333" points="574.7617,-223.3972 564.3627,-225.4249 573.7565,-230.3246 574.7617,-223.3972"/>
</g>
<!-- libpcap&#45;&gt;Fedora Container Base -->
<g id="edge64" class="edge">
<title>libpcap&#45;&gt;Fedora Container Base</title>
<path fill="none" stroke="#444444" stroke-opacity="0.333333" d="M1027.11,-945.596C1004.4055,-873.9376 921.3553,-611.8206 894.0019,-525.4898"/>
<polygon fill="#444444" fill-opacity="0.333333" stroke="#444444" stroke-opacity="0.333333" points="897.307,-524.3335 890.95,-515.8577 890.634,-526.4478 897.307,-524.3335"/>
</g>
<!-- Fedora Container Base -->
<g id="node1" class="node">
<title>Fedora Container Base</title>
<ellipse fill="none" stroke="#000000" cx="885.2" cy="-497.71" rx="136.5" ry="18"/>
<text text-anchor="middle" x="885.2" y="-494.01" font-family="Helvetica,sans-Serif" font-weight="bold" font-size="14.00" fill="#000000">Fedora Container Base (215.7 MB)</text>
</g>
<!-- apr -->
<g id="node2" class="node">
<title>apr</title>
<text text-anchor="middle" x="532.89" y="-509.16" font-family="Helvetica,sans-Serif" font-weight="bold" font-size="14.00" fill="#000000">apr (409.0 kB)</text>
</g>
<!-- apr&#45;util -->
<g id="node3" class="node">
<title>apr&#45;util</title>
<text text-anchor="middle" x="503.82" y="-632.76" font-family="Helvetica,sans-Serif" font-weight="bold" font-size="14.00" fill="#000000">apr&#45;util (296.2 kB)</text>
</g>
<!-- apr&#45;util&#45;bdb -->
<g id="node4" class="node">
<title>apr&#45;util&#45;bdb</title>
<text text-anchor="middle" x="478" y="-770.12" font-family="Helvetica,sans-Serif" font-weight="bold" font-size="14.00" fill="#000000">apr&#45;util&#45;bdb (16.1 kB)</text>
</g>
<!-- apr&#45;util&#45;openssl -->
<g id="node5" class="node">
<title>apr&#45;util&#45;openssl</title>
<text text-anchor="middle" x="575.65" y="-834.92" font-family="Helvetica,sans-Serif" font-weight="bold" font-size="14.00" fill="#000000">apr&#45;util&#45;openssl (24.3 kB)</text>
</g>
<!-- device&#45;mapper&#45;libs -->
<g id="node6" class="node">
<title>device&#45;mapper&#45;libs</title>
<text text-anchor="middle" x="753.68" y="-800.18" font-family="Helvetica,sans-Serif" font-weight="bold" font-size="14.00" fill="#000000">device&#45;mapper&#45;libs (435.2 kB)</text>
</g>
<!-- device&#45;mapper -->
<g id="node7" class="node">
<title>device&#45;mapper</title>
<text text-anchor="middle" x="819.46" y="-578.82" font-family="Helvetica,sans-Serif" font-weight="bold" font-size="14.00" fill="#000000">device&#45;mapper (352.1 kB)</text>
</g>
<!-- libargon2 -->
<g id="node8" class="node">
<title>libargon2</title>
<text text-anchor="middle" x="828.58" y="-954.32" font-family="Helvetica,sans-Serif" font-weight="bold" font-size="14.00" fill="#000000">libargon2 (62.9 kB)</text>
</g>
<!-- dbus&#45;broker -->
<g id="node9" class="node">
<title>dbus&#45;broker</title>
<text text-anchor="middle" x="1142.6" y="-172.56" font-family="Helvetica,sans-Serif" font-weight="bold" font-size="14.00" fill="#000000">dbus&#45;broker (708.1 kB)</text>
</g>
<!-- dbus&#45;common -->
<g id="node10" class="node">
<title>dbus&#45;common</title>
<text text-anchor="middle" x="1083.8" y="-262.63" font-family="Helvetica,sans-Serif" font-weight="bold" font-size="14.00" fill="#000000">dbus&#45;common (11.2 kB)</text>
</g>
<!-- shadow&#45;utils -->
<g id="node11" class="node">
<title>shadow&#45;utils</title>
<text text-anchor="middle" x="939.14" y="-186.51" font-family="Helvetica,sans-Serif" font-weight="bold" font-size="14.00" fill="#000000">shadow&#45;utils (5.0 MB)</text>
</g>
<!-- systemd -->
<g id="node12" class="node">
<title>systemd</title>
<text text-anchor="middle" x="1091.4" y="-457.08" font-family="Helvetica,sans-Serif" font-weight="bold" font-size="14.00" fill="#000000">systemd (11.8 MB)</text>
</g>
<!-- libsemanage -->
<g id="node13" class="node">
<title>libsemanage</title>
<text text-anchor="middle" x="950.17" y="-14.3" font-family="Helvetica,sans-Serif" font-weight="bold" font-size="14.00" fill="#000000">libsemanage (420.5 kB)</text>
</g>
<!-- util&#45;linux -->
<g id="node14" class="node">
<title>util&#45;linux</title>
<text text-anchor="middle" x="833.56" y="-308.93" font-family="Helvetica,sans-Serif" font-weight="bold" font-size="14.00" fill="#000000">util&#45;linux (13.1 MB)</text>
</g>
<!-- iptables&#45;libs -->
<g id="node15" class="node">
<title>iptables&#45;libs</title>
<text text-anchor="middle" x="1099.2" y="-803.48" font-family="Helvetica,sans-Serif" font-weight="bold" font-size="14.00" fill="#000000">iptables&#45;libs (159.3 kB)</text>
</g>
<!-- acl -->
<g id="node16" class="node">
<title>acl</title>
<text text-anchor="middle" x="1227.6" y="-310.25" font-family="Helvetica,sans-Serif" font-weight="bold" font-size="14.00" fill="#000000">acl (239.3 kB)</text>
</g>
<!-- cryptsetup&#45;libs -->
<g id="node17" class="node">
<title>cryptsetup&#45;libs</title>
<text text-anchor="middle" x="929.2" y="-771.66" font-family="Helvetica,sans-Serif" font-weight="bold" font-size="14.00" fill="#000000">cryptsetup&#45;libs (1.9 MB)</text>
</g>
<!-- dbus -->
<g id="node18" class="node">
<title>dbus</title>
<text text-anchor="middle" x="1360.3" y="-98.12" font-family="Helvetica,sans-Serif" font-weight="bold" font-size="14.00" fill="#000000">dbus (0.0 B)</text>
</g>
<!-- kmod&#45;libs -->
<g id="node19" class="node">
<title>kmod&#45;libs</title>
<text text-anchor="middle" x="1271.6" y="-454.67" font-family="Helvetica,sans-Serif" font-weight="bold" font-size="14.00" fill="#000000">kmod&#45;libs (280.7 kB)</text>
</g>
<!-- libseccomp -->
<g id="node20" class="node">
<title>libseccomp</title>
<text text-anchor="middle" x="1320" y="-594.9" font-family="Helvetica,sans-Serif" font-weight="bold" font-size="14.00" fill="#000000">libseccomp (391.9 kB)</text>
</g>
<!-- qrencode&#45;libs -->
<g id="node21" class="node">
<title>qrencode&#45;libs</title>
<text text-anchor="middle" x="1164.5" y="-618.02" font-family="Helvetica,sans-Serif" font-weight="bold" font-size="14.00" fill="#000000">qrencode&#45;libs (150.6 kB)</text>
</g>
<!-- systemd&#45;pam -->
<g id="node22" class="node">
<title>systemd&#45;pam</title>
<text text-anchor="middle" x="1047.5" y="-676.09" font-family="Helvetica,sans-Serif" font-weight="bold" font-size="14.00" fill="#000000">systemd&#45;pam (331.6 kB)</text>
</g>
<!-- systemd&#45;rpm&#45;macros -->
<g id="node23" class="node">
<title>systemd&#45;rpm&#45;macros</title>
<text text-anchor="middle" x="1571.9" y="-562.82" font-family="Helvetica,sans-Serif" font-weight="bold" font-size="14.00" fill="#000000">systemd&#45;rpm&#45;macros (4.0 kB)</text>
</g>
<!-- diffutils -->
<g id="node24" class="node">
<title>diffutils</title>
<text text-anchor="middle" x="1225.1" y="-735.34" font-family="Helvetica,sans-Serif" font-weight="bold" font-size="14.00" fill="#000000">diffutils (1.7 MB)</text>
</g>
<!-- libxkbcommon -->
<g id="node25" class="node">
<title>libxkbcommon</title>
<text text-anchor="middle" x="1423.1" y="-353.11" font-family="Helvetica,sans-Serif" font-weight="bold" font-size="14.00" fill="#000000">libxkbcommon (329.2 kB)</text>
</g>
<!-- libfdisk -->
<g id="node26" class="node">
<title>libfdisk</title>
<text text-anchor="middle" x="686.84" y="-108.94" font-family="Helvetica,sans-Serif" font-weight="bold" font-size="14.00" fill="#000000">libfdisk (579.6 kB)</text>
</g>
<!-- libutempter -->
<g id="node27" class="node">
<title>libutempter</title>
<text text-anchor="middle" x="822.85" y="-99.54" font-family="Helvetica,sans-Serif" font-weight="bold" font-size="14.00" fill="#000000">libutempter (61.4 kB)</text>
</g>
<!-- fedora&#45;logos&#45;httpd -->
<g id="node28" class="node">
<title>fedora&#45;logos&#45;httpd</title>
<text text-anchor="middle" x="125.74" y="-135.56" font-family="Helvetica,sans-Serif" font-weight="bold" font-size="14.00" fill="#000000">fedora&#45;logos&#45;httpd (10.0 kB)</text>
</g>
<!-- httpd -->
<g id="node29" class="node">
<title>httpd</title>
<text text-anchor="middle" x="502.89" y="-365.31" font-family="Helvetica,sans-Serif" font-weight="bold" font-size="22.00" fill="#cc0066">httpd (5.0 MB)</text>
</g>
<!-- httpd&#45;filesystem -->
<g id="node30" class="node">
<title>httpd&#45;filesystem</title>
<text text-anchor="middle" x="669.63" y="-240.11" font-family="Helvetica,sans-Serif" font-weight="bold" font-size="14.00" fill="#000000">httpd&#45;filesystem (400.0 B)</text>
</g>
<!-- httpd&#45;tools -->
<g id="node31" class="node">
<title>httpd&#45;tools</title>
<text text-anchor="middle" x="407.37" y="-516.31" font-family="Helvetica,sans-Serif" font-weight="bold" font-size="14.00" fill="#000000">httpd&#45;tools (228.6 kB)</text>
</g>
<!-- mailcap -->
<g id="node32" class="node">
<title>mailcap</title>
<text text-anchor="middle" x="58" y="-340.06" font-family="Helvetica,sans-Serif" font-weight="bold" font-size="14.00" fill="#000000">mailcap (71.2 kB)</text>
</g>
<!-- mod_http2 -->
<g id="node33" class="node">
<title>mod_http2</title>
<text text-anchor="middle" x="494.69" y="-227.88" font-family="Helvetica,sans-Serif" font-weight="bold" font-size="14.00" fill="#000000">mod_http2 (436.7 kB)</text>
</g>
<!-- libpcap -->
<g id="node34" class="node">
<title>libpcap</title>
<text text-anchor="middle" x="1032.9" y="-960.17" font-family="Helvetica,sans-Serif" font-weight="bold" font-size="14.00" fill="#000000">libpcap (417.1 kB)</text>
</g>
<!-- xkeyboard&#45;config -->
<g id="node35" class="node">
<title>xkeyboard&#45;config</title>
<text text-anchor="middle" x="1834.9" y="-239.83" font-family="Helvetica,sans-Serif" font-weight="bold" font-size="14.00" fill="#000000">xkeyboard&#45;config (5.6 MB)</text>
</g>
</g>

<script type="text/javascript"><![CDATA[

document.addEventListener('click', function(e) {
      e = e || window.event;
      var target = e.target || e.srcElement;
      text = target.parentElement.querySelector("title").textContent;

      console.log("Clicked on: " + text);
      // reset all strokes
      var nodes = document.getElementsByClassName("edge");

      for (index = 0, len = nodes.length; index < len; ++index) {
          //var title = nodes[index].querySelector("title").textContent.split("->");
          id = nodes[index].id;
          document.getElementById(id).querySelector("path").setAttribute("stroke-width", "1");
          document.getElementById(id).querySelector("path").setAttribute("stroke-opacity", "0.5");
          document.getElementById(id).querySelector("path").setAttribute("stroke", "#444444");
          document.getElementById(id).querySelector("polygon").setAttribute("stroke-width", "1");
          document.getElementById(id).querySelector("polygon").setAttribute("stroke-opacity", "0.5");
          document.getElementById(id).querySelector("polygon").setAttribute("stroke", "#444444");
      }
      // reset text highlight
      pkgs = document.getElementsByClassName("node");
      for (index2 = 0, len2 = pkgs.length; index2 < len2; ++index2) {
          target_id = pkgs[index2].id;
          document.getElementById(target_id).querySelector("text").setAttribute("font-weight", "normal");
      }

      // highlight deps
      var nodes = document.getElementsByClassName("edge");
      for (index = 0, len = nodes.length; index < len; ++index) {
        var title = nodes[index].querySelector("title").textContent.split("->");

        if (title[0] == text) {
          id = nodes[index].id;
          //console.log("ID:   " + id);
          document.getElementById(id).querySelector("path").setAttribute("stroke-width", "3");
          document.getElementById(id).querySelector("path").setAttribute("stroke-opacity", "1");
          document.getElementById(id).querySelector("path").setAttribute("stroke", "#aa3333");
          document.getElementById(id).querySelector("polygon").setAttribute("stroke-width", "5");
          document.getElementById(id).querySelector("polygon").setAttribute("stroke-opacity", "1");
          document.getElementById(id).querySelector("polygon").setAttribute("stroke", "#aa3333");

        }
        if (title[1] == text) {
          id = nodes[index].id;
          document.getElementById(id).querySelector("path").setAttribute("stroke-width", "3");
          document.getElementById(id).querySelector("path").setAttribute("stroke-opacity", "1");
          document.getElementById(id).querySelector("path").setAttribute("stroke", "#333377");
          document.getElementById(id).querySelector("polygon").setAttribute("stroke-width", "5");
          document.getElementById(id).querySelector("polygon").setAttribute("stroke-opacity", "1");
          document.getElementById(id).querySelector("polygon").setAttribute("stroke", "#333377");
        }

        if (title[0] == text || title[1] == text) {
          pkgs = document.getElementsByClassName("node");
          for (index2 = 0, len2 = pkgs.length; index2 < len2; ++index2) {
            var pkg_name = pkgs[index2].querySelector("title").textContent;
            if (pkg_name == title[0] || pkg_name == title[1]) {
              target_id = pkgs[index2].id;
              document.getElementById(target_id).querySelector("text").setAttribute("font-weight", "bold");
            }
          }
        }
      }


  }, false);

]]></script>

</svg>
