<?xml version="1.0" encoding="UTF-8" standalone="no"?>
<!DOCTYPE svg PUBLIC "-//W3C//DTD SVG 1.1//EN"
 "http://www.w3.org/Graphics/SVG/1.1/DTD/svg11.dtd">
<!-- Generated by graphviz version 2.40.1 (0)
 -->
<!-- Title: packages Pages: 1 -->
<svg width="1493pt" height="1151pt"
 viewBox="0.00 0.00 1791.19 1380.72" xmlns="http://www.w3.org/2000/svg" xmlns:xlink="http://www.w3.org/1999/xlink">
<g id="graph0" class="graph" transform="scale(.8333 .8333) rotate(0) translate(135.9005 1235.7793)">
<title>packages</title>
<polygon fill="#dae2ff" stroke="transparent" points="-135.9005,144.943 -135.9005,-1235.7793 1655.2864,-1235.7793 1655.2864,144.943 -135.9005,144.943"/>
<polygon fill="#bbd7d9" stroke="#bbd7d9" points="1407.3688,-208.0337 1411.5419,-203.9858 1422.4028,-50.0556 1468.5991,-60.3544 1511.568,-93.0433 1533.6471,-181.912 1545.2854,-224.166 1552.8052,-247.263 1587.1704,-264.3394 1634.4917,-309.2981 1651.2864,-344.3266 1647.5844,-390.4425 1523.6281,-389.2113 1518.7205,-393.3307 1514.0641,-272.5908 1509.7853,-275.1776 1501.9116,-279.4283 1497.7416,-281.545 1489.3993,-285.5116 1491.5033,-391.8336 1487.8945,-395.0733 1491.9207,-398.8259 1496.5393,-400.1782 1496.5393,-400.1782 1491.9207,-398.8259 1487.8945,-395.0733 1491.5033,-391.8336 1489.3993,-285.5116 1497.7416,-281.545 1501.9116,-279.4283 1509.7853,-275.1776 1514.0641,-272.5908 1518.7205,-393.3307 1523.6281,-389.2113 1647.5844,-390.4425 1647.1857,-397.6407 1646.8417,-458.5945 1582.3815,-523.3583 1551.8005,-542.02 1551.6118,-542.4679 1526.5161,-610.013 1408.2341,-593.6614 1399.9994,-593.2526 1397.4319,-593.2393 1393.095,-593.0239 1385.679,-592.9868 1385.1271,-593.0333 1379.2269,-593.2676 1378.4102,-593.2639 1377.9752,-529.9364 1382.6501,-527.3145 1384.5066,-525.1327 1382.8503,-523.2447 1378.7424,-520.9695 1378.7424,-520.9695 1382.8503,-523.2447 1384.5066,-525.1327 1382.6501,-527.3145 1377.9752,-529.9364 1372.8945,-529.9364 1367.4336,-526.8472 1366.3577,-525.6427 1366.3577,-525.6427 1367.4336,-526.8472 1372.8945,-529.9364 1377.9752,-529.9364 1378.4102,-593.2639 1377.2744,-593.3091 1371.5017,-593.0272 1368.6799,-593.0152 1367.5048,-593.0626 1360.7206,-593.035 1356.7568,-592.843 1356.5176,-592.8527 1354.0275,-592.8436 1353.0101,-592.7949 1344.8057,-592.7662 1342.8715,-592.9317 1331.9128,-592.8976 1217.4452,-582.4299 1208.7129,-566.4832 1200.3165,-551.9597 1172.9716,-541.8538 1108.2959,-563.4382 1095.2677,-567.021 1084.0131,-569.4493 1083.0438,-569.601 1072.6354,-570.9244 1067.27,-571.448 1057.8457,-572.0889 1056.3695,-572.1455 1052.7056,-572.0699 1050.1349,-572.0917 1038.5354,-572.5289 1029.3073,-573.4155 1017.0374,-575.3119 1003.5024,-578.1925 996.1661,-580.1765 988.1624,-583.0418 976.5693,-587.5338 969.6745,-590.6052 956.853,-597.0714 953.0017,-599.2377 936.0619,-609.2677 920.6933,-620.1489 915.0597,-624.4633 882.4626,-627.2881 845.5921,-618.748 843.7925,-618.2348 828.0459,-560.5584 826.8043,-555.4906 830.3078,-547.8939 835.8422,-537.8182 837.9348,-534.2317 853.731,-508.7596 867.4696,-491.2891 871.4493,-487.1576 876.5447,-481.1145 886.7949,-471.6678 886.961,-471.4392 887.9508,-470.2902 922.0238,-436.9804 922.905,-435.7752 926.7651,-432.1835 933.5224,-424.9156 937.4034,-421.2991 946.076,-411.2116 954.5917,-400.3468 968.6739,-377.4493 976.463,-363.0192 977.6926,-363.458 985.8055,-365.9143 1002.2319,-370.0035 1003.3373,-370.2183 1013.3276,-371.8908 1016.4278,-372.2422 1029.8007,-373.3979 1041.5142,-373.4595 1049.0148,-373.8983 1058.7814,-373.6757 1060.1262,-373.7163 1072.4688,-374.7454 1084.8678,-376.439 1090.361,-377.3344 1103.3007,-380.4768 1109.1394,-375.2024 1141.859,-347.1623 1148.4902,-306.7443 1150.5658,-286.5967 1152.1403,-277.2932 1152.6866,-263.2284 1152.7029,-263.0677 1167.5774,-172.4057 1106.5658,-140.4225 1123.8682,-81.587 1131.9115,-49.933 1137.2743,-18 1165.4067,77.6629 1202.0558,74.4023 1219.1986,73.2328 1234.4222,73.1458 1235.7931,73.195 1237.4237,36.2122 1238.7472,-55.5679 1233.569,-55.5679 1227.8103,-58.9752 1226.9406,-59.9645 1228.6947,-61.9601 1232.8511,-64.2616 1232.8511,-64.2616 1228.6947,-61.9601 1226.9406,-59.9645 1227.8103,-58.9752 1233.569,-55.5679 1238.7472,-55.5679 1237.4237,36.2122 1235.7931,73.195 1252.3599,74.481 1252.3915,74.473 1253.2906,74.2841 1274.7035,70.2476 1324.1399,62.0168 1378.3358,11.2426 1412.8806,-40.8788 1418.9166,-49.2162 1422.4028,-50.0556 1411.5419,-203.9858 1407.3688,-208.0337 1407.2542,-208.2508 1405.9712,-209.3659 1402.2747,-209.3659 1398.7112,-258.6135 1396.0958,-209.3374 1390.8783,-209.3374 1390.7362,-209.2974 1387.3491,-209.2974 1386.6221,-209.0912 1386.6221,-209.0912 1387.3491,-209.2974 1384.1022,-239.6934 1380.1311,-209.31 1377.9742,-209.31 1376.8962,-208.1454 1371.3773,-205.0221 1371.3773,-205.0221 1376.8962,-208.1454 1377.9742,-209.31 1376.3754,-211.0634 1371.5917,-213.7154 1366.1014,-213.7154 1360.2883,-210.2872 1359.3193,-209.1999 1357.2369,-209.1999 1355.4141,-209.7232 1351.7043,-209.7232 1347.7115,-248.615 1345.1353,-209.3824 1341.1476,-209.3824 1341.0116,-209.344 1335.7294,-209.344 1334.6488,-265.0828 1329.9572,-212.5788 1325.5107,-215.6698 1323.3121,-267.4804 1276.2151,-229.7729 1262.9825,-217.9771 1262.2439,-217.4416 1256.7848,-212.7381 1246.635,-202.5163 1243.663,-199.3141 1243.663,-199.3141 1246.635,-202.5163 1256.7848,-212.7381 1262.2439,-217.4416 1263.9537,-252.6646 1262.1857,-286.625 1263.8308,-287.1098 1258.949,-322.1528 1257.1187,-286.8436 1251.9828,-286.8436 1255.3712,-345.2831 1250.8053,-345.6213 1250.6245,-345.6165 1244.2817,-399.3077 1240.1348,-399.3077 1234.8417,-402.2507 1233.3496,-403.9153 1235.218,-406.035 1233.0527,-441.8887 1228.7745,-404.0049 1225.8491,-404.0049 1219.1531,-461.9354 1219.916,-403.962 1215.0679,-403.962 1214.9924,-403.9403 1214.9924,-403.9403 1215.0679,-403.962 1219.916,-403.962 1219.1531,-461.9354 1225.8491,-404.0049 1228.7745,-404.0049 1233.0527,-441.8887 1235.218,-406.035 1233.3496,-403.9153 1234.8417,-402.2507 1240.1348,-399.3077 1244.2817,-399.3077 1250.6245,-345.6165 1250.8053,-345.6213 1255.3712,-345.2831 1251.9828,-286.8436 1257.1187,-286.8436 1258.949,-322.1528 1263.8308,-287.1098 1262.1857,-286.625 1263.9537,-252.6646 1262.2439,-217.4416 1262.9825,-217.9771 1276.2151,-229.7729 1323.3121,-267.4804 1325.5107,-215.6698 1329.9572,-212.5788 1334.6488,-265.0828 1335.7294,-209.344 1341.0116,-209.344 1341.1476,-209.3824 1345.1353,-209.3824 1347.7115,-248.615 1351.7043,-209.7232 1355.4141,-209.7232 1357.2369,-209.1999 1359.3193,-209.1999 1360.2883,-210.2872 1366.1014,-213.7154 1371.5917,-213.7154 1376.3754,-211.0634 1377.9742,-209.31 1380.1311,-209.31 1384.1022,-239.6934 1387.3491,-209.2974 1390.7362,-209.2974 1390.8783,-209.3374 1396.0958,-209.3374 1398.7112,-258.6135 1402.2747,-209.3659 1405.9712,-209.3659 1407.2542,-208.2508 1407.3688,-208.0337 1407.3688,-208.0337"/>
<polygon fill="#fbb4ae" stroke="#fbb4ae" points="52.4355,-406.8411 33.9844,-407.4189 24.559,-407.1385 -53.6292,-432.6463 -129.0463,-501.0904 -131.9005,-513.8459 -130.1214,-522.4517 -129.8411,-523.9498 -120.4703,-579.8975 -113.8418,-587.5352 -96.3993,-608.5118 -37.2159,-678.0964 -53.0223,-753.7257 -59.8102,-782.5298 -65.8927,-805.8091 -66.093,-811.5515 -68.2425,-848.7302 -55.7675,-863.7826 64.6151,-925.5392 67.1512,-926.9023 71.35,-926.7723 78.4769,-926.687 79.2755,-884.9059 78.4156,-782.0663 78.0148,-781.9505 79.8668,-747.1888 75.9446,-664.0952 84.9425,-663.6902 83.2209,-605.5731 83.2209,-605.5731 84.9425,-663.6902 75.9446,-664.0952 79.8668,-747.1888 78.0148,-781.9505 78.4156,-782.0663 79.2755,-884.9059 78.4769,-926.687 97.6793,-927.1873 97.69,-927.1877 98.0633,-891.512 97.0036,-821.5718 99.5912,-783.5515 104.5469,-786.4173 109.091,-786.4173 114.4388,-783.2983 115.711,-781.7969 114.4686,-780.3317 109.083,-777.1853 104.3522,-777.1853 104.3522,-777.1853 109.083,-777.1853 114.4686,-780.3317 115.711,-781.7969 114.4388,-783.2983 109.091,-786.4173 104.5469,-786.4173 99.5912,-783.5515 97.0036,-821.5718 98.0633,-891.512 97.69,-927.1877 116.4387,-929.101 138.5202,-933.0344 137.9232,-907.4142 133.8513,-817.7623 135.6509,-781.7084 135.4349,-781.6454 135.4349,-781.6454 135.6509,-781.7084 139.7699,-781.7084 143.1746,-731.5084 145.7293,-776.5972 337.897,-727.7231 285.6808,-634.6652 477.5082,-585.4484 481.3225,-637.6217 481.385,-636.8553 488.9669,-580.4305 487.6544,-580.062 488.72,-498.2795 489.9754,-498.2449 490.3933,-479.0434 494.6042,-419.9335 499.2041,-421.2397 499.2041,-421.2397 494.6042,-419.9335 490.3933,-479.0434 489.9754,-498.2449 488.72,-498.2795 487.6544,-580.062 488.9669,-580.4305 481.385,-636.8553 481.3225,-637.6217 477.5082,-585.4484 285.6808,-634.6652 337.897,-727.7231 145.7293,-776.5972 143.1746,-731.5084 139.7699,-781.7084 135.6509,-781.7084 133.8513,-817.7623 137.9232,-907.4142 138.5202,-933.0344 145.0285,-934.5628 161.4887,-938.7412 235.0083,-886.5217 290.8825,-807.1882 296.7462,-799.2243 343.8348,-737.9224 357.7347,-742.7654 390.6136,-777.1184 425.9972,-816.9531 477.1349,-861.9561 548.3022,-894.7184 553.446,-895.45 557.0129,-782.5691 557.0129,-782.5691 553.446,-895.45 564.3655,-897.4137 579.9301,-900.5044 580.0212,-900.5242 580.6438,-900.6825 586.2411,-785.9881 590.6608,-755.2179 594.6679,-753.0809 596.8,-750.756 595.6498,-749.5455 589.9395,-746.3937 589.9395,-746.3937 595.6498,-749.5455 596.8,-750.756 594.6679,-753.0809 590.6608,-755.2179 586.2411,-785.9881 580.6438,-900.6825 600.9589,-906.6175 603.2921,-907.3423 606.4045,-907.9459 605.8552,-854.4302 605.8552,-854.4302 606.4045,-907.9459 612.322,-909.4055 616.5868,-908.5406 617.0236,-817.0351 617.0236,-817.0351 616.5868,-908.5406 675.7485,-898.5861 692.4421,-807.858 697.9687,-770.0921 698.9478,-760.8688 699.5588,-751.6404 699.8683,-749.4973 715.7532,-663.1646 714.107,-662.4202 707.2104,-659.4711 698.8907,-656.1193 688.7613,-652.542 678.9064,-649.5518 671.2509,-647.6097 661.4379,-645.3647 649.2045,-643.1778 647.5427,-642.9639 638.9407,-642.0704 637.8589,-641.9849 636.4526,-641.9088 605.7476,-589.1939 583.106,-586.7267 547.8624,-586.1821 547.8624,-586.1821 583.106,-586.7267 605.7476,-589.1939 594.8337,-564.6507 587.474,-544.5019 582.8264,-533.9943 572.9202,-514.835 561.9739,-496.0423 617.2168,-439.9794 624.4668,-439.3375 620.6392,-346.1618 619.6326,-346.1618 615.5908,-349.6648 610.4926,-351.1349 604.4866,-349.3304 601.0578,-346.3318 599.308,-346.3318 598.9363,-346.2215 598.9363,-346.2215 599.308,-346.3318 601.0578,-346.3318 604.4866,-349.3304 610.4926,-351.1349 615.5908,-349.6648 619.6326,-346.1618 620.6392,-346.1618 624.4668,-439.3375 625.8743,-439.2584 632.7151,-439.0948 635.8966,-438.9237 643.6613,-439.0075 656.4537,-438.3828 657.9303,-438.223 673.6436,-435.5781 686.355,-432.6805 692.7716,-430.6447 702.5355,-427.2527 718.3528,-420.8108 719.0462,-420.5084 735.4876,-376.667 755.3936,-328.3004 772.1694,-292.916 771.4424,-292.38 755.004,-281.1932 747.7784,-276.9018 730.2412,-267.471 712.3887,-259.4066 645.2416,-231.0558 639.8591,-228.6195 605.1354,-181.4771 556.3693,-118.8657 546.532,-107.1655 540.0981,-110.4404 532.0923,-114.2009 516.5472,-120.8966 505.9086,-125.0588 501.2984,-126.7708 451.804,-143.202 413.1259,-189.4984 360.66,-267.283 348.3312,-283.9156 339.2769,-313.6045 337.022,-316.3722 304.2472,-397.7295 297.5032,-413.6075 286.1303,-439.1013 272.3313,-468.6879 132.0265,-414.1648 89.2028,-409.5008 75.8475,-407.7659 66.3754,-406.3383 64.7774,-405.9976 59.698,-406.4661 52.4355,-406.8411 52.4355,-406.8411"/>
<polygon fill="#d8d6da" stroke="#d8d6da" points="1371.5017,-593.0272 1377.2744,-593.3091 1378.4102,-593.2639 1379.2269,-593.2676 1385.1271,-593.0333 1385.679,-592.9868 1393.095,-593.0239 1397.4319,-593.2393 1399.9994,-593.2526 1408.2341,-593.6614 1526.5161,-610.013 1527.0924,-616.339 1533.3008,-670.6445 1531.2194,-683.6687 1522.775,-757.4567 1506.5775,-787.1232 1505.8176,-802.0313 1505.0406,-826.1555 1504.8361,-841.4218 1499.6129,-875.6371 1609.9968,-997.295 1606.2115,-1025.0226 1602.0975,-1069.8661 1596.5278,-1093.1035 1584.8971,-1147.2867 1517.9155,-1181.499 1468.2484,-1194.4175 1461.0656,-1196.4282 1449.1469,-1200.2383 1447.5499,-1101.3232 1446.1683,-1082.6627 1446.1683,-1082.6627 1447.5499,-1101.3232 1449.1469,-1200.2383 1442.3944,-1202.8005 1430.9647,-1200.3317 1418.6868,-1198.3567 1421.667,-1053.3634 1425.9805,-1053.3634 1431.946,-1049.8409 1432.9922,-1048.6306 1432.0463,-1047.5532 1426.1812,-1044.1201 1422.0369,-1044.1201 1422.0369,-1044.1201 1426.1812,-1044.1201 1432.0463,-1047.5532 1432.9922,-1048.6306 1431.946,-1049.8409 1425.9805,-1053.3634 1421.667,-1053.3634 1418.6868,-1198.3567 1416.5117,-1198.0469 1414.3947,-1080.5371 1410.3114,-1048.8612 1407.6616,-1048.8612 1407.0586,-1048.6897 1407.0586,-1048.6897 1407.6616,-1048.8612 1410.3114,-1048.8612 1414.3947,-1080.5371 1416.5117,-1198.0469 1401.9017,-1196.5012 1403.5984,-1077.604 1400.3423,-1048.7462 1396.5464,-1048.7462 1396.5464,-1048.7462 1400.3423,-1048.7462 1403.5984,-1077.604 1401.9017,-1196.5012 1395.6482,-1196.0697 1378.2316,-1195.5071 1367.2257,-1195.5558 1358.5457,-1194.8568 1343.7009,-1191.3711 1225.8591,-1122.2991 1160.2181,-1185.7281 1069.448,-1231.7793 1055.7057,-1227.8417 1052.959,-1227.1154 1044.2498,-1225.1924 1044.0554,-1218.6307 1043.1227,-1093.926 1048.0502,-1091.0212 1049.3582,-1089.4247 1048.2769,-1088.0974 1042.6687,-1084.7089 1038.2744,-1084.7089 1038.2744,-1084.7089 1042.6687,-1084.7089 1048.2769,-1088.0974 1049.3582,-1089.4247 1048.0502,-1091.0212 1043.1227,-1093.926 1044.0554,-1218.6307 1044.2498,-1225.1924 1024.6918,-1221.7267 976.9517,-1216.4171 930.4428,-1190.1625 901.72,-1151.5665 885.8458,-1091.3345 884.0515,-1085.5874 884.0485,-1085.5598 879.899,-1053.2573 887.2967,-1047.4341 902.8566,-1035.6675 904.6246,-1034.4447 908.851,-1031.6532 911.55,-1029.9541 929.9794,-1019.4661 930.3495,-1019.2673 1012.6888,-977.5981 1011.0928,-912.5132 1010.9956,-911.5721 1010.314,-884.2548 1010.5096,-870.7275 1010.3022,-862.2721 999.1187,-854.9461 992.6265,-851.3016 983.9759,-847.2298 980.3705,-845.697 970.2159,-842.2844 962.3954,-840.0103 951.1936,-837.7693 938.8674,-836.426 928.3389,-835.7603 925.7231,-835.3532 912.254,-832.6235 905.692,-830.6857 900.4619,-828.8975 893.8479,-832.1114 889.3536,-833.8348 853.7336,-845.7152 838.2024,-851.6678 840.1241,-807.435 840.1241,-807.435 838.2024,-851.6678 837.0542,-852.2165 829.7948,-856.0449 817.5191,-863.1183 809.1606,-868.7186 797.8992,-877.9067 795.8198,-879.8088 787.3916,-887.0168 782.282,-891.6193 769.7487,-903.4794 767.033,-905.9186 745.0465,-926.5389 675.7485,-898.5861 692.4421,-807.858 697.9687,-770.0921 698.9478,-760.8688 699.5588,-751.6404 699.8683,-749.4973 715.7532,-663.1646 771.9321,-647.9727 786.6223,-643.6708 787.806,-643.2982 798.4101,-639.4879 807.0553,-636.1904 815.6074,-632.3585 830.6674,-625.274 843.7925,-618.2348 845.5921,-618.748 882.4626,-627.2881 915.0597,-624.4633 920.6933,-620.1489 936.0619,-609.2677 953.0017,-599.2377 956.853,-597.0714 969.6745,-590.6052 976.5693,-587.5338 988.1624,-583.0418 996.1661,-580.1765 1003.5024,-578.1925 1017.0374,-575.3119 1029.3073,-573.4155 1038.5354,-572.5289 1050.1349,-572.0917 1052.7056,-572.0699 1056.3695,-572.1455 1055.8937,-604.042 1055.8937,-604.042 1056.3695,-572.1455 1057.8457,-572.0889 1067.27,-571.448 1072.6354,-570.9244 1083.0438,-569.601 1084.0131,-569.4493 1085.2712,-631.5005 1082.9515,-663.363 1089.3162,-667.1821 1089.9481,-667.8922 1089.3502,-668.5535 1089.3502,-668.5535 1089.9481,-667.8922 1089.3162,-667.1821 1082.9515,-663.363 1085.2712,-631.5005 1084.0131,-569.4493 1095.2677,-567.021 1095.838,-631.7827 1095.838,-631.7827 1095.2677,-567.021 1108.2959,-563.4382 1172.9716,-541.8538 1200.3165,-551.9597 1208.7129,-566.4832 1217.4452,-582.4299 1331.9128,-592.8976 1342.8715,-592.9317 1344.8057,-592.7662 1353.0101,-592.7949 1354.0275,-592.8436 1356.5176,-592.8527 1356.7568,-592.843 1360.7206,-593.035 1367.5048,-593.0626 1367.052,-657.2438 1371.0814,-660.6304 1371.1193,-660.6879 1366.5834,-664.6235 1362.6605,-665.6996 1355.9679,-663.656 1352.616,-660.8008 1352.2008,-660.8008 1351.1317,-660.4912 1347.3229,-660.4912 1346.4254,-660.7566 1345.6115,-730.5906 1345.6566,-732.0504 1340.6823,-732.111 1335.512,-664.5101 1330.9949,-667.2775 1325.1815,-732.1514 1320.752,-732.0307 1305.7207,-730.3894 1300.9043,-729.4734 1296.4769,-728.2681 1283.9105,-724.3218 1282.7628,-726.0083 1280.3694,-729.2582 1279.989,-729.7347 1267.9897,-743.6085 1257.8323,-754.23 1253.7021,-754.23 1228.5044,-756.2574 1214.3429,-760.7387 1209.4263,-758.1631 1206.7139,-754.3904 1204.1865,-754.3904 1203.4866,-754.1884 1198.8197,-754.1884 1198.7604,-754.1718 1194.9153,-754.1718 1188.9114,-820.2154 1188.2606,-804.8089 1183.4314,-757.8761 1188.0105,-753.8234 1187.8732,-753.6258 1184.4537,-750.888 1184.4537,-750.888 1187.8732,-753.6258 1188.0105,-753.8234 1183.4314,-757.8761 1188.2606,-804.8089 1188.9114,-820.2154 1194.9153,-754.1718 1198.7604,-754.1718 1198.8197,-754.1884 1203.4866,-754.1884 1204.1865,-754.3904 1206.7139,-754.3904 1209.4263,-758.1631 1214.3429,-760.7387 1228.5044,-756.2574 1253.7021,-754.23 1257.8323,-754.23 1237.0297,-788.4167 1237.0297,-788.4167 1257.8323,-754.23 1267.9897,-743.6085 1279.989,-729.7347 1280.3694,-729.2582 1282.7628,-726.0083 1283.9105,-724.3218 1296.4769,-728.2681 1300.9043,-729.4734 1305.7207,-730.3894 1306.9512,-751.5972 1312.7025,-800.6643 1316.3306,-803.6334 1316.1554,-803.8888 1312.1333,-807.2025 1307.1997,-808.5749 1301.3004,-806.8648 1297.9025,-804.0489 1297.0013,-804.0489 1295.9375,-803.7411 1291.9535,-803.7411 1287.4353,-917.9315 1287.6705,-944.3636 1286.2109,-945.0056 1274.1493,-929.7831 1271.2382,-926.2694 1156.8248,-904.0461 1156.8248,-904.0461 1271.2382,-926.2694 1274.1493,-929.7831 1286.2109,-945.0056 1241.8966,-1018.5944 1218.9448,-1054.8754 1205.63,-1047.7208 1058.7288,-1084.3397 1066.757,-992.7493 1083.9556,-995.3923 1096.8954,-997.7662 1102.5382,-998.9671 1104.1042,-999.3463 1112.9355,-1001.7455 1113.4579,-933.9351 1116.9047,-901.0194 1120.4902,-902.9453 1126.2885,-902.9453 1132.9199,-899.0139 1133.2598,-898.6489 1132.0304,-897.3262 1132.0304,-897.3262 1133.2598,-898.6489 1132.9199,-899.0139 1126.2885,-902.9453 1120.4902,-902.9453 1116.9047,-901.0194 1113.4579,-933.9351 1112.9355,-1001.7455 1104.1042,-999.3463 1102.5382,-998.9671 1096.8954,-997.7662 1083.9556,-995.3923 1066.757,-992.7493 1058.7288,-1084.3397 1205.63,-1047.7208 1218.9448,-1054.8754 1241.8966,-1018.5944 1286.2109,-945.0056 1287.6705,-944.3636 1287.4353,-917.9315 1291.9535,-803.7411 1295.9375,-803.7411 1297.0013,-804.0489 1297.9025,-804.0489 1301.3004,-806.8648 1307.1997,-808.5749 1312.1333,-807.2025 1316.1554,-803.8888 1316.3306,-803.6334 1316.5304,-803.577 1316.5304,-803.577 1316.3306,-803.6334 1312.7025,-800.6643 1306.9512,-751.5972 1305.7207,-730.3894 1320.752,-732.0307 1325.1815,-732.1514 1330.9949,-667.2775 1335.512,-664.5101 1340.6823,-732.111 1334.4385,-732.4485 1337.8705,-802.0007 1336.9285,-803.6612 1336.057,-803.9116 1333.5724,-803.9116 1332.8906,-803.7175 1332.8906,-803.7175 1333.5724,-803.9116 1336.057,-803.9116 1336.9285,-803.6612 1337.8705,-802.0007 1334.4385,-732.4485 1340.6823,-732.111 1345.6566,-732.0504 1345.6115,-730.5906 1346.4254,-660.7566 1347.3229,-660.4912 1351.1317,-660.4912 1352.2008,-660.8008 1352.616,-660.8008 1355.9679,-663.656 1362.6605,-665.6996 1366.5834,-664.6235 1371.1193,-660.6879 1371.0814,-660.6304 1367.052,-657.2438 1367.5048,-593.0626 1368.6799,-593.0152 1371.5017,-593.0272 1371.5017,-593.0272"/>
<polygon fill="#fed9a6" stroke="#fed9a6" points="638.9407,-642.0704 637.8589,-641.9849 636.4526,-641.9088 605.7476,-589.1939 594.8337,-564.6507 587.474,-544.5019 582.8264,-533.9943 572.9202,-514.835 561.9739,-496.0423 617.2168,-439.9794 624.4668,-439.3375 625.8743,-439.2584 632.7151,-439.0948 635.8966,-438.9237 643.6613,-439.0075 656.4537,-438.3828 657.9303,-438.223 673.6436,-435.5781 686.355,-432.6805 692.7716,-430.6447 702.5355,-427.2527 718.3528,-420.8108 719.0462,-420.5084 735.4876,-376.667 755.3936,-328.3004 772.1694,-292.916 771.4424,-292.38 755.004,-281.1932 747.7784,-276.9018 730.2412,-267.471 712.3887,-259.4066 645.2416,-231.0558 639.8591,-228.6195 605.1354,-181.4771 556.3693,-118.8657 546.532,-107.1655 546.8663,-106.3552 687.2887,.9764 724.5214,15.8492 724.911,-47.2368 725.4147,-61.2461 731.3367,-144.2262 730.67,-144.4238 730.929,-210.6306 736.7521,-144.4354 739.9046,-144.4354 740.243,-144.3357 745.5336,-144.3357 747.0306,-146.1454 751.4854,-148.7112 751.4854,-148.7112 747.0306,-146.1454 745.5336,-144.3357 746.4326,-143.2348 752.4683,-139.5324 756.5123,-139.5324 756.5123,-139.5324 752.4683,-139.5324 746.4326,-143.2348 745.5336,-144.3357 740.243,-144.3357 739.9046,-144.4354 736.7521,-144.4354 730.929,-210.6306 730.67,-144.4238 731.3367,-144.2262 725.4147,-61.2461 724.911,-47.2368 724.5214,15.8492 734.6652,20.5273 742.8672,24.479 745.2282,25.7637 766.2172,24.983 782.0374,25.4326 795.1453,26.2348 836.0574,29.4071 839.6345,33.7573 890.3542,78.7748 979.7827,119.2328 1001.8323,121.3311 1006.5259,11.6318 1006.5259,11.6318 1001.8323,121.3311 1022.7263,124.1325 1026.8695,124.8475 1038.728,127.586 1039.9639,-16.0194 1035.6537,-13.7187 1029.9132,-13.7187 1024.1434,-17.094 1023.1844,-18.1564 1024.6774,-19.7549 1029.7845,-22.5331 1029.7845,-22.5331 1024.6774,-19.7549 1023.1844,-18.1564 1024.1434,-17.094 1029.9132,-13.7187 1035.6537,-13.7187 1039.9639,-16.0194 1038.728,127.586 1049.126,130.189 1055.0603,131.9038 1068.014,135.8978 1083.4269,140.943 1088.347,139.2261 1165.4067,77.6629 1137.2743,-18 1131.9115,-49.933 1123.8682,-81.587 1106.5658,-140.4225 1167.5774,-172.4057 1152.7029,-263.0677 1152.6866,-263.2284 1152.1403,-277.2932 1150.5658,-286.5967 1148.4902,-306.7443 1141.859,-347.1623 1109.1394,-375.2024 1103.3007,-380.4768 1090.361,-377.3344 1084.8678,-376.439 1081.2026,-271.2329 1081.1177,-271.2329 1077,-267.8897 1071.1906,-266.2499 1067.1542,-267.3294 1062.0657,-215.5281 1060.1333,-172.5449 1060.3994,-147.2205 1049.3496,-157.9821 1039.7251,-167.9144 1023.4716,-183.0067 958.7921,-247.8427 943.7495,-261.8305 936.6725,-268.7862 920.257,-286.678 920.9294,-261.2527 920.7781,-158.2757 919.6117,-158.2757 915.6479,-154.9005 910.4247,-153.4051 904.9802,-154.9845 901.4188,-158.0469 905.7948,-162.0493 909.8838,-163.202 909.8838,-163.202 905.7948,-162.0493 901.4188,-158.0469 904.9802,-154.9845 910.4247,-153.4051 915.6479,-154.9005 919.6117,-158.2757 920.7781,-158.2757 920.9294,-261.2527 920.257,-286.678 936.6725,-268.7862 943.7495,-261.8305 958.7921,-247.8427 1023.4716,-183.0067 1039.7251,-167.9144 1049.3496,-157.9821 1060.3994,-147.2205 1060.1333,-172.5449 1062.0657,-215.5281 1067.1542,-267.3294 1071.1906,-266.2499 1077,-267.8897 1081.1177,-271.2329 1081.2026,-271.2329 1084.8678,-376.439 1072.4688,-374.7454 1060.1262,-373.7163 1058.7814,-373.6757 1049.0148,-373.8983 1041.5142,-373.4595 1029.8007,-373.3979 1016.4278,-372.2422 1013.3276,-371.8908 1003.3373,-370.2183 1002.2319,-370.0035 985.8055,-365.9143 977.6926,-363.458 976.463,-363.0192 968.6739,-377.4493 954.5917,-400.3468 946.076,-411.2116 937.4034,-421.2991 933.5224,-424.9156 926.7651,-432.1835 922.905,-435.7752 922.0238,-436.9804 887.9508,-470.2902 886.961,-471.4392 886.7949,-471.6678 876.5447,-481.1145 871.4493,-487.1576 867.4696,-491.2891 853.731,-508.7596 837.9348,-534.2317 835.8422,-537.8182 830.3078,-547.8939 826.8043,-555.4906 828.0459,-560.5584 843.7925,-618.2348 830.6674,-625.274 815.6074,-632.3585 807.0553,-636.1904 798.4101,-639.4879 787.806,-643.2982 786.6223,-643.6708 771.9321,-647.9727 715.7532,-663.1646 714.107,-662.4202 707.2104,-659.4711 698.8907,-656.1193 688.7613,-652.542 678.9064,-649.5518 671.2509,-647.6097 661.4379,-645.3647 662.844,-559.402 666.6224,-534.5347 670.6129,-536.6506 674.9325,-536.6506 674.9325,-536.6506 670.6129,-536.6506 666.6224,-534.5347 662.844,-559.402 661.4379,-645.3647 649.2045,-643.1778 647.5427,-642.9639 638.9407,-642.0704 638.9407,-642.0704"/>
<polygon fill="#bbd7d9" stroke="#bbd7d9" points="1011.0928,-912.5132 1010.9956,-911.5721 1010.314,-884.2548 1010.5096,-870.7275 1010.3022,-862.2721 999.1187,-854.9461 992.6265,-851.3016 983.9759,-847.2298 980.3705,-845.697 970.2159,-842.2844 962.3954,-840.0103 951.1936,-837.7693 938.8674,-836.426 928.3389,-835.7603 925.7231,-835.3532 912.254,-832.6235 905.692,-830.6857 900.4619,-828.8975 893.8479,-832.1114 889.3536,-833.8348 853.7336,-845.7152 838.2024,-851.6678 837.0542,-852.2165 829.7948,-856.0449 817.5191,-863.1183 809.1606,-868.7186 797.8992,-877.9067 795.8198,-879.8088 787.3916,-887.0168 782.282,-891.6193 769.7487,-903.4794 767.033,-905.9186 745.0465,-926.5389 748.9681,-932.4784 785.8846,-991.1505 879.899,-1053.2573 887.2967,-1047.4341 902.8566,-1035.6675 904.6246,-1034.4447 908.851,-1031.6532 911.55,-1029.9541 929.9794,-1019.4661 930.3495,-1019.2673 1012.6888,-977.5981 1011.0928,-912.5132 1011.0928,-912.5132"/>
<polyline fill="none" stroke="#000000" points="976.5693,-587.5338 969.6745,-590.6052 956.853,-597.0714 953.0017,-599.2377 936.0619,-609.2677 920.6933,-620.1489 915.0597,-624.4633 882.4626,-627.2881 845.5921,-618.748 843.7925,-618.2348 828.0459,-560.5584 826.8043,-555.4906 830.3078,-547.8939 835.8422,-537.8182 837.9348,-534.2317 853.731,-508.7596 867.4696,-491.2891 871.4493,-487.1576 876.5447,-481.1145 886.7949,-471.6678 886.961,-471.4392 887.9508,-470.2902 922.0238,-436.9804 922.905,-435.7752 926.7651,-432.1835 933.5224,-424.9156 937.4034,-421.2991 946.076,-411.2116 954.5917,-400.3468 968.6739,-377.4493 976.463,-363.0192 977.6926,-363.458 985.8055,-365.9143 1002.2319,-370.0035 1003.3373,-370.2183 1013.3276,-371.8908 1016.4278,-372.2422 1029.8007,-373.3979 1041.5142,-373.4595 1049.0148,-373.8983 1058.7814,-373.6757 1060.1262,-373.7163 1072.4688,-374.7454 1084.8678,-376.439 1090.361,-377.3344 1103.3007,-380.4768 1109.1394,-375.2024 1141.859,-347.1623 1148.4902,-306.7443 1150.5658,-286.5967 1152.1403,-277.2932 1152.6866,-263.2284 1152.7029,-263.0677 1167.5774,-172.4057 1106.5658,-140.4225 1123.8682,-81.587 1131.9115,-49.933 1137.2743,-18 1165.4067,77.6629 1202.0558,74.4023 1219.1986,73.2328 1234.4222,73.1458 1235.7931,73.195 1252.3599,74.481 1252.3915,74.473 1253.2906,74.2841 1274.7035,70.2476 1324.1399,62.0168 1378.3358,11.2426 1412.8806,-40.8788 1418.9166,-49.2162 1422.4028,-50.0556 1468.5991,-60.3544 1511.568,-93.0433 1533.6471,-181.912 1545.2854,-224.166 1552.8052,-247.263 1587.1704,-264.3394 1634.4917,-309.2981 1651.2864,-344.3266 1647.5844,-390.4425 1647.1857,-397.6407 1646.8417,-458.5945 1582.3815,-523.3583 1551.8005,-542.02 1551.6118,-542.4679 1526.5161,-610.013 1408.2341,-593.6614 1399.9994,-593.2526 1397.4319,-593.2393 1393.095,-593.0239 1385.679,-592.9868 1385.1271,-593.0333 1379.2269,-593.2676 1378.4102,-593.2639 1377.2744,-593.3091 1371.5017,-593.0272 1368.6799,-593.0152 1367.5048,-593.0626 1360.7206,-593.035 1356.7568,-592.843 1356.5176,-592.8527 1354.0275,-592.8436 1353.0101,-592.7949 1344.8057,-592.7662 1342.8715,-592.9317 1331.9128,-592.8976 1217.4452,-582.4299 1208.7129,-566.4832 1200.3165,-551.9597 1172.9716,-541.8538 1108.2959,-563.4382 1095.2677,-567.021 1084.0131,-569.4493 1083.0438,-569.601 1072.6354,-570.9244 1067.27,-571.448 1057.8457,-572.0889 1056.3695,-572.1455 1052.7056,-572.0699 1050.1349,-572.0917 1038.5354,-572.5289 1029.3073,-573.4155 1017.0374,-575.3119 1003.5024,-578.1925 996.1661,-580.1765 988.1624,-583.0418 976.5693,-587.5338 "/>
<polyline fill="none" stroke="#000000" points="516.5472,-120.8966 505.9086,-125.0588 501.2984,-126.7708 451.804,-143.202 413.1259,-189.4984 360.66,-267.283 348.3312,-283.9156 339.2769,-313.6045 337.022,-316.3722 304.2472,-397.7295 297.5032,-413.6075 286.1303,-439.1013 272.3313,-468.6879 132.0265,-414.1648 89.2028,-409.5008 75.8475,-407.7659 66.3754,-406.3383 64.7774,-405.9976 59.698,-406.4661 52.4355,-406.8411 33.9844,-407.4189 24.559,-407.1385 -53.6292,-432.6463 -129.0463,-501.0904 -131.9005,-513.8459 -130.1214,-522.4517 -129.8411,-523.9498 -120.4703,-579.8975 -113.8418,-587.5352 -96.3993,-608.5118 -37.2159,-678.0964 -53.0223,-753.7257 -59.8102,-782.5298 -65.8927,-805.8091 -66.093,-811.5515 -68.2425,-848.7302 -55.7675,-863.7826 64.6151,-925.5392 67.1512,-926.9023 71.35,-926.7723 78.4769,-926.687 97.6793,-927.1873 97.69,-927.1877 116.4387,-929.101 138.5202,-933.0344 145.0285,-934.5628 161.4887,-938.7412 235.0083,-886.5217 290.8825,-807.1882 296.7462,-799.2243 343.8348,-737.9224 357.7347,-742.7654 390.6136,-777.1184 425.9972,-816.9531 477.1349,-861.9561 548.3022,-894.7184 553.446,-895.45 564.3655,-897.4137 579.9301,-900.5044 580.0212,-900.5242 580.6438,-900.6825 600.9589,-906.6175 603.2921,-907.3423 606.4045,-907.9459 612.322,-909.4055 616.5868,-908.5406 675.7485,-898.5861 692.4421,-807.858 697.9687,-770.0921 698.9478,-760.8688 699.5588,-751.6404 699.8683,-749.4973 715.7532,-663.1646 714.107,-662.4202 707.2104,-659.4711 698.8907,-656.1193 688.7613,-652.542 678.9064,-649.5518 671.2509,-647.6097 661.4379,-645.3647 649.2045,-643.1778 647.5427,-642.9639 638.9407,-642.0704 637.8589,-641.9849 636.4526,-641.9088 605.7476,-589.1939 594.8337,-564.6507 587.474,-544.5019 582.8264,-533.9943 572.9202,-514.835 561.9739,-496.0423 617.2168,-439.9794 624.4668,-439.3375 625.8743,-439.2584 632.7151,-439.0948 635.8966,-438.9237 643.6613,-439.0075 656.4537,-438.3828 657.9303,-438.223 673.6436,-435.5781 686.355,-432.6805 692.7716,-430.6447 702.5355,-427.2527 718.3528,-420.8108 719.0462,-420.5084 735.4876,-376.667 755.3936,-328.3004 772.1694,-292.916 771.4424,-292.38 755.004,-281.1932 747.7784,-276.9018 730.2412,-267.471 712.3887,-259.4066 645.2416,-231.0558 639.8591,-228.6195 605.1354,-181.4771 556.3693,-118.8657 546.532,-107.1655 540.0981,-110.4404 532.0923,-114.2009 516.5472,-120.8966 "/>
<polyline fill="none" stroke="#000000" points="970.2159,-842.2844 980.3705,-845.697 983.9759,-847.2298 992.6265,-851.3016 999.1187,-854.9461 1010.3022,-862.2721 1010.5096,-870.7275 1010.314,-884.2548 1010.9956,-911.5721 1011.0928,-912.5132 1012.6888,-977.5981 930.3495,-1019.2673 929.9794,-1019.4661 911.55,-1029.9541 908.851,-1031.6532 904.6246,-1034.4447 902.8566,-1035.6675 887.2967,-1047.4341 879.899,-1053.2573 884.0485,-1085.5598 884.0515,-1085.5874 885.8458,-1091.3345 901.72,-1151.5665 930.4428,-1190.1625 976.9517,-1216.4171 1024.6918,-1221.7267 1044.2498,-1225.1924 1052.959,-1227.1154 1055.7057,-1227.8417 1069.448,-1231.7793 1160.2181,-1185.7281 1225.8591,-1122.2991 1343.7009,-1191.3711 1358.5457,-1194.8568 1367.2257,-1195.5558 1378.2316,-1195.5071 1395.6482,-1196.0697 1401.9017,-1196.5012 1416.5117,-1198.0469 1418.6868,-1198.3567 1430.9647,-1200.3317 1442.3944,-1202.8005 1449.1469,-1200.2383 1461.0656,-1196.4282 1468.2484,-1194.4175 1517.9155,-1181.499 1584.8971,-1147.2867 1596.5278,-1093.1035 1602.0975,-1069.8661 1606.2115,-1025.0226 1609.9968,-997.295 1499.6129,-875.6371 1504.8361,-841.4218 1505.0406,-826.1555 1505.8176,-802.0313 1506.5775,-787.1232 1522.775,-757.4567 1531.2194,-683.6687 1533.3008,-670.6445 1527.0924,-616.339 1526.5161,-610.013 1408.2341,-593.6614 1399.9994,-593.2526 1397.4319,-593.2393 1393.095,-593.0239 1385.679,-592.9868 1385.1271,-593.0333 1379.2269,-593.2676 1378.4102,-593.2639 1377.2744,-593.3091 1371.5017,-593.0272 1368.6799,-593.0152 1367.5048,-593.0626 1360.7206,-593.035 1356.7568,-592.843 1356.5176,-592.8527 1354.0275,-592.8436 1353.0101,-592.7949 1344.8057,-592.7662 1342.8715,-592.9317 1331.9128,-592.8976 1217.4452,-582.4299 1208.7129,-566.4832 1200.3165,-551.9597 1172.9716,-541.8538 1108.2959,-563.4382 1095.2677,-567.021 1084.0131,-569.4493 1083.0438,-569.601 1072.6354,-570.9244 1067.27,-571.448 1057.8457,-572.0889 1056.3695,-572.1455 1052.7056,-572.0699 1050.1349,-572.0917 1038.5354,-572.5289 1029.3073,-573.4155 1017.0374,-575.3119 1003.5024,-578.1925 996.1661,-580.1765 988.1624,-583.0418 976.5693,-587.5338 969.6745,-590.6052 956.853,-597.0714 953.0017,-599.2377 936.0619,-609.2677 920.6933,-620.1489 915.0597,-624.4633 882.4626,-627.2881 845.5921,-618.748 843.7925,-618.2348 830.6674,-625.274 815.6074,-632.3585 807.0553,-636.1904 798.4101,-639.4879 787.806,-643.2982 786.6223,-643.6708 771.9321,-647.9727 715.7532,-663.1646 699.8683,-749.4973 699.5588,-751.6404 698.9478,-760.8688 697.9687,-770.0921 692.4421,-807.858 675.7485,-898.5861 745.0465,-926.5389 767.033,-905.9186 769.7487,-903.4794 782.282,-891.6193 787.3916,-887.0168 795.8198,-879.8088 797.8992,-877.9067 809.1606,-868.7186 817.5191,-863.1183 829.7948,-856.0449 837.0542,-852.2165 838.2024,-851.6678 853.7336,-845.7152 889.3536,-833.8348 893.8479,-832.1114 900.4619,-828.8975 905.692,-830.6857 912.254,-832.6235 925.7231,-835.3532 928.3389,-835.7603 938.8674,-836.426 951.1936,-837.7693 962.3954,-840.0103 970.2159,-842.2844 "/>
<polyline fill="none" stroke="#000000" points="853.731,-508.7596 867.4696,-491.2891 871.4493,-487.1576 876.5447,-481.1145 886.7949,-471.6678 886.961,-471.4392 887.9508,-470.2902 922.0238,-436.9804 922.905,-435.7752 926.7651,-432.1835 933.5224,-424.9156 937.4034,-421.2991 946.076,-411.2116 954.5917,-400.3468 968.6739,-377.4493 976.463,-363.0192 977.6926,-363.458 985.8055,-365.9143 1002.2319,-370.0035 1003.3373,-370.2183 1013.3276,-371.8908 1016.4278,-372.2422 1029.8007,-373.3979 1041.5142,-373.4595 1049.0148,-373.8983 1058.7814,-373.6757 1060.1262,-373.7163 1072.4688,-374.7454 1084.8678,-376.439 1090.361,-377.3344 1103.3007,-380.4768 1109.1394,-375.2024 1141.859,-347.1623 1148.4902,-306.7443 1150.5658,-286.5967 1152.1403,-277.2932 1152.6866,-263.2284 1152.7029,-263.0677 1167.5774,-172.4057 1106.5658,-140.4225 1123.8682,-81.587 1131.9115,-49.933 1137.2743,-18 1165.4067,77.6629 1088.347,139.2261 1083.4269,140.943 1068.014,135.8978 1055.0603,131.9038 1049.126,130.189 1038.728,127.586 1026.8695,124.8475 1022.7263,124.1325 1001.8323,121.3311 979.7827,119.2328 890.3542,78.7748 839.6345,33.7573 836.0574,29.4071 795.1453,26.2348 782.0374,25.4326 766.2172,24.983 745.2282,25.7637 742.8672,24.479 734.6652,20.5273 724.5214,15.8492 687.2887,.9764 546.8663,-106.3552 546.532,-107.1655 556.3693,-118.8657 605.1354,-181.4771 639.8591,-228.6195 645.2416,-231.0558 712.3887,-259.4066 730.2412,-267.471 747.7784,-276.9018 755.004,-281.1932 771.4424,-292.38 772.1694,-292.916 755.3936,-328.3004 735.4876,-376.667 719.0462,-420.5084 718.3528,-420.8108 702.5355,-427.2527 692.7716,-430.6447 686.355,-432.6805 673.6436,-435.5781 657.9303,-438.223 656.4537,-438.3828 643.6613,-439.0075 635.8966,-438.9237 632.7151,-439.0948 625.8743,-439.2584 624.4668,-439.3375 617.2168,-439.9794 561.9739,-496.0423 572.9202,-514.835 582.8264,-533.9943 587.474,-544.5019 594.8337,-564.6507 605.7476,-589.1939 636.4526,-641.9088 637.8589,-641.9849 638.9407,-642.0704 647.5427,-642.9639 649.2045,-643.1778 661.4379,-645.3647 671.2509,-647.6097 678.9064,-649.5518 688.7613,-652.542 698.8907,-656.1193 707.2104,-659.4711 714.107,-662.4202 715.7532,-663.1646 771.9321,-647.9727 786.6223,-643.6708 787.806,-643.2982 798.4101,-639.4879 807.0553,-636.1904 815.6074,-632.3585 830.6674,-625.274 843.7925,-618.2348 828.0459,-560.5584 826.8043,-555.4906 830.3078,-547.8939 835.8422,-537.8182 837.9348,-534.2317 853.731,-508.7596 "/>
<polyline fill="none" stroke="#000000" points="904.6246,-1034.4447 908.851,-1031.6532 911.55,-1029.9541 929.9794,-1019.4661 930.3495,-1019.2673 1012.6888,-977.5981 1011.0928,-912.5132 1010.9956,-911.5721 1010.314,-884.2548 1010.5096,-870.7275 1010.3022,-862.2721 999.1187,-854.9461 992.6265,-851.3016 983.9759,-847.2298 980.3705,-845.697 970.2159,-842.2844 962.3954,-840.0103 951.1936,-837.7693 938.8674,-836.426 928.3389,-835.7603 925.7231,-835.3532 912.254,-832.6235 905.692,-830.6857 900.4619,-828.8975 893.8479,-832.1114 889.3536,-833.8348 853.7336,-845.7152 838.2024,-851.6678 837.0542,-852.2165 829.7948,-856.0449 817.5191,-863.1183 809.1606,-868.7186 797.8992,-877.9067 795.8198,-879.8088 787.3916,-887.0168 782.282,-891.6193 769.7487,-903.4794 767.033,-905.9186 745.0465,-926.5389 748.9681,-932.4784 785.8846,-991.1505 879.899,-1053.2573 887.2967,-1047.4341 902.8566,-1035.6675 904.6246,-1034.4447 "/>
<!-- apr&#45;&gt;Fedora Container Base -->
<g id="edge1" class="edge">
<title>apr&#45;&gt;Fedora Container Base</title>
<path fill="none" stroke="#444444" stroke-opacity="0.333333" d="M565.5877,-307.579C652.1507,-342.3733 841.4557,-418.4652 933.2797,-455.3743"/>
<polygon fill="#444444" fill-opacity="0.333333" stroke="#444444" stroke-opacity="0.333333" points="932.0695,-458.6599 942.6533,-459.142 934.6802,-452.1649 932.0695,-458.6599"/>
</g>
<!-- device&#45;mapper&#45;libs&#45;&gt;Fedora Container Base -->
<g id="edge2" class="edge">
<title>device&#45;mapper&#45;libs&#45;&gt;Fedora Container Base</title>
<path fill="none" stroke="#444444" stroke-opacity="0.333333" d="M1342.5549,-227.5153C1275.0594,-274.5126 1094.503,-400.2346 1019.1037,-452.7354"/>
<polygon fill="#444444" fill-opacity="0.333333" stroke="#444444" stroke-opacity="0.333333" points="1017.0738,-449.8839 1010.8672,-458.4705 1021.0738,-455.6285 1017.0738,-449.8839"/>
</g>
<!-- device&#45;mapper&#45;libs&#45;&gt;device&#45;mapper -->
<g id="edge3" class="edge">
<title>device&#45;mapper&#45;libs&#45;&gt;device&#45;mapper</title>
<path fill="none" stroke="#444444" stroke-opacity="0.333333" d="M1351.6828,-227.4768C1325.6876,-261.8371 1277.1283,-336.4567 1254.3583,-376.8299"/>
<polygon fill="#444444" fill-opacity="0.333333" stroke="#444444" stroke-opacity="0.333333" points="1251.1547,-375.392 1249.4041,-385.8412 1257.2889,-378.7644 1251.1547,-375.392"/>
</g>
<!-- device&#45;mapper&#45;&gt;Fedora Container Base -->
<g id="edge32" class="edge">
<title>device&#45;mapper&#45;&gt;Fedora Container Base</title>
<path fill="none" stroke="#444444" stroke-opacity="0.333333" d="M1178.1085,-422.0453C1140.1659,-432.7176 1092.1445,-446.2247 1053.5177,-457.0894"/>
<polygon fill="#444444" fill-opacity="0.333333" stroke="#444444" stroke-opacity="0.333333" points="1052.0801,-453.8579 1043.4013,-459.9348 1053.9755,-460.5964 1052.0801,-453.8579"/>
</g>
<!-- device&#45;mapper&#45;&gt;device&#45;mapper&#45;libs -->
<g id="edge33" class="edge">
<title>device&#45;mapper&#45;&gt;device&#45;mapper&#45;libs</title>
<path fill="none" stroke="#444444" stroke-opacity="0.333333" d="M1259.2172,-385.8932C1285.2124,-351.5329 1333.7717,-276.9133 1356.5417,-236.5401"/>
<polygon fill="#444444" fill-opacity="0.333333" stroke="#444444" stroke-opacity="0.333333" points="1359.7453,-237.978 1361.4959,-227.5288 1353.6111,-234.6056 1359.7453,-237.978"/>
</g>
<!-- device&#45;mapper&#45;&gt;systemd -->
<g id="edge34" class="edge">
<title>device&#45;mapper&#45;&gt;systemd</title>
<path fill="none" stroke="#444444" stroke-opacity="0.333333" d="M1231.1926,-422.1241C1203.2853,-467.6859 1130.1133,-587.1473 1097.1802,-640.9142"/>
<polygon fill="#444444" fill-opacity="0.333333" stroke="#444444" stroke-opacity="0.333333" points="1094.1238,-639.2034 1091.8851,-649.559 1100.093,-642.8596 1094.1238,-639.2034"/>
</g>
<!-- device&#45;mapper&#45;&gt;util&#45;linux -->
<g id="edge35" class="edge">
<title>device&#45;mapper&#45;&gt;util&#45;linux</title>
<path fill="none" stroke="#444444" stroke-opacity="0.333333" d="M1218.9228,-385.7922C1188.872,-362.3994 1136.583,-321.6955 1103.0613,-295.6008"/>
<polygon fill="#444444" fill-opacity="0.333333" stroke="#444444" stroke-opacity="0.333333" points="1105.0091,-292.6816 1094.9681,-289.3007 1100.7092,-298.2053 1105.0091,-292.6816"/>
</g>
<!-- libargon2&#45;&gt;Fedora Container Base -->
<g id="edge4" class="edge">
<title>libargon2&#45;&gt;Fedora Container Base</title>
<path fill="none" stroke="#444444" stroke-opacity="0.333333" d="M1225.1617,-78.1212C1185.4782,-143.9912 1048.9405,-370.6276 1001.6039,-449.2008"/>
<polygon fill="#444444" fill-opacity="0.333333" stroke="#444444" stroke-opacity="0.333333" points="998.4483,-447.6564 996.2859,-458.0282 1004.4443,-451.2687 998.4483,-447.6564"/>
</g>
<!-- dbus&#45;broker&#45;&gt;Fedora Container Base -->
<g id="edge5" class="edge">
<title>dbus&#45;broker&#45;&gt;Fedora Container Base</title>
<path fill="none" stroke="#444444" stroke-opacity="0.333333" d="M977.7154,-751.8421C979.0847,-702.0275 982.8729,-564.2151 984.5146,-504.4901"/>
<polygon fill="#444444" fill-opacity="0.333333" stroke="#444444" stroke-opacity="0.333333" points="988.0189,-504.378 984.7951,-494.2856 981.0215,-504.1856 988.0189,-504.378"/>
</g>
<!-- dbus&#45;broker&#45;&gt;dbus&#45;common -->
<g id="edge6" class="edge">
<title>dbus&#45;broker&#45;&gt;dbus&#45;common</title>
<path fill="none" stroke="#444444" stroke-opacity="0.333333" d="M1050.8809,-764.3857C1063.973,-763.3471 1077.7256,-762.2561 1091.1623,-761.1902"/>
<polygon fill="#444444" fill-opacity="0.333333" stroke="#444444" stroke-opacity="0.333333" points="1091.6678,-764.6612 1101.3597,-760.3812 1091.1142,-757.6831 1091.6678,-764.6612"/>
</g>
<!-- dbus&#45;broker&#45;&gt;shadow&#45;utils -->
<g id="edge7" class="edge">
<title>dbus&#45;broker&#45;&gt;shadow&#45;utils</title>
<path fill="none" stroke="#444444" stroke-opacity="0.333333" d="M970.7266,-752.0598C950.8106,-696.2441 890.4258,-527.0125 866.5185,-460.0111"/>
<polygon fill="#444444" fill-opacity="0.333333" stroke="#444444" stroke-opacity="0.333333" points="869.7926,-458.7722 863.1355,-450.53 863.1998,-461.1247 869.7926,-458.7722"/>
</g>
<!-- dbus&#45;broker&#45;&gt;systemd -->
<g id="edge8" class="edge">
<title>dbus&#45;broker&#45;&gt;systemd</title>
<path fill="none" stroke="#444444" stroke-opacity="0.333333" d="M995.7119,-751.9211C1012.1945,-735.6106 1036.4809,-711.5777 1054.8755,-693.375"/>
<polygon fill="#444444" fill-opacity="0.333333" stroke="#444444" stroke-opacity="0.333333" points="1057.712,-695.4921 1062.3582,-685.9703 1052.7883,-690.5164 1057.712,-695.4921"/>
</g>
<!-- dbus&#45;common&#45;&gt;Fedora Container Base -->
<g id="edge9" class="edge">
<title>dbus&#45;common&#45;&gt;Fedora Container Base</title>
<path fill="none" stroke="#444444" stroke-opacity="0.333333" d="M1166.1967,-735.9929C1132.8173,-688.0729 1042.53,-558.4548 1003.5819,-502.5402"/>
<polygon fill="#444444" fill-opacity="0.333333" stroke="#444444" stroke-opacity="0.333333" points="1006.376,-500.4279 997.7884,-494.2229 1000.6322,-504.429 1006.376,-500.4279"/>
</g>
<!-- dbus&#45;common&#45;&gt;dbus&#45;common -->
<g id="edge10" class="edge">
<title>dbus&#45;common&#45;&gt;dbus&#45;common</title>
<path fill="none" stroke="#444444" stroke-opacity="0.333333" d="M1256.4655,-760.2533C1267.215,-759.2612 1274.4,-757.2534 1274.4,-754.23 1274.4,-752.2931 1271.4513,-750.7731 1266.5057,-749.6698"/>
<polygon fill="#444444" fill-opacity="0.333333" stroke="#444444" stroke-opacity="0.333333" points="1266.8657,-746.1854 1256.4655,-748.2067 1265.8562,-753.1123 1266.8657,-746.1854"/>
</g>
<!-- dbus&#45;common&#45;&gt;systemd -->
<g id="edge11" class="edge">
<title>dbus&#45;common&#45;&gt;systemd</title>
<path fill="none" stroke="#444444" stroke-opacity="0.333333" d="M1158.0743,-735.9047C1143.7872,-723.3329 1124.6552,-706.4979 1108.9905,-692.7139"/>
<polygon fill="#444444" fill-opacity="0.333333" stroke="#444444" stroke-opacity="0.333333" points="1110.9784,-689.8011 1101.1589,-685.8226 1106.3542,-695.0563 1110.9784,-689.8011"/>
</g>
<!-- shadow&#45;utils&#45;&gt;Fedora Container Base -->
<g id="edge12" class="edge">
<title>shadow&#45;utils&#45;&gt;Fedora Container Base</title>
<path fill="none" stroke="#444444" stroke-opacity="0.333333" d="M909.3263,-450.2975C915.0173,-452.2441 920.8338,-454.2336 926.5898,-456.2023"/>
<polygon fill="#444444" fill-opacity="0.333333" stroke="#444444" stroke-opacity="0.333333" points="925.5919,-459.56 936.1865,-459.4847 927.8574,-452.9367 925.5919,-459.56"/>
</g>
<!-- shadow&#45;utils&#45;&gt;shadow&#45;utils -->
<g id="edge13" class="edge">
<title>shadow&#45;utils&#45;&gt;shadow&#45;utils</title>
<path fill="none" stroke="#444444" stroke-opacity="0.333333" d="M927.4456,-438.3934C937.989,-437.44 945.12,-435.3989 945.12,-432.27 945.12,-430.3144 942.3344,-428.7838 937.6712,-427.678"/>
<polygon fill="#444444" fill-opacity="0.333333" stroke="#444444" stroke-opacity="0.333333" points="937.8538,-424.1664 927.4456,-426.1466 936.8169,-431.0892 937.8538,-424.1664"/>
</g>
<!-- shadow&#45;utils&#45;&gt;libsemanage -->
<g id="edge14" class="edge">
<title>shadow&#45;utils&#45;&gt;libsemanage</title>
<path fill="none" stroke="#444444" stroke-opacity="0.333333" d="M850.2213,-414.2549C832.8919,-365.4652 784.9594,-230.5147 764.1657,-171.9717"/>
<polygon fill="#444444" fill-opacity="0.333333" stroke="#444444" stroke-opacity="0.333333" points="767.3715,-170.54 760.7263,-162.2883 760.7752,-172.883 767.3715,-170.54"/>
</g>
<!-- systemd&#45;&gt;Fedora Container Base -->
<g id="edge15" class="edge">
<title>systemd&#45;&gt;Fedora Container Base</title>
<path fill="none" stroke="#444444" stroke-opacity="0.333333" d="M1071.7241,-649.8004C1054.9248,-616.0752 1018.6486,-543.249 998.8521,-503.5066"/>
<polygon fill="#444444" fill-opacity="0.333333" stroke="#444444" stroke-opacity="0.333333" points="1001.9032,-501.7817 994.3116,-494.3913 995.6375,-504.9028 1001.9032,-501.7817"/>
</g>
<!-- systemd&#45;&gt;shadow&#45;utils -->
<g id="edge16" class="edge">
<title>systemd&#45;&gt;shadow&#45;utils</title>
<path fill="none" stroke="#444444" stroke-opacity="0.333333" d="M1063.4889,-649.7279C1023.978,-608.1946 926.6735,-505.9093 881.016,-457.9147"/>
<polygon fill="#444444" fill-opacity="0.333333" stroke="#444444" stroke-opacity="0.333333" points="883.3181,-455.2567 873.8897,-450.4237 878.2464,-460.0814 883.3181,-455.2567"/>
</g>
<!-- systemd&#45;&gt;systemd -->
<g id="edge17" class="edge">
<title>systemd&#45;&gt;systemd</title>
<path fill="none" stroke="#444444" stroke-opacity="0.333333" d="M1142.3667,-674.1213C1152.9013,-673.2603 1160.2,-671.1598 1160.2,-667.82 1160.2,-665.6804 1157.2046,-664.0495 1152.282,-662.9272"/>
<polygon fill="#444444" fill-opacity="0.333333" stroke="#444444" stroke-opacity="0.333333" points="1152.7596,-659.46 1142.3667,-661.5187 1151.7751,-666.3904 1152.7596,-659.46"/>
</g>
<!-- systemd&#45;&gt;util&#45;linux -->
<g id="edge18" class="edge">
<title>systemd&#45;&gt;util&#45;linux</title>
<path fill="none" stroke="#444444" stroke-opacity="0.333333" d="M1080.2853,-649.7433C1078.8404,-586.7531 1074.0194,-376.5827 1072.2545,-299.6443"/>
<polygon fill="#444444" fill-opacity="0.333333" stroke="#444444" stroke-opacity="0.333333" points="1075.7456,-299.2099 1072.0171,-289.2928 1068.7474,-299.3705 1075.7456,-299.2099"/>
</g>
<!-- systemd&#45;&gt;acl -->
<g id="edge19" class="edge">
<title>systemd&#45;&gt;acl</title>
<path fill="none" stroke="#444444" stroke-opacity="0.333333" d="M1067.5881,-685.8399C1037.6739,-726.9516 964.274,-827.8265 929.2254,-875.9944"/>
<polygon fill="#444444" fill-opacity="0.333333" stroke="#444444" stroke-opacity="0.333333" points="926.2001,-874.2034 923.1465,-884.3487 931.8603,-878.322 926.2001,-874.2034"/>
</g>
<!-- systemd&#45;&gt;cryptsetup&#45;libs -->
<g id="edge20" class="edge">
<title>systemd&#45;&gt;cryptsetup&#45;libs</title>
<path fill="none" stroke="#444444" stroke-opacity="0.333333" d="M1088.1478,-649.6975C1113.343,-588.3908 1195.5,-388.4806 1225.8755,-314.5689"/>
<polygon fill="#444444" fill-opacity="0.333333" stroke="#444444" stroke-opacity="0.333333" points="1229.2426,-315.5833 1229.8066,-305.0034 1222.7681,-312.9224 1229.2426,-315.5833"/>
</g>
<!-- systemd&#45;&gt;dbus -->
<g id="edge21" class="edge">
<title>systemd&#45;&gt;dbus</title>
<path fill="none" stroke="#444444" stroke-opacity="0.333333" d="M1078.9727,-685.9348C1072.6716,-752.0147 1050.8905,-980.4342 1043.2083,-1060.9983"/>
<polygon fill="#444444" fill-opacity="0.333333" stroke="#444444" stroke-opacity="0.333333" points="1039.686,-1061.0656 1042.2209,-1071.3527 1046.6544,-1061.7301 1039.686,-1061.0656"/>
</g>
<!-- systemd&#45;&gt;iptables&#45;libs -->
<g id="edge22" class="edge">
<title>systemd&#45;&gt;iptables&#45;libs</title>
<path fill="none" stroke="#444444" stroke-opacity="0.333333" d="M1118.024,-649.7659C1171.5748,-623.8628 1270.1703,-576.1709 1328.5529,-547.9305"/>
<polygon fill="#444444" fill-opacity="0.333333" stroke="#444444" stroke-opacity="0.333333" points="1330.4367,-550.9073 1337.9148,-543.4021 1327.3886,-544.6058 1330.4367,-550.9073"/>
</g>
<!-- systemd&#45;&gt;kmod&#45;libs -->
<g id="edge23" class="edge">
<title>systemd&#45;&gt;kmod&#45;libs</title>
<path fill="none" stroke="#444444" stroke-opacity="0.333333" d="M1142.4105,-666.2838C1183.9573,-665.2496 1239.0922,-663.8771 1283.7084,-662.7664"/>
<polygon fill="#444444" fill-opacity="0.333333" stroke="#444444" stroke-opacity="0.333333" points="1284.0218,-666.2598 1293.9316,-662.512 1283.8476,-659.262 1284.0218,-666.2598"/>
</g>
<!-- systemd&#45;&gt;libseccomp -->
<g id="edge24" class="edge">
<title>systemd&#45;&gt;libseccomp</title>
<path fill="none" stroke="#444444" stroke-opacity="0.333333" d="M1084.082,-685.9321C1091.5724,-726.0465 1109.6048,-822.6184 1118.5649,-870.6038"/>
<polygon fill="#444444" fill-opacity="0.333333" stroke="#444444" stroke-opacity="0.333333" points="1115.1576,-871.4244 1120.4337,-880.6121 1122.0386,-870.1395 1115.1576,-871.4244"/>
</g>
<!-- systemd&#45;&gt;qrencode&#45;libs -->
<g id="edge25" class="edge">
<title>systemd&#45;&gt;qrencode&#45;libs</title>
<path fill="none" stroke="#444444" stroke-opacity="0.333333" d="M1110.7376,-685.8665C1151.213,-710.1839 1223.3197,-753.5053 1267.9291,-780.3065"/>
<polygon fill="#444444" fill-opacity="0.333333" stroke="#444444" stroke-opacity="0.333333" points="1266.3637,-783.449 1276.7382,-785.5989 1269.9687,-777.4487 1266.3637,-783.449"/>
</g>
<!-- systemd&#45;&gt;systemd&#45;pam -->
<g id="edge26" class="edge">
<title>systemd&#45;&gt;systemd&#45;pam</title>
<path fill="none" stroke="#444444" stroke-opacity="0.333333" d="M1022.7754,-685.8255C971.7911,-705.1945 898.867,-735.6835 853.8157,-756.5901"/>
<polygon fill="#444444" fill-opacity="0.333333" stroke="#444444" stroke-opacity="0.333333" points="852.2065,-753.479 844.6432,-760.8984 855.1825,-759.8149 852.2065,-753.479"/>
</g>
<!-- systemd&#45;&gt;systemd&#45;rpm&#45;macros -->
<g id="edge27" class="edge">
<title>systemd&#45;&gt;systemd&#45;rpm&#45;macros</title>
<path fill="none" stroke="#444444" stroke-opacity="0.333333" d="M1097.0319,-685.9344C1152.7331,-747.715 1335.3948,-950.3132 1400.6594,-1022.701"/>
<polygon fill="#444444" fill-opacity="0.333333" stroke="#444444" stroke-opacity="0.333333" points="1398.3724,-1025.3913 1407.6681,-1030.4747 1403.5714,-1020.7039 1398.3724,-1025.3913"/>
</g>
<!-- libsemanage&#45;&gt;Fedora Container Base -->
<g id="edge58" class="edge">
<title>libsemanage&#45;&gt;Fedora Container Base</title>
<path fill="none" stroke="#444444" stroke-opacity="0.333333" d="M767.0764,-162.6027C805.6425,-218.0406 921.2157,-384.1745 966.6525,-449.4889"/>
<polygon fill="#444444" fill-opacity="0.333333" stroke="#444444" stroke-opacity="0.333333" points="963.9991,-451.8037 972.583,-458.014 969.7454,-447.8062 963.9991,-451.8037"/>
</g>
<!-- libsemanage&#45;&gt;libsemanage -->
<g id="edge59" class="edge">
<title>libsemanage&#45;&gt;libsemanage</title>
<path fill="none" stroke="#444444" stroke-opacity="0.333333" d="M829.9025,-150.3374C840.6309,-149.3577 847.83,-147.3386 847.83,-144.28 847.83,-142.3206 844.8755,-140.7878 839.9313,-139.6815"/>
<polygon fill="#444444" fill-opacity="0.333333" stroke="#444444" stroke-opacity="0.333333" points="840.3023,-136.1987 829.9025,-138.2226 839.2945,-143.1258 840.3023,-136.1987"/>
</g>
<!-- util&#45;linux&#45;&gt;Fedora Container Base -->
<g id="edge28" class="edge">
<title>util&#45;linux&#45;&gt;Fedora Container Base</title>
<path fill="none" stroke="#444444" stroke-opacity="0.333333" d="M1063.9406,-289.3175C1048.7774,-325.3623 1014.8553,-405.9994 996.9197,-448.6346"/>
<polygon fill="#444444" fill-opacity="0.333333" stroke="#444444" stroke-opacity="0.333333" points="993.5838,-447.5385 992.9323,-458.1133 1000.0361,-450.2529 993.5838,-447.5385"/>
</g>
<!-- util&#45;linux&#45;&gt;util&#45;linux -->
<g id="edge29" class="edge">
<title>util&#45;linux&#45;&gt;util&#45;linux</title>
<path fill="none" stroke="#444444" stroke-opacity="0.333333" d="M1136.2797,-277.3553C1146.8415,-276.4613 1154.1,-274.3795 1154.1,-271.11 1154.1,-269.0155 1151.1211,-267.4084 1146.2032,-266.2887"/>
<polygon fill="#444444" fill-opacity="0.333333" stroke="#444444" stroke-opacity="0.333333" points="1146.6755,-262.8207 1136.2797,-264.8647 1145.6811,-269.7498 1146.6755,-262.8207"/>
</g>
<!-- util&#45;linux&#45;&gt;libfdisk -->
<g id="edge30" class="edge">
<title>util&#45;linux&#45;&gt;libfdisk</title>
<path fill="none" stroke="#444444" stroke-opacity="0.333333" d="M1068.7808,-252.907C1062.0143,-209.2162 1044.8172,-98.1766 1036.7292,-45.953"/>
<polygon fill="#444444" fill-opacity="0.333333" stroke="#444444" stroke-opacity="0.333333" points="1040.183,-45.3846 1035.1936,-36.0381 1033.2654,-46.456 1040.183,-45.3846"/>
</g>
<!-- util&#45;linux&#45;&gt;libutempter -->
<g id="edge31" class="edge">
<title>util&#45;linux&#45;&gt;libutempter</title>
<path fill="none" stroke="#444444" stroke-opacity="0.333333" d="M1045.6892,-252.9883C1018.2983,-233.8315 974.9561,-203.5186 944.7196,-182.3716"/>
<polygon fill="#444444" fill-opacity="0.333333" stroke="#444444" stroke-opacity="0.333333" points="946.3772,-179.2598 936.1765,-176.3967 942.3653,-184.9961 946.3772,-179.2598"/>
</g>
<!-- acl&#45;&gt;Fedora Container Base -->
<g id="edge60" class="edge">
<title>acl&#45;&gt;Fedora Container Base</title>
<path fill="none" stroke="#444444" stroke-opacity="0.333333" d="M913.1775,-884.3911C924.9382,-817.8328 965.9547,-585.7053 980.2945,-504.5511"/>
<polygon fill="#444444" fill-opacity="0.333333" stroke="#444444" stroke-opacity="0.333333" points="983.7661,-505.0183 982.0596,-494.5618 976.8729,-503.8002 983.7661,-505.0183"/>
</g>
<!-- cryptsetup&#45;libs&#45;&gt;Fedora Container Base -->
<g id="edge61" class="edge">
<title>cryptsetup&#45;libs&#45;&gt;Fedora Container Base</title>
<path fill="none" stroke="#444444" stroke-opacity="0.333333" d="M1213.1362,-304.941C1167.3903,-339.3417 1068.1545,-413.9664 1017.0777,-452.3758"/>
<polygon fill="#444444" fill-opacity="0.333333" stroke="#444444" stroke-opacity="0.333333" points="1014.9014,-449.6331 1009.0127,-458.4407 1019.1086,-455.2278 1014.9014,-449.6331"/>
</g>
<!-- cryptsetup&#45;libs&#45;&gt;device&#45;mapper&#45;libs -->
<g id="edge62" class="edge">
<title>cryptsetup&#45;libs&#45;&gt;device&#45;mapper&#45;libs</title>
<path fill="none" stroke="#444444" stroke-opacity="0.333333" d="M1268.084,-268.6255C1286.3571,-257.8551 1309.7072,-244.0922 1329.3019,-232.5429"/>
<polygon fill="#444444" fill-opacity="0.333333" stroke="#444444" stroke-opacity="0.333333" points="1331.1712,-235.5038 1338.0089,-227.4108 1327.6167,-229.4734 1331.1712,-235.5038"/>
</g>
<!-- cryptsetup&#45;libs&#45;&gt;libargon2 -->
<g id="edge63" class="edge">
<title>cryptsetup&#45;libs&#45;&gt;libargon2</title>
<path fill="none" stroke="#444444" stroke-opacity="0.333333" d="M1237.2038,-268.593C1236.9954,-229.1946 1236.5006,-135.6784 1236.2504,-88.3902"/>
<polygon fill="#444444" fill-opacity="0.333333" stroke="#444444" stroke-opacity="0.333333" points="1239.7496,-88.2099 1236.1966,-78.2286 1232.7497,-88.247 1239.7496,-88.2099"/>
</g>
<!-- dbus&#45;&gt;dbus&#45;broker -->
<g id="edge64" class="edge">
<title>dbus&#45;&gt;dbus&#45;broker</title>
<path fill="none" stroke="#444444" stroke-opacity="0.333333" d="M1036.9159,-1071.3256C1026.3884,-1018.2355 995.5019,-862.4756 982.782,-798.3296"/>
<polygon fill="#444444" fill-opacity="0.333333" stroke="#444444" stroke-opacity="0.333333" points="986.2115,-797.63 980.8332,-788.5018 979.3452,-798.9916 986.2115,-797.63"/>
</g>
<!-- iptables&#45;libs&#45;&gt;Fedora Container Base -->
<g id="edge65" class="edge">
<title>iptables&#45;libs&#45;&gt;Fedora Container Base</title>
<path fill="none" stroke="#444444" stroke-opacity="0.333333" d="M1301.5647,-515.9978C1243.0499,-508.6495 1160.4217,-498.273 1094.2956,-489.9689"/>
<polygon fill="#444444" fill-opacity="0.333333" stroke="#444444" stroke-opacity="0.333333" points="1094.6061,-486.4805 1084.2479,-488.7071 1093.7338,-493.4259 1094.6061,-486.4805"/>
</g>
<!-- iptables&#45;libs&#45;&gt;libpcap -->
<g id="edge66" class="edge">
<title>iptables&#45;libs&#45;&gt;libpcap</title>
<path fill="none" stroke="#444444" stroke-opacity="0.333333" d="M1392.2801,-507.1899C1413.1815,-484.8028 1448.9255,-446.5178 1472.7056,-421.0472"/>
<polygon fill="#444444" fill-opacity="0.333333" stroke="#444444" stroke-opacity="0.333333" points="1475.4058,-423.2838 1479.6719,-413.5857 1470.2892,-418.5067 1475.4058,-423.2838"/>
</g>
<!-- kmod&#45;libs&#45;&gt;Fedora Container Base -->
<g id="edge67" class="edge">
<title>kmod&#45;libs&#45;&gt;Fedora Container Base</title>
<path fill="none" stroke="#444444" stroke-opacity="0.333333" d="M1325.1033,-642.7895C1255.6136,-608.7394 1105.3151,-535.0927 1030.0849,-498.2297"/>
<polygon fill="#444444" fill-opacity="0.333333" stroke="#444444" stroke-opacity="0.333333" points="1031.3763,-494.9649 1020.8563,-493.7076 1028.2962,-501.2508 1031.3763,-494.9649"/>
</g>
<!-- libseccomp&#45;&gt;Fedora Container Base -->
<g id="edge68" class="edge">
<title>libseccomp&#45;&gt;Fedora Container Base</title>
<path fill="none" stroke="#444444" stroke-opacity="0.333333" d="M1117.8484,-880.4917C1096.0935,-814.1541 1020.7835,-584.5108 994.4596,-504.2409"/>
<polygon fill="#444444" fill-opacity="0.333333" stroke="#444444" stroke-opacity="0.333333" points="997.6614,-502.7721 991.2194,-494.3607 991.0099,-504.9534 997.6614,-502.7721"/>
</g>
<!-- qrencode&#45;libs&#45;&gt;Fedora Container Base -->
<g id="edge69" class="edge">
<title>qrencode&#45;libs&#45;&gt;Fedora Container Base</title>
<path fill="none" stroke="#444444" stroke-opacity="0.333333" d="M1289.1507,-785.649C1235.1183,-730.6371 1072.5343,-565.1059 1010.0892,-501.5288"/>
<polygon fill="#444444" fill-opacity="0.333333" stroke="#444444" stroke-opacity="0.333333" points="1012.4887,-498.9769 1002.9844,-494.2952 1007.4947,-503.882 1012.4887,-498.9769"/>
</g>
<!-- systemd&#45;pam&#45;&gt;Fedora Container Base -->
<g id="edge70" class="edge">
<title>systemd&#45;pam&#45;&gt;Fedora Container Base</title>
<path fill="none" stroke="#444444" stroke-opacity="0.333333" d="M823.3462,-761.0077C852.3496,-710.0143 935.0953,-564.5318 969.7384,-503.6226"/>
<polygon fill="#444444" fill-opacity="0.333333" stroke="#444444" stroke-opacity="0.333333" points="972.9682,-505.0234 974.8698,-494.6006 966.8835,-501.5626 972.9682,-505.0234"/>
</g>
<!-- systemd&#45;pam&#45;&gt;systemd -->
<g id="edge71" class="edge">
<title>systemd&#45;pam&#45;&gt;systemd</title>
<path fill="none" stroke="#444444" stroke-opacity="0.333333" d="M871.0146,-761.0345C921.9989,-741.6655 994.923,-711.1765 1039.9743,-690.2699"/>
<polygon fill="#444444" fill-opacity="0.333333" stroke="#444444" stroke-opacity="0.333333" points="1041.5835,-693.381 1049.1468,-685.9616 1038.6075,-687.0451 1041.5835,-693.381"/>
</g>
<!-- libfdisk&#45;&gt;Fedora Container Base -->
<g id="edge72" class="edge">
<title>libfdisk&#45;&gt;Fedora Container Base</title>
<path fill="none" stroke="#444444" stroke-opacity="0.333333" d="M1030.5242,-36.2479C1023.2704,-106.8113 997.0247,-362.1262 988.2044,-447.9286"/>
<polygon fill="#444444" fill-opacity="0.333333" stroke="#444444" stroke-opacity="0.333333" points="984.7122,-447.6744 987.1712,-457.9799 991.6755,-448.3903 984.7122,-447.6744"/>
</g>
<!-- libutempter&#45;&gt;Fedora Container Base -->
<g id="edge73" class="edge">
<title>libutempter&#45;&gt;Fedora Container Base</title>
<path fill="none" stroke="#444444" stroke-opacity="0.333333" d="M914.575,-176.3259C927.0436,-229.2147 963.6253,-384.3841 978.6906,-448.287"/>
<polygon fill="#444444" fill-opacity="0.333333" stroke="#444444" stroke-opacity="0.333333" points="975.2974,-449.1474 980.9987,-458.0774 982.1106,-447.5411 975.2974,-449.1474"/>
</g>
<!-- libutempter&#45;&gt;shadow&#45;utils -->
<g id="edge74" class="edge">
<title>libutempter&#45;&gt;shadow&#45;utils</title>
<path fill="none" stroke="#444444" stroke-opacity="0.333333" d="M906.7225,-176.72C897.5305,-223.6045 873.1796,-347.8071 862.1671,-403.9765"/>
<polygon fill="#444444" fill-opacity="0.333333" stroke="#444444" stroke-opacity="0.333333" points="858.7012,-403.4635 860.2118,-413.9501 865.5704,-404.8103 858.7012,-403.4635"/>
</g>
<!-- apr&#45;util&#45;&gt;Fedora Container Base -->
<g id="edge36" class="edge">
<title>apr&#45;util&#45;&gt;Fedora Container Base</title>
<path fill="none" stroke="#444444" stroke-opacity="0.333333" d="M662.3547,-364.2354C731.9007,-388.3649 854.6322,-430.9474 927.1056,-456.0925"/>
<polygon fill="#444444" fill-opacity="0.333333" stroke="#444444" stroke-opacity="0.333333" points="925.9593,-459.3994 936.5541,-459.3707 928.2538,-452.7862 925.9593,-459.3994"/>
</g>
<!-- apr&#45;util&#45;&gt;apr -->
<g id="edge37" class="edge">
<title>apr&#45;util&#45;&gt;apr</title>
<path fill="none" stroke="#444444" stroke-opacity="0.333333" d="M581.36,-327.907C573.8526,-323.1607 565.6574,-317.9796 557.7857,-313.003"/>
<polygon fill="#444444" fill-opacity="0.333333" stroke="#444444" stroke-opacity="0.333333" points="559.4124,-309.8906 549.0896,-307.5052 555.6717,-315.8073 559.4124,-309.8906"/>
</g>
<!-- httpd&#45;&gt;Fedora Container Base -->
<g id="edge38" class="edge">
<title>httpd&#45;&gt;Fedora Container Base</title>
<path fill="none" stroke="#444444" stroke-opacity="0.333333" d="M587.9033,-563.693C674.5309,-544.6375 816.3572,-513.4401 905.0765,-493.9245"/>
<polygon fill="#444444" fill-opacity="0.333333" stroke="#444444" stroke-opacity="0.333333" points="906.0767,-497.2883 915.0913,-491.7216 904.5728,-490.4517 906.0767,-497.2883"/>
</g>
<!-- httpd&#45;&gt;apr -->
<g id="edge39" class="edge">
<title>httpd&#45;&gt;apr</title>
<path fill="none" stroke="#444444" stroke-opacity="0.333333" d="M513.2604,-562.0342C514.5859,-512.8839 518.2472,-377.1159 519.8462,-317.8223"/>
<polygon fill="#444444" fill-opacity="0.333333" stroke="#444444" stroke-opacity="0.333333" points="523.3488,-317.7697 520.1198,-307.679 516.3514,-317.5809 523.3488,-317.7697"/>
</g>
<!-- httpd&#45;&gt;systemd -->
<g id="edge40" class="edge">
<title>httpd&#45;&gt;systemd</title>
<path fill="none" stroke="#444444" stroke-opacity="0.333333" d="M587.8936,-591.8074C697.7044,-608.7451 900.6932,-640.055 1008.7033,-656.7149"/>
<polygon fill="#444444" fill-opacity="0.333333" stroke="#444444" stroke-opacity="0.333333" points="1008.4364,-660.2151 1018.8531,-658.2805 1009.5036,-653.2969 1008.4364,-660.2151"/>
</g>
<!-- httpd&#45;&gt;apr&#45;util -->
<g id="edge41" class="edge">
<title>httpd&#45;&gt;apr&#45;util</title>
<path fill="none" stroke="#444444" stroke-opacity="0.333333" d="M520.4152,-561.8521C537.4544,-520.9147 578.6257,-421.9986 598.7463,-373.658"/>
<polygon fill="#444444" fill-opacity="0.333333" stroke="#444444" stroke-opacity="0.333333" points="601.9789,-374.9997 602.5903,-364.4225 595.5163,-372.3098 601.9789,-374.9997"/>
</g>
<!-- httpd&#45;&gt;fedora&#45;logos&#45;httpd -->
<g id="edge42" class="edge">
<title>httpd&#45;&gt;fedora&#45;logos&#45;httpd</title>
<path fill="none" stroke="#444444" stroke-opacity="0.333333" d="M476.3901,-598.2863C402.1895,-635.1343 233.5501,-718.8807 152.2897,-759.2346"/>
<polygon fill="#444444" fill-opacity="0.333333" stroke="#444444" stroke-opacity="0.333333" points="150.694,-756.1192 143.2943,-763.7018 153.8074,-762.3887 150.694,-756.1192"/>
</g>
<!-- httpd&#45;&gt;httpd -->
<g id="edge43" class="edge">
<title>httpd&#45;&gt;httpd</title>
<path fill="none" stroke="#444444" stroke-opacity="0.333333" d="M587.9384,-586.2774C598.6094,-585.2977 605.77,-583.2786 605.77,-580.22 605.77,-578.2606 602.8313,-576.7278 597.9135,-575.6215"/>
<polygon fill="#444444" fill-opacity="0.333333" stroke="#444444" stroke-opacity="0.333333" points="598.3397,-572.1467 587.9384,-574.1626 597.3266,-579.073 598.3397,-572.1467"/>
</g>
<!-- httpd&#45;&gt;httpd&#45;filesystem -->
<g id="edge44" class="edge">
<title>httpd&#45;&gt;httpd&#45;filesystem</title>
<path fill="none" stroke="#444444" stroke-opacity="0.333333" d="M572.9421,-562.1087C582.9104,-559.1083 593.3194,-555.9753 603.4979,-552.9117"/>
<polygon fill="#444444" fill-opacity="0.333333" stroke="#444444" stroke-opacity="0.333333" points="604.5971,-556.236 613.164,-550.0023 602.5796,-549.533 604.5971,-556.236"/>
</g>
<!-- httpd&#45;&gt;httpd&#45;tools -->
<g id="edge45" class="edge">
<title>httpd&#45;&gt;httpd&#45;tools</title>
<path fill="none" stroke="#444444" stroke-opacity="0.333333" d="M511.3014,-562.0492C509.0032,-533.6139 504.5385,-478.3724 501.8137,-444.66"/>
<polygon fill="#444444" fill-opacity="0.333333" stroke="#444444" stroke-opacity="0.333333" points="505.2895,-444.2177 500.9952,-434.5322 498.3122,-444.7817 505.2895,-444.2177"/>
</g>
<!-- httpd&#45;&gt;mailcap -->
<g id="edge46" class="edge">
<title>httpd&#45;&gt;mailcap</title>
<path fill="none" stroke="#444444" stroke-opacity="0.333333" d="M437.674,-574.5676C351.095,-568.0509 210.0004,-557.4309 126.3707,-551.1362"/>
<polygon fill="#444444" fill-opacity="0.333333" stroke="#444444" stroke-opacity="0.333333" points="126.4489,-547.6323 116.2144,-550.3717 125.9234,-554.6125 126.4489,-547.6323"/>
</g>
<!-- httpd&#45;&gt;mod_http2 -->
<g id="edge47" class="edge">
<title>httpd&#45;&gt;mod_http2</title>
<path fill="none" stroke="#444444" stroke-opacity="0.333333" d="M516.1084,-598.2635C525.9299,-628.2319 551.8555,-688.3349 569.7909,-723.5428"/>
<polygon fill="#444444" fill-opacity="0.333333" stroke="#444444" stroke-opacity="0.333333" points="566.8803,-725.5297 574.6177,-732.7673 573.0825,-722.2843 566.8803,-725.5297"/>
</g>
<!-- httpd&#45;filesystem&#45;&gt;Fedora Container Base -->
<g id="edge48" class="edge">
<title>httpd&#45;filesystem&#45;&gt;Fedora Container Base</title>
<path fill="none" stroke="#444444" stroke-opacity="0.333333" d="M756.3804,-517.1046C798.7715,-509.5444 850.4032,-500.3362 893.8944,-492.5798"/>
<polygon fill="#444444" fill-opacity="0.333333" stroke="#444444" stroke-opacity="0.333333" points="894.671,-495.9966 903.9011,-490.7952 893.4419,-489.1054 894.671,-495.9966"/>
</g>
<!-- httpd&#45;filesystem&#45;&gt;shadow&#45;utils -->
<g id="edge49" class="edge">
<title>httpd&#45;filesystem&#45;&gt;shadow&#45;utils</title>
<path fill="none" stroke="#444444" stroke-opacity="0.333333" d="M706.3668,-513.8987C736.6675,-497.4371 781.5844,-473.0349 814.4139,-455.1995"/>
<polygon fill="#444444" fill-opacity="0.333333" stroke="#444444" stroke-opacity="0.333333" points="816.2147,-458.2044 823.3308,-450.3551 812.873,-452.0535 816.2147,-458.2044"/>
</g>
<!-- httpd&#45;tools&#45;&gt;Fedora Container Base -->
<g id="edge50" class="edge">
<title>httpd&#45;tools&#45;&gt;Fedora Container Base</title>
<path fill="none" stroke="#444444" stroke-opacity="0.333333" d="M569.119,-424.8765C649.105,-434.756 781.4068,-451.0973 875.3537,-462.7012"/>
<polygon fill="#444444" fill-opacity="0.333333" stroke="#444444" stroke-opacity="0.333333" points="875.1124,-466.1979 885.4661,-463.9502 875.9706,-459.2507 875.1124,-466.1979"/>
</g>
<!-- httpd&#45;tools&#45;&gt;apr -->
<g id="edge51" class="edge">
<title>httpd&#45;tools&#45;&gt;apr</title>
<path fill="none" stroke="#444444" stroke-opacity="0.333333" d="M502.5417,-398.1155C506.0341,-377.1214 511.8237,-342.3177 515.9065,-317.7746"/>
<polygon fill="#444444" fill-opacity="0.333333" stroke="#444444" stroke-opacity="0.333333" points="519.4054,-318.0696 517.5939,-307.6308 512.5003,-316.9209 519.4054,-318.0696"/>
</g>
<!-- httpd&#45;tools&#45;&gt;apr&#45;util -->
<g id="edge52" class="edge">
<title>httpd&#45;tools&#45;&gt;apr&#45;util</title>
<path fill="none" stroke="#444444" stroke-opacity="0.333333" d="M528.0229,-398.2172C541.7076,-389.5449 558.2812,-379.0419 572.9496,-369.7463"/>
<polygon fill="#444444" fill-opacity="0.333333" stroke="#444444" stroke-opacity="0.333333" points="575.2205,-372.4508 581.7937,-364.1416 571.4735,-366.5381 575.2205,-372.4508"/>
</g>
<!-- mailcap&#45;&gt;mailcap -->
<g id="edge53" class="edge">
<title>mailcap&#45;&gt;mailcap</title>
<path fill="none" stroke="#444444" stroke-opacity="0.333333" d="M116.3117,-552.3441C126.7258,-551.5182 134,-549.4002 134,-545.99 134,-543.8587 131.1585,-542.232 126.4849,-541.1102"/>
<polygon fill="#444444" fill-opacity="0.333333" stroke="#444444" stroke-opacity="0.333333" points="126.7103,-537.6064 116.3117,-539.6359 125.7064,-544.534 126.7103,-537.6064"/>
</g>
<!-- mod_http2&#45;&gt;Fedora Container Base -->
<g id="edge54" class="edge">
<title>mod_http2&#45;&gt;Fedora Container Base</title>
<path fill="none" stroke="#444444" stroke-opacity="0.333333" d="M613.6095,-732.9001C683.1765,-684.8688 873.0559,-553.77 951.0998,-499.886"/>
<polygon fill="#444444" fill-opacity="0.333333" stroke="#444444" stroke-opacity="0.333333" points="953.371,-502.5711 959.6116,-494.0092 949.3938,-496.8107 953.371,-502.5711"/>
</g>
<!-- mod_http2&#45;&gt;httpd -->
<g id="edge55" class="edge">
<title>mod_http2&#45;&gt;httpd</title>
<path fill="none" stroke="#444444" stroke-opacity="0.333333" d="M584.1716,-732.8765C574.3501,-702.9081 548.4245,-642.8051 530.4891,-607.5972"/>
<polygon fill="#444444" fill-opacity="0.333333" stroke="#444444" stroke-opacity="0.333333" points="533.3997,-605.6103 525.6623,-598.3727 527.1975,-608.8557 533.3997,-605.6103"/>
</g>
<!-- mod_http2&#45;&gt;mod_http2 -->
<g id="edge56" class="edge">
<title>mod_http2&#45;&gt;mod_http2</title>
<path fill="none" stroke="#444444" stroke-opacity="0.333333" d="M657.1827,-757.0751C667.8002,-756.1358 675.01,-754.0841 675.01,-750.92 675.01,-748.893 672.0511,-747.3226 667.1329,-746.2086"/>
<polygon fill="#444444" fill-opacity="0.333333" stroke="#444444" stroke-opacity="0.333333" points="667.5817,-742.7372 657.1827,-744.7649 666.5765,-749.6646 667.5817,-742.7372"/>
</g>
<!-- libpcap&#45;&gt;Fedora Container Base -->
<g id="edge57" class="edge">
<title>libpcap&#45;&gt;Fedora Container Base</title>
<path fill="none" stroke="#444444" stroke-opacity="0.333333" d="M1437.1222,-404.6949C1350.0646,-418.4877 1187.2549,-444.2821 1082.685,-460.8494"/>
<polygon fill="#444444" fill-opacity="0.333333" stroke="#444444" stroke-opacity="0.333333" points="1082.0807,-457.4014 1072.7516,-462.4232 1083.1762,-464.3152 1082.0807,-457.4014"/>
</g>
<!-- Fedora Container Base -->
<g id="node1" class="node">
<title>Fedora Container Base</title>
<ellipse fill="none" stroke="#000000" cx="985.29" cy="-476.28" rx="136.5" ry="18"/>
<text text-anchor="middle" x="985.29" y="-472.58" font-family="Helvetica,sans-Serif" font-weight="bold" font-size="14.00" fill="#000000">Fedora Container Base (202.4 MB)</text>
</g>
<!-- apr -->
<g id="node2" class="node">
<title>apr</title>
<text text-anchor="middle" x="520.61" y="-285.8" font-family="Helvetica,sans-Serif" font-weight="bold" font-size="14.00" fill="#000000">apr (288.2 kB)</text>
</g>
<!-- device&#45;mapper&#45;libs -->
<g id="node3" class="node">
<title>device&#45;mapper&#45;libs</title>
<text text-anchor="middle" x="1368.6" y="-205.68" font-family="Helvetica,sans-Serif" font-weight="bold" font-size="14.00" fill="#000000">device&#45;mapper&#45;libs (414.2 kB)</text>
</g>
<!-- device&#45;mapper -->
<g id="node4" class="node">
<title>device&#45;mapper</title>
<text text-anchor="middle" x="1242.3" y="-400.29" font-family="Helvetica,sans-Serif" font-weight="bold" font-size="14.00" fill="#000000">device&#45;mapper (350.0 kB)</text>
</g>
<!-- libargon2 -->
<g id="node5" class="node">
<title>libargon2</title>
<text text-anchor="middle" x="1236.1" y="-56.265" font-family="Helvetica,sans-Serif" font-weight="bold" font-size="14.00" fill="#000000">libargon2 (54.9 kB)</text>
</g>
<!-- dbus&#45;broker -->
<g id="node6" class="node">
<title>dbus&#45;broker</title>
<text text-anchor="middle" x="977.21" y="-766.53" font-family="Helvetica,sans-Serif" font-weight="bold" font-size="14.00" fill="#000000">dbus&#45;broker (423.2 kB)</text>
</g>
<!-- dbus&#45;common -->
<g id="node7" class="node">
<title>dbus&#45;common</title>
<text text-anchor="middle" x="1178.9" y="-750.53" font-family="Helvetica,sans-Serif" font-weight="bold" font-size="14.00" fill="#000000">dbus&#45;common (11.2 kB)</text>
</g>
<!-- shadow&#45;utils -->
<g id="node8" class="node">
<title>shadow&#45;utils</title>
<text text-anchor="middle" x="856.62" y="-428.57" font-family="Helvetica,sans-Serif" font-weight="bold" font-size="14.00" fill="#000000">shadow&#45;utils (4.0 MB)</text>
</g>
<!-- systemd -->
<g id="node9" class="node">
<title>systemd</title>
<text text-anchor="middle" x="1080.7" y="-664.12" font-family="Helvetica,sans-Serif" font-weight="bold" font-size="14.00" fill="#000000">systemd (11.9 MB)</text>
</g>
<!-- libsemanage -->
<g id="node10" class="node">
<title>libsemanage</title>
<text text-anchor="middle" x="754.33" y="-140.58" font-family="Helvetica,sans-Serif" font-weight="bold" font-size="14.00" fill="#000000">libsemanage (304.6 kB)</text>
</g>
<!-- util&#45;linux -->
<g id="node11" class="node">
<title>util&#45;linux</title>
<text text-anchor="middle" x="1071.6" y="-267.41" font-family="Helvetica,sans-Serif" font-weight="bold" font-size="14.00" fill="#000000">util&#45;linux (12.8 MB)</text>
</g>
<!-- acl -->
<g id="node12" class="node">
<title>acl</title>
<text text-anchor="middle" x="909.99" y="-898.73" font-family="Helvetica,sans-Serif" font-weight="bold" font-size="14.00" fill="#000000">acl (212.0 kB)</text>
</g>
<!-- cryptsetup&#45;libs -->
<g id="node13" class="node">
<title>cryptsetup&#45;libs</title>
<text text-anchor="middle" x="1237.3" y="-283.07" font-family="Helvetica,sans-Serif" font-weight="bold" font-size="14.00" fill="#000000">cryptsetup&#45;libs (1.8 MB)</text>
</g>
<!-- dbus -->
<g id="node14" class="node">
<title>dbus</title>
<text text-anchor="middle" x="1040.5" y="-1085.7" font-family="Helvetica,sans-Serif" font-weight="bold" font-size="14.00" fill="#000000">dbus (0.0 B)</text>
</g>
<!-- iptables&#45;libs -->
<g id="node15" class="node">
<title>iptables&#45;libs</title>
<text text-anchor="middle" x="1375.4" y="-521.57" font-family="Helvetica,sans-Serif" font-weight="bold" font-size="14.00" fill="#000000">iptables&#45;libs (141.5 kB)</text>
</g>
<!-- kmod&#45;libs -->
<g id="node16" class="node">
<title>kmod&#45;libs</title>
<text text-anchor="middle" x="1361.9" y="-657.12" font-family="Helvetica,sans-Serif" font-weight="bold" font-size="14.00" fill="#000000">kmod&#45;libs (197.4 kB)</text>
</g>
<!-- libseccomp -->
<g id="node17" class="node">
<title>libseccomp</title>
<text text-anchor="middle" x="1123.8" y="-894.94" font-family="Helvetica,sans-Serif" font-weight="bold" font-size="14.00" fill="#000000">libseccomp (347.1 kB)</text>
</g>
<!-- qrencode&#45;libs -->
<g id="node18" class="node">
<title>qrencode&#45;libs</title>
<text text-anchor="middle" x="1306.9" y="-800.02" font-family="Helvetica,sans-Serif" font-weight="bold" font-size="14.00" fill="#000000">qrencode&#45;libs (159.3 kB)</text>
</g>
<!-- systemd&#45;pam -->
<g id="node19" class="node">
<title>systemd&#45;pam</title>
<text text-anchor="middle" x="813.09" y="-775.34" font-family="Helvetica,sans-Serif" font-weight="bold" font-size="14.00" fill="#000000">systemd&#45;pam (335.8 kB)</text>
</g>
<!-- systemd&#45;rpm&#45;macros -->
<g id="node20" class="node">
<title>systemd&#45;rpm&#45;macros</title>
<text text-anchor="middle" x="1424.1" y="-1045" font-family="Helvetica,sans-Serif" font-weight="bold" font-size="14.00" fill="#000000">systemd&#45;rpm&#45;macros (4.9 kB)</text>
</g>
<!-- libfdisk -->
<g id="node21" class="node">
<title>libfdisk</title>
<text text-anchor="middle" x="1032.4" y="-14.3" font-family="Helvetica,sans-Serif" font-weight="bold" font-size="14.00" fill="#000000">libfdisk (495.9 kB)</text>
</g>
<!-- libutempter -->
<g id="node22" class="node">
<title>libutempter</title>
<text text-anchor="middle" x="910.33" y="-154.62" font-family="Helvetica,sans-Serif" font-weight="bold" font-size="14.00" fill="#000000">libutempter (58.2 kB)</text>
</g>
<!-- apr&#45;util -->
<g id="node23" class="node">
<title>apr&#45;util</title>
<text text-anchor="middle" x="610.2" y="-342.44" font-family="Helvetica,sans-Serif" font-weight="bold" font-size="14.00" fill="#000000">apr&#45;util (222.5 kB)</text>
</g>
<!-- fedora&#45;logos&#45;httpd -->
<g id="node24" class="node">
<title>fedora&#45;logos&#45;httpd</title>
<text text-anchor="middle" x="106.85" y="-778.1" font-family="Helvetica,sans-Serif" font-weight="bold" font-size="14.00" fill="#000000">fedora&#45;logos&#45;httpd (9.9 kB)</text>
</g>
<!-- httpd -->
<g id="node25" class="node">
<title>httpd</title>
<text text-anchor="middle" x="512.77" y="-574.62" font-family="Helvetica,sans-Serif" font-weight="bold" font-size="22.00" fill="#cc0066">httpd (4.7 MB)</text>
</g>
<!-- httpd&#45;filesystem -->
<g id="node26" class="node">
<title>httpd&#45;filesystem</title>
<text text-anchor="middle" x="673.14" y="-528.25" font-family="Helvetica,sans-Serif" font-weight="bold" font-size="14.00" fill="#000000">httpd&#45;filesystem (400.0 B)</text>
</g>
<!-- httpd&#45;tools -->
<g id="node27" class="node">
<title>httpd&#45;tools</title>
<text text-anchor="middle" x="499.52" y="-412.58" font-family="Helvetica,sans-Serif" font-weight="bold" font-size="14.00" fill="#000000">httpd&#45;tools (204.4 kB)</text>
</g>
<!-- mailcap -->
<g id="node28" class="node">
<title>mailcap</title>
<text text-anchor="middle" x="58" y="-542.29" font-family="Helvetica,sans-Serif" font-weight="bold" font-size="14.00" fill="#000000">mailcap (71.2 kB)</text>
</g>
<!-- mod_http2 -->
<g id="node29" class="node">
<title>mod_http2</title>
<text text-anchor="middle" x="587.51" y="-747.22" font-family="Helvetica,sans-Serif" font-weight="bold" font-size="14.00" fill="#000000">mod_http2 (403.9 kB)</text>
</g>
<!-- libpcap -->
<g id="node30" class="node">
<title>libpcap</title>
<text text-anchor="middle" x="1496.8" y="-391.54" font-family="Helvetica,sans-Serif" font-weight="bold" font-size="14.00" fill="#000000">libpcap (381.0 kB)</text>
</g>
</g>

<script type="text/javascript"><![CDATA[

document.addEventListener('click', function(e) {
      e = e || window.event;
      var target = e.target || e.srcElement;
      text = target.parentElement.querySelector("title").textContent;

      console.log("Clicked on: " + text);
      // reset all strokes
      var nodes = document.getElementsByClassName("edge");

      for (index = 0, len = nodes.length; index < len; ++index) {
          //var title = nodes[index].querySelector("title").textContent.split("->");
          id = nodes[index].id;
          document.getElementById(id).querySelector("path").setAttribute("stroke-width", "1");
          document.getElementById(id).querySelector("path").setAttribute("stroke-opacity", "0.5");
          document.getElementById(id).querySelector("path").setAttribute("stroke", "#444444");
          document.getElementById(id).querySelector("polygon").setAttribute("stroke-width", "1");
          document.getElementById(id).querySelector("polygon").setAttribute("stroke-opacity", "0.5");
          document.getElementById(id).querySelector("polygon").setAttribute("stroke", "#444444");
      }
      // reset text highlight
      pkgs = document.getElementsByClassName("node");
      for (index2 = 0, len2 = pkgs.length; index2 < len2; ++index2) {
          target_id = pkgs[index2].id;
          document.getElementById(target_id).querySelector("text").setAttribute("font-weight", "normal");
      }

      // highlight deps
      var nodes = document.getElementsByClassName("edge");
      for (index = 0, len = nodes.length; index < len; ++index) {
        var title = nodes[index].querySelector("title").textContent.split("->");

        if (title[0] == text) {
          id = nodes[index].id;
          //console.log("ID:   " + id);
          document.getElementById(id).querySelector("path").setAttribute("stroke-width", "3");
          document.getElementById(id).querySelector("path").setAttribute("stroke-opacity", "1");
          document.getElementById(id).querySelector("path").setAttribute("stroke", "#aa3333");
          document.getElementById(id).querySelector("polygon").setAttribute("stroke-width", "5");
          document.getElementById(id).querySelector("polygon").setAttribute("stroke-opacity", "1");
          document.getElementById(id).querySelector("polygon").setAttribute("stroke", "#aa3333");

        }
        if (title[1] == text) {
          id = nodes[index].id;
          document.getElementById(id).querySelector("path").setAttribute("stroke-width", "3");
          document.getElementById(id).querySelector("path").setAttribute("stroke-opacity", "1");
          document.getElementById(id).querySelector("path").setAttribute("stroke", "#333377");
          document.getElementById(id).querySelector("polygon").setAttribute("stroke-width", "5");
          document.getElementById(id).querySelector("polygon").setAttribute("stroke-opacity", "1");
          document.getElementById(id).querySelector("polygon").setAttribute("stroke", "#333377");
        }

        if (title[0] == text || title[1] == text) {
          pkgs = document.getElementsByClassName("node");
          for (index2 = 0, len2 = pkgs.length; index2 < len2; ++index2) {
            var pkg_name = pkgs[index2].querySelector("title").textContent;
            if (pkg_name == title[0] || pkg_name == title[1]) {
              target_id = pkgs[index2].id;
              document.getElementById(target_id).querySelector("text").setAttribute("font-weight", "bold");
            }
          }
        }
      }


  }, false);

]]></script>

</svg>
