<?xml version="1.0" encoding="UTF-8" standalone="no"?>
<!DOCTYPE svg PUBLIC "-//W3C//DTD SVG 1.1//EN"
 "http://www.w3.org/Graphics/SVG/1.1/DTD/svg11.dtd">
<!-- Generated by graphviz version 2.40.1 (0)
 -->
<!-- Title: packages Pages: 1 -->
<svg width="1563pt" height="1275pt"
 viewBox="0.00 0.00 1875.18 1530.38" xmlns="http://www.w3.org/2000/svg" xmlns:xlink="http://www.w3.org/1999/xlink">
<g id="graph0" class="graph" transform="scale(.8333 .8333) rotate(0) translate(142.4615 1379.5533)">
<title>packages</title>
<polygon fill="#dae2ff" stroke="transparent" points="-142.4615,150.8296 -142.4615,-1379.5533 1732.7164,-1379.5533 1732.7164,150.8296 -142.4615,150.8296"/>
<polygon fill="#bbd7d9" stroke="#bbd7d9" points="1210.1556,136.9071 1210.323,37.0654 1210.323,37.0654 1210.1556,136.9071 1227.1471,136.8237 1361.7579,49.3123 1353.0358,-3.7415 1348.0168,-45.6903 1213.3799,-23.5117 1210.288,-19.9417 1206.3885,-18.4878 1206.0353,-18.2097 1202.6512,-18.2097 1202.1772,-18.3522 1197.9875,-18.3522 1197.7698,-18.284 1195.9928,-16.0642 1191.7836,-13.6046 1191.7836,-13.6046 1195.9928,-16.0642 1197.7698,-18.284 1197.9875,-18.3522 1202.1772,-18.3522 1202.6512,-18.2097 1206.0353,-18.2097 1206.3885,-18.4878 1210.288,-19.9417 1213.3799,-23.5117 1348.0168,-45.6903 1344.8561,-78.4115 1354.832,-115.9609 1251.5953,-126.0972 1211.1653,-126.8141 1205.7393,-131.7866 1206.6273,-75.7159 1204.4636,-75.6786 1202.4789,-75.5377 1194.7002,-75.4265 1195.7069,-132.6719 1189.7709,-132.6719 1189.7645,-132.6737 1186.3678,-132.6737 1182.4684,-101.568 1179.1132,-132.5084 1176.2083,-132.5084 1175.3525,-132.7604 1173.2777,-132.7604 1169.4727,-129.3516 1164.912,-128.0317 1164.912,-128.0317 1169.4727,-129.3516 1173.2777,-132.7604 1169.0297,-136.5746 1164.8705,-137.7227 1159.729,-136.2515 1155.6937,-212.1167 1155.478,-225.1069 1148.4541,-132.9904 1144.5148,-132.9904 1144.2759,-132.9209 1144.2759,-132.9209 1144.5148,-132.9904 1148.4541,-132.9904 1155.478,-225.1069 1155.6937,-212.1167 1159.729,-136.2515 1164.8705,-137.7227 1169.0297,-136.5746 1173.2777,-132.7604 1175.3525,-132.7604 1176.2083,-132.5084 1179.1132,-132.5084 1182.4684,-101.568 1186.3678,-132.6737 1189.7645,-132.6737 1189.7709,-132.6719 1195.7069,-132.6719 1194.7002,-75.4265 1202.4789,-75.5377 1204.4636,-75.6786 1206.6273,-75.7159 1205.7393,-131.7866 1211.1653,-126.8141 1251.5953,-126.0972 1354.832,-115.9609 1369.3208,-162.4182 1363.5649,-168.1031 1262.6866,-271.8207 1263.0251,-304.2727 1263.3848,-315.0208 1263.369,-316.27 1260.1809,-319.6523 1245.3329,-334.7569 1236.1553,-344.6059 1174.2225,-415.0524 1168.0085,-416.6649 1166.1135,-417.0325 1155.8928,-418.6849 1150.2997,-419.4066 1141.0233,-420.3005 1138.5978,-420.4548 1128.3517,-420.4392 1118.4746,-421.0608 1117.1948,-421.1825 1108.684,-422.2679 1108.3862,-329.2013 1107.0795,-329.2013 1103.2822,-325.8407 1103.2822,-325.8407 1107.0795,-329.2013 1103.5334,-332.2116 1097.582,-333.9662 1092.4443,-332.4966 1088.4574,-329.0915 1088.1069,-329.0915 1087.2688,-328.8434 1082.4547,-328.8434 1082.0647,-328.9615 1076.7445,-328.9615 1074.8788,-236.9913 1071.2957,-238.355 1070.4337,-264.5892 1070.4337,-264.5892 1071.2957,-238.355 1074.8788,-236.9913 1076.7445,-328.9615 1082.0647,-328.9615 1082.4547,-328.8434 1087.2688,-328.8434 1088.1069,-329.0915 1088.4574,-329.0915 1092.4443,-332.4966 1097.582,-333.9662 1103.5334,-332.2116 1107.0795,-329.2013 1108.3862,-329.2013 1108.684,-422.2679 1099.6439,-423.7126 1093.2081,-425.1556 1080.0939,-428.5197 1069.2932,-432.3283 1067.7977,-432.9034 1046.6505,-441.7217 1047.3221,-443.1289 1066.7676,-476.983 1073.4701,-486.1024 1086.6738,-502.5339 1092.882,-511.4057 1098.4048,-520.7634 1111.989,-549.3538 1128.422,-572.4878 1132.995,-578.1786 1143.4528,-592.5226 1144.9435,-594.9272 1159.9255,-621.1821 1155.8611,-629.0339 1148.1571,-642.8506 1092.0062,-649.974 1080.1986,-650.4113 1078.6002,-650.5198 1070.8605,-650.5801 1066.9021,-650.3728 1057.2258,-650.4626 1054.4187,-650.6619 1053.142,-650.6756 1044.73,-650.5129 1040.7522,-650.6809 1031.2246,-650.5109 1022.7919,-650.8779 1014.09,-652.0579 1002.7966,-653.9372 994.9756,-655.7178 982.2366,-659.4042 977.3946,-661.1023 961.1443,-667.3054 965.1033,-598.1339 965.1033,-598.1339 961.1443,-667.3054 960.4608,-667.6073 944.8947,-675.4539 929.7447,-684.0156 901.3906,-630.5247 886.0096,-594.9605 872.7344,-559.52 867.5205,-548.6279 866.2901,-546.3066 866.5625,-546.0316 873.9252,-539.103 880.5258,-533.3585 938.2923,-487.2402 951.4598,-475.7412 960.8326,-466.2452 964.1842,-462.62 969.159,-458.2807 983.9542,-442.8558 993.2358,-432.1443 994.1947,-430.9294 941.1929,-347.1888 922.3494,-318.9786 918.8399,-314.1807 882.5338,-303.9268 881.0822,-303.4893 860.6536,-296.941 856.6349,-295.4268 851.4599,-293.3783 848.0631,-201.5015 847.4077,-191.2954 846.9675,-148.6446 846.5121,-141.5488 844.9645,-99.6889 813.8873,-46.9943 794.3503,-15.4159 781.1859,4.1917 786.8232,17.0323 939.0916,128.4765 951.6544,130.5943 951.7185,130.6063 971.0964,126.0204 974.121,125.42 979.5345,124.4478 992.6775,122.5837 1004.1315,121.393 999.9726,-26.5003 998.7632,-26.5003 995.4122,-23.5895 995.4122,-23.5895 998.7632,-26.5003 994.4136,-30.3672 990.1628,-31.5512 990.1628,-31.5512 994.4136,-30.3672 998.7632,-26.5003 999.9726,-26.5003 1004.1315,121.393 1007.4275,121.1129 1017.6572,120.6306 1017.9597,72.6839 1017.9597,72.6839 1017.6572,120.6306 1084.2184,120.0117 1137.3949,146.8296 1155.2781,143.4012 1171.3821,140.6116 1186.3387,138.5798 1204.1218,137.1621 1210.1556,136.9071 1210.1556,136.9071"/>
<polygon fill="#fed9a6" stroke="#fed9a6" points="1309.6333,-584.4412 1311.2206,-585.5891 1379.9371,-631.352 1395.8102,-643.7804 1397.9064,-645.5353 1400.764,-648.0872 1403.4979,-650.6854 1404.7505,-651.7984 1411.104,-657.7922 1406.0596,-662.9478 1404.6493,-664.2281 1395.3136,-673.2864 1388.8501,-679.1516 1388.4025,-679.5917 1387.446,-680.4662 1378.418,-688.1331 1369.4917,-695.1051 1309.1871,-737.9281 1296.1373,-748.9869 1300.423,-665.2845 1294.9106,-665.2845 1294.4998,-665.1557 1292.3182,-665.1557 1289.2472,-662.2861 1289.2472,-662.2861 1292.3182,-665.1557 1294.4998,-665.1557 1294.9106,-665.2845 1300.423,-665.2845 1296.1373,-748.9869 1291.8585,-752.8896 1282.1803,-763.76 1273.2587,-771.9412 1268.1884,-777.1419 1264.9208,-777.6215 1250.7731,-780.4685 1245.1046,-781.7615 1210.3059,-774.1459 1206.8125,-773.2896 1194.5936,-749.6126 1188.6318,-736.0336 1168.182,-684.8676 1165.2946,-678.3236 1148.1571,-642.8506 1155.8611,-629.0339 1159.9255,-621.1821 1144.9435,-594.9272 1151.594,-512.0414 1154.8728,-512.0414 1155.7153,-512.9952 1161.3965,-516.3308 1166.7983,-516.3308 1173.317,-512.2879 1173.6063,-511.9521 1177.0006,-511.9521 1181.4778,-566.4501 1183.4298,-511.951 1183.9847,-511.7825 1186.9601,-511.7825 1187.8683,-511.053 1190.1995,-510.1772 1210.2563,-515.6584 1250.0227,-517.9762 1259.5698,-528.0898 1275.7839,-548.4559 1279.1217,-553.2446 1279.5356,-542.9147 1279.5356,-542.9147 1279.1217,-553.2446 1275.7839,-548.4559 1273.3398,-494.4273 1273.3398,-494.4273 1275.7839,-548.4559 1259.5698,-528.0898 1250.0227,-517.9762 1210.2563,-515.6584 1190.1995,-510.1772 1187.8683,-511.053 1186.9601,-511.7825 1183.9847,-511.7825 1183.4298,-511.951 1181.4778,-566.4501 1177.0006,-511.9521 1173.6063,-511.9521 1173.317,-512.2879 1166.7983,-516.3308 1161.3965,-516.3308 1155.7153,-512.9952 1154.8728,-512.0414 1151.594,-512.0414 1144.9435,-594.9272 1143.4528,-592.5226 1132.995,-578.1786 1128.422,-572.4878 1111.989,-549.3538 1098.4048,-520.7634 1092.882,-511.4057 1086.6738,-502.5339 1073.4701,-486.1024 1066.7676,-476.983 1047.3221,-443.1289 1046.6505,-441.7217 1067.7977,-432.9034 1069.2932,-432.3283 1080.0939,-428.5197 1093.2081,-425.1556 1099.6439,-423.7126 1108.684,-422.2679 1117.1948,-421.1825 1118.4746,-421.0608 1128.3517,-420.4392 1138.5978,-420.4548 1141.0233,-420.3005 1150.2997,-419.4066 1155.8928,-418.6849 1166.1135,-417.0325 1168.0085,-416.6649 1174.2225,-415.0524 1236.1553,-344.6059 1245.3329,-334.7569 1260.1809,-319.6523 1263.369,-316.27 1263.3848,-315.0208 1263.0251,-304.2727 1262.6866,-271.8207 1363.5649,-168.1031 1369.3208,-162.4182 1385.0232,-167.5963 1407.3571,-174.5425 1415.5204,-176.6098 1428.8217,-179.7231 1440.4375,-181.77 1444.8132,-182.3728 1455.281,-183.6139 1457.1769,-183.7658 1467.7319,-184.409 1481.6654,-184.99 1514.3665,-184.4669 1596.1104,-226.335 1647.1056,-309.7812 1624.824,-326.28 1585.0294,-326.28 1585.0294,-326.28 1624.824,-326.28 1599.5043,-347.6889 1582.0885,-361.752 1570.4586,-370.1898 1566.781,-372.7029 1557.9849,-377.9957 1543.787,-385.3907 1536.3438,-388.6511 1482.5576,-407.8391 1475.9093,-410.4767 1475.1506,-410.8077 1466.2935,-415.032 1455.9612,-420.794 1439.9334,-431.0273 1434.9308,-435.0255 1434.2374,-443.8194 1427.5902,-450.8651 1422.3903,-455.76 1421.8242,-456.4161 1413.1252,-465.3014 1405.6626,-472.4054 1393.6149,-482.2127 1387.7238,-486.5814 1383.506,-489.4033 1334.6438,-515.3421 1330.4789,-517.843 1322.8564,-522.96 1311.3075,-531.5106 1309.3597,-533.3513 1303.7042,-538.2389 1291.9969,-549.1261 1292.7078,-504.4244 1296.3507,-460.7446 1301.1486,-459.3853 1305.0751,-455.9856 1301.29,-452.5402 1296.1042,-450.974 1296.1042,-450.974 1301.29,-452.5402 1305.0751,-455.9856 1301.1486,-459.3853 1296.3507,-460.7446 1292.7078,-504.4244 1291.9969,-549.1261 1291.6818,-549.4588 1282.3909,-558.5949 1281.8361,-561.5515 1284.4666,-564.166 1288.4205,-567.8692 1292.6366,-571.3566 1296.4189,-574.0961 1309.6333,-584.4412 1309.6333,-584.4412"/>
<polygon fill="#bbd7d9" stroke="#bbd7d9" points="1311.3075,-531.5106 1309.3597,-533.3513 1303.7042,-538.2389 1291.9969,-549.1261 1291.6818,-549.4588 1282.3909,-558.5949 1281.8361,-561.5515 1284.4666,-564.166 1288.4205,-567.8692 1292.6366,-571.3566 1296.4189,-574.0961 1309.6333,-584.4412 1311.2206,-585.5891 1379.9371,-631.352 1395.8102,-643.7804 1397.9064,-645.5353 1400.764,-648.0872 1401.8269,-551.6779 1406.1869,-551.6779 1407.3583,-553.0812 1412.6273,-556.188 1417.4856,-556.188 1417.4856,-556.188 1412.6273,-556.188 1407.3583,-553.0812 1406.1869,-551.6779 1401.8269,-551.6779 1400.764,-648.0872 1403.4979,-650.6854 1404.7505,-651.7984 1411.104,-657.7922 1411.7083,-657.7955 1412.5524,-657.8239 1423.1259,-657.5861 1427.0135,-657.8254 1431.5154,-657.8503 1435.469,-657.983 1439.6608,-658.0061 1446.8112,-657.6449 1448.4802,-657.6075 1582.9011,-662.1066 1592.8385,-641.3684 1705.9464,-563.8002 1728.7164,-533.642 1723.7677,-477.829 1722.912,-457.7506 1721.5907,-390.0397 1700.6244,-354.3976 1648.1503,-310.2619 1647.1056,-309.7812 1624.824,-326.28 1599.5043,-347.6889 1582.0885,-361.752 1570.4586,-370.1898 1566.781,-372.7029 1557.9849,-377.9957 1543.787,-385.3907 1536.3438,-388.6511 1536.2429,-408.3224 1533.2523,-464.7347 1538.8169,-468.5181 1540.4244,-470.9671 1539.6292,-471.5861 1539.6292,-471.5861 1540.4244,-470.9671 1538.8169,-468.5181 1533.2523,-464.7347 1536.2429,-408.3224 1536.3438,-388.6511 1482.5576,-407.8391 1475.9093,-410.4767 1475.1506,-410.8077 1466.2935,-415.032 1455.9612,-420.794 1439.9334,-431.0273 1434.9308,-435.0255 1434.2374,-443.8194 1427.5902,-450.8651 1422.3903,-455.76 1421.8242,-456.4161 1413.1252,-465.3014 1405.6626,-472.4054 1393.6149,-482.2127 1387.7238,-486.5814 1383.506,-489.4033 1334.6438,-515.3421 1330.4789,-517.843 1322.8564,-522.96 1311.3075,-531.5106 1311.3075,-531.5106"/>
<polygon fill="#d8d6da" stroke="#d8d6da" points="682.3516,-556.48 671.2975,-608.9377 664.3349,-634.6671 662.9538,-639.2808 667.2435,-656.1923 669.2849,-663.4113 751.497,-681.6909 757.0276,-682.6673 766.6463,-683.9229 769.9589,-684.2014 775.2388,-684.4009 782.181,-684.3416 783.456,-684.2717 787.4933,-684.4166 791.7488,-684.3725 790.5375,-617.4138 792.5698,-617.4138 795.751,-620.2816 795.751,-620.2816 792.5698,-617.4138 790.5375,-617.4138 791.7488,-684.3725 795.2894,-684.4962 795.6662,-684.4745 801.4417,-684.6663 806.71,-684.597 807.6069,-684.5435 810.5412,-684.5022 816.7296,-684.6967 817.477,-684.6855 819.7076,-684.7534 825.6376,-684.6592 927.8593,-687.6657 929.4835,-738.6329 929.3157,-745.6994 929.3536,-755.0004 929.5205,-757.792 930.1204,-776.616 987.8094,-845.2165 986.7807,-846.78 982.8353,-852.1616 983.2499,-951.7333 958.6082,-957.1525 947.1951,-958.16 943.7406,-958.16 942.0802,-956.785 942.0802,-956.785 943.7406,-958.16 947.1951,-958.16 958.6082,-957.1525 983.2499,-951.7333 982.8353,-852.1616 965.4173,-874.6364 943.8829,-907.5282 925.0267,-940.1722 924.3098,-940.4298 921.897,-941.1663 910.7887,-943.9623 905.1769,-945.0654 894.5009,-945.9954 885.9395,-946.2694 885.3875,-946.3441 881.5247,-946.4395 875.6913,-946.2623 871.1739,-946.3576 869.9344,-946.3156 858.1383,-947.1277 850.8397,-948.3787 847.8765,-949.0385 835.9184,-952.3203 819.1553,-959.506 818.5335,-959.8343 780.1396,-982.1223 728.8349,-1009.664 720.6417,-1022.196 703.7429,-1045.9106 718.3893,-1077.6957 798.8587,-1140.2917 861.8548,-1153.9093 873.7264,-1011.7501 878.9933,-1008.9337 881.5969,-1005.3501 883.9194,-1005.3501 884.4653,-1005.5144 889.1152,-1005.5144 893.7844,-1058.4008 895.6858,-1004.9728 896.867,-1004.9728 900.3608,-1008.0814 906.1993,-1009.8949 906.1993,-1009.8949 900.3608,-1008.0814 896.867,-1004.9728 895.6858,-1004.9728 893.7844,-1058.4008 889.1152,-1005.5144 884.4653,-1005.5144 883.9194,-1005.3501 881.5969,-1005.3501 878.9933,-1008.9337 873.7264,-1011.7501 861.8548,-1153.9093 878.4466,-1157.837 883.9365,-1159.2477 896.5336,-1162.7391 908.2736,-1166.4636 913.8726,-1168.5771 923.1134,-1172.4442 923.3932,-1173.4398 934.0262,-1214.3563 946.0081,-1264.865 948.43,-1276.2424 978.663,-1320.2927 1057.204,-1367.9413 1079.2192,-1367.5427 1092.0911,-1367.8024 1101.4844,-1368.3516 1102.66,-1253.6154 1106.5627,-1220.1902 1106.6814,-1220.0547 1105.4901,-1218.5831 1100.1855,-1215.3279 1095.0314,-1215.3279 1095.0314,-1215.3279 1100.1855,-1215.3279 1105.4901,-1218.5831 1106.6814,-1220.0547 1106.5627,-1220.1902 1102.66,-1253.6154 1101.4844,-1368.3516 1117.6661,-1369.9178 1159.4276,-1375.5533 1223.5624,-1313.2251 1246.3236,-1263.8669 1247.806,-1260.8428 1264.1007,-1194.9362 1272.3361,-1166.7136 1318.8191,-1141.8167 1333.3633,-1130.9169 1378.3076,-1043.4414 1375.8932,-1040.3232 1371.0004,-1034.458 1354.2024,-1015.8054 1351.6495,-1013.2077 1349.4579,-1010.7426 1336.9452,-997.8947 1331.2051,-992.2939 1329.9788,-991.1602 1325.0068,-986.8085 1324.2231,-986.0767 1321.6676,-983.8245 1317.3059,-980.2029 1302.0137,-968.2809 1257.2743,-938.2592 1254.6658,-908.5732 1205.236,-897.2634 1204.5582,-947.4429 1197.6318,-947.6601 1197.552,-947.6672 1197.4159,-947.6718 1196.3202,-947.7724 1195.2595,-947.8108 1191.101,-947.7305 1186.1257,-947.9243 1184.6257,-947.8991 1183.2479,-892.3929 1179.1086,-892.3929 1178.0548,-893.6062 1172.9978,-896.5199 1166.8534,-896.5199 1161.697,-893.531 1160.7659,-892.4562 1157.3899,-892.4562 1151.7354,-938.5288 1150.7083,-892.1741 1145.9883,-892.1741 1142.6848,-946.8552 1139.7051,-894.8171 1134.5427,-898.4623 1120.3944,-895.3907 1075.2505,-896.8303 1112.7336,-958.16 1090.6459,-958.16 1076.7979,-959.2542 1050.4543,-964.5825 1045.4677,-961.3965 1043.3131,-958.1834 1040.86,-958.1834 1040.86,-958.1834 1043.3131,-958.1834 1045.4677,-961.3965 1050.4543,-964.5825 1076.7979,-959.2542 1090.6459,-958.16 1112.7336,-958.16 1075.2505,-896.8303 1120.3944,-895.3907 1134.5427,-898.4623 1139.7051,-894.8171 1142.6848,-946.8552 1145.9883,-892.1741 1150.7083,-892.1741 1151.7354,-938.5288 1157.3899,-892.4562 1160.7659,-892.4562 1161.697,-893.531 1166.8534,-896.5199 1172.9978,-896.5199 1178.0548,-893.6062 1179.1086,-892.3929 1177.1611,-889.9637 1173.2755,-887.7173 1173.2755,-887.7173 1177.1611,-889.9637 1179.1086,-892.3929 1183.2479,-892.3929 1184.6257,-947.8991 1186.1257,-947.9243 1191.101,-947.7305 1195.2595,-947.8108 1196.3202,-947.7724 1197.4159,-947.6718 1197.552,-947.6672 1197.6318,-947.6601 1204.5582,-947.4429 1205.236,-897.2634 1254.6658,-908.5732 1254.1321,-884.9938 1254.1757,-883.99 1253.9702,-882.6571 1245.1046,-781.7615 1210.3059,-774.1459 1206.8125,-773.2896 1194.5936,-749.6126 1188.6318,-736.0336 1168.182,-684.8676 1165.2946,-678.3236 1148.1571,-642.8506 1092.0062,-649.974 1091.9871,-652.1945 1090.1318,-699.5372 1085.1898,-744.8531 1081.7122,-744.8531 1078.5048,-704.7035 1075.311,-742.9918 1070.8878,-740.5146 1065.2118,-740.5146 1061.4133,-742.5699 1059.0392,-745.3415 1059.5951,-745.9462 1065.9844,-749.646 1070.4324,-749.646 1070.4324,-749.646 1065.9844,-749.646 1059.5951,-745.9462 1059.0392,-745.3415 1061.4133,-742.5699 1065.2118,-740.5146 1070.8878,-740.5146 1075.311,-742.9918 1078.5048,-704.7035 1081.7122,-744.8531 1085.1898,-744.8531 1090.1318,-699.5372 1091.9871,-652.1945 1092.0062,-649.974 1080.1986,-650.4113 1078.6002,-650.5198 1070.8605,-650.5801 1066.9021,-650.3728 1057.2258,-650.4626 1054.4187,-650.6619 1053.142,-650.6756 1044.73,-650.5129 1040.7522,-650.6809 1042.0145,-709.6889 1042.0145,-709.6889 1040.7522,-650.6809 1031.2246,-650.5109 1022.7919,-650.8779 1014.09,-652.0579 1002.7966,-653.9372 994.9756,-655.7178 982.2366,-659.4042 977.3946,-661.1023 961.1443,-667.3054 960.4608,-667.6073 944.8947,-675.4539 929.7447,-684.0156 901.3906,-630.5247 886.0096,-594.9605 872.7344,-559.52 867.5205,-548.6279 866.2901,-546.3066 860.8865,-544.7244 849.233,-542.2026 838.6804,-540.7292 834.4065,-540.2972 823.9896,-540.0425 819.1177,-539.7346 811.266,-540.1418 811.1619,-540.1433 809.1848,-540.0931 788.0977,-537.9213 785.0622,-537.3766 695.002,-514.2197 682.3516,-556.48 682.3516,-556.48"/>
<polygon fill="#fbb4ae" stroke="#fbb4ae" points="969.159,-458.2807 964.1842,-462.62 960.8326,-466.2452 951.4598,-475.7412 938.2923,-487.2402 880.5258,-533.3585 873.9252,-539.103 866.5625,-546.0316 866.2901,-546.3066 860.8865,-544.7244 849.233,-542.2026 849.2499,-489.0619 852.7985,-465.4526 856.1198,-462.6797 851.6994,-458.9417 847.2675,-457.7133 847.2675,-457.7133 851.6994,-458.9417 856.1198,-462.6797 852.7985,-465.4526 849.2499,-489.0619 849.233,-542.2026 838.6804,-540.7292 834.4065,-540.2972 823.9896,-540.0425 819.1177,-539.7346 811.266,-540.1418 811.1619,-540.1433 809.1848,-540.0931 788.0977,-537.9213 785.0622,-537.3766 695.002,-514.2197 682.3516,-556.48 671.2975,-608.9377 664.3349,-634.6671 662.9538,-639.2808 667.2435,-656.1923 669.2849,-663.4113 751.497,-681.6909 757.0276,-682.6673 766.6463,-683.9229 769.9589,-684.2014 775.2388,-684.4009 782.181,-684.3416 783.456,-684.2717 787.4933,-684.4166 791.7488,-684.3725 795.2894,-684.4962 795.6662,-684.4745 801.4417,-684.6663 806.71,-684.597 807.6069,-684.5435 810.5412,-684.5022 816.7296,-684.6967 817.477,-684.6855 819.7076,-684.7534 825.6376,-684.6592 927.8593,-687.6657 929.4835,-738.6329 929.3157,-745.6994 929.3536,-755.0004 929.5205,-757.792 930.1204,-776.616 890.9468,-799.2315 880.8364,-804.6419 869.7766,-809.608 862.9636,-812.3674 853.3855,-815.4092 850.9292,-816.0813 848.7638,-816.5797 838.1362,-818.5691 825.3784,-819.8485 825.1364,-819.8622 824.0254,-819.8771 817.251,-819.6745 816.9077,-819.6957 804.1758,-819.9288 802.0695,-820.1602 787.2516,-822.4747 779.6904,-824.345 776.1241,-825.3895 772.7719,-826.5248 759.0295,-831.817 750.7557,-836.1361 746.1745,-868.64 746.0977,-880.8679 744.1626,-900.9142 728.8349,-1009.664 720.6417,-1022.196 703.7429,-1045.9106 680.8347,-1036.8798 670.2661,-1032.9135 662.7324,-1030.2307 657.3372,-1028.4135 656.3506,-1028.1001 650.9355,-1026.4836 631.2584,-1021.7279 627.8781,-1020.47 631.2115,-906.0659 635.4919,-870.9466 639.4285,-873.1235 644.8987,-873.1235 650.7413,-869.5798 651.3889,-868.8143 650.3616,-867.5502 650.3616,-867.5502 651.3889,-868.8143 650.7413,-869.5798 644.8987,-873.1235 639.4285,-873.1235 635.4919,-870.9466 631.2115,-906.0659 627.8781,-1020.47 615.6091,-1016.412 613.3018,-1015.7914 608.3132,-874.9717 608.3132,-874.9717 613.3018,-1015.7914 533.3466,-995.9069 487.1516,-943.0491 449.6042,-868.64 443.5442,-858.1749 382.7895,-834.3127 362.3222,-823.1986 276.4702,-848.0938 237.4442,-843.3243 219.8094,-842.1655 206.1482,-841.7842 203.1849,-841.7576 181.0676,-842.8125 182.2503,-807.9207 184.8887,-763.0715 191.7791,-695.7683 195.8636,-698.0396 201.5626,-698.0396 207.304,-694.6666 208.152,-693.7048 206.392,-691.6487 201.7033,-689.0005 201.7033,-689.0005 206.392,-691.6487 208.152,-693.7048 207.304,-694.6666 201.5626,-698.0396 195.8636,-698.0396 191.7791,-695.7683 184.8887,-763.0715 182.2503,-807.9207 181.0676,-842.8125 177.957,-843.1367 174.7499,-757.6016 174.7499,-757.6016 177.957,-843.1367 160.0644,-845.6797 156.105,-846.3169 132.5885,-850.5432 96.0902,-841.9119 86.1763,-829.9523 60.3573,-795.6343 8.2784,-695.7068 8.3324,-695.3486 8.9186,-690.0032 16.3325,-606.8931 -114.0451,-497.1033 -128.6707,-485.2655 -138.4615,-444.5629 -136.7633,-437.2562 -135.7183,-435.4808 -116.3767,-409.8561 -81.5454,-359.8372 24.3038,-287.512 30.8652,-286.828 41.2247,-288.1242 42.9485,-288.3082 54.5353,-289.332 55.4977,-289.3993 69.6607,-290.1284 82.5927,-290.078 82.5232,-394.8419 79.5724,-434.6743 75.3607,-436.9764 73.3375,-439.2962 73.8534,-439.8753 73.8534,-439.8753 73.3375,-439.2962 75.3607,-436.9764 79.5724,-434.6743 82.5232,-394.8419 82.5927,-290.078 92.7324,-289.6642 105.8473,-288.6446 106.5007,-288.5818 117.0793,-287.174 120.4724,-288.819 126.7033,-291.7005 319.0016,-376.3183 340.6316,-392.4007 360.6454,-382.6248 491.3326,-427.338 510.6328,-433.4805 510.6328,-433.4805 491.3326,-427.338 360.6454,-382.6248 393.0849,-331.5601 571.8228,-332.7972 575.0764,-379.6736 575.5878,-441.5406 574.2868,-441.5718 553.881,-441.0632 555.4241,-508.5517 550.1886,-556.3008 546.0487,-556.3008 544.9998,-556.6039 541.2289,-553.3914 535.6422,-551.7368 530.0085,-553.4058 526.4124,-556.4583 530.6525,-560.0746 535.5095,-561.4307 535.5095,-561.4307 530.6525,-560.0746 526.4124,-556.4583 530.0085,-553.4058 535.6422,-551.7368 541.2289,-553.3914 544.9998,-556.6039 546.0487,-556.3008 550.1886,-556.3008 555.4241,-508.5517 553.881,-441.0632 574.2868,-441.5718 571.5896,-497.8594 565.9517,-554.1154 564.8088,-555.7422 564.1646,-556.1911 563.0573,-556.1911 563.0573,-556.1911 564.1646,-556.1911 564.8088,-555.7422 565.9517,-554.1154 571.5896,-497.8594 574.2868,-441.5718 575.5878,-441.5406 575.0764,-379.6736 571.8228,-332.7972 393.0849,-331.5601 397.4797,-324.3747 416.385,-290.8939 503.7918,-167.3875 503.8859,-165.9899 506.7732,-161.5622 561.9636,-69.6217 672.8406,-25.4344 681.0299,-21.6351 691.3157,-20.3008 709.6937,-16.9134 707.9222,-111.8901 708.0184,-115.1698 706.8066,-171.3539 701.2928,-169.7345 697.0099,-170.913 692.9279,-174.4223 691.5112,-174.4223 691.1755,-174.521 685.6329,-174.521 685.6239,-174.5236 681.775,-174.5236 673.4679,-53.228 673.449,-101.5665 673.449,-101.5665 673.4679,-53.228 681.775,-174.5236 681.6853,-174.5491 679.3539,-214.3415 675.2267,-176.6694 674.8342,-176.7915 671.1111,-180.2377 665.8116,-252.33 644.2311,-248.5573 633.6871,-246.2873 625.7386,-243.9371 621.2314,-242.4232 613.6083,-239.5551 607.373,-236.9602 597.253,-231.9332 586.6188,-225.7897 571.5759,-215.8781 571.748,-221.4616 571.748,-221.4616 571.5759,-215.8781 586.6188,-225.7897 597.253,-231.9332 607.373,-236.9602 613.6083,-239.5551 615.3157,-325.5717 610.0934,-322.4558 610.0934,-322.4558 615.3157,-325.5717 616.291,-326.7219 615.3553,-327.8397 609.4847,-331.3986 604.8031,-331.3986 604.8031,-331.3986 609.4847,-331.3986 615.3553,-327.8397 616.291,-326.7219 615.3157,-325.5717 613.6083,-239.5551 621.2314,-242.4232 625.7386,-243.9371 633.6871,-246.2873 644.2311,-248.5573 665.8116,-252.33 671.1111,-180.2377 674.8342,-176.7915 675.2267,-176.6694 679.3539,-214.3415 681.6853,-174.5491 681.775,-174.5236 685.6239,-174.5236 685.6329,-174.521 691.1755,-174.521 691.5112,-174.4223 692.9279,-174.4223 696.6444,-177.7799 701.8113,-179.3311 701.8113,-179.3311 696.6444,-177.7799 692.9279,-174.4223 697.0099,-170.913 701.2928,-169.7345 706.8066,-171.3539 708.0184,-115.1698 707.9222,-111.8901 709.6937,-16.9134 715.4784,-15.5328 726.4821,-12.5034 745.2872,-6.9833 781.1859,4.1917 794.3503,-15.4159 813.8873,-46.9943 844.9645,-99.6889 846.5121,-141.5488 846.9675,-148.6446 847.4077,-191.2954 848.0631,-201.5015 851.4599,-293.3783 856.6349,-295.4268 860.6536,-296.941 881.0822,-303.4893 882.5338,-303.9268 918.8399,-314.1807 922.3494,-318.9786 941.1929,-347.1888 994.1947,-430.9294 993.2358,-432.1443 983.9542,-442.8558 969.159,-458.2807 969.159,-458.2807"/>
<polygon fill="#bbd7d9" stroke="#bbd7d9" points="982.8353,-852.1616 965.4173,-874.6364 943.8829,-907.5282 925.0267,-940.1722 924.3098,-940.4298 921.897,-941.1663 910.7887,-943.9623 905.1769,-945.0654 894.5009,-945.9954 885.9395,-946.2694 885.3875,-946.3441 881.5247,-946.4395 875.6913,-946.2623 871.1739,-946.3576 869.9344,-946.3156 858.1383,-947.1277 850.8397,-948.3787 847.8765,-949.0385 835.9184,-952.3203 819.1553,-959.506 818.5335,-959.8343 780.1396,-982.1223 728.8349,-1009.664 744.1626,-900.9142 746.0977,-880.8679 746.1745,-868.64 750.7557,-836.1361 759.0295,-831.817 772.7719,-826.5248 776.1241,-825.3895 779.6904,-824.345 787.2516,-822.4747 802.0695,-820.1602 804.1758,-819.9288 816.9077,-819.6957 817.251,-819.6745 824.0254,-819.8771 825.1364,-819.8622 825.3784,-819.8485 838.1362,-818.5691 848.7638,-816.5797 850.9292,-816.0813 853.3855,-815.4092 862.9636,-812.3674 869.7766,-809.608 880.8364,-804.6419 890.9468,-799.2315 930.1204,-776.616 987.8094,-845.2165 986.7807,-846.78 982.8353,-852.1616 982.8353,-852.1616"/>
<polygon fill="#d8d6da" stroke="#d8d6da" points="1273.2587,-771.9412 1282.1803,-763.76 1291.8585,-752.8896 1296.1373,-748.9869 1309.1871,-737.9281 1369.4917,-695.1051 1378.418,-688.1331 1387.446,-680.4662 1388.4025,-679.5917 1388.8501,-679.1516 1395.3136,-673.2864 1404.6493,-664.2281 1406.0596,-662.9478 1411.104,-657.7922 1411.7083,-657.7955 1412.5524,-657.8239 1423.1259,-657.5861 1427.0135,-657.8254 1431.5154,-657.8503 1435.469,-657.983 1439.6608,-658.0061 1446.8112,-657.6449 1448.4802,-657.6075 1582.9011,-662.1066 1594.7131,-725.4678 1599.0756,-746.4832 1596.7635,-783.1309 1596.6149,-789.6439 1526.7515,-881.8006 1501.4543,-869.585 1444.6566,-838.2501 1441.4878,-836.6695 1431.1842,-832.0663 1426.9937,-830.4204 1416.1073,-827.2908 1405.481,-824.8047 1393.192,-823.8964 1390.6575,-823.844 1388.5739,-823.6914 1379.407,-823.9972 1375.4623,-823.7134 1374.2887,-823.6917 1373.4431,-823.7211 1365.5027,-823.5798 1360.788,-823.2482 1354.4637,-822.4713 1349.4653,-821.5957 1343.6848,-820.2808 1340.6718,-819.4384 1332.8676,-816.845 1329.6879,-815.6232 1324.5565,-813.381 1315.9739,-809.1772 1305.3285,-802.8411 1300.6771,-799.8331 1268.1884,-777.1419 1273.2587,-771.9412 1273.2587,-771.9412"/>
<polygon fill="#bbd7d9" stroke="#bbd7d9" points="1305.3285,-802.8411 1300.6771,-799.8331 1268.1884,-777.1419 1264.9208,-777.6215 1250.7731,-780.4685 1245.1046,-781.7615 1253.9702,-882.6571 1254.1757,-883.99 1254.1321,-884.9938 1254.6658,-908.5732 1257.2743,-938.2592 1302.0137,-968.2809 1303.9242,-915.8976 1303.9242,-915.8976 1302.0137,-968.2809 1317.3059,-980.2029 1321.6676,-983.8245 1324.2231,-986.0767 1325.0068,-986.8085 1329.9788,-991.1602 1331.2051,-992.2939 1336.9452,-997.8947 1349.4579,-1010.7426 1351.6495,-1013.2077 1354.2024,-1015.8054 1371.0004,-1034.458 1375.8932,-1040.3232 1378.3076,-1043.4414 1398.3965,-1035.127 1480.5387,-1002.9299 1517.1422,-945.3433 1521.08,-916.8537 1526.7515,-881.8006 1501.4543,-869.585 1444.6566,-838.2501 1441.4878,-836.6695 1431.1842,-832.0663 1426.9937,-830.4204 1416.1073,-827.2908 1405.481,-824.8047 1393.192,-823.8964 1390.6575,-823.844 1388.5739,-823.6914 1379.407,-823.9972 1375.4623,-823.7134 1374.2887,-823.6917 1373.4431,-823.7211 1365.5027,-823.5798 1360.788,-823.2482 1354.4637,-822.4713 1349.4653,-821.5957 1343.6848,-820.2808 1340.6718,-819.4384 1332.8676,-816.845 1329.6879,-815.6232 1324.5565,-813.381 1315.9739,-809.1772 1305.3285,-802.8411 1305.3285,-802.8411"/>
<polyline fill="none" stroke="#000000" points="1002.7966,-653.9372 1014.09,-652.0579 1022.7919,-650.8779 1031.2246,-650.5109 1040.7522,-650.6809 1044.73,-650.5129 1053.142,-650.6756 1054.4187,-650.6619 1057.2258,-650.4626 1066.9021,-650.3728 1070.8605,-650.5801 1078.6002,-650.5198 1080.1986,-650.4113 1092.0062,-649.974 1148.1571,-642.8506 1155.8611,-629.0339 1159.9255,-621.1821 1144.9435,-594.9272 1143.4528,-592.5226 1132.995,-578.1786 1128.422,-572.4878 1111.989,-549.3538 1098.4048,-520.7634 1092.882,-511.4057 1086.6738,-502.5339 1073.4701,-486.1024 1066.7676,-476.983 1047.3221,-443.1289 1046.6505,-441.7217 1067.7977,-432.9034 1069.2932,-432.3283 1080.0939,-428.5197 1093.2081,-425.1556 1099.6439,-423.7126 1108.684,-422.2679 1117.1948,-421.1825 1118.4746,-421.0608 1128.3517,-420.4392 1138.5978,-420.4548 1141.0233,-420.3005 1150.2997,-419.4066 1155.8928,-418.6849 1166.1135,-417.0325 1168.0085,-416.6649 1174.2225,-415.0524 1236.1553,-344.6059 1245.3329,-334.7569 1260.1809,-319.6523 1263.369,-316.27 1263.3848,-315.0208 1263.0251,-304.2727 1262.6866,-271.8207 1363.5649,-168.1031 1369.3208,-162.4182 1354.832,-115.9609 1344.8561,-78.4115 1348.0168,-45.6903 1353.0358,-3.7415 1361.7579,49.3123 1227.1471,136.8237 1210.1556,136.9071 1204.1218,137.1621 1186.3387,138.5798 1171.3821,140.6116 1155.2781,143.4012 1137.3949,146.8296 1084.2184,120.0117 1017.6572,120.6306 1007.4275,121.1129 1004.1315,121.393 992.6775,122.5837 979.5345,124.4478 974.121,125.42 971.0964,126.0204 951.7185,130.6063 951.6544,130.5943 939.0916,128.4765 786.8232,17.0323 781.1859,4.1917 794.3503,-15.4159 813.8873,-46.9943 844.9645,-99.6889 846.5121,-141.5488 846.9675,-148.6446 847.4077,-191.2954 848.0631,-201.5015 851.4599,-293.3783 856.6349,-295.4268 860.6536,-296.941 881.0822,-303.4893 882.5338,-303.9268 918.8399,-314.1807 922.3494,-318.9786 941.1929,-347.1888 994.1947,-430.9294 993.2358,-432.1443 983.9542,-442.8558 969.159,-458.2807 964.1842,-462.62 960.8326,-466.2452 951.4598,-475.7412 938.2923,-487.2402 880.5258,-533.3585 873.9252,-539.103 866.5625,-546.0316 866.2901,-546.3066 867.5205,-548.6279 872.7344,-559.52 886.0096,-594.9605 901.3906,-630.5247 929.7447,-684.0156 944.8947,-675.4539 960.4608,-667.6073 961.1443,-667.3054 977.3946,-661.1023 982.2366,-659.4042 994.9756,-655.7178 1002.7966,-653.9372 "/>
<polyline fill="none" stroke="#000000" points="1434.9308,-435.0255 1434.2374,-443.8194 1427.5902,-450.8651 1422.3903,-455.76 1421.8242,-456.4161 1413.1252,-465.3014 1405.6626,-472.4054 1393.6149,-482.2127 1387.7238,-486.5814 1383.506,-489.4033 1334.6438,-515.3421 1330.4789,-517.843 1322.8564,-522.96 1311.3075,-531.5106 1309.3597,-533.3513 1303.7042,-538.2389 1291.9969,-549.1261 1291.6818,-549.4588 1282.3909,-558.5949 1281.8361,-561.5515 1284.4666,-564.166 1288.4205,-567.8692 1292.6366,-571.3566 1296.4189,-574.0961 1309.6333,-584.4412 1311.2206,-585.5891 1379.9371,-631.352 1395.8102,-643.7804 1397.9064,-645.5353 1400.764,-648.0872 1403.4979,-650.6854 1404.7505,-651.7984 1411.104,-657.7922 1406.0596,-662.9478 1404.6493,-664.2281 1395.3136,-673.2864 1388.8501,-679.1516 1388.4025,-679.5917 1387.446,-680.4662 1378.418,-688.1331 1369.4917,-695.1051 1309.1871,-737.9281 1296.1373,-748.9869 1291.8585,-752.8896 1282.1803,-763.76 1273.2587,-771.9412 1268.1884,-777.1419 1264.9208,-777.6215 1250.7731,-780.4685 1245.1046,-781.7615 1210.3059,-774.1459 1206.8125,-773.2896 1194.5936,-749.6126 1188.6318,-736.0336 1168.182,-684.8676 1165.2946,-678.3236 1148.1571,-642.8506 1155.8611,-629.0339 1159.9255,-621.1821 1144.9435,-594.9272 1143.4528,-592.5226 1132.995,-578.1786 1128.422,-572.4878 1111.989,-549.3538 1098.4048,-520.7634 1092.882,-511.4057 1086.6738,-502.5339 1073.4701,-486.1024 1066.7676,-476.983 1047.3221,-443.1289 1046.6505,-441.7217 1067.7977,-432.9034 1069.2932,-432.3283 1080.0939,-428.5197 1093.2081,-425.1556 1099.6439,-423.7126 1108.684,-422.2679 1117.1948,-421.1825 1118.4746,-421.0608 1128.3517,-420.4392 1138.5978,-420.4548 1141.0233,-420.3005 1150.2997,-419.4066 1155.8928,-418.6849 1166.1135,-417.0325 1168.0085,-416.6649 1174.2225,-415.0524 1236.1553,-344.6059 1245.3329,-334.7569 1260.1809,-319.6523 1263.369,-316.27 1263.3848,-315.0208 1263.0251,-304.2727 1262.6866,-271.8207 1363.5649,-168.1031 1369.3208,-162.4182 1385.0232,-167.5963 1407.3571,-174.5425 1415.5204,-176.6098 1428.8217,-179.7231 1440.4375,-181.77 1444.8132,-182.3728 1455.281,-183.6139 1457.1769,-183.7658 1467.7319,-184.409 1481.6654,-184.99 1514.3665,-184.4669 1596.1104,-226.335 1647.1056,-309.7812 1624.824,-326.28 1599.5043,-347.6889 1582.0885,-361.752 1570.4586,-370.1898 1566.781,-372.7029 1557.9849,-377.9957 1543.787,-385.3907 1536.3438,-388.6511 1482.5576,-407.8391 1475.9093,-410.4767 1475.1506,-410.8077 1466.2935,-415.032 1455.9612,-420.794 1439.9334,-431.0273 1434.9308,-435.0255 "/>
<polyline fill="none" stroke="#000000" points="1570.4586,-370.1898 1582.0885,-361.752 1599.5043,-347.6889 1624.824,-326.28 1647.1056,-309.7812 1648.1503,-310.2619 1700.6244,-354.3976 1721.5907,-390.0397 1722.912,-457.7506 1723.7677,-477.829 1728.7164,-533.642 1705.9464,-563.8002 1592.8385,-641.3684 1582.9011,-662.1066 1448.4802,-657.6075 1446.8112,-657.6449 1439.6608,-658.0061 1435.469,-657.983 1431.5154,-657.8503 1427.0135,-657.8254 1423.1259,-657.5861 1412.5524,-657.8239 1411.7083,-657.7955 1411.104,-657.7922 1404.7505,-651.7984 1403.4979,-650.6854 1400.764,-648.0872 1397.9064,-645.5353 1395.8102,-643.7804 1379.9371,-631.352 1311.2206,-585.5891 1309.6333,-584.4412 1296.4189,-574.0961 1292.6366,-571.3566 1288.4205,-567.8692 1284.4666,-564.166 1281.8361,-561.5515 1282.3909,-558.5949 1291.6818,-549.4588 1291.9969,-549.1261 1303.7042,-538.2389 1309.3597,-533.3513 1311.3075,-531.5106 1322.8564,-522.96 1330.4789,-517.843 1334.6438,-515.3421 1383.506,-489.4033 1387.7238,-486.5814 1393.6149,-482.2127 1405.6626,-472.4054 1413.1252,-465.3014 1421.8242,-456.4161 1422.3903,-455.76 1427.5902,-450.8651 1434.2374,-443.8194 1434.9308,-435.0255 1439.9334,-431.0273 1455.9612,-420.794 1466.2935,-415.032 1475.1506,-410.8077 1475.9093,-410.4767 1482.5576,-407.8391 1536.3438,-388.6511 1543.787,-385.3907 1557.9849,-377.9957 1566.781,-372.7029 1570.4586,-370.1898 "/>
<polyline fill="none" stroke="#000000" points="930.1204,-776.616 987.8094,-845.2165 986.7807,-846.78 982.8353,-852.1616 965.4173,-874.6364 943.8829,-907.5282 925.0267,-940.1722 924.3098,-940.4298 921.897,-941.1663 910.7887,-943.9623 905.1769,-945.0654 894.5009,-945.9954 885.9395,-946.2694 885.3875,-946.3441 881.5247,-946.4395 875.6913,-946.2623 871.1739,-946.3576 869.9344,-946.3156 858.1383,-947.1277 850.8397,-948.3787 847.8765,-949.0385 835.9184,-952.3203 819.1553,-959.506 818.5335,-959.8343 780.1396,-982.1223 728.8349,-1009.664 720.6417,-1022.196 703.7429,-1045.9106 718.3893,-1077.6957 798.8587,-1140.2917 861.8548,-1153.9093 878.4466,-1157.837 883.9365,-1159.2477 896.5336,-1162.7391 908.2736,-1166.4636 913.8726,-1168.5771 923.1134,-1172.4442 923.3932,-1173.4398 934.0262,-1214.3563 946.0081,-1264.865 948.43,-1276.2424 978.663,-1320.2927 1057.204,-1367.9413 1079.2192,-1367.5427 1092.0911,-1367.8024 1101.4844,-1368.3516 1117.6661,-1369.9178 1159.4276,-1375.5533 1223.5624,-1313.2251 1246.3236,-1263.8669 1247.806,-1260.8428 1264.1007,-1194.9362 1272.3361,-1166.7136 1318.8191,-1141.8167 1333.3633,-1130.9169 1378.3076,-1043.4414 1375.8932,-1040.3232 1371.0004,-1034.458 1354.2024,-1015.8054 1351.6495,-1013.2077 1349.4579,-1010.7426 1336.9452,-997.8947 1331.2051,-992.2939 1329.9788,-991.1602 1325.0068,-986.8085 1324.2231,-986.0767 1321.6676,-983.8245 1317.3059,-980.2029 1302.0137,-968.2809 1257.2743,-938.2592 1254.6658,-908.5732 1254.1321,-884.9938 1254.1757,-883.99 1253.9702,-882.6571 1245.1046,-781.7615 1210.3059,-774.1459 1206.8125,-773.2896 1194.5936,-749.6126 1188.6318,-736.0336 1168.182,-684.8676 1165.2946,-678.3236 1148.1571,-642.8506 1092.0062,-649.974 1080.1986,-650.4113 1078.6002,-650.5198 1070.8605,-650.5801 1066.9021,-650.3728 1057.2258,-650.4626 1054.4187,-650.6619 1053.142,-650.6756 1044.73,-650.5129 1040.7522,-650.6809 1031.2246,-650.5109 1022.7919,-650.8779 1014.09,-652.0579 1002.7966,-653.9372 994.9756,-655.7178 982.2366,-659.4042 977.3946,-661.1023 961.1443,-667.3054 960.4608,-667.6073 944.8947,-675.4539 929.7447,-684.0156 901.3906,-630.5247 886.0096,-594.9605 872.7344,-559.52 867.5205,-548.6279 866.2901,-546.3066 860.8865,-544.7244 849.233,-542.2026 838.6804,-540.7292 834.4065,-540.2972 823.9896,-540.0425 819.1177,-539.7346 811.266,-540.1418 811.1619,-540.1433 809.1848,-540.0931 788.0977,-537.9213 785.0622,-537.3766 695.002,-514.2197 682.3516,-556.48 671.2975,-608.9377 664.3349,-634.6671 662.9538,-639.2808 667.2435,-656.1923 669.2849,-663.4113 751.497,-681.6909 757.0276,-682.6673 766.6463,-683.9229 769.9589,-684.2014 775.2388,-684.4009 782.181,-684.3416 783.456,-684.2717 787.4933,-684.4166 791.7488,-684.3725 795.2894,-684.4962 795.6662,-684.4745 801.4417,-684.6663 806.71,-684.597 807.6069,-684.5435 810.5412,-684.5022 816.7296,-684.6967 817.477,-684.6855 819.7076,-684.7534 825.6376,-684.6592 927.8593,-687.6657 929.4835,-738.6329 929.3157,-745.6994 929.3536,-755.0004 929.5205,-757.792 930.1204,-776.616 "/>
<polyline fill="none" stroke="#000000" points="779.6904,-824.345 787.2516,-822.4747 802.0695,-820.1602 804.1758,-819.9288 816.9077,-819.6957 817.251,-819.6745 824.0254,-819.8771 825.1364,-819.8622 825.3784,-819.8485 838.1362,-818.5691 848.7638,-816.5797 850.9292,-816.0813 853.3855,-815.4092 862.9636,-812.3674 869.7766,-809.608 880.8364,-804.6419 890.9468,-799.2315 930.1204,-776.616 929.5205,-757.792 929.3536,-755.0004 929.3157,-745.6994 929.4835,-738.6329 927.8593,-687.6657 825.6376,-684.6592 819.7076,-684.7534 817.477,-684.6855 816.7296,-684.6967 810.5412,-684.5022 807.6069,-684.5435 806.71,-684.597 801.4417,-684.6663 795.6662,-684.4745 795.2894,-684.4962 791.7488,-684.3725 787.4933,-684.4166 783.456,-684.2717 782.181,-684.3416 775.2388,-684.4009 769.9589,-684.2014 766.6463,-683.9229 757.0276,-682.6673 751.497,-681.6909 669.2849,-663.4113 667.2435,-656.1923 662.9538,-639.2808 664.3349,-634.6671 671.2975,-608.9377 682.3516,-556.48 695.002,-514.2197 785.0622,-537.3766 788.0977,-537.9213 809.1848,-540.0931 811.1619,-540.1433 811.266,-540.1418 819.1177,-539.7346 823.9896,-540.0425 834.4065,-540.2972 838.6804,-540.7292 849.233,-542.2026 860.8865,-544.7244 866.2901,-546.3066 866.5625,-546.0316 873.9252,-539.103 880.5258,-533.3585 938.2923,-487.2402 951.4598,-475.7412 960.8326,-466.2452 964.1842,-462.62 969.159,-458.2807 983.9542,-442.8558 993.2358,-432.1443 994.1947,-430.9294 941.1929,-347.1888 922.3494,-318.9786 918.8399,-314.1807 882.5338,-303.9268 881.0822,-303.4893 860.6536,-296.941 856.6349,-295.4268 851.4599,-293.3783 848.0631,-201.5015 847.4077,-191.2954 846.9675,-148.6446 846.5121,-141.5488 844.9645,-99.6889 813.8873,-46.9943 794.3503,-15.4159 781.1859,4.1917 745.2872,-6.9833 726.4821,-12.5034 715.4784,-15.5328 709.6937,-16.9134 691.3157,-20.3008 681.0299,-21.6351 672.8406,-25.4344 561.9636,-69.6217 506.7732,-161.5622 503.8859,-165.9899 503.7918,-167.3875 416.385,-290.8939 397.4797,-324.3747 393.0849,-331.5601 360.6454,-382.6248 340.6316,-392.4007 319.0016,-376.3183 126.7033,-291.7005 120.4724,-288.819 117.0793,-287.174 106.5007,-288.5818 105.8473,-288.6446 92.7324,-289.6642 82.5927,-290.078 69.6607,-290.1284 55.4977,-289.3993 54.5353,-289.332 42.9485,-288.3082 41.2247,-288.1242 30.8652,-286.828 24.3038,-287.512 -81.5454,-359.8372 -116.3767,-409.8561 -135.7183,-435.4808 -136.7633,-437.2562 -138.4615,-444.5629 -128.6707,-485.2655 -114.0451,-497.1033 16.3325,-606.8931 8.9186,-690.0032 8.3324,-695.3486 8.2784,-695.7068 60.3573,-795.6343 86.1763,-829.9523 96.0902,-841.9119 132.5885,-850.5432 156.105,-846.3169 160.0644,-845.6797 177.957,-843.1367 181.0676,-842.8125 203.1849,-841.7576 206.1482,-841.7842 219.8094,-842.1655 237.4442,-843.3243 276.4702,-848.0938 362.3222,-823.1986 382.7895,-834.3127 443.5442,-858.1749 449.6042,-868.64 487.1516,-943.0491 533.3466,-995.9069 613.3018,-1015.7914 615.6091,-1016.412 627.8781,-1020.47 631.2584,-1021.7279 650.9355,-1026.4836 656.3506,-1028.1001 657.3372,-1028.4135 662.7324,-1030.2307 670.2661,-1032.9135 680.8347,-1036.8798 703.7429,-1045.9106 720.6417,-1022.196 728.8349,-1009.664 744.1626,-900.9142 746.0977,-880.8679 746.1745,-868.64 750.7557,-836.1361 759.0295,-831.817 772.7719,-826.5248 776.1241,-825.3895 779.6904,-824.345 "/>
<polyline fill="none" stroke="#000000" points="847.8765,-949.0385 850.8397,-948.3787 858.1383,-947.1277 869.9344,-946.3156 871.1739,-946.3576 875.6913,-946.2623 881.5247,-946.4395 885.3875,-946.3441 885.9395,-946.2694 894.5009,-945.9954 905.1769,-945.0654 910.7887,-943.9623 921.897,-941.1663 924.3098,-940.4298 925.0267,-940.1722 943.8829,-907.5282 965.4173,-874.6364 982.8353,-852.1616 986.7807,-846.78 987.8094,-845.2165 930.1204,-776.616 890.9468,-799.2315 880.8364,-804.6419 869.7766,-809.608 862.9636,-812.3674 853.3855,-815.4092 850.9292,-816.0813 848.7638,-816.5797 838.1362,-818.5691 825.3784,-819.8485 825.1364,-819.8622 824.0254,-819.8771 817.251,-819.6745 816.9077,-819.6957 804.1758,-819.9288 802.0695,-820.1602 787.2516,-822.4747 779.6904,-824.345 776.1241,-825.3895 772.7719,-826.5248 759.0295,-831.817 750.7557,-836.1361 746.1745,-868.64 746.0977,-880.8679 744.1626,-900.9142 728.8349,-1009.664 780.1396,-982.1223 818.5335,-959.8343 819.1553,-959.506 835.9184,-952.3203 847.8765,-949.0385 "/>
<polyline fill="none" stroke="#000000" points="1393.192,-823.8964 1390.6575,-823.844 1388.5739,-823.6914 1379.407,-823.9972 1375.4623,-823.7134 1374.2887,-823.6917 1373.4431,-823.7211 1365.5027,-823.5798 1360.788,-823.2482 1354.4637,-822.4713 1349.4653,-821.5957 1343.6848,-820.2808 1340.6718,-819.4384 1332.8676,-816.845 1329.6879,-815.6232 1324.5565,-813.381 1315.9739,-809.1772 1305.3285,-802.8411 1300.6771,-799.8331 1268.1884,-777.1419 1273.2587,-771.9412 1282.1803,-763.76 1291.8585,-752.8896 1296.1373,-748.9869 1309.1871,-737.9281 1369.4917,-695.1051 1378.418,-688.1331 1387.446,-680.4662 1388.4025,-679.5917 1388.8501,-679.1516 1395.3136,-673.2864 1404.6493,-664.2281 1406.0596,-662.9478 1411.104,-657.7922 1411.7083,-657.7955 1412.5524,-657.8239 1423.1259,-657.5861 1427.0135,-657.8254 1431.5154,-657.8503 1435.469,-657.983 1439.6608,-658.0061 1446.8112,-657.6449 1448.4802,-657.6075 1582.9011,-662.1066 1594.7131,-725.4678 1599.0756,-746.4832 1596.7635,-783.1309 1596.6149,-789.6439 1526.7515,-881.8006 1501.4543,-869.585 1444.6566,-838.2501 1441.4878,-836.6695 1431.1842,-832.0663 1426.9937,-830.4204 1416.1073,-827.2908 1405.481,-824.8047 1393.192,-823.8964 "/>
<polyline fill="none" stroke="#000000" points="1331.2051,-992.2939 1329.9788,-991.1602 1325.0068,-986.8085 1324.2231,-986.0767 1321.6676,-983.8245 1317.3059,-980.2029 1302.0137,-968.2809 1257.2743,-938.2592 1254.6658,-908.5732 1254.1321,-884.9938 1254.1757,-883.99 1253.9702,-882.6571 1245.1046,-781.7615 1250.7731,-780.4685 1264.9208,-777.6215 1268.1884,-777.1419 1300.6771,-799.8331 1305.3285,-802.8411 1315.9739,-809.1772 1324.5565,-813.381 1329.6879,-815.6232 1332.8676,-816.845 1340.6718,-819.4384 1343.6848,-820.2808 1349.4653,-821.5957 1354.4637,-822.4713 1360.788,-823.2482 1365.5027,-823.5798 1373.4431,-823.7211 1374.2887,-823.6917 1375.4623,-823.7134 1379.407,-823.9972 1388.5739,-823.6914 1390.6575,-823.844 1393.192,-823.8964 1405.481,-824.8047 1416.1073,-827.2908 1426.9937,-830.4204 1431.1842,-832.0663 1441.4878,-836.6695 1444.6566,-838.2501 1501.4543,-869.585 1526.7515,-881.8006 1521.08,-916.8537 1517.1422,-945.3433 1480.5387,-1002.9299 1398.3965,-1035.127 1378.3076,-1043.4414 1375.8932,-1040.3232 1371.0004,-1034.458 1354.2024,-1015.8054 1351.6495,-1013.2077 1349.4579,-1010.7426 1336.9452,-997.8947 1331.2051,-992.2939 "/>
<!-- device&#45;mapper&#45;libs&#45;&gt;Fedora Container Base -->
<g id="edge1" class="edge">
<title>device&#45;mapper&#45;libs&#45;&gt;Fedora Container Base</title>
<path fill="none" stroke="#444444" stroke-opacity="0.333333" d="M1405.9958,-344.2995C1328.1041,-385.8201 1136.1611,-488.1361 1050.9358,-533.5659"/>
<polygon fill="#444444" fill-opacity="0.333333" stroke="#444444" stroke-opacity="0.333333" points="1049.2336,-530.507 1042.0555,-538.2996 1052.5264,-536.6842 1049.2336,-530.507"/>
</g>
<!-- device&#45;mapper&#45;libs&#45;&gt;device&#45;mapper -->
<g id="edge2" class="edge">
<title>device&#45;mapper&#45;libs&#45;&gt;device&#45;mapper</title>
<path fill="none" stroke="#444444" stroke-opacity="0.333333" d="M1411.9154,-344.3676C1383.9645,-366.7746 1341.715,-404.8268 1316.6322,-430.1921"/>
<polygon fill="#444444" fill-opacity="0.333333" stroke="#444444" stroke-opacity="0.333333" points="1313.8762,-428.0068 1309.4338,-437.6254 1318.9048,-432.8765 1313.8762,-428.0068"/>
</g>
<!-- device&#45;mapper&#45;&gt;Fedora Container Base -->
<g id="edge32" class="edge">
<title>device&#45;mapper&#45;&gt;Fedora Container Base</title>
<path fill="none" stroke="#444444" stroke-opacity="0.333333" d="M1244.3587,-473.7823C1194.4778,-491.1902 1119.0509,-517.5134 1067.0984,-535.6443"/>
<polygon fill="#444444" fill-opacity="0.333333" stroke="#444444" stroke-opacity="0.333333" points="1065.6475,-532.4435 1057.3592,-539.0431 1067.954,-539.0526 1065.6475,-532.4435"/>
</g>
<!-- device&#45;mapper&#45;&gt;device&#45;mapper&#45;libs -->
<g id="edge33" class="edge">
<title>device&#45;mapper&#45;&gt;device&#45;mapper&#45;libs</title>
<path fill="none" stroke="#444444" stroke-opacity="0.333333" d="M1323.8846,-437.6724C1351.8355,-415.2654 1394.085,-377.2132 1419.1678,-351.8479"/>
<polygon fill="#444444" fill-opacity="0.333333" stroke="#444444" stroke-opacity="0.333333" points="1421.9238,-354.0332 1426.3662,-344.4146 1416.8952,-349.1635 1421.9238,-354.0332"/>
</g>
<!-- device&#45;mapper&#45;&gt;systemd -->
<g id="edge34" class="edge">
<title>device&#45;mapper&#45;&gt;systemd</title>
<path fill="none" stroke="#444444" stroke-opacity="0.333333" d="M1281.7501,-473.8545C1242.7579,-523.3667 1134.1943,-661.2206 1088.6856,-719.0074"/>
<polygon fill="#444444" fill-opacity="0.333333" stroke="#444444" stroke-opacity="0.333333" points="1085.8819,-716.9106 1082.4445,-726.9323 1091.3813,-721.2415 1085.8819,-716.9106"/>
</g>
<!-- device&#45;mapper&#45;&gt;util&#45;linux -->
<g id="edge35" class="edge">
<title>device&#45;mapper&#45;&gt;util&#45;linux</title>
<path fill="none" stroke="#444444" stroke-opacity="0.333333" d="M1253.6044,-473.8256C1241.6201,-478.9324 1228.4436,-484.5471 1215.9783,-489.8588"/>
<polygon fill="#444444" fill-opacity="0.333333" stroke="#444444" stroke-opacity="0.333333" points="1214.4437,-486.7082 1206.6162,-493.8482 1217.1879,-493.1479 1214.4437,-486.7082"/>
</g>
<!-- libargon2&#45;&gt;Fedora Container Base -->
<g id="edge3" class="edge">
<title>libargon2&#45;&gt;Fedora Container Base</title>
<path fill="none" stroke="#444444" stroke-opacity="0.333333" d="M1499.7289,-480.6418C1404.5866,-495.2367 1221.8067,-523.2753 1108.1619,-540.7085"/>
<polygon fill="#444444" fill-opacity="0.333333" stroke="#444444" stroke-opacity="0.333333" points="1107.419,-537.2814 1098.0654,-542.2573 1108.4805,-544.2005 1107.419,-537.2814"/>
</g>
<!-- dbus&#45;broker&#45;&gt;Fedora Container Base -->
<g id="edge4" class="edge">
<title>dbus&#45;broker&#45;&gt;Fedora Container Base</title>
<path fill="none" stroke="#444444" stroke-opacity="0.333333" d="M1016.5452,-940.0952C1015.2947,-876.4228 1011.0854,-662.1015 1009.5589,-584.3772"/>
<polygon fill="#444444" fill-opacity="0.333333" stroke="#444444" stroke-opacity="0.333333" points="1013.0496,-583.8644 1009.3538,-573.9351 1006.0509,-584.0019 1013.0496,-583.8644"/>
</g>
<!-- dbus&#45;broker&#45;&gt;dbus&#45;common -->
<g id="edge5" class="edge">
<title>dbus&#45;broker&#45;&gt;dbus&#45;common</title>
<path fill="none" stroke="#444444" stroke-opacity="0.333333" d="M1058.7079,-940.0897C1077.2605,-932.0708 1099.2669,-922.5592 1118.7862,-914.1225"/>
<polygon fill="#444444" fill-opacity="0.333333" stroke="#444444" stroke-opacity="0.333333" points="1120.352,-917.2588 1128.1426,-910.0785 1117.5747,-910.8333 1120.352,-917.2588"/>
</g>
<!-- dbus&#45;broker&#45;&gt;shadow&#45;utils -->
<g id="edge6" class="edge">
<title>dbus&#45;broker&#45;&gt;shadow&#45;utils</title>
<path fill="none" stroke="#444444" stroke-opacity="0.333333" d="M996.4597,-939.8558C955.141,-902.855 861.6271,-819.1135 814.6341,-777.0313"/>
<polygon fill="#444444" fill-opacity="0.333333" stroke="#444444" stroke-opacity="0.333333" points="816.749,-774.2269 806.9644,-770.1632 812.0792,-779.4417 816.749,-774.2269"/>
</g>
<!-- dbus&#45;broker&#45;&gt;systemd -->
<g id="edge7" class="edge">
<title>dbus&#45;broker&#45;&gt;systemd</title>
<path fill="none" stroke="#444444" stroke-opacity="0.333333" d="M1021.2738,-939.9878C1030.2465,-902.7083 1050.7877,-817.3643 1061.4694,-772.9842"/>
<polygon fill="#444444" fill-opacity="0.333333" stroke="#444444" stroke-opacity="0.333333" points="1064.9,-773.6876 1063.8373,-763.1462 1058.0943,-772.0495 1064.9,-773.6876"/>
</g>
<!-- dbus&#45;common&#45;&gt;Fedora Container Base -->
<g id="edge8" class="edge">
<title>dbus&#45;common&#45;&gt;Fedora Container Base</title>
<path fill="none" stroke="#444444" stroke-opacity="0.333333" d="M1161.2493,-873.9593C1134.6214,-818.3352 1053.775,-649.4522 1022.0114,-583.1001"/>
<polygon fill="#444444" fill-opacity="0.333333" stroke="#444444" stroke-opacity="0.333333" points="1025.1683,-581.5886 1017.6935,-574.0801 1018.8545,-584.6111 1025.1683,-581.5886"/>
</g>
<!-- dbus&#45;common&#45;&gt;dbus&#45;common -->
<g id="edge9" class="edge">
<title>dbus&#45;common&#45;&gt;dbus&#45;common</title>
<path fill="none" stroke="#444444" stroke-opacity="0.333333" d="M1247.4655,-898.0533C1258.215,-897.0612 1265.4,-895.0534 1265.4,-892.03 1265.4,-890.0931 1262.4513,-888.5731 1257.5057,-887.4698"/>
<polygon fill="#444444" fill-opacity="0.333333" stroke="#444444" stroke-opacity="0.333333" points="1257.8657,-883.9854 1247.4655,-886.0067 1256.8562,-890.9123 1257.8657,-883.9854"/>
</g>
<!-- dbus&#45;common&#45;&gt;systemd -->
<g id="edge10" class="edge">
<title>dbus&#45;common&#45;&gt;systemd</title>
<path fill="none" stroke="#444444" stroke-opacity="0.333333" d="M1157.4296,-874.0037C1139.7405,-848.4337 1107.2373,-801.4495 1086.724,-771.797"/>
<polygon fill="#444444" fill-opacity="0.333333" stroke="#444444" stroke-opacity="0.333333" points="1089.3401,-769.4264 1080.7724,-763.1938 1083.5833,-773.4089 1089.3401,-769.4264"/>
</g>
<!-- shadow&#45;utils&#45;&gt;Fedora Container Base -->
<g id="edge11" class="edge">
<title>shadow&#45;utils&#45;&gt;Fedora Container Base</title>
<path fill="none" stroke="#444444" stroke-opacity="0.333333" d="M807.097,-733.814C847.0707,-698.5936 935.409,-620.76 980.8259,-580.7438"/>
<polygon fill="#444444" fill-opacity="0.333333" stroke="#444444" stroke-opacity="0.333333" points="983.3333,-583.1993 988.5226,-573.9623 978.7057,-577.9471 983.3333,-583.1993"/>
</g>
<!-- shadow&#45;utils&#45;&gt;shadow&#45;utils -->
<g id="edge12" class="edge">
<title>shadow&#45;utils&#45;&gt;shadow&#45;utils</title>
<path fill="none" stroke="#444444" stroke-opacity="0.333333" d="M857.3956,-758.0234C867.939,-757.07 875.07,-755.0289 875.07,-751.9 875.07,-749.9444 872.2844,-748.4138 867.6212,-747.308"/>
<polygon fill="#444444" fill-opacity="0.333333" stroke="#444444" stroke-opacity="0.333333" points="867.8038,-743.7964 857.3956,-745.7766 866.7669,-750.7192 867.8038,-743.7964"/>
</g>
<!-- shadow&#45;utils&#45;&gt;libsemanage -->
<g id="edge13" class="edge">
<title>shadow&#45;utils&#45;&gt;libsemanage</title>
<path fill="none" stroke="#444444" stroke-opacity="0.333333" d="M764.0638,-770.1406C739.5404,-790.016 700.1719,-821.923 672.9177,-844.0117"/>
<polygon fill="#444444" fill-opacity="0.333333" stroke="#444444" stroke-opacity="0.333333" points="670.4433,-841.5119 664.8782,-850.5275 674.8508,-846.9501 670.4433,-841.5119"/>
</g>
<!-- systemd&#45;&gt;Fedora Container Base -->
<g id="edge14" class="edge">
<title>systemd&#45;&gt;Fedora Container Base</title>
<path fill="none" stroke="#444444" stroke-opacity="0.333333" d="M1062.5237,-726.8883C1052.1363,-693.7085 1030.009,-623.0281 1017.7065,-583.7308"/>
<polygon fill="#444444" fill-opacity="0.333333" stroke="#444444" stroke-opacity="0.333333" points="1020.987,-582.4944 1014.6592,-573.9968 1014.3067,-584.5858 1020.987,-582.4944"/>
</g>
<!-- systemd&#45;&gt;shadow&#45;utils -->
<g id="edge15" class="edge">
<title>systemd&#45;&gt;shadow&#45;utils</title>
<path fill="none" stroke="#444444" stroke-opacity="0.333333" d="M1006.3951,-746.5298C965.5359,-747.528 911.5547,-748.8467 867.3111,-749.9276"/>
<polygon fill="#444444" fill-opacity="0.333333" stroke="#444444" stroke-opacity="0.333333" points="867.0716,-746.4323 857.1601,-750.1755 867.2427,-753.4302 867.0716,-746.4323"/>
</g>
<!-- systemd&#45;&gt;systemd -->
<g id="edge16" class="edge">
<title>systemd&#45;&gt;systemd</title>
<path fill="none" stroke="#444444" stroke-opacity="0.333333" d="M1129.8667,-751.3213C1140.4013,-750.4603 1147.7,-748.3598 1147.7,-745.02 1147.7,-742.8804 1144.7046,-741.2495 1139.782,-740.1272"/>
<polygon fill="#444444" fill-opacity="0.333333" stroke="#444444" stroke-opacity="0.333333" points="1140.2596,-736.66 1129.8667,-738.7187 1139.2751,-743.5904 1140.2596,-736.66"/>
</g>
<!-- systemd&#45;&gt;util&#45;linux -->
<g id="edge17" class="edge">
<title>systemd&#45;&gt;util&#45;linux</title>
<path fill="none" stroke="#444444" stroke-opacity="0.333333" d="M1075.7408,-726.7259C1092.5123,-686.038 1132.9873,-587.8451 1152.8781,-539.5897"/>
<polygon fill="#444444" fill-opacity="0.333333" stroke="#444444" stroke-opacity="0.333333" points="1156.2191,-540.6683 1156.7942,-530.0891 1149.7474,-538.0007 1156.2191,-540.6683"/>
</g>
<!-- systemd&#45;&gt;iptables&#45;libs -->
<g id="edge18" class="edge">
<title>systemd&#45;&gt;iptables&#45;libs</title>
<path fill="none" stroke="#444444" stroke-opacity="0.333333" d="M1069.4909,-726.8771C1074.1457,-661.4567 1090.092,-437.3408 1095.7713,-357.522"/>
<polygon fill="#444444" fill-opacity="0.333333" stroke="#444444" stroke-opacity="0.333333" points="1099.2837,-357.4717 1096.5023,-347.2484 1092.3013,-356.9748 1099.2837,-357.4717"/>
</g>
<!-- systemd&#45;&gt;acl -->
<g id="edge19" class="edge">
<title>systemd&#45;&gt;acl</title>
<path fill="none" stroke="#444444" stroke-opacity="0.333333" d="M1030.5188,-726.9889C982.7581,-704.1346 900.4113,-664.7303 848.4953,-639.8877"/>
<polygon fill="#444444" fill-opacity="0.333333" stroke="#444444" stroke-opacity="0.333333" points="849.702,-636.5851 839.1708,-635.4257 846.6805,-642.8994 849.702,-636.5851"/>
</g>
<!-- systemd&#45;&gt;cryptsetup&#45;libs -->
<g id="edge20" class="edge">
<title>systemd&#45;&gt;cryptsetup&#45;libs</title>
<path fill="none" stroke="#444444" stroke-opacity="0.333333" d="M1100.5426,-726.9935C1163.841,-691.7134 1303.9949,-613.5971 1373.931,-574.6175"/>
<polygon fill="#444444" fill-opacity="0.333333" stroke="#444444" stroke-opacity="0.333333" points="1375.8821,-577.537 1382.913,-569.6112 1372.4741,-571.4226 1375.8821,-577.537"/>
</g>
<!-- systemd&#45;&gt;dbus -->
<g id="edge21" class="edge">
<title>systemd&#45;&gt;dbus</title>
<path fill="none" stroke="#444444" stroke-opacity="0.333333" d="M1069.3166,-763.0484C1073.7872,-835.2282 1090.4149,-1103.693 1095.8609,-1191.621"/>
<polygon fill="#444444" fill-opacity="0.333333" stroke="#444444" stroke-opacity="0.333333" points="1092.3707,-1191.8891 1096.4823,-1201.6536 1099.3573,-1191.4564 1092.3707,-1191.8891"/>
</g>
<!-- systemd&#45;&gt;kmod&#45;libs -->
<g id="edge22" class="edge">
<title>systemd&#45;&gt;kmod&#45;libs</title>
<path fill="none" stroke="#444444" stroke-opacity="0.333333" d="M1077.2992,-763.1888C1099.666,-807.8498 1157.4349,-923.2002 1183.941,-976.1264"/>
<polygon fill="#444444" fill-opacity="0.333333" stroke="#444444" stroke-opacity="0.333333" points="1180.9034,-977.8772 1188.5109,-985.2513 1187.1624,-974.7426 1180.9034,-977.8772"/>
</g>
<!-- systemd&#45;&gt;libfdisk -->
<g id="edge23" class="edge">
<title>systemd&#45;&gt;libfdisk</title>
<path fill="none" stroke="#444444" stroke-opacity="0.333333" d="M1116.8085,-727.0096C1148.8818,-715.1258 1191.0817,-699.4899 1225.0085,-686.9193"/>
<polygon fill="#444444" fill-opacity="0.333333" stroke="#444444" stroke-opacity="0.333333" points="1226.635,-690.0493 1234.796,-683.2928 1224.2029,-683.4853 1226.635,-690.0493"/>
</g>
<!-- systemd&#45;&gt;libseccomp -->
<g id="edge24" class="edge">
<title>systemd&#45;&gt;libseccomp</title>
<path fill="none" stroke="#444444" stroke-opacity="0.333333" d="M1056.8141,-763.3083C1028.7101,-808.4497 955.9385,-925.3373 922.9608,-978.3069"/>
<polygon fill="#444444" fill-opacity="0.333333" stroke="#444444" stroke-opacity="0.333333" points="919.9673,-976.4928 917.6533,-986.8319 925.9098,-980.1925 919.9673,-976.4928"/>
</g>
<!-- systemd&#45;&gt;qrencode&#45;libs -->
<g id="edge25" class="edge">
<title>systemd&#45;&gt;qrencode&#45;libs</title>
<path fill="none" stroke="#444444" stroke-opacity="0.333333" d="M1040.7168,-763.0627C1001.7729,-788.6292 930.4763,-835.4353 887.3045,-863.7775"/>
<polygon fill="#444444" fill-opacity="0.333333" stroke="#444444" stroke-opacity="0.333333" points="885.2407,-860.9455 878.8019,-869.3594 889.0823,-866.7972 885.2407,-860.9455"/>
</g>
<!-- systemd&#45;&gt;systemd&#45;pam -->
<g id="edge26" class="edge">
<title>systemd&#45;&gt;systemd&#45;pam</title>
<path fill="none" stroke="#444444" stroke-opacity="0.333333" d="M1129.9812,-753.7794C1183.0379,-758.3131 1260.1811,-762.7757 1319.8806,-764.8823"/>
<polygon fill="#444444" fill-opacity="0.333333" stroke="#444444" stroke-opacity="0.333333" points="1319.9467,-768.3864 1330.0585,-765.2239 1320.1815,-761.3904 1319.9467,-768.3864"/>
</g>
<!-- systemd&#45;&gt;systemd&#45;rpm&#45;macros -->
<g id="edge27" class="edge">
<title>systemd&#45;&gt;systemd&#45;rpm&#45;macros</title>
<path fill="none" stroke="#444444" stroke-opacity="0.333333" d="M1104.09,-763.0454C1154.1294,-788.1772 1244.8524,-833.742 1299.5227,-861.1997"/>
<polygon fill="#444444" fill-opacity="0.333333" stroke="#444444" stroke-opacity="0.333333" points="1298.127,-864.4153 1308.6342,-865.7758 1301.2688,-858.1599 1298.127,-864.4153"/>
</g>
<!-- libsemanage&#45;&gt;Fedora Container Base -->
<g id="edge48" class="edge">
<title>libsemanage&#45;&gt;Fedora Container Base</title>
<path fill="none" stroke="#444444" stroke-opacity="0.333333" d="M663.817,-850.4752C726.3312,-797.1299 909.43,-640.8861 980.4164,-580.3112"/>
<polygon fill="#444444" fill-opacity="0.333333" stroke="#444444" stroke-opacity="0.333333" points="982.7759,-582.8989 988.1109,-573.7453 978.2321,-577.5741 982.7759,-582.8989"/>
</g>
<!-- libsemanage&#45;&gt;libsemanage -->
<g id="edge49" class="edge">
<title>libsemanage&#45;&gt;libsemanage</title>
<path fill="none" stroke="#444444" stroke-opacity="0.333333" d="M718.1025,-874.6974C728.8309,-873.7177 736.03,-871.6986 736.03,-868.64 736.03,-866.6806 733.0755,-865.1478 728.1313,-864.0415"/>
<polygon fill="#444444" fill-opacity="0.333333" stroke="#444444" stroke-opacity="0.333333" points="728.5023,-860.5587 718.1025,-862.5826 727.4945,-867.4858 728.5023,-860.5587"/>
</g>
<!-- util&#45;linux&#45;&gt;Fedora Container Base -->
<g id="edge28" class="edge">
<title>util&#45;linux&#45;&gt;Fedora Container Base</title>
<path fill="none" stroke="#444444" stroke-opacity="0.333333" d="M1100.6855,-529.9198C1092.7054,-532.1828 1084.5208,-534.5038 1076.4841,-536.7829"/>
<polygon fill="#444444" fill-opacity="0.333333" stroke="#444444" stroke-opacity="0.333333" points="1075.4437,-533.4398 1066.778,-539.5353 1077.3535,-540.1742 1075.4437,-533.4398"/>
</g>
<!-- util&#45;linux&#45;&gt;util&#45;linux -->
<g id="edge29" class="edge">
<title>util&#45;linux&#45;&gt;util&#45;linux</title>
<path fill="none" stroke="#444444" stroke-opacity="0.333333" d="M1228.9797,-518.1253C1239.5415,-517.2313 1246.8,-515.1495 1246.8,-511.88 1246.8,-509.7855 1243.8211,-508.1784 1238.9032,-507.0587"/>
<polygon fill="#444444" fill-opacity="0.333333" stroke="#444444" stroke-opacity="0.333333" points="1239.3755,-503.5907 1228.9797,-505.6347 1238.3811,-510.5198 1239.3755,-503.5907"/>
</g>
<!-- util&#45;linux&#45;&gt;libfdisk -->
<g id="edge30" class="edge">
<title>util&#45;linux&#45;&gt;libfdisk</title>
<path fill="none" stroke="#444444" stroke-opacity="0.333333" d="M1178.4538,-530.0711C1199.4409,-557.0448 1238.9278,-607.7951 1263.0855,-638.8438"/>
<polygon fill="#444444" fill-opacity="0.333333" stroke="#444444" stroke-opacity="0.333333" points="1260.5615,-641.2994 1269.4647,-647.0426 1266.0862,-637.0008 1260.5615,-641.2994"/>
</g>
<!-- util&#45;linux&#45;&gt;libutempter -->
<g id="edge31" class="edge">
<title>util&#45;linux&#45;&gt;libutempter</title>
<path fill="none" stroke="#444444" stroke-opacity="0.333333" d="M1099.6339,-501.8521C1049.104,-494.0164 978.6739,-483.0947 924.9523,-474.764"/>
<polygon fill="#444444" fill-opacity="0.333333" stroke="#444444" stroke-opacity="0.333333" points="925.2016,-471.2609 914.7834,-473.1871 924.1289,-478.1782 925.2016,-471.2609"/>
</g>
<!-- iptables&#45;libs&#45;&gt;Fedora Container Base -->
<g id="edge38" class="edge">
<title>iptables&#45;libs&#45;&gt;Fedora Container Base</title>
<path fill="none" stroke="#444444" stroke-opacity="0.333333" d="M1090.6832,-347.1954C1075.1928,-386.778 1038.335,-480.9604 1019.8963,-528.0768"/>
<polygon fill="#444444" fill-opacity="0.333333" stroke="#444444" stroke-opacity="0.333333" points="1016.5357,-527.0601 1016.1507,-537.648 1023.0543,-529.6112 1016.5357,-527.0601"/>
</g>
<!-- iptables&#45;libs&#45;&gt;iptables&#45;libs -->
<g id="edge39" class="edge">
<title>iptables&#45;libs&#45;&gt;iptables&#45;libs</title>
<path fill="none" stroke="#444444" stroke-opacity="0.333333" d="M1167.0746,-335.1651C1177.6314,-334.2258 1184.8,-332.1741 1184.8,-329.01 1184.8,-327.0325 1181.9998,-325.4894 1177.3222,-324.3809"/>
<polygon fill="#444444" fill-opacity="0.333333" stroke="#444444" stroke-opacity="0.333333" points="1177.481,-320.8661 1167.0746,-322.8549 1176.45,-327.7897 1177.481,-320.8661"/>
</g>
<!-- iptables&#45;libs&#45;&gt;libnetfilter_conntrack -->
<g id="edge40" class="edge">
<title>iptables&#45;libs&#45;&gt;libnetfilter_conntrack</title>
<path fill="none" stroke="#444444" stroke-opacity="0.333333" d="M1103.9646,-310.9C1115.6961,-276.4361 1141.2984,-201.2238 1155.1871,-160.4224"/>
<polygon fill="#444444" fill-opacity="0.333333" stroke="#444444" stroke-opacity="0.333333" points="1158.5411,-161.4307 1158.4503,-150.8363 1151.9145,-159.175 1158.5411,-161.4307"/>
</g>
<!-- iptables&#45;libs&#45;&gt;libpcap -->
<g id="edge41" class="edge">
<title>iptables&#45;libs&#45;&gt;libpcap</title>
<path fill="none" stroke="#444444" stroke-opacity="0.333333" d="M1085.7386,-310.9822C1066.537,-282.2822 1028.9205,-226.0578 1006.6686,-192.7987"/>
<polygon fill="#444444" fill-opacity="0.333333" stroke="#444444" stroke-opacity="0.333333" points="1009.5651,-190.8337 1001.0954,-184.4686 1003.7472,-194.7262 1009.5651,-190.8337"/>
</g>
<!-- acl&#45;&gt;Fedora Container Base -->
<g id="edge63" class="edge">
<title>acl&#45;&gt;Fedora Container Base</title>
<path fill="none" stroke="#444444" stroke-opacity="0.333333" d="M848.912,-603.2028C876.9089,-594.9338 912.702,-584.3621 943.3408,-575.3128"/>
<polygon fill="#444444" fill-opacity="0.333333" stroke="#444444" stroke-opacity="0.333333" points="944.4919,-578.6223 953.0909,-572.433 942.509,-571.909 944.4919,-578.6223"/>
</g>
<!-- cryptsetup&#45;libs&#45;&gt;Fedora Container Base -->
<g id="edge64" class="edge">
<title>cryptsetup&#45;libs&#45;&gt;Fedora Container Base</title>
<path fill="none" stroke="#444444" stroke-opacity="0.333333" d="M1337.9217,-552.3903C1286.4499,-552.9427 1217.2188,-553.6856 1155.5498,-554.3474"/>
<polygon fill="#444444" fill-opacity="0.333333" stroke="#444444" stroke-opacity="0.333333" points="1155.2869,-550.8499 1145.3251,-554.4571 1155.3621,-557.8495 1155.2869,-550.8499"/>
</g>
<!-- cryptsetup&#45;libs&#45;&gt;device&#45;mapper&#45;libs -->
<g id="edge65" class="edge">
<title>cryptsetup&#45;libs&#45;&gt;device&#45;mapper&#45;libs</title>
<path fill="none" stroke="#444444" stroke-opacity="0.333333" d="M1417.2635,-533.5052C1421.5194,-494.3717 1431.6213,-401.4843 1436.7294,-354.5141"/>
<polygon fill="#444444" fill-opacity="0.333333" stroke="#444444" stroke-opacity="0.333333" points="1440.2254,-354.7406 1437.8271,-344.4208 1433.2664,-353.9837 1440.2254,-354.7406"/>
</g>
<!-- cryptsetup&#45;libs&#45;&gt;libargon2 -->
<g id="edge66" class="edge">
<title>cryptsetup&#45;libs&#45;&gt;libargon2</title>
<path fill="none" stroke="#444444" stroke-opacity="0.333333" d="M1448.1775,-533.5077C1469.4029,-521.8532 1497.2055,-506.5874 1519.9956,-494.0739"/>
<polygon fill="#444444" fill-opacity="0.333333" stroke="#444444" stroke-opacity="0.333333" points="1521.6981,-497.132 1528.7791,-489.251 1518.329,-490.9961 1521.6981,-497.132"/>
</g>
<!-- dbus&#45;&gt;dbus&#45;broker -->
<g id="edge67" class="edge">
<title>dbus&#45;&gt;dbus&#45;broker</title>
<path fill="none" stroke="#444444" stroke-opacity="0.333333" d="M1091.9253,-1201.309C1078.0006,-1156.1803 1042.074,-1039.7463 1025.5048,-986.0471"/>
<polygon fill="#444444" fill-opacity="0.333333" stroke="#444444" stroke-opacity="0.333333" points="1028.7541,-984.7069 1022.4613,-976.1834 1022.0653,-986.7709 1028.7541,-984.7069"/>
</g>
<!-- kmod&#45;libs&#45;&gt;Fedora Container Base -->
<g id="edge68" class="edge">
<title>kmod&#45;libs&#45;&gt;Fedora Container Base</title>
<path fill="none" stroke="#444444" stroke-opacity="0.333333" d="M1189.9731,-985.304C1160.7691,-916.0134 1055.9312,-667.271 1020.6676,-583.6031"/>
<polygon fill="#444444" fill-opacity="0.333333" stroke="#444444" stroke-opacity="0.333333" points="1023.831,-582.0968 1016.7218,-574.2411 1017.3805,-584.8155 1023.831,-582.0968"/>
</g>
<!-- libfdisk&#45;&gt;Fedora Container Base -->
<g id="edge69" class="edge">
<title>libfdisk&#45;&gt;Fedora Container Base</title>
<path fill="none" stroke="#444444" stroke-opacity="0.333333" d="M1238.2554,-647.163C1189.7414,-627.8546 1112.8797,-597.2638 1061.7065,-576.897"/>
<polygon fill="#444444" fill-opacity="0.333333" stroke="#444444" stroke-opacity="0.333333" points="1062.7324,-573.5384 1052.1469,-573.0923 1060.1438,-580.0422 1062.7324,-573.5384"/>
</g>
<!-- libseccomp&#45;&gt;Fedora Container Base -->
<g id="edge70" class="edge">
<title>libseccomp&#45;&gt;Fedora Container Base</title>
<path fill="none" stroke="#444444" stroke-opacity="0.333333" d="M910.434,-986.9353C926.3074,-917.5228 983.2072,-668.7082 1002.5277,-584.2224"/>
<polygon fill="#444444" fill-opacity="0.333333" stroke="#444444" stroke-opacity="0.333333" points="1005.9769,-584.8394 1004.7943,-574.3108 999.1531,-583.2788 1005.9769,-584.8394"/>
</g>
<!-- qrencode&#45;libs&#45;&gt;Fedora Container Base -->
<g id="edge71" class="edge">
<title>qrencode&#45;libs&#45;&gt;Fedora Container Base</title>
<path fill="none" stroke="#444444" stroke-opacity="0.333333" d="M859.9088,-869.1816C886.1507,-814.0436 964.5771,-649.2587 995.8829,-583.4809"/>
<polygon fill="#444444" fill-opacity="0.333333" stroke="#444444" stroke-opacity="0.333333" points="999.181,-584.6955 1000.3181,-574.1618 992.8603,-581.6872 999.181,-584.6955"/>
</g>
<!-- systemd&#45;pam&#45;&gt;Fedora Container Base -->
<g id="edge72" class="edge">
<title>systemd&#45;pam&#45;&gt;Fedora Container Base</title>
<path fill="none" stroke="#444444" stroke-opacity="0.333333" d="M1374.0198,-745.6791C1300.9056,-707.67 1131.4675,-619.586 1051.8235,-578.1822"/>
<polygon fill="#444444" fill-opacity="0.333333" stroke="#444444" stroke-opacity="0.333333" points="1053.0555,-574.878 1042.5684,-573.3709 1049.8267,-581.0889 1053.0555,-574.878"/>
</g>
<!-- systemd&#45;pam&#45;&gt;systemd -->
<g id="edge73" class="edge">
<title>systemd&#45;pam&#45;&gt;systemd</title>
<path fill="none" stroke="#444444" stroke-opacity="0.333333" d="M1330.1221,-753.6215C1272.7517,-749.1383 1195.628,-744.9568 1139.9419,-743.3435"/>
<polygon fill="#444444" fill-opacity="0.333333" stroke="#444444" stroke-opacity="0.333333" points="1139.8931,-739.841 1129.8032,-743.0726 1139.7061,-746.8385 1139.8931,-739.841"/>
</g>
<!-- systemd&#45;rpm&#45;macros&#45;&gt;Fedora Container Base -->
<g id="edge74" class="edge">
<title>systemd&#45;rpm&#45;macros&#45;&gt;Fedora Container Base</title>
<path fill="none" stroke="#444444" stroke-opacity="0.333333" d="M1326.3621,-865.8842C1269.9288,-810.7665 1100.1208,-644.9168 1034.9011,-581.2173"/>
<polygon fill="#444444" fill-opacity="0.333333" stroke="#444444" stroke-opacity="0.333333" points="1037.0801,-578.4531 1027.4806,-573.9698 1032.1891,-583.4609 1037.0801,-578.4531"/>
</g>
<!-- libutempter&#45;&gt;Fedora Container Base -->
<g id="edge75" class="edge">
<title>libutempter&#45;&gt;Fedora Container Base</title>
<path fill="none" stroke="#444444" stroke-opacity="0.333333" d="M878.3301,-480.8307C904.3943,-495.8085 941.4651,-517.1111 969.4681,-533.203"/>
<polygon fill="#444444" fill-opacity="0.333333" stroke="#444444" stroke-opacity="0.333333" points="967.8017,-536.2821 978.2159,-538.23 971.2894,-530.2129 967.8017,-536.2821"/>
</g>
<!-- libutempter&#45;&gt;shadow&#45;utils -->
<g id="edge76" class="edge">
<title>libutempter&#45;&gt;shadow&#45;utils</title>
<path fill="none" stroke="#444444" stroke-opacity="0.333333" d="M842.8824,-480.7158C832.7267,-529.6225 804.6736,-664.7181 792.4221,-723.718"/>
<polygon fill="#444444" fill-opacity="0.333333" stroke="#444444" stroke-opacity="0.333333" points="788.9326,-723.3083 790.3262,-733.8111 795.7864,-724.7316 788.9326,-723.3083"/>
</g>
<!-- libunwind&#45;&gt;Fedora Container Base -->
<g id="edge36" class="edge">
<title>libunwind&#45;&gt;Fedora Container Base</title>
<path fill="none" stroke="#444444" stroke-opacity="0.333333" d="M716.3817,-192.7734C766.1148,-254.4935 928.9755,-456.6076 987.6718,-529.4512"/>
<polygon fill="#444444" fill-opacity="0.333333" stroke="#444444" stroke-opacity="0.333333" points="985.2991,-532.0849 994.2989,-537.6756 990.7498,-527.6928 985.2991,-532.0849"/>
</g>
<!-- libunwind&#45;&gt;libunwind -->
<g id="edge37" class="edge">
<title>libunwind&#45;&gt;libunwind</title>
<path fill="none" stroke="#444444" stroke-opacity="0.333333" d="M769.107,-180.826C779.6097,-179.9012 786.77,-177.8392 786.77,-174.64 786.77,-172.6405 783.973,-171.0852 779.3111,-169.9741"/>
<polygon fill="#444444" fill-opacity="0.333333" stroke="#444444" stroke-opacity="0.333333" points="779.5136,-166.4658 769.107,-168.454 778.4821,-173.3894 779.5136,-166.4658"/>
</g>
<!-- libnetfilter_conntrack&#45;&gt;Fedora Container Base -->
<g id="edge42" class="edge">
<title>libnetfilter_conntrack&#45;&gt;Fedora Container Base</title>
<path fill="none" stroke="#444444" stroke-opacity="0.333333" d="M1157.9141,-150.9522C1133.425,-217.5495 1048.5273,-448.4265 1019.1206,-528.3973"/>
<polygon fill="#444444" fill-opacity="0.333333" stroke="#444444" stroke-opacity="0.333333" points="1015.8274,-527.212 1015.661,-537.8055 1022.3973,-529.6279 1015.8274,-527.212"/>
</g>
<!-- libnetfilter_conntrack&#45;&gt;libmnl -->
<g id="edge43" class="edge">
<title>libnetfilter_conntrack&#45;&gt;libmnl</title>
<path fill="none" stroke="#444444" stroke-opacity="0.333333" d="M1168.4029,-114.5844C1172.2649,-96.116 1178.2966,-67.2716 1182.7639,-45.9086"/>
<polygon fill="#444444" fill-opacity="0.333333" stroke="#444444" stroke-opacity="0.333333" points="1186.1939,-46.6053 1184.8149,-36.1006 1179.3421,-45.1724 1186.1939,-46.6053"/>
</g>
<!-- libnetfilter_conntrack&#45;&gt;libnfnetlink -->
<g id="edge44" class="edge">
<title>libnetfilter_conntrack&#45;&gt;libnfnetlink</title>
<path fill="none" stroke="#444444" stroke-opacity="0.333333" d="M1134.9408,-114.7604C1105.5528,-96.9155 1060.4017,-69.4989 1028.2611,-49.9826"/>
<polygon fill="#444444" fill-opacity="0.333333" stroke="#444444" stroke-opacity="0.333333" points="1029.9289,-46.9006 1019.5647,-44.702 1026.2957,-52.8839 1029.9289,-46.9006"/>
</g>
<!-- libpcap&#45;&gt;Fedora Container Base -->
<g id="edge45" class="edge">
<title>libpcap&#45;&gt;Fedora Container Base</title>
<path fill="none" stroke="#444444" stroke-opacity="0.333333" d="M989.9055,-184.368C993.0938,-246.4093 1003.6397,-451.6157 1007.5363,-527.4381"/>
<polygon fill="#444444" fill-opacity="0.333333" stroke="#444444" stroke-opacity="0.333333" points="1004.0526,-527.8466 1008.0613,-537.6537 1011.0433,-527.4872 1004.0526,-527.8466"/>
</g>
<!-- libmnl&#45;&gt;Fedora Container Base -->
<g id="edge46" class="edge">
<title>libmnl&#45;&gt;Fedora Container Base</title>
<path fill="none" stroke="#444444" stroke-opacity="0.333333" d="M1182.5215,-36.2058C1156.0059,-115.6226 1050.3596,-432.0438 1018.283,-528.1166"/>
<polygon fill="#444444" fill-opacity="0.333333" stroke="#444444" stroke-opacity="0.333333" points="1014.9242,-527.125 1015.077,-537.7187 1021.5639,-529.3419 1014.9242,-527.125"/>
</g>
<!-- libnfnetlink&#45;&gt;Fedora Container Base -->
<g id="edge47" class="edge">
<title>libnfnetlink&#45;&gt;Fedora Container Base</title>
<path fill="none" stroke="#444444" stroke-opacity="0.333333" d="M990.4223,-44.8243C993.2727,-123.2426 1004.5075,-432.3256 1007.9751,-527.7241"/>
<polygon fill="#444444" fill-opacity="0.333333" stroke="#444444" stroke-opacity="0.333333" points="1004.4795,-527.9102 1008.3405,-537.7764 1011.4748,-527.6558 1004.4795,-527.9102"/>
</g>
<!-- gperftools&#45;libs&#45;&gt;Fedora Container Base -->
<g id="edge50" class="edge">
<title>gperftools&#45;libs&#45;&gt;Fedora Container Base</title>
<path fill="none" stroke="#444444" stroke-opacity="0.333333" d="M638.9447,-344.9518C711.7096,-386.435 889.8878,-488.0142 969.4768,-533.3879"/>
<polygon fill="#444444" fill-opacity="0.333333" stroke="#444444" stroke-opacity="0.333333" points="967.8069,-536.4647 978.2278,-538.3768 971.2738,-530.3835 967.8069,-536.4647"/>
</g>
<!-- gperftools&#45;libs&#45;&gt;libunwind -->
<g id="edge51" class="edge">
<title>gperftools&#45;libs&#45;&gt;libunwind</title>
<path fill="none" stroke="#444444" stroke-opacity="0.333333" d="M618.3052,-308.7301C634.8936,-282.0801 666.0417,-232.0392 685.2392,-201.1976"/>
<polygon fill="#444444" fill-opacity="0.333333" stroke="#444444" stroke-opacity="0.333333" points="688.2363,-203.0057 690.5494,-192.6664 682.2935,-199.3065 688.2363,-203.0057"/>
</g>
<!-- nginx&#45;&gt;Fedora Container Base -->
<g id="edge52" class="edge">
<title>nginx&#45;&gt;Fedora Container Base</title>
<path fill="none" stroke="#444444" stroke-opacity="0.333333" d="M613.2757,-556.3882C680.6283,-556.3085 779.9628,-556.191 862.2565,-556.0936"/>
<polygon fill="#444444" fill-opacity="0.333333" stroke="#444444" stroke-opacity="0.333333" points="862.4654,-559.5935 872.4612,-556.0815 862.4571,-552.5935 862.4654,-559.5935"/>
</g>
<!-- nginx&#45;&gt;systemd -->
<g id="edge53" class="edge">
<title>nginx&#45;&gt;systemd</title>
<path fill="none" stroke="#444444" stroke-opacity="0.333333" d="M586.7041,-574.558C685.4164,-609.5047 901.9867,-686.1762 1007.7191,-723.6082"/>
<polygon fill="#444444" fill-opacity="0.333333" stroke="#444444" stroke-opacity="0.333333" points="1006.6957,-726.9587 1017.2905,-726.9967 1009.0319,-720.36 1006.6957,-726.9587"/>
</g>
<!-- nginx&#45;&gt;fedora&#45;logos&#45;httpd -->
<g id="edge54" class="edge">
<title>nginx&#45;&gt;fedora&#45;logos&#45;httpd</title>
<path fill="none" stroke="#444444" stroke-opacity="0.333333" d="M465.8299,-538.412C383.8366,-517.1908 248.1195,-482.065 162.1067,-459.8035"/>
<polygon fill="#444444" fill-opacity="0.333333" stroke="#444444" stroke-opacity="0.333333" points="162.9474,-456.4058 152.3894,-457.2885 161.1934,-463.1825 162.9474,-456.4058"/>
</g>
<!-- nginx&#45;&gt;gperftools&#45;libs -->
<g id="edge55" class="edge">
<title>nginx&#45;&gt;gperftools&#45;libs</title>
<path fill="none" stroke="#444444" stroke-opacity="0.333333" d="M541.245,-538.4558C553.6543,-498.5507 583.5222,-402.5034 598.3775,-354.7328"/>
<polygon fill="#444444" fill-opacity="0.333333" stroke="#444444" stroke-opacity="0.333333" points="601.7648,-355.6266 601.3922,-345.0383 595.0806,-353.5479 601.7648,-355.6266"/>
</g>
<!-- nginx&#45;&gt;nginx -->
<g id="edge56" class="edge">
<title>nginx&#45;&gt;nginx</title>
<path fill="none" stroke="#444444" stroke-opacity="0.333333" d="M613.2055,-562.5033C623.955,-561.5112 631.14,-559.5034 631.14,-556.48 631.14,-554.5431 628.1913,-553.0231 623.2457,-551.9198"/>
<polygon fill="#444444" fill-opacity="0.333333" stroke="#444444" stroke-opacity="0.333333" points="623.6057,-548.4354 613.2055,-550.4567 622.5962,-555.3623 623.6057,-548.4354"/>
</g>
<!-- nginx&#45;&gt;nginx&#45;filesystem -->
<g id="edge57" class="edge">
<title>nginx&#45;&gt;nginx&#45;filesystem</title>
<path fill="none" stroke="#444444" stroke-opacity="0.333333" d="M533.3702,-574.6827C530.5471,-597.3232 525.6949,-636.2358 522.3738,-662.8698"/>
<polygon fill="#444444" fill-opacity="0.333333" stroke="#444444" stroke-opacity="0.333333" points="518.8619,-662.7484 521.0976,-673.1047 525.8081,-663.6146 518.8619,-662.7484"/>
</g>
<!-- nginx&#45;&gt;nginx&#45;mimetypes -->
<g id="edge58" class="edge">
<title>nginx&#45;&gt;nginx&#45;mimetypes</title>
<path fill="none" stroke="#444444" stroke-opacity="0.333333" d="M491.2761,-574.5431C429.8336,-599.5599 318.948,-644.7078 252.8224,-671.6314"/>
<polygon fill="#444444" fill-opacity="0.333333" stroke="#444444" stroke-opacity="0.333333" points="251.344,-668.4542 243.4021,-675.4669 253.9837,-674.9375 251.344,-668.4542"/>
</g>
<!-- nginx&#45;filesystem&#45;&gt;Fedora Container Base -->
<g id="edge59" class="edge">
<title>nginx&#45;filesystem&#45;&gt;Fedora Container Base</title>
<path fill="none" stroke="#444444" stroke-opacity="0.333333" d="M584.1568,-673.3826C676.9264,-647.7332 846.0074,-600.985 940.4813,-574.8644"/>
<polygon fill="#444444" fill-opacity="0.333333" stroke="#444444" stroke-opacity="0.333333" points="941.5187,-578.2089 950.2244,-572.1706 939.6532,-571.4621 941.5187,-578.2089"/>
</g>
<!-- nginx&#45;filesystem&#45;&gt;shadow&#45;utils -->
<g id="edge60" class="edge">
<title>nginx&#45;filesystem&#45;&gt;shadow&#45;utils</title>
<path fill="none" stroke="#444444" stroke-opacity="0.333333" d="M594.823,-708.6108C629.5891,-716.4597 670.8019,-725.764 706.0932,-733.7314"/>
<polygon fill="#444444" fill-opacity="0.333333" stroke="#444444" stroke-opacity="0.333333" points="705.3546,-737.1527 715.8799,-735.9409 706.8962,-730.3245 705.3546,-737.1527"/>
</g>
<!-- nginx&#45;mimetypes&#45;&gt;nginx&#45;filesystem -->
<g id="edge61" class="edge">
<title>nginx&#45;mimetypes&#45;&gt;nginx&#45;filesystem</title>
<path fill="none" stroke="#444444" stroke-opacity="0.333333" d="M285.0801,-692.9991C330.754,-692.6964 386.7119,-692.3255 432.4228,-692.0225"/>
<polygon fill="#444444" fill-opacity="0.333333" stroke="#444444" stroke-opacity="0.333333" points="432.6329,-695.5213 442.6095,-691.955 432.5865,-688.5215 432.6329,-695.5213"/>
</g>
<!-- nginx&#45;mimetypes&#45;&gt;nginx&#45;mimetypes -->
<g id="edge62" class="edge">
<title>nginx&#45;mimetypes&#45;&gt;nginx&#45;mimetypes</title>
<path fill="none" stroke="#444444" stroke-opacity="0.333333" d="M285.017,-699.4482C295.8264,-698.4122 302.94,-696.4528 302.94,-693.57 302.94,-691.7232 300.0206,-690.2554 295.0803,-689.1665"/>
<polygon fill="#444444" fill-opacity="0.333333" stroke="#444444" stroke-opacity="0.333333" points="295.4189,-685.6788 285.017,-687.6918 294.4039,-692.6048 295.4189,-685.6788"/>
</g>
<!-- Fedora Container Base -->
<g id="node1" class="node">
<title>Fedora Container Base</title>
<ellipse fill="none" stroke="#000000" cx="1009" cy="-555.92" rx="136.5" ry="18"/>
<text text-anchor="middle" x="1009" y="-552.22" font-family="Helvetica,sans-Serif" font-weight="bold" font-size="14.00" fill="#000000">Fedora Container Base (201.4 MB)</text>
</g>
<!-- device&#45;mapper&#45;libs -->
<g id="node2" class="node">
<title>device&#45;mapper&#45;libs</title>
<text text-anchor="middle" x="1439.8" y="-322.58" font-family="Helvetica,sans-Serif" font-weight="bold" font-size="14.00" fill="#000000">device&#45;mapper&#45;libs (418.0 kB)</text>
</g>
<!-- device&#45;mapper -->
<g id="node3" class="node">
<title>device&#45;mapper</title>
<text text-anchor="middle" x="1296" y="-452.06" font-family="Helvetica,sans-Serif" font-weight="bold" font-size="14.00" fill="#000000">device&#45;mapper (349.9 kB)</text>
</g>
<!-- libargon2 -->
<g id="node4" class="node">
<title>libargon2</title>
<text text-anchor="middle" x="1561.8" y="-467.42" font-family="Helvetica,sans-Serif" font-weight="bold" font-size="14.00" fill="#000000">libargon2 (54.2 kB)</text>
</g>
<!-- dbus&#45;broker -->
<g id="node5" class="node">
<title>dbus&#45;broker</title>
<text text-anchor="middle" x="1016.9" y="-954.46" font-family="Helvetica,sans-Serif" font-weight="bold" font-size="14.00" fill="#000000">dbus&#45;broker (409.7 kB)</text>
</g>
<!-- dbus&#45;common -->
<g id="node6" class="node">
<title>dbus&#45;common</title>
<text text-anchor="middle" x="1169.9" y="-888.33" font-family="Helvetica,sans-Serif" font-weight="bold" font-size="14.00" fill="#000000">dbus&#45;common (11.2 kB)</text>
</g>
<!-- shadow&#45;utils -->
<g id="node7" class="node">
<title>shadow&#45;utils</title>
<text text-anchor="middle" x="786.57" y="-748.2" font-family="Helvetica,sans-Serif" font-weight="bold" font-size="14.00" fill="#000000">shadow&#45;utils (4.0 MB)</text>
</g>
<!-- systemd -->
<g id="node8" class="node">
<title>systemd</title>
<text text-anchor="middle" x="1068.2" y="-741.32" font-family="Helvetica,sans-Serif" font-weight="bold" font-size="14.00" fill="#000000">systemd (13.1 MB)</text>
</g>
<!-- libsemanage -->
<g id="node9" class="node">
<title>libsemanage</title>
<text text-anchor="middle" x="642.53" y="-864.94" font-family="Helvetica,sans-Serif" font-weight="bold" font-size="14.00" fill="#000000">libsemanage (304.5 kB)</text>
</g>
<!-- util&#45;linux -->
<g id="node10" class="node">
<title>util&#45;linux</title>
<text text-anchor="middle" x="1164.3" y="-508.18" font-family="Helvetica,sans-Serif" font-weight="bold" font-size="14.00" fill="#000000">util&#45;linux (13.5 MB)</text>
</g>
<!-- iptables&#45;libs -->
<g id="node11" class="node">
<title>iptables&#45;libs</title>
<text text-anchor="middle" x="1097.8" y="-325.31" font-family="Helvetica,sans-Serif" font-weight="bold" font-size="14.00" fill="#000000">iptables&#45;libs (1.9 MB)</text>
</g>
<!-- acl -->
<g id="node12" class="node">
<title>acl</title>
<text text-anchor="middle" x="801.25" y="-613.58" font-family="Helvetica,sans-Serif" font-weight="bold" font-size="14.00" fill="#000000">acl (209.6 kB)</text>
</g>
<!-- cryptsetup&#45;libs -->
<g id="node13" class="node">
<title>cryptsetup&#45;libs</title>
<text text-anchor="middle" x="1415.3" y="-547.86" font-family="Helvetica,sans-Serif" font-weight="bold" font-size="14.00" fill="#000000">cryptsetup&#45;libs (1.8 MB)</text>
</g>
<!-- dbus -->
<g id="node14" class="node">
<title>dbus</title>
<text text-anchor="middle" x="1097.6" y="-1216" font-family="Helvetica,sans-Serif" font-weight="bold" font-size="14.00" fill="#000000">dbus (0.0 B)</text>
</g>
<!-- kmod&#45;libs -->
<g id="node15" class="node">
<title>kmod&#45;libs</title>
<text text-anchor="middle" x="1197.6" y="-999.7" font-family="Helvetica,sans-Serif" font-weight="bold" font-size="14.00" fill="#000000">kmod&#45;libs (127.5 kB)</text>
</g>
<!-- libfdisk -->
<g id="node16" class="node">
<title>libfdisk</title>
<text text-anchor="middle" x="1283.6" y="-661.51" font-family="Helvetica,sans-Serif" font-weight="bold" font-size="14.00" fill="#000000">libfdisk (472.7 kB)</text>
</g>
<!-- libseccomp -->
<g id="node17" class="node">
<title>libseccomp</title>
<text text-anchor="middle" x="906.28" y="-1001.4" font-family="Helvetica,sans-Serif" font-weight="bold" font-size="14.00" fill="#000000">libseccomp (351.1 kB)</text>
</g>
<!-- qrencode&#45;libs -->
<g id="node18" class="node">
<title>qrencode&#45;libs</title>
<text text-anchor="middle" x="851.2" y="-883.78" font-family="Helvetica,sans-Serif" font-weight="bold" font-size="14.00" fill="#000000">qrencode&#45;libs (158.2 kB)</text>
</g>
<!-- systemd&#45;pam -->
<g id="node19" class="node">
<title>systemd&#45;pam</title>
<text text-anchor="middle" x="1408.8" y="-760.06" font-family="Helvetica,sans-Serif" font-weight="bold" font-size="14.00" fill="#000000">systemd&#45;pam (867.7 kB)</text>
</g>
<!-- systemd&#45;rpm&#45;macros -->
<g id="node20" class="node">
<title>systemd&#45;rpm&#45;macros</title>
<text text-anchor="middle" x="1344.9" y="-880.29" font-family="Helvetica,sans-Serif" font-weight="bold" font-size="14.00" fill="#000000">systemd&#45;rpm&#45;macros (7.9 kB)</text>
</g>
<!-- libutempter -->
<g id="node21" class="node">
<title>libutempter</title>
<text text-anchor="middle" x="846.64" y="-458.92" font-family="Helvetica,sans-Serif" font-weight="bold" font-size="14.00" fill="#000000">libutempter (57.8 kB)</text>
</g>
<!-- libunwind -->
<g id="node22" class="node">
<title>libunwind</title>
<text text-anchor="middle" x="701.77" y="-170.94" font-family="Helvetica,sans-Serif" font-weight="bold" font-size="14.00" fill="#000000">libunwind (172.8 kB)</text>
</g>
<!-- libnetfilter_conntrack -->
<g id="node23" class="node">
<title>libnetfilter_conntrack</title>
<text text-anchor="middle" x="1164.6" y="-129.07" font-family="Helvetica,sans-Serif" font-weight="bold" font-size="14.00" fill="#000000">libnetfilter_conntrack (148.0 kB)</text>
</g>
<!-- libpcap -->
<g id="node24" class="node">
<title>libpcap</title>
<text text-anchor="middle" x="988.98" y="-162.66" font-family="Helvetica,sans-Serif" font-weight="bold" font-size="14.00" fill="#000000">libpcap (387.4 kB)</text>
</g>
<!-- libmnl -->
<g id="node25" class="node">
<title>libmnl</title>
<text text-anchor="middle" x="1188.6" y="-14.3" font-family="Helvetica,sans-Serif" font-weight="bold" font-size="14.00" fill="#000000">libmnl (55.4 kB)</text>
</g>
<!-- libnfnetlink -->
<g id="node26" class="node">
<title>libnfnetlink</title>
<text text-anchor="middle" x="989.76" y="-22.904" font-family="Helvetica,sans-Serif" font-weight="bold" font-size="14.00" fill="#000000">libnfnetlink (54.8 kB)</text>
</g>
<!-- fedora&#45;logos&#45;httpd -->
<g id="node27" class="node">
<title>fedora&#45;logos&#45;httpd</title>
<text text-anchor="middle" x="82.5" y="-435.5" font-family="Helvetica,sans-Serif" font-weight="bold" font-size="14.00" fill="#000000">fedora&#45;logos&#45;httpd (9.9 kB)</text>
</g>
<!-- gperftools&#45;libs -->
<g id="node28" class="node">
<title>gperftools&#45;libs</title>
<text text-anchor="middle" x="607.07" y="-323.08" font-family="Helvetica,sans-Serif" font-weight="bold" font-size="14.00" fill="#000000">gperftools&#45;libs (1.5 MB)</text>
</g>
<!-- nginx -->
<g id="node29" class="node">
<title>nginx</title>
<text text-anchor="middle" x="535.64" y="-550.88" font-family="Helvetica,sans-Serif" font-weight="bold" font-size="22.00" fill="#cc0066">nginx (1.6 MB)</text>
</g>
<!-- nginx&#45;filesystem -->
<g id="node30" class="node">
<title>nginx&#45;filesystem</title>
<text text-anchor="middle" x="518.81" y="-687.75" font-family="Helvetica,sans-Serif" font-weight="bold" font-size="14.00" fill="#000000">nginx&#45;filesystem (0.0 B)</text>
</g>
<!-- nginx&#45;mimetypes -->
<g id="node31" class="node">
<title>nginx&#45;mimetypes</title>
<text text-anchor="middle" x="198.94" y="-689.87" font-family="Helvetica,sans-Serif" font-weight="bold" font-size="14.00" fill="#000000">nginx&#45;mimetypes (39.3 kB)</text>
</g>
</g>

<script type="text/javascript"><![CDATA[

document.addEventListener('click', function(e) {
      e = e || window.event;
      var target = e.target || e.srcElement;
      text = target.parentElement.querySelector("title").textContent;

      console.log("Clicked on: " + text);
      // reset all strokes
      var nodes = document.getElementsByClassName("edge");

      for (index = 0, len = nodes.length; index < len; ++index) {
          //var title = nodes[index].querySelector("title").textContent.split("->");
          id = nodes[index].id;
          document.getElementById(id).querySelector("path").setAttribute("stroke-width", "1");
          document.getElementById(id).querySelector("path").setAttribute("stroke-opacity", "0.5");
          document.getElementById(id).querySelector("path").setAttribute("stroke", "#444444");
          document.getElementById(id).querySelector("polygon").setAttribute("stroke-width", "1");
          document.getElementById(id).querySelector("polygon").setAttribute("stroke-opacity", "0.5");
          document.getElementById(id).querySelector("polygon").setAttribute("stroke", "#444444");
      }
      // reset text highlight
      pkgs = document.getElementsByClassName("node");
      for (index2 = 0, len2 = pkgs.length; index2 < len2; ++index2) {
          target_id = pkgs[index2].id;
          document.getElementById(target_id).querySelector("text").setAttribute("font-weight", "normal");
      }

      // highlight deps
      var nodes = document.getElementsByClassName("edge");
      for (index = 0, len = nodes.length; index < len; ++index) {
        var title = nodes[index].querySelector("title").textContent.split("->");

        if (title[0] == text) {
          id = nodes[index].id;
          //console.log("ID:   " + id);
          document.getElementById(id).querySelector("path").setAttribute("stroke-width", "3");
          document.getElementById(id).querySelector("path").setAttribute("stroke-opacity", "1");
          document.getElementById(id).querySelector("path").setAttribute("stroke", "#aa3333");
          document.getElementById(id).querySelector("polygon").setAttribute("stroke-width", "5");
          document.getElementById(id).querySelector("polygon").setAttribute("stroke-opacity", "1");
          document.getElementById(id).querySelector("polygon").setAttribute("stroke", "#aa3333");

        }
        if (title[1] == text) {
          id = nodes[index].id;
          document.getElementById(id).querySelector("path").setAttribute("stroke-width", "3");
          document.getElementById(id).querySelector("path").setAttribute("stroke-opacity", "1");
          document.getElementById(id).querySelector("path").setAttribute("stroke", "#333377");
          document.getElementById(id).querySelector("polygon").setAttribute("stroke-width", "5");
          document.getElementById(id).querySelector("polygon").setAttribute("stroke-opacity", "1");
          document.getElementById(id).querySelector("polygon").setAttribute("stroke", "#333377");
        }

        if (title[0] == text || title[1] == text) {
          pkgs = document.getElementsByClassName("node");
          for (index2 = 0, len2 = pkgs.length; index2 < len2; ++index2) {
            var pkg_name = pkgs[index2].querySelector("title").textContent;
            if (pkg_name == title[0] || pkg_name == title[1]) {
              target_id = pkgs[index2].id;
              document.getElementById(target_id).querySelector("text").setAttribute("font-weight", "bold");
            }
          }
        }
      }


  }, false);

]]></script>

</svg>
