<?xml version="1.0" encoding="UTF-8" standalone="no"?>
<!DOCTYPE svg PUBLIC "-//W3C//DTD SVG 1.1//EN"
 "http://www.w3.org/Graphics/SVG/1.1/DTD/svg11.dtd">
<!-- Generated by graphviz version 2.40.1 (0)
 -->
<!-- Title: packages Pages: 1 -->
<svg width="684pt" height="385pt"
 viewBox="0.00 0.00 821.15 462.11" xmlns="http://www.w3.org/2000/svg" xmlns:xlink="http://www.w3.org/1999/xlink">
<g id="graph0" class="graph" transform="scale(.8333 .8333) rotate(0) translate(80.671 360.7109)">
<title>packages</title>
<polygon fill="#dae2ff" stroke="transparent" points="-80.671,101.3984 -80.671,-360.7109 740.4756,-360.7109 740.4756,101.3984 -80.671,101.3984"/>
<polygon fill="#fbb4ae" stroke="#fbb4ae" points="58.8594,-17.8983 55.3536,67.5527 55.3839,90.04 12.9134,97.3984 -21.8284,48.6455 -45.357,11.1099 -54.1802,-1.5597 -52.6625,-49.0448 -53.8194,-138.5784 -76.671,-165.1428 -39.5112,-228.7195 -39.1522,-229.3937 -6.3026,-297.4556 55.787,-341.9567 76.6871,-338.7534 77.3518,-233.6676 83.5619,-229.3015 84.5417,-229.3015 84.6731,-229.2527 90.4592,-229.2527 90.885,-229.097 91.0379,-229.097 96.8791,-233.3147 96.8791,-233.3147 91.0379,-229.097 90.885,-229.097 90.4592,-229.2527 84.6731,-229.2527 84.5417,-229.3015 83.5619,-229.3015 77.3518,-233.6676 76.6871,-338.7534 78.0932,-338.5854 93.2892,-337.2821 105.6276,-336.643 109.4131,-336.7033 127.6274,-338.2286 204.382,-347.2463 216.8301,-356.7109 247.2886,-355.259 268.2899,-351.0201 286.0668,-348.3928 289.7042,-348.0527 300.6438,-347.6202 307.5203,-344.3461 314.2877,-341.3516 329.153,-335.7621 329.7625,-335.5535 339.8776,-332.4272 352.8721,-329.2739 363.3905,-327.0734 365.726,-326.7408 376.0464,-325.6124 395.4711,-324.7781 500.8972,-327.2737 542.8937,-284.0247 578.3391,-280.7611 578.7662,-280.7318 589.6231,-270.7502 602.3756,-260.153 613.236,-251.6156 635.0944,-237.3261 687.2495,-205.6453 732.5013,-163.6611 732.5598,-156.9027 736.1273,-90.85 736.4756,-87.2968 674.7131,-8.6491 635.2534,-13.3954 620.4874,-14.6676 615.6276,-16.0737 609.0414,-17.7341 607.7817,-17.9591 597.386,-19.4403 581.246,-21.1511 581.9808,-47.0422 581.9808,-47.0422 581.246,-21.1511 515.86,-23.2849 506.5215,-7.9197 462.0043,73.1939 407.7148,71.8919 393.7421,72.0485 384.4879,72.4784 378.9653,72.9289 363.296,75.3111 361.4366,75.6585 355.2289,77.036 355.0894,77.0718 338.0104,82.0691 343.7427,-25.4866 337.0743,-23.0536 337.0743,-23.0536 343.7427,-25.4866 338.0104,82.0691 337.6962,82.172 321.5834,88.5922 312.4459,92.8779 307.891,90.6908 297.2303,86.3163 279.4576,80.2552 272.8815,78.4754 214.4857,64.7049 164.5133,87.9134 141.1281,87.1042 140.9964,77.9308 140.9964,77.9308 141.1281,87.1042 133.9851,87.34 118.0151,88.409 113.5283,89.0124 107.3804,90.0482 101.2415,89.2644 86.9351,88.3952 76.0478,88.4628 74.8916,88.5086 58.5065,89.7077 55.3839,90.04 55.3536,67.5527 58.8594,-17.8983 65.6,-17.8983 65.6114,-17.9024 58.4833,-124.0082 77.3881,-123.4465 80.2529,-123.5543 84.8908,-18.1238 88.4514,-18.1238 90.6666,-20.4852 90.6666,-20.4852 88.4514,-18.1238 84.8908,-18.1238 80.2529,-123.5543 77.3881,-123.4465 58.4833,-124.0082 65.6114,-17.9024 65.6,-17.8983 58.8594,-17.8983 58.8594,-17.8983"/>
<polyline fill="none" stroke="#000000" points="329.153,-335.7621 329.7625,-335.5535 339.8776,-332.4272 352.8721,-329.2739 363.3905,-327.0734 365.726,-326.7408 376.0464,-325.6124 395.4711,-324.7781 500.8972,-327.2737 542.8937,-284.0247 578.3391,-280.7611 578.7662,-280.7318 589.6231,-270.7502 602.3756,-260.153 613.236,-251.6156 635.0944,-237.3261 687.2495,-205.6453 732.5013,-163.6611 732.5598,-156.9027 736.1273,-90.85 736.4756,-87.2968 674.7131,-8.6491 635.2534,-13.3954 620.4874,-14.6676 615.6276,-16.0737 609.0414,-17.7341 607.7817,-17.9591 597.386,-19.4403 581.246,-21.1511 515.86,-23.2849 506.5215,-7.9197 462.0043,73.1939 407.7148,71.8919 393.7421,72.0485 384.4879,72.4784 378.9653,72.9289 363.296,75.3111 361.4366,75.6585 355.2289,77.036 355.0894,77.0718 338.0104,82.0691 337.6962,82.172 321.5834,88.5922 312.4459,92.8779 307.891,90.6908 297.2303,86.3163 279.4576,80.2552 272.8815,78.4754 214.4857,64.7049 164.5133,87.9134 141.1281,87.1042 133.9851,87.34 118.0151,88.409 113.5283,89.0124 107.3804,90.0482 101.2415,89.2644 86.9351,88.3952 76.0478,88.4628 74.8916,88.5086 58.5065,89.7077 55.3839,90.04 12.9134,97.3984 -21.8284,48.6455 -45.357,11.1099 -54.1802,-1.5597 -52.6625,-49.0448 -53.8194,-138.5784 -76.671,-165.1428 -39.5112,-228.7195 -39.1522,-229.3937 -6.3026,-297.4556 55.787,-341.9567 76.6871,-338.7534 78.0932,-338.5854 93.2892,-337.2821 105.6276,-336.643 109.4131,-336.7033 127.6274,-338.2286 204.382,-347.2463 216.8301,-356.7109 247.2886,-355.259 268.2899,-351.0201 286.0668,-348.3928 289.7042,-348.0527 300.6438,-347.6202 307.5203,-344.3461 314.2877,-341.3516 329.153,-335.7621 "/>
<!-- libicu&#45;&gt;Fedora Container Base -->
<g id="edge1" class="edge">
<title>libicu&#45;&gt;Fedora Container Base</title>
<path fill="none" stroke="#444444" stroke-opacity="0.333333" d="M551.8064,-142.4579C505.4808,-158.339 438.1529,-181.42 390.0464,-197.9117"/>
<polygon fill="#444444" fill-opacity="0.333333" stroke="#444444" stroke-opacity="0.333333" points="388.7152,-194.668 380.3906,-201.2219 390.9852,-201.2898 388.7152,-194.668"/>
</g>
<!-- libicu&#45;&gt;libicu -->
<g id="edge2" class="edge">
<title>libicu&#45;&gt;libicu</title>
<path fill="none" stroke="#444444" stroke-opacity="0.333333" d="M659.6133,-130.807C670.1141,-130.038 677.54,-127.8956 677.54,-124.38 677.54,-122.1278 674.4924,-120.4392 669.5411,-119.3142"/>
<polygon fill="#444444" fill-opacity="0.333333" stroke="#444444" stroke-opacity="0.333333" points="669.9961,-115.8439 659.6133,-117.953 669.0451,-122.779 669.9961,-115.8439"/>
</g>
<!-- libpq&#45;&gt;Fedora Container Base -->
<g id="edge3" class="edge">
<title>libpq&#45;&gt;Fedora Container Base</title>
<path fill="none" stroke="#444444" stroke-opacity="0.333333" d="M154.4368,-226.5059C166.088,-225.9539 178.9261,-225.3458 192.2033,-224.7168"/>
<polygon fill="#444444" fill-opacity="0.333333" stroke="#444444" stroke-opacity="0.333333" points="192.6064,-228.2018 202.4295,-224.2324 192.2751,-221.2096 192.6064,-228.2018"/>
</g>
<!-- postgresql&#45;&gt;Fedora Container Base -->
<g id="edge4" class="edge">
<title>postgresql&#45;&gt;Fedora Container Base</title>
<path fill="none" stroke="#444444" stroke-opacity="0.333333" d="M118.637,-36.1141C160.6688,-72.1346 254.7817,-152.7879 302.3498,-193.553"/>
<polygon fill="#444444" fill-opacity="0.333333" stroke="#444444" stroke-opacity="0.333333" points="300.2483,-196.3614 310.119,-200.211 304.8034,-191.0462 300.2483,-196.3614"/>
</g>
<!-- postgresql&#45;&gt;libpq -->
<g id="edge5" class="edge">
<title>postgresql&#45;&gt;libpq</title>
<path fill="none" stroke="#444444" stroke-opacity="0.333333" d="M97.781,-36.3601C98.3467,-73.3268 99.6264,-156.9389 100.2988,-200.8729"/>
<polygon fill="#444444" fill-opacity="0.333333" stroke="#444444" stroke-opacity="0.333333" points="96.7992,-200.9374 100.452,-210.8826 103.7984,-200.8302 96.7992,-200.9374"/>
</g>
<!-- postgresql&#45;server&#45;&gt;Fedora Container Base -->
<g id="edge6" class="edge">
<title>postgresql&#45;server&#45;&gt;Fedora Container Base</title>
<path fill="none" stroke="#444444" stroke-opacity="0.333333" d="M336.4466,-46.2206C335.3996,-79.5139 333.1717,-150.3562 331.9274,-189.9218"/>
<polygon fill="#444444" fill-opacity="0.333333" stroke="#444444" stroke-opacity="0.333333" points="328.4278,-189.8575 331.6117,-199.9626 335.4243,-190.0776 328.4278,-189.8575"/>
</g>
<!-- postgresql&#45;server&#45;&gt;libicu -->
<g id="edge7" class="edge">
<title>postgresql&#45;server&#45;&gt;libicu</title>
<path fill="none" stroke="#444444" stroke-opacity="0.333333" d="M387.0246,-46.0055C431.7333,-62.1148 497.3313,-85.7509 544.7894,-102.8509"/>
<polygon fill="#444444" fill-opacity="0.333333" stroke="#444444" stroke-opacity="0.333333" points="543.7326,-106.1903 554.327,-106.2874 546.1056,-99.6047 543.7326,-106.1903"/>
</g>
<!-- postgresql&#45;server&#45;&gt;libpq -->
<g id="edge8" class="edge">
<title>postgresql&#45;server&#45;&gt;libpq</title>
<path fill="none" stroke="#444444" stroke-opacity="0.333333" d="M315.6341,-46.1855C273.1074,-82.372 177.8862,-163.3968 129.758,-204.3497"/>
<polygon fill="#444444" fill-opacity="0.333333" stroke="#444444" stroke-opacity="0.333333" points="127.2451,-201.8923 121.8973,-211.0385 131.7815,-207.2235 127.2451,-201.8923"/>
</g>
<!-- postgresql&#45;server&#45;&gt;postgresql -->
<g id="edge9" class="edge">
<title>postgresql&#45;server&#45;&gt;postgresql</title>
<path fill="none" stroke="#444444" stroke-opacity="0.333333" d="M192.8529,-21.9762C192.8033,-21.9742 192.7538,-21.9721 192.7043,-21.97"/>
<polygon fill="#444444" fill-opacity="0.333333" stroke="#444444" stroke-opacity="0.333333" points="202.6951,-18.8899 192.5557,-21.9638 202.399,-25.8839 202.6951,-18.8899"/>
</g>
<!-- postgresql&#45;server&#45;&gt;postgresql&#45;server -->
<g id="edge10" class="edge">
<title>postgresql&#45;server&#45;&gt;postgresql&#45;server</title>
<path fill="none" stroke="#444444" stroke-opacity="0.333333" d="M481.0434,-33.0768C492.1641,-31.9518 499.02,-30.2556 499.02,-27.988 499.02,-26.5353 496.2063,-25.3171 491.2602,-24.3334"/>
<polygon fill="#444444" fill-opacity="0.333333" stroke="#444444" stroke-opacity="0.333333" points="491.4329,-20.8234 481.0434,-22.8992 490.4597,-27.7554 491.4329,-20.8234"/>
</g>
<!-- Fedora Container Base -->
<g id="node1" class="node">
<title>Fedora Container Base</title>
<ellipse fill="none" stroke="#000000" cx="331.04" cy="-218.14" rx="136.5" ry="18"/>
<text text-anchor="middle" x="331.04" y="-214.44" font-family="Helvetica,sans-Serif" font-weight="bold" font-size="14.00" fill="#000000">Fedora Container Base (258.7 MB)</text>
</g>
<!-- libicu -->
<g id="node2" class="node">
<title>libicu</title>
<text text-anchor="middle" x="604.54" y="-120.68" font-family="Helvetica,sans-Serif" font-weight="bold" font-size="14.00" fill="#000000">libicu (35.0 MB)</text>
</g>
<!-- libpq -->
<g id="node3" class="node">
<title>libpq</title>
<text text-anchor="middle" x="100.73" y="-225.35" font-family="Helvetica,sans-Serif" font-weight="bold" font-size="14.00" fill="#000000">libpq (746.2 kB)</text>
</g>
<!-- postgresql -->
<g id="node4" class="node">
<title>postgresql</title>
<text text-anchor="middle" x="97.5" y="-12.4" font-family="Helvetica,sans-Serif" font-weight="bold" font-size="22.00" fill="#cc0066">postgresql (6.1 MB)</text>
</g>
<!-- postgresql&#45;server -->
<g id="node5" class="node">
<title>postgresql&#45;server</title>
<text text-anchor="middle" x="337.02" y="-22.388" font-family="Helvetica,sans-Serif" font-weight="bold" font-size="22.00" fill="#cc0066">postgresql&#45;server (22.8 MB)</text>
</g>
</g>

<script type="text/javascript"><![CDATA[

document.addEventListener('click', function(e) {
      e = e || window.event;
      var target = e.target || e.srcElement;
      text = target.parentElement.querySelector("title").textContent;

      console.log("Clicked on: " + text);
      // reset all strokes
      var nodes = document.getElementsByClassName("edge");

      for (index = 0, len = nodes.length; index < len; ++index) {
          //var title = nodes[index].querySelector("title").textContent.split("->");
          id = nodes[index].id;
          document.getElementById(id).querySelector("path").setAttribute("stroke-width", "1");
          document.getElementById(id).querySelector("path").setAttribute("stroke-opacity", "0.5");
          document.getElementById(id).querySelector("path").setAttribute("stroke", "#444444");
          document.getElementById(id).querySelector("polygon").setAttribute("stroke-width", "1");
          document.getElementById(id).querySelector("polygon").setAttribute("stroke-opacity", "0.5");
          document.getElementById(id).querySelector("polygon").setAttribute("stroke", "#444444");
      }
      // reset text highlight
      pkgs = document.getElementsByClassName("node");
      for (index2 = 0, len2 = pkgs.length; index2 < len2; ++index2) {
          target_id = pkgs[index2].id;
          document.getElementById(target_id).querySelector("text").setAttribute("font-weight", "normal");
      }

      // highlight deps
      var nodes = document.getElementsByClassName("edge");
      for (index = 0, len = nodes.length; index < len; ++index) {
        var title = nodes[index].querySelector("title").textContent.split("->");

        if (title[0] == text) {
          id = nodes[index].id;
          //console.log("ID:   " + id);
          document.getElementById(id).querySelector("path").setAttribute("stroke-width", "3");
          document.getElementById(id).querySelector("path").setAttribute("stroke-opacity", "1");
          document.getElementById(id).querySelector("path").setAttribute("stroke", "#aa3333");
          document.getElementById(id).querySelector("polygon").setAttribute("stroke-width", "5");
          document.getElementById(id).querySelector("polygon").setAttribute("stroke-opacity", "1");
          document.getElementById(id).querySelector("polygon").setAttribute("stroke", "#aa3333");

        }
        if (title[1] == text) {
          id = nodes[index].id;
          document.getElementById(id).querySelector("path").setAttribute("stroke-width", "3");
          document.getElementById(id).querySelector("path").setAttribute("stroke-opacity", "1");
          document.getElementById(id).querySelector("path").setAttribute("stroke", "#333377");
          document.getElementById(id).querySelector("polygon").setAttribute("stroke-width", "5");
          document.getElementById(id).querySelector("polygon").setAttribute("stroke-opacity", "1");
          document.getElementById(id).querySelector("polygon").setAttribute("stroke", "#333377");
        }

        if (title[0] == text || title[1] == text) {
          pkgs = document.getElementsByClassName("node");
          for (index2 = 0, len2 = pkgs.length; index2 < len2; ++index2) {
            var pkg_name = pkgs[index2].querySelector("title").textContent;
            if (pkg_name == title[0] || pkg_name == title[1]) {
              target_id = pkgs[index2].id;
              document.getElementById(target_id).querySelector("text").setAttribute("font-weight", "bold");
            }
          }
        }
      }


  }, false);

]]></script>

</svg>
