<?xml version="1.0" encoding="UTF-8" standalone="no"?>
<!DOCTYPE svg PUBLIC "-//W3C//DTD SVG 1.1//EN"
 "http://www.w3.org/Graphics/SVG/1.1/DTD/svg11.dtd">
<!-- Generated by graphviz version 2.40.1 (0)
 -->
<!-- Title: packages Pages: 1 -->
<svg width="340pt" height="242pt"
 viewBox="0.00 0.00 340.12 241.55" xmlns="http://www.w3.org/2000/svg" xmlns:xlink="http://www.w3.org/1999/xlink">
<g id="graph0" class="graph" transform="scale(1 1) rotate(0) translate(35.6943 135.5959)">
<title>packages</title>
<polygon fill="#dae2ff" stroke="transparent" points="-35.6943,105.9508 -35.6943,-135.5959 304.4219,-135.5959 304.4219,105.9508 -35.6943,105.9508"/>
<polygon fill="#fbb4ae" stroke="#fbb4ae" points="81.7269,63.6266 75.8985,62.9647 47.3208,61.5312 15.946,7.6894 -31.6943,-59.5168 -31.3375,-60.0115 -28.1683,-62.2328 -11.096,-75.4529 75.3704,-95.6845 78.478,-96.6316 94.2269,-102.5769 100.226,-105.2632 110.2354,-110.4599 111.6711,-111.307 128.8357,-122.7246 140.7104,-131.4662 140.8578,-131.5959 157.4743,-118.869 163.0465,-115.0233 174.2378,-108.124 179.7174,-105.1556 192.2642,-99.2745 200.0819,-96.1936 297.2733,-65.0872 300.4219,-60.1376 290.3196,-42.5622 268.1255,1.2939 227.0009,99.5445 221.6467,101.9508 205.3103,94.3726 190.7009,88.3628 179.1205,84.2226 173.706,82.5806 158.7063,78.8349 140.0474,76.1807 138.6172,76.0544 126.4046,75.6286 124.4996,75.6642 123.1554,75.7616 103.6719,68.5617 102.1693,68.1044 88.7859,64.877 81.7269,63.6266 81.7269,63.6266"/>
<polyline fill="none" stroke="#000000" points="128.8357,-122.7246 140.7104,-131.4662 140.8578,-131.5959 157.4743,-118.869 163.0465,-115.0233 174.2378,-108.124 179.7174,-105.1556 192.2642,-99.2745 200.0819,-96.1936 297.2733,-65.0872 300.4219,-60.1376 290.3196,-42.5622 268.1255,1.2939 227.0009,99.5445 221.6467,101.9508 205.3103,94.3726 190.7009,88.3628 179.1205,84.2226 173.706,82.5806 158.7063,78.8349 140.0474,76.1807 138.6172,76.0544 126.4046,75.6286 124.4996,75.6642 123.1554,75.7616 103.6719,68.5617 102.1693,68.1044 88.7859,64.877 81.7269,63.6266 75.8985,62.9647 47.3208,61.5312 15.946,7.6894 -31.6943,-59.5168 -31.3375,-60.0115 -28.1683,-62.2328 -11.096,-75.4529 75.3704,-95.6845 78.478,-96.6316 94.2269,-102.5769 100.226,-105.2632 110.2354,-110.4599 111.6711,-111.307 128.8357,-122.7246 "/>
<!-- Fedora Container Base -->
<g id="node1" class="node">
<title>Fedora Container Base</title>
<ellipse fill="none" stroke="#000000" cx="136.49" cy="-18" rx="136.5" ry="18"/>
<text text-anchor="middle" x="136.49" y="-14.3" font-family="Helvetica,sans-Serif" font-weight="bold" font-size="14.00" fill="#000000">Fedora Container Base (262.1 MB)</text>
</g>
</g>

<script type="text/javascript"><![CDATA[

document.addEventListener('click', function(e) {
      e = e || window.event;
      var target = e.target || e.srcElement;
      text = target.parentElement.querySelector("title").textContent;

      console.log("Clicked on: " + text);
      // reset all strokes
      var nodes = document.getElementsByClassName("edge");

      for (index = 0, len = nodes.length; index < len; ++index) {
          //var title = nodes[index].querySelector("title").textContent.split("->");
          id = nodes[index].id;
          document.getElementById(id).querySelector("path").setAttribute("stroke-width", "1");
          document.getElementById(id).querySelector("path").setAttribute("stroke-opacity", "0.5");
          document.getElementById(id).querySelector("path").setAttribute("stroke", "#444444");
          document.getElementById(id).querySelector("polygon").setAttribute("stroke-width", "1");
          document.getElementById(id).querySelector("polygon").setAttribute("stroke-opacity", "0.5");
          document.getElementById(id).querySelector("polygon").setAttribute("stroke", "#444444");
      }
      // reset text highlight
      pkgs = document.getElementsByClassName("node");
      for (index2 = 0, len2 = pkgs.length; index2 < len2; ++index2) {
          target_id = pkgs[index2].id;
          document.getElementById(target_id).querySelector("text").setAttribute("font-weight", "normal");
      }

      // highlight deps
      var nodes = document.getElementsByClassName("edge");
      for (index = 0, len = nodes.length; index < len; ++index) {
        var title = nodes[index].querySelector("title").textContent.split("->");

        if (title[0] == text) {
          id = nodes[index].id;
          //console.log("ID:   " + id);
          document.getElementById(id).querySelector("path").setAttribute("stroke-width", "3");
          document.getElementById(id).querySelector("path").setAttribute("stroke-opacity", "1");
          document.getElementById(id).querySelector("path").setAttribute("stroke", "#aa3333");
          document.getElementById(id).querySelector("polygon").setAttribute("stroke-width", "5");
          document.getElementById(id).querySelector("polygon").setAttribute("stroke-opacity", "1");
          document.getElementById(id).querySelector("polygon").setAttribute("stroke", "#aa3333");

        }
        if (title[1] == text) {
          id = nodes[index].id;
          document.getElementById(id).querySelector("path").setAttribute("stroke-width", "3");
          document.getElementById(id).querySelector("path").setAttribute("stroke-opacity", "1");
          document.getElementById(id).querySelector("path").setAttribute("stroke", "#333377");
          document.getElementById(id).querySelector("polygon").setAttribute("stroke-width", "5");
          document.getElementById(id).querySelector("polygon").setAttribute("stroke-opacity", "1");
          document.getElementById(id).querySelector("polygon").setAttribute("stroke", "#333377");
        }

        if (title[0] == text || title[1] == text) {
          pkgs = document.getElementsByClassName("node");
          for (index2 = 0, len2 = pkgs.length; index2 < len2; ++index2) {
            var pkg_name = pkgs[index2].querySelector("title").textContent;
            if (pkg_name == title[0] || pkg_name == title[1]) {
              target_id = pkgs[index2].id;
              document.getElementById(target_id).querySelector("text").setAttribute("font-weight", "bold");
            }
          }
        }
      }


  }, false);

]]></script>

</svg>
