<?xml version="1.0" encoding="UTF-8" standalone="no"?>
<!DOCTYPE svg PUBLIC "-//W3C//DTD SVG 1.1//EN"
 "http://www.w3.org/Graphics/SVG/1.1/DTD/svg11.dtd">
<!-- Generated by graphviz version 2.40.1 (0)
 -->
<!-- Title: packages Pages: 1 -->
<svg width="1143pt" height="595pt"
 viewBox="0.00 0.00 1371.32 714.13" xmlns="http://www.w3.org/2000/svg" xmlns:xlink="http://www.w3.org/1999/xlink">
<g id="graph0" class="graph" transform="scale(.8333 .8333) rotate(0) translate(90.7335 604.8277)">
<title>packages</title>
<polygon fill="#dae2ff" stroke="transparent" points="-90.7335,109.3046 -90.7335,-604.8277 1280.5848,-604.8277 1280.5848,109.3046 -90.7335,109.3046"/>
<polygon fill="#fbb4ae" stroke="#fbb4ae" points="942.5702,-236.1949 942.5043,-239.0584 942.9499,-250.175 933.2615,-256.431 925.3436,-260.871 918.8563,-263.9361 917.6293,-264.4064 907.0439,-267.5605 906.4819,-267.6778 902.0948,-268.2156 893.9606,-268.5064 892.8905,-268.4509 886.1033,-268.704 884.6263,-268.6299 883.6047,-268.4893 882.5518,-268.4383 878.5269,-268.5985 875.4024,-232.8519 879.428,-229.1695 876.3098,-226.3558 876.3098,-226.3558 879.428,-229.1695 875.4024,-232.8519 878.5269,-268.5985 871.1,-269.5581 862.4042,-271.4597 858.4671,-272.6632 845.7072,-278.8712 817.4659,-295.017 817.5429,-297.0696 816.6322,-312.78 818.0961,-329.8104 819.8526,-376.6227 758.8962,-426.6935 751.7079,-319.2271 751.7079,-319.2271 758.8962,-426.6935 744.0552,-439.4945 740.4758,-437.7454 730.3116,-433.3153 712.2079,-427.3002 695.9745,-423.1714 698.2254,-346.609 698.2254,-346.609 695.9745,-423.1714 595.0185,-402.7795 583.2687,-405.8119 583.2376,-405.8218 574.1885,-408.8961 569.4971,-408.0214 560.0899,-406.6246 560.6912,-265.9522 561.032,-265.9522 564.459,-268.6393 564.459,-268.6393 561.032,-265.9522 560.6912,-265.9522 560.0899,-406.6246 552.9306,-405.6978 536.8826,-404.2309 515.1094,-402.6567 479.3279,-374.5375 483.6053,-266.041 483.6011,-265.6347 483.148,-261.5269 483.1324,-260.0349 487.6003,-146.7083 537.4733,-150.6106 554.5874,-151.5515 563.0909,-151.6209 570.769,-151.3242 587.221,-149.9174 587.5801,-150.6232 587.6625,-150.7682 597.5229,-167.2146 627.3273,-213.97 648.8733,-265.77 651.514,-269.9126 641.4698,-303.3029 641.4698,-303.3029 651.514,-269.9126 648.8733,-265.77 627.3273,-213.97 597.5229,-167.2146 587.6625,-150.7682 587.5801,-150.6232 587.221,-149.9174 651.1945,-101.8964 679.1315,-98.83 687.9531,-97.643 697.3704,-95.9093 706.4598,-93.7842 719.9729,-90.2897 731.4189,-86.4851 732.6198,-86.0565 764.7341,-73.801 800.5535,-84.7744 806.2576,-101.9967 792.1102,-204.4506 791.4804,-225.5282 790.486,-232.6285 733.1774,-219.2079 730.5185,-216.2624 727.5416,-215.2647 725.881,-214.0167 723.6204,-214.0167 723.2303,-213.9035 723.2303,-213.9035 723.6204,-214.0167 725.881,-214.0167 727.5416,-215.2647 730.5185,-216.2624 733.1774,-219.2079 790.486,-232.6285 791.4804,-225.5282 792.1102,-204.4506 806.2576,-101.9967 843.6958,-139.6034 845.4648,-141.2652 853.6547,-149.5684 858.8831,-154.478 860.8942,-156.2162 872.1414,-167.9672 884.7499,-177.6166 886.3121,-178.6637 888.7819,-180.099 924.4868,-197.7784 932.2686,-202.3163 939.0529,-206.8478 942.0352,-209.3525 942.4624,-220.0121 942.0892,-224.3325 942.5702,-236.1949 942.5702,-236.1949"/>
<polygon fill="#fed9a6" stroke="#fed9a6" points="1031.5107,97.4317 1037.8947,98.2213 1052.9182,100.4513 1080.9996,105.3046 1086.0267,104.0309 1158.2897,41.6279 1155.1128,-1.7158 1154.66,-29.4286 1149.6893,-49.202 1136.7124,-108.259 1098.1971,-115.7118 1048.3257,-94.7334 1038.42,-91.0074 1031.4891,-89.0255 1023.2758,-87.0459 1012.8126,-85.4669 1000.2728,-84.7058 996.5721,-84.815 997.831,-145.1768 992.3734,-148.9293 995.7211,-84.8028 987.0707,-84.2985 978.4905,-83.4219 976.241,-83.0943 971.5006,-82.1972 968.3137,-81.4553 968.3137,-81.4553 971.5006,-82.1972 976.241,-83.0943 978.4905,-83.4219 987.0707,-84.2985 995.7211,-84.8028 992.3734,-148.9293 997.831,-145.1768 996.5721,-84.815 1000.2728,-84.7058 1012.8126,-85.4669 1023.2758,-87.0459 1031.4891,-89.0255 1038.42,-91.0074 1048.3257,-94.7334 1098.1971,-115.7118 1136.7124,-108.259 1180.4349,-157.9599 1203.3651,-191.569 1206.8793,-196.4466 1200.5381,-241.9945 1195.489,-300.6458 1165.8719,-313.4111 1152.3016,-318.563 1146.7776,-320.3727 1087.5972,-297.5709 1074.3236,-293.0558 1063.7706,-290.451 1057.1027,-289.426 1056.9803,-285.4904 1056.9803,-285.4904 1057.1027,-289.426 1048.735,-288.9116 1045.5364,-288.8632 1041.2141,-288.5916 1035.116,-288.4926 1035.1923,-264.3921 1038.1541,-230.2119 1042.9969,-228.8752 1047.2297,-225.4273 1043.6219,-222.4775 1043.6219,-222.4775 1047.2297,-225.4273 1042.9969,-228.8752 1038.1541,-230.2119 1035.1923,-264.3921 1035.116,-288.4926 1033.2092,-288.6389 1026.4053,-288.5138 1023.1795,-288.7547 1018.3569,-288.8849 1017.3896,-288.8651 1014.3586,-288.6588 1011.5029,-288.5973 1008.5762,-288.6697 1007.6487,-288.6047 995.6335,-288.8778 994.0307,-288.762 992.4269,-288.7206 987.5051,-288.8212 987.3718,-288.9974 984.1784,-292.8296 980.2106,-297.1263 976.1003,-301.1083 973.7476,-303.1242 962.0357,-316.7103 942.5453,-344.9717 933.5748,-355.4789 933.1126,-355.9413 932.9351,-356.0934 921.9415,-366.8902 918.6189,-370.5193 915.4737,-374.3136 909.7631,-382.6577 908.7205,-384.322 916.0239,-389.1236 977.4027,-425.9487 985.5026,-431.7239 990.6779,-435.7048 990.6894,-435.713 1002.2214,-445.0962 1006.1522,-448.7156 1006.1929,-449.0806 1006.9426,-458.8389 1010.6439,-492.1055 1020.6569,-561.5161 931.5399,-600.8277 914.1546,-592.5403 908.5904,-590.0291 907.394,-589.5195 887.2571,-581.9431 894.697,-463.8014 898.6336,-460.5683 898.6336,-460.5683 894.697,-463.8014 889.389,-465.3064 884.1481,-463.7783 880.183,-460.2747 883.5532,-457.4244 883.5532,-457.4244 880.183,-460.2747 884.1481,-463.7783 889.389,-465.3064 894.697,-463.8014 887.2571,-581.9431 883.9443,-580.7824 882.4926,-580.384 868.685,-576.9369 854.4239,-573.7379 784.5816,-559.8721 768.8622,-541.7393 756.8952,-488.4858 745.8627,-445.2876 744.0552,-439.4945 758.8962,-426.6935 819.8526,-376.6227 818.0961,-329.8104 816.6322,-312.78 817.5429,-297.0696 817.4659,-295.017 845.7072,-278.8712 858.4671,-272.6632 862.4042,-271.4597 871.1,-269.5581 878.5269,-268.5985 882.5518,-268.4383 883.6047,-268.4893 884.6263,-268.6299 886.1033,-268.704 892.8905,-268.4509 893.9606,-268.5064 902.0948,-268.2156 906.4819,-267.6778 907.0439,-267.5605 917.6293,-264.4064 918.8563,-263.9361 925.3436,-260.871 933.2615,-256.431 942.9499,-250.175 942.5043,-239.0584 942.5702,-236.1949 942.0892,-224.3325 942.4624,-220.0121 942.0352,-209.3525 939.0529,-206.8478 932.2686,-202.3163 924.4868,-197.7784 888.7819,-180.099 886.3121,-178.6637 884.7499,-177.6166 872.1414,-167.9672 860.8942,-156.2162 858.8831,-154.478 853.6547,-149.5684 845.4648,-141.2652 843.6958,-139.6034 806.2576,-101.9967 800.5535,-84.7744 884.5811,-36.9785 886.7169,-31.982 894.8956,-11.3058 905.9218,22.2136 933.1586,90.9522 971.6556,99.023 1002.4254,96.7655 1018.2868,96.7733 1031.5107,97.4317 1031.1272,47.2042 1025.0614,-13.3609 1020.4337,-13.3609 1014.7846,-16.5797 1013.6522,-17.8411 1010.8054,-17.8411 1003.6664,52.4722 1003.6664,52.4722 1010.8054,-17.8411 1013.6522,-17.8411 1015.4563,-19.9215 1019.7639,-22.3366 1019.7639,-22.3366 1015.4563,-19.9215 1013.6522,-17.8411 1014.7846,-16.5797 1020.4337,-13.3609 1025.0614,-13.3609 1031.1272,47.2042 1031.5107,97.4317 1031.5107,97.4317"/>
<polygon fill="#bbd7d9" stroke="#bbd7d9" points="1272.1909,-422.3936 1273.8247,-441.4305 1276.5848,-460.6778 1230.3901,-535.2409 1228.2712,-537.9823 1168.3666,-557.9381 1162.4972,-560.0367 1162.3063,-560.1143 1146.5812,-565.0857 1135.4464,-569.1168 1137.26,-491.1384 1135.705,-438.6362 1140.2623,-434.8501 1140.1738,-434.7288 1136.1389,-431.5376 1136.1389,-431.5376 1140.1738,-434.7288 1140.2623,-434.8501 1135.705,-438.6362 1137.26,-491.1384 1135.4464,-569.1168 1134.7992,-569.3807 1122.3381,-574.7516 1115.1069,-578.2002 1115.0714,-578.1933 1098.4576,-575.6208 1058.7427,-571.7564 1051.8054,-570.6023 1020.6569,-561.5161 1010.6439,-492.1055 1006.9426,-458.8389 1006.1929,-449.0806 1006.1522,-448.7156 1002.2214,-445.0962 990.6894,-435.713 990.6779,-435.7048 985.5026,-431.7239 977.4027,-425.9487 916.0239,-389.1236 908.7205,-384.322 909.7631,-382.6577 915.4737,-374.3136 918.6189,-370.5193 921.9415,-366.8902 932.9351,-356.0934 933.1126,-355.9413 933.5748,-355.4789 942.5453,-344.9717 962.0357,-316.7103 973.7476,-303.1242 976.1003,-301.1083 980.2106,-297.1263 984.1784,-292.8296 987.3718,-288.9974 987.5051,-288.8212 992.4269,-288.7206 994.0307,-288.762 995.6335,-288.8778 1007.6487,-288.6047 1008.5762,-288.6697 1011.5029,-288.5973 1014.3586,-288.6588 1017.3896,-288.8651 1018.3569,-288.8849 1023.1795,-288.7547 1026.4053,-288.5138 1033.2092,-288.6389 1035.116,-288.4926 1041.2141,-288.5916 1045.5364,-288.8632 1048.735,-288.9116 1057.1027,-289.426 1063.7706,-290.451 1074.3236,-293.0558 1087.5972,-297.5709 1146.7776,-320.3727 1152.3016,-318.563 1165.8719,-313.4111 1195.489,-300.6458 1268.8389,-363.3712 1272.1909,-422.3936 1272.1909,-422.3936"/>
<polygon fill="#d8d6da" stroke="#d8d6da" points="61.3441,-98.7593 55.1534,-98.647 43.4839,-97.9244 32.8148,-97.031 23.1772,-98.1964 -53.5173,-142.7706 -84.495,-175.7332 -86.7335,-188.7403 -82.4313,-208.5837 -80.0909,-222.5237 -62.3207,-247.7919 -6.47,-332.1354 -14.6428,-375.903 -17.3167,-388.3316 -21.4226,-405.2108 -25.4912,-420.2416 -28.2588,-444.1807 -27.9059,-444.9331 59.0714,-499.4403 98.0999,-508.0391 97.8534,-395.42 102.1019,-391.6072 103.111,-389.735 103.3988,-389.4807 103.0066,-388.7974 103.0066,-388.7974 103.3988,-389.4807 108.1509,-389.4807 103.2141,-306.5137 108.3558,-306.3582 108.0657,-223.1895 112.6813,-223.1895 113.3731,-222.9944 117.7732,-222.9944 118.0801,-222.9075 123.1516,-222.9075 123.3875,-294.6761 127.89,-289.8389 129.0365,-288.4714 128.1302,-226.345 128.1302,-226.345 129.0365,-288.4714 127.89,-289.8389 188.8829,-284.5994 192.7813,-281.1806 199.5846,-330.3997 198.7297,-278.8317 198.8545,-278.795 203.8731,-278.795 204.676,-278.557 208.3909,-278.557 209.2698,-278.8188 210.7542,-278.8188 214.3808,-282.0688 219.3774,-283.554 224.901,-281.8835 228.5371,-278.6732 225.0996,-275.7688 225.0996,-275.7688 228.5371,-278.6732 224.901,-281.8835 219.3774,-283.554 214.3808,-282.0688 210.7542,-278.8188 209.2698,-278.8188 208.3909,-278.557 204.676,-278.557 203.8731,-278.795 198.8545,-278.795 198.7297,-278.8317 199.5846,-330.3997 192.7813,-281.1806 188.8829,-284.5994 127.89,-289.8389 123.3875,-294.6761 123.1516,-222.9075 118.0801,-222.9075 117.7732,-222.9944 113.3731,-222.9944 112.6813,-223.1895 108.0657,-223.1895 108.3558,-306.3582 103.2141,-306.5137 108.1509,-389.4807 103.3988,-389.4807 103.111,-389.735 102.1019,-391.6072 97.8534,-395.42 98.0999,-508.0391 102.5768,-509.1308 116.0909,-513.0661 135.551,-520.1135 134.5389,-499.4914 131.8998,-393.0524 136.6302,-394.3488 142.382,-392.7076 146.1891,-389.6265 145.9612,-389.3106 142.4329,-386.5056 142.4329,-386.5056 145.9612,-389.3106 146.1891,-389.6265 142.382,-392.7076 136.6302,-394.3488 131.8998,-393.0524 134.5389,-499.4914 135.551,-520.1135 137.5871,-520.9449 143.7516,-523.754 149.5189,-526.5192 153.6036,-524.116 174.2341,-513.5496 175.3531,-513.0062 174.6125,-466.3652 174.6125,-466.3652 175.3531,-513.0062 276.8683,-468.9634 296.5554,-399.1657 297.004,-397.8377 319.5044,-378.9899 341.9331,-373.2404 358.3018,-369.4625 364.0991,-368.2767 372.8068,-366.951 382.8201,-365.9492 393.6145,-365.4333 399.5862,-365.4601 411.9511,-365.839 427.0172,-367.4811 479.3279,-374.5375 483.6053,-266.041 483.6011,-265.6347 483.148,-261.5269 483.1324,-260.0349 487.6003,-146.7083 459.327,-127.8915 434.4219,-87.0061 343.6368,-73.9474 338.3616,-182.6529 334.1483,-185.3921 331.8942,-189.076 327.2085,-189.076 326.8396,-188.9722 324.9387,-188.9722 324.9387,-188.9722 326.8396,-188.9722 327.2085,-189.076 331.8942,-189.076 334.1483,-185.3921 338.3616,-182.6529 343.6368,-73.9474 333.1026,-72.175 316.0986,-68.486 310.254,-66.9375 296.5803,-62.3154 293.2752,-61.1183 277.8524,-54.7778 277.0033,-54.3879 265.8551,-57.1924 250.1446,-60.1288 249.5597,-60.2004 210.7768,-64.1191 205.3494,-64.9603 153.9608,-92.3666 182.4363,-180.1323 187.8429,-205.6496 242.8515,-194.2977 246.563,-190.6493 247.5574,-190.2562 248.6071,-189.412 252.0017,-189.412 252.6589,-189.2232 252.6589,-189.2232 252.0017,-189.412 248.6071,-189.412 247.5574,-190.2562 246.563,-190.6493 242.8515,-194.2977 187.8429,-205.6496 182.4363,-180.1323 153.9608,-92.3666 134.035,-92.9128 117.8328,-92.6827 116.8891,-92.9342 98.7253,-96.1864 86.2264,-97.8753 71.9957,-98.5522 64.3588,-98.7481 61.3441,-98.7593 62.9639,-222.53 63.2662,-222.6152 67.9319,-222.6152 67.4369,-301.305 67.1172,-308.8255 79.1787,-307.2014 79.855,-267.1083 83.564,-225.184 81.4874,-222.8555 82.5832,-221.6225 82.5832,-221.6225 81.4874,-222.8555 83.564,-225.184 87.8243,-227.4597 92.4849,-227.4597 92.4849,-227.4597 87.8243,-227.4597 83.564,-225.184 79.855,-267.1083 79.1787,-307.2014 67.1172,-308.8255 67.4369,-301.305 67.9319,-222.6152 63.2662,-222.6152 62.9639,-222.53 61.3441,-98.7593 61.3441,-98.7593"/>
<polyline fill="none" stroke="#000000" points="706.4598,-93.7842 697.3704,-95.9093 687.9531,-97.643 679.1315,-98.83 651.1945,-101.8964 587.221,-149.9174 570.769,-151.3242 563.0909,-151.6209 554.5874,-151.5515 537.4733,-150.6106 487.6003,-146.7083 483.1324,-260.0349 483.148,-261.5269 483.6011,-265.6347 483.6053,-266.041 479.3279,-374.5375 515.1094,-402.6567 536.8826,-404.2309 552.9306,-405.6978 560.0899,-406.6246 569.4971,-408.0214 574.1885,-408.8961 583.2376,-405.8218 583.2687,-405.8119 595.0185,-402.7795 695.9745,-423.1714 712.2079,-427.3002 730.3116,-433.3153 740.4758,-437.7454 744.0552,-439.4945 758.8962,-426.6935 819.8526,-376.6227 818.0961,-329.8104 816.6322,-312.78 817.5429,-297.0696 817.4659,-295.017 845.7072,-278.8712 858.4671,-272.6632 862.4042,-271.4597 871.1,-269.5581 878.5269,-268.5985 882.5518,-268.4383 883.6047,-268.4893 884.6263,-268.6299 886.1033,-268.704 892.8905,-268.4509 893.9606,-268.5064 902.0948,-268.2156 906.4819,-267.6778 907.0439,-267.5605 917.6293,-264.4064 918.8563,-263.9361 925.3436,-260.871 933.2615,-256.431 942.9499,-250.175 942.5043,-239.0584 942.5702,-236.1949 942.0892,-224.3325 942.4624,-220.0121 942.0352,-209.3525 939.0529,-206.8478 932.2686,-202.3163 924.4868,-197.7784 888.7819,-180.099 886.3121,-178.6637 884.7499,-177.6166 872.1414,-167.9672 860.8942,-156.2162 858.8831,-154.478 853.6547,-149.5684 845.4648,-141.2652 843.6958,-139.6034 806.2576,-101.9967 800.5535,-84.7744 764.7341,-73.801 732.6198,-86.0565 731.4189,-86.4851 719.9729,-90.2897 706.4598,-93.7842 "/>
<polyline fill="none" stroke="#000000" points="908.7205,-384.322 916.0239,-389.1236 977.4027,-425.9487 985.5026,-431.7239 990.6779,-435.7048 990.6894,-435.713 1002.2214,-445.0962 1006.1522,-448.7156 1006.1929,-449.0806 1006.9426,-458.8389 1010.6439,-492.1055 1020.6569,-561.5161 931.5399,-600.8277 914.1546,-592.5403 908.5904,-590.0291 907.394,-589.5195 887.2571,-581.9431 883.9443,-580.7824 882.4926,-580.384 868.685,-576.9369 854.4239,-573.7379 784.5816,-559.8721 768.8622,-541.7393 756.8952,-488.4858 745.8627,-445.2876 744.0552,-439.4945 758.8962,-426.6935 819.8526,-376.6227 818.0961,-329.8104 816.6322,-312.78 817.5429,-297.0696 817.4659,-295.017 845.7072,-278.8712 858.4671,-272.6632 862.4042,-271.4597 871.1,-269.5581 878.5269,-268.5985 882.5518,-268.4383 883.6047,-268.4893 884.6263,-268.6299 886.1033,-268.704 892.8905,-268.4509 893.9606,-268.5064 902.0948,-268.2156 906.4819,-267.6778 907.0439,-267.5605 917.6293,-264.4064 918.8563,-263.9361 925.3436,-260.871 933.2615,-256.431 942.9499,-250.175 942.5043,-239.0584 942.5702,-236.1949 942.0892,-224.3325 942.4624,-220.0121 942.0352,-209.3525 939.0529,-206.8478 932.2686,-202.3163 924.4868,-197.7784 888.7819,-180.099 886.3121,-178.6637 884.7499,-177.6166 872.1414,-167.9672 860.8942,-156.2162 858.8831,-154.478 853.6547,-149.5684 845.4648,-141.2652 843.6958,-139.6034 806.2576,-101.9967 800.5535,-84.7744 884.5811,-36.9785 886.7169,-31.982 894.8956,-11.3058 905.9218,22.2136 933.1586,90.9522 971.6556,99.023 1002.4254,96.7655 1018.2868,96.7733 1031.5107,97.4317 1037.8947,98.2213 1052.9182,100.4513 1080.9996,105.3046 1086.0267,104.0309 1158.2897,41.6279 1155.1128,-1.7158 1154.66,-29.4286 1149.6893,-49.202 1136.7124,-108.259 1180.4349,-157.9599 1203.3651,-191.569 1206.8793,-196.4466 1200.5381,-241.9945 1195.489,-300.6458 1165.8719,-313.4111 1152.3016,-318.563 1146.7776,-320.3727 1087.5972,-297.5709 1074.3236,-293.0558 1063.7706,-290.451 1057.1027,-289.426 1048.735,-288.9116 1045.5364,-288.8632 1041.2141,-288.5916 1035.116,-288.4926 1033.2092,-288.6389 1026.4053,-288.5138 1023.1795,-288.7547 1018.3569,-288.8849 1017.3896,-288.8651 1014.3586,-288.6588 1011.5029,-288.5973 1008.5762,-288.6697 1007.6487,-288.6047 995.6335,-288.8778 994.0307,-288.762 992.4269,-288.7206 987.5051,-288.8212 987.3718,-288.9974 984.1784,-292.8296 980.2106,-297.1263 976.1003,-301.1083 973.7476,-303.1242 962.0357,-316.7103 942.5453,-344.9717 933.5748,-355.4789 933.1126,-355.9413 932.9351,-356.0934 921.9415,-366.8902 918.6189,-370.5193 915.4737,-374.3136 909.7631,-382.6577 908.7205,-384.322 "/>
<polyline fill="none" stroke="#000000" points="1002.2214,-445.0962 1006.1522,-448.7156 1006.1929,-449.0806 1006.9426,-458.8389 1010.6439,-492.1055 1020.6569,-561.5161 1051.8054,-570.6023 1058.7427,-571.7564 1098.4576,-575.6208 1115.0714,-578.1933 1115.1069,-578.2002 1122.3381,-574.7516 1134.7992,-569.3807 1135.4464,-569.1168 1146.5812,-565.0857 1162.3063,-560.1143 1162.4972,-560.0367 1168.3666,-557.9381 1228.2712,-537.9823 1230.3901,-535.2409 1276.5848,-460.6778 1273.8247,-441.4305 1272.1909,-422.3936 1268.8389,-363.3712 1195.489,-300.6458 1165.8719,-313.4111 1152.3016,-318.563 1146.7776,-320.3727 1087.5972,-297.5709 1074.3236,-293.0558 1063.7706,-290.451 1057.1027,-289.426 1048.735,-288.9116 1045.5364,-288.8632 1041.2141,-288.5916 1035.116,-288.4926 1033.2092,-288.6389 1026.4053,-288.5138 1023.1795,-288.7547 1018.3569,-288.8849 1017.3896,-288.8651 1014.3586,-288.6588 1011.5029,-288.5973 1008.5762,-288.6697 1007.6487,-288.6047 995.6335,-288.8778 994.0307,-288.762 992.4269,-288.7206 987.5051,-288.8212 987.3718,-288.9974 984.1784,-292.8296 980.2106,-297.1263 976.1003,-301.1083 973.7476,-303.1242 962.0357,-316.7103 942.5453,-344.9717 933.5748,-355.4789 933.1126,-355.9413 932.9351,-356.0934 921.9415,-366.8902 918.6189,-370.5193 915.4737,-374.3136 909.7631,-382.6577 908.7205,-384.322 916.0239,-389.1236 977.4027,-425.9487 985.5026,-431.7239 990.6779,-435.7048 990.6894,-435.713 1002.2214,-445.0962 "/>
<polyline fill="none" stroke="#000000" points="296.5803,-62.3154 293.2752,-61.1183 277.8524,-54.7778 277.0033,-54.3879 265.8551,-57.1924 250.1446,-60.1288 249.5597,-60.2004 210.7768,-64.1191 205.3494,-64.9603 153.9608,-92.3666 134.035,-92.9128 117.8328,-92.6827 116.8891,-92.9342 98.7253,-96.1864 86.2264,-97.8753 71.9957,-98.5522 64.3588,-98.7481 61.3441,-98.7593 55.1534,-98.647 43.4839,-97.9244 32.8148,-97.031 23.1772,-98.1964 -53.5173,-142.7706 -84.495,-175.7332 -86.7335,-188.7403 -82.4313,-208.5837 -80.0909,-222.5237 -62.3207,-247.7919 -6.47,-332.1354 -14.6428,-375.903 -17.3167,-388.3316 -21.4226,-405.2108 -25.4912,-420.2416 -28.2588,-444.1807 -27.9059,-444.9331 59.0714,-499.4403 98.0999,-508.0391 102.5768,-509.1308 116.0909,-513.0661 135.551,-520.1135 137.5871,-520.9449 143.7516,-523.754 149.5189,-526.5192 153.6036,-524.116 174.2341,-513.5496 175.3531,-513.0062 276.8683,-468.9634 296.5554,-399.1657 297.004,-397.8377 319.5044,-378.9899 341.9331,-373.2404 358.3018,-369.4625 364.0991,-368.2767 372.8068,-366.951 382.8201,-365.9492 393.6145,-365.4333 399.5862,-365.4601 411.9511,-365.839 427.0172,-367.4811 479.3279,-374.5375 483.6053,-266.041 483.6011,-265.6347 483.148,-261.5269 483.1324,-260.0349 487.6003,-146.7083 459.327,-127.8915 434.4219,-87.0061 343.6368,-73.9474 333.1026,-72.175 316.0986,-68.486 310.254,-66.9375 296.5803,-62.3154 "/>
<!-- filesystem&#45;&gt;setup -->
<g id="edge1" class="edge">
<title>filesystem&#45;&gt;setup</title>
<path fill="none" stroke="#444444" stroke-opacity="0.333333" d="M659.398,-232.0871C649.1366,-235.9738 638.1946,-240.1182 627.621,-244.1232"/>
<polygon fill="#444444" fill-opacity="0.333333" stroke="#444444" stroke-opacity="0.333333" points="626.156,-240.9353 618.0441,-247.7506 628.6355,-247.4815 626.156,-240.9353"/>
</g>
<!-- filesystem&#45;&gt;bash -->
<g id="edge2" class="edge">
<title>filesystem&#45;&gt;bash</title>
<path fill="none" stroke="#444444" stroke-opacity="0.333333" d="M764.6448,-225.8574C779.8044,-227.616 796.189,-229.1506 811.4338,-230.2404"/>
<polygon fill="#444444" fill-opacity="0.333333" stroke="#444444" stroke-opacity="0.333333" points="811.5683,-233.7567 821.7766,-230.9211 812.0281,-226.7719 811.5683,-233.7567"/>
</g>
<!-- setup&#45;&gt;setup -->
<g id="edge3" class="edge">
<title>setup&#45;&gt;setup</title>
<path fill="none" stroke="#444444" stroke-opacity="0.333333" d="M624.4773,-272.2197C634.9986,-271.4707 642.47,-269.3208 642.47,-265.77 642.47,-263.4953 639.4037,-261.7955 634.4336,-260.6706"/>
<polygon fill="#444444" fill-opacity="0.333333" stroke="#444444" stroke-opacity="0.333333" points="634.8569,-257.1961 624.4773,-259.3203 633.9162,-264.1326 634.8569,-257.1961"/>
</g>
<!-- setup&#45;&gt;fedora&#45;release -->
<g id="edge4" class="edge">
<title>setup&#45;&gt;fedora&#45;release</title>
<path fill="none" stroke="#444444" stroke-opacity="0.333333" d="M516.1177,-264.3735C502.4736,-264.0229 487.4908,-263.6379 472.6984,-263.2579"/>
<polygon fill="#444444" fill-opacity="0.333333" stroke="#444444" stroke-opacity="0.333333" points="472.5934,-259.7541 462.5068,-262.996 472.4135,-266.7518 472.5934,-259.7541"/>
</g>
<!-- bash&#45;&gt;filesystem -->
<g id="edge5" class="edge">
<title>bash&#45;&gt;filesystem</title>
<path fill="none" stroke="#444444" stroke-opacity="0.333333" d="M821.6461,-218.3776C806.8319,-216.5147 790.2902,-214.8386 774.49,-213.58"/>
<polygon fill="#444444" fill-opacity="0.333333" stroke="#444444" stroke-opacity="0.333333" points="774.4724,-210.0691 764.2397,-212.8155 773.9517,-217.0497 774.4724,-210.0691"/>
</g>
<!-- bash&#45;&gt;bash -->
<g id="edge6" class="edge">
<title>bash&#45;&gt;bash</title>
<path fill="none" stroke="#444444" stroke-opacity="0.333333" d="M919.2041,-235.7621C929.5319,-235.0988 936.99,-232.9214 936.99,-229.23 936.99,-226.9229 934.0767,-225.2072 929.3703,-224.0829"/>
<polygon fill="#444444" fill-opacity="0.333333" stroke="#444444" stroke-opacity="0.333333" points="929.5851,-220.5799 919.2041,-222.6979 928.6401,-227.5158 929.5851,-220.5799"/>
</g>
<!-- bash&#45;&gt;glibc -->
<g id="edge7" class="edge">
<title>bash&#45;&gt;glibc</title>
<path fill="none" stroke="#444444" stroke-opacity="0.333333" d="M879.0739,-247.5064C883.6983,-257.3525 889.4963,-269.6974 894.6478,-280.6657"/>
<polygon fill="#444444" fill-opacity="0.333333" stroke="#444444" stroke-opacity="0.333333" points="891.5435,-282.2893 898.9627,-289.8527 897.8795,-279.3134 891.5435,-282.2893"/>
</g>
<!-- bash&#45;&gt;ncurses&#45;libs -->
<g id="edge8" class="edge">
<title>bash&#45;&gt;ncurses&#45;libs</title>
<path fill="none" stroke="#444444" stroke-opacity="0.333333" d="M890.7358,-247.3496C914.2456,-268.3903 953.1708,-303.2276 979.6008,-326.8818"/>
<polygon fill="#444444" fill-opacity="0.333333" stroke="#444444" stroke-opacity="0.333333" points="977.5854,-329.7752 987.3711,-333.8361 982.2537,-324.5591 977.5854,-329.7752"/>
</g>
<!-- fedora&#45;release&#45;&gt;fedora&#45;release&#45;common -->
<g id="edge21" class="edge">
<title>fedora&#45;release&#45;&gt;fedora&#45;release&#45;common</title>
<path fill="none" stroke="#444444" stroke-opacity="0.333333" d="M378.2141,-242.8868C370.2872,-233.679 357.811,-222.726 344.6923,-212.9751"/>
<polygon fill="#444444" fill-opacity="0.333333" stroke="#444444" stroke-opacity="0.333333" points="346.6427,-210.0668 336.476,-207.0854 342.5645,-215.7561 346.6427,-210.0668"/>
</g>
<!-- glibc&#45;&gt;glibc -->
<g id="edge9" class="edge">
<title>glibc&#45;&gt;glibc</title>
<path fill="none" stroke="#444444" stroke-opacity="0.333333" d="M960.7572,-314.4797C971.1323,-313.7307 978.5,-311.5808 978.5,-308.03 978.5,-305.8108 975.622,-304.1387 970.9305,-303.014"/>
<polygon fill="#444444" fill-opacity="0.333333" stroke="#444444" stroke-opacity="0.333333" points="971.1478,-299.5101 960.7572,-301.5803 970.1709,-306.4416 971.1478,-299.5101"/>
</g>
<!-- glibc&#45;&gt;basesystem -->
<g id="edge10" class="edge">
<title>glibc&#45;&gt;basesystem</title>
<path fill="none" stroke="#444444" stroke-opacity="0.333333" d="M854.4705,-309.4039C836.4518,-309.8707 815.9952,-310.4007 796.7185,-310.9001"/>
<polygon fill="#444444" fill-opacity="0.333333" stroke="#444444" stroke-opacity="0.333333" points="796.3664,-307.408 786.4604,-311.1659 796.5477,-314.4056 796.3664,-307.408"/>
</g>
<!-- glibc&#45;&gt;glibc&#45;common -->
<g id="edge11" class="edge">
<title>glibc&#45;&gt;glibc&#45;common</title>
<path fill="none" stroke="#444444" stroke-opacity="0.333333" d="M918.8523,-289.7511C931.0644,-262.6654 949.101,-211.7075 957.9354,-179.7882"/>
<polygon fill="#444444" fill-opacity="0.333333" stroke="#444444" stroke-opacity="0.333333" points="961.4151,-180.3152 960.5569,-169.7552 954.6425,-178.5456 961.4151,-180.3152"/>
</g>
<!-- glibc&#45;&gt;glibc&#45;minimal&#45;langpack -->
<g id="edge12" class="edge">
<title>glibc&#45;&gt;glibc&#45;minimal&#45;langpack</title>
<path fill="none" stroke="#444444" stroke-opacity="0.333333" d="M947.4302,-289.9807C967.8413,-278.1163 992.1382,-262.5832 1010.4152,-249.6625"/>
<polygon fill="#444444" fill-opacity="0.333333" stroke="#444444" stroke-opacity="0.333333" points="1012.8071,-252.2521 1018.8605,-243.5569 1008.7059,-246.5793 1012.8071,-252.2521"/>
</g>
<!-- glibc&#45;&gt;libgcc -->
<g id="edge13" class="edge">
<title>glibc&#45;&gt;libgcc</title>
<path fill="none" stroke="#444444" stroke-opacity="0.333333" d="M905.3277,-326.1155C902.1754,-352.3596 896.3039,-401.243 892.5794,-432.2517"/>
<polygon fill="#444444" fill-opacity="0.333333" stroke="#444444" stroke-opacity="0.333333" points="889.0771,-432.062 891.3595,-442.408 896.0271,-432.8968 889.0771,-432.062"/>
</g>
<!-- ncurses&#45;libs&#45;&gt;glibc -->
<g id="edge14" class="edge">
<title>ncurses&#45;libs&#45;&gt;glibc</title>
<path fill="none" stroke="#444444" stroke-opacity="0.333333" d="M966.6557,-334.0066C963.7761,-332.742 960.8551,-331.4594 957.9327,-330.1761"/>
<polygon fill="#444444" fill-opacity="0.333333" stroke="#444444" stroke-opacity="0.333333" points="959.206,-326.9127 948.6426,-326.0966 956.3915,-333.322 959.206,-326.9127"/>
</g>
<!-- ncurses&#45;libs&#45;&gt;ncurses&#45;libs -->
<g id="edge15" class="edge">
<title>ncurses&#45;libs&#45;&gt;ncurses&#45;libs</title>
<path fill="none" stroke="#444444" stroke-opacity="0.333333" d="M1082.0601,-358.0874C1092.6164,-357.1077 1099.7,-355.0886 1099.7,-352.03 1099.7,-350.1184 1096.933,-348.6128 1092.2805,-347.5132"/>
<polygon fill="#444444" fill-opacity="0.333333" stroke="#444444" stroke-opacity="0.333333" points="1092.4702,-344.0024 1082.0601,-345.9726 1091.4267,-350.9242 1092.4702,-344.0024"/>
</g>
<!-- ncurses&#45;libs&#45;&gt;ncurses&#45;base -->
<g id="edge16" class="edge">
<title>ncurses&#45;libs&#45;&gt;ncurses&#45;base</title>
<path fill="none" stroke="#444444" stroke-opacity="0.333333" d="M1034.4326,-370.0441C1052.3102,-382.0912 1076.0302,-398.0752 1095.4752,-411.1785"/>
<polygon fill="#444444" fill-opacity="0.333333" stroke="#444444" stroke-opacity="0.333333" points="1093.5454,-414.0986 1103.7942,-416.7844 1097.4572,-408.2936 1093.5454,-414.0986"/>
</g>
<!-- basesystem&#45;&gt;filesystem -->
<g id="edge28" class="edge">
<title>basesystem&#45;&gt;filesystem</title>
<path fill="none" stroke="#444444" stroke-opacity="0.333333" d="M721.0548,-294.6567C718.5251,-279.8925 714.9105,-258.7966 712.0118,-241.8785"/>
<polygon fill="#444444" fill-opacity="0.333333" stroke="#444444" stroke-opacity="0.333333" points="715.4541,-241.2437 710.3155,-231.9784 708.5547,-242.4259 715.4541,-241.2437"/>
</g>
<!-- basesystem&#45;&gt;setup -->
<g id="edge29" class="edge">
<title>basesystem&#45;&gt;setup</title>
<path fill="none" stroke="#444444" stroke-opacity="0.333333" d="M665.179,-294.7392C655.0433,-291.6389 644.4687,-288.4044 634.2148,-285.268"/>
<polygon fill="#444444" fill-opacity="0.333333" stroke="#444444" stroke-opacity="0.333333" points="635.0932,-281.8766 624.5068,-282.2985 633.0456,-288.5705 635.0932,-281.8766"/>
</g>
<!-- glibc&#45;common&#45;&gt;bash -->
<g id="edge30" class="edge">
<title>glibc&#45;common&#45;&gt;bash</title>
<path fill="none" stroke="#444444" stroke-opacity="0.333333" d="M941.0139,-169.5359C928.8174,-179.8594 913.3305,-192.9681 899.9781,-204.2701"/>
<polygon fill="#444444" fill-opacity="0.333333" stroke="#444444" stroke-opacity="0.333333" points="897.3603,-201.9004 891.9887,-211.0327 901.8828,-207.2434 897.3603,-201.9004"/>
</g>
<!-- glibc&#45;common&#45;&gt;glibc -->
<g id="edge31" class="edge">
<title>glibc&#45;common&#45;&gt;glibc</title>
<path fill="none" stroke="#444444" stroke-opacity="0.333333" d="M950.9577,-169.7889C938.7456,-196.8746 920.709,-247.8325 911.8746,-279.7518"/>
<polygon fill="#444444" fill-opacity="0.333333" stroke="#444444" stroke-opacity="0.333333" points="908.3949,-279.2248 909.2531,-289.7848 915.1675,-280.9944 908.3949,-279.2248"/>
</g>
<!-- glibc&#45;common&#45;&gt;tzdata -->
<g id="edge32" class="edge">
<title>glibc&#45;common&#45;&gt;tzdata</title>
<path fill="none" stroke="#444444" stroke-opacity="0.333333" d="M970.4814,-133.5042C980.7355,-110.9095 998.4247,-71.9314 1010.3875,-45.5713"/>
<polygon fill="#444444" fill-opacity="0.333333" stroke="#444444" stroke-opacity="0.333333" points="1013.719,-46.6994 1014.6645,-36.1469 1007.3447,-43.8066 1013.719,-46.6994"/>
</g>
<!-- glibc&#45;minimal&#45;langpack&#45;&gt;glibc -->
<g id="edge33" class="edge">
<title>glibc&#45;minimal&#45;langpack&#45;&gt;glibc</title>
<path fill="none" stroke="#444444" stroke-opacity="0.333333" d="M997.8698,-243.4593C977.4587,-255.3237 953.1618,-270.8568 934.8848,-283.7775"/>
<polygon fill="#444444" fill-opacity="0.333333" stroke="#444444" stroke-opacity="0.333333" points="932.4929,-281.1879 926.4395,-289.8831 936.5941,-286.8607 932.4929,-281.1879"/>
</g>
<!-- glibc&#45;minimal&#45;langpack&#45;&gt;glibc&#45;common -->
<g id="edge34" class="edge">
<title>glibc&#45;minimal&#45;langpack&#45;&gt;glibc&#45;common</title>
<path fill="none" stroke="#444444" stroke-opacity="0.333333" d="M1019.1395,-207.1426C1009.7236,-197.925 998.1575,-186.6025 987.923,-176.5835"/>
<polygon fill="#444444" fill-opacity="0.333333" stroke="#444444" stroke-opacity="0.333333" points="990.3502,-174.0616 980.7558,-169.5673 985.4533,-179.0638 990.3502,-174.0616"/>
</g>
<!-- fedora&#45;release&#45;common&#45;&gt;fedora&#45;release -->
<g id="edge18" class="edge">
<title>fedora&#45;release&#45;common&#45;&gt;fedora&#45;release</title>
<path fill="none" stroke="#444444" stroke-opacity="0.333333" d="M298.2959,-207.1532C306.2228,-216.361 318.699,-227.314 331.8177,-237.0649"/>
<polygon fill="#444444" fill-opacity="0.333333" stroke="#444444" stroke-opacity="0.333333" points="329.8673,-239.9732 340.034,-242.9546 333.9455,-234.2839 329.8673,-239.9732"/>
</g>
<!-- fedora&#45;release&#45;common&#45;&gt;fedora&#45;release -->
<g id="edge19" class="edge">
<title>fedora&#45;release&#45;common&#45;&gt;fedora&#45;release</title>
<path fill="none" stroke="#444444" stroke-dasharray="5,2" stroke-opacity="0.333333" d="M314.6111,-207.1837C326.4831,-216.1396 340.9655,-227.0647 353.7749,-236.7278"/>
<polygon fill="#444444" fill-opacity="0.333333" stroke="#444444" stroke-opacity="0.333333" points="351.8155,-239.6339 361.9066,-242.8621 356.0312,-234.0456 351.8155,-239.6339"/>
</g>
<!-- fedora&#45;release&#45;common&#45;&gt;fedora&#45;release&#45;common -->
<g id="edge17" class="edge">
<title>fedora&#45;release&#45;common&#45;&gt;fedora&#45;release&#45;common</title>
<path fill="none" stroke="#444444" stroke-opacity="0.333333" d="M398.9504,-194.5137C409.6896,-193.411 416.52,-191.5764 416.52,-189.01 416.52,-187.3659 413.7168,-186.0221 408.8785,-184.9787"/>
<polygon fill="#444444" fill-opacity="0.333333" stroke="#444444" stroke-opacity="0.333333" points="409.3557,-181.5113 398.9504,-183.5063 408.3287,-188.4355 409.3557,-181.5113"/>
</g>
<!-- fedora&#45;release&#45;common&#45;&gt;fedora&#45;repos -->
<g id="edge20" class="edge">
<title>fedora&#45;release&#45;common&#45;&gt;fedora&#45;repos</title>
<path fill="none" stroke="#444444" stroke-opacity="0.333333" d="M276.146,-207.1945C265.8444,-220.227 251.8117,-237.9798 240.2894,-252.5566"/>
<polygon fill="#444444" fill-opacity="0.333333" stroke="#444444" stroke-opacity="0.333333" points="237.298,-250.697 233.8426,-260.7125 242.7896,-255.0378 237.298,-250.697"/>
</g>
<!-- fedora&#45;repos&#45;&gt;fedora&#45;release -->
<g id="edge22" class="edge">
<title>fedora&#45;repos&#45;&gt;fedora&#45;release</title>
<path fill="none" stroke="#444444" stroke-opacity="0.333333" d="M287.6923,-271.5623C291.5091,-271.1534 295.3696,-270.7397 299.2401,-270.325"/>
<polygon fill="#444444" fill-opacity="0.333333" stroke="#444444" stroke-opacity="0.333333" points="299.9161,-273.7727 309.4863,-269.2272 299.1703,-266.8125 299.9161,-273.7727"/>
</g>
<!-- fedora&#45;repos&#45;&gt;fedora&#45;repos -->
<g id="edge23" class="edge">
<title>fedora&#45;repos&#45;&gt;fedora&#45;repos</title>
<path fill="none" stroke="#444444" stroke-opacity="0.333333" d="M287.6192,-285.056C298.2455,-284.1312 305.49,-282.0692 305.49,-278.87 305.49,-276.8205 302.5168,-275.2377 297.5861,-274.1217"/>
<polygon fill="#444444" fill-opacity="0.333333" stroke="#444444" stroke-opacity="0.333333" points="298.0165,-270.6476 287.6192,-272.684 297.0171,-277.5759 298.0165,-270.6476"/>
</g>
<!-- fedora&#45;repos&#45;&gt;fedora&#45;gpg&#45;keys -->
<g id="edge24" class="edge">
<title>fedora&#45;repos&#45;&gt;fedora&#45;gpg&#45;keys</title>
<path fill="none" stroke="#444444" stroke-opacity="0.333333" d="M205.8552,-297.1614C192.4687,-315.1198 171.9042,-342.7077 156.7177,-363.0809"/>
<polygon fill="#444444" fill-opacity="0.333333" stroke="#444444" stroke-opacity="0.333333" points="153.7454,-361.212 150.575,-371.3214 159.3577,-365.3956 153.7454,-361.212"/>
</g>
<!-- fedora&#45;repos&#45;&gt;fedora&#45;repos&#45;rawhide -->
<g id="edge25" class="edge">
<title>fedora&#45;repos&#45;&gt;fedora&#45;repos&#45;rawhide</title>
<path fill="none" stroke="#444444" stroke-opacity="0.333333" d="M192.2003,-260.7133C182.083,-255.6204 170.1157,-250.07 158.0068,-244.804"/>
<polygon fill="#444444" fill-opacity="0.333333" stroke="#444444" stroke-opacity="0.333333" points="159.3186,-241.5584 148.7478,-240.8449 156.5664,-247.9947 159.3186,-241.5584"/>
</g>
<!-- fedora&#45;repos&#45;rawhide&#45;&gt;fedora&#45;repos -->
<g id="edge26" class="edge">
<title>fedora&#45;repos&#45;rawhide&#45;&gt;fedora&#45;repos</title>
<path fill="none" stroke="#444444" stroke-opacity="0.333333" d="M117.7897,-240.9967C127.907,-246.0896 139.8743,-251.64 151.9832,-256.906"/>
<polygon fill="#444444" fill-opacity="0.333333" stroke="#444444" stroke-opacity="0.333333" points="150.6714,-260.1516 161.2422,-260.8651 153.4236,-253.7153 150.6714,-260.1516"/>
</g>
<!-- fedora&#45;repos&#45;rawhide&#45;&gt;fedora&#45;repos&#45;rawhide -->
<g id="edge27" class="edge">
<title>fedora&#45;repos&#45;rawhide&#45;&gt;fedora&#45;repos&#45;rawhide</title>
<path fill="none" stroke="#444444" stroke-opacity="0.333333" d="M186.5583,-228.56C197.4446,-227.4889 204.5,-225.5822 204.5,-222.84 204.5,-221.0833 201.6045,-219.6695 196.6611,-218.5985"/>
<polygon fill="#444444" fill-opacity="0.333333" stroke="#444444" stroke-opacity="0.333333" points="196.9597,-215.105 186.5583,-217.12 195.946,-222.0313 196.9597,-215.105"/>
</g>
<!-- filesystem -->
<g id="node1" class="node">
<title>filesystem</title>
<text text-anchor="middle" x="707.23" y="-210.27" font-family="Helvetica,sans-Serif" font-weight="bold" font-size="14.00" fill="#000000">filesystem (0.0 B)</text>
</g>
<!-- setup -->
<g id="node2" class="node">
<title>setup</title>
<text text-anchor="middle" x="570.47" y="-262.07" font-family="Helvetica,sans-Serif" font-weight="bold" font-size="14.00" fill="#000000">setup (709.7 kB)</text>
</g>
<!-- bash -->
<g id="node3" class="node">
<title>bash</title>
<text text-anchor="middle" x="870.49" y="-225.53" font-family="Helvetica,sans-Serif" font-weight="bold" font-size="14.00" fill="#000000">bash (7.2 MB)</text>
</g>
<!-- fedora&#45;release -->
<g id="node4" class="node">
<title>fedora&#45;release</title>
<text text-anchor="middle" x="385.99" y="-257.33" font-family="Helvetica,sans-Serif" font-weight="bold" font-size="14.00" fill="#000000">fedora&#45;release (691.0 B)</text>
</g>
<!-- glibc -->
<g id="node5" class="node">
<title>glibc</title>
<text text-anchor="middle" x="907.5" y="-304.33" font-family="Helvetica,sans-Serif" font-weight="bold" font-size="14.00" fill="#000000">glibc (16.5 MB)</text>
</g>
<!-- ncurses&#45;libs -->
<g id="node6" class="node">
<title>ncurses&#45;libs</title>
<text text-anchor="middle" x="1007.7" y="-348.33" font-family="Helvetica,sans-Serif" font-weight="bold" font-size="14.00" fill="#000000">ncurses&#45;libs (976.2 kB)</text>
</g>
<!-- basesystem -->
<g id="node7" class="node">
<title>basesystem</title>
<text text-anchor="middle" x="724.16" y="-309.08" font-family="Helvetica,sans-Serif" font-weight="bold" font-size="14.00" fill="#000000">basesystem (0.0 B)</text>
</g>
<!-- glibc&#45;common -->
<g id="node8" class="node">
<title>glibc&#45;common</title>
<text text-anchor="middle" x="962.31" y="-147.81" font-family="Helvetica,sans-Serif" font-weight="bold" font-size="14.00" fill="#000000">glibc&#45;common (7.8 MB)</text>
</g>
<!-- glibc&#45;minimal&#45;langpack -->
<g id="node9" class="node">
<title>glibc&#45;minimal&#45;langpack</title>
<text text-anchor="middle" x="1037.8" y="-221.71" font-family="Helvetica,sans-Serif" font-weight="bold" font-size="14.00" fill="#000000">glibc&#45;minimal&#45;langpack (0.0 B)</text>
</g>
<!-- libgcc -->
<g id="node10" class="node">
<title>libgcc</title>
<text text-anchor="middle" x="889.19" y="-456.77" font-family="Helvetica,sans-Serif" font-weight="bold" font-size="14.00" fill="#000000">libgcc (194.2 kB)</text>
</g>
<!-- ncurses&#45;base -->
<g id="node11" class="node">
<title>ncurses&#45;base</title>
<text text-anchor="middle" x="1130.9" y="-431.35" font-family="Helvetica,sans-Serif" font-weight="bold" font-size="14.00" fill="#000000">ncurses&#45;base (278.5 kB)</text>
</g>
<!-- fedora&#45;release&#45;common -->
<g id="node12" class="node">
<title>fedora&#45;release&#45;common</title>
<text text-anchor="middle" x="290.52" y="-185.31" font-family="Helvetica,sans-Serif" font-weight="bold" font-size="14.00" fill="#000000">fedora&#45;release&#45;common (14.2 kB)</text>
</g>
<!-- fedora&#45;repos -->
<g id="node13" class="node">
<title>fedora&#45;repos</title>
<text text-anchor="middle" x="219.49" y="-275.17" font-family="Helvetica,sans-Serif" font-weight="bold" font-size="14.00" fill="#000000">fedora&#45;repos (8.4 kB)</text>
</g>
<!-- fedora&#45;gpg&#45;keys -->
<g id="node14" class="node">
<title>fedora&#45;gpg&#45;keys</title>
<text text-anchor="middle" x="136.92" y="-385.94" font-family="Helvetica,sans-Serif" font-weight="bold" font-size="14.00" fill="#000000">fedora&#45;gpg&#45;keys (103.0 kB)</text>
</g>
<!-- fedora&#45;repos&#45;rawhide -->
<g id="node15" class="node">
<title>fedora&#45;repos&#45;rawhide</title>
<text text-anchor="middle" x="90.5" y="-219.14" font-family="Helvetica,sans-Serif" font-weight="bold" font-size="14.00" fill="#000000">fedora&#45;repos&#45;rawhide (4.0 kB)</text>
</g>
<!-- tzdata -->
<g id="node16" class="node">
<title>tzdata</title>
<text text-anchor="middle" x="1022.9" y="-14.3" font-family="Helvetica,sans-Serif" font-weight="bold" font-size="14.00" fill="#000000">tzdata (1.8 MB)</text>
</g>
</g>

<script type="text/javascript"><![CDATA[

document.addEventListener('click', function(e) {
      e = e || window.event;
      var target = e.target || e.srcElement;
      text = target.parentElement.querySelector("title").textContent;

      console.log("Clicked on: " + text);
      // reset all strokes
      var nodes = document.getElementsByClassName("edge");

      for (index = 0, len = nodes.length; index < len; ++index) {
          //var title = nodes[index].querySelector("title").textContent.split("->");
          id = nodes[index].id;
          document.getElementById(id).querySelector("path").setAttribute("stroke-width", "1");
          document.getElementById(id).querySelector("path").setAttribute("stroke-opacity", "0.5");
          document.getElementById(id).querySelector("path").setAttribute("stroke", "#444444");
          document.getElementById(id).querySelector("polygon").setAttribute("stroke-width", "1");
          document.getElementById(id).querySelector("polygon").setAttribute("stroke-opacity", "0.5");
          document.getElementById(id).querySelector("polygon").setAttribute("stroke", "#444444");
      }
      // reset text highlight
      pkgs = document.getElementsByClassName("node");
      for (index2 = 0, len2 = pkgs.length; index2 < len2; ++index2) {
          target_id = pkgs[index2].id;
          document.getElementById(target_id).querySelector("text").setAttribute("font-weight", "normal");
      }

      // highlight deps
      var nodes = document.getElementsByClassName("edge");
      for (index = 0, len = nodes.length; index < len; ++index) {
        var title = nodes[index].querySelector("title").textContent.split("->");

        if (title[0] == text) {
          id = nodes[index].id;
          //console.log("ID:   " + id);
          document.getElementById(id).querySelector("path").setAttribute("stroke-width", "3");
          document.getElementById(id).querySelector("path").setAttribute("stroke-opacity", "1");
          document.getElementById(id).querySelector("path").setAttribute("stroke", "#aa3333");
          document.getElementById(id).querySelector("polygon").setAttribute("stroke-width", "5");
          document.getElementById(id).querySelector("polygon").setAttribute("stroke-opacity", "1");
          document.getElementById(id).querySelector("polygon").setAttribute("stroke", "#aa3333");

        }
        if (title[1] == text) {
          id = nodes[index].id;
          document.getElementById(id).querySelector("path").setAttribute("stroke-width", "3");
          document.getElementById(id).querySelector("path").setAttribute("stroke-opacity", "1");
          document.getElementById(id).querySelector("path").setAttribute("stroke", "#333377");
          document.getElementById(id).querySelector("polygon").setAttribute("stroke-width", "5");
          document.getElementById(id).querySelector("polygon").setAttribute("stroke-opacity", "1");
          document.getElementById(id).querySelector("polygon").setAttribute("stroke", "#333377");
        }

        if (title[0] == text || title[1] == text) {
          pkgs = document.getElementsByClassName("node");
          for (index2 = 0, len2 = pkgs.length; index2 < len2; ++index2) {
            var pkg_name = pkgs[index2].querySelector("title").textContent;
            if (pkg_name == title[0] || pkg_name == title[1]) {
              target_id = pkgs[index2].id;
              document.getElementById(target_id).querySelector("text").setAttribute("font-weight", "bold");
            }
          }
        }
      }


  }, false);

]]></script>


  <text
     id="text7664"
     y="19.384439"
     x="9.9055691"
     style="font-style:normal;font-weight:normal;font-size:12.49485588px;line-height:125%;font-family:sans-serif;letter-spacing:0px;word-spacing:0px;fill:#000000;fill-opacity:1;stroke:none;stroke-width:0.3123714px;stroke-linecap:butt;stroke-linejoin:miter;stroke-opacity:1"
     xml:space="preserve"><tspan
       style="font-size:12.00258541px;stroke-width:0.3123714px"
       y="19.384439"
       x="9.9055691"
       id="tspan7666"><a href="report-use-case-definition--freeipa-trust-controller--rawhide.html"><tspan
   style="font-weight:bold;font-size:12.00258541px;fill:#0066ff;stroke-width:0.3123714px"
   id="tspan7668">FreeIPA Trust Controller</tspan></a> on <a href="report-base-definition--minimal-langpack-base--rawhide.html"><tspan
   style="font-weight:bold;font-size:12.00258541px;fill:#0066ff;stroke-width:0.3123714px"
   id="tspan7676">Minimal Base</tspan></a> (Fedora rawhide)</tspan></text>
  <text
     xml:space="preserve"
     style="font-style:normal;font-weight:normal;font-size:11.85299969px;line-height:125%;font-family:sans-serif;letter-spacing:0px;word-spacing:0px;fill:#000000;fill-opacity:1;stroke:none;stroke-width:0.296325px;stroke-linecap:butt;stroke-linejoin:miter;stroke-opacity:1"
     x="9.9365959"
     y="58.520042"
     id="text8235"><tspan
       id="tspan8237"
       x="9.9365959"
       y="58.520042"
       style="stroke-width:0.296325px;font-size:10.80232704px;fill:#666666">Generated by <a href="./"><tspan
   style="fill:#3771c8"
   id="tspan8255">Feedback Pipeline</tspan></a></tspan></text>
  <text
     xml:space="preserve"
     style="font-style:normal;font-weight:normal;font-size:12.49485588px;line-height:125%;font-family:sans-serif;letter-spacing:0px;word-spacing:0px;fill:#000000;fill-opacity:1;stroke:none;stroke-width:0.3123714px;stroke-linecap:butt;stroke-linejoin:miter;stroke-opacity:1"
     x="9.9055691"
     y="38.974205"
     id="text8245"><a href="graph-simple--freeipa-trust-controller--minimal-langpack-base--rawhide.svg"><tspan
       id="tspan8247"
       x="9.9055691"
       y="38.974205"
       style="font-weight:normal;font-size:12.00258541px;fill:#0066ff;stroke-width:0.3123714px">Collapse base image</tspan></a></text>

</svg>
