<?xml version="1.0" encoding="UTF-8" standalone="no"?>
<!DOCTYPE svg PUBLIC "-//W3C//DTD SVG 1.1//EN"
 "http://www.w3.org/Graphics/SVG/1.1/DTD/svg11.dtd">
<!-- Generated by graphviz version 2.40.1 (0)
 -->
<!-- Title: packages Pages: 1 -->
<svg width="1342pt" height="1118pt"
 viewBox="0.00 0.00 1610.31 1341.31" xmlns="http://www.w3.org/2000/svg" xmlns:xlink="http://www.w3.org/1999/xlink">
<g id="graph0" class="graph" transform="scale(.8333 .8333) rotate(0) translate(125.3342 1203.5099)">
<title>packages</title>
<polygon fill="#dae2ff" stroke="transparent" points="-125.3342,137.8027 -125.3342,-1203.5099 1484.9724,-1203.5099 1484.9724,137.8027 -125.3342,137.8027"/>
<polygon fill="#bbd7d9" stroke="#bbd7d9" points="580.8851,-272.835 579.9724,-272.813 571.8837,-272.9606 571.482,-272.9514 571.2048,-272.9567 561.1994,-272.738 557.3139,-272.9821 553.2944,-272.9042 541.1509,-271.6708 534.5166,-270.4515 527.2755,-268.8217 520.0898,-266.9098 472.0616,-252.183 433.3477,-216.7526 432.8255,-216.2124 420.5983,-204.1556 420.4886,-204.0521 419.5131,-203.0965 408.1702,-191.5678 410.2576,-184.1214 424.3933,-129.4543 485.3705,-64.4675 491.318,4.3476 492.1883,24.8267 553.1245,91.7228 586.5771,115.6399 628.6014,112.8153 640.3944,112.28 655.6053,112.2549 656.8869,112.3087 662.9636,112.6968 678.8793,114.4109 689.217,115.9761 715.0419,120.4484 797.893,80.0022 848.0183,102.9734 914.8076,113.9869 920.4411,115.1606 936.9065,119.3129 944.9052,121.6766 945.0369,58.3091 942.4311,-13.4402 937.7144,-13.4402 931.4634,-17.1181 930.9899,-17.645 927.8986,-17.645 923.0971,34.1939 921.6912,-17.8471 918.6319,-17.8471 918.6319,-17.8471 921.6912,-17.8471 922.6346,-18.1265 918.4399,-69.8361 916.5233,-20.6613 911.5142,-24.3107 914.4012,-119.1329 874.1206,-109.5556 857.181,-105.0161 843.1262,-100.4216 841.3643,-99.7435 838.5077,-177.4543 834.4072,-204.1626 838.7715,-208.0623 834.766,-211.5734 830.2275,-212.8405 830.2275,-212.8405 834.766,-211.5734 838.7715,-208.0623 834.4072,-204.1626 838.5077,-177.4543 841.3643,-99.7435 843.1262,-100.4216 857.181,-105.0161 874.1206,-109.5556 914.4012,-119.1329 911.5142,-24.3107 916.5233,-20.6613 918.4399,-69.8361 922.6346,-18.1265 921.6912,-17.8471 923.0971,34.1939 927.8986,-17.645 930.9899,-17.645 932.9545,-20.0121 937.06,-22.3426 937.06,-22.3426 932.9545,-20.0121 930.9899,-17.645 931.4634,-17.1181 937.7144,-13.4402 942.4311,-13.4402 945.0369,58.3091 944.9052,121.6766 946.8384,122.3321 960.1632,127.1448 976.6104,133.8027 979.847,131.658 1045.7844,89.6897 1079.6649,47.9515 1103.8966,-4.4899 1107.6476,-12.1482 1108.0745,-12.3192 1106.3134,-74.51 1098.2708,-157.2378 1094.5015,-157.2378 1094.0605,-157.1145 1089.3461,-157.1145 1088.295,-157.4119 1084.6611,-157.4119 1081.4,-119.4474 1078.0035,-157.4574 1075.3785,-157.4574 1073.8711,-155.7984 1068.8988,-153.033 1068.8988,-153.033 1073.8711,-155.7984 1075.3785,-157.4574 1074.6625,-158.2459 1074.6625,-158.2459 1075.3785,-157.4574 1078.0035,-157.4574 1081.4,-119.4474 1084.6611,-157.4119 1088.295,-157.4119 1089.3461,-157.1145 1094.0605,-157.1145 1094.5015,-157.2378 1098.2708,-157.2378 1106.3134,-74.51 1106.584,-118.6249 1109.5483,-151.3325 1109.5483,-151.3325 1106.584,-118.6249 1106.3134,-74.51 1108.0745,-12.3192 1177.4905,-35.7036 1236.4431,-72.7725 1244.6038,-96.459 1255.1483,-157.46 1259.877,-177.3072 1254.1345,-182.8037 1249.8116,-186.4918 1229.782,-202.2679 1217.6395,-210.9894 1108.5688,-285.4623 1101.916,-290.2163 1094.6364,-295.8833 1093.8521,-296.4643 1094.4275,-330.8423 1094.3242,-344.9 1096.4055,-376.9384 1096.73,-384.9351 1056.0808,-409.567 1054.6632,-410.3273 1051.5126,-411.9116 1047.891,-413.6123 1032.7562,-420.2191 1021.1785,-424.4811 1002.6094,-429.4238 967.995,-436.2501 967.241,-351.4568 962.0564,-348.5558 959.6824,-345.0605 956.5521,-345.0605 955.8871,-344.8584 950.9337,-344.8584 950.8773,-344.8418 946.7044,-344.8418 946.6917,-344.838 940.7487,-344.838 939.4749,-344.4474 939.0244,-344.4474 935.7351,-341.6752 929.6917,-339.8998 924.736,-341.309 922.8471,-263.7005 917.71,-266.0299 919.4658,-344.7886 914.9006,-344.7886 914.9006,-344.7886 919.4658,-344.7886 917.71,-266.0299 922.8471,-263.7005 924.736,-341.309 929.6917,-339.8998 935.7351,-341.6752 939.0244,-344.4474 939.4749,-344.4474 940.7487,-344.838 946.6917,-344.838 946.7044,-344.8418 950.8773,-344.8418 950.9337,-344.8584 955.8871,-344.8584 956.5521,-345.0605 959.6824,-345.0605 962.0564,-348.5558 967.241,-351.4568 967.995,-436.2501 959.9262,-438.1146 957.0261,-438.8822 954.3718,-439.6745 940.4126,-444.3187 938.3956,-445.1943 944.6965,-500.0169 946.1878,-524.6422 947.2472,-530.7045 948.4561,-550.7289 954.8325,-606.2086 896.5352,-644.7433 882.1723,-654.7754 882.0026,-563.1694 882.0026,-563.1694 882.1723,-654.7754 872.8403,-661.9649 872.42,-625.4744 868.4528,-533.5627 864.582,-533.5627 863.0969,-533.1201 863.0969,-533.1201 864.582,-533.5627 868.4528,-533.5627 872.42,-625.4744 872.8403,-661.9649 868.511,-665.6143 859.4113,-672.9042 843.6766,-686.5849 838.5034,-691.4241 836.5485,-693.4561 831.1268,-693.4925 828.0542,-693.5664 821.8949,-693.605 817.3477,-693.5525 811.35,-693.6914 810.2593,-693.7545 797.1426,-694.0463 794.0795,-694.2206 775.5384,-695.5977 775.9487,-651.8286 780.3232,-575.3939 786.0303,-533.4396 789.863,-533.4396 791.1381,-533.0667 794.5024,-533.0667 794.5024,-533.0667 791.1381,-533.0667 789.863,-533.4396 786.0303,-533.4396 780.3232,-575.3939 775.9487,-651.8286 775.5384,-695.5977 759.6603,-697.8765 760.8753,-577.1002 760.8753,-577.1002 759.6603,-697.8765 757.8744,-698.1946 751.8446,-695.8365 715.967,-601.6903 703.2724,-563.4297 697.4799,-536.6948 694.0162,-526.0894 664.1157,-447.6277 740.4178,-374.4583 740.3178,-368.1874 740.3691,-356.1093 725.343,-332.9441 724.5714,-331.6938 708.4193,-304.1503 626.3162,-277.6456 622.4391,-276.5593 622.412,-276.5528 618.1255,-275.7112 607.9388,-274.136 601.7481,-273.4409 591.7766,-272.7438 593.2346,-243.8047 598.0957,-206.3855 602.8198,-203.756 604.1849,-202.2493 602.6084,-200.4286 597.6905,-197.609 592.3215,-197.609 592.3215,-197.609 597.6905,-197.609 602.6084,-200.4286 604.1849,-202.2493 602.8198,-203.756 598.0957,-206.3855 593.2346,-243.8047 591.7766,-272.7438 591.2627,-272.7513 584.9954,-273.1083 580.8851,-272.835 580.8851,-272.835"/>
<polygon fill="#fed9a6" stroke="#fed9a6" points="-119.2564,-417.7688 -119.4995,-409.4655 -121.3342,-381.6269 -74.3389,-328.5617 9.9879,-275.9771 36.4603,-281.9638 58.6017,-286.5432 59.8577,-286.7781 73.7885,-288.8364 78.5987,-289.4521 94.6338,-290.5594 109.3798,-290.9973 128.7568,-290.0477 137.7721,-289.2518 139.5464,-289.0604 217.7132,-300.8564 267.9452,-250.8421 365.7677,-212.9665 376.7326,-208.2139 379.8923,-206.7721 386.6278,-203.5435 406.1301,-192.8293 406.1072,-198.7822 400.2885,-345.7709 396.0128,-346.923 391.5939,-350.7506 395.8109,-354.4446 400.2938,-355.6917 400.2938,-355.6917 395.8109,-354.4446 391.5939,-350.7506 396.0128,-346.923 400.2885,-345.7709 406.1072,-198.7822 406.1301,-192.8293 408.1702,-191.5678 419.5131,-203.0965 420.4886,-204.0521 420.8841,-350.4419 421.7055,-350.6768 425.2263,-350.6768 431.2009,-423.5461 431.8316,-406.808 431.8316,-406.808 431.2009,-423.5461 425.2263,-350.6768 425.3947,-350.6288 428.6952,-350.6288 428.6952,-350.6288 425.3947,-350.6288 425.2263,-350.6768 421.7055,-350.6768 420.8841,-350.4419 420.4886,-204.0521 420.5983,-204.1556 432.8255,-216.2124 433.3477,-216.7526 472.0616,-252.183 520.0898,-266.9098 527.2755,-268.8217 534.5166,-270.4515 541.1509,-271.6708 553.2944,-272.9042 557.3139,-272.9821 557.5067,-276.1613 558.5914,-339.2795 553.4641,-339.2795 547.7283,-342.6237 546.8575,-343.5929 548.731,-345.7 552.8945,-347.9766 552.8945,-347.9766 548.731,-345.7 546.8575,-343.5929 547.7283,-342.6237 553.4641,-339.2795 558.5914,-339.2795 557.5067,-276.1613 557.3139,-272.9821 561.1994,-272.738 571.2048,-272.9567 571.482,-272.9514 571.8837,-272.9606 579.9724,-272.813 580.8851,-272.835 584.9954,-273.1083 584.9688,-274.5628 585.5138,-297.3551 585.5138,-297.3551 584.9688,-274.5628 584.9954,-273.1083 591.2627,-272.7513 591.7766,-272.7438 601.7481,-273.4409 607.9388,-274.136 618.1255,-275.7112 622.412,-276.5528 622.4391,-276.5593 626.3162,-277.6456 708.4193,-304.1503 724.5714,-331.6938 725.343,-332.9441 740.3691,-356.1093 740.3178,-368.1874 740.4178,-374.4583 664.1157,-447.6277 694.0162,-526.0894 697.4799,-536.6948 703.2724,-563.4297 715.967,-601.6903 751.8446,-695.8365 757.8744,-698.1946 731.967,-820.53 730.7716,-832.6292 726.2468,-865.5406 725.5094,-869.0228 751.3914,-932.77 778.7341,-984.6725 756.2534,-1036.5997 746.751,-1057.2693 723.1041,-1103.5176 706.2455,-1102.5045 665.8574,-1093.5854 651.772,-1090.7262 649.6227,-1090.3287 643.9514,-1088.2396 641.1441,-1087.2616 641.0292,-1087.2238 624.2899,-1082.3776 624.6265,-967.291 627.7842,-937.2129 632.0215,-934.8858 633.8051,-932.8572 631.9473,-930.7029 627.3438,-928.1433 626.7418,-876.6356 629.8715,-876.4829 630.1326,-852.1887 633.9738,-820.8134 633.0923,-820.5573 633.0923,-820.5573 633.9738,-820.8134 630.1326,-852.1887 629.8715,-876.4829 626.7418,-876.6356 627.3438,-928.1433 622.4502,-928.1433 622.4502,-928.1433 627.3438,-928.1433 631.9473,-930.7029 633.8051,-932.8572 632.0215,-934.8858 627.7842,-937.2129 624.6265,-967.291 624.2899,-1082.3776 609.0382,-1078.5662 609.0572,-1058.0289 609.7278,-1029.1689 613.0416,-966.502 611.3127,-932.9279 613.3442,-932.3134 608.332,-905.3403 607.0143,-876.5752 608.3987,-876.4381 608.9636,-860.9266 607.3276,-823.6356 613.1161,-825.3416 617.2473,-824.2023 617.2473,-824.2023 613.1161,-825.3416 607.3276,-823.6356 608.9636,-860.9266 608.3987,-876.4381 607.0143,-876.5752 608.332,-905.3403 613.3442,-932.3134 611.3127,-932.9279 613.0416,-966.502 609.7278,-1029.1689 609.0572,-1058.0289 600.8108,-933.1096 597.8444,-933.1096 595.5604,-931.2247 595.1378,-931.0691 591.1485,-927.1904 589.5729,-876.7589 593.3187,-876.4046 592.6493,-867.3984 592.6493,-867.3984 593.3187,-876.4046 589.5729,-876.7589 591.1485,-927.1904 595.1378,-931.0691 595.5604,-931.2247 597.8444,-933.1096 600.8108,-933.1096 609.0572,-1058.0289 609.0382,-1078.5662 595.1605,-1076.1969 582.3723,-1074.2668 517.6644,-1065.7924 429.356,-1148.0256 377.5351,-1148.3624 374.2057,-1148.4528 374.0983,-1148.4579 362.9203,-1149.2228 357.8626,-1147.8546 364.1618,-1015.0178 368.9816,-1012.2001 370.383,-1010.5247 373.8839,-1010.5247 374.7235,-1009.0415 379.7997,-1004.6191 407.4966,-1004.4278 491.7943,-993.3633 477.2393,-943.2712 465.6566,-910.1993 459.7231,-894.5013 575.6749,-877.5102 575.6749,-877.5102 459.7231,-894.5013 465.6566,-910.1993 477.2393,-943.2712 491.7943,-993.3633 407.4966,-1004.4278 379.7997,-1004.6191 374.7235,-1009.0415 373.8839,-1010.5247 370.383,-1010.5247 369.8577,-1009.9072 363.5958,-1006.0605 359.0722,-1006.0605 359.0722,-1006.0605 363.5958,-1006.0605 369.8577,-1009.9072 370.383,-1010.5247 368.9816,-1012.2001 364.1618,-1015.0178 357.8626,-1147.8546 353.6284,-1146.8027 353.5115,-1146.7762 349.7011,-1145.9966 349.6481,-1144.4548 349.6481,-1144.4548 349.7011,-1145.9966 232.5846,-1127.1102 229.5973,-1123.2639 197.3411,-1030.5588 197.3037,-1029.6108 192.549,-971.5067 190.5195,-951.6945 192.8963,-946.6016 273.7427,-852.4952 209.1504,-729.3372 172.9752,-664.435 151.1786,-628.679 217.6389,-574.6558 334.7565,-599.8729 335.2526,-599.9631 345.3091,-601.1316 346.0477,-689.3242 346.7107,-689.5173 350.2004,-689.5173 350.7344,-689.674 352.7775,-689.674 356.554,-692.9929 361.8012,-694.4985 366.455,-693.2072 369.9523,-760.6888 370.2468,-790.3691 377.9825,-777.6284 392.7906,-756.5099 391.465,-727.9819 391.465,-727.9819 392.7906,-756.5099 377.9825,-777.6284 370.2468,-790.3691 369.9523,-760.6888 366.455,-693.2072 370.6812,-689.5848 366.2032,-685.6998 362.2945,-684.631 362.2945,-684.631 366.2032,-685.6998 370.6812,-689.5848 366.455,-693.2072 361.8012,-694.4985 356.554,-692.9929 352.7775,-689.674 350.7344,-689.674 350.2004,-689.5173 346.7107,-689.5173 346.0477,-689.3242 345.3091,-601.1316 335.2526,-599.9631 334.7565,-599.8729 217.6389,-574.6558 151.1786,-628.679 144.0673,-628.2855 130.1779,-618.057 122.7834,-613.124 106.2728,-602.4861 106.719,-513.3741 108.2977,-477.7306 113.5068,-436.5063 117.4979,-436.5063 118.9296,-436.0768 122.1581,-436.0768 122.5707,-436.1997 129.5064,-550.0909 130.3913,-493.4817 130.3913,-493.4817 129.5064,-550.0909 122.5707,-436.1997 122.1581,-436.0768 118.9296,-436.0768 117.4979,-436.5063 113.5068,-436.5063 108.2977,-477.7306 106.719,-513.3741 106.2728,-602.4861 97.3039,-597.3358 85.7717,-591.2436 71.0607,-583.8148 57.7441,-578.3358 37.9281,-571.1017 -61.9359,-537.0365 -88.2335,-480.6004 48.5304,-441.0631 50.6284,-438.7529 52.6843,-438.0473 55.2259,-435.9777 58.5625,-435.9777 59.7131,-436.3225 63.5127,-436.3225 70.8369,-527.2164 71.4434,-539.88 73.2967,-511.5005 81.2269,-436.5939 81.8445,-436.5939 85.642,-439.804 90.7601,-441.2468 90.7601,-441.2468 85.642,-439.804 81.8445,-436.5939 81.2269,-436.5939 73.2967,-511.5005 71.4434,-539.88 70.8369,-527.2164 63.5127,-436.3225 59.7131,-436.3225 58.5625,-435.9777 55.2259,-435.9777 52.6843,-438.0473 50.6284,-438.7529 48.5304,-441.0631 -88.2335,-480.6004 -119.2564,-417.7688 -119.2564,-417.7688"/>
<polygon fill="#d8d6da" stroke="#d8d6da" points="1412.9398,-381.3489 1413.2073,-369.9637 1414.9719,-331.8194 1410.2343,-317.4425 1402.354,-289.1709 1351.0612,-221.4548 1275.9261,-185.8643 1267.0366,-181.2208 1259.877,-177.3072 1254.1345,-182.8037 1249.8116,-186.4918 1229.782,-202.2679 1217.6395,-210.9894 1108.5688,-285.4623 1101.916,-290.2163 1094.6364,-295.8833 1093.8521,-296.4643 1094.4275,-330.8423 1094.3242,-344.9 1096.4055,-376.9384 1096.73,-384.9351 1056.0808,-409.567 1054.6632,-410.3273 1051.5126,-411.9116 1047.891,-413.6123 1032.7562,-420.2191 1021.1785,-424.4811 1002.6094,-429.4238 967.995,-436.2501 959.9262,-438.1146 957.0261,-438.8822 954.3718,-439.6745 940.4126,-444.3187 938.3956,-445.1943 944.6965,-500.0169 946.1878,-524.6422 947.2472,-530.7045 948.4561,-550.7289 954.8325,-606.2086 988.6499,-608.7078 998.9615,-609.1361 1001.3077,-609.3134 1010.0554,-609.405 1013.4837,-609.557 1017.3364,-609.4779 1017.9234,-609.4468 1020.8169,-609.1995 1024.11,-609.1411 1027.6271,-609.1974 1033.1737,-608.9265 1034.8394,-608.9578 1040.0353,-608.887 1045.5278,-609.1853 1052.7236,-609.3414 1052.7576,-609.3433 1054.6039,-609.3258 1062.8617,-608.9786 1069.8088,-609.158 1073.7566,-609.1318 1077.4899,-608.8653 1093.8052,-606.6363 1103.2307,-604.7383 1106.2877,-603.9246 1115.6923,-601.112 1126.8221,-597.4219 1165.4689,-583.3835 1168.6947,-557.2811 1169.8918,-539.3298 1171.5887,-525.7737 1175.817,-481.6497 1178.4473,-460.3662 1217.7377,-449.2523 1233.6124,-445.2023 1248.6787,-442.6306 1262.2911,-441.0752 1268.4572,-440.7188 1270.9915,-440.6436 1276.1609,-440.6355 1280.9637,-440.763 1288.8066,-440.5386 1290.6798,-440.4333 1300.7581,-439.588 1314.6027,-437.6606 1320.3599,-436.7011 1322.131,-436.3575 1406.7284,-415.2642 1412.9398,-381.3489 1412.9398,-381.3489"/>
<polygon fill="#fbb4ae" stroke="#fbb4ae" points="859.4113,-672.9042 868.511,-665.6143 872.8403,-661.9649 882.1723,-654.7754 896.5352,-644.7433 954.8325,-606.2086 988.6499,-608.7078 998.9615,-609.1361 1001.3077,-609.3134 1010.0554,-609.405 1013.4837,-609.557 1017.3364,-609.4779 1017.9234,-609.4468 1020.8169,-609.1995 1024.11,-609.1411 1027.6271,-609.1974 1033.1737,-608.9265 1034.8394,-608.9578 1040.0353,-608.887 1045.5278,-609.1853 1052.7236,-609.3414 1052.7576,-609.3433 1054.6039,-609.3258 1062.8617,-608.9786 1069.8088,-609.158 1073.7566,-609.1318 1077.4899,-608.8653 1093.8052,-606.6363 1103.2307,-604.7383 1106.2877,-603.9246 1115.6923,-601.112 1126.8221,-597.4219 1165.4689,-583.3835 1168.6947,-557.2811 1169.8918,-539.3298 1171.5887,-525.7737 1175.817,-481.6497 1178.4473,-460.3662 1217.7377,-449.2523 1233.6124,-445.2023 1248.6787,-442.6306 1262.2911,-441.0752 1268.4572,-440.7188 1270.9915,-440.6436 1276.1609,-440.6355 1280.9637,-440.763 1288.8066,-440.5386 1290.6798,-440.4333 1300.7581,-439.588 1314.6027,-437.6606 1320.3599,-436.7011 1322.131,-436.3575 1406.7284,-415.2642 1461.8616,-499.5739 1463.0668,-501.3284 1459.4368,-569.7958 1459.2948,-591.0245 1455.5255,-603.7264 1469.3246,-684 1455.6882,-684 1337.8579,-690.124 1337.8579,-690.124 1455.6882,-684 1469.3246,-684 1480.9724,-731.6111 1410.7111,-827.8987 1410.7572,-831.514 1410.287,-832.5914 1397.9441,-862.5099 1383.8093,-899.0504 1361.9913,-959.8685 1342.4932,-985.5004 1314.8181,-999.2771 1259.6234,-1007.6777 1252.8168,-1008.8591 1252.5541,-1008.7941 1247.6229,-1007.6818 1239.385,-1006.1807 1224.5938,-1003.8067 1226.6254,-937.1722 1231.5853,-871.1886 1236.6569,-871.1886 1241.4834,-868.3113 1242.9507,-866.4422 1242.4106,-865.7665 1242.4106,-865.7665 1242.9507,-866.4422 1241.4834,-868.3113 1236.6569,-871.1886 1231.5853,-871.1886 1226.6254,-937.1722 1224.5938,-1003.8067 1214.7355,-1002.6556 1119.24,-997.7391 1141.6288,-882.3095 1143.2347,-871.3144 1144.7599,-855.606 1146.4908,-846.9263 1151.2035,-814.9453 1156.6965,-786.6246 1205.2129,-759.8641 1209.3817,-761.6353 1212.8484,-762.9922 1221.9694,-766.2596 1231.9451,-769.168 1242.5602,-771.9068 1244.5707,-772.29 1247.8246,-772.8023 1263.9867,-774.8105 1277.7275,-776.0549 1279.1117,-690.228 1284.0513,-686.356 1288.8666,-777.4255 1289.3831,-777.5057 1294.4838,-778.4626 1295.73,-778.7369 1300.798,-685.7006 1305.8727,-688.6577 1310.7129,-688.6577 1316.3743,-685.2615 1317.5403,-683.8599 1317.0084,-683.24 1310.8408,-679.4838 1306.0914,-679.4838 1306.0914,-679.4838 1310.8408,-679.4838 1317.0084,-683.24 1317.5403,-683.8599 1316.3743,-685.2615 1310.7129,-688.6577 1305.8727,-688.6577 1300.798,-685.7006 1295.73,-778.7369 1294.4838,-778.4626 1289.3831,-777.5057 1288.8666,-777.4255 1284.0513,-686.356 1279.1117,-690.228 1277.7275,-776.0549 1263.9867,-774.8105 1247.8246,-772.8023 1244.5707,-772.29 1242.5602,-771.9068 1231.9451,-769.168 1221.9694,-766.2596 1212.8484,-762.9922 1209.3817,-761.6353 1205.2129,-759.8641 1156.6965,-786.6246 1127.353,-777.5502 1111.4379,-773.2575 1102.958,-771.6638 1093.4895,-770.6534 1087.6156,-770.2657 1086.7863,-770.2784 1077.3542,-770.0322 1073.0491,-770.0952 1071.8568,-770.0142 1068.7567,-769.9298 1068.6047,-769.9318 1062.7595,-770.2485 1061.6174,-770.2631 1057.7241,-770.1522 1057.7216,-770.1523 1052.3419,-769.9957 1043.5048,-770.4588 1041.668,-770.4033 1038.1388,-770.4398 1037.7209,-770.4269 1034.7423,-770.577 1034.1946,-770.582 1021.7894,-770.1828 1020.4663,-770.3018 1012.9717,-770.3567 1002.5424,-770.8571 997.7324,-771.4772 992.2156,-772.4123 943.1739,-782.7159 886.3915,-737.9171 870.9998,-725.1335 862.8682,-718.0648 859.5248,-715.0316 859.1986,-714.7231 852.8691,-709.2696 843.4556,-700.4855 838.8628,-695.8683 836.5485,-693.4561 838.5034,-691.4241 843.6766,-686.5849 859.4113,-672.9042 859.4113,-672.9042"/>
<polygon fill="#d8d6da" stroke="#d8d6da" points="1077.3542,-770.0322 1086.7863,-770.2784 1087.6156,-770.2657 1093.4895,-770.6534 1102.958,-771.6638 1111.4379,-773.2575 1127.353,-777.5502 1156.6965,-786.6246 1151.2035,-814.9453 1146.4908,-846.9263 1144.7599,-855.606 1143.2347,-871.3144 1141.6288,-882.3095 1119.24,-997.7391 1110.5193,-1001.1921 1091.9147,-1050.2 1066.5082,-1134.5654 986.3627,-1199.5099 964.1807,-1192.6544 957.7318,-1190.7996 947.047,-1187.9559 939.4793,-1186.1064 927.0978,-1183.882 926.0905,-1130.5128 924.5488,-1102.7776 924.764,-1054.4957 930.2372,-1054.4957 934.9482,-1051.7098 936.1565,-1050.2454 935.195,-1049.0676 935.195,-1049.0676 936.1565,-1050.2454 934.9482,-1051.7098 930.2372,-1054.4957 924.764,-1054.4957 924.5488,-1102.7776 926.0905,-1130.5128 927.0978,-1183.882 913.8032,-1182.3508 904.1395,-1181.6542 891.4825,-1181.0148 893.2238,-1132.7383 893.2238,-1132.7383 891.4825,-1181.0148 816.3134,-1180.4636 744.8677,-1130.9172 723.1041,-1103.5176 746.751,-1057.2693 756.2534,-1036.5997 778.7341,-984.6725 751.3914,-932.77 725.5094,-869.0228 726.2468,-865.5406 730.7716,-832.6292 731.967,-820.53 757.8744,-698.1946 759.6603,-697.8765 775.5384,-695.5977 794.0795,-694.2206 797.1426,-694.0463 810.2593,-693.7545 811.35,-693.6914 817.3477,-693.5525 821.8949,-693.605 828.0542,-693.5664 831.1268,-693.4925 836.5485,-693.4561 838.8628,-695.8683 843.4556,-700.4855 852.8691,-709.2696 859.1986,-714.7231 859.5248,-715.0316 862.8682,-718.0648 870.9998,-725.1335 886.3915,-737.9171 943.1739,-782.7159 992.2156,-772.4123 997.7324,-771.4772 1002.5424,-770.8571 1012.9717,-770.3567 1020.4663,-770.3018 1021.7894,-770.1828 1034.1946,-770.582 1034.7423,-770.577 1037.7209,-770.4269 1038.1388,-770.4398 1039.729,-842.6936 1034.2485,-842.6936 1033.7694,-842.839 1029.3368,-842.839 1028.3727,-842.5493 1025.9984,-842.5493 1025.9984,-842.5493 1028.3727,-842.5493 1029.3368,-842.839 1033.7694,-842.839 1034.2485,-842.6936 1039.729,-842.6936 1038.1388,-770.4398 1041.668,-770.4033 1043.5048,-770.4588 1052.3419,-769.9957 1057.7216,-770.1523 1055.0089,-839.0749 1050.5863,-837.8475 1044.6639,-839.6312 1040.8553,-843.0338 1040.876,-843.0654 1044.6158,-846.2056 1049.5417,-847.6049 1049.5417,-847.6049 1044.6158,-846.2056 1040.876,-843.0654 1040.8553,-843.0338 1044.6639,-839.6312 1050.5863,-837.8475 1055.0089,-839.0749 1057.7216,-770.1523 1057.7241,-770.1522 1061.6174,-770.2631 1062.7595,-770.2485 1068.6047,-769.9318 1068.7567,-769.9298 1071.8568,-770.0142 1073.0491,-770.0952 1077.3542,-770.0322 1077.3542,-770.0322"/>
<polyline fill="none" stroke="#000000" points="811.35,-693.6914 810.2593,-693.7545 797.1426,-694.0463 794.0795,-694.2206 775.5384,-695.5977 759.6603,-697.8765 757.8744,-698.1946 751.8446,-695.8365 715.967,-601.6903 703.2724,-563.4297 697.4799,-536.6948 694.0162,-526.0894 664.1157,-447.6277 740.4178,-374.4583 740.3178,-368.1874 740.3691,-356.1093 725.343,-332.9441 724.5714,-331.6938 708.4193,-304.1503 626.3162,-277.6456 622.4391,-276.5593 622.412,-276.5528 618.1255,-275.7112 607.9388,-274.136 601.7481,-273.4409 591.7766,-272.7438 591.2627,-272.7513 584.9954,-273.1083 580.8851,-272.835 579.9724,-272.813 571.8837,-272.9606 571.482,-272.9514 571.2048,-272.9567 561.1994,-272.738 557.3139,-272.9821 553.2944,-272.9042 541.1509,-271.6708 534.5166,-270.4515 527.2755,-268.8217 520.0898,-266.9098 472.0616,-252.183 433.3477,-216.7526 432.8255,-216.2124 420.5983,-204.1556 420.4886,-204.0521 419.5131,-203.0965 408.1702,-191.5678 410.2576,-184.1214 424.3933,-129.4543 485.3705,-64.4675 491.318,4.3476 492.1883,24.8267 553.1245,91.7228 586.5771,115.6399 628.6014,112.8153 640.3944,112.28 655.6053,112.2549 656.8869,112.3087 662.9636,112.6968 678.8793,114.4109 689.217,115.9761 715.0419,120.4484 797.893,80.0022 848.0183,102.9734 914.8076,113.9869 920.4411,115.1606 936.9065,119.3129 944.9052,121.6766 946.8384,122.3321 960.1632,127.1448 976.6104,133.8027 979.847,131.658 1045.7844,89.6897 1079.6649,47.9515 1103.8966,-4.4899 1107.6476,-12.1482 1108.0745,-12.3192 1177.4905,-35.7036 1236.4431,-72.7725 1244.6038,-96.459 1255.1483,-157.46 1259.877,-177.3072 1254.1345,-182.8037 1249.8116,-186.4918 1229.782,-202.2679 1217.6395,-210.9894 1108.5688,-285.4623 1101.916,-290.2163 1094.6364,-295.8833 1093.8521,-296.4643 1094.4275,-330.8423 1094.3242,-344.9 1096.4055,-376.9384 1096.73,-384.9351 1056.0808,-409.567 1054.6632,-410.3273 1051.5126,-411.9116 1047.891,-413.6123 1032.7562,-420.2191 1021.1785,-424.4811 1002.6094,-429.4238 967.995,-436.2501 959.9262,-438.1146 957.0261,-438.8822 954.3718,-439.6745 940.4126,-444.3187 938.3956,-445.1943 944.6965,-500.0169 946.1878,-524.6422 947.2472,-530.7045 948.4561,-550.7289 954.8325,-606.2086 896.5352,-644.7433 882.1723,-654.7754 872.8403,-661.9649 868.511,-665.6143 859.4113,-672.9042 843.6766,-686.5849 838.5034,-691.4241 836.5485,-693.4561 831.1268,-693.4925 828.0542,-693.5664 821.8949,-693.605 817.3477,-693.5525 811.35,-693.6914 "/>
<polyline fill="none" stroke="#000000" points="664.1157,-447.6277 694.0162,-526.0894 697.4799,-536.6948 703.2724,-563.4297 715.967,-601.6903 751.8446,-695.8365 757.8744,-698.1946 731.967,-820.53 730.7716,-832.6292 726.2468,-865.5406 725.5094,-869.0228 751.3914,-932.77 778.7341,-984.6725 756.2534,-1036.5997 746.751,-1057.2693 723.1041,-1103.5176 706.2455,-1102.5045 665.8574,-1093.5854 651.772,-1090.7262 649.6227,-1090.3287 643.9514,-1088.2396 641.1441,-1087.2616 641.0292,-1087.2238 624.2899,-1082.3776 609.0382,-1078.5662 595.1605,-1076.1969 582.3723,-1074.2668 517.6644,-1065.7924 429.356,-1148.0256 377.5351,-1148.3624 374.2057,-1148.4528 374.0983,-1148.4579 362.9203,-1149.2228 357.8626,-1147.8546 353.6284,-1146.8027 353.5115,-1146.7762 349.7011,-1145.9966 232.5846,-1127.1102 229.5973,-1123.2639 197.3411,-1030.5588 197.3037,-1029.6108 192.549,-971.5067 190.5195,-951.6945 192.8963,-946.6016 273.7427,-852.4952 209.1504,-729.3372 172.9752,-664.435 151.1786,-628.679 144.0673,-628.2855 130.1779,-618.057 122.7834,-613.124 106.2728,-602.4861 97.3039,-597.3358 85.7717,-591.2436 71.0607,-583.8148 57.7441,-578.3358 37.9281,-571.1017 -61.9359,-537.0365 -88.2335,-480.6004 -119.2564,-417.7688 -119.4995,-409.4655 -121.3342,-381.6269 -74.3389,-328.5617 9.9879,-275.9771 36.4603,-281.9638 58.6017,-286.5432 59.8577,-286.7781 73.7885,-288.8364 78.5987,-289.4521 94.6338,-290.5594 109.3798,-290.9973 128.7568,-290.0477 137.7721,-289.2518 139.5464,-289.0604 217.7132,-300.8564 267.9452,-250.8421 365.7677,-212.9665 376.7326,-208.2139 379.8923,-206.7721 386.6278,-203.5435 406.1301,-192.8293 408.1702,-191.5678 419.5131,-203.0965 420.4886,-204.0521 420.5983,-204.1556 432.8255,-216.2124 433.3477,-216.7526 472.0616,-252.183 520.0898,-266.9098 527.2755,-268.8217 534.5166,-270.4515 541.1509,-271.6708 553.2944,-272.9042 557.3139,-272.9821 561.1994,-272.738 571.2048,-272.9567 571.482,-272.9514 571.8837,-272.9606 579.9724,-272.813 580.8851,-272.835 584.9954,-273.1083 591.2627,-272.7513 591.7766,-272.7438 601.7481,-273.4409 607.9388,-274.136 618.1255,-275.7112 622.412,-276.5528 622.4391,-276.5593 626.3162,-277.6456 708.4193,-304.1503 724.5714,-331.6938 725.343,-332.9441 740.3691,-356.1093 740.3178,-368.1874 740.4178,-374.4583 664.1157,-447.6277 "/>
<polyline fill="none" stroke="#000000" points="1020.8169,-609.1995 1017.9234,-609.4468 1017.3364,-609.4779 1013.4837,-609.557 1010.0554,-609.405 1001.3077,-609.3134 998.9615,-609.1361 988.6499,-608.7078 954.8325,-606.2086 948.4561,-550.7289 947.2472,-530.7045 946.1878,-524.6422 944.6965,-500.0169 938.3956,-445.1943 940.4126,-444.3187 954.3718,-439.6745 957.0261,-438.8822 959.9262,-438.1146 967.995,-436.2501 1002.6094,-429.4238 1021.1785,-424.4811 1032.7562,-420.2191 1047.891,-413.6123 1051.5126,-411.9116 1054.6632,-410.3273 1056.0808,-409.567 1096.73,-384.9351 1096.4055,-376.9384 1094.3242,-344.9 1094.4275,-330.8423 1093.8521,-296.4643 1094.6364,-295.8833 1101.916,-290.2163 1108.5688,-285.4623 1217.6395,-210.9894 1229.782,-202.2679 1249.8116,-186.4918 1254.1345,-182.8037 1259.877,-177.3072 1267.0366,-181.2208 1275.9261,-185.8643 1351.0612,-221.4548 1402.354,-289.1709 1410.2343,-317.4425 1414.9719,-331.8194 1413.2073,-369.9637 1412.9398,-381.3489 1406.7284,-415.2642 1322.131,-436.3575 1320.3599,-436.7011 1314.6027,-437.6606 1300.7581,-439.588 1290.6798,-440.4333 1288.8066,-440.5386 1280.9637,-440.763 1276.1609,-440.6355 1270.9915,-440.6436 1268.4572,-440.7188 1262.2911,-441.0752 1248.6787,-442.6306 1233.6124,-445.2023 1217.7377,-449.2523 1178.4473,-460.3662 1175.817,-481.6497 1171.5887,-525.7737 1169.8918,-539.3298 1168.6947,-557.2811 1165.4689,-583.3835 1126.8221,-597.4219 1115.6923,-601.112 1106.2877,-603.9246 1103.2307,-604.7383 1093.8052,-606.6363 1077.4899,-608.8653 1073.7566,-609.1318 1069.8088,-609.158 1062.8617,-608.9786 1054.6039,-609.3258 1052.7576,-609.3433 1052.7236,-609.3414 1045.5278,-609.1853 1040.0353,-608.887 1034.8394,-608.9578 1033.1737,-608.9265 1027.6271,-609.1974 1024.11,-609.1411 1020.8169,-609.1995 "/>
<polyline fill="none" stroke="#000000" points="1314.6027,-437.6606 1300.7581,-439.588 1290.6798,-440.4333 1288.8066,-440.5386 1280.9637,-440.763 1276.1609,-440.6355 1270.9915,-440.6436 1268.4572,-440.7188 1262.2911,-441.0752 1248.6787,-442.6306 1233.6124,-445.2023 1217.7377,-449.2523 1178.4473,-460.3662 1175.817,-481.6497 1171.5887,-525.7737 1169.8918,-539.3298 1168.6947,-557.2811 1165.4689,-583.3835 1126.8221,-597.4219 1115.6923,-601.112 1106.2877,-603.9246 1103.2307,-604.7383 1093.8052,-606.6363 1077.4899,-608.8653 1073.7566,-609.1318 1069.8088,-609.158 1062.8617,-608.9786 1054.6039,-609.3258 1052.7576,-609.3433 1052.7236,-609.3414 1045.5278,-609.1853 1040.0353,-608.887 1034.8394,-608.9578 1033.1737,-608.9265 1027.6271,-609.1974 1024.11,-609.1411 1020.8169,-609.1995 1017.9234,-609.4468 1017.3364,-609.4779 1013.4837,-609.557 1010.0554,-609.405 1001.3077,-609.3134 998.9615,-609.1361 988.6499,-608.7078 954.8325,-606.2086 896.5352,-644.7433 882.1723,-654.7754 872.8403,-661.9649 868.511,-665.6143 859.4113,-672.9042 843.6766,-686.5849 838.5034,-691.4241 836.5485,-693.4561 838.8628,-695.8683 843.4556,-700.4855 852.8691,-709.2696 859.1986,-714.7231 859.5248,-715.0316 862.8682,-718.0648 870.9998,-725.1335 886.3915,-737.9171 943.1739,-782.7159 992.2156,-772.4123 997.7324,-771.4772 1002.5424,-770.8571 1012.9717,-770.3567 1020.4663,-770.3018 1021.7894,-770.1828 1034.1946,-770.582 1034.7423,-770.577 1037.7209,-770.4269 1038.1388,-770.4398 1041.668,-770.4033 1043.5048,-770.4588 1052.3419,-769.9957 1057.7216,-770.1523 1057.7241,-770.1522 1061.6174,-770.2631 1062.7595,-770.2485 1068.6047,-769.9318 1068.7567,-769.9298 1071.8568,-770.0142 1073.0491,-770.0952 1077.3542,-770.0322 1086.7863,-770.2784 1087.6156,-770.2657 1093.4895,-770.6534 1102.958,-771.6638 1111.4379,-773.2575 1127.353,-777.5502 1156.6965,-786.6246 1151.2035,-814.9453 1146.4908,-846.9263 1144.7599,-855.606 1143.2347,-871.3144 1141.6288,-882.3095 1119.24,-997.7391 1214.7355,-1002.6556 1224.5938,-1003.8067 1239.385,-1006.1807 1247.6229,-1007.6818 1252.5541,-1008.7941 1252.8168,-1008.8591 1259.6234,-1007.6777 1314.8181,-999.2771 1342.4932,-985.5004 1361.9913,-959.8685 1383.8093,-899.0504 1397.9441,-862.5099 1410.287,-832.5914 1410.7572,-831.514 1410.7111,-827.8987 1480.9724,-731.6111 1469.3246,-684 1455.5255,-603.7264 1459.2948,-591.0245 1459.4368,-569.7958 1463.0668,-501.3284 1461.8616,-499.5739 1406.7284,-415.2642 1322.131,-436.3575 1320.3599,-436.7011 1314.6027,-437.6606 "/>
<polyline fill="none" stroke="#000000" points="843.4556,-700.4855 838.8628,-695.8683 836.5485,-693.4561 831.1268,-693.4925 828.0542,-693.5664 821.8949,-693.605 817.3477,-693.5525 811.35,-693.6914 810.2593,-693.7545 797.1426,-694.0463 794.0795,-694.2206 775.5384,-695.5977 759.6603,-697.8765 757.8744,-698.1946 731.967,-820.53 730.7716,-832.6292 726.2468,-865.5406 725.5094,-869.0228 751.3914,-932.77 778.7341,-984.6725 756.2534,-1036.5997 746.751,-1057.2693 723.1041,-1103.5176 744.8677,-1130.9172 816.3134,-1180.4636 891.4825,-1181.0148 904.1395,-1181.6542 913.8032,-1182.3508 927.0978,-1183.882 939.4793,-1186.1064 947.047,-1187.9559 957.7318,-1190.7996 964.1807,-1192.6544 986.3627,-1199.5099 1066.5082,-1134.5654 1091.9147,-1050.2 1110.5193,-1001.1921 1119.24,-997.7391 1141.6288,-882.3095 1143.2347,-871.3144 1144.7599,-855.606 1146.4908,-846.9263 1151.2035,-814.9453 1156.6965,-786.6246 1127.353,-777.5502 1111.4379,-773.2575 1102.958,-771.6638 1093.4895,-770.6534 1087.6156,-770.2657 1086.7863,-770.2784 1077.3542,-770.0322 1073.0491,-770.0952 1071.8568,-770.0142 1068.7567,-769.9298 1068.6047,-769.9318 1062.7595,-770.2485 1061.6174,-770.2631 1057.7241,-770.1522 1057.7216,-770.1523 1052.3419,-769.9957 1043.5048,-770.4588 1041.668,-770.4033 1038.1388,-770.4398 1037.7209,-770.4269 1034.7423,-770.577 1034.1946,-770.582 1021.7894,-770.1828 1020.4663,-770.3018 1012.9717,-770.3567 1002.5424,-770.8571 997.7324,-771.4772 992.2156,-772.4123 943.1739,-782.7159 886.3915,-737.9171 870.9998,-725.1335 862.8682,-718.0648 859.5248,-715.0316 859.1986,-714.7231 852.8691,-709.2696 843.4556,-700.4855 "/>
<!-- device&#45;mapper&#45;libs&#45;&gt;Fedora Container Base -->
<g id="edge1" class="edge">
<title>device&#45;mapper&#45;libs&#45;&gt;Fedora Container Base</title>
<path fill="none" stroke="#444444" stroke-opacity="0.333333" d="M1054.4336,-175.5818C1015.1577,-236.5903 887.6132,-434.7094 841.2583,-506.7139"/>
<polygon fill="#444444" fill-opacity="0.333333" stroke="#444444" stroke-opacity="0.333333" points="838.2395,-504.9372 835.7693,-515.2401 844.1253,-508.7264 838.2395,-504.9372"/>
</g>
<!-- device&#45;mapper&#45;libs&#45;&gt;device&#45;mapper -->
<g id="edge2" class="edge">
<title>device&#45;mapper&#45;libs&#45;&gt;device&#45;mapper</title>
<path fill="none" stroke="#444444" stroke-opacity="0.333333" d="M1047.421,-175.6303C1019.5424,-208.8984 968.1706,-279.4667 943.5359,-318.1926"/>
<polygon fill="#444444" fill-opacity="0.333333" stroke="#444444" stroke-opacity="0.333333" points="940.4573,-316.5157 938.1526,-326.8568 946.4031,-320.2101 940.4573,-316.5157"/>
</g>
<!-- device&#45;mapper&#45;&gt;Fedora Container Base -->
<g id="edge19" class="edge">
<title>device&#45;mapper&#45;&gt;Fedora Container Base</title>
<path fill="none" stroke="#444444" stroke-opacity="0.333333" d="M919.7941,-362.9531C901.1671,-396.1295 861.3979,-466.9625 839.4872,-505.9875"/>
<polygon fill="#444444" fill-opacity="0.333333" stroke="#444444" stroke-opacity="0.333333" points="836.1691,-504.7484 834.3252,-515.1816 842.2728,-508.1754 836.1691,-504.7484"/>
</g>
<!-- device&#45;mapper&#45;&gt;device&#45;mapper&#45;libs -->
<g id="edge20" class="edge">
<title>device&#45;mapper&#45;&gt;device&#45;mapper&#45;libs</title>
<path fill="none" stroke="#444444" stroke-opacity="0.333333" d="M948.609,-326.7297C976.4876,-293.4616 1027.8594,-222.8933 1052.4941,-184.1674"/>
<polygon fill="#444444" fill-opacity="0.333333" stroke="#444444" stroke-opacity="0.333333" points="1055.5727,-185.8443 1057.8774,-175.5032 1049.6269,-182.1499 1055.5727,-185.8443"/>
</g>
<!-- device&#45;mapper&#45;&gt;systemd -->
<g id="edge21" class="edge">
<title>device&#45;mapper&#45;&gt;systemd</title>
<path fill="none" stroke="#444444" stroke-opacity="0.333333" d="M905.2768,-362.9477C849.3221,-403.9102 712.6647,-503.9522 649.1798,-550.4273"/>
<polygon fill="#444444" fill-opacity="0.333333" stroke="#444444" stroke-opacity="0.333333" points="646.7249,-547.8867 640.7234,-556.6179 650.8598,-553.535 646.7249,-547.8867"/>
</g>
<!-- device&#45;mapper&#45;&gt;util&#45;linux -->
<g id="edge22" class="edge">
<title>device&#45;mapper&#45;&gt;util&#45;linux</title>
<path fill="none" stroke="#444444" stroke-opacity="0.333333" d="M940.6031,-363.0515C958.8337,-394.0561 996.0637,-457.3727 1017.3773,-493.6205"/>
<polygon fill="#444444" fill-opacity="0.333333" stroke="#444444" stroke-opacity="0.333333" points="1014.5992,-495.801 1022.685,-502.6472 1020.6334,-492.2529 1014.5992,-495.801"/>
</g>
<!-- libargon2&#45;&gt;Fedora Container Base -->
<g id="edge3" class="edge">
<title>libargon2&#45;&gt;Fedora Container Base</title>
<path fill="none" stroke="#444444" stroke-opacity="0.333333" d="M935.9569,-36.0335C918.7286,-112.6865 851.5028,-411.7915 830.5153,-505.1707"/>
<polygon fill="#444444" fill-opacity="0.333333" stroke="#444444" stroke-opacity="0.333333" points="827.0784,-504.5017 828.3003,-515.0259 833.908,-506.0368 827.0784,-504.5017"/>
</g>
<!-- systemd&#45;&gt;Fedora Container Base -->
<g id="edge4" class="edge">
<title>systemd&#45;&gt;Fedora Container Base</title>
<path fill="none" stroke="#444444" stroke-opacity="0.333333" d="M677.4517,-562.552C696.7464,-558.6906 718.388,-554.3596 739.0024,-550.2342"/>
<polygon fill="#444444" fill-opacity="0.333333" stroke="#444444" stroke-opacity="0.333333" points="739.9061,-553.6228 749.0249,-548.2284 738.5325,-546.7589 739.9061,-553.6228"/>
</g>
<!-- systemd&#45;&gt;util&#45;linux -->
<g id="edge5" class="edge">
<title>systemd&#45;&gt;util&#45;linux</title>
<path fill="none" stroke="#444444" stroke-opacity="0.333333" d="M677.3609,-566.9026C752.1975,-557.1885 878.3634,-540.8115 958.6458,-530.3905"/>
<polygon fill="#444444" fill-opacity="0.333333" stroke="#444444" stroke-opacity="0.333333" points="959.2212,-533.8452 968.6874,-529.087 958.3201,-526.9035 959.2212,-533.8452"/>
</g>
<!-- systemd&#45;&gt;shadow&#45;utils -->
<g id="edge6" class="edge">
<title>systemd&#45;&gt;shadow&#45;utils</title>
<path fill="none" stroke="#444444" stroke-opacity="0.333333" d="M630.7891,-593.2302C670.3874,-641.4942 777.6352,-772.2119 823.5885,-828.2216"/>
<polygon fill="#444444" fill-opacity="0.333333" stroke="#444444" stroke-opacity="0.333333" points="821.1147,-830.7245 830.1635,-836.2354 826.5264,-826.2844 821.1147,-830.7245"/>
</g>
<!-- systemd&#45;&gt;cryptsetup&#45;libs -->
<g id="edge7" class="edge">
<title>systemd&#45;&gt;cryptsetup&#45;libs</title>
<path fill="none" stroke="#444444" stroke-opacity="0.333333" d="M626.3806,-556.7044C661.3092,-496.92 772.6764,-306.3016 814.2595,-235.1272"/>
<polygon fill="#444444" fill-opacity="0.333333" stroke="#444444" stroke-opacity="0.333333" points="817.4026,-236.6854 819.4252,-226.2854 811.3585,-233.1542 817.4026,-236.6854"/>
</g>
<!-- systemd&#45;&gt;iptables&#45;libs -->
<g id="edge8" class="edge">
<title>systemd&#45;&gt;iptables&#45;libs</title>
<path fill="none" stroke="#444444" stroke-opacity="0.333333" d="M614.7293,-556.6638C611.3587,-496.4466 600.5668,-303.6401 596.4742,-230.5214"/>
<polygon fill="#444444" fill-opacity="0.333333" stroke="#444444" stroke-opacity="0.333333" points="599.9522,-230.0299 595.8988,-220.2411 592.9632,-230.4211 599.9522,-230.0299"/>
</g>
<!-- systemd&#45;&gt;libseccomp -->
<g id="edge9" class="edge">
<title>systemd&#45;&gt;libseccomp</title>
<path fill="none" stroke="#444444" stroke-opacity="0.333333" d="M611.0599,-556.7534C600.6506,-516.478 575.5604,-419.3998 563.1617,-371.4273"/>
<polygon fill="#444444" fill-opacity="0.333333" stroke="#444444" stroke-opacity="0.333333" points="566.5393,-370.5083 560.6483,-361.7023 559.762,-372.26 566.5393,-370.5083"/>
</g>
<!-- systemd&#45;&gt;systemd&#45;pam -->
<g id="edge10" class="edge">
<title>systemd&#45;&gt;systemd&#45;pam</title>
<path fill="none" stroke="#444444" stroke-opacity="0.333333" d="M595.2917,-592.9181C569.4265,-621.0989 525.8242,-675.5239 502.7119,-708.3659"/>
<polygon fill="#444444" fill-opacity="0.333333" stroke="#444444" stroke-opacity="0.333333" points="499.5462,-706.7927 496.7682,-717.0169 505.3157,-710.7567 499.5462,-706.7927"/>
</g>
<!-- systemd&#45;&gt;systemd&#45;rpm&#45;macros -->
<g id="edge11" class="edge">
<title>systemd&#45;&gt;systemd&#45;rpm&#45;macros</title>
<path fill="none" stroke="#444444" stroke-opacity="0.333333" d="M554.0114,-558.5803C458.2142,-533.2577 273.9031,-484.5378 169.0258,-456.815"/>
<polygon fill="#444444" fill-opacity="0.333333" stroke="#444444" stroke-opacity="0.333333" points="169.6925,-453.3711 159.13,-454.1992 167.9035,-460.1386 169.6925,-453.3711"/>
</g>
<!-- systemd&#45;&gt;acl -->
<g id="edge12" class="edge">
<title>systemd&#45;&gt;acl</title>
<path fill="none" stroke="#444444" stroke-opacity="0.333333" d="M554.0097,-558.7139C519.4351,-549.6497 476.6056,-538.4213 442.7599,-529.5482"/>
<polygon fill="#444444" fill-opacity="0.333333" stroke="#444444" stroke-opacity="0.333333" points="443.5769,-526.1442 433.0162,-526.9937 441.8017,-532.9153 443.5769,-526.1442"/>
</g>
<!-- systemd&#45;&gt;dbus -->
<g id="edge13" class="edge">
<title>systemd&#45;&gt;dbus</title>
<path fill="none" stroke="#444444" stroke-opacity="0.333333" d="M605.1401,-593.0668C565.2897,-661.3007 424.419,-902.5072 377.0001,-983.7003"/>
<polygon fill="#444444" fill-opacity="0.333333" stroke="#444444" stroke-opacity="0.333333" points="373.9661,-981.9553 371.9452,-992.3557 380.0107,-985.4856 373.9661,-981.9553"/>
</g>
<!-- systemd&#45;&gt;kmod&#45;libs -->
<g id="edge14" class="edge">
<title>systemd&#45;&gt;kmod&#45;libs</title>
<path fill="none" stroke="#444444" stroke-opacity="0.333333" d="M575.7516,-592.937C531.185,-613.0341 459.0889,-645.5454 411.0139,-667.2245"/>
<polygon fill="#444444" fill-opacity="0.333333" stroke="#444444" stroke-opacity="0.333333" points="409.4117,-664.1076 401.7345,-671.409 412.2893,-670.4888 409.4117,-664.1076"/>
</g>
<!-- systemd&#45;&gt;qrencode&#45;libs -->
<g id="edge15" class="edge">
<title>systemd&#45;&gt;qrencode&#45;libs</title>
<path fill="none" stroke="#444444" stroke-opacity="0.333333" d="M598.1319,-556.561C559.874,-516.7374 469.1113,-422.2606 425.1585,-376.5092"/>
<polygon fill="#444444" fill-opacity="0.333333" stroke="#444444" stroke-opacity="0.333333" points="427.4715,-373.8648 418.0196,-369.0781 422.4235,-378.7143 427.4715,-373.8648"/>
</g>
<!-- util&#45;linux&#45;&gt;Fedora Container Base -->
<g id="edge16" class="edge">
<title>util&#45;linux&#45;&gt;Fedora Container Base</title>
<path fill="none" stroke="#444444" stroke-opacity="0.333333" d="M968.5776,-524.5633C965.4988,-524.7471 962.3658,-524.9341 959.1917,-525.1235"/>
<polygon fill="#444444" fill-opacity="0.333333" stroke="#444444" stroke-opacity="0.333333" points="958.7055,-521.6462 948.9318,-525.7359 959.1226,-528.6338 958.7055,-521.6462"/>
</g>
<!-- util&#45;linux&#45;&gt;libfdisk -->
<g id="edge17" class="edge">
<title>util&#45;linux&#45;&gt;libfdisk</title>
<path fill="none" stroke="#444444" stroke-opacity="0.333333" d="M1054.5313,-502.5298C1093.6399,-469.0599 1177.1086,-397.6255 1221.4733,-359.6573"/>
<polygon fill="#444444" fill-opacity="0.333333" stroke="#444444" stroke-opacity="0.333333" points="1223.9607,-362.1352 1229.2825,-352.9739 1219.4092,-356.817 1223.9607,-362.1352"/>
</g>
<!-- util&#45;linux&#45;&gt;libutempter -->
<g id="edge18" class="edge">
<title>util&#45;linux&#45;&gt;libutempter</title>
<path fill="none" stroke="#444444" stroke-opacity="0.333333" d="M1034.2457,-538.9381C1037.0243,-592.5242 1045.1781,-749.7691 1048.5326,-814.4616"/>
<polygon fill="#444444" fill-opacity="0.333333" stroke="#444444" stroke-opacity="0.333333" points="1045.0514,-814.9166 1049.0647,-824.7219 1052.042,-814.5541 1045.0514,-814.9166"/>
</g>
<!-- shadow&#45;utils&#45;&gt;Fedora Container Base -->
<g id="edge27" class="edge">
<title>shadow&#45;utils&#45;&gt;Fedora Container Base</title>
<path fill="none" stroke="#444444" stroke-opacity="0.333333" d="M843.7855,-836.0868C840.3428,-782.7876 830.2559,-626.6262 826.0718,-561.8489"/>
<polygon fill="#444444" fill-opacity="0.333333" stroke="#444444" stroke-opacity="0.333333" points="829.5447,-561.3153 825.4073,-551.5617 822.5593,-561.7666 829.5447,-561.3153"/>
</g>
<!-- shadow&#45;utils&#45;&gt;libsemanage -->
<g id="edge28" class="edge">
<title>shadow&#45;utils&#45;&gt;libsemanage</title>
<path fill="none" stroke="#444444" stroke-opacity="0.333333" d="M852.5652,-872.3514C867.0688,-906.8337 898.7571,-982.1727 915.8662,-1022.8498"/>
<polygon fill="#444444" fill-opacity="0.333333" stroke="#444444" stroke-opacity="0.333333" points="912.6798,-1024.3015 919.7832,-1032.1623 919.1322,-1021.5874 912.6798,-1024.3015"/>
</g>
<!-- cryptsetup&#45;libs&#45;&gt;Fedora Container Base -->
<g id="edge31" class="edge">
<title>cryptsetup&#45;libs&#45;&gt;Fedora Container Base</title>
<path fill="none" stroke="#444444" stroke-opacity="0.333333" d="M829.7859,-226.3959C828.8042,-280.5044 825.9236,-439.2825 824.7384,-504.6057"/>
<polygon fill="#444444" fill-opacity="0.333333" stroke="#444444" stroke-opacity="0.333333" points="821.2325,-504.9042 824.5504,-514.9661 828.2314,-505.0312 821.2325,-504.9042"/>
</g>
<!-- cryptsetup&#45;libs&#45;&gt;device&#45;mapper&#45;libs -->
<g id="edge32" class="edge">
<title>cryptsetup&#45;libs&#45;&gt;device&#45;mapper&#45;libs</title>
<path fill="none" stroke="#444444" stroke-opacity="0.333333" d="M907.3887,-191.4379C927.9278,-187.0407 950.3433,-182.2419 971.6859,-177.6727"/>
<polygon fill="#444444" fill-opacity="0.333333" stroke="#444444" stroke-opacity="0.333333" points="972.6879,-181.0376 981.7336,-175.5217 971.2225,-174.1927 972.6879,-181.0376"/>
</g>
<!-- cryptsetup&#45;libs&#45;&gt;libargon2 -->
<g id="edge33" class="edge">
<title>cryptsetup&#45;libs&#45;&gt;libargon2</title>
<path fill="none" stroke="#444444" stroke-opacity="0.333333" d="M840.6567,-189.7639C860.1023,-156.1461 901.7127,-84.209 924.4276,-44.9392"/>
<polygon fill="#444444" fill-opacity="0.333333" stroke="#444444" stroke-opacity="0.333333" points="927.5278,-46.5696 929.5052,-36.1609 921.4685,-43.0647 927.5278,-46.5696"/>
</g>
<!-- iptables&#45;libs&#45;&gt;Fedora Container Base -->
<g id="edge34" class="edge">
<title>iptables&#45;libs&#45;&gt;Fedora Container Base</title>
<path fill="none" stroke="#444444" stroke-opacity="0.333333" d="M607.537,-220.3152C645.8326,-275.6095 760.5951,-441.3131 805.7132,-506.4583"/>
<polygon fill="#444444" fill-opacity="0.333333" stroke="#444444" stroke-opacity="0.333333" points="803.0312,-508.7331 811.6021,-514.9613 808.7858,-504.7476 803.0312,-508.7331"/>
</g>
<!-- iptables&#45;libs&#45;&gt;libpcap -->
<g id="edge35" class="edge">
<title>iptables&#45;libs&#45;&gt;libpcap</title>
<path fill="none" stroke="#444444" stroke-opacity="0.333333" d="M601.2744,-183.9749C612.5007,-152.2592 635.8269,-86.36 649.1744,-48.6517"/>
<polygon fill="#444444" fill-opacity="0.333333" stroke="#444444" stroke-opacity="0.333333" points="652.6186,-49.4101 652.6561,-38.8154 646.0198,-47.0743 652.6186,-49.4101"/>
</g>
<!-- libseccomp&#45;&gt;Fedora Container Base -->
<g id="edge36" class="edge">
<title>libseccomp&#45;&gt;Fedora Container Base</title>
<path fill="none" stroke="#444444" stroke-opacity="0.333333" d="M581.7,-361.8139C630.4925,-396.2909 736.4547,-471.1645 790.7207,-509.5092"/>
<polygon fill="#444444" fill-opacity="0.333333" stroke="#444444" stroke-opacity="0.333333" points="788.7828,-512.4255 798.9695,-515.3379 792.8224,-506.7086 788.7828,-512.4255"/>
</g>
<!-- systemd&#45;pam&#45;&gt;Fedora Container Base -->
<g id="edge37" class="edge">
<title>systemd&#45;pam&#45;&gt;Fedora Container Base</title>
<path fill="none" stroke="#444444" stroke-opacity="0.333333" d="M517.7053,-717.2035C579.0309,-680.3852 718.1295,-596.874 785.8043,-556.2438"/>
<polygon fill="#444444" fill-opacity="0.333333" stroke="#444444" stroke-opacity="0.333333" points="787.7023,-559.1867 794.4743,-551.0386 784.0992,-553.1852 787.7023,-559.1867"/>
</g>
<!-- systemd&#45;pam&#45;&gt;systemd -->
<g id="edge38" class="edge">
<title>systemd&#45;pam&#45;&gt;systemd</title>
<path fill="none" stroke="#444444" stroke-opacity="0.333333" d="M507.9883,-717.3019C533.8535,-689.1211 577.4558,-634.6961 600.5681,-601.8541"/>
<polygon fill="#444444" fill-opacity="0.333333" stroke="#444444" stroke-opacity="0.333333" points="603.7338,-603.4273 606.5118,-593.2031 597.9643,-599.4633 603.7338,-603.4273"/>
</g>
<!-- acl&#45;&gt;Fedora Container Base -->
<g id="edge39" class="edge">
<title>acl&#45;&gt;Fedora Container Base</title>
<path fill="none" stroke="#444444" stroke-opacity="0.333333" d="M433.1611,-516.5346C492.8884,-519.0769 597.7189,-523.539 683.8155,-527.2037"/>
<polygon fill="#444444" fill-opacity="0.333333" stroke="#444444" stroke-opacity="0.333333" points="683.8103,-530.7066 693.9501,-527.6351 684.108,-523.7129 683.8103,-530.7066"/>
</g>
<!-- dbus&#45;&gt;dbus&#45;broker -->
<g id="edge40" class="edge">
<title>dbus&#45;&gt;dbus&#45;broker</title>
<path fill="none" stroke="#444444" stroke-opacity="0.333333" d="M403.9041,-998.0088C444.3621,-986.0546 505.935,-967.8616 553.7896,-953.7219"/>
<polygon fill="#444444" fill-opacity="0.333333" stroke="#444444" stroke-opacity="0.333333" points="554.8752,-957.0509 563.4736,-950.8606 552.8916,-950.3378 554.8752,-957.0509"/>
</g>
<!-- kmod&#45;libs&#45;&gt;Fedora Container Base -->
<g id="edge41" class="edge">
<title>kmod&#45;libs&#45;&gt;Fedora Container Base</title>
<path fill="none" stroke="#444444" stroke-opacity="0.333333" d="M415.0761,-671.4419C502.1739,-642.009 673.9492,-583.961 764.7417,-553.2795"/>
<polygon fill="#444444" fill-opacity="0.333333" stroke="#444444" stroke-opacity="0.333333" points="765.9827,-556.5547 774.3358,-550.0373 763.7416,-549.9231 765.9827,-556.5547"/>
</g>
<!-- qrencode&#45;libs&#45;&gt;Fedora Container Base -->
<g id="edge42" class="edge">
<title>qrencode&#45;libs&#45;&gt;Fedora Container Base</title>
<path fill="none" stroke="#444444" stroke-opacity="0.333333" d="M442.641,-368.9541C521.4577,-402.8756 690.6865,-475.7092 774.7442,-511.8864"/>
<polygon fill="#444444" fill-opacity="0.333333" stroke="#444444" stroke-opacity="0.333333" points="773.5042,-515.163 784.0733,-515.9014 776.2715,-508.7332 773.5042,-515.163"/>
</g>
<!-- libfdisk&#45;&gt;Fedora Container Base -->
<g id="edge43" class="edge">
<title>libfdisk&#45;&gt;Fedora Container Base</title>
<path fill="none" stroke="#444444" stroke-opacity="0.333333" d="M1211.6313,-352.8672C1132.9651,-389.4808 955.4897,-472.0831 870.8402,-511.4815"/>
<polygon fill="#444444" fill-opacity="0.333333" stroke="#444444" stroke-opacity="0.333333" points="869.3111,-508.3327 861.7218,-515.7255 872.2649,-514.679 869.3111,-508.3327"/>
</g>
<!-- libutempter&#45;&gt;Fedora Container Base -->
<g id="edge44" class="edge">
<title>libutempter&#45;&gt;Fedora Container Base</title>
<path fill="none" stroke="#444444" stroke-opacity="0.333333" d="M1036.5526,-824.3215C998.1873,-771.7167 888.1017,-620.7719 843.4162,-559.501"/>
<polygon fill="#444444" fill-opacity="0.333333" stroke="#444444" stroke-opacity="0.333333" points="846.0345,-557.1513 837.3141,-551.1341 840.3788,-561.276 846.0345,-557.1513"/>
</g>
<!-- libutempter&#45;&gt;shadow&#45;utils -->
<g id="edge45" class="edge">
<title>libutempter&#45;&gt;shadow&#45;utils</title>
<path fill="none" stroke="#444444" stroke-opacity="0.333333" d="M981.7246,-846.5927C963.8351,-847.5969 944.3739,-848.6894 925.893,-849.7268"/>
<polygon fill="#444444" fill-opacity="0.333333" stroke="#444444" stroke-opacity="0.333333" points="925.531,-846.2415 915.7429,-850.2966 925.9234,-853.2305 925.531,-846.2415"/>
</g>
<!-- libpcap&#45;&gt;Fedora Container Base -->
<g id="edge23" class="edge">
<title>libpcap&#45;&gt;Fedora Container Base</title>
<path fill="none" stroke="#444444" stroke-opacity="0.333333" d="M664.996,-38.7986C689.7201,-115.5657 785.3977,-412.6389 815.2626,-505.3677"/>
<polygon fill="#444444" fill-opacity="0.333333" stroke="#444444" stroke-opacity="0.333333" points="812.0173,-506.7085 818.4144,-515.154 818.6802,-504.5625 812.0173,-506.7085"/>
</g>
<!-- libpq&#45;&gt;Fedora Container Base -->
<g id="edge24" class="edge">
<title>libpq&#45;&gt;Fedora Container Base</title>
<path fill="none" stroke="#444444" stroke-opacity="0.333333" d="M1248.2987,-545.1221C1180.8094,-543.2216 1062.5801,-539.8923 968.0722,-537.2309"/>
<polygon fill="#444444" fill-opacity="0.333333" stroke="#444444" stroke-opacity="0.333333" points="967.934,-533.7257 957.8394,-536.9427 967.7369,-540.7229 967.934,-533.7257"/>
</g>
<!-- postgresql&#45;&gt;Fedora Container Base -->
<g id="edge25" class="edge">
<title>postgresql&#45;&gt;Fedora Container Base</title>
<path fill="none" stroke="#444444" stroke-opacity="0.333333" d="M1250.4775,-665.9574C1159.0813,-637.4879 982.1004,-582.3591 887.4873,-552.8875"/>
<polygon fill="#444444" fill-opacity="0.333333" stroke="#444444" stroke-opacity="0.333333" points="888.3478,-549.4897 877.7593,-549.8573 886.2659,-556.173 888.3478,-549.4897"/>
</g>
<!-- postgresql&#45;&gt;libpq -->
<g id="edge26" class="edge">
<title>postgresql&#45;&gt;libpq</title>
<path fill="none" stroke="#444444" stroke-opacity="0.333333" d="M1307.5767,-665.7597C1306.5298,-642.5664 1304.7109,-602.2694 1303.4818,-575.0386"/>
<polygon fill="#444444" fill-opacity="0.333333" stroke="#444444" stroke-opacity="0.333333" points="1306.9742,-574.7878 1303.0267,-564.9558 1299.9813,-575.1035 1306.9742,-574.7878"/>
</g>
<!-- libsemanage&#45;&gt;Fedora Container Base -->
<g id="edge30" class="edge">
<title>libsemanage&#45;&gt;Fedora Container Base</title>
<path fill="none" stroke="#444444" stroke-opacity="0.333333" d="M923.7593,-1032.1021C908.4118,-955.1754 848.5246,-655.002 829.8281,-561.2893"/>
<polygon fill="#444444" fill-opacity="0.333333" stroke="#444444" stroke-opacity="0.333333" points="833.2438,-560.5209 827.8548,-551.399 826.3791,-561.8905 833.2438,-560.5209"/>
</g>
<!-- libicu&#45;&gt;Fedora Container Base -->
<g id="edge29" class="edge">
<title>libicu&#45;&gt;Fedora Container Base</title>
<path fill="none" stroke="#444444" stroke-opacity="0.333333" d="M1211.6774,-848.3615C1142.7079,-792.2574 932.9436,-621.6224 854.3665,-557.703"/>
<polygon fill="#444444" fill-opacity="0.333333" stroke="#444444" stroke-opacity="0.333333" points="856.279,-554.7469 846.3128,-551.1516 851.8617,-560.1772 856.279,-554.7469"/>
</g>
<!-- dbus&#45;broker&#45;&gt;Fedora Container Base -->
<g id="edge46" class="edge">
<title>dbus&#45;broker&#45;&gt;Fedora Container Base</title>
<path fill="none" stroke="#444444" stroke-opacity="0.333333" d="M633.7914,-914.5621C665.6663,-850.7245 772.4764,-636.8099 810.5751,-560.5075"/>
<polygon fill="#444444" fill-opacity="0.333333" stroke="#444444" stroke-opacity="0.333333" points="813.7393,-562.0051 815.0752,-551.4948 807.4766,-558.878 813.7393,-562.0051"/>
</g>
<!-- dbus&#45;broker&#45;&gt;systemd -->
<g id="edge47" class="edge">
<title>dbus&#45;broker&#45;&gt;systemd</title>
<path fill="none" stroke="#444444" stroke-opacity="0.333333" d="M624.2439,-914.5312C622.7865,-856.2589 618.235,-674.2638 616.4646,-603.4728"/>
<polygon fill="#444444" fill-opacity="0.333333" stroke="#444444" stroke-opacity="0.333333" points="619.9542,-603.0114 616.2052,-593.1021 612.9564,-603.1865 619.9542,-603.0114"/>
</g>
<!-- dbus&#45;broker&#45;&gt;shadow&#45;utils -->
<g id="edge48" class="edge">
<title>dbus&#45;broker&#45;&gt;shadow&#45;utils</title>
<path fill="none" stroke="#444444" stroke-opacity="0.333333" d="M675.2321,-914.7605C707.8544,-903.134 750.4606,-887.9493 784.8237,-875.7024"/>
<polygon fill="#444444" fill-opacity="0.333333" stroke="#444444" stroke-opacity="0.333333" points="786.0375,-878.9855 794.2821,-872.3314 783.6875,-872.3918 786.0375,-878.9855"/>
</g>
<!-- dbus&#45;broker&#45;&gt;dbus&#45;common -->
<g id="edge49" class="edge">
<title>dbus&#45;broker&#45;&gt;dbus&#45;common</title>
<path fill="none" stroke="#444444" stroke-opacity="0.333333" d="M622.7624,-914.7367C620.8572,-897.0061 617.9202,-869.6718 615.6996,-849.0049"/>
<polygon fill="#444444" fill-opacity="0.333333" stroke="#444444" stroke-opacity="0.333333" points="619.1613,-848.4602 614.6129,-838.8914 612.2014,-849.2081 619.1613,-848.4602"/>
</g>
<!-- dbus&#45;common&#45;&gt;Fedora Container Base -->
<g id="edge50" class="edge">
<title>dbus&#45;common&#45;&gt;Fedora Container Base</title>
<path fill="none" stroke="#444444" stroke-opacity="0.333333" d="M626.1971,-802.1178C662.5468,-752.7508 762.2908,-617.287 804.7122,-559.6738"/>
<polygon fill="#444444" fill-opacity="0.333333" stroke="#444444" stroke-opacity="0.333333" points="807.6649,-561.5667 810.7758,-551.4388 802.0281,-557.4162 807.6649,-561.5667"/>
</g>
<!-- dbus&#45;common&#45;&gt;systemd -->
<g id="edge51" class="edge">
<title>dbus&#45;common&#45;&gt;systemd</title>
<path fill="none" stroke="#444444" stroke-opacity="0.333333" d="M612.8687,-802.4682C613.4045,-760.1489 614.7445,-654.3144 615.3906,-603.2884"/>
<polygon fill="#444444" fill-opacity="0.333333" stroke="#444444" stroke-opacity="0.333333" points="618.894,-603.0318 615.521,-592.9882 611.8946,-602.9431 618.894,-603.0318"/>
</g>
<!-- postgresql&#45;server&#45;&gt;Fedora Container Base -->
<g id="edge52" class="edge">
<title>postgresql&#45;server&#45;&gt;Fedora Container Base</title>
<path fill="none" stroke="#444444" stroke-opacity="0.333333" d="M1030.5766,-679.4471C988.3578,-649.5221 904.396,-590.0094 857.6334,-556.8636"/>
<polygon fill="#444444" fill-opacity="0.333333" stroke="#444444" stroke-opacity="0.333333" points="859.5355,-553.9219 849.3531,-550.9945 855.4876,-559.6328 859.5355,-553.9219"/>
</g>
<!-- postgresql&#45;server&#45;&gt;systemd -->
<g id="edge53" class="edge">
<title>postgresql&#45;server&#45;&gt;systemd</title>
<path fill="none" stroke="#444444" stroke-opacity="0.333333" d="M991.2953,-679.5634C910.0232,-656.9131 771.3745,-618.2721 687.1986,-594.8125"/>
<polygon fill="#444444" fill-opacity="0.333333" stroke="#444444" stroke-opacity="0.333333" points="688.0358,-591.4125 677.4632,-592.0993 686.1564,-598.1555 688.0358,-591.4125"/>
</g>
<!-- postgresql&#45;server&#45;&gt;shadow&#45;utils -->
<g id="edge56" class="edge">
<title>postgresql&#45;server&#45;&gt;shadow&#45;utils</title>
<path fill="none" stroke="#444444" stroke-opacity="0.333333" d="M1031.643,-715.9493C993.4652,-744.2368 920.0279,-798.6493 877.5279,-830.1392"/>
<polygon fill="#444444" fill-opacity="0.333333" stroke="#444444" stroke-opacity="0.333333" points="875.4111,-827.3515 869.46,-836.117 879.5785,-832.9759 875.4111,-827.3515"/>
</g>
<!-- postgresql&#45;server&#45;&gt;libpq -->
<g id="edge54" class="edge">
<title>postgresql&#45;server&#45;&gt;libpq</title>
<path fill="none" stroke="#444444" stroke-opacity="0.333333" d="M1085.9613,-679.461C1130.5753,-652.0576 1214.9449,-600.235 1264.071,-570.0601"/>
<polygon fill="#444444" fill-opacity="0.333333" stroke="#444444" stroke-opacity="0.333333" points="1266.1272,-572.9047 1272.8163,-564.6885 1262.4635,-566.94 1266.1272,-572.9047"/>
</g>
<!-- postgresql&#45;server&#45;&gt;postgresql -->
<g id="edge55" class="edge">
<title>postgresql&#45;server&#45;&gt;postgresql</title>
<path fill="none" stroke="#444444" stroke-opacity="0.333333" d="M1200.3898,-689.8611C1212.0079,-689.2306 1223.4172,-688.6115 1234.2119,-688.0258"/>
<polygon fill="#444444" fill-opacity="0.333333" stroke="#444444" stroke-opacity="0.333333" points="1234.5642,-691.5119 1244.3599,-687.4751 1234.1849,-684.5222 1234.5642,-691.5119"/>
</g>
<!-- postgresql&#45;server&#45;&gt;libicu -->
<g id="edge57" class="edge">
<title>postgresql&#45;server&#45;&gt;libicu</title>
<path fill="none" stroke="#444444" stroke-opacity="0.333333" d="M1075.317,-715.7488C1107.1644,-746.0084 1171.3487,-806.9924 1207.5684,-841.4063"/>
<polygon fill="#444444" fill-opacity="0.333333" stroke="#444444" stroke-opacity="0.333333" points="1205.1908,-843.9752 1214.8511,-848.3259 1210.0124,-838.9005 1205.1908,-843.9752"/>
</g>
<!-- Fedora Container Base -->
<g id="node1" class="node">
<title>Fedora Container Base</title>
<ellipse fill="none" stroke="#000000" cx="824.22" cy="-533.18" rx="136.5" ry="18"/>
<text text-anchor="middle" x="824.22" y="-529.48" font-family="Helvetica,sans-Serif" font-weight="bold" font-size="14.00" fill="#000000">Fedora Container Base (197.9 MB)</text>
</g>
<!-- device&#45;mapper&#45;libs -->
<g id="node2" class="node">
<title>device&#45;mapper&#45;libs</title>
<text text-anchor="middle" x="1066.1" y="-153.76" font-family="Helvetica,sans-Serif" font-weight="bold" font-size="14.00" fill="#000000">device&#45;mapper&#45;libs (417.5 kB)</text>
</g>
<!-- device&#45;mapper -->
<g id="node3" class="node">
<title>device&#45;mapper</title>
<text text-anchor="middle" x="929.93" y="-341.2" font-family="Helvetica,sans-Serif" font-weight="bold" font-size="14.00" fill="#000000">device&#45;mapper (350.3 kB)</text>
</g>
<!-- libargon2 -->
<g id="node4" class="node">
<title>libargon2</title>
<text text-anchor="middle" x="940.01" y="-14.3" font-family="Helvetica,sans-Serif" font-weight="bold" font-size="14.00" fill="#000000">libargon2 (54.9 kB)</text>
</g>
<!-- systemd -->
<g id="node5" class="node">
<title>systemd</title>
<text text-anchor="middle" x="615.75" y="-571.2" font-family="Helvetica,sans-Serif" font-weight="bold" font-size="14.00" fill="#000000">systemd (12.3 MB)</text>
</g>
<!-- util&#45;linux -->
<g id="node6" class="node">
<title>util&#45;linux</title>
<text text-anchor="middle" x="1033.3" y="-517" font-family="Helvetica,sans-Serif" font-weight="bold" font-size="14.00" fill="#000000">util&#45;linux (12.7 MB)</text>
</g>
<!-- shadow&#45;utils -->
<g id="node7" class="node">
<title>shadow&#45;utils</title>
<text text-anchor="middle" x="844.96" y="-850.57" font-family="Helvetica,sans-Serif" font-weight="bold" font-size="14.00" fill="#000000">shadow&#45;utils (3.9 MB)</text>
</g>
<!-- cryptsetup&#45;libs -->
<g id="node8" class="node">
<title>cryptsetup&#45;libs</title>
<text text-anchor="middle" x="830.12" y="-204.28" font-family="Helvetica,sans-Serif" font-weight="bold" font-size="14.00" fill="#000000">cryptsetup&#45;libs (1.8 MB)</text>
</g>
<!-- iptables&#45;libs -->
<g id="node9" class="node">
<title>iptables&#45;libs</title>
<text text-anchor="middle" x="594.88" y="-198.34" font-family="Helvetica,sans-Serif" font-weight="bold" font-size="14.00" fill="#000000">iptables&#45;libs (155.9 kB)</text>
</g>
<!-- libseccomp -->
<g id="node10" class="node">
<title>libseccomp</title>
<text text-anchor="middle" x="555.98" y="-339.94" font-family="Helvetica,sans-Serif" font-weight="bold" font-size="14.00" fill="#000000">libseccomp (347.0 kB)</text>
</g>
<!-- systemd&#45;pam -->
<g id="node11" class="node">
<title>systemd&#45;pam</title>
<text text-anchor="middle" x="487.53" y="-731.62" font-family="Helvetica,sans-Serif" font-weight="bold" font-size="14.00" fill="#000000">systemd&#45;pam (335.6 kB)</text>
</g>
<!-- systemd&#45;rpm&#45;macros -->
<g id="node12" class="node">
<title>systemd&#45;rpm&#45;macros</title>
<text text-anchor="middle" x="91" y="-432.49" font-family="Helvetica,sans-Serif" font-weight="bold" font-size="14.00" fill="#000000">systemd&#45;rpm&#45;macros (4.9 kB)</text>
</g>
<!-- acl -->
<g id="node13" class="node">
<title>acl</title>
<text text-anchor="middle" x="385.36" y="-510.8" font-family="Helvetica,sans-Serif" font-weight="bold" font-size="14.00" fill="#000000">acl (212.0 kB)</text>
</g>
<!-- dbus -->
<g id="node14" class="node">
<title>dbus</title>
<text text-anchor="middle" x="361.29" y="-1006.9" font-family="Helvetica,sans-Serif" font-weight="bold" font-size="14.00" fill="#000000">dbus (0.0 B)</text>
</g>
<!-- kmod&#45;libs -->
<g id="node15" class="node">
<title>kmod&#45;libs</title>
<text text-anchor="middle" x="361.55" y="-685.83" font-family="Helvetica,sans-Serif" font-weight="bold" font-size="14.00" fill="#000000">kmod&#45;libs (197.4 kB)</text>
</g>
<!-- qrencode&#45;libs -->
<g id="node16" class="node">
<title>qrencode&#45;libs</title>
<text text-anchor="middle" x="400.46" y="-347.1" font-family="Helvetica,sans-Serif" font-weight="bold" font-size="14.00" fill="#000000">qrencode&#45;libs (159.3 kB)</text>
</g>
<!-- libfdisk -->
<g id="node17" class="node">
<title>libfdisk</title>
<text text-anchor="middle" x="1250.6" y="-331.03" font-family="Helvetica,sans-Serif" font-weight="bold" font-size="14.00" fill="#000000">libfdisk (488.8 kB)</text>
</g>
<!-- libutempter -->
<g id="node18" class="node">
<title>libutempter</title>
<text text-anchor="middle" x="1050" y="-839.06" font-family="Helvetica,sans-Serif" font-weight="bold" font-size="14.00" fill="#000000">libutempter (58.2 kB)</text>
</g>
<!-- libpcap -->
<g id="node19" class="node">
<title>libpcap</title>
<text text-anchor="middle" x="659.12" y="-16.854" font-family="Helvetica,sans-Serif" font-weight="bold" font-size="14.00" fill="#000000">libpcap (375.4 kB)</text>
</g>
<!-- libpq -->
<g id="node20" class="node">
<title>libpq</title>
<text text-anchor="middle" x="1302.2" y="-542.94" font-family="Helvetica,sans-Serif" font-weight="bold" font-size="14.00" fill="#000000">libpq (718.6 kB)</text>
</g>
<!-- postgresql -->
<g id="node21" class="node">
<title>postgresql</title>
<text text-anchor="middle" x="1308.4" y="-680.3" font-family="Helvetica,sans-Serif" font-weight="bold" font-size="14.00" fill="#000000">postgresql (5.7 MB)</text>
</g>
<!-- libsemanage -->
<g id="node22" class="node">
<title>libsemanage</title>
<text text-anchor="middle" x="927.37" y="-1046.5" font-family="Helvetica,sans-Serif" font-weight="bold" font-size="14.00" fill="#000000">libsemanage (313.1 kB)</text>
</g>
<!-- libicu -->
<g id="node23" class="node">
<title>libicu</title>
<text text-anchor="middle" x="1234" y="-862.82" font-family="Helvetica,sans-Serif" font-weight="bold" font-size="14.00" fill="#000000">libicu (31.5 MB)</text>
</g>
<!-- dbus&#45;broker -->
<g id="node24" class="node">
<title>dbus&#45;broker</title>
<text text-anchor="middle" x="624.7" y="-929.07" font-family="Helvetica,sans-Serif" font-weight="bold" font-size="14.00" fill="#000000">dbus&#45;broker (423.2 kB)</text>
</g>
<!-- dbus&#45;common -->
<g id="node25" class="node">
<title>dbus&#45;common</title>
<text text-anchor="middle" x="612.64" y="-816.83" font-family="Helvetica,sans-Serif" font-weight="bold" font-size="14.00" fill="#000000">dbus&#45;common (11.2 kB)</text>
</g>
<!-- postgresql&#45;server -->
<g id="node26" class="node">
<title>postgresql&#45;server</title>
<text text-anchor="middle" x="1056.3" y="-692.08" font-family="Helvetica,sans-Serif" font-weight="bold" font-size="22.00" fill="#cc0066">postgresql&#45;server (21.3 MB)</text>
</g>
</g>

<script type="text/javascript"><![CDATA[

document.addEventListener('click', function(e) {
      e = e || window.event;
      var target = e.target || e.srcElement;
      text = target.parentElement.querySelector("title").textContent;

      console.log("Clicked on: " + text);
      // reset all strokes
      var nodes = document.getElementsByClassName("edge");

      for (index = 0, len = nodes.length; index < len; ++index) {
          //var title = nodes[index].querySelector("title").textContent.split("->");
          id = nodes[index].id;
          document.getElementById(id).querySelector("path").setAttribute("stroke-width", "1");
          document.getElementById(id).querySelector("path").setAttribute("stroke-opacity", "0.5");
          document.getElementById(id).querySelector("path").setAttribute("stroke", "#444444");
          document.getElementById(id).querySelector("polygon").setAttribute("stroke-width", "1");
          document.getElementById(id).querySelector("polygon").setAttribute("stroke-opacity", "0.5");
          document.getElementById(id).querySelector("polygon").setAttribute("stroke", "#444444");
      }
      // reset text highlight
      pkgs = document.getElementsByClassName("node");
      for (index2 = 0, len2 = pkgs.length; index2 < len2; ++index2) {
          target_id = pkgs[index2].id;
          document.getElementById(target_id).querySelector("text").setAttribute("font-weight", "normal");
      }

      // highlight deps
      var nodes = document.getElementsByClassName("edge");
      for (index = 0, len = nodes.length; index < len; ++index) {
        var title = nodes[index].querySelector("title").textContent.split("->");

        if (title[0] == text) {
          id = nodes[index].id;
          //console.log("ID:   " + id);
          document.getElementById(id).querySelector("path").setAttribute("stroke-width", "3");
          document.getElementById(id).querySelector("path").setAttribute("stroke-opacity", "1");
          document.getElementById(id).querySelector("path").setAttribute("stroke", "#aa3333");
          document.getElementById(id).querySelector("polygon").setAttribute("stroke-width", "5");
          document.getElementById(id).querySelector("polygon").setAttribute("stroke-opacity", "1");
          document.getElementById(id).querySelector("polygon").setAttribute("stroke", "#aa3333");

        }
        if (title[1] == text) {
          id = nodes[index].id;
          document.getElementById(id).querySelector("path").setAttribute("stroke-width", "3");
          document.getElementById(id).querySelector("path").setAttribute("stroke-opacity", "1");
          document.getElementById(id).querySelector("path").setAttribute("stroke", "#333377");
          document.getElementById(id).querySelector("polygon").setAttribute("stroke-width", "5");
          document.getElementById(id).querySelector("polygon").setAttribute("stroke-opacity", "1");
          document.getElementById(id).querySelector("polygon").setAttribute("stroke", "#333377");
        }

        if (title[0] == text || title[1] == text) {
          pkgs = document.getElementsByClassName("node");
          for (index2 = 0, len2 = pkgs.length; index2 < len2; ++index2) {
            var pkg_name = pkgs[index2].querySelector("title").textContent;
            if (pkg_name == title[0] || pkg_name == title[1]) {
              target_id = pkgs[index2].id;
              document.getElementById(target_id).querySelector("text").setAttribute("font-weight", "bold");
            }
          }
        }
      }


  }, false);

]]></script>


  <text
     id="text7664"
     y="19.384439"
     x="9.9055691"
     style="font-style:normal;font-weight:normal;font-size:12.49485588px;line-height:125%;font-family:sans-serif;letter-spacing:0px;word-spacing:0px;fill:#000000;fill-opacity:1;stroke:none;stroke-width:0.3123714px;stroke-linecap:butt;stroke-linejoin:miter;stroke-opacity:1"
     xml:space="preserve"><tspan
       style="font-size:12.00258541px;stroke-width:0.3123714px"
       y="19.384439"
       x="9.9055691"
       id="tspan7666"><a href="report-use-case-definition--postgresql-noweak--31.html"><tspan
   style="font-weight:bold;font-size:12.00258541px;fill:#0066ff;stroke-width:0.3123714px"
   id="tspan7668">PostgreSQL (no weak deps)</tspan></a> on <a href="report-base-definition--fedora-container-base--31.html"><tspan
   style="font-weight:bold;font-size:12.00258541px;fill:#0066ff;stroke-width:0.3123714px"
   id="tspan7676">Fedora Container Base</tspan></a> (Fedora 31)</tspan></text>
  <text
     xml:space="preserve"
     style="font-style:normal;font-weight:normal;font-size:11.85299969px;line-height:125%;font-family:sans-serif;letter-spacing:0px;word-spacing:0px;fill:#000000;fill-opacity:1;stroke:none;stroke-width:0.296325px;stroke-linecap:butt;stroke-linejoin:miter;stroke-opacity:1"
     x="9.9365959"
     y="58.520042"
     id="text8235"><tspan
       id="tspan8237"
       x="9.9365959"
       y="58.520042"
       style="stroke-width:0.296325px;font-size:10.80232704px;fill:#666666">Generated by <a href="./"><tspan
   style="fill:#3771c8"
   id="tspan8255">Feedback Pipeline</tspan></a></tspan></text>
  <text
     xml:space="preserve"
     style="font-style:normal;font-weight:normal;font-size:12.49485588px;line-height:125%;font-family:sans-serif;letter-spacing:0px;word-spacing:0px;fill:#000000;fill-opacity:1;stroke:none;stroke-width:0.3123714px;stroke-linecap:butt;stroke-linejoin:miter;stroke-opacity:1"
     x="9.9055691"
     y="38.974205"
     id="text8245"><a href="graph--postgresql-noweak--fedora-container-base--31.svg"><tspan
       id="tspan8247"
       x="9.9055691"
       y="38.974205"
       style="font-weight:normal;font-size:12.00258541px;fill:#0066ff;stroke-width:0.3123714px">Expand base image</tspan></a></text>

</svg>
