<?xml version="1.0" encoding="UTF-8" standalone="no"?>
<!DOCTYPE svg PUBLIC "-//W3C//DTD SVG 1.1//EN"
 "http://www.w3.org/Graphics/SVG/1.1/DTD/svg11.dtd">
<!-- Generated by graphviz version 2.40.1 (0)
 -->
<!-- Title: packages Pages: 1 -->
<svg width="1650pt" height="1156pt"
 viewBox="0.00 0.00 1980.58 1386.96" xmlns="http://www.w3.org/2000/svg" xmlns:xlink="http://www.w3.org/1999/xlink">
<g id="graph0" class="graph" transform="scale(.8333 .8333) rotate(0) translate(107.3012 1233.9495)">
<title>packages</title>
<polygon fill="#dae2ff" stroke="transparent" points="-107.3012,153.0068 -107.3012,-1233.9495 1873.2789,-1233.9495 1873.2789,153.0068 -107.3012,153.0068"/>
<polygon fill="#d8d6da" stroke="#d8d6da" points="1001.5509,-258.7953 1008.0104,-260.8834 1059.4098,-279.534 1121.3865,-198.2611 1147.1505,-166.2997 1154.1246,-158.3831 1159.3129,-152.2704 1095.3459,-47.8311 1047.079,-30.1444 1011.383,-23.0076 998.4775,-20.186 985.4387,-16.8511 969.2175,1.7398 853.0533,70.1176 851.2756,70.2461 832.7506,71.9262 831.6899,72.0612 822.0676,73.4628 821.4058,73.5713 814.5093,74.8294 806.3373,74.0964 804.4931,73.9971 785.6346,73.3193 772.9025,73.3178 626.74,25.9712 625.2673,18.6717 622.2769,2.509 626.8446,-5.0515 632.9437,-14.5064 644.9609,-31.9217 658.2722,-49.8469 670.9198,-64.9275 692.2074,-88.129 747.6934,-88.129 788.9554,-81.8094 788.9554,-81.8094 747.6934,-88.129 692.2074,-88.129 769.3522,-190.21 781.0864,-202.9991 785.3868,-207.9362 775.9084,-216.2006 770.2936,-220.8419 760.7017,-228.3358 758.7782,-229.7484 675.8963,-283.2266 666.0786,-289.9991 659.4805,-294.8344 645.6209,-306.1943 641.2965,-309.9172 640.7792,-310.3839 638.7644,-312.3792 638.5123,-313.1115 633.6614,-326.0808 630.785,-333.2129 639.5162,-343.2513 725.0686,-447.0826 720.2806,-451.8766 711.3792,-461.2946 706.071,-466.0894 703.3591,-468.8705 693.7739,-478.1545 679.6086,-490.2307 611.2774,-544.2394 603.8776,-550.5183 596.7429,-556.9772 591.2789,-562.548 585.5756,-567.9947 579.8387,-574.0822 673.5266,-573.2536 685.5076,-576.628 691.4332,-572.9012 693.1405,-570.4379 695.5203,-570.4379 701.6261,-652.8951 703.0087,-688.8186 707.3832,-612.3839 707.3832,-612.3839 703.0087,-688.8186 701.6261,-652.8951 695.5203,-570.4379 693.1405,-570.4379 691.4332,-572.9012 685.5076,-576.628 673.5266,-573.2536 579.8387,-574.0822 577.2684,-576.5102 564.9481,-589.3336 565.4102,-589.7765 687.0598,-701.1304 687.9489,-702.0175 691.7637,-705.4673 694.6832,-716.7903 689.6891,-722.023 684.9889,-726.3378 666.6003,-742.4584 665.254,-743.7114 582.6718,-816.5413 581.8679,-833.9297 579.4081,-864.5193 578.7378,-869.0649 573.4372,-916.2009 637.61,-978.7874 671.4887,-968.7408 673.2739,-925.8139 673.2739,-925.8139 671.4887,-968.7408 689.848,-964.3105 687.4805,-887.8472 690.1291,-854.3864 689.4446,-854.1729 689.4446,-854.1729 690.1291,-854.3864 687.4805,-887.8472 689.848,-964.3105 698.2012,-962.7645 697.9998,-930.364 700.5547,-855.6114 705.9825,-858.868 710.9291,-858.868 710.9291,-858.868 705.9825,-858.868 700.5547,-855.6114 697.9998,-930.364 698.2012,-962.7645 700.0989,-962.5193 714.7943,-961.0283 722.6722,-960.6694 723.5931,-917.1179 723.5931,-917.1179 722.6722,-960.6694 714.7943,-961.0283 700.0989,-962.5193 698.2012,-962.7645 689.848,-964.3105 671.4887,-968.7408 637.61,-978.7874 636.3524,-984.7493 628.2328,-1029.0559 624.4881,-1053.4447 622.8421,-1066.8 598.25,-1183.3882 622.2333,-1204.4673 735.175,-1221.5945 735.4095,-1221.6343 748.2262,-1224.2805 763.3593,-1227.9584 760.4972,-1124.4705 761.8447,-1071.1426 766.5866,-1068.3635 768.1157,-1066.5239 767.2132,-1065.5038 761.5711,-1062.2402 756.8544,-1062.2402 756.8544,-1062.2402 761.5711,-1062.2402 767.2132,-1065.5038 768.1157,-1066.5239 766.5866,-1068.3635 768.6908,-1116.3076 772.8116,-1066.6182 772.4838,-1066.5239 767.7645,-964.9212 779.4915,-971.4436 794.0049,-978.4105 853.8335,-1004.7655 857.9486,-1006.8887 866.9943,-1011.9051 875.7975,-1017.1194 875.527,-953.2792 872.0638,-913.0554 868.6697,-913.0554 862.8958,-854.2188 863.2052,-780.6863 863.1989,-780.6859 857.7955,-780.6547 853.6285,-652.0853 848.8308,-653.4446 842.8422,-651.6638 839.1156,-648.4382 838.472,-648.6317 838.472,-648.6317 839.1156,-648.4382 842.8422,-651.6638 848.8308,-653.4446 853.6285,-652.0853 857.5551,-648.6855 853.77,-645.2402 848.5842,-643.674 848.5842,-643.674 853.77,-645.2402 857.5551,-648.6855 853.6285,-652.0853 857.7955,-780.6547 863.1989,-780.6859 863.2052,-780.6863 862.8958,-854.2188 868.6697,-913.0554 872.0638,-913.0554 875.527,-953.2792 875.7975,-1017.1194 886.535,-1024.2837 882.7096,-913.2779 886.6993,-913.2779 888.7991,-910.8145 884.7765,-871.6329 883.8861,-835.0967 884.5704,-780.8027 886.2524,-780.7149 886.2524,-780.7149 884.5704,-780.8027 883.8861,-835.0967 884.7765,-871.6329 888.7991,-910.8145 886.6993,-913.2779 886.8976,-913.4955 893.2457,-917.2789 898.3153,-917.2789 904.2924,-913.7659 905.0085,-912.9774 903.501,-911.3184 898.5287,-908.553 898.5287,-908.553 903.501,-911.3184 905.0085,-912.9774 904.2924,-913.7659 898.3153,-917.2789 893.2457,-917.2789 892.7498,-954.1169 895.8406,-1001.4459 895.8817,-1030.8623 912.2903,-1044.87 911.6095,-981.1014 911.6095,-981.1014 912.2903,-1044.87 895.8817,-1030.8623 895.8406,-1001.4459 892.7498,-954.1169 893.2457,-917.2789 886.8976,-913.4955 886.6993,-913.2779 882.7096,-913.2779 886.535,-1024.2837 875.7975,-1017.1194 866.9943,-1011.9051 857.9486,-1006.8887 853.8335,-1004.7655 794.0049,-978.4105 779.4915,-971.4436 767.7645,-964.9212 772.4838,-1066.5239 772.8116,-1066.6182 768.6908,-1116.3076 766.5866,-1068.3635 761.8447,-1071.1426 760.4972,-1124.4705 763.3593,-1227.9584 766.494,-1228.8337 769.2966,-1229.7194 777.689,-1067.1183 781.1774,-1067.1183 781.1774,-1067.1183 777.689,-1067.1183 769.2966,-1229.7194 769.9843,-1229.9495 789.2081,-1229.5743 815.6722,-1229.9476 936.6722,-1169.1202 951.558,-1155.8116 970.6068,-1101.986 1011.6151,-1074.08 1014.8612,-931.5233 1014.5399,-913.7715 1014.6906,-911.4062 1014.9702,-908.7402 1017.8051,-784.2424 1012.4128,-776.8886 1001.1519,-762.1934 1014.6813,-719.4901 1028.1635,-669.5861 1019.7003,-660.0922 1008.9045,-648.46 922.4321,-540.0994 922.4037,-540.0678 908.4894,-475.3217 906.1581,-465.6799 898.9373,-462.8293 854.1671,-448.3869 814.7791,-448.8924 814.3306,-448.8877 810.6536,-448.9369 808.6142,-502.6481 806.2771,-530.88 799.6355,-570.0491 797.2372,-570.0491 792.0996,-535.5016 792.0996,-535.5016 797.2372,-570.0491 799.6355,-570.0491 806.2771,-530.88 808.6142,-502.6481 810.6536,-448.9369 814.3306,-448.8877 814.7791,-448.8924 854.1671,-448.3869 854.2898,-345.6902 853.2388,-332.6464 853.8264,-325.6372 853.8367,-317.2274 854.3091,-311.5127 854.4075,-229.2365 832.6716,-208.5621 822.3589,-207.9367 813.4429,-208.0561 812.2095,-270.577 807.9583,-326.7019 807.0487,-327.4325 804.0747,-327.4325 804.0747,-327.4325 807.0487,-327.4325 807.9583,-326.7019 812.2095,-270.577 813.4429,-208.0561 804.4763,-207.7396 799.588,-207.9293 797.8401,-207.912 787.6298,-208.0635 787.4954,-208.0589 781.4612,-323.073 786.7811,-323.073 793.3739,-327.2221 793.6964,-327.6021 793.407,-327.9379 793.407,-327.9379 793.6964,-327.6021 793.3739,-327.2221 786.7811,-323.073 781.4612,-323.073 787.4954,-208.0589 787.6298,-208.0635 797.8401,-207.912 799.588,-207.9293 804.4763,-207.7396 813.4429,-208.0561 822.3589,-207.9367 832.6716,-208.5621 854.4075,-229.2365 891.2418,-243.1615 896.834,-245.0502 907.3523,-248.177 910.2626,-248.9218 915.5314,-250.0543 922.7209,-251.3052 928.0123,-252.008 935.7622,-252.719 941.6637,-252.7764 945.5359,-252.6554 946.9169,-252.7223 953.4767,-252.7709 957.5357,-252.9633 960.2047,-252.9799 964.9191,-252.8159 981.9752,-254.2626 994.774,-256.8745 994.5186,-233.632 990.8075,-178.3142 986.9939,-178.3142 986.2421,-178.0867 984.3559,-178.0867 980.6269,-174.6772 975.8837,-173.2799 974.0452,-133.3811 976.8388,-29.6993 965.2269,-45.4098 960.8595,-50.823 948.9388,-66.4235 946.1494,-69.8869 946.6055,-127.7603 946.6055,-127.7603 946.1494,-69.8869 948.9388,-66.4235 960.8595,-50.823 965.2269,-45.4098 976.8388,-29.6993 974.0452,-133.3811 975.8837,-173.2799 980.6269,-174.6772 984.3559,-178.0867 986.2421,-178.0867 986.9939,-178.3142 990.8075,-178.3142 994.5186,-233.632 994.774,-256.8745 1001.5509,-258.7953 1001.5509,-258.7953"/>
<polygon fill="#bbd7d9" stroke="#bbd7d9" points="51.2975,-109.2432 50.9593,-220.5244 50.9593,-220.5244 51.2975,-109.2432 -35.8226,-123.3294 -78.0792,-156.2916 -89.0066,-262.3884 -90.0065,-269.1321 -103.3012,-346.894 25.5603,-429.0094 41.0521,-431.415 52.6033,-433.4101 74.603,-437.975 90.6749,-442.4193 104.9833,-478.6072 124.1762,-530.1434 151.1029,-607.8222 147.7604,-617.0366 144.0318,-641.0641 144.3091,-660.4864 144.0109,-702.1226 143.3074,-726.686 139.421,-804.5051 139.5153,-804.8864 233.5957,-887.6852 286.4441,-836.696 288.7999,-757.2166 293.7796,-696.7645 292.4678,-696.353 292.4315,-696.3154 291.9117,-696.0323 287.5553,-691.0803 288.6159,-606.0922 273.3231,-593.214 270.3627,-591.0273 280.1642,-579.8138 294.4767,-566.0998 293.2063,-525.4897 294.94,-489.0492 300.196,-487.5353 303.7762,-484.5447 299.4322,-480.7201 295.1758,-479.5262 295.1758,-479.5262 299.4322,-480.7201 303.7762,-484.5447 300.196,-487.5353 294.94,-489.0492 293.2063,-525.4897 294.4767,-566.0998 280.1642,-579.8138 270.3627,-591.0273 273.3231,-593.214 338.1763,-585.8758 374.1503,-578.1031 370.7225,-574.3237 303.5892,-559.1313 316.6919,-548.7988 315.4276,-531.6772 315.4276,-531.6772 316.6919,-548.7988 303.5892,-559.1313 370.7225,-574.3237 374.1503,-578.1031 338.1763,-585.8758 370.7266,-585.5425 376.4641,-580.462 376.9567,-579.636 380.1342,-579.636 380.2009,-579.6558 387.2047,-638.4641 386.4688,-582.6553 391.8141,-584.2889 397.3228,-582.6039 400.8222,-579.4685 397.5308,-576.5858 397.5308,-576.5858 400.8222,-579.4685 402.5576,-579.4685 402.8044,-579.541 406.8073,-579.541 407.5812,-578.2065 412.8741,-573.5888 440.4331,-573.3978 514.8023,-563.5978 535.9879,-588.6912 544.6898,-588.9254 553.2203,-589.34 554.9952,-589.3448 562.0236,-589.2028 562.4811,-508.3176 563.0437,-500.6599 563.0437,-500.6599 562.4811,-508.3176 562.0236,-589.2028 554.9952,-589.3448 553.2203,-589.34 544.6898,-588.9254 535.9879,-588.6912 514.8023,-563.5978 440.4331,-573.3978 412.8741,-573.5888 407.5812,-578.2065 406.8073,-579.541 402.8044,-579.541 402.5576,-579.4685 400.8222,-579.4685 397.3228,-582.6039 391.8141,-584.2889 386.4688,-582.6553 387.2047,-638.4641 380.2009,-579.6558 380.1342,-579.636 376.9567,-579.636 376.4641,-580.462 370.7266,-585.5425 338.1763,-585.8758 273.3231,-593.214 288.6159,-606.0922 287.5553,-691.0803 291.9117,-696.0323 292.4315,-696.3154 292.4678,-696.353 293.7796,-696.7645 288.7999,-757.2166 286.4441,-836.696 289.5156,-833.97 297.4335,-825.8821 306.0503,-817.4714 310.0652,-813.7397 322.9831,-802.8957 320.254,-701.4727 325.8756,-699.829 329.5823,-696.5917 325.9835,-693.2927 320.4056,-691.5604 320.4056,-691.5604 325.9835,-693.2927 329.5823,-696.5917 325.8756,-699.829 320.254,-701.4727 322.9831,-802.8957 325.1176,-801.2039 336.7353,-792.5245 339.6656,-790.4754 340.7202,-789.7872 358.5586,-779.7275 417.3554,-749.3655 422.4052,-753.0139 430.7006,-758.1374 438.2745,-762.4163 445.3987,-765.6921 452.4279,-768.5564 456.1697,-769.8827 465.9232,-772.8278 472.5954,-774.1355 485.2636,-775.2928 489.0342,-775.4377 491.6522,-775.4005 495.4277,-775.5536 505.0974,-776.4777 517.7129,-779.0714 518.0145,-779.1496 519.2294,-718.2176 524.2238,-721.2222 529.847,-721.2222 535.9745,-717.3426 536.3048,-716.943 535.5702,-716.0415 535.5702,-716.0415 536.3048,-716.943 535.9745,-717.3426 529.847,-721.2222 524.2238,-721.2222 519.2294,-718.2176 518.0145,-779.1496 528.0403,-782.3032 531.1119,-783.4338 541.4335,-788.3747 546.7885,-791.2298 547.4501,-771.1082 547.4501,-771.1082 546.7885,-791.2298 557.5939,-798.1989 565.8944,-804.0062 581.7262,-815.9235 582.6718,-816.5413 665.254,-743.7114 666.6003,-742.4584 684.9889,-726.3378 689.6891,-722.023 694.6832,-716.7903 691.7637,-705.4673 687.9489,-702.0175 687.0598,-701.1304 565.4102,-589.7765 564.9481,-589.3336 577.2684,-576.5102 575.951,-497.5667 578.4144,-466.136 582.8624,-466.136 588.9388,-462.6253 589.7001,-461.7836 587.741,-459.4818 583.3179,-457.0047 583.3179,-457.0047 587.741,-459.4818 589.7001,-461.7836 588.9388,-462.6253 582.8624,-466.136 578.4144,-466.136 575.951,-497.5667 577.2684,-576.5102 579.8387,-574.0822 585.5756,-567.9947 591.2789,-562.548 596.7429,-556.9772 603.8776,-550.5183 611.2774,-544.2394 679.6086,-490.2307 693.7739,-478.1545 703.3591,-468.8705 706.071,-466.0894 711.3792,-461.2946 720.2806,-451.8766 725.0686,-447.0826 639.5162,-343.2513 630.785,-333.2129 633.6614,-326.0808 638.5123,-313.1115 638.7644,-312.3792 640.7792,-310.3839 641.2965,-309.9172 645.6209,-306.1943 659.4805,-294.8344 666.0786,-289.9991 675.8963,-283.2266 758.7782,-229.7484 760.7017,-228.3358 770.2936,-220.8419 775.9084,-216.2006 785.3868,-207.9362 781.0864,-202.9991 769.3522,-190.21 692.2074,-88.129 670.9198,-64.9275 658.2722,-49.8469 644.9609,-31.9217 632.9437,-14.5064 626.8446,-5.0515 622.2769,2.509 625.2673,18.6717 626.74,25.9712 602.92,54.463 523.4266,116.2526 481.3327,126.6223 439.5103,133.2408 421.9771,136.6917 417.1896,137.8172 399.8514,142.2267 380.3398,148.3001 336.5631,149.0068 297.193,122.9228 208.7189,23.657 198.0196,12.0335 194.5606,-19.8806 190.2309,-54.928 195.1632,-60.3666 398.6841,-23.4709 404.2344,-88.6122 404.2843,-17.9337 408.7531,-17.9337 409.6614,-19.0624 415.0106,-22.3665 415.0106,-22.3665 409.6614,-19.0624 408.7531,-17.9337 404.2843,-17.9337 404.2344,-88.6122 398.6841,-23.4709 195.1632,-60.3666 190.2309,-54.928 136.3867,-80.9169 134.4657,-144.9227 133.7999,-259.7685 269.8674,-217.4967 246.5406,-284.5882 229.8506,-342.7 305.5597,-342.7 348.1646,-349.0111 353.2069,-345.3323 354.4818,-343.2194 355.4672,-342.4553 358.4007,-342.4553 358.4368,-342.4448 363.7146,-342.4448 364.0928,-385.0639 370.2437,-343.0523 370.313,-343.0523 374.9963,-338.8219 378.8279,-337.7689 384.7852,-339.5319 383.3537,-302.8849 385.5784,-253.8179 385.631,-249.7021 380.6262,-244.2865 458.1362,-241.8107 472.2627,-244.8828 477.4253,-241.2395 480.4048,-293.2752 483.7082,-238.5941 488.4283,-238.5941 489.4554,-284.9488 495.1099,-238.8762 498.4859,-238.8762 500.6442,-236.1368 504.1426,-234.1373 504.1426,-234.1373 500.6442,-236.1368 498.4859,-238.8762 499.417,-239.951 504.5734,-242.9399 504.5734,-242.9399 499.417,-239.951 498.4859,-238.8762 495.1099,-238.8762 489.4554,-284.9488 488.4283,-238.5941 483.7082,-238.5941 480.4048,-293.2752 477.4253,-241.2395 472.2627,-244.8828 458.1362,-241.8107 380.6262,-244.2865 385.631,-249.7021 385.5784,-253.8179 383.3537,-302.8849 384.7852,-339.5319 378.8279,-337.7689 374.9963,-338.8219 370.313,-343.0523 370.2437,-343.0523 364.0928,-385.0639 363.7146,-342.4448 358.4368,-342.4448 358.4007,-342.4553 355.4672,-342.4553 354.4818,-343.2194 353.2069,-345.3323 348.1646,-349.0111 305.5597,-342.7 229.8506,-342.7 246.5406,-284.5882 269.8674,-217.4967 133.7999,-259.7685 134.4657,-144.9227 136.3867,-80.9169 127.4983,-84.876 110.9833,-91.9232 104.0741,-94.7386 94.6129,-98.2317 80.7811,-102.2961 72.7445,-104.3557 69.4014,-264.3074 69.5759,-264.3597 74.2644,-264.3597 75.351,-264.6932 80.6188,-264.6932 80.7606,-264.7356 81.8486,-264.7356 85.1133,-261.8188 85.1133,-261.8188 81.8486,-264.7356 85.2637,-267.7232 85.2637,-267.7232 81.8486,-264.7356 80.7606,-264.7356 80.6188,-264.6932 75.351,-264.6932 74.2644,-264.3597 69.5759,-264.3597 69.4014,-264.3074 72.7445,-104.3557 56.7052,-108.1647 51.2975,-109.2432 51.2975,-109.2432"/>
<polygon fill="#fed9a6" stroke="#fed9a6" points="1868.9299,-507.1981 1866.7823,-516.8801 1864.5131,-529.4197 1837.949,-579.8395 1759.7942,-666.8064 1708.8552,-658.2781 1708.0187,-658.169 1688.9664,-656.0336 1669.2325,-655.282 1669.6499,-556.7084 1675.5939,-511.0895 1679.5884,-508.9101 1681.6414,-506.5709 1681.2372,-506.1231 1675.0453,-502.4243 1669.8202,-502.4243 1669.8202,-502.4243 1675.0453,-502.4243 1681.2372,-506.1231 1681.6414,-506.5709 1679.5884,-508.9101 1675.5939,-511.0895 1669.6499,-556.7084 1669.2325,-655.282 1654.6648,-655.5363 1659.8245,-506.9138 1658.9401,-506.6627 1655.1923,-506.6627 1654.5079,-506.4668 1649.624,-506.4668 1643.2233,-374.1929 1643.1323,-360.4557 1631.4185,-364.8218 1544.2595,-395.3958 1541.7917,-396.3161 1521.714,-404.7058 1510.2711,-410.2429 1504.2197,-413.5762 1482.8574,-425.8285 1482.7439,-425.8986 1454.8345,-445.0108 1439.1781,-456.0643 1437.6646,-475.2229 1255.7827,-473.1835 1240.4393,-469.5933 1235.844,-472.4488 1232.2214,-437.8404 1231.483,-394.2881 1226.4551,-394.1716 1225.8979,-346.3742 1221.9005,-312.1843 1218.5797,-312.1843 1212.3462,-253.652 1211.1035,-230.1234 1206.5754,-310.5675 1201.6968,-307.6192 1201.6968,-307.6192 1206.5754,-310.5675 1211.1035,-230.1234 1212.3462,-253.652 1218.5797,-312.1843 1221.9005,-312.1843 1225.8979,-346.3742 1226.4551,-394.1716 1231.483,-394.2881 1232.2214,-437.8404 1235.844,-472.4488 1240.4393,-469.5933 1255.7827,-473.1835 1437.6646,-475.2229 1439.1781,-456.0643 1454.8345,-445.0108 1482.7439,-425.8986 1482.8574,-425.8285 1504.2197,-413.5762 1510.2711,-410.2429 1521.714,-404.7058 1541.7917,-396.3161 1544.2595,-395.3958 1631.4185,-364.8218 1643.1323,-360.4557 1643.2233,-374.1929 1649.624,-506.4668 1654.5079,-506.4668 1655.1923,-506.6627 1658.9401,-506.6627 1659.8245,-506.9138 1654.6648,-655.5363 1651.7979,-655.6393 1629.5083,-657.6796 1575.2485,-664.6434 1428.3877,-610.6503 1421.1674,-616.7528 1248.6631,-607.8592 1229.9889,-607.2904 1228.6233,-607.3066 1224.6974,-476.2334 1220.1528,-476.2334 1219.9335,-476.1703 1214.4274,-476.1703 1213.8813,-476.0135 1213.6486,-476.0135 1210.0134,-472.9637 1203.991,-471.1877 1199.2386,-472.5295 1195.297,-475.9041 1194.0746,-475.9041 1193.335,-475.6891 1189.2046,-475.6891 1185.5098,-393.9698 1185.3781,-393.9679 1185.1689,-393.9574 1185.7612,-312.2091 1185.7612,-312.2091 1185.1689,-393.9574 1185.3781,-393.9679 1185.5098,-393.9698 1189.2046,-475.6891 1193.335,-475.6891 1194.0746,-475.9041 1195.297,-475.9041 1199.2386,-472.5295 1203.991,-471.1877 1210.0134,-472.9637 1213.6486,-476.0135 1213.8813,-476.0135 1214.4274,-476.1703 1219.9335,-476.1703 1220.1528,-476.2334 1224.6974,-476.2334 1228.6233,-607.3066 1229.9889,-607.2904 1248.6631,-607.8592 1421.1674,-616.7528 1413.3118,-643.6774 1395.0913,-701.3056 1381.455,-747.3467 1377.012,-763.5293 1354.9424,-850.8958 1326.943,-889.3023 1296.6057,-875.8828 1228.6428,-844.0651 1217.4564,-839.5714 1207.542,-835.9233 1208.5582,-768.9133 1205.2169,-738.6877 1201.869,-738.6877 1200.6954,-737.2477 1194.9685,-733.7609 1190.4415,-733.7609 1190.4415,-733.7609 1194.9685,-733.7609 1200.6954,-737.2477 1201.869,-738.6877 1205.2169,-738.6877 1208.5582,-768.9133 1207.542,-835.9233 1217.4564,-839.5714 1228.6428,-844.0651 1296.6057,-875.8828 1152.6971,-911.2238 1159.3495,-827.5288 1167.0171,-827.7565 1167.0171,-827.7565 1159.3495,-827.5288 1152.6971,-911.2238 1296.6057,-875.8828 1326.943,-889.3023 1323.2505,-939.8253 1322.3015,-965.4469 1285.3361,-1055.9391 1255.5004,-1067.014 1221.842,-1068.6442 1153.121,-1061.4525 1150.957,-951.4203 1150.957,-951.4203 1153.121,-1061.4525 1138.3793,-1060.4723 1138.1316,-1019.6171 1138.1316,-1019.6171 1138.3793,-1060.4723 1116.0035,-1060.2676 1116.0654,-1051.4266 1116.316,-1046.188 1116.9744,-919.4699 1122.1414,-921.0211 1122.1414,-921.0211 1116.9744,-919.4699 1116.316,-1046.188 1116.0654,-1051.4266 1116.0035,-1060.2676 1102.3704,-1061.4456 1080.9891,-1064.1128 1011.6151,-1074.08 1014.8612,-931.5233 1014.5399,-913.7715 1014.6906,-911.4062 1014.9702,-908.7402 1017.8051,-784.2424 1012.4128,-776.8886 1001.1519,-762.1934 1014.6813,-719.4901 1028.1635,-669.5861 1040.5806,-661.9595 1043.3423,-660.4102 1050.7135,-656.4669 1068.5669,-647.8436 1070.2637,-647.0699 1070.4037,-633.4457 1069.325,-560.9489 1072.0101,-520.7769 1072.5474,-520.1443 1071.0007,-518.2794 1066.3384,-515.5769 1066.3384,-515.5769 1071.0007,-518.2794 1072.5474,-520.1443 1072.0101,-520.7769 1069.325,-560.9489 1070.4037,-633.4457 1070.2637,-647.0699 1068.5669,-647.8436 1050.7135,-656.4669 1043.3423,-660.4102 1040.5806,-661.9595 1028.1635,-669.5861 1019.7003,-660.0922 1008.9045,-648.46 922.4321,-540.0994 922.4037,-540.0678 908.4894,-475.3217 906.1581,-465.6799 898.9373,-462.8293 854.1671,-448.3869 854.2898,-345.6902 853.2388,-332.6464 853.8264,-325.6372 853.8367,-317.2274 854.3091,-311.5127 854.4075,-229.2365 891.2418,-243.1615 896.834,-245.0502 907.3523,-248.177 910.2626,-248.9218 915.5314,-250.0543 922.7209,-251.3052 928.0123,-252.008 935.7622,-252.719 941.6637,-252.7764 945.5359,-252.6554 946.9169,-252.7223 953.4767,-252.7709 957.5357,-252.9633 960.2047,-252.9799 964.9191,-252.8159 981.9752,-254.2626 994.774,-256.8745 1001.5509,-258.7953 1008.0104,-260.8834 1059.4098,-279.534 1121.3865,-198.2611 1147.1505,-166.2997 1154.1246,-158.3831 1159.3129,-152.2704 1175.5417,-156.6906 1178.6445,-157.4753 1196.4059,-160.9429 1203.6323,-162.2134 1210.0009,-163.0867 1219.485,-163.8405 1230.382,-164.4969 1236.6777,-164.7549 1322.2994,-166.6124 1326.834,-161.9659 1428.5482,-116.0257 1460.0613,-106.1589 1475.3629,-101.0438 1476.7419,-100.5543 1489.5864,-95.4548 1496.6221,-92.3673 1510.6296,-85.9262 1509.9655,-143.6751 1503.2693,-247.6514 1498.4109,-250.3376 1496.7673,-252.1665 1494.2997,-252.1665 1494.125,-252.1156 1490.3127,-219.3763 1486.9011,-251.955 1483.0618,-251.955 1483.0618,-251.955 1486.9011,-251.955 1490.3127,-219.3763 1494.125,-252.1156 1494.2997,-252.1665 1496.7673,-252.1665 1498.0208,-253.5803 1503.3048,-256.627 1508.691,-256.627 1508.691,-256.627 1503.3048,-256.627 1498.0208,-253.5803 1496.7673,-252.1665 1498.4109,-250.3376 1503.2693,-247.6514 1509.9655,-143.6751 1510.6296,-85.9262 1519.7714,-81.1537 1520.2712,-80.8824 1535.1364,-72.4976 1535.4539,-72.2986 1545.1516,-72.6174 1558.7203,-83.7796 1675.8252,-176.9216 1692.0437,-237.661 1705.0554,-279.3169 1704.8688,-283.438 1703.6936,-328.4893 1704.6399,-329.17 1800.4452,-391.6345 1856.2518,-474.9045 1861.2277,-486.8616 1869.2789,-505.1502 1868.9299,-507.1981 1868.9299,-507.1981"/>
<polygon fill="#fbb4ae" stroke="#fbb4ae" points="430.6608,-833.7064 427.9579,-833.7064 427.9579,-833.7064 430.6608,-833.7064 430.7006,-758.1374 422.4052,-753.0139 417.3554,-749.3655 358.5586,-779.7275 340.7202,-789.7872 339.6656,-790.4754 336.7353,-792.5245 325.1176,-801.2039 322.9831,-802.8957 310.0652,-813.7397 306.0503,-817.4714 297.4335,-825.8821 289.5156,-833.97 286.4441,-836.696 233.5957,-887.6852 249.0915,-934.4526 276.6555,-972.4255 281.2914,-1004.0277 285.0669,-1033.0963 286.8238,-1051.4412 322.3848,-1149.1688 468.6765,-1178.4834 478.2366,-1180.7703 479.4366,-1180.6311 494.3086,-1179.7277 499.8685,-1179.4926 509.8076,-1179.4388 520.7884,-1179.5822 523.9614,-1179.682 598.25,-1183.3882 622.8421,-1066.8 624.4881,-1053.4447 628.2328,-1029.0559 636.3524,-984.7493 637.61,-978.7874 573.4372,-916.2009 578.7378,-869.0649 579.4081,-864.5193 581.8679,-833.9297 582.6718,-816.5413 581.7262,-815.9235 565.8944,-804.0062 557.5939,-798.1989 546.7885,-791.2298 541.4335,-788.3747 531.1119,-783.4338 528.0403,-782.3032 518.0145,-779.1496 517.7129,-779.0714 505.0974,-776.4777 495.4277,-775.5536 491.6522,-775.4005 489.0342,-775.4377 485.2636,-775.2928 472.5954,-774.1355 465.9232,-772.8278 456.1697,-769.8827 452.4279,-768.5564 445.3987,-765.6921 438.2745,-762.4163 430.7006,-758.1374 430.6608,-833.7064 431.7313,-834.0236 435.0265,-834.0236 435.7599,-834.2394 440.8284,-834.2394 441.996,-833.8914 445.0171,-833.8914 446.3176,-835.4087 451.4648,-838.4089 451.4648,-838.4089 446.3176,-835.4087 445.0171,-833.8914 441.996,-833.8914 440.8284,-834.2394 435.7599,-834.2394 435.0265,-834.0236 431.7313,-834.0236 430.6608,-833.7064 430.6608,-833.7064"/>
<polyline fill="none" stroke="#000000" points="639.5162,-343.2513 630.785,-333.2129 633.6614,-326.0808 638.5123,-313.1115 638.7644,-312.3792 640.7792,-310.3839 641.2965,-309.9172 645.6209,-306.1943 659.4805,-294.8344 666.0786,-289.9991 675.8963,-283.2266 758.7782,-229.7484 760.7017,-228.3358 770.2936,-220.8419 775.9084,-216.2006 785.3868,-207.9362 781.0864,-202.9991 769.3522,-190.21 692.2074,-88.129 670.9198,-64.9275 658.2722,-49.8469 644.9609,-31.9217 632.9437,-14.5064 626.8446,-5.0515 622.2769,2.509 625.2673,18.6717 626.74,25.9712 772.9025,73.3178 785.6346,73.3193 804.4931,73.9971 806.3373,74.0964 814.5093,74.8294 821.4058,73.5713 822.0676,73.4628 831.6899,72.0612 832.7506,71.9262 851.2756,70.2461 853.0533,70.1176 969.2175,1.7398 985.4387,-16.8511 998.4775,-20.186 1011.383,-23.0076 1047.079,-30.1444 1095.3459,-47.8311 1159.3129,-152.2704 1154.1246,-158.3831 1147.1505,-166.2997 1121.3865,-198.2611 1059.4098,-279.534 1008.0104,-260.8834 1001.5509,-258.7953 994.774,-256.8745 981.9752,-254.2626 964.9191,-252.8159 960.2047,-252.9799 957.5357,-252.9633 953.4767,-252.7709 946.9169,-252.7223 945.5359,-252.6554 941.6637,-252.7764 935.7622,-252.719 928.0123,-252.008 922.7209,-251.3052 915.5314,-250.0543 910.2626,-248.9218 907.3523,-248.177 896.834,-245.0502 891.2418,-243.1615 854.4075,-229.2365 854.3091,-311.5127 853.8367,-317.2274 853.8264,-325.6372 853.2388,-332.6464 854.2898,-345.6902 854.1671,-448.3869 898.9373,-462.8293 906.1581,-465.6799 908.4894,-475.3217 922.4037,-540.0678 922.4321,-540.0994 1008.9045,-648.46 1019.7003,-660.0922 1028.1635,-669.5861 1014.6813,-719.4901 1001.1519,-762.1934 1012.4128,-776.8886 1017.8051,-784.2424 1014.9702,-908.7402 1014.6906,-911.4062 1014.5399,-913.7715 1014.8612,-931.5233 1011.6151,-1074.08 970.6068,-1101.986 951.558,-1155.8116 936.6722,-1169.1202 815.6722,-1229.9476 789.2081,-1229.5743 769.9843,-1229.9495 769.2966,-1229.7194 766.494,-1228.8337 763.3593,-1227.9584 748.2262,-1224.2805 735.4095,-1221.6343 735.175,-1221.5945 622.2333,-1204.4673 598.25,-1183.3882 622.8421,-1066.8 624.4881,-1053.4447 628.2328,-1029.0559 636.3524,-984.7493 637.61,-978.7874 573.4372,-916.2009 578.7378,-869.0649 579.4081,-864.5193 581.8679,-833.9297 582.6718,-816.5413 665.254,-743.7114 666.6003,-742.4584 684.9889,-726.3378 689.6891,-722.023 694.6832,-716.7903 691.7637,-705.4673 687.9489,-702.0175 687.0598,-701.1304 565.4102,-589.7765 564.9481,-589.3336 577.2684,-576.5102 579.8387,-574.0822 585.5756,-567.9947 591.2789,-562.548 596.7429,-556.9772 603.8776,-550.5183 611.2774,-544.2394 679.6086,-490.2307 693.7739,-478.1545 703.3591,-468.8705 706.071,-466.0894 711.3792,-461.2946 720.2806,-451.8766 725.0686,-447.0826 639.5162,-343.2513 "/>
<polyline fill="none" stroke="#000000" points="640.7792,-310.3839 641.2965,-309.9172 645.6209,-306.1943 659.4805,-294.8344 666.0786,-289.9991 675.8963,-283.2266 758.7782,-229.7484 760.7017,-228.3358 770.2936,-220.8419 775.9084,-216.2006 785.3868,-207.9362 781.0864,-202.9991 769.3522,-190.21 692.2074,-88.129 670.9198,-64.9275 658.2722,-49.8469 644.9609,-31.9217 632.9437,-14.5064 626.8446,-5.0515 622.2769,2.509 625.2673,18.6717 626.74,25.9712 602.92,54.463 523.4266,116.2526 481.3327,126.6223 439.5103,133.2408 421.9771,136.6917 417.1896,137.8172 399.8514,142.2267 380.3398,148.3001 336.5631,149.0068 297.193,122.9228 208.7189,23.657 198.0196,12.0335 194.5606,-19.8806 190.2309,-54.928 136.3867,-80.9169 127.4983,-84.876 110.9833,-91.9232 104.0741,-94.7386 94.6129,-98.2317 80.7811,-102.2961 72.7445,-104.3557 56.7052,-108.1647 51.2975,-109.2432 -35.8226,-123.3294 -78.0792,-156.2916 -89.0066,-262.3884 -90.0065,-269.1321 -103.3012,-346.894 25.5603,-429.0094 41.0521,-431.415 52.6033,-433.4101 74.603,-437.975 90.6749,-442.4193 104.9833,-478.6072 124.1762,-530.1434 151.1029,-607.8222 147.7604,-617.0366 144.0318,-641.0641 144.3091,-660.4864 144.0109,-702.1226 143.3074,-726.686 139.421,-804.5051 139.5153,-804.8864 233.5957,-887.6852 286.4441,-836.696 289.5156,-833.97 297.4335,-825.8821 306.0503,-817.4714 310.0652,-813.7397 322.9831,-802.8957 325.1176,-801.2039 336.7353,-792.5245 339.6656,-790.4754 340.7202,-789.7872 358.5586,-779.7275 417.3554,-749.3655 422.4052,-753.0139 430.7006,-758.1374 438.2745,-762.4163 445.3987,-765.6921 452.4279,-768.5564 456.1697,-769.8827 465.9232,-772.8278 472.5954,-774.1355 485.2636,-775.2928 489.0342,-775.4377 491.6522,-775.4005 495.4277,-775.5536 505.0974,-776.4777 517.7129,-779.0714 518.0145,-779.1496 528.0403,-782.3032 531.1119,-783.4338 541.4335,-788.3747 546.7885,-791.2298 557.5939,-798.1989 565.8944,-804.0062 581.7262,-815.9235 582.6718,-816.5413 665.254,-743.7114 666.6003,-742.4584 684.9889,-726.3378 689.6891,-722.023 694.6832,-716.7903 691.7637,-705.4673 687.9489,-702.0175 687.0598,-701.1304 565.4102,-589.7765 564.9481,-589.3336 577.2684,-576.5102 579.8387,-574.0822 585.5756,-567.9947 591.2789,-562.548 596.7429,-556.9772 603.8776,-550.5183 611.2774,-544.2394 679.6086,-490.2307 693.7739,-478.1545 703.3591,-468.8705 706.071,-466.0894 711.3792,-461.2946 720.2806,-451.8766 725.0686,-447.0826 639.5162,-343.2513 630.785,-333.2129 633.6614,-326.0808 638.5123,-313.1115 638.7644,-312.3792 640.7792,-310.3839 "/>
<polyline fill="none" stroke="#000000" points="935.7622,-252.719 941.6637,-252.7764 945.5359,-252.6554 946.9169,-252.7223 953.4767,-252.7709 957.5357,-252.9633 960.2047,-252.9799 964.9191,-252.8159 981.9752,-254.2626 994.774,-256.8745 1001.5509,-258.7953 1008.0104,-260.8834 1059.4098,-279.534 1121.3865,-198.2611 1147.1505,-166.2997 1154.1246,-158.3831 1159.3129,-152.2704 1175.5417,-156.6906 1178.6445,-157.4753 1196.4059,-160.9429 1203.6323,-162.2134 1210.0009,-163.0867 1219.485,-163.8405 1230.382,-164.4969 1236.6777,-164.7549 1322.2994,-166.6124 1326.834,-161.9659 1428.5482,-116.0257 1460.0613,-106.1589 1475.3629,-101.0438 1476.7419,-100.5543 1489.5864,-95.4548 1496.6221,-92.3673 1510.6296,-85.9262 1519.7714,-81.1537 1520.2712,-80.8824 1535.1364,-72.4976 1535.4539,-72.2986 1545.1516,-72.6174 1558.7203,-83.7796 1675.8252,-176.9216 1692.0437,-237.661 1705.0554,-279.3169 1704.8688,-283.438 1703.6936,-328.4893 1704.6399,-329.17 1800.4452,-391.6345 1856.2518,-474.9045 1861.2277,-486.8616 1869.2789,-505.1502 1868.9299,-507.1981 1866.7823,-516.8801 1864.5131,-529.4197 1837.949,-579.8395 1759.7942,-666.8064 1708.8552,-658.2781 1708.0187,-658.169 1688.9664,-656.0336 1669.2325,-655.282 1654.6648,-655.5363 1651.7979,-655.6393 1629.5083,-657.6796 1575.2485,-664.6434 1428.3877,-610.6503 1421.1674,-616.7528 1413.3118,-643.6774 1395.0913,-701.3056 1381.455,-747.3467 1377.012,-763.5293 1354.9424,-850.8958 1326.943,-889.3023 1323.2505,-939.8253 1322.3015,-965.4469 1285.3361,-1055.9391 1255.5004,-1067.014 1221.842,-1068.6442 1153.121,-1061.4525 1138.3793,-1060.4723 1116.0035,-1060.2676 1102.3704,-1061.4456 1080.9891,-1064.1128 1011.6151,-1074.08 1014.8612,-931.5233 1014.5399,-913.7715 1014.6906,-911.4062 1014.9702,-908.7402 1017.8051,-784.2424 1012.4128,-776.8886 1001.1519,-762.1934 1014.6813,-719.4901 1028.1635,-669.5861 1019.7003,-660.0922 1008.9045,-648.46 922.4321,-540.0994 922.4037,-540.0678 908.4894,-475.3217 906.1581,-465.6799 898.9373,-462.8293 854.1671,-448.3869 854.2898,-345.6902 853.2388,-332.6464 853.8264,-325.6372 853.8367,-317.2274 854.3091,-311.5127 854.4075,-229.2365 891.2418,-243.1615 896.834,-245.0502 907.3523,-248.177 910.2626,-248.9218 915.5314,-250.0543 922.7209,-251.3052 928.0123,-252.008 935.7622,-252.719 "/>
<polyline fill="none" stroke="#000000" points="494.3086,-1179.7277 499.8685,-1179.4926 509.8076,-1179.4388 520.7884,-1179.5822 523.9614,-1179.682 598.25,-1183.3882 622.8421,-1066.8 624.4881,-1053.4447 628.2328,-1029.0559 636.3524,-984.7493 637.61,-978.7874 573.4372,-916.2009 578.7378,-869.0649 579.4081,-864.5193 581.8679,-833.9297 582.6718,-816.5413 581.7262,-815.9235 565.8944,-804.0062 557.5939,-798.1989 546.7885,-791.2298 541.4335,-788.3747 531.1119,-783.4338 528.0403,-782.3032 518.0145,-779.1496 517.7129,-779.0714 505.0974,-776.4777 495.4277,-775.5536 491.6522,-775.4005 489.0342,-775.4377 485.2636,-775.2928 472.5954,-774.1355 465.9232,-772.8278 456.1697,-769.8827 452.4279,-768.5564 445.3987,-765.6921 438.2745,-762.4163 430.7006,-758.1374 422.4052,-753.0139 417.3554,-749.3655 358.5586,-779.7275 340.7202,-789.7872 339.6656,-790.4754 336.7353,-792.5245 325.1176,-801.2039 322.9831,-802.8957 310.0652,-813.7397 306.0503,-817.4714 297.4335,-825.8821 289.5156,-833.97 286.4441,-836.696 233.5957,-887.6852 249.0915,-934.4526 276.6555,-972.4255 281.2914,-1004.0277 285.0669,-1033.0963 286.8238,-1051.4412 322.3848,-1149.1688 468.6765,-1178.4834 478.2366,-1180.7703 479.4366,-1180.6311 494.3086,-1179.7277 "/>
<!-- device&#45;mapper&#45;libs&#45;&gt;Fedora Container Base -->
<g id="edge1" class="edge">
<title>device&#45;mapper&#45;libs&#45;&gt;Fedora Container Base</title>
<path fill="none" stroke="#444444" stroke-opacity="0.333333" d="M887.9637,-894.549C864.0514,-837.8001 791.4363,-665.4694 762.937,-597.8346"/>
<polygon fill="#444444" fill-opacity="0.333333" stroke="#444444" stroke-opacity="0.333333" points="766.0178,-596.1323 758.9094,-588.276 759.5671,-598.8504 766.0178,-596.1323"/>
</g>
<!-- device&#45;mapper&#45;libs&#45;&gt;device&#45;mapper -->
<g id="edge2" class="edge">
<title>device&#45;mapper&#45;libs&#45;&gt;device&#45;mapper</title>
<path fill="none" stroke="#444444" stroke-opacity="0.333333" d="M896.0961,-894.5811C891.9401,-849.0417 871.1044,-730.8655 857.9676,-676.5312"/>
<polygon fill="#444444" fill-opacity="0.333333" stroke="#444444" stroke-opacity="0.333333" points="861.2908,-675.3955 855.4501,-666.556 854.5036,-677.1085 861.2908,-675.3955"/>
</g>
<!-- device&#45;mapper&#45;&gt;Fedora Container Base -->
<g id="edge31" class="edge">
<title>device&#45;mapper&#45;&gt;Fedora Container Base</title>
<path fill="none" stroke="#444444" stroke-opacity="0.333333" d="M825.9361,-630.3019C812.7157,-619.6535 795.8431,-606.0635 781.484,-594.4979"/>
<polygon fill="#444444" fill-opacity="0.333333" stroke="#444444" stroke-opacity="0.333333" points="783.35,-591.5067 773.3666,-587.9597 778.959,-596.9583 783.35,-591.5067"/>
</g>
<!-- device&#45;mapper&#45;&gt;device&#45;mapper&#45;libs -->
<g id="edge32" class="edge">
<title>device&#45;mapper&#45;&gt;device&#45;mapper&#45;libs</title>
<path fill="none" stroke="#444444" stroke-opacity="0.333333" d="M848.1139,-666.8589C852.2699,-712.3983 873.1056,-830.5745 886.2424,-884.9088"/>
<polygon fill="#444444" fill-opacity="0.333333" stroke="#444444" stroke-opacity="0.333333" points="882.9192,-886.0445 888.7599,-894.884 889.7064,-884.3315 882.9192,-886.0445"/>
</g>
<!-- device&#45;mapper&#45;&gt;systemd -->
<g id="edge33" class="edge">
<title>device&#45;mapper&#45;&gt;systemd</title>
<path fill="none" stroke="#444444" stroke-opacity="0.333333" d="M822.3097,-630.1941C773.5784,-596.1813 668.9701,-523.1683 614.763,-485.3337"/>
<polygon fill="#444444" fill-opacity="0.333333" stroke="#444444" stroke-opacity="0.333333" points="616.7155,-482.4283 606.5122,-479.5748 612.7091,-488.1684 616.7155,-482.4283"/>
</g>
<!-- device&#45;mapper&#45;&gt;util&#45;linux -->
<g id="edge34" class="edge">
<title>device&#45;mapper&#45;&gt;util&#45;linux</title>
<path fill="none" stroke="#444444" stroke-opacity="0.333333" d="M844.8506,-630.2859C834.19,-576.9031 802.9131,-420.2843 790.0325,-355.7845"/>
<polygon fill="#444444" fill-opacity="0.333333" stroke="#444444" stroke-opacity="0.333333" points="793.4497,-355.0235 788.059,-345.9026 786.5852,-356.3944 793.4497,-355.0235"/>
</g>
<!-- libargon2&#45;&gt;Fedora Container Base -->
<g id="edge3" class="edge">
<title>libargon2&#45;&gt;Fedora Container Base</title>
<path fill="none" stroke="#444444" stroke-opacity="0.333333" d="M758.8606,-1048.5357C757.6734,-973.6197 753.1718,-689.552 751.7283,-598.4625"/>
<polygon fill="#444444" fill-opacity="0.333333" stroke="#444444" stroke-opacity="0.333333" points="755.226,-598.2809 751.5679,-588.3377 748.2269,-598.3919 755.226,-598.2809"/>
</g>
<!-- dbus&#45;broker&#45;&gt;Fedora Container Base -->
<g id="edge4" class="edge">
<title>dbus&#45;broker&#45;&gt;Fedora Container Base</title>
<path fill="none" stroke="#444444" stroke-opacity="0.333333" d="M644.2447,-208.2806C662.2884,-269.287 721.0424,-467.9357 742.9473,-541.9969"/>
<polygon fill="#444444" fill-opacity="0.333333" stroke="#444444" stroke-opacity="0.333333" points="739.71,-543.3921 745.9026,-551.9887 746.4225,-541.4067 739.71,-543.3921"/>
</g>
<!-- dbus&#45;broker&#45;&gt;dbus&#45;common -->
<g id="edge5" class="edge">
<title>dbus&#45;broker&#45;&gt;dbus&#45;common</title>
<path fill="none" stroke="#444444" stroke-opacity="0.333333" d="M589.6427,-208.31C581.9873,-211.1231 574.0144,-214.0528 566.1777,-216.9324"/>
<polygon fill="#444444" fill-opacity="0.333333" stroke="#444444" stroke-opacity="0.333333" points="564.8959,-213.6746 556.7168,-220.409 567.3103,-220.245 564.8959,-213.6746"/>
</g>
<!-- dbus&#45;broker&#45;&gt;shadow&#45;utils -->
<g id="edge6" class="edge">
<title>dbus&#45;broker&#45;&gt;shadow&#45;utils</title>
<path fill="none" stroke="#444444" stroke-opacity="0.333333" d="M676.855,-208.3153C729.0984,-233.2363 823.1236,-278.0881 879.8138,-305.1304"/>
<polygon fill="#444444" fill-opacity="0.333333" stroke="#444444" stroke-opacity="0.333333" points="878.3883,-308.3282 888.9209,-309.4746 881.4021,-302.0102 878.3883,-308.3282"/>
</g>
<!-- dbus&#45;broker&#45;&gt;systemd -->
<g id="edge7" class="edge">
<title>dbus&#45;broker&#45;&gt;systemd</title>
<path fill="none" stroke="#444444" stroke-opacity="0.333333" d="M634.9863,-208.432C625.0138,-254.863 598.5955,-377.8642 586.6481,-433.4902"/>
<polygon fill="#444444" fill-opacity="0.333333" stroke="#444444" stroke-opacity="0.333333" points="583.2047,-432.8553 584.5267,-443.3673 590.0487,-434.3253 583.2047,-432.8553"/>
</g>
<!-- dbus&#45;common&#45;&gt;Fedora Container Base -->
<g id="edge8" class="edge">
<title>dbus&#45;common&#45;&gt;Fedora Container Base</title>
<path fill="none" stroke="#444444" stroke-opacity="0.333333" d="M521.0673,-256.7572C561.8373,-312.2617 684.1814,-478.8216 731.9108,-543.8006"/>
<polygon fill="#444444" fill-opacity="0.333333" stroke="#444444" stroke-opacity="0.333333" points="729.1335,-545.9319 737.8743,-551.9194 734.7751,-541.7879 729.1335,-545.9319"/>
</g>
<!-- dbus&#45;common&#45;&gt;dbus&#45;common -->
<g id="edge9" class="edge">
<title>dbus&#45;common&#45;&gt;dbus&#45;common</title>
<path fill="none" stroke="#444444" stroke-opacity="0.333333" d="M585.1855,-244.4733C595.935,-243.4812 603.12,-241.4734 603.12,-238.45 603.12,-236.5131 600.1713,-234.9931 595.2257,-233.8898"/>
<polygon fill="#444444" fill-opacity="0.333333" stroke="#444444" stroke-opacity="0.333333" points="595.5857,-230.4054 585.1855,-232.4267 594.5762,-237.3323 595.5857,-230.4054"/>
</g>
<!-- dbus&#45;common&#45;&gt;systemd -->
<g id="edge10" class="edge">
<title>dbus&#45;common&#45;&gt;systemd</title>
<path fill="none" stroke="#444444" stroke-opacity="0.333333" d="M513.5947,-256.7039C526.3545,-295.6875 556.336,-387.2872 571.5022,-433.6226"/>
<polygon fill="#444444" fill-opacity="0.333333" stroke="#444444" stroke-opacity="0.333333" points="568.238,-434.9016 574.6751,-443.3167 574.8907,-432.724 568.238,-434.9016"/>
</g>
<!-- shadow&#45;utils&#45;&gt;Fedora Container Base -->
<g id="edge11" class="edge">
<title>shadow&#45;utils&#45;&gt;Fedora Container Base</title>
<path fill="none" stroke="#444444" stroke-opacity="0.333333" d="M913.7554,-345.8507C882.9668,-388.3586 806.3142,-494.1879 770.4066,-543.7632"/>
<polygon fill="#444444" fill-opacity="0.333333" stroke="#444444" stroke-opacity="0.333333" points="767.4296,-541.9067 764.3981,-552.0586 773.0987,-546.013 767.4296,-541.9067"/>
</g>
<!-- shadow&#45;utils&#45;&gt;shadow&#45;utils -->
<g id="edge12" class="edge">
<title>shadow&#45;utils&#45;&gt;shadow&#45;utils</title>
<path fill="none" stroke="#444444" stroke-opacity="0.333333" d="M997.7856,-333.7434C1008.329,-332.79 1015.46,-330.7489 1015.46,-327.62 1015.46,-325.6644 1012.6744,-324.1338 1008.0112,-323.028"/>
<polygon fill="#444444" fill-opacity="0.333333" stroke="#444444" stroke-opacity="0.333333" points="1008.1938,-319.5164 997.7856,-321.4966 1007.1569,-326.4392 1008.1938,-319.5164"/>
</g>
<!-- shadow&#45;utils&#45;&gt;libsemanage -->
<g id="edge13" class="edge">
<title>shadow&#45;utils&#45;&gt;libsemanage</title>
<path fill="none" stroke="#444444" stroke-opacity="0.333333" d="M939.8148,-345.7224C964.0261,-379.8175 1016.4861,-453.693 1044.7138,-493.4439"/>
<polygon fill="#444444" fill-opacity="0.333333" stroke="#444444" stroke-opacity="0.333333" points="1042.0363,-495.7186 1050.6799,-501.8455 1047.7437,-491.6657 1042.0363,-495.7186"/>
</g>
<!-- systemd&#45;&gt;Fedora Container Base -->
<g id="edge14" class="edge">
<title>systemd&#45;&gt;Fedora Container Base</title>
<path fill="none" stroke="#444444" stroke-opacity="0.333333" d="M609.193,-479.6972C638.2471,-498.1972 683.371,-526.9295 714.9508,-547.0377"/>
<polygon fill="#444444" fill-opacity="0.333333" stroke="#444444" stroke-opacity="0.333333" points="713.1591,-550.0461 723.4741,-552.4648 716.9188,-544.1415 713.1591,-550.0461"/>
</g>
<!-- systemd&#45;&gt;shadow&#45;utils -->
<g id="edge15" class="edge">
<title>systemd&#45;&gt;shadow&#45;utils</title>
<path fill="none" stroke="#444444" stroke-opacity="0.333333" d="M627.3376,-443.453C690.4266,-419.063 802.7558,-375.6369 870.503,-349.4461"/>
<polygon fill="#444444" fill-opacity="0.333333" stroke="#444444" stroke-opacity="0.333333" points="872.0986,-352.5817 880.1638,-345.7113 869.5745,-346.0527 872.0986,-352.5817"/>
</g>
<!-- systemd&#45;&gt;systemd -->
<g id="edge16" class="edge">
<title>systemd&#45;&gt;systemd</title>
<path fill="none" stroke="#444444" stroke-opacity="0.333333" d="M642.2967,-467.8113C652.8313,-466.9503 660.13,-464.8498 660.13,-461.51 660.13,-459.3704 657.1346,-457.7395 652.212,-456.6172"/>
<polygon fill="#444444" fill-opacity="0.333333" stroke="#444444" stroke-opacity="0.333333" points="652.6896,-453.15 642.2967,-455.2087 651.7051,-460.0804 652.6896,-453.15"/>
</g>
<!-- systemd&#45;&gt;util&#45;linux -->
<g id="edge17" class="edge">
<title>systemd&#45;&gt;util&#45;linux</title>
<path fill="none" stroke="#444444" stroke-opacity="0.333333" d="M608.11,-443.4409C644.3405,-419.6179 708.1726,-377.6458 748.2715,-351.2793"/>
<polygon fill="#444444" fill-opacity="0.333333" stroke="#444444" stroke-opacity="0.333333" points="750.262,-354.1593 756.6946,-345.7408 746.4161,-348.3104 750.262,-354.1593"/>
</g>
<!-- systemd&#45;&gt;acl -->
<g id="edge18" class="edge">
<title>systemd&#45;&gt;acl</title>
<path fill="none" stroke="#444444" stroke-opacity="0.333333" d="M551.5422,-479.6981C518.7379,-500.2102 465.2952,-533.6271 429.3652,-556.0936"/>
<polygon fill="#444444" fill-opacity="0.333333" stroke="#444444" stroke-opacity="0.333333" points="427.2543,-553.2855 420.631,-561.5549 430.9655,-559.2208 427.2543,-553.2855"/>
</g>
<!-- systemd&#45;&gt;cryptsetup&#45;libs -->
<g id="edge19" class="edge">
<title>systemd&#45;&gt;cryptsetup&#45;libs</title>
<path fill="none" stroke="#444444" stroke-opacity="0.333333" d="M586.5382,-479.6622C606.9349,-542.3285 674.4951,-749.8987 699.2478,-825.9482"/>
<polygon fill="#444444" fill-opacity="0.333333" stroke="#444444" stroke-opacity="0.333333" points="696.0238,-827.3517 702.4471,-835.7774 702.6801,-825.1852 696.0238,-827.3517"/>
</g>
<!-- systemd&#45;&gt;dbus -->
<g id="edge20" class="edge">
<title>systemd&#45;&gt;dbus</title>
<path fill="none" stroke="#444444" stroke-opacity="0.333333" d="M573.9334,-443.297C548.5614,-374.2913 458.2394,-128.6378 427.72,-45.6328"/>
<polygon fill="#444444" fill-opacity="0.333333" stroke="#444444" stroke-opacity="0.333333" points="430.9584,-44.2979 424.2224,-36.1201 424.3884,-46.7136 430.9584,-44.2979"/>
</g>
<!-- systemd&#45;&gt;iptables&#45;libs -->
<g id="edge21" class="edge">
<title>systemd&#45;&gt;iptables&#45;libs</title>
<path fill="none" stroke="#444444" stroke-opacity="0.333333" d="M574.443,-479.7267C553.9712,-540.0028 488.331,-733.2704 463.6406,-805.9676"/>
<polygon fill="#444444" fill-opacity="0.333333" stroke="#444444" stroke-opacity="0.333333" points="460.207,-805.194 460.3051,-815.7884 466.8351,-807.4452 460.207,-805.194"/>
</g>
<!-- systemd&#45;&gt;kmod&#45;libs -->
<g id="edge22" class="edge">
<title>systemd&#45;&gt;kmod&#45;libs</title>
<path fill="none" stroke="#444444" stroke-opacity="0.333333" d="M550.0629,-443.4653C514.9409,-422.7317 457.2135,-388.6534 418.7516,-365.9482"/>
<polygon fill="#444444" fill-opacity="0.333333" stroke="#444444" stroke-opacity="0.333333" points="420.2851,-362.7891 409.8943,-360.7195 416.7265,-368.8171 420.2851,-362.7891"/>
</g>
<!-- systemd&#45;&gt;libseccomp -->
<g id="edge23" class="edge">
<title>systemd&#45;&gt;libseccomp</title>
<path fill="none" stroke="#444444" stroke-opacity="0.333333" d="M560.64,-479.5491C514.5604,-521.1315 400.8011,-623.7885 348.052,-671.3896"/>
<polygon fill="#444444" fill-opacity="0.333333" stroke="#444444" stroke-opacity="0.333333" points="345.5074,-668.9715 340.4281,-678.2694 350.197,-674.1683 345.5074,-668.9715"/>
</g>
<!-- systemd&#45;&gt;qrencode&#45;libs -->
<g id="edge24" class="edge">
<title>systemd&#45;&gt;qrencode&#45;libs</title>
<path fill="none" stroke="#444444" stroke-opacity="0.333333" d="M518.9503,-466.4292C479.4335,-469.5808 427.5091,-473.722 383.5824,-477.2253"/>
<polygon fill="#444444" fill-opacity="0.333333" stroke="#444444" stroke-opacity="0.333333" points="383.1628,-473.7475 373.4727,-478.0316 383.7193,-480.7254 383.1628,-473.7475"/>
</g>
<!-- systemd&#45;&gt;systemd&#45;pam -->
<g id="edge25" class="edge">
<title>systemd&#45;&gt;systemd&#45;pam</title>
<path fill="none" stroke="#444444" stroke-opacity="0.333333" d="M573.0435,-479.5227C560.0004,-523.3591 536.2638,-635.8233 528.6569,-688.664"/>
<polygon fill="#444444" fill-opacity="0.333333" stroke="#444444" stroke-opacity="0.333333" points="525.1719,-688.3201 527.3231,-698.6942 532.1108,-689.2429 525.1719,-688.3201"/>
</g>
<!-- systemd&#45;&gt;systemd&#45;rpm&#45;macros -->
<g id="edge26" class="edge">
<title>systemd&#45;&gt;systemd&#45;rpm&#45;macros</title>
<path fill="none" stroke="#444444" stroke-opacity="0.333333" d="M535.4444,-443.3418C445.1739,-407.0459 242.8578,-325.6988 145.4503,-286.5333"/>
<polygon fill="#444444" fill-opacity="0.333333" stroke="#444444" stroke-opacity="0.333333" points="146.6602,-283.2475 136.0764,-282.7643 144.0488,-289.7422 146.6602,-283.2475"/>
</g>
<!-- libsemanage&#45;&gt;Fedora Container Base -->
<g id="edge38" class="edge">
<title>libsemanage&#45;&gt;Fedora Container Base</title>
<path fill="none" stroke="#444444" stroke-opacity="0.333333" d="M987.996,-532.1751C945.9527,-538.9234 893.1815,-547.3936 848.1402,-554.6231"/>
<polygon fill="#444444" fill-opacity="0.333333" stroke="#444444" stroke-opacity="0.333333" points="847.3803,-551.2002 838.0614,-556.2409 848.4897,-558.1117 847.3803,-551.2002"/>
</g>
<!-- libsemanage&#45;&gt;libsemanage -->
<g id="edge39" class="edge">
<title>libsemanage&#45;&gt;libsemanage</title>
<path fill="none" stroke="#444444" stroke-opacity="0.333333" d="M1139.1725,-526.0974C1149.9009,-525.1177 1157.1,-523.0986 1157.1,-520.04 1157.1,-518.0806 1154.1455,-516.5478 1149.2013,-515.4415"/>
<polygon fill="#444444" fill-opacity="0.333333" stroke="#444444" stroke-opacity="0.333333" points="1149.5723,-511.9587 1139.1725,-513.9826 1148.5645,-518.8858 1149.5723,-511.9587"/>
</g>
<!-- util&#45;linux&#45;&gt;Fedora Container Base -->
<g id="edge27" class="edge">
<title>util&#45;linux&#45;&gt;Fedora Container Base</title>
<path fill="none" stroke="#444444" stroke-opacity="0.333333" d="M781.9014,-345.7674C776.1708,-387.7629 762.0098,-491.5392 755.1405,-541.8794"/>
<polygon fill="#444444" fill-opacity="0.333333" stroke="#444444" stroke-opacity="0.333333" points="751.6366,-541.6705 753.7523,-552.0519 758.5723,-542.617 751.6366,-541.6705"/>
</g>
<!-- util&#45;linux&#45;&gt;util&#45;linux -->
<g id="edge28" class="edge">
<title>util&#45;linux&#45;&gt;util&#45;linux</title>
<path fill="none" stroke="#444444" stroke-opacity="0.333333" d="M849.0697,-333.7753C859.6315,-332.8813 866.89,-330.7995 866.89,-327.53 866.89,-325.4355 863.9111,-323.8284 858.9932,-322.7087"/>
<polygon fill="#444444" fill-opacity="0.333333" stroke="#444444" stroke-opacity="0.333333" points="859.4655,-319.2407 849.0697,-321.2847 858.4711,-326.1698 859.4655,-319.2407"/>
</g>
<!-- util&#45;linux&#45;&gt;libfdisk -->
<g id="edge29" class="edge">
<title>util&#45;linux&#45;&gt;libfdisk</title>
<path fill="none" stroke="#444444" stroke-opacity="0.333333" d="M786.8494,-309.1421C792.4158,-267.5241 806.0098,-165.8871 812.644,-116.2857"/>
<polygon fill="#444444" fill-opacity="0.333333" stroke="#444444" stroke-opacity="0.333333" points="816.1294,-116.6276 813.9861,-106.2518 809.1912,-115.6995 816.1294,-116.6276"/>
</g>
<!-- util&#45;linux&#45;&gt;libutempter -->
<g id="edge30" class="edge">
<title>util&#45;linux&#45;&gt;libutempter</title>
<path fill="none" stroke="#444444" stroke-opacity="0.333333" d="M807.4665,-309.4992C841.6517,-282.7886 905.839,-232.6359 944.2846,-202.5964"/>
<polygon fill="#444444" fill-opacity="0.333333" stroke="#444444" stroke-opacity="0.333333" points="946.8168,-205.0597 952.5417,-196.1447 942.5069,-199.5437 946.8168,-205.0597"/>
</g>
<!-- acl&#45;&gt;Fedora Container Base -->
<g id="edge53" class="edge">
<title>acl&#45;&gt;Fedora Container Base</title>
<path fill="none" stroke="#444444" stroke-opacity="0.333333" d="M439.5535,-578.3218C482.3398,-577.2029 547.3688,-575.5023 606.9822,-573.9434"/>
<polygon fill="#444444" fill-opacity="0.333333" stroke="#444444" stroke-opacity="0.333333" points="607.3636,-577.4348 617.2687,-573.6744 607.1806,-570.4371 607.3636,-577.4348"/>
</g>
<!-- cryptsetup&#45;libs&#45;&gt;Fedora Container Base -->
<g id="edge54" class="edge">
<title>cryptsetup&#45;libs&#45;&gt;Fedora Container Base</title>
<path fill="none" stroke="#444444" stroke-opacity="0.333333" d="M711.185,-835.9912C718.4694,-787.6972 738.3274,-656.0427 747.0619,-598.1349"/>
<polygon fill="#444444" fill-opacity="0.333333" stroke="#444444" stroke-opacity="0.333333" points="750.5272,-598.6274 748.5579,-588.2172 743.6054,-597.5833 750.5272,-598.6274"/>
</g>
<!-- cryptsetup&#45;libs&#45;&gt;device&#45;mapper&#45;libs -->
<g id="edge55" class="edge">
<title>cryptsetup&#45;libs&#45;&gt;device&#45;mapper&#45;libs</title>
<path fill="none" stroke="#444444" stroke-opacity="0.333333" d="M765.906,-872.2285C785.7711,-878.4641 808.2029,-885.5054 828.7629,-891.9591"/>
<polygon fill="#444444" fill-opacity="0.333333" stroke="#444444" stroke-opacity="0.333333" points="827.7834,-895.32 838.3727,-894.9756 829.8799,-888.6413 827.7834,-895.32"/>
</g>
<!-- cryptsetup&#45;libs&#45;&gt;libargon2 -->
<g id="edge56" class="edge">
<title>cryptsetup&#45;libs&#45;&gt;libargon2</title>
<path fill="none" stroke="#444444" stroke-opacity="0.333333" d="M712.7635,-872.317C721.633,-909.5038 741.9379,-994.6355 752.4968,-1038.9053"/>
<polygon fill="#444444" fill-opacity="0.333333" stroke="#444444" stroke-opacity="0.333333" points="749.1128,-1039.8038 754.8374,-1048.7189 755.9218,-1038.1797 749.1128,-1039.8038"/>
</g>
<!-- dbus&#45;&gt;dbus&#45;broker -->
<g id="edge57" class="edge">
<title>dbus&#45;&gt;dbus&#45;broker</title>
<path fill="none" stroke="#444444" stroke-opacity="0.333333" d="M440.8289,-36.104C480.8482,-67.2404 562.7305,-130.9476 607.6682,-165.9106"/>
<polygon fill="#444444" fill-opacity="0.333333" stroke="#444444" stroke-opacity="0.333333" points="605.5689,-168.7119 615.6107,-172.0902 609.8674,-163.1871 605.5689,-168.7119"/>
</g>
<!-- iptables&#45;libs&#45;&gt;Fedora Container Base -->
<g id="edge58" class="edge">
<title>iptables&#45;libs&#45;&gt;Fedora Container Base</title>
<path fill="none" stroke="#444444" stroke-opacity="0.333333" d="M474.5543,-815.838C526.6319,-769.6052 664.4311,-647.2716 723.6231,-594.7229"/>
<polygon fill="#444444" fill-opacity="0.333333" stroke="#444444" stroke-opacity="0.333333" points="725.951,-597.3365 731.1057,-588.0801 721.3037,-592.1017 725.951,-597.3365"/>
</g>
<!-- iptables&#45;libs&#45;&gt;libpcap -->
<g id="edge59" class="edge">
<title>iptables&#45;libs&#45;&gt;libpcap</title>
<path fill="none" stroke="#444444" stroke-opacity="0.333333" d="M457.8685,-852.1429C464.6952,-885.3274 479.2212,-955.938 487.334,-995.3741"/>
<polygon fill="#444444" fill-opacity="0.333333" stroke="#444444" stroke-opacity="0.333333" points="483.9495,-996.2925 489.3928,-1005.3821 490.8059,-994.8819 483.9495,-996.2925"/>
</g>
<!-- kmod&#45;libs&#45;&gt;Fedora Container Base -->
<g id="edge60" class="edge">
<title>kmod&#45;libs&#45;&gt;Fedora Container Base</title>
<path fill="none" stroke="#444444" stroke-opacity="0.333333" d="M408.864,-360.7393C475.8925,-401.7357 639.5888,-501.8567 713.7134,-547.1933"/>
<polygon fill="#444444" fill-opacity="0.333333" stroke="#444444" stroke-opacity="0.333333" points="711.9394,-550.211 722.2965,-552.4429 715.5918,-544.2394 711.9394,-550.211"/>
</g>
<!-- libseccomp&#45;&gt;Fedora Container Base -->
<g id="edge61" class="edge">
<title>libseccomp&#45;&gt;Fedora Container Base</title>
<path fill="none" stroke="#444444" stroke-opacity="0.333333" d="M382.1089,-678.2886C462.614,-654.7112 602.8633,-613.6366 685.3716,-589.4725"/>
<polygon fill="#444444" fill-opacity="0.333333" stroke="#444444" stroke-opacity="0.333333" points="686.5263,-592.7814 695.1395,-586.6118 684.5588,-586.0636 686.5263,-592.7814"/>
</g>
<!-- qrencode&#45;libs&#45;&gt;Fedora Container Base -->
<g id="edge62" class="edge">
<title>qrencode&#45;libs&#45;&gt;Fedora Container Base</title>
<path fill="none" stroke="#444444" stroke-opacity="0.333333" d="M373.4901,-499.1187C454.0083,-514.2618 578.8469,-537.7404 662.7488,-553.5199"/>
<polygon fill="#444444" fill-opacity="0.333333" stroke="#444444" stroke-opacity="0.333333" points="662.2974,-556.9963 672.7721,-555.4049 663.5913,-550.1169 662.2974,-556.9963"/>
</g>
<!-- systemd&#45;pam&#45;&gt;Fedora Container Base -->
<g id="edge63" class="edge">
<title>systemd&#45;pam&#45;&gt;Fedora Container Base</title>
<path fill="none" stroke="#444444" stroke-opacity="0.333333" d="M555.1443,-698.5957C595.7266,-672.0233 671.0082,-622.7303 715.5729,-593.5503"/>
<polygon fill="#444444" fill-opacity="0.333333" stroke="#444444" stroke-opacity="0.333333" points="717.6081,-596.4013 724.0569,-587.9951 713.7735,-590.545 717.6081,-596.4013"/>
</g>
<!-- systemd&#45;pam&#45;&gt;systemd -->
<g id="edge64" class="edge">
<title>systemd&#45;pam&#45;&gt;systemd</title>
<path fill="none" stroke="#444444" stroke-opacity="0.333333" d="M534.8065,-698.8673C547.8496,-655.0309 571.5862,-542.5667 579.1931,-489.726"/>
<polygon fill="#444444" fill-opacity="0.333333" stroke="#444444" stroke-opacity="0.333333" points="582.6781,-490.0699 580.5269,-479.6958 575.7392,-489.1471 582.6781,-490.0699"/>
</g>
<!-- libfdisk&#45;&gt;Fedora Container Base -->
<g id="edge65" class="edge">
<title>libfdisk&#45;&gt;Fedora Container Base</title>
<path fill="none" stroke="#444444" stroke-opacity="0.333333" d="M813.9757,-106.1458C804.1217,-179.077 767.1464,-452.7393 755.1,-541.8975"/>
<polygon fill="#444444" fill-opacity="0.333333" stroke="#444444" stroke-opacity="0.333333" points="751.5971,-541.6841 753.7265,-552.0627 758.5341,-542.6214 751.5971,-541.6841"/>
</g>
<!-- libutempter&#45;&gt;Fedora Container Base -->
<g id="edge66" class="edge">
<title>libutempter&#45;&gt;Fedora Container Base</title>
<path fill="none" stroke="#444444" stroke-opacity="0.333333" d="M965.3258,-196.1763C929.365,-259.0092 809.9116,-467.7253 766.8909,-542.8936"/>
<polygon fill="#444444" fill-opacity="0.333333" stroke="#444444" stroke-opacity="0.333333" points="763.7326,-541.366 761.8029,-551.7837 769.8079,-544.8431 763.7326,-541.366"/>
</g>
<!-- libutempter&#45;&gt;shadow&#45;utils -->
<g id="edge67" class="edge">
<title>libutempter&#45;&gt;shadow&#45;utils</title>
<path fill="none" stroke="#444444" stroke-opacity="0.333333" d="M969.8208,-196.0916C961.4042,-221.9199 945.8492,-269.6541 935.9731,-299.9612"/>
<polygon fill="#444444" fill-opacity="0.333333" stroke="#444444" stroke-opacity="0.333333" points="932.6307,-298.922 932.86,-309.5144 939.2862,-301.0909 932.6307,-298.922"/>
</g>
<!-- libunwind&#45;&gt;Fedora Container Base -->
<g id="edge35" class="edge">
<title>libunwind&#45;&gt;Fedora Container Base</title>
<path fill="none" stroke="#444444" stroke-opacity="0.333333" d="M1102.6852,-898.2063C1040.9839,-840.6082 849.2707,-661.6442 778.1712,-595.2729"/>
<polygon fill="#444444" fill-opacity="0.333333" stroke="#444444" stroke-opacity="0.333333" points="780.2009,-592.3796 770.5026,-588.1143 775.4242,-597.4966 780.2009,-592.3796"/>
</g>
<!-- libunwind&#45;&gt;libunwind -->
<g id="edge36" class="edge">
<title>libunwind&#45;&gt;libunwind</title>
<path fill="none" stroke="#444444" stroke-opacity="0.333333" d="M1189.437,-922.516C1199.9397,-921.5912 1207.1,-919.5292 1207.1,-916.33 1207.1,-914.3305 1204.303,-912.7752 1199.6411,-911.6641"/>
<polygon fill="#444444" fill-opacity="0.333333" stroke="#444444" stroke-opacity="0.333333" points="1199.8436,-908.1558 1189.437,-910.144 1198.8121,-915.0794 1199.8436,-908.1558"/>
</g>
<!-- libpcap&#45;&gt;Fedora Container Base -->
<g id="edge37" class="edge">
<title>libpcap&#45;&gt;Fedora Container Base</title>
<path fill="none" stroke="#444444" stroke-opacity="0.333333" d="M503.3995,-1005.4492C543.3114,-935.3636 688.1479,-681.0303 735.8949,-597.1863"/>
<polygon fill="#444444" fill-opacity="0.333333" stroke="#444444" stroke-opacity="0.333333" points="739.0639,-598.6942 740.9711,-588.2724 732.9811,-595.2301 739.0639,-598.6942"/>
</g>
<!-- gperftools&#45;libs&#45;&gt;Fedora Container Base -->
<g id="edge40" class="edge">
<title>gperftools&#45;libs&#45;&gt;Fedora Container Base</title>
<path fill="none" stroke="#444444" stroke-opacity="0.333333" d="M1145.4603,-720.4411C1062.9262,-688.9771 892.9637,-624.1833 805.6621,-590.9018"/>
<polygon fill="#444444" fill-opacity="0.333333" stroke="#444444" stroke-opacity="0.333333" points="806.7922,-587.587 796.2014,-587.2951 804.2987,-594.1278 806.7922,-587.587"/>
</g>
<!-- gperftools&#45;libs&#45;&gt;libunwind -->
<g id="edge41" class="edge">
<title>gperftools&#45;libs&#45;&gt;libunwind</title>
<path fill="none" stroke="#444444" stroke-opacity="0.333333" d="M1185.542,-756.485C1173.1733,-787.6484 1147.7241,-851.769 1133.096,-888.625"/>
<polygon fill="#444444" fill-opacity="0.333333" stroke="#444444" stroke-opacity="0.333333" points="1129.7129,-887.6614 1129.277,-898.2473 1136.2192,-890.2438 1129.7129,-887.6614"/>
</g>
<!-- nginx&#45;&gt;Fedora Container Base -->
<g id="edge42" class="edge">
<title>nginx&#45;&gt;Fedora Container Base</title>
<path fill="none" stroke="#444444" stroke-opacity="0.333333" d="M1126.6806,-492.168C1045.2862,-509.0804 917.843,-535.561 834.4325,-552.8923"/>
<polygon fill="#444444" fill-opacity="0.333333" stroke="#444444" stroke-opacity="0.333333" points="833.5636,-549.498 824.4848,-554.9593 834.9878,-556.3516 833.5636,-549.498"/>
</g>
<!-- nginx&#45;&gt;systemd -->
<g id="edge43" class="edge">
<title>nginx&#45;&gt;systemd</title>
<path fill="none" stroke="#444444" stroke-opacity="0.333333" d="M1126.5728,-474.2291C1004.7345,-471.3906 770.5327,-465.9343 652.4466,-463.1832"/>
<polygon fill="#444444" fill-opacity="0.333333" stroke="#444444" stroke-opacity="0.333333" points="652.5019,-459.6836 642.4231,-462.9496 652.3388,-466.6817 652.5019,-459.6836"/>
</g>
<!-- nginx&#45;&gt;fedora&#45;logos&#45;httpd -->
<g id="edge44" class="edge">
<title>nginx&#45;&gt;fedora&#45;logos&#45;httpd</title>
<path fill="none" stroke="#444444" stroke-opacity="0.333333" d="M1281.8598,-481.1201C1362.3368,-486.3912 1488.3697,-494.6462 1575.388,-500.3458"/>
<polygon fill="#444444" fill-opacity="0.333333" stroke="#444444" stroke-opacity="0.333333" points="1575.328,-503.8493 1585.5355,-501.0105 1575.7856,-496.8643 1575.328,-503.8493"/>
</g>
<!-- nginx&#45;&gt;gperftools&#45;libs -->
<g id="edge45" class="edge">
<title>nginx&#45;&gt;gperftools&#45;libs</title>
<path fill="none" stroke="#444444" stroke-opacity="0.333333" d="M1203.5027,-494.0765C1201.5201,-538.9249 1196.3552,-655.7644 1193.9572,-710.0109"/>
<polygon fill="#444444" fill-opacity="0.333333" stroke="#444444" stroke-opacity="0.333333" points="1190.448,-710.1424 1193.5029,-720.2873 1197.4412,-710.4516 1190.448,-710.1424"/>
</g>
<!-- nginx&#45;&gt;nginx -->
<g id="edge46" class="edge">
<title>nginx&#45;&gt;nginx</title>
<path fill="none" stroke="#444444" stroke-opacity="0.333333" d="M1281.8655,-482.0633C1292.615,-481.0712 1299.8,-479.0634 1299.8,-476.04 1299.8,-474.1031 1296.8513,-472.5831 1291.9057,-471.4798"/>
<polygon fill="#444444" fill-opacity="0.333333" stroke="#444444" stroke-opacity="0.333333" points="1292.2657,-467.9954 1281.8655,-470.0167 1291.2562,-474.9223 1292.2657,-467.9954"/>
</g>
<!-- nginx&#45;&gt;nginx&#45;filesystem -->
<g id="edge47" class="edge">
<title>nginx&#45;&gt;nginx&#45;filesystem</title>
<path fill="none" stroke="#444444" stroke-opacity="0.333333" d="M1203.7126,-457.8581C1202.7933,-429.4055 1201.0074,-374.1303 1199.9175,-340.3974"/>
<polygon fill="#444444" fill-opacity="0.333333" stroke="#444444" stroke-opacity="0.333333" points="1203.4113,-340.1451 1199.5901,-330.2633 1196.4149,-340.3712 1203.4113,-340.1451"/>
</g>
<!-- nginx&#45;&gt;nginx&#45;mimetypes -->
<g id="edge48" class="edge">
<title>nginx&#45;&gt;nginx&#45;mimetypes</title>
<path fill="none" stroke="#444444" stroke-opacity="0.333333" d="M1228.75,-457.9143C1282.7799,-417.8599 1412.3709,-321.7891 1473.3829,-276.5586"/>
<polygon fill="#444444" fill-opacity="0.333333" stroke="#444444" stroke-opacity="0.333333" points="1475.5729,-279.292 1481.5218,-270.5249 1471.4041,-273.6687 1475.5729,-279.292"/>
</g>
<!-- nginx&#45;filesystem&#45;&gt;Fedora Container Base -->
<g id="edge49" class="edge">
<title>nginx&#45;filesystem&#45;&gt;Fedora Container Base</title>
<path fill="none" stroke="#444444" stroke-opacity="0.333333" d="M1167.5172,-330.154C1087.8334,-376.1023 878.2854,-496.9345 790.6708,-547.456"/>
<polygon fill="#444444" fill-opacity="0.333333" stroke="#444444" stroke-opacity="0.333333" points="788.7528,-544.5217 781.8382,-552.5491 792.2496,-550.5858 788.7528,-544.5217"/>
</g>
<!-- nginx&#45;filesystem&#45;&gt;shadow&#45;utils -->
<g id="edge50" class="edge">
<title>nginx&#45;filesystem&#45;&gt;shadow&#45;utils</title>
<path fill="none" stroke="#444444" stroke-opacity="0.333333" d="M1122.86,-316.3718C1086.9406,-318.4342 1044.0608,-320.8963 1007.5888,-322.9905"/>
<polygon fill="#444444" fill-opacity="0.333333" stroke="#444444" stroke-opacity="0.333333" points="1007.2658,-319.5031 997.4829,-323.5707 1007.6671,-326.4916 1007.2658,-319.5031"/>
</g>
<!-- nginx&#45;mimetypes&#45;&gt;nginx&#45;filesystem -->
<g id="edge51" class="edge">
<title>nginx&#45;mimetypes&#45;&gt;nginx&#45;filesystem</title>
<path fill="none" stroke="#444444" stroke-opacity="0.333333" d="M1419.8102,-269.0383C1377.6688,-277.2375 1327.1198,-287.0725 1285.0269,-295.2623"/>
<polygon fill="#444444" fill-opacity="0.333333" stroke="#444444" stroke-opacity="0.333333" points="1284.2225,-291.8531 1275.075,-297.1986 1285.5594,-298.7242 1284.2225,-291.8531"/>
</g>
<!-- nginx&#45;mimetypes&#45;&gt;nginx&#45;mimetypes -->
<g id="edge52" class="edge">
<title>nginx&#45;mimetypes&#45;&gt;nginx&#45;mimetypes</title>
<path fill="none" stroke="#444444" stroke-opacity="0.333333" d="M1592.277,-258.1082C1603.0864,-257.0722 1610.2,-255.1128 1610.2,-252.23 1610.2,-250.3832 1607.2806,-248.9154 1602.3403,-247.8265"/>
<polygon fill="#444444" fill-opacity="0.333333" stroke="#444444" stroke-opacity="0.333333" points="1602.6789,-244.3388 1592.277,-246.3518 1601.6639,-251.2648 1602.6789,-244.3388"/>
</g>
<!-- Fedora Container Base -->
<g id="node1" class="node">
<title>Fedora Container Base</title>
<ellipse fill="none" stroke="#000000" cx="751.28" cy="-570.17" rx="136.5" ry="18"/>
<text text-anchor="middle" x="751.28" y="-566.47" font-family="Helvetica,sans-Serif" font-weight="bold" font-size="14.00" fill="#000000">Fedora Container Base (201.4 MB)</text>
</g>
<!-- device&#45;mapper&#45;libs -->
<g id="node2" class="node">
<title>device&#45;mapper&#45;libs</title>
<text text-anchor="middle" x="895.73" y="-909.28" font-family="Helvetica,sans-Serif" font-weight="bold" font-size="14.00" fill="#000000">device&#45;mapper&#45;libs (414.2 kB)</text>
</g>
<!-- device&#45;mapper -->
<g id="node3" class="node">
<title>device&#45;mapper</title>
<text text-anchor="middle" x="848.48" y="-644.76" font-family="Helvetica,sans-Serif" font-weight="bold" font-size="14.00" fill="#000000">device&#45;mapper (350.0 kB)</text>
</g>
<!-- libargon2 -->
<g id="node4" class="node">
<title>libargon2</title>
<text text-anchor="middle" x="759.15" y="-1063.1" font-family="Helvetica,sans-Serif" font-weight="bold" font-size="14.00" fill="#000000">libargon2 (54.9 kB)</text>
</g>
<!-- dbus&#45;broker -->
<g id="node5" class="node">
<title>dbus&#45;broker</title>
<text text-anchor="middle" x="638.9" y="-186.51" font-family="Helvetica,sans-Serif" font-weight="bold" font-size="14.00" fill="#000000">dbus&#45;broker (423.2 kB)</text>
</g>
<!-- dbus&#45;common -->
<g id="node6" class="node">
<title>dbus&#45;common</title>
<text text-anchor="middle" x="507.62" y="-234.75" font-family="Helvetica,sans-Serif" font-weight="bold" font-size="14.00" fill="#000000">dbus&#45;common (11.2 kB)</text>
</g>
<!-- shadow&#45;utils -->
<g id="node7" class="node">
<title>shadow&#45;utils</title>
<text text-anchor="middle" x="926.96" y="-323.92" font-family="Helvetica,sans-Serif" font-weight="bold" font-size="14.00" fill="#000000">shadow&#45;utils (4.0 MB)</text>
</g>
<!-- systemd -->
<g id="node8" class="node">
<title>systemd</title>
<text text-anchor="middle" x="580.63" y="-457.81" font-family="Helvetica,sans-Serif" font-weight="bold" font-size="14.00" fill="#000000">systemd (11.9 MB)</text>
</g>
<!-- libsemanage -->
<g id="node9" class="node">
<title>libsemanage</title>
<text text-anchor="middle" x="1063.6" y="-516.34" font-family="Helvetica,sans-Serif" font-weight="bold" font-size="14.00" fill="#000000">libsemanage (304.6 kB)</text>
</g>
<!-- util&#45;linux -->
<g id="node10" class="node">
<title>util&#45;linux</title>
<text text-anchor="middle" x="784.39" y="-323.83" font-family="Helvetica,sans-Serif" font-weight="bold" font-size="14.00" fill="#000000">util&#45;linux (13.2 MB)</text>
</g>
<!-- acl -->
<g id="node11" class="node">
<title>acl</title>
<text text-anchor="middle" x="391.82" y="-575.87" font-family="Helvetica,sans-Serif" font-weight="bold" font-size="14.00" fill="#000000">acl (212.0 kB)</text>
</g>
<!-- cryptsetup&#45;libs -->
<g id="node12" class="node">
<title>cryptsetup&#45;libs</title>
<text text-anchor="middle" x="708.44" y="-850.49" font-family="Helvetica,sans-Serif" font-weight="bold" font-size="14.00" fill="#000000">cryptsetup&#45;libs (1.8 MB)</text>
</g>
<!-- dbus -->
<g id="node13" class="node">
<title>dbus</title>
<text text-anchor="middle" x="417.56" y="-14.3" font-family="Helvetica,sans-Serif" font-weight="bold" font-size="14.00" fill="#000000">dbus (0.0 B)</text>
</g>
<!-- iptables&#45;libs -->
<g id="node14" class="node">
<title>iptables&#45;libs</title>
<text text-anchor="middle" x="454.13" y="-830.27" font-family="Helvetica,sans-Serif" font-weight="bold" font-size="14.00" fill="#000000">iptables&#45;libs (141.5 kB)</text>
</g>
<!-- kmod&#45;libs -->
<g id="node15" class="node">
<title>kmod&#45;libs</title>
<text text-anchor="middle" x="379.37" y="-339" font-family="Helvetica,sans-Serif" font-weight="bold" font-size="14.00" fill="#000000">kmod&#45;libs (197.4 kB)</text>
</g>
<!-- libseccomp -->
<g id="node16" class="node">
<title>libseccomp</title>
<text text-anchor="middle" x="320.37" y="-692.67" font-family="Helvetica,sans-Serif" font-weight="bold" font-size="14.00" fill="#000000">libseccomp (347.1 kB)</text>
</g>
<!-- qrencode&#45;libs -->
<g id="node17" class="node">
<title>qrencode&#45;libs</title>
<text text-anchor="middle" x="294.75" y="-480.61" font-family="Helvetica,sans-Serif" font-weight="bold" font-size="14.00" fill="#000000">qrencode&#45;libs (159.3 kB)</text>
</g>
<!-- systemd&#45;pam -->
<g id="node18" class="node">
<title>systemd&#45;pam</title>
<text text-anchor="middle" x="527.22" y="-713.18" font-family="Helvetica,sans-Serif" font-weight="bold" font-size="14.00" fill="#000000">systemd&#45;pam (335.8 kB)</text>
</g>
<!-- systemd&#45;rpm&#45;macros -->
<g id="node19" class="node">
<title>systemd&#45;rpm&#45;macros</title>
<text text-anchor="middle" x="91" y="-260.94" font-family="Helvetica,sans-Serif" font-weight="bold" font-size="14.00" fill="#000000">systemd&#45;rpm&#45;macros (4.9 kB)</text>
</g>
<!-- libfdisk -->
<g id="node20" class="node">
<title>libfdisk</title>
<text text-anchor="middle" x="816.41" y="-84.429" font-family="Helvetica,sans-Serif" font-weight="bold" font-size="14.00" fill="#000000">libfdisk (476.8 kB)</text>
</g>
<!-- libutempter -->
<g id="node21" class="node">
<title>libutempter</title>
<text text-anchor="middle" x="975.7" y="-174.35" font-family="Helvetica,sans-Serif" font-weight="bold" font-size="14.00" fill="#000000">libutempter (58.2 kB)</text>
</g>
<!-- libunwind -->
<g id="node22" class="node">
<title>libunwind</title>
<text text-anchor="middle" x="1122.1" y="-912.63" font-family="Helvetica,sans-Serif" font-weight="bold" font-size="14.00" fill="#000000">libunwind (195.9 kB)</text>
</g>
<!-- libpcap -->
<g id="node23" class="node">
<title>libpcap</title>
<text text-anchor="middle" x="493.12" y="-1019.8" font-family="Helvetica,sans-Serif" font-weight="bold" font-size="14.00" fill="#000000">libpcap (381.0 kB)</text>
</g>
<!-- fedora&#45;logos&#45;httpd -->
<g id="node24" class="node">
<title>fedora&#45;logos&#45;httpd</title>
<text text-anchor="middle" x="1672.4" y="-503" font-family="Helvetica,sans-Serif" font-weight="bold" font-size="14.00" fill="#000000">fedora&#45;logos&#45;httpd (9.9 kB)</text>
</g>
<!-- gperftools&#45;libs -->
<g id="node25" class="node">
<title>gperftools&#45;libs</title>
<text text-anchor="middle" x="1192.7" y="-734.75" font-family="Helvetica,sans-Serif" font-weight="bold" font-size="14.00" fill="#000000">gperftools&#45;libs (1.8 MB)</text>
</g>
<!-- nginx -->
<g id="node26" class="node">
<title>nginx</title>
<text text-anchor="middle" x="1204.3" y="-470.44" font-family="Helvetica,sans-Serif" font-weight="bold" font-size="22.00" fill="#cc0066">nginx (1.7 MB)</text>
</g>
<!-- nginx&#45;filesystem -->
<g id="node27" class="node">
<title>nginx&#45;filesystem</title>
<text text-anchor="middle" x="1199" y="-308.3" font-family="Helvetica,sans-Serif" font-weight="bold" font-size="14.00" fill="#000000">nginx&#45;filesystem (0.0 B)</text>
</g>
<!-- nginx&#45;mimetypes -->
<g id="node28" class="node">
<title>nginx&#45;mimetypes</title>
<text text-anchor="middle" x="1506.2" y="-248.53" font-family="Helvetica,sans-Serif" font-weight="bold" font-size="14.00" fill="#000000">nginx&#45;mimetypes (39.3 kB)</text>
</g>
</g>

<script type="text/javascript"><![CDATA[

document.addEventListener('click', function(e) {
      e = e || window.event;
      var target = e.target || e.srcElement;
      text = target.parentElement.querySelector("title").textContent;

      console.log("Clicked on: " + text);
      // reset all strokes
      var nodes = document.getElementsByClassName("edge");

      for (index = 0, len = nodes.length; index < len; ++index) {
          //var title = nodes[index].querySelector("title").textContent.split("->");
          id = nodes[index].id;
          document.getElementById(id).querySelector("path").setAttribute("stroke-width", "1");
          document.getElementById(id).querySelector("path").setAttribute("stroke-opacity", "0.5");
          document.getElementById(id).querySelector("path").setAttribute("stroke", "#444444");
          document.getElementById(id).querySelector("polygon").setAttribute("stroke-width", "1");
          document.getElementById(id).querySelector("polygon").setAttribute("stroke-opacity", "0.5");
          document.getElementById(id).querySelector("polygon").setAttribute("stroke", "#444444");
      }
      // reset text highlight
      pkgs = document.getElementsByClassName("node");
      for (index2 = 0, len2 = pkgs.length; index2 < len2; ++index2) {
          target_id = pkgs[index2].id;
          document.getElementById(target_id).querySelector("text").setAttribute("font-weight", "normal");
      }

      // highlight deps
      var nodes = document.getElementsByClassName("edge");
      for (index = 0, len = nodes.length; index < len; ++index) {
        var title = nodes[index].querySelector("title").textContent.split("->");

        if (title[0] == text) {
          id = nodes[index].id;
          //console.log("ID:   " + id);
          document.getElementById(id).querySelector("path").setAttribute("stroke-width", "3");
          document.getElementById(id).querySelector("path").setAttribute("stroke-opacity", "1");
          document.getElementById(id).querySelector("path").setAttribute("stroke", "#aa3333");
          document.getElementById(id).querySelector("polygon").setAttribute("stroke-width", "5");
          document.getElementById(id).querySelector("polygon").setAttribute("stroke-opacity", "1");
          document.getElementById(id).querySelector("polygon").setAttribute("stroke", "#aa3333");

        }
        if (title[1] == text) {
          id = nodes[index].id;
          document.getElementById(id).querySelector("path").setAttribute("stroke-width", "3");
          document.getElementById(id).querySelector("path").setAttribute("stroke-opacity", "1");
          document.getElementById(id).querySelector("path").setAttribute("stroke", "#333377");
          document.getElementById(id).querySelector("polygon").setAttribute("stroke-width", "5");
          document.getElementById(id).querySelector("polygon").setAttribute("stroke-opacity", "1");
          document.getElementById(id).querySelector("polygon").setAttribute("stroke", "#333377");
        }

        if (title[0] == text || title[1] == text) {
          pkgs = document.getElementsByClassName("node");
          for (index2 = 0, len2 = pkgs.length; index2 < len2; ++index2) {
            var pkg_name = pkgs[index2].querySelector("title").textContent;
            if (pkg_name == title[0] || pkg_name == title[1]) {
              target_id = pkgs[index2].id;
              document.getElementById(target_id).querySelector("text").setAttribute("font-weight", "bold");
            }
          }
        }
      }


  }, false);

]]></script>

</svg>
