<?xml version="1.0" encoding="UTF-8" standalone="no"?>
<!DOCTYPE svg PUBLIC "-//W3C//DTD SVG 1.1//EN"
 "http://www.w3.org/Graphics/SVG/1.1/DTD/svg11.dtd">
<!-- Generated by graphviz version 2.40.1 (0)
 -->
<!-- Title: packages Pages: 1 -->
<svg width="1335pt" height="1094pt"
 viewBox="0.00 0.00 1601.72 1313.02" xmlns="http://www.w3.org/2000/svg" xmlns:xlink="http://www.w3.org/1999/xlink">
<g id="graph0" class="graph" transform="scale(.8333 .8333) rotate(0) translate(119.7219 1187.4365)">
<title>packages</title>
<polygon fill="#dae2ff" stroke="transparent" points="-119.7219,125.5843 -119.7219,-1187.4365 1481.9961,-1187.4365 1481.9961,125.5843 -119.7219,125.5843"/>
<polygon fill="#bbd7d9" stroke="#bbd7d9" points="537.6129,-959.9373 541.8124,-978.09 553.3763,-1017.3832 448.8636,-1107.9452 389.9865,-1106.239 375.0064,-1106.1453 370.9384,-1106.3046 361.1895,-1107.1302 350.6141,-1108.2668 345.4991,-1108.9326 345.2847,-1108.9702 334.8639,-1105.6691 333.5924,-1105.298 207.7044,-1071.6604 180.4286,-1041.6586 177.451,-1040.9625 171.6583,-1037.4225 171.6038,-1037.3917 165.7277,-1034.2136 145.9901,-1024.4388 146.2232,-996.0969 153.0243,-875.2665 157.6784,-877.9851 163.5742,-877.9851 168.8239,-874.797 169.7331,-873.6811 167.918,-871.3803 164.157,-869.2052 164.157,-869.2052 167.918,-871.3803 169.7331,-873.6811 168.8239,-874.797 163.5742,-877.9851 157.6784,-877.9851 153.0243,-875.2665 146.2232,-996.0969 145.9901,-1024.4388 131.3857,-1018.2268 63.9775,-991.1404 31.4922,-961.3102 13.8586,-909.9778 -7.4885,-852.5887 -22.8113,-816.2322 -23.7285,-812.2133 -19.9524,-805.6 123.1872,-789.8246 135.6974,-789.7371 136.7431,-789.7658 142.0719,-789.5235 150.7824,-789.7295 152.2404,-789.8144 157.7548,-789.7327 158.9137,-789.6308 160.3357,-789.555 160.8912,-709.1613 165.5326,-710.4659 170.9751,-756.7051 172.4896,-783.4726 176.8103,-705.6572 181.1187,-705.6572 181.9654,-705.408 185.7384,-705.408 186.6727,-705.687 191.7402,-705.687 192.3379,-705.8657 197.0918,-705.8657 197.2328,-705.9069 202.0128,-705.9069 202.3003,-705.8234 206.3114,-705.8234 206.8696,-706.7598 206.8696,-706.7598 206.3114,-705.8234 202.3003,-705.8234 202.0128,-705.9069 197.2328,-705.9069 197.0918,-705.8657 192.3379,-705.8657 191.7402,-705.687 186.6727,-705.687 185.7384,-705.408 181.9654,-705.408 181.1187,-705.6572 176.8103,-705.6572 172.4896,-783.4726 170.9751,-756.7051 165.5326,-710.4659 171.1927,-708.7622 174.758,-705.5516 171.1218,-702.3505 166.1951,-700.9118 166.1951,-700.9118 171.1218,-702.3505 174.758,-705.5516 171.1927,-708.7622 165.5326,-710.4659 160.8912,-709.1613 160.3357,-789.555 158.9137,-789.6308 157.7548,-789.7327 152.2404,-789.8144 150.7824,-789.7295 142.0719,-789.5235 136.7431,-789.7658 135.6974,-789.7371 123.1872,-789.8246 123.4892,-775.3018 123.4458,-773.3079 119.3891,-711.426 119.3891,-711.426 123.4458,-773.3079 123.4892,-775.3018 123.1872,-789.8246 -19.9524,-805.6 -16.5707,-725.8619 -16.6794,-686.5472 -78.3854,-605.9648 -90.0937,-588.5354 -109.2953,-559.259 -109.4941,-554.46 -115.7219,-494.8203 -112.6618,-485.253 -45.6409,-430.557 38.4741,-402.562 39.0908,-519.0264 42.6766,-553.7084 42.6766,-553.7084 39.0908,-519.0264 38.4741,-402.562 50.0094,-398.248 61.8172,-393.3472 64.6767,-392.1023 72.0081,-388.6089 75.0764,-392.1545 76.3227,-393.6534 76.2671,-411.3893 73.1059,-551.1049 68.1563,-549.6559 62.6015,-551.3199 59.052,-554.4542 62.5406,-557.5386 62.5406,-557.5386 59.052,-554.4542 62.6015,-551.3199 68.1563,-549.6559 73.1059,-551.1049 76.2671,-411.3893 76.3227,-393.6534 81.8809,-399.8886 92.5429,-411.0173 105.908,-424.4338 110.8342,-429.1697 111.7218,-430.0682 218.406,-543.8216 224.564,-549.7427 238.0285,-563.2591 241.7703,-563.5062 250.2407,-564.3956 258.3524,-565.5635 270.6721,-568.0618 289.7847,-572.6898 293.4496,-571.2999 295.148,-570.7603 376.0178,-546.6926 393.0317,-541.2773 407.041,-535.6679 412.5945,-538.8011 431.1818,-548.0098 439.8689,-551.7112 453.9711,-545.7776 478.4868,-534.006 536.7823,-503.7589 545.0256,-500.0499 549.0276,-498.5327 553.2131,-497.2382 560.9741,-495.3755 573.4269,-494.119 574.744,-494.0787 577.352,-493.8201 577.8947,-493.8044 586.0156,-494.1391 590.1622,-493.7414 594.5942,-493.9389 599.4244,-493.8245 599.955,-493.8489 602.3683,-494.1296 604.7878,-494.2452 605.0812,-494.2393 617.8574,-493.1076 627.2017,-491.0059 628.5713,-490.6057 637.5377,-487.3652 651.0064,-480.6419 651.2191,-480.522 655.5898,-477.7582 664.7934,-471.3031 669.7053,-467.1902 669.8821,-467.0296 682.2552,-456.8109 702.4235,-436.2815 705.8594,-432.1596 707.3407,-430.5851 722.0005,-414.1784 744.6846,-462.1012 761.7006,-502.1412 771.0547,-532.6139 783.7054,-562.5372 819.4926,-638.1418 822.6213,-645.4383 725.0698,-653.6426 716.0083,-653.9334 711.152,-654.2131 710.4895,-654.2167 701.5851,-654.0331 699.2849,-654.103 693.6366,-654.127 692.0814,-654.093 683.4002,-654.3458 679.1671,-654.1377 673.1782,-654.1486 665.0439,-653.9511 665.0129,-653.952 657.5762,-653.9564 649.2142,-654.5986 637.2739,-655.8198 629.9191,-656.9454 616.8077,-659.6209 612.4078,-660.7422 595.3301,-665.532 579.4405,-671.6 571.1827,-675.1714 569.7925,-679.489 555.7239,-689.7338 543.0173,-699.5355 526.4839,-714.0255 515.5394,-722.9991 514.6822,-723.6503 505.9197,-729.8036 494.755,-736.9769 484.8946,-741.5377 470.0223,-746.6801 466.4368,-747.4887 458.54,-748.8063 441.3774,-750.6516 438.9688,-751.0535 434.0276,-752.1727 434.0129,-751.9171 434.0129,-751.9171 434.0276,-752.1727 420.9288,-756.7361 417.1099,-758.2918 400.63,-767.0164 401.6428,-751.9316 408.0858,-699.9883 412.2837,-701.1868 412.2837,-701.1868 408.0858,-699.9883 403.6876,-695.9346 406.998,-693.1154 406.998,-693.1154 403.6876,-695.9346 408.0858,-699.9883 401.6428,-751.9316 400.63,-767.0164 396.4896,-769.6854 393.6319,-771.6976 391.2272,-773.538 379.1824,-783.5207 373.0989,-788.9212 361.186,-798.7538 325.3281,-826.4922 320.7636,-829.8591 321.2408,-832.2875 326.9373,-836.8893 334.3727,-842.6484 349.2083,-853.6386 359.2011,-860.0047 371.0015,-867.1165 373.7977,-868.6055 393.1353,-877.6025 457.565,-905.2888 461.185,-906.9656 471.9495,-912.3168 483.3099,-918.7228 485.0181,-919.742 499.9529,-929.666 508.5602,-935.9547 524.9688,-949.0399 537.6129,-959.9373 537.6129,-959.9373"/>
<polygon fill="#d8d6da" stroke="#d8d6da" points="593.4888,-774.8583 587.699,-748.3694 569.7925,-679.489 571.1827,-675.1714 579.4405,-671.6 595.3301,-665.532 612.4078,-660.7422 616.8077,-659.6209 629.9191,-656.9454 637.2739,-655.8198 649.2142,-654.5986 657.5762,-653.9564 665.0129,-653.952 665.0439,-653.9511 673.1782,-654.1486 679.1671,-654.1377 683.4002,-654.3458 683.4006,-654.5293 682.0914,-708.2482 677.4893,-766.5238 677.6292,-766.5652 683.1675,-766.5652 683.8481,-766.3572 687.9821,-766.3572 688.6079,-767.113 694.8157,-770.9631 699.3451,-770.9631 705.3676,-767.2947 706.1335,-766.3815 709.8483,-766.3815 710.4594,-766.5686 716.1248,-766.5686 714.0344,-830.0576 712.7094,-830.0584 710.252,-890.3669 705.4789,-888.9826 705.4789,-888.9826 710.252,-890.3669 712.7094,-830.0584 714.0344,-830.0576 716.1248,-766.5686 716.7913,-766.3666 719.5658,-766.3666 720.6605,-768.0938 720.6605,-768.0938 719.5658,-766.3666 716.7913,-766.3666 716.1248,-766.5686 710.4594,-766.5686 709.8483,-766.3815 706.1335,-766.3815 705.3676,-767.2947 699.3451,-770.9631 694.8157,-770.9631 688.6079,-767.113 687.9821,-766.3572 683.8481,-766.3572 683.1675,-766.5652 677.6292,-766.5652 677.4893,-766.5238 682.0914,-708.2482 683.4006,-654.5293 683.4002,-654.3458 692.0814,-654.093 693.6366,-654.127 699.2849,-654.103 701.5851,-654.0331 710.4895,-654.2167 711.152,-654.2131 716.0083,-653.9334 725.0698,-653.6426 822.6213,-645.4383 837.9858,-651.4705 845.4193,-654.6828 848.4469,-656.1117 857.2947,-656.2584 857.8412,-656.2853 864.0059,-656.1691 865.7954,-656.1647 869.0938,-656.2106 873.9139,-656.3566 885.2014,-656.3136 892.0175,-656.1715 910.638,-656.0883 932.4411,-685.9164 947.3215,-707.2445 952.0533,-714.3953 928.3901,-813.2074 926.1403,-835.3084 925.3286,-838.5902 880.3797,-827.0662 877.7959,-824.0605 874.9553,-822.9681 873.7875,-821.9973 869.2849,-821.9973 868.8279,-821.8613 865.1323,-821.8613 859.3977,-759.1107 857.3212,-709.4625 852.8409,-782.4545 847.5311,-818.0925 843.7318,-817.0244 843.7318,-817.0244 847.5311,-818.0925 852.8409,-782.4545 857.3212,-709.4625 859.3977,-759.1107 865.1323,-821.8613 868.8279,-821.8613 869.2849,-821.9973 873.7875,-821.9973 874.9553,-822.9681 877.7959,-824.0605 880.3797,-827.0662 925.3286,-838.5902 922.0228,-857.7958 903.6084,-934.6898 916.8035,-941.0657 937.8365,-1006.7 944.4911,-1044.5338 945.179,-1047.6124 975.8045,-1143.181 924.8908,-1165.8988 875.8461,-1168.6158 869.1368,-1169.139 860.3046,-1170.2269 849.8309,-1171.9913 833.507,-1175.4811 824.8417,-1178.1179 813.5392,-1181.8158 809.1885,-1183.4365 804.278,-1183.0918 793.2046,-1182.5367 790.7884,-1182.4641 765.0781,-1182.7228 763.4847,-1181.6534 686.1364,-1121.2892 649.8599,-1077.606 645.8206,-1070.4608 633.8458,-1050.2898 553.3763,-1017.3832 541.8124,-978.09 537.6129,-959.9373 573.9586,-900.0601 583.3396,-882.3082 605.8359,-836.1361 598.5359,-808.0555 595.7748,-792.2535 593.4888,-774.8583 593.4888,-774.8583"/>
<polygon fill="#bbd7d9" stroke="#bbd7d9" points="974.1747,-729.7968 987.6004,-737.7864 993.913,-741.3195 991.5948,-842.1281 993.0437,-842.5393 996.1572,-842.5393 996.5633,-842.426 997.8748,-842.426 1001.6448,-845.6478 1001.6448,-845.6478 997.8748,-842.426 996.5633,-842.426 996.1572,-842.5393 993.0437,-842.5393 991.5948,-842.1281 993.913,-741.3195 998.0457,-743.485 1014.257,-750.8465 1020.4708,-753.2206 1022.2068,-753.7616 1032.3749,-756.5801 1040.3835,-758.5184 1040.0952,-806.5162 1040.0952,-806.5162 1040.3835,-758.5184 1072.618,-764.0515 1081.999,-766.3425 1089.4535,-768.4328 1094.0619,-769.8903 1105.8984,-774.4951 1108.0183,-775.3954 1119.8972,-780.8709 1122.1274,-781.9769 1142.718,-794.4434 1177.9985,-817.0152 1170.5352,-842.53 1155.8464,-910.4449 1191.3307,-990.866 1191.3606,-993.6034 1192.0457,-1013.2676 1193.496,-1030.8491 1164.2457,-1083.6392 1102.6639,-1138.5992 1063.761,-1136.8563 1046.4395,-1136.8199 1042.5656,-1136.8945 1037.9608,-1137.1796 1023.7778,-1138.6644 1011.3027,-1140.5032 1009.9935,-1140.7518 1006.1042,-1013.0104 1006.1042,-1013.0104 1009.9935,-1140.7518 990.9465,-1144.7783 975.8045,-1143.181 945.179,-1047.6124 944.4911,-1044.5338 937.8365,-1006.7 916.8035,-941.0657 903.6084,-934.6898 922.0228,-857.7958 925.3286,-838.5902 926.1403,-835.3084 928.3901,-813.2074 952.0533,-714.3953 972.6094,-728.7585 974.1747,-729.7968 974.1747,-729.7968"/>
<polygon fill="#fed9a6" stroke="#fed9a6" points="1348.8706,-390.5829 1353.9482,-350.5388 1358.3867,-244.9493 1397.2281,-248.8431 1449.3198,-276.3551 1477.9961,-333.3033 1476.8583,-361.1506 1476.4412,-388.0894 1476.7996,-423.5468 1477.4705,-442.4421 1420.6091,-506.5436 1382.3721,-533.1039 1355.905,-534.0201 1345.5959,-534.5817 1332.3234,-536.0954 1326.958,-536.9207 1309.0273,-540.0361 1300.9681,-541.5945 1251.3892,-616.8547 1252.2708,-671.7648 1144.1837,-677.0172 1134.5988,-673.7872 1129.9535,-676.1959 1126.2094,-640.4379 1125.3765,-601.2107 1125.9512,-601.1758 1126.076,-525.1666 1130.1512,-521.8823 1125.1898,-517.5108 1121.7721,-516.5992 1121.7721,-516.5992 1125.1898,-517.5108 1130.1512,-521.8823 1126.076,-525.1666 1125.9512,-601.1758 1125.3765,-601.2107 1126.2094,-640.4379 1129.9535,-676.1959 1134.5988,-673.7872 1144.1837,-677.0172 1252.2708,-671.7648 1254.0425,-697.6625 1134.3843,-686.0331 1130.8224,-682.8184 1130.4962,-682.735 1130.4962,-682.735 1130.8224,-682.8184 1134.3843,-686.0331 1254.0425,-697.6625 1256.2794,-721.3777 1180.0898,-815.6042 1177.9985,-817.0152 1142.718,-794.4434 1122.1274,-781.9769 1119.8972,-780.8709 1108.0183,-775.3954 1108.7378,-683.9144 1112.7756,-680.5617 1108.8488,-677.1393 1103.5378,-675.5714 1103.5378,-675.5714 1108.8488,-677.1393 1112.7756,-680.5617 1108.7378,-683.9144 1108.0183,-775.3954 1105.8984,-774.4951 1094.0619,-769.8903 1089.4535,-768.4328 1081.999,-766.3425 1072.618,-764.0515 1040.3835,-758.5184 1032.3749,-756.5801 1022.2068,-753.7616 1020.4708,-753.2206 1014.257,-750.8465 998.0457,-743.485 993.913,-741.3195 987.6004,-737.7864 974.1747,-729.7968 972.6094,-728.7585 952.0533,-714.3953 947.3215,-707.2445 932.4411,-685.9164 910.638,-656.0883 892.0175,-656.1715 885.2014,-656.3136 873.9139,-656.3566 869.0938,-656.2106 865.7954,-656.1647 868.9371,-490.7725 868.9371,-490.7725 865.7954,-656.1647 864.0059,-656.1691 857.8412,-656.2853 857.2947,-656.2584 848.4469,-656.1117 845.4193,-654.6828 845.6435,-533.162 848.614,-495.1354 852.9877,-495.1354 852.9877,-495.1354 848.614,-495.1354 845.6435,-533.162 845.4193,-654.6828 837.9858,-651.4705 835.9012,-526.5567 835.9012,-526.5567 837.9858,-651.4705 822.6213,-645.4383 819.4926,-638.1418 783.7054,-562.5372 771.0547,-532.6139 761.7006,-502.1412 744.6846,-462.1012 722.0005,-414.1784 733.0913,-360.0402 709.8157,-331.1496 721.4937,-310.8004 727.6493,-301.0377 734.8198,-290.2127 761.9099,-251.4348 767.305,-243.0034 772.4655,-234.1028 792.1189,-196.1791 806.7925,-171.2843 804.6691,-169.2709 794.5284,-161.019 789.9033,-156.3774 738.6664,-109.5695 735.1403,-106.694 725.1337,-97.7232 710.9567,-82.7824 710.5376,-82.2431 701.1259,-71.8126 690.1707,-58.1561 672.8989,-34.2377 661.088,-15.5438 659.051,-11.8964 664.7775,11.7333 728.9074,38.4139 785.4354,32.7944 804.3057,31.3311 805.472,31.2665 813.9563,30.9829 815.717,30.9628 817.6044,-65.2006 814.4642,-93.0336 815.2491,-93.2634 816.7767,-162.4427 821.0468,-93.2634 821.4753,-93.1394 825.6171,-96.6398 825.6171,-96.6398 821.4753,-93.1394 821.0468,-93.2634 816.7767,-162.4427 815.2491,-93.2634 814.4642,-93.0336 817.6044,-65.2006 815.717,30.9628 826.0332,31.2998 834.8683,31.7831 843.6743,32.8472 857.5443,34.8299 854.0685,-65.7083 849.4346,-92.7345 846.0065,-92.7345 845.0612,-93.0014 847.5409,-121.572 852.3976,-93.6089 855.9003,-93.6089 856.8945,-93.3292 857.9976,-93.3292 860.8669,-97.0504 863.1119,-167.9461 861.4728,-168.0606 856.9418,-168.0112 854.2158,-239.2715 859.327,-237.8152 865.7482,-239.7501 868.7467,-242.274 870.0419,-242.274 871.5964,-242.7349 874.0925,-242.7349 875.1659,-244.4444 880.7945,-352.7501 863.0468,-361.2542 854.0858,-366.3742 864.144,-383.142 871.4835,-394.0438 880.9631,-406.4836 901.0059,-431 920.7782,-431 920.7782,-431 901.0059,-431 880.9631,-406.4836 871.4835,-394.0438 864.144,-383.142 854.0858,-366.3742 863.0468,-361.2542 880.7945,-352.7501 875.1659,-244.4444 874.0925,-242.7349 871.5964,-242.7349 870.0419,-242.274 868.7467,-242.274 865.7482,-239.7501 859.327,-237.8152 854.2158,-239.2715 856.9418,-168.0112 861.4728,-168.0606 863.1119,-167.9461 860.8669,-97.0504 857.9976,-93.3292 856.8945,-93.3292 855.9003,-93.6089 852.3976,-93.6089 847.5409,-121.572 845.0612,-93.0014 846.0065,-92.7345 849.4346,-92.7345 854.0685,-65.7083 857.5443,34.8299 858.6873,35.0434 871.1843,37.6536 865.9374,-88.124 972.1772,-59.4725 967.4229,-66.1655 970.1911,-131.2313 970.1911,-131.2313 967.4229,-66.1655 972.1772,-59.4725 865.9374,-88.124 871.1843,37.6536 885.1637,40.8785 922.1033,32.9544 1003.7764,-13.6033 1012.805,-13.262 1028.2767,-11.9036 1037.3546,-10.9557 1059.2048,-7.9496 1092.6234,-29.1783 1158.145,-153.5707 1169.9803,-174.741 1159.3068,-182.9393 1151.9349,-188.8976 1134.9817,-203.3526 1124.7576,-211.1996 1108.3054,-222.4228 1104.7267,-224.544 1100.6746,-226.6015 1086.2362,-233.3314 1083.8265,-234.348 1083.6676,-234.4081 1076.4624,-236.8301 1066.8751,-239.6415 1061.6467,-240.9459 1034.556,-246.5231 1021.8145,-250.2493 1022.0884,-218.7261 1019.2661,-175.3583 1015.156,-175.3583 1014.6792,-175.2243 1011.2147,-175.2243 1009.4978,-173.3069 1005.0944,-170.8874 1005.0944,-170.8874 1009.4978,-173.3069 1011.2147,-175.2243 1010.421,-176.1158 1003.9009,-179.972 1000.3145,-179.972 1000.3145,-179.972 1003.9009,-179.972 1010.421,-176.1158 1011.2147,-175.2243 1014.6792,-175.2243 1015.156,-175.3583 1019.2661,-175.3583 1022.0884,-218.7261 1021.8145,-250.2493 1011.8668,-254.011 1010.0339,-254.7815 994.4825,-262.6801 981.1481,-271.1743 972.6551,-277.3114 962.9118,-311.53 959.7372,-319.763 960.5297,-320.563 976.7822,-335.3731 985.0591,-342.0532 996.2138,-349.9185 1009.1732,-357.7248 1009.7045,-357.9893 1022.1579,-363.5716 1022.0332,-378.8528 1024.403,-424.6875 1024.403,-424.6875 1022.0332,-378.8528 1022.1579,-363.5716 1066.5631,-378.9276 1069.1937,-379.9676 1072.2917,-381.3485 1077.6354,-384.0036 1087.8813,-389.6194 1093.4183,-393.2099 1103.0884,-399.9751 1110.9255,-406.2454 1122.2336,-416.4566 1117.3324,-421.7224 1107.672,-431 1106.0736,-432.9182 1091.4548,-447.3916 1087.4978,-451.0145 1087.744,-477.5988 1087.744,-477.5988 1087.4978,-451.0145 1091.4548,-447.3916 1106.0736,-432.9182 1107.672,-431 1117.3324,-421.7224 1122.2336,-416.4566 1129.3501,-416.2523 1129.6191,-416.2661 1134.0077,-416.2588 1137.6942,-416.3509 1154.5692,-415.8793 1204.3779,-410.5469 1284.1835,-521.48 1186.0844,-521.48 1156.6801,-515.1185 1151.2764,-518.7865 1149.861,-520.9968 1149.0094,-521.6144 1151.1992,-524.739 1151.1992,-524.739 1149.0094,-521.6144 1149.861,-520.9968 1151.2764,-518.7865 1156.6801,-515.1185 1186.0844,-521.48 1284.1835,-521.48 1204.3779,-410.5469 1213.1779,-390.93 1229.0399,-345.2041 1241.4703,-312.9023 1260.9844,-266.3595 1278.2947,-227.7711 1306.3801,-234.9861 1328.8927,-240.3371 1329.434,-240.455 1340.9535,-242.5149 1358.3867,-244.9493 1353.9482,-350.5388 1348.8706,-390.5829 1346.017,-390.5829 1341.8785,-363.9104 1338.7532,-386.2472 1334.2518,-386.2472 1334.2518,-386.2472 1338.7532,-386.2472 1341.8785,-363.9104 1346.017,-390.5829 1348.8706,-390.5829 1348.8706,-390.5829"/>
<polygon fill="#fbb4ae" stroke="#fbb4ae" points="311.0842,46.9882 314.6704,-47.951 314.6704,-47.951 311.0842,46.9882 327.3326,54.2422 326.9464,-.7078 329.3109,-83.2248 327.9777,-84.7795 328.7958,-85.7692 328.7958,-85.7692 327.9777,-84.7795 329.3109,-83.2248 326.9464,-.7078 327.3326,54.2422 328.1309,54.6388 348.9243,85.4668 367.3692,91.2882 438.0675,107.592 439.0586,107.8445 450.2638,107.357 455.5232,107.249 463.1518,107.2679 465.9324,107.3387 478.4993,108.2369 479.0337,15.6145 476.0519,-13.3128 471.4163,-13.3128 465.7693,-16.6264 464.8344,-17.7178 466.3439,-19.5959 470.8528,-22.2833 476.8774,-22.2833 476.8774,-22.2833 470.8528,-22.2833 466.3439,-19.5959 464.8344,-17.7178 465.7693,-16.6264 471.4163,-13.3128 476.0519,-13.3128 482.8181,-17.4022 483.1309,-17.7558 486.5213,-17.7558 491.0903,-80.7951 492.2135,-129.2856 486.8604,-129.6105 488.3264,-193.5662 483.5507,-237.0129 478.9619,-239.6002 477.5395,-241.2119 479.6272,-243.6241 483.4396,-245.6995 483.4396,-245.6995 479.6272,-243.6241 477.5395,-241.2119 478.9619,-239.6002 483.5507,-237.0129 488.3264,-193.5662 486.8604,-129.6105 492.2135,-129.2856 497.6307,-129.239 507.3988,-129.6637 510.3949,-129.5679 523.6616,-128.8099 523.6616,-128.8099 510.3949,-129.5679 507.3988,-129.6637 497.6307,-129.239 492.2135,-129.2856 491.0903,-80.7951 486.5213,-17.7558 483.1309,-17.7558 482.8181,-17.4022 476.0519,-13.3128 479.0337,15.6145 478.4993,108.2369 485.8623,109.1022 499.6731,111.0433 505.3184,112.0948 550.2884,121.5002 551.2323,121.5843 563.5814,113.6619 654.8021,21.4204 664.7775,11.7333 659.051,-11.8964 637.0305,-33.1435 634.5622,-35.4294 545.6562,-125.8535 549.3446,-131.068 565.4236,-152.6149 585.2389,-181.3793 614.6443,-234.8831 628.9504,-255.7451 643.9065,-275.7872 652.4961,-288.0113 659.6592,-298.7741 671.5082,-318.4834 674.263,-319.1446 677.2903,-319.9977 689.9949,-323.8456 708.9936,-330.7974 709.8157,-331.1496 733.0913,-360.0402 722.0005,-414.1784 707.3407,-430.5851 705.8594,-432.1596 702.4235,-436.2815 682.2552,-456.8109 669.8821,-467.0296 669.7053,-467.1902 664.7934,-471.3031 655.5898,-477.7582 651.2191,-480.522 651.0064,-480.6419 637.5377,-487.3652 628.5713,-490.6057 627.2017,-491.0059 617.8574,-493.1076 605.0812,-494.2393 604.7878,-494.2452 602.3683,-494.1296 599.955,-493.8489 599.4244,-493.8245 594.5942,-493.9389 590.1622,-493.7414 586.0156,-494.1391 577.8947,-493.8044 577.352,-493.8201 574.744,-494.0787 573.4269,-494.119 560.9741,-495.3755 553.2131,-497.2382 549.0276,-498.5327 545.0256,-500.0499 536.7823,-503.7589 478.4868,-534.006 453.9711,-545.7776 439.8689,-551.7112 431.1818,-548.0098 412.5945,-538.8011 407.041,-535.6679 393.0317,-541.2773 376.0178,-546.6926 295.148,-570.7603 293.4496,-571.2999 289.7847,-572.6898 270.6721,-568.0618 258.3524,-565.5635 258.9936,-538.5662 256.1936,-419.8238 261.7176,-423.1611 267.2127,-423.1611 271.6693,-420.6146 273.9319,-456.1859 278.4549,-419.0759 278.4549,-419.0759 273.9319,-456.1859 271.6693,-420.6146 267.2127,-423.1611 261.7176,-423.1611 256.1936,-419.8238 258.9936,-538.5662 258.3524,-565.5635 250.2407,-564.3956 249.0819,-473.3699 249.0819,-473.3699 250.2407,-564.3956 241.7703,-563.5062 238.0285,-563.2591 224.564,-549.7427 218.406,-543.8216 111.7218,-430.0682 110.8342,-429.1697 105.908,-424.4338 92.5429,-411.0173 81.8809,-399.8886 76.3227,-393.6534 75.0764,-392.1545 72.0081,-388.6089 89.0698,-348.6874 63.6195,-235.9554 193.3881,-233.3297 198.3536,-228.8913 199.0568,-227.5935 203.6061,-227.5935 206.08,-262.3677 210.6962,-229.4478 215.2151,-232.0902 220.4852,-232.0902 220.4852,-232.0902 215.2151,-232.0902 210.6962,-229.4478 206.08,-262.3677 203.6061,-227.5935 199.0568,-227.5935 198.3536,-228.8913 193.3881,-233.3297 63.6195,-235.9554 62.5279,-231.6023 57.7648,-214.3368 52.6813,-197.4136 52.4827,-195.406 110.8938,-125.2378 167.6129,-77.9671 168.84,-72.106 171.1039,-58.416 243.3246,20.2123 311.0842,46.9882 311.0842,46.9882"/>
<polygon fill="#bbd7d9" stroke="#bbd7d9" points="1066.8751,-239.6415 1061.6467,-240.9459 1034.556,-246.5231 1021.8145,-250.2493 1011.8668,-254.011 1010.0339,-254.7815 994.4825,-262.6801 981.1481,-271.1743 972.6551,-277.3114 962.9118,-311.53 959.7372,-319.763 960.5297,-320.563 976.7822,-335.3731 985.0591,-342.0532 996.2138,-349.9185 1009.1732,-357.7248 1009.7045,-357.9893 1022.1579,-363.5716 1066.5631,-378.9276 1069.1937,-379.9676 1072.2917,-381.3485 1077.6354,-384.0036 1087.8813,-389.6194 1093.4183,-393.2099 1103.0884,-399.9751 1110.9255,-406.2454 1122.2336,-416.4566 1129.3501,-416.2523 1127.9167,-378.7376 1125.7459,-352.2586 1119.137,-311.5979 1116.6885,-311.5979 1116.5646,-311.5631 1116.5646,-311.5631 1116.6885,-311.5979 1119.137,-311.5979 1125.7459,-352.2586 1127.9167,-378.7376 1129.3501,-416.2523 1129.6191,-416.2661 1134.0077,-416.2588 1137.6942,-416.3509 1154.5692,-415.8793 1204.3779,-410.5469 1213.1779,-390.93 1229.0399,-345.2041 1241.4703,-312.9023 1260.9844,-266.3595 1136.0399,-306.618 1132.0673,-311.4177 1131.8102,-311.5689 1131.231,-311.5689 1130.2065,-311.2698 1125.9446,-311.2698 1125.9446,-311.2698 1130.2065,-311.2698 1131.231,-311.5689 1131.8102,-311.5689 1132.0673,-311.4177 1136.0399,-306.618 1260.9844,-266.3595 1278.2947,-227.7711 1268.1877,-214.7795 1169.9803,-174.741 1159.3068,-182.9393 1151.9349,-188.8976 1134.9817,-203.3526 1124.7576,-211.1996 1108.3054,-222.4228 1104.7267,-224.544 1100.6746,-226.6015 1086.2362,-233.3314 1083.8265,-234.348 1083.6676,-234.4081 1076.4624,-236.8301 1066.8751,-239.6415 1066.8751,-239.6415"/>
<polygon fill="#bbd7d9" stroke="#bbd7d9" points="565.4236,-152.6149 585.2389,-181.3793 614.6443,-234.8831 628.9504,-255.7451 643.9065,-275.7872 652.4961,-288.0113 659.6592,-298.7741 671.5082,-318.4834 674.263,-319.1446 672.3647,-207.5878 675.3933,-173.0602 675.2301,-173.0112 675.2301,-173.0112 675.3933,-173.0602 672.3647,-207.5878 674.263,-319.1446 677.2903,-319.9977 689.9949,-323.8456 708.9936,-330.7974 709.8157,-331.1496 721.4937,-310.8004 727.6493,-301.0377 734.8198,-290.2127 761.9099,-251.4348 767.305,-243.0034 772.4655,-234.1028 792.1189,-196.1791 806.7925,-171.2843 804.6691,-169.2709 794.5284,-161.019 789.9033,-156.3774 738.6664,-109.5695 735.1403,-106.694 725.1337,-97.7232 710.9567,-82.7824 710.5376,-82.2431 701.1259,-71.8126 690.1707,-58.1561 672.8989,-34.2377 661.088,-15.5438 659.051,-11.8964 637.0305,-33.1435 634.5622,-35.4294 545.6562,-125.8535 549.3446,-131.068 565.4236,-152.6149 565.4236,-152.6149"/>
<polygon fill="#fbb4ae" stroke="#fbb4ae" points="515.5394,-722.9991 526.4839,-714.0255 543.0173,-699.5355 555.7239,-689.7338 569.7925,-679.489 587.699,-748.3694 593.4888,-774.8583 595.7748,-792.2535 598.5359,-808.0555 605.8359,-836.1361 583.3396,-882.3082 573.9586,-900.0601 537.6129,-959.9373 524.9688,-949.0399 508.5602,-935.9547 499.9529,-929.666 485.0181,-919.742 483.3099,-918.7228 471.9495,-912.3168 461.185,-906.9656 457.565,-905.2888 393.1353,-877.6025 373.7977,-868.6055 371.0015,-867.1165 359.2011,-860.0047 349.2083,-853.6386 334.3727,-842.6484 326.9373,-836.8893 321.2408,-832.2875 320.7636,-829.8591 325.3281,-826.4922 361.186,-798.7538 373.0989,-788.9212 379.1824,-783.5207 391.2272,-773.538 393.6319,-771.6976 396.4896,-769.6854 400.63,-767.0164 417.1099,-758.2918 420.9288,-756.7361 434.0276,-752.1727 438.9688,-751.0535 441.3774,-750.6516 458.54,-748.8063 466.4368,-747.4887 470.0223,-746.6801 484.8946,-741.5377 494.755,-736.9769 505.9197,-729.8036 514.6822,-723.6503 515.5394,-722.9991 515.5394,-722.9991"/>
<polyline fill="none" stroke="#000000" points="637.2739,-655.8198 649.2142,-654.5986 657.5762,-653.9564 665.0129,-653.952 665.0439,-653.9511 673.1782,-654.1486 679.1671,-654.1377 683.4002,-654.3458 692.0814,-654.093 693.6366,-654.127 699.2849,-654.103 701.5851,-654.0331 710.4895,-654.2167 711.152,-654.2131 716.0083,-653.9334 725.0698,-653.6426 822.6213,-645.4383 819.4926,-638.1418 783.7054,-562.5372 771.0547,-532.6139 761.7006,-502.1412 744.6846,-462.1012 722.0005,-414.1784 707.3407,-430.5851 705.8594,-432.1596 702.4235,-436.2815 682.2552,-456.8109 669.8821,-467.0296 669.7053,-467.1902 664.7934,-471.3031 655.5898,-477.7582 651.2191,-480.522 651.0064,-480.6419 637.5377,-487.3652 628.5713,-490.6057 627.2017,-491.0059 617.8574,-493.1076 605.0812,-494.2393 604.7878,-494.2452 602.3683,-494.1296 599.955,-493.8489 599.4244,-493.8245 594.5942,-493.9389 590.1622,-493.7414 586.0156,-494.1391 577.8947,-493.8044 577.352,-493.8201 574.744,-494.0787 573.4269,-494.119 560.9741,-495.3755 553.2131,-497.2382 549.0276,-498.5327 545.0256,-500.0499 536.7823,-503.7589 478.4868,-534.006 453.9711,-545.7776 439.8689,-551.7112 431.1818,-548.0098 412.5945,-538.8011 407.041,-535.6679 393.0317,-541.2773 376.0178,-546.6926 295.148,-570.7603 293.4496,-571.2999 289.7847,-572.6898 270.6721,-568.0618 258.3524,-565.5635 250.2407,-564.3956 241.7703,-563.5062 238.0285,-563.2591 224.564,-549.7427 218.406,-543.8216 111.7218,-430.0682 110.8342,-429.1697 105.908,-424.4338 92.5429,-411.0173 81.8809,-399.8886 76.3227,-393.6534 75.0764,-392.1545 72.0081,-388.6089 64.6767,-392.1023 61.8172,-393.3472 50.0094,-398.248 38.4741,-402.562 -45.6409,-430.557 -112.6618,-485.253 -115.7219,-494.8203 -109.4941,-554.46 -109.2953,-559.259 -90.0937,-588.5354 -78.3854,-605.9648 -16.6794,-686.5472 -16.5707,-725.8619 -19.9524,-805.6 -23.7285,-812.2133 -22.8113,-816.2322 -7.4885,-852.5887 13.8586,-909.9778 31.4922,-961.3102 63.9775,-991.1404 131.3857,-1018.2268 145.9901,-1024.4388 165.7277,-1034.2136 171.6038,-1037.3917 171.6583,-1037.4225 177.451,-1040.9625 180.4286,-1041.6586 207.7044,-1071.6604 333.5924,-1105.298 334.8639,-1105.6691 345.2847,-1108.9702 345.4991,-1108.9326 350.6141,-1108.2668 361.1895,-1107.1302 370.9384,-1106.3046 375.0064,-1106.1453 389.9865,-1106.239 448.8636,-1107.9452 553.3763,-1017.3832 541.8124,-978.09 537.6129,-959.9373 524.9688,-949.0399 508.5602,-935.9547 499.9529,-929.666 485.0181,-919.742 483.3099,-918.7228 471.9495,-912.3168 461.185,-906.9656 457.565,-905.2888 393.1353,-877.6025 373.7977,-868.6055 371.0015,-867.1165 359.2011,-860.0047 349.2083,-853.6386 334.3727,-842.6484 326.9373,-836.8893 321.2408,-832.2875 320.7636,-829.8591 325.3281,-826.4922 361.186,-798.7538 373.0989,-788.9212 379.1824,-783.5207 391.2272,-773.538 393.6319,-771.6976 396.4896,-769.6854 400.63,-767.0164 417.1099,-758.2918 420.9288,-756.7361 434.0276,-752.1727 438.9688,-751.0535 441.3774,-750.6516 458.54,-748.8063 466.4368,-747.4887 470.0223,-746.6801 484.8946,-741.5377 494.755,-736.9769 505.9197,-729.8036 514.6822,-723.6503 515.5394,-722.9991 526.4839,-714.0255 543.0173,-699.5355 555.7239,-689.7338 569.7925,-679.489 571.1827,-675.1714 579.4405,-671.6 595.3301,-665.532 612.4078,-660.7422 616.8077,-659.6209 629.9191,-656.9454 637.2739,-655.8198 "/>
<polyline fill="none" stroke="#000000" points="824.8417,-1178.1179 813.5392,-1181.8158 809.1885,-1183.4365 804.278,-1183.0918 793.2046,-1182.5367 790.7884,-1182.4641 765.0781,-1182.7228 763.4847,-1181.6534 686.1364,-1121.2892 649.8599,-1077.606 645.8206,-1070.4608 633.8458,-1050.2898 553.3763,-1017.3832 541.8124,-978.09 537.6129,-959.9373 573.9586,-900.0601 583.3396,-882.3082 605.8359,-836.1361 598.5359,-808.0555 595.7748,-792.2535 593.4888,-774.8583 587.699,-748.3694 569.7925,-679.489 571.1827,-675.1714 579.4405,-671.6 595.3301,-665.532 612.4078,-660.7422 616.8077,-659.6209 629.9191,-656.9454 637.2739,-655.8198 649.2142,-654.5986 657.5762,-653.9564 665.0129,-653.952 665.0439,-653.9511 673.1782,-654.1486 679.1671,-654.1377 683.4002,-654.3458 692.0814,-654.093 693.6366,-654.127 699.2849,-654.103 701.5851,-654.0331 710.4895,-654.2167 711.152,-654.2131 716.0083,-653.9334 725.0698,-653.6426 822.6213,-645.4383 837.9858,-651.4705 845.4193,-654.6828 848.4469,-656.1117 857.2947,-656.2584 857.8412,-656.2853 864.0059,-656.1691 865.7954,-656.1647 869.0938,-656.2106 873.9139,-656.3566 885.2014,-656.3136 892.0175,-656.1715 910.638,-656.0883 932.4411,-685.9164 947.3215,-707.2445 952.0533,-714.3953 928.3901,-813.2074 926.1403,-835.3084 925.3286,-838.5902 922.0228,-857.7958 903.6084,-934.6898 916.8035,-941.0657 937.8365,-1006.7 944.4911,-1044.5338 945.179,-1047.6124 975.8045,-1143.181 924.8908,-1165.8988 875.8461,-1168.6158 869.1368,-1169.139 860.3046,-1170.2269 849.8309,-1171.9913 833.507,-1175.4811 824.8417,-1178.1179 "/>
<polyline fill="none" stroke="#000000" points="1023.7778,-1138.6644 1011.3027,-1140.5032 1009.9935,-1140.7518 990.9465,-1144.7783 975.8045,-1143.181 945.179,-1047.6124 944.4911,-1044.5338 937.8365,-1006.7 916.8035,-941.0657 903.6084,-934.6898 922.0228,-857.7958 925.3286,-838.5902 926.1403,-835.3084 928.3901,-813.2074 952.0533,-714.3953 972.6094,-728.7585 974.1747,-729.7968 987.6004,-737.7864 993.913,-741.3195 998.0457,-743.485 1014.257,-750.8465 1020.4708,-753.2206 1022.2068,-753.7616 1032.3749,-756.5801 1040.3835,-758.5184 1072.618,-764.0515 1081.999,-766.3425 1089.4535,-768.4328 1094.0619,-769.8903 1105.8984,-774.4951 1108.0183,-775.3954 1119.8972,-780.8709 1122.1274,-781.9769 1142.718,-794.4434 1177.9985,-817.0152 1170.5352,-842.53 1155.8464,-910.4449 1191.3307,-990.866 1191.3606,-993.6034 1192.0457,-1013.2676 1193.496,-1030.8491 1164.2457,-1083.6392 1102.6639,-1138.5992 1063.761,-1136.8563 1046.4395,-1136.8199 1042.5656,-1136.8945 1037.9608,-1137.1796 1023.7778,-1138.6644 "/>
<polyline fill="none" stroke="#000000" points="996.2138,-349.9185 985.0591,-342.0532 976.7822,-335.3731 960.5297,-320.563 959.7372,-319.763 962.9118,-311.53 972.6551,-277.3114 981.1481,-271.1743 994.4825,-262.6801 1010.0339,-254.7815 1011.8668,-254.011 1021.8145,-250.2493 1034.556,-246.5231 1061.6467,-240.9459 1066.8751,-239.6415 1076.4624,-236.8301 1083.6676,-234.4081 1083.8265,-234.348 1086.2362,-233.3314 1100.6746,-226.6015 1104.7267,-224.544 1108.3054,-222.4228 1124.7576,-211.1996 1134.9817,-203.3526 1151.9349,-188.8976 1159.3068,-182.9393 1169.9803,-174.741 1158.145,-153.5707 1092.6234,-29.1783 1059.2048,-7.9496 1037.3546,-10.9557 1028.2767,-11.9036 1012.805,-13.262 1003.7764,-13.6033 922.1033,32.9544 885.1637,40.8785 871.1843,37.6536 858.6873,35.0434 857.5443,34.8299 843.6743,32.8472 834.8683,31.7831 826.0332,31.2998 815.717,30.9628 813.9563,30.9829 805.472,31.2665 804.3057,31.3311 785.4354,32.7944 728.9074,38.4139 664.7775,11.7333 659.051,-11.8964 661.088,-15.5438 672.8989,-34.2377 690.1707,-58.1561 701.1259,-71.8126 710.5376,-82.2431 710.9567,-82.7824 725.1337,-97.7232 735.1403,-106.694 738.6664,-109.5695 789.9033,-156.3774 794.5284,-161.019 804.6691,-169.2709 806.7925,-171.2843 792.1189,-196.1791 772.4655,-234.1028 767.305,-243.0034 761.9099,-251.4348 734.8198,-290.2127 727.6493,-301.0377 721.4937,-310.8004 709.8157,-331.1496 733.0913,-360.0402 722.0005,-414.1784 744.6846,-462.1012 761.7006,-502.1412 771.0547,-532.6139 783.7054,-562.5372 819.4926,-638.1418 822.6213,-645.4383 837.9858,-651.4705 845.4193,-654.6828 848.4469,-656.1117 857.2947,-656.2584 857.8412,-656.2853 864.0059,-656.1691 865.7954,-656.1647 869.0938,-656.2106 873.9139,-656.3566 885.2014,-656.3136 892.0175,-656.1715 910.638,-656.0883 932.4411,-685.9164 947.3215,-707.2445 952.0533,-714.3953 972.6094,-728.7585 974.1747,-729.7968 987.6004,-737.7864 993.913,-741.3195 998.0457,-743.485 1014.257,-750.8465 1020.4708,-753.2206 1022.2068,-753.7616 1032.3749,-756.5801 1040.3835,-758.5184 1072.618,-764.0515 1081.999,-766.3425 1089.4535,-768.4328 1094.0619,-769.8903 1105.8984,-774.4951 1108.0183,-775.3954 1119.8972,-780.8709 1122.1274,-781.9769 1142.718,-794.4434 1177.9985,-817.0152 1180.0898,-815.6042 1256.2794,-721.3777 1254.0425,-697.6625 1252.2708,-671.7648 1251.3892,-616.8547 1300.9681,-541.5945 1309.0273,-540.0361 1326.958,-536.9207 1332.3234,-536.0954 1345.5959,-534.5817 1355.905,-534.0201 1382.3721,-533.1039 1420.6091,-506.5436 1477.4705,-442.4421 1476.7996,-423.5468 1476.4412,-388.0894 1476.8583,-361.1506 1477.9961,-333.3033 1449.3198,-276.3551 1397.2281,-248.8431 1358.3867,-244.9493 1340.9535,-242.5149 1329.434,-240.455 1328.8927,-240.3371 1306.3801,-234.9861 1278.2947,-227.7711 1260.9844,-266.3595 1241.4703,-312.9023 1229.0399,-345.2041 1213.1779,-390.93 1204.3779,-410.5469 1154.5692,-415.8793 1137.6942,-416.3509 1134.0077,-416.2588 1129.6191,-416.2661 1129.3501,-416.2523 1122.2336,-416.4566 1110.9255,-406.2454 1103.0884,-399.9751 1093.4183,-393.2099 1087.8813,-389.6194 1077.6354,-384.0036 1072.2917,-381.3485 1069.1937,-379.9676 1066.5631,-378.9276 1022.1579,-363.5716 1009.7045,-357.9893 1009.1732,-357.7248 996.2138,-349.9185 "/>
<polyline fill="none" stroke="#000000" points="573.4269,-494.119 574.744,-494.0787 577.352,-493.8201 577.8947,-493.8044 586.0156,-494.1391 590.1622,-493.7414 594.5942,-493.9389 599.4244,-493.8245 599.955,-493.8489 602.3683,-494.1296 604.7878,-494.2452 605.0812,-494.2393 617.8574,-493.1076 627.2017,-491.0059 628.5713,-490.6057 637.5377,-487.3652 651.0064,-480.6419 651.2191,-480.522 655.5898,-477.7582 664.7934,-471.3031 669.7053,-467.1902 669.8821,-467.0296 682.2552,-456.8109 702.4235,-436.2815 705.8594,-432.1596 707.3407,-430.5851 722.0005,-414.1784 733.0913,-360.0402 709.8157,-331.1496 708.9936,-330.7974 689.9949,-323.8456 677.2903,-319.9977 674.263,-319.1446 671.5082,-318.4834 659.6592,-298.7741 652.4961,-288.0113 643.9065,-275.7872 628.9504,-255.7451 614.6443,-234.8831 585.2389,-181.3793 565.4236,-152.6149 549.3446,-131.068 545.6562,-125.8535 634.5622,-35.4294 637.0305,-33.1435 659.051,-11.8964 664.7775,11.7333 654.8021,21.4204 563.5814,113.6619 551.2323,121.5843 550.2884,121.5002 505.3184,112.0948 499.6731,111.0433 485.8623,109.1022 478.4993,108.2369 465.9324,107.3387 463.1518,107.2679 455.5232,107.249 450.2638,107.357 439.0586,107.8445 438.0675,107.592 367.3692,91.2882 348.9243,85.4668 328.1309,54.6388 327.3326,54.2422 311.0842,46.9882 243.3246,20.2123 171.1039,-58.416 168.84,-72.106 167.6129,-77.9671 110.8938,-125.2378 52.4827,-195.406 52.6813,-197.4136 57.7648,-214.3368 62.5279,-231.6023 63.6195,-235.9554 89.0698,-348.6874 72.0081,-388.6089 75.0764,-392.1545 76.3227,-393.6534 81.8809,-399.8886 92.5429,-411.0173 105.908,-424.4338 110.8342,-429.1697 111.7218,-430.0682 218.406,-543.8216 224.564,-549.7427 238.0285,-563.2591 241.7703,-563.5062 250.2407,-564.3956 258.3524,-565.5635 270.6721,-568.0618 289.7847,-572.6898 293.4496,-571.2999 295.148,-570.7603 376.0178,-546.6926 393.0317,-541.2773 407.041,-535.6679 412.5945,-538.8011 431.1818,-548.0098 439.8689,-551.7112 453.9711,-545.7776 478.4868,-534.006 536.7823,-503.7589 545.0256,-500.0499 549.0276,-498.5327 553.2131,-497.2382 560.9741,-495.3755 573.4269,-494.119 "/>
<polyline fill="none" stroke="#000000" points="1093.4183,-393.2099 1103.0884,-399.9751 1110.9255,-406.2454 1122.2336,-416.4566 1129.3501,-416.2523 1129.6191,-416.2661 1134.0077,-416.2588 1137.6942,-416.3509 1154.5692,-415.8793 1204.3779,-410.5469 1213.1779,-390.93 1229.0399,-345.2041 1241.4703,-312.9023 1260.9844,-266.3595 1278.2947,-227.7711 1268.1877,-214.7795 1169.9803,-174.741 1159.3068,-182.9393 1151.9349,-188.8976 1134.9817,-203.3526 1124.7576,-211.1996 1108.3054,-222.4228 1104.7267,-224.544 1100.6746,-226.6015 1086.2362,-233.3314 1083.8265,-234.348 1083.6676,-234.4081 1076.4624,-236.8301 1066.8751,-239.6415 1061.6467,-240.9459 1034.556,-246.5231 1021.8145,-250.2493 1011.8668,-254.011 1010.0339,-254.7815 994.4825,-262.6801 981.1481,-271.1743 972.6551,-277.3114 962.9118,-311.53 959.7372,-319.763 960.5297,-320.563 976.7822,-335.3731 985.0591,-342.0532 996.2138,-349.9185 1009.1732,-357.7248 1009.7045,-357.9893 1022.1579,-363.5716 1066.5631,-378.9276 1069.1937,-379.9676 1072.2917,-381.3485 1077.6354,-384.0036 1087.8813,-389.6194 1093.4183,-393.2099 "/>
<polyline fill="none" stroke="#000000" points="689.9949,-323.8456 708.9936,-330.7974 709.8157,-331.1496 721.4937,-310.8004 727.6493,-301.0377 734.8198,-290.2127 761.9099,-251.4348 767.305,-243.0034 772.4655,-234.1028 792.1189,-196.1791 806.7925,-171.2843 804.6691,-169.2709 794.5284,-161.019 789.9033,-156.3774 738.6664,-109.5695 735.1403,-106.694 725.1337,-97.7232 710.9567,-82.7824 710.5376,-82.2431 701.1259,-71.8126 690.1707,-58.1561 672.8989,-34.2377 661.088,-15.5438 659.051,-11.8964 637.0305,-33.1435 634.5622,-35.4294 545.6562,-125.8535 549.3446,-131.068 565.4236,-152.6149 585.2389,-181.3793 614.6443,-234.8831 628.9504,-255.7451 643.9065,-275.7872 652.4961,-288.0113 659.6592,-298.7741 671.5082,-318.4834 674.263,-319.1446 677.2903,-319.9977 689.9949,-323.8456 "/>
<polyline fill="none" stroke="#000000" points="485.0181,-919.742 499.9529,-929.666 508.5602,-935.9547 524.9688,-949.0399 537.6129,-959.9373 573.9586,-900.0601 583.3396,-882.3082 605.8359,-836.1361 598.5359,-808.0555 595.7748,-792.2535 593.4888,-774.8583 587.699,-748.3694 569.7925,-679.489 555.7239,-689.7338 543.0173,-699.5355 526.4839,-714.0255 515.5394,-722.9991 514.6822,-723.6503 505.9197,-729.8036 494.755,-736.9769 484.8946,-741.5377 470.0223,-746.6801 466.4368,-747.4887 458.54,-748.8063 441.3774,-750.6516 438.9688,-751.0535 434.0276,-752.1727 420.9288,-756.7361 417.1099,-758.2918 400.63,-767.0164 396.4896,-769.6854 393.6319,-771.6976 391.2272,-773.538 379.1824,-783.5207 373.0989,-788.9212 361.186,-798.7538 325.3281,-826.4922 320.7636,-829.8591 321.2408,-832.2875 326.9373,-836.8893 334.3727,-842.6484 349.2083,-853.6386 359.2011,-860.0047 371.0015,-867.1165 373.7977,-868.6055 393.1353,-877.6025 457.565,-905.2888 461.185,-906.9656 471.9495,-912.3168 483.3099,-918.7228 485.0181,-919.742 "/>
<!-- device&#45;mapper&#45;libs&#45;&gt;Fedora Container Base -->
<g id="edge1" class="edge">
<title>device&#45;mapper&#45;libs&#45;&gt;Fedora Container Base</title>
<path fill="none" stroke="#444444" stroke-opacity="0.333333" d="M826.4768,-1028.3324C797.8914,-952.2479 688.1868,-660.2519 653.9309,-569.0743"/>
<polygon fill="#444444" fill-opacity="0.333333" stroke="#444444" stroke-opacity="0.333333" points="657.1982,-567.819 650.4048,-559.6889 650.6455,-570.281 657.1982,-567.819"/>
</g>
<!-- device&#45;mapper&#45;libs&#45;&gt;device&#45;mapper -->
<g id="edge2" class="edge">
<title>device&#45;mapper&#45;libs&#45;&gt;device&#45;mapper</title>
<path fill="none" stroke="#444444" stroke-opacity="0.333333" d="M838.0371,-1028.382C843.2404,-989.2533 847.446,-896.9484 846.4189,-850.1653"/>
<polygon fill="#444444" fill-opacity="0.333333" stroke="#444444" stroke-opacity="0.333333" points="849.9149,-849.9851 846.0817,-840.1081 842.9189,-850.2198 849.9149,-849.9851"/>
</g>
<!-- device&#45;mapper&#45;&gt;Fedora Container Base -->
<g id="edge32" class="edge">
<title>device&#45;mapper&#45;&gt;Fedora Container Base</title>
<path fill="none" stroke="#444444" stroke-opacity="0.333333" d="M829.9014,-803.544C795.5359,-755.2326 702.5811,-624.5559 662.4823,-568.1847"/>
<polygon fill="#444444" fill-opacity="0.333333" stroke="#444444" stroke-opacity="0.333333" points="665.1662,-565.9194 656.5176,-559.7994 659.4621,-569.9769 665.1662,-565.9194"/>
</g>
<!-- device&#45;mapper&#45;&gt;device&#45;mapper&#45;libs -->
<g id="edge33" class="edge">
<title>device&#45;mapper&#45;&gt;device&#45;mapper&#45;libs</title>
<path fill="none" stroke="#444444" stroke-opacity="0.333333" d="M838.2829,-840.148C833.0796,-879.2767 828.874,-971.5816 829.9011,-1018.3647"/>
<polygon fill="#444444" fill-opacity="0.333333" stroke="#444444" stroke-opacity="0.333333" points="826.4051,-1018.5449 830.2383,-1028.4219 833.4011,-1018.3102 826.4051,-1018.5449"/>
</g>
<!-- device&#45;mapper&#45;&gt;systemd -->
<g id="edge34" class="edge">
<title>device&#45;mapper&#45;&gt;systemd</title>
<path fill="none" stroke="#444444" stroke-opacity="0.333333" d="M843.4132,-803.6388C844.7133,-748.7488 848.5881,-585.1532 850.1582,-518.8652"/>
<polygon fill="#444444" fill-opacity="0.333333" stroke="#444444" stroke-opacity="0.333333" points="853.6602,-518.8148 850.3981,-508.7347 846.6622,-518.649 853.6602,-518.8148"/>
</g>
<!-- device&#45;mapper&#45;&gt;util&#45;linux -->
<g id="edge35" class="edge">
<title>device&#45;mapper&#45;&gt;util&#45;linux</title>
<path fill="none" stroke="#444444" stroke-opacity="0.333333" d="M795.591,-803.8783C782.3348,-798.8287 767.7889,-793.2877 754.038,-788.0496"/>
<polygon fill="#444444" fill-opacity="0.333333" stroke="#444444" stroke-opacity="0.333333" points="755.2616,-784.7705 744.6707,-784.4814 752.7698,-791.312 755.2616,-784.7705"/>
</g>
<!-- libargon2&#45;&gt;Fedora Container Base -->
<g id="edge3" class="edge">
<title>libargon2&#45;&gt;Fedora Container Base</title>
<path fill="none" stroke="#444444" stroke-opacity="0.333333" d="M1019.2743,-988.4718C958.7497,-916.4848 736.2144,-651.8046 665.4251,-567.609"/>
<polygon fill="#444444" fill-opacity="0.333333" stroke="#444444" stroke-opacity="0.333333" points="667.9841,-565.2139 658.8698,-559.8121 662.6262,-569.7187 667.9841,-565.2139"/>
</g>
<!-- dbus&#45;broker&#45;&gt;Fedora Container Base -->
<g id="edge4" class="edge">
<title>dbus&#45;broker&#45;&gt;Fedora Container Base</title>
<path fill="none" stroke="#444444" stroke-opacity="0.333333" d="M934.0927,-449.0339C871.3538,-469.0529 770.4125,-501.2619 705.5745,-521.9508"/>
<polygon fill="#444444" fill-opacity="0.333333" stroke="#444444" stroke-opacity="0.333333" points="704.3474,-518.6684 695.8846,-525.0427 706.4754,-525.3371 704.3474,-518.6684"/>
</g>
<!-- dbus&#45;broker&#45;&gt;dbus&#45;common -->
<g id="edge5" class="edge">
<title>dbus&#45;broker&#45;&gt;dbus&#45;common</title>
<path fill="none" stroke="#444444" stroke-opacity="0.333333" d="M1016.683,-449.0925C1036.7595,-463.0239 1064.6904,-482.4057 1086.5986,-497.6082"/>
<polygon fill="#444444" fill-opacity="0.333333" stroke="#444444" stroke-opacity="0.333333" points="1084.7611,-500.5933 1094.9722,-503.4188 1088.7518,-494.8422 1084.7611,-500.5933"/>
</g>
<!-- dbus&#45;broker&#45;&gt;shadow&#45;utils -->
<g id="edge6" class="edge">
<title>dbus&#45;broker&#45;&gt;shadow&#45;utils</title>
<path fill="none" stroke="#444444" stroke-opacity="0.333333" d="M916.9254,-433.7194C842.5788,-436.4632 728.0841,-440.6887 651.2588,-443.524"/>
<polygon fill="#444444" fill-opacity="0.333333" stroke="#444444" stroke-opacity="0.333333" points="651.0098,-440.0307 641.1458,-443.8972 651.2681,-447.0259 651.0098,-440.0307"/>
</g>
<!-- dbus&#45;broker&#45;&gt;systemd -->
<g id="edge7" class="edge">
<title>dbus&#45;broker&#45;&gt;systemd</title>
<path fill="none" stroke="#444444" stroke-opacity="0.333333" d="M948.2921,-449.0134C934.0545,-455.0739 917.9988,-461.9083 903.0886,-468.2551"/>
<polygon fill="#444444" fill-opacity="0.333333" stroke="#444444" stroke-opacity="0.333333" points="901.3168,-465.2054 893.4865,-472.3425 904.0584,-471.6462 901.3168,-465.2054"/>
</g>
<!-- dbus&#45;common&#45;&gt;Fedora Container Base -->
<g id="edge8" class="edge">
<title>dbus&#45;common&#45;&gt;Fedora Container Base</title>
<path fill="none" stroke="#444444" stroke-opacity="0.333333" d="M1043.2431,-524.7753C973.1762,-527.7447 868.4768,-532.1819 783.8254,-535.7694"/>
<polygon fill="#444444" fill-opacity="0.333333" stroke="#444444" stroke-opacity="0.333333" points="783.448,-532.2822 773.6052,-536.2025 783.7444,-539.2759 783.448,-532.2822"/>
</g>
<!-- dbus&#45;common&#45;&gt;dbus&#45;common -->
<g id="edge9" class="edge">
<title>dbus&#45;common&#45;&gt;dbus&#45;common</title>
<path fill="none" stroke="#444444" stroke-opacity="0.333333" d="M1198.5655,-527.5033C1209.315,-526.5112 1216.5,-524.5034 1216.5,-521.48 1216.5,-519.5431 1213.5513,-518.0231 1208.6057,-516.9198"/>
<polygon fill="#444444" fill-opacity="0.333333" stroke="#444444" stroke-opacity="0.333333" points="1208.9657,-513.4354 1198.5655,-515.4567 1207.9562,-520.3623 1208.9657,-513.4354"/>
</g>
<!-- dbus&#45;common&#45;&gt;systemd -->
<g id="edge10" class="edge">
<title>dbus&#45;common&#45;&gt;systemd</title>
<path fill="none" stroke="#444444" stroke-opacity="0.333333" d="M1043.2181,-512.5609C1005.3159,-508.2147 960.0256,-503.0213 922.9118,-498.7655"/>
<polygon fill="#444444" fill-opacity="0.333333" stroke="#444444" stroke-opacity="0.333333" points="923.0071,-495.2536 912.6735,-497.5915 922.2096,-502.208 923.0071,-495.2536"/>
</g>
<!-- shadow&#45;utils&#45;&gt;Fedora Container Base -->
<g id="edge11" class="edge">
<title>shadow&#45;utils&#45;&gt;Fedora Container Base</title>
<path fill="none" stroke="#444444" stroke-opacity="0.333333" d="M584.483,-464.8655C595.6069,-479.313 611.2493,-499.6289 623.6567,-515.7432"/>
<polygon fill="#444444" fill-opacity="0.333333" stroke="#444444" stroke-opacity="0.333333" points="620.935,-517.9455 629.809,-523.7337 626.4814,-513.6749 620.935,-517.9455"/>
</g>
<!-- shadow&#45;utils&#45;&gt;shadow&#45;utils -->
<g id="edge12" class="edge">
<title>shadow&#45;utils&#45;&gt;shadow&#45;utils</title>
<path fill="none" stroke="#444444" stroke-opacity="0.333333" d="M641.1756,-452.6334C651.719,-451.68 658.85,-449.6389 658.85,-446.51 658.85,-444.5544 656.0644,-443.0238 651.4012,-441.918"/>
<polygon fill="#444444" fill-opacity="0.333333" stroke="#444444" stroke-opacity="0.333333" points="651.5838,-438.4064 641.1756,-440.3866 650.5469,-445.3292 651.5838,-438.4064"/>
</g>
<!-- shadow&#45;utils&#45;&gt;libsemanage -->
<g id="edge13" class="edge">
<title>shadow&#45;utils&#45;&gt;libsemanage</title>
<path fill="none" stroke="#444444" stroke-opacity="0.333333" d="M499.7401,-440.1087C455.1632,-436.0676 397.2871,-430.8207 350.0673,-426.5399"/>
<polygon fill="#444444" fill-opacity="0.333333" stroke="#444444" stroke-opacity="0.333333" points="350.1298,-423.0313 339.8546,-425.6141 349.4977,-430.0027 350.1298,-423.0313"/>
</g>
<!-- systemd&#45;&gt;Fedora Container Base -->
<g id="edge14" class="edge">
<title>systemd&#45;&gt;Fedora Container Base</title>
<path fill="none" stroke="#444444" stroke-opacity="0.333333" d="M789.2301,-505.726C766.8951,-511.2467 741.4251,-517.5423 718.1006,-523.3076"/>
<polygon fill="#444444" fill-opacity="0.333333" stroke="#444444" stroke-opacity="0.333333" points="717.1191,-519.9448 708.2511,-525.7421 718.7989,-526.7402 717.1191,-519.9448"/>
</g>
<!-- systemd&#45;&gt;shadow&#45;utils -->
<g id="edge15" class="edge">
<title>systemd&#45;&gt;shadow&#45;utils</title>
<path fill="none" stroke="#444444" stroke-opacity="0.333333" d="M789.2775,-480.8462C748.6599,-474.4758 695.0219,-466.0633 651.0045,-459.1597"/>
<polygon fill="#444444" fill-opacity="0.333333" stroke="#444444" stroke-opacity="0.333333" points="651.3257,-455.6674 640.9041,-457.5756 650.241,-462.5828 651.3257,-455.6674"/>
</g>
<!-- systemd&#45;&gt;systemd -->
<g id="edge16" class="edge">
<title>systemd&#45;&gt;systemd</title>
<path fill="none" stroke="#444444" stroke-opacity="0.333333" d="M912.4967,-496.8013C923.0313,-495.9403 930.33,-493.8398 930.33,-490.5 930.33,-488.3604 927.3346,-486.7295 922.412,-485.6072"/>
<polygon fill="#444444" fill-opacity="0.333333" stroke="#444444" stroke-opacity="0.333333" points="922.8896,-482.14 912.4967,-484.1987 921.9051,-489.0704 922.8896,-482.14"/>
</g>
<!-- systemd&#45;&gt;util&#45;linux -->
<g id="edge17" class="edge">
<title>systemd&#45;&gt;util&#45;linux</title>
<path fill="none" stroke="#444444" stroke-opacity="0.333333" d="M840.7381,-508.598C814.3928,-555.8435 743.4235,-683.1138 712.16,-739.1792"/>
<polygon fill="#444444" fill-opacity="0.333333" stroke="#444444" stroke-opacity="0.333333" points="708.9625,-737.7269 707.1491,-748.1654 715.0762,-741.1361 708.9625,-737.7269"/>
</g>
<!-- systemd&#45;&gt;iptables&#45;libs -->
<g id="edge18" class="edge">
<title>systemd&#45;&gt;iptables&#45;libs</title>
<path fill="none" stroke="#444444" stroke-opacity="0.333333" d="M812.3364,-508.5821C732.259,-546.198 547.9315,-632.7846 460.4681,-673.87"/>
<polygon fill="#444444" fill-opacity="0.333333" stroke="#444444" stroke-opacity="0.333333" points="458.8659,-670.7557 451.3029,-678.1753 461.8421,-677.0915 458.8659,-670.7557"/>
</g>
<!-- systemd&#45;&gt;acl -->
<g id="edge19" class="edge">
<title>systemd&#45;&gt;acl</title>
<path fill="none" stroke="#444444" stroke-opacity="0.333333" d="M851.4837,-472.2794C853.0186,-429.4985 856.8619,-322.3748 858.7041,-271.025"/>
<polygon fill="#444444" fill-opacity="0.333333" stroke="#444444" stroke-opacity="0.333333" points="862.2045,-271.0764 859.0653,-260.9573 855.209,-270.8253 862.2045,-271.0764"/>
</g>
<!-- systemd&#45;&gt;cryptsetup&#45;libs -->
<g id="edge20" class="edge">
<title>systemd&#45;&gt;cryptsetup&#45;libs</title>
<path fill="none" stroke="#444444" stroke-opacity="0.333333" d="M859.0065,-508.931C884.7283,-566.9117 964.0993,-745.8256 994.7482,-814.9126"/>
<polygon fill="#444444" fill-opacity="0.333333" stroke="#444444" stroke-opacity="0.333333" points="991.6499,-816.5599 998.9044,-824.2814 998.0486,-813.7212 991.6499,-816.5599"/>
</g>
<!-- systemd&#45;&gt;dbus -->
<g id="edge21" class="edge">
<title>systemd&#45;&gt;dbus</title>
<path fill="none" stroke="#444444" stroke-opacity="0.333333" d="M912.3658,-477.8894C1008.7496,-458.1373 1193.6411,-420.2473 1284.1593,-401.6972"/>
<polygon fill="#444444" fill-opacity="0.333333" stroke="#444444" stroke-opacity="0.333333" points="1285.1001,-405.0773 1294.1939,-399.6408 1283.6948,-398.2198 1285.1001,-405.0773"/>
</g>
<!-- systemd&#45;&gt;kmod&#45;libs -->
<g id="edge22" class="edge">
<title>systemd&#45;&gt;kmod&#45;libs</title>
<path fill="none" stroke="#444444" stroke-opacity="0.333333" d="M875.0571,-508.7027C920.8058,-543.0753 1019.9112,-617.5368 1071.2362,-656.099"/>
<polygon fill="#444444" fill-opacity="0.333333" stroke="#444444" stroke-opacity="0.333333" points="1069.249,-658.9838 1079.3463,-662.1925 1073.4538,-653.3874 1069.249,-658.9838"/>
</g>
<!-- systemd&#45;&gt;libfdisk -->
<g id="edge23" class="edge">
<title>systemd&#45;&gt;libfdisk</title>
<path fill="none" stroke="#444444" stroke-opacity="0.333333" d="M844.282,-508.6192C821.1081,-572.7448 742.88,-789.2136 715.001,-866.3587"/>
<polygon fill="#444444" fill-opacity="0.333333" stroke="#444444" stroke-opacity="0.333333" points="711.667,-865.2864 711.5599,-875.8807 718.2503,-867.6656 711.667,-865.2864"/>
</g>
<!-- systemd&#45;&gt;libseccomp -->
<g id="edge24" class="edge">
<title>systemd&#45;&gt;libseccomp</title>
<path fill="none" stroke="#444444" stroke-opacity="0.333333" d="M859.6168,-472.1882C884.9949,-419.2997 958.5166,-266.0788 988.8119,-202.9427"/>
<polygon fill="#444444" fill-opacity="0.333333" stroke="#444444" stroke-opacity="0.333333" points="992.1183,-204.1423 993.289,-193.6123 985.8073,-201.114 992.1183,-204.1423"/>
</g>
<!-- systemd&#45;&gt;qrencode&#45;libs -->
<g id="edge25" class="edge">
<title>systemd&#45;&gt;qrencode&#45;libs</title>
<path fill="none" stroke="#444444" stroke-opacity="0.333333" d="M876.1133,-472.3545C921.2949,-439.9281 1015.8923,-372.0367 1066.5223,-335.7001"/>
<polygon fill="#444444" fill-opacity="0.333333" stroke="#444444" stroke-opacity="0.333333" points="1068.7663,-338.3977 1074.8498,-329.7235 1064.6848,-332.7108 1068.7663,-338.3977"/>
</g>
<!-- systemd&#45;&gt;systemd&#45;pam -->
<g id="edge26" class="edge">
<title>systemd&#45;&gt;systemd&#45;pam</title>
<path fill="none" stroke="#444444" stroke-opacity="0.333333" d="M852.9379,-472.2415C854.4487,-408.9143 843.9759,-198.4077 835.7906,-121.5675"/>
<polygon fill="#444444" fill-opacity="0.333333" stroke="#444444" stroke-opacity="0.333333" points="839.2218,-120.7679 834.6012,-111.2337 832.2677,-121.5683 839.2218,-120.7679"/>
</g>
<!-- systemd&#45;&gt;systemd&#45;rpm&#45;macros -->
<g id="edge27" class="edge">
<title>systemd&#45;&gt;systemd&#45;rpm&#45;macros</title>
<path fill="none" stroke="#444444" stroke-opacity="0.333333" d="M841.5269,-472.0569C814.5385,-418.5537 736.1255,-263.1035 704.3163,-200.0432"/>
<polygon fill="#444444" fill-opacity="0.333333" stroke="#444444" stroke-opacity="0.333333" points="707.428,-198.4404 699.7992,-191.0883 701.1781,-201.5931 707.428,-198.4404"/>
</g>
<!-- libsemanage&#45;&gt;Fedora Container Base -->
<g id="edge48" class="edge">
<title>libsemanage&#45;&gt;Fedora Container Base</title>
<path fill="none" stroke="#444444" stroke-opacity="0.333333" d="M319.8243,-436.7697C389.8062,-459.4483 509.6481,-498.2848 582.2663,-521.8177"/>
<polygon fill="#444444" fill-opacity="0.333333" stroke="#444444" stroke-opacity="0.333333" points="581.5975,-525.2801 592.1895,-525.0335 583.7555,-518.6211 581.5975,-525.2801"/>
</g>
<!-- libsemanage&#45;&gt;libsemanage -->
<g id="edge49" class="edge">
<title>libsemanage&#45;&gt;libsemanage</title>
<path fill="none" stroke="#444444" stroke-opacity="0.333333" d="M339.8225,-424.8174C350.5509,-423.8377 357.75,-421.8186 357.75,-418.76 357.75,-416.8006 354.7955,-415.2678 349.8513,-414.1615"/>
<polygon fill="#444444" fill-opacity="0.333333" stroke="#444444" stroke-opacity="0.333333" points="350.2223,-410.6787 339.8225,-412.7026 349.2145,-417.6058 350.2223,-410.6787"/>
</g>
<!-- util&#45;linux&#45;&gt;Fedora Container Base -->
<g id="edge28" class="edge">
<title>util&#45;linux&#45;&gt;Fedora Container Base</title>
<path fill="none" stroke="#444444" stroke-opacity="0.333333" d="M692.7427,-748.3281C683.4523,-709.2271 661.3736,-616.3038 650.2687,-569.5662"/>
<polygon fill="#444444" fill-opacity="0.333333" stroke="#444444" stroke-opacity="0.333333" points="653.6646,-568.7177 647.9476,-559.7976 646.8542,-570.3359 653.6646,-568.7177"/>
</g>
<!-- util&#45;linux&#45;&gt;util&#45;linux -->
<g id="edge29" class="edge">
<title>util&#45;linux&#45;&gt;util&#45;linux</title>
<path fill="none" stroke="#444444" stroke-opacity="0.333333" d="M761.6997,-772.5753C772.2615,-771.6813 779.52,-769.5995 779.52,-766.33 779.52,-764.2355 776.5411,-762.6284 771.6232,-761.5087"/>
<polygon fill="#444444" fill-opacity="0.333333" stroke="#444444" stroke-opacity="0.333333" points="772.0955,-758.0407 761.6997,-760.0847 771.1011,-764.9698 772.0955,-758.0407"/>
</g>
<!-- util&#45;linux&#45;&gt;libfdisk -->
<g id="edge30" class="edge">
<title>util&#45;linux&#45;&gt;libfdisk</title>
<path fill="none" stroke="#444444" stroke-opacity="0.333333" d="M698.1506,-784.3442C699.4729,-805.4118 701.6788,-840.5561 703.2356,-865.3607"/>
<polygon fill="#444444" fill-opacity="0.333333" stroke="#444444" stroke-opacity="0.333333" points="699.7595,-865.8532 703.8792,-875.6142 706.7458,-865.4146 699.7595,-865.8532"/>
</g>
<!-- util&#45;linux&#45;&gt;libutempter -->
<g id="edge31" class="edge">
<title>util&#45;linux&#45;&gt;libutempter</title>
<path fill="none" stroke="#444444" stroke-opacity="0.333333" d="M632.3208,-777.7473C612.1257,-781.3111 589.6361,-785.2798 568.6349,-788.9858"/>
<polygon fill="#444444" fill-opacity="0.333333" stroke="#444444" stroke-opacity="0.333333" points="568.0235,-785.5395 558.784,-790.7242 569.2401,-792.433 568.0235,-785.5395"/>
</g>
<!-- iptables&#45;libs&#45;&gt;Fedora Container Base -->
<g id="edge36" class="edge">
<title>iptables&#45;libs&#45;&gt;Fedora Container Base</title>
<path fill="none" stroke="#444444" stroke-opacity="0.333333" d="M439.6802,-678.2552C481.592,-650.1978 562.396,-596.1045 608.7275,-565.0884"/>
<polygon fill="#444444" fill-opacity="0.333333" stroke="#444444" stroke-opacity="0.333333" points="610.8736,-567.8637 617.2364,-559.3923 606.9795,-562.0468 610.8736,-567.8637"/>
</g>
<!-- iptables&#45;libs&#45;&gt;iptables&#45;libs -->
<g id="edge37" class="edge">
<title>iptables&#45;libs&#45;&gt;iptables&#45;libs</title>
<path fill="none" stroke="#444444" stroke-opacity="0.333333" d="M482.0146,-702.4451C492.5714,-701.5058 499.74,-699.4541 499.74,-696.29 499.74,-694.3125 496.9398,-692.7694 492.2622,-691.6609"/>
<polygon fill="#444444" fill-opacity="0.333333" stroke="#444444" stroke-opacity="0.333333" points="492.421,-688.1461 482.0146,-690.1349 491.39,-695.0697 492.421,-688.1461"/>
</g>
<!-- iptables&#45;libs&#45;&gt;libnetfilter_conntrack -->
<g id="edge38" class="edge">
<title>iptables&#45;libs&#45;&gt;libnetfilter_conntrack</title>
<path fill="none" stroke="#444444" stroke-opacity="0.333333" d="M343.6839,-698.9097C323.5326,-699.6742 300.9659,-700.5303 278.8533,-701.3692"/>
<polygon fill="#444444" fill-opacity="0.333333" stroke="#444444" stroke-opacity="0.333333" points="278.5958,-697.8763 268.7357,-701.753 278.8613,-704.8713 278.5958,-697.8763"/>
</g>
<!-- iptables&#45;libs&#45;&gt;libpcap -->
<g id="edge39" class="edge">
<title>iptables&#45;libs&#45;&gt;libpcap</title>
<path fill="none" stroke="#444444" stroke-opacity="0.333333" d="M409.3209,-714.3465C400.2694,-762.1487 375.6312,-892.2654 364.712,-949.931"/>
<polygon fill="#444444" fill-opacity="0.333333" stroke="#444444" stroke-opacity="0.333333" points="361.2613,-949.3425 362.8397,-959.8191 368.1391,-950.6449 361.2613,-949.3425"/>
</g>
<!-- acl&#45;&gt;Fedora Container Base -->
<g id="edge60" class="edge">
<title>acl&#45;&gt;Fedora Container Base</title>
<path fill="none" stroke="#444444" stroke-opacity="0.333333" d="M846.5291,-260.9637C809.6758,-311.9617 705.5201,-456.0935 662.549,-515.5574"/>
<polygon fill="#444444" fill-opacity="0.333333" stroke="#444444" stroke-opacity="0.333333" points="659.6886,-513.54 656.6682,-523.6952 665.3622,-517.64 659.6886,-513.54"/>
</g>
<!-- cryptsetup&#45;libs&#45;&gt;Fedora Container Base -->
<g id="edge61" class="edge">
<title>cryptsetup&#45;libs&#45;&gt;Fedora Container Base</title>
<path fill="none" stroke="#444444" stroke-opacity="0.333333" d="M985.0891,-824.3898C922.723,-772.7565 744.1807,-624.9401 673.2346,-566.2033"/>
<polygon fill="#444444" fill-opacity="0.333333" stroke="#444444" stroke-opacity="0.333333" points="675.0658,-563.1755 665.131,-559.4943 670.6017,-568.5674 675.0658,-563.1755"/>
</g>
<!-- cryptsetup&#45;libs&#45;&gt;device&#45;mapper&#45;libs -->
<g id="edge62" class="edge">
<title>cryptsetup&#45;libs&#45;&gt;device&#45;mapper&#45;libs</title>
<path fill="none" stroke="#444444" stroke-opacity="0.333333" d="M991.5888,-860.6399C960.6936,-896.9453 891.0929,-978.7338 855.3848,-1020.6948"/>
<polygon fill="#444444" fill-opacity="0.333333" stroke="#444444" stroke-opacity="0.333333" points="852.532,-1018.6467 848.7166,-1028.5307 857.863,-1023.1833 852.532,-1018.6467"/>
</g>
<!-- cryptsetup&#45;libs&#45;&gt;libargon2 -->
<g id="edge63" class="edge">
<title>cryptsetup&#45;libs&#45;&gt;libargon2</title>
<path fill="none" stroke="#444444" stroke-opacity="0.333333" d="M1010.0591,-860.7263C1014.8463,-889.2015 1024.1465,-944.5204 1029.8221,-978.2801"/>
<polygon fill="#444444" fill-opacity="0.333333" stroke="#444444" stroke-opacity="0.333333" points="1026.4176,-979.1409 1031.5272,-988.4222 1033.3207,-977.9803 1026.4176,-979.1409"/>
</g>
<!-- dbus&#45;&gt;dbus&#45;broker -->
<g id="edge64" class="edge">
<title>dbus&#45;&gt;dbus&#45;broker</title>
<path fill="none" stroke="#444444" stroke-opacity="0.333333" d="M1293.9155,-395.8836C1239.2725,-402.2101 1143.4981,-413.2987 1074.166,-421.326"/>
<polygon fill="#444444" fill-opacity="0.333333" stroke="#444444" stroke-opacity="0.333333" points="1073.6677,-417.8602 1064.1366,-422.4872 1074.4728,-424.8137 1073.6677,-417.8602"/>
</g>
<!-- kmod&#45;libs&#45;&gt;Fedora Container Base -->
<g id="edge65" class="edge">
<title>kmod&#45;libs&#45;&gt;Fedora Container Base</title>
<path fill="none" stroke="#444444" stroke-opacity="0.333333" d="M1043.3826,-662.2165C956.6772,-636.0776 797.1807,-587.9946 708.1142,-561.1439"/>
<polygon fill="#444444" fill-opacity="0.333333" stroke="#444444" stroke-opacity="0.333333" points="708.9867,-557.7514 698.4021,-558.216 706.9662,-564.4535 708.9867,-557.7514"/>
</g>
<!-- libfdisk&#45;&gt;Fedora Container Base -->
<g id="edge66" class="edge">
<title>libfdisk&#45;&gt;Fedora Container Base</title>
<path fill="none" stroke="#444444" stroke-opacity="0.333333" d="M701.8164,-875.508C691.7483,-817.7304 660.7667,-639.9374 648.6144,-570.1993"/>
<polygon fill="#444444" fill-opacity="0.333333" stroke="#444444" stroke-opacity="0.333333" points="651.9966,-569.2201 646.8318,-559.9694 645.1006,-570.4219 651.9966,-569.2201"/>
</g>
<!-- libseccomp&#45;&gt;Fedora Container Base -->
<g id="edge67" class="edge">
<title>libseccomp&#45;&gt;Fedora Container Base</title>
<path fill="none" stroke="#444444" stroke-opacity="0.333333" d="M984.3244,-193.4228C925.5625,-253.4978 737.417,-445.8477 668.9066,-515.889"/>
<polygon fill="#444444" fill-opacity="0.333333" stroke="#444444" stroke-opacity="0.333333" points="666.0233,-513.8313 661.5329,-523.4275 671.0275,-518.7261 666.0233,-513.8313"/>
</g>
<!-- qrencode&#45;libs&#45;&gt;Fedora Container Base -->
<g id="edge68" class="edge">
<title>qrencode&#45;libs&#45;&gt;Fedora Container Base</title>
<path fill="none" stroke="#444444" stroke-opacity="0.333333" d="M1064.3753,-329.5918C981.6427,-371.3034 777.4992,-474.2269 687.4867,-519.6087"/>
<polygon fill="#444444" fill-opacity="0.333333" stroke="#444444" stroke-opacity="0.333333" points="685.7232,-516.5781 678.3695,-524.2054 688.8745,-522.8287 685.7232,-516.5781"/>
</g>
<!-- systemd&#45;pam&#45;&gt;Fedora Container Base -->
<g id="edge69" class="edge">
<title>systemd&#45;pam&#45;&gt;Fedora Container Base</title>
<path fill="none" stroke="#444444" stroke-opacity="0.333333" d="M823.0782,-111.3156C794.1235,-180.7692 690.1806,-430.097 655.218,-513.9618"/>
<polygon fill="#444444" fill-opacity="0.333333" stroke="#444444" stroke-opacity="0.333333" points="651.9234,-512.7689 651.3059,-523.3457 658.3844,-515.4625 651.9234,-512.7689"/>
</g>
<!-- systemd&#45;pam&#45;&gt;systemd -->
<g id="edge70" class="edge">
<title>systemd&#45;pam&#45;&gt;systemd</title>
<path fill="none" stroke="#444444" stroke-opacity="0.333333" d="M828.5321,-111.4355C827.0213,-174.7627 837.4941,-385.2693 845.6794,-462.1095"/>
<polygon fill="#444444" fill-opacity="0.333333" stroke="#444444" stroke-opacity="0.333333" points="842.2482,-462.9091 846.8688,-472.4433 849.2023,-462.1087 842.2482,-462.9091"/>
</g>
<!-- systemd&#45;rpm&#45;macros&#45;&gt;Fedora Container Base -->
<g id="edge71" class="edge">
<title>systemd&#45;rpm&#45;macros&#45;&gt;Fedora Container Base</title>
<path fill="none" stroke="#444444" stroke-opacity="0.333333" d="M688.3703,-191.0237C680.7765,-250.5723 656.4624,-441.238 647.2417,-513.5449"/>
<polygon fill="#444444" fill-opacity="0.333333" stroke="#444444" stroke-opacity="0.333333" points="643.7385,-513.3485 645.9453,-523.711 650.6822,-514.2341 643.7385,-513.3485"/>
</g>
<!-- libutempter&#45;&gt;Fedora Container Base -->
<g id="edge72" class="edge">
<title>libutempter&#45;&gt;Fedora Container Base</title>
<path fill="none" stroke="#444444" stroke-opacity="0.333333" d="M501.5016,-784.3756C528.0494,-739.0551 596.806,-621.6788 627.9311,-568.5442"/>
<polygon fill="#444444" fill-opacity="0.333333" stroke="#444444" stroke-opacity="0.333333" points="631.0788,-570.0953 633.1132,-559.6976 625.0387,-566.5571 631.0788,-570.0953"/>
</g>
<!-- libutempter&#45;&gt;shadow&#45;utils -->
<g id="edge73" class="edge">
<title>libutempter&#45;&gt;shadow&#45;utils</title>
<path fill="none" stroke="#444444" stroke-opacity="0.333333" d="M494.8068,-784.5753C507.7948,-726.4524 548.4155,-544.6697 564.0915,-474.5175"/>
<polygon fill="#444444" fill-opacity="0.333333" stroke="#444444" stroke-opacity="0.333333" points="567.5362,-475.1508 566.3014,-464.6282 560.7047,-473.6242 567.5362,-475.1508"/>
</g>
<!-- libnetfilter_conntrack&#45;&gt;Fedora Container Base -->
<g id="edge40" class="edge">
<title>libnetfilter_conntrack&#45;&gt;Fedora Container Base</title>
<path fill="none" stroke="#444444" stroke-opacity="0.333333" d="M218.4921,-687.6366C308.3699,-656.7879 491.1214,-594.0623 585.0384,-561.8272"/>
<polygon fill="#444444" fill-opacity="0.333333" stroke="#444444" stroke-opacity="0.333333" points="586.3454,-565.0791 594.6675,-558.5222 584.0729,-558.4582 586.3454,-565.0791"/>
</g>
<!-- libnetfilter_conntrack&#45;&gt;libmnl -->
<g id="edge41" class="edge">
<title>libnetfilter_conntrack&#45;&gt;libmnl</title>
<path fill="none" stroke="#444444" stroke-opacity="0.333333" d="M165.4403,-723.9368C164.5302,-753.1547 162.7411,-810.5867 161.6638,-845.1694"/>
<polygon fill="#444444" fill-opacity="0.333333" stroke="#444444" stroke-opacity="0.333333" points="158.1542,-845.4257 161.341,-855.5299 165.1508,-845.6437 158.1542,-845.4257"/>
</g>
<!-- libnetfilter_conntrack&#45;&gt;libnfnetlink -->
<g id="edge42" class="edge">
<title>libnetfilter_conntrack&#45;&gt;libnfnetlink</title>
<path fill="none" stroke="#444444" stroke-opacity="0.333333" d="M154.1877,-687.413C137.0422,-660.9644 105.1654,-611.7912 85.353,-581.2286"/>
<polygon fill="#444444" fill-opacity="0.333333" stroke="#444444" stroke-opacity="0.333333" points="88.2408,-579.249 79.8642,-572.7617 82.367,-583.0567 88.2408,-579.249"/>
</g>
<!-- libpcap&#45;&gt;Fedora Container Base -->
<g id="edge43" class="edge">
<title>libpcap&#45;&gt;Fedora Container Base</title>
<path fill="none" stroke="#444444" stroke-opacity="0.333333" d="M371.2328,-959.8949C415.7517,-891.5544 573.1254,-649.9715 626.0994,-568.6517"/>
<polygon fill="#444444" fill-opacity="0.333333" stroke="#444444" stroke-opacity="0.333333" points="629.2209,-570.2722 631.7466,-559.9828 623.3556,-566.4514 629.2209,-570.2722"/>
</g>
<!-- libmnl&#45;&gt;Fedora Container Base -->
<g id="edge46" class="edge">
<title>libmnl&#45;&gt;Fedora Container Base</title>
<path fill="none" stroke="#444444" stroke-opacity="0.333333" d="M187.0841,-855.4637C268.7797,-799.3222 518.1198,-627.9748 609.5642,-565.1339"/>
<polygon fill="#444444" fill-opacity="0.333333" stroke="#444444" stroke-opacity="0.333333" points="611.6505,-567.947 617.9098,-559.3988 607.6859,-562.1779 611.6505,-567.947"/>
</g>
<!-- libnfnetlink&#45;&gt;Fedora Container Base -->
<g id="edge47" class="edge">
<title>libnfnetlink&#45;&gt;Fedora Container Base</title>
<path fill="none" stroke="#444444" stroke-opacity="0.333333" d="M136.0109,-552.9536C224.8329,-550.9863 382.6719,-547.4904 498.8397,-544.9174"/>
<polygon fill="#444444" fill-opacity="0.333333" stroke="#444444" stroke-opacity="0.333333" points="498.9681,-548.4155 508.8882,-544.6948 498.8131,-541.4172 498.9681,-548.4155"/>
</g>
<!-- libicu&#45;&gt;Fedora Container Base -->
<g id="edge44" class="edge">
<title>libicu&#45;&gt;Fedora Container Base</title>
<path fill="none" stroke="#444444" stroke-opacity="0.333333" d="M242.3853,-245.4181C314.9128,-298.972 529.1204,-457.1419 611.1681,-517.7255"/>
<polygon fill="#444444" fill-opacity="0.333333" stroke="#444444" stroke-opacity="0.333333" points="609.4736,-520.825 619.5972,-523.9495 613.6317,-515.1938 609.4736,-520.825"/>
</g>
<!-- libicu&#45;&gt;libicu -->
<g id="edge45" class="edge">
<title>libicu&#45;&gt;libicu</title>
<path fill="none" stroke="#444444" stroke-opacity="0.333333" d="M273.0433,-233.817C283.5441,-233.048 290.97,-230.9056 290.97,-227.39 290.97,-225.1378 287.9224,-223.4492 282.9711,-222.3242"/>
<polygon fill="#444444" fill-opacity="0.333333" stroke="#444444" stroke-opacity="0.333333" points="283.4261,-218.8539 273.0433,-220.963 282.4751,-225.789 283.4261,-218.8539"/>
</g>
<!-- libpq&#45;&gt;Fedora Container Base -->
<g id="edge50" class="edge">
<title>libpq&#45;&gt;Fedora Container Base</title>
<path fill="none" stroke="#444444" stroke-opacity="0.333333" d="M349.3255,-103.1326C396.8117,-173.8925 569.3873,-431.0501 625.7258,-515.0009"/>
<polygon fill="#444444" fill-opacity="0.333333" stroke="#444444" stroke-opacity="0.333333" points="622.931,-517.1173 631.4096,-523.4704 628.7434,-513.2166 622.931,-517.1173"/>
</g>
<!-- postgresql&#45;&gt;Fedora Container Base -->
<g id="edge51" class="edge">
<title>postgresql&#45;&gt;Fedora Container Base</title>
<path fill="none" stroke="#444444" stroke-opacity="0.333333" d="M479.6852,-36.0273C504.8401,-113.6071 603.9792,-419.3616 634.595,-513.7836"/>
<polygon fill="#444444" fill-opacity="0.333333" stroke="#444444" stroke-opacity="0.333333" points="631.3279,-515.0554 637.7417,-523.4883 637.9867,-512.8963 631.3279,-515.0554"/>
</g>
<!-- postgresql&#45;&gt;libpq -->
<g id="edge52" class="edge">
<title>postgresql&#45;&gt;libpq</title>
<path fill="none" stroke="#444444" stroke-opacity="0.333333" d="M436.8416,-36.1163C420.4271,-44.1537 400.9325,-53.6992 383.5528,-62.2092"/>
<polygon fill="#444444" fill-opacity="0.333333" stroke="#444444" stroke-opacity="0.333333" points="381.5899,-59.2732 374.148,-66.8142 384.6683,-65.56 381.5899,-59.2732"/>
</g>
<!-- postgresql&#45;server&#45;&gt;Fedora Container Base -->
<g id="edge53" class="edge">
<title>postgresql&#45;server&#45;&gt;Fedora Container Base</title>
<path fill="none" stroke="#444444" stroke-opacity="0.333333" d="M496.2159,-259.6398C522.8878,-310.6682 598.0688,-454.5043 629.5298,-514.6952"/>
<polygon fill="#444444" fill-opacity="0.333333" stroke="#444444" stroke-opacity="0.333333" points="626.4554,-516.3691 634.1895,-523.6103 632.6591,-513.1265 626.4554,-516.3691"/>
</g>
<!-- postgresql&#45;server&#45;&gt;shadow&#45;utils -->
<g id="edge54" class="edge">
<title>postgresql&#45;server&#45;&gt;shadow&#45;utils</title>
<path fill="none" stroke="#444444" stroke-opacity="0.333333" d="M494.0596,-259.511C508.7678,-295.5629 541.6719,-376.2157 559.0692,-418.8592"/>
<polygon fill="#444444" fill-opacity="0.333333" stroke="#444444" stroke-opacity="0.333333" points="555.9189,-420.4028 562.9371,-428.3398 562.4002,-417.7586 555.9189,-420.4028"/>
</g>
<!-- postgresql&#45;server&#45;&gt;systemd -->
<g id="edge55" class="edge">
<title>postgresql&#45;server&#45;&gt;systemd</title>
<path fill="none" stroke="#444444" stroke-opacity="0.333333" d="M513.1157,-259.4226C577.7639,-303.6574 743.6236,-417.1452 816.0831,-466.7248"/>
<polygon fill="#444444" fill-opacity="0.333333" stroke="#444444" stroke-opacity="0.333333" points="814.2141,-469.6868 824.4435,-472.4454 818.167,-463.9098 814.2141,-469.6868"/>
</g>
<!-- postgresql&#45;server&#45;&gt;libicu -->
<g id="edge56" class="edge">
<title>postgresql&#45;server&#45;&gt;libicu</title>
<path fill="none" stroke="#444444" stroke-opacity="0.333333" d="M342.4692,-233.836C321.7697,-232.7643 301.3833,-231.7088 283.2899,-230.772"/>
<polygon fill="#444444" fill-opacity="0.333333" stroke="#444444" stroke-opacity="0.333333" points="283.3704,-227.2715 273.2028,-230.2497 283.0084,-234.2622 283.3704,-227.2715"/>
</g>
<!-- postgresql&#45;server&#45;&gt;libpq -->
<g id="edge57" class="edge">
<title>postgresql&#45;server&#45;&gt;libpq</title>
<path fill="none" stroke="#444444" stroke-opacity="0.333333" d="M469.1867,-223.0581C442.6284,-195.2839 391.9507,-142.286 361.6811,-110.6306"/>
<polygon fill="#444444" fill-opacity="0.333333" stroke="#444444" stroke-opacity="0.333333" points="363.893,-107.8794 354.4522,-103.0707 358.8337,-112.7171 363.893,-107.8794"/>
</g>
<!-- postgresql&#45;server&#45;&gt;postgresql -->
<g id="edge58" class="edge">
<title>postgresql&#45;server&#45;&gt;postgresql</title>
<path fill="none" stroke="#444444" stroke-opacity="0.333333" d="M485.5833,-223.0264C483.3528,-184.0829 478.1179,-92.6878 475.4558,-46.2103"/>
<polygon fill="#444444" fill-opacity="0.333333" stroke="#444444" stroke-opacity="0.333333" points="478.9494,-45.9964 474.8832,-36.2129 471.9608,-46.3967 478.9494,-45.9964"/>
</g>
<!-- postgresql&#45;server&#45;&gt;postgresql&#45;server -->
<g id="edge59" class="edge">
<title>postgresql&#45;server&#45;&gt;postgresql&#45;server</title>
<path fill="none" stroke="#444444" stroke-opacity="0.333333" d="M630.6534,-246.3888C641.7741,-245.2638 648.63,-243.5676 648.63,-241.3 648.63,-239.8473 645.8163,-238.6291 640.8702,-237.6454"/>
<polygon fill="#444444" fill-opacity="0.333333" stroke="#444444" stroke-opacity="0.333333" points="641.0429,-234.1354 630.6534,-236.2112 640.0697,-241.0674 641.0429,-234.1354"/>
</g>
<!-- Fedora Container Base -->
<g id="node1" class="node">
<title>Fedora Container Base</title>
<ellipse fill="none" stroke="#000000" cx="643.65" cy="-541.71" rx="136.5" ry="18"/>
<text text-anchor="middle" x="643.65" y="-538.01" font-family="Helvetica,sans-Serif" font-weight="bold" font-size="14.00" fill="#000000">Fedora Container Base (201.3 MB)</text>
</g>
<!-- device&#45;mapper&#45;libs -->
<g id="node2" class="node">
<title>device&#45;mapper&#45;libs</title>
<text text-anchor="middle" x="833.34" y="-1042.9" font-family="Helvetica,sans-Serif" font-weight="bold" font-size="14.00" fill="#000000">device&#45;mapper&#45;libs (418.0 kB)</text>
</g>
<!-- device&#45;mapper -->
<g id="node3" class="node">
<title>device&#45;mapper</title>
<text text-anchor="middle" x="842.98" y="-818.23" font-family="Helvetica,sans-Serif" font-weight="bold" font-size="14.00" fill="#000000">device&#45;mapper (349.9 kB)</text>
</g>
<!-- libargon2 -->
<g id="node4" class="node">
<title>libargon2</title>
<text text-anchor="middle" x="1034.6" y="-1003" font-family="Helvetica,sans-Serif" font-weight="bold" font-size="14.00" fill="#000000">libargon2 (54.2 kB)</text>
</g>
<!-- dbus&#45;broker -->
<g id="node5" class="node">
<title>dbus&#45;broker</title>
<text text-anchor="middle" x="990.61" y="-427.3" font-family="Helvetica,sans-Serif" font-weight="bold" font-size="14.00" fill="#000000">dbus&#45;broker (409.7 kB)</text>
</g>
<!-- dbus&#45;common -->
<g id="node6" class="node">
<title>dbus&#45;common</title>
<text text-anchor="middle" x="1121" y="-517.78" font-family="Helvetica,sans-Serif" font-weight="bold" font-size="14.00" fill="#000000">dbus&#45;common (11.2 kB)</text>
</g>
<!-- shadow&#45;utils -->
<g id="node7" class="node">
<title>shadow&#45;utils</title>
<text text-anchor="middle" x="570.35" y="-442.81" font-family="Helvetica,sans-Serif" font-weight="bold" font-size="14.00" fill="#000000">shadow&#45;utils (4.0 MB)</text>
</g>
<!-- systemd -->
<g id="node8" class="node">
<title>systemd</title>
<text text-anchor="middle" x="850.83" y="-486.8" font-family="Helvetica,sans-Serif" font-weight="bold" font-size="14.00" fill="#000000">systemd (13.1 MB)</text>
</g>
<!-- libsemanage -->
<g id="node9" class="node">
<title>libsemanage</title>
<text text-anchor="middle" x="264.25" y="-415.06" font-family="Helvetica,sans-Serif" font-weight="bold" font-size="14.00" fill="#000000">libsemanage (304.5 kB)</text>
</g>
<!-- util&#45;linux -->
<g id="node10" class="node">
<title>util&#45;linux</title>
<text text-anchor="middle" x="697.02" y="-762.63" font-family="Helvetica,sans-Serif" font-weight="bold" font-size="14.00" fill="#000000">util&#45;linux (13.5 MB)</text>
</g>
<!-- iptables&#45;libs -->
<g id="node11" class="node">
<title>iptables&#45;libs</title>
<text text-anchor="middle" x="412.74" y="-692.59" font-family="Helvetica,sans-Serif" font-weight="bold" font-size="14.00" fill="#000000">iptables&#45;libs (1.9 MB)</text>
</g>
<!-- acl -->
<g id="node12" class="node">
<title>acl</title>
<text text-anchor="middle" x="859.72" y="-239.01" font-family="Helvetica,sans-Serif" font-weight="bold" font-size="14.00" fill="#000000">acl (209.6 kB)</text>
</g>
<!-- cryptsetup&#45;libs -->
<g id="node13" class="node">
<title>cryptsetup&#45;libs</title>
<text text-anchor="middle" x="1007" y="-838.83" font-family="Helvetica,sans-Serif" font-weight="bold" font-size="14.00" fill="#000000">cryptsetup&#45;libs (1.8 MB)</text>
</g>
<!-- dbus -->
<g id="node14" class="node">
<title>dbus</title>
<text text-anchor="middle" x="1336.7" y="-387.23" font-family="Helvetica,sans-Serif" font-weight="bold" font-size="14.00" fill="#000000">dbus (0.0 B)</text>
</g>
<!-- kmod&#45;libs -->
<g id="node15" class="node">
<title>kmod&#45;libs</title>
<text text-anchor="middle" x="1103.5" y="-676.64" font-family="Helvetica,sans-Serif" font-weight="bold" font-size="14.00" fill="#000000">kmod&#45;libs (135.6 kB)</text>
</g>
<!-- libfdisk -->
<g id="node16" class="node">
<title>libfdisk</title>
<text text-anchor="middle" x="705.03" y="-890.25" font-family="Helvetica,sans-Serif" font-weight="bold" font-size="14.00" fill="#000000">libfdisk (472.7 kB)</text>
</g>
<!-- libseccomp -->
<g id="node17" class="node">
<title>libseccomp</title>
<text text-anchor="middle" x="1002.1" y="-171.55" font-family="Helvetica,sans-Serif" font-weight="bold" font-size="14.00" fill="#000000">libseccomp (351.1 kB)</text>
</g>
<!-- qrencode&#45;libs -->
<g id="node18" class="node">
<title>qrencode&#45;libs</title>
<text text-anchor="middle" x="1100.2" y="-307.83" font-family="Helvetica,sans-Serif" font-weight="bold" font-size="14.00" fill="#000000">qrencode&#45;libs (158.2 kB)</text>
</g>
<!-- systemd&#45;pam -->
<g id="node19" class="node">
<title>systemd&#45;pam</title>
<text text-anchor="middle" x="830.64" y="-89.477" font-family="Helvetica,sans-Serif" font-weight="bold" font-size="14.00" fill="#000000">systemd&#45;pam (867.7 kB)</text>
</g>
<!-- systemd&#45;rpm&#45;macros -->
<g id="node20" class="node">
<title>systemd&#45;rpm&#45;macros</title>
<text text-anchor="middle" x="690.67" y="-169.29" font-family="Helvetica,sans-Serif" font-weight="bold" font-size="14.00" fill="#000000">systemd&#45;rpm&#45;macros (7.9 kB)</text>
</g>
<!-- libutempter -->
<g id="node21" class="node">
<title>libutempter</title>
<text text-anchor="middle" x="490.75" y="-799.03" font-family="Helvetica,sans-Serif" font-weight="bold" font-size="14.00" fill="#000000">libutempter (57.8 kB)</text>
</g>
<!-- libnetfilter_conntrack -->
<g id="node22" class="node">
<title>libnetfilter_conntrack</title>
<text text-anchor="middle" x="166.01" y="-701.95" font-family="Helvetica,sans-Serif" font-weight="bold" font-size="14.00" fill="#000000">libnetfilter_conntrack (148.0 kB)</text>
</g>
<!-- libpcap -->
<g id="node23" class="node">
<title>libpcap</title>
<text text-anchor="middle" x="359.38" y="-974.39" font-family="Helvetica,sans-Serif" font-weight="bold" font-size="14.00" fill="#000000">libpcap (387.4 kB)</text>
</g>
<!-- libmnl -->
<g id="node24" class="node">
<title>libmnl</title>
<text text-anchor="middle" x="160.78" y="-869.84" font-family="Helvetica,sans-Serif" font-weight="bold" font-size="14.00" fill="#000000">libmnl (55.4 kB)</text>
</g>
<!-- libnfnetlink -->
<g id="node25" class="node">
<title>libnfnetlink</title>
<text text-anchor="middle" x="68" y="-550.76" font-family="Helvetica,sans-Serif" font-weight="bold" font-size="14.00" fill="#000000">libnfnetlink (54.8 kB)</text>
</g>
<!-- libicu -->
<g id="node26" class="node">
<title>libicu</title>
<text text-anchor="middle" x="217.97" y="-223.69" font-family="Helvetica,sans-Serif" font-weight="bold" font-size="14.00" fill="#000000">libicu (32.1 MB)</text>
</g>
<!-- libpq -->
<g id="node27" class="node">
<title>libpq</title>
<text text-anchor="middle" x="337.12" y="-81.245" font-family="Helvetica,sans-Serif" font-weight="bold" font-size="14.00" fill="#000000">libpq (714.5 kB)</text>
</g>
<!-- postgresql -->
<g id="node28" class="node">
<title>postgresql</title>
<text text-anchor="middle" x="473.84" y="-14.3" font-family="Helvetica,sans-Serif" font-weight="bold" font-size="14.00" fill="#000000">postgresql (5.3 MB)</text>
</g>
<!-- postgresql&#45;server -->
<g id="node29" class="node">
<title>postgresql&#45;server</title>
<text text-anchor="middle" x="486.63" y="-235.7" font-family="Helvetica,sans-Serif" font-weight="bold" font-size="22.00" fill="#cc0066">postgresql&#45;server (21.6 MB)</text>
</g>
</g>

<script type="text/javascript"><![CDATA[

document.addEventListener('click', function(e) {
      e = e || window.event;
      var target = e.target || e.srcElement;
      text = target.parentElement.querySelector("title").textContent;

      console.log("Clicked on: " + text);
      // reset all strokes
      var nodes = document.getElementsByClassName("edge");

      for (index = 0, len = nodes.length; index < len; ++index) {
          //var title = nodes[index].querySelector("title").textContent.split("->");
          id = nodes[index].id;
          document.getElementById(id).querySelector("path").setAttribute("stroke-width", "1");
          document.getElementById(id).querySelector("path").setAttribute("stroke-opacity", "0.5");
          document.getElementById(id).querySelector("path").setAttribute("stroke", "#444444");
          document.getElementById(id).querySelector("polygon").setAttribute("stroke-width", "1");
          document.getElementById(id).querySelector("polygon").setAttribute("stroke-opacity", "0.5");
          document.getElementById(id).querySelector("polygon").setAttribute("stroke", "#444444");
      }
      // reset text highlight
      pkgs = document.getElementsByClassName("node");
      for (index2 = 0, len2 = pkgs.length; index2 < len2; ++index2) {
          target_id = pkgs[index2].id;
          document.getElementById(target_id).querySelector("text").setAttribute("font-weight", "normal");
      }

      // highlight deps
      var nodes = document.getElementsByClassName("edge");
      for (index = 0, len = nodes.length; index < len; ++index) {
        var title = nodes[index].querySelector("title").textContent.split("->");

        if (title[0] == text) {
          id = nodes[index].id;
          //console.log("ID:   " + id);
          document.getElementById(id).querySelector("path").setAttribute("stroke-width", "3");
          document.getElementById(id).querySelector("path").setAttribute("stroke-opacity", "1");
          document.getElementById(id).querySelector("path").setAttribute("stroke", "#aa3333");
          document.getElementById(id).querySelector("polygon").setAttribute("stroke-width", "5");
          document.getElementById(id).querySelector("polygon").setAttribute("stroke-opacity", "1");
          document.getElementById(id).querySelector("polygon").setAttribute("stroke", "#aa3333");

        }
        if (title[1] == text) {
          id = nodes[index].id;
          document.getElementById(id).querySelector("path").setAttribute("stroke-width", "3");
          document.getElementById(id).querySelector("path").setAttribute("stroke-opacity", "1");
          document.getElementById(id).querySelector("path").setAttribute("stroke", "#333377");
          document.getElementById(id).querySelector("polygon").setAttribute("stroke-width", "5");
          document.getElementById(id).querySelector("polygon").setAttribute("stroke-opacity", "1");
          document.getElementById(id).querySelector("polygon").setAttribute("stroke", "#333377");
        }

        if (title[0] == text || title[1] == text) {
          pkgs = document.getElementsByClassName("node");
          for (index2 = 0, len2 = pkgs.length; index2 < len2; ++index2) {
            var pkg_name = pkgs[index2].querySelector("title").textContent;
            if (pkg_name == title[0] || pkg_name == title[1]) {
              target_id = pkgs[index2].id;
              document.getElementById(target_id).querySelector("text").setAttribute("font-weight", "bold");
            }
          }
        }
      }


  }, false);

]]></script>


  <text
     id="text7664"
     y="19.384439"
     x="9.9055691"
     style="font-style:normal;font-weight:normal;font-size:12.49485588px;line-height:125%;font-family:sans-serif;letter-spacing:0px;word-spacing:0px;fill:#000000;fill-opacity:1;stroke:none;stroke-width:0.3123714px;stroke-linecap:butt;stroke-linejoin:miter;stroke-opacity:1"
     xml:space="preserve"><tspan
       style="font-size:12.00258541px;stroke-width:0.3123714px"
       y="19.384439"
       x="9.9055691"
       id="tspan7666"><a href="report-use-case-definition--postgresql-noweak--rawhide.html"><tspan
   style="font-weight:bold;font-size:12.00258541px;fill:#0066ff;stroke-width:0.3123714px"
   id="tspan7668">PostgreSQL (no weak deps)</tspan></a> on <a href="report-base-definition--fedora-container-base--rawhide.html"><tspan
   style="font-weight:bold;font-size:12.00258541px;fill:#0066ff;stroke-width:0.3123714px"
   id="tspan7676">Fedora Container Base</tspan></a> (Fedora rawhide)</tspan></text>
  <text
     xml:space="preserve"
     style="font-style:normal;font-weight:normal;font-size:11.85299969px;line-height:125%;font-family:sans-serif;letter-spacing:0px;word-spacing:0px;fill:#000000;fill-opacity:1;stroke:none;stroke-width:0.296325px;stroke-linecap:butt;stroke-linejoin:miter;stroke-opacity:1"
     x="9.9365959"
     y="58.520042"
     id="text8235"><tspan
       id="tspan8237"
       x="9.9365959"
       y="58.520042"
       style="stroke-width:0.296325px;font-size:10.80232704px;fill:#666666">Generated by <a href="./"><tspan
   style="fill:#3771c8"
   id="tspan8255">Feedback Pipeline</tspan></a></tspan></text>
  <text
     xml:space="preserve"
     style="font-style:normal;font-weight:normal;font-size:12.49485588px;line-height:125%;font-family:sans-serif;letter-spacing:0px;word-spacing:0px;fill:#000000;fill-opacity:1;stroke:none;stroke-width:0.3123714px;stroke-linecap:butt;stroke-linejoin:miter;stroke-opacity:1"
     x="9.9055691"
     y="38.974205"
     id="text8245"><a href="graph--postgresql-noweak--fedora-container-base--rawhide.svg"><tspan
       id="tspan8247"
       x="9.9055691"
       y="38.974205"
       style="font-weight:normal;font-size:12.00258541px;fill:#0066ff;stroke-width:0.3123714px">Expand base image</tspan></a></text>

</svg>
