<?xml version="1.0" encoding="UTF-8" standalone="no"?>
<!DOCTYPE svg PUBLIC "-//W3C//DTD SVG 1.1//EN"
 "http://www.w3.org/Graphics/SVG/1.1/DTD/svg11.dtd">
<!-- Generated by graphviz version 2.40.1 (0)
 -->
<!-- Title: packages Pages: 1 -->
<svg width="287pt" height="203pt"
 viewBox="0.00 0.00 344.50 243.94" xmlns="http://www.w3.org/2000/svg" xmlns:xlink="http://www.w3.org/1999/xlink">
<g id="graph0" class="graph" transform="scale(.8333 .8333) rotate(0) translate(35.3437 136.7953)">
<title>packages</title>
<polygon fill="#dae2ff" stroke="transparent" points="-35.3437,107.1438 -35.3437,-136.7953 309.1553,-136.7953 309.1553,107.1438 -35.3437,107.1438"/>
<polygon fill="#fbb4ae" stroke="#fbb4ae" points="83.2889,64.2788 77.2547,63.609 48.6579,62.2653 17.0226,8.1734 -31.3437,-59.876 -30.9799,-60.3803 -27.1188,-63.0815 -10.1806,-76.1704 76.7294,-96.2309 80.0728,-97.2416 95.926,-103.197 102.1315,-105.9686 112.3057,-111.2457 113.977,-112.2322 131.2504,-123.7359 143.3994,-132.6973 143.5104,-132.7953 160.3979,-119.8457 166.1733,-115.8585 177.5179,-108.8699 183.208,-105.7939 195.8914,-99.8721 203.896,-96.7376 301.8818,-65.69 305.1553,-60.5478 295.1653,-43.1682 272.4406,1.6713 230.9252,100.5669 225.1749,103.1438 209.0881,95.6174 194.3433,89.5008 182.6087,85.2707 176.9924,83.5536 161.7442,79.716 142.8712,77.0135 141.1973,76.865 128.8406,76.435 126.6954,76.4763 125.4313,76.5692 105.8023,69.3196 104.0554,68.7894 90.5411,65.5491 83.2889,64.2788 83.2889,64.2788"/>
<polyline fill="none" stroke="#000000" points="113.977,-112.2322 112.3057,-111.2457 102.1315,-105.9686 95.926,-103.197 80.0728,-97.2416 76.7294,-96.2309 -10.1806,-76.1704 -27.1188,-63.0815 -30.9799,-60.3803 -31.3437,-59.876 17.0226,8.1734 48.6579,62.2653 77.2547,63.609 83.2889,64.2788 90.5411,65.5491 104.0554,68.7894 105.8023,69.3196 125.4313,76.5692 126.6954,76.4763 128.8406,76.435 141.1973,76.865 142.8712,77.0135 161.7442,79.716 176.9924,83.5536 182.6087,85.2707 194.3433,89.5008 209.0881,95.6174 225.1749,103.1438 230.9252,100.5669 272.4406,1.6713 295.1653,-43.1682 305.1553,-60.5478 301.8818,-65.69 203.896,-96.7376 195.8914,-99.8721 183.208,-105.7939 177.5179,-108.8699 166.1733,-115.8585 160.3979,-119.8457 143.5104,-132.7953 143.3994,-132.6973 131.2504,-123.7359 113.977,-112.2322 "/>
<!-- Minimal Langpack Base -->
<g id="node1" class="node">
<title>Minimal Langpack Base</title>
<ellipse fill="none" stroke="#000000" cx="139.09" cy="-18" rx="139" ry="18"/>
<text text-anchor="middle" x="139.09" y="-14.3" font-family="Helvetica,sans-Serif" font-weight="bold" font-size="14.00" fill="#000000">Minimal Langpack Base (35.6 MB)</text>
</g>
</g>

<script type="text/javascript"><![CDATA[

document.addEventListener('click', function(e) {
      e = e || window.event;
      var target = e.target || e.srcElement;
      text = target.parentElement.querySelector("title").textContent;

      console.log("Clicked on: " + text);
      // reset all strokes
      var nodes = document.getElementsByClassName("edge");

      for (index = 0, len = nodes.length; index < len; ++index) {
          //var title = nodes[index].querySelector("title").textContent.split("->");
          id = nodes[index].id;
          document.getElementById(id).querySelector("path").setAttribute("stroke-width", "1");
          document.getElementById(id).querySelector("path").setAttribute("stroke-opacity", "0.5");
          document.getElementById(id).querySelector("path").setAttribute("stroke", "#444444");
          document.getElementById(id).querySelector("polygon").setAttribute("stroke-width", "1");
          document.getElementById(id).querySelector("polygon").setAttribute("stroke-opacity", "0.5");
          document.getElementById(id).querySelector("polygon").setAttribute("stroke", "#444444");
      }
      // reset text highlight
      pkgs = document.getElementsByClassName("node");
      for (index2 = 0, len2 = pkgs.length; index2 < len2; ++index2) {
          target_id = pkgs[index2].id;
          document.getElementById(target_id).querySelector("text").setAttribute("font-weight", "normal");
      }

      // highlight deps
      var nodes = document.getElementsByClassName("edge");
      for (index = 0, len = nodes.length; index < len; ++index) {
        var title = nodes[index].querySelector("title").textContent.split("->");

        if (title[0] == text) {
          id = nodes[index].id;
          //console.log("ID:   " + id);
          document.getElementById(id).querySelector("path").setAttribute("stroke-width", "3");
          document.getElementById(id).querySelector("path").setAttribute("stroke-opacity", "1");
          document.getElementById(id).querySelector("path").setAttribute("stroke", "#aa3333");
          document.getElementById(id).querySelector("polygon").setAttribute("stroke-width", "5");
          document.getElementById(id).querySelector("polygon").setAttribute("stroke-opacity", "1");
          document.getElementById(id).querySelector("polygon").setAttribute("stroke", "#aa3333");

        }
        if (title[1] == text) {
          id = nodes[index].id;
          document.getElementById(id).querySelector("path").setAttribute("stroke-width", "3");
          document.getElementById(id).querySelector("path").setAttribute("stroke-opacity", "1");
          document.getElementById(id).querySelector("path").setAttribute("stroke", "#333377");
          document.getElementById(id).querySelector("polygon").setAttribute("stroke-width", "5");
          document.getElementById(id).querySelector("polygon").setAttribute("stroke-opacity", "1");
          document.getElementById(id).querySelector("polygon").setAttribute("stroke", "#333377");
        }

        if (title[0] == text || title[1] == text) {
          pkgs = document.getElementsByClassName("node");
          for (index2 = 0, len2 = pkgs.length; index2 < len2; ++index2) {
            var pkg_name = pkgs[index2].querySelector("title").textContent;
            if (pkg_name == title[0] || pkg_name == title[1]) {
              target_id = pkgs[index2].id;
              document.getElementById(target_id).querySelector("text").setAttribute("font-weight", "bold");
            }
          }
        }
      }


  }, false);

]]></script>

</svg>
