<?xml version="1.0" encoding="UTF-8" standalone="no"?>
<!DOCTYPE svg PUBLIC "-//W3C//DTD SVG 1.1//EN"
 "http://www.w3.org/Graphics/SVG/1.1/DTD/svg11.dtd">
<!-- Generated by graphviz version 2.40.1 (0)
 -->
<!-- Title: packages Pages: 1 -->
<svg width="1315pt" height="1010pt"
 viewBox="0.00 0.00 1577.96 1212.25" xmlns="http://www.w3.org/2000/svg" xmlns:xlink="http://www.w3.org/1999/xlink">
<g id="graph0" class="graph" transform="scale(.8333 .8333) rotate(0) translate(127.8266 1089.2692)">
<title>packages</title>
<polygon fill="#dae2ff" stroke="transparent" points="-127.8266,122.9776 -127.8266,-1089.2692 1450.1343,-1089.2692 1450.1343,122.9776 -127.8266,122.9776"/>
<polygon fill="#ccebc5" stroke="#ccebc5" points="1113.1107,-694.2478 1117.9607,-693.2409 1142.3016,-688.6575 1170.1991,-599.9571 1178.0979,-570.2563 1180.9935,-556.5765 1182.0082,-550.1012 1183.7589,-541.7771 1188.5691,-523.5496 1228.3741,-396.9889 1227.1913,-395.8408 1224.3551,-387.99 1197.4878,-298.7995 1185.7448,-275.6433 1158.7034,-266.0991 1135.8073,-258.4685 1129.1577,-256.6562 1108.2616,-251.7964 1058.9287,-242.329 1057.48,-242.9991 1047.4865,-247.3909 1046.0747,-323.9712 1038.8665,-387.6053 1035.2635,-387.6053 1029.3477,-304.7221 1029.0587,-313.1739 1023.876,-383.3155 1019.2973,-383.3155 1014.0635,-386.3492 1012.7448,-387.9135 1014.6326,-390.1926 1018.4668,-392.3432 1018.4668,-392.3432 1014.6326,-390.1926 1012.7448,-387.9135 1014.0635,-386.3492 1019.2973,-383.3155 1023.876,-383.3155 1029.0587,-313.1739 1029.3477,-304.7221 1035.2635,-387.6053 1038.8665,-387.6053 1046.0747,-323.9712 1047.4865,-247.3909 1029.297,-254.1256 1010.9259,-259.645 1009.9958,-259.9024 999.1055,-262.1594 987.8126,-264.2378 975.7845,-265.8905 951.3499,-298.85 905.4443,-376.4386 894.0325,-394.1644 880.338,-412.6368 886.7048,-417.9905 899.0694,-427.3665 907.3044,-432.9189 923.4067,-442.4414 986.0475,-471.524 999.0002,-478.098 1000.1188,-478.7116 996.1895,-527.9 996.4249,-532.3818 995.7354,-551.5853 985.5081,-679.6149 922.5752,-655.4424 914.5795,-652.7569 911.5181,-651.8755 903.626,-649.7907 895.3851,-647.8111 887.3583,-646.0765 881.2477,-645.0509 867.0568,-643.0107 862.4548,-642.5722 858.2952,-642.3759 851.2166,-642.2118 841.4675,-641.7506 835.1189,-641.2972 825.4883,-640.3771 821.7308,-639.9281 814.3632,-638.693 810.6713,-637.9853 809.5795,-751.5576 804.6704,-752.9174 800.5212,-756.4061 800.1629,-756.4061 799.9808,-756.4587 797.7514,-796.0718 793.4595,-756.5182 790.4178,-756.5182 790.4178,-756.5182 793.4595,-756.5182 797.7514,-796.0718 799.9808,-756.4587 800.1629,-756.4061 800.5212,-756.4061 804.6704,-752.9174 809.5795,-751.5576 810.6713,-637.9853 802.2036,-636.1578 797.4023,-635.0065 788.2031,-632.3575 774.9106,-627.8873 773.7236,-627.4599 752.804,-619.4246 722.7537,-591.6396 747.9438,-527.9 762.2507,-480.0439 763.2488,-477.049 761.125,-474.3763 758.0367,-470.6962 750.8552,-462.6054 739.7504,-451.5309 731.2816,-444.1929 730.7207,-443.6087 717.1929,-431.5716 661.8414,-391.1299 654.6188,-385.2935 651.1127,-381.6014 635.8376,-368.3352 622.1862,-353.762 618.4641,-349.5515 608.0212,-336.3401 607.1685,-335.2061 603.7931,-330.2385 592.4214,-314.4507 589.5013,-314.8689 581.4738,-315.689 572.4801,-316.2397 557.1872,-316.5501 556.1063,-316.5056 550.0864,-316.5019 546.9598,-316.4359 539.8654,-316.4298 536.0747,-316.2713 521.5281,-316.8425 520.6762,-316.8932 512.4378,-317.2143 501.2164,-318.3339 495.1705,-319.0596 494.7761,-319.4596 462.6985,-353.5734 472.9175,-447.003 473.4664,-456.8913 473.5634,-457.4778 475.1126,-485.0723 485.8534,-583.2725 478.125,-585.4964 466.2934,-588.0931 460.5999,-589.2128 450.4597,-590.9755 450.4906,-608.3793 449.1814,-662.0982 444.5792,-720.3738 444.7192,-720.4152 450.2575,-720.4152 450.9381,-720.2072 455.0721,-720.2072 455.6979,-720.963 461.9056,-724.813 466.4351,-724.813 466.4351,-724.813 461.9056,-724.813 455.6979,-720.963 455.0721,-720.2072 450.9381,-720.2072 450.2575,-720.4152 444.7192,-720.4152 444.5792,-720.3738 449.1814,-662.0982 450.4906,-608.3793 450.4597,-590.9755 440.3218,-592.0447 431.7469,-592.7538 411.4953,-593.9662 404.6009,-594.6933 389.6538,-596.954 370.5312,-601.1598 363.5641,-603.0078 361.8346,-603.5057 361.5795,-603.585 360.4055,-603.2233 347.1724,-599.4497 286.6265,-583.5943 285.287,-584.9113 284.5036,-585.6186 276.6691,-593.4227 270.3177,-599.4664 264.0997,-605.7209 257.1414,-612.3702 247.4424,-620.674 252.979,-712.3146 247.5301,-713.9825 243.9428,-717.2847 247.1543,-720.0928 247.1543,-720.0928 243.9428,-717.2847 247.5301,-713.9825 252.979,-712.3146 247.4424,-620.674 247.1732,-620.8908 243.4086,-623.7432 230.8036,-632.1214 218.6124,-639.0654 165.3261,-666.7941 148.7373,-676.267 135.6232,-685.6583 129.7105,-690.1717 128.1914,-691.5555 113.6337,-703.954 102.2138,-714.7178 91.9912,-725.2735 84.9115,-733.2216 85.7031,-734.4214 149.9073,-842.0487 169.8035,-857.2338 175.4348,-913.204 176.8241,-940.4287 178.4472,-944.5272 208.1512,-1025.4513 215.8024,-1034.3931 260.9597,-1076.5519 299.6171,-1063.0146 311.9771,-1059.2598 320.112,-1056.9791 320.9627,-1000.7392 320.8638,-996.8029 322.0841,-927.036 327.842,-928.7883 332.0209,-927.5864 336.3196,-923.4817 333.1124,-920.6123 327.5681,-918.9215 327.5681,-918.9215 333.1124,-920.6123 336.3196,-923.4817 332.0209,-927.5864 327.842,-928.7883 322.0841,-927.036 320.8638,-996.8029 320.9627,-1000.7392 320.112,-1056.9791 339.2576,-1052.951 340.6909,-1052.7169 355.163,-1050.6906 468.6933,-1040.1207 477.2054,-1048.7501 595.3719,-1084.4496 599.072,-1084.3333 600.6239,-979.9178 598.2498,-948.991 474.9733,-964.5862 477.6046,-932.8683 478.621,-901.0645 481.6881,-863.665 493.3102,-857.4082 491.8295,-775.7964 491.8295,-775.7964 493.3102,-857.4082 481.6881,-863.665 478.621,-901.0645 477.6046,-932.8683 474.9733,-964.5862 598.2498,-948.991 600.6239,-979.9178 599.072,-1084.3333 601.28,-1084.349 612.5961,-1084.6476 621.9268,-1085.074 624.2432,-1085.2692 633.4356,-1081.6368 628.6796,-943.6279 628.5034,-943.5784 624.6061,-943.5784 623.1299,-943.1611 618.9166,-943.1611 617.8718,-838.7549 623.4844,-838.7048 624.3713,-782.9344 624.3713,-782.9344 623.4844,-838.7048 617.8718,-838.7549 618.9166,-943.1611 623.1299,-943.1611 624.6061,-943.5784 628.5034,-943.5784 628.6796,-943.6279 633.4356,-1081.6368 641.8758,-1078.4927 641.8106,-1031.7959 643.749,-1000.787 650.2624,-944.1159 650.9786,-943.3274 649.4711,-941.6684 644.4988,-938.903 644.4988,-938.903 649.4711,-941.6684 647.4784,-838.8884 642.6713,-838.7653 643.1135,-796.3459 649.9764,-734.5583 649.228,-734.3321 647.1169,-734.3321 642.8812,-730.4326 639.0818,-729.3643 639.0818,-729.3643 642.8812,-730.4326 647.1169,-734.3321 649.228,-734.3321 649.9764,-734.5583 643.1135,-796.3459 642.6713,-838.7653 647.4784,-838.8884 649.4711,-941.6684 650.9786,-943.3274 650.2624,-944.1159 643.749,-1000.787 641.8106,-1031.7959 641.8758,-1078.4927 658.2457,-1073.8557 668.724,-1071.3562 677.5039,-1069.6543 684.1855,-1068.657 729.4423,-1062.9092 768.0862,-1044.5789 838.7693,-1058.4274 840.428,-1058.7902 852.773,-1062.0602 863.3798,-1065.3578 867.0408,-1065.1427 871.488,-1065.0658 873.1308,-980.9176 871.0266,-932.9736 872.5557,-931.134 871.6532,-930.1138 866.0111,-926.8502 861.2944,-926.8502 861.2944,-926.8502 866.0111,-926.8502 871.6532,-930.1138 872.5557,-931.134 871.0266,-932.9736 873.1308,-980.9176 871.488,-1065.0658 875.2423,-1065.1564 882.129,-931.7283 885.6174,-931.7283 885.6174,-931.7283 882.129,-931.7283 875.2423,-1065.1564 892.8715,-1065.9475 905.6154,-1067.0465 984.7317,-1046.7581 1026.97,-970.6687 1027.4225,-952.1844 1026.7527,-938.1446 1026.7074,-917.9434 1028.0482,-852.5167 1010.9415,-802.2012 1025.707,-730.1985 1027.0306,-724.6969 1057.3625,-712.5126 1073.8427,-706.205 1079.2234,-704.2503 1089.2706,-700.9896 1099.4888,-697.8721 1098.8611,-661.4754 1099.6473,-542.118 1103.2522,-538.9301 1099.5474,-535.5276 1093.9991,-533.8406 1097.7312,-457.5204 1088.1473,-459.9339 1078.9846,-461.8668 1076.6232,-462.2676 1072.0211,-462.8611 1071.7203,-472.1926 1071.7203,-472.1926 1072.0211,-462.8611 1076.6232,-462.2676 1078.9846,-461.8668 1088.1473,-459.9339 1097.7312,-457.5204 1093.9991,-533.8406 1099.5474,-535.5276 1103.2522,-538.9301 1099.6473,-542.118 1098.8611,-661.4754 1099.4888,-697.8721 1113.1107,-694.2478 1111.8141,-623.4716 1110.2255,-594.027 1110.2255,-594.027 1111.8141,-623.4716 1113.1107,-694.2478 1113.1107,-694.2478"/>
<polygon fill="#fed9a6" stroke="#fed9a6" points="471.5786,102.0484 466.3114,98.8992 464.167,97.7287 339.7208,32.9496 347.6384,-30.3657 349.6256,-57.9406 350.0737,-67.84 358.873,-138.206 360.6573,-139.0764 361.2419,-139.8654 362.2215,-141.0875 392.7339,-177.6874 396.2862,-182.5062 457.1578,-270.6707 485.6087,-306.4694 495.9031,-185.339 500.807,-181.5159 501.3407,-180.6675 503.2347,-179.2807 505.0255,-179.2807 505.2862,-179.2065 505.2862,-179.2065 505.0255,-179.2807 503.2347,-179.2807 501.3407,-180.6675 500.807,-181.5159 495.9031,-185.339 485.6087,-306.4694 495.1705,-319.0596 501.2164,-318.3339 512.4378,-317.2143 520.6762,-316.8932 521.5281,-316.8425 536.0747,-316.2713 539.8654,-316.4298 546.9598,-316.4359 550.0864,-316.5019 556.1063,-316.5056 557.1872,-316.5501 572.4801,-316.2397 581.4738,-315.689 589.5013,-314.8689 592.4214,-314.4507 603.7931,-330.2385 607.1685,-335.2061 608.0212,-336.3401 618.4641,-349.5515 622.1862,-353.762 635.8376,-368.3352 651.1127,-381.6014 654.6188,-385.2935 661.8414,-391.1299 717.1929,-431.5716 730.7207,-443.6087 730.0812,-405.2867 730.0812,-405.2867 730.7207,-443.6087 731.2816,-444.1929 739.7504,-451.5309 739.8235,-411.8921 742.794,-373.8654 747.1677,-373.8654 753.2905,-370.2994 754.1714,-369.3162 752.0733,-366.9296 748.2114,-364.84 748.2114,-364.84 752.0733,-366.9296 754.1714,-369.3162 753.2905,-370.2994 747.1677,-373.8654 742.794,-373.8654 739.8235,-411.8921 739.7504,-451.5309 750.8552,-462.6054 758.0367,-470.6962 761.125,-474.3763 763.2488,-477.049 762.2507,-480.0439 747.9438,-527.9 722.7537,-591.6396 752.804,-619.4246 773.7236,-627.4599 774.9106,-627.8873 788.2031,-632.3575 797.4023,-635.0065 802.2036,-636.1578 810.6713,-637.9853 814.3632,-638.693 821.7308,-639.9281 825.4883,-640.3771 835.1189,-641.2972 841.4675,-641.7506 851.2166,-642.2118 858.2952,-642.3759 862.4548,-642.5722 867.0568,-643.0107 881.2477,-645.0509 887.3583,-646.0765 895.3851,-647.8111 903.626,-649.7907 900.395,-528.3023 899.6512,-528.3023 894.6899,-523.9308 891.2721,-523.0192 891.2721,-523.0192 894.6899,-523.9308 899.6512,-528.3023 900.395,-528.3023 903.626,-649.7907 911.5181,-651.8755 914.5795,-652.7569 922.5752,-655.4424 923.0097,-595.3872 923.0097,-595.3872 922.5752,-655.4424 985.5081,-679.6149 995.7354,-551.5853 996.4249,-532.3818 996.1895,-527.9 1000.1188,-478.7116 999.0002,-478.098 986.0475,-471.524 923.4067,-442.4414 907.3044,-432.9189 899.0694,-427.3665 886.7048,-417.9905 880.338,-412.6368 894.0325,-394.1644 905.4443,-376.4386 951.3499,-298.85 902.4412,-298.85 888.5634,-299.9441 862.1643,-305.2719 857.1777,-302.0837 855.0256,-298.8734 852.5699,-298.8734 852.5699,-298.8734 855.0256,-298.8734 857.1777,-302.0837 862.1643,-305.2719 888.5634,-299.9441 902.4412,-298.85 951.3499,-298.85 975.7845,-265.8905 987.8126,-264.2378 999.1055,-262.1594 1009.9958,-259.9024 1010.9259,-259.645 1029.297,-254.1256 1047.4865,-247.3909 1057.48,-242.9991 1058.9287,-242.329 1108.2616,-251.7964 1129.1577,-256.6562 1135.8073,-258.4685 1158.7034,-266.0991 1185.7448,-275.6433 1284.9015,-114.1198 1292.7313,-101.985 1305.343,-84.1469 1306.3838,-78.9814 1306.5197,-75.7826 1291.509,-48.6738 1228.6281,1.8136 1153.4996,18.122 1146.6978,18.8156 1140.556,19.5843 1133.4464,20.8047 1120.4554,23.6424 1119.2024,23.9746 1104.203,25.3603 1022.4093,34.7123 995.456,24.5673 985.6797,25.9471 962.739,-2.0268 953.0649,-13.379 941.2083,-28.0193 924.5068,-45.9109 921.0991,-49.1744 919.8593,-95.2417 915.8107,-141.1205 911.2206,-143.6656 910.3171,-58.5429 907.3117,-61.3402 907.3117,-61.3402 910.3171,-58.5429 911.2206,-143.6656 915.8107,-141.1205 919.8593,-95.2417 921.0991,-49.1744 924.5068,-45.9109 941.2083,-28.0193 953.0649,-13.379 962.739,-2.0268 985.6797,25.9471 914.1883,78.7237 838.6138,78.3228 822.554,78.5943 822.4014,-11.7652 818.9001,-45.2424 814.9746,-45.2424 814.1405,-45.4817 810.0853,-45.4817 809.8832,-45.5395 804.8575,-45.5395 803.3226,-6.9439 798.7189,-41.7976 794.9804,-40.7885 788.3244,-42.757 785.241,-45.2755 784.5305,-45.2755 784.5305,-45.2755 785.241,-45.2755 788.3244,-42.757 794.9804,-40.7885 798.7189,-41.7976 803.3226,-6.9439 804.8575,-45.5395 809.8832,-45.5395 810.0853,-45.4817 814.1405,-45.4817 814.9746,-45.2424 818.9001,-45.2424 822.4014,-11.7652 822.554,78.5943 811.2682,79.2867 806.0195,79.725 790.8212,82.0086 779.8228,84.1493 778.7844,84.3974 760.2218,89.2487 761.7064,35.7476 761.7064,35.7476 760.2218,89.2487 759.0647,89.6276 749.0954,97.0821 703.6587,118.9776 683.0851,115.1253 676.6933,114.0687 664.2087,112.2797 664.2654,11.0789 660.9438,-14.2005 656.6614,-13.0018 656.6614,-13.0018 660.9438,-14.2005 664.2654,11.0789 664.2087,112.2797 653.7989,111.2491 638.8654,110.4319 634.0607,110.3819 635.2903,-13.0631 580.1094,3.3587 584.4591,-22.4097 585.0577,-28.2003 585.9292,-33.356 587.1743,-45.4685 599.7203,-100.2121 563.4509,-106.8649 557.6988,-172.8448 593.226,-179.26 697.7855,-179.26 700.7514,-183.601 676.2451,-239.5224 715.4294,-283.0045 723.5717,-291.458 728.0801,-295.8026 731.7921,-298.85 758.8284,-298.85 795.1259,-305.2442 799.3689,-302.4816 801.3499,-299.1877 801.3499,-299.1877 799.3689,-302.4816 795.1259,-305.2442 758.8284,-298.85 731.7921,-298.85 728.0801,-295.8026 723.5717,-291.458 715.4294,-283.0045 676.2451,-239.5224 700.7514,-183.601 697.7855,-179.26 593.226,-179.26 557.6988,-172.8448 563.4509,-106.8649 599.7203,-100.2121 587.1743,-45.4685 585.9292,-33.356 585.0577,-28.2003 584.4591,-22.4097 580.1094,3.3587 635.2903,-13.0631 634.0607,110.3819 555.3713,111.3018 536.3155,118.4129 533.8416,117.5366 530.1572,116.3018 505.868,109.5368 504.47,109.1746 488.4651,106.2444 485.7808,105.8042 483.0874,-5.7825 478.8612,-39.1576 481.5665,-39.9449 484.7662,-39.9449 486.7916,-109.7731 489.6078,-109.6459 490.2021,-109.6439 499.2377,-109.2248 494.7676,-42.973 500.0784,-44.4616 505.0177,-43.048 508.9384,-39.577 505.4667,-36.5411 505.4667,-36.5411 508.9384,-39.577 505.0177,-43.048 500.0784,-44.4616 494.7676,-42.973 499.2377,-109.2248 490.2021,-109.6439 489.6078,-109.6459 486.7916,-109.7731 484.7662,-39.9449 481.5665,-39.9449 478.8612,-39.1576 483.0874,-5.7825 485.7808,105.8042 477.6098,104.7749 471.5786,102.0484 471.5786,102.0484"/>
<polygon fill="#fbb4ae" stroke="#fbb4ae" points="70.8077,-240.0319 66.9706,-240.0319 66.9684,-240.0335 65.1953,-242.6881 59.4732,-246.3519 35.6313,-239.87 -65.9898,-239.87 -57.3824,-187.0577 -49.3507,-174.6872 12.2734,-106.2732 45.6156,-94.2058 57.2569,-67.84 96.5917,42.1126 183.1242,75.201 185.4656,-2.8602 185.4656,-2.8602 183.1242,75.201 201.6514,83.1718 209.6681,86.9955 214.4797,89.5173 217.5474,-66.7817 212.1441,-63.4861 212.1441,-63.4861 217.5474,-66.7817 218.3074,-67.6978 216.8623,-69.4958 212.1571,-72.2982 206.6632,-72.2982 206.6632,-72.2982 212.1571,-72.2982 216.8623,-69.4958 218.3074,-67.6978 222.7229,-67.6978 224.393,-156.8518 228.7119,-70.2667 233.8843,-74.1959 234.1168,-175.9153 237.0621,-175.9637 237.7862,-224.6472 237.7862,-224.6472 237.0621,-175.9637 234.1168,-175.9153 233.8843,-74.1959 228.7119,-70.2667 224.393,-156.8518 222.7229,-67.6978 218.3074,-67.6978 217.5474,-66.7817 214.4797,89.5173 215.9229,90.3081 224.007,94.9343 236.2413,87.8436 339.7208,32.9496 347.6384,-30.3657 349.6256,-57.9406 350.0737,-67.84 358.873,-138.206 351.4717,-142.516 341.1414,-148.265 331.3495,-153.4562 315.0999,-160.3793 309.8868,-162.3282 300.1509,-165.7162 290.8427,-168.711 283.3143,-170.5431 276.0681,-171.9325 260.4932,-174.5163 255.5173,-174.9524 255.5173,-174.9524 260.4932,-174.5163 276.0681,-171.9325 283.3143,-170.5431 290.8427,-168.711 300.1509,-165.7162 303.0751,-279.4861 298.2705,-279.4861 292.6427,-282.8979 291.414,-284.3869 292.0473,-285.0934 297.8867,-288.4938 302.6512,-288.4938 302.6512,-288.4938 297.8867,-288.4938 292.0473,-285.0934 291.414,-284.3869 292.6427,-282.8979 298.2705,-279.4861 303.0751,-279.4861 300.1509,-165.7162 309.8868,-162.3282 315.0999,-160.3793 331.3495,-153.4562 331.3342,-193.2922 331.3342,-193.2922 331.3495,-153.4562 341.1414,-148.265 351.4717,-142.516 358.873,-138.206 360.6573,-139.0764 361.2419,-139.8654 362.2215,-141.0875 392.7339,-177.6874 396.2862,-182.5062 457.1578,-270.6707 485.6087,-306.4694 495.1705,-319.0596 494.7761,-319.4596 462.6985,-353.5734 472.9175,-447.003 473.4664,-456.8913 473.5634,-457.4778 475.1126,-485.0723 485.8534,-583.2725 478.125,-585.4964 466.2934,-588.0931 460.5999,-589.2128 450.4597,-590.9755 440.3218,-592.0447 431.7469,-592.7538 411.4953,-593.9662 404.6009,-594.6933 389.6538,-596.954 370.5312,-601.1598 363.5641,-603.0078 361.8346,-603.5057 361.5795,-603.585 360.4055,-603.2233 347.1724,-599.4497 286.6265,-583.5943 285.287,-584.9113 284.5036,-585.6186 276.6691,-593.4227 270.3177,-599.4664 264.0997,-605.7209 257.1414,-612.3702 247.4424,-620.674 247.1732,-620.8908 243.4086,-623.7432 230.8036,-632.1214 218.6124,-639.0654 165.3261,-666.7941 148.7373,-676.267 135.6232,-685.6583 129.7105,-690.1717 128.1914,-691.5555 113.6337,-703.954 114.4275,-640.1644 118.1064,-592.5192 122.1016,-594.7283 128.0624,-594.7283 134.0573,-591.1213 134.6141,-590.4862 132.7736,-588.3326 128.7429,-586.0731 122.8003,-586.0731 122.8003,-586.0731 128.7429,-586.0731 132.7736,-588.3326 134.6141,-590.4862 134.0573,-591.1213 128.0624,-594.7283 122.1016,-594.7283 118.1064,-592.5192 114.4275,-640.1644 113.6337,-703.954 102.2138,-714.7178 91.9912,-725.2735 93.5585,-623.535 91.0918,-596.8253 91.0918,-596.8253 93.5585,-623.535 91.9912,-725.2735 84.9115,-733.2216 29.4625,-716.7895 -22.09,-682.4343 -38.532,-590.37 -51.5213,-538.934 -46.4339,-520.1523 -112.4355,-385.25 -121.504,-369.3098 -123.8266,-341.8223 -77.6651,-288.7045 -65.9898,-239.87 35.6313,-239.87 59.4732,-246.3519 61.8462,-312.4468 53.7035,-312.5608 46.6241,-312.0663 39.2372,-311.2399 39.2372,-311.2399 46.6241,-312.0663 53.7035,-312.5608 61.8462,-312.4468 59.4732,-246.3519 65.1953,-242.6881 66.9684,-240.0335 66.9706,-240.0319 70.8077,-240.0319 66.4109,-312.7563 66.3918,-312.7565 66.2746,-312.7532 60.9793,-380.901 56.6633,-383.4271 54.95,-385.5497 55.9032,-386.6538 60.8867,-389.5609 60.8867,-389.5609 55.9032,-386.6538 54.95,-385.5497 56.6633,-383.4271 60.9793,-380.901 66.2746,-312.7532 66.3918,-312.7565 66.4109,-312.7563 70.8077,-240.0319 70.8739,-240.0123 74.2976,-240.0123 74.8763,-240.6724 74.8763,-240.6724 74.2976,-240.0123 70.8739,-240.0123 70.8077,-240.0319 70.8077,-240.0319"/>
<polygon fill="#fed9a6" stroke="#fed9a6" points="1178.0979,-570.2563 1180.9935,-556.5765 1182.0082,-550.1012 1183.7589,-541.7771 1188.5691,-523.5496 1228.3741,-396.9889 1241.3961,-402.6297 1242.7454,-403.188 1254.0228,-407.6385 1264.1953,-411.2596 1280.5411,-416.1363 1290.3844,-418.692 1291.0181,-418.8443 1300.8198,-425.0846 1311.911,-431.5653 1317.7482,-434.6707 1319.4777,-435.546 1321.6301,-502.7857 1321.6301,-502.7857 1319.4777,-435.546 1431.1494,-486.4181 1444.0215,-533.1776 1443.0131,-572.6552 1443.1731,-578.5768 1446.1343,-634.1104 1374.4204,-694.337 1335.839,-697.9115 1316.8235,-700.1242 1317.911,-614.2714 1314.955,-574.9134 1311.2751,-574.9134 1310.4408,-574.6572 1310.4408,-574.6572 1311.2751,-574.9134 1314.955,-574.9134 1317.911,-614.2714 1316.8235,-700.1242 1306.389,-701.8286 1296.7142,-703.8631 1281.9014,-707.6744 1279.288,-708.4684 1277.7552,-708.3274 1272.4568,-707.9543 1249.9928,-707.8254 1244.8031,-707.9078 1224.6882,-709.529 1142.3016,-688.6575 1170.1991,-599.9571 1240.4033,-579.6858 1243.9719,-628.7484 1244.9093,-697.153 1251.8816,-574.8748 1257.228,-574.8748 1257.4427,-574.8114 1260.8954,-574.8114 1267.7322,-625.8867 1267.3813,-574.6182 1267.3813,-574.6182 1267.7322,-625.8867 1260.8954,-574.8114 1257.4427,-574.8114 1257.228,-574.8748 1251.8816,-574.8748 1244.9093,-697.153 1243.9719,-628.7484 1240.4033,-579.6858 1170.1991,-599.9571 1178.0979,-570.2563 1178.0979,-570.2563"/>
<polyline fill="none" stroke="#000000" points="608.0212,-336.3401 618.4641,-349.5515 622.1862,-353.762 635.8376,-368.3352 651.1127,-381.6014 654.6188,-385.2935 661.8414,-391.1299 717.1929,-431.5716 730.7207,-443.6087 731.2816,-444.1929 739.7504,-451.5309 750.8552,-462.6054 758.0367,-470.6962 761.125,-474.3763 763.2488,-477.049 762.2507,-480.0439 747.9438,-527.9 722.7537,-591.6396 752.804,-619.4246 773.7236,-627.4599 774.9106,-627.8873 788.2031,-632.3575 797.4023,-635.0065 802.2036,-636.1578 810.6713,-637.9853 814.3632,-638.693 821.7308,-639.9281 825.4883,-640.3771 835.1189,-641.2972 841.4675,-641.7506 851.2166,-642.2118 858.2952,-642.3759 862.4548,-642.5722 867.0568,-643.0107 881.2477,-645.0509 887.3583,-646.0765 895.3851,-647.8111 903.626,-649.7907 911.5181,-651.8755 914.5795,-652.7569 922.5752,-655.4424 985.5081,-679.6149 995.7354,-551.5853 996.4249,-532.3818 996.1895,-527.9 1000.1188,-478.7116 999.0002,-478.098 986.0475,-471.524 923.4067,-442.4414 907.3044,-432.9189 899.0694,-427.3665 886.7048,-417.9905 880.338,-412.6368 894.0325,-394.1644 905.4443,-376.4386 951.3499,-298.85 975.7845,-265.8905 987.8126,-264.2378 999.1055,-262.1594 1009.9958,-259.9024 1010.9259,-259.645 1029.297,-254.1256 1047.4865,-247.3909 1057.48,-242.9991 1058.9287,-242.329 1108.2616,-251.7964 1129.1577,-256.6562 1135.8073,-258.4685 1158.7034,-266.0991 1185.7448,-275.6433 1197.4878,-298.7995 1224.3551,-387.99 1227.1913,-395.8408 1228.3741,-396.9889 1188.5691,-523.5496 1183.7589,-541.7771 1182.0082,-550.1012 1180.9935,-556.5765 1178.0979,-570.2563 1170.1991,-599.9571 1142.3016,-688.6575 1117.9607,-693.2409 1113.1107,-694.2478 1099.4888,-697.8721 1089.2706,-700.9896 1079.2234,-704.2503 1073.8427,-706.205 1057.3625,-712.5126 1027.0306,-724.6969 1025.707,-730.1985 1010.9415,-802.2012 1028.0482,-852.5167 1026.7074,-917.9434 1026.7527,-938.1446 1027.4225,-952.1844 1026.97,-970.6687 984.7317,-1046.7581 905.6154,-1067.0465 892.8715,-1065.9475 875.2423,-1065.1564 871.488,-1065.0658 867.0408,-1065.1427 863.3798,-1065.3578 852.773,-1062.0602 840.428,-1058.7902 838.7693,-1058.4274 768.0862,-1044.5789 729.4423,-1062.9092 684.1855,-1068.657 677.5039,-1069.6543 668.724,-1071.3562 658.2457,-1073.8557 641.8758,-1078.4927 633.4356,-1081.6368 624.2432,-1085.2692 621.9268,-1085.074 612.5961,-1084.6476 601.28,-1084.349 599.072,-1084.3333 595.3719,-1084.4496 477.2054,-1048.7501 468.6933,-1040.1207 355.163,-1050.6906 340.6909,-1052.7169 339.2576,-1052.951 320.112,-1056.9791 311.9771,-1059.2598 299.6171,-1063.0146 260.9597,-1076.5519 215.8024,-1034.3931 208.1512,-1025.4513 178.4472,-944.5272 176.8241,-940.4287 175.4348,-913.204 169.8035,-857.2338 149.9073,-842.0487 85.7031,-734.4214 84.9115,-733.2216 91.9912,-725.2735 102.2138,-714.7178 113.6337,-703.954 128.1914,-691.5555 129.7105,-690.1717 135.6232,-685.6583 148.7373,-676.267 165.3261,-666.7941 218.6124,-639.0654 230.8036,-632.1214 243.4086,-623.7432 247.1732,-620.8908 247.4424,-620.674 257.1414,-612.3702 264.0997,-605.7209 270.3177,-599.4664 276.6691,-593.4227 284.5036,-585.6186 285.287,-584.9113 286.6265,-583.5943 347.1724,-599.4497 360.4055,-603.2233 361.5795,-603.585 361.8346,-603.5057 363.5641,-603.0078 370.5312,-601.1598 389.6538,-596.954 404.6009,-594.6933 411.4953,-593.9662 431.7469,-592.7538 440.3218,-592.0447 450.4597,-590.9755 460.5999,-589.2128 466.2934,-588.0931 478.125,-585.4964 485.8534,-583.2725 475.1126,-485.0723 473.5634,-457.4778 473.4664,-456.8913 472.9175,-447.003 462.6985,-353.5734 494.7761,-319.4596 495.1705,-319.0596 501.2164,-318.3339 512.4378,-317.2143 520.6762,-316.8932 521.5281,-316.8425 536.0747,-316.2713 539.8654,-316.4298 546.9598,-316.4359 550.0864,-316.5019 556.1063,-316.5056 557.1872,-316.5501 572.4801,-316.2397 581.4738,-315.689 589.5013,-314.8689 592.4214,-314.4507 603.7931,-330.2385 607.1685,-335.2061 608.0212,-336.3401 "/>
<polyline fill="none" stroke="#000000" points="975.7845,-265.8905 987.8126,-264.2378 999.1055,-262.1594 1009.9958,-259.9024 1010.9259,-259.645 1029.297,-254.1256 1047.4865,-247.3909 1057.48,-242.9991 1058.9287,-242.329 1108.2616,-251.7964 1129.1577,-256.6562 1135.8073,-258.4685 1158.7034,-266.0991 1185.7448,-275.6433 1284.9015,-114.1198 1292.7313,-101.985 1305.343,-84.1469 1306.3838,-78.9814 1306.5197,-75.7826 1291.509,-48.6738 1228.6281,1.8136 1153.4996,18.122 1146.6978,18.8156 1140.556,19.5843 1133.4464,20.8047 1120.4554,23.6424 1119.2024,23.9746 1104.203,25.3603 1022.4093,34.7123 995.456,24.5673 985.6797,25.9471 914.1883,78.7237 838.6138,78.3228 822.554,78.5943 811.2682,79.2867 806.0195,79.725 790.8212,82.0086 779.8228,84.1493 778.7844,84.3974 760.2218,89.2487 759.0647,89.6276 749.0954,97.0821 703.6587,118.9776 683.0851,115.1253 676.6933,114.0687 664.2087,112.2797 653.7989,111.2491 638.8654,110.4319 634.0607,110.3819 555.3713,111.3018 536.3155,118.4129 533.8416,117.5366 530.1572,116.3018 505.868,109.5368 504.47,109.1746 488.4651,106.2444 485.7808,105.8042 477.6098,104.7749 471.5786,102.0484 466.3114,98.8992 464.167,97.7287 339.7208,32.9496 347.6384,-30.3657 349.6256,-57.9406 350.0737,-67.84 358.873,-138.206 360.6573,-139.0764 361.2419,-139.8654 362.2215,-141.0875 392.7339,-177.6874 396.2862,-182.5062 457.1578,-270.6707 485.6087,-306.4694 495.1705,-319.0596 501.2164,-318.3339 512.4378,-317.2143 520.6762,-316.8932 521.5281,-316.8425 536.0747,-316.2713 539.8654,-316.4298 546.9598,-316.4359 550.0864,-316.5019 556.1063,-316.5056 557.1872,-316.5501 572.4801,-316.2397 581.4738,-315.689 589.5013,-314.8689 592.4214,-314.4507 603.7931,-330.2385 607.1685,-335.2061 608.0212,-336.3401 618.4641,-349.5515 622.1862,-353.762 635.8376,-368.3352 651.1127,-381.6014 654.6188,-385.2935 661.8414,-391.1299 717.1929,-431.5716 730.7207,-443.6087 731.2816,-444.1929 739.7504,-451.5309 750.8552,-462.6054 758.0367,-470.6962 761.125,-474.3763 763.2488,-477.049 762.2507,-480.0439 747.9438,-527.9 722.7537,-591.6396 752.804,-619.4246 773.7236,-627.4599 774.9106,-627.8873 788.2031,-632.3575 797.4023,-635.0065 802.2036,-636.1578 810.6713,-637.9853 814.3632,-638.693 821.7308,-639.9281 825.4883,-640.3771 835.1189,-641.2972 841.4675,-641.7506 851.2166,-642.2118 858.2952,-642.3759 862.4548,-642.5722 867.0568,-643.0107 881.2477,-645.0509 887.3583,-646.0765 895.3851,-647.8111 903.626,-649.7907 911.5181,-651.8755 914.5795,-652.7569 922.5752,-655.4424 985.5081,-679.6149 995.7354,-551.5853 996.4249,-532.3818 996.1895,-527.9 1000.1188,-478.7116 999.0002,-478.098 986.0475,-471.524 923.4067,-442.4414 907.3044,-432.9189 899.0694,-427.3665 886.7048,-417.9905 880.338,-412.6368 894.0325,-394.1644 905.4443,-376.4386 951.3499,-298.85 975.7845,-265.8905 "/>
<polyline fill="none" stroke="#000000" points="370.5312,-601.1598 363.5641,-603.0078 361.8346,-603.5057 361.5795,-603.585 360.4055,-603.2233 347.1724,-599.4497 286.6265,-583.5943 285.287,-584.9113 284.5036,-585.6186 276.6691,-593.4227 270.3177,-599.4664 264.0997,-605.7209 257.1414,-612.3702 247.4424,-620.674 247.1732,-620.8908 243.4086,-623.7432 230.8036,-632.1214 218.6124,-639.0654 165.3261,-666.7941 148.7373,-676.267 135.6232,-685.6583 129.7105,-690.1717 128.1914,-691.5555 113.6337,-703.954 102.2138,-714.7178 91.9912,-725.2735 84.9115,-733.2216 29.4625,-716.7895 -22.09,-682.4343 -38.532,-590.37 -51.5213,-538.934 -46.4339,-520.1523 -112.4355,-385.25 -121.504,-369.3098 -123.8266,-341.8223 -77.6651,-288.7045 -65.9898,-239.87 -57.3824,-187.0577 -49.3507,-174.6872 12.2734,-106.2732 45.6156,-94.2058 57.2569,-67.84 96.5917,42.1126 183.1242,75.201 201.6514,83.1718 209.6681,86.9955 214.4797,89.5173 215.9229,90.3081 224.007,94.9343 236.2413,87.8436 339.7208,32.9496 347.6384,-30.3657 349.6256,-57.9406 350.0737,-67.84 358.873,-138.206 360.6573,-139.0764 361.2419,-139.8654 362.2215,-141.0875 392.7339,-177.6874 396.2862,-182.5062 457.1578,-270.6707 485.6087,-306.4694 495.1705,-319.0596 494.7761,-319.4596 462.6985,-353.5734 472.9175,-447.003 473.4664,-456.8913 473.5634,-457.4778 475.1126,-485.0723 485.8534,-583.2725 478.125,-585.4964 466.2934,-588.0931 460.5999,-589.2128 450.4597,-590.9755 440.3218,-592.0447 431.7469,-592.7538 411.4953,-593.9662 404.6009,-594.6933 389.6538,-596.954 370.5312,-601.1598 "/>
<polyline fill="none" stroke="#000000" points="1272.4568,-707.9543 1249.9928,-707.8254 1244.8031,-707.9078 1224.6882,-709.529 1142.3016,-688.6575 1170.1991,-599.9571 1178.0979,-570.2563 1180.9935,-556.5765 1182.0082,-550.1012 1183.7589,-541.7771 1188.5691,-523.5496 1228.3741,-396.9889 1241.3961,-402.6297 1242.7454,-403.188 1254.0228,-407.6385 1264.1953,-411.2596 1280.5411,-416.1363 1290.3844,-418.692 1291.0181,-418.8443 1300.8198,-425.0846 1311.911,-431.5653 1317.7482,-434.6707 1319.4777,-435.546 1431.1494,-486.4181 1444.0215,-533.1776 1443.0131,-572.6552 1443.1731,-578.5768 1446.1343,-634.1104 1374.4204,-694.337 1335.839,-697.9115 1316.8235,-700.1242 1306.389,-701.8286 1296.7142,-703.8631 1281.9014,-707.6744 1279.288,-708.4684 1277.7552,-708.3274 1272.4568,-707.9543 "/>
<!-- device&#45;mapper&#45;libs&#45;&gt;Fedora Container Base -->
<g id="edge1" class="edge">
<title>device&#45;mapper&#45;libs&#45;&gt;Fedora Container Base</title>
<path fill="none" stroke="#444444" stroke-opacity="0.333333" d="M640.0383,-925.0404C633.2972,-850.8461 607.9627,-572.007 599.795,-482.1112"/>
<polygon fill="#444444" fill-opacity="0.333333" stroke="#444444" stroke-opacity="0.333333" points="603.277,-481.7537 598.8865,-472.1114 596.3058,-482.3872 603.277,-481.7537"/>
</g>
<!-- device&#45;mapper&#45;libs&#45;&gt;device&#45;mapper -->
<g id="edge2" class="edge">
<title>device&#45;mapper&#45;libs&#45;&gt;device&#45;mapper</title>
<path fill="none" stroke="#444444" stroke-opacity="0.333333" d="M645.4198,-925.0783C648.1924,-888.575 647.1322,-806.3415 643.5985,-762.709"/>
<polygon fill="#444444" fill-opacity="0.333333" stroke="#444444" stroke-opacity="0.333333" points="647.06,-762.1313 642.6477,-752.499 640.0901,-762.7805 647.06,-762.1313"/>
</g>
<!-- device&#45;mapper&#45;&gt;Fedora Container Base -->
<g id="edge31" class="edge">
<title>device&#45;mapper&#45;&gt;Fedora Container Base</title>
<path fill="none" stroke="#444444" stroke-opacity="0.333333" d="M635.634,-715.88C628.6227,-668.0555 609.7811,-539.5343 601.3807,-482.234"/>
<polygon fill="#444444" fill-opacity="0.333333" stroke="#444444" stroke-opacity="0.333333" points="604.8061,-481.4698 599.8925,-472.0833 597.8802,-482.4853 604.8061,-481.4698"/>
</g>
<!-- device&#45;mapper&#45;&gt;device&#45;mapper&#45;libs -->
<g id="edge32" class="edge">
<title>device&#45;mapper&#45;&gt;device&#45;mapper&#45;libs</title>
<path fill="none" stroke="#444444" stroke-opacity="0.333333" d="M634.6102,-752.5217C631.8376,-789.025 632.8978,-871.2585 636.4315,-914.891"/>
<polygon fill="#444444" fill-opacity="0.333333" stroke="#444444" stroke-opacity="0.333333" points="632.97,-915.4687 637.3823,-925.101 639.9399,-914.8195 632.97,-915.4687"/>
</g>
<!-- device&#45;mapper&#45;&gt;systemd -->
<g id="edge33" class="edge">
<title>device&#45;mapper&#45;&gt;systemd</title>
<path fill="none" stroke="#444444" stroke-opacity="0.333333" d="M643.6203,-716.1676C660.9313,-656.9323 715.9717,-468.5938 736.862,-397.1111"/>
<polygon fill="#444444" fill-opacity="0.333333" stroke="#444444" stroke-opacity="0.333333" points="740.2421,-398.022 739.6878,-387.4417 733.5232,-396.0584 740.2421,-398.022"/>
</g>
<!-- device&#45;mapper&#45;&gt;util&#45;linux -->
<g id="edge34" class="edge">
<title>device&#45;mapper&#45;&gt;util&#45;linux</title>
<path fill="none" stroke="#444444" stroke-opacity="0.333333" d="M555.8118,-727.5964C550.15,-727.1385 544.4623,-726.6785 538.8446,-726.2241"/>
<polygon fill="#444444" fill-opacity="0.333333" stroke="#444444" stroke-opacity="0.333333" points="539.0789,-722.7318 528.8293,-725.4142 538.5146,-729.709 539.0789,-722.7318"/>
</g>
<!-- libargon2&#45;&gt;Fedora Container Base -->
<g id="edge3" class="edge">
<title>libargon2&#45;&gt;Fedora Container Base</title>
<path fill="none" stroke="#444444" stroke-opacity="0.333333" d="M853.474,-913.2776C812.7668,-840.3118 660.7979,-567.9147 612.2506,-480.8957"/>
<polygon fill="#444444" fill-opacity="0.333333" stroke="#444444" stroke-opacity="0.333333" points="615.2947,-479.1682 607.3661,-472.1405 609.1817,-482.5787 615.2947,-479.1682"/>
</g>
<!-- dbus&#45;broker&#45;&gt;Fedora Container Base -->
<g id="edge4" class="edge">
<title>dbus&#45;broker&#45;&gt;Fedora Container Base</title>
<path fill="none" stroke="#444444" stroke-opacity="0.333333" d="M801.6161,-316.9502C759.6209,-345.1091 678.6559,-399.3984 632.232,-430.5269"/>
<polygon fill="#444444" fill-opacity="0.333333" stroke="#444444" stroke-opacity="0.333333" points="630.0627,-427.7675 623.7062,-436.2437 633.9611,-433.5814 630.0627,-427.7675"/>
</g>
<!-- dbus&#45;broker&#45;&gt;dbus&#45;common -->
<g id="edge5" class="edge">
<title>dbus&#45;broker&#45;&gt;dbus&#45;common</title>
<path fill="none" stroke="#444444" stroke-opacity="0.333333" d="M833.5701,-317.2069C844.3703,-357.1778 870.0739,-452.3045 882.9201,-499.8475"/>
<polygon fill="#444444" fill-opacity="0.333333" stroke="#444444" stroke-opacity="0.333333" points="879.6148,-501.0328 885.6022,-509.7736 886.3725,-499.2068 879.6148,-501.0328"/>
</g>
<!-- dbus&#45;broker&#45;&gt;shadow&#45;utils -->
<g id="edge6" class="edge">
<title>dbus&#45;broker&#45;&gt;shadow&#45;utils</title>
<path fill="none" stroke="#444444" stroke-opacity="0.333333" d="M780.4694,-316.9141C697.7987,-347.935 529.1893,-411.2033 440.3882,-444.5246"/>
<polygon fill="#444444" fill-opacity="0.333333" stroke="#444444" stroke-opacity="0.333333" points="439.14,-441.2546 431.007,-448.0447 441.5992,-447.8084 439.14,-441.2546"/>
</g>
<!-- dbus&#45;broker&#45;&gt;systemd -->
<g id="edge7" class="edge">
<title>dbus&#45;broker&#45;&gt;systemd</title>
<path fill="none" stroke="#444444" stroke-opacity="0.333333" d="M807.0809,-316.9746C797.1345,-325.3482 785.1676,-335.4227 774.4066,-344.482"/>
<polygon fill="#444444" fill-opacity="0.333333" stroke="#444444" stroke-opacity="0.333333" points="771.862,-342.049 766.4661,-351.1668 776.3703,-347.404 771.862,-342.049"/>
</g>
<!-- dbus&#45;common&#45;&gt;Fedora Container Base -->
<g id="edge8" class="edge">
<title>dbus&#45;common&#45;&gt;Fedora Container Base</title>
<path fill="none" stroke="#444444" stroke-opacity="0.333333" d="M818.7605,-509.8196C773.737,-498.4724 715.8364,-483.8797 670.5229,-472.4594"/>
<polygon fill="#444444" fill-opacity="0.333333" stroke="#444444" stroke-opacity="0.333333" points="671.3137,-469.0493 660.7616,-469.9993 669.603,-475.8371 671.3137,-469.0493"/>
</g>
<!-- dbus&#45;common&#45;&gt;dbus&#45;common -->
<g id="edge9" class="edge">
<title>dbus&#45;common&#45;&gt;dbus&#45;common</title>
<path fill="none" stroke="#444444" stroke-opacity="0.333333" d="M968.0655,-533.9233C978.815,-532.9312 986,-530.9234 986,-527.9 986,-525.9631 983.0513,-524.4431 978.1057,-523.3398"/>
<polygon fill="#444444" fill-opacity="0.333333" stroke="#444444" stroke-opacity="0.333333" points="978.4657,-519.8554 968.0655,-521.8767 977.4562,-526.7823 978.4657,-519.8554"/>
</g>
<!-- dbus&#45;common&#45;&gt;systemd -->
<g id="edge10" class="edge">
<title>dbus&#45;common&#45;&gt;systemd</title>
<path fill="none" stroke="#444444" stroke-opacity="0.333333" d="M873.8104,-509.6985C848.0761,-481.6329 798.5938,-427.668 769.0171,-395.4119"/>
<polygon fill="#444444" fill-opacity="0.333333" stroke="#444444" stroke-opacity="0.333333" points="771.2911,-392.7131 761.9531,-387.7079 766.1317,-397.4439 771.2911,-392.7131"/>
</g>
<!-- shadow&#45;utils&#45;&gt;Fedora Container Base -->
<g id="edge11" class="edge">
<title>shadow&#45;utils&#45;&gt;Fedora Container Base</title>
<path fill="none" stroke="#444444" stroke-opacity="0.333333" d="M453.2657,-462.1582C455.977,-462.0044 458.7238,-461.8486 461.4981,-461.6912"/>
<polygon fill="#444444" fill-opacity="0.333333" stroke="#444444" stroke-opacity="0.333333" points="461.8627,-465.1762 471.6484,-461.1153 461.4662,-458.1874 461.8627,-465.1762"/>
</g>
<!-- shadow&#45;utils&#45;&gt;shadow&#45;utils -->
<g id="edge12" class="edge">
<title>shadow&#45;utils&#45;&gt;shadow&#45;utils</title>
<path fill="none" stroke="#444444" stroke-opacity="0.333333" d="M453.5556,-472.2834C464.099,-471.33 471.23,-469.2889 471.23,-466.16 471.23,-464.2044 468.4444,-462.6738 463.7812,-461.568"/>
<polygon fill="#444444" fill-opacity="0.333333" stroke="#444444" stroke-opacity="0.333333" points="463.9638,-458.0564 453.5556,-460.0366 462.9269,-464.9792 463.9638,-458.0564"/>
</g>
<!-- shadow&#45;utils&#45;&gt;libsemanage -->
<g id="edge13" class="edge">
<title>shadow&#45;utils&#45;&gt;libsemanage</title>
<path fill="none" stroke="#444444" stroke-opacity="0.333333" d="M345.3164,-484.2212C299.4877,-506.3447 221.8348,-543.8312 172.134,-567.8239"/>
<polygon fill="#444444" fill-opacity="0.333333" stroke="#444444" stroke-opacity="0.333333" points="170.3728,-564.7876 162.8888,-572.287 173.416,-571.0915 170.3728,-564.7876"/>
</g>
<!-- systemd&#45;&gt;Fedora Container Base -->
<g id="edge14" class="edge">
<title>systemd&#45;&gt;Fedora Container Base</title>
<path fill="none" stroke="#444444" stroke-opacity="0.333333" d="M713.3096,-387.4131C690.9008,-400.2667 660.7063,-417.5861 636.7312,-431.3381"/>
<polygon fill="#444444" fill-opacity="0.333333" stroke="#444444" stroke-opacity="0.333333" points="634.8091,-428.4056 627.8763,-436.4172 638.2921,-434.4777 634.8091,-428.4056"/>
</g>
<!-- systemd&#45;&gt;shadow&#45;utils -->
<g id="edge15" class="edge">
<title>systemd&#45;&gt;shadow&#45;utils</title>
<path fill="none" stroke="#444444" stroke-opacity="0.333333" d="M683.1435,-385.7827C621.5354,-402.2663 526.7906,-427.6158 460.2101,-445.4298"/>
<polygon fill="#444444" fill-opacity="0.333333" stroke="#444444" stroke-opacity="0.333333" points="458.9429,-442.1456 450.1873,-448.1114 460.7522,-448.9078 458.9429,-442.1456"/>
</g>
<!-- systemd&#45;&gt;systemd -->
<g id="edge16" class="edge">
<title>systemd&#45;&gt;systemd</title>
<path fill="none" stroke="#444444" stroke-opacity="0.333333" d="M806.6767,-375.5313C817.2113,-374.6703 824.51,-372.5698 824.51,-369.23 824.51,-367.0904 821.5146,-365.4595 816.592,-364.3372"/>
<polygon fill="#444444" fill-opacity="0.333333" stroke="#444444" stroke-opacity="0.333333" points="817.0696,-360.87 806.6767,-362.9287 816.0851,-367.8004 817.0696,-360.87"/>
</g>
<!-- systemd&#45;&gt;util&#45;linux -->
<g id="edge17" class="edge">
<title>systemd&#45;&gt;util&#45;linux</title>
<path fill="none" stroke="#444444" stroke-opacity="0.333333" d="M730.3031,-387.6045C683.7533,-445.7627 539.5157,-625.9699 485.1404,-693.9051"/>
<polygon fill="#444444" fill-opacity="0.333333" stroke="#444444" stroke-opacity="0.333333" points="482.1877,-691.9931 478.6713,-701.9874 487.6527,-696.3673 482.1877,-691.9931"/>
</g>
<!-- systemd&#45;&gt;iptables&#45;libs -->
<g id="edge18" class="edge">
<title>systemd&#45;&gt;iptables&#45;libs</title>
<path fill="none" stroke="#444444" stroke-opacity="0.333333" d="M806.7379,-373.4168C845.4296,-376.0411 895.7973,-379.4573 938.0405,-382.3225"/>
<polygon fill="#444444" fill-opacity="0.333333" stroke="#444444" stroke-opacity="0.333333" points="937.8194,-385.8154 948.0333,-383.0003 938.2931,-378.8315 937.8194,-385.8154"/>
</g>
<!-- systemd&#45;&gt;acl -->
<g id="edge19" class="edge">
<title>systemd&#45;&gt;acl</title>
<path fill="none" stroke="#444444" stroke-opacity="0.333333" d="M740.3686,-350.8409C725.7975,-293.1104 680.8971,-115.2157 663.422,-45.9797"/>
<polygon fill="#444444" fill-opacity="0.333333" stroke="#444444" stroke-opacity="0.333333" points="666.7963,-45.0465 660.9554,-36.2071 660.0092,-46.7596 666.7963,-45.0465"/>
</g>
<!-- systemd&#45;&gt;cryptsetup&#45;libs -->
<g id="edge20" class="edge">
<title>systemd&#45;&gt;cryptsetup&#45;libs</title>
<path fill="none" stroke="#444444" stroke-opacity="0.333333" d="M748.0396,-387.388C758.3835,-449.3841 792.3561,-652.9988 804.9061,-728.2173"/>
<polygon fill="#444444" fill-opacity="0.333333" stroke="#444444" stroke-opacity="0.333333" points="801.4989,-729.0637 806.5969,-738.3513 808.4034,-727.9116 801.4989,-729.0637"/>
</g>
<!-- systemd&#45;&gt;dbus -->
<g id="edge21" class="edge">
<title>systemd&#45;&gt;dbus</title>
<path fill="none" stroke="#444444" stroke-opacity="0.333333" d="M771.4719,-351.1419C839.2754,-304.7949 1019.2339,-181.7842 1095.2898,-129.7961"/>
<polygon fill="#444444" fill-opacity="0.333333" stroke="#444444" stroke-opacity="0.333333" points="1097.3274,-132.6429 1103.608,-124.1103 1093.3772,-126.864 1097.3274,-132.6429"/>
</g>
<!-- systemd&#45;&gt;kmod&#45;libs -->
<g id="edge22" class="edge">
<title>systemd&#45;&gt;kmod&#45;libs</title>
<path fill="none" stroke="#444444" stroke-opacity="0.333333" d="M724.0861,-351.0149C684.7379,-316.7605 599.6871,-242.7201 555.2053,-203.9968"/>
<polygon fill="#444444" fill-opacity="0.333333" stroke="#444444" stroke-opacity="0.333333" points="557.491,-201.3461 547.6505,-197.42 552.8948,-206.6258 557.491,-201.3461"/>
</g>
<!-- systemd&#45;&gt;libseccomp -->
<g id="edge23" class="edge">
<title>systemd&#45;&gt;libseccomp</title>
<path fill="none" stroke="#444444" stroke-opacity="0.333333" d="M759.2279,-350.9188C789.9746,-311.32 862.7435,-217.6009 898.3765,-171.709"/>
<polygon fill="#444444" fill-opacity="0.333333" stroke="#444444" stroke-opacity="0.333333" points="901.2109,-173.7655 904.5793,-163.7204 895.6819,-169.4725 901.2109,-173.7655"/>
</g>
<!-- systemd&#45;&gt;qrencode&#45;libs -->
<g id="edge24" class="edge">
<title>systemd&#45;&gt;qrencode&#45;libs</title>
<path fill="none" stroke="#444444" stroke-opacity="0.333333" d="M747.8018,-350.9072C756.0216,-296.9612 780.1748,-138.4443 790.0394,-73.7032"/>
<polygon fill="#444444" fill-opacity="0.333333" stroke="#444444" stroke-opacity="0.333333" points="793.5025,-74.21 791.5488,-63.7968 786.5823,-73.1555 793.5025,-74.21"/>
</g>
<!-- systemd&#45;&gt;systemd&#45;pam -->
<g id="edge25" class="edge">
<title>systemd&#45;&gt;systemd&#45;pam</title>
<path fill="none" stroke="#444444" stroke-opacity="0.333333" d="M735.3988,-351.008C699.957,-295.7417 577.4505,-130.306 524.6252,-65.7621"/>
<polygon fill="#444444" fill-opacity="0.333333" stroke="#444444" stroke-opacity="0.333333" points="527.0199,-63.1664 517.9456,-57.6977 521.629,-67.6316 527.0199,-63.1664"/>
</g>
<!-- systemd&#45;&gt;systemd&#45;rpm&#45;macros -->
<g id="edge26" class="edge">
<title>systemd&#45;&gt;systemd&#45;rpm&#45;macros</title>
<path fill="none" stroke="#444444" stroke-opacity="0.333333" d="M792.3254,-387.2779C891.2529,-425.0124 1119.6222,-512.121 1226.4568,-552.8716"/>
<polygon fill="#444444" fill-opacity="0.333333" stroke="#444444" stroke-opacity="0.333333" points="1225.5087,-556.2559 1236.0994,-556.5497 1228.0034,-549.7155 1225.5087,-556.2559"/>
</g>
<!-- libsemanage&#45;&gt;Fedora Container Base -->
<g id="edge41" class="edge">
<title>libsemanage&#45;&gt;Fedora Container Base</title>
<path fill="none" stroke="#444444" stroke-opacity="0.333333" d="M188.0827,-572.2598C277.0852,-546.533 439.415,-499.6104 530.5671,-473.2623"/>
<polygon fill="#444444" fill-opacity="0.333333" stroke="#444444" stroke-opacity="0.333333" points="531.6059,-476.6054 540.2407,-470.4661 529.662,-469.8807 531.6059,-476.6054"/>
</g>
<!-- libsemanage&#45;&gt;libsemanage -->
<g id="edge42" class="edge">
<title>libsemanage&#45;&gt;libsemanage</title>
<path fill="none" stroke="#444444" stroke-opacity="0.333333" d="M201.0025,-596.4274C211.7309,-595.4477 218.93,-593.4286 218.93,-590.37 218.93,-588.4106 215.9755,-586.8778 211.0313,-585.7715"/>
<polygon fill="#444444" fill-opacity="0.333333" stroke="#444444" stroke-opacity="0.333333" points="211.4023,-582.2887 201.0025,-584.3126 210.3945,-589.2158 211.4023,-582.2887"/>
</g>
<!-- util&#45;linux&#45;&gt;Fedora Container Base -->
<g id="edge27" class="edge">
<title>util&#45;linux&#45;&gt;Fedora Container Base</title>
<path fill="none" stroke="#444444" stroke-opacity="0.333333" d="M473.2606,-701.8837C496.2592,-655.8985 556.5736,-535.3013 583.6912,-481.0805"/>
<polygon fill="#444444" fill-opacity="0.333333" stroke="#444444" stroke-opacity="0.333333" points="586.8586,-482.5718 588.2014,-472.0624 580.598,-479.4406 586.8586,-482.5718"/>
</g>
<!-- util&#45;linux&#45;&gt;util&#45;linux -->
<g id="edge28" class="edge">
<title>util&#45;linux&#45;&gt;util&#45;linux</title>
<path fill="none" stroke="#444444" stroke-opacity="0.333333" d="M528.7897,-726.4253C539.3515,-725.5313 546.61,-723.4495 546.61,-720.18 546.61,-718.0855 543.6311,-716.4784 538.7132,-715.3587"/>
<polygon fill="#444444" fill-opacity="0.333333" stroke="#444444" stroke-opacity="0.333333" points="539.1855,-711.8907 528.7897,-713.9347 538.1911,-718.8198 539.1855,-711.8907"/>
</g>
<!-- util&#45;linux&#45;&gt;libfdisk -->
<g id="edge29" class="edge">
<title>util&#45;linux&#45;&gt;libfdisk</title>
<path fill="none" stroke="#444444" stroke-opacity="0.333333" d="M451.9814,-738.2473C427.7682,-774.3164 373.3473,-855.3843 345.1419,-897.4004"/>
<polygon fill="#444444" fill-opacity="0.333333" stroke="#444444" stroke-opacity="0.333333" points="342.2091,-895.4897 339.5414,-905.7432 348.021,-899.3913 342.2091,-895.4897"/>
</g>
<!-- util&#45;linux&#45;&gt;libutempter -->
<g id="edge30" class="edge">
<title>util&#45;linux&#45;&gt;libutempter</title>
<path fill="none" stroke="#444444" stroke-opacity="0.333333" d="M399.5435,-719.2269C377.9607,-718.9084 353.6673,-718.5498 331.1477,-718.2174"/>
<polygon fill="#444444" fill-opacity="0.333333" stroke="#444444" stroke-opacity="0.333333" points="330.9923,-714.7148 320.9417,-718.0667 330.8889,-721.714 330.9923,-714.7148"/>
</g>
<!-- iptables&#45;libs&#45;&gt;Fedora Container Base -->
<g id="edge35" class="edge">
<title>iptables&#45;libs&#45;&gt;Fedora Container Base</title>
<path fill="none" stroke="#444444" stroke-opacity="0.333333" d="M947.6821,-399.4863C877.9129,-410.3374 772.8173,-426.6828 695.9138,-438.6434"/>
<polygon fill="#444444" fill-opacity="0.333333" stroke="#444444" stroke-opacity="0.333333" points="695.0749,-435.2317 685.7316,-440.2271 696.1507,-442.1486 695.0749,-435.2317"/>
</g>
<!-- iptables&#45;libs&#45;&gt;iptables&#45;libs -->
<g id="edge36" class="edge">
<title>iptables&#45;libs&#45;&gt;iptables&#45;libs</title>
<path fill="none" stroke="#444444" stroke-opacity="0.333333" d="M1095.1926,-394.0808C1105.892,-393.114 1113.1,-391.0838 1113.1,-387.99 1113.1,-386.0081 1110.1418,-384.4626 1105.2026,-383.3536"/>
<polygon fill="#444444" fill-opacity="0.333333" stroke="#444444" stroke-opacity="0.333333" points="1105.592,-379.8734 1095.1926,-381.8992 1104.5854,-386.8007 1105.592,-379.8734"/>
</g>
<!-- iptables&#45;libs&#45;&gt;libpcap -->
<g id="edge37" class="edge">
<title>iptables&#45;libs&#45;&gt;libpcap</title>
<path fill="none" stroke="#444444" stroke-opacity="0.333333" d="M1030.3573,-406.1764C1042.9486,-432.3251 1066.2655,-480.7479 1080.9661,-511.2768"/>
<polygon fill="#444444" fill-opacity="0.333333" stroke="#444444" stroke-opacity="0.333333" points="1077.9197,-513.0177 1085.4117,-520.5091 1084.2266,-509.9808 1077.9197,-513.0177"/>
</g>
<!-- acl&#45;&gt;Fedora Container Base -->
<g id="edge53" class="edge">
<title>acl&#45;&gt;Fedora Container Base</title>
<path fill="none" stroke="#444444" stroke-opacity="0.333333" d="M653.895,-36.1789C644.6833,-104.112 612.2384,-343.3817 601.0593,-425.8241"/>
<polygon fill="#444444" fill-opacity="0.333333" stroke="#444444" stroke-opacity="0.333333" points="597.5911,-425.3539 599.7156,-435.7335 604.5276,-426.2945 597.5911,-425.3539"/>
</g>
<!-- cryptsetup&#45;libs&#45;&gt;Fedora Container Base -->
<g id="edge54" class="edge">
<title>cryptsetup&#45;libs&#45;&gt;Fedora Container Base</title>
<path fill="none" stroke="#444444" stroke-opacity="0.333333" d="M796.9707,-738.4543C761.0526,-687.2984 658.3058,-540.9623 615.8958,-480.5604"/>
<polygon fill="#444444" fill-opacity="0.333333" stroke="#444444" stroke-opacity="0.333333" points="618.7024,-478.4666 610.0916,-472.2937 612.9735,-482.4891 618.7024,-478.4666"/>
</g>
<!-- cryptsetup&#45;libs&#45;&gt;device&#45;mapper&#45;libs -->
<g id="edge55" class="edge">
<title>cryptsetup&#45;libs&#45;&gt;device&#45;mapper&#45;libs</title>
<path fill="none" stroke="#444444" stroke-opacity="0.333333" d="M793.2134,-774.7271C763.1657,-808.1639 699.2315,-879.3094 664.8022,-917.6221"/>
<polygon fill="#444444" fill-opacity="0.333333" stroke="#444444" stroke-opacity="0.333333" points="662.0068,-915.4964 657.926,-925.2738 667.2134,-920.1753 662.0068,-915.4964"/>
</g>
<!-- cryptsetup&#45;libs&#45;&gt;libargon2 -->
<g id="edge56" class="edge">
<title>cryptsetup&#45;libs&#45;&gt;libargon2</title>
<path fill="none" stroke="#444444" stroke-opacity="0.333333" d="M815.1925,-774.5327C824.6052,-805.0436 843.719,-866.9995 854.9036,-903.2535"/>
<polygon fill="#444444" fill-opacity="0.333333" stroke="#444444" stroke-opacity="0.333333" points="851.6745,-904.6596 857.967,-913.1834 858.3634,-902.596 851.6745,-904.6596"/>
</g>
<!-- dbus&#45;&gt;dbus&#45;broker -->
<g id="edge57" class="edge">
<title>dbus&#45;&gt;dbus&#45;broker</title>
<path fill="none" stroke="#444444" stroke-opacity="0.333333" d="M1101.646,-124.2063C1046.8961,-159.2263 926.6564,-236.136 865.6626,-275.1498"/>
<polygon fill="#444444" fill-opacity="0.333333" stroke="#444444" stroke-opacity="0.333333" points="863.6464,-272.2846 857.1083,-280.6215 867.4183,-278.1815 863.6464,-272.2846"/>
</g>
<!-- kmod&#45;libs&#45;&gt;Fedora Container Base -->
<g id="edge58" class="edge">
<title>kmod&#45;libs&#45;&gt;Fedora Container Base</title>
<path fill="none" stroke="#444444" stroke-opacity="0.333333" d="M531.4124,-197.2858C543.4046,-244.0512 575.5835,-369.5373 590.037,-425.901"/>
<polygon fill="#444444" fill-opacity="0.333333" stroke="#444444" stroke-opacity="0.333333" points="586.7262,-427.0807 592.6006,-435.8978 593.5068,-425.3418 586.7262,-427.0807"/>
</g>
<!-- libseccomp&#45;&gt;Fedora Container Base -->
<g id="edge59" class="edge">
<title>libseccomp&#45;&gt;Fedora Container Base</title>
<path fill="none" stroke="#444444" stroke-opacity="0.333333" d="M899.6009,-163.8454C844.6331,-216.5924 686.2761,-368.5512 623.4124,-428.875"/>
<polygon fill="#444444" fill-opacity="0.333333" stroke="#444444" stroke-opacity="0.333333" points="620.678,-426.6482 615.886,-436.0974 625.5247,-431.6989 620.678,-426.6482"/>
</g>
<!-- qrencode&#45;libs&#45;&gt;Fedora Container Base -->
<g id="edge60" class="edge">
<title>qrencode&#45;libs&#45;&gt;Fedora Container Base</title>
<path fill="none" stroke="#444444" stroke-opacity="0.333333" d="M785.5879,-63.7466C754.3708,-128.4262 648.0719,-348.67 610.5154,-426.4844"/>
<polygon fill="#444444" fill-opacity="0.333333" stroke="#444444" stroke-opacity="0.333333" points="607.2796,-425.1365 606.085,-435.6638 613.5838,-428.1792 607.2796,-425.1365"/>
</g>
<!-- systemd&#45;pam&#45;&gt;Fedora Container Base -->
<g id="edge61" class="edge">
<title>systemd&#45;pam&#45;&gt;Fedora Container Base</title>
<path fill="none" stroke="#444444" stroke-opacity="0.333333" d="M504.4608,-57.701C519.7474,-122.9951 572.1921,-347.0025 590.705,-426.077"/>
<polygon fill="#444444" fill-opacity="0.333333" stroke="#444444" stroke-opacity="0.333333" points="587.2995,-426.885 592.9869,-435.8239 594.1152,-425.2893 587.2995,-426.885"/>
</g>
<!-- systemd&#45;pam&#45;&gt;systemd -->
<g id="edge62" class="edge">
<title>systemd&#45;pam&#45;&gt;systemd</title>
<path fill="none" stroke="#444444" stroke-opacity="0.333333" d="M509.8412,-57.852C545.283,-113.1183 667.7895,-278.554 720.6148,-343.0979"/>
<polygon fill="#444444" fill-opacity="0.333333" stroke="#444444" stroke-opacity="0.333333" points="718.2201,-345.6936 727.2944,-351.1623 723.611,-341.2284 718.2201,-345.6936"/>
</g>
<!-- libfdisk&#45;&gt;Fedora Container Base -->
<g id="edge63" class="edge">
<title>libfdisk&#45;&gt;Fedora Container Base</title>
<path fill="none" stroke="#444444" stroke-opacity="0.333333" d="M337.8512,-905.6419C379.2486,-833.56 532.334,-567.0054 581.7508,-480.9601"/>
<polygon fill="#444444" fill-opacity="0.333333" stroke="#444444" stroke-opacity="0.333333" points="584.9147,-482.4788 586.8599,-472.0641 578.8445,-478.9926 584.9147,-482.4788"/>
</g>
<!-- libutempter&#45;&gt;Fedora Container Base -->
<g id="edge64" class="edge">
<title>libutempter&#45;&gt;Fedora Container Base</title>
<path fill="none" stroke="#444444" stroke-opacity="0.333333" d="M276.4189,-698.9781C336.9181,-652.7792 497.2045,-530.3799 565.5951,-478.155"/>
<polygon fill="#444444" fill-opacity="0.333333" stroke="#444444" stroke-opacity="0.333333" points="568.0274,-480.7014 573.851,-471.8505 563.779,-475.138 568.0274,-480.7014"/>
</g>
<!-- libutempter&#45;&gt;shadow&#45;utils -->
<g id="edge65" class="edge">
<title>libutempter&#45;&gt;shadow&#45;utils</title>
<path fill="none" stroke="#444444" stroke-opacity="0.333333" d="M262.0886,-699.0159C284.6126,-655.5412 341.9899,-544.7945 368.6802,-493.2781"/>
<polygon fill="#444444" fill-opacity="0.333333" stroke="#444444" stroke-opacity="0.333333" points="371.7989,-494.8669 373.2915,-484.3777 365.5835,-491.6467 371.7989,-494.8669"/>
</g>
<!-- libpcap&#45;&gt;Fedora Container Base -->
<g id="edge38" class="edge">
<title>libpcap&#45;&gt;Fedora Container Base</title>
<path fill="none" stroke="#444444" stroke-opacity="0.333333" d="M1034.255,-528.5348C948.9356,-513.9812 791.6735,-487.1559 690.896,-469.9656"/>
<polygon fill="#444444" fill-opacity="0.333333" stroke="#444444" stroke-opacity="0.333333" points="691.4673,-466.5125 681.0211,-468.2811 690.2902,-473.4129 691.4673,-466.5125"/>
</g>
<!-- libicu&#45;&gt;Fedora Container Base -->
<g id="edge39" class="edge">
<title>libicu&#45;&gt;Fedora Container Base</title>
<path fill="none" stroke="#444444" stroke-opacity="0.333333" d="M227.3383,-85.9469C290.236,-148.5286 498.5785,-355.8243 571.6463,-428.5249"/>
<polygon fill="#444444" fill-opacity="0.333333" stroke="#444444" stroke-opacity="0.333333" points="569.5235,-431.3501 579.0811,-435.9223 574.4608,-426.3879 569.5235,-431.3501"/>
</g>
<!-- libicu&#45;&gt;libicu -->
<g id="edge40" class="edge">
<title>libicu&#45;&gt;libicu</title>
<path fill="none" stroke="#444444" stroke-opacity="0.333333" d="M264.2133,-74.267C274.7141,-73.498 282.14,-71.3556 282.14,-67.84 282.14,-65.5878 279.0924,-63.8992 274.1411,-62.7742"/>
<polygon fill="#444444" fill-opacity="0.333333" stroke="#444444" stroke-opacity="0.333333" points="274.5961,-59.3039 264.2133,-61.413 273.6451,-66.239 274.5961,-59.3039"/>
</g>
<!-- libpq&#45;&gt;Fedora Container Base -->
<g id="edge43" class="edge">
<title>libpq&#45;&gt;Fedora Container Base</title>
<path fill="none" stroke="#444444" stroke-opacity="0.333333" d="M126.982,-257.9412C221.516,-297.3521 445.803,-390.8565 546.6202,-432.8868"/>
<polygon fill="#444444" fill-opacity="0.333333" stroke="#444444" stroke-opacity="0.333333" points="545.4059,-436.1725 555.9827,-436.79 548.0995,-429.7115 545.4059,-436.1725"/>
</g>
<!-- postgresql&#45;&gt;Fedora Container Base -->
<g id="edge44" class="edge">
<title>postgresql&#45;&gt;Fedora Container Base</title>
<path fill="none" stroke="#444444" stroke-opacity="0.333333" d="M128.0562,-393.5075C217.5497,-405.0441 381.181,-426.1378 489.5861,-440.1123"/>
<polygon fill="#444444" fill-opacity="0.333333" stroke="#444444" stroke-opacity="0.333333" points="489.208,-443.5925 499.5734,-441.3998 490.103,-436.6499 489.208,-443.5925"/>
</g>
<!-- postgresql&#45;&gt;libpq -->
<g id="edge45" class="edge">
<title>postgresql&#45;&gt;libpq</title>
<path fill="none" stroke="#444444" stroke-opacity="0.333333" d="M66.4471,-367.1315C69.7981,-342.3199 75.8491,-297.518 79.8038,-268.2367"/>
<polygon fill="#444444" fill-opacity="0.333333" stroke="#444444" stroke-opacity="0.333333" points="83.2871,-268.5954 81.1571,-258.2169 76.35,-267.6584 83.2871,-268.5954"/>
</g>
<!-- postgresql&#45;server&#45;&gt;Fedora Container Base -->
<g id="edge46" class="edge">
<title>postgresql&#45;server&#45;&gt;Fedora Container Base</title>
<path fill="none" stroke="#444444" stroke-opacity="0.333333" d="M331.8682,-302.0489C386.3707,-333.2548 498.1615,-397.2617 557.7673,-431.3895"/>
<polygon fill="#444444" fill-opacity="0.333333" stroke="#444444" stroke-opacity="0.333333" points="556.1022,-434.4692 566.5195,-436.4007 559.5804,-428.3945 556.1022,-434.4692"/>
</g>
<!-- postgresql&#45;server&#45;&gt;shadow&#45;utils -->
<g id="edge47" class="edge">
<title>postgresql&#45;server&#45;&gt;shadow&#45;utils</title>
<path fill="none" stroke="#444444" stroke-opacity="0.333333" d="M308.5771,-302.1502C323.0671,-334.1988 353.2817,-401.027 370.3313,-438.7369"/>
<polygon fill="#444444" fill-opacity="0.333333" stroke="#444444" stroke-opacity="0.333333" points="367.2571,-440.4331 374.5661,-448.1032 373.6354,-437.5493 367.2571,-440.4331"/>
</g>
<!-- postgresql&#45;server&#45;&gt;systemd -->
<g id="edge48" class="edge">
<title>postgresql&#45;server&#45;&gt;systemd</title>
<path fill="none" stroke="#444444" stroke-opacity="0.333333" d="M394.4028,-302.0388C477.6946,-318.001 597.512,-340.9631 673.2853,-355.4845"/>
<polygon fill="#444444" fill-opacity="0.333333" stroke="#444444" stroke-opacity="0.333333" points="672.7378,-358.9432 683.2178,-357.388 674.0553,-352.0683 672.7378,-358.9432"/>
</g>
<!-- postgresql&#45;server&#45;&gt;libicu -->
<g id="edge49" class="edge">
<title>postgresql&#45;server&#45;&gt;libicu</title>
<path fill="none" stroke="#444444" stroke-opacity="0.333333" d="M292.7579,-265.9604C276.7909,-228.129 239.7437,-140.3509 220.78,-95.4194"/>
<polygon fill="#444444" fill-opacity="0.333333" stroke="#444444" stroke-opacity="0.333333" points="223.9177,-93.8523 216.8046,-86.0002 217.4685,-96.5742 223.9177,-93.8523"/>
</g>
<!-- postgresql&#45;server&#45;&gt;libpq -->
<g id="edge50" class="edge">
<title>postgresql&#45;server&#45;&gt;libpq</title>
<path fill="none" stroke="#444444" stroke-opacity="0.333333" d="M211.9089,-265.9988C190.2793,-261.593 167.5543,-256.964 147.3419,-252.8468"/>
<polygon fill="#444444" fill-opacity="0.333333" stroke="#444444" stroke-opacity="0.333333" points="147.8273,-249.3739 137.3299,-250.8074 146.43,-256.233 147.8273,-249.3739"/>
</g>
<!-- postgresql&#45;server&#45;&gt;postgresql -->
<g id="edge51" class="edge">
<title>postgresql&#45;server&#45;&gt;postgresql</title>
<path fill="none" stroke="#444444" stroke-opacity="0.333333" d="M258.12,-302.1179C218.243,-319.1953 158.3676,-344.837 115.669,-363.1227"/>
<polygon fill="#444444" fill-opacity="0.333333" stroke="#444444" stroke-opacity="0.333333" points="114.1066,-359.9843 106.292,-367.1384 116.8624,-366.419 114.1066,-359.9843"/>
</g>
<!-- postgresql&#45;server&#45;&gt;postgresql&#45;server -->
<g id="edge52" class="edge">
<title>postgresql&#45;server&#45;&gt;postgresql&#45;server</title>
<path fill="none" stroke="#444444" stroke-opacity="0.333333" d="M444.4034,-289.1088C455.5241,-287.9838 462.38,-286.2876 462.38,-284.02 462.38,-282.5673 459.5663,-281.3491 454.6202,-280.3654"/>
<polygon fill="#444444" fill-opacity="0.333333" stroke="#444444" stroke-opacity="0.333333" points="454.7929,-276.8554 444.4034,-278.9312 453.8197,-283.7874 454.7929,-276.8554"/>
</g>
<!-- Fedora Container Base -->
<g id="node1" class="node">
<title>Fedora Container Base</title>
<ellipse fill="none" stroke="#000000" cx="597.24" cy="-453.99" rx="136.5" ry="18"/>
<text text-anchor="middle" x="597.24" y="-450.29" font-family="Helvetica,sans-Serif" font-weight="bold" font-size="14.00" fill="#000000">Fedora Container Base (197.5 MB)</text>
</g>
<!-- device&#45;mapper&#45;libs -->
<g id="node2" class="node">
<title>device&#45;mapper&#45;libs</title>
<text text-anchor="middle" x="641.7" y="-939.63" font-family="Helvetica,sans-Serif" font-weight="bold" font-size="14.00" fill="#000000">device&#45;mapper&#45;libs (417.5 kB)</text>
</g>
<!-- device&#45;mapper -->
<g id="node3" class="node">
<title>device&#45;mapper</title>
<text text-anchor="middle" x="638.33" y="-730.57" font-family="Helvetica,sans-Serif" font-weight="bold" font-size="14.00" fill="#000000">device&#45;mapper (350.3 kB)</text>
</g>
<!-- libargon2 -->
<g id="node4" class="node">
<title>libargon2</title>
<text text-anchor="middle" x="863.59" y="-927.71" font-family="Helvetica,sans-Serif" font-weight="bold" font-size="14.00" fill="#000000">libargon2 (54.9 kB)</text>
</g>
<!-- dbus&#45;broker -->
<g id="node5" class="node">
<title>dbus&#45;broker</title>
<text text-anchor="middle" x="828.61" y="-295.15" font-family="Helvetica,sans-Serif" font-weight="bold" font-size="14.00" fill="#000000">dbus&#45;broker (423.2 kB)</text>
</g>
<!-- dbus&#45;common -->
<g id="node6" class="node">
<title>dbus&#45;common</title>
<text text-anchor="middle" x="890.5" y="-524.2" font-family="Helvetica,sans-Serif" font-weight="bold" font-size="14.00" fill="#000000">dbus&#45;common (11.2 kB)</text>
</g>
<!-- shadow&#45;utils -->
<g id="node7" class="node">
<title>shadow&#45;utils</title>
<text text-anchor="middle" x="382.73" y="-462.46" font-family="Helvetica,sans-Serif" font-weight="bold" font-size="14.00" fill="#000000">shadow&#45;utils (4.0 MB)</text>
</g>
<!-- systemd -->
<g id="node8" class="node">
<title>systemd</title>
<text text-anchor="middle" x="745.01" y="-365.53" font-family="Helvetica,sans-Serif" font-weight="bold" font-size="14.00" fill="#000000">systemd (12.3 MB)</text>
</g>
<!-- libsemanage -->
<g id="node9" class="node">
<title>libsemanage</title>
<text text-anchor="middle" x="125.43" y="-586.67" font-family="Helvetica,sans-Serif" font-weight="bold" font-size="14.00" fill="#000000">libsemanage (313.1 kB)</text>
</g>
<!-- util&#45;linux -->
<g id="node10" class="node">
<title>util&#45;linux</title>
<text text-anchor="middle" x="464.11" y="-716.48" font-family="Helvetica,sans-Serif" font-weight="bold" font-size="14.00" fill="#000000">util&#45;linux (12.7 MB)</text>
</g>
<!-- iptables&#45;libs -->
<g id="node11" class="node">
<title>iptables&#45;libs</title>
<text text-anchor="middle" x="1021.6" y="-384.29" font-family="Helvetica,sans-Serif" font-weight="bold" font-size="14.00" fill="#000000">iptables&#45;libs (155.9 kB)</text>
</g>
<!-- acl -->
<g id="node12" class="node">
<title>acl</title>
<text text-anchor="middle" x="656.36" y="-14.3" font-family="Helvetica,sans-Serif" font-weight="bold" font-size="14.00" fill="#000000">acl (212.0 kB)</text>
</g>
<!-- cryptsetup&#45;libs -->
<g id="node13" class="node">
<title>cryptsetup&#45;libs</title>
<text text-anchor="middle" x="809.62" y="-752.77" font-family="Helvetica,sans-Serif" font-weight="bold" font-size="14.00" fill="#000000">cryptsetup&#45;libs (1.8 MB)</text>
</g>
<!-- dbus -->
<g id="node14" class="node">
<title>dbus</title>
<text text-anchor="middle" x="1130" y="-102.37" font-family="Helvetica,sans-Serif" font-weight="bold" font-size="14.00" fill="#000000">dbus (0.0 B)</text>
</g>
<!-- kmod&#45;libs -->
<g id="node15" class="node">
<title>kmod&#45;libs</title>
<text text-anchor="middle" x="526.79" y="-175.56" font-family="Helvetica,sans-Serif" font-weight="bold" font-size="14.00" fill="#000000">kmod&#45;libs (197.4 kB)</text>
</g>
<!-- libseccomp -->
<g id="node16" class="node">
<title>libseccomp</title>
<text text-anchor="middle" x="918.75" y="-141.77" font-family="Helvetica,sans-Serif" font-weight="bold" font-size="14.00" fill="#000000">libseccomp (347.0 kB)</text>
</g>
<!-- qrencode&#45;libs -->
<g id="node17" class="node">
<title>qrencode&#45;libs</title>
<text text-anchor="middle" x="794.31" y="-41.975" font-family="Helvetica,sans-Serif" font-weight="bold" font-size="14.00" fill="#000000">qrencode&#45;libs (159.3 kB)</text>
</g>
<!-- systemd&#45;pam -->
<g id="node18" class="node">
<title>systemd&#45;pam</title>
<text text-anchor="middle" x="500.23" y="-35.93" font-family="Helvetica,sans-Serif" font-weight="bold" font-size="14.00" fill="#000000">systemd&#45;pam (335.6 kB)</text>
</g>
<!-- systemd&#45;rpm&#45;macros -->
<g id="node19" class="node">
<title>systemd&#45;rpm&#45;macros</title>
<text text-anchor="middle" x="1283.5" y="-570.93" font-family="Helvetica,sans-Serif" font-weight="bold" font-size="14.00" fill="#000000">systemd&#45;rpm&#45;macros (4.9 kB)</text>
</g>
<!-- libfdisk -->
<g id="node20" class="node">
<title>libfdisk</title>
<text text-anchor="middle" x="327.44" y="-920.07" font-family="Helvetica,sans-Serif" font-weight="bold" font-size="14.00" fill="#000000">libfdisk (488.8 kB)</text>
</g>
<!-- libutempter -->
<g id="node21" class="node">
<title>libutempter</title>
<text text-anchor="middle" x="252.74" y="-713.36" font-family="Helvetica,sans-Serif" font-weight="bold" font-size="14.00" fill="#000000">libutempter (58.2 kB)</text>
</g>
<!-- libpcap -->
<g id="node22" class="node">
<title>libpcap</title>
<text text-anchor="middle" x="1094.2" y="-535.06" font-family="Helvetica,sans-Serif" font-weight="bold" font-size="14.00" fill="#000000">libpcap (378.8 kB)</text>
</g>
<!-- libicu -->
<g id="node23" class="node">
<title>libicu</title>
<text text-anchor="middle" x="209.14" y="-64.14" font-family="Helvetica,sans-Serif" font-weight="bold" font-size="14.00" fill="#000000">libicu (31.5 MB)</text>
</g>
<!-- libpq -->
<g id="node24" class="node">
<title>libpq</title>
<text text-anchor="middle" x="83.635" y="-236.17" font-family="Helvetica,sans-Serif" font-weight="bold" font-size="14.00" fill="#000000">libpq (718.6 kB)</text>
</g>
<!-- postgresql -->
<g id="node25" class="node">
<title>postgresql</title>
<text text-anchor="middle" x="64" y="-381.55" font-family="Helvetica,sans-Serif" font-weight="bold" font-size="14.00" fill="#000000">postgresql (5.7 MB)</text>
</g>
<!-- postgresql&#45;server -->
<g id="node26" class="node">
<title>postgresql&#45;server</title>
<text text-anchor="middle" x="300.38" y="-278.42" font-family="Helvetica,sans-Serif" font-weight="bold" font-size="22.00" fill="#cc0066">postgresql&#45;server (21.3 MB)</text>
</g>
</g>

<script type="text/javascript"><![CDATA[

document.addEventListener('click', function(e) {
      e = e || window.event;
      var target = e.target || e.srcElement;
      text = target.parentElement.querySelector("title").textContent;

      console.log("Clicked on: " + text);
      // reset all strokes
      var nodes = document.getElementsByClassName("edge");

      for (index = 0, len = nodes.length; index < len; ++index) {
          //var title = nodes[index].querySelector("title").textContent.split("->");
          id = nodes[index].id;
          document.getElementById(id).querySelector("path").setAttribute("stroke-width", "1");
          document.getElementById(id).querySelector("path").setAttribute("stroke-opacity", "0.5");
          document.getElementById(id).querySelector("path").setAttribute("stroke", "#444444");
          document.getElementById(id).querySelector("polygon").setAttribute("stroke-width", "1");
          document.getElementById(id).querySelector("polygon").setAttribute("stroke-opacity", "0.5");
          document.getElementById(id).querySelector("polygon").setAttribute("stroke", "#444444");
      }
      // reset text highlight
      pkgs = document.getElementsByClassName("node");
      for (index2 = 0, len2 = pkgs.length; index2 < len2; ++index2) {
          target_id = pkgs[index2].id;
          document.getElementById(target_id).querySelector("text").setAttribute("font-weight", "normal");
      }

      // highlight deps
      var nodes = document.getElementsByClassName("edge");
      for (index = 0, len = nodes.length; index < len; ++index) {
        var title = nodes[index].querySelector("title").textContent.split("->");

        if (title[0] == text) {
          id = nodes[index].id;
          //console.log("ID:   " + id);
          document.getElementById(id).querySelector("path").setAttribute("stroke-width", "3");
          document.getElementById(id).querySelector("path").setAttribute("stroke-opacity", "1");
          document.getElementById(id).querySelector("path").setAttribute("stroke", "#aa3333");
          document.getElementById(id).querySelector("polygon").setAttribute("stroke-width", "5");
          document.getElementById(id).querySelector("polygon").setAttribute("stroke-opacity", "1");
          document.getElementById(id).querySelector("polygon").setAttribute("stroke", "#aa3333");

        }
        if (title[1] == text) {
          id = nodes[index].id;
          document.getElementById(id).querySelector("path").setAttribute("stroke-width", "3");
          document.getElementById(id).querySelector("path").setAttribute("stroke-opacity", "1");
          document.getElementById(id).querySelector("path").setAttribute("stroke", "#333377");
          document.getElementById(id).querySelector("polygon").setAttribute("stroke-width", "5");
          document.getElementById(id).querySelector("polygon").setAttribute("stroke-opacity", "1");
          document.getElementById(id).querySelector("polygon").setAttribute("stroke", "#333377");
        }

        if (title[0] == text || title[1] == text) {
          pkgs = document.getElementsByClassName("node");
          for (index2 = 0, len2 = pkgs.length; index2 < len2; ++index2) {
            var pkg_name = pkgs[index2].querySelector("title").textContent;
            if (pkg_name == title[0] || pkg_name == title[1]) {
              target_id = pkgs[index2].id;
              document.getElementById(target_id).querySelector("text").setAttribute("font-weight", "bold");
            }
          }
        }
      }


  }, false);

]]></script>


  <text
     id="text7664"
     y="19.384439"
     x="9.9055691"
     style="font-style:normal;font-weight:normal;font-size:12.49485588px;line-height:125%;font-family:sans-serif;letter-spacing:0px;word-spacing:0px;fill:#000000;fill-opacity:1;stroke:none;stroke-width:0.3123714px;stroke-linecap:butt;stroke-linejoin:miter;stroke-opacity:1"
     xml:space="preserve"><tspan
       style="font-size:12.00258541px;stroke-width:0.3123714px"
       y="19.384439"
       x="9.9055691"
       id="tspan7666"><a href="report-use-case-definition--postgresql-noweak--31.html"><tspan
   style="font-weight:bold;font-size:12.00258541px;fill:#0066ff;stroke-width:0.3123714px"
   id="tspan7668">PostgreSQL (no weak deps)</tspan></a> on <a href="report-base-definition--fedora-container-base--31.html"><tspan
   style="font-weight:bold;font-size:12.00258541px;fill:#0066ff;stroke-width:0.3123714px"
   id="tspan7676">Fedora Container Base</tspan></a> (Fedora 31)</tspan></text>
  <text
     xml:space="preserve"
     style="font-style:normal;font-weight:normal;font-size:11.85299969px;line-height:125%;font-family:sans-serif;letter-spacing:0px;word-spacing:0px;fill:#000000;fill-opacity:1;stroke:none;stroke-width:0.296325px;stroke-linecap:butt;stroke-linejoin:miter;stroke-opacity:1"
     x="9.9365959"
     y="58.520042"
     id="text8235"><tspan
       id="tspan8237"
       x="9.9365959"
       y="58.520042"
       style="stroke-width:0.296325px;font-size:10.80232704px;fill:#666666">Generated by <a href="./"><tspan
   style="fill:#3771c8"
   id="tspan8255">Feedback Pipeline</tspan></a></tspan></text>
  <text
     xml:space="preserve"
     style="font-style:normal;font-weight:normal;font-size:12.49485588px;line-height:125%;font-family:sans-serif;letter-spacing:0px;word-spacing:0px;fill:#000000;fill-opacity:1;stroke:none;stroke-width:0.3123714px;stroke-linecap:butt;stroke-linejoin:miter;stroke-opacity:1"
     x="9.9055691"
     y="38.974205"
     id="text8245"><a href="graph--postgresql-noweak--fedora-container-base--31.svg"><tspan
       id="tspan8247"
       x="9.9055691"
       y="38.974205"
       style="font-weight:normal;font-size:12.00258541px;fill:#0066ff;stroke-width:0.3123714px">Expand base image</tspan></a></text>

</svg>
