<?xml version="1.0" encoding="UTF-8" standalone="no"?>
<!DOCTYPE svg PUBLIC "-//W3C//DTD SVG 1.1//EN"
 "http://www.w3.org/Graphics/SVG/1.1/DTD/svg11.dtd">
<!-- Generated by graphviz version 2.40.1 (0)
 -->
<!-- Title: packages Pages: 1 -->
<svg width="1545pt" height="1158pt"
 viewBox="0.00 0.00 1853.81 1389.09" xmlns="http://www.w3.org/2000/svg" xmlns:xlink="http://www.w3.org/1999/xlink">
<g id="graph0" class="graph" transform="scale(.8333 .8333) rotate(0) translate(119.1076 1259.1042)">
<title>packages</title>
<polygon fill="#dae2ff" stroke="transparent" points="-119.1076,129.9842 -119.1076,-1259.1042 1734.6981,-1259.1042 1734.6981,129.9842 -119.1076,129.9842"/>
<polygon fill="#b3cde3" stroke="#b3cde3" points="809.7397,-539.9373 860.3149,-522.1409 936.6645,-490.022 939.1041,-489.1729 941.061,-488.6299 947.2365,-487.3437 951.0884,-486.8116 963.1731,-485.9922 963.3304,-485.9927 965.7212,-486.3401 970.467,-486.3478 976.5754,-485.916 981.0814,-486.2412 985.9136,-485.8929 989.3311,-486.1342 996.7971,-486.1227 996.8106,-486.1217 997.0564,-486.1212 999.1546,-486.2643 999.4908,-486.2632 1011.7386,-485.3457 1020.7181,-483.3867 1022.0868,-482.9913 1030.7048,-479.8753 1043.6594,-473.3152 1043.8716,-473.1933 1048.0779,-470.4757 1056.9441,-464.1039 1061.6411,-460.0575 1073.7328,-448.7394 1076.1267,-445.977 1089.432,-432.8944 1092.6667,-429.9228 1094.342,-428.1063 1098.6486,-433.8845 1129.1654,-478.0592 1151.1879,-519.1837 1161.8998,-536.7529 1179.0488,-559.763 1151.9977,-602.6215 1138.1866,-622.7778 1096.2976,-620.309 1093.5493,-620.2333 1084.2852,-620.2687 1082.2325,-620.1456 1072.9275,-620.1732 1071.6683,-620.2563 1060.8625,-620.279 1060.4965,-620.3028 1058.8545,-620.3048 1048.9666,-620.0013 1047.8243,-619.9298 1043.6173,-619.9313 1039.7582,-619.8099 1034.4995,-620.1398 1032.5763,-620.1991 1031.3684,-620.1595 1020.5204,-620.1445 1012.9056,-620.6121 1000.7289,-622.1258 995.882,-623.0327 980.8746,-626.3147 979.4101,-626.7255 964.8491,-631.735 918.3668,-650.6332 915.5649,-650.0131 898.8002,-645.9183 888.5949,-642.9656 867.2177,-635.3246 833.1754,-621.648 828.0942,-609.2889 809.9286,-562.3513 809.9573,-552.7697 809.7397,-539.9373 809.7397,-539.9373"/>
<polygon fill="#fed9a6" stroke="#fed9a6" points="-103.4169,-465.75 -60.357,-465.75 32.22,-468.4786 44.026,-472.337 48.4855,-470.1077 52.3586,-507.1355 54.6267,-465.8991 59.4284,-465.8991 60.4283,-465.6134 63.8368,-465.6134 64.3761,-465.765 65.2382,-568.856 70.0378,-465.8398 73.1334,-465.8398 74.1403,-464.7147 74.1403,-464.7147 73.1334,-465.8398 74.2486,-467.062 79.4757,-470.0327 79.4757,-470.0327 74.2486,-467.062 73.1334,-465.8398 70.0378,-465.8398 65.2382,-568.856 64.3761,-465.765 63.8368,-465.6134 60.4283,-465.6134 59.4284,-465.8991 54.6267,-465.8991 52.3586,-507.1355 48.4855,-470.1077 44.026,-472.337 32.22,-468.4786 -60.357,-465.75 -103.4169,-465.75 -38.0607,-586.5313 -70.1883,-670.1651 -77.4997,-686.8474 -59.6892,-730.1189 63.1137,-696.0714 66.1317,-692.7955 67.2242,-692.3123 74.5949,-761.1126 76.3608,-788.8022 77.888,-761.1265 84.4182,-694.7984 89.0022,-696.0979 89.0022,-696.0979 84.4182,-694.7984 77.888,-761.1265 76.3608,-788.8022 74.5949,-761.1126 67.2242,-692.3123 66.1317,-692.7955 63.1137,-696.0714 -59.6892,-730.1189 -32.1606,-802.1033 53.1812,-830.2637 72.4239,-837.0491 76.5683,-837.0989 88.2538,-838.1422 93.2839,-836.1342 101.2774,-833.2975 101.6508,-786.7823 105.3222,-691.4271 104.3078,-691.1253 107.6933,-646.5727 110.6609,-687.9538 115.5103,-684.7028 138.3858,-689.3853 166.6165,-691.12 309.8546,-691.12 290.7724,-626.4324 468.4229,-575.572 469.46,-660.8747 473.3698,-658.8896 478.1723,-656.6385 492.1775,-651.1502 502.4894,-647.92 498.1337,-573.7883 503.26,-575.2369 503.26,-575.2369 498.1337,-573.7883 502.4894,-647.92 492.1775,-651.1502 478.1723,-656.6385 473.3698,-658.8896 469.46,-660.8747 468.4229,-575.572 290.7724,-626.4324 309.8546,-691.12 166.6165,-691.12 138.3858,-689.3853 115.5103,-684.7028 110.6609,-687.9538 107.6933,-646.5727 104.3078,-691.1253 105.3222,-691.4271 101.6508,-786.7823 101.2774,-833.2975 114.0404,-829.3303 118.2984,-828.1015 234.3899,-797.1772 316.0794,-709.0723 353.3097,-723.4551 392.1085,-765.7211 497.7713,-853.9067 517.1779,-863.4554 532.8818,-866.4685 541.6357,-866.0404 541.8196,-866.0349 551.8118,-865.9243 552.2239,-865.9275 554.3007,-808.7046 554.3007,-808.7046 552.2239,-865.9275 565.7613,-866.5465 576.6533,-867.4576 584.7982,-868.2932 595.2213,-869.7571 610.0063,-872.3931 616.7024,-873.7125 641.5323,-839.5949 664.5137,-806.2917 694.3835,-760.0135 756.7725,-729.4844 771.9454,-721.5652 773.8557,-720.5089 792.6164,-687.1133 807.4058,-662.4061 833.1754,-621.648 828.0942,-609.2889 809.9286,-562.3513 809.9573,-552.7697 809.7397,-539.9373 808.6523,-536.5745 798.4969,-529.64 757.693,-497.7321 748.083,-490.5935 738.7883,-484.4298 728.1155,-477.7838 727.9441,-477.6912 712.5284,-469.9703 709.4406,-468.8004 693.4008,-463.3534 681.4068,-460.738 676.0894,-459.795 654.0863,-456.7867 654.0619,-463.4049 656.6565,-523.3268 656.6565,-523.3268 654.0619,-463.4049 654.0863,-456.7867 644.4207,-454.6242 631.7808,-450.6902 631.6147,-450.6314 622.3535,-446.945 615.9048,-444.1005 595.1934,-433.1668 600.6309,-424.6527 611.3322,-410.1214 632.0212,-379.0864 652.7448,-336.2507 653.6155,-334.7043 680.427,-298.2968 689.9286,-283.5569 692.7191,-278.9674 698.449,-268.9875 705.064,-256.8325 619.0004,-174.2911 610.6573,-177.4674 593.6177,-183.6059 583.6071,-187.0012 583.5881,-238.2334 581.1617,-277.9755 574.923,-331.5855 570.5687,-330.3184 564.3644,-332.2274 561.082,-335.114 564.5048,-338.1751 564.5048,-338.1751 561.082,-335.114 564.3644,-332.2274 570.5687,-330.3184 574.923,-331.5855 581.1617,-277.9755 583.5881,-238.2334 583.6071,-187.0012 566.6757,-191.3286 561.5302,-192.4284 550.891,-194.4807 554.3748,-335.0831 549.7247,-335.0831 543.5018,-276.3759 543.5018,-276.3759 549.7247,-335.0831 554.3748,-335.0831 550.891,-194.4807 542.9075,-195.8531 476.2238,-203.1354 417.5707,-259.7674 384.3846,-299.8517 371.0049,-335.19 341.4605,-401.9532 324.4408,-412.5143 268.2728,-381.7285 124.5413,-318.4565 113.0107,-313.1218 108.8442,-311.1025 104.9251,-309.0288 101.8838,-308.3341 98.2453,-307.3688 81.7863,-310.1117 70.6287,-311.1725 55.4976,-312.0708 40.8492,-312.416 18.6232,-312.145 -51.3683,-343.3392 -111.7643,-400.0734 -114.3422,-403.1431 -115.1076,-404.9913 -111.9439,-452.0924 -103.4169,-465.75 -103.4169,-465.75"/>
<polygon fill="#ccebc5" stroke="#ccebc5" points="1195.7344,-374.636 1189.7426,-374.499 1189.4401,-393.5878 1185.5095,-461.6847 1098.6486,-433.8845 1094.342,-428.1063 1102.6929,-366.8725 1096.6842,-358.5085 1094.2972,-320.6626 1099.3254,-313.7859 1104.9058,-307.2879 1105.5273,-306.5146 1118.6803,-291.0622 1136.0034,-273.2918 1176.7694,-222.3179 1191.3126,-206.075 1194.7915,-202.5199 1214.2509,-181.1069 1218.4635,-175.598 1219.5505,-174.0071 1221.3434,-171.5506 1224.1086,-171.399 1225.5624,-171.3941 1235.666,-171.6197 1237.8384,-171.7241 1242.1151,-171.7095 1248.9811,-171.3329 1251.7577,-171.3235 1256.0901,-171.4199 1259.3723,-171.5773 1259.4027,-171.5764 1276.7175,-171.9626 1277.2672,-171.9889 1420.2195,-182.5179 1429.6204,-202.266 1448.661,-212.7023 1460.4583,-218.7108 1460.8126,-218.8775 1475.4562,-225.4846 1482.7775,-228.5023 1494.2202,-232.9956 1507.8982,-237.5639 1515.2101,-239.7193 1527.764,-242.9309 1543.947,-246.4373 1608.5787,-259.1609 1636.5807,-279.1982 1660.1799,-309.5506 1660.4155,-361.1516 1661.2275,-389.1557 1658.2059,-403.2943 1646.2024,-477.2804 1597.6482,-490.264 1578.1656,-494.985 1576.1604,-495.4189 1560.6636,-497.9786 1557.6958,-498.3158 1542.8765,-499.2429 1531.3904,-499.0786 1534.6021,-395.2906 1529.3208,-390.5059 1528.6714,-389.3659 1524.9746,-389.3659 1521.4111,-438.6135 1518.7959,-389.3374 1513.5782,-389.3374 1513.4363,-389.2974 1510.0491,-389.2974 1509.322,-389.0912 1509.322,-389.0912 1510.0491,-389.2974 1513.4363,-389.2974 1513.5782,-389.3374 1518.7959,-389.3374 1521.4111,-438.6135 1524.9746,-389.3659 1528.6714,-389.3659 1529.3208,-390.5059 1534.6021,-395.2906 1531.3904,-499.0786 1530.7875,-499.0851 1527.0548,-499.22 1520.8348,-499.2852 1508.7313,-500.3279 1500.255,-509.3896 1452.5513,-528.9152 1439.2239,-533.7371 1430.2362,-536.1028 1418.677,-538.013 1407.1675,-538.7841 1404.335,-538.6969 1403.6324,-514.9996 1403.6324,-514.9996 1404.335,-538.6969 1402.6387,-538.8082 1397.8876,-538.8876 1391.1622,-538.6711 1389.1146,-538.404 1389.8456,-528.1483 1389.8456,-528.1483 1389.1146,-538.404 1385.0216,-538.2675 1382.0521,-538.3113 1379.345,-538.4817 1378.8116,-538.5412 1369.1572,-538.6719 1354.3568,-540.3066 1354.653,-535.7054 1361.0695,-480.1941 1364.7705,-482.1671 1370.5752,-482.1671 1374.7678,-479.8676 1376.7257,-477.6238 1375.1876,-475.9145 1370.6752,-473.4286 1365.2025,-473.4286 1365.2025,-473.4286 1370.6752,-473.4286 1375.1876,-475.9145 1376.7257,-477.6238 1374.7678,-479.8676 1370.5752,-482.1671 1364.7705,-482.1671 1361.0695,-480.1941 1354.653,-535.7054 1354.3568,-540.3066 1348.6033,-541.4922 1345.4874,-542.283 1338.1759,-544.8538 1326.3928,-549.5771 1311.5968,-556.2045 1321.6746,-580.0284 1327.9719,-597.7021 1333.4432,-617.0879 1335.7888,-628.6602 1341.5496,-645.0128 1359.5099,-687.4709 1351.6765,-691.5839 1336.8116,-697.5962 1334.2255,-698.5355 1324.5452,-701.2729 1317.0237,-703.0945 1286.7782,-709.1835 1267.8201,-715.2918 1265.1072,-716.3777 1264.9937,-638.2917 1269.7498,-635.5759 1271.4927,-633.5438 1271.1793,-633.2072 1271.1793,-633.2072 1271.4927,-633.5438 1269.7498,-635.5759 1264.9937,-638.2917 1265.1072,-716.3777 1262.92,-717.3404 1242.3444,-728.1004 1234.5657,-733.0854 1231.8051,-734.9645 1231.2488,-734.9684 1222.3494,-734.5408 1214.0708,-733.9146 1207.8334,-733.2711 1197.1877,-731.5868 1185.1942,-728.6946 1179.5021,-717.8134 1169.1626,-694.4359 1154.4576,-657.5588 1147.2817,-641.4118 1138.1866,-622.7778 1151.9977,-602.6215 1179.0488,-559.763 1161.8998,-536.7529 1151.1879,-519.1837 1129.1654,-478.0592 1098.6486,-433.8845 1185.5095,-461.6847 1189.4401,-393.5878 1189.7426,-374.499 1195.7344,-374.636 1196.9083,-402.9236 1202.6604,-466.3597 1206.1218,-466.3597 1207.2823,-467.775 1212.9382,-471.2114 1217.7581,-471.2114 1220.0446,-515.8764 1219.4923,-550.8799 1231.1322,-550.3757 1228.444,-466.779 1233.1095,-466.779 1233.7057,-466.5957 1237.9828,-374.7563 1239.174,-374.7752 1239.213,-374.7733 1246.2145,-374.652 1252.8667,-374.7466 1262.3972,-375.1827 1261.9982,-358.7402 1261.9982,-358.7402 1262.3972,-375.1827 1252.8667,-374.7466 1246.2145,-374.652 1239.213,-374.7733 1239.174,-374.7752 1237.9828,-374.7563 1233.7057,-466.5957 1233.1095,-466.779 1228.444,-466.779 1231.1322,-550.3757 1219.4923,-550.8799 1220.0446,-515.8764 1217.7581,-471.2114 1212.9382,-471.2114 1207.2823,-467.775 1206.1218,-466.3597 1202.6604,-466.3597 1196.9083,-402.9236 1195.7344,-374.636 1195.7344,-374.636"/>
<polygon fill="#b3cde3" stroke="#b3cde3" points="1324.6105,-836.9718 1323.0408,-837.0181 1319.3505,-837.3099 1319.0957,-837.3171 1315.6699,-837.2397 1311.916,-836.9638 1295.5126,-834.9146 1293.6906,-834.5042 1291.7001,-833.9541 1289.5326,-833.2418 1286.3259,-828.2249 1261.9316,-778.2083 1259.8925,-774.9599 1231.8051,-734.9645 1234.5657,-733.0854 1242.3444,-728.1004 1262.92,-717.3404 1265.1072,-716.3777 1267.8201,-715.2918 1286.7782,-709.1835 1317.0237,-703.0945 1324.5452,-701.2729 1334.2255,-698.5355 1336.8116,-697.5962 1351.6765,-691.5839 1359.5099,-687.4709 1341.5496,-645.0128 1335.7888,-628.6602 1333.4432,-617.0879 1327.9719,-597.7021 1321.6746,-580.0284 1311.5968,-556.2045 1326.3928,-549.5771 1338.1759,-544.8538 1345.4874,-542.283 1348.6033,-541.4922 1354.3568,-540.3066 1369.1572,-538.6719 1378.8116,-538.5412 1379.345,-538.4817 1382.0521,-538.3113 1385.0216,-538.2675 1389.1146,-538.404 1391.1622,-538.6711 1397.8876,-538.8876 1402.6387,-538.8082 1404.335,-538.6969 1407.1675,-538.7841 1418.677,-538.013 1419.2644,-565.2842 1416.8472,-595.7465 1412.629,-594.571 1407.0818,-596.214 1403.2095,-599.6354 1406.4796,-602.345 1406.4796,-602.345 1403.2095,-599.6354 1407.0818,-596.214 1412.629,-594.571 1416.8472,-595.7465 1419.2644,-565.2842 1418.677,-538.013 1430.2362,-536.1028 1439.2239,-533.7371 1452.5513,-528.9152 1500.255,-509.3896 1508.7313,-500.3279 1520.8348,-499.2852 1527.0548,-499.22 1530.7875,-499.0851 1531.3904,-499.0786 1542.8765,-499.2429 1557.6958,-498.3158 1560.6636,-497.9786 1576.1604,-495.4189 1578.1656,-494.985 1597.6482,-490.264 1646.2024,-477.2804 1722.7673,-563.4666 1723.6935,-591.478 1727.9313,-645.3745 1730.6981,-672.8189 1730.0022,-678.184 1583.3468,-766.4586 1568.452,-776.9014 1568.1772,-777.1007 1565.9272,-789.7065 1565.2446,-794.0053 1564.9863,-795.8608 1473.4204,-899.8273 1428.1033,-872.1352 1402.8373,-855.4603 1397.3878,-852.4072 1396.3199,-834.0792 1396.3199,-834.0792 1397.3878,-852.4072 1378.946,-843.851 1375.6189,-842.6479 1373.0338,-841.8409 1365.3042,-839.8055 1351,-837.4453 1351.8988,-815.3692 1356.4546,-779.4127 1360.2678,-781.493 1360.2678,-781.493 1356.4546,-779.4127 1351.8988,-815.3692 1350.1659,-777.0949 1350.1726,-777.093 1354.4755,-777.093 1356.3407,-774.9001 1360.429,-772.6406 1360.429,-772.6406 1356.3407,-774.9001 1354.4755,-777.093 1350.1726,-777.093 1350.1659,-777.0949 1351.8988,-815.3692 1351,-837.4453 1346.3506,-837.1412 1343.134,-837.09 1341.8884,-837.1319 1336.9229,-837.0456 1330.5071,-837.2539 1327.9774,-837.2066 1324.6105,-836.9718 1324.6105,-836.9718"/>
<polygon fill="#decbe4" stroke="#decbe4" points="1336.9229,-837.0456 1341.8884,-837.1319 1343.134,-837.09 1346.3506,-837.1412 1351,-837.4453 1365.3042,-839.8055 1373.0338,-841.8409 1375.6189,-842.6479 1378.946,-843.851 1397.3878,-852.4072 1402.8373,-855.4603 1428.1033,-872.1352 1473.4204,-899.8273 1470.2338,-914.2751 1459.296,-977.8686 1439.3715,-1011.2115 1435.3035,-1015.1554 1434.5967,-1015.697 1338.7954,-1038.4872 1330.6819,-1040.757 1317.6914,-1055.0935 1253.7832,-1104.7786 1236.4855,-1112.7643 1205.3225,-1113.9797 1205.0796,-1104.3926 1200.5618,-1006.4783 1195.588,-973.5584 1192.8107,-973.5584 1192.2313,-973.3939 1185.8414,-973.3939 1185.6479,-973.3399 1183.53,-973.3399 1181.9707,-971.6652 1177.2261,-969.069 1171.6349,-969.069 1171.6349,-969.069 1177.2261,-969.069 1181.9707,-971.6652 1183.53,-973.3399 1185.6479,-973.3399 1185.8414,-973.3939 1192.2313,-973.3939 1192.8107,-973.5584 1195.588,-973.5584 1200.5618,-1006.4783 1205.0796,-1104.3926 1205.3225,-1113.9797 1201.3651,-1114.364 1189.0239,-1113.573 1179.8883,-1113.342 1170.309,-1113.4719 1161.4495,-1113.764 1152.3785,-1114.4147 1153.3066,-1029.158 1150.8939,-973.4472 1150.8563,-973.4365 1147.8794,-973.4365 1146.6025,-971.424 1143.861,-923.8875 1140.9633,-967.1288 1110.4119,-970.9998 1104.1605,-971.1366 1105.2007,-958.8654 1068.7081,-955.4023 1065.2025,-951.9881 1063.2913,-951.4621 1060.9979,-949.8365 1058.2383,-949.8365 1057.6086,-950.0227 1056.7659,-950.0227 1053.5035,-952.7615 1047.1927,-954.6357 1043.1216,-953.4927 1038.3572,-984.3695 1034.9802,-1049.4506 1031.4622,-950.0029 1026.5153,-955.1498 983.9853,-962.2705 967.4544,-1026.5385 954.7053,-1024.3984 948.0338,-937.2619 948.0338,-937.2619 954.7053,-1024.3984 967.4544,-1026.5385 983.9853,-962.2705 1026.5153,-955.1498 1031.4622,-950.0029 1034.9802,-1049.4506 1038.3572,-984.3695 1043.1216,-953.4927 1047.1927,-954.6357 1053.5035,-952.7615 1056.7659,-950.0227 1057.6086,-950.0227 1058.2383,-949.8365 1060.9979,-949.8365 1063.2913,-951.4621 1065.2025,-951.9881 1068.7081,-955.4023 1105.2007,-958.8654 1104.1605,-971.1366 1110.4119,-970.9998 1140.9633,-967.1288 1143.861,-923.8875 1146.6025,-971.424 1147.8794,-973.4365 1150.8563,-973.4365 1150.8939,-973.4472 1153.3066,-1029.158 1152.3785,-1114.4147 1145.6287,-1115.1604 1139.9915,-1115.8926 1078.3008,-1125.0985 1064.0027,-1154.6516 985.2256,-1234.9994 947.1952,-1253.193 918.4018,-1252.9897 911.3044,-1253.2253 909.0392,-1174.9579 910.2974,-1113.1975 911.3156,-1111.9985 910.0596,-1110.5201 904.7006,-1107.3853 907.085,-1021.2974 909.247,-1021.2632 910.1163,-999.8809 912.2581,-974.1055 918.6177,-933.7907 921.8688,-931.1553 917.2114,-927.1551 912.7538,-925.9358 912.7538,-925.9358 917.2114,-927.1551 921.8688,-931.1553 918.6177,-933.7907 912.2581,-974.1055 910.1163,-999.8809 909.247,-1021.2632 907.085,-1021.2974 904.7006,-1107.3853 910.0596,-1110.5201 911.3156,-1111.9985 910.2974,-1113.1975 909.0392,-1174.9579 911.3044,-1253.2253 895.7535,-1254.3687 889.2885,-1255.1042 883.5901,-1253.8569 882.8026,-1253.7009 804.3546,-1239.7931 731.5575,-1119.976 730.3772,-1116.8978 725.6218,-1105.8361 726.2949,-1102.1014 738.3142,-1027.0978 727.6901,-999.7693 681.6135,-959.4323 616.8914,-873.9517 764.7107,-841.6176 766.5805,-867.1851 771.4451,-836.3072 774.9393,-836.3072 775.2224,-836.384 778.5471,-836.384 783.8797,-865.7868 785.8572,-899.7673 791.0327,-836.3553 795.3827,-839.9026 800.2377,-841.2199 804.9614,-839.9061 809.5405,-835.8534 809.4032,-835.6558 805.9837,-832.918 805.9837,-832.918 809.4032,-835.6558 809.5405,-835.8534 804.9614,-839.9061 800.2377,-841.2199 795.3827,-839.9026 791.0327,-836.3553 785.8572,-899.7673 783.8797,-865.7868 778.5471,-836.384 775.2224,-836.384 774.9393,-836.3072 771.4451,-836.3072 766.5805,-867.1851 764.7107,-841.6176 616.8914,-873.9517 616.7024,-873.7125 641.5323,-839.5949 664.5137,-806.2917 694.3835,-760.0135 756.7725,-729.4844 771.9454,-721.5652 773.8557,-720.5089 792.6164,-687.1133 807.4058,-662.4061 833.1754,-621.648 867.2177,-635.3246 888.5949,-642.9656 898.8002,-645.9183 915.5649,-650.0131 918.3668,-650.6332 964.8491,-631.735 979.4101,-626.7255 980.8746,-626.3147 995.882,-623.0327 1000.7289,-622.1258 1012.9056,-620.6121 1020.5204,-620.1445 1031.3684,-620.1595 1032.5763,-620.1991 1034.4995,-620.1398 1039.7582,-619.8099 1043.6173,-619.9313 1047.8243,-619.9298 1048.9666,-620.0013 1058.8545,-620.3048 1060.4965,-620.3028 1060.8625,-620.279 1071.6683,-620.2563 1072.9275,-620.1732 1082.2325,-620.1456 1084.2852,-620.2687 1093.5493,-620.2333 1096.2976,-620.309 1138.1866,-622.7778 1147.2817,-641.4118 1154.4576,-657.5588 1169.1626,-694.4359 1085.3094,-703.9453 1083.5243,-657.0397 1079.4268,-708.6187 1078.2313,-709.5325 1075.8516,-709.5325 1075.8516,-709.5325 1078.2313,-709.5325 1079.4268,-708.6187 1083.5243,-657.0397 1085.3094,-703.9453 1169.1626,-694.4359 1179.5021,-717.8134 1185.1942,-728.6946 1197.1877,-731.5868 1207.8334,-733.2711 1214.0708,-733.9146 1222.3494,-734.5408 1231.2488,-734.9684 1229.5212,-798.0745 1229.5212,-798.0745 1231.2488,-734.9684 1231.8051,-734.9645 1259.8925,-774.9599 1261.9316,-778.2083 1286.3259,-828.2249 1289.5326,-833.2418 1291.7001,-833.9541 1293.6906,-834.5042 1295.5126,-834.9146 1311.916,-836.9638 1307.2415,-892.1594 1303.2731,-893.2527 1297.4498,-858.8928 1297.147,-897.2194 1292.3895,-897.2194 1291.7584,-897.0281 1286.5999,-897.0281 1286.0481,-896.8636 1283.9849,-896.8636 1281.2452,-898.9211 1278.3633,-899.7827 1276.422,-902.0665 1225.6693,-917.5455 1265.4423,-961.4156 1221.5323,-968.5904 1207.215,-967.1733 1205.0969,-930.0251 1205.5129,-904.9588 1200.1821,-904.5543 1201.512,-880.0223 1200.7664,-839.41 1204.9241,-835.8308 1201.271,-832.8021 1195.9631,-831.2763 1195.9631,-831.2763 1201.271,-832.8021 1204.9241,-835.8308 1200.7664,-839.41 1201.512,-880.0223 1200.1821,-904.5543 1205.5129,-904.9588 1205.0969,-930.0251 1207.215,-967.1733 1221.5323,-968.5904 1265.4423,-961.4156 1225.6693,-917.5455 1276.422,-902.0665 1278.3633,-899.7827 1281.2452,-898.9211 1283.9849,-896.8636 1286.0481,-896.8636 1286.5999,-897.0281 1291.7584,-897.0281 1292.3895,-897.2194 1297.147,-897.2194 1297.4498,-858.8928 1303.2731,-893.2527 1298.684,-897.4363 1302.3901,-900.5889 1302.3901,-900.5889 1298.684,-897.4363 1303.2731,-893.2527 1307.2415,-892.1594 1311.916,-836.9638 1315.6699,-837.2397 1319.0957,-837.3171 1319.3505,-837.3099 1323.0408,-837.0181 1324.6105,-836.9718 1327.9774,-837.2066 1330.5071,-837.2539 1336.9229,-837.0456 1336.9229,-837.0456"/>
<polygon fill="#fbb4ae" stroke="#fbb4ae" points="611.3322,-410.1214 632.0212,-379.0864 652.7448,-336.2507 653.6155,-334.7043 680.427,-298.2968 689.9286,-283.5569 692.7191,-278.9674 698.449,-268.9875 705.064,-256.8325 707.8649,-257.6925 716.5832,-259.7885 731.1594,-262.9696 734.1699,-263.5587 752.1228,-265.4775 757.2303,-265.9094 767.948,-266.5765 783.0311,-267.8797 802.8822,-271.031 814.8394,-292.2245 819.9614,-302.6624 846.8912,-362.0141 853.4881,-375.354 918.2269,-369.3719 930.9244,-368.7235 930.9529,-368.7232 934.5815,-368.8392 936.5975,-368.746 945.6944,-368.7032 947.5215,-368.6231 947.9225,-368.6222 948.2637,-368.6356 951.2227,-368.5201 956.8668,-368.5344 963.0189,-368.8065 967.303,-368.6599 971.095,-368.8454 973.4577,-368.776 983.5474,-368.899 984.5631,-368.8319 987.2314,-368.8771 993.6323,-368.7359 996.1253,-368.5836 1096.6842,-358.5085 1102.6929,-366.8725 1094.342,-428.1063 1092.6667,-429.9228 1089.432,-432.8944 1076.1267,-445.977 1073.7328,-448.7394 1061.6411,-460.0575 1056.9441,-464.1039 1048.0779,-470.4757 1043.8716,-473.1933 1043.6594,-473.3152 1030.7048,-479.8753 1022.0868,-482.9913 1020.7181,-483.3867 1011.7386,-485.3457 999.4908,-486.2632 999.1546,-486.2643 997.0564,-486.1212 996.8106,-486.1217 996.7971,-486.1227 989.3311,-486.1342 985.9136,-485.8929 981.0814,-486.2412 976.5754,-485.916 970.467,-486.3478 965.7212,-486.3401 963.3304,-485.9927 963.1731,-485.9922 951.0884,-486.8116 947.2365,-487.3437 941.061,-488.6299 939.1041,-489.1729 936.6645,-490.022 860.3149,-522.1409 809.7397,-539.9373 808.6523,-536.5745 798.4969,-529.64 757.693,-497.7321 748.083,-490.5935 738.7883,-484.4298 728.1155,-477.7838 730.3826,-418.1205 728.002,-387.7007 728.002,-387.7007 730.3826,-418.1205 728.1155,-477.7838 727.9441,-477.6912 712.5284,-469.9703 709.4406,-468.8004 702.9674,-387.8759 707.2895,-387.8759 707.8341,-388.4776 713.9272,-392.056 713.9272,-392.056 707.8341,-388.4776 707.2895,-387.8759 702.9674,-387.8759 709.4406,-468.8004 693.4008,-463.3534 681.4068,-460.738 676.0894,-459.795 654.0863,-456.7867 644.4207,-454.6242 631.7808,-450.6902 631.6147,-450.6314 622.3535,-446.945 615.9048,-444.1005 595.1934,-433.1668 600.6309,-424.6527 611.3322,-410.1214 611.3322,-410.1214"/>
<polygon fill="#b3cde3" stroke="#b3cde3" points="1421.7733,-54.299 1431.0303,-83.5315 1431.054,-83.6012 1430.6423,-118.3955 1420.2195,-182.5179 1277.2672,-171.9889 1276.7175,-171.9626 1259.4027,-171.5764 1259.3723,-171.5773 1256.0901,-171.4199 1251.7577,-171.3235 1251.8347,-63.926 1255.6368,-60.4374 1251.7396,-57.1789 1247.222,-55.9309 1247.222,-55.9309 1251.7396,-57.1789 1255.6368,-60.4374 1251.8347,-63.926 1251.7577,-171.3235 1248.9811,-171.3329 1242.1151,-171.7095 1237.8384,-171.7241 1235.666,-171.6197 1225.5624,-171.3941 1224.1086,-171.399 1221.3434,-171.5506 1217.6796,-168.7608 1169.913,-134.3445 1119.0406,-136.4864 1114.182,-136.2564 1106.4108,-136.2305 1106.0813,-136.2147 1104.9449,-136.2598 1102.7891,-136.2493 1100.9233,-136.3222 1096.3934,-136.2963 1087.1721,-136.6506 1083.5934,-136.4675 1081.5817,-136.541 1078.0277,-136.5125 1077.1196,-136.4649 1077.0197,-136.4552 1072.2333,-136.4091 1062.8104,-136.7333 1062.1066,-136.7885 1061.3196,-136.8148 1057.7544,-136.775 1054.683,-136.6035 1054.4244,-136.6117 1043.7917,-136.4761 1039.9202,-136.5964 1039.7831,-136.6066 1035.9496,-137.0616 1028.9103,-138.2086 1018.0068,-140.4671 942.3597,-159.4121 941.1369,-164.3924 940.7186,-166.6085 938.8439,-175.2116 942.1927,-179.6139 951.6025,-190.7873 954.5696,-193.9388 964.379,-203.7768 973.357,-212.2204 979.627,-217.3256 983.9683,-221.5441 983.5702,-244.5669 985.6202,-289.55 985.6202,-289.55 983.5702,-244.5669 983.9683,-221.5441 1051.2253,-277.0184 1060.2863,-285.1408 1066.1622,-291.2355 1069.9381,-295.72 1080.0304,-305.3387 1086.1835,-311.5482 1094.2972,-320.6626 1096.6842,-358.5085 996.1253,-368.5836 993.6323,-368.7359 987.2314,-368.8771 984.5631,-368.8319 983.5474,-368.899 973.4577,-368.776 971.095,-368.8454 967.303,-368.6599 967.129,-339.7398 963.5233,-295.6593 963.0526,-295.6593 959.2384,-292.4123 953.8651,-290.8454 953.8651,-290.8454 959.2384,-292.4123 963.0526,-295.6593 963.5233,-295.6593 967.129,-339.7398 967.303,-368.6599 963.0189,-368.8065 956.8668,-368.5344 951.2227,-368.5201 948.2637,-368.6356 947.9225,-368.6222 947.5215,-368.6231 945.6944,-368.7032 936.5975,-368.746 934.5815,-368.8392 930.9529,-368.7232 930.9244,-368.7235 918.2269,-369.3719 853.4881,-375.354 846.8912,-362.0141 819.9614,-302.6624 814.8394,-292.2245 802.8822,-271.031 783.0311,-267.8797 783.0672,-261.7712 789.6233,-144.9661 790.5814,-144.9661 793.8063,-147.7697 799.8796,-149.6568 805.331,-147.9494 808.5846,-144.8893 811.0854,-144.8893 811.379,-144.7985 816.3354,-144.7985 816.5762,-144.871 811.0201,-264.1654 825.077,-253.5446 825.0306,-247.808 825.0306,-247.808 825.077,-253.5446 811.0201,-264.1654 816.5762,-144.871 816.3354,-144.7985 811.379,-144.7985 808.1763,-100.403 808.4182,-35.7442 803.2616,-30.7381 910.8307,-23.8236 913.3093,-66.7971 917.1346,-18.2783 921.5005,-18.2783 925.0485,-94.7072 927.6122,-19.3961 933.0607,-22.678 938.0307,-22.678 938.0307,-22.678 933.0607,-22.678 927.6122,-19.3961 925.0485,-94.7072 921.5005,-18.2783 917.1346,-18.2783 913.3093,-66.7971 910.8307,-23.8236 803.2616,-30.7381 808.4182,-35.7442 808.1763,-100.403 811.379,-144.7985 811.0854,-144.8893 808.5846,-144.8893 804.9089,-141.4408 800.3322,-140.0774 800.3322,-140.0774 804.9089,-141.4408 808.5846,-144.8893 805.331,-147.9494 799.8796,-149.6568 793.8063,-147.7697 790.5814,-144.9661 789.6233,-144.9661 783.0672,-261.7712 783.0311,-267.8797 767.948,-266.5765 757.2303,-265.9094 752.1228,-265.4775 734.1699,-263.5587 731.1594,-262.9696 716.5832,-259.7885 707.8649,-257.6925 705.064,-256.8325 619.0004,-174.2911 626.7609,-149.9342 628.9963,-142.3754 646.0488,-74.1918 722.1071,-7.1459 761.8784,11.7283 780.3218,50.8321 854.1223,118.9966 857.9163,121.2978 912.4942,122.0274 936.1486,123.8238 938.0903,124.0923 949.9718,125.9842 953.0506,125.0698 965.28,121.9734 973.9623,119.9665 1053.4799,82.8828 1066.799,73.4442 1078.6639,71.6408 1091.5964,70.4503 1101.7521,69.9213 1114.4065,69.7679 1116.6682,69.7856 1120.6608,68.6725 1155.4904,59.7127 1213.2079,67.8219 1228.9099,70.7334 1230.5846,71.0812 1233.5325,71.7591 1239.9128,70.6952 1253.7454,69.2921 1258.9237,68.8799 1276.1906,68.2584 1299.8717,68.9541 1369.9841,46.5221 1405.9568,3.5581 1419.3148,-45.9186 1421.7733,-54.299 1421.7733,-54.299"/>
<polygon fill="#fbb4ae" stroke="#fbb4ae" points="938.8439,-175.2116 940.7186,-166.6085 941.1369,-164.3924 942.3597,-159.4121 1018.0068,-140.4671 1028.9103,-138.2086 1035.9496,-137.0616 1039.7831,-136.6066 1039.9202,-136.5964 1043.7917,-136.4761 1054.4244,-136.6117 1054.683,-136.6035 1057.7544,-136.775 1061.3196,-136.8148 1062.1066,-136.7885 1062.8104,-136.7333 1072.2333,-136.4091 1077.0197,-136.4552 1077.1196,-136.4649 1078.0277,-136.5125 1081.5817,-136.541 1083.5934,-136.4675 1087.1721,-136.6506 1096.3934,-136.2963 1100.9233,-136.3222 1102.7891,-136.2493 1104.9449,-136.2598 1106.0813,-136.2147 1106.4108,-136.2305 1114.182,-136.2564 1119.0406,-136.4864 1169.913,-134.3445 1217.6796,-168.7608 1221.3434,-171.5506 1219.5505,-174.0071 1218.4635,-175.598 1214.2509,-181.1069 1194.7915,-202.5199 1191.3126,-206.075 1176.7694,-222.3179 1136.0034,-273.2918 1118.6803,-291.0622 1105.5273,-306.5146 1104.9058,-307.2879 1099.3254,-313.7859 1094.2972,-320.6626 1086.1835,-311.5482 1080.0304,-305.3387 1069.9381,-295.72 1066.1622,-291.2355 1060.2863,-285.1408 1051.2253,-277.0184 983.9683,-221.5441 979.627,-217.3256 973.357,-212.2204 964.379,-203.7768 954.5696,-193.9388 951.6025,-190.7873 942.1927,-179.6139 938.8439,-175.2116 938.8439,-175.2116"/>
<polyline fill="none" stroke="#000000" points="1020.5204,-620.1445 1012.9056,-620.6121 1000.7289,-622.1258 995.882,-623.0327 980.8746,-626.3147 979.4101,-626.7255 964.8491,-631.735 918.3668,-650.6332 915.5649,-650.0131 898.8002,-645.9183 888.5949,-642.9656 867.2177,-635.3246 833.1754,-621.648 828.0942,-609.2889 809.9286,-562.3513 809.9573,-552.7697 809.7397,-539.9373 860.3149,-522.1409 936.6645,-490.022 939.1041,-489.1729 941.061,-488.6299 947.2365,-487.3437 951.0884,-486.8116 963.1731,-485.9922 963.3304,-485.9927 965.7212,-486.3401 970.467,-486.3478 976.5754,-485.916 981.0814,-486.2412 985.9136,-485.8929 989.3311,-486.1342 996.7971,-486.1227 996.8106,-486.1217 997.0564,-486.1212 999.1546,-486.2643 999.4908,-486.2632 1011.7386,-485.3457 1020.7181,-483.3867 1022.0868,-482.9913 1030.7048,-479.8753 1043.6594,-473.3152 1043.8716,-473.1933 1048.0779,-470.4757 1056.9441,-464.1039 1061.6411,-460.0575 1073.7328,-448.7394 1076.1267,-445.977 1089.432,-432.8944 1092.6667,-429.9228 1094.342,-428.1063 1098.6486,-433.8845 1129.1654,-478.0592 1151.1879,-519.1837 1161.8998,-536.7529 1179.0488,-559.763 1151.9977,-602.6215 1138.1866,-622.7778 1096.2976,-620.309 1093.5493,-620.2333 1084.2852,-620.2687 1082.2325,-620.1456 1072.9275,-620.1732 1071.6683,-620.2563 1060.8625,-620.279 1060.4965,-620.3028 1058.8545,-620.3048 1048.9666,-620.0013 1047.8243,-619.9298 1043.6173,-619.9313 1039.7582,-619.8099 1034.4995,-620.1398 1032.5763,-620.1991 1031.3684,-620.1595 1020.5204,-620.1445 "/>
<polyline fill="none" stroke="#000000" points="631.7808,-450.6902 631.6147,-450.6314 622.3535,-446.945 615.9048,-444.1005 595.1934,-433.1668 600.6309,-424.6527 611.3322,-410.1214 632.0212,-379.0864 652.7448,-336.2507 653.6155,-334.7043 680.427,-298.2968 689.9286,-283.5569 692.7191,-278.9674 698.449,-268.9875 705.064,-256.8325 619.0004,-174.2911 610.6573,-177.4674 593.6177,-183.6059 583.6071,-187.0012 566.6757,-191.3286 561.5302,-192.4284 550.891,-194.4807 542.9075,-195.8531 476.2238,-203.1354 417.5707,-259.7674 384.3846,-299.8517 371.0049,-335.19 341.4605,-401.9532 324.4408,-412.5143 268.2728,-381.7285 124.5413,-318.4565 113.0107,-313.1218 108.8442,-311.1025 104.9251,-309.0288 101.8838,-308.3341 98.2453,-307.3688 81.7863,-310.1117 70.6287,-311.1725 55.4976,-312.0708 40.8492,-312.416 18.6232,-312.145 -51.3683,-343.3392 -111.7643,-400.0734 -114.3422,-403.1431 -115.1076,-404.9913 -111.9439,-452.0924 -103.4169,-465.75 -38.0607,-586.5313 -70.1883,-670.1651 -77.4997,-686.8474 -59.6892,-730.1189 -32.1606,-802.1033 53.1812,-830.2637 72.4239,-837.0491 76.5683,-837.0989 88.2538,-838.1422 93.2839,-836.1342 101.2774,-833.2975 114.0404,-829.3303 118.2984,-828.1015 234.3899,-797.1772 316.0794,-709.0723 353.3097,-723.4551 392.1085,-765.7211 497.7713,-853.9067 517.1779,-863.4554 532.8818,-866.4685 541.6357,-866.0404 541.8196,-866.0349 551.8118,-865.9243 552.2239,-865.9275 565.7613,-866.5465 576.6533,-867.4576 584.7982,-868.2932 595.2213,-869.7571 610.0063,-872.3931 616.7024,-873.7125 641.5323,-839.5949 664.5137,-806.2917 694.3835,-760.0135 756.7725,-729.4844 771.9454,-721.5652 773.8557,-720.5089 792.6164,-687.1133 807.4058,-662.4061 833.1754,-621.648 828.0942,-609.2889 809.9286,-562.3513 809.9573,-552.7697 809.7397,-539.9373 808.6523,-536.5745 798.4969,-529.64 757.693,-497.7321 748.083,-490.5935 738.7883,-484.4298 728.1155,-477.7838 727.9441,-477.6912 712.5284,-469.9703 709.4406,-468.8004 693.4008,-463.3534 681.4068,-460.738 676.0894,-459.795 654.0863,-456.7867 644.4207,-454.6242 631.7808,-450.6902 "/>
<polyline fill="none" stroke="#000000" points="1507.8982,-237.5639 1515.2101,-239.7193 1527.764,-242.9309 1543.947,-246.4373 1608.5787,-259.1609 1636.5807,-279.1982 1660.1799,-309.5506 1660.4155,-361.1516 1661.2275,-389.1557 1658.2059,-403.2943 1646.2024,-477.2804 1597.6482,-490.264 1578.1656,-494.985 1576.1604,-495.4189 1560.6636,-497.9786 1557.6958,-498.3158 1542.8765,-499.2429 1531.3904,-499.0786 1530.7875,-499.0851 1527.0548,-499.22 1520.8348,-499.2852 1508.7313,-500.3279 1500.255,-509.3896 1452.5513,-528.9152 1439.2239,-533.7371 1430.2362,-536.1028 1418.677,-538.013 1407.1675,-538.7841 1404.335,-538.6969 1402.6387,-538.8082 1397.8876,-538.8876 1391.1622,-538.6711 1389.1146,-538.404 1385.0216,-538.2675 1382.0521,-538.3113 1379.345,-538.4817 1378.8116,-538.5412 1369.1572,-538.6719 1354.3568,-540.3066 1348.6033,-541.4922 1345.4874,-542.283 1338.1759,-544.8538 1326.3928,-549.5771 1311.5968,-556.2045 1321.6746,-580.0284 1327.9719,-597.7021 1333.4432,-617.0879 1335.7888,-628.6602 1341.5496,-645.0128 1359.5099,-687.4709 1351.6765,-691.5839 1336.8116,-697.5962 1334.2255,-698.5355 1324.5452,-701.2729 1317.0237,-703.0945 1286.7782,-709.1835 1267.8201,-715.2918 1265.1072,-716.3777 1262.92,-717.3404 1242.3444,-728.1004 1234.5657,-733.0854 1231.8051,-734.9645 1231.2488,-734.9684 1222.3494,-734.5408 1214.0708,-733.9146 1207.8334,-733.2711 1197.1877,-731.5868 1185.1942,-728.6946 1179.5021,-717.8134 1169.1626,-694.4359 1154.4576,-657.5588 1147.2817,-641.4118 1138.1866,-622.7778 1151.9977,-602.6215 1179.0488,-559.763 1161.8998,-536.7529 1151.1879,-519.1837 1129.1654,-478.0592 1098.6486,-433.8845 1094.342,-428.1063 1102.6929,-366.8725 1096.6842,-358.5085 1094.2972,-320.6626 1099.3254,-313.7859 1104.9058,-307.2879 1105.5273,-306.5146 1118.6803,-291.0622 1136.0034,-273.2918 1176.7694,-222.3179 1191.3126,-206.075 1194.7915,-202.5199 1214.2509,-181.1069 1218.4635,-175.598 1219.5505,-174.0071 1221.3434,-171.5506 1224.1086,-171.399 1225.5624,-171.3941 1235.666,-171.6197 1237.8384,-171.7241 1242.1151,-171.7095 1248.9811,-171.3329 1251.7577,-171.3235 1256.0901,-171.4199 1259.3723,-171.5773 1259.4027,-171.5764 1276.7175,-171.9626 1277.2672,-171.9889 1420.2195,-182.5179 1429.6204,-202.266 1448.661,-212.7023 1460.4583,-218.7108 1460.8126,-218.8775 1475.4562,-225.4846 1482.7775,-228.5023 1494.2202,-232.9956 1507.8982,-237.5639 "/>
<polyline fill="none" stroke="#000000" points="1568.1772,-777.1007 1565.9272,-789.7065 1565.2446,-794.0053 1564.9863,-795.8608 1473.4204,-899.8273 1428.1033,-872.1352 1402.8373,-855.4603 1397.3878,-852.4072 1378.946,-843.851 1375.6189,-842.6479 1373.0338,-841.8409 1365.3042,-839.8055 1351,-837.4453 1346.3506,-837.1412 1343.134,-837.09 1341.8884,-837.1319 1336.9229,-837.0456 1330.5071,-837.2539 1327.9774,-837.2066 1324.6105,-836.9718 1323.0408,-837.0181 1319.3505,-837.3099 1319.0957,-837.3171 1315.6699,-837.2397 1311.916,-836.9638 1295.5126,-834.9146 1293.6906,-834.5042 1291.7001,-833.9541 1289.5326,-833.2418 1286.3259,-828.2249 1261.9316,-778.2083 1259.8925,-774.9599 1231.8051,-734.9645 1234.5657,-733.0854 1242.3444,-728.1004 1262.92,-717.3404 1265.1072,-716.3777 1267.8201,-715.2918 1286.7782,-709.1835 1317.0237,-703.0945 1324.5452,-701.2729 1334.2255,-698.5355 1336.8116,-697.5962 1351.6765,-691.5839 1359.5099,-687.4709 1341.5496,-645.0128 1335.7888,-628.6602 1333.4432,-617.0879 1327.9719,-597.7021 1321.6746,-580.0284 1311.5968,-556.2045 1326.3928,-549.5771 1338.1759,-544.8538 1345.4874,-542.283 1348.6033,-541.4922 1354.3568,-540.3066 1369.1572,-538.6719 1378.8116,-538.5412 1379.345,-538.4817 1382.0521,-538.3113 1385.0216,-538.2675 1389.1146,-538.404 1391.1622,-538.6711 1397.8876,-538.8876 1402.6387,-538.8082 1404.335,-538.6969 1407.1675,-538.7841 1418.677,-538.013 1430.2362,-536.1028 1439.2239,-533.7371 1452.5513,-528.9152 1500.255,-509.3896 1508.7313,-500.3279 1520.8348,-499.2852 1527.0548,-499.22 1530.7875,-499.0851 1531.3904,-499.0786 1542.8765,-499.2429 1557.6958,-498.3158 1560.6636,-497.9786 1576.1604,-495.4189 1578.1656,-494.985 1597.6482,-490.264 1646.2024,-477.2804 1722.7673,-563.4666 1723.6935,-591.478 1727.9313,-645.3745 1730.6981,-672.8189 1730.0022,-678.184 1583.3468,-766.4586 1568.452,-776.9014 1568.1772,-777.1007 "/>
<polyline fill="none" stroke="#000000" points="918.3668,-650.6332 964.8491,-631.735 979.4101,-626.7255 980.8746,-626.3147 995.882,-623.0327 1000.7289,-622.1258 1012.9056,-620.6121 1020.5204,-620.1445 1031.3684,-620.1595 1032.5763,-620.1991 1034.4995,-620.1398 1039.7582,-619.8099 1043.6173,-619.9313 1047.8243,-619.9298 1048.9666,-620.0013 1058.8545,-620.3048 1060.4965,-620.3028 1060.8625,-620.279 1071.6683,-620.2563 1072.9275,-620.1732 1082.2325,-620.1456 1084.2852,-620.2687 1093.5493,-620.2333 1096.2976,-620.309 1138.1866,-622.7778 1147.2817,-641.4118 1154.4576,-657.5588 1169.1626,-694.4359 1179.5021,-717.8134 1185.1942,-728.6946 1197.1877,-731.5868 1207.8334,-733.2711 1214.0708,-733.9146 1222.3494,-734.5408 1231.2488,-734.9684 1231.8051,-734.9645 1259.8925,-774.9599 1261.9316,-778.2083 1286.3259,-828.2249 1289.5326,-833.2418 1291.7001,-833.9541 1293.6906,-834.5042 1295.5126,-834.9146 1311.916,-836.9638 1315.6699,-837.2397 1319.0957,-837.3171 1319.3505,-837.3099 1323.0408,-837.0181 1324.6105,-836.9718 1327.9774,-837.2066 1330.5071,-837.2539 1336.9229,-837.0456 1341.8884,-837.1319 1343.134,-837.09 1346.3506,-837.1412 1351,-837.4453 1365.3042,-839.8055 1373.0338,-841.8409 1375.6189,-842.6479 1378.946,-843.851 1397.3878,-852.4072 1402.8373,-855.4603 1428.1033,-872.1352 1473.4204,-899.8273 1470.2338,-914.2751 1459.296,-977.8686 1439.3715,-1011.2115 1435.3035,-1015.1554 1434.5967,-1015.697 1338.7954,-1038.4872 1330.6819,-1040.757 1317.6914,-1055.0935 1253.7832,-1104.7786 1236.4855,-1112.7643 1205.3225,-1113.9797 1201.3651,-1114.364 1189.0239,-1113.573 1179.8883,-1113.342 1170.309,-1113.4719 1161.4495,-1113.764 1152.3785,-1114.4147 1145.6287,-1115.1604 1139.9915,-1115.8926 1078.3008,-1125.0985 1064.0027,-1154.6516 985.2256,-1234.9994 947.1952,-1253.193 918.4018,-1252.9897 911.3044,-1253.2253 895.7535,-1254.3687 889.2885,-1255.1042 883.5901,-1253.8569 882.8026,-1253.7009 804.3546,-1239.7931 731.5575,-1119.976 730.3772,-1116.8978 725.6218,-1105.8361 726.2949,-1102.1014 738.3142,-1027.0978 727.6901,-999.7693 681.6135,-959.4323 616.8914,-873.9517 616.7024,-873.7125 641.5323,-839.5949 664.5137,-806.2917 694.3835,-760.0135 756.7725,-729.4844 771.9454,-721.5652 773.8557,-720.5089 792.6164,-687.1133 807.4058,-662.4061 833.1754,-621.648 867.2177,-635.3246 888.5949,-642.9656 898.8002,-645.9183 915.5649,-650.0131 918.3668,-650.6332 "/>
<polyline fill="none" stroke="#000000" points="963.1731,-485.9922 963.3304,-485.9927 965.7212,-486.3401 970.467,-486.3478 976.5754,-485.916 981.0814,-486.2412 985.9136,-485.8929 989.3311,-486.1342 996.7971,-486.1227 996.8106,-486.1217 997.0564,-486.1212 999.1546,-486.2643 999.4908,-486.2632 1011.7386,-485.3457 1020.7181,-483.3867 1022.0868,-482.9913 1030.7048,-479.8753 1043.6594,-473.3152 1043.8716,-473.1933 1048.0779,-470.4757 1056.9441,-464.1039 1061.6411,-460.0575 1073.7328,-448.7394 1076.1267,-445.977 1089.432,-432.8944 1092.6667,-429.9228 1094.342,-428.1063 1102.6929,-366.8725 1096.6842,-358.5085 996.1253,-368.5836 993.6323,-368.7359 987.2314,-368.8771 984.5631,-368.8319 983.5474,-368.899 973.4577,-368.776 971.095,-368.8454 967.303,-368.6599 963.0189,-368.8065 956.8668,-368.5344 951.2227,-368.5201 948.2637,-368.6356 947.9225,-368.6222 947.5215,-368.6231 945.6944,-368.7032 936.5975,-368.746 934.5815,-368.8392 930.9529,-368.7232 930.9244,-368.7235 918.2269,-369.3719 853.4881,-375.354 846.8912,-362.0141 819.9614,-302.6624 814.8394,-292.2245 802.8822,-271.031 783.0311,-267.8797 767.948,-266.5765 757.2303,-265.9094 752.1228,-265.4775 734.1699,-263.5587 731.1594,-262.9696 716.5832,-259.7885 707.8649,-257.6925 705.064,-256.8325 698.449,-268.9875 692.7191,-278.9674 689.9286,-283.5569 680.427,-298.2968 653.6155,-334.7043 652.7448,-336.2507 632.0212,-379.0864 611.3322,-410.1214 600.6309,-424.6527 595.1934,-433.1668 615.9048,-444.1005 622.3535,-446.945 631.6147,-450.6314 631.7808,-450.6902 644.4207,-454.6242 654.0863,-456.7867 676.0894,-459.795 681.4068,-460.738 693.4008,-463.3534 709.4406,-468.8004 712.5284,-469.9703 727.9441,-477.6912 728.1155,-477.7838 738.7883,-484.4298 748.083,-490.5935 757.693,-497.7321 798.4969,-529.64 808.6523,-536.5745 809.7397,-539.9373 860.3149,-522.1409 936.6645,-490.022 939.1041,-489.1729 941.061,-488.6299 947.2365,-487.3437 951.0884,-486.8116 963.1731,-485.9922 "/>
<polyline fill="none" stroke="#000000" points="1062.1066,-136.7885 1061.3196,-136.8148 1057.7544,-136.775 1054.683,-136.6035 1054.4244,-136.6117 1043.7917,-136.4761 1039.9202,-136.5964 1039.7831,-136.6066 1035.9496,-137.0616 1028.9103,-138.2086 1018.0068,-140.4671 942.3597,-159.4121 941.1369,-164.3924 940.7186,-166.6085 938.8439,-175.2116 942.1927,-179.6139 951.6025,-190.7873 954.5696,-193.9388 964.379,-203.7768 973.357,-212.2204 979.627,-217.3256 983.9683,-221.5441 1051.2253,-277.0184 1060.2863,-285.1408 1066.1622,-291.2355 1069.9381,-295.72 1080.0304,-305.3387 1086.1835,-311.5482 1094.2972,-320.6626 1096.6842,-358.5085 996.1253,-368.5836 993.6323,-368.7359 987.2314,-368.8771 984.5631,-368.8319 983.5474,-368.899 973.4577,-368.776 971.095,-368.8454 967.303,-368.6599 963.0189,-368.8065 956.8668,-368.5344 951.2227,-368.5201 948.2637,-368.6356 947.9225,-368.6222 947.5215,-368.6231 945.6944,-368.7032 936.5975,-368.746 934.5815,-368.8392 930.9529,-368.7232 930.9244,-368.7235 918.2269,-369.3719 853.4881,-375.354 846.8912,-362.0141 819.9614,-302.6624 814.8394,-292.2245 802.8822,-271.031 783.0311,-267.8797 767.948,-266.5765 757.2303,-265.9094 752.1228,-265.4775 734.1699,-263.5587 731.1594,-262.9696 716.5832,-259.7885 707.8649,-257.6925 705.064,-256.8325 619.0004,-174.2911 626.7609,-149.9342 628.9963,-142.3754 646.0488,-74.1918 722.1071,-7.1459 761.8784,11.7283 780.3218,50.8321 854.1223,118.9966 857.9163,121.2978 912.4942,122.0274 936.1486,123.8238 938.0903,124.0923 949.9718,125.9842 953.0506,125.0698 965.28,121.9734 973.9623,119.9665 1053.4799,82.8828 1066.799,73.4442 1078.6639,71.6408 1091.5964,70.4503 1101.7521,69.9213 1114.4065,69.7679 1116.6682,69.7856 1120.6608,68.6725 1155.4904,59.7127 1213.2079,67.8219 1228.9099,70.7334 1230.5846,71.0812 1233.5325,71.7591 1239.9128,70.6952 1253.7454,69.2921 1258.9237,68.8799 1276.1906,68.2584 1299.8717,68.9541 1369.9841,46.5221 1405.9568,3.5581 1419.3148,-45.9186 1421.7733,-54.299 1431.0303,-83.5315 1431.054,-83.6012 1430.6423,-118.3955 1420.2195,-182.5179 1277.2672,-171.9889 1276.7175,-171.9626 1259.4027,-171.5764 1259.3723,-171.5773 1256.0901,-171.4199 1251.7577,-171.3235 1248.9811,-171.3329 1242.1151,-171.7095 1237.8384,-171.7241 1235.666,-171.6197 1225.5624,-171.3941 1224.1086,-171.399 1221.3434,-171.5506 1217.6796,-168.7608 1169.913,-134.3445 1119.0406,-136.4864 1114.182,-136.2564 1106.4108,-136.2305 1106.0813,-136.2147 1104.9449,-136.2598 1102.7891,-136.2493 1100.9233,-136.3222 1096.3934,-136.2963 1087.1721,-136.6506 1083.5934,-136.4675 1081.5817,-136.541 1078.0277,-136.5125 1077.1196,-136.4649 1077.0197,-136.4552 1072.2333,-136.4091 1062.8104,-136.7333 1062.1066,-136.7885 "/>
<polyline fill="none" stroke="#000000" points="1069.9381,-295.72 1080.0304,-305.3387 1086.1835,-311.5482 1094.2972,-320.6626 1099.3254,-313.7859 1104.9058,-307.2879 1105.5273,-306.5146 1118.6803,-291.0622 1136.0034,-273.2918 1176.7694,-222.3179 1191.3126,-206.075 1194.7915,-202.5199 1214.2509,-181.1069 1218.4635,-175.598 1219.5505,-174.0071 1221.3434,-171.5506 1217.6796,-168.7608 1169.913,-134.3445 1119.0406,-136.4864 1114.182,-136.2564 1106.4108,-136.2305 1106.0813,-136.2147 1104.9449,-136.2598 1102.7891,-136.2493 1100.9233,-136.3222 1096.3934,-136.2963 1087.1721,-136.6506 1083.5934,-136.4675 1081.5817,-136.541 1078.0277,-136.5125 1077.1196,-136.4649 1077.0197,-136.4552 1072.2333,-136.4091 1062.8104,-136.7333 1062.1066,-136.7885 1061.3196,-136.8148 1057.7544,-136.775 1054.683,-136.6035 1054.4244,-136.6117 1043.7917,-136.4761 1039.9202,-136.5964 1039.7831,-136.6066 1035.9496,-137.0616 1028.9103,-138.2086 1018.0068,-140.4671 942.3597,-159.4121 941.1369,-164.3924 940.7186,-166.6085 938.8439,-175.2116 942.1927,-179.6139 951.6025,-190.7873 954.5696,-193.9388 964.379,-203.7768 973.357,-212.2204 979.627,-217.3256 983.9683,-221.5441 1051.2253,-277.0184 1060.2863,-285.1408 1066.1622,-291.2355 1069.9381,-295.72 "/>
<!-- apr&#45;&gt;Fedora Container Base -->
<g id="edge1" class="edge">
<title>apr&#45;&gt;Fedora Container Base</title>
<path fill="none" stroke="#444444" stroke-opacity="0.333333" d="M683.6985,-529.7513C733.1517,-529.8642 812.1968,-530.0448 882.1866,-530.2046"/>
<polygon fill="#444444" fill-opacity="0.333333" stroke="#444444" stroke-opacity="0.333333" points="882.4346,-533.7051 892.4426,-530.2281 882.4507,-526.7051 882.4346,-533.7051"/>
</g>
<!-- device&#45;mapper&#45;libs&#45;&gt;Fedora Container Base -->
<g id="edge2" class="edge">
<title>device&#45;mapper&#45;libs&#45;&gt;Fedora Container Base</title>
<path fill="none" stroke="#444444" stroke-opacity="0.333333" d="M1432.2798,-407.4014C1345.2346,-433.98 1183.0588,-483.4993 1093.1595,-510.9493"/>
<polygon fill="#444444" fill-opacity="0.333333" stroke="#444444" stroke-opacity="0.333333" points="1091.9037,-507.6732 1083.3618,-513.941 1093.948,-514.3681 1091.9037,-507.6732"/>
</g>
<!-- device&#45;mapper&#45;libs&#45;&gt;device&#45;mapper -->
<g id="edge3" class="edge">
<title>device&#45;mapper&#45;libs&#45;&gt;device&#45;mapper</title>
<path fill="none" stroke="#444444" stroke-opacity="0.333333" d="M1455.6791,-407.486C1435.3463,-420.7185 1410.411,-438.6689 1392.2745,-453.178"/>
<polygon fill="#444444" fill-opacity="0.333333" stroke="#444444" stroke-opacity="0.333333" points="1389.9828,-450.5307 1384.4608,-459.5728 1394.4162,-455.9478 1389.9828,-450.5307"/>
</g>
<!-- device&#45;mapper&#45;&gt;Fedora Container Base -->
<g id="edge29" class="edge">
<title>device&#45;mapper&#45;&gt;Fedora Container Base</title>
<path fill="none" stroke="#444444" stroke-opacity="0.333333" d="M1284.9202,-490.6714C1237.3605,-498.0805 1177.3633,-507.4272 1127.4168,-515.2081"/>
<polygon fill="#444444" fill-opacity="0.333333" stroke="#444444" stroke-opacity="0.333333" points="1126.5863,-511.7952 1117.2443,-516.7929 1127.6639,-518.7118 1126.5863,-511.7952"/>
</g>
<!-- device&#45;mapper&#45;&gt;device&#45;mapper&#45;libs -->
<g id="edge30" class="edge">
<title>device&#45;mapper&#45;&gt;device&#45;mapper&#45;libs</title>
<path fill="none" stroke="#444444" stroke-opacity="0.333333" d="M1403.4209,-459.654C1423.7537,-446.4215 1448.689,-428.4711 1466.8255,-413.962"/>
<polygon fill="#444444" fill-opacity="0.333333" stroke="#444444" stroke-opacity="0.333333" points="1469.1172,-416.6093 1474.6392,-407.5672 1464.6838,-411.1922 1469.1172,-416.6093"/>
</g>
<!-- device&#45;mapper&#45;&gt;systemd -->
<g id="edge31" class="edge">
<title>device&#45;mapper&#45;&gt;systemd</title>
<path fill="none" stroke="#444444" stroke-opacity="0.333333" d="M1343.6707,-495.7615C1288.3663,-537.0209 1152.4041,-638.4545 1089.6772,-685.2514"/>
<polygon fill="#444444" fill-opacity="0.333333" stroke="#444444" stroke-opacity="0.333333" points="1087.2506,-682.695 1081.3282,-691.4801 1091.4364,-688.3057 1087.2506,-682.695"/>
</g>
<!-- device&#45;mapper&#45;&gt;util&#45;linux -->
<g id="edge32" class="edge">
<title>device&#45;mapper&#45;&gt;util&#45;linux</title>
<path fill="none" stroke="#444444" stroke-opacity="0.333333" d="M1284.856,-471.6847C1284.7512,-471.677 1284.6464,-471.6693 1284.5417,-471.6617"/>
<polygon fill="#444444" fill-opacity="0.333333" stroke="#444444" stroke-opacity="0.333333" points="1290.0715,-468.5575 1279.8425,-471.3175 1289.56,-475.5388 1290.0715,-468.5575"/>
</g>
<!-- libargon2&#45;&gt;Fedora Container Base -->
<g id="edge4" class="edge">
<title>libargon2&#45;&gt;Fedora Container Base</title>
<path fill="none" stroke="#444444" stroke-opacity="0.333333" d="M1497.7874,-599.9223C1407.3593,-586.5386 1238.596,-561.561 1130.1446,-545.5098"/>
<polygon fill="#444444" fill-opacity="0.333333" stroke="#444444" stroke-opacity="0.333333" points="1130.5727,-542.0351 1120.168,-544.0332 1129.5478,-548.9597 1130.5727,-542.0351"/>
</g>
<!-- dbus&#45;broker&#45;&gt;Fedora Container Base -->
<g id="edge5" class="edge">
<title>dbus&#45;broker&#45;&gt;Fedora Container Base</title>
<path fill="none" stroke="#444444" stroke-opacity="0.333333" d="M913.8771,-759.989C935.4653,-716.9621 989.7258,-608.8165 1015.2823,-557.8804"/>
<polygon fill="#444444" fill-opacity="0.333333" stroke="#444444" stroke-opacity="0.333333" points="1018.4932,-559.2854 1019.8495,-548.7777 1012.2365,-556.1462 1018.4932,-559.2854"/>
</g>
<!-- dbus&#45;broker&#45;&gt;dbus&#45;common -->
<g id="edge6" class="edge">
<title>dbus&#45;broker&#45;&gt;dbus&#45;common</title>
<path fill="none" stroke="#444444" stroke-opacity="0.333333" d="M872.3074,-796.2523C862.5937,-801.659 851.8096,-807.6616 841.6117,-813.3378"/>
<polygon fill="#444444" fill-opacity="0.333333" stroke="#444444" stroke-opacity="0.333333" points="839.8779,-810.2972 832.8425,-818.2189 843.2824,-816.4135 839.8779,-810.2972"/>
</g>
<!-- dbus&#45;broker&#45;&gt;shadow&#45;utils -->
<g id="edge7" class="edge">
<title>dbus&#45;broker&#45;&gt;shadow&#45;utils</title>
<path fill="none" stroke="#444444" stroke-opacity="0.333333" d="M908.0325,-760.1115C918.1258,-704.661 948.6863,-536.7678 960.8781,-469.7885"/>
<polygon fill="#444444" fill-opacity="0.333333" stroke="#444444" stroke-opacity="0.333333" points="964.3237,-470.4031 962.6712,-459.9379 957.4369,-469.1494 964.3237,-470.4031"/>
</g>
<!-- dbus&#45;broker&#45;&gt;systemd -->
<g id="edge8" class="edge">
<title>dbus&#45;broker&#45;&gt;systemd</title>
<path fill="none" stroke="#444444" stroke-opacity="0.333333" d="M944.7445,-760.184C964.0756,-751.4783 987.4521,-740.9507 1007.8575,-731.7613"/>
<polygon fill="#444444" fill-opacity="0.333333" stroke="#444444" stroke-opacity="0.333333" points="1009.3178,-734.9422 1016.9986,-727.6446 1006.4433,-728.5596 1009.3178,-734.9422"/>
</g>
<!-- dbus&#45;common&#45;&gt;Fedora Container Base -->
<g id="edge9" class="edge">
<title>dbus&#45;common&#45;&gt;Fedora Container Base</title>
<path fill="none" stroke="#444444" stroke-opacity="0.333333" d="M814.0436,-818.0514C852.7913,-766.225 963.8036,-617.7424 1009.2454,-556.9624"/>
<polygon fill="#444444" fill-opacity="0.333333" stroke="#444444" stroke-opacity="0.333333" points="1012.273,-558.7581 1015.4577,-548.6532 1006.6666,-554.5665 1012.273,-558.7581"/>
</g>
<!-- dbus&#45;common&#45;&gt;systemd -->
<g id="edge10" class="edge">
<title>dbus&#45;common&#45;&gt;systemd</title>
<path fill="none" stroke="#444444" stroke-opacity="0.333333" d="M836.9177,-818.2515C882.6679,-795.6715 961.1284,-756.9474 1010.9609,-732.3526"/>
<polygon fill="#444444" fill-opacity="0.333333" stroke="#444444" stroke-opacity="0.333333" points="1012.8045,-735.3458 1020.2227,-727.7814 1009.7064,-729.0687 1012.8045,-735.3458"/>
</g>
<!-- shadow&#45;utils&#45;&gt;Fedora Container Base -->
<g id="edge11" class="edge">
<title>shadow&#45;utils&#45;&gt;Fedora Container Base</title>
<path fill="none" stroke="#444444" stroke-opacity="0.333333" d="M979.0378,-460.1553C988.0543,-472.8574 1000.1832,-489.9441 1010.2326,-504.1012"/>
<polygon fill="#444444" fill-opacity="0.333333" stroke="#444444" stroke-opacity="0.333333" points="1007.5321,-506.3436 1016.1746,-512.4721 1013.2402,-502.2917 1007.5321,-506.3436"/>
</g>
<!-- shadow&#45;utils&#45;&gt;libsemanage -->
<g id="edge12" class="edge">
<title>shadow&#45;utils&#45;&gt;libsemanage</title>
<path fill="none" stroke="#444444" stroke-opacity="0.333333" d="M975.1601,-423.5174C996.0172,-382.0702 1047.068,-280.6221 1071.7258,-231.6222"/>
<polygon fill="#444444" fill-opacity="0.333333" stroke="#444444" stroke-opacity="0.333333" points="1074.9199,-233.0609 1076.2886,-222.5548 1068.667,-229.9142 1074.9199,-233.0609"/>
</g>
<!-- systemd&#45;&gt;Fedora Container Base -->
<g id="edge13" class="edge">
<title>systemd&#45;&gt;Fedora Container Base</title>
<path fill="none" stroke="#444444" stroke-opacity="0.333333" d="M1054.1611,-691.4723C1049.2767,-660.231 1039.2487,-596.0913 1033.4356,-558.9107"/>
<polygon fill="#444444" fill-opacity="0.333333" stroke="#444444" stroke-opacity="0.333333" points="1036.8492,-558.085 1031.8464,-548.7457 1029.9332,-559.1664 1036.8492,-558.085"/>
</g>
<!-- systemd&#45;&gt;shadow&#45;utils -->
<g id="edge14" class="edge">
<title>systemd&#45;&gt;shadow&#45;utils</title>
<path fill="none" stroke="#444444" stroke-opacity="0.333333" d="M1050.7438,-691.2182C1035.0849,-645.1344 994.1244,-524.5883 975.4747,-469.7027"/>
<polygon fill="#444444" fill-opacity="0.333333" stroke="#444444" stroke-opacity="0.333333" points="978.6908,-468.2887 972.1596,-459.9464 972.063,-470.5408 978.6908,-468.2887"/>
</g>
<!-- systemd&#45;&gt;util&#45;linux -->
<g id="edge15" class="edge">
<title>systemd&#45;&gt;util&#45;linux</title>
<path fill="none" stroke="#444444" stroke-opacity="0.333333" d="M1068.8982,-691.3625C1096.5835,-648.8569 1165.4245,-543.1645 1197.8642,-493.3594"/>
<polygon fill="#444444" fill-opacity="0.333333" stroke="#444444" stroke-opacity="0.333333" points="1200.9546,-495.0275 1203.4796,-484.7379 1195.0891,-491.2071 1200.9546,-495.0275"/>
</g>
<!-- systemd&#45;&gt;acl -->
<g id="edge16" class="edge">
<title>systemd&#45;&gt;acl</title>
<path fill="none" stroke="#444444" stroke-opacity="0.333333" d="M1056.2935,-727.6728C1054.6705,-769.1183 1050.6658,-871.3868 1048.7103,-921.3251"/>
<polygon fill="#444444" fill-opacity="0.333333" stroke="#444444" stroke-opacity="0.333333" points="1045.2088,-921.2985 1048.3147,-931.4279 1052.2034,-921.5725 1045.2088,-921.2985"/>
</g>
<!-- systemd&#45;&gt;cryptsetup&#45;libs -->
<g id="edge17" class="edge">
<title>systemd&#45;&gt;cryptsetup&#45;libs</title>
<path fill="none" stroke="#444444" stroke-opacity="0.333333" d="M1115.2563,-691.543C1178.0636,-672.043 1277.9333,-641.0362 1344.2661,-620.4417"/>
<polygon fill="#444444" fill-opacity="0.333333" stroke="#444444" stroke-opacity="0.333333" points="1345.6944,-623.6631 1354.2069,-617.3553 1343.6188,-616.9779 1345.6944,-623.6631"/>
</g>
<!-- systemd&#45;&gt;dbus -->
<g id="edge18" class="edge">
<title>systemd&#45;&gt;dbus</title>
<path fill="none" stroke="#444444" stroke-opacity="0.333333" d="M1050.0465,-727.7007C1025.4373,-791.6547 942.3642,-1007.544 912.7586,-1084.4826"/>
<polygon fill="#444444" fill-opacity="0.333333" stroke="#444444" stroke-opacity="0.333333" points="909.4291,-1083.3893 909.1043,-1093.9791 915.9622,-1085.9032 909.4291,-1083.3893"/>
</g>
<!-- systemd&#45;&gt;iptables&#45;libs -->
<g id="edge19" class="edge">
<title>systemd&#45;&gt;iptables&#45;libs</title>
<path fill="none" stroke="#444444" stroke-opacity="0.333333" d="M1052.4927,-691.5787C1036.207,-626.3555 980.3349,-402.5913 960.6121,-323.6027"/>
<polygon fill="#444444" fill-opacity="0.333333" stroke="#444444" stroke-opacity="0.333333" points="963.9994,-322.7206 958.181,-313.8664 957.2079,-324.4164 963.9994,-322.7206"/>
</g>
<!-- systemd&#45;&gt;kmod&#45;libs -->
<g id="edge20" class="edge">
<title>systemd&#45;&gt;kmod&#45;libs</title>
<path fill="none" stroke="#444444" stroke-opacity="0.333333" d="M1081.4849,-727.9497C1126.984,-761.9923 1224.5466,-834.9891 1275.3515,-873.0016"/>
<polygon fill="#444444" fill-opacity="0.333333" stroke="#444444" stroke-opacity="0.333333" points="1273.281,-875.8236 1283.3847,-879.012 1277.4746,-870.2188 1273.281,-875.8236"/>
</g>
<!-- systemd&#45;&gt;libfdisk -->
<g id="edge21" class="edge">
<title>systemd&#45;&gt;libfdisk</title>
<path fill="none" stroke="#444444" stroke-opacity="0.333333" d="M1105.9613,-691.5894C1135.44,-680.7274 1173.1448,-666.8345 1204.1629,-655.4053"/>
<polygon fill="#444444" fill-opacity="0.333333" stroke="#444444" stroke-opacity="0.333333" points="1205.3849,-658.6851 1213.5581,-651.9435 1202.9647,-652.1168 1205.3849,-658.6851"/>
</g>
<!-- systemd&#45;&gt;libseccomp -->
<g id="edge22" class="edge">
<title>systemd&#45;&gt;libseccomp</title>
<path fill="none" stroke="#444444" stroke-opacity="0.333333" d="M1065.0488,-727.7586C1085.1876,-773.1184 1137.8561,-891.746 1161.8606,-945.8126"/>
<polygon fill="#444444" fill-opacity="0.333333" stroke="#444444" stroke-opacity="0.333333" points="1158.7381,-947.4051 1165.9949,-955.1245 1165.1359,-944.5646 1158.7381,-947.4051"/>
</g>
<!-- systemd&#45;&gt;qrencode&#45;libs -->
<g id="edge23" class="edge">
<title>systemd&#45;&gt;qrencode&#45;libs</title>
<path fill="none" stroke="#444444" stroke-opacity="0.333333" d="M1045.1791,-727.7366C1019.7218,-766.7305 959.6161,-858.7969 929.8592,-904.3768"/>
<polygon fill="#444444" fill-opacity="0.333333" stroke="#444444" stroke-opacity="0.333333" points="926.8677,-902.5566 924.3317,-912.8435 932.7291,-906.3833 926.8677,-902.5566"/>
</g>
<!-- systemd&#45;&gt;systemd&#45;pam -->
<g id="edge24" class="edge">
<title>systemd&#45;&gt;systemd&#45;pam</title>
<path fill="none" stroke="#444444" stroke-opacity="0.333333" d="M1070.1479,-727.719C1090.6496,-749.7141 1130.6125,-786.6655 1160.0282,-811.2524"/>
<polygon fill="#444444" fill-opacity="0.333333" stroke="#444444" stroke-opacity="0.333333" points="1158.0767,-814.1794 1168.0204,-817.8365 1162.5277,-808.7767 1158.0767,-814.1794"/>
</g>
<!-- systemd&#45;&gt;systemd&#45;rpm&#45;macros -->
<g id="edge25" class="edge">
<title>systemd&#45;&gt;systemd&#45;rpm&#45;macros</title>
<path fill="none" stroke="#444444" stroke-opacity="0.333333" d="M1118.5958,-723.1984C1162.3826,-732.8438 1221.9422,-745.9636 1271.3264,-756.842"/>
<polygon fill="#444444" fill-opacity="0.333333" stroke="#444444" stroke-opacity="0.333333" points="1270.8609,-760.3233 1281.3798,-759.0566 1272.3669,-753.4872 1270.8609,-760.3233"/>
</g>
<!-- libsemanage&#45;&gt;Fedora Container Base -->
<g id="edge57" class="edge">
<title>libsemanage&#45;&gt;Fedora Container Base</title>
<path fill="none" stroke="#444444" stroke-opacity="0.333333" d="M1082.3818,-222.2575C1073.0465,-276.1698 1045.2664,-436.6009 1033.9152,-502.1546"/>
<polygon fill="#444444" fill-opacity="0.333333" stroke="#444444" stroke-opacity="0.333333" points="1030.4358,-501.7353 1032.1782,-512.1859 1037.3331,-502.9297 1030.4358,-501.7353"/>
</g>
<!-- util&#45;linux&#45;&gt;Fedora Container Base -->
<g id="edge26" class="edge">
<title>util&#45;linux&#45;&gt;Fedora Container Base</title>
<path fill="none" stroke="#444444" stroke-opacity="0.333333" d="M1162.4122,-484.7444C1139.1533,-492.7284 1111.7474,-502.1358 1087.8445,-510.3408"/>
<polygon fill="#444444" fill-opacity="0.333333" stroke="#444444" stroke-opacity="0.333333" points="1086.5061,-507.0997 1078.1842,-513.6569 1088.7789,-513.7205 1086.5061,-507.0997"/>
</g>
<!-- util&#45;linux&#45;&gt;libfdisk -->
<g id="edge27" class="edge">
<title>util&#45;linux&#45;&gt;libfdisk</title>
<path fill="none" stroke="#444444" stroke-opacity="0.333333" d="M1220.4411,-484.8147C1228.6692,-513.9828 1244.8562,-571.3643 1254.5733,-605.8105"/>
<polygon fill="#444444" fill-opacity="0.333333" stroke="#444444" stroke-opacity="0.333333" points="1251.2817,-607.0337 1257.3653,-615.7078 1258.0187,-605.1331 1251.2817,-607.0337"/>
</g>
<!-- util&#45;linux&#45;&gt;libutempter -->
<g id="edge28" class="edge">
<title>util&#45;linux&#45;&gt;libutempter</title>
<path fill="none" stroke="#444444" stroke-opacity="0.333333" d="M1216.9225,-448.2667C1219.7662,-416.1524 1225.6696,-349.4838 1229.0591,-311.2046"/>
<polygon fill="#444444" fill-opacity="0.333333" stroke="#444444" stroke-opacity="0.333333" points="1232.5883,-311.0289 1229.9841,-300.7592 1225.6156,-310.4115 1232.5883,-311.0289"/>
</g>
<!-- acl&#45;&gt;Fedora Container Base -->
<g id="edge58" class="edge">
<title>acl&#45;&gt;Fedora Container Base</title>
<path fill="none" stroke="#444444" stroke-opacity="0.333333" d="M1046.8008,-931.6701C1043.892,-866.1223 1033.8534,-639.909 1030.2775,-559.3269"/>
<polygon fill="#444444" fill-opacity="0.333333" stroke="#444444" stroke-opacity="0.333333" points="1033.7572,-558.7898 1029.8172,-548.9549 1026.7641,-559.1002 1033.7572,-558.7898"/>
</g>
<!-- cryptsetup&#45;libs&#45;&gt;Fedora Container Base -->
<g id="edge59" class="edge">
<title>cryptsetup&#45;libs&#45;&gt;Fedora Container Base</title>
<path fill="none" stroke="#444444" stroke-opacity="0.333333" d="M1335.1147,-585.508C1272.9573,-574.3466 1185.4024,-558.6247 1119.8435,-546.8525"/>
<polygon fill="#444444" fill-opacity="0.333333" stroke="#444444" stroke-opacity="0.333333" points="1120.3887,-543.3945 1109.9275,-545.0719 1119.1514,-550.2843 1120.3887,-543.3945"/>
</g>
<!-- cryptsetup&#45;libs&#45;&gt;device&#45;mapper&#45;libs -->
<g id="edge60" class="edge">
<title>cryptsetup&#45;libs&#45;&gt;device&#45;mapper&#45;libs</title>
<path fill="none" stroke="#444444" stroke-opacity="0.333333" d="M1419.0812,-581.0838C1432.9947,-544.1508 1464.5386,-460.4178 1480.9475,-416.8606"/>
<polygon fill="#444444" fill-opacity="0.333333" stroke="#444444" stroke-opacity="0.333333" points="1484.2409,-418.0463 1484.491,-407.4544 1477.6903,-415.5785 1484.2409,-418.0463"/>
</g>
<!-- cryptsetup&#45;libs&#45;&gt;libargon2 -->
<g id="edge61" class="edge">
<title>cryptsetup&#45;libs&#45;&gt;libargon2</title>
<path fill="none" stroke="#444444" stroke-opacity="0.333333" d="M1489.5629,-604.4691C1489.6502,-604.4749 1489.7375,-604.4807 1489.8248,-604.4865"/>
<polygon fill="#444444" fill-opacity="0.333333" stroke="#444444" stroke-opacity="0.333333" points="1487.6991,-607.8534 1497.9084,-605.0214 1488.1614,-600.8686 1487.6991,-607.8534"/>
</g>
<!-- dbus&#45;&gt;dbus&#45;broker -->
<g id="edge62" class="edge">
<title>dbus&#45;&gt;dbus&#45;broker</title>
<path fill="none" stroke="#444444" stroke-opacity="0.333333" d="M902.3118,-1093.578C902.7375,-1038.2954 904.006,-873.5301 904.52,-806.768"/>
<polygon fill="#444444" fill-opacity="0.333333" stroke="#444444" stroke-opacity="0.333333" points="908.0214,-806.5918 904.5986,-796.5651 901.0216,-806.5378 908.0214,-806.5918"/>
</g>
<!-- iptables&#45;libs&#45;&gt;Fedora Container Base -->
<g id="edge63" class="edge">
<title>iptables&#45;libs&#45;&gt;Fedora Container Base</title>
<path fill="none" stroke="#444444" stroke-opacity="0.333333" d="M959.4375,-313.756C972.5318,-354.563 1004.5031,-454.1981 1020.121,-502.8696"/>
<polygon fill="#444444" fill-opacity="0.333333" stroke="#444444" stroke-opacity="0.333333" points="1016.8047,-503.9901 1023.1928,-512.4425 1023.47,-501.8513 1016.8047,-503.9901"/>
</g>
<!-- iptables&#45;libs&#45;&gt;libnetfilter_conntrack -->
<g id="edge64" class="edge">
<title>iptables&#45;libs&#45;&gt;libnetfilter_conntrack</title>
<path fill="none" stroke="#444444" stroke-opacity="0.333333" d="M962.8385,-277.5226C982.9221,-237.748 1030.825,-142.8786 1054.53,-95.9319"/>
<polygon fill="#444444" fill-opacity="0.333333" stroke="#444444" stroke-opacity="0.333333" points="1057.6847,-97.4492 1059.0678,-86.945 1051.4361,-94.294 1057.6847,-97.4492"/>
</g>
<!-- iptables&#45;libs&#45;&gt;libpcap -->
<g id="edge65" class="edge">
<title>iptables&#45;libs&#45;&gt;libpcap</title>
<path fill="none" stroke="#444444" stroke-opacity="0.333333" d="M935.1078,-277.5276C907.8704,-250.804 856.9293,-200.824 825.9558,-170.4348"/>
<polygon fill="#444444" fill-opacity="0.333333" stroke="#444444" stroke-opacity="0.333333" points="828.1273,-167.662 818.538,-163.1569 823.2249,-172.6587 828.1273,-167.662"/>
</g>
<!-- kmod&#45;libs&#45;&gt;Fedora Container Base -->
<g id="edge66" class="edge">
<title>kmod&#45;libs&#45;&gt;Fedora Container Base</title>
<path fill="none" stroke="#444444" stroke-opacity="0.333333" d="M1293.7842,-878.9507C1248.205,-818.9763 1102.4718,-627.2164 1048.9555,-556.798"/>
<polygon fill="#444444" fill-opacity="0.333333" stroke="#444444" stroke-opacity="0.333333" points="1051.7366,-554.6729 1042.8992,-548.829 1046.1634,-558.9085 1051.7366,-554.6729"/>
</g>
<!-- libfdisk&#45;&gt;Fedora Container Base -->
<g id="edge67" class="edge">
<title>libfdisk&#45;&gt;Fedora Container Base</title>
<path fill="none" stroke="#444444" stroke-opacity="0.333333" d="M1221.8274,-615.9043C1181.619,-598.1041 1120.0874,-570.8642 1077.3889,-551.9617"/>
<polygon fill="#444444" fill-opacity="0.333333" stroke="#444444" stroke-opacity="0.333333" points="1078.6024,-548.6713 1068.0416,-547.8236 1075.7688,-555.0721 1078.6024,-548.6713"/>
</g>
<!-- libseccomp&#45;&gt;Fedora Container Base -->
<g id="edge68" class="edge">
<title>libseccomp&#45;&gt;Fedora Container Base</title>
<path fill="none" stroke="#444444" stroke-opacity="0.333333" d="M1168.1414,-955.1946C1145.5883,-886.3632 1065.36,-641.5095 1038.1235,-558.3845"/>
<polygon fill="#444444" fill-opacity="0.333333" stroke="#444444" stroke-opacity="0.333333" points="1041.368,-557.0458 1034.9282,-548.6327 1034.716,-559.2254 1041.368,-557.0458"/>
</g>
<!-- qrencode&#45;libs&#45;&gt;Fedora Container Base -->
<g id="edge69" class="edge">
<title>qrencode&#45;libs&#45;&gt;Fedora Container Base</title>
<path fill="none" stroke="#444444" stroke-opacity="0.333333" d="M917.8562,-912.6475C936.3842,-848.949 998.2926,-636.1105 1020.7624,-558.8605"/>
<polygon fill="#444444" fill-opacity="0.333333" stroke="#444444" stroke-opacity="0.333333" points="1024.2303,-559.4693 1023.6626,-548.8897 1017.5089,-557.5142 1024.2303,-559.4693"/>
</g>
<!-- systemd&#45;pam&#45;&gt;Fedora Container Base -->
<g id="edge70" class="edge">
<title>systemd&#45;pam&#45;&gt;Fedora Container Base</title>
<path fill="none" stroke="#444444" stroke-opacity="0.333333" d="M1185.8654,-817.8069C1157.705,-766.2368 1077.2405,-618.8826 1043.8261,-557.691"/>
<polygon fill="#444444" fill-opacity="0.333333" stroke="#444444" stroke-opacity="0.333333" points="1046.7471,-555.7371 1038.8825,-548.6378 1040.6033,-559.092 1046.7471,-555.7371"/>
</g>
<!-- systemd&#45;pam&#45;&gt;systemd -->
<g id="edge71" class="edge">
<title>systemd&#45;pam&#45;&gt;systemd</title>
<path fill="none" stroke="#444444" stroke-opacity="0.333333" d="M1182.6521,-817.911C1162.1504,-795.9159 1122.1875,-758.9645 1092.7718,-734.3776"/>
<polygon fill="#444444" fill-opacity="0.333333" stroke="#444444" stroke-opacity="0.333333" points="1094.7233,-731.4506 1084.7796,-727.7935 1090.2723,-736.8533 1094.7233,-731.4506"/>
</g>
<!-- systemd&#45;rpm&#45;macros&#45;&gt;Fedora Container Base -->
<g id="edge72" class="edge">
<title>systemd&#45;rpm&#45;macros&#45;&gt;Fedora Container Base</title>
<path fill="none" stroke="#444444" stroke-opacity="0.333333" d="M1338.6255,-758.9513C1279.212,-715.1219 1127.7865,-603.415 1061.2212,-554.3097"/>
<polygon fill="#444444" fill-opacity="0.333333" stroke="#444444" stroke-opacity="0.333333" points="1063.2849,-551.4827 1053.1598,-548.3627 1059.1293,-557.1158 1063.2849,-551.4827"/>
</g>
<!-- libutempter&#45;&gt;Fedora Container Base -->
<g id="edge73" class="edge">
<title>libutempter&#45;&gt;Fedora Container Base</title>
<path fill="none" stroke="#444444" stroke-opacity="0.333333" d="M1216.7023,-300.7482C1181.1246,-344.3037 1091.1219,-454.4882 1050.0355,-504.7876"/>
<polygon fill="#444444" fill-opacity="0.333333" stroke="#444444" stroke-opacity="0.333333" points="1047.2618,-502.6507 1043.6463,-512.6095 1052.6831,-507.079 1047.2618,-502.6507"/>
</g>
<!-- libutempter&#45;&gt;shadow&#45;utils -->
<g id="edge74" class="edge">
<title>libutempter&#45;&gt;shadow&#45;utils</title>
<path fill="none" stroke="#444444" stroke-opacity="0.333333" d="M1201.3886,-300.623C1153.0583,-329.5989 1058.38,-386.3625 1004.9965,-418.368"/>
<polygon fill="#444444" fill-opacity="0.333333" stroke="#444444" stroke-opacity="0.333333" points="1002.9401,-415.52 996.1632,-423.664 1006.5396,-421.5237 1002.9401,-415.52"/>
</g>
<!-- apr&#45;util&#45;&gt;Fedora Container Base -->
<g id="edge33" class="edge">
<title>apr&#45;util&#45;&gt;Fedora Container Base</title>
<path fill="none" stroke="#444444" stroke-opacity="0.333333" d="M707.5202,-637.9081C776.9057,-614.7347 896.7178,-574.7197 968.8425,-550.6315"/>
<polygon fill="#444444" fill-opacity="0.333333" stroke="#444444" stroke-opacity="0.333333" points="970.3167,-553.8292 978.6929,-547.3416 968.0992,-547.1897 970.3167,-553.8292"/>
</g>
<!-- apr&#45;util&#45;&gt;apr -->
<g id="edge34" class="edge">
<title>apr&#45;util&#45;&gt;apr</title>
<path fill="none" stroke="#444444" stroke-opacity="0.333333" d="M650.6681,-637.9128C647.6377,-616.985 642.614,-582.2911 639.0713,-557.8253"/>
<polygon fill="#444444" fill-opacity="0.333333" stroke="#444444" stroke-opacity="0.333333" points="642.5041,-557.1088 637.6071,-547.7136 635.5764,-558.112 642.5041,-557.1088"/>
</g>
<!-- httpd&#45;filesystem&#45;&gt;Fedora Container Base -->
<g id="edge35" class="edge">
<title>httpd&#45;filesystem&#45;&gt;Fedora Container Base</title>
<path fill="none" stroke="#444444" stroke-opacity="0.333333" d="M755.8076,-405.7559C813.3527,-432.0403 919.9016,-480.7079 981.5552,-508.869"/>
<polygon fill="#444444" fill-opacity="0.333333" stroke="#444444" stroke-opacity="0.333333" points="980.1323,-512.0668 990.6825,-513.038 983.0406,-505.6996 980.1323,-512.0668"/>
</g>
<!-- httpd&#45;filesystem&#45;&gt;shadow&#45;utils -->
<g id="edge36" class="edge">
<title>httpd&#45;filesystem&#45;&gt;shadow&#45;utils</title>
<path fill="none" stroke="#444444" stroke-opacity="0.333333" d="M799.3665,-405.6745C827.0479,-411.6698 857.8184,-418.3341 885.3071,-424.2877"/>
<polygon fill="#444444" fill-opacity="0.333333" stroke="#444444" stroke-opacity="0.333333" points="884.7599,-427.7503 895.2742,-426.4464 886.2417,-420.9089 884.7599,-427.7503"/>
</g>
<!-- httpd&#45;tools&#45;&gt;Fedora Container Base -->
<g id="edge37" class="edge">
<title>httpd&#45;tools&#45;&gt;Fedora Container Base</title>
<path fill="none" stroke="#444444" stroke-opacity="0.333333" d="M614.9518,-698.681C700.1539,-664.0813 886.2522,-588.5085 977.0691,-551.6286"/>
<polygon fill="#444444" fill-opacity="0.333333" stroke="#444444" stroke-opacity="0.333333" points="978.6592,-554.7606 986.6075,-547.7552 976.0254,-548.2749 978.6592,-554.7606"/>
</g>
<!-- httpd&#45;tools&#45;&gt;apr -->
<g id="edge38" class="edge">
<title>httpd&#45;tools&#45;&gt;apr</title>
<path fill="none" stroke="#444444" stroke-opacity="0.333333" d="M576.8732,-698.4233C588.2058,-665.511 612.1051,-596.1026 625.4561,-557.3284"/>
<polygon fill="#444444" fill-opacity="0.333333" stroke="#444444" stroke-opacity="0.333333" points="628.8197,-558.3102 628.7661,-547.7155 622.201,-556.0312 628.8197,-558.3102"/>
</g>
<!-- httpd&#45;tools&#45;&gt;apr&#45;util -->
<g id="edge39" class="edge">
<title>httpd&#45;tools&#45;&gt;apr&#45;util</title>
<path fill="none" stroke="#444444" stroke-opacity="0.333333" d="M595.3957,-698.494C603.247,-692.7339 612.0505,-686.2753 620.3771,-680.1665"/>
<polygon fill="#444444" fill-opacity="0.333333" stroke="#444444" stroke-opacity="0.333333" points="622.4993,-682.9505 628.4918,-674.2132 618.3586,-677.3065 622.4993,-682.9505"/>
</g>
<!-- mod_http2&#45;&gt;Fedora Container Base -->
<g id="edge40" class="edge">
<title>mod_http2&#45;&gt;Fedora Container Base</title>
<path fill="none" stroke="#444444" stroke-opacity="0.333333" d="M612.5314,-353.2179C697.4847,-389.3889 888.3387,-470.6499 979.153,-509.3164"/>
<polygon fill="#444444" fill-opacity="0.333333" stroke="#444444" stroke-opacity="0.333333" points="977.8376,-512.5603 988.4095,-513.2576 980.5799,-506.1198 977.8376,-512.5603"/>
</g>
<!-- mod_http2&#45;&gt;httpd -->
<g id="edge41" class="edge">
<title>mod_http2&#45;&gt;httpd</title>
<path fill="none" stroke="#444444" stroke-opacity="0.333333" d="M560.9665,-353.381C545.6636,-394.2325 517.3401,-493.4239 506.7939,-542.3274"/>
<polygon fill="#444444" fill-opacity="0.333333" stroke="#444444" stroke-opacity="0.333333" points="503.3419,-541.7393 504.7717,-552.2372 510.2005,-543.1389 503.3419,-541.7393"/>
</g>
<!-- httpd&#45;&gt;Fedora Container Base -->
<g id="edge48" class="edge">
<title>httpd&#45;&gt;Fedora Container Base</title>
<path fill="none" stroke="#444444" stroke-opacity="0.333333" d="M578.4864,-564.8131C662.2487,-558.4408 799.2919,-548.0152 900.2697,-540.3332"/>
<polygon fill="#444444" fill-opacity="0.333333" stroke="#444444" stroke-opacity="0.333333" points="900.8366,-543.8003 910.5423,-539.5517 900.3055,-536.8205 900.8366,-543.8003"/>
</g>
<!-- httpd&#45;&gt;apr -->
<g id="edge49" class="edge">
<title>httpd&#45;&gt;apr</title>
<path fill="none" stroke="#444444" stroke-opacity="0.333333" d="M561.5394,-552.4704C566.5714,-550.9064 571.6643,-549.3234 576.698,-547.7587"/>
<polygon fill="#444444" fill-opacity="0.333333" stroke="#444444" stroke-opacity="0.333333" points="577.7633,-551.0929 586.2738,-544.7823 575.6855,-544.4083 577.7633,-551.0929"/>
</g>
<!-- httpd&#45;&gt;systemd -->
<g id="edge50" class="edge">
<title>httpd&#45;&gt;systemd</title>
<path fill="none" stroke="#444444" stroke-opacity="0.333333" d="M575.2669,-588.5636C681.3933,-615.2347 878.9964,-664.8952 985.1521,-691.5736"/>
<polygon fill="#444444" fill-opacity="0.333333" stroke="#444444" stroke-opacity="0.333333" points="984.5821,-695.0391 995.1336,-694.0821 986.2883,-688.2502 984.5821,-695.0391"/>
</g>
<!-- httpd&#45;&gt;apr&#45;util -->
<g id="edge51" class="edge">
<title>httpd&#45;&gt;apr&#45;util</title>
<path fill="none" stroke="#444444" stroke-opacity="0.333333" d="M535.243,-588.6524C557.7878,-601.5183 588.2401,-618.897 612.568,-632.7806"/>
<polygon fill="#444444" fill-opacity="0.333333" stroke="#444444" stroke-opacity="0.333333" points="611.1428,-635.997 621.5628,-637.9138 614.6124,-629.9174 611.1428,-635.997"/>
</g>
<!-- httpd&#45;&gt;fedora&#45;logos&#45;httpd -->
<g id="edge52" class="edge">
<title>httpd&#45;&gt;fedora&#45;logos&#45;httpd</title>
<path fill="none" stroke="#444444" stroke-opacity="0.333333" d="M431.1027,-552.5094C357.0459,-534.0783 242.1485,-505.4829 164.7039,-486.2087"/>
<polygon fill="#444444" fill-opacity="0.333333" stroke="#444444" stroke-opacity="0.333333" points="165.528,-482.8071 154.9787,-483.7883 163.8373,-489.5999 165.528,-482.8071"/>
</g>
<!-- httpd&#45;&gt;httpd&#45;filesystem -->
<g id="edge53" class="edge">
<title>httpd&#45;&gt;httpd&#45;filesystem</title>
<path fill="none" stroke="#444444" stroke-opacity="0.333333" d="M524.6441,-552.3182C563.0291,-519.3213 644.1335,-449.6017 687.4683,-412.3499"/>
<polygon fill="#444444" fill-opacity="0.333333" stroke="#444444" stroke-opacity="0.333333" points="689.7998,-414.9612 695.1015,-405.7882 685.2367,-409.6529 689.7998,-414.9612"/>
</g>
<!-- httpd&#45;&gt;httpd&#45;tools -->
<g id="edge54" class="edge">
<title>httpd&#45;&gt;httpd&#45;tools</title>
<path fill="none" stroke="#444444" stroke-opacity="0.333333" d="M511.8338,-588.7382C523.3878,-613.9052 544.3322,-659.5267 557.8395,-688.9484"/>
<polygon fill="#444444" fill-opacity="0.333333" stroke="#444444" stroke-opacity="0.333333" points="554.7576,-690.6244 562.1108,-698.2522 561.1193,-687.7038 554.7576,-690.6244"/>
</g>
<!-- httpd&#45;&gt;mailcap -->
<g id="edge55" class="edge">
<title>httpd&#45;&gt;mailcap</title>
<path fill="none" stroke="#444444" stroke-opacity="0.333333" d="M441.4441,-588.575C365.1352,-610.7877 236.0259,-648.3699 157.1021,-671.3437"/>
<polygon fill="#444444" fill-opacity="0.333333" stroke="#444444" stroke-opacity="0.333333" points="155.8822,-668.0535 147.2589,-674.2089 157.8386,-674.7745 155.8822,-668.0535"/>
</g>
<!-- httpd&#45;&gt;mod_http2 -->
<g id="edge56" class="edge">
<title>httpd&#45;&gt;mod_http2</title>
<path fill="none" stroke="#444444" stroke-opacity="0.333333" d="M512.6935,-552.329C527.9964,-511.4775 556.3199,-412.2861 566.8661,-363.3826"/>
<polygon fill="#444444" fill-opacity="0.333333" stroke="#444444" stroke-opacity="0.333333" points="570.3181,-363.9707 568.8883,-353.4728 563.4595,-362.5711 570.3181,-363.9707"/>
</g>
<!-- libnetfilter_conntrack&#45;&gt;Fedora Container Base -->
<g id="edge42" class="edge">
<title>libnetfilter_conntrack&#45;&gt;Fedora Container Base</title>
<path fill="none" stroke="#444444" stroke-opacity="0.333333" d="M1066.7594,-86.7672C1060.7373,-157.5432 1038.7596,-415.8384 1031.4114,-502.1995"/>
<polygon fill="#444444" fill-opacity="0.333333" stroke="#444444" stroke-opacity="0.333333" points="1027.9117,-502.048 1030.5512,-512.3088 1034.8865,-502.6416 1027.9117,-502.048"/>
</g>
<!-- libnetfilter_conntrack&#45;&gt;libmnl -->
<g id="edge43" class="edge">
<title>libnetfilter_conntrack&#45;&gt;libmnl</title>
<path fill="none" stroke="#444444" stroke-opacity="0.333333" d="M1021.1164,-50.6572C1011.8368,-47.1164 1002.0095,-43.3666 992.4496,-39.7188"/>
<polygon fill="#444444" fill-opacity="0.333333" stroke="#444444" stroke-opacity="0.333333" points="993.5997,-36.4115 983.009,-36.1165 991.1042,-42.9516 993.5997,-36.4115"/>
</g>
<!-- libnetfilter_conntrack&#45;&gt;libnfnetlink -->
<g id="edge44" class="edge">
<title>libnetfilter_conntrack&#45;&gt;libnfnetlink</title>
<path fill="none" stroke="#444444" stroke-opacity="0.333333" d="M1170.9847,-64.1649C1171.1396,-64.1581 1171.2943,-64.1513 1171.449,-64.1445"/>
<polygon fill="#444444" fill-opacity="0.333333" stroke="#444444" stroke-opacity="0.333333" points="1168.5283,-67.7759 1178.3655,-63.8417 1168.222,-60.7826 1168.5283,-67.7759"/>
</g>
<!-- libmnl&#45;&gt;Fedora Container Base -->
<g id="edge46" class="edge">
<title>libmnl&#45;&gt;Fedora Container Base</title>
<path fill="none" stroke="#444444" stroke-opacity="0.333333" d="M938.8566,-36.2416C952.8398,-112.9179 1006.9112,-409.4169 1023.8773,-502.4496"/>
<polygon fill="#444444" fill-opacity="0.333333" stroke="#444444" stroke-opacity="0.333333" points="1020.4758,-503.3072 1025.7132,-512.517 1027.3623,-502.0513 1020.4758,-503.3072"/>
</g>
<!-- libnfnetlink&#45;&gt;Fedora Container Base -->
<g id="edge47" class="edge">
<title>libnfnetlink&#45;&gt;Fedora Container Base</title>
<path fill="none" stroke="#444444" stroke-opacity="0.333333" d="M1238.2032,-78.9785C1204.849,-150.9729 1081.5983,-417.0074 1041.6138,-503.3132"/>
<polygon fill="#444444" fill-opacity="0.333333" stroke="#444444" stroke-opacity="0.333333" points="1038.3998,-501.9247 1037.3718,-512.4696 1044.7513,-504.8673 1038.3998,-501.9247"/>
</g>
<!-- libpcap&#45;&gt;Fedora Container Base -->
<g id="edge45" class="edge">
<title>libpcap&#45;&gt;Fedora Container Base</title>
<path fill="none" stroke="#444444" stroke-opacity="0.333333" d="M810.6713,-162.983C847.5702,-225.1025 969.2762,-429.9948 1013.0992,-503.7709"/>
<polygon fill="#444444" fill-opacity="0.333333" stroke="#444444" stroke-opacity="0.333333" points="1010.1658,-505.686 1018.282,-512.4962 1016.1841,-502.1111 1010.1658,-505.686"/>
</g>
<!-- Fedora Container Base -->
<g id="node1" class="node">
<title>Fedora Container Base</title>
<ellipse fill="none" stroke="#000000" cx="1029" cy="-530.54" rx="136.5" ry="18"/>
<text text-anchor="middle" x="1029" y="-526.84" font-family="Helvetica,sans-Serif" font-weight="bold" font-size="14.00" fill="#000000">Fedora Container Base (201.6 MB)</text>
</g>
<!-- apr -->
<g id="node2" class="node">
<title>apr</title>
<text text-anchor="middle" x="634.99" y="-525.94" font-family="Helvetica,sans-Serif" font-weight="bold" font-size="14.00" fill="#000000">apr (277.9 kB)</text>
</g>
<!-- device&#45;mapper&#45;libs -->
<g id="node3" class="node">
<title>device&#45;mapper&#45;libs</title>
<text text-anchor="middle" x="1491.3" y="-385.68" font-family="Helvetica,sans-Serif" font-weight="bold" font-size="14.00" fill="#000000">device&#45;mapper&#45;libs (418.0 kB)</text>
</g>
<!-- device&#45;mapper -->
<g id="node4" class="node">
<title>device&#45;mapper</title>
<text text-anchor="middle" x="1367.8" y="-474.06" font-family="Helvetica,sans-Serif" font-weight="bold" font-size="14.00" fill="#000000">device&#45;mapper (349.9 kB)</text>
</g>
<!-- libargon2 -->
<g id="node5" class="node">
<title>libargon2</title>
<text text-anchor="middle" x="1560" y="-605.43" font-family="Helvetica,sans-Serif" font-weight="bold" font-size="14.00" fill="#000000">libargon2 (54.2 kB)</text>
</g>
<!-- dbus&#45;broker -->
<g id="node6" class="node">
<title>dbus&#45;broker</title>
<text text-anchor="middle" x="904.74" y="-774.5" font-family="Helvetica,sans-Serif" font-weight="bold" font-size="14.00" fill="#000000">dbus&#45;broker (409.6 kB)</text>
</g>
<!-- dbus&#45;common -->
<g id="node7" class="node">
<title>dbus&#45;common</title>
<text text-anchor="middle" x="800.43" y="-832.56" font-family="Helvetica,sans-Serif" font-weight="bold" font-size="14.00" fill="#000000">dbus&#45;common (11.2 kB)</text>
</g>
<!-- shadow&#45;utils -->
<g id="node8" class="node">
<title>shadow&#45;utils</title>
<text text-anchor="middle" x="965.98" y="-438.06" font-family="Helvetica,sans-Serif" font-weight="bold" font-size="14.00" fill="#000000">shadow&#45;utils (4.0 MB)</text>
</g>
<!-- systemd -->
<g id="node9" class="node">
<title>systemd</title>
<text text-anchor="middle" x="1057" y="-705.93" font-family="Helvetica,sans-Serif" font-weight="bold" font-size="14.00" fill="#000000">systemd (13.1 MB)</text>
</g>
<!-- libsemanage -->
<g id="node10" class="node">
<title>libsemanage</title>
<text text-anchor="middle" x="1085.5" y="-200.55" font-family="Helvetica,sans-Serif" font-weight="bold" font-size="14.00" fill="#000000">libsemanage (304.5 kB)</text>
</g>
<!-- util&#45;linux -->
<g id="node11" class="node">
<title>util&#45;linux</title>
<text text-anchor="middle" x="1215.3" y="-462.89" font-family="Helvetica,sans-Serif" font-weight="bold" font-size="14.00" fill="#000000">util&#45;linux (13.5 MB)</text>
</g>
<!-- acl -->
<g id="node12" class="node">
<title>acl</title>
<text text-anchor="middle" x="1047.6" y="-945.98" font-family="Helvetica,sans-Serif" font-weight="bold" font-size="14.00" fill="#000000">acl (209.6 kB)</text>
</g>
<!-- cryptsetup&#45;libs -->
<g id="node13" class="node">
<title>cryptsetup&#45;libs</title>
<text text-anchor="middle" x="1412.2" y="-595.65" font-family="Helvetica,sans-Serif" font-weight="bold" font-size="14.00" fill="#000000">cryptsetup&#45;libs (1.8 MB)</text>
</g>
<!-- dbus -->
<g id="node14" class="node">
<title>dbus</title>
<text text-anchor="middle" x="902.17" y="-1108.3" font-family="Helvetica,sans-Serif" font-weight="bold" font-size="14.00" fill="#000000">dbus (0.0 B)</text>
</g>
<!-- iptables&#45;libs -->
<g id="node15" class="node">
<title>iptables&#45;libs</title>
<text text-anchor="middle" x="953.65" y="-292.02" font-family="Helvetica,sans-Serif" font-weight="bold" font-size="14.00" fill="#000000">iptables&#45;libs (1.9 MB)</text>
</g>
<!-- kmod&#45;libs -->
<g id="node16" class="node">
<title>kmod&#45;libs</title>
<text text-anchor="middle" x="1307.6" y="-893.43" font-family="Helvetica,sans-Serif" font-weight="bold" font-size="14.00" fill="#000000">kmod&#45;libs (135.6 kB)</text>
</g>
<!-- libfdisk -->
<g id="node17" class="node">
<title>libfdisk</title>
<text text-anchor="middle" x="1262.5" y="-630.21" font-family="Helvetica,sans-Serif" font-weight="bold" font-size="14.00" fill="#000000">libfdisk (472.7 kB)</text>
</g>
<!-- libseccomp -->
<g id="node18" class="node">
<title>libseccomp</title>
<text text-anchor="middle" x="1174.1" y="-969.68" font-family="Helvetica,sans-Serif" font-weight="bold" font-size="14.00" fill="#000000">libseccomp (351.1 kB)</text>
</g>
<!-- qrencode&#45;libs -->
<g id="node19" class="node">
<title>qrencode&#45;libs</title>
<text text-anchor="middle" x="912.55" y="-927.19" font-family="Helvetica,sans-Serif" font-weight="bold" font-size="14.00" fill="#000000">qrencode&#45;libs (158.2 kB)</text>
</g>
<!-- systemd&#45;pam -->
<g id="node20" class="node">
<title>systemd&#45;pam</title>
<text text-anchor="middle" x="1195.8" y="-832.3" font-family="Helvetica,sans-Serif" font-weight="bold" font-size="14.00" fill="#000000">systemd&#45;pam (867.7 kB)</text>
</g>
<!-- systemd&#45;rpm&#45;macros -->
<g id="node21" class="node">
<title>systemd&#45;rpm&#45;macros</title>
<text text-anchor="middle" x="1363.2" y="-773.38" font-family="Helvetica,sans-Serif" font-weight="bold" font-size="14.00" fill="#000000">systemd&#45;rpm&#45;macros (7.9 kB)</text>
</g>
<!-- libutempter -->
<g id="node22" class="node">
<title>libutempter</title>
<text text-anchor="middle" x="1231.6" y="-278.81" font-family="Helvetica,sans-Serif" font-weight="bold" font-size="14.00" fill="#000000">libutempter (57.8 kB)</text>
</g>
<!-- apr&#45;util -->
<g id="node23" class="node">
<title>apr&#45;util</title>
<text text-anchor="middle" x="653.29" y="-652.32" font-family="Helvetica,sans-Serif" font-weight="bold" font-size="14.00" fill="#000000">apr&#45;util (216.3 kB)</text>
</g>
<!-- fedora&#45;logos&#45;httpd -->
<g id="node24" class="node">
<title>fedora&#45;logos&#45;httpd</title>
<text text-anchor="middle" x="82.5" y="-462.05" font-family="Helvetica,sans-Serif" font-weight="bold" font-size="14.00" fill="#000000">fedora&#45;logos&#45;httpd (9.9 kB)</text>
</g>
<!-- httpd&#45;filesystem -->
<g id="node25" class="node">
<title>httpd&#45;filesystem</title>
<text text-anchor="middle" x="716.19" y="-383.96" font-family="Helvetica,sans-Serif" font-weight="bold" font-size="14.00" fill="#000000">httpd&#45;filesystem (400.0 B)</text>
</g>
<!-- httpd&#45;tools -->
<g id="node26" class="node">
<title>httpd&#45;tools</title>
<text text-anchor="middle" x="570.58" y="-713" font-family="Helvetica,sans-Serif" font-weight="bold" font-size="14.00" fill="#000000">httpd&#45;tools (204.4 kB)</text>
</g>
<!-- mailcap -->
<g id="node27" class="node">
<title>mailcap</title>
<text text-anchor="middle" x="89.163" y="-687.42" font-family="Helvetica,sans-Serif" font-weight="bold" font-size="14.00" fill="#000000">mailcap (71.2 kB)</text>
</g>
<!-- mod_http2 -->
<g id="node28" class="node">
<title>mod_http2</title>
<text text-anchor="middle" x="570.19" y="-331.49" font-family="Helvetica,sans-Serif" font-weight="bold" font-size="14.00" fill="#000000">mod_http2 (401.1 kB)</text>
</g>
<!-- httpd -->
<g id="node29" class="node">
<title>httpd</title>
<text text-anchor="middle" x="503.47" y="-564.92" font-family="Helvetica,sans-Serif" font-weight="bold" font-size="22.00" fill="#cc0066">httpd (4.7 MB)</text>
</g>
<!-- libnetfilter_conntrack -->
<g id="node30" class="node">
<title>libnetfilter_conntrack</title>
<text text-anchor="middle" x="1068.3" y="-64.961" font-family="Helvetica,sans-Serif" font-weight="bold" font-size="14.00" fill="#000000">libnetfilter_conntrack (148.0 kB)</text>
</g>
<!-- libmnl -->
<g id="node31" class="node">
<title>libmnl</title>
<text text-anchor="middle" x="935.53" y="-14.3" font-family="Helvetica,sans-Serif" font-weight="bold" font-size="14.00" fill="#000000">libmnl (55.4 kB)</text>
</g>
<!-- libnfnetlink -->
<g id="node32" class="node">
<title>libnfnetlink</title>
<text text-anchor="middle" x="1246.6" y="-57.154" font-family="Helvetica,sans-Serif" font-weight="bold" font-size="14.00" fill="#000000">libnfnetlink (54.8 kB)</text>
</g>
<!-- libpcap -->
<g id="node33" class="node">
<title>libpcap</title>
<text text-anchor="middle" x="799.93" y="-141.2" font-family="Helvetica,sans-Serif" font-weight="bold" font-size="14.00" fill="#000000">libpcap (387.4 kB)</text>
</g>
</g>

<script type="text/javascript"><![CDATA[

document.addEventListener('click', function(e) {
      e = e || window.event;
      var target = e.target || e.srcElement;
      text = target.parentElement.querySelector("title").textContent;

      console.log("Clicked on: " + text);
      // reset all strokes
      var nodes = document.getElementsByClassName("edge");

      for (index = 0, len = nodes.length; index < len; ++index) {
          //var title = nodes[index].querySelector("title").textContent.split("->");
          id = nodes[index].id;
          document.getElementById(id).querySelector("path").setAttribute("stroke-width", "1");
          document.getElementById(id).querySelector("path").setAttribute("stroke-opacity", "0.5");
          document.getElementById(id).querySelector("path").setAttribute("stroke", "#444444");
          document.getElementById(id).querySelector("polygon").setAttribute("stroke-width", "1");
          document.getElementById(id).querySelector("polygon").setAttribute("stroke-opacity", "0.5");
          document.getElementById(id).querySelector("polygon").setAttribute("stroke", "#444444");
      }
      // reset text highlight
      pkgs = document.getElementsByClassName("node");
      for (index2 = 0, len2 = pkgs.length; index2 < len2; ++index2) {
          target_id = pkgs[index2].id;
          document.getElementById(target_id).querySelector("text").setAttribute("font-weight", "normal");
      }

      // highlight deps
      var nodes = document.getElementsByClassName("edge");
      for (index = 0, len = nodes.length; index < len; ++index) {
        var title = nodes[index].querySelector("title").textContent.split("->");

        if (title[0] == text) {
          id = nodes[index].id;
          //console.log("ID:   " + id);
          document.getElementById(id).querySelector("path").setAttribute("stroke-width", "3");
          document.getElementById(id).querySelector("path").setAttribute("stroke-opacity", "1");
          document.getElementById(id).querySelector("path").setAttribute("stroke", "#aa3333");
          document.getElementById(id).querySelector("polygon").setAttribute("stroke-width", "5");
          document.getElementById(id).querySelector("polygon").setAttribute("stroke-opacity", "1");
          document.getElementById(id).querySelector("polygon").setAttribute("stroke", "#aa3333");

        }
        if (title[1] == text) {
          id = nodes[index].id;
          document.getElementById(id).querySelector("path").setAttribute("stroke-width", "3");
          document.getElementById(id).querySelector("path").setAttribute("stroke-opacity", "1");
          document.getElementById(id).querySelector("path").setAttribute("stroke", "#333377");
          document.getElementById(id).querySelector("polygon").setAttribute("stroke-width", "5");
          document.getElementById(id).querySelector("polygon").setAttribute("stroke-opacity", "1");
          document.getElementById(id).querySelector("polygon").setAttribute("stroke", "#333377");
        }

        if (title[0] == text || title[1] == text) {
          pkgs = document.getElementsByClassName("node");
          for (index2 = 0, len2 = pkgs.length; index2 < len2; ++index2) {
            var pkg_name = pkgs[index2].querySelector("title").textContent;
            if (pkg_name == title[0] || pkg_name == title[1]) {
              target_id = pkgs[index2].id;
              document.getElementById(target_id).querySelector("text").setAttribute("font-weight", "bold");
            }
          }
        }
      }


  }, false);

]]></script>


  <text
     id="text7664"
     y="19.384439"
     x="9.9055691"
     style="font-style:normal;font-weight:normal;font-size:12.49485588px;line-height:125%;font-family:sans-serif;letter-spacing:0px;word-spacing:0px;fill:#000000;fill-opacity:1;stroke:none;stroke-width:0.3123714px;stroke-linecap:butt;stroke-linejoin:miter;stroke-opacity:1"
     xml:space="preserve"><tspan
       style="font-size:12.00258541px;stroke-width:0.3123714px"
       y="19.384439"
       x="9.9055691"
       id="tspan7666"><a href="report-use-case-definition--httpd-no-weak-deps--rawhide.html"><tspan
   style="font-weight:bold;font-size:12.00258541px;fill:#0066ff;stroke-width:0.3123714px"
   id="tspan7668">Apache httpd (no weak deps)</tspan></a> on <a href="report-base-definition--fedora-container-base--rawhide.html"><tspan
   style="font-weight:bold;font-size:12.00258541px;fill:#0066ff;stroke-width:0.3123714px"
   id="tspan7676">Fedora Container Base</tspan></a> (Fedora rawhide)</tspan></text>
  <text
     xml:space="preserve"
     style="font-style:normal;font-weight:normal;font-size:11.85299969px;line-height:125%;font-family:sans-serif;letter-spacing:0px;word-spacing:0px;fill:#000000;fill-opacity:1;stroke:none;stroke-width:0.296325px;stroke-linecap:butt;stroke-linejoin:miter;stroke-opacity:1"
     x="9.9365959"
     y="58.520042"
     id="text8235"><tspan
       id="tspan8237"
       x="9.9365959"
       y="58.520042"
       style="stroke-width:0.296325px;font-size:10.80232704px;fill:#666666">Generated by <a href="./"><tspan
   style="fill:#3771c8"
   id="tspan8255">Feedback Pipeline</tspan></a></tspan></text>
  <text
     xml:space="preserve"
     style="font-style:normal;font-weight:normal;font-size:12.49485588px;line-height:125%;font-family:sans-serif;letter-spacing:0px;word-spacing:0px;fill:#000000;fill-opacity:1;stroke:none;stroke-width:0.3123714px;stroke-linecap:butt;stroke-linejoin:miter;stroke-opacity:1"
     x="9.9055691"
     y="38.974205"
     id="text8245"><a href="graph--httpd-no-weak-deps--fedora-container-base--rawhide.svg"><tspan
       id="tspan8247"
       x="9.9055691"
       y="38.974205"
       style="font-weight:normal;font-size:12.00258541px;fill:#0066ff;stroke-width:0.3123714px">Expand base image</tspan></a></text>

</svg>
