<?xml version="1.0" encoding="UTF-8" standalone="no"?>
<!DOCTYPE svg PUBLIC "-//W3C//DTD SVG 1.1//EN"
 "http://www.w3.org/Graphics/SVG/1.1/DTD/svg11.dtd">
<!-- Generated by graphviz version 2.40.1 (0)
 -->
<!-- Title: packages Pages: 1 -->
<svg width="1598pt" height="1148pt"
 viewBox="0.00 0.00 1917.12 1377.45" xmlns="http://www.w3.org/2000/svg" xmlns:xlink="http://www.w3.org/1999/xlink">
<g id="graph0" class="graph" transform="scale(.8333 .8333) rotate(0) translate(116.7734 1230.3499)">
<title>packages</title>
<polygon fill="#dae2ff" stroke="transparent" points="-116.7734,147.1039 -116.7734,-1230.3499 1800.3488,-1230.3499 1800.3488,147.1039 -116.7734,147.1039"/>
<polygon fill="#d8d6da" stroke="#d8d6da" points="1490.4203,-665.1664 1492.504,-665.7787 1502.8171,-668.3317 1529.6705,-673.7061 1531.2791,-674.1042 1543.8903,-677.8346 1552.9009,-681.3501 1559.0157,-684.3173 1567.3604,-688.7686 1576.4354,-694.0373 1582.2444,-697.9506 1596.5377,-708.9642 1626.9626,-735.26 1644.8167,-748.5323 1621.118,-838.4744 1615.7496,-850.8502 1623.8199,-888.0283 1626.598,-899.6503 1613.8441,-934.777 1603.4653,-965.5042 1585.5448,-1023.1404 1481.8212,-1096.125 1478.1193,-1095.6893 1474.6757,-1094.4001 1473.8726,-1059.6047 1469.7686,-970.2151 1464.4839,-931.4368 1461.5118,-931.4368 1460.0541,-930.9755 1457.9814,-930.9755 1454.8752,-928.0817 1449.2743,-926.3192 1449.2743,-926.3192 1454.8752,-928.0817 1457.9814,-930.9755 1454.101,-934.6875 1449.4545,-936.0609 1444.1209,-934.449 1440.3279,-930.9031 1439.1094,-930.9031 1438.6332,-931.0522 1433.0143,-931.0522 1432.0938,-931.3436 1429.7366,-931.3436 1428.0674,-933.7738 1421.8663,-937.6103 1413.4596,-934.8375 1327.973,-947.7984 1310.2112,-892.2873 1303.6416,-873.5604 1296.8663,-871.9794 1281.7158,-868.7891 1276.9086,-867.9982 1267.3501,-866.8611 1266.4224,-866.772 1254.3137,-866.1578 1252.842,-742.2659 1252.842,-742.2659 1254.3137,-866.1578 1266.4224,-866.772 1267.3501,-866.8611 1276.9086,-867.9982 1281.7158,-868.7891 1296.8663,-871.9794 1303.6416,-873.5604 1310.2112,-892.2873 1327.973,-947.7984 1413.4596,-934.8375 1421.8663,-937.6103 1428.0674,-933.7738 1429.7366,-931.3436 1432.0938,-931.3436 1433.0143,-931.0522 1438.6332,-931.0522 1439.1094,-930.9031 1440.3279,-930.9031 1444.1209,-934.449 1449.4545,-936.0609 1454.101,-934.6875 1457.9814,-930.9755 1460.0541,-930.9755 1461.5118,-931.4368 1464.4839,-931.4368 1469.7686,-970.2151 1473.8726,-1059.6047 1474.6757,-1094.4001 1455.4387,-1088.3396 1443.9103,-1085.1696 1439.3556,-1084.0088 1423.0266,-1080.8224 1366.9865,-1072.1259 1279.2709,-1127.2013 1240.2075,-1146.665 1233.7621,-1150.0189 1225.3834,-1154.7501 1214.8507,-1161.1682 1213.7794,-1060.8314 1210.1245,-992.798 1209.8035,-992.7074 1207.1786,-992.7074 1205.671,-991.0484 1200.6987,-988.283 1200.6987,-988.283 1205.671,-991.0484 1207.1786,-992.7074 1206.4624,-993.4959 1200.4854,-997.0089 1195.4156,-997.0089 1189.0676,-993.2255 1188.8694,-993.0079 1184.8795,-993.0079 1184.7034,-992.9584 1180.806,-992.9584 1179.33,-992.5411 1175.1166,-992.5411 1174.0237,-883.3306 1165.2761,-883.9455 1156.7167,-883.891 1155.811,-782.0371 1155.811,-782.0371 1156.7167,-883.891 1148.1306,-884.0667 1146.9996,-884.1201 1145.6703,-884.1489 1143.4495,-884.2564 1139.5037,-775.4384 1139.4473,-775.4218 1135.2744,-775.4218 1129.0382,-847.6313 1128.3535,-830.5703 1123.314,-779.0151 1127.5944,-775.0273 1124.3051,-772.2552 1124.3051,-772.2552 1127.5944,-775.0273 1123.314,-779.0151 1128.3535,-830.5703 1129.0382,-847.6313 1135.2744,-775.4218 1139.4473,-775.4218 1139.5037,-775.4384 1143.4495,-884.2564 1145.6703,-884.1489 1146.9996,-884.1201 1148.1306,-884.0667 1156.7167,-883.891 1165.2761,-883.9455 1174.0237,-883.3306 1175.1166,-992.5411 1179.33,-992.5411 1180.806,-992.9584 1184.7034,-992.9584 1184.8795,-993.0079 1188.8694,-993.0079 1189.0676,-993.2255 1195.4156,-997.0089 1200.4854,-997.0089 1206.4624,-993.4959 1207.1786,-992.7074 1209.8035,-992.7074 1210.1245,-992.798 1213.7794,-1060.8314 1214.8507,-1161.1682 1214.5128,-1161.3892 1212.6692,-1164.9713 1179.0596,-1190.1718 1100.806,-1216.6013 1072.7026,-1215.1407 1054.6954,-1214.922 1051.0985,-1214.9501 1052.8408,-1125.7075 1050.7366,-1077.7635 1052.2656,-1075.924 1051.3632,-1074.9038 1045.7211,-1071.6403 1041.0044,-1071.6403 1041.0044,-1071.6403 1045.7211,-1071.6403 1051.3632,-1074.9038 1052.2656,-1075.924 1050.7366,-1077.7635 1052.8408,-1125.7075 1051.0985,-1214.9501 1046.8951,-1215.1501 1032.4449,-1216.4148 1019.8337,-1218.0209 1018.9346,-1218.171 975.2184,-1226.3499 903.5822,-1187.2633 867.186,-1131.291 897.2448,-1076.2 932.7588,-996.975 940.4288,-981.0969 956.799,-976.8898 974.6273,-972.7929 985.2681,-970.9396 995.7096,-969.9879 1002.6288,-969.5489 1002.5926,-866.7343 1007.4771,-863.9273 1008.9988,-862.1002 1008.106,-861.0062 1008.106,-861.0062 1008.9988,-862.1002 1007.4771,-863.9273 1002.5926,-866.7343 1002.6288,-969.5489 995.7096,-969.9879 985.2681,-970.9396 974.6273,-972.7929 956.799,-976.8898 940.4288,-981.0969 932.7588,-996.975 897.2448,-1076.2 867.186,-1131.291 831.152,-1122.8363 818.7348,-1120.1776 802.3582,-1117.3491 784.1882,-1115.3435 782.7345,-1115.2134 777.3665,-1114.8444 729.0098,-1114.526 709.8212,-1102.8846 628.5363,-1030.1842 628.5281,-1025.5981 626.7525,-949.897 621.6788,-873.3906 591.7276,-832.1481 633.9697,-772.7 634.8163,-772.7 771.0784,-778.801 777.2301,-773.3448 777.7411,-773.1478 777.9103,-773.015 781.1952,-773.015 784.5881,-829.7028 787.3895,-772.6961 791.1189,-772.6961 791.9688,-772.4493 796.1605,-772.4493 798.0765,-774.7531 802.5242,-777.2714 807.3664,-777.2714 813.8556,-773.3467 814.2326,-772.9174 817.4403,-772.9174 817.4403,-772.9174 814.2326,-772.9174 813.8556,-773.3467 807.3664,-777.2714 802.5242,-777.2714 798.0765,-774.7531 796.1605,-772.4493 791.9688,-772.4493 791.1189,-772.6961 787.3895,-772.6961 784.5881,-829.7028 781.1952,-773.015 777.9103,-773.015 777.7411,-773.1478 777.2301,-773.3448 771.0784,-778.801 634.8163,-772.7 633.9697,-772.7 663.4174,-724.7858 703.1712,-704.886 703.8769,-704.5596 715.2023,-700.15 719.8216,-698.5233 731.1945,-695.3527 740.3439,-693.1422 757.3019,-690.9294 761.2921,-690.706 772.6013,-690.4919 772.685,-690.4934 776.8837,-690.4202 786.0505,-689.6068 793.6989,-688.6549 800.4285,-687.5782 813.377,-684.5852 816.1196,-683.7581 831.7358,-677.9146 843.9438,-672.4776 904.7152,-643.3008 904.5757,-642.6843 936.4533,-557.0121 939.5995,-546.0212 947.1658,-514.8864 947.9105,-514.4185 960.583,-507.0716 1011.2359,-482.8229 1024.5524,-475.7323 1033.8011,-469.8542 1042.3033,-464.0183 1043.7057,-462.8377 1056.9117,-452.5635 1066.3378,-444.3207 1074.7816,-436.1148 1092.6793,-416.9433 1098.3119,-410.107 1103.4296,-404.4392 1104.8724,-402.7154 1117.6877,-386.8138 1119.8734,-386.4576 1131.0286,-384.0621 1137.709,-384.7309 1143.0961,-389.369 1144.8188,-390.7061 1172.5895,-411.5085 1198.2042,-501.2387 1203.1403,-522.2948 1206.2114,-539.3856 1206.8435,-544.4961 1213.3687,-572.3605 1229.3116,-628.21 1245.5714,-629.5767 1265.1677,-630.1683 1266.915,-630.0794 1274.5309,-630.1041 1276.5072,-630.1639 1283.4371,-629.9995 1287.4308,-630.1209 1291.785,-630.3713 1294.5531,-630.4555 1295.2927,-630.498 1290.1211,-738.7594 1286.118,-738.7594 1284.676,-737.0296 1280.0011,-734.3333 1280.0011,-734.3333 1284.676,-737.0296 1286.118,-738.7594 1284.9941,-740.1417 1280.0579,-743.1363 1274.1567,-743.1363 1269.1448,-740.09 1268.2377,-738.9777 1268.2377,-738.9777 1269.1448,-740.09 1274.1567,-743.1363 1280.0579,-743.1363 1284.9941,-740.1417 1286.118,-738.7594 1290.1211,-738.7594 1295.2927,-630.498 1298.4108,-630.593 1299.9952,-630.5985 1307.1146,-630.2386 1324.1117,-630.7593 1329.0486,-631.1771 1370.4095,-635.7944 1411.5333,-613.7078 1436.4646,-634.0164 1448.2594,-643.0799 1454.0391,-646.9692 1469.7167,-656.0759 1475.1526,-658.7114 1475.9977,-731.761 1471.0148,-730.3527 1471.0148,-730.3527 1475.9977,-731.761 1475.1526,-658.7114 1485.7477,-663.3489 1490.4203,-665.1664 1490.4203,-665.1664"/>
<polygon fill="#fed9a6" stroke="#fed9a6" points="499.2031,-496.9115 494.9682,-496.973 420.8171,-499.5259 392.9873,-456.4841 359.905,-373.4113 360.4708,-367.9533 362.7527,-327.9618 364.2896,-281.9971 430.2606,-174.4697 417.4295,-153.1032 408.5748,-36.5339 406.3002,-13.7389 405.0274,-3.4188 404.5864,-.4132 411.9436,30.1866 452.185,92.6098 529.1696,124.5958 533.4193,125.5416 535.6163,125.3736 545.801,124.7989 549.2836,124.742 560.0358,124.7818 566.9282,124.9456 577.2955,125.4 577.89,125.4498 581.353,-13.0847 576.2055,-14.6205 572.375,-18.1693 575.8348,-21.2542 580.9636,-22.7884 580.9636,-22.7884 575.8348,-21.2542 572.375,-18.1693 576.2055,-14.6205 581.353,-13.0847 577.89,125.4498 586.8737,126.3834 597.8066,127.959 603.0756,128.824 611.174,130.3157 612.9639,130.6812 634.191,135.8707 655.0242,141.3743 667.4051,143.1039 687.1284,131.4159 793.178,32.5306 791.3644,27.1047 770.8852,-38.1093 763.376,-66.0593 779.1882,-83.3925 789.7469,-95.5568 795.4487,-101.8184 800.2426,-106.578 810.1569,-115.9141 810.9885,-165.5943 808.8326,-210.5672 803.9479,-211.9778 800.0967,-215.3835 803.9431,-218.8441 808.7907,-220.2683 808.7907,-220.2683 803.9431,-218.8441 800.0967,-215.3835 803.9479,-211.9778 808.8326,-210.5672 810.9885,-165.5943 810.1569,-115.9141 814.9268,-119.9074 824.4479,-129.082 830.2825,-133.9828 898.4151,-187.1044 911.7892,-198.3743 914.4981,-196.2074 928.5759,-187.0998 932.8842,-184.5392 951.5471,-176.2444 952.1564,-176.006 952.9822,-175.725 991.2347,-164.616 1004.0505,-159.5143 1001.0929,-229.7751 997.1927,-229.7751 997.1927,-229.7751 1001.0929,-229.7751 1004.0505,-159.5143 1005.1548,-159.0171 1016.3787,-153.3579 1019.1855,-151.7983 1016.2617,-128.457 1014.2706,-101.0095 1014.1953,-100.5955 1013.072,-84.9936 997.9283,35.8997 1051.3992,55.7877 1071.2711,53.9849 1077.7675,53.5163 1084.7142,53.1443 1102.4205,53.184 1104.1107,52.6144 1104.582,52.4653 1106.1772,-63.2355 1103.4994,-90.8216 1109.8503,-92.7044 1113.2417,-95.5128 1108.8174,-99.332 1104.1563,-100.6358 1098.4817,-98.9922 1100.7347,-156.5724 1100.6013,-168.6796 1088.4518,-165.3116 1086.7828,-164.9249 1082.5564,-164.1349 1077.8956,-163.4712 1077.8892,-163.4705 1059.4709,-162.4813 1061.2686,-223.9885 1056.1608,-228.5666 1055.2892,-228.8556 1059.2761,-162.4617 1052.6411,-161.4849 1042.3505,-159.4855 1038.0875,-158.4597 1037.4423,-188.6965 1033.2936,-228.0841 1029.2183,-225.7269 1023.2089,-225.7269 1017.2318,-229.4749 1016.8228,-229.9681 1017.9423,-231.3494 1017.9423,-231.3494 1016.8228,-229.9681 1017.2318,-229.4749 1023.2089,-225.7269 1029.2183,-225.7269 1033.2936,-228.0841 1037.4423,-188.6965 1038.0875,-158.4597 1042.3505,-159.4855 1052.6411,-161.4849 1059.2761,-162.4617 1055.2892,-228.8556 1056.1608,-228.5666 1061.2686,-223.9885 1059.4709,-162.4813 1077.8892,-163.4705 1077.8956,-163.4712 1082.5564,-164.1349 1086.7828,-164.9249 1088.4518,-165.3116 1100.6013,-168.6796 1100.7347,-156.5724 1098.4817,-98.9922 1104.1563,-100.6358 1108.8174,-99.332 1113.2417,-95.5128 1109.8503,-92.7044 1103.4994,-90.8216 1106.1772,-63.2355 1104.582,52.4653 1117.8857,48.798 1119.119,48.4833 1132.2356,45.4047 1131.981,31.2509 1132.2738,-41.2162 1132.2738,-41.2162 1131.981,31.2509 1132.2356,45.4047 1266.4203,22.1515 1292.7256,-3.183 1281.9395,-70.9357 1310.2025,-134.6174 1313.3502,-142.2997 1332.6763,-198.8221 1336.5198,-208.9983 1344.6201,-228.6054 1341.4252,-231.6026 1331.6647,-239.881 1325.7842,-244.5991 1320.2704,-249.3425 1312.3569,-254.9923 1296.069,-265.0992 1235.4519,-296.7617 1217.3625,-307.9698 1215.948,-308.9749 1210.2711,-313.2807 1208.9506,-279.0665 1209.5917,-218.3291 1208.417,-217.9841 1208.0238,-217.3949 1204.7721,-214.7552 1199.1593,-213.1826 1194.0679,-214.5831 1195.7585,-140.5769 1189.6871,-143.7282 1178.5956,-148.9437 1174.2567,-150.5509 1174.2567,-150.5509 1178.5956,-148.9437 1189.6871,-143.7282 1195.7585,-140.5769 1194.0679,-214.5831 1199.1593,-213.1826 1204.7721,-214.7552 1208.0238,-217.3949 1208.417,-217.9841 1209.5917,-218.3291 1208.9506,-279.0665 1210.2711,-313.2807 1197.5956,-324.134 1183.8311,-337.2379 1183.2728,-337.714 1166.297,-354.3569 1162.6725,-358.3651 1137.709,-384.7309 1131.0286,-384.0621 1119.8734,-386.4576 1117.6877,-386.8138 1104.8724,-402.7154 1103.4296,-404.4392 1098.3119,-410.107 1092.6793,-416.9433 1074.7816,-436.1148 1066.3378,-444.3207 1056.9117,-452.5635 1043.7057,-462.8377 1042.3033,-464.0183 1033.8011,-469.8542 1024.5524,-475.7323 1011.2359,-482.8229 960.583,-507.0716 947.9105,-514.4185 947.1658,-514.8864 939.5995,-546.0212 936.4533,-557.0121 904.5757,-642.6843 904.7152,-643.3008 843.9438,-672.4776 831.7358,-677.9146 816.1196,-683.7581 813.377,-684.5852 800.4285,-687.5782 793.6989,-688.6549 786.0505,-689.6068 776.8837,-690.4202 772.685,-690.4934 772.6013,-690.4919 761.2921,-690.706 757.3019,-690.9294 755.6525,-636.8127 755.6525,-636.8127 757.3019,-690.9294 740.3439,-693.1422 731.1945,-695.3527 719.8216,-698.5233 721.0089,-662.4182 725.8734,-610.0399 730.6025,-612.8079 735.7626,-612.8079 741.6315,-609.2147 742.5529,-608.0983 741.7921,-607.1951 736.2079,-603.8055 736.2079,-603.8055 741.7921,-607.1951 742.5529,-608.0983 741.6315,-609.2147 735.7626,-612.8079 730.6025,-612.8079 725.8734,-610.0399 721.0089,-662.4182 719.8216,-698.5233 715.2023,-700.15 703.8769,-704.5596 704.6716,-674.7077 704.6716,-674.7077 703.8769,-704.5596 703.1712,-704.886 663.4174,-724.7858 640.2712,-640.2004 639.8832,-637.89 638.6547,-627.3012 633.6625,-598.0499 604.4579,-491.3243 599.1884,-489.364 604.8768,-376.5467 680.2545,-367.453 680.6824,-433.5234 686.0121,-362.0416 689.7154,-362.0416 692.5803,-398.3022 696.448,-362.0334 699.9077,-362.0334 705.6602,-441.8213 705.6301,-363.5366 710.7733,-366.3973 715.4025,-366.3973 721.5985,-362.8113 722.1857,-362.1668 725.2524,-362.1668 729.973,-423.6746 731.1593,-361.8679 735.4314,-361.8679 739.1591,-413.34 739.6077,-447.3849 743.4594,-445.5439 807.3019,-417.6428 807.2542,-433.6428 807.2542,-433.6428 807.3019,-417.6428 808.2322,-417.1572 815.626,-501.094 813.6216,-501.6804 820.3067,-549.9955 819.9637,-501.5103 825.3788,-501.5103 826.6942,-501.1179 828.9581,-501.1179 830.4062,-502.8219 835.3715,-505.7379 841.2637,-505.7379 845.3271,-503.4474 848.4641,-540.4059 848.3947,-588.2761 857.9555,-597.1661 868.4735,-608.19 872.2502,-611.4791 870.8519,-564.9012 870.8519,-564.9012 872.2502,-611.4791 868.4735,-608.19 857.9555,-597.1661 848.3947,-588.2761 848.4641,-540.4059 845.3271,-503.4474 846.9756,-501.4957 845.3123,-499.5009 841.2053,-497.161 841.2053,-497.161 845.3123,-499.5009 846.9756,-501.4957 845.3271,-503.4474 841.2637,-505.7379 835.3715,-505.7379 830.4062,-502.8219 828.9581,-501.1179 826.6942,-501.1179 825.3788,-501.5103 819.9637,-501.5103 820.3067,-549.9955 813.6216,-501.6804 815.626,-501.094 808.2322,-417.1572 807.3019,-417.6428 743.4594,-445.5439 739.6077,-447.3849 739.1591,-413.34 735.4314,-361.8679 731.1593,-361.8679 729.973,-423.6746 725.2524,-362.1668 722.1857,-362.1668 721.5985,-362.8113 715.4025,-366.3973 710.7733,-366.3973 705.6301,-363.5366 705.6602,-441.8213 699.9077,-362.0334 696.448,-362.0334 692.5803,-398.3022 689.7154,-362.0416 686.0121,-362.0416 680.6824,-433.5234 680.2545,-367.453 604.8768,-376.5467 599.1884,-489.364 574.8432,-493.7589 566.7152,-495.0704 553.4977,-496.1953 545.8819,-496.5532 541.3481,-496.6797 530.6983,-497.1899 523.0004,-497.2639 517.0898,-496.8683 515.1345,-496.8156 505.6437,-496.7489 509.1677,-359.0266 514.3403,-359.0266 518.9987,-356.2837 520.681,-354.182 519.7422,-353.0908 514.6871,-350.1387 509.056,-350.1387 509.056,-350.1387 514.6871,-350.1387 519.7422,-353.0908 520.681,-354.182 518.9987,-356.2837 514.3403,-359.0266 509.1677,-359.0266 505.6437,-496.7489 501.1971,-496.8063 499.2031,-496.9115 499.2031,-496.9115"/>
<polygon fill="#bbd7d9" stroke="#bbd7d9" points="568.0699,-543.062 573.9014,-637.0545 578.6792,-633.2706 639.8832,-637.89 640.2712,-640.2004 663.4174,-724.7858 633.9697,-772.7 591.7276,-832.1481 584.1651,-830.0764 564.2491,-824.9197 550.3918,-822.173 549.0512,-821.9276 535.662,-820.082 527.2914,-816.9295 524.3467,-815.9212 515.6173,-810.877 519.2639,-676.5773 516.9221,-639.4348 512.631,-639.4348 511.6152,-639.1443 510.0624,-639.1443 510.0624,-639.1443 511.6152,-639.1443 512.631,-639.4348 516.9221,-639.4348 519.2639,-676.5773 515.6173,-810.877 513.0827,-809.5165 496.8373,-801.4481 316.9268,-715.7979 281.5796,-778.1214 226.64,-884.321 184.4435,-921.5554 123.8,-916.369 105.9957,-915.4775 82.9764,-915.9608 74.3496,-916.6013 72.4317,-916.0992 65.8612,-914.5026 64.0925,-914.1392 41.716,-910.3706 13.0026,-906.615 -39.2185,-877.8823 -78.4259,-842.044 -105.3256,-773.8652 -112.7734,-757.0386 -95.9992,-731.8995 -34.7962,-635.6878 36.5031,-590.189 40.4558,-590.0887 50.1343,-589.6852 53.4022,-589.4958 59.7289,-592.7053 69.3877,-597.0166 75.035,-599.4229 86.8011,-604.1974 97.9262,-608.0322 112.6316,-612.5048 117.3947,-613.7586 117.4227,-758.0714 115.5722,-759.5321 113.216,-759.5321 112.5018,-759.3209 112.5018,-759.3209 113.216,-759.5321 115.5722,-759.5321 117.4227,-758.0714 117.3947,-613.7586 122.1973,-614.9252 204.1553,-633.1705 311.6107,-696.3345 346.3262,-639.44 420.8171,-499.5259 494.9682,-496.973 499.2031,-496.9115 501.1971,-496.8063 505.6437,-496.7489 515.1345,-496.8156 517.0898,-496.8683 523.0004,-497.2639 530.6983,-497.1899 541.3481,-496.6797 545.8819,-496.5532 553.4977,-496.1953 566.7152,-495.0704 574.8432,-493.7589 599.1884,-489.364 604.4579,-491.3243 633.6625,-598.0499 638.6547,-627.3012 639.8832,-637.89 578.6792,-633.2706 573.9014,-637.0545 568.0699,-543.062 568.4494,-639.4486 568.7884,-639.5497 565.2709,-720.1826 563.0917,-639.5268 557.7303,-639.5268 557.4012,-639.4308 553.4733,-639.4308 551.5078,-587.9216 547.4778,-637.3422 542.8458,-634.7799 538.1296,-634.7799 538.1296,-634.7799 542.8458,-634.7799 547.4778,-637.3422 549.3297,-639.4879 548.4619,-640.4824 548.4619,-640.4824 549.3297,-639.4879 547.4778,-637.3422 551.5078,-587.9216 553.4733,-639.4308 557.4012,-639.4308 557.7303,-639.5268 563.0917,-639.5268 565.2709,-720.1826 568.7884,-639.5497 568.4494,-639.4486 568.0699,-543.062 568.0699,-543.062"/>
<polygon fill="#fbb4ae" stroke="#fbb4ae" points="1206.8435,-544.4961 1206.2114,-539.3856 1203.1403,-522.2948 1198.2042,-501.2387 1172.5895,-411.5085 1144.8188,-390.7061 1143.0961,-389.369 1137.709,-384.7309 1162.6725,-358.3651 1296.2234,-349.6491 1301.1818,-344.8581 1302.6416,-344.2739 1303.2285,-343.8077 1305.145,-343.8077 1305.3778,-343.7409 1312.0671,-343.7409 1312.4271,-343.6338 1316.1917,-343.6338 1317.8333,-344.1256 1321.5555,-344.1256 1322.1725,-343.9424 1322.1725,-343.9424 1321.5555,-344.1256 1317.8333,-344.1256 1316.1917,-343.6338 1312.4271,-343.6338 1312.0671,-343.7409 1305.3778,-343.7409 1305.145,-343.8077 1303.2285,-343.8077 1302.6416,-344.2739 1301.1818,-344.8581 1296.2234,-349.6491 1162.6725,-358.3651 1166.297,-354.3569 1183.2728,-337.714 1183.8311,-337.2379 1197.5956,-324.134 1210.2711,-313.2807 1215.948,-308.9749 1217.3625,-307.9698 1235.4519,-296.7617 1296.069,-265.0992 1312.3569,-254.9923 1320.2704,-249.3425 1325.7842,-244.5991 1331.6647,-239.881 1341.4252,-231.6026 1344.6201,-228.6054 1336.5198,-208.9983 1332.6763,-198.8221 1313.3502,-142.2997 1401.7672,-142.6769 1416.9989,-146.2187 1415.1627,-241.7865 1407.6713,-241.7115 1402.5138,-241.5172 1390.3983,-240.3897 1386.3098,-239.7832 1378.282,-238.3695 1364.1375,-235.0914 1365.3943,-304.0574 1363.0959,-339.339 1358.5377,-339.339 1351.9325,-343.3047 1351.6399,-343.6296 1353.7025,-346.0186 1358.2673,-348.5294 1363.1143,-348.5294 1363.1143,-348.5294 1358.2673,-348.5294 1353.7025,-346.0186 1351.6399,-343.6296 1351.9325,-343.3047 1358.5377,-339.339 1363.0959,-339.339 1365.3943,-304.0574 1364.1375,-235.0914 1378.282,-238.3695 1386.3098,-239.7832 1390.3983,-240.3897 1402.5138,-241.5172 1407.6713,-241.7115 1409.963,-343.8559 1404.9294,-343.8559 1404.9294,-343.8559 1409.963,-343.8559 1410.139,-343.9064 1413.8396,-343.9064 1414.1024,-343.8293 1414.1024,-343.8293 1413.8396,-343.9064 1410.139,-343.9064 1409.963,-343.8559 1407.6713,-241.7115 1415.1627,-241.7865 1416.9989,-146.2187 1401.7672,-142.6769 1313.3502,-142.2997 1310.2025,-134.6174 1281.9395,-70.9357 1292.7256,-3.183 1349.4066,5.5162 1391.5228,5.3338 1410.5839,3.1498 1424.9285,1.8044 1431.2477,1.3439 1431.4989,-13.6893 1439.2397,-135.0128 1444.0385,-135.0128 1449.4974,-138.376 1450.8677,-140.1305 1449.8995,-141.2644 1450.5446,-241.7488 1460.2161,-235.6953 1468.4944,-231.2168 1531.8241,-199.6389 1537.6896,-283.2864 1542.8512,-287.5993 1543.7954,-289.1694 1548.1249,-289.1694 1548.3826,-289.2434 1552.4349,-289.2434 1553.0449,-289.4231 1557.7291,-289.4231 1557.9801,-289.7185 1563.7548,-348.7034 1564.0294,-354.7773 1556.1404,-355.9116 1546.5422,-357.7496 1539.1671,-359.5092 1504.4849,-371.0496 1484.679,-420.14 1520.7865,-420.14 1520.7865,-420.14 1484.679,-420.14 1504.4849,-371.0496 1539.1671,-359.5092 1546.5422,-357.7496 1556.1404,-355.9116 1564.0294,-354.7773 1563.7548,-348.7034 1557.9801,-289.7185 1557.7291,-289.4231 1559.1449,-287.7064 1559.1449,-287.7064 1557.7291,-289.4231 1553.0449,-289.4231 1552.4349,-289.2434 1548.3826,-289.2434 1548.1249,-289.1694 1543.7954,-289.1694 1542.8512,-287.5993 1537.6896,-283.2864 1531.8241,-199.6389 1468.4944,-231.2168 1460.2161,-235.6953 1450.5446,-241.7488 1449.8995,-141.2644 1450.8677,-140.1305 1449.4974,-138.376 1444.0385,-135.0128 1439.2397,-135.0128 1431.4989,-13.6893 1431.2477,1.3439 1454.764,1.1036 1461.6727,1.4655 1483.2927,3.5016 1572.9218,-36.0053 1636.7755,-116.451 1649.0452,-119.8581 1733.3976,-250.0765 1734.1908,-262.5923 1735.6025,-279.0594 1740.4774,-324.1771 1766.4487,-367.1252 1790.8623,-405.6049 1796.3488,-418.7669 1777.2898,-448.4731 1728.932,-530.8991 1732.2382,-564.4806 1737.2701,-605.8562 1733.475,-627.8151 1727.0447,-678.6522 1644.8167,-748.5323 1626.9626,-735.26 1596.5377,-708.9642 1595.5406,-644.2441 1595.5406,-644.2441 1596.5377,-708.9642 1582.2444,-697.9506 1576.4354,-694.0373 1567.3604,-688.7686 1559.0157,-684.3173 1561.1051,-611.2178 1566.1537,-611.2178 1570.9313,-608.4837 1572.7235,-606.3381 1572.2279,-605.777 1566.375,-602.2827 1566.375,-602.2827 1572.2279,-605.777 1572.7235,-606.3381 1570.9313,-608.4837 1566.1537,-611.2178 1561.1051,-611.2178 1559.0157,-684.3173 1552.9009,-681.3501 1543.8903,-677.8346 1543.7892,-672.9725 1543.7892,-672.9725 1543.8903,-677.8346 1531.2791,-674.1042 1529.6705,-673.7061 1502.8171,-668.3317 1492.504,-665.7787 1490.4203,-665.1664 1485.7477,-663.3489 1475.1526,-658.7114 1469.7167,-656.0759 1454.0391,-646.9692 1448.2594,-643.0799 1436.4646,-634.0164 1411.5333,-613.7078 1370.4095,-635.7944 1329.0486,-631.1771 1324.1117,-630.7593 1307.1146,-630.2386 1299.9952,-630.5985 1298.4108,-630.593 1295.2927,-630.498 1294.5531,-630.4555 1291.785,-630.3713 1287.4308,-630.1209 1291.4294,-525.0564 1296.6871,-526.5935 1301.4767,-525.2099 1305.5493,-521.4786 1302.3971,-518.6494 1302.3971,-518.6494 1305.5493,-521.4786 1301.4767,-525.2099 1296.6871,-526.5935 1291.4294,-525.0564 1287.4308,-630.1209 1283.4371,-629.9995 1276.5072,-630.1639 1274.5309,-630.1041 1266.915,-630.0794 1265.1677,-630.1683 1245.5714,-629.5767 1229.3116,-628.21 1213.3687,-572.3605 1206.8435,-544.4961 1206.8435,-544.4961"/>
<polygon fill="#d8d6da" stroke="#d8d6da" points="1014.2706,-101.0095 1016.2617,-128.457 1019.1855,-151.7983 1016.3787,-153.3579 1005.1548,-159.0171 1004.0505,-159.5143 991.2347,-164.616 952.9822,-175.725 952.1564,-176.006 951.5471,-176.2444 932.8842,-184.5392 928.5759,-187.0998 914.4981,-196.2074 911.7892,-198.3743 898.4151,-187.1044 830.2825,-133.9828 824.4479,-129.082 814.9268,-119.9074 810.1569,-115.9141 800.2426,-106.578 795.4487,-101.8184 789.7469,-95.5568 779.1882,-83.3925 763.376,-66.0593 770.8852,-38.1093 791.3644,27.1047 793.178,32.5306 874.6448,53.6117 901.9644,46.5705 920.9661,42.3803 939.1549,39.7324 940.8129,39.5223 955.1918,38.2384 962.0964,37.7518 997.9283,35.8997 1013.072,-84.9936 1014.1953,-100.5955 1014.2706,-101.0095 1014.2706,-101.0095"/>
<polyline fill="none" stroke="#000000" points="1092.6793,-416.9433 1098.3119,-410.107 1103.4296,-404.4392 1104.8724,-402.7154 1117.6877,-386.8138 1119.8734,-386.4576 1131.0286,-384.0621 1137.709,-384.7309 1143.0961,-389.369 1144.8188,-390.7061 1172.5895,-411.5085 1198.2042,-501.2387 1203.1403,-522.2948 1206.2114,-539.3856 1206.8435,-544.4961 1213.3687,-572.3605 1229.3116,-628.21 1245.5714,-629.5767 1265.1677,-630.1683 1266.915,-630.0794 1274.5309,-630.1041 1276.5072,-630.1639 1283.4371,-629.9995 1287.4308,-630.1209 1291.785,-630.3713 1294.5531,-630.4555 1295.2927,-630.498 1298.4108,-630.593 1299.9952,-630.5985 1307.1146,-630.2386 1324.1117,-630.7593 1329.0486,-631.1771 1370.4095,-635.7944 1411.5333,-613.7078 1436.4646,-634.0164 1448.2594,-643.0799 1454.0391,-646.9692 1469.7167,-656.0759 1475.1526,-658.7114 1485.7477,-663.3489 1490.4203,-665.1664 1492.504,-665.7787 1502.8171,-668.3317 1529.6705,-673.7061 1531.2791,-674.1042 1543.8903,-677.8346 1552.9009,-681.3501 1559.0157,-684.3173 1567.3604,-688.7686 1576.4354,-694.0373 1582.2444,-697.9506 1596.5377,-708.9642 1626.9626,-735.26 1644.8167,-748.5323 1621.118,-838.4744 1615.7496,-850.8502 1623.8199,-888.0283 1626.598,-899.6503 1613.8441,-934.777 1603.4653,-965.5042 1585.5448,-1023.1404 1481.8212,-1096.125 1478.1193,-1095.6893 1474.6757,-1094.4001 1455.4387,-1088.3396 1443.9103,-1085.1696 1439.3556,-1084.0088 1423.0266,-1080.8224 1366.9865,-1072.1259 1279.2709,-1127.2013 1240.2075,-1146.665 1233.7621,-1150.0189 1225.3834,-1154.7501 1214.8507,-1161.1682 1214.5128,-1161.3892 1212.6692,-1164.9713 1179.0596,-1190.1718 1100.806,-1216.6013 1072.7026,-1215.1407 1054.6954,-1214.922 1051.0985,-1214.9501 1046.8951,-1215.1501 1032.4449,-1216.4148 1019.8337,-1218.0209 1018.9346,-1218.171 975.2184,-1226.3499 903.5822,-1187.2633 867.186,-1131.291 831.152,-1122.8363 818.7348,-1120.1776 802.3582,-1117.3491 784.1882,-1115.3435 782.7345,-1115.2134 777.3665,-1114.8444 729.0098,-1114.526 709.8212,-1102.8846 628.5363,-1030.1842 628.5281,-1025.5981 626.7525,-949.897 621.6788,-873.3906 591.7276,-832.1481 633.9697,-772.7 663.4174,-724.7858 703.1712,-704.886 703.8769,-704.5596 715.2023,-700.15 719.8216,-698.5233 731.1945,-695.3527 740.3439,-693.1422 757.3019,-690.9294 761.2921,-690.706 772.6013,-690.4919 772.685,-690.4934 776.8837,-690.4202 786.0505,-689.6068 793.6989,-688.6549 800.4285,-687.5782 813.377,-684.5852 816.1196,-683.7581 831.7358,-677.9146 843.9438,-672.4776 904.7152,-643.3008 904.5757,-642.6843 936.4533,-557.0121 939.5995,-546.0212 947.1658,-514.8864 947.9105,-514.4185 960.583,-507.0716 1011.2359,-482.8229 1024.5524,-475.7323 1033.8011,-469.8542 1042.3033,-464.0183 1043.7057,-462.8377 1056.9117,-452.5635 1066.3378,-444.3207 1074.7816,-436.1148 1092.6793,-416.9433 "/>
<polyline fill="none" stroke="#000000" points="936.4533,-557.0121 939.5995,-546.0212 947.1658,-514.8864 947.9105,-514.4185 960.583,-507.0716 1011.2359,-482.8229 1024.5524,-475.7323 1033.8011,-469.8542 1042.3033,-464.0183 1043.7057,-462.8377 1056.9117,-452.5635 1066.3378,-444.3207 1074.7816,-436.1148 1092.6793,-416.9433 1098.3119,-410.107 1103.4296,-404.4392 1104.8724,-402.7154 1117.6877,-386.8138 1119.8734,-386.4576 1131.0286,-384.0621 1137.709,-384.7309 1162.6725,-358.3651 1166.297,-354.3569 1183.2728,-337.714 1183.8311,-337.2379 1197.5956,-324.134 1210.2711,-313.2807 1215.948,-308.9749 1217.3625,-307.9698 1235.4519,-296.7617 1296.069,-265.0992 1312.3569,-254.9923 1320.2704,-249.3425 1325.7842,-244.5991 1331.6647,-239.881 1341.4252,-231.6026 1344.6201,-228.6054 1336.5198,-208.9983 1332.6763,-198.8221 1313.3502,-142.2997 1310.2025,-134.6174 1281.9395,-70.9357 1292.7256,-3.183 1266.4203,22.1515 1132.2356,45.4047 1119.119,48.4833 1117.8857,48.798 1104.582,52.4653 1104.1107,52.6144 1102.4205,53.184 1084.7142,53.1443 1077.7675,53.5163 1071.2711,53.9849 1051.3992,55.7877 997.9283,35.8997 1013.072,-84.9936 1014.1953,-100.5955 1014.2706,-101.0095 1016.2617,-128.457 1019.1855,-151.7983 1016.3787,-153.3579 1005.1548,-159.0171 1004.0505,-159.5143 991.2347,-164.616 952.9822,-175.725 952.1564,-176.006 951.5471,-176.2444 932.8842,-184.5392 928.5759,-187.0998 914.4981,-196.2074 911.7892,-198.3743 898.4151,-187.1044 830.2825,-133.9828 824.4479,-129.082 814.9268,-119.9074 810.1569,-115.9141 800.2426,-106.578 795.4487,-101.8184 789.7469,-95.5568 779.1882,-83.3925 763.376,-66.0593 770.8852,-38.1093 791.3644,27.1047 793.178,32.5306 687.1284,131.4159 667.4051,143.1039 655.0242,141.3743 634.191,135.8707 612.9639,130.6812 611.174,130.3157 603.0756,128.824 597.8066,127.959 586.8737,126.3834 577.89,125.4498 577.2955,125.4 566.9282,124.9456 560.0358,124.7818 549.2836,124.742 545.801,124.7989 535.6163,125.3736 533.4193,125.5416 529.1696,124.5958 452.185,92.6098 411.9436,30.1866 404.5864,-.4132 405.0274,-3.4188 406.3002,-13.7389 408.5748,-36.5339 417.4295,-153.1032 430.2606,-174.4697 364.2896,-281.9971 362.7527,-327.9618 360.4708,-367.9533 359.905,-373.4113 392.9873,-456.4841 420.8171,-499.5259 494.9682,-496.973 499.2031,-496.9115 501.1971,-496.8063 505.6437,-496.7489 515.1345,-496.8156 517.0898,-496.8683 523.0004,-497.2639 530.6983,-497.1899 541.3481,-496.6797 545.8819,-496.5532 553.4977,-496.1953 566.7152,-495.0704 574.8432,-493.7589 599.1884,-489.364 604.4579,-491.3243 633.6625,-598.0499 638.6547,-627.3012 639.8832,-637.89 640.2712,-640.2004 663.4174,-724.7858 703.1712,-704.886 703.8769,-704.5596 715.2023,-700.15 719.8216,-698.5233 731.1945,-695.3527 740.3439,-693.1422 757.3019,-690.9294 761.2921,-690.706 772.6013,-690.4919 772.685,-690.4934 776.8837,-690.4202 786.0505,-689.6068 793.6989,-688.6549 800.4285,-687.5782 813.377,-684.5852 816.1196,-683.7581 831.7358,-677.9146 843.9438,-672.4776 904.7152,-643.3008 904.5757,-642.6843 936.4533,-557.0121 "/>
<polyline fill="none" stroke="#000000" points="65.8612,-914.5026 64.0925,-914.1392 41.716,-910.3706 13.0026,-906.615 -39.2185,-877.8823 -78.4259,-842.044 -105.3256,-773.8652 -112.7734,-757.0386 -95.9992,-731.8995 -34.7962,-635.6878 36.5031,-590.189 40.4558,-590.0887 50.1343,-589.6852 53.4022,-589.4958 59.7289,-592.7053 69.3877,-597.0166 75.035,-599.4229 86.8011,-604.1974 97.9262,-608.0322 112.6316,-612.5048 117.3947,-613.7586 122.1973,-614.9252 204.1553,-633.1705 311.6107,-696.3345 346.3262,-639.44 420.8171,-499.5259 494.9682,-496.973 499.2031,-496.9115 501.1971,-496.8063 505.6437,-496.7489 515.1345,-496.8156 517.0898,-496.8683 523.0004,-497.2639 530.6983,-497.1899 541.3481,-496.6797 545.8819,-496.5532 553.4977,-496.1953 566.7152,-495.0704 574.8432,-493.7589 599.1884,-489.364 604.4579,-491.3243 633.6625,-598.0499 638.6547,-627.3012 639.8832,-637.89 640.2712,-640.2004 663.4174,-724.7858 633.9697,-772.7 591.7276,-832.1481 584.1651,-830.0764 564.2491,-824.9197 550.3918,-822.173 549.0512,-821.9276 535.662,-820.082 527.2914,-816.9295 524.3467,-815.9212 515.6173,-810.877 513.0827,-809.5165 496.8373,-801.4481 316.9268,-715.7979 281.5796,-778.1214 226.64,-884.321 184.4435,-921.5554 123.8,-916.369 105.9957,-915.4775 82.9764,-915.9608 74.3496,-916.6013 72.4317,-916.0992 65.8612,-914.5026 "/>
<polyline fill="none" stroke="#000000" points="1728.932,-530.8991 1777.2898,-448.4731 1796.3488,-418.7669 1790.8623,-405.6049 1766.4487,-367.1252 1740.4774,-324.1771 1735.6025,-279.0594 1734.1908,-262.5923 1733.3976,-250.0765 1649.0452,-119.8581 1636.7755,-116.451 1572.9218,-36.0053 1483.2927,3.5016 1461.6727,1.4655 1454.764,1.1036 1431.2477,1.3439 1424.9285,1.8044 1410.5839,3.1498 1391.5228,5.3338 1349.4066,5.5162 1292.7256,-3.183 1281.9395,-70.9357 1310.2025,-134.6174 1313.3502,-142.2997 1332.6763,-198.8221 1336.5198,-208.9983 1344.6201,-228.6054 1341.4252,-231.6026 1331.6647,-239.881 1325.7842,-244.5991 1320.2704,-249.3425 1312.3569,-254.9923 1296.069,-265.0992 1235.4519,-296.7617 1217.3625,-307.9698 1215.948,-308.9749 1210.2711,-313.2807 1197.5956,-324.134 1183.8311,-337.2379 1183.2728,-337.714 1166.297,-354.3569 1162.6725,-358.3651 1137.709,-384.7309 1143.0961,-389.369 1144.8188,-390.7061 1172.5895,-411.5085 1198.2042,-501.2387 1203.1403,-522.2948 1206.2114,-539.3856 1206.8435,-544.4961 1213.3687,-572.3605 1229.3116,-628.21 1245.5714,-629.5767 1265.1677,-630.1683 1266.915,-630.0794 1274.5309,-630.1041 1276.5072,-630.1639 1283.4371,-629.9995 1287.4308,-630.1209 1291.785,-630.3713 1294.5531,-630.4555 1295.2927,-630.498 1298.4108,-630.593 1299.9952,-630.5985 1307.1146,-630.2386 1324.1117,-630.7593 1329.0486,-631.1771 1370.4095,-635.7944 1411.5333,-613.7078 1436.4646,-634.0164 1448.2594,-643.0799 1454.0391,-646.9692 1469.7167,-656.0759 1475.1526,-658.7114 1485.7477,-663.3489 1490.4203,-665.1664 1492.504,-665.7787 1502.8171,-668.3317 1529.6705,-673.7061 1531.2791,-674.1042 1543.8903,-677.8346 1552.9009,-681.3501 1559.0157,-684.3173 1567.3604,-688.7686 1576.4354,-694.0373 1582.2444,-697.9506 1596.5377,-708.9642 1626.9626,-735.26 1644.8167,-748.5323 1727.0447,-678.6522 1733.475,-627.8151 1737.2701,-605.8562 1732.2382,-564.4806 1728.932,-530.8991 "/>
<polyline fill="none" stroke="#000000" points="914.4981,-196.2074 911.7892,-198.3743 898.4151,-187.1044 830.2825,-133.9828 824.4479,-129.082 814.9268,-119.9074 810.1569,-115.9141 800.2426,-106.578 795.4487,-101.8184 789.7469,-95.5568 779.1882,-83.3925 763.376,-66.0593 770.8852,-38.1093 791.3644,27.1047 793.178,32.5306 874.6448,53.6117 901.9644,46.5705 920.9661,42.3803 939.1549,39.7324 940.8129,39.5223 955.1918,38.2384 962.0964,37.7518 997.9283,35.8997 1013.072,-84.9936 1014.1953,-100.5955 1014.2706,-101.0095 1016.2617,-128.457 1019.1855,-151.7983 1016.3787,-153.3579 1005.1548,-159.0171 1004.0505,-159.5143 991.2347,-164.616 952.9822,-175.725 952.1564,-176.006 951.5471,-176.2444 932.8842,-184.5392 928.5759,-187.0998 914.4981,-196.2074 "/>
<!-- device&#45;mapper&#45;libs&#45;&gt;Fedora Container Base -->
<g id="edge1" class="edge">
<title>device&#45;mapper&#45;libs&#45;&gt;Fedora Container Base</title>
<path fill="none" stroke="#444444" stroke-opacity="0.333333" d="M1193.1446,-974.6666C1175.1864,-906.5279 1111.408,-664.5333 1089.5297,-581.5204"/>
<polygon fill="#444444" fill-opacity="0.333333" stroke="#444444" stroke-opacity="0.333333" points="1092.8923,-580.5454 1086.9593,-571.7676 1086.1234,-582.3294 1092.8923,-580.5454"/>
</g>
<!-- device&#45;mapper&#45;libs&#45;&gt;device&#45;mapper -->
<g id="edge2" class="edge">
<title>device&#45;mapper&#45;libs&#45;&gt;device&#45;mapper</title>
<path fill="none" stroke="#444444" stroke-opacity="0.333333" d="M1195.2791,-974.345C1185.0504,-936.0425 1153.0399,-847.5765 1133.5024,-802.6648"/>
<polygon fill="#444444" fill-opacity="0.333333" stroke="#444444" stroke-opacity="0.333333" points="1136.6912,-801.2218 1129.4167,-793.519 1130.3,-804.077 1136.6912,-801.2218"/>
</g>
<!-- device&#45;mapper&#45;&gt;Fedora Container Base -->
<g id="edge21" class="edge">
<title>device&#45;mapper&#45;&gt;Fedora Container Base</title>
<path fill="none" stroke="#444444" stroke-opacity="0.333333" d="M1115.5212,-757.3005C1109.1731,-718.5576 1094.2748,-627.6331 1086.6985,-581.395"/>
<polygon fill="#444444" fill-opacity="0.333333" stroke="#444444" stroke-opacity="0.333333" points="1090.1399,-580.7515 1085.0689,-571.4491 1083.232,-581.8835 1090.1399,-580.7515"/>
</g>
<!-- device&#45;mapper&#45;&gt;device&#45;mapper&#45;libs -->
<g id="edge22" class="edge">
<title>device&#45;mapper&#45;&gt;device&#45;mapper&#45;libs</title>
<path fill="none" stroke="#444444" stroke-opacity="0.333333" d="M1121.1209,-793.845C1131.3496,-832.1475 1163.3601,-920.6135 1182.8976,-965.5252"/>
<polygon fill="#444444" fill-opacity="0.333333" stroke="#444444" stroke-opacity="0.333333" points="1179.7088,-966.9682 1186.9833,-974.671 1186.1,-964.113 1179.7088,-966.9682"/>
</g>
<!-- device&#45;mapper&#45;&gt;systemd -->
<g id="edge23" class="edge">
<title>device&#45;mapper&#45;&gt;systemd</title>
<path fill="none" stroke="#444444" stroke-opacity="0.333333" d="M1108.5923,-757.0781C1078.0239,-700.3022 985.0682,-527.6522 948.868,-460.4163"/>
<polygon fill="#444444" fill-opacity="0.333333" stroke="#444444" stroke-opacity="0.333333" points="951.7754,-458.4332 943.953,-451.2875 945.612,-461.7517 951.7754,-458.4332"/>
</g>
<!-- device&#45;mapper&#45;&gt;util&#45;linux -->
<g id="edge24" class="edge">
<title>device&#45;mapper&#45;&gt;util&#45;linux</title>
<path fill="none" stroke="#444444" stroke-opacity="0.333333" d="M1196.8707,-757.3895C1198.6413,-756.9808 1200.4125,-756.572 1202.1808,-756.1638"/>
<polygon fill="#444444" fill-opacity="0.333333" stroke="#444444" stroke-opacity="0.333333" points="1203.2952,-759.4987 1212.2517,-753.8391 1201.7207,-752.678 1203.2952,-759.4987"/>
</g>
<!-- libargon2&#45;&gt;Fedora Container Base -->
<g id="edge3" class="edge">
<title>libargon2&#45;&gt;Fedora Container Base</title>
<path fill="none" stroke="#444444" stroke-opacity="0.333333" d="M1044.6582,-1057.8974C1050.4318,-980.0921 1072.9625,-676.4677 1079.9927,-581.728"/>
<polygon fill="#444444" fill-opacity="0.333333" stroke="#444444" stroke-opacity="0.333333" points="1083.5032,-581.7157 1080.7529,-571.4841 1076.5223,-581.1976 1083.5032,-581.7157"/>
</g>
<!-- systemd&#45;&gt;Fedora Container Base -->
<g id="edge4" class="edge">
<title>systemd&#45;&gt;Fedora Container Base</title>
<path fill="none" stroke="#444444" stroke-opacity="0.333333" d="M956.6798,-451.4536C982.1245,-472.1218 1023.7161,-505.9059 1051.9659,-528.8527"/>
<polygon fill="#444444" fill-opacity="0.333333" stroke="#444444" stroke-opacity="0.333333" points="1049.9447,-531.72 1059.9134,-535.3082 1054.3581,-526.2866 1049.9447,-531.72"/>
</g>
<!-- systemd&#45;&gt;util&#45;linux -->
<g id="edge5" class="edge">
<title>systemd&#45;&gt;util&#45;linux</title>
<path fill="none" stroke="#444444" stroke-opacity="0.333333" d="M954.6419,-451.4151C1013.2441,-503.656 1182.0356,-654.1249 1249.1223,-713.9293"/>
<polygon fill="#444444" fill-opacity="0.333333" stroke="#444444" stroke-opacity="0.333333" points="1246.9915,-716.7186 1256.7851,-720.7603 1251.6495,-711.4934 1246.9915,-716.7186"/>
</g>
<!-- systemd&#45;&gt;shadow&#45;utils -->
<g id="edge6" class="edge">
<title>systemd&#45;&gt;shadow&#45;utils</title>
<path fill="none" stroke="#444444" stroke-opacity="0.333333" d="M996.1036,-448.2992C1056.7673,-463.091 1149.5507,-485.7146 1215.9612,-501.9077"/>
<polygon fill="#444444" fill-opacity="0.333333" stroke="#444444" stroke-opacity="0.333333" points="1215.4278,-505.3801 1225.9723,-504.3487 1217.0861,-498.5793 1215.4278,-505.3801"/>
</g>
<!-- systemd&#45;&gt;cryptsetup&#45;libs -->
<g id="edge7" class="edge">
<title>systemd&#45;&gt;cryptsetup&#45;libs</title>
<path fill="none" stroke="#444444" stroke-opacity="0.333333" d="M936.9994,-451.3611C947.2545,-518.3333 983.02,-751.9042 995.5241,-833.5631"/>
<polygon fill="#444444" fill-opacity="0.333333" stroke="#444444" stroke-opacity="0.333333" points="992.0898,-834.2595 997.0632,-843.6145 999.0092,-833.1999 992.0898,-834.2595"/>
</g>
<!-- systemd&#45;&gt;iptables&#45;libs -->
<g id="edge8" class="edge">
<title>systemd&#45;&gt;iptables&#45;libs</title>
<path fill="none" stroke="#444444" stroke-opacity="0.333333" d="M927.2828,-451.4625C905.9729,-507.5308 841.3618,-677.5286 815.7813,-744.8333"/>
<polygon fill="#444444" fill-opacity="0.333333" stroke="#444444" stroke-opacity="0.333333" points="812.4427,-743.7662 812.1615,-754.3573 818.986,-746.2532 812.4427,-743.7662"/>
</g>
<!-- systemd&#45;&gt;libseccomp -->
<g id="edge9" class="edge">
<title>systemd&#45;&gt;libseccomp</title>
<path fill="none" stroke="#444444" stroke-opacity="0.333333" d="M878.4574,-415.1902C848.099,-405.3799 810.3662,-393.1865 778.6275,-382.93"/>
<polygon fill="#444444" fill-opacity="0.333333" stroke="#444444" stroke-opacity="0.333333" points="779.5765,-379.5586 768.9847,-379.814 777.424,-386.2194 779.5765,-379.5586"/>
</g>
<!-- systemd&#45;&gt;systemd&#45;pam -->
<g id="edge10" class="edge">
<title>systemd&#45;&gt;systemd&#45;pam</title>
<path fill="none" stroke="#444444" stroke-opacity="0.333333" d="M947.016,-415.0945C966.6438,-379.4355 1002.6297,-300.0781 1018.5201,-257.7948"/>
<polygon fill="#444444" fill-opacity="0.333333" stroke="#444444" stroke-opacity="0.333333" points="1021.9034,-258.7313 1022.0204,-248.1371 1015.3223,-256.346 1021.9034,-258.7313"/>
</g>
<!-- systemd&#45;&gt;systemd&#45;rpm&#45;macros -->
<g id="edge11" class="edge">
<title>systemd&#45;&gt;systemd&#45;rpm&#45;macros</title>
<path fill="none" stroke="#444444" stroke-opacity="0.333333" d="M918.8264,-415.102C862.7519,-349.1398 669.2622,-121.5316 603.4027,-44.059"/>
<polygon fill="#444444" fill-opacity="0.333333" stroke="#444444" stroke-opacity="0.333333" points="605.8683,-41.5555 596.7247,-36.2034 600.535,-46.0894 605.8683,-41.5555"/>
</g>
<!-- systemd&#45;&gt;acl -->
<g id="edge12" class="edge">
<title>systemd&#45;&gt;acl</title>
<path fill="none" stroke="#444444" stroke-opacity="0.333333" d="M923.7617,-415.0193C901.7614,-376.753 850.5935,-287.7537 824.6746,-242.6715"/>
<polygon fill="#444444" fill-opacity="0.333333" stroke="#444444" stroke-opacity="0.333333" points="827.5651,-240.6769 819.5466,-233.7521 821.4966,-244.1659 827.5651,-240.6769"/>
</g>
<!-- systemd&#45;&gt;dbus -->
<g id="edge13" class="edge">
<title>systemd&#45;&gt;dbus</title>
<path fill="none" stroke="#444444" stroke-opacity="0.333333" d="M872.3309,-421.6806C789.1926,-406.1926 642.8646,-378.933 564.6021,-364.3533"/>
<polygon fill="#444444" fill-opacity="0.333333" stroke="#444444" stroke-opacity="0.333333" points="564.956,-360.8591 554.4841,-362.4685 563.674,-367.7407 564.956,-360.8591"/>
</g>
<!-- systemd&#45;&gt;kmod&#45;libs -->
<g id="edge14" class="edge">
<title>systemd&#45;&gt;kmod&#45;libs</title>
<path fill="none" stroke="#444444" stroke-opacity="0.333333" d="M943.3427,-415.0642C971.4237,-359.2091 1056.6817,-189.6247 1090.1785,-122.997"/>
<polygon fill="#444444" fill-opacity="0.333333" stroke="#444444" stroke-opacity="0.333333" points="1093.3674,-124.4461 1094.7322,-113.9395 1087.1133,-121.3018 1093.3674,-124.4461"/>
</g>
<!-- systemd&#45;&gt;qrencode&#45;libs -->
<g id="edge15" class="edge">
<title>systemd&#45;&gt;qrencode&#45;libs</title>
<path fill="none" stroke="#444444" stroke-opacity="0.333333" d="M956.8206,-414.8724C1004.4563,-376.2219 1115.1932,-286.3724 1168.9453,-242.7591"/>
<polygon fill="#444444" fill-opacity="0.333333" stroke="#444444" stroke-opacity="0.333333" points="1171.1965,-245.4398 1176.7566,-236.4212 1166.786,-240.004 1171.1965,-245.4398"/>
</g>
<!-- systemd&#45;&gt;libxkbcommon -->
<g id="edge16" class="edge">
<title>systemd&#45;&gt;libxkbcommon</title>
<path fill="none" stroke="#444444" stroke-dasharray="5,2" stroke-opacity="0.333333" d="M899.6163,-451.3308C827.8321,-488.9217 662.8559,-575.314 583.9666,-616.6257"/>
<polygon fill="#444444" fill-opacity="0.333333" stroke="#444444" stroke-opacity="0.333333" points="582.0199,-613.6942 574.7847,-621.4339 585.2673,-619.8954 582.0199,-613.6942"/>
</g>
<!-- systemd&#45;&gt;diffutils -->
<g id="edge17" class="edge">
<title>systemd&#45;&gt;diffutils</title>
<path fill="none" stroke="#444444" stroke-dasharray="5,2" stroke-opacity="0.333333" d="M933.9629,-414.8915C933.2075,-361.0691 930.9909,-203.1309 930.0789,-138.1532"/>
<polygon fill="#444444" fill-opacity="0.333333" stroke="#444444" stroke-opacity="0.333333" points="933.5744,-137.7975 929.9343,-127.8476 926.5751,-137.8958 933.5744,-137.7975"/>
</g>
<!-- util&#45;linux&#45;&gt;Fedora Container Base -->
<g id="edge18" class="edge">
<title>util&#45;linux&#45;&gt;Fedora Container Base</title>
<path fill="none" stroke="#444444" stroke-opacity="0.333333" d="M1258.0475,-720.7418C1223.0082,-687.4023 1148.2875,-616.3066 1108.4278,-578.3805"/>
<polygon fill="#444444" fill-opacity="0.333333" stroke="#444444" stroke-opacity="0.333333" points="1110.6,-575.6162 1100.9427,-571.2586 1105.7747,-580.6874 1110.6,-575.6162"/>
</g>
<!-- util&#45;linux&#45;&gt;libfdisk -->
<g id="edge19" class="edge">
<title>util&#45;linux&#45;&gt;libfdisk</title>
<path fill="none" stroke="#444444" stroke-opacity="0.333333" d="M1293.3002,-756.9536C1323.9406,-791.1563 1390.4811,-865.4328 1425.9455,-905.0203"/>
<polygon fill="#444444" fill-opacity="0.333333" stroke="#444444" stroke-opacity="0.333333" points="1423.738,-907.8015 1433.0174,-912.9144 1428.9518,-903.1307 1423.738,-907.8015"/>
</g>
<!-- util&#45;linux&#45;&gt;libutempter -->
<g id="edge20" class="edge">
<title>util&#45;linux&#45;&gt;libutempter</title>
<path fill="none" stroke="#444444" stroke-opacity="0.333333" d="M1341.8352,-737.6629C1357.9476,-737.3625 1375.3961,-737.0371 1392.0953,-736.7257"/>
<polygon fill="#444444" fill-opacity="0.333333" stroke="#444444" stroke-opacity="0.333333" points="1392.4444,-740.2199 1402.3774,-736.534 1392.3138,-733.2211 1392.4444,-740.2199"/>
</g>
<!-- shadow&#45;utils&#45;&gt;Fedora Container Base -->
<g id="edge29" class="edge">
<title>shadow&#45;utils&#45;&gt;Fedora Container Base</title>
<path fill="none" stroke="#444444" stroke-opacity="0.333333" d="M1226.0676,-532.0134C1212.2772,-534.0553 1197.5657,-536.2335 1183.0105,-538.3887"/>
<polygon fill="#444444" fill-opacity="0.333333" stroke="#444444" stroke-opacity="0.333333" points="1182.3514,-534.948 1172.972,-539.875 1183.3768,-541.8725 1182.3514,-534.948"/>
</g>
<!-- shadow&#45;utils&#45;&gt;libsemanage -->
<g id="edge30" class="edge">
<title>shadow&#45;utils&#45;&gt;libsemanage</title>
<path fill="none" stroke="#444444" stroke-opacity="0.333333" d="M1353.2238,-539.6006C1395.3487,-553.0143 1452.9649,-571.3608 1497.2509,-585.4627"/>
<polygon fill="#444444" fill-opacity="0.333333" stroke="#444444" stroke-opacity="0.333333" points="1496.4672,-588.8862 1507.0578,-588.5854 1498.5912,-582.2162 1496.4672,-588.8862"/>
</g>
<!-- cryptsetup&#45;libs&#45;&gt;Fedora Container Base -->
<g id="edge33" class="edge">
<title>cryptsetup&#45;libs&#45;&gt;Fedora Container Base</title>
<path fill="none" stroke="#444444" stroke-opacity="0.333333" d="M1004.777,-843.6251C1018.6009,-791.7258 1057.995,-643.8278 1074.5873,-581.5351"/>
<polygon fill="#444444" fill-opacity="0.333333" stroke="#444444" stroke-opacity="0.333333" points="1078.0368,-582.1826 1077.2287,-571.6186 1071.2726,-580.3808 1078.0368,-582.1826"/>
</g>
<!-- cryptsetup&#45;libs&#45;&gt;device&#45;mapper&#45;libs -->
<g id="edge34" class="edge">
<title>cryptsetup&#45;libs&#45;&gt;device&#45;mapper&#45;libs</title>
<path fill="none" stroke="#444444" stroke-opacity="0.333333" d="M1027.4138,-880.1833C1062.586,-903.3981 1123.5259,-943.6205 1162.2226,-969.1617"/>
<polygon fill="#444444" fill-opacity="0.333333" stroke="#444444" stroke-opacity="0.333333" points="1160.326,-972.1035 1170.6,-974.6911 1164.1821,-966.2613 1160.326,-972.1035"/>
</g>
<!-- cryptsetup&#45;libs&#45;&gt;libargon2 -->
<g id="edge35" class="edge">
<title>cryptsetup&#45;libs&#45;&gt;libargon2</title>
<path fill="none" stroke="#444444" stroke-opacity="0.333333" d="M1003.582,-880.2717C1011.1764,-917.7349 1028.5623,-1003.4993 1037.6032,-1048.098"/>
<polygon fill="#444444" fill-opacity="0.333333" stroke="#444444" stroke-opacity="0.333333" points="1034.1903,-1048.8792 1039.6074,-1057.9845 1041.0508,-1047.4885 1034.1903,-1048.8792"/>
</g>
<!-- iptables&#45;libs&#45;&gt;Fedora Container Base -->
<g id="edge36" class="edge">
<title>iptables&#45;libs&#45;&gt;Fedora Container Base</title>
<path fill="none" stroke="#444444" stroke-opacity="0.333333" d="M828.3229,-754.374C878.1492,-714.9012 995.6141,-621.8447 1051.5104,-577.5633"/>
<polygon fill="#444444" fill-opacity="0.333333" stroke="#444444" stroke-opacity="0.333333" points="1053.9494,-580.0964 1059.6144,-571.1433 1049.6026,-574.6095 1053.9494,-580.0964"/>
</g>
<!-- iptables&#45;libs&#45;&gt;libpcap -->
<g id="edge37" class="edge">
<title>iptables&#45;libs&#45;&gt;libpcap</title>
<path fill="none" stroke="#444444" stroke-opacity="0.333333" d="M804.5085,-791.0385C803.1897,-826.5259 800.2806,-904.8044 798.7118,-947.0171"/>
<polygon fill="#444444" fill-opacity="0.333333" stroke="#444444" stroke-opacity="0.333333" points="795.2084,-947.0458 798.3346,-957.1689 802.2036,-947.3058 795.2084,-947.0458"/>
</g>
<!-- libseccomp&#45;&gt;Fedora Container Base -->
<g id="edge38" class="edge">
<title>libseccomp&#45;&gt;Fedora Container Base</title>
<path fill="none" stroke="#444444" stroke-opacity="0.333333" d="M747.9415,-379.8187C815.7036,-415.0041 965.435,-492.7519 1039.2511,-531.0808"/>
<polygon fill="#444444" fill-opacity="0.333333" stroke="#444444" stroke-opacity="0.333333" points="1037.8056,-534.2739 1048.2934,-535.776 1041.0315,-528.0615 1037.8056,-534.2739"/>
</g>
<!-- systemd&#45;pam&#45;&gt;Fedora Container Base -->
<g id="edge39" class="edge">
<title>systemd&#45;pam&#45;&gt;Fedora Container Base</title>
<path fill="none" stroke="#444444" stroke-opacity="0.333333" d="M1029.0826,-248.3761C1038.4528,-302.2729 1065.9864,-460.6453 1077.2316,-525.3274"/>
<polygon fill="#444444" fill-opacity="0.333333" stroke="#444444" stroke-opacity="0.333333" points="1073.7911,-525.972 1078.9523,-535.2247 1080.6877,-524.773 1073.7911,-525.972"/>
</g>
<!-- systemd&#45;pam&#45;&gt;systemd -->
<g id="edge40" class="edge">
<title>systemd&#45;pam&#45;&gt;systemd</title>
<path fill="none" stroke="#444444" stroke-opacity="0.333333" d="M1013.104,-248.1855C993.4762,-283.8445 957.4903,-363.2019 941.5999,-405.4852"/>
<polygon fill="#444444" fill-opacity="0.333333" stroke="#444444" stroke-opacity="0.333333" points="938.2166,-404.5487 938.0996,-415.1429 944.7977,-406.934 938.2166,-404.5487"/>
</g>
<!-- acl&#45;&gt;Fedora Container Base -->
<g id="edge41" class="edge">
<title>acl&#45;&gt;Fedora Container Base</title>
<path fill="none" stroke="#444444" stroke-opacity="0.333333" d="M823.7114,-233.6254C869.1806,-289.8845 1007.8009,-461.3996 1061.0024,-527.226"/>
<polygon fill="#444444" fill-opacity="0.333333" stroke="#444444" stroke-opacity="0.333333" points="1058.338,-529.4974 1067.346,-535.0748 1063.7822,-525.0973 1058.338,-529.4974"/>
</g>
<!-- dbus&#45;&gt;dbus&#45;broker -->
<g id="edge42" class="edge">
<title>dbus&#45;&gt;dbus&#45;broker</title>
<path fill="none" stroke="#444444" stroke-opacity="0.333333" d="M551.738,-372.5177C611.5349,-399.434 724.0719,-450.0902 788.8514,-479.2493"/>
<polygon fill="#444444" fill-opacity="0.333333" stroke="#444444" stroke-opacity="0.333333" points="787.4951,-482.477 798.0505,-483.3901 790.3684,-476.0938 787.4951,-482.477"/>
</g>
<!-- kmod&#45;libs&#45;&gt;Fedora Container Base -->
<g id="edge43" class="edge">
<title>kmod&#45;libs&#45;&gt;Fedora Container Base</title>
<path fill="none" stroke="#444444" stroke-opacity="0.333333" d="M1103.032,-113.9259C1099.6753,-184.3886 1087.5302,-439.3391 1083.4487,-525.0191"/>
<polygon fill="#444444" fill-opacity="0.333333" stroke="#444444" stroke-opacity="0.333333" points="1079.9504,-524.9008 1082.9705,-535.0561 1086.9425,-525.234 1079.9504,-524.9008"/>
</g>
<!-- qrencode&#45;libs&#45;&gt;Fedora Container Base -->
<g id="edge44" class="edge">
<title>qrencode&#45;libs&#45;&gt;Fedora Container Base</title>
<path fill="none" stroke="#444444" stroke-opacity="0.333333" d="M1192.9988,-236.1518C1173.6824,-291.398 1115.1963,-458.6724 1091.8638,-525.4048"/>
<polygon fill="#444444" fill-opacity="0.333333" stroke="#444444" stroke-opacity="0.333333" points="1088.429,-524.6242 1088.4323,-535.2191 1095.0368,-526.9346 1088.429,-524.6242"/>
</g>
<!-- libxkbcommon&#45;&gt;Fedora Container Base -->
<g id="edge54" class="edge">
<title>libxkbcommon&#45;&gt;Fedora Container Base</title>
<path fill="none" stroke="#444444" stroke-opacity="0.333333" d="M622.9672,-626.3149C720.1357,-610.8688 881.2932,-585.2508 984.5387,-568.8386"/>
<polygon fill="#444444" fill-opacity="0.333333" stroke="#444444" stroke-opacity="0.333333" points="985.3292,-572.257 994.6557,-567.2304 984.2302,-565.3438 985.3292,-572.257"/>
</g>
<!-- libxkbcommon&#45;&gt;xkeyboard&#45;config -->
<g id="edge55" class="edge">
<title>libxkbcommon&#45;&gt;xkeyboard&#45;config</title>
<path fill="none" stroke="#444444" stroke-opacity="0.333333" d="M471.5028,-657.5276C388.4475,-679.3321 249.1948,-715.8901 162.0472,-738.769"/>
<polygon fill="#444444" fill-opacity="0.333333" stroke="#444444" stroke-opacity="0.333333" points="160.9931,-735.427 152.2096,-741.3517 162.7706,-742.1976 160.9931,-735.427"/>
</g>
<!-- diffutils&#45;&gt;Fedora Container Base -->
<g id="edge56" class="edge">
<title>diffutils&#45;&gt;Fedora Container Base</title>
<path fill="none" stroke="#444444" stroke-opacity="0.333333" d="M935.9392,-127.9467C959.6542,-196.9664 1044.0774,-442.6698 1072.6035,-525.6916"/>
<polygon fill="#444444" fill-opacity="0.333333" stroke="#444444" stroke-opacity="0.333333" points="1069.3131,-526.8863 1075.8727,-535.2063 1075.9332,-524.6116 1069.3131,-526.8863"/>
</g>
<!-- libfdisk&#45;&gt;Fedora Container Base -->
<g id="edge45" class="edge">
<title>libfdisk&#45;&gt;Fedora Container Base</title>
<path fill="none" stroke="#444444" stroke-opacity="0.333333" d="M1431.5892,-912.8699C1371.5998,-851.1553 1175.9666,-649.896 1106.6899,-578.6271"/>
<polygon fill="#444444" fill-opacity="0.333333" stroke="#444444" stroke-opacity="0.333333" points="1109.113,-576.0984 1099.6331,-571.3673 1104.0936,-580.9775 1109.113,-576.0984"/>
</g>
<!-- libutempter&#45;&gt;Fedora Container Base -->
<g id="edge46" class="edge">
<title>libutempter&#45;&gt;Fedora Container Base</title>
<path fill="none" stroke="#444444" stroke-opacity="0.333333" d="M1432.0189,-717.1507C1360.127,-683.4933 1206.2061,-611.4325 1128.71,-575.1513"/>
<polygon fill="#444444" fill-opacity="0.333333" stroke="#444444" stroke-opacity="0.333333" points="1129.739,-571.7685 1119.1983,-570.6982 1126.7709,-578.1081 1129.739,-571.7685"/>
</g>
<!-- libutempter&#45;&gt;shadow&#45;utils -->
<g id="edge47" class="edge">
<title>libutempter&#45;&gt;shadow&#45;utils</title>
<path fill="none" stroke="#444444" stroke-opacity="0.333333" d="M1455.8563,-717.0409C1424.9555,-679.1133 1353.6258,-591.5633 1317.8582,-547.6622"/>
<polygon fill="#444444" fill-opacity="0.333333" stroke="#444444" stroke-opacity="0.333333" points="1320.4359,-545.2849 1311.4061,-539.743 1315.009,-549.7064 1320.4359,-545.2849"/>
</g>
<!-- libpcap&#45;&gt;Fedora Container Base -->
<g id="edge25" class="edge">
<title>libpcap&#45;&gt;Fedora Container Base</title>
<path fill="none" stroke="#444444" stroke-opacity="0.333333" d="M809.882,-957.1876C854.8309,-890.5024 1011.1094,-658.6504 1064.2512,-579.8102"/>
<polygon fill="#444444" fill-opacity="0.333333" stroke="#444444" stroke-opacity="0.333333" points="1067.2364,-581.6433 1069.9235,-571.3948 1061.4319,-577.7307 1067.2364,-581.6433"/>
</g>
<!-- libpq&#45;&gt;Fedora Container Base -->
<g id="edge26" class="edge">
<title>libpq&#45;&gt;Fedora Container Base</title>
<path fill="none" stroke="#444444" stroke-opacity="0.333333" d="M1545.235,-434.0167C1451.7821,-458.0922 1259.5585,-507.613 1154.5262,-534.6715"/>
<polygon fill="#444444" fill-opacity="0.333333" stroke="#444444" stroke-opacity="0.333333" points="1153.4508,-531.3342 1144.6402,-537.2183 1155.1972,-538.1128 1153.4508,-531.3342"/>
</g>
<!-- postgresql&#45;&gt;Fedora Container Base -->
<g id="edge27" class="edge">
<title>postgresql&#45;&gt;Fedora Container Base</title>
<path fill="none" stroke="#444444" stroke-opacity="0.333333" d="M1533.4846,-307.4385C1447.3771,-354.3455 1217.5972,-479.518 1123.3283,-530.8709"/>
<polygon fill="#444444" fill-opacity="0.333333" stroke="#444444" stroke-opacity="0.333333" points="1121.4793,-527.8925 1114.372,-535.7498 1124.8279,-534.0396 1121.4793,-527.8925"/>
</g>
<!-- postgresql&#45;&gt;libpq -->
<g id="edge28" class="edge">
<title>postgresql&#45;&gt;libpq</title>
<path fill="none" stroke="#444444" stroke-opacity="0.333333" d="M1571.2912,-307.4841C1576.7149,-329.4561 1585.8951,-366.6459 1592.215,-392.2481"/>
<polygon fill="#444444" fill-opacity="0.333333" stroke="#444444" stroke-opacity="0.333333" points="1588.8523,-393.2306 1594.647,-402.1004 1595.6484,-391.553 1588.8523,-393.2306"/>
</g>
<!-- libsemanage&#45;&gt;Fedora Container Base -->
<g id="edge32" class="edge">
<title>libsemanage&#45;&gt;Fedora Container Base</title>
<path fill="none" stroke="#444444" stroke-opacity="0.333333" d="M1487.8359,-598.2095C1409.7237,-589.5693 1286.9643,-575.9906 1196.9179,-566.0303"/>
<polygon fill="#444444" fill-opacity="0.333333" stroke="#444444" stroke-opacity="0.333333" points="1197.2574,-562.5466 1186.9331,-564.9259 1196.4877,-569.5042 1197.2574,-562.5466"/>
</g>
<!-- libicu&#45;&gt;Fedora Container Base -->
<g id="edge31" class="edge">
<title>libicu&#45;&gt;Fedora Container Base</title>
<path fill="none" stroke="#444444" stroke-opacity="0.333333" d="M1426.0172,-157.7678C1368.8895,-223.4742 1171.7654,-450.1998 1104.6688,-527.3721"/>
<polygon fill="#444444" fill-opacity="0.333333" stroke="#444444" stroke-opacity="0.333333" points="1101.7853,-525.3542 1097.8654,-535.1972 1107.0679,-529.9471 1101.7853,-525.3542"/>
</g>
<!-- dbus&#45;broker&#45;&gt;Fedora Container Base -->
<g id="edge48" class="edge">
<title>dbus&#45;broker&#45;&gt;Fedora Container Base</title>
<path fill="none" stroke="#444444" stroke-opacity="0.333333" d="M911.6739,-517.0791C939.5338,-523.0051 971.4206,-529.7877 1000.0193,-535.8708"/>
<polygon fill="#444444" fill-opacity="0.333333" stroke="#444444" stroke-opacity="0.333333" points="999.4765,-539.3336 1009.9859,-537.9908 1000.9329,-532.4868 999.4765,-539.3336"/>
</g>
<!-- dbus&#45;broker&#45;&gt;systemd -->
<g id="edge49" class="edge">
<title>dbus&#45;broker&#45;&gt;systemd</title>
<path fill="none" stroke="#444444" stroke-opacity="0.333333" d="M863.6428,-483.3347C874.8256,-475.3926 888.1164,-465.9533 900.1323,-457.4194"/>
<polygon fill="#444444" fill-opacity="0.333333" stroke="#444444" stroke-opacity="0.333333" points="902.4817,-460.0438 908.6081,-451.3999 898.4284,-454.3367 902.4817,-460.0438"/>
</g>
<!-- dbus&#45;broker&#45;&gt;shadow&#45;utils -->
<g id="edge50" class="edge">
<title>dbus&#45;broker&#45;&gt;shadow&#45;utils</title>
<path fill="none" stroke="#444444" stroke-opacity="0.333333" d="M911.8079,-504.6742C994.8691,-508.3214 1129.5293,-514.2341 1215.5233,-518.01"/>
<polygon fill="#444444" fill-opacity="0.333333" stroke="#444444" stroke-opacity="0.333333" points="1215.6184,-521.5175 1225.7624,-518.4596 1215.9256,-514.5242 1215.6184,-521.5175"/>
</g>
<!-- dbus&#45;broker&#45;&gt;dbus&#45;common -->
<g id="edge51" class="edge">
<title>dbus&#45;broker&#45;&gt;dbus&#45;common</title>
<path fill="none" stroke="#444444" stroke-opacity="0.333333" d="M820.3721,-519.5487C803.3591,-536.8783 777.5325,-563.1854 758.4303,-582.643"/>
<polygon fill="#444444" fill-opacity="0.333333" stroke="#444444" stroke-opacity="0.333333" points="755.7231,-580.4045 751.2151,-589.9925 760.7183,-585.3085 755.7231,-580.4045"/>
</g>
<!-- dbus&#45;common&#45;&gt;Fedora Container Base -->
<g id="edge52" class="edge">
<title>dbus&#45;common&#45;&gt;Fedora Container Base</title>
<path fill="none" stroke="#444444" stroke-opacity="0.333333" d="M811.1822,-595.9466C862.3036,-587.905 929.5903,-577.3205 984.3163,-568.7118"/>
<polygon fill="#444444" fill-opacity="0.333333" stroke="#444444" stroke-opacity="0.333333" points="985.0473,-572.14 994.3819,-567.1285 983.9595,-565.225 985.0473,-572.14"/>
</g>
<!-- dbus&#45;common&#45;&gt;systemd -->
<g id="edge53" class="edge">
<title>dbus&#45;common&#45;&gt;systemd</title>
<path fill="none" stroke="#444444" stroke-opacity="0.333333" d="M754.09,-590.1231C790.1758,-558.6884 864.5695,-493.8833 905.5603,-458.1758"/>
<polygon fill="#444444" fill-opacity="0.333333" stroke="#444444" stroke-opacity="0.333333" points="908.0505,-460.6483 913.2918,-451.4407 903.4526,-455.3701 908.0505,-460.6483"/>
</g>
<!-- postgresql&#45;server&#45;&gt;Fedora Container Base -->
<g id="edge57" class="edge">
<title>postgresql&#45;server&#45;&gt;Fedora Container Base</title>
<path fill="none" stroke="#444444" stroke-opacity="0.333333" d="M1336.5547,-362.0461C1286.1679,-399.9239 1170.1558,-487.1349 1113.8749,-529.4435"/>
<polygon fill="#444444" fill-opacity="0.333333" stroke="#444444" stroke-opacity="0.333333" points="1111.5868,-526.7849 1105.6966,-535.5915 1115.793,-532.3802 1111.5868,-526.7849"/>
</g>
<!-- postgresql&#45;server&#45;&gt;systemd -->
<g id="edge58" class="edge">
<title>postgresql&#45;server&#45;&gt;systemd</title>
<path fill="none" stroke="#444444" stroke-opacity="0.333333" d="M1274.7319,-361.8556C1195.8175,-378.3921 1080.2877,-402.6015 1006.1694,-418.133"/>
<polygon fill="#444444" fill-opacity="0.333333" stroke="#444444" stroke-opacity="0.333333" points="1005.0635,-414.7886 995.994,-420.2652 1006.4993,-421.6398 1005.0635,-414.7886"/>
</g>
<!-- postgresql&#45;server&#45;&gt;shadow&#45;utils -->
<g id="edge61" class="edge">
<title>postgresql&#45;server&#45;&gt;shadow&#45;utils</title>
<path fill="none" stroke="#444444" stroke-opacity="0.333333" d="M1354.2909,-361.8418C1343.0434,-392.9825 1319.9012,-457.0562 1306.5992,-493.8853"/>
<polygon fill="#444444" fill-opacity="0.333333" stroke="#444444" stroke-opacity="0.333333" points="1303.2316,-492.9062 1303.1264,-503.5005 1309.8153,-495.2841 1303.2316,-492.9062"/>
</g>
<!-- postgresql&#45;server&#45;&gt;libpq -->
<g id="edge59" class="edge">
<title>postgresql&#45;server&#45;&gt;libpq</title>
<path fill="none" stroke="#444444" stroke-opacity="0.333333" d="M1417.2738,-361.9068C1452.9027,-373.3176 1498.9841,-388.076 1535.8406,-399.88"/>
<polygon fill="#444444" fill-opacity="0.333333" stroke="#444444" stroke-opacity="0.333333" points="1534.8952,-403.2523 1545.4863,-402.9692 1537.0303,-396.5858 1534.8952,-403.2523"/>
</g>
<!-- postgresql&#45;server&#45;&gt;postgresql -->
<g id="edge60" class="edge">
<title>postgresql&#45;server&#45;&gt;postgresql</title>
<path fill="none" stroke="#444444" stroke-opacity="0.333333" d="M1428.823,-325.8137C1449.3608,-320.3772 1472.0039,-314.3834 1492.905,-308.8507"/>
<polygon fill="#444444" fill-opacity="0.333333" stroke="#444444" stroke-opacity="0.333333" points="1493.9176,-312.2032 1502.689,-306.2607 1492.1263,-305.4363 1493.9176,-312.2032"/>
</g>
<!-- postgresql&#45;server&#45;&gt;libicu -->
<g id="edge62" class="edge">
<title>postgresql&#45;server&#45;&gt;libicu</title>
<path fill="none" stroke="#444444" stroke-opacity="0.333333" d="M1367.9793,-325.7084C1382.1921,-289.8533 1413.9879,-209.6406 1430.7992,-167.2299"/>
<polygon fill="#444444" fill-opacity="0.333333" stroke="#444444" stroke-opacity="0.333333" points="1434.1054,-168.3871 1434.5368,-157.801 1427.598,-165.8076 1434.1054,-168.3871"/>
</g>
<!-- Fedora Container Base -->
<g id="node1" class="node">
<title>Fedora Container Base</title>
<ellipse fill="none" stroke="#000000" cx="1082.1" cy="-553.33" rx="136.5" ry="18"/>
<text text-anchor="middle" x="1082.1" y="-549.63" font-family="Helvetica,sans-Serif" font-weight="bold" font-size="14.00" fill="#000000">Fedora Container Base (197.9 MB)</text>
</g>
<!-- device&#45;mapper&#45;libs -->
<g id="node2" class="node">
<title>device&#45;mapper&#45;libs</title>
<text text-anchor="middle" x="1197.9" y="-989.01" font-family="Helvetica,sans-Serif" font-weight="bold" font-size="14.00" fill="#000000">device&#45;mapper&#45;libs (417.5 kB)</text>
</g>
<!-- device&#45;mapper -->
<g id="node3" class="node">
<title>device&#45;mapper</title>
<text text-anchor="middle" x="1118.5" y="-771.78" font-family="Helvetica,sans-Serif" font-weight="bold" font-size="14.00" fill="#000000">device&#45;mapper (350.3 kB)</text>
</g>
<!-- libargon2 -->
<g id="node4" class="node">
<title>libargon2</title>
<text text-anchor="middle" x="1043.3" y="-1072.5" font-family="Helvetica,sans-Serif" font-weight="bold" font-size="14.00" fill="#000000">libargon2 (54.9 kB)</text>
</g>
<!-- systemd -->
<g id="node5" class="node">
<title>systemd</title>
<text text-anchor="middle" x="934.22" y="-429.51" font-family="Helvetica,sans-Serif" font-weight="bold" font-size="14.00" fill="#000000">systemd (12.3 MB)</text>
</g>
<!-- util&#45;linux -->
<g id="node6" class="node">
<title>util&#45;linux</title>
<text text-anchor="middle" x="1277.1" y="-735.17" font-family="Helvetica,sans-Serif" font-weight="bold" font-size="14.00" fill="#000000">util&#45;linux (12.7 MB)</text>
</g>
<!-- shadow&#45;utils -->
<g id="node7" class="node">
<title>shadow&#45;utils</title>
<text text-anchor="middle" x="1296.6" y="-517.87" font-family="Helvetica,sans-Serif" font-weight="bold" font-size="14.00" fill="#000000">shadow&#45;utils (3.9 MB)</text>
</g>
<!-- cryptsetup&#45;libs -->
<g id="node8" class="node">
<title>cryptsetup&#45;libs</title>
<text text-anchor="middle" x="999.88" y="-858.31" font-family="Helvetica,sans-Serif" font-weight="bold" font-size="14.00" fill="#000000">cryptsetup&#45;libs (1.8 MB)</text>
</g>
<!-- iptables&#45;libs -->
<g id="node9" class="node">
<title>iptables&#45;libs</title>
<text text-anchor="middle" x="805.19" y="-769" font-family="Helvetica,sans-Serif" font-weight="bold" font-size="14.00" fill="#000000">iptables&#45;libs (155.9 kB)</text>
</g>
<!-- libseccomp -->
<g id="node10" class="node">
<title>libseccomp</title>
<text text-anchor="middle" x="713.24" y="-358.1" font-family="Helvetica,sans-Serif" font-weight="bold" font-size="14.00" fill="#000000">libseccomp (347.0 kB)</text>
</g>
<!-- systemd&#45;pam -->
<g id="node11" class="node">
<title>systemd&#45;pam</title>
<text text-anchor="middle" x="1025.9" y="-226.37" font-family="Helvetica,sans-Serif" font-weight="bold" font-size="14.00" fill="#000000">systemd&#45;pam (335.6 kB)</text>
</g>
<!-- systemd&#45;rpm&#45;macros -->
<g id="node12" class="node">
<title>systemd&#45;rpm&#45;macros</title>
<text text-anchor="middle" x="581.25" y="-14.3" font-family="Helvetica,sans-Serif" font-weight="bold" font-size="14.00" fill="#000000">systemd&#45;rpm&#45;macros (4.9 kB)</text>
</g>
<!-- acl -->
<g id="node13" class="node">
<title>acl</title>
<text text-anchor="middle" x="809.03" y="-211.76" font-family="Helvetica,sans-Serif" font-weight="bold" font-size="14.00" fill="#000000">acl (212.0 kB)</text>
</g>
<!-- dbus -->
<g id="node14" class="node">
<title>dbus</title>
<text text-anchor="middle" x="511.71" y="-350.8" font-family="Helvetica,sans-Serif" font-weight="bold" font-size="14.00" fill="#000000">dbus (0.0 B)</text>
</g>
<!-- kmod&#45;libs -->
<g id="node15" class="node">
<title>kmod&#45;libs</title>
<text text-anchor="middle" x="1103.9" y="-92.004" font-family="Helvetica,sans-Serif" font-weight="bold" font-size="14.00" fill="#000000">kmod&#45;libs (197.4 kB)</text>
</g>
<!-- qrencode&#45;libs -->
<g id="node16" class="node">
<title>qrencode&#45;libs</title>
<text text-anchor="middle" x="1199.3" y="-214.43" font-family="Helvetica,sans-Serif" font-weight="bold" font-size="14.00" fill="#000000">qrencode&#45;libs (159.3 kB)</text>
</g>
<!-- libxkbcommon -->
<g id="node17" class="node">
<title>libxkbcommon</title>
<text text-anchor="middle" x="540.4" y="-635.74" font-family="Helvetica,sans-Serif" font-weight="bold" font-size="14.00" fill="#000000">libxkbcommon (276.4 kB)</text>
</g>
<!-- diffutils -->
<g id="node18" class="node">
<title>diffutils</title>
<text text-anchor="middle" x="929.68" y="-106.03" font-family="Helvetica,sans-Serif" font-weight="bold" font-size="14.00" fill="#000000">diffutils (1.5 MB)</text>
</g>
<!-- libfdisk -->
<g id="node19" class="node">
<title>libfdisk</title>
<text text-anchor="middle" x="1449.3" y="-927.39" font-family="Helvetica,sans-Serif" font-weight="bold" font-size="14.00" fill="#000000">libfdisk (488.8 kB)</text>
</g>
<!-- libutempter -->
<g id="node20" class="node">
<title>libutempter</title>
<text text-anchor="middle" x="1470.7" y="-731.56" font-family="Helvetica,sans-Serif" font-weight="bold" font-size="14.00" fill="#000000">libutempter (58.2 kB)</text>
</g>
<!-- libpcap -->
<g id="node21" class="node">
<title>libpcap</title>
<text text-anchor="middle" x="797.66" y="-971.62" font-family="Helvetica,sans-Serif" font-weight="bold" font-size="14.00" fill="#000000">libpcap (375.4 kB)</text>
</g>
<!-- xkeyboard&#45;config -->
<g id="node22" class="node">
<title>xkeyboard&#45;config</title>
<text text-anchor="middle" x="83.5" y="-755.69" font-family="Helvetica,sans-Serif" font-weight="bold" font-size="14.00" fill="#000000">xkeyboard&#45;config (5.4 MB)</text>
</g>
<!-- libpq -->
<g id="node23" class="node">
<title>libpq</title>
<text text-anchor="middle" x="1599.1" y="-416.44" font-family="Helvetica,sans-Serif" font-weight="bold" font-size="14.00" fill="#000000">libpq (718.6 kB)</text>
</g>
<!-- postgresql -->
<g id="node24" class="node">
<title>postgresql</title>
<text text-anchor="middle" x="1566.8" y="-285.59" font-family="Helvetica,sans-Serif" font-weight="bold" font-size="14.00" fill="#000000">postgresql (5.7 MB)</text>
</g>
<!-- libsemanage -->
<g id="node25" class="node">
<title>libsemanage</title>
<text text-anchor="middle" x="1563.6" y="-602.89" font-family="Helvetica,sans-Serif" font-weight="bold" font-size="14.00" fill="#000000">libsemanage (313.1 kB)</text>
</g>
<!-- libicu -->
<g id="node26" class="node">
<title>libicu</title>
<text text-anchor="middle" x="1441.7" y="-136.03" font-family="Helvetica,sans-Serif" font-weight="bold" font-size="14.00" fill="#000000">libicu (31.5 MB)</text>
</g>
<!-- dbus&#45;broker -->
<g id="node27" class="node">
<title>dbus&#45;broker</title>
<text text-anchor="middle" x="838.15" y="-497.74" font-family="Helvetica,sans-Serif" font-weight="bold" font-size="14.00" fill="#000000">dbus&#45;broker (423.2 kB)</text>
</g>
<!-- dbus&#45;common -->
<g id="node28" class="node">
<title>dbus&#45;common</title>
<text text-anchor="middle" x="733.35" y="-604.49" font-family="Helvetica,sans-Serif" font-weight="bold" font-size="14.00" fill="#000000">dbus&#45;common (11.2 kB)</text>
</g>
<!-- postgresql&#45;server -->
<g id="node29" class="node">
<title>postgresql&#45;server</title>
<text text-anchor="middle" x="1360.8" y="-338.22" font-family="Helvetica,sans-Serif" font-weight="bold" font-size="22.00" fill="#cc0066">postgresql&#45;server (21.3 MB)</text>
</g>
</g>

<script type="text/javascript"><![CDATA[

document.addEventListener('click', function(e) {
      e = e || window.event;
      var target = e.target || e.srcElement;
      text = target.parentElement.querySelector("title").textContent;

      console.log("Clicked on: " + text);
      // reset all strokes
      var nodes = document.getElementsByClassName("edge");

      for (index = 0, len = nodes.length; index < len; ++index) {
          //var title = nodes[index].querySelector("title").textContent.split("->");
          id = nodes[index].id;
          document.getElementById(id).querySelector("path").setAttribute("stroke-width", "1");
          document.getElementById(id).querySelector("path").setAttribute("stroke-opacity", "0.5");
          document.getElementById(id).querySelector("path").setAttribute("stroke", "#444444");
          document.getElementById(id).querySelector("polygon").setAttribute("stroke-width", "1");
          document.getElementById(id).querySelector("polygon").setAttribute("stroke-opacity", "0.5");
          document.getElementById(id).querySelector("polygon").setAttribute("stroke", "#444444");
      }
      // reset text highlight
      pkgs = document.getElementsByClassName("node");
      for (index2 = 0, len2 = pkgs.length; index2 < len2; ++index2) {
          target_id = pkgs[index2].id;
          document.getElementById(target_id).querySelector("text").setAttribute("font-weight", "normal");
      }

      // highlight deps
      var nodes = document.getElementsByClassName("edge");
      for (index = 0, len = nodes.length; index < len; ++index) {
        var title = nodes[index].querySelector("title").textContent.split("->");

        if (title[0] == text) {
          id = nodes[index].id;
          //console.log("ID:   " + id);
          document.getElementById(id).querySelector("path").setAttribute("stroke-width", "3");
          document.getElementById(id).querySelector("path").setAttribute("stroke-opacity", "1");
          document.getElementById(id).querySelector("path").setAttribute("stroke", "#aa3333");
          document.getElementById(id).querySelector("polygon").setAttribute("stroke-width", "5");
          document.getElementById(id).querySelector("polygon").setAttribute("stroke-opacity", "1");
          document.getElementById(id).querySelector("polygon").setAttribute("stroke", "#aa3333");

        }
        if (title[1] == text) {
          id = nodes[index].id;
          document.getElementById(id).querySelector("path").setAttribute("stroke-width", "3");
          document.getElementById(id).querySelector("path").setAttribute("stroke-opacity", "1");
          document.getElementById(id).querySelector("path").setAttribute("stroke", "#333377");
          document.getElementById(id).querySelector("polygon").setAttribute("stroke-width", "5");
          document.getElementById(id).querySelector("polygon").setAttribute("stroke-opacity", "1");
          document.getElementById(id).querySelector("polygon").setAttribute("stroke", "#333377");
        }

        if (title[0] == text || title[1] == text) {
          pkgs = document.getElementsByClassName("node");
          for (index2 = 0, len2 = pkgs.length; index2 < len2; ++index2) {
            var pkg_name = pkgs[index2].querySelector("title").textContent;
            if (pkg_name == title[0] || pkg_name == title[1]) {
              target_id = pkgs[index2].id;
              document.getElementById(target_id).querySelector("text").setAttribute("font-weight", "bold");
            }
          }
        }
      }


  }, false);

]]></script>


  <text
     id="text7664"
     y="19.384439"
     x="9.9055691"
     style="font-style:normal;font-weight:normal;font-size:12.49485588px;line-height:125%;font-family:sans-serif;letter-spacing:0px;word-spacing:0px;fill:#000000;fill-opacity:1;stroke:none;stroke-width:0.3123714px;stroke-linecap:butt;stroke-linejoin:miter;stroke-opacity:1"
     xml:space="preserve"><tspan
       style="font-size:12.00258541px;stroke-width:0.3123714px"
       y="19.384439"
       x="9.9055691"
       id="tspan7666"><a href="report-use-case-definition--postgresql--31.html"><tspan
   style="font-weight:bold;font-size:12.00258541px;fill:#0066ff;stroke-width:0.3123714px"
   id="tspan7668">PostgreSQL</tspan></a> on <a href="report-base-definition--fedora-container-base--31.html"><tspan
   style="font-weight:bold;font-size:12.00258541px;fill:#0066ff;stroke-width:0.3123714px"
   id="tspan7676">Fedora Container Base</tspan></a> (Fedora 31)</tspan></text>
  <text
     xml:space="preserve"
     style="font-style:normal;font-weight:normal;font-size:11.85299969px;line-height:125%;font-family:sans-serif;letter-spacing:0px;word-spacing:0px;fill:#000000;fill-opacity:1;stroke:none;stroke-width:0.296325px;stroke-linecap:butt;stroke-linejoin:miter;stroke-opacity:1"
     x="9.9365959"
     y="58.520042"
     id="text8235"><tspan
       id="tspan8237"
       x="9.9365959"
       y="58.520042"
       style="stroke-width:0.296325px;font-size:10.80232704px;fill:#666666">Generated by <a href="./"><tspan
   style="fill:#3771c8"
   id="tspan8255">Feedback Pipeline</tspan></a></tspan></text>
  <text
     xml:space="preserve"
     style="font-style:normal;font-weight:normal;font-size:12.49485588px;line-height:125%;font-family:sans-serif;letter-spacing:0px;word-spacing:0px;fill:#000000;fill-opacity:1;stroke:none;stroke-width:0.3123714px;stroke-linecap:butt;stroke-linejoin:miter;stroke-opacity:1"
     x="9.9055691"
     y="38.974205"
     id="text8245"><a href="graph--postgresql--fedora-container-base--31.svg"><tspan
       id="tspan8247"
       x="9.9055691"
       y="38.974205"
       style="font-weight:normal;font-size:12.00258541px;fill:#0066ff;stroke-width:0.3123714px">Expand base image</tspan></a></text>

</svg>
