<?xml version="1.0" encoding="UTF-8" standalone="no"?>
<!DOCTYPE svg PUBLIC "-//W3C//DTD SVG 1.1//EN"
 "http://www.w3.org/Graphics/SVG/1.1/DTD/svg11.dtd">
<!-- Generated by graphviz version 2.40.1 (0)
 -->
<!-- Title: packages Pages: 1 -->
<svg width="1340pt" height="1103pt"
 viewBox="0.00 0.00 1607.60 1323.88" xmlns="http://www.w3.org/2000/svg" xmlns:xlink="http://www.w3.org/1999/xlink">
<g id="graph0" class="graph" transform="scale(.8333 .8333) rotate(0) translate(122.7956 1196.0828)">
<title>packages</title>
<polygon fill="#dae2ff" stroke="transparent" points="-122.7956,127.7962 -122.7956,-1196.0828 1484.8033,-1196.0828 1484.8033,127.7962 -122.7956,127.7962"/>
<polygon fill="#bbd7d9" stroke="#bbd7d9" points="493.5446,-928.765 505.9788,-938.804 517.1199,-947.3707 527.7455,-956.5414 536.782,-995.3651 538.4818,-1001.5836 405.4803,-1107.9982 386.0023,-1108.1973 368.9051,-1108.7426 362.8164,-1109.0685 353.4438,-1109.7728 353.6992,-1079.163 353.6391,-1076.134 354.5518,-977.2935 357.962,-974.1814 354.4543,-970.943 349.2648,-969.3537 349.2648,-969.3537 354.4543,-970.943 357.962,-974.1814 354.5518,-977.2935 353.6391,-1076.134 353.6992,-1079.163 353.4438,-1109.7728 345.5515,-1110.8774 345.0794,-1110.7216 334.5702,-1107.4962 327.4237,-1105.4719 224.6713,-1083.5923 186.9685,-1009.4465 184.2513,-1008.3299 169.0212,-1002.4313 163.9927,-1000.6062 155.9291,-998.0685 138.5382,-993.429 137.4854,-993.1739 140.0083,-865.8031 144.4516,-865.8031 145.7079,-867.3276 150.4368,-870.1012 150.4368,-870.1012 145.7079,-867.3276 144.4516,-865.8031 140.0083,-865.8031 137.4854,-993.1739 133.016,-992.1989 106.3492,-987.6631 30.709,-962.5432 2.3323,-894.5285 -10.1951,-866.4443 -27.2812,-830.3156 -28.2186,-828.4301 -31.1411,-818.2217 -17.82,-793.3414 -18.1806,-741.9404 116.1716,-702.673 118.5414,-699.9951 120.6756,-699.2119 126.9049,-781.5027 128.8531,-781.4717 131.1623,-781.5141 132.2745,-781.5727 134.1157,-781.5363 136.2425,-750.7538 142.9738,-698.0191 146.032,-698.0191 150.6626,-738.4936 152.6139,-697.5169 153.2292,-697.5169 157.6088,-701.302 162.0204,-702.5383 167.6529,-700.8483 171.1645,-697.6857 172.8754,-697.6857 173.8006,-697.4092 177.8987,-697.4092 178.6224,-697.6188 182.2679,-697.6188 187.357,-645.5125 188.4792,-697.8317 188.9993,-697.9831 193.253,-697.9831 193.805,-697.8251 193.805,-697.8251 193.253,-697.9831 188.9993,-697.9831 188.4792,-697.8317 187.357,-645.5125 182.2679,-697.6188 178.6224,-697.6188 177.8987,-697.4092 173.8006,-697.4092 172.8754,-697.6857 171.1645,-697.6857 167.1827,-694.1198 162.5892,-692.8184 162.5892,-692.8184 167.1827,-694.1198 171.1645,-697.6857 167.6529,-700.8483 162.0204,-702.5383 157.6088,-701.302 153.2292,-697.5169 152.6139,-697.5169 150.6626,-738.4936 146.032,-698.0191 142.9738,-698.0191 136.2425,-750.7538 134.1157,-781.5363 132.2745,-781.5727 131.1623,-781.5141 128.8531,-781.4717 126.9049,-781.5027 120.6756,-699.2119 118.5414,-699.9951 116.1716,-702.673 -18.1806,-741.9404 -20.1555,-676.012 -77.2847,-608.2125 -89.8404,-591.3487 -110.0262,-563.6165 -110.9896,-553.1624 -111.458,-549.02 -113.9585,-530.3651 -118.7956,-499.1098 -115.4996,-486.9918 -48.989,-428.6463 34.2804,-398.935 46.1586,-394.4379 55.0853,-390.4767 72.1967,-382.5097 73.2749,-381.985 77.3641,-379.6378 92.9196,-397.4444 88.6535,-544.2785 85.0153,-544.2785 84.8543,-544.2316 84.8543,-544.2316 85.0153,-544.2785 88.6535,-544.2785 92.9196,-397.4444 98.7413,-403.8581 124.3653,-429.9236 210.5818,-528.1099 226.1492,-544.8784 233.7028,-553.3703 236.4818,-556.2212 236.6454,-556.3958 245.5968,-557.4248 254.2967,-558.5959 267.195,-560.8386 281.6797,-564.4987 289.9209,-566.7433 292.9388,-565.7083 303.1355,-562.6218 374.2594,-543.9483 391.3727,-538.7573 392.5077,-538.3903 401.7511,-535.2148 408.9719,-532.2949 416.4275,-536.4578 421.1833,-539.0023 438.1668,-547.3059 462.1586,-537.5168 541.0247,-502.8752 549.2845,-499.7856 553.2717,-498.56 557.4269,-497.5565 565.1613,-496.1952 574.6736,-495.7722 577.8348,-495.4258 581.6858,-495.261 581.9452,-495.267 586.1323,-495.6429 594.462,-495.3131 594.755,-495.3403 602.6834,-495.5645 603.8035,-495.5243 604.0217,-495.5307 604.9202,-495.6165 617.9874,-495.1873 627.3643,-493.6721 628.6337,-493.386 637.6401,-490.7707 651.0532,-485.1343 651.333,-484.9995 655.7224,-482.6015 664.8989,-476.9913 669.9142,-473.2814 677.6526,-467.0425 682.3951,-463.5553 702.3366,-445.2676 707.5488,-439.5862 715.1901,-430.7907 726.1146,-419.5789 747.9399,-469.1298 763.4827,-508.7484 771.1382,-536.4166 782.7281,-566.1108 819.4336,-649.4447 723.0076,-656.6126 716.0549,-656.7644 709.1212,-657.0942 708.3879,-657.0905 701.6934,-656.8804 697.2389,-656.9697 692.1804,-656.9378 691.593,-656.9644 681.3904,-657.1563 681.3326,-657.1558 679.2879,-657.0327 671.1251,-656.9613 665.2009,-656.7535 662.9853,-656.7897 657.6783,-656.7368 649.293,-657.2984 637.397,-658.4009 630.0048,-659.4647 616.9254,-662.0205 612.4805,-663.1169 595.4549,-667.7568 579.5674,-673.7128 570.2871,-677.6661 565.4933,-676.5507 560.9018,-679.9047 549.5992,-688.6125 524.7681,-708.8905 521.6635,-711.6232 515.2689,-716.8854 504.0835,-725.4396 498.9342,-728.756 485.7652,-736.4647 481.4205,-738.4724 468.0185,-743.1008 456.7859,-745.6354 440.347,-747.3762 437.0789,-747.9195 426.1381,-750.4053 423.5184,-751.1554 418.9515,-752.7358 414.0807,-754.7134 409.8567,-756.6824 407.7915,-757.7704 397.9158,-763.5953 389.4377,-769.1071 385.6283,-771.8055 378.8006,-777.472 370.906,-784.5109 315.3347,-827.1124 315.4174,-827.482 323.7377,-834.2085 324.4185,-834.7138 332.8359,-840.695 347.8817,-851.9678 355.3643,-856.7783 358.4229,-858.6386 359.775,-859.4147 374.7585,-867.5131 457.9137,-906.6724 476.655,-917.4033 493.5446,-928.765 493.5446,-928.765"/>
<polygon fill="#d8d6da" stroke="#d8d6da" points="590.6143,-774.597 586.2772,-750.3575 570.2871,-677.6661 579.5674,-673.7128 595.4549,-667.7568 612.4805,-663.1169 616.9254,-662.0205 630.0048,-659.4647 637.397,-658.4009 649.293,-657.2984 657.6783,-656.7368 662.9853,-656.7897 665.2009,-656.7535 671.1251,-656.9613 679.2879,-657.0327 681.3326,-657.1558 681.3904,-657.1563 691.593,-656.9644 692.3133,-763.6331 687.3047,-766.5793 685.9321,-768.2472 686.5579,-769.0031 692.7656,-772.853 697.295,-772.853 701.3976,-822.7901 701.6041,-831.7066 699.2805,-831.9149 702.2915,-892.3354 696.6894,-890.6331 690.3154,-892.6147 687.2235,-895.2927 691.0433,-898.7454 696.314,-900.3405 696.314,-900.3405 691.0433,-898.7454 687.2235,-895.2927 690.3154,-892.6147 696.6894,-890.6331 702.2915,-892.3354 699.2805,-831.9149 701.6041,-831.7066 701.3976,-822.7901 697.295,-772.853 703.3176,-769.1846 704.0836,-768.2715 707.7983,-768.2715 708.4094,-768.4586 714.0748,-768.4586 714.7413,-768.2566 717.5157,-768.2566 718.6105,-769.9838 722.6895,-823.8364 724.6338,-774.5615 738.5369,-772.2993 775.3243,-776.006 775.3243,-776.006 738.5369,-772.2993 724.6338,-774.5615 722.6895,-823.8364 718.6105,-769.9838 717.5157,-768.2566 714.7413,-768.2566 714.0748,-768.4586 708.4094,-768.4586 707.7983,-768.2715 704.0836,-768.2715 703.3176,-769.1846 697.295,-772.853 692.7656,-772.853 686.5579,-769.0031 685.9321,-768.2472 687.3047,-766.5793 692.3133,-763.6331 691.593,-656.9644 692.1804,-656.9378 697.2389,-656.9697 701.6934,-656.8804 708.3879,-657.0905 709.1212,-657.0942 716.0549,-656.7644 723.0076,-656.6126 819.4336,-649.4447 821.1027,-650.0691 839.8119,-657.8387 847.2495,-661.2267 850.294,-662.7371 851.369,-662.7836 859.1224,-662.5888 865.8356,-662.6404 867.4434,-662.6791 867.6271,-662.6772 870.9272,-662.6981 878.7227,-662.8754 893.8632,-662.9614 909.9014,-663.3148 916.9016,-673.5693 953.4071,-731.9422 924.3002,-819.1823 919.8003,-841.9523 918.9948,-844.9052 873.9097,-833.3463 871.3259,-830.3405 868.4853,-829.248 867.3175,-828.2773 862.8149,-828.2773 862.3579,-828.1413 858.6622,-828.1413 852.9277,-765.3906 852.4395,-828.4983 848.1564,-828.4983 847.408,-828.272 846.3709,-788.7345 841.0612,-824.3726 837.2618,-823.3043 837.2618,-823.3043 841.0612,-824.3726 846.3709,-788.7345 847.408,-828.272 848.1564,-828.4983 852.4395,-828.4983 852.9277,-765.3906 858.6622,-828.1413 862.3579,-828.1413 862.8149,-828.2773 867.3175,-828.2773 868.4853,-829.248 871.3259,-830.3405 873.9097,-833.3463 918.9948,-844.9052 915.0598,-864.8781 889.1274,-942.6032 905.4241,-951.5007 923.5758,-1024.6 926.3781,-1052.5356 926.8826,-1055.917 951.9285,-1156.7804 924.5408,-1170.8456 861.0256,-1178.5107 854.3308,-1179.4695 845.5311,-1181.127 835.057,-1183.5736 818.7032,-1188.1342 810.2025,-1191.2731 808.8179,-1191.8159 798.7346,-1191.285 789.4691,-1191.1683 778.3658,-1191.2507 775.9687,-1191.3164 764.595,-1192.0828 706.8285,-1157.5873 696.8051,-1150.6776 645.2049,-1093.3372 635.9888,-1078.032 629.3647,-1067.5593 621.4632,-1048.4463 538.4818,-1001.5836 536.782,-995.3651 527.7455,-956.5414 540.2587,-937.5222 574.3937,-882.8343 578.0822,-876.4661 600.7361,-834.0887 596.0223,-812.6595 591.1022,-776.7745 590.6143,-774.597 590.6143,-774.597"/>
<polygon fill="#bbd7d9" stroke="#bbd7d9" points="975.5732,-747.6485 967.4589,-742.1992 957.9131,-735.1026 953.4071,-731.9422 924.3002,-819.1823 919.8003,-841.9523 918.9948,-844.9052 915.0598,-864.8781 889.1274,-942.6032 905.4241,-951.5007 923.5758,-1024.6 926.3781,-1052.5356 926.8826,-1055.917 951.9285,-1156.7804 991.9766,-1158.3051 992.2802,-1158.215 988.4042,-1030.9104 988.4042,-1030.9104 992.2802,-1158.215 993.6144,-1157.8488 1006.084,-1154.9779 1020.1856,-1152.3575 1024.9263,-1151.6882 1028.9159,-1151.3018 1045.931,-1150.0302 1103.4016,-1148.2944 1160.4832,-1087.9707 1163.0748,-1082.3928 1162.2485,-1030.8259 1162.9316,-1012.1097 1163.4314,-1004.1355 1159.8879,-960.6339 1153.4902,-937.5641 1151.8315,-933.9289 1164.5786,-861.9409 1168.031,-846.7064 1170.9561,-835.0574 1140.1834,-814.0363 1121.1578,-801.7068 1105.3672,-793.2302 1094.5367,-788.6211 1080.1522,-783.5545 1074.9468,-782.1093 1070.7139,-781.09 1037.3734,-774.287 1031.6195,-772.9051 1024.2074,-770.8575 1018.5477,-769.0916 1009.0899,-765.4592 999.0939,-760.897 984.4387,-753.1454 982.5281,-752.0684 975.5732,-747.6485 975.1309,-856.7651 975.1386,-856.7674 979.5881,-856.7674 979.5881,-856.7674 975.1386,-856.7674 975.1309,-856.7651 975.5732,-747.6485 975.5732,-747.6485"/>
<polygon fill="#fed9a6" stroke="#fed9a6" points="748.4367,-97.6853 744.3676,-92.5267 734.4182,-81.9846 726.5609,-73.07 715.7415,-59.1742 712.8347,-55.0078 700.1373,-34.7002 692.4209,-21.1091 680.0491,1.6894 681.2851,6.0511 726.5549,27.7744 815.1099,26.694 830.6196,27.1647 839.4713,27.9981 851.2484,29.3578 852.5663,29.5658 855.6318,-98.1195 850.5052,-96.6604 844.9362,-98.2623 841.1802,-101.3719 844.9796,-104.5718 850.344,-106.1366 850.344,-106.1366 844.9796,-104.5718 841.1802,-101.3719 844.9362,-98.2623 850.5052,-96.6604 855.6318,-98.1195 859.5566,-101.4254 860.0104,-101.4254 860.4661,-101.556 861.2831,-175.8422 860.4854,-175.8839 862.462,-245.7834 857.3066,-245.7834 851.1017,-249.3821 850.3795,-250.1605 852.0429,-251.9605 856.6067,-254.4565 856.6067,-254.4565 852.0429,-251.9605 850.3795,-250.1605 851.1017,-249.3821 857.3066,-245.7834 862.462,-245.7834 867.4947,-248.6394 869.0132,-250.3514 872.2938,-250.3514 872.5518,-250.4231 876.9454,-250.4231 884.2217,-358.3651 871.6334,-364.4932 870.4644,-365.0976 857.426,-372.2411 855.2665,-373.5537 865.9417,-390.7765 873.3121,-401.3749 882.7846,-413.4109 901.4821,-435.56 922.7282,-435.56 922.7282,-435.56 901.4821,-435.56 882.7846,-413.4109 873.3121,-401.3749 865.9417,-390.7765 855.2665,-373.5537 857.426,-372.2411 870.4644,-365.0976 871.6334,-364.4932 884.2217,-358.3651 876.9454,-250.4231 872.5518,-250.4231 872.2938,-250.3514 869.0132,-250.3514 867.4947,-248.6394 862.462,-245.7834 860.4854,-175.8839 861.2831,-175.8422 860.4661,-101.556 860.0104,-101.4254 859.5566,-101.4254 855.6318,-98.1195 852.5663,29.5658 862.3068,31.3108 883.2896,36.4172 885.6656,37.0955 886.871,36.9153 921.8392,32.3838 1035.1947,-20.3044 1032.3362,-24.9375 1018.3022,-46.1304 1005.2912,-64.2822 1004.7072,-65.0278 1000.2402,-70.4873 994.2587,-77.4728 981.6378,-90.8615 979.6567,-93.2556 956.2839,-118.4767 912.1029,-170.6254 908.0537,-174.9643 890.9632,-175.8624 890.5431,-213.1628 890.5431,-213.1628 890.9632,-175.8624 908.0537,-174.9643 918.4954,-191.0016 930.7487,-212.2637 946.5887,-244.7018 957.8588,-262.2317 970.7941,-280.3694 986.3372,-303.7422 987.1801,-303.0723 989.5925,-301.3471 999.0599,-294.1132 1013.6366,-284.7844 1013.7551,-284.7184 1019.26,-281.8746 1036.7213,-273.5522 1037.6362,-273.1937 1043.9727,-270.9685 1046.8718,-270.069 1081.8477,-260.6379 1097.7744,-255.6469 1099.3899,-255.0733 1100.8413,-254.4965 1109.3066,-250.7661 1109.0883,-330.3025 1104.0555,-331.7283 1100.1094,-335.1633 1098.4384,-335.1633 1098.2196,-335.2277 1101.1909,-417.0888 1102.9031,-418.5913 1119.6742,-435.56 1066.4471,-435.56 1026.3529,-429.2475 1020.5755,-433.5148 1019.4884,-435.1965 1018.9773,-435.5834 1016.52,-435.5834 1016.52,-435.5834 1018.9773,-435.5834 1019.4884,-435.1965 1020.5755,-433.5148 1026.3529,-429.2475 1066.4471,-435.56 1119.6742,-435.56 1102.9031,-418.5913 1101.1909,-417.0888 1098.2196,-335.2277 1098.4384,-335.1633 1100.1094,-335.1633 1103.6147,-338.3307 1103.6147,-338.3307 1100.1094,-335.1633 1104.0555,-331.7283 1109.0883,-330.3025 1109.3066,-250.7661 1112.3513,-249.2948 1125.7981,-242.2167 1125.8599,-242.1817 1130.1184,-239.5863 1148.2319,-227.7771 1212.686,-188.5837 1216.0588,-190.2352 1256.6991,-217.9231 1261.7113,-217.8745 1318.9287,-233.4348 1342.5992,-238.4275 1344.021,-238.6395 1362.7838,-241.0555 1399.5244,-245.0284 1453.6951,-275.3858 1480.8033,-336.1876 1479.2756,-351.8137 1477.153,-380.9753 1475.8353,-408.8112 1475.2346,-436.3911 1371.8021,-530.863 1354.0659,-531.496 1353.4221,-510.23 1348.8699,-423.2761 1343.5648,-383.0214 1345.5663,-380.5999 1344.6691,-379.5501 1339.1306,-376.2613 1339.1306,-376.2613 1344.6691,-379.5501 1345.5663,-380.5999 1343.5648,-383.0214 1348.8699,-423.2761 1353.4221,-510.23 1354.0659,-531.496 1333.4042,-533.4009 1327.2726,-534.1962 1308.0219,-537.4183 1305.4458,-537.8973 1301.3629,-544.16 1184.0844,-544.16 1154.6801,-537.7985 1149.2764,-541.4665 1147.861,-543.6768 1147.0094,-544.2944 1149.1992,-547.4189 1149.1992,-547.4189 1147.0094,-544.2944 1147.861,-543.6768 1149.2764,-541.4665 1154.6801,-537.7985 1184.0844,-544.16 1301.3629,-544.16 1248.2794,-637.8533 1252.5063,-698 1262.5441,-766.0536 1258.3237,-771.514 1170.9561,-835.0574 1140.1834,-814.0363 1131.9272,-704.1796 1127.8209,-701.1077 1123.1034,-733.5225 1121.3307,-697.9678 1121.0111,-697.8735 1116.6702,-697.8735 1115.8749,-621.1555 1116.0887,-621.1432 1123.9554,-621.2805 1124.076,-547.8466 1128.1512,-544.5623 1123.1898,-540.1908 1119.7721,-539.2792 1119.7721,-539.2792 1123.1898,-540.1908 1128.1512,-544.5623 1124.076,-547.8466 1123.9554,-621.2805 1116.0887,-621.1432 1115.8749,-621.1555 1116.6702,-697.8735 1121.0111,-697.8735 1121.3307,-697.9678 1123.1034,-733.5225 1127.8209,-701.1077 1131.9272,-704.1796 1140.1834,-814.0363 1121.1578,-801.7068 1105.3672,-793.2302 1105.4414,-785.4933 1107.6086,-734.714 1105.9214,-701.3597 1109.9508,-697.7035 1106.2808,-694.5885 1101.417,-693.2004 1101.417,-693.2004 1106.2808,-694.5885 1109.9508,-697.7035 1105.9214,-701.3597 1107.6086,-734.714 1105.4414,-785.4933 1105.3672,-793.2302 1094.5367,-788.6211 1080.1522,-783.5545 1074.9468,-782.1093 1070.7139,-781.09 1037.3734,-774.287 1031.6195,-772.9051 1024.2074,-770.8575 1018.5477,-769.0916 1009.0899,-765.4592 999.0939,-760.897 984.4387,-753.1454 982.5281,-752.0684 975.5732,-747.6485 967.4589,-742.1992 957.9131,-735.1026 953.4071,-731.9422 916.9016,-673.5693 909.9014,-663.3148 893.8632,-662.9614 878.7227,-662.8754 870.9272,-662.6981 867.6271,-662.6772 867.4434,-662.6791 865.8356,-662.6404 859.1224,-662.5888 851.369,-662.7836 850.294,-662.7371 847.2495,-661.2267 847.4735,-539.762 850.444,-501.7354 854.8177,-501.7354 854.8177,-501.7354 850.444,-501.7354 847.4735,-539.762 847.2495,-661.2267 839.8119,-657.8387 837.7312,-533.1567 837.7312,-533.1567 839.8119,-657.8387 821.1027,-650.0691 819.4336,-649.4447 782.7281,-566.1108 771.1382,-536.4166 763.4827,-508.7484 747.9399,-469.1298 726.1146,-419.5789 737.4479,-372.7458 695.6863,-322.2406 705.7067,-307.0328 706.5922,-305.7484 724.6404,-280.7171 725.2147,-279.9632 730.9105,-273.2547 732.1323,-271.8958 740.1154,-262.4095 748.9122,-253.2204 767.4362,-232.236 800.1059,-190.9908 813.1543,-176.2882 801.3804,-164.0333 794.1733,-155.6518 764.0544,-115.8434 748.4367,-97.6853 748.4367,-97.6853"/>
<polygon fill="#fbb4ae" stroke="#fbb4ae" points="201.0506,-227.8586 207.2456,-222.517 207.5845,-222.3909 208.0837,-221.994 211.7668,-221.994 212.2702,-221.8407 216.6405,-221.8407 216.8152,-222.0487 223.2507,-226.107 228.4645,-226.107 228.4645,-226.107 223.2507,-226.107 216.8152,-222.0487 216.6405,-221.8407 212.2702,-221.8407 211.7668,-221.994 208.0837,-221.994 207.5845,-222.3909 207.2456,-222.517 201.0506,-227.8586 121.0085,-221.67 82.5123,-221.67 83.7367,-304.5624 92.7839,-340.5876 82.9913,-365.9167 77.3641,-379.6378 92.9196,-397.4444 98.7413,-403.8581 124.3653,-429.9236 210.5818,-528.1099 226.1492,-544.8784 233.7028,-553.3703 236.4818,-556.2212 236.6454,-556.3958 245.5968,-557.4248 254.2967,-558.5959 252.9672,-446.0621 252.9672,-446.0621 254.2967,-558.5959 267.195,-560.8386 267.6247,-512.4486 267.03,-500.2691 259.8848,-413.3008 265.7361,-416.7599 271.1677,-416.7599 277.2082,-413.2094 277.9224,-412.4199 276.6446,-410.9893 271.3515,-407.9534 271.3515,-407.9534 276.6446,-410.9893 277.9224,-412.4199 277.2082,-413.2094 271.1677,-416.7599 265.7361,-416.7599 259.8848,-413.3008 267.03,-500.2691 267.6247,-512.4486 267.195,-560.8386 281.6797,-564.4987 281.5471,-412.5235 286.2361,-412.5235 286.2361,-412.5235 281.5471,-412.5235 281.6797,-564.4987 289.9209,-566.7433 292.9388,-565.7083 303.1355,-562.6218 374.2594,-543.9483 391.3727,-538.7573 392.5077,-538.3903 401.7511,-535.2148 408.9719,-532.2949 416.4275,-536.4578 421.1833,-539.0023 438.1668,-547.3059 462.1586,-537.5168 541.0247,-502.8752 549.2845,-499.7856 553.2717,-498.56 557.4269,-497.5565 565.1613,-496.1952 574.6736,-495.7722 577.8348,-495.4258 581.6858,-495.261 581.9452,-495.267 586.1323,-495.6429 594.462,-495.3131 594.755,-495.3403 602.6834,-495.5645 603.8035,-495.5243 604.0217,-495.5307 604.9202,-495.6165 617.9874,-495.1873 627.3643,-493.6721 628.6337,-493.386 637.6401,-490.7707 651.0532,-485.1343 651.333,-484.9995 655.7224,-482.6015 664.8989,-476.9913 669.9142,-473.2814 677.6526,-467.0425 682.3951,-463.5553 702.3366,-445.2676 707.5488,-439.5862 715.1901,-430.7907 726.1146,-419.5789 737.4479,-372.7458 695.6863,-322.2406 693.8507,-321.5757 689.5356,-320.1933 682.6573,-318.274 672.5057,-301.0899 649.2972,-268.667 632.2646,-246.3151 622.6608,-231.2168 594.3348,-181.4559 563.4691,-138.0349 559.052,-132.2384 554.723,-126.2425 657.8136,-20.9818 660.6243,-18 668.2433,-10.8746 676.2613,-2.5295 680.0491,1.6894 681.2851,6.0511 565.0395,115.5109 550.8879,123.7962 548.7274,123.494 522.5793,116.5873 507.4067,112.9227 501.3736,111.6048 490.0922,109.6588 490.063,107.3029 483.0209,-13.4835 478.2737,-16.1931 476.7294,-17.9997 478.0691,-19.567 482.9209,-22.3813 489.0399,-22.3813 493.4346,-19.8445 498.2243,-85.4779 499.4268,-129.4212 502.6565,-129.5414 500.2501,-207.4682 496.3372,-236.4399 502.6515,-240.2309 503.5739,-241.2918 505.9176,-241.2918 506.6519,-241.0766 512.8859,-241.0766 510.9247,-274.9702 512.7872,-315.9944 518.1603,-241.4718 518.1603,-241.4718 512.7872,-315.9944 510.9247,-274.9702 512.8859,-241.0766 506.6519,-241.0766 505.9176,-241.2918 503.5739,-241.2918 502.9389,-241.9892 496.4684,-245.7615 491.9764,-245.7615 491.9764,-245.7615 496.4684,-245.7615 502.9389,-241.9892 503.5739,-241.2918 502.6515,-240.2309 496.3372,-236.4399 500.2501,-207.4682 502.6565,-129.5414 499.4268,-129.4212 498.2243,-85.4779 493.4346,-19.8445 489.0399,-22.3813 482.9209,-22.3813 478.0691,-19.567 476.7294,-17.9997 478.2737,-16.1931 483.0209,-13.4835 490.063,107.3029 490.0922,109.6588 473.0927,107.8955 464.5847,107.4043 459.3916,107.2238 458.7908,107.2167 438.4424,107.4429 365.9435,86.5376 350.7397,80.869 338.9559,62.297 322.5439,53.9413 325.2516,-34.724 329.8956,-81.0821 330.3396,-81.7923 333.4709,-81.7923 338.1906,-39.7977 340.1466,-80.6364 344.8831,-77.8152 351.1591,-77.8152 354.8048,-79.8849 356.7385,-82.2911 361.148,-82.2911 361.232,-82.3169 365.0616,-82.3169 367.0429,-83.885 367.9031,-84.1705 371.7222,-87.8165 375.864,-171.0103 428.4112,-151.3342 428.4112,-151.3342 375.864,-171.0103 371.7222,-87.8165 367.9031,-84.1705 367.0429,-83.885 365.0616,-82.3169 361.232,-82.3169 361.148,-82.2911 356.7385,-82.2911 354.8048,-79.8849 351.1591,-77.8152 344.8831,-77.8152 340.1466,-80.6364 338.7909,-82.299 340.2158,-83.9887 344.7614,-86.5951 344.7614,-86.5951 340.2158,-83.9887 338.7909,-82.299 340.1466,-80.6364 338.1906,-39.7977 333.4709,-81.7923 330.3396,-81.7923 329.8956,-81.0821 325.2516,-34.724 322.5439,53.9413 243.7376,17.9141 177.6048,-60.8856 174.8428,-63.909 174.0349,-68.227 110.1611,-126.7632 77.7019,-169.6949 82.5123,-221.67 121.0085,-221.67 201.0506,-227.8586 201.0506,-227.8586"/>
<polygon fill="#bbd7d9" stroke="#bbd7d9" points="1123.9194,-53.5184 1198.2692,-168.2297 1212.686,-188.5837 1148.2319,-227.7771 1049.4392,-198.0949 1047.4307,-195.7119 1044.2234,-194.7963 1041.8387,-193.0842 1039.2795,-193.0842 1038.3455,-192.8121 1034.7797,-192.8121 1034.7797,-192.8121 1038.3455,-192.8121 1039.2795,-193.0842 1041.8387,-193.0842 1044.2234,-194.7963 1047.4307,-195.7119 1049.4392,-198.0949 1148.2319,-227.7771 1130.1184,-239.5863 1125.8599,-242.1817 1125.7981,-242.2167 1112.3513,-249.2948 1109.3066,-250.7661 1100.8413,-254.4965 1099.3899,-255.0733 1097.7744,-255.6469 1081.8477,-260.6379 1046.8718,-270.069 1043.9727,-270.9685 1037.6362,-273.1937 1036.7213,-273.5522 1019.26,-281.8746 1013.7551,-284.7184 1013.6366,-284.7844 999.0599,-294.1132 989.5925,-301.3471 987.1801,-303.0723 986.3372,-303.7422 970.7941,-280.3694 957.8588,-262.2317 946.5887,-244.7018 930.7487,-212.2637 918.4954,-191.0016 908.0537,-174.9643 912.1029,-170.6254 956.2839,-118.4767 979.6567,-93.2556 981.6378,-90.8615 994.2587,-77.4728 1000.2402,-70.4873 1004.7072,-65.0278 1005.2912,-64.2822 1018.3022,-46.1304 1032.3362,-24.9375 1035.1947,-20.3044 1039.2113,-19.7956 1056.6393,-17.035 1062.2731,-20.1948 1123.9194,-53.5184 1123.9194,-53.5184"/>
<polygon fill="#bbd7d9" stroke="#bbd7d9" points="744.3676,-92.5267 748.4367,-97.6853 764.0544,-115.8434 794.1733,-155.6518 801.3804,-164.0333 813.1543,-176.2882 800.1059,-190.9908 767.4362,-232.236 748.9122,-253.2204 740.1154,-262.4095 732.1323,-271.8958 730.9105,-273.2547 725.2147,-279.9632 724.6404,-280.7171 706.5922,-305.7484 705.7067,-307.0328 695.6863,-322.2406 693.8507,-321.5757 689.5356,-320.1933 682.6573,-318.274 672.5057,-301.0899 649.2972,-268.667 632.2646,-246.3151 622.6608,-231.2168 594.3348,-181.4559 563.4691,-138.0349 559.052,-132.2384 554.723,-126.2425 657.8136,-20.9818 660.6243,-18 668.2433,-10.8746 676.2613,-2.5295 680.0491,1.6894 692.4209,-21.1091 700.1373,-34.7002 712.8347,-55.0078 715.7415,-59.1742 726.5609,-73.07 734.4182,-81.9846 744.3676,-92.5267 744.3676,-92.5267"/>
<polygon fill="#fbb4ae" stroke="#fbb4ae" points="515.2689,-716.8854 521.6635,-711.6232 524.7681,-708.8905 549.5992,-688.6125 560.9018,-679.9047 565.4933,-676.5507 570.2871,-677.6661 586.2772,-750.3575 590.6143,-774.597 591.1022,-776.7745 596.0223,-812.6595 600.7361,-834.0887 578.0822,-876.4661 574.3937,-882.8343 540.2587,-937.5222 527.7455,-956.5414 517.1199,-947.3707 505.9788,-938.804 493.5446,-928.765 476.655,-917.4033 457.9137,-906.6724 374.7585,-867.5131 359.775,-859.4147 358.4229,-858.6386 355.3643,-856.7783 347.8817,-851.9678 332.8359,-840.695 324.4185,-834.7138 323.7377,-834.2085 315.4174,-827.482 315.3347,-827.1124 370.906,-784.5109 378.8006,-777.472 385.6283,-771.8055 389.4377,-769.1071 397.9158,-763.5953 407.7915,-757.7704 409.8567,-756.6824 414.0807,-754.7134 418.9515,-752.7358 423.5184,-751.1554 426.1381,-750.4053 437.0789,-747.9195 440.347,-747.3762 456.7859,-745.6354 468.0185,-743.1008 481.4205,-738.4724 485.7652,-736.4647 498.9342,-728.756 504.0835,-725.4396 515.2689,-716.8854 515.2689,-716.8854"/>
<polyline fill="none" stroke="#000000" points="630.0048,-659.4647 616.9254,-662.0205 612.4805,-663.1169 595.4549,-667.7568 579.5674,-673.7128 570.2871,-677.6661 565.4933,-676.5507 560.9018,-679.9047 549.5992,-688.6125 524.7681,-708.8905 521.6635,-711.6232 515.2689,-716.8854 504.0835,-725.4396 498.9342,-728.756 485.7652,-736.4647 481.4205,-738.4724 468.0185,-743.1008 456.7859,-745.6354 440.347,-747.3762 437.0789,-747.9195 426.1381,-750.4053 423.5184,-751.1554 418.9515,-752.7358 414.0807,-754.7134 409.8567,-756.6824 407.7915,-757.7704 397.9158,-763.5953 389.4377,-769.1071 385.6283,-771.8055 378.8006,-777.472 370.906,-784.5109 315.3347,-827.1124 315.4174,-827.482 323.7377,-834.2085 324.4185,-834.7138 332.8359,-840.695 347.8817,-851.9678 355.3643,-856.7783 358.4229,-858.6386 359.775,-859.4147 374.7585,-867.5131 457.9137,-906.6724 476.655,-917.4033 493.5446,-928.765 505.9788,-938.804 517.1199,-947.3707 527.7455,-956.5414 536.782,-995.3651 538.4818,-1001.5836 405.4803,-1107.9982 386.0023,-1108.1973 368.9051,-1108.7426 362.8164,-1109.0685 353.4438,-1109.7728 345.5515,-1110.8774 345.0794,-1110.7216 334.5702,-1107.4962 327.4237,-1105.4719 224.6713,-1083.5923 186.9685,-1009.4465 184.2513,-1008.3299 169.0212,-1002.4313 163.9927,-1000.6062 155.9291,-998.0685 138.5382,-993.429 137.4854,-993.1739 133.016,-992.1989 106.3492,-987.6631 30.709,-962.5432 2.3323,-894.5285 -10.1951,-866.4443 -27.2812,-830.3156 -28.2186,-828.4301 -31.1411,-818.2217 -17.82,-793.3414 -18.1806,-741.9404 -20.1555,-676.012 -77.2847,-608.2125 -89.8404,-591.3487 -110.0262,-563.6165 -110.9896,-553.1624 -111.458,-549.02 -113.9585,-530.3651 -118.7956,-499.1098 -115.4996,-486.9918 -48.989,-428.6463 34.2804,-398.935 46.1586,-394.4379 55.0853,-390.4767 72.1967,-382.5097 73.2749,-381.985 77.3641,-379.6378 92.9196,-397.4444 98.7413,-403.8581 124.3653,-429.9236 210.5818,-528.1099 226.1492,-544.8784 233.7028,-553.3703 236.4818,-556.2212 236.6454,-556.3958 245.5968,-557.4248 254.2967,-558.5959 267.195,-560.8386 281.6797,-564.4987 289.9209,-566.7433 292.9388,-565.7083 303.1355,-562.6218 374.2594,-543.9483 391.3727,-538.7573 392.5077,-538.3903 401.7511,-535.2148 408.9719,-532.2949 416.4275,-536.4578 421.1833,-539.0023 438.1668,-547.3059 462.1586,-537.5168 541.0247,-502.8752 549.2845,-499.7856 553.2717,-498.56 557.4269,-497.5565 565.1613,-496.1952 574.6736,-495.7722 577.8348,-495.4258 581.6858,-495.261 581.9452,-495.267 586.1323,-495.6429 594.462,-495.3131 594.755,-495.3403 602.6834,-495.5645 603.8035,-495.5243 604.0217,-495.5307 604.9202,-495.6165 617.9874,-495.1873 627.3643,-493.6721 628.6337,-493.386 637.6401,-490.7707 651.0532,-485.1343 651.333,-484.9995 655.7224,-482.6015 664.8989,-476.9913 669.9142,-473.2814 677.6526,-467.0425 682.3951,-463.5553 702.3366,-445.2676 707.5488,-439.5862 715.1901,-430.7907 726.1146,-419.5789 747.9399,-469.1298 763.4827,-508.7484 771.1382,-536.4166 782.7281,-566.1108 819.4336,-649.4447 723.0076,-656.6126 716.0549,-656.7644 709.1212,-657.0942 708.3879,-657.0905 701.6934,-656.8804 697.2389,-656.9697 692.1804,-656.9378 691.593,-656.9644 681.3904,-657.1563 681.3326,-657.1558 679.2879,-657.0327 671.1251,-656.9613 665.2009,-656.7535 662.9853,-656.7897 657.6783,-656.7368 649.293,-657.2984 637.397,-658.4009 630.0048,-659.4647 "/>
<polyline fill="none" stroke="#000000" points="810.2025,-1191.2731 808.8179,-1191.8159 798.7346,-1191.285 789.4691,-1191.1683 778.3658,-1191.2507 775.9687,-1191.3164 764.595,-1192.0828 706.8285,-1157.5873 696.8051,-1150.6776 645.2049,-1093.3372 635.9888,-1078.032 629.3647,-1067.5593 621.4632,-1048.4463 538.4818,-1001.5836 536.782,-995.3651 527.7455,-956.5414 540.2587,-937.5222 574.3937,-882.8343 578.0822,-876.4661 600.7361,-834.0887 596.0223,-812.6595 591.1022,-776.7745 590.6143,-774.597 586.2772,-750.3575 570.2871,-677.6661 579.5674,-673.7128 595.4549,-667.7568 612.4805,-663.1169 616.9254,-662.0205 630.0048,-659.4647 637.397,-658.4009 649.293,-657.2984 657.6783,-656.7368 662.9853,-656.7897 665.2009,-656.7535 671.1251,-656.9613 679.2879,-657.0327 681.3326,-657.1558 681.3904,-657.1563 691.593,-656.9644 692.1804,-656.9378 697.2389,-656.9697 701.6934,-656.8804 708.3879,-657.0905 709.1212,-657.0942 716.0549,-656.7644 723.0076,-656.6126 819.4336,-649.4447 821.1027,-650.0691 839.8119,-657.8387 847.2495,-661.2267 850.294,-662.7371 851.369,-662.7836 859.1224,-662.5888 865.8356,-662.6404 867.4434,-662.6791 867.6271,-662.6772 870.9272,-662.6981 878.7227,-662.8754 893.8632,-662.9614 909.9014,-663.3148 916.9016,-673.5693 953.4071,-731.9422 924.3002,-819.1823 919.8003,-841.9523 918.9948,-844.9052 915.0598,-864.8781 889.1274,-942.6032 905.4241,-951.5007 923.5758,-1024.6 926.3781,-1052.5356 926.8826,-1055.917 951.9285,-1156.7804 924.5408,-1170.8456 861.0256,-1178.5107 854.3308,-1179.4695 845.5311,-1181.127 835.057,-1183.5736 818.7032,-1188.1342 810.2025,-1191.2731 "/>
<polyline fill="none" stroke="#000000" points="1006.084,-1154.9779 993.6144,-1157.8488 992.2802,-1158.215 991.9766,-1158.3051 951.9285,-1156.7804 926.8826,-1055.917 926.3781,-1052.5356 923.5758,-1024.6 905.4241,-951.5007 889.1274,-942.6032 915.0598,-864.8781 918.9948,-844.9052 919.8003,-841.9523 924.3002,-819.1823 953.4071,-731.9422 957.9131,-735.1026 967.4589,-742.1992 975.5732,-747.6485 982.5281,-752.0684 984.4387,-753.1454 999.0939,-760.897 1009.0899,-765.4592 1018.5477,-769.0916 1024.2074,-770.8575 1031.6195,-772.9051 1037.3734,-774.287 1070.7139,-781.09 1074.9468,-782.1093 1080.1522,-783.5545 1094.5367,-788.6211 1105.3672,-793.2302 1121.1578,-801.7068 1140.1834,-814.0363 1170.9561,-835.0574 1168.031,-846.7064 1164.5786,-861.9409 1151.8315,-933.9289 1153.4902,-937.5641 1159.8879,-960.6339 1163.4314,-1004.1355 1162.9316,-1012.1097 1162.2485,-1030.8259 1163.0748,-1082.3928 1160.4832,-1087.9707 1103.4016,-1148.2944 1045.931,-1150.0302 1028.9159,-1151.3018 1024.9263,-1151.6882 1020.1856,-1152.3575 1006.084,-1154.9779 "/>
<polyline fill="none" stroke="#000000" points="986.3372,-303.7422 970.7941,-280.3694 957.8588,-262.2317 946.5887,-244.7018 930.7487,-212.2637 918.4954,-191.0016 908.0537,-174.9643 912.1029,-170.6254 956.2839,-118.4767 979.6567,-93.2556 981.6378,-90.8615 994.2587,-77.4728 1000.2402,-70.4873 1004.7072,-65.0278 1005.2912,-64.2822 1018.3022,-46.1304 1032.3362,-24.9375 1035.1947,-20.3044 921.8392,32.3838 886.871,36.9153 885.6656,37.0955 883.2896,36.4172 862.3068,31.3108 852.5663,29.5658 851.2484,29.3578 839.4713,27.9981 830.6196,27.1647 815.1099,26.694 726.5549,27.7744 681.2851,6.0511 680.0491,1.6894 692.4209,-21.1091 700.1373,-34.7002 712.8347,-55.0078 715.7415,-59.1742 726.5609,-73.07 734.4182,-81.9846 744.3676,-92.5267 748.4367,-97.6853 764.0544,-115.8434 794.1733,-155.6518 801.3804,-164.0333 813.1543,-176.2882 800.1059,-190.9908 767.4362,-232.236 748.9122,-253.2204 740.1154,-262.4095 732.1323,-271.8958 730.9105,-273.2547 725.2147,-279.9632 724.6404,-280.7171 706.5922,-305.7484 705.7067,-307.0328 695.6863,-322.2406 737.4479,-372.7458 726.1146,-419.5789 747.9399,-469.1298 763.4827,-508.7484 771.1382,-536.4166 782.7281,-566.1108 819.4336,-649.4447 821.1027,-650.0691 839.8119,-657.8387 847.2495,-661.2267 850.294,-662.7371 851.369,-662.7836 859.1224,-662.5888 865.8356,-662.6404 867.4434,-662.6791 867.6271,-662.6772 870.9272,-662.6981 878.7227,-662.8754 893.8632,-662.9614 909.9014,-663.3148 916.9016,-673.5693 953.4071,-731.9422 957.9131,-735.1026 967.4589,-742.1992 975.5732,-747.6485 982.5281,-752.0684 984.4387,-753.1454 999.0939,-760.897 1009.0899,-765.4592 1018.5477,-769.0916 1024.2074,-770.8575 1031.6195,-772.9051 1037.3734,-774.287 1070.7139,-781.09 1074.9468,-782.1093 1080.1522,-783.5545 1094.5367,-788.6211 1105.3672,-793.2302 1121.1578,-801.7068 1140.1834,-814.0363 1170.9561,-835.0574 1258.3237,-771.514 1262.5441,-766.0536 1252.5063,-698 1248.2794,-637.8533 1301.3629,-544.16 1305.4458,-537.8973 1308.0219,-537.4183 1327.2726,-534.1962 1333.4042,-533.4009 1354.0659,-531.496 1371.8021,-530.863 1475.2346,-436.3911 1475.8353,-408.8112 1477.153,-380.9753 1479.2756,-351.8137 1480.8033,-336.1876 1453.6951,-275.3858 1399.5244,-245.0284 1362.7838,-241.0555 1344.021,-238.6395 1342.5992,-238.4275 1318.9287,-233.4348 1261.7113,-217.8745 1256.6991,-217.9231 1216.0588,-190.2352 1212.686,-188.5837 1148.2319,-227.7771 1130.1184,-239.5863 1125.8599,-242.1817 1125.7981,-242.2167 1112.3513,-249.2948 1109.3066,-250.7661 1100.8413,-254.4965 1099.3899,-255.0733 1097.7744,-255.6469 1081.8477,-260.6379 1046.8718,-270.069 1043.9727,-270.9685 1037.6362,-273.1937 1036.7213,-273.5522 1019.26,-281.8746 1013.7551,-284.7184 1013.6366,-284.7844 999.0599,-294.1132 989.5925,-301.3471 987.1801,-303.0723 986.3372,-303.7422 "/>
<polyline fill="none" stroke="#000000" points="574.6736,-495.7722 565.1613,-496.1952 557.4269,-497.5565 553.2717,-498.56 549.2845,-499.7856 541.0247,-502.8752 462.1586,-537.5168 438.1668,-547.3059 421.1833,-539.0023 416.4275,-536.4578 408.9719,-532.2949 401.7511,-535.2148 392.5077,-538.3903 391.3727,-538.7573 374.2594,-543.9483 303.1355,-562.6218 292.9388,-565.7083 289.9209,-566.7433 281.6797,-564.4987 267.195,-560.8386 254.2967,-558.5959 245.5968,-557.4248 236.6454,-556.3958 236.4818,-556.2212 233.7028,-553.3703 226.1492,-544.8784 210.5818,-528.1099 124.3653,-429.9236 98.7413,-403.8581 92.9196,-397.4444 77.3641,-379.6378 82.9913,-365.9167 92.7839,-340.5876 83.7367,-304.5624 82.5123,-221.67 77.7019,-169.6949 110.1611,-126.7632 174.0349,-68.227 174.8428,-63.909 177.6048,-60.8856 243.7376,17.9141 322.5439,53.9413 338.9559,62.297 350.7397,80.869 365.9435,86.5376 438.4424,107.4429 458.7908,107.2167 459.3916,107.2238 464.5847,107.4043 473.0927,107.8955 490.0922,109.6588 501.3736,111.6048 507.4067,112.9227 522.5793,116.5873 548.7274,123.494 550.8879,123.7962 565.0395,115.5109 681.2851,6.0511 680.0491,1.6894 676.2613,-2.5295 668.2433,-10.8746 660.6243,-18 657.8136,-20.9818 554.723,-126.2425 559.052,-132.2384 563.4691,-138.0349 594.3348,-181.4559 622.6608,-231.2168 632.2646,-246.3151 649.2972,-268.667 672.5057,-301.0899 682.6573,-318.274 689.5356,-320.1933 693.8507,-321.5757 695.6863,-322.2406 737.4479,-372.7458 726.1146,-419.5789 715.1901,-430.7907 707.5488,-439.5862 702.3366,-445.2676 682.3951,-463.5553 677.6526,-467.0425 669.9142,-473.2814 664.8989,-476.9913 655.7224,-482.6015 651.333,-484.9995 651.0532,-485.1343 637.6401,-490.7707 628.6337,-493.386 627.3643,-493.6721 617.9874,-495.1873 604.9202,-495.6165 604.0217,-495.5307 603.8035,-495.5243 602.6834,-495.5645 594.755,-495.3403 594.462,-495.3131 586.1323,-495.6429 581.9452,-495.267 581.6858,-495.261 577.8348,-495.4258 574.6736,-495.7722 "/>
<polyline fill="none" stroke="#000000" points="999.0599,-294.1132 989.5925,-301.3471 987.1801,-303.0723 986.3372,-303.7422 970.7941,-280.3694 957.8588,-262.2317 946.5887,-244.7018 930.7487,-212.2637 918.4954,-191.0016 908.0537,-174.9643 912.1029,-170.6254 956.2839,-118.4767 979.6567,-93.2556 981.6378,-90.8615 994.2587,-77.4728 1000.2402,-70.4873 1004.7072,-65.0278 1005.2912,-64.2822 1018.3022,-46.1304 1032.3362,-24.9375 1035.1947,-20.3044 1039.2113,-19.7956 1056.6393,-17.035 1062.2731,-20.1948 1123.9194,-53.5184 1198.2692,-168.2297 1212.686,-188.5837 1148.2319,-227.7771 1130.1184,-239.5863 1125.8599,-242.1817 1125.7981,-242.2167 1112.3513,-249.2948 1109.3066,-250.7661 1100.8413,-254.4965 1099.3899,-255.0733 1097.7744,-255.6469 1081.8477,-260.6379 1046.8718,-270.069 1043.9727,-270.9685 1037.6362,-273.1937 1036.7213,-273.5522 1019.26,-281.8746 1013.7551,-284.7184 1013.6366,-284.7844 999.0599,-294.1132 "/>
<polyline fill="none" stroke="#000000" points="693.8507,-321.5757 695.6863,-322.2406 705.7067,-307.0328 706.5922,-305.7484 724.6404,-280.7171 725.2147,-279.9632 730.9105,-273.2547 732.1323,-271.8958 740.1154,-262.4095 748.9122,-253.2204 767.4362,-232.236 800.1059,-190.9908 813.1543,-176.2882 801.3804,-164.0333 794.1733,-155.6518 764.0544,-115.8434 748.4367,-97.6853 744.3676,-92.5267 734.4182,-81.9846 726.5609,-73.07 715.7415,-59.1742 712.8347,-55.0078 700.1373,-34.7002 692.4209,-21.1091 680.0491,1.6894 676.2613,-2.5295 668.2433,-10.8746 660.6243,-18 657.8136,-20.9818 554.723,-126.2425 559.052,-132.2384 563.4691,-138.0349 594.3348,-181.4559 622.6608,-231.2168 632.2646,-246.3151 649.2972,-268.667 672.5057,-301.0899 682.6573,-318.274 689.5356,-320.1933 693.8507,-321.5757 "/>
<polyline fill="none" stroke="#000000" points="476.655,-917.4033 457.9137,-906.6724 374.7585,-867.5131 359.775,-859.4147 358.4229,-858.6386 355.3643,-856.7783 347.8817,-851.9678 332.8359,-840.695 324.4185,-834.7138 323.7377,-834.2085 315.4174,-827.482 315.3347,-827.1124 370.906,-784.5109 378.8006,-777.472 385.6283,-771.8055 389.4377,-769.1071 397.9158,-763.5953 407.7915,-757.7704 409.8567,-756.6824 414.0807,-754.7134 418.9515,-752.7358 423.5184,-751.1554 426.1381,-750.4053 437.0789,-747.9195 440.347,-747.3762 456.7859,-745.6354 468.0185,-743.1008 481.4205,-738.4724 485.7652,-736.4647 498.9342,-728.756 504.0835,-725.4396 515.2689,-716.8854 521.6635,-711.6232 524.7681,-708.8905 549.5992,-688.6125 560.9018,-679.9047 565.4933,-676.5507 570.2871,-677.6661 586.2772,-750.3575 590.6143,-774.597 591.1022,-776.7745 596.0223,-812.6595 600.7361,-834.0887 578.0822,-876.4661 574.3937,-882.8343 540.2587,-937.5222 527.7455,-956.5414 517.1199,-947.3707 505.9788,-938.804 493.5446,-928.765 476.655,-917.4033 "/>
<!-- device&#45;mapper&#45;libs&#45;&gt;Fedora Container Base -->
<g id="edge1" class="edge">
<title>device&#45;mapper&#45;libs&#45;&gt;Fedora Container Base</title>
<path fill="none" stroke="#444444" stroke-opacity="0.333333" d="M812.3098,-1036.6741C786.1403,-960.4147 684.8775,-665.3289 653.2521,-573.1705"/>
<polygon fill="#444444" fill-opacity="0.333333" stroke="#444444" stroke-opacity="0.333333" points="656.553,-572.0064 649.9966,-563.6839 649.932,-574.2786 656.553,-572.0064"/>
</g>
<!-- device&#45;mapper&#45;libs&#45;&gt;device&#45;mapper -->
<g id="edge2" class="edge">
<title>device&#45;mapper&#45;libs&#45;&gt;device&#45;mapper</title>
<path fill="none" stroke="#444444" stroke-opacity="0.333333" d="M823.9009,-1036.5666C830.571,-997.1325 838.2242,-903.6838 838.9031,-856.5029"/>
<polygon fill="#444444" fill-opacity="0.333333" stroke="#444444" stroke-opacity="0.333333" points="842.4033,-856.3767 838.931,-846.3671 835.4033,-856.3573 842.4033,-856.3767"/>
</g>
<!-- device&#45;mapper&#45;&gt;Fedora Container Base -->
<g id="edge28" class="edge">
<title>device&#45;mapper&#45;&gt;Fedora Container Base</title>
<path fill="none" stroke="#444444" stroke-opacity="0.333333" d="M824.1594,-810.0958C791.1127,-761.6273 700.5506,-628.8029 661.7704,-571.9252"/>
<polygon fill="#444444" fill-opacity="0.333333" stroke="#444444" stroke-opacity="0.333333" points="664.5329,-569.7639 656.0077,-563.4733 658.7493,-573.7073 664.5329,-569.7639"/>
</g>
<!-- device&#45;mapper&#45;&gt;device&#45;mapper&#45;libs -->
<g id="edge29" class="edge">
<title>device&#45;mapper&#45;&gt;device&#45;mapper&#45;libs</title>
<path fill="none" stroke="#444444" stroke-opacity="0.333333" d="M831.1391,-846.4434C824.469,-885.8775 816.8158,-979.3262 816.1369,-1026.5071"/>
<polygon fill="#444444" fill-opacity="0.333333" stroke="#444444" stroke-opacity="0.333333" points="812.6367,-1026.6333 816.109,-1036.6429 819.6367,-1026.6527 812.6367,-1026.6333"/>
</g>
<!-- device&#45;mapper&#45;&gt;systemd -->
<g id="edge30" class="edge">
<title>device&#45;mapper&#45;&gt;systemd</title>
<path fill="none" stroke="#444444" stroke-opacity="0.333333" d="M837.4013,-809.9364C840.076,-755.0994 848.0477,-591.6618 851.2778,-525.4378"/>
<polygon fill="#444444" fill-opacity="0.333333" stroke="#444444" stroke-opacity="0.333333" points="854.78,-525.4757 851.7715,-515.3171 847.7883,-525.1347 854.78,-525.4757"/>
</g>
<!-- device&#45;mapper&#45;&gt;util&#45;linux -->
<g id="edge31" class="edge">
<title>device&#45;mapper&#45;&gt;util&#45;linux</title>
<path fill="none" stroke="#444444" stroke-opacity="0.333333" d="M793.6592,-810.0482C778.9703,-803.8225 762.3703,-796.7868 747.0331,-790.2863"/>
<polygon fill="#444444" fill-opacity="0.333333" stroke="#444444" stroke-opacity="0.333333" points="748.2481,-786.9999 737.6751,-786.32 745.5165,-793.445 748.2481,-786.9999"/>
</g>
<!-- libargon2&#45;&gt;Fedora Container Base -->
<g id="edge3" class="edge">
<title>libargon2&#45;&gt;Fedora Container Base</title>
<path fill="none" stroke="#444444" stroke-opacity="0.333333" d="M1002.7281,-1006.4041C945.4623,-932.8781 731.0242,-657.5522 663.9464,-571.4282"/>
<polygon fill="#444444" fill-opacity="0.333333" stroke="#444444" stroke-opacity="0.333333" points="666.6529,-569.2071 657.7469,-563.4684 661.1303,-573.5084 666.6529,-569.2071"/>
</g>
<!-- dbus&#45;broker&#45;&gt;Fedora Container Base -->
<g id="edge4" class="edge">
<title>dbus&#45;broker&#45;&gt;Fedora Container Base</title>
<path fill="none" stroke="#444444" stroke-opacity="0.333333" d="M935.3534,-453.5929C872.391,-473.4401 771.4993,-505.2436 706.4364,-525.7529"/>
<polygon fill="#444444" fill-opacity="0.333333" stroke="#444444" stroke-opacity="0.333333" points="705.1948,-522.4745 696.7097,-528.819 707.2993,-529.1506 705.1948,-522.4745"/>
</g>
<!-- dbus&#45;broker&#45;&gt;dbus&#45;common -->
<g id="edge5" class="edge">
<title>dbus&#45;broker&#45;&gt;dbus&#45;common</title>
<path fill="none" stroke="#444444" stroke-opacity="0.333333" d="M1013.7232,-453.7372C1034.6017,-471.6698 1066.6801,-499.2221 1089.9407,-519.2008"/>
<polygon fill="#444444" fill-opacity="0.333333" stroke="#444444" stroke-opacity="0.333333" points="1087.9013,-522.0629 1097.7677,-525.9235 1092.4622,-516.7528 1087.9013,-522.0629"/>
</g>
<!-- dbus&#45;broker&#45;&gt;shadow&#45;utils -->
<g id="edge6" class="edge">
<title>dbus&#45;broker&#45;&gt;shadow&#45;utils</title>
<path fill="none" stroke="#444444" stroke-opacity="0.333333" d="M918.7975,-437.353C844.8949,-439.1494 731.4558,-441.9069 655.2152,-443.7602"/>
<polygon fill="#444444" fill-opacity="0.333333" stroke="#444444" stroke-opacity="0.333333" points="655.09,-440.2621 645.178,-444.0041 655.2601,-447.26 655.09,-440.2621"/>
</g>
<!-- dbus&#45;broker&#45;&gt;systemd -->
<g id="edge7" class="edge">
<title>dbus&#45;broker&#45;&gt;systemd</title>
<path fill="none" stroke="#444444" stroke-opacity="0.333333" d="M951.3421,-453.6912C936.115,-460.3893 918.6894,-468.0546 902.7609,-475.0613"/>
<polygon fill="#444444" fill-opacity="0.333333" stroke="#444444" stroke-opacity="0.333333" points="901.3276,-471.8681 893.5833,-479.0984 904.1462,-478.2756 901.3276,-471.8681"/>
</g>
<!-- dbus&#45;common&#45;&gt;Fedora Container Base -->
<g id="edge8" class="edge">
<title>dbus&#45;common&#45;&gt;Fedora Container Base</title>
<path fill="none" stroke="#444444" stroke-opacity="0.333333" d="M1041.3215,-544.3807C973.5461,-544.5732 873.3686,-544.8578 790.532,-545.0931"/>
<polygon fill="#444444" fill-opacity="0.333333" stroke="#444444" stroke-opacity="0.333333" points="790.5093,-541.593 780.5193,-545.1215 790.5292,-548.593 790.5093,-541.593"/>
</g>
<!-- dbus&#45;common&#45;&gt;systemd -->
<g id="edge9" class="edge">
<title>dbus&#45;common&#45;&gt;systemd</title>
<path fill="none" stroke="#444444" stroke-opacity="0.333333" d="M1041.2475,-530.4218C1004.336,-523.8999 960.5111,-516.1564 924.4023,-509.7762"/>
<polygon fill="#444444" fill-opacity="0.333333" stroke="#444444" stroke-opacity="0.333333" points="924.891,-506.3085 914.4345,-508.015 923.673,-513.2017 924.891,-506.3085"/>
</g>
<!-- shadow&#45;utils&#45;&gt;Fedora Container Base -->
<g id="edge10" class="edge">
<title>shadow&#45;utils&#45;&gt;Fedora Container Base</title>
<path fill="none" stroke="#444444" stroke-opacity="0.333333" d="M587.2768,-464.023C597.9048,-479.3557 613.2195,-501.4499 625.2216,-518.765"/>
<polygon fill="#444444" fill-opacity="0.333333" stroke="#444444" stroke-opacity="0.333333" points="622.5802,-521.0982 631.1536,-527.323 628.3333,-517.1104 622.5802,-521.0982"/>
</g>
<!-- shadow&#45;utils&#45;&gt;libsemanage -->
<g id="edge11" class="edge">
<title>shadow&#45;utils&#45;&gt;libsemanage</title>
<path fill="none" stroke="#444444" stroke-opacity="0.333333" d="M503.9663,-438.0247C459.3806,-433.1665 401.4932,-426.8589 354.2641,-421.7127"/>
<polygon fill="#444444" fill-opacity="0.333333" stroke="#444444" stroke-opacity="0.333333" points="354.3697,-418.2036 344.0494,-420.5997 353.6114,-425.1624 354.3697,-418.2036"/>
</g>
<!-- systemd&#45;&gt;Fedora Container Base -->
<g id="edge12" class="edge">
<title>systemd&#45;&gt;Fedora Container Base</title>
<path fill="none" stroke="#444444" stroke-opacity="0.333333" d="M791.113,-511.3628C769.2089,-516.4388 744.258,-522.2208 721.1941,-527.5656"/>
<polygon fill="#444444" fill-opacity="0.333333" stroke="#444444" stroke-opacity="0.333333" points="720.3912,-524.1588 711.4396,-529.8261 721.9716,-530.9781 720.3912,-524.1588"/>
</g>
<!-- systemd&#45;&gt;shadow&#45;utils -->
<g id="edge13" class="edge">
<title>systemd&#45;&gt;shadow&#45;utils</title>
<path fill="none" stroke="#444444" stroke-opacity="0.333333" d="M790.9473,-485.6971C750.9425,-478.3053 698.4151,-468.5996 655.135,-460.6026"/>
<polygon fill="#444444" fill-opacity="0.333333" stroke="#444444" stroke-opacity="0.333333" points="655.6693,-457.1421 645.1998,-458.7668 654.3974,-464.0256 655.6693,-457.1421"/>
</g>
<!-- systemd&#45;&gt;util&#45;linux -->
<g id="edge14" class="edge">
<title>systemd&#45;&gt;util&#45;linux</title>
<path fill="none" stroke="#444444" stroke-opacity="0.333333" d="M842.0687,-515.3099C814.9129,-561.9995 742.6946,-686.1659 710.6558,-741.2511"/>
<polygon fill="#444444" fill-opacity="0.333333" stroke="#444444" stroke-opacity="0.333333" points="707.5175,-739.6854 705.5152,-750.0893 713.5685,-743.2048 707.5175,-739.6854"/>
</g>
<!-- systemd&#45;&gt;acl -->
<g id="edge15" class="edge">
<title>systemd&#45;&gt;acl</title>
<path fill="none" stroke="#444444" stroke-opacity="0.333333" d="M881.5784,-478.8574C928.2601,-449.4092 1020.1894,-391.4174 1071.759,-358.8858"/>
<polygon fill="#444444" fill-opacity="0.333333" stroke="#444444" stroke-opacity="0.333333" points="1073.6969,-361.8016 1080.2872,-353.5059 1069.9621,-355.8812 1073.6969,-361.8016"/>
</g>
<!-- systemd&#45;&gt;cryptsetup&#45;libs -->
<g id="edge16" class="edge">
<title>systemd&#45;&gt;cryptsetup&#45;libs</title>
<path fill="none" stroke="#444444" stroke-opacity="0.333333" d="M860.1947,-515.4372C884.3666,-574.2648 960.0714,-758.5084 989.055,-829.046"/>
<polygon fill="#444444" fill-opacity="0.333333" stroke="#444444" stroke-opacity="0.333333" points="985.9425,-830.6803 992.9805,-838.5997 992.4172,-828.0199 985.9425,-830.6803"/>
</g>
<!-- systemd&#45;&gt;dbus -->
<g id="edge17" class="edge">
<title>systemd&#45;&gt;dbus</title>
<path fill="none" stroke="#444444" stroke-opacity="0.333333" d="M914.4301,-482.246C1010.4675,-459.1517 1193.8886,-415.0441 1283.9552,-393.3856"/>
<polygon fill="#444444" fill-opacity="0.333333" stroke="#444444" stroke-opacity="0.333333" points="1285.0378,-396.7251 1293.9423,-390.9839 1283.4011,-389.9191 1285.0378,-396.7251"/>
</g>
<!-- systemd&#45;&gt;iptables&#45;libs -->
<g id="edge18" class="edge">
<title>systemd&#45;&gt;iptables&#45;libs</title>
<path fill="none" stroke="#444444" stroke-opacity="0.333333" d="M811.6992,-515.2396C730.1166,-551.3686 547.5787,-632.206 458.9738,-671.4449"/>
<polygon fill="#444444" fill-opacity="0.333333" stroke="#444444" stroke-opacity="0.333333" points="457.398,-668.3148 449.6718,-675.5643 460.2325,-674.7152 457.398,-668.3148"/>
</g>
<!-- systemd&#45;&gt;kmod&#45;libs -->
<g id="edge19" class="edge">
<title>systemd&#45;&gt;kmod&#45;libs</title>
<path fill="none" stroke="#444444" stroke-opacity="0.333333" d="M875.1365,-515.2829C919.8112,-551.4234 1019.8161,-632.3245 1070.4211,-673.2626"/>
<polygon fill="#444444" fill-opacity="0.333333" stroke="#444444" stroke-opacity="0.333333" points="1068.4195,-676.1451 1078.3953,-679.7135 1072.8221,-670.703 1068.4195,-676.1451"/>
</g>
<!-- systemd&#45;&gt;libfdisk -->
<g id="edge20" class="edge">
<title>systemd&#45;&gt;libfdisk</title>
<path fill="none" stroke="#444444" stroke-opacity="0.333333" d="M845.5462,-515.2532C820.6556,-578.7695 737.3685,-791.3032 707.3997,-867.7781"/>
<polygon fill="#444444" fill-opacity="0.333333" stroke="#444444" stroke-opacity="0.333333" points="704.0856,-866.6425 703.6956,-877.2302 710.603,-869.1966 704.0856,-866.6425"/>
</g>
<!-- systemd&#45;&gt;libseccomp -->
<g id="edge21" class="edge">
<title>systemd&#45;&gt;libseccomp</title>
<path fill="none" stroke="#444444" stroke-opacity="0.333333" d="M853.185,-478.9434C854.4177,-436.3126 857.5045,-329.5651 858.9841,-278.3956"/>
<polygon fill="#444444" fill-opacity="0.333333" stroke="#444444" stroke-opacity="0.333333" points="862.4836,-278.4603 859.2742,-268.3632 855.4865,-278.2579 862.4836,-278.4603"/>
</g>
<!-- systemd&#45;&gt;qrencode&#45;libs -->
<g id="edge22" class="edge">
<title>systemd&#45;&gt;qrencode&#45;libs</title>
<path fill="none" stroke="#444444" stroke-opacity="0.333333" d="M862.2456,-478.9932C889.4167,-427.6679 967.0543,-281.0133 999.2947,-220.1121"/>
<polygon fill="#444444" fill-opacity="0.333333" stroke="#444444" stroke-opacity="0.333333" points="1002.4792,-221.5774 1004.0647,-211.1019 996.2926,-218.3023 1002.4792,-221.5774"/>
</g>
<!-- systemd&#45;&gt;systemd&#45;pam -->
<g id="edge23" class="edge">
<title>systemd&#45;&gt;systemd&#45;pam</title>
<path fill="none" stroke="#444444" stroke-opacity="0.333333" d="M855.5902,-479.0546C859.9587,-416.206 859.001,-206.5959 854.2935,-129.8872"/>
<polygon fill="#444444" fill-opacity="0.333333" stroke="#444444" stroke-opacity="0.333333" points="857.761,-129.2986 853.5719,-119.5671 850.778,-129.7869 857.761,-129.2986"/>
</g>
<!-- systemd&#45;&gt;systemd&#45;rpm&#45;macros -->
<g id="edge24" class="edge">
<title>systemd&#45;&gt;systemd&#45;rpm&#45;macros</title>
<path fill="none" stroke="#444444" stroke-opacity="0.333333" d="M844.2465,-479.0439C818.8942,-424.6359 743.1268,-262.0329 712.8824,-197.126"/>
<polygon fill="#444444" fill-opacity="0.333333" stroke="#444444" stroke-opacity="0.333333" points="715.9937,-195.5163 708.5975,-187.9303 709.6487,-198.4729 715.9937,-195.5163"/>
</g>
<!-- libsemanage&#45;&gt;Fedora Container Base -->
<g id="edge42" class="edge">
<title>libsemanage&#45;&gt;Fedora Container Base</title>
<path fill="none" stroke="#444444" stroke-opacity="0.333333" d="M319.4393,-430.4558C389.1664,-455.1918 513.8662,-499.4296 586.6456,-525.2484"/>
<polygon fill="#444444" fill-opacity="0.333333" stroke="#444444" stroke-opacity="0.333333" points="585.5302,-528.5664 596.1249,-528.6112 587.8706,-521.9692 585.5302,-528.5664"/>
</g>
<!-- util&#45;linux&#45;&gt;Fedora Container Base -->
<g id="edge25" class="edge">
<title>util&#45;linux&#45;&gt;Fedora Container Base</title>
<path fill="none" stroke="#444444" stroke-opacity="0.333333" d="M690.7793,-749.9947C681.8483,-711.1541 660.8883,-620.0004 650.2295,-573.6458"/>
<polygon fill="#444444" fill-opacity="0.333333" stroke="#444444" stroke-opacity="0.333333" points="653.5888,-572.6361 647.9368,-563.6748 646.7668,-574.2048 653.5888,-572.6361"/>
</g>
<!-- util&#45;linux&#45;&gt;libfdisk -->
<g id="edge26" class="edge">
<title>util&#45;linux&#45;&gt;libfdisk</title>
<path fill="none" stroke="#444444" stroke-opacity="0.333333" d="M695.1949,-786.4547C695.4549,-807.5299 695.8859,-842.4681 696.1899,-867.1062"/>
<polygon fill="#444444" fill-opacity="0.333333" stroke="#444444" stroke-opacity="0.333333" points="692.6923,-867.3331 696.3155,-877.2891 699.6918,-867.2467 692.6923,-867.3331"/>
</g>
<!-- util&#45;linux&#45;&gt;libutempter -->
<g id="edge27" class="edge">
<title>util&#45;linux&#45;&gt;libutempter</title>
<path fill="none" stroke="#444444" stroke-opacity="0.333333" d="M630.1857,-777.9395C609.5599,-781.034 586.5179,-784.4909 565.0349,-787.714"/>
<polygon fill="#444444" fill-opacity="0.333333" stroke="#444444" stroke-opacity="0.333333" points="564.3311,-784.2803 554.9611,-789.2254 565.3697,-791.2029 564.3311,-784.2803"/>
</g>
<!-- acl&#45;&gt;Fedora Container Base -->
<g id="edge43" class="edge">
<title>acl&#45;&gt;Fedora Container Base</title>
<path fill="none" stroke="#444444" stroke-opacity="0.333333" d="M1069.0226,-353.4317C983.534,-392.0443 783.6007,-482.3482 691.6161,-523.8949"/>
<polygon fill="#444444" fill-opacity="0.333333" stroke="#444444" stroke-opacity="0.333333" points="689.9385,-520.8121 682.2657,-528.1181 692.8199,-527.1915 689.9385,-520.8121"/>
</g>
<!-- cryptsetup&#45;libs&#45;&gt;Fedora Container Base -->
<g id="edge44" class="edge">
<title>cryptsetup&#45;libs&#45;&gt;Fedora Container Base</title>
<path fill="none" stroke="#444444" stroke-opacity="0.333333" d="M979.7782,-838.8124C919.067,-785.819 741.5245,-630.8463 672.0742,-570.2248"/>
<polygon fill="#444444" fill-opacity="0.333333" stroke="#444444" stroke-opacity="0.333333" points="674.3743,-567.5867 664.539,-563.6475 669.7711,-572.8603 674.3743,-567.5867"/>
</g>
<!-- cryptsetup&#45;libs&#45;&gt;device&#45;mapper&#45;libs -->
<g id="edge45" class="edge">
<title>cryptsetup&#45;libs&#45;&gt;device&#45;mapper&#45;libs</title>
<path fill="none" stroke="#444444" stroke-opacity="0.333333" d="M983.7069,-875.1632C951.2075,-910.5077 879.631,-988.3501 842.2756,-1028.9756"/>
<polygon fill="#444444" fill-opacity="0.333333" stroke="#444444" stroke-opacity="0.333333" points="839.4748,-1026.8507 835.2825,-1036.5809 844.6276,-1031.5888 839.4748,-1026.8507"/>
</g>
<!-- cryptsetup&#45;libs&#45;&gt;libargon2 -->
<g id="edge46" class="edge">
<title>cryptsetup&#45;libs&#45;&gt;libargon2</title>
<path fill="none" stroke="#444444" stroke-opacity="0.333333" d="M1002.2863,-875.1661C1005.1329,-904.2744 1010.7211,-961.417 1014.102,-995.989"/>
<polygon fill="#444444" fill-opacity="0.333333" stroke="#444444" stroke-opacity="0.333333" points="1010.6591,-996.7446 1015.1159,-1006.3564 1017.6259,-996.0632 1010.6591,-996.7446"/>
</g>
<!-- dbus&#45;&gt;dbus&#45;broker -->
<g id="edge47" class="edge">
<title>dbus&#45;&gt;dbus&#45;broker</title>
<path fill="none" stroke="#444444" stroke-opacity="0.333333" d="M1293.9812,-387.5258C1239.849,-396.1522 1145.0985,-411.2516 1076.2498,-422.2233"/>
<polygon fill="#444444" fill-opacity="0.333333" stroke="#444444" stroke-opacity="0.333333" points="1075.6122,-418.7806 1066.2877,-423.8108 1076.7139,-425.6934 1075.6122,-418.7806"/>
</g>
<!-- iptables&#45;libs&#45;&gt;Fedora Container Base -->
<g id="edge48" class="edge">
<title>iptables&#45;libs&#45;&gt;Fedora Container Base</title>
<path fill="none" stroke="#444444" stroke-opacity="0.333333" d="M437.6195,-675.4939C480.3278,-648.5637 560.4159,-598.0634 607.201,-568.5626"/>
<polygon fill="#444444" fill-opacity="0.333333" stroke="#444444" stroke-opacity="0.333333" points="609.2209,-571.4267 615.8129,-563.1323 605.4873,-565.5055 609.2209,-571.4267"/>
</g>
<!-- iptables&#45;libs&#45;&gt;libnetfilter_conntrack -->
<g id="edge49" class="edge">
<title>iptables&#45;libs&#45;&gt;libnetfilter_conntrack</title>
<path fill="none" stroke="#444444" stroke-opacity="0.333333" d="M339.5435,-694.7989C319.554,-695.1276 297.2051,-695.4951 275.2965,-695.8553"/>
<polygon fill="#444444" fill-opacity="0.333333" stroke="#444444" stroke-opacity="0.333333" points="275.2126,-692.3561 265.2715,-696.0202 275.3277,-699.3552 275.2126,-692.3561"/>
</g>
<!-- iptables&#45;libs&#45;&gt;libpcap -->
<g id="edge50" class="edge">
<title>iptables&#45;libs&#45;&gt;libpcap</title>
<path fill="none" stroke="#444444" stroke-opacity="0.333333" d="M404.8916,-712.0624C394.6803,-760.0189 367.2032,-889.0628 355.0321,-946.2236"/>
<polygon fill="#444444" fill-opacity="0.333333" stroke="#444444" stroke-opacity="0.333333" points="351.6046,-945.5148 352.9452,-956.0244 358.4511,-946.9726 351.6046,-945.5148"/>
</g>
<!-- kmod&#45;libs&#45;&gt;Fedora Container Base -->
<g id="edge51" class="edge">
<title>kmod&#45;libs&#45;&gt;Fedora Container Base</title>
<path fill="none" stroke="#444444" stroke-opacity="0.333333" d="M1046.753,-679.9086C960.6788,-651.2027 793.4154,-595.4202 703.8305,-565.5436"/>
<polygon fill="#444444" fill-opacity="0.333333" stroke="#444444" stroke-opacity="0.333333" points="704.6851,-562.1391 694.0914,-562.2956 702.4704,-568.7796 704.6851,-562.1391"/>
</g>
<!-- libfdisk&#45;&gt;Fedora Container Base -->
<g id="edge52" class="edge">
<title>libfdisk&#45;&gt;Fedora Container Base</title>
<path fill="none" stroke="#444444" stroke-opacity="0.333333" d="M693.7766,-877.1663C685.1192,-819.7595 658.4785,-643.1072 648.0289,-573.8165"/>
<polygon fill="#444444" fill-opacity="0.333333" stroke="#444444" stroke-opacity="0.333333" points="651.4482,-573.0185 646.496,-563.6523 644.5265,-574.0624 651.4482,-573.0185"/>
</g>
<!-- libseccomp&#45;&gt;Fedora Container Base -->
<g id="edge53" class="edge">
<title>libseccomp&#45;&gt;Fedora Container Base</title>
<path fill="none" stroke="#444444" stroke-opacity="0.333333" d="M846.6109,-268.2096C809.8501,-318.4623 706.1147,-460.2702 662.9628,-519.2594"/>
<polygon fill="#444444" fill-opacity="0.333333" stroke="#444444" stroke-opacity="0.333333" points="660.1302,-517.2036 657.051,-527.3411 665.78,-521.3365 660.1302,-517.2036"/>
</g>
<!-- qrencode&#45;libs&#45;&gt;Fedora Container Base -->
<g id="edge54" class="edge">
<title>qrencode&#45;libs&#45;&gt;Fedora Container Base</title>
<path fill="none" stroke="#444444" stroke-opacity="0.333333" d="M994.4946,-211.2955C933.1087,-269.7901 740.8022,-453.0386 670.1435,-520.3692"/>
<polygon fill="#444444" fill-opacity="0.333333" stroke="#444444" stroke-opacity="0.333333" points="667.3556,-518.1912 662.5305,-527.6236 672.1845,-523.2589 667.3556,-518.1912"/>
</g>
<!-- systemd&#45;pam&#45;&gt;Fedora Container Base -->
<g id="edge55" class="edge">
<title>systemd&#45;pam&#45;&gt;Fedora Container Base</title>
<path fill="none" stroke="#444444" stroke-opacity="0.333333" d="M841.943,-119.6855C809.7545,-188.8471 695.0828,-435.2356 656.5187,-518.0961"/>
<polygon fill="#444444" fill-opacity="0.333333" stroke="#444444" stroke-opacity="0.333333" points="653.2501,-516.8244 652.2037,-527.3675 659.5964,-519.7781 653.2501,-516.8244"/>
</g>
<!-- systemd&#45;pam&#45;&gt;systemd -->
<g id="edge56" class="edge">
<title>systemd&#45;pam&#45;&gt;systemd</title>
<path fill="none" stroke="#444444" stroke-opacity="0.333333" d="M847.4998,-119.4954C843.1313,-182.344 844.089,-391.9541 848.7965,-468.6628"/>
<polygon fill="#444444" fill-opacity="0.333333" stroke="#444444" stroke-opacity="0.333333" points="845.329,-469.2514 849.5181,-478.9829 852.312,-468.7631 845.329,-469.2514"/>
</g>
<!-- systemd&#45;rpm&#45;macros&#45;&gt;Fedora Container Base -->
<g id="edge57" class="edge">
<title>systemd&#45;rpm&#45;macros&#45;&gt;Fedora Container Base</title>
<path fill="none" stroke="#444444" stroke-opacity="0.333333" d="M697.4873,-188.045C688.3981,-248.5185 659.0533,-443.7585 648.013,-517.2134"/>
<polygon fill="#444444" fill-opacity="0.333333" stroke="#444444" stroke-opacity="0.333333" points="644.5468,-516.7276 646.5215,-527.1368 651.469,-517.7681 644.5468,-516.7276"/>
</g>
<!-- libutempter&#45;&gt;Fedora Container Base -->
<g id="edge58" class="edge">
<title>libutempter&#45;&gt;Fedora Container Base</title>
<path fill="none" stroke="#444444" stroke-opacity="0.333333" d="M497.9118,-781.2151C525.2649,-737.0099 595.1346,-624.0934 627.2093,-572.2576"/>
<polygon fill="#444444" fill-opacity="0.333333" stroke="#444444" stroke-opacity="0.333333" points="630.275,-573.9548 632.5606,-563.6094 624.3224,-570.2714 630.275,-573.9548"/>
</g>
<!-- libutempter&#45;&gt;shadow&#45;utils -->
<g id="edge59" class="edge">
<title>libutempter&#45;&gt;shadow&#45;utils</title>
<path fill="none" stroke="#444444" stroke-opacity="0.333333" d="M491.0939,-781.4506C505.4159,-723.863 550.1381,-544.0388 567.5516,-474.0208"/>
<polygon fill="#444444" fill-opacity="0.333333" stroke="#444444" stroke-opacity="0.333333" points="570.9926,-474.6864 570.0096,-464.1373 564.1995,-472.9969 570.9926,-474.6864"/>
</g>
<!-- libnetfilter_conntrack&#45;&gt;Fedora Container Base -->
<g id="edge32" class="edge">
<title>libnetfilter_conntrack&#45;&gt;Fedora Container Base</title>
<path fill="none" stroke="#444444" stroke-opacity="0.333333" d="M219.5967,-679.653C310.4965,-650.9056 487.4246,-594.9516 581.4797,-565.2063"/>
<polygon fill="#444444" fill-opacity="0.333333" stroke="#444444" stroke-opacity="0.333333" points="582.6674,-568.5017 591.1465,-562.1492 580.5566,-561.8275 582.6674,-568.5017"/>
</g>
<!-- libnetfilter_conntrack&#45;&gt;libmnl -->
<g id="edge33" class="edge">
<title>libnetfilter_conntrack&#45;&gt;libmnl</title>
<path fill="none" stroke="#444444" stroke-opacity="0.333333" d="M161.5154,-716C159.9421,-745.2232 156.8497,-802.6655 154.9876,-837.2543"/>
<polygon fill="#444444" fill-opacity="0.333333" stroke="#444444" stroke-opacity="0.333333" points="151.4725,-837.4429 154.4298,-847.6167 158.4624,-837.8193 151.4725,-837.4429"/>
</g>
<!-- libnetfilter_conntrack&#45;&gt;libnfnetlink -->
<g id="edge34" class="edge">
<title>libnetfilter_conntrack&#45;&gt;libnfnetlink</title>
<path fill="none" stroke="#444444" stroke-opacity="0.333333" d="M151.2885,-679.5011C134.7352,-652.6164 103.6529,-602.1348 84.4959,-571.0215"/>
<polygon fill="#444444" fill-opacity="0.333333" stroke="#444444" stroke-opacity="0.333333" points="87.4203,-569.0954 79.1969,-562.4152 81.4596,-572.7656 87.4203,-569.0954"/>
</g>
<!-- libmnl&#45;&gt;Fedora Container Base -->
<g id="edge36" class="edge">
<title>libmnl&#45;&gt;Fedora Container Base</title>
<path fill="none" stroke="#444444" stroke-opacity="0.333333" d="M181.2255,-847.5018C264.9249,-792.8538 514.7449,-629.7448 608.0688,-568.813"/>
<polygon fill="#444444" fill-opacity="0.333333" stroke="#444444" stroke-opacity="0.333333" points="610.1409,-571.6402 616.6007,-563.2425 606.3139,-565.7788 610.1409,-571.6402"/>
</g>
<!-- libnfnetlink&#45;&gt;Fedora Container Base -->
<g id="edge37" class="edge">
<title>libnfnetlink&#45;&gt;Fedora Container Base</title>
<path fill="none" stroke="#444444" stroke-opacity="0.333333" d="M136.0239,-544.3812C224.4291,-544.5778 381.1922,-544.9263 497.2173,-545.1842"/>
<polygon fill="#444444" fill-opacity="0.333333" stroke="#444444" stroke-opacity="0.333333" points="497.2479,-548.6842 507.2557,-545.2065 497.2636,-541.6842 497.2479,-548.6842"/>
</g>
<!-- libpcap&#45;&gt;Fedora Container Base -->
<g id="edge35" class="edge">
<title>libpcap&#45;&gt;Fedora Container Base</title>
<path fill="none" stroke="#444444" stroke-opacity="0.333333" d="M361.5634,-955.9865C407.8682,-888.6326 570.0654,-652.7045 625.2303,-572.4629"/>
<polygon fill="#444444" fill-opacity="0.333333" stroke="#444444" stroke-opacity="0.333333" points="628.3376,-574.1211 631.1187,-563.8978 622.5693,-570.1554 628.3376,-574.1211"/>
</g>
<!-- libpq&#45;&gt;Fedora Container Base -->
<g id="edge38" class="edge">
<title>libpq&#45;&gt;Fedora Container Base</title>
<path fill="none" stroke="#444444" stroke-opacity="0.333333" d="M359.4212,-100.3143C405.0982,-171.8318 572.6722,-434.2062 626.7869,-518.9349"/>
<polygon fill="#444444" fill-opacity="0.333333" stroke="#444444" stroke-opacity="0.333333" points="623.9066,-520.9275 632.239,-527.4713 629.806,-517.1596 623.9066,-520.9275"/>
</g>
<!-- libicu&#45;&gt;Fedora Container Base -->
<g id="edge39" class="edge">
<title>libicu&#45;&gt;Fedora Container Base</title>
<path fill="none" stroke="#444444" stroke-opacity="0.333333" d="M249.2425,-239.775C320.0555,-294.6522 532.3513,-459.1728 612.5871,-521.3523"/>
<polygon fill="#444444" fill-opacity="0.333333" stroke="#444444" stroke-opacity="0.333333" points="610.7703,-524.3723 620.8186,-527.7313 615.0582,-518.8393 610.7703,-524.3723"/>
</g>
<!-- postgresql&#45;&gt;Fedora Container Base -->
<g id="edge40" class="edge">
<title>postgresql&#45;&gt;Fedora Container Base</title>
<path fill="none" stroke="#444444" stroke-opacity="0.333333" d="M491.3918,-36.1581C514.7937,-114.3882 607.1009,-422.9624 635.4406,-517.6989"/>
<polygon fill="#444444" fill-opacity="0.333333" stroke="#444444" stroke-opacity="0.333333" points="632.1318,-518.8509 638.351,-527.4283 638.8382,-516.8447 632.1318,-518.8509"/>
</g>
<!-- postgresql&#45;&gt;libpq -->
<g id="edge41" class="edge">
<title>postgresql&#45;&gt;libpq</title>
<path fill="none" stroke="#444444" stroke-opacity="0.333333" d="M447.1127,-36.0401C431.2222,-43.4193 412.6733,-52.0332 395.9372,-59.8051"/>
<polygon fill="#444444" fill-opacity="0.333333" stroke="#444444" stroke-opacity="0.333333" points="394.4499,-56.6368 386.8544,-64.0231 397.3983,-62.9856 394.4499,-56.6368"/>
</g>
<!-- postgresql&#45;server&#45;&gt;Fedora Container Base -->
<g id="edge60" class="edge">
<title>postgresql&#45;server&#45;&gt;Fedora Container Base</title>
<path fill="none" stroke="#444444" stroke-opacity="0.333333" d="M503.2394,-259.2118C528.4656,-310.608 600.546,-457.4653 630.4787,-518.4505"/>
<polygon fill="#444444" fill-opacity="0.333333" stroke="#444444" stroke-opacity="0.333333" points="627.3591,-520.0384 634.9072,-527.4732 633.643,-516.9541 627.3591,-520.0384"/>
</g>
<!-- postgresql&#45;server&#45;&gt;shadow&#45;utils -->
<g id="edge61" class="edge">
<title>postgresql&#45;server&#45;&gt;shadow&#45;utils</title>
<path fill="none" stroke="#444444" stroke-opacity="0.333333" d="M501.4617,-259.2404C515.5602,-295.1922 547.1005,-375.621 563.7768,-418.146"/>
<polygon fill="#444444" fill-opacity="0.333333" stroke="#444444" stroke-opacity="0.333333" points="560.575,-419.5683 567.4843,-427.6003 567.0918,-417.0127 560.575,-419.5683"/>
</g>
<!-- postgresql&#45;server&#45;&gt;systemd -->
<g id="edge62" class="edge">
<title>postgresql&#45;server&#45;&gt;systemd</title>
<path fill="none" stroke="#444444" stroke-opacity="0.333333" d="M519.5364,-259.0828C582.604,-304.1447 747.319,-421.8338 818.7733,-472.8879"/>
<polygon fill="#444444" fill-opacity="0.333333" stroke="#444444" stroke-opacity="0.333333" points="816.8406,-475.8086 827.0119,-478.7744 820.9101,-470.113 816.8406,-475.8086"/>
</g>
<!-- postgresql&#45;server&#45;&gt;libpq -->
<g id="edge63" class="edge">
<title>postgresql&#45;server&#45;&gt;libpq</title>
<path fill="none" stroke="#444444" stroke-opacity="0.333333" d="M477.5323,-222.8487C451.4772,-194.5867 401.2495,-140.1049 371.5209,-107.8584"/>
<polygon fill="#444444" fill-opacity="0.333333" stroke="#444444" stroke-opacity="0.333333" points="373.7832,-105.1486 364.4317,-100.1687 368.6366,-109.8934 373.7832,-105.1486"/>
</g>
<!-- postgresql&#45;server&#45;&gt;libicu -->
<g id="edge64" class="edge">
<title>postgresql&#45;server&#45;&gt;libicu</title>
<path fill="none" stroke="#444444" stroke-opacity="0.333333" d="M350.2865,-230.6647C329.6025,-229.1693 309.2312,-227.6964 291.1513,-226.3892"/>
<polygon fill="#444444" fill-opacity="0.333333" stroke="#444444" stroke-opacity="0.333333" points="291.298,-222.8908 281.0716,-225.6604 290.7932,-229.8725 291.298,-222.8908"/>
</g>
<!-- postgresql&#45;server&#45;&gt;postgresql -->
<g id="edge65" class="edge">
<title>postgresql&#45;server&#45;&gt;postgresql</title>
<path fill="none" stroke="#444444" stroke-opacity="0.333333" d="M493.6542,-222.8244C492.1958,-184.0012 488.7773,-92.9984 487.0297,-46.4764"/>
<polygon fill="#444444" fill-opacity="0.333333" stroke="#444444" stroke-opacity="0.333333" points="490.5165,-46.0565 486.6435,-36.195 483.5214,-46.3193 490.5165,-46.0565"/>
</g>
<!-- Fedora Container Base -->
<g id="node1" class="node">
<title>Fedora Container Base</title>
<ellipse fill="none" stroke="#000000" cx="643.76" cy="-545.51" rx="136.5" ry="18"/>
<text text-anchor="middle" x="643.76" y="-541.81" font-family="Helvetica,sans-Serif" font-weight="bold" font-size="14.00" fill="#000000">Fedora Container Base (201.6 MB)</text>
</g>
<!-- device&#45;mapper&#45;libs -->
<g id="node2" class="node">
<title>device&#45;mapper&#45;libs</title>
<text text-anchor="middle" x="818.53" y="-1051.1" font-family="Helvetica,sans-Serif" font-weight="bold" font-size="14.00" fill="#000000">device&#45;mapper&#45;libs (418.0 kB)</text>
</g>
<!-- device&#45;mapper -->
<g id="node3" class="node">
<title>device&#45;mapper</title>
<text text-anchor="middle" x="836.51" y="-824.51" font-family="Helvetica,sans-Serif" font-weight="bold" font-size="14.00" fill="#000000">device&#45;mapper (349.9 kB)</text>
</g>
<!-- libargon2 -->
<g id="node4" class="node">
<title>libargon2</title>
<text text-anchor="middle" x="1016.9" y="-1020.9" font-family="Helvetica,sans-Serif" font-weight="bold" font-size="14.00" fill="#000000">libargon2 (54.2 kB)</text>
</g>
<!-- dbus&#45;broker -->
<g id="node5" class="node">
<title>dbus&#45;broker</title>
<text text-anchor="middle" x="992.56" y="-431.86" font-family="Helvetica,sans-Serif" font-weight="bold" font-size="14.00" fill="#000000">dbus&#45;broker (409.6 kB)</text>
</g>
<!-- dbus&#45;common -->
<g id="node6" class="node">
<title>dbus&#45;common</title>
<text text-anchor="middle" x="1119" y="-540.46" font-family="Helvetica,sans-Serif" font-weight="bold" font-size="14.00" fill="#000000">dbus&#45;common (11.2 kB)</text>
</g>
<!-- shadow&#45;utils -->
<g id="node7" class="node">
<title>shadow&#45;utils</title>
<text text-anchor="middle" x="574.59" y="-442.02" font-family="Helvetica,sans-Serif" font-weight="bold" font-size="14.00" fill="#000000">shadow&#45;utils (4.0 MB)</text>
</g>
<!-- systemd -->
<g id="node8" class="node">
<title>systemd</title>
<text text-anchor="middle" x="852.66" y="-493.4" font-family="Helvetica,sans-Serif" font-weight="bold" font-size="14.00" fill="#000000">systemd (13.1 MB)</text>
</g>
<!-- libsemanage -->
<g id="node9" class="node">
<title>libsemanage</title>
<text text-anchor="middle" x="268.43" y="-408.66" font-family="Helvetica,sans-Serif" font-weight="bold" font-size="14.00" fill="#000000">libsemanage (304.5 kB)</text>
</g>
<!-- util&#45;linux -->
<g id="node10" class="node">
<title>util&#45;linux</title>
<text text-anchor="middle" x="694.97" y="-764.52" font-family="Helvetica,sans-Serif" font-weight="bold" font-size="14.00" fill="#000000">util&#45;linux (13.5 MB)</text>
</g>
<!-- acl -->
<g id="node11" class="node">
<title>acl</title>
<text text-anchor="middle" x="1109.1" y="-331.63" font-family="Helvetica,sans-Serif" font-weight="bold" font-size="14.00" fill="#000000">acl (209.6 kB)</text>
</g>
<!-- cryptsetup&#45;libs -->
<g id="node12" class="node">
<title>cryptsetup&#45;libs</title>
<text text-anchor="middle" x="1000.5" y="-853.2" font-family="Helvetica,sans-Serif" font-weight="bold" font-size="14.00" fill="#000000">cryptsetup&#45;libs (1.8 MB)</text>
</g>
<!-- dbus -->
<g id="node13" class="node">
<title>dbus</title>
<text text-anchor="middle" x="1336.5" y="-377.05" font-family="Helvetica,sans-Serif" font-weight="bold" font-size="14.00" fill="#000000">dbus (0.0 B)</text>
</g>
<!-- iptables&#45;libs -->
<g id="node14" class="node">
<title>iptables&#45;libs</title>
<text text-anchor="middle" x="408.81" y="-689.96" font-family="Helvetica,sans-Serif" font-weight="bold" font-size="14.00" fill="#000000">iptables&#45;libs (1.9 MB)</text>
</g>
<!-- kmod&#45;libs -->
<g id="node15" class="node">
<title>kmod&#45;libs</title>
<text text-anchor="middle" x="1101" y="-694.3" font-family="Helvetica,sans-Serif" font-weight="bold" font-size="14.00" fill="#000000">kmod&#45;libs (135.6 kB)</text>
</g>
<!-- libfdisk -->
<g id="node16" class="node">
<title>libfdisk</title>
<text text-anchor="middle" x="696.54" y="-891.79" font-family="Helvetica,sans-Serif" font-weight="bold" font-size="14.00" fill="#000000">libfdisk (472.7 kB)</text>
</g>
<!-- libseccomp -->
<g id="node17" class="node">
<title>libseccomp</title>
<text text-anchor="middle" x="859.8" y="-246.48" font-family="Helvetica,sans-Serif" font-weight="bold" font-size="14.00" fill="#000000">libseccomp (351.1 kB)</text>
</g>
<!-- qrencode&#45;libs -->
<g id="node18" class="node">
<title>qrencode&#45;libs</title>
<text text-anchor="middle" x="1013.6" y="-189.39" font-family="Helvetica,sans-Serif" font-weight="bold" font-size="14.00" fill="#000000">qrencode&#45;libs (158.2 kB)</text>
</g>
<!-- systemd&#45;pam -->
<g id="node19" class="node">
<title>systemd&#45;pam</title>
<text text-anchor="middle" x="850.43" y="-97.75" font-family="Helvetica,sans-Serif" font-weight="bold" font-size="14.00" fill="#000000">systemd&#45;pam (867.7 kB)</text>
</g>
<!-- systemd&#45;rpm&#45;macros -->
<g id="node20" class="node">
<title>systemd&#45;rpm&#45;macros</title>
<text text-anchor="middle" x="700.21" y="-166.23" font-family="Helvetica,sans-Serif" font-weight="bold" font-size="14.00" fill="#000000">systemd&#45;rpm&#45;macros (7.9 kB)</text>
</g>
<!-- libutempter -->
<g id="node21" class="node">
<title>libutempter</title>
<text text-anchor="middle" x="486.61" y="-795.78" font-family="Helvetica,sans-Serif" font-weight="bold" font-size="14.00" fill="#000000">libutempter (57.8 kB)</text>
</g>
<!-- libnetfilter_conntrack -->
<g id="node22" class="node">
<title>libnetfilter_conntrack</title>
<text text-anchor="middle" x="162.5" y="-694.01" font-family="Helvetica,sans-Serif" font-weight="bold" font-size="14.00" fill="#000000">libnetfilter_conntrack (148.0 kB)</text>
</g>
<!-- libmnl -->
<g id="node23" class="node">
<title>libmnl</title>
<text text-anchor="middle" x="153.46" y="-861.93" font-family="Helvetica,sans-Serif" font-weight="bold" font-size="14.00" fill="#000000">libmnl (55.4 kB)</text>
</g>
<!-- libnfnetlink -->
<g id="node24" class="node">
<title>libnfnetlink</title>
<text text-anchor="middle" x="68" y="-540.53" font-family="Helvetica,sans-Serif" font-weight="bold" font-size="14.00" fill="#000000">libnfnetlink (54.8 kB)</text>
</g>
<!-- libpcap -->
<g id="node25" class="node">
<title>libpcap</title>
<text text-anchor="middle" x="349.09" y="-970.43" font-family="Helvetica,sans-Serif" font-weight="bold" font-size="14.00" fill="#000000">libpcap (387.4 kB)</text>
</g>
<!-- libpq -->
<g id="node26" class="node">
<title>libpq</title>
<text text-anchor="middle" x="347.82" y="-78.45" font-family="Helvetica,sans-Serif" font-weight="bold" font-size="14.00" fill="#000000">libpq (714.5 kB)</text>
</g>
<!-- libicu -->
<g id="node27" class="node">
<title>libicu</title>
<text text-anchor="middle" x="225.88" y="-217.97" font-family="Helvetica,sans-Serif" font-weight="bold" font-size="14.00" fill="#000000">libicu (32.1 MB)</text>
</g>
<!-- postgresql -->
<g id="node28" class="node">
<title>postgresql</title>
<text text-anchor="middle" x="485.96" y="-14.3" font-family="Helvetica,sans-Serif" font-weight="bold" font-size="14.00" fill="#000000">postgresql (5.3 MB)</text>
</g>
<!-- postgresql&#45;server -->
<g id="node29" class="node">
<title>postgresql&#45;server</title>
<text text-anchor="middle" x="494.34" y="-235.48" font-family="Helvetica,sans-Serif" font-weight="bold" font-size="22.00" fill="#cc0066">postgresql&#45;server (21.6 MB)</text>
</g>
</g>

<script type="text/javascript"><![CDATA[

document.addEventListener('click', function(e) {
      e = e || window.event;
      var target = e.target || e.srcElement;
      text = target.parentElement.querySelector("title").textContent;

      console.log("Clicked on: " + text);
      // reset all strokes
      var nodes = document.getElementsByClassName("edge");

      for (index = 0, len = nodes.length; index < len; ++index) {
          //var title = nodes[index].querySelector("title").textContent.split("->");
          id = nodes[index].id;
          document.getElementById(id).querySelector("path").setAttribute("stroke-width", "1");
          document.getElementById(id).querySelector("path").setAttribute("stroke-opacity", "0.5");
          document.getElementById(id).querySelector("path").setAttribute("stroke", "#444444");
          document.getElementById(id).querySelector("polygon").setAttribute("stroke-width", "1");
          document.getElementById(id).querySelector("polygon").setAttribute("stroke-opacity", "0.5");
          document.getElementById(id).querySelector("polygon").setAttribute("stroke", "#444444");
      }
      // reset text highlight
      pkgs = document.getElementsByClassName("node");
      for (index2 = 0, len2 = pkgs.length; index2 < len2; ++index2) {
          target_id = pkgs[index2].id;
          document.getElementById(target_id).querySelector("text").setAttribute("font-weight", "normal");
      }

      // highlight deps
      var nodes = document.getElementsByClassName("edge");
      for (index = 0, len = nodes.length; index < len; ++index) {
        var title = nodes[index].querySelector("title").textContent.split("->");

        if (title[0] == text) {
          id = nodes[index].id;
          //console.log("ID:   " + id);
          document.getElementById(id).querySelector("path").setAttribute("stroke-width", "3");
          document.getElementById(id).querySelector("path").setAttribute("stroke-opacity", "1");
          document.getElementById(id).querySelector("path").setAttribute("stroke", "#aa3333");
          document.getElementById(id).querySelector("polygon").setAttribute("stroke-width", "5");
          document.getElementById(id).querySelector("polygon").setAttribute("stroke-opacity", "1");
          document.getElementById(id).querySelector("polygon").setAttribute("stroke", "#aa3333");

        }
        if (title[1] == text) {
          id = nodes[index].id;
          document.getElementById(id).querySelector("path").setAttribute("stroke-width", "3");
          document.getElementById(id).querySelector("path").setAttribute("stroke-opacity", "1");
          document.getElementById(id).querySelector("path").setAttribute("stroke", "#333377");
          document.getElementById(id).querySelector("polygon").setAttribute("stroke-width", "5");
          document.getElementById(id).querySelector("polygon").setAttribute("stroke-opacity", "1");
          document.getElementById(id).querySelector("polygon").setAttribute("stroke", "#333377");
        }

        if (title[0] == text || title[1] == text) {
          pkgs = document.getElementsByClassName("node");
          for (index2 = 0, len2 = pkgs.length; index2 < len2; ++index2) {
            var pkg_name = pkgs[index2].querySelector("title").textContent;
            if (pkg_name == title[0] || pkg_name == title[1]) {
              target_id = pkgs[index2].id;
              document.getElementById(target_id).querySelector("text").setAttribute("font-weight", "bold");
            }
          }
        }
      }


  }, false);

]]></script>


  <text
     id="text7664"
     y="19.384439"
     x="9.9055691"
     style="font-style:normal;font-weight:normal;font-size:12.49485588px;line-height:125%;font-family:sans-serif;letter-spacing:0px;word-spacing:0px;fill:#000000;fill-opacity:1;stroke:none;stroke-width:0.3123714px;stroke-linecap:butt;stroke-linejoin:miter;stroke-opacity:1"
     xml:space="preserve"><tspan
       style="font-size:12.00258541px;stroke-width:0.3123714px"
       y="19.384439"
       x="9.9055691"
       id="tspan7666"><a href="report-use-case-definition--postgresql-noweak--rawhide.html"><tspan
   style="font-weight:bold;font-size:12.00258541px;fill:#0066ff;stroke-width:0.3123714px"
   id="tspan7668">PostgreSQL (no weak deps)</tspan></a> on <a href="report-base-definition--fedora-container-base--rawhide.html"><tspan
   style="font-weight:bold;font-size:12.00258541px;fill:#0066ff;stroke-width:0.3123714px"
   id="tspan7676">Fedora Container Base</tspan></a> (Fedora rawhide)</tspan></text>
  <text
     xml:space="preserve"
     style="font-style:normal;font-weight:normal;font-size:11.85299969px;line-height:125%;font-family:sans-serif;letter-spacing:0px;word-spacing:0px;fill:#000000;fill-opacity:1;stroke:none;stroke-width:0.296325px;stroke-linecap:butt;stroke-linejoin:miter;stroke-opacity:1"
     x="9.9365959"
     y="58.520042"
     id="text8235"><tspan
       id="tspan8237"
       x="9.9365959"
       y="58.520042"
       style="stroke-width:0.296325px;font-size:10.80232704px;fill:#666666">Generated by <a href="./"><tspan
   style="fill:#3771c8"
   id="tspan8255">Feedback Pipeline</tspan></a></tspan></text>
  <text
     xml:space="preserve"
     style="font-style:normal;font-weight:normal;font-size:12.49485588px;line-height:125%;font-family:sans-serif;letter-spacing:0px;word-spacing:0px;fill:#000000;fill-opacity:1;stroke:none;stroke-width:0.3123714px;stroke-linecap:butt;stroke-linejoin:miter;stroke-opacity:1"
     x="9.9055691"
     y="38.974205"
     id="text8245"><a href="graph--postgresql-noweak--fedora-container-base--rawhide.svg"><tspan
       id="tspan8247"
       x="9.9055691"
       y="38.974205"
       style="font-weight:normal;font-size:12.00258541px;fill:#0066ff;stroke-width:0.3123714px">Expand base image</tspan></a></text>

</svg>
