<?xml version="1.0" encoding="UTF-8" standalone="no"?>
<!DOCTYPE svg PUBLIC "-//W3C//DTD SVG 1.1//EN"
 "http://www.w3.org/Graphics/SVG/1.1/DTD/svg11.dtd">
<!-- Generated by graphviz version 2.40.1 (0)
 -->
<!-- Title: packages Pages: 1 -->
<svg width="1652pt" height="1488pt"
 viewBox="0.00 0.00 1982.78 1785.27" xmlns="http://www.w3.org/2000/svg" xmlns:xlink="http://www.w3.org/1999/xlink">
<g id="graph0" class="graph" transform="scale(.8333 .8333) rotate(0) translate(161.2509 1649.3074)">
<title>packages</title>
<polygon fill="#dae2ff" stroke="transparent" points="-161.2509,135.9662 -161.2509,-1649.3074 1821.5305,-1649.3074 1821.5305,135.9662 -161.2509,135.9662"/>
<polygon fill="#fbb4ae" stroke="#fbb4ae" points="399.0449,-664.002 393.9806,-642.5492 385.6534,-615.4206 369.5576,-578.2922 378.2899,-557.4929 398.612,-517.3212 418.0555,-503.5194 421.4636,-506.2639 433.9438,-517.4736 442.1574,-525.3141 457.7888,-538.6708 461.8381,-541.7015 478.0181,-552.1936 491.4543,-558.8153 497.3698,-561.1138 503.6047,-563.2155 507.8855,-564.4366 531.4485,-569.9431 540.7356,-572.6144 549.6888,-575.6636 553.7642,-577.2614 558.5284,-579.3749 559.5216,-579.8666 560.4135,-578.7639 563.3512,-575.4326 567.9316,-570.6887 568.231,-570.3402 578.8781,-559.1268 584.8609,-554.2521 586.1342,-552.7854 592.8315,-546.1646 622.4493,-521.9657 624.6539,-520.5328 624.6758,-520.5157 629.4925,-516.0678 636.7255,-508.3126 640.0401,-505.2394 648.6913,-495.1727 649.0534,-494.7096 657.2436,-485.3509 671.2579,-464.9428 680.3331,-449.8795 682.1168,-446.5492 685.2036,-446.4761 688.4017,-446.5574 692.6945,-446.4563 705.1546,-446.4691 705.8289,-446.4369 706.0372,-446.4218 708.3263,-446.3687 712.4566,-446.3738 715.3188,-446.4475 715.9879,-446.4976 718.6863,-446.5677 730.0604,-446.5847 732.3401,-446.7003 744.0832,-446.4318 746.6667,-446.4363 751.9848,-446.7068 857.2391,-444.3344 894.6823,-472.0627 906.8276,-473.3065 914.0339,-473.8147 920.7604,-474.1819 940.8459,-475.6026 945.2665,-475.9862 957.9178,-477.4905 960.4088,-477.9066 972.0224,-480.0347 979.0769,-481.555 995.9957,-500.5345 1010.6586,-586.9796 1012.7025,-601.4645 1003.6361,-618.3868 987.9208,-650.1846 966.6418,-703.4853 961.5056,-715.0226 938.1513,-758.6132 915.8776,-769.2083 903.6456,-775.3436 897.3971,-778.7957 890.4136,-772.4572 886.9982,-769.482 886.9393,-769.428 884.5501,-767.3279 877.7513,-761.6033 866.5748,-753.0153 866.71,-681.5538 869.6252,-645.1454 873.8551,-645.1454 879.8664,-641.7297 881.0031,-640.4919 880.2493,-639.6743 873.9614,-636.0242 869.16,-636.0242 869.16,-636.0242 873.9614,-636.0242 880.2493,-639.6743 881.0031,-640.4919 879.8664,-641.7297 873.8551,-645.1454 869.6252,-645.1454 866.71,-681.5538 866.5748,-753.0153 858.4382,-747.3674 857.205,-675.2684 860.0013,-640.4597 854.4728,-640.4597 853.2572,-640.8033 850.6869,-640.8033 844.6128,-678.2072 844.1669,-640.3777 844.9952,-640.1417 837.6019,-550.6724 837.2977,-551.015 836.9453,-604.8359 836.9453,-604.8359 837.2977,-551.015 837.6019,-550.6724 844.9952,-640.1417 844.1669,-640.3777 844.6128,-678.2072 850.6869,-640.8033 853.2572,-640.8033 854.4728,-640.4597 860.0013,-640.4597 857.205,-675.2684 858.4382,-747.3674 843.7579,-738.2542 828.8282,-730.6539 769.1837,-702.5729 754.63,-695.1491 743.0188,-687.8904 740.7189,-686.3652 727.3422,-676.4373 721.196,-676.6075 719.4495,-676.5298 711.108,-676.5493 706.8841,-676.4577 705.3936,-676.3538 698.9125,-676.2053 691.1166,-676.5726 679.1309,-677.4178 672.4084,-678.2056 659.4907,-680.3246 655.6162,-681.1411 638.7703,-685.0871 623.468,-690.0982 619.4311,-691.608 609.4069,-704.3026 608.319,-704.8715 606.4181,-705.7655 586.9139,-714.4361 580.1332,-716.9067 567.5734,-721.1507 560.6816,-723.293 552.6284,-725.3627 518.0514,-731.4922 508.2381,-728.7813 506.6182,-679.7197 506.6182,-679.7197 508.2381,-728.7813 492.0436,-725.2169 491.6855,-725.1483 481.5887,-723.7853 473.6296,-722.9365 466.7577,-722.5929 467.6904,-626.8973 472.5616,-629.6125 472.5616,-629.6125 467.6904,-626.8973 466.7577,-722.5929 464.1746,-722.5368 457.096,-722.784 453.4771,-722.8034 446.9231,-722.4506 453.1957,-625.4877 456.7906,-625.4877 462.5056,-686.2161 462.6396,-625.2858 466.2528,-625.2858 468.5959,-622.5832 471.8427,-620.8606 471.8427,-620.8606 468.5959,-622.5832 466.2528,-625.2858 462.6396,-625.2858 462.5056,-686.2161 456.7906,-625.4877 453.1957,-625.4877 446.9231,-722.4506 444.614,-722.392 441.2293,-722.4977 428.6888,-722.1487 425.0671,-721.9412 424.2386,-721.8693 423.9813,-721.8317 399.7641,-665.9697 399.0449,-664.002 399.0449,-664.002"/>
<polygon fill="#fbb4ae" stroke="#fbb4ae" points="381.7431,-434.693 346.9552,-378.3478 340.5858,-369.1657 347.7072,-360.451 387.5801,-299.23 398.9096,-286.4969 401.3335,-286.3243 406.0831,-286.1636 406.4925,-286.1801 407.7253,-286.2758 415.3279,-286.5857 415.6202,-286.5868 420.7169,-286.2314 429.2405,-286.2707 440.4668,-285.4957 442.3757,-285.2939 444.6483,-284.97 454.6776,-283.169 457.7456,-282.3912 459.1894,-216.1782 487.0655,-211.5756 495.9164,-214.1939 501.4919,-210.6737 503.6027,-207.3887 505.6828,-207.3887 506.9208,-207.7695 511.6739,-207.7695 514.7881,-261.6213 517.9902,-209.1382 522.8233,-212.0701 522.8233,-212.0701 517.9902,-209.1382 514.7881,-261.6213 511.6739,-207.7695 506.9208,-207.7695 505.6828,-207.3887 503.6027,-207.3887 502.5505,-206.6265 502.5505,-206.6265 503.6027,-207.3887 501.4919,-210.6737 495.9164,-214.1939 487.0655,-211.5756 459.1894,-216.1782 457.6323,-206.348 457.6183,-206.1398 459.3504,-190.7967 461.2805,-102.2826 420.0199,-76.9507 410.8514,-70.7523 402.235,-64.3875 397.5306,-60.7657 395.8311,-59.5181 378.4958,-45.7381 375.9015,-43.6009 362.1729,-31.8897 376.9067,-.0504 382.09,11.7593 405.409,67.9809 420.9435,101.9448 428.3866,115.8488 489.4011,127.5264 525.5601,127.9159 541.3614,128.375 536.7755,-16.8895 537.3267,-17.8843 537.5849,-17.957 541.0294,-17.957 542.0995,-18.2628 547.7275,-18.2628 548.4112,-18.0721 550.1595,-18.0721 551.861,-19.8782 556.7575,-22.5082 561.6529,-22.5082 561.6529,-22.5082 556.7575,-22.5082 551.861,-19.8782 550.1595,-18.0721 548.4112,-18.0721 547.7275,-18.2628 542.0995,-18.2628 541.0294,-17.957 537.5849,-17.957 537.3267,-17.8843 536.7755,-16.8895 541.3614,128.375 541.8006,128.3958 552.5881,129.3006 561.0101,130.1609 567.3504,131.1566 569.4024,131.0526 584.4094,130.5615 590.1346,130.5796 655.8766,131.9662 681.7607,120.3518 711.2524,96.4524 774.7893,93.8786 784.785,93.6502 801.0198,93.8533 809.1368,94.3856 822.5827,95.5054 834.1503,97.0817 838.2142,97.7791 848.9662,99.8149 850.1367,100.0779 861.3847,102.8062 873.3442,105.9187 879.5271,103.2583 929.9811,82.533 1015.6463,23.4594 1029.202,22.9997 1036.5594,22.9825 1037.0514,22.9969 1038.0535,23.042 1061.4725,17.3798 1118.3501,4.6083 1137.452,-6.4883 1181.4602,-76.3788 1182.8446,-81.7679 1190.959,-131.7381 1202.7623,-188.6607 1213.4596,-235.5072 1188.7047,-249.854 1188.141,-250.1685 1169.033,-259.6326 1054.8722,-233.1649 1039.1711,-230.0965 1025.5398,-228.9466 1029.5542,-151.1669 1030.6635,-149.9323 1029.6678,-148.8041 1023.5542,-145.207 1019.2246,-145.207 1019.2246,-145.207 1023.5542,-145.207 1029.6678,-148.8041 1030.6635,-149.9323 1029.5542,-151.1669 1025.5398,-228.9466 1020.035,-228.6864 1015.7673,-228.7995 1012.999,-228.6731 1001.3292,-229.0021 1000.4549,-228.9636 1000.6294,-185.1099 1004.1968,-150.0377 1003.3815,-149.7943 1002.2488,1.9127 1000.564,-.5299 1000.564,-.5299 1002.2488,1.9127 1003.3815,-149.7943 1004.1968,-150.0377 1000.6294,-185.1099 1000.4549,-228.9636 1000.3353,-228.9671 992.1679,-228.6187 979.1026,-228.5453 976.5534,-228.3473 969.5057,-227.2899 965.6071,-226.5631 951.9944,-223.5276 948.0563,-222.3666 942.5769,-228.2049 940.7195,-229.9201 937.8751,-232.7856 932.5835,-237.7239 931.5197,-238.933 868.8804,-304.3422 865.5792,-307.4625 864.4591,-308.6091 863.7129,-309.4352 859.3644,-313.4428 855.8292,-316.947 849.7718,-323.3826 843.6602,-330.3054 841.5764,-332.9655 827.103,-319.0484 820.8264,-314.1289 819.464,-312.9618 810.8459,-306.1103 808.6505,-304.5061 802.5471,-300.4257 802.1856,-288.2005 802.1856,-288.2005 802.5471,-300.4257 748.612,-270.971 748.3723,-270.8252 739.8084,-265.0502 727.8448,-256.2222 726.0557,-254.5683 718.355,-254.7263 716.003,-254.6896 715.3651,-238.7557 715.3651,-238.7557 716.003,-254.6896 715.3878,-254.7239 704.8799,-254.9296 701.0517,-254.7272 700.729,-254.6985 693.9207,-254.5783 691.0783,-254.6294 688.4174,-254.7721 686.7745,-254.9189 684.3993,-254.9591 675.5475,-254.7898 675.5797,-239.9626 681.121,-179.8102 685.4269,-177.4549 687.3372,-175.3199 685.8773,-173.7412 681.2418,-171.2023 681.2418,-171.2023 685.8773,-173.7412 687.3372,-175.3199 685.4269,-177.4549 681.121,-179.8102 675.5797,-239.9626 675.5475,-254.7898 668.9309,-255.369 660.4532,-256.4142 651.5573,-257.8276 632.9595,-262.7753 624.0535,-265.4526 573.16,-322.978 573.3007,-323.892 574.65,-334.654 575.5528,-343.997 575.9683,-350.1228 581.0999,-390.8005 577.3997,-393.9239 571.945,-397.8954 564.1395,-403.946 552.8898,-411.751 544.7402,-416.7369 528.7334,-425.2357 474.6969,-451.6198 457.9594,-460.5175 458.1655,-418.2924 457.3823,-404.3479 457.3823,-404.3479 458.1655,-418.2924 457.9594,-460.5175 446.0709,-468.3218 441.7309,-471.3495 428.1384,-481.9809 422.3493,-486.9865 421.0139,-484.9729 420.1064,-483.6729 416.2316,-366.7986 416.6097,-366.6876 421.8185,-366.6876 422.5623,-366.4701 426.0183,-366.4701 426.5182,-366.3232 428.6403,-366.3232 432.9348,-370.2005 436.9321,-371.3121 436.9321,-371.3121 432.9348,-370.2005 428.6403,-366.3232 426.5182,-366.3232 426.0183,-366.4701 422.5623,-366.4701 421.8185,-366.6876 416.6097,-366.6876 416.2316,-366.7986 420.1064,-483.6729 405.3294,-463.5628 383.5894,-437.3874 381.7431,-434.693 381.7431,-434.693"/>
<polygon fill="#ccebc5" stroke="#ccebc5" points="1015.7673,-228.7995 1015.3353,-263.4312 1015.3353,-263.4312 1015.7673,-228.7995 1020.035,-228.6864 1025.5398,-228.9466 1039.1711,-230.0965 1054.8722,-233.1649 1169.033,-259.6326 1165.9928,-263.8365 1160.8168,-270.2429 1152.9334,-279.2898 1138.9055,-294.7555 1137.6998,-296.2282 1108.4984,-328.7567 1017.1774,-313.2527 1014.0748,-310.2768 1012.5317,-309.8496 1009.6556,-307.8558 1008.1075,-307.8558 1007.1376,-308.1299 1003.5192,-308.1299 998.3085,-343.7057 996.8479,-307.8369 991.9784,-307.8369 990.8921,-307.5249 988.6938,-307.5249 982.7312,-275.2176 981.8274,-306.3104 977.0128,-303.5 977.0128,-303.5 981.8274,-306.3104 983.1407,-307.8702 981.0739,-310.2906 977.7423,-312.0867 971.3074,-312.0867 967.1525,-309.8101 965.3119,-307.7478 962.2922,-307.7478 961.3389,-307.4786 958.153,-307.4786 958.153,-307.4786 961.3389,-307.4786 962.2922,-307.7478 965.3119,-307.7478 967.1525,-309.8101 971.3074,-312.0867 977.7423,-312.0867 981.0739,-310.2906 983.1407,-307.8702 981.8274,-306.3104 982.7312,-275.2176 988.6938,-307.5249 990.8921,-307.5249 991.9784,-307.8369 996.8479,-307.8369 998.3085,-343.7057 1003.5192,-308.1299 1007.1376,-308.1299 1008.1075,-307.8558 1009.6556,-307.8558 1012.5317,-309.8496 1014.0748,-310.2768 1017.1774,-313.2527 1108.4984,-328.7567 1029.6477,-422.85 1024.7194,-427.8109 1009.6276,-443.7114 992.9785,-462.7176 991.8533,-464.1453 979.0769,-481.555 972.0224,-480.0347 960.4088,-477.9066 957.9178,-477.4905 957.354,-399.5907 955.631,-353.9368 950.7653,-307.8199 947.5961,-307.8199 947.5961,-307.8199 950.7653,-307.8199 955.631,-353.9368 957.354,-399.5907 957.9178,-477.4905 945.2665,-475.9862 940.8459,-475.6026 920.7604,-474.1819 914.0339,-473.8147 906.8276,-473.3065 894.6823,-472.0627 857.2391,-444.3344 751.9848,-446.7068 746.6667,-446.4363 744.0832,-446.4318 732.3401,-446.7003 730.0604,-446.5847 718.6863,-446.5677 715.9879,-446.4976 715.3188,-446.4475 712.4566,-446.3738 708.3263,-446.3687 706.0372,-446.4218 705.8289,-446.4369 705.1546,-446.4691 692.6945,-446.4563 688.4017,-446.5574 685.2036,-446.4761 682.1168,-446.5492 680.3331,-449.8795 671.2579,-464.9428 657.2436,-485.3509 649.0534,-494.7096 648.6913,-495.1727 640.0401,-505.2394 636.7255,-508.3126 629.4925,-516.0678 624.6758,-520.5157 624.6539,-520.5328 622.4493,-521.9657 592.8315,-546.1646 586.1342,-552.7854 584.8609,-554.2521 578.8781,-559.1268 568.231,-570.3402 567.9316,-570.6887 563.3512,-575.4326 560.4135,-578.7639 559.5216,-579.8666 558.5284,-579.3749 553.7642,-577.2614 549.6888,-575.6636 540.7356,-572.6144 531.4485,-569.9431 507.8855,-564.4366 503.6047,-563.2155 497.3698,-561.1138 491.4543,-558.8153 478.0181,-552.1936 461.8381,-541.7015 457.7888,-538.6708 442.1574,-525.3141 433.9438,-517.4736 421.4636,-506.2639 418.0555,-503.5194 398.612,-517.3212 378.2899,-557.4929 369.5576,-578.2922 385.6534,-615.4206 393.9806,-642.5492 399.0449,-664.002 399.7641,-665.9697 423.9813,-721.8317 404.7266,-731.0373 395.4637,-734.3977 389.4957,-736.3353 347.2026,-748.4497 345.0273,-747.2148 340.2332,-744.7072 337.449,-743.3748 331.2929,-740.6987 319.1097,-736.4642 305.5283,-732.9452 307.1957,-698.9318 311.5778,-669.5502 315.7397,-668.4274 320.0701,-664.8213 316.4009,-661.6682 316.4009,-661.6682 320.0701,-664.8213 315.7397,-668.4274 311.5778,-669.5502 307.1957,-698.9318 305.5283,-732.9452 305.4489,-732.9317 290.7194,-731.0771 288.9514,-731.0115 281.3133,-731.0654 279.5666,-730.9976 279.2294,-730.9689 275.2451,-730.8076 269.1053,-730.8312 268.0152,-730.7854 254.8103,-729.6221 253.2693,-729.3459 246.3923,-727.7943 235.8695,-724.933 231.1605,-723.2217 220.8608,-718.9987 206.8408,-711.9612 168.4893,-691.0249 121.8184,-667.2693 53.8861,-664.3031 53.6411,-663.9913 47.5344,-661.3494 36.087,-656.7592 30.642,-652.5747 29.7799,-651.95 -157.2509,-524.3221 -136.1927,-462.7385 12.7362,-458.3364 23.8156,-461.5845 29.2361,-458.2641 31.2946,-455.127 33.5589,-455.127 34.2006,-455.9002 40.322,-459.6835 44.7945,-459.6835 51.1755,-455.8081 51.7494,-455.1455 53.3535,-455.1455 53.7059,-455.4011 55.1545,-457.5208 55.1545,-457.5208 53.7059,-455.4011 53.3535,-455.1455 55.3212,-452.2858 61.2327,-448.6078 80.8152,-454.395 86.1942,-455.09 153.4045,-455.09 155.1667,-472.1096 219.779,-488.0231 223.3856,-538.8872 228.4239,-541.6076 227.9916,-489.5843 235.5404,-490.588 233.159,-545.2635 238.912,-545.2635 238.9788,-545.2826 243.9035,-545.2826 244.2951,-545.3937 247.5652,-545.3937 248.0757,-545.9692 254.4153,-549.8059 253.14,-587.5399 253.7102,-600.4935 253.6335,-606.7504 263.8058,-605.6489 274.1505,-605.0594 273.9708,-599.9052 273.9708,-599.9052 274.1505,-605.0594 263.8058,-605.6489 253.6335,-606.7504 253.7102,-600.4935 253.14,-587.5399 254.4153,-549.8059 248.0757,-545.9692 247.5652,-545.3937 244.2951,-545.3937 243.9035,-545.2826 238.9788,-545.2826 238.912,-545.2635 233.159,-545.2635 235.5404,-490.588 227.9916,-489.5843 228.4239,-541.6076 223.3856,-538.8872 219.779,-488.0231 155.1667,-472.1096 153.4045,-455.09 153.3718,-444.619 235.6118,-439.9316 245.3351,-442.9665 245.3351,-442.9665 235.6118,-439.9316 153.3718,-444.619 153.4045,-455.09 86.1942,-455.09 80.8152,-454.395 61.2327,-448.6078 55.3212,-452.2858 53.3535,-455.1455 51.7494,-455.1455 51.1755,-455.8081 44.7945,-459.6835 40.322,-459.6835 34.2006,-455.9002 33.5589,-455.127 31.2946,-455.127 29.2361,-458.2641 23.8156,-461.5845 12.7362,-458.3364 -136.1927,-462.7385 -129.4316,-440.1926 -115.5387,-390.2693 -80.8358,-335.4513 -77.3468,-332.3567 -.3768,-302.293 30.0597,-300.9542 36.9182,-300.4008 41.1758,-299.9792 59.7151,-297.1175 107.114,-288.0605 158.5645,-186.5994 227.212,-132.5561 247.0684,-92.167 297.5739,-56.6103 362.1729,-31.8897 375.9015,-43.6009 378.4958,-45.7381 395.8311,-59.5181 397.5306,-60.7657 402.235,-64.3875 410.8514,-70.7523 420.0199,-76.9507 419.8163,-168.1853 416.4732,-204.3492 415.2354,-206.27 412.5036,-206.27 412.3783,-206.2328 409.6595,-161.7551 406.0899,-202.6345 401.2497,-201.2404 396.386,-202.6354 393.8952,-167.3148 389.7596,-206.17 388.1628,-206.17 385.8726,-209.3514 380.1388,-212.7211 366.3461,-208.6054 320.787,-206.21 294.3591,-206.21 290.9269,-203.2212 280.9787,-193.455 279.445,-191.8664 279.445,-191.8664 280.9787,-193.455 290.9269,-203.2212 294.3591,-206.21 320.787,-206.21 366.3461,-208.6054 380.1388,-212.7211 385.8726,-209.3514 388.1628,-206.17 389.7596,-206.17 393.8952,-167.3148 396.386,-202.6354 401.2497,-201.2404 406.0899,-202.6345 409.6595,-161.7551 412.3783,-206.2328 412.5036,-206.27 415.2354,-206.27 416.4732,-204.3492 419.8163,-168.1853 420.0199,-76.9507 461.2805,-102.2826 459.3504,-190.7967 457.6183,-206.1398 457.6323,-206.348 459.1894,-216.1782 457.7456,-282.3912 454.6776,-283.169 444.6483,-284.97 442.3757,-285.2939 440.4668,-285.4957 429.2405,-286.2707 420.7169,-286.2314 415.6202,-286.5868 415.3279,-286.5857 407.7253,-286.2758 406.4925,-286.1801 406.0831,-286.1636 401.3335,-286.3243 398.9096,-286.4969 387.5801,-299.23 347.7072,-360.451 340.5858,-369.1657 346.9552,-378.3478 381.7431,-434.693 383.5894,-437.3874 405.3294,-463.5628 420.1064,-483.6729 421.0139,-484.9729 422.3493,-486.9865 428.1384,-481.9809 441.7309,-471.3495 446.0709,-468.3218 457.9594,-460.5175 474.6969,-451.6198 528.7334,-425.2357 544.7402,-416.7369 552.8898,-411.751 564.1395,-403.946 571.945,-397.8954 577.3997,-393.9239 581.0999,-390.8005 575.9683,-350.1228 575.5528,-343.997 574.65,-334.654 573.3007,-323.892 573.16,-322.978 624.0535,-265.4526 632.9595,-262.7753 651.5573,-257.8276 660.4532,-256.4142 668.9309,-255.369 675.5475,-254.7898 684.3993,-254.9591 686.7745,-254.9189 688.4174,-254.7721 691.0783,-254.6294 693.9207,-254.5783 700.729,-254.6985 701.0517,-254.7272 704.8799,-254.9296 715.3878,-254.7239 716.003,-254.6896 718.355,-254.7263 726.0557,-254.5683 727.8448,-256.2222 739.8084,-265.0502 748.3723,-270.8252 748.612,-270.971 802.5471,-300.4257 808.6505,-304.5061 810.8459,-306.1103 819.464,-312.9618 820.8264,-314.1289 827.103,-319.0484 841.5764,-332.9655 843.6602,-330.3054 849.7718,-323.3826 855.8292,-316.947 859.3644,-313.4428 863.7129,-309.4352 864.4591,-308.6091 865.5792,-307.4625 868.8804,-304.3422 931.5197,-238.933 932.5835,-237.7239 937.8751,-232.7856 940.7195,-229.9201 942.5769,-228.2049 948.0563,-222.3666 951.9944,-223.5276 965.6071,-226.5631 969.5057,-227.2899 976.5534,-228.3473 979.1026,-228.5453 992.1679,-228.6187 1000.3353,-228.9671 1000.4549,-228.9636 1001.3292,-229.0021 1012.999,-228.6731 1015.7673,-228.7995 1015.7673,-228.7995"/>
<polygon fill="#decbe4" stroke="#decbe4" points="813.7574,-901.9846 799.4189,-904.8296 763.8466,-910.9846 761.54,-911.4408 750.3455,-913.9338 740.3849,-916.895 725.6106,-922.029 715.2299,-926.1512 712.6668,-927.3615 679.9677,-963.1321 681.1166,-1005.2949 680.8198,-1018.9987 680.841,-1026.4089 681.1175,-1036.5001 681.8731,-1051.0582 685.3585,-1178.9658 723.7409,-1187.8107 799.3469,-1180.3802 814.5407,-1179.153 826.3373,-1178.6152 831.582,-1178.4685 831.2834,-1137.925 831.2834,-1137.925 831.582,-1178.4685 835.6146,-1178.4976 836.2683,-1160.2998 838.4258,-1024.082 834.486,-1020.6735 838.0223,-1017.5637 838.0223,-1017.5637 834.486,-1020.6735 838.4258,-1024.082 836.2683,-1160.2998 835.6146,-1178.4976 850.0527,-1179.11 864.9506,-1180.004 868.1456,-1180.4202 876.8309,-1181.7051 886.4195,-1180.4956 916.6796,-1177.2112 955.5275,-1163.5988 955.8005,-1163.5825 976.2191,-1162.7194 990.1215,-1162.6169 994.936,-1162.7494 995.3913,-1094.4824 993.168,-1005.5946 998.7364,-1007.2557 1003.4789,-1005.8726 1003.4789,-1005.8726 998.7364,-1007.2557 993.168,-1005.5946 995.3913,-1094.4824 994.936,-1162.7494 1011.3156,-1163.7712 1018.7711,-1164.7563 1039.286,-1167.8273 1128.0314,-1182.6449 1189.4717,-1068.1934 1189.9136,-1008.3105 1190.7238,-990.5489 1192.2803,-966.486 1204.5155,-943.2003 1238.514,-920.6198 1322.1719,-860.4694 1393.0146,-788.7005 1548.262,-914.528 1548.9268,-914.9606 1585.9934,-908.8694 1591.0441,-750.9323 1391.8035,-769.2578 1391.2316,-757.0236 1388.2411,-708.8409 1386.7228,-689.1665 1195.9424,-690.4832 1191.923,-769.0262 1187.1467,-771.8584 1181.6998,-711.6346 1181.21,-775.6025 1184.6073,-775.6025 1187.036,-779.3298 1182.1555,-848.9483 1181.1573,-775.6186 1179.4063,-775.6186 1176.0371,-772.5343 1175.075,-735.4675 1177.0912,-702.2769 1176.0985,-703.1337 1121.2423,-707.4914 1121.2423,-707.4914 1176.0985,-703.1337 1177.0912,-702.2769 1175.075,-735.4675 1176.0371,-772.5343 1179.4063,-775.6186 1181.1573,-775.6186 1182.1555,-848.9483 1187.036,-779.3298 1184.6073,-775.6025 1181.21,-775.6025 1181.6998,-711.6346 1187.1467,-771.8584 1191.923,-769.0262 1195.9424,-690.4832 1386.7228,-689.1665 1388.2411,-708.8409 1391.2316,-757.0236 1391.8035,-769.2578 1591.0441,-750.9323 1585.9934,-908.8694 1589.1971,-908.3989 1610.6398,-905.6241 1629.7123,-904.4973 1653.4384,-904.7625 1643.4957,-751.8015 1638.7106,-749.2795 1635.8312,-745.1534 1633.5828,-745.1534 1629.2861,-827.7308 1627.6749,-745.2767 1626.1216,-745.2767 1622.2145,-741.728 1617.4023,-740.3273 1617.4023,-740.3273 1622.2145,-741.728 1626.1216,-745.2767 1627.6749,-745.2767 1629.2861,-827.7308 1633.5828,-745.1534 1635.8312,-745.1534 1638.7106,-749.2795 1643.4957,-751.8015 1653.4384,-904.7625 1686.9912,-905.726 1784.7842,-821.0997 1787.1772,-817.9206 1792.3035,-756.026 1796.3955,-723.1389 1804.8148,-665.0034 1792.2057,-643.1628 1808.8384,-531.66 1810.8223,-520.0697 1817.3667,-486.1716 1817.5305,-485.4067 1794.2026,-425.8341 1738.553,-368.0921 1706.0219,-350.7519 1665.2667,-347.9588 1649.8887,-346.1354 1641.767,-345.0373 1634.5548,-343.8222 1635.1619,-511.2094 1630.2692,-508.502 1624.9598,-508.502 1621.0542,-383.4962 1620.9954,-377.5301 1614.056,-512.8068 1615.5173,-513.2333 1609.709,-564.1262 1609.2777,-512.8535 1604.793,-512.8535 1596.7419,-394.2343 1595.7668,-372.2639 1593.0801,-451.7105 1593.0801,-451.7105 1595.7668,-372.2639 1596.7419,-394.2343 1604.793,-512.8535 1609.2777,-512.8535 1609.709,-564.1262 1615.5173,-513.2333 1614.056,-512.8068 1620.9954,-377.5301 1621.0542,-383.4962 1624.9598,-508.502 1630.2692,-508.502 1635.1619,-511.2094 1634.5548,-343.8222 1620.989,-341.3113 1607.746,-337.9802 1595.5687,-334.7152 1589.8851,-332.8139 1413.0353,-393.0021 1411.0266,-394.168 1405.613,-417.0411 1402.0565,-434.368 1202.5481,-428.7718 1197.7119,-424.3643 1196.624,-423.9826 1203.3596,-514.0213 1203.3757,-514.4038 1187.0614,-514.3184 1187.0261,-517.6823 1187.3342,-532.2012 1187.3342,-532.2012 1187.0261,-517.6823 1187.0614,-514.3184 1203.3757,-514.4038 1203.3596,-514.0213 1196.624,-423.9826 1197.7119,-424.3643 1202.5481,-428.7718 1402.0565,-434.368 1405.613,-417.0411 1411.0266,-394.168 1241.2396,-246.1053 1218.5983,-237.5407 1213.4596,-235.5072 1188.7047,-249.854 1188.141,-250.1685 1169.033,-259.6326 1165.9928,-263.8365 1168.572,-349.6091 1164.8473,-419.8919 1170.4959,-418.136 1176.7419,-420.0789 1179.9741,-422.8466 1180.5338,-422.6803 1186.1122,-422.6803 1186.7733,-422.8841 1185.6689,-463.7328 1186.3605,-475.9275 1186.2041,-514.2355 1180.9375,-514.2413 1175.6855,-604.9923 1172.4565,-604.9923 1167.6196,-571.6379 1165.3448,-519.9492 1160.9048,-601.7016 1165.4664,-605.5001 1161.6082,-608.6498 1161.6082,-608.6498 1165.4664,-605.5001 1160.9048,-601.7016 1165.3448,-519.9492 1167.6196,-571.6379 1172.4565,-604.9923 1175.6855,-604.9923 1180.9375,-514.2413 1186.2041,-514.2355 1186.3605,-475.9275 1185.6689,-463.7328 1186.7733,-422.8841 1186.1122,-422.6803 1180.5338,-422.6803 1179.9741,-422.8466 1176.7419,-420.0789 1170.4959,-418.136 1164.8473,-419.8919 1161.6626,-422.7669 1165.163,-425.9872 1165.163,-425.9872 1161.6626,-422.7669 1164.8473,-419.8919 1168.572,-349.6091 1165.9928,-263.8365 1160.8168,-270.2429 1152.9334,-279.2898 1138.9055,-294.7555 1137.6998,-296.2282 1140.3123,-386.6003 1144.5911,-420.3705 1144.5911,-420.3705 1140.3123,-386.6003 1137.6998,-296.2282 1108.4984,-328.7567 1029.6477,-422.85 1024.7194,-427.8109 1009.6276,-443.7114 992.9785,-462.7176 991.8533,-464.1453 979.0769,-481.555 995.9957,-500.5345 1010.6586,-586.9796 1012.7025,-601.4645 1003.6361,-618.3868 987.9208,-650.1846 966.6418,-703.4853 961.5056,-715.0226 938.1513,-758.6132 915.8776,-769.2083 903.6456,-775.3436 897.3971,-778.7957 890.8261,-805.9823 887.6921,-822.447 876.1755,-875.5491 981.6376,-862.7963 1008.7144,-862.9329 1014.3613,-857.6367 1013.564,-923.1826 1020.6276,-857.0714 1024.1479,-857.0714 1024.9526,-856.8281 1024.9526,-856.8281 1024.1479,-857.0714 1020.6276,-857.0714 1013.564,-923.1826 1014.3613,-857.6367 1008.7144,-862.9329 981.6376,-862.7963 876.1755,-875.5491 875.0195,-879.8951 873.2977,-880.7529 855.8612,-888.5864 840.8915,-894.5587 832.3845,-897.3079 830.6033,-897.7948 813.7574,-901.9846 813.7574,-901.9846"/>
<polygon fill="#fed9a6" stroke="#fed9a6" points="453.4771,-722.8034 457.096,-722.784 464.1746,-722.5368 466.7577,-722.5929 473.6296,-722.9365 481.5887,-723.7853 491.6855,-725.1483 492.0436,-725.2169 508.2381,-728.7813 518.0514,-731.4922 502.5886,-818.7457 502.4724,-822.3687 502.8516,-831.7943 501.9651,-840.2639 487.5512,-921.5984 478.2799,-922.8666 471.1346,-923.4576 453.1676,-959.5058 437.5771,-995.1169 433.1873,-1010.4272 424.4923,-1034.3289 422.2154,-1039.6071 389.599,-1105.0471 377.8022,-1131.9185 370.4749,-1149.5414 359.8822,-1176.3234 354.0956,-1193.9429 352.9052,-1197.7404 329.9551,-1177.6254 204.3014,-1073.8798 180.3867,-989.5755 175.7895,-975.5089 171.4348,-963.0012 208.195,-936.5622 217.2446,-930.3264 228.1796,-923.1283 242.5844,-914.9817 250.9958,-910.4896 252.2614,-909.8542 253.6056,-909.2623 266.9745,-903.7784 275.5029,-900.8063 287.195,-897.0936 320.9229,-887.449 335.583,-819.95 336.3201,-803.4744 337.1639,-795.2214 337.4937,-793.1525 347.2026,-748.4497 389.4957,-736.3353 395.4637,-734.3977 404.7266,-731.0373 423.9813,-721.8317 424.2386,-721.8693 425.0671,-721.9412 427.5056,-815.4766 422.1465,-815.4766 416.139,-818.9659 415.4732,-819.6973 413.3199,-819.6973 406.6162,-782.3697 405.6387,-771.2996 400.3616,-819.8721 397.9924,-819.8721 397.9127,-819.9341 397.9127,-819.9341 397.9924,-819.8721 400.3616,-819.8721 405.6387,-771.2996 406.6162,-782.3697 413.3199,-819.6973 415.4732,-819.6973 417.581,-822.1425 421.4787,-824.2928 421.4787,-824.2928 417.581,-822.1425 415.4732,-819.6973 416.139,-818.9659 422.1465,-815.4766 427.5056,-815.4766 425.0671,-721.9412 428.6888,-722.1487 441.2293,-722.4977 444.614,-722.392 446.9231,-722.4506 453.4771,-722.8034 453.4771,-722.8034"/>
<polygon fill="#b3cde3" stroke="#b3cde3" points="681.1175,-1036.5001 680.841,-1026.4089 680.8198,-1018.9987 681.1166,-1005.2949 679.9677,-963.1321 615.2062,-940.1016 607.1527,-937.7083 592.6496,-934.2408 590.8508,-933.864 572.5811,-931.6279 564.8328,-931.134 554.7853,-931.0811 552.9026,-931.1262 547.7332,-930.7966 536.1232,-930.7366 534.6718,-930.6867 524.3588,-929.7297 514.317,-928.5048 510.5374,-927.8245 504.2594,-926.5115 495.0072,-924.0341 487.5512,-921.5984 478.2799,-922.8666 471.1346,-923.4576 453.1676,-959.5058 437.5771,-995.1169 433.1873,-1010.4272 424.4923,-1034.3289 422.2154,-1039.6071 389.599,-1105.0471 377.8022,-1131.9185 370.4749,-1149.5414 359.8822,-1176.3234 354.0956,-1193.9429 352.9052,-1197.7404 376.6935,-1241.3046 370.7699,-1246.6224 363.106,-1253.3423 346.0711,-1266.8837 335.1045,-1275.1499 226.6144,-1354.667 197.7985,-1444.7622 197.885,-1454.3778 197.4221,-1491.0125 197.4201,-1491.0714 195.3995,-1527.2845 195.6047,-1528.1475 278.1246,-1632.3549 300.4921,-1640.7678 336.0233,-1641.0745 344.8162,-1641.3 347.7201,-1641.4241 357.1421,-1641.9869 357.6773,-1517.7523 354.4611,-1478.8995 354.4611,-1478.8995 357.6773,-1517.7523 357.1421,-1641.9869 372.5923,-1643.4365 380.688,-1644.4709 385.8586,-1645.3074 387.9845,-1644.4357 400.3194,-1640.0841 422.0824,-1633.2368 517.9307,-1606.8239 526.2334,-1596.3579 556.8775,-1529.6266 571.2219,-1500.1301 569.6252,-1478.3524 566.8117,-1425.125 565.8254,-1394.4857 521.7244,-1265.0891 524.9163,-1263.0564 530.6986,-1259.5544 543.173,-1252.1929 543.5593,-1251.9711 555.834,-1245.302 685.3585,-1178.9658 681.8731,-1051.0582 681.1175,-1036.5001 681.1175,-1036.5001"/>
<polygon fill="#fbb4ae" stroke="#fbb4ae" points="279.5666,-730.9976 281.3133,-731.0654 288.9514,-731.0115 290.7194,-731.0771 305.4489,-732.9317 305.5283,-732.9452 319.1097,-736.4642 331.2929,-740.6987 337.449,-743.3748 340.2332,-744.7072 345.0273,-747.2148 347.2026,-748.4497 337.4937,-793.1525 337.1639,-795.2214 336.3201,-803.4744 335.583,-819.95 320.9229,-887.449 287.195,-897.0936 275.5029,-900.8063 266.9745,-903.7784 253.6056,-909.2623 252.2614,-909.8542 250.9958,-910.4896 242.5844,-914.9817 228.1796,-923.1283 217.2446,-930.3264 208.195,-936.5622 171.4348,-963.0012 164.1606,-958.718 105.5918,-904.725 74.3527,-842.1471 58.2105,-811.5307 58.2016,-772.5246 53.8861,-664.3031 121.8184,-667.2693 168.4893,-691.0249 206.8408,-711.9612 220.8608,-718.9987 231.1605,-723.2217 235.8695,-724.933 246.3923,-727.7943 253.2693,-729.3459 254.8103,-729.6221 268.0152,-730.7854 269.1053,-730.8312 275.2451,-730.8076 279.2294,-730.9689 279.5666,-730.9976 279.5666,-730.9976"/>
<polygon fill="#ccebc5" stroke="#ccebc5" points="552.2412,-836.2856 551.1679,-836.5704 546.4954,-840.6404 501.9651,-840.2639 502.8516,-831.7943 502.4724,-822.3687 502.5886,-818.7457 518.0514,-731.4922 552.6284,-725.3627 552.3646,-754.1791 551.5031,-773.4478 551.5031,-773.4478 552.3646,-754.1791 552.6284,-725.3627 560.6816,-723.293 567.5734,-721.1507 580.1332,-716.9067 586.9139,-714.4361 606.4181,-705.7655 608.319,-704.8715 609.4069,-704.3026 612.7317,-711.5821 648.4873,-781.4364 648.4873,-781.4364 612.7317,-711.5821 609.4069,-704.3026 619.4311,-691.608 623.468,-690.0982 638.7703,-685.0871 655.6162,-681.1411 659.4907,-680.3246 672.4084,-678.2056 679.1309,-677.4178 691.1166,-676.5726 698.9125,-676.2053 705.3936,-676.3538 706.8841,-676.4577 711.108,-676.5493 719.4495,-676.5298 721.196,-676.6075 727.3422,-676.4373 740.7189,-686.3652 743.0188,-687.8904 754.63,-695.1491 769.1837,-702.5729 828.8282,-730.6539 843.7579,-738.2542 858.4382,-747.3674 866.5748,-753.0153 877.7513,-761.6033 884.5501,-767.3279 886.9393,-769.428 886.9982,-769.482 890.4136,-772.4572 897.3971,-778.7957 890.8261,-805.9823 887.6921,-822.447 876.1755,-875.5491 875.0195,-879.8951 873.2977,-880.7529 855.8612,-888.5864 840.8915,-894.5587 832.3845,-897.3079 830.6033,-897.7948 813.7574,-901.9846 799.4189,-904.8296 763.8466,-910.9846 761.54,-911.4408 750.3455,-913.9338 740.3849,-916.895 725.6106,-922.029 715.2299,-926.1512 712.6668,-927.3615 679.9677,-963.1321 615.2062,-940.1016 607.1527,-937.7083 592.6496,-934.2408 598.1005,-834.7021 601.9423,-834.7021 602.107,-834.7494 608.0528,-834.7494 608.1248,-834.7285 611.3683,-834.7285 611.3683,-834.7285 608.1248,-834.7285 608.0528,-834.7494 602.107,-834.7494 601.9423,-834.7021 598.1005,-834.7021 592.6496,-934.2408 590.8508,-933.864 572.5811,-931.6279 564.8328,-931.134 554.7853,-931.0811 552.9026,-931.1262 547.7332,-930.7966 536.1232,-930.7366 534.6718,-930.6867 524.3588,-929.7297 514.317,-928.5048 510.5374,-927.8245 504.2594,-926.5115 495.0072,-924.0341 487.5512,-921.5984 501.9651,-840.2639 546.4954,-840.6404 551.1679,-836.5704 552.2412,-836.2856 554.2429,-834.9316 557.0169,-834.9316 557.3624,-834.8328 560.9701,-834.8328 561.8824,-834.5684 567.7023,-834.5684 567.8932,-834.6226 571.357,-834.6226 572.5033,-834.2987 573.0344,-834.2987 577.8973,-838.5183 581.6328,-839.5226 587.4022,-837.8228 591.2848,-834.3881 587.4992,-831.2097 587.4992,-831.2097 591.2848,-834.3881 587.4022,-837.8228 581.6328,-839.5226 577.8973,-838.5183 573.0344,-834.2987 572.5033,-834.2987 571.357,-834.6226 567.8932,-834.6226 567.7023,-834.5684 561.8824,-834.5684 560.9701,-834.8328 557.3624,-834.8328 557.0169,-834.9316 554.2429,-834.9316 552.2412,-836.2856 552.2412,-836.2856"/>
<polyline fill="none" stroke="#000000" points="679.1309,-677.4178 672.4084,-678.2056 659.4907,-680.3246 655.6162,-681.1411 638.7703,-685.0871 623.468,-690.0982 619.4311,-691.608 609.4069,-704.3026 608.319,-704.8715 606.4181,-705.7655 586.9139,-714.4361 580.1332,-716.9067 567.5734,-721.1507 560.6816,-723.293 552.6284,-725.3627 518.0514,-731.4922 508.2381,-728.7813 492.0436,-725.2169 491.6855,-725.1483 481.5887,-723.7853 473.6296,-722.9365 466.7577,-722.5929 464.1746,-722.5368 457.096,-722.784 453.4771,-722.8034 446.9231,-722.4506 444.614,-722.392 441.2293,-722.4977 428.6888,-722.1487 425.0671,-721.9412 424.2386,-721.8693 423.9813,-721.8317 399.7641,-665.9697 399.0449,-664.002 393.9806,-642.5492 385.6534,-615.4206 369.5576,-578.2922 378.2899,-557.4929 398.612,-517.3212 418.0555,-503.5194 421.4636,-506.2639 433.9438,-517.4736 442.1574,-525.3141 457.7888,-538.6708 461.8381,-541.7015 478.0181,-552.1936 491.4543,-558.8153 497.3698,-561.1138 503.6047,-563.2155 507.8855,-564.4366 531.4485,-569.9431 540.7356,-572.6144 549.6888,-575.6636 553.7642,-577.2614 558.5284,-579.3749 559.5216,-579.8666 560.4135,-578.7639 563.3512,-575.4326 567.9316,-570.6887 568.231,-570.3402 578.8781,-559.1268 584.8609,-554.2521 586.1342,-552.7854 592.8315,-546.1646 622.4493,-521.9657 624.6539,-520.5328 624.6758,-520.5157 629.4925,-516.0678 636.7255,-508.3126 640.0401,-505.2394 648.6913,-495.1727 649.0534,-494.7096 657.2436,-485.3509 671.2579,-464.9428 680.3331,-449.8795 682.1168,-446.5492 685.2036,-446.4761 688.4017,-446.5574 692.6945,-446.4563 705.1546,-446.4691 705.8289,-446.4369 706.0372,-446.4218 708.3263,-446.3687 712.4566,-446.3738 715.3188,-446.4475 715.9879,-446.4976 718.6863,-446.5677 730.0604,-446.5847 732.3401,-446.7003 744.0832,-446.4318 746.6667,-446.4363 751.9848,-446.7068 857.2391,-444.3344 894.6823,-472.0627 906.8276,-473.3065 914.0339,-473.8147 920.7604,-474.1819 940.8459,-475.6026 945.2665,-475.9862 957.9178,-477.4905 960.4088,-477.9066 972.0224,-480.0347 979.0769,-481.555 995.9957,-500.5345 1010.6586,-586.9796 1012.7025,-601.4645 1003.6361,-618.3868 987.9208,-650.1846 966.6418,-703.4853 961.5056,-715.0226 938.1513,-758.6132 915.8776,-769.2083 903.6456,-775.3436 897.3971,-778.7957 890.4136,-772.4572 886.9982,-769.482 886.9393,-769.428 884.5501,-767.3279 877.7513,-761.6033 866.5748,-753.0153 858.4382,-747.3674 843.7579,-738.2542 828.8282,-730.6539 769.1837,-702.5729 754.63,-695.1491 743.0188,-687.8904 740.7189,-686.3652 727.3422,-676.4373 721.196,-676.6075 719.4495,-676.5298 711.108,-676.5493 706.8841,-676.4577 705.3936,-676.3538 698.9125,-676.2053 691.1166,-676.5726 679.1309,-677.4178 "/>
<polyline fill="none" stroke="#000000" points="834.1503,97.0817 838.2142,97.7791 848.9662,99.8149 850.1367,100.0779 861.3847,102.8062 873.3442,105.9187 879.5271,103.2583 929.9811,82.533 1015.6463,23.4594 1029.202,22.9997 1036.5594,22.9825 1037.0514,22.9969 1038.0535,23.042 1061.4725,17.3798 1118.3501,4.6083 1137.452,-6.4883 1181.4602,-76.3788 1182.8446,-81.7679 1190.959,-131.7381 1202.7623,-188.6607 1213.4596,-235.5072 1188.7047,-249.854 1188.141,-250.1685 1169.033,-259.6326 1054.8722,-233.1649 1039.1711,-230.0965 1025.5398,-228.9466 1020.035,-228.6864 1015.7673,-228.7995 1012.999,-228.6731 1001.3292,-229.0021 1000.4549,-228.9636 1000.3353,-228.9671 992.1679,-228.6187 979.1026,-228.5453 976.5534,-228.3473 969.5057,-227.2899 965.6071,-226.5631 951.9944,-223.5276 948.0563,-222.3666 942.5769,-228.2049 940.7195,-229.9201 937.8751,-232.7856 932.5835,-237.7239 931.5197,-238.933 868.8804,-304.3422 865.5792,-307.4625 864.4591,-308.6091 863.7129,-309.4352 859.3644,-313.4428 855.8292,-316.947 849.7718,-323.3826 843.6602,-330.3054 841.5764,-332.9655 827.103,-319.0484 820.8264,-314.1289 819.464,-312.9618 810.8459,-306.1103 808.6505,-304.5061 802.5471,-300.4257 748.612,-270.971 748.3723,-270.8252 739.8084,-265.0502 727.8448,-256.2222 726.0557,-254.5683 718.355,-254.7263 716.003,-254.6896 715.3878,-254.7239 704.8799,-254.9296 701.0517,-254.7272 700.729,-254.6985 693.9207,-254.5783 691.0783,-254.6294 688.4174,-254.7721 686.7745,-254.9189 684.3993,-254.9591 675.5475,-254.7898 668.9309,-255.369 660.4532,-256.4142 651.5573,-257.8276 632.9595,-262.7753 624.0535,-265.4526 573.16,-322.978 573.3007,-323.892 574.65,-334.654 575.5528,-343.997 575.9683,-350.1228 581.0999,-390.8005 577.3997,-393.9239 571.945,-397.8954 564.1395,-403.946 552.8898,-411.751 544.7402,-416.7369 528.7334,-425.2357 474.6969,-451.6198 457.9594,-460.5175 446.0709,-468.3218 441.7309,-471.3495 428.1384,-481.9809 422.3493,-486.9865 421.0139,-484.9729 420.1064,-483.6729 405.3294,-463.5628 383.5894,-437.3874 381.7431,-434.693 346.9552,-378.3478 340.5858,-369.1657 347.7072,-360.451 387.5801,-299.23 398.9096,-286.4969 401.3335,-286.3243 406.0831,-286.1636 406.4925,-286.1801 407.7253,-286.2758 415.3279,-286.5857 415.6202,-286.5868 420.7169,-286.2314 429.2405,-286.2707 440.4668,-285.4957 442.3757,-285.2939 444.6483,-284.97 454.6776,-283.169 457.7456,-282.3912 459.1894,-216.1782 457.6323,-206.348 457.6183,-206.1398 459.3504,-190.7967 461.2805,-102.2826 420.0199,-76.9507 410.8514,-70.7523 402.235,-64.3875 397.5306,-60.7657 395.8311,-59.5181 378.4958,-45.7381 375.9015,-43.6009 362.1729,-31.8897 376.9067,-.0504 382.09,11.7593 405.409,67.9809 420.9435,101.9448 428.3866,115.8488 489.4011,127.5264 525.5601,127.9159 541.3614,128.375 541.8006,128.3958 552.5881,129.3006 561.0101,130.1609 567.3504,131.1566 569.4024,131.0526 584.4094,130.5615 590.1346,130.5796 655.8766,131.9662 681.7607,120.3518 711.2524,96.4524 774.7893,93.8786 784.785,93.6502 801.0198,93.8533 809.1368,94.3856 822.5827,95.5054 834.1503,97.0817 "/>
<polyline fill="none" stroke="#000000" points="558.5284,-579.3749 559.5216,-579.8666 560.4135,-578.7639 563.3512,-575.4326 567.9316,-570.6887 568.231,-570.3402 578.8781,-559.1268 584.8609,-554.2521 586.1342,-552.7854 592.8315,-546.1646 622.4493,-521.9657 624.6539,-520.5328 624.6758,-520.5157 629.4925,-516.0678 636.7255,-508.3126 640.0401,-505.2394 648.6913,-495.1727 649.0534,-494.7096 657.2436,-485.3509 671.2579,-464.9428 680.3331,-449.8795 682.1168,-446.5492 685.2036,-446.4761 688.4017,-446.5574 692.6945,-446.4563 705.1546,-446.4691 705.8289,-446.4369 706.0372,-446.4218 708.3263,-446.3687 712.4566,-446.3738 715.3188,-446.4475 715.9879,-446.4976 718.6863,-446.5677 730.0604,-446.5847 732.3401,-446.7003 744.0832,-446.4318 746.6667,-446.4363 751.9848,-446.7068 857.2391,-444.3344 894.6823,-472.0627 906.8276,-473.3065 914.0339,-473.8147 920.7604,-474.1819 940.8459,-475.6026 945.2665,-475.9862 957.9178,-477.4905 960.4088,-477.9066 972.0224,-480.0347 979.0769,-481.555 991.8533,-464.1453 992.9785,-462.7176 1009.6276,-443.7114 1024.7194,-427.8109 1029.6477,-422.85 1108.4984,-328.7567 1137.6998,-296.2282 1138.9055,-294.7555 1152.9334,-279.2898 1160.8168,-270.2429 1165.9928,-263.8365 1169.033,-259.6326 1054.8722,-233.1649 1039.1711,-230.0965 1025.5398,-228.9466 1020.035,-228.6864 1015.7673,-228.7995 1012.999,-228.6731 1001.3292,-229.0021 1000.4549,-228.9636 1000.3353,-228.9671 992.1679,-228.6187 979.1026,-228.5453 976.5534,-228.3473 969.5057,-227.2899 965.6071,-226.5631 951.9944,-223.5276 948.0563,-222.3666 942.5769,-228.2049 940.7195,-229.9201 937.8751,-232.7856 932.5835,-237.7239 931.5197,-238.933 868.8804,-304.3422 865.5792,-307.4625 864.4591,-308.6091 863.7129,-309.4352 859.3644,-313.4428 855.8292,-316.947 849.7718,-323.3826 843.6602,-330.3054 841.5764,-332.9655 827.103,-319.0484 820.8264,-314.1289 819.464,-312.9618 810.8459,-306.1103 808.6505,-304.5061 802.5471,-300.4257 748.612,-270.971 748.3723,-270.8252 739.8084,-265.0502 727.8448,-256.2222 726.0557,-254.5683 718.355,-254.7263 716.003,-254.6896 715.3878,-254.7239 704.8799,-254.9296 701.0517,-254.7272 700.729,-254.6985 693.9207,-254.5783 691.0783,-254.6294 688.4174,-254.7721 686.7745,-254.9189 684.3993,-254.9591 675.5475,-254.7898 668.9309,-255.369 660.4532,-256.4142 651.5573,-257.8276 632.9595,-262.7753 624.0535,-265.4526 573.16,-322.978 573.3007,-323.892 574.65,-334.654 575.5528,-343.997 575.9683,-350.1228 581.0999,-390.8005 577.3997,-393.9239 571.945,-397.8954 564.1395,-403.946 552.8898,-411.751 544.7402,-416.7369 528.7334,-425.2357 474.6969,-451.6198 457.9594,-460.5175 446.0709,-468.3218 441.7309,-471.3495 428.1384,-481.9809 422.3493,-486.9865 421.0139,-484.9729 420.1064,-483.6729 405.3294,-463.5628 383.5894,-437.3874 381.7431,-434.693 346.9552,-378.3478 340.5858,-369.1657 347.7072,-360.451 387.5801,-299.23 398.9096,-286.4969 401.3335,-286.3243 406.0831,-286.1636 406.4925,-286.1801 407.7253,-286.2758 415.3279,-286.5857 415.6202,-286.5868 420.7169,-286.2314 429.2405,-286.2707 440.4668,-285.4957 442.3757,-285.2939 444.6483,-284.97 454.6776,-283.169 457.7456,-282.3912 459.1894,-216.1782 457.6323,-206.348 457.6183,-206.1398 459.3504,-190.7967 461.2805,-102.2826 420.0199,-76.9507 410.8514,-70.7523 402.235,-64.3875 397.5306,-60.7657 395.8311,-59.5181 378.4958,-45.7381 375.9015,-43.6009 362.1729,-31.8897 297.5739,-56.6103 247.0684,-92.167 227.212,-132.5561 158.5645,-186.5994 107.114,-288.0605 59.7151,-297.1175 41.1758,-299.9792 36.9182,-300.4008 30.0597,-300.9542 -.3768,-302.293 -77.3468,-332.3567 -80.8358,-335.4513 -115.5387,-390.2693 -129.4316,-440.1926 -136.1927,-462.7385 -157.2509,-524.3221 29.7799,-651.95 30.642,-652.5747 36.087,-656.7592 47.5344,-661.3494 53.6411,-663.9913 53.8861,-664.3031 121.8184,-667.2693 168.4893,-691.0249 206.8408,-711.9612 220.8608,-718.9987 231.1605,-723.2217 235.8695,-724.933 246.3923,-727.7943 253.2693,-729.3459 254.8103,-729.6221 268.0152,-730.7854 269.1053,-730.8312 275.2451,-730.8076 279.2294,-730.9689 279.5666,-730.9976 281.3133,-731.0654 288.9514,-731.0115 290.7194,-731.0771 305.4489,-732.9317 305.5283,-732.9452 319.1097,-736.4642 331.2929,-740.6987 337.449,-743.3748 340.2332,-744.7072 345.0273,-747.2148 347.2026,-748.4497 389.4957,-736.3353 395.4637,-734.3977 404.7266,-731.0373 423.9813,-721.8317 399.7641,-665.9697 399.0449,-664.002 393.9806,-642.5492 385.6534,-615.4206 369.5576,-578.2922 378.2899,-557.4929 398.612,-517.3212 418.0555,-503.5194 421.4636,-506.2639 433.9438,-517.4736 442.1574,-525.3141 457.7888,-538.6708 461.8381,-541.7015 478.0181,-552.1936 491.4543,-558.8153 497.3698,-561.1138 503.6047,-563.2155 507.8855,-564.4366 531.4485,-569.9431 540.7356,-572.6144 549.6888,-575.6636 553.7642,-577.2614 558.5284,-579.3749 "/>
<polyline fill="none" stroke="#000000" points="1192.2803,-966.486 1190.7238,-990.5489 1189.9136,-1008.3105 1189.4717,-1068.1934 1128.0314,-1182.6449 1039.286,-1167.8273 1018.7711,-1164.7563 1011.3156,-1163.7712 994.936,-1162.7494 990.1215,-1162.6169 976.2191,-1162.7194 955.8005,-1163.5825 955.5275,-1163.5988 916.6796,-1177.2112 886.4195,-1180.4956 876.8309,-1181.7051 868.1456,-1180.4202 864.9506,-1180.004 850.0527,-1179.11 835.6146,-1178.4976 831.582,-1178.4685 826.3373,-1178.6152 814.5407,-1179.153 799.3469,-1180.3802 723.7409,-1187.8107 685.3585,-1178.9658 681.8731,-1051.0582 681.1175,-1036.5001 680.841,-1026.4089 680.8198,-1018.9987 681.1166,-1005.2949 679.9677,-963.1321 712.6668,-927.3615 715.2299,-926.1512 725.6106,-922.029 740.3849,-916.895 750.3455,-913.9338 761.54,-911.4408 763.8466,-910.9846 799.4189,-904.8296 813.7574,-901.9846 830.6033,-897.7948 832.3845,-897.3079 840.8915,-894.5587 855.8612,-888.5864 873.2977,-880.7529 875.0195,-879.8951 876.1755,-875.5491 887.6921,-822.447 890.8261,-805.9823 897.3971,-778.7957 903.6456,-775.3436 915.8776,-769.2083 938.1513,-758.6132 961.5056,-715.0226 966.6418,-703.4853 987.9208,-650.1846 1003.6361,-618.3868 1012.7025,-601.4645 1010.6586,-586.9796 995.9957,-500.5345 979.0769,-481.555 991.8533,-464.1453 992.9785,-462.7176 1009.6276,-443.7114 1024.7194,-427.8109 1029.6477,-422.85 1108.4984,-328.7567 1137.6998,-296.2282 1138.9055,-294.7555 1152.9334,-279.2898 1160.8168,-270.2429 1165.9928,-263.8365 1169.033,-259.6326 1188.141,-250.1685 1188.7047,-249.854 1213.4596,-235.5072 1218.5983,-237.5407 1241.2396,-246.1053 1411.0266,-394.168 1413.0353,-393.0021 1589.8851,-332.8139 1595.5687,-334.7152 1607.746,-337.9802 1620.989,-341.3113 1634.5548,-343.8222 1641.767,-345.0373 1649.8887,-346.1354 1665.2667,-347.9588 1706.0219,-350.7519 1738.553,-368.0921 1794.2026,-425.8341 1817.5305,-485.4067 1817.3667,-486.1716 1810.8223,-520.0697 1808.8384,-531.66 1792.2057,-643.1628 1804.8148,-665.0034 1796.3955,-723.1389 1792.3035,-756.026 1787.1772,-817.9206 1784.7842,-821.0997 1686.9912,-905.726 1653.4384,-904.7625 1629.7123,-904.4973 1610.6398,-905.6241 1589.1971,-908.3989 1585.9934,-908.8694 1548.9268,-914.9606 1548.262,-914.528 1393.0146,-788.7005 1322.1719,-860.4694 1238.514,-920.6198 1204.5155,-943.2003 1192.2803,-966.486 "/>
<polyline fill="none" stroke="#000000" points="370.4749,-1149.5414 377.8022,-1131.9185 389.599,-1105.0471 422.2154,-1039.6071 424.4923,-1034.3289 433.1873,-1010.4272 437.5771,-995.1169 453.1676,-959.5058 471.1346,-923.4576 478.2799,-922.8666 487.5512,-921.5984 501.9651,-840.2639 502.8516,-831.7943 502.4724,-822.3687 502.5886,-818.7457 518.0514,-731.4922 508.2381,-728.7813 492.0436,-725.2169 491.6855,-725.1483 481.5887,-723.7853 473.6296,-722.9365 466.7577,-722.5929 464.1746,-722.5368 457.096,-722.784 453.4771,-722.8034 446.9231,-722.4506 444.614,-722.392 441.2293,-722.4977 428.6888,-722.1487 425.0671,-721.9412 424.2386,-721.8693 423.9813,-721.8317 404.7266,-731.0373 395.4637,-734.3977 389.4957,-736.3353 347.2026,-748.4497 337.4937,-793.1525 337.1639,-795.2214 336.3201,-803.4744 335.583,-819.95 320.9229,-887.449 287.195,-897.0936 275.5029,-900.8063 266.9745,-903.7784 253.6056,-909.2623 252.2614,-909.8542 250.9958,-910.4896 242.5844,-914.9817 228.1796,-923.1283 217.2446,-930.3264 208.195,-936.5622 171.4348,-963.0012 175.7895,-975.5089 180.3867,-989.5755 204.3014,-1073.8798 329.9551,-1177.6254 352.9052,-1197.7404 354.0956,-1193.9429 359.8822,-1176.3234 370.4749,-1149.5414 "/>
<polyline fill="none" stroke="#000000" points="380.688,-1644.4709 385.8586,-1645.3074 387.9845,-1644.4357 400.3194,-1640.0841 422.0824,-1633.2368 517.9307,-1606.8239 526.2334,-1596.3579 556.8775,-1529.6266 571.2219,-1500.1301 569.6252,-1478.3524 566.8117,-1425.125 565.8254,-1394.4857 521.7244,-1265.0891 524.9163,-1263.0564 530.6986,-1259.5544 543.173,-1252.1929 543.5593,-1251.9711 555.834,-1245.302 685.3585,-1178.9658 681.8731,-1051.0582 681.1175,-1036.5001 680.841,-1026.4089 680.8198,-1018.9987 681.1166,-1005.2949 679.9677,-963.1321 615.2062,-940.1016 607.1527,-937.7083 592.6496,-934.2408 590.8508,-933.864 572.5811,-931.6279 564.8328,-931.134 554.7853,-931.0811 552.9026,-931.1262 547.7332,-930.7966 536.1232,-930.7366 534.6718,-930.6867 524.3588,-929.7297 514.317,-928.5048 510.5374,-927.8245 504.2594,-926.5115 495.0072,-924.0341 487.5512,-921.5984 478.2799,-922.8666 471.1346,-923.4576 453.1676,-959.5058 437.5771,-995.1169 433.1873,-1010.4272 424.4923,-1034.3289 422.2154,-1039.6071 389.599,-1105.0471 377.8022,-1131.9185 370.4749,-1149.5414 359.8822,-1176.3234 354.0956,-1193.9429 352.9052,-1197.7404 376.6935,-1241.3046 370.7699,-1246.6224 363.106,-1253.3423 346.0711,-1266.8837 335.1045,-1275.1499 226.6144,-1354.667 197.7985,-1444.7622 197.885,-1454.3778 197.4221,-1491.0125 197.4201,-1491.0714 195.3995,-1527.2845 195.6047,-1528.1475 278.1246,-1632.3549 300.4921,-1640.7678 336.0233,-1641.0745 344.8162,-1641.3 347.7201,-1641.4241 357.1421,-1641.9869 372.5923,-1643.4365 380.688,-1644.4709 "/>
<polyline fill="none" stroke="#000000" points="228.1796,-923.1283 217.2446,-930.3264 208.195,-936.5622 171.4348,-963.0012 164.1606,-958.718 105.5918,-904.725 74.3527,-842.1471 58.2105,-811.5307 58.2016,-772.5246 53.8861,-664.3031 121.8184,-667.2693 168.4893,-691.0249 206.8408,-711.9612 220.8608,-718.9987 231.1605,-723.2217 235.8695,-724.933 246.3923,-727.7943 253.2693,-729.3459 254.8103,-729.6221 268.0152,-730.7854 269.1053,-730.8312 275.2451,-730.8076 279.2294,-730.9689 279.5666,-730.9976 281.3133,-731.0654 288.9514,-731.0115 290.7194,-731.0771 305.4489,-732.9317 305.5283,-732.9452 319.1097,-736.4642 331.2929,-740.6987 337.449,-743.3748 340.2332,-744.7072 345.0273,-747.2148 347.2026,-748.4497 337.4937,-793.1525 337.1639,-795.2214 336.3201,-803.4744 335.583,-819.95 320.9229,-887.449 287.195,-897.0936 275.5029,-900.8063 266.9745,-903.7784 253.6056,-909.2623 252.2614,-909.8542 250.9958,-910.4896 242.5844,-914.9817 228.1796,-923.1283 "/>
<polyline fill="none" stroke="#000000" points="740.3849,-916.895 750.3455,-913.9338 761.54,-911.4408 763.8466,-910.9846 799.4189,-904.8296 813.7574,-901.9846 830.6033,-897.7948 832.3845,-897.3079 840.8915,-894.5587 855.8612,-888.5864 873.2977,-880.7529 875.0195,-879.8951 876.1755,-875.5491 887.6921,-822.447 890.8261,-805.9823 897.3971,-778.7957 890.4136,-772.4572 886.9982,-769.482 886.9393,-769.428 884.5501,-767.3279 877.7513,-761.6033 866.5748,-753.0153 858.4382,-747.3674 843.7579,-738.2542 828.8282,-730.6539 769.1837,-702.5729 754.63,-695.1491 743.0188,-687.8904 740.7189,-686.3652 727.3422,-676.4373 721.196,-676.6075 719.4495,-676.5298 711.108,-676.5493 706.8841,-676.4577 705.3936,-676.3538 698.9125,-676.2053 691.1166,-676.5726 679.1309,-677.4178 672.4084,-678.2056 659.4907,-680.3246 655.6162,-681.1411 638.7703,-685.0871 623.468,-690.0982 619.4311,-691.608 609.4069,-704.3026 608.319,-704.8715 606.4181,-705.7655 586.9139,-714.4361 580.1332,-716.9067 567.5734,-721.1507 560.6816,-723.293 552.6284,-725.3627 518.0514,-731.4922 502.5886,-818.7457 502.4724,-822.3687 502.8516,-831.7943 501.9651,-840.2639 487.5512,-921.5984 495.0072,-924.0341 504.2594,-926.5115 510.5374,-927.8245 514.317,-928.5048 524.3588,-929.7297 534.6718,-930.6867 536.1232,-930.7366 547.7332,-930.7966 552.9026,-931.1262 554.7853,-931.0811 564.8328,-931.134 572.5811,-931.6279 590.8508,-933.864 592.6496,-934.2408 607.1527,-937.7083 615.2062,-940.1016 679.9677,-963.1321 712.6668,-927.3615 715.2299,-926.1512 725.6106,-922.029 740.3849,-916.895 "/>
<!-- device&#45;mapper&#45;libs&#45;&gt;Fedora Container Base -->
<g id="edge1" class="edge">
<title>device&#45;mapper&#45;libs&#45;&gt;Fedora Container Base</title>
<path fill="none" stroke="#444444" stroke-opacity="0.333333" d="M818.3925,-77.4044C798.0585,-152.4849 720.2025,-439.958 695.4985,-531.1744"/>
<polygon fill="#444444" fill-opacity="0.333333" stroke="#444444" stroke-opacity="0.333333" points="692.0568,-530.4937 692.8209,-541.0609 698.8134,-532.3236 692.0568,-530.4937"/>
</g>
<!-- device&#45;mapper&#45;libs&#45;&gt;device&#45;mapper -->
<g id="edge2" class="edge">
<title>device&#45;mapper&#45;libs&#45;&gt;device&#45;mapper</title>
<path fill="none" stroke="#444444" stroke-opacity="0.333333" d="M791.9042,-77.4548C764.4968,-97.1336 725.4566,-128.4429 700.9482,-150.4372"/>
<polygon fill="#444444" fill-opacity="0.333333" stroke="#444444" stroke-opacity="0.333333" points="698.5471,-147.8902 693.5347,-157.2244 703.2739,-153.0533 698.5471,-147.8902"/>
</g>
<!-- device&#45;mapper&#45;&gt;Fedora Container Base -->
<g id="edge21" class="edge">
<title>device&#45;mapper&#45;&gt;Fedora Container Base</title>
<path fill="none" stroke="#444444" stroke-opacity="0.333333" d="M678.6628,-193.7161C680.225,-255.3149 685.312,-455.8928 687.2085,-530.6733"/>
<polygon fill="#444444" fill-opacity="0.333333" stroke="#444444" stroke-opacity="0.333333" points="683.7119,-530.8541 687.4644,-540.7621 690.7097,-530.6766 683.7119,-530.8541"/>
</g>
<!-- device&#45;mapper&#45;&gt;device&#45;mapper&#45;libs -->
<g id="edge22" class="edge">
<title>device&#45;mapper&#45;&gt;device&#45;mapper&#45;libs</title>
<path fill="none" stroke="#444444" stroke-opacity="0.333333" d="M709.5858,-157.3362C736.9932,-137.6574 776.0334,-106.3481 800.5418,-84.3538"/>
<polygon fill="#444444" fill-opacity="0.333333" stroke="#444444" stroke-opacity="0.333333" points="802.9429,-86.9008 807.9553,-77.5666 798.2161,-81.7377 802.9429,-86.9008"/>
</g>
<!-- device&#45;mapper&#45;&gt;systemd -->
<g id="edge23" class="edge">
<title>device&#45;mapper&#45;&gt;systemd</title>
<path fill="none" stroke="#444444" stroke-opacity="0.333333" d="M671.8732,-193.9356C652.8033,-249.5933 595.8004,-415.9626 573.0701,-482.3037"/>
<polygon fill="#444444" fill-opacity="0.333333" stroke="#444444" stroke-opacity="0.333333" points="569.6577,-481.4653 569.7273,-492.0599 576.2798,-483.7342 569.6577,-481.4653"/>
</g>
<!-- device&#45;mapper&#45;&gt;util&#45;linux -->
<g id="edge24" class="edge">
<title>device&#45;mapper&#45;&gt;util&#45;linux</title>
<path fill="none" stroke="#444444" stroke-opacity="0.333333" d="M595.6527,-192.9056C595.5386,-192.9297 595.4245,-192.9538 595.3104,-192.9779"/>
<polygon fill="#444444" fill-opacity="0.333333" stroke="#444444" stroke-opacity="0.333333" points="599.2548,-188.5674 590.194,-194.0586 600.7015,-195.4163 599.2548,-188.5674"/>
</g>
<!-- libargon2&#45;&gt;Fedora Container Base -->
<g id="edge3" class="edge">
<title>libargon2&#45;&gt;Fedora Container Base</title>
<path fill="none" stroke="#444444" stroke-opacity="0.333333" d="M1006.6409,-167.9639C953.4808,-233.2077 771.6476,-456.3729 709.1934,-533.0233"/>
<polygon fill="#444444" fill-opacity="0.333333" stroke="#444444" stroke-opacity="0.333333" points="706.1219,-531.252 702.5186,-541.2153 711.5486,-535.6737 706.1219,-531.252"/>
</g>
<!-- systemd&#45;&gt;Fedora Container Base -->
<g id="edge4" class="edge">
<title>systemd&#45;&gt;Fedora Container Base</title>
<path fill="none" stroke="#444444" stroke-opacity="0.333333" d="M609.5174,-528.1887C617.8631,-531.4809 626.6281,-534.9384 635.1517,-538.3006"/>
<polygon fill="#444444" fill-opacity="0.333333" stroke="#444444" stroke-opacity="0.333333" points="634.0506,-541.6287 644.6374,-542.0424 636.6193,-535.117 634.0506,-541.6287"/>
</g>
<!-- systemd&#45;&gt;util&#45;linux -->
<g id="edge5" class="edge">
<title>systemd&#45;&gt;util&#45;linux</title>
<path fill="none" stroke="#444444" stroke-opacity="0.333333" d="M561.2997,-492.0515C554.9473,-441.4398 536.8968,-297.6253 529.1799,-236.1426"/>
<polygon fill="#444444" fill-opacity="0.333333" stroke="#444444" stroke-opacity="0.333333" points="532.6246,-235.4827 527.9064,-225.9964 525.6791,-236.3545 532.6246,-235.4827"/>
</g>
<!-- systemd&#45;&gt;shadow&#45;utils -->
<g id="edge6" class="edge">
<title>systemd&#45;&gt;shadow&#45;utils</title>
<path fill="none" stroke="#444444" stroke-opacity="0.333333" d="M549.5464,-528.2979C534.9269,-547.3245 511.8696,-577.3323 495.2922,-598.9069"/>
<polygon fill="#444444" fill-opacity="0.333333" stroke="#444444" stroke-opacity="0.333333" points="492.3856,-596.9453 489.068,-607.0074 497.9362,-601.2104 492.3856,-596.9453"/>
</g>
<!-- systemd&#45;&gt;cryptsetup&#45;libs -->
<g id="edge7" class="edge">
<title>systemd&#45;&gt;cryptsetup&#45;libs</title>
<path fill="none" stroke="#444444" stroke-opacity="0.333333" d="M581.2919,-492.0185C628.0598,-444.4337 754.862,-315.4168 808.8884,-260.4469"/>
<polygon fill="#444444" fill-opacity="0.333333" stroke="#444444" stroke-opacity="0.333333" points="811.4994,-262.7834 816.0129,-253.198 806.507,-257.8767 811.4994,-262.7834"/>
</g>
<!-- systemd&#45;&gt;iptables&#45;libs -->
<g id="edge8" class="edge">
<title>systemd&#45;&gt;iptables&#45;libs</title>
<path fill="none" stroke="#444444" stroke-opacity="0.333333" d="M555.4987,-528.0605C532.216,-580.0498 464.7648,-730.6655 436.9709,-792.7282"/>
<polygon fill="#444444" fill-opacity="0.333333" stroke="#444444" stroke-opacity="0.333333" points="433.7565,-791.3427 432.8635,-801.8999 440.1451,-794.2038 433.7565,-791.3427"/>
</g>
<!-- systemd&#45;&gt;libseccomp -->
<g id="edge9" class="edge">
<title>systemd&#45;&gt;libseccomp</title>
<path fill="none" stroke="#444444" stroke-opacity="0.333333" d="M579.3006,-491.9033C606.5304,-460.494 662.5004,-395.933 693.7195,-359.9219"/>
<polygon fill="#444444" fill-opacity="0.333333" stroke="#444444" stroke-opacity="0.333333" points="696.4491,-362.1165 700.355,-352.2679 691.1599,-357.5312 696.4491,-362.1165"/>
</g>
<!-- systemd&#45;&gt;systemd&#45;pam -->
<g id="edge10" class="edge">
<title>systemd&#45;&gt;systemd&#45;pam</title>
<path fill="none" stroke="#444444" stroke-opacity="0.333333" d="M524.5339,-528.1865C473.9326,-556.2107 386.835,-609.6065 341.0421,-640.7509"/>
<polygon fill="#444444" fill-opacity="0.333333" stroke="#444444" stroke-opacity="0.333333" points="338.9724,-637.9265 332.7237,-646.4825 342.9441,-643.6907 338.9724,-637.9265"/>
</g>
<!-- systemd&#45;&gt;systemd&#45;rpm&#45;macros -->
<g id="edge11" class="edge">
<title>systemd&#45;&gt;systemd&#45;rpm&#45;macros</title>
<path fill="none" stroke="#444444" stroke-opacity="0.333333" d="M600.3854,-491.9337C675.5893,-454.9165 846.6299,-370.7262 928.7651,-330.2972"/>
<polygon fill="#444444" fill-opacity="0.333333" stroke="#444444" stroke-opacity="0.333333" points="930.4284,-333.3796 937.8547,-325.8231 927.337,-327.0992 930.4284,-333.3796"/>
</g>
<!-- systemd&#45;&gt;acl -->
<g id="edge12" class="edge">
<title>systemd&#45;&gt;acl</title>
<path fill="none" stroke="#444444" stroke-opacity="0.333333" d="M553.8946,-491.9627C526.4973,-440.6645 448.2133,-294.087 415.7044,-233.2179"/>
<polygon fill="#444444" fill-opacity="0.333333" stroke="#444444" stroke-opacity="0.333333" points="418.6931,-231.3844 410.8947,-224.2124 412.5185,-234.6821 418.6931,-231.3844"/>
</g>
<!-- systemd&#45;&gt;dbus -->
<g id="edge13" class="edge">
<title>systemd&#45;&gt;dbus</title>
<path fill="none" stroke="#444444" stroke-opacity="0.333333" d="M501.9987,-503.5655C398.7157,-492.6695 192.3362,-470.8972 95.267,-460.6567"/>
<polygon fill="#444444" fill-opacity="0.333333" stroke="#444444" stroke-opacity="0.333333" points="95.4139,-457.1529 85.1019,-459.5843 94.6795,-464.1143 95.4139,-457.1529"/>
</g>
<!-- systemd&#45;&gt;kmod&#45;libs -->
<g id="edge14" class="edge">
<title>systemd&#45;&gt;kmod&#45;libs</title>
<path fill="none" stroke="#444444" stroke-opacity="0.333333" d="M574.5073,-528.2293C603.739,-576.7452 683.7417,-709.5258 718.2332,-766.7713"/>
<polygon fill="#444444" fill-opacity="0.333333" stroke="#444444" stroke-opacity="0.333333" points="715.3951,-768.8429 723.5538,-775.602 721.3909,-765.2303 715.3951,-768.8429"/>
</g>
<!-- systemd&#45;&gt;qrencode&#45;libs -->
<g id="edge15" class="edge">
<title>systemd&#45;&gt;qrencode&#45;libs</title>
<path fill="none" stroke="#444444" stroke-opacity="0.333333" d="M564.6218,-528.4397C567.7415,-582.4417 576.8962,-740.9073 580.6625,-806.1019"/>
<polygon fill="#444444" fill-opacity="0.333333" stroke="#444444" stroke-opacity="0.333333" points="577.1888,-806.6604 581.2598,-816.4419 584.1772,-806.2566 577.1888,-806.6604"/>
</g>
<!-- systemd&#45;&gt;libxkbcommon -->
<g id="edge16" class="edge">
<title>systemd&#45;&gt;libxkbcommon</title>
<path fill="none" stroke="#444444" stroke-dasharray="5,2" stroke-opacity="0.333333" d="M561.9544,-528.1656C555.1363,-605.047 528.552,-904.8173 520.2092,-998.8928"/>
<polygon fill="#444444" fill-opacity="0.333333" stroke="#444444" stroke-opacity="0.333333" points="516.7035,-998.8032 519.3064,-1009.0733 523.6761,-999.4216 516.7035,-998.8032"/>
</g>
<!-- systemd&#45;&gt;diffutils -->
<g id="edge17" class="edge">
<title>systemd&#45;&gt;diffutils</title>
<path fill="none" stroke="#444444" stroke-dasharray="5,2" stroke-opacity="0.333333" d="M540.5857,-491.719C493.0574,-453.7759 383.9085,-366.6395 330.3104,-323.8507"/>
<polygon fill="#444444" fill-opacity="0.333333" stroke="#444444" stroke-opacity="0.333333" points="332.2018,-320.8822 322.2031,-317.3784 327.8345,-326.3527 332.2018,-320.8822"/>
</g>
<!-- util&#45;linux&#45;&gt;Fedora Container Base -->
<g id="edge18" class="edge">
<title>util&#45;linux&#45;&gt;Fedora Container Base</title>
<path fill="none" stroke="#444444" stroke-opacity="0.333333" d="M534.1085,-226.0991C560.8432,-283.9793 643.3399,-462.5832 675.1957,-531.5505"/>
<polygon fill="#444444" fill-opacity="0.333333" stroke="#444444" stroke-opacity="0.333333" points="672.1449,-533.2924 679.5156,-540.9031 678.4997,-530.357 672.1449,-533.2924"/>
</g>
<!-- util&#45;linux&#45;&gt;libfdisk -->
<g id="edge19" class="edge">
<title>util&#45;linux&#45;&gt;libfdisk</title>
<path fill="none" stroke="#444444" stroke-opacity="0.333333" d="M528.8624,-189.5108C534.8014,-156.2966 547.4385,-85.6226 554.4963,-46.1511"/>
<polygon fill="#444444" fill-opacity="0.333333" stroke="#444444" stroke-opacity="0.333333" points="557.9726,-46.5941 556.2875,-36.1342 551.0818,-45.3619 557.9726,-46.5941"/>
</g>
<!-- util&#45;linux&#45;&gt;libutempter -->
<g id="edge20" class="edge">
<title>util&#45;linux&#45;&gt;libutempter</title>
<path fill="none" stroke="#444444" stroke-opacity="0.333333" d="M515.4969,-225.9038C500.1014,-253.6161 470.6792,-306.5766 452.6864,-338.9641"/>
<polygon fill="#444444" fill-opacity="0.333333" stroke="#444444" stroke-opacity="0.333333" points="449.5136,-337.4684 447.7167,-347.9097 455.6327,-340.8679 449.5136,-337.4684"/>
</g>
<!-- shadow&#45;utils&#45;&gt;Fedora Container Base -->
<g id="edge37" class="edge">
<title>shadow&#45;utils&#45;&gt;Fedora Container Base</title>
<path fill="none" stroke="#444444" stroke-opacity="0.333333" d="M533.2713,-607.1143C561.5761,-598.3306 595.6606,-587.7534 624.6202,-578.7665"/>
<polygon fill="#444444" fill-opacity="0.333333" stroke="#444444" stroke-opacity="0.333333" points="625.7157,-582.0913 634.2291,-575.7847 623.641,-575.4058 625.7157,-582.0913"/>
</g>
<!-- shadow&#45;utils&#45;&gt;libsemanage -->
<g id="edge38" class="edge">
<title>shadow&#45;utils&#45;&gt;libsemanage</title>
<path fill="none" stroke="#444444" stroke-opacity="0.333333" d="M451.1541,-643.2545C409.936,-674.3747 325.6011,-738.0485 279.3173,-772.9933"/>
<polygon fill="#444444" fill-opacity="0.333333" stroke="#444444" stroke-opacity="0.333333" points="277.0087,-770.3508 271.1369,-779.1696 281.2266,-775.9373 277.0087,-770.3508"/>
</g>
<!-- cryptsetup&#45;libs&#45;&gt;Fedora Container Base -->
<g id="edge41" class="edge">
<title>cryptsetup&#45;libs&#45;&gt;Fedora Container Base</title>
<path fill="none" stroke="#444444" stroke-opacity="0.333333" d="M825.5489,-253.4397C801.1261,-307.6877 729.1663,-467.5256 700.208,-531.848"/>
<polygon fill="#444444" fill-opacity="0.333333" stroke="#444444" stroke-opacity="0.333333" points="697.0143,-530.4162 696.1005,-540.9716 703.3973,-533.2899 697.0143,-530.4162"/>
</g>
<!-- cryptsetup&#45;libs&#45;&gt;device&#45;mapper&#45;libs -->
<g id="edge42" class="edge">
<title>cryptsetup&#45;libs&#45;&gt;device&#45;mapper&#45;libs</title>
<path fill="none" stroke="#444444" stroke-opacity="0.333333" d="M832.7238,-216.9417C830.8921,-186.3383 827.176,-124.2482 824.9943,-87.7968"/>
<polygon fill="#444444" fill-opacity="0.333333" stroke="#444444" stroke-opacity="0.333333" points="828.4616,-87.1436 824.3703,-77.3706 821.4741,-87.5619 828.4616,-87.1436"/>
</g>
<!-- cryptsetup&#45;libs&#45;&gt;libargon2 -->
<g id="edge43" class="edge">
<title>cryptsetup&#45;libs&#45;&gt;libargon2</title>
<path fill="none" stroke="#444444" stroke-opacity="0.333333" d="M873.593,-217.0128C902.4432,-203.9034 941.6354,-186.0947 972.4134,-172.1093"/>
<polygon fill="#444444" fill-opacity="0.333333" stroke="#444444" stroke-opacity="0.333333" points="974.0181,-175.2246 981.6743,-167.9012 971.1222,-168.8516 974.0181,-175.2246"/>
</g>
<!-- iptables&#45;libs&#45;&gt;Fedora Container Base -->
<g id="edge44" class="edge">
<title>iptables&#45;libs&#45;&gt;Fedora Container Base</title>
<path fill="none" stroke="#444444" stroke-opacity="0.333333" d="M443.2842,-801.6089C489.4475,-755.8527 609.7664,-636.5945 662.5195,-584.3065"/>
<polygon fill="#444444" fill-opacity="0.333333" stroke="#444444" stroke-opacity="0.333333" points="665.1572,-586.62 669.7956,-577.0945 660.2294,-581.6484 665.1572,-586.62"/>
</g>
<!-- iptables&#45;libs&#45;&gt;libpcap -->
<g id="edge45" class="edge">
<title>iptables&#45;libs&#45;&gt;libpcap</title>
<path fill="none" stroke="#444444" stroke-opacity="0.333333" d="M417.8393,-838.235C406.9021,-867.0488 385.5821,-923.2154 372.7316,-957.0694"/>
<polygon fill="#444444" fill-opacity="0.333333" stroke="#444444" stroke-opacity="0.333333" points="369.313,-956.2133 369.0363,-966.8045 375.8574,-958.6975 369.313,-956.2133"/>
</g>
<!-- libseccomp&#45;&gt;Fedora Container Base -->
<g id="edge46" class="edge">
<title>libseccomp&#45;&gt;Fedora Container Base</title>
<path fill="none" stroke="#444444" stroke-opacity="0.333333" d="M713.7596,-352.2351C708.8818,-391.3044 697.3038,-484.0392 691.4492,-530.9323"/>
<polygon fill="#444444" fill-opacity="0.333333" stroke="#444444" stroke-opacity="0.333333" points="687.9571,-530.6524 690.1912,-541.009 694.9032,-531.5197 687.9571,-530.6524"/>
</g>
<!-- systemd&#45;pam&#45;&gt;Fedora Container Base -->
<g id="edge47" class="edge">
<title>systemd&#45;pam&#45;&gt;Fedora Container Base</title>
<path fill="none" stroke="#444444" stroke-opacity="0.333333" d="M375.3351,-646.6535C443.3812,-627.5991 550.2759,-597.6662 619.7347,-578.2162"/>
<polygon fill="#444444" fill-opacity="0.333333" stroke="#444444" stroke-opacity="0.333333" points="621.0162,-581.4921 629.702,-575.4251 619.1286,-574.7513 621.0162,-581.4921"/>
</g>
<!-- systemd&#45;pam&#45;&gt;systemd -->
<g id="edge48" class="edge">
<title>systemd&#45;pam&#45;&gt;systemd</title>
<path fill="none" stroke="#444444" stroke-opacity="0.333333" d="M349.9861,-646.5535C400.5874,-618.5293 487.685,-565.1335 533.4779,-533.9891"/>
<polygon fill="#444444" fill-opacity="0.333333" stroke="#444444" stroke-opacity="0.333333" points="535.5476,-536.8135 541.7963,-528.2575 531.5759,-531.0493 535.5476,-536.8135"/>
</g>
<!-- acl&#45;&gt;Fedora Container Base -->
<g id="edge49" class="edge">
<title>acl&#45;&gt;Fedora Container Base</title>
<path fill="none" stroke="#444444" stroke-opacity="0.333333" d="M416.288,-224.6871C463.7906,-283.1701 610.9808,-464.3837 666.4691,-532.6984"/>
<polygon fill="#444444" fill-opacity="0.333333" stroke="#444444" stroke-opacity="0.333333" points="664.0491,-535.2704 673.0706,-540.8258 669.4826,-530.857 664.0491,-535.2704"/>
</g>
<!-- dbus&#45;&gt;dbus&#45;broker -->
<g id="edge50" class="edge">
<title>dbus&#45;&gt;dbus&#45;broker</title>
<path fill="none" stroke="#444444" stroke-opacity="0.333333" d="M85.1069,-473.0483C119.4039,-487.504 167.7649,-507.8876 204.4349,-523.3435"/>
<polygon fill="#444444" fill-opacity="0.333333" stroke="#444444" stroke-opacity="0.333333" points="203.3928,-526.7024 213.9671,-527.3612 206.1116,-520.2519 203.3928,-526.7024"/>
</g>
<!-- kmod&#45;libs&#45;&gt;Fedora Container Base -->
<g id="edge51" class="edge">
<title>kmod&#45;libs&#45;&gt;Fedora Container Base</title>
<path fill="none" stroke="#444444" stroke-opacity="0.333333" d="M730.84,-775.6086C722.7796,-734.9424 703.1235,-635.7739 693.4676,-587.0584"/>
<polygon fill="#444444" fill-opacity="0.333333" stroke="#444444" stroke-opacity="0.333333" points="696.8897,-586.3215 691.5122,-577.1928 690.0233,-587.6825 696.8897,-586.3215"/>
</g>
<!-- qrencode&#45;libs&#45;&gt;Fedora Container Base -->
<g id="edge52" class="edge">
<title>qrencode&#45;libs&#45;&gt;Fedora Container Base</title>
<path fill="none" stroke="#444444" stroke-opacity="0.333333" d="M589.24,-816.5437C607.2564,-769.5497 655.6629,-643.2858 677.266,-586.9361"/>
<polygon fill="#444444" fill-opacity="0.333333" stroke="#444444" stroke-opacity="0.333333" points="680.6628,-587.8531 680.9745,-577.2629 674.1266,-585.3473 680.6628,-587.8531"/>
</g>
<!-- libxkbcommon&#45;&gt;Fedora Container Base -->
<g id="edge71" class="edge">
<title>libxkbcommon&#45;&gt;Fedora Container Base</title>
<path fill="none" stroke="#444444" stroke-opacity="0.333333" d="M524.2593,-1009.2337C550.3011,-937.6156 646.3887,-673.3635 677.8704,-586.7852"/>
<polygon fill="#444444" fill-opacity="0.333333" stroke="#444444" stroke-opacity="0.333333" points="681.2522,-587.7266 681.3803,-577.1325 674.6736,-585.3344 681.2522,-587.7266"/>
</g>
<!-- libxkbcommon&#45;&gt;xkeyboard&#45;config -->
<g id="edge72" class="edge">
<title>libxkbcommon&#45;&gt;xkeyboard&#45;config</title>
<path fill="none" stroke="#444444" stroke-opacity="0.333333" d="M512.0685,-1045.5585C490.5652,-1115.4006 413.4283,-1365.9388 387.3592,-1450.6103"/>
<polygon fill="#444444" fill-opacity="0.333333" stroke="#444444" stroke-opacity="0.333333" points="383.969,-1449.7271 384.3715,-1460.3143 390.6591,-1451.7869 383.969,-1449.7271"/>
</g>
<!-- diffutils&#45;&gt;Fedora Container Base -->
<g id="edge73" class="edge">
<title>diffutils&#45;&gt;Fedora Container Base</title>
<path fill="none" stroke="#444444" stroke-opacity="0.333333" d="M326.4773,-317.2986C395.1491,-363.2418 576.3993,-484.503 652.9827,-535.7393"/>
<polygon fill="#444444" fill-opacity="0.333333" stroke="#444444" stroke-opacity="0.333333" points="651.1006,-538.6912 661.3583,-541.3428 654.9931,-532.8732 651.1006,-538.6912"/>
</g>
<!-- libfdisk&#45;&gt;Fedora Container Base -->
<g id="edge53" class="edge">
<title>libfdisk&#45;&gt;Fedora Container Base</title>
<path fill="none" stroke="#444444" stroke-opacity="0.333333" d="M563.8021,-36.004C582.6341,-115.3683 658.3163,-434.3181 681.2866,-531.1224"/>
<polygon fill="#444444" fill-opacity="0.333333" stroke="#444444" stroke-opacity="0.333333" points="677.9276,-532.1266 683.6419,-541.0483 684.7385,-530.5104 677.9276,-532.1266"/>
</g>
<!-- libutempter&#45;&gt;Fedora Container Base -->
<g id="edge54" class="edge">
<title>libutempter&#45;&gt;Fedora Container Base</title>
<path fill="none" stroke="#444444" stroke-opacity="0.333333" d="M461.0146,-384.5216C506.3518,-419.406 605.7241,-495.8673 656.585,-535.0018"/>
<polygon fill="#444444" fill-opacity="0.333333" stroke="#444444" stroke-opacity="0.333333" points="654.5507,-537.8527 664.6105,-541.177 658.8195,-532.3049 654.5507,-537.8527"/>
</g>
<!-- libutempter&#45;&gt;shadow&#45;utils -->
<g id="edge55" class="edge">
<title>libutempter&#45;&gt;shadow&#45;utils</title>
<path fill="none" stroke="#444444" stroke-opacity="0.333333" d="M440.0989,-384.5862C446.5696,-429.0363 463.2185,-543.4038 470.9986,-596.8482"/>
<polygon fill="#444444" fill-opacity="0.333333" stroke="#444444" stroke-opacity="0.333333" points="467.5699,-597.5924 472.474,-606.9839 474.4969,-596.584 467.5699,-597.5924"/>
</g>
<!-- httpd&#45;filesystem&#45;&gt;Fedora Container Base -->
<g id="edge25" class="edge">
<title>httpd&#45;filesystem&#45;&gt;Fedora Container Base</title>
<path fill="none" stroke="#444444" stroke-opacity="0.333333" d="M830.9699,-622.4469C803.0024,-610.0651 765.7772,-593.5847 736.3129,-580.5401"/>
<polygon fill="#444444" fill-opacity="0.333333" stroke="#444444" stroke-opacity="0.333333" points="737.6016,-577.2831 727.0408,-576.4352 734.7678,-583.6839 737.6016,-577.2831"/>
</g>
<!-- httpd&#45;filesystem&#45;&gt;shadow&#45;utils -->
<g id="edge26" class="edge">
<title>httpd&#45;filesystem&#45;&gt;shadow&#45;utils</title>
<path fill="none" stroke="#444444" stroke-opacity="0.333333" d="M788.6192,-637.2921C720.2309,-634.6456 623.8813,-630.9169 556.0951,-628.2937"/>
<polygon fill="#444444" fill-opacity="0.333333" stroke="#444444" stroke-opacity="0.333333" points="556.0171,-624.7881 545.8892,-627.8987 555.7464,-631.7829 556.0171,-624.7881"/>
</g>
<!-- httpd&#45;tools&#45;&gt;Fedora Container Base -->
<g id="edge27" class="edge">
<title>httpd&#45;tools&#45;&gt;Fedora Container Base</title>
<path fill="none" stroke="#444444" stroke-opacity="0.333333" d="M1031.8102,-693.1043C959.0241,-664.7451 818.2022,-609.8773 741.2735,-579.904"/>
<polygon fill="#444444" fill-opacity="0.333333" stroke="#444444" stroke-opacity="0.333333" points="742.3522,-576.568 731.7638,-576.1987 739.8109,-583.0904 742.3522,-576.568"/>
</g>
<!-- httpd&#45;tools&#45;&gt;apr -->
<g id="edge28" class="edge">
<title>httpd&#45;tools&#45;&gt;apr</title>
<path fill="none" stroke="#444444" stroke-opacity="0.333333" d="M1104.331,-729.4335C1114.2666,-736.3627 1125.7279,-744.3559 1136.2909,-751.7225"/>
<polygon fill="#444444" fill-opacity="0.333333" stroke="#444444" stroke-opacity="0.333333" points="1134.3188,-754.6142 1144.5232,-757.4637 1138.323,-748.8726 1134.3188,-754.6142"/>
</g>
<!-- httpd&#45;tools&#45;&gt;apr&#45;util -->
<g id="edge29" class="edge">
<title>httpd&#45;tools&#45;&gt;apr&#45;util</title>
<path fill="none" stroke="#444444" stroke-opacity="0.333333" d="M1072.8407,-729.3084C1065.6069,-754.2974 1052.5195,-799.5079 1044.0225,-828.8607"/>
<polygon fill="#444444" fill-opacity="0.333333" stroke="#444444" stroke-opacity="0.333333" points="1040.6443,-827.9438 1041.2256,-838.5227 1047.3683,-829.8903 1040.6443,-827.9438"/>
</g>
<!-- apr&#45;&gt;Fedora Container Base -->
<g id="edge30" class="edge">
<title>apr&#45;&gt;Fedora Container Base</title>
<path fill="none" stroke="#444444" stroke-opacity="0.333333" d="M1130.1864,-757.4971C1041.7089,-717.8099 830.8482,-623.2269 735.818,-580.6005"/>
<polygon fill="#444444" fill-opacity="0.333333" stroke="#444444" stroke-opacity="0.333333" points="737.0031,-577.2961 726.4465,-576.3968 734.1382,-583.683 737.0031,-577.2961"/>
</g>
<!-- apr&#45;util&#45;&gt;Fedora Container Base -->
<g id="edge31" class="edge">
<title>apr&#45;util&#45;&gt;Fedora Container Base</title>
<path fill="none" stroke="#444444" stroke-opacity="0.333333" d="M1014.6567,-838.7396C954.8199,-787.5299 784.8116,-642.0333 716.6842,-583.7284"/>
<polygon fill="#444444" fill-opacity="0.333333" stroke="#444444" stroke-opacity="0.333333" points="718.7685,-580.9055 708.8952,-577.0625 714.217,-586.2238 718.7685,-580.9055"/>
</g>
<!-- apr&#45;util&#45;&gt;apr -->
<g id="edge32" class="edge">
<title>apr&#45;util&#45;&gt;apr</title>
<path fill="none" stroke="#444444" stroke-opacity="0.333333" d="M1065.7721,-838.868C1085.2894,-827.0735 1110.9646,-811.5578 1132.0079,-798.8411"/>
<polygon fill="#444444" fill-opacity="0.333333" stroke="#444444" stroke-opacity="0.333333" points="1133.963,-801.7491 1140.7114,-793.5815 1130.3425,-795.7581 1133.963,-801.7491"/>
</g>
<!-- apr&#45;util&#45;&gt;apr&#45;util&#45;bdb -->
<g id="edge33" class="edge">
<title>apr&#45;util&#45;&gt;apr&#45;util&#45;bdb</title>
<path fill="none" stroke="#444444" stroke-dasharray="5,2" stroke-opacity="0.333333" d="M1026.3335,-875.0558C1017.4493,-899.923 1005.7185,-944.8168 1000.2786,-974.1174"/>
<polygon fill="#444444" fill-opacity="0.333333" stroke="#444444" stroke-opacity="0.333333" points="996.8001,-973.6959 998.576,-984.1409 1003.7013,-974.8682 996.8001,-973.6959"/>
</g>
<!-- apr&#45;util&#45;&gt;apr&#45;util&#45;openssl -->
<g id="edge34" class="edge">
<title>apr&#45;util&#45;&gt;apr&#45;util&#45;openssl</title>
<path fill="none" stroke="#444444" stroke-dasharray="5,2" stroke-opacity="0.333333" d="M1007.2751,-875.0305C968.6944,-904.3763 900.9857,-962.0026 865.9156,-995.3435"/>
<polygon fill="#444444" fill-opacity="0.333333" stroke="#444444" stroke-opacity="0.333333" points="863.3022,-993.0018 858.5453,-1002.4688 868.1676,-998.0345 863.3022,-993.0018"/>
</g>
<!-- apr&#45;util&#45;bdb&#45;&gt;Fedora Container Base -->
<g id="edge74" class="edge">
<title>apr&#45;util&#45;bdb&#45;&gt;Fedora Container Base</title>
<path fill="none" stroke="#444444" stroke-opacity="0.333333" d="M985.823,-984.1965C937.2431,-914.8757 763.671,-667.1981 706.4067,-585.4851"/>
<polygon fill="#444444" fill-opacity="0.333333" stroke="#444444" stroke-opacity="0.333333" points="709.2272,-583.4113 700.6219,-577.2307 703.4947,-587.4286 709.2272,-583.4113"/>
</g>
<!-- apr&#45;util&#45;bdb&#45;&gt;apr&#45;util -->
<g id="edge75" class="edge">
<title>apr&#45;util&#45;bdb&#45;&gt;apr&#45;util</title>
<path fill="none" stroke="#444444" stroke-opacity="0.333333" d="M1008.1465,-984.2642C1017.0307,-959.397 1028.7615,-914.5032 1034.2014,-885.2026"/>
<polygon fill="#444444" fill-opacity="0.333333" stroke="#444444" stroke-opacity="0.333333" points="1037.6799,-885.6241 1035.904,-875.1791 1030.7787,-884.4518 1037.6799,-885.6241"/>
</g>
<!-- apr&#45;util&#45;openssl&#45;&gt;Fedora Container Base -->
<g id="edge76" class="edge">
<title>apr&#45;util&#45;openssl&#45;&gt;Fedora Container Base</title>
<path fill="none" stroke="#444444" stroke-opacity="0.333333" d="M837.4687,-1002.5094C813.5707,-931.6505 726.2264,-672.6705 697.3029,-586.911"/>
<polygon fill="#444444" fill-opacity="0.333333" stroke="#444444" stroke-opacity="0.333333" points="700.5857,-585.6925 694.0734,-577.3355 693.9528,-587.9296 700.5857,-585.6925"/>
</g>
<!-- apr&#45;util&#45;openssl&#45;&gt;apr&#45;util -->
<g id="edge77" class="edge">
<title>apr&#45;util&#45;openssl&#45;&gt;apr&#45;util</title>
<path fill="none" stroke="#444444" stroke-opacity="0.333333" d="M872.1949,-1002.4895C910.7756,-973.1437 978.4843,-915.5174 1013.5544,-882.1765"/>
<polygon fill="#444444" fill-opacity="0.333333" stroke="#444444" stroke-opacity="0.333333" points="1016.1678,-884.5182 1020.9247,-875.0512 1011.3024,-879.4855 1016.1678,-884.5182"/>
</g>
<!-- mod_http2&#45;&gt;Fedora Container Base -->
<g id="edge35" class="edge">
<title>mod_http2&#45;&gt;Fedora Container Base</title>
<path fill="none" stroke="#444444" stroke-opacity="0.333333" d="M1106.4184,-440.9456C1015.2625,-466.6866 848.903,-513.6638 755.7438,-539.9705"/>
<polygon fill="#444444" fill-opacity="0.333333" stroke="#444444" stroke-opacity="0.333333" points="754.5316,-536.6758 745.8591,-542.7618 756.4339,-543.4124 754.5316,-536.6758"/>
</g>
<!-- mod_http2&#45;&gt;httpd -->
<g id="edge36" class="edge">
<title>mod_http2&#45;&gt;httpd</title>
<path fill="none" stroke="#444444" stroke-opacity="0.333333" d="M1164.7877,-441.0256C1159.2582,-472.8836 1153.8255,-539.0171 1153.3814,-576.9755"/>
<polygon fill="#444444" fill-opacity="0.333333" stroke="#444444" stroke-opacity="0.333333" points="1149.882,-577.3392 1153.4004,-587.3327 1156.882,-577.3262 1149.882,-577.3392"/>
</g>
<!-- httpd&#45;&gt;Fedora Container Base -->
<g id="edge62" class="edge">
<title>httpd&#45;&gt;Fedora Container Base</title>
<path fill="none" stroke="#444444" stroke-opacity="0.333333" d="M1080.9643,-597.9727C1007.2287,-590.6837 893.6827,-579.4593 807.5589,-570.9457"/>
<polygon fill="#444444" fill-opacity="0.333333" stroke="#444444" stroke-opacity="0.333333" points="807.758,-567.4484 797.4621,-569.9476 807.0693,-574.4145 807.758,-567.4484"/>
</g>
<!-- httpd&#45;&gt;systemd -->
<g id="edge63" class="edge">
<title>httpd&#45;&gt;systemd</title>
<path fill="none" stroke="#444444" stroke-opacity="0.333333" d="M1081.1417,-593.3339C966.2518,-574.8492 748.2601,-539.7764 635.3571,-521.6115"/>
<polygon fill="#444444" fill-opacity="0.333333" stroke="#444444" stroke-opacity="0.333333" points="635.8564,-518.1469 625.4274,-520.0139 634.7444,-525.058 635.8564,-518.1469"/>
</g>
<!-- httpd&#45;&gt;httpd&#45;filesystem -->
<g id="edge64" class="edge">
<title>httpd&#45;&gt;httpd&#45;filesystem</title>
<path fill="none" stroke="#444444" stroke-opacity="0.333333" d="M1081.0973,-614.678C1045.4412,-619.0782 1002.4821,-624.3795 964.7838,-629.0317"/>
<polygon fill="#444444" fill-opacity="0.333333" stroke="#444444" stroke-opacity="0.333333" points="964.3085,-625.5637 954.8125,-630.2622 965.1659,-632.511 964.3085,-625.5637"/>
</g>
<!-- httpd&#45;&gt;httpd&#45;tools -->
<g id="edge65" class="edge">
<title>httpd&#45;&gt;httpd&#45;tools</title>
<path fill="none" stroke="#444444" stroke-opacity="0.333333" d="M1142.596,-623.8268C1130.1651,-640.6554 1111.6408,-665.7333 1097.6298,-684.7009"/>
<polygon fill="#444444" fill-opacity="0.333333" stroke="#444444" stroke-opacity="0.333333" points="1094.6744,-682.8112 1091.5481,-692.9343 1100.3049,-686.9703 1094.6744,-682.8112"/>
</g>
<!-- httpd&#45;&gt;apr -->
<g id="edge66" class="edge">
<title>httpd&#45;&gt;apr</title>
<path fill="none" stroke="#444444" stroke-opacity="0.333333" d="M1157.7304,-623.6212C1160.2247,-653.3035 1165.1839,-712.3184 1168.1344,-747.4296"/>
<polygon fill="#444444" fill-opacity="0.333333" stroke="#444444" stroke-opacity="0.333333" points="1164.6555,-747.828 1168.9807,-757.4998 1171.6309,-747.2418 1164.6555,-747.828"/>
</g>
<!-- httpd&#45;&gt;apr&#45;util -->
<g id="edge67" class="edge">
<title>httpd&#45;&gt;apr&#45;util</title>
<path fill="none" stroke="#444444" stroke-opacity="0.333333" d="M1147.5483,-623.498C1126.7466,-666.988 1073.8234,-777.634 1049.0565,-829.4138"/>
<polygon fill="#444444" fill-opacity="0.333333" stroke="#444444" stroke-opacity="0.333333" points="1045.7925,-828.1266 1044.6349,-838.658 1052.1073,-831.147 1045.7925,-828.1266"/>
</g>
<!-- httpd&#45;&gt;fedora&#45;logos&#45;httpd -->
<g id="edge68" class="edge">
<title>httpd&#45;&gt;fedora&#45;logos&#45;httpd</title>
<path fill="none" stroke="#444444" stroke-opacity="0.333333" d="M1231.3841,-590.6652C1312.5698,-574.7433 1442.153,-549.33 1530.8267,-531.9396"/>
<polygon fill="#444444" fill-opacity="0.333333" stroke="#444444" stroke-opacity="0.333333" points="1531.7522,-535.3249 1540.8916,-529.9657 1530.4049,-528.4557 1531.7522,-535.3249"/>
</g>
<!-- httpd&#45;&gt;mailcap -->
<g id="edge69" class="edge">
<title>httpd&#45;&gt;mailcap</title>
<path fill="none" stroke="#444444" stroke-opacity="0.333333" d="M1216.0081,-623.5431C1301.7363,-649.5349 1459.1214,-697.2521 1549.2113,-724.5663"/>
<polygon fill="#444444" fill-opacity="0.333333" stroke="#444444" stroke-opacity="0.333333" points="1548.4666,-727.9978 1559.052,-727.5499 1550.4977,-721.2989 1548.4666,-727.9978"/>
</g>
<!-- httpd&#45;&gt;mod_http2 -->
<g id="edge70" class="edge">
<title>httpd&#45;&gt;mod_http2</title>
<path fill="none" stroke="#444444" stroke-opacity="0.333333" d="M1161.9123,-587.2344C1167.4418,-555.3764 1172.8745,-489.2429 1173.3186,-451.2845"/>
<polygon fill="#444444" fill-opacity="0.333333" stroke="#444444" stroke-opacity="0.333333" points="1176.818,-450.9208 1173.2996,-440.9273 1169.818,-450.9338 1176.818,-450.9208"/>
</g>
<!-- libsemanage&#45;&gt;Fedora Container Base -->
<g id="edge40" class="edge">
<title>libsemanage&#45;&gt;Fedora Container Base</title>
<path fill="none" stroke="#444444" stroke-opacity="0.333333" d="M280.6419,-779.1838C360.0196,-736.2949 559.428,-628.5515 646.3455,-581.5887"/>
<polygon fill="#444444" fill-opacity="0.333333" stroke="#444444" stroke-opacity="0.333333" points="648.2532,-584.5362 655.3873,-576.7033 644.9256,-578.3777 648.2532,-584.5362"/>
</g>
<!-- libpcap&#45;&gt;Fedora Container Base -->
<g id="edge39" class="edge">
<title>libpcap&#45;&gt;Fedora Container Base</title>
<path fill="none" stroke="#444444" stroke-opacity="0.333333" d="M375.9499,-966.8959C427.2456,-899.8494 607.1855,-664.6577 667.8143,-585.4124"/>
<polygon fill="#444444" fill-opacity="0.333333" stroke="#444444" stroke-opacity="0.333333" points="670.6578,-587.4557 673.9545,-577.3868 665.0983,-583.2022 670.6578,-587.4557"/>
</g>
<!-- dbus&#45;broker&#45;&gt;Fedora Container Base -->
<g id="edge56" class="edge">
<title>dbus&#45;broker&#45;&gt;Fedora Container Base</title>
<path fill="none" stroke="#444444" stroke-opacity="0.333333" d="M330.4738,-547.7761C389.1529,-549.6383 473.0959,-552.3022 544.8916,-554.5807"/>
<polygon fill="#444444" fill-opacity="0.333333" stroke="#444444" stroke-opacity="0.333333" points="544.8318,-558.0804 554.9378,-554.8995 545.0539,-551.084 544.8318,-558.0804"/>
</g>
<!-- dbus&#45;broker&#45;&gt;systemd -->
<g id="edge57" class="edge">
<title>dbus&#45;broker&#45;&gt;systemd</title>
<path fill="none" stroke="#444444" stroke-opacity="0.333333" d="M330.7126,-536.9206C379.6119,-531.2797 443.4176,-523.9193 491.869,-518.3301"/>
<polygon fill="#444444" fill-opacity="0.333333" stroke="#444444" stroke-opacity="0.333333" points="492.431,-521.7885 501.964,-517.1655 491.6288,-514.8346 492.431,-521.7885"/>
</g>
<!-- dbus&#45;broker&#45;&gt;shadow&#45;utils -->
<g id="edge58" class="edge">
<title>dbus&#45;broker&#45;&gt;shadow&#45;utils</title>
<path fill="none" stroke="#444444" stroke-opacity="0.333333" d="M306.3866,-563.5297C339.0365,-575.4552 381.9542,-591.131 416.3344,-603.6884"/>
<polygon fill="#444444" fill-opacity="0.333333" stroke="#444444" stroke-opacity="0.333333" points="415.1956,-606.9986 425.7894,-607.1419 417.5972,-600.4234 415.1956,-606.9986"/>
</g>
<!-- dbus&#45;broker&#45;&gt;dbus&#45;common -->
<g id="edge59" class="edge">
<title>dbus&#45;broker&#45;&gt;dbus&#45;common</title>
<path fill="none" stroke="#444444" stroke-opacity="0.333333" d="M260.955,-526.9649C264.7406,-509.8858 270.4206,-484.2599 274.7688,-464.6426"/>
<polygon fill="#444444" fill-opacity="0.333333" stroke="#444444" stroke-opacity="0.333333" points="278.2185,-465.2527 276.9655,-454.7323 271.3843,-463.7379 278.2185,-465.2527"/>
</g>
<!-- dbus&#45;common&#45;&gt;Fedora Container Base -->
<g id="edge60" class="edge">
<title>dbus&#45;common&#45;&gt;Fedora Container Base</title>
<path fill="none" stroke="#444444" stroke-opacity="0.333333" d="M341.0439,-454.6186C416.6273,-477.3885 545.936,-516.3435 623.5221,-539.7167"/>
<polygon fill="#444444" fill-opacity="0.333333" stroke="#444444" stroke-opacity="0.333333" points="622.6004,-543.0944 633.185,-542.6278 624.6196,-536.3919 622.6004,-543.0944"/>
</g>
<!-- dbus&#45;common&#45;&gt;systemd -->
<g id="edge61" class="edge">
<title>dbus&#45;common&#45;&gt;systemd</title>
<path fill="none" stroke="#444444" stroke-opacity="0.333333" d="M350.4838,-454.6116C393.5372,-465.8153 448.7058,-480.1717 492.1193,-491.4691"/>
<polygon fill="#444444" fill-opacity="0.333333" stroke="#444444" stroke-opacity="0.333333" points="491.48,-494.9193 502.0391,-494.0505 493.2429,-488.1449 491.48,-494.9193"/>
</g>
<!-- Fedora Container Base -->
<g id="node1" class="node">
<title>Fedora Container Base</title>
<ellipse fill="none" stroke="#000000" cx="687.93" cy="-559.12" rx="136.5" ry="18"/>
<text text-anchor="middle" x="687.93" y="-555.42" font-family="Helvetica,sans-Serif" font-weight="bold" font-size="14.00" fill="#000000">Fedora Container Base (197.9 MB)</text>
</g>
<!-- device&#45;mapper&#45;libs -->
<g id="node2" class="node">
<title>device&#45;mapper&#45;libs</title>
<text text-anchor="middle" x="823.29" y="-55.621" font-family="Helvetica,sans-Serif" font-weight="bold" font-size="14.00" fill="#000000">device&#45;mapper&#45;libs (417.5 kB)</text>
</g>
<!-- device&#45;mapper -->
<g id="node3" class="node">
<title>device&#45;mapper</title>
<text text-anchor="middle" x="678.2" y="-171.77" font-family="Helvetica,sans-Serif" font-weight="bold" font-size="14.00" fill="#000000">device&#45;mapper (350.3 kB)</text>
</g>
<!-- libargon2 -->
<g id="node4" class="node">
<title>libargon2</title>
<text text-anchor="middle" x="1021.4" y="-146.15" font-family="Helvetica,sans-Serif" font-weight="bold" font-size="14.00" fill="#000000">libargon2 (54.9 kB)</text>
</g>
<!-- systemd -->
<g id="node5" class="node">
<title>systemd</title>
<text text-anchor="middle" x="563.56" y="-506.36" font-family="Helvetica,sans-Serif" font-weight="bold" font-size="14.00" fill="#000000">systemd (12.3 MB)</text>
</g>
<!-- util&#45;linux -->
<g id="node6" class="node">
<title>util&#45;linux</title>
<text text-anchor="middle" x="525.61" y="-204" font-family="Helvetica,sans-Serif" font-weight="bold" font-size="14.00" fill="#000000">util&#45;linux (12.7 MB)</text>
</g>
<!-- shadow&#45;utils -->
<g id="node7" class="node">
<title>shadow&#45;utils</title>
<text text-anchor="middle" x="475.12" y="-621.46" font-family="Helvetica,sans-Serif" font-weight="bold" font-size="14.00" fill="#000000">shadow&#45;utils (3.9 MB)</text>
</g>
<!-- cryptsetup&#45;libs -->
<g id="node8" class="node">
<title>cryptsetup&#45;libs</title>
<text text-anchor="middle" x="833.81" y="-231.39" font-family="Helvetica,sans-Serif" font-weight="bold" font-size="14.00" fill="#000000">cryptsetup&#45;libs (1.8 MB)</text>
</g>
<!-- iptables&#45;libs -->
<g id="node9" class="node">
<title>iptables&#45;libs</title>
<text text-anchor="middle" x="424.78" y="-816.25" font-family="Helvetica,sans-Serif" font-weight="bold" font-size="14.00" fill="#000000">iptables&#45;libs (155.9 kB)</text>
</g>
<!-- libseccomp -->
<g id="node10" class="node">
<title>libseccomp</title>
<text text-anchor="middle" x="716.01" y="-330.51" font-family="Helvetica,sans-Serif" font-weight="bold" font-size="14.00" fill="#000000">libseccomp (347.0 kB)</text>
</g>
<!-- systemd&#45;pam -->
<g id="node11" class="node">
<title>systemd&#45;pam</title>
<text text-anchor="middle" x="310.96" y="-660.98" font-family="Helvetica,sans-Serif" font-weight="bold" font-size="14.00" fill="#000000">systemd&#45;pam (335.6 kB)</text>
</g>
<!-- systemd&#45;rpm&#45;macros -->
<g id="node12" class="node">
<title>systemd&#45;rpm&#45;macros</title>
<text text-anchor="middle" x="974.45" y="-304.11" font-family="Helvetica,sans-Serif" font-weight="bold" font-size="14.00" fill="#000000">systemd&#45;rpm&#45;macros (4.9 kB)</text>
</g>
<!-- acl -->
<g id="node13" class="node">
<title>acl</title>
<text text-anchor="middle" x="401.28" y="-202.51" font-family="Helvetica,sans-Serif" font-weight="bold" font-size="14.00" fill="#000000">acl (212.0 kB)</text>
</g>
<!-- dbus -->
<g id="node14" class="node">
<title>dbus</title>
<text text-anchor="middle" x="42.5" y="-451.39" font-family="Helvetica,sans-Serif" font-weight="bold" font-size="14.00" fill="#000000">dbus (0.0 B)</text>
</g>
<!-- kmod&#45;libs -->
<g id="node15" class="node">
<title>kmod&#45;libs</title>
<text text-anchor="middle" x="734.41" y="-789.92" font-family="Helvetica,sans-Serif" font-weight="bold" font-size="14.00" fill="#000000">kmod&#45;libs (197.4 kB)</text>
</g>
<!-- qrencode&#45;libs -->
<g id="node16" class="node">
<title>qrencode&#45;libs</title>
<text text-anchor="middle" x="582.31" y="-830.92" font-family="Helvetica,sans-Serif" font-weight="bold" font-size="14.00" fill="#000000">qrencode&#45;libs (159.3 kB)</text>
</g>
<!-- libxkbcommon -->
<g id="node17" class="node">
<title>libxkbcommon</title>
<text text-anchor="middle" x="517.69" y="-1023.6" font-family="Helvetica,sans-Serif" font-weight="bold" font-size="14.00" fill="#000000">libxkbcommon (276.4 kB)</text>
</g>
<!-- diffutils -->
<g id="node18" class="node">
<title>diffutils</title>
<text text-anchor="middle" x="299.47" y="-295.53" font-family="Helvetica,sans-Serif" font-weight="bold" font-size="14.00" fill="#000000">diffutils (1.5 MB)</text>
</g>
<!-- libfdisk -->
<g id="node19" class="node">
<title>libfdisk</title>
<text text-anchor="middle" x="559.53" y="-14.3" font-family="Helvetica,sans-Serif" font-weight="bold" font-size="14.00" fill="#000000">libfdisk (488.8 kB)</text>
</g>
<!-- libutempter -->
<g id="node20" class="node">
<title>libutempter</title>
<text text-anchor="middle" x="437.45" y="-362.69" font-family="Helvetica,sans-Serif" font-weight="bold" font-size="14.00" fill="#000000">libutempter (58.2 kB)</text>
</g>
<!-- httpd&#45;filesystem -->
<g id="node21" class="node">
<title>httpd&#45;filesystem</title>
<text text-anchor="middle" x="871.77" y="-636.81" font-family="Helvetica,sans-Serif" font-weight="bold" font-size="14.00" fill="#000000">httpd&#45;filesystem (400.0 B)</text>
</g>
<!-- httpd&#45;tools -->
<g id="node22" class="node">
<title>httpd&#45;tools</title>
<text text-anchor="middle" x="1078.1" y="-707.44" font-family="Helvetica,sans-Serif" font-weight="bold" font-size="14.00" fill="#000000">httpd&#45;tools (202.2 kB)</text>
</g>
<!-- apr -->
<g id="node23" class="node">
<title>apr</title>
<text text-anchor="middle" x="1170.5" y="-771.88" font-family="Helvetica,sans-Serif" font-weight="bold" font-size="14.00" fill="#000000">apr (288.2 kB)</text>
</g>
<!-- apr&#45;util -->
<g id="node24" class="node">
<title>apr&#45;util</title>
<text text-anchor="middle" x="1035.9" y="-853.22" font-family="Helvetica,sans-Serif" font-weight="bold" font-size="14.00" fill="#000000">apr&#45;util (222.5 kB)</text>
</g>
<!-- apr&#45;util&#45;bdb -->
<g id="node25" class="node">
<title>apr&#45;util&#45;bdb</title>
<text text-anchor="middle" x="998.58" y="-998.7" font-family="Helvetica,sans-Serif" font-weight="bold" font-size="14.00" fill="#000000">apr&#45;util&#45;bdb (15.5 kB)</text>
</g>
<!-- apr&#45;util&#45;openssl -->
<g id="node26" class="node">
<title>apr&#45;util&#45;openssl</title>
<text text-anchor="middle" x="843.57" y="-1016.9" font-family="Helvetica,sans-Serif" font-weight="bold" font-size="14.00" fill="#000000">apr&#45;util&#45;openssl (23.8 kB)</text>
</g>
<!-- fedora&#45;logos&#45;httpd -->
<g id="node27" class="node">
<title>fedora&#45;logos&#45;httpd</title>
<text text-anchor="middle" x="1627.4" y="-509.3" font-family="Helvetica,sans-Serif" font-weight="bold" font-size="14.00" fill="#000000">fedora&#45;logos&#45;httpd (9.9 kB)</text>
</g>
<!-- mailcap -->
<g id="node28" class="node">
<title>mailcap</title>
<text text-anchor="middle" x="1617.3" y="-741.51" font-family="Helvetica,sans-Serif" font-weight="bold" font-size="14.00" fill="#000000">mailcap (71.2 kB)</text>
</g>
<!-- mod_http2 -->
<g id="node29" class="node">
<title>mod_http2</title>
<text text-anchor="middle" x="1170.5" y="-419.15" font-family="Helvetica,sans-Serif" font-weight="bold" font-size="14.00" fill="#000000">mod_http2 (403.9 kB)</text>
</g>
<!-- httpd -->
<g id="node30" class="node">
<title>httpd</title>
<text text-anchor="middle" x="1156.2" y="-599.81" font-family="Helvetica,sans-Serif" font-weight="bold" font-size="22.00" fill="#cc0066">httpd (4.6 MB)</text>
</g>
<!-- libsemanage -->
<g id="node31" class="node">
<title>libsemanage</title>
<text text-anchor="middle" x="247.15" y="-793.58" font-family="Helvetica,sans-Serif" font-weight="bold" font-size="14.00" fill="#000000">libsemanage (313.1 kB)</text>
</g>
<!-- libpcap -->
<g id="node32" class="node">
<title>libpcap</title>
<text text-anchor="middle" x="362.16" y="-981.22" font-family="Helvetica,sans-Serif" font-weight="bold" font-size="14.00" fill="#000000">libpcap (375.4 kB)</text>
</g>
<!-- xkeyboard&#45;config -->
<g id="node33" class="node">
<title>xkeyboard&#45;config</title>
<text text-anchor="middle" x="378.68" y="-1475.1" font-family="Helvetica,sans-Serif" font-weight="bold" font-size="14.00" fill="#000000">xkeyboard&#45;config (5.4 MB)</text>
</g>
<!-- dbus&#45;broker -->
<g id="node34" class="node">
<title>dbus&#45;broker</title>
<text text-anchor="middle" x="256.86" y="-541.74" font-family="Helvetica,sans-Serif" font-weight="bold" font-size="14.00" fill="#000000">dbus&#45;broker (423.2 kB)</text>
</g>
<!-- dbus&#45;common -->
<g id="node35" class="node">
<title>dbus&#45;common</title>
<text text-anchor="middle" x="281" y="-432.83" font-family="Helvetica,sans-Serif" font-weight="bold" font-size="14.00" fill="#000000">dbus&#45;common (11.2 kB)</text>
</g>
</g>

<script type="text/javascript"><![CDATA[

document.addEventListener('click', function(e) {
      e = e || window.event;
      var target = e.target || e.srcElement;
      text = target.parentElement.querySelector("title").textContent;

      console.log("Clicked on: " + text);
      // reset all strokes
      var nodes = document.getElementsByClassName("edge");

      for (index = 0, len = nodes.length; index < len; ++index) {
          //var title = nodes[index].querySelector("title").textContent.split("->");
          id = nodes[index].id;
          document.getElementById(id).querySelector("path").setAttribute("stroke-width", "1");
          document.getElementById(id).querySelector("path").setAttribute("stroke-opacity", "0.5");
          document.getElementById(id).querySelector("path").setAttribute("stroke", "#444444");
          document.getElementById(id).querySelector("polygon").setAttribute("stroke-width", "1");
          document.getElementById(id).querySelector("polygon").setAttribute("stroke-opacity", "0.5");
          document.getElementById(id).querySelector("polygon").setAttribute("stroke", "#444444");
      }
      // reset text highlight
      pkgs = document.getElementsByClassName("node");
      for (index2 = 0, len2 = pkgs.length; index2 < len2; ++index2) {
          target_id = pkgs[index2].id;
          document.getElementById(target_id).querySelector("text").setAttribute("font-weight", "normal");
      }

      // highlight deps
      var nodes = document.getElementsByClassName("edge");
      for (index = 0, len = nodes.length; index < len; ++index) {
        var title = nodes[index].querySelector("title").textContent.split("->");

        if (title[0] == text) {
          id = nodes[index].id;
          //console.log("ID:   " + id);
          document.getElementById(id).querySelector("path").setAttribute("stroke-width", "3");
          document.getElementById(id).querySelector("path").setAttribute("stroke-opacity", "1");
          document.getElementById(id).querySelector("path").setAttribute("stroke", "#aa3333");
          document.getElementById(id).querySelector("polygon").setAttribute("stroke-width", "5");
          document.getElementById(id).querySelector("polygon").setAttribute("stroke-opacity", "1");
          document.getElementById(id).querySelector("polygon").setAttribute("stroke", "#aa3333");

        }
        if (title[1] == text) {
          id = nodes[index].id;
          document.getElementById(id).querySelector("path").setAttribute("stroke-width", "3");
          document.getElementById(id).querySelector("path").setAttribute("stroke-opacity", "1");
          document.getElementById(id).querySelector("path").setAttribute("stroke", "#333377");
          document.getElementById(id).querySelector("polygon").setAttribute("stroke-width", "5");
          document.getElementById(id).querySelector("polygon").setAttribute("stroke-opacity", "1");
          document.getElementById(id).querySelector("polygon").setAttribute("stroke", "#333377");
        }

        if (title[0] == text || title[1] == text) {
          pkgs = document.getElementsByClassName("node");
          for (index2 = 0, len2 = pkgs.length; index2 < len2; ++index2) {
            var pkg_name = pkgs[index2].querySelector("title").textContent;
            if (pkg_name == title[0] || pkg_name == title[1]) {
              target_id = pkgs[index2].id;
              document.getElementById(target_id).querySelector("text").setAttribute("font-weight", "bold");
            }
          }
        }
      }


  }, false);

]]></script>


  <text
     id="text7664"
     y="19.384439"
     x="9.9055691"
     style="font-style:normal;font-weight:normal;font-size:12.49485588px;line-height:125%;font-family:sans-serif;letter-spacing:0px;word-spacing:0px;fill:#000000;fill-opacity:1;stroke:none;stroke-width:0.3123714px;stroke-linecap:butt;stroke-linejoin:miter;stroke-opacity:1"
     xml:space="preserve"><tspan
       style="font-size:12.00258541px;stroke-width:0.3123714px"
       y="19.384439"
       x="9.9055691"
       id="tspan7666"><a href="report-use-case-definition--httpd--31.html"><tspan
   style="font-weight:bold;font-size:12.00258541px;fill:#0066ff;stroke-width:0.3123714px"
   id="tspan7668">Apache httpd</tspan></a> on <a href="report-base-definition--fedora-container-base--31.html"><tspan
   style="font-weight:bold;font-size:12.00258541px;fill:#0066ff;stroke-width:0.3123714px"
   id="tspan7676">Fedora Container Base</tspan></a> (Fedora 31)</tspan></text>
  <text
     xml:space="preserve"
     style="font-style:normal;font-weight:normal;font-size:11.85299969px;line-height:125%;font-family:sans-serif;letter-spacing:0px;word-spacing:0px;fill:#000000;fill-opacity:1;stroke:none;stroke-width:0.296325px;stroke-linecap:butt;stroke-linejoin:miter;stroke-opacity:1"
     x="9.9365959"
     y="58.520042"
     id="text8235"><tspan
       id="tspan8237"
       x="9.9365959"
       y="58.520042"
       style="stroke-width:0.296325px;font-size:10.80232704px;fill:#666666">Generated by <a href="./"><tspan
   style="fill:#3771c8"
   id="tspan8255">Feedback Pipeline</tspan></a></tspan></text>
  <text
     xml:space="preserve"
     style="font-style:normal;font-weight:normal;font-size:12.49485588px;line-height:125%;font-family:sans-serif;letter-spacing:0px;word-spacing:0px;fill:#000000;fill-opacity:1;stroke:none;stroke-width:0.3123714px;stroke-linecap:butt;stroke-linejoin:miter;stroke-opacity:1"
     x="9.9055691"
     y="38.974205"
     id="text8245"><a href="graph--httpd--fedora-container-base--31.svg"><tspan
       id="tspan8247"
       x="9.9055691"
       y="38.974205"
       style="font-weight:normal;font-size:12.00258541px;fill:#0066ff;stroke-width:0.3123714px">Expand base image</tspan></a></text>

</svg>
