<?xml version="1.0" encoding="UTF-8" standalone="no"?>
<!DOCTYPE svg PUBLIC "-//W3C//DTD SVG 1.1//EN"
 "http://www.w3.org/Graphics/SVG/1.1/DTD/svg11.dtd">
<!-- Generated by graphviz version 2.40.1 (0)
 -->
<!-- Title: packages Pages: 1 -->
<svg width="1598pt" height="790pt"
 viewBox="0.00 0.00 1917.04 948.33" xmlns="http://www.w3.org/2000/svg" xmlns:xlink="http://www.w3.org/1999/xlink">
<g id="graph0" class="graph" transform="scale(.8333 .8333) rotate(0) translate(94.7157 805.1586)">
<title>packages</title>
<polygon fill="#dae2ff" stroke="transparent" points="-94.7157,143.1724 -94.7157,-805.1586 1822.3228,-805.1586 1822.3228,143.1724 -94.7157,143.1724"/>
<polygon fill="#fbb4ae" stroke="#fbb4ae" points="1012.7336,-303.2977 1012.6963,-310.0922 1014.2372,-374.1802 925.0398,-399.0797 907.3474,-400.8917 903.2305,-401.4025 886.541,-404.199 886.8273,-384.7635 893.7583,-277.2957 892.5662,-276.9647 892.349,-276.6615 888.5638,-273.6552 888.5638,-273.6552 892.349,-276.6615 892.5662,-276.9647 893.7583,-277.2957 886.8273,-384.7635 886.541,-404.199 885.5563,-404.4278 872.4498,-407.7618 863.2034,-410.5163 858.5208,-412.0128 849.3894,-411.3878 823.2421,-410.113 744.6335,-459.5203 716.4118,-463.9926 711.378,-464.8865 698.3867,-467.6927 695.8735,-468.3316 688.9551,-470.2238 678.7901,-470.7339 664.4176,-472.4788 579.924,-485.7426 576.0697,-478.3255 532.4059,-457.37 461.5548,-416.6678 461.5454,-416.6629 450.8417,-411.6237 443.4758,-408.5504 437.6082,-406.422 436.7054,-406.1913 431.1846,-349.3447 436.5782,-352.3049 436.5782,-352.3049 431.1846,-349.3447 436.7054,-406.1913 428.1158,-404.4424 418.0863,-402.9328 417.6314,-402.8888 405.639,-402.365 399.1142,-401.4029 393.7638,-400.3362 382.2407,-396.8286 378.3944,-381.8162 374.8124,-362.3474 374.6747,-358.1445 373.1481,-344.021 372.7212,-341.6729 360.5192,-294.0473 376.8379,-280.8201 392.2453,-278.1231 401.667,-276.8519 414.0216,-276.1837 416.6878,-275.9359 423.4854,-275.8567 426.088,-276.0369 429.3733,-276.0109 432.3488,-276.1076 436.5159,-275.9211 440.9717,-275.9023 441.1887,-275.893 445.6031,-276.062 456.8294,-276.0562 458.2113,-276.1116 512.01,-272.0375 513.323,-267.5986 521.3624,-236.0544 521.8538,-233.7156 526.7661,-204.15 557.3705,-100.6824 586.4922,-76.489 592.5933,-71.2554 606.6313,-77.5673 610.6216,-79.1373 622.072,-83.4312 622.8726,-210.8224 620.0743,-240.7979 615.6894,-243.1713 613.9445,-245.0923 615.9652,-247.3808 619.9612,-249.5551 619.9612,-249.5551 615.9652,-247.3808 613.9445,-245.0923 615.6894,-243.1713 620.0743,-240.7979 622.8726,-210.8224 622.072,-83.4312 636.1375,-88.1817 652.8782,-92.897 649.1735,-207.2201 644.6414,-245.2218 642.0151,-245.2218 641.6279,-245.1127 641.6279,-245.1127 642.0151,-245.2218 644.6414,-245.2218 649.1735,-207.2201 652.8782,-92.897 772.6768,-122.1307 774.9599,-123.8494 787.7736,-123.539 816.3795,-124.7919 860.2707,-137.6354 877.5684,-141.6528 885.8062,-143.2311 893.1116,-144.3345 911.3118,-146.3474 1009.3568,-153.1989 1011.8415,-256.5395 1011.6942,-260.7221 1012.7336,-303.2977 1012.7336,-303.2977"/>
<polygon fill="#fed9a6" stroke="#fed9a6" points="72.9881,-225.8772 65.1683,-224.6892 -51.359,-200.9563 -77.3395,-229.5283 -58.089,-281.1159 -56.1225,-286.8099 49.0376,-287.7667 66.1821,-291.2962 70.9366,-288.1783 73.0164,-284.8019 77.2397,-284.8019 77.4008,-284.7553 81.5133,-284.7553 81.582,-284.736 82.6508,-284.736 86.3193,-287.8948 86.3193,-287.8948 82.6508,-284.736 81.582,-284.736 81.5133,-284.7553 77.4008,-284.7553 77.2397,-284.8019 73.0164,-284.8019 70.9366,-288.1783 66.1821,-291.2962 49.0376,-287.7667 -56.1225,-286.8099 -16.8139,-422.2372 31.6135,-426.9733 43.5912,-427.9253 67.3402,-406.9218 73.3126,-401.8769 82.7576,-394.6386 85.0529,-392.9707 91.5861,-387.9001 97.2802,-383.9582 98.3308,-383.2742 108.3158,-377.1736 113.774,-374.0653 114.5206,-325.2748 114.5206,-325.2748 113.774,-374.0653 167.9691,-347.6351 173.4377,-353.0359 180.1118,-360.2642 181.8123,-361.9597 190.6293,-371.7485 196.0477,-377.174 196.7594,-377.8085 204.9118,-383.5119 211.1648,-388.7853 216.0817,-391.7267 223.027,-395.077 226.8704,-396.4683 231.0896,-397.4994 235.1137,-398.0131 241.3664,-398.0804 241.4544,-398.0916 243.6412,-398.1138 245.5632,-397.9057 250.6741,-397.955 251.6627,-398.0815 257.146,-398.1308 260.756,-398.5834 264.5878,-399.5084 267.4305,-400.5282 274.0672,-403.724 279.6737,-407.096 287.0971,-412.4362 293.4527,-418.4945 297.818,-422.0775 298.2219,-422.4471 299.3432,-421.8335 299.3432,-421.8335 298.2219,-422.4471 295.4373,-431.9394 292.813,-449.9567 285.7776,-473.6922 255.8916,-555.5996 255.7522,-556.0069 241.2888,-561.9644 238.9475,-563.0353 226.2338,-602.9854 215.7799,-639.1005 208.031,-663.5344 193.8012,-701.9607 207.7997,-720.4775 287.7406,-779.7835 324.6238,-801.1586 340.6503,-795.6586 340.843,-764.4341 339.7637,-702.3733 339.7637,-702.3733 340.843,-764.4341 340.6503,-795.6586 355.7605,-791.3675 355.3104,-768.2885 355.66,-658.6849 360.3275,-659.924 365.2208,-658.6178 369.6121,-655.1432 365.5748,-651.9677 365.5748,-651.9677 369.6121,-655.1432 365.2208,-658.6178 363.3024,-743.3334 370.5793,-655.1795 370.4387,-655.1432 363.805,-556.3952 374.057,-556.1682 373.9256,-545.3405 370.3984,-461.9194 375.4277,-461.9194 379.923,-459.5945 379.923,-459.5945 375.4277,-461.9194 370.3984,-461.9194 373.9256,-545.3405 374.057,-556.1682 363.805,-556.3952 370.4387,-655.1432 370.5793,-655.1795 363.3024,-743.3334 365.2208,-658.6178 360.3275,-659.924 355.66,-658.6849 355.3104,-768.2885 355.7605,-791.3675 361.1193,-790.0587 375.416,-787.4093 395.864,-784.4283 435.6738,-779.4229 516.7192,-689.7114 549.6213,-654.9425 546.0778,-634.6688 537.9988,-575.3333 579.924,-485.7426 576.0697,-478.3255 532.4059,-457.37 461.5548,-416.6678 461.5454,-416.6629 450.8417,-411.6237 443.4758,-408.5504 437.6082,-406.422 436.7054,-406.1913 428.1158,-404.4424 418.0863,-402.9328 417.6314,-402.8888 405.639,-402.365 405.8882,-422.1275 408.86,-451.2072 403.3235,-455.4447 401.9779,-457.4975 401.8402,-457.6025 403.2646,-459.6364 403.2646,-459.6364 401.8402,-457.6025 401.9779,-457.4975 403.3235,-455.4447 408.86,-451.2072 405.8882,-422.1275 405.639,-402.365 399.1142,-401.4029 393.7638,-400.3362 382.2407,-396.8286 378.3944,-381.8162 374.8124,-362.3474 374.6747,-358.1445 373.1481,-344.021 372.7212,-341.6729 360.5192,-294.0473 376.8379,-280.8201 362.4688,-229.7707 325.1739,-228.3773 321.2636,-225.2645 320.7494,-224.3922 317.5323,-222.196 320.0641,-218.9962 320.0641,-218.9962 317.5323,-222.196 320.7494,-224.3922 321.2636,-225.2645 325.1739,-228.3773 362.4688,-229.7707 376.8379,-280.8201 392.2453,-278.1231 401.667,-276.8519 414.0216,-276.1837 416.6878,-275.9359 423.4854,-275.8567 426.088,-276.0369 429.3733,-276.0109 432.3488,-276.1076 436.5159,-275.9211 440.9717,-275.9023 441.1887,-275.893 445.6031,-276.062 456.8294,-276.0562 458.2113,-276.1116 512.01,-272.0375 513.323,-267.5986 521.3624,-236.0544 521.8538,-233.7156 526.7661,-204.15 557.3705,-100.6824 586.4922,-76.489 592.5933,-71.2554 584.8939,-41.6873 578.6597,-13.2485 575.8286,1.0476 564.5951,15.9886 505.1147,83.1801 435.0002,99.8695 422.7737,103.0442 421.6079,103.3717 417.874,-31.592 419.5148,-32.0529 421.8188,-32.0529 422.6949,-33.4513 425.0185,-75.8116 428.4301,-77.9627 436.9914,-84.2074 391.7439,-95.0239 390.2285,-66.4548 388.8104,-66.4142 386.5329,-66.1316 384.1348,-66.0748 379.9471,-66.3939 382.8024,-100.271 377.1969,-100.271 376.4413,-100.0647 373.2613,-100.0647 371.3288,-100.5896 369.7623,-100.5896 367.7875,-98.4617 363.1454,-95.9643 358.447,-95.9643 358.447,-95.9643 363.1454,-95.9643 367.7875,-98.4617 369.7623,-100.5896 371.3288,-100.5896 373.2613,-100.0647 376.4413,-100.0647 377.1969,-100.271 382.8024,-100.271 379.9471,-66.3939 384.1348,-66.0748 386.5329,-66.1316 388.8104,-66.4142 390.2285,-66.4548 391.7439,-95.0239 436.9914,-84.2074 428.4301,-77.9627 425.0185,-75.8116 422.6949,-33.4513 421.8188,-32.0529 419.5148,-32.0529 417.874,-31.592 421.6079,103.3717 408.7596,107.2583 408.3715,107.3922 389.4391,114.3336 382.9422,117.1271 376.5624,120.0061 336.7701,138.8075 333.5309,139.1724 320.2078,131.0201 305.3015,-18 305.3791,-20.7407 305.318,-24.9486 284.5608,-54.65 287.4468,-94.9828 287.7104,-96.7652 287.6739,-107.4607 287.5067,-109.5753 287.493,-113.629 290.4343,-154.7356 290.1196,-154.8699 277.9361,-159.4834 276.2372,-160.0411 248.5389,-167.7692 238.762,-170.9891 236.3878,-171.8872 224.5626,-176.9487 221.9596,-178.3125 216.8588,-181.2382 210.1079,-185.7973 203.6489,-209.5888 202.3809,-213.5832 193.0396,-239.2257 138.1926,-228.0551 131.3482,-227.0159 127.7097,-226.6529 124.1754,-226.4836 121.7442,-226.4933 112.765,-226.0604 111.5223,-226.0653 109.5709,-226.2768 103.9532,-226.2993 99.4347,-226.5537 97.4911,-226.5615 96.4661,-226.5121 93.0528,-226.5258 87.5351,-226.2597 87.261,-226.2608 86.9075,-226.2806 81.8037,-226.301 72.9881,-225.8772 72.9881,-225.8772"/>
<polygon fill="#fbb4ae" stroke="#fbb4ae" points="46.0396,-715.2872 42.1258,-714.4818 -39.6724,-702.3853 -87.3387,-642.1505 -90.7157,-631.2633 -89.8452,-615.0676 -87.9516,-551.8337 -89.0798,-490.1299 -88.3257,-488.1879 -16.8139,-422.2372 31.6135,-426.9733 43.5912,-427.9253 67.3402,-406.9218 73.3126,-401.8769 82.7576,-394.6386 85.0529,-392.9707 91.5861,-387.9001 97.2802,-383.9582 98.3308,-383.2742 108.3158,-377.1736 113.774,-374.0653 167.9691,-347.6351 173.4377,-353.0359 180.1118,-360.2642 181.8123,-361.9597 190.6293,-371.7485 196.0477,-377.174 196.7594,-377.8085 204.9118,-383.5119 211.1648,-388.7853 216.0817,-391.7267 223.027,-395.077 226.8704,-396.4683 231.0896,-397.4994 235.1137,-398.0131 241.3664,-398.0804 241.4544,-398.0916 243.6412,-398.1138 245.5632,-397.9057 250.6741,-397.955 251.6627,-398.0815 257.146,-398.1308 260.756,-398.5834 264.5878,-399.5084 267.4305,-400.5282 274.0672,-403.724 279.6737,-407.096 287.0971,-412.4362 293.4527,-418.4945 297.818,-422.0775 298.2219,-422.4471 295.4373,-431.9394 292.813,-449.9567 285.7776,-473.6922 255.8916,-555.5996 255.7522,-556.0069 241.2888,-561.9644 238.9475,-563.0353 226.2338,-602.9854 215.7799,-639.1005 208.031,-663.5344 193.8012,-701.9607 112.2213,-704.4118 89.9205,-705.9882 86.8863,-706.3865 73.1546,-708.7492 72.5213,-638.2447 74.6501,-577.6719 78.9895,-576.5134 83.5733,-572.6563 82.9602,-571.7617 79.8449,-569.2988 79.8449,-569.2988 82.9602,-571.7617 83.5733,-572.6563 78.9895,-576.5134 74.6501,-577.6719 72.5213,-638.2447 73.1546,-708.7492 58.7215,-711.8192 46.0396,-715.2872 46.0396,-715.2872"/>
<polygon fill="#bbd7d9" stroke="#bbd7d9" points="87.5351,-226.2597 87.261,-226.2608 86.9075,-226.2806 81.8037,-226.301 72.9881,-225.8772 65.1683,-224.6892 -51.359,-200.9563 -48.8064,-194.2009 -35.3094,-155.8733 -14.363,-85.1791 85.1856,-112.146 90.4417,-113.2645 95.5042,-114.0467 103.8484,-114.8483 111.2748,-114.6902 114.6597,-114.8027 115.6063,-114.9382 124.2377,-115.1542 124.6942,-115.1388 124.2367,-62.4195 124.5553,-62.335 128.6226,-65.4442 134.2571,-66.9415 138.6424,-65.8308 143.1417,-62.4151 137.7492,-57.9562 134.5651,-57.1564 134.5651,-57.1564 137.7492,-57.9562 143.1417,-62.4151 138.6424,-65.8308 134.2571,-66.9415 128.6226,-65.4442 124.5553,-62.335 124.2367,-62.4195 124.6942,-115.1388 124.2377,-115.1542 115.6063,-114.9382 114.6597,-114.8027 111.2748,-114.6902 103.8484,-114.8483 95.5042,-114.0467 90.4417,-113.2645 85.1856,-112.146 -14.363,-85.1791 -14.9343,-78.9848 -16.1003,-70.7807 -16.0226,-35.5081 -12.3383,-28.712 37.9903,69.9683 44.5497,72.7549 85.6755,74.1584 191.8519,117.067 199.3434,120.6367 199.8557,120.9061 217.5866,121.0167 224.5632,121.3347 240.3992,122.6798 320.2078,131.0201 305.3015,-18 305.3791,-20.7407 305.318,-24.9486 284.5608,-54.65 287.4468,-94.9828 287.7104,-96.7652 287.6739,-107.4607 287.5067,-109.5753 287.493,-113.629 290.4343,-154.7356 290.1196,-154.8699 277.9361,-159.4834 276.2372,-160.0411 248.5389,-167.7692 238.762,-170.9891 236.3878,-171.8872 224.5626,-176.9487 221.9596,-178.3125 216.8588,-181.2382 210.1079,-185.7973 203.6489,-209.5888 202.3809,-213.5832 193.0396,-239.2257 138.1926,-228.0551 131.3482,-227.0159 127.7097,-226.6529 127.4026,-168.1205 126.7121,-167.9184 129.6259,-133.2086 133.1539,-164.0393 137.6262,-161.4672 158.146,-166.8628 168.7985,-167.96 192.4195,-167.96 194.2154,-169.5209 202.7872,-177.6688 203.5184,-130.6544 206.9059,-110.7488 210.3594,-110.7488 216.2343,-107.453 217.7719,-105.7749 217.4837,-105.4794 217.4837,-105.4794 217.7719,-105.7749 216.2343,-107.453 210.3594,-110.7488 206.9059,-110.7488 203.5184,-130.6544 202.7872,-177.6688 194.2154,-169.5209 192.4195,-167.96 168.7985,-167.96 158.146,-166.8628 137.6262,-161.4672 138.9153,-126.1325 174.2125,-149.9002 186.1783,-160.6307 185.7252,-149.1268 185.7252,-149.1268 186.1783,-160.6307 174.2125,-149.9002 138.9153,-126.1325 137.6262,-161.4672 133.1539,-164.0393 129.6259,-133.2086 126.7121,-167.9184 127.4026,-168.1205 127.7097,-226.6529 124.1754,-226.4836 121.7442,-226.4933 112.765,-226.0604 111.5223,-226.0653 111.2568,-219.6938 106.3065,-170.9228 112.1115,-172.6589 117.7022,-171.0049 121.3839,-167.9018 117.6969,-164.8334 117.6969,-164.8334 121.3839,-167.9018 117.7022,-171.0049 112.1115,-172.6589 106.3065,-170.9228 111.2568,-219.6938 111.5223,-226.0653 109.5709,-226.2768 103.9532,-226.2993 99.4347,-226.5537 97.4911,-226.5615 96.4661,-226.5121 93.0528,-226.5258 87.5351,-226.2597 87.5351,-226.2597"/>
<polygon fill="#d8d6da" stroke="#d8d6da" points="1809.1892,-307.2423 1805.2823,-334.6435 1796.8428,-426.4202 1725.8228,-455.8067 1680.895,-452.4672 1680.7908,-452.4638 1663.0032,-452.2502 1656.2324,-452.4506 1653.8055,-452.5729 1651.4774,-363.6846 1653.6735,-325.8796 1652.5137,-325.5562 1647.705,-329.5344 1643.3683,-330.6616 1638.6078,-329.4289 1634.1803,-325.9604 1633.833,-325.9604 1632.9923,-325.7318 1629.396,-325.7318 1628.9941,-325.6225 1628.9941,-325.6225 1629.396,-325.7318 1632.9923,-325.7318 1633.833,-325.9604 1634.1803,-325.9604 1638.6078,-329.4289 1643.3683,-330.6616 1647.705,-329.5344 1652.5137,-325.5562 1653.6735,-325.8796 1651.4774,-363.6846 1653.8055,-452.5729 1644.2561,-453.4521 1636.5951,-454.317 1630.9857,-455.0669 1624.9557,-455.998 1622.756,-455.327 1623.1483,-412.8905 1623.0938,-410.4053 1618.5073,-325.7456 1614.3796,-325.7456 1612.1908,-254.5281 1610.2655,-254.5337 1609.0896,-324.819 1604.2228,-320.0297 1554.713,-313.0103 1602.1569,-257.89 1606.274,-254.3776 1605.6946,-253.6911 1595.0626,-242.9058 1595.0626,-242.9058 1605.6946,-253.6911 1606.274,-254.3776 1602.1569,-257.89 1574.0206,-257.89 1541.8956,-251.5726 1536.3285,-255.1324 1534.4274,-257.7464 1534.493,-257.793 1536.8716,-261.1965 1537.3749,-316.7305 1531.1984,-258.0536 1527.5603,-258.0536 1526.6925,-257.8254 1522.9569,-257.8254 1522.7825,-257.7799 1519.7244,-257.7799 1518.6615,-256.6769 1518.6615,-256.6769 1519.7244,-257.7799 1518.3282,-259.264 1518.3282,-259.264 1519.7244,-257.7799 1522.7825,-257.7799 1522.9569,-257.8254 1526.6925,-257.8254 1527.5603,-258.0536 1531.1984,-258.0536 1537.3749,-316.7305 1536.8716,-261.1965 1534.493,-257.793 1534.4274,-257.7464 1536.3285,-255.1324 1541.8956,-251.5726 1574.0206,-257.89 1602.1569,-257.89 1554.713,-313.0103 1604.2228,-320.0297 1609.0896,-324.819 1610.2655,-254.5337 1612.1908,-254.5281 1614.3796,-325.7456 1618.5073,-325.7456 1623.0938,-410.4053 1623.1483,-412.8905 1622.756,-455.327 1615.5498,-453.5988 1605.3738,-451.3784 1604.2467,-451.157 1548.5643,-441.4289 1529.7429,-433.7964 1484.4563,-402.8715 1481.9218,-402.6104 1479.4404,-402.4429 1454.244,-401.1887 1395.6151,-419.371 1373.3826,-426.7014 1364.0035,-430.1486 1353.4583,-434.4235 1350.9419,-435.5385 1350.5442,-435.3564 1333.924,-428.3766 1312.2039,-420.9132 1302.5448,-418.1537 1296.5731,-416.5627 1294.6447,-416.1231 1285.7306,-414.2605 1232.8597,-404.2263 1187.4487,-412.8436 1187.3721,-412.8597 1172.5348,-416.26 1157.6295,-420.555 1155.8575,-419.9118 1147.1787,-417.1097 1147.161,-417.1043 1138.5782,-414.6762 1124.6652,-411.2943 1121.6316,-410.6785 1118.2244,-410.0546 1053.6604,-399.513 1014.2372,-374.1802 1012.6963,-310.0922 1012.7336,-303.2977 1011.6942,-260.7221 1011.8415,-256.5395 1009.3568,-153.1989 1029.4657,-137.4161 1114.7666,-129.4148 1118.2069,-128.9627 1127.7574,-132.9213 1134.7069,-135.4955 1140.3914,-137.4758 1150.1851,-140.6716 1154.5609,-142.0018 1163.2576,-144.26 1169.3109,-145.5646 1172.2119,-146.1258 1179.8774,-147.4404 1196.2092,-149.8806 1239.1469,-155.3351 1276.9734,-144.1581 1289.8949,-140.0602 1299.1069,-140.7981 1306.5819,-140.9639 1314.2954,-140.8378 1329.7401,-139.989 1337.1322,-139.298 1346.9677,-137.9993 1349.5095,-137.6148 1358.3917,-136.1002 1367.2742,-134.0719 1372.4679,-132.7855 1379.7515,-130.841 1383.0377,-130.9077 1381.5706,-202.9213 1381.5706,-202.9213 1383.0377,-130.9077 1407.776,-130.5275 1466.8052,-108.0846 1467.1818,-107.934 1474.0931,-99.7144 1546.2853,-61.4874 1595.739,-45.9276 1605.9537,-42.2899 1607.571,-41.6807 1613.3741,-39.3744 1622.2222,-35.6747 1627.8075,-32.9917 1630.1145,-32.7578 1646.8573,-30.7738 1665.9923,-26.8697 1672.7288,-25.3809 1674.2394,-24.9958 1676.1659,-25.585 1731.4541,-40.5676 1800.5591,-129.103 1802.8352,-152.2854 1808.5405,-198.4445 1817.756,-251.8502 1685.6757,-254.1232 1680.0922,-188.6309 1676.5367,-185.939 1672.4558,-211.1421 1670.1261,-182.7822 1665.5796,-182.7822 1665.4043,-182.736 1662.2523,-182.736 1661.0295,-182.4115 1657.7916,-182.4115 1657.7916,-182.4115 1661.0295,-182.4115 1662.2523,-182.736 1665.4043,-182.736 1665.5796,-182.7822 1670.1261,-182.7822 1672.4558,-211.1421 1676.5367,-185.939 1680.0922,-188.6309 1685.6757,-254.1232 1817.756,-251.8502 1818.3228,-252.6656 1809.1892,-307.2423 1809.1892,-307.2423"/>
<polyline fill="none" stroke="#000000" points="695.8735,-468.3316 698.3867,-467.6927 711.378,-464.8865 716.4118,-463.9926 744.6335,-459.5203 823.2421,-410.113 849.3894,-411.3878 858.5208,-412.0128 863.2034,-410.5163 872.4498,-407.7618 885.5563,-404.4278 886.541,-404.199 903.2305,-401.4025 907.3474,-400.8917 925.0398,-399.0797 1014.2372,-374.1802 1012.6963,-310.0922 1012.7336,-303.2977 1011.6942,-260.7221 1011.8415,-256.5395 1009.3568,-153.1989 911.3118,-146.3474 893.1116,-144.3345 885.8062,-143.2311 877.5684,-141.6528 860.2707,-137.6354 816.3795,-124.7919 787.7736,-123.539 774.9599,-123.8494 772.6768,-122.1307 652.8782,-92.897 636.1375,-88.1817 622.072,-83.4312 610.6216,-79.1373 606.6313,-77.5673 592.5933,-71.2554 586.4922,-76.489 557.3705,-100.6824 526.7661,-204.15 521.8538,-233.7156 521.3624,-236.0544 513.323,-267.5986 512.01,-272.0375 458.2113,-276.1116 456.8294,-276.0562 445.6031,-276.062 441.1887,-275.893 440.9717,-275.9023 436.5159,-275.9211 432.3488,-276.1076 429.3733,-276.0109 426.088,-276.0369 423.4854,-275.8567 416.6878,-275.9359 414.0216,-276.1837 401.667,-276.8519 392.2453,-278.1231 376.8379,-280.8201 360.5192,-294.0473 372.7212,-341.6729 373.1481,-344.021 374.6747,-358.1445 374.8124,-362.3474 378.3944,-381.8162 382.2407,-396.8286 393.7638,-400.3362 399.1142,-401.4029 405.639,-402.365 417.6314,-402.8888 418.0863,-402.9328 428.1158,-404.4424 436.7054,-406.1913 437.6082,-406.422 443.4758,-408.5504 450.8417,-411.6237 461.5454,-416.6629 461.5548,-416.6678 532.4059,-457.37 576.0697,-478.3255 579.924,-485.7426 664.4176,-472.4788 678.7901,-470.7339 688.9551,-470.2238 695.8735,-468.3316 "/>
<polyline fill="none" stroke="#000000" points="290.4343,-154.7356 287.493,-113.629 287.5067,-109.5753 287.6739,-107.4607 287.7104,-96.7652 287.4468,-94.9828 284.5608,-54.65 305.318,-24.9486 305.3791,-20.7407 305.3015,-18 320.2078,131.0201 333.5309,139.1724 336.7701,138.8075 376.5624,120.0061 382.9422,117.1271 389.4391,114.3336 408.3715,107.3922 408.7596,107.2583 421.6079,103.3717 422.7737,103.0442 435.0002,99.8695 505.1147,83.1801 564.5951,15.9886 575.8286,1.0476 578.6597,-13.2485 584.8939,-41.6873 592.5933,-71.2554 586.4922,-76.489 557.3705,-100.6824 526.7661,-204.15 521.8538,-233.7156 521.3624,-236.0544 513.323,-267.5986 512.01,-272.0375 458.2113,-276.1116 456.8294,-276.0562 445.6031,-276.062 441.1887,-275.893 440.9717,-275.9023 436.5159,-275.9211 432.3488,-276.1076 429.3733,-276.0109 426.088,-276.0369 423.4854,-275.8567 416.6878,-275.9359 414.0216,-276.1837 401.667,-276.8519 392.2453,-278.1231 376.8379,-280.8201 360.5192,-294.0473 372.7212,-341.6729 373.1481,-344.021 374.6747,-358.1445 374.8124,-362.3474 378.3944,-381.8162 382.2407,-396.8286 393.7638,-400.3362 399.1142,-401.4029 405.639,-402.365 417.6314,-402.8888 418.0863,-402.9328 428.1158,-404.4424 436.7054,-406.1913 437.6082,-406.422 443.4758,-408.5504 450.8417,-411.6237 461.5454,-416.6629 461.5548,-416.6678 532.4059,-457.37 576.0697,-478.3255 579.924,-485.7426 537.9988,-575.3333 546.0778,-634.6688 549.6213,-654.9425 516.7192,-689.7114 435.6738,-779.4229 395.864,-784.4283 375.416,-787.4093 361.1193,-790.0587 355.7605,-791.3675 340.6503,-795.6586 324.6238,-801.1586 287.7406,-779.7835 207.7997,-720.4775 193.8012,-701.9607 208.031,-663.5344 215.7799,-639.1005 226.2338,-602.9854 238.9475,-563.0353 241.2888,-561.9644 255.7522,-556.0069 255.8916,-555.5996 285.7776,-473.6922 292.813,-449.9567 295.4373,-431.9394 298.2219,-422.4471 297.818,-422.0775 293.4527,-418.4945 287.0971,-412.4362 279.6737,-407.096 274.0672,-403.724 267.4305,-400.5282 264.5878,-399.5084 260.756,-398.5834 257.146,-398.1308 251.6627,-398.0815 250.6741,-397.955 245.5632,-397.9057 243.6412,-398.1138 241.4544,-398.0916 241.3664,-398.0804 235.1137,-398.0131 231.0896,-397.4994 226.8704,-396.4683 223.027,-395.077 216.0817,-391.7267 211.1648,-388.7853 204.9118,-383.5119 196.7594,-377.8085 196.0477,-377.174 190.6293,-371.7485 181.8123,-361.9597 180.1118,-360.2642 173.4377,-353.0359 167.9691,-347.6351 113.774,-374.0653 108.3158,-377.1736 98.3308,-383.2742 97.2802,-383.9582 91.5861,-387.9001 85.0529,-392.9707 82.7576,-394.6386 73.3126,-401.8769 67.3402,-406.9218 43.5912,-427.9253 31.6135,-426.9733 -16.8139,-422.2372 -56.1225,-286.8099 -58.089,-281.1159 -77.3395,-229.5283 -51.359,-200.9563 65.1683,-224.6892 72.9881,-225.8772 81.8037,-226.301 86.9075,-226.2806 87.261,-226.2608 87.5351,-226.2597 93.0528,-226.5258 96.4661,-226.5121 97.4911,-226.5615 99.4347,-226.5537 103.9532,-226.2993 109.5709,-226.2768 111.5223,-226.0653 112.765,-226.0604 121.7442,-226.4933 124.1754,-226.4836 127.7097,-226.6529 131.3482,-227.0159 138.1926,-228.0551 193.0396,-239.2257 202.3809,-213.5832 203.6489,-209.5888 210.1079,-185.7973 216.8588,-181.2382 221.9596,-178.3125 224.5626,-176.9487 236.3878,-171.8872 238.762,-170.9891 248.5389,-167.7692 276.2372,-160.0411 277.9361,-159.4834 290.1196,-154.8699 290.4343,-154.7356 "/>
<polyline fill="none" stroke="#000000" points="226.8704,-396.4683 231.0896,-397.4994 235.1137,-398.0131 241.3664,-398.0804 241.4544,-398.0916 243.6412,-398.1138 245.5632,-397.9057 250.6741,-397.955 251.6627,-398.0815 257.146,-398.1308 260.756,-398.5834 264.5878,-399.5084 267.4305,-400.5282 274.0672,-403.724 279.6737,-407.096 287.0971,-412.4362 293.4527,-418.4945 297.818,-422.0775 298.2219,-422.4471 295.4373,-431.9394 292.813,-449.9567 285.7776,-473.6922 255.8916,-555.5996 255.7522,-556.0069 241.2888,-561.9644 238.9475,-563.0353 226.2338,-602.9854 215.7799,-639.1005 208.031,-663.5344 193.8012,-701.9607 112.2213,-704.4118 89.9205,-705.9882 86.8863,-706.3865 73.1546,-708.7492 58.7215,-711.8192 46.0396,-715.2872 42.1258,-714.4818 -39.6724,-702.3853 -87.3387,-642.1505 -90.7157,-631.2633 -89.8452,-615.0676 -87.9516,-551.8337 -89.0798,-490.1299 -88.3257,-488.1879 -16.8139,-422.2372 31.6135,-426.9733 43.5912,-427.9253 67.3402,-406.9218 73.3126,-401.8769 82.7576,-394.6386 85.0529,-392.9707 91.5861,-387.9001 97.2802,-383.9582 98.3308,-383.2742 108.3158,-377.1736 113.774,-374.0653 167.9691,-347.6351 173.4377,-353.0359 180.1118,-360.2642 181.8123,-361.9597 190.6293,-371.7485 196.0477,-377.174 196.7594,-377.8085 204.9118,-383.5119 211.1648,-388.7853 216.0817,-391.7267 223.027,-395.077 226.8704,-396.4683 "/>
<polyline fill="none" stroke="#000000" points="217.5866,121.0167 199.8557,120.9061 199.3434,120.6367 191.8519,117.067 85.6755,74.1584 44.5497,72.7549 37.9903,69.9683 -12.3383,-28.712 -16.0226,-35.5081 -16.1003,-70.7807 -14.9343,-78.9848 -14.363,-85.1791 -35.3094,-155.8733 -48.8064,-194.2009 -51.359,-200.9563 65.1683,-224.6892 72.9881,-225.8772 81.8037,-226.301 86.9075,-226.2806 87.261,-226.2608 87.5351,-226.2597 93.0528,-226.5258 96.4661,-226.5121 97.4911,-226.5615 99.4347,-226.5537 103.9532,-226.2993 109.5709,-226.2768 111.5223,-226.0653 112.765,-226.0604 121.7442,-226.4933 124.1754,-226.4836 127.7097,-226.6529 131.3482,-227.0159 138.1926,-228.0551 193.0396,-239.2257 202.3809,-213.5832 203.6489,-209.5888 210.1079,-185.7973 216.8588,-181.2382 221.9596,-178.3125 224.5626,-176.9487 236.3878,-171.8872 238.762,-170.9891 248.5389,-167.7692 276.2372,-160.0411 277.9361,-159.4834 290.1196,-154.8699 290.4343,-154.7356 287.493,-113.629 287.5067,-109.5753 287.6739,-107.4607 287.7104,-96.7652 287.4468,-94.9828 284.5608,-54.65 305.318,-24.9486 305.3791,-20.7407 305.3015,-18 320.2078,131.0201 240.3992,122.6798 224.5632,121.3347 217.5866,121.0167 "/>
<polyline fill="none" stroke="#000000" points="1350.5442,-435.3564 1350.9419,-435.5385 1353.4583,-434.4235 1364.0035,-430.1486 1373.3826,-426.7014 1395.6151,-419.371 1454.244,-401.1887 1479.4404,-402.4429 1481.9218,-402.6104 1484.4563,-402.8715 1529.7429,-433.7964 1548.5643,-441.4289 1604.2467,-451.157 1605.3738,-451.3784 1615.5498,-453.5988 1622.756,-455.327 1624.9557,-455.998 1630.9857,-455.0669 1636.5951,-454.317 1644.2561,-453.4521 1653.8055,-452.5729 1656.2324,-452.4506 1663.0032,-452.2502 1680.7908,-452.4638 1680.895,-452.4672 1725.8228,-455.8067 1796.8428,-426.4202 1805.2823,-334.6435 1809.1892,-307.2423 1818.3228,-252.6656 1817.756,-251.8502 1808.5405,-198.4445 1802.8352,-152.2854 1800.5591,-129.103 1731.4541,-40.5676 1676.1659,-25.585 1674.2394,-24.9958 1672.7288,-25.3809 1665.9923,-26.8697 1646.8573,-30.7738 1630.1145,-32.7578 1627.8075,-32.9917 1622.2222,-35.6747 1613.3741,-39.3744 1607.571,-41.6807 1605.9537,-42.2899 1595.739,-45.9276 1546.2853,-61.4874 1474.0931,-99.7144 1467.1818,-107.934 1466.8052,-108.0846 1407.776,-130.5275 1383.0377,-130.9077 1379.7515,-130.841 1372.4679,-132.7855 1367.2742,-134.0719 1358.3917,-136.1002 1349.5095,-137.6148 1346.9677,-137.9993 1337.1322,-139.298 1329.7401,-139.989 1314.2954,-140.8378 1306.5819,-140.9639 1299.1069,-140.7981 1289.8949,-140.0602 1276.9734,-144.1581 1239.1469,-155.3351 1196.2092,-149.8806 1179.8774,-147.4404 1172.2119,-146.1258 1169.3109,-145.5646 1163.2576,-144.26 1154.5609,-142.0018 1150.1851,-140.6716 1140.3914,-137.4758 1134.7069,-135.4955 1127.7574,-132.9213 1118.2069,-128.9627 1114.7666,-129.4148 1029.4657,-137.4161 1009.3568,-153.1989 1011.8415,-256.5395 1011.6942,-260.7221 1012.7336,-303.2977 1012.6963,-310.0922 1014.2372,-374.1802 1053.6604,-399.513 1118.2244,-410.0546 1121.6316,-410.6785 1124.6652,-411.2943 1138.5782,-414.6762 1147.161,-417.1043 1147.1787,-417.1097 1155.8575,-419.9118 1157.6295,-420.555 1172.5348,-416.26 1187.3721,-412.8597 1187.4487,-412.8436 1232.8597,-404.2263 1285.7306,-414.2605 1294.6447,-416.1231 1296.5731,-416.5627 1302.5448,-418.1537 1312.2039,-420.9132 1333.924,-428.3766 1350.5442,-435.3564 "/>
<!-- filesystem&#45;&gt;setup -->
<g id="edge1" class="edge">
<title>filesystem&#45;&gt;setup</title>
<path fill="none" stroke="#444444" stroke-opacity="0.333333" d="M746.7458,-312.5422C769.5937,-306.6134 796.017,-299.757 819.5021,-293.6629"/>
<polygon fill="#444444" fill-opacity="0.333333" stroke="#444444" stroke-opacity="0.333333" points="820.5679,-297.0023 829.3683,-291.1027 818.8097,-290.2267 820.5679,-297.0023"/>
</g>
<!-- filesystem&#45;&gt;bash -->
<g id="edge2" class="edge">
<title>filesystem&#45;&gt;bash</title>
<path fill="none" stroke="#444444" stroke-opacity="0.333333" d="M632.3711,-326.2945C592.0811,-328.3165 538.343,-332.7237 497.7768,-337.3213"/>
<polygon fill="#444444" fill-opacity="0.333333" stroke="#444444" stroke-opacity="0.333333" points="497.2889,-333.8544 487.7634,-338.493 498.1025,-340.807 497.2889,-333.8544"/>
</g>
<!-- setup&#45;&gt;setup -->
<g id="edge3" class="edge">
<title>setup&#45;&gt;setup</title>
<path fill="none" stroke="#444444" stroke-opacity="0.333333" d="M937.3773,-283.5397C947.8986,-282.7907 955.37,-280.6408 955.37,-277.09 955.37,-274.8153 952.3037,-273.1155 947.3336,-271.9906"/>
<polygon fill="#444444" fill-opacity="0.333333" stroke="#444444" stroke-opacity="0.333333" points="947.7569,-268.5161 937.3773,-270.6403 946.8162,-275.4526 947.7569,-268.5161"/>
</g>
<!-- setup&#45;&gt;fedora&#45;release -->
<g id="edge4" class="edge">
<title>setup&#45;&gt;fedora&#45;release</title>
<path fill="none" stroke="#444444" stroke-opacity="0.333333" d="M937.5289,-276.1004C973.8633,-275.4366 1022.5168,-274.5476 1064.1983,-273.786"/>
<polygon fill="#444444" fill-opacity="0.333333" stroke="#444444" stroke-opacity="0.333333" points="1064.4212,-277.2826 1074.3556,-273.6004 1064.2933,-270.2838 1064.4212,-277.2826"/>
</g>
<!-- bash&#45;&gt;filesystem -->
<g id="edge5" class="edge">
<title>bash&#45;&gt;filesystem</title>
<path fill="none" stroke="#444444" stroke-opacity="0.333333" d="M487.9516,-349.458C526.239,-347.7905 579.9868,-343.5655 622.3769,-338.9942"/>
<polygon fill="#444444" fill-opacity="0.333333" stroke="#444444" stroke-opacity="0.333333" points="622.786,-342.4704 632.3392,-337.8892 622.0143,-335.513 622.786,-342.4704"/>
</g>
<!-- bash&#45;&gt;bash -->
<g id="edge6" class="edge">
<title>bash&#45;&gt;bash</title>
<path fill="none" stroke="#444444" stroke-opacity="0.333333" d="M487.9241,-354.5321C498.2519,-353.8688 505.71,-351.6914 505.71,-348 505.71,-345.6929 502.7967,-343.9772 498.0903,-342.8529"/>
<polygon fill="#444444" fill-opacity="0.333333" stroke="#444444" stroke-opacity="0.333333" points="498.3051,-339.3499 487.9241,-341.4679 497.3601,-346.2858 498.3051,-339.3499"/>
</g>
<!-- bash&#45;&gt;glibc -->
<g id="edge7" class="edge">
<title>bash&#45;&gt;glibc</title>
<path fill="none" stroke="#444444" stroke-opacity="0.333333" d="M419.1582,-329.7483C395.3622,-308.0887 355.5573,-271.8573 328.8758,-247.5711"/>
<polygon fill="#444444" fill-opacity="0.333333" stroke="#444444" stroke-opacity="0.333333" points="331.1373,-244.8967 321.386,-240.7537 326.4253,-250.0734 331.1373,-244.8967"/>
</g>
<!-- bash&#45;&gt;ncurses&#45;libs -->
<g id="edge8" class="edge">
<title>bash&#45;&gt;ncurses&#45;libs</title>
<path fill="none" stroke="#444444" stroke-opacity="0.333333" d="M390.6891,-365.3287C357.401,-377.2172 312.986,-393.0796 277.3846,-405.7943"/>
<polygon fill="#444444" fill-opacity="0.333333" stroke="#444444" stroke-opacity="0.333333" points="275.8337,-402.6316 267.5934,-409.2911 278.188,-409.2238 275.8337,-402.6316"/>
</g>
<!-- fedora&#45;release&#45;&gt;fedora&#45;release&#45;common -->
<g id="edge30" class="edge">
<title>fedora&#45;release&#45;&gt;fedora&#45;release&#45;common</title>
<path fill="none" stroke="#444444" stroke-opacity="0.333333" d="M1227.6095,-286.6289C1227.6586,-286.6307 1227.7078,-286.6324 1227.7569,-286.6342"/>
<polygon fill="#444444" fill-opacity="0.333333" stroke="#444444" stroke-opacity="0.333333" points="1217.7838,-289.7749 1227.9043,-286.6394 1218.0374,-282.7793 1217.7838,-289.7749"/>
</g>
<!-- glibc&#45;&gt;glibc -->
<g id="edge9" class="edge">
<title>glibc&#45;&gt;glibc</title>
<path fill="none" stroke="#444444" stroke-opacity="0.333333" d="M354.5672,-228.9297C364.9423,-228.1807 372.31,-226.0308 372.31,-222.48 372.31,-220.2608 369.432,-218.5887 364.7405,-217.464"/>
<polygon fill="#444444" fill-opacity="0.333333" stroke="#444444" stroke-opacity="0.333333" points="364.9578,-213.9601 354.5672,-216.0303 363.9809,-220.8916 364.9578,-213.9601"/>
</g>
<!-- glibc&#45;&gt;basesystem -->
<g id="edge10" class="edge">
<title>glibc&#45;&gt;basesystem</title>
<path fill="none" stroke="#444444" stroke-opacity="0.333333" d="M354.4355,-226.235C408.0858,-230.0272 491.3265,-235.9109 550.9167,-240.1228"/>
<polygon fill="#444444" fill-opacity="0.333333" stroke="#444444" stroke-opacity="0.333333" points="550.7891,-243.6225 561.0111,-240.8363 551.2827,-236.6399 550.7891,-243.6225"/>
</g>
<!-- glibc&#45;&gt;glibc&#45;common -->
<g id="edge11" class="edge">
<title>glibc&#45;&gt;glibc&#45;common</title>
<path fill="none" stroke="#444444" stroke-opacity="0.333333" d="M303.0038,-240.8429C311.6621,-281.8809 341.6368,-381.1486 359.6932,-429.7087"/>
<polygon fill="#444444" fill-opacity="0.333333" stroke="#444444" stroke-opacity="0.333333" points="356.5072,-431.1762 363.3533,-439.2621 363.0439,-428.6718 356.5072,-431.1762"/>
</g>
<!-- glibc&#45;&gt;glibc&#45;minimal&#45;langpack -->
<g id="edge12" class="edge">
<title>glibc&#45;&gt;glibc&#45;minimal&#45;langpack</title>
<path fill="none" stroke="#444444" stroke-opacity="0.333333" d="M294.8035,-240.5249C289.8065,-265.4533 285.0134,-310.6788 284.0368,-340.1837"/>
<polygon fill="#444444" fill-opacity="0.333333" stroke="#444444" stroke-opacity="0.333333" points="280.5358,-340.2149 283.8564,-350.2759 287.5347,-340.3401 280.5358,-340.2149"/>
</g>
<!-- glibc&#45;&gt;libgcc -->
<g id="edge13" class="edge">
<title>glibc&#45;&gt;libgcc</title>
<path fill="none" stroke="#444444" stroke-opacity="0.333333" d="M248.1935,-238.3119C220.8669,-246.4569 187.2903,-256.4647 158.2703,-265.1144"/>
<polygon fill="#444444" fill-opacity="0.333333" stroke="#444444" stroke-opacity="0.333333" points="157.2026,-261.7804 148.619,-267.9911 159.2022,-268.4887 157.2026,-261.7804"/>
</g>
<!-- ncurses&#45;libs&#45;&gt;glibc -->
<g id="edge14" class="edge">
<title>ncurses&#45;libs&#45;&gt;glibc</title>
<path fill="none" stroke="#444444" stroke-opacity="0.333333" d="M224.3544,-409.2238C239.1908,-373.2211 272.3818,-292.6784 289.9309,-250.0931"/>
<polygon fill="#444444" fill-opacity="0.333333" stroke="#444444" stroke-opacity="0.333333" points="293.2583,-251.2047 293.8324,-240.6254 286.7863,-248.5376 293.2583,-251.2047"/>
</g>
<!-- ncurses&#45;libs&#45;&gt;ncurses&#45;libs -->
<g id="edge15" class="edge">
<title>ncurses&#45;libs&#45;&gt;ncurses&#45;libs</title>
<path fill="none" stroke="#444444" stroke-opacity="0.333333" d="M291.2201,-433.4674C301.7764,-432.4877 308.86,-430.4686 308.86,-427.41 308.86,-425.4984 306.093,-423.9928 301.4405,-422.8932"/>
<polygon fill="#444444" fill-opacity="0.333333" stroke="#444444" stroke-opacity="0.333333" points="301.6302,-419.3824 291.2201,-421.3526 300.5867,-426.3042 301.6302,-419.3824"/>
</g>
<!-- ncurses&#45;libs&#45;&gt;ncurses&#45;base -->
<g id="edge16" class="edge">
<title>ncurses&#45;libs&#45;&gt;ncurses&#45;base</title>
<path fill="none" stroke="#444444" stroke-opacity="0.333333" d="M199.1178,-445.5211C174.0757,-471.0839 128.2381,-517.8745 99.6805,-547.0259"/>
<polygon fill="#444444" fill-opacity="0.333333" stroke="#444444" stroke-opacity="0.333333" points="96.9635,-544.7979 92.4657,-554.3907 101.9639,-549.6965 96.9635,-544.7979"/>
</g>
<!-- basesystem&#45;&gt;filesystem -->
<g id="edge37" class="edge">
<title>basesystem&#45;&gt;filesystem</title>
<path fill="none" stroke="#444444" stroke-opacity="0.333333" d="M637.8218,-263.4473C646.7959,-274.5057 658.3991,-288.8039 668.3538,-301.0706"/>
<polygon fill="#444444" fill-opacity="0.333333" stroke="#444444" stroke-opacity="0.333333" points="665.9105,-303.6142 674.9296,-309.1736 671.3459,-299.2033 665.9105,-303.6142"/>
</g>
<!-- basesystem&#45;&gt;setup -->
<g id="edge38" class="edge">
<title>basesystem&#45;&gt;setup</title>
<path fill="none" stroke="#444444" stroke-opacity="0.333333" d="M685.0572,-252.8132C725.5421,-257.7692 778.2743,-264.2245 819.1847,-269.2326"/>
<polygon fill="#444444" fill-opacity="0.333333" stroke="#444444" stroke-opacity="0.333333" points="818.965,-272.7318 829.3163,-270.4729 819.8157,-265.7837 818.965,-272.7318"/>
</g>
<!-- glibc&#45;common&#45;&gt;bash -->
<g id="edge39" class="edge">
<title>glibc&#45;common&#45;&gt;bash</title>
<path fill="none" stroke="#444444" stroke-opacity="0.333333" d="M383.9082,-439.3098C394.5514,-421.7366 410.8505,-394.8248 423.0004,-374.764"/>
<polygon fill="#444444" fill-opacity="0.333333" stroke="#444444" stroke-opacity="0.333333" points="426.0688,-376.4538 428.2556,-366.0871 420.0813,-372.8274 426.0688,-376.4538"/>
</g>
<!-- glibc&#45;common&#45;&gt;glibc -->
<g id="edge40" class="edge">
<title>glibc&#45;common&#45;&gt;glibc</title>
<path fill="none" stroke="#444444" stroke-opacity="0.333333" d="M371.2762,-439.0071C362.6179,-397.9691 332.6432,-298.7014 314.5868,-250.1413"/>
<polygon fill="#444444" fill-opacity="0.333333" stroke="#444444" stroke-opacity="0.333333" points="317.7728,-248.6738 310.9267,-240.5879 311.2361,-251.1782 317.7728,-248.6738"/>
</g>
<!-- glibc&#45;common&#45;&gt;tzdata -->
<g id="edge41" class="edge">
<title>glibc&#45;common&#45;&gt;tzdata</title>
<path fill="none" stroke="#444444" stroke-opacity="0.333333" d="M371.8072,-475.624C369.6038,-510.2146 364.8061,-585.5303 362.1789,-626.7732"/>
<polygon fill="#444444" fill-opacity="0.333333" stroke="#444444" stroke-opacity="0.333333" points="358.6729,-626.7578 361.53,-636.9601 365.6587,-627.2029 358.6729,-626.7578"/>
</g>
<!-- glibc&#45;minimal&#45;langpack&#45;&gt;glibc -->
<g id="edge42" class="edge">
<title>glibc&#45;minimal&#45;langpack&#45;&gt;glibc</title>
<path fill="none" stroke="#444444" stroke-opacity="0.333333" d="M293.1565,-350.5951C298.1535,-325.6667 302.9466,-280.4412 303.9232,-250.9363"/>
<polygon fill="#444444" fill-opacity="0.333333" stroke="#444444" stroke-opacity="0.333333" points="307.4242,-250.9051 304.1036,-240.8441 300.4253,-250.7799 307.4242,-250.9051"/>
</g>
<!-- glibc&#45;minimal&#45;langpack&#45;&gt;glibc&#45;common -->
<g id="edge43" class="edge">
<title>glibc&#45;minimal&#45;langpack&#45;&gt;glibc&#45;common</title>
<path fill="none" stroke="#444444" stroke-opacity="0.333333" d="M304.5356,-387.0249C317.2353,-400.0792 334.4427,-417.7671 348.4255,-432.1402"/>
<polygon fill="#444444" fill-opacity="0.333333" stroke="#444444" stroke-opacity="0.333333" points="345.9209,-434.585 355.4027,-439.3122 350.9383,-429.7039 345.9209,-434.585"/>
</g>
<!-- libacl&#45;&gt;glibc -->
<g id="edge17" class="edge">
<title>libacl&#45;&gt;glibc</title>
<path fill="none" stroke="#444444" stroke-opacity="0.333333" d="M217.9938,-36.1462C234.0904,-72.1457 270.1426,-152.7751 289.1104,-195.196"/>
<polygon fill="#444444" fill-opacity="0.333333" stroke="#444444" stroke-opacity="0.333333" points="285.9373,-196.6741 293.2144,-204.3744 292.3276,-193.8168 285.9373,-196.6741"/>
</g>
<!-- libacl&#45;&gt;libattr -->
<g id="edge18" class="edge">
<title>libacl&#45;&gt;libattr</title>
<path fill="none" stroke="#444444" stroke-opacity="0.333333" d="M178.5209,-36.1625C177.0025,-37.0419 175.4695,-37.9298 173.9319,-38.8203"/>
<polygon fill="#444444" fill-opacity="0.333333" stroke="#444444" stroke-opacity="0.333333" points="172.0463,-35.8677 165.1471,-43.9083 175.5547,-41.9251 172.0463,-35.8677"/>
</g>
<!-- libattr&#45;&gt;glibc -->
<g id="edge19" class="edge">
<title>libattr&#45;&gt;glibc</title>
<path fill="none" stroke="#444444" stroke-opacity="0.333333" d="M152.7431,-80.1229C182.7215,-108.8482 241.2769,-164.9562 275.2359,-197.4958"/>
<polygon fill="#444444" fill-opacity="0.333333" stroke="#444444" stroke-opacity="0.333333" points="272.854,-200.0608 282.4959,-204.4523 277.697,-195.0065 272.854,-200.0608"/>
</g>
<!-- libattr&#45;&gt;libattr -->
<g id="edge20" class="edge">
<title>libattr&#45;&gt;libattr</title>
<path fill="none" stroke="#444444" stroke-opacity="0.333333" d="M186.4352,-68.5005C196.8986,-67.7721 204.36,-65.6149 204.36,-62.029 204.36,-59.7318 201.2979,-58.0209 196.346,-56.8964"/>
<polygon fill="#444444" fill-opacity="0.333333" stroke="#444444" stroke-opacity="0.333333" points="196.8138,-53.4279 186.4352,-55.5575 195.8766,-60.3649 196.8138,-53.4279"/>
</g>
<!-- libcap&#45;&gt;glibc -->
<g id="edge21" class="edge">
<title>libcap&#45;&gt;glibc</title>
<path fill="none" stroke="#444444" stroke-opacity="0.333333" d="M168.5709,-184.2439C190.5847,-190.5851 215.9008,-197.8775 238.4826,-204.3823"/>
<polygon fill="#444444" fill-opacity="0.333333" stroke="#444444" stroke-opacity="0.333333" points="237.7304,-207.8079 248.3085,-207.2127 239.6681,-201.0814 237.7304,-207.8079"/>
</g>
<!-- libcap&#45;&gt;libcap -->
<g id="edge22" class="edge">
<title>libcap&#45;&gt;libcap</title>
<path fill="none" stroke="#444444" stroke-opacity="0.333333" d="M168.5655,-174.3635C179.1123,-173.575 186.54,-171.4405 186.54,-167.96 186.54,-165.7303 183.4917,-164.053 178.5278,-162.9281"/>
<polygon fill="#444444" fill-opacity="0.333333" stroke="#444444" stroke-opacity="0.333333" points="178.9495,-159.4532 168.5655,-161.5565 177.9946,-166.3878 178.9495,-159.4532"/>
</g>
<!-- libselinux&#45;&gt;glibc -->
<g id="edge23" class="edge">
<title>libselinux&#45;&gt;glibc</title>
<path fill="none" stroke="#444444" stroke-opacity="0.333333" d="M351.9198,-118.3537C342.0541,-138.6515 325.9148,-171.8573 314.518,-195.3054"/>
<polygon fill="#444444" fill-opacity="0.333333" stroke="#444444" stroke-opacity="0.333333" points="311.3298,-193.8584 310.1062,-204.3824 317.6255,-196.9185 311.3298,-193.8584"/>
</g>
<!-- libselinux&#45;&gt;libsepol -->
<g id="edge24" class="edge">
<title>libselinux&#45;&gt;libsepol</title>
<path fill="none" stroke="#444444" stroke-opacity="0.333333" d="M371.6102,-118.4141C381.4476,-134.69 396.0345,-158.8241 407.2279,-177.3435"/>
<polygon fill="#444444" fill-opacity="0.333333" stroke="#444444" stroke-opacity="0.333333" points="404.2464,-179.177 412.4145,-185.9248 410.2371,-175.5561 404.2464,-179.177"/>
</g>
<!-- libselinux&#45;&gt;pcre2 -->
<g id="edge25" class="edge">
<title>libselinux&#45;&gt;pcre2</title>
<path fill="none" stroke="#444444" stroke-opacity="0.333333" d="M372.0531,-82.0263C376.4297,-74.9827 381.5244,-66.7834 386.3067,-59.0869"/>
<polygon fill="#444444" fill-opacity="0.333333" stroke="#444444" stroke-opacity="0.333333" points="389.4105,-60.7233 391.7155,-50.3822 383.4648,-57.0289 389.4105,-60.7233"/>
</g>
<!-- libsepol&#45;&gt;bash -->
<g id="edge44" class="edge">
<title>libsepol&#45;&gt;bash</title>
<path fill="none" stroke="#444444" stroke-opacity="0.333333" d="M425.4285,-222.3687C428.1201,-246.9044 432.9366,-290.8122 436.1029,-319.6755"/>
<polygon fill="#444444" fill-opacity="0.333333" stroke="#444444" stroke-opacity="0.333333" points="432.658,-320.3705 437.2277,-329.9292 439.6163,-319.6072 432.658,-320.3705"/>
</g>
<!-- libsepol&#45;&gt;glibc -->
<g id="edge45" class="edge">
<title>libsepol&#45;&gt;glibc</title>
<path fill="none" stroke="#444444" stroke-opacity="0.333333" d="M362.37,-213.315C362.206,-213.3396 362.042,-213.3642 361.8781,-213.3888"/>
<polygon fill="#444444" fill-opacity="0.333333" stroke="#444444" stroke-opacity="0.333333" points="363.888,-209.5478 354.5184,-214.4935 364.9271,-216.4703 363.888,-209.5478"/>
</g>
<!-- pcre2&#45;&gt;glibc -->
<g id="edge46" class="edge">
<title>pcre2&#45;&gt;glibc</title>
<path fill="none" stroke="#444444" stroke-opacity="0.333333" d="M393.358,-50.2893C375.4183,-83.8485 337.1163,-155.4986 316.014,-194.9738"/>
<polygon fill="#444444" fill-opacity="0.333333" stroke="#444444" stroke-opacity="0.333333" points="312.6702,-193.8049 311.0424,-204.2739 318.8435,-197.105 312.6702,-193.8049"/>
</g>
<!-- pcre2&#45;&gt;pcre2 -->
<g id="edge47" class="edge">
<title>pcre2&#45;&gt;pcre2</title>
<path fill="none" stroke="#444444" stroke-opacity="0.333333" d="M458.1933,-38.455C468.6941,-37.686 476.12,-35.5436 476.12,-32.028 476.12,-29.7758 473.0724,-28.0872 468.1211,-26.9622"/>
<polygon fill="#444444" fill-opacity="0.333333" stroke="#444444" stroke-opacity="0.333333" points="468.5761,-23.4919 458.1933,-25.601 467.6251,-30.427 468.5761,-23.4919"/>
</g>
<!-- fedora&#45;release&#45;common&#45;&gt;fedora&#45;release -->
<g id="edge27" class="edge">
<title>fedora&#45;release&#45;common&#45;&gt;fedora&#45;release</title>
<path fill="none" stroke="#444444" stroke-opacity="0.333333" d="M1226.396,-259.9684C1226.3183,-259.9692 1226.2407,-259.97 1226.163,-259.9708"/>
<polygon fill="#444444" fill-opacity="0.333333" stroke="#444444" stroke-opacity="0.333333" points="1235.8917,-256.3651 1225.9302,-259.9732 1235.9675,-263.3647 1235.8917,-256.3651"/>
</g>
<!-- fedora&#45;release&#45;common&#45;&gt;fedora&#45;release -->
<g id="edge28" class="edge">
<title>fedora&#45;release&#45;common&#45;&gt;fedora&#45;release</title>
<path fill="none" stroke="#444444" stroke-dasharray="5,2" stroke-opacity="0.333333" d="M1226.472,-273.2729C1226.3941,-273.2718 1226.3163,-273.2707 1226.2385,-273.2696"/>
<polygon fill="#444444" fill-opacity="0.333333" stroke="#444444" stroke-opacity="0.333333" points="1236.0553,-269.913 1226.0051,-273.2662 1235.9528,-276.9123 1236.0553,-269.913"/>
</g>
<!-- fedora&#45;release&#45;common&#45;&gt;fedora&#45;release&#45;common -->
<g id="edge26" class="edge">
<title>fedora&#45;release&#45;common&#45;&gt;fedora&#45;release&#45;common</title>
<path fill="none" stroke="#444444" stroke-opacity="0.333333" d="M1443.0304,-280.3137C1453.7696,-279.211 1460.6,-277.3764 1460.6,-274.81 1460.6,-273.1659 1457.7968,-271.8221 1452.9585,-270.7787"/>
<polygon fill="#444444" fill-opacity="0.333333" stroke="#444444" stroke-opacity="0.333333" points="1453.4357,-267.3113 1443.0304,-269.3063 1452.4087,-274.2355 1453.4357,-267.3113"/>
</g>
<!-- fedora&#45;release&#45;common&#45;&gt;fedora&#45;repos -->
<g id="edge29" class="edge">
<title>fedora&#45;release&#45;common&#45;&gt;fedora&#45;repos</title>
<path fill="none" stroke="#444444" stroke-opacity="0.333333" d="M1442.8056,-264.4075C1442.8765,-264.4007 1442.9474,-264.3939 1443.0183,-264.3871"/>
<polygon fill="#444444" fill-opacity="0.333333" stroke="#444444" stroke-opacity="0.333333" points="1433.6133,-268.8117 1443.231,-264.3666 1432.9405,-261.8438 1433.6133,-268.8117"/>
</g>
<!-- fedora&#45;repos&#45;&gt;fedora&#45;release -->
<g id="edge31" class="edge">
<title>fedora&#45;repos&#45;&gt;fedora&#45;release</title>
<path fill="none" stroke="#444444" stroke-opacity="0.333333" d="M1442.5392,-260.5984C1384.4826,-262.9087 1300.6745,-266.2438 1237.8012,-268.7458"/>
<polygon fill="#444444" fill-opacity="0.333333" stroke="#444444" stroke-opacity="0.333333" points="1237.3563,-265.2607 1227.5034,-269.1556 1237.6347,-272.2551 1237.3563,-265.2607"/>
</g>
<!-- fedora&#45;repos&#45;&gt;fedora&#45;repos -->
<g id="edge32" class="edge">
<title>fedora&#45;repos&#45;&gt;fedora&#45;repos</title>
<path fill="none" stroke="#444444" stroke-opacity="0.333333" d="M1578.7292,-264.076C1589.3555,-263.1512 1596.6,-261.0892 1596.6,-257.89 1596.6,-255.8405 1593.6268,-254.2577 1588.6961,-253.1417"/>
<polygon fill="#444444" fill-opacity="0.333333" stroke="#444444" stroke-opacity="0.333333" points="1589.1265,-249.6676 1578.7292,-251.704 1588.1271,-256.5959 1589.1265,-249.6676"/>
</g>
<!-- fedora&#45;repos&#45;&gt;fedora&#45;gpg&#45;keys -->
<g id="edge33" class="edge">
<title>fedora&#45;repos&#45;&gt;fedora&#45;gpg&#45;keys</title>
<path fill="none" stroke="#444444" stroke-opacity="0.333333" d="M1546.188,-276.0458C1562.2646,-284.2475 1581.4377,-294.029 1598.491,-302.729"/>
<polygon fill="#444444" fill-opacity="0.333333" stroke="#444444" stroke-opacity="0.333333" points="1597.2155,-306.0074 1607.7138,-307.4341 1600.3966,-299.7719 1597.2155,-306.0074"/>
</g>
<!-- fedora&#45;repos&#45;&gt;fedora&#45;repos&#45;rawhide -->
<g id="edge34" class="edge">
<title>fedora&#45;repos&#45;&gt;fedora&#45;repos&#45;rawhide</title>
<path fill="none" stroke="#444444" stroke-opacity="0.333333" d="M1553.6237,-239.7285C1571.8835,-229.7065 1592.6581,-217.2415 1608.9787,-206.4644"/>
<polygon fill="#444444" fill-opacity="0.333333" stroke="#444444" stroke-opacity="0.333333" points="1611.2171,-209.176 1617.5431,-200.677 1607.2978,-203.3761 1611.2171,-209.176"/>
</g>
<!-- fedora&#45;repos&#45;rawhide&#45;&gt;fedora&#45;repos -->
<g id="edge35" class="edge">
<title>fedora&#45;repos&#45;rawhide&#45;&gt;fedora&#45;repos</title>
<path fill="none" stroke="#444444" stroke-opacity="0.333333" d="M1594.4763,-200.8315C1576.2165,-210.8535 1555.4419,-223.3185 1539.1213,-234.0956"/>
<polygon fill="#444444" fill-opacity="0.333333" stroke="#444444" stroke-opacity="0.333333" points="1536.8829,-231.384 1530.5569,-239.883 1540.8022,-237.1839 1536.8829,-231.384"/>
</g>
<!-- fedora&#45;repos&#45;rawhide&#45;&gt;fedora&#45;repos&#45;rawhide -->
<g id="edge36" class="edge">
<title>fedora&#45;repos&#45;rawhide&#45;&gt;fedora&#45;repos&#45;rawhide</title>
<path fill="none" stroke="#444444" stroke-opacity="0.333333" d="M1733.5583,-188.39C1744.4446,-187.3189 1751.5,-185.4122 1751.5,-182.67 1751.5,-180.9133 1748.6045,-179.4995 1743.6611,-178.4285"/>
<polygon fill="#444444" fill-opacity="0.333333" stroke="#444444" stroke-opacity="0.333333" points="1743.9597,-174.935 1733.5583,-176.95 1742.946,-181.8613 1743.9597,-174.935"/>
</g>
<!-- coreutils&#45;single&#45;&gt;glibc -->
<g id="edge48" class="edge">
<title>coreutils&#45;single&#45;&gt;glibc</title>
<path fill="none" stroke="#444444" stroke-opacity="0.333333" d="M223.0859,-124.2506C238.53,-143.6444 263.1216,-174.5251 280.6064,-196.4816"/>
<polygon fill="#444444" fill-opacity="0.333333" stroke="#444444" stroke-opacity="0.333333" points="277.9583,-198.7748 286.9258,-204.4171 283.4342,-194.4141 277.9583,-198.7748"/>
</g>
<!-- coreutils&#45;single&#45;&gt;libacl -->
<g id="edge49" class="edge">
<title>coreutils&#45;single&#45;&gt;libacl</title>
<path fill="none" stroke="#444444" stroke-opacity="0.333333" d="M208.8652,-87.8139C209.0386,-75.8886 209.2685,-60.067 209.4657,-46.5012"/>
<polygon fill="#444444" fill-opacity="0.333333" stroke="#444444" stroke-opacity="0.333333" points="212.9693,-46.2726 209.6151,-36.2227 205.9701,-46.1708 212.9693,-46.2726"/>
</g>
<!-- coreutils&#45;single&#45;&gt;libattr -->
<g id="edge50" class="edge">
<title>coreutils&#45;single&#45;&gt;libattr</title>
<path fill="none" stroke="#444444" stroke-opacity="0.333333" d="M177.7689,-87.8967C176.276,-87.0172 174.7688,-86.1293 173.2572,-85.2388"/>
<polygon fill="#444444" fill-opacity="0.333333" stroke="#444444" stroke-opacity="0.333333" points="175.0129,-82.2109 164.6203,-80.1506 171.4597,-88.2421 175.0129,-82.2109"/>
</g>
<!-- coreutils&#45;single&#45;&gt;libcap -->
<g id="edge51" class="edge">
<title>coreutils&#45;single&#45;&gt;libcap</title>
<path fill="none" stroke="#444444" stroke-opacity="0.333333" d="M180.4113,-124.1304C170.5827,-130.431 159.4022,-137.5984 148.9709,-144.2854"/>
<polygon fill="#444444" fill-opacity="0.333333" stroke="#444444" stroke-opacity="0.333333" points="146.9607,-141.4165 140.4309,-149.7599 150.7385,-147.3096 146.9607,-141.4165"/>
</g>
<!-- coreutils&#45;single&#45;&gt;libselinux -->
<g id="edge52" class="edge">
<title>coreutils&#45;single&#45;&gt;libselinux</title>
<path fill="none" stroke="#444444" stroke-opacity="0.333333" d="M287.3128,-103.0943C287.4487,-103.0892 287.5846,-103.0841 287.7204,-103.0789"/>
<polygon fill="#444444" fill-opacity="0.333333" stroke="#444444" stroke-opacity="0.333333" points="283.9588,-106.7233 293.8199,-102.8491 283.6952,-99.7283 283.9588,-106.7233"/>
</g>
<!-- filesystem -->
<g id="node1" class="node">
<title>filesystem</title>
<text text-anchor="middle" x="689.68" y="-323.65" font-family="Helvetica,sans-Serif" font-weight="bold" font-size="14.00" fill="#000000">filesystem (0.0 B)</text>
</g>
<!-- setup -->
<g id="node2" class="node">
<title>setup</title>
<text text-anchor="middle" x="883.37" y="-273.39" font-family="Helvetica,sans-Serif" font-weight="bold" font-size="14.00" fill="#000000">setup (709.7 kB)</text>
</g>
<!-- bash -->
<g id="node3" class="node">
<title>bash</title>
<text text-anchor="middle" x="439.21" y="-344.3" font-family="Helvetica,sans-Serif" font-weight="bold" font-size="14.00" fill="#000000">bash (7.2 MB)</text>
</g>
<!-- fedora&#45;release -->
<g id="node4" class="node">
<title>fedora&#45;release</title>
<text text-anchor="middle" x="1151" y="-268.5" font-family="Helvetica,sans-Serif" font-weight="bold" font-size="14.00" fill="#000000">fedora&#45;release (691.0 B)</text>
</g>
<!-- glibc -->
<g id="node5" class="node">
<title>glibc</title>
<text text-anchor="middle" x="301.31" y="-218.78" font-family="Helvetica,sans-Serif" font-weight="bold" font-size="14.00" fill="#000000">glibc (16.5 MB)</text>
</g>
<!-- ncurses&#45;libs -->
<g id="node6" class="node">
<title>ncurses&#45;libs</title>
<text text-anchor="middle" x="216.86" y="-423.71" font-family="Helvetica,sans-Serif" font-weight="bold" font-size="14.00" fill="#000000">ncurses&#45;libs (976.2 kB)</text>
</g>
<!-- basesystem -->
<g id="node7" class="node">
<title>basesystem</title>
<text text-anchor="middle" x="623.03" y="-241.52" font-family="Helvetica,sans-Serif" font-weight="bold" font-size="14.00" fill="#000000">basesystem (0.0 B)</text>
</g>
<!-- glibc&#45;common -->
<g id="node8" class="node">
<title>glibc&#45;common</title>
<text text-anchor="middle" x="372.97" y="-453.67" font-family="Helvetica,sans-Serif" font-weight="bold" font-size="14.00" fill="#000000">glibc&#45;common (7.8 MB)</text>
</g>
<!-- glibc&#45;minimal&#45;langpack -->
<g id="node9" class="node">
<title>glibc&#45;minimal&#45;langpack</title>
<text text-anchor="middle" x="286.65" y="-364.94" font-family="Helvetica,sans-Serif" font-weight="bold" font-size="14.00" fill="#000000">glibc&#45;minimal&#45;langpack (0.0 B)</text>
</g>
<!-- libgcc -->
<g id="node10" class="node">
<title>libgcc</title>
<text text-anchor="middle" x="91.889" y="-281.2" font-family="Helvetica,sans-Serif" font-weight="bold" font-size="14.00" fill="#000000">libgcc (194.2 kB)</text>
</g>
<!-- ncurses&#45;base -->
<g id="node11" class="node">
<title>ncurses&#45;base</title>
<text text-anchor="middle" x="74.5" y="-569.03" font-family="Helvetica,sans-Serif" font-weight="bold" font-size="14.00" fill="#000000">ncurses&#45;base (278.5 kB)</text>
</g>
<!-- libacl -->
<g id="node12" class="node">
<title>libacl</title>
<text text-anchor="middle" x="209.88" y="-14.3" font-family="Helvetica,sans-Serif" font-weight="bold" font-size="14.00" fill="#000000">libacl (40.7 kB)</text>
</g>
<!-- libattr -->
<g id="node13" class="node">
<title>libattr</title>
<text text-anchor="middle" x="133.86" y="-58.329" font-family="Helvetica,sans-Serif" font-weight="bold" font-size="14.00" fill="#000000">libattr (29.0 kB)</text>
</g>
<!-- libcap -->
<g id="node14" class="node">
<title>libcap</title>
<text text-anchor="middle" x="112.04" y="-164.26" font-family="Helvetica,sans-Serif" font-weight="bold" font-size="14.00" fill="#000000">libcap (145.4 kB)</text>
</g>
<!-- libselinux -->
<g id="node15" class="node">
<title>libselinux</title>
<text text-anchor="middle" x="360.68" y="-96.63" font-family="Helvetica,sans-Serif" font-weight="bold" font-size="14.00" fill="#000000">libselinux (173.6 kB)</text>
</g>
<!-- libsepol -->
<g id="node16" class="node">
<title>libsepol</title>
<text text-anchor="middle" x="423.43" y="-200.45" font-family="Helvetica,sans-Serif" font-weight="bold" font-size="14.00" fill="#000000">libsepol (747.3 kB)</text>
</g>
<!-- pcre2 -->
<g id="node17" class="node">
<title>pcre2</title>
<text text-anchor="middle" x="403.12" y="-28.328" font-family="Helvetica,sans-Serif" font-weight="bold" font-size="14.00" fill="#000000">pcre2 (743.5 kB)</text>
</g>
<!-- fedora&#45;release&#45;common -->
<g id="node18" class="node">
<title>fedora&#45;release&#45;common</title>
<text text-anchor="middle" x="1334.6" y="-271.11" font-family="Helvetica,sans-Serif" font-weight="bold" font-size="14.00" fill="#000000">fedora&#45;release&#45;common (14.2 kB)</text>
</g>
<!-- fedora&#45;repos -->
<g id="node19" class="node">
<title>fedora&#45;repos</title>
<text text-anchor="middle" x="1510.6" y="-254.19" font-family="Helvetica,sans-Serif" font-weight="bold" font-size="14.00" fill="#000000">fedora&#45;repos (8.4 kB)</text>
</g>
<!-- fedora&#45;gpg&#45;keys -->
<g id="node20" class="node">
<title>fedora&#45;gpg&#45;keys</title>
<text text-anchor="middle" x="1643.4" y="-321.94" font-family="Helvetica,sans-Serif" font-weight="bold" font-size="14.00" fill="#000000">fedora&#45;gpg&#45;keys (103.0 kB)</text>
</g>
<!-- fedora&#45;repos&#45;rawhide -->
<g id="node21" class="node">
<title>fedora&#45;repos&#45;rawhide</title>
<text text-anchor="middle" x="1637.5" y="-178.97" font-family="Helvetica,sans-Serif" font-weight="bold" font-size="14.00" fill="#000000">fedora&#45;repos&#45;rawhide (4.0 kB)</text>
</g>
<!-- tzdata -->
<g id="node22" class="node">
<title>tzdata</title>
<text text-anchor="middle" x="360.37" y="-651.47" font-family="Helvetica,sans-Serif" font-weight="bold" font-size="14.00" fill="#000000">tzdata (1.8 MB)</text>
</g>
<!-- coreutils&#45;single -->
<g id="node23" class="node">
<title>coreutils&#45;single</title>
<text text-anchor="middle" x="208.6" y="-102.36" font-family="Helvetica,sans-Serif" font-weight="bold" font-size="14.00" fill="#000000">coreutils&#45;single (1.4 MB)</text>
</g>
</g>

<script type="text/javascript"><![CDATA[

document.addEventListener('click', function(e) {
      e = e || window.event;
      var target = e.target || e.srcElement;
      text = target.parentElement.querySelector("title").textContent;

      console.log("Clicked on: " + text);
      // reset all strokes
      var nodes = document.getElementsByClassName("edge");

      for (index = 0, len = nodes.length; index < len; ++index) {
          //var title = nodes[index].querySelector("title").textContent.split("->");
          id = nodes[index].id;
          document.getElementById(id).querySelector("path").setAttribute("stroke-width", "1");
          document.getElementById(id).querySelector("path").setAttribute("stroke-opacity", "0.5");
          document.getElementById(id).querySelector("path").setAttribute("stroke", "#444444");
          document.getElementById(id).querySelector("polygon").setAttribute("stroke-width", "1");
          document.getElementById(id).querySelector("polygon").setAttribute("stroke-opacity", "0.5");
          document.getElementById(id).querySelector("polygon").setAttribute("stroke", "#444444");
      }
      // reset text highlight
      pkgs = document.getElementsByClassName("node");
      for (index2 = 0, len2 = pkgs.length; index2 < len2; ++index2) {
          target_id = pkgs[index2].id;
          document.getElementById(target_id).querySelector("text").setAttribute("font-weight", "normal");
      }

      // highlight deps
      var nodes = document.getElementsByClassName("edge");
      for (index = 0, len = nodes.length; index < len; ++index) {
        var title = nodes[index].querySelector("title").textContent.split("->");

        if (title[0] == text) {
          id = nodes[index].id;
          //console.log("ID:   " + id);
          document.getElementById(id).querySelector("path").setAttribute("stroke-width", "3");
          document.getElementById(id).querySelector("path").setAttribute("stroke-opacity", "1");
          document.getElementById(id).querySelector("path").setAttribute("stroke", "#aa3333");
          document.getElementById(id).querySelector("polygon").setAttribute("stroke-width", "5");
          document.getElementById(id).querySelector("polygon").setAttribute("stroke-opacity", "1");
          document.getElementById(id).querySelector("polygon").setAttribute("stroke", "#aa3333");

        }
        if (title[1] == text) {
          id = nodes[index].id;
          document.getElementById(id).querySelector("path").setAttribute("stroke-width", "3");
          document.getElementById(id).querySelector("path").setAttribute("stroke-opacity", "1");
          document.getElementById(id).querySelector("path").setAttribute("stroke", "#333377");
          document.getElementById(id).querySelector("polygon").setAttribute("stroke-width", "5");
          document.getElementById(id).querySelector("polygon").setAttribute("stroke-opacity", "1");
          document.getElementById(id).querySelector("polygon").setAttribute("stroke", "#333377");
        }

        if (title[0] == text || title[1] == text) {
          pkgs = document.getElementsByClassName("node");
          for (index2 = 0, len2 = pkgs.length; index2 < len2; ++index2) {
            var pkg_name = pkgs[index2].querySelector("title").textContent;
            if (pkg_name == title[0] || pkg_name == title[1]) {
              target_id = pkgs[index2].id;
              document.getElementById(target_id).querySelector("text").setAttribute("font-weight", "bold");
            }
          }
        }
      }


  }, false);

]]></script>


  <text
     id="text7664"
     y="19.384439"
     x="9.9055691"
     style="font-style:normal;font-weight:normal;font-size:12.49485588px;line-height:125%;font-family:sans-serif;letter-spacing:0px;word-spacing:0px;fill:#000000;fill-opacity:1;stroke:none;stroke-width:0.3123714px;stroke-linecap:butt;stroke-linejoin:miter;stroke-opacity:1"
     xml:space="preserve"><tspan
       style="font-size:12.00258541px;stroke-width:0.3123714px"
       y="19.384439"
       x="9.9055691"
       id="tspan7666"><a href="report-use-case-definition--freeipa-trust-controller--rawhide.html"><tspan
   style="font-weight:bold;font-size:12.00258541px;fill:#0066ff;stroke-width:0.3123714px"
   id="tspan7668">FreeIPA Trust Controller</tspan></a> on <a href="report-base-definition--minimal-langpack-base-2--rawhide.html"><tspan
   style="font-weight:bold;font-size:12.00258541px;fill:#0066ff;stroke-width:0.3123714px"
   id="tspan7676">Minimal Base 2</tspan></a> (Fedora rawhide)</tspan></text>
  <text
     xml:space="preserve"
     style="font-style:normal;font-weight:normal;font-size:11.85299969px;line-height:125%;font-family:sans-serif;letter-spacing:0px;word-spacing:0px;fill:#000000;fill-opacity:1;stroke:none;stroke-width:0.296325px;stroke-linecap:butt;stroke-linejoin:miter;stroke-opacity:1"
     x="9.9365959"
     y="58.520042"
     id="text8235"><tspan
       id="tspan8237"
       x="9.9365959"
       y="58.520042"
       style="stroke-width:0.296325px;font-size:10.80232704px;fill:#666666">Generated by <a href="./"><tspan
   style="fill:#3771c8"
   id="tspan8255">Feedback Pipeline</tspan></a></tspan></text>
  <text
     xml:space="preserve"
     style="font-style:normal;font-weight:normal;font-size:12.49485588px;line-height:125%;font-family:sans-serif;letter-spacing:0px;word-spacing:0px;fill:#000000;fill-opacity:1;stroke:none;stroke-width:0.3123714px;stroke-linecap:butt;stroke-linejoin:miter;stroke-opacity:1"
     x="9.9055691"
     y="38.974205"
     id="text8245"><a href="graph-simple--freeipa-trust-controller--minimal-langpack-base-2--rawhide.svg"><tspan
       id="tspan8247"
       x="9.9055691"
       y="38.974205"
       style="font-weight:normal;font-size:12.00258541px;fill:#0066ff;stroke-width:0.3123714px">Collapse base image</tspan></a></text>

</svg>
